<?xml version="1.0" encoding="UTF-8" standalone="no"?>
<!DOCTYPE svg PUBLIC "-//W3C//DTD SVG 1.1//EN"
 "http://www.w3.org/Graphics/SVG/1.1/DTD/svg11.dtd">
<!-- Generated by graphviz version 2.26.3 (20100126.1600)
 -->
<!-- Title: src/analysis/utils/A2GeoAcceptance.h Pages: 1 -->
<svg width="2274pt" height="284pt"
 viewBox="0.00 0.00 2274.00 284.00" xmlns="http://www.w3.org/2000/svg" xmlns:xlink="http://www.w3.org/1999/xlink">
<g id="graph1" class="graph" transform="scale(1 1) rotate(0) translate(4 280)">
<title>src/analysis/utils/A2GeoAcceptance.h</title>
<polygon fill="white" stroke="white" points="-4,5 -4,-280 2271,-280 2271,5 -4,5"/>
<!-- Node1 -->
<g id="node1" class="node"><title>Node1</title>
<polygon fill="#bfbfbf" stroke="black" points="1380,-241 1380,-275 1490,-275 1490,-241 1380,-241"/>
<text text-anchor="start" x="1388" y="-262" font-family="Helvetica,sans-Serif" font-size="10.00">src/analysis/utils</text>
<text text-anchor="middle" x="1435" y="-249" font-family="Helvetica,sans-Serif" font-size="10.00">/A2GeoAcceptance.h</text>
</g>
<!-- Node2 -->
<g id="node3" class="node"><title>Node2</title>
<a xlink:href="_pluto_reader_8h.html" target="_top" xlink:title="src/analysis/input\l/pluto/PlutoReader.h">
<polygon fill="white" stroke="black" points="304,-163 304,-197 410,-197 410,-163 304,-163"/>
<text text-anchor="start" x="312" y="-184" font-family="Helvetica,sans-Serif" font-size="10.00">src/analysis/input</text>
<text text-anchor="middle" x="357" y="-171" font-family="Helvetica,sans-Serif" font-size="10.00">/pluto/PlutoReader.h</text>
</a>
</g>
<!-- Node1&#45;&gt;Node2 -->
<g id="edge2" class="edge"><title>Node1&#45;&gt;Node2</title>
<path fill="none" stroke="midnightblue" d="M1369.46,-253.427C1237.96,-244.233 932.555,-222.777 676,-204 582.39,-197.149 473.353,-188.884 410.052,-184.058"/>
<polygon fill="midnightblue" stroke="midnightblue" points="1369.54,-256.941 1379.76,-254.147 1370.03,-249.958 1369.54,-256.941"/>
</g>
<!-- Node8 -->
<g id="node15" class="node"><title>Node8</title>
<a xlink:href="etaprime-3pi0_8h.html" target="_top" xlink:title="src/analysis/physics\l/etaprime/etaprime&#45;3pi0.h">
<polygon fill="white" stroke="black" points="1142.5,-163 1142.5,-197 1269.5,-197 1269.5,-163 1142.5,-163"/>
<text text-anchor="start" x="1150.5" y="-184" font-family="Helvetica,sans-Serif" font-size="10.00">src/analysis/physics</text>
<text text-anchor="middle" x="1206" y="-171" font-family="Helvetica,sans-Serif" font-size="10.00">/etaprime/etaprime&#45;3pi0.h</text>
</a>
</g>
<!-- Node1&#45;&gt;Node8 -->
<g id="edge14" class="edge"><title>Node1&#45;&gt;Node8</title>
<path fill="none" stroke="midnightblue" d="M1375.36,-237.688C1338.37,-225.086 1291.36,-209.075 1256.26,-197.119"/>
<polygon fill="midnightblue" stroke="midnightblue" points="1374.43,-241.068 1385.03,-240.979 1376.69,-234.442 1374.43,-241.068"/>
</g>
<!-- Node10 -->
<g id="node19" class="node"><title>Node10</title>
<a xlink:href="etaprime__omega__gamma_8h.html" target="_top" xlink:title="src/analysis/physics\l/etaprime/etaprime_omega\l_gamma.h">
<polygon fill="white" stroke="black" points="986,-156.5 986,-203.5 1118,-203.5 1118,-156.5 986,-156.5"/>
<text text-anchor="start" x="994" y="-190.5" font-family="Helvetica,sans-Serif" font-size="10.00">src/analysis/physics</text>
<text text-anchor="start" x="994" y="-177.5" font-family="Helvetica,sans-Serif" font-size="10.00">/etaprime/etaprime_omega</text>
<text text-anchor="middle" x="1052" y="-164.5" font-family="Helvetica,sans-Serif" font-size="10.00">_gamma.h</text>
</a>
</g>
<!-- Node1&#45;&gt;Node10 -->
<g id="edge18" class="edge"><title>Node1&#45;&gt;Node10</title>
<path fill="none" stroke="midnightblue" d="M1370.07,-248.414C1308.83,-238.887 1214.65,-222.98 1134,-204 1128.8,-202.777 1123.44,-201.423 1118.07,-199.999"/>
<polygon fill="midnightblue" stroke="midnightblue" points="1369.57,-251.878 1379.99,-249.945 1370.64,-244.96 1369.57,-251.878"/>
</g>
<!-- Node13 -->
<g id="node25" class="node"><title>Node13</title>
<a xlink:href="_geo_acceptance_8h.html" target="_top" xlink:title="src/analysis/physics\l/omega/GeoAcceptance.h">
<polygon fill="white" stroke="black" points="1291,-163 1291,-197 1421,-197 1421,-163 1291,-163"/>
<text text-anchor="start" x="1299" y="-184" font-family="Helvetica,sans-Serif" font-size="10.00">src/analysis/physics</text>
<text text-anchor="middle" x="1356" y="-171" font-family="Helvetica,sans-Serif" font-size="10.00">/omega/GeoAcceptance.h</text>
</a>
</g>
<!-- Node1&#45;&gt;Node13 -->
<g id="edge24" class="edge"><title>Node1&#45;&gt;Node13</title>
<path fill="none" stroke="midnightblue" d="M1410.35,-233.659C1398.39,-221.856 1384.32,-207.957 1373.48,-197.262"/>
<polygon fill="midnightblue" stroke="midnightblue" points="1407.89,-236.154 1417.47,-240.689 1412.81,-231.173 1407.89,-236.154"/>
</g>
<!-- Node15 -->
<g id="node29" class="node"><title>Node15</title>
<a xlink:href="mctrue__acceptance_8h.html" target="_top" xlink:title="src/analysis/physics\l/omega/mctrue_acceptance.h">
<polygon fill="white" stroke="black" points="1441,-163 1441,-197 1587,-197 1587,-163 1441,-163"/>
<text text-anchor="start" x="1449" y="-184" font-family="Helvetica,sans-Serif" font-size="10.00">src/analysis/physics</text>
<text text-anchor="middle" x="1514" y="-171" font-family="Helvetica,sans-Serif" font-size="10.00">/omega/mctrue_acceptance.h</text>
</a>
</g>
<!-- Node1&#45;&gt;Node15 -->
<g id="edge28" class="edge"><title>Node1&#45;&gt;Node15</title>
<path fill="none" stroke="midnightblue" d="M1459.65,-233.659C1471.61,-221.856 1485.68,-207.957 1496.52,-197.262"/>
<polygon fill="midnightblue" stroke="midnightblue" points="1457.19,-231.173 1452.53,-240.689 1462.11,-236.154 1457.19,-231.173"/>
</g>
<!-- Node17 -->
<g id="node33" class="node"><title>Node17</title>
<a xlink:href="omega_8h.html" target="_top" xlink:title="src/analysis/physics\l/omega/omega.h">
<polygon fill="white" stroke="black" points="1695,-163 1695,-197 1801,-197 1801,-163 1695,-163"/>
<text text-anchor="start" x="1703" y="-184" font-family="Helvetica,sans-Serif" font-size="10.00">src/analysis/physics</text>
<text text-anchor="middle" x="1748" y="-171" font-family="Helvetica,sans-Serif" font-size="10.00">/omega/omega.h</text>
</a>
</g>
<!-- Node1&#45;&gt;Node17 -->
<g id="edge32" class="edge"><title>Node1&#45;&gt;Node17</title>
<path fill="none" stroke="midnightblue" d="M1499.99,-241.805C1557.72,-227.418 1641.06,-206.65 1694.88,-193.238"/>
<polygon fill="midnightblue" stroke="midnightblue" points="1499.09,-238.42 1490.24,-244.235 1500.79,-245.213 1499.09,-238.42"/>
</g>
<!-- Node21 -->
<g id="node41" class="node"><title>Node21</title>
<a xlink:href="pi0eta_8h.html" target="_top" xlink:title="src/analysis/physics\l/omega/pi0eta.h">
<polygon fill="white" stroke="black" points="2022,-79 2022,-113 2128,-113 2128,-79 2022,-79"/>
<text text-anchor="start" x="2030" y="-100" font-family="Helvetica,sans-Serif" font-size="10.00">src/analysis/physics</text>
<text text-anchor="middle" x="2075" y="-87" font-family="Helvetica,sans-Serif" font-size="10.00">/omega/pi0eta.h</text>
</a>
</g>
<!-- Node1&#45;&gt;Node21 -->
<g id="edge44" class="edge"><title>Node1&#45;&gt;Node21</title>
<path fill="none" stroke="midnightblue" d="M1500.21,-254.403C1593.25,-248.304 1758.55,-233.601 1810,-204 1833.58,-190.431 1824.92,-170.407 1848,-156 1911.67,-116.258 1941.12,-141.612 2013,-120 2019.74,-117.973 2026.79,-115.549 2033.62,-113.033"/>
<polygon fill="midnightblue" stroke="midnightblue" points="1499.82,-250.921 1490.06,-255.053 1500.26,-257.907 1499.82,-250.921"/>
</g>
<!-- Node23 -->
<g id="node46" class="node"><title>Node23</title>
<a xlink:href="single_pi0_8h.html" target="_top" xlink:title="src/analysis/physics\l/production/singlePi0.h">
<polygon fill="white" stroke="black" points="1857,-163 1857,-197 1973,-197 1973,-163 1857,-163"/>
<text text-anchor="start" x="1865" y="-184" font-family="Helvetica,sans-Serif" font-size="10.00">src/analysis/physics</text>
<text text-anchor="middle" x="1915" y="-171" font-family="Helvetica,sans-Serif" font-size="10.00">/production/singlePi0.h</text>
</a>
</g>
<!-- Node1&#45;&gt;Node23 -->
<g id="edge46" class="edge"><title>Node1&#45;&gt;Node23</title>
<path fill="none" stroke="midnightblue" d="M1500.1,-253.225C1581.2,-246.401 1723.65,-231.525 1843,-204 1851.22,-202.105 1859.83,-199.657 1868.12,-197.052"/>
<polygon fill="midnightblue" stroke="midnightblue" points="1499.71,-249.745 1490.04,-254.057 1500.29,-256.721 1499.71,-249.745"/>
</g>
<!-- Node25 -->
<g id="node50" class="node"><title>Node25</title>
<a xlink:href="_a2_geo_acceptance_8cc.html" target="_top" xlink:title="src/analysis/utils\l/A2GeoAcceptance.cc">
<polygon fill="white" stroke="black" points="1990.5,-163 1990.5,-197 2105.5,-197 2105.5,-163 1990.5,-163"/>
<text text-anchor="start" x="1998.5" y="-184" font-family="Helvetica,sans-Serif" font-size="10.00">src/analysis/utils</text>
<text text-anchor="middle" x="2048" y="-171" font-family="Helvetica,sans-Serif" font-size="10.00">/A2GeoAcceptance.cc</text>
</a>
</g>
<!-- Node1&#45;&gt;Node25 -->
<g id="edge50" class="edge"><title>Node1&#45;&gt;Node25</title>
<path fill="none" stroke="midnightblue" d="M1500.21,-253.617C1624.7,-244.911 1891.83,-224.503 1982,-204 1989.85,-202.216 1998.03,-199.756 2005.87,-197.088"/>
<polygon fill="midnightblue" stroke="midnightblue" points="1499.79,-250.138 1490.06,-254.323 1500.28,-257.121 1499.79,-250.138"/>
</g>
<!-- Node26 -->
<g id="node52" class="node"><title>Node26</title>
<a xlink:href="_m_c_fake_reconstructed_8h.html" target="_top" xlink:title="src/analysis/utils\l/MCFakeReconstructed.h">
<polygon fill="white" stroke="black" points="684.5,-163 684.5,-197 813.5,-197 813.5,-163 684.5,-163"/>
<text text-anchor="start" x="692.5" y="-184" font-family="Helvetica,sans-Serif" font-size="10.00">src/analysis/utils</text>
<text text-anchor="middle" x="749" y="-171" font-family="Helvetica,sans-Serif" font-size="10.00">/MCFakeReconstructed.h</text>
</a>
</g>
<!-- Node1&#45;&gt;Node26 -->
<g id="edge52" class="edge"><title>Node1&#45;&gt;Node26</title>
<path fill="none" stroke="midnightblue" d="M1369.42,-250.544C1238.06,-235.607 944.08,-202.181 813.559,-187.341"/>
<polygon fill="midnightblue" stroke="midnightblue" points="1369.4,-254.064 1379.73,-251.716 1370.19,-247.109 1369.4,-254.064"/>
</g>
<!-- Node3 -->
<g id="node5" class="node"><title>Node3</title>
<a xlink:href="_ant_8cc.html" target="_top" xlink:title="Main Ant executable. ">
<polygon fill="white" stroke="black" points="0,-85.5 0,-106.5 72,-106.5 72,-85.5 0,-85.5"/>
<text text-anchor="middle" x="36" y="-93.5" font-family="Helvetica,sans-Serif" font-size="10.00">progs/Ant.cc</text>
</a>
</g>
<!-- Node2&#45;&gt;Node3 -->
<g id="edge4" class="edge"><title>Node2&#45;&gt;Node3</title>
<path fill="none" stroke="midnightblue" d="M293.97,-171.374C237.106,-162.411 151.778,-145.997 81,-120 71.359,-116.459 61.2156,-111.199 53.0047,-106.505"/>
<polygon fill="midnightblue" stroke="midnightblue" points="293.478,-174.84 303.896,-172.909 294.548,-167.922 293.478,-174.84"/>
</g>
<!-- Node4 -->
<g id="node7" class="node"><title>Node4</title>
<a xlink:href="_pluto_reader_8cc.html" target="_top" xlink:title="src/analysis/input\l/pluto/PlutoReader.cc">
<polygon fill="white" stroke="black" points="89.5,-79 89.5,-113 200.5,-113 200.5,-79 89.5,-79"/>
<text text-anchor="start" x="97.5" y="-100" font-family="Helvetica,sans-Serif" font-size="10.00">src/analysis/input</text>
<text text-anchor="middle" x="145" y="-87" font-family="Helvetica,sans-Serif" font-size="10.00">/pluto/PlutoReader.cc</text>
</a>
</g>
<!-- Node2&#45;&gt;Node4 -->
<g id="edge6" class="edge"><title>Node2&#45;&gt;Node4</title>
<path fill="none" stroke="midnightblue" d="M304.516,-159.204C268.669,-145.001 221.754,-126.412 188.096,-113.076"/>
<polygon fill="midnightblue" stroke="midnightblue" points="303.257,-162.47 313.843,-162.9 305.836,-155.963 303.257,-162.47"/>
</g>
<!-- Node5 -->
<g id="node9" class="node"><title>Node5</title>
<a xlink:href="_test_fitter_8cc.html" target="_top" xlink:title="test/analysis/TestFitter.cc">
<polygon fill="white" stroke="black" points="365.5,-85.5 365.5,-106.5 496.5,-106.5 496.5,-85.5 365.5,-85.5"/>
<text text-anchor="middle" x="431" y="-93.5" font-family="Helvetica,sans-Serif" font-size="10.00">test/analysis/TestFitter.cc</text>
</a>
</g>
<!-- Node2&#45;&gt;Node5 -->
<g id="edge8" class="edge"><title>Node2&#45;&gt;Node5</title>
<path fill="none" stroke="midnightblue" d="M379.307,-154.678C393.333,-138.757 410.723,-119.017 421.333,-106.973"/>
<polygon fill="midnightblue" stroke="midnightblue" points="376.317,-152.778 372.333,-162.595 381.569,-157.405 376.317,-152.778"/>
</g>
<!-- Node6 -->
<g id="node11" class="node"><title>Node6</title>
<a xlink:href="_test_physics_manager_8cc.html" target="_top" xlink:title="test/analysis/TestPhysics\lManager.cc">
<polygon fill="white" stroke="black" points="218,-79 218,-113 348,-113 348,-79 218,-79"/>
<text text-anchor="start" x="226" y="-100" font-family="Helvetica,sans-Serif" font-size="10.00">test/analysis/TestPhysics</text>
<text text-anchor="middle" x="283" y="-87" font-family="Helvetica,sans-Serif" font-size="10.00">Manager.cc</text>
</a>
</g>
<!-- Node2&#45;&gt;Node6 -->
<g id="edge10" class="edge"><title>Node2&#45;&gt;Node6</title>
<path fill="none" stroke="midnightblue" d="M334.992,-155.018C323.084,-141.501 308.683,-125.154 298.06,-113.095"/>
<polygon fill="midnightblue" stroke="midnightblue" points="332.431,-157.405 341.667,-162.595 337.683,-152.778 332.431,-157.405"/>
</g>
<!-- Node7 -->
<g id="node13" class="node"><title>Node7</title>
<a xlink:href="_test_tree_fitter_8cc.html" target="_top" xlink:title="test/analysis/TestTreeFitter.cc">
<polygon fill="white" stroke="black" points="514,-85.5 514,-106.5 664,-106.5 664,-85.5 514,-85.5"/>
<text text-anchor="middle" x="589" y="-93.5" font-family="Helvetica,sans-Serif" font-size="10.00">test/analysis/TestTreeFitter.cc</text>
</a>
</g>
<!-- Node2&#45;&gt;Node7 -->
<g id="edge12" class="edge"><title>Node2&#45;&gt;Node7</title>
<path fill="none" stroke="midnightblue" d="M413.81,-159.431C460.004,-142.705 523.305,-119.786 559.808,-106.57"/>
<polygon fill="midnightblue" stroke="midnightblue" points="412.439,-156.205 404.228,-162.9 414.823,-162.787 412.439,-156.205"/>
</g>
<!-- Node9 -->
<g id="node17" class="node"><title>Node9</title>
<a xlink:href="etaprime-3pi0_8cc.html" target="_top" xlink:title="src/analysis/physics\l/etaprime/etaprime&#45;3pi0.cc">
<polygon fill="white" stroke="black" points="1138,-79 1138,-113 1270,-113 1270,-79 1138,-79"/>
<text text-anchor="start" x="1146" y="-100" font-family="Helvetica,sans-Serif" font-size="10.00">src/analysis/physics</text>
<text text-anchor="middle" x="1204" y="-87" font-family="Helvetica,sans-Serif" font-size="10.00">/etaprime/etaprime&#45;3pi0.cc</text>
</a>
</g>
<!-- Node8&#45;&gt;Node9 -->
<g id="edge16" class="edge"><title>Node8&#45;&gt;Node9</title>
<path fill="none" stroke="midnightblue" d="M1205.34,-152.33C1205.03,-139.38 1204.68,-124.365 1204.41,-113.095"/>
<polygon fill="midnightblue" stroke="midnightblue" points="1201.85,-152.681 1205.59,-162.595 1208.85,-152.515 1201.85,-152.681"/>
</g>
<!-- Node11 -->
<g id="node21" class="node"><title>Node11</title>
<a xlink:href="_etap_omega_g__plot_8cc.html" target="_top" xlink:title="progs/EtapOmegaG_plot.cc">
<polygon fill="white" stroke="black" points="983.5,-85.5 983.5,-106.5 1120.5,-106.5 1120.5,-85.5 983.5,-85.5"/>
<text text-anchor="middle" x="1052" y="-93.5" font-family="Helvetica,sans-Serif" font-size="10.00">progs/EtapOmegaG_plot.cc</text>
</a>
</g>
<!-- Node10&#45;&gt;Node11 -->
<g id="edge20" class="edge"><title>Node10&#45;&gt;Node11</title>
<path fill="none" stroke="midnightblue" d="M1052,-145.772C1052,-131.749 1052,-116.528 1052,-106.66"/>
<polygon fill="midnightblue" stroke="midnightblue" points="1048.5,-146.154 1052,-156.154 1055.5,-146.154 1048.5,-146.154"/>
</g>
<!-- Node12 -->
<g id="node23" class="node"><title>Node12</title>
<a xlink:href="etaprime__omega__gamma_8cc.html" target="_top" xlink:title="src/analysis/physics\l/etaprime/etaprime_omega\l_gamma.cc">
<polygon fill="white" stroke="black" points="834,-72.5 834,-119.5 966,-119.5 966,-72.5 834,-72.5"/>
<text text-anchor="start" x="842" y="-106.5" font-family="Helvetica,sans-Serif" font-size="10.00">src/analysis/physics</text>
<text text-anchor="start" x="842" y="-93.5" font-family="Helvetica,sans-Serif" font-size="10.00">/etaprime/etaprime_omega</text>
<text text-anchor="middle" x="900" y="-80.5" font-family="Helvetica,sans-Serif" font-size="10.00">_gamma.cc</text>
</a>
</g>
<!-- Node10&#45;&gt;Node12 -->
<g id="edge22" class="edge"><title>Node10&#45;&gt;Node12</title>
<path fill="none" stroke="midnightblue" d="M1000.25,-151.403C981.508,-141.044 960.565,-129.47 942.687,-119.59"/>
<polygon fill="midnightblue" stroke="midnightblue" points="998.81,-154.604 1009.26,-156.378 1002.2,-148.478 998.81,-154.604"/>
</g>
<!-- Node14 -->
<g id="node27" class="node"><title>Node14</title>
<a xlink:href="_geo_acceptance_8cc.html" target="_top" xlink:title="src/analysis/physics\l/omega/GeoAcceptance.cc">
<polygon fill="white" stroke="black" points="1287.5,-79 1287.5,-113 1422.5,-113 1422.5,-79 1287.5,-79"/>
<text text-anchor="start" x="1295.5" y="-100" font-family="Helvetica,sans-Serif" font-size="10.00">src/analysis/physics</text>
<text text-anchor="middle" x="1355" y="-87" font-family="Helvetica,sans-Serif" font-size="10.00">/omega/GeoAcceptance.cc</text>
</a>
</g>
<!-- Node13&#45;&gt;Node14 -->
<g id="edge26" class="edge"><title>Node13&#45;&gt;Node14</title>
<path fill="none" stroke="midnightblue" d="M1355.67,-152.33C1355.52,-139.38 1355.34,-124.365 1355.2,-113.095"/>
<polygon fill="midnightblue" stroke="midnightblue" points="1352.17,-152.638 1355.79,-162.595 1359.17,-152.554 1352.17,-152.638"/>
</g>
<!-- Node16 -->
<g id="node31" class="node"><title>Node16</title>
<a xlink:href="mctrue__acceptance_8cc.html" target="_top" xlink:title="src/analysis/physics\l/omega/mctrue_acceptance.cc">
<polygon fill="white" stroke="black" points="1439.5,-79 1439.5,-113 1590.5,-113 1590.5,-79 1439.5,-79"/>
<text text-anchor="start" x="1447.5" y="-100" font-family="Helvetica,sans-Serif" font-size="10.00">src/analysis/physics</text>
<text text-anchor="middle" x="1515" y="-87" font-family="Helvetica,sans-Serif" font-size="10.00">/omega/mctrue_acceptance.cc</text>
</a>
</g>
<!-- Node15&#45;&gt;Node16 -->
<g id="edge30" class="edge"><title>Node15&#45;&gt;Node16</title>
<path fill="none" stroke="midnightblue" d="M1514.33,-152.33C1514.48,-139.38 1514.66,-124.365 1514.8,-113.095"/>
<polygon fill="midnightblue" stroke="midnightblue" points="1510.83,-152.554 1514.21,-162.595 1517.83,-152.638 1510.83,-152.554"/>
</g>
<!-- Node18 -->
<g id="node35" class="node"><title>Node18</title>
<a xlink:href="_omega_eta_g2__plot_8cc.html" target="_top" xlink:title="Plotting tool for TTrees from the ant::analysis::physics::OmegaEtaG2 physics class. ">
<polygon fill="white" stroke="black" points="1607.5,-85.5 1607.5,-106.5 1744.5,-106.5 1744.5,-85.5 1607.5,-85.5"/>
<text text-anchor="middle" x="1676" y="-93.5" font-family="Helvetica,sans-Serif" font-size="10.00">progs/OmegaEtaG2_plot.cc</text>
</a>
</g>
<!-- Node17&#45;&gt;Node18 -->
<g id="edge34" class="edge"><title>Node17&#45;&gt;Node18</title>
<path fill="none" stroke="midnightblue" d="M1726.3,-154.678C1712.65,-138.757 1695.73,-119.017 1685.41,-106.973"/>
<polygon fill="midnightblue" stroke="midnightblue" points="1723.92,-157.28 1733.08,-162.595 1729.23,-152.725 1723.92,-157.28"/>
</g>
<!-- Node19 -->
<g id="node37" class="node"><title>Node19</title>
<a xlink:href="_triple_pi0__cuts_8cc.html" target="_top" xlink:title="progs/TriplePi0_cuts.cc">
<polygon fill="white" stroke="black" points="1761.5,-85.5 1761.5,-106.5 1880.5,-106.5 1880.5,-85.5 1761.5,-85.5"/>
<text text-anchor="middle" x="1821" y="-93.5" font-family="Helvetica,sans-Serif" font-size="10.00">progs/TriplePi0_cuts.cc</text>
</a>
</g>
<!-- Node17&#45;&gt;Node19 -->
<g id="edge36" class="edge"><title>Node17&#45;&gt;Node19</title>
<path fill="none" stroke="midnightblue" d="M1770.01,-154.678C1783.84,-138.757 1801,-119.017 1811.46,-106.973"/>
<polygon fill="midnightblue" stroke="midnightblue" points="1767.04,-152.751 1763.13,-162.595 1772.33,-157.343 1767.04,-152.751"/>
</g>
<!-- Node20 -->
<g id="node39" class="node"><title>Node20</title>
<a xlink:href="omega_8cc.html" target="_top" xlink:title="src/analysis/physics\l/omega/omega.cc">
<polygon fill="white" stroke="black" points="1898,-79 1898,-113 2004,-113 2004,-79 1898,-79"/>
<text text-anchor="start" x="1906" y="-100" font-family="Helvetica,sans-Serif" font-size="10.00">src/analysis/physics</text>
<text text-anchor="middle" x="1951" y="-87" font-family="Helvetica,sans-Serif" font-size="10.00">/omega/omega.cc</text>
</a>
</g>
<!-- Node17&#45;&gt;Node20 -->
<g id="edge38" class="edge"><title>Node17&#45;&gt;Node20</title>
<path fill="none" stroke="midnightblue" d="M1798.94,-158.92C1833.21,-144.739 1877.81,-126.285 1909.83,-113.035"/>
<polygon fill="midnightblue" stroke="midnightblue" points="1797.47,-155.741 1789.57,-162.799 1800.15,-162.209 1797.47,-155.741"/>
</g>
<!-- Node17&#45;&gt;Node21 -->
<g id="edge40" class="edge"><title>Node17&#45;&gt;Node21</title>
<path fill="none" stroke="midnightblue" d="M1801.94,-159.824C1806.33,-158.443 1810.72,-157.147 1815,-156 1901.39,-132.841 1926.91,-144.253 2013,-120 2019.89,-118.06 2027.08,-115.651 2034.02,-113.116"/>
<polygon fill="midnightblue" stroke="midnightblue" points="1800.78,-156.52 1792.37,-162.959 1802.96,-163.172 1800.78,-156.52"/>
</g>
<!-- Node22 -->
<g id="node43" class="node"><title>Node22</title>
<a xlink:href="pi0eta_8cc.html" target="_top" xlink:title="src/analysis/physics\l/omega/pi0eta.cc">
<polygon fill="white" stroke="black" points="2022,-1 2022,-35 2128,-35 2128,-1 2022,-1"/>
<text text-anchor="start" x="2030" y="-22" font-family="Helvetica,sans-Serif" font-size="10.00">src/analysis/physics</text>
<text text-anchor="middle" x="2075" y="-9" font-family="Helvetica,sans-Serif" font-size="10.00">/omega/pi0eta.cc</text>
</a>
</g>
<!-- Node21&#45;&gt;Node22 -->
<g id="edge42" class="edge"><title>Node21&#45;&gt;Node22</title>
<path fill="none" stroke="midnightblue" d="M2075,-68.6102C2075,-57.5188 2075,-45.0489 2075,-35.2623"/>
<polygon fill="midnightblue" stroke="midnightblue" points="2071.5,-68.6892 2075,-78.6893 2078.5,-68.6893 2071.5,-68.6892"/>
</g>
<!-- Node24 -->
<g id="node48" class="node"><title>Node24</title>
<a xlink:href="single_pi0_8cc.html" target="_top" xlink:title="src/analysis/physics\l/production/singlePi0.cc">
<polygon fill="white" stroke="black" points="2145.5,-79 2145.5,-113 2266.5,-113 2266.5,-79 2145.5,-79"/>
<text text-anchor="start" x="2153.5" y="-100" font-family="Helvetica,sans-Serif" font-size="10.00">src/analysis/physics</text>
<text text-anchor="middle" x="2206" y="-87" font-family="Helvetica,sans-Serif" font-size="10.00">/production/singlePi0.cc</text>
</a>
</g>
<!-- Node23&#45;&gt;Node24 -->
<g id="edge48" class="edge"><title>Node23&#45;&gt;Node24</title>
<path fill="none" stroke="midnightblue" d="M1970.31,-159.626C1974.25,-158.348 1978.18,-157.125 1982,-156 2049.85,-136.042 2069.06,-139.645 2137,-120 2144.19,-117.921 2151.73,-115.526 2159.08,-113.071"/>
<polygon fill="midnightblue" stroke="midnightblue" points="1968.91,-156.402 1960.54,-162.891 1971.13,-163.041 1968.91,-156.402"/>
</g>
<!-- Node26&#45;&gt;Node5 -->
<g id="edge58" class="edge"><title>Node26&#45;&gt;Node5</title>
<path fill="none" stroke="midnightblue" d="M674.655,-163.195C626.127,-151.864 561.522,-136.092 505,-120 490.711,-115.932 475.039,-110.929 461.811,-106.545"/>
<polygon fill="midnightblue" stroke="midnightblue" points="673.915,-166.617 684.448,-165.473 675.501,-159.799 673.915,-166.617"/>
</g>
<!-- Node26&#45;&gt;Node7 -->
<g id="edge60" class="edge"><title>Node26&#45;&gt;Node7</title>
<path fill="none" stroke="midnightblue" d="M707.204,-158.057C675.587,-141.458 633.566,-119.397 609.082,-106.543"/>
<polygon fill="midnightblue" stroke="midnightblue" points="705.755,-161.249 716.236,-162.799 709.008,-155.051 705.755,-161.249"/>
</g>
<!-- Node26&#45;&gt;Node12 -->
<g id="edge54" class="edge"><title>Node26&#45;&gt;Node12</title>
<path fill="none" stroke="midnightblue" d="M788.69,-157.921C809.916,-146.113 836.057,-131.571 857.671,-119.547"/>
<polygon fill="midnightblue" stroke="midnightblue" points="786.959,-154.879 779.921,-162.799 790.362,-160.996 786.959,-154.879"/>
</g>
<!-- Node27 -->
<g id="node55" class="node"><title>Node27</title>
<a xlink:href="_m_c_fake_reconstructed_8cc.html" target="_top" xlink:title="src/analysis/utils\l/MCFakeReconstructed.cc">
<polygon fill="white" stroke="black" points="682,-79 682,-113 816,-113 816,-79 682,-79"/>
<text text-anchor="start" x="690" y="-100" font-family="Helvetica,sans-Serif" font-size="10.00">src/analysis/utils</text>
<text text-anchor="middle" x="749" y="-87" font-family="Helvetica,sans-Serif" font-size="10.00">/MCFakeReconstructed.cc</text>
</a>
</g>
<!-- Node26&#45;&gt;Node27 -->
<g id="edge56" class="edge"><title>Node26&#45;&gt;Node27</title>
<path fill="none" stroke="midnightblue" d="M749,-152.33C749,-139.38 749,-124.365 749,-113.095"/>
<polygon fill="midnightblue" stroke="midnightblue" points="745.5,-152.595 749,-162.595 752.5,-152.595 745.5,-152.595"/>
</g>
</g>
</svg>
