<?xml version="1.0" encoding="UTF-8" standalone="no"?>
<!DOCTYPE svg PUBLIC "-//W3C//DTD SVG 1.1//EN"
 "http://www.w3.org/Graphics/SVG/1.1/DTD/svg11.dtd">
<!-- Generated by graphviz version 2.26.3 (20100126.1600)
 -->
<!-- Title: src/mc/pluto/A2Cocktail.cc Pages: 1 -->
<svg width="1130pt" height="204pt"
 viewBox="0.00 0.00 1130.00 204.00" xmlns="http://www.w3.org/2000/svg" xmlns:xlink="http://www.w3.org/1999/xlink">
<g id="graph1" class="graph" transform="scale(1 1) rotate(0) translate(4 200)">
<title>src/mc/pluto/A2Cocktail.cc</title>
<polygon fill="white" stroke="white" points="-4,5 -4,-200 1127,-200 1127,5 -4,5"/>
<!-- Node1 -->
<g id="node1" class="node"><title>Node1</title>
<polygon fill="#bfbfbf" stroke="black" points="675.5,-174.5 675.5,-195.5 810.5,-195.5 810.5,-174.5 675.5,-174.5"/>
<text text-anchor="middle" x="743" y="-182.5" font-family="Helvetica,sans-Serif" font-size="10.00">src/mc/pluto/A2Cocktail.cc</text>
</g>
<!-- Node2 -->
<g id="node3" class="node"><title>Node2</title>
<a xlink:href="_a2_cocktail_8h.html" target="_top" xlink:title="A2Cocktail.h">
<polygon fill="white" stroke="black" points="255.5,-116.5 255.5,-137.5 328.5,-137.5 328.5,-116.5 255.5,-116.5"/>
<text text-anchor="middle" x="292" y="-124.5" font-family="Helvetica,sans-Serif" font-size="10.00">A2Cocktail.h</text>
</a>
</g>
<!-- Node1&#45;&gt;Node2 -->
<g id="edge2" class="edge"><title>Node1&#45;&gt;Node2</title>
<path fill="none" stroke="midnightblue" d="M675.481,-176.317C582.941,-164.416 419.068,-143.341 338.861,-133.027"/>
<polygon fill="midnightblue" stroke="midnightblue" points="338.943,-129.508 328.578,-131.704 338.05,-136.451 338.943,-129.508"/>
</g>
<!-- Node14 -->
<g id="node29" class="node"><title>Node14</title>
<polygon fill="white" stroke="#bfbfbf" points="495,-58.5 495,-79.5 549,-79.5 549,-58.5 495,-58.5"/>
<text text-anchor="middle" x="522" y="-66.5" font-family="Helvetica,sans-Serif" font-size="10.00">iostream</text>
</g>
<!-- Node1&#45;&gt;Node14 -->
<g id="edge30" class="edge"><title>Node1&#45;&gt;Node14</title>
<path fill="none" stroke="midnightblue" d="M675.386,-175.39C627.239,-167.319 567.861,-154.467 549,-138 534.965,-125.746 528.168,-105.27 524.912,-89.7985"/>
<polygon fill="midnightblue" stroke="midnightblue" points="528.298,-88.8465 523.114,-79.6066 521.405,-90.0627 528.298,-88.8465"/>
</g>
<!-- Node15 -->
<g id="node31" class="node"><title>Node15</title>
<a xlink:href="_pluto_extensions_8h.html" target="_top" xlink:title="PlutoExtensions.h">
<polygon fill="white" stroke="black" points="558,-116.5 558,-137.5 654,-137.5 654,-116.5 558,-116.5"/>
<text text-anchor="middle" x="606" y="-124.5" font-family="Helvetica,sans-Serif" font-size="10.00">PlutoExtensions.h</text>
</a>
</g>
<!-- Node1&#45;&gt;Node15 -->
<g id="edge32" class="edge"><title>Node1&#45;&gt;Node15</title>
<path fill="none" stroke="midnightblue" d="M718.19,-174.497C696.504,-165.315 664.789,-151.889 640.608,-141.652"/>
<polygon fill="midnightblue" stroke="midnightblue" points="641.661,-138.297 631.088,-137.621 638.932,-144.743 641.661,-138.297"/>
</g>
<!-- Node21 -->
<g id="node44" class="node"><title>Node21</title>
<polygon fill="white" stroke="#bfbfbf" points="671.5,-116.5 671.5,-137.5 722.5,-137.5 722.5,-116.5 671.5,-116.5"/>
<text text-anchor="middle" x="697" y="-124.5" font-family="Helvetica,sans-Serif" font-size="10.00">TH1D.h</text>
</g>
<!-- Node1&#45;&gt;Node21 -->
<g id="edge46" class="edge"><title>Node1&#45;&gt;Node21</title>
<path fill="none" stroke="midnightblue" d="M734.563,-174.362C728.208,-166.35 719.334,-155.161 711.807,-145.67"/>
<polygon fill="midnightblue" stroke="midnightblue" points="714.34,-143.231 705.384,-137.571 708.855,-147.581 714.34,-143.231"/>
</g>
<!-- Node22 -->
<g id="node46" class="node"><title>Node22</title>
<polygon fill="white" stroke="#bfbfbf" points="740,-116.5 740,-137.5 838,-137.5 838,-116.5 740,-116.5"/>
<text text-anchor="middle" x="789" y="-124.5" font-family="Helvetica,sans-Serif" font-size="10.00">PDecayManager.h</text>
</g>
<!-- Node1&#45;&gt;Node22 -->
<g id="edge48" class="edge"><title>Node1&#45;&gt;Node22</title>
<path fill="none" stroke="midnightblue" d="M751.437,-174.362C757.792,-166.35 766.666,-155.161 774.193,-145.67"/>
<polygon fill="midnightblue" stroke="midnightblue" points="777.145,-147.581 780.616,-137.571 771.66,-143.231 777.145,-147.581"/>
</g>
<!-- Node23 -->
<g id="node48" class="node"><title>Node23</title>
<polygon fill="white" stroke="#bfbfbf" points="856,-116.5 856,-137.5 952,-137.5 952,-116.5 856,-116.5"/>
<text text-anchor="middle" x="904" y="-124.5" font-family="Helvetica,sans-Serif" font-size="10.00">PDecayChannel.h</text>
</g>
<!-- Node1&#45;&gt;Node23 -->
<g id="edge50" class="edge"><title>Node1&#45;&gt;Node23</title>
<path fill="none" stroke="midnightblue" d="M772.156,-174.497C798.176,-165.123 836.479,-151.324 865.104,-141.012"/>
<polygon fill="midnightblue" stroke="midnightblue" points="866.568,-144.205 874.789,-137.523 864.195,-137.62 866.568,-144.205"/>
</g>
<!-- Node24 -->
<g id="node50" class="node"><title>Node24</title>
<polygon fill="white" stroke="#bfbfbf" points="969.5,-116.5 969.5,-137.5 1040.5,-137.5 1040.5,-116.5 969.5,-116.5"/>
<text text-anchor="middle" x="1005" y="-124.5" font-family="Helvetica,sans-Serif" font-size="10.00">PReaction.h</text>
</g>
<!-- Node1&#45;&gt;Node24 -->
<g id="edge52" class="edge"><title>Node1&#45;&gt;Node24</title>
<path fill="none" stroke="midnightblue" d="M794.2,-174.454C836.198,-165.692 897.451,-152.659 959.517,-138.3"/>
<polygon fill="midnightblue" stroke="midnightblue" points="960.534,-141.657 969.483,-135.985 958.95,-134.839 960.534,-141.657"/>
</g>
<!-- Node25 -->
<g id="node52" class="node"><title>Node25</title>
<polygon fill="white" stroke="#bfbfbf" points="1057.5,-116.5 1057.5,-137.5 1122.5,-137.5 1122.5,-116.5 1057.5,-116.5"/>
<text text-anchor="middle" x="1090" y="-124.5" font-family="Helvetica,sans-Serif" font-size="10.00">PParticle.h</text>
</g>
<!-- Node1&#45;&gt;Node25 -->
<g id="edge54" class="edge"><title>Node1&#45;&gt;Node25</title>
<path fill="none" stroke="midnightblue" d="M810.539,-176.792C870.489,-169.013 960.614,-156.117 1047.39,-138.187"/>
<polygon fill="midnightblue" stroke="midnightblue" points="1048.33,-141.565 1057.4,-136.091 1046.9,-134.713 1048.33,-141.565"/>
</g>
<!-- Node3 -->
<g id="node5" class="node"><title>Node3</title>
<polygon fill="white" stroke="#bfbfbf" points="377.5,-0.5 377.5,-21.5 418.5,-21.5 418.5,-0.5 377.5,-0.5"/>
<text text-anchor="middle" x="398" y="-8.5" font-family="Helvetica,sans-Serif" font-size="10.00">string</text>
</g>
<!-- Node2&#45;&gt;Node3 -->
<g id="edge4" class="edge"><title>Node2&#45;&gt;Node3</title>
<path fill="none" stroke="midnightblue" d="M328.866,-121.052C370.324,-113.522 433.744,-99.1844 448,-80 461.238,-62.1862 441.789,-41.5545 423.417,-27.5255"/>
<polygon fill="midnightblue" stroke="midnightblue" points="425.331,-24.5905 415.173,-21.5782 421.236,-30.2673 425.331,-24.5905"/>
</g>
<!-- Node4 -->
<g id="node7" class="node"><title>Node4</title>
<polygon fill="white" stroke="#bfbfbf" points="0,-0.5 0,-21.5 44,-21.5 44,-0.5 0,-0.5"/>
<text text-anchor="middle" x="22" y="-8.5" font-family="Helvetica,sans-Serif" font-size="10.00">vector</text>
</g>
<!-- Node2&#45;&gt;Node4 -->
<g id="edge6" class="edge"><title>Node2&#45;&gt;Node4</title>
<path fill="none" stroke="midnightblue" d="M255.467,-122.576C200.573,-115.383 100.037,-99.9297 70,-80 51.946,-68.021 38.6877,-46.7268 30.7353,-30.9523"/>
<polygon fill="midnightblue" stroke="midnightblue" points="33.7204,-29.0779 26.2786,-21.5367 27.3934,-32.0727 33.7204,-29.0779"/>
</g>
<!-- Node5 -->
<g id="node9" class="node"><title>Node5</title>
<a xlink:href="_a2_channels_8h.html" target="_top" xlink:title="A2Channels.h">
<polygon fill="white" stroke="black" points="79,-58.5 79,-79.5 157,-79.5 157,-58.5 79,-58.5"/>
<text text-anchor="middle" x="118" y="-66.5" font-family="Helvetica,sans-Serif" font-size="10.00">A2Channels.h</text>
</a>
</g>
<!-- Node2&#45;&gt;Node5 -->
<g id="edge8" class="edge"><title>Node2&#45;&gt;Node5</title>
<path fill="none" stroke="midnightblue" d="M260.49,-116.497C232.123,-107.041 190.249,-93.0829 159.228,-82.7428"/>
<polygon fill="midnightblue" stroke="midnightblue" points="160.163,-79.365 149.569,-79.5231 157.949,-86.0058 160.163,-79.365"/>
</g>
<!-- Node10 -->
<g id="node21" class="node"><title>Node10</title>
<polygon fill="white" stroke="#bfbfbf" points="174.5,-58.5 174.5,-79.5 221.5,-79.5 221.5,-58.5 174.5,-58.5"/>
<text text-anchor="middle" x="198" y="-66.5" font-family="Helvetica,sans-Serif" font-size="10.00">TFile.h</text>
</g>
<!-- Node2&#45;&gt;Node10 -->
<g id="edge22" class="edge"><title>Node2&#45;&gt;Node10</title>
<path fill="none" stroke="midnightblue" d="M274.759,-116.362C260.448,-107.532 239.885,-94.844 223.643,-84.8224"/>
<polygon fill="midnightblue" stroke="midnightblue" points="225.48,-81.8431 215.132,-79.5707 221.804,-87.8004 225.48,-81.8431"/>
</g>
<!-- Node11 -->
<g id="node23" class="node"><title>Node11</title>
<polygon fill="white" stroke="#bfbfbf" points="239,-58.5 239,-79.5 281,-79.5 281,-58.5 239,-58.5"/>
<text text-anchor="middle" x="260" y="-66.5" font-family="Helvetica,sans-Serif" font-size="10.00">TF1.h</text>
</g>
<!-- Node2&#45;&gt;Node11 -->
<g id="edge24" class="edge"><title>Node2&#45;&gt;Node11</title>
<path fill="none" stroke="midnightblue" d="M286.131,-116.362C281.845,-108.595 275.913,-97.8426 270.784,-88.5458"/>
<polygon fill="midnightblue" stroke="midnightblue" points="273.727,-86.6357 265.832,-79.5707 267.598,-90.0172 273.727,-86.6357"/>
</g>
<!-- Node12 -->
<g id="node25" class="node"><title>Node12</title>
<polygon fill="white" stroke="#bfbfbf" points="299,-58.5 299,-79.5 349,-79.5 349,-58.5 299,-58.5"/>
<text text-anchor="middle" x="324" y="-66.5" font-family="Helvetica,sans-Serif" font-size="10.00">TTree.h</text>
</g>
<!-- Node2&#45;&gt;Node12 -->
<g id="edge26" class="edge"><title>Node2&#45;&gt;Node12</title>
<path fill="none" stroke="midnightblue" d="M297.869,-116.362C302.155,-108.595 308.087,-97.8426 313.216,-88.5458"/>
<polygon fill="midnightblue" stroke="midnightblue" points="316.402,-90.0172 318.168,-79.5707 310.273,-86.6357 316.402,-90.0172"/>
</g>
<!-- Node13 -->
<g id="node27" class="node"><title>Node13</title>
<polygon fill="white" stroke="#bfbfbf" points="366.5,-58.5 366.5,-79.5 439.5,-79.5 439.5,-58.5 366.5,-58.5"/>
<text text-anchor="middle" x="403" y="-66.5" font-family="Helvetica,sans-Serif" font-size="10.00">TRandom3.h</text>
</g>
<!-- Node2&#45;&gt;Node13 -->
<g id="edge28" class="edge"><title>Node2&#45;&gt;Node13</title>
<path fill="none" stroke="midnightblue" d="M312.101,-116.497C329.282,-107.519 354.23,-94.4835 373.645,-84.3387"/>
<polygon fill="midnightblue" stroke="midnightblue" points="375.431,-87.3544 382.673,-79.6212 372.189,-81.1503 375.431,-87.3544"/>
</g>
<!-- Node5&#45;&gt;Node3 -->
<g id="edge16" class="edge"><title>Node5&#45;&gt;Node3</title>
<path fill="none" stroke="midnightblue" d="M157.014,-59.9721C160.053,-59.2956 163.075,-58.6313 166,-58 238.148,-42.4277 323.252,-25.5721 367.623,-16.8986"/>
<polygon fill="midnightblue" stroke="midnightblue" points="368.336,-20.3254 377.481,-14.9752 366.996,-13.455 368.336,-20.3254"/>
</g>
<!-- Node5&#45;&gt;Node4 -->
<g id="edge14" class="edge"><title>Node5&#45;&gt;Node4</title>
<path fill="none" stroke="midnightblue" d="M100.392,-58.3619C85.7771,-49.532 64.7762,-36.844 48.1888,-26.8224"/>
<polygon fill="midnightblue" stroke="midnightblue" points="49.8653,-23.7461 39.4963,-21.5707 46.2455,-29.7376 49.8653,-23.7461"/>
</g>
<!-- Node6 -->
<g id="node11" class="node"><title>Node6</title>
<polygon fill="white" stroke="#bfbfbf" points="61.5,-0.5 61.5,-21.5 96.5,-21.5 96.5,-0.5 61.5,-0.5"/>
<text text-anchor="middle" x="79" y="-8.5" font-family="Helvetica,sans-Serif" font-size="10.00">map</text>
</g>
<!-- Node5&#45;&gt;Node6 -->
<g id="edge10" class="edge"><title>Node5&#45;&gt;Node6</title>
<path fill="none" stroke="midnightblue" d="M110.847,-58.3619C105.514,-50.4313 98.0888,-39.3885 91.7494,-29.9606"/>
<polygon fill="midnightblue" stroke="midnightblue" points="94.5923,-27.9161 86.1079,-21.5707 88.7834,-31.8221 94.5923,-27.9161"/>
</g>
<!-- Node7 -->
<g id="node13" class="node"><title>Node7</title>
<polygon fill="white" stroke="#bfbfbf" points="113.5,-0.5 113.5,-21.5 142.5,-21.5 142.5,-0.5 113.5,-0.5"/>
<text text-anchor="middle" x="128" y="-8.5" font-family="Helvetica,sans-Serif" font-size="10.00">list</text>
</g>
<!-- Node5&#45;&gt;Node7 -->
<g id="edge12" class="edge"><title>Node5&#45;&gt;Node7</title>
<path fill="none" stroke="midnightblue" d="M119.834,-58.3619C121.131,-50.8401 122.911,-40.5187 124.477,-31.4308"/>
<polygon fill="midnightblue" stroke="midnightblue" points="127.927,-32.02 126.177,-21.5707 121.029,-30.8306 127.927,-32.02"/>
</g>
<!-- Node8 -->
<g id="node17" class="node"><title>Node8</title>
<polygon fill="white" stroke="#bfbfbf" points="160,-0.5 160,-21.5 258,-21.5 258,-0.5 160,-0.5"/>
<text text-anchor="middle" x="209" y="-8.5" font-family="Helvetica,sans-Serif" font-size="10.00">Math/Interpolator.h</text>
</g>
<!-- Node5&#45;&gt;Node8 -->
<g id="edge18" class="edge"><title>Node5&#45;&gt;Node8</title>
<path fill="none" stroke="midnightblue" d="M134.691,-58.3619C148.416,-49.6138 168.084,-37.0786 183.737,-27.1015"/>
<polygon fill="midnightblue" stroke="midnightblue" points="185.863,-29.8969 192.415,-21.5707 182.101,-23.994 185.863,-29.8969"/>
</g>
<!-- Node9 -->
<g id="node19" class="node"><title>Node9</title>
<polygon fill="white" stroke="#bfbfbf" points="276,-0.5 276,-21.5 320,-21.5 320,-0.5 276,-0.5"/>
<text text-anchor="middle" x="298" y="-8.5" font-family="Helvetica,sans-Serif" font-size="10.00">TH1.h</text>
</g>
<!-- Node5&#45;&gt;Node9 -->
<g id="edge20" class="edge"><title>Node5&#45;&gt;Node9</title>
<path fill="none" stroke="midnightblue" d="M152.736,-58.4246C180.936,-49.7541 221.948,-36.9546 265.951,-22.2844"/>
<polygon fill="midnightblue" stroke="midnightblue" points="267.311,-25.5201 275.682,-19.0257 265.088,-18.8824 267.311,-25.5201"/>
</g>
<!-- Node15&#45;&gt;Node14 -->
<g id="edge44" class="edge"><title>Node15&#45;&gt;Node14</title>
<path fill="none" stroke="midnightblue" d="M590.593,-116.362C578.042,-107.696 560.108,-95.3126 545.725,-85.3819"/>
<polygon fill="midnightblue" stroke="midnightblue" points="547.527,-82.3725 537.309,-79.5707 543.55,-88.1327 547.527,-82.3725"/>
</g>
<!-- Node16 -->
<g id="node33" class="node"><title>Node16</title>
<polygon fill="white" stroke="#bfbfbf" points="567,-58.5 567,-79.5 645,-79.5 645,-58.5 567,-58.5"/>
<text text-anchor="middle" x="606" y="-66.5" font-family="Helvetica,sans-Serif" font-size="10.00">PStaticData.h</text>
</g>
<!-- Node15&#45;&gt;Node16 -->
<g id="edge34" class="edge"><title>Node15&#45;&gt;Node16</title>
<path fill="none" stroke="midnightblue" d="M606,-116.362C606,-108.922 606,-98.7427 606,-89.7276"/>
<polygon fill="midnightblue" stroke="midnightblue" points="609.5,-89.5706 606,-79.5707 602.5,-89.5707 609.5,-89.5706"/>
</g>
<!-- Node17 -->
<g id="node35" class="node"><title>Node17</title>
<polygon fill="white" stroke="#bfbfbf" points="663,-58.5 663,-79.5 759,-79.5 759,-58.5 663,-58.5"/>
<text text-anchor="middle" x="711" y="-66.5" font-family="Helvetica,sans-Serif" font-size="10.00">PSimpleVMDFF.h</text>
</g>
<!-- Node15&#45;&gt;Node17 -->
<g id="edge36" class="edge"><title>Node15&#45;&gt;Node17</title>
<path fill="none" stroke="midnightblue" d="M625.259,-116.362C641.466,-107.409 664.853,-94.4908 683.109,-84.4064"/>
<polygon fill="midnightblue" stroke="midnightblue" points="684.802,-87.4696 691.863,-79.5707 681.418,-81.3422 684.802,-87.4696"/>
</g>
<!-- Node18 -->
<g id="node37" class="node"><title>Node18</title>
<polygon fill="white" stroke="#bfbfbf" points="776.5,-58.5 776.5,-79.5 895.5,-79.5 895.5,-58.5 776.5,-58.5"/>
<text text-anchor="middle" x="836" y="-66.5" font-family="Helvetica,sans-Serif" font-size="10.00">PDistributionManager.h</text>
</g>
<!-- Node15&#45;&gt;Node18 -->
<g id="edge38" class="edge"><title>Node15&#45;&gt;Node18</title>
<path fill="none" stroke="midnightblue" d="M647.651,-116.497C686.04,-106.816 743.145,-92.4156 784.407,-82.0105"/>
<polygon fill="midnightblue" stroke="midnightblue" points="785.43,-85.3621 794.271,-79.5231 783.718,-78.5746 785.43,-85.3621"/>
</g>
<!-- Node19 -->
<g id="node39" class="node"><title>Node19</title>
<a xlink:href="_logger_8h.html" target="_top" xlink:title="base/Logger.h">
<polygon fill="white" stroke="black" points="913,-58.5 913,-79.5 991,-79.5 991,-58.5 913,-58.5"/>
<text text-anchor="middle" x="952" y="-66.5" font-family="Helvetica,sans-Serif" font-size="10.00">base/Logger.h</text>
</a>
</g>
<!-- Node15&#45;&gt;Node19 -->
<g id="edge40" class="edge"><title>Node15&#45;&gt;Node19</title>
<path fill="none" stroke="midnightblue" d="M654.176,-117.554C657.159,-117.015 660.119,-116.493 663,-116 766.621,-98.2704 795.885,-99.9892 902.857,-80.1116"/>
<polygon fill="midnightblue" stroke="midnightblue" points="903.577,-83.5377 912.759,-78.2517 902.285,-76.658 903.577,-83.5377"/>
</g>
<!-- Node20 -->
<g id="node41" class="node"><title>Node20</title>
<polygon fill="white" stroke="#bfbfbf" points="894.5,-0.5 894.5,-21.5 1009.5,-21.5 1009.5,-0.5 894.5,-0.5"/>
<text text-anchor="middle" x="952" y="-8.5" font-family="Helvetica,sans-Serif" font-size="10.00">detail/easylogging++.h</text>
</g>
<!-- Node19&#45;&gt;Node20 -->
<g id="edge42" class="edge"><title>Node19&#45;&gt;Node20</title>
<path fill="none" stroke="midnightblue" d="M952,-58.3619C952,-50.9219 952,-40.7427 952,-31.7276"/>
<polygon fill="midnightblue" stroke="midnightblue" points="955.5,-31.5706 952,-21.5707 948.5,-31.5707 955.5,-31.5706"/>
</g>
</g>
</svg>
