<?xml version="1.0" encoding="UTF-8" standalone="no"?>
<!DOCTYPE svg PUBLIC "-//W3C//DTD SVG 1.1//EN"
 "http://www.w3.org/Graphics/SVG/1.1/DTD/svg11.dtd">
<!-- Generated by graphviz version 2.26.3 (20100126.1600)
 -->
<!-- Title: src/mc/pluto/A2Channels.h Pages: 1 -->
<svg width="491pt" height="160pt"
 viewBox="0.00 0.00 491.00 160.00" xmlns="http://www.w3.org/2000/svg" xmlns:xlink="http://www.w3.org/1999/xlink">
<g id="graph1" class="graph" transform="scale(1 1) rotate(0) translate(4 156)">
<title>src/mc/pluto/A2Channels.h</title>
<polygon fill="white" stroke="white" points="-4,5 -4,-156 488,-156 488,5 -4,5"/>
<!-- Node1 -->
<g id="node1" class="node"><title>Node1</title>
<polygon fill="#bfbfbf" stroke="black" points="126.5,-130.5 126.5,-151.5 261.5,-151.5 261.5,-130.5 126.5,-130.5"/>
<text text-anchor="middle" x="194" y="-138.5" font-family="Helvetica,sans-Serif" font-size="10.00">src/mc/pluto/A2Channels.h</text>
</g>
<!-- Node2 -->
<g id="node3" class="node"><title>Node2</title>
<a xlink:href="show__cocktail__database_8cc.html" target="_top" xlink:title="progs/show_cocktail\l_database.cc">
<polygon fill="white" stroke="black" points="0,-59 0,-93 106,-93 106,-59 0,-59"/>
<text text-anchor="start" x="8" y="-80" font-family="Helvetica,sans-Serif" font-size="10.00">progs/show_cocktail</text>
<text text-anchor="middle" x="53" y="-67" font-family="Helvetica,sans-Serif" font-size="10.00">_database.cc</text>
</a>
</g>
<!-- Node1&#45;&gt;Node2 -->
<g id="edge2" class="edge"><title>Node1&#45;&gt;Node2</title>
<path fill="none" stroke="midnightblue" d="M161.733,-126.125C140.366,-116.275 112.282,-103.328 90.0079,-93.0604"/>
<polygon fill="midnightblue" stroke="midnightblue" points="160.485,-129.404 171.032,-130.412 163.416,-123.047 160.485,-129.404"/>
</g>
<!-- Node3 -->
<g id="node5" class="node"><title>Node3</title>
<a xlink:href="_a2_channels_8cc.html" target="_top" xlink:title="src/mc/pluto/A2Channels.cc">
<polygon fill="white" stroke="black" points="124,-65.5 124,-86.5 264,-86.5 264,-65.5 124,-65.5"/>
<text text-anchor="middle" x="194" y="-73.5" font-family="Helvetica,sans-Serif" font-size="10.00">src/mc/pluto/A2Channels.cc</text>
</a>
</g>
<!-- Node1&#45;&gt;Node3 -->
<g id="edge4" class="edge"><title>Node1&#45;&gt;Node3</title>
<path fill="none" stroke="midnightblue" d="M194,-120.014C194,-108.831 194,-95.5583 194,-86.5337"/>
<polygon fill="midnightblue" stroke="midnightblue" points="190.5,-120.267 194,-130.267 197.5,-120.267 190.5,-120.267"/>
</g>
<!-- Node4 -->
<g id="node7" class="node"><title>Node4</title>
<a xlink:href="_a2_cocktail_8h.html" target="_top" xlink:title="src/mc/pluto/A2Cocktail.h">
<polygon fill="white" stroke="black" points="282,-65.5 282,-86.5 412,-86.5 412,-65.5 282,-65.5"/>
<text text-anchor="middle" x="347" y="-73.5" font-family="Helvetica,sans-Serif" font-size="10.00">src/mc/pluto/A2Cocktail.h</text>
</a>
</g>
<!-- Node1&#45;&gt;Node4 -->
<g id="edge6" class="edge"><title>Node1&#45;&gt;Node4</title>
<path fill="none" stroke="midnightblue" d="M228.478,-126.353C256.935,-114.263 296.641,-97.3942 322.088,-86.5835"/>
<polygon fill="midnightblue" stroke="midnightblue" points="226.758,-123.28 218.923,-130.412 229.495,-129.723 226.758,-123.28"/>
</g>
<!-- Node5 -->
<g id="node9" class="node"><title>Node5</title>
<a xlink:href="_ant-cocktail_8cc.html" target="_top" xlink:title="progs/Ant&#45;cocktail.cc">
<polygon fill="white" stroke="black" points="222.5,-0.5 222.5,-21.5 331.5,-21.5 331.5,-0.5 222.5,-0.5"/>
<text text-anchor="middle" x="277" y="-8.5" font-family="Helvetica,sans-Serif" font-size="10.00">progs/Ant&#45;cocktail.cc</text>
</a>
</g>
<!-- Node4&#45;&gt;Node5 -->
<g id="edge8" class="edge"><title>Node4&#45;&gt;Node5</title>
<path fill="none" stroke="midnightblue" d="M328.083,-58.4338C315.384,-46.6419 299.075,-31.4983 288.344,-21.5337"/>
<polygon fill="midnightblue" stroke="midnightblue" points="325.731,-61.0268 335.441,-65.2666 330.495,-55.8972 325.731,-61.0268"/>
</g>
<!-- Node6 -->
<g id="node11" class="node"><title>Node6</title>
<a xlink:href="_a2_cocktail_8cc.html" target="_top" xlink:title="src/mc/pluto/A2Cocktail.cc">
<polygon fill="white" stroke="black" points="348.5,-0.5 348.5,-21.5 483.5,-21.5 483.5,-0.5 348.5,-0.5"/>
<text text-anchor="middle" x="416" y="-8.5" font-family="Helvetica,sans-Serif" font-size="10.00">src/mc/pluto/A2Cocktail.cc</text>
</a>
</g>
<!-- Node4&#45;&gt;Node6 -->
<g id="edge10" class="edge"><title>Node4&#45;&gt;Node6</title>
<path fill="none" stroke="midnightblue" d="M366.002,-58.0992C378.468,-46.3566 394.34,-31.4043 404.818,-21.5337"/>
<polygon fill="midnightblue" stroke="midnightblue" points="363.273,-55.862 358.394,-65.2666 368.073,-60.9572 363.273,-55.862"/>
</g>
</g>
</svg>
