<?xml version="1.0" encoding="UTF-8" standalone="no"?>
<!DOCTYPE svg PUBLIC "-//W3C//DTD SVG 1.1//EN"
 "http://www.w3.org/Graphics/SVG/1.1/DTD/svg11.dtd">
<!-- Generated by graphviz version 2.26.3 (20100126.1600)
 -->
<!-- Title: src/mc/pluto/A2Cocktail.h Pages: 1 -->
<svg width="268pt" height="88pt"
 viewBox="0.00 0.00 268.00 88.00" xmlns="http://www.w3.org/2000/svg" xmlns:xlink="http://www.w3.org/1999/xlink">
<g id="graph1" class="graph" transform="scale(1 1) rotate(0) translate(4 84)">
<title>src/mc/pluto/A2Cocktail.h</title>
<polygon fill="white" stroke="white" points="-4,5 -4,-84 265,-84 265,5 -4,5"/>
<!-- Node1 -->
<g id="node1" class="node"><title>Node1</title>
<polygon fill="#bfbfbf" stroke="black" points="58,-58.5 58,-79.5 188,-79.5 188,-58.5 58,-58.5"/>
<text text-anchor="middle" x="123" y="-66.5" font-family="Helvetica,sans-Serif" font-size="10.00">src/mc/pluto/A2Cocktail.h</text>
</g>
<!-- Node2 -->
<g id="node3" class="node"><title>Node2</title>
<a xlink:href="_ant-cocktail_8cc.html" target="_top" xlink:title="progs/Ant&#45;cocktail.cc">
<polygon fill="white" stroke="black" points="-0.5,-0.5 -0.5,-21.5 108.5,-21.5 108.5,-0.5 -0.5,-0.5"/>
<text text-anchor="middle" x="54" y="-8.5" font-family="Helvetica,sans-Serif" font-size="10.00">progs/Ant&#45;cocktail.cc</text>
</a>
</g>
<!-- Node1&#45;&gt;Node2 -->
<g id="edge2" class="edge"><title>Node1&#45;&gt;Node2</title>
<path fill="none" stroke="midnightblue" d="M102.408,-51.6908C90.7599,-41.8996 76.5713,-29.973 66.5754,-21.5707"/>
<polygon fill="midnightblue" stroke="midnightblue" points="100.437,-54.6066 110.344,-58.3619 104.942,-49.2481 100.437,-54.6066"/>
</g>
<!-- Node3 -->
<g id="node5" class="node"><title>Node3</title>
<a xlink:href="_a2_cocktail_8cc.html" target="_top" xlink:title="src/mc/pluto/A2Cocktail.cc">
<polygon fill="white" stroke="black" points="125.5,-0.5 125.5,-21.5 260.5,-21.5 260.5,-0.5 125.5,-0.5"/>
<text text-anchor="middle" x="193" y="-8.5" font-family="Helvetica,sans-Serif" font-size="10.00">src/mc/pluto/A2Cocktail.cc</text>
</a>
</g>
<!-- Node1&#45;&gt;Node3 -->
<g id="edge4" class="edge"><title>Node1&#45;&gt;Node3</title>
<path fill="none" stroke="midnightblue" d="M143.547,-51.9753C155.427,-42.1315 170.003,-30.0545 180.242,-21.5707"/>
<polygon fill="midnightblue" stroke="midnightblue" points="141.306,-49.2866 135.839,-58.3619 145.772,-54.6768 141.306,-49.2866"/>
</g>
</g>
</svg>
