<?xml version="1.0" encoding="UTF-8" standalone="no"?>
<!DOCTYPE svg PUBLIC "-//W3C//DTD SVG 1.1//EN"
 "http://www.w3.org/Graphics/SVG/1.1/DTD/svg11.dtd">
<!-- Generated by graphviz version 2.26.3 (20100126.1600)
 -->
<!-- Title: src/analysis/input/ant/AntReader.h Pages: 1 -->
<svg width="2066pt" height="376pt"
 viewBox="0.00 0.00 2066.25 376.00" xmlns="http://www.w3.org/2000/svg" xmlns:xlink="http://www.w3.org/1999/xlink">
<g id="graph1" class="graph" transform="scale(1 1) rotate(0) translate(4 372)">
<title>src/analysis/input/ant/AntReader.h</title>
<polygon fill="white" stroke="white" points="-4,5 -4,-372 2063.25,-372 2063.25,5 -4,5"/>
<!-- Node1 -->
<g id="node1" class="node"><title>Node1</title>
<polygon fill="#bfbfbf" stroke="black" points="682.733,-333 682.733,-367 775.733,-367 775.733,-333 682.733,-333"/>
<text text-anchor="start" x="690.733" y="-354" font-family="Helvetica,sans-Serif" font-size="10.00">src/analysis/input</text>
<text text-anchor="middle" x="729.233" y="-341" font-family="Helvetica,sans-Serif" font-size="10.00">/ant/AntReader.h</text>
</g>
<!-- Node2 -->
<g id="node3" class="node"><title>Node2</title>
<a xlink:href="_data_reader_8h.html" target="_top" xlink:title="analysis/input/DataReader.h">
<polygon fill="white" stroke="black" points="237.233,-267.5 237.233,-288.5 377.233,-288.5 377.233,-267.5 237.233,-267.5"/>
<text text-anchor="middle" x="307.233" y="-275.5" font-family="Helvetica,sans-Serif" font-size="10.00">analysis/input/DataReader.h</text>
</a>
</g>
<!-- Node1&#45;&gt;Node2 -->
<g id="edge2" class="edge"><title>Node1&#45;&gt;Node2</title>
<path fill="none" stroke="midnightblue" d="M682.46,-342.02C608.87,-329.464 465.533,-305.008 378.89,-290.226"/>
<polygon fill="midnightblue" stroke="midnightblue" points="379.319,-286.748 368.873,-288.517 378.142,-293.649 379.319,-286.748"/>
</g>
<!-- Node9 -->
<g id="node17" class="node"><title>Node9</title>
<polygon fill="white" stroke="#bfbfbf" points="60.2334,-58.5 60.2334,-79.5 112.233,-79.5 112.233,-58.5 60.2334,-58.5"/>
<text text-anchor="middle" x="86.2334" y="-66.5" font-family="Helvetica,sans-Serif" font-size="10.00">memory</text>
</g>
<!-- Node1&#45;&gt;Node9 -->
<g id="edge142" class="edge"><title>Node1&#45;&gt;Node9</title>
<path fill="none" stroke="midnightblue" d="M682.57,-349.17C593.128,-346.661 391.903,-336.571 228.233,-296 144.201,-275.17 111.321,-282.207 47.2334,-224 9.67384,-189.887 -14.4684,-160.32 10.2334,-116 18.9898,-100.289 35.4027,-89.1689 50.7411,-81.7035"/>
<polygon fill="midnightblue" stroke="midnightblue" points="52.3814,-84.8039 60.0746,-77.5192 49.5178,-78.4164 52.3814,-84.8039"/>
</g>
<!-- Node11 -->
<g id="node21" class="node"><title>Node11</title>
<a xlink:href="_unpacker_8h.html" target="_top" xlink:title="unpacker/Unpacker.h">
<polygon fill="white" stroke="black" points="1021.23,-123.5 1021.23,-144.5 1131.23,-144.5 1131.23,-123.5 1021.23,-123.5"/>
<text text-anchor="middle" x="1076.23" y="-131.5" font-family="Helvetica,sans-Serif" font-size="10.00">unpacker/Unpacker.h</text>
</a>
</g>
<!-- Node1&#45;&gt;Node11 -->
<g id="edge20" class="edge"><title>Node1&#45;&gt;Node11</title>
<path fill="none" stroke="midnightblue" d="M756.752,-332.87C822.296,-292.07 986.912,-189.601 1050.56,-149.984"/>
<polygon fill="midnightblue" stroke="midnightblue" points="1052.55,-152.865 1059.19,-144.609 1048.85,-146.923 1052.55,-152.865"/>
</g>
<!-- Node12 -->
<g id="node23" class="node"><title>Node12</title>
<polygon fill="white" stroke="#bfbfbf" points="1369.73,-58.5 1369.73,-79.5 1410.73,-79.5 1410.73,-58.5 1369.73,-58.5"/>
<text text-anchor="middle" x="1390.23" y="-66.5" font-family="Helvetica,sans-Serif" font-size="10.00">string</text>
</g>
<!-- Node1&#45;&gt;Node12 -->
<g id="edge144" class="edge"><title>Node1&#45;&gt;Node12</title>
<path fill="none" stroke="midnightblue" d="M775.899,-346.585C1000.76,-329.664 1965.14,-251.633 2050.23,-152 2060.62,-139.833 2061.14,-127.709 2050.23,-116 2028.53,-92.6949 1549.06,-74.4941 1421.29,-70.0453"/>
<polygon fill="midnightblue" stroke="midnightblue" points="1421.14,-66.5385 1411.03,-69.6916 1420.9,-73.5343 1421.14,-66.5385"/>
</g>
<!-- Node13 -->
<g id="node26" class="node"><title>Node13</title>
<a xlink:href="_reconstruct__traits_8h.html" target="_top" xlink:title="reconstruct/Reconstruct\l_traits.h">
<polygon fill="white" stroke="black" points="571.233,-261 571.233,-295 693.233,-295 693.233,-261 571.233,-261"/>
<text text-anchor="start" x="579.233" y="-282" font-family="Helvetica,sans-Serif" font-size="10.00">reconstruct/Reconstruct</text>
<text text-anchor="middle" x="632.233" y="-269" font-family="Helvetica,sans-Serif" font-size="10.00">_traits.h</text>
</a>
</g>
<!-- Node1&#45;&gt;Node13 -->
<g id="edge26" class="edge"><title>Node1&#45;&gt;Node13</title>
<path fill="none" stroke="midnightblue" d="M706.246,-332.937C693.534,-323.501 677.552,-311.639 663.697,-301.354"/>
<polygon fill="midnightblue" stroke="midnightblue" points="665.508,-298.34 655.392,-295.19 661.336,-303.961 665.508,-298.34"/>
</g>
<!-- Node29 -->
<g id="node77" class="node"><title>Node29</title>
<a xlink:href="_wrap_t_file_8h.html" target="_top" xlink:title="base/WrapTFile.h">
<polygon fill="white" stroke="black" points="1479.23,-195.5 1479.23,-216.5 1573.23,-216.5 1573.23,-195.5 1479.23,-195.5"/>
<text text-anchor="middle" x="1526.23" y="-203.5" font-family="Helvetica,sans-Serif" font-size="10.00">base/WrapTFile.h</text>
</a>
</g>
<!-- Node1&#45;&gt;Node29 -->
<g id="edge96" class="edge"><title>Node1&#45;&gt;Node29</title>
<path fill="none" stroke="midnightblue" d="M775.821,-341.583C913.577,-316.693 1318.72,-243.492 1469.15,-216.313"/>
<polygon fill="midnightblue" stroke="midnightblue" points="1469.89,-219.736 1479.11,-214.514 1468.65,-212.848 1469.89,-219.736"/>
</g>
<!-- Node3 -->
<g id="node5" class="node"><title>Node3</title>
<a xlink:href="input_2event__t_8h.html" target="_top" xlink:title="event_t.h">
<polygon fill="white" stroke="black" points="158.733,-195.5 158.733,-216.5 215.733,-216.5 215.733,-195.5 158.733,-195.5"/>
<text text-anchor="middle" x="187.233" y="-203.5" font-family="Helvetica,sans-Serif" font-size="10.00">event_t.h</text>
</a>
</g>
<!-- Node2&#45;&gt;Node3 -->
<g id="edge4" class="edge"><title>Node2&#45;&gt;Node3</title>
<path fill="none" stroke="midnightblue" d="M289.527,-267.376C269.498,-255.359 236.675,-235.665 213.623,-221.834"/>
<polygon fill="midnightblue" stroke="midnightblue" points="215.388,-218.811 205.012,-216.667 211.787,-224.814 215.388,-218.811"/>
</g>
<!-- Node4 -->
<g id="node7" class="node"><title>Node4</title>
<a xlink:href="_t_event_8h.html" target="_top" xlink:title="tree/TEvent.h">
<polygon fill="white" stroke="black" points="207.233,-123.5 207.233,-144.5 283.233,-144.5 283.233,-123.5 207.233,-123.5"/>
<text text-anchor="middle" x="245.233" y="-131.5" font-family="Helvetica,sans-Serif" font-size="10.00">tree/TEvent.h</text>
</a>
</g>
<!-- Node3&#45;&gt;Node4 -->
<g id="edge6" class="edge"><title>Node3&#45;&gt;Node4</title>
<path fill="none" stroke="midnightblue" d="M195.791,-195.376C204.873,-184.103 219.395,-166.075 230.356,-152.468"/>
<polygon fill="midnightblue" stroke="midnightblue" points="233.092,-154.651 236.64,-144.667 227.641,-150.259 233.092,-154.651"/>
</g>
<!-- Node5 -->
<g id="node9" class="node"><title>Node5</title>
<polygon fill="white" stroke="#bfbfbf" points="217.233,-58.5 217.233,-79.5 273.233,-79.5 273.233,-58.5 217.233,-58.5"/>
<text text-anchor="middle" x="245.233" y="-66.5" font-family="Helvetica,sans-Serif" font-size="10.00">Rtypes.h</text>
</g>
<!-- Node4&#45;&gt;Node5 -->
<g id="edge8" class="edge"><title>Node4&#45;&gt;Node5</title>
<path fill="none" stroke="midnightblue" d="M245.233,-123.267C245.233,-114.18 245.233,-100.892 245.233,-89.7395"/>
<polygon fill="midnightblue" stroke="midnightblue" points="248.733,-89.5337 245.233,-79.5337 241.733,-89.5337 248.733,-89.5337"/>
</g>
<!-- Node6 -->
<g id="node11" class="node"><title>Node6</title>
<a xlink:href="printable_8h.html" target="_top" xlink:title="base/printable.h">
<polygon fill="white" stroke="black" points="453.233,-58.5 453.233,-79.5 539.233,-79.5 539.233,-58.5 453.233,-58.5"/>
<text text-anchor="middle" x="496.233" y="-66.5" font-family="Helvetica,sans-Serif" font-size="10.00">base/printable.h</text>
</a>
</g>
<!-- Node4&#45;&gt;Node6 -->
<g id="edge10" class="edge"><title>Node4&#45;&gt;Node6</title>
<path fill="none" stroke="midnightblue" d="M283.355,-124.128C326.759,-112.888 397.844,-94.4794 445.804,-82.0595"/>
<polygon fill="midnightblue" stroke="midnightblue" points="446.865,-85.4001 455.668,-79.5049 445.11,-78.6237 446.865,-85.4001"/>
</g>
<!-- Node4&#45;&gt;Node9 -->
<g id="edge16" class="edge"><title>Node4&#45;&gt;Node9</title>
<path fill="none" stroke="midnightblue" d="M219.333,-123.412C192.769,-112.552 151.26,-95.5833 121.664,-83.4842"/>
<polygon fill="midnightblue" stroke="midnightblue" points="122.703,-80.1279 112.122,-79.5835 120.054,-86.6074 122.703,-80.1279"/>
</g>
<!-- Node10 -->
<g id="node19" class="node"><title>Node10</title>
<polygon fill="white" stroke="#bfbfbf" points="686.733,-58.5 686.733,-79.5 745.733,-79.5 745.733,-58.5 686.733,-58.5"/>
<text text-anchor="middle" x="716.233" y="-66.5" font-family="Helvetica,sans-Serif" font-size="10.00">stdexcept</text>
</g>
<!-- Node4&#45;&gt;Node10 -->
<g id="edge18" class="edge"><title>Node4&#45;&gt;Node10</title>
<path fill="none" stroke="midnightblue" d="M283.311,-128.588C308.764,-124.984 342.999,-120.164 373.233,-116 491.854,-99.6627 521.646,-96.5763 640.233,-80 652.079,-78.3441 664.957,-76.4979 676.688,-74.798"/>
<polygon fill="midnightblue" stroke="midnightblue" points="677.255,-78.2525 686.647,-73.3503 676.248,-71.3253 677.255,-78.2525"/>
</g>
<!-- Node7 -->
<g id="node13" class="node"><title>Node7</title>
<polygon fill="white" stroke="#bfbfbf" points="392.233,-0.5 392.233,-21.5 454.233,-21.5 454.233,-0.5 392.233,-0.5"/>
<text text-anchor="middle" x="423.233" y="-8.5" font-family="Helvetica,sans-Serif" font-size="10.00">type_traits</text>
</g>
<!-- Node6&#45;&gt;Node7 -->
<g id="edge12" class="edge"><title>Node6&#45;&gt;Node7</title>
<path fill="none" stroke="midnightblue" d="M482.844,-58.3619C472.142,-49.859 456.937,-37.7785 444.563,-27.9466"/>
<polygon fill="midnightblue" stroke="midnightblue" points="446.545,-25.0511 436.538,-21.5707 442.19,-30.5318 446.545,-25.0511"/>
</g>
<!-- Node8 -->
<g id="node15" class="node"><title>Node8</title>
<polygon fill="white" stroke="#bfbfbf" points="472.233,-0.5 472.233,-21.5 524.233,-21.5 524.233,-0.5 472.233,-0.5"/>
<text text-anchor="middle" x="498.233" y="-8.5" font-family="Helvetica,sans-Serif" font-size="10.00">ostream</text>
</g>
<!-- Node6&#45;&gt;Node8 -->
<g id="edge14" class="edge"><title>Node6&#45;&gt;Node8</title>
<path fill="none" stroke="midnightblue" d="M496.6,-58.3619C496.857,-50.9219 497.208,-40.7427 497.519,-31.7276"/>
<polygon fill="midnightblue" stroke="midnightblue" points="501.022,-31.6854 497.869,-21.5707 494.026,-31.4441 501.022,-31.6854"/>
</g>
<!-- Node11&#45;&gt;Node9 -->
<g id="edge24" class="edge"><title>Node11&#45;&gt;Node9</title>
<path fill="none" stroke="midnightblue" d="M1044.33,-123.474C1034.18,-120.546 1022.83,-117.704 1012.23,-116 659.08,-59.2051 565.114,-104.066 208.233,-80 179.4,-78.0556 146.801,-75.076 122.559,-72.708"/>
<polygon fill="midnightblue" stroke="midnightblue" points="122.681,-69.2031 112.385,-71.7023 121.992,-76.1691 122.681,-69.2031"/>
</g>
<!-- Node11&#45;&gt;Node12 -->
<g id="edge22" class="edge"><title>Node11&#45;&gt;Node12</title>
<path fill="none" stroke="midnightblue" d="M1131.55,-124.059C1201.54,-111.405 1317.31,-90.1977 1359.59,-79.9564"/>
<polygon fill="midnightblue" stroke="midnightblue" points="1360.68,-83.2897 1369.47,-77.3748 1358.91,-76.5171 1360.68,-83.2897"/>
</g>
<!-- Node13&#45;&gt;Node9 -->
<g id="edge88" class="edge"><title>Node13&#45;&gt;Node9</title>
<path fill="none" stroke="midnightblue" d="M570.933,-274.114C459.28,-266.544 227.188,-248.401 150.233,-224 86.9042,-203.919 53.0553,-209.183 19.2334,-152 11.088,-138.229 11.8515,-130.195 19.2334,-116 26.2491,-102.509 39.1087,-92.0833 51.6999,-84.5183"/>
<polygon fill="midnightblue" stroke="midnightblue" points="53.683,-87.4209 60.7333,-79.5125 50.29,-81.2982 53.683,-87.4209"/>
</g>
<!-- Node14 -->
<g id="node28" class="node"><title>Node14</title>
<a xlink:href="_detector__t_8h.html" target="_top" xlink:title="base/Detector_t.h">
<polygon fill="white" stroke="black" points="625.733,-195.5 625.733,-216.5 720.733,-216.5 720.733,-195.5 625.733,-195.5"/>
<text text-anchor="middle" x="673.233" y="-203.5" font-family="Helvetica,sans-Serif" font-size="10.00">base/Detector_t.h</text>
</a>
</g>
<!-- Node13&#45;&gt;Node14 -->
<g id="edge28" class="edge"><title>Node13&#45;&gt;Node14</title>
<path fill="none" stroke="midnightblue" d="M641.95,-260.937C647.957,-250.387 655.692,-236.805 661.967,-225.785"/>
<polygon fill="midnightblue" stroke="midnightblue" points="665.119,-227.323 667.026,-216.901 659.036,-223.859 665.119,-227.323"/>
</g>
<!-- Node23 -->
<g id="node55" class="node"><title>Node23</title>
<a xlink:href="mapped__vectors_8h.html" target="_top" xlink:title="base/std_ext/mapped\l_vectors.h">
<polygon fill="white" stroke="black" points="233.233,-189 233.233,-223 343.233,-223 343.233,-189 233.233,-189"/>
<text text-anchor="start" x="241.233" y="-210" font-family="Helvetica,sans-Serif" font-size="10.00">base/std_ext/mapped</text>
<text text-anchor="middle" x="288.233" y="-197" font-family="Helvetica,sans-Serif" font-size="10.00">_vectors.h</text>
</a>
</g>
<!-- Node13&#45;&gt;Node23 -->
<g id="edge64" class="edge"><title>Node13&#45;&gt;Node23</title>
<path fill="none" stroke="midnightblue" d="M571.113,-267.109C515.234,-256.888 430.399,-240.71 357.233,-224 355.977,-223.713 354.71,-223.42 353.433,-223.121"/>
<polygon fill="midnightblue" stroke="midnightblue" points="354.063,-219.673 343.522,-220.741 352.428,-226.48 354.063,-219.673"/>
</g>
<!-- Node25 -->
<g id="node60" class="node"><title>Node25</title>
<polygon fill="white" stroke="#bfbfbf" points="338.733,-58.5 338.733,-79.5 367.733,-79.5 367.733,-58.5 338.733,-58.5"/>
<text text-anchor="middle" x="353.233" y="-66.5" font-family="Helvetica,sans-Serif" font-size="10.00">list</text>
</g>
<!-- Node13&#45;&gt;Node25 -->
<g id="edge92" class="edge"><title>Node13&#45;&gt;Node25</title>
<path fill="none" stroke="midnightblue" d="M603.21,-260.829C565.037,-237.785 496.454,-194.784 442.233,-152 415.912,-131.23 388.023,-104.316 370.625,-86.8562"/>
<polygon fill="midnightblue" stroke="midnightblue" points="372.93,-84.2098 363.413,-79.5556 367.951,-89.1293 372.93,-84.2098"/>
</g>
<!-- Node26 -->
<g id="node65" class="node"><title>Node26</title>
<a xlink:href="shared__ptr__container_8h.html" target="_top" xlink:title="base/std_ext/shared\l_ptr_container.h">
<polygon fill="white" stroke="black" points="898.733,-117 898.733,-151 1003.73,-151 1003.73,-117 898.733,-117"/>
<text text-anchor="start" x="906.733" y="-138" font-family="Helvetica,sans-Serif" font-size="10.00">base/std_ext/shared</text>
<text text-anchor="middle" x="951.233" y="-125" font-family="Helvetica,sans-Serif" font-size="10.00">_ptr_container.h</text>
</a>
</g>
<!-- Node13&#45;&gt;Node26 -->
<g id="edge78" class="edge"><title>Node13&#45;&gt;Node26</title>
<path fill="none" stroke="midnightblue" d="M670.08,-260.916C728.476,-234.555 840.438,-184.014 904.038,-155.305"/>
<polygon fill="midnightblue" stroke="midnightblue" points="905.762,-158.366 913.436,-151.062 902.882,-151.986 905.762,-158.366"/>
</g>
<!-- Node27 -->
<g id="node69" class="node"><title>Node27</title>
<polygon fill="white" stroke="#bfbfbf" points="1293.73,-58.5 1293.73,-79.5 1352.73,-79.5 1352.73,-58.5 1293.73,-58.5"/>
<text text-anchor="middle" x="1323.23" y="-66.5" font-family="Helvetica,sans-Serif" font-size="10.00">functional</text>
</g>
<!-- Node13&#45;&gt;Node27 -->
<g id="edge94" class="edge"><title>Node13&#45;&gt;Node27</title>
<path fill="none" stroke="midnightblue" d="M693.344,-274.9C842.044,-266.094 1216.94,-235.896 1304.23,-152 1320.89,-135.988 1324.29,-108.583 1324.41,-89.6688"/>
<polygon fill="midnightblue" stroke="midnightblue" points="1327.91,-89.5801 1324.18,-79.6641 1320.91,-89.7427 1327.91,-89.5801"/>
</g>
<!-- Node28 -->
<g id="node73" class="node"><title>Node28</title>
<polygon fill="white" stroke="#bfbfbf" points="573.733,-195.5 573.733,-216.5 608.733,-216.5 608.733,-195.5 573.733,-195.5"/>
<text text-anchor="middle" x="591.233" y="-203.5" font-family="Helvetica,sans-Serif" font-size="10.00">map</text>
</g>
<!-- Node13&#45;&gt;Node28 -->
<g id="edge90" class="edge"><title>Node13&#45;&gt;Node28</title>
<path fill="none" stroke="midnightblue" d="M622.517,-260.937C616.51,-250.387 608.775,-236.805 602.5,-225.785"/>
<polygon fill="midnightblue" stroke="midnightblue" points="605.431,-223.859 597.441,-216.901 599.348,-227.323 605.431,-223.859"/>
</g>
<!-- Node14&#45;&gt;Node6 -->
<g id="edge30" class="edge"><title>Node14&#45;&gt;Node6</title>
<path fill="none" stroke="midnightblue" d="M641.336,-195.441C633.48,-192.925 625.072,-190.303 617.233,-188 557.656,-170.493 520.065,-201.242 482.233,-152 468.336,-133.912 476.592,-107.024 485.151,-88.7919"/>
<polygon fill="midnightblue" stroke="midnightblue" points="488.38,-90.164 489.799,-79.6646 482.143,-86.9874 488.38,-90.164"/>
</g>
<!-- Node14&#45;&gt;Node7 -->
<g id="edge60" class="edge"><title>Node14&#45;&gt;Node7</title>
<path fill="none" stroke="midnightblue" d="M641.661,-195.43C633.72,-192.888 625.191,-190.257 617.233,-188 552.937,-169.763 521.174,-196.413 471.233,-152 436.126,-120.778 426.674,-62.8522 424.144,-31.8533"/>
<polygon fill="midnightblue" stroke="midnightblue" points="427.629,-31.5035 423.491,-21.7502 420.644,-31.9553 427.629,-31.5035"/>
</g>
<!-- Node14&#45;&gt;Node10 -->
<g id="edge56" class="edge"><title>Node14&#45;&gt;Node10</title>
<path fill="none" stroke="midnightblue" d="M676.625,-195.244C680.059,-184.346 685.522,-167.003 690.233,-152 696.914,-130.728 704.537,-106.382 709.794,-89.5854"/>
<polygon fill="midnightblue" stroke="midnightblue" points="713.227,-90.3346 712.873,-79.7457 706.546,-88.2443 713.227,-90.3346"/>
</g>
<!-- Node14&#45;&gt;Node12 -->
<g id="edge58" class="edge"><title>Node14&#45;&gt;Node12</title>
<path fill="none" stroke="midnightblue" d="M720.955,-203.757C858.876,-197.019 1251.56,-175.937 1304.23,-152 1335.2,-137.931 1361.76,-107.855 1376.87,-88.0361"/>
<polygon fill="midnightblue" stroke="midnightblue" points="1379.87,-89.8723 1382.98,-79.7459 1374.23,-85.7192 1379.87,-89.8723"/>
</g>
<!-- Node15 -->
<g id="node31" class="node"><title>Node15</title>
<a xlink:href="vec3_8h.html" target="_top" xlink:title="base/vec/vec3.h">
<polygon fill="white" stroke="black" points="592.733,-123.5 592.733,-144.5 681.733,-144.5 681.733,-123.5 592.733,-123.5"/>
<text text-anchor="middle" x="637.233" y="-131.5" font-family="Helvetica,sans-Serif" font-size="10.00">base/vec/vec3.h</text>
</a>
</g>
<!-- Node14&#45;&gt;Node15 -->
<g id="edge32" class="edge"><title>Node14&#45;&gt;Node15</title>
<path fill="none" stroke="midnightblue" d="M667.921,-195.376C662.444,-184.422 653.779,-167.09 647.05,-153.634"/>
<polygon fill="midnightblue" stroke="midnightblue" points="650.17,-152.046 642.567,-144.667 643.909,-155.177 650.17,-152.046"/>
</g>
<!-- Node18 -->
<g id="node39" class="node"><title>Node18</title>
<a xlink:href="math_8h.html" target="_top" xlink:title="base/std_ext/math.h">
<polygon fill="white" stroke="black" points="737.233,-123.5 737.233,-144.5 843.233,-144.5 843.233,-123.5 737.233,-123.5"/>
<text text-anchor="middle" x="790.233" y="-131.5" font-family="Helvetica,sans-Serif" font-size="10.00">base/std_ext/math.h</text>
</a>
</g>
<!-- Node14&#45;&gt;Node18 -->
<g id="edge42" class="edge"><title>Node14&#45;&gt;Node18</title>
<path fill="none" stroke="midnightblue" d="M690.497,-195.376C709.939,-183.412 741.745,-163.839 764.205,-150.018"/>
<polygon fill="midnightblue" stroke="midnightblue" points="766.217,-152.889 772.899,-144.667 762.548,-146.928 766.217,-152.889"/>
</g>
<!-- Node20 -->
<g id="node44" class="node"><title>Node20</title>
<polygon fill="white" stroke="#bfbfbf" points="859.233,-58.5 859.233,-79.5 903.233,-79.5 903.233,-58.5 859.233,-58.5"/>
<text text-anchor="middle" x="881.233" y="-66.5" font-family="Helvetica,sans-Serif" font-size="10.00">vector</text>
</g>
<!-- Node14&#45;&gt;Node20 -->
<g id="edge62" class="edge"><title>Node14&#45;&gt;Node20</title>
<path fill="none" stroke="midnightblue" d="M721.093,-196.677C767.429,-186.772 833.362,-170.074 852.233,-152 869.385,-135.573 876.4,-108.455 879.265,-89.7086"/>
<polygon fill="midnightblue" stroke="midnightblue" points="882.769,-89.8939 880.541,-79.5359 875.823,-89.0222 882.769,-89.8939"/>
</g>
<!-- Node22 -->
<g id="node49" class="node"><title>Node22</title>
<polygon fill="white" stroke="#bfbfbf" points="491.233,-123.5 491.233,-144.5 537.233,-144.5 537.233,-123.5 491.233,-123.5"/>
<text text-anchor="middle" x="514.233" y="-131.5" font-family="Helvetica,sans-Serif" font-size="10.00">cstdint</text>
</g>
<!-- Node14&#45;&gt;Node22 -->
<g id="edge54" class="edge"><title>Node14&#45;&gt;Node22</title>
<path fill="none" stroke="midnightblue" d="M648.812,-195.499C624.099,-184.8 584.846,-167.609 551.233,-152 549.18,-151.047 547.069,-150.054 544.944,-149.045"/>
<polygon fill="midnightblue" stroke="midnightblue" points="546.222,-145.776 535.692,-144.602 543.191,-152.086 546.222,-145.776"/>
</g>
<!-- Node15&#45;&gt;Node6 -->
<g id="edge34" class="edge"><title>Node15&#45;&gt;Node6</title>
<path fill="none" stroke="midnightblue" d="M614.265,-123.412C590.913,-112.647 554.538,-95.878 528.34,-83.8009"/>
<polygon fill="midnightblue" stroke="midnightblue" points="529.738,-80.5915 519.191,-79.5835 526.808,-86.9486 529.738,-80.5915"/>
</g>
<!-- Node16 -->
<g id="node34" class="node"><title>Node16</title>
<a xlink:href="vec2_8h.html" target="_top" xlink:title="vec2.h">
<polygon fill="white" stroke="black" points="585.233,-58.5 585.233,-79.5 631.233,-79.5 631.233,-58.5 585.233,-58.5"/>
<text text-anchor="middle" x="608.233" y="-66.5" font-family="Helvetica,sans-Serif" font-size="10.00">vec2.h</text>
</a>
</g>
<!-- Node15&#45;&gt;Node16 -->
<g id="edge36" class="edge"><title>Node15&#45;&gt;Node16</title>
<path fill="none" stroke="midnightblue" d="M632.445,-123.267C628.264,-113.896 622.09,-100.057 617.023,-88.7004"/>
<polygon fill="midnightblue" stroke="midnightblue" points="620.204,-87.24 612.933,-79.5337 613.811,-90.0921 620.204,-87.24"/>
</g>
<!-- Node17 -->
<g id="node36" class="node"><title>Node17</title>
<polygon fill="white" stroke="#bfbfbf" points="723.233,-0.5 723.233,-21.5 767.233,-21.5 767.233,-0.5 723.233,-0.5"/>
<text text-anchor="middle" x="745.233" y="-8.5" font-family="Helvetica,sans-Serif" font-size="10.00">cmath</text>
</g>
<!-- Node15&#45;&gt;Node17 -->
<g id="edge40" class="edge"><title>Node15&#45;&gt;Node17</title>
<path fill="none" stroke="midnightblue" d="M641.085,-123.474C647.172,-107.873 660.2,-78.2767 678.233,-58 689.204,-45.6641 704.018,-34.8444 716.926,-26.7055"/>
<polygon fill="midnightblue" stroke="midnightblue" points="718.752,-29.6916 725.488,-21.5135 715.122,-23.7062 718.752,-29.6916"/>
</g>
<!-- Node16&#45;&gt;Node17 -->
<g id="edge38" class="edge"><title>Node16&#45;&gt;Node17</title>
<path fill="none" stroke="midnightblue" d="M631.474,-59.1611C653.983,-49.6313 688.296,-35.1049 713.351,-24.4976"/>
<polygon fill="midnightblue" stroke="midnightblue" points="714.946,-27.6231 722.79,-20.5014 712.217,-21.177 714.946,-27.6231"/>
</g>
<!-- Node18&#45;&gt;Node10 -->
<g id="edge52" class="edge"><title>Node18&#45;&gt;Node10</title>
<path fill="none" stroke="midnightblue" d="M778.014,-123.267C766.591,-113.233 749.338,-98.078 735.964,-86.3311"/>
<polygon fill="midnightblue" stroke="midnightblue" points="738.049,-83.5035 728.226,-79.5337 733.429,-88.7628 738.049,-83.5035"/>
</g>
<!-- Node18&#45;&gt;Node17 -->
<g id="edge44" class="edge"><title>Node18&#45;&gt;Node17</title>
<path fill="none" stroke="midnightblue" d="M798.086,-123.43C808.301,-108.28 823.577,-79.8144 812.233,-58 804.617,-43.3534 790.113,-32.3204 776.542,-24.6378"/>
<polygon fill="midnightblue" stroke="midnightblue" points="777.875,-21.3854 767.392,-19.8512 774.631,-27.5879 777.875,-21.3854"/>
</g>
<!-- Node19 -->
<g id="node42" class="node"><title>Node19</title>
<polygon fill="white" stroke="#bfbfbf" points="763.233,-58.5 763.233,-79.5 803.233,-79.5 803.233,-58.5 763.233,-58.5"/>
<text text-anchor="middle" x="783.233" y="-66.5" font-family="Helvetica,sans-Serif" font-size="10.00">limits</text>
</g>
<!-- Node18&#45;&gt;Node19 -->
<g id="edge46" class="edge"><title>Node18&#45;&gt;Node19</title>
<path fill="none" stroke="midnightblue" d="M789.077,-123.267C788.099,-114.18 786.668,-100.892 785.467,-89.7395"/>
<polygon fill="midnightblue" stroke="midnightblue" points="788.918,-89.1014 784.368,-79.5337 781.959,-89.851 788.918,-89.1014"/>
</g>
<!-- Node18&#45;&gt;Node20 -->
<g id="edge48" class="edge"><title>Node18&#45;&gt;Node20</title>
<path fill="none" stroke="midnightblue" d="M805.26,-123.267C819.572,-113.044 841.327,-97.5043 857.896,-85.6699"/>
<polygon fill="midnightblue" stroke="midnightblue" points="860.383,-88.1942 866.486,-79.5337 856.314,-82.4981 860.383,-88.1942"/>
</g>
<!-- Node21 -->
<g id="node46" class="node"><title>Node21</title>
<polygon fill="white" stroke="#bfbfbf" points="1032.23,-58.5 1032.23,-79.5 1088.23,-79.5 1088.23,-58.5 1032.23,-58.5"/>
<text text-anchor="middle" x="1060.23" y="-66.5" font-family="Helvetica,sans-Serif" font-size="10.00">algorithm</text>
</g>
<!-- Node18&#45;&gt;Node21 -->
<g id="edge50" class="edge"><title>Node18&#45;&gt;Node21</title>
<path fill="none" stroke="midnightblue" d="M833.914,-123.484C886.026,-110.939 972.316,-90.1653 1021.93,-78.2207"/>
<polygon fill="midnightblue" stroke="midnightblue" points="1023.03,-81.5554 1031.94,-75.812 1021.4,-74.7498 1023.03,-81.5554"/>
</g>
<!-- Node23&#45;&gt;Node7 -->
<g id="edge76" class="edge"><title>Node23&#45;&gt;Node7</title>
<path fill="none" stroke="midnightblue" d="M288.758,-188.896C290.528,-159.053 298.113,-96.9427 330.233,-58 343.601,-41.7932 363.978,-30.6185 382.255,-23.2455"/>
<polygon fill="midnightblue" stroke="midnightblue" points="383.727,-26.431 391.852,-19.6315 381.26,-19.88 383.727,-26.431"/>
</g>
<!-- Node23&#45;&gt;Node9 -->
<g id="edge74" class="edge"><title>Node23&#45;&gt;Node9</title>
<path fill="none" stroke="midnightblue" d="M233.158,-190.164C230.146,-189.406 227.156,-188.679 224.233,-188 181.312,-178.024 57.4225,-185.87 29.2334,-152 18.998,-139.702 22.4092,-130.472 29.2334,-116 35.1901,-103.368 46.3922,-92.9782 57.2997,-85.2091"/>
<polygon fill="midnightblue" stroke="midnightblue" points="59.4599,-87.977 65.8782,-79.5475 55.6041,-82.1346 59.4599,-87.977"/>
</g>
<!-- Node23&#45;&gt;Node20 -->
<g id="edge72" class="edge"><title>Node23&#45;&gt;Node20</title>
<path fill="none" stroke="midnightblue" d="M317.316,-188.821C354.285,-167.867 420.712,-133.127 482.233,-116 624.365,-76.432 666.007,-99.6195 812.233,-80 824.292,-78.3821 837.493,-76.3435 849.09,-74.4622"/>
<polygon fill="midnightblue" stroke="midnightblue" points="849.913,-77.8739 859.211,-72.7952 848.775,-70.9669 849.913,-77.8739"/>
</g>
<!-- Node24 -->
<g id="node57" class="node"><title>Node24</title>
<a xlink:href="memory_8h.html" target="_top" xlink:title="base/std_ext/memory.h">
<polygon fill="white" stroke="black" points="70.7334,-123.5 70.7334,-144.5 189.733,-144.5 189.733,-123.5 70.7334,-123.5"/>
<text text-anchor="middle" x="130.233" y="-131.5" font-family="Helvetica,sans-Serif" font-size="10.00">base/std_ext/memory.h</text>
</a>
</g>
<!-- Node23&#45;&gt;Node24 -->
<g id="edge66" class="edge"><title>Node23&#45;&gt;Node24</title>
<path fill="none" stroke="midnightblue" d="M250.79,-188.937C224.087,-176.769 188.529,-160.565 162.959,-148.913"/>
<polygon fill="midnightblue" stroke="midnightblue" points="164.239,-145.65 153.688,-144.688 161.336,-152.02 164.239,-145.65"/>
</g>
<!-- Node24&#45;&gt;Node9 -->
<g id="edge68" class="edge"><title>Node24&#45;&gt;Node9</title>
<path fill="none" stroke="midnightblue" d="M122.968,-123.267C116.496,-113.707 106.877,-99.4964 99.1052,-88.0152"/>
<polygon fill="midnightblue" stroke="midnightblue" points="101.868,-85.8528 93.3639,-79.5337 96.0712,-89.7768 101.868,-85.8528"/>
</g>
<!-- Node24&#45;&gt;Node25 -->
<g id="edge70" class="edge"><title>Node24&#45;&gt;Node25</title>
<path fill="none" stroke="midnightblue" d="M166.558,-123.412C212.345,-110.066 289.787,-87.4933 328.972,-76.0717"/>
<polygon fill="midnightblue" stroke="midnightblue" points="330.11,-79.3856 338.731,-73.227 328.151,-72.6653 330.11,-79.3856"/>
</g>
<!-- Node26&#45;&gt;Node9 -->
<g id="edge82" class="edge"><title>Node26&#45;&gt;Node9</title>
<path fill="none" stroke="midnightblue" d="M898.496,-123.16C883.595,-120.438 867.326,-117.787 852.233,-116 567.553,-82.2948 494.141,-100.874 208.233,-80 179.411,-77.8956 146.811,-74.9259 122.566,-72.6024"/>
<polygon fill="midnightblue" stroke="midnightblue" points="122.681,-69.0973 112.391,-71.6183 122.007,-76.0648 122.681,-69.0973"/>
</g>
<!-- Node26&#45;&gt;Node20 -->
<g id="edge80" class="edge"><title>Node26&#45;&gt;Node20</title>
<path fill="none" stroke="midnightblue" d="M932.842,-116.922C922.869,-107.662 910.555,-96.2273 900.457,-86.8503"/>
<polygon fill="midnightblue" stroke="midnightblue" points="902.63,-84.0918 892.92,-79.8521 897.867,-89.2214 902.63,-84.0918"/>
</g>
<!-- Node26&#45;&gt;Node21 -->
<g id="edge86" class="edge"><title>Node26&#45;&gt;Node21</title>
<path fill="none" stroke="midnightblue" d="M979.872,-116.922C996.428,-107.049 1017.13,-94.7039 1033.38,-85.0164"/>
<polygon fill="midnightblue" stroke="midnightblue" points="1035.56,-87.7863 1042.36,-79.6584 1031.98,-81.7741 1035.56,-87.7863"/>
</g>
<!-- Node26&#45;&gt;Node27 -->
<g id="edge84" class="edge"><title>Node26&#45;&gt;Node27</title>
<path fill="none" stroke="midnightblue" d="M1004.01,-117.895C1006.78,-117.216 1009.53,-116.579 1012.23,-116 1128.02,-91.1715 1159.79,-101.517 1276.23,-80 1278.6,-79.5632 1281.02,-79.0861 1283.46,-78.5833"/>
<polygon fill="midnightblue" stroke="midnightblue" points="1284.46,-81.9495 1293.49,-76.4087 1282.97,-75.1087 1284.46,-81.9495"/>
</g>
<!-- Node29&#45;&gt;Node9 -->
<g id="edge130" class="edge"><title>Node29&#45;&gt;Node9</title>
<path fill="none" stroke="midnightblue" d="M1478.84,-205.147C1230.25,-200.567 87.3983,-178.11 62.2334,-152 45.5947,-134.736 59.0908,-106.673 71.5767,-88.0261"/>
<polygon fill="midnightblue" stroke="midnightblue" points="74.5428,-89.8946 77.4886,-79.7175 68.8392,-85.8363 74.5428,-89.8946"/>
</g>
<!-- Node29&#45;&gt;Node10 -->
<g id="edge138" class="edge"><title>Node29&#45;&gt;Node10</title>
<path fill="none" stroke="midnightblue" d="M1479.17,-202.185C1396.81,-194.938 1230.38,-177.586 1178.23,-152 1157.35,-141.752 1161.42,-125.607 1140.23,-116 986.298,-46.2043 925.83,-109.587 755.992,-80.0142"/>
<polygon fill="midnightblue" stroke="midnightblue" points="756.441,-76.5386 745.975,-78.1852 755.184,-83.4247 756.441,-76.5386"/>
</g>
<!-- Node29&#45;&gt;Node12 -->
<g id="edge132" class="edge"><title>Node29&#45;&gt;Node12</title>
<path fill="none" stroke="midnightblue" d="M1573.56,-204.481C1693.46,-200.149 2001.85,-185.795 2032.23,-152 2042.93,-140.101 2043.13,-127.719 2032.23,-116 2011.16,-93.3312 1545.75,-74.6984 1420.85,-70.0932"/>
<polygon fill="midnightblue" stroke="midnightblue" points="1420.94,-66.5941 1410.82,-69.7265 1420.68,-73.5894 1420.94,-66.5941"/>
</g>
<!-- Node29&#45;&gt;Node25 -->
<g id="edge134" class="edge"><title>Node29&#45;&gt;Node25</title>
<path fill="none" stroke="midnightblue" d="M1478.97,-205.188C1299.57,-201.849 666.705,-187.631 584.233,-152 562.877,-142.773 566.665,-127.126 546.233,-116 491.101,-85.9795 416.792,-74.8883 378.452,-70.9852"/>
<polygon fill="midnightblue" stroke="midnightblue" points="378.485,-67.4731 368.203,-70.0281 377.834,-74.4428 378.485,-67.4731"/>
</g>
<!-- Node29&#45;&gt;Node27 -->
<g id="edge140" class="edge"><title>Node29&#45;&gt;Node27</title>
<path fill="none" stroke="midnightblue" d="M1500.79,-195.487C1478.24,-185.666 1444.87,-169.868 1418.23,-152 1389.21,-132.532 1359.46,-105.088 1341.17,-87.1734"/>
<polygon fill="midnightblue" stroke="midnightblue" points="1343.17,-84.2346 1333.61,-79.6759 1338.24,-89.2038 1343.17,-84.2346"/>
</g>
<!-- Node30 -->
<g id="node79" class="node"><title>Node30</title>
<a xlink:href="string_8h.html" target="_top" xlink:title="base/std_ext/string.h">
<polygon fill="white" stroke="black" points="1187.23,-123.5 1187.23,-144.5 1295.23,-144.5 1295.23,-123.5 1187.23,-123.5"/>
<text text-anchor="middle" x="1241.23" y="-131.5" font-family="Helvetica,sans-Serif" font-size="10.00">base/std_ext/string.h</text>
</a>
</g>
<!-- Node29&#45;&gt;Node30 -->
<g id="edge98" class="edge"><title>Node29&#45;&gt;Node30</title>
<path fill="none" stroke="midnightblue" d="M1484.49,-195.453C1433.69,-182.62 1347.92,-160.952 1292.98,-147.072"/>
<polygon fill="midnightblue" stroke="midnightblue" points="1293.64,-143.631 1283.09,-144.575 1291.93,-150.418 1293.64,-143.631"/>
</g>
<!-- Node32 -->
<g id="node86" class="node"><title>Node32</title>
<a xlink:href="misc_8h.html" target="_top" xlink:title="base/std_ext/misc.h">
<polygon fill="white" stroke="black" points="1918.73,-123.5 1918.73,-144.5 2023.73,-144.5 2023.73,-123.5 1918.73,-123.5"/>
<text text-anchor="middle" x="1971.23" y="-131.5" font-family="Helvetica,sans-Serif" font-size="10.00">base/std_ext/misc.h</text>
</a>
</g>
<!-- Node29&#45;&gt;Node32 -->
<g id="edge108" class="edge"><title>Node29&#45;&gt;Node32</title>
<path fill="none" stroke="midnightblue" d="M1573.32,-201.635C1646.13,-194.38 1790.15,-178.011 1910.23,-152 1916.39,-150.665 1922.84,-149.031 1929.14,-147.296"/>
<polygon fill="midnightblue" stroke="midnightblue" points="1930.2,-150.633 1938.85,-144.517 1928.28,-143.903 1930.2,-150.633"/>
</g>
<!-- Node34 -->
<g id="node93" class="node"><title>Node34</title>
<polygon fill="white" stroke="#bfbfbf" points="1426.73,-123.5 1426.73,-144.5 1473.73,-144.5 1473.73,-123.5 1426.73,-123.5"/>
<text text-anchor="middle" x="1450.23" y="-131.5" font-family="Helvetica,sans-Serif" font-size="10.00">TFile.h</text>
</g>
<!-- Node29&#45;&gt;Node34 -->
<g id="edge118" class="edge"><title>Node29&#45;&gt;Node34</title>
<path fill="none" stroke="midnightblue" d="M1515.02,-195.376C1502.9,-183.89 1483.37,-165.393 1468.92,-151.703"/>
<polygon fill="midnightblue" stroke="midnightblue" points="1471.16,-149.004 1461.49,-144.667 1466.35,-154.086 1471.16,-149.004"/>
</g>
<!-- Node35 -->
<g id="node95" class="node"><title>Node35</title>
<polygon fill="white" stroke="#bfbfbf" points="1490.73,-123.5 1490.73,-144.5 1561.73,-144.5 1561.73,-123.5 1490.73,-123.5"/>
<text text-anchor="middle" x="1526.23" y="-131.5" font-family="Helvetica,sans-Serif" font-size="10.00">TDirectory.h</text>
</g>
<!-- Node29&#45;&gt;Node35 -->
<g id="edge120" class="edge"><title>Node29&#45;&gt;Node35</title>
<path fill="none" stroke="midnightblue" d="M1526.23,-195.376C1526.23,-184.741 1526.23,-168.095 1526.23,-154.82"/>
<polygon fill="midnightblue" stroke="midnightblue" points="1529.73,-154.667 1526.23,-144.667 1522.73,-154.667 1529.73,-154.667"/>
</g>
<!-- Node36 -->
<g id="node97" class="node"><title>Node36</title>
<polygon fill="white" stroke="#bfbfbf" points="1579.23,-123.5 1579.23,-144.5 1631.23,-144.5 1631.23,-123.5 1579.23,-123.5"/>
<text text-anchor="middle" x="1605.23" y="-131.5" font-family="Helvetica,sans-Serif" font-size="10.00">TError.h</text>
</g>
<!-- Node29&#45;&gt;Node36 -->
<g id="edge122" class="edge"><title>Node29&#45;&gt;Node36</title>
<path fill="none" stroke="midnightblue" d="M1537.89,-195.376C1550.49,-183.89 1570.79,-165.393 1585.81,-151.703"/>
<polygon fill="midnightblue" stroke="midnightblue" points="1588.5,-153.99 1593.53,-144.667 1583.78,-148.817 1588.5,-153.99"/>
</g>
<!-- Node37 -->
<g id="node99" class="node"><title>Node37</title>
<polygon fill="white" stroke="#bfbfbf" points="1648.73,-123.5 1648.73,-144.5 1695.73,-144.5 1695.73,-123.5 1648.73,-123.5"/>
<text text-anchor="middle" x="1672.23" y="-131.5" font-family="Helvetica,sans-Serif" font-size="10.00">TList.h</text>
</g>
<!-- Node29&#45;&gt;Node37 -->
<g id="edge124" class="edge"><title>Node29&#45;&gt;Node37</title>
<path fill="none" stroke="midnightblue" d="M1550.05,-195.308C1573.28,-184.742 1609.5,-167.898 1640.23,-152 1641.79,-151.195 1643.38,-150.355 1644.98,-149.497"/>
<polygon fill="midnightblue" stroke="midnightblue" points="1647,-152.384 1654.08,-144.503 1643.63,-146.248 1647,-152.384"/>
</g>
<!-- Node38 -->
<g id="node101" class="node"><title>Node38</title>
<polygon fill="white" stroke="#bfbfbf" points="1713.23,-123.5 1713.23,-144.5 1787.23,-144.5 1787.23,-123.5 1713.23,-123.5"/>
<text text-anchor="middle" x="1750.23" y="-131.5" font-family="Helvetica,sans-Serif" font-size="10.00">TCollection.h</text>
</g>
<!-- Node29&#45;&gt;Node38 -->
<g id="edge126" class="edge"><title>Node29&#45;&gt;Node38</title>
<path fill="none" stroke="midnightblue" d="M1564.01,-195.471C1600.24,-185.157 1656.33,-168.61 1704.23,-152 1707.58,-150.841 1711.04,-149.588 1714.49,-148.302"/>
<polygon fill="midnightblue" stroke="midnightblue" points="1716,-151.472 1724.09,-144.638 1713.5,-144.932 1716,-151.472"/>
</g>
<!-- Node39 -->
<g id="node103" class="node"><title>Node39</title>
<polygon fill="white" stroke="#bfbfbf" points="1805.23,-123.5 1805.23,-144.5 1853.23,-144.5 1853.23,-123.5 1805.23,-123.5"/>
<text text-anchor="middle" x="1829.23" y="-131.5" font-family="Helvetica,sans-Serif" font-size="10.00">TKey.h</text>
</g>
<!-- Node29&#45;&gt;Node39 -->
<g id="edge128" class="edge"><title>Node29&#45;&gt;Node39</title>
<path fill="none" stroke="midnightblue" d="M1573.25,-200.963C1628.06,-194.104 1720.75,-179.415 1796.23,-152 1798.51,-151.173 1800.82,-150.207 1803.11,-149.16"/>
<polygon fill="midnightblue" stroke="midnightblue" points="1804.88,-152.186 1812.22,-144.549 1801.72,-145.939 1804.88,-152.186"/>
</g>
<!-- Node40 -->
<g id="node108" class="node"><title>Node40</title>
<polygon fill="white" stroke="#bfbfbf" points="1871.23,-123.5 1871.23,-144.5 1901.23,-144.5 1901.23,-123.5 1871.23,-123.5"/>
<text text-anchor="middle" x="1886.23" y="-131.5" font-family="Helvetica,sans-Serif" font-size="10.00">set</text>
</g>
<!-- Node29&#45;&gt;Node40 -->
<g id="edge136" class="edge"><title>Node29&#45;&gt;Node40</title>
<path fill="none" stroke="midnightblue" d="M1573.3,-201.255C1653.03,-192.751 1810.98,-173.758 1862.23,-152 1863.42,-151.496 1864.6,-150.922 1865.77,-150.295"/>
<polygon fill="midnightblue" stroke="midnightblue" points="1867.78,-153.162 1874.24,-144.768 1863.95,-147.299 1867.78,-153.162"/>
</g>
<!-- Node30&#45;&gt;Node12 -->
<g id="edge100" class="edge"><title>Node30&#45;&gt;Node12</title>
<path fill="none" stroke="midnightblue" d="M1265.5,-123.412C1291.32,-112.149 1332.2,-94.3145 1360.07,-82.1569"/>
<polygon fill="midnightblue" stroke="midnightblue" points="1361.58,-85.32 1369.34,-78.1134 1358.78,-78.9039 1361.58,-85.32"/>
</g>
<!-- Node30&#45;&gt;Node20 -->
<g id="edge106" class="edge"><title>Node30&#45;&gt;Node20</title>
<path fill="none" stroke="midnightblue" d="M1203.98,-123.427C1194.04,-120.8 1183.27,-118.13 1173.23,-116 1079.53,-96.1076 967.321,-80.2475 913.346,-73.1072"/>
<polygon fill="midnightblue" stroke="midnightblue" points="913.72,-69.6264 903.35,-71.7968 912.81,-76.567 913.72,-69.6264"/>
</g>
<!-- Node30&#45;&gt;Node21 -->
<g id="edge104" class="edge"><title>Node30&#45;&gt;Node21</title>
<path fill="none" stroke="midnightblue" d="M1211.75,-123.412C1180.75,-112.28 1131.87,-94.7275 1098.05,-82.5823"/>
<polygon fill="midnightblue" stroke="midnightblue" points="1099.11,-79.241 1088.51,-79.1551 1096.74,-85.8291 1099.11,-79.241"/>
</g>
<!-- Node31 -->
<g id="node82" class="node"><title>Node31</title>
<polygon fill="white" stroke="#bfbfbf" points="1215.23,-58.5 1215.23,-79.5 1267.23,-79.5 1267.23,-58.5 1215.23,-58.5"/>
<text text-anchor="middle" x="1241.23" y="-66.5" font-family="Helvetica,sans-Serif" font-size="10.00">sstream</text>
</g>
<!-- Node30&#45;&gt;Node31 -->
<g id="edge102" class="edge"><title>Node30&#45;&gt;Node31</title>
<path fill="none" stroke="midnightblue" d="M1241.23,-123.267C1241.23,-114.18 1241.23,-100.892 1241.23,-89.7395"/>
<polygon fill="midnightblue" stroke="midnightblue" points="1244.73,-89.5337 1241.23,-79.5337 1237.73,-89.5337 1244.73,-89.5337"/>
</g>
<!-- Node32&#45;&gt;Node17 -->
<g id="edge114" class="edge"><title>Node32&#45;&gt;Node17</title>
<path fill="none" stroke="midnightblue" d="M1939.2,-123.44C1929.93,-120.689 1919.75,-117.952 1910.23,-116 1468.13,-25.3409 915.674,-12.9564 777.62,-11.2666"/>
<polygon fill="midnightblue" stroke="midnightblue" points="777.365,-7.76362 767.326,-11.1515 777.286,-14.7632 777.365,-7.76362"/>
</g>
<!-- Node32&#45;&gt;Node21 -->
<g id="edge110" class="edge"><title>Node32&#45;&gt;Node21</title>
<path fill="none" stroke="midnightblue" d="M1940.53,-123.407C1930.94,-120.514 1920.25,-117.709 1910.23,-116 1601.4,-63.2996 1518.91,-99.7704 1206.23,-80 1169.74,-77.6928 1128.17,-74.5057 1098.74,-72.1558"/>
<polygon fill="midnightblue" stroke="midnightblue" points="1098.73,-68.6437 1088.48,-71.3311 1098.17,-75.6212 1098.73,-68.6437"/>
</g>
<!-- Node32&#45;&gt;Node27 -->
<g id="edge112" class="edge"><title>Node32&#45;&gt;Node27</title>
<path fill="none" stroke="midnightblue" d="M1940.52,-123.496C1930.93,-120.606 1920.23,-117.781 1910.23,-116 1672.79,-73.7212 1603.96,-120.917 1363.08,-80.0167"/>
<polygon fill="midnightblue" stroke="midnightblue" points="1363.41,-76.5225 1352.96,-78.2646 1362.22,-83.4198 1363.41,-76.5225"/>
</g>
<!-- Node33 -->
<g id="node91" class="node"><title>Node33</title>
<polygon fill="white" stroke="#bfbfbf" points="1944.73,-58.5 1944.73,-79.5 1997.73,-79.5 1997.73,-58.5 1944.73,-58.5"/>
<text text-anchor="middle" x="1971.23" y="-66.5" font-family="Helvetica,sans-Serif" font-size="10.00">cxxabi.h</text>
</g>
<!-- Node32&#45;&gt;Node33 -->
<g id="edge116" class="edge"><title>Node32&#45;&gt;Node33</title>
<path fill="none" stroke="midnightblue" d="M1971.23,-123.267C1971.23,-114.18 1971.23,-100.892 1971.23,-89.7395"/>
<polygon fill="midnightblue" stroke="midnightblue" points="1974.73,-89.5337 1971.23,-79.5337 1967.73,-89.5337 1974.73,-89.5337"/>
</g>
</g>
</svg>
