<?xml version="1.0" encoding="UTF-8" standalone="no"?>
<!DOCTYPE svg PUBLIC "-//W3C//DTD SVG 1.1//EN"
 "http://www.w3.org/Graphics/SVG/1.1/DTD/svg11.dtd">
<!-- Generated by graphviz version 2.26.3 (20100126.1600)
 -->
<!-- Title: progs/Ant&#45;calib&#45;regedit.cc Pages: 1 -->
<svg width="3902pt" height="334pt"
 viewBox="0.00 0.00 3902.00 334.00" xmlns="http://www.w3.org/2000/svg" xmlns:xlink="http://www.w3.org/1999/xlink">
<g id="graph1" class="graph" transform="scale(1 1) rotate(0) translate(4 330)">
<title>progs/Ant&#45;calib&#45;regedit.cc</title>
<polygon fill="white" stroke="white" points="-4,5 -4,-330 3899,-330 3899,5 -4,5"/>
<!-- Node1 -->
<g id="node1" class="node"><title>Node1</title>
<polygon fill="#bfbfbf" stroke="black" points="2400,-304.5 2400,-325.5 2528,-325.5 2528,-304.5 2400,-304.5"/>
<text text-anchor="middle" x="2464" y="-312.5" font-family="Helvetica,sans-Serif" font-size="10.00">progs/Ant&#45;calib&#45;regedit.cc</text>
</g>
<!-- Node2 -->
<g id="node3" class="node"><title>Node2</title>
<a xlink:href="_logger_8h.html" target="_top" xlink:title="base/Logger.h">
<polygon fill="white" stroke="black" points="1528,-246.5 1528,-267.5 1606,-267.5 1606,-246.5 1528,-246.5"/>
<text text-anchor="middle" x="1567" y="-254.5" font-family="Helvetica,sans-Serif" font-size="10.00">base/Logger.h</text>
</a>
</g>
<!-- Node1&#45;&gt;Node2 -->
<g id="edge2" class="edge"><title>Node1&#45;&gt;Node2</title>
<path fill="none" stroke="midnightblue" d="M2399.85,-310.852C2229.51,-299.838 1768.5,-270.029 1616.42,-260.195"/>
<polygon fill="midnightblue" stroke="midnightblue" points="1616.21,-256.675 1606.01,-259.522 1615.76,-263.66 1616.21,-256.675"/>
</g>
<!-- Node4 -->
<g id="node7" class="node"><title>Node4</title>
<a xlink:href="_cmd_line_8h.html" target="_top" xlink:title="base/CmdLine.h">
<polygon fill="white" stroke="black" points="1489,-188.5 1489,-209.5 1577,-209.5 1577,-188.5 1489,-188.5"/>
<text text-anchor="middle" x="1533" y="-196.5" font-family="Helvetica,sans-Serif" font-size="10.00">base/CmdLine.h</text>
</a>
</g>
<!-- Node1&#45;&gt;Node4 -->
<g id="edge6" class="edge"><title>Node1&#45;&gt;Node4</title>
<path fill="none" stroke="midnightblue" d="M2399.64,-306.981C2225.75,-285.315 1748.77,-225.884 1587.28,-205.763"/>
<polygon fill="midnightblue" stroke="midnightblue" points="1587.46,-202.258 1577.1,-204.495 1586.59,-209.204 1587.46,-202.258"/>
</g>
<!-- Node21 -->
<g id="node41" class="node"><title>Node21</title>
<polygon fill="white" stroke="#bfbfbf" points="2106,-123.5 2106,-144.5 2160,-144.5 2160,-123.5 2106,-123.5"/>
<text text-anchor="middle" x="2133" y="-131.5" font-family="Helvetica,sans-Serif" font-size="10.00">iostream</text>
</g>
<!-- Node1&#45;&gt;Node21 -->
<g id="edge156" class="edge"><title>Node1&#45;&gt;Node21</title>
<path fill="none" stroke="midnightblue" d="M2426.67,-304.411C2375.32,-288.791 2281.27,-256.334 2211,-210 2186.54,-193.87 2163.1,-169.415 2148.42,-152.627"/>
<polygon fill="midnightblue" stroke="midnightblue" points="2150.74,-149.956 2141.58,-144.632 2145.42,-154.506 2150.74,-149.956"/>
</g>
<!-- Node26 -->
<g id="node51" class="node"><title>Node26</title>
<a xlink:href="system_8h.html" target="_top" xlink:title="base/std_ext/system.h">
<polygon fill="white" stroke="black" points="2220,-188.5 2220,-209.5 2336,-209.5 2336,-188.5 2220,-188.5"/>
<text text-anchor="middle" x="2278" y="-196.5" font-family="Helvetica,sans-Serif" font-size="10.00">base/std_ext/system.h</text>
</a>
</g>
<!-- Node1&#45;&gt;Node26 -->
<g id="edge50" class="edge"><title>Node1&#45;&gt;Node26</title>
<path fill="none" stroke="midnightblue" d="M2446.83,-304.295C2413.95,-283.785 2341.91,-238.859 2303.43,-214.857"/>
<polygon fill="midnightblue" stroke="midnightblue" points="2305.19,-211.834 2294.85,-209.512 2301.49,-217.773 2305.19,-211.834"/>
</g>
<!-- Node27 -->
<g id="node55" class="node"><title>Node27</title>
<a xlink:href="string_8h.html" target="_top" xlink:title="base/std_ext/string.h">
<polygon fill="white" stroke="black" points="3160,-58.5 3160,-79.5 3268,-79.5 3268,-58.5 3160,-58.5"/>
<text text-anchor="middle" x="3214" y="-66.5" font-family="Helvetica,sans-Serif" font-size="10.00">base/std_ext/string.h</text>
</a>
</g>
<!-- Node1&#45;&gt;Node27 -->
<g id="edge56" class="edge"><title>Node1&#45;&gt;Node27</title>
<path fill="none" stroke="midnightblue" d="M2528.22,-311.373C2768.69,-297.137 3606,-241.424 3681,-152 3691.28,-139.741 3691.73,-127.867 3681,-116 3654.51,-86.7115 3400.36,-74.8296 3278.53,-70.7867"/>
<polygon fill="midnightblue" stroke="midnightblue" points="3278.33,-67.2785 3268.22,-70.4529 3278.1,-74.2748 3278.33,-67.2785"/>
</g>
<!-- Node29 -->
<g id="node62" class="node"><title>Node29</title>
<a xlink:href="_wrap_t_file_8h.html" target="_top" xlink:title="base/WrapTFile.h">
<polygon fill="white" stroke="black" points="3250,-188.5 3250,-209.5 3344,-209.5 3344,-188.5 3250,-188.5"/>
<text text-anchor="middle" x="3297" y="-196.5" font-family="Helvetica,sans-Serif" font-size="10.00">base/WrapTFile.h</text>
</a>
</g>
<!-- Node1&#45;&gt;Node29 -->
<g id="edge66" class="edge"><title>Node1&#45;&gt;Node29</title>
<path fill="none" stroke="midnightblue" d="M2528.07,-308.826C2610.04,-300.687 2756.35,-285.351 2881,-268 3009.64,-250.094 3159.77,-223.868 3239.83,-209.453"/>
<polygon fill="midnightblue" stroke="midnightblue" points="3240.49,-212.89 3249.71,-207.67 3239.25,-206.002 3240.49,-212.89"/>
</g>
<!-- Node42 -->
<g id="node94" class="node"><title>Node42</title>
<a xlink:href="_t_calibration_data_8h.html" target="_top" xlink:title="tree/TCalibrationData.h">
<polygon fill="white" stroke="black" points="2405,-246.5 2405,-267.5 2523,-267.5 2523,-246.5 2405,-246.5"/>
<text text-anchor="middle" x="2464" y="-254.5" font-family="Helvetica,sans-Serif" font-size="10.00">tree/TCalibrationData.h</text>
</a>
</g>
<!-- Node1&#45;&gt;Node42 -->
<g id="edge104" class="edge"><title>Node1&#45;&gt;Node42</title>
<path fill="none" stroke="midnightblue" d="M2464,-304.362C2464,-296.922 2464,-286.743 2464,-277.728"/>
<polygon fill="midnightblue" stroke="midnightblue" points="2467.5,-277.571 2464,-267.571 2460.5,-277.571 2467.5,-277.571"/>
</g>
<!-- Node54 -->
<g id="node127" class="node"><title>Node54</title>
<a xlink:href="_t_ant_header_8h.html" target="_top" xlink:title="tree/TAntHeader.h">
<polygon fill="white" stroke="black" points="2775.5,-246.5 2775.5,-267.5 2872.5,-267.5 2872.5,-246.5 2775.5,-246.5"/>
<text text-anchor="middle" x="2824" y="-254.5" font-family="Helvetica,sans-Serif" font-size="10.00">tree/TAntHeader.h</text>
</a>
</g>
<!-- Node1&#45;&gt;Node54 -->
<g id="edge146" class="edge"><title>Node1&#45;&gt;Node54</title>
<path fill="none" stroke="midnightblue" d="M2528.36,-304.631C2595.65,-293.79 2700.32,-276.926 2765.38,-266.444"/>
<polygon fill="midnightblue" stroke="midnightblue" points="2766.15,-269.865 2775.47,-264.819 2765.04,-262.954 2766.15,-269.865"/>
</g>
<!-- Node56 -->
<g id="node133" class="node"><title>Node56</title>
<polygon fill="white" stroke="#bfbfbf" points="3766,-246.5 3766,-267.5 3816,-267.5 3816,-246.5 3766,-246.5"/>
<text text-anchor="middle" x="3791" y="-254.5" font-family="Helvetica,sans-Serif" font-size="10.00">TTree.h</text>
</g>
<!-- Node1&#45;&gt;Node56 -->
<g id="edge154" class="edge"><title>Node1&#45;&gt;Node56</title>
<path fill="none" stroke="midnightblue" d="M2528.26,-314.679C2754.34,-313.232 3512.3,-305.625 3752,-268 3753.25,-267.804 3754.52,-267.581 3755.8,-267.335"/>
<polygon fill="midnightblue" stroke="midnightblue" points="3756.63,-270.736 3765.6,-265.103 3755.07,-263.91 3756.63,-270.736"/>
</g>
<!-- Node3 -->
<g id="node5" class="node"><title>Node3</title>
<polygon fill="white" stroke="#bfbfbf" points="1356.5,-188.5 1356.5,-209.5 1471.5,-209.5 1471.5,-188.5 1356.5,-188.5"/>
<text text-anchor="middle" x="1414" y="-196.5" font-family="Helvetica,sans-Serif" font-size="10.00">detail/easylogging++.h</text>
</g>
<!-- Node2&#45;&gt;Node3 -->
<g id="edge4" class="edge"><title>Node2&#45;&gt;Node3</title>
<path fill="none" stroke="midnightblue" d="M1539.29,-246.497C1514.67,-237.164 1478.48,-223.445 1451.32,-213.147"/>
<polygon fill="midnightblue" stroke="midnightblue" points="1452.35,-209.795 1441.76,-209.523 1449.87,-216.341 1452.35,-209.795"/>
</g>
<!-- Node5 -->
<g id="node9" class="node"><title>Node5</title>
<polygon fill="white" stroke="#bfbfbf" points="1960,-123.5 1960,-144.5 2050,-144.5 2050,-123.5 1960,-123.5"/>
<text text-anchor="middle" x="2005" y="-131.5" font-family="Helvetica,sans-Serif" font-size="10.00">detail/CmdLine.h</text>
</g>
<!-- Node4&#45;&gt;Node5 -->
<g id="edge8" class="edge"><title>Node4&#45;&gt;Node5</title>
<path fill="none" stroke="midnightblue" d="M1577.12,-197.082C1653.91,-193.071 1816.75,-181.579 1951,-152 1956.37,-150.817 1961.95,-149.299 1967.41,-147.646"/>
<polygon fill="midnightblue" stroke="midnightblue" points="1968.55,-150.954 1977.01,-144.57 1966.42,-144.288 1968.55,-150.954"/>
</g>
<!-- Node6 -->
<g id="node11" class="node"><title>Node6</title>
<polygon fill="white" stroke="#bfbfbf" points="-0.5,-117 -0.5,-151 120.5,-151 120.5,-117 -0.5,-117"/>
<text text-anchor="start" x="7.5" y="-138" font-family="Helvetica,sans-Serif" font-size="10.00">base/detail/tclap/Switch</text>
<text text-anchor="middle" x="60" y="-125" font-family="Helvetica,sans-Serif" font-size="10.00">Arg.h</text>
</g>
<!-- Node4&#45;&gt;Node6 -->
<g id="edge10" class="edge"><title>Node4&#45;&gt;Node6</title>
<path fill="none" stroke="midnightblue" d="M1488.85,-189.224C1485.86,-188.752 1482.89,-188.336 1480,-188 886.705,-119.083 725.511,-235.044 130.914,-152.09"/>
<polygon fill="midnightblue" stroke="midnightblue" points="131.19,-148.594 120.8,-150.665 130.214,-155.526 131.19,-148.594"/>
</g>
<!-- Node7 -->
<g id="node13" class="node"><title>Node7</title>
<polygon fill="white" stroke="#bfbfbf" points="138,-117 138,-151 280,-151 280,-117 138,-117"/>
<text text-anchor="start" x="146" y="-138" font-family="Helvetica,sans-Serif" font-size="10.00">base/detail/tclap/MultiSwitch</text>
<text text-anchor="middle" x="209" y="-125" font-family="Helvetica,sans-Serif" font-size="10.00">Arg.h</text>
</g>
<!-- Node4&#45;&gt;Node7 -->
<g id="edge12" class="edge"><title>Node4&#45;&gt;Node7</title>
<path fill="none" stroke="midnightblue" d="M1488.85,-189.236C1485.86,-188.761 1482.89,-188.341 1480,-188 957.41,-126.349 816.181,-217.259 290.531,-152.046"/>
<polygon fill="midnightblue" stroke="midnightblue" points="290.767,-148.548 280.41,-150.777 289.896,-155.494 290.767,-148.548"/>
</g>
<!-- Node8 -->
<g id="node15" class="node"><title>Node8</title>
<polygon fill="white" stroke="#bfbfbf" points="298,-117 298,-151 432,-151 432,-117 298,-117"/>
<text text-anchor="start" x="306" y="-138" font-family="Helvetica,sans-Serif" font-size="10.00">base/detail/tclap/Unlabeled</text>
<text text-anchor="middle" x="365" y="-125" font-family="Helvetica,sans-Serif" font-size="10.00">ValueArg.h</text>
</g>
<!-- Node4&#45;&gt;Node8 -->
<g id="edge14" class="edge"><title>Node4&#45;&gt;Node8</title>
<path fill="none" stroke="midnightblue" d="M1488.85,-189.251C1485.86,-188.772 1482.89,-188.348 1480,-188 1024.61,-133.256 900.747,-212.37 442.207,-151.988"/>
<polygon fill="midnightblue" stroke="midnightblue" points="442.377,-148.479 432.002,-150.628 441.452,-155.418 442.377,-148.479"/>
</g>
<!-- Node9 -->
<g id="node17" class="node"><title>Node9</title>
<polygon fill="white" stroke="#bfbfbf" points="450,-117 450,-151 584,-151 584,-117 450,-117"/>
<text text-anchor="start" x="458" y="-138" font-family="Helvetica,sans-Serif" font-size="10.00">base/detail/tclap/Unlabeled</text>
<text text-anchor="middle" x="517" y="-125" font-family="Helvetica,sans-Serif" font-size="10.00">MultiArg.h</text>
</g>
<!-- Node4&#45;&gt;Node9 -->
<g id="edge16" class="edge"><title>Node4&#45;&gt;Node9</title>
<path fill="none" stroke="midnightblue" d="M1488.84,-189.27C1485.86,-188.788 1482.89,-188.356 1480,-188 1091.76,-140.161 985.681,-204.593 594.191,-151.992"/>
<polygon fill="midnightblue" stroke="midnightblue" points="594.386,-148.487 584.005,-150.606 593.442,-155.423 594.386,-148.487"/>
</g>
<!-- Node10 -->
<g id="node19" class="node"><title>Node10</title>
<polygon fill="white" stroke="#bfbfbf" points="602,-123.5 602,-144.5 750,-144.5 750,-123.5 602,-123.5"/>
<text text-anchor="middle" x="676" y="-131.5" font-family="Helvetica,sans-Serif" font-size="10.00">base/detail/tclap/XorHandler.h</text>
</g>
<!-- Node4&#45;&gt;Node10 -->
<g id="edge18" class="edge"><title>Node4&#45;&gt;Node10</title>
<path fill="none" stroke="midnightblue" d="M1488.84,-189.302C1485.86,-188.811 1482.89,-188.37 1480,-188 1161.75,-147.278 1077.06,-194.141 759,-152 748.914,-150.664 738.236,-148.74 728.017,-146.643"/>
<polygon fill="midnightblue" stroke="midnightblue" points="728.5,-143.167 717.989,-144.503 727.039,-150.013 728.5,-143.167"/>
</g>
<!-- Node11 -->
<g id="node21" class="node"><title>Node11</title>
<polygon fill="white" stroke="#bfbfbf" points="767.5,-123.5 767.5,-144.5 914.5,-144.5 914.5,-123.5 767.5,-123.5"/>
<text text-anchor="middle" x="841" y="-131.5" font-family="Helvetica,sans-Serif" font-size="10.00">base/detail/tclap/HelpVisitor.h</text>
</g>
<!-- Node4&#45;&gt;Node11 -->
<g id="edge20" class="edge"><title>Node4&#45;&gt;Node11</title>
<path fill="none" stroke="midnightblue" d="M1488.83,-189.353C1485.85,-188.85 1482.89,-188.392 1480,-188 1236.38,-154.939 1171.63,-184.985 928,-152 917.575,-150.589 906.53,-148.652 895.935,-146.569"/>
<polygon fill="midnightblue" stroke="midnightblue" points="896.446,-143.102 885.95,-144.541 895.053,-149.962 896.446,-143.102"/>
</g>
<!-- Node12 -->
<g id="node23" class="node"><title>Node12</title>
<polygon fill="white" stroke="#bfbfbf" points="970,-117 970,-151 1094,-151 1094,-117 970,-117"/>
<text text-anchor="start" x="978" y="-138" font-family="Helvetica,sans-Serif" font-size="10.00">base/detail/tclap/Version</text>
<text text-anchor="middle" x="1032" y="-125" font-family="Helvetica,sans-Serif" font-size="10.00">Visitor.h</text>
</g>
<!-- Node4&#45;&gt;Node12 -->
<g id="edge22" class="edge"><title>Node4&#45;&gt;Node12</title>
<path fill="none" stroke="midnightblue" d="M1488.82,-189.453C1485.84,-188.926 1482.88,-188.435 1480,-188 1316.82,-163.351 1270.64,-180.083 1104.31,-152.076"/>
<polygon fill="midnightblue" stroke="midnightblue" points="1104.67,-148.587 1094.22,-150.348 1103.49,-155.486 1104.67,-148.587"/>
</g>
<!-- Node13 -->
<g id="node25" class="node"><title>Node13</title>
<polygon fill="white" stroke="#bfbfbf" points="1112,-117 1112,-151 1230,-151 1230,-117 1112,-117"/>
<text text-anchor="start" x="1120" y="-138" font-family="Helvetica,sans-Serif" font-size="10.00">base/detail/tclap/Ignore</text>
<text text-anchor="middle" x="1171" y="-125" font-family="Helvetica,sans-Serif" font-size="10.00">RestVisitor.h</text>
</g>
<!-- Node4&#45;&gt;Node13 -->
<g id="edge24" class="edge"><title>Node4&#45;&gt;Node13</title>
<path fill="none" stroke="midnightblue" d="M1488.79,-189.63C1485.82,-189.06 1482.87,-188.511 1480,-188 1376.51,-169.545 1346.79,-173.623 1240.12,-152.114"/>
<polygon fill="midnightblue" stroke="midnightblue" points="1240.75,-148.67 1230.25,-150.095 1239.34,-155.528 1240.75,-148.67"/>
</g>
<!-- Node14 -->
<g id="node27" class="node"><title>Node14</title>
<polygon fill="white" stroke="#bfbfbf" points="1314,-117 1314,-151 1444,-151 1444,-117 1314,-117"/>
<text text-anchor="start" x="1322" y="-138" font-family="Helvetica,sans-Serif" font-size="10.00">base/detail/tclap/CmdLine</text>
<text text-anchor="middle" x="1379" y="-125" font-family="Helvetica,sans-Serif" font-size="10.00">Output.h</text>
</g>
<!-- Node4&#45;&gt;Node14 -->
<g id="edge26" class="edge"><title>Node4&#45;&gt;Node14</title>
<path fill="none" stroke="midnightblue" d="M1507.91,-188.412C1486.58,-179.409 1455.31,-166.207 1428.9,-155.062"/>
<polygon fill="midnightblue" stroke="midnightblue" points="1429.99,-151.725 1419.42,-151.06 1427.27,-158.174 1429.99,-151.725"/>
</g>
<!-- Node15 -->
<g id="node29" class="node"><title>Node15</title>
<polygon fill="white" stroke="#bfbfbf" points="1461.5,-123.5 1461.5,-144.5 1604.5,-144.5 1604.5,-123.5 1461.5,-123.5"/>
<text text-anchor="middle" x="1533" y="-131.5" font-family="Helvetica,sans-Serif" font-size="10.00">base/detail/tclap/StdOutput.h</text>
</g>
<!-- Node4&#45;&gt;Node15 -->
<g id="edge28" class="edge"><title>Node4&#45;&gt;Node15</title>
<path fill="none" stroke="midnightblue" d="M1533,-188.267C1533,-179.18 1533,-165.892 1533,-154.74"/>
<polygon fill="midnightblue" stroke="midnightblue" points="1536.5,-154.534 1533,-144.534 1529.5,-154.534 1536.5,-154.534"/>
</g>
<!-- Node16 -->
<g id="node31" class="node"><title>Node16</title>
<polygon fill="white" stroke="#bfbfbf" points="1622,-123.5 1622,-144.5 1766,-144.5 1766,-123.5 1622,-123.5"/>
<text text-anchor="middle" x="1694" y="-131.5" font-family="Helvetica,sans-Serif" font-size="10.00">base/detail/tclap/Constraint.h</text>
</g>
<!-- Node4&#45;&gt;Node16 -->
<g id="edge30" class="edge"><title>Node4&#45;&gt;Node16</title>
<path fill="none" stroke="midnightblue" d="M1559.23,-188.412C1586.12,-177.552 1628.16,-160.583 1658.12,-148.484"/>
<polygon fill="midnightblue" stroke="midnightblue" points="1659.82,-151.573 1667.79,-144.584 1657.2,-145.082 1659.82,-151.573"/>
</g>
<!-- Node17 -->
<g id="node33" class="node"><title>Node17</title>
<polygon fill="white" stroke="#bfbfbf" points="1821.5,-117 1821.5,-151 1942.5,-151 1942.5,-117 1821.5,-117"/>
<text text-anchor="start" x="1829.5" y="-138" font-family="Helvetica,sans-Serif" font-size="10.00">base/detail/tclap/Values</text>
<text text-anchor="middle" x="1882" y="-125" font-family="Helvetica,sans-Serif" font-size="10.00">Constraint.h</text>
</g>
<!-- Node4&#45;&gt;Node17 -->
<g id="edge32" class="edge"><title>Node4&#45;&gt;Node17</title>
<path fill="none" stroke="midnightblue" d="M1577.47,-192.371C1632,-184.02 1727.13,-168.725 1808,-152 1809.07,-151.779 1810.14,-151.554 1811.23,-151.324"/>
<polygon fill="midnightblue" stroke="midnightblue" points="1812.08,-154.722 1821.1,-149.168 1810.58,-147.883 1812.08,-154.722"/>
</g>
<!-- Node18 -->
<g id="node35" class="node"><title>Node18</title>
<polygon fill="white" stroke="#bfbfbf" points="2381.5,-0.5 2381.5,-21.5 2422.5,-21.5 2422.5,-0.5 2381.5,-0.5"/>
<text text-anchor="middle" x="2402" y="-8.5" font-family="Helvetica,sans-Serif" font-size="10.00">string</text>
</g>
<!-- Node4&#45;&gt;Node18 -->
<g id="edge34" class="edge"><title>Node4&#45;&gt;Node18</title>
<path fill="none" stroke="midnightblue" d="M1577.02,-193.456C1637.07,-185.385 1741.08,-169.448 1775,-152 1795.69,-141.358 1792.23,-126.482 1813,-116 1913.3,-65.3814 2264.65,-25.3354 2371.16,-14.1374"/>
<polygon fill="midnightblue" stroke="midnightblue" points="2371.67,-17.604 2381.25,-13.0865 2370.94,-10.6416 2371.67,-17.604"/>
</g>
<!-- Node19 -->
<g id="node37" class="node"><title>Node19</title>
<polygon fill="white" stroke="#bfbfbf" points="1620,-0.5 1620,-21.5 1664,-21.5 1664,-0.5 1620,-0.5"/>
<text text-anchor="middle" x="1642" y="-8.5" font-family="Helvetica,sans-Serif" font-size="10.00">vector</text>
</g>
<!-- Node4&#45;&gt;Node19 -->
<g id="edge36" class="edge"><title>Node4&#45;&gt;Node19</title>
<path fill="none" stroke="midnightblue" d="M1488.83,-189.367C1485.85,-188.86 1482.89,-188.398 1480,-188 1422.74,-180.108 1000.43,-194.265 961,-152 950.085,-140.301 950.584,-128.145 961,-116 1004.03,-65.822 1480.44,-24.0163 1609.77,-13.5329"/>
<polygon fill="midnightblue" stroke="midnightblue" points="1610.15,-17.0137 1619.84,-12.7235 1609.59,-10.0362 1610.15,-17.0137"/>
</g>
<!-- Node20 -->
<g id="node39" class="node"><title>Node20</title>
<polygon fill="white" stroke="#bfbfbf" points="2429.5,-123.5 2429.5,-144.5 2458.5,-144.5 2458.5,-123.5 2429.5,-123.5"/>
<text text-anchor="middle" x="2444" y="-131.5" font-family="Helvetica,sans-Serif" font-size="10.00">list</text>
</g>
<!-- Node4&#45;&gt;Node20 -->
<g id="edge38" class="edge"><title>Node4&#45;&gt;Node20</title>
<path fill="none" stroke="midnightblue" d="M1577.18,-198.335C1699.59,-196.085 2053.36,-186.821 2345,-152 2370.58,-148.945 2399.55,-143.436 2419.51,-139.314"/>
<polygon fill="midnightblue" stroke="midnightblue" points="2420.26,-142.732 2429.32,-137.248 2418.82,-135.882 2420.26,-142.732"/>
</g>
<!-- Node4&#45;&gt;Node21 -->
<g id="edge40" class="edge"><title>Node4&#45;&gt;Node21</title>
<path fill="none" stroke="midnightblue" d="M1577.1,-197.167C1691.32,-192.119 1994.66,-176.73 2092,-152 2095.68,-151.064 2099.45,-149.83 2103.14,-148.445"/>
<polygon fill="midnightblue" stroke="midnightblue" points="2104.71,-151.585 2112.61,-144.529 2102.04,-145.116 2104.71,-151.585"/>
</g>
<!-- Node22 -->
<g id="node43" class="node"><title>Node22</title>
<polygon fill="white" stroke="#bfbfbf" points="2178,-123.5 2178,-144.5 2228,-144.5 2228,-123.5 2178,-123.5"/>
<text text-anchor="middle" x="2203" y="-131.5" font-family="Helvetica,sans-Serif" font-size="10.00">iomanip</text>
</g>
<!-- Node4&#45;&gt;Node22 -->
<g id="edge42" class="edge"><title>Node4&#45;&gt;Node22</title>
<path fill="none" stroke="midnightblue" d="M1577.3,-198.087C1702.58,-195.133 2057.55,-184.088 2169,-152 2171.68,-151.23 2174.38,-150.233 2177.04,-149.104"/>
<polygon fill="midnightblue" stroke="midnightblue" points="2178.83,-152.126 2186.29,-144.604 2175.76,-145.831 2178.83,-152.126"/>
</g>
<!-- Node23 -->
<g id="node45" class="node"><title>Node23</title>
<polygon fill="white" stroke="#bfbfbf" points="3150,-0.5 3150,-21.5 3206,-21.5 3206,-0.5 3150,-0.5"/>
<text text-anchor="middle" x="3178" y="-8.5" font-family="Helvetica,sans-Serif" font-size="10.00">algorithm</text>
</g>
<!-- Node4&#45;&gt;Node23 -->
<g id="edge44" class="edge"><title>Node4&#45;&gt;Node23</title>
<path fill="none" stroke="midnightblue" d="M1577.39,-196.707C1696.23,-190.333 2015.59,-171.58 2059,-152 2080.21,-142.434 2075.98,-125.966 2097,-116 2287.57,-25.6491 2970.53,-13.0251 3139.82,-11.2778"/>
<polygon fill="midnightblue" stroke="midnightblue" points="3140.03,-14.7761 3150,-11.1797 3139.96,-7.77638 3140.03,-14.7761"/>
</g>
<!-- Node24 -->
<g id="node47" class="node"><title>Node24</title>
<polygon fill="white" stroke="#bfbfbf" points="1248,-123.5 1248,-144.5 1296,-144.5 1296,-123.5 1248,-123.5"/>
<text text-anchor="middle" x="1272" y="-131.5" font-family="Helvetica,sans-Serif" font-size="10.00">stdlib.h</text>
</g>
<!-- Node4&#45;&gt;Node24 -->
<g id="edge46" class="edge"><title>Node4&#45;&gt;Node24</title>
<path fill="none" stroke="midnightblue" d="M1488.75,-189.811C1485.79,-189.198 1482.85,-188.59 1480,-188 1402.24,-171.932 1379.56,-179.311 1305,-152 1302.73,-151.167 1300.42,-150.197 1298.13,-149.147"/>
<polygon fill="midnightblue" stroke="midnightblue" points="1299.52,-145.926 1289.02,-144.529 1296.35,-152.171 1299.52,-145.926"/>
</g>
<!-- Node25 -->
<g id="node49" class="node"><title>Node25</title>
<polygon fill="white" stroke="#bfbfbf" points="2284,-123.5 2284,-144.5 2336,-144.5 2336,-123.5 2284,-123.5"/>
<text text-anchor="middle" x="2310" y="-131.5" font-family="Helvetica,sans-Serif" font-size="10.00">memory</text>
</g>
<!-- Node4&#45;&gt;Node25 -->
<g id="edge48" class="edge"><title>Node4&#45;&gt;Node25</title>
<path fill="none" stroke="midnightblue" d="M1577.34,-197.058C1711.04,-191.043 2108.85,-171.92 2237,-152 2249.17,-150.108 2262.29,-147.165 2274,-144.204"/>
<polygon fill="midnightblue" stroke="midnightblue" points="2275.08,-147.538 2283.87,-141.622 2273.31,-140.766 2275.08,-147.538"/>
</g>
<!-- Node26&#45;&gt;Node18 -->
<g id="edge54" class="edge"><title>Node26&#45;&gt;Node18</title>
<path fill="none" stroke="midnightblue" d="M2274.67,-188.426C2270.12,-172.029 2263.76,-139.874 2275,-116 2294.99,-73.5423 2341.5,-42.3854 2372.34,-25.4787"/>
<polygon fill="midnightblue" stroke="midnightblue" points="2374.17,-28.471 2381.36,-20.6926 2370.89,-22.2873 2374.17,-28.471"/>
</g>
<!-- Node26&#45;&gt;Node20 -->
<g id="edge52" class="edge"><title>Node26&#45;&gt;Node20</title>
<path fill="none" stroke="midnightblue" d="M2305.04,-188.412C2336.9,-175.936 2389.35,-155.398 2419.89,-143.442"/>
<polygon fill="midnightblue" stroke="midnightblue" points="2421.3,-146.646 2429.34,-139.741 2418.75,-140.128 2421.3,-146.646"/>
</g>
<!-- Node27&#45;&gt;Node18 -->
<g id="edge58" class="edge"><title>Node27&#45;&gt;Node18</title>
<path fill="none" stroke="midnightblue" d="M3159.87,-59.7575C3155.19,-59.1053 3150.52,-58.5067 3146,-58 2870.51,-27.0901 2535.17,-15.0017 2433,-11.8779"/>
<polygon fill="midnightblue" stroke="midnightblue" points="2432.88,-8.37263 2422.78,-11.5716 2432.67,-15.3695 2432.88,-8.37263"/>
</g>
<!-- Node27&#45;&gt;Node19 -->
<g id="edge64" class="edge"><title>Node27&#45;&gt;Node19</title>
<path fill="none" stroke="midnightblue" d="M3159.89,-67.0035C2910.06,-57.7858 1871.9,-19.4824 1674.5,-12.1989"/>
<polygon fill="midnightblue" stroke="midnightblue" points="1674.33,-8.6907 1664.21,-11.8195 1674.08,-15.6859 1674.33,-8.6907"/>
</g>
<!-- Node27&#45;&gt;Node23 -->
<g id="edge62" class="edge"><title>Node27&#45;&gt;Node23</title>
<path fill="none" stroke="midnightblue" d="M3207.4,-58.3619C3202.53,-50.5131 3195.76,-39.6159 3189.95,-30.2527"/>
<polygon fill="midnightblue" stroke="midnightblue" points="3192.81,-28.2213 3184.56,-21.5707 3186.86,-31.9129 3192.81,-28.2213"/>
</g>
<!-- Node28 -->
<g id="node58" class="node"><title>Node28</title>
<polygon fill="white" stroke="#bfbfbf" points="3224,-0.5 3224,-21.5 3276,-21.5 3276,-0.5 3224,-0.5"/>
<text text-anchor="middle" x="3250" y="-8.5" font-family="Helvetica,sans-Serif" font-size="10.00">sstream</text>
</g>
<!-- Node27&#45;&gt;Node28 -->
<g id="edge60" class="edge"><title>Node27&#45;&gt;Node28</title>
<path fill="none" stroke="midnightblue" d="M3220.6,-58.3619C3225.47,-50.5131 3232.24,-39.6159 3238.05,-30.2527"/>
<polygon fill="midnightblue" stroke="midnightblue" points="3241.14,-31.9129 3243.44,-21.5707 3235.19,-28.2213 3241.14,-31.9129"/>
</g>
<!-- Node29&#45;&gt;Node18 -->
<g id="edge94" class="edge"><title>Node29&#45;&gt;Node18</title>
<path fill="none" stroke="midnightblue" d="M3255.11,-188.424C3231.18,-180.957 3201.53,-169.182 3179,-152 3137.37,-120.254 3154.07,-82.8793 3108,-58 3048,-25.5985 2561.02,-14.0468 2432.83,-11.5516"/>
<polygon fill="midnightblue" stroke="midnightblue" points="2432.62,-8.04702 2422.55,-11.3562 2432.48,-15.0458 2432.62,-8.04702"/>
</g>
<!-- Node29&#45;&gt;Node20 -->
<g id="edge96" class="edge"><title>Node29&#45;&gt;Node20</title>
<path fill="none" stroke="midnightblue" d="M3249.94,-193.487C3232.12,-191.541 3211.64,-189.473 3193,-188 2887.75,-163.888 2806.8,-203.685 2505,-152 2492.79,-149.91 2479.57,-146.196 2468.57,-142.683"/>
<polygon fill="midnightblue" stroke="midnightblue" points="2469.4,-139.27 2458.81,-139.435 2467.19,-145.912 2469.4,-139.27"/>
</g>
<!-- Node29&#45;&gt;Node25 -->
<g id="edge92" class="edge"><title>Node29&#45;&gt;Node25</title>
<path fill="none" stroke="midnightblue" d="M3249.94,-193.43C3232.12,-191.478 3211.65,-189.42 3193,-188 2850.51,-161.924 2762.64,-187.549 2421,-152 2395.97,-149.395 2368,-144.85 2346.4,-140.979"/>
<polygon fill="midnightblue" stroke="midnightblue" points="2346.82,-137.497 2336.35,-139.144 2345.56,-144.383 2346.82,-137.497"/>
</g>
<!-- Node29&#45;&gt;Node27 -->
<g id="edge68" class="edge"><title>Node29&#45;&gt;Node27</title>
<path fill="none" stroke="midnightblue" d="M3249.89,-190.839C3227.43,-184.326 3202.56,-172.694 3189,-152 3176.07,-132.278 3188.34,-105.605 3199.8,-87.8778"/>
<polygon fill="midnightblue" stroke="midnightblue" points="3202.77,-89.7246 3205.58,-79.5074 3197.01,-85.7462 3202.77,-89.7246"/>
</g>
<!-- Node30 -->
<g id="node65" class="node"><title>Node30</title>
<a xlink:href="misc_8h.html" target="_top" xlink:title="base/std_ext/misc.h">
<polygon fill="white" stroke="black" points="3765.5,-123.5 3765.5,-144.5 3870.5,-144.5 3870.5,-123.5 3765.5,-123.5"/>
<text text-anchor="middle" x="3818" y="-131.5" font-family="Helvetica,sans-Serif" font-size="10.00">base/std_ext/misc.h</text>
</a>
</g>
<!-- Node29&#45;&gt;Node30 -->
<g id="edge70" class="edge"><title>Node29&#45;&gt;Node30</title>
<path fill="none" stroke="midnightblue" d="M3344.02,-194.616C3421.36,-187.198 3580.21,-171.1 3714,-152 3727.37,-150.091 3741.66,-147.789 3755.24,-145.479"/>
<polygon fill="midnightblue" stroke="midnightblue" points="3756.2,-148.866 3765.46,-143.717 3755.01,-141.968 3756.2,-148.866"/>
</g>
<!-- Node31 -->
<g id="node68" class="node"><title>Node31</title>
<polygon fill="white" stroke="#bfbfbf" points="3665.5,-58.5 3665.5,-79.5 3724.5,-79.5 3724.5,-58.5 3665.5,-58.5"/>
<text text-anchor="middle" x="3695" y="-66.5" font-family="Helvetica,sans-Serif" font-size="10.00">functional</text>
</g>
<!-- Node29&#45;&gt;Node31 -->
<g id="edge102" class="edge"><title>Node29&#45;&gt;Node31</title>
<path fill="none" stroke="midnightblue" d="M3344.24,-196.348C3441.49,-190.445 3657.03,-174.912 3681,-152 3697.51,-136.217 3699.08,-108.761 3697.8,-89.7732"/>
<polygon fill="midnightblue" stroke="midnightblue" points="3701.27,-89.3308 3696.8,-79.7239 3694.3,-90.0199 3701.27,-89.3308"/>
</g>
<!-- Node34 -->
<g id="node74" class="node"><title>Node34</title>
<polygon fill="white" stroke="#bfbfbf" points="3197.5,-123.5 3197.5,-144.5 3244.5,-144.5 3244.5,-123.5 3197.5,-123.5"/>
<text text-anchor="middle" x="3221" y="-131.5" font-family="Helvetica,sans-Serif" font-size="10.00">TFile.h</text>
</g>
<!-- Node29&#45;&gt;Node34 -->
<g id="edge80" class="edge"><title>Node29&#45;&gt;Node34</title>
<path fill="none" stroke="midnightblue" d="M3284.45,-188.267C3272.72,-178.233 3255,-163.078 3241.26,-151.331"/>
<polygon fill="midnightblue" stroke="midnightblue" points="3243.19,-148.374 3233.32,-144.534 3238.64,-153.693 3243.19,-148.374"/>
</g>
<!-- Node35 -->
<g id="node76" class="node"><title>Node35</title>
<polygon fill="white" stroke="#bfbfbf" points="3261.5,-123.5 3261.5,-144.5 3332.5,-144.5 3332.5,-123.5 3261.5,-123.5"/>
<text text-anchor="middle" x="3297" y="-131.5" font-family="Helvetica,sans-Serif" font-size="10.00">TDirectory.h</text>
</g>
<!-- Node29&#45;&gt;Node35 -->
<g id="edge82" class="edge"><title>Node29&#45;&gt;Node35</title>
<path fill="none" stroke="midnightblue" d="M3297,-188.267C3297,-179.18 3297,-165.892 3297,-154.74"/>
<polygon fill="midnightblue" stroke="midnightblue" points="3300.5,-154.534 3297,-144.534 3293.5,-154.534 3300.5,-154.534"/>
</g>
<!-- Node36 -->
<g id="node78" class="node"><title>Node36</title>
<polygon fill="white" stroke="#bfbfbf" points="3350,-123.5 3350,-144.5 3402,-144.5 3402,-123.5 3350,-123.5"/>
<text text-anchor="middle" x="3376" y="-131.5" font-family="Helvetica,sans-Serif" font-size="10.00">TError.h</text>
</g>
<!-- Node29&#45;&gt;Node36 -->
<g id="edge84" class="edge"><title>Node29&#45;&gt;Node36</title>
<path fill="none" stroke="midnightblue" d="M3310.05,-188.267C3322.35,-178.139 3341.01,-162.792 3355.34,-151"/>
<polygon fill="midnightblue" stroke="midnightblue" points="3357.7,-153.59 3363.2,-144.534 3353.25,-148.185 3357.7,-153.59"/>
</g>
<!-- Node37 -->
<g id="node80" class="node"><title>Node37</title>
<polygon fill="white" stroke="#bfbfbf" points="3419.5,-123.5 3419.5,-144.5 3466.5,-144.5 3466.5,-123.5 3419.5,-123.5"/>
<text text-anchor="middle" x="3443" y="-131.5" font-family="Helvetica,sans-Serif" font-size="10.00">TList.h</text>
</g>
<!-- Node29&#45;&gt;Node37 -->
<g id="edge86" class="edge"><title>Node29&#45;&gt;Node37</title>
<path fill="none" stroke="midnightblue" d="M3325.53,-188.347C3348.85,-179.378 3382.49,-165.83 3411,-152 3412.58,-151.235 3414.18,-150.426 3415.8,-149.593"/>
<polygon fill="midnightblue" stroke="midnightblue" points="3417.79,-152.496 3424.93,-144.669 3414.46,-146.335 3417.79,-152.496"/>
</g>
<!-- Node38 -->
<g id="node82" class="node"><title>Node38</title>
<polygon fill="white" stroke="#bfbfbf" points="3484,-123.5 3484,-144.5 3558,-144.5 3558,-123.5 3484,-123.5"/>
<text text-anchor="middle" x="3521" y="-131.5" font-family="Helvetica,sans-Serif" font-size="10.00">TCollection.h</text>
</g>
<!-- Node29&#45;&gt;Node38 -->
<g id="edge88" class="edge"><title>Node29&#45;&gt;Node38</title>
<path fill="none" stroke="midnightblue" d="M3342.78,-188.446C3378.98,-179.733 3430.64,-166.483 3475,-152 3478.55,-150.841 3482.23,-149.554 3485.88,-148.218"/>
<polygon fill="midnightblue" stroke="midnightblue" points="3487.28,-151.429 3495.4,-144.618 3484.81,-144.882 3487.28,-151.429"/>
</g>
<!-- Node39 -->
<g id="node84" class="node"><title>Node39</title>
<polygon fill="white" stroke="#bfbfbf" points="3576,-123.5 3576,-144.5 3624,-144.5 3624,-123.5 3576,-123.5"/>
<text text-anchor="middle" x="3600" y="-131.5" font-family="Helvetica,sans-Serif" font-size="10.00">TKey.h</text>
</g>
<!-- Node29&#45;&gt;Node39 -->
<g id="edge90" class="edge"><title>Node29&#45;&gt;Node39</title>
<path fill="none" stroke="midnightblue" d="M3344.03,-195.496C3398.84,-190.353 3491.53,-178.344 3567,-152 3569.29,-151.202 3571.61,-150.256 3573.9,-149.223"/>
<polygon fill="midnightblue" stroke="midnightblue" points="3575.66,-152.254 3583.02,-144.636 3572.52,-146 3575.66,-152.254"/>
</g>
<!-- Node40 -->
<g id="node89" class="node"><title>Node40</title>
<polygon fill="white" stroke="#bfbfbf" points="3642,-123.5 3642,-144.5 3672,-144.5 3672,-123.5 3642,-123.5"/>
<text text-anchor="middle" x="3657" y="-131.5" font-family="Helvetica,sans-Serif" font-size="10.00">set</text>
</g>
<!-- Node29&#45;&gt;Node40 -->
<g id="edge98" class="edge"><title>Node29&#45;&gt;Node40</title>
<path fill="none" stroke="midnightblue" d="M3344.06,-195.336C3423.76,-188.646 3581.68,-173.17 3633,-152 3634.19,-151.508 3635.38,-150.944 3636.55,-150.324"/>
<polygon fill="midnightblue" stroke="midnightblue" points="3638.55,-153.2 3645.03,-144.823 3634.74,-147.326 3638.55,-153.2"/>
</g>
<!-- Node41 -->
<g id="node91" class="node"><title>Node41</title>
<polygon fill="white" stroke="#bfbfbf" points="3007.5,-123.5 3007.5,-144.5 3066.5,-144.5 3066.5,-123.5 3007.5,-123.5"/>
<text text-anchor="middle" x="3037" y="-131.5" font-family="Helvetica,sans-Serif" font-size="10.00">stdexcept</text>
</g>
<!-- Node29&#45;&gt;Node41 -->
<g id="edge100" class="edge"><title>Node29&#45;&gt;Node41</title>
<path fill="none" stroke="midnightblue" d="M3254.94,-188.484C3205.69,-176.174 3124.76,-155.94 3076.6,-143.901"/>
<polygon fill="midnightblue" stroke="midnightblue" points="3077.4,-140.492 3066.85,-141.462 3075.7,-147.283 3077.4,-140.492"/>
</g>
<!-- Node30&#45;&gt;Node23 -->
<g id="edge72" class="edge"><title>Node30&#45;&gt;Node23</title>
<path fill="none" stroke="midnightblue" d="M3819.5,-123.484C3821.22,-106.775 3821.73,-74.3786 3803,-58 3755.6,-16.5525 3314.96,-32.0813 3216.2,-21.4689"/>
<polygon fill="midnightblue" stroke="midnightblue" points="3216.51,-17.9781 3206.12,-20.0803 3215.55,-24.9126 3216.51,-17.9781"/>
</g>
<!-- Node30&#45;&gt;Node31 -->
<g id="edge74" class="edge"><title>Node30&#45;&gt;Node31</title>
<path fill="none" stroke="midnightblue" d="M3797.96,-123.412C3777.86,-112.788 3746.69,-96.3182 3723.91,-84.28"/>
<polygon fill="midnightblue" stroke="midnightblue" points="3725.5,-81.1613 3715.03,-79.5835 3722.23,-87.3503 3725.5,-81.1613"/>
</g>
<!-- Node32 -->
<g id="node70" class="node"><title>Node32</title>
<polygon fill="white" stroke="#bfbfbf" points="3850,-58.5 3850,-79.5 3894,-79.5 3894,-58.5 3850,-58.5"/>
<text text-anchor="middle" x="3872" y="-66.5" font-family="Helvetica,sans-Serif" font-size="10.00">cmath</text>
</g>
<!-- Node30&#45;&gt;Node32 -->
<g id="edge76" class="edge"><title>Node30&#45;&gt;Node32</title>
<path fill="none" stroke="midnightblue" d="M3826.92,-123.267C3835.02,-113.517 3847.13,-98.9317 3856.77,-87.3365"/>
<polygon fill="midnightblue" stroke="midnightblue" points="3859.55,-89.4622 3863.25,-79.5337 3854.17,-84.989 3859.55,-89.4622"/>
</g>
<!-- Node33 -->
<g id="node72" class="node"><title>Node33</title>
<polygon fill="white" stroke="#bfbfbf" points="3741.5,-58.5 3741.5,-79.5 3794.5,-79.5 3794.5,-58.5 3741.5,-58.5"/>
<text text-anchor="middle" x="3768" y="-66.5" font-family="Helvetica,sans-Serif" font-size="10.00">cxxabi.h</text>
</g>
<!-- Node30&#45;&gt;Node33 -->
<g id="edge78" class="edge"><title>Node30&#45;&gt;Node33</title>
<path fill="none" stroke="midnightblue" d="M3809.74,-123.267C3802.32,-113.612 3791.24,-99.2145 3782.37,-87.675"/>
<polygon fill="midnightblue" stroke="midnightblue" points="3784.97,-85.326 3776.1,-79.5337 3779.43,-89.594 3784.97,-85.326"/>
</g>
<!-- Node42&#45;&gt;Node18 -->
<g id="edge138" class="edge"><title>Node42&#45;&gt;Node18</title>
<path fill="none" stroke="midnightblue" d="M2429.63,-246.333C2412.38,-239.043 2393.06,-227.47 2383,-210 2349.75,-152.27 2377.05,-69.2312 2392.78,-31.2946"/>
<polygon fill="midnightblue" stroke="midnightblue" points="2396.11,-32.4176 2396.86,-21.849 2389.68,-29.6461 2396.11,-32.4176"/>
</g>
<!-- Node43 -->
<g id="node96" class="node"><title>Node43</title>
<a xlink:href="_t_i_d_8h.html" target="_top" xlink:title="TID.h">
<polygon fill="white" stroke="black" points="2656.5,-188.5 2656.5,-209.5 2697.5,-209.5 2697.5,-188.5 2656.5,-188.5"/>
<text text-anchor="middle" x="2677" y="-196.5" font-family="Helvetica,sans-Serif" font-size="10.00">TID.h</text>
</a>
</g>
<!-- Node42&#45;&gt;Node43 -->
<g id="edge106" class="edge"><title>Node42&#45;&gt;Node43</title>
<path fill="none" stroke="midnightblue" d="M2502.57,-246.497C2543.89,-235.247 2608.6,-217.625 2646.5,-207.304"/>
<polygon fill="midnightblue" stroke="midnightblue" points="2647.71,-210.603 2656.44,-204.598 2645.87,-203.848 2647.71,-210.603"/>
</g>
<!-- Node50 -->
<g id="node111" class="node"><title>Node50</title>
<polygon fill="white" stroke="#bfbfbf" points="2559.5,-58.5 2559.5,-79.5 2600.5,-79.5 2600.5,-58.5 2559.5,-58.5"/>
<text text-anchor="middle" x="2580" y="-66.5" font-family="Helvetica,sans-Serif" font-size="10.00">ctime</text>
</g>
<!-- Node42&#45;&gt;Node50 -->
<g id="edge140" class="edge"><title>Node42&#45;&gt;Node50</title>
<path fill="none" stroke="midnightblue" d="M2467.58,-246.21C2470.69,-236.708 2475.28,-222.478 2479,-210 2491.37,-168.456 2479.1,-150.757 2505,-116 2516.48,-100.593 2534.64,-89.023 2550.22,-81.2182"/>
<polygon fill="midnightblue" stroke="midnightblue" points="2551.94,-84.2737 2559.5,-76.8444 2548.96,-77.9417 2551.94,-84.2737"/>
</g>
<!-- Node53 -->
<g id="node124" class="node"><title>Node53</title>
<a xlink:href="_git_info_8h.html" target="_top" xlink:title="base/GitInfo.h">
<polygon fill="white" stroke="black" points="2392,-188.5 2392,-209.5 2470,-209.5 2470,-188.5 2392,-188.5"/>
<text text-anchor="middle" x="2431" y="-196.5" font-family="Helvetica,sans-Serif" font-size="10.00">base/GitInfo.h</text>
</a>
</g>
<!-- Node42&#45;&gt;Node53 -->
<g id="edge142" class="edge"><title>Node42&#45;&gt;Node53</title>
<path fill="none" stroke="midnightblue" d="M2457.95,-246.362C2453.53,-238.595 2447.41,-227.843 2442.12,-218.546"/>
<polygon fill="midnightblue" stroke="midnightblue" points="2445,-216.531 2437.01,-209.571 2438.92,-219.993 2445,-216.531"/>
</g>
<!-- Node43&#45;&gt;Node20 -->
<g id="edge132" class="edge"><title>Node43&#45;&gt;Node20</title>
<path fill="none" stroke="midnightblue" d="M2656.31,-193.491C2623.97,-184.847 2559.49,-167.483 2505,-152 2492.93,-148.569 2479.55,-144.637 2468.4,-141.324"/>
<polygon fill="midnightblue" stroke="midnightblue" points="2469.1,-137.88 2458.52,-138.374 2467.1,-144.588 2469.1,-137.88"/>
</g>
<!-- Node43&#45;&gt;Node22 -->
<g id="edge134" class="edge"><title>Node43&#45;&gt;Node22</title>
<path fill="none" stroke="midnightblue" d="M2656.36,-197.53C2596.83,-193.087 2419.81,-178.454 2275,-152 2262.84,-149.779 2249.69,-146.696 2237.99,-143.709"/>
<polygon fill="midnightblue" stroke="midnightblue" points="2238.71,-140.279 2228.15,-141.132 2236.94,-147.05 2238.71,-140.279"/>
</g>
<!-- Node43&#45;&gt;Node41 -->
<g id="edge130" class="edge"><title>Node43&#45;&gt;Node41</title>
<path fill="none" stroke="midnightblue" d="M2697.8,-198.099C2749.71,-195.398 2888.68,-185.36 2999,-152 3001.98,-151.099 3005.02,-150 3008.02,-148.792"/>
<polygon fill="midnightblue" stroke="midnightblue" points="3009.59,-151.921 3017.33,-144.679 3006.77,-145.518 3009.59,-151.921"/>
</g>
<!-- Node44 -->
<g id="node98" class="node"><title>Node44</title>
<polygon fill="white" stroke="#bfbfbf" points="2934,-123.5 2934,-144.5 2990,-144.5 2990,-123.5 2934,-123.5"/>
<text text-anchor="middle" x="2962" y="-131.5" font-family="Helvetica,sans-Serif" font-size="10.00">Rtypes.h</text>
</g>
<!-- Node43&#45;&gt;Node44 -->
<g id="edge108" class="edge"><title>Node43&#45;&gt;Node44</title>
<path fill="none" stroke="midnightblue" d="M2697.72,-196.954C2740.89,-192.284 2843.26,-179.09 2925,-152 2927.8,-151.073 2930.65,-149.977 2933.48,-148.792"/>
<polygon fill="midnightblue" stroke="midnightblue" points="2935.18,-151.863 2942.82,-144.526 2932.27,-145.496 2935.18,-151.863"/>
</g>
<!-- Node45 -->
<g id="node100" class="node"><title>Node45</title>
<a xlink:href="printable_8h.html" target="_top" xlink:title="base/printable.h">
<polygon fill="white" stroke="black" points="2830,-123.5 2830,-144.5 2916,-144.5 2916,-123.5 2830,-123.5"/>
<text text-anchor="middle" x="2873" y="-131.5" font-family="Helvetica,sans-Serif" font-size="10.00">base/printable.h</text>
</a>
</g>
<!-- Node43&#45;&gt;Node45 -->
<g id="edge110" class="edge"><title>Node43&#45;&gt;Node45</title>
<path fill="none" stroke="midnightblue" d="M2697.6,-192.167C2729.2,-181.688 2790.27,-161.435 2831.35,-147.814"/>
<polygon fill="midnightblue" stroke="midnightblue" points="2832.68,-151.059 2841.07,-144.589 2830.48,-144.415 2832.68,-151.059"/>
</g>
<!-- Node46 -->
<g id="node102" class="node"><title>Node46</title>
<polygon fill="white" stroke="#bfbfbf" points="2771,-58.5 2771,-79.5 2833,-79.5 2833,-58.5 2771,-58.5"/>
<text text-anchor="middle" x="2802" y="-66.5" font-family="Helvetica,sans-Serif" font-size="10.00">type_traits</text>
</g>
<!-- Node43&#45;&gt;Node46 -->
<g id="edge124" class="edge"><title>Node43&#45;&gt;Node46</title>
<path fill="none" stroke="midnightblue" d="M2697.91,-195.502C2722.1,-190.328 2761.36,-178.255 2783,-152 2797.4,-134.523 2801.37,-108.238 2802.24,-89.9471"/>
<polygon fill="midnightblue" stroke="midnightblue" points="2805.74,-89.8092 2802.44,-79.7415 2798.74,-89.6699 2805.74,-89.8092"/>
</g>
<!-- Node48 -->
<g id="node106" class="node"><title>Node48</title>
<a xlink:href="time_8h.html" target="_top" xlink:title="base/std_ext/time.h">
<polygon fill="white" stroke="black" points="2671.5,-123.5 2671.5,-144.5 2774.5,-144.5 2774.5,-123.5 2671.5,-123.5"/>
<text text-anchor="middle" x="2723" y="-131.5" font-family="Helvetica,sans-Serif" font-size="10.00">base/std_ext/time.h</text>
</a>
</g>
<!-- Node43&#45;&gt;Node48 -->
<g id="edge116" class="edge"><title>Node43&#45;&gt;Node48</title>
<path fill="none" stroke="midnightblue" d="M2684.6,-188.267C2691.36,-178.707 2701.42,-164.496 2709.54,-153.015"/>
<polygon fill="midnightblue" stroke="midnightblue" points="2712.63,-154.718 2715.55,-144.534 2706.91,-150.675 2712.63,-154.718"/>
</g>
<!-- Node43&#45;&gt;Node50 -->
<g id="edge136" class="edge"><title>Node43&#45;&gt;Node50</title>
<path fill="none" stroke="midnightblue" d="M2656.17,-191.812C2638.28,-184.553 2613.19,-171.592 2599,-152 2585.72,-133.657 2581.53,-107.543 2580.3,-89.5286"/>
<polygon fill="midnightblue" stroke="midnightblue" points="2583.8,-89.3403 2579.87,-79.5005 2576.81,-89.6421 2583.8,-89.3403"/>
</g>
<!-- Node51 -->
<g id="node114" class="node"><title>Node51</title>
<polygon fill="white" stroke="#bfbfbf" points="2514,-123.5 2514,-144.5 2552,-144.5 2552,-123.5 2514,-123.5"/>
<text text-anchor="middle" x="2533" y="-131.5" font-family="Helvetica,sans-Serif" font-size="10.00">tuple</text>
</g>
<!-- Node43&#45;&gt;Node51 -->
<g id="edge126" class="edge"><title>Node43&#45;&gt;Node51</title>
<path fill="none" stroke="midnightblue" d="M2656.27,-190.936C2633.77,-182.017 2596.9,-166.926 2566,-152 2564.24,-151.149 2562.43,-150.249 2560.62,-149.326"/>
<polygon fill="midnightblue" stroke="midnightblue" points="2562.16,-146.177 2551.68,-144.606 2558.89,-152.368 2562.16,-146.177"/>
</g>
<!-- Node52 -->
<g id="node116" class="node"><title>Node52</title>
<polygon fill="white" stroke="#bfbfbf" points="2608,-123.5 2608,-144.5 2654,-144.5 2654,-123.5 2608,-123.5"/>
<text text-anchor="middle" x="2631" y="-131.5" font-family="Helvetica,sans-Serif" font-size="10.00">cstdint</text>
</g>
<!-- Node43&#45;&gt;Node52 -->
<g id="edge128" class="edge"><title>Node43&#45;&gt;Node52</title>
<path fill="none" stroke="midnightblue" d="M2669.4,-188.267C2662.64,-178.707 2652.58,-164.496 2644.46,-153.015"/>
<polygon fill="midnightblue" stroke="midnightblue" points="2647.09,-150.675 2638.45,-144.534 2641.37,-154.718 2647.09,-150.675"/>
</g>
<!-- Node45&#45;&gt;Node46 -->
<g id="edge112" class="edge"><title>Node45&#45;&gt;Node46</title>
<path fill="none" stroke="midnightblue" d="M2861.28,-123.267C2850.32,-113.233 2833.76,-98.078 2820.93,-86.3311"/>
<polygon fill="midnightblue" stroke="midnightblue" points="2823.25,-83.7047 2813.51,-79.5337 2818.52,-88.8678 2823.25,-83.7047"/>
</g>
<!-- Node47 -->
<g id="node104" class="node"><title>Node47</title>
<polygon fill="white" stroke="#bfbfbf" points="2851,-58.5 2851,-79.5 2903,-79.5 2903,-58.5 2851,-58.5"/>
<text text-anchor="middle" x="2877" y="-66.5" font-family="Helvetica,sans-Serif" font-size="10.00">ostream</text>
</g>
<!-- Node45&#45;&gt;Node47 -->
<g id="edge114" class="edge"><title>Node45&#45;&gt;Node47</title>
<path fill="none" stroke="midnightblue" d="M2873.66,-123.267C2874.22,-114.18 2875.04,-100.892 2875.72,-89.7395"/>
<polygon fill="midnightblue" stroke="midnightblue" points="2879.23,-89.7298 2876.35,-79.5337 2872.24,-89.2998 2879.23,-89.7298"/>
</g>
<!-- Node48&#45;&gt;Node27 -->
<g id="edge118" class="edge"><title>Node48&#45;&gt;Node27</title>
<path fill="none" stroke="midnightblue" d="M2774.52,-123.911C2789.48,-121.152 2805.86,-118.293 2821,-116 2936.41,-98.5172 3071.7,-83.5414 3149.67,-75.4434"/>
<polygon fill="midnightblue" stroke="midnightblue" points="3150.23,-78.9042 3159.82,-74.3947 3149.51,-71.9412 3150.23,-78.9042"/>
</g>
<!-- Node49 -->
<g id="node109" class="node"><title>Node49</title>
<polygon fill="white" stroke="#bfbfbf" points="2700,-58.5 2700,-79.5 2746,-79.5 2746,-58.5 2700,-58.5"/>
<text text-anchor="middle" x="2723" y="-66.5" font-family="Helvetica,sans-Serif" font-size="10.00">cstring</text>
</g>
<!-- Node48&#45;&gt;Node49 -->
<g id="edge120" class="edge"><title>Node48&#45;&gt;Node49</title>
<path fill="none" stroke="midnightblue" d="M2723,-123.267C2723,-114.18 2723,-100.892 2723,-89.7395"/>
<polygon fill="midnightblue" stroke="midnightblue" points="2726.5,-89.5337 2723,-79.5337 2719.5,-89.5337 2726.5,-89.5337"/>
</g>
<!-- Node48&#45;&gt;Node50 -->
<g id="edge122" class="edge"><title>Node48&#45;&gt;Node50</title>
<path fill="none" stroke="midnightblue" d="M2699.71,-123.412C2675.18,-112.262 2636.48,-94.6725 2609.76,-82.5253"/>
<polygon fill="midnightblue" stroke="midnightblue" points="2611.05,-79.2701 2600.5,-78.3183 2608.16,-85.6427 2611.05,-79.2701"/>
</g>
<!-- Node53&#45;&gt;Node18 -->
<g id="edge144" class="edge"><title>Node53&#45;&gt;Node18</title>
<path fill="none" stroke="midnightblue" d="M2428.46,-188.218C2426.29,-178.721 2423.17,-164.494 2421,-152 2413.61,-109.434 2407.45,-59.2156 2404.29,-31.6699"/>
<polygon fill="midnightblue" stroke="midnightblue" points="2407.76,-31.1984 2403.16,-21.6548 2400.8,-31.9847 2407.76,-31.1984"/>
</g>
<!-- Node54&#45;&gt;Node18 -->
<g id="edge152" class="edge"><title>Node54&#45;&gt;Node18</title>
<path fill="none" stroke="midnightblue" d="M2862.77,-246.461C2926.89,-228.159 3050.43,-188.913 3075,-152 3083.87,-138.681 3084.22,-129.073 3075,-116 3030.67,-53.1715 2987.09,-74.5462 2912,-58 2819.61,-37.6423 2528.42,-18.6536 2432.78,-12.8244"/>
<polygon fill="midnightblue" stroke="midnightblue" points="2432.8,-9.31984 2422.61,-12.2098 2432.38,-16.3071 2432.8,-9.31984"/>
</g>
<!-- Node54&#45;&gt;Node43 -->
<g id="edge148" class="edge"><title>Node54&#45;&gt;Node43</title>
<path fill="none" stroke="midnightblue" d="M2797.38,-246.497C2772,-236.481 2733.81,-221.414 2707.28,-210.946"/>
<polygon fill="midnightblue" stroke="midnightblue" points="2708.32,-207.593 2697.73,-207.179 2705.75,-214.105 2708.32,-207.593"/>
</g>
<!-- Node55 -->
<g id="node130" class="node"><title>Node55</title>
<polygon fill="white" stroke="#bfbfbf" points="3122,-188.5 3122,-209.5 3184,-209.5 3184,-188.5 3122,-188.5"/>
<text text-anchor="middle" x="3153" y="-196.5" font-family="Helvetica,sans-Serif" font-size="10.00">TNamed.h</text>
</g>
<!-- Node54&#45;&gt;Node55 -->
<g id="edge150" class="edge"><title>Node54&#45;&gt;Node55</title>
<path fill="none" stroke="midnightblue" d="M2872.7,-250.088C2929.43,-241.77 3025.87,-226.809 3108,-210 3109.24,-209.746 3110.5,-209.482 3111.77,-209.209"/>
<polygon fill="midnightblue" stroke="midnightblue" points="3112.61,-212.608 3121.6,-206.998 3111.07,-205.778 3112.61,-212.608"/>
</g>
</g>
</svg>
