<?xml version="1.0" encoding="UTF-8" standalone="no"?>
<!DOCTYPE svg PUBLIC "-//W3C//DTD SVG 1.1//EN"
 "http://www.w3.org/Graphics/SVG/1.1/DTD/svg11.dtd">
<!-- Generated by graphviz version 2.26.3 (20100126.1600)
 -->
<!-- Title: progs/Ant&#45;copyTree.cc Pages: 1 -->
<svg width="3410pt" height="218pt"
 viewBox="0.00 0.00 3410.00 218.00" xmlns="http://www.w3.org/2000/svg" xmlns:xlink="http://www.w3.org/1999/xlink">
<g id="graph1" class="graph" transform="scale(1 1) rotate(0) translate(4 214)">
<title>progs/Ant&#45;copyTree.cc</title>
<polygon fill="white" stroke="white" points="-4,5 -4,-214 3407,-214 3407,5 -4,5"/>
<!-- Node1 -->
<g id="node1" class="node"><title>Node1</title>
<polygon fill="#bfbfbf" stroke="black" points="2275,-188.5 2275,-209.5 2391,-209.5 2391,-188.5 2275,-188.5"/>
<text text-anchor="middle" x="2333" y="-196.5" font-family="Helvetica,sans-Serif" font-size="10.00">progs/Ant&#45;copyTree.cc</text>
</g>
<!-- Node2 -->
<g id="node3" class="node"><title>Node2</title>
<a xlink:href="_logger_8h.html" target="_top" xlink:title="base/Logger.h">
<polygon fill="white" stroke="black" points="643,-130.5 643,-151.5 721,-151.5 721,-130.5 643,-130.5"/>
<text text-anchor="middle" x="682" y="-138.5" font-family="Helvetica,sans-Serif" font-size="10.00">base/Logger.h</text>
</a>
</g>
<!-- Node1&#45;&gt;Node2 -->
<g id="edge2" class="edge"><title>Node1&#45;&gt;Node2</title>
<path fill="none" stroke="midnightblue" d="M2274.72,-196.953C2015.76,-187.855 971.488,-151.17 731.388,-142.735"/>
<polygon fill="midnightblue" stroke="midnightblue" points="731.335,-139.231 721.218,-142.378 731.089,-146.227 731.335,-139.231"/>
</g>
<!-- Node4 -->
<g id="node7" class="node"><title>Node4</title>
<a xlink:href="_cmd_line_8h.html" target="_top" xlink:title="base/CmdLine.h">
<polygon fill="white" stroke="black" points="1432,-130.5 1432,-151.5 1520,-151.5 1520,-130.5 1432,-130.5"/>
<text text-anchor="middle" x="1476" y="-138.5" font-family="Helvetica,sans-Serif" font-size="10.00">base/CmdLine.h</text>
</a>
</g>
<!-- Node1&#45;&gt;Node4 -->
<g id="edge6" class="edge"><title>Node1&#45;&gt;Node4</title>
<path fill="none" stroke="midnightblue" d="M2274.77,-195.059C2117.15,-184.392 1683.75,-155.06 1530.54,-144.691"/>
<polygon fill="midnightblue" stroke="midnightblue" points="1530.64,-141.19 1520.43,-144.007 1530.17,-148.174 1530.64,-141.19"/>
</g>
<!-- Node21 -->
<g id="node41" class="node"><title>Node21</title>
<polygon fill="white" stroke="#bfbfbf" points="2306,-65.5 2306,-86.5 2360,-86.5 2360,-65.5 2306,-65.5"/>
<text text-anchor="middle" x="2333" y="-73.5" font-family="Helvetica,sans-Serif" font-size="10.00">iostream</text>
</g>
<!-- Node1&#45;&gt;Node21 -->
<g id="edge98" class="edge"><title>Node1&#45;&gt;Node21</title>
<path fill="none" stroke="midnightblue" d="M2333,-188.085C2333,-167.609 2333,-123.133 2333,-96.778"/>
<polygon fill="midnightblue" stroke="midnightblue" points="2336.5,-96.7153 2333,-86.7153 2329.5,-96.7154 2336.5,-96.7153"/>
</g>
<!-- Node26 -->
<g id="node51" class="node"><title>Node26</title>
<a xlink:href="_wrap_t_file_8h.html" target="_top" xlink:title="base/WrapTFile.h">
<polygon fill="white" stroke="black" points="2740,-130.5 2740,-151.5 2834,-151.5 2834,-130.5 2740,-130.5"/>
<text text-anchor="middle" x="2787" y="-138.5" font-family="Helvetica,sans-Serif" font-size="10.00">base/WrapTFile.h</text>
</a>
</g>
<!-- Node1&#45;&gt;Node26 -->
<g id="edge50" class="edge"><title>Node1&#45;&gt;Node26</title>
<path fill="none" stroke="midnightblue" d="M2391.42,-191.536C2478.96,-180.353 2643.13,-159.38 2729.89,-148.296"/>
<polygon fill="midnightblue" stroke="midnightblue" points="2730.35,-151.766 2739.83,-147.027 2729.46,-144.822 2730.35,-151.766"/>
</g>
<!-- Node41 -->
<g id="node89" class="node"><title>Node41</title>
<polygon fill="white" stroke="#bfbfbf" points="2852,-130.5 2852,-151.5 2902,-151.5 2902,-130.5 2852,-130.5"/>
<text text-anchor="middle" x="2877" y="-138.5" font-family="Helvetica,sans-Serif" font-size="10.00">TTree.h</text>
</g>
<!-- Node1&#45;&gt;Node41 -->
<g id="edge96" class="edge"><title>Node1&#45;&gt;Node41</title>
<path fill="none" stroke="midnightblue" d="M2391.36,-197.802C2484.89,-194.97 2674.07,-185.492 2841.91,-151.839"/>
<polygon fill="midnightblue" stroke="midnightblue" points="2842.82,-155.227 2851.91,-149.799 2841.42,-148.368 2842.82,-155.227"/>
</g>
<!-- Node3 -->
<g id="node5" class="node"><title>Node3</title>
<polygon fill="white" stroke="#bfbfbf" points="-0.5,-65.5 -0.5,-86.5 114.5,-86.5 114.5,-65.5 -0.5,-65.5"/>
<text text-anchor="middle" x="57" y="-73.5" font-family="Helvetica,sans-Serif" font-size="10.00">detail/easylogging++.h</text>
</g>
<!-- Node2&#45;&gt;Node3 -->
<g id="edge4" class="edge"><title>Node2&#45;&gt;Node3</title>
<path fill="none" stroke="midnightblue" d="M642.715,-140.155C551.019,-137.648 316.004,-128.138 123,-94 115.764,-92.72 108.17,-91.0073 100.814,-89.1457"/>
<polygon fill="midnightblue" stroke="midnightblue" points="101.549,-85.7199 90.9863,-86.5416 99.7561,-92.4863 101.549,-85.7199"/>
</g>
<!-- Node5 -->
<g id="node9" class="node"><title>Node5</title>
<polygon fill="white" stroke="#bfbfbf" points="132,-65.5 132,-86.5 222,-86.5 222,-65.5 132,-65.5"/>
<text text-anchor="middle" x="177" y="-73.5" font-family="Helvetica,sans-Serif" font-size="10.00">detail/CmdLine.h</text>
</g>
<!-- Node4&#45;&gt;Node5 -->
<g id="edge8" class="edge"><title>Node4&#45;&gt;Node5</title>
<path fill="none" stroke="midnightblue" d="M1431.96,-140.078C1224.63,-135.64 350.908,-115.788 231,-94 225.145,-92.9361 219.057,-91.3768 213.168,-89.6139"/>
<polygon fill="midnightblue" stroke="midnightblue" points="214.117,-86.2422 203.525,-86.5065 211.97,-92.9049 214.117,-86.2422"/>
</g>
<!-- Node6 -->
<g id="node11" class="node"><title>Node6</title>
<polygon fill="white" stroke="#bfbfbf" points="239.5,-59 239.5,-93 360.5,-93 360.5,-59 239.5,-59"/>
<text text-anchor="start" x="247.5" y="-80" font-family="Helvetica,sans-Serif" font-size="10.00">base/detail/tclap/Switch</text>
<text text-anchor="middle" x="300" y="-67" font-family="Helvetica,sans-Serif" font-size="10.00">Arg.h</text>
</g>
<!-- Node4&#45;&gt;Node6 -->
<g id="edge10" class="edge"><title>Node4&#45;&gt;Node6</title>
<path fill="none" stroke="midnightblue" d="M1431.89,-140.273C1253.32,-137.151 583.63,-123.673 374,-94 372.92,-93.8471 371.833,-93.6854 370.74,-93.5156"/>
<polygon fill="midnightblue" stroke="midnightblue" points="371.245,-90.051 360.794,-91.7877 370.047,-96.9477 371.245,-90.051"/>
</g>
<!-- Node7 -->
<g id="node13" class="node"><title>Node7</title>
<polygon fill="white" stroke="#bfbfbf" points="416,-59 416,-93 558,-93 558,-59 416,-59"/>
<text text-anchor="start" x="424" y="-80" font-family="Helvetica,sans-Serif" font-size="10.00">base/detail/tclap/MultiSwitch</text>
<text text-anchor="middle" x="487" y="-67" font-family="Helvetica,sans-Serif" font-size="10.00">Arg.h</text>
</g>
<!-- Node4&#45;&gt;Node7 -->
<g id="edge12" class="edge"><title>Node4&#45;&gt;Node7</title>
<path fill="none" stroke="midnightblue" d="M1431.79,-139.709C1276.6,-135.025 756.419,-118 568.453,-94.0299"/>
<polygon fill="midnightblue" stroke="midnightblue" points="568.793,-90.5445 558.42,-92.6999 567.873,-97.4838 568.793,-90.5445"/>
</g>
<!-- Node8 -->
<g id="node15" class="node"><title>Node8</title>
<polygon fill="white" stroke="#bfbfbf" points="576,-59 576,-93 710,-93 710,-59 576,-59"/>
<text text-anchor="start" x="584" y="-80" font-family="Helvetica,sans-Serif" font-size="10.00">base/detail/tclap/Unlabeled</text>
<text text-anchor="middle" x="643" y="-67" font-family="Helvetica,sans-Serif" font-size="10.00">ValueArg.h</text>
</g>
<!-- Node4&#45;&gt;Node8 -->
<g id="edge14" class="edge"><title>Node4&#45;&gt;Node8</title>
<path fill="none" stroke="midnightblue" d="M1431.83,-139.25C1294.69,-133.662 876.541,-115.434 719.947,-93.9467"/>
<polygon fill="midnightblue" stroke="midnightblue" points="720.411,-90.4776 710.016,-92.5268 719.42,-97.4071 720.411,-90.4776"/>
</g>
<!-- Node9 -->
<g id="node17" class="node"><title>Node9</title>
<polygon fill="white" stroke="#bfbfbf" points="862,-59 862,-93 996,-93 996,-59 862,-59"/>
<text text-anchor="start" x="870" y="-80" font-family="Helvetica,sans-Serif" font-size="10.00">base/detail/tclap/Unlabeled</text>
<text text-anchor="middle" x="929" y="-67" font-family="Helvetica,sans-Serif" font-size="10.00">MultiArg.h</text>
</g>
<!-- Node4&#45;&gt;Node9 -->
<g id="edge16" class="edge"><title>Node4&#45;&gt;Node9</title>
<path fill="none" stroke="midnightblue" d="M1431.91,-138.565C1349.95,-133.612 1168.46,-120.653 1006.2,-94.0758"/>
<polygon fill="midnightblue" stroke="midnightblue" points="1006.48,-90.5733 996.038,-92.3885 1005.33,-97.4788 1006.48,-90.5733"/>
</g>
<!-- Node10 -->
<g id="node19" class="node"><title>Node10</title>
<polygon fill="white" stroke="#bfbfbf" points="1014,-65.5 1014,-86.5 1162,-86.5 1162,-65.5 1014,-65.5"/>
<text text-anchor="middle" x="1088" y="-73.5" font-family="Helvetica,sans-Serif" font-size="10.00">base/detail/tclap/XorHandler.h</text>
</g>
<!-- Node4&#45;&gt;Node10 -->
<g id="edge18" class="edge"><title>Node4&#45;&gt;Node10</title>
<path fill="none" stroke="midnightblue" d="M1431.92,-135.063C1372.49,-126.863 1263.45,-111.132 1171,-94 1162.36,-92.3994 1153.25,-90.5689 1144.35,-88.7022"/>
<polygon fill="midnightblue" stroke="midnightblue" points="1144.94,-85.2495 1134.43,-86.5896 1143.48,-92.0959 1144.94,-85.2495"/>
</g>
<!-- Node11 -->
<g id="node21" class="node"><title>Node11</title>
<polygon fill="white" stroke="#bfbfbf" points="1179.5,-65.5 1179.5,-86.5 1326.5,-86.5 1326.5,-65.5 1179.5,-65.5"/>
<text text-anchor="middle" x="1253" y="-73.5" font-family="Helvetica,sans-Serif" font-size="10.00">base/detail/tclap/HelpVisitor.h</text>
</g>
<!-- Node4&#45;&gt;Node11 -->
<g id="edge20" class="edge"><title>Node4&#45;&gt;Node11</title>
<path fill="none" stroke="midnightblue" d="M1439.67,-130.412C1401.28,-119.222 1340.64,-101.545 1298.95,-89.3933"/>
<polygon fill="midnightblue" stroke="midnightblue" points="1299.89,-86.0218 1289.31,-86.5835 1297.93,-92.7421 1299.89,-86.0218"/>
</g>
<!-- Node12 -->
<g id="node23" class="node"><title>Node12</title>
<polygon fill="white" stroke="#bfbfbf" points="1344,-59 1344,-93 1468,-93 1468,-59 1344,-59"/>
<text text-anchor="start" x="1352" y="-80" font-family="Helvetica,sans-Serif" font-size="10.00">base/detail/tclap/Version</text>
<text text-anchor="middle" x="1406" y="-67" font-family="Helvetica,sans-Serif" font-size="10.00">Visitor.h</text>
</g>
<!-- Node4&#45;&gt;Node12 -->
<g id="edge22" class="edge"><title>Node4&#45;&gt;Node12</title>
<path fill="none" stroke="midnightblue" d="M1464.44,-130.267C1455.61,-122.063 1443.08,-110.436 1431.9,-100.047"/>
<polygon fill="midnightblue" stroke="midnightblue" points="1434.14,-97.3496 1424.43,-93.1099 1429.37,-102.479 1434.14,-97.3496"/>
</g>
<!-- Node13 -->
<g id="node25" class="node"><title>Node13</title>
<polygon fill="white" stroke="#bfbfbf" points="1486,-59 1486,-93 1604,-93 1604,-59 1486,-59"/>
<text text-anchor="start" x="1494" y="-80" font-family="Helvetica,sans-Serif" font-size="10.00">base/detail/tclap/Ignore</text>
<text text-anchor="middle" x="1545" y="-67" font-family="Helvetica,sans-Serif" font-size="10.00">RestVisitor.h</text>
</g>
<!-- Node4&#45;&gt;Node13 -->
<g id="edge24" class="edge"><title>Node4&#45;&gt;Node13</title>
<path fill="none" stroke="midnightblue" d="M1487.39,-130.267C1496.1,-122.063 1508.44,-110.436 1519.47,-100.047"/>
<polygon fill="midnightblue" stroke="midnightblue" points="1521.96,-102.514 1526.84,-93.1099 1517.16,-97.4192 1521.96,-102.514"/>
</g>
<!-- Node14 -->
<g id="node27" class="node"><title>Node14</title>
<polygon fill="white" stroke="#bfbfbf" points="1622,-59 1622,-93 1752,-93 1752,-59 1622,-59"/>
<text text-anchor="start" x="1630" y="-80" font-family="Helvetica,sans-Serif" font-size="10.00">base/detail/tclap/CmdLine</text>
<text text-anchor="middle" x="1687" y="-67" font-family="Helvetica,sans-Serif" font-size="10.00">Output.h</text>
</g>
<!-- Node4&#45;&gt;Node14 -->
<g id="edge26" class="edge"><title>Node4&#45;&gt;Node14</title>
<path fill="none" stroke="midnightblue" d="M1510.37,-130.412C1540.49,-121.133 1585.1,-107.392 1621.94,-96.0413"/>
<polygon fill="midnightblue" stroke="midnightblue" points="1623.09,-99.3494 1631.62,-93.0604 1621.03,-92.6596 1623.09,-99.3494"/>
</g>
<!-- Node15 -->
<g id="node29" class="node"><title>Node15</title>
<polygon fill="white" stroke="#bfbfbf" points="1769.5,-65.5 1769.5,-86.5 1912.5,-86.5 1912.5,-65.5 1769.5,-65.5"/>
<text text-anchor="middle" x="1841" y="-73.5" font-family="Helvetica,sans-Serif" font-size="10.00">base/detail/tclap/StdOutput.h</text>
</g>
<!-- Node4&#45;&gt;Node15 -->
<g id="edge28" class="edge"><title>Node4&#45;&gt;Node15</title>
<path fill="none" stroke="midnightblue" d="M1520.08,-134.54C1576.21,-126.129 1676.09,-110.539 1761,-94 1769.24,-92.3958 1777.92,-90.5762 1786.41,-88.7254"/>
<polygon fill="midnightblue" stroke="midnightblue" points="1787.24,-92.1266 1796.25,-86.5494 1785.73,-85.2918 1787.24,-92.1266"/>
</g>
<!-- Node16 -->
<g id="node31" class="node"><title>Node16</title>
<polygon fill="white" stroke="#bfbfbf" points="1930,-65.5 1930,-86.5 2074,-86.5 2074,-65.5 1930,-65.5"/>
<text text-anchor="middle" x="2002" y="-73.5" font-family="Helvetica,sans-Serif" font-size="10.00">base/detail/tclap/Constraint.h</text>
</g>
<!-- Node4&#45;&gt;Node16 -->
<g id="edge30" class="edge"><title>Node4&#45;&gt;Node16</title>
<path fill="none" stroke="midnightblue" d="M1520.12,-138.008C1600.3,-132.199 1775.14,-117.831 1921,-94 1930.08,-92.516 1939.68,-90.6515 1948.96,-88.689"/>
<polygon fill="midnightblue" stroke="midnightblue" points="1949.85,-92.0782 1958.88,-86.5343 1948.36,-85.2378 1949.85,-92.0782"/>
</g>
<!-- Node17 -->
<g id="node33" class="node"><title>Node17</title>
<polygon fill="white" stroke="#bfbfbf" points="2091.5,-59 2091.5,-93 2212.5,-93 2212.5,-59 2091.5,-59"/>
<text text-anchor="start" x="2099.5" y="-80" font-family="Helvetica,sans-Serif" font-size="10.00">base/detail/tclap/Values</text>
<text text-anchor="middle" x="2152" y="-67" font-family="Helvetica,sans-Serif" font-size="10.00">Constraint.h</text>
</g>
<!-- Node4&#45;&gt;Node17 -->
<g id="edge32" class="edge"><title>Node4&#45;&gt;Node17</title>
<path fill="none" stroke="midnightblue" d="M1520.12,-140.267C1619.15,-138.046 1866.62,-129.293 2081.3,-94.1343"/>
<polygon fill="midnightblue" stroke="midnightblue" points="2081.88,-97.5855 2091.17,-92.4944 2080.74,-90.6801 2081.88,-97.5855"/>
</g>
<!-- Node18 -->
<g id="node35" class="node"><title>Node18</title>
<polygon fill="white" stroke="#bfbfbf" points="2483.5,-0.5 2483.5,-21.5 2524.5,-21.5 2524.5,-0.5 2483.5,-0.5"/>
<text text-anchor="middle" x="2504" y="-8.5" font-family="Helvetica,sans-Serif" font-size="10.00">string</text>
</g>
<!-- Node4&#45;&gt;Node18 -->
<g id="edge34" class="edge"><title>Node4&#45;&gt;Node18</title>
<path fill="none" stroke="midnightblue" d="M1520.12,-139.817C1670.31,-135.572 2156.01,-119.959 2221,-94 2244.15,-84.7547 2241.5,-68.7336 2264,-58 2333.86,-24.6679 2425.93,-14.9743 2473.15,-12.1555"/>
<polygon fill="midnightblue" stroke="midnightblue" points="2473.53,-15.64 2483.33,-11.614 2473.16,-8.64985 2473.53,-15.64"/>
</g>
<!-- Node19 -->
<g id="node37" class="node"><title>Node19</title>
<polygon fill="white" stroke="#bfbfbf" points="1394,-0.5 1394,-21.5 1438,-21.5 1438,-0.5 1394,-0.5"/>
<text text-anchor="middle" x="1416" y="-8.5" font-family="Helvetica,sans-Serif" font-size="10.00">vector</text>
</g>
<!-- Node4&#45;&gt;Node19 -->
<g id="edge36" class="edge"><title>Node4&#45;&gt;Node19</title>
<path fill="none" stroke="midnightblue" d="M1431.75,-140.742C1234.44,-139.379 442.964,-131.58 407,-94 395.938,-82.4405 395.953,-69.5739 407,-58 441.507,-21.8479 1214.86,-12.811 1383.65,-11.2664"/>
<polygon fill="midnightblue" stroke="midnightblue" points="1383.92,-14.7643 1393.88,-11.1753 1383.85,-7.7646 1383.92,-14.7643"/>
</g>
<!-- Node20 -->
<g id="node39" class="node"><title>Node20</title>
<polygon fill="white" stroke="#bfbfbf" points="2447.5,-65.5 2447.5,-86.5 2476.5,-86.5 2476.5,-65.5 2447.5,-65.5"/>
<text text-anchor="middle" x="2462" y="-73.5" font-family="Helvetica,sans-Serif" font-size="10.00">list</text>
</g>
<!-- Node4&#45;&gt;Node20 -->
<g id="edge38" class="edge"><title>Node4&#45;&gt;Node20</title>
<path fill="none" stroke="midnightblue" d="M1520.22,-140.414C1697.62,-137.85 2352.33,-126.267 2439,-94 2440.23,-93.5422 2441.45,-92.9931 2442.64,-92.3758"/>
<polygon fill="midnightblue" stroke="midnightblue" points="2444.78,-95.1533 2451.16,-86.6928 2440.9,-89.3297 2444.78,-95.1533"/>
</g>
<!-- Node4&#45;&gt;Node21 -->
<g id="edge40" class="edge"><title>Node4&#45;&gt;Node21</title>
<path fill="none" stroke="midnightblue" d="M1520.16,-140.516C1667.83,-138.578 2143.5,-129.651 2292,-94 2295.69,-93.1131 2299.47,-91.9087 2303.17,-90.5404"/>
<polygon fill="midnightblue" stroke="midnightblue" points="2304.73,-93.6839 2312.64,-86.6412 2302.06,-87.2108 2304.73,-93.6839"/>
</g>
<!-- Node22 -->
<g id="node43" class="node"><title>Node22</title>
<polygon fill="white" stroke="#bfbfbf" points="728,-65.5 728,-86.5 778,-86.5 778,-65.5 728,-65.5"/>
<text text-anchor="middle" x="753" y="-73.5" font-family="Helvetica,sans-Serif" font-size="10.00">iomanip</text>
</g>
<!-- Node4&#45;&gt;Node22 -->
<g id="edge42" class="edge"><title>Node4&#45;&gt;Node22</title>
<path fill="none" stroke="midnightblue" d="M1431.83,-140.382C1299.68,-138.156 908.939,-128.735 787,-94 784.322,-93.2372 781.615,-92.2456 778.959,-91.1198"/>
<polygon fill="midnightblue" stroke="midnightblue" points="780.231,-87.8467 769.707,-86.6242 777.172,-94.1427 780.231,-87.8467"/>
</g>
<!-- Node23 -->
<g id="node45" class="node"><title>Node23</title>
<polygon fill="white" stroke="#bfbfbf" points="2674,-0.5 2674,-21.5 2730,-21.5 2730,-0.5 2674,-0.5"/>
<text text-anchor="middle" x="2702" y="-8.5" font-family="Helvetica,sans-Serif" font-size="10.00">algorithm</text>
</g>
<!-- Node4&#45;&gt;Node23 -->
<g id="edge44" class="edge"><title>Node4&#45;&gt;Node23</title>
<path fill="none" stroke="midnightblue" d="M1520.12,-140.041C1675.12,-136.441 2189.03,-122.456 2257,-94 2279.06,-84.7641 2275.2,-67.8437 2297,-58 2330.03,-43.0825 2569.46,-21.9492 2663.87,-14.0956"/>
<polygon fill="midnightblue" stroke="midnightblue" points="2664.18,-17.582 2673.86,-13.2694 2663.61,-10.6058 2664.18,-17.582"/>
</g>
<!-- Node24 -->
<g id="node47" class="node"><title>Node24</title>
<polygon fill="white" stroke="#bfbfbf" points="796,-65.5 796,-86.5 844,-86.5 844,-65.5 796,-65.5"/>
<text text-anchor="middle" x="820" y="-73.5" font-family="Helvetica,sans-Serif" font-size="10.00">stdlib.h</text>
</g>
<!-- Node4&#45;&gt;Node24 -->
<g id="edge46" class="edge"><title>Node4&#45;&gt;Node24</title>
<path fill="none" stroke="midnightblue" d="M1431.7,-140.077C1308.16,-137.121 961.702,-126.121 853,-94 850.391,-93.229 847.757,-92.2319 845.174,-91.1026"/>
<polygon fill="midnightblue" stroke="midnightblue" points="846.697,-87.9508 836.188,-86.602 843.562,-94.2097 846.697,-87.9508"/>
</g>
<!-- Node25 -->
<g id="node49" class="node"><title>Node25</title>
<polygon fill="white" stroke="#bfbfbf" points="2378,-65.5 2378,-86.5 2430,-86.5 2430,-65.5 2378,-65.5"/>
<text text-anchor="middle" x="2404" y="-73.5" font-family="Helvetica,sans-Serif" font-size="10.00">memory</text>
</g>
<!-- Node4&#45;&gt;Node25 -->
<g id="edge48" class="edge"><title>Node4&#45;&gt;Node25</title>
<path fill="none" stroke="midnightblue" d="M1520.27,-139.761C1689.04,-134.888 2286.75,-116.214 2369,-94 2371.84,-93.2317 2374.72,-92.2114 2377.55,-91.0459"/>
<polygon fill="midnightblue" stroke="midnightblue" points="2379.24,-94.117 2386.78,-86.6787 2376.25,-87.7886 2379.24,-94.117"/>
</g>
<!-- Node26&#45;&gt;Node18 -->
<g id="edge86" class="edge"><title>Node26&#45;&gt;Node18</title>
<path fill="none" stroke="midnightblue" d="M2739.88,-138.725C2672.52,-134.488 2553.47,-123.015 2523,-94 2506.27,-78.0642 2502.88,-50.6423 2502.79,-31.7036"/>
<polygon fill="midnightblue" stroke="midnightblue" points="2506.29,-31.7672 2503.03,-21.684 2499.29,-31.5948 2506.29,-31.7672"/>
</g>
<!-- Node26&#45;&gt;Node20 -->
<g id="edge88" class="edge"><title>Node26&#45;&gt;Node20</title>
<path fill="none" stroke="midnightblue" d="M2739.8,-135.931C2667.95,-127.811 2534.76,-111.059 2490,-94 2488.33,-93.3633 2486.65,-92.6175 2485,-91.7985"/>
<polygon fill="midnightblue" stroke="midnightblue" points="2486.33,-88.5259 2475.92,-86.5535 2482.83,-94.5869 2486.33,-88.5259"/>
</g>
<!-- Node26&#45;&gt;Node25 -->
<g id="edge84" class="edge"><title>Node26&#45;&gt;Node25</title>
<path fill="none" stroke="midnightblue" d="M2739.74,-139.685C2671.76,-136.669 2543.1,-126.732 2439,-94 2436.25,-93.1354 2433.46,-92.0669 2430.71,-90.8853"/>
<polygon fill="midnightblue" stroke="midnightblue" points="2432.2,-87.7176 2421.66,-86.5634 2429.18,-94.0334 2432.2,-87.7176"/>
</g>
<!-- Node27 -->
<g id="node53" class="node"><title>Node27</title>
<a xlink:href="string_8h.html" target="_top" xlink:title="base/std_ext/string.h">
<polygon fill="white" stroke="black" points="2684,-65.5 2684,-86.5 2792,-86.5 2792,-65.5 2684,-65.5"/>
<text text-anchor="middle" x="2738" y="-73.5" font-family="Helvetica,sans-Serif" font-size="10.00">base/std_ext/string.h</text>
</a>
</g>
<!-- Node26&#45;&gt;Node27 -->
<g id="edge52" class="edge"><title>Node26&#45;&gt;Node27</title>
<path fill="none" stroke="midnightblue" d="M2778.91,-130.267C2771.63,-120.612 2760.78,-106.215 2752.08,-94.675"/>
<polygon fill="midnightblue" stroke="midnightblue" points="2754.76,-92.4121 2745.94,-86.5337 2749.17,-96.6258 2754.76,-92.4121"/>
</g>
<!-- Node29 -->
<g id="node60" class="node"><title>Node29</title>
<a xlink:href="misc_8h.html" target="_top" xlink:title="base/std_ext/misc.h">
<polygon fill="white" stroke="black" points="3263.5,-65.5 3263.5,-86.5 3368.5,-86.5 3368.5,-65.5 3263.5,-65.5"/>
<text text-anchor="middle" x="3316" y="-73.5" font-family="Helvetica,sans-Serif" font-size="10.00">base/std_ext/misc.h</text>
</a>
</g>
<!-- Node26&#45;&gt;Node29 -->
<g id="edge62" class="edge"><title>Node26&#45;&gt;Node29</title>
<path fill="none" stroke="midnightblue" d="M2834.3,-131.345C2837.24,-130.858 2840.16,-130.404 2843,-130 3022.79,-104.464 3071.25,-126.017 3250,-94 3257.23,-92.7043 3264.83,-90.9835 3272.18,-89.1186"/>
<polygon fill="midnightblue" stroke="midnightblue" points="3273.24,-92.459 3282.01,-86.5128 3271.45,-85.6929 3273.24,-92.459"/>
</g>
<!-- Node30 -->
<g id="node63" class="node"><title>Node30</title>
<polygon fill="white" stroke="#bfbfbf" points="3208.5,-0.5 3208.5,-21.5 3267.5,-21.5 3267.5,-0.5 3208.5,-0.5"/>
<text text-anchor="middle" x="3238" y="-8.5" font-family="Helvetica,sans-Serif" font-size="10.00">functional</text>
</g>
<!-- Node26&#45;&gt;Node30 -->
<g id="edge94" class="edge"><title>Node26&#45;&gt;Node30</title>
<path fill="none" stroke="midnightblue" d="M2834.3,-131.371C2837.24,-130.877 2840.16,-130.415 2843,-130 2925.62,-117.939 3153.65,-148.392 3217,-94 3234.72,-78.7829 3238.6,-50.9695 3238.95,-31.7601"/>
<polygon fill="midnightblue" stroke="midnightblue" points="3242.45,-31.5615 3238.83,-21.6043 3235.45,-31.6457 3242.45,-31.5615"/>
</g>
<!-- Node33 -->
<g id="node69" class="node"><title>Node33</title>
<polygon fill="white" stroke="#bfbfbf" points="2531.5,-65.5 2531.5,-86.5 2578.5,-86.5 2578.5,-65.5 2531.5,-65.5"/>
<text text-anchor="middle" x="2555" y="-73.5" font-family="Helvetica,sans-Serif" font-size="10.00">TFile.h</text>
</g>
<!-- Node26&#45;&gt;Node33 -->
<g id="edge72" class="edge"><title>Node26&#45;&gt;Node33</title>
<path fill="none" stroke="midnightblue" d="M2739.81,-133.779C2698.55,-126.564 2637.52,-113.686 2587,-94 2584.93,-93.1914 2582.82,-92.2682 2580.73,-91.2768"/>
<polygon fill="midnightblue" stroke="midnightblue" points="2582.32,-88.1575 2571.84,-86.6374 2579.08,-94.3644 2582.32,-88.1575"/>
</g>
<!-- Node34 -->
<g id="node71" class="node"><title>Node34</title>
<polygon fill="white" stroke="#bfbfbf" points="2595.5,-65.5 2595.5,-86.5 2666.5,-86.5 2666.5,-65.5 2595.5,-65.5"/>
<text text-anchor="middle" x="2631" y="-73.5" font-family="Helvetica,sans-Serif" font-size="10.00">TDirectory.h</text>
</g>
<!-- Node26&#45;&gt;Node34 -->
<g id="edge74" class="edge"><title>Node26&#45;&gt;Node34</title>
<path fill="none" stroke="midnightblue" d="M2761.59,-130.412C2735.53,-119.552 2694.8,-102.583 2665.76,-90.4842"/>
<polygon fill="midnightblue" stroke="midnightblue" points="2666.98,-87.1989 2656.4,-86.5835 2664.29,-93.6605 2666.98,-87.1989"/>
</g>
<!-- Node35 -->
<g id="node73" class="node"><title>Node35</title>
<polygon fill="white" stroke="#bfbfbf" points="2810,-65.5 2810,-86.5 2862,-86.5 2862,-65.5 2810,-65.5"/>
<text text-anchor="middle" x="2836" y="-73.5" font-family="Helvetica,sans-Serif" font-size="10.00">TError.h</text>
</g>
<!-- Node26&#45;&gt;Node35 -->
<g id="edge76" class="edge"><title>Node26&#45;&gt;Node35</title>
<path fill="none" stroke="midnightblue" d="M2795.09,-130.267C2802.37,-120.612 2813.22,-106.215 2821.92,-94.675"/>
<polygon fill="midnightblue" stroke="midnightblue" points="2824.83,-96.6258 2828.06,-86.5337 2819.24,-92.4121 2824.83,-96.6258"/>
</g>
<!-- Node36 -->
<g id="node75" class="node"><title>Node36</title>
<polygon fill="white" stroke="#bfbfbf" points="2879.5,-65.5 2879.5,-86.5 2926.5,-86.5 2926.5,-65.5 2879.5,-65.5"/>
<text text-anchor="middle" x="2903" y="-73.5" font-family="Helvetica,sans-Serif" font-size="10.00">TList.h</text>
</g>
<!-- Node26&#45;&gt;Node36 -->
<g id="edge78" class="edge"><title>Node26&#45;&gt;Node36</title>
<path fill="none" stroke="midnightblue" d="M2806.02,-130.372C2823.05,-120.854 2848.7,-106.51 2871,-94 2872.32,-93.2593 2873.67,-92.5011 2875.04,-91.7351"/>
<polygon fill="midnightblue" stroke="midnightblue" points="2877.05,-94.6178 2884.05,-86.6673 2873.62,-88.5155 2877.05,-94.6178"/>
</g>
<!-- Node37 -->
<g id="node77" class="node"><title>Node37</title>
<polygon fill="white" stroke="#bfbfbf" points="2944,-65.5 2944,-86.5 3018,-86.5 3018,-65.5 2944,-65.5"/>
<text text-anchor="middle" x="2981" y="-73.5" font-family="Helvetica,sans-Serif" font-size="10.00">TCollection.h</text>
</g>
<!-- Node26&#45;&gt;Node37 -->
<g id="edge80" class="edge"><title>Node26&#45;&gt;Node37</title>
<path fill="none" stroke="midnightblue" d="M2822.5,-130.44C2852.62,-121.312 2896.88,-107.495 2935,-94 2938.33,-92.8195 2941.79,-91.5521 2945.24,-90.2564"/>
<polygon fill="midnightblue" stroke="midnightblue" points="2946.75,-93.4242 2954.84,-86.5788 2944.25,-86.8873 2946.75,-93.4242"/>
</g>
<!-- Node38 -->
<g id="node79" class="node"><title>Node38</title>
<polygon fill="white" stroke="#bfbfbf" points="3036,-65.5 3036,-86.5 3084,-86.5 3084,-65.5 3036,-65.5"/>
<text text-anchor="middle" x="3060" y="-73.5" font-family="Helvetica,sans-Serif" font-size="10.00">TKey.h</text>
</g>
<!-- Node26&#45;&gt;Node38 -->
<g id="edge82" class="edge"><title>Node26&#45;&gt;Node38</title>
<path fill="none" stroke="midnightblue" d="M2834.05,-131.755C2837.08,-131.161 2840.08,-130.572 2843,-130 2924.77,-113.969 2948.62,-122.282 3027,-94 3029.28,-93.1777 3031.59,-92.2154 3033.88,-91.1709"/>
<polygon fill="midnightblue" stroke="midnightblue" points="3035.65,-94.1972 3043,-86.5631 3032.49,-87.9495 3035.65,-94.1972"/>
</g>
<!-- Node39 -->
<g id="node84" class="node"><title>Node39</title>
<polygon fill="white" stroke="#bfbfbf" points="3102,-65.5 3102,-86.5 3132,-86.5 3132,-65.5 3102,-65.5"/>
<text text-anchor="middle" x="3117" y="-73.5" font-family="Helvetica,sans-Serif" font-size="10.00">set</text>
</g>
<!-- Node26&#45;&gt;Node39 -->
<g id="edge90" class="edge"><title>Node26&#45;&gt;Node39</title>
<path fill="none" stroke="midnightblue" d="M2834.02,-131.583C2837.06,-131.031 2840.07,-130.498 2843,-130 2953.67,-111.175 2989.31,-137.017 3093,-94 3094.19,-93.506 3095.38,-92.9393 3096.54,-92.3186"/>
<polygon fill="midnightblue" stroke="midnightblue" points="3098.55,-95.1925 3105.03,-86.8122 3094.73,-89.3209 3098.55,-95.1925"/>
</g>
<!-- Node40 -->
<g id="node86" class="node"><title>Node40</title>
<polygon fill="white" stroke="#bfbfbf" points="3149.5,-65.5 3149.5,-86.5 3208.5,-86.5 3208.5,-65.5 3149.5,-65.5"/>
<text text-anchor="middle" x="3179" y="-73.5" font-family="Helvetica,sans-Serif" font-size="10.00">stdexcept</text>
</g>
<!-- Node26&#45;&gt;Node40 -->
<g id="edge92" class="edge"><title>Node26&#45;&gt;Node40</title>
<path fill="none" stroke="midnightblue" d="M2834.01,-131.505C2837.05,-130.972 2840.06,-130.465 2843,-130 2974.76,-109.129 3012.84,-131.034 3141,-94 3144.16,-93.0881 3147.38,-91.9406 3150.54,-90.6685"/>
<polygon fill="midnightblue" stroke="midnightblue" points="3152.02,-93.8399 3159.75,-86.5895 3149.19,-87.4397 3152.02,-93.8399"/>
</g>
<!-- Node27&#45;&gt;Node18 -->
<g id="edge54" class="edge"><title>Node27&#45;&gt;Node18</title>
<path fill="none" stroke="midnightblue" d="M2701.37,-65.4677C2692.73,-63.0009 2683.54,-60.3945 2675,-58 2625.83,-44.2199 2568.6,-28.5691 2534.39,-19.2546"/>
<polygon fill="midnightblue" stroke="midnightblue" points="2535.12,-15.8245 2524.55,-16.5764 2533.28,-22.5789 2535.12,-15.8245"/>
</g>
<!-- Node27&#45;&gt;Node19 -->
<g id="edge60" class="edge"><title>Node27&#45;&gt;Node19</title>
<path fill="none" stroke="midnightblue" d="M2706.61,-65.4226C2696.62,-62.4926 2685.45,-59.6625 2675,-58 2428.37,-18.7533 1619.98,-12.1265 1448.25,-11.1529"/>
<polygon fill="midnightblue" stroke="midnightblue" points="1448.11,-7.65217 1438.09,-11.0978 1448.07,-14.6521 1448.11,-7.65217"/>
</g>
<!-- Node27&#45;&gt;Node23 -->
<g id="edge58" class="edge"><title>Node27&#45;&gt;Node23</title>
<path fill="none" stroke="midnightblue" d="M2732.06,-65.2666C2726.81,-55.8013 2719.05,-41.7773 2712.72,-30.3571"/>
<polygon fill="midnightblue" stroke="midnightblue" points="2715.74,-28.5859 2707.83,-21.5337 2709.62,-31.9774 2715.74,-28.5859"/>
</g>
<!-- Node28 -->
<g id="node56" class="node"><title>Node28</title>
<polygon fill="white" stroke="#bfbfbf" points="2748,-0.5 2748,-21.5 2800,-21.5 2800,-0.5 2748,-0.5"/>
<text text-anchor="middle" x="2774" y="-8.5" font-family="Helvetica,sans-Serif" font-size="10.00">sstream</text>
</g>
<!-- Node27&#45;&gt;Node28 -->
<g id="edge56" class="edge"><title>Node27&#45;&gt;Node28</title>
<path fill="none" stroke="midnightblue" d="M2743.94,-65.2666C2749.19,-55.8013 2756.95,-41.7773 2763.28,-30.3571"/>
<polygon fill="midnightblue" stroke="midnightblue" points="2766.38,-31.9774 2768.17,-21.5337 2760.26,-28.5859 2766.38,-31.9774"/>
</g>
<!-- Node29&#45;&gt;Node23 -->
<g id="edge64" class="edge"><title>Node29&#45;&gt;Node23</title>
<path fill="none" stroke="midnightblue" d="M3264.01,-65.4912C3248.9,-62.724 3232.33,-59.966 3217,-58 3008.99,-31.3308 2950.35,-59.6628 2740.25,-21.8877"/>
<polygon fill="midnightblue" stroke="midnightblue" points="2740.6,-18.393 2730.13,-20.0384 2739.34,-25.279 2740.6,-18.393"/>
</g>
<!-- Node29&#45;&gt;Node30 -->
<g id="edge66" class="edge"><title>Node29&#45;&gt;Node30</title>
<path fill="none" stroke="midnightblue" d="M3303.12,-65.2666C3290.97,-55.1387 3272.55,-39.7916 3258.4,-27.9995"/>
<polygon fill="midnightblue" stroke="midnightblue" points="3260.56,-25.2468 3250.64,-21.5337 3256.08,-30.6244 3260.56,-25.2468"/>
</g>
<!-- Node31 -->
<g id="node65" class="node"><title>Node31</title>
<polygon fill="white" stroke="#bfbfbf" points="3358,-0.5 3358,-21.5 3402,-21.5 3402,-0.5 3358,-0.5"/>
<text text-anchor="middle" x="3380" y="-8.5" font-family="Helvetica,sans-Serif" font-size="10.00">cmath</text>
</g>
<!-- Node29&#45;&gt;Node31 -->
<g id="edge68" class="edge"><title>Node29&#45;&gt;Node31</title>
<path fill="none" stroke="midnightblue" d="M3326.57,-65.2666C3336.35,-55.328 3351.09,-40.3635 3362.61,-28.6645"/>
<polygon fill="midnightblue" stroke="midnightblue" points="3365.11,-31.115 3369.63,-21.5337 3360.12,-26.2038 3365.11,-31.115"/>
</g>
<!-- Node32 -->
<g id="node67" class="node"><title>Node32</title>
<polygon fill="white" stroke="#bfbfbf" points="3287.5,-0.5 3287.5,-21.5 3340.5,-21.5 3340.5,-0.5 3287.5,-0.5"/>
<text text-anchor="middle" x="3314" y="-8.5" font-family="Helvetica,sans-Serif" font-size="10.00">cxxabi.h</text>
</g>
<!-- Node29&#45;&gt;Node32 -->
<g id="edge70" class="edge"><title>Node29&#45;&gt;Node32</title>
<path fill="none" stroke="midnightblue" d="M3315.67,-65.2666C3315.39,-56.1799 3314.98,-42.8919 3314.64,-31.7395"/>
<polygon fill="midnightblue" stroke="midnightblue" points="3318.13,-31.4213 3314.32,-21.5337 3311.13,-31.6366 3318.13,-31.4213"/>
</g>
</g>
</svg>
