<?xml version="1.0" encoding="UTF-8" standalone="no"?>
<!DOCTYPE svg PUBLIC "-//W3C//DTD SVG 1.1//EN"
 "http://www.w3.org/Graphics/SVG/1.1/DTD/svg11.dtd">
<!-- Generated by graphviz version 2.26.3 (20100126.1600)
 -->
<!-- Title: src/base/Array2D.cc Pages: 1 -->
<svg width="543pt" height="262pt"
 viewBox="0.00 0.00 543.00 262.00" xmlns="http://www.w3.org/2000/svg" xmlns:xlink="http://www.w3.org/1999/xlink">
<g id="graph1" class="graph" transform="scale(1 1) rotate(0) translate(4 258)">
<title>src/base/Array2D.cc</title>
<polygon fill="white" stroke="white" points="-4,5 -4,-258 540,-258 540,5 -4,5"/>
<!-- Node1 -->
<g id="node1" class="node"><title>Node1</title>
<polygon fill="#bfbfbf" stroke="black" points="285.5,-232.5 285.5,-253.5 392.5,-253.5 392.5,-232.5 285.5,-232.5"/>
<text text-anchor="middle" x="339" y="-240.5" font-family="Helvetica,sans-Serif" font-size="10.00">src/base/Array2D.cc</text>
</g>
<!-- Node2 -->
<g id="node3" class="node"><title>Node2</title>
<a xlink:href="_array2_d_8h.html" target="_top" xlink:title="Array2D.h">
<polygon fill="white" stroke="black" points="206.5,-174.5 206.5,-195.5 267.5,-195.5 267.5,-174.5 206.5,-174.5"/>
<text text-anchor="middle" x="237" y="-182.5" font-family="Helvetica,sans-Serif" font-size="10.00">Array2D.h</text>
</a>
</g>
<!-- Node1&#45;&gt;Node2 -->
<g id="edge2" class="edge"><title>Node1&#45;&gt;Node2</title>
<path fill="none" stroke="midnightblue" d="M320.292,-232.362C304.619,-223.45 282.036,-210.609 264.337,-200.545"/>
<polygon fill="midnightblue" stroke="midnightblue" points="266.013,-197.471 255.59,-195.571 262.553,-203.556 266.013,-197.471"/>
</g>
<!-- Node4 -->
<g id="node7" class="node"><title>Node4</title>
<a xlink:href="interval_8h.html" target="_top" xlink:title="base/interval.h">
<polygon fill="white" stroke="black" points="121,-116.5 121,-137.5 201,-137.5 201,-116.5 121,-116.5"/>
<text text-anchor="middle" x="161" y="-124.5" font-family="Helvetica,sans-Serif" font-size="10.00">base/interval.h</text>
</a>
</g>
<!-- Node1&#45;&gt;Node4 -->
<g id="edge36" class="edge"><title>Node1&#45;&gt;Node4</title>
<path fill="none" stroke="midnightblue" d="M285.399,-235C256.861,-228.476 222.666,-216.783 198,-196 182.882,-183.262 173,-162.727 167.283,-147.366"/>
<polygon fill="midnightblue" stroke="midnightblue" points="170.53,-146.043 163.978,-137.717 163.908,-148.312 170.53,-146.043"/>
</g>
<!-- Node10 -->
<g id="node19" class="node"><title>Node10</title>
<polygon fill="white" stroke="#bfbfbf" points="385.5,-58.5 385.5,-79.5 444.5,-79.5 444.5,-58.5 385.5,-58.5"/>
<text text-anchor="middle" x="415" y="-66.5" font-family="Helvetica,sans-Serif" font-size="10.00">stdexcept</text>
</g>
<!-- Node1&#45;&gt;Node10 -->
<g id="edge24" class="edge"><title>Node1&#45;&gt;Node10</title>
<path fill="none" stroke="midnightblue" d="M356.715,-232.375C370.185,-223.719 388.619,-210.576 402,-196 422.517,-173.65 429.681,-167.177 438,-138 442.838,-121.03 435.54,-102.025 427.914,-88.2647"/>
<polygon fill="midnightblue" stroke="midnightblue" points="430.889,-86.4206 422.727,-79.6654 424.895,-90.0361 430.889,-86.4206"/>
</g>
<!-- Node13 -->
<g id="node26" class="node"><title>Node13</title>
<a xlink:href="string_8h.html" target="_top" xlink:title="base/std_ext/string.h">
<polygon fill="white" stroke="black" points="285,-174.5 285,-195.5 393,-195.5 393,-174.5 285,-174.5"/>
<text text-anchor="middle" x="339" y="-182.5" font-family="Helvetica,sans-Serif" font-size="10.00">base/std_ext/string.h</text>
</a>
</g>
<!-- Node1&#45;&gt;Node13 -->
<g id="edge26" class="edge"><title>Node1&#45;&gt;Node13</title>
<path fill="none" stroke="midnightblue" d="M339,-232.362C339,-224.922 339,-214.743 339,-205.728"/>
<polygon fill="midnightblue" stroke="midnightblue" points="342.5,-205.571 339,-195.571 335.5,-205.571 342.5,-205.571"/>
</g>
<!-- Node16 -->
<g id="node35" class="node"><title>Node16</title>
<polygon fill="white" stroke="#bfbfbf" points="484.5,-174.5 484.5,-195.5 535.5,-195.5 535.5,-174.5 484.5,-174.5"/>
<text text-anchor="middle" x="510" y="-182.5" font-family="Helvetica,sans-Serif" font-size="10.00">TH2D.h</text>
</g>
<!-- Node1&#45;&gt;Node16 -->
<g id="edge38" class="edge"><title>Node1&#45;&gt;Node16</title>
<path fill="none" stroke="midnightblue" d="M369.967,-232.497C399.495,-222.481 443.915,-207.415 474.779,-196.946"/>
<polygon fill="midnightblue" stroke="midnightblue" points="475.941,-200.248 484.287,-193.721 473.692,-193.619 475.941,-200.248"/>
</g>
<!-- Node3 -->
<g id="node5" class="node"><title>Node3</title>
<polygon fill="white" stroke="#bfbfbf" points="219,-116.5 219,-137.5 263,-137.5 263,-116.5 219,-116.5"/>
<text text-anchor="middle" x="241" y="-124.5" font-family="Helvetica,sans-Serif" font-size="10.00">vector</text>
</g>
<!-- Node2&#45;&gt;Node3 -->
<g id="edge4" class="edge"><title>Node2&#45;&gt;Node3</title>
<path fill="none" stroke="midnightblue" d="M237.734,-174.362C238.247,-166.922 238.949,-156.743 239.571,-147.728"/>
<polygon fill="midnightblue" stroke="midnightblue" points="243.075,-147.788 240.271,-137.571 236.091,-147.306 243.075,-147.788"/>
</g>
<!-- Node2&#45;&gt;Node4 -->
<g id="edge6" class="edge"><title>Node2&#45;&gt;Node4</title>
<path fill="none" stroke="midnightblue" d="M223.06,-174.362C211.812,-165.777 195.784,-153.546 182.835,-143.664"/>
<polygon fill="midnightblue" stroke="midnightblue" points="184.924,-140.855 174.851,-137.571 180.677,-146.42 184.924,-140.855"/>
</g>
<!-- Node5 -->
<g id="node9" class="node"><title>Node5</title>
<a xlink:href="printable_8h.html" target="_top" xlink:title="printable.h">
<polygon fill="white" stroke="black" points="124,-58.5 124,-79.5 186,-79.5 186,-58.5 124,-58.5"/>
<text text-anchor="middle" x="155" y="-66.5" font-family="Helvetica,sans-Serif" font-size="10.00">printable.h</text>
</a>
</g>
<!-- Node4&#45;&gt;Node5 -->
<g id="edge8" class="edge"><title>Node4&#45;&gt;Node5</title>
<path fill="none" stroke="midnightblue" d="M159.9,-116.362C159.13,-108.922 158.077,-98.7427 157.144,-89.7276"/>
<polygon fill="midnightblue" stroke="midnightblue" points="160.604,-89.1574 156.094,-79.5707 153.641,-89.8777 160.604,-89.1574"/>
</g>
<!-- Node8 -->
<g id="node15" class="node"><title>Node8</title>
<a xlink:href="types_8h.html" target="_top" xlink:title="types.h">
<polygon fill="white" stroke="black" points="203.5,-58.5 203.5,-79.5 252.5,-79.5 252.5,-58.5 203.5,-58.5"/>
<text text-anchor="middle" x="228" y="-66.5" font-family="Helvetica,sans-Serif" font-size="10.00">types.h</text>
</a>
</g>
<!-- Node4&#45;&gt;Node8 -->
<g id="edge14" class="edge"><title>Node4&#45;&gt;Node8</title>
<path fill="none" stroke="midnightblue" d="M173.289,-116.362C183.017,-107.941 196.798,-96.0105 208.095,-86.2308"/>
<polygon fill="midnightblue" stroke="midnightblue" points="210.519,-88.7619 215.789,-79.5707 205.938,-83.4695 210.519,-88.7619"/>
</g>
<!-- Node9 -->
<g id="node17" class="node"><title>Node9</title>
<polygon fill="white" stroke="#bfbfbf" points="270,-58.5 270,-79.5 326,-79.5 326,-58.5 270,-58.5"/>
<text text-anchor="middle" x="298" y="-66.5" font-family="Helvetica,sans-Serif" font-size="10.00">algorithm</text>
</g>
<!-- Node4&#45;&gt;Node9 -->
<g id="edge16" class="edge"><title>Node4&#45;&gt;Node9</title>
<path fill="none" stroke="midnightblue" d="M185.81,-116.497C207.496,-107.315 239.211,-93.8889 263.392,-83.6516"/>
<polygon fill="midnightblue" stroke="midnightblue" points="265.068,-86.7429 272.912,-79.6212 262.339,-80.2968 265.068,-86.7429"/>
</g>
<!-- Node4&#45;&gt;Node10 -->
<g id="edge18" class="edge"><title>Node4&#45;&gt;Node10</title>
<path fill="none" stroke="midnightblue" d="M201.247,-117.81C248.945,-106.918 327.916,-88.8852 375.351,-78.0537"/>
<polygon fill="midnightblue" stroke="midnightblue" points="376.289,-81.4297 385.259,-75.7913 374.73,-74.6054 376.289,-81.4297"/>
</g>
<!-- Node11 -->
<g id="node21" class="node"><title>Node11</title>
<polygon fill="white" stroke="#bfbfbf" points="0,-58.5 0,-79.5 40,-79.5 40,-58.5 0,-58.5"/>
<text text-anchor="middle" x="20" y="-66.5" font-family="Helvetica,sans-Serif" font-size="10.00">limits</text>
</g>
<!-- Node4&#45;&gt;Node11 -->
<g id="edge20" class="edge"><title>Node4&#45;&gt;Node11</title>
<path fill="none" stroke="midnightblue" d="M135.466,-116.497C111.365,-106.583 75.2322,-91.7196 49.8194,-81.2661"/>
<polygon fill="midnightblue" stroke="midnightblue" points="50.8988,-77.9256 40.3191,-77.3582 48.2358,-84.3993 50.8988,-77.9256"/>
</g>
<!-- Node12 -->
<g id="node23" class="node"><title>Node12</title>
<polygon fill="white" stroke="#bfbfbf" points="57.5,-58.5 57.5,-79.5 106.5,-79.5 106.5,-58.5 57.5,-58.5"/>
<text text-anchor="middle" x="82" y="-66.5" font-family="Helvetica,sans-Serif" font-size="10.00">istream</text>
</g>
<!-- Node4&#45;&gt;Node12 -->
<g id="edge22" class="edge"><title>Node4&#45;&gt;Node12</title>
<path fill="none" stroke="midnightblue" d="M146.51,-116.362C134.817,-107.777 118.157,-95.5459 104.697,-85.6636"/>
<polygon fill="midnightblue" stroke="midnightblue" points="106.53,-82.6675 96.398,-79.5707 102.387,-88.31 106.53,-82.6675"/>
</g>
<!-- Node6 -->
<g id="node11" class="node"><title>Node6</title>
<polygon fill="white" stroke="#bfbfbf" points="86,-0.5 86,-21.5 148,-21.5 148,-0.5 86,-0.5"/>
<text text-anchor="middle" x="117" y="-8.5" font-family="Helvetica,sans-Serif" font-size="10.00">type_traits</text>
</g>
<!-- Node5&#45;&gt;Node6 -->
<g id="edge10" class="edge"><title>Node5&#45;&gt;Node6</title>
<path fill="none" stroke="midnightblue" d="M148.03,-58.3619C142.834,-50.4313 135.599,-39.3885 129.422,-29.9606"/>
<polygon fill="midnightblue" stroke="midnightblue" points="132.334,-28.0172 123.926,-21.5707 126.478,-31.8534 132.334,-28.0172"/>
</g>
<!-- Node7 -->
<g id="node13" class="node"><title>Node7</title>
<polygon fill="white" stroke="#bfbfbf" points="166,-0.5 166,-21.5 218,-21.5 218,-0.5 166,-0.5"/>
<text text-anchor="middle" x="192" y="-8.5" font-family="Helvetica,sans-Serif" font-size="10.00">ostream</text>
</g>
<!-- Node5&#45;&gt;Node7 -->
<g id="edge12" class="edge"><title>Node5&#45;&gt;Node7</title>
<path fill="none" stroke="midnightblue" d="M161.786,-58.3619C166.793,-50.5131 173.745,-39.6159 179.718,-30.2527"/>
<polygon fill="midnightblue" stroke="midnightblue" points="182.829,-31.8837 185.257,-21.5707 176.928,-28.1189 182.829,-31.8837"/>
</g>
<!-- Node13&#45;&gt;Node3 -->
<g id="edge34" class="edge"><title>Node13&#45;&gt;Node3</title>
<path fill="none" stroke="midnightblue" d="M321.025,-174.362C306.106,-165.532 284.667,-152.844 267.734,-142.822"/>
<polygon fill="midnightblue" stroke="midnightblue" points="269.249,-139.652 258.861,-137.571 265.684,-145.676 269.249,-139.652"/>
</g>
<!-- Node13&#45;&gt;Node9 -->
<g id="edge32" class="edge"><title>Node13&#45;&gt;Node9</title>
<path fill="none" stroke="midnightblue" d="M330.825,-174.415C324.18,-165.272 315.1,-151.447 310,-138 304.08,-122.391 301.058,-103.678 299.529,-89.68"/>
<polygon fill="midnightblue" stroke="midnightblue" points="303.004,-89.2483 298.596,-79.6142 296.034,-89.8947 303.004,-89.2483"/>
</g>
<!-- Node14 -->
<g id="node28" class="node"><title>Node14</title>
<polygon fill="white" stroke="#bfbfbf" points="318.5,-116.5 318.5,-137.5 359.5,-137.5 359.5,-116.5 318.5,-116.5"/>
<text text-anchor="middle" x="339" y="-124.5" font-family="Helvetica,sans-Serif" font-size="10.00">string</text>
</g>
<!-- Node13&#45;&gt;Node14 -->
<g id="edge28" class="edge"><title>Node13&#45;&gt;Node14</title>
<path fill="none" stroke="midnightblue" d="M339,-174.362C339,-166.922 339,-156.743 339,-147.728"/>
<polygon fill="midnightblue" stroke="midnightblue" points="342.5,-147.571 339,-137.571 335.5,-147.571 342.5,-147.571"/>
</g>
<!-- Node15 -->
<g id="node30" class="node"><title>Node15</title>
<polygon fill="white" stroke="#bfbfbf" points="377,-116.5 377,-137.5 429,-137.5 429,-116.5 377,-116.5"/>
<text text-anchor="middle" x="403" y="-124.5" font-family="Helvetica,sans-Serif" font-size="10.00">sstream</text>
</g>
<!-- Node13&#45;&gt;Node15 -->
<g id="edge30" class="edge"><title>Node13&#45;&gt;Node15</title>
<path fill="none" stroke="midnightblue" d="M350.739,-174.362C359.941,-166.023 372.94,-154.242 383.672,-144.516"/>
<polygon fill="midnightblue" stroke="midnightblue" points="386.276,-146.879 391.336,-137.571 381.576,-141.692 386.276,-146.879"/>
</g>
</g>
</svg>
