<?xml version="1.0" encoding="UTF-8" standalone="no"?>
<!DOCTYPE svg PUBLIC "-//W3C//DTD SVG 1.1//EN"
 "http://www.w3.org/Graphics/SVG/1.1/DTD/svg11.dtd">
<!-- Generated by graphviz version 2.26.3 (20100126.1600)
 -->
<!-- Title: src/base/Array2D.h Pages: 1 -->
<svg width="580pt" height="102pt"
 viewBox="0.00 0.00 580.00 102.00" xmlns="http://www.w3.org/2000/svg" xmlns:xlink="http://www.w3.org/1999/xlink">
<g id="graph1" class="graph" transform="scale(1 1) rotate(0) translate(4 98)">
<title>src/base/Array2D.h</title>
<polygon fill="white" stroke="white" points="-4,5 -4,-98 577,-98 577,5 -4,5"/>
<!-- Node1 -->
<g id="node1" class="node"><title>Node1</title>
<polygon fill="#bfbfbf" stroke="black" points="241.5,-72.5 241.5,-93.5 342.5,-93.5 342.5,-72.5 241.5,-72.5"/>
<text text-anchor="middle" x="292" y="-80.5" font-family="Helvetica,sans-Serif" font-size="10.00">src/base/Array2D.h</text>
</g>
<!-- Node2 -->
<g id="node3" class="node"><title>Node2</title>
<a xlink:href="_ant-make_sigmas_8cc.html" target="_top" xlink:title="progs/Ant&#45;makeSigmas.cc">
<polygon fill="white" stroke="black" points="0,-7.5 0,-28.5 132,-28.5 132,-7.5 0,-7.5"/>
<text text-anchor="middle" x="66" y="-15.5" font-family="Helvetica,sans-Serif" font-size="10.00">progs/Ant&#45;makeSigmas.cc</text>
</a>
</g>
<!-- Node1&#45;&gt;Node2 -->
<g id="edge2" class="edge"><title>Node1&#45;&gt;Node2</title>
<path fill="none" stroke="midnightblue" d="M245.645,-69.6679C203.279,-57.483 141.465,-39.7045 102.509,-28.5005"/>
<polygon fill="midnightblue" stroke="midnightblue" points="244.86,-73.0839 255.438,-72.4844 246.795,-66.3566 244.86,-73.0839"/>
</g>
<!-- Node3 -->
<g id="node5" class="node"><title>Node3</title>
<a xlink:href="_interpolated_8cc.html" target="_top" xlink:title="src/analysis/utils\l/uncertainties/Interpolated.cc">
<polygon fill="white" stroke="black" points="149.5,-1 149.5,-35 292.5,-35 292.5,-1 149.5,-1"/>
<text text-anchor="start" x="157.5" y="-22" font-family="Helvetica,sans-Serif" font-size="10.00">src/analysis/utils</text>
<text text-anchor="middle" x="221" y="-9" font-family="Helvetica,sans-Serif" font-size="10.00">/uncertainties/Interpolated.cc</text>
</a>
</g>
<!-- Node1&#45;&gt;Node3 -->
<g id="edge4" class="edge"><title>Node1&#45;&gt;Node3</title>
<path fill="none" stroke="midnightblue" d="M272.63,-65.2667C262.375,-55.8787 249.84,-44.4029 239.689,-35.1099"/>
<polygon fill="midnightblue" stroke="midnightblue" points="270.537,-68.0956 280.276,-72.2666 275.263,-62.9324 270.537,-68.0956"/>
</g>
<!-- Node4 -->
<g id="node7" class="node"><title>Node4</title>
<a xlink:href="_array2_d_8cc.html" target="_top" xlink:title="src/base/Array2D.cc">
<polygon fill="white" stroke="black" points="309.5,-7.5 309.5,-28.5 416.5,-28.5 416.5,-7.5 309.5,-7.5"/>
<text text-anchor="middle" x="363" y="-15.5" font-family="Helvetica,sans-Serif" font-size="10.00">src/base/Array2D.cc</text>
</a>
</g>
<!-- Node1&#45;&gt;Node4 -->
<g id="edge6" class="edge"><title>Node1&#45;&gt;Node4</title>
<path fill="none" stroke="midnightblue" d="M311.188,-65.4338C324.068,-53.6419 340.61,-38.4983 351.494,-28.5337"/>
<polygon fill="midnightblue" stroke="midnightblue" points="308.737,-62.9324 303.724,-72.2666 313.463,-68.0956 308.737,-62.9324"/>
</g>
<!-- Node5 -->
<g id="node9" class="node"><title>Node5</title>
<a xlink:href="_clipped_interpolator_wrapper_8cc.html" target="_top" xlink:title="src/base/ClippedInterpolator\lWrapper.cc">
<polygon fill="white" stroke="black" points="433.5,-1 433.5,-35 572.5,-35 572.5,-1 433.5,-1"/>
<text text-anchor="start" x="441.5" y="-22" font-family="Helvetica,sans-Serif" font-size="10.00">src/base/ClippedInterpolator</text>
<text text-anchor="middle" x="503" y="-9" font-family="Helvetica,sans-Serif" font-size="10.00">Wrapper.cc</text>
</a>
</g>
<!-- Node1&#45;&gt;Node5 -->
<g id="edge8" class="edge"><title>Node1&#45;&gt;Node5</title>
<path fill="none" stroke="midnightblue" d="M336.029,-69.4366C368.458,-59.4467 412.786,-45.7909 447.619,-35.0604"/>
<polygon fill="midnightblue" stroke="midnightblue" points="334.897,-66.123 326.37,-72.412 336.958,-72.8127 334.897,-66.123"/>
</g>
</g>
</svg>
