<?xml version="1.0" encoding="UTF-8" standalone="no"?>
<!DOCTYPE svg PUBLIC "-//W3C//DTD SVG 1.1//EN"
 "http://www.w3.org/Graphics/SVG/1.1/DTD/svg11.dtd">
<!-- Generated by graphviz version 2.26.3 (20100126.1600)
 -->
<!-- Title: src/calibration/fitfunctions/BaseFunctions.cc Pages: 1 -->
<svg width="341pt" height="160pt"
 viewBox="0.00 0.00 341.00 160.00" xmlns="http://www.w3.org/2000/svg" xmlns:xlink="http://www.w3.org/1999/xlink">
<g id="graph1" class="graph" transform="scale(1 1) rotate(0) translate(4 156)">
<title>src/calibration/fitfunctions/BaseFunctions.cc</title>
<polygon fill="white" stroke="white" points="-4,5 -4,-156 338,-156 338,5 -4,5"/>
<!-- Node1 -->
<g id="node1" class="node"><title>Node1</title>
<polygon fill="#bfbfbf" stroke="black" points="97,-117 97,-151 225,-151 225,-117 97,-117"/>
<text text-anchor="start" x="105" y="-138" font-family="Helvetica,sans-Serif" font-size="10.00">src/calibration/fitfunctions</text>
<text text-anchor="middle" x="161" y="-125" font-family="Helvetica,sans-Serif" font-size="10.00">/BaseFunctions.cc</text>
</g>
<!-- Node2 -->
<g id="node3" class="node"><title>Node2</title>
<a xlink:href="_base_functions_8h.html" target="_top" xlink:title="BaseFunctions.h">
<polygon fill="white" stroke="black" points="0,-58.5 0,-79.5 90,-79.5 90,-58.5 0,-58.5"/>
<text text-anchor="middle" x="45" y="-66.5" font-family="Helvetica,sans-Serif" font-size="10.00">BaseFunctions.h</text>
</a>
</g>
<!-- Node1&#45;&gt;Node2 -->
<g id="edge2" class="edge"><title>Node1&#45;&gt;Node2</title>
<path fill="none" stroke="midnightblue" d="M130.522,-116.922C112.738,-106.957 90.4594,-94.4729 73.0996,-84.7455"/>
<polygon fill="midnightblue" stroke="midnightblue" points="74.4558,-81.4934 64.0211,-79.6584 71.034,-87.6001 74.4558,-81.4934"/>
</g>
<!-- Node3 -->
<g id="node5" class="node"><title>Node3</title>
<a xlink:href="math_8h.html" target="_top" xlink:title="base/std_ext/math.h">
<polygon fill="white" stroke="black" points="108,-58.5 108,-79.5 214,-79.5 214,-58.5 108,-58.5"/>
<text text-anchor="middle" x="161" y="-66.5" font-family="Helvetica,sans-Serif" font-size="10.00">base/std_ext/math.h</text>
</a>
</g>
<!-- Node1&#45;&gt;Node3 -->
<g id="edge4" class="edge"><title>Node1&#45;&gt;Node3</title>
<path fill="none" stroke="midnightblue" d="M161,-116.922C161,-108.67 161,-98.6922 161,-89.9818"/>
<polygon fill="midnightblue" stroke="midnightblue" points="164.5,-89.8521 161,-79.8521 157.5,-89.8521 164.5,-89.8521"/>
</g>
<!-- Node9 -->
<g id="node17" class="node"><title>Node9</title>
<polygon fill="white" stroke="#bfbfbf" points="232,-58.5 232,-79.5 274,-79.5 274,-58.5 232,-58.5"/>
<text text-anchor="middle" x="253" y="-66.5" font-family="Helvetica,sans-Serif" font-size="10.00">TF1.h</text>
</g>
<!-- Node1&#45;&gt;Node9 -->
<g id="edge16" class="edge"><title>Node1&#45;&gt;Node9</title>
<path fill="none" stroke="midnightblue" d="M185.172,-116.922C198.885,-107.233 215.967,-95.1645 229.558,-85.5623"/>
<polygon fill="midnightblue" stroke="midnightblue" points="231.767,-88.2873 237.914,-79.6584 227.727,-82.5702 231.767,-88.2873"/>
</g>
<!-- Node4 -->
<g id="node7" class="node"><title>Node4</title>
<polygon fill="white" stroke="#bfbfbf" points="19,-0.5 19,-21.5 63,-21.5 63,-0.5 19,-0.5"/>
<text text-anchor="middle" x="41" y="-8.5" font-family="Helvetica,sans-Serif" font-size="10.00">cmath</text>
</g>
<!-- Node3&#45;&gt;Node4 -->
<g id="edge6" class="edge"><title>Node3&#45;&gt;Node4</title>
<path fill="none" stroke="midnightblue" d="M139.269,-58.4966C120.526,-49.4378 93.2335,-36.2462 72.1643,-26.0628"/>
<polygon fill="midnightblue" stroke="midnightblue" points="73.5015,-22.8217 62.9749,-21.6212 70.4553,-29.1242 73.5015,-22.8217"/>
</g>
<!-- Node5 -->
<g id="node9" class="node"><title>Node5</title>
<polygon fill="white" stroke="#bfbfbf" points="81,-0.5 81,-21.5 121,-21.5 121,-0.5 81,-0.5"/>
<text text-anchor="middle" x="101" y="-8.5" font-family="Helvetica,sans-Serif" font-size="10.00">limits</text>
</g>
<!-- Node3&#45;&gt;Node5 -->
<g id="edge8" class="edge"><title>Node3&#45;&gt;Node5</title>
<path fill="none" stroke="midnightblue" d="M149.995,-58.3619C141.453,-50.1043 129.42,-38.4725 119.417,-28.8029"/>
<polygon fill="midnightblue" stroke="midnightblue" points="121.558,-26.0044 111.935,-21.5707 116.692,-31.0374 121.558,-26.0044"/>
</g>
<!-- Node6 -->
<g id="node11" class="node"><title>Node6</title>
<polygon fill="white" stroke="#bfbfbf" points="139,-0.5 139,-21.5 183,-21.5 183,-0.5 139,-0.5"/>
<text text-anchor="middle" x="161" y="-8.5" font-family="Helvetica,sans-Serif" font-size="10.00">vector</text>
</g>
<!-- Node3&#45;&gt;Node6 -->
<g id="edge10" class="edge"><title>Node3&#45;&gt;Node6</title>
<path fill="none" stroke="midnightblue" d="M161,-58.3619C161,-50.9219 161,-40.7427 161,-31.7276"/>
<polygon fill="midnightblue" stroke="midnightblue" points="164.5,-31.5706 161,-21.5707 157.5,-31.5707 164.5,-31.5706"/>
</g>
<!-- Node7 -->
<g id="node13" class="node"><title>Node7</title>
<polygon fill="white" stroke="#bfbfbf" points="201,-0.5 201,-21.5 257,-21.5 257,-0.5 201,-0.5"/>
<text text-anchor="middle" x="229" y="-8.5" font-family="Helvetica,sans-Serif" font-size="10.00">algorithm</text>
</g>
<!-- Node3&#45;&gt;Node7 -->
<g id="edge12" class="edge"><title>Node3&#45;&gt;Node7</title>
<path fill="none" stroke="midnightblue" d="M173.472,-58.3619C183.345,-49.9408 197.333,-38.0105 208.798,-28.2308"/>
<polygon fill="midnightblue" stroke="midnightblue" points="211.27,-30.7231 216.607,-21.5707 206.727,-25.3972 211.27,-30.7231"/>
</g>
<!-- Node8 -->
<g id="node15" class="node"><title>Node8</title>
<polygon fill="white" stroke="#bfbfbf" points="274.5,-0.5 274.5,-21.5 333.5,-21.5 333.5,-0.5 274.5,-0.5"/>
<text text-anchor="middle" x="304" y="-8.5" font-family="Helvetica,sans-Serif" font-size="10.00">stdexcept</text>
</g>
<!-- Node3&#45;&gt;Node8 -->
<g id="edge14" class="edge"><title>Node3&#45;&gt;Node8</title>
<path fill="none" stroke="midnightblue" d="M186.896,-58.4966C209.633,-49.2746 242.93,-35.7695 268.212,-25.5153"/>
<polygon fill="midnightblue" stroke="midnightblue" points="269.862,-28.6232 277.813,-21.6212 267.231,-22.1365 269.862,-28.6232"/>
</g>
</g>
</svg>
