<?xml version="1.0" encoding="UTF-8" standalone="no"?>
<!DOCTYPE svg PUBLIC "-//W3C//DTD SVG 1.1//EN"
 "http://www.w3.org/Graphics/SVG/1.1/DTD/svg11.dtd">
<!-- Generated by graphviz version 2.26.3 (20100126.1600)
 -->
<!-- Title: src/calibration/fitfunctions/BaseFunctions.h Pages: 1 -->
<svg width="1596pt" height="116pt"
 viewBox="0.00 0.00 1596.00 116.00" xmlns="http://www.w3.org/2000/svg" xmlns:xlink="http://www.w3.org/1999/xlink">
<g id="graph1" class="graph" transform="scale(1 1) rotate(0) translate(4 112)">
<title>src/calibration/fitfunctions/BaseFunctions.h</title>
<polygon fill="white" stroke="white" points="-4,5 -4,-112 1593,-112 1593,5 -4,5"/>
<!-- Node1 -->
<g id="node1" class="node"><title>Node1</title>
<polygon fill="#bfbfbf" stroke="black" points="730,-73 730,-107 858,-107 858,-73 730,-73"/>
<text text-anchor="start" x="738" y="-94" font-family="Helvetica,sans-Serif" font-size="10.00">src/calibration/fitfunctions</text>
<text text-anchor="middle" x="794" y="-81" font-family="Helvetica,sans-Serif" font-size="10.00">/BaseFunctions.h</text>
</g>
<!-- Node2 -->
<g id="node3" class="node"><title>Node2</title>
<a xlink:href="_base_functions_8cc.html" target="_top" xlink:title="src/calibration/fitfunctions\l/BaseFunctions.cc">
<polygon fill="white" stroke="black" points="0,-1 0,-35 128,-35 128,-1 0,-1"/>
<text text-anchor="start" x="8" y="-22" font-family="Helvetica,sans-Serif" font-size="10.00">src/calibration/fitfunctions</text>
<text text-anchor="middle" x="64" y="-9" font-family="Helvetica,sans-Serif" font-size="10.00">/BaseFunctions.cc</text>
</a>
</g>
<!-- Node1&#45;&gt;Node2 -->
<g id="edge2" class="edge"><title>Node1&#45;&gt;Node2</title>
<path fill="none" stroke="midnightblue" d="M719.702,-87.7572C597.458,-83.2041 346.562,-70.2235 137,-36 134.166,-35.5372 131.28,-35.0209 128.371,-34.4639"/>
<polygon fill="midnightblue" stroke="midnightblue" points="719.582,-91.255 729.702,-88.1215 719.836,-84.2597 719.582,-91.255"/>
</g>
<!-- Node3 -->
<g id="node5" class="node"><title>Node3</title>
<a xlink:href="_fit_function_8cc.html" target="_top" xlink:title="src/calibration/fitfunctions\l/FitFunction.cc">
<polygon fill="white" stroke="black" points="146,-1 146,-35 274,-35 274,-1 146,-1"/>
<text text-anchor="start" x="154" y="-22" font-family="Helvetica,sans-Serif" font-size="10.00">src/calibration/fitfunctions</text>
<text text-anchor="middle" x="210" y="-9" font-family="Helvetica,sans-Serif" font-size="10.00">/FitFunction.cc</text>
</a>
</g>
<!-- Node1&#45;&gt;Node3 -->
<g id="edge4" class="edge"><title>Node1&#45;&gt;Node3</title>
<path fill="none" stroke="midnightblue" d="M719.894,-85.3546C620.086,-78.3736 437.188,-63.0263 283,-36 280.171,-35.5042 277.29,-34.9607 274.385,-34.3813"/>
<polygon fill="midnightblue" stroke="midnightblue" points="719.661,-88.8468 729.878,-86.0444 720.143,-81.8634 719.661,-88.8468"/>
</g>
<!-- Node4 -->
<g id="node7" class="node"><title>Node4</title>
<a xlink:href="_fit_gaus_8cc.html" target="_top" xlink:title="src/calibration/fitfunctions\l/FitGaus.cc">
<polygon fill="white" stroke="black" points="292,-1 292,-35 420,-35 420,-1 292,-1"/>
<text text-anchor="start" x="300" y="-22" font-family="Helvetica,sans-Serif" font-size="10.00">src/calibration/fitfunctions</text>
<text text-anchor="middle" x="356" y="-9" font-family="Helvetica,sans-Serif" font-size="10.00">/FitGaus.cc</text>
</a>
</g>
<!-- Node1&#45;&gt;Node4 -->
<g id="edge6" class="edge"><title>Node1&#45;&gt;Node4</title>
<path fill="none" stroke="midnightblue" d="M719.574,-81.0913C645.564,-71.7391 528.948,-55.6697 429,-36 426.054,-35.4203 423.049,-34.7994 420.018,-34.1495"/>
<polygon fill="midnightblue" stroke="midnightblue" points="719.37,-84.5931 729.729,-82.366 720.242,-77.6476 719.37,-84.5931"/>
</g>
<!-- Node5 -->
<g id="node9" class="node"><title>Node5</title>
<a xlink:href="_fit_gausexpo_8cc.html" target="_top" xlink:title="src/calibration/fitfunctions\l/FitGausexpo.cc">
<polygon fill="white" stroke="black" points="438,-1 438,-35 566,-35 566,-1 438,-1"/>
<text text-anchor="start" x="446" y="-22" font-family="Helvetica,sans-Serif" font-size="10.00">src/calibration/fitfunctions</text>
<text text-anchor="middle" x="502" y="-9" font-family="Helvetica,sans-Serif" font-size="10.00">/FitGausexpo.cc</text>
</a>
</g>
<!-- Node1&#45;&gt;Node5 -->
<g id="edge8" class="edge"><title>Node1&#45;&gt;Node5</title>
<path fill="none" stroke="midnightblue" d="M720.011,-71.756C672.564,-60.0568 611.58,-45.0198 566.183,-33.8259"/>
<polygon fill="midnightblue" stroke="midnightblue" points="719.372,-75.2034 729.919,-74.1993 721.048,-68.407 719.372,-75.2034"/>
</g>
<!-- Node6 -->
<g id="node11" class="node"><title>Node6</title>
<a xlink:href="_fit_gaus_pol0_8cc.html" target="_top" xlink:title="src/calibration/fitfunctions\l/FitGausPol0.cc">
<polygon fill="white" stroke="black" points="584,-1 584,-35 712,-35 712,-1 584,-1"/>
<text text-anchor="start" x="592" y="-22" font-family="Helvetica,sans-Serif" font-size="10.00">src/calibration/fitfunctions</text>
<text text-anchor="middle" x="648" y="-9" font-family="Helvetica,sans-Serif" font-size="10.00">/FitGausPol0.cc</text>
</a>
</g>
<!-- Node1&#45;&gt;Node6 -->
<g id="edge10" class="edge"><title>Node1&#45;&gt;Node6</title>
<path fill="none" stroke="midnightblue" d="M750.394,-68.4954C728.72,-57.8069 702.896,-45.0718 682.604,-35.0651"/>
<polygon fill="midnightblue" stroke="midnightblue" points="748.883,-71.6531 759.4,-72.937 751.979,-65.375 748.883,-71.6531"/>
</g>
<!-- Node7 -->
<g id="node13" class="node"><title>Node7</title>
<a xlink:href="_fit_gaus_pol1_8cc.html" target="_top" xlink:title="src/calibration/fitfunctions\l/FitGausPol1.cc">
<polygon fill="white" stroke="black" points="730,-1 730,-35 858,-35 858,-1 730,-1"/>
<text text-anchor="start" x="738" y="-22" font-family="Helvetica,sans-Serif" font-size="10.00">src/calibration/fitfunctions</text>
<text text-anchor="middle" x="794" y="-9" font-family="Helvetica,sans-Serif" font-size="10.00">/FitGausPol1.cc</text>
</a>
</g>
<!-- Node1&#45;&gt;Node7 -->
<g id="edge12" class="edge"><title>Node1&#45;&gt;Node7</title>
<path fill="none" stroke="midnightblue" d="M794,-62.7193C794,-53.572 794,-43.6255 794,-35.4407"/>
<polygon fill="midnightblue" stroke="midnightblue" points="790.5,-62.937 794,-72.937 797.5,-62.937 790.5,-62.937"/>
</g>
<!-- Node8 -->
<g id="node15" class="node"><title>Node8</title>
<a xlink:href="_fit_gaus_pol3_8cc.html" target="_top" xlink:title="src/calibration/fitfunctions\l/FitGausPol3.cc">
<polygon fill="white" stroke="black" points="876,-1 876,-35 1004,-35 1004,-1 876,-1"/>
<text text-anchor="start" x="884" y="-22" font-family="Helvetica,sans-Serif" font-size="10.00">src/calibration/fitfunctions</text>
<text text-anchor="middle" x="940" y="-9" font-family="Helvetica,sans-Serif" font-size="10.00">/FitGausPol3.cc</text>
</a>
</g>
<!-- Node1&#45;&gt;Node8 -->
<g id="edge14" class="edge"><title>Node1&#45;&gt;Node8</title>
<path fill="none" stroke="midnightblue" d="M837.606,-68.4954C859.28,-57.8069 885.104,-45.0718 905.396,-35.0651"/>
<polygon fill="midnightblue" stroke="midnightblue" points="836.021,-65.375 828.6,-72.937 839.117,-71.6531 836.021,-65.375"/>
</g>
<!-- Node9 -->
<g id="node17" class="node"><title>Node9</title>
<a xlink:href="_fit_landau_8cc.html" target="_top" xlink:title="src/calibration/fitfunctions\l/FitLandau.cc">
<polygon fill="white" stroke="black" points="1022,-1 1022,-35 1150,-35 1150,-1 1022,-1"/>
<text text-anchor="start" x="1030" y="-22" font-family="Helvetica,sans-Serif" font-size="10.00">src/calibration/fitfunctions</text>
<text text-anchor="middle" x="1086" y="-9" font-family="Helvetica,sans-Serif" font-size="10.00">/FitLandau.cc</text>
</a>
</g>
<!-- Node1&#45;&gt;Node9 -->
<g id="edge16" class="edge"><title>Node1&#45;&gt;Node9</title>
<path fill="none" stroke="midnightblue" d="M867.989,-71.756C915.436,-60.0568 976.42,-45.0198 1021.82,-33.8259"/>
<polygon fill="midnightblue" stroke="midnightblue" points="866.952,-68.407 858.081,-74.1993 868.628,-75.2034 866.952,-68.407"/>
</g>
<!-- Node10 -->
<g id="node19" class="node"><title>Node10</title>
<a xlink:href="_fit_landau_expo_8cc.html" target="_top" xlink:title="src/calibration/fitfunctions\l/FitLandauExpo.cc">
<polygon fill="white" stroke="black" points="1168,-1 1168,-35 1296,-35 1296,-1 1168,-1"/>
<text text-anchor="start" x="1176" y="-22" font-family="Helvetica,sans-Serif" font-size="10.00">src/calibration/fitfunctions</text>
<text text-anchor="middle" x="1232" y="-9" font-family="Helvetica,sans-Serif" font-size="10.00">/FitLandauExpo.cc</text>
</a>
</g>
<!-- Node1&#45;&gt;Node10 -->
<g id="edge18" class="edge"><title>Node1&#45;&gt;Node10</title>
<path fill="none" stroke="midnightblue" d="M868.426,-81.0913C942.436,-71.7391 1059.05,-55.6697 1159,-36 1161.95,-35.4203 1164.95,-34.7994 1167.98,-34.1495"/>
<polygon fill="midnightblue" stroke="midnightblue" points="867.758,-77.6476 858.271,-82.366 868.63,-84.5931 867.758,-77.6476"/>
</g>
<!-- Node11 -->
<g id="node21" class="node"><title>Node11</title>
<a xlink:href="_fit_landau_pol0_8cc.html" target="_top" xlink:title="src/calibration/fitfunctions\l/FitLandauPol0.cc">
<polygon fill="white" stroke="black" points="1314,-1 1314,-35 1442,-35 1442,-1 1314,-1"/>
<text text-anchor="start" x="1322" y="-22" font-family="Helvetica,sans-Serif" font-size="10.00">src/calibration/fitfunctions</text>
<text text-anchor="middle" x="1378" y="-9" font-family="Helvetica,sans-Serif" font-size="10.00">/FitLandauPol0.cc</text>
</a>
</g>
<!-- Node1&#45;&gt;Node11 -->
<g id="edge20" class="edge"><title>Node1&#45;&gt;Node11</title>
<path fill="none" stroke="midnightblue" d="M868.106,-85.3546C967.914,-78.3736 1150.81,-63.0263 1305,-36 1307.83,-35.5042 1310.71,-34.9607 1313.61,-34.3813"/>
<polygon fill="midnightblue" stroke="midnightblue" points="867.857,-81.8634 858.122,-86.0444 868.339,-88.8468 867.857,-81.8634"/>
</g>
<!-- Node12 -->
<g id="node23" class="node"><title>Node12</title>
<a xlink:href="_fit_timewalk_8cc.html" target="_top" xlink:title="src/calibration/fitfunctions\l/FitTimewalk.cc">
<polygon fill="white" stroke="black" points="1460,-1 1460,-35 1588,-35 1588,-1 1460,-1"/>
<text text-anchor="start" x="1468" y="-22" font-family="Helvetica,sans-Serif" font-size="10.00">src/calibration/fitfunctions</text>
<text text-anchor="middle" x="1524" y="-9" font-family="Helvetica,sans-Serif" font-size="10.00">/FitTimewalk.cc</text>
</a>
</g>
<!-- Node1&#45;&gt;Node12 -->
<g id="edge22" class="edge"><title>Node1&#45;&gt;Node12</title>
<path fill="none" stroke="midnightblue" d="M868.298,-87.7572C990.542,-83.2041 1241.44,-70.2235 1451,-36 1453.83,-35.5372 1456.72,-35.0209 1459.63,-34.4639"/>
<polygon fill="midnightblue" stroke="midnightblue" points="868.164,-84.2597 858.298,-88.1215 868.418,-91.255 868.164,-84.2597"/>
</g>
</g>
</svg>
