<?xml version="1.0" encoding="UTF-8" standalone="no"?>
<!DOCTYPE svg PUBLIC "-//W3C//DTD SVG 1.1//EN"
 "http://www.w3.org/Graphics/SVG/1.1/DTD/svg11.dtd">
<!-- Generated by graphviz version 2.26.3 (20100126.1600)
 -->
<!-- Title: src/expconfig/detectors/CB.h Pages: 1 -->
<svg width="3524pt" height="174pt"
 viewBox="0.00 0.00 3524.00 174.00" xmlns="http://www.w3.org/2000/svg" xmlns:xlink="http://www.w3.org/1999/xlink">
<g id="graph1" class="graph" transform="scale(1 1) rotate(0) translate(4 170)">
<title>src/expconfig/detectors/CB.h</title>
<polygon fill="white" stroke="white" points="-4,5 -4,-170 3521,-170 3521,5 -4,5"/>
<!-- Node1 -->
<g id="node1" class="node"><title>Node1</title>
<polygon fill="#bfbfbf" stroke="black" points="1706,-144.5 1706,-165.5 1850,-165.5 1850,-144.5 1706,-144.5"/>
<text text-anchor="middle" x="1778" y="-152.5" font-family="Helvetica,sans-Serif" font-size="10.00">src/expconfig/detectors/CB.h</text>
</g>
<!-- Node2 -->
<g id="node3" class="node"><title>Node2</title>
<a xlink:href="analysis_2physics_2calibration_2_c_b___energy_8cc.html" target="_top" xlink:title="src/analysis/physics\l/calibration/CB_Energy.cc">
<polygon fill="white" stroke="black" points="-0.5,-73 -0.5,-107 130.5,-107 130.5,-73 -0.5,-73"/>
<text text-anchor="start" x="7.5" y="-94" font-family="Helvetica,sans-Serif" font-size="10.00">src/analysis/physics</text>
<text text-anchor="middle" x="65" y="-81" font-family="Helvetica,sans-Serif" font-size="10.00">/calibration/CB_Energy.cc</text>
</a>
</g>
<!-- Node1&#45;&gt;Node2 -->
<g id="edge2" class="edge"><title>Node1&#45;&gt;Node2</title>
<path fill="none" stroke="midnightblue" d="M1695.71,-153.654C1385.08,-148.434 293.604,-128.785 139,-108 136.248,-107.63 133.45,-107.2 130.631,-106.721"/>
<polygon fill="midnightblue" stroke="midnightblue" points="1695.93,-157.158 1705.99,-153.826 1696.05,-150.159 1695.93,-157.158"/>
</g>
<!-- Node3 -->
<g id="node5" class="node"><title>Node3</title>
<a xlink:href="analysis_2physics_2calibration_2_c_b___source_calib_8h.html" target="_top" xlink:title="src/analysis/physics\l/calibration/CB_SourceCalib.h">
<polygon fill="white" stroke="black" points="148,-73 148,-107 296,-107 296,-73 148,-73"/>
<text text-anchor="start" x="156" y="-94" font-family="Helvetica,sans-Serif" font-size="10.00">src/analysis/physics</text>
<text text-anchor="middle" x="222" y="-81" font-family="Helvetica,sans-Serif" font-size="10.00">/calibration/CB_SourceCalib.h</text>
</a>
</g>
<!-- Node1&#45;&gt;Node3 -->
<g id="edge4" class="edge"><title>Node1&#45;&gt;Node3</title>
<path fill="none" stroke="midnightblue" d="M1695.69,-154.204C1427.65,-151.323 581.446,-139.873 310,-108 305.509,-107.473 300.905,-106.834 296.274,-106.115"/>
<polygon fill="midnightblue" stroke="midnightblue" points="1695.71,-157.704 1705.74,-154.311 1695.78,-150.705 1695.71,-157.704"/>
</g>
<!-- Node4 -->
<g id="node7" class="node"><title>Node4</title>
<a xlink:href="analysis_2physics_2calibration_2_c_b___source_calib_8cc.html" target="_top" xlink:title="src/analysis/physics\l/calibration/CB_SourceCalib.cc">
<polygon fill="white" stroke="black" points="196.5,-1 196.5,-35 349.5,-35 349.5,-1 196.5,-1"/>
<text text-anchor="start" x="204.5" y="-22" font-family="Helvetica,sans-Serif" font-size="10.00">src/analysis/physics</text>
<text text-anchor="middle" x="273" y="-9" font-family="Helvetica,sans-Serif" font-size="10.00">/calibration/CB_SourceCalib.cc</text>
</a>
</g>
<!-- Node1&#45;&gt;Node4 -->
<g id="edge8" class="edge"><title>Node1&#45;&gt;Node4</title>
<path fill="none" stroke="midnightblue" d="M1695.69,-154.23C1399.67,-151.214 403.464,-138.808 343,-108 327.215,-99.9569 299.281,-59.1599 283.905,-35.3457"/>
<polygon fill="midnightblue" stroke="midnightblue" points="1695.89,-157.733 1705.92,-154.334 1695.96,-150.733 1695.89,-157.733"/>
</g>
<!-- Node5 -->
<g id="node10" class="node"><title>Node5</title>
<a xlink:href="analysis_2physics_2calibration_2_c_b___time_walk_8cc.html" target="_top" xlink:title="src/analysis/physics\l/calibration/CB_TimeWalk.cc">
<polygon fill="white" stroke="black" points="352,-73 352,-107 496,-107 496,-73 352,-73"/>
<text text-anchor="start" x="360" y="-94" font-family="Helvetica,sans-Serif" font-size="10.00">src/analysis/physics</text>
<text text-anchor="middle" x="424" y="-81" font-family="Helvetica,sans-Serif" font-size="10.00">/calibration/CB_TimeWalk.cc</text>
</a>
</g>
<!-- Node1&#45;&gt;Node5 -->
<g id="edge10" class="edge"><title>Node1&#45;&gt;Node5</title>
<path fill="none" stroke="midnightblue" d="M1695.6,-153.915C1451.78,-150.393 736.521,-137.747 505,-108 502.142,-107.633 499.237,-107.213 496.308,-106.751"/>
<polygon fill="midnightblue" stroke="midnightblue" points="1695.76,-157.417 1705.81,-154.061 1695.86,-150.418 1695.76,-157.417"/>
</g>
<!-- Node6 -->
<g id="node12" class="node"><title>Node6</title>
<a xlink:href="_extract_shower_depth_8cc.html" target="_top" xlink:title="src/analysis/physics\l/common/ExtractShowerDepth.cc">
<polygon fill="white" stroke="black" points="514,-73 514,-107 678,-107 678,-73 514,-73"/>
<text text-anchor="start" x="522" y="-94" font-family="Helvetica,sans-Serif" font-size="10.00">src/analysis/physics</text>
<text text-anchor="middle" x="596" y="-81" font-family="Helvetica,sans-Serif" font-size="10.00">/common/ExtractShowerDepth.cc</text>
</a>
</g>
<!-- Node1&#45;&gt;Node6 -->
<g id="edge12" class="edge"><title>Node1&#45;&gt;Node6</title>
<path fill="none" stroke="midnightblue" d="M1695.47,-153.074C1476.11,-147.693 882.028,-131.352 687,-108 684.122,-107.655 681.198,-107.27 678.25,-106.852"/>
<polygon fill="midnightblue" stroke="midnightblue" points="1695.55,-156.577 1705.63,-153.322 1695.72,-149.579 1695.55,-156.577"/>
</g>
<!-- Node7 -->
<g id="node14" class="node"><title>Node7</title>
<a xlink:href="_meson_dalitz_decays_8cc.html" target="_top" xlink:title="Physics class to investigate Dalitz decays for different mesons. ">
<polygon fill="white" stroke="black" points="696,-73 696,-107 858,-107 858,-73 696,-73"/>
<text text-anchor="start" x="704" y="-94" font-family="Helvetica,sans-Serif" font-size="10.00">src/analysis/physics</text>
<text text-anchor="middle" x="777" y="-81" font-family="Helvetica,sans-Serif" font-size="10.00">/common/MesonDalitzDecays.cc</text>
</a>
</g>
<!-- Node1&#45;&gt;Node7 -->
<g id="edge14" class="edge"><title>Node1&#45;&gt;Node7</title>
<path fill="none" stroke="midnightblue" d="M1695.77,-152.296C1502.95,-145.708 1026.01,-127.895 867,-108 864.154,-107.644 861.263,-107.249 858.348,-106.822"/>
<polygon fill="midnightblue" stroke="midnightblue" points="1695.73,-155.797 1705.84,-152.639 1695.97,-148.801 1695.73,-155.797"/>
</g>
<!-- Node8 -->
<g id="node16" class="node"><title>Node8</title>
<a xlink:href="_fitter_8cc.html" target="_top" xlink:title="src/analysis/utils\l/Fitter.cc">
<polygon fill="white" stroke="black" points="876,-73 876,-107 966,-107 966,-73 876,-73"/>
<text text-anchor="start" x="884" y="-94" font-family="Helvetica,sans-Serif" font-size="10.00">src/analysis/utils</text>
<text text-anchor="middle" x="921" y="-81" font-family="Helvetica,sans-Serif" font-size="10.00">/Fitter.cc</text>
</a>
</g>
<!-- Node1&#45;&gt;Node8 -->
<g id="edge16" class="edge"><title>Node1&#45;&gt;Node8</title>
<path fill="none" stroke="midnightblue" d="M1695.71,-152.928C1519.62,-148.046 1111.22,-134.213 975,-108 972.089,-107.44 969.118,-106.764 966.142,-106.007"/>
<polygon fill="midnightblue" stroke="midnightblue" points="1695.86,-156.433 1705.95,-153.209 1696.05,-149.436 1695.86,-156.433"/>
</g>
<!-- Node9 -->
<g id="node18" class="node"><title>Node9</title>
<a xlink:href="_m_c_fake_reconstructed_8cc.html" target="_top" xlink:title="src/analysis/utils\l/MCFakeReconstructed.cc">
<polygon fill="white" stroke="black" points="984,-73 984,-107 1118,-107 1118,-73 984,-73"/>
<text text-anchor="start" x="992" y="-94" font-family="Helvetica,sans-Serif" font-size="10.00">src/analysis/utils</text>
<text text-anchor="middle" x="1051" y="-81" font-family="Helvetica,sans-Serif" font-size="10.00">/MCFakeReconstructed.cc</text>
</a>
</g>
<!-- Node1&#45;&gt;Node9 -->
<g id="edge18" class="edge"><title>Node1&#45;&gt;Node9</title>
<path fill="none" stroke="midnightblue" d="M1695.64,-153.284C1571.63,-149.747 1329.9,-139.146 1127,-108 1124.05,-107.547 1121.05,-107.04 1118.02,-106.49"/>
<polygon fill="midnightblue" stroke="midnightblue" points="1695.72,-156.787 1705.81,-153.566 1695.91,-149.79 1695.72,-156.787"/>
</g>
<!-- Node10 -->
<g id="node20" class="node"><title>Node10</title>
<a xlink:href="_fitter_sergey_8cc.html" target="_top" xlink:title="src/analysis/utils\l/uncertainties/FitterSergey.cc">
<polygon fill="white" stroke="black" points="1135.5,-73 1135.5,-107 1280.5,-107 1280.5,-73 1135.5,-73"/>
<text text-anchor="start" x="1143.5" y="-94" font-family="Helvetica,sans-Serif" font-size="10.00">src/analysis/utils</text>
<text text-anchor="middle" x="1208" y="-81" font-family="Helvetica,sans-Serif" font-size="10.00">/uncertainties/FitterSergey.cc</text>
</a>
</g>
<!-- Node1&#45;&gt;Node10 -->
<g id="edge20" class="edge"><title>Node1&#45;&gt;Node10</title>
<path fill="none" stroke="midnightblue" d="M1695.9,-150.2C1598.43,-143.789 1431.17,-130.541 1289,-108 1286.3,-107.571 1283.55,-107.107 1280.78,-106.615"/>
<polygon fill="midnightblue" stroke="midnightblue" points="1695.77,-153.699 1705.98,-150.855 1696.22,-146.714 1695.77,-153.699"/>
</g>
<!-- Node11 -->
<g id="node22" class="node"><title>Node11</title>
<a xlink:href="_optimized_8cc.html" target="_top" xlink:title="src/analysis/utils\l/uncertainties/Optimized.cc">
<polygon fill="white" stroke="black" points="1298,-73 1298,-107 1434,-107 1434,-73 1298,-73"/>
<text text-anchor="start" x="1306" y="-94" font-family="Helvetica,sans-Serif" font-size="10.00">src/analysis/utils</text>
<text text-anchor="middle" x="1366" y="-81" font-family="Helvetica,sans-Serif" font-size="10.00">/uncertainties/Optimized.cc</text>
</a>
</g>
<!-- Node1&#45;&gt;Node11 -->
<g id="edge22" class="edge"><title>Node1&#45;&gt;Node11</title>
<path fill="none" stroke="midnightblue" d="M1695.59,-145.542C1627.57,-137.232 1528.66,-123.988 1443,-108 1440.17,-107.471 1437.28,-106.908 1434.37,-106.319"/>
<polygon fill="midnightblue" stroke="midnightblue" points="1695.46,-149.053 1705.81,-146.783 1696.31,-142.104 1695.46,-149.053"/>
</g>
<!-- Node12 -->
<g id="node24" class="node"><title>Node12</title>
<a xlink:href="calibration_2modules_2_c_b___energy_8cc.html" target="_top" xlink:title="src/calibration/modules\l/CB_Energy.cc">
<polygon fill="white" stroke="black" points="1451.5,-73 1451.5,-107 1568.5,-107 1568.5,-73 1451.5,-73"/>
<text text-anchor="start" x="1459.5" y="-94" font-family="Helvetica,sans-Serif" font-size="10.00">src/calibration/modules</text>
<text text-anchor="middle" x="1510" y="-81" font-family="Helvetica,sans-Serif" font-size="10.00">/CB_Energy.cc</text>
</a>
</g>
<!-- Node1&#45;&gt;Node12 -->
<g id="edge24" class="edge"><title>Node1&#45;&gt;Node12</title>
<path fill="none" stroke="midnightblue" d="M1720.87,-142.166C1680.58,-132.986 1625.38,-120.153 1577,-108 1574.31,-107.325 1571.57,-106.626 1568.8,-105.913"/>
<polygon fill="midnightblue" stroke="midnightblue" points="1720.26,-145.615 1730.78,-144.419 1721.81,-138.789 1720.26,-145.615"/>
</g>
<!-- Node13 -->
<g id="node26" class="node"><title>Node13</title>
<a xlink:href="calibration_2modules_2_c_b___source_calib_8cc.html" target="_top" xlink:title="src/calibration/modules\l/CB_SourceCalib.cc">
<polygon fill="white" stroke="black" points="1585.5,-73 1585.5,-107 1702.5,-107 1702.5,-73 1585.5,-73"/>
<text text-anchor="start" x="1593.5" y="-94" font-family="Helvetica,sans-Serif" font-size="10.00">src/calibration/modules</text>
<text text-anchor="middle" x="1644" y="-81" font-family="Helvetica,sans-Serif" font-size="10.00">/CB_SourceCalib.cc</text>
</a>
</g>
<!-- Node1&#45;&gt;Node13 -->
<g id="edge26" class="edge"><title>Node1&#45;&gt;Node13</title>
<path fill="none" stroke="midnightblue" d="M1747.06,-139.992C1726.79,-130.158 1700.24,-117.282 1679.17,-107.06"/>
<polygon fill="midnightblue" stroke="midnightblue" points="1745.65,-143.197 1756.17,-144.412 1748.7,-136.898 1745.65,-143.197"/>
</g>
<!-- Node14 -->
<g id="node28" class="node"><title>Node14</title>
<a xlink:href="calibration_2modules_2_c_b___time_walk_8cc.html" target="_top" xlink:title="src/calibration/modules\l/CB_TimeWalk.cc">
<polygon fill="white" stroke="black" points="1719.5,-73 1719.5,-107 1836.5,-107 1836.5,-73 1719.5,-73"/>
<text text-anchor="start" x="1727.5" y="-94" font-family="Helvetica,sans-Serif" font-size="10.00">src/calibration/modules</text>
<text text-anchor="middle" x="1778" y="-81" font-family="Helvetica,sans-Serif" font-size="10.00">/CB_TimeWalk.cc</text>
</a>
</g>
<!-- Node1&#45;&gt;Node14 -->
<g id="edge28" class="edge"><title>Node1&#45;&gt;Node14</title>
<path fill="none" stroke="midnightblue" d="M1778,-134.131C1778,-125.405 1778,-115.391 1778,-107.11"/>
<polygon fill="midnightblue" stroke="midnightblue" points="1774.5,-134.267 1778,-144.267 1781.5,-134.267 1774.5,-134.267"/>
</g>
<!-- Node15 -->
<g id="node30" class="node"><title>Node15</title>
<a xlink:href="_c_b_8cc.html" target="_top" xlink:title="src/expconfig/detectors\l/CB.cc">
<polygon fill="white" stroke="black" points="1847.5,-1 1847.5,-35 1966.5,-35 1966.5,-1 1847.5,-1"/>
<text text-anchor="start" x="1855.5" y="-22" font-family="Helvetica,sans-Serif" font-size="10.00">src/expconfig/detectors</text>
<text text-anchor="middle" x="1907" y="-9" font-family="Helvetica,sans-Serif" font-size="10.00">/CB.cc</text>
</a>
</g>
<!-- Node1&#45;&gt;Node15 -->
<g id="edge30" class="edge"><title>Node1&#45;&gt;Node15</title>
<path fill="none" stroke="midnightblue" d="M1805.19,-139.091C1818.09,-130.787 1833.21,-119.887 1845,-108 1867.18,-85.6343 1886.66,-54.4317 1897.62,-35.2567"/>
<polygon fill="midnightblue" stroke="midnightblue" points="1803.31,-136.138 1796.68,-144.406 1807.02,-142.074 1803.31,-136.138"/>
</g>
<!-- Node16 -->
<g id="node32" class="node"><title>Node16</title>
<a xlink:href="_c_b__elements_8h.html" target="_top" xlink:title="src/expconfig/detectors\l/detail/CB_elements.h">
<polygon fill="white" stroke="black" points="1891.5,-73 1891.5,-107 2010.5,-107 2010.5,-73 1891.5,-73"/>
<text text-anchor="start" x="1899.5" y="-94" font-family="Helvetica,sans-Serif" font-size="10.00">src/expconfig/detectors</text>
<text text-anchor="middle" x="1951" y="-81" font-family="Helvetica,sans-Serif" font-size="10.00">/detail/CB_elements.h</text>
</a>
</g>
<!-- Node1&#45;&gt;Node16 -->
<g id="edge32" class="edge"><title>Node1&#45;&gt;Node16</title>
<path fill="none" stroke="midnightblue" d="M1815.83,-140.786C1842.25,-130.859 1877.65,-117.56 1905.59,-107.06"/>
<polygon fill="midnightblue" stroke="midnightblue" points="1814.31,-137.618 1806.18,-144.412 1816.77,-144.171 1814.31,-137.618"/>
</g>
<!-- Node17 -->
<g id="node35" class="node"><title>Node17</title>
<a xlink:href="_setup__2007___base_8cc.html" target="_top" xlink:title="src/expconfig/setups\l/Setup_2007_Base.cc">
<polygon fill="white" stroke="black" points="2027.5,-73 2027.5,-107 2140.5,-107 2140.5,-73 2027.5,-73"/>
<text text-anchor="start" x="2035.5" y="-94" font-family="Helvetica,sans-Serif" font-size="10.00">src/expconfig/setups</text>
<text text-anchor="middle" x="2084" y="-81" font-family="Helvetica,sans-Serif" font-size="10.00">/Setup_2007_Base.cc</text>
</a>
</g>
<!-- Node1&#45;&gt;Node17 -->
<g id="edge36" class="edge"><title>Node1&#45;&gt;Node17</title>
<path fill="none" stroke="midnightblue" d="M1849.2,-142.612C1897.35,-133.869 1962.25,-121.37 2019,-108 2021.74,-107.356 2024.53,-106.674 2027.35,-105.967"/>
<polygon fill="midnightblue" stroke="midnightblue" points="1848.41,-139.198 1839.19,-144.42 1849.66,-146.087 1848.41,-139.198"/>
</g>
<!-- Node18 -->
<g id="node37" class="node"><title>Node18</title>
<a xlink:href="_setup__2012__12___compton_8cc.html" target="_top" xlink:title="src/expconfig/setups\l/Setup_2012_12_Compton.cc">
<polygon fill="white" stroke="black" points="2158,-73 2158,-107 2304,-107 2304,-73 2158,-73"/>
<text text-anchor="start" x="2166" y="-94" font-family="Helvetica,sans-Serif" font-size="10.00">src/expconfig/setups</text>
<text text-anchor="middle" x="2231" y="-81" font-family="Helvetica,sans-Serif" font-size="10.00">/Setup_2012_12_Compton.cc</text>
</a>
</g>
<!-- Node1&#45;&gt;Node18 -->
<g id="edge38" class="edge"><title>Node1&#45;&gt;Node18</title>
<path fill="none" stroke="midnightblue" d="M1860.47,-146.706C1935.87,-138.613 2050.32,-125.046 2149,-108 2151.87,-107.504 2154.8,-106.975 2157.75,-106.423"/>
<polygon fill="midnightblue" stroke="midnightblue" points="1859.67,-143.271 1850.1,-147.811 1860.42,-150.232 1859.67,-143.271"/>
</g>
<!-- Node19 -->
<g id="node39" class="node"><title>Node19</title>
<a xlink:href="_setup__2014___e_p_t_8cc.html" target="_top" xlink:title="src/expconfig/setups\l/Setup_2014_EPT.cc">
<polygon fill="white" stroke="black" points="2322,-73 2322,-107 2432,-107 2432,-73 2322,-73"/>
<text text-anchor="start" x="2330" y="-94" font-family="Helvetica,sans-Serif" font-size="10.00">src/expconfig/setups</text>
<text text-anchor="middle" x="2377" y="-81" font-family="Helvetica,sans-Serif" font-size="10.00">/Setup_2014_EPT.cc</text>
</a>
</g>
<!-- Node1&#45;&gt;Node19 -->
<g id="edge40" class="edge"><title>Node1&#45;&gt;Node19</title>
<path fill="none" stroke="midnightblue" d="M1860.67,-152.515C1966.34,-148.249 2154.56,-136.978 2313,-108 2315.95,-107.46 2318.96,-106.844 2321.99,-106.173"/>
<polygon fill="midnightblue" stroke="midnightblue" points="1860.25,-149.029 1850.39,-152.918 1860.52,-156.023 1860.25,-149.029"/>
</g>
<!-- Node20 -->
<g id="node41" class="node"><title>Node20</title>
<a xlink:href="_setup__2015__01___pion_8cc.html" target="_top" xlink:title="src/expconfig/setups\l/Setup_2015_01_Pion.cc">
<polygon fill="white" stroke="black" points="2449.5,-73 2449.5,-107 2574.5,-107 2574.5,-73 2449.5,-73"/>
<text text-anchor="start" x="2457.5" y="-94" font-family="Helvetica,sans-Serif" font-size="10.00">src/expconfig/setups</text>
<text text-anchor="middle" x="2512" y="-81" font-family="Helvetica,sans-Serif" font-size="10.00">/Setup_2015_01_Pion.cc</text>
</a>
</g>
<!-- Node1&#45;&gt;Node20 -->
<g id="edge42" class="edge"><title>Node1&#45;&gt;Node20</title>
<path fill="none" stroke="midnightblue" d="M1860.43,-153.846C1986.33,-151.031 2233.78,-141.341 2441,-108 2443.76,-107.556 2446.57,-107.055 2449.41,-106.51"/>
<polygon fill="midnightblue" stroke="midnightblue" points="1860.02,-150.354 1850.1,-154.068 1860.17,-157.353 1860.02,-150.354"/>
</g>
<!-- Node21 -->
<g id="node43" class="node"><title>Node21</title>
<a xlink:href="_setup___c_b_source_calib_8cc.html" target="_top" xlink:title="src/expconfig/setups\l/Setup_CBSourceCalib.cc">
<polygon fill="white" stroke="black" points="2591.5,-73 2591.5,-107 2722.5,-107 2722.5,-73 2591.5,-73"/>
<text text-anchor="start" x="2599.5" y="-94" font-family="Helvetica,sans-Serif" font-size="10.00">src/expconfig/setups</text>
<text text-anchor="middle" x="2657" y="-81" font-family="Helvetica,sans-Serif" font-size="10.00">/Setup_CBSourceCalib.cc</text>
</a>
</g>
<!-- Node1&#45;&gt;Node21 -->
<g id="edge44" class="edge"><title>Node1&#45;&gt;Node21</title>
<path fill="none" stroke="midnightblue" d="M1860.35,-152.079C2036.59,-145.519 2445.47,-128.57 2583,-108 2585.75,-107.589 2588.54,-107.125 2591.35,-106.618"/>
<polygon fill="midnightblue" stroke="midnightblue" points="1859.96,-148.591 1850.1,-152.459 1860.22,-155.586 1859.96,-148.591"/>
</g>
<!-- Node22 -->
<g id="node45" class="node"><title>Node22</title>
<a xlink:href="_candidate_builder_8cc.html" target="_top" xlink:title="src/reconstruct/Candidate\lBuilder.cc">
<polygon fill="white" stroke="black" points="2739.5,-73 2739.5,-107 2868.5,-107 2868.5,-73 2739.5,-73"/>
<text text-anchor="start" x="2747.5" y="-94" font-family="Helvetica,sans-Serif" font-size="10.00">src/reconstruct/Candidate</text>
<text text-anchor="middle" x="2804" y="-81" font-family="Helvetica,sans-Serif" font-size="10.00">Builder.cc</text>
</a>
</g>
<!-- Node1&#45;&gt;Node22 -->
<g id="edge46" class="edge"><title>Node1&#45;&gt;Node22</title>
<path fill="none" stroke="midnightblue" d="M1860.15,-152.98C2059.37,-147.755 2564.06,-132.465 2731,-108 2733.71,-107.603 2736.47,-107.149 2739.25,-106.652"/>
<polygon fill="midnightblue" stroke="midnightblue" points="1859.94,-149.484 1850.04,-153.244 1860.13,-156.482 1859.94,-149.484"/>
</g>
<!-- Node23 -->
<g id="node47" class="node"><title>Node23</title>
<a xlink:href="_detector_plots_8cc.html" target="_top" xlink:title="src/root&#45;addons/analysis\l_codes/DetectorPlots.cc">
<polygon fill="white" stroke="black" points="2885.5,-73 2885.5,-107 3010.5,-107 3010.5,-73 2885.5,-73"/>
<text text-anchor="start" x="2893.5" y="-94" font-family="Helvetica,sans-Serif" font-size="10.00">src/root&#45;addons/analysis</text>
<text text-anchor="middle" x="2948" y="-81" font-family="Helvetica,sans-Serif" font-size="10.00">_codes/DetectorPlots.cc</text>
</a>
</g>
<!-- Node1&#45;&gt;Node23 -->
<g id="edge48" class="edge"><title>Node1&#45;&gt;Node23</title>
<path fill="none" stroke="midnightblue" d="M1860.42,-153.669C2080.94,-149.759 2681,-136.724 2877,-108 2879.77,-107.594 2882.58,-107.125 2885.42,-106.607"/>
<polygon fill="midnightblue" stroke="midnightblue" points="1860.15,-150.174 1850.21,-153.849 1860.27,-157.173 1860.15,-150.174"/>
</g>
<!-- Node24 -->
<g id="node49" class="node"><title>Node24</title>
<a xlink:href="_test_exp_config_8cc.html" target="_top" xlink:title="test/expconfig/TestExpConfig.cc">
<polygon fill="white" stroke="black" points="3028,-79.5 3028,-100.5 3188,-100.5 3188,-79.5 3028,-79.5"/>
<text text-anchor="middle" x="3108" y="-87.5" font-family="Helvetica,sans-Serif" font-size="10.00">test/expconfig/TestExpConfig.cc</text>
</a>
</g>
<!-- Node1&#45;&gt;Node24 -->
<g id="edge50" class="edge"><title>Node1&#45;&gt;Node24</title>
<path fill="none" stroke="midnightblue" d="M1860.4,-153.619C2099.99,-149.327 2793.7,-134.871 3019,-108 3033.4,-106.282 3048.95,-103.475 3062.95,-100.582"/>
<polygon fill="midnightblue" stroke="midnightblue" points="1860.29,-150.12 1850.36,-153.798 1860.42,-157.119 1860.29,-150.12"/>
</g>
<!-- Node25 -->
<g id="node51" class="node"><title>Node25</title>
<a xlink:href="expconfig__helpers_8cc.html" target="_top" xlink:title="test/expconfig_helpers.cc">
<polygon fill="white" stroke="black" points="3206,-79.5 3206,-100.5 3334,-100.5 3334,-79.5 3206,-79.5"/>
<text text-anchor="middle" x="3270" y="-87.5" font-family="Helvetica,sans-Serif" font-size="10.00">test/expconfig_helpers.cc</text>
</a>
</g>
<!-- Node1&#45;&gt;Node25 -->
<g id="edge52" class="edge"><title>Node1&#45;&gt;Node25</title>
<path fill="none" stroke="midnightblue" d="M1860.25,-154.528C2122.39,-152.671 2936.18,-144.073 3197,-108 3209.03,-106.337 3221.95,-103.507 3233.53,-100.577"/>
<polygon fill="midnightblue" stroke="midnightblue" points="1860.02,-151.03 1850.05,-154.599 1860.07,-158.03 1860.02,-151.03"/>
</g>
<!-- Node26 -->
<g id="node53" class="node"><title>Node26</title>
<a xlink:href="_test_clustering_8cc.html" target="_top" xlink:title="test/reconstruct/TestClustering.cc">
<polygon fill="white" stroke="black" points="3351.5,-79.5 3351.5,-100.5 3516.5,-100.5 3516.5,-79.5 3351.5,-79.5"/>
<text text-anchor="middle" x="3434" y="-87.5" font-family="Helvetica,sans-Serif" font-size="10.00">test/reconstruct/TestClustering.cc</text>
</a>
</g>
<!-- Node1&#45;&gt;Node26 -->
<g id="edge54" class="edge"><title>Node1&#45;&gt;Node26</title>
<path fill="none" stroke="midnightblue" d="M1860.45,-154.323C2140.15,-151.744 3051.68,-140.957 3343,-108 3357.88,-106.316 3373.96,-103.48 3388.4,-100.552"/>
<polygon fill="midnightblue" stroke="midnightblue" points="1860.34,-150.824 1850.37,-154.415 1860.4,-157.823 1860.34,-150.824"/>
</g>
<!-- Node3&#45;&gt;Node4 -->
<g id="edge6" class="edge"><title>Node3&#45;&gt;Node4</title>
<path fill="none" stroke="midnightblue" d="M240.064,-64.4981C246.879,-54.8768 254.471,-44.1593 260.646,-35.4407"/>
<polygon fill="midnightblue" stroke="midnightblue" points="237.01,-62.7537 234.086,-72.937 242.723,-66.7998 237.01,-62.7537"/>
</g>
<!-- Node16&#45;&gt;Node15 -->
<g id="edge34" class="edge"><title>Node16&#45;&gt;Node15</title>
<path fill="none" stroke="midnightblue" d="M1935.24,-64.2033C1929.4,-54.6583 1922.93,-44.0703 1917.66,-35.4407"/>
<polygon fill="midnightblue" stroke="midnightblue" points="1932.37,-66.2293 1940.57,-72.937 1938.34,-62.5791 1932.37,-66.2293"/>
</g>
</g>
</svg>
