<?xml version="1.0" encoding="UTF-8" standalone="no"?>
<!DOCTYPE svg PUBLIC "-//W3C//DTD SVG 1.1//EN"
 "http://www.w3.org/Graphics/SVG/1.1/DTD/svg11.dtd">
<!-- Generated by graphviz version 2.26.3 (20100126.1600)
 -->
<!-- Title: src/calibration/gui/CalCanvas.h Pages: 1 -->
<svg width="956pt" height="304pt"
 viewBox="0.00 0.00 956.00 304.00" xmlns="http://www.w3.org/2000/svg" xmlns:xlink="http://www.w3.org/1999/xlink">
<g id="graph1" class="graph" transform="scale(1 1) rotate(0) translate(4 300)">
<title>src/calibration/gui/CalCanvas.h</title>
<polygon fill="white" stroke="white" points="-4,5 -4,-300 953,-300 953,5 -4,5"/>
<!-- Node1 -->
<g id="node1" class="node"><title>Node1</title>
<polygon fill="#bfbfbf" stroke="black" points="438.5,-261 438.5,-295 531.5,-295 531.5,-261 438.5,-261"/>
<text text-anchor="start" x="446.5" y="-282" font-family="Helvetica,sans-Serif" font-size="10.00">src/calibration/gui</text>
<text text-anchor="middle" x="485" y="-269" font-family="Helvetica,sans-Serif" font-size="10.00">/CalCanvas.h</text>
</g>
<!-- Node2 -->
<g id="node3" class="node"><title>Node2</title>
<a xlink:href="_indicator__traits_8h.html" target="_top" xlink:title="calibration/gui/Indicator\l_traits.h">
<polygon fill="white" stroke="black" points="-0.5,-59 -0.5,-93 116.5,-93 116.5,-59 -0.5,-59"/>
<text text-anchor="start" x="7.5" y="-80" font-family="Helvetica,sans-Serif" font-size="10.00">calibration/gui/Indicator</text>
<text text-anchor="middle" x="58" y="-67" font-family="Helvetica,sans-Serif" font-size="10.00">_traits.h</text>
</a>
</g>
<!-- Node1&#45;&gt;Node2 -->
<g id="edge2" class="edge"><title>Node1&#45;&gt;Node2</title>
<path fill="none" stroke="midnightblue" d="M438.406,-270.013C341.392,-252.424 122.672,-207.465 74,-152 62.4383,-138.825 58.493,-119.432 57.4101,-103.534"/>
<polygon fill="midnightblue" stroke="midnightblue" points="60.8968,-103.081 57.0593,-93.2059 53.9009,-103.319 60.8968,-103.081"/>
</g>
<!-- Node4 -->
<g id="node7" class="node"><title>Node4</title>
<a xlink:href="_fit_function_8h.html" target="_top" xlink:title="calibration/fitfunctions\l/FitFunction.h">
<polygon fill="white" stroke="black" points="348,-189 348,-223 460,-223 460,-189 348,-189"/>
<text text-anchor="start" x="356" y="-210" font-family="Helvetica,sans-Serif" font-size="10.00">calibration/fitfunctions</text>
<text text-anchor="middle" x="404" y="-197" font-family="Helvetica,sans-Serif" font-size="10.00">/FitFunction.h</text>
</a>
</g>
<!-- Node1&#45;&gt;Node4 -->
<g id="edge6" class="edge"><title>Node1&#45;&gt;Node4</title>
<path fill="none" stroke="midnightblue" d="M465.804,-260.937C455.389,-251.679 442.346,-240.086 430.93,-229.938"/>
<polygon fill="midnightblue" stroke="midnightblue" points="433.138,-227.218 423.339,-223.19 428.488,-232.45 433.138,-227.218"/>
</g>
<!-- Node6 -->
<g id="node12" class="node"><title>Node6</title>
<polygon fill="white" stroke="#bfbfbf" points="209.5,-65.5 209.5,-86.5 250.5,-86.5 250.5,-65.5 209.5,-65.5"/>
<text text-anchor="middle" x="230" y="-73.5" font-family="Helvetica,sans-Serif" font-size="10.00">string</text>
</g>
<!-- Node1&#45;&gt;Node6 -->
<g id="edge54" class="edge"><title>Node1&#45;&gt;Node6</title>
<path fill="none" stroke="midnightblue" d="M438.436,-272.571C401.578,-266.228 350.559,-252.668 315,-224 272.514,-189.747 247.165,-128.175 236.285,-96.3222"/>
<polygon fill="midnightblue" stroke="midnightblue" points="239.586,-95.1551 233.146,-86.7419 232.933,-97.3346 239.586,-95.1551"/>
</g>
<!-- Node15 -->
<g id="node31" class="node"><title>Node15</title>
<polygon fill="white" stroke="#bfbfbf" points="908,-65.5 908,-86.5 948,-86.5 948,-65.5 908,-65.5"/>
<text text-anchor="middle" x="928" y="-73.5" font-family="Helvetica,sans-Serif" font-size="10.00">limits</text>
</g>
<!-- Node1&#45;&gt;Node15 -->
<g id="edge58" class="edge"><title>Node1&#45;&gt;Node15</title>
<path fill="none" stroke="midnightblue" d="M528.535,-260.958C605.006,-230.518 767.79,-163.457 899,-94 900.309,-93.3069 901.639,-92.5775 902.974,-91.8256"/>
<polygon fill="midnightblue" stroke="midnightblue" points="904.844,-94.7858 911.667,-86.6803 901.279,-88.7618 904.844,-94.7858"/>
</g>
<!-- Node18 -->
<g id="node37" class="node"><title>Node18</title>
<polygon fill="white" stroke="#bfbfbf" points="438,-65.5 438,-86.5 490,-86.5 490,-65.5 438,-65.5"/>
<text text-anchor="middle" x="464" y="-73.5" font-family="Helvetica,sans-Serif" font-size="10.00">memory</text>
</g>
<!-- Node1&#45;&gt;Node18 -->
<g id="edge52" class="edge"><title>Node1&#45;&gt;Node18</title>
<path fill="none" stroke="midnightblue" d="M487.842,-260.895C491.908,-233.088 497.87,-176.509 488,-130 485.476,-118.108 480.147,-105.655 475.149,-95.708"/>
<polygon fill="midnightblue" stroke="midnightblue" points="478.156,-93.9062 470.379,-86.7105 471.971,-97.1851 478.156,-93.9062"/>
</g>
<!-- Node19 -->
<g id="node39" class="node"><title>Node19</title>
<polygon fill="white" stroke="#bfbfbf" points="302.5,-65.5 302.5,-86.5 331.5,-86.5 331.5,-65.5 302.5,-65.5"/>
<text text-anchor="middle" x="317" y="-73.5" font-family="Helvetica,sans-Serif" font-size="10.00">list</text>
</g>
<!-- Node1&#45;&gt;Node19 -->
<g id="edge50" class="edge"><title>Node1&#45;&gt;Node19</title>
<path fill="none" stroke="midnightblue" d="M438.367,-272.378C405.973,-266.025 364.247,-252.542 339,-224 307.577,-188.475 309.785,-128.343 313.637,-96.7724"/>
<polygon fill="midnightblue" stroke="midnightblue" points="317.15,-96.9208 315.071,-86.532 310.218,-95.9499 317.15,-96.9208"/>
</g>
<!-- Node20 -->
<g id="node48" class="node"><title>Node20</title>
<polygon fill="white" stroke="#bfbfbf" points="741.5,-195.5 741.5,-216.5 782.5,-216.5 782.5,-195.5 741.5,-195.5"/>
<text text-anchor="middle" x="762" y="-203.5" font-family="Helvetica,sans-Serif" font-size="10.00">stack</text>
</g>
<!-- Node1&#45;&gt;Node20 -->
<g id="edge56" class="edge"><title>Node1&#45;&gt;Node20</title>
<path fill="none" stroke="midnightblue" d="M531.736,-271.434C581.456,-263.576 661.895,-248.339 728,-224 730.274,-223.163 732.586,-222.201 734.88,-221.168"/>
<polygon fill="midnightblue" stroke="midnightblue" points="736.639,-224.203 744.064,-216.645 733.546,-217.923 736.639,-224.203"/>
</g>
<!-- Node21 -->
<g id="node51" class="node"><title>Node21</title>
<polygon fill="white" stroke="#bfbfbf" points="799.5,-195.5 799.5,-216.5 864.5,-216.5 864.5,-195.5 799.5,-195.5"/>
<text text-anchor="middle" x="832" y="-203.5" font-family="Helvetica,sans-Serif" font-size="10.00">TCanvas.h</text>
</g>
<!-- Node1&#45;&gt;Node21 -->
<g id="edge60" class="edge"><title>Node1&#45;&gt;Node21</title>
<path fill="none" stroke="midnightblue" d="M531.685,-273.276C592.4,-266.339 701.296,-251.178 791,-224 794.376,-222.977 797.843,-221.752 801.263,-220.427"/>
<polygon fill="midnightblue" stroke="midnightblue" points="802.772,-223.59 810.662,-216.519 800.085,-217.126 802.772,-223.59"/>
</g>
<!-- Node3 -->
<g id="node5" class="node"><title>Node3</title>
<polygon fill="white" stroke="#bfbfbf" points="260,-0.5 260,-21.5 316,-21.5 316,-0.5 260,-0.5"/>
<text text-anchor="middle" x="288" y="-8.5" font-family="Helvetica,sans-Serif" font-size="10.00">Rtypes.h</text>
</g>
<!-- Node2&#45;&gt;Node3 -->
<g id="edge4" class="edge"><title>Node2&#45;&gt;Node3</title>
<path fill="none" stroke="midnightblue" d="M116.634,-59.4296C158.605,-47.5682 213.883,-31.946 250.155,-21.6954"/>
<polygon fill="midnightblue" stroke="midnightblue" points="251.183,-25.042 259.854,-18.9543 249.279,-18.3058 251.183,-25.042"/>
</g>
<!-- Node4&#45;&gt;Node2 -->
<g id="edge16" class="edge"><title>Node4&#45;&gt;Node2</title>
<path fill="none" stroke="midnightblue" d="M347.743,-202.162C270.021,-195.864 134.962,-181.03 96,-152 80.0323,-140.103 70.3386,-119.622 64.742,-102.917"/>
<polygon fill="midnightblue" stroke="midnightblue" points="68.0204,-101.667 61.7672,-93.1144 61.322,-103.7 68.0204,-101.667"/>
</g>
<!-- Node4&#45;&gt;Node3 -->
<g id="edge42" class="edge"><title>Node4&#45;&gt;Node3</title>
<path fill="none" stroke="midnightblue" d="M444.395,-188.769C460.327,-180.003 477.335,-167.81 488,-152 511.522,-117.129 525.312,-90.8174 499,-58 477.772,-31.5237 381.24,-18.9998 326.39,-13.9282"/>
<polygon fill="midnightblue" stroke="midnightblue" points="326.605,-10.4337 316.336,-13.0388 325.988,-17.4064 326.605,-10.4337"/>
</g>
<!-- Node5 -->
<g id="node9" class="node"><title>Node5</title>
<a xlink:href="_knobs_t_f1_8h.html" target="_top" xlink:title="KnobsTF1.h">
<polygon fill="white" stroke="black" points="105,-130.5 105,-151.5 175,-151.5 175,-130.5 105,-130.5"/>
<text text-anchor="middle" x="140" y="-138.5" font-family="Helvetica,sans-Serif" font-size="10.00">KnobsTF1.h</text>
</a>
</g>
<!-- Node4&#45;&gt;Node5 -->
<g id="edge8" class="edge"><title>Node4&#45;&gt;Node5</title>
<path fill="none" stroke="midnightblue" d="M347.689,-192.136C299.118,-180.177 229.896,-163.134 184.958,-152.069"/>
<polygon fill="midnightblue" stroke="midnightblue" points="185.745,-148.659 175.198,-149.666 184.072,-155.456 185.745,-148.659"/>
</g>
<!-- Node4&#45;&gt;Node6 -->
<g id="edge48" class="edge"><title>Node4&#45;&gt;Node6</title>
<path fill="none" stroke="midnightblue" d="M376.537,-188.965C360.368,-178.678 339.684,-165.068 322,-152 296.137,-132.888 267.813,-109.011 249.521,-93.1739"/>
<polygon fill="midnightblue" stroke="midnightblue" points="251.708,-90.4369 241.868,-86.5093 247.111,-95.7159 251.708,-90.4369"/>
</g>
<!-- Node8 -->
<g id="node17" class="node"><title>Node8</title>
<a xlink:href="interval_8h.html" target="_top" xlink:title="base/interval.h">
<polygon fill="white" stroke="black" points="606,-130.5 606,-151.5 686,-151.5 686,-130.5 606,-130.5"/>
<text text-anchor="middle" x="646" y="-138.5" font-family="Helvetica,sans-Serif" font-size="10.00">base/interval.h</text>
</a>
</g>
<!-- Node4&#45;&gt;Node8 -->
<g id="edge18" class="edge"><title>Node4&#45;&gt;Node8</title>
<path fill="none" stroke="midnightblue" d="M460.128,-190.924C501.575,-179.792 557.441,-164.786 597.074,-154.141"/>
<polygon fill="midnightblue" stroke="midnightblue" points="598.032,-157.508 606.782,-151.534 596.217,-150.748 598.032,-157.508"/>
</g>
<!-- Node17 -->
<g id="node35" class="node"><title>Node17</title>
<a xlink:href="memory_8h.html" target="_top" xlink:title="base/std_ext/memory.h">
<polygon fill="white" stroke="black" points="344.5,-130.5 344.5,-151.5 463.5,-151.5 463.5,-130.5 344.5,-130.5"/>
<text text-anchor="middle" x="404" y="-138.5" font-family="Helvetica,sans-Serif" font-size="10.00">base/std_ext/memory.h</text>
</a>
</g>
<!-- Node4&#45;&gt;Node17 -->
<g id="edge36" class="edge"><title>Node4&#45;&gt;Node17</title>
<path fill="none" stroke="midnightblue" d="M404,-188.922C404,-180.67 404,-170.692 404,-161.982"/>
<polygon fill="midnightblue" stroke="midnightblue" points="407.5,-161.852 404,-151.852 400.5,-161.852 407.5,-161.852"/>
</g>
<!-- Node4&#45;&gt;Node18 -->
<g id="edge44" class="edge"><title>Node4&#45;&gt;Node18</title>
<path fill="none" stroke="midnightblue" d="M436.658,-188.873C450.226,-179.877 464.527,-167.476 472,-152 480.39,-134.624 476.665,-112.462 471.882,-96.5596"/>
<polygon fill="midnightblue" stroke="midnightblue" points="475.062,-95.0352 468.538,-86.6865 468.431,-97.2808 475.062,-95.0352"/>
</g>
<!-- Node4&#45;&gt;Node19 -->
<g id="edge46" class="edge"><title>Node4&#45;&gt;Node19</title>
<path fill="none" stroke="midnightblue" d="M374.422,-188.879C360.834,-179.595 345.634,-166.954 336,-152 325.228,-135.279 320.562,-112.859 318.542,-96.7084"/>
<polygon fill="midnightblue" stroke="midnightblue" points="322.016,-96.2716 317.524,-86.6762 315.052,-96.9786 322.016,-96.2716"/>
</g>
<!-- Node5&#45;&gt;Node2 -->
<g id="edge10" class="edge"><title>Node5&#45;&gt;Node2</title>
<path fill="none" stroke="midnightblue" d="M126.459,-130.267C115.912,-121.906 100.877,-109.988 87.5819,-99.4491"/>
<polygon fill="midnightblue" stroke="midnightblue" points="89.5955,-96.579 79.5847,-93.1099 85.2472,-102.065 89.5955,-96.579"/>
</g>
<!-- Node5&#45;&gt;Node6 -->
<g id="edge12" class="edge"><title>Node5&#45;&gt;Node6</title>
<path fill="none" stroke="midnightblue" d="M154.862,-130.267C169.016,-120.044 190.533,-104.504 206.919,-92.6699"/>
<polygon fill="midnightblue" stroke="midnightblue" points="209.357,-95.226 215.415,-86.5337 205.259,-89.5513 209.357,-95.226"/>
</g>
<!-- Node7 -->
<g id="node14" class="node"><title>Node7</title>
<polygon fill="white" stroke="#bfbfbf" points="133.5,-65.5 133.5,-86.5 192.5,-86.5 192.5,-65.5 133.5,-65.5"/>
<text text-anchor="middle" x="163" y="-73.5" font-family="Helvetica,sans-Serif" font-size="10.00">functional</text>
</g>
<!-- Node5&#45;&gt;Node7 -->
<g id="edge14" class="edge"><title>Node5&#45;&gt;Node7</title>
<path fill="none" stroke="midnightblue" d="M143.798,-130.267C147.08,-120.991 151.912,-107.336 155.907,-96.0453"/>
<polygon fill="midnightblue" stroke="midnightblue" points="159.236,-97.1285 159.273,-86.5337 152.637,-94.7934 159.236,-97.1285"/>
</g>
<!-- Node9 -->
<g id="node19" class="node"><title>Node9</title>
<a xlink:href="printable_8h.html" target="_top" xlink:title="printable.h">
<polygon fill="white" stroke="black" points="688,-65.5 688,-86.5 750,-86.5 750,-65.5 688,-65.5"/>
<text text-anchor="middle" x="719" y="-73.5" font-family="Helvetica,sans-Serif" font-size="10.00">printable.h</text>
</a>
</g>
<!-- Node8&#45;&gt;Node9 -->
<g id="edge20" class="edge"><title>Node8&#45;&gt;Node9</title>
<path fill="none" stroke="midnightblue" d="M658.054,-130.267C669.323,-120.233 686.343,-105.078 699.536,-93.3311"/>
<polygon fill="midnightblue" stroke="midnightblue" points="702.029,-95.7977 707.17,-86.5337 697.374,-90.5698 702.029,-95.7977"/>
</g>
<!-- Node12 -->
<g id="node25" class="node"><title>Node12</title>
<a xlink:href="types_8h.html" target="_top" xlink:title="types.h">
<polygon fill="white" stroke="black" points="767.5,-65.5 767.5,-86.5 816.5,-86.5 816.5,-65.5 767.5,-65.5"/>
<text text-anchor="middle" x="792" y="-73.5" font-family="Helvetica,sans-Serif" font-size="10.00">types.h</text>
</a>
</g>
<!-- Node8&#45;&gt;Node12 -->
<g id="edge26" class="edge"><title>Node8&#45;&gt;Node12</title>
<path fill="none" stroke="midnightblue" d="M673.757,-130.4C696.853,-121.356 730.449,-107.678 759,-94 760.766,-93.1541 762.571,-92.2593 764.382,-91.3387"/>
<polygon fill="midnightblue" stroke="midnightblue" points="766.113,-94.3829 773.33,-86.6268 762.851,-88.189 766.113,-94.3829"/>
</g>
<!-- Node13 -->
<g id="node27" class="node"><title>Node13</title>
<polygon fill="white" stroke="#bfbfbf" points="834,-65.5 834,-86.5 890,-86.5 890,-65.5 834,-65.5"/>
<text text-anchor="middle" x="862" y="-73.5" font-family="Helvetica,sans-Serif" font-size="10.00">algorithm</text>
</g>
<!-- Node8&#45;&gt;Node13 -->
<g id="edge28" class="edge"><title>Node8&#45;&gt;Node13</title>
<path fill="none" stroke="midnightblue" d="M686.151,-132.826C722.891,-124.793 778.451,-111.244 825,-94 827.55,-93.0555 830.159,-91.9939 832.754,-90.871"/>
<polygon fill="midnightblue" stroke="midnightblue" points="834.336,-93.9957 841.957,-86.635 831.409,-87.637 834.336,-93.9957"/>
</g>
<!-- Node14 -->
<g id="node29" class="node"><title>Node14</title>
<polygon fill="white" stroke="#bfbfbf" points="545.5,-65.5 545.5,-86.5 604.5,-86.5 604.5,-65.5 545.5,-65.5"/>
<text text-anchor="middle" x="575" y="-73.5" font-family="Helvetica,sans-Serif" font-size="10.00">stdexcept</text>
</g>
<!-- Node8&#45;&gt;Node14 -->
<g id="edge30" class="edge"><title>Node8&#45;&gt;Node14</title>
<path fill="none" stroke="midnightblue" d="M634.276,-130.267C623.316,-120.233 606.762,-105.078 593.931,-93.3311"/>
<polygon fill="midnightblue" stroke="midnightblue" points="596.245,-90.7047 586.506,-86.5337 591.519,-95.8678 596.245,-90.7047"/>
</g>
<!-- Node8&#45;&gt;Node15 -->
<g id="edge32" class="edge"><title>Node8&#45;&gt;Node15</title>
<path fill="none" stroke="midnightblue" d="M686.085,-132.732C690.773,-131.796 695.49,-130.867 700,-130 788.263,-113.029 815.113,-126.27 899,-94 900.825,-93.2979 902.662,-92.4777 904.476,-91.5816"/>
<polygon fill="midnightblue" stroke="midnightblue" points="906.216,-94.6187 913.212,-86.6625 902.782,-88.5191 906.216,-94.6187"/>
</g>
<!-- Node16 -->
<g id="node33" class="node"><title>Node16</title>
<polygon fill="white" stroke="#bfbfbf" points="621.5,-65.5 621.5,-86.5 670.5,-86.5 670.5,-65.5 621.5,-65.5"/>
<text text-anchor="middle" x="646" y="-73.5" font-family="Helvetica,sans-Serif" font-size="10.00">istream</text>
</g>
<!-- Node8&#45;&gt;Node16 -->
<g id="edge34" class="edge"><title>Node8&#45;&gt;Node16</title>
<path fill="none" stroke="midnightblue" d="M646,-130.267C646,-121.18 646,-107.892 646,-96.7395"/>
<polygon fill="midnightblue" stroke="midnightblue" points="649.5,-96.5337 646,-86.5337 642.5,-96.5337 649.5,-96.5337"/>
</g>
<!-- Node10 -->
<g id="node21" class="node"><title>Node10</title>
<polygon fill="white" stroke="#bfbfbf" points="725,-0.5 725,-21.5 787,-21.5 787,-0.5 725,-0.5"/>
<text text-anchor="middle" x="756" y="-8.5" font-family="Helvetica,sans-Serif" font-size="10.00">type_traits</text>
</g>
<!-- Node9&#45;&gt;Node10 -->
<g id="edge22" class="edge"><title>Node9&#45;&gt;Node10</title>
<path fill="none" stroke="midnightblue" d="M725.11,-65.2666C730.498,-55.8013 738.481,-41.7773 744.981,-30.3571"/>
<polygon fill="midnightblue" stroke="midnightblue" points="748.099,-31.9558 750.004,-21.5337 742.015,-28.4929 748.099,-31.9558"/>
</g>
<!-- Node11 -->
<g id="node23" class="node"><title>Node11</title>
<polygon fill="white" stroke="#bfbfbf" points="655,-0.5 655,-21.5 707,-21.5 707,-0.5 655,-0.5"/>
<text text-anchor="middle" x="681" y="-8.5" font-family="Helvetica,sans-Serif" font-size="10.00">ostream</text>
</g>
<!-- Node9&#45;&gt;Node11 -->
<g id="edge24" class="edge"><title>Node9&#45;&gt;Node11</title>
<path fill="none" stroke="midnightblue" d="M712.725,-65.2666C707.192,-55.8013 698.993,-41.7773 692.316,-30.3571"/>
<polygon fill="midnightblue" stroke="midnightblue" points="695.227,-28.4002 687.158,-21.5337 689.184,-31.9331 695.227,-28.4002"/>
</g>
<!-- Node17&#45;&gt;Node18 -->
<g id="edge38" class="edge"><title>Node17&#45;&gt;Node18</title>
<path fill="none" stroke="midnightblue" d="M413.908,-130.267C422.994,-120.423 436.633,-105.648 447.385,-93.9996"/>
<polygon fill="midnightblue" stroke="midnightblue" points="450.066,-96.2558 454.277,-86.5337 444.922,-91.5078 450.066,-96.2558"/>
</g>
<!-- Node17&#45;&gt;Node19 -->
<g id="edge40" class="edge"><title>Node17&#45;&gt;Node19</title>
<path fill="none" stroke="midnightblue" d="M389.634,-130.267C375.951,-120.044 355.152,-104.504 339.312,-92.6699"/>
<polygon fill="midnightblue" stroke="midnightblue" points="341.205,-89.7151 331.099,-86.5337 337.015,-95.3229 341.205,-89.7151"/>
</g>
</g>
</svg>
