<?xml version="1.0" encoding="UTF-8" standalone="no"?>
<!DOCTYPE svg PUBLIC "-//W3C//DTD SVG 1.1//EN"
 "http://www.w3.org/Graphics/SVG/1.1/DTD/svg11.dtd">
<!-- Generated by graphviz version 2.26.3 (20100126.1600)
 -->
<!-- Title: src/calibration/gui/CalCanvas.cc Pages: 1 -->
<svg width="1057pt" height="362pt"
 viewBox="0.00 0.00 1057.00 362.00" xmlns="http://www.w3.org/2000/svg" xmlns:xlink="http://www.w3.org/1999/xlink">
<g id="graph1" class="graph" transform="scale(1 1) rotate(0) translate(4 358)">
<title>src/calibration/gui/CalCanvas.cc</title>
<polygon fill="white" stroke="white" points="-4,5 -4,-358 1054,-358 1054,5 -4,5"/>
<!-- Node1 -->
<g id="node1" class="node"><title>Node1</title>
<polygon fill="#bfbfbf" stroke="black" points="605.5,-319 605.5,-353 698.5,-353 698.5,-319 605.5,-319"/>
<text text-anchor="start" x="613.5" y="-340" font-family="Helvetica,sans-Serif" font-size="10.00">src/calibration/gui</text>
<text text-anchor="middle" x="652" y="-327" font-family="Helvetica,sans-Serif" font-size="10.00">/CalCanvas.cc</text>
</g>
<!-- Node2 -->
<g id="node3" class="node"><title>Node2</title>
<a xlink:href="_cal_canvas_8h.html" target="_top" xlink:title="CalCanvas.h">
<polygon fill="white" stroke="black" points="201,-260.5 201,-281.5 275,-281.5 275,-260.5 201,-260.5"/>
<text text-anchor="middle" x="238" y="-268.5" font-family="Helvetica,sans-Serif" font-size="10.00">CalCanvas.h</text>
</a>
</g>
<!-- Node1&#45;&gt;Node2 -->
<g id="edge2" class="edge"><title>Node1&#45;&gt;Node2</title>
<path fill="none" stroke="midnightblue" d="M605.314,-328.67C525.879,-316.198 365.291,-290.985 285.384,-278.439"/>
<polygon fill="midnightblue" stroke="midnightblue" points="285.545,-274.922 275.123,-276.829 284.459,-281.837 285.545,-274.922"/>
</g>
<!-- Node5 -->
<g id="node9" class="node"><title>Node5</title>
<a xlink:href="_fit_function_8h.html" target="_top" xlink:title="calibration/fitfunctions\l/FitFunction.h">
<polygon fill="white" stroke="black" points="288,-189 288,-223 400,-223 400,-189 288,-189"/>
<text text-anchor="start" x="296" y="-210" font-family="Helvetica,sans-Serif" font-size="10.00">calibration/fitfunctions</text>
<text text-anchor="middle" x="344" y="-197" font-family="Helvetica,sans-Serif" font-size="10.00">/FitFunction.h</text>
</a>
</g>
<!-- Node1&#45;&gt;Node5 -->
<g id="edge76" class="edge"><title>Node1&#45;&gt;Node5</title>
<path fill="none" stroke="midnightblue" d="M605.236,-326.62C566.157,-317.854 509.514,-302.958 463,-282 431.291,-267.713 398.179,-245.919 374.958,-229.327"/>
<polygon fill="midnightblue" stroke="midnightblue" points="376.718,-226.281 366.566,-223.25 372.612,-231.95 376.718,-226.281"/>
</g>
<!-- Node23 -->
<g id="node55" class="node"><title>Node23</title>
<a xlink:href="_indicator_8h.html" target="_top" xlink:title="Indicator.h">
<polygon fill="white" stroke="black" points="456,-130.5 456,-151.5 518,-151.5 518,-130.5 456,-130.5"/>
<text text-anchor="middle" x="487" y="-138.5" font-family="Helvetica,sans-Serif" font-size="10.00">Indicator.h</text>
</a>
</g>
<!-- Node1&#45;&gt;Node23 -->
<g id="edge64" class="edge"><title>Node1&#45;&gt;Node23</title>
<path fill="none" stroke="midnightblue" d="M605.384,-325.861C564.507,-315.949 509.54,-299.788 496,-282 469.256,-246.868 475.672,-191.43 481.838,-161.612"/>
<polygon fill="midnightblue" stroke="midnightblue" points="485.325,-162.06 484.119,-151.534 478.498,-160.514 485.325,-162.06"/>
</g>
<!-- Node25 -->
<g id="node61" class="node"><title>Node25</title>
<a xlink:href="_logger_8h.html" target="_top" xlink:title="base/Logger.h">
<polygon fill="white" stroke="black" points="505,-260.5 505,-281.5 583,-281.5 583,-260.5 505,-260.5"/>
<text text-anchor="middle" x="544" y="-268.5" font-family="Helvetica,sans-Serif" font-size="10.00">base/Logger.h</text>
</a>
</g>
<!-- Node1&#45;&gt;Node25 -->
<g id="edge72" class="edge"><title>Node1&#45;&gt;Node25</title>
<path fill="none" stroke="midnightblue" d="M623.624,-318.922C607.22,-309.049 586.708,-296.704 570.612,-287.016"/>
<polygon fill="midnightblue" stroke="midnightblue" points="572.082,-283.816 561.709,-281.658 568.472,-289.814 572.082,-283.816"/>
</g>
<!-- Node27 -->
<g id="node66" class="node"><title>Node27</title>
<polygon fill="white" stroke="#bfbfbf" points="601,-260.5 601,-281.5 643,-281.5 643,-260.5 601,-260.5"/>
<text text-anchor="middle" x="622" y="-268.5" font-family="Helvetica,sans-Serif" font-size="10.00">TF1.h</text>
</g>
<!-- Node1&#45;&gt;Node27 -->
<g id="edge78" class="edge"><title>Node1&#45;&gt;Node27</title>
<path fill="none" stroke="midnightblue" d="M644.118,-318.922C640.182,-310.395 635.396,-300.025 631.284,-291.115"/>
<polygon fill="midnightblue" stroke="midnightblue" points="634.377,-289.465 627.009,-281.852 628.021,-292.398 634.377,-289.465"/>
</g>
<!-- Node28 -->
<g id="node68" class="node"><title>Node28</title>
<polygon fill="white" stroke="#bfbfbf" points="661,-260.5 661,-281.5 705,-281.5 705,-260.5 661,-260.5"/>
<text text-anchor="middle" x="683" y="-268.5" font-family="Helvetica,sans-Serif" font-size="10.00">TH1.h</text>
</g>
<!-- Node1&#45;&gt;Node28 -->
<g id="edge80" class="edge"><title>Node1&#45;&gt;Node28</title>
<path fill="none" stroke="midnightblue" d="M660.145,-318.922C664.211,-310.395 669.157,-300.025 673.407,-291.115"/>
<polygon fill="midnightblue" stroke="midnightblue" points="676.679,-292.385 677.824,-281.852 670.36,-289.371 676.679,-292.385"/>
</g>
<!-- Node29 -->
<g id="node70" class="node"><title>Node29</title>
<polygon fill="white" stroke="#bfbfbf" points="723,-260.5 723,-281.5 809,-281.5 809,-260.5 723,-260.5"/>
<text text-anchor="middle" x="766" y="-268.5" font-family="Helvetica,sans-Serif" font-size="10.00">TRootCanvas.h</text>
</g>
<!-- Node1&#45;&gt;Node29 -->
<g id="edge82" class="edge"><title>Node1&#45;&gt;Node29</title>
<path fill="none" stroke="midnightblue" d="M681.952,-318.922C699.43,-308.957 721.324,-296.473 738.385,-286.745"/>
<polygon fill="midnightblue" stroke="midnightblue" points="740.353,-289.652 747.307,-281.658 736.886,-283.571 740.353,-289.652"/>
</g>
<!-- Node30 -->
<g id="node72" class="node"><title>Node30</title>
<polygon fill="white" stroke="#bfbfbf" points="827,-260.5 827,-281.5 909,-281.5 909,-260.5 827,-260.5"/>
<text text-anchor="middle" x="868" y="-268.5" font-family="Helvetica,sans-Serif" font-size="10.00">TGStatusBar.h</text>
</g>
<!-- Node1&#45;&gt;Node30 -->
<g id="edge84" class="edge"><title>Node1&#45;&gt;Node30</title>
<path fill="none" stroke="midnightblue" d="M698.603,-321.976C735.445,-310.889 786.562,-295.507 822.986,-284.546"/>
<polygon fill="midnightblue" stroke="midnightblue" points="824.278,-287.812 832.846,-281.579 822.261,-281.109 824.278,-287.812"/>
</g>
<!-- Node31 -->
<g id="node74" class="node"><title>Node31</title>
<polygon fill="white" stroke="#bfbfbf" points="926.5,-260.5 926.5,-281.5 979.5,-281.5 979.5,-260.5 926.5,-260.5"/>
<text text-anchor="middle" x="953" y="-268.5" font-family="Helvetica,sans-Serif" font-size="10.00">TExec.h</text>
</g>
<!-- Node1&#45;&gt;Node31 -->
<g id="edge86" class="edge"><title>Node1&#45;&gt;Node31</title>
<path fill="none" stroke="midnightblue" d="M698.946,-327.999C750.272,-318.912 835.077,-302.906 916.428,-282.24"/>
<polygon fill="midnightblue" stroke="midnightblue" points="917.515,-285.575 926.33,-279.697 915.773,-278.795 917.515,-285.575"/>
</g>
<!-- Node32 -->
<g id="node76" class="node"><title>Node32</title>
<polygon fill="white" stroke="#bfbfbf" points="997,-260.5 997,-281.5 1049,-281.5 1049,-260.5 997,-260.5"/>
<text text-anchor="middle" x="1023" y="-268.5" font-family="Helvetica,sans-Serif" font-size="10.00">sstream</text>
</g>
<!-- Node1&#45;&gt;Node32 -->
<g id="edge88" class="edge"><title>Node1&#45;&gt;Node32</title>
<path fill="none" stroke="midnightblue" d="M698.615,-330.681C761.964,-322.976 878.834,-307.073 986.975,-281.998"/>
<polygon fill="midnightblue" stroke="midnightblue" points="987.807,-285.398 996.74,-279.703 986.205,-278.584 987.807,-285.398"/>
</g>
<!-- Node3 -->
<g id="node5" class="node"><title>Node3</title>
<a xlink:href="_indicator__traits_8h.html" target="_top" xlink:title="calibration/gui/Indicator\l_traits.h">
<polygon fill="white" stroke="black" points="335.5,-59 335.5,-93 452.5,-93 452.5,-59 335.5,-59"/>
<text text-anchor="start" x="343.5" y="-80" font-family="Helvetica,sans-Serif" font-size="10.00">calibration/gui/Indicator</text>
<text text-anchor="middle" x="394" y="-67" font-family="Helvetica,sans-Serif" font-size="10.00">_traits.h</text>
</a>
</g>
<!-- Node2&#45;&gt;Node3 -->
<g id="edge4" class="edge"><title>Node2&#45;&gt;Node3</title>
<path fill="none" stroke="midnightblue" d="M275.178,-266.061C320.439,-259.198 392.855,-245.181 409,-224 435.816,-188.819 420.034,-134.463 406.651,-102.339"/>
<polygon fill="midnightblue" stroke="midnightblue" points="409.838,-100.89 402.625,-93.1291 403.424,-103.694 409.838,-100.89"/>
</g>
<!-- Node2&#45;&gt;Node5 -->
<g id="edge8" class="edge"><title>Node2&#45;&gt;Node5</title>
<path fill="none" stroke="midnightblue" d="M255.504,-260.267C269.525,-251.669 289.679,-239.31 307.214,-228.558"/>
<polygon fill="midnightblue" stroke="midnightblue" points="309.403,-231.321 316.098,-223.11 305.743,-225.354 309.403,-231.321"/>
</g>
<!-- Node7 -->
<g id="node14" class="node"><title>Node7</title>
<polygon fill="white" stroke="#bfbfbf" points="201.5,-65.5 201.5,-86.5 242.5,-86.5 242.5,-65.5 201.5,-65.5"/>
<text text-anchor="middle" x="222" y="-73.5" font-family="Helvetica,sans-Serif" font-size="10.00">string</text>
</g>
<!-- Node2&#45;&gt;Node7 -->
<g id="edge56" class="edge"><title>Node2&#45;&gt;Node7</title>
<path fill="none" stroke="midnightblue" d="M200.764,-263.689C178.716,-257.239 152.522,-245.389 139,-224 130.45,-210.476 133.553,-203.044 139,-188 146.09,-168.417 156.365,-168.557 169,-152 183.385,-133.15 198.776,-110.81 209.246,-95.2487"/>
<polygon fill="midnightblue" stroke="midnightblue" points="212.428,-96.7862 215.075,-86.5275 206.608,-92.8961 212.428,-96.7862"/>
</g>
<!-- Node16 -->
<g id="node33" class="node"><title>Node16</title>
<polygon fill="white" stroke="#bfbfbf" points="574,-65.5 574,-86.5 614,-86.5 614,-65.5 574,-65.5"/>
<text text-anchor="middle" x="594" y="-73.5" font-family="Helvetica,sans-Serif" font-size="10.00">limits</text>
</g>
<!-- Node2&#45;&gt;Node16 -->
<g id="edge60" class="edge"><title>Node2&#45;&gt;Node16</title>
<path fill="none" stroke="midnightblue" d="M275.038,-266.636C339.127,-257.187 471.197,-229.079 548,-152 564.317,-135.624 577.297,-112.37 585.253,-95.9066"/>
<polygon fill="midnightblue" stroke="midnightblue" points="588.511,-97.1999 589.542,-86.6554 582.16,-94.2552 588.511,-97.1999"/>
</g>
<!-- Node19 -->
<g id="node39" class="node"><title>Node19</title>
<polygon fill="white" stroke="#bfbfbf" points="103,-65.5 103,-86.5 155,-86.5 155,-65.5 103,-65.5"/>
<text text-anchor="middle" x="129" y="-73.5" font-family="Helvetica,sans-Serif" font-size="10.00">memory</text>
</g>
<!-- Node2&#45;&gt;Node19 -->
<g id="edge54" class="edge"><title>Node2&#45;&gt;Node19</title>
<path fill="none" stroke="midnightblue" d="M200.835,-262.586C151.203,-249.046 65.7363,-217.068 33,-152 17.5222,-121.236 60.0815,-98.9721 93.4199,-86.7707"/>
<polygon fill="midnightblue" stroke="midnightblue" points="94.6632,-90.0441 102.958,-83.4531 92.3635,-83.4325 94.6632,-90.0441"/>
</g>
<!-- Node20 -->
<g id="node41" class="node"><title>Node20</title>
<polygon fill="white" stroke="#bfbfbf" points="-0.5,-65.5 -0.5,-86.5 28.5,-86.5 28.5,-65.5 -0.5,-65.5"/>
<text text-anchor="middle" x="14" y="-73.5" font-family="Helvetica,sans-Serif" font-size="10.00">list</text>
</g>
<!-- Node2&#45;&gt;Node20 -->
<g id="edge52" class="edge"><title>Node2&#45;&gt;Node20</title>
<path fill="none" stroke="midnightblue" d="M200.947,-265.414C154.26,-257.715 77.5117,-242.654 56,-224 18.8155,-191.756 13.4014,-129.247 13.2865,-96.7507"/>
<polygon fill="midnightblue" stroke="midnightblue" points="16.7881,-96.6531 13.4235,-86.6067 9.7887,-96.5585 16.7881,-96.6531"/>
</g>
<!-- Node21 -->
<g id="node50" class="node"><title>Node21</title>
<polygon fill="white" stroke="#bfbfbf" points="147.5,-195.5 147.5,-216.5 188.5,-216.5 188.5,-195.5 147.5,-195.5"/>
<text text-anchor="middle" x="168" y="-203.5" font-family="Helvetica,sans-Serif" font-size="10.00">stack</text>
</g>
<!-- Node2&#45;&gt;Node21 -->
<g id="edge58" class="edge"><title>Node2&#45;&gt;Node21</title>
<path fill="none" stroke="midnightblue" d="M226.441,-260.267C215.738,-250.328 199.622,-235.363 187.023,-223.664"/>
<polygon fill="midnightblue" stroke="midnightblue" points="189.054,-220.773 179.344,-216.534 184.29,-225.903 189.054,-220.773"/>
</g>
<!-- Node22 -->
<g id="node53" class="node"><title>Node22</title>
<polygon fill="white" stroke="#bfbfbf" points="205.5,-195.5 205.5,-216.5 270.5,-216.5 270.5,-195.5 205.5,-195.5"/>
<text text-anchor="middle" x="238" y="-203.5" font-family="Helvetica,sans-Serif" font-size="10.00">TCanvas.h</text>
</g>
<!-- Node2&#45;&gt;Node22 -->
<g id="edge62" class="edge"><title>Node2&#45;&gt;Node22</title>
<path fill="none" stroke="midnightblue" d="M238,-260.267C238,-251.18 238,-237.892 238,-226.74"/>
<polygon fill="midnightblue" stroke="midnightblue" points="241.5,-226.534 238,-216.534 234.5,-226.534 241.5,-226.534"/>
</g>
<!-- Node4 -->
<g id="node7" class="node"><title>Node4</title>
<polygon fill="white" stroke="#bfbfbf" points="442,-0.5 442,-21.5 498,-21.5 498,-0.5 442,-0.5"/>
<text text-anchor="middle" x="470" y="-8.5" font-family="Helvetica,sans-Serif" font-size="10.00">Rtypes.h</text>
</g>
<!-- Node3&#45;&gt;Node4 -->
<g id="edge6" class="edge"><title>Node3&#45;&gt;Node4</title>
<path fill="none" stroke="midnightblue" d="M413.968,-58.922C424.903,-49.5702 438.43,-38.0007 449.454,-28.5724"/>
<polygon fill="midnightblue" stroke="midnightblue" points="451.987,-31.0117 457.311,-21.8521 447.437,-25.6919 451.987,-31.0117"/>
</g>
<!-- Node5&#45;&gt;Node3 -->
<g id="edge18" class="edge"><title>Node5&#45;&gt;Node3</title>
<path fill="none" stroke="midnightblue" d="M353.522,-188.834C359.078,-178.388 365.962,-164.66 371,-152 377.317,-136.128 382.907,-117.813 386.995,-103.141"/>
<polygon fill="midnightblue" stroke="midnightblue" points="390.455,-103.754 389.694,-93.187 383.699,-101.922 390.455,-103.754"/>
</g>
<!-- Node5&#45;&gt;Node4 -->
<g id="edge44" class="edge"><title>Node5&#45;&gt;Node4</title>
<path fill="none" stroke="midnightblue" d="M400.265,-196.931C448.196,-187.921 511.679,-172.495 527,-152 552.014,-118.538 544.819,-95.7873 527,-58 521.043,-45.3676 509.841,-34.9782 498.934,-27.2091"/>
<polygon fill="midnightblue" stroke="midnightblue" points="500.629,-24.1346 490.355,-21.5475 496.773,-29.977 500.629,-24.1346"/>
</g>
<!-- Node6 -->
<g id="node11" class="node"><title>Node6</title>
<a xlink:href="_knobs_t_f1_8h.html" target="_top" xlink:title="KnobsTF1.h">
<polygon fill="white" stroke="black" points="292,-130.5 292,-151.5 362,-151.5 362,-130.5 292,-130.5"/>
<text text-anchor="middle" x="327" y="-138.5" font-family="Helvetica,sans-Serif" font-size="10.00">KnobsTF1.h</text>
</a>
</g>
<!-- Node5&#45;&gt;Node6 -->
<g id="edge10" class="edge"><title>Node5&#45;&gt;Node6</title>
<path fill="none" stroke="midnightblue" d="M339.533,-188.922C337.351,-180.579 334.708,-170.47 332.412,-161.692"/>
<polygon fill="midnightblue" stroke="midnightblue" points="335.755,-160.641 329.838,-151.852 328.982,-162.412 335.755,-160.641"/>
</g>
<!-- Node5&#45;&gt;Node7 -->
<g id="edge50" class="edge"><title>Node5&#45;&gt;Node7</title>
<path fill="none" stroke="midnightblue" d="M322.867,-188.83C310.739,-178.607 295.489,-165.107 283,-152 265.536,-133.672 247.647,-110.805 235.797,-94.9661"/>
<polygon fill="midnightblue" stroke="midnightblue" points="238.326,-92.4997 229.566,-86.5402 232.698,-96.6617 238.326,-92.4997"/>
</g>
<!-- Node9 -->
<g id="node19" class="node"><title>Node9</title>
<a xlink:href="interval_8h.html" target="_top" xlink:title="base/interval.h">
<polygon fill="white" stroke="black" points="686,-130.5 686,-151.5 766,-151.5 766,-130.5 686,-130.5"/>
<text text-anchor="middle" x="726" y="-138.5" font-family="Helvetica,sans-Serif" font-size="10.00">base/interval.h</text>
</a>
</g>
<!-- Node5&#45;&gt;Node9 -->
<g id="edge20" class="edge"><title>Node5&#45;&gt;Node9</title>
<path fill="none" stroke="midnightblue" d="M400.365,-196.409C474.742,-183.753 604.537,-161.668 675.731,-149.554"/>
<polygon fill="midnightblue" stroke="midnightblue" points="676.525,-152.969 685.796,-147.841 675.351,-146.068 676.525,-152.969"/>
</g>
<!-- Node18 -->
<g id="node37" class="node"><title>Node18</title>
<a xlink:href="memory_8h.html" target="_top" xlink:title="base/std_ext/memory.h">
<polygon fill="white" stroke="black" points="41.5,-130.5 41.5,-151.5 160.5,-151.5 160.5,-130.5 41.5,-130.5"/>
<text text-anchor="middle" x="101" y="-138.5" font-family="Helvetica,sans-Serif" font-size="10.00">base/std_ext/memory.h</text>
</a>
</g>
<!-- Node5&#45;&gt;Node18 -->
<g id="edge38" class="edge"><title>Node5&#45;&gt;Node18</title>
<path fill="none" stroke="midnightblue" d="M287.992,-190.444C284.951,-189.614 281.939,-188.795 279,-188 235.851,-176.329 186.724,-163.383 151.028,-154.038"/>
<polygon fill="midnightblue" stroke="midnightblue" points="151.893,-150.647 141.332,-151.502 150.121,-157.419 151.893,-150.647"/>
</g>
<!-- Node5&#45;&gt;Node19 -->
<g id="edge46" class="edge"><title>Node5&#45;&gt;Node19</title>
<path fill="none" stroke="midnightblue" d="M315.45,-188.737C273.485,-163.363 195.746,-116.358 155.178,-91.8287"/>
<polygon fill="midnightblue" stroke="midnightblue" points="156.778,-88.7058 146.409,-86.5266 153.156,-94.6959 156.778,-88.7058"/>
</g>
<!-- Node5&#45;&gt;Node20 -->
<g id="edge48" class="edge"><title>Node5&#45;&gt;Node20</title>
<path fill="none" stroke="midnightblue" d="M287.735,-189.956C284.789,-189.261 281.864,-188.604 279,-188 224.939,-176.605 73.9645,-189.072 33,-152 17.7792,-138.225 13.9019,-114.274 13.2829,-96.9349"/>
<polygon fill="midnightblue" stroke="midnightblue" points="16.7824,-96.661 13.2602,-86.6688 9.78244,-96.6765 16.7824,-96.661"/>
</g>
<!-- Node6&#45;&gt;Node3 -->
<g id="edge12" class="edge"><title>Node6&#45;&gt;Node3</title>
<path fill="none" stroke="midnightblue" d="M338.064,-130.267C346.438,-122.142 358.274,-110.659 368.904,-100.347"/>
<polygon fill="midnightblue" stroke="midnightblue" points="371.623,-102.585 376.364,-93.1099 366.749,-97.5609 371.623,-102.585"/>
</g>
<!-- Node6&#45;&gt;Node7 -->
<g id="edge14" class="edge"><title>Node6&#45;&gt;Node7</title>
<path fill="none" stroke="midnightblue" d="M309.79,-130.368C294.383,-120.847 271.177,-106.501 251,-94 249.923,-93.3329 248.824,-92.6517 247.714,-91.9635"/>
<polygon fill="midnightblue" stroke="midnightblue" points="249.515,-88.9618 239.172,-86.6648 245.825,-94.9104 249.515,-88.9618"/>
</g>
<!-- Node8 -->
<g id="node16" class="node"><title>Node8</title>
<polygon fill="white" stroke="#bfbfbf" points="259.5,-65.5 259.5,-86.5 318.5,-86.5 318.5,-65.5 259.5,-65.5"/>
<text text-anchor="middle" x="289" y="-73.5" font-family="Helvetica,sans-Serif" font-size="10.00">functional</text>
</g>
<!-- Node6&#45;&gt;Node8 -->
<g id="edge16" class="edge"><title>Node6&#45;&gt;Node8</title>
<path fill="none" stroke="midnightblue" d="M320.725,-130.267C315.192,-120.801 306.993,-106.777 300.316,-95.3571"/>
<polygon fill="midnightblue" stroke="midnightblue" points="303.227,-93.4002 295.158,-86.5337 297.184,-96.9331 303.227,-93.4002"/>
</g>
<!-- Node10 -->
<g id="node21" class="node"><title>Node10</title>
<a xlink:href="printable_8h.html" target="_top" xlink:title="printable.h">
<polygon fill="white" stroke="black" points="914,-65.5 914,-86.5 976,-86.5 976,-65.5 914,-65.5"/>
<text text-anchor="middle" x="945" y="-73.5" font-family="Helvetica,sans-Serif" font-size="10.00">printable.h</text>
</a>
</g>
<!-- Node9&#45;&gt;Node10 -->
<g id="edge22" class="edge"><title>Node9&#45;&gt;Node10</title>
<path fill="none" stroke="midnightblue" d="M766.031,-132.497C802.69,-124.239 858.198,-110.546 905,-94 907.921,-92.9673 910.924,-91.8081 913.909,-90.5888"/>
<polygon fill="midnightblue" stroke="midnightblue" points="915.455,-93.7341 923.261,-86.5704 912.692,-87.3027 915.455,-93.7341"/>
</g>
<!-- Node13 -->
<g id="node27" class="node"><title>Node13</title>
<a xlink:href="types_8h.html" target="_top" xlink:title="types.h">
<polygon fill="white" stroke="black" points="631.5,-65.5 631.5,-86.5 680.5,-86.5 680.5,-65.5 631.5,-65.5"/>
<text text-anchor="middle" x="656" y="-73.5" font-family="Helvetica,sans-Serif" font-size="10.00">types.h</text>
</a>
</g>
<!-- Node9&#45;&gt;Node13 -->
<g id="edge28" class="edge"><title>Node9&#45;&gt;Node13</title>
<path fill="none" stroke="midnightblue" d="M714.441,-130.267C703.738,-120.328 687.622,-105.363 675.023,-93.6645"/>
<polygon fill="midnightblue" stroke="midnightblue" points="677.054,-90.7735 667.344,-86.5337 672.29,-95.903 677.054,-90.7735"/>
</g>
<!-- Node14 -->
<g id="node29" class="node"><title>Node14</title>
<polygon fill="white" stroke="#bfbfbf" points="698,-65.5 698,-86.5 754,-86.5 754,-65.5 698,-65.5"/>
<text text-anchor="middle" x="726" y="-73.5" font-family="Helvetica,sans-Serif" font-size="10.00">algorithm</text>
</g>
<!-- Node9&#45;&gt;Node14 -->
<g id="edge30" class="edge"><title>Node9&#45;&gt;Node14</title>
<path fill="none" stroke="midnightblue" d="M726,-130.267C726,-121.18 726,-107.892 726,-96.7395"/>
<polygon fill="midnightblue" stroke="midnightblue" points="729.5,-96.5337 726,-86.5337 722.5,-96.5337 729.5,-96.5337"/>
</g>
<!-- Node15 -->
<g id="node31" class="node"><title>Node15</title>
<polygon fill="white" stroke="#bfbfbf" points="771.5,-65.5 771.5,-86.5 830.5,-86.5 830.5,-65.5 771.5,-65.5"/>
<text text-anchor="middle" x="801" y="-73.5" font-family="Helvetica,sans-Serif" font-size="10.00">stdexcept</text>
</g>
<!-- Node9&#45;&gt;Node15 -->
<g id="edge32" class="edge"><title>Node9&#45;&gt;Node15</title>
<path fill="none" stroke="midnightblue" d="M738.385,-130.267C749.962,-120.233 767.448,-105.078 781.003,-93.3311"/>
<polygon fill="midnightblue" stroke="midnightblue" points="783.581,-95.728 788.846,-86.5337 778.997,-90.4381 783.581,-95.728"/>
</g>
<!-- Node9&#45;&gt;Node16 -->
<g id="edge34" class="edge"><title>Node9&#45;&gt;Node16</title>
<path fill="none" stroke="midnightblue" d="M700.59,-130.479C679.473,-121.482 648.816,-107.829 623,-94 621.694,-93.3005 620.367,-92.5659 619.035,-91.8098"/>
<polygon fill="midnightblue" stroke="midnightblue" points="620.734,-88.7483 610.349,-86.651 617.159,-94.7668 620.734,-88.7483"/>
</g>
<!-- Node17 -->
<g id="node35" class="node"><title>Node17</title>
<polygon fill="white" stroke="#bfbfbf" points="847.5,-65.5 847.5,-86.5 896.5,-86.5 896.5,-65.5 847.5,-65.5"/>
<text text-anchor="middle" x="872" y="-73.5" font-family="Helvetica,sans-Serif" font-size="10.00">istream</text>
</g>
<!-- Node9&#45;&gt;Node17 -->
<g id="edge36" class="edge"><title>Node9&#45;&gt;Node17</title>
<path fill="none" stroke="midnightblue" d="M753.757,-130.4C776.853,-121.356 810.449,-107.678 839,-94 840.766,-93.1541 842.571,-92.2593 844.382,-91.3387"/>
<polygon fill="midnightblue" stroke="midnightblue" points="846.113,-94.3829 853.33,-86.6268 842.851,-88.189 846.113,-94.3829"/>
</g>
<!-- Node11 -->
<g id="node23" class="node"><title>Node11</title>
<polygon fill="white" stroke="#bfbfbf" points="876,-0.5 876,-21.5 938,-21.5 938,-0.5 876,-0.5"/>
<text text-anchor="middle" x="907" y="-8.5" font-family="Helvetica,sans-Serif" font-size="10.00">type_traits</text>
</g>
<!-- Node10&#45;&gt;Node11 -->
<g id="edge24" class="edge"><title>Node10&#45;&gt;Node11</title>
<path fill="none" stroke="midnightblue" d="M938.725,-65.2666C933.192,-55.8013 924.993,-41.7773 918.316,-30.3571"/>
<polygon fill="midnightblue" stroke="midnightblue" points="921.227,-28.4002 913.158,-21.5337 915.184,-31.9331 921.227,-28.4002"/>
</g>
<!-- Node12 -->
<g id="node25" class="node"><title>Node12</title>
<polygon fill="white" stroke="#bfbfbf" points="956,-0.5 956,-21.5 1008,-21.5 1008,-0.5 956,-0.5"/>
<text text-anchor="middle" x="982" y="-8.5" font-family="Helvetica,sans-Serif" font-size="10.00">ostream</text>
</g>
<!-- Node10&#45;&gt;Node12 -->
<g id="edge26" class="edge"><title>Node10&#45;&gt;Node12</title>
<path fill="none" stroke="midnightblue" d="M951.11,-65.2666C956.498,-55.8013 964.481,-41.7773 970.981,-30.3571"/>
<polygon fill="midnightblue" stroke="midnightblue" points="974.099,-31.9558 976.004,-21.5337 968.015,-28.4929 974.099,-31.9558"/>
</g>
<!-- Node18&#45;&gt;Node19 -->
<g id="edge40" class="edge"><title>Node18&#45;&gt;Node19</title>
<path fill="none" stroke="midnightblue" d="M105.624,-130.267C109.619,-120.991 115.501,-107.336 120.365,-96.0453"/>
<polygon fill="midnightblue" stroke="midnightblue" points="123.721,-97.1025 124.462,-86.5337 117.292,-94.3331 123.721,-97.1025"/>
</g>
<!-- Node18&#45;&gt;Node20 -->
<g id="edge42" class="edge"><title>Node18&#45;&gt;Node20</title>
<path fill="none" stroke="midnightblue" d="M86.6337,-130.267C72.9513,-120.044 52.1519,-104.504 36.312,-92.6699"/>
<polygon fill="midnightblue" stroke="midnightblue" points="38.2049,-89.7151 28.099,-86.5337 34.0152,-95.3229 38.2049,-89.7151"/>
</g>
<!-- Node23&#45;&gt;Node3 -->
<g id="edge66" class="edge"><title>Node23&#45;&gt;Node3</title>
<path fill="none" stroke="midnightblue" d="M471.643,-130.267C459.455,-121.748 441.983,-109.537 426.699,-98.8541"/>
<polygon fill="midnightblue" stroke="midnightblue" points="428.682,-95.9698 418.48,-93.1099 424.672,-101.707 428.682,-95.9698"/>
</g>
<!-- Node23&#45;&gt;Node19 -->
<g id="edge68" class="edge"><title>Node23&#45;&gt;Node19</title>
<path fill="none" stroke="midnightblue" d="M455.879,-137.229C401.978,-130.429 287.911,-114.86 193,-94 183.908,-92.0018 174.193,-89.4762 165.15,-86.9538"/>
<polygon fill="midnightblue" stroke="midnightblue" points="165.871,-83.5197 155.294,-84.1355 163.947,-90.25 165.871,-83.5197"/>
</g>
<!-- Node24 -->
<g id="node59" class="node"><title>Node24</title>
<polygon fill="white" stroke="#bfbfbf" points="469.5,-65.5 469.5,-86.5 518.5,-86.5 518.5,-65.5 469.5,-65.5"/>
<text text-anchor="middle" x="494" y="-73.5" font-family="Helvetica,sans-Serif" font-size="10.00">TLine.h</text>
</g>
<!-- Node23&#45;&gt;Node24 -->
<g id="edge70" class="edge"><title>Node23&#45;&gt;Node24</title>
<path fill="none" stroke="midnightblue" d="M488.156,-130.267C489.134,-121.18 490.565,-107.892 491.767,-96.7395"/>
<polygon fill="midnightblue" stroke="midnightblue" points="495.275,-96.851 492.866,-86.5337 488.315,-96.1014 495.275,-96.851"/>
</g>
<!-- Node26 -->
<g id="node63" class="node"><title>Node26</title>
<polygon fill="white" stroke="#bfbfbf" points="611.5,-195.5 611.5,-216.5 726.5,-216.5 726.5,-195.5 611.5,-195.5"/>
<text text-anchor="middle" x="669" y="-203.5" font-family="Helvetica,sans-Serif" font-size="10.00">detail/easylogging++.h</text>
</g>
<!-- Node25&#45;&gt;Node26 -->
<g id="edge74" class="edge"><title>Node25&#45;&gt;Node26</title>
<path fill="none" stroke="midnightblue" d="M564.362,-260.412C584.791,-249.788 616.465,-233.318 639.615,-221.28"/>
<polygon fill="midnightblue" stroke="midnightblue" points="641.39,-224.302 648.647,-216.584 638.16,-218.092 641.39,-224.302"/>
</g>
</g>
</svg>
