<?xml version="1.0" encoding="UTF-8" standalone="no"?>
<!DOCTYPE svg PUBLIC "-//W3C//DTD SVG 1.1//EN"
 "http://www.w3.org/Graphics/SVG/1.1/DTD/svg11.dtd">
<!-- Generated by graphviz version 2.26.3 (20100126.1600)
 -->
<!-- Title: src/calibration/gui/CalCanvas.h Pages: 1 -->
<svg width="1676pt" height="116pt"
 viewBox="0.00 0.00 1676.00 116.00" xmlns="http://www.w3.org/2000/svg" xmlns:xlink="http://www.w3.org/1999/xlink">
<g id="graph1" class="graph" transform="scale(1 1) rotate(0) translate(4 112)">
<title>src/calibration/gui/CalCanvas.h</title>
<polygon fill="white" stroke="white" points="-4,5 -4,-112 1673,-112 1673,5 -4,5"/>
<!-- Node1 -->
<g id="node1" class="node"><title>Node1</title>
<polygon fill="#bfbfbf" stroke="black" points="757.5,-73 757.5,-107 850.5,-107 850.5,-73 757.5,-73"/>
<text text-anchor="start" x="765.5" y="-94" font-family="Helvetica,sans-Serif" font-size="10.00">src/calibration/gui</text>
<text text-anchor="middle" x="804" y="-81" font-family="Helvetica,sans-Serif" font-size="10.00">/CalCanvas.h</text>
</g>
<!-- Node2 -->
<g id="node3" class="node"><title>Node2</title>
<a xlink:href="_cal_canvas_8cc.html" target="_top" xlink:title="src/calibration/gui\l/CalCanvas.cc">
<polygon fill="white" stroke="black" points="-0.5,-1 -0.5,-35 92.5,-35 92.5,-1 -0.5,-1"/>
<text text-anchor="start" x="7.5" y="-22" font-family="Helvetica,sans-Serif" font-size="10.00">src/calibration/gui</text>
<text text-anchor="middle" x="46" y="-9" font-family="Helvetica,sans-Serif" font-size="10.00">/CalCanvas.cc</text>
</a>
</g>
<!-- Node1&#45;&gt;Node2 -->
<g id="edge2" class="edge"><title>Node1&#45;&gt;Node2</title>
<path fill="none" stroke="midnightblue" d="M746.831,-87.3773C602.156,-80.4565 224.271,-60.5362 101,-36 98.241,-35.4508 95.4275,-34.8065 92.6046,-34.0943"/>
<polygon fill="midnightblue" stroke="midnightblue" points="747.091,-90.8935 757.246,-87.8723 747.424,-83.9014 747.091,-90.8935"/>
</g>
<!-- Node3 -->
<g id="node5" class="node"><title>Node3</title>
<a xlink:href="_manager_8cc.html" target="_top" xlink:title="src/calibration/gui\l/Manager.cc">
<polygon fill="white" stroke="black" points="109.5,-1 109.5,-35 202.5,-35 202.5,-1 109.5,-1"/>
<text text-anchor="start" x="117.5" y="-22" font-family="Helvetica,sans-Serif" font-size="10.00">src/calibration/gui</text>
<text text-anchor="middle" x="156" y="-9" font-family="Helvetica,sans-Serif" font-size="10.00">/Manager.cc</text>
</a>
</g>
<!-- Node1&#45;&gt;Node3 -->
<g id="edge4" class="edge"><title>Node1&#45;&gt;Node3</title>
<path fill="none" stroke="midnightblue" d="M747.159,-89.0697C640.818,-86.3954 405.001,-76.0433 211,-36 208.245,-35.4313 205.435,-34.7717 202.614,-34.0479"/>
<polygon fill="midnightblue" stroke="midnightblue" points="747.265,-92.5731 757.345,-89.3121 747.431,-85.5751 747.265,-92.5731"/>
</g>
<!-- Node4 -->
<g id="node7" class="node"><title>Node4</title>
<a xlink:href="_manager_window_8cc.html" target="_top" xlink:title="src/calibration/gui\l/ManagerWindow.cc">
<polygon fill="white" stroke="black" points="220,-1 220,-35 326,-35 326,-1 220,-1"/>
<text text-anchor="start" x="228" y="-22" font-family="Helvetica,sans-Serif" font-size="10.00">src/calibration/gui</text>
<text text-anchor="middle" x="273" y="-9" font-family="Helvetica,sans-Serif" font-size="10.00">/ManagerWindow.cc</text>
</a>
</g>
<!-- Node1&#45;&gt;Node4 -->
<g id="edge6" class="edge"><title>Node1&#45;&gt;Node4</title>
<path fill="none" stroke="midnightblue" d="M747.216,-86.5504C658.527,-80.4713 482.045,-65.5924 335,-36 332.143,-35.4251 329.227,-34.7812 326.293,-34.0884"/>
<polygon fill="midnightblue" stroke="midnightblue" points="747.118,-90.0516 757.331,-87.2315 747.589,-83.0675 747.118,-90.0516"/>
</g>
<!-- Node5 -->
<g id="node9" class="node"><title>Node5</title>
<a xlink:href="calibration_2modules_2_c_b___energy_8cc.html" target="_top" xlink:title="src/calibration/modules\l/CB_Energy.cc">
<polygon fill="white" stroke="black" points="343.5,-1 343.5,-35 460.5,-35 460.5,-1 343.5,-1"/>
<text text-anchor="start" x="351.5" y="-22" font-family="Helvetica,sans-Serif" font-size="10.00">src/calibration/modules</text>
<text text-anchor="middle" x="402" y="-9" font-family="Helvetica,sans-Serif" font-size="10.00">/CB_Energy.cc</text>
</a>
</g>
<!-- Node1&#45;&gt;Node5 -->
<g id="edge8" class="edge"><title>Node1&#45;&gt;Node5</title>
<path fill="none" stroke="midnightblue" d="M747.475,-82.6932C680.611,-73.6344 566.115,-56.8149 469,-36 466.291,-35.4194 463.529,-34.7979 460.743,-34.1474"/>
<polygon fill="midnightblue" stroke="midnightblue" points="747.009,-86.162 757.386,-84.0264 747.942,-79.2245 747.009,-86.162"/>
</g>
<!-- Node6 -->
<g id="node11" class="node"><title>Node6</title>
<a xlink:href="calibration_2modules_2_c_b___source_calib_8cc.html" target="_top" xlink:title="src/calibration/modules\l/CB_SourceCalib.cc">
<polygon fill="white" stroke="black" points="477.5,-1 477.5,-35 594.5,-35 594.5,-1 477.5,-1"/>
<text text-anchor="start" x="485.5" y="-22" font-family="Helvetica,sans-Serif" font-size="10.00">src/calibration/modules</text>
<text text-anchor="middle" x="536" y="-9" font-family="Helvetica,sans-Serif" font-size="10.00">/CB_SourceCalib.cc</text>
</a>
</g>
<!-- Node1&#45;&gt;Node6 -->
<g id="edge10" class="edge"><title>Node1&#45;&gt;Node6</title>
<path fill="none" stroke="midnightblue" d="M747.464,-74.8112C702.634,-62.7674 640.187,-45.9907 594.783,-33.7924"/>
<polygon fill="midnightblue" stroke="midnightblue" points="746.752,-78.2441 757.318,-77.4586 748.569,-71.4838 746.752,-78.2441"/>
</g>
<!-- Node7 -->
<g id="node13" class="node"><title>Node7</title>
<a xlink:href="calibration_2modules_2_c_b___time_walk_8cc.html" target="_top" xlink:title="src/calibration/modules\l/CB_TimeWalk.cc">
<polygon fill="white" stroke="black" points="611.5,-1 611.5,-35 728.5,-35 728.5,-1 611.5,-1"/>
<text text-anchor="start" x="619.5" y="-22" font-family="Helvetica,sans-Serif" font-size="10.00">src/calibration/modules</text>
<text text-anchor="middle" x="670" y="-9" font-family="Helvetica,sans-Serif" font-size="10.00">/CB_TimeWalk.cc</text>
</a>
</g>
<!-- Node1&#45;&gt;Node7 -->
<g id="edge12" class="edge"><title>Node1&#45;&gt;Node7</title>
<path fill="none" stroke="midnightblue" d="M763.21,-68.0832C743.561,-57.5254 720.341,-45.049 701.993,-35.19"/>
<polygon fill="midnightblue" stroke="midnightblue" points="761.778,-71.2869 772.244,-72.937 765.092,-65.1207 761.778,-71.2869"/>
</g>
<!-- Node8 -->
<g id="node15" class="node"><title>Node8</title>
<a xlink:href="_energy_8cc.html" target="_top" xlink:title="src/calibration/modules\l/Energy.cc">
<polygon fill="white" stroke="black" points="745.5,-1 745.5,-35 862.5,-35 862.5,-1 745.5,-1"/>
<text text-anchor="start" x="753.5" y="-22" font-family="Helvetica,sans-Serif" font-size="10.00">src/calibration/modules</text>
<text text-anchor="middle" x="804" y="-9" font-family="Helvetica,sans-Serif" font-size="10.00">/Energy.cc</text>
</a>
</g>
<!-- Node1&#45;&gt;Node8 -->
<g id="edge14" class="edge"><title>Node1&#45;&gt;Node8</title>
<path fill="none" stroke="midnightblue" d="M804,-62.7193C804,-53.572 804,-43.6255 804,-35.4407"/>
<polygon fill="midnightblue" stroke="midnightblue" points="800.5,-62.937 804,-72.937 807.5,-62.937 800.5,-62.937"/>
</g>
<!-- Node9 -->
<g id="node17" class="node"><title>Node9</title>
<a xlink:href="calibration_2modules_2_p_i_d___energy_8cc.html" target="_top" xlink:title="src/calibration/modules\l/PID_Energy.cc">
<polygon fill="white" stroke="black" points="879.5,-1 879.5,-35 996.5,-35 996.5,-1 879.5,-1"/>
<text text-anchor="start" x="887.5" y="-22" font-family="Helvetica,sans-Serif" font-size="10.00">src/calibration/modules</text>
<text text-anchor="middle" x="938" y="-9" font-family="Helvetica,sans-Serif" font-size="10.00">/PID_Energy.cc</text>
</a>
</g>
<!-- Node1&#45;&gt;Node9 -->
<g id="edge16" class="edge"><title>Node1&#45;&gt;Node9</title>
<path fill="none" stroke="midnightblue" d="M844.79,-68.0832C864.439,-57.5254 887.659,-45.049 906.007,-35.19"/>
<polygon fill="midnightblue" stroke="midnightblue" points="842.908,-65.1207 835.756,-72.937 846.222,-71.2869 842.908,-65.1207"/>
</g>
<!-- Node10 -->
<g id="node19" class="node"><title>Node10</title>
<a xlink:href="calibration_2modules_2_p_i_d___phi_angle_8cc.html" target="_top" xlink:title="src/calibration/modules\l/PID_PhiAngle.cc">
<polygon fill="white" stroke="black" points="1013.5,-1 1013.5,-35 1130.5,-35 1130.5,-1 1013.5,-1"/>
<text text-anchor="start" x="1021.5" y="-22" font-family="Helvetica,sans-Serif" font-size="10.00">src/calibration/modules</text>
<text text-anchor="middle" x="1072" y="-9" font-family="Helvetica,sans-Serif" font-size="10.00">/PID_PhiAngle.cc</text>
</a>
</g>
<!-- Node1&#45;&gt;Node10 -->
<g id="edge18" class="edge"><title>Node1&#45;&gt;Node10</title>
<path fill="none" stroke="midnightblue" d="M860.536,-74.8112C905.366,-62.7674 967.813,-45.9907 1013.22,-33.7924"/>
<polygon fill="midnightblue" stroke="midnightblue" points="859.431,-71.4838 850.682,-77.4586 861.248,-78.2441 859.431,-71.4838"/>
</g>
<!-- Node11 -->
<g id="node21" class="node"><title>Node11</title>
<a xlink:href="calibration_2modules_2_t_a_p_s___energy_8cc.html" target="_top" xlink:title="src/calibration/modules\l/TAPS_Energy.cc">
<polygon fill="white" stroke="black" points="1147.5,-1 1147.5,-35 1264.5,-35 1264.5,-1 1147.5,-1"/>
<text text-anchor="start" x="1155.5" y="-22" font-family="Helvetica,sans-Serif" font-size="10.00">src/calibration/modules</text>
<text text-anchor="middle" x="1206" y="-9" font-family="Helvetica,sans-Serif" font-size="10.00">/TAPS_Energy.cc</text>
</a>
</g>
<!-- Node1&#45;&gt;Node11 -->
<g id="edge20" class="edge"><title>Node1&#45;&gt;Node11</title>
<path fill="none" stroke="midnightblue" d="M860.525,-82.6932C927.389,-73.6344 1041.89,-56.8149 1139,-36 1141.71,-35.4194 1144.47,-34.7979 1147.26,-34.1474"/>
<polygon fill="midnightblue" stroke="midnightblue" points="860.058,-79.2245 850.614,-84.0264 860.991,-86.162 860.058,-79.2245"/>
</g>
<!-- Node12 -->
<g id="node23" class="node"><title>Node12</title>
<a xlink:href="calibration_2modules_2_t_a_p_s___short_energy_8cc.html" target="_top" xlink:title="src/calibration/modules\l/TAPS_ShortEnergy.cc">
<polygon fill="white" stroke="black" points="1281.5,-1 1281.5,-35 1400.5,-35 1400.5,-1 1281.5,-1"/>
<text text-anchor="start" x="1289.5" y="-22" font-family="Helvetica,sans-Serif" font-size="10.00">src/calibration/modules</text>
<text text-anchor="middle" x="1341" y="-9" font-family="Helvetica,sans-Serif" font-size="10.00">/TAPS_ShortEnergy.cc</text>
</a>
</g>
<!-- Node1&#45;&gt;Node12 -->
<g id="edge22" class="edge"><title>Node1&#45;&gt;Node12</title>
<path fill="none" stroke="midnightblue" d="M860.7,-86.1234C949.278,-79.4729 1125.61,-63.8416 1273,-36 1275.76,-35.4786 1278.57,-34.9057 1281.41,-34.2945"/>
<polygon fill="midnightblue" stroke="midnightblue" points="860.313,-82.6424 850.599,-86.8713 860.83,-89.6233 860.313,-82.6424"/>
</g>
<!-- Node13 -->
<g id="node25" class="node"><title>Node13</title>
<a xlink:href="_t_a_p_s___to_f_8cc.html" target="_top" xlink:title="src/calibration/modules\l/TAPS_ToF.cc">
<polygon fill="white" stroke="black" points="1417.5,-1 1417.5,-35 1534.5,-35 1534.5,-1 1417.5,-1"/>
<text text-anchor="start" x="1425.5" y="-22" font-family="Helvetica,sans-Serif" font-size="10.00">src/calibration/modules</text>
<text text-anchor="middle" x="1476" y="-9" font-family="Helvetica,sans-Serif" font-size="10.00">/TAPS_ToF.cc</text>
</a>
</g>
<!-- Node1&#45;&gt;Node13 -->
<g id="edge24" class="edge"><title>Node1&#45;&gt;Node13</title>
<path fill="none" stroke="midnightblue" d="M860.98,-88.2064C968.754,-84.088 1209.54,-71.4179 1409,-36 1411.73,-35.5157 1414.51,-34.9731 1417.3,-34.3866"/>
<polygon fill="midnightblue" stroke="midnightblue" points="860.525,-84.7208 850.662,-88.5899 860.785,-91.716 860.525,-84.7208"/>
</g>
<!-- Node14 -->
<g id="node27" class="node"><title>Node14</title>
<a xlink:href="calibration_2modules_2_time_8cc.html" target="_top" xlink:title="src/calibration/modules\l/Time.cc">
<polygon fill="white" stroke="black" points="1551.5,-1 1551.5,-35 1668.5,-35 1668.5,-1 1551.5,-1"/>
<text text-anchor="start" x="1559.5" y="-22" font-family="Helvetica,sans-Serif" font-size="10.00">src/calibration/modules</text>
<text text-anchor="middle" x="1610" y="-9" font-family="Helvetica,sans-Serif" font-size="10.00">/Time.cc</text>
</a>
</g>
<!-- Node1&#45;&gt;Node14 -->
<g id="edge26" class="edge"><title>Node1&#45;&gt;Node14</title>
<path fill="none" stroke="midnightblue" d="M860.891,-87.2418C1010.4,-79.7696 1411.86,-58.2008 1543,-36 1545.73,-35.5376 1548.51,-35.013 1551.31,-34.4411"/>
<polygon fill="midnightblue" stroke="midnightblue" points="860.383,-83.7627 850.569,-87.7553 860.731,-90.754 860.383,-83.7627"/>
</g>
</g>
</svg>
