<?xml version="1.0" encoding="UTF-8" standalone="no"?>
<!DOCTYPE svg PUBLIC "-//W3C//DTD SVG 1.1//EN"
 "http://www.w3.org/Graphics/SVG/1.1/DTD/svg11.dtd">
<!-- Generated by graphviz version 2.26.3 (20100126.1600)
 -->
<!-- Title: src/base/ClippedInterpolatorWrapper.h Pages: 1 -->
<svg width="423pt" height="276pt"
 viewBox="0.00 0.00 422.61 276.00" xmlns="http://www.w3.org/2000/svg" xmlns:xlink="http://www.w3.org/1999/xlink">
<g id="graph1" class="graph" transform="scale(1 1) rotate(0) translate(4 272)">
<title>src/base/ClippedInterpolatorWrapper.h</title>
<polygon fill="white" stroke="white" points="-4,5 -4,-272 419.605,-272 419.605,5 -4,5"/>
<!-- Node1 -->
<g id="node1" class="node"><title>Node1</title>
<polygon fill="#bfbfbf" stroke="black" points="33.5,-233 33.5,-267 172.5,-267 172.5,-233 33.5,-233"/>
<text text-anchor="start" x="41.5" y="-254" font-family="Helvetica,sans-Serif" font-size="10.00">src/base/ClippedInterpolator</text>
<text text-anchor="middle" x="103" y="-241" font-family="Helvetica,sans-Serif" font-size="10.00">Wrapper.h</text>
</g>
<!-- Node2 -->
<g id="node3" class="node"><title>Node2</title>
<polygon fill="white" stroke="#bfbfbf" points="0,-116.5 0,-137.5 44,-137.5 44,-116.5 0,-116.5"/>
<text text-anchor="middle" x="22" y="-124.5" font-family="Helvetica,sans-Serif" font-size="10.00">vector</text>
</g>
<!-- Node1&#45;&gt;Node2 -->
<g id="edge2" class="edge"><title>Node1&#45;&gt;Node2</title>
<path fill="none" stroke="midnightblue" d="M91.7373,-232.897C76.7707,-210.17 50.398,-170.123 34.7271,-146.326"/>
<polygon fill="midnightblue" stroke="midnightblue" points="37.527,-144.214 29.1039,-137.787 31.6808,-148.064 37.527,-144.214"/>
</g>
<!-- Node3 -->
<g id="node5" class="node"><title>Node3</title>
<polygon fill="white" stroke="#bfbfbf" points="62,-116.5 62,-137.5 114,-137.5 114,-116.5 62,-116.5"/>
<text text-anchor="middle" x="88" y="-124.5" font-family="Helvetica,sans-Serif" font-size="10.00">memory</text>
</g>
<!-- Node1&#45;&gt;Node3 -->
<g id="edge4" class="edge"><title>Node1&#45;&gt;Node3</title>
<path fill="none" stroke="midnightblue" d="M95.3034,-232.888C91.0408,-222.462 86.1751,-208.735 84,-196 81.2583,-179.947 82.5478,-161.522 84.3649,-147.752"/>
<polygon fill="midnightblue" stroke="midnightblue" points="87.8289,-148.252 85.8683,-137.84 80.9081,-147.202 87.8289,-148.252"/>
</g>
<!-- Node4 -->
<g id="node7" class="node"><title>Node4</title>
<a xlink:href="_interpolator_8h.html" target="_top" xlink:title="base/Interpolator.h">
<polygon fill="white" stroke="black" points="93,-174.5 93,-195.5 191,-195.5 191,-174.5 93,-174.5"/>
<text text-anchor="middle" x="142" y="-182.5" font-family="Helvetica,sans-Serif" font-size="10.00">base/Interpolator.h</text>
</a>
</g>
<!-- Node1&#45;&gt;Node4 -->
<g id="edge6" class="edge"><title>Node1&#45;&gt;Node4</title>
<path fill="none" stroke="midnightblue" d="M113.247,-232.922C118.473,-224.212 124.853,-213.578 130.275,-204.542"/>
<polygon fill="midnightblue" stroke="midnightblue" points="133.345,-206.228 135.489,-195.852 127.343,-202.626 133.345,-206.228"/>
</g>
<!-- Node9 -->
<g id="node19" class="node"><title>Node9</title>
<polygon fill="white" stroke="#bfbfbf" points="313,-0.5 313,-21.5 365,-21.5 365,-0.5 313,-0.5"/>
<text text-anchor="middle" x="339" y="-8.5" font-family="Helvetica,sans-Serif" font-size="10.00">ostream</text>
</g>
<!-- Node1&#45;&gt;Node9 -->
<g id="edge32" class="edge"><title>Node1&#45;&gt;Node9</title>
<path fill="none" stroke="midnightblue" d="M172.668,-233.727C246.632,-212.321 359.774,-166.786 411,-80 423.876,-58.1858 398.517,-38.7684 374.421,-26.1333"/>
<polygon fill="midnightblue" stroke="midnightblue" points="375.845,-22.9328 365.33,-21.6321 372.738,-29.206 375.845,-22.9328"/>
</g>
<!-- Node4&#45;&gt;Node2 -->
<g id="edge8" class="edge"><title>Node4&#45;&gt;Node2</title>
<path fill="none" stroke="midnightblue" d="M120.269,-174.497C101.526,-165.438 74.2335,-152.246 53.1643,-142.063"/>
<polygon fill="midnightblue" stroke="midnightblue" points="54.5015,-138.822 43.9749,-137.621 51.4553,-145.124 54.5015,-138.822"/>
</g>
<!-- Node4&#45;&gt;Node3 -->
<g id="edge12" class="edge"><title>Node4&#45;&gt;Node3</title>
<path fill="none" stroke="midnightblue" d="M132.096,-174.362C124.484,-166.186 113.792,-154.702 104.843,-145.091"/>
<polygon fill="midnightblue" stroke="midnightblue" points="107.217,-142.505 97.8416,-137.571 102.094,-147.275 107.217,-142.505"/>
</g>
<!-- Node5 -->
<g id="node10" class="node"><title>Node5</title>
<polygon fill="white" stroke="#bfbfbf" points="-0.5,-58.5 -0.5,-79.5 58.5,-79.5 58.5,-58.5 -0.5,-58.5"/>
<text text-anchor="middle" x="29" y="-66.5" font-family="Helvetica,sans-Serif" font-size="10.00">stdexcept</text>
</g>
<!-- Node4&#45;&gt;Node5 -->
<g id="edge10" class="edge"><title>Node4&#45;&gt;Node5</title>
<path fill="none" stroke="midnightblue" d="M141.694,-174.445C140.743,-159.771 137.043,-133.086 123,-116 115.043,-106.318 88.557,-93.4927 65.7199,-83.686"/>
<polygon fill="midnightblue" stroke="midnightblue" points="66.7951,-80.3411 56.2205,-79.6858 64.0784,-86.7925 66.7951,-80.3411"/>
</g>
<!-- Node6 -->
<g id="node13" class="node"><title>Node6</title>
<a xlink:href="interval_8h.html" target="_top" xlink:title="base/interval.h">
<polygon fill="white" stroke="black" points="170,-116.5 170,-137.5 250,-137.5 250,-116.5 170,-116.5"/>
<text text-anchor="middle" x="210" y="-124.5" font-family="Helvetica,sans-Serif" font-size="10.00">base/interval.h</text>
</a>
</g>
<!-- Node4&#45;&gt;Node6 -->
<g id="edge14" class="edge"><title>Node4&#45;&gt;Node6</title>
<path fill="none" stroke="midnightblue" d="M154.472,-174.362C164.345,-165.941 178.333,-154.011 189.798,-144.231"/>
<polygon fill="midnightblue" stroke="midnightblue" points="192.27,-146.723 197.607,-137.571 187.727,-141.397 192.27,-146.723"/>
</g>
<!-- Node6&#45;&gt;Node5 -->
<g id="edge26" class="edge"><title>Node6&#45;&gt;Node5</title>
<path fill="none" stroke="midnightblue" d="M177.222,-116.497C146.571,-106.675 100.759,-91.9945 68.1886,-81.5577"/>
<polygon fill="midnightblue" stroke="midnightblue" points="69.1284,-78.1836 58.5373,-78.465 66.9922,-84.8497 69.1284,-78.1836"/>
</g>
<!-- Node7 -->
<g id="node15" class="node"><title>Node7</title>
<a xlink:href="printable_8h.html" target="_top" xlink:title="printable.h">
<polygon fill="white" stroke="black" points="142,-58.5 142,-79.5 204,-79.5 204,-58.5 142,-58.5"/>
<text text-anchor="middle" x="173" y="-66.5" font-family="Helvetica,sans-Serif" font-size="10.00">printable.h</text>
</a>
</g>
<!-- Node6&#45;&gt;Node7 -->
<g id="edge16" class="edge"><title>Node6&#45;&gt;Node7</title>
<path fill="none" stroke="midnightblue" d="M203.214,-116.362C198.207,-108.513 191.255,-97.6159 185.282,-88.2527"/>
<polygon fill="midnightblue" stroke="midnightblue" points="188.072,-86.1189 179.743,-79.5707 182.171,-89.8837 188.072,-86.1189"/>
</g>
<!-- Node10 -->
<g id="node21" class="node"><title>Node10</title>
<a xlink:href="types_8h.html" target="_top" xlink:title="types.h">
<polygon fill="white" stroke="black" points="221.5,-58.5 221.5,-79.5 270.5,-79.5 270.5,-58.5 221.5,-58.5"/>
<text text-anchor="middle" x="246" y="-66.5" font-family="Helvetica,sans-Serif" font-size="10.00">types.h</text>
</a>
</g>
<!-- Node6&#45;&gt;Node10 -->
<g id="edge22" class="edge"><title>Node6&#45;&gt;Node10</title>
<path fill="none" stroke="midnightblue" d="M216.603,-116.362C221.475,-108.513 228.238,-97.6159 234.05,-88.2527"/>
<polygon fill="midnightblue" stroke="midnightblue" points="237.139,-89.9129 239.439,-79.5707 231.191,-86.2213 237.139,-89.9129"/>
</g>
<!-- Node11 -->
<g id="node23" class="node"><title>Node11</title>
<polygon fill="white" stroke="#bfbfbf" points="288,-58.5 288,-79.5 344,-79.5 344,-58.5 288,-58.5"/>
<text text-anchor="middle" x="316" y="-66.5" font-family="Helvetica,sans-Serif" font-size="10.00">algorithm</text>
</g>
<!-- Node6&#45;&gt;Node11 -->
<g id="edge24" class="edge"><title>Node6&#45;&gt;Node11</title>
<path fill="none" stroke="midnightblue" d="M229.442,-116.362C245.804,-107.409 269.413,-94.4908 287.843,-84.4064"/>
<polygon fill="midnightblue" stroke="midnightblue" points="289.589,-87.4412 296.681,-79.5707 286.229,-81.3004 289.589,-87.4412"/>
</g>
<!-- Node12 -->
<g id="node26" class="node"><title>Node12</title>
<polygon fill="white" stroke="#bfbfbf" points="362,-58.5 362,-79.5 402,-79.5 402,-58.5 362,-58.5"/>
<text text-anchor="middle" x="382" y="-66.5" font-family="Helvetica,sans-Serif" font-size="10.00">limits</text>
</g>
<!-- Node6&#45;&gt;Node12 -->
<g id="edge28" class="edge"><title>Node6&#45;&gt;Node12</title>
<path fill="none" stroke="midnightblue" d="M243.373,-116.5C270.402,-107.892 309.666,-95.1552 352.086,-80.2322"/>
<polygon fill="midnightblue" stroke="midnightblue" points="353.501,-83.4443 361.761,-76.8096 351.166,-76.8451 353.501,-83.4443"/>
</g>
<!-- Node13 -->
<g id="node28" class="node"><title>Node13</title>
<polygon fill="white" stroke="#bfbfbf" points="75.5,-58.5 75.5,-79.5 124.5,-79.5 124.5,-58.5 75.5,-58.5"/>
<text text-anchor="middle" x="100" y="-66.5" font-family="Helvetica,sans-Serif" font-size="10.00">istream</text>
</g>
<!-- Node6&#45;&gt;Node13 -->
<g id="edge30" class="edge"><title>Node6&#45;&gt;Node13</title>
<path fill="none" stroke="midnightblue" d="M190.08,-116.497C173.054,-107.519 148.331,-94.4835 129.091,-84.3387"/>
<polygon fill="midnightblue" stroke="midnightblue" points="130.622,-81.1894 120.144,-79.6212 127.357,-87.3814 130.622,-81.1894"/>
</g>
<!-- Node8 -->
<g id="node17" class="node"><title>Node8</title>
<polygon fill="white" stroke="#bfbfbf" points="142,-0.5 142,-21.5 204,-21.5 204,-0.5 142,-0.5"/>
<text text-anchor="middle" x="173" y="-8.5" font-family="Helvetica,sans-Serif" font-size="10.00">type_traits</text>
</g>
<!-- Node7&#45;&gt;Node8 -->
<g id="edge18" class="edge"><title>Node7&#45;&gt;Node8</title>
<path fill="none" stroke="midnightblue" d="M173,-58.3619C173,-50.9219 173,-40.7427 173,-31.7276"/>
<polygon fill="midnightblue" stroke="midnightblue" points="176.5,-31.5706 173,-21.5707 169.5,-31.5707 176.5,-31.5706"/>
</g>
<!-- Node7&#45;&gt;Node9 -->
<g id="edge20" class="edge"><title>Node7&#45;&gt;Node9</title>
<path fill="none" stroke="midnightblue" d="M203.061,-58.4966C231.266,-48.6421 273.468,-33.8969 303.356,-23.4538"/>
<polygon fill="midnightblue" stroke="midnightblue" points="304.697,-26.693 312.983,-20.0904 302.388,-20.0848 304.697,-26.693"/>
</g>
</g>
</svg>
