<?xml version="1.0" encoding="UTF-8" standalone="no"?>
<!DOCTYPE svg PUBLIC "-//W3C//DTD SVG 1.1//EN"
 "http://www.w3.org/Graphics/SVG/1.1/DTD/svg11.dtd">
<!-- Generated by graphviz version 2.26.3 (20100126.1600)
 -->
<!-- Title: src/analysis/utils/ClusterTools.h Pages: 1 -->
<svg width="495pt" height="188pt"
 viewBox="0.00 0.00 495.00 188.00" xmlns="http://www.w3.org/2000/svg" xmlns:xlink="http://www.w3.org/1999/xlink">
<g id="graph1" class="graph" transform="scale(1 1) rotate(0) translate(4 184)">
<title>src/analysis/utils/ClusterTools.h</title>
<polygon fill="white" stroke="white" points="-4,5 -4,-184 492,-184 492,5 -4,5"/>
<!-- Node1 -->
<g id="node1" class="node"><title>Node1</title>
<polygon fill="#bfbfbf" stroke="black" points="169,-145 169,-179 259,-179 259,-145 169,-145"/>
<text text-anchor="start" x="177" y="-166" font-family="Helvetica,sans-Serif" font-size="10.00">src/analysis/utils</text>
<text text-anchor="middle" x="214" y="-153" font-family="Helvetica,sans-Serif" font-size="10.00">/ClusterTools.h</text>
</g>
<!-- Node2 -->
<g id="node3" class="node"><title>Node2</title>
<a xlink:href="_candidates_analysis_8cc.html" target="_top" xlink:title="src/analysis/physics\l/common/CandidatesAnalysis.cc">
<polygon fill="white" stroke="black" points="-0.5,-1 -0.5,-35 160.5,-35 160.5,-1 -0.5,-1"/>
<text text-anchor="start" x="7.5" y="-22" font-family="Helvetica,sans-Serif" font-size="10.00">src/analysis/physics</text>
<text text-anchor="middle" x="80" y="-9" font-family="Helvetica,sans-Serif" font-size="10.00">/common/CandidatesAnalysis.cc</text>
</a>
</g>
<!-- Node1&#45;&gt;Node2 -->
<g id="edge2" class="edge"><title>Node1&#45;&gt;Node2</title>
<path fill="none" stroke="midnightblue" d="M158.985,-151.453C115.685,-141.903 60.4722,-126.515 47,-108 30.7459,-85.6615 49.4469,-54.4509 64.605,-35.2668"/>
<polygon fill="midnightblue" stroke="midnightblue" points="158.348,-154.896 168.861,-153.577 159.82,-148.053 158.348,-154.896"/>
</g>
<!-- Node3 -->
<g id="node5" class="node"><title>Node3</title>
<a xlink:href="_candidates_analysis_8h.html" target="_top" xlink:title="src/analysis/physics\l/common/CandidatesAnalysis.h">
<polygon fill="white" stroke="black" points="55.5,-73 55.5,-107 210.5,-107 210.5,-73 55.5,-73"/>
<text text-anchor="start" x="63.5" y="-94" font-family="Helvetica,sans-Serif" font-size="10.00">src/analysis/physics</text>
<text text-anchor="middle" x="133" y="-81" font-family="Helvetica,sans-Serif" font-size="10.00">/common/CandidatesAnalysis.h</text>
</a>
</g>
<!-- Node1&#45;&gt;Node3 -->
<g id="edge4" class="edge"><title>Node1&#45;&gt;Node3</title>
<path fill="none" stroke="midnightblue" d="M187.226,-138.201C175.825,-128.067 162.778,-116.469 152.339,-107.19"/>
<polygon fill="midnightblue" stroke="midnightblue" points="185.005,-140.909 194.804,-144.937 189.655,-135.677 185.005,-140.909"/>
</g>
<!-- Node4 -->
<g id="node8" class="node"><title>Node4</title>
<a xlink:href="etaprime__dalitz_8h.html" target="_top" xlink:title="src/analysis/physics\l/etaprime/etaprime_dalitz.h">
<polygon fill="white" stroke="black" points="228,-73 228,-107 362,-107 362,-73 228,-73"/>
<text text-anchor="start" x="236" y="-94" font-family="Helvetica,sans-Serif" font-size="10.00">src/analysis/physics</text>
<text text-anchor="middle" x="295" y="-81" font-family="Helvetica,sans-Serif" font-size="10.00">/etaprime/etaprime_dalitz.h</text>
</a>
</g>
<!-- Node1&#45;&gt;Node4 -->
<g id="edge8" class="edge"><title>Node1&#45;&gt;Node4</title>
<path fill="none" stroke="midnightblue" d="M240.774,-138.201C252.175,-128.067 265.222,-116.469 275.661,-107.19"/>
<polygon fill="midnightblue" stroke="midnightblue" points="238.345,-135.677 233.196,-144.937 242.995,-140.909 238.345,-135.677"/>
</g>
<!-- Node7 -->
<g id="node14" class="node"><title>Node7</title>
<a xlink:href="_cluster_tools_8cc.html" target="_top" xlink:title="src/analysis/utils\l/ClusterTools.cc">
<polygon fill="white" stroke="black" points="380,-73 380,-107 470,-107 470,-73 380,-73"/>
<text text-anchor="start" x="388" y="-94" font-family="Helvetica,sans-Serif" font-size="10.00">src/analysis/utils</text>
<text text-anchor="middle" x="425" y="-81" font-family="Helvetica,sans-Serif" font-size="10.00">/ClusterTools.cc</text>
</a>
</g>
<!-- Node1&#45;&gt;Node7 -->
<g id="edge14" class="edge"><title>Node1&#45;&gt;Node7</title>
<path fill="none" stroke="midnightblue" d="M268.913,-143.262C303.364,-131.506 347.244,-116.533 379.7,-105.458"/>
<polygon fill="midnightblue" stroke="midnightblue" points="267.34,-140.101 259.006,-146.643 269.601,-146.725 267.34,-140.101"/>
</g>
<!-- Node3&#45;&gt;Node2 -->
<g id="edge6" class="edge"><title>Node3&#45;&gt;Node2</title>
<path fill="none" stroke="midnightblue" d="M114.444,-64.7923C107.307,-55.0958 99.3216,-44.2482 92.8383,-35.4407"/>
<polygon fill="midnightblue" stroke="midnightblue" points="111.693,-66.9585 120.44,-72.937 117.33,-62.8087 111.693,-66.9585"/>
</g>
<!-- Node5 -->
<g id="node10" class="node"><title>Node5</title>
<a xlink:href="_etap_dalitz__plot_8cc.html" target="_top" xlink:title="Plotting tool for TTrees from the ant::analysis::physics::etaprime::etaprime_dalitz physics class...">
<polygon fill="white" stroke="black" points="205,-7.5 205,-28.5 329,-28.5 329,-7.5 205,-7.5"/>
<text text-anchor="middle" x="267" y="-15.5" font-family="Helvetica,sans-Serif" font-size="10.00">progs/EtapDalitz_plot.cc</text>
</a>
</g>
<!-- Node4&#45;&gt;Node5 -->
<g id="edge10" class="edge"><title>Node4&#45;&gt;Node5</title>
<path fill="none" stroke="midnightblue" d="M284.65,-63.3846C280.007,-51.4477 274.79,-38.0309 271.239,-28.901"/>
<polygon fill="midnightblue" stroke="midnightblue" points="281.478,-64.8855 288.364,-72.937 288.002,-62.3484 281.478,-64.8855"/>
</g>
<!-- Node6 -->
<g id="node12" class="node"><title>Node6</title>
<a xlink:href="etaprime__dalitz_8cc.html" target="_top" xlink:title="src/analysis/physics\l/etaprime/etaprime_dalitz.cc">
<polygon fill="white" stroke="black" points="347,-1 347,-35 487,-35 487,-1 347,-1"/>
<text text-anchor="start" x="355" y="-22" font-family="Helvetica,sans-Serif" font-size="10.00">src/analysis/physics</text>
<text text-anchor="middle" x="417" y="-9" font-family="Helvetica,sans-Serif" font-size="10.00">/etaprime/etaprime_dalitz.cc</text>
</a>
</g>
<!-- Node4&#45;&gt;Node6 -->
<g id="edge12" class="edge"><title>Node4&#45;&gt;Node6</title>
<path fill="none" stroke="midnightblue" d="M332.867,-67.6522C350.6,-57.1871 371.394,-44.9152 387.872,-35.19"/>
<polygon fill="midnightblue" stroke="midnightblue" points="330.745,-64.8402 323.912,-72.937 334.303,-70.8687 330.745,-64.8402"/>
</g>
</g>
</svg>
