<?xml version="1.0" encoding="UTF-8" standalone="no"?>
<!DOCTYPE svg PUBLIC "-//W3C//DTD SVG 1.1//EN"
 "http://www.w3.org/Graphics/SVG/1.1/DTD/svg11.dtd">
<!-- Generated by graphviz version 2.26.3 (20100126.1600)
 -->
<!-- Title: src/reconstruct/Clustering.h Pages: 1 -->
<svg width="998pt" height="102pt"
 viewBox="0.00 0.00 998.00 102.00" xmlns="http://www.w3.org/2000/svg" xmlns:xlink="http://www.w3.org/1999/xlink">
<g id="graph1" class="graph" transform="scale(1 1) rotate(0) translate(4 98)">
<title>src/reconstruct/Clustering.h</title>
<polygon fill="white" stroke="white" points="-4,5 -4,-98 995,-98 995,5 -4,5"/>
<!-- Node1 -->
<g id="node1" class="node"><title>Node1</title>
<polygon fill="#bfbfbf" stroke="black" points="386.5,-72.5 386.5,-93.5 523.5,-93.5 523.5,-72.5 386.5,-72.5"/>
<text text-anchor="middle" x="455" y="-80.5" font-family="Helvetica,sans-Serif" font-size="10.00">src/reconstruct/Clustering.h</text>
</g>
<!-- Node2 -->
<g id="node3" class="node"><title>Node2</title>
<a xlink:href="calibration_2modules_2_c_b___time_walk_8cc.html" target="_top" xlink:title="src/calibration/modules\l/CB_TimeWalk.cc">
<polygon fill="white" stroke="black" points="-0.5,-1 -0.5,-35 116.5,-35 116.5,-1 -0.5,-1"/>
<text text-anchor="start" x="7.5" y="-22" font-family="Helvetica,sans-Serif" font-size="10.00">src/calibration/modules</text>
<text text-anchor="middle" x="58" y="-9" font-family="Helvetica,sans-Serif" font-size="10.00">/CB_TimeWalk.cc</text>
</a>
</g>
<!-- Node1&#45;&gt;Node2 -->
<g id="edge2" class="edge"><title>Node1&#45;&gt;Node2</title>
<path fill="none" stroke="midnightblue" d="M376.243,-74.5C309.096,-66.606 210.202,-53.4458 125,-36 122.286,-35.4443 119.519,-34.8432 116.73,-34.2092"/>
<polygon fill="midnightblue" stroke="midnightblue" points="375.989,-77.994 386.326,-75.674 376.798,-71.041 375.989,-77.994"/>
</g>
<!-- Node3 -->
<g id="node5" class="node"><title>Node3</title>
<a xlink:href="_clustering_8cc.html" target="_top" xlink:title="src/reconstruct/Clustering.cc">
<polygon fill="white" stroke="black" points="133.5,-7.5 133.5,-28.5 276.5,-28.5 276.5,-7.5 133.5,-7.5"/>
<text text-anchor="middle" x="205" y="-15.5" font-family="Helvetica,sans-Serif" font-size="10.00">src/reconstruct/Clustering.cc</text>
</a>
</g>
<!-- Node1&#45;&gt;Node3 -->
<g id="edge4" class="edge"><title>Node1&#45;&gt;Node3</title>
<path fill="none" stroke="midnightblue" d="M404.61,-69.8986C357.724,-57.7083 288.752,-39.7754 245.387,-28.5005"/>
<polygon fill="midnightblue" stroke="midnightblue" points="403.996,-73.3554 414.555,-72.4844 405.758,-66.5806 403.996,-73.3554"/>
</g>
<!-- Node4 -->
<g id="node7" class="node"><title>Node4</title>
<a xlink:href="_reconstruct_8cc.html" target="_top" xlink:title="src/reconstruct/Reconstruct.cc">
<polygon fill="white" stroke="black" points="294,-7.5 294,-28.5 446,-28.5 446,-7.5 294,-7.5"/>
<text text-anchor="middle" x="370" y="-15.5" font-family="Helvetica,sans-Serif" font-size="10.00">src/reconstruct/Reconstruct.cc</text>
</a>
</g>
<!-- Node1&#45;&gt;Node4 -->
<g id="edge6" class="edge"><title>Node1&#45;&gt;Node4</title>
<path fill="none" stroke="midnightblue" d="M432.897,-66.0977C417.358,-54.2152 397.051,-38.6863 383.775,-28.5337"/>
<polygon fill="midnightblue" stroke="midnightblue" points="430.894,-68.9723 440.964,-72.2666 435.146,-63.4118 430.894,-68.9723"/>
</g>
<!-- Node5 -->
<g id="node9" class="node"><title>Node5</title>
<a xlink:href="_test_candidate_builder_8cc.html" target="_top" xlink:title="test/reconstruct/TestCandidate\lBuilder.cc">
<polygon fill="white" stroke="black" points="464,-1 464,-35 616,-35 616,-1 464,-1"/>
<text text-anchor="start" x="472" y="-22" font-family="Helvetica,sans-Serif" font-size="10.00">test/reconstruct/TestCandidate</text>
<text text-anchor="middle" x="540" y="-9" font-family="Helvetica,sans-Serif" font-size="10.00">Builder.cc</text>
</a>
</g>
<!-- Node1&#45;&gt;Node5 -->
<g id="edge8" class="edge"><title>Node1&#45;&gt;Node5</title>
<path fill="none" stroke="midnightblue" d="M477.103,-66.0977C489.572,-56.5624 505.112,-44.6789 517.626,-35.1099"/>
<polygon fill="midnightblue" stroke="midnightblue" points="474.854,-63.4118 469.036,-72.2666 479.106,-68.9723 474.854,-63.4118"/>
</g>
<!-- Node6 -->
<g id="node11" class="node"><title>Node6</title>
<a xlink:href="_test_clustering_8cc.html" target="_top" xlink:title="test/reconstruct/TestClustering.cc">
<polygon fill="white" stroke="black" points="633.5,-7.5 633.5,-28.5 798.5,-28.5 798.5,-7.5 633.5,-7.5"/>
<text text-anchor="middle" x="716" y="-15.5" font-family="Helvetica,sans-Serif" font-size="10.00">test/reconstruct/TestClustering.cc</text>
</a>
</g>
<!-- Node1&#45;&gt;Node6 -->
<g id="edge10" class="edge"><title>Node1&#45;&gt;Node6</title>
<path fill="none" stroke="midnightblue" d="M506.993,-70.0517C555.952,-57.8588 628.374,-39.8227 673.836,-28.5005"/>
<polygon fill="midnightblue" stroke="midnightblue" points="506.082,-66.6714 497.224,-72.4844 507.774,-73.464 506.082,-66.6714"/>
</g>
<!-- Node7 -->
<g id="node13" class="node"><title>Node7</title>
<a xlink:href="_test_reconstruct_8cc.html" target="_top" xlink:title="test/reconstruct/TestReconstruct.cc">
<polygon fill="white" stroke="black" points="816,-7.5 816,-28.5 990,-28.5 990,-7.5 816,-7.5"/>
<text text-anchor="middle" x="903" y="-15.5" font-family="Helvetica,sans-Serif" font-size="10.00">test/reconstruct/TestReconstruct.cc</text>
</a>
</g>
<!-- Node1&#45;&gt;Node7 -->
<g id="edge12" class="edge"><title>Node1&#45;&gt;Node7</title>
<path fill="none" stroke="midnightblue" d="M533.894,-73.6706C605.348,-64.9349 713.44,-51.0068 807,-36 820.813,-33.7844 835.693,-31.1275 849.518,-28.5437"/>
<polygon fill="midnightblue" stroke="midnightblue" points="533.127,-70.238 523.624,-74.9213 533.974,-77.1867 533.127,-70.238"/>
</g>
</g>
</svg>
