<?xml version="1.0" encoding="UTF-8" standalone="no"?>
<!DOCTYPE svg PUBLIC "-//W3C//DTD SVG 1.1//EN"
 "http://www.w3.org/Graphics/SVG/1.1/DTD/svg11.dtd">
<!-- Generated by graphviz version 2.26.3 (20100126.1600)
 -->
<!-- Title: src/base/CmdLine.h Pages: 1 -->
<svg width="4316pt" height="102pt"
 viewBox="0.00 0.00 4316.00 102.00" xmlns="http://www.w3.org/2000/svg" xmlns:xlink="http://www.w3.org/1999/xlink">
<g id="graph1" class="graph" transform="scale(1 1) rotate(0) translate(4 98)">
<title>src/base/CmdLine.h</title>
<polygon fill="white" stroke="white" points="-4,5 -4,-98 4313,-98 4313,5 -4,5"/>
<!-- Node1 -->
<g id="node1" class="node"><title>Node1</title>
<polygon fill="#bfbfbf" stroke="black" points="2108,-72.5 2108,-93.5 2212,-93.5 2212,-72.5 2108,-72.5"/>
<text text-anchor="middle" x="2160" y="-80.5" font-family="Helvetica,sans-Serif" font-size="10.00">src/base/CmdLine.h</text>
</g>
<!-- Node2 -->
<g id="node3" class="node"><title>Node2</title>
<a xlink:href="_ant-alt_veto_cal_tool_8cc.html" target="_top" xlink:title="progs/Ant&#45;altVetoCalTool.cc">
<polygon fill="white" stroke="black" points="0,-7.5 0,-28.5 140,-28.5 140,-7.5 0,-7.5"/>
<text text-anchor="middle" x="70" y="-15.5" font-family="Helvetica,sans-Serif" font-size="10.00">progs/Ant&#45;altVetoCalTool.cc</text>
</a>
</g>
<!-- Node1&#45;&gt;Node2 -->
<g id="edge2" class="edge"><title>Node1&#45;&gt;Node2</title>
<path fill="none" stroke="midnightblue" d="M2097.24,-82.2832C1778.44,-78.5413 345.926,-60.4839 149,-36 135.878,-34.3686 121.741,-31.5083 109.104,-28.5417"/>
<polygon fill="midnightblue" stroke="midnightblue" points="2097.63,-85.7879 2107.67,-82.4051 2097.71,-78.7883 2097.63,-85.7879"/>
</g>
<!-- Node3 -->
<g id="node5" class="node"><title>Node3</title>
<a xlink:href="_ant-calib-editor_8cc.html" target="_top" xlink:title="progs/Ant&#45;calib&#45;editor.cc">
<polygon fill="white" stroke="black" points="158,-7.5 158,-28.5 280,-28.5 280,-7.5 158,-7.5"/>
<text text-anchor="middle" x="219" y="-15.5" font-family="Helvetica,sans-Serif" font-size="10.00">progs/Ant&#45;calib&#45;editor.cc</text>
</a>
</g>
<!-- Node1&#45;&gt;Node3 -->
<g id="edge4" class="edge"><title>Node1&#45;&gt;Node3</title>
<path fill="none" stroke="midnightblue" d="M2097.21,-82.2678C1792.05,-78.5954 470.984,-61.3492 289,-36 277.318,-34.3727 264.777,-31.5136 253.583,-28.5467"/>
<polygon fill="midnightblue" stroke="midnightblue" points="2097.6,-85.7726 2107.64,-82.3927 2097.68,-78.7731 2097.6,-85.7726"/>
</g>
<!-- Node4 -->
<g id="node7" class="node"><title>Node4</title>
<a xlink:href="_ant-calib-regedit_8cc.html" target="_top" xlink:title="progs/Ant&#45;calib&#45;regedit.cc">
<polygon fill="white" stroke="black" points="298,-7.5 298,-28.5 426,-28.5 426,-7.5 298,-7.5"/>
<text text-anchor="middle" x="362" y="-15.5" font-family="Helvetica,sans-Serif" font-size="10.00">progs/Ant&#45;calib&#45;regedit.cc</text>
</a>
</g>
<!-- Node1&#45;&gt;Node4 -->
<g id="edge6" class="edge"><title>Node1&#45;&gt;Node4</title>
<path fill="none" stroke="midnightblue" d="M2097.47,-82.0917C1807.64,-77.7739 601.975,-58.5939 435,-36 422.841,-34.3547 409.769,-31.4908 398.093,-28.525"/>
<polygon fill="midnightblue" stroke="midnightblue" points="2097.74,-85.596 2107.79,-82.2449 2097.85,-78.5967 2097.74,-85.596"/>
</g>
<!-- Node5 -->
<g id="node9" class="node"><title>Node5</title>
<a xlink:href="_ant-calib-viewer_8cc.html" target="_top" xlink:title="progs/Ant&#45;calib&#45;viewer.cc">
<polygon fill="white" stroke="black" points="443.5,-7.5 443.5,-28.5 570.5,-28.5 570.5,-7.5 443.5,-7.5"/>
<text text-anchor="middle" x="507" y="-15.5" font-family="Helvetica,sans-Serif" font-size="10.00">progs/Ant&#45;calib&#45;viewer.cc</text>
</a>
</g>
<!-- Node1&#45;&gt;Node5 -->
<g id="edge8" class="edge"><title>Node1&#45;&gt;Node5</title>
<path fill="none" stroke="midnightblue" d="M2097.83,-81.9435C1823.86,-77.1803 731.073,-57.0194 579,-36 567.002,-34.3417 554.108,-31.4743 542.593,-28.5094"/>
<polygon fill="midnightblue" stroke="midnightblue" points="2097.93,-85.4457 2107.99,-82.1196 2098.05,-78.4467 2097.93,-85.4457"/>
</g>
<!-- Node6 -->
<g id="node11" class="node"><title>Node6</title>
<a xlink:href="_ant-calib_8cc.html" target="_top" xlink:title="progs/Ant&#45;calib.cc">
<polygon fill="white" stroke="black" points="587.5,-7.5 587.5,-28.5 682.5,-28.5 682.5,-7.5 587.5,-7.5"/>
<text text-anchor="middle" x="635" y="-15.5" font-family="Helvetica,sans-Serif" font-size="10.00">progs/Ant&#45;calib.cc</text>
</a>
</g>
<!-- Node1&#45;&gt;Node6 -->
<g id="edge10" class="edge"><title>Node1&#45;&gt;Node6</title>
<path fill="none" stroke="midnightblue" d="M2097.53,-82.028C1835.31,-77.8085 830.716,-60.1976 691,-36 681.541,-34.3618 671.479,-31.4998 662.531,-28.5336"/>
<polygon fill="midnightblue" stroke="midnightblue" points="2097.58,-85.5292 2107.64,-82.1899 2097.69,-78.5301 2097.58,-85.5292"/>
</g>
<!-- Node7 -->
<g id="node13" class="node"><title>Node7</title>
<a xlink:href="_ant-chain_8cc.html" target="_top" xlink:title="hadd like tool to concatenate TTrees in ROOT files using TChains. ">
<polygon fill="white" stroke="black" points="700,-7.5 700,-28.5 798,-28.5 798,-7.5 700,-7.5"/>
<text text-anchor="middle" x="749" y="-15.5" font-family="Helvetica,sans-Serif" font-size="10.00">progs/Ant&#45;chain.cc</text>
</a>
</g>
<!-- Node1&#45;&gt;Node7 -->
<g id="edge12" class="edge"><title>Node1&#45;&gt;Node7</title>
<path fill="none" stroke="midnightblue" d="M2097.64,-81.8096C1848.92,-76.9281 934.934,-57.674 807,-36 797.229,-34.3446 786.813,-31.478 777.544,-28.5128"/>
<polygon fill="midnightblue" stroke="midnightblue" points="2097.88,-85.3148 2107.95,-82.011 2098.02,-78.3161 2097.88,-85.3148"/>
</g>
<!-- Node8 -->
<g id="node15" class="node"><title>Node8</title>
<a xlink:href="_ant-cocktail_8cc.html" target="_top" xlink:title="progs/Ant&#45;cocktail.cc">
<polygon fill="white" stroke="black" points="815.5,-7.5 815.5,-28.5 924.5,-28.5 924.5,-7.5 815.5,-7.5"/>
<text text-anchor="middle" x="870" y="-15.5" font-family="Helvetica,sans-Serif" font-size="10.00">progs/Ant&#45;cocktail.cc</text>
</a>
</g>
<!-- Node1&#45;&gt;Node8 -->
<g id="edge14" class="edge"><title>Node1&#45;&gt;Node8</title>
<path fill="none" stroke="midnightblue" d="M2097.52,-82.5854C1880.59,-80.8369 1160.83,-72.3684 933,-36 922.553,-34.3324 911.383,-31.5009 901.392,-28.5712"/>
<polygon fill="midnightblue" stroke="midnightblue" points="2097.74,-86.0872 2107.77,-82.666 2097.8,-79.0874 2097.74,-86.0872"/>
</g>
<!-- Node9 -->
<g id="node17" class="node"><title>Node9</title>
<a xlink:href="_ant-compare_hists_8cc.html" target="_top" xlink:title="progs/Ant&#45;compareHists.cc">
<polygon fill="white" stroke="black" points="942,-7.5 942,-28.5 1078,-28.5 1078,-7.5 942,-7.5"/>
<text text-anchor="middle" x="1010" y="-15.5" font-family="Helvetica,sans-Serif" font-size="10.00">progs/Ant&#45;compareHists.cc</text>
</a>
</g>
<!-- Node1&#45;&gt;Node9 -->
<g id="edge16" class="edge"><title>Node1&#45;&gt;Node9</title>
<path fill="none" stroke="midnightblue" d="M2097.55,-81.79C1899.09,-77.7043 1284.24,-63.1339 1087,-36 1074.49,-34.2787 1061.02,-31.4699 1048.91,-28.5775"/>
<polygon fill="midnightblue" stroke="midnightblue" points="2097.73,-85.2943 2107.8,-81.9993 2097.88,-78.2958 2097.73,-85.2943"/>
</g>
<!-- Node10 -->
<g id="node19" class="node"><title>Node10</title>
<a xlink:href="_ant-copy_tree_8cc.html" target="_top" xlink:title="progs/Ant&#45;copyTree.cc">
<polygon fill="white" stroke="black" points="1096,-7.5 1096,-28.5 1212,-28.5 1212,-7.5 1096,-7.5"/>
<text text-anchor="middle" x="1154" y="-15.5" font-family="Helvetica,sans-Serif" font-size="10.00">progs/Ant&#45;copyTree.cc</text>
</a>
</g>
<!-- Node1&#45;&gt;Node10 -->
<g id="edge18" class="edge"><title>Node1&#45;&gt;Node10</title>
<path fill="none" stroke="midnightblue" d="M2097.74,-81.6093C1916.39,-77.2851 1390.73,-62.7361 1221,-36 1210.05,-34.2758 1198.32,-31.4662 1187.78,-28.5739"/>
<polygon fill="midnightblue" stroke="midnightblue" points="2097.82,-85.1122 2107.9,-81.8496 2097.99,-78.1142 2097.82,-85.1122"/>
</g>
<!-- Node11 -->
<g id="node21" class="node"><title>Node11</title>
<a xlink:href="_ant-fake_raw_8cc.html" target="_top" xlink:title="progs/Ant&#45;fakeRaw.cc">
<polygon fill="white" stroke="black" points="1230,-7.5 1230,-28.5 1344,-28.5 1344,-7.5 1230,-7.5"/>
<text text-anchor="middle" x="1287" y="-15.5" font-family="Helvetica,sans-Serif" font-size="10.00">progs/Ant&#45;fakeRaw.cc</text>
</a>
</g>
<!-- Node1&#45;&gt;Node11 -->
<g id="edge20" class="edge"><title>Node1&#45;&gt;Node11</title>
<path fill="none" stroke="midnightblue" d="M2097.4,-81.0397C1933.77,-75.6455 1496.06,-59.4123 1353,-36 1342.22,-34.2353 1330.66,-31.4143 1320.28,-28.5241"/>
<polygon fill="midnightblue" stroke="midnightblue" points="2097.67,-84.5502 2107.78,-81.3793 2097.9,-77.554 2097.67,-84.5502"/>
</g>
<!-- Node12 -->
<g id="node23" class="node"><title>Node12</title>
<a xlink:href="_ant-hadd_8cc.html" target="_top" xlink:title="progs/Ant&#45;hadd.cc">
<polygon fill="white" stroke="black" points="1362,-7.5 1362,-28.5 1458,-28.5 1458,-7.5 1362,-7.5"/>
<text text-anchor="middle" x="1410" y="-15.5" font-family="Helvetica,sans-Serif" font-size="10.00">progs/Ant&#45;hadd.cc</text>
</a>
</g>
<!-- Node1&#45;&gt;Node12 -->
<g id="edge22" class="edge"><title>Node1&#45;&gt;Node12</title>
<path fill="none" stroke="midnightblue" d="M2097.6,-80.6721C1950.81,-74.8879 1586.98,-58.6766 1467,-36 1457.62,-34.2269 1447.62,-31.4035 1438.66,-28.5138"/>
<polygon fill="midnightblue" stroke="midnightblue" points="2097.66,-84.1769 2107.79,-81.0705 2097.93,-77.1823 2097.66,-84.1769"/>
</g>
<!-- Node13 -->
<g id="node25" class="node"><title>Node13</title>
<a xlink:href="_ant-make_sigmas_8cc.html" target="_top" xlink:title="progs/Ant&#45;makeSigmas.cc">
<polygon fill="white" stroke="black" points="1476,-7.5 1476,-28.5 1608,-28.5 1608,-7.5 1476,-7.5"/>
<text text-anchor="middle" x="1542" y="-15.5" font-family="Helvetica,sans-Serif" font-size="10.00">progs/Ant&#45;makeSigmas.cc</text>
</a>
</g>
<!-- Node1&#45;&gt;Node13 -->
<g id="edge24" class="edge"><title>Node1&#45;&gt;Node13</title>
<path fill="none" stroke="midnightblue" d="M2097.57,-80.6256C1996.19,-76.092 1789.7,-64.0369 1617,-36 1605.24,-34.0902 1592.59,-31.3328 1581.09,-28.5479"/>
<polygon fill="midnightblue" stroke="midnightblue" points="2097.5,-84.1255 2107.64,-81.0664 2097.8,-77.1322 2097.5,-84.1255"/>
</g>
<!-- Node14 -->
<g id="node27" class="node"><title>Node14</title>
<a xlink:href="_ant-make_tagg_eff_8cc.html" target="_top" xlink:title="progs/Ant&#45;makeTaggEff.cc">
<polygon fill="white" stroke="black" points="1626,-7.5 1626,-28.5 1760,-28.5 1760,-7.5 1626,-7.5"/>
<text text-anchor="middle" x="1693" y="-15.5" font-family="Helvetica,sans-Serif" font-size="10.00">progs/Ant&#45;makeTaggEff.cc</text>
</a>
</g>
<!-- Node1&#45;&gt;Node14 -->
<g id="edge26" class="edge"><title>Node1&#45;&gt;Node14</title>
<path fill="none" stroke="midnightblue" d="M2097.8,-77.7086C2020.38,-70.6224 1884.31,-56.5185 1769,-36 1757.52,-33.9571 1745.18,-31.2555 1733.84,-28.5681"/>
<polygon fill="midnightblue" stroke="midnightblue" points="2097.59,-81.2039 2107.86,-78.6206 2098.22,-74.2324 2097.59,-81.2039"/>
</g>
<!-- Node15 -->
<g id="node29" class="node"><title>Node15</title>
<a xlink:href="_ant-mcsmearing_8cc.html" target="_top" xlink:title="progs/Ant&#45;mcsmearing.cc">
<polygon fill="white" stroke="black" points="1778,-7.5 1778,-28.5 1906,-28.5 1906,-7.5 1778,-7.5"/>
<text text-anchor="middle" x="1842" y="-15.5" font-family="Helvetica,sans-Serif" font-size="10.00">progs/Ant&#45;mcsmearing.cc</text>
</a>
</g>
<!-- Node1&#45;&gt;Node15 -->
<g id="edge28" class="edge"><title>Node1&#45;&gt;Node15</title>
<path fill="none" stroke="midnightblue" d="M2097.8,-71.9951C2048.17,-62.9904 1976.94,-49.5686 1915,-36 1904.67,-33.7376 1893.57,-31.1049 1883.22,-28.5626"/>
<polygon fill="midnightblue" stroke="midnightblue" points="2097.28,-75.4572 2107.74,-73.7919 2098.53,-68.5688 2097.28,-75.4572"/>
</g>
<!-- Node16 -->
<g id="node31" class="node"><title>Node16</title>
<a xlink:href="_ant-pluto_8cc.html" target="_top" xlink:title="Pluto generator forntend. ">
<polygon fill="white" stroke="black" points="1924,-7.5 1924,-28.5 2020,-28.5 2020,-7.5 1924,-7.5"/>
<text text-anchor="middle" x="1972" y="-15.5" font-family="Helvetica,sans-Serif" font-size="10.00">progs/Ant&#45;pluto.cc</text>
</a>
</g>
<!-- Node1&#45;&gt;Node16 -->
<g id="edge30" class="edge"><title>Node1&#45;&gt;Node16</title>
<path fill="none" stroke="midnightblue" d="M2119.91,-69.1377C2084.81,-57.0023 2034.56,-39.6302 2002.61,-28.5835"/>
<polygon fill="midnightblue" stroke="midnightblue" points="2118.78,-72.4521 2129.38,-72.412 2121.07,-65.8364 2118.78,-72.4521"/>
</g>
<!-- Node17 -->
<g id="node33" class="node"><title>Node17</title>
<a xlink:href="_ant-rawdump_8cc.html" target="_top" xlink:title="progs/Ant&#45;rawdump.cc">
<polygon fill="white" stroke="black" points="2037.5,-7.5 2037.5,-28.5 2152.5,-28.5 2152.5,-7.5 2037.5,-7.5"/>
<text text-anchor="middle" x="2095" y="-15.5" font-family="Helvetica,sans-Serif" font-size="10.00">progs/Ant&#45;rawdump.cc</text>
</a>
</g>
<!-- Node1&#45;&gt;Node17 -->
<g id="edge32" class="edge"><title>Node1&#45;&gt;Node17</title>
<path fill="none" stroke="midnightblue" d="M2142.1,-65.0992C2130.36,-53.3566 2115.4,-38.4043 2105.53,-28.5337"/>
<polygon fill="midnightblue" stroke="midnightblue" points="2139.72,-67.6704 2149.27,-72.2666 2144.67,-62.7206 2139.72,-67.6704"/>
</g>
<!-- Node18 -->
<g id="node35" class="node"><title>Node18</title>
<a xlink:href="_ant-tree_tool_8cc.html" target="_top" xlink:title="progs/Ant&#45;treeTool.cc">
<polygon fill="white" stroke="black" points="2170,-7.5 2170,-28.5 2280,-28.5 2280,-7.5 2170,-7.5"/>
<text text-anchor="middle" x="2225" y="-15.5" font-family="Helvetica,sans-Serif" font-size="10.00">progs/Ant&#45;treeTool.cc</text>
</a>
</g>
<!-- Node1&#45;&gt;Node18 -->
<g id="edge34" class="edge"><title>Node1&#45;&gt;Node18</title>
<path fill="none" stroke="midnightblue" d="M2177.9,-65.0992C2189.64,-53.3566 2204.6,-38.4043 2214.47,-28.5337"/>
<polygon fill="midnightblue" stroke="midnightblue" points="2175.33,-62.7206 2170.73,-72.2666 2180.28,-67.6704 2175.33,-62.7206"/>
</g>
<!-- Node19 -->
<g id="node37" class="node"><title>Node19</title>
<a xlink:href="_ant_8cc.html" target="_top" xlink:title="Main Ant executable. ">
<polygon fill="white" stroke="black" points="2298,-7.5 2298,-28.5 2370,-28.5 2370,-7.5 2298,-7.5"/>
<text text-anchor="middle" x="2334" y="-15.5" font-family="Helvetica,sans-Serif" font-size="10.00">progs/Ant.cc</text>
</a>
</g>
<!-- Node1&#45;&gt;Node19 -->
<g id="edge36" class="edge"><title>Node1&#45;&gt;Node19</title>
<path fill="none" stroke="midnightblue" d="M2199.53,-68.9565C2225.12,-59.7771 2259.12,-47.4155 2289,-36 2295.13,-33.6576 2301.7,-31.0716 2307.88,-28.6078"/>
<polygon fill="midnightblue" stroke="midnightblue" points="2198.05,-65.7692 2189.81,-72.4342 2200.41,-72.3599 2198.05,-65.7692"/>
</g>
<!-- Node20 -->
<g id="node39" class="node"><title>Node20</title>
<a xlink:href="compare__ant__goat_8cc.html" target="_top" xlink:title="progs/compare_ant_goat.cc">
<polygon fill="white" stroke="black" points="2387.5,-7.5 2387.5,-28.5 2524.5,-28.5 2524.5,-7.5 2387.5,-7.5"/>
<text text-anchor="middle" x="2456" y="-15.5" font-family="Helvetica,sans-Serif" font-size="10.00">progs/compare_ant_goat.cc</text>
</a>
</g>
<!-- Node1&#45;&gt;Node20 -->
<g id="edge38" class="edge"><title>Node1&#45;&gt;Node20</title>
<path fill="none" stroke="midnightblue" d="M2220.47,-70.3317C2264.48,-61.0363 2325.49,-47.9949 2379,-36 2389.58,-33.6277 2400.97,-31.0053 2411.65,-28.5133"/>
<polygon fill="midnightblue" stroke="midnightblue" points="2219.57,-66.9447 2210.51,-72.4334 2221.01,-73.794 2219.57,-66.9447"/>
</g>
<!-- Node21 -->
<g id="node41" class="node"><title>Node21</title>
<a xlink:href="compare__tree__events_8cc.html" target="_top" xlink:title="progs/compare_tree\l_events.cc">
<polygon fill="white" stroke="black" points="2541.5,-1 2541.5,-35 2644.5,-35 2644.5,-1 2541.5,-1"/>
<text text-anchor="start" x="2549.5" y="-22" font-family="Helvetica,sans-Serif" font-size="10.00">progs/compare_tree</text>
<text text-anchor="middle" x="2593" y="-9" font-family="Helvetica,sans-Serif" font-size="10.00">_events.cc</text>
</a>
</g>
<!-- Node1&#45;&gt;Node21 -->
<g id="edge40" class="edge"><title>Node1&#45;&gt;Node21</title>
<path fill="none" stroke="midnightblue" d="M2222.19,-78.3443C2296.66,-72.0392 2424.9,-58.8604 2533,-36 2535.77,-35.415 2538.59,-34.7631 2541.43,-34.0641"/>
<polygon fill="midnightblue" stroke="midnightblue" points="2221.72,-74.8711 2212.04,-79.1886 2222.3,-81.847 2221.72,-74.8711"/>
</g>
<!-- Node22 -->
<g id="node43" class="node"><title>Node22</title>
<a xlink:href="_eta_dalitz__plot_8cc.html" target="_top" xlink:title="Plotting tool for TTrees from the ant::analysis::physics::common::MesonDalitzDecays physics class...">
<polygon fill="white" stroke="black" points="2661.5,-7.5 2661.5,-28.5 2780.5,-28.5 2780.5,-7.5 2661.5,-7.5"/>
<text text-anchor="middle" x="2721" y="-15.5" font-family="Helvetica,sans-Serif" font-size="10.00">progs/EtaDalitz_plot.cc</text>
</a>
</g>
<!-- Node1&#45;&gt;Node22 -->
<g id="edge42" class="edge"><title>Node1&#45;&gt;Node22</title>
<path fill="none" stroke="midnightblue" d="M2222.38,-80.3299C2316.37,-75.5701 2499.63,-63.4187 2653,-36 2663.7,-34.0872 2675.18,-31.3289 2685.6,-28.544"/>
<polygon fill="midnightblue" stroke="midnightblue" points="2222.01,-76.844 2212.19,-80.8345 2222.35,-83.8355 2222.01,-76.844"/>
</g>
<!-- Node23 -->
<g id="node45" class="node"><title>Node23</title>
<a xlink:href="_etap_dalitz__plot_8cc.html" target="_top" xlink:title="Plotting tool for TTrees from the ant::analysis::physics::etaprime::etaprime_dalitz physics class...">
<polygon fill="white" stroke="black" points="2798,-7.5 2798,-28.5 2922,-28.5 2922,-7.5 2798,-7.5"/>
<text text-anchor="middle" x="2860" y="-15.5" font-family="Helvetica,sans-Serif" font-size="10.00">progs/EtapDalitz_plot.cc</text>
</a>
</g>
<!-- Node1&#45;&gt;Node23 -->
<g id="edge44" class="edge"><title>Node1&#45;&gt;Node23</title>
<path fill="none" stroke="midnightblue" d="M2222.36,-81.921C2335.83,-79.1651 2583.31,-69.4973 2789,-36 2800.3,-34.1604 2812.42,-31.3896 2823.4,-28.5696"/>
<polygon fill="midnightblue" stroke="midnightblue" points="2222.05,-78.4272 2212.14,-82.1594 2222.21,-85.4253 2222.05,-78.4272"/>
</g>
<!-- Node24 -->
<g id="node47" class="node"><title>Node24</title>
<a xlink:href="_etap_omega_g__fit_8cc.html" target="_top" xlink:title="progs/EtapOmegaG_fit.cc">
<polygon fill="white" stroke="black" points="2940,-7.5 2940,-28.5 3070,-28.5 3070,-7.5 2940,-7.5"/>
<text text-anchor="middle" x="3005" y="-15.5" font-family="Helvetica,sans-Serif" font-size="10.00">progs/EtapOmegaG_fit.cc</text>
</a>
</g>
<!-- Node1&#45;&gt;Node24 -->
<g id="edge46" class="edge"><title>Node1&#45;&gt;Node24</title>
<path fill="none" stroke="midnightblue" d="M2222.29,-80.6335C2380.47,-74.3942 2794.76,-56.5555 2931,-36 2942.9,-34.205 2955.69,-31.4117 2967.23,-28.5566"/>
<polygon fill="midnightblue" stroke="midnightblue" points="2222.1,-77.1381 2212.25,-81.0276 2222.38,-84.1327 2222.1,-77.1381"/>
</g>
<!-- Node25 -->
<g id="node49" class="node"><title>Node25</title>
<a xlink:href="_etap_omega_g__plot_8cc.html" target="_top" xlink:title="progs/EtapOmegaG_plot.cc">
<polygon fill="white" stroke="black" points="3087.5,-7.5 3087.5,-28.5 3224.5,-28.5 3224.5,-7.5 3087.5,-7.5"/>
<text text-anchor="middle" x="3156" y="-15.5" font-family="Helvetica,sans-Serif" font-size="10.00">progs/EtapOmegaG_plot.cc</text>
</a>
</g>
<!-- Node1&#45;&gt;Node25 -->
<g id="edge48" class="edge"><title>Node1&#45;&gt;Node25</title>
<path fill="none" stroke="midnightblue" d="M2222.14,-81.2696C2400.67,-76.0686 2912.87,-59.4745 3079,-36 3091.51,-34.2329 3104.97,-31.4112 3117.08,-28.5211"/>
<polygon fill="midnightblue" stroke="midnightblue" points="2222.02,-77.7715 2212.13,-81.5596 2222.23,-84.7686 2222.02,-77.7715"/>
</g>
<!-- Node26 -->
<g id="node51" class="node"><title>Node26</title>
<a xlink:href="_omega_eta_g2__plot_8cc.html" target="_top" xlink:title="Plotting tool for TTrees from the ant::analysis::physics::OmegaEtaG2 physics class. ">
<polygon fill="white" stroke="black" points="3241.5,-7.5 3241.5,-28.5 3378.5,-28.5 3378.5,-7.5 3241.5,-7.5"/>
<text text-anchor="middle" x="3310" y="-15.5" font-family="Helvetica,sans-Serif" font-size="10.00">progs/OmegaEtaG2_plot.cc</text>
</a>
</g>
<!-- Node1&#45;&gt;Node26 -->
<g id="edge50" class="edge"><title>Node1&#45;&gt;Node26</title>
<path fill="none" stroke="midnightblue" d="M2222.45,-81.79C2420.91,-77.7043 3035.76,-63.1339 3233,-36 3245.51,-34.2787 3258.98,-31.4699 3271.09,-28.5775"/>
<polygon fill="midnightblue" stroke="midnightblue" points="2222.12,-78.2958 2212.2,-81.9993 2222.27,-85.2943 2222.12,-78.2958"/>
</g>
<!-- Node27 -->
<g id="node53" class="node"><title>Node27</title>
<a xlink:href="process_etap_tree_8cc.html" target="_top" xlink:title="progs/processEtapTree.cc">
<polygon fill="white" stroke="black" points="3395.5,-7.5 3395.5,-28.5 3526.5,-28.5 3526.5,-7.5 3395.5,-7.5"/>
<text text-anchor="middle" x="3461" y="-15.5" font-family="Helvetica,sans-Serif" font-size="10.00">progs/processEtapTree.cc</text>
</a>
</g>
<!-- Node1&#45;&gt;Node27 -->
<g id="edge52" class="edge"><title>Node1&#45;&gt;Node27</title>
<path fill="none" stroke="midnightblue" d="M2222.43,-82.2613C2439.2,-79.438 3158.49,-67.8402 3387,-36 3399.18,-34.303 3412.27,-31.4635 3424.01,-28.5355"/>
<polygon fill="midnightblue" stroke="midnightblue" points="2222.14,-78.7646 2212.19,-82.393 2222.23,-85.764 2222.14,-78.7646"/>
</g>
<!-- Node28 -->
<g id="node55" class="node"><title>Node28</title>
<a xlink:href="show__cocktail__database_8cc.html" target="_top" xlink:title="progs/show_cocktail\l_database.cc">
<polygon fill="white" stroke="black" points="3544,-1 3544,-35 3650,-35 3650,-1 3544,-1"/>
<text text-anchor="start" x="3552" y="-22" font-family="Helvetica,sans-Serif" font-size="10.00">progs/show_cocktail</text>
<text text-anchor="middle" x="3597" y="-9" font-family="Helvetica,sans-Serif" font-size="10.00">_database.cc</text>
</a>
</g>
<!-- Node1&#45;&gt;Node28 -->
<g id="edge54" class="edge"><title>Node1&#45;&gt;Node28</title>
<path fill="none" stroke="midnightblue" d="M2222.14,-81.7843C2473.09,-76.7507 3404.58,-56.8287 3535,-36 3537.88,-35.5404 3540.81,-34.9885 3543.76,-34.3678"/>
<polygon fill="midnightblue" stroke="midnightblue" points="2222.03,-78.2857 2212.1,-81.985 2222.17,-85.2843 2222.03,-78.2857"/>
</g>
<!-- Node29 -->
<g id="node57" class="node"><title>Node29</title>
<a xlink:href="simulate__livetime_8cc.html" target="_top" xlink:title="progs/simulate_livetime.cc">
<polygon fill="white" stroke="black" points="3667.5,-7.5 3667.5,-28.5 3800.5,-28.5 3800.5,-7.5 3667.5,-7.5"/>
<text text-anchor="middle" x="3734" y="-15.5" font-family="Helvetica,sans-Serif" font-size="10.00">progs/simulate_livetime.cc</text>
</a>
</g>
<!-- Node1&#45;&gt;Node29 -->
<g id="edge56" class="edge"><title>Node1&#45;&gt;Node29</title>
<path fill="none" stroke="midnightblue" d="M2222.21,-82.7419C2468.35,-81.4585 3374.55,-74.1856 3659,-36 3671.34,-34.3431 3684.62,-31.5145 3696.51,-28.5842"/>
<polygon fill="midnightblue" stroke="midnightblue" points="2222,-79.2428 2212.01,-82.7935 2222.03,-86.2427 2222,-79.2428"/>
</g>
<!-- Node30 -->
<g id="node59" class="node"><title>Node30</title>
<a xlink:href="tagg_eff_plot_8cc.html" target="_top" xlink:title="progs/taggEffPlot.cc">
<polygon fill="white" stroke="black" points="3818,-7.5 3818,-28.5 3924,-28.5 3924,-7.5 3818,-7.5"/>
<text text-anchor="middle" x="3871" y="-15.5" font-family="Helvetica,sans-Serif" font-size="10.00">progs/taggEffPlot.cc</text>
</a>
</g>
<!-- Node1&#45;&gt;Node30 -->
<g id="edge58" class="edge"><title>Node1&#45;&gt;Node30</title>
<path fill="none" stroke="midnightblue" d="M2222.1,-82.1635C2503.27,-78.2498 3650.3,-60.8824 3809,-36 3819.41,-34.368 3830.53,-31.5076 3840.44,-28.541"/>
<polygon fill="midnightblue" stroke="midnightblue" points="2222.02,-78.6641 2212.07,-82.3025 2222.12,-85.6635 2222.02,-78.6641"/>
</g>
<!-- Node31 -->
<g id="node61" class="node"><title>Node31</title>
<a xlink:href="_triple_pi0__cuts_8cc.html" target="_top" xlink:title="progs/TriplePi0_cuts.cc">
<polygon fill="white" stroke="black" points="3941.5,-7.5 3941.5,-28.5 4060.5,-28.5 4060.5,-7.5 3941.5,-7.5"/>
<text text-anchor="middle" x="4001" y="-15.5" font-family="Helvetica,sans-Serif" font-size="10.00">progs/TriplePi0_cuts.cc</text>
</a>
</g>
<!-- Node1&#45;&gt;Node31 -->
<g id="edge60" class="edge"><title>Node1&#45;&gt;Node31</title>
<path fill="none" stroke="midnightblue" d="M2222.38,-82.2059C2516.9,-78.3403 3761.21,-60.6712 3933,-36 3944.36,-34.3682 3956.55,-31.5078 3967.42,-28.5412"/>
<polygon fill="midnightblue" stroke="midnightblue" points="2222.26,-78.707 2212.3,-82.3375 2222.35,-85.7064 2222.26,-78.707"/>
</g>
<!-- Node32 -->
<g id="node63" class="node"><title>Node32</title>
<a xlink:href="_triple_pi0__plot_8cc.html" target="_top" xlink:title="progs/TriplePi0_plot.cc">
<polygon fill="white" stroke="black" points="4078,-7.5 4078,-28.5 4194,-28.5 4194,-7.5 4078,-7.5"/>
<text text-anchor="middle" x="4136" y="-15.5" font-family="Helvetica,sans-Serif" font-size="10.00">progs/TriplePi0_plot.cc</text>
</a>
</g>
<!-- Node1&#45;&gt;Node32 -->
<g id="edge62" class="edge"><title>Node1&#45;&gt;Node32</title>
<path fill="none" stroke="midnightblue" d="M2222.09,-82.349C2529.7,-79.0059 3883.06,-62.874 4069,-36 4080.21,-34.3805 4092.22,-31.5234 4102.93,-28.556"/>
<polygon fill="midnightblue" stroke="midnightblue" points="2221.98,-78.8499 2212.02,-82.458 2222.05,-85.8495 2221.98,-78.8499"/>
</g>
<!-- Node33 -->
<g id="node65" class="node"><title>Node33</title>
<a xlink:href="_xmas_c_b_8cc.html" target="_top" xlink:title="progs/XmasCB.cc">
<polygon fill="white" stroke="black" points="4211.5,-7.5 4211.5,-28.5 4308.5,-28.5 4308.5,-7.5 4211.5,-7.5"/>
<text text-anchor="middle" x="4260" y="-15.5" font-family="Helvetica,sans-Serif" font-size="10.00">progs/XmasCB.cc</text>
</a>
</g>
<!-- Node1&#45;&gt;Node33 -->
<g id="edge64" class="edge"><title>Node1&#45;&gt;Node33</title>
<path fill="none" stroke="midnightblue" d="M2222.27,-82.6146C2543.28,-80.4878 4003.81,-69.0539 4203,-36 4212.62,-34.4031 4222.86,-31.5521 4231.97,-28.5832"/>
<polygon fill="midnightblue" stroke="midnightblue" points="2222.2,-79.1149 2212.22,-82.6806 2222.25,-86.1148 2222.2,-79.1149"/>
</g>
</g>
</svg>
