<?xml version="1.0" encoding="UTF-8" standalone="no"?>
<!DOCTYPE svg PUBLIC "-//W3C//DTD SVG 1.1//EN"
 "http://www.w3.org/Graphics/SVG/1.1/DTD/svg11.dtd">
<!-- Generated by graphviz version 2.26.3 (20100126.1600)
 -->
<!-- Title: src/base/math_functions/CrystalBall.h Pages: 1 -->
<svg width="272pt" height="116pt"
 viewBox="0.00 0.00 272.00 116.00" xmlns="http://www.w3.org/2000/svg" xmlns:xlink="http://www.w3.org/1999/xlink">
<g id="graph1" class="graph" transform="scale(1 1) rotate(0) translate(4 112)">
<title>src/base/math_functions/CrystalBall.h</title>
<polygon fill="white" stroke="white" points="-4,5 -4,-112 269,-112 269,5 -4,5"/>
<!-- Node1 -->
<g id="node1" class="node"><title>Node1</title>
<polygon fill="#bfbfbf" stroke="black" points="70,-73 70,-107 194,-107 194,-73 70,-73"/>
<text text-anchor="start" x="78" y="-94" font-family="Helvetica,sans-Serif" font-size="10.00">src/base/math_functions</text>
<text text-anchor="middle" x="132" y="-81" font-family="Helvetica,sans-Serif" font-size="10.00">/CrystalBall.h</text>
</g>
<!-- Node2 -->
<g id="node3" class="node"><title>Node2</title>
<a xlink:href="_crystal_ball_8cc.html" target="_top" xlink:title="src/base/math_functions\l/CrystalBall.cc">
<polygon fill="white" stroke="black" points="0,-1 0,-35 124,-35 124,-1 0,-1"/>
<text text-anchor="start" x="8" y="-22" font-family="Helvetica,sans-Serif" font-size="10.00">src/base/math_functions</text>
<text text-anchor="middle" x="62" y="-9" font-family="Helvetica,sans-Serif" font-size="10.00">/CrystalBall.cc</text>
</a>
</g>
<!-- Node1&#45;&gt;Node2 -->
<g id="edge2" class="edge"><title>Node1&#45;&gt;Node2</title>
<path fill="none" stroke="midnightblue" d="M108.346,-65.6706C98.7063,-55.7551 87.7786,-44.5151 78.9562,-35.4407"/>
<polygon fill="midnightblue" stroke="midnightblue" points="105.931,-68.2068 115.411,-72.937 110.95,-63.3272 105.931,-68.2068"/>
</g>
<!-- Node3 -->
<g id="node5" class="node"><title>Node3</title>
<a xlink:href="_math_8cc.html" target="_top" xlink:title="src/root&#45;addons/analysis\l_codes/Math.cc">
<polygon fill="white" stroke="black" points="141.5,-1 141.5,-35 264.5,-35 264.5,-1 141.5,-1"/>
<text text-anchor="start" x="149.5" y="-22" font-family="Helvetica,sans-Serif" font-size="10.00">src/root&#45;addons/analysis</text>
<text text-anchor="middle" x="203" y="-9" font-family="Helvetica,sans-Serif" font-size="10.00">_codes/Math.cc</text>
</a>
</g>
<!-- Node1&#45;&gt;Node3 -->
<g id="edge4" class="edge"><title>Node1&#45;&gt;Node3</title>
<path fill="none" stroke="midnightblue" d="M155.992,-65.6706C165.769,-55.7551 176.853,-44.5151 185.802,-35.4407"/>
<polygon fill="midnightblue" stroke="midnightblue" points="153.355,-63.3591 148.826,-72.937 158.34,-68.2742 153.355,-63.3591"/>
</g>
</g>
</svg>
