<?xml version="1.0" encoding="UTF-8" standalone="no"?>
<!DOCTYPE svg PUBLIC "-//W3C//DTD SVG 1.1//EN"
 "http://www.w3.org/Graphics/SVG/1.1/DTD/svg11.dtd">
<!-- Generated by graphviz version 2.26.3 (20100126.1600)
 -->
<!-- Title: src/analysis/physics/common/DataOverview.h Pages: 1 -->
<svg width="3777pt" height="580pt"
 viewBox="0.00 0.00 3777.43 580.00" xmlns="http://www.w3.org/2000/svg" xmlns:xlink="http://www.w3.org/1999/xlink">
<g id="graph1" class="graph" transform="scale(1 1) rotate(0) translate(4 576)">
<title>src/analysis/physics/common/DataOverview.h</title>
<polygon fill="white" stroke="white" points="-4,5 -4,-576 3774.43,-576 3774.43,5 -4,5"/>
<!-- Node1 -->
<g id="node1" class="node"><title>Node1</title>
<polygon fill="#bfbfbf" stroke="black" points="3638.93,-537 3638.93,-571 3769.93,-571 3769.93,-537 3638.93,-537"/>
<text text-anchor="start" x="3646.93" y="-558" font-family="Helvetica,sans-Serif" font-size="10.00">src/analysis/physics</text>
<text text-anchor="middle" x="3704.43" y="-545" font-family="Helvetica,sans-Serif" font-size="10.00">/common/DataOverview.h</text>
</g>
<!-- Node2 -->
<g id="node3" class="node"><title>Node2</title>
<a xlink:href="_physics_8h.html" target="_top" xlink:title="analysis/physics/Physics.h">
<polygon fill="white" stroke="black" points="3022.43,-478.5 3022.43,-499.5 3158.43,-499.5 3158.43,-478.5 3022.43,-478.5"/>
<text text-anchor="middle" x="3090.43" y="-486.5" font-family="Helvetica,sans-Serif" font-size="10.00">analysis/physics/Physics.h</text>
</a>
</g>
<!-- Node1&#45;&gt;Node2 -->
<g id="edge2" class="edge"><title>Node1&#45;&gt;Node2</title>
<path fill="none" stroke="midnightblue" d="M3638.72,-547.044C3524.67,-534.971 3290.62,-510.193 3168.49,-497.264"/>
<polygon fill="midnightblue" stroke="midnightblue" points="3168.78,-493.775 3158.46,-496.203 3168.04,-500.736 3168.78,-493.775"/>
</g>
<!-- Node16 -->
<g id="node33" class="node"><title>Node16</title>
<polygon fill="white" stroke="#bfbfbf" points="3408.93,-58.5 3408.93,-79.5 3449.93,-79.5 3449.93,-58.5 3408.93,-58.5"/>
<text text-anchor="middle" x="3429.43" y="-66.5" font-family="Helvetica,sans-Serif" font-size="10.00">string</text>
</g>
<!-- Node1&#45;&gt;Node16 -->
<g id="edge366" class="edge"><title>Node1&#45;&gt;Node16</title>
<path fill="none" stroke="midnightblue" d="M3713.24,-536.996C3724.47,-513.722 3742.43,-470.336 3742.43,-431 3742.43,-431 3742.43,-431 3742.43,-192 3742.43,-150.043 3722.01,-138.227 3686.43,-116 3648.96,-92.5951 3519.7,-77.595 3460.04,-71.7609"/>
<polygon fill="midnightblue" stroke="midnightblue" points="3460.37,-68.2765 3450.08,-70.8093 3459.7,-75.2448 3460.37,-68.2765"/>
</g>
<!-- Node68 -->
<g id="node246" class="node"><title>Node68</title>
<a xlink:href="_wrap_t_tree_8h.html" target="_top" xlink:title="base/WrapTTree.h">
<polygon fill="white" stroke="black" points="3559.43,-116.5 3559.43,-137.5 3657.43,-137.5 3657.43,-116.5 3559.43,-116.5"/>
<text text-anchor="middle" x="3608.43" y="-124.5" font-family="Helvetica,sans-Serif" font-size="10.00">base/WrapTTree.h</text>
</a>
</g>
<!-- Node1&#45;&gt;Node68 -->
<g id="edge356" class="edge"><title>Node1&#45;&gt;Node68</title>
<path fill="none" stroke="midnightblue" d="M3704.43,-536.888C3704.43,-513.127 3704.43,-468.797 3704.43,-431 3704.43,-431 3704.43,-431 3704.43,-257 3704.43,-208.436 3660.54,-166.112 3632.11,-143.792"/>
<polygon fill="midnightblue" stroke="midnightblue" points="3633.93,-140.781 3623.85,-137.523 3629.7,-146.356 3633.93,-140.781"/>
</g>
<!-- Node3 -->
<g id="node5" class="node"><title>Node3</title>
<a xlink:href="manager__t_8h.html" target="_top" xlink:title="analysis/physics/manager_t.h">
<polygon fill="white" stroke="black" points="3341.43,-420.5 3341.43,-441.5 3487.43,-441.5 3487.43,-420.5 3341.43,-420.5"/>
<text text-anchor="middle" x="3414.43" y="-428.5" font-family="Helvetica,sans-Serif" font-size="10.00">analysis/physics/manager_t.h</text>
</a>
</g>
<!-- Node2&#45;&gt;Node3 -->
<g id="edge4" class="edge"><title>Node2&#45;&gt;Node3</title>
<path fill="none" stroke="midnightblue" d="M3149.1,-478.497C3204.44,-468.591 3287.38,-453.743 3345.77,-443.291"/>
<polygon fill="midnightblue" stroke="midnightblue" points="3346.42,-446.73 3355.64,-441.523 3345.18,-439.84 3346.42,-446.73"/>
</g>
<!-- Node4 -->
<g id="node7" class="node"><title>Node4</title>
<a xlink:href="_histogram_factories_8h.html" target="_top" xlink:title="analysis/plot/HistogramFactories.h">
<polygon fill="white" stroke="black" points="2081.43,-246.5 2081.43,-267.5 2249.43,-267.5 2249.43,-246.5 2081.43,-246.5"/>
<text text-anchor="middle" x="2165.43" y="-254.5" font-family="Helvetica,sans-Serif" font-size="10.00">analysis/plot/HistogramFactories.h</text>
</a>
</g>
<!-- Node2&#45;&gt;Node4 -->
<g id="edge6" class="edge"><title>Node2&#45;&gt;Node4</title>
<path fill="none" stroke="midnightblue" d="M3022.24,-487.823C2868.31,-484.63 2497.9,-473.793 2377.43,-442 2320.15,-426.885 2302.84,-422.027 2257.43,-384 2220.24,-352.867 2190.26,-303.573 2175.46,-276.464"/>
<polygon fill="midnightblue" stroke="midnightblue" points="2178.51,-274.732 2170.71,-267.555 2172.33,-278.025 2178.51,-274.732"/>
</g>
<!-- Node2&#45;&gt;Node16 -->
<g id="edge348" class="edge"><title>Node2&#45;&gt;Node16</title>
<path fill="none" stroke="midnightblue" d="M3158.66,-484.271C3262.04,-476.64 3453.34,-460.575 3519.43,-442 3588.91,-422.472 3666.43,-445.173 3666.43,-373 3666.43,-373 3666.43,-373 3666.43,-257 3666.43,-194.333 3706.2,-164.431 3666.43,-116 3640.68,-84.6424 3518.5,-73.8378 3460.34,-70.4302"/>
<polygon fill="midnightblue" stroke="midnightblue" points="3460.44,-66.9305 3450.26,-69.8767 3460.05,-73.9199 3460.44,-66.9305"/>
</g>
<!-- Node17 -->
<g id="node36" class="node"><title>Node17</title>
<a xlink:href="memory_8h.html" target="_top" xlink:title="base/std_ext/memory.h">
<polygon fill="white" stroke="black" points="2494.93,-181.5 2494.93,-202.5 2613.93,-202.5 2613.93,-181.5 2494.93,-181.5"/>
<text text-anchor="middle" x="2554.43" y="-189.5" font-family="Helvetica,sans-Serif" font-size="10.00">base/std_ext/memory.h</text>
</a>
</g>
<!-- Node2&#45;&gt;Node17 -->
<g id="edge38" class="edge"><title>Node2&#45;&gt;Node17</title>
<path fill="none" stroke="midnightblue" d="M3044.54,-478.453C3022.86,-471.375 2998.13,-459.957 2981.43,-442 2959.31,-418.226 2957.43,-405.469 2957.43,-373 2957.43,-373 2957.43,-373 2957.43,-315 2957.43,-305.81 2708.95,-235.214 2602.21,-205.313"/>
<polygon fill="midnightblue" stroke="midnightblue" points="2602.91,-201.875 2592.34,-202.55 2601.03,-208.616 2602.91,-201.875"/>
</g>
<!-- Node18 -->
<g id="node38" class="node"><title>Node18</title>
<polygon fill="white" stroke="#bfbfbf" points="2467.43,-116.5 2467.43,-137.5 2519.43,-137.5 2519.43,-116.5 2467.43,-116.5"/>
<text text-anchor="middle" x="2493.43" y="-124.5" font-family="Helvetica,sans-Serif" font-size="10.00">memory</text>
</g>
<!-- Node2&#45;&gt;Node18 -->
<g id="edge352" class="edge"><title>Node2&#45;&gt;Node18</title>
<path fill="none" stroke="midnightblue" d="M3072.56,-478.294C3045.04,-460.291 2995.43,-421.157 2995.43,-373 2995.43,-373 2995.43,-373 2995.43,-315 2995.43,-279.47 2741.97,-185.712 2708.43,-174 2647.28,-152.648 2572.83,-138.965 2529.52,-132.157"/>
<polygon fill="midnightblue" stroke="midnightblue" points="2529.88,-128.671 2519.46,-130.613 2528.82,-135.59 2529.88,-128.671"/>
</g>
<!-- Node19 -->
<g id="node40" class="node"><title>Node19</title>
<polygon fill="white" stroke="#bfbfbf" points="2420.93,-116.5 2420.93,-137.5 2449.93,-137.5 2449.93,-116.5 2420.93,-116.5"/>
<text text-anchor="middle" x="2435.43" y="-124.5" font-family="Helvetica,sans-Serif" font-size="10.00">list</text>
</g>
<!-- Node2&#45;&gt;Node19 -->
<g id="edge346" class="edge"><title>Node2&#45;&gt;Node19</title>
<path fill="none" stroke="midnightblue" d="M3022.13,-484.789C2846.24,-473.037 2391.43,-436.506 2391.43,-373 2391.43,-373 2391.43,-373 2391.43,-257 2391.43,-216.163 2411.15,-171.739 2424.18,-146.834"/>
<polygon fill="midnightblue" stroke="midnightblue" points="2427.44,-148.172 2429.12,-137.712 2421.28,-144.839 2427.44,-148.172"/>
</g>
<!-- Node20 -->
<g id="node42" class="node"><title>Node20</title>
<a xlink:href="_t_event_8h.html" target="_top" xlink:title="tree/TEvent.h">
<polygon fill="white" stroke="black" points="1941.43,-181.5 1941.43,-202.5 2017.43,-202.5 2017.43,-181.5 1941.43,-181.5"/>
<text text-anchor="middle" x="1979.43" y="-189.5" font-family="Helvetica,sans-Serif" font-size="10.00">tree/TEvent.h</text>
</a>
</g>
<!-- Node2&#45;&gt;Node20 -->
<g id="edge44" class="edge"><title>Node2&#45;&gt;Node20</title>
<path fill="none" stroke="midnightblue" d="M3022.14,-486.412C2857.92,-479.946 2444.43,-462.146 2307.43,-442 2175.49,-422.6 2015.43,-506.352 2015.43,-373 2015.43,-373 2015.43,-373 2015.43,-315 2015.43,-277.399 1999.74,-235.842 1989.07,-211.936"/>
<polygon fill="midnightblue" stroke="midnightblue" points="1992.11,-210.162 1984.74,-202.554 1985.76,-213.099 1992.11,-210.162"/>
</g>
<!-- Node22 -->
<g id="node49" class="node"><title>Node22</title>
<a xlink:href="_t_event_data_8h.html" target="_top" xlink:title="tree/TEventData.h">
<polygon fill="white" stroke="black" points="1411.93,-420.5 1411.93,-441.5 1508.93,-441.5 1508.93,-420.5 1411.93,-420.5"/>
<text text-anchor="middle" x="1460.43" y="-428.5" font-family="Helvetica,sans-Serif" font-size="10.00">tree/TEventData.h</text>
</a>
</g>
<!-- Node2&#45;&gt;Node22 -->
<g id="edge54" class="edge"><title>Node2&#45;&gt;Node22</title>
<path fill="none" stroke="midnightblue" d="M3022.2,-486.572C2753.5,-477.011 1770.71,-442.041 1519.31,-433.095"/>
<polygon fill="midnightblue" stroke="midnightblue" points="1519.4,-429.596 1509.28,-432.738 1519.15,-436.592 1519.4,-429.596"/>
</g>
<!-- Node53 -->
<g id="node170" class="node"><title>Node53</title>
<polygon fill="white" stroke="#bfbfbf" points="3014.93,-116.5 3014.93,-137.5 3073.93,-137.5 3073.93,-116.5 3014.93,-116.5"/>
<text text-anchor="middle" x="3044.43" y="-124.5" font-family="Helvetica,sans-Serif" font-size="10.00">functional</text>
</g>
<!-- Node2&#45;&gt;Node53 -->
<g id="edge354" class="edge"><title>Node2&#45;&gt;Node53</title>
<path fill="none" stroke="midnightblue" d="M3087.46,-478.222C3082.11,-457.841 3071.43,-412.182 3071.43,-373 3071.43,-373 3071.43,-373 3071.43,-257 3071.43,-217.467 3059.31,-172.559 3051.31,-147.219"/>
<polygon fill="midnightblue" stroke="midnightblue" points="3054.61,-146.051 3048.18,-137.63 3047.96,-148.223 3054.61,-146.051"/>
</g>
<!-- Node57 -->
<g id="node199" class="node"><title>Node57</title>
<polygon fill="white" stroke="#bfbfbf" points="3382.93,-116.5 3382.93,-137.5 3417.93,-137.5 3417.93,-116.5 3382.93,-116.5"/>
<text text-anchor="middle" x="3400.43" y="-124.5" font-family="Helvetica,sans-Serif" font-size="10.00">map</text>
</g>
<!-- Node2&#45;&gt;Node57 -->
<g id="edge350" class="edge"><title>Node2&#45;&gt;Node57</title>
<path fill="none" stroke="midnightblue" d="M3095.33,-478.233C3101.94,-464.231 3114.49,-439.286 3128.43,-420 3211.08,-305.639 3333.99,-188.138 3381.1,-144.602"/>
<polygon fill="midnightblue" stroke="midnightblue" points="3383.74,-146.922 3388.74,-137.577 3379.01,-141.769 3383.74,-146.922"/>
</g>
<!-- Node62 -->
<g id="node219" class="node"><title>Node62</title>
<a xlink:href="_options_list_8h.html" target="_top" xlink:title="base/OptionsList.h">
<polygon fill="white" stroke="black" points="3376.43,-181.5 3376.43,-202.5 3474.43,-202.5 3474.43,-181.5 3376.43,-181.5"/>
<text text-anchor="middle" x="3425.43" y="-189.5" font-family="Helvetica,sans-Serif" font-size="10.00">base/OptionsList.h</text>
</a>
</g>
<!-- Node2&#45;&gt;Node62 -->
<g id="edge314" class="edge"><title>Node2&#45;&gt;Node62</title>
<path fill="none" stroke="midnightblue" d="M3158.83,-485.223C3267.86,-478.595 3471.34,-463.503 3496.43,-442 3520.58,-421.298 3515.43,-404.808 3515.43,-373 3515.43,-373 3515.43,-373 3515.43,-315 3515.43,-269.874 3475.48,-230.285 3448.82,-208.883"/>
<polygon fill="midnightblue" stroke="midnightblue" points="3450.74,-205.946 3440.69,-202.589 3446.46,-211.48 3450.74,-205.946"/>
</g>
<!-- Node64 -->
<g id="node227" class="node"><title>Node64</title>
<a xlink:href="root__draw_8h.html" target="_top" xlink:title="analysis/plot/root\l_draw.h">
<polygon fill="white" stroke="black" points="2830.93,-175 2830.93,-209 2921.93,-209 2921.93,-175 2830.93,-175"/>
<text text-anchor="start" x="2838.93" y="-196" font-family="Helvetica,sans-Serif" font-size="10.00">analysis/plot/root</text>
<text text-anchor="middle" x="2876.43" y="-183" font-family="Helvetica,sans-Serif" font-size="10.00">_draw.h</text>
</a>
</g>
<!-- Node2&#45;&gt;Node64 -->
<g id="edge326" class="edge"><title>Node2&#45;&gt;Node64</title>
<path fill="none" stroke="midnightblue" d="M3081.01,-478.346C3064.82,-458.881 3033.43,-415.634 3033.43,-373 3033.43,-373 3033.43,-373 3033.43,-315 3033.43,-282.531 3031.79,-269.536 3009.43,-246 3003.52,-239.787 2965.56,-224.658 2931.69,-211.99"/>
<polygon fill="midnightblue" stroke="midnightblue" points="2932.87,-208.695 2922.28,-208.491 2930.44,-215.256 2932.87,-208.695"/>
</g>
<!-- Node65 -->
<g id="node235" class="node"><title>Node65</title>
<polygon fill="white" stroke="#bfbfbf" points="3136.93,-420.5 3136.93,-441.5 3187.93,-441.5 3187.93,-420.5 3136.93,-420.5"/>
<text text-anchor="middle" x="3162.43" y="-428.5" font-family="Helvetica,sans-Serif" font-size="10.00">TH1D.h</text>
</g>
<!-- Node2&#45;&gt;Node65 -->
<g id="edge340" class="edge"><title>Node2&#45;&gt;Node65</title>
<path fill="none" stroke="midnightblue" d="M3103.63,-478.362C3114.19,-469.859 3129.18,-457.779 3141.39,-447.947"/>
<polygon fill="midnightblue" stroke="midnightblue" points="3143.71,-450.57 3149.3,-441.571 3139.32,-445.118 3143.71,-450.57"/>
</g>
<!-- Node66 -->
<g id="node237" class="node"><title>Node66</title>
<polygon fill="white" stroke="#bfbfbf" points="3204.93,-420.5 3204.93,-441.5 3255.93,-441.5 3255.93,-420.5 3204.93,-420.5"/>
<text text-anchor="middle" x="3230.43" y="-428.5" font-family="Helvetica,sans-Serif" font-size="10.00">TH2D.h</text>
</g>
<!-- Node2&#45;&gt;Node66 -->
<g id="edge342" class="edge"><title>Node2&#45;&gt;Node66</title>
<path fill="none" stroke="midnightblue" d="M3115.78,-478.497C3138.04,-469.275 3170.64,-455.769 3195.39,-445.515"/>
<polygon fill="midnightblue" stroke="midnightblue" points="3196.89,-448.682 3204.79,-441.621 3194.21,-442.215 3196.89,-448.682"/>
</g>
<!-- Node67 -->
<g id="node239" class="node"><title>Node67</title>
<polygon fill="white" stroke="#bfbfbf" points="3272.93,-420.5 3272.93,-441.5 3323.93,-441.5 3323.93,-420.5 3272.93,-420.5"/>
<text text-anchor="middle" x="3298.43" y="-428.5" font-family="Helvetica,sans-Serif" font-size="10.00">TH3D.h</text>
</g>
<!-- Node2&#45;&gt;Node67 -->
<g id="edge344" class="edge"><title>Node2&#45;&gt;Node67</title>
<path fill="none" stroke="midnightblue" d="M3131.72,-478.456C3164.94,-469.838 3213.02,-457.057 3263.14,-442.301"/>
<polygon fill="midnightblue" stroke="midnightblue" points="3264.25,-445.62 3272.85,-439.424 3262.27,-438.908 3264.25,-445.62"/>
</g>
<!-- Node5 -->
<g id="node9" class="node"><title>Node5</title>
<a xlink:href="interval_8h.html" target="_top" xlink:title="base/interval.h">
<polygon fill="white" stroke="black" points="1969.43,-116.5 1969.43,-137.5 2049.43,-137.5 2049.43,-116.5 1969.43,-116.5"/>
<text text-anchor="middle" x="2009.43" y="-124.5" font-family="Helvetica,sans-Serif" font-size="10.00">base/interval.h</text>
</a>
</g>
<!-- Node4&#45;&gt;Node5 -->
<g id="edge8" class="edge"><title>Node4&#45;&gt;Node5</title>
<path fill="none" stroke="midnightblue" d="M2184.81,-246.458C2197.53,-238.35 2213.12,-225.856 2220.43,-210 2227.12,-195.469 2230.43,-186.483 2220.43,-174 2210.33,-161.406 2118.5,-144.512 2059.36,-134.785"/>
<polygon fill="midnightblue" stroke="midnightblue" points="2059.88,-131.324 2049.45,-133.172 2058.76,-138.233 2059.88,-131.324"/>
</g>
<!-- Node14 -->
<g id="node27" class="node"><title>Node14</title>
<a xlink:href="_bin_settings_8h.html" target="_top" xlink:title="base/BinSettings.h">
<polygon fill="white" stroke="black" points="2034.93,-181.5 2034.93,-202.5 2133.93,-202.5 2133.93,-181.5 2034.93,-181.5"/>
<text text-anchor="middle" x="2084.43" y="-189.5" font-family="Helvetica,sans-Serif" font-size="10.00">base/BinSettings.h</text>
</a>
</g>
<!-- Node4&#45;&gt;Node14 -->
<g id="edge26" class="edge"><title>Node4&#45;&gt;Node14</title>
<path fill="none" stroke="midnightblue" d="M2152.05,-246.267C2139.43,-236.139 2120.3,-220.792 2105.61,-209"/>
<polygon fill="midnightblue" stroke="midnightblue" points="2107.54,-206.063 2097.55,-202.534 2103.16,-211.522 2107.54,-206.063"/>
</g>
<!-- Node15 -->
<g id="node30" class="node"><title>Node15</title>
<polygon fill="white" stroke="#bfbfbf" points="2137.43,-58.5 2137.43,-79.5 2181.43,-79.5 2181.43,-58.5 2137.43,-58.5"/>
<text text-anchor="middle" x="2159.43" y="-66.5" font-family="Helvetica,sans-Serif" font-size="10.00">vector</text>
</g>
<!-- Node4&#45;&gt;Node15 -->
<g id="edge36" class="edge"><title>Node4&#45;&gt;Node15</title>
<path fill="none" stroke="midnightblue" d="M2249.6,-247.348C2254.28,-246.875 2258.91,-246.422 2263.43,-246 2370.15,-236.02 2647,-254.688 2744.43,-210 2792.26,-188.06 2852.29,-154.516 2816.43,-116 2794.9,-92.8753 2320.75,-74.6449 2191.64,-70.0966"/>
<polygon fill="midnightblue" stroke="midnightblue" points="2191.7,-66.5967 2181.59,-69.7456 2191.46,-73.5925 2191.7,-66.5967"/>
</g>
<!-- Node4&#45;&gt;Node16 -->
<g id="edge34" class="edge"><title>Node4&#45;&gt;Node16</title>
<path fill="none" stroke="midnightblue" d="M2249.76,-255.477C2537.02,-250.1 3460.9,-231.189 3483.43,-210 3513.94,-181.298 3508.92,-153.592 3490.43,-116 3483.68,-102.292 3470.81,-91.4578 3458.62,-83.6624"/>
<polygon fill="midnightblue" stroke="midnightblue" points="3460.34,-80.6179 3449.96,-78.5257 3456.77,-86.6382 3460.34,-80.6179"/>
</g>
<!-- Node6 -->
<g id="node11" class="node"><title>Node6</title>
<a xlink:href="printable_8h.html" target="_top" xlink:title="printable.h">
<polygon fill="white" stroke="black" points="1063.43,-58.5 1063.43,-79.5 1125.43,-79.5 1125.43,-58.5 1063.43,-58.5"/>
<text text-anchor="middle" x="1094.43" y="-66.5" font-family="Helvetica,sans-Serif" font-size="10.00">printable.h</text>
</a>
</g>
<!-- Node5&#45;&gt;Node6 -->
<g id="edge10" class="edge"><title>Node5&#45;&gt;Node6</title>
<path fill="none" stroke="midnightblue" d="M1969.23,-124.452C1818.66,-114.908 1288.94,-81.33 1136.04,-71.6376"/>
<polygon fill="midnightblue" stroke="midnightblue" points="1135.89,-68.1214 1125.69,-70.9817 1135.45,-75.1074 1135.89,-68.1214"/>
</g>
<!-- Node9 -->
<g id="node17" class="node"><title>Node9</title>
<a xlink:href="types_8h.html" target="_top" xlink:title="types.h">
<polygon fill="white" stroke="black" points="2530.93,-58.5 2530.93,-79.5 2579.93,-79.5 2579.93,-58.5 2530.93,-58.5"/>
<text text-anchor="middle" x="2555.43" y="-66.5" font-family="Helvetica,sans-Serif" font-size="10.00">types.h</text>
</a>
</g>
<!-- Node5&#45;&gt;Node9 -->
<g id="edge16" class="edge"><title>Node5&#45;&gt;Node9</title>
<path fill="none" stroke="midnightblue" d="M2049.67,-121.559C2064.37,-119.664 2081.13,-117.612 2096.43,-116 2282.16,-96.419 2334.54,-117.565 2520.89,-79.9474"/>
<polygon fill="midnightblue" stroke="midnightblue" points="2521.64,-83.3667 2530.73,-77.9314 2520.23,-76.5091 2521.64,-83.3667"/>
</g>
<!-- Node10 -->
<g id="node19" class="node"><title>Node10</title>
<polygon fill="white" stroke="#bfbfbf" points="2457.43,-58.5 2457.43,-79.5 2513.43,-79.5 2513.43,-58.5 2457.43,-58.5"/>
<text text-anchor="middle" x="2485.43" y="-66.5" font-family="Helvetica,sans-Serif" font-size="10.00">algorithm</text>
</g>
<!-- Node5&#45;&gt;Node10 -->
<g id="edge18" class="edge"><title>Node5&#45;&gt;Node10</title>
<path fill="none" stroke="midnightblue" d="M2049.7,-121.86C2064.4,-119.997 2081.17,-117.887 2096.43,-116 2224.86,-100.122 2377.22,-81.8886 2447.03,-73.5681"/>
<polygon fill="midnightblue" stroke="midnightblue" points="2447.59,-77.0253 2457.11,-72.3668 2446.77,-70.0745 2447.59,-77.0253"/>
</g>
<!-- Node11 -->
<g id="node21" class="node"><title>Node11</title>
<polygon fill="white" stroke="#bfbfbf" points="1597.93,-58.5 1597.93,-79.5 1656.93,-79.5 1656.93,-58.5 1597.93,-58.5"/>
<text text-anchor="middle" x="1627.43" y="-66.5" font-family="Helvetica,sans-Serif" font-size="10.00">stdexcept</text>
</g>
<!-- Node5&#45;&gt;Node11 -->
<g id="edge20" class="edge"><title>Node5&#45;&gt;Node11</title>
<path fill="none" stroke="midnightblue" d="M1969.27,-120.903C1895.78,-109.745 1740.5,-86.1683 1667.26,-75.0476"/>
<polygon fill="midnightblue" stroke="midnightblue" points="1667.48,-71.541 1657.07,-73.5002 1666.43,-78.4617 1667.48,-71.541"/>
</g>
<!-- Node12 -->
<g id="node23" class="node"><title>Node12</title>
<polygon fill="white" stroke="#bfbfbf" points="1829.43,-58.5 1829.43,-79.5 1869.43,-79.5 1869.43,-58.5 1829.43,-58.5"/>
<text text-anchor="middle" x="1849.43" y="-66.5" font-family="Helvetica,sans-Serif" font-size="10.00">limits</text>
</g>
<!-- Node5&#45;&gt;Node12 -->
<g id="edge22" class="edge"><title>Node5&#45;&gt;Node12</title>
<path fill="none" stroke="midnightblue" d="M1980.45,-116.497C1951.77,-106.101 1908.08,-90.2626 1879.15,-79.7737"/>
<polygon fill="midnightblue" stroke="midnightblue" points="1880.17,-76.422 1869.58,-76.3044 1877.78,-83.003 1880.17,-76.422"/>
</g>
<!-- Node13 -->
<g id="node25" class="node"><title>Node13</title>
<polygon fill="white" stroke="#bfbfbf" points="1984.93,-58.5 1984.93,-79.5 2033.93,-79.5 2033.93,-58.5 1984.93,-58.5"/>
<text text-anchor="middle" x="2009.43" y="-66.5" font-family="Helvetica,sans-Serif" font-size="10.00">istream</text>
</g>
<!-- Node5&#45;&gt;Node13 -->
<g id="edge24" class="edge"><title>Node5&#45;&gt;Node13</title>
<path fill="none" stroke="midnightblue" d="M2009.43,-116.362C2009.43,-108.922 2009.43,-98.7427 2009.43,-89.7276"/>
<polygon fill="midnightblue" stroke="midnightblue" points="2012.93,-89.5706 2009.43,-79.5707 2005.93,-89.5707 2012.93,-89.5706"/>
</g>
<!-- Node7 -->
<g id="node13" class="node"><title>Node7</title>
<polygon fill="white" stroke="#bfbfbf" points="854.426,-0.5 854.426,-21.5 916.426,-21.5 916.426,-0.5 854.426,-0.5"/>
<text text-anchor="middle" x="885.426" y="-8.5" font-family="Helvetica,sans-Serif" font-size="10.00">type_traits</text>
</g>
<!-- Node6&#45;&gt;Node7 -->
<g id="edge12" class="edge"><title>Node6&#45;&gt;Node7</title>
<path fill="none" stroke="midnightblue" d="M1063.14,-60.3168C1026.71,-50.2077 966.43,-33.4795 926.323,-22.3493"/>
<polygon fill="midnightblue" stroke="midnightblue" points="927.159,-18.9493 916.588,-19.6477 925.287,-25.6944 927.159,-18.9493"/>
</g>
<!-- Node8 -->
<g id="node15" class="node"><title>Node8</title>
<polygon fill="white" stroke="#bfbfbf" points="2335.43,-0.5 2335.43,-21.5 2387.43,-21.5 2387.43,-0.5 2335.43,-0.5"/>
<text text-anchor="middle" x="2361.43" y="-8.5" font-family="Helvetica,sans-Serif" font-size="10.00">ostream</text>
</g>
<!-- Node6&#45;&gt;Node8 -->
<g id="edge14" class="edge"><title>Node6&#45;&gt;Node8</title>
<path fill="none" stroke="midnightblue" d="M1125.61,-67.331C1167.27,-65.1163 1243.4,-61.1225 1308.43,-58 1707.07,-38.8583 2190.73,-18.2195 2325.22,-12.5272"/>
<polygon fill="midnightblue" stroke="midnightblue" points="2325.53,-16.0175 2335.37,-12.098 2325.23,-9.02372 2325.53,-16.0175"/>
</g>
<!-- Node14&#45;&gt;Node5 -->
<g id="edge28" class="edge"><title>Node14&#45;&gt;Node5</title>
<path fill="none" stroke="midnightblue" d="M2072.04,-181.267C2060.46,-171.233 2042.98,-156.078 2029.42,-144.331"/>
<polygon fill="midnightblue" stroke="midnightblue" points="2031.43,-141.438 2021.58,-137.534 2026.84,-146.728 2031.43,-141.438"/>
</g>
<!-- Node14&#45;&gt;Node11 -->
<g id="edge32" class="edge"><title>Node14&#45;&gt;Node11</title>
<path fill="none" stroke="midnightblue" d="M2054.32,-181.428C2045.43,-178.643 2035.62,-175.891 2026.43,-174 1876.72,-143.201 1819.09,-210.283 1684.43,-138 1663.6,-126.82 1647.39,-104.558 1637.67,-88.3354"/>
<polygon fill="midnightblue" stroke="midnightblue" points="1640.7,-86.5748 1632.71,-79.6107 1634.61,-90.034 1640.7,-86.5748"/>
</g>
<!-- Node14&#45;&gt;Node15 -->
<g id="edge30" class="edge"><title>Node14&#45;&gt;Node15</title>
<path fill="none" stroke="midnightblue" d="M2083.68,-181.325C2083.11,-165.794 2084,-136.583 2096.43,-116 2104.13,-103.247 2116.72,-92.8237 2128.63,-85.0622"/>
<polygon fill="midnightblue" stroke="midnightblue" points="2130.79,-87.8431 2137.51,-79.6513 2127.15,-81.8651 2130.79,-87.8431"/>
</g>
<!-- Node17&#45;&gt;Node18 -->
<g id="edge40" class="edge"><title>Node17&#45;&gt;Node18</title>
<path fill="none" stroke="midnightblue" d="M2544.35,-181.267C2535.12,-171.423 2521.25,-156.648 2510.32,-145"/>
<polygon fill="midnightblue" stroke="midnightblue" points="2512.71,-142.43 2503.31,-137.534 2507.6,-147.221 2512.71,-142.43"/>
</g>
<!-- Node17&#45;&gt;Node19 -->
<g id="edge42" class="edge"><title>Node17&#45;&gt;Node19</title>
<path fill="none" stroke="midnightblue" d="M2535.04,-181.412C2514.18,-170.017 2481.01,-151.896 2458.74,-139.732"/>
<polygon fill="midnightblue" stroke="midnightblue" points="2460.38,-136.643 2449.93,-134.921 2457.03,-142.786 2460.38,-136.643"/>
</g>
<!-- Node20&#45;&gt;Node6 -->
<g id="edge48" class="edge"><title>Node20&#45;&gt;Node6</title>
<path fill="none" stroke="midnightblue" d="M1955.42,-181.402C1948.16,-178.581 1940.08,-175.817 1932.43,-174 1777.27,-137.159 1733.44,-159.52 1575.43,-138 1518.23,-130.211 1504.49,-124.7 1447.43,-116 1334.88,-98.8413 1201.59,-82.0486 1135.64,-73.974"/>
<polygon fill="midnightblue" stroke="midnightblue" points="1136,-70.4917 1125.65,-72.7542 1135.15,-77.4401 1136,-70.4917"/>
</g>
<!-- Node20&#45;&gt;Node11 -->
<g id="edge52" class="edge"><title>Node20&#45;&gt;Node11</title>
<path fill="none" stroke="midnightblue" d="M1954.9,-181.343C1947.77,-178.59 1939.88,-175.877 1932.43,-174 1871.38,-158.633 1700.31,-177.671 1651.43,-138 1637.08,-126.359 1631.29,-105.63 1628.96,-89.9211"/>
<polygon fill="midnightblue" stroke="midnightblue" points="1632.4,-89.122 1627.81,-79.572 1625.44,-89.8986 1632.4,-89.122"/>
</g>
<!-- Node20&#45;&gt;Node18 -->
<g id="edge50" class="edge"><title>Node20&#45;&gt;Node18</title>
<path fill="none" stroke="midnightblue" d="M2003.41,-181.318C2010.67,-178.495 2018.76,-175.75 2026.43,-174 2211.05,-131.852 2267.45,-173.632 2457.19,-137.86"/>
<polygon fill="midnightblue" stroke="midnightblue" points="2458.06,-141.257 2467.21,-135.923 2456.73,-134.385 2458.06,-141.257"/>
</g>
<!-- Node21 -->
<g id="node44" class="node"><title>Node21</title>
<polygon fill="white" stroke="#bfbfbf" points="2751.43,-116.5 2751.43,-137.5 2807.43,-137.5 2807.43,-116.5 2751.43,-116.5"/>
<text text-anchor="middle" x="2779.43" y="-124.5" font-family="Helvetica,sans-Serif" font-size="10.00">Rtypes.h</text>
</g>
<!-- Node20&#45;&gt;Node21 -->
<g id="edge46" class="edge"><title>Node20&#45;&gt;Node21</title>
<path fill="none" stroke="midnightblue" d="M2002.9,-181.361C2010.28,-178.466 2018.56,-175.671 2026.43,-174 2321.59,-111.273 2404.16,-167.927 2704.43,-138 2716.48,-136.799 2729.56,-135.039 2741.37,-133.279"/>
<polygon fill="midnightblue" stroke="midnightblue" points="2742.01,-136.721 2751.37,-131.745 2740.95,-129.802 2742.01,-136.721"/>
</g>
<!-- Node22&#45;&gt;Node6 -->
<g id="edge56" class="edge"><title>Node22&#45;&gt;Node6</title>
<path fill="none" stroke="midnightblue" d="M1411.82,-425.636C1279.64,-410.396 923.426,-364.717 923.426,-315 923.426,-315 923.426,-315 923.426,-192 923.426,-128.231 1002.76,-94.267 1053.36,-79.0909"/>
<polygon fill="midnightblue" stroke="midnightblue" points="1054.42,-82.4284 1063.06,-76.303 1052.48,-75.7006 1054.42,-82.4284"/>
</g>
<!-- Node23 -->
<g id="node52" class="node"><title>Node23</title>
<a xlink:href="_t_i_d_8h.html" target="_top" xlink:title="TID.h">
<polygon fill="white" stroke="black" points="686.926,-246.5 686.926,-267.5 727.926,-267.5 727.926,-246.5 686.926,-246.5"/>
<text text-anchor="middle" x="707.426" y="-254.5" font-family="Helvetica,sans-Serif" font-size="10.00">TID.h</text>
</a>
</g>
<!-- Node22&#45;&gt;Node23 -->
<g id="edge58" class="edge"><title>Node22&#45;&gt;Node23</title>
<path fill="none" stroke="midnightblue" d="M1411.92,-430.382C1291.18,-428.314 979.968,-419.588 883.426,-384 817.824,-359.817 754.857,-303.969 725.17,-275.064"/>
<polygon fill="midnightblue" stroke="midnightblue" points="727.274,-272.222 717.705,-267.675 722.35,-277.197 727.274,-272.222"/>
</g>
<!-- Node32 -->
<g id="node79" class="node"><title>Node32</title>
<a xlink:href="_t_detector_read_hit_8h.html" target="_top" xlink:title="TDetectorReadHit.h">
<polygon fill="white" stroke="black" points="1333.43,-246.5 1333.43,-267.5 1437.43,-267.5 1437.43,-246.5 1333.43,-246.5"/>
<text text-anchor="middle" x="1385.43" y="-254.5" font-family="Helvetica,sans-Serif" font-size="10.00">TDetectorReadHit.h</text>
</a>
</g>
<!-- Node22&#45;&gt;Node32 -->
<g id="edge94" class="edge"><title>Node22&#45;&gt;Node32</title>
<path fill="none" stroke="midnightblue" d="M1455.85,-420.377C1443.64,-392.051 1410.15,-314.349 1394.15,-277.242"/>
<polygon fill="midnightblue" stroke="midnightblue" points="1397.31,-275.726 1390.14,-267.928 1390.88,-278.496 1397.31,-275.726"/>
</g>
<!-- Node38 -->
<g id="node106" class="node"><title>Node38</title>
<a xlink:href="_t_slow_control_8h.html" target="_top" xlink:title="TSlowControl.h">
<polygon fill="white" stroke="black" points="509.426,-304.5 509.426,-325.5 593.426,-325.5 593.426,-304.5 509.426,-304.5"/>
<text text-anchor="middle" x="551.426" y="-312.5" font-family="Helvetica,sans-Serif" font-size="10.00">TSlowControl.h</text>
</a>
</g>
<!-- Node22&#45;&gt;Node38 -->
<g id="edge136" class="edge"><title>Node22&#45;&gt;Node38</title>
<path fill="none" stroke="midnightblue" d="M1411.78,-429.459C1273.21,-424.802 878.242,-409.602 751.426,-384 690.852,-371.771 623.515,-345.814 584.466,-329.455"/>
<polygon fill="midnightblue" stroke="midnightblue" points="585.742,-326.195 575.169,-325.517 583.012,-332.64 585.742,-326.195"/>
</g>
<!-- Node39 -->
<g id="node113" class="node"><title>Node39</title>
<a xlink:href="_t_unpacker_message_8h.html" target="_top" xlink:title="TUnpackerMessage.h">
<polygon fill="white" stroke="black" points="782.926,-246.5 782.926,-267.5 895.926,-267.5 895.926,-246.5 782.926,-246.5"/>
<text text-anchor="middle" x="839.426" y="-254.5" font-family="Helvetica,sans-Serif" font-size="10.00">TUnpackerMessage.h</text>
</a>
</g>
<!-- Node22&#45;&gt;Node39 -->
<g id="edge148" class="edge"><title>Node22&#45;&gt;Node39</title>
<path fill="none" stroke="midnightblue" d="M1411.71,-429.452C1284.83,-425.056 951.041,-411.032 909.426,-384 871.609,-359.436 852.443,-307.073 844.342,-277.837"/>
<polygon fill="midnightblue" stroke="midnightblue" points="847.657,-276.675 841.763,-267.871 840.88,-278.429 847.657,-276.675"/>
</g>
<!-- Node47 -->
<g id="node137" class="node"><title>Node47</title>
<a xlink:href="_t_tagger_hit_8h.html" target="_top" xlink:title="TTaggerHit.h">
<polygon fill="white" stroke="black" points="1031.43,-304.5 1031.43,-325.5 1105.43,-325.5 1105.43,-304.5 1031.43,-304.5"/>
<text text-anchor="middle" x="1068.43" y="-312.5" font-family="Helvetica,sans-Serif" font-size="10.00">TTaggerHit.h</text>
</a>
</g>
<!-- Node22&#45;&gt;Node47 -->
<g id="edge180" class="edge"><title>Node22&#45;&gt;Node47</title>
<path fill="none" stroke="midnightblue" d="M1424.6,-420.398C1353.01,-399.212 1192.39,-351.683 1113.67,-328.387"/>
<polygon fill="midnightblue" stroke="midnightblue" points="1114.61,-325.017 1104.03,-325.535 1112.62,-331.729 1114.61,-325.017"/>
</g>
<!-- Node49 -->
<g id="node147" class="node"><title>Node49</title>
<a xlink:href="_t_trigger_8h.html" target="_top" xlink:title="TTrigger.h">
<polygon fill="white" stroke="black" points="2150.93,-181.5 2150.93,-202.5 2211.93,-202.5 2211.93,-181.5 2150.93,-181.5"/>
<text text-anchor="middle" x="2181.43" y="-189.5" font-family="Helvetica,sans-Serif" font-size="10.00">TTrigger.h</text>
</a>
</g>
<!-- Node22&#45;&gt;Node49 -->
<g id="edge196" class="edge"><title>Node22&#45;&gt;Node49</title>
<path fill="none" stroke="midnightblue" d="M1509.31,-422.311C1554.55,-413.878 1623.5,-400.03 1682.43,-384 1839.33,-341.313 1879.51,-330.988 2029.43,-268 2049.22,-259.685 2053.25,-255.654 2072.43,-246 2098.72,-232.763 2128.69,-217.934 2150.54,-207.169"/>
<polygon fill="midnightblue" stroke="midnightblue" points="2152.24,-210.232 2159.67,-202.675 2149.15,-203.951 2152.24,-210.232"/>
</g>
<!-- Node50 -->
<g id="node154" class="node"><title>Node50</title>
<a xlink:href="_t_target_8h.html" target="_top" xlink:title="TTarget.h">
<polygon fill="white" stroke="black" points="1864.93,-181.5 1864.93,-202.5 1923.93,-202.5 1923.93,-181.5 1864.93,-181.5"/>
<text text-anchor="middle" x="1894.43" y="-189.5" font-family="Helvetica,sans-Serif" font-size="10.00">TTarget.h</text>
</a>
</g>
<!-- Node22&#45;&gt;Node50 -->
<g id="edge208" class="edge"><title>Node22&#45;&gt;Node50</title>
<path fill="none" stroke="midnightblue" d="M1509.18,-421.461C1589.05,-403.679 1749.08,-358.757 1851.43,-268 1868.62,-252.757 1880.52,-228.928 1887.38,-212.02"/>
<polygon fill="midnightblue" stroke="midnightblue" points="1890.7,-213.116 1890.99,-202.525 1884.16,-210.624 1890.7,-213.116"/>
</g>
<!-- Node51 -->
<g id="node162" class="node"><title>Node51</title>
<a xlink:href="_t_cluster_8h.html" target="_top" xlink:title="TCluster.h">
<polygon fill="white" stroke="black" points="1531.43,-246.5 1531.43,-267.5 1593.43,-267.5 1593.43,-246.5 1531.43,-246.5"/>
<text text-anchor="middle" x="1562.43" y="-254.5" font-family="Helvetica,sans-Serif" font-size="10.00">TCluster.h</text>
</a>
</g>
<!-- Node22&#45;&gt;Node51 -->
<g id="edge222" class="edge"><title>Node22&#45;&gt;Node51</title>
<path fill="none" stroke="midnightblue" d="M1463.63,-420.482C1470.81,-397.877 1489.68,-343.513 1516.43,-304 1523.68,-293.286 1533.52,-282.848 1542.24,-274.541"/>
<polygon fill="midnightblue" stroke="midnightblue" points="1544.84,-276.91 1549.83,-267.565 1540.1,-271.757 1544.84,-276.91"/>
</g>
<!-- Node54 -->
<g id="node179" class="node"><title>Node54</title>
<a xlink:href="_t_candidate_8h.html" target="_top" xlink:title="TCandidate.h">
<polygon fill="white" stroke="black" points="1524.93,-304.5 1524.93,-325.5 1599.93,-325.5 1599.93,-304.5 1524.93,-304.5"/>
<text text-anchor="middle" x="1562.43" y="-312.5" font-family="Helvetica,sans-Serif" font-size="10.00">TCandidate.h</text>
</a>
</g>
<!-- Node22&#45;&gt;Node54 -->
<g id="edge250" class="edge"><title>Node22&#45;&gt;Node54</title>
<path fill="none" stroke="midnightblue" d="M1469.84,-420.295C1487.3,-400.441 1524.87,-357.709 1546.4,-333.224"/>
<polygon fill="midnightblue" stroke="midnightblue" points="1549.06,-335.5 1553.04,-325.679 1543.8,-330.878 1549.06,-335.5"/>
</g>
<!-- Node55 -->
<g id="node188" class="node"><title>Node55</title>
<a xlink:href="_t_particle_8h.html" target="_top" xlink:title="TParticle.h">
<polygon fill="white" stroke="black" points="2266.43,-362.5 2266.43,-383.5 2330.43,-383.5 2330.43,-362.5 2266.43,-362.5"/>
<text text-anchor="middle" x="2298.43" y="-370.5" font-family="Helvetica,sans-Serif" font-size="10.00">TParticle.h</text>
</a>
</g>
<!-- Node22&#45;&gt;Node55 -->
<g id="edge266" class="edge"><title>Node22&#45;&gt;Node55</title>
<path fill="none" stroke="midnightblue" d="M1509.1,-427.631C1659.56,-417.217 2115.48,-385.662 2256.44,-375.906"/>
<polygon fill="midnightblue" stroke="midnightblue" points="2256.69,-379.397 2266.42,-375.215 2256.21,-372.414 2256.69,-379.397"/>
</g>
<!-- Node23&#45;&gt;Node6 -->
<g id="edge62" class="edge"><title>Node23&#45;&gt;Node6</title>
<path fill="none" stroke="midnightblue" d="M723.436,-246.4C737.206,-237.135 757.469,-223.145 774.426,-210 825.251,-170.601 826.907,-144.76 884.426,-116 939.028,-88.6987 1009.48,-77.1012 1053.31,-72.2834"/>
<polygon fill="midnightblue" stroke="midnightblue" points="1053.72,-75.759 1063.31,-71.2507 1053.01,-68.796 1053.72,-75.759"/>
</g>
<!-- Node23&#45;&gt;Node7 -->
<g id="edge80" class="edge"><title>Node23&#45;&gt;Node7</title>
<path fill="none" stroke="midnightblue" d="M686.693,-256.222C576.169,-251.991 60.3378,-231.16 34.426,-210 1.34256,-182.984 -11.7728,-149.734 14.426,-116 66.0186,-49.5678 677.103,-19.6021 843.704,-12.6338"/>
<polygon fill="midnightblue" stroke="midnightblue" points="844.177,-16.1174 854.024,-12.208 843.888,-9.12333 844.177,-16.1174"/>
</g>
<!-- Node23&#45;&gt;Node11 -->
<g id="edge86" class="edge"><title>Node23&#45;&gt;Node11</title>
<path fill="none" stroke="midnightblue" d="M727.955,-252.845C809.266,-236.264 1108.67,-173.984 1198.43,-138 1216.54,-130.738 1217.92,-122.18 1236.43,-116 1301.02,-94.4368 1501.81,-77.9748 1587.75,-71.7306"/>
<polygon fill="midnightblue" stroke="midnightblue" points="1588.16,-75.2101 1597.89,-71.0029 1587.66,-68.2281 1588.16,-75.2101"/>
</g>
<!-- Node23&#45;&gt;Node19 -->
<g id="edge88" class="edge"><title>Node23&#45;&gt;Node19</title>
<path fill="none" stroke="midnightblue" d="M728.169,-252.984C741.363,-250.581 758.838,-247.677 774.426,-246 1082.39,-212.858 1161.49,-232.387 1470.43,-210 1642.28,-197.547 1684.66,-187.618 1856.43,-174 2101.07,-154.604 2167.92,-191.505 2407.43,-138 2408.69,-137.718 2409.97,-137.388 2411.25,-137.022"/>
<polygon fill="midnightblue" stroke="midnightblue" points="2412.56,-140.271 2420.87,-133.7 2410.28,-133.654 2412.56,-140.271"/>
</g>
<!-- Node23&#45;&gt;Node21 -->
<g id="edge60" class="edge"><title>Node23&#45;&gt;Node21</title>
<path fill="none" stroke="midnightblue" d="M728.151,-252.805C741.339,-250.333 758.813,-247.42 774.426,-246 881.448,-236.27 2611.24,-255.859 2708.43,-210 2736.43,-196.787 2757.59,-166.664 2769.25,-146.577"/>
<polygon fill="midnightblue" stroke="midnightblue" points="2772.42,-148.084 2774.2,-137.64 2766.29,-144.693 2772.42,-148.084"/>
</g>
<!-- Node24 -->
<g id="node56" class="node"><title>Node24</title>
<a xlink:href="time_8h.html" target="_top" xlink:title="base/std_ext/time.h">
<polygon fill="white" stroke="black" points="60.926,-181.5 60.926,-202.5 163.926,-202.5 163.926,-181.5 60.926,-181.5"/>
<text text-anchor="middle" x="112.426" y="-189.5" font-family="Helvetica,sans-Serif" font-size="10.00">base/std_ext/time.h</text>
</a>
</g>
<!-- Node23&#45;&gt;Node24 -->
<g id="edge64" class="edge"><title>Node23&#45;&gt;Node24</title>
<path fill="none" stroke="midnightblue" d="M686.518,-255.68C618.005,-251.213 394.137,-235.508 210.426,-210 198.646,-208.364 186.126,-206.309 174.112,-204.177"/>
<polygon fill="midnightblue" stroke="midnightblue" points="174.63,-200.715 164.166,-202.377 173.383,-207.602 174.63,-200.715"/>
</g>
<!-- Node28 -->
<g id="node67" class="node"><title>Node28</title>
<polygon fill="white" stroke="#bfbfbf" points="22.926,-116.5 22.926,-137.5 63.926,-137.5 63.926,-116.5 22.926,-116.5"/>
<text text-anchor="middle" x="43.426" y="-124.5" font-family="Helvetica,sans-Serif" font-size="10.00">ctime</text>
</g>
<!-- Node23&#45;&gt;Node28 -->
<g id="edge92" class="edge"><title>Node23&#45;&gt;Node28</title>
<path fill="none" stroke="midnightblue" d="M686.831,-256.259C578.197,-252.258 75.8412,-232.578 52.426,-210 36.1161,-194.273 36.3689,-166.805 39.0386,-147.799"/>
<polygon fill="midnightblue" stroke="midnightblue" points="42.523,-148.189 40.7828,-137.738 35.6259,-146.994 42.523,-148.189"/>
</g>
<!-- Node29 -->
<g id="node70" class="node"><title>Node29</title>
<polygon fill="white" stroke="#bfbfbf" points="219.426,-181.5 219.426,-202.5 257.426,-202.5 257.426,-181.5 219.426,-181.5"/>
<text text-anchor="middle" x="238.426" y="-189.5" font-family="Helvetica,sans-Serif" font-size="10.00">tuple</text>
</g>
<!-- Node23&#45;&gt;Node29 -->
<g id="edge82" class="edge"><title>Node23&#45;&gt;Node29</title>
<path fill="none" stroke="midnightblue" d="M686.693,-255.839C611.106,-251.442 350.622,-234.79 271.426,-210 268.974,-209.232 266.495,-208.275 264.056,-207.205"/>
<polygon fill="midnightblue" stroke="midnightblue" points="265.498,-204.012 254.987,-202.677 262.371,-210.275 265.498,-204.012"/>
</g>
<!-- Node30 -->
<g id="node72" class="node"><title>Node30</title>
<polygon fill="white" stroke="#bfbfbf" points="145.426,-116.5 145.426,-137.5 191.426,-137.5 191.426,-116.5 145.426,-116.5"/>
<text text-anchor="middle" x="168.426" y="-124.5" font-family="Helvetica,sans-Serif" font-size="10.00">cstdint</text>
</g>
<!-- Node23&#45;&gt;Node30 -->
<g id="edge84" class="edge"><title>Node23&#45;&gt;Node30</title>
<path fill="none" stroke="midnightblue" d="M686.863,-256.119C615.422,-252.822 378.583,-239.835 309.426,-210 286.54,-200.127 287.382,-187.494 266.426,-174 245.661,-160.629 220.512,-148.644 200.89,-140.124"/>
<polygon fill="midnightblue" stroke="midnightblue" points="202.037,-136.808 191.465,-136.112 199.295,-143.249 202.037,-136.808"/>
</g>
<!-- Node31 -->
<g id="node76" class="node"><title>Node31</title>
<polygon fill="white" stroke="#bfbfbf" points="1299.43,-181.5 1299.43,-202.5 1349.43,-202.5 1349.43,-181.5 1299.43,-181.5"/>
<text text-anchor="middle" x="1324.43" y="-189.5" font-family="Helvetica,sans-Serif" font-size="10.00">iomanip</text>
</g>
<!-- Node23&#45;&gt;Node31 -->
<g id="edge90" class="edge"><title>Node23&#45;&gt;Node31</title>
<path fill="none" stroke="midnightblue" d="M728.199,-253.233C741.404,-250.926 758.881,-248.037 774.426,-246 874.907,-232.833 1184.06,-204.627 1289.09,-195.167"/>
<polygon fill="midnightblue" stroke="midnightblue" points="1289.52,-198.642 1299.17,-194.26 1288.9,-191.67 1289.52,-198.642"/>
</g>
<!-- Node25 -->
<g id="node58" class="node"><title>Node25</title>
<a xlink:href="string_8h.html" target="_top" xlink:title="base/std_ext/string.h">
<polygon fill="white" stroke="black" points="2105.43,-116.5 2105.43,-137.5 2213.43,-137.5 2213.43,-116.5 2105.43,-116.5"/>
<text text-anchor="middle" x="2159.43" y="-124.5" font-family="Helvetica,sans-Serif" font-size="10.00">base/std_ext/string.h</text>
</a>
</g>
<!-- Node24&#45;&gt;Node25 -->
<g id="edge66" class="edge"><title>Node24&#45;&gt;Node25</title>
<path fill="none" stroke="midnightblue" d="M161.054,-181.46C176.737,-178.493 194.248,-175.632 210.426,-174 1027.76,-91.5274 1238.62,-190.524 2058.43,-138 2070.32,-137.238 2082.97,-136.112 2095.16,-134.867"/>
<polygon fill="midnightblue" stroke="midnightblue" points="2095.68,-138.331 2105.25,-133.798 2094.94,-131.37 2095.68,-138.331"/>
</g>
<!-- Node27 -->
<g id="node65" class="node"><title>Node27</title>
<polygon fill="white" stroke="#bfbfbf" points="81.426,-116.5 81.426,-137.5 127.426,-137.5 127.426,-116.5 81.426,-116.5"/>
<text text-anchor="middle" x="104.426" y="-124.5" font-family="Helvetica,sans-Serif" font-size="10.00">cstring</text>
</g>
<!-- Node24&#45;&gt;Node27 -->
<g id="edge76" class="edge"><title>Node24&#45;&gt;Node27</title>
<path fill="none" stroke="midnightblue" d="M111.105,-181.267C109.987,-172.18 108.351,-158.892 106.979,-147.74"/>
<polygon fill="midnightblue" stroke="midnightblue" points="110.418,-147.031 105.722,-137.534 103.47,-147.886 110.418,-147.031"/>
</g>
<!-- Node24&#45;&gt;Node28 -->
<g id="edge78" class="edge"><title>Node24&#45;&gt;Node28</title>
<path fill="none" stroke="midnightblue" d="M101.032,-181.267C90.4819,-171.328 74.5965,-156.363 62.1775,-144.664"/>
<polygon fill="midnightblue" stroke="midnightblue" points="64.2868,-141.843 54.608,-137.534 59.487,-146.938 64.2868,-141.843"/>
</g>
<!-- Node25&#45;&gt;Node10 -->
<g id="edge72" class="edge"><title>Node25&#45;&gt;Node10</title>
<path fill="none" stroke="midnightblue" d="M2213.62,-117.357C2279.59,-105.622 2389.3,-86.1027 2447.1,-75.8192"/>
<polygon fill="midnightblue" stroke="midnightblue" points="2448.03,-79.2081 2457.26,-74.0105 2446.81,-72.3163 2448.03,-79.2081"/>
</g>
<!-- Node25&#45;&gt;Node15 -->
<g id="edge74" class="edge"><title>Node25&#45;&gt;Node15</title>
<path fill="none" stroke="midnightblue" d="M2159.43,-116.362C2159.43,-108.922 2159.43,-98.7427 2159.43,-89.7276"/>
<polygon fill="midnightblue" stroke="midnightblue" points="2162.93,-89.5706 2159.43,-79.5707 2155.93,-89.5707 2162.93,-89.5706"/>
</g>
<!-- Node25&#45;&gt;Node16 -->
<g id="edge68" class="edge"><title>Node25&#45;&gt;Node16</title>
<path fill="none" stroke="midnightblue" d="M2213.57,-123.483C2249.75,-121.193 2298.43,-118.228 2341.43,-116 2759.73,-94.3257 3268.86,-74.9661 3398.33,-70.1472"/>
<polygon fill="midnightblue" stroke="midnightblue" points="3398.81,-73.632 3408.68,-69.7632 3398.55,-66.6368 3398.81,-73.632"/>
</g>
<!-- Node26 -->
<g id="node61" class="node"><title>Node26</title>
<polygon fill="white" stroke="#bfbfbf" points="250.426,-58.5 250.426,-79.5 302.426,-79.5 302.426,-58.5 250.426,-58.5"/>
<text text-anchor="middle" x="276.426" y="-66.5" font-family="Helvetica,sans-Serif" font-size="10.00">sstream</text>
</g>
<!-- Node25&#45;&gt;Node26 -->
<g id="edge70" class="edge"><title>Node25&#45;&gt;Node26</title>
<path fill="none" stroke="midnightblue" d="M2105.25,-120.271C2090.12,-118.617 2073.65,-117.028 2058.43,-116 1701.08,-91.8688 533.19,-72.9526 312.562,-69.5477"/>
<polygon fill="midnightblue" stroke="midnightblue" points="312.545,-66.0471 302.492,-69.3929 312.437,-73.0462 312.545,-66.0471"/>
</g>
<!-- Node32&#45;&gt;Node26 -->
<g id="edge134" class="edge"><title>Node32&#45;&gt;Node26</title>
<path fill="none" stroke="midnightblue" d="M1333.25,-247.096C1330.27,-246.685 1327.31,-246.314 1324.43,-246 1220.63,-234.708 483.827,-244.909 385.426,-210 360.294,-201.084 359.323,-189.22 337.426,-174 313.131,-157.113 296.534,-163.44 281.426,-138 272.825,-123.517 272.147,-104.193 273.293,-89.6796"/>
<polygon fill="midnightblue" stroke="midnightblue" points="276.778,-90.0085 274.424,-79.6787 269.822,-89.2222 276.778,-90.0085"/>
</g>
<!-- Node32&#45;&gt;Node31 -->
<g id="edge132" class="edge"><title>Node32&#45;&gt;Node31</title>
<path fill="none" stroke="midnightblue" d="M1375.35,-246.267C1366.12,-236.423 1352.25,-221.648 1341.32,-210"/>
<polygon fill="midnightblue" stroke="midnightblue" points="1343.71,-207.43 1334.31,-202.534 1338.6,-212.221 1343.71,-207.43"/>
</g>
<!-- Node33 -->
<g id="node81" class="node"><title>Node33</title>
<a xlink:href="_detector__t_8h.html" target="_top" xlink:title="base/Detector_t.h">
<polygon fill="white" stroke="black" points="1366.93,-181.5 1366.93,-202.5 1461.93,-202.5 1461.93,-181.5 1366.93,-181.5"/>
<text text-anchor="middle" x="1414.43" y="-189.5" font-family="Helvetica,sans-Serif" font-size="10.00">base/Detector_t.h</text>
</a>
</g>
<!-- Node32&#45;&gt;Node33 -->
<g id="edge96" class="edge"><title>Node32&#45;&gt;Node33</title>
<path fill="none" stroke="midnightblue" d="M1390.21,-246.267C1394.4,-236.896 1400.57,-223.057 1405.64,-211.7"/>
<polygon fill="midnightblue" stroke="midnightblue" points="1408.85,-213.092 1409.73,-202.534 1402.46,-210.24 1408.85,-213.092"/>
</g>
<!-- Node33&#45;&gt;Node6 -->
<g id="edge98" class="edge"><title>Node33&#45;&gt;Node6</title>
<path fill="none" stroke="midnightblue" d="M1384.44,-181.429C1376.09,-178.741 1366.97,-176.04 1358.43,-174 1259.5,-150.369 1215.64,-196.49 1132.43,-138 1115.97,-126.434 1105.88,-105.386 1100.27,-89.5671"/>
<polygon fill="midnightblue" stroke="midnightblue" points="1103.47,-88.0833 1097.09,-79.6316 1096.81,-90.2228 1103.47,-88.0833"/>
</g>
<!-- Node33&#45;&gt;Node7 -->
<g id="edge128" class="edge"><title>Node33&#45;&gt;Node7</title>
<path fill="none" stroke="midnightblue" d="M1384.75,-181.441C1376.32,-178.722 1367.08,-176.002 1358.43,-174 1249.48,-148.803 1215.22,-174.2 1109.43,-138 1030.33,-110.935 947.259,-55.6411 908.23,-27.8033"/>
<polygon fill="midnightblue" stroke="midnightblue" points="909.875,-24.675 899.717,-21.6662 905.782,-30.3533 909.875,-24.675"/>
</g>
<!-- Node33&#45;&gt;Node11 -->
<g id="edge124" class="edge"><title>Node33&#45;&gt;Node11</title>
<path fill="none" stroke="midnightblue" d="M1418.08,-181.427C1424.33,-164.933 1438.64,-133.194 1461.43,-116 1498.53,-88.003 1551.65,-76.6781 1587.73,-72.1003"/>
<polygon fill="midnightblue" stroke="midnightblue" points="1588.35,-75.552 1597.89,-70.9324 1587.55,-68.5979 1588.35,-75.552"/>
</g>
<!-- Node33&#45;&gt;Node15 -->
<g id="edge130" class="edge"><title>Node33&#45;&gt;Node15</title>
<path fill="none" stroke="midnightblue" d="M1445.19,-181.425C1494.87,-164.781 1596.14,-132.66 1684.43,-116 1706.23,-111.886 2024.01,-81.7601 2127.27,-72.0249"/>
<polygon fill="midnightblue" stroke="midnightblue" points="2127.78,-75.4927 2137.41,-71.07 2127.12,-68.5236 2127.78,-75.4927"/>
</g>
<!-- Node33&#45;&gt;Node16 -->
<g id="edge126" class="edge"><title>Node33&#45;&gt;Node16</title>
<path fill="none" stroke="midnightblue" d="M1439.94,-181.499C1448.25,-178.535 1457.6,-175.666 1466.43,-174 1663.77,-136.754 2175.16,-188.925 2369.43,-138 2390.19,-132.556 2391.68,-121.509 2412.43,-116 2509.7,-90.1705 3238.93,-73.098 3398.59,-69.6464"/>
<polygon fill="midnightblue" stroke="midnightblue" points="3398.76,-73.1437 3408.68,-69.4301 3398.61,-66.1453 3398.76,-73.1437"/>
</g>
<!-- Node33&#45;&gt;Node30 -->
<g id="edge122" class="edge"><title>Node33&#45;&gt;Node30</title>
<path fill="none" stroke="midnightblue" d="M1386.89,-181.496C1377.94,-178.531 1367.88,-175.663 1358.43,-174 1146.42,-136.715 605.484,-147.327 390.426,-138 323.432,-135.095 245.098,-131.065 201.688,-128.776"/>
<polygon fill="midnightblue" stroke="midnightblue" points="201.603,-125.267 191.432,-128.234 201.233,-132.257 201.603,-125.267"/>
</g>
<!-- Node34 -->
<g id="node84" class="node"><title>Node34</title>
<a xlink:href="vec3_8h.html" target="_top" xlink:title="base/vec/vec3.h">
<polygon fill="white" stroke="black" points="1244.93,-116.5 1244.93,-137.5 1333.93,-137.5 1333.93,-116.5 1244.93,-116.5"/>
<text text-anchor="middle" x="1289.43" y="-124.5" font-family="Helvetica,sans-Serif" font-size="10.00">base/vec/vec3.h</text>
</a>
</g>
<!-- Node33&#45;&gt;Node34 -->
<g id="edge100" class="edge"><title>Node33&#45;&gt;Node34</title>
<path fill="none" stroke="midnightblue" d="M1394.06,-181.412C1373.63,-170.788 1341.96,-154.318 1318.81,-142.28"/>
<polygon fill="midnightblue" stroke="midnightblue" points="1320.27,-139.092 1309.78,-137.584 1317.04,-145.302 1320.27,-139.092"/>
</g>
<!-- Node37 -->
<g id="node92" class="node"><title>Node37</title>
<a xlink:href="math_8h.html" target="_top" xlink:title="base/std_ext/math.h">
<polygon fill="white" stroke="black" points="1693.43,-116.5 1693.43,-137.5 1799.43,-137.5 1799.43,-116.5 1693.43,-116.5"/>
<text text-anchor="middle" x="1746.43" y="-124.5" font-family="Helvetica,sans-Serif" font-size="10.00">base/std_ext/math.h</text>
</a>
</g>
<!-- Node33&#45;&gt;Node37 -->
<g id="edge110" class="edge"><title>Node33&#45;&gt;Node37</title>
<path fill="none" stroke="midnightblue" d="M1461.99,-182.687C1520.11,-171.308 1618.65,-152.016 1683.13,-139.392"/>
<polygon fill="midnightblue" stroke="midnightblue" points="1684.04,-142.781 1693.18,-137.425 1682.69,-135.912 1684.04,-142.781"/>
</g>
<!-- Node34&#45;&gt;Node6 -->
<g id="edge102" class="edge"><title>Node34&#45;&gt;Node6</title>
<path fill="none" stroke="midnightblue" d="M1254.11,-116.497C1220.75,-106.573 1170.71,-91.6898 1135.56,-81.2347"/>
<polygon fill="midnightblue" stroke="midnightblue" points="1136.2,-77.7732 1125.62,-78.277 1134.2,-84.4827 1136.2,-77.7732"/>
</g>
<!-- Node35 -->
<g id="node87" class="node"><title>Node35</title>
<a xlink:href="vec2_8h.html" target="_top" xlink:title="vec2.h">
<polygon fill="white" stroke="black" points="1317.43,-58.5 1317.43,-79.5 1363.43,-79.5 1363.43,-58.5 1317.43,-58.5"/>
<text text-anchor="middle" x="1340.43" y="-66.5" font-family="Helvetica,sans-Serif" font-size="10.00">vec2.h</text>
</a>
</g>
<!-- Node34&#45;&gt;Node35 -->
<g id="edge104" class="edge"><title>Node34&#45;&gt;Node35</title>
<path fill="none" stroke="midnightblue" d="M1298.78,-116.362C1305.97,-108.186 1316.07,-96.7025 1324.52,-87.0907"/>
<polygon fill="midnightblue" stroke="midnightblue" points="1327.16,-89.3916 1331.13,-79.5707 1321.9,-84.7692 1327.16,-89.3916"/>
</g>
<!-- Node36 -->
<g id="node89" class="node"><title>Node36</title>
<polygon fill="white" stroke="#bfbfbf" points="1318.43,-0.5 1318.43,-21.5 1362.43,-21.5 1362.43,-0.5 1318.43,-0.5"/>
<text text-anchor="middle" x="1340.43" y="-8.5" font-family="Helvetica,sans-Serif" font-size="10.00">cmath</text>
</g>
<!-- Node34&#45;&gt;Node36 -->
<g id="edge108" class="edge"><title>Node34&#45;&gt;Node36</title>
<path fill="none" stroke="midnightblue" d="M1291.23,-116.337C1293.83,-102.447 1299.35,-77.6222 1308.43,-58 1312.99,-48.1306 1319.55,-38.0524 1325.55,-29.7725"/>
<polygon fill="midnightblue" stroke="midnightblue" points="1328.49,-31.683 1331.71,-21.5887 1322.9,-27.4729 1328.49,-31.683"/>
</g>
<!-- Node35&#45;&gt;Node36 -->
<g id="edge106" class="edge"><title>Node35&#45;&gt;Node36</title>
<path fill="none" stroke="midnightblue" d="M1340.43,-58.3619C1340.43,-50.9219 1340.43,-40.7427 1340.43,-31.7276"/>
<polygon fill="midnightblue" stroke="midnightblue" points="1343.93,-31.5706 1340.43,-21.5707 1336.93,-31.5707 1343.93,-31.5706"/>
</g>
<!-- Node37&#45;&gt;Node10 -->
<g id="edge118" class="edge"><title>Node37&#45;&gt;Node10</title>
<path fill="none" stroke="midnightblue" d="M1799.57,-122.829C1941.07,-111.724 2324.49,-81.6308 2447.14,-72.0046"/>
<polygon fill="midnightblue" stroke="midnightblue" points="2447.5,-75.4878 2457.19,-71.216 2446.95,-68.5093 2447.5,-75.4878"/>
</g>
<!-- Node37&#45;&gt;Node11 -->
<g id="edge120" class="edge"><title>Node37&#45;&gt;Node11</title>
<path fill="none" stroke="midnightblue" d="M1724.88,-116.497C1706.29,-107.438 1679.22,-94.2462 1658.33,-84.0628"/>
<polygon fill="midnightblue" stroke="midnightblue" points="1659.74,-80.8563 1649.22,-79.6212 1656.67,-87.1487 1659.74,-80.8563"/>
</g>
<!-- Node37&#45;&gt;Node12 -->
<g id="edge114" class="edge"><title>Node37&#45;&gt;Node12</title>
<path fill="none" stroke="midnightblue" d="M1765.32,-116.362C1781.14,-107.45 1803.95,-94.6087 1821.82,-84.5447"/>
<polygon fill="midnightblue" stroke="midnightblue" points="1823.66,-87.5271 1830.65,-79.5707 1820.22,-81.4276 1823.66,-87.5271"/>
</g>
<!-- Node37&#45;&gt;Node15 -->
<g id="edge116" class="edge"><title>Node37&#45;&gt;Node15</title>
<path fill="none" stroke="midnightblue" d="M1799.43,-118.158C1804.16,-117.411 1808.88,-116.682 1813.43,-116 1928.52,-98.739 2065.57,-80.9357 2126.92,-73.1101"/>
<polygon fill="midnightblue" stroke="midnightblue" points="2127.65,-76.5451 2137.13,-71.8107 2126.77,-69.6011 2127.65,-76.5451"/>
</g>
<!-- Node37&#45;&gt;Node36 -->
<g id="edge112" class="edge"><title>Node37&#45;&gt;Node36</title>
<path fill="none" stroke="midnightblue" d="M1737.49,-116.25C1723.77,-100.563 1695.89,-71.7741 1665.43,-58 1613.54,-34.5443 1444.76,-19.0779 1373.09,-13.4132"/>
<polygon fill="midnightblue" stroke="midnightblue" points="1373.09,-9.90277 1362.85,-12.6186 1372.55,-16.8818 1373.09,-9.90277"/>
</g>
<!-- Node38&#45;&gt;Node6 -->
<g id="edge142" class="edge"><title>Node38&#45;&gt;Node6</title>
<path fill="none" stroke="midnightblue" d="M569.261,-304.397C600.116,-285.919 665.258,-246.314 718.426,-210 776.415,-170.393 781.075,-144.112 845.426,-116 914.301,-85.9119 1002.15,-75.0506 1052.97,-71.154"/>
<polygon fill="midnightblue" stroke="midnightblue" points="1053.5,-74.6248 1063.23,-70.4238 1053.01,-67.6425 1053.5,-74.6248"/>
</g>
<!-- Node38&#45;&gt;Node23 -->
<g id="edge138" class="edge"><title>Node38&#45;&gt;Node23</title>
<path fill="none" stroke="midnightblue" d="M579.676,-304.497C607.203,-294.263 648.915,-278.754 677.122,-268.267"/>
<polygon fill="midnightblue" stroke="midnightblue" points="678.698,-271.415 686.851,-264.65 676.258,-264.854 678.698,-271.415"/>
</g>
<!-- Node38&#45;&gt;Node24 -->
<g id="edge140" class="edge"><title>Node38&#45;&gt;Node24</title>
<path fill="none" stroke="midnightblue" d="M509.381,-313.505C424.09,-309.866 234.031,-298.494 177.426,-268 153.438,-255.077 134.433,-229.437 123.317,-211.528"/>
<polygon fill="midnightblue" stroke="midnightblue" points="126.079,-209.324 117.971,-202.504 120.056,-212.892 126.079,-209.324"/>
</g>
<!-- Node38&#45;&gt;Node29 -->
<g id="edge146" class="edge"><title>Node38&#45;&gt;Node29</title>
<path fill="none" stroke="midnightblue" d="M518.915,-304.471C466.097,-286.998 358.766,-249.957 271.426,-210 269.601,-209.165 267.739,-208.271 265.874,-207.344"/>
<polygon fill="midnightblue" stroke="midnightblue" points="267.179,-204.078 256.693,-202.557 263.942,-210.284 267.179,-204.078"/>
</g>
<!-- Node38&#45;&gt;Node30 -->
<g id="edge144" class="edge"><title>Node38&#45;&gt;Node30</title>
<path fill="none" stroke="midnightblue" d="M509.246,-306.684C428.235,-289.981 254.939,-250.475 210.426,-210 191.761,-193.028 180.236,-165.864 174.088,-147.266"/>
<polygon fill="midnightblue" stroke="midnightblue" points="177.428,-146.221 171.144,-137.691 170.737,-148.278 177.428,-146.221"/>
</g>
<!-- Node39&#45;&gt;Node6 -->
<g id="edge178" class="edge"><title>Node39&#45;&gt;Node6</title>
<path fill="none" stroke="midnightblue" d="M841.549,-246.247C847.355,-219.768 866.053,-151.031 909.426,-116 931.342,-98.2992 1005.75,-83.3787 1053.26,-75.3533"/>
<polygon fill="midnightblue" stroke="midnightblue" points="1053.96,-78.7856 1063.25,-73.6997 1052.81,-71.8795 1053.96,-78.7856"/>
</g>
<!-- Node40 -->
<g id="node115" class="node"><title>Node40</title>
<a xlink:href="_format_8h.html" target="_top" xlink:title="base/Format.h">
<polygon fill="white" stroke="black" points="629.426,-181.5 629.426,-202.5 709.426,-202.5 709.426,-181.5 629.426,-181.5"/>
<text text-anchor="middle" x="669.426" y="-189.5" font-family="Helvetica,sans-Serif" font-size="10.00">base/Format.h</text>
</a>
</g>
<!-- Node39&#45;&gt;Node40 -->
<g id="edge150" class="edge"><title>Node39&#45;&gt;Node40</title>
<path fill="none" stroke="midnightblue" d="M811.734,-246.412C783.085,-235.458 738.179,-218.288 706.485,-206.17"/>
<polygon fill="midnightblue" stroke="midnightblue" points="707.697,-202.886 697.106,-202.584 705.197,-209.424 707.697,-202.886"/>
</g>
<!-- Node40&#45;&gt;Node11 -->
<g id="edge168" class="edge"><title>Node40&#45;&gt;Node11</title>
<path fill="none" stroke="midnightblue" d="M709.456,-181.571C774.725,-164.982 908.35,-132.753 1023.43,-116 1234.6,-85.2564 1490.44,-73.722 1587.5,-70.2596"/>
<polygon fill="midnightblue" stroke="midnightblue" points="1587.86,-73.7492 1597.73,-69.9036 1587.62,-66.7534 1587.86,-73.7492"/>
</g>
<!-- Node40&#45;&gt;Node12 -->
<g id="edge164" class="edge"><title>Node40&#45;&gt;Node12</title>
<path fill="none" stroke="midnightblue" d="M629.302,-190.292C559.491,-186.387 420.253,-174.154 390.426,-138 384.204,-130.458 383.61,-123.011 390.426,-116 415.123,-90.5956 1630.03,-81.5574 1665.43,-80 1719.46,-77.6226 1782.35,-73.5896 1818.85,-71.1235"/>
<polygon fill="midnightblue" stroke="midnightblue" points="1819.55,-74.5838 1829.29,-70.412 1819.07,-67.6 1819.55,-74.5838"/>
</g>
<!-- Node40&#45;&gt;Node15 -->
<g id="edge172" class="edge"><title>Node40&#45;&gt;Node15</title>
<path fill="none" stroke="midnightblue" d="M709.452,-184.778C806.035,-167.456 1049.97,-124.367 1132.43,-116 1535.12,-75.1411 1638.56,-106.954 2042.43,-80 2071.02,-78.0914 2103.47,-74.9649 2126.93,-72.532"/>
<polygon fill="midnightblue" stroke="midnightblue" points="2127.45,-75.9967 2137.03,-71.4699 2126.71,-69.0351 2127.45,-75.9967"/>
</g>
<!-- Node40&#45;&gt;Node16 -->
<g id="edge170" class="edge"><title>Node40&#45;&gt;Node16</title>
<path fill="none" stroke="midnightblue" d="M709.449,-190.881C937.483,-184.472 2067.95,-152.198 2222.43,-138 2288.21,-131.954 2303.67,-122.361 2369.43,-116 2775.19,-76.7492 3271.54,-70.2372 3398.64,-69.193"/>
<polygon fill="midnightblue" stroke="midnightblue" points="3398.83,-72.6918 3408.81,-69.115 3398.78,-65.692 3398.83,-72.6918"/>
</g>
<!-- Node40&#45;&gt;Node18 -->
<g id="edge166" class="edge"><title>Node40&#45;&gt;Node18</title>
<path fill="none" stroke="midnightblue" d="M709.458,-190.829C961.8,-183.441 2325.57,-143.453 2457.23,-136.76"/>
<polygon fill="midnightblue" stroke="midnightblue" points="2457.5,-140.249 2467.24,-136.077 2457.03,-133.265 2457.5,-140.249"/>
</g>
<!-- Node40&#45;&gt;Node27 -->
<g id="edge162" class="edge"><title>Node40&#45;&gt;Node27</title>
<path fill="none" stroke="midnightblue" d="M629.147,-191.072C541.136,-188.373 325.206,-178.095 137.704,-137.87"/>
<polygon fill="midnightblue" stroke="midnightblue" points="138.184,-134.392 127.667,-135.682 136.692,-141.232 138.184,-134.392"/>
</g>
<!-- Node40&#45;&gt;Node36 -->
<g id="edge158" class="edge"><title>Node40&#45;&gt;Node36</title>
<path fill="none" stroke="midnightblue" d="M629.293,-190.532C557.883,-186.985 413.336,-175.269 382.426,-138 376.184,-130.474 375.9,-123.281 382.426,-116 445.677,-45.438 1147.21,-17.5348 1307.81,-12.0479"/>
<polygon fill="midnightblue" stroke="midnightblue" points="1308.13,-15.5391 1318.01,-11.7049 1307.9,-8.54305 1308.13,-15.5391"/>
</g>
<!-- Node41 -->
<g id="node117" class="node"><title>Node41</title>
<polygon fill="white" stroke="#bfbfbf" points="399.426,-116.5 399.426,-137.5 495.426,-137.5 495.426,-116.5 399.426,-116.5"/>
<text text-anchor="middle" x="447.426" y="-124.5" font-family="Helvetica,sans-Serif" font-size="10.00">detail/fmt/format.h</text>
</g>
<!-- Node40&#45;&gt;Node41 -->
<g id="edge152" class="edge"><title>Node40&#45;&gt;Node41</title>
<path fill="none" stroke="midnightblue" d="M633.264,-181.412C595.126,-170.246 534.926,-152.619 493.432,-140.47"/>
<polygon fill="midnightblue" stroke="midnightblue" points="494.153,-137.035 483.573,-137.584 492.186,-143.753 494.153,-137.035"/>
</g>
<!-- Node42 -->
<g id="node119" class="node"><title>Node42</title>
<polygon fill="white" stroke="#bfbfbf" points="1140.93,-116.5 1140.93,-137.5 1189.93,-137.5 1189.93,-116.5 1140.93,-116.5"/>
<text text-anchor="middle" x="1165.43" y="-124.5" font-family="Helvetica,sans-Serif" font-size="10.00">cassert</text>
</g>
<!-- Node40&#45;&gt;Node42 -->
<g id="edge154" class="edge"><title>Node40&#45;&gt;Node42</title>
<path fill="none" stroke="midnightblue" d="M709.596,-186.736C804.559,-174.291 1041.6,-143.227 1130.77,-131.541"/>
<polygon fill="midnightblue" stroke="midnightblue" points="1131.43,-134.985 1140.89,-130.215 1130.52,-128.044 1131.43,-134.985"/>
</g>
<!-- Node43 -->
<g id="node121" class="node"><title>Node43</title>
<polygon fill="white" stroke="#bfbfbf" points="512.926,-116.5 512.926,-137.5 559.926,-137.5 559.926,-116.5 512.926,-116.5"/>
<text text-anchor="middle" x="536.426" y="-124.5" font-family="Helvetica,sans-Serif" font-size="10.00">clocale</text>
</g>
<!-- Node40&#45;&gt;Node43 -->
<g id="edge156" class="edge"><title>Node40&#45;&gt;Node43</title>
<path fill="none" stroke="midnightblue" d="M647.761,-181.412C625.927,-170.741 592.024,-154.172 567.363,-142.12"/>
<polygon fill="midnightblue" stroke="midnightblue" points="568.603,-138.83 558.082,-137.584 565.529,-145.119 568.603,-138.83"/>
</g>
<!-- Node44 -->
<g id="node124" class="node"><title>Node44</title>
<polygon fill="white" stroke="#bfbfbf" points="576.926,-116.5 576.926,-137.5 619.926,-137.5 619.926,-116.5 576.926,-116.5"/>
<text text-anchor="middle" x="598.426" y="-124.5" font-family="Helvetica,sans-Serif" font-size="10.00">cstdio</text>
</g>
<!-- Node40&#45;&gt;Node44 -->
<g id="edge160" class="edge"><title>Node40&#45;&gt;Node44</title>
<path fill="none" stroke="midnightblue" d="M657.702,-181.267C646.742,-171.233 630.188,-156.078 617.357,-144.331"/>
<polygon fill="midnightblue" stroke="midnightblue" points="619.671,-141.705 609.932,-137.534 614.945,-146.868 619.671,-141.705"/>
</g>
<!-- Node45 -->
<g id="node132" class="node"><title>Node45</title>
<polygon fill="white" stroke="#bfbfbf" points="637.426,-116.5 637.426,-137.5 677.426,-137.5 677.426,-116.5 637.426,-116.5"/>
<text text-anchor="middle" x="657.426" y="-124.5" font-family="Helvetica,sans-Serif" font-size="10.00">utility</text>
</g>
<!-- Node40&#45;&gt;Node45 -->
<g id="edge174" class="edge"><title>Node40&#45;&gt;Node45</title>
<path fill="none" stroke="midnightblue" d="M667.444,-181.267C665.749,-172.085 663.263,-158.615 661.191,-147.392"/>
<polygon fill="midnightblue" stroke="midnightblue" points="664.628,-146.732 659.371,-137.534 657.744,-148.003 664.628,-146.732"/>
</g>
<!-- Node46 -->
<g id="node134" class="node"><title>Node46</title>
<polygon fill="white" stroke="#bfbfbf" points="694.926,-116.5 694.926,-137.5 743.926,-137.5 743.926,-116.5 694.926,-116.5"/>
<text text-anchor="middle" x="719.426" y="-124.5" font-family="Helvetica,sans-Serif" font-size="10.00">stdint.h</text>
</g>
<!-- Node40&#45;&gt;Node46 -->
<g id="edge176" class="edge"><title>Node40&#45;&gt;Node46</title>
<path fill="none" stroke="midnightblue" d="M677.683,-181.267C685.109,-171.612 696.184,-157.215 705.061,-145.675"/>
<polygon fill="midnightblue" stroke="midnightblue" points="708,-147.594 711.323,-137.534 702.452,-143.326 708,-147.594"/>
</g>
<!-- Node47&#45;&gt;Node6 -->
<g id="edge184" class="edge"><title>Node47&#45;&gt;Node6</title>
<path fill="none" stroke="midnightblue" d="M1065.6,-304.307C1058.1,-273.934 1039.66,-184.893 1061.43,-116 1064.73,-105.557 1071.27,-95.4231 1077.67,-87.2551"/>
<polygon fill="midnightblue" stroke="midnightblue" points="1080.4,-89.4395 1084.14,-79.5245 1075.03,-84.9468 1080.4,-89.4395"/>
</g>
<!-- Node47&#45;&gt;Node15 -->
<g id="edge190" class="edge"><title>Node47&#45;&gt;Node15</title>
<path fill="none" stroke="midnightblue" d="M1105.6,-313.554C1210.74,-309.177 1508.67,-294.703 1602.43,-268 1673.73,-247.692 1829.23,-139.87 1899.43,-116 1978.73,-89.0331 2077.18,-76.6239 2127.12,-71.7249"/>
<polygon fill="midnightblue" stroke="midnightblue" points="2127.67,-75.1882 2137.3,-70.7651 2127.02,-68.2191 2127.67,-75.1882"/>
</g>
<!-- Node47&#45;&gt;Node23 -->
<g id="edge182" class="edge"><title>Node47&#45;&gt;Node23</title>
<path fill="none" stroke="midnightblue" d="M1031.27,-311.737C970.205,-305.913 845.069,-292.03 741.426,-268 740.338,-267.748 739.235,-267.477 738.125,-267.19"/>
<polygon fill="midnightblue" stroke="midnightblue" points="738.704,-263.715 728.127,-264.315 736.77,-270.443 738.704,-263.715"/>
</g>
<!-- Node47&#45;&gt;Node26 -->
<g id="edge194" class="edge"><title>Node47&#45;&gt;Node26</title>
<path fill="none" stroke="midnightblue" d="M1031.2,-313.676C855.251,-307.095 112.192,-275.572 34.426,-210 1.77183,-182.466 -12.9807,-148.761 14.426,-116 42.7953,-82.0887 175.131,-72.6134 240.163,-69.9903"/>
<polygon fill="midnightblue" stroke="midnightblue" points="240.505,-73.4801 250.369,-69.6129 240.246,-66.4849 240.505,-73.4801"/>
</g>
<!-- Node47&#45;&gt;Node31 -->
<g id="edge192" class="edge"><title>Node47&#45;&gt;Node31</title>
<path fill="none" stroke="midnightblue" d="M1085.42,-304.442C1108.65,-290.229 1151.84,-264.586 1190.43,-246 1223.43,-230.101 1262.4,-214.766 1289.77,-204.527"/>
<polygon fill="midnightblue" stroke="midnightblue" points="1291.15,-207.751 1299.3,-200.993 1288.71,-201.188 1291.15,-207.751"/>
</g>
<!-- Node48 -->
<g id="node141" class="node"><title>Node48</title>
<a xlink:href="_lorentz_vec_8h.html" target="_top" xlink:title="base/vec/LorentzVec.h">
<polygon fill="white" stroke="black" points="1198.93,-246.5 1198.93,-267.5 1315.93,-267.5 1315.93,-246.5 1198.93,-246.5"/>
<text text-anchor="middle" x="1257.43" y="-254.5" font-family="Helvetica,sans-Serif" font-size="10.00">base/vec/LorentzVec.h</text>
</a>
</g>
<!-- Node47&#45;&gt;Node48 -->
<g id="edge186" class="edge"><title>Node47&#45;&gt;Node48</title>
<path fill="none" stroke="midnightblue" d="M1102.65,-304.497C1133.73,-294.959 1179.74,-280.841 1213.52,-270.475"/>
<polygon fill="midnightblue" stroke="midnightblue" points="1214.6,-273.803 1223.14,-267.523 1212.55,-267.111 1214.6,-273.803"/>
</g>
<!-- Node48&#45;&gt;Node34 -->
<g id="edge188" class="edge"><title>Node48&#45;&gt;Node34</title>
<path fill="none" stroke="midnightblue" d="M1260.04,-246.362C1265.34,-224.841 1277.41,-175.807 1284.32,-147.74"/>
<polygon fill="midnightblue" stroke="midnightblue" points="1287.78,-148.332 1286.77,-137.785 1280.98,-146.659 1287.78,-148.332"/>
</g>
<!-- Node49&#45;&gt;Node6 -->
<g id="edge200" class="edge"><title>Node49&#45;&gt;Node6</title>
<path fill="none" stroke="midnightblue" d="M2162.09,-181.437C2155.97,-178.546 2149.06,-175.733 2142.43,-174 1944.87,-122.412 1887.42,-160.002 1684.43,-138 1613.5,-130.313 1596.23,-124.757 1525.43,-116 1382.56,-98.3299 1212.6,-80.8295 1135.77,-73.1076"/>
<polygon fill="midnightblue" stroke="midnightblue" points="1135.86,-69.599 1125.56,-72.0839 1135.16,-76.5641 1135.86,-69.599"/>
</g>
<!-- Node49&#45;&gt;Node9 -->
<g id="edge198" class="edge"><title>Node49&#45;&gt;Node9</title>
<path fill="none" stroke="midnightblue" d="M2212.06,-181.904C2256.29,-167.331 2340.62,-139.562 2412.43,-116 2458.44,-100.902 2472.02,-96.6241 2521.29,-80.365"/>
<polygon fill="midnightblue" stroke="midnightblue" points="2522.52,-83.6436 2530.92,-77.1843 2520.33,-76.9966 2522.52,-83.6436"/>
</g>
<!-- Node49&#45;&gt;Node12 -->
<g id="edge204" class="edge"><title>Node49&#45;&gt;Node12</title>
<path fill="none" stroke="midnightblue" d="M2160.74,-181.349C2154.93,-178.661 2148.53,-175.98 2142.43,-174 2064,-148.544 2037.13,-168.257 1960.43,-138 1927.03,-124.828 1892.52,-101.585 1871.03,-85.7485"/>
<polygon fill="midnightblue" stroke="midnightblue" points="1873.02,-82.8692 1862.92,-79.6704 1868.82,-88.4697 1873.02,-82.8692"/>
</g>
<!-- Node49&#45;&gt;Node18 -->
<g id="edge206" class="edge"><title>Node49&#45;&gt;Node18</title>
<path fill="none" stroke="midnightblue" d="M2212,-187.191C2261.62,-179.14 2362.84,-161.686 2457.42,-138.063"/>
<polygon fill="midnightblue" stroke="midnightblue" points="2458.31,-141.45 2467.14,-135.607 2456.59,-134.664 2458.31,-141.45"/>
</g>
<!-- Node49&#45;&gt;Node19 -->
<g id="edge202" class="edge"><title>Node49&#45;&gt;Node19</title>
<path fill="none" stroke="midnightblue" d="M2212.13,-186.084C2255.96,-177.323 2338.73,-159.585 2407.43,-138 2408.66,-137.613 2409.92,-137.197 2411.18,-136.763"/>
<polygon fill="midnightblue" stroke="midnightblue" points="2412.58,-139.975 2420.74,-133.214 2410.15,-133.412 2412.58,-139.975"/>
</g>
<!-- Node50&#45;&gt;Node6 -->
<g id="edge212" class="edge"><title>Node50&#45;&gt;Node6</title>
<path fill="none" stroke="midnightblue" d="M1864.65,-188.269C1798.74,-179.936 1635.57,-158.897 1499.43,-138 1366.21,-117.552 1209,-89.6979 1135.8,-76.5111"/>
<polygon fill="midnightblue" stroke="midnightblue" points="1136.08,-73.0059 1125.62,-74.6745 1134.84,-79.8947 1136.08,-73.0059"/>
</g>
<!-- Node50&#45;&gt;Node9 -->
<g id="edge210" class="edge"><title>Node50&#45;&gt;Node9</title>
<path fill="none" stroke="midnightblue" d="M1913.68,-181.424C1919.55,-178.603 1926.12,-175.834 1932.43,-174 2057.14,-137.741 2094.15,-158.338 2222.43,-138 2253.86,-133.016 2461.16,-93.9666 2520.8,-80.0672"/>
<polygon fill="midnightblue" stroke="midnightblue" points="2521.79,-83.4283 2530.66,-77.6402 2520.12,-76.6311 2521.79,-83.4283"/>
</g>
<!-- Node50&#45;&gt;Node18 -->
<g id="edge220" class="edge"><title>Node50&#45;&gt;Node18</title>
<path fill="none" stroke="midnightblue" d="M1913.23,-181.392C1919.19,-178.498 1925.93,-175.696 1932.43,-174 2155.94,-115.65 2226.18,-179.569 2457.17,-137.831"/>
<polygon fill="midnightblue" stroke="midnightblue" points="2458.03,-141.231 2467.22,-135.966 2456.75,-134.348 2458.03,-141.231"/>
</g>
<!-- Node50&#45;&gt;Node19 -->
<g id="edge218" class="edge"><title>Node50&#45;&gt;Node19</title>
<path fill="none" stroke="midnightblue" d="M1913.24,-181.421C1919.2,-178.529 1925.93,-175.72 1932.43,-174 2137.08,-119.774 2201.05,-185.233 2407.43,-138 2408.69,-137.712 2409.96,-137.376 2411.25,-137.005"/>
<polygon fill="midnightblue" stroke="midnightblue" points="2412.56,-140.253 2420.87,-133.669 2410.27,-133.639 2412.56,-140.253"/>
</g>
<!-- Node50&#45;&gt;Node34 -->
<g id="edge216" class="edge"><title>Node50&#45;&gt;Node34</title>
<path fill="none" stroke="midnightblue" d="M1864.87,-188.952C1786.62,-180.864 1567.6,-158.1 1385.43,-138 1372.14,-136.534 1357.82,-134.915 1344.4,-133.38"/>
<polygon fill="midnightblue" stroke="midnightblue" points="1344.68,-129.889 1334.35,-132.226 1343.89,-136.843 1344.68,-129.889"/>
</g>
<!-- Node50&#45;&gt;Node37 -->
<g id="edge214" class="edge"><title>Node50&#45;&gt;Node37</title>
<path fill="none" stroke="midnightblue" d="M1870.32,-181.412C1845.7,-170.6 1807.29,-153.731 1779.77,-141.642"/>
<polygon fill="midnightblue" stroke="midnightblue" points="1781.09,-138.4 1770.52,-137.584 1778.27,-144.809 1781.09,-138.4"/>
</g>
<!-- Node51&#45;&gt;Node15 -->
<g id="edge240" class="edge"><title>Node51&#45;&gt;Node15</title>
<path fill="none" stroke="midnightblue" d="M1587.45,-246.382C1609.05,-237.107 1641,-223.11 1668.43,-210 1669.07,-209.692 1850.75,-116.22 1851.43,-116 1902.35,-99.5198 2058.62,-80.4304 2126.92,-72.6159"/>
<polygon fill="midnightblue" stroke="midnightblue" points="2127.55,-76.0664 2137.09,-71.4606 2126.76,-69.1111 2127.55,-76.0664"/>
</g>
<!-- Node51&#45;&gt;Node18 -->
<g id="edge248" class="edge"><title>Node51&#45;&gt;Node18</title>
<path fill="none" stroke="midnightblue" d="M1593.5,-255.699C1706.83,-250.81 2097.67,-232.661 2220.43,-210 2307.43,-193.94 2405.91,-159.893 2457.5,-140.771"/>
<polygon fill="midnightblue" stroke="midnightblue" points="2459.04,-143.934 2467.18,-137.156 2456.59,-137.377 2459.04,-143.934"/>
</g>
<!-- Node51&#45;&gt;Node26 -->
<g id="edge246" class="edge"><title>Node51&#45;&gt;Node26</title>
<path fill="none" stroke="midnightblue" d="M1530.95,-253.578C1507.64,-251.15 1475.08,-247.982 1446.43,-246 1079.84,-220.647 982.947,-270.046 620.426,-210 508.037,-191.385 477.05,-187.458 374.426,-138 345.329,-123.977 315.487,-101.591 296.502,-86.1396"/>
<polygon fill="midnightblue" stroke="midnightblue" points="298.518,-83.2654 288.584,-79.5832 294.054,-88.6569 298.518,-83.2654"/>
</g>
<!-- Node51&#45;&gt;Node31 -->
<g id="edge244" class="edge"><title>Node51&#45;&gt;Node31</title>
<path fill="none" stroke="midnightblue" d="M1531.28,-252.419C1490.63,-245.858 1417.69,-232.08 1358.43,-210 1356.16,-209.154 1353.85,-208.186 1351.55,-207.148"/>
<polygon fill="midnightblue" stroke="midnightblue" points="1352.89,-203.904 1342.37,-202.618 1349.79,-210.182 1352.89,-203.904"/>
</g>
<!-- Node51&#45;&gt;Node33 -->
<g id="edge224" class="edge"><title>Node51&#45;&gt;Node33</title>
<path fill="none" stroke="midnightblue" d="M1538.32,-246.412C1513.7,-235.6 1475.29,-218.731 1447.77,-206.642"/>
<polygon fill="midnightblue" stroke="midnightblue" points="1449.09,-203.4 1438.52,-202.584 1446.27,-209.809 1449.09,-203.4"/>
</g>
<!-- Node51&#45;&gt;Node34 -->
<g id="edge238" class="edge"><title>Node51&#45;&gt;Node34</title>
<path fill="none" stroke="midnightblue" d="M1553.7,-246.318C1538.61,-228.57 1505.84,-193.075 1470.43,-174 1430.97,-152.752 1381.45,-140.753 1344.18,-134.207"/>
<polygon fill="midnightblue" stroke="midnightblue" points="1344.45,-130.704 1334.01,-132.502 1343.3,-137.608 1344.45,-130.704"/>
</g>
<!-- Node51&#45;&gt;Node36 -->
<g id="edge242" class="edge"><title>Node51&#45;&gt;Node36</title>
<path fill="none" stroke="midnightblue" d="M1556.48,-246.259C1547.21,-229.917 1528.31,-198.157 1508.43,-174 1460.57,-115.859 1393.98,-56.4874 1360.84,-28.1274"/>
<polygon fill="midnightblue" stroke="midnightblue" points="1363.06,-25.416 1353.17,-21.605 1358.52,-30.749 1363.06,-25.416"/>
</g>
<!-- Node51&#45;&gt;Node37 -->
<g id="edge226" class="edge"><title>Node51&#45;&gt;Node37</title>
<path fill="none" stroke="midnightblue" d="M1577.48,-246.362C1609.51,-223.737 1684.57,-170.705 1722.94,-143.595"/>
<polygon fill="midnightblue" stroke="midnightblue" points="1725.27,-146.232 1731.42,-137.603 1721.23,-140.515 1725.27,-146.232"/>
</g>
<!-- Node52 -->
<g id="node166" class="node"><title>Node52</title>
<a xlink:href="shared__ptr__container_8h.html" target="_top" xlink:title="base/std_ext/shared\l_ptr_container.h">
<polygon fill="white" stroke="black" points="2938.93,-175 2938.93,-209 3043.93,-209 3043.93,-175 2938.93,-175"/>
<text text-anchor="start" x="2946.93" y="-196" font-family="Helvetica,sans-Serif" font-size="10.00">base/std_ext/shared</text>
<text text-anchor="middle" x="2991.43" y="-183" font-family="Helvetica,sans-Serif" font-size="10.00">_ptr_container.h</text>
</a>
</g>
<!-- Node51&#45;&gt;Node52 -->
<g id="edge228" class="edge"><title>Node51&#45;&gt;Node52</title>
<path fill="none" stroke="midnightblue" d="M1593.58,-256.401C1780.75,-252.744 2753.51,-232.851 2928.77,-209.886"/>
<polygon fill="midnightblue" stroke="midnightblue" points="2929.32,-213.343 2938.71,-208.44 2928.31,-206.416 2929.32,-213.343"/>
</g>
<!-- Node52&#45;&gt;Node10 -->
<g id="edge236" class="edge"><title>Node52&#45;&gt;Node10</title>
<path fill="none" stroke="midnightblue" d="M2982.07,-174.991C2971.1,-156.9 2951.1,-129.12 2925.43,-116 2848.02,-76.4462 2626.15,-95.5164 2523.69,-79.7485"/>
<polygon fill="midnightblue" stroke="midnightblue" points="2524.01,-76.2532 2513.56,-77.9969 2522.82,-83.1507 2524.01,-76.2532"/>
</g>
<!-- Node52&#45;&gt;Node15 -->
<g id="edge230" class="edge"><title>Node52&#45;&gt;Node15</title>
<path fill="none" stroke="midnightblue" d="M2971.57,-174.798C2949.18,-156.538 2910.86,-128.612 2872.43,-116 2807.22,-94.6021 2322.03,-75.0802 2191.62,-70.1783"/>
<polygon fill="midnightblue" stroke="midnightblue" points="2191.6,-66.6754 2181.48,-69.7999 2191.34,-73.6705 2191.6,-66.6754"/>
</g>
<!-- Node52&#45;&gt;Node18 -->
<g id="edge232" class="edge"><title>Node52&#45;&gt;Node18</title>
<path fill="none" stroke="midnightblue" d="M2938.68,-175.773C2935.9,-175.126 2933.14,-174.529 2930.43,-174 2770.87,-142.857 2727.74,-158.118 2566.43,-138 2554.43,-136.503 2541.35,-134.616 2529.63,-132.828"/>
<polygon fill="midnightblue" stroke="midnightblue" points="2530.15,-129.368 2519.74,-131.296 2529.08,-136.285 2530.15,-129.368"/>
</g>
<!-- Node52&#45;&gt;Node53 -->
<g id="edge234" class="edge"><title>Node52&#45;&gt;Node53</title>
<path fill="none" stroke="midnightblue" d="M3005.35,-174.922C3012.68,-165.937 3021.67,-154.905 3029.19,-145.691"/>
<polygon fill="midnightblue" stroke="midnightblue" points="3031.97,-147.814 3035.58,-137.852 3026.55,-143.391 3031.97,-147.814"/>
</g>
<!-- Node54&#45;&gt;Node10 -->
<g id="edge264" class="edge"><title>Node54&#45;&gt;Node10</title>
<path fill="none" stroke="midnightblue" d="M1600.22,-314.683C1820.33,-312.529 2931.19,-297.368 3052.43,-210 3088,-184.36 3112.42,-147.989 3082.43,-116 3041.44,-72.2958 2618.8,-89.4573 2523.5,-79.4342"/>
<polygon fill="midnightblue" stroke="midnightblue" points="2523.93,-75.9606 2513.55,-78.0712 2522.98,-82.8959 2523.93,-75.9606"/>
</g>
<!-- Node54&#45;&gt;Node15 -->
<g id="edge256" class="edge"><title>Node54&#45;&gt;Node15</title>
<path fill="none" stroke="midnightblue" d="M1600.18,-312.161C1661.89,-306.839 1780.77,-293.527 1813.43,-268 1849.62,-239.708 1825.26,-207.754 1856.43,-174 1892.33,-135.116 1911.09,-135.155 1960.43,-116 2017.23,-93.9452 2087.33,-80.3352 2127.36,-73.7613"/>
<polygon fill="midnightblue" stroke="midnightblue" points="2128.01,-77.2009 2137.34,-72.1665 2126.91,-70.2887 2128.01,-77.2009"/>
</g>
<!-- Node54&#45;&gt;Node18 -->
<g id="edge262" class="edge"><title>Node54&#45;&gt;Node18</title>
<path fill="none" stroke="midnightblue" d="M1600.17,-309.931C1746.26,-290.275 2268.09,-219.705 2302.43,-210 2362.47,-193.03 2428.36,-161.22 2464.93,-142.291"/>
<polygon fill="midnightblue" stroke="midnightblue" points="2466.76,-145.28 2474,-137.544 2463.52,-139.077 2466.76,-145.28"/>
</g>
<!-- Node54&#45;&gt;Node26 -->
<g id="edge260" class="edge"><title>Node54&#45;&gt;Node26</title>
<path fill="none" stroke="midnightblue" d="M1524.84,-313.778C1377.89,-308.861 846.69,-289.737 774.426,-268 755.738,-262.379 755.026,-251.905 736.426,-246 566.718,-192.126 497.312,-288.355 337.426,-210 334.973,-208.798 271.426,-140.542 270.426,-138 264.324,-122.484 266.592,-103.534 269.953,-89.4218"/>
<polygon fill="midnightblue" stroke="midnightblue" points="273.347,-90.2795 272.617,-79.7099 266.597,-88.4283 273.347,-90.2795"/>
</g>
<!-- Node54&#45;&gt;Node31 -->
<g id="edge258" class="edge"><title>Node54&#45;&gt;Node31</title>
<path fill="none" stroke="midnightblue" d="M1542.74,-304.379C1525.77,-295.102 1500.72,-281.104 1479.43,-268 1464.41,-258.762 1461.99,-254.267 1446.43,-246 1409.1,-226.181 1396.7,-227.908 1358.43,-210 1356.61,-209.151 1354.75,-208.254 1352.89,-207.331"/>
<polygon fill="midnightblue" stroke="midnightblue" points="1354.17,-204.056 1343.68,-202.614 1350.98,-210.287 1354.17,-204.056"/>
</g>
<!-- Node54&#45;&gt;Node33 -->
<g id="edge254" class="edge"><title>Node54&#45;&gt;Node33</title>
<path fill="none" stroke="midnightblue" d="M1549.55,-304.3C1523.97,-283.037 1466.52,-235.294 1435.41,-209.436"/>
<polygon fill="midnightblue" stroke="midnightblue" points="1437.3,-206.463 1427.38,-202.763 1432.83,-211.847 1437.3,-206.463"/>
</g>
<!-- Node54&#45;&gt;Node51 -->
<g id="edge252" class="edge"><title>Node54&#45;&gt;Node51</title>
<path fill="none" stroke="midnightblue" d="M1562.43,-304.362C1562.43,-296.922 1562.43,-286.743 1562.43,-277.728"/>
<polygon fill="midnightblue" stroke="midnightblue" points="1565.93,-277.571 1562.43,-267.571 1558.93,-277.571 1565.93,-277.571"/>
</g>
<!-- Node55&#45;&gt;Node6 -->
<g id="edge270" class="edge"><title>Node55&#45;&gt;Node6</title>
<path fill="none" stroke="midnightblue" d="M2266.05,-372.161C2127.26,-368.432 1581.95,-352.362 1412.43,-326 1311.66,-310.33 1272.55,-328.456 1190.43,-268 1135.6,-227.643 1135.03,-201.076 1109.43,-138 1103.09,-122.405 1099.24,-103.691 1097.03,-89.689"/>
<polygon fill="midnightblue" stroke="midnightblue" points="1100.47,-89.0237 1095.59,-79.6196 1093.54,-90.0143 1100.47,-89.0237"/>
</g>
<!-- Node55&#45;&gt;Node9 -->
<g id="edge272" class="edge"><title>Node55&#45;&gt;Node9</title>
<path fill="none" stroke="midnightblue" d="M2330.85,-370.736C2464.67,-360.745 2972.28,-316.297 3084.43,-210 3108.45,-187.233 3099.17,-170.82 3103.43,-138 3104.68,-128.303 3110.04,-123.203 3103.43,-116 3068.67,-78.1399 2704.84,-70.7185 2589.97,-69.3154"/>
<polygon fill="midnightblue" stroke="midnightblue" points="2590,-65.8156 2579.96,-69.2009 2589.92,-72.8152 2590,-65.8156"/>
</g>
<!-- Node55&#45;&gt;Node15 -->
<g id="edge306" class="edge"><title>Node55&#45;&gt;Node15</title>
<path fill="none" stroke="midnightblue" d="M2287.06,-362.227C2278.58,-353.393 2267.6,-340.087 2262.43,-326 2250.16,-292.58 2264.1,-281.145 2258.43,-246 2248.87,-186.814 2256.28,-165.481 2222.43,-116 2213.89,-103.525 2200.95,-93.0465 2189.01,-85.1722"/>
<polygon fill="midnightblue" stroke="midnightblue" points="2190.5,-81.9801 2180.16,-79.6683 2186.81,-87.9234 2190.5,-81.9801"/>
</g>
<!-- Node55&#45;&gt;Node18 -->
<g id="edge312" class="edge"><title>Node55&#45;&gt;Node18</title>
<path fill="none" stroke="midnightblue" d="M2312.85,-362.303C2324.49,-353.308 2340.91,-339.748 2353.43,-326 2408.24,-265.777 2459.89,-183.411 2482.05,-146.4"/>
<polygon fill="midnightblue" stroke="midnightblue" points="2485.18,-147.997 2487.27,-137.612 2479.16,-144.423 2485.18,-147.997"/>
</g>
<!-- Node55&#45;&gt;Node19 -->
<g id="edge308" class="edge"><title>Node55&#45;&gt;Node19</title>
<path fill="none" stroke="midnightblue" d="M2308.6,-362.224C2316.64,-353.183 2327.61,-339.599 2334.43,-326 2365.89,-263.237 2338.79,-232.62 2377.43,-174 2386.29,-160.548 2400.22,-149.077 2412.21,-140.836"/>
<polygon fill="midnightblue" stroke="midnightblue" points="2414.42,-143.577 2420.88,-135.184 2410.59,-137.712 2414.42,-143.577"/>
</g>
<!-- Node55&#45;&gt;Node48 -->
<g id="edge304" class="edge"><title>Node55&#45;&gt;Node48</title>
<path fill="none" stroke="midnightblue" d="M2266.02,-371.919C2137.64,-367.502 1664.46,-349.919 1516.43,-326 1438.04,-313.335 1349.09,-286.901 1298.48,-270.678"/>
<polygon fill="midnightblue" stroke="midnightblue" points="1299.47,-267.321 1288.88,-267.577 1297.32,-273.982 1299.47,-267.321"/>
</g>
<!-- Node55&#45;&gt;Node54 -->
<g id="edge268" class="edge"><title>Node55&#45;&gt;Node54</title>
<path fill="none" stroke="midnightblue" d="M2266.33,-370.471C2149.97,-361.301 1749.87,-329.771 1610.64,-318.8"/>
<polygon fill="midnightblue" stroke="midnightblue" points="1610.55,-315.281 1600.3,-317.985 1610,-322.26 1610.55,-315.281"/>
</g>
<!-- Node56 -->
<g id="node193" class="node"><title>Node56</title>
<a xlink:href="_particle_type_8h.html" target="_top" xlink:title="base/ParticleType.h">
<polygon fill="white" stroke="black" points="3175.43,-181.5 3175.43,-202.5 3279.43,-202.5 3279.43,-181.5 3175.43,-181.5"/>
<text text-anchor="middle" x="3227.43" y="-189.5" font-family="Helvetica,sans-Serif" font-size="10.00">base/ParticleType.h</text>
</a>
</g>
<!-- Node55&#45;&gt;Node56 -->
<g id="edge274" class="edge"><title>Node55&#45;&gt;Node56</title>
<path fill="none" stroke="midnightblue" d="M2330.69,-372.39C2420.68,-370.275 2681.81,-361.313 2895.43,-326 2998.59,-308.946 3028.83,-312.545 3123.43,-268 3155.82,-252.745 3188.38,-226.84 3208.22,-209.576"/>
<polygon fill="midnightblue" stroke="midnightblue" points="3210.75,-212.014 3215.91,-202.762 3206.11,-206.775 3210.75,-212.014"/>
</g>
<!-- Node59 -->
<g id="node204" class="node"><title>Node59</title>
<a xlink:href="_tree_8h.html" target="_top" xlink:title="base/Tree.h">
<polygon fill="white" stroke="black" points="2631.43,-181.5 2631.43,-202.5 2699.43,-202.5 2699.43,-181.5 2631.43,-181.5"/>
<text text-anchor="middle" x="2665.43" y="-189.5" font-family="Helvetica,sans-Serif" font-size="10.00">base/Tree.h</text>
</a>
</g>
<!-- Node55&#45;&gt;Node59 -->
<g id="edge290" class="edge"><title>Node55&#45;&gt;Node59</title>
<path fill="none" stroke="midnightblue" d="M2330.76,-368.485C2368.34,-362.393 2431.58,-349.493 2481.43,-326 2547.71,-294.76 2614.51,-238.472 2646.3,-209.813"/>
<polygon fill="midnightblue" stroke="midnightblue" points="2648.93,-212.153 2653.96,-202.829 2644.21,-206.981 2648.93,-212.153"/>
</g>
<!-- Node61 -->
<g id="node216" class="node"><title>Node61</title>
<polygon fill="white" stroke="#bfbfbf" points="2271.43,-304.5 2271.43,-325.5 2325.43,-325.5 2325.43,-304.5 2271.43,-304.5"/>
<text text-anchor="middle" x="2298.43" y="-312.5" font-family="Helvetica,sans-Serif" font-size="10.00">iostream</text>
</g>
<!-- Node55&#45;&gt;Node61 -->
<g id="edge310" class="edge"><title>Node55&#45;&gt;Node61</title>
<path fill="none" stroke="midnightblue" d="M2298.43,-362.362C2298.43,-354.922 2298.43,-344.743 2298.43,-335.728"/>
<polygon fill="midnightblue" stroke="midnightblue" points="2301.93,-335.571 2298.43,-325.571 2294.93,-335.571 2301.93,-335.571"/>
</g>
<!-- Node56&#45;&gt;Node5 -->
<g id="edge278" class="edge"><title>Node56&#45;&gt;Node5</title>
<path fill="none" stroke="midnightblue" d="M3175.05,-185.716C3140.32,-181.77 3093.71,-176.897 3052.43,-174 2628.28,-144.232 2520.2,-172.701 2096.43,-138 2084.57,-137.029 2071.85,-135.627 2059.9,-134.146"/>
<polygon fill="midnightblue" stroke="midnightblue" points="2059.99,-130.63 2049.63,-132.834 2059.11,-137.574 2059.99,-130.63"/>
</g>
<!-- Node56&#45;&gt;Node8 -->
<g id="edge282" class="edge"><title>Node56&#45;&gt;Node8</title>
<path fill="none" stroke="midnightblue" d="M3250.1,-181.313C3278.11,-166.728 3319.61,-139.69 3298.43,-116 3237.17,-47.4937 2562.34,-18.3783 2397.56,-12.2617"/>
<polygon fill="midnightblue" stroke="midnightblue" points="2397.58,-8.76004 2387.46,-11.8919 2397.32,-15.7554 2397.58,-8.76004"/>
</g>
<!-- Node56&#45;&gt;Node9 -->
<g id="edge276" class="edge"><title>Node56&#45;&gt;Node9</title>
<path fill="none" stroke="midnightblue" d="M3225.79,-181.23C3222.58,-164.163 3213.7,-131.275 3191.43,-116 3141.68,-81.8901 2715.85,-71.7958 2590.19,-69.5467"/>
<polygon fill="midnightblue" stroke="midnightblue" points="2590.04,-66.0437 2579.99,-69.3696 2589.92,-73.0427 2590.04,-66.0437"/>
</g>
<!-- Node56&#45;&gt;Node15 -->
<g id="edge288" class="edge"><title>Node56&#45;&gt;Node15</title>
<path fill="none" stroke="midnightblue" d="M3212.68,-181.467C3187.43,-164.107 3133.69,-130.014 3082.43,-116 3038.6,-104.02 2349.52,-76.4365 2191.53,-70.2477"/>
<polygon fill="midnightblue" stroke="midnightblue" points="2191.63,-66.7488 2181.5,-69.8554 2191.35,-73.7434 2191.63,-66.7488"/>
</g>
<!-- Node56&#45;&gt;Node16 -->
<g id="edge280" class="edge"><title>Node56&#45;&gt;Node16</title>
<path fill="none" stroke="midnightblue" d="M3249.81,-181.462C3271.2,-171.142 3304.13,-154.591 3331.43,-138 3358.41,-121.597 3387.84,-100.394 3407.33,-85.8461"/>
<polygon fill="midnightblue" stroke="midnightblue" points="3409.66,-88.4782 3415.55,-79.6712 3405.45,-82.8832 3409.66,-88.4782"/>
</g>
<!-- Node56&#45;&gt;Node57 -->
<g id="edge284" class="edge"><title>Node56&#45;&gt;Node57</title>
<path fill="none" stroke="midnightblue" d="M3255.61,-181.412C3288.09,-169.207 3341.12,-149.284 3373.19,-137.232"/>
<polygon fill="midnightblue" stroke="midnightblue" points="3374.69,-140.408 3382.82,-133.615 3372.23,-133.856 3374.69,-140.408"/>
</g>
<!-- Node58 -->
<g id="node201" class="node"><title>Node58</title>
<polygon fill="white" stroke="#bfbfbf" points="3242.93,-116.5 3242.93,-137.5 3289.93,-137.5 3289.93,-116.5 3242.93,-116.5"/>
<text text-anchor="middle" x="3266.43" y="-124.5" font-family="Helvetica,sans-Serif" font-size="10.00">iterator</text>
</g>
<!-- Node56&#45;&gt;Node58 -->
<g id="edge286" class="edge"><title>Node56&#45;&gt;Node58</title>
<path fill="none" stroke="midnightblue" d="M3233.87,-181.267C3239.55,-171.801 3247.96,-157.777 3254.81,-146.357"/>
<polygon fill="midnightblue" stroke="midnightblue" points="3257.96,-147.909 3260.11,-137.534 3251.96,-144.308 3257.96,-147.909"/>
</g>
<!-- Node59&#45;&gt;Node10 -->
<g id="edge300" class="edge"><title>Node59&#45;&gt;Node10</title>
<path fill="none" stroke="midnightblue" d="M2678.18,-181.336C2695.21,-165.82 2721.37,-136.626 2704.43,-116 2654.08,-54.715 2606.26,-96.315 2523.62,-79.9133"/>
<polygon fill="midnightblue" stroke="midnightblue" points="2524.16,-76.4477 2513.63,-77.6823 2522.63,-83.2792 2524.16,-76.4477"/>
</g>
<!-- Node59&#45;&gt;Node15 -->
<g id="edge298" class="edge"><title>Node59&#45;&gt;Node15</title>
<path fill="none" stroke="midnightblue" d="M2645.62,-181.389C2625.58,-170.605 2593.73,-153.349 2566.43,-138 2549.41,-128.438 2546.91,-122.245 2528.43,-116 2466.19,-94.979 2269.85,-77.6875 2191.84,-71.4724"/>
<polygon fill="midnightblue" stroke="midnightblue" points="2191.89,-67.9654 2181.65,-70.6697 2191.34,-74.9439 2191.89,-67.9654"/>
</g>
<!-- Node59&#45;&gt;Node18 -->
<g id="edge294" class="edge"><title>Node59&#45;&gt;Node18</title>
<path fill="none" stroke="midnightblue" d="M2640.5,-181.33C2634.59,-178.869 2628.3,-176.3 2622.43,-174 2591.13,-161.756 2555.18,-148.743 2529.19,-139.522"/>
<polygon fill="midnightblue" stroke="midnightblue" points="2530.35,-136.217 2519.75,-136.183 2528.01,-142.817 2530.35,-136.217"/>
</g>
<!-- Node59&#45;&gt;Node19 -->
<g id="edge296" class="edge"><title>Node59&#45;&gt;Node19</title>
<path fill="none" stroke="midnightblue" d="M2642.05,-181.318C2635.77,-178.692 2628.91,-176.05 2622.43,-174 2554.33,-152.468 2531,-161.396 2460.15,-138.07"/>
<polygon fill="midnightblue" stroke="midnightblue" points="2460.91,-134.63 2450.31,-134.727 2458.65,-141.258 2460.91,-134.63"/>
</g>
<!-- Node59&#45;&gt;Node42 -->
<g id="edge302" class="edge"><title>Node59&#45;&gt;Node42</title>
<path fill="none" stroke="midnightblue" d="M2644.5,-181.414C2637.64,-178.445 2629.86,-175.595 2622.43,-174 2321.17,-109.41 1543.29,-165.642 1236.43,-138 1224.54,-136.929 1211.61,-135.121 1200.09,-133.278"/>
<polygon fill="midnightblue" stroke="midnightblue" points="1200.41,-129.783 1189.97,-131.594 1199.26,-136.688 1200.41,-129.783"/>
</g>
<!-- Node60 -->
<g id="node206" class="node"><title>Node60</title>
<polygon fill="white" stroke="#bfbfbf" points="2575.43,-116.5 2575.43,-137.5 2695.43,-137.5 2695.43,-116.5 2575.43,-116.5"/>
<text text-anchor="middle" x="2635.43" y="-124.5" font-family="Helvetica,sans-Serif" font-size="10.00">base/cereal/access.hpp</text>
</g>
<!-- Node59&#45;&gt;Node60 -->
<g id="edge292" class="edge"><title>Node59&#45;&gt;Node60</title>
<path fill="none" stroke="midnightblue" d="M2660.47,-181.267C2656.15,-171.896 2649.76,-158.057 2644.52,-146.7"/>
<polygon fill="midnightblue" stroke="midnightblue" points="2647.66,-145.147 2640.29,-137.534 2641.3,-148.08 2647.66,-145.147"/>
</g>
<!-- Node62&#45;&gt;Node16 -->
<g id="edge316" class="edge"><title>Node62&#45;&gt;Node16</title>
<path fill="none" stroke="midnightblue" d="M3439.68,-181.393C3451.52,-171.622 3467.5,-155.951 3474.43,-138 3477.95,-128.878 3478.07,-125.074 3474.43,-116 3469.85,-104.603 3461.04,-94.4093 3452.43,-86.4526"/>
<polygon fill="midnightblue" stroke="midnightblue" points="3454.56,-83.6689 3444.69,-79.804 3449.99,-88.9771 3454.56,-83.6689"/>
</g>
<!-- Node62&#45;&gt;Node18 -->
<g id="edge318" class="edge"><title>Node62&#45;&gt;Node18</title>
<path fill="none" stroke="midnightblue" d="M3376.39,-184.581C3350.32,-180.883 3317.69,-176.648 3288.43,-174 2968.45,-145.05 2886.12,-169.976 2566.43,-138 2554.39,-136.796 2541.31,-134.986 2529.59,-133.179"/>
<polygon fill="midnightblue" stroke="midnightblue" points="2530.13,-129.72 2519.7,-131.607 2529.03,-136.633 2530.13,-129.72"/>
</g>
<!-- Node62&#45;&gt;Node26 -->
<g id="edge324" class="edge"><title>Node62&#45;&gt;Node26</title>
<path fill="none" stroke="midnightblue" d="M3376.42,-184.254C3350.36,-180.465 3317.73,-176.247 3288.43,-174 2577.45,-119.475 2396.82,-168.894 1684.43,-138 1532.25,-131.401 1494.52,-124.244 1342.43,-116 939.001,-94.1331 449.271,-75.4125 313.086,-70.348"/>
<polygon fill="midnightblue" stroke="midnightblue" points="312.931,-66.8399 302.808,-69.9668 312.671,-73.8351 312.931,-66.8399"/>
</g>
<!-- Node62&#45;&gt;Node57 -->
<g id="edge320" class="edge"><title>Node62&#45;&gt;Node57</title>
<path fill="none" stroke="midnightblue" d="M3421.3,-181.267C3417.73,-171.991 3412.48,-158.336 3408.14,-147.045"/>
<polygon fill="midnightblue" stroke="midnightblue" points="3411.33,-145.611 3404.48,-137.534 3404.8,-148.124 3411.33,-145.611"/>
</g>
<!-- Node63 -->
<g id="node224" class="node"><title>Node63</title>
<polygon fill="white" stroke="#bfbfbf" points="3435.43,-116.5 3435.43,-137.5 3465.43,-137.5 3465.43,-116.5 3435.43,-116.5"/>
<text text-anchor="middle" x="3450.43" y="-124.5" font-family="Helvetica,sans-Serif" font-size="10.00">set</text>
</g>
<!-- Node62&#45;&gt;Node63 -->
<g id="edge322" class="edge"><title>Node62&#45;&gt;Node63</title>
<path fill="none" stroke="midnightblue" d="M3429.55,-181.267C3433.12,-171.991 3438.37,-158.336 3442.72,-147.045"/>
<polygon fill="midnightblue" stroke="midnightblue" points="3446.05,-148.124 3446.37,-137.534 3439.52,-145.611 3446.05,-148.124"/>
</g>
<!-- Node64&#45;&gt;Node15 -->
<g id="edge332" class="edge"><title>Node64&#45;&gt;Node15</title>
<path fill="none" stroke="midnightblue" d="M2875.56,-174.984C2873.66,-157.162 2867.72,-129.874 2849.43,-116 2822.93,-95.9128 2325.63,-75.3966 2192.16,-70.2348"/>
<polygon fill="midnightblue" stroke="midnightblue" points="2191.91,-66.7228 2181.78,-69.8362 2191.64,-73.7176 2191.91,-66.7228"/>
</g>
<!-- Node64&#45;&gt;Node16 -->
<g id="edge328" class="edge"><title>Node64&#45;&gt;Node16</title>
<path fill="none" stroke="midnightblue" d="M2898.96,-174.832C2923.82,-156.88 2965.73,-129.481 3006.43,-116 3079.58,-91.7713 3314.33,-75.8235 3398.79,-70.7466"/>
<polygon fill="midnightblue" stroke="midnightblue" points="3399,-74.2402 3408.78,-70.155 3398.59,-67.2525 3399,-74.2402"/>
</g>
<!-- Node64&#45;&gt;Node18 -->
<g id="edge334" class="edge"><title>Node64&#45;&gt;Node18</title>
<path fill="none" stroke="midnightblue" d="M2830.57,-183.291C2814.42,-180.276 2796.13,-176.922 2779.43,-174 2689.74,-158.311 2583.96,-141.321 2529.64,-132.706"/>
<polygon fill="midnightblue" stroke="midnightblue" points="2529.91,-129.205 2519.48,-131.098 2528.81,-136.119 2529.91,-129.205"/>
</g>
<!-- Node64&#45;&gt;Node19 -->
<g id="edge330" class="edge"><title>Node64&#45;&gt;Node19</title>
<path fill="none" stroke="midnightblue" d="M2830.59,-186.909C2735.61,-176.249 2521.63,-151.613 2460.16,-137.515"/>
<polygon fill="midnightblue" stroke="midnightblue" points="2460.81,-134.067 2450.25,-134.927 2459.04,-140.84 2460.81,-134.067"/>
</g>
<!-- Node64&#45;&gt;Node21 -->
<g id="edge338" class="edge"><title>Node64&#45;&gt;Node21</title>
<path fill="none" stroke="midnightblue" d="M2850.94,-174.922C2836.34,-165.141 2818.13,-152.934 2803.73,-143.289"/>
<polygon fill="midnightblue" stroke="midnightblue" points="2805.59,-140.318 2795.33,-137.658 2801.69,-146.133 2805.59,-140.318"/>
</g>
<!-- Node64&#45;&gt;Node53 -->
<g id="edge336" class="edge"><title>Node64&#45;&gt;Node53</title>
<path fill="none" stroke="midnightblue" d="M2920.57,-174.922C2947.63,-164.449 2981.89,-151.195 3007.51,-141.281"/>
<polygon fill="midnightblue" stroke="midnightblue" points="3008.81,-144.531 3016.88,-137.658 3006.29,-138.003 3008.81,-144.531"/>
</g>
<!-- Node68&#45;&gt;Node10 -->
<g id="edge364" class="edge"><title>Node68&#45;&gt;Node10</title>
<path fill="none" stroke="midnightblue" d="M3559.14,-122.431C3533.84,-120.218 3502.5,-117.682 3474.43,-116 3055.07,-90.8711 2941.96,-147.968 2523.48,-79.7841"/>
<polygon fill="midnightblue" stroke="midnightblue" points="2523.97,-76.3182 2513.54,-78.1501 2522.84,-83.2256 2523.97,-76.3182"/>
</g>
<!-- Node68&#45;&gt;Node15 -->
<g id="edge360" class="edge"><title>Node68&#45;&gt;Node15</title>
<path fill="none" stroke="midnightblue" d="M3559.14,-122.399C3533.84,-120.178 3502.51,-117.644 3474.43,-116 3018.93,-89.3275 2904.4,-96.6773 2448.43,-80 2355.25,-76.5919 2245.17,-72.3399 2191.75,-70.2618"/>
<polygon fill="midnightblue" stroke="midnightblue" points="2191.67,-66.756 2181.54,-69.8642 2191.4,-73.7507 2191.67,-66.756"/>
</g>
<!-- Node68&#45;&gt;Node16 -->
<g id="edge362" class="edge"><title>Node68&#45;&gt;Node16</title>
<path fill="none" stroke="midnightblue" d="M3576.01,-116.497C3543.01,-105.804 3492.24,-89.3532 3459.94,-78.8881"/>
<polygon fill="midnightblue" stroke="midnightblue" points="3460.74,-75.4685 3450.15,-75.7155 3458.59,-82.1276 3460.74,-75.4685"/>
</g>
<!-- Node69 -->
<g id="node248" class="node"><title>Node69</title>
<polygon fill="white" stroke="#bfbfbf" points="3583.43,-58.5 3583.43,-79.5 3633.43,-79.5 3633.43,-58.5 3583.43,-58.5"/>
<text text-anchor="middle" x="3608.43" y="-66.5" font-family="Helvetica,sans-Serif" font-size="10.00">TTree.h</text>
</g>
<!-- Node68&#45;&gt;Node69 -->
<g id="edge358" class="edge"><title>Node68&#45;&gt;Node69</title>
<path fill="none" stroke="midnightblue" d="M3608.43,-116.362C3608.43,-108.922 3608.43,-98.7427 3608.43,-89.7276"/>
<polygon fill="midnightblue" stroke="midnightblue" points="3611.93,-89.5706 3608.43,-79.5707 3604.93,-89.5707 3611.93,-89.5706"/>
</g>
</g>
</svg>
