<?xml version="1.0" encoding="UTF-8" standalone="no"?>
<!DOCTYPE svg PUBLIC "-//W3C//DTD SVG 1.1//EN"
 "http://www.w3.org/Graphics/SVG/1.1/DTD/svg11.dtd">
<!-- Generated by graphviz version 2.26.3 (20100126.1600)
 -->
<!-- Title: src/analysis/input/DataReader.h Pages: 1 -->
<svg width="1558pt" height="188pt"
 viewBox="0.00 0.00 1558.00 188.00" xmlns="http://www.w3.org/2000/svg" xmlns:xlink="http://www.w3.org/1999/xlink">
<g id="graph1" class="graph" transform="scale(1 1) rotate(0) translate(4 184)">
<title>src/analysis/input/DataReader.h</title>
<polygon fill="white" stroke="white" points="-4,5 -4,-184 1555,-184 1555,5 -4,5"/>
<!-- Node1 -->
<g id="node1" class="node"><title>Node1</title>
<polygon fill="#bfbfbf" stroke="black" points="823.5,-145 823.5,-179 916.5,-179 916.5,-145 823.5,-145"/>
<text text-anchor="start" x="831.5" y="-166" font-family="Helvetica,sans-Serif" font-size="10.00">src/analysis/input</text>
<text text-anchor="middle" x="870" y="-153" font-family="Helvetica,sans-Serif" font-size="10.00">/DataReader.h</text>
</g>
<!-- Node2 -->
<g id="node3" class="node"><title>Node2</title>
<a xlink:href="_ant_8cc.html" target="_top" xlink:title="Main Ant executable. ">
<polygon fill="white" stroke="black" points="732,-7.5 732,-28.5 804,-28.5 804,-7.5 732,-7.5"/>
<text text-anchor="middle" x="768" y="-15.5" font-family="Helvetica,sans-Serif" font-size="10.00">progs/Ant.cc</text>
</a>
</g>
<!-- Node1&#45;&gt;Node2 -->
<g id="edge2" class="edge"><title>Node1&#45;&gt;Node2</title>
<path fill="none" stroke="midnightblue" d="M837.804,-138.544C827.349,-129.806 816.313,-119.253 808,-108 789.103,-82.4192 776.55,-46.5001 771.098,-28.7695"/>
<polygon fill="midnightblue" stroke="midnightblue" points="835.65,-141.302 845.632,-144.854 840.043,-135.853 835.65,-141.302"/>
</g>
<!-- Node3 -->
<g id="node5" class="node"><title>Node3</title>
<a xlink:href="_ant_reader_8h.html" target="_top" xlink:title="src/analysis/input\l/ant/AntReader.h">
<polygon fill="white" stroke="black" points="462.5,-73 462.5,-107 555.5,-107 555.5,-73 462.5,-73"/>
<text text-anchor="start" x="470.5" y="-94" font-family="Helvetica,sans-Serif" font-size="10.00">src/analysis/input</text>
<text text-anchor="middle" x="509" y="-81" font-family="Helvetica,sans-Serif" font-size="10.00">/ant/AntReader.h</text>
</a>
</g>
<!-- Node1&#45;&gt;Node3 -->
<g id="edge4" class="edge"><title>Node1&#45;&gt;Node3</title>
<path fill="none" stroke="midnightblue" d="M813.056,-150.643C741.963,-136.464 621.702,-112.478 555.741,-99.3224"/>
<polygon fill="midnightblue" stroke="midnightblue" points="812.684,-154.137 823.176,-152.661 814.053,-147.273 812.684,-154.137"/>
</g>
<!-- Node9 -->
<g id="node18" class="node"><title>Node9</title>
<a xlink:href="_goat_reader_8h.html" target="_top" xlink:title="src/analysis/input\l/goat/GoatReader.h">
<polygon fill="white" stroke="black" points="941,-73 941,-107 1043,-107 1043,-73 941,-73"/>
<text text-anchor="start" x="949" y="-94" font-family="Helvetica,sans-Serif" font-size="10.00">src/analysis/input</text>
<text text-anchor="middle" x="992" y="-81" font-family="Helvetica,sans-Serif" font-size="10.00">/goat/GoatReader.h</text>
</a>
</g>
<!-- Node1&#45;&gt;Node9 -->
<g id="edge18" class="edge"><title>Node1&#45;&gt;Node9</title>
<path fill="none" stroke="midnightblue" d="M907.867,-139.652C925.6,-129.187 946.394,-116.915 962.872,-107.19"/>
<polygon fill="midnightblue" stroke="midnightblue" points="905.745,-136.84 898.912,-144.937 909.303,-142.869 905.745,-136.84"/>
</g>
<!-- Node12 -->
<g id="node25" class="node"><title>Node12</title>
<a xlink:href="_pluto_reader_8h.html" target="_top" xlink:title="src/analysis/input\l/pluto/PlutoReader.h">
<polygon fill="white" stroke="black" points="817,-73 817,-107 923,-107 923,-73 817,-73"/>
<text text-anchor="start" x="825" y="-94" font-family="Helvetica,sans-Serif" font-size="10.00">src/analysis/input</text>
<text text-anchor="middle" x="870" y="-81" font-family="Helvetica,sans-Serif" font-size="10.00">/pluto/PlutoReader.h</text>
</a>
</g>
<!-- Node1&#45;&gt;Node12 -->
<g id="edge26" class="edge"><title>Node1&#45;&gt;Node12</title>
<path fill="none" stroke="midnightblue" d="M870,-134.719C870,-125.572 870,-115.625 870,-107.441"/>
<polygon fill="midnightblue" stroke="midnightblue" points="866.5,-134.937 870,-144.937 873.5,-134.937 866.5,-134.937"/>
</g>
<!-- Node16 -->
<g id="node35" class="node"><title>Node16</title>
<a xlink:href="_physics_manager_8cc.html" target="_top" xlink:title="src/analysis/physics\l/PhysicsManager.cc">
<polygon fill="white" stroke="black" points="1061,-73 1061,-107 1167,-107 1167,-73 1061,-73"/>
<text text-anchor="start" x="1069" y="-94" font-family="Helvetica,sans-Serif" font-size="10.00">src/analysis/physics</text>
<text text-anchor="middle" x="1114" y="-81" font-family="Helvetica,sans-Serif" font-size="10.00">/PhysicsManager.cc</text>
</a>
</g>
<!-- Node1&#45;&gt;Node16 -->
<g id="edge38" class="edge"><title>Node1&#45;&gt;Node16</title>
<path fill="none" stroke="midnightblue" d="M926.458,-145.34C966.866,-133.417 1020.92,-117.467 1060.61,-105.755"/>
<polygon fill="midnightblue" stroke="midnightblue" points="925.358,-142.016 916.757,-148.203 927.339,-148.73 925.358,-142.016"/>
</g>
<!-- Node3&#45;&gt;Node2 -->
<g id="edge8" class="edge"><title>Node3&#45;&gt;Node2</title>
<path fill="none" stroke="midnightblue" d="M565.668,-77.8711C609.144,-68.0452 670.422,-53.065 723,-36 729.723,-33.818 736.879,-31.1299 743.46,-28.5029"/>
<polygon fill="midnightblue" stroke="midnightblue" points="564.838,-74.4702 555.845,-80.0719 566.368,-81.3009 564.838,-74.4702"/>
</g>
<!-- Node4 -->
<g id="node7" class="node"><title>Node4</title>
<a xlink:href="_ant-fake_raw_8cc.html" target="_top" xlink:title="progs/Ant&#45;fakeRaw.cc">
<polygon fill="white" stroke="black" points="452,-7.5 452,-28.5 566,-28.5 566,-7.5 452,-7.5"/>
<text text-anchor="middle" x="509" y="-15.5" font-family="Helvetica,sans-Serif" font-size="10.00">progs/Ant&#45;fakeRaw.cc</text>
</a>
</g>
<!-- Node3&#45;&gt;Node4 -->
<g id="edge6" class="edge"><title>Node3&#45;&gt;Node4</title>
<path fill="none" stroke="midnightblue" d="M509,-62.6667C509,-50.9127 509,-37.8483 509,-28.901"/>
<polygon fill="midnightblue" stroke="midnightblue" points="505.5,-62.937 509,-72.937 512.5,-62.937 505.5,-62.937"/>
</g>
<!-- Node5 -->
<g id="node10" class="node"><title>Node5</title>
<a xlink:href="_ant_reader_8cc.html" target="_top" xlink:title="src/analysis/input\l/ant/AntReader.cc">
<polygon fill="white" stroke="black" points="0,-1 0,-35 96,-35 96,-1 0,-1"/>
<text text-anchor="start" x="8" y="-22" font-family="Helvetica,sans-Serif" font-size="10.00">src/analysis/input</text>
<text text-anchor="middle" x="48" y="-9" font-family="Helvetica,sans-Serif" font-size="10.00">/ant/AntReader.cc</text>
</a>
</g>
<!-- Node3&#45;&gt;Node5 -->
<g id="edge10" class="edge"><title>Node3&#45;&gt;Node5</title>
<path fill="none" stroke="midnightblue" d="M452.319,-85.5396C373.663,-78.6459 227.283,-63.2649 105,-36 102.063,-35.3451 99.0593,-34.6075 96.0427,-33.8145"/>
<polygon fill="midnightblue" stroke="midnightblue" points="452.232,-89.045 462.496,-86.4171 452.833,-82.0709 452.232,-89.045"/>
</g>
<!-- Node6 -->
<g id="node12" class="node"><title>Node6</title>
<a xlink:href="_test_ant_reader_8cc.html" target="_top" xlink:title="test/analysis/TestAntReader.cc">
<polygon fill="white" stroke="black" points="113.5,-7.5 113.5,-28.5 268.5,-28.5 268.5,-7.5 113.5,-7.5"/>
<text text-anchor="middle" x="191" y="-15.5" font-family="Helvetica,sans-Serif" font-size="10.00">test/analysis/TestAntReader.cc</text>
</a>
</g>
<!-- Node3&#45;&gt;Node6 -->
<g id="edge12" class="edge"><title>Node3&#45;&gt;Node6</title>
<path fill="none" stroke="midnightblue" d="M452.525,-77.2133C391.232,-63.3356 294.499,-41.4336 237.446,-28.5162"/>
<polygon fill="midnightblue" stroke="midnightblue" points="451.893,-80.6587 462.42,-79.4535 453.439,-73.8315 451.893,-80.6587"/>
</g>
<!-- Node7 -->
<g id="node14" class="node"><title>Node7</title>
<a xlink:href="_test_physics_manager_8cc.html" target="_top" xlink:title="test/analysis/TestPhysics\lManager.cc">
<polygon fill="white" stroke="black" points="584,-1 584,-35 714,-35 714,-1 584,-1"/>
<text text-anchor="start" x="592" y="-22" font-family="Helvetica,sans-Serif" font-size="10.00">test/analysis/TestPhysics</text>
<text text-anchor="middle" x="649" y="-9" font-family="Helvetica,sans-Serif" font-size="10.00">Manager.cc</text>
</a>
</g>
<!-- Node3&#45;&gt;Node7 -->
<g id="edge14" class="edge"><title>Node3&#45;&gt;Node7</title>
<path fill="none" stroke="midnightblue" d="M551.338,-68.2264C571.925,-57.6383 596.318,-45.0936 615.575,-35.19"/>
<polygon fill="midnightblue" stroke="midnightblue" points="549.47,-65.251 542.178,-72.937 552.672,-71.476 549.47,-65.251"/>
</g>
<!-- Node8 -->
<g id="node16" class="node"><title>Node8</title>
<a xlink:href="_test_slow_control_manager_8cc.html" target="_top" xlink:title="test/analysis/TestSlowControl\lManager.cc">
<polygon fill="white" stroke="black" points="286,-1 286,-35 434,-35 434,-1 286,-1"/>
<text text-anchor="start" x="294" y="-22" font-family="Helvetica,sans-Serif" font-size="10.00">test/analysis/TestSlowControl</text>
<text text-anchor="middle" x="360" y="-9" font-family="Helvetica,sans-Serif" font-size="10.00">Manager.cc</text>
</a>
</g>
<!-- Node3&#45;&gt;Node8 -->
<g id="edge16" class="edge"><title>Node3&#45;&gt;Node8</title>
<path fill="none" stroke="midnightblue" d="M464.498,-68.4954C442.378,-57.8069 416.024,-45.0718 395.315,-35.0651"/>
<polygon fill="midnightblue" stroke="midnightblue" points="463.162,-71.7374 473.689,-72.937 466.208,-65.4347 463.162,-71.7374"/>
</g>
<!-- Node9&#45;&gt;Node2 -->
<g id="edge20" class="edge"><title>Node9&#45;&gt;Node2</title>
<path fill="none" stroke="midnightblue" d="M931.331,-71.7653C880.577,-56.4998 815.959,-37.0359 813,-36 806.647,-33.7758 799.87,-31.1839 793.554,-28.6713"/>
<polygon fill="midnightblue" stroke="midnightblue" points="930.367,-75.1301 940.952,-74.6584 932.383,-68.4267 930.367,-75.1301"/>
</g>
<!-- Node10 -->
<g id="node21" class="node"><title>Node10</title>
<a xlink:href="_goat_reader_8cc.html" target="_top" xlink:title="src/analysis/input\l/goat/GoatReader.cc">
<polygon fill="white" stroke="black" points="1443.5,-1 1443.5,-35 1550.5,-35 1550.5,-1 1443.5,-1"/>
<text text-anchor="start" x="1451.5" y="-22" font-family="Helvetica,sans-Serif" font-size="10.00">src/analysis/input</text>
<text text-anchor="middle" x="1497" y="-9" font-family="Helvetica,sans-Serif" font-size="10.00">/goat/GoatReader.cc</text>
</a>
</g>
<!-- Node9&#45;&gt;Node10 -->
<g id="edge22" class="edge"><title>Node9&#45;&gt;Node10</title>
<path fill="none" stroke="midnightblue" d="M1053.17,-71.9972C1221.65,-40.347 1270.24,-67.3679 1435,-36 1437.75,-35.4759 1440.56,-34.8826 1443.38,-34.2384"/>
<polygon fill="midnightblue" stroke="midnightblue" points="1052.38,-68.5846 1043.22,-73.9076 1053.7,-75.459 1052.38,-68.5846"/>
</g>
<!-- Node11 -->
<g id="node23" class="node"><title>Node11</title>
<a xlink:href="_test_goat_reader_8cc.html" target="_top" xlink:title="test/analysis/TestGoatReader.cc">
<polygon fill="white" stroke="black" points="1265.5,-7.5 1265.5,-28.5 1426.5,-28.5 1426.5,-7.5 1265.5,-7.5"/>
<text text-anchor="middle" x="1346" y="-15.5" font-family="Helvetica,sans-Serif" font-size="10.00">test/analysis/TestGoatReader.cc</text>
</a>
</g>
<!-- Node9&#45;&gt;Node11 -->
<g id="edge24" class="edge"><title>Node9&#45;&gt;Node11</title>
<path fill="none" stroke="midnightblue" d="M1053.15,-71.8621C1143.74,-50.8203 1169.21,-52.5834 1257,-36 1269.39,-33.6592 1282.73,-31.0235 1295.21,-28.5059"/>
<polygon fill="midnightblue" stroke="midnightblue" points="1052.21,-68.4865 1043.28,-74.1836 1053.82,-75.3005 1052.21,-68.4865"/>
</g>
<!-- Node12&#45;&gt;Node2 -->
<g id="edge28" class="edge"><title>Node12&#45;&gt;Node2</title>
<path fill="none" stroke="midnightblue" d="M837.243,-66.8774C819.075,-54.0531 797.35,-38.7177 783.141,-28.688"/>
<polygon fill="midnightblue" stroke="midnightblue" points="835.639,-70.0295 845.827,-72.937 839.676,-64.3107 835.639,-70.0295"/>
</g>
<!-- Node12&#45;&gt;Node7 -->
<g id="edge34" class="edge"><title>Node12&#45;&gt;Node7</title>
<path fill="none" stroke="midnightblue" d="M807.916,-69.7736C774.34,-58.8347 733.33,-45.4739 701.38,-35.0651"/>
<polygon fill="midnightblue" stroke="midnightblue" points="807.034,-73.1671 817.626,-72.937 809.202,-66.5114 807.034,-73.1671"/>
</g>
<!-- Node13 -->
<g id="node28" class="node"><title>Node13</title>
<a xlink:href="_pluto_reader_8cc.html" target="_top" xlink:title="src/analysis/input\l/pluto/PlutoReader.cc">
<polygon fill="white" stroke="black" points="821.5,-1 821.5,-35 932.5,-35 932.5,-1 821.5,-1"/>
<text text-anchor="start" x="829.5" y="-22" font-family="Helvetica,sans-Serif" font-size="10.00">src/analysis/input</text>
<text text-anchor="middle" x="877" y="-9" font-family="Helvetica,sans-Serif" font-size="10.00">/pluto/PlutoReader.cc</text>
</a>
</g>
<!-- Node12&#45;&gt;Node13 -->
<g id="edge30" class="edge"><title>Node12&#45;&gt;Node13</title>
<path fill="none" stroke="midnightblue" d="M872.652,-62.7193C873.542,-53.572 874.509,-43.6255 875.304,-35.4407"/>
<polygon fill="midnightblue" stroke="midnightblue" points="869.143,-62.6452 871.659,-72.937 876.11,-63.3226 869.143,-62.6452"/>
</g>
<!-- Node14 -->
<g id="node30" class="node"><title>Node14</title>
<a xlink:href="_test_fitter_8cc.html" target="_top" xlink:title="test/analysis/TestFitter.cc">
<polygon fill="white" stroke="black" points="949.5,-7.5 949.5,-28.5 1080.5,-28.5 1080.5,-7.5 949.5,-7.5"/>
<text text-anchor="middle" x="1015" y="-15.5" font-family="Helvetica,sans-Serif" font-size="10.00">test/analysis/TestFitter.cc</text>
</a>
</g>
<!-- Node12&#45;&gt;Node14 -->
<g id="edge32" class="edge"><title>Node12&#45;&gt;Node14</title>
<path fill="none" stroke="midnightblue" d="M913.423,-68.4382C939.848,-55.3167 972.451,-39.128 993.475,-28.688"/>
<polygon fill="midnightblue" stroke="midnightblue" points="911.763,-65.3547 904.363,-72.937 914.876,-71.6243 911.763,-65.3547"/>
</g>
<!-- Node15 -->
<g id="node33" class="node"><title>Node15</title>
<a xlink:href="_test_tree_fitter_8cc.html" target="_top" xlink:title="test/analysis/TestTreeFitter.cc">
<polygon fill="white" stroke="black" points="1098,-7.5 1098,-28.5 1248,-28.5 1248,-7.5 1098,-7.5"/>
<text text-anchor="middle" x="1173" y="-15.5" font-family="Helvetica,sans-Serif" font-size="10.00">test/analysis/TestTreeFitter.cc</text>
</a>
</g>
<!-- Node12&#45;&gt;Node15 -->
<g id="edge36" class="edge"><title>Node12&#45;&gt;Node15</title>
<path fill="none" stroke="midnightblue" d="M932.926,-71.8628C980.901,-59.9216 1068.85,-40.5944 1124.24,-28.5499"/>
<polygon fill="midnightblue" stroke="midnightblue" points="931.875,-68.5184 923.04,-74.3662 933.594,-75.3043 931.875,-68.5184"/>
</g>
</g>
</svg>
