<?xml version="1.0" encoding="UTF-8" standalone="no"?>
<!DOCTYPE svg PUBLIC "-//W3C//DTD SVG 1.1//EN"
 "http://www.w3.org/Graphics/SVG/1.1/DTD/svg11.dtd">
<!-- Generated by graphviz version 2.26.3 (20100126.1600)
 -->
<!-- Title: src/calibration/DataBase.h Pages: 1 -->
<svg width="690pt" height="102pt"
 viewBox="0.00 0.00 690.00 102.00" xmlns="http://www.w3.org/2000/svg" xmlns:xlink="http://www.w3.org/1999/xlink">
<g id="graph1" class="graph" transform="scale(1 1) rotate(0) translate(4 98)">
<title>src/calibration/DataBase.h</title>
<polygon fill="white" stroke="white" points="-4,5 -4,-98 687,-98 687,5 -4,5"/>
<!-- Node1 -->
<g id="node1" class="node"><title>Node1</title>
<polygon fill="#bfbfbf" stroke="black" points="236,-72.5 236,-93.5 368,-93.5 368,-72.5 236,-72.5"/>
<text text-anchor="middle" x="302" y="-80.5" font-family="Helvetica,sans-Serif" font-size="10.00">src/calibration/DataBase.h</text>
</g>
<!-- Node2 -->
<g id="node3" class="node"><title>Node2</title>
<a xlink:href="_ant-calib-viewer_8cc.html" target="_top" xlink:title="progs/Ant&#45;calib&#45;viewer.cc">
<polygon fill="white" stroke="black" points="-0.5,-7.5 -0.5,-28.5 126.5,-28.5 126.5,-7.5 -0.5,-7.5"/>
<text text-anchor="middle" x="63" y="-15.5" font-family="Helvetica,sans-Serif" font-size="10.00">progs/Ant&#45;calib&#45;viewer.cc</text>
</a>
</g>
<!-- Node1&#45;&gt;Node2 -->
<g id="edge2" class="edge"><title>Node1&#45;&gt;Node2</title>
<path fill="none" stroke="midnightblue" d="M253.545,-69.8219C208.728,-57.6331 142.98,-39.7518 101.61,-28.5005"/>
<polygon fill="midnightblue" stroke="midnightblue" points="252.767,-73.2373 263.335,-72.4844 254.604,-66.4826 252.767,-73.2373"/>
</g>
<!-- Node3 -->
<g id="node5" class="node"><title>Node3</title>
<a xlink:href="_ant_8cc.html" target="_top" xlink:title="Main Ant executable. ">
<polygon fill="white" stroke="black" points="144,-7.5 144,-28.5 216,-28.5 216,-7.5 144,-7.5"/>
<text text-anchor="middle" x="180" y="-15.5" font-family="Helvetica,sans-Serif" font-size="10.00">progs/Ant.cc</text>
</a>
</g>
<!-- Node1&#45;&gt;Node3 -->
<g id="edge4" class="edge"><title>Node1&#45;&gt;Node3</title>
<path fill="none" stroke="midnightblue" d="M273.009,-67.5541C250.439,-55.5291 219.712,-39.1581 199.864,-28.5835"/>
<polygon fill="midnightblue" stroke="midnightblue" points="271.656,-70.7987 282.127,-72.412 274.947,-64.6208 271.656,-70.7987"/>
</g>
<!-- Node4 -->
<g id="node7" class="node"><title>Node4</title>
<a xlink:href="_data_base_8cc.html" target="_top" xlink:title="src/calibration/DataBase.cc">
<polygon fill="white" stroke="black" points="233.5,-7.5 233.5,-28.5 370.5,-28.5 370.5,-7.5 233.5,-7.5"/>
<text text-anchor="middle" x="302" y="-15.5" font-family="Helvetica,sans-Serif" font-size="10.00">src/calibration/DataBase.cc</text>
</a>
</g>
<!-- Node1&#45;&gt;Node4 -->
<g id="edge6" class="edge"><title>Node1&#45;&gt;Node4</title>
<path fill="none" stroke="midnightblue" d="M302,-62.0142C302,-50.8307 302,-37.5583 302,-28.5337"/>
<polygon fill="midnightblue" stroke="midnightblue" points="298.5,-62.2665 302,-72.2666 305.5,-62.2666 298.5,-62.2665"/>
</g>
<!-- Node5 -->
<g id="node9" class="node"><title>Node5</title>
<a xlink:href="_data_manager_8cc.html" target="_top" xlink:title="src/calibration/DataManager.cc">
<polygon fill="white" stroke="black" points="388,-7.5 388,-28.5 540,-28.5 540,-7.5 388,-7.5"/>
<text text-anchor="middle" x="464" y="-15.5" font-family="Helvetica,sans-Serif" font-size="10.00">src/calibration/DataManager.cc</text>
</a>
</g>
<!-- Node1&#45;&gt;Node5 -->
<g id="edge8" class="edge"><title>Node1&#45;&gt;Node5</title>
<path fill="none" stroke="midnightblue" d="M337.719,-68.6684C367.902,-56.5579 410.444,-39.4886 437.623,-28.5835"/>
<polygon fill="midnightblue" stroke="midnightblue" points="336.366,-65.4398 328.389,-72.412 338.973,-71.9364 336.366,-65.4398"/>
</g>
<!-- Node6 -->
<g id="node11" class="node"><title>Node6</title>
<a xlink:href="_test_data_manager_8cc.html" target="_top" xlink:title="test/calibration/TestData\lManager.cc">
<polygon fill="white" stroke="black" points="558,-1 558,-35 682,-35 682,-1 558,-1"/>
<text text-anchor="start" x="566" y="-22" font-family="Helvetica,sans-Serif" font-size="10.00">test/calibration/TestData</text>
<text text-anchor="middle" x="620" y="-9" font-family="Helvetica,sans-Serif" font-size="10.00">Manager.cc</text>
</a>
</g>
<!-- Node1&#45;&gt;Node6 -->
<g id="edge10" class="edge"><title>Node1&#45;&gt;Node6</title>
<path fill="none" stroke="midnightblue" d="M372.826,-70.6924C422.332,-61.8042 489.893,-49.1035 549,-36 551.855,-35.367 554.771,-34.7024 557.713,-34.0171"/>
<polygon fill="midnightblue" stroke="midnightblue" points="372.088,-67.2688 362.86,-72.474 373.32,-74.1595 372.088,-67.2688"/>
</g>
</g>
</svg>
