<?xml version="1.0" encoding="UTF-8" standalone="no"?>
<!DOCTYPE svg PUBLIC "-//W3C//DTD SVG 1.1//EN"
 "http://www.w3.org/Graphics/SVG/1.1/DTD/svg11.dtd">
<!-- Generated by graphviz version 2.26.3 (20100126.1600)
 -->
<!-- Title: src/calibration/gui/EditorWindow.cc Pages: 1 -->
<svg width="1513pt" height="478pt"
 viewBox="0.00 0.00 1513.00 478.00" xmlns="http://www.w3.org/2000/svg" xmlns:xlink="http://www.w3.org/1999/xlink">
<g id="graph1" class="graph" transform="scale(1 1) rotate(0) translate(4 474)">
<title>src/calibration/gui/EditorWindow.cc</title>
<polygon fill="white" stroke="white" points="-4,5 -4,-474 1510,-474 1510,5 -4,5"/>
<!-- Node1 -->
<g id="node1" class="node"><title>Node1</title>
<polygon fill="#bfbfbf" stroke="black" points="926,-435 926,-469 1020,-469 1020,-435 926,-435"/>
<text text-anchor="start" x="934" y="-456" font-family="Helvetica,sans-Serif" font-size="10.00">src/calibration/gui</text>
<text text-anchor="middle" x="973" y="-443" font-family="Helvetica,sans-Serif" font-size="10.00">/EditorWindow.cc</text>
</g>
<!-- Node2 -->
<g id="node3" class="node"><title>Node2</title>
<a xlink:href="_editor_window_8h.html" target="_top" xlink:title="EditorWindow.h">
<polygon fill="white" stroke="black" points="496,-376.5 496,-397.5 582,-397.5 582,-376.5 496,-376.5"/>
<text text-anchor="middle" x="539" y="-384.5" font-family="Helvetica,sans-Serif" font-size="10.00">EditorWindow.h</text>
</a>
</g>
<!-- Node1&#45;&gt;Node2 -->
<g id="edge2" class="edge"><title>Node1&#45;&gt;Node2</title>
<path fill="none" stroke="midnightblue" d="M925.728,-444.92C844.133,-432.7 677.42,-407.731 592.012,-394.94"/>
<polygon fill="midnightblue" stroke="midnightblue" points="592.419,-391.462 582.011,-393.442 591.382,-398.384 592.419,-391.462"/>
</g>
<!-- Node8 -->
<g id="node15" class="node"><title>Node8</title>
<polygon fill="white" stroke="#bfbfbf" points="225,-58.5 225,-79.5 287,-79.5 287,-58.5 225,-58.5"/>
<text text-anchor="middle" x="256" y="-66.5" font-family="Helvetica,sans-Serif" font-size="10.00">type_traits</text>
</g>
<!-- Node1&#45;&gt;Node8 -->
<g id="edge124" class="edge"><title>Node1&#45;&gt;Node8</title>
<path fill="none" stroke="midnightblue" d="M925.9,-449.888C746.232,-441.216 114,-404.815 114,-322 114,-322 114,-322 114,-257 114,-189.406 126.18,-166.597 171,-116 183.338,-102.072 200.832,-91.4187 216.744,-83.8049"/>
<polygon fill="midnightblue" stroke="midnightblue" points="218.212,-86.9825 225.88,-79.6714 215.326,-80.605 218.212,-86.9825"/>
</g>
<!-- Node11 -->
<g id="node21" class="node"><title>Node11</title>
<a xlink:href="string_8h.html" target="_top" xlink:title="base/std_ext/string.h">
<polygon fill="white" stroke="black" points="922,-58.5 922,-79.5 1030,-79.5 1030,-58.5 922,-58.5"/>
<text text-anchor="middle" x="976" y="-66.5" font-family="Helvetica,sans-Serif" font-size="10.00">base/std_ext/string.h</text>
</a>
</g>
<!-- Node1&#45;&gt;Node11 -->
<g id="edge74" class="edge"><title>Node1&#45;&gt;Node11</title>
<path fill="none" stroke="midnightblue" d="M972.605,-434.859C973.162,-417.718 976.744,-391.708 992,-376 1033.17,-333.607 1072.69,-375.417 1120,-340 1154.85,-313.912 1172,-300.531 1172,-257 1172,-257 1172,-257 1172,-192 1172,-157.183 1177.44,-140.798 1153,-116 1137.11,-99.876 1084.13,-87.1469 1040.24,-79.0252"/>
<polygon fill="midnightblue" stroke="midnightblue" points="1040.63,-75.5397 1030.17,-77.2117 1039.39,-82.4289 1040.63,-75.5397"/>
</g>
<!-- Node13 -->
<g id="node25" class="node"><title>Node13</title>
<polygon fill="white" stroke="#bfbfbf" points="169,-0.5 169,-21.5 221,-21.5 221,-0.5 169,-0.5"/>
<text text-anchor="middle" x="195" y="-8.5" font-family="Helvetica,sans-Serif" font-size="10.00">sstream</text>
</g>
<!-- Node1&#45;&gt;Node13 -->
<g id="edge126" class="edge"><title>Node1&#45;&gt;Node13</title>
<path fill="none" stroke="midnightblue" d="M925.741,-450.725C730.886,-444.854 0,-416.532 0,-322 0,-322 0,-322 0,-127 0,-53.9459 102.339,-25.8601 158.74,-15.9286"/>
<polygon fill="midnightblue" stroke="midnightblue" points="159.408,-19.3658 168.701,-14.2788 158.264,-12.4599 159.408,-19.3658"/>
</g>
<!-- Node22 -->
<g id="node44" class="node"><title>Node22</title>
<polygon fill="white" stroke="#bfbfbf" points="180,-116.5 180,-137.5 230,-137.5 230,-116.5 180,-116.5"/>
<text text-anchor="middle" x="205" y="-124.5" font-family="Helvetica,sans-Serif" font-size="10.00">iomanip</text>
</g>
<!-- Node1&#45;&gt;Node22 -->
<g id="edge128" class="edge"><title>Node1&#45;&gt;Node22</title>
<path fill="none" stroke="midnightblue" d="M925.948,-448.04C772.596,-434.691 294.349,-389.402 247,-340 195.876,-286.659 198.42,-190.116 202.418,-147.81"/>
<polygon fill="midnightblue" stroke="midnightblue" points="205.925,-147.933 203.514,-137.616 198.965,-147.185 205.925,-147.933"/>
</g>
<!-- Node30 -->
<g id="node68" class="node"><title>Node30</title>
<a xlink:href="memory_8h.html" target="_top" xlink:title="base/std_ext/memory.h">
<polygon fill="white" stroke="black" points="723.5,-181.5 723.5,-202.5 842.5,-202.5 842.5,-181.5 723.5,-181.5"/>
<text text-anchor="middle" x="783" y="-189.5" font-family="Helvetica,sans-Serif" font-size="10.00">base/std_ext/memory.h</text>
</a>
</g>
<!-- Node1&#45;&gt;Node30 -->
<g id="edge76" class="edge"><title>Node1&#45;&gt;Node30</title>
<path fill="none" stroke="midnightblue" d="M925.879,-447.624C886.148,-441.86 829.594,-428.564 790,-398 766.167,-379.603 763.073,-369.005 755,-340 742.447,-294.901 761.142,-240.505 773.521,-211.867"/>
<polygon fill="midnightblue" stroke="midnightblue" points="776.804,-213.101 777.726,-202.547 770.423,-210.222 776.804,-213.101"/>
</g>
<!-- Node31 -->
<g id="node72" class="node"><title>Node31</title>
<a xlink:href="_editor_canvas_8h.html" target="_top" xlink:title="calibration/gui/EditorCanvas.h">
<polygon fill="white" stroke="black" points="798.5,-376.5 798.5,-397.5 945.5,-397.5 945.5,-376.5 798.5,-376.5"/>
<text text-anchor="middle" x="872" y="-384.5" font-family="Helvetica,sans-Serif" font-size="10.00">calibration/gui/EditorCanvas.h</text>
</a>
</g>
<!-- Node1&#45;&gt;Node31 -->
<g id="edge82" class="edge"><title>Node1&#45;&gt;Node31</title>
<path fill="none" stroke="midnightblue" d="M946.463,-434.922C931.266,-425.141 912.298,-412.934 897.31,-403.289"/>
<polygon fill="midnightblue" stroke="midnightblue" points="898.865,-400.127 888.561,-397.658 895.076,-406.013 898.865,-400.127"/>
</g>
<!-- Node35 -->
<g id="node90" class="node"><title>Node35</title>
<polygon fill="white" stroke="#bfbfbf" points="1000.5,-376.5 1000.5,-397.5 1053.5,-397.5 1053.5,-376.5 1000.5,-376.5"/>
<text text-anchor="middle" x="1027" y="-384.5" font-family="Helvetica,sans-Serif" font-size="10.00">TExec.h</text>
</g>
<!-- Node1&#45;&gt;Node35 -->
<g id="edge110" class="edge"><title>Node1&#45;&gt;Node35</title>
<path fill="none" stroke="midnightblue" d="M987.188,-434.922C994.652,-425.937 1003.82,-414.905 1011.47,-405.691"/>
<polygon fill="midnightblue" stroke="midnightblue" points="1014.29,-407.781 1017.98,-397.852 1008.9,-403.307 1014.29,-407.781"/>
</g>
<!-- Node36 -->
<g id="node92" class="node"><title>Node36</title>
<polygon fill="white" stroke="#bfbfbf" points="1070.5,-376.5 1070.5,-397.5 1149.5,-397.5 1149.5,-376.5 1070.5,-376.5"/>
<text text-anchor="middle" x="1110" y="-384.5" font-family="Helvetica,sans-Serif" font-size="10.00">TApplication.h</text>
</g>
<!-- Node1&#45;&gt;Node36 -->
<g id="edge112" class="edge"><title>Node1&#45;&gt;Node36</title>
<path fill="none" stroke="midnightblue" d="M1009,-434.922C1030.49,-424.726 1057.53,-411.894 1078.23,-402.074"/>
<polygon fill="midnightblue" stroke="midnightblue" points="1080,-405.107 1087.54,-397.658 1077,-398.783 1080,-405.107"/>
</g>
<!-- Node37 -->
<g id="node94" class="node"><title>Node37</title>
<polygon fill="white" stroke="#bfbfbf" points="1166.5,-376.5 1166.5,-397.5 1231.5,-397.5 1231.5,-376.5 1166.5,-376.5"/>
<text text-anchor="middle" x="1199" y="-384.5" font-family="Helvetica,sans-Serif" font-size="10.00">TSystem.h</text>
</g>
<!-- Node1&#45;&gt;Node37 -->
<g id="edge114" class="edge"><title>Node1&#45;&gt;Node37</title>
<path fill="none" stroke="midnightblue" d="M1020.1,-438.453C1060.24,-426.909 1117.43,-410.461 1156.26,-399.292"/>
<polygon fill="midnightblue" stroke="midnightblue" points="1157.57,-402.559 1166.21,-396.431 1155.63,-395.832 1157.57,-402.559"/>
</g>
<!-- Node38 -->
<g id="node96" class="node"><title>Node38</title>
<polygon fill="white" stroke="#bfbfbf" points="1248.5,-376.5 1248.5,-397.5 1315.5,-397.5 1315.5,-376.5 1248.5,-376.5"/>
<text text-anchor="middle" x="1282" y="-384.5" font-family="Helvetica,sans-Serif" font-size="10.00">TGButton.h</text>
</g>
<!-- Node1&#45;&gt;Node38 -->
<g id="edge116" class="edge"><title>Node1&#45;&gt;Node38</title>
<path fill="none" stroke="midnightblue" d="M1020.44,-443.246C1071.87,-433.568 1156.58,-417.085 1238.18,-398.347"/>
<polygon fill="midnightblue" stroke="midnightblue" points="1239.16,-401.713 1248.11,-396.051 1237.58,-394.893 1239.16,-401.713"/>
</g>
<!-- Node39 -->
<g id="node98" class="node"><title>Node39</title>
<polygon fill="white" stroke="#bfbfbf" points="1332.5,-376.5 1332.5,-397.5 1391.5,-397.5 1391.5,-376.5 1332.5,-376.5"/>
<text text-anchor="middle" x="1362" y="-384.5" font-family="Helvetica,sans-Serif" font-size="10.00">TROOT.h</text>
</g>
<!-- Node1&#45;&gt;Node39 -->
<g id="edge118" class="edge"><title>Node1&#45;&gt;Node39</title>
<path fill="none" stroke="midnightblue" d="M1020.2,-446.704C1086.01,-438.889 1209.16,-422.701 1322.35,-398.179"/>
<polygon fill="midnightblue" stroke="midnightblue" points="1323.21,-401.575 1332.22,-396.014 1321.71,-394.738 1323.21,-401.575"/>
</g>
<!-- Node40 -->
<g id="node100" class="node"><title>Node40</title>
<a xlink:href="_logger_8h.html" target="_top" xlink:title="base/Logger.h">
<polygon fill="white" stroke="black" points="1409,-376.5 1409,-397.5 1487,-397.5 1487,-376.5 1409,-376.5"/>
<text text-anchor="middle" x="1448" y="-384.5" font-family="Helvetica,sans-Serif" font-size="10.00">base/Logger.h</text>
</a>
</g>
<!-- Node1&#45;&gt;Node40 -->
<g id="edge120" class="edge"><title>Node1&#45;&gt;Node40</title>
<path fill="none" stroke="midnightblue" d="M1020.3,-447.571C1097.54,-440.001 1255.66,-423.086 1398.92,-398.062"/>
<polygon fill="midnightblue" stroke="midnightblue" points="1399.53,-401.508 1408.77,-396.324 1398.32,-394.615 1399.53,-401.508"/>
</g>
<!-- Node3 -->
<g id="node5" class="node"><title>Node3</title>
<a xlink:href="_editor_8h.html" target="_top" xlink:title="calibration/Editor.h">
<polygon fill="white" stroke="black" points="490,-311.5 490,-332.5 588,-332.5 588,-311.5 490,-311.5"/>
<text text-anchor="middle" x="539" y="-319.5" font-family="Helvetica,sans-Serif" font-size="10.00">calibration/Editor.h</text>
</a>
</g>
<!-- Node2&#45;&gt;Node3 -->
<g id="edge4" class="edge"><title>Node2&#45;&gt;Node3</title>
<path fill="none" stroke="midnightblue" d="M539,-376.267C539,-367.18 539,-353.892 539,-342.74"/>
<polygon fill="midnightblue" stroke="midnightblue" points="542.5,-342.534 539,-332.534 535.5,-342.534 542.5,-342.534"/>
</g>
<!-- Node12 -->
<g id="node23" class="node"><title>Node12</title>
<polygon fill="white" stroke="#bfbfbf" points="432.5,-0.5 432.5,-21.5 473.5,-21.5 473.5,-0.5 432.5,-0.5"/>
<text text-anchor="middle" x="453" y="-8.5" font-family="Helvetica,sans-Serif" font-size="10.00">string</text>
</g>
<!-- Node2&#45;&gt;Node12 -->
<g id="edge70" class="edge"><title>Node2&#45;&gt;Node12</title>
<path fill="none" stroke="midnightblue" d="M495.728,-382.049C419.495,-373.032 267.355,-353.61 247,-340 164.683,-284.96 162.494,-236.566 153,-138 149.581,-102.509 134.496,-83.9013 159,-58 176.95,-39.026 349.83,-20.7147 421.802,-13.8477"/>
<polygon fill="midnightblue" stroke="midnightblue" points="422.425,-17.3045 432.053,-12.8821 421.769,-10.3353 422.425,-17.3045"/>
</g>
<!-- Node24 -->
<g id="node53" class="node"><title>Node24</title>
<a xlink:href="_indicator__traits_8h.html" target="_top" xlink:title="calibration/gui/Indicator\l_traits.h">
<polygon fill="white" stroke="black" points="763.5,-305 763.5,-339 880.5,-339 880.5,-305 763.5,-305"/>
<text text-anchor="start" x="771.5" y="-326" font-family="Helvetica,sans-Serif" font-size="10.00">calibration/gui/Indicator</text>
<text text-anchor="middle" x="822" y="-313" font-family="Helvetica,sans-Serif" font-size="10.00">_traits.h</text>
</a>
</g>
<!-- Node2&#45;&gt;Node24 -->
<g id="edge58" class="edge"><title>Node2&#45;&gt;Node24</title>
<path fill="none" stroke="midnightblue" d="M582.29,-377.057C627.819,-366.6 700.118,-349.994 753.42,-337.752"/>
<polygon fill="midnightblue" stroke="midnightblue" points="754.514,-341.091 763.477,-335.442 752.947,-334.269 754.514,-341.091"/>
</g>
<!-- Node25 -->
<g id="node56" class="node"><title>Node25</title>
<polygon fill="white" stroke="#bfbfbf" points="256,-311.5 256,-332.5 322,-332.5 322,-311.5 256,-311.5"/>
<text text-anchor="middle" x="289" y="-319.5" font-family="Helvetica,sans-Serif" font-size="10.00">TGFrame.h</text>
</g>
<!-- Node2&#45;&gt;Node25 -->
<g id="edge62" class="edge"><title>Node2&#45;&gt;Node25</title>
<path fill="none" stroke="midnightblue" d="M495.758,-379.617C453.251,-371.803 386.818,-358.099 331,-340 327.831,-338.972 324.571,-337.797 321.335,-336.551"/>
<polygon fill="midnightblue" stroke="midnightblue" points="322.399,-333.205 311.817,-332.674 319.758,-339.688 322.399,-333.205"/>
</g>
<!-- Node26 -->
<g id="node58" class="node"><title>Node26</title>
<polygon fill="white" stroke="#bfbfbf" points="340,-311.5 340,-332.5 420,-332.5 420,-311.5 340,-311.5"/>
<text text-anchor="middle" x="380" y="-319.5" font-family="Helvetica,sans-Serif" font-size="10.00">KeySymbols.h</text>
</g>
<!-- Node2&#45;&gt;Node26 -->
<g id="edge64" class="edge"><title>Node2&#45;&gt;Node26</title>
<path fill="none" stroke="midnightblue" d="M513.1,-376.412C486.536,-365.552 445.027,-348.583 415.43,-336.484"/>
<polygon fill="midnightblue" stroke="midnightblue" points="416.47,-333.128 405.889,-332.584 413.821,-339.607 416.47,-333.128"/>
</g>
<!-- Node27 -->
<g id="node60" class="node"><title>Node27</title>
<polygon fill="white" stroke="#bfbfbf" points="643.5,-311.5 643.5,-332.5 708.5,-332.5 708.5,-311.5 643.5,-311.5"/>
<text text-anchor="middle" x="676" y="-319.5" font-family="Helvetica,sans-Serif" font-size="10.00">TCanvas.h</text>
</g>
<!-- Node2&#45;&gt;Node27 -->
<g id="edge66" class="edge"><title>Node2&#45;&gt;Node27</title>
<path fill="none" stroke="midnightblue" d="M561.316,-376.412C583.906,-365.694 619.04,-349.025 644.469,-336.96"/>
<polygon fill="midnightblue" stroke="midnightblue" points="646.159,-340.032 653.693,-332.584 643.158,-333.708 646.159,-340.032"/>
</g>
<!-- Node28 -->
<g id="node62" class="node"><title>Node28</title>
<polygon fill="white" stroke="#bfbfbf" points="437.5,-311.5 437.5,-332.5 472.5,-332.5 472.5,-311.5 437.5,-311.5"/>
<text text-anchor="middle" x="455" y="-319.5" font-family="Helvetica,sans-Serif" font-size="10.00">map</text>
</g>
<!-- Node2&#45;&gt;Node28 -->
<g id="edge68" class="edge"><title>Node2&#45;&gt;Node28</title>
<path fill="none" stroke="midnightblue" d="M525.129,-376.267C511.918,-366.044 491.836,-350.504 476.543,-338.67"/>
<polygon fill="midnightblue" stroke="midnightblue" points="478.663,-335.886 468.613,-332.534 474.38,-341.422 478.663,-335.886"/>
</g>
<!-- Node29 -->
<g id="node65" class="node"><title>Node29</title>
<polygon fill="white" stroke="#bfbfbf" points="866,-116.5 866,-137.5 918,-137.5 918,-116.5 866,-116.5"/>
<text text-anchor="middle" x="892" y="-124.5" font-family="Helvetica,sans-Serif" font-size="10.00">memory</text>
</g>
<!-- Node2&#45;&gt;Node29 -->
<g id="edge72" class="edge"><title>Node2&#45;&gt;Node29</title>
<path fill="none" stroke="midnightblue" d="M554.248,-376.43C566.537,-367.508 583.871,-353.984 597,-340 658.957,-274.008 640.321,-225.152 715,-174 766.197,-138.932 791.897,-154.149 855.94,-138.059"/>
<polygon fill="midnightblue" stroke="midnightblue" points="856.922,-141.419 865.674,-135.448 855.109,-134.658 856.922,-141.419"/>
</g>
<!-- Node4 -->
<g id="node7" class="node"><title>Node4</title>
<a xlink:href="_t_calibration_data_8h.html" target="_top" xlink:title="tree/TCalibrationData.h">
<polygon fill="white" stroke="black" points="413,-246.5 413,-267.5 531,-267.5 531,-246.5 413,-246.5"/>
<text text-anchor="middle" x="472" y="-254.5" font-family="Helvetica,sans-Serif" font-size="10.00">tree/TCalibrationData.h</text>
</a>
</g>
<!-- Node3&#45;&gt;Node4 -->
<g id="edge6" class="edge"><title>Node3&#45;&gt;Node4</title>
<path fill="none" stroke="midnightblue" d="M527.936,-311.267C517.692,-301.328 502.267,-286.363 490.208,-274.664"/>
<polygon fill="midnightblue" stroke="midnightblue" points="492.472,-271.985 482.858,-267.534 487.598,-277.009 492.472,-271.985"/>
</g>
<!-- Node3&#45;&gt;Node12 -->
<g id="edge56" class="edge"><title>Node3&#45;&gt;Node12</title>
<path fill="none" stroke="midnightblue" d="M505.177,-311.406C422.379,-285.382 215.35,-219.723 203,-210 173.351,-186.656 168.403,-174.274 158,-138 151.464,-115.211 167.951,-59.025 169,-58 204.558,-23.2653 356.338,-14.1329 422.248,-11.7873"/>
<polygon fill="midnightblue" stroke="midnightblue" points="422.542,-15.2797 432.422,-11.4554 422.313,-8.28337 422.542,-15.2797"/>
</g>
<!-- Node5 -->
<g id="node9" class="node"><title>Node5</title>
<a xlink:href="_t_i_d_8h.html" target="_top" xlink:title="TID.h">
<polygon fill="white" stroke="black" points="451.5,-181.5 451.5,-202.5 492.5,-202.5 492.5,-181.5 451.5,-181.5"/>
<text text-anchor="middle" x="472" y="-189.5" font-family="Helvetica,sans-Serif" font-size="10.00">TID.h</text>
</a>
</g>
<!-- Node4&#45;&gt;Node5 -->
<g id="edge8" class="edge"><title>Node4&#45;&gt;Node5</title>
<path fill="none" stroke="midnightblue" d="M472,-246.267C472,-237.18 472,-223.892 472,-212.74"/>
<polygon fill="midnightblue" stroke="midnightblue" points="475.5,-212.534 472,-202.534 468.5,-212.534 475.5,-212.534"/>
</g>
<!-- Node4&#45;&gt;Node12 -->
<g id="edge48" class="edge"><title>Node4&#45;&gt;Node12</title>
<path fill="none" stroke="midnightblue" d="M412.978,-252.711C341.86,-244.016 225.188,-217.692 171,-138 107.737,-44.9613 336.964,-19.1441 422.254,-12.8375"/>
<polygon fill="midnightblue" stroke="midnightblue" points="422.641,-16.3191 432.373,-12.1317 422.154,-9.33607 422.641,-16.3191"/>
</g>
<!-- Node17 -->
<g id="node33" class="node"><title>Node17</title>
<polygon fill="white" stroke="#bfbfbf" points="613.5,-58.5 613.5,-79.5 654.5,-79.5 654.5,-58.5 613.5,-58.5"/>
<text text-anchor="middle" x="634" y="-66.5" font-family="Helvetica,sans-Serif" font-size="10.00">ctime</text>
</g>
<!-- Node4&#45;&gt;Node17 -->
<g id="edge50" class="edge"><title>Node4&#45;&gt;Node17</title>
<path fill="none" stroke="midnightblue" d="M461.498,-246.318C438.024,-221.149 385.874,-157.149 419,-116 441.799,-87.6792 549.521,-75.4914 603.301,-71.1015"/>
<polygon fill="midnightblue" stroke="midnightblue" points="603.598,-74.589 613.297,-70.325 603.056,-67.6101 603.598,-74.589"/>
</g>
<!-- Node23 -->
<g id="node49" class="node"><title>Node23</title>
<a xlink:href="_git_info_8h.html" target="_top" xlink:title="base/GitInfo.h">
<polygon fill="white" stroke="black" points="510,-181.5 510,-202.5 588,-202.5 588,-181.5 510,-181.5"/>
<text text-anchor="middle" x="549" y="-189.5" font-family="Helvetica,sans-Serif" font-size="10.00">base/GitInfo.h</text>
</a>
</g>
<!-- Node4&#45;&gt;Node23 -->
<g id="edge52" class="edge"><title>Node4&#45;&gt;Node23</title>
<path fill="none" stroke="midnightblue" d="M484.715,-246.267C496.713,-236.139 514.893,-220.792 528.862,-209"/>
<polygon fill="midnightblue" stroke="midnightblue" points="531.138,-211.659 536.522,-202.534 526.623,-206.31 531.138,-211.659"/>
</g>
<!-- Node6 -->
<g id="node11" class="node"><title>Node6</title>
<polygon fill="white" stroke="#bfbfbf" points="936,-116.5 936,-137.5 992,-137.5 992,-116.5 936,-116.5"/>
<text text-anchor="middle" x="964" y="-124.5" font-family="Helvetica,sans-Serif" font-size="10.00">Rtypes.h</text>
</g>
<!-- Node5&#45;&gt;Node6 -->
<g id="edge10" class="edge"><title>Node5&#45;&gt;Node6</title>
<path fill="none" stroke="midnightblue" d="M486.084,-181.414C490.624,-178.521 495.825,-175.714 501,-174 678.286,-115.269 738.242,-171.276 925.956,-137.838"/>
<polygon fill="midnightblue" stroke="midnightblue" points="926.665,-141.266 935.864,-136.011 925.396,-134.382 926.665,-141.266"/>
</g>
<!-- Node7 -->
<g id="node13" class="node"><title>Node7</title>
<a xlink:href="printable_8h.html" target="_top" xlink:title="base/printable.h">
<polygon fill="white" stroke="black" points="286,-116.5 286,-137.5 372,-137.5 372,-116.5 286,-116.5"/>
<text text-anchor="middle" x="329" y="-124.5" font-family="Helvetica,sans-Serif" font-size="10.00">base/printable.h</text>
</a>
</g>
<!-- Node5&#45;&gt;Node7 -->
<g id="edge12" class="edge"><title>Node5&#45;&gt;Node7</title>
<path fill="none" stroke="midnightblue" d="M451.207,-182.548C427.647,-171.84 388.955,-154.252 361.422,-141.737"/>
<polygon fill="midnightblue" stroke="midnightblue" points="362.744,-138.493 352.192,-137.542 359.847,-144.866 362.744,-138.493"/>
</g>
<!-- Node5&#45;&gt;Node8 -->
<g id="edge34" class="edge"><title>Node5&#45;&gt;Node8</title>
<path fill="none" stroke="midnightblue" d="M451.364,-188.845C406.498,-181.592 302.089,-162.462 277,-138 264.086,-125.409 259.056,-105.143 257.127,-89.8243"/>
<polygon fill="midnightblue" stroke="midnightblue" points="260.599,-89.364 256.201,-79.7252 253.628,-90.0029 260.599,-89.364"/>
</g>
<!-- Node10 -->
<g id="node19" class="node"><title>Node10</title>
<a xlink:href="time_8h.html" target="_top" xlink:title="base/std_ext/time.h">
<polygon fill="white" stroke="black" points="661.5,-116.5 661.5,-137.5 764.5,-137.5 764.5,-116.5 661.5,-116.5"/>
<text text-anchor="middle" x="713" y="-124.5" font-family="Helvetica,sans-Serif" font-size="10.00">base/std_ext/time.h</text>
</a>
</g>
<!-- Node5&#45;&gt;Node10 -->
<g id="edge18" class="edge"><title>Node5&#45;&gt;Node10</title>
<path fill="none" stroke="midnightblue" d="M486.836,-181.46C491.235,-178.709 496.171,-175.967 501,-174 527.814,-163.077 598.771,-148.342 651.247,-138.301"/>
<polygon fill="midnightblue" stroke="midnightblue" points="651.975,-141.725 661.146,-136.42 650.669,-134.848 651.975,-141.725"/>
</g>
<!-- Node5&#45;&gt;Node17 -->
<g id="edge46" class="edge"><title>Node5&#45;&gt;Node17</title>
<path fill="none" stroke="midnightblue" d="M487.557,-181.356C491.8,-178.73 496.477,-176.078 501,-174 549.281,-151.817 578.134,-176.263 615,-138 627.418,-125.112 631.877,-104.883 633.402,-89.654"/>
<polygon fill="midnightblue" stroke="midnightblue" points="636.897,-89.8344 634.066,-79.625 629.913,-89.372 636.897,-89.8344"/>
</g>
<!-- Node18 -->
<g id="node36" class="node"><title>Node18</title>
<polygon fill="white" stroke="#bfbfbf" points="428,-116.5 428,-137.5 466,-137.5 466,-116.5 428,-116.5"/>
<text text-anchor="middle" x="447" y="-124.5" font-family="Helvetica,sans-Serif" font-size="10.00">tuple</text>
</g>
<!-- Node5&#45;&gt;Node18 -->
<g id="edge36" class="edge"><title>Node5&#45;&gt;Node18</title>
<path fill="none" stroke="midnightblue" d="M467.872,-181.267C464.304,-171.991 459.052,-158.336 454.71,-147.045"/>
<polygon fill="midnightblue" stroke="midnightblue" points="457.908,-145.611 451.051,-137.534 451.375,-148.124 457.908,-145.611"/>
</g>
<!-- Node19 -->
<g id="node38" class="node"><title>Node19</title>
<polygon fill="white" stroke="#bfbfbf" points="484,-116.5 484,-137.5 530,-137.5 530,-116.5 484,-116.5"/>
<text text-anchor="middle" x="507" y="-124.5" font-family="Helvetica,sans-Serif" font-size="10.00">cstdint</text>
</g>
<!-- Node5&#45;&gt;Node19 -->
<g id="edge38" class="edge"><title>Node5&#45;&gt;Node19</title>
<path fill="none" stroke="midnightblue" d="M477.78,-181.267C482.876,-171.801 490.428,-157.777 496.577,-146.357"/>
<polygon fill="midnightblue" stroke="midnightblue" points="499.669,-147.998 501.328,-137.534 493.505,-144.679 499.669,-147.998"/>
</g>
<!-- Node20 -->
<g id="node40" class="node"><title>Node20</title>
<polygon fill="white" stroke="#bfbfbf" points="547.5,-116.5 547.5,-137.5 606.5,-137.5 606.5,-116.5 547.5,-116.5"/>
<text text-anchor="middle" x="577" y="-124.5" font-family="Helvetica,sans-Serif" font-size="10.00">stdexcept</text>
</g>
<!-- Node5&#45;&gt;Node20 -->
<g id="edge40" class="edge"><title>Node5&#45;&gt;Node20</title>
<path fill="none" stroke="midnightblue" d="M489.172,-181.335C493.06,-178.922 497.172,-176.372 501,-174 517.709,-163.648 536.496,-152.03 551.21,-142.935"/>
<polygon fill="midnightblue" stroke="midnightblue" points="553.124,-145.866 559.79,-137.632 549.444,-139.912 553.124,-145.866"/>
</g>
<!-- Node21 -->
<g id="node42" class="node"><title>Node21</title>
<polygon fill="white" stroke="#bfbfbf" points="819.5,-116.5 819.5,-137.5 848.5,-137.5 848.5,-116.5 819.5,-116.5"/>
<text text-anchor="middle" x="834" y="-124.5" font-family="Helvetica,sans-Serif" font-size="10.00">list</text>
</g>
<!-- Node5&#45;&gt;Node21 -->
<g id="edge42" class="edge"><title>Node5&#45;&gt;Node21</title>
<path fill="none" stroke="midnightblue" d="M486.433,-181.376C490.903,-178.554 495.978,-175.796 501,-174 615.818,-132.927 652.519,-156.826 773,-138 785.086,-136.112 798.466,-133.731 809.607,-131.668"/>
<polygon fill="midnightblue" stroke="midnightblue" points="810.306,-135.099 819.489,-129.814 809.015,-128.219 810.306,-135.099"/>
</g>
<!-- Node5&#45;&gt;Node22 -->
<g id="edge44" class="edge"><title>Node5&#45;&gt;Node22</title>
<path fill="none" stroke="midnightblue" d="M451.49,-187.449C411.465,-178.499 320.192,-157.758 244,-138 242.736,-137.672 241.45,-137.334 240.152,-136.989"/>
<polygon fill="midnightblue" stroke="midnightblue" points="240.701,-133.511 230.133,-134.258 238.86,-140.264 240.701,-133.511"/>
</g>
<!-- Node7&#45;&gt;Node8 -->
<g id="edge14" class="edge"><title>Node7&#45;&gt;Node8</title>
<path fill="none" stroke="midnightblue" d="M315.611,-116.362C304.909,-107.859 289.704,-95.7785 277.329,-85.9466"/>
<polygon fill="midnightblue" stroke="midnightblue" points="279.311,-83.0511 269.304,-79.5707 274.957,-88.5318 279.311,-83.0511"/>
</g>
<!-- Node9 -->
<g id="node17" class="node"><title>Node9</title>
<polygon fill="white" stroke="#bfbfbf" points="305,-58.5 305,-79.5 357,-79.5 357,-58.5 305,-58.5"/>
<text text-anchor="middle" x="331" y="-66.5" font-family="Helvetica,sans-Serif" font-size="10.00">ostream</text>
</g>
<!-- Node7&#45;&gt;Node9 -->
<g id="edge16" class="edge"><title>Node7&#45;&gt;Node9</title>
<path fill="none" stroke="midnightblue" d="M329.367,-116.362C329.623,-108.922 329.974,-98.7427 330.285,-89.7276"/>
<polygon fill="midnightblue" stroke="midnightblue" points="333.789,-89.6854 330.635,-79.5707 326.793,-89.4441 333.789,-89.6854"/>
</g>
<!-- Node10&#45;&gt;Node11 -->
<g id="edge20" class="edge"><title>Node10&#45;&gt;Node11</title>
<path fill="none" stroke="midnightblue" d="M760.627,-116.497C804.988,-106.714 871.205,-92.1107 918.494,-81.6819"/>
<polygon fill="midnightblue" stroke="midnightblue" points="919.272,-85.0946 928.283,-79.5231 917.764,-78.2588 919.272,-85.0946"/>
</g>
<!-- Node16 -->
<g id="node31" class="node"><title>Node16</title>
<polygon fill="white" stroke="#bfbfbf" points="690,-58.5 690,-79.5 736,-79.5 736,-58.5 690,-58.5"/>
<text text-anchor="middle" x="713" y="-66.5" font-family="Helvetica,sans-Serif" font-size="10.00">cstring</text>
</g>
<!-- Node10&#45;&gt;Node16 -->
<g id="edge30" class="edge"><title>Node10&#45;&gt;Node16</title>
<path fill="none" stroke="midnightblue" d="M713,-116.362C713,-108.922 713,-98.7427 713,-89.7276"/>
<polygon fill="midnightblue" stroke="midnightblue" points="716.5,-89.5706 713,-79.5707 709.5,-89.5707 716.5,-89.5706"/>
</g>
<!-- Node10&#45;&gt;Node17 -->
<g id="edge32" class="edge"><title>Node10&#45;&gt;Node17</title>
<path fill="none" stroke="midnightblue" d="M698.51,-116.362C686.817,-107.777 670.157,-95.5459 656.697,-85.6636"/>
<polygon fill="midnightblue" stroke="midnightblue" points="658.53,-82.6675 648.398,-79.5707 654.387,-88.31 658.53,-82.6675"/>
</g>
<!-- Node11&#45;&gt;Node12 -->
<g id="edge22" class="edge"><title>Node11&#45;&gt;Node12</title>
<path fill="none" stroke="midnightblue" d="M921.851,-59.953C917.171,-59.2584 912.505,-58.5966 908,-58 748.924,-36.9352 557.5,-19.8424 483.898,-13.5747"/>
<polygon fill="midnightblue" stroke="midnightblue" points="484.172,-10.0854 473.912,-12.7294 483.581,-17.0605 484.172,-10.0854"/>
</g>
<!-- Node11&#45;&gt;Node13 -->
<g id="edge24" class="edge"><title>Node11&#45;&gt;Node13</title>
<path fill="none" stroke="midnightblue" d="M921.702,-64.9676C772.125,-53.8595 356.89,-23.0225 231.389,-13.7024"/>
<polygon fill="midnightblue" stroke="midnightblue" points="231.399,-10.1936 221.168,-12.9433 230.881,-17.1744 231.399,-10.1936"/>
</g>
<!-- Node14 -->
<g id="node27" class="node"><title>Node14</title>
<polygon fill="white" stroke="#bfbfbf" points="948,-0.5 948,-21.5 1004,-21.5 1004,-0.5 948,-0.5"/>
<text text-anchor="middle" x="976" y="-8.5" font-family="Helvetica,sans-Serif" font-size="10.00">algorithm</text>
</g>
<!-- Node11&#45;&gt;Node14 -->
<g id="edge26" class="edge"><title>Node11&#45;&gt;Node14</title>
<path fill="none" stroke="midnightblue" d="M976,-58.3619C976,-50.9219 976,-40.7427 976,-31.7276"/>
<polygon fill="midnightblue" stroke="midnightblue" points="979.5,-31.5706 976,-21.5707 972.5,-31.5707 979.5,-31.5706"/>
</g>
<!-- Node15 -->
<g id="node29" class="node"><title>Node15</title>
<polygon fill="white" stroke="#bfbfbf" points="1029,-0.5 1029,-21.5 1073,-21.5 1073,-0.5 1029,-0.5"/>
<text text-anchor="middle" x="1051" y="-8.5" font-family="Helvetica,sans-Serif" font-size="10.00">vector</text>
</g>
<!-- Node11&#45;&gt;Node15 -->
<g id="edge28" class="edge"><title>Node11&#45;&gt;Node15</title>
<path fill="none" stroke="midnightblue" d="M989.756,-58.3619C1000.75,-49.859 1016.37,-37.7785 1029.09,-27.9466"/>
<polygon fill="midnightblue" stroke="midnightblue" points="1031.56,-30.4569 1037.33,-21.5707 1027.28,-24.9195 1031.56,-30.4569"/>
</g>
<!-- Node23&#45;&gt;Node12 -->
<g id="edge54" class="edge"><title>Node23&#45;&gt;Node12</title>
<path fill="none" stroke="midnightblue" d="M577.964,-181.464C585.715,-178.837 594.127,-176.157 602,-174 679.4,-152.792 790.895,-194.232 773,-116 766.617,-88.0963 767.954,-75.1016 745,-58 704.046,-27.4877 550.425,-16.0156 483.963,-12.4169"/>
<polygon fill="midnightblue" stroke="midnightblue" points="483.875,-8.90779 473.708,-11.8872 483.514,-15.8985 483.875,-8.90779"/>
</g>
<!-- Node24&#45;&gt;Node6 -->
<g id="edge60" class="edge"><title>Node24&#45;&gt;Node6</title>
<path fill="none" stroke="midnightblue" d="M827.077,-304.798C836.435,-275.345 858.735,-214.522 894,-174 905.009,-161.35 920.183,-150.609 933.59,-142.603"/>
<polygon fill="midnightblue" stroke="midnightblue" points="935.567,-145.504 942.516,-137.507 932.097,-139.425 935.567,-145.504"/>
</g>
<!-- Node30&#45;&gt;Node21 -->
<g id="edge80" class="edge"><title>Node30&#45;&gt;Node21</title>
<path fill="none" stroke="midnightblue" d="M791.422,-181.267C798.997,-171.612 810.293,-157.215 819.347,-145.675"/>
<polygon fill="midnightblue" stroke="midnightblue" points="822.316,-147.562 825.735,-137.534 816.809,-143.241 822.316,-147.562"/>
</g>
<!-- Node30&#45;&gt;Node29 -->
<g id="edge78" class="edge"><title>Node30&#45;&gt;Node29</title>
<path fill="none" stroke="midnightblue" d="M800.999,-181.267C818.618,-170.76 845.655,-154.637 865.685,-142.692"/>
<polygon fill="midnightblue" stroke="midnightblue" points="867.54,-145.662 874.336,-137.534 863.954,-139.649 867.54,-145.662"/>
</g>
<!-- Node31&#45;&gt;Node3 -->
<g id="edge84" class="edge"><title>Node31&#45;&gt;Node3</title>
<path fill="none" stroke="midnightblue" d="M818.128,-376.484C757.884,-364.725 660.606,-345.737 598.256,-333.566"/>
<polygon fill="midnightblue" stroke="midnightblue" points="598.665,-330.08 588.18,-331.6 597.324,-336.951 598.665,-330.08"/>
</g>
<!-- Node31&#45;&gt;Node6 -->
<g id="edge88" class="edge"><title>Node31&#45;&gt;Node6</title>
<path fill="none" stroke="midnightblue" d="M875.942,-376.182C879.405,-366.662 884.567,-352.422 889,-340 914.187,-269.427 943.572,-185.503 956.846,-147.503"/>
<polygon fill="midnightblue" stroke="midnightblue" points="960.294,-148.244 960.286,-137.65 953.685,-145.937 960.294,-148.244"/>
</g>
<!-- Node31&#45;&gt;Node24 -->
<g id="edge104" class="edge"><title>Node31&#45;&gt;Node24</title>
<path fill="none" stroke="midnightblue" d="M863.744,-376.267C857.676,-368.379 849.173,-357.325 841.424,-347.251"/>
<polygon fill="midnightblue" stroke="midnightblue" points="844.033,-344.902 835.161,-339.11 838.484,-349.17 844.033,-344.902"/>
</g>
<!-- Node31&#45;&gt;Node27 -->
<g id="edge106" class="edge"><title>Node31&#45;&gt;Node27</title>
<path fill="none" stroke="midnightblue" d="M840.073,-376.412C806.758,-365.364 754.374,-347.991 717.785,-335.857"/>
<polygon fill="midnightblue" stroke="midnightblue" points="718.507,-332.409 707.913,-332.584 716.303,-339.053 718.507,-332.409"/>
</g>
<!-- Node32 -->
<g id="node75" class="node"><title>Node32</title>
<polygon fill="white" stroke="#bfbfbf" points="1085.5,-116.5 1085.5,-137.5 1144.5,-137.5 1144.5,-116.5 1085.5,-116.5"/>
<text text-anchor="middle" x="1115" y="-124.5" font-family="Helvetica,sans-Serif" font-size="10.00">functional</text>
</g>
<!-- Node31&#45;&gt;Node32 -->
<g id="edge86" class="edge"><title>Node31&#45;&gt;Node32</title>
<path fill="none" stroke="midnightblue" d="M942.532,-376.486C1004.26,-366.599 1085.67,-351.621 1096,-340 1144.44,-285.481 1129.73,-189.209 1120.26,-147.367"/>
<polygon fill="midnightblue" stroke="midnightblue" points="1123.63,-146.429 1117.89,-137.523 1116.83,-148.064 1123.63,-146.429"/>
</g>
<!-- Node33 -->
<g id="node78" class="node"><title>Node33</title>
<a xlink:href="root__draw_8h.html" target="_top" xlink:title="analysis/plot/root\l_draw.h">
<polygon fill="white" stroke="black" points="974.5,-175 974.5,-209 1065.5,-209 1065.5,-175 974.5,-175"/>
<text text-anchor="start" x="982.5" y="-196" font-family="Helvetica,sans-Serif" font-size="10.00">analysis/plot/root</text>
<text text-anchor="middle" x="1020" y="-183" font-family="Helvetica,sans-Serif" font-size="10.00">_draw.h</text>
</a>
</g>
<!-- Node31&#45;&gt;Node33 -->
<g id="edge90" class="edge"><title>Node31&#45;&gt;Node33</title>
<path fill="none" stroke="midnightblue" d="M935.714,-376.474C992.511,-366.443 1068.04,-351.245 1077,-340 1106.61,-302.835 1070.39,-248.519 1043.65,-217.066"/>
<polygon fill="midnightblue" stroke="midnightblue" points="1045.98,-214.42 1036.76,-209.21 1040.72,-219.036 1045.98,-214.42"/>
</g>
<!-- Node34 -->
<g id="node88" class="node"><title>Node34</title>
<polygon fill="white" stroke="#bfbfbf" points="936,-311.5 936,-332.5 1068,-332.5 1068,-311.5 936,-311.5"/>
<text text-anchor="middle" x="1002" y="-319.5" font-family="Helvetica,sans-Serif" font-size="10.00">TRootEmbeddedCanvas.h</text>
</g>
<!-- Node31&#45;&gt;Node34 -->
<g id="edge108" class="edge"><title>Node31&#45;&gt;Node34</title>
<path fill="none" stroke="midnightblue" d="M893.176,-376.412C914.517,-365.741 947.657,-349.172 971.76,-337.12"/>
<polygon fill="midnightblue" stroke="midnightblue" points="973.454,-340.186 980.833,-332.584 970.323,-333.925 973.454,-340.186"/>
</g>
<!-- Node33&#45;&gt;Node6 -->
<g id="edge102" class="edge"><title>Node33&#45;&gt;Node6</title>
<path fill="none" stroke="midnightblue" d="M1005.29,-174.922C997.546,-165.937 988.041,-154.905 980.103,-145.691"/>
<polygon fill="midnightblue" stroke="midnightblue" points="982.528,-143.144 973.349,-137.852 977.225,-147.713 982.528,-143.144"/>
</g>
<!-- Node33&#45;&gt;Node12 -->
<g id="edge92" class="edge"><title>Node33&#45;&gt;Node12</title>
<path fill="none" stroke="midnightblue" d="M1020.49,-174.763C1020.01,-157.546 1016.49,-131.476 1001,-116 963.735,-78.7723 594.201,-29.0069 483.916,-14.8829"/>
<polygon fill="midnightblue" stroke="midnightblue" points="484.145,-11.3839 473.783,-13.5923 483.26,-18.3278 484.145,-11.3839"/>
</g>
<!-- Node33&#45;&gt;Node15 -->
<g id="edge96" class="edge"><title>Node33&#45;&gt;Node15</title>
<path fill="none" stroke="midnightblue" d="M1025.08,-174.612C1028.01,-164.088 1031.58,-150.356 1034,-138 1041.27,-100.895 1046.38,-57.0771 1048.99,-31.8169"/>
<polygon fill="midnightblue" stroke="midnightblue" points="1052.5,-31.9071 1050.02,-21.6075 1045.54,-31.208 1052.5,-31.9071"/>
</g>
<!-- Node33&#45;&gt;Node21 -->
<g id="edge94" class="edge"><title>Node33&#45;&gt;Node21</title>
<path fill="none" stroke="midnightblue" d="M974.476,-178.609C943.667,-169.166 901.974,-155.652 858.315,-138.264"/>
<polygon fill="midnightblue" stroke="midnightblue" points="859.556,-134.99 848.972,-134.495 856.937,-141.482 859.556,-134.99"/>
</g>
<!-- Node33&#45;&gt;Node29 -->
<g id="edge98" class="edge"><title>Node33&#45;&gt;Node29</title>
<path fill="none" stroke="midnightblue" d="M986.37,-174.922C966.382,-164.772 941.25,-152.01 921.948,-142.208"/>
<polygon fill="midnightblue" stroke="midnightblue" points="923.49,-139.066 912.989,-137.658 920.32,-145.307 923.49,-139.066"/>
</g>
<!-- Node33&#45;&gt;Node32 -->
<g id="edge100" class="edge"><title>Node33&#45;&gt;Node32</title>
<path fill="none" stroke="midnightblue" d="M1044.96,-174.922C1059.12,-165.233 1076.76,-153.165 1090.79,-143.562"/>
<polygon fill="midnightblue" stroke="midnightblue" points="1093.15,-146.194 1099.42,-137.658 1089.19,-140.417 1093.15,-146.194"/>
</g>
<!-- Node41 -->
<g id="node102" class="node"><title>Node41</title>
<polygon fill="white" stroke="#bfbfbf" points="1390.5,-311.5 1390.5,-332.5 1505.5,-332.5 1505.5,-311.5 1390.5,-311.5"/>
<text text-anchor="middle" x="1448" y="-319.5" font-family="Helvetica,sans-Serif" font-size="10.00">detail/easylogging++.h</text>
</g>
<!-- Node40&#45;&gt;Node41 -->
<g id="edge122" class="edge"><title>Node40&#45;&gt;Node41</title>
<path fill="none" stroke="midnightblue" d="M1448,-376.267C1448,-367.18 1448,-353.892 1448,-342.74"/>
<polygon fill="midnightblue" stroke="midnightblue" points="1451.5,-342.534 1448,-332.534 1444.5,-342.534 1451.5,-342.534"/>
</g>
</g>
</svg>
