<?xml version="1.0" encoding="UTF-8" standalone="no"?>
<!DOCTYPE svg PUBLIC "-//W3C//DTD SVG 1.1//EN"
 "http://www.w3.org/Graphics/SVG/1.1/DTD/svg11.dtd">
<!-- Generated by graphviz version 2.26.3 (20100126.1600)
 -->
<!-- Title: src/calibration/Editor.h Pages: 1 -->
<svg width="879pt" height="320pt"
 viewBox="0.00 0.00 879.00 320.00" xmlns="http://www.w3.org/2000/svg" xmlns:xlink="http://www.w3.org/1999/xlink">
<g id="graph1" class="graph" transform="scale(1 1) rotate(0) translate(4 316)">
<title>src/calibration/Editor.h</title>
<polygon fill="white" stroke="white" points="-4,5 -4,-316 876,-316 876,5 -4,5"/>
<!-- Node1 -->
<g id="node1" class="node"><title>Node1</title>
<polygon fill="#bfbfbf" stroke="black" points="0,-290.5 0,-311.5 114,-311.5 114,-290.5 0,-290.5"/>
<text text-anchor="middle" x="57" y="-298.5" font-family="Helvetica,sans-Serif" font-size="10.00">src/calibration/Editor.h</text>
</g>
<!-- Node2 -->
<g id="node3" class="node"><title>Node2</title>
<a xlink:href="_t_calibration_data_8h.html" target="_top" xlink:title="tree/TCalibrationData.h">
<polygon fill="white" stroke="black" points="51,-232.5 51,-253.5 169,-253.5 169,-232.5 51,-232.5"/>
<text text-anchor="middle" x="110" y="-240.5" font-family="Helvetica,sans-Serif" font-size="10.00">tree/TCalibrationData.h</text>
</a>
</g>
<!-- Node1&#45;&gt;Node2 -->
<g id="edge2" class="edge"><title>Node1&#45;&gt;Node2</title>
<path fill="none" stroke="midnightblue" d="M66.721,-290.362C74.192,-282.186 84.6857,-270.702 93.4689,-261.091"/>
<polygon fill="midnightblue" stroke="midnightblue" points="96.1786,-263.314 100.341,-253.571 91.0111,-258.592 96.1786,-263.314"/>
</g>
<!-- Node10 -->
<g id="node19" class="node"><title>Node10</title>
<polygon fill="white" stroke="#bfbfbf" points="55.5,-0.5 55.5,-21.5 96.5,-21.5 96.5,-0.5 55.5,-0.5"/>
<text text-anchor="middle" x="76" y="-8.5" font-family="Helvetica,sans-Serif" font-size="10.00">string</text>
</g>
<!-- Node1&#45;&gt;Node10 -->
<g id="edge52" class="edge"><title>Node1&#45;&gt;Node10</title>
<path fill="none" stroke="midnightblue" d="M48.4133,-290.206C33.6438,-270.519 5,-226.933 5,-185 5,-185 5,-185 5,-127 5,-87.2548 35.6967,-49.6247 56.722,-28.512"/>
<polygon fill="midnightblue" stroke="midnightblue" points="59.2064,-30.9783 63.9558,-21.5076 54.337,-25.9494 59.2064,-30.9783"/>
</g>
<!-- Node3 -->
<g id="node5" class="node"><title>Node3</title>
<a xlink:href="_t_i_d_8h.html" target="_top" xlink:title="TID.h">
<polygon fill="white" stroke="black" points="432.5,-174.5 432.5,-195.5 473.5,-195.5 473.5,-174.5 432.5,-174.5"/>
<text text-anchor="middle" x="453" y="-182.5" font-family="Helvetica,sans-Serif" font-size="10.00">TID.h</text>
</a>
</g>
<!-- Node2&#45;&gt;Node3 -->
<g id="edge4" class="edge"><title>Node2&#45;&gt;Node3</title>
<path fill="none" stroke="midnightblue" d="M169.354,-232.963C242.848,-220.536 365.27,-199.835 422.173,-190.213"/>
<polygon fill="midnightblue" stroke="midnightblue" points="423.052,-193.614 432.328,-188.496 421.885,-186.712 423.052,-193.614"/>
</g>
<!-- Node2&#45;&gt;Node10 -->
<g id="edge44" class="edge"><title>Node2&#45;&gt;Node10</title>
<path fill="none" stroke="midnightblue" d="M93.7401,-232.423C82.4848,-224.058 68.4182,-211.267 62,-196 38.4702,-140.029 57.1822,-66.181 68.6857,-31.1289"/>
<polygon fill="midnightblue" stroke="midnightblue" points="72.0344,-32.1535 71.9696,-21.5589 65.4134,-29.8815 72.0344,-32.1535"/>
</g>
<!-- Node15 -->
<g id="node29" class="node"><title>Node15</title>
<polygon fill="white" stroke="#bfbfbf" points="194.5,-58.5 194.5,-79.5 235.5,-79.5 235.5,-58.5 194.5,-58.5"/>
<text text-anchor="middle" x="215" y="-66.5" font-family="Helvetica,sans-Serif" font-size="10.00">ctime</text>
</g>
<!-- Node2&#45;&gt;Node15 -->
<g id="edge46" class="edge"><title>Node2&#45;&gt;Node15</title>
<path fill="none" stroke="midnightblue" d="M123.576,-232.161C134.018,-223.291 148.261,-209.968 158,-196 182.055,-161.501 199.746,-115.219 208.609,-89.1154"/>
<polygon fill="midnightblue" stroke="midnightblue" points="211.952,-90.1517 211.763,-79.5586 205.305,-87.9577 211.952,-90.1517"/>
</g>
<!-- Node21 -->
<g id="node45" class="node"><title>Node21</title>
<a xlink:href="_git_info_8h.html" target="_top" xlink:title="base/GitInfo.h">
<polygon fill="white" stroke="black" points="71,-174.5 71,-195.5 149,-195.5 149,-174.5 71,-174.5"/>
<text text-anchor="middle" x="110" y="-182.5" font-family="Helvetica,sans-Serif" font-size="10.00">base/GitInfo.h</text>
</a>
</g>
<!-- Node2&#45;&gt;Node21 -->
<g id="edge48" class="edge"><title>Node2&#45;&gt;Node21</title>
<path fill="none" stroke="midnightblue" d="M110,-232.362C110,-224.922 110,-214.743 110,-205.728"/>
<polygon fill="midnightblue" stroke="midnightblue" points="113.5,-205.571 110,-195.571 106.5,-205.571 113.5,-205.571"/>
</g>
<!-- Node4 -->
<g id="node7" class="node"><title>Node4</title>
<polygon fill="white" stroke="#bfbfbf" points="711,-116.5 711,-137.5 767,-137.5 767,-116.5 711,-116.5"/>
<text text-anchor="middle" x="739" y="-124.5" font-family="Helvetica,sans-Serif" font-size="10.00">Rtypes.h</text>
</g>
<!-- Node3&#45;&gt;Node4 -->
<g id="edge6" class="edge"><title>Node3&#45;&gt;Node4</title>
<path fill="none" stroke="midnightblue" d="M473.661,-181.494C515.826,-174.235 614.754,-156.67 697,-138 698.24,-137.718 699.5,-137.426 700.77,-137.126"/>
<polygon fill="midnightblue" stroke="midnightblue" points="701.721,-140.496 710.596,-134.71 700.049,-133.699 701.721,-140.496"/>
</g>
<!-- Node5 -->
<g id="node9" class="node"><title>Node5</title>
<a xlink:href="printable_8h.html" target="_top" xlink:title="base/printable.h">
<polygon fill="white" stroke="black" points="785,-116.5 785,-137.5 871,-137.5 871,-116.5 785,-116.5"/>
<text text-anchor="middle" x="828" y="-124.5" font-family="Helvetica,sans-Serif" font-size="10.00">base/printable.h</text>
</a>
</g>
<!-- Node3&#45;&gt;Node5 -->
<g id="edge8" class="edge"><title>Node3&#45;&gt;Node5</title>
<path fill="none" stroke="midnightblue" d="M473.858,-182.435C523.925,-176.179 655.038,-159.208 774.837,-138.124"/>
<polygon fill="midnightblue" stroke="midnightblue" points="775.677,-141.53 784.911,-136.337 774.454,-134.638 775.677,-141.53"/>
</g>
<!-- Node6 -->
<g id="node11" class="node"><title>Node6</title>
<polygon fill="white" stroke="#bfbfbf" points="699,-58.5 699,-79.5 761,-79.5 761,-58.5 699,-58.5"/>
<text text-anchor="middle" x="730" y="-66.5" font-family="Helvetica,sans-Serif" font-size="10.00">type_traits</text>
</g>
<!-- Node3&#45;&gt;Node6 -->
<g id="edge30" class="edge"><title>Node3&#45;&gt;Node6</title>
<path fill="none" stroke="midnightblue" d="M473.83,-181.936C520.361,-174.842 631.227,-156.478 664,-138 685.848,-125.681 704.926,-103.821 716.875,-88.0012"/>
<polygon fill="midnightblue" stroke="midnightblue" points="720.005,-89.6488 723.055,-79.5024 714.343,-85.5323 720.005,-89.6488"/>
</g>
<!-- Node8 -->
<g id="node15" class="node"><title>Node8</title>
<a xlink:href="time_8h.html" target="_top" xlink:title="base/std_ext/time.h">
<polygon fill="white" stroke="black" points="552.5,-116.5 552.5,-137.5 655.5,-137.5 655.5,-116.5 552.5,-116.5"/>
<text text-anchor="middle" x="604" y="-124.5" font-family="Helvetica,sans-Serif" font-size="10.00">base/std_ext/time.h</text>
</a>
</g>
<!-- Node3&#45;&gt;Node8 -->
<g id="edge14" class="edge"><title>Node3&#45;&gt;Node8</title>
<path fill="none" stroke="midnightblue" d="M473.679,-177.057C497.627,-167.859 537.539,-152.528 566.897,-141.252"/>
<polygon fill="midnightblue" stroke="midnightblue" points="568.33,-144.45 576.41,-137.598 565.82,-137.916 568.33,-144.45"/>
</g>
<!-- Node3&#45;&gt;Node15 -->
<g id="edge42" class="edge"><title>Node3&#45;&gt;Node15</title>
<path fill="none" stroke="midnightblue" d="M432.416,-183.275C383.59,-178.774 262.697,-165.098 234,-138 220.915,-125.644 216.554,-105.181 215.235,-89.7409"/>
<polygon fill="midnightblue" stroke="midnightblue" points="218.722,-89.3873 214.73,-79.5732 211.73,-89.7345 218.722,-89.3873"/>
</g>
<!-- Node16 -->
<g id="node32" class="node"><title>Node16</title>
<polygon fill="white" stroke="#bfbfbf" points="243,-116.5 243,-137.5 281,-137.5 281,-116.5 243,-116.5"/>
<text text-anchor="middle" x="262" y="-124.5" font-family="Helvetica,sans-Serif" font-size="10.00">tuple</text>
</g>
<!-- Node3&#45;&gt;Node16 -->
<g id="edge32" class="edge"><title>Node3&#45;&gt;Node16</title>
<path fill="none" stroke="midnightblue" d="M432.48,-179.745C403.092,-172.078 347.172,-156.97 290.948,-138.121"/>
<polygon fill="midnightblue" stroke="midnightblue" points="291.787,-134.71 281.192,-134.813 289.539,-141.339 291.787,-134.71"/>
</g>
<!-- Node17 -->
<g id="node34" class="node"><title>Node17</title>
<polygon fill="white" stroke="#bfbfbf" points="299,-116.5 299,-137.5 345,-137.5 345,-116.5 299,-116.5"/>
<text text-anchor="middle" x="322" y="-124.5" font-family="Helvetica,sans-Serif" font-size="10.00">cstdint</text>
</g>
<!-- Node3&#45;&gt;Node17 -->
<g id="edge34" class="edge"><title>Node3&#45;&gt;Node17</title>
<path fill="none" stroke="midnightblue" d="M432.243,-175.81C411.352,-166.56 378.83,-152.161 354.515,-141.396"/>
<polygon fill="midnightblue" stroke="midnightblue" points="355.872,-138.169 345.312,-137.321 353.039,-144.57 355.872,-138.169"/>
</g>
<!-- Node18 -->
<g id="node36" class="node"><title>Node18</title>
<polygon fill="white" stroke="#bfbfbf" points="362.5,-116.5 362.5,-137.5 421.5,-137.5 421.5,-116.5 362.5,-116.5"/>
<text text-anchor="middle" x="392" y="-124.5" font-family="Helvetica,sans-Serif" font-size="10.00">stdexcept</text>
</g>
<!-- Node3&#45;&gt;Node18 -->
<g id="edge36" class="edge"><title>Node3&#45;&gt;Node18</title>
<path fill="none" stroke="midnightblue" d="M441.812,-174.362C433.041,-166.023 420.651,-154.242 410.422,-144.516"/>
<polygon fill="midnightblue" stroke="midnightblue" points="412.776,-141.925 403.117,-137.571 407.953,-146.998 412.776,-141.925"/>
</g>
<!-- Node19 -->
<g id="node38" class="node"><title>Node19</title>
<polygon fill="white" stroke="#bfbfbf" points="438.5,-116.5 438.5,-137.5 467.5,-137.5 467.5,-116.5 438.5,-116.5"/>
<text text-anchor="middle" x="453" y="-124.5" font-family="Helvetica,sans-Serif" font-size="10.00">list</text>
</g>
<!-- Node3&#45;&gt;Node19 -->
<g id="edge38" class="edge"><title>Node3&#45;&gt;Node19</title>
<path fill="none" stroke="midnightblue" d="M453,-174.362C453,-166.922 453,-156.743 453,-147.728"/>
<polygon fill="midnightblue" stroke="midnightblue" points="456.5,-147.571 453,-137.571 449.5,-147.571 456.5,-147.571"/>
</g>
<!-- Node20 -->
<g id="node40" class="node"><title>Node20</title>
<polygon fill="white" stroke="#bfbfbf" points="485,-116.5 485,-137.5 535,-137.5 535,-116.5 485,-116.5"/>
<text text-anchor="middle" x="510" y="-124.5" font-family="Helvetica,sans-Serif" font-size="10.00">iomanip</text>
</g>
<!-- Node3&#45;&gt;Node20 -->
<g id="edge40" class="edge"><title>Node3&#45;&gt;Node20</title>
<path fill="none" stroke="midnightblue" d="M463.455,-174.362C471.57,-166.104 483.001,-154.472 492.504,-144.803"/>
<polygon fill="midnightblue" stroke="midnightblue" points="495.099,-147.156 499.612,-137.571 490.106,-142.25 495.099,-147.156"/>
</g>
<!-- Node5&#45;&gt;Node6 -->
<g id="edge10" class="edge"><title>Node5&#45;&gt;Node6</title>
<path fill="none" stroke="midnightblue" d="M810.025,-116.362C795.106,-107.532 773.667,-94.844 756.734,-84.8224"/>
<polygon fill="midnightblue" stroke="midnightblue" points="758.249,-81.6519 747.861,-79.5707 754.684,-87.6759 758.249,-81.6519"/>
</g>
<!-- Node7 -->
<g id="node13" class="node"><title>Node7</title>
<polygon fill="white" stroke="#bfbfbf" points="802,-58.5 802,-79.5 854,-79.5 854,-58.5 802,-58.5"/>
<text text-anchor="middle" x="828" y="-66.5" font-family="Helvetica,sans-Serif" font-size="10.00">ostream</text>
</g>
<!-- Node5&#45;&gt;Node7 -->
<g id="edge12" class="edge"><title>Node5&#45;&gt;Node7</title>
<path fill="none" stroke="midnightblue" d="M828,-116.362C828,-108.922 828,-98.7427 828,-89.7276"/>
<polygon fill="midnightblue" stroke="midnightblue" points="831.5,-89.5706 828,-79.5707 824.5,-89.5707 831.5,-89.5706"/>
</g>
<!-- Node9 -->
<g id="node17" class="node"><title>Node9</title>
<a xlink:href="string_8h.html" target="_top" xlink:title="base/std_ext/string.h">
<polygon fill="white" stroke="black" points="550,-58.5 550,-79.5 658,-79.5 658,-58.5 550,-58.5"/>
<text text-anchor="middle" x="604" y="-66.5" font-family="Helvetica,sans-Serif" font-size="10.00">base/std_ext/string.h</text>
</a>
</g>
<!-- Node8&#45;&gt;Node9 -->
<g id="edge16" class="edge"><title>Node8&#45;&gt;Node9</title>
<path fill="none" stroke="midnightblue" d="M604,-116.362C604,-108.922 604,-98.7427 604,-89.7276"/>
<polygon fill="midnightblue" stroke="midnightblue" points="607.5,-89.5706 604,-79.5707 600.5,-89.5707 607.5,-89.5706"/>
</g>
<!-- Node14 -->
<g id="node27" class="node"><title>Node14</title>
<polygon fill="white" stroke="#bfbfbf" points="486,-58.5 486,-79.5 532,-79.5 532,-58.5 486,-58.5"/>
<text text-anchor="middle" x="509" y="-66.5" font-family="Helvetica,sans-Serif" font-size="10.00">cstring</text>
</g>
<!-- Node8&#45;&gt;Node14 -->
<g id="edge26" class="edge"><title>Node8&#45;&gt;Node14</title>
<path fill="none" stroke="midnightblue" d="M586.576,-116.362C572.113,-107.532 551.331,-94.844 534.916,-84.8224"/>
<polygon fill="midnightblue" stroke="midnightblue" points="536.673,-81.7943 526.314,-79.5707 533.025,-87.7688 536.673,-81.7943"/>
</g>
<!-- Node8&#45;&gt;Node15 -->
<g id="edge28" class="edge"><title>Node8&#45;&gt;Node15</title>
<path fill="none" stroke="midnightblue" d="M552.312,-117.39C549.502,-116.91 546.718,-116.443 544,-116 434.637,-98.1705 304.206,-80.6414 245.863,-72.9959"/>
<polygon fill="midnightblue" stroke="midnightblue" points="246.198,-69.5101 235.829,-71.6855 245.292,-76.4512 246.198,-69.5101"/>
</g>
<!-- Node9&#45;&gt;Node10 -->
<g id="edge18" class="edge"><title>Node9&#45;&gt;Node10</title>
<path fill="none" stroke="midnightblue" d="M549.743,-59.2706C546.789,-58.8208 543.86,-58.3937 541,-58 378.194,-35.5887 181.936,-19.2201 107.067,-13.3609"/>
<polygon fill="midnightblue" stroke="midnightblue" points="107.161,-9.85775 96.9198,-12.5732 106.619,-16.8367 107.161,-9.85775"/>
</g>
<!-- Node11 -->
<g id="node21" class="node"><title>Node11</title>
<polygon fill="white" stroke="#bfbfbf" points="644,-0.5 644,-21.5 696,-21.5 696,-0.5 644,-0.5"/>
<text text-anchor="middle" x="670" y="-8.5" font-family="Helvetica,sans-Serif" font-size="10.00">sstream</text>
</g>
<!-- Node9&#45;&gt;Node11 -->
<g id="edge20" class="edge"><title>Node9&#45;&gt;Node11</title>
<path fill="none" stroke="midnightblue" d="M616.105,-58.3619C625.688,-49.9408 639.264,-38.0105 650.393,-28.2308"/>
<polygon fill="midnightblue" stroke="midnightblue" points="652.77,-30.8009 657.971,-21.5707 648.149,-25.5427 652.77,-30.8009"/>
</g>
<!-- Node12 -->
<g id="node23" class="node"><title>Node12</title>
<polygon fill="white" stroke="#bfbfbf" points="508,-0.5 508,-21.5 564,-21.5 564,-0.5 508,-0.5"/>
<text text-anchor="middle" x="536" y="-8.5" font-family="Helvetica,sans-Serif" font-size="10.00">algorithm</text>
</g>
<!-- Node9&#45;&gt;Node12 -->
<g id="edge22" class="edge"><title>Node9&#45;&gt;Node12</title>
<path fill="none" stroke="midnightblue" d="M591.528,-58.3619C581.655,-49.9408 567.667,-38.0105 556.202,-28.2308"/>
<polygon fill="midnightblue" stroke="midnightblue" points="558.273,-25.3972 548.393,-21.5707 553.73,-30.7231 558.273,-25.3972"/>
</g>
<!-- Node13 -->
<g id="node25" class="node"><title>Node13</title>
<polygon fill="white" stroke="#bfbfbf" points="582,-0.5 582,-21.5 626,-21.5 626,-0.5 582,-0.5"/>
<text text-anchor="middle" x="604" y="-8.5" font-family="Helvetica,sans-Serif" font-size="10.00">vector</text>
</g>
<!-- Node9&#45;&gt;Node13 -->
<g id="edge24" class="edge"><title>Node9&#45;&gt;Node13</title>
<path fill="none" stroke="midnightblue" d="M604,-58.3619C604,-50.9219 604,-40.7427 604,-31.7276"/>
<polygon fill="midnightblue" stroke="midnightblue" points="607.5,-31.5706 604,-21.5707 600.5,-31.5707 607.5,-31.5706"/>
</g>
<!-- Node21&#45;&gt;Node10 -->
<g id="edge50" class="edge"><title>Node21&#45;&gt;Node10</title>
<path fill="none" stroke="midnightblue" d="M107.924,-174.377C102.437,-146.293 87.4649,-69.6735 80.143,-32.2027"/>
<polygon fill="midnightblue" stroke="midnightblue" points="83.4882,-31.0709 78.1353,-21.9277 76.6181,-32.4133 83.4882,-31.0709"/>
</g>
</g>
</svg>
