<?xml version="1.0" encoding="UTF-8" standalone="no"?>
<!DOCTYPE svg PUBLIC "-//W3C//DTD SVG 1.1//EN"
 "http://www.w3.org/Graphics/SVG/1.1/DTD/svg11.dtd">
<!-- Generated by graphviz version 2.26.3 (20100126.1600)
 -->
<!-- Title: src/analysis/physics/common/EventFilter.cc Pages: 1 -->
<svg width="3745pt" height="638pt"
 viewBox="0.00 0.00 3744.76 638.00" xmlns="http://www.w3.org/2000/svg" xmlns:xlink="http://www.w3.org/1999/xlink">
<g id="graph1" class="graph" transform="scale(1 1) rotate(0) translate(4 634)">
<title>src/analysis/physics/common/EventFilter.cc</title>
<polygon fill="white" stroke="white" points="-4,5 -4,-634 3741.76,-634 3741.76,5 -4,5"/>
<!-- Node1 -->
<g id="node1" class="node"><title>Node1</title>
<polygon fill="#bfbfbf" stroke="black" points="2661.26,-595 2661.26,-629 2782.26,-629 2782.26,-595 2661.26,-595"/>
<text text-anchor="start" x="2669.26" y="-616" font-family="Helvetica,sans-Serif" font-size="10.00">src/analysis/physics</text>
<text text-anchor="middle" x="2721.76" y="-603" font-family="Helvetica,sans-Serif" font-size="10.00">/common/EventFilter.cc</text>
</g>
<!-- Node2 -->
<g id="node3" class="node"><title>Node2</title>
<a xlink:href="_event_filter_8h.html" target="_top" xlink:title="EventFilter.h">
<polygon fill="white" stroke="black" points="2522.76,-536.5 2522.76,-557.5 2594.76,-557.5 2594.76,-536.5 2522.76,-536.5"/>
<text text-anchor="middle" x="2558.76" y="-544.5" font-family="Helvetica,sans-Serif" font-size="10.00">EventFilter.h</text>
</a>
</g>
<!-- Node1&#45;&gt;Node2 -->
<g id="edge2" class="edge"><title>Node1&#45;&gt;Node2</title>
<path fill="none" stroke="midnightblue" d="M2678.94,-594.922C2652.79,-584.495 2619.73,-571.312 2594.91,-561.413"/>
<polygon fill="midnightblue" stroke="midnightblue" points="2596.08,-558.111 2585.49,-557.658 2593.48,-564.614 2596.08,-558.111"/>
</g>
<!-- Node26 -->
<g id="node60" class="node"><title>Node26</title>
<a xlink:href="string_8h.html" target="_top" xlink:title="base/std_ext/string.h">
<polygon fill="white" stroke="black" points="2140.76,-116.5 2140.76,-137.5 2248.76,-137.5 2248.76,-116.5 2140.76,-116.5"/>
<text text-anchor="middle" x="2194.76" y="-124.5" font-family="Helvetica,sans-Serif" font-size="10.00">base/std_ext/string.h</text>
</a>
</g>
<!-- Node1&#45;&gt;Node26 -->
<g id="edge362" class="edge"><title>Node1&#45;&gt;Node26</title>
<path fill="none" stroke="midnightblue" d="M2661,-607.422C2568.13,-596.678 2394.45,-560.876 2325.76,-442 2266.15,-338.819 2386.79,-271.136 2317.76,-174 2308.93,-161.569 2275.9,-149.33 2246.29,-140.458"/>
<polygon fill="midnightblue" stroke="midnightblue" points="2247,-137.02 2236.42,-137.584 2245.04,-143.74 2247,-137.02"/>
</g>
<!-- Node66 -->
<g id="node237" class="node"><title>Node66</title>
<polygon fill="white" stroke="#bfbfbf" points="3686.26,-420.5 3686.26,-441.5 3737.26,-441.5 3737.26,-420.5 3686.26,-420.5"/>
<text text-anchor="middle" x="3711.76" y="-428.5" font-family="Helvetica,sans-Serif" font-size="10.00">TH1D.h</text>
</g>
<!-- Node1&#45;&gt;Node66 -->
<g id="edge360" class="edge"><title>Node1&#45;&gt;Node66</title>
<path fill="none" stroke="midnightblue" d="M2782.54,-603.252C2933.9,-581.009 3339.51,-518.589 3672.76,-442 3674,-441.716 3675.25,-441.418 3676.52,-441.109"/>
<polygon fill="midnightblue" stroke="midnightblue" points="3677.46,-444.479 3686.26,-438.579 3675.7,-437.704 3677.46,-444.479"/>
</g>
<!-- Node69 -->
<g id="node251" class="node"><title>Node69</title>
<a xlink:href="_logger_8h.html" target="_top" xlink:title="base/Logger.h">
<polygon fill="white" stroke="black" points="2758.76,-536.5 2758.76,-557.5 2836.76,-557.5 2836.76,-536.5 2758.76,-536.5"/>
<text text-anchor="middle" x="2797.76" y="-544.5" font-family="Helvetica,sans-Serif" font-size="10.00">base/Logger.h</text>
</a>
</g>
<!-- Node1&#45;&gt;Node69 -->
<g id="edge364" class="edge"><title>Node1&#45;&gt;Node69</title>
<path fill="none" stroke="midnightblue" d="M2741.73,-594.922C2752.67,-585.57 2766.19,-574.001 2777.22,-564.572"/>
<polygon fill="midnightblue" stroke="midnightblue" points="2779.75,-567.012 2785.08,-557.852 2775.2,-561.692 2779.75,-567.012"/>
</g>
<!-- Node71 -->
<g id="node255" class="node"><title>Node71</title>
<a xlink:href="_proton_permutation_8h.html" target="_top" xlink:title="utils/ProtonPermutation.h">
<polygon fill="white" stroke="black" points="2725.26,-420.5 2725.26,-441.5 2852.26,-441.5 2852.26,-420.5 2725.26,-420.5"/>
<text text-anchor="middle" x="2788.76" y="-428.5" font-family="Helvetica,sans-Serif" font-size="10.00">utils/ProtonPermutation.h</text>
</a>
</g>
<!-- Node1&#45;&gt;Node71 -->
<g id="edge368" class="edge"><title>Node1&#45;&gt;Node71</title>
<path fill="none" stroke="midnightblue" d="M2720.78,-594.885C2719.98,-568.356 2721.35,-516.368 2740.76,-478 2746.63,-466.409 2756.48,-456.008 2765.73,-447.955"/>
<polygon fill="midnightblue" stroke="midnightblue" points="2768.08,-450.556 2773.59,-441.512 2763.64,-445.141 2768.08,-450.556"/>
</g>
<!-- Node3 -->
<g id="node5" class="node"><title>Node3</title>
<a xlink:href="_physics_8h.html" target="_top" xlink:title="analysis/physics/Physics.h">
<polygon fill="white" stroke="black" points="2490.76,-478.5 2490.76,-499.5 2626.76,-499.5 2626.76,-478.5 2490.76,-478.5"/>
<text text-anchor="middle" x="2558.76" y="-486.5" font-family="Helvetica,sans-Serif" font-size="10.00">analysis/physics/Physics.h</text>
</a>
</g>
<!-- Node2&#45;&gt;Node3 -->
<g id="edge4" class="edge"><title>Node2&#45;&gt;Node3</title>
<path fill="none" stroke="midnightblue" d="M2558.76,-536.362C2558.76,-528.922 2558.76,-518.743 2558.76,-509.728"/>
<polygon fill="midnightblue" stroke="midnightblue" points="2562.26,-509.571 2558.76,-499.571 2555.26,-509.571 2562.26,-509.571"/>
</g>
<!-- Node6 -->
<g id="node11" class="node"><title>Node6</title>
<a xlink:href="interval_8h.html" target="_top" xlink:title="base/interval.h">
<polygon fill="white" stroke="black" points="2042.76,-116.5 2042.76,-137.5 2122.76,-137.5 2122.76,-116.5 2042.76,-116.5"/>
<text text-anchor="middle" x="2082.76" y="-124.5" font-family="Helvetica,sans-Serif" font-size="10.00">base/interval.h</text>
</a>
</g>
<!-- Node2&#45;&gt;Node6 -->
<g id="edge358" class="edge"><title>Node2&#45;&gt;Node6</title>
<path fill="none" stroke="midnightblue" d="M2522.67,-537.464C2473.8,-523.153 2385.78,-492.302 2325.76,-442 2215.22,-349.356 2241.36,-279.266 2142.76,-174 2132.17,-162.687 2118.71,-151.887 2107.22,-143.498"/>
<polygon fill="midnightblue" stroke="midnightblue" points="2109.08,-140.526 2098.9,-137.585 2105.02,-146.232 2109.08,-140.526"/>
</g>
<!-- Node4 -->
<g id="node7" class="node"><title>Node4</title>
<a xlink:href="manager__t_8h.html" target="_top" xlink:title="analysis/physics/manager_t.h">
<polygon fill="white" stroke="black" points="2485.76,-420.5 2485.76,-441.5 2631.76,-441.5 2631.76,-420.5 2485.76,-420.5"/>
<text text-anchor="middle" x="2558.76" y="-428.5" font-family="Helvetica,sans-Serif" font-size="10.00">analysis/physics/manager_t.h</text>
</a>
</g>
<!-- Node3&#45;&gt;Node4 -->
<g id="edge6" class="edge"><title>Node3&#45;&gt;Node4</title>
<path fill="none" stroke="midnightblue" d="M2558.76,-478.362C2558.76,-470.922 2558.76,-460.743 2558.76,-451.728"/>
<polygon fill="midnightblue" stroke="midnightblue" points="2562.26,-451.571 2558.76,-441.571 2555.26,-451.571 2562.26,-451.571"/>
</g>
<!-- Node5 -->
<g id="node9" class="node"><title>Node5</title>
<a xlink:href="_histogram_factories_8h.html" target="_top" xlink:title="analysis/plot/HistogramFactories.h">
<polygon fill="white" stroke="black" points="2387.76,-246.5 2387.76,-267.5 2555.76,-267.5 2555.76,-246.5 2387.76,-246.5"/>
<text text-anchor="middle" x="2471.76" y="-254.5" font-family="Helvetica,sans-Serif" font-size="10.00">analysis/plot/HistogramFactories.h</text>
</a>
</g>
<!-- Node3&#45;&gt;Node5 -->
<g id="edge8" class="edge"><title>Node3&#45;&gt;Node5</title>
<path fill="none" stroke="midnightblue" d="M2490.61,-483.519C2433.85,-477.372 2359.4,-465.083 2340.76,-442 2292.37,-382.061 2394.58,-305.621 2445.37,-272.959"/>
<polygon fill="midnightblue" stroke="midnightblue" points="2447.33,-275.86 2453.92,-267.563 2443.59,-269.941 2447.33,-275.86"/>
</g>
<!-- Node17 -->
<g id="node35" class="node"><title>Node17</title>
<polygon fill="white" stroke="#bfbfbf" points="3108.26,-58.5 3108.26,-79.5 3149.26,-79.5 3149.26,-58.5 3108.26,-58.5"/>
<text text-anchor="middle" x="3128.76" y="-66.5" font-family="Helvetica,sans-Serif" font-size="10.00">string</text>
</g>
<!-- Node3&#45;&gt;Node17 -->
<g id="edge350" class="edge"><title>Node3&#45;&gt;Node17</title>
<path fill="none" stroke="midnightblue" d="M2626.86,-484.641C2786.77,-474.352 3177.36,-448.901 3236.76,-442 3425.54,-420.072 3658.76,-563.046 3658.76,-373 3658.76,-373 3658.76,-373 3658.76,-192 3658.76,-88.8254 3272.83,-72.1696 3159.62,-69.5033"/>
<polygon fill="midnightblue" stroke="midnightblue" points="3159.61,-66.0024 3149.54,-69.2865 3159.46,-73.0008 3159.61,-66.0024"/>
</g>
<!-- Node18 -->
<g id="node38" class="node"><title>Node18</title>
<a xlink:href="memory_8h.html" target="_top" xlink:title="base/std_ext/memory.h">
<polygon fill="white" stroke="black" points="2792.26,-181.5 2792.26,-202.5 2911.26,-202.5 2911.26,-181.5 2792.26,-181.5"/>
<text text-anchor="middle" x="2851.76" y="-189.5" font-family="Helvetica,sans-Serif" font-size="10.00">base/std_ext/memory.h</text>
</a>
</g>
<!-- Node3&#45;&gt;Node18 -->
<g id="edge40" class="edge"><title>Node3&#45;&gt;Node18</title>
<path fill="none" stroke="midnightblue" d="M2608.88,-478.495C2631.32,-471.508 2656.55,-460.156 2673.76,-442 2696.1,-418.438 2697.76,-405.469 2697.76,-373 2697.76,-373 2697.76,-373 2697.76,-315 2697.76,-258.457 2761.93,-223.661 2807.42,-206.096"/>
<polygon fill="midnightblue" stroke="midnightblue" points="2808.66,-209.37 2816.82,-202.608 2806.23,-202.808 2808.66,-209.37"/>
</g>
<!-- Node19 -->
<g id="node40" class="node"><title>Node19</title>
<polygon fill="white" stroke="#bfbfbf" points="2456.76,-116.5 2456.76,-137.5 2508.76,-137.5 2508.76,-116.5 2456.76,-116.5"/>
<text text-anchor="middle" x="2482.76" y="-124.5" font-family="Helvetica,sans-Serif" font-size="10.00">memory</text>
</g>
<!-- Node3&#45;&gt;Node19 -->
<g id="edge354" class="edge"><title>Node3&#45;&gt;Node19</title>
<path fill="none" stroke="midnightblue" d="M2593.55,-478.441C2611.01,-471.182 2630.56,-459.605 2640.76,-442 2645.67,-433.54 2642.76,-429.571 2640.76,-420 2623.51,-337.394 2623.96,-306.14 2564.76,-246 2537.7,-218.502 2507.22,-242.069 2485.76,-210 2473.55,-191.739 2474.81,-165.811 2477.84,-147.813"/>
<polygon fill="midnightblue" stroke="midnightblue" points="2481.31,-148.262 2479.84,-137.771 2474.45,-146.891 2481.31,-148.262"/>
</g>
<!-- Node20 -->
<g id="node42" class="node"><title>Node20</title>
<polygon fill="white" stroke="#bfbfbf" points="2830.26,-116.5 2830.26,-137.5 2859.26,-137.5 2859.26,-116.5 2830.26,-116.5"/>
<text text-anchor="middle" x="2844.76" y="-124.5" font-family="Helvetica,sans-Serif" font-size="10.00">list</text>
</g>
<!-- Node3&#45;&gt;Node20 -->
<g id="edge348" class="edge"><title>Node3&#45;&gt;Node20</title>
<path fill="none" stroke="midnightblue" d="M2627,-480.367C2764.69,-462.019 3062.76,-417.192 3062.76,-373 3062.76,-373 3062.76,-373 3062.76,-257 3062.76,-219.157 3070.43,-200.851 3043.76,-174 3019.45,-149.522 2917.35,-135.121 2869.59,-129.605"/>
<polygon fill="midnightblue" stroke="midnightblue" points="2869.81,-126.108 2859.48,-128.477 2869.03,-133.064 2869.81,-126.108"/>
</g>
<!-- Node21 -->
<g id="node44" class="node"><title>Node21</title>
<a xlink:href="_t_event_8h.html" target="_top" xlink:title="tree/TEvent.h">
<polygon fill="white" stroke="black" points="160.765,-181.5 160.765,-202.5 236.765,-202.5 236.765,-181.5 160.765,-181.5"/>
<text text-anchor="middle" x="198.765" y="-189.5" font-family="Helvetica,sans-Serif" font-size="10.00">tree/TEvent.h</text>
</a>
</g>
<!-- Node3&#45;&gt;Node21 -->
<g id="edge46" class="edge"><title>Node3&#45;&gt;Node21</title>
<path fill="none" stroke="midnightblue" d="M2490.57,-487.45C2105.15,-478.47 216.765,-431.488 216.765,-373 216.765,-373 216.765,-373 216.765,-315 216.765,-278.692 208.991,-236.985 203.661,-212.656"/>
<polygon fill="midnightblue" stroke="midnightblue" points="207.047,-211.759 201.421,-202.782 200.22,-213.308 207.047,-211.759"/>
</g>
<!-- Node23 -->
<g id="node51" class="node"><title>Node23</title>
<a xlink:href="_t_event_data_8h.html" target="_top" xlink:title="tree/TEventData.h">
<polygon fill="white" stroke="black" points="1611.26,-420.5 1611.26,-441.5 1708.26,-441.5 1708.26,-420.5 1611.26,-420.5"/>
<text text-anchor="middle" x="1659.76" y="-428.5" font-family="Helvetica,sans-Serif" font-size="10.00">tree/TEventData.h</text>
</a>
</g>
<!-- Node3&#45;&gt;Node23 -->
<g id="edge56" class="edge"><title>Node3&#45;&gt;Node23</title>
<path fill="none" stroke="midnightblue" d="M2490.46,-484.593C2320.05,-473.599 1878.43,-445.107 1718.6,-434.796"/>
<polygon fill="midnightblue" stroke="midnightblue" points="1718.69,-431.294 1708.48,-434.143 1718.24,-438.28 1718.69,-431.294"/>
</g>
<!-- Node54 -->
<g id="node172" class="node"><title>Node54</title>
<polygon fill="white" stroke="#bfbfbf" points="3204.26,-116.5 3204.26,-137.5 3263.26,-137.5 3263.26,-116.5 3204.26,-116.5"/>
<text text-anchor="middle" x="3233.76" y="-124.5" font-family="Helvetica,sans-Serif" font-size="10.00">functional</text>
</g>
<!-- Node3&#45;&gt;Node54 -->
<g id="edge356" class="edge"><title>Node3&#45;&gt;Node54</title>
<path fill="none" stroke="midnightblue" d="M2626.95,-484.255C2767.21,-474.366 3078.91,-451.667 3126.76,-442 3223.48,-422.466 3337.76,-471.665 3337.76,-373 3337.76,-373 3337.76,-373 3337.76,-257 3337.76,-217.136 3328.96,-204.893 3303.76,-174 3293.32,-161.189 3278.46,-150.534 3265.13,-142.626"/>
<polygon fill="midnightblue" stroke="midnightblue" points="3266.64,-139.46 3256.21,-137.597 3263.2,-145.557 3266.64,-139.46"/>
</g>
<!-- Node58 -->
<g id="node201" class="node"><title>Node58</title>
<polygon fill="white" stroke="#bfbfbf" points="1838.26,-116.5 1838.26,-137.5 1873.26,-137.5 1873.26,-116.5 1838.26,-116.5"/>
<text text-anchor="middle" x="1855.76" y="-124.5" font-family="Helvetica,sans-Serif" font-size="10.00">map</text>
</g>
<!-- Node3&#45;&gt;Node58 -->
<g id="edge352" class="edge"><title>Node3&#45;&gt;Node58</title>
<path fill="none" stroke="midnightblue" d="M2490.99,-478.463C2444.1,-470.413 2380.53,-457.986 2325.76,-442 2222.84,-411.958 1942.46,-351.946 1875.76,-268 1848.08,-233.154 1849.44,-177.6 1852.69,-147.687"/>
<polygon fill="midnightblue" stroke="midnightblue" points="1856.18,-147.936 1853.97,-137.575 1849.24,-147.056 1856.18,-147.936"/>
</g>
<!-- Node63 -->
<g id="node221" class="node"><title>Node63</title>
<a xlink:href="_options_list_8h.html" target="_top" xlink:title="base/OptionsList.h">
<polygon fill="white" stroke="black" points="1714.76,-181.5 1714.76,-202.5 1812.76,-202.5 1812.76,-181.5 1714.76,-181.5"/>
<text text-anchor="middle" x="1763.76" y="-189.5" font-family="Helvetica,sans-Serif" font-size="10.00">base/OptionsList.h</text>
</a>
</g>
<!-- Node3&#45;&gt;Node63 -->
<g id="edge316" class="edge"><title>Node3&#45;&gt;Node63</title>
<path fill="none" stroke="midnightblue" d="M2490.53,-481.747C2431.46,-474.56 2344.07,-461.739 2269.76,-442 2056.5,-385.349 1971.09,-413.014 1804.76,-268 1787.64,-253.069 1776.42,-229.182 1770.12,-212.175"/>
<polygon fill="midnightblue" stroke="midnightblue" points="1773.39,-210.928 1766.82,-202.617 1766.77,-213.212 1773.39,-210.928"/>
</g>
<!-- Node65 -->
<g id="node229" class="node"><title>Node65</title>
<a xlink:href="root__draw_8h.html" target="_top" xlink:title="analysis/plot/root\l_draw.h">
<polygon fill="white" stroke="black" points="3204.26,-175 3204.26,-209 3295.26,-209 3295.26,-175 3204.26,-175"/>
<text text-anchor="start" x="3212.26" y="-196" font-family="Helvetica,sans-Serif" font-size="10.00">analysis/plot/root</text>
<text text-anchor="middle" x="3249.76" y="-183" font-family="Helvetica,sans-Serif" font-size="10.00">_draw.h</text>
</a>
</g>
<!-- Node3&#45;&gt;Node65 -->
<g id="edge328" class="edge"><title>Node3&#45;&gt;Node65</title>
<path fill="none" stroke="midnightblue" d="M2626.91,-484.688C2757.85,-476.129 3035.34,-456.566 3076.76,-442 3129.09,-423.599 3180.76,-428.47 3180.76,-373 3180.76,-373 3180.76,-373 3180.76,-315 3180.76,-277.109 3205.98,-240.081 3225.92,-216.719"/>
<polygon fill="midnightblue" stroke="midnightblue" points="3228.71,-218.856 3232.71,-209.047 3223.46,-214.219 3228.71,-218.856"/>
</g>
<!-- Node3&#45;&gt;Node66 -->
<g id="edge342" class="edge"><title>Node3&#45;&gt;Node66</title>
<path fill="none" stroke="midnightblue" d="M2627.02,-484.522C2661.17,-482.371 2703.14,-479.863 2740.76,-478 3154.79,-457.495 3263.32,-506.716 3672.76,-442 3673.84,-441.83 3674.93,-441.64 3676.03,-441.433"/>
<polygon fill="midnightblue" stroke="midnightblue" points="3676.95,-444.813 3685.94,-439.204 3675.42,-437.983 3676.95,-444.813"/>
</g>
<!-- Node67 -->
<g id="node239" class="node"><title>Node67</title>
<polygon fill="white" stroke="#bfbfbf" points="2349.26,-420.5 2349.26,-441.5 2400.26,-441.5 2400.26,-420.5 2349.26,-420.5"/>
<text text-anchor="middle" x="2374.76" y="-428.5" font-family="Helvetica,sans-Serif" font-size="10.00">TH2D.h</text>
</g>
<!-- Node3&#45;&gt;Node67 -->
<g id="edge344" class="edge"><title>Node3&#45;&gt;Node67</title>
<path fill="none" stroke="midnightblue" d="M2524.78,-478.45C2496.38,-469.611 2454.57,-456.548 2409.94,-442.358"/>
<polygon fill="midnightblue" stroke="midnightblue" points="2410.97,-439.013 2400.38,-439.314 2408.84,-445.683 2410.97,-439.013"/>
</g>
<!-- Node68 -->
<g id="node241" class="node"><title>Node68</title>
<polygon fill="white" stroke="#bfbfbf" points="2417.26,-420.5 2417.26,-441.5 2468.26,-441.5 2468.26,-420.5 2417.26,-420.5"/>
<text text-anchor="middle" x="2442.76" y="-428.5" font-family="Helvetica,sans-Serif" font-size="10.00">TH3D.h</text>
</g>
<!-- Node3&#45;&gt;Node68 -->
<g id="edge346" class="edge"><title>Node3&#45;&gt;Node68</title>
<path fill="none" stroke="midnightblue" d="M2537.76,-478.497C2519.72,-469.479 2493.49,-456.365 2473.17,-446.201"/>
<polygon fill="midnightblue" stroke="midnightblue" points="2474.52,-442.963 2464.01,-441.621 2471.39,-449.224 2474.52,-442.963"/>
</g>
<!-- Node5&#45;&gt;Node6 -->
<g id="edge10" class="edge"><title>Node5&#45;&gt;Node6</title>
<path fill="none" stroke="midnightblue" d="M2455.89,-246.321C2428.77,-228.577 2371.26,-193.088 2317.76,-174 2241.4,-146.752 2216.06,-154.569 2132.75,-138.115"/>
<polygon fill="midnightblue" stroke="midnightblue" points="2133.35,-134.666 2122.85,-136.101 2131.96,-141.525 2133.35,-134.666"/>
</g>
<!-- Node15 -->
<g id="node29" class="node"><title>Node15</title>
<a xlink:href="_bin_settings_8h.html" target="_top" xlink:title="base/BinSettings.h">
<polygon fill="white" stroke="black" points="2210.26,-181.5 2210.26,-202.5 2309.26,-202.5 2309.26,-181.5 2210.26,-181.5"/>
<text text-anchor="middle" x="2259.76" y="-189.5" font-family="Helvetica,sans-Serif" font-size="10.00">base/BinSettings.h</text>
</a>
</g>
<!-- Node5&#45;&gt;Node15 -->
<g id="edge28" class="edge"><title>Node5&#45;&gt;Node15</title>
<path fill="none" stroke="midnightblue" d="M2437.23,-246.412C2400.89,-235.269 2343.57,-217.694 2303.95,-205.547"/>
<polygon fill="midnightblue" stroke="midnightblue" points="2304.87,-202.169 2294.28,-202.584 2302.82,-208.861 2304.87,-202.169"/>
</g>
<!-- Node16 -->
<g id="node32" class="node"><title>Node16</title>
<polygon fill="white" stroke="#bfbfbf" points="2742.76,-58.5 2742.76,-79.5 2786.76,-79.5 2786.76,-58.5 2742.76,-58.5"/>
<text text-anchor="middle" x="2764.76" y="-66.5" font-family="Helvetica,sans-Serif" font-size="10.00">vector</text>
</g>
<!-- Node5&#45;&gt;Node16 -->
<g id="edge38" class="edge"><title>Node5&#45;&gt;Node16</title>
<path fill="none" stroke="midnightblue" d="M2555.99,-254.519C2705.2,-249.476 3004.06,-236.216 3043.76,-210 3081.37,-185.17 3111.57,-149.795 3081.76,-116 3041.3,-70.1176 2874.1,-92.5366 2797.18,-79.5886"/>
<polygon fill="midnightblue" stroke="midnightblue" points="2797.44,-76.0709 2786.94,-77.5161 2796.05,-82.9316 2797.44,-76.0709"/>
</g>
<!-- Node5&#45;&gt;Node17 -->
<g id="edge36" class="edge"><title>Node5&#45;&gt;Node17</title>
<path fill="none" stroke="midnightblue" d="M2555.82,-255.74C2791.35,-251.858 3442.93,-238.578 3478.76,-210 3512.16,-183.367 3527,-148.049 3498.76,-116 3476.42,-90.6358 3244.34,-75.3786 3159.56,-70.6163"/>
<polygon fill="midnightblue" stroke="midnightblue" points="3159.69,-67.1185 3149.52,-70.0628 3159.31,-74.1079 3159.69,-67.1185"/>
</g>
<!-- Node7 -->
<g id="node13" class="node"><title>Node7</title>
<a xlink:href="printable_8h.html" target="_top" xlink:title="printable.h">
<polygon fill="white" stroke="black" points="568.765,-58.5 568.765,-79.5 630.765,-79.5 630.765,-58.5 568.765,-58.5"/>
<text text-anchor="middle" x="599.765" y="-66.5" font-family="Helvetica,sans-Serif" font-size="10.00">printable.h</text>
</a>
</g>
<!-- Node6&#45;&gt;Node7 -->
<g id="edge12" class="edge"><title>Node6&#45;&gt;Node7</title>
<path fill="none" stroke="midnightblue" d="M2042.73,-124.596C2002.17,-122.211 1937.62,-118.552 1881.76,-116 1394.04,-93.716 801.566,-75.1328 641.36,-70.2522"/>
<polygon fill="midnightblue" stroke="midnightblue" points="641.11,-66.7431 631.008,-69.9376 640.898,-73.7398 641.11,-66.7431"/>
</g>
<!-- Node10 -->
<g id="node19" class="node"><title>Node10</title>
<a xlink:href="types_8h.html" target="_top" xlink:title="types.h">
<polygon fill="white" stroke="black" points="2804.26,-58.5 2804.26,-79.5 2853.26,-79.5 2853.26,-58.5 2804.26,-58.5"/>
<text text-anchor="middle" x="2828.76" y="-66.5" font-family="Helvetica,sans-Serif" font-size="10.00">types.h</text>
</a>
</g>
<!-- Node6&#45;&gt;Node10 -->
<g id="edge18" class="edge"><title>Node6&#45;&gt;Node10</title>
<path fill="none" stroke="midnightblue" d="M2122.78,-117.447C2125.81,-116.899 2128.83,-116.406 2131.76,-116 2421.23,-75.9466 2503.58,-133.894 2794.11,-79.8978"/>
<polygon fill="midnightblue" stroke="midnightblue" points="2794.91,-83.3081 2804.09,-78.0143 2793.61,-76.4295 2794.91,-83.3081"/>
</g>
<!-- Node11 -->
<g id="node21" class="node"><title>Node11</title>
<polygon fill="white" stroke="#bfbfbf" points="2145.76,-58.5 2145.76,-79.5 2201.76,-79.5 2201.76,-58.5 2145.76,-58.5"/>
<text text-anchor="middle" x="2173.76" y="-66.5" font-family="Helvetica,sans-Serif" font-size="10.00">algorithm</text>
</g>
<!-- Node6&#45;&gt;Node11 -->
<g id="edge20" class="edge"><title>Node6&#45;&gt;Node11</title>
<path fill="none" stroke="midnightblue" d="M2099.46,-116.362C2113.18,-107.614 2132.85,-95.0786 2148.5,-85.1015"/>
<polygon fill="midnightblue" stroke="midnightblue" points="2150.63,-87.8969 2157.18,-79.5707 2146.87,-81.994 2150.63,-87.8969"/>
</g>
<!-- Node12 -->
<g id="node23" class="node"><title>Node12</title>
<polygon fill="white" stroke="#bfbfbf" points="1396.26,-58.5 1396.26,-79.5 1455.26,-79.5 1455.26,-58.5 1396.26,-58.5"/>
<text text-anchor="middle" x="1425.76" y="-66.5" font-family="Helvetica,sans-Serif" font-size="10.00">stdexcept</text>
</g>
<!-- Node6&#45;&gt;Node12 -->
<g id="edge22" class="edge"><title>Node6&#45;&gt;Node12</title>
<path fill="none" stroke="midnightblue" d="M2042.66,-123.459C1925.15,-113.086 1582.62,-82.8471 1465.54,-72.5114"/>
<polygon fill="midnightblue" stroke="midnightblue" points="1465.84,-69.024 1455.57,-71.631 1465.22,-75.9969 1465.84,-69.024"/>
</g>
<!-- Node13 -->
<g id="node25" class="node"><title>Node13</title>
<polygon fill="white" stroke="#bfbfbf" points="1862.76,-58.5 1862.76,-79.5 1902.76,-79.5 1902.76,-58.5 1862.76,-58.5"/>
<text text-anchor="middle" x="1882.76" y="-66.5" font-family="Helvetica,sans-Serif" font-size="10.00">limits</text>
</g>
<!-- Node6&#45;&gt;Node13 -->
<g id="edge24" class="edge"><title>Node6&#45;&gt;Node13</title>
<path fill="none" stroke="midnightblue" d="M2046.55,-116.497C2008.23,-105.384 1948.47,-88.0538 1912.71,-77.685"/>
<polygon fill="midnightblue" stroke="midnightblue" points="1913.45,-74.2544 1902.87,-74.8306 1911.5,-80.9774 1913.45,-74.2544"/>
</g>
<!-- Node14 -->
<g id="node27" class="node"><title>Node14</title>
<polygon fill="white" stroke="#bfbfbf" points="2058.26,-58.5 2058.26,-79.5 2107.26,-79.5 2107.26,-58.5 2058.26,-58.5"/>
<text text-anchor="middle" x="2082.76" y="-66.5" font-family="Helvetica,sans-Serif" font-size="10.00">istream</text>
</g>
<!-- Node6&#45;&gt;Node14 -->
<g id="edge26" class="edge"><title>Node6&#45;&gt;Node14</title>
<path fill="none" stroke="midnightblue" d="M2082.76,-116.362C2082.76,-108.922 2082.76,-98.7427 2082.76,-89.7276"/>
<polygon fill="midnightblue" stroke="midnightblue" points="2086.26,-89.5706 2082.76,-79.5707 2079.26,-89.5707 2086.26,-89.5706"/>
</g>
<!-- Node8 -->
<g id="node15" class="node"><title>Node8</title>
<polygon fill="white" stroke="#bfbfbf" points="568.765,-0.5 568.765,-21.5 630.765,-21.5 630.765,-0.5 568.765,-0.5"/>
<text text-anchor="middle" x="599.765" y="-8.5" font-family="Helvetica,sans-Serif" font-size="10.00">type_traits</text>
</g>
<!-- Node7&#45;&gt;Node8 -->
<g id="edge14" class="edge"><title>Node7&#45;&gt;Node8</title>
<path fill="none" stroke="midnightblue" d="M599.765,-58.3619C599.765,-50.9219 599.765,-40.7427 599.765,-31.7276"/>
<polygon fill="midnightblue" stroke="midnightblue" points="603.265,-31.5706 599.765,-21.5707 596.265,-31.5707 603.265,-31.5706"/>
</g>
<!-- Node9 -->
<g id="node17" class="node"><title>Node9</title>
<polygon fill="white" stroke="#bfbfbf" points="953.765,-0.5 953.765,-21.5 1005.76,-21.5 1005.76,-0.5 953.765,-0.5"/>
<text text-anchor="middle" x="979.765" y="-8.5" font-family="Helvetica,sans-Serif" font-size="10.00">ostream</text>
</g>
<!-- Node7&#45;&gt;Node9 -->
<g id="edge16" class="edge"><title>Node7&#45;&gt;Node9</title>
<path fill="none" stroke="midnightblue" d="M631.148,-60.9028C635.7,-59.8524 640.341,-58.8487 644.765,-58 752.72,-37.2866 881.894,-21.7374 943.55,-14.8736"/>
<polygon fill="midnightblue" stroke="midnightblue" points="943.999,-18.3453 953.555,-13.7702 943.232,-11.3875 943.999,-18.3453"/>
</g>
<!-- Node15&#45;&gt;Node6 -->
<g id="edge30" class="edge"><title>Node15&#45;&gt;Node6</title>
<path fill="none" stroke="midnightblue" d="M2230.93,-181.412C2201.1,-170.458 2154.35,-153.288 2121.35,-141.17"/>
<polygon fill="midnightblue" stroke="midnightblue" points="2122.18,-137.745 2111.58,-137.584 2119.76,-144.316 2122.18,-137.745"/>
</g>
<!-- Node15&#45;&gt;Node12 -->
<g id="edge34" class="edge"><title>Node15&#45;&gt;Node12</title>
<path fill="none" stroke="midnightblue" d="M2210.14,-187.49C2167.6,-183.686 2104.67,-178.204 2049.76,-174 1931.18,-164.921 1627.05,-179.976 1515.76,-138 1486.79,-127.072 1459.45,-103.531 1442.67,-86.9976"/>
<polygon fill="midnightblue" stroke="midnightblue" points="1444.83,-84.2018 1435.32,-79.5302 1439.84,-89.1122 1444.83,-84.2018"/>
</g>
<!-- Node15&#45;&gt;Node16 -->
<g id="edge32" class="edge"><title>Node15&#45;&gt;Node16</title>
<path fill="none" stroke="midnightblue" d="M2281.18,-181.383C2315.48,-164.829 2385.26,-133.008 2447.76,-116 2549.6,-88.2891 2674.57,-75.8391 2732.48,-71.2488"/>
<polygon fill="midnightblue" stroke="midnightblue" points="2732.79,-74.7355 2742.49,-70.4812 2732.25,-67.756 2732.79,-74.7355"/>
</g>
<!-- Node18&#45;&gt;Node19 -->
<g id="edge42" class="edge"><title>Node18&#45;&gt;Node19</title>
<path fill="none" stroke="midnightblue" d="M2792.07,-181.484C2714.78,-167.87 2582.49,-144.567 2518.93,-133.371"/>
<polygon fill="midnightblue" stroke="midnightblue" points="2519.43,-129.906 2508.98,-131.618 2518.22,-136.799 2519.43,-129.906"/>
</g>
<!-- Node18&#45;&gt;Node20 -->
<g id="edge44" class="edge"><title>Node18&#45;&gt;Node20</title>
<path fill="none" stroke="midnightblue" d="M2850.61,-181.267C2849.63,-172.18 2848.2,-158.892 2847,-147.74"/>
<polygon fill="midnightblue" stroke="midnightblue" points="2850.45,-147.101 2845.9,-137.534 2843.49,-147.851 2850.45,-147.101"/>
</g>
<!-- Node21&#45;&gt;Node7 -->
<g id="edge50" class="edge"><title>Node21&#45;&gt;Node7</title>
<path fill="none" stroke="midnightblue" d="M196.079,-181.492C192.582,-165.088 188.758,-133.47 205.765,-116 230.08,-91.0217 462.259,-76.16 558.396,-71.0326"/>
<polygon fill="midnightblue" stroke="midnightblue" points="558.813,-74.5157 568.616,-70.497 558.446,-67.5253 558.813,-74.5157"/>
</g>
<!-- Node21&#45;&gt;Node12 -->
<g id="edge54" class="edge"><title>Node21&#45;&gt;Node12</title>
<path fill="none" stroke="midnightblue" d="M214.854,-181.381C242.361,-163.893 300.798,-129.617 355.765,-116 575.35,-61.6003 1144.73,-114.633 1385.87,-79.9046"/>
<polygon fill="midnightblue" stroke="midnightblue" points="1386.69,-83.3191 1396.05,-78.3532 1385.64,-76.399 1386.69,-83.3191"/>
</g>
<!-- Node21&#45;&gt;Node19 -->
<g id="edge52" class="edge"><title>Node21&#45;&gt;Node19</title>
<path fill="none" stroke="midnightblue" d="M236.856,-187.746C276.867,-183.468 341.652,-177.077 397.765,-174 1223.35,-128.73 1431.42,-166.19 2257.76,-138 2324.35,-135.729 2401.94,-131.61 2446.41,-129.108"/>
<polygon fill="midnightblue" stroke="midnightblue" points="2446.66,-132.599 2456.45,-128.539 2446.27,-125.61 2446.66,-132.599"/>
</g>
<!-- Node22 -->
<g id="node46" class="node"><title>Node22</title>
<polygon fill="white" stroke="#bfbfbf" points="214.765,-116.5 214.765,-137.5 270.765,-137.5 270.765,-116.5 214.765,-116.5"/>
<text text-anchor="middle" x="242.765" y="-124.5" font-family="Helvetica,sans-Serif" font-size="10.00">Rtypes.h</text>
</g>
<!-- Node21&#45;&gt;Node22 -->
<g id="edge48" class="edge"><title>Node21&#45;&gt;Node22</title>
<path fill="none" stroke="midnightblue" d="M206.03,-181.267C212.502,-171.707 222.121,-157.496 229.893,-146.015"/>
<polygon fill="midnightblue" stroke="midnightblue" points="232.927,-147.777 235.634,-137.534 227.13,-143.853 232.927,-147.777"/>
</g>
<!-- Node23&#45;&gt;Node7 -->
<g id="edge58" class="edge"><title>Node23&#45;&gt;Node7</title>
<path fill="none" stroke="midnightblue" d="M1611.15,-428.57C1395.6,-417.479 536.765,-369.85 536.765,-315 536.765,-315 536.765,-315 536.765,-257 536.765,-225.49 506.265,-143.435 521.765,-116 529.994,-101.434 544.747,-90.8788 559.225,-83.508"/>
<polygon fill="midnightblue" stroke="midnightblue" points="561.051,-86.5185 568.628,-79.114 558.087,-80.1768 561.051,-86.5185"/>
</g>
<!-- Node24 -->
<g id="node54" class="node"><title>Node24</title>
<a xlink:href="_t_i_d_8h.html" target="_top" xlink:title="TID.h">
<polygon fill="white" stroke="black" points="320.265,-246.5 320.265,-267.5 361.265,-267.5 361.265,-246.5 320.265,-246.5"/>
<text text-anchor="middle" x="340.765" y="-254.5" font-family="Helvetica,sans-Serif" font-size="10.00">TID.h</text>
</a>
</g>
<!-- Node23&#45;&gt;Node24 -->
<g id="edge60" class="edge"><title>Node23&#45;&gt;Node24</title>
<path fill="none" stroke="midnightblue" d="M1611.11,-430.594C1407.16,-428.674 626.78,-419.08 522.765,-384 454.731,-361.055 389.307,-304.221 358.743,-274.993"/>
<polygon fill="midnightblue" stroke="midnightblue" points="361.017,-272.323 351.407,-267.862 356.138,-277.342 361.017,-272.323"/>
</g>
<!-- Node33 -->
<g id="node81" class="node"><title>Node33</title>
<a xlink:href="_t_detector_read_hit_8h.html" target="_top" xlink:title="TDetectorReadHit.h">
<polygon fill="white" stroke="black" points="1476.76,-246.5 1476.76,-267.5 1580.76,-267.5 1580.76,-246.5 1476.76,-246.5"/>
<text text-anchor="middle" x="1528.76" y="-254.5" font-family="Helvetica,sans-Serif" font-size="10.00">TDetectorReadHit.h</text>
</a>
</g>
<!-- Node23&#45;&gt;Node33 -->
<g id="edge96" class="edge"><title>Node23&#45;&gt;Node33</title>
<path fill="none" stroke="midnightblue" d="M1651.77,-420.377C1630.26,-391.809 1570.94,-313.017 1543.29,-276.3"/>
<polygon fill="midnightblue" stroke="midnightblue" points="1545.8,-273.812 1536.99,-267.928 1540.21,-278.022 1545.8,-273.812"/>
</g>
<!-- Node39 -->
<g id="node108" class="node"><title>Node39</title>
<a xlink:href="_t_slow_control_8h.html" target="_top" xlink:title="TSlowControl.h">
<polygon fill="white" stroke="black" points="280.765,-304.5 280.765,-325.5 364.765,-325.5 364.765,-304.5 280.765,-304.5"/>
<text text-anchor="middle" x="322.765" y="-312.5" font-family="Helvetica,sans-Serif" font-size="10.00">TSlowControl.h</text>
</a>
</g>
<!-- Node23&#45;&gt;Node39 -->
<g id="edge138" class="edge"><title>Node23&#45;&gt;Node39</title>
<path fill="none" stroke="midnightblue" d="M1611.25,-430.756C1396.47,-429.46 536.841,-421.928 422.765,-384 390.858,-373.392 359.912,-349.24 341.103,-332.525"/>
<polygon fill="midnightblue" stroke="midnightblue" points="343.331,-329.82 333.586,-325.661 338.611,-334.989 343.331,-329.82"/>
</g>
<!-- Node40 -->
<g id="node115" class="node"><title>Node40</title>
<a xlink:href="_t_unpacker_message_8h.html" target="_top" xlink:title="TUnpackerMessage.h">
<polygon fill="white" stroke="black" points="564.265,-246.5 564.265,-267.5 677.265,-267.5 677.265,-246.5 564.265,-246.5"/>
<text text-anchor="middle" x="620.765" y="-254.5" font-family="Helvetica,sans-Serif" font-size="10.00">TUnpackerMessage.h</text>
</a>
</g>
<!-- Node23&#45;&gt;Node40 -->
<g id="edge150" class="edge"><title>Node23&#45;&gt;Node40</title>
<path fill="none" stroke="midnightblue" d="M1611.05,-422.841C1442.15,-394.557 881.541,-300.672 687.53,-268.181"/>
<polygon fill="midnightblue" stroke="midnightblue" points="687.913,-264.697 677.472,-266.497 686.757,-271.6 687.913,-264.697"/>
</g>
<!-- Node48 -->
<g id="node139" class="node"><title>Node48</title>
<a xlink:href="_t_tagger_hit_8h.html" target="_top" xlink:title="TTaggerHit.h">
<polygon fill="white" stroke="black" points="1287.76,-304.5 1287.76,-325.5 1361.76,-325.5 1361.76,-304.5 1287.76,-304.5"/>
<text text-anchor="middle" x="1324.76" y="-312.5" font-family="Helvetica,sans-Serif" font-size="10.00">TTaggerHit.h</text>
</a>
</g>
<!-- Node23&#45;&gt;Node48 -->
<g id="edge182" class="edge"><title>Node23&#45;&gt;Node48</title>
<path fill="none" stroke="midnightblue" d="M1629.15,-420.398C1568.34,-399.342 1432.38,-352.263 1364.67,-328.817"/>
<polygon fill="midnightblue" stroke="midnightblue" points="1365.78,-325.5 1355.19,-325.535 1363.49,-332.115 1365.78,-325.5"/>
</g>
<!-- Node50 -->
<g id="node149" class="node"><title>Node50</title>
<a xlink:href="_t_trigger_8h.html" target="_top" xlink:title="TTrigger.h">
<polygon fill="white" stroke="black" points="2516.26,-181.5 2516.26,-202.5 2577.26,-202.5 2577.26,-181.5 2516.26,-181.5"/>
<text text-anchor="middle" x="2546.76" y="-189.5" font-family="Helvetica,sans-Serif" font-size="10.00">TTrigger.h</text>
</a>
</g>
<!-- Node23&#45;&gt;Node50 -->
<g id="edge198" class="edge"><title>Node23&#45;&gt;Node50</title>
<path fill="none" stroke="midnightblue" d="M1708.46,-428.467C1778.94,-423.959 1913.09,-412.211 2023.76,-384 2187.8,-342.188 2219.22,-302.592 2378.76,-246 2422.13,-230.619 2472.43,-214.701 2506.6,-204.169"/>
<polygon fill="midnightblue" stroke="midnightblue" points="2507.7,-207.494 2516.23,-201.213 2505.64,-200.802 2507.7,-207.494"/>
</g>
<!-- Node51 -->
<g id="node156" class="node"><title>Node51</title>
<a xlink:href="_t_target_8h.html" target="_top" xlink:title="TTarget.h">
<polygon fill="white" stroke="black" points="1982.26,-181.5 1982.26,-202.5 2041.26,-202.5 2041.26,-181.5 1982.26,-181.5"/>
<text text-anchor="middle" x="2011.76" y="-189.5" font-family="Helvetica,sans-Serif" font-size="10.00">TTarget.h</text>
</a>
</g>
<!-- Node23&#45;&gt;Node51 -->
<g id="edge210" class="edge"><title>Node23&#45;&gt;Node51</title>
<path fill="none" stroke="midnightblue" d="M1707.07,-420.449C1778.64,-402.021 1914.01,-357.134 1988.76,-268 2001.86,-252.381 2007.5,-229.448 2009.93,-212.862"/>
<polygon fill="midnightblue" stroke="midnightblue" points="2013.45,-212.903 2011.15,-202.561 2006.5,-212.08 2013.45,-212.903"/>
</g>
<!-- Node52 -->
<g id="node164" class="node"><title>Node52</title>
<a xlink:href="_t_cluster_8h.html" target="_top" xlink:title="TCluster.h">
<polygon fill="white" stroke="black" points="1884.76,-246.5 1884.76,-267.5 1946.76,-267.5 1946.76,-246.5 1884.76,-246.5"/>
<text text-anchor="middle" x="1915.76" y="-254.5" font-family="Helvetica,sans-Serif" font-size="10.00">TCluster.h</text>
</a>
</g>
<!-- Node23&#45;&gt;Node52 -->
<g id="edge224" class="edge"><title>Node23&#45;&gt;Node52</title>
<path fill="none" stroke="midnightblue" d="M1675.39,-420.377C1718.6,-391.013 1839.87,-308.587 1891.74,-273.33"/>
<polygon fill="midnightblue" stroke="midnightblue" points="1893.71,-276.221 1900.02,-267.705 1889.78,-270.431 1893.71,-276.221"/>
</g>
<!-- Node55 -->
<g id="node181" class="node"><title>Node55</title>
<a xlink:href="_t_candidate_8h.html" target="_top" xlink:title="TCandidate.h">
<polygon fill="white" stroke="black" points="2042.26,-304.5 2042.26,-325.5 2117.26,-325.5 2117.26,-304.5 2042.26,-304.5"/>
<text text-anchor="middle" x="2079.76" y="-312.5" font-family="Helvetica,sans-Serif" font-size="10.00">TCandidate.h</text>
</a>
</g>
<!-- Node23&#45;&gt;Node55 -->
<g id="edge252" class="edge"><title>Node23&#45;&gt;Node55</title>
<path fill="none" stroke="midnightblue" d="M1708.37,-427.179C1787.62,-420.437 1940.85,-405.118 1990.76,-384 2018.77,-372.15 2045.6,-349.226 2062.35,-333.061"/>
<polygon fill="midnightblue" stroke="midnightblue" points="2065.08,-335.275 2069.72,-325.746 2060.15,-330.306 2065.08,-335.275"/>
</g>
<!-- Node56 -->
<g id="node190" class="node"><title>Node56</title>
<a xlink:href="_t_particle_8h.html" target="_top" xlink:title="TParticle.h">
<polygon fill="white" stroke="black" points="2763.76,-362.5 2763.76,-383.5 2827.76,-383.5 2827.76,-362.5 2763.76,-362.5"/>
<text text-anchor="middle" x="2795.76" y="-370.5" font-family="Helvetica,sans-Serif" font-size="10.00">TParticle.h</text>
</a>
</g>
<!-- Node23&#45;&gt;Node56 -->
<g id="edge268" class="edge"><title>Node23&#45;&gt;Node56</title>
<path fill="none" stroke="midnightblue" d="M1708.58,-428.508C1897.21,-418.877 2576.78,-384.18 2753.52,-375.157"/>
<polygon fill="midnightblue" stroke="midnightblue" points="2753.9,-378.642 2763.71,-374.637 2753.54,-371.651 2753.9,-378.642"/>
</g>
<!-- Node24&#45;&gt;Node7 -->
<g id="edge64" class="edge"><title>Node24&#45;&gt;Node7</title>
<path fill="none" stroke="midnightblue" d="M338.164,-246.487C332.434,-220.558 321.782,-152.975 355.765,-116 382.532,-86.8749 496.166,-75.3588 558.473,-71.1691"/>
<polygon fill="midnightblue" stroke="midnightblue" points="558.987,-74.6435 568.744,-70.5136 558.542,-67.6577 558.987,-74.6435"/>
</g>
<!-- Node24&#45;&gt;Node8 -->
<g id="edge82" class="edge"><title>Node24&#45;&gt;Node8</title>
<path fill="none" stroke="midnightblue" d="M320.011,-254.763C273.166,-249.335 161.1,-234.113 132.765,-210 99.4681,-181.665 76.2362,-149.966 103.765,-116 161.087,-45.2729 449.633,-20.2886 558.293,-13.3031"/>
<polygon fill="midnightblue" stroke="midnightblue" points="558.771,-16.7801 568.534,-12.6641 558.335,-9.7937 558.771,-16.7801"/>
</g>
<!-- Node24&#45;&gt;Node12 -->
<g id="edge88" class="edge"><title>Node24&#45;&gt;Node12</title>
<path fill="none" stroke="midnightblue" d="M345.615,-246.443C354.01,-229.193 372.778,-194.805 397.765,-174 446.384,-133.517 466.174,-130.469 527.765,-116 896.909,-29.2777 1008.25,-139.657 1385.94,-79.9614"/>
<polygon fill="midnightblue" stroke="midnightblue" points="1386.73,-83.3787 1396.05,-78.333 1385.62,-76.4677 1386.73,-83.3787"/>
</g>
<!-- Node24&#45;&gt;Node20 -->
<g id="edge90" class="edge"><title>Node24&#45;&gt;Node20</title>
<path fill="none" stroke="midnightblue" d="M361.509,-255.701C399.853,-253.353 484.419,-248.421 555.765,-246 675.268,-241.945 2592.87,-243.127 2707.76,-210 2753.38,-196.848 2799.08,-164.331 2824.46,-144.123"/>
<polygon fill="midnightblue" stroke="midnightblue" points="2826.71,-146.808 2832.27,-137.787 2822.3,-141.374 2826.71,-146.808"/>
</g>
<!-- Node24&#45;&gt;Node22 -->
<g id="edge62" class="edge"><title>Node24&#45;&gt;Node22</title>
<path fill="none" stroke="midnightblue" d="M326.788,-246.495C315.592,-237.61 299.962,-224.106 288.765,-210 273.095,-190.261 259.727,-164.475 251.505,-146.917"/>
<polygon fill="midnightblue" stroke="midnightblue" points="254.609,-145.289 247.28,-137.638 248.239,-148.189 254.609,-145.289"/>
</g>
<!-- Node25 -->
<g id="node58" class="node"><title>Node25</title>
<a xlink:href="time_8h.html" target="_top" xlink:title="base/std_ext/time.h">
<polygon fill="white" stroke="black" points="406.265,-181.5 406.265,-202.5 509.265,-202.5 509.265,-181.5 406.265,-181.5"/>
<text text-anchor="middle" x="457.765" y="-189.5" font-family="Helvetica,sans-Serif" font-size="10.00">base/std_ext/time.h</text>
</a>
</g>
<!-- Node24&#45;&gt;Node25 -->
<g id="edge66" class="edge"><title>Node24&#45;&gt;Node25</title>
<path fill="none" stroke="midnightblue" d="M359.823,-246.412C378.86,-235.836 408.328,-219.465 429.971,-207.441"/>
<polygon fill="midnightblue" stroke="midnightblue" points="431.672,-210.5 438.714,-202.584 428.273,-204.38 431.672,-210.5"/>
</g>
<!-- Node29 -->
<g id="node69" class="node"><title>Node29</title>
<polygon fill="white" stroke="#bfbfbf" points="364.265,-116.5 364.265,-137.5 405.265,-137.5 405.265,-116.5 364.265,-116.5"/>
<text text-anchor="middle" x="384.765" y="-124.5" font-family="Helvetica,sans-Serif" font-size="10.00">ctime</text>
</g>
<!-- Node24&#45;&gt;Node29 -->
<g id="edge94" class="edge"><title>Node24&#45;&gt;Node29</title>
<path fill="none" stroke="midnightblue" d="M343.394,-246.389C347.433,-230.479 355.662,-199.579 364.765,-174 367.977,-164.972 372.042,-155.191 375.666,-146.902"/>
<polygon fill="midnightblue" stroke="midnightblue" points="378.902,-148.239 379.782,-137.681 372.51,-145.386 378.902,-148.239"/>
</g>
<!-- Node30 -->
<g id="node72" class="node"><title>Node30</title>
<polygon fill="white" stroke="#bfbfbf" points="28.7646,-181.5 28.7646,-202.5 66.7646,-202.5 66.7646,-181.5 28.7646,-181.5"/>
<text text-anchor="middle" x="47.7646" y="-189.5" font-family="Helvetica,sans-Serif" font-size="10.00">tuple</text>
</g>
<!-- Node24&#45;&gt;Node30 -->
<g id="edge84" class="edge"><title>Node24&#45;&gt;Node30</title>
<path fill="none" stroke="midnightblue" d="M319.964,-255.508C275.109,-251.805 166.416,-240.211 80.7646,-210 78.4798,-209.194 76.1636,-208.243 73.8733,-207.207"/>
<polygon fill="midnightblue" stroke="midnightblue" points="75.2557,-203.984 64.7499,-202.613 72.1077,-210.237 75.2557,-203.984"/>
</g>
<!-- Node31 -->
<g id="node74" class="node"><title>Node31</title>
<polygon fill="white" stroke="#bfbfbf" points="112.765,-116.5 112.765,-137.5 158.765,-137.5 158.765,-116.5 112.765,-116.5"/>
<text text-anchor="middle" x="135.765" y="-124.5" font-family="Helvetica,sans-Serif" font-size="10.00">cstdint</text>
</g>
<!-- Node24&#45;&gt;Node31 -->
<g id="edge86" class="edge"><title>Node24&#45;&gt;Node31</title>
<path fill="none" stroke="midnightblue" d="M319.937,-254.638C275.769,-249.198 174.853,-234.353 151.765,-210 136.139,-193.519 133.559,-166.632 133.961,-147.943"/>
<polygon fill="midnightblue" stroke="midnightblue" points="137.465,-147.948 134.487,-137.78 130.475,-147.586 137.465,-147.948"/>
</g>
<!-- Node32 -->
<g id="node78" class="node"><title>Node32</title>
<polygon fill="white" stroke="#bfbfbf" points="1363.76,-181.5 1363.76,-202.5 1413.76,-202.5 1413.76,-181.5 1363.76,-181.5"/>
<text text-anchor="middle" x="1388.76" y="-189.5" font-family="Helvetica,sans-Serif" font-size="10.00">iomanip</text>
</g>
<!-- Node24&#45;&gt;Node32 -->
<g id="edge92" class="edge"><title>Node24&#45;&gt;Node32</title>
<path fill="none" stroke="midnightblue" d="M361.699,-255.702C491.693,-247.639 1188.4,-204.427 1353.61,-194.18"/>
<polygon fill="midnightblue" stroke="midnightblue" points="1353.95,-197.666 1363.71,-193.554 1353.52,-190.68 1353.95,-197.666"/>
</g>
<!-- Node25&#45;&gt;Node26 -->
<g id="edge68" class="edge"><title>Node25&#45;&gt;Node26</title>
<path fill="none" stroke="midnightblue" d="M509.279,-189.565C588.621,-185.867 745.521,-178.762 878.765,-174 1432.13,-154.222 1575.73,-193.572 2130.27,-138.014"/>
<polygon fill="midnightblue" stroke="midnightblue" points="2130.94,-141.464 2140.54,-136.979 2130.24,-134.5 2130.94,-141.464"/>
</g>
<!-- Node28 -->
<g id="node67" class="node"><title>Node28</title>
<polygon fill="white" stroke="#bfbfbf" points="536.765,-116.5 536.765,-137.5 582.765,-137.5 582.765,-116.5 536.765,-116.5"/>
<text text-anchor="middle" x="559.765" y="-124.5" font-family="Helvetica,sans-Serif" font-size="10.00">cstring</text>
</g>
<!-- Node25&#45;&gt;Node28 -->
<g id="edge78" class="edge"><title>Node25&#45;&gt;Node28</title>
<path fill="none" stroke="midnightblue" d="M474.608,-181.267C490.946,-170.855 515.941,-154.927 534.631,-143.016"/>
<polygon fill="midnightblue" stroke="midnightblue" points="536.683,-145.859 543.235,-137.534 532.921,-139.956 536.683,-145.859"/>
</g>
<!-- Node25&#45;&gt;Node29 -->
<g id="edge80" class="edge"><title>Node25&#45;&gt;Node29</title>
<path fill="none" stroke="midnightblue" d="M445.71,-181.267C434.442,-171.233 417.421,-156.078 404.229,-144.331"/>
<polygon fill="midnightblue" stroke="midnightblue" points="406.391,-141.57 396.595,-137.534 401.736,-146.798 406.391,-141.57"/>
</g>
<!-- Node26&#45;&gt;Node11 -->
<g id="edge74" class="edge"><title>Node26&#45;&gt;Node11</title>
<path fill="none" stroke="midnightblue" d="M2190.91,-116.362C2188.16,-108.758 2184.37,-98.294 2181.05,-89.1349"/>
<polygon fill="midnightblue" stroke="midnightblue" points="2184.29,-87.7818 2177.59,-79.5707 2177.71,-90.1649 2184.29,-87.7818"/>
</g>
<!-- Node26&#45;&gt;Node16 -->
<g id="edge76" class="edge"><title>Node26&#45;&gt;Node16</title>
<path fill="none" stroke="midnightblue" d="M2248.91,-117.906C2253.59,-117.222 2258.26,-116.575 2262.76,-116 2439.41,-93.4696 2652.31,-77.0676 2732.3,-71.2815"/>
<polygon fill="midnightblue" stroke="midnightblue" points="2732.96,-74.743 2742.69,-70.536 2732.46,-67.7609 2732.96,-74.743"/>
</g>
<!-- Node26&#45;&gt;Node17 -->
<g id="edge70" class="edge"><title>Node26&#45;&gt;Node17</title>
<path fill="none" stroke="midnightblue" d="M2249.02,-123.631C2423.01,-112.826 2963.51,-79.2621 3098.15,-70.9011"/>
<polygon fill="midnightblue" stroke="midnightblue" points="3098.42,-74.3914 3108.18,-70.2783 3097.98,-67.4049 3098.42,-74.3914"/>
</g>
<!-- Node27 -->
<g id="node63" class="node"><title>Node27</title>
<polygon fill="white" stroke="#bfbfbf" points="1788.76,-58.5 1788.76,-79.5 1840.76,-79.5 1840.76,-58.5 1788.76,-58.5"/>
<text text-anchor="middle" x="1814.76" y="-66.5" font-family="Helvetica,sans-Serif" font-size="10.00">sstream</text>
</g>
<!-- Node26&#45;&gt;Node27 -->
<g id="edge72" class="edge"><title>Node26&#45;&gt;Node27</title>
<path fill="none" stroke="midnightblue" d="M2140.49,-117.368C2137.54,-116.893 2134.62,-116.434 2131.76,-116 2008.59,-97.2809 1975.82,-104.977 1853.76,-80 1852.86,-79.8149 1851.95,-79.6198 1851.02,-79.4164"/>
<polygon fill="midnightblue" stroke="midnightblue" points="1851.61,-75.9576 1841.07,-76.9824 1849.95,-82.7573 1851.61,-75.9576"/>
</g>
<!-- Node33&#45;&gt;Node27 -->
<g id="edge136" class="edge"><title>Node33&#45;&gt;Node27</title>
<path fill="none" stroke="midnightblue" d="M1508.76,-246.367C1495.86,-238.293 1480.17,-225.875 1472.76,-210 1453.35,-168.362 1476.46,-139.792 1515.76,-116 1559.38,-89.5978 1708.65,-76.2175 1778.36,-71.2871"/>
<polygon fill="midnightblue" stroke="midnightblue" points="1778.71,-74.7718 1788.44,-70.594 1778.23,-67.7883 1778.71,-74.7718"/>
</g>
<!-- Node33&#45;&gt;Node32 -->
<g id="edge134" class="edge"><title>Node33&#45;&gt;Node32</title>
<path fill="none" stroke="midnightblue" d="M1505.96,-246.412C1482.77,-235.647 1446.66,-218.878 1420.64,-206.801"/>
<polygon fill="midnightblue" stroke="midnightblue" points="1422.1,-203.62 1411.56,-202.584 1419.16,-209.969 1422.1,-203.62"/>
</g>
<!-- Node34 -->
<g id="node83" class="node"><title>Node34</title>
<a xlink:href="_detector__t_8h.html" target="_top" xlink:title="base/Detector_t.h">
<polygon fill="white" stroke="black" points="1481.26,-181.5 1481.26,-202.5 1576.26,-202.5 1576.26,-181.5 1481.26,-181.5"/>
<text text-anchor="middle" x="1528.76" y="-189.5" font-family="Helvetica,sans-Serif" font-size="10.00">base/Detector_t.h</text>
</a>
</g>
<!-- Node33&#45;&gt;Node34 -->
<g id="edge98" class="edge"><title>Node33&#45;&gt;Node34</title>
<path fill="none" stroke="midnightblue" d="M1528.76,-246.267C1528.76,-237.18 1528.76,-223.892 1528.76,-212.74"/>
<polygon fill="midnightblue" stroke="midnightblue" points="1532.26,-212.534 1528.76,-202.534 1525.26,-212.534 1532.26,-212.534"/>
</g>
<!-- Node34&#45;&gt;Node7 -->
<g id="edge100" class="edge"><title>Node34&#45;&gt;Node7</title>
<path fill="none" stroke="midnightblue" d="M1481.07,-183.509C1462.85,-180.369 1441.87,-176.876 1422.76,-174 1301.31,-155.715 1269.37,-161.262 1148.76,-138 1110.03,-130.528 1101.61,-122.9 1062.76,-116 908.598,-88.6142 722.508,-75.7568 641.179,-71.1255"/>
<polygon fill="midnightblue" stroke="midnightblue" points="641.05,-67.6129 630.87,-70.5509 640.66,-74.6021 641.05,-67.6129"/>
</g>
<!-- Node34&#45;&gt;Node8 -->
<g id="edge130" class="edge"><title>Node34&#45;&gt;Node8</title>
<path fill="none" stroke="midnightblue" d="M1481.1,-182.713C1319.32,-151.193 792.879,-48.625 641.081,-19.0499"/>
<polygon fill="midnightblue" stroke="midnightblue" points="641.705,-15.6057 631.22,-17.1286 640.366,-22.4765 641.705,-15.6057"/>
</g>
<!-- Node34&#45;&gt;Node12 -->
<g id="edge126" class="edge"><title>Node34&#45;&gt;Node12</title>
<path fill="none" stroke="midnightblue" d="M1519.55,-181.283C1510.23,-170.416 1495.43,-153.096 1482.76,-138 1468.54,-121.044 1452.5,-101.596 1441.07,-87.6778"/>
<polygon fill="midnightblue" stroke="midnightblue" points="1443.65,-85.3086 1434.6,-79.7983 1438.24,-89.749 1443.65,-85.3086"/>
</g>
<!-- Node34&#45;&gt;Node16 -->
<g id="edge132" class="edge"><title>Node34&#45;&gt;Node16</title>
<path fill="none" stroke="midnightblue" d="M1576.42,-186.633C1612.02,-182.751 1661.9,-177.579 1705.76,-174 1965.39,-152.818 2038.09,-201.338 2290.76,-138 2313.53,-132.294 2316.15,-122.255 2338.76,-116 2413.13,-95.4341 2646.56,-77.3455 2732.55,-71.2165"/>
<polygon fill="midnightblue" stroke="midnightblue" points="2733.02,-74.692 2742.75,-70.4964 2732.53,-67.7094 2733.02,-74.692"/>
</g>
<!-- Node34&#45;&gt;Node17 -->
<g id="edge128" class="edge"><title>Node34&#45;&gt;Node17</title>
<path fill="none" stroke="midnightblue" d="M1576.4,-186.365C1611.99,-182.348 1661.86,-177.124 1705.76,-174 1901.65,-160.059 2400.18,-192.795 2588.76,-138 2607.5,-132.555 2608.17,-121.936 2626.76,-116 2715.39,-87.7023 3002.92,-73.994 3097.96,-70.1563"/>
<polygon fill="midnightblue" stroke="midnightblue" points="3098.21,-73.6491 3108.07,-69.7564 3097.94,-66.6546 3098.21,-73.6491"/>
</g>
<!-- Node34&#45;&gt;Node31 -->
<g id="edge124" class="edge"><title>Node34&#45;&gt;Node31</title>
<path fill="none" stroke="midnightblue" d="M1481.2,-182.478C1463,-179.215 1441.99,-175.907 1422.76,-174 884.283,-120.576 744.566,-188.101 205.765,-138 193.761,-136.884 180.689,-135.01 169.126,-133.123"/>
<polygon fill="midnightblue" stroke="midnightblue" points="169.45,-129.628 159.005,-131.407 168.28,-136.529 169.45,-129.628"/>
</g>
<!-- Node35 -->
<g id="node86" class="node"><title>Node35</title>
<a xlink:href="vec3_8h.html" target="_top" xlink:title="base/vec/vec3.h">
<polygon fill="white" stroke="black" points="1266.26,-116.5 1266.26,-137.5 1355.26,-137.5 1355.26,-116.5 1266.26,-116.5"/>
<text text-anchor="middle" x="1310.76" y="-124.5" font-family="Helvetica,sans-Serif" font-size="10.00">base/vec/vec3.h</text>
</a>
</g>
<!-- Node34&#45;&gt;Node35 -->
<g id="edge102" class="edge"><title>Node34&#45;&gt;Node35</title>
<path fill="none" stroke="midnightblue" d="M1493.25,-181.412C1455.8,-170.246 1396.69,-152.619 1355.94,-140.47"/>
<polygon fill="midnightblue" stroke="midnightblue" points="1356.84,-137.087 1346.26,-137.584 1354.84,-143.795 1356.84,-137.087"/>
</g>
<!-- Node38 -->
<g id="node94" class="node"><title>Node38</title>
<a xlink:href="math_8h.html" target="_top" xlink:title="base/std_ext/math.h">
<polygon fill="white" stroke="black" points="1628.76,-116.5 1628.76,-137.5 1734.76,-137.5 1734.76,-116.5 1628.76,-116.5"/>
<text text-anchor="middle" x="1681.76" y="-124.5" font-family="Helvetica,sans-Serif" font-size="10.00">base/std_ext/math.h</text>
</a>
</g>
<!-- Node34&#45;&gt;Node38 -->
<g id="edge112" class="edge"><title>Node34&#45;&gt;Node38</title>
<path fill="none" stroke="midnightblue" d="M1553.69,-181.412C1579.14,-170.6 1618.84,-153.731 1647.3,-141.642"/>
<polygon fill="midnightblue" stroke="midnightblue" points="1649.02,-144.715 1656.85,-137.584 1646.28,-138.272 1649.02,-144.715"/>
</g>
<!-- Node35&#45;&gt;Node7 -->
<g id="edge104" class="edge"><title>Node35&#45;&gt;Node7</title>
<path fill="none" stroke="midnightblue" d="M1266.02,-123.35C1137.11,-112.834 766.169,-82.5745 641.332,-72.3909"/>
<polygon fill="midnightblue" stroke="midnightblue" points="641.308,-68.8773 631.056,-71.5526 640.738,-75.8542 641.308,-68.8773"/>
</g>
<!-- Node36 -->
<g id="node89" class="node"><title>Node36</title>
<a xlink:href="vec2_8h.html" target="_top" xlink:title="vec2.h">
<polygon fill="white" stroke="black" points="1332.76,-58.5 1332.76,-79.5 1378.76,-79.5 1378.76,-58.5 1332.76,-58.5"/>
<text text-anchor="middle" x="1355.76" y="-66.5" font-family="Helvetica,sans-Serif" font-size="10.00">vec2.h</text>
</a>
</g>
<!-- Node35&#45;&gt;Node36 -->
<g id="edge106" class="edge"><title>Node35&#45;&gt;Node36</title>
<path fill="none" stroke="midnightblue" d="M1319.02,-116.362C1325.23,-108.35 1333.92,-97.1605 1341.28,-87.6696"/>
<polygon fill="midnightblue" stroke="midnightblue" points="1344.2,-89.617 1347.56,-79.5707 1338.67,-85.326 1344.2,-89.617"/>
</g>
<!-- Node37 -->
<g id="node91" class="node"><title>Node37</title>
<polygon fill="white" stroke="#bfbfbf" points="1333.76,-0.5 1333.76,-21.5 1377.76,-21.5 1377.76,-0.5 1333.76,-0.5"/>
<text text-anchor="middle" x="1355.76" y="-8.5" font-family="Helvetica,sans-Serif" font-size="10.00">cmath</text>
</g>
<!-- Node35&#45;&gt;Node37 -->
<g id="edge110" class="edge"><title>Node35&#45;&gt;Node37</title>
<path fill="none" stroke="midnightblue" d="M1311.42,-116.33C1312.57,-102.434 1315.66,-77.6017 1323.76,-58 1327.86,-48.0848 1334.25,-38.1169 1340.24,-29.9284"/>
<polygon fill="midnightblue" stroke="midnightblue" points="1343.15,-31.8908 1346.46,-21.828 1337.6,-27.6269 1343.15,-31.8908"/>
</g>
<!-- Node36&#45;&gt;Node37 -->
<g id="edge108" class="edge"><title>Node36&#45;&gt;Node37</title>
<path fill="none" stroke="midnightblue" d="M1355.76,-58.3619C1355.76,-50.9219 1355.76,-40.7427 1355.76,-31.7276"/>
<polygon fill="midnightblue" stroke="midnightblue" points="1359.26,-31.5706 1355.76,-21.5707 1352.26,-31.5707 1359.26,-31.5706"/>
</g>
<!-- Node38&#45;&gt;Node11 -->
<g id="edge120" class="edge"><title>Node38&#45;&gt;Node11</title>
<path fill="none" stroke="midnightblue" d="M1734.82,-117.302C1737.84,-116.838 1740.84,-116.4 1743.76,-116 1908.34,-93.4738 1951.33,-103.5 2115.76,-80 2122.16,-79.0865 2128.91,-77.9565 2135.47,-76.7717"/>
<polygon fill="midnightblue" stroke="midnightblue" points="2136.35,-80.1692 2145.53,-74.8883 2135.06,-73.2888 2136.35,-80.1692"/>
</g>
<!-- Node38&#45;&gt;Node12 -->
<g id="edge122" class="edge"><title>Node38&#45;&gt;Node12</title>
<path fill="none" stroke="midnightblue" d="M1635.4,-116.497C1586.78,-105.48 1511.18,-88.3509 1465.28,-77.9535"/>
<polygon fill="midnightblue" stroke="midnightblue" points="1465.93,-74.5118 1455.41,-75.7155 1464.39,-81.3387 1465.93,-74.5118"/>
</g>
<!-- Node38&#45;&gt;Node13 -->
<g id="edge116" class="edge"><title>Node38&#45;&gt;Node13</title>
<path fill="none" stroke="midnightblue" d="M1721.64,-116.435C1755.78,-107.248 1806.18,-93.3512 1849.76,-80 1850.8,-79.6816 1851.86,-79.3536 1852.93,-79.0189"/>
<polygon fill="midnightblue" stroke="midnightblue" points="1854.13,-82.3083 1862.57,-75.9052 1851.98,-75.6469 1854.13,-82.3083"/>
</g>
<!-- Node38&#45;&gt;Node16 -->
<g id="edge118" class="edge"><title>Node38&#45;&gt;Node16</title>
<path fill="none" stroke="midnightblue" d="M1734.8,-117.125C1737.83,-116.706 1740.83,-116.326 1743.76,-116 1942.25,-93.9179 2581.07,-74.3309 2732.4,-69.9239"/>
<polygon fill="midnightblue" stroke="midnightblue" points="2732.55,-73.4213 2742.44,-69.633 2732.34,-66.4242 2732.55,-73.4213"/>
</g>
<!-- Node38&#45;&gt;Node37 -->
<g id="edge114" class="edge"><title>Node38&#45;&gt;Node37</title>
<path fill="none" stroke="midnightblue" d="M1651.97,-116.398C1590.63,-94.5704 1450.7,-44.7798 1387.63,-22.3384"/>
<polygon fill="midnightblue" stroke="midnightblue" points="1388.43,-18.9092 1377.84,-18.8543 1386.09,-25.5042 1388.43,-18.9092"/>
</g>
<!-- Node39&#45;&gt;Node7 -->
<g id="edge144" class="edge"><title>Node39&#45;&gt;Node7</title>
<path fill="none" stroke="midnightblue" d="M280.491,-312.957C182.168,-306.407 -49.1905,-279.651 9.76459,-174 33.6856,-131.132 57.223,-131.613 103.765,-116 187.804,-87.8084 455.214,-74.6315 558.501,-70.4979"/>
<polygon fill="midnightblue" stroke="midnightblue" points="558.693,-73.9932 568.548,-70.1038 558.418,-66.9986 558.693,-73.9932"/>
</g>
<!-- Node39&#45;&gt;Node24 -->
<g id="edge140" class="edge"><title>Node39&#45;&gt;Node24</title>
<path fill="none" stroke="midnightblue" d="M326.066,-304.362C328.426,-296.758 331.673,-286.294 334.516,-277.135"/>
<polygon fill="midnightblue" stroke="midnightblue" points="337.863,-278.159 337.484,-267.571 331.177,-276.084 337.863,-278.159"/>
</g>
<!-- Node39&#45;&gt;Node25 -->
<g id="edge142" class="edge"><title>Node39&#45;&gt;Node25</title>
<path fill="none" stroke="midnightblue" d="M334.745,-304.085C358.121,-282.787 409.998,-235.52 438.347,-209.692"/>
<polygon fill="midnightblue" stroke="midnightblue" points="440.969,-212.037 446.004,-202.715 436.255,-206.863 440.969,-212.037"/>
</g>
<!-- Node39&#45;&gt;Node30 -->
<g id="edge148" class="edge"><title>Node39&#45;&gt;Node30</title>
<path fill="none" stroke="midnightblue" d="M296.271,-304.42C251.375,-286.288 157.718,-247.587 80.7646,-210 79.0054,-209.141 77.2054,-208.236 75.3982,-207.307"/>
<polygon fill="midnightblue" stroke="midnightblue" points="76.9346,-204.161 66.4589,-202.576 73.6601,-210.347 76.9346,-204.161"/>
</g>
<!-- Node39&#45;&gt;Node31 -->
<g id="edge146" class="edge"><title>Node39&#45;&gt;Node31</title>
<path fill="none" stroke="midnightblue" d="M280.648,-306.894C204.527,-291.263 49.1875,-254.535 19.7646,-210 10.9449,-196.65 10.824,-187.269 19.7646,-174 38.1752,-146.676 75.4717,-135.232 102.823,-130.441"/>
<polygon fill="midnightblue" stroke="midnightblue" points="103.407,-133.893 112.759,-128.912 102.343,-126.974 103.407,-133.893"/>
</g>
<!-- Node40&#45;&gt;Node7 -->
<g id="edge180" class="edge"><title>Node40&#45;&gt;Node7</title>
<path fill="none" stroke="midnightblue" d="M611.683,-246.226C589.144,-219.371 532.14,-150.706 527.765,-138 524.581,-128.755 523.109,-124.598 527.765,-116 535.272,-102.135 548.841,-91.7098 562.192,-84.2467"/>
<polygon fill="midnightblue" stroke="midnightblue" points="564.033,-87.2355 571.323,-79.5473 560.83,-81.0115 564.033,-87.2355"/>
</g>
<!-- Node41 -->
<g id="node117" class="node"><title>Node41</title>
<a xlink:href="_format_8h.html" target="_top" xlink:title="base/Format.h">
<polygon fill="white" stroke="black" points="887.765,-181.5 887.765,-202.5 967.765,-202.5 967.765,-181.5 887.765,-181.5"/>
<text text-anchor="middle" x="927.765" y="-189.5" font-family="Helvetica,sans-Serif" font-size="10.00">base/Format.h</text>
</a>
</g>
<!-- Node40&#45;&gt;Node41 -->
<g id="edge152" class="edge"><title>Node40&#45;&gt;Node41</title>
<path fill="none" stroke="midnightblue" d="M670.431,-246.484C727.423,-234.418 820.366,-214.739 877.576,-202.626"/>
<polygon fill="midnightblue" stroke="midnightblue" points="878.421,-206.025 887.479,-200.529 876.971,-199.177 878.421,-206.025"/>
</g>
<!-- Node41&#45;&gt;Node12 -->
<g id="edge170" class="edge"><title>Node41&#45;&gt;Node12</title>
<path fill="none" stroke="midnightblue" d="M959.768,-181.391C1008.39,-165.552 1103.98,-135.5 1186.76,-116 1272,-95.9244 1297.6,-100.295 1386.05,-80.2358"/>
<polygon fill="midnightblue" stroke="midnightblue" points="1387.02,-83.6044 1395.97,-77.9435 1385.44,-76.7839 1387.02,-83.6044"/>
</g>
<!-- Node41&#45;&gt;Node13 -->
<g id="edge166" class="edge"><title>Node41&#45;&gt;Node13</title>
<path fill="none" stroke="midnightblue" d="M967.968,-182.719C1055.55,-162.502 1255.95,-116.263 1257.76,-116 1518.65,-78.2915 1590.97,-130.104 1849.76,-80 1850.83,-79.7934 1851.91,-79.5614 1853,-79.3087"/>
<polygon fill="midnightblue" stroke="midnightblue" points="1854.05,-82.65 1862.74,-76.5982 1852.17,-75.906 1854.05,-82.65"/>
</g>
<!-- Node41&#45;&gt;Node16 -->
<g id="edge174" class="edge"><title>Node41&#45;&gt;Node16</title>
<path fill="none" stroke="midnightblue" d="M967.795,-190.282C1043.41,-187.044 1212.42,-179.837 1354.76,-174 1455.09,-169.885 2162.26,-169.007 2257.76,-138 2274.53,-132.557 2274.17,-121.935 2290.76,-116 2372.59,-86.7389 2639.56,-73.8444 2732.51,-70.1659"/>
<polygon fill="midnightblue" stroke="midnightblue" points="2732.85,-73.6554 2742.71,-69.7719 2732.58,-66.6606 2732.85,-73.6554"/>
</g>
<!-- Node41&#45;&gt;Node17 -->
<g id="edge172" class="edge"><title>Node41&#45;&gt;Node17</title>
<path fill="none" stroke="midnightblue" d="M967.79,-190.163C1043.39,-186.727 1212.4,-179.204 1354.76,-174 1613.16,-164.555 2262.74,-180.652 2517.76,-138 2550.35,-132.551 2556.35,-122.357 2588.76,-116 2779.85,-78.5262 3014.85,-70.9251 3097.91,-69.388"/>
<polygon fill="midnightblue" stroke="midnightblue" points="3098,-72.8871 3107.94,-69.2188 3097.89,-65.8881 3098,-72.8871"/>
</g>
<!-- Node41&#45;&gt;Node19 -->
<g id="edge168" class="edge"><title>Node41&#45;&gt;Node19</title>
<path fill="none" stroke="midnightblue" d="M967.794,-190.263C1043.41,-186.994 1212.42,-179.738 1354.76,-174 1770.73,-157.233 1874.93,-157.907 2290.76,-138 2345.03,-135.402 2407.87,-131.663 2446.47,-129.283"/>
<polygon fill="midnightblue" stroke="midnightblue" points="2446.92,-132.762 2456.69,-128.65 2446.49,-125.775 2446.92,-132.762"/>
</g>
<!-- Node41&#45;&gt;Node28 -->
<g id="edge164" class="edge"><title>Node41&#45;&gt;Node28</title>
<path fill="none" stroke="midnightblue" d="M887.682,-184.92C814.653,-172.021 661.212,-144.919 593.312,-132.925"/>
<polygon fill="midnightblue" stroke="midnightblue" points="593.631,-129.428 583.174,-131.135 592.413,-136.321 593.631,-129.428"/>
</g>
<!-- Node41&#45;&gt;Node37 -->
<g id="edge160" class="edge"><title>Node41&#45;&gt;Node37</title>
<path fill="none" stroke="midnightblue" d="M887.739,-189.671C821.837,-184.909 695.042,-171.525 667.765,-138 661.594,-130.416 661.394,-123.417 667.765,-116 711.318,-65.2957 1193.61,-23.7966 1323.63,-13.4724"/>
<polygon fill="midnightblue" stroke="midnightblue" points="1324.05,-16.9503 1333.75,-12.6761 1323.5,-9.97193 1324.05,-16.9503"/>
</g>
<!-- Node42 -->
<g id="node119" class="node"><title>Node42</title>
<polygon fill="white" stroke="#bfbfbf" points="924.765,-116.5 924.765,-137.5 1020.76,-137.5 1020.76,-116.5 924.765,-116.5"/>
<text text-anchor="middle" x="972.765" y="-124.5" font-family="Helvetica,sans-Serif" font-size="10.00">detail/fmt/format.h</text>
</g>
<!-- Node41&#45;&gt;Node42 -->
<g id="edge154" class="edge"><title>Node41&#45;&gt;Node42</title>
<path fill="none" stroke="midnightblue" d="M935.195,-181.267C941.814,-171.707 951.652,-157.496 959.6,-146.015"/>
<polygon fill="midnightblue" stroke="midnightblue" points="962.658,-147.748 965.472,-137.534 956.902,-143.763 962.658,-147.748"/>
</g>
<!-- Node43 -->
<g id="node121" class="node"><title>Node43</title>
<polygon fill="white" stroke="#bfbfbf" points="1524.26,-116.5 1524.26,-137.5 1573.26,-137.5 1573.26,-116.5 1524.26,-116.5"/>
<text text-anchor="middle" x="1548.76" y="-124.5" font-family="Helvetica,sans-Serif" font-size="10.00">cassert</text>
</g>
<!-- Node41&#45;&gt;Node43 -->
<g id="edge156" class="edge"><title>Node41&#45;&gt;Node43</title>
<path fill="none" stroke="midnightblue" d="M968.032,-187.785C1082.23,-175.832 1406.85,-141.854 1513.98,-130.64"/>
<polygon fill="midnightblue" stroke="midnightblue" points="1514.65,-134.09 1524.23,-129.568 1513.92,-127.128 1514.65,-134.09"/>
</g>
<!-- Node44 -->
<g id="node123" class="node"><title>Node44</title>
<polygon fill="white" stroke="#bfbfbf" points="676.265,-116.5 676.265,-137.5 723.265,-137.5 723.265,-116.5 676.265,-116.5"/>
<text text-anchor="middle" x="699.765" y="-124.5" font-family="Helvetica,sans-Serif" font-size="10.00">clocale</text>
</g>
<!-- Node41&#45;&gt;Node44 -->
<g id="edge158" class="edge"><title>Node41&#45;&gt;Node44</title>
<path fill="none" stroke="midnightblue" d="M887.762,-181.759C850.099,-171.944 791.92,-156.338 733.272,-138.359"/>
<polygon fill="midnightblue" stroke="midnightblue" points="734.064,-134.94 723.476,-135.335 731.999,-141.629 734.064,-134.94"/>
</g>
<!-- Node45 -->
<g id="node126" class="node"><title>Node45</title>
<polygon fill="white" stroke="#bfbfbf" points="740.265,-116.5 740.265,-137.5 783.265,-137.5 783.265,-116.5 740.265,-116.5"/>
<text text-anchor="middle" x="761.765" y="-124.5" font-family="Helvetica,sans-Serif" font-size="10.00">cstdio</text>
</g>
<!-- Node41&#45;&gt;Node45 -->
<g id="edge162" class="edge"><title>Node41&#45;&gt;Node45</title>
<path fill="none" stroke="midnightblue" d="M900.724,-181.412C871.212,-169.856 824.032,-151.382 792.971,-139.219"/>
<polygon fill="midnightblue" stroke="midnightblue" points="794.083,-135.896 783.495,-135.509 791.531,-142.414 794.083,-135.896"/>
</g>
<!-- Node46 -->
<g id="node134" class="node"><title>Node46</title>
<polygon fill="white" stroke="#bfbfbf" points="800.765,-116.5 800.765,-137.5 840.765,-137.5 840.765,-116.5 800.765,-116.5"/>
<text text-anchor="middle" x="820.765" y="-124.5" font-family="Helvetica,sans-Serif" font-size="10.00">utility</text>
</g>
<!-- Node41&#45;&gt;Node46 -->
<g id="edge176" class="edge"><title>Node41&#45;&gt;Node46</title>
<path fill="none" stroke="midnightblue" d="M910.096,-181.267C892.878,-170.807 866.498,-154.782 846.863,-142.854"/>
<polygon fill="midnightblue" stroke="midnightblue" points="848.468,-139.734 838.105,-137.534 844.834,-145.717 848.468,-139.734"/>
</g>
<!-- Node47 -->
<g id="node136" class="node"><title>Node47</title>
<polygon fill="white" stroke="#bfbfbf" points="858.265,-116.5 858.265,-137.5 907.265,-137.5 907.265,-116.5 858.265,-116.5"/>
<text text-anchor="middle" x="882.765" y="-124.5" font-family="Helvetica,sans-Serif" font-size="10.00">stdint.h</text>
</g>
<!-- Node41&#45;&gt;Node47 -->
<g id="edge178" class="edge"><title>Node41&#45;&gt;Node47</title>
<path fill="none" stroke="midnightblue" d="M920.334,-181.267C913.715,-171.707 903.877,-157.496 895.929,-146.015"/>
<polygon fill="midnightblue" stroke="midnightblue" points="898.627,-143.763 890.057,-137.534 892.872,-147.748 898.627,-143.763"/>
</g>
<!-- Node48&#45;&gt;Node7 -->
<g id="edge186" class="edge"><title>Node48&#45;&gt;Node7</title>
<path fill="none" stroke="midnightblue" d="M1287.55,-313.31C1180.86,-306.85 868.25,-276.491 659.765,-138 639.978,-124.857 622.824,-103.504 611.984,-88.03"/>
<polygon fill="midnightblue" stroke="midnightblue" points="614.858,-86.0315 606.36,-79.7046 609.058,-89.9502 614.858,-86.0315"/>
</g>
<!-- Node48&#45;&gt;Node16 -->
<g id="edge192" class="edge"><title>Node48&#45;&gt;Node16</title>
<path fill="none" stroke="midnightblue" d="M1362.03,-314.814C1490.77,-313.823 1911.38,-307.56 1955.76,-268 1987.52,-239.698 1942.39,-202.724 1973.76,-174 2032.25,-120.456 2253.32,-162.41 2328.76,-138 2347.33,-131.992 2348.25,-122.16 2366.76,-116 2434.68,-93.4065 2650.48,-76.7727 2732.61,-71.1114"/>
<polygon fill="midnightblue" stroke="midnightblue" points="2732.88,-74.6015 2742.62,-70.4307 2732.4,-67.6176 2732.88,-74.6015"/>
</g>
<!-- Node48&#45;&gt;Node24 -->
<g id="edge184" class="edge"><title>Node48&#45;&gt;Node24</title>
<path fill="none" stroke="midnightblue" d="M1287.69,-312.815C1130.11,-303.526 517.337,-267.408 371.868,-258.833"/>
<polygon fill="midnightblue" stroke="midnightblue" points="371.655,-255.315 361.467,-258.22 371.243,-262.303 371.655,-255.315"/>
</g>
<!-- Node48&#45;&gt;Node27 -->
<g id="edge196" class="edge"><title>Node48&#45;&gt;Node27</title>
<path fill="none" stroke="midnightblue" d="M1299.26,-304.488C1284.23,-296.797 1266.48,-284.766 1257.76,-268 1226.6,-208.064 1212.05,-165.737 1257.76,-116 1292.95,-77.7201 1659.58,-70.5937 1778.06,-69.2878"/>
<polygon fill="midnightblue" stroke="midnightblue" points="1778.45,-72.7841 1788.41,-69.1818 1778.38,-65.7845 1778.45,-72.7841"/>
</g>
<!-- Node48&#45;&gt;Node32 -->
<g id="edge194" class="edge"><title>Node48&#45;&gt;Node32</title>
<path fill="none" stroke="midnightblue" d="M1350.26,-304.488C1365.3,-296.797 1383.05,-284.766 1391.76,-268 1400.67,-250.866 1398.42,-228.505 1394.86,-212.481"/>
<polygon fill="midnightblue" stroke="midnightblue" points="1398.18,-211.354 1392.3,-202.542 1391.4,-213.099 1398.18,-211.354"/>
</g>
<!-- Node49 -->
<g id="node143" class="node"><title>Node49</title>
<a xlink:href="_lorentz_vec_8h.html" target="_top" xlink:title="base/vec/LorentzVec.h">
<polygon fill="white" stroke="black" points="1266.26,-246.5 1266.26,-267.5 1383.26,-267.5 1383.26,-246.5 1266.26,-246.5"/>
<text text-anchor="middle" x="1324.76" y="-254.5" font-family="Helvetica,sans-Serif" font-size="10.00">base/vec/LorentzVec.h</text>
</a>
</g>
<!-- Node48&#45;&gt;Node49 -->
<g id="edge188" class="edge"><title>Node48&#45;&gt;Node49</title>
<path fill="none" stroke="midnightblue" d="M1324.76,-304.362C1324.76,-296.922 1324.76,-286.743 1324.76,-277.728"/>
<polygon fill="midnightblue" stroke="midnightblue" points="1328.26,-277.571 1324.76,-267.571 1321.26,-277.571 1328.26,-277.571"/>
</g>
<!-- Node49&#45;&gt;Node35 -->
<g id="edge190" class="edge"><title>Node49&#45;&gt;Node35</title>
<path fill="none" stroke="midnightblue" d="M1323.62,-246.362C1321.3,-224.841 1316.02,-175.807 1313,-147.74"/>
<polygon fill="midnightblue" stroke="midnightblue" points="1316.48,-147.353 1311.93,-137.785 1309.52,-148.103 1316.48,-147.353"/>
</g>
<!-- Node50&#45;&gt;Node7 -->
<g id="edge202" class="edge"><title>Node50&#45;&gt;Node7</title>
<path fill="none" stroke="midnightblue" d="M2516.04,-189.321C2472.11,-185.55 2388.8,-178.623 2317.76,-174 2162.78,-163.914 1768.68,-182.14 1619.76,-138 1601.05,-132.454 1600.49,-121.511 1581.76,-116 1490.66,-89.1777 815.647,-73.4675 640.949,-69.8226"/>
<polygon fill="midnightblue" stroke="midnightblue" points="640.948,-66.3219 630.878,-69.6143 640.803,-73.3204 640.948,-66.3219"/>
</g>
<!-- Node50&#45;&gt;Node10 -->
<g id="edge200" class="edge"><title>Node50&#45;&gt;Node10</title>
<path fill="none" stroke="midnightblue" d="M2569.41,-181.436C2574.76,-178.97 2580.45,-176.373 2585.76,-174 2660,-140.836 2747.68,-103.363 2794.78,-83.3755"/>
<polygon fill="midnightblue" stroke="midnightblue" points="2796.35,-86.5102 2804.19,-79.3836 2793.62,-80.0657 2796.35,-86.5102"/>
</g>
<!-- Node50&#45;&gt;Node13 -->
<g id="edge206" class="edge"><title>Node50&#45;&gt;Node13</title>
<path fill="none" stroke="midnightblue" d="M2546.15,-181.306C2544.53,-164.345 2538.72,-131.604 2517.76,-116 2511.61,-111.419 2038.48,-79.4304 1913.02,-71.0213"/>
<polygon fill="midnightblue" stroke="midnightblue" points="1913.17,-67.5234 1902.95,-70.3473 1912.7,-74.5078 1913.17,-67.5234"/>
</g>
<!-- Node50&#45;&gt;Node19 -->
<g id="edge208" class="edge"><title>Node50&#45;&gt;Node19</title>
<path fill="none" stroke="midnightblue" d="M2536.2,-181.267C2526.41,-171.328 2511.68,-156.363 2500.16,-144.664"/>
<polygon fill="midnightblue" stroke="midnightblue" points="2502.65,-142.204 2493.14,-137.534 2497.66,-147.115 2502.65,-142.204"/>
</g>
<!-- Node50&#45;&gt;Node20 -->
<g id="edge204" class="edge"><title>Node50&#45;&gt;Node20</title>
<path fill="none" stroke="midnightblue" d="M2567.02,-181.472C2572.94,-178.721 2579.51,-175.977 2585.76,-174 2669.48,-147.557 2773.39,-134.334 2820.06,-129.381"/>
<polygon fill="midnightblue" stroke="midnightblue" points="2820.54,-132.849 2830.13,-128.346 2819.83,-125.886 2820.54,-132.849"/>
</g>
<!-- Node51&#45;&gt;Node7 -->
<g id="edge214" class="edge"><title>Node51&#45;&gt;Node7</title>
<path fill="none" stroke="midnightblue" d="M1982.04,-189.178C1876.74,-179.161 1525.1,-145.501 1474.76,-138 1425.02,-130.587 1413.64,-122.447 1363.76,-116 1089.31,-80.5224 755.81,-71.6632 640.946,-69.5926"/>
<polygon fill="midnightblue" stroke="midnightblue" points="640.895,-66.0913 630.836,-69.418 640.774,-73.0903 640.895,-66.0913"/>
</g>
<!-- Node51&#45;&gt;Node10 -->
<g id="edge212" class="edge"><title>Node51&#45;&gt;Node10</title>
<path fill="none" stroke="midnightblue" d="M2038.7,-181.444C2046.67,-178.659 2055.48,-175.903 2063.76,-174 2195.94,-143.644 2233.64,-163.843 2366.76,-138 2403.39,-130.891 2411.09,-122.831 2447.76,-116 2597.34,-88.1403 2641.86,-111.721 2793.89,-80.0472"/>
<polygon fill="midnightblue" stroke="midnightblue" points="2795.01,-83.3871 2804.06,-77.8799 2793.55,-76.5408 2795.01,-83.3871"/>
</g>
<!-- Node51&#45;&gt;Node19 -->
<g id="edge222" class="edge"><title>Node51&#45;&gt;Node19</title>
<path fill="none" stroke="midnightblue" d="M2033.65,-181.378C2040.3,-178.557 2047.71,-175.798 2054.76,-174 2206.3,-135.392 2249.54,-156.922 2404.76,-138 2418.37,-136.342 2433.27,-134.296 2446.38,-132.421"/>
<polygon fill="midnightblue" stroke="midnightblue" points="2447.05,-135.86 2456.44,-130.964 2446.04,-128.933 2447.05,-135.86"/>
</g>
<!-- Node51&#45;&gt;Node20 -->
<g id="edge220" class="edge"><title>Node51&#45;&gt;Node20</title>
<path fill="none" stroke="midnightblue" d="M2041.37,-188.997C2078.73,-185.253 2144.97,-178.765 2201.76,-174 2442.19,-153.827 2733.6,-134.304 2819.69,-128.638"/>
<polygon fill="midnightblue" stroke="midnightblue" points="2820.05,-132.122 2829.8,-127.974 2819.59,-125.137 2820.05,-132.122"/>
</g>
<!-- Node51&#45;&gt;Node35 -->
<g id="edge218" class="edge"><title>Node51&#45;&gt;Node35</title>
<path fill="none" stroke="midnightblue" d="M1982.15,-189.169C1944.77,-185.602 1878.51,-179.297 1821.76,-174 1655.68,-158.495 1459.2,-140.529 1365.62,-131.996"/>
<polygon fill="midnightblue" stroke="midnightblue" points="1365.82,-128.499 1355.54,-131.077 1365.18,-135.47 1365.82,-128.499"/>
</g>
<!-- Node51&#45;&gt;Node38 -->
<g id="edge216" class="edge"><title>Node51&#45;&gt;Node38</title>
<path fill="none" stroke="midnightblue" d="M1982.19,-186.174C1929.04,-175.705 1816.28,-153.495 1745.03,-139.461"/>
<polygon fill="midnightblue" stroke="midnightblue" points="1745.32,-135.951 1734.83,-137.452 1743.96,-142.819 1745.32,-135.951"/>
</g>
<!-- Node52&#45;&gt;Node16 -->
<g id="edge242" class="edge"><title>Node52&#45;&gt;Node16</title>
<path fill="none" stroke="midnightblue" d="M1947.08,-256.702C2085.69,-255.173 2640.06,-246.788 2707.76,-210 2742.68,-191.028 2747.28,-175.377 2760.76,-138 2766.36,-122.503 2767.1,-103.782 2766.59,-89.7522"/>
<polygon fill="midnightblue" stroke="midnightblue" points="2770.08,-89.4281 2765.98,-79.6578 2763.09,-89.8511 2770.08,-89.4281"/>
</g>
<!-- Node52&#45;&gt;Node19 -->
<g id="edge250" class="edge"><title>Node52&#45;&gt;Node19</title>
<path fill="none" stroke="midnightblue" d="M1946.77,-246.707C1998.93,-229.685 2107.75,-195.427 2201.76,-174 2247.79,-163.51 2381.4,-142.534 2446.4,-132.541"/>
<polygon fill="midnightblue" stroke="midnightblue" points="2447.23,-135.954 2456.59,-130.978 2446.17,-129.035 2447.23,-135.954"/>
</g>
<!-- Node52&#45;&gt;Node27 -->
<g id="edge248" class="edge"><title>Node52&#45;&gt;Node27</title>
<path fill="none" stroke="midnightblue" d="M1912.62,-246.213C1909.88,-236.713 1905.88,-222.485 1902.76,-210 1892.39,-168.469 1905.56,-151.584 1881.76,-116 1873.06,-102.979 1859.42,-92.457 1846.72,-84.6959"/>
<polygon fill="midnightblue" stroke="midnightblue" points="1848.14,-81.4734 1837.72,-79.5364 1844.66,-87.5463 1848.14,-81.4734"/>
</g>
<!-- Node52&#45;&gt;Node32 -->
<g id="edge246" class="edge"><title>Node52&#45;&gt;Node32</title>
<path fill="none" stroke="midnightblue" d="M1884.73,-254.839C1812.28,-249.548 1626.47,-234.551 1472.76,-210 1456.61,-207.42 1438.88,-203.746 1423.89,-200.39"/>
<polygon fill="midnightblue" stroke="midnightblue" points="1424.53,-196.946 1414,-198.134 1422.97,-203.77 1424.53,-196.946"/>
</g>
<!-- Node52&#45;&gt;Node34 -->
<g id="edge226" class="edge"><title>Node52&#45;&gt;Node34</title>
<path fill="none" stroke="midnightblue" d="M1884.38,-248.893C1879.83,-247.844 1875.19,-246.844 1870.76,-246 1755.74,-224.068 1725.02,-230.718 1609.76,-210 1601.11,-208.444 1591.98,-206.608 1583.09,-204.712"/>
<polygon fill="midnightblue" stroke="midnightblue" points="1583.71,-201.265 1573.2,-202.558 1582.22,-208.105 1583.71,-201.265"/>
</g>
<!-- Node52&#45;&gt;Node35 -->
<g id="edge240" class="edge"><title>Node52&#45;&gt;Node35</title>
<path fill="none" stroke="midnightblue" d="M1884.64,-252.21C1839.79,-244.966 1754.58,-229.928 1683.76,-210 1638.7,-197.317 1630.02,-186.006 1584.76,-174 1509.89,-154.135 1421.19,-140.704 1365.44,-133.448"/>
<polygon fill="midnightblue" stroke="midnightblue" points="1365.79,-129.964 1355.42,-132.165 1364.9,-136.907 1365.79,-129.964"/>
</g>
<!-- Node52&#45;&gt;Node37 -->
<g id="edge244" class="edge"><title>Node52&#45;&gt;Node37</title>
<path fill="none" stroke="midnightblue" d="M1919.89,-246.121C1931.73,-212.842 1961.88,-111.438 1911.76,-58 1875.82,-19.6652 1501.31,-12.5494 1388.04,-11.271"/>
<polygon fill="midnightblue" stroke="midnightblue" points="1387.95,-7.76993 1377.92,-11.1646 1387.88,-14.7695 1387.95,-7.76993"/>
</g>
<!-- Node52&#45;&gt;Node38 -->
<g id="edge228" class="edge"><title>Node52&#45;&gt;Node38</title>
<path fill="none" stroke="midnightblue" d="M1884.32,-249.207C1879.77,-248.112 1875.15,-247.015 1870.76,-246 1797.64,-229.087 1760.58,-261.276 1705.76,-210 1688.64,-193.981 1683.48,-166.578 1682.06,-147.666"/>
<polygon fill="midnightblue" stroke="midnightblue" points="1685.55,-147.488 1681.59,-137.662 1678.56,-147.815 1685.55,-147.488"/>
</g>
<!-- Node53 -->
<g id="node168" class="node"><title>Node53</title>
<a xlink:href="shared__ptr__container_8h.html" target="_top" xlink:title="base/std_ext/shared\l_ptr_container.h">
<polygon fill="white" stroke="black" points="2594.26,-175 2594.26,-209 2699.26,-209 2699.26,-175 2594.26,-175"/>
<text text-anchor="start" x="2602.26" y="-196" font-family="Helvetica,sans-Serif" font-size="10.00">base/std_ext/shared</text>
<text text-anchor="middle" x="2646.76" y="-183" font-family="Helvetica,sans-Serif" font-size="10.00">_ptr_container.h</text>
</a>
</g>
<!-- Node52&#45;&gt;Node53 -->
<g id="edge230" class="edge"><title>Node52&#45;&gt;Node53</title>
<path fill="none" stroke="midnightblue" d="M1947.01,-255.709C2059.06,-250.943 2441.24,-233.474 2583.79,-210.088"/>
<polygon fill="midnightblue" stroke="midnightblue" points="2584.77,-213.47 2594.03,-208.321 2583.58,-206.572 2584.77,-213.47"/>
</g>
<!-- Node53&#45;&gt;Node11 -->
<g id="edge238" class="edge"><title>Node53&#45;&gt;Node11</title>
<path fill="none" stroke="midnightblue" d="M2630.94,-174.829C2613.27,-156.875 2582.92,-129.474 2550.76,-116 2490.09,-90.5749 2295.09,-76.2367 2211.92,-71.144"/>
<polygon fill="midnightblue" stroke="midnightblue" points="2212.08,-67.647 2201.88,-70.5412 2211.66,-74.6344 2212.08,-67.647"/>
</g>
<!-- Node53&#45;&gt;Node16 -->
<g id="edge232" class="edge"><title>Node53&#45;&gt;Node16</title>
<path fill="none" stroke="midnightblue" d="M2690.72,-174.896C2708.34,-166.151 2727.55,-153.94 2740.76,-138 2752.12,-124.304 2758.23,-104.905 2761.44,-90.1627"/>
<polygon fill="midnightblue" stroke="midnightblue" points="2764.95,-90.4444 2763.37,-79.9682 2758.07,-89.1438 2764.95,-90.4444"/>
</g>
<!-- Node53&#45;&gt;Node19 -->
<g id="edge234" class="edge"><title>Node53&#45;&gt;Node19</title>
<path fill="none" stroke="midnightblue" d="M2603.68,-174.922C2577.2,-164.429 2543.68,-151.144 2518.65,-141.224"/>
<polygon fill="midnightblue" stroke="midnightblue" points="2519.76,-137.897 2509.17,-137.466 2517.18,-144.404 2519.76,-137.897"/>
</g>
<!-- Node53&#45;&gt;Node54 -->
<g id="edge236" class="edge"><title>Node53&#45;&gt;Node54</title>
<path fill="none" stroke="midnightblue" d="M2699.42,-184.749C2724.88,-181.328 2755.89,-177.286 2783.76,-174 2935.01,-156.169 3115.27,-138.388 3193.85,-130.809"/>
<polygon fill="midnightblue" stroke="midnightblue" points="3194.63,-134.251 3204.25,-129.809 3193.96,-127.283 3194.63,-134.251"/>
</g>
<!-- Node55&#45;&gt;Node11 -->
<g id="edge266" class="edge"><title>Node55&#45;&gt;Node11</title>
<path fill="none" stroke="midnightblue" d="M2093.3,-304.267C2103,-295.646 2115.29,-282.6 2120.76,-268 2135.43,-228.881 2143.98,-208.733 2120.76,-174 2097.51,-139.21 2057.02,-172.79 2033.76,-138 2028.33,-129.871 2028.06,-123.938 2033.76,-116 2045.84,-99.2092 2098.3,-84.9153 2135.44,-76.6398"/>
<polygon fill="midnightblue" stroke="midnightblue" points="2136.44,-80.006 2145.47,-74.4681 2134.95,-73.1647 2136.44,-80.006"/>
</g>
<!-- Node55&#45;&gt;Node16 -->
<g id="edge258" class="edge"><title>Node55&#45;&gt;Node16</title>
<path fill="none" stroke="midnightblue" d="M2117.31,-313.44C2289.77,-305.96 3000.78,-271.562 3076.76,-210 3110.27,-182.857 3129.41,-148.226 3100.76,-116 3057.28,-67.0833 2877.83,-93.142 2796.78,-79.5128"/>
<polygon fill="midnightblue" stroke="midnightblue" points="2797.43,-76.0741 2786.94,-77.5373 2796.05,-82.9371 2797.43,-76.0741"/>
</g>
<!-- Node55&#45;&gt;Node19 -->
<g id="edge264" class="edge"><title>Node55&#45;&gt;Node19</title>
<path fill="none" stroke="midnightblue" d="M2104.97,-304.378C2148.62,-285.871 2240.98,-246.224 2317.76,-210 2365.8,-187.338 2420.76,-159.252 2453.57,-142.25"/>
<polygon fill="midnightblue" stroke="midnightblue" points="2455.34,-145.27 2462.61,-137.555 2452.12,-139.058 2455.34,-145.27"/>
</g>
<!-- Node55&#45;&gt;Node27 -->
<g id="edge262" class="edge"><title>Node55&#45;&gt;Node27</title>
<path fill="none" stroke="midnightblue" d="M2080.55,-304.451C2081.86,-279.017 2081.72,-213.501 2049.76,-174 2023.4,-141.403 1909.43,-100.179 1850.44,-80.4884"/>
<polygon fill="midnightblue" stroke="midnightblue" points="1851.38,-77.1116 1840.78,-77.2931 1849.18,-83.7573 1851.38,-77.1116"/>
</g>
<!-- Node55&#45;&gt;Node32 -->
<g id="edge260" class="edge"><title>Node55&#45;&gt;Node32</title>
<path fill="none" stroke="midnightblue" d="M2042.16,-313.589C1917.09,-308.695 1520.09,-291.453 1467.76,-268 1440,-255.558 1416.11,-229.024 1402.08,-210.846"/>
<polygon fill="midnightblue" stroke="midnightblue" points="1404.79,-208.623 1396.01,-202.692 1399.17,-212.804 1404.79,-208.623"/>
</g>
<!-- Node55&#45;&gt;Node34 -->
<g id="edge256" class="edge"><title>Node55&#45;&gt;Node34</title>
<path fill="none" stroke="midnightblue" d="M2041.89,-306.546C1947.01,-285.366 1698.69,-229.934 1585.94,-204.763"/>
<polygon fill="midnightblue" stroke="midnightblue" points="1586.63,-201.331 1576.11,-202.568 1585.1,-208.163 1586.63,-201.331"/>
</g>
<!-- Node55&#45;&gt;Node52 -->
<g id="edge254" class="edge"><title>Node55&#45;&gt;Node52</title>
<path fill="none" stroke="midnightblue" d="M2050.07,-304.497C2023.44,-295.082 1984.2,-281.204 1955,-270.877"/>
<polygon fill="midnightblue" stroke="midnightblue" points="1956.11,-267.558 1945.52,-267.523 1953.78,-274.157 1956.11,-267.558"/>
</g>
<!-- Node56&#45;&gt;Node7 -->
<g id="edge272" class="edge"><title>Node56&#45;&gt;Node7</title>
<path fill="none" stroke="midnightblue" d="M2763.58,-372.506C2557.79,-369.281 1429.93,-350.584 1278.76,-326 1173.43,-308.869 1048.76,-363.723 1048.76,-257 1048.76,-257 1048.76,-257 1048.76,-192 1048.76,-157.183 1056,-138.888 1029.76,-116 1000.8,-90.7293 743.091,-75.8162 641.077,-70.8582"/>
<polygon fill="midnightblue" stroke="midnightblue" points="641.004,-67.3508 630.848,-70.3692 640.669,-74.3428 641.004,-67.3508"/>
</g>
<!-- Node56&#45;&gt;Node10 -->
<g id="edge274" class="edge"><title>Node56&#45;&gt;Node10</title>
<path fill="none" stroke="midnightblue" d="M2828.15,-370.574C2952.79,-360.49 3398.57,-317.285 3478.76,-210 3491.43,-193.055 3468.36,-117.401 3466.76,-116 3443.93,-95.9626 2993.88,-75.8361 2863.73,-70.4163"/>
<polygon fill="midnightblue" stroke="midnightblue" points="2863.67,-66.9107 2853.53,-69.9944 2863.38,-73.9047 2863.67,-66.9107"/>
</g>
<!-- Node56&#45;&gt;Node16 -->
<g id="edge308" class="edge"><title>Node56&#45;&gt;Node16</title>
<path fill="none" stroke="midnightblue" d="M2827.8,-369.175C2864.95,-363.731 2927.16,-351.44 2974.76,-326 3075.02,-272.426 3196.59,-200.689 3120.76,-116 3074.19,-63.9789 2882.42,-93.7059 2796.83,-79.514"/>
<polygon fill="midnightblue" stroke="midnightblue" points="2797.42,-76.0638 2786.93,-77.5571 2796.06,-82.9308 2797.42,-76.0638"/>
</g>
<!-- Node56&#45;&gt;Node19 -->
<g id="edge314" class="edge"><title>Node56&#45;&gt;Node19</title>
<path fill="none" stroke="midnightblue" d="M2781.43,-362.448C2749.59,-339.306 2670.02,-283.197 2597.76,-246 2559.46,-226.282 2536.86,-241.773 2507.76,-210 2492.04,-192.824 2486.19,-166.082 2484.02,-147.617"/>
<polygon fill="midnightblue" stroke="midnightblue" points="2487.5,-147.235 2483.11,-137.593 2480.53,-147.869 2487.5,-147.235"/>
</g>
<!-- Node56&#45;&gt;Node20 -->
<g id="edge310" class="edge"><title>Node56&#45;&gt;Node20</title>
<path fill="none" stroke="midnightblue" d="M2808.11,-362.33C2834.79,-338.36 2897.2,-277.064 2919.76,-210 2924.87,-194.835 2927.51,-187.999 2919.76,-174 2918.28,-171.324 2889.62,-153.789 2868.17,-140.918"/>
<polygon fill="midnightblue" stroke="midnightblue" points="2869.9,-137.873 2859.52,-135.744 2866.3,-143.881 2869.9,-137.873"/>
</g>
<!-- Node56&#45;&gt;Node49 -->
<g id="edge306" class="edge"><title>Node56&#45;&gt;Node49</title>
<path fill="none" stroke="midnightblue" d="M2763.43,-371.405C2658.22,-366.13 2316.2,-348.309 2033.76,-326 1765.8,-304.834 1699.24,-294.633 1431.76,-268 1419.37,-266.766 1406.18,-265.429 1393.44,-264.126"/>
<polygon fill="midnightblue" stroke="midnightblue" points="1393.65,-260.629 1383.35,-263.091 1392.94,-267.593 1393.65,-260.629"/>
</g>
<!-- Node56&#45;&gt;Node55 -->
<g id="edge270" class="edge"><title>Node56&#45;&gt;Node55</title>
<path fill="none" stroke="midnightblue" d="M2763.73,-364.627C2759.07,-363.617 2754.31,-362.698 2749.76,-362 2518.36,-326.464 2237.82,-317.759 2127.55,-315.657"/>
<polygon fill="midnightblue" stroke="midnightblue" points="2127.48,-312.155 2117.41,-315.473 2127.35,-319.154 2127.48,-312.155"/>
</g>
<!-- Node57 -->
<g id="node195" class="node"><title>Node57</title>
<a xlink:href="_particle_type_8h.html" target="_top" xlink:title="base/ParticleType.h">
<polygon fill="white" stroke="black" points="3365.76,-181.5 3365.76,-202.5 3469.76,-202.5 3469.76,-181.5 3365.76,-181.5"/>
<text text-anchor="middle" x="3417.76" y="-189.5" font-family="Helvetica,sans-Serif" font-size="10.00">base/ParticleType.h</text>
</a>
</g>
<!-- Node56&#45;&gt;Node57 -->
<g id="edge276" class="edge"><title>Node56&#45;&gt;Node57</title>
<path fill="none" stroke="midnightblue" d="M2827.96,-368.338C2874.81,-361.201 2964.34,-346.235 3038.76,-326 3167.84,-290.909 3316.08,-233.252 3382.44,-206.488"/>
<polygon fill="midnightblue" stroke="midnightblue" points="3384.04,-209.615 3392,-202.618 3381.42,-203.127 3384.04,-209.615"/>
</g>
<!-- Node60 -->
<g id="node206" class="node"><title>Node60</title>
<a xlink:href="_tree_8h.html" target="_top" xlink:title="base/Tree.h">
<polygon fill="white" stroke="black" points="2966.76,-181.5 2966.76,-202.5 3034.76,-202.5 3034.76,-181.5 2966.76,-181.5"/>
<text text-anchor="middle" x="3000.76" y="-189.5" font-family="Helvetica,sans-Serif" font-size="10.00">base/Tree.h</text>
</a>
</g>
<!-- Node56&#45;&gt;Node60 -->
<g id="edge292" class="edge"><title>Node56&#45;&gt;Node60</title>
<path fill="none" stroke="midnightblue" d="M2827.89,-366.936C2868.35,-358.714 2934.75,-343.081 2952.76,-326 2984.88,-295.544 2995.55,-242.107 2999.07,-212.758"/>
<polygon fill="midnightblue" stroke="midnightblue" points="3002.55,-213.092 3000.09,-202.787 2995.59,-212.376 3002.55,-213.092"/>
</g>
<!-- Node62 -->
<g id="node218" class="node"><title>Node62</title>
<polygon fill="white" stroke="#bfbfbf" points="2768.76,-304.5 2768.76,-325.5 2822.76,-325.5 2822.76,-304.5 2768.76,-304.5"/>
<text text-anchor="middle" x="2795.76" y="-312.5" font-family="Helvetica,sans-Serif" font-size="10.00">iostream</text>
</g>
<!-- Node56&#45;&gt;Node62 -->
<g id="edge312" class="edge"><title>Node56&#45;&gt;Node62</title>
<path fill="none" stroke="midnightblue" d="M2795.76,-362.362C2795.76,-354.922 2795.76,-344.743 2795.76,-335.728"/>
<polygon fill="midnightblue" stroke="midnightblue" points="2799.26,-335.571 2795.76,-325.571 2792.26,-335.571 2799.26,-335.571"/>
</g>
<!-- Node57&#45;&gt;Node6 -->
<g id="edge280" class="edge"><title>Node57&#45;&gt;Node6</title>
<path fill="none" stroke="midnightblue" d="M3365.73,-182.37C3346.34,-179.157 3324.11,-175.911 3303.76,-174 2788.21,-125.574 2650.53,-202.383 2132.74,-137.884"/>
<polygon fill="midnightblue" stroke="midnightblue" points="2133.12,-134.405 2122.77,-136.631 2132.25,-141.351 2133.12,-134.405"/>
</g>
<!-- Node57&#45;&gt;Node9 -->
<g id="edge284" class="edge"><title>Node57&#45;&gt;Node9</title>
<path fill="none" stroke="midnightblue" d="M3444.03,-181.494C3475.21,-167.534 3520.41,-141.638 3498.76,-116 3399.59,1.46585 3310.82,-72.4382 3157.76,-58 2752.15,-19.7367 1732.04,-32.4919 1324.76,-22 1212.35,-19.1042 1079.38,-14.5436 1016.38,-12.3146"/>
<polygon fill="midnightblue" stroke="midnightblue" points="1016.28,-8.80907 1006.16,-11.9519 1016.03,-15.8047 1016.28,-8.80907"/>
</g>
<!-- Node57&#45;&gt;Node10 -->
<g id="edge278" class="edge"><title>Node57&#45;&gt;Node10</title>
<path fill="none" stroke="midnightblue" d="M3428.68,-181.41C3443.83,-165.459 3467.48,-135.107 3449.76,-116 3429.68,-94.3348 2991.07,-75.3987 2863.36,-70.3288"/>
<polygon fill="midnightblue" stroke="midnightblue" points="2863.47,-66.8306 2853.34,-69.9343 2863.2,-73.8252 2863.47,-66.8306"/>
</g>
<!-- Node57&#45;&gt;Node16 -->
<g id="edge290" class="edge"><title>Node57&#45;&gt;Node16</title>
<path fill="none" stroke="midnightblue" d="M3404.46,-181.293C3382.1,-164 3334.92,-130.41 3288.76,-116 3082.23,-51.5116 3012.87,-122.912 2796.97,-79.7335"/>
<polygon fill="midnightblue" stroke="midnightblue" points="2797.41,-76.2509 2786.91,-77.6605 2796,-83.1068 2797.41,-76.2509"/>
</g>
<!-- Node57&#45;&gt;Node17 -->
<g id="edge282" class="edge"><title>Node57&#45;&gt;Node17</title>
<path fill="none" stroke="midnightblue" d="M3438.3,-181.358C3464.19,-166.598 3503.01,-139.116 3482.76,-116 3461.55,-91.7878 3241.79,-75.9284 3159.58,-70.8037"/>
<polygon fill="midnightblue" stroke="midnightblue" points="3159.56,-67.2963 3149.37,-70.1786 3159.13,-74.2832 3159.56,-67.2963"/>
</g>
<!-- Node57&#45;&gt;Node58 -->
<g id="edge286" class="edge"><title>Node57&#45;&gt;Node58</title>
<path fill="none" stroke="midnightblue" d="M3365.73,-182.344C3346.35,-179.128 3324.11,-175.887 3303.76,-174 2741.51,-121.859 2597.86,-163.418 2033.76,-138 1980.74,-135.611 1918.9,-131.488 1883.84,-129.025"/>
<polygon fill="midnightblue" stroke="midnightblue" points="1883.66,-125.504 1873.44,-128.288 1883.17,-132.487 1883.66,-125.504"/>
</g>
<!-- Node59 -->
<g id="node203" class="node"><title>Node59</title>
<polygon fill="white" stroke="#bfbfbf" points="3394.26,-116.5 3394.26,-137.5 3441.26,-137.5 3441.26,-116.5 3394.26,-116.5"/>
<text text-anchor="middle" x="3417.76" y="-124.5" font-family="Helvetica,sans-Serif" font-size="10.00">iterator</text>
</g>
<!-- Node57&#45;&gt;Node59 -->
<g id="edge288" class="edge"><title>Node57&#45;&gt;Node59</title>
<path fill="none" stroke="midnightblue" d="M3417.76,-181.267C3417.76,-172.18 3417.76,-158.892 3417.76,-147.74"/>
<polygon fill="midnightblue" stroke="midnightblue" points="3421.26,-147.534 3417.76,-137.534 3414.26,-147.534 3421.26,-147.534"/>
</g>
<!-- Node60&#45;&gt;Node11 -->
<g id="edge302" class="edge"><title>Node60&#45;&gt;Node11</title>
<path fill="none" stroke="midnightblue" d="M2979.77,-181.383C2959.31,-170.873 2927.48,-154.07 2900.76,-138 2885.66,-128.914 2884.45,-121.675 2867.76,-116 2805.64,-94.8712 2348.69,-75.7386 2212.17,-70.4447"/>
<polygon fill="midnightblue" stroke="midnightblue" points="2211.93,-66.9328 2201.8,-70.0453 2211.66,-73.9276 2211.93,-66.9328"/>
</g>
<!-- Node60&#45;&gt;Node16 -->
<g id="edge300" class="edge"><title>Node60&#45;&gt;Node16</title>
<path fill="none" stroke="midnightblue" d="M2989.31,-181.303C2971.55,-165.213 2935.78,-134.681 2900.76,-116 2859.87,-94.1848 2844.25,-95.9266 2796.43,-80.1256"/>
<polygon fill="midnightblue" stroke="midnightblue" points="2797.36,-76.7457 2786.77,-76.841 2795.11,-83.3733 2797.36,-76.7457"/>
</g>
<!-- Node60&#45;&gt;Node19 -->
<g id="edge296" class="edge"><title>Node60&#45;&gt;Node19</title>
<path fill="none" stroke="midnightblue" d="M2966.64,-183.53C2952.24,-180.188 2935.26,-176.547 2919.76,-174 2772.29,-149.76 2594.67,-135.099 2519.36,-129.549"/>
<polygon fill="midnightblue" stroke="midnightblue" points="2519.24,-126.031 2509.01,-128.796 2518.73,-133.012 2519.24,-126.031"/>
</g>
<!-- Node60&#45;&gt;Node20 -->
<g id="edge298" class="edge"><title>Node60&#45;&gt;Node20</title>
<path fill="none" stroke="midnightblue" d="M2975.35,-181.412C2945.85,-169.119 2897.56,-148.998 2868.7,-136.974"/>
<polygon fill="midnightblue" stroke="midnightblue" points="2869.94,-133.7 2859.37,-133.084 2867.25,-140.161 2869.94,-133.7"/>
</g>
<!-- Node60&#45;&gt;Node43 -->
<g id="edge304" class="edge"><title>Node60&#45;&gt;Node43</title>
<path fill="none" stroke="midnightblue" d="M2966.73,-182.919C2952.35,-179.479 2935.35,-175.929 2919.76,-174 2346.14,-102.984 2195.39,-190.351 1619.76,-138 1607.88,-136.919 1594.95,-135.109 1583.43,-133.266"/>
<polygon fill="midnightblue" stroke="midnightblue" points="1583.75,-129.771 1573.31,-131.584 1582.61,-136.676 1583.75,-129.771"/>
</g>
<!-- Node61 -->
<g id="node208" class="node"><title>Node61</title>
<polygon fill="white" stroke="#bfbfbf" points="2952.76,-116.5 2952.76,-137.5 3072.76,-137.5 3072.76,-116.5 2952.76,-116.5"/>
<text text-anchor="middle" x="3012.76" y="-124.5" font-family="Helvetica,sans-Serif" font-size="10.00">base/cereal/access.hpp</text>
</g>
<!-- Node60&#45;&gt;Node61 -->
<g id="edge294" class="edge"><title>Node60&#45;&gt;Node61</title>
<path fill="none" stroke="midnightblue" d="M3002.75,-181.267C3004.44,-172.085 3006.93,-158.615 3009,-147.392"/>
<polygon fill="midnightblue" stroke="midnightblue" points="3012.45,-148.003 3010.82,-137.534 3005.56,-146.732 3012.45,-148.003"/>
</g>
<!-- Node63&#45;&gt;Node17 -->
<g id="edge318" class="edge"><title>Node63&#45;&gt;Node17</title>
<path fill="none" stroke="midnightblue" d="M1812.95,-187.358C1855.49,-183.446 1918.65,-177.881 1973.76,-174 2263.71,-153.586 2337.44,-165.813 2626.76,-138 2805.74,-120.795 3018.92,-87.0805 3097.6,-74.1852"/>
<polygon fill="midnightblue" stroke="midnightblue" points="3098.5,-77.5853 3107.79,-72.5077 3097.36,-70.6782 3098.5,-77.5853"/>
</g>
<!-- Node63&#45;&gt;Node19 -->
<g id="edge320" class="edge"><title>Node63&#45;&gt;Node19</title>
<path fill="none" stroke="midnightblue" d="M1812.9,-187.558C1948.77,-175.275 2327.32,-141.053 2446.41,-130.286"/>
<polygon fill="midnightblue" stroke="midnightblue" points="2446.83,-133.763 2456.47,-129.377 2446.2,-126.791 2446.83,-133.763"/>
</g>
<!-- Node63&#45;&gt;Node27 -->
<g id="edge326" class="edge"><title>Node63&#45;&gt;Node27</title>
<path fill="none" stroke="midnightblue" d="M1769.85,-181.479C1775.89,-170.766 1785.18,-153.562 1791.76,-138 1798.44,-122.216 1804.5,-103.774 1808.72,-89.9296"/>
<polygon fill="midnightblue" stroke="midnightblue" points="1812.2,-90.5333 1811.69,-79.9504 1805.49,-88.5371 1812.2,-90.5333"/>
</g>
<!-- Node63&#45;&gt;Node58 -->
<g id="edge322" class="edge"><title>Node63&#45;&gt;Node58</title>
<path fill="none" stroke="midnightblue" d="M1778.96,-181.267C1793.56,-170.949 1815.83,-155.216 1832.63,-143.342"/>
<polygon fill="midnightblue" stroke="midnightblue" points="1834.71,-146.163 1840.86,-137.534 1830.67,-140.446 1834.71,-146.163"/>
</g>
<!-- Node64 -->
<g id="node226" class="node"><title>Node64</title>
<polygon fill="white" stroke="#bfbfbf" points="1752.76,-116.5 1752.76,-137.5 1782.76,-137.5 1782.76,-116.5 1752.76,-116.5"/>
<text text-anchor="middle" x="1767.76" y="-124.5" font-family="Helvetica,sans-Serif" font-size="10.00">set</text>
</g>
<!-- Node63&#45;&gt;Node64 -->
<g id="edge324" class="edge"><title>Node63&#45;&gt;Node64</title>
<path fill="none" stroke="midnightblue" d="M1764.43,-181.267C1764.98,-172.18 1765.8,-158.892 1766.49,-147.74"/>
<polygon fill="midnightblue" stroke="midnightblue" points="1770,-147.73 1767.12,-137.534 1763.01,-147.3 1770,-147.73"/>
</g>
<!-- Node65&#45;&gt;Node16 -->
<g id="edge334" class="edge"><title>Node65&#45;&gt;Node16</title>
<path fill="none" stroke="midnightblue" d="M3263.03,-174.752C3274.38,-157.775 3286.71,-132.116 3271.76,-116 3237.32,-78.8538 2881.81,-89.8264 2797.02,-79.29"/>
<polygon fill="midnightblue" stroke="midnightblue" points="2797.34,-75.7971 2786.91,-77.6533 2796.22,-82.707 2797.34,-75.7971"/>
</g>
<!-- Node65&#45;&gt;Node17 -->
<g id="edge330" class="edge"><title>Node65&#45;&gt;Node17</title>
<path fill="none" stroke="midnightblue" d="M3276.28,-174.893C3297.04,-159.355 3320.04,-135.893 3304.76,-116 3287.16,-93.079 3204.99,-78.9304 3159.41,-72.7111"/>
<polygon fill="midnightblue" stroke="midnightblue" points="3159.85,-69.2383 3149.48,-71.4017 3158.93,-76.1783 3159.85,-69.2383"/>
</g>
<!-- Node65&#45;&gt;Node19 -->
<g id="edge336" class="edge"><title>Node65&#45;&gt;Node19</title>
<path fill="none" stroke="midnightblue" d="M3203.95,-187.95C3162.21,-184.27 3098.85,-178.714 3043.76,-174 2845.61,-157.043 2608.04,-137.349 2518.89,-129.982"/>
<polygon fill="midnightblue" stroke="midnightblue" points="2519.03,-126.481 2508.77,-129.146 2518.45,-133.457 2519.03,-126.481"/>
</g>
<!-- Node65&#45;&gt;Node20 -->
<g id="edge332" class="edge"><title>Node65&#45;&gt;Node20</title>
<path fill="none" stroke="midnightblue" d="M3204.09,-184.67C3118.26,-170.895 2935.58,-141.575 2869.37,-130.949"/>
<polygon fill="midnightblue" stroke="midnightblue" points="2869.86,-127.483 2859.43,-129.354 2868.75,-134.395 2869.86,-127.483"/>
</g>
<!-- Node65&#45;&gt;Node22 -->
<g id="edge340" class="edge"><title>Node65&#45;&gt;Node22</title>
<path fill="none" stroke="midnightblue" d="M3204.01,-187.028C3162.31,-182.728 3098.98,-176.778 3043.76,-174 1850.5,-113.958 1548.72,-203.937 355.765,-138 330.902,-136.626 303.061,-133.929 281.234,-131.55"/>
<polygon fill="midnightblue" stroke="midnightblue" points="281.368,-128.043 271.042,-130.415 280.593,-135 281.368,-128.043"/>
</g>
<!-- Node65&#45;&gt;Node54 -->
<g id="edge338" class="edge"><title>Node65&#45;&gt;Node54</title>
<path fill="none" stroke="midnightblue" d="M3245.56,-174.922C3243.51,-166.579 3241.02,-156.47 3238.86,-147.692"/>
<polygon fill="midnightblue" stroke="midnightblue" points="3242.22,-146.726 3236.44,-137.852 3235.43,-148.399 3242.22,-146.726"/>
</g>
<!-- Node70 -->
<g id="node253" class="node"><title>Node70</title>
<polygon fill="white" stroke="#bfbfbf" points="2749.26,-478.5 2749.26,-499.5 2864.26,-499.5 2864.26,-478.5 2749.26,-478.5"/>
<text text-anchor="middle" x="2806.76" y="-486.5" font-family="Helvetica,sans-Serif" font-size="10.00">detail/easylogging++.h</text>
</g>
<!-- Node69&#45;&gt;Node70 -->
<g id="edge366" class="edge"><title>Node69&#45;&gt;Node70</title>
<path fill="none" stroke="midnightblue" d="M2799.42,-536.362C2800.57,-528.922 2802.15,-518.743 2803.55,-509.728"/>
<polygon fill="midnightblue" stroke="midnightblue" points="2807.05,-509.989 2805.12,-499.571 2800.13,-508.916 2807.05,-509.989"/>
</g>
<!-- Node71&#45;&gt;Node55 -->
<g id="edge370" class="edge"><title>Node71&#45;&gt;Node55</title>
<path fill="none" stroke="midnightblue" d="M2725.22,-420.604C2585.05,-397.67 2251.92,-343.166 2127.62,-322.83"/>
<polygon fill="midnightblue" stroke="midnightblue" points="2128.07,-319.358 2117.64,-321.197 2126.94,-326.266 2128.07,-319.358"/>
</g>
<!-- Node71&#45;&gt;Node56 -->
<g id="edge372" class="edge"><title>Node71&#45;&gt;Node56</title>
<path fill="none" stroke="midnightblue" d="M2790.05,-420.362C2790.95,-412.922 2792.17,-402.743 2793.26,-393.728"/>
<polygon fill="midnightblue" stroke="midnightblue" points="2796.77,-393.918 2794.49,-383.571 2789.82,-393.079 2796.77,-393.918"/>
</g>
</g>
</svg>
