<?xml version="1.0" encoding="UTF-8" standalone="no"?>
<!DOCTYPE svg PUBLIC "-//W3C//DTD SVG 1.1//EN"
 "http://www.w3.org/Graphics/SVG/1.1/DTD/svg11.dtd">
<!-- Generated by graphviz version 2.26.3 (20100126.1600)
 -->
<!-- Title: src/analysis/input/goat/detail/EventParameters.h Pages: 1 -->
<svg width="464pt" height="188pt"
 viewBox="0.00 0.00 464.00 188.00" xmlns="http://www.w3.org/2000/svg" xmlns:xlink="http://www.w3.org/1999/xlink">
<g id="graph1" class="graph" transform="scale(1 1) rotate(0) translate(4 184)">
<title>src/analysis/input/goat/detail/EventParameters.h</title>
<polygon fill="white" stroke="white" points="-4,5 -4,-184 461,-184 461,5 -4,5"/>
<!-- Node1 -->
<g id="node1" class="node"><title>Node1</title>
<polygon fill="#bfbfbf" stroke="black" points="75,-145 75,-179 227,-179 227,-145 75,-145"/>
<text text-anchor="start" x="83" y="-166" font-family="Helvetica,sans-Serif" font-size="10.00">src/analysis/input</text>
<text text-anchor="middle" x="151" y="-153" font-family="Helvetica,sans-Serif" font-size="10.00">/goat/detail/EventParameters.h</text>
</g>
<!-- Node2 -->
<g id="node3" class="node"><title>Node2</title>
<a xlink:href="_event_parameters_8cc.html" target="_top" xlink:title="src/analysis/input\l/goat/detail/EventParameters.cc">
<polygon fill="white" stroke="black" points="-0.5,-73 -0.5,-107 156.5,-107 156.5,-73 -0.5,-73"/>
<text text-anchor="start" x="7.5" y="-94" font-family="Helvetica,sans-Serif" font-size="10.00">src/analysis/input</text>
<text text-anchor="middle" x="78" y="-81" font-family="Helvetica,sans-Serif" font-size="10.00">/goat/detail/EventParameters.cc</text>
</a>
</g>
<!-- Node1&#45;&gt;Node2 -->
<g id="edge2" class="edge"><title>Node1&#45;&gt;Node2</title>
<path fill="none" stroke="midnightblue" d="M126.574,-137.908C116.369,-127.844 104.746,-116.38 95.4288,-107.19"/>
<polygon fill="midnightblue" stroke="midnightblue" points="124.123,-140.407 133.7,-144.937 129.038,-135.423 124.123,-140.407"/>
</g>
<!-- Node3 -->
<g id="node5" class="node"><title>Node3</title>
<a xlink:href="_goat_reader_8h.html" target="_top" xlink:title="src/analysis/input\l/goat/GoatReader.h">
<polygon fill="white" stroke="black" points="174,-73 174,-107 276,-107 276,-73 174,-73"/>
<text text-anchor="start" x="182" y="-94" font-family="Helvetica,sans-Serif" font-size="10.00">src/analysis/input</text>
<text text-anchor="middle" x="225" y="-81" font-family="Helvetica,sans-Serif" font-size="10.00">/goat/GoatReader.h</text>
</a>
</g>
<!-- Node1&#45;&gt;Node3 -->
<g id="edge4" class="edge"><title>Node1&#45;&gt;Node3</title>
<path fill="none" stroke="midnightblue" d="M175.761,-137.908C186.105,-127.844 197.887,-116.38 207.332,-107.19"/>
<polygon fill="midnightblue" stroke="midnightblue" points="173.264,-135.455 168.537,-144.937 178.145,-140.472 173.264,-135.455"/>
</g>
<!-- Node4 -->
<g id="node7" class="node"><title>Node4</title>
<a xlink:href="_ant_8cc.html" target="_top" xlink:title="Main Ant executable. ">
<polygon fill="white" stroke="black" points="82,-7.5 82,-28.5 154,-28.5 154,-7.5 82,-7.5"/>
<text text-anchor="middle" x="118" y="-15.5" font-family="Helvetica,sans-Serif" font-size="10.00">progs/Ant.cc</text>
</a>
</g>
<!-- Node3&#45;&gt;Node4 -->
<g id="edge6" class="edge"><title>Node3&#45;&gt;Node4</title>
<path fill="none" stroke="midnightblue" d="M191.156,-67.2265C171.994,-54.3324 148.924,-38.8088 133.884,-28.688"/>
<polygon fill="midnightblue" stroke="midnightblue" points="189.392,-70.258 199.642,-72.937 193.3,-64.4504 189.392,-70.258"/>
</g>
<!-- Node5 -->
<g id="node9" class="node"><title>Node5</title>
<a xlink:href="_goat_reader_8cc.html" target="_top" xlink:title="src/analysis/input\l/goat/GoatReader.cc">
<polygon fill="white" stroke="black" points="171.5,-1 171.5,-35 278.5,-35 278.5,-1 171.5,-1"/>
<text text-anchor="start" x="179.5" y="-22" font-family="Helvetica,sans-Serif" font-size="10.00">src/analysis/input</text>
<text text-anchor="middle" x="225" y="-9" font-family="Helvetica,sans-Serif" font-size="10.00">/goat/GoatReader.cc</text>
</a>
</g>
<!-- Node3&#45;&gt;Node5 -->
<g id="edge8" class="edge"><title>Node3&#45;&gt;Node5</title>
<path fill="none" stroke="midnightblue" d="M225,-62.7193C225,-53.572 225,-43.6255 225,-35.4407"/>
<polygon fill="midnightblue" stroke="midnightblue" points="221.5,-62.937 225,-72.937 228.5,-62.937 221.5,-62.937"/>
</g>
<!-- Node6 -->
<g id="node11" class="node"><title>Node6</title>
<a xlink:href="_test_goat_reader_8cc.html" target="_top" xlink:title="test/analysis/TestGoatReader.cc">
<polygon fill="white" stroke="black" points="295.5,-7.5 295.5,-28.5 456.5,-28.5 456.5,-7.5 295.5,-7.5"/>
<text text-anchor="middle" x="376" y="-15.5" font-family="Helvetica,sans-Serif" font-size="10.00">test/analysis/TestGoatReader.cc</text>
</a>
</g>
<!-- Node3&#45;&gt;Node6 -->
<g id="edge10" class="edge"><title>Node3&#45;&gt;Node6</title>
<path fill="none" stroke="midnightblue" d="M269.86,-68.6099C297.442,-55.4582 331.594,-39.1736 353.585,-28.688"/>
<polygon fill="midnightblue" stroke="midnightblue" points="268.305,-65.4737 260.785,-72.937 271.318,-71.7922 268.305,-65.4737"/>
</g>
</g>
</svg>
