<?xml version="1.0" encoding="UTF-8" standalone="no"?>
<!DOCTYPE svg PUBLIC "-//W3C//DTD SVG 1.1//EN"
 "http://www.w3.org/Graphics/SVG/1.1/DTD/svg11.dtd">
<!-- Generated by graphviz version 2.26.3 (20100126.1600)
 -->
<!-- Title: src/analysis/physics/common/ExtractScalers.h Pages: 1 -->
<svg width="3744pt" height="580pt"
 viewBox="0.00 0.00 3744.17 580.00" xmlns="http://www.w3.org/2000/svg" xmlns:xlink="http://www.w3.org/1999/xlink">
<g id="graph1" class="graph" transform="scale(1 1) rotate(0) translate(4 576)">
<title>src/analysis/physics/common/ExtractScalers.h</title>
<polygon fill="white" stroke="white" points="-4,5 -4,-576 3741.17,-576 3741.17,5 -4,5"/>
<!-- Node1 -->
<g id="node1" class="node"><title>Node1</title>
<polygon fill="#bfbfbf" stroke="black" points="2245.67,-537 2245.67,-571 2378.67,-571 2378.67,-537 2245.67,-537"/>
<text text-anchor="start" x="2253.67" y="-558" font-family="Helvetica,sans-Serif" font-size="10.00">src/analysis/physics</text>
<text text-anchor="middle" x="2312.17" y="-545" font-family="Helvetica,sans-Serif" font-size="10.00">/common/ExtractScalers.h</text>
</g>
<!-- Node2 -->
<g id="node3" class="node"><title>Node2</title>
<a xlink:href="_physics_8h.html" target="_top" xlink:title="analysis/physics/Physics.h">
<polygon fill="white" stroke="black" points="3089.17,-478.5 3089.17,-499.5 3225.17,-499.5 3225.17,-478.5 3089.17,-478.5"/>
<text text-anchor="middle" x="3157.17" y="-486.5" font-family="Helvetica,sans-Serif" font-size="10.00">analysis/physics/Physics.h</text>
</a>
</g>
<!-- Node1&#45;&gt;Node2 -->
<g id="edge2" class="edge"><title>Node1&#45;&gt;Node2</title>
<path fill="none" stroke="midnightblue" d="M2378.83,-548.872C2533.05,-537.01 2913.82,-507.72 3078.83,-495.027"/>
<polygon fill="midnightblue" stroke="midnightblue" points="3079.2,-498.508 3088.9,-494.252 3078.67,-491.529 3079.2,-498.508"/>
</g>
<!-- Node37 -->
<g id="node92" class="node"><title>Node37</title>
<a xlink:href="math_8h.html" target="_top" xlink:title="base/std_ext/math.h">
<polygon fill="white" stroke="black" points="1622.17,-116.5 1622.17,-137.5 1728.17,-137.5 1728.17,-116.5 1622.17,-116.5"/>
<text text-anchor="middle" x="1675.17" y="-124.5" font-family="Helvetica,sans-Serif" font-size="10.00">base/std_ext/math.h</text>
</a>
</g>
<!-- Node1&#45;&gt;Node37 -->
<g id="edge366" class="edge"><title>Node1&#45;&gt;Node37</title>
<path fill="none" stroke="midnightblue" d="M2245.44,-549.185C2071.24,-535.729 1616.17,-494.5 1616.17,-431 1616.17,-431 1616.17,-431 1616.17,-257 1616.17,-214.364 1642.81,-170.328 1660.29,-146.025"/>
<polygon fill="midnightblue" stroke="midnightblue" points="1663.31,-147.834 1666.47,-137.721 1657.69,-143.657 1663.31,-147.834"/>
</g>
<!-- Node68 -->
<g id="node246" class="node"><title>Node68</title>
<a xlink:href="_wrap_t_tree_8h.html" target="_top" xlink:title="base/WrapTTree.h">
<polygon fill="white" stroke="black" points="2416.17,-116.5 2416.17,-137.5 2514.17,-137.5 2514.17,-116.5 2416.17,-116.5"/>
<text text-anchor="middle" x="2465.17" y="-124.5" font-family="Helvetica,sans-Serif" font-size="10.00">base/WrapTTree.h</text>
</a>
</g>
<!-- Node1&#45;&gt;Node68 -->
<g id="edge356" class="edge"><title>Node1&#45;&gt;Node68</title>
<path fill="none" stroke="midnightblue" d="M2312.17,-536.888C2312.17,-513.127 2312.17,-468.797 2312.17,-431 2312.17,-431 2312.17,-431 2312.17,-315 2312.17,-309.59 2410.95,-191.497 2449.77,-145.297"/>
<polygon fill="midnightblue" stroke="midnightblue" points="2452.53,-147.457 2456.29,-137.55 2447.17,-142.952 2452.53,-147.457"/>
</g>
<!-- Node3 -->
<g id="node5" class="node"><title>Node3</title>
<a xlink:href="manager__t_8h.html" target="_top" xlink:title="analysis/physics/manager_t.h">
<polygon fill="white" stroke="black" points="3408.17,-420.5 3408.17,-441.5 3554.17,-441.5 3554.17,-420.5 3408.17,-420.5"/>
<text text-anchor="middle" x="3481.17" y="-428.5" font-family="Helvetica,sans-Serif" font-size="10.00">analysis/physics/manager_t.h</text>
</a>
</g>
<!-- Node2&#45;&gt;Node3 -->
<g id="edge4" class="edge"><title>Node2&#45;&gt;Node3</title>
<path fill="none" stroke="midnightblue" d="M3215.85,-478.497C3271.18,-468.591 3354.13,-453.743 3412.51,-443.291"/>
<polygon fill="midnightblue" stroke="midnightblue" points="3413.16,-446.73 3422.39,-441.523 3411.93,-439.84 3413.16,-446.73"/>
</g>
<!-- Node4 -->
<g id="node7" class="node"><title>Node4</title>
<a xlink:href="_histogram_factories_8h.html" target="_top" xlink:title="analysis/plot/HistogramFactories.h">
<polygon fill="white" stroke="black" points="2378.17,-246.5 2378.17,-267.5 2546.17,-267.5 2546.17,-246.5 2378.17,-246.5"/>
<text text-anchor="middle" x="2462.17" y="-254.5" font-family="Helvetica,sans-Serif" font-size="10.00">analysis/plot/HistogramFactories.h</text>
</a>
</g>
<!-- Node2&#45;&gt;Node4 -->
<g id="edge6" class="edge"><title>Node2&#45;&gt;Node4</title>
<path fill="none" stroke="midnightblue" d="M3089.1,-487.302C2941.87,-483.108 2603.52,-470.465 2560.17,-442 2501.3,-403.336 2475.41,-317.204 2466.29,-277.62"/>
<polygon fill="midnightblue" stroke="midnightblue" points="2469.7,-276.798 2464.16,-267.768 2462.86,-278.283 2469.7,-276.798"/>
</g>
<!-- Node16 -->
<g id="node33" class="node"><title>Node16</title>
<polygon fill="white" stroke="#bfbfbf" points="3269.67,-58.5 3269.67,-79.5 3310.67,-79.5 3310.67,-58.5 3269.67,-58.5"/>
<text text-anchor="middle" x="3290.17" y="-66.5" font-family="Helvetica,sans-Serif" font-size="10.00">string</text>
</g>
<!-- Node2&#45;&gt;Node16 -->
<g id="edge348" class="edge"><title>Node2&#45;&gt;Node16</title>
<path fill="none" stroke="midnightblue" d="M3225.23,-485.855C3336.25,-480.103 3551.21,-466.197 3623.17,-442 3678.95,-423.246 3736.17,-431.845 3736.17,-373 3736.17,-373 3736.17,-373 3736.17,-192 3736.17,-154.812 3731.3,-137.805 3701.17,-116 3670.5,-93.7943 3411.36,-76.2741 3321.06,-70.7929"/>
<polygon fill="midnightblue" stroke="midnightblue" points="3321.1,-67.2892 3310.91,-70.1846 3320.68,-74.2767 3321.1,-67.2892"/>
</g>
<!-- Node17 -->
<g id="node36" class="node"><title>Node17</title>
<a xlink:href="memory_8h.html" target="_top" xlink:title="base/std_ext/memory.h">
<polygon fill="white" stroke="black" points="2641.67,-181.5 2641.67,-202.5 2760.67,-202.5 2760.67,-181.5 2641.67,-181.5"/>
<text text-anchor="middle" x="2701.17" y="-189.5" font-family="Helvetica,sans-Serif" font-size="10.00">base/std_ext/memory.h</text>
</a>
</g>
<!-- Node2&#45;&gt;Node17 -->
<g id="edge38" class="edge"><title>Node2&#45;&gt;Node17</title>
<path fill="none" stroke="midnightblue" d="M3089.06,-483.826C3024.62,-477.611 2933.9,-465.019 2907.17,-442 2882.57,-420.812 2883.17,-405.469 2883.17,-373 2883.17,-373 2883.17,-373 2883.17,-315 2883.17,-254.326 2812.88,-221.56 2759.66,-205.448"/>
<polygon fill="midnightblue" stroke="midnightblue" points="2760.53,-202.054 2749.95,-202.631 2758.58,-208.777 2760.53,-202.054"/>
</g>
<!-- Node18 -->
<g id="node38" class="node"><title>Node18</title>
<polygon fill="white" stroke="#bfbfbf" points="2906.17,-116.5 2906.17,-137.5 2958.17,-137.5 2958.17,-116.5 2906.17,-116.5"/>
<text text-anchor="middle" x="2932.17" y="-124.5" font-family="Helvetica,sans-Serif" font-size="10.00">memory</text>
</g>
<!-- Node2&#45;&gt;Node18 -->
<g id="edge352" class="edge"><title>Node2&#45;&gt;Node18</title>
<path fill="none" stroke="midnightblue" d="M3118.2,-478.493C3051.17,-459.261 2921.17,-416.371 2921.17,-373 2921.17,-373 2921.17,-373 2921.17,-315 2921.17,-252.333 2913.99,-236.253 2921.17,-174 2922.19,-165.202 2924.24,-155.657 2926.3,-147.483"/>
<polygon fill="midnightblue" stroke="midnightblue" points="2929.71,-148.268 2928.93,-137.703 2922.95,-146.454 2929.71,-148.268"/>
</g>
<!-- Node19 -->
<g id="node40" class="node"><title>Node19</title>
<polygon fill="white" stroke="#bfbfbf" points="2683.67,-116.5 2683.67,-137.5 2712.67,-137.5 2712.67,-116.5 2683.67,-116.5"/>
<text text-anchor="middle" x="2698.17" y="-124.5" font-family="Helvetica,sans-Serif" font-size="10.00">list</text>
</g>
<!-- Node2&#45;&gt;Node19 -->
<g id="edge346" class="edge"><title>Node2&#45;&gt;Node19</title>
<path fill="none" stroke="midnightblue" d="M3089.16,-482.535C2935.37,-467.002 2574.17,-424.987 2574.17,-373 2574.17,-373 2574.17,-373 2574.17,-315 2574.17,-283.192 2566.89,-275.572 2555.17,-246 2548.51,-229.18 2540.52,-227.561 2536.17,-210 2532.33,-194.469 2526.47,-186.725 2536.17,-174 2572.78,-125.98 2609.57,-156.108 2667.17,-138 2669.34,-137.318 2671.59,-136.582 2673.83,-135.826"/>
<polygon fill="midnightblue" stroke="midnightblue" points="2675.14,-139.078 2683.43,-132.48 2672.83,-132.468 2675.14,-139.078"/>
</g>
<!-- Node20 -->
<g id="node42" class="node"><title>Node20</title>
<a xlink:href="_t_event_8h.html" target="_top" xlink:title="tree/TEvent.h">
<polygon fill="white" stroke="black" points="566.174,-181.5 566.174,-202.5 642.174,-202.5 642.174,-181.5 566.174,-181.5"/>
<text text-anchor="middle" x="604.174" y="-189.5" font-family="Helvetica,sans-Serif" font-size="10.00">tree/TEvent.h</text>
</a>
</g>
<!-- Node2&#45;&gt;Node20 -->
<g id="edge44" class="edge"><title>Node2&#45;&gt;Node20</title>
<path fill="none" stroke="midnightblue" d="M3088.69,-488.077C2793.77,-483.981 1630.5,-466.563 1265.17,-442 1125.09,-432.582 637.174,-513.395 637.174,-373 637.174,-373 637.174,-373 637.174,-315 637.174,-277.637 622.794,-236.003 613.019,-212.019"/>
<polygon fill="midnightblue" stroke="midnightblue" points="616.157,-210.453 609.043,-202.602 609.708,-213.176 616.157,-210.453"/>
</g>
<!-- Node22 -->
<g id="node49" class="node"><title>Node22</title>
<a xlink:href="_t_event_data_8h.html" target="_top" xlink:title="tree/TEventData.h">
<polygon fill="white" stroke="black" points="1273.67,-420.5 1273.67,-441.5 1370.67,-441.5 1370.67,-420.5 1273.67,-420.5"/>
<text text-anchor="middle" x="1322.17" y="-428.5" font-family="Helvetica,sans-Serif" font-size="10.00">tree/TEventData.h</text>
</a>
</g>
<!-- Node2&#45;&gt;Node22 -->
<g id="edge54" class="edge"><title>Node2&#45;&gt;Node22</title>
<path fill="none" stroke="midnightblue" d="M3089.14,-486.85C2797.28,-477.625 1653.69,-441.479 1380.85,-432.855"/>
<polygon fill="midnightblue" stroke="midnightblue" points="1380.87,-429.354 1370.77,-432.536 1380.65,-436.35 1380.87,-429.354"/>
</g>
<!-- Node53 -->
<g id="node170" class="node"><title>Node53</title>
<polygon fill="white" stroke="#bfbfbf" points="3165.67,-116.5 3165.67,-137.5 3224.67,-137.5 3224.67,-116.5 3165.67,-116.5"/>
<text text-anchor="middle" x="3195.17" y="-124.5" font-family="Helvetica,sans-Serif" font-size="10.00">functional</text>
</g>
<!-- Node2&#45;&gt;Node53 -->
<g id="edge354" class="edge"><title>Node2&#45;&gt;Node53</title>
<path fill="none" stroke="midnightblue" d="M3160.88,-478.28C3173.4,-441.5 3213.98,-316.806 3227.17,-210 3229.14,-194.121 3231.89,-189.291 3227.17,-174 3224.01,-163.747 3217.77,-153.728 3211.63,-145.593"/>
<polygon fill="midnightblue" stroke="midnightblue" points="3214.16,-143.161 3205.16,-137.582 3208.72,-147.56 3214.16,-143.161"/>
</g>
<!-- Node57 -->
<g id="node199" class="node"><title>Node57</title>
<polygon fill="white" stroke="#bfbfbf" points="3571.67,-116.5 3571.67,-137.5 3606.67,-137.5 3606.67,-116.5 3571.67,-116.5"/>
<text text-anchor="middle" x="3589.17" y="-124.5" font-family="Helvetica,sans-Serif" font-size="10.00">map</text>
</g>
<!-- Node2&#45;&gt;Node57 -->
<g id="edge350" class="edge"><title>Node2&#45;&gt;Node57</title>
<path fill="none" stroke="midnightblue" d="M3225.58,-485.223C3334.6,-478.595 3538.09,-463.503 3563.17,-442 3587.32,-421.298 3582.17,-404.808 3582.17,-373 3582.17,-373 3582.17,-373 3582.17,-257 3582.17,-218.41 3585.29,-173.47 3587.36,-147.815"/>
<polygon fill="midnightblue" stroke="midnightblue" points="3590.86,-148.032 3588.2,-137.775 3583.88,-147.449 3590.86,-148.032"/>
</g>
<!-- Node62 -->
<g id="node219" class="node"><title>Node62</title>
<a xlink:href="_options_list_8h.html" target="_top" xlink:title="base/OptionsList.h">
<polygon fill="white" stroke="black" points="3610.17,-181.5 3610.17,-202.5 3708.17,-202.5 3708.17,-181.5 3610.17,-181.5"/>
<text text-anchor="middle" x="3659.17" y="-189.5" font-family="Helvetica,sans-Serif" font-size="10.00">base/OptionsList.h</text>
</a>
</g>
<!-- Node2&#45;&gt;Node62 -->
<g id="edge314" class="edge"><title>Node2&#45;&gt;Node62</title>
<path fill="none" stroke="midnightblue" d="M3225.34,-484.981C3340.83,-477.689 3565.49,-461.241 3596.17,-442 3626.79,-422.804 3639.17,-409.134 3639.17,-373 3639.17,-373 3639.17,-373 3639.17,-315 3639.17,-278.603 3647.81,-236.924 3653.73,-212.624"/>
<polygon fill="midnightblue" stroke="midnightblue" points="3657.17,-213.316 3656.22,-202.764 3650.38,-211.603 3657.17,-213.316"/>
</g>
<!-- Node64 -->
<g id="node227" class="node"><title>Node64</title>
<a xlink:href="root__draw_8h.html" target="_top" xlink:title="analysis/plot/root\l_draw.h">
<polygon fill="white" stroke="black" points="3127.67,-175 3127.67,-209 3218.67,-209 3218.67,-175 3127.67,-175"/>
<text text-anchor="start" x="3135.67" y="-196" font-family="Helvetica,sans-Serif" font-size="10.00">analysis/plot/root</text>
<text text-anchor="middle" x="3173.17" y="-183" font-family="Helvetica,sans-Serif" font-size="10.00">_draw.h</text>
</a>
</g>
<!-- Node2&#45;&gt;Node64 -->
<g id="edge326" class="edge"><title>Node2&#45;&gt;Node64</title>
<path fill="none" stroke="midnightblue" d="M3154.21,-478.222C3148.86,-457.841 3138.17,-412.182 3138.17,-373 3138.17,-373 3138.17,-373 3138.17,-315 3138.17,-280.656 3150.95,-242.908 3161.07,-218.408"/>
<polygon fill="midnightblue" stroke="midnightblue" points="3164.34,-219.651 3165.06,-209.08 3157.91,-216.899 3164.34,-219.651"/>
</g>
<!-- Node65 -->
<g id="node235" class="node"><title>Node65</title>
<polygon fill="white" stroke="#bfbfbf" points="3203.67,-420.5 3203.67,-441.5 3254.67,-441.5 3254.67,-420.5 3203.67,-420.5"/>
<text text-anchor="middle" x="3229.17" y="-428.5" font-family="Helvetica,sans-Serif" font-size="10.00">TH1D.h</text>
</g>
<!-- Node2&#45;&gt;Node65 -->
<g id="edge340" class="edge"><title>Node2&#45;&gt;Node65</title>
<path fill="none" stroke="midnightblue" d="M3170.38,-478.362C3180.94,-469.859 3195.93,-457.779 3208.14,-447.947"/>
<polygon fill="midnightblue" stroke="midnightblue" points="3210.46,-450.57 3216.05,-441.571 3206.07,-445.118 3210.46,-450.57"/>
</g>
<!-- Node66 -->
<g id="node237" class="node"><title>Node66</title>
<polygon fill="white" stroke="#bfbfbf" points="3271.67,-420.5 3271.67,-441.5 3322.67,-441.5 3322.67,-420.5 3271.67,-420.5"/>
<text text-anchor="middle" x="3297.17" y="-428.5" font-family="Helvetica,sans-Serif" font-size="10.00">TH2D.h</text>
</g>
<!-- Node2&#45;&gt;Node66 -->
<g id="edge342" class="edge"><title>Node2&#45;&gt;Node66</title>
<path fill="none" stroke="midnightblue" d="M3182.53,-478.497C3204.79,-469.275 3237.39,-455.769 3262.14,-445.515"/>
<polygon fill="midnightblue" stroke="midnightblue" points="3263.64,-448.682 3271.54,-441.621 3260.96,-442.215 3263.64,-448.682"/>
</g>
<!-- Node67 -->
<g id="node239" class="node"><title>Node67</title>
<polygon fill="white" stroke="#bfbfbf" points="3339.67,-420.5 3339.67,-441.5 3390.67,-441.5 3390.67,-420.5 3339.67,-420.5"/>
<text text-anchor="middle" x="3365.17" y="-428.5" font-family="Helvetica,sans-Serif" font-size="10.00">TH3D.h</text>
</g>
<!-- Node2&#45;&gt;Node67 -->
<g id="edge344" class="edge"><title>Node2&#45;&gt;Node67</title>
<path fill="none" stroke="midnightblue" d="M3198.47,-478.456C3231.68,-469.838 3279.77,-457.057 3329.88,-442.301"/>
<polygon fill="midnightblue" stroke="midnightblue" points="3331,-445.62 3339.6,-439.424 3329.01,-438.908 3331,-445.62"/>
</g>
<!-- Node5 -->
<g id="node9" class="node"><title>Node5</title>
<a xlink:href="interval_8h.html" target="_top" xlink:title="base/interval.h">
<polygon fill="white" stroke="black" points="1784.17,-116.5 1784.17,-137.5 1864.17,-137.5 1864.17,-116.5 1784.17,-116.5"/>
<text text-anchor="middle" x="1824.17" y="-124.5" font-family="Helvetica,sans-Serif" font-size="10.00">base/interval.h</text>
</a>
</g>
<!-- Node4&#45;&gt;Node5 -->
<g id="edge8" class="edge"><title>Node4&#45;&gt;Node5</title>
<path fill="none" stroke="midnightblue" d="M2411.52,-246.472C2382.55,-239.046 2346.3,-227.296 2317.17,-210 2297.17,-198.121 2300.38,-183.57 2279.17,-174 2197.63,-137.195 1966.7,-150.949 1878.17,-138 1876.9,-137.813 1875.6,-137.615 1874.3,-137.408"/>
<polygon fill="midnightblue" stroke="midnightblue" points="1874.64,-133.916 1864.19,-135.668 1873.45,-140.814 1874.64,-133.916"/>
</g>
<!-- Node14 -->
<g id="node27" class="node"><title>Node14</title>
<a xlink:href="_bin_settings_8h.html" target="_top" xlink:title="base/BinSettings.h">
<polygon fill="white" stroke="black" points="2095.67,-181.5 2095.67,-202.5 2194.67,-202.5 2194.67,-181.5 2095.67,-181.5"/>
<text text-anchor="middle" x="2145.17" y="-189.5" font-family="Helvetica,sans-Serif" font-size="10.00">base/BinSettings.h</text>
</a>
</g>
<!-- Node4&#45;&gt;Node14 -->
<g id="edge26" class="edge"><title>Node4&#45;&gt;Node14</title>
<path fill="none" stroke="midnightblue" d="M2391.06,-246.481C2338.74,-238.166 2266.09,-225.412 2203.17,-210 2197.73,-208.667 2192.05,-207.113 2186.47,-205.486"/>
<polygon fill="midnightblue" stroke="midnightblue" points="2187.17,-202.042 2176.59,-202.511 2185.15,-208.745 2187.17,-202.042"/>
</g>
<!-- Node15 -->
<g id="node30" class="node"><title>Node15</title>
<polygon fill="white" stroke="#bfbfbf" points="2366.17,-58.5 2366.17,-79.5 2410.17,-79.5 2410.17,-58.5 2366.17,-58.5"/>
<text text-anchor="middle" x="2388.17" y="-66.5" font-family="Helvetica,sans-Serif" font-size="10.00">vector</text>
</g>
<!-- Node4&#45;&gt;Node15 -->
<g id="edge36" class="edge"><title>Node4&#45;&gt;Node15</title>
<path fill="none" stroke="midnightblue" d="M2546.19,-253.181C2703.13,-245.637 3026.58,-227.992 3043.17,-210 3054.02,-198.239 3046.52,-189.646 3043.17,-174 3037.27,-146.375 3040.4,-132.076 3017.17,-116 2963.53,-78.8778 2495.62,-90.1288 2431.17,-80 2427.64,-79.4448 2423.98,-78.7294 2420.34,-77.9301"/>
<polygon fill="midnightblue" stroke="midnightblue" points="2420.87,-74.4561 2410.33,-75.519 2419.23,-81.2618 2420.87,-74.4561"/>
</g>
<!-- Node4&#45;&gt;Node16 -->
<g id="edge34" class="edge"><title>Node4&#45;&gt;Node16</title>
<path fill="none" stroke="midnightblue" d="M2546.21,-256.218C2783.3,-253.604 3442.33,-243.356 3474.17,-210 3486.59,-196.998 3470.96,-122.447 3465.17,-116 3446.07,-94.7 3365.75,-79.9386 3320.86,-73.1788"/>
<polygon fill="midnightblue" stroke="midnightblue" points="3321.2,-69.6911 3310.8,-71.708 3320.18,-76.6175 3321.2,-69.6911"/>
</g>
<!-- Node6 -->
<g id="node11" class="node"><title>Node6</title>
<a xlink:href="printable_8h.html" target="_top" xlink:title="printable.h">
<polygon fill="white" stroke="black" points="1115.17,-58.5 1115.17,-79.5 1177.17,-79.5 1177.17,-58.5 1115.17,-58.5"/>
<text text-anchor="middle" x="1146.17" y="-66.5" font-family="Helvetica,sans-Serif" font-size="10.00">printable.h</text>
</a>
</g>
<!-- Node5&#45;&gt;Node6 -->
<g id="edge10" class="edge"><title>Node5&#45;&gt;Node6</title>
<path fill="none" stroke="midnightblue" d="M1783.94,-121.517C1769.24,-119.619 1752.47,-117.574 1737.17,-116 1531.16,-94.7963 1283.9,-77.8895 1187.49,-71.6236"/>
<polygon fill="midnightblue" stroke="midnightblue" points="1187.5,-68.1169 1177.3,-70.9641 1187.05,-75.1023 1187.5,-68.1169"/>
</g>
<!-- Node9 -->
<g id="node17" class="node"><title>Node9</title>
<a xlink:href="types_8h.html" target="_top" xlink:title="types.h">
<polygon fill="white" stroke="black" points="2555.67,-58.5 2555.67,-79.5 2604.67,-79.5 2604.67,-58.5 2555.67,-58.5"/>
<text text-anchor="middle" x="2580.17" y="-66.5" font-family="Helvetica,sans-Serif" font-size="10.00">types.h</text>
</a>
</g>
<!-- Node5&#45;&gt;Node9 -->
<g id="edge16" class="edge"><title>Node5&#45;&gt;Node9</title>
<path fill="none" stroke="midnightblue" d="M1864.41,-123.229C1888.9,-120.991 1920.83,-118.175 1949.17,-116 2193.42,-97.2617 2255.43,-104.497 2499.17,-80 2514.4,-78.4697 2531.17,-76.277 2545.48,-74.2514"/>
<polygon fill="midnightblue" stroke="midnightblue" points="2546.01,-77.7109 2555.41,-72.8179 2545.01,-70.7828 2546.01,-77.7109"/>
</g>
<!-- Node10 -->
<g id="node19" class="node"><title>Node10</title>
<polygon fill="white" stroke="#bfbfbf" points="1984.17,-58.5 1984.17,-79.5 2040.17,-79.5 2040.17,-58.5 1984.17,-58.5"/>
<text text-anchor="middle" x="2012.17" y="-66.5" font-family="Helvetica,sans-Serif" font-size="10.00">algorithm</text>
</g>
<!-- Node5&#45;&gt;Node10 -->
<g id="edge18" class="edge"><title>Node5&#45;&gt;Node10</title>
<path fill="none" stroke="midnightblue" d="M1858.22,-116.497C1890.96,-106.395 1940.37,-91.1535 1974.33,-80.6756"/>
<polygon fill="midnightblue" stroke="midnightblue" points="1975.38,-84.014 1983.9,-77.7214 1973.32,-77.325 1975.38,-84.014"/>
</g>
<!-- Node11 -->
<g id="node21" class="node"><title>Node11</title>
<polygon fill="white" stroke="#bfbfbf" points="1455.67,-58.5 1455.67,-79.5 1514.67,-79.5 1514.67,-58.5 1455.67,-58.5"/>
<text text-anchor="middle" x="1485.17" y="-66.5" font-family="Helvetica,sans-Serif" font-size="10.00">stdexcept</text>
</g>
<!-- Node5&#45;&gt;Node11 -->
<g id="edge20" class="edge"><title>Node5&#45;&gt;Node11</title>
<path fill="none" stroke="midnightblue" d="M1783.96,-120.119C1718.53,-108.925 1589.83,-86.906 1524.79,-75.7786"/>
<polygon fill="midnightblue" stroke="midnightblue" points="1525.37,-72.3262 1514.92,-74.0895 1524.19,-79.2259 1525.37,-72.3262"/>
</g>
<!-- Node12 -->
<g id="node23" class="node"><title>Node12</title>
<polygon fill="white" stroke="#bfbfbf" points="1671.17,-58.5 1671.17,-79.5 1711.17,-79.5 1711.17,-58.5 1671.17,-58.5"/>
<text text-anchor="middle" x="1691.17" y="-66.5" font-family="Helvetica,sans-Serif" font-size="10.00">limits</text>
</g>
<!-- Node5&#45;&gt;Node12 -->
<g id="edge22" class="edge"><title>Node5&#45;&gt;Node12</title>
<path fill="none" stroke="midnightblue" d="M1800.09,-116.497C1777.85,-106.799 1744.75,-92.365 1720.88,-81.9556"/>
<polygon fill="midnightblue" stroke="midnightblue" points="1722.16,-78.6944 1711.59,-77.9052 1719.36,-85.1108 1722.16,-78.6944"/>
</g>
<!-- Node13 -->
<g id="node25" class="node"><title>Node13</title>
<polygon fill="white" stroke="#bfbfbf" points="1799.67,-58.5 1799.67,-79.5 1848.67,-79.5 1848.67,-58.5 1799.67,-58.5"/>
<text text-anchor="middle" x="1824.17" y="-66.5" font-family="Helvetica,sans-Serif" font-size="10.00">istream</text>
</g>
<!-- Node5&#45;&gt;Node13 -->
<g id="edge24" class="edge"><title>Node5&#45;&gt;Node13</title>
<path fill="none" stroke="midnightblue" d="M1824.17,-116.362C1824.17,-108.922 1824.17,-98.7427 1824.17,-89.7276"/>
<polygon fill="midnightblue" stroke="midnightblue" points="1827.67,-89.5706 1824.17,-79.5707 1820.67,-89.5707 1827.67,-89.5706"/>
</g>
<!-- Node7 -->
<g id="node13" class="node"><title>Node7</title>
<polygon fill="white" stroke="#bfbfbf" points="1115.17,-0.5 1115.17,-21.5 1177.17,-21.5 1177.17,-0.5 1115.17,-0.5"/>
<text text-anchor="middle" x="1146.17" y="-8.5" font-family="Helvetica,sans-Serif" font-size="10.00">type_traits</text>
</g>
<!-- Node6&#45;&gt;Node7 -->
<g id="edge12" class="edge"><title>Node6&#45;&gt;Node7</title>
<path fill="none" stroke="midnightblue" d="M1146.17,-58.3619C1146.17,-50.9219 1146.17,-40.7427 1146.17,-31.7276"/>
<polygon fill="midnightblue" stroke="midnightblue" points="1149.67,-31.5706 1146.17,-21.5707 1142.67,-31.5707 1149.67,-31.5706"/>
</g>
<!-- Node8 -->
<g id="node15" class="node"><title>Node8</title>
<polygon fill="white" stroke="#bfbfbf" points="2467.17,-0.5 2467.17,-21.5 2519.17,-21.5 2519.17,-0.5 2467.17,-0.5"/>
<text text-anchor="middle" x="2493.17" y="-8.5" font-family="Helvetica,sans-Serif" font-size="10.00">ostream</text>
</g>
<!-- Node6&#45;&gt;Node8 -->
<g id="edge14" class="edge"><title>Node6&#45;&gt;Node8</title>
<path fill="none" stroke="midnightblue" d="M1177.23,-67.5184C1222.51,-65.3671 1309.31,-61.2779 1383.17,-58 1805.25,-39.2691 2317.69,-18.1825 2456.84,-12.4846"/>
<polygon fill="midnightblue" stroke="midnightblue" points="2457.1,-15.977 2466.95,-12.0709 2456.82,-8.98288 2457.1,-15.977"/>
</g>
<!-- Node14&#45;&gt;Node5 -->
<g id="edge28" class="edge"><title>Node14&#45;&gt;Node5</title>
<path fill="none" stroke="midnightblue" d="M2095.47,-181.969C2041.85,-171.142 1953.95,-153.381 1878.17,-138 1876.91,-137.743 1875.63,-137.483 1874.33,-137.22"/>
<polygon fill="midnightblue" stroke="midnightblue" points="1874.77,-133.738 1864.28,-135.176 1873.38,-140.598 1874.77,-133.738"/>
</g>
<!-- Node14&#45;&gt;Node11 -->
<g id="edge32" class="edge"><title>Node14&#45;&gt;Node11</title>
<path fill="none" stroke="midnightblue" d="M2095.26,-189.431C1980.84,-183.14 1702.59,-165.442 1613.17,-138 1574.05,-125.994 1533.16,-101.529 1508.42,-85.1954"/>
<polygon fill="midnightblue" stroke="midnightblue" points="1510.32,-82.2565 1500.07,-79.5839 1506.41,-88.0665 1510.32,-82.2565"/>
</g>
<!-- Node14&#45;&gt;Node15 -->
<g id="edge30" class="edge"><title>Node14&#45;&gt;Node15</title>
<path fill="none" stroke="midnightblue" d="M2177.56,-181.443C2185.87,-178.873 2194.82,-176.226 2203.17,-174 2274.02,-155.118 2309.44,-186.788 2364.17,-138 2377.89,-125.776 2383.77,-105.296 2386.29,-89.8157"/>
<polygon fill="midnightblue" stroke="midnightblue" points="2389.79,-89.98 2387.59,-79.6166 2382.85,-89.0916 2389.79,-89.98"/>
</g>
<!-- Node17&#45;&gt;Node18 -->
<g id="edge40" class="edge"><title>Node17&#45;&gt;Node18</title>
<path fill="none" stroke="midnightblue" d="M2741.08,-181.452C2778.68,-171.415 2836.81,-155.643 2895.95,-138.3"/>
<polygon fill="midnightblue" stroke="midnightblue" points="2897.23,-141.572 2905.83,-135.39 2895.25,-134.857 2897.23,-141.572"/>
</g>
<!-- Node17&#45;&gt;Node19 -->
<g id="edge42" class="edge"><title>Node17&#45;&gt;Node19</title>
<path fill="none" stroke="midnightblue" d="M2700.68,-181.267C2700.26,-172.18 2699.65,-158.892 2699.13,-147.74"/>
<polygon fill="midnightblue" stroke="midnightblue" points="2702.62,-147.362 2698.66,-137.534 2695.63,-147.684 2702.62,-147.362"/>
</g>
<!-- Node20&#45;&gt;Node6 -->
<g id="edge48" class="edge"><title>Node20&#45;&gt;Node6</title>
<path fill="none" stroke="midnightblue" d="M595.042,-181.265C582.445,-165.125 563.12,-134.529 580.174,-116 615.536,-77.5801 979.899,-70.5617 1104.59,-69.2835"/>
<polygon fill="midnightblue" stroke="midnightblue" points="1104.9,-72.7808 1114.87,-69.1857 1104.84,-65.7811 1104.9,-72.7808"/>
</g>
<!-- Node20&#45;&gt;Node11 -->
<g id="edge52" class="edge"><title>Node20&#45;&gt;Node11</title>
<path fill="none" stroke="midnightblue" d="M612.507,-181.462C626.965,-164.094 658.582,-129.99 694.174,-116 847.194,-55.8529 1265.99,-105.56 1445.53,-79.8558"/>
<polygon fill="midnightblue" stroke="midnightblue" points="1446.11,-83.3081 1455.46,-78.3158 1445.04,-76.3909 1446.11,-83.3081"/>
</g>
<!-- Node20&#45;&gt;Node18 -->
<g id="edge50" class="edge"><title>Node20&#45;&gt;Node18</title>
<path fill="none" stroke="midnightblue" d="M642.407,-189.96C713.844,-186.222 872.457,-178.266 1006.17,-174 1213.24,-167.394 2648.29,-171.722 2896.06,-137.604"/>
<polygon fill="midnightblue" stroke="midnightblue" points="2896.63,-141.058 2906,-136.109 2895.59,-134.136 2896.63,-141.058"/>
</g>
<!-- Node21 -->
<g id="node44" class="node"><title>Node21</title>
<polygon fill="white" stroke="#bfbfbf" points="434.174,-116.5 434.174,-137.5 490.174,-137.5 490.174,-116.5 434.174,-116.5"/>
<text text-anchor="middle" x="462.174" y="-124.5" font-family="Helvetica,sans-Serif" font-size="10.00">Rtypes.h</text>
</g>
<!-- Node20&#45;&gt;Node21 -->
<g id="edge46" class="edge"><title>Node20&#45;&gt;Node21</title>
<path fill="none" stroke="midnightblue" d="M581.043,-181.412C557.526,-170.647 520.892,-153.878 494.508,-141.801"/>
<polygon fill="midnightblue" stroke="midnightblue" points="495.844,-138.563 485.295,-137.584 492.931,-144.928 495.844,-138.563"/>
</g>
<!-- Node22&#45;&gt;Node6 -->
<g id="edge56" class="edge"><title>Node22&#45;&gt;Node6</title>
<path fill="none" stroke="midnightblue" d="M1273.51,-422.609C1160.11,-400.135 879.27,-326.936 765.174,-138 760.12,-129.63 758.697,-123.325 765.174,-116 787.434,-90.825 1011.11,-76.145 1105.01,-71.0493"/>
<polygon fill="midnightblue" stroke="midnightblue" points="1105.21,-74.5439 1115.01,-70.5166 1104.84,-67.5539 1105.21,-74.5439"/>
</g>
<!-- Node23 -->
<g id="node52" class="node"><title>Node23</title>
<a xlink:href="_t_i_d_8h.html" target="_top" xlink:title="TID.h">
<polygon fill="white" stroke="black" points="347.674,-246.5 347.674,-267.5 388.674,-267.5 388.674,-246.5 347.674,-246.5"/>
<text text-anchor="middle" x="368.174" y="-254.5" font-family="Helvetica,sans-Serif" font-size="10.00">TID.h</text>
</a>
</g>
<!-- Node22&#45;&gt;Node23 -->
<g id="edge58" class="edge"><title>Node22&#45;&gt;Node23</title>
<path fill="none" stroke="midnightblue" d="M1273.51,-429.739C1163.89,-426.418 889.474,-415.41 662.174,-384 535.853,-366.544 470.561,-416.949 381.174,-326 368.866,-313.477 366.293,-293.203 366.396,-277.864"/>
<polygon fill="midnightblue" stroke="midnightblue" points="369.898,-277.893 366.844,-267.748 362.905,-277.584 369.898,-277.893"/>
</g>
<!-- Node32 -->
<g id="node79" class="node"><title>Node32</title>
<a xlink:href="_t_detector_read_hit_8h.html" target="_top" xlink:title="TDetectorReadHit.h">
<polygon fill="white" stroke="black" points="1346.17,-246.5 1346.17,-267.5 1450.17,-267.5 1450.17,-246.5 1346.17,-246.5"/>
<text text-anchor="middle" x="1398.17" y="-254.5" font-family="Helvetica,sans-Serif" font-size="10.00">TDetectorReadHit.h</text>
</a>
</g>
<!-- Node22&#45;&gt;Node32 -->
<g id="edge94" class="edge"><title>Node22&#45;&gt;Node32</title>
<path fill="none" stroke="midnightblue" d="M1326.81,-420.377C1339.19,-392.051 1373.13,-314.349 1389.33,-277.242"/>
<polygon fill="midnightblue" stroke="midnightblue" points="1392.61,-278.493 1393.4,-267.928 1386.19,-275.691 1392.61,-278.493"/>
</g>
<!-- Node38 -->
<g id="node106" class="node"><title>Node38</title>
<a xlink:href="_t_slow_control_8h.html" target="_top" xlink:title="TSlowControl.h">
<polygon fill="white" stroke="black" points="390.174,-304.5 390.174,-325.5 474.174,-325.5 474.174,-304.5 390.174,-304.5"/>
<text text-anchor="middle" x="432.174" y="-312.5" font-family="Helvetica,sans-Serif" font-size="10.00">TSlowControl.h</text>
</a>
</g>
<!-- Node22&#45;&gt;Node38 -->
<g id="edge136" class="edge"><title>Node22&#45;&gt;Node38</title>
<path fill="none" stroke="midnightblue" d="M1273.41,-428.248C1180.31,-422.639 970.981,-408.318 796.174,-384 684.297,-368.436 554.621,-341.756 484.214,-326.534"/>
<polygon fill="midnightblue" stroke="midnightblue" points="484.78,-323.076 474.265,-324.374 483.294,-329.916 484.78,-323.076"/>
</g>
<!-- Node39 -->
<g id="node113" class="node"><title>Node39</title>
<a xlink:href="_t_unpacker_message_8h.html" target="_top" xlink:title="TUnpackerMessage.h">
<polygon fill="white" stroke="black" points="735.674,-246.5 735.674,-267.5 848.674,-267.5 848.674,-246.5 735.674,-246.5"/>
<text text-anchor="middle" x="792.174" y="-254.5" font-family="Helvetica,sans-Serif" font-size="10.00">TUnpackerMessage.h</text>
</a>
</g>
<!-- Node22&#45;&gt;Node39 -->
<g id="edge148" class="edge"><title>Node22&#45;&gt;Node39</title>
<path fill="none" stroke="midnightblue" d="M1273.49,-428.596C1162.13,-422.734 895.825,-406.517 862.174,-384 828.626,-361.552 838.785,-339.282 819.174,-304 814.125,-294.916 808.407,-284.923 803.538,-276.496"/>
<polygon fill="midnightblue" stroke="midnightblue" points="806.526,-274.672 798.481,-267.778 800.471,-278.184 806.526,-274.672"/>
</g>
<!-- Node47 -->
<g id="node137" class="node"><title>Node47</title>
<a xlink:href="_t_tagger_hit_8h.html" target="_top" xlink:title="TTaggerHit.h">
<polygon fill="white" stroke="black" points="736.174,-304.5 736.174,-325.5 810.174,-325.5 810.174,-304.5 736.174,-304.5"/>
<text text-anchor="middle" x="773.174" y="-312.5" font-family="Helvetica,sans-Serif" font-size="10.00">TTaggerHit.h</text>
</a>
</g>
<!-- Node22&#45;&gt;Node47 -->
<g id="edge180" class="edge"><title>Node22&#45;&gt;Node47</title>
<path fill="none" stroke="midnightblue" d="M1273.65,-428.666C1156.07,-422.695 862.737,-405.783 824.174,-384 804.626,-372.958 790.418,-351.001 782.038,-334.809"/>
<polygon fill="midnightblue" stroke="midnightblue" points="785.093,-333.088 777.577,-325.621 778.796,-336.145 785.093,-333.088"/>
</g>
<!-- Node49 -->
<g id="node147" class="node"><title>Node49</title>
<a xlink:href="_t_trigger_8h.html" target="_top" xlink:title="TTrigger.h">
<polygon fill="white" stroke="black" points="2325.67,-181.5 2325.67,-202.5 2386.67,-202.5 2386.67,-181.5 2325.67,-181.5"/>
<text text-anchor="middle" x="2356.17" y="-189.5" font-family="Helvetica,sans-Serif" font-size="10.00">TTrigger.h</text>
</a>
</g>
<!-- Node22&#45;&gt;Node49 -->
<g id="edge196" class="edge"><title>Node22&#45;&gt;Node49</title>
<path fill="none" stroke="midnightblue" d="M1370.68,-429.606C1455.99,-426.381 1638.08,-416.036 1788.17,-384 1868.31,-366.897 1885.51,-352.111 1963.17,-326 2092.39,-282.56 2245.15,-230.178 2316.16,-205.769"/>
<polygon fill="midnightblue" stroke="midnightblue" points="2317.31,-209.075 2325.63,-202.514 2315.03,-202.456 2317.31,-209.075"/>
</g>
<!-- Node50 -->
<g id="node154" class="node"><title>Node50</title>
<a xlink:href="_t_target_8h.html" target="_top" xlink:title="TTarget.h">
<polygon fill="white" stroke="black" points="2211.67,-181.5 2211.67,-202.5 2270.67,-202.5 2270.67,-181.5 2211.67,-181.5"/>
<text text-anchor="middle" x="2241.17" y="-189.5" font-family="Helvetica,sans-Serif" font-size="10.00">TTarget.h</text>
</a>
</g>
<!-- Node22&#45;&gt;Node50 -->
<g id="edge208" class="edge"><title>Node22&#45;&gt;Node50</title>
<path fill="none" stroke="midnightblue" d="M1370.85,-428.92C1448.38,-424.83 1604.34,-413.423 1733.17,-384 1885.96,-349.106 1919.94,-324.358 2066.17,-268 2127.87,-244.223 2142.84,-237.048 2203.17,-210 2205.37,-209.017 2207.62,-207.99 2209.89,-206.946"/>
<polygon fill="midnightblue" stroke="midnightblue" points="2211.56,-210.028 2219.14,-202.627 2208.6,-203.685 2211.56,-210.028"/>
</g>
<!-- Node51 -->
<g id="node162" class="node"><title>Node51</title>
<a xlink:href="_t_cluster_8h.html" target="_top" xlink:title="TCluster.h">
<polygon fill="white" stroke="black" points="1720.17,-246.5 1720.17,-267.5 1782.17,-267.5 1782.17,-246.5 1720.17,-246.5"/>
<text text-anchor="middle" x="1751.17" y="-254.5" font-family="Helvetica,sans-Serif" font-size="10.00">TCluster.h</text>
</a>
</g>
<!-- Node22&#45;&gt;Node51 -->
<g id="edge222" class="edge"><title>Node22&#45;&gt;Node51</title>
<path fill="none" stroke="midnightblue" d="M1348.36,-420.377C1422.12,-390.462 1631.66,-305.474 1715.68,-271.396"/>
<polygon fill="midnightblue" stroke="midnightblue" points="1717.1,-274.596 1725.05,-267.594 1714.47,-268.109 1717.1,-274.596"/>
</g>
<!-- Node54 -->
<g id="node179" class="node"><title>Node54</title>
<a xlink:href="_t_candidate_8h.html" target="_top" xlink:title="TCandidate.h">
<polygon fill="white" stroke="black" points="1719.67,-304.5 1719.67,-325.5 1794.67,-325.5 1794.67,-304.5 1719.67,-304.5"/>
<text text-anchor="middle" x="1757.17" y="-312.5" font-family="Helvetica,sans-Serif" font-size="10.00">TCandidate.h</text>
</a>
</g>
<!-- Node22&#45;&gt;Node54 -->
<g id="edge250" class="edge"><title>Node22&#45;&gt;Node54</title>
<path fill="none" stroke="midnightblue" d="M1371.03,-429.771C1461.35,-426.734 1650.33,-416.571 1706.17,-384 1725.57,-372.688 1739.8,-350.779 1748.23,-334.672"/>
<polygon fill="midnightblue" stroke="midnightblue" points="1751.45,-336.057 1752.72,-325.539 1745.17,-332.968 1751.45,-336.057"/>
</g>
<!-- Node55 -->
<g id="node188" class="node"><title>Node55</title>
<a xlink:href="_t_particle_8h.html" target="_top" xlink:title="TParticle.h">
<polygon fill="white" stroke="black" points="2635.17,-362.5 2635.17,-383.5 2699.17,-383.5 2699.17,-362.5 2635.17,-362.5"/>
<text text-anchor="middle" x="2667.17" y="-370.5" font-family="Helvetica,sans-Serif" font-size="10.00">TParticle.h</text>
</a>
</g>
<!-- Node22&#45;&gt;Node55 -->
<g id="edge266" class="edge"><title>Node22&#45;&gt;Node55</title>
<path fill="none" stroke="midnightblue" d="M1370.84,-428.901C1583.09,-419.749 2426.12,-383.395 2624.99,-374.819"/>
<polygon fill="midnightblue" stroke="midnightblue" points="2625.2,-378.314 2635.04,-374.386 2624.89,-371.32 2625.2,-378.314"/>
</g>
<!-- Node23&#45;&gt;Node6 -->
<g id="edge62" class="edge"><title>Node23&#45;&gt;Node6</title>
<path fill="none" stroke="midnightblue" d="M365.825,-246.403C360.462,-219.036 350.774,-146.043 392.174,-116 421.2,-94.9364 951.159,-75.5528 1104.77,-70.3578"/>
<polygon fill="midnightblue" stroke="midnightblue" points="1105.29,-73.8424 1115.17,-70.0085 1105.06,-66.8463 1105.29,-73.8424"/>
</g>
<!-- Node23&#45;&gt;Node7 -->
<g id="edge80" class="edge"><title>Node23&#45;&gt;Node7</title>
<path fill="none" stroke="midnightblue" d="M347.624,-256.298C291.274,-253.937 136.177,-244.386 101.174,-210 71.0422,-180.4 61.631,-149.64 87.174,-116 145.211,-39.5657 200.484,-73.6268 295.174,-58 453.963,-31.795 957.347,-16.1886 1105.05,-12.0898"/>
<polygon fill="midnightblue" stroke="midnightblue" points="1105.16,-15.5882 1115.06,-11.8146 1104.97,-8.59085 1105.16,-15.5882"/>
</g>
<!-- Node23&#45;&gt;Node11 -->
<g id="edge86" class="edge"><title>Node23&#45;&gt;Node11</title>
<path fill="none" stroke="midnightblue" d="M388.907,-254.967C445.913,-249.157 603.916,-231.506 651.174,-210 710.946,-182.8 703.976,-139.817 765.174,-116 903.707,-62.0867 1281.6,-103.49 1445.45,-79.8719"/>
<polygon fill="midnightblue" stroke="midnightblue" points="1446.12,-83.3098 1455.45,-78.3015 1445.03,-76.3944 1446.12,-83.3098"/>
</g>
<!-- Node23&#45;&gt;Node19 -->
<g id="edge88" class="edge"><title>Node23&#45;&gt;Node19</title>
<path fill="none" stroke="midnightblue" d="M388.812,-256.302C443.805,-254.457 598.454,-249.361 727.174,-246 912.487,-241.161 2214.26,-250.437 2395.17,-210 2433.62,-201.407 2438.56,-185.727 2476.17,-174 2558.64,-148.285 2583.78,-160.511 2667.17,-138 2669.37,-137.408 2671.63,-136.733 2673.89,-136.017"/>
<polygon fill="midnightblue" stroke="midnightblue" points="2675.17,-139.278 2683.5,-132.732 2672.9,-132.654 2675.17,-139.278"/>
</g>
<!-- Node23&#45;&gt;Node21 -->
<g id="edge60" class="edge"><title>Node23&#45;&gt;Node21</title>
<path fill="none" stroke="midnightblue" d="M368.097,-246.257C368.494,-229.348 371.414,-196.169 387.174,-174 396.888,-160.336 411.944,-149.782 426.025,-142.169"/>
<polygon fill="midnightblue" stroke="midnightblue" points="427.731,-145.228 435.071,-137.588 424.569,-138.984 427.731,-145.228"/>
</g>
<!-- Node24 -->
<g id="node56" class="node"><title>Node24</title>
<a xlink:href="time_8h.html" target="_top" xlink:title="base/std_ext/time.h">
<polygon fill="white" stroke="black" points="123.674,-181.5 123.674,-202.5 226.674,-202.5 226.674,-181.5 123.674,-181.5"/>
<text text-anchor="middle" x="175.174" y="-189.5" font-family="Helvetica,sans-Serif" font-size="10.00">base/std_ext/time.h</text>
</a>
</g>
<!-- Node23&#45;&gt;Node24 -->
<g id="edge64" class="edge"><title>Node23&#45;&gt;Node24</title>
<path fill="none" stroke="midnightblue" d="M347.52,-250.044C316.257,-239.515 256.303,-219.323 216.015,-205.755"/>
<polygon fill="midnightblue" stroke="midnightblue" points="217.072,-202.418 206.478,-202.543 214.838,-209.051 217.072,-202.418"/>
</g>
<!-- Node28 -->
<g id="node67" class="node"><title>Node28</title>
<polygon fill="white" stroke="#bfbfbf" points="95.674,-116.5 95.674,-137.5 136.674,-137.5 136.674,-116.5 95.674,-116.5"/>
<text text-anchor="middle" x="116.174" y="-124.5" font-family="Helvetica,sans-Serif" font-size="10.00">ctime</text>
</g>
<!-- Node23&#45;&gt;Node28 -->
<g id="edge92" class="edge"><title>Node23&#45;&gt;Node28</title>
<path fill="none" stroke="midnightblue" d="M347.563,-256.416C292.619,-254.383 144.805,-245.642 115.174,-210 100.85,-192.77 104.295,-165.852 109.208,-147.37"/>
<polygon fill="midnightblue" stroke="midnightblue" points="112.618,-148.185 112.147,-137.6 105.914,-146.168 112.618,-148.185"/>
</g>
<!-- Node29 -->
<g id="node70" class="node"><title>Node29</title>
<polygon fill="white" stroke="#bfbfbf" points="396.174,-181.5 396.174,-202.5 434.174,-202.5 434.174,-181.5 396.174,-181.5"/>
<text text-anchor="middle" x="415.174" y="-189.5" font-family="Helvetica,sans-Serif" font-size="10.00">tuple</text>
</g>
<!-- Node23&#45;&gt;Node29 -->
<g id="edge82" class="edge"><title>Node23&#45;&gt;Node29</title>
<path fill="none" stroke="midnightblue" d="M375.935,-246.267C382.916,-236.612 393.327,-222.215 401.671,-210.675"/>
<polygon fill="midnightblue" stroke="midnightblue" points="404.534,-212.688 407.557,-202.534 398.862,-208.586 404.534,-212.688"/>
</g>
<!-- Node30 -->
<g id="node72" class="node"><title>Node30</title>
<polygon fill="white" stroke="#bfbfbf" points="218.174,-116.5 218.174,-137.5 264.174,-137.5 264.174,-116.5 218.174,-116.5"/>
<text text-anchor="middle" x="241.174" y="-124.5" font-family="Helvetica,sans-Serif" font-size="10.00">cstdint</text>
</g>
<!-- Node23&#45;&gt;Node30 -->
<g id="edge84" class="edge"><title>Node23&#45;&gt;Node30</title>
<path fill="none" stroke="midnightblue" d="M355.449,-246.138C344.715,-236.826 329.08,-222.908 316.174,-210 294.696,-188.52 271.467,-162.305 256.644,-145.159"/>
<polygon fill="midnightblue" stroke="midnightblue" points="259.259,-142.832 250.087,-137.531 253.951,-147.396 259.259,-142.832"/>
</g>
<!-- Node31 -->
<g id="node76" class="node"><title>Node31</title>
<polygon fill="white" stroke="#bfbfbf" points="1369.17,-181.5 1369.17,-202.5 1419.17,-202.5 1419.17,-181.5 1369.17,-181.5"/>
<text text-anchor="middle" x="1394.17" y="-189.5" font-family="Helvetica,sans-Serif" font-size="10.00">iomanip</text>
</g>
<!-- Node23&#45;&gt;Node31 -->
<g id="edge90" class="edge"><title>Node23&#45;&gt;Node31</title>
<path fill="none" stroke="midnightblue" d="M389.134,-255.672C517.325,-247.551 1195.45,-204.59 1358.77,-194.243"/>
<polygon fill="midnightblue" stroke="midnightblue" points="1359.01,-197.735 1368.77,-193.609 1358.57,-190.749 1359.01,-197.735"/>
</g>
<!-- Node25 -->
<g id="node58" class="node"><title>Node25</title>
<a xlink:href="string_8h.html" target="_top" xlink:title="base/std_ext/string.h">
<polygon fill="white" stroke="black" points="1958.17,-116.5 1958.17,-137.5 2066.17,-137.5 2066.17,-116.5 1958.17,-116.5"/>
<text text-anchor="middle" x="2012.17" y="-124.5" font-family="Helvetica,sans-Serif" font-size="10.00">base/std_ext/string.h</text>
</a>
</g>
<!-- Node24&#45;&gt;Node25 -->
<g id="edge66" class="edge"><title>Node24&#45;&gt;Node25</title>
<path fill="none" stroke="midnightblue" d="M226.953,-186.723C269.838,-182.565 332.402,-176.986 387.174,-174 1046.83,-138.038 1213.41,-172.072 1873.17,-138 1897.6,-136.738 1924.4,-134.759 1947.9,-132.825"/>
<polygon fill="midnightblue" stroke="midnightblue" points="1948.42,-136.294 1958.09,-131.972 1947.83,-129.318 1948.42,-136.294"/>
</g>
<!-- Node27 -->
<g id="node65" class="node"><title>Node27</title>
<polygon fill="white" stroke="#bfbfbf" points="154.174,-116.5 154.174,-137.5 200.174,-137.5 200.174,-116.5 154.174,-116.5"/>
<text text-anchor="middle" x="177.174" y="-124.5" font-family="Helvetica,sans-Serif" font-size="10.00">cstring</text>
</g>
<!-- Node24&#45;&gt;Node27 -->
<g id="edge76" class="edge"><title>Node24&#45;&gt;Node27</title>
<path fill="none" stroke="midnightblue" d="M175.504,-181.267C175.784,-172.18 176.193,-158.892 176.536,-147.74"/>
<polygon fill="midnightblue" stroke="midnightblue" points="180.041,-147.637 176.85,-137.534 173.044,-147.421 180.041,-147.637"/>
</g>
<!-- Node24&#45;&gt;Node28 -->
<g id="edge78" class="edge"><title>Node24&#45;&gt;Node28</title>
<path fill="none" stroke="midnightblue" d="M165.431,-181.267C156.496,-171.423 143.085,-156.648 132.512,-145"/>
<polygon fill="midnightblue" stroke="midnightblue" points="135.048,-142.586 125.735,-137.534 129.865,-147.291 135.048,-142.586"/>
</g>
<!-- Node25&#45;&gt;Node10 -->
<g id="edge72" class="edge"><title>Node25&#45;&gt;Node10</title>
<path fill="none" stroke="midnightblue" d="M2012.17,-116.362C2012.17,-108.922 2012.17,-98.7427 2012.17,-89.7276"/>
<polygon fill="midnightblue" stroke="midnightblue" points="2015.67,-89.5706 2012.17,-79.5707 2008.67,-89.5707 2015.67,-89.5706"/>
</g>
<!-- Node25&#45;&gt;Node15 -->
<g id="edge74" class="edge"><title>Node25&#45;&gt;Node15</title>
<path fill="none" stroke="midnightblue" d="M2066.36,-118.19C2071.03,-117.444 2075.68,-116.706 2080.17,-116 2180.82,-100.18 2300.11,-82.1955 2356.11,-73.7962"/>
<polygon fill="midnightblue" stroke="midnightblue" points="2356.76,-77.2384 2366.13,-72.2949 2355.72,-70.3157 2356.76,-77.2384"/>
</g>
<!-- Node25&#45;&gt;Node16 -->
<g id="edge68" class="edge"><title>Node25&#45;&gt;Node16</title>
<path fill="none" stroke="midnightblue" d="M2066.38,-123.358C2101.41,-121.072 2147.97,-118.159 2189.17,-116 2613.34,-93.7684 3129.85,-74.7488 3259.53,-70.09"/>
<polygon fill="midnightblue" stroke="midnightblue" points="3259.67,-73.5872 3269.54,-69.7313 3259.42,-66.5917 3259.67,-73.5872"/>
</g>
<!-- Node26 -->
<g id="node61" class="node"><title>Node26</title>
<polygon fill="white" stroke="#bfbfbf" points="304.174,-58.5 304.174,-79.5 356.174,-79.5 356.174,-58.5 304.174,-58.5"/>
<text text-anchor="middle" x="330.174" y="-66.5" font-family="Helvetica,sans-Serif" font-size="10.00">sstream</text>
</g>
<!-- Node25&#45;&gt;Node26 -->
<g id="edge70" class="edge"><title>Node25&#45;&gt;Node26</title>
<path fill="none" stroke="midnightblue" d="M1958.09,-122.107C1932.38,-119.938 1901.21,-117.536 1873.17,-116 1271.91,-83.0714 537.502,-71.7395 366.808,-69.4597"/>
<polygon fill="midnightblue" stroke="midnightblue" points="366.655,-65.9575 356.61,-69.3254 366.563,-72.9569 366.655,-65.9575"/>
</g>
<!-- Node32&#45;&gt;Node26 -->
<g id="edge134" class="edge"><title>Node32&#45;&gt;Node26</title>
<path fill="none" stroke="midnightblue" d="M1346,-247.116C1343.02,-246.7 1340.06,-246.323 1337.17,-246 1157.45,-225.908 700.204,-251.446 524.174,-210 485.827,-200.971 479.44,-189.388 443.174,-174 403.895,-157.333 383.588,-168.911 354.174,-138 341.651,-124.839 335.628,-104.805 332.752,-89.7092"/>
<polygon fill="midnightblue" stroke="midnightblue" points="336.197,-89.0829 331.166,-79.7585 329.284,-90.1847 336.197,-89.0829"/>
</g>
<!-- Node32&#45;&gt;Node31 -->
<g id="edge132" class="edge"><title>Node32&#45;&gt;Node31</title>
<path fill="none" stroke="midnightblue" d="M1397.51,-246.267C1396.95,-237.18 1396.14,-223.892 1395.45,-212.74"/>
<polygon fill="midnightblue" stroke="midnightblue" points="1398.93,-212.3 1394.82,-202.534 1391.94,-212.73 1398.93,-212.3"/>
</g>
<!-- Node33 -->
<g id="node81" class="node"><title>Node33</title>
<a xlink:href="_detector__t_8h.html" target="_top" xlink:title="base/Detector_t.h">
<polygon fill="white" stroke="black" points="1436.67,-181.5 1436.67,-202.5 1531.67,-202.5 1531.67,-181.5 1436.67,-181.5"/>
<text text-anchor="middle" x="1484.17" y="-189.5" font-family="Helvetica,sans-Serif" font-size="10.00">base/Detector_t.h</text>
</a>
</g>
<!-- Node32&#45;&gt;Node33 -->
<g id="edge96" class="edge"><title>Node32&#45;&gt;Node33</title>
<path fill="none" stroke="midnightblue" d="M1412.38,-246.267C1425.9,-236.044 1446.46,-220.504 1462.12,-208.67"/>
<polygon fill="midnightblue" stroke="midnightblue" points="1464.37,-211.356 1470.24,-202.534 1460.15,-205.771 1464.37,-211.356"/>
</g>
<!-- Node33&#45;&gt;Node6 -->
<g id="edge98" class="edge"><title>Node33&#45;&gt;Node6</title>
<path fill="none" stroke="midnightblue" d="M1453.55,-181.452C1445.36,-178.825 1436.48,-176.148 1428.17,-174 1348.35,-153.349 1322.13,-170.082 1246.17,-138 1215.71,-125.132 1185.05,-102.142 1165.86,-86.2569"/>
<polygon fill="midnightblue" stroke="midnightblue" points="1168.03,-83.5088 1158.13,-79.7273 1163.51,-88.8553 1168.03,-83.5088"/>
</g>
<!-- Node33&#45;&gt;Node7 -->
<g id="edge128" class="edge"><title>Node33&#45;&gt;Node7</title>
<path fill="none" stroke="midnightblue" d="M1451.16,-181.399C1402.93,-165.901 1318.72,-138.796 1317.17,-138 1257.08,-107.036 1195.61,-55.5311 1165.38,-28.6127"/>
<polygon fill="midnightblue" stroke="midnightblue" points="1167.48,-25.7964 1157.7,-21.7097 1162.8,-31.0002 1167.48,-25.7964"/>
</g>
<!-- Node33&#45;&gt;Node11 -->
<g id="edge124" class="edge"><title>Node33&#45;&gt;Node11</title>
<path fill="none" stroke="midnightblue" d="M1484.26,-181.085C1484.43,-160.609 1484.79,-116.133 1485.01,-89.778"/>
<polygon fill="midnightblue" stroke="midnightblue" points="1488.51,-89.7435 1485.09,-79.7153 1481.51,-89.6865 1488.51,-89.7435"/>
</g>
<!-- Node33&#45;&gt;Node15 -->
<g id="edge130" class="edge"><title>Node33&#45;&gt;Node15</title>
<path fill="none" stroke="midnightblue" d="M1532.05,-189.979C1658.53,-184.301 1999.36,-166.72 2108.17,-138 2130.86,-132.011 2133.86,-123.267 2156.17,-116 2225.63,-93.3809 2310.48,-79.5135 2355.87,-73.1493"/>
<polygon fill="midnightblue" stroke="midnightblue" points="2356.56,-76.5871 2365.99,-71.7627 2355.61,-69.6519 2356.56,-76.5871"/>
</g>
<!-- Node33&#45;&gt;Node16 -->
<g id="edge126" class="edge"><title>Node33&#45;&gt;Node16</title>
<path fill="none" stroke="midnightblue" d="M1532.03,-190.315C1742.54,-182.831 2578.27,-152.336 2632.17,-138 2652.92,-132.482 2654.51,-121.821 2675.17,-116 2786.9,-84.5248 3150.48,-72.6522 3259.2,-69.7544"/>
<polygon fill="midnightblue" stroke="midnightblue" points="3259.57,-73.246 3269.47,-69.4872 3259.39,-66.2484 3259.57,-73.246"/>
</g>
<!-- Node33&#45;&gt;Node30 -->
<g id="edge122" class="edge"><title>Node33&#45;&gt;Node30</title>
<path fill="none" stroke="midnightblue" d="M1456.64,-181.489C1447.69,-178.523 1437.63,-175.657 1428.17,-174 1208.49,-135.511 647.952,-148.656 425.174,-138 372.516,-135.481 311.434,-131.649 274.577,-129.237"/>
<polygon fill="midnightblue" stroke="midnightblue" points="274.61,-125.732 264.401,-128.567 274.15,-132.716 274.61,-125.732"/>
</g>
<!-- Node34 -->
<g id="node84" class="node"><title>Node34</title>
<a xlink:href="vec3_8h.html" target="_top" xlink:title="base/vec/vec3.h">
<polygon fill="white" stroke="black" points="1325.67,-116.5 1325.67,-137.5 1414.67,-137.5 1414.67,-116.5 1325.67,-116.5"/>
<text text-anchor="middle" x="1370.17" y="-124.5" font-family="Helvetica,sans-Serif" font-size="10.00">base/vec/vec3.h</text>
</a>
</g>
<!-- Node33&#45;&gt;Node34 -->
<g id="edge100" class="edge"><title>Node33&#45;&gt;Node34</title>
<path fill="none" stroke="midnightblue" d="M1465.6,-181.412C1447.14,-170.883 1418.6,-154.611 1397.54,-142.602"/>
<polygon fill="midnightblue" stroke="midnightblue" points="1399.16,-139.496 1388.74,-137.584 1395.69,-145.577 1399.16,-139.496"/>
</g>
<!-- Node33&#45;&gt;Node37 -->
<g id="edge110" class="edge"><title>Node33&#45;&gt;Node37</title>
<path fill="none" stroke="midnightblue" d="M1515.29,-181.412C1547.75,-170.364 1598.8,-152.991 1634.45,-140.857"/>
<polygon fill="midnightblue" stroke="midnightblue" points="1635.74,-144.119 1644.07,-137.584 1633.48,-137.492 1635.74,-144.119"/>
</g>
<!-- Node34&#45;&gt;Node6 -->
<g id="edge102" class="edge"><title>Node34&#45;&gt;Node6</title>
<path fill="none" stroke="midnightblue" d="M1329.61,-116.497C1289.28,-106.054 1227.74,-90.1195 1187.24,-79.632"/>
<polygon fill="midnightblue" stroke="midnightblue" points="1187.98,-76.2081 1177.42,-77.0897 1186.22,-82.9846 1187.98,-76.2081"/>
</g>
<!-- Node35 -->
<g id="node87" class="node"><title>Node35</title>
<a xlink:href="vec2_8h.html" target="_top" xlink:title="vec2.h">
<polygon fill="white" stroke="black" points="1392.17,-58.5 1392.17,-79.5 1438.17,-79.5 1438.17,-58.5 1392.17,-58.5"/>
<text text-anchor="middle" x="1415.17" y="-66.5" font-family="Helvetica,sans-Serif" font-size="10.00">vec2.h</text>
</a>
</g>
<!-- Node34&#45;&gt;Node35 -->
<g id="edge104" class="edge"><title>Node34&#45;&gt;Node35</title>
<path fill="none" stroke="midnightblue" d="M1378.43,-116.362C1384.64,-108.35 1393.33,-97.1605 1400.69,-87.6696"/>
<polygon fill="midnightblue" stroke="midnightblue" points="1403.61,-89.617 1406.97,-79.5707 1398.08,-85.326 1403.61,-89.617"/>
</g>
<!-- Node36 -->
<g id="node89" class="node"><title>Node36</title>
<polygon fill="white" stroke="#bfbfbf" points="1393.17,-0.5 1393.17,-21.5 1437.17,-21.5 1437.17,-0.5 1393.17,-0.5"/>
<text text-anchor="middle" x="1415.17" y="-8.5" font-family="Helvetica,sans-Serif" font-size="10.00">cmath</text>
</g>
<!-- Node34&#45;&gt;Node36 -->
<g id="edge108" class="edge"><title>Node34&#45;&gt;Node36</title>
<path fill="none" stroke="midnightblue" d="M1370.83,-116.33C1371.98,-102.434 1375.07,-77.6017 1383.17,-58 1387.27,-48.0848 1393.66,-38.1169 1399.65,-29.9284"/>
<polygon fill="midnightblue" stroke="midnightblue" points="1402.56,-31.8908 1405.87,-21.828 1397.01,-27.6269 1402.56,-31.8908"/>
</g>
<!-- Node35&#45;&gt;Node36 -->
<g id="edge106" class="edge"><title>Node35&#45;&gt;Node36</title>
<path fill="none" stroke="midnightblue" d="M1415.17,-58.3619C1415.17,-50.9219 1415.17,-40.7427 1415.17,-31.7276"/>
<polygon fill="midnightblue" stroke="midnightblue" points="1418.67,-31.5706 1415.17,-21.5707 1411.67,-31.5707 1418.67,-31.5706"/>
</g>
<!-- Node37&#45;&gt;Node10 -->
<g id="edge118" class="edge"><title>Node37&#45;&gt;Node10</title>
<path fill="none" stroke="midnightblue" d="M1728.2,-117.874C1796.54,-106.112 1913.7,-85.9484 1973.94,-75.5807"/>
<polygon fill="midnightblue" stroke="midnightblue" points="1974.54,-79.0287 1983.8,-73.8832 1973.35,-72.1301 1974.54,-79.0287"/>
</g>
<!-- Node37&#45;&gt;Node11 -->
<g id="edge120" class="edge"><title>Node37&#45;&gt;Node11</title>
<path fill="none" stroke="midnightblue" d="M1640.77,-116.497C1608.06,-106.514 1558.92,-91.5114 1524.64,-81.0473"/>
<polygon fill="midnightblue" stroke="midnightblue" points="1525.54,-77.6626 1514.95,-78.0904 1523.5,-84.3576 1525.54,-77.6626"/>
</g>
<!-- Node37&#45;&gt;Node12 -->
<g id="edge114" class="edge"><title>Node37&#45;&gt;Node12</title>
<path fill="none" stroke="midnightblue" d="M1678.11,-116.362C1680.18,-108.84 1683.03,-98.5187 1685.54,-89.4308"/>
<polygon fill="midnightblue" stroke="midnightblue" points="1688.97,-90.1414 1688.26,-79.5707 1682.22,-88.2798 1688.97,-90.1414"/>
</g>
<!-- Node37&#45;&gt;Node15 -->
<g id="edge116" class="edge"><title>Node37&#45;&gt;Node15</title>
<path fill="none" stroke="midnightblue" d="M1728.34,-120.822C1743.46,-119.154 1759.96,-117.42 1775.17,-116 1997.04,-95.298 2264.7,-77.1047 2355.93,-71.0955"/>
<polygon fill="midnightblue" stroke="midnightblue" points="2356.41,-74.5713 2366.16,-70.4238 2355.95,-67.5863 2356.41,-74.5713"/>
</g>
<!-- Node37&#45;&gt;Node36 -->
<g id="edge112" class="edge"><title>Node37&#45;&gt;Node36</title>
<path fill="none" stroke="midnightblue" d="M1652.31,-116.484C1622.6,-102.858 1569.12,-78.4246 1523.17,-58 1497.57,-46.619 1468.44,-33.9571 1446.89,-24.6456"/>
<polygon fill="midnightblue" stroke="midnightblue" points="1448.13,-21.3687 1437.56,-20.6198 1445.35,-27.7957 1448.13,-21.3687"/>
</g>
<!-- Node38&#45;&gt;Node6 -->
<g id="edge142" class="edge"><title>Node38&#45;&gt;Node6</title>
<path fill="none" stroke="midnightblue" d="M435.237,-304.215C441.526,-280.378 454.4,-221.554 443.174,-174 436.973,-147.731 406.72,-135.696 425.174,-116 448.547,-91.0538 955.033,-74.5096 1104.81,-70.1494"/>
<polygon fill="midnightblue" stroke="midnightblue" points="1105.07,-73.6434 1114.97,-69.8566 1104.87,-66.6463 1105.07,-73.6434"/>
</g>
<!-- Node38&#45;&gt;Node23 -->
<g id="edge138" class="edge"><title>Node38&#45;&gt;Node23</title>
<path fill="none" stroke="midnightblue" d="M420.435,-304.362C411.233,-296.023 398.234,-284.242 387.502,-274.516"/>
<polygon fill="midnightblue" stroke="midnightblue" points="389.598,-271.692 379.838,-267.571 384.898,-276.879 389.598,-271.692"/>
</g>
<!-- Node38&#45;&gt;Node24 -->
<g id="edge140" class="edge"><title>Node38&#45;&gt;Node24</title>
<path fill="none" stroke="midnightblue" d="M389.996,-312.146C349.06,-307.732 286.498,-296.508 240.174,-268 217.218,-253.873 198.2,-228.93 186.786,-211.484"/>
<polygon fill="midnightblue" stroke="midnightblue" points="189.536,-209.283 181.25,-202.68 183.61,-213.009 189.536,-209.283"/>
</g>
<!-- Node38&#45;&gt;Node29 -->
<g id="edge146" class="edge"><title>Node38&#45;&gt;Node29</title>
<path fill="none" stroke="midnightblue" d="M430.665,-304.085C427.835,-283.609 421.688,-239.133 418.046,-212.778"/>
<polygon fill="midnightblue" stroke="midnightblue" points="421.491,-212.142 416.655,-202.715 414.557,-213.1 421.491,-212.142"/>
</g>
<!-- Node38&#45;&gt;Node30 -->
<g id="edge144" class="edge"><title>Node38&#45;&gt;Node30</title>
<path fill="none" stroke="midnightblue" d="M406.133,-304.376C386.804,-295.901 360.256,-282.993 339.174,-268 308.949,-246.504 300.599,-240.275 279.174,-210 265.3,-190.395 254.536,-164.915 248.061,-147.386"/>
<polygon fill="midnightblue" stroke="midnightblue" points="251.239,-145.876 244.595,-137.623 244.643,-148.218 251.239,-145.876"/>
</g>
<!-- Node39&#45;&gt;Node6 -->
<g id="edge178" class="edge"><title>Node39&#45;&gt;Node6</title>
<path fill="none" stroke="midnightblue" d="M780.514,-246.176C754.432,-220.7 696.382,-156.085 732.174,-116 756.749,-88.4776 1005.12,-74.9713 1104.95,-70.6217"/>
<polygon fill="midnightblue" stroke="midnightblue" points="1105.14,-74.1172 1114.98,-70.1941 1104.84,-67.1236 1105.14,-74.1172"/>
</g>
<!-- Node40 -->
<g id="node115" class="node"><title>Node40</title>
<a xlink:href="_format_8h.html" target="_top" xlink:title="base/Format.h">
<polygon fill="white" stroke="black" points="1015.17,-181.5 1015.17,-202.5 1095.17,-202.5 1095.17,-181.5 1015.17,-181.5"/>
<text text-anchor="middle" x="1055.17" y="-189.5" font-family="Helvetica,sans-Serif" font-size="10.00">base/Format.h</text>
</a>
</g>
<!-- Node39&#45;&gt;Node40 -->
<g id="edge150" class="edge"><title>Node39&#45;&gt;Node40</title>
<path fill="none" stroke="midnightblue" d="M834.722,-246.484C881.237,-234.988 955.707,-216.583 1005.03,-204.393"/>
<polygon fill="midnightblue" stroke="midnightblue" points="1005.98,-207.764 1014.85,-201.967 1004.3,-200.969 1005.98,-207.764"/>
</g>
<!-- Node40&#45;&gt;Node11 -->
<g id="edge168" class="edge"><title>Node40&#45;&gt;Node11</title>
<path fill="none" stroke="midnightblue" d="M1083.8,-181.44C1126.87,-165.795 1211.08,-136.143 1284.17,-116 1352.62,-97.1364 1373.5,-98.1894 1445.36,-80.3497"/>
<polygon fill="midnightblue" stroke="midnightblue" points="1446.51,-83.6682 1455.35,-77.8291 1444.8,-76.8807 1446.51,-83.6682"/>
</g>
<!-- Node40&#45;&gt;Node12 -->
<g id="edge164" class="edge"><title>Node40&#45;&gt;Node12</title>
<path fill="none" stroke="midnightblue" d="M1095.34,-183.391C1137.78,-173.884 1206.43,-157.339 1264.17,-138 1288.36,-129.901 1292.52,-122.538 1317.17,-116 1441.85,-82.9367 1596.24,-72.9251 1660.69,-70.0684"/>
<polygon fill="midnightblue" stroke="midnightblue" points="1661.1,-73.5544 1670.95,-69.6414 1660.81,-66.5604 1661.1,-73.5544"/>
</g>
<!-- Node40&#45;&gt;Node15 -->
<g id="edge172" class="edge"><title>Node40&#45;&gt;Node15</title>
<path fill="none" stroke="midnightblue" d="M1095.62,-189.501C1154.03,-185.919 1265.37,-179.184 1360.17,-174 1519.03,-165.314 1924.12,-187.917 2075.17,-138 2091.91,-132.469 2091.79,-122.492 2108.17,-116 2193.28,-82.2892 2302.25,-72.7544 2355.68,-70.0598"/>
<polygon fill="midnightblue" stroke="midnightblue" points="2356.08,-73.5455 2365.91,-69.5946 2355.76,-66.5528 2356.08,-73.5455"/>
</g>
<!-- Node40&#45;&gt;Node16 -->
<g id="edge170" class="edge"><title>Node40&#45;&gt;Node16</title>
<path fill="none" stroke="midnightblue" d="M1095.61,-189.252C1154,-185.367 1265.32,-178.266 1360.17,-174 1876.79,-150.764 2009.46,-197.366 2523.17,-138 2572.27,-132.327 2583.2,-122.663 2632.17,-116 2872.32,-83.3242 3165.08,-72.5539 3259.36,-69.8017"/>
<polygon fill="midnightblue" stroke="midnightblue" points="3259.71,-73.2932 3269.61,-69.5116 3259.51,-66.296 3259.71,-73.2932"/>
</g>
<!-- Node40&#45;&gt;Node18 -->
<g id="edge166" class="edge"><title>Node40&#45;&gt;Node18</title>
<path fill="none" stroke="midnightblue" d="M1095.61,-189.155C1153.99,-185.152 1265.31,-177.909 1360.17,-174 1698.28,-160.068 2543.8,-193.128 2895.97,-137.719"/>
<polygon fill="midnightblue" stroke="midnightblue" points="2896.68,-141.15 2905.99,-136.097 2895.56,-134.241 2896.68,-141.15"/>
</g>
<!-- Node40&#45;&gt;Node27 -->
<g id="edge162" class="edge"><title>Node40&#45;&gt;Node27</title>
<path fill="none" stroke="midnightblue" d="M1014.94,-190.065C862.652,-182.657 324.88,-155.711 210.393,-137.568"/>
<polygon fill="midnightblue" stroke="midnightblue" points="210.853,-134.095 200.394,-135.786 209.624,-140.986 210.853,-134.095"/>
</g>
<!-- Node40&#45;&gt;Node36 -->
<g id="edge158" class="edge"><title>Node40&#45;&gt;Node36</title>
<path fill="none" stroke="midnightblue" d="M1014.91,-190.612C942.86,-187.191 796.473,-175.665 765.174,-138 758.925,-130.48 758.866,-123.471 765.174,-116 805.748,-67.9423 1256.97,-24.9104 1382.78,-13.7823"/>
<polygon fill="midnightblue" stroke="midnightblue" points="1383.28,-17.2522 1392.93,-12.8913 1382.67,-10.279 1383.28,-17.2522"/>
</g>
<!-- Node41 -->
<g id="node117" class="node"><title>Node41</title>
<polygon fill="white" stroke="#bfbfbf" points="774.174,-116.5 774.174,-137.5 870.174,-137.5 870.174,-116.5 774.174,-116.5"/>
<text text-anchor="middle" x="822.174" y="-124.5" font-family="Helvetica,sans-Serif" font-size="10.00">detail/fmt/format.h</text>
</g>
<!-- Node40&#45;&gt;Node41 -->
<g id="edge152" class="edge"><title>Node40&#45;&gt;Node41</title>
<path fill="none" stroke="midnightblue" d="M1017.48,-181.484C977.212,-170.251 913.297,-152.421 869.629,-140.239"/>
<polygon fill="midnightblue" stroke="midnightblue" points="870.387,-136.816 859.814,-137.501 868.506,-143.559 870.387,-136.816"/>
</g>
<!-- Node42 -->
<g id="node119" class="node"><title>Node42</title>
<polygon fill="white" stroke="#bfbfbf" points="2197.67,-116.5 2197.67,-137.5 2246.67,-137.5 2246.67,-116.5 2197.67,-116.5"/>
<text text-anchor="middle" x="2222.17" y="-124.5" font-family="Helvetica,sans-Serif" font-size="10.00">cassert</text>
</g>
<!-- Node40&#45;&gt;Node42 -->
<g id="edge154" class="edge"><title>Node40&#45;&gt;Node42</title>
<path fill="none" stroke="midnightblue" d="M1095.62,-189.473C1154.02,-185.856 1265.36,-179.079 1360.17,-174 1692.53,-156.196 1776.21,-161.99 2108.17,-138 2134.71,-136.082 2164.65,-133.164 2187.19,-130.815"/>
<polygon fill="midnightblue" stroke="midnightblue" points="2187.72,-134.279 2197.3,-129.748 2186.98,-127.317 2187.72,-134.279"/>
</g>
<!-- Node43 -->
<g id="node121" class="node"><title>Node43</title>
<polygon fill="white" stroke="#bfbfbf" points="887.674,-116.5 887.674,-137.5 934.674,-137.5 934.674,-116.5 887.674,-116.5"/>
<text text-anchor="middle" x="911.174" y="-124.5" font-family="Helvetica,sans-Serif" font-size="10.00">clocale</text>
</g>
<!-- Node40&#45;&gt;Node43 -->
<g id="edge156" class="edge"><title>Node40&#45;&gt;Node43</title>
<path fill="none" stroke="midnightblue" d="M1031.72,-181.412C1007.87,-170.647 970.719,-153.878 943.964,-141.801"/>
<polygon fill="midnightblue" stroke="midnightblue" points="945.175,-138.508 934.621,-137.584 942.295,-144.888 945.175,-138.508"/>
</g>
<!-- Node44 -->
<g id="node124" class="node"><title>Node44</title>
<polygon fill="white" stroke="#bfbfbf" points="951.674,-116.5 951.674,-137.5 994.674,-137.5 994.674,-116.5 951.674,-116.5"/>
<text text-anchor="middle" x="973.174" y="-124.5" font-family="Helvetica,sans-Serif" font-size="10.00">cstdio</text>
</g>
<!-- Node40&#45;&gt;Node44 -->
<g id="edge160" class="edge"><title>Node40&#45;&gt;Node44</title>
<path fill="none" stroke="midnightblue" d="M1041.63,-181.267C1028.86,-171.139 1009.5,-155.792 994.62,-144"/>
<polygon fill="midnightblue" stroke="midnightblue" points="996.473,-141.003 986.463,-137.534 992.125,-146.488 996.473,-141.003"/>
</g>
<!-- Node45 -->
<g id="node132" class="node"><title>Node45</title>
<polygon fill="white" stroke="#bfbfbf" points="1012.17,-116.5 1012.17,-137.5 1052.17,-137.5 1052.17,-116.5 1012.17,-116.5"/>
<text text-anchor="middle" x="1032.17" y="-124.5" font-family="Helvetica,sans-Serif" font-size="10.00">utility</text>
</g>
<!-- Node40&#45;&gt;Node45 -->
<g id="edge174" class="edge"><title>Node40&#45;&gt;Node45</title>
<path fill="none" stroke="midnightblue" d="M1051.38,-181.267C1048.09,-171.991 1043.26,-158.336 1039.27,-147.045"/>
<polygon fill="midnightblue" stroke="midnightblue" points="1042.54,-145.793 1035.9,-137.534 1035.94,-148.128 1042.54,-145.793"/>
</g>
<!-- Node46 -->
<g id="node134" class="node"><title>Node46</title>
<polygon fill="white" stroke="#bfbfbf" points="1069.67,-116.5 1069.67,-137.5 1118.67,-137.5 1118.67,-116.5 1069.67,-116.5"/>
<text text-anchor="middle" x="1094.17" y="-124.5" font-family="Helvetica,sans-Serif" font-size="10.00">stdint.h</text>
</g>
<!-- Node40&#45;&gt;Node46 -->
<g id="edge176" class="edge"><title>Node40&#45;&gt;Node46</title>
<path fill="none" stroke="midnightblue" d="M1061.61,-181.267C1067.29,-171.801 1075.71,-157.777 1082.56,-146.357"/>
<polygon fill="midnightblue" stroke="midnightblue" points="1085.71,-147.909 1087.85,-137.534 1079.71,-144.308 1085.71,-147.909"/>
</g>
<!-- Node47&#45;&gt;Node6 -->
<g id="edge184" class="edge"><title>Node47&#45;&gt;Node6</title>
<path fill="none" stroke="midnightblue" d="M758.33,-304.496C747.62,-295.996 733.906,-283 727.174,-268 699.463,-206.26 673.009,-166.397 718.174,-116 743.712,-87.5044 1002.2,-74.525 1104.66,-70.4705"/>
<polygon fill="midnightblue" stroke="midnightblue" points="1105.08,-73.9571 1114.93,-70.0733 1104.81,-66.9623 1105.08,-73.9571"/>
</g>
<!-- Node47&#45;&gt;Node15 -->
<g id="edge190" class="edge"><title>Node47&#45;&gt;Node15</title>
<path fill="none" stroke="midnightblue" d="M810.418,-314.594C970.065,-312.653 1597.24,-302.913 1791.17,-268 1874.31,-253.033 1892.69,-238.593 1972.17,-210 2012.71,-195.418 2020.8,-186.007 2062.17,-174 2145.97,-149.68 2172.67,-166.398 2255.17,-138 2294.61,-124.428 2336.81,-100.796 2362.85,-85.0252"/>
<polygon fill="midnightblue" stroke="midnightblue" points="2364.98,-87.8198 2371.67,-79.604 2361.32,-81.8549 2364.98,-87.8198"/>
</g>
<!-- Node47&#45;&gt;Node23 -->
<g id="edge182" class="edge"><title>Node47&#45;&gt;Node23</title>
<path fill="none" stroke="midnightblue" d="M736.159,-309.699C656.873,-298.345 471.915,-271.857 398.75,-261.379"/>
<polygon fill="midnightblue" stroke="midnightblue" points="399.187,-257.906 388.792,-259.953 398.195,-264.835 399.187,-257.906"/>
</g>
<!-- Node47&#45;&gt;Node26 -->
<g id="edge194" class="edge"><title>Node47&#45;&gt;Node26</title>
<path fill="none" stroke="midnightblue" d="M735.768,-313.515C591.034,-307.649 74.3085,-285.559 44.174,-268 5.23907,-245.313 -9.09426,-216.397 6.17403,-174 17.5113,-142.519 25.2042,-132.744 54.174,-116 94.3369,-92.787 228.043,-78.061 293.473,-72.0707"/>
<polygon fill="midnightblue" stroke="midnightblue" points="294.09,-75.5296 303.738,-71.1516 293.466,-68.5575 294.09,-75.5296"/>
</g>
<!-- Node47&#45;&gt;Node31 -->
<g id="edge192" class="edge"><title>Node47&#45;&gt;Node31</title>
<path fill="none" stroke="midnightblue" d="M810.622,-307.583C922.03,-285.516 1250.35,-220.486 1358.89,-198.988"/>
<polygon fill="midnightblue" stroke="midnightblue" points="1359.86,-202.365 1368.99,-196.988 1358.5,-195.498 1359.86,-202.365"/>
</g>
<!-- Node48 -->
<g id="node141" class="node"><title>Node48</title>
<a xlink:href="_lorentz_vec_8h.html" target="_top" xlink:title="base/vec/LorentzVec.h">
<polygon fill="white" stroke="black" points="1211.67,-246.5 1211.67,-267.5 1328.67,-267.5 1328.67,-246.5 1211.67,-246.5"/>
<text text-anchor="middle" x="1270.17" y="-254.5" font-family="Helvetica,sans-Serif" font-size="10.00">base/vec/LorentzVec.h</text>
</a>
</g>
<!-- Node47&#45;&gt;Node48 -->
<g id="edge186" class="edge"><title>Node47&#45;&gt;Node48</title>
<path fill="none" stroke="midnightblue" d="M810.188,-311.428C884.066,-304.184 1055.02,-286.842 1198.17,-268 1199.27,-267.856 1200.38,-267.708 1201.49,-267.558"/>
<polygon fill="midnightblue" stroke="midnightblue" points="1202.23,-270.989 1211.65,-266.148 1201.27,-264.056 1202.23,-270.989"/>
</g>
<!-- Node48&#45;&gt;Node34 -->
<g id="edge188" class="edge"><title>Node48&#45;&gt;Node34</title>
<path fill="none" stroke="midnightblue" d="M1278.36,-246.362C1295.28,-224.365 1334.31,-173.624 1355.63,-145.909"/>
<polygon fill="midnightblue" stroke="midnightblue" points="1358.55,-147.846 1361.88,-137.785 1353.01,-143.578 1358.55,-147.846"/>
</g>
<!-- Node49&#45;&gt;Node6 -->
<g id="edge200" class="edge"><title>Node49&#45;&gt;Node6</title>
<path fill="none" stroke="midnightblue" d="M2325.31,-183.478C2311.33,-179.957 2294.53,-176.193 2279.17,-174 1985.72,-132.1 1907.45,-173.697 1613.17,-138 1561.08,-131.681 1548.98,-124.374 1497.17,-116 1385.41,-97.9323 1252.82,-81.5384 1187.19,-73.7591"/>
<polygon fill="midnightblue" stroke="midnightblue" points="1187.59,-70.2818 1177.25,-72.5857 1186.77,-77.2336 1187.59,-70.2818"/>
</g>
<!-- Node49&#45;&gt;Node9 -->
<g id="edge198" class="edge"><title>Node49&#45;&gt;Node9</title>
<path fill="none" stroke="midnightblue" d="M2380.12,-181.384C2386.56,-178.758 2393.57,-176.099 2400.17,-174 2467.99,-152.459 2503.22,-185.527 2556.17,-138 2569.85,-125.73 2575.73,-105.256 2578.26,-89.7893"/>
<polygon fill="midnightblue" stroke="midnightblue" points="2581.77,-89.9671 2579.58,-79.6013 2574.83,-89.0711 2581.77,-89.9671"/>
</g>
<!-- Node49&#45;&gt;Node12 -->
<g id="edge204" class="edge"><title>Node49&#45;&gt;Node12</title>
<path fill="none" stroke="midnightblue" d="M2333.76,-181.37C2326.96,-178.548 2319.38,-175.792 2312.17,-174 2154.84,-134.898 2108.37,-168.668 1949.17,-138 1914.64,-131.348 1907.09,-125.286 1873.17,-116 1819.89,-101.411 1757.49,-85.5639 1721.33,-76.5025"/>
<polygon fill="midnightblue" stroke="midnightblue" points="1721.97,-73.0557 1711.42,-74.0251 1720.28,-79.8466 1721.97,-73.0557"/>
</g>
<!-- Node49&#45;&gt;Node18 -->
<g id="edge206" class="edge"><title>Node49&#45;&gt;Node18</title>
<path fill="none" stroke="midnightblue" d="M2386.73,-189.125C2490.47,-179.343 2826.18,-147.504 2895.74,-137.559"/>
<polygon fill="midnightblue" stroke="midnightblue" points="2896.66,-140.956 2905.95,-135.875 2895.52,-134.049 2896.66,-140.956"/>
</g>
<!-- Node49&#45;&gt;Node19 -->
<g id="edge202" class="edge"><title>Node49&#45;&gt;Node19</title>
<path fill="none" stroke="midnightblue" d="M2379.08,-181.335C2385.76,-178.582 2393.16,-175.87 2400.17,-174 2517.15,-142.826 2552.98,-168.355 2670.17,-138 2671.43,-137.676 2672.7,-137.312 2673.97,-136.918"/>
<polygon fill="midnightblue" stroke="midnightblue" points="2675.32,-140.152 2683.57,-133.505 2672.98,-133.557 2675.32,-140.152"/>
</g>
<!-- Node50&#45;&gt;Node6 -->
<g id="edge212" class="edge"><title>Node50&#45;&gt;Node6</title>
<path fill="none" stroke="midnightblue" d="M2222.38,-181.336C2216.42,-178.44 2209.68,-175.651 2203.17,-174 1917.99,-101.669 1834.32,-172.815 1542.17,-138 1488.77,-131.636 1476.13,-125.388 1423.17,-116 1339.47,-101.163 1241.37,-84.7463 1187.25,-75.7761"/>
<polygon fill="midnightblue" stroke="midnightblue" points="1187.79,-72.3177 1177.36,-74.1369 1186.65,-79.2237 1187.79,-72.3177"/>
</g>
<!-- Node50&#45;&gt;Node9 -->
<g id="edge210" class="edge"><title>Node50&#45;&gt;Node9</title>
<path fill="none" stroke="midnightblue" d="M2270.68,-184.58C2284.72,-181.161 2301.77,-177.168 2317.17,-174 2408.21,-155.282 2442.83,-184.719 2523.17,-138 2543.31,-126.293 2559.41,-104.64 2569.29,-88.7021"/>
<polygon fill="midnightblue" stroke="midnightblue" points="2572.56,-90.0486 2574.62,-79.6567 2566.53,-86.4934 2572.56,-90.0486"/>
</g>
<!-- Node50&#45;&gt;Node18 -->
<g id="edge220" class="edge"><title>Node50&#45;&gt;Node18</title>
<path fill="none" stroke="midnightblue" d="M2270.91,-183.716C2284.85,-180.153 2301.75,-176.288 2317.17,-174 2569.41,-136.582 2641.4,-183.835 2896.06,-137.807"/>
<polygon fill="midnightblue" stroke="midnightblue" points="2896.77,-141.234 2905.97,-135.984 2895.51,-134.35 2896.77,-141.234"/>
</g>
<!-- Node50&#45;&gt;Node19 -->
<g id="edge218" class="edge"><title>Node50&#45;&gt;Node19</title>
<path fill="none" stroke="midnightblue" d="M2270.95,-183.994C2284.9,-180.489 2301.8,-176.593 2317.17,-174 2472.68,-147.771 2516.92,-175.177 2670.17,-138 2671.43,-137.695 2672.71,-137.347 2673.98,-136.965"/>
<polygon fill="midnightblue" stroke="midnightblue" points="2675.32,-140.207 2683.6,-133.594 2673,-133.601 2675.32,-140.207"/>
</g>
<!-- Node50&#45;&gt;Node34 -->
<g id="edge216" class="edge"><title>Node50&#45;&gt;Node34</title>
<path fill="none" stroke="midnightblue" d="M2222.78,-181.493C2216.72,-178.528 2209.83,-175.66 2203.17,-174 2035.89,-132.282 1599.4,-158.113 1428.17,-138 1427.08,-137.871 1425.98,-137.734 1424.86,-137.59"/>
<polygon fill="midnightblue" stroke="midnightblue" points="1425.13,-134.091 1414.72,-136.105 1424.11,-141.017 1425.13,-134.091"/>
</g>
<!-- Node50&#45;&gt;Node37 -->
<g id="edge214" class="edge"><title>Node50&#45;&gt;Node37</title>
<path fill="none" stroke="midnightblue" d="M2222.35,-181.454C2216.39,-178.563 2209.66,-175.747 2203.17,-174 2018.85,-124.345 1965.18,-156.438 1775.17,-138 1763.29,-136.847 1750.62,-135.525 1738.44,-134.207"/>
<polygon fill="midnightblue" stroke="midnightblue" points="1738.66,-130.711 1728.34,-133.105 1737.9,-137.67 1738.66,-130.711"/>
</g>
<!-- Node51&#45;&gt;Node15 -->
<g id="edge240" class="edge"><title>Node51&#45;&gt;Node15</title>
<path fill="none" stroke="midnightblue" d="M1782.48,-246.822C1831.96,-230.822 1931.32,-199.029 2016.17,-174 2073.68,-157.038 2090.31,-159.765 2146.17,-138 2166.18,-130.207 2169.03,-123.41 2189.17,-116 2246.21,-95.0224 2315.96,-81.0826 2355.91,-74.1493"/>
<polygon fill="midnightblue" stroke="midnightblue" points="2356.6,-77.5821 2365.88,-72.4585 2355.43,-70.6807 2356.6,-77.5821"/>
</g>
<!-- Node51&#45;&gt;Node18 -->
<g id="edge248" class="edge"><title>Node51&#45;&gt;Node18</title>
<path fill="none" stroke="midnightblue" d="M1782.2,-256.746C1942.74,-255.272 2675.31,-246.576 2769.17,-210 2792.4,-200.95 2790.73,-186.711 2812.17,-174 2826.83,-165.312 2866.51,-150.329 2896.26,-139.614"/>
<polygon fill="midnightblue" stroke="midnightblue" points="2897.68,-142.823 2905.92,-136.16 2895.32,-136.232 2897.68,-142.823"/>
</g>
<!-- Node51&#45;&gt;Node26 -->
<g id="edge246" class="edge"><title>Node51&#45;&gt;Node26</title>
<path fill="none" stroke="midnightblue" d="M1720.05,-255.828C1532.85,-248.771 564.349,-212.169 557.174,-210 527.77,-201.11 525.087,-188.808 498.174,-174 466.48,-156.561 456.143,-156.697 425.174,-138 398.54,-121.92 369.897,-100.488 351.107,-85.801"/>
<polygon fill="midnightblue" stroke="midnightblue" points="353.229,-83.0168 343.21,-79.571 348.893,-88.5125 353.229,-83.0168"/>
</g>
<!-- Node51&#45;&gt;Node31 -->
<g id="edge244" class="edge"><title>Node51&#45;&gt;Node31</title>
<path fill="none" stroke="midnightblue" d="M1720.04,-252.762C1641.77,-242.069 1442.01,-214.519 1428.17,-210 1425.58,-209.154 1422.96,-208.121 1420.37,-206.982"/>
<polygon fill="midnightblue" stroke="midnightblue" points="1421.83,-203.801 1411.31,-202.536 1418.75,-210.085 1421.83,-203.801"/>
</g>
<!-- Node51&#45;&gt;Node33 -->
<g id="edge224" class="edge"><title>Node51&#45;&gt;Node33</title>
<path fill="none" stroke="midnightblue" d="M1719.72,-249.255C1715.17,-248.153 1710.56,-247.041 1706.17,-246 1636.95,-229.552 1619.18,-227.365 1550.17,-210 1544.13,-208.478 1537.78,-206.824 1531.52,-205.155"/>
<polygon fill="midnightblue" stroke="midnightblue" points="1532.37,-201.758 1521.8,-202.537 1530.55,-208.517 1532.37,-201.758"/>
</g>
<!-- Node51&#45;&gt;Node34 -->
<g id="edge238" class="edge"><title>Node51&#45;&gt;Node34</title>
<path fill="none" stroke="midnightblue" d="M1726.79,-246.44C1687.82,-229.781 1608.88,-196.939 1540.17,-174 1501.48,-161.081 1457.02,-148.88 1423.28,-140.148"/>
<polygon fill="midnightblue" stroke="midnightblue" points="1423.72,-136.649 1413.17,-137.553 1421.98,-143.429 1423.72,-136.649"/>
</g>
<!-- Node51&#45;&gt;Node36 -->
<g id="edge242" class="edge"><title>Node51&#45;&gt;Node36</title>
<path fill="none" stroke="midnightblue" d="M1753.59,-246.196C1760.46,-212.247 1776.2,-107.068 1720.17,-58 1680.02,-22.83 1517.57,-13.9351 1447.55,-11.7199"/>
<polygon fill="midnightblue" stroke="midnightblue" points="1447.63,-8.22064 1437.53,-11.4289 1447.42,-15.2177 1447.63,-8.22064"/>
</g>
<!-- Node51&#45;&gt;Node37 -->
<g id="edge226" class="edge"><title>Node51&#45;&gt;Node37</title>
<path fill="none" stroke="midnightblue" d="M1744.95,-246.362C1732.21,-224.555 1702.94,-174.5 1686.65,-146.634"/>
<polygon fill="midnightblue" stroke="midnightblue" points="1689.55,-144.652 1681.48,-137.785 1683.5,-148.185 1689.55,-144.652"/>
</g>
<!-- Node52 -->
<g id="node166" class="node"><title>Node52</title>
<a xlink:href="shared__ptr__container_8h.html" target="_top" xlink:title="base/std_ext/shared\l_ptr_container.h">
<polygon fill="white" stroke="black" points="2929.67,-175 2929.67,-209 3034.67,-209 3034.67,-175 2929.67,-175"/>
<text text-anchor="start" x="2937.67" y="-196" font-family="Helvetica,sans-Serif" font-size="10.00">base/std_ext/shared</text>
<text text-anchor="middle" x="2982.17" y="-183" font-family="Helvetica,sans-Serif" font-size="10.00">_ptr_container.h</text>
</a>
</g>
<!-- Node51&#45;&gt;Node52 -->
<g id="edge228" class="edge"><title>Node51&#45;&gt;Node52</title>
<path fill="none" stroke="midnightblue" d="M1782.59,-256.226C1909.94,-252.955 2400.03,-239.077 2802.17,-210 2841.23,-207.176 2884.95,-202.833 2919.51,-199.12"/>
<polygon fill="midnightblue" stroke="midnightblue" points="2919.9,-202.598 2929.47,-198.041 2919.15,-195.639 2919.9,-202.598"/>
</g>
<!-- Node52&#45;&gt;Node10 -->
<g id="edge236" class="edge"><title>Node52&#45;&gt;Node10</title>
<path fill="none" stroke="midnightblue" d="M2984.24,-174.872C2985.31,-157.224 2983.76,-130.332 2967.17,-116 2949.52,-100.745 2225.79,-76.0183 2050.24,-70.2366"/>
<polygon fill="midnightblue" stroke="midnightblue" points="2050.29,-66.7364 2040.18,-69.9062 2050.06,-73.7326 2050.29,-66.7364"/>
</g>
<!-- Node52&#45;&gt;Node15 -->
<g id="edge230" class="edge"><title>Node52&#45;&gt;Node15</title>
<path fill="none" stroke="midnightblue" d="M2993.94,-174.945C3004.14,-157.873 3015.12,-131.917 3000.17,-116 2956.82,-69.8132 2493.75,-89.8933 2431.17,-80 2427.64,-79.4415 2423.98,-78.7241 2420.34,-77.9236"/>
<polygon fill="midnightblue" stroke="midnightblue" points="2420.87,-74.4496 2410.33,-75.5111 2419.23,-81.2551 2420.87,-74.4496"/>
</g>
<!-- Node52&#45;&gt;Node18 -->
<g id="edge232" class="edge"><title>Node52&#45;&gt;Node18</title>
<path fill="none" stroke="midnightblue" d="M2969.04,-174.922C2962.2,-166.029 2953.81,-155.13 2946.77,-145.974"/>
<polygon fill="midnightblue" stroke="midnightblue" points="2949.39,-143.644 2940.52,-137.852 2943.84,-147.912 2949.39,-143.644"/>
</g>
<!-- Node52&#45;&gt;Node53 -->
<g id="edge234" class="edge"><title>Node52&#45;&gt;Node53</title>
<path fill="none" stroke="midnightblue" d="M3034.83,-175.933C3072.28,-164.504 3121.78,-149.397 3155.82,-139.008"/>
<polygon fill="midnightblue" stroke="midnightblue" points="3156.88,-142.344 3165.43,-136.078 3154.84,-135.649 3156.88,-142.344"/>
</g>
<!-- Node54&#45;&gt;Node10 -->
<g id="edge264" class="edge"><title>Node54&#45;&gt;Node10</title>
<path fill="none" stroke="midnightblue" d="M1766.22,-304.488C1792.79,-273.857 1873.52,-182.637 1949.17,-116 1961.53,-105.113 1976.24,-94.0438 1988.34,-85.3845"/>
<polygon fill="midnightblue" stroke="midnightblue" points="1990.46,-88.169 1996.62,-79.5422 1986.43,-82.4506 1990.46,-88.169"/>
</g>
<!-- Node54&#45;&gt;Node15 -->
<g id="edge256" class="edge"><title>Node54&#45;&gt;Node15</title>
<path fill="none" stroke="midnightblue" d="M1794.79,-313.171C1863.47,-309.144 2005.65,-297.413 2044.17,-268 2080.69,-240.122 2050.48,-201.643 2087.17,-174 2172.97,-109.364 2231.6,-188.947 2326.17,-138 2347.63,-126.443 2365.38,-104.444 2376.31,-88.3834"/>
<polygon fill="midnightblue" stroke="midnightblue" points="2379.42,-90.028 2381.94,-79.737 2373.55,-86.2107 2379.42,-90.028"/>
</g>
<!-- Node54&#45;&gt;Node18 -->
<g id="edge262" class="edge"><title>Node54&#45;&gt;Node18</title>
<path fill="none" stroke="midnightblue" d="M1794.74,-310.371C1890.45,-298.664 2151.29,-267.294 2369.17,-246 2465.71,-236.565 2713.86,-245.375 2804.17,-210 2828.35,-200.532 2828.63,-188.492 2850.17,-174 2867.13,-162.591 2887,-151.158 2902.93,-142.425"/>
<polygon fill="midnightblue" stroke="midnightblue" points="2904.68,-145.458 2911.8,-137.616 2901.35,-139.303 2904.68,-145.458"/>
</g>
<!-- Node54&#45;&gt;Node26 -->
<g id="edge260" class="edge"><title>Node54&#45;&gt;Node26</title>
<path fill="none" stroke="midnightblue" d="M1719.66,-314.801C1523.81,-313.606 617.225,-306.074 339.174,-268 231.307,-253.23 176.329,-288.773 101.174,-210 72.0167,-179.439 60.2918,-148.58 87.174,-116 112.961,-84.7474 232.63,-74.0343 293.864,-70.5594"/>
<polygon fill="midnightblue" stroke="midnightblue" points="294.076,-74.0532 303.876,-70.0264 293.704,-67.0631 294.076,-74.0532"/>
</g>
<!-- Node54&#45;&gt;Node31 -->
<g id="edge258" class="edge"><title>Node54&#45;&gt;Node31</title>
<path fill="none" stroke="midnightblue" d="M1719.64,-305.368C1657.73,-288.965 1530.84,-253.155 1428.17,-210 1426.07,-209.117 1423.93,-208.149 1421.79,-207.135"/>
<polygon fill="midnightblue" stroke="midnightblue" points="1423.1,-203.876 1412.59,-202.514 1419.95,-210.131 1423.1,-203.876"/>
</g>
<!-- Node54&#45;&gt;Node33 -->
<g id="edge254" class="edge"><title>Node54&#45;&gt;Node33</title>
<path fill="none" stroke="midnightblue" d="M1746.32,-304.351C1730.43,-289.315 1699.34,-261.927 1668.17,-246 1655.95,-239.75 1583.04,-219.124 1532.76,-205.25"/>
<polygon fill="midnightblue" stroke="midnightblue" points="1533.6,-201.851 1523.03,-202.571 1531.74,-208.6 1533.6,-201.851"/>
</g>
<!-- Node54&#45;&gt;Node51 -->
<g id="edge252" class="edge"><title>Node54&#45;&gt;Node51</title>
<path fill="none" stroke="midnightblue" d="M1756.07,-304.362C1755.3,-296.922 1754.25,-286.743 1753.32,-277.728"/>
<polygon fill="midnightblue" stroke="midnightblue" points="1756.78,-277.157 1752.27,-267.571 1749.82,-277.878 1756.78,-277.157"/>
</g>
<!-- Node55&#45;&gt;Node6 -->
<g id="edge270" class="edge"><title>Node55&#45;&gt;Node6</title>
<path fill="none" stroke="midnightblue" d="M2634.96,-372.228C2474.28,-368.294 1758.52,-349.72 1537.17,-326 1361.72,-307.198 1146.17,-433.463 1146.17,-257 1146.17,-257 1146.17,-257 1146.17,-192 1146.17,-156.052 1146.17,-114.195 1146.17,-89.7446"/>
<polygon fill="midnightblue" stroke="midnightblue" points="1149.67,-89.5301 1146.17,-79.5301 1142.67,-89.5301 1149.67,-89.5301"/>
</g>
<!-- Node55&#45;&gt;Node9 -->
<g id="edge272" class="edge"><title>Node55&#45;&gt;Node9</title>
<path fill="none" stroke="midnightblue" d="M2699.5,-370.795C2832.21,-361.32 3328.17,-321.591 3328.17,-257 3328.17,-257 3328.17,-257 3328.17,-192 3328.17,-137.929 3283.52,-135.719 3233.17,-116 3175.46,-93.3946 2741.96,-75.1872 2615.01,-70.2965"/>
<polygon fill="midnightblue" stroke="midnightblue" points="2614.83,-66.7873 2604.7,-69.903 2614.56,-73.7822 2614.83,-66.7873"/>
</g>
<!-- Node55&#45;&gt;Node15 -->
<g id="edge306" class="edge"><title>Node55&#45;&gt;Node15</title>
<path fill="none" stroke="midnightblue" d="M2699.37,-371.318C2799.71,-365.207 3100.17,-339.98 3100.17,-257 3100.17,-257 3100.17,-257 3100.17,-192 3100.17,-148.965 3078.33,-135.902 3040.17,-116 2919.97,-53.3035 2565.12,-100.895 2431.17,-80 2427.64,-79.4489 2423.98,-78.7361 2420.34,-77.9383"/>
<polygon fill="midnightblue" stroke="midnightblue" points="2420.86,-74.4642 2410.32,-75.529 2419.23,-81.2702 2420.86,-74.4642"/>
</g>
<!-- Node55&#45;&gt;Node18 -->
<g id="edge312" class="edge"><title>Node55&#45;&gt;Node18</title>
<path fill="none" stroke="midnightblue" d="M2678.94,-362.188C2689.28,-352.671 2704.74,-338.433 2718.17,-326 2790.17,-259.353 2875.5,-179.846 2912.95,-144.935"/>
<polygon fill="midnightblue" stroke="midnightblue" points="2915.67,-147.184 2920.59,-137.804 2910.89,-142.064 2915.67,-147.184"/>
</g>
<!-- Node55&#45;&gt;Node19 -->
<g id="edge308" class="edge"><title>Node55&#45;&gt;Node19</title>
<path fill="none" stroke="midnightblue" d="M2658.07,-362.16C2650.46,-352.862 2639.54,-338.951 2631.17,-326 2609.28,-292.09 2613.3,-277.597 2588.17,-246 2573.08,-227.018 2557.18,-232.091 2547.17,-210 2540.58,-195.424 2537.62,-186.837 2547.17,-174 2580.41,-129.327 2614.25,-155.316 2667.17,-138 2669.33,-137.293 2671.57,-136.54 2673.81,-135.772"/>
<polygon fill="midnightblue" stroke="midnightblue" points="2675.12,-139.021 2683.4,-132.409 2672.81,-132.416 2675.12,-139.021"/>
</g>
<!-- Node55&#45;&gt;Node48 -->
<g id="edge304" class="edge"><title>Node55&#45;&gt;Node48</title>
<path fill="none" stroke="midnightblue" d="M2634.9,-372.638C2513.44,-371.016 2072.39,-362.786 1711.17,-326 1576.58,-312.293 1420.46,-285.19 1334.77,-269.338"/>
<polygon fill="midnightblue" stroke="midnightblue" points="1335.4,-265.895 1324.93,-267.509 1334.12,-272.777 1335.4,-265.895"/>
</g>
<!-- Node55&#45;&gt;Node54 -->
<g id="edge268" class="edge"><title>Node55&#45;&gt;Node54</title>
<path fill="none" stroke="midnightblue" d="M2635.05,-370.953C2498.79,-362.268 1968.04,-328.44 1805.05,-318.051"/>
<polygon fill="midnightblue" stroke="midnightblue" points="1805.06,-314.545 1794.85,-317.401 1804.61,-321.531 1805.06,-314.545"/>
</g>
<!-- Node56 -->
<g id="node193" class="node"><title>Node56</title>
<a xlink:href="_particle_type_8h.html" target="_top" xlink:title="base/ParticleType.h">
<polygon fill="white" stroke="black" points="3361.17,-181.5 3361.17,-202.5 3465.17,-202.5 3465.17,-181.5 3361.17,-181.5"/>
<text text-anchor="middle" x="3413.17" y="-189.5" font-family="Helvetica,sans-Serif" font-size="10.00">base/ParticleType.h</text>
</a>
</g>
<!-- Node55&#45;&gt;Node56 -->
<g id="edge274" class="edge"><title>Node55&#45;&gt;Node56</title>
<path fill="none" stroke="midnightblue" d="M2699.38,-372.576C2826.34,-370.659 3287.89,-361.3 3342.17,-326 3382.28,-299.924 3401.22,-243.366 3408.84,-212.727"/>
<polygon fill="midnightblue" stroke="midnightblue" points="3412.31,-213.248 3411.15,-202.716 3405.49,-211.672 3412.31,-213.248"/>
</g>
<!-- Node59 -->
<g id="node204" class="node"><title>Node59</title>
<a xlink:href="_tree_8h.html" target="_top" xlink:title="base/Tree.h">
<polygon fill="white" stroke="black" points="2556.17,-181.5 2556.17,-202.5 2624.17,-202.5 2624.17,-181.5 2556.17,-181.5"/>
<text text-anchor="middle" x="2590.17" y="-189.5" font-family="Helvetica,sans-Serif" font-size="10.00">base/Tree.h</text>
</a>
</g>
<!-- Node55&#45;&gt;Node59 -->
<g id="edge290" class="edge"><title>Node55&#45;&gt;Node59</title>
<path fill="none" stroke="midnightblue" d="M2679.62,-362.049C2693.24,-348.672 2712.01,-325.202 2703.17,-304 2685.63,-261.9 2643.7,-227.512 2616.15,-208.404"/>
<polygon fill="midnightblue" stroke="midnightblue" points="2618,-205.434 2607.76,-202.746 2614.09,-211.238 2618,-205.434"/>
</g>
<!-- Node61 -->
<g id="node216" class="node"><title>Node61</title>
<polygon fill="white" stroke="#bfbfbf" points="2640.17,-304.5 2640.17,-325.5 2694.17,-325.5 2694.17,-304.5 2640.17,-304.5"/>
<text text-anchor="middle" x="2667.17" y="-312.5" font-family="Helvetica,sans-Serif" font-size="10.00">iostream</text>
</g>
<!-- Node55&#45;&gt;Node61 -->
<g id="edge310" class="edge"><title>Node55&#45;&gt;Node61</title>
<path fill="none" stroke="midnightblue" d="M2667.17,-362.362C2667.17,-354.922 2667.17,-344.743 2667.17,-335.728"/>
<polygon fill="midnightblue" stroke="midnightblue" points="2670.67,-335.571 2667.17,-325.571 2663.67,-335.571 2670.67,-335.571"/>
</g>
<!-- Node56&#45;&gt;Node5 -->
<g id="edge278" class="edge"><title>Node56&#45;&gt;Node5</title>
<path fill="none" stroke="midnightblue" d="M3361.14,-186.004C3323.88,-181.947 3272.51,-176.829 3227.17,-174 2660.05,-138.612 2516.44,-170.92 1949.17,-138 1924.56,-136.572 1897.28,-134.257 1874.5,-132.118"/>
<polygon fill="midnightblue" stroke="midnightblue" points="1874.67,-128.618 1864.38,-131.151 1874,-135.586 1874.67,-128.618"/>
</g>
<!-- Node56&#45;&gt;Node8 -->
<g id="edge282" class="edge"><title>Node56&#45;&gt;Node8</title>
<path fill="none" stroke="midnightblue" d="M3429.51,-181.443C3450.12,-166.782 3481.07,-139.413 3465.17,-116 3425.96,-58.2293 3387.35,-73.0661 3319.17,-58 3165.23,-23.9798 2667.89,-13.7443 2529.31,-11.5185"/>
<polygon fill="midnightblue" stroke="midnightblue" points="2529.28,-8.01762 2519.23,-11.3606 2529.17,-15.0168 2529.28,-8.01762"/>
</g>
<!-- Node56&#45;&gt;Node9 -->
<g id="edge276" class="edge"><title>Node56&#45;&gt;Node9</title>
<path fill="none" stroke="midnightblue" d="M3406.97,-181.273C3396.27,-163.951 3372.55,-130.32 3342.17,-116 3275.86,-84.7419 2755.07,-72.4087 2614.84,-69.6355"/>
<polygon fill="midnightblue" stroke="midnightblue" points="2614.74,-66.1329 2604.67,-69.438 2614.6,-73.1316 2614.74,-66.1329"/>
</g>
<!-- Node56&#45;&gt;Node15 -->
<g id="edge288" class="edge"><title>Node56&#45;&gt;Node15</title>
<path fill="none" stroke="midnightblue" d="M3394.48,-181.459C3362.57,-164.088 3295.05,-129.978 3233.17,-116 2885.14,-37.3737 2784.1,-132.491 2431.17,-80 2427.64,-79.4739 2423.97,-78.7771 2420.33,-77.9888"/>
<polygon fill="midnightblue" stroke="midnightblue" points="2420.85,-74.5143 2410.31,-75.5903 2419.22,-81.322 2420.85,-74.5143"/>
</g>
<!-- Node56&#45;&gt;Node16 -->
<g id="edge280" class="edge"><title>Node56&#45;&gt;Node16</title>
<path fill="none" stroke="midnightblue" d="M3424.97,-181.449C3440.72,-166.073 3464.9,-137.052 3449.17,-116 3433.77,-95.3801 3362.29,-80.6321 3320.6,-73.6154"/>
<polygon fill="midnightblue" stroke="midnightblue" points="3321.13,-70.1554 3310.69,-71.9992 3320,-77.0641 3321.13,-70.1554"/>
</g>
<!-- Node56&#45;&gt;Node57 -->
<g id="edge284" class="edge"><title>Node56&#45;&gt;Node57</title>
<path fill="none" stroke="midnightblue" d="M3441.84,-181.412C3474.89,-169.207 3528.84,-149.284 3561.47,-137.232"/>
<polygon fill="midnightblue" stroke="midnightblue" points="3563.1,-140.363 3571.26,-133.615 3560.67,-133.796 3563.1,-140.363"/>
</g>
<!-- Node58 -->
<g id="node201" class="node"><title>Node58</title>
<polygon fill="white" stroke="#bfbfbf" points="3393.67,-116.5 3393.67,-137.5 3440.67,-137.5 3440.67,-116.5 3393.67,-116.5"/>
<text text-anchor="middle" x="3417.17" y="-124.5" font-family="Helvetica,sans-Serif" font-size="10.00">iterator</text>
</g>
<!-- Node56&#45;&gt;Node58 -->
<g id="edge286" class="edge"><title>Node56&#45;&gt;Node58</title>
<path fill="none" stroke="midnightblue" d="M3413.83,-181.267C3414.39,-172.18 3415.21,-158.892 3415.9,-147.74"/>
<polygon fill="midnightblue" stroke="midnightblue" points="3419.4,-147.73 3416.53,-137.534 3412.42,-147.3 3419.4,-147.73"/>
</g>
<!-- Node59&#45;&gt;Node10 -->
<g id="edge300" class="edge"><title>Node59&#45;&gt;Node10</title>
<path fill="none" stroke="midnightblue" d="M2556.01,-183.87C2495.51,-169.555 2365.48,-139.174 2255.17,-116 2182.89,-100.815 2098.13,-84.8326 2050.23,-75.9695"/>
<polygon fill="midnightblue" stroke="midnightblue" points="2050.77,-72.5101 2040.3,-74.1366 2049.49,-79.3938 2050.77,-72.5101"/>
</g>
<!-- Node59&#45;&gt;Node15 -->
<g id="edge298" class="edge"><title>Node59&#45;&gt;Node15</title>
<path fill="none" stroke="midnightblue" d="M2615.17,-181.496C2621.07,-179.028 2627.34,-176.414 2633.17,-174 2676.46,-156.088 2752.19,-151.103 2721.17,-116 2678.18,-67.3348 2494.98,-92.0713 2431.17,-80 2427.66,-79.3353 2424.01,-78.5501 2420.38,-77.71"/>
<polygon fill="midnightblue" stroke="midnightblue" points="2420.92,-74.2376 2410.37,-75.2511 2419.25,-81.0356 2420.92,-74.2376"/>
</g>
<!-- Node59&#45;&gt;Node18 -->
<g id="edge294" class="edge"><title>Node59&#45;&gt;Node18</title>
<path fill="none" stroke="midnightblue" d="M2612.55,-181.337C2619.07,-178.584 2626.3,-175.872 2633.17,-174 2744.3,-143.724 2779.68,-162.737 2895.93,-137.966"/>
<polygon fill="midnightblue" stroke="midnightblue" points="2896.91,-141.334 2905.93,-135.771 2895.41,-134.497 2896.91,-141.334"/>
</g>
<!-- Node59&#45;&gt;Node19 -->
<g id="edge296" class="edge"><title>Node59&#45;&gt;Node19</title>
<path fill="none" stroke="midnightblue" d="M2608.01,-181.267C2626.21,-170.309 2654.57,-153.243 2674.62,-141.179"/>
<polygon fill="midnightblue" stroke="midnightblue" points="2676.68,-144.023 2683.44,-135.868 2673.07,-138.026 2676.68,-144.023"/>
</g>
<!-- Node59&#45;&gt;Node42 -->
<g id="edge302" class="edge"><title>Node59&#45;&gt;Node42</title>
<path fill="none" stroke="midnightblue" d="M2555.71,-187.742C2495.38,-179.983 2366.92,-162.093 2260.17,-138 2259.1,-137.758 2258.02,-137.503 2256.92,-137.239"/>
<polygon fill="midnightblue" stroke="midnightblue" points="2257.56,-133.788 2247,-134.648 2255.79,-140.561 2257.56,-133.788"/>
</g>
<!-- Node60 -->
<g id="node206" class="node"><title>Node60</title>
<polygon fill="white" stroke="#bfbfbf" points="2768.17,-116.5 2768.17,-137.5 2888.17,-137.5 2888.17,-116.5 2768.17,-116.5"/>
<text text-anchor="middle" x="2828.17" y="-124.5" font-family="Helvetica,sans-Serif" font-size="10.00">base/cereal/access.hpp</text>
</g>
<!-- Node59&#45;&gt;Node60 -->
<g id="edge292" class="edge"><title>Node59&#45;&gt;Node60</title>
<path fill="none" stroke="midnightblue" d="M2613.57,-181.407C2619.86,-178.781 2626.71,-176.116 2633.17,-174 2676.31,-159.873 2726.08,-147.947 2764.54,-139.643"/>
<polygon fill="midnightblue" stroke="midnightblue" points="2765.51,-143.013 2774.56,-137.504 2764.05,-136.167 2765.51,-143.013"/>
</g>
<!-- Node62&#45;&gt;Node16 -->
<g id="edge316" class="edge"><title>Node62&#45;&gt;Node16</title>
<path fill="none" stroke="midnightblue" d="M3656.29,-181.352C3651.11,-164.456 3638.54,-131.805 3615.17,-116 3567.45,-83.7148 3392.49,-73.1119 3320.96,-70.079"/>
<polygon fill="midnightblue" stroke="midnightblue" points="3320.92,-66.5749 3310.79,-69.6699 3320.64,-73.5692 3320.92,-66.5749"/>
</g>
<!-- Node62&#45;&gt;Node18 -->
<g id="edge318" class="edge"><title>Node62&#45;&gt;Node18</title>
<path fill="none" stroke="midnightblue" d="M3610.11,-187.085C3572.83,-183.385 3520.29,-178.243 3474.17,-174 3283.89,-156.493 3055.86,-137.304 2968.58,-130.025"/>
<polygon fill="midnightblue" stroke="midnightblue" points="2968.67,-126.519 2958.41,-129.177 2968.09,-133.495 2968.67,-126.519"/>
</g>
<!-- Node62&#45;&gt;Node26 -->
<g id="edge324" class="edge"><title>Node62&#45;&gt;Node26</title>
<path fill="none" stroke="midnightblue" d="M3609.79,-186.143C3572.57,-181.985 3520.24,-176.683 3474.17,-174 2648.31,-125.908 2438.57,-193.64 1613.17,-138 1528.36,-132.282 1507.92,-122.719 1423.17,-116 1008.9,-83.1521 504.351,-72.1205 366.462,-69.6081"/>
<polygon fill="midnightblue" stroke="midnightblue" points="366.501,-66.1083 356.44,-69.4288 366.376,-73.1072 366.501,-66.1083"/>
</g>
<!-- Node62&#45;&gt;Node57 -->
<g id="edge320" class="edge"><title>Node62&#45;&gt;Node57</title>
<path fill="none" stroke="midnightblue" d="M3647.61,-181.267C3636.91,-171.328 3620.8,-156.363 3608.2,-144.664"/>
<polygon fill="midnightblue" stroke="midnightblue" points="3610.23,-141.773 3600.52,-137.534 3605.46,-146.903 3610.23,-141.773"/>
</g>
<!-- Node63 -->
<g id="node224" class="node"><title>Node63</title>
<polygon fill="white" stroke="#bfbfbf" points="3662.17,-116.5 3662.17,-137.5 3692.17,-137.5 3692.17,-116.5 3662.17,-116.5"/>
<text text-anchor="middle" x="3677.17" y="-124.5" font-family="Helvetica,sans-Serif" font-size="10.00">set</text>
</g>
<!-- Node62&#45;&gt;Node63 -->
<g id="edge322" class="edge"><title>Node62&#45;&gt;Node63</title>
<path fill="none" stroke="midnightblue" d="M3662.15,-181.267C3664.69,-172.085 3668.42,-158.615 3671.53,-147.392"/>
<polygon fill="midnightblue" stroke="midnightblue" points="3674.96,-148.105 3674.26,-137.534 3668.22,-146.237 3674.96,-148.105"/>
</g>
<!-- Node64&#45;&gt;Node15 -->
<g id="edge332" class="edge"><title>Node64&#45;&gt;Node15</title>
<path fill="none" stroke="midnightblue" d="M3165.37,-174.858C3156.05,-156.649 3138.6,-128.768 3114.17,-116 3046.83,-80.7954 2506.3,-91.473 2431.17,-80 2427.64,-79.4601 2423.97,-78.7545 2420.34,-77.961"/>
<polygon fill="midnightblue" stroke="midnightblue" points="2420.86,-74.4868 2410.32,-75.5566 2419.23,-81.2935 2420.86,-74.4868"/>
</g>
<!-- Node64&#45;&gt;Node16 -->
<g id="edge328" class="edge"><title>Node64&#45;&gt;Node16</title>
<path fill="none" stroke="midnightblue" d="M3193.59,-174.952C3205.53,-164.661 3220.66,-151.051 3233.17,-138 3248.67,-121.837 3264.78,-102.008 3275.9,-87.7619"/>
<polygon fill="midnightblue" stroke="midnightblue" points="3278.79,-89.7485 3282.13,-79.6953 3273.25,-85.4688 3278.79,-89.7485"/>
</g>
<!-- Node64&#45;&gt;Node18 -->
<g id="edge334" class="edge"><title>Node64&#45;&gt;Node18</title>
<path fill="none" stroke="midnightblue" d="M3127.56,-179.698C3081.29,-167.219 3010.62,-148.159 2968.16,-136.706"/>
<polygon fill="midnightblue" stroke="midnightblue" points="2968.83,-133.261 2958.26,-134.036 2967,-140.019 2968.83,-133.261"/>
</g>
<!-- Node64&#45;&gt;Node19 -->
<g id="edge330" class="edge"><title>Node64&#45;&gt;Node19</title>
<path fill="none" stroke="midnightblue" d="M3127.47,-185.541C3102.56,-182.053 3071.18,-177.714 3043.17,-174 2917.05,-157.275 2884.93,-157.296 2759.17,-138 2747.08,-136.145 2733.7,-133.768 2722.56,-131.699"/>
<polygon fill="midnightblue" stroke="midnightblue" points="2723.16,-128.25 2712.68,-129.837 2721.86,-135.129 2723.16,-128.25"/>
</g>
<!-- Node64&#45;&gt;Node21 -->
<g id="edge338" class="edge"><title>Node64&#45;&gt;Node21</title>
<path fill="none" stroke="midnightblue" d="M3127.6,-184.305C3102.72,-180.456 3071.34,-176.165 3043.17,-174 2538.38,-135.209 1271.29,-151.185 765.174,-138 670.062,-135.522 558.209,-131.06 500.67,-128.65"/>
<polygon fill="midnightblue" stroke="midnightblue" points="500.713,-125.149 490.574,-128.225 500.418,-132.143 500.713,-125.149"/>
</g>
<!-- Node64&#45;&gt;Node53 -->
<g id="edge336" class="edge"><title>Node64&#45;&gt;Node53</title>
<path fill="none" stroke="midnightblue" d="M3178.95,-174.922C3181.81,-166.487 3185.27,-156.248 3188.27,-147.403"/>
<polygon fill="midnightblue" stroke="midnightblue" points="3191.61,-148.446 3191.5,-137.852 3184.98,-146.202 3191.61,-148.446"/>
</g>
<!-- Node68&#45;&gt;Node10 -->
<g id="edge364" class="edge"><title>Node68&#45;&gt;Node10</title>
<path fill="none" stroke="midnightblue" d="M2415.83,-120.683C2324.88,-109.038 2132.62,-84.4211 2050.58,-73.9172"/>
<polygon fill="midnightblue" stroke="midnightblue" points="2050.81,-70.418 2040.44,-72.6196 2049.92,-77.3613 2050.81,-70.418"/>
</g>
<!-- Node68&#45;&gt;Node15 -->
<g id="edge360" class="edge"><title>Node68&#45;&gt;Node15</title>
<path fill="none" stroke="midnightblue" d="M2451.05,-116.362C2439.65,-107.777 2423.42,-95.5459 2410.3,-85.6636"/>
<polygon fill="midnightblue" stroke="midnightblue" points="2412.3,-82.7916 2402.21,-79.5707 2408.09,-88.3829 2412.3,-82.7916"/>
</g>
<!-- Node68&#45;&gt;Node16 -->
<g id="edge362" class="edge"><title>Node68&#45;&gt;Node16</title>
<path fill="none" stroke="midnightblue" d="M2514.38,-122.979C2540.96,-120.838 2574.36,-118.201 2604.17,-116 2856.94,-97.3399 3162.3,-77.3031 3259.15,-71.0084"/>
<polygon fill="midnightblue" stroke="midnightblue" points="3259.65,-74.4834 3269.4,-70.3428 3259.2,-67.4981 3259.65,-74.4834"/>
</g>
<!-- Node69 -->
<g id="node248" class="node"><title>Node69</title>
<polygon fill="white" stroke="#bfbfbf" points="2440.17,-58.5 2440.17,-79.5 2490.17,-79.5 2490.17,-58.5 2440.17,-58.5"/>
<text text-anchor="middle" x="2465.17" y="-66.5" font-family="Helvetica,sans-Serif" font-size="10.00">TTree.h</text>
</g>
<!-- Node68&#45;&gt;Node69 -->
<g id="edge358" class="edge"><title>Node68&#45;&gt;Node69</title>
<path fill="none" stroke="midnightblue" d="M2465.17,-116.362C2465.17,-108.922 2465.17,-98.7427 2465.17,-89.7276"/>
<polygon fill="midnightblue" stroke="midnightblue" points="2468.67,-89.5706 2465.17,-79.5707 2461.67,-89.5707 2468.67,-89.5706"/>
</g>
</g>
</svg>
