<?xml version="1.0" encoding="UTF-8" standalone="no"?>
<!DOCTYPE svg PUBLIC "-//W3C//DTD SVG 1.1//EN"
 "http://www.w3.org/Graphics/SVG/1.1/DTD/svg11.dtd">
<!-- Generated by graphviz version 2.26.3 (20100126.1600)
 -->
<!-- Title: src/base/math_functions/Faddeeva.h Pages: 1 -->
<svg width="274pt" height="116pt"
 viewBox="0.00 0.00 274.00 116.00" xmlns="http://www.w3.org/2000/svg" xmlns:xlink="http://www.w3.org/1999/xlink">
<g id="graph1" class="graph" transform="scale(1 1) rotate(0) translate(4 112)">
<title>src/base/math_functions/Faddeeva.h</title>
<polygon fill="white" stroke="white" points="-4,5 -4,-112 271,-112 271,5 -4,5"/>
<!-- Node1 -->
<g id="node1" class="node"><title>Node1</title>
<polygon fill="#bfbfbf" stroke="black" points="71,-73 71,-107 195,-107 195,-73 71,-73"/>
<text text-anchor="start" x="79" y="-94" font-family="Helvetica,sans-Serif" font-size="10.00">src/base/math_functions</text>
<text text-anchor="middle" x="133" y="-81" font-family="Helvetica,sans-Serif" font-size="10.00">/Faddeeva.h</text>
</g>
<!-- Node2 -->
<g id="node3" class="node"><title>Node2</title>
<a xlink:href="_faddeeva_8cc.html" target="_top" xlink:title="src/base/math_functions\l/Faddeeva.cc">
<polygon fill="white" stroke="black" points="0,-1 0,-35 124,-35 124,-1 0,-1"/>
<text text-anchor="start" x="8" y="-22" font-family="Helvetica,sans-Serif" font-size="10.00">src/base/math_functions</text>
<text text-anchor="middle" x="62" y="-9" font-family="Helvetica,sans-Serif" font-size="10.00">/Faddeeva.cc</text>
</a>
</g>
<!-- Node1&#45;&gt;Node2 -->
<g id="edge2" class="edge"><title>Node1&#45;&gt;Node2</title>
<path fill="none" stroke="midnightblue" d="M109.008,-65.6706C99.2307,-55.7551 88.1469,-44.5151 79.1984,-35.4407"/>
<polygon fill="midnightblue" stroke="midnightblue" points="106.66,-68.2742 116.174,-72.937 111.645,-63.3591 106.66,-68.2742"/>
</g>
<!-- Node3 -->
<g id="node5" class="node"><title>Node3</title>
<a xlink:href="voigtian_8cc.html" target="_top" xlink:title="src/base/math_functions\l/voigtian.cc">
<polygon fill="white" stroke="black" points="142,-1 142,-35 266,-35 266,-1 142,-1"/>
<text text-anchor="start" x="150" y="-22" font-family="Helvetica,sans-Serif" font-size="10.00">src/base/math_functions</text>
<text text-anchor="middle" x="204" y="-9" font-family="Helvetica,sans-Serif" font-size="10.00">/voigtian.cc</text>
</a>
</g>
<!-- Node1&#45;&gt;Node3 -->
<g id="edge4" class="edge"><title>Node1&#45;&gt;Node3</title>
<path fill="none" stroke="midnightblue" d="M156.992,-65.6706C166.769,-55.7551 177.853,-44.5151 186.802,-35.4407"/>
<polygon fill="midnightblue" stroke="midnightblue" points="154.355,-63.3591 149.826,-72.937 159.34,-68.2742 154.355,-63.3591"/>
</g>
</g>
</svg>
