<?xml version="1.0" encoding="UTF-8" standalone="no"?>
<!DOCTYPE svg PUBLIC "-//W3C//DTD SVG 1.1//EN"
 "http://www.w3.org/Graphics/SVG/1.1/DTD/svg11.dtd">
<!-- Generated by graphviz version 2.26.3 (20100126.1600)
 -->
<!-- Title: src/analysis/utils/uncertainties/FitterSergey.h Pages: 1 -->
<svg width="2565pt" height="200pt"
 viewBox="0.00 0.00 2565.00 200.00" xmlns="http://www.w3.org/2000/svg" xmlns:xlink="http://www.w3.org/1999/xlink">
<g id="graph1" class="graph" transform="scale(1 1) rotate(0) translate(4 196)">
<title>src/analysis/utils/uncertainties/FitterSergey.h</title>
<polygon fill="white" stroke="white" points="-4,5 -4,-196 2562,-196 2562,5 -4,5"/>
<!-- Node1 -->
<g id="node1" class="node"><title>Node1</title>
<polygon fill="#bfbfbf" stroke="black" points="1255,-157 1255,-191 1395,-191 1395,-157 1255,-157"/>
<text text-anchor="start" x="1263" y="-178" font-family="Helvetica,sans-Serif" font-size="10.00">src/analysis/utils</text>
<text text-anchor="middle" x="1325" y="-165" font-family="Helvetica,sans-Serif" font-size="10.00">/uncertainties/FitterSergey.h</text>
</g>
<!-- Node2 -->
<g id="node3" class="node"><title>Node2</title>
<a xlink:href="analysis_2physics_2calibration_2_p_i_d___energy_8h.html" target="_top" xlink:title="src/analysis/physics\l/calibration/PID_Energy.h">
<polygon fill="white" stroke="black" points="3,-79 3,-113 131,-113 131,-79 3,-79"/>
<text text-anchor="start" x="11" y="-100" font-family="Helvetica,sans-Serif" font-size="10.00">src/analysis/physics</text>
<text text-anchor="middle" x="67" y="-87" font-family="Helvetica,sans-Serif" font-size="10.00">/calibration/PID_Energy.h</text>
</a>
</g>
<!-- Node1&#45;&gt;Node2 -->
<g id="edge2" class="edge"><title>Node1&#45;&gt;Node2</title>
<path fill="none" stroke="midnightblue" d="M1244.64,-173.179C1013.97,-170.374 352.707,-159.055 140,-120 130.946,-118.338 121.47,-115.828 112.456,-113.048"/>
<polygon fill="midnightblue" stroke="midnightblue" points="1244.93,-176.683 1254.97,-173.303 1245.01,-169.684 1244.93,-176.683"/>
</g>
<!-- Node4 -->
<g id="node7" class="node"><title>Node4</title>
<a xlink:href="_p_i_d___t_a_p_s_veto___kinfit_8cc.html" target="_top" xlink:title="src/analysis/physics\l/calibration/PID_TAPSVeto\l_Kinfit.cc">
<polygon fill="white" stroke="black" points="149,-72.5 149,-119.5 285,-119.5 285,-72.5 149,-72.5"/>
<text text-anchor="start" x="157" y="-106.5" font-family="Helvetica,sans-Serif" font-size="10.00">src/analysis/physics</text>
<text text-anchor="start" x="157" y="-93.5" font-family="Helvetica,sans-Serif" font-size="10.00">/calibration/PID_TAPSVeto</text>
<text text-anchor="middle" x="217" y="-80.5" font-family="Helvetica,sans-Serif" font-size="10.00">_Kinfit.cc</text>
</a>
</g>
<!-- Node1&#45;&gt;Node4 -->
<g id="edge6" class="edge"><title>Node1&#45;&gt;Node4</title>
<path fill="none" stroke="midnightblue" d="M1244.68,-172.383C1035.25,-167.753 476.159,-152.628 294,-120 291.106,-119.482 288.168,-118.887 285.213,-118.231"/>
<polygon fill="midnightblue" stroke="midnightblue" points="1244.61,-175.882 1254.68,-172.602 1244.76,-168.884 1244.61,-175.882"/>
</g>
<!-- Node5 -->
<g id="node9" class="node"><title>Node5</title>
<a xlink:href="_i_m_comb_fit_plots_8cc.html" target="_top" xlink:title="src/analysis/physics\l/common/IMCombFitPlots.cc">
<polygon fill="white" stroke="black" points="302.5,-79 302.5,-113 447.5,-113 447.5,-79 302.5,-79"/>
<text text-anchor="start" x="310.5" y="-100" font-family="Helvetica,sans-Serif" font-size="10.00">src/analysis/physics</text>
<text text-anchor="middle" x="375" y="-87" font-family="Helvetica,sans-Serif" font-size="10.00">/common/IMCombFitPlots.cc</text>
</a>
</g>
<!-- Node1&#45;&gt;Node5 -->
<g id="edge8" class="edge"><title>Node1&#45;&gt;Node5</title>
<path fill="none" stroke="midnightblue" d="M1244.52,-171.324C1059.07,-164.783 606.104,-146.549 456,-120 446.179,-118.263 435.86,-115.755 426.001,-113.009"/>
<polygon fill="midnightblue" stroke="midnightblue" points="1244.63,-174.83 1254.75,-171.683 1244.88,-167.835 1244.63,-174.83"/>
</g>
<!-- Node6 -->
<g id="node11" class="node"><title>Node6</title>
<a xlink:href="analysis_2physics_2common_2_interpolated_pulls_8cc.html" target="_top" xlink:title="src/analysis/physics\l/common/InterpolatedPulls.cc">
<polygon fill="white" stroke="black" points="465,-79 465,-113 611,-113 611,-79 465,-79"/>
<text text-anchor="start" x="473" y="-100" font-family="Helvetica,sans-Serif" font-size="10.00">src/analysis/physics</text>
<text text-anchor="middle" x="538" y="-87" font-family="Helvetica,sans-Serif" font-size="10.00">/common/InterpolatedPulls.cc</text>
</a>
</g>
<!-- Node1&#45;&gt;Node6 -->
<g id="edge10" class="edge"><title>Node1&#45;&gt;Node6</title>
<path fill="none" stroke="midnightblue" d="M1244.57,-169.952C1085.92,-161.62 737.868,-141.52 620,-120 610.223,-118.215 599.947,-115.72 590.103,-113.01"/>
<polygon fill="midnightblue" stroke="midnightblue" points="1244.57,-173.457 1254.74,-170.484 1244.94,-166.466 1244.57,-173.457"/>
</g>
<!-- Node7 -->
<g id="node13" class="node"><title>Node7</title>
<a xlink:href="_just_particles_8cc.html" target="_top" xlink:title="src/analysis/physics\l/common/JustParticles.cc">
<polygon fill="white" stroke="black" points="628.5,-79 628.5,-113 759.5,-113 759.5,-79 628.5,-79"/>
<text text-anchor="start" x="636.5" y="-100" font-family="Helvetica,sans-Serif" font-size="10.00">src/analysis/physics</text>
<text text-anchor="middle" x="694" y="-87" font-family="Helvetica,sans-Serif" font-size="10.00">/common/JustParticles.cc</text>
</a>
</g>
<!-- Node1&#45;&gt;Node7 -->
<g id="edge12" class="edge"><title>Node1&#45;&gt;Node7</title>
<path fill="none" stroke="midnightblue" d="M1244.54,-171.667C1135.51,-167.268 935.244,-154.797 768,-120 759.273,-118.184 750.127,-115.71 741.359,-113.036"/>
<polygon fill="midnightblue" stroke="midnightblue" points="1244.67,-175.175 1254.8,-172.068 1244.95,-168.18 1244.67,-175.175"/>
</g>
<!-- Node8 -->
<g id="node15" class="node"><title>Node8</title>
<a xlink:href="_meson_dalitz_decays_8cc.html" target="_top" xlink:title="Physics class to investigate Dalitz decays for different mesons. ">
<polygon fill="white" stroke="black" points="777,-79 777,-113 939,-113 939,-79 777,-79"/>
<text text-anchor="start" x="785" y="-100" font-family="Helvetica,sans-Serif" font-size="10.00">src/analysis/physics</text>
<text text-anchor="middle" x="858" y="-87" font-family="Helvetica,sans-Serif" font-size="10.00">/common/MesonDalitzDecays.cc</text>
</a>
</g>
<!-- Node1&#45;&gt;Node8 -->
<g id="edge14" class="edge"><title>Node1&#45;&gt;Node8</title>
<path fill="none" stroke="midnightblue" d="M1244.68,-165.288C1168.03,-156.317 1049.52,-140.732 948,-120 938.177,-117.994 927.833,-115.552 917.796,-113.003"/>
<polygon fill="midnightblue" stroke="midnightblue" points="1244.41,-168.78 1254.74,-166.456 1245.21,-161.827 1244.41,-168.78"/>
</g>
<!-- Node9 -->
<g id="node17" class="node"><title>Node9</title>
<a xlink:href="etaprime-3pi0_8h.html" target="_top" xlink:title="src/analysis/physics\l/etaprime/etaprime&#45;3pi0.h">
<polygon fill="white" stroke="black" points="956.5,-79 956.5,-113 1083.5,-113 1083.5,-79 956.5,-79"/>
<text text-anchor="start" x="964.5" y="-100" font-family="Helvetica,sans-Serif" font-size="10.00">src/analysis/physics</text>
<text text-anchor="middle" x="1020" y="-87" font-family="Helvetica,sans-Serif" font-size="10.00">/etaprime/etaprime&#45;3pi0.h</text>
</a>
</g>
<!-- Node1&#45;&gt;Node9 -->
<g id="edge16" class="edge"><title>Node1&#45;&gt;Node9</title>
<path fill="none" stroke="midnightblue" d="M1244.95,-157.396C1199.77,-147.541 1142.44,-134.217 1092,-120 1084.52,-117.891 1076.66,-115.479 1069,-113.016"/>
<polygon fill="midnightblue" stroke="midnightblue" points="1244.47,-160.873 1254.98,-159.572 1245.95,-154.032 1244.47,-160.873"/>
</g>
<!-- Node11 -->
<g id="node21" class="node"><title>Node11</title>
<a xlink:href="etaprime__dalitz_8cc.html" target="_top" xlink:title="src/analysis/physics\l/etaprime/etaprime_dalitz.cc">
<polygon fill="white" stroke="black" points="1101,-79 1101,-113 1241,-113 1241,-79 1101,-79"/>
<text text-anchor="start" x="1109" y="-100" font-family="Helvetica,sans-Serif" font-size="10.00">src/analysis/physics</text>
<text text-anchor="middle" x="1171" y="-87" font-family="Helvetica,sans-Serif" font-size="10.00">/etaprime/etaprime_dalitz.cc</text>
</a>
</g>
<!-- Node1&#45;&gt;Node11 -->
<g id="edge20" class="edge"><title>Node1&#45;&gt;Node11</title>
<path fill="none" stroke="midnightblue" d="M1282.14,-152.292C1257.68,-139.905 1227.47,-124.601 1204.72,-113.078"/>
<polygon fill="midnightblue" stroke="midnightblue" points="1280.7,-155.486 1291.2,-156.883 1283.86,-149.242 1280.7,-155.486"/>
</g>
<!-- Node12 -->
<g id="node23" class="node"><title>Node12</title>
<a xlink:href="etaprime__omega__gamma_8cc.html" target="_top" xlink:title="src/analysis/physics\l/etaprime/etaprime_omega\l_gamma.cc">
<polygon fill="white" stroke="black" points="1259,-72.5 1259,-119.5 1391,-119.5 1391,-72.5 1259,-72.5"/>
<text text-anchor="start" x="1267" y="-106.5" font-family="Helvetica,sans-Serif" font-size="10.00">src/analysis/physics</text>
<text text-anchor="start" x="1267" y="-93.5" font-family="Helvetica,sans-Serif" font-size="10.00">/etaprime/etaprime_omega</text>
<text text-anchor="middle" x="1325" y="-80.5" font-family="Helvetica,sans-Serif" font-size="10.00">_gamma.cc</text>
</a>
</g>
<!-- Node1&#45;&gt;Node12 -->
<g id="edge22" class="edge"><title>Node1&#45;&gt;Node12</title>
<path fill="none" stroke="midnightblue" d="M1325,-146.579C1325,-137.834 1325,-128.234 1325,-119.77"/>
<polygon fill="midnightblue" stroke="midnightblue" points="1321.5,-146.689 1325,-156.689 1328.5,-146.689 1321.5,-146.689"/>
</g>
<!-- Node13 -->
<g id="node25" class="node"><title>Node13</title>
<a xlink:href="etaprime__proton_8cc.html" target="_top" xlink:title="src/analysis/physics\l/etaprime/etaprime_proton.cc">
<polygon fill="white" stroke="black" points="1408.5,-79 1408.5,-113 1551.5,-113 1551.5,-79 1408.5,-79"/>
<text text-anchor="start" x="1416.5" y="-100" font-family="Helvetica,sans-Serif" font-size="10.00">src/analysis/physics</text>
<text text-anchor="middle" x="1480" y="-87" font-family="Helvetica,sans-Serif" font-size="10.00">/etaprime/etaprime_proton.cc</text>
</a>
</g>
<!-- Node1&#45;&gt;Node13 -->
<g id="edge24" class="edge"><title>Node1&#45;&gt;Node13</title>
<path fill="none" stroke="midnightblue" d="M1368.14,-152.292C1392.75,-139.905 1423.17,-124.601 1446.06,-113.078"/>
<polygon fill="midnightblue" stroke="midnightblue" points="1366.37,-149.261 1359.02,-156.883 1369.52,-155.514 1366.37,-149.261"/>
</g>
<!-- Node14 -->
<g id="node27" class="node"><title>Node14</title>
<a xlink:href="_find_proton_8cc.html" target="_top" xlink:title="src/analysis/physics\l/omega/FindProton.cc">
<polygon fill="white" stroke="black" points="1568.5,-79 1568.5,-113 1681.5,-113 1681.5,-79 1568.5,-79"/>
<text text-anchor="start" x="1576.5" y="-100" font-family="Helvetica,sans-Serif" font-size="10.00">src/analysis/physics</text>
<text text-anchor="middle" x="1625" y="-87" font-family="Helvetica,sans-Serif" font-size="10.00">/omega/FindProton.cc</text>
</a>
</g>
<!-- Node1&#45;&gt;Node14 -->
<g id="edge26" class="edge"><title>Node1&#45;&gt;Node14</title>
<path fill="none" stroke="midnightblue" d="M1404.88,-158.295C1450.66,-148.636 1508.98,-135.212 1560,-120 1566.92,-117.938 1574.16,-115.524 1581.2,-113.036"/>
<polygon fill="midnightblue" stroke="midnightblue" points="1404.09,-154.885 1395.02,-160.359 1405.52,-161.737 1404.09,-154.885"/>
</g>
<!-- Node15 -->
<g id="node29" class="node"><title>Node15</title>
<a xlink:href="omega_8cc.html" target="_top" xlink:title="src/analysis/physics\l/omega/omega.cc">
<polygon fill="white" stroke="black" points="1699,-79 1699,-113 1805,-113 1805,-79 1699,-79"/>
<text text-anchor="start" x="1707" y="-100" font-family="Helvetica,sans-Serif" font-size="10.00">src/analysis/physics</text>
<text text-anchor="middle" x="1752" y="-87" font-family="Helvetica,sans-Serif" font-size="10.00">/omega/omega.cc</text>
</a>
</g>
<!-- Node1&#45;&gt;Node15 -->
<g id="edge28" class="edge"><title>Node1&#45;&gt;Node15</title>
<path fill="none" stroke="midnightblue" d="M1405.49,-167.28C1480.15,-159.831 1593.88,-145.376 1690,-120 1697.14,-118.114 1704.59,-115.672 1711.74,-113.068"/>
<polygon fill="midnightblue" stroke="midnightblue" points="1404.84,-163.827 1395.23,-168.285 1405.52,-170.794 1404.84,-163.827"/>
</g>
<!-- Node16 -->
<g id="node31" class="node"><title>Node16</title>
<a xlink:href="_just_pi0_8cc.html" target="_top" xlink:title="src/analysis/physics\l/pi0/JustPi0.cc">
<polygon fill="white" stroke="black" points="1823,-79 1823,-113 1929,-113 1929,-79 1823,-79"/>
<text text-anchor="start" x="1831" y="-100" font-family="Helvetica,sans-Serif" font-size="10.00">src/analysis/physics</text>
<text text-anchor="middle" x="1876" y="-87" font-family="Helvetica,sans-Serif" font-size="10.00">/pi0/JustPi0.cc</text>
</a>
</g>
<!-- Node1&#45;&gt;Node16 -->
<g id="edge30" class="edge"><title>Node1&#45;&gt;Node16</title>
<path fill="none" stroke="midnightblue" d="M1405.34,-171.499C1503.14,-167.003 1672.76,-154.512 1814,-120 1821.4,-118.192 1829.11,-115.721 1836.47,-113.049"/>
<polygon fill="midnightblue" stroke="midnightblue" points="1405.06,-168.008 1395.23,-171.947 1405.37,-175.001 1405.06,-168.008"/>
</g>
<!-- Node17 -->
<g id="node33" class="node"><title>Node17</title>
<a xlink:href="_two_pi0___m_c_smearing_8cc.html" target="_top" xlink:title="src/analysis/physics\l/pi0/TwoPi0_MCSmearing.cc">
<polygon fill="white" stroke="black" points="1947,-79 1947,-113 2091,-113 2091,-79 1947,-79"/>
<text text-anchor="start" x="1955" y="-100" font-family="Helvetica,sans-Serif" font-size="10.00">src/analysis/physics</text>
<text text-anchor="middle" x="2019" y="-87" font-family="Helvetica,sans-Serif" font-size="10.00">/pi0/TwoPi0_MCSmearing.cc</text>
</a>
</g>
<!-- Node1&#45;&gt;Node17 -->
<g id="edge32" class="edge"><title>Node1&#45;&gt;Node17</title>
<path fill="none" stroke="midnightblue" d="M1405.04,-172.049C1522.76,-168.033 1749.08,-155.934 1938,-120 1947.51,-118.191 1957.5,-115.72 1967.09,-113.048"/>
<polygon fill="midnightblue" stroke="midnightblue" points="1404.91,-168.552 1395.03,-172.38 1405.14,-175.548 1404.91,-168.552"/>
</g>
<!-- Node18 -->
<g id="node35" class="node"><title>Node18</title>
<a xlink:href="single_pi0_8h.html" target="_top" xlink:title="src/analysis/physics\l/production/singlePi0.h">
<polygon fill="white" stroke="black" points="2109,-79 2109,-113 2225,-113 2225,-79 2109,-79"/>
<text text-anchor="start" x="2117" y="-100" font-family="Helvetica,sans-Serif" font-size="10.00">src/analysis/physics</text>
<text text-anchor="middle" x="2167" y="-87" font-family="Helvetica,sans-Serif" font-size="10.00">/production/singlePi0.h</text>
</a>
</g>
<!-- Node1&#45;&gt;Node18 -->
<g id="edge34" class="edge"><title>Node1&#45;&gt;Node18</title>
<path fill="none" stroke="midnightblue" d="M1405.36,-171.193C1575.89,-164.781 1969.1,-147.457 2100,-120 2108.22,-118.275 2116.8,-115.773 2124.97,-113.029"/>
<polygon fill="midnightblue" stroke="midnightblue" points="1405.05,-167.702 1395.19,-171.573 1405.31,-174.697 1405.05,-167.702"/>
</g>
<!-- Node20 -->
<g id="node39" class="node"><title>Node20</title>
<a xlink:href="triple_pi0_8h.html" target="_top" xlink:title="src/analysis/physics\l/production/triplePi0.h">
<polygon fill="white" stroke="black" points="2242.5,-79 2242.5,-113 2353.5,-113 2353.5,-79 2242.5,-79"/>
<text text-anchor="start" x="2250.5" y="-100" font-family="Helvetica,sans-Serif" font-size="10.00">src/analysis/physics</text>
<text text-anchor="middle" x="2298" y="-87" font-family="Helvetica,sans-Serif" font-size="10.00">/production/triplePi0.h</text>
</a>
</g>
<!-- Node1&#45;&gt;Node20 -->
<g id="edge38" class="edge"><title>Node1&#45;&gt;Node20</title>
<path fill="none" stroke="midnightblue" d="M1405.24,-172.305C1596.88,-167.76 2076.94,-153.32 2234,-120 2241.89,-118.325 2250.11,-115.847 2257.92,-113.11"/>
<polygon fill="midnightblue" stroke="midnightblue" points="1405.15,-168.806 1395.23,-172.539 1405.31,-175.804 1405.15,-168.806"/>
</g>
<!-- Node24 -->
<g id="node47" class="node"><title>Node24</title>
<a xlink:href="_fitter_sergey_8cc.html" target="_top" xlink:title="src/analysis/utils\l/uncertainties/FitterSergey.cc">
<polygon fill="white" stroke="black" points="2370.5,-79 2370.5,-113 2515.5,-113 2515.5,-79 2370.5,-79"/>
<text text-anchor="start" x="2378.5" y="-100" font-family="Helvetica,sans-Serif" font-size="10.00">src/analysis/utils</text>
<text text-anchor="middle" x="2443" y="-87" font-family="Helvetica,sans-Serif" font-size="10.00">/uncertainties/FitterSergey.cc</text>
</a>
</g>
<!-- Node1&#45;&gt;Node24 -->
<g id="edge46" class="edge"><title>Node1&#45;&gt;Node24</title>
<path fill="none" stroke="midnightblue" d="M1405.39,-172.265C1615.68,-167.335 2178.44,-151.516 2362,-120 2371.83,-118.312 2382.15,-115.828 2392.01,-113.089"/>
<polygon fill="midnightblue" stroke="midnightblue" points="1405.26,-168.767 1395.34,-172.499 1405.42,-175.765 1405.26,-168.767"/>
</g>
<!-- Node3 -->
<g id="node5" class="node"><title>Node3</title>
<a xlink:href="analysis_2physics_2calibration_2_p_i_d___energy_8cc.html" target="_top" xlink:title="src/analysis/physics\l/calibration/PID_Energy.cc">
<polygon fill="white" stroke="black" points="0,-1 0,-35 134,-35 134,-1 0,-1"/>
<text text-anchor="start" x="8" y="-22" font-family="Helvetica,sans-Serif" font-size="10.00">src/analysis/physics</text>
<text text-anchor="middle" x="67" y="-9" font-family="Helvetica,sans-Serif" font-size="10.00">/calibration/PID_Energy.cc</text>
</a>
</g>
<!-- Node2&#45;&gt;Node3 -->
<g id="edge4" class="edge"><title>Node2&#45;&gt;Node3</title>
<path fill="none" stroke="midnightblue" d="M67,-68.6102C67,-57.5188 67,-45.0489 67,-35.2623"/>
<polygon fill="midnightblue" stroke="midnightblue" points="63.5001,-68.6892 67,-78.6893 70.5001,-68.6893 63.5001,-68.6892"/>
</g>
<!-- Node10 -->
<g id="node19" class="node"><title>Node10</title>
<a xlink:href="etaprime-3pi0_8cc.html" target="_top" xlink:title="src/analysis/physics\l/etaprime/etaprime&#45;3pi0.cc">
<polygon fill="white" stroke="black" points="954,-1 954,-35 1086,-35 1086,-1 954,-1"/>
<text text-anchor="start" x="962" y="-22" font-family="Helvetica,sans-Serif" font-size="10.00">src/analysis/physics</text>
<text text-anchor="middle" x="1020" y="-9" font-family="Helvetica,sans-Serif" font-size="10.00">/etaprime/etaprime&#45;3pi0.cc</text>
</a>
</g>
<!-- Node9&#45;&gt;Node10 -->
<g id="edge18" class="edge"><title>Node9&#45;&gt;Node10</title>
<path fill="none" stroke="midnightblue" d="M1020,-68.6102C1020,-57.5188 1020,-45.0489 1020,-35.2623"/>
<polygon fill="midnightblue" stroke="midnightblue" points="1016.5,-68.6892 1020,-78.6893 1023.5,-68.6893 1016.5,-68.6892"/>
</g>
<!-- Node19 -->
<g id="node37" class="node"><title>Node19</title>
<a xlink:href="single_pi0_8cc.html" target="_top" xlink:title="src/analysis/physics\l/production/singlePi0.cc">
<polygon fill="white" stroke="black" points="2032.5,-1 2032.5,-35 2153.5,-35 2153.5,-1 2032.5,-1"/>
<text text-anchor="start" x="2040.5" y="-22" font-family="Helvetica,sans-Serif" font-size="10.00">src/analysis/physics</text>
<text text-anchor="middle" x="2093" y="-9" font-family="Helvetica,sans-Serif" font-size="10.00">/production/singlePi0.cc</text>
</a>
</g>
<!-- Node18&#45;&gt;Node19 -->
<g id="edge36" class="edge"><title>Node18&#45;&gt;Node19</title>
<path fill="none" stroke="midnightblue" d="M2143.59,-71.3241C2132.46,-59.594 2119.43,-45.8561 2109.38,-35.2623"/>
<polygon fill="midnightblue" stroke="midnightblue" points="2141.16,-73.8435 2150.58,-78.6893 2146.23,-69.0257 2141.16,-73.8435"/>
</g>
<!-- Node21 -->
<g id="node41" class="node"><title>Node21</title>
<a xlink:href="_triple_pi0__cuts_8cc.html" target="_top" xlink:title="progs/TriplePi0_cuts.cc">
<polygon fill="white" stroke="black" points="2170.5,-7.5 2170.5,-28.5 2289.5,-28.5 2289.5,-7.5 2170.5,-7.5"/>
<text text-anchor="middle" x="2230" y="-15.5" font-family="Helvetica,sans-Serif" font-size="10.00">progs/TriplePi0_cuts.cc</text>
</a>
</g>
<!-- Node20&#45;&gt;Node21 -->
<g id="edge40" class="edge"><title>Node20&#45;&gt;Node21</title>
<path fill="none" stroke="midnightblue" d="M2276.31,-71.1191C2263.87,-56.8472 2248.88,-39.6591 2239.4,-28.779"/>
<polygon fill="midnightblue" stroke="midnightblue" points="2273.7,-73.4515 2282.91,-78.6893 2278.98,-68.8515 2273.7,-73.4515"/>
</g>
<!-- Node22 -->
<g id="node43" class="node"><title>Node22</title>
<a xlink:href="_triple_pi0__plot_8cc.html" target="_top" xlink:title="progs/TriplePi0_plot.cc">
<polygon fill="white" stroke="black" points="2307,-7.5 2307,-28.5 2423,-28.5 2423,-7.5 2307,-7.5"/>
<text text-anchor="middle" x="2365" y="-15.5" font-family="Helvetica,sans-Serif" font-size="10.00">progs/TriplePi0_plot.cc</text>
</a>
</g>
<!-- Node20&#45;&gt;Node22 -->
<g id="edge42" class="edge"><title>Node20&#45;&gt;Node22</title>
<path fill="none" stroke="midnightblue" d="M2319.71,-70.7219C2331.9,-56.5294 2346.48,-39.5583 2355.74,-28.779"/>
<polygon fill="midnightblue" stroke="midnightblue" points="2316.73,-68.823 2312.87,-78.6893 2322.04,-73.3841 2316.73,-68.823"/>
</g>
<!-- Node23 -->
<g id="node45" class="node"><title>Node23</title>
<a xlink:href="triple_pi0_8cc.html" target="_top" xlink:title="src/analysis/physics\l/production/triplePi0.cc">
<polygon fill="white" stroke="black" points="2441,-1 2441,-35 2557,-35 2557,-1 2441,-1"/>
<text text-anchor="start" x="2449" y="-22" font-family="Helvetica,sans-Serif" font-size="10.00">src/analysis/physics</text>
<text text-anchor="middle" x="2499" y="-9" font-family="Helvetica,sans-Serif" font-size="10.00">/production/triplePi0.cc</text>
</a>
</g>
<!-- Node20&#45;&gt;Node23 -->
<g id="edge44" class="edge"><title>Node20&#45;&gt;Node23</title>
<path fill="none" stroke="midnightblue" d="M2351.84,-75.1063C2384.12,-62.5814 2424.64,-46.8544 2454.99,-35.0775"/>
<polygon fill="midnightblue" stroke="midnightblue" points="2350.17,-72.0018 2342.11,-78.8826 2352.7,-78.5277 2350.17,-72.0018"/>
</g>
</g>
</svg>
