<?xml version="1.0" encoding="UTF-8" standalone="no"?>
<!DOCTYPE svg PUBLIC "-//W3C//DTD SVG 1.1//EN"
 "http://www.w3.org/Graphics/SVG/1.1/DTD/svg11.dtd">
<!-- Generated by graphviz version 2.26.3 (20100126.1600)
 -->
<!-- Title: src/calibration/fitfunctions/FitFunction.cc Pages: 1 -->
<svg width="1249pt" height="290pt"
 viewBox="0.00 0.00 1249.00 290.00" xmlns="http://www.w3.org/2000/svg" xmlns:xlink="http://www.w3.org/1999/xlink">
<g id="graph1" class="graph" transform="scale(1 1) rotate(0) translate(4 286)">
<title>src/calibration/fitfunctions/FitFunction.cc</title>
<polygon fill="white" stroke="white" points="-4,5 -4,-286 1246,-286 1246,5 -4,5"/>
<!-- Node1 -->
<g id="node1" class="node"><title>Node1</title>
<polygon fill="#bfbfbf" stroke="black" points="877,-247 877,-281 1005,-281 1005,-247 877,-247"/>
<text text-anchor="start" x="885" y="-268" font-family="Helvetica,sans-Serif" font-size="10.00">src/calibration/fitfunctions</text>
<text text-anchor="middle" x="941" y="-255" font-family="Helvetica,sans-Serif" font-size="10.00">/FitFunction.cc</text>
</g>
<!-- Node2 -->
<g id="node3" class="node"><title>Node2</title>
<a xlink:href="_fit_function_8h.html" target="_top" xlink:title="FitFunction.h">
<polygon fill="white" stroke="black" points="303,-188.5 303,-209.5 377,-209.5 377,-188.5 303,-188.5"/>
<text text-anchor="middle" x="340" y="-196.5" font-family="Helvetica,sans-Serif" font-size="10.00">FitFunction.h</text>
</a>
</g>
<!-- Node1&#45;&gt;Node2 -->
<g id="edge2" class="edge"><title>Node1&#45;&gt;Node2</title>
<path fill="none" stroke="midnightblue" d="M876.967,-257.075C755.492,-243.937 494.185,-215.676 387.168,-204.101"/>
<polygon fill="midnightblue" stroke="midnightblue" points="387.319,-200.597 377.001,-203.002 386.567,-207.557 387.319,-200.597"/>
</g>
<!-- Node8 -->
<g id="node16" class="node"><title>Node8</title>
<a xlink:href="interval_8h.html" target="_top" xlink:title="base/interval.h">
<polygon fill="white" stroke="black" points="648,-130.5 648,-151.5 728,-151.5 728,-130.5 648,-130.5"/>
<text text-anchor="middle" x="688" y="-138.5" font-family="Helvetica,sans-Serif" font-size="10.00">base/interval.h</text>
</a>
</g>
<!-- Node1&#45;&gt;Node8 -->
<g id="edge50" class="edge"><title>Node1&#45;&gt;Node8</title>
<path fill="none" stroke="midnightblue" d="M905.821,-246.897C856.155,-222.751 766.272,-179.053 718.99,-156.066"/>
<polygon fill="midnightblue" stroke="midnightblue" points="720.375,-152.848 709.851,-151.623 717.315,-159.143 720.375,-152.848"/>
</g>
<!-- Node13 -->
<g id="node26" class="node"><title>Node13</title>
<polygon fill="white" stroke="#bfbfbf" points="901,-65.5 901,-86.5 957,-86.5 957,-65.5 901,-65.5"/>
<text text-anchor="middle" x="929" y="-73.5" font-family="Helvetica,sans-Serif" font-size="10.00">algorithm</text>
</g>
<!-- Node1&#45;&gt;Node13 -->
<g id="edge72" class="edge"><title>Node1&#45;&gt;Node13</title>
<path fill="none" stroke="midnightblue" d="M934.11,-246.811C930.294,-236.357 925.941,-222.629 924,-210 917.873,-170.135 922.329,-122.856 925.85,-96.4559"/>
<polygon fill="midnightblue" stroke="midnightblue" points="929.323,-96.8961 927.268,-86.5024 922.393,-95.9087 929.323,-96.8961"/>
</g>
<!-- Node20 -->
<g id="node44" class="node"><title>Node20</title>
<a xlink:href="_base_functions_8h.html" target="_top" xlink:title="BaseFunctions.h">
<polygon fill="white" stroke="black" points="933,-188.5 933,-209.5 1023,-209.5 1023,-188.5 933,-188.5"/>
<text text-anchor="middle" x="978" y="-196.5" font-family="Helvetica,sans-Serif" font-size="10.00">BaseFunctions.h</text>
</a>
</g>
<!-- Node1&#45;&gt;Node20 -->
<g id="edge48" class="edge"><title>Node1&#45;&gt;Node20</title>
<path fill="none" stroke="midnightblue" d="M950.721,-246.922C955.627,-238.304 961.605,-227.802 966.713,-218.828"/>
<polygon fill="midnightblue" stroke="midnightblue" points="969.917,-220.274 971.823,-209.852 963.834,-216.811 969.917,-220.274"/>
</g>
<!-- Node21 -->
<g id="node47" class="node"><title>Node21</title>
<a xlink:href="_logger_8h.html" target="_top" xlink:title="base/Logger.h">
<polygon fill="white" stroke="black" points="1041,-188.5 1041,-209.5 1119,-209.5 1119,-188.5 1041,-188.5"/>
<text text-anchor="middle" x="1080" y="-196.5" font-family="Helvetica,sans-Serif" font-size="10.00">base/Logger.h</text>
</a>
</g>
<!-- Node1&#45;&gt;Node21 -->
<g id="edge52" class="edge"><title>Node1&#45;&gt;Node21</title>
<path fill="none" stroke="midnightblue" d="M977.521,-246.922C999.423,-236.68 1027.01,-223.777 1048.05,-213.941"/>
<polygon fill="midnightblue" stroke="midnightblue" points="1049.63,-217.065 1057.21,-209.658 1046.67,-210.724 1049.63,-217.065"/>
</g>
<!-- Node23 -->
<g id="node51" class="node"><title>Node23</title>
<a xlink:href="math_8h.html" target="_top" xlink:title="base/std_ext/math.h">
<polygon fill="white" stroke="black" points="771,-130.5 771,-151.5 877,-151.5 877,-130.5 771,-130.5"/>
<text text-anchor="middle" x="824" y="-138.5" font-family="Helvetica,sans-Serif" font-size="10.00">base/std_ext/math.h</text>
</a>
</g>
<!-- Node1&#45;&gt;Node23 -->
<g id="edge56" class="edge"><title>Node1&#45;&gt;Node23</title>
<path fill="none" stroke="midnightblue" d="M924.732,-246.897C902.731,-223.768 863.666,-182.7 841.196,-159.078"/>
<polygon fill="midnightblue" stroke="midnightblue" points="843.689,-156.621 834.261,-151.787 838.617,-161.445 843.689,-156.621"/>
</g>
<!-- Node26 -->
<g id="node60" class="node"><title>Node26</title>
<polygon fill="white" stroke="#bfbfbf" points="1137,-188.5 1137,-209.5 1179,-209.5 1179,-188.5 1137,-188.5"/>
<text text-anchor="middle" x="1158" y="-196.5" font-family="Helvetica,sans-Serif" font-size="10.00">TF1.h</text>
</g>
<!-- Node1&#45;&gt;Node26 -->
<g id="edge68" class="edge"><title>Node1&#45;&gt;Node26</title>
<path fill="none" stroke="midnightblue" d="M1004.1,-246.971C1038.16,-237.5 1081.09,-225.12 1127.19,-210.133"/>
<polygon fill="midnightblue" stroke="midnightblue" points="1128.35,-213.437 1136.76,-206.998 1126.17,-206.785 1128.35,-213.437"/>
</g>
<!-- Node27 -->
<g id="node62" class="node"><title>Node27</title>
<polygon fill="white" stroke="#bfbfbf" points="1197,-188.5 1197,-209.5 1241,-209.5 1241,-188.5 1197,-188.5"/>
<text text-anchor="middle" x="1219" y="-196.5" font-family="Helvetica,sans-Serif" font-size="10.00">TH1.h</text>
</g>
<!-- Node1&#45;&gt;Node27 -->
<g id="edge70" class="edge"><title>Node1&#45;&gt;Node27</title>
<path fill="none" stroke="midnightblue" d="M1005,-252.303C1052.84,-243.036 1119.94,-228.933 1186.88,-210.085"/>
<polygon fill="midnightblue" stroke="midnightblue" points="1188.1,-213.378 1196.76,-207.27 1186.18,-206.646 1188.1,-213.378"/>
</g>
<!-- Node3 -->
<g id="node5" class="node"><title>Node3</title>
<a xlink:href="_knobs_t_f1_8h.html" target="_top" xlink:title="KnobsTF1.h">
<polygon fill="white" stroke="black" points="117,-130.5 117,-151.5 187,-151.5 187,-130.5 117,-130.5"/>
<text text-anchor="middle" x="152" y="-138.5" font-family="Helvetica,sans-Serif" font-size="10.00">KnobsTF1.h</text>
</a>
</g>
<!-- Node2&#45;&gt;Node3 -->
<g id="edge4" class="edge"><title>Node2&#45;&gt;Node3</title>
<path fill="none" stroke="midnightblue" d="M305.955,-188.497C275.04,-178.959 229.277,-164.841 195.678,-154.475"/>
<polygon fill="midnightblue" stroke="midnightblue" points="196.697,-151.127 186.109,-151.523 194.633,-157.816 196.697,-151.127"/>
</g>
<!-- Node4 -->
<g id="node7" class="node"><title>Node4</title>
<a xlink:href="_indicator__traits_8h.html" target="_top" xlink:title="calibration/gui/Indicator\l_traits.h">
<polygon fill="white" stroke="black" points="-0.5,-59 -0.5,-93 116.5,-93 116.5,-59 -0.5,-59"/>
<text text-anchor="start" x="7.5" y="-80" font-family="Helvetica,sans-Serif" font-size="10.00">calibration/gui/Indicator</text>
<text text-anchor="middle" x="58" y="-67" font-family="Helvetica,sans-Serif" font-size="10.00">_traits.h</text>
</a>
</g>
<!-- Node2&#45;&gt;Node4 -->
<g id="edge14" class="edge"><title>Node2&#45;&gt;Node4</title>
<path fill="none" stroke="midnightblue" d="M302.701,-194.962C245.471,-188.19 139.324,-173.173 108,-152 90.1706,-139.949 77.1559,-119.195 68.8817,-102.418"/>
<polygon fill="midnightblue" stroke="midnightblue" points="71.9402,-100.694 64.5572,-93.0947 65.59,-103.639 71.9402,-100.694"/>
</g>
<!-- Node5 -->
<g id="node9" class="node"><title>Node5</title>
<polygon fill="white" stroke="#bfbfbf" points="227,-0.5 227,-21.5 283,-21.5 283,-0.5 227,-0.5"/>
<text text-anchor="middle" x="255" y="-8.5" font-family="Helvetica,sans-Serif" font-size="10.00">Rtypes.h</text>
</g>
<!-- Node2&#45;&gt;Node5 -->
<g id="edge40" class="edge"><title>Node2&#45;&gt;Node5</title>
<path fill="none" stroke="midnightblue" d="M376.896,-188.414C394.755,-181.225 414.549,-169.72 425,-152 435.395,-134.374 451.642,-95.4881 422,-58 406.089,-37.8773 337.411,-23.7242 293.233,-16.5059"/>
<polygon fill="midnightblue" stroke="midnightblue" points="293.545,-13.0117 283.121,-14.904 292.45,-19.9255 293.545,-13.0117"/>
</g>
<!-- Node6 -->
<g id="node11" class="node"><title>Node6</title>
<polygon fill="white" stroke="#bfbfbf" points="209.5,-65.5 209.5,-86.5 250.5,-86.5 250.5,-65.5 209.5,-65.5"/>
<text text-anchor="middle" x="230" y="-73.5" font-family="Helvetica,sans-Serif" font-size="10.00">string</text>
</g>
<!-- Node2&#45;&gt;Node6 -->
<g id="edge46" class="edge"><title>Node2&#45;&gt;Node6</title>
<path fill="none" stroke="midnightblue" d="M315.811,-188.398C299.703,-180.338 279.003,-167.924 265,-152 250.757,-135.803 241.262,-112.829 235.799,-96.3874"/>
<polygon fill="midnightblue" stroke="midnightblue" points="239.088,-95.1766 232.781,-86.6631 232.402,-97.2512 239.088,-95.1766"/>
</g>
<!-- Node2&#45;&gt;Node8 -->
<g id="edge16" class="edge"><title>Node2&#45;&gt;Node8</title>
<path fill="none" stroke="midnightblue" d="M377.242,-192.793C440.08,-182.32 567.201,-161.133 637.829,-149.362"/>
<polygon fill="midnightblue" stroke="midnightblue" points="638.537,-152.792 647.825,-147.696 637.386,-145.888 638.537,-152.792"/>
</g>
<!-- Node17 -->
<g id="node34" class="node"><title>Node17</title>
<a xlink:href="memory_8h.html" target="_top" xlink:title="base/std_ext/memory.h">
<polygon fill="white" stroke="black" points="280.5,-130.5 280.5,-151.5 399.5,-151.5 399.5,-130.5 280.5,-130.5"/>
<text text-anchor="middle" x="340" y="-138.5" font-family="Helvetica,sans-Serif" font-size="10.00">base/std_ext/memory.h</text>
</a>
</g>
<!-- Node2&#45;&gt;Node17 -->
<g id="edge34" class="edge"><title>Node2&#45;&gt;Node17</title>
<path fill="none" stroke="midnightblue" d="M340,-188.362C340,-180.922 340,-170.743 340,-161.728"/>
<polygon fill="midnightblue" stroke="midnightblue" points="343.5,-161.571 340,-151.571 336.5,-161.571 343.5,-161.571"/>
</g>
<!-- Node18 -->
<g id="node36" class="node"><title>Node18</title>
<polygon fill="white" stroke="#bfbfbf" points="291,-65.5 291,-86.5 343,-86.5 343,-65.5 291,-65.5"/>
<text text-anchor="middle" x="317" y="-73.5" font-family="Helvetica,sans-Serif" font-size="10.00">memory</text>
</g>
<!-- Node2&#45;&gt;Node18 -->
<g id="edge42" class="edge"><title>Node2&#45;&gt;Node18</title>
<path fill="none" stroke="midnightblue" d="M313.786,-188.409C298.602,-180.748 280.798,-168.776 272,-152 261.228,-131.461 278.893,-108.662 295.153,-93.4438"/>
<polygon fill="midnightblue" stroke="midnightblue" points="297.702,-95.8622 302.891,-86.6249 293.074,-90.6102 297.702,-95.8622"/>
</g>
<!-- Node19 -->
<g id="node38" class="node"><title>Node19</title>
<polygon fill="white" stroke="#bfbfbf" points="384.5,-65.5 384.5,-86.5 413.5,-86.5 413.5,-65.5 384.5,-65.5"/>
<text text-anchor="middle" x="399" y="-73.5" font-family="Helvetica,sans-Serif" font-size="10.00">list</text>
</g>
<!-- Node2&#45;&gt;Node19 -->
<g id="edge44" class="edge"><title>Node2&#45;&gt;Node19</title>
<path fill="none" stroke="midnightblue" d="M366.214,-188.409C381.398,-180.748 399.202,-168.776 408,-152 417.112,-134.626 412.718,-112.01 407.368,-95.9798"/>
<polygon fill="midnightblue" stroke="midnightblue" points="410.614,-94.6684 403.846,-86.5176 404.054,-97.1104 410.614,-94.6684"/>
</g>
<!-- Node3&#45;&gt;Node4 -->
<g id="edge6" class="edge"><title>Node3&#45;&gt;Node4</title>
<path fill="none" stroke="midnightblue" d="M136.478,-130.267C124.158,-121.748 106.499,-109.537 91.0505,-98.8541"/>
<polygon fill="midnightblue" stroke="midnightblue" points="92.9592,-95.9187 82.7435,-93.1099 88.9779,-101.676 92.9592,-95.9187"/>
</g>
<!-- Node3&#45;&gt;Node6 -->
<g id="edge10" class="edge"><title>Node3&#45;&gt;Node6</title>
<path fill="none" stroke="midnightblue" d="M164.88,-130.267C177.034,-120.139 195.45,-104.792 209.601,-92.9995"/>
<polygon fill="midnightblue" stroke="midnightblue" points="211.918,-95.6244 217.36,-86.5337 207.437,-90.2468 211.918,-95.6244"/>
</g>
<!-- Node7 -->
<g id="node13" class="node"><title>Node7</title>
<polygon fill="white" stroke="#bfbfbf" points="133.5,-65.5 133.5,-86.5 192.5,-86.5 192.5,-65.5 133.5,-65.5"/>
<text text-anchor="middle" x="163" y="-73.5" font-family="Helvetica,sans-Serif" font-size="10.00">functional</text>
</g>
<!-- Node3&#45;&gt;Node7 -->
<g id="edge12" class="edge"><title>Node3&#45;&gt;Node7</title>
<path fill="none" stroke="midnightblue" d="M153.816,-130.267C155.354,-121.18 157.603,-107.892 159.49,-96.7395"/>
<polygon fill="midnightblue" stroke="midnightblue" points="163,-96.9775 161.217,-86.5337 156.098,-95.8095 163,-96.9775"/>
</g>
<!-- Node4&#45;&gt;Node5 -->
<g id="edge8" class="edge"><title>Node4&#45;&gt;Node5</title>
<path fill="none" stroke="midnightblue" d="M109.759,-58.922C143.456,-47.8038 186.653,-33.5509 217.151,-23.4884"/>
<polygon fill="midnightblue" stroke="midnightblue" points="218.574,-26.7043 226.974,-20.2471 216.381,-20.0568 218.574,-26.7043"/>
</g>
<!-- Node9 -->
<g id="node18" class="node"><title>Node9</title>
<a xlink:href="printable_8h.html" target="_top" xlink:title="printable.h">
<polygon fill="white" stroke="black" points="493,-65.5 493,-86.5 555,-86.5 555,-65.5 493,-65.5"/>
<text text-anchor="middle" x="524" y="-73.5" font-family="Helvetica,sans-Serif" font-size="10.00">printable.h</text>
</a>
</g>
<!-- Node8&#45;&gt;Node9 -->
<g id="edge18" class="edge"><title>Node8&#45;&gt;Node9</title>
<path fill="none" stroke="midnightblue" d="M658.741,-130.478C633.489,-121.262 596.119,-107.3 564,-94 561.362,-92.9075 558.638,-91.7488 555.91,-90.5668"/>
<polygon fill="midnightblue" stroke="midnightblue" points="557.303,-87.3559 546.741,-86.5204 554.477,-93.76 557.303,-87.3559"/>
</g>
<!-- Node12 -->
<g id="node24" class="node"><title>Node12</title>
<a xlink:href="types_8h.html" target="_top" xlink:title="types.h">
<polygon fill="white" stroke="black" points="572.5,-65.5 572.5,-86.5 621.5,-86.5 621.5,-65.5 572.5,-65.5"/>
<text text-anchor="middle" x="597" y="-73.5" font-family="Helvetica,sans-Serif" font-size="10.00">types.h</text>
</a>
</g>
<!-- Node8&#45;&gt;Node12 -->
<g id="edge24" class="edge"><title>Node8&#45;&gt;Node12</title>
<path fill="none" stroke="midnightblue" d="M672.973,-130.267C658.662,-120.044 636.906,-104.504 620.338,-92.6699"/>
<polygon fill="midnightblue" stroke="midnightblue" points="621.919,-89.4981 611.747,-86.5337 617.85,-95.1942 621.919,-89.4981"/>
</g>
<!-- Node8&#45;&gt;Node13 -->
<g id="edge26" class="edge"><title>Node8&#45;&gt;Node13</title>
<path fill="none" stroke="midnightblue" d="M728.247,-134.508C769.952,-127.141 836.656,-113.553 892,-94 894.715,-93.0407 897.493,-91.9372 900.246,-90.7587"/>
<polygon fill="midnightblue" stroke="midnightblue" points="901.757,-93.9164 909.384,-86.5634 898.836,-87.5547 901.757,-93.9164"/>
</g>
<!-- Node14 -->
<g id="node28" class="node"><title>Node14</title>
<polygon fill="white" stroke="#bfbfbf" points="704.5,-65.5 704.5,-86.5 763.5,-86.5 763.5,-65.5 704.5,-65.5"/>
<text text-anchor="middle" x="734" y="-73.5" font-family="Helvetica,sans-Serif" font-size="10.00">stdexcept</text>
</g>
<!-- Node8&#45;&gt;Node14 -->
<g id="edge28" class="edge"><title>Node8&#45;&gt;Node14</title>
<path fill="none" stroke="midnightblue" d="M695.596,-130.267C702.361,-120.707 712.418,-106.496 720.543,-95.0152"/>
<polygon fill="midnightblue" stroke="midnightblue" points="723.626,-96.7183 726.545,-86.5337 717.912,-92.6746 723.626,-96.7183"/>
</g>
<!-- Node15 -->
<g id="node30" class="node"><title>Node15</title>
<polygon fill="white" stroke="#bfbfbf" points="781,-65.5 781,-86.5 821,-86.5 821,-65.5 781,-65.5"/>
<text text-anchor="middle" x="801" y="-73.5" font-family="Helvetica,sans-Serif" font-size="10.00">limits</text>
</g>
<!-- Node8&#45;&gt;Node15 -->
<g id="edge30" class="edge"><title>Node8&#45;&gt;Node15</title>
<path fill="none" stroke="midnightblue" d="M707.493,-130.42C724.61,-121.053 750.12,-106.902 772,-94 773.12,-93.3397 774.261,-92.6604 775.411,-91.9701"/>
<polygon fill="midnightblue" stroke="midnightblue" points="777.498,-94.7968 784.211,-86.6 773.851,-88.8215 777.498,-94.7968"/>
</g>
<!-- Node16 -->
<g id="node32" class="node"><title>Node16</title>
<polygon fill="white" stroke="#bfbfbf" points="638.5,-65.5 638.5,-86.5 687.5,-86.5 687.5,-65.5 638.5,-65.5"/>
<text text-anchor="middle" x="663" y="-73.5" font-family="Helvetica,sans-Serif" font-size="10.00">istream</text>
</g>
<!-- Node8&#45;&gt;Node16 -->
<g id="edge32" class="edge"><title>Node8&#45;&gt;Node16</title>
<path fill="none" stroke="midnightblue" d="M683.872,-130.267C680.304,-120.991 675.052,-107.336 670.71,-96.0453"/>
<polygon fill="midnightblue" stroke="midnightblue" points="673.908,-94.6107 667.051,-86.5337 667.375,-97.1236 673.908,-94.6107"/>
</g>
<!-- Node10 -->
<g id="node20" class="node"><title>Node10</title>
<polygon fill="white" stroke="#bfbfbf" points="530,-0.5 530,-21.5 592,-21.5 592,-0.5 530,-0.5"/>
<text text-anchor="middle" x="561" y="-8.5" font-family="Helvetica,sans-Serif" font-size="10.00">type_traits</text>
</g>
<!-- Node9&#45;&gt;Node10 -->
<g id="edge20" class="edge"><title>Node9&#45;&gt;Node10</title>
<path fill="none" stroke="midnightblue" d="M530.11,-65.2666C535.498,-55.8013 543.481,-41.7773 549.981,-30.3571"/>
<polygon fill="midnightblue" stroke="midnightblue" points="553.099,-31.9558 555.004,-21.5337 547.015,-28.4929 553.099,-31.9558"/>
</g>
<!-- Node11 -->
<g id="node22" class="node"><title>Node11</title>
<polygon fill="white" stroke="#bfbfbf" points="460,-0.5 460,-21.5 512,-21.5 512,-0.5 460,-0.5"/>
<text text-anchor="middle" x="486" y="-8.5" font-family="Helvetica,sans-Serif" font-size="10.00">ostream</text>
</g>
<!-- Node9&#45;&gt;Node11 -->
<g id="edge22" class="edge"><title>Node9&#45;&gt;Node11</title>
<path fill="none" stroke="midnightblue" d="M517.725,-65.2666C512.192,-55.8013 503.993,-41.7773 497.316,-30.3571"/>
<polygon fill="midnightblue" stroke="midnightblue" points="500.227,-28.4002 492.158,-21.5337 494.184,-31.9331 500.227,-28.4002"/>
</g>
<!-- Node17&#45;&gt;Node18 -->
<g id="edge36" class="edge"><title>Node17&#45;&gt;Node18</title>
<path fill="none" stroke="midnightblue" d="M336.202,-130.267C332.92,-120.991 328.088,-107.336 324.093,-96.0453"/>
<polygon fill="midnightblue" stroke="midnightblue" points="327.363,-94.7934 320.727,-86.5337 320.764,-97.1285 327.363,-94.7934"/>
</g>
<!-- Node17&#45;&gt;Node19 -->
<g id="edge38" class="edge"><title>Node17&#45;&gt;Node19</title>
<path fill="none" stroke="midnightblue" d="M349.743,-130.267C358.678,-120.423 372.089,-105.648 382.662,-93.9996"/>
<polygon fill="midnightblue" stroke="midnightblue" points="385.309,-96.2907 389.439,-86.5337 380.126,-91.5859 385.309,-96.2907"/>
</g>
<!-- Node22 -->
<g id="node49" class="node"><title>Node22</title>
<polygon fill="white" stroke="#bfbfbf" points="1022.5,-130.5 1022.5,-151.5 1137.5,-151.5 1137.5,-130.5 1022.5,-130.5"/>
<text text-anchor="middle" x="1080" y="-138.5" font-family="Helvetica,sans-Serif" font-size="10.00">detail/easylogging++.h</text>
</g>
<!-- Node21&#45;&gt;Node22 -->
<g id="edge54" class="edge"><title>Node21&#45;&gt;Node22</title>
<path fill="none" stroke="midnightblue" d="M1080,-188.362C1080,-180.922 1080,-170.743 1080,-161.728"/>
<polygon fill="midnightblue" stroke="midnightblue" points="1083.5,-161.571 1080,-151.571 1076.5,-161.571 1083.5,-161.571"/>
</g>
<!-- Node23&#45;&gt;Node13 -->
<g id="edge64" class="edge"><title>Node23&#45;&gt;Node13</title>
<path fill="none" stroke="midnightblue" d="M841.339,-130.267C858.234,-119.807 884.121,-103.782 903.39,-91.8541"/>
<polygon fill="midnightblue" stroke="midnightblue" points="905.324,-94.7732 911.984,-86.5337 901.639,-88.8214 905.324,-94.7732"/>
</g>
<!-- Node23&#45;&gt;Node14 -->
<g id="edge66" class="edge"><title>Node23&#45;&gt;Node14</title>
<path fill="none" stroke="midnightblue" d="M809.138,-130.267C794.984,-120.044 773.467,-104.504 757.081,-92.6699"/>
<polygon fill="midnightblue" stroke="midnightblue" points="758.741,-89.5513 748.585,-86.5337 754.643,-95.226 758.741,-89.5513"/>
</g>
<!-- Node23&#45;&gt;Node15 -->
<g id="edge60" class="edge"><title>Node23&#45;&gt;Node15</title>
<path fill="none" stroke="midnightblue" d="M820.202,-130.267C816.92,-120.991 812.088,-107.336 808.093,-96.0453"/>
<polygon fill="midnightblue" stroke="midnightblue" points="811.363,-94.7934 804.727,-86.5337 804.764,-97.1285 811.363,-94.7934"/>
</g>
<!-- Node24 -->
<g id="node53" class="node"><title>Node24</title>
<polygon fill="white" stroke="#bfbfbf" points="839,-65.5 839,-86.5 883,-86.5 883,-65.5 839,-65.5"/>
<text text-anchor="middle" x="861" y="-73.5" font-family="Helvetica,sans-Serif" font-size="10.00">cmath</text>
</g>
<!-- Node23&#45;&gt;Node24 -->
<g id="edge58" class="edge"><title>Node23&#45;&gt;Node24</title>
<path fill="none" stroke="midnightblue" d="M830.11,-130.267C835.498,-120.801 843.481,-106.777 849.981,-95.3571"/>
<polygon fill="midnightblue" stroke="midnightblue" points="853.099,-96.9558 855.004,-86.5337 847.015,-93.4929 853.099,-96.9558"/>
</g>
<!-- Node25 -->
<g id="node56" class="node"><title>Node25</title>
<polygon fill="white" stroke="#bfbfbf" points="975,-65.5 975,-86.5 1019,-86.5 1019,-65.5 975,-65.5"/>
<text text-anchor="middle" x="997" y="-73.5" font-family="Helvetica,sans-Serif" font-size="10.00">vector</text>
</g>
<!-- Node23&#45;&gt;Node25 -->
<g id="edge62" class="edge"><title>Node23&#45;&gt;Node25</title>
<path fill="none" stroke="midnightblue" d="M863.088,-130.431C892.079,-122.028 932.255,-109.185 966,-94 967.788,-93.1955 969.605,-92.3165 971.417,-91.3935"/>
<polygon fill="midnightblue" stroke="midnightblue" points="973.181,-94.4183 980.279,-86.5527 969.825,-88.2752 973.181,-94.4183"/>
</g>
</g>
</svg>
