<?xml version="1.0" encoding="UTF-8" standalone="no"?>
<!DOCTYPE svg PUBLIC "-//W3C//DTD SVG 1.1//EN"
 "http://www.w3.org/Graphics/SVG/1.1/DTD/svg11.dtd">
<!-- Generated by graphviz version 2.26.3 (20100126.1600)
 -->
<!-- Title: src/analysis/utils/uncertainties/FitterSergey.cc Pages: 1 -->
<svg width="3218pt" height="666pt"
 viewBox="0.00 0.00 3217.52 666.00" xmlns="http://www.w3.org/2000/svg" xmlns:xlink="http://www.w3.org/1999/xlink">
<g id="graph1" class="graph" transform="scale(1 1) rotate(0) translate(4 662)">
<title>src/analysis/utils/uncertainties/FitterSergey.cc</title>
<polygon fill="white" stroke="white" points="-4,5 -4,-662 3214.52,-662 3214.52,5 -4,5"/>
<!-- Node1 -->
<g id="node1" class="node"><title>Node1</title>
<polygon fill="#bfbfbf" stroke="black" points="1790.5,-623 1790.5,-657 1935.5,-657 1935.5,-623 1790.5,-623"/>
<text text-anchor="start" x="1798.5" y="-644" font-family="Helvetica,sans-Serif" font-size="10.00">src/analysis/utils</text>
<text text-anchor="middle" x="1863" y="-631" font-family="Helvetica,sans-Serif" font-size="10.00">/uncertainties/FitterSergey.cc</text>
</g>
<!-- Node2 -->
<g id="node3" class="node"><title>Node2</title>
<a xlink:href="_fitter_sergey_8h.html" target="_top" xlink:title="FitterSergey.h">
<polygon fill="white" stroke="black" points="1475,-564.5 1475,-585.5 1553,-585.5 1553,-564.5 1475,-564.5"/>
<text text-anchor="middle" x="1514" y="-572.5" font-family="Helvetica,sans-Serif" font-size="10.00">FitterSergey.h</text>
</a>
</g>
<!-- Node1&#45;&gt;Node2 -->
<g id="edge2" class="edge"><title>Node1&#45;&gt;Node2</title>
<path fill="none" stroke="midnightblue" d="M1790.26,-626.453C1722.09,-613.756 1622.07,-595.127 1562.93,-584.114"/>
<polygon fill="midnightblue" stroke="midnightblue" points="1563.57,-580.672 1553.1,-582.281 1562.29,-587.553 1563.57,-580.672"/>
</g>
<!-- Node38 -->
<g id="node112" class="node"><title>Node38</title>
<a xlink:href="_exp_config_8h.html" target="_top" xlink:title="expconfig/ExpConfig.h">
<polygon fill="white" stroke="black" points="1805,-448.5 1805,-469.5 1921,-469.5 1921,-448.5 1805,-448.5"/>
<text text-anchor="middle" x="1863" y="-456.5" font-family="Helvetica,sans-Serif" font-size="10.00">expconfig/ExpConfig.h</text>
</a>
</g>
<!-- Node1&#45;&gt;Node38 -->
<g id="edge148" class="edge"><title>Node1&#45;&gt;Node38</title>
<path fill="none" stroke="midnightblue" d="M1863,-622.972C1863,-589.779 1863,-516.504 1863,-480.216"/>
<polygon fill="midnightblue" stroke="midnightblue" points="1866.5,-479.832 1863,-469.832 1859.5,-479.832 1866.5,-479.832"/>
</g>
<!-- Node62 -->
<g id="node207" class="node"><title>Node62</title>
<a xlink:href="_c_b_8h.html" target="_top" xlink:title="expconfig/detectors/CB.h">
<polygon fill="white" stroke="black" points="2052,-564.5 2052,-585.5 2180,-585.5 2180,-564.5 2052,-564.5"/>
<text text-anchor="middle" x="2116" y="-572.5" font-family="Helvetica,sans-Serif" font-size="10.00">expconfig/detectors/CB.h</text>
</a>
</g>
<!-- Node1&#45;&gt;Node62 -->
<g id="edge290" class="edge"><title>Node1&#45;&gt;Node62</title>
<path fill="none" stroke="midnightblue" d="M1929.47,-622.922C1971.81,-612.046 2025.82,-598.169 2064.81,-588.151"/>
<polygon fill="midnightblue" stroke="midnightblue" points="2066.07,-591.44 2074.89,-585.562 2064.33,-584.661 2066.07,-591.44"/>
</g>
<!-- Node3 -->
<g id="node5" class="node"><title>Node3</title>
<a xlink:href="_uncertainties_8h.html" target="_top" xlink:title="analysis/utils/Uncertainties.h">
<polygon fill="white" stroke="black" points="1159.5,-448.5 1159.5,-469.5 1302.5,-469.5 1302.5,-448.5 1159.5,-448.5"/>
<text text-anchor="middle" x="1231" y="-456.5" font-family="Helvetica,sans-Serif" font-size="10.00">analysis/utils/Uncertainties.h</text>
</a>
</g>
<!-- Node2&#45;&gt;Node3 -->
<g id="edge4" class="edge"><title>Node2&#45;&gt;Node3</title>
<path fill="none" stroke="midnightblue" d="M1487.88,-564.295C1436.79,-543.352 1323.59,-496.953 1266.05,-473.367"/>
<polygon fill="midnightblue" stroke="midnightblue" points="1267.23,-470.066 1256.64,-469.512 1264.57,-476.543 1267.23,-470.066"/>
</g>
<!-- Node4 -->
<g id="node7" class="node"><title>Node4</title>
<a xlink:href="_t_particle_8h.html" target="_top" xlink:title="tree/TParticle.h">
<polygon fill="white" stroke="black" points="801.5,-390.5 801.5,-411.5 884.5,-411.5 884.5,-390.5 801.5,-390.5"/>
<text text-anchor="middle" x="843" y="-398.5" font-family="Helvetica,sans-Serif" font-size="10.00">tree/TParticle.h</text>
</a>
</g>
<!-- Node3&#45;&gt;Node4 -->
<g id="edge6" class="edge"><title>Node3&#45;&gt;Node4</title>
<path fill="none" stroke="midnightblue" d="M1160.74,-448.497C1084.09,-437.039 963.214,-418.97 894.767,-408.738"/>
<polygon fill="midnightblue" stroke="midnightblue" points="895.061,-405.244 884.654,-407.227 894.026,-412.167 895.061,-405.244"/>
</g>
<!-- Node7 -->
<g id="node13" class="node"><title>Node7</title>
<a xlink:href="_detector__t_8h.html" target="_top" xlink:title="base/Detector_t.h">
<polygon fill="white" stroke="black" points="1949.5,-181.5 1949.5,-202.5 2044.5,-202.5 2044.5,-181.5 1949.5,-181.5"/>
<text text-anchor="middle" x="1997" y="-189.5" font-family="Helvetica,sans-Serif" font-size="10.00">base/Detector_t.h</text>
</a>
</g>
<!-- Node3&#45;&gt;Node7 -->
<g id="edge146" class="edge"><title>Node3&#45;&gt;Node7</title>
<path fill="none" stroke="midnightblue" d="M1302.61,-453.735C1398.42,-444.376 1571.57,-419.238 1704,-354 1726.36,-342.985 1726.18,-331.7 1747,-318 1819.52,-270.29 1912.53,-227.825 1962.14,-206.507"/>
<polygon fill="midnightblue" stroke="midnightblue" points="1963.64,-209.672 1971.47,-202.53 1960.9,-203.233 1963.64,-209.672"/>
</g>
<!-- Node5 -->
<g id="node9" class="node"><title>Node5</title>
<a xlink:href="_t_candidate_8h.html" target="_top" xlink:title="tree/TCandidate.h">
<polygon fill="white" stroke="black" points="795.5,-325.5 795.5,-346.5 890.5,-346.5 890.5,-325.5 795.5,-325.5"/>
<text text-anchor="middle" x="843" y="-333.5" font-family="Helvetica,sans-Serif" font-size="10.00">tree/TCandidate.h</text>
</a>
</g>
<!-- Node4&#45;&gt;Node5 -->
<g id="edge8" class="edge"><title>Node4&#45;&gt;Node5</title>
<path fill="none" stroke="midnightblue" d="M843,-390.267C843,-381.18 843,-367.892 843,-356.74"/>
<polygon fill="midnightblue" stroke="midnightblue" points="846.5,-356.534 843,-346.534 839.5,-356.534 846.5,-356.534"/>
</g>
<!-- Node8 -->
<g id="node15" class="node"><title>Node8</title>
<a xlink:href="printable_8h.html" target="_top" xlink:title="base/printable.h">
<polygon fill="white" stroke="black" points="1566,-58.5 1566,-79.5 1652,-79.5 1652,-58.5 1566,-58.5"/>
<text text-anchor="middle" x="1609" y="-66.5" font-family="Helvetica,sans-Serif" font-size="10.00">base/printable.h</text>
</a>
</g>
<!-- Node4&#45;&gt;Node8 -->
<g id="edge88" class="edge"><title>Node4&#45;&gt;Node8</title>
<path fill="none" stroke="midnightblue" d="M884.899,-397.067C1022.83,-383.698 1461.27,-337.723 1591,-282 1615.18,-271.615 1615.58,-259.766 1638,-246 1669.51,-226.656 1693.31,-241.295 1713,-210 1765.32,-126.859 1604.51,-146.863 1598,-138 1587.73,-124.022 1592.36,-104.13 1598.46,-89.2926"/>
<polygon fill="midnightblue" stroke="midnightblue" points="1601.75,-90.5111 1602.75,-79.9631 1595.39,-87.5886 1601.75,-90.5111"/>
</g>
<!-- Node16 -->
<g id="node34" class="node"><title>Node16</title>
<polygon fill="white" stroke="#bfbfbf" points="683,-58.5 683,-79.5 727,-79.5 727,-58.5 683,-58.5"/>
<text text-anchor="middle" x="705" y="-66.5" font-family="Helvetica,sans-Serif" font-size="10.00">vector</text>
</g>
<!-- Node4&#45;&gt;Node16 -->
<g id="edge138" class="edge"><title>Node4&#45;&gt;Node16</title>
<path fill="none" stroke="midnightblue" d="M801.327,-400.381C661.71,-398 216.166,-387.801 162,-354 122.808,-329.544 110,-310.197 110,-264 110,-264 110,-264 110,-192 110,-146.078 138.808,-136.3 180,-116 224.143,-94.2458 564.79,-75.8654 672.479,-70.5491"/>
<polygon fill="midnightblue" stroke="midnightblue" points="672.911,-74.0322 682.728,-70.0479 672.569,-67.0405 672.911,-74.0322"/>
</g>
<!-- Node22 -->
<g id="node51" class="node"><title>Node22</title>
<polygon fill="white" stroke="#bfbfbf" points="1456,-116.5 1456,-137.5 1508,-137.5 1508,-116.5 1456,-116.5"/>
<text text-anchor="middle" x="1482" y="-124.5" font-family="Helvetica,sans-Serif" font-size="10.00">memory</text>
</g>
<!-- Node4&#45;&gt;Node22 -->
<g id="edge144" class="edge"><title>Node4&#45;&gt;Node22</title>
<path fill="none" stroke="midnightblue" d="M866.355,-390.378C952.946,-351.035 1255.71,-213.827 1354,-174 1384.8,-161.521 1420.3,-148.597 1446.1,-139.467"/>
<polygon fill="midnightblue" stroke="midnightblue" points="1447.55,-142.665 1455.82,-136.042 1445.23,-136.063 1447.55,-142.665"/>
</g>
<!-- Node26 -->
<g id="node71" class="node"><title>Node26</title>
<a xlink:href="types_8h.html" target="_top" xlink:title="base/types.h">
<polygon fill="white" stroke="black" points="877.5,-58.5 877.5,-79.5 950.5,-79.5 950.5,-58.5 877.5,-58.5"/>
<text text-anchor="middle" x="914" y="-66.5" font-family="Helvetica,sans-Serif" font-size="10.00">base/types.h</text>
</a>
</g>
<!-- Node4&#45;&gt;Node26 -->
<g id="edge90" class="edge"><title>Node4&#45;&gt;Node26</title>
<path fill="none" stroke="midnightblue" d="M801.265,-399.302C722.093,-395.484 544.955,-384.072 399,-354 282.928,-330.085 148,-382.51 148,-264 148,-264 148,-264 148,-192 148,-137.929 192.634,-135.671 243,-116 257.556,-110.315 717.141,-81.2622 867.152,-71.9067"/>
<polygon fill="midnightblue" stroke="midnightblue" points="867.645,-75.3829 877.408,-71.2677 867.21,-68.3964 867.645,-75.3829"/>
</g>
<!-- Node27 -->
<g id="node73" class="node"><title>Node27</title>
<a xlink:href="_particle_type_8h.html" target="_top" xlink:title="base/ParticleType.h">
<polygon fill="white" stroke="black" points="1046,-181.5 1046,-202.5 1150,-202.5 1150,-181.5 1046,-181.5"/>
<text text-anchor="middle" x="1098" y="-189.5" font-family="Helvetica,sans-Serif" font-size="10.00">base/ParticleType.h</text>
</a>
</g>
<!-- Node4&#45;&gt;Node27 -->
<g id="edge92" class="edge"><title>Node4&#45;&gt;Node27</title>
<path fill="none" stroke="midnightblue" d="M855.996,-390.348C897.347,-356.457 1026.13,-250.903 1077.01,-209.201"/>
<polygon fill="midnightblue" stroke="midnightblue" points="1079.51,-211.676 1085.03,-202.63 1075.08,-206.262 1079.51,-211.676"/>
</g>
<!-- Node32 -->
<g id="node92" class="node"><title>Node32</title>
<a xlink:href="_tree_8h.html" target="_top" xlink:title="base/Tree.h">
<polygon fill="white" stroke="black" points="504,-181.5 504,-202.5 572,-202.5 572,-181.5 504,-181.5"/>
<text text-anchor="middle" x="538" y="-189.5" font-family="Helvetica,sans-Serif" font-size="10.00">base/Tree.h</text>
</a>
</g>
<!-- Node4&#45;&gt;Node32 -->
<g id="edge120" class="edge"><title>Node4&#45;&gt;Node32</title>
<path fill="none" stroke="midnightblue" d="M801.34,-398.592C736.878,-394.031 617.13,-381.96 586,-354 545.218,-317.37 538.398,-247.893 537.689,-213.044"/>
<polygon fill="midnightblue" stroke="midnightblue" points="541.187,-212.634 537.642,-202.65 534.187,-212.666 541.187,-212.634"/>
</g>
<!-- Node34 -->
<g id="node97" class="node"><title>Node34</title>
<polygon fill="white" stroke="#bfbfbf" points="1639.5,-116.5 1639.5,-137.5 1668.5,-137.5 1668.5,-116.5 1639.5,-116.5"/>
<text text-anchor="middle" x="1654" y="-124.5" font-family="Helvetica,sans-Serif" font-size="10.00">list</text>
</g>
<!-- Node4&#45;&gt;Node34 -->
<g id="edge140" class="edge"><title>Node4&#45;&gt;Node34</title>
<path fill="none" stroke="midnightblue" d="M884.508,-399.98C1053.33,-394.805 1684.18,-365.183 1784,-210 1792.66,-196.543 1793.19,-187.097 1784,-174 1771.68,-156.451 1713.24,-140.505 1679.05,-132.472"/>
<polygon fill="midnightblue" stroke="midnightblue" points="1679.42,-128.966 1668.89,-130.15 1677.86,-135.79 1679.42,-128.966"/>
</g>
<!-- Node36 -->
<g id="node103" class="node"><title>Node36</title>
<a xlink:href="_lorentz_vec_8h.html" target="_top" xlink:title="base/vec/LorentzVec.h">
<polygon fill="white" stroke="black" points="175.5,-253.5 175.5,-274.5 292.5,-274.5 292.5,-253.5 175.5,-253.5"/>
<text text-anchor="middle" x="234" y="-261.5" font-family="Helvetica,sans-Serif" font-size="10.00">base/vec/LorentzVec.h</text>
</a>
</g>
<!-- Node4&#45;&gt;Node36 -->
<g id="edge134" class="edge"><title>Node4&#45;&gt;Node36</title>
<path fill="none" stroke="midnightblue" d="M801.448,-396.481C742.117,-389.612 629.91,-375.077 536,-354 440.824,-332.639 331.732,-297.377 274.275,-277.938"/>
<polygon fill="midnightblue" stroke="midnightblue" points="275.093,-274.519 264.498,-274.614 272.839,-281.147 275.093,-274.519"/>
</g>
<!-- Node37 -->
<g id="node108" class="node"><title>Node37</title>
<polygon fill="white" stroke="#bfbfbf" points="28,-325.5 28,-346.5 82,-346.5 82,-325.5 28,-325.5"/>
<text text-anchor="middle" x="55" y="-333.5" font-family="Helvetica,sans-Serif" font-size="10.00">iostream</text>
</g>
<!-- Node4&#45;&gt;Node37 -->
<g id="edge142" class="edge"><title>Node4&#45;&gt;Node37</title>
<path fill="none" stroke="midnightblue" d="M801.149,-400.288C664.348,-397.661 231.428,-386.892 96,-354 92.3079,-353.103 88.5311,-351.893 84.8366,-350.521"/>
<polygon fill="midnightblue" stroke="midnightblue" points="85.943,-347.192 75.3637,-346.619 83.2765,-353.664 85.943,-347.192"/>
</g>
<!-- Node6 -->
<g id="node11" class="node"><title>Node6</title>
<a xlink:href="_t_cluster_8h.html" target="_top" xlink:title="TCluster.h">
<polygon fill="white" stroke="black" points="737,-253.5 737,-274.5 799,-274.5 799,-253.5 737,-253.5"/>
<text text-anchor="middle" x="768" y="-261.5" font-family="Helvetica,sans-Serif" font-size="10.00">TCluster.h</text>
</a>
</g>
<!-- Node5&#45;&gt;Node6 -->
<g id="edge10" class="edge"><title>Node5&#45;&gt;Node6</title>
<path fill="none" stroke="midnightblue" d="M831.933,-325.376C819.969,-313.89 800.701,-295.393 786.441,-281.703"/>
<polygon fill="midnightblue" stroke="midnightblue" points="788.75,-279.068 779.112,-274.667 783.902,-284.118 788.75,-279.068"/>
</g>
<!-- Node5&#45;&gt;Node7 -->
<g id="edge76" class="edge"><title>Node5&#45;&gt;Node7</title>
<path fill="none" stroke="midnightblue" d="M890.518,-334.975C1009.24,-331.893 1328.19,-320.406 1591,-282 1721.76,-262.892 1873.08,-225.101 1948.72,-205.11"/>
<polygon fill="midnightblue" stroke="midnightblue" points="1949.67,-208.478 1958.44,-202.528 1947.88,-201.712 1949.67,-208.478"/>
</g>
<!-- Node5&#45;&gt;Node16 -->
<g id="edge78" class="edge"><title>Node5&#45;&gt;Node16</title>
<path fill="none" stroke="midnightblue" d="M795.037,-328.044C663.783,-305.142 304.394,-234.476 243,-138 237.751,-129.751 236.445,-123.255 243,-116 271.778,-84.1453 572.469,-72.7625 672.696,-69.8368"/>
<polygon fill="midnightblue" stroke="midnightblue" points="672.933,-73.3315 682.83,-69.55 672.735,-66.3343 672.933,-73.3315"/>
</g>
<!-- Node17 -->
<g id="node36" class="node"><title>Node17</title>
<polygon fill="white" stroke="#bfbfbf" points="1069,-58.5 1069,-79.5 1125,-79.5 1125,-58.5 1069,-58.5"/>
<text text-anchor="middle" x="1097" y="-66.5" font-family="Helvetica,sans-Serif" font-size="10.00">algorithm</text>
</g>
<!-- Node5&#45;&gt;Node17 -->
<g id="edge86" class="edge"><title>Node5&#45;&gt;Node17</title>
<path fill="none" stroke="midnightblue" d="M795.345,-326.17C770.877,-318.481 743.105,-305.065 728,-282 701.699,-241.837 697.217,-212.423 726,-174 766.397,-120.072 972.689,-86.0279 1058.98,-73.9442"/>
<polygon fill="midnightblue" stroke="midnightblue" points="1059.46,-77.4113 1068.89,-72.5796 1058.5,-70.4767 1059.46,-77.4113"/>
</g>
<!-- Node5&#45;&gt;Node22 -->
<g id="edge84" class="edge"><title>Node5&#45;&gt;Node22</title>
<path fill="none" stroke="midnightblue" d="M890.63,-330.905C965.813,-322.334 1108.17,-303.815 1154,-282 1219.99,-250.591 1212.72,-206.858 1278,-174 1344.66,-140.449 1369.55,-155.9 1442,-138 1443.26,-137.689 1444.54,-137.367 1445.83,-137.038"/>
<polygon fill="midnightblue" stroke="midnightblue" points="1447.02,-140.344 1455.8,-134.415 1445.24,-133.574 1447.02,-140.344"/>
</g>
<!-- Node24 -->
<g id="node59" class="node"><title>Node24</title>
<polygon fill="white" stroke="#bfbfbf" points="818,-181.5 818,-202.5 868,-202.5 868,-181.5 818,-181.5"/>
<text text-anchor="middle" x="843" y="-189.5" font-family="Helvetica,sans-Serif" font-size="10.00">iomanip</text>
</g>
<!-- Node5&#45;&gt;Node24 -->
<g id="edge80" class="edge"><title>Node5&#45;&gt;Node24</title>
<path fill="none" stroke="midnightblue" d="M843,-325.177C843,-301.292 843,-243.736 843,-212.686"/>
<polygon fill="midnightblue" stroke="midnightblue" points="846.5,-212.558 843,-202.558 839.5,-212.558 846.5,-212.558"/>
</g>
<!-- Node25 -->
<g id="node61" class="node"><title>Node25</title>
<polygon fill="white" stroke="#bfbfbf" points="1964,-58.5 1964,-79.5 2016,-79.5 2016,-58.5 1964,-58.5"/>
<text text-anchor="middle" x="1990" y="-66.5" font-family="Helvetica,sans-Serif" font-size="10.00">sstream</text>
</g>
<!-- Node5&#45;&gt;Node25 -->
<g id="edge82" class="edge"><title>Node5&#45;&gt;Node25</title>
<path fill="none" stroke="midnightblue" d="M872.12,-325.39C928.266,-304.714 1055.12,-256.931 1159,-210 1191.24,-195.433 1196.95,-186.636 1230,-174 1235.83,-171.772 1440.85,-117.079 1447,-116 1544.99,-98.8003 1848.36,-78.1455 1953.6,-71.3162"/>
<polygon fill="midnightblue" stroke="midnightblue" points="1953.97,-74.7996 1963.73,-70.6622 1953.52,-67.8141 1953.97,-74.7996"/>
</g>
<!-- Node6&#45;&gt;Node7 -->
<g id="edge12" class="edge"><title>Node6&#45;&gt;Node7</title>
<path fill="none" stroke="midnightblue" d="M799.003,-262.299C917.583,-255.776 1353.77,-231.648 1713,-210 1791.23,-205.286 1881.55,-199.503 1938.95,-195.785"/>
<polygon fill="midnightblue" stroke="midnightblue" points="1939.52,-199.256 1949.27,-195.116 1939.06,-192.271 1939.52,-199.256"/>
</g>
<!-- Node11 -->
<g id="node21" class="node"><title>Node11</title>
<a xlink:href="vec3_8h.html" target="_top" xlink:title="base/vec/vec3.h">
<polygon fill="white" stroke="black" points="251.5,-116.5 251.5,-137.5 340.5,-137.5 340.5,-116.5 251.5,-116.5"/>
<text text-anchor="middle" x="296" y="-124.5" font-family="Helvetica,sans-Serif" font-size="10.00">base/vec/vec3.h</text>
</a>
</g>
<!-- Node6&#45;&gt;Node11 -->
<g id="edge64" class="edge"><title>Node6&#45;&gt;Node11</title>
<path fill="none" stroke="midnightblue" d="M736.562,-258.598C674.877,-247.863 540.068,-223.705 495,-210 433.425,-191.275 364.799,-160.265 326.367,-141.916"/>
<polygon fill="midnightblue" stroke="midnightblue" points="327.798,-138.721 317.269,-137.54 324.763,-145.029 327.798,-138.721"/>
</g>
<!-- Node13 -->
<g id="node26" class="node"><title>Node13</title>
<polygon fill="white" stroke="#bfbfbf" points="325,-0.5 325,-21.5 369,-21.5 369,-0.5 325,-0.5"/>
<text text-anchor="middle" x="347" y="-8.5" font-family="Helvetica,sans-Serif" font-size="10.00">cmath</text>
</g>
<!-- Node6&#45;&gt;Node13 -->
<g id="edge68" class="edge"><title>Node6&#45;&gt;Node13</title>
<path fill="none" stroke="midnightblue" d="M736.809,-261.935C632.183,-254.247 297.224,-223.209 243,-138 215.463,-94.7277 278.051,-49.5272 317.65,-26.4983"/>
<polygon fill="midnightblue" stroke="midnightblue" points="319.45,-29.5011 326.431,-21.5318 316.004,-23.408 319.45,-29.5011"/>
</g>
<!-- Node14 -->
<g id="node29" class="node"><title>Node14</title>
<a xlink:href="math_8h.html" target="_top" xlink:title="base/std_ext/math.h">
<polygon fill="white" stroke="black" points="1044,-116.5 1044,-137.5 1150,-137.5 1150,-116.5 1044,-116.5"/>
<text text-anchor="middle" x="1097" y="-124.5" font-family="Helvetica,sans-Serif" font-size="10.00">base/std_ext/math.h</text>
</a>
</g>
<!-- Node6&#45;&gt;Node14 -->
<g id="edge52" class="edge"><title>Node6&#45;&gt;Node14</title>
<path fill="none" stroke="midnightblue" d="M758.451,-253.249C743.329,-234.901 717.576,-197.273 738,-174 742.842,-168.483 931.832,-145.985 1033.6,-134.231"/>
<polygon fill="midnightblue" stroke="midnightblue" points="1034.23,-137.681 1043.77,-133.059 1033.43,-130.727 1034.23,-137.681"/>
</g>
<!-- Node6&#45;&gt;Node16 -->
<g id="edge66" class="edge"><title>Node6&#45;&gt;Node16</title>
<path fill="none" stroke="midnightblue" d="M756.738,-253.122C746.934,-242.941 733.197,-226.815 726,-210 708.881,-170.006 705.37,-118.456 704.851,-90.0768"/>
<polygon fill="midnightblue" stroke="midnightblue" points="708.349,-89.7322 704.779,-79.7569 701.349,-89.7811 708.349,-89.7322"/>
</g>
<!-- Node21 -->
<g id="node48" class="node"><title>Node21</title>
<a xlink:href="shared__ptr__container_8h.html" target="_top" xlink:title="base/std_ext/shared\l_ptr_container.h">
<polygon fill="white" stroke="black" points="923.5,-175 923.5,-209 1028.5,-209 1028.5,-175 923.5,-175"/>
<text text-anchor="start" x="931.5" y="-196" font-family="Helvetica,sans-Serif" font-size="10.00">base/std_ext/shared</text>
<text text-anchor="middle" x="976" y="-183" font-family="Helvetica,sans-Serif" font-size="10.00">_ptr_container.h</text>
</a>
</g>
<!-- Node6&#45;&gt;Node21 -->
<g id="edge54" class="edge"><title>Node6&#45;&gt;Node21</title>
<path fill="none" stroke="midnightblue" d="M798.691,-253.376C829.736,-242.63 878.512,-225.746 917.055,-212.404"/>
<polygon fill="midnightblue" stroke="midnightblue" points="918.311,-215.673 926.616,-209.094 916.021,-209.058 918.311,-215.673"/>
</g>
<!-- Node6&#45;&gt;Node22 -->
<g id="edge74" class="edge"><title>Node6&#45;&gt;Node22</title>
<path fill="none" stroke="midnightblue" d="M769.318,-253.448C772.37,-233.986 781.865,-192.721 809,-174 860.047,-138.781 1304.18,-142.928 1366,-138 1392.76,-135.867 1422.94,-132.991 1445.81,-130.714"/>
<polygon fill="midnightblue" stroke="midnightblue" points="1446.16,-134.196 1455.76,-129.715 1445.46,-127.231 1446.16,-134.196"/>
</g>
<!-- Node6&#45;&gt;Node24 -->
<g id="edge70" class="edge"><title>Node6&#45;&gt;Node24</title>
<path fill="none" stroke="midnightblue" d="M779.067,-253.376C791.031,-241.89 810.299,-223.393 824.559,-209.703"/>
<polygon fill="midnightblue" stroke="midnightblue" points="827.098,-212.118 831.888,-202.667 822.25,-207.068 827.098,-212.118"/>
</g>
<!-- Node6&#45;&gt;Node25 -->
<g id="edge72" class="edge"><title>Node6&#45;&gt;Node25</title>
<path fill="none" stroke="midnightblue" d="M765.206,-253.271C760.976,-234.262 755.537,-194.724 777,-174 821.535,-130.998 1274.36,-157.846 1333,-138 1349.7,-132.349 1349.33,-121.738 1366,-116 1393.91,-106.389 1824.38,-79.2094 1953.6,-71.2291"/>
<polygon fill="midnightblue" stroke="midnightblue" points="1954,-74.7111 1963.77,-70.6024 1953.57,-67.7243 1954,-74.7111"/>
</g>
<!-- Node7&#45;&gt;Node8 -->
<g id="edge14" class="edge"><title>Node7&#45;&gt;Node8</title>
<path fill="none" stroke="midnightblue" d="M1962.93,-181.435C1954.19,-178.866 1944.78,-176.221 1936,-174 1861.13,-155.057 1839.52,-161.662 1766,-138 1720.02,-123.203 1669.27,-99.4528 1638.26,-84.0377"/>
<polygon fill="midnightblue" stroke="midnightblue" points="1639.81,-80.8965 1629.3,-79.5405 1636.67,-87.1532 1639.81,-80.8965"/>
</g>
<!-- Node9 -->
<g id="node17" class="node"><title>Node9</title>
<polygon fill="white" stroke="#bfbfbf" points="1678,-0.5 1678,-21.5 1740,-21.5 1740,-0.5 1678,-0.5"/>
<text text-anchor="middle" x="1709" y="-8.5" font-family="Helvetica,sans-Serif" font-size="10.00">type_traits</text>
</g>
<!-- Node7&#45;&gt;Node9 -->
<g id="edge48" class="edge"><title>Node7&#45;&gt;Node9</title>
<path fill="none" stroke="midnightblue" d="M1963.88,-181.413C1936.78,-172.018 1898,-156.87 1867,-138 1819.85,-109.299 1815.25,-92.2961 1772,-58 1758.92,-47.6298 1743.96,-36.44 1731.9,-27.5811"/>
<polygon fill="midnightblue" stroke="midnightblue" points="1733.84,-24.6623 1723.7,-21.5874 1729.71,-30.3138 1733.84,-24.6623"/>
</g>
<!-- Node7&#45;&gt;Node11 -->
<g id="edge20" class="edge"><title>Node7&#45;&gt;Node11</title>
<path fill="none" stroke="midnightblue" d="M1949.29,-188.437C1892.89,-184.349 1796.16,-177.732 1713,-174 1110.58,-146.969 953.156,-207.213 350.972,-138.052"/>
<polygon fill="midnightblue" stroke="midnightblue" points="351.064,-134.539 340.728,-136.868 350.26,-141.493 351.064,-134.539"/>
</g>
<!-- Node7&#45;&gt;Node14 -->
<g id="edge30" class="edge"><title>Node7&#45;&gt;Node14</title>
<path fill="none" stroke="midnightblue" d="M1949.29,-188.765C1829.27,-180.597 1505.12,-158.336 1235,-138 1210.57,-136.161 1183.72,-134.043 1160.25,-132.159"/>
<polygon fill="midnightblue" stroke="midnightblue" points="1160.32,-128.654 1150.07,-131.34 1159.76,-135.631 1160.32,-128.654"/>
</g>
<!-- Node7&#45;&gt;Node16 -->
<g id="edge50" class="edge"><title>Node7&#45;&gt;Node16</title>
<path fill="none" stroke="midnightblue" d="M1949.27,-188.825C1892.85,-185.107 1796.11,-178.84 1713,-174 1562.38,-165.228 1179.63,-180.988 1035,-138 1016.29,-132.44 1015.38,-122.548 997,-116 906.533,-83.7752 792.396,-73.5498 737.463,-70.3791"/>
<polygon fill="midnightblue" stroke="midnightblue" points="737.463,-66.8742 727.29,-69.8346 737.089,-73.8642 737.463,-66.8742"/>
</g>
<!-- Node18 -->
<g id="node38" class="node"><title>Node18</title>
<polygon fill="white" stroke="#bfbfbf" points="1704.5,-58.5 1704.5,-79.5 1763.5,-79.5 1763.5,-58.5 1704.5,-58.5"/>
<text text-anchor="middle" x="1734" y="-66.5" font-family="Helvetica,sans-Serif" font-size="10.00">stdexcept</text>
</g>
<!-- Node7&#45;&gt;Node18 -->
<g id="edge44" class="edge"><title>Node7&#45;&gt;Node18</title>
<path fill="none" stroke="midnightblue" d="M1961.9,-181.413C1953.44,-178.924 1944.41,-176.321 1936,-174 1874.07,-156.906 1850.93,-171.319 1796,-138 1775.28,-125.433 1757.5,-103.801 1746.36,-88.1023"/>
<polygon fill="midnightblue" stroke="midnightblue" points="1749.12,-85.9445 1740.6,-79.6581 1743.34,-89.8907 1749.12,-85.9445"/>
</g>
<!-- Node19 -->
<g id="node40" class="node"><title>Node19</title>
<polygon fill="white" stroke="#bfbfbf" points="1998,-116.5 1998,-137.5 2044,-137.5 2044,-116.5 1998,-116.5"/>
<text text-anchor="middle" x="2021" y="-124.5" font-family="Helvetica,sans-Serif" font-size="10.00">cstdint</text>
</g>
<!-- Node7&#45;&gt;Node19 -->
<g id="edge42" class="edge"><title>Node7&#45;&gt;Node19</title>
<path fill="none" stroke="midnightblue" d="M2000.96,-181.267C2004.39,-171.991 2009.43,-158.336 2013.6,-147.045"/>
<polygon fill="midnightblue" stroke="midnightblue" points="2016.93,-148.127 2017.11,-137.534 2010.36,-145.702 2016.93,-148.127"/>
</g>
<!-- Node20 -->
<g id="node43" class="node"><title>Node20</title>
<polygon fill="white" stroke="#bfbfbf" points="2895.5,-58.5 2895.5,-79.5 2936.5,-79.5 2936.5,-58.5 2895.5,-58.5"/>
<text text-anchor="middle" x="2916" y="-66.5" font-family="Helvetica,sans-Serif" font-size="10.00">string</text>
</g>
<!-- Node7&#45;&gt;Node20 -->
<g id="edge46" class="edge"><title>Node7&#45;&gt;Node20</title>
<path fill="none" stroke="midnightblue" d="M2044.65,-187.115C2131.45,-177.891 2311.9,-157.115 2372,-138 2392.46,-131.493 2394.39,-121.999 2415,-116 2504.15,-90.0539 2790.65,-74.7921 2885.32,-70.3595"/>
<polygon fill="midnightblue" stroke="midnightblue" points="2885.56,-73.8522 2895.39,-69.8953 2885.23,-66.8597 2885.56,-73.8522"/>
</g>
<!-- Node8&#45;&gt;Node9 -->
<g id="edge16" class="edge"><title>Node8&#45;&gt;Node9</title>
<path fill="none" stroke="midnightblue" d="M1627.34,-58.3619C1642.57,-49.532 1664.44,-36.844 1681.72,-26.8224"/>
<polygon fill="midnightblue" stroke="midnightblue" points="1683.88,-29.6155 1690.77,-21.5707 1680.37,-23.5603 1683.88,-29.6155"/>
</g>
<!-- Node10 -->
<g id="node19" class="node"><title>Node10</title>
<polygon fill="white" stroke="#bfbfbf" points="1367,-0.5 1367,-21.5 1419,-21.5 1419,-0.5 1367,-0.5"/>
<text text-anchor="middle" x="1393" y="-8.5" font-family="Helvetica,sans-Serif" font-size="10.00">ostream</text>
</g>
<!-- Node8&#45;&gt;Node10 -->
<g id="edge18" class="edge"><title>Node8&#45;&gt;Node10</title>
<path fill="none" stroke="midnightblue" d="M1569.88,-58.4966C1529.82,-47.7386 1468.05,-31.1521 1429.11,-20.6971"/>
<polygon fill="midnightblue" stroke="midnightblue" points="1429.82,-17.2628 1419.25,-18.0497 1428,-24.0233 1429.82,-17.2628"/>
</g>
<!-- Node11&#45;&gt;Node8 -->
<g id="edge22" class="edge"><title>Node11&#45;&gt;Node8</title>
<path fill="none" stroke="midnightblue" d="M340.732,-117.166C343.522,-116.724 346.295,-116.328 349,-116 778.144,-63.8922 889.009,-96.2496 1321,-80 1402.84,-76.9216 1497.75,-73.2831 1555.57,-71.0591"/>
<polygon fill="midnightblue" stroke="midnightblue" points="1555.72,-74.5562 1565.58,-70.6742 1555.45,-67.5614 1555.72,-74.5562"/>
</g>
<!-- Node12 -->
<g id="node24" class="node"><title>Node12</title>
<a xlink:href="vec2_8h.html" target="_top" xlink:title="vec2.h">
<polygon fill="white" stroke="black" points="324,-58.5 324,-79.5 370,-79.5 370,-58.5 324,-58.5"/>
<text text-anchor="middle" x="347" y="-66.5" font-family="Helvetica,sans-Serif" font-size="10.00">vec2.h</text>
</a>
</g>
<!-- Node11&#45;&gt;Node12 -->
<g id="edge24" class="edge"><title>Node11&#45;&gt;Node12</title>
<path fill="none" stroke="midnightblue" d="M305.354,-116.362C312.543,-108.186 322.641,-96.7025 331.093,-87.0907"/>
<polygon fill="midnightblue" stroke="midnightblue" points="333.73,-89.3916 337.705,-79.5707 328.473,-84.7692 333.73,-89.3916"/>
</g>
<!-- Node11&#45;&gt;Node13 -->
<g id="edge28" class="edge"><title>Node11&#45;&gt;Node13</title>
<path fill="none" stroke="midnightblue" d="M297.806,-116.337C300.408,-102.447 305.924,-77.6222 315,-58 319.565,-48.1306 326.126,-38.0524 332.121,-29.7725"/>
<polygon fill="midnightblue" stroke="midnightblue" points="335.063,-31.683 338.282,-21.5887 329.471,-27.4729 335.063,-31.683"/>
</g>
<!-- Node12&#45;&gt;Node13 -->
<g id="edge26" class="edge"><title>Node12&#45;&gt;Node13</title>
<path fill="none" stroke="midnightblue" d="M347,-58.3619C347,-50.9219 347,-40.7427 347,-31.7276"/>
<polygon fill="midnightblue" stroke="midnightblue" points="350.5,-31.5706 347,-21.5707 343.5,-31.5707 350.5,-31.5706"/>
</g>
<!-- Node14&#45;&gt;Node13 -->
<g id="edge32" class="edge"><title>Node14&#45;&gt;Node13</title>
<path fill="none" stroke="midnightblue" d="M1080.85,-116.298C1055.91,-100.396 1005.98,-71.0103 959,-58 848.182,-27.3126 489.269,-14.9633 379.316,-11.8423"/>
<polygon fill="midnightblue" stroke="midnightblue" points="379.272,-8.33984 369.178,-11.5609 379.077,-15.3371 379.272,-8.33984"/>
</g>
<!-- Node15 -->
<g id="node32" class="node"><title>Node15</title>
<polygon fill="white" stroke="#bfbfbf" points="1206,-58.5 1206,-79.5 1246,-79.5 1246,-58.5 1206,-58.5"/>
<text text-anchor="middle" x="1226" y="-66.5" font-family="Helvetica,sans-Serif" font-size="10.00">limits</text>
</g>
<!-- Node14&#45;&gt;Node15 -->
<g id="edge34" class="edge"><title>Node14&#45;&gt;Node15</title>
<path fill="none" stroke="midnightblue" d="M1120.36,-116.497C1141.71,-106.899 1173.37,-92.6628 1196.46,-82.2797"/>
<polygon fill="midnightblue" stroke="midnightblue" points="1198.1,-85.3833 1205.78,-78.0904 1195.23,-78.999 1198.1,-85.3833"/>
</g>
<!-- Node14&#45;&gt;Node16 -->
<g id="edge36" class="edge"><title>Node14&#45;&gt;Node16</title>
<path fill="none" stroke="midnightblue" d="M1043.98,-118.2C1039.26,-117.444 1034.54,-116.701 1030,-116 922.856,-99.4588 795.558,-81.5578 737.17,-73.4446"/>
<polygon fill="midnightblue" stroke="midnightblue" points="737.476,-69.9536 727.089,-72.0461 736.514,-76.8872 737.476,-69.9536"/>
</g>
<!-- Node14&#45;&gt;Node17 -->
<g id="edge38" class="edge"><title>Node14&#45;&gt;Node17</title>
<path fill="none" stroke="midnightblue" d="M1097,-116.362C1097,-108.922 1097,-98.7427 1097,-89.7276"/>
<polygon fill="midnightblue" stroke="midnightblue" points="1100.5,-89.5706 1097,-79.5707 1093.5,-89.5707 1100.5,-89.5706"/>
</g>
<!-- Node14&#45;&gt;Node18 -->
<g id="edge40" class="edge"><title>Node14&#45;&gt;Node18</title>
<path fill="none" stroke="midnightblue" d="M1150.23,-122.767C1281.02,-112.338 1611.11,-85.8315 1661,-80 1671.8,-78.7372 1683.47,-77.1026 1694.24,-75.4815"/>
<polygon fill="midnightblue" stroke="midnightblue" points="1694.87,-78.9245 1704.23,-73.9441 1693.81,-72.006 1694.87,-78.9245"/>
</g>
<!-- Node21&#45;&gt;Node16 -->
<g id="edge56" class="edge"><title>Node21&#45;&gt;Node16</title>
<path fill="none" stroke="midnightblue" d="M923.345,-175.947C893.642,-166.237 856.15,-152.878 824,-138 790.134,-122.328 753.275,-100.081 729.694,-85.1241"/>
<polygon fill="midnightblue" stroke="midnightblue" points="731.352,-82.03 721.043,-79.5856 727.578,-87.9252 731.352,-82.03"/>
</g>
<!-- Node21&#45;&gt;Node17 -->
<g id="edge62" class="edge"><title>Node21&#45;&gt;Node17</title>
<path fill="none" stroke="midnightblue" d="M954.926,-174.915C937.847,-158.977 918.766,-134.886 933,-116 948.142,-95.9091 1015.41,-81.7857 1058.95,-74.5571"/>
<polygon fill="midnightblue" stroke="midnightblue" points="1059.61,-77.9962 1068.93,-72.952 1058.5,-71.0851 1059.61,-77.9962"/>
</g>
<!-- Node21&#45;&gt;Node22 -->
<g id="edge58" class="edge"><title>Node21&#45;&gt;Node22</title>
<path fill="none" stroke="midnightblue" d="M1028.75,-175.771C1031.53,-175.124 1034.29,-174.528 1037,-174 1197.87,-142.668 1241.26,-157.448 1404,-138 1417.61,-136.374 1432.51,-134.335 1445.62,-132.456"/>
<polygon fill="midnightblue" stroke="midnightblue" points="1446.29,-135.896 1455.68,-130.995 1445.28,-128.969 1446.29,-135.896"/>
</g>
<!-- Node23 -->
<g id="node53" class="node"><title>Node23</title>
<polygon fill="white" stroke="#bfbfbf" points="2570.5,-58.5 2570.5,-79.5 2629.5,-79.5 2629.5,-58.5 2570.5,-58.5"/>
<text text-anchor="middle" x="2600" y="-66.5" font-family="Helvetica,sans-Serif" font-size="10.00">functional</text>
</g>
<!-- Node21&#45;&gt;Node23 -->
<g id="edge60" class="edge"><title>Node21&#45;&gt;Node23</title>
<path fill="none" stroke="midnightblue" d="M1028.76,-175.808C1031.53,-175.151 1034.29,-174.543 1037,-174 1181.22,-145.07 1221.47,-165.361 1366,-138 1402.65,-131.061 1410.13,-121.684 1447,-116 1461.06,-113.832 2359.18,-78.4589 2560.33,-70.5571"/>
<polygon fill="midnightblue" stroke="midnightblue" points="2560.59,-74.0496 2570.44,-70.1597 2560.31,-67.055 2560.59,-74.0496"/>
</g>
<!-- Node27&#45;&gt;Node10 -->
<g id="edge112" class="edge"><title>Node27&#45;&gt;Node10</title>
<path fill="none" stroke="midnightblue" d="M1113.1,-181.404C1126.49,-171.413 1145.91,-155.408 1159,-138 1182.66,-106.541 1166.43,-82.7924 1197,-58 1221.3,-38.2983 1307.25,-23.1919 1356.89,-15.8712"/>
<polygon fill="midnightblue" stroke="midnightblue" points="1357.5,-19.3198 1366.9,-14.4284 1356.5,-12.3914 1357.5,-19.3198"/>
</g>
<!-- Node27&#45;&gt;Node16 -->
<g id="edge118" class="edge"><title>Node27&#45;&gt;Node16</title>
<path fill="none" stroke="midnightblue" d="M1062.33,-181.474C1013.45,-167.042 930.08,-142.39 916,-138 852.096,-118.075 777.784,-93.4268 736.599,-79.635"/>
<polygon fill="midnightblue" stroke="midnightblue" points="737.706,-76.3146 727.112,-76.4537 735.48,-82.9514 737.706,-76.3146"/>
</g>
<!-- Node27&#45;&gt;Node20 -->
<g id="edge110" class="edge"><title>Node27&#45;&gt;Node20</title>
<path fill="none" stroke="midnightblue" d="M1150.26,-189.915C1384.22,-180.558 2324.64,-142.69 2339,-138 2355.76,-132.526 2355.36,-121.83 2372,-116 2467.92,-82.3834 2784.84,-72.1069 2885.22,-69.6561"/>
<polygon fill="midnightblue" stroke="midnightblue" points="2885.4,-73.153 2895.31,-69.4186 2885.23,-66.155 2885.4,-73.153"/>
</g>
<!-- Node27&#45;&gt;Node26 -->
<g id="edge94" class="edge"><title>Node27&#45;&gt;Node26</title>
<path fill="none" stroke="midnightblue" d="M1063.07,-181.488C1016.03,-167.201 937.641,-142.867 933,-138 920.65,-125.048 916.182,-104.827 914.637,-89.617"/>
<polygon fill="midnightblue" stroke="midnightblue" points="918.126,-89.3433 913.957,-79.6033 911.143,-89.8174 918.126,-89.3433"/>
</g>
<!-- Node28 -->
<g id="node76" class="node"><title>Node28</title>
<a xlink:href="interval_8h.html" target="_top" xlink:title="base/interval.h">
<polygon fill="white" stroke="black" points="1244,-116.5 1244,-137.5 1324,-137.5 1324,-116.5 1244,-116.5"/>
<text text-anchor="middle" x="1284" y="-124.5" font-family="Helvetica,sans-Serif" font-size="10.00">base/interval.h</text>
</a>
</g>
<!-- Node27&#45;&gt;Node28 -->
<g id="edge96" class="edge"><title>Node27&#45;&gt;Node28</title>
<path fill="none" stroke="midnightblue" d="M1128.3,-181.412C1159.78,-170.411 1209.2,-153.14 1243.9,-141.013"/>
<polygon fill="midnightblue" stroke="midnightblue" points="1245.43,-144.187 1253.71,-137.584 1243.12,-137.578 1245.43,-144.187"/>
</g>
<!-- Node30 -->
<g id="node87" class="node"><title>Node30</title>
<polygon fill="white" stroke="#bfbfbf" points="3143.5,-116.5 3143.5,-137.5 3178.5,-137.5 3178.5,-116.5 3143.5,-116.5"/>
<text text-anchor="middle" x="3161" y="-124.5" font-family="Helvetica,sans-Serif" font-size="10.00">map</text>
</g>
<!-- Node27&#45;&gt;Node30 -->
<g id="edge114" class="edge"><title>Node27&#45;&gt;Node30</title>
<path fill="none" stroke="midnightblue" d="M1150.09,-189.838C1238.06,-186.234 1421.67,-178.907 1577,-174 2201.78,-154.263 2358.5,-165.282 2983,-138 3036.03,-135.683 3097.87,-131.536 3132.93,-129.049"/>
<polygon fill="midnightblue" stroke="midnightblue" points="3133.6,-132.51 3143.33,-128.304 3133.1,-125.528 3133.6,-132.51"/>
</g>
<!-- Node31 -->
<g id="node89" class="node"><title>Node31</title>
<polygon fill="white" stroke="#bfbfbf" points="941.5,-116.5 941.5,-137.5 988.5,-137.5 988.5,-116.5 941.5,-116.5"/>
<text text-anchor="middle" x="965" y="-124.5" font-family="Helvetica,sans-Serif" font-size="10.00">iterator</text>
</g>
<!-- Node27&#45;&gt;Node31 -->
<g id="edge116" class="edge"><title>Node27&#45;&gt;Node31</title>
<path fill="none" stroke="midnightblue" d="M1076.34,-181.412C1054.5,-170.741 1020.6,-154.172 995.937,-142.12"/>
<polygon fill="midnightblue" stroke="midnightblue" points="997.177,-138.83 986.655,-137.584 994.103,-145.119 997.177,-138.83"/>
</g>
<!-- Node28&#45;&gt;Node8 -->
<g id="edge98" class="edge"><title>Node28&#45;&gt;Node8</title>
<path fill="none" stroke="midnightblue" d="M1324.08,-118.7C1328.77,-117.769 1333.49,-116.851 1338,-116 1413.38,-101.788 1500.87,-86.9051 1555.59,-77.7894"/>
<polygon fill="midnightblue" stroke="midnightblue" points="1556.46,-81.1931 1565.75,-76.1005 1555.31,-74.2879 1556.46,-81.1931"/>
</g>
<!-- Node28&#45;&gt;Node15 -->
<g id="edge106" class="edge"><title>Node28&#45;&gt;Node15</title>
<path fill="none" stroke="midnightblue" d="M1273.36,-116.362C1265.1,-108.104 1253.47,-96.4725 1243.8,-86.8029"/>
<polygon fill="midnightblue" stroke="midnightblue" points="1246.12,-84.1669 1236.57,-79.5707 1241.17,-89.1166 1246.12,-84.1669"/>
</g>
<!-- Node28&#45;&gt;Node17 -->
<g id="edge102" class="edge"><title>Node28&#45;&gt;Node17</title>
<path fill="none" stroke="midnightblue" d="M1250.14,-116.497C1217.71,-106.438 1168.85,-91.2842 1135.08,-80.8107"/>
<polygon fill="midnightblue" stroke="midnightblue" points="1135.71,-77.341 1125.12,-77.7214 1133.63,-84.0268 1135.71,-77.341"/>
</g>
<!-- Node28&#45;&gt;Node18 -->
<g id="edge104" class="edge"><title>Node28&#45;&gt;Node18</title>
<path fill="none" stroke="midnightblue" d="M1324.03,-118.428C1328.73,-117.546 1333.46,-116.713 1338,-116 1480.69,-93.5614 1517.78,-98.7648 1661,-80 1671.79,-78.5868 1683.44,-76.9016 1694.21,-75.28"/>
<polygon fill="midnightblue" stroke="midnightblue" points="1694.84,-78.7239 1704.2,-73.7558 1693.79,-71.8039 1694.84,-78.7239"/>
</g>
<!-- Node28&#45;&gt;Node26 -->
<g id="edge100" class="edge"><title>Node28&#45;&gt;Node26</title>
<path fill="none" stroke="midnightblue" d="M1243.7,-120.683C1174.7,-109.867 1034.31,-87.86 960.984,-76.3651"/>
<polygon fill="midnightblue" stroke="midnightblue" points="961.09,-72.8389 950.668,-74.748 960.005,-79.7545 961.09,-72.8389"/>
</g>
<!-- Node29 -->
<g id="node83" class="node"><title>Node29</title>
<polygon fill="white" stroke="#bfbfbf" points="1263.5,-58.5 1263.5,-79.5 1312.5,-79.5 1312.5,-58.5 1263.5,-58.5"/>
<text text-anchor="middle" x="1288" y="-66.5" font-family="Helvetica,sans-Serif" font-size="10.00">istream</text>
</g>
<!-- Node28&#45;&gt;Node29 -->
<g id="edge108" class="edge"><title>Node28&#45;&gt;Node29</title>
<path fill="none" stroke="midnightblue" d="M1284.73,-116.362C1285.25,-108.922 1285.95,-98.7427 1286.57,-89.7276"/>
<polygon fill="midnightblue" stroke="midnightblue" points="1290.07,-89.7878 1287.27,-79.5707 1283.09,-89.3061 1290.07,-89.7878"/>
</g>
<!-- Node32&#45;&gt;Node16 -->
<g id="edge128" class="edge"><title>Node32&#45;&gt;Node16</title>
<path fill="none" stroke="midnightblue" d="M543.769,-181.281C552.921,-165.162 572.192,-134.593 596,-116 619.062,-97.9901 650.073,-85.4998 673.121,-77.9466"/>
<polygon fill="midnightblue" stroke="midnightblue" points="674.285,-81.2497 682.778,-74.9159 672.189,-74.5708 674.285,-81.2497"/>
</g>
<!-- Node32&#45;&gt;Node17 -->
<g id="edge130" class="edge"><title>Node32&#45;&gt;Node17</title>
<path fill="none" stroke="midnightblue" d="M556.914,-181.402C587.875,-164.576 651.768,-132.02 710,-116 775.162,-98.074 974.175,-79.5136 1058.55,-72.2179"/>
<polygon fill="midnightblue" stroke="midnightblue" points="1059.06,-75.6868 1068.72,-71.3445 1058.46,-68.7124 1059.06,-75.6868"/>
</g>
<!-- Node32&#45;&gt;Node22 -->
<g id="edge124" class="edge"><title>Node32&#45;&gt;Node22</title>
<path fill="none" stroke="midnightblue" d="M572.281,-189.289C618.522,-185.659 703.455,-179.087 776,-174 1023.46,-156.646 1085.52,-155.132 1333,-138 1371.54,-135.332 1415.67,-132.045 1445.84,-129.763"/>
<polygon fill="midnightblue" stroke="midnightblue" points="1446.19,-133.246 1455.9,-129 1445.66,-126.266 1446.19,-133.246"/>
</g>
<!-- Node33 -->
<g id="node94" class="node"><title>Node33</title>
<polygon fill="white" stroke="#bfbfbf" points="358,-116.5 358,-137.5 478,-137.5 478,-116.5 358,-116.5"/>
<text text-anchor="middle" x="418" y="-124.5" font-family="Helvetica,sans-Serif" font-size="10.00">base/cereal/access.hpp</text>
</g>
<!-- Node32&#45;&gt;Node33 -->
<g id="edge122" class="edge"><title>Node32&#45;&gt;Node33</title>
<path fill="none" stroke="midnightblue" d="M518.453,-181.412C498.927,-170.836 468.704,-154.465 446.506,-142.441"/>
<polygon fill="midnightblue" stroke="midnightblue" points="447.999,-139.269 437.539,-137.584 444.665,-145.424 447.999,-139.269"/>
</g>
<!-- Node32&#45;&gt;Node34 -->
<g id="edge126" class="edge"><title>Node32&#45;&gt;Node34</title>
<path fill="none" stroke="midnightblue" d="M572.213,-189.557C623.607,-185.925 723.801,-178.995 809,-174 1123.53,-155.559 1202.6,-158.611 1517,-138 1556.13,-135.435 1601.49,-131.629 1628.94,-129.233"/>
<polygon fill="midnightblue" stroke="midnightblue" points="1629.56,-132.693 1639.21,-128.33 1628.94,-125.72 1629.56,-132.693"/>
</g>
<!-- Node35 -->
<g id="node101" class="node"><title>Node35</title>
<polygon fill="white" stroke="#bfbfbf" points="495.5,-116.5 495.5,-137.5 544.5,-137.5 544.5,-116.5 495.5,-116.5"/>
<text text-anchor="middle" x="520" y="-124.5" font-family="Helvetica,sans-Serif" font-size="10.00">cassert</text>
</g>
<!-- Node32&#45;&gt;Node35 -->
<g id="edge132" class="edge"><title>Node32&#45;&gt;Node35</title>
<path fill="none" stroke="midnightblue" d="M535.028,-181.267C532.485,-172.085 528.755,-158.615 525.647,-147.392"/>
<polygon fill="midnightblue" stroke="midnightblue" points="528.959,-146.237 522.917,-137.534 522.213,-148.105 528.959,-146.237"/>
</g>
<!-- Node36&#45;&gt;Node11 -->
<g id="edge136" class="edge"><title>Node36&#45;&gt;Node11</title>
<path fill="none" stroke="midnightblue" d="M238.865,-253.25C249.233,-230.341 273.64,-176.409 286.953,-146.992"/>
<polygon fill="midnightblue" stroke="midnightblue" points="290.223,-148.254 291.158,-137.7 283.846,-145.368 290.223,-148.254"/>
</g>
<!-- Node38&#45;&gt;Node7 -->
<g id="edge150" class="edge"><title>Node38&#45;&gt;Node7</title>
<path fill="none" stroke="midnightblue" d="M1910.75,-448.383C1957.78,-435.106 2027.07,-407.323 2059,-354 2087.97,-305.616 2041.38,-241.332 2014.27,-210.3"/>
<polygon fill="midnightblue" stroke="midnightblue" points="2016.83,-207.909 2007.54,-202.813 2011.62,-212.589 2016.83,-207.909"/>
</g>
<!-- Node38&#45;&gt;Node8 -->
<g id="edge282" class="edge"><title>Node38&#45;&gt;Node8</title>
<path fill="none" stroke="midnightblue" d="M1804.84,-450.513C1781.46,-443.984 1756.62,-432.434 1742,-412 1680.39,-325.904 1794.82,-259.222 1732,-174 1703.72,-135.64 1664.12,-172.261 1631,-138 1618.41,-124.98 1613.02,-104.767 1610.72,-89.5781"/>
<polygon fill="midnightblue" stroke="midnightblue" points="1614.19,-89.0957 1609.53,-79.5804 1607.24,-89.9245 1614.19,-89.0957"/>
</g>
<!-- Node38&#45;&gt;Node22 -->
<g id="edge284" class="edge"><title>Node38&#45;&gt;Node22</title>
<path fill="none" stroke="midnightblue" d="M1804.66,-455.547C1681.45,-446.657 1406,-417.65 1406,-336 1406,-336 1406,-336 1406,-264 1406,-216.348 1441.59,-169.755 1464.06,-145.089"/>
<polygon fill="midnightblue" stroke="midnightblue" points="1466.81,-147.277 1471.11,-137.594 1461.71,-142.482 1466.81,-147.277"/>
</g>
<!-- Node38&#45;&gt;Node30 -->
<g id="edge288" class="edge"><title>Node38&#45;&gt;Node30</title>
<path fill="none" stroke="midnightblue" d="M1921.28,-454.492C2084.87,-439.916 2558.97,-384.399 2906,-210 2928.27,-198.808 2926.64,-185.011 2949,-174 3010.45,-143.74 3091.46,-132.758 3133.31,-128.933"/>
<polygon fill="midnightblue" stroke="midnightblue" points="3133.64,-132.417 3143.31,-128.088 3133.05,-125.442 3133.64,-132.417"/>
</g>
<!-- Node38&#45;&gt;Node34 -->
<g id="edge286" class="edge"><title>Node38&#45;&gt;Node34</title>
<path fill="none" stroke="midnightblue" d="M1870.28,-448.372C1876.1,-439.201 1883.79,-425.362 1887,-412 1912.16,-307.413 1921.05,-248.029 1843,-174 1836.96,-168.269 1728.25,-143.516 1678.49,-132.418"/>
<polygon fill="midnightblue" stroke="midnightblue" points="1679.08,-128.963 1668.56,-130.209 1677.56,-135.796 1679.08,-128.963"/>
</g>
<!-- Node39 -->
<g id="node115" class="node"><title>Node39</title>
<a xlink:href="_reconstruct__traits_8h.html" target="_top" xlink:title="reconstruct/Reconstruct\l_traits.h">
<polygon fill="white" stroke="black" points="1756,-319 1756,-353 1878,-353 1878,-319 1756,-319"/>
<text text-anchor="start" x="1764" y="-340" font-family="Helvetica,sans-Serif" font-size="10.00">reconstruct/Reconstruct</text>
<text text-anchor="middle" x="1817" y="-327" font-family="Helvetica,sans-Serif" font-size="10.00">_traits.h</text>
</a>
</g>
<!-- Node38&#45;&gt;Node39 -->
<g id="edge152" class="edge"><title>Node38&#45;&gt;Node39</title>
<path fill="none" stroke="midnightblue" d="M1804.86,-448.479C1784.3,-441.658 1763.26,-430.438 1751,-412 1738.24,-392.814 1756.13,-373.234 1776.48,-358.753"/>
<polygon fill="midnightblue" stroke="midnightblue" points="1778.6,-361.546 1784.96,-353.072 1774.7,-355.731 1778.6,-361.546"/>
</g>
<!-- Node42 -->
<g id="node132" class="node"><title>Node42</title>
<a xlink:href="_calibration_8h.html" target="_top" xlink:title="calibration/Calibration.h">
<polygon fill="white" stroke="black" points="1759.5,-390.5 1759.5,-411.5 1878.5,-411.5 1878.5,-390.5 1759.5,-390.5"/>
<text text-anchor="middle" x="1819" y="-398.5" font-family="Helvetica,sans-Serif" font-size="10.00">calibration/Calibration.h</text>
</a>
</g>
<!-- Node38&#45;&gt;Node42 -->
<g id="edge180" class="edge"><title>Node38&#45;&gt;Node42</title>
<path fill="none" stroke="midnightblue" d="M1854.93,-448.362C1848.85,-440.35 1840.36,-429.161 1833.16,-419.67"/>
<polygon fill="midnightblue" stroke="midnightblue" points="1835.85,-417.422 1827.02,-411.571 1830.27,-421.653 1835.85,-417.422"/>
</g>
<!-- Node39&#45;&gt;Node7 -->
<g id="edge154" class="edge"><title>Node39&#45;&gt;Node7</title>
<path fill="none" stroke="midnightblue" d="M1870.65,-318.921C1892.49,-310.209 1917.01,-298.015 1936,-282 1959.33,-262.326 1977.52,-231.603 1987.76,-211.636"/>
<polygon fill="midnightblue" stroke="midnightblue" points="1990.96,-213.057 1992.26,-202.541 1984.69,-209.956 1990.96,-213.057"/>
</g>
<!-- Node39&#45;&gt;Node21 -->
<g id="edge170" class="edge"><title>Node39&#45;&gt;Node21</title>
<path fill="none" stroke="midnightblue" d="M1755.71,-329.228C1624.93,-314.105 1309.03,-273.989 1038.81,-210.326"/>
<polygon fill="midnightblue" stroke="midnightblue" points="1039.35,-206.857 1028.81,-207.955 1037.73,-213.668 1039.35,-206.857"/>
</g>
<!-- Node39&#45;&gt;Node22 -->
<g id="edge172" class="edge"><title>Node39&#45;&gt;Node22</title>
<path fill="none" stroke="midnightblue" d="M1755.91,-330.98C1659.7,-322.449 1481.81,-303.899 1463,-282 1430.02,-243.607 1455.25,-178.781 1471.32,-146.491"/>
<polygon fill="midnightblue" stroke="midnightblue" points="1474.45,-148.069 1475.94,-137.58 1468.23,-144.846 1474.45,-148.069"/>
</g>
<!-- Node39&#45;&gt;Node23 -->
<g id="edge178" class="edge"><title>Node39&#45;&gt;Node23</title>
<path fill="none" stroke="midnightblue" d="M1878.28,-324.946C1893.51,-322.431 1909.82,-319.933 1925,-318 2312.39,-268.659 2426.72,-334.079 2797,-210 2829.05,-199.259 2832.52,-186.326 2864,-174 2923.42,-150.731 2963.94,-188.466 3003,-138 3008.98,-130.268 3009.5,-123.303 3003,-116 2979.08,-89.1266 2736.66,-75.2119 2639.74,-70.6881"/>
<polygon fill="midnightblue" stroke="midnightblue" points="2639.89,-67.1914 2629.74,-70.2308 2639.57,-74.1841 2639.89,-67.1914"/>
</g>
<!-- Node39&#45;&gt;Node30 -->
<g id="edge174" class="edge"><title>Node39&#45;&gt;Node30</title>
<path fill="none" stroke="midnightblue" d="M1878.23,-324.571C1893.47,-322.066 1909.79,-319.667 1925,-318 2344.34,-272.035 2488.78,-394.8 2868,-210 2891.97,-198.318 2891.49,-184.509 2916,-174 3004.64,-135.991 3036.64,-162.218 3130,-138 3131.24,-137.677 3132.51,-137.326 3133.78,-136.955"/>
<polygon fill="midnightblue" stroke="midnightblue" points="3135.02,-140.231 3143.46,-133.822 3132.87,-133.571 3135.02,-140.231"/>
</g>
<!-- Node39&#45;&gt;Node34 -->
<g id="edge176" class="edge"><title>Node39&#45;&gt;Node34</title>
<path fill="none" stroke="midnightblue" d="M1823.9,-318.758C1835.51,-286.646 1854.65,-217.042 1822,-174 1817.58,-168.178 1724.31,-144.415 1678.7,-133.076"/>
<polygon fill="midnightblue" stroke="midnightblue" points="1679.26,-129.611 1668.71,-130.604 1677.58,-136.405 1679.26,-129.611"/>
</g>
<!-- Node40 -->
<g id="node118" class="node"><title>Node40</title>
<a xlink:href="mapped__vectors_8h.html" target="_top" xlink:title="base/std_ext/mapped\l_vectors.h">
<polygon fill="white" stroke="black" points="1472,-247 1472,-281 1582,-281 1582,-247 1472,-247"/>
<text text-anchor="start" x="1480" y="-268" font-family="Helvetica,sans-Serif" font-size="10.00">base/std_ext/mapped</text>
<text text-anchor="middle" x="1527" y="-255" font-family="Helvetica,sans-Serif" font-size="10.00">_vectors.h</text>
</a>
</g>
<!-- Node39&#45;&gt;Node40 -->
<g id="edge156" class="edge"><title>Node39&#45;&gt;Node40</title>
<path fill="none" stroke="midnightblue" d="M1755.85,-320.819C1707.81,-308.892 1641.07,-292.32 1592.05,-280.15"/>
<polygon fill="midnightblue" stroke="midnightblue" points="1592.73,-276.713 1582.18,-277.701 1591.05,-283.507 1592.73,-276.713"/>
</g>
<!-- Node40&#45;&gt;Node9 -->
<g id="edge168" class="edge"><title>Node40&#45;&gt;Node9</title>
<path fill="none" stroke="midnightblue" d="M1523.98,-246.915C1518.17,-208.235 1509.89,-113.059 1557,-58 1571.45,-41.1066 1627.84,-26.8737 1667.7,-18.6357"/>
<polygon fill="midnightblue" stroke="midnightblue" points="1668.59,-22.0282 1677.7,-16.6229 1667.2,-15.1659 1668.59,-22.0282"/>
</g>
<!-- Node40&#45;&gt;Node16 -->
<g id="edge164" class="edge"><title>Node40&#45;&gt;Node16</title>
<path fill="none" stroke="midnightblue" d="M1471.81,-261.207C1330.85,-253.778 965.085,-232.559 915,-210 893.788,-200.446 896.77,-186.263 877,-174 837.569,-149.541 818.528,-162.303 779,-138 756.526,-124.183 734.953,-102.829 720.958,-87.5378"/>
<polygon fill="midnightblue" stroke="midnightblue" points="723.277,-84.8798 714.005,-79.7526 718.055,-89.5426 723.277,-84.8798"/>
</g>
<!-- Node40&#45;&gt;Node22 -->
<g id="edge166" class="edge"><title>Node40&#45;&gt;Node22</title>
<path fill="none" stroke="midnightblue" d="M1519.79,-246.635C1515.54,-236.119 1510.19,-222.387 1506,-210 1498.86,-188.903 1491.93,-164.358 1487.37,-147.461"/>
<polygon fill="midnightblue" stroke="midnightblue" points="1490.69,-146.336 1484.73,-137.575 1483.93,-148.139 1490.69,-146.336"/>
</g>
<!-- Node41 -->
<g id="node120" class="node"><title>Node41</title>
<a xlink:href="memory_8h.html" target="_top" xlink:title="base/std_ext/memory.h">
<polygon fill="white" stroke="black" points="1585.5,-181.5 1585.5,-202.5 1704.5,-202.5 1704.5,-181.5 1585.5,-181.5"/>
<text text-anchor="middle" x="1645" y="-189.5" font-family="Helvetica,sans-Serif" font-size="10.00">base/std_ext/memory.h</text>
</a>
</g>
<!-- Node40&#45;&gt;Node41 -->
<g id="edge158" class="edge"><title>Node40&#45;&gt;Node41</title>
<path fill="none" stroke="midnightblue" d="M1554.96,-246.937C1574.29,-235.144 1599.83,-219.56 1618.77,-208.004"/>
<polygon fill="midnightblue" stroke="midnightblue" points="1620.77,-210.884 1627.48,-202.688 1617.12,-204.909 1620.77,-210.884"/>
</g>
<!-- Node41&#45;&gt;Node22 -->
<g id="edge160" class="edge"><title>Node41&#45;&gt;Node22</title>
<path fill="none" stroke="midnightblue" d="M1618.45,-181.412C1590.93,-170.44 1547.78,-153.232 1517.39,-141.111"/>
<polygon fill="midnightblue" stroke="midnightblue" points="1518.59,-137.822 1508,-137.369 1515.99,-144.324 1518.59,-137.822"/>
</g>
<!-- Node41&#45;&gt;Node34 -->
<g id="edge162" class="edge"><title>Node41&#45;&gt;Node34</title>
<path fill="none" stroke="midnightblue" d="M1646.49,-181.267C1647.74,-172.18 1649.58,-158.892 1651.13,-147.74"/>
<polygon fill="midnightblue" stroke="midnightblue" points="1654.64,-147.919 1652.54,-137.534 1647.7,-146.959 1654.64,-147.919"/>
</g>
<!-- Node42&#45;&gt;Node16 -->
<g id="edge280" class="edge"><title>Node42&#45;&gt;Node16</title>
<path fill="none" stroke="midnightblue" d="M1759.3,-400.599C1552.85,-398.895 876.929,-390.554 787,-354 742.379,-335.863 726.34,-325.661 706,-282 675.882,-217.35 690.578,-129.216 699.657,-89.6775"/>
<polygon fill="midnightblue" stroke="midnightblue" points="703.079,-90.4168 702.028,-79.8743 696.275,-88.7718 703.079,-90.4168"/>
</g>
<!-- Node42&#45;&gt;Node39 -->
<g id="edge182" class="edge"><title>Node42&#45;&gt;Node39</title>
<path fill="none" stroke="midnightblue" d="M1818.67,-390.267C1818.44,-382.931 1818.13,-372.857 1817.84,-363.38"/>
<polygon fill="midnightblue" stroke="midnightblue" points="1821.33,-362.997 1817.53,-353.11 1814.34,-363.213 1821.33,-362.997"/>
</g>
<!-- Node43 -->
<g id="node135" class="node"><title>Node43</title>
<a xlink:href="_manager__traits_8h.html" target="_top" xlink:title="calibration/gui/Manager\l_traits.h">
<polygon fill="white" stroke="black" points="1933.5,-319 1933.5,-353 2050.5,-353 2050.5,-319 1933.5,-319"/>
<text text-anchor="start" x="1941.5" y="-340" font-family="Helvetica,sans-Serif" font-size="10.00">calibration/gui/Manager</text>
<text text-anchor="middle" x="1992" y="-327" font-family="Helvetica,sans-Serif" font-size="10.00">_traits.h</text>
</a>
</g>
<!-- Node42&#45;&gt;Node43 -->
<g id="edge184" class="edge"><title>Node42&#45;&gt;Node43</title>
<path fill="none" stroke="midnightblue" d="M1847.18,-390.412C1871.46,-381.291 1907.21,-367.859 1937.11,-356.623"/>
<polygon fill="midnightblue" stroke="midnightblue" points="1938.46,-359.854 1946.59,-353.06 1936,-353.301 1938.46,-359.854"/>
</g>
<!-- Node61 -->
<g id="node195" class="node"><title>Node61</title>
<a xlink:href="_options_list_8h.html" target="_top" xlink:title="base/OptionsList.h">
<polygon fill="white" stroke="black" points="2690,-181.5 2690,-202.5 2788,-202.5 2788,-181.5 2690,-181.5"/>
<text text-anchor="middle" x="2739" y="-189.5" font-family="Helvetica,sans-Serif" font-size="10.00">base/OptionsList.h</text>
</a>
</g>
<!-- Node42&#45;&gt;Node61 -->
<g id="edge268" class="edge"><title>Node42&#45;&gt;Node61</title>
<path fill="none" stroke="midnightblue" d="M1873.36,-390.498C1922.02,-381.063 1995.31,-366.769 2059,-354 2215.14,-322.697 2254.98,-318.46 2410,-282 2531.31,-253.467 2561.24,-244.476 2681,-210 2685.94,-208.578 2691.1,-207.045 2696.22,-205.495"/>
<polygon fill="midnightblue" stroke="midnightblue" points="2697.41,-208.791 2705.95,-202.517 2695.36,-202.098 2697.41,-208.791"/>
</g>
<!-- Node43&#45;&gt;Node20 -->
<g id="edge262" class="edge"><title>Node43&#45;&gt;Node20</title>
<path fill="none" stroke="midnightblue" d="M2050.66,-335.294C2178.16,-332.996 2489.76,-323.252 2747,-282 2876.42,-261.245 2908.64,-251.423 3033,-210 3111.62,-183.811 3159.09,-206.991 3205,-138 3210.42,-129.86 3211.33,-123.448 3205,-116 3188.36,-96.4335 3017.84,-78.4653 2946.8,-71.7689"/>
<polygon fill="midnightblue" stroke="midnightblue" points="2946.96,-68.269 2936.68,-70.8281 2946.31,-75.2389 2946.96,-68.269"/>
</g>
<!-- Node43&#45;&gt;Node22 -->
<g id="edge266" class="edge"><title>Node43&#45;&gt;Node22</title>
<path fill="none" stroke="midnightblue" d="M1949.65,-318.83C1900.37,-299.303 1816.25,-267.367 1742,-246 1669.87,-225.244 1644.04,-243.755 1577,-210 1544.82,-193.798 1514.77,-164.147 1497.4,-145.021"/>
<polygon fill="midnightblue" stroke="midnightblue" points="1500.02,-142.696 1490.76,-137.538 1494.78,-147.342 1500.02,-142.696"/>
</g>
<!-- Node43&#45;&gt;Node28 -->
<g id="edge186" class="edge"><title>Node43&#45;&gt;Node28</title>
<path fill="none" stroke="midnightblue" d="M1933.49,-325.166C1882.56,-315.306 1806.92,-299.631 1742,-282 1582.87,-238.784 1398.29,-170.63 1321.01,-141.252"/>
<polygon fill="midnightblue" stroke="midnightblue" points="1321.85,-137.827 1311.26,-137.535 1319.36,-144.368 1321.85,-137.827"/>
</g>
<!-- Node43&#45;&gt;Node34 -->
<g id="edge264" class="edge"><title>Node43&#45;&gt;Node34</title>
<path fill="none" stroke="midnightblue" d="M1987.28,-318.755C1977.09,-285.027 1949.68,-210.451 1898,-174 1826.34,-123.458 1789.95,-155.423 1704,-138 1695.76,-136.33 1686.79,-134.393 1678.75,-132.614"/>
<polygon fill="midnightblue" stroke="midnightblue" points="1679.37,-129.168 1668.85,-130.402 1677.85,-135.999 1679.37,-129.168"/>
</g>
<!-- Node44 -->
<g id="node138" class="node"><title>Node44</title>
<a xlink:href="_wrap_t_file_8h.html" target="_top" xlink:title="base/WrapTFile.h">
<polygon fill="white" stroke="black" points="2578,-181.5 2578,-202.5 2672,-202.5 2672,-181.5 2578,-181.5"/>
<text text-anchor="middle" x="2625" y="-189.5" font-family="Helvetica,sans-Serif" font-size="10.00">base/WrapTFile.h</text>
</a>
</g>
<!-- Node43&#45;&gt;Node44 -->
<g id="edge188" class="edge"><title>Node43&#45;&gt;Node44</title>
<path fill="none" stroke="midnightblue" d="M2050.54,-329.244C2118.67,-320.795 2234.33,-304.639 2332,-282 2424.43,-260.577 2530.23,-225.339 2585.95,-205.921"/>
<polygon fill="midnightblue" stroke="midnightblue" points="2587.15,-209.209 2595.43,-202.601 2584.83,-202.603 2587.15,-209.209"/>
</g>
<!-- Node55 -->
<g id="node172" class="node"><title>Node55</title>
<a xlink:href="_t_i_d_8h.html" target="_top" xlink:title="tree/TID.h">
<polygon fill="white" stroke="black" points="2262.5,-253.5 2262.5,-274.5 2323.5,-274.5 2323.5,-253.5 2262.5,-253.5"/>
<text text-anchor="middle" x="2293" y="-261.5" font-family="Helvetica,sans-Serif" font-size="10.00">tree/TID.h</text>
</a>
</g>
<!-- Node43&#45;&gt;Node55 -->
<g id="edge234" class="edge"><title>Node43&#45;&gt;Node55</title>
<path fill="none" stroke="midnightblue" d="M2050.75,-321.947C2110.26,-307.713 2200.71,-286.077 2252.6,-273.664"/>
<polygon fill="midnightblue" stroke="midnightblue" points="2253.53,-277.04 2262.44,-271.309 2251.9,-270.232 2253.53,-277.04"/>
</g>
<!-- Node44&#45;&gt;Node18 -->
<g id="edge230" class="edge"><title>Node44&#45;&gt;Node18</title>
<path fill="none" stroke="midnightblue" d="M2593.3,-181.447C2583.95,-178.662 2573.64,-175.906 2564,-174 2411.89,-143.933 2364.46,-185.902 2217,-138 2198.44,-131.971 2197.55,-122.046 2179,-116 2104.07,-91.5822 1868.39,-76.3466 1773.83,-71.0762"/>
<polygon fill="midnightblue" stroke="midnightblue" points="1773.98,-67.5795 1763.81,-70.5256 1773.6,-74.569 1773.98,-67.5795"/>
</g>
<!-- Node44&#45;&gt;Node20 -->
<g id="edge224" class="edge"><title>Node44&#45;&gt;Node20</title>
<path fill="none" stroke="midnightblue" d="M2655.31,-181.464C2663.58,-178.807 2672.58,-176.113 2681,-174 2767.33,-152.336 2805.77,-190.01 2878,-138 2894.32,-126.248 2904.43,-105.227 2910.08,-89.4657"/>
<polygon fill="midnightblue" stroke="midnightblue" points="2913.53,-90.1647 2913.3,-79.5724 2906.88,-87.9985 2913.53,-90.1647"/>
</g>
<!-- Node44&#45;&gt;Node22 -->
<g id="edge222" class="edge"><title>Node44&#45;&gt;Node22</title>
<path fill="none" stroke="midnightblue" d="M2577.77,-184.466C2552.66,-180.737 2521.22,-176.508 2493,-174 2111.06,-140.058 2013.81,-160.118 1631,-138 1592.43,-135.772 1548.31,-132.413 1518.15,-129.993"/>
<polygon fill="midnightblue" stroke="midnightblue" points="1518.34,-126.498 1508.09,-129.18 1517.78,-133.475 1518.34,-126.498"/>
</g>
<!-- Node44&#45;&gt;Node23 -->
<g id="edge232" class="edge"><title>Node44&#45;&gt;Node23</title>
<path fill="none" stroke="midnightblue" d="M2655.63,-181.476C2663.82,-178.849 2672.7,-176.166 2681,-174 2761.51,-152.99 2912.32,-179.872 2859,-116 2831.6,-83.1844 2705.93,-73.2308 2640.25,-70.25"/>
<polygon fill="midnightblue" stroke="midnightblue" points="2640,-66.7366 2629.86,-69.8142 2639.71,-73.7305 2640,-66.7366"/>
</g>
<!-- Node44&#45;&gt;Node34 -->
<g id="edge226" class="edge"><title>Node44&#45;&gt;Node34</title>
<path fill="none" stroke="midnightblue" d="M2577.76,-184.63C2552.64,-180.947 2521.2,-176.709 2493,-174 2410.19,-166.047 1808.85,-134.952 1678.77,-128.27"/>
<polygon fill="midnightblue" stroke="midnightblue" points="1678.79,-124.766 1668.62,-127.749 1678.43,-131.757 1678.79,-124.766"/>
</g>
<!-- Node45 -->
<g id="node140" class="node"><title>Node45</title>
<a xlink:href="string_8h.html" target="_top" xlink:title="base/std_ext/string.h">
<polygon fill="white" stroke="black" points="2062,-116.5 2062,-137.5 2170,-137.5 2170,-116.5 2062,-116.5"/>
<text text-anchor="middle" x="2116" y="-124.5" font-family="Helvetica,sans-Serif" font-size="10.00">base/std_ext/string.h</text>
</a>
</g>
<!-- Node44&#45;&gt;Node45 -->
<g id="edge190" class="edge"><title>Node44&#45;&gt;Node45</title>
<path fill="none" stroke="midnightblue" d="M2593.63,-181.486C2584.19,-178.668 2573.76,-175.884 2564,-174 2397.43,-141.845 2352.27,-159.557 2184,-138 2182.73,-137.838 2181.45,-137.67 2180.16,-137.497"/>
<polygon fill="midnightblue" stroke="midnightblue" points="2180.53,-134.015 2170.14,-136.089 2179.56,-140.946 2180.53,-134.015"/>
</g>
<!-- Node46 -->
<g id="node146" class="node"><title>Node46</title>
<a xlink:href="misc_8h.html" target="_top" xlink:title="base/std_ext/misc.h">
<polygon fill="white" stroke="black" points="2225.5,-116.5 2225.5,-137.5 2330.5,-137.5 2330.5,-116.5 2225.5,-116.5"/>
<text text-anchor="middle" x="2278" y="-124.5" font-family="Helvetica,sans-Serif" font-size="10.00">base/std_ext/misc.h</text>
</a>
</g>
<!-- Node44&#45;&gt;Node46 -->
<g id="edge200" class="edge"><title>Node44&#45;&gt;Node46</title>
<path fill="none" stroke="midnightblue" d="M2591.96,-181.437C2582.95,-178.781 2573.15,-176.093 2564,-174 2487.88,-156.585 2398.95,-143.013 2340.72,-135.024"/>
<polygon fill="midnightblue" stroke="midnightblue" points="2340.95,-131.523 2330.57,-133.646 2340.01,-138.46 2340.95,-131.523"/>
</g>
<!-- Node48 -->
<g id="node153" class="node"><title>Node48</title>
<polygon fill="white" stroke="#bfbfbf" points="2803.5,-116.5 2803.5,-137.5 2850.5,-137.5 2850.5,-116.5 2803.5,-116.5"/>
<text text-anchor="middle" x="2827" y="-124.5" font-family="Helvetica,sans-Serif" font-size="10.00">TFile.h</text>
</g>
<!-- Node44&#45;&gt;Node48 -->
<g id="edge210" class="edge"><title>Node44&#45;&gt;Node48</title>
<path fill="none" stroke="midnightblue" d="M2657.86,-181.407C2665.46,-178.967 2673.51,-176.387 2681,-174 2728.76,-158.784 2742.96,-155.045 2793.71,-138.383"/>
<polygon fill="midnightblue" stroke="midnightblue" points="2794.85,-141.689 2803.26,-135.236 2792.66,-135.041 2794.85,-141.689"/>
</g>
<!-- Node49 -->
<g id="node155" class="node"><title>Node49</title>
<polygon fill="white" stroke="#bfbfbf" points="2423.5,-116.5 2423.5,-137.5 2494.5,-137.5 2494.5,-116.5 2423.5,-116.5"/>
<text text-anchor="middle" x="2459" y="-124.5" font-family="Helvetica,sans-Serif" font-size="10.00">TDirectory.h</text>
</g>
<!-- Node44&#45;&gt;Node49 -->
<g id="edge212" class="edge"><title>Node44&#45;&gt;Node49</title>
<path fill="none" stroke="midnightblue" d="M2597.96,-181.412C2570.11,-170.505 2526.51,-153.436 2495.59,-141.327"/>
<polygon fill="midnightblue" stroke="midnightblue" points="2496.62,-137.971 2486.03,-137.584 2494.06,-144.489 2496.62,-137.971"/>
</g>
<!-- Node50 -->
<g id="node157" class="node"><title>Node50</title>
<polygon fill="white" stroke="#bfbfbf" points="2512,-116.5 2512,-137.5 2564,-137.5 2564,-116.5 2512,-116.5"/>
<text text-anchor="middle" x="2538" y="-124.5" font-family="Helvetica,sans-Serif" font-size="10.00">TError.h</text>
</g>
<!-- Node44&#45;&gt;Node50 -->
<g id="edge214" class="edge"><title>Node44&#45;&gt;Node50</title>
<path fill="none" stroke="midnightblue" d="M2610.63,-181.267C2596.95,-171.044 2576.15,-155.504 2560.31,-143.67"/>
<polygon fill="midnightblue" stroke="midnightblue" points="2562.2,-140.715 2552.1,-137.534 2558.02,-146.323 2562.2,-140.715"/>
</g>
<!-- Node51 -->
<g id="node159" class="node"><title>Node51</title>
<polygon fill="white" stroke="#bfbfbf" points="2581.5,-116.5 2581.5,-137.5 2628.5,-137.5 2628.5,-116.5 2581.5,-116.5"/>
<text text-anchor="middle" x="2605" y="-124.5" font-family="Helvetica,sans-Serif" font-size="10.00">TList.h</text>
</g>
<!-- Node44&#45;&gt;Node51 -->
<g id="edge216" class="edge"><title>Node44&#45;&gt;Node51</title>
<path fill="none" stroke="midnightblue" d="M2621.7,-181.267C2618.87,-172.085 2614.73,-158.615 2611.27,-147.392"/>
<polygon fill="midnightblue" stroke="midnightblue" points="2614.53,-146.062 2608.24,-137.534 2607.84,-148.121 2614.53,-146.062"/>
</g>
<!-- Node52 -->
<g id="node161" class="node"><title>Node52</title>
<polygon fill="white" stroke="#bfbfbf" points="2646,-116.5 2646,-137.5 2720,-137.5 2720,-116.5 2646,-116.5"/>
<text text-anchor="middle" x="2683" y="-124.5" font-family="Helvetica,sans-Serif" font-size="10.00">TCollection.h</text>
</g>
<!-- Node44&#45;&gt;Node52 -->
<g id="edge218" class="edge"><title>Node44&#45;&gt;Node52</title>
<path fill="none" stroke="midnightblue" d="M2634.58,-181.267C2643.36,-171.423 2656.54,-156.648 2666.94,-145"/>
<polygon fill="midnightblue" stroke="midnightblue" points="2669.55,-147.325 2673.6,-137.534 2664.33,-142.665 2669.55,-147.325"/>
</g>
<!-- Node53 -->
<g id="node163" class="node"><title>Node53</title>
<polygon fill="white" stroke="#bfbfbf" points="2738,-116.5 2738,-137.5 2786,-137.5 2786,-116.5 2738,-116.5"/>
<text text-anchor="middle" x="2762" y="-124.5" font-family="Helvetica,sans-Serif" font-size="10.00">TKey.h</text>
</g>
<!-- Node44&#45;&gt;Node53 -->
<g id="edge220" class="edge"><title>Node44&#45;&gt;Node53</title>
<path fill="none" stroke="midnightblue" d="M2647.32,-181.412C2669.91,-170.694 2705.04,-154.025 2730.47,-141.96"/>
<polygon fill="midnightblue" stroke="midnightblue" points="2732.16,-145.032 2739.69,-137.584 2729.16,-138.708 2732.16,-145.032"/>
</g>
<!-- Node54 -->
<g id="node168" class="node"><title>Node54</title>
<polygon fill="white" stroke="#bfbfbf" points="2944,-116.5 2944,-137.5 2974,-137.5 2974,-116.5 2944,-116.5"/>
<text text-anchor="middle" x="2959" y="-124.5" font-family="Helvetica,sans-Serif" font-size="10.00">set</text>
</g>
<!-- Node44&#45;&gt;Node54 -->
<g id="edge228" class="edge"><title>Node44&#45;&gt;Node54</title>
<path fill="none" stroke="midnightblue" d="M2654.68,-181.441C2663.1,-178.722 2672.34,-176.002 2681,-174 2789.94,-148.803 2821.74,-165.996 2930,-138 2931.43,-137.629 2932.89,-137.211 2934.36,-136.76"/>
<polygon fill="midnightblue" stroke="midnightblue" points="2935.55,-140.05 2943.85,-133.461 2933.26,-133.438 2935.55,-140.05"/>
</g>
<!-- Node45&#45;&gt;Node16 -->
<g id="edge198" class="edge"><title>Node45&#45;&gt;Node16</title>
<path fill="none" stroke="midnightblue" d="M2061.77,-117.027C2058.81,-116.64 2055.87,-116.293 2053,-116 1529.25,-62.5883 1394.84,-105.621 869,-80 823.092,-77.7632 770.031,-73.9866 736.991,-71.4933"/>
<polygon fill="midnightblue" stroke="midnightblue" points="737.239,-68.0021 727.002,-70.7324 736.707,-74.9819 737.239,-68.0021"/>
</g>
<!-- Node45&#45;&gt;Node17 -->
<g id="edge196" class="edge"><title>Node45&#45;&gt;Node17</title>
<path fill="none" stroke="midnightblue" d="M2061.77,-117.067C2058.81,-116.67 2055.87,-116.31 2053,-116 1674.42,-75.1653 1576.69,-108.834 1197,-80 1176.67,-78.4561 1154.09,-76.0328 1135.53,-73.8533"/>
<polygon fill="midnightblue" stroke="midnightblue" points="1135.75,-70.354 1125.4,-72.6408 1134.91,-77.3044 1135.75,-70.354"/>
</g>
<!-- Node45&#45;&gt;Node20 -->
<g id="edge192" class="edge"><title>Node45&#45;&gt;Node20</title>
<path fill="none" stroke="midnightblue" d="M2170.21,-120.679C2185.34,-119.028 2201.8,-117.338 2217,-116 2475.09,-93.2787 2787.64,-75.8282 2885.32,-70.6086"/>
<polygon fill="midnightblue" stroke="midnightblue" points="2885.59,-74.0995 2895.39,-70.0735 2885.22,-67.1093 2885.59,-74.0995"/>
</g>
<!-- Node45&#45;&gt;Node25 -->
<g id="edge194" class="edge"><title>Node45&#45;&gt;Node25</title>
<path fill="none" stroke="midnightblue" d="M2093.18,-116.497C2073.41,-107.397 2044.59,-94.1273 2022.42,-83.9253"/>
<polygon fill="midnightblue" stroke="midnightblue" points="2023.62,-80.6234 2013.07,-79.6212 2020.69,-86.982 2023.62,-80.6234"/>
</g>
<!-- Node46&#45;&gt;Node13 -->
<g id="edge206" class="edge"><title>Node46&#45;&gt;Node13</title>
<path fill="none" stroke="midnightblue" d="M2248.5,-116.479C2201.8,-100.389 2107.64,-70.2472 2025,-58 1856.58,-33.0411 597.478,-14.4861 379.202,-11.4403"/>
<polygon fill="midnightblue" stroke="midnightblue" points="379.095,-7.93862 369.047,-11.2994 378.998,-14.9379 379.095,-7.93862"/>
</g>
<!-- Node46&#45;&gt;Node17 -->
<g id="edge202" class="edge"><title>Node46&#45;&gt;Node17</title>
<path fill="none" stroke="midnightblue" d="M2225.4,-120.424C2210.43,-118.751 2194.09,-117.113 2179,-116 1743.45,-83.8632 1632.57,-111.898 1197,-80 1176.67,-78.5108 1154.08,-76.0924 1135.53,-73.9019"/>
<polygon fill="midnightblue" stroke="midnightblue" points="1135.74,-70.4028 1125.4,-72.6817 1134.91,-77.3525 1135.74,-70.4028"/>
</g>
<!-- Node46&#45;&gt;Node23 -->
<g id="edge204" class="edge"><title>Node46&#45;&gt;Node23</title>
<path fill="none" stroke="midnightblue" d="M2330.81,-117.487C2395.14,-105.9 2502.36,-86.5867 2560.16,-76.1754"/>
<polygon fill="midnightblue" stroke="midnightblue" points="2561.14,-79.5563 2570.36,-74.3389 2559.9,-72.6671 2561.14,-79.5563"/>
</g>
<!-- Node47 -->
<g id="node151" class="node"><title>Node47</title>
<polygon fill="white" stroke="#bfbfbf" points="2251.5,-58.5 2251.5,-79.5 2304.5,-79.5 2304.5,-58.5 2251.5,-58.5"/>
<text text-anchor="middle" x="2278" y="-66.5" font-family="Helvetica,sans-Serif" font-size="10.00">cxxabi.h</text>
</g>
<!-- Node46&#45;&gt;Node47 -->
<g id="edge208" class="edge"><title>Node46&#45;&gt;Node47</title>
<path fill="none" stroke="midnightblue" d="M2278,-116.362C2278,-108.922 2278,-98.7427 2278,-89.7276"/>
<polygon fill="midnightblue" stroke="midnightblue" points="2281.5,-89.5706 2278,-79.5707 2274.5,-89.5707 2281.5,-89.5706"/>
</g>
<!-- Node55&#45;&gt;Node8 -->
<g id="edge238" class="edge"><title>Node55&#45;&gt;Node8</title>
<path fill="none" stroke="midnightblue" d="M2267.26,-253.441C2233.09,-239.351 2176,-215.529 2167,-210 2145.76,-196.952 2146.91,-183.826 2124,-174 1994.09,-118.275 1945.27,-171.722 1808,-138 1781.63,-131.522 1776.56,-125.158 1751,-116 1717.98,-104.171 1680.27,-91.7397 1652.02,-82.6353"/>
<polygon fill="midnightblue" stroke="midnightblue" points="1653.03,-79.2851 1642.44,-79.5602 1650.89,-85.9499 1653.03,-79.2851"/>
</g>
<!-- Node55&#45;&gt;Node9 -->
<g id="edge248" class="edge"><title>Node55&#45;&gt;Node9</title>
<path fill="none" stroke="midnightblue" d="M2323.61,-262.174C2418.58,-256.279 2707.24,-236.589 2797,-210 2830.92,-199.951 2834.68,-185.888 2868,-174 2940.82,-148.022 3068.48,-184.165 3032,-116 3010.07,-75.0272 2989.21,-72.3095 2945,-58 2829.4,-20.5872 1952.14,-12.5911 1750.31,-11.2401"/>
<polygon fill="midnightblue" stroke="midnightblue" points="1750.16,-7.73907 1740.14,-11.1738 1750.11,-14.7389 1750.16,-7.73907"/>
</g>
<!-- Node55&#45;&gt;Node18 -->
<g id="edge254" class="edge"><title>Node55&#45;&gt;Node18</title>
<path fill="none" stroke="midnightblue" d="M2297.67,-253.5C2305.17,-234.854 2317.12,-195.872 2297,-174 2232.09,-103.424 1959.13,-164.596 1867,-138 1826.49,-126.305 1783.96,-101.757 1758.21,-85.321"/>
<polygon fill="midnightblue" stroke="midnightblue" points="1759.8,-82.1858 1749.51,-79.6715 1755.99,-88.0553 1759.8,-82.1858"/>
</g>
<!-- Node55&#45;&gt;Node19 -->
<g id="edge252" class="edge"><title>Node55&#45;&gt;Node19</title>
<path fill="none" stroke="midnightblue" d="M2323.66,-261.143C2391.61,-253.723 2544.93,-230.35 2493,-174 2461.32,-139.619 2133.93,-147.204 2054.14,-137.327"/>
<polygon fill="midnightblue" stroke="midnightblue" points="2054.66,-133.865 2044.23,-135.736 2053.55,-140.777 2054.66,-133.865"/>
</g>
<!-- Node55&#45;&gt;Node24 -->
<g id="edge258" class="edge"><title>Node55&#45;&gt;Node24</title>
<path fill="none" stroke="midnightblue" d="M2262.25,-263.175C2071.41,-258.006 1052.39,-229.652 915,-210 902.767,-208.25 889.595,-205.285 877.904,-202.261"/>
<polygon fill="midnightblue" stroke="midnightblue" points="878.638,-198.834 868.072,-199.617 876.82,-205.594 878.638,-198.834"/>
</g>
<!-- Node55&#45;&gt;Node34 -->
<g id="edge256" class="edge"><title>Node55&#45;&gt;Node34</title>
<path fill="none" stroke="midnightblue" d="M2268.01,-253.349C2261.84,-250.835 2255.21,-248.238 2249,-246 2198.61,-227.844 2181.67,-234.419 2134,-210 2110.27,-197.841 2110.8,-183.79 2086,-174 2083.6,-173.053 1769.58,-139.375 1678.5,-129.622"/>
<polygon fill="midnightblue" stroke="midnightblue" points="1678.85,-126.139 1668.53,-128.555 1678.1,-133.099 1678.85,-126.139"/>
</g>
<!-- Node56 -->
<g id="node174" class="node"><title>Node56</title>
<polygon fill="white" stroke="#bfbfbf" points="2176,-181.5 2176,-202.5 2232,-202.5 2232,-181.5 2176,-181.5"/>
<text text-anchor="middle" x="2204" y="-189.5" font-family="Helvetica,sans-Serif" font-size="10.00">Rtypes.h</text>
</g>
<!-- Node55&#45;&gt;Node56 -->
<g id="edge236" class="edge"><title>Node55&#45;&gt;Node56</title>
<path fill="none" stroke="midnightblue" d="M2279.87,-253.376C2265.54,-241.784 2242.38,-223.05 2225.41,-209.324"/>
<polygon fill="midnightblue" stroke="midnightblue" points="2227.16,-206.236 2217.19,-202.667 2222.76,-211.678 2227.16,-206.236"/>
</g>
<!-- Node57 -->
<g id="node177" class="node"><title>Node57</title>
<a xlink:href="time_8h.html" target="_top" xlink:title="base/std_ext/time.h">
<polygon fill="white" stroke="black" points="2381.5,-181.5 2381.5,-202.5 2484.5,-202.5 2484.5,-181.5 2381.5,-181.5"/>
<text text-anchor="middle" x="2433" y="-189.5" font-family="Helvetica,sans-Serif" font-size="10.00">base/std_ext/time.h</text>
</a>
</g>
<!-- Node55&#45;&gt;Node57 -->
<g id="edge240" class="edge"><title>Node55&#45;&gt;Node57</title>
<path fill="none" stroke="midnightblue" d="M2313.66,-253.376C2337.34,-241.199 2376.34,-221.141 2403.28,-207.286"/>
<polygon fill="midnightblue" stroke="midnightblue" points="2404.97,-210.353 2412.26,-202.667 2401.76,-204.128 2404.97,-210.353"/>
</g>
<!-- Node59 -->
<g id="node182" class="node"><title>Node59</title>
<polygon fill="white" stroke="#bfbfbf" points="1875.5,-116.5 1875.5,-137.5 1916.5,-137.5 1916.5,-116.5 1875.5,-116.5"/>
<text text-anchor="middle" x="1896" y="-124.5" font-family="Helvetica,sans-Serif" font-size="10.00">ctime</text>
</g>
<!-- Node55&#45;&gt;Node59 -->
<g id="edge260" class="edge"><title>Node55&#45;&gt;Node59</title>
<path fill="none" stroke="midnightblue" d="M2303.98,-253.283C2321.44,-234.985 2351.44,-197.431 2330,-174 2271.03,-109.554 2029.85,-154.963 1926.81,-137.643"/>
<polygon fill="midnightblue" stroke="midnightblue" points="1927.19,-134.149 1916.7,-135.63 1925.82,-141.015 1927.19,-134.149"/>
</g>
<!-- Node60 -->
<g id="node185" class="node"><title>Node60</title>
<polygon fill="white" stroke="#bfbfbf" points="2250,-181.5 2250,-202.5 2288,-202.5 2288,-181.5 2250,-181.5"/>
<text text-anchor="middle" x="2269" y="-189.5" font-family="Helvetica,sans-Serif" font-size="10.00">tuple</text>
</g>
<!-- Node55&#45;&gt;Node60 -->
<g id="edge250" class="edge"><title>Node55&#45;&gt;Node60</title>
<path fill="none" stroke="midnightblue" d="M2289.46,-253.376C2285.88,-242.635 2280.25,-225.761 2275.81,-212.422"/>
<polygon fill="midnightblue" stroke="midnightblue" points="2279.04,-211.047 2272.56,-202.667 2272.4,-213.261 2279.04,-211.047"/>
</g>
<!-- Node57&#45;&gt;Node45 -->
<g id="edge242" class="edge"><title>Node57&#45;&gt;Node45</title>
<path fill="none" stroke="midnightblue" d="M2397.04,-181.45C2387.63,-178.852 2377.47,-176.19 2368,-174 2304.59,-159.334 2231.38,-146.086 2180.27,-137.422"/>
<polygon fill="midnightblue" stroke="midnightblue" points="2180.79,-133.961 2170.35,-135.751 2179.63,-140.864 2180.79,-133.961"/>
</g>
<!-- Node58 -->
<g id="node180" class="node"><title>Node58</title>
<polygon fill="white" stroke="#bfbfbf" points="1934,-116.5 1934,-137.5 1980,-137.5 1980,-116.5 1934,-116.5"/>
<text text-anchor="middle" x="1957" y="-124.5" font-family="Helvetica,sans-Serif" font-size="10.00">cstring</text>
</g>
<!-- Node57&#45;&gt;Node58 -->
<g id="edge244" class="edge"><title>Node57&#45;&gt;Node58</title>
<path fill="none" stroke="midnightblue" d="M2399.19,-181.428C2389.23,-178.642 2378.25,-175.891 2368,-174 2204.85,-143.903 2156.27,-172.586 1990.3,-137.852"/>
<polygon fill="midnightblue" stroke="midnightblue" points="1990.75,-134.369 1980.24,-135.699 1989.28,-141.214 1990.75,-134.369"/>
</g>
<!-- Node57&#45;&gt;Node59 -->
<g id="edge246" class="edge"><title>Node57&#45;&gt;Node59</title>
<path fill="none" stroke="midnightblue" d="M2399.54,-181.433C2389.49,-178.613 2378.38,-175.841 2368,-174 2176.73,-140.06 2119.59,-180.086 1926.59,-137.859"/>
<polygon fill="midnightblue" stroke="midnightblue" points="1927.22,-134.414 1916.69,-135.649 1925.69,-141.245 1927.22,-134.414"/>
</g>
<!-- Node61&#45;&gt;Node20 -->
<g id="edge270" class="edge"><title>Node61&#45;&gt;Node20</title>
<path fill="none" stroke="midnightblue" d="M2788.04,-183.252C2866.62,-169.124 3012.36,-142.414 3016,-138 3039.48,-109.504 2984.1,-87.7174 2946.72,-76.7876"/>
<polygon fill="midnightblue" stroke="midnightblue" points="2947.31,-73.3182 2936.74,-73.9962 2945.42,-80.0597 2947.31,-73.3182"/>
</g>
<!-- Node61&#45;&gt;Node22 -->
<g id="edge272" class="edge"><title>Node61&#45;&gt;Node22</title>
<path fill="none" stroke="midnightblue" d="M2710.46,-181.485C2701.19,-178.519 2690.77,-175.653 2681,-174 2450.8,-135.054 1864.13,-150.597 1631,-138 1592.42,-135.916 1548.3,-132.533 1518.14,-130.069"/>
<polygon fill="midnightblue" stroke="midnightblue" points="1518.34,-126.574 1508.09,-129.239 1517.77,-133.55 1518.34,-126.574"/>
</g>
<!-- Node61&#45;&gt;Node25 -->
<g id="edge278" class="edge"><title>Node61&#45;&gt;Node25</title>
<path fill="none" stroke="midnightblue" d="M2773.85,-181.49C2782.97,-178.892 2792.82,-176.22 2802,-174 2884.11,-154.141 3041.3,-177.128 2983,-116 2980.89,-113.79 2205.2,-78.6992 2026.44,-70.6407"/>
<polygon fill="midnightblue" stroke="midnightblue" points="2026.39,-67.135 2016.24,-70.1812 2026.08,-74.1279 2026.39,-67.135"/>
</g>
<!-- Node61&#45;&gt;Node30 -->
<g id="edge274" class="edge"><title>Node61&#45;&gt;Node30</title>
<path fill="none" stroke="midnightblue" d="M2788.13,-184.585C2856.33,-174.266 2983.58,-154.935 3092,-138 3105.67,-135.865 3120.86,-133.448 3133.49,-131.426"/>
<polygon fill="midnightblue" stroke="midnightblue" points="3134.1,-134.873 3143.42,-129.834 3132.99,-127.961 3134.1,-134.873"/>
</g>
<!-- Node61&#45;&gt;Node54 -->
<g id="edge276" class="edge"><title>Node61&#45;&gt;Node54</title>
<path fill="none" stroke="midnightblue" d="M2775.97,-181.409C2784.52,-178.969 2793.57,-176.389 2802,-174 2858.86,-157.882 2873.87,-156.497 2930,-138 2931.41,-137.537 2932.85,-137.046 2934.29,-136.539"/>
<polygon fill="midnightblue" stroke="midnightblue" points="2935.55,-139.805 2943.74,-133.078 2933.15,-133.232 2935.55,-139.805"/>
</g>
<!-- Node62&#45;&gt;Node7 -->
<g id="edge292" class="edge"><title>Node62&#45;&gt;Node7</title>
<path fill="none" stroke="midnightblue" d="M2146.36,-564.407C2162.73,-556.959 2181.48,-545.209 2191,-528 2216.19,-482.484 2271.97,-701.836 2130,-318 2117.97,-285.486 2123.41,-271.569 2100,-246 2083.64,-228.131 2059.99,-215.149 2039.47,-206.399"/>
<polygon fill="midnightblue" stroke="midnightblue" points="2040.58,-203.073 2030,-202.557 2037.95,-209.56 2040.58,-203.073"/>
</g>
<!-- Node63 -->
<g id="node210" class="node"><title>Node63</title>
<a xlink:href="_unpacker_acqu_8h.html" target="_top" xlink:title="unpacker/UnpackerAcqu.h">
<polygon fill="white" stroke="black" points="2050,-506.5 2050,-527.5 2182,-527.5 2182,-506.5 2050,-506.5"/>
<text text-anchor="middle" x="2116" y="-514.5" font-family="Helvetica,sans-Serif" font-size="10.00">unpacker/UnpackerAcqu.h</text>
</a>
</g>
<!-- Node62&#45;&gt;Node63 -->
<g id="edge294" class="edge"><title>Node62&#45;&gt;Node63</title>
<path fill="none" stroke="midnightblue" d="M2116,-564.362C2116,-556.922 2116,-546.743 2116,-537.728"/>
<polygon fill="midnightblue" stroke="midnightblue" points="2119.5,-537.571 2116,-527.571 2112.5,-537.571 2119.5,-537.571"/>
</g>
<!-- Node63&#45;&gt;Node7 -->
<g id="edge304" class="edge"><title>Node63&#45;&gt;Node7</title>
<path fill="none" stroke="midnightblue" d="M2116,-506.444C2116,-486.062 2116,-439.868 2116,-401 2116,-401 2116,-401 2116,-336 2116,-278.446 2058.82,-231.489 2023.73,-208.093"/>
<polygon fill="midnightblue" stroke="midnightblue" points="2025.63,-205.154 2015.33,-202.661 2021.83,-211.032 2025.63,-205.154"/>
</g>
<!-- Node63&#45;&gt;Node15 -->
<g id="edge316" class="edge"><title>Node63&#45;&gt;Node15</title>
<path fill="none" stroke="midnightblue" d="M2049.81,-515.867C1905.34,-512.815 1565.93,-502.333 1456,-470 1394.75,-451.984 1330,-464.847 1330,-401 1330,-401 1330,-401 1330,-336 1330,-238.395 1262.77,-231.57 1235,-138 1230.28,-122.099 1228.03,-103.407 1226.97,-89.4918"/>
<polygon fill="midnightblue" stroke="midnightblue" points="1230.46,-89.2607 1226.34,-79.5004 1223.47,-89.7005 1230.46,-89.2607"/>
</g>
<!-- Node63&#45;&gt;Node16 -->
<g id="edge312" class="edge"><title>Node63&#45;&gt;Node16</title>
<path fill="none" stroke="midnightblue" d="M2049.77,-515.142C1691.35,-504.873 0,-453.629 0,-401 0,-401 0,-401 0,-192 0,-122.758 69.7692,-136.198 136,-116 237.528,-85.0378 567.425,-72.9862 672.522,-69.8745"/>
<polygon fill="midnightblue" stroke="midnightblue" points="672.921,-73.3645 682.816,-69.5773 672.719,-66.3674 672.921,-73.3645"/>
</g>
<!-- Node63&#45;&gt;Node19 -->
<g id="edge314" class="edge"><title>Node63&#45;&gt;Node19</title>
<path fill="none" stroke="midnightblue" d="M2182.25,-510.758C2335.41,-495.439 2701,-453.385 2701,-401 2701,-401 2701,-401 2701,-336 2701,-308.341 2537.55,-184.604 2512,-174 2326.05,-96.8152 2255.63,-176.926 2054.23,-137.766"/>
<polygon fill="midnightblue" stroke="midnightblue" points="2054.72,-134.295 2044.23,-135.745 2053.34,-141.157 2054.72,-134.295"/>
</g>
<!-- Node63&#45;&gt;Node22 -->
<g id="edge306" class="edge"><title>Node63&#45;&gt;Node22</title>
<path fill="none" stroke="midnightblue" d="M2049.95,-513.667C1867.15,-503.569 1368,-469.705 1368,-401 1368,-401 1368,-401 1368,-264 1368,-209.748 1421.47,-165.546 1455.18,-143.076"/>
<polygon fill="midnightblue" stroke="midnightblue" points="1457.18,-145.947 1463.68,-137.581 1453.38,-140.066 1457.18,-145.947"/>
</g>
<!-- Node63&#45;&gt;Node30 -->
<g id="edge310" class="edge"><title>Node63&#45;&gt;Node30</title>
<path fill="none" stroke="midnightblue" d="M2182.13,-515.59C2337.12,-511.825 2720.16,-499.725 2845,-470 2908.92,-454.779 2930.97,-454.598 2981,-412 3072.31,-334.258 3132.78,-198.358 3153.27,-147.224"/>
<polygon fill="midnightblue" stroke="midnightblue" points="3156.63,-148.238 3157.03,-137.65 3150.12,-145.677 3156.63,-148.238"/>
</g>
<!-- Node63&#45;&gt;Node34 -->
<g id="edge308" class="edge"><title>Node63&#45;&gt;Node34</title>
<path fill="none" stroke="midnightblue" d="M2120.13,-506.372C2123.55,-496.974 2128.13,-482.806 2130,-470 2139.74,-403.151 2143.25,-384.244 2130,-318 2122.88,-282.417 2083.84,-193.115 2053,-174 1994.8,-137.933 1815,-146.021 1747,-138 1723.92,-135.277 1697.62,-132.166 1678.89,-129.948"/>
<polygon fill="midnightblue" stroke="midnightblue" points="1679.16,-126.456 1668.82,-128.756 1678.34,-133.407 1679.16,-126.456"/>
</g>
<!-- Node63&#45;&gt;Node38 -->
<g id="edge302" class="edge"><title>Node63&#45;&gt;Node38</title>
<path fill="none" stroke="midnightblue" d="M2070.18,-506.497C2027.69,-496.755 1964.34,-482.233 1918.89,-471.813"/>
<polygon fill="midnightblue" stroke="midnightblue" points="1919.43,-468.346 1908.9,-469.523 1917.87,-475.169 1919.43,-468.346"/>
</g>
<!-- Node64 -->
<g id="node212" class="node"><title>Node64</title>
<a xlink:href="_unpacker_8h.html" target="_top" xlink:title="Unpacker.h">
<polygon fill="white" stroke="black" points="2957.5,-181.5 2957.5,-202.5 3024.5,-202.5 3024.5,-181.5 2957.5,-181.5"/>
<text text-anchor="middle" x="2991" y="-189.5" font-family="Helvetica,sans-Serif" font-size="10.00">Unpacker.h</text>
</a>
</g>
<!-- Node63&#45;&gt;Node64 -->
<g id="edge296" class="edge"><title>Node63&#45;&gt;Node64</title>
<path fill="none" stroke="midnightblue" d="M2182.15,-514.935C2382.33,-507.814 2968,-480.212 2968,-401 2968,-401 2968,-401 2968,-336 2968,-291.523 2978.83,-240.276 2985.63,-212.496"/>
<polygon fill="midnightblue" stroke="midnightblue" points="2989.04,-213.297 2988.09,-202.745 2982.25,-211.586 2989.04,-213.297"/>
</g>
<!-- Node64&#45;&gt;Node20 -->
<g id="edge298" class="edge"><title>Node64&#45;&gt;Node20</title>
<path fill="none" stroke="midnightblue" d="M3016.65,-181.493C3023.52,-178.866 3030.99,-176.179 3038,-174 3105.86,-152.904 3232.75,-170.373 3187,-116 3156.63,-79.9077 3011.73,-71.5307 2947.16,-69.587"/>
<polygon fill="midnightblue" stroke="midnightblue" points="2946.89,-66.0786 2936.8,-69.3101 2946.7,-73.0761 2946.89,-66.0786"/>
</g>
<!-- Node64&#45;&gt;Node22 -->
<g id="edge300" class="edge"><title>Node64&#45;&gt;Node22</title>
<path fill="none" stroke="midnightblue" d="M2957.4,-188.249C2918.76,-184.081 2853.38,-177.483 2797,-174 2279.52,-142.035 2148.76,-165.092 1631,-138 1592.42,-135.981 1548.3,-132.588 1518.14,-130.103"/>
<polygon fill="midnightblue" stroke="midnightblue" points="1518.34,-126.608 1508.09,-129.266 1517.76,-133.584 1518.34,-126.608"/>
</g>
</g>
</svg>
