<?xml version="1.0" encoding="UTF-8" standalone="no"?>
<!DOCTYPE svg PUBLIC "-//W3C//DTD SVG 1.1//EN"
 "http://www.w3.org/Graphics/SVG/1.1/DTD/svg11.dtd">
<!-- Generated by graphviz version 2.26.3 (20100126.1600)
 -->
<!-- Title: src/base/GitInfo.h Pages: 1 -->
<svg width="2293pt" height="316pt"
 viewBox="0.00 0.00 2293.00 316.00" xmlns="http://www.w3.org/2000/svg" xmlns:xlink="http://www.w3.org/1999/xlink">
<g id="graph1" class="graph" transform="scale(1 1) rotate(0) translate(4 312)">
<title>src/base/GitInfo.h</title>
<polygon fill="white" stroke="white" points="-4,5 -4,-312 2290,-312 2290,5 -4,5"/>
<!-- Node1 -->
<g id="node1" class="node"><title>Node1</title>
<polygon fill="#bfbfbf" stroke="black" points="931.5,-286.5 931.5,-307.5 1026.5,-307.5 1026.5,-286.5 931.5,-286.5"/>
<text text-anchor="middle" x="979" y="-294.5" font-family="Helvetica,sans-Serif" font-size="10.00">src/base/GitInfo.h</text>
</g>
<!-- Node2 -->
<g id="node3" class="node"><title>Node2</title>
<a xlink:href="_ant_8cc.html" target="_top" xlink:title="Main Ant executable. ">
<polygon fill="white" stroke="black" points="0,-79.5 0,-100.5 72,-100.5 72,-79.5 0,-79.5"/>
<text text-anchor="middle" x="36" y="-87.5" font-family="Helvetica,sans-Serif" font-size="10.00">progs/Ant.cc</text>
</a>
</g>
<!-- Node1&#45;&gt;Node2 -->
<g id="edge2" class="edge"><title>Node1&#45;&gt;Node2</title>
<path fill="none" stroke="midnightblue" d="M921.36,-293.087C736.463,-280.13 166.252,-236.894 97,-192 63.0652,-170.001 45.336,-121.898 38.8895,-100.557"/>
<polygon fill="midnightblue" stroke="midnightblue" points="921.209,-296.584 931.428,-293.789 921.696,-289.601 921.209,-296.584"/>
</g>
<!-- Node3 -->
<g id="node5" class="node"><title>Node3</title>
<a xlink:href="_git_info_8cc.html" target="_top" xlink:title="src/base/GitInfo.cc">
<polygon fill="white" stroke="black" points="1064,-228.5 1064,-249.5 1164,-249.5 1164,-228.5 1064,-228.5"/>
<text text-anchor="middle" x="1114" y="-236.5" font-family="Helvetica,sans-Serif" font-size="10.00">src/base/GitInfo.cc</text>
</a>
</g>
<!-- Node1&#45;&gt;Node3 -->
<g id="edge4" class="edge"><title>Node1&#45;&gt;Node3</title>
<path fill="none" stroke="midnightblue" d="M1012.8,-282.479C1036.56,-272.269 1067.82,-258.839 1089.28,-249.621"/>
<polygon fill="midnightblue" stroke="midnightblue" points="1011.25,-279.333 1003.45,-286.497 1014.02,-285.765 1011.25,-279.333"/>
</g>
<!-- Node4 -->
<g id="node7" class="node"><title>Node4</title>
<a xlink:href="_t_calibration_data_8h.html" target="_top" xlink:title="src/tree/TCalibrationData.h">
<polygon fill="white" stroke="black" points="912,-228.5 912,-249.5 1046,-249.5 1046,-228.5 912,-228.5"/>
<text text-anchor="middle" x="979" y="-236.5" font-family="Helvetica,sans-Serif" font-size="10.00">src/tree/TCalibrationData.h</text>
</a>
</g>
<!-- Node1&#45;&gt;Node4 -->
<g id="edge6" class="edge"><title>Node1&#45;&gt;Node4</title>
<path fill="none" stroke="midnightblue" d="M979,-276.191C979,-267.168 979,-256.994 979,-249.571"/>
<polygon fill="midnightblue" stroke="midnightblue" points="975.5,-276.362 979,-286.362 982.5,-276.362 975.5,-276.362"/>
</g>
<!-- Node5 -->
<g id="node9" class="node"><title>Node5</title>
<a xlink:href="_ant-calib-regedit_8cc.html" target="_top" xlink:title="progs/Ant&#45;calib&#45;regedit.cc">
<polygon fill="white" stroke="black" points="269,-157.5 269,-178.5 397,-178.5 397,-157.5 269,-157.5"/>
<text text-anchor="middle" x="333" y="-165.5" font-family="Helvetica,sans-Serif" font-size="10.00">progs/Ant&#45;calib&#45;regedit.cc</text>
</a>
</g>
<!-- Node4&#45;&gt;Node5 -->
<g id="edge8" class="edge"><title>Node4&#45;&gt;Node5</title>
<path fill="none" stroke="midnightblue" d="M901.729,-234.925C767.959,-227.492 498.663,-210.759 406,-192 390.44,-188.85 373.572,-183.443 359.974,-178.557"/>
<polygon fill="midnightblue" stroke="midnightblue" points="901.725,-238.43 911.903,-235.487 902.111,-231.44 901.725,-238.43"/>
</g>
<!-- Node6 -->
<g id="node11" class="node"><title>Node6</title>
<a xlink:href="_ant-calib-viewer_8cc.html" target="_top" xlink:title="progs/Ant&#45;calib&#45;viewer.cc">
<polygon fill="white" stroke="black" points="89.5,-79.5 89.5,-100.5 216.5,-100.5 216.5,-79.5 89.5,-79.5"/>
<text text-anchor="middle" x="153" y="-87.5" font-family="Helvetica,sans-Serif" font-size="10.00">progs/Ant&#45;calib&#45;viewer.cc</text>
</a>
</g>
<!-- Node4&#45;&gt;Node6 -->
<g id="edge10" class="edge"><title>Node4&#45;&gt;Node6</title>
<path fill="none" stroke="midnightblue" d="M901.62,-237.67C693.747,-233.72 137.015,-220.516 110,-192 84.4915,-165.075 121.885,-120.773 141.835,-100.6"/>
<polygon fill="midnightblue" stroke="midnightblue" points="901.781,-241.173 911.845,-237.862 901.913,-234.174 901.781,-241.173"/>
</g>
<!-- Node7 -->
<g id="node13" class="node"><title>Node7</title>
<a xlink:href="_ant-make_tagg_eff_8cc.html" target="_top" xlink:title="progs/Ant&#45;makeTaggEff.cc">
<polygon fill="white" stroke="black" points="415,-157.5 415,-178.5 549,-178.5 549,-157.5 415,-157.5"/>
<text text-anchor="middle" x="482" y="-165.5" font-family="Helvetica,sans-Serif" font-size="10.00">progs/Ant&#45;makeTaggEff.cc</text>
</a>
</g>
<!-- Node4&#45;&gt;Node7 -->
<g id="edge12" class="edge"><title>Node4&#45;&gt;Node7</title>
<path fill="none" stroke="midnightblue" d="M901.553,-234.884C816.545,-229.319 676.403,-217.055 558,-192 542.162,-188.649 524.926,-183.347 510.878,-178.579"/>
<polygon fill="midnightblue" stroke="midnightblue" points="901.438,-238.384 911.641,-235.53 901.885,-231.398 901.438,-238.384"/>
</g>
<!-- Node8 -->
<g id="node15" class="node"><title>Node8</title>
<a xlink:href="_ant-mcsmearing_8cc.html" target="_top" xlink:title="progs/Ant&#45;mcsmearing.cc">
<polygon fill="white" stroke="black" points="567,-157.5 567,-178.5 695,-178.5 695,-157.5 567,-157.5"/>
<text text-anchor="middle" x="631" y="-165.5" font-family="Helvetica,sans-Serif" font-size="10.00">progs/Ant&#45;mcsmearing.cc</text>
</a>
</g>
<!-- Node4&#45;&gt;Node8 -->
<g id="edge14" class="edge"><title>Node4&#45;&gt;Node8</title>
<path fill="none" stroke="midnightblue" d="M902.043,-228.247C847.735,-220.016 773.464,-207.463 709,-192 693.432,-188.266 676.41,-183.152 662.251,-178.604"/>
<polygon fill="midnightblue" stroke="midnightblue" points="901.536,-231.71 911.945,-229.733 902.575,-224.787 901.536,-231.71"/>
</g>
<!-- Node9 -->
<g id="node17" class="node"><title>Node9</title>
<a xlink:href="_data_base_8h.html" target="_top" xlink:title="src/calibration/DataBase.h">
<polygon fill="white" stroke="black" points="119,-157.5 119,-178.5 251,-178.5 251,-157.5 119,-157.5"/>
<text text-anchor="middle" x="185" y="-165.5" font-family="Helvetica,sans-Serif" font-size="10.00">src/calibration/DataBase.h</text>
</a>
</g>
<!-- Node4&#45;&gt;Node9 -->
<g id="edge16" class="edge"><title>Node4&#45;&gt;Node9</title>
<path fill="none" stroke="midnightblue" d="M901.738,-236.336C742.202,-230.445 381.162,-214.987 260,-192 243.882,-188.942 226.395,-183.478 212.364,-178.535"/>
<polygon fill="midnightblue" stroke="midnightblue" points="901.829,-239.842 911.95,-236.711 902.085,-232.847 901.829,-239.842"/>
</g>
<!-- Node11 -->
<g id="node23" class="node"><title>Node11</title>
<a xlink:href="_data_manager_8cc.html" target="_top" xlink:title="src/calibration/DataManager.cc">
<polygon fill="white" stroke="black" points="388,-79.5 388,-100.5 540,-100.5 540,-79.5 388,-79.5"/>
<text text-anchor="middle" x="464" y="-87.5" font-family="Helvetica,sans-Serif" font-size="10.00">src/calibration/DataManager.cc</text>
</a>
</g>
<!-- Node4&#45;&gt;Node11 -->
<g id="edge28" class="edge"><title>Node4&#45;&gt;Node11</title>
<path fill="none" stroke="midnightblue" d="M901.636,-230.411C841.401,-222.554 763.69,-209.493 737,-192 715.347,-177.809 725.441,-158.509 704,-144 700.004,-141.296 582.008,-115.491 512.984,-100.554"/>
<polygon fill="midnightblue" stroke="midnightblue" points="901.538,-233.927 911.901,-231.722 902.425,-226.983 901.538,-233.927"/>
</g>
<!-- Node12 -->
<g id="node25" class="node"><title>Node12</title>
<a xlink:href="_test_data_manager_8cc.html" target="_top" xlink:title="test/calibration/TestData\lManager.cc">
<polygon fill="white" stroke="black" points="558,-73 558,-107 682,-107 682,-73 558,-73"/>
<text text-anchor="start" x="566" y="-94" font-family="Helvetica,sans-Serif" font-size="10.00">test/calibration/TestData</text>
<text text-anchor="middle" x="620" y="-81" font-family="Helvetica,sans-Serif" font-size="10.00">Manager.cc</text>
</a>
</g>
<!-- Node4&#45;&gt;Node12 -->
<g id="edge68" class="edge"><title>Node4&#45;&gt;Node12</title>
<path fill="none" stroke="midnightblue" d="M901.436,-231.763C862.832,-225.496 816.7,-213.805 780,-192 755.377,-177.37 760.036,-161.021 737,-144 716.218,-128.645 690.373,-116.153 668.263,-107.067"/>
<polygon fill="midnightblue" stroke="midnightblue" points="901.179,-235.264 911.593,-233.316 902.237,-228.344 901.179,-235.264"/>
</g>
<!-- Node13 -->
<g id="node28" class="node"><title>Node13</title>
<a xlink:href="_editor_8h.html" target="_top" xlink:title="src/calibration/Editor.h">
<polygon fill="white" stroke="black" points="789,-157.5 789,-178.5 903,-178.5 903,-157.5 789,-157.5"/>
<text text-anchor="middle" x="846" y="-165.5" font-family="Helvetica,sans-Serif" font-size="10.00">src/calibration/Editor.h</text>
</a>
</g>
<!-- Node4&#45;&gt;Node13 -->
<g id="edge30" class="edge"><title>Node4&#45;&gt;Node13</title>
<path fill="none" stroke="midnightblue" d="M949.935,-223.484C924.539,-209.927 888.337,-190.601 866.048,-178.702"/>
<polygon fill="midnightblue" stroke="midnightblue" points="948.619,-226.749 959.089,-228.371 951.915,-220.574 948.619,-226.749"/>
</g>
<!-- Node20 -->
<g id="node45" class="node"><title>Node20</title>
<a xlink:href="calibration_2modules_2_c_b___time_walk_8cc.html" target="_top" xlink:title="src/calibration/modules\l/CB_TimeWalk.cc">
<polygon fill="white" stroke="black" points="920.5,-151 920.5,-185 1037.5,-185 1037.5,-151 920.5,-151"/>
<text text-anchor="start" x="928.5" y="-172" font-family="Helvetica,sans-Serif" font-size="10.00">src/calibration/modules</text>
<text text-anchor="middle" x="979" y="-159" font-family="Helvetica,sans-Serif" font-size="10.00">/CB_TimeWalk.cc</text>
</a>
</g>
<!-- Node4&#45;&gt;Node20 -->
<g id="edge50" class="edge"><title>Node4&#45;&gt;Node20</title>
<path fill="none" stroke="midnightblue" d="M979,-217.914C979,-207.499 979,-195.09 979,-185.251"/>
<polygon fill="midnightblue" stroke="midnightblue" points="975.5,-218.217 979,-228.217 982.5,-218.217 975.5,-218.217"/>
</g>
<!-- Node21 -->
<g id="node47" class="node"><title>Node21</title>
<a xlink:href="_cluster_smearing_8cc.html" target="_top" xlink:title="src/calibration/modules\l/ClusterSmearing.cc">
<polygon fill="white" stroke="black" points="1054.5,-151 1054.5,-185 1171.5,-185 1171.5,-151 1054.5,-151"/>
<text text-anchor="start" x="1062.5" y="-172" font-family="Helvetica,sans-Serif" font-size="10.00">src/calibration/modules</text>
<text text-anchor="middle" x="1113" y="-159" font-family="Helvetica,sans-Serif" font-size="10.00">/ClusterSmearing.cc</text>
</a>
</g>
<!-- Node4&#45;&gt;Node21 -->
<g id="edge52" class="edge"><title>Node4&#45;&gt;Node21</title>
<path fill="none" stroke="midnightblue" d="M1008.02,-223.622C1029.47,-212.261 1058.66,-196.794 1080.81,-185.054"/>
<polygon fill="midnightblue" stroke="midnightblue" points="1006.26,-220.596 999.061,-228.371 1009.54,-226.781 1006.26,-220.596"/>
</g>
<!-- Node22 -->
<g id="node49" class="node"><title>Node22</title>
<a xlink:href="_t_h2_storage_8cc.html" target="_top" xlink:title="src/calibration/modules\l/detail/TH2Storage.cc">
<polygon fill="white" stroke="black" points="1188.5,-151 1188.5,-185 1305.5,-185 1305.5,-151 1188.5,-151"/>
<text text-anchor="start" x="1196.5" y="-172" font-family="Helvetica,sans-Serif" font-size="10.00">src/calibration/modules</text>
<text text-anchor="middle" x="1247" y="-159" font-family="Helvetica,sans-Serif" font-size="10.00">/detail/TH2Storage.cc</text>
</a>
</g>
<!-- Node4&#45;&gt;Node22 -->
<g id="edge54" class="edge"><title>Node4&#45;&gt;Node22</title>
<path fill="none" stroke="midnightblue" d="M1041.35,-226.345C1081.29,-217.767 1134.05,-205.553 1180,-192 1186.99,-189.938 1194.32,-187.551 1201.46,-185.099"/>
<polygon fill="midnightblue" stroke="midnightblue" points="1040.54,-222.94 1031.49,-228.446 1042,-229.786 1040.54,-222.94"/>
</g>
<!-- Node23 -->
<g id="node51" class="node"><title>Node23</title>
<a xlink:href="_energy_8cc.html" target="_top" xlink:title="src/calibration/modules\l/Energy.cc">
<polygon fill="white" stroke="black" points="1322.5,-151 1322.5,-185 1439.5,-185 1439.5,-151 1322.5,-151"/>
<text text-anchor="start" x="1330.5" y="-172" font-family="Helvetica,sans-Serif" font-size="10.00">src/calibration/modules</text>
<text text-anchor="middle" x="1381" y="-159" font-family="Helvetica,sans-Serif" font-size="10.00">/Energy.cc</text>
</a>
</g>
<!-- Node4&#45;&gt;Node23 -->
<g id="edge56" class="edge"><title>Node4&#45;&gt;Node23</title>
<path fill="none" stroke="midnightblue" d="M1056.1,-227.876C1171.83,-212.091 1204.23,-218.984 1314,-192 1321.68,-190.112 1329.71,-187.669 1337.43,-185.065"/>
<polygon fill="midnightblue" stroke="midnightblue" points="1055.56,-224.417 1046.13,-229.262 1056.52,-231.35 1055.56,-224.417"/>
</g>
<!-- Node24 -->
<g id="node53" class="node"><title>Node24</title>
<a xlink:href="calibration_2modules_2_p_i_d___phi_angle_8cc.html" target="_top" xlink:title="src/calibration/modules\l/PID_PhiAngle.cc">
<polygon fill="white" stroke="black" points="1456.5,-151 1456.5,-185 1573.5,-185 1573.5,-151 1456.5,-151"/>
<text text-anchor="start" x="1464.5" y="-172" font-family="Helvetica,sans-Serif" font-size="10.00">src/calibration/modules</text>
<text text-anchor="middle" x="1515" y="-159" font-family="Helvetica,sans-Serif" font-size="10.00">/PID_PhiAngle.cc</text>
</a>
</g>
<!-- Node4&#45;&gt;Node24 -->
<g id="edge58" class="edge"><title>Node4&#45;&gt;Node24</title>
<path fill="none" stroke="midnightblue" d="M1056.16,-227.931C1230.99,-208.243 1279.92,-229.173 1448,-192 1456.08,-190.212 1464.52,-187.716 1472.58,-185.006"/>
<polygon fill="midnightblue" stroke="midnightblue" points="1055.64,-224.468 1046.11,-229.092 1056.45,-231.422 1055.64,-224.468"/>
</g>
<!-- Node25 -->
<g id="node55" class="node"><title>Node25</title>
<a xlink:href="_tagg_eff_8cc.html" target="_top" xlink:title="src/calibration/modules\l/TaggEff.cc">
<polygon fill="white" stroke="black" points="1590.5,-151 1590.5,-185 1707.5,-185 1707.5,-151 1590.5,-151"/>
<text text-anchor="start" x="1598.5" y="-172" font-family="Helvetica,sans-Serif" font-size="10.00">src/calibration/modules</text>
<text text-anchor="middle" x="1649" y="-159" font-family="Helvetica,sans-Serif" font-size="10.00">/TaggEff.cc</text>
</a>
</g>
<!-- Node4&#45;&gt;Node25 -->
<g id="edge60" class="edge"><title>Node4&#45;&gt;Node25</title>
<path fill="none" stroke="midnightblue" d="M1056.29,-227.947C1290.29,-204.195 1355.45,-239.361 1582,-192 1590.22,-190.281 1598.81,-187.781 1606.98,-185.038"/>
<polygon fill="midnightblue" stroke="midnightblue" points="1055.69,-224.491 1046.1,-229.007 1056.41,-231.453 1055.69,-224.491"/>
</g>
<!-- Node26 -->
<g id="node57" class="node"><title>Node26</title>
<a xlink:href="_t_a_p_s___to_f_8cc.html" target="_top" xlink:title="src/calibration/modules\l/TAPS_ToF.cc">
<polygon fill="white" stroke="black" points="1724.5,-151 1724.5,-185 1841.5,-185 1841.5,-151 1724.5,-151"/>
<text text-anchor="start" x="1732.5" y="-172" font-family="Helvetica,sans-Serif" font-size="10.00">src/calibration/modules</text>
<text text-anchor="middle" x="1783" y="-159" font-family="Helvetica,sans-Serif" font-size="10.00">/TAPS_ToF.cc</text>
</a>
</g>
<!-- Node4&#45;&gt;Node26 -->
<g id="edge62" class="edge"><title>Node4&#45;&gt;Node26</title>
<path fill="none" stroke="midnightblue" d="M1056.18,-227.975C1349.59,-200.038 1430.84,-249.563 1716,-192 1724.36,-190.313 1733.08,-187.792 1741.36,-185.009"/>
<polygon fill="midnightblue" stroke="midnightblue" points="1055.71,-224.504 1046.1,-228.957 1056.39,-231.471 1055.71,-224.504"/>
</g>
<!-- Node27 -->
<g id="node59" class="node"><title>Node27</title>
<a xlink:href="calibration_2modules_2_time_8cc.html" target="_top" xlink:title="src/calibration/modules\l/Time.cc">
<polygon fill="white" stroke="black" points="1858.5,-151 1858.5,-185 1975.5,-185 1975.5,-151 1858.5,-151"/>
<text text-anchor="start" x="1866.5" y="-172" font-family="Helvetica,sans-Serif" font-size="10.00">src/calibration/modules</text>
<text text-anchor="middle" x="1917" y="-159" font-family="Helvetica,sans-Serif" font-size="10.00">/Time.cc</text>
</a>
</g>
<!-- Node4&#45;&gt;Node27 -->
<g id="edge64" class="edge"><title>Node4&#45;&gt;Node27</title>
<path fill="none" stroke="midnightblue" d="M1056.07,-227.995C1408.92,-195.836 1506.2,-259.765 1850,-192 1858.36,-190.351 1867.09,-187.848 1875.37,-185.07"/>
<polygon fill="midnightblue" stroke="midnightblue" points="1055.73,-224.512 1046.09,-228.923 1056.38,-231.482 1055.73,-224.512"/>
</g>
<!-- Node28 -->
<g id="node61" class="node"><title>Node28</title>
<a xlink:href="_two_pi0___m_c_smearing__tools_8cc.html" target="_top" xlink:title="src/root&#45;addons/analysis\l_codes/TwoPi0_MCSmearing\l_tools.cc">
<polygon fill="white" stroke="black" points="1993,-144.5 1993,-191.5 2139,-191.5 2139,-144.5 1993,-144.5"/>
<text text-anchor="start" x="2001" y="-178.5" font-family="Helvetica,sans-Serif" font-size="10.00">src/root&#45;addons/analysis</text>
<text text-anchor="start" x="2001" y="-165.5" font-family="Helvetica,sans-Serif" font-size="10.00">_codes/TwoPi0_MCSmearing</text>
<text text-anchor="middle" x="2066" y="-152.5" font-family="Helvetica,sans-Serif" font-size="10.00">_tools.cc</text>
</a>
</g>
<!-- Node4&#45;&gt;Node28 -->
<g id="edge66" class="edge"><title>Node4&#45;&gt;Node28</title>
<path fill="none" stroke="midnightblue" d="M1056.19,-227.989C1468.27,-191.444 1579.48,-258 1984,-192 1986.93,-191.522 1989.9,-190.973 1992.89,-190.365"/>
<polygon fill="midnightblue" stroke="midnightblue" points="1055.74,-224.515 1046.09,-228.9 1056.37,-231.487 1055.74,-224.515"/>
</g>
<!-- Node29 -->
<g id="node64" class="node"><title>Node29</title>
<a xlink:href="_test_t_calibration_data_8cc.html" target="_top" xlink:title="test/tree/TestTCalibration\lData.cc">
<polygon fill="white" stroke="black" points="2157,-151 2157,-185 2285,-185 2285,-151 2157,-151"/>
<text text-anchor="start" x="2165" y="-172" font-family="Helvetica,sans-Serif" font-size="10.00">test/tree/TestTCalibration</text>
<text text-anchor="middle" x="2221" y="-159" font-family="Helvetica,sans-Serif" font-size="10.00">Data.cc</text>
</a>
</g>
<!-- Node4&#45;&gt;Node29 -->
<g id="edge70" class="edge"><title>Node4&#45;&gt;Node29</title>
<path fill="none" stroke="midnightblue" d="M1056.2,-228.022C1313.14,-207.283 1911.86,-233.82 2148,-192 2157.2,-190.371 2166.82,-187.839 2175.95,-185.019"/>
<polygon fill="midnightblue" stroke="midnightblue" points="1055.76,-224.547 1046.09,-228.878 1056.35,-231.522 1055.76,-224.547"/>
</g>
<!-- Node9&#45;&gt;Node2 -->
<g id="edge20" class="edge"><title>Node9&#45;&gt;Node2</title>
<path fill="none" stroke="midnightblue" d="M155.952,-152.794C126.592,-137.424 81.9901,-114.075 56.2523,-100.602"/>
<polygon fill="midnightblue" stroke="midnightblue" points="154.422,-155.943 164.905,-157.481 157.669,-149.742 154.422,-155.943"/>
</g>
<!-- Node9&#45;&gt;Node6 -->
<g id="edge18" class="edge"><title>Node9&#45;&gt;Node6</title>
<path fill="none" stroke="midnightblue" d="M176.788,-147.983C170.589,-132.873 162.327,-112.734 157.349,-100.602"/>
<polygon fill="midnightblue" stroke="midnightblue" points="173.651,-149.557 180.684,-157.481 180.127,-146.9 173.651,-149.557"/>
</g>
<!-- Node10 -->
<g id="node21" class="node"><title>Node10</title>
<a xlink:href="_data_base_8cc.html" target="_top" xlink:title="src/calibration/DataBase.cc">
<polygon fill="white" stroke="black" points="233.5,-79.5 233.5,-100.5 370.5,-100.5 370.5,-79.5 233.5,-79.5"/>
<text text-anchor="middle" x="302" y="-87.5" font-family="Helvetica,sans-Serif" font-size="10.00">src/calibration/DataBase.cc</text>
</a>
</g>
<!-- Node9&#45;&gt;Node10 -->
<g id="edge22" class="edge"><title>Node9&#45;&gt;Node10</title>
<path fill="none" stroke="midnightblue" d="M209.323,-151.785C232.373,-136.418 266.324,-113.784 286.097,-100.602"/>
<polygon fill="midnightblue" stroke="midnightblue" points="207.158,-149.021 200.779,-157.481 211.041,-154.846 207.158,-149.021"/>
</g>
<!-- Node9&#45;&gt;Node11 -->
<g id="edge24" class="edge"><title>Node9&#45;&gt;Node11</title>
<path fill="none" stroke="midnightblue" d="M226.361,-154.349C237.267,-150.863 249.049,-147.199 260,-144 315.563,-127.767 380.248,-111.002 421.63,-100.545"/>
<polygon fill="midnightblue" stroke="midnightblue" points="225.084,-151.083 216.639,-157.481 227.231,-157.746 225.084,-151.083"/>
</g>
<!-- Node9&#45;&gt;Node12 -->
<g id="edge26" class="edge"><title>Node9&#45;&gt;Node12</title>
<path fill="none" stroke="midnightblue" d="M223.66,-154.117C235.227,-150.376 248.021,-146.639 260,-144 386.407,-116.155 421.798,-131.951 549,-108 551.874,-107.459 554.805,-106.87 557.759,-106.245"/>
<polygon fill="midnightblue" stroke="midnightblue" points="222.245,-150.899 213.862,-157.378 224.456,-157.541 222.245,-150.899"/>
</g>
<!-- Node14 -->
<g id="node30" class="node"><title>Node14</title>
<a xlink:href="_editor_8cc.html" target="_top" xlink:title="src/calibration/Editor.cc">
<polygon fill="white" stroke="black" points="699.5,-79.5 699.5,-100.5 818.5,-100.5 818.5,-79.5 699.5,-79.5"/>
<text text-anchor="middle" x="759" y="-87.5" font-family="Helvetica,sans-Serif" font-size="10.00">src/calibration/Editor.cc</text>
</a>
</g>
<!-- Node13&#45;&gt;Node14 -->
<g id="edge32" class="edge"><title>Node13&#45;&gt;Node14</title>
<path fill="none" stroke="midnightblue" d="M826.532,-150.546C809.441,-135.223 785.138,-113.434 770.825,-100.602"/>
<polygon fill="midnightblue" stroke="midnightblue" points="824.485,-153.411 834.267,-157.481 829.157,-148.199 824.485,-153.411"/>
</g>
<!-- Node15 -->
<g id="node32" class="node"><title>Node15</title>
<a xlink:href="_editor_canvas_8h.html" target="_top" xlink:title="src/calibration/gui\l/EditorCanvas.h">
<polygon fill="white" stroke="black" points="873.5,-73 873.5,-107 966.5,-107 966.5,-73 873.5,-73"/>
<text text-anchor="start" x="881.5" y="-94" font-family="Helvetica,sans-Serif" font-size="10.00">src/calibration/gui</text>
<text text-anchor="middle" x="920" y="-81" font-family="Helvetica,sans-Serif" font-size="10.00">/EditorCanvas.h</text>
</a>
</g>
<!-- Node13&#45;&gt;Node15 -->
<g id="edge34" class="edge"><title>Node13&#45;&gt;Node15</title>
<path fill="none" stroke="midnightblue" d="M862.977,-150.105C875.204,-137.217 891.605,-119.93 903.679,-107.203"/>
<polygon fill="midnightblue" stroke="midnightblue" points="860.323,-147.817 855.98,-157.481 865.402,-152.635 860.323,-147.817"/>
</g>
<!-- Node16 -->
<g id="node34" class="node"><title>Node16</title>
<a xlink:href="_editor_canvas_8cc.html" target="_top" xlink:title="src/calibration/gui\l/EditorCanvas.cc">
<polygon fill="white" stroke="black" points="835.5,-1 835.5,-35 928.5,-35 928.5,-1 835.5,-1"/>
<text text-anchor="start" x="843.5" y="-22" font-family="Helvetica,sans-Serif" font-size="10.00">src/calibration/gui</text>
<text text-anchor="middle" x="882" y="-9" font-family="Helvetica,sans-Serif" font-size="10.00">/EditorCanvas.cc</text>
</a>
</g>
<!-- Node13&#45;&gt;Node16 -->
<g id="edge40" class="edge"><title>Node13&#45;&gt;Node16</title>
<path fill="none" stroke="midnightblue" d="M849.415,-147.333C852.803,-127.791 858.429,-97.7138 865,-72 868.164,-59.6206 872.498,-45.8889 875.998,-35.3706"/>
<polygon fill="midnightblue" stroke="midnightblue" points="845.953,-146.815 847.73,-157.26 852.854,-147.986 845.953,-146.815"/>
</g>
<!-- Node18 -->
<g id="node39" class="node"><title>Node18</title>
<a xlink:href="_editor_window_8h.html" target="_top" xlink:title="src/calibration/gui\l/EditorWindow.h">
<polygon fill="white" stroke="black" points="983.5,-73 983.5,-107 1076.5,-107 1076.5,-73 983.5,-73"/>
<text text-anchor="start" x="991.5" y="-94" font-family="Helvetica,sans-Serif" font-size="10.00">src/calibration/gui</text>
<text text-anchor="middle" x="1030" y="-81" font-family="Helvetica,sans-Serif" font-size="10.00">/EditorWindow.h</text>
</a>
</g>
<!-- Node13&#45;&gt;Node18 -->
<g id="edge42" class="edge"><title>Node13&#45;&gt;Node18</title>
<path fill="none" stroke="midnightblue" d="M880.338,-153.444C911.362,-140.292 957.043,-120.928 989.768,-107.055"/>
<polygon fill="midnightblue" stroke="midnightblue" points="878.656,-150.355 870.815,-157.481 881.388,-156.8 878.656,-150.355"/>
</g>
<!-- Node15&#45;&gt;Node16 -->
<g id="edge36" class="edge"><title>Node15&#45;&gt;Node16</title>
<path fill="none" stroke="midnightblue" d="M906.229,-63.9077C901.232,-54.4402 895.712,-43.9813 891.205,-35.4407"/>
<polygon fill="midnightblue" stroke="midnightblue" points="903.232,-65.7268 910.995,-72.937 909.422,-62.4595 903.232,-65.7268"/>
</g>
<!-- Node17 -->
<g id="node36" class="node"><title>Node17</title>
<a xlink:href="_editor_window_8cc.html" target="_top" xlink:title="src/calibration/gui\l/EditorWindow.cc">
<polygon fill="white" stroke="black" points="946,-1 946,-35 1040,-35 1040,-1 946,-1"/>
<text text-anchor="start" x="954" y="-22" font-family="Helvetica,sans-Serif" font-size="10.00">src/calibration/gui</text>
<text text-anchor="middle" x="993" y="-9" font-family="Helvetica,sans-Serif" font-size="10.00">/EditorWindow.cc</text>
</a>
</g>
<!-- Node15&#45;&gt;Node17 -->
<g id="edge38" class="edge"><title>Node15&#45;&gt;Node17</title>
<path fill="none" stroke="midnightblue" d="M944.426,-65.9083C954.631,-55.8438 966.254,-44.3799 975.571,-35.19"/>
<polygon fill="midnightblue" stroke="midnightblue" points="941.962,-63.4229 937.3,-72.937 946.877,-68.4067 941.962,-63.4229"/>
</g>
<!-- Node18&#45;&gt;Node16 -->
<g id="edge46" class="edge"><title>Node18&#45;&gt;Node16</title>
<path fill="none" stroke="midnightblue" d="M985.796,-68.4954C963.825,-57.8069 937.648,-45.0718 917.078,-35.0651"/>
<polygon fill="midnightblue" stroke="midnightblue" points="984.403,-71.7096 994.926,-72.937 987.465,-65.415 984.403,-71.7096"/>
</g>
<!-- Node18&#45;&gt;Node17 -->
<g id="edge48" class="edge"><title>Node18&#45;&gt;Node17</title>
<path fill="none" stroke="midnightblue" d="M1016.59,-63.9077C1011.73,-54.4402 1006.35,-43.9813 1001.96,-35.4407"/>
<polygon fill="midnightblue" stroke="midnightblue" points="1013.55,-65.6424 1021.23,-72.937 1019.77,-62.4429 1013.55,-65.6424"/>
</g>
<!-- Node19 -->
<g id="node41" class="node"><title>Node19</title>
<a xlink:href="_ant-calib-editor_8cc.html" target="_top" xlink:title="progs/Ant&#45;calib&#45;editor.cc">
<polygon fill="white" stroke="black" points="1058,-7.5 1058,-28.5 1180,-28.5 1180,-7.5 1058,-7.5"/>
<text text-anchor="middle" x="1119" y="-15.5" font-family="Helvetica,sans-Serif" font-size="10.00">progs/Ant&#45;calib&#45;editor.cc</text>
</a>
</g>
<!-- Node18&#45;&gt;Node19 -->
<g id="edge44" class="edge"><title>Node18&#45;&gt;Node19</title>
<path fill="none" stroke="midnightblue" d="M1059.02,-66.527C1074.78,-53.7747 1093.5,-38.6265 1105.79,-28.688"/>
<polygon fill="midnightblue" stroke="midnightblue" points="1056.66,-63.9264 1051.09,-72.937 1061.07,-69.3686 1056.66,-63.9264"/>
</g>
</g>
</svg>
