<?xml version="1.0" encoding="UTF-8" standalone="no"?>
<!DOCTYPE svg PUBLIC "-//W3C//DTD SVG 1.1//EN"
 "http://www.w3.org/Graphics/SVG/1.1/DTD/svg11.dtd">
<!-- Generated by graphviz version 2.26.3 (20100126.1600)
 -->
<!-- Title: src/analysis/input/goat/GoatReader.h Pages: 1 -->
<svg width="382pt" height="116pt"
 viewBox="0.00 0.00 382.00 116.00" xmlns="http://www.w3.org/2000/svg" xmlns:xlink="http://www.w3.org/1999/xlink">
<g id="graph1" class="graph" transform="scale(1 1) rotate(0) translate(4 112)">
<title>src/analysis/input/goat/GoatReader.h</title>
<polygon fill="white" stroke="white" points="-4,5 -4,-112 379,-112 379,5 -4,5"/>
<!-- Node1 -->
<g id="node1" class="node"><title>Node1</title>
<polygon fill="#bfbfbf" stroke="black" points="92,-73 92,-107 194,-107 194,-73 92,-73"/>
<text text-anchor="start" x="100" y="-94" font-family="Helvetica,sans-Serif" font-size="10.00">src/analysis/input</text>
<text text-anchor="middle" x="143" y="-81" font-family="Helvetica,sans-Serif" font-size="10.00">/goat/GoatReader.h</text>
</g>
<!-- Node2 -->
<g id="node3" class="node"><title>Node2</title>
<a xlink:href="_ant_8cc.html" target="_top" xlink:title="Main Ant executable. ">
<polygon fill="white" stroke="black" points="0,-7.5 0,-28.5 72,-28.5 72,-7.5 0,-7.5"/>
<text text-anchor="middle" x="36" y="-15.5" font-family="Helvetica,sans-Serif" font-size="10.00">progs/Ant.cc</text>
</a>
</g>
<!-- Node1&#45;&gt;Node2 -->
<g id="edge2" class="edge"><title>Node1&#45;&gt;Node2</title>
<path fill="none" stroke="midnightblue" d="M109.156,-67.2265C89.9939,-54.3324 66.9243,-38.8088 51.8836,-28.688"/>
<polygon fill="midnightblue" stroke="midnightblue" points="107.392,-70.258 117.642,-72.937 111.3,-64.4504 107.392,-70.258"/>
</g>
<!-- Node3 -->
<g id="node5" class="node"><title>Node3</title>
<a xlink:href="_goat_reader_8cc.html" target="_top" xlink:title="src/analysis/input\l/goat/GoatReader.cc">
<polygon fill="white" stroke="black" points="89.5,-1 89.5,-35 196.5,-35 196.5,-1 89.5,-1"/>
<text text-anchor="start" x="97.5" y="-22" font-family="Helvetica,sans-Serif" font-size="10.00">src/analysis/input</text>
<text text-anchor="middle" x="143" y="-9" font-family="Helvetica,sans-Serif" font-size="10.00">/goat/GoatReader.cc</text>
</a>
</g>
<!-- Node1&#45;&gt;Node3 -->
<g id="edge4" class="edge"><title>Node1&#45;&gt;Node3</title>
<path fill="none" stroke="midnightblue" d="M143,-62.7193C143,-53.572 143,-43.6255 143,-35.4407"/>
<polygon fill="midnightblue" stroke="midnightblue" points="139.5,-62.937 143,-72.937 146.5,-62.937 139.5,-62.937"/>
</g>
<!-- Node4 -->
<g id="node7" class="node"><title>Node4</title>
<a xlink:href="_test_goat_reader_8cc.html" target="_top" xlink:title="test/analysis/TestGoatReader.cc">
<polygon fill="white" stroke="black" points="213.5,-7.5 213.5,-28.5 374.5,-28.5 374.5,-7.5 213.5,-7.5"/>
<text text-anchor="middle" x="294" y="-15.5" font-family="Helvetica,sans-Serif" font-size="10.00">test/analysis/TestGoatReader.cc</text>
</a>
</g>
<!-- Node1&#45;&gt;Node4 -->
<g id="edge6" class="edge"><title>Node1&#45;&gt;Node4</title>
<path fill="none" stroke="midnightblue" d="M187.86,-68.6099C215.442,-55.4582 249.594,-39.1736 271.585,-28.688"/>
<polygon fill="midnightblue" stroke="midnightblue" points="186.305,-65.4737 178.785,-72.937 189.318,-71.7922 186.305,-65.4737"/>
</g>
</g>
</svg>
