<?xml version="1.0" encoding="UTF-8" standalone="no"?>
<!DOCTYPE svg PUBLIC "-//W3C//DTD SVG 1.1//EN"
 "http://www.w3.org/Graphics/SVG/1.1/DTD/svg11.dtd">
<!-- Generated by graphviz version 2.26.3 (20100126.1600)
 -->
<!-- Title: src/analysis/plot/HistogramFactories.h Pages: 1 -->
<svg width="507pt" height="276pt"
 viewBox="0.00 0.00 507.00 276.00" xmlns="http://www.w3.org/2000/svg" xmlns:xlink="http://www.w3.org/1999/xlink">
<g id="graph1" class="graph" transform="scale(1 1) rotate(0) translate(4 272)">
<title>src/analysis/plot/HistogramFactories.h</title>
<polygon fill="white" stroke="white" points="-4,5 -4,-272 504,-272 504,5 -4,5"/>
<!-- Node1 -->
<g id="node1" class="node"><title>Node1</title>
<polygon fill="#bfbfbf" stroke="black" points="324,-233 324,-267 460,-267 460,-233 324,-233"/>
<text text-anchor="start" x="332" y="-254" font-family="Helvetica,sans-Serif" font-size="10.00">src/analysis/plot/Histogram</text>
<text text-anchor="middle" x="392" y="-241" font-family="Helvetica,sans-Serif" font-size="10.00">Factories.h</text>
</g>
<!-- Node2 -->
<g id="node3" class="node"><title>Node2</title>
<a xlink:href="interval_8h.html" target="_top" xlink:title="base/interval.h">
<polygon fill="white" stroke="black" points="237,-116.5 237,-137.5 317,-137.5 317,-116.5 237,-116.5"/>
<text text-anchor="middle" x="277" y="-124.5" font-family="Helvetica,sans-Serif" font-size="10.00">base/interval.h</text>
</a>
</g>
<!-- Node1&#45;&gt;Node2 -->
<g id="edge2" class="edge"><title>Node1&#45;&gt;Node2</title>
<path fill="none" stroke="midnightblue" d="M345.101,-232.797C327.441,-224.198 308.602,-212.119 296,-196 285.267,-182.272 280.591,-162.876 278.558,-148.143"/>
<polygon fill="midnightblue" stroke="midnightblue" points="282.011,-147.524 277.461,-137.956 275.052,-148.273 282.011,-147.524"/>
</g>
<!-- Node11 -->
<g id="node21" class="node"><title>Node11</title>
<a xlink:href="_bin_settings_8h.html" target="_top" xlink:title="base/BinSettings.h">
<polygon fill="white" stroke="black" points="304.5,-174.5 304.5,-195.5 403.5,-195.5 403.5,-174.5 304.5,-174.5"/>
<text text-anchor="middle" x="354" y="-182.5" font-family="Helvetica,sans-Serif" font-size="10.00">base/BinSettings.h</text>
</a>
</g>
<!-- Node1&#45;&gt;Node11 -->
<g id="edge20" class="edge"><title>Node1&#45;&gt;Node11</title>
<path fill="none" stroke="midnightblue" d="M382.016,-232.922C376.924,-224.212 370.707,-213.578 365.425,-204.542"/>
<polygon fill="midnightblue" stroke="midnightblue" points="368.413,-202.719 360.344,-195.852 362.37,-206.252 368.413,-202.719"/>
</g>
<!-- Node12 -->
<g id="node24" class="node"><title>Node12</title>
<polygon fill="white" stroke="#bfbfbf" points="402,-116.5 402,-137.5 446,-137.5 446,-116.5 402,-116.5"/>
<text text-anchor="middle" x="424" y="-124.5" font-family="Helvetica,sans-Serif" font-size="10.00">vector</text>
</g>
<!-- Node1&#45;&gt;Node12 -->
<g id="edge30" class="edge"><title>Node1&#45;&gt;Node12</title>
<path fill="none" stroke="midnightblue" d="M399.306,-232.752C403.511,-222.277 408.616,-208.548 412,-196 416.297,-180.067 419.411,-161.635 421.388,-147.831"/>
<polygon fill="midnightblue" stroke="midnightblue" points="424.861,-148.268 422.731,-137.89 417.924,-147.331 424.861,-148.268"/>
</g>
<!-- Node13 -->
<g id="node27" class="node"><title>Node13</title>
<polygon fill="white" stroke="#bfbfbf" points="458.5,-174.5 458.5,-195.5 499.5,-195.5 499.5,-174.5 458.5,-174.5"/>
<text text-anchor="middle" x="479" y="-182.5" font-family="Helvetica,sans-Serif" font-size="10.00">string</text>
</g>
<!-- Node1&#45;&gt;Node13 -->
<g id="edge28" class="edge"><title>Node1&#45;&gt;Node13</title>
<path fill="none" stroke="midnightblue" d="M414.858,-232.922C427.702,-223.326 443.672,-211.394 456.464,-201.837"/>
<polygon fill="midnightblue" stroke="midnightblue" points="458.818,-204.448 464.734,-195.658 454.628,-198.84 458.818,-204.448"/>
</g>
<!-- Node3 -->
<g id="node5" class="node"><title>Node3</title>
<a xlink:href="printable_8h.html" target="_top" xlink:title="printable.h">
<polygon fill="white" stroke="black" points="37,-58.5 37,-79.5 99,-79.5 99,-58.5 37,-58.5"/>
<text text-anchor="middle" x="68" y="-66.5" font-family="Helvetica,sans-Serif" font-size="10.00">printable.h</text>
</a>
</g>
<!-- Node2&#45;&gt;Node3 -->
<g id="edge4" class="edge"><title>Node2&#45;&gt;Node3</title>
<path fill="none" stroke="midnightblue" d="M239.152,-116.497C202.329,-106.278 146.558,-90.8007 108.771,-80.3144"/>
<polygon fill="midnightblue" stroke="midnightblue" points="109.67,-76.9317 99.0981,-77.6301 107.798,-83.6768 109.67,-76.9317"/>
</g>
<!-- Node6 -->
<g id="node11" class="node"><title>Node6</title>
<a xlink:href="types_8h.html" target="_top" xlink:title="types.h">
<polygon fill="white" stroke="black" points="116.5,-58.5 116.5,-79.5 165.5,-79.5 165.5,-58.5 116.5,-58.5"/>
<text text-anchor="middle" x="141" y="-66.5" font-family="Helvetica,sans-Serif" font-size="10.00">types.h</text>
</a>
</g>
<!-- Node2&#45;&gt;Node6 -->
<g id="edge10" class="edge"><title>Node2&#45;&gt;Node6</title>
<path fill="none" stroke="midnightblue" d="M252.371,-116.497C230.843,-107.315 199.36,-93.8889 175.355,-83.6516"/>
<polygon fill="midnightblue" stroke="midnightblue" points="176.476,-80.3247 165.905,-79.6212 173.73,-86.7636 176.476,-80.3247"/>
</g>
<!-- Node7 -->
<g id="node13" class="node"><title>Node7</title>
<polygon fill="white" stroke="#bfbfbf" points="183,-58.5 183,-79.5 239,-79.5 239,-58.5 183,-58.5"/>
<text text-anchor="middle" x="211" y="-66.5" font-family="Helvetica,sans-Serif" font-size="10.00">algorithm</text>
</g>
<!-- Node2&#45;&gt;Node7 -->
<g id="edge12" class="edge"><title>Node2&#45;&gt;Node7</title>
<path fill="none" stroke="midnightblue" d="M264.895,-116.362C255.312,-107.941 241.736,-96.0105 230.607,-86.2308"/>
<polygon fill="midnightblue" stroke="midnightblue" points="232.851,-83.5427 223.029,-79.5707 228.23,-88.8009 232.851,-83.5427"/>
</g>
<!-- Node8 -->
<g id="node15" class="node"><title>Node8</title>
<polygon fill="white" stroke="#bfbfbf" points="380.5,-58.5 380.5,-79.5 439.5,-79.5 439.5,-58.5 380.5,-58.5"/>
<text text-anchor="middle" x="410" y="-66.5" font-family="Helvetica,sans-Serif" font-size="10.00">stdexcept</text>
</g>
<!-- Node2&#45;&gt;Node8 -->
<g id="edge14" class="edge"><title>Node2&#45;&gt;Node8</title>
<path fill="none" stroke="midnightblue" d="M301.085,-116.497C322.139,-107.315 352.927,-93.8889 376.402,-83.6516"/>
<polygon fill="midnightblue" stroke="midnightblue" points="377.877,-86.8268 385.644,-79.6212 375.079,-80.4104 377.877,-86.8268"/>
</g>
<!-- Node9 -->
<g id="node17" class="node"><title>Node9</title>
<polygon fill="white" stroke="#bfbfbf" points="257,-58.5 257,-79.5 297,-79.5 297,-58.5 257,-58.5"/>
<text text-anchor="middle" x="277" y="-66.5" font-family="Helvetica,sans-Serif" font-size="10.00">limits</text>
</g>
<!-- Node2&#45;&gt;Node9 -->
<g id="edge16" class="edge"><title>Node2&#45;&gt;Node9</title>
<path fill="none" stroke="midnightblue" d="M277,-116.362C277,-108.922 277,-98.7427 277,-89.7276"/>
<polygon fill="midnightblue" stroke="midnightblue" points="280.5,-89.5706 277,-79.5707 273.5,-89.5707 280.5,-89.5706"/>
</g>
<!-- Node10 -->
<g id="node19" class="node"><title>Node10</title>
<polygon fill="white" stroke="#bfbfbf" points="314.5,-58.5 314.5,-79.5 363.5,-79.5 363.5,-58.5 314.5,-58.5"/>
<text text-anchor="middle" x="339" y="-66.5" font-family="Helvetica,sans-Serif" font-size="10.00">istream</text>
</g>
<!-- Node2&#45;&gt;Node10 -->
<g id="edge18" class="edge"><title>Node2&#45;&gt;Node10</title>
<path fill="none" stroke="midnightblue" d="M288.372,-116.362C297.286,-108.023 309.879,-96.2418 320.276,-86.5162"/>
<polygon fill="midnightblue" stroke="midnightblue" points="322.789,-88.9582 327.7,-79.5707 318.007,-83.8463 322.789,-88.9582"/>
</g>
<!-- Node4 -->
<g id="node7" class="node"><title>Node4</title>
<polygon fill="white" stroke="#bfbfbf" points="0,-0.5 0,-21.5 62,-21.5 62,-0.5 0,-0.5"/>
<text text-anchor="middle" x="31" y="-8.5" font-family="Helvetica,sans-Serif" font-size="10.00">type_traits</text>
</g>
<!-- Node3&#45;&gt;Node4 -->
<g id="edge6" class="edge"><title>Node3&#45;&gt;Node4</title>
<path fill="none" stroke="midnightblue" d="M61.2136,-58.3619C56.2066,-50.5131 49.255,-39.6159 43.2819,-30.2527"/>
<polygon fill="midnightblue" stroke="midnightblue" points="46.0723,-28.1189 37.7433,-21.5707 40.1708,-31.8837 46.0723,-28.1189"/>
</g>
<!-- Node5 -->
<g id="node9" class="node"><title>Node5</title>
<polygon fill="white" stroke="#bfbfbf" points="80,-0.5 80,-21.5 132,-21.5 132,-0.5 80,-0.5"/>
<text text-anchor="middle" x="106" y="-8.5" font-family="Helvetica,sans-Serif" font-size="10.00">ostream</text>
</g>
<!-- Node3&#45;&gt;Node5 -->
<g id="edge8" class="edge"><title>Node3&#45;&gt;Node5</title>
<path fill="none" stroke="midnightblue" d="M74.9698,-58.3619C80.1657,-50.4313 87.4006,-39.3885 93.5775,-29.9606"/>
<polygon fill="midnightblue" stroke="midnightblue" points="96.5217,-31.8534 99.0744,-21.5707 90.6665,-28.0172 96.5217,-31.8534"/>
</g>
<!-- Node11&#45;&gt;Node2 -->
<g id="edge22" class="edge"><title>Node11&#45;&gt;Node2</title>
<path fill="none" stroke="midnightblue" d="M339.877,-174.362C328.48,-165.777 312.242,-153.546 299.122,-143.664"/>
<polygon fill="midnightblue" stroke="midnightblue" points="301.127,-140.792 291.033,-137.571 296.915,-146.383 301.127,-140.792"/>
</g>
<!-- Node11&#45;&gt;Node8 -->
<g id="edge26" class="edge"><title>Node11&#45;&gt;Node8</title>
<path fill="none" stroke="midnightblue" d="M359.168,-174.295C368.544,-154.872 388.49,-113.556 400.419,-88.8462"/>
<polygon fill="midnightblue" stroke="midnightblue" points="403.649,-90.2064 404.845,-79.6792 397.345,-87.1631 403.649,-90.2064"/>
</g>
<!-- Node11&#45;&gt;Node12 -->
<g id="edge24" class="edge"><title>Node11&#45;&gt;Node12</title>
<path fill="none" stroke="midnightblue" d="M366.839,-174.362C377.002,-165.941 391.401,-154.011 403.204,-144.231"/>
<polygon fill="midnightblue" stroke="midnightblue" points="405.775,-146.646 411.242,-137.571 401.309,-141.256 405.775,-146.646"/>
</g>
</g>
</svg>
