<?xml version="1.0" encoding="UTF-8" standalone="no"?>
<!DOCTYPE svg PUBLIC "-//W3C//DTD SVG 1.1//EN"
 "http://www.w3.org/Graphics/SVG/1.1/DTD/svg11.dtd">
<!-- Generated by graphviz version 2.26.3 (20100126.1600)
 -->
<!-- Title: src/analysis/plot/HistStyle.h Pages: 1 -->
<svg width="1383pt" height="232pt"
 viewBox="0.00 0.00 1383.00 232.00" xmlns="http://www.w3.org/2000/svg" xmlns:xlink="http://www.w3.org/1999/xlink">
<g id="graph1" class="graph" transform="scale(1 1) rotate(0) translate(4 228)">
<title>src/analysis/plot/HistStyle.h</title>
<polygon fill="white" stroke="white" points="-4,5 -4,-228 1380,-228 1380,5 -4,5"/>
<!-- Node1 -->
<g id="node1" class="node"><title>Node1</title>
<polygon fill="#bfbfbf" stroke="black" points="487,-202.5 487,-223.5 627,-223.5 627,-202.5 487,-202.5"/>
<text text-anchor="middle" x="557" y="-210.5" font-family="Helvetica,sans-Serif" font-size="10.00">src/analysis/plot/HistStyle.h</text>
</g>
<!-- Node2 -->
<g id="node3" class="node"><title>Node2</title>
<a xlink:href="_cut_tree_8h.html" target="_top" xlink:title="src/analysis/plot/CutTree.h">
<polygon fill="white" stroke="black" points="279,-65.5 279,-86.5 413,-86.5 413,-65.5 279,-65.5"/>
<text text-anchor="middle" x="346" y="-73.5" font-family="Helvetica,sans-Serif" font-size="10.00">src/analysis/plot/CutTree.h</text>
</a>
</g>
<!-- Node1&#45;&gt;Node2 -->
<g id="edge2" class="edge"><title>Node1&#45;&gt;Node2</title>
<path fill="none" stroke="midnightblue" d="M529.015,-197.491C513.259,-188.578 493.326,-176.999 476,-166 433.127,-138.782 384.329,-103.902 360.559,-86.6475"/>
<polygon fill="midnightblue" stroke="midnightblue" points="527.327,-200.557 537.759,-202.407 530.757,-194.455 527.327,-200.557"/>
</g>
<!-- Node8 -->
<g id="node15" class="node"><title>Node8</title>
<a xlink:href="_hist_style_8cc.html" target="_top" xlink:title="src/analysis/plot/HistStyle.cc">
<polygon fill="white" stroke="black" points="484.5,-137.5 484.5,-158.5 629.5,-158.5 629.5,-137.5 484.5,-137.5"/>
<text text-anchor="middle" x="557" y="-145.5" font-family="Helvetica,sans-Serif" font-size="10.00">src/analysis/plot/HistStyle.cc</text>
</a>
</g>
<!-- Node1&#45;&gt;Node8 -->
<g id="edge14" class="edge"><title>Node1&#45;&gt;Node8</title>
<path fill="none" stroke="midnightblue" d="M557,-192.014C557,-180.831 557,-167.558 557,-158.534"/>
<polygon fill="midnightblue" stroke="midnightblue" points="553.5,-192.267 557,-202.267 560.5,-192.267 553.5,-192.267"/>
</g>
<!-- Node9 -->
<g id="node17" class="node"><title>Node9</title>
<a xlink:href="hstack_8h.html" target="_top" xlink:title="src/root&#45;addons/analysis\l_codes/hstack.h">
<polygon fill="white" stroke="black" points="684.5,-131 684.5,-165 807.5,-165 807.5,-131 684.5,-131"/>
<text text-anchor="start" x="692.5" y="-152" font-family="Helvetica,sans-Serif" font-size="10.00">src/root&#45;addons/analysis</text>
<text text-anchor="middle" x="746" y="-139" font-family="Helvetica,sans-Serif" font-size="10.00">_codes/hstack.h</text>
</a>
</g>
<!-- Node1&#45;&gt;Node9 -->
<g id="edge16" class="edge"><title>Node1&#45;&gt;Node9</title>
<path fill="none" stroke="midnightblue" d="M597.57,-199.047C626.511,-189.094 665.596,-175.652 696.394,-165.06"/>
<polygon fill="midnightblue" stroke="midnightblue" points="596.105,-195.85 587.787,-202.412 598.381,-202.469 596.105,-195.85"/>
</g>
<!-- Node3 -->
<g id="node5" class="node"><title>Node3</title>
<a xlink:href="_eta_dalitz__plot_8cc.html" target="_top" xlink:title="Plotting tool for TTrees from the ant::analysis::physics::common::MesonDalitzDecays physics class...">
<polygon fill="white" stroke="black" points="-0.5,-0.5 -0.5,-21.5 118.5,-21.5 118.5,-0.5 -0.5,-0.5"/>
<text text-anchor="middle" x="59" y="-8.5" font-family="Helvetica,sans-Serif" font-size="10.00">progs/EtaDalitz_plot.cc</text>
</a>
</g>
<!-- Node2&#45;&gt;Node3 -->
<g id="edge4" class="edge"><title>Node2&#45;&gt;Node3</title>
<path fill="none" stroke="midnightblue" d="M289.501,-63.2041C235.657,-51.0095 155.564,-32.8699 105.364,-21.5005"/>
<polygon fill="midnightblue" stroke="midnightblue" points="289.043,-66.689 299.57,-65.4844 290.59,-59.8619 289.043,-66.689"/>
</g>
<!-- Node4 -->
<g id="node7" class="node"><title>Node4</title>
<a xlink:href="_etap_dalitz__plot_8cc.html" target="_top" xlink:title="Plotting tool for TTrees from the ant::analysis::physics::etaprime::etaprime_dalitz physics class...">
<polygon fill="white" stroke="black" points="136,-0.5 136,-21.5 260,-21.5 260,-0.5 136,-0.5"/>
<text text-anchor="middle" x="198" y="-8.5" font-family="Helvetica,sans-Serif" font-size="10.00">progs/EtapDalitz_plot.cc</text>
</a>
</g>
<!-- Node2&#45;&gt;Node4 -->
<g id="edge6" class="edge"><title>Node2&#45;&gt;Node4</title>
<path fill="none" stroke="midnightblue" d="M312.649,-61.3527C285.122,-49.2628 246.713,-32.3942 222.098,-21.5835"/>
<polygon fill="midnightblue" stroke="midnightblue" points="311.329,-64.5953 321.892,-65.412 314.143,-58.1862 311.329,-64.5953"/>
</g>
<!-- Node5 -->
<g id="node9" class="node"><title>Node5</title>
<a xlink:href="_etap_omega_g__plot_8cc.html" target="_top" xlink:title="progs/EtapOmegaG_plot.cc">
<polygon fill="white" stroke="black" points="277.5,-0.5 277.5,-21.5 414.5,-21.5 414.5,-0.5 277.5,-0.5"/>
<text text-anchor="middle" x="346" y="-8.5" font-family="Helvetica,sans-Serif" font-size="10.00">progs/EtapOmegaG_plot.cc</text>
</a>
</g>
<!-- Node2&#45;&gt;Node5 -->
<g id="edge8" class="edge"><title>Node2&#45;&gt;Node5</title>
<path fill="none" stroke="midnightblue" d="M346,-55.0142C346,-43.8307 346,-30.5583 346,-21.5337"/>
<polygon fill="midnightblue" stroke="midnightblue" points="342.5,-55.2665 346,-65.2666 349.5,-55.2666 342.5,-55.2665"/>
</g>
<!-- Node6 -->
<g id="node11" class="node"><title>Node6</title>
<a xlink:href="_omega_eta_g2__plot_8cc.html" target="_top" xlink:title="Plotting tool for TTrees from the ant::analysis::physics::OmegaEtaG2 physics class. ">
<polygon fill="white" stroke="black" points="431.5,-0.5 431.5,-21.5 568.5,-21.5 568.5,-0.5 431.5,-0.5"/>
<text text-anchor="middle" x="500" y="-8.5" font-family="Helvetica,sans-Serif" font-size="10.00">progs/OmegaEtaG2_plot.cc</text>
</a>
</g>
<!-- Node2&#45;&gt;Node6 -->
<g id="edge10" class="edge"><title>Node2&#45;&gt;Node6</title>
<path fill="none" stroke="midnightblue" d="M380.328,-61.5108C408.997,-49.4103 449.2,-32.4414 474.925,-21.5835"/>
<polygon fill="midnightblue" stroke="midnightblue" points="378.937,-58.2988 371.086,-65.412 381.66,-64.7479 378.937,-58.2988"/>
</g>
<!-- Node7 -->
<g id="node13" class="node"><title>Node7</title>
<a xlink:href="_triple_pi0__cuts_8cc.html" target="_top" xlink:title="progs/TriplePi0_cuts.cc">
<polygon fill="white" stroke="black" points="585.5,-0.5 585.5,-21.5 704.5,-21.5 704.5,-0.5 585.5,-0.5"/>
<text text-anchor="middle" x="645" y="-8.5" font-family="Helvetica,sans-Serif" font-size="10.00">progs/TriplePi0_cuts.cc</text>
</a>
</g>
<!-- Node2&#45;&gt;Node7 -->
<g id="edge12" class="edge"><title>Node2&#45;&gt;Node7</title>
<path fill="none" stroke="midnightblue" d="M399.553,-63.1406C407.083,-61.3836 414.732,-59.6264 422,-58 480.496,-44.9107 547.856,-30.8533 593.102,-21.5578"/>
<polygon fill="midnightblue" stroke="midnightblue" points="398.698,-59.746 389.763,-65.4391 400.298,-66.5607 398.698,-59.746"/>
</g>
<!-- Node9&#45;&gt;Node2 -->
<g id="edge30" class="edge"><title>Node9&#45;&gt;Node2</title>
<path fill="none" stroke="midnightblue" d="M674.459,-136.078C579.1,-120.188 422.195,-94.0392 422,-94 410.967,-91.7768 399.1,-89.103 388.098,-86.5046"/>
<polygon fill="midnightblue" stroke="midnightblue" points="673.903,-139.534 684.343,-137.725 675.054,-132.629 673.903,-139.534"/>
</g>
<!-- Node10 -->
<g id="node19" class="node"><title>Node10</title>
<a xlink:href="_ant-hadd_8cc.html" target="_top" xlink:title="progs/Ant&#45;hadd.cc">
<polygon fill="white" stroke="black" points="431,-65.5 431,-86.5 527,-86.5 527,-65.5 431,-65.5"/>
<text text-anchor="middle" x="479" y="-73.5" font-family="Helvetica,sans-Serif" font-size="10.00">progs/Ant&#45;hadd.cc</text>
</a>
</g>
<!-- Node9&#45;&gt;Node10 -->
<g id="edge18" class="edge"><title>Node9&#45;&gt;Node10</title>
<path fill="none" stroke="midnightblue" d="M674.362,-130.601C633.648,-120.457 581.805,-107.111 536,-94 528.019,-91.7154 519.459,-89.1008 511.462,-86.5857"/>
<polygon fill="midnightblue" stroke="midnightblue" points="673.648,-134.03 684.197,-133.043 675.335,-127.236 673.648,-134.03"/>
</g>
<!-- Node11 -->
<g id="node21" class="node"><title>Node11</title>
<a xlink:href="process_etap_tree_8cc.html" target="_top" xlink:title="progs/processEtapTree.cc">
<polygon fill="white" stroke="black" points="544.5,-65.5 544.5,-86.5 675.5,-86.5 675.5,-65.5 544.5,-65.5"/>
<text text-anchor="middle" x="610" y="-73.5" font-family="Helvetica,sans-Serif" font-size="10.00">progs/processEtapTree.cc</text>
</a>
</g>
<!-- Node9&#45;&gt;Node11 -->
<g id="edge20" class="edge"><title>Node9&#45;&gt;Node11</title>
<path fill="none" stroke="midnightblue" d="M704.621,-126.094C679.954,-113.034 649.736,-97.0368 630.189,-86.688"/>
<polygon fill="midnightblue" stroke="midnightblue" points="703.294,-129.351 713.77,-130.937 706.57,-123.165 703.294,-129.351"/>
</g>
<!-- Node12 -->
<g id="node23" class="node"><title>Node12</title>
<a xlink:href="show__cocktail__database_8cc.html" target="_top" xlink:title="progs/show_cocktail\l_database.cc">
<polygon fill="white" stroke="black" points="693,-59 693,-93 799,-93 799,-59 693,-59"/>
<text text-anchor="start" x="701" y="-80" font-family="Helvetica,sans-Serif" font-size="10.00">progs/show_cocktail</text>
<text text-anchor="middle" x="746" y="-67" font-family="Helvetica,sans-Serif" font-size="10.00">_database.cc</text>
</a>
</g>
<!-- Node9&#45;&gt;Node12 -->
<g id="edge22" class="edge"><title>Node9&#45;&gt;Node12</title>
<path fill="none" stroke="midnightblue" d="M746,-120.719C746,-111.572 746,-101.625 746,-93.4407"/>
<polygon fill="midnightblue" stroke="midnightblue" points="742.5,-120.937 746,-130.937 749.5,-120.937 742.5,-120.937"/>
</g>
<!-- Node13 -->
<g id="node25" class="node"><title>Node13</title>
<a xlink:href="_m_c_reconstruct_check_8cc.html" target="_top" xlink:title="src/analysis/physics\l/common/MCReconstructCheck.cc">
<polygon fill="white" stroke="black" points="816.5,-59 816.5,-93 987.5,-93 987.5,-59 816.5,-59"/>
<text text-anchor="start" x="824.5" y="-80" font-family="Helvetica,sans-Serif" font-size="10.00">src/analysis/physics</text>
<text text-anchor="middle" x="902" y="-67" font-family="Helvetica,sans-Serif" font-size="10.00">/common/MCReconstructCheck.cc</text>
</a>
</g>
<!-- Node9&#45;&gt;Node13 -->
<g id="edge24" class="edge"><title>Node9&#45;&gt;Node13</title>
<path fill="none" stroke="midnightblue" d="M792.283,-126.638C815.505,-115.921 843.248,-103.117 865.026,-93.0651"/>
<polygon fill="midnightblue" stroke="midnightblue" points="790.583,-123.569 782.97,-130.937 793.516,-129.924 790.583,-123.569"/>
</g>
<!-- Node14 -->
<g id="node27" class="node"><title>Node14</title>
<a xlink:href="omega_8cc.html" target="_top" xlink:title="src/analysis/physics\l/omega/omega.cc">
<polygon fill="white" stroke="black" points="1005,-59 1005,-93 1111,-93 1111,-59 1005,-59"/>
<text text-anchor="start" x="1013" y="-80" font-family="Helvetica,sans-Serif" font-size="10.00">src/analysis/physics</text>
<text text-anchor="middle" x="1058" y="-67" font-family="Helvetica,sans-Serif" font-size="10.00">/omega/omega.cc</text>
</a>
</g>
<!-- Node9&#45;&gt;Node14 -->
<g id="edge26" class="edge"><title>Node9&#45;&gt;Node14</title>
<path fill="none" stroke="midnightblue" d="M817.76,-133.885C867.901,-123.685 936.293,-109.096 996,-94 998.934,-93.2582 1001.94,-92.4727 1004.97,-91.6608"/>
<polygon fill="midnightblue" stroke="midnightblue" points="816.772,-130.514 807.666,-135.929 818.162,-137.375 816.772,-130.514"/>
</g>
<!-- Node15 -->
<g id="node29" class="node"><title>Node15</title>
<a xlink:href="pi0eta_8cc.html" target="_top" xlink:title="src/analysis/physics\l/omega/pi0eta.cc">
<polygon fill="white" stroke="black" points="1129,-59 1129,-93 1235,-93 1235,-59 1129,-59"/>
<text text-anchor="start" x="1137" y="-80" font-family="Helvetica,sans-Serif" font-size="10.00">src/analysis/physics</text>
<text text-anchor="middle" x="1182" y="-67" font-family="Helvetica,sans-Serif" font-size="10.00">/omega/pi0eta.cc</text>
</a>
</g>
<!-- Node9&#45;&gt;Node15 -->
<g id="edge28" class="edge"><title>Node9&#45;&gt;Node15</title>
<path fill="none" stroke="midnightblue" d="M818.054,-140.61C893.759,-132.145 1016.04,-116.481 1120,-94 1122.85,-93.384 1125.76,-92.7075 1128.69,-91.9891"/>
<polygon fill="midnightblue" stroke="midnightblue" points="817.242,-137.179 807.687,-141.757 818.012,-144.136 817.242,-137.179"/>
</g>
<!-- Node16 -->
<g id="node32" class="node"><title>Node16</title>
<a xlink:href="hstack_8cc.html" target="_top" xlink:title="src/root&#45;addons/analysis\l_codes/hstack.cc">
<polygon fill="white" stroke="black" points="1252.5,-59 1252.5,-93 1375.5,-93 1375.5,-59 1252.5,-59"/>
<text text-anchor="start" x="1260.5" y="-80" font-family="Helvetica,sans-Serif" font-size="10.00">src/root&#45;addons/analysis</text>
<text text-anchor="middle" x="1314" y="-67" font-family="Helvetica,sans-Serif" font-size="10.00">_codes/hstack.cc</text>
</a>
</g>
<!-- Node9&#45;&gt;Node16 -->
<g id="edge32" class="edge"><title>Node9&#45;&gt;Node16</title>
<path fill="none" stroke="midnightblue" d="M817.751,-143.471C914.947,-136.597 1093.6,-121.345 1244,-94 1246.72,-93.5062 1249.48,-92.9643 1252.27,-92.3863"/>
<polygon fill="midnightblue" stroke="midnightblue" points="817.474,-139.982 807.742,-144.17 817.962,-146.965 817.474,-139.982"/>
</g>
</g>
</svg>
