<?xml version="1.0" encoding="UTF-8" standalone="no"?>
<!DOCTYPE svg PUBLIC "-//W3C//DTD SVG 1.1//EN"
 "http://www.w3.org/Graphics/SVG/1.1/DTD/svg11.dtd">
<!-- Generated by graphviz version 2.26.3 (20100126.1600)
 -->
<!-- Title: src/base/Interpolator.h Pages: 1 -->
<svg width="446pt" height="204pt"
 viewBox="0.00 0.00 446.00 204.00" xmlns="http://www.w3.org/2000/svg" xmlns:xlink="http://www.w3.org/1999/xlink">
<g id="graph1" class="graph" transform="scale(1 1) rotate(0) translate(4 200)">
<title>src/base/Interpolator.h</title>
<polygon fill="white" stroke="white" points="-4,5 -4,-200 443,-200 443,5 -4,5"/>
<!-- Node1 -->
<g id="node1" class="node"><title>Node1</title>
<polygon fill="#bfbfbf" stroke="black" points="42,-174.5 42,-195.5 156,-195.5 156,-174.5 42,-174.5"/>
<text text-anchor="middle" x="99" y="-182.5" font-family="Helvetica,sans-Serif" font-size="10.00">src/base/Interpolator.h</text>
</g>
<!-- Node2 -->
<g id="node3" class="node"><title>Node2</title>
<polygon fill="white" stroke="#bfbfbf" points="0,-116.5 0,-137.5 44,-137.5 44,-116.5 0,-116.5"/>
<text text-anchor="middle" x="22" y="-124.5" font-family="Helvetica,sans-Serif" font-size="10.00">vector</text>
</g>
<!-- Node1&#45;&gt;Node2 -->
<g id="edge2" class="edge"><title>Node1&#45;&gt;Node2</title>
<path fill="none" stroke="midnightblue" d="M84.877,-174.362C73.4802,-165.777 57.2419,-153.546 44.1223,-143.664"/>
<polygon fill="midnightblue" stroke="midnightblue" points="46.1268,-140.792 36.0335,-137.571 41.9152,-146.383 46.1268,-140.792"/>
</g>
<!-- Node3 -->
<g id="node5" class="node"><title>Node3</title>
<polygon fill="white" stroke="#bfbfbf" points="35.5,-58.5 35.5,-79.5 94.5,-79.5 94.5,-58.5 35.5,-58.5"/>
<text text-anchor="middle" x="65" y="-66.5" font-family="Helvetica,sans-Serif" font-size="10.00">stdexcept</text>
</g>
<!-- Node1&#45;&gt;Node3 -->
<g id="edge4" class="edge"><title>Node1&#45;&gt;Node3</title>
<path fill="none" stroke="midnightblue" d="M95.8623,-174.295C90.2201,-155.045 78.2743,-114.289 71.0113,-89.5091"/>
<polygon fill="midnightblue" stroke="midnightblue" points="74.3016,-88.291 68.1301,-79.6792 67.5842,-90.26 74.3016,-88.291"/>
</g>
<!-- Node4 -->
<g id="node7" class="node"><title>Node4</title>
<polygon fill="white" stroke="#bfbfbf" points="100,-116.5 100,-137.5 152,-137.5 152,-116.5 100,-116.5"/>
<text text-anchor="middle" x="126" y="-124.5" font-family="Helvetica,sans-Serif" font-size="10.00">memory</text>
</g>
<!-- Node1&#45;&gt;Node4 -->
<g id="edge6" class="edge"><title>Node1&#45;&gt;Node4</title>
<path fill="none" stroke="midnightblue" d="M103.952,-174.362C107.53,-166.677 112.468,-156.069 116.764,-146.84"/>
<polygon fill="midnightblue" stroke="midnightblue" points="120.032,-148.114 121.079,-137.571 113.686,-145.159 120.032,-148.114"/>
</g>
<!-- Node5 -->
<g id="node9" class="node"><title>Node5</title>
<a xlink:href="interval_8h.html" target="_top" xlink:title="base/interval.h">
<polygon fill="white" stroke="black" points="176,-116.5 176,-137.5 256,-137.5 256,-116.5 176,-116.5"/>
<text text-anchor="middle" x="216" y="-124.5" font-family="Helvetica,sans-Serif" font-size="10.00">base/interval.h</text>
</a>
</g>
<!-- Node1&#45;&gt;Node5 -->
<g id="edge8" class="edge"><title>Node1&#45;&gt;Node5</title>
<path fill="none" stroke="midnightblue" d="M120.188,-174.497C138.462,-165.438 165.072,-152.246 185.615,-142.063"/>
<polygon fill="midnightblue" stroke="midnightblue" points="187.169,-145.199 194.574,-137.621 184.06,-138.927 187.169,-145.199"/>
</g>
<!-- Node5&#45;&gt;Node3 -->
<g id="edge20" class="edge"><title>Node5&#45;&gt;Node3</title>
<path fill="none" stroke="midnightblue" d="M188.655,-116.497C164.358,-107.164 128.64,-93.4447 101.832,-83.1475"/>
<polygon fill="midnightblue" stroke="midnightblue" points="102.986,-79.8415 92.3962,-79.5231 100.476,-86.376 102.986,-79.8415"/>
</g>
<!-- Node6 -->
<g id="node11" class="node"><title>Node6</title>
<a xlink:href="printable_8h.html" target="_top" xlink:title="printable.h">
<polygon fill="white" stroke="black" points="112,-58.5 112,-79.5 174,-79.5 174,-58.5 112,-58.5"/>
<text text-anchor="middle" x="143" y="-66.5" font-family="Helvetica,sans-Serif" font-size="10.00">printable.h</text>
</a>
</g>
<!-- Node5&#45;&gt;Node6 -->
<g id="edge10" class="edge"><title>Node5&#45;&gt;Node6</title>
<path fill="none" stroke="midnightblue" d="M202.611,-116.362C191.909,-107.859 176.704,-95.7785 164.329,-85.9466"/>
<polygon fill="midnightblue" stroke="midnightblue" points="166.311,-83.0511 156.304,-79.5707 161.957,-88.5318 166.311,-83.0511"/>
</g>
<!-- Node9 -->
<g id="node17" class="node"><title>Node9</title>
<a xlink:href="types_8h.html" target="_top" xlink:title="types.h">
<polygon fill="white" stroke="black" points="191.5,-58.5 191.5,-79.5 240.5,-79.5 240.5,-58.5 191.5,-58.5"/>
<text text-anchor="middle" x="216" y="-66.5" font-family="Helvetica,sans-Serif" font-size="10.00">types.h</text>
</a>
</g>
<!-- Node5&#45;&gt;Node9 -->
<g id="edge16" class="edge"><title>Node5&#45;&gt;Node9</title>
<path fill="none" stroke="midnightblue" d="M216,-116.362C216,-108.922 216,-98.7427 216,-89.7276"/>
<polygon fill="midnightblue" stroke="midnightblue" points="219.5,-89.5706 216,-79.5707 212.5,-89.5707 219.5,-89.5706"/>
</g>
<!-- Node10 -->
<g id="node19" class="node"><title>Node10</title>
<polygon fill="white" stroke="#bfbfbf" points="258,-58.5 258,-79.5 314,-79.5 314,-58.5 258,-58.5"/>
<text text-anchor="middle" x="286" y="-66.5" font-family="Helvetica,sans-Serif" font-size="10.00">algorithm</text>
</g>
<!-- Node5&#45;&gt;Node10 -->
<g id="edge18" class="edge"><title>Node5&#45;&gt;Node10</title>
<path fill="none" stroke="midnightblue" d="M228.839,-116.362C239.002,-107.941 253.401,-96.0105 265.204,-86.2308"/>
<polygon fill="midnightblue" stroke="midnightblue" points="267.775,-88.6459 273.242,-79.5707 263.309,-83.2558 267.775,-88.6459"/>
</g>
<!-- Node11 -->
<g id="node22" class="node"><title>Node11</title>
<polygon fill="white" stroke="#bfbfbf" points="332,-58.5 332,-79.5 372,-79.5 372,-58.5 332,-58.5"/>
<text text-anchor="middle" x="352" y="-66.5" font-family="Helvetica,sans-Serif" font-size="10.00">limits</text>
</g>
<!-- Node5&#45;&gt;Node11 -->
<g id="edge22" class="edge"><title>Node5&#45;&gt;Node11</title>
<path fill="none" stroke="midnightblue" d="M240.629,-116.497C263.637,-106.684 298.016,-92.0227 322.484,-81.5878"/>
<polygon fill="midnightblue" stroke="midnightblue" points="324.152,-84.6815 331.977,-77.5391 321.406,-78.2426 324.152,-84.6815"/>
</g>
<!-- Node12 -->
<g id="node24" class="node"><title>Node12</title>
<polygon fill="white" stroke="#bfbfbf" points="389.5,-58.5 389.5,-79.5 438.5,-79.5 438.5,-58.5 389.5,-58.5"/>
<text text-anchor="middle" x="414" y="-66.5" font-family="Helvetica,sans-Serif" font-size="10.00">istream</text>
</g>
<!-- Node5&#45;&gt;Node12 -->
<g id="edge24" class="edge"><title>Node5&#45;&gt;Node12</title>
<path fill="none" stroke="midnightblue" d="M254.816,-116.466C286.248,-107.818 331.881,-95.0024 379.603,-80.3592"/>
<polygon fill="midnightblue" stroke="midnightblue" points="380.648,-83.6996 389.172,-77.4069 378.584,-77.0108 380.648,-83.6996"/>
</g>
<!-- Node7 -->
<g id="node13" class="node"><title>Node7</title>
<polygon fill="white" stroke="#bfbfbf" points="74,-0.5 74,-21.5 136,-21.5 136,-0.5 74,-0.5"/>
<text text-anchor="middle" x="105" y="-8.5" font-family="Helvetica,sans-Serif" font-size="10.00">type_traits</text>
</g>
<!-- Node6&#45;&gt;Node7 -->
<g id="edge12" class="edge"><title>Node6&#45;&gt;Node7</title>
<path fill="none" stroke="midnightblue" d="M136.03,-58.3619C130.834,-50.4313 123.599,-39.3885 117.422,-29.9606"/>
<polygon fill="midnightblue" stroke="midnightblue" points="120.334,-28.0172 111.926,-21.5707 114.478,-31.8534 120.334,-28.0172"/>
</g>
<!-- Node8 -->
<g id="node15" class="node"><title>Node8</title>
<polygon fill="white" stroke="#bfbfbf" points="154,-0.5 154,-21.5 206,-21.5 206,-0.5 154,-0.5"/>
<text text-anchor="middle" x="180" y="-8.5" font-family="Helvetica,sans-Serif" font-size="10.00">ostream</text>
</g>
<!-- Node6&#45;&gt;Node8 -->
<g id="edge14" class="edge"><title>Node6&#45;&gt;Node8</title>
<path fill="none" stroke="midnightblue" d="M149.786,-58.3619C154.793,-50.5131 161.745,-39.6159 167.718,-30.2527"/>
<polygon fill="midnightblue" stroke="midnightblue" points="170.829,-31.8837 173.257,-21.5707 164.928,-28.1189 170.829,-31.8837"/>
</g>
</g>
</svg>
