<?xml version="1.0" encoding="UTF-8" standalone="no"?>
<!DOCTYPE svg PUBLIC "-//W3C//DTD SVG 1.1//EN"
 "http://www.w3.org/Graphics/SVG/1.1/DTD/svg11.dtd">
<!-- Generated by graphviz version 2.26.3 (20100126.1600)
 -->
<!-- Title: src/analysis/physics/common/MCChannels.h Pages: 1 -->
<svg width="3622pt" height="580pt"
 viewBox="0.00 0.00 3621.64 580.00" xmlns="http://www.w3.org/2000/svg" xmlns:xlink="http://www.w3.org/1999/xlink">
<g id="graph1" class="graph" transform="scale(1 1) rotate(0) translate(4 576)">
<title>src/analysis/physics/common/MCChannels.h</title>
<polygon fill="white" stroke="white" points="-4,5 -4,-576 3618.64,-576 3618.64,5 -4,5"/>
<!-- Node1 -->
<g id="node1" class="node"><title>Node1</title>
<polygon fill="#bfbfbf" stroke="black" points="3465.91,-537 3465.91,-571 3590.91,-571 3590.91,-537 3465.91,-537"/>
<text text-anchor="start" x="3473.91" y="-558" font-family="Helvetica,sans-Serif" font-size="10.00">src/analysis/physics</text>
<text text-anchor="middle" x="3528.41" y="-545" font-family="Helvetica,sans-Serif" font-size="10.00">/common/MCChannels.h</text>
</g>
<!-- Node2 -->
<g id="node3" class="node"><title>Node2</title>
<a xlink:href="_physics_8h.html" target="_top" xlink:title="analysis/physics/Physics.h">
<polygon fill="white" stroke="black" points="2967.41,-478.5 2967.41,-499.5 3103.41,-499.5 3103.41,-478.5 2967.41,-478.5"/>
<text text-anchor="middle" x="3035.41" y="-486.5" font-family="Helvetica,sans-Serif" font-size="10.00">analysis/physics/Physics.h</text>
</a>
</g>
<!-- Node1&#45;&gt;Node2 -->
<g id="edge2" class="edge"><title>Node1&#45;&gt;Node2</title>
<path fill="none" stroke="midnightblue" d="M3465.72,-545.735C3376.05,-533.912 3211.24,-512.183 3113.68,-499.32"/>
<polygon fill="midnightblue" stroke="midnightblue" points="3113.95,-495.825 3103.58,-497.988 3113.04,-502.765 3113.95,-495.825"/>
</g>
<!-- Node56 -->
<g id="node193" class="node"><title>Node56</title>
<a xlink:href="_particle_type_8h.html" target="_top" xlink:title="base/ParticleType.h">
<polygon fill="white" stroke="black" points="3228.41,-181.5 3228.41,-202.5 3332.41,-202.5 3332.41,-181.5 3228.41,-181.5"/>
<text text-anchor="middle" x="3280.41" y="-189.5" font-family="Helvetica,sans-Serif" font-size="10.00">base/ParticleType.h</text>
</a>
</g>
<!-- Node1&#45;&gt;Node56 -->
<g id="edge356" class="edge"><title>Node1&#45;&gt;Node56</title>
<path fill="none" stroke="midnightblue" d="M3520.61,-536.886C3504.63,-502.485 3466.12,-423.028 3424.41,-362 3383.91,-302.749 3326.47,-240.078 3297.92,-210.074"/>
<polygon fill="midnightblue" stroke="midnightblue" points="3300.12,-207.308 3290.67,-202.507 3295.06,-212.15 3300.12,-207.308"/>
</g>
<!-- Node57 -->
<g id="node199" class="node"><title>Node57</title>
<polygon fill="white" stroke="#bfbfbf" points="3472.91,-116.5 3472.91,-137.5 3507.91,-137.5 3507.91,-116.5 3472.91,-116.5"/>
<text text-anchor="middle" x="3490.41" y="-124.5" font-family="Helvetica,sans-Serif" font-size="10.00">map</text>
</g>
<!-- Node1&#45;&gt;Node57 -->
<g id="edge358" class="edge"><title>Node1&#45;&gt;Node57</title>
<path fill="none" stroke="midnightblue" d="M3550.04,-536.949C3574.93,-515.244 3612.41,-475.218 3612.41,-431 3612.41,-431 3612.41,-431 3612.41,-257 3612.41,-219.157 3617.32,-203.333 3593.41,-174 3574.48,-150.774 3541.57,-138.544 3518.04,-132.449"/>
<polygon fill="midnightblue" stroke="midnightblue" points="3518.83,-129.038 3508.29,-130.131 3517.21,-135.849 3518.83,-129.038"/>
</g>
<!-- Node3 -->
<g id="node5" class="node"><title>Node3</title>
<a xlink:href="manager__t_8h.html" target="_top" xlink:title="analysis/physics/manager_t.h">
<polygon fill="white" stroke="black" points="3240.41,-420.5 3240.41,-441.5 3386.41,-441.5 3386.41,-420.5 3240.41,-420.5"/>
<text text-anchor="middle" x="3313.41" y="-428.5" font-family="Helvetica,sans-Serif" font-size="10.00">analysis/physics/manager_t.h</text>
</a>
</g>
<!-- Node2&#45;&gt;Node3 -->
<g id="edge4" class="edge"><title>Node2&#45;&gt;Node3</title>
<path fill="none" stroke="midnightblue" d="M3085.75,-478.497C3132.74,-468.693 3202.93,-454.05 3252.94,-443.616"/>
<polygon fill="midnightblue" stroke="midnightblue" points="3253.9,-446.992 3262.97,-441.523 3252.47,-440.139 3253.9,-446.992"/>
</g>
<!-- Node4 -->
<g id="node7" class="node"><title>Node4</title>
<a xlink:href="_histogram_factories_8h.html" target="_top" xlink:title="analysis/plot/HistogramFactories.h">
<polygon fill="white" stroke="black" points="2226.41,-246.5 2226.41,-267.5 2394.41,-267.5 2394.41,-246.5 2226.41,-246.5"/>
<text text-anchor="middle" x="2310.41" y="-254.5" font-family="Helvetica,sans-Serif" font-size="10.00">analysis/plot/HistogramFactories.h</text>
</a>
</g>
<!-- Node2&#45;&gt;Node4 -->
<g id="edge6" class="edge"><title>Node2&#45;&gt;Node4</title>
<path fill="none" stroke="midnightblue" d="M2967.22,-484.85C2820.03,-474.82 2478.03,-445.423 2381.41,-384 2352.69,-365.741 2347.83,-355.811 2331.41,-326 2323.03,-310.792 2317.57,-291.816 2314.32,-277.616"/>
<polygon fill="midnightblue" stroke="midnightblue" points="2317.75,-276.891 2312.26,-267.829 2310.9,-278.336 2317.75,-276.891"/>
</g>
<!-- Node16 -->
<g id="node33" class="node"><title>Node16</title>
<polygon fill="white" stroke="#bfbfbf" points="3259.91,-58.5 3259.91,-79.5 3300.91,-79.5 3300.91,-58.5 3259.91,-58.5"/>
<text text-anchor="middle" x="3280.41" y="-66.5" font-family="Helvetica,sans-Serif" font-size="10.00">string</text>
</g>
<!-- Node2&#45;&gt;Node16 -->
<g id="edge348" class="edge"><title>Node2&#45;&gt;Node16</title>
<path fill="none" stroke="midnightblue" d="M3103.75,-484.706C3202.59,-477.813 3375.83,-462.899 3395.41,-442 3451.75,-381.874 3407.41,-339.395 3407.41,-257 3407.41,-257 3407.41,-257 3407.41,-192 3407.41,-138.324 3348.15,-100.585 3310.59,-82.0569"/>
<polygon fill="midnightblue" stroke="midnightblue" points="3311.63,-78.6779 3301.1,-77.5523 3308.63,-85.0018 3311.63,-78.6779"/>
</g>
<!-- Node17 -->
<g id="node36" class="node"><title>Node17</title>
<a xlink:href="memory_8h.html" target="_top" xlink:title="base/std_ext/memory.h">
<polygon fill="white" stroke="black" points="2504.91,-181.5 2504.91,-202.5 2623.91,-202.5 2623.91,-181.5 2504.91,-181.5"/>
<text text-anchor="middle" x="2564.41" y="-189.5" font-family="Helvetica,sans-Serif" font-size="10.00">base/std_ext/memory.h</text>
</a>
</g>
<!-- Node2&#45;&gt;Node17 -->
<g id="edge38" class="edge"><title>Node2&#45;&gt;Node17</title>
<path fill="none" stroke="midnightblue" d="M2967.21,-482.233C2858.1,-469.492 2656.41,-437.253 2656.41,-373 2656.41,-373 2656.41,-373 2656.41,-315 2656.41,-269.522 2615.58,-230.05 2588.32,-208.765"/>
<polygon fill="midnightblue" stroke="midnightblue" points="2590.11,-205.73 2580.02,-202.509 2585.9,-211.321 2590.11,-205.73"/>
</g>
<!-- Node18 -->
<g id="node38" class="node"><title>Node18</title>
<polygon fill="white" stroke="#bfbfbf" points="2397.41,-116.5 2397.41,-137.5 2449.41,-137.5 2449.41,-116.5 2397.41,-116.5"/>
<text text-anchor="middle" x="2423.41" y="-124.5" font-family="Helvetica,sans-Serif" font-size="10.00">memory</text>
</g>
<!-- Node2&#45;&gt;Node18 -->
<g id="edge352" class="edge"><title>Node2&#45;&gt;Node18</title>
<path fill="none" stroke="midnightblue" d="M2967.28,-484.847C2845.34,-475.533 2602.41,-447.614 2602.41,-373 2602.41,-373 2602.41,-373 2602.41,-315 2602.41,-258.815 2402.79,-257.264 2372.41,-210 2363.76,-196.541 2365.99,-188.654 2372.41,-174 2377.73,-161.852 2387.92,-151.456 2397.8,-143.554"/>
<polygon fill="midnightblue" stroke="midnightblue" points="2399.97,-146.297 2405.91,-137.519 2395.79,-140.681 2399.97,-146.297"/>
</g>
<!-- Node19 -->
<g id="node40" class="node"><title>Node19</title>
<polygon fill="white" stroke="#bfbfbf" points="2680.91,-116.5 2680.91,-137.5 2709.91,-137.5 2709.91,-116.5 2680.91,-116.5"/>
<text text-anchor="middle" x="2695.41" y="-124.5" font-family="Helvetica,sans-Serif" font-size="10.00">list</text>
</g>
<!-- Node2&#45;&gt;Node19 -->
<g id="edge346" class="edge"><title>Node2&#45;&gt;Node19</title>
<path fill="none" stroke="midnightblue" d="M3014.94,-478.462C2955.94,-446.898 2784.9,-346.78 2708.41,-210 2697.67,-190.799 2695.07,-165.411 2694.75,-147.792"/>
<polygon fill="midnightblue" stroke="midnightblue" points="2698.25,-147.732 2694.8,-137.715 2691.25,-147.699 2698.25,-147.732"/>
</g>
<!-- Node20 -->
<g id="node42" class="node"><title>Node20</title>
<a xlink:href="_t_event_8h.html" target="_top" xlink:title="tree/TEvent.h">
<polygon fill="white" stroke="black" points="1903.41,-181.5 1903.41,-202.5 1979.41,-202.5 1979.41,-181.5 1903.41,-181.5"/>
<text text-anchor="middle" x="1941.41" y="-189.5" font-family="Helvetica,sans-Serif" font-size="10.00">tree/TEvent.h</text>
</a>
</g>
<!-- Node2&#45;&gt;Node20 -->
<g id="edge44" class="edge"><title>Node2&#45;&gt;Node20</title>
<path fill="none" stroke="midnightblue" d="M2967.03,-486.188C2838.88,-480.433 2567.33,-465.811 2476.41,-442 2268.12,-387.449 2041.51,-254.147 1966.83,-208.02"/>
<polygon fill="midnightblue" stroke="midnightblue" points="1968.44,-204.897 1958.09,-202.593 1964.74,-210.843 1968.44,-204.897"/>
</g>
<!-- Node22 -->
<g id="node49" class="node"><title>Node22</title>
<a xlink:href="_t_event_data_8h.html" target="_top" xlink:title="tree/TEventData.h">
<polygon fill="white" stroke="black" points="1103.91,-420.5 1103.91,-441.5 1200.91,-441.5 1200.91,-420.5 1103.91,-420.5"/>
<text text-anchor="middle" x="1152.41" y="-428.5" font-family="Helvetica,sans-Serif" font-size="10.00">tree/TEventData.h</text>
</a>
</g>
<!-- Node2&#45;&gt;Node22 -->
<g id="edge54" class="edge"><title>Node2&#45;&gt;Node22</title>
<path fill="none" stroke="midnightblue" d="M2967.28,-486.901C2670.11,-477.748 1489.79,-441.392 1211.44,-432.818"/>
<polygon fill="midnightblue" stroke="midnightblue" points="1211.25,-429.311 1201.15,-432.501 1211.04,-436.308 1211.25,-429.311"/>
</g>
<!-- Node53 -->
<g id="node170" class="node"><title>Node53</title>
<polygon fill="white" stroke="#bfbfbf" points="2990.91,-116.5 2990.91,-137.5 3049.91,-137.5 3049.91,-116.5 2990.91,-116.5"/>
<text text-anchor="middle" x="3020.41" y="-124.5" font-family="Helvetica,sans-Serif" font-size="10.00">functional</text>
</g>
<!-- Node2&#45;&gt;Node53 -->
<g id="edge354" class="edge"><title>Node2&#45;&gt;Node53</title>
<path fill="none" stroke="midnightblue" d="M3033.05,-478.239C3031.09,-468.755 3028.47,-454.536 3027.41,-442 3026.59,-432.257 3026.83,-429.761 3027.41,-420 3032.97,-326.173 3046.84,-303.827 3052.41,-210 3053.36,-194.028 3057.12,-189.291 3052.41,-174 3049.25,-163.747 3043.01,-153.728 3036.86,-145.593"/>
<polygon fill="midnightblue" stroke="midnightblue" points="3039.4,-143.161 3030.39,-137.582 3033.95,-147.56 3039.4,-143.161"/>
</g>
<!-- Node2&#45;&gt;Node57 -->
<g id="edge350" class="edge"><title>Node2&#45;&gt;Node57</title>
<path fill="none" stroke="midnightblue" d="M3103.56,-485.209C3209.8,-478.659 3405.22,-463.797 3428.41,-442 3516.63,-359.066 3450.35,-292.024 3477.41,-174 3479.41,-165.279 3481.97,-155.748 3484.29,-147.562"/>
<polygon fill="midnightblue" stroke="midnightblue" points="3487.71,-148.337 3487.14,-137.758 3480.99,-146.386 3487.71,-148.337"/>
</g>
<!-- Node62 -->
<g id="node219" class="node"><title>Node62</title>
<a xlink:href="_options_list_8h.html" target="_top" xlink:title="base/OptionsList.h">
<polygon fill="white" stroke="black" points="3486.41,-181.5 3486.41,-202.5 3584.41,-202.5 3584.41,-181.5 3486.41,-181.5"/>
<text text-anchor="middle" x="3535.41" y="-189.5" font-family="Helvetica,sans-Serif" font-size="10.00">base/OptionsList.h</text>
</a>
</g>
<!-- Node2&#45;&gt;Node62 -->
<g id="edge314" class="edge"><title>Node2&#45;&gt;Node62</title>
<path fill="none" stroke="midnightblue" d="M3103.41,-485.739C3217.9,-479.644 3439.36,-465.019 3466.41,-442 3535.61,-383.109 3538.59,-261.694 3536.74,-212.94"/>
<polygon fill="midnightblue" stroke="midnightblue" points="3540.23,-212.501 3536.24,-202.685 3533.24,-212.845 3540.23,-212.501"/>
</g>
<!-- Node64 -->
<g id="node227" class="node"><title>Node64</title>
<a xlink:href="root__draw_8h.html" target="_top" xlink:title="analysis/plot/root\l_draw.h">
<polygon fill="white" stroke="black" points="2952.91,-175 2952.91,-209 3043.91,-209 3043.91,-175 2952.91,-175"/>
<text text-anchor="start" x="2960.91" y="-196" font-family="Helvetica,sans-Serif" font-size="10.00">analysis/plot/root</text>
<text text-anchor="middle" x="2998.41" y="-183" font-family="Helvetica,sans-Serif" font-size="10.00">_draw.h</text>
</a>
</g>
<!-- Node2&#45;&gt;Node64 -->
<g id="edge326" class="edge"><title>Node2&#45;&gt;Node64</title>
<path fill="none" stroke="midnightblue" d="M3021.88,-478.267C3012.17,-469.646 2999.88,-456.6 2994.41,-442 2965.71,-365.451 2981.4,-266.23 2991.7,-219.124"/>
<polygon fill="midnightblue" stroke="midnightblue" points="2995.18,-219.628 2993.99,-209.1 2988.35,-218.072 2995.18,-219.628"/>
</g>
<!-- Node65 -->
<g id="node235" class="node"><title>Node65</title>
<polygon fill="white" stroke="#bfbfbf" points="3035.91,-420.5 3035.91,-441.5 3086.91,-441.5 3086.91,-420.5 3035.91,-420.5"/>
<text text-anchor="middle" x="3061.41" y="-428.5" font-family="Helvetica,sans-Serif" font-size="10.00">TH1D.h</text>
</g>
<!-- Node2&#45;&gt;Node65 -->
<g id="edge340" class="edge"><title>Node2&#45;&gt;Node65</title>
<path fill="none" stroke="midnightblue" d="M3040.18,-478.362C3043.62,-470.677 3048.38,-460.069 3052.52,-450.84"/>
<polygon fill="midnightblue" stroke="midnightblue" points="3055.77,-452.127 3056.67,-441.571 3049.39,-449.264 3055.77,-452.127"/>
</g>
<!-- Node66 -->
<g id="node237" class="node"><title>Node66</title>
<polygon fill="white" stroke="#bfbfbf" points="3103.91,-420.5 3103.91,-441.5 3154.91,-441.5 3154.91,-420.5 3103.91,-420.5"/>
<text text-anchor="middle" x="3129.41" y="-428.5" font-family="Helvetica,sans-Serif" font-size="10.00">TH2D.h</text>
</g>
<!-- Node2&#45;&gt;Node66 -->
<g id="edge342" class="edge"><title>Node2&#45;&gt;Node66</title>
<path fill="none" stroke="midnightblue" d="M3052.65,-478.362C3066.96,-469.532 3087.52,-456.844 3103.77,-446.822"/>
<polygon fill="midnightblue" stroke="midnightblue" points="3105.6,-449.8 3112.28,-441.571 3101.93,-443.843 3105.6,-449.8"/>
</g>
<!-- Node67 -->
<g id="node239" class="node"><title>Node67</title>
<polygon fill="white" stroke="#bfbfbf" points="3171.91,-420.5 3171.91,-441.5 3222.91,-441.5 3222.91,-420.5 3171.91,-420.5"/>
<text text-anchor="middle" x="3197.41" y="-428.5" font-family="Helvetica,sans-Serif" font-size="10.00">TH3D.h</text>
</g>
<!-- Node2&#45;&gt;Node67 -->
<g id="edge344" class="edge"><title>Node2&#45;&gt;Node67</title>
<path fill="none" stroke="midnightblue" d="M3064.75,-478.497C3092.07,-468.714 3132.85,-454.112 3161.98,-443.683"/>
<polygon fill="midnightblue" stroke="midnightblue" points="3163.52,-446.849 3171.76,-440.184 3161.16,-440.259 3163.52,-446.849"/>
</g>
<!-- Node5 -->
<g id="node9" class="node"><title>Node5</title>
<a xlink:href="interval_8h.html" target="_top" xlink:title="base/interval.h">
<polygon fill="white" stroke="black" points="1793.41,-116.5 1793.41,-137.5 1873.41,-137.5 1873.41,-116.5 1793.41,-116.5"/>
<text text-anchor="middle" x="1833.41" y="-124.5" font-family="Helvetica,sans-Serif" font-size="10.00">base/interval.h</text>
</a>
</g>
<!-- Node4&#45;&gt;Node5 -->
<g id="edge8" class="edge"><title>Node4&#45;&gt;Node5</title>
<path fill="none" stroke="midnightblue" d="M2245.32,-246.471C2212.92,-239.366 2174.03,-227.919 2142.41,-210 2122.17,-198.53 2125.26,-184.319 2104.41,-174 2017.71,-131.092 1982.82,-155.271 1883.61,-138.062"/>
<polygon fill="midnightblue" stroke="midnightblue" points="1883.95,-134.566 1873.48,-136.201 1882.68,-141.451 1883.95,-134.566"/>
</g>
<!-- Node14 -->
<g id="node27" class="node"><title>Node14</title>
<a xlink:href="_bin_settings_8h.html" target="_top" xlink:title="base/BinSettings.h">
<polygon fill="white" stroke="black" points="1996.91,-181.5 1996.91,-202.5 2095.91,-202.5 2095.91,-181.5 1996.91,-181.5"/>
<text text-anchor="middle" x="2046.41" y="-189.5" font-family="Helvetica,sans-Serif" font-size="10.00">base/BinSettings.h</text>
</a>
</g>
<!-- Node4&#45;&gt;Node14 -->
<g id="edge26" class="edge"><title>Node4&#45;&gt;Node14</title>
<path fill="none" stroke="midnightblue" d="M2262.33,-246.447C2221.5,-237.322 2161.44,-223.508 2109.41,-210 2103.77,-208.535 2097.86,-206.935 2092.02,-205.313"/>
<polygon fill="midnightblue" stroke="midnightblue" points="2092.88,-201.921 2082.31,-202.583 2090.99,-208.66 2092.88,-201.921"/>
</g>
<!-- Node15 -->
<g id="node30" class="node"><title>Node15</title>
<polygon fill="white" stroke="#bfbfbf" points="2277.41,-58.5 2277.41,-79.5 2321.41,-79.5 2321.41,-58.5 2277.41,-58.5"/>
<text text-anchor="middle" x="2299.41" y="-66.5" font-family="Helvetica,sans-Serif" font-size="10.00">vector</text>
</g>
<!-- Node4&#45;&gt;Node15 -->
<g id="edge36" class="edge"><title>Node4&#45;&gt;Node15</title>
<path fill="none" stroke="midnightblue" d="M2394.53,-254.589C2583.93,-248.769 3029.22,-232.731 3052.41,-210 3082.3,-180.694 3087.26,-146.33 3058.41,-116 3003.05,-57.8068 2415.58,-93.5414 2336.41,-80 2334.73,-79.7126 2333.02,-79.3737 2331.3,-78.9964"/>
<polygon fill="midnightblue" stroke="midnightblue" points="2332.06,-75.5802 2321.51,-76.5063 2330.34,-82.364 2332.06,-75.5802"/>
</g>
<!-- Node4&#45;&gt;Node16 -->
<g id="edge34" class="edge"><title>Node4&#45;&gt;Node16</title>
<path fill="none" stroke="midnightblue" d="M2394.73,-256.291C2635.16,-253.86 3308.9,-244.027 3341.41,-210 3357.16,-193.51 3328.62,-119.921 3326.41,-116 3320.14,-104.886 3310.57,-94.5164 3301.78,-86.3606"/>
<polygon fill="midnightblue" stroke="midnightblue" points="3303.86,-83.5283 3294.05,-79.5349 3299.23,-88.7764 3303.86,-83.5283"/>
</g>
<!-- Node6 -->
<g id="node11" class="node"><title>Node6</title>
<a xlink:href="printable_8h.html" target="_top" xlink:title="printable.h">
<polygon fill="white" stroke="black" points="1183.41,-58.5 1183.41,-79.5 1245.41,-79.5 1245.41,-58.5 1183.41,-58.5"/>
<text text-anchor="middle" x="1214.41" y="-66.5" font-family="Helvetica,sans-Serif" font-size="10.00">printable.h</text>
</a>
</g>
<!-- Node5&#45;&gt;Node6 -->
<g id="edge10" class="edge"><title>Node5&#45;&gt;Node6</title>
<path fill="none" stroke="midnightblue" d="M1793.17,-121.515C1778.47,-119.616 1761.7,-117.573 1746.41,-116 1545.06,-95.2993 1493.61,-102.143 1292.41,-80 1280.42,-78.6809 1267.44,-76.9656 1255.57,-75.2834"/>
<polygon fill="midnightblue" stroke="midnightblue" points="1255.88,-71.7913 1245.48,-73.8245 1254.87,-78.7192 1255.88,-71.7913"/>
</g>
<!-- Node9 -->
<g id="node17" class="node"><title>Node9</title>
<a xlink:href="types_8h.html" target="_top" xlink:title="types.h">
<polygon fill="white" stroke="black" points="2344.91,-58.5 2344.91,-79.5 2393.91,-79.5 2393.91,-58.5 2344.91,-58.5"/>
<text text-anchor="middle" x="2369.41" y="-66.5" font-family="Helvetica,sans-Serif" font-size="10.00">types.h</text>
</a>
</g>
<!-- Node5&#45;&gt;Node9 -->
<g id="edge16" class="edge"><title>Node5&#45;&gt;Node9</title>
<path fill="none" stroke="midnightblue" d="M1873.43,-117.533C1876.46,-116.965 1879.48,-116.444 1882.41,-116 2079.9,-86.0492 2133.8,-115.28 2330.41,-80 2331.88,-79.736 2333.38,-79.44 2334.88,-79.1192"/>
<polygon fill="midnightblue" stroke="midnightblue" points="2335.92,-82.4686 2344.82,-76.717 2334.28,-75.6645 2335.92,-82.4686"/>
</g>
<!-- Node10 -->
<g id="node19" class="node"><title>Node10</title>
<polygon fill="white" stroke="#bfbfbf" points="1958.41,-58.5 1958.41,-79.5 2014.41,-79.5 2014.41,-58.5 1958.41,-58.5"/>
<text text-anchor="middle" x="1986.41" y="-66.5" font-family="Helvetica,sans-Serif" font-size="10.00">algorithm</text>
</g>
<!-- Node5&#45;&gt;Node10 -->
<g id="edge18" class="edge"><title>Node5&#45;&gt;Node10</title>
<path fill="none" stroke="midnightblue" d="M1861.12,-116.497C1885.74,-107.164 1921.93,-93.4447 1949.09,-83.1475"/>
<polygon fill="midnightblue" stroke="midnightblue" points="1950.54,-86.3406 1958.65,-79.5231 1948.06,-79.7951 1950.54,-86.3406"/>
</g>
<!-- Node11 -->
<g id="node21" class="node"><title>Node11</title>
<polygon fill="white" stroke="#bfbfbf" points="1535.91,-58.5 1535.91,-79.5 1594.91,-79.5 1594.91,-58.5 1535.91,-58.5"/>
<text text-anchor="middle" x="1565.41" y="-66.5" font-family="Helvetica,sans-Serif" font-size="10.00">stdexcept</text>
</g>
<!-- Node5&#45;&gt;Node11 -->
<g id="edge20" class="edge"><title>Node5&#45;&gt;Node11</title>
<path fill="none" stroke="midnightblue" d="M1793.29,-118.317C1742.47,-107.319 1655.45,-88.4859 1604.92,-77.551"/>
<polygon fill="midnightblue" stroke="midnightblue" points="1605.54,-74.1031 1595.02,-75.4086 1604.05,-80.9447 1605.54,-74.1031"/>
</g>
<!-- Node12 -->
<g id="node23" class="node"><title>Node12</title>
<polygon fill="white" stroke="#bfbfbf" points="1729.41,-58.5 1729.41,-79.5 1769.41,-79.5 1769.41,-58.5 1729.41,-58.5"/>
<text text-anchor="middle" x="1749.41" y="-66.5" font-family="Helvetica,sans-Serif" font-size="10.00">limits</text>
</g>
<!-- Node5&#45;&gt;Node12 -->
<g id="edge22" class="edge"><title>Node5&#45;&gt;Node12</title>
<path fill="none" stroke="midnightblue" d="M1818,-116.362C1805.45,-107.696 1787.52,-95.3126 1773.13,-85.3819"/>
<polygon fill="midnightblue" stroke="midnightblue" points="1774.94,-82.3725 1764.72,-79.5707 1770.96,-88.1327 1774.94,-82.3725"/>
</g>
<!-- Node13 -->
<g id="node25" class="node"><title>Node13</title>
<polygon fill="white" stroke="#bfbfbf" points="1808.91,-58.5 1808.91,-79.5 1857.91,-79.5 1857.91,-58.5 1808.91,-58.5"/>
<text text-anchor="middle" x="1833.41" y="-66.5" font-family="Helvetica,sans-Serif" font-size="10.00">istream</text>
</g>
<!-- Node5&#45;&gt;Node13 -->
<g id="edge24" class="edge"><title>Node5&#45;&gt;Node13</title>
<path fill="none" stroke="midnightblue" d="M1833.41,-116.362C1833.41,-108.922 1833.41,-98.7427 1833.41,-89.7276"/>
<polygon fill="midnightblue" stroke="midnightblue" points="1836.91,-89.5706 1833.41,-79.5707 1829.91,-89.5707 1836.91,-89.5706"/>
</g>
<!-- Node7 -->
<g id="node13" class="node"><title>Node7</title>
<polygon fill="white" stroke="#bfbfbf" points="1124.41,-0.5 1124.41,-21.5 1186.41,-21.5 1186.41,-0.5 1124.41,-0.5"/>
<text text-anchor="middle" x="1155.41" y="-8.5" font-family="Helvetica,sans-Serif" font-size="10.00">type_traits</text>
</g>
<!-- Node6&#45;&gt;Node7 -->
<g id="edge12" class="edge"><title>Node6&#45;&gt;Node7</title>
<path fill="none" stroke="midnightblue" d="M1203.59,-58.3619C1195.19,-50.1043 1183.36,-38.4725 1173.52,-28.8029"/>
<polygon fill="midnightblue" stroke="midnightblue" points="1175.75,-26.0851 1166.16,-21.5707 1170.84,-31.077 1175.75,-26.0851"/>
</g>
<!-- Node8 -->
<g id="node15" class="node"><title>Node8</title>
<polygon fill="white" stroke="#bfbfbf" points="2391.41,-0.5 2391.41,-21.5 2443.41,-21.5 2443.41,-0.5 2391.41,-0.5"/>
<text text-anchor="middle" x="2417.41" y="-8.5" font-family="Helvetica,sans-Serif" font-size="10.00">ostream</text>
</g>
<!-- Node6&#45;&gt;Node8 -->
<g id="edge14" class="edge"><title>Node6&#45;&gt;Node8</title>
<path fill="none" stroke="midnightblue" d="M1245.45,-63.9079C1259.72,-61.7518 1276.88,-59.4156 1292.41,-58 1719.31,-19.0759 2240.32,-12.3497 2380.97,-11.221"/>
<polygon fill="midnightblue" stroke="midnightblue" points="2381.21,-14.7194 2391.18,-11.1437 2381.16,-7.71963 2381.21,-14.7194"/>
</g>
<!-- Node14&#45;&gt;Node5 -->
<g id="edge28" class="edge"><title>Node14&#45;&gt;Node5</title>
<path fill="none" stroke="midnightblue" d="M2012.68,-181.493C2004.73,-179.025 1996.27,-176.412 1988.41,-174 1951.29,-162.614 1909.13,-149.839 1878.16,-140.486"/>
<polygon fill="midnightblue" stroke="midnightblue" points="1879.1,-137.114 1868.52,-137.575 1877.08,-143.816 1879.1,-137.114"/>
</g>
<!-- Node14&#45;&gt;Node11 -->
<g id="edge32" class="edge"><title>Node14&#45;&gt;Node11</title>
<path fill="none" stroke="midnightblue" d="M2016.61,-181.482C2007.64,-178.663 1997.71,-175.88 1988.41,-174 1908.3,-157.805 1694.55,-176.404 1622.41,-138 1601.54,-126.891 1585.35,-104.616 1575.64,-88.3705"/>
<polygon fill="midnightblue" stroke="midnightblue" points="1578.66,-86.6067 1570.69,-79.632 1572.57,-90.0578 1578.66,-86.6067"/>
</g>
<!-- Node14&#45;&gt;Node15 -->
<g id="edge30" class="edge"><title>Node14&#45;&gt;Node15</title>
<path fill="none" stroke="midnightblue" d="M2081.79,-181.482C2112.16,-171.875 2156.71,-156.393 2193.41,-138 2223.81,-122.764 2256.23,-100.709 2277.09,-85.6619"/>
<polygon fill="midnightblue" stroke="midnightblue" points="2279.27,-88.4044 2285.28,-79.6826 2275.14,-82.7496 2279.27,-88.4044"/>
</g>
<!-- Node17&#45;&gt;Node18 -->
<g id="edge40" class="edge"><title>Node17&#45;&gt;Node18</title>
<path fill="none" stroke="midnightblue" d="M2541.44,-181.412C2518.09,-170.647 2481.71,-153.878 2455.52,-141.801"/>
<polygon fill="midnightblue" stroke="midnightblue" points="2456.91,-138.592 2446.37,-137.584 2453.98,-144.949 2456.91,-138.592"/>
</g>
<!-- Node17&#45;&gt;Node19 -->
<g id="edge42" class="edge"><title>Node17&#45;&gt;Node19</title>
<path fill="none" stroke="midnightblue" d="M2585.75,-181.412C2609.3,-169.725 2647.12,-150.962 2671.61,-138.808"/>
<polygon fill="midnightblue" stroke="midnightblue" points="2673.19,-141.93 2680.6,-134.35 2670.08,-135.659 2673.19,-141.93"/>
</g>
<!-- Node20&#45;&gt;Node6 -->
<g id="edge48" class="edge"><title>Node20&#45;&gt;Node6</title>
<path fill="none" stroke="midnightblue" d="M1917.41,-181.371C1910.15,-178.55 1902.07,-175.793 1894.41,-174 1728.8,-135.228 1680.2,-171.348 1513.41,-138 1481.01,-131.523 1474.4,-124.233 1442.41,-116 1377.64,-99.3311 1301.33,-84.573 1255.47,-76.2206"/>
<polygon fill="midnightblue" stroke="midnightblue" points="1256.07,-72.7721 1245.61,-74.4374 1254.82,-79.6604 1256.07,-72.7721"/>
</g>
<!-- Node20&#45;&gt;Node11 -->
<g id="edge52" class="edge"><title>Node20&#45;&gt;Node11</title>
<path fill="none" stroke="midnightblue" d="M1917.38,-181.483C1910.12,-178.665 1902.04,-175.882 1894.41,-174 1828.14,-157.67 1642.62,-180.743 1589.41,-138 1575.01,-126.431 1569.22,-105.691 1566.91,-89.9609"/>
<polygon fill="midnightblue" stroke="midnightblue" points="1570.35,-89.1516 1565.77,-79.5948 1563.39,-89.9179 1570.35,-89.1516"/>
</g>
<!-- Node20&#45;&gt;Node18 -->
<g id="edge50" class="edge"><title>Node20&#45;&gt;Node18</title>
<path fill="none" stroke="midnightblue" d="M1965.42,-181.402C1972.68,-178.581 1980.76,-175.817 1988.41,-174 2143.57,-137.159 2187.09,-157.138 2345.41,-138 2359.01,-136.355 2373.92,-134.313 2387.02,-132.436"/>
<polygon fill="midnightblue" stroke="midnightblue" points="2387.69,-135.875 2397.09,-130.977 2386.69,-128.948 2387.69,-135.875"/>
</g>
<!-- Node21 -->
<g id="node44" class="node"><title>Node21</title>
<polygon fill="white" stroke="#bfbfbf" points="2803.41,-116.5 2803.41,-137.5 2859.41,-137.5 2859.41,-116.5 2803.41,-116.5"/>
<text text-anchor="middle" x="2831.41" y="-124.5" font-family="Helvetica,sans-Serif" font-size="10.00">Rtypes.h</text>
</g>
<!-- Node20&#45;&gt;Node21 -->
<g id="edge46" class="edge"><title>Node20&#45;&gt;Node21</title>
<path fill="none" stroke="midnightblue" d="M1964.88,-181.342C1972.26,-178.447 1980.54,-175.656 1988.41,-174 2306.28,-107.075 2394.44,-161.743 2718.41,-138 2743.24,-136.18 2771.08,-133.478 2792.92,-131.207"/>
<polygon fill="midnightblue" stroke="midnightblue" points="2793.53,-134.661 2803.11,-130.133 2792.8,-127.7 2793.53,-134.661"/>
</g>
<!-- Node22&#45;&gt;Node6 -->
<g id="edge56" class="edge"><title>Node22&#45;&gt;Node6</title>
<path fill="none" stroke="midnightblue" d="M1103.74,-428.536C990.77,-419.942 710.635,-381.492 582.409,-210 557.34,-176.473 547.916,-146.67 576.409,-116 596.762,-94.0928 1034.5,-75.7786 1172.87,-70.5192"/>
<polygon fill="midnightblue" stroke="midnightblue" points="1173.2,-74.0093 1183.06,-70.1349 1172.94,-67.0142 1173.2,-74.0093"/>
</g>
<!-- Node23 -->
<g id="node52" class="node"><title>Node23</title>
<a xlink:href="_t_i_d_8h.html" target="_top" xlink:title="TID.h">
<polygon fill="white" stroke="black" points="250.909,-246.5 250.909,-267.5 291.909,-267.5 291.909,-246.5 250.909,-246.5"/>
<text text-anchor="middle" x="271.409" y="-254.5" font-family="Helvetica,sans-Serif" font-size="10.00">TID.h</text>
</a>
</g>
<!-- Node22&#45;&gt;Node23 -->
<g id="edge58" class="edge"><title>Node22&#45;&gt;Node23</title>
<path fill="none" stroke="midnightblue" d="M1103.77,-429.945C972.65,-426.712 614.093,-415.194 500.409,-384 417.611,-361.281 332.346,-302.963 293.316,-273.937"/>
<polygon fill="midnightblue" stroke="midnightblue" points="294.938,-270.777 284.846,-267.554 290.726,-276.367 294.938,-270.777"/>
</g>
<!-- Node32 -->
<g id="node79" class="node"><title>Node32</title>
<a xlink:href="_t_detector_read_hit_8h.html" target="_top" xlink:title="TDetectorReadHit.h">
<polygon fill="white" stroke="black" points="496.409,-246.5 496.409,-267.5 600.409,-267.5 600.409,-246.5 496.409,-246.5"/>
<text text-anchor="middle" x="548.409" y="-254.5" font-family="Helvetica,sans-Serif" font-size="10.00">TDetectorReadHit.h</text>
</a>
</g>
<!-- Node22&#45;&gt;Node32 -->
<g id="edge94" class="edge"><title>Node22&#45;&gt;Node32</title>
<path fill="none" stroke="midnightblue" d="M1103.9,-429.409C979.242,-424.951 654.598,-410.87 614.409,-384 577.409,-359.262 559.875,-306.969 552.68,-277.79"/>
<polygon fill="midnightblue" stroke="midnightblue" points="556.048,-276.815 550.41,-267.845 549.223,-278.373 556.048,-276.815"/>
</g>
<!-- Node38 -->
<g id="node106" class="node"><title>Node38</title>
<a xlink:href="_t_slow_control_8h.html" target="_top" xlink:title="TSlowControl.h">
<polygon fill="white" stroke="black" points="143.409,-304.5 143.409,-325.5 227.409,-325.5 227.409,-304.5 143.409,-304.5"/>
<text text-anchor="middle" x="185.409" y="-312.5" font-family="Helvetica,sans-Serif" font-size="10.00">TSlowControl.h</text>
</a>
</g>
<!-- Node22&#45;&gt;Node38 -->
<g id="edge136" class="edge"><title>Node22&#45;&gt;Node38</title>
<path fill="none" stroke="midnightblue" d="M1103.83,-429.629C935.146,-424.688 380.918,-406.866 304.409,-384 267.443,-372.952 229.741,-348.369 206.954,-331.734"/>
<polygon fill="midnightblue" stroke="midnightblue" points="208.813,-328.754 198.705,-325.579 204.627,-334.364 208.813,-328.754"/>
</g>
<!-- Node39 -->
<g id="node113" class="node"><title>Node39</title>
<a xlink:href="_t_unpacker_message_8h.html" target="_top" xlink:title="TUnpackerMessage.h">
<polygon fill="white" stroke="black" points="866.909,-246.5 866.909,-267.5 979.909,-267.5 979.909,-246.5 866.909,-246.5"/>
<text text-anchor="middle" x="923.409" y="-254.5" font-family="Helvetica,sans-Serif" font-size="10.00">TUnpackerMessage.h</text>
</a>
</g>
<!-- Node22&#45;&gt;Node39 -->
<g id="edge148" class="edge"><title>Node22&#45;&gt;Node39</title>
<path fill="none" stroke="midnightblue" d="M1135.35,-420.374C1106.52,-402.175 1046.66,-363.378 999.409,-326 978.772,-309.674 956.658,-289.226 941.636,-274.843"/>
<polygon fill="midnightblue" stroke="midnightblue" points="943.699,-271.97 934.074,-267.541 938.836,-277.005 943.699,-271.97"/>
</g>
<!-- Node47 -->
<g id="node137" class="node"><title>Node47</title>
<a xlink:href="_t_tagger_hit_8h.html" target="_top" xlink:title="TTaggerHit.h">
<polygon fill="white" stroke="black" points="393.409,-304.5 393.409,-325.5 467.409,-325.5 467.409,-304.5 393.409,-304.5"/>
<text text-anchor="middle" x="430.409" y="-312.5" font-family="Helvetica,sans-Serif" font-size="10.00">TTaggerHit.h</text>
</a>
</g>
<!-- Node22&#45;&gt;Node47 -->
<g id="edge180" class="edge"><title>Node22&#45;&gt;Node47</title>
<path fill="none" stroke="midnightblue" d="M1103.82,-429.818C980.474,-426.397 657.729,-414.698 555.409,-384 517.092,-372.504 477.41,-348.082 453.311,-331.598"/>
<polygon fill="midnightblue" stroke="midnightblue" points="455.077,-328.563 444.873,-325.713 451.073,-334.305 455.077,-328.563"/>
</g>
<!-- Node49 -->
<g id="node147" class="node"><title>Node49</title>
<a xlink:href="_t_trigger_8h.html" target="_top" xlink:title="TTrigger.h">
<polygon fill="white" stroke="black" points="2150.91,-181.5 2150.91,-202.5 2211.91,-202.5 2211.91,-181.5 2150.91,-181.5"/>
<text text-anchor="middle" x="2181.41" y="-189.5" font-family="Helvetica,sans-Serif" font-size="10.00">TTrigger.h</text>
</a>
</g>
<!-- Node22&#45;&gt;Node49 -->
<g id="edge196" class="edge"><title>Node22&#45;&gt;Node49</title>
<path fill="none" stroke="midnightblue" d="M1200.98,-424.626C1259.14,-416.661 1359.36,-401.88 1444.41,-384 1712.93,-327.547 2030.41,-236.452 2141.02,-203.975"/>
<polygon fill="midnightblue" stroke="midnightblue" points="2142.16,-207.287 2150.77,-201.107 2140.18,-200.572 2142.16,-207.287"/>
</g>
<!-- Node50 -->
<g id="node154" class="node"><title>Node50</title>
<a xlink:href="_t_target_8h.html" target="_top" xlink:title="TTarget.h">
<polygon fill="white" stroke="black" points="1826.91,-181.5 1826.91,-202.5 1885.91,-202.5 1885.91,-181.5 1826.91,-181.5"/>
<text text-anchor="middle" x="1856.41" y="-189.5" font-family="Helvetica,sans-Serif" font-size="10.00">TTarget.h</text>
</a>
</g>
<!-- Node22&#45;&gt;Node50 -->
<g id="edge208" class="edge"><title>Node22&#45;&gt;Node50</title>
<path fill="none" stroke="midnightblue" d="M1201.21,-424.736C1251.37,-417.589 1331.39,-404.21 1398.41,-384 1565.49,-333.617 1754.68,-242.876 1826.57,-207.094"/>
<polygon fill="midnightblue" stroke="midnightblue" points="1828.15,-210.217 1835.53,-202.615 1825.02,-203.956 1828.15,-210.217"/>
</g>
<!-- Node51 -->
<g id="node162" class="node"><title>Node51</title>
<a xlink:href="_t_cluster_8h.html" target="_top" xlink:title="TCluster.h">
<polygon fill="white" stroke="black" points="1409.41,-246.5 1409.41,-267.5 1471.41,-267.5 1471.41,-246.5 1409.41,-246.5"/>
<text text-anchor="middle" x="1440.41" y="-254.5" font-family="Helvetica,sans-Serif" font-size="10.00">TCluster.h</text>
</a>
</g>
<!-- Node22&#45;&gt;Node51 -->
<g id="edge222" class="edge"><title>Node22&#45;&gt;Node51</title>
<path fill="none" stroke="midnightblue" d="M1169.99,-420.377C1218.8,-390.891 1356.15,-307.905 1414.1,-272.896"/>
<polygon fill="midnightblue" stroke="midnightblue" points="1415.94,-275.872 1422.69,-267.705 1412.32,-269.88 1415.94,-275.872"/>
</g>
<!-- Node54 -->
<g id="node179" class="node"><title>Node54</title>
<a xlink:href="_t_candidate_8h.html" target="_top" xlink:title="TCandidate.h">
<polygon fill="white" stroke="black" points="1402.91,-304.5 1402.91,-325.5 1477.91,-325.5 1477.91,-304.5 1402.91,-304.5"/>
<text text-anchor="middle" x="1440.41" y="-312.5" font-family="Helvetica,sans-Serif" font-size="10.00">TCandidate.h</text>
</a>
</g>
<!-- Node22&#45;&gt;Node54 -->
<g id="edge250" class="edge"><title>Node22&#45;&gt;Node54</title>
<path fill="none" stroke="midnightblue" d="M1201.34,-423.715C1256.35,-414.96 1341.71,-399.503 1370.41,-384 1393.34,-371.614 1413.82,-349.45 1426.62,-333.583"/>
<polygon fill="midnightblue" stroke="midnightblue" points="1429.52,-335.556 1432.9,-325.517 1423.99,-331.254 1429.52,-335.556"/>
</g>
<!-- Node55 -->
<g id="node188" class="node"><title>Node55</title>
<a xlink:href="_t_particle_8h.html" target="_top" xlink:title="TParticle.h">
<polygon fill="white" stroke="black" points="2390.41,-362.5 2390.41,-383.5 2454.41,-383.5 2454.41,-362.5 2390.41,-362.5"/>
<text text-anchor="middle" x="2422.41" y="-370.5" font-family="Helvetica,sans-Serif" font-size="10.00">TParticle.h</text>
</a>
</g>
<!-- Node22&#45;&gt;Node55 -->
<g id="edge266" class="edge"><title>Node22&#45;&gt;Node55</title>
<path fill="none" stroke="midnightblue" d="M1201.03,-428.78C1404.87,-419.47 2188.87,-383.666 2380.14,-374.93"/>
<polygon fill="midnightblue" stroke="midnightblue" points="2380.51,-378.417 2390.34,-374.464 2380.2,-371.424 2380.51,-378.417"/>
</g>
<!-- Node23&#45;&gt;Node6 -->
<g id="edge62" class="edge"><title>Node23&#45;&gt;Node6</title>
<path fill="none" stroke="midnightblue" d="M275.17,-246.387C285.52,-218.98 317.298,-145.899 371.409,-116 441.877,-77.0623 1012.28,-70.3414 1172.62,-69.2183"/>
<polygon fill="midnightblue" stroke="midnightblue" points="1173.04,-72.7157 1183.01,-69.1494 1172.99,-65.7159 1173.04,-72.7157"/>
</g>
<!-- Node23&#45;&gt;Node7 -->
<g id="edge80" class="edge"><title>Node23&#45;&gt;Node7</title>
<path fill="none" stroke="midnightblue" d="M250.9,-256.068C197.646,-253.202 56.9822,-242.634 26.4089,-210 -2.28479,-179.372 -9.60168,-148.122 17.4089,-116 89.4277,-30.3532 918.28,-14.1158 1114.12,-11.4671"/>
<polygon fill="midnightblue" stroke="midnightblue" points="1114.33,-14.9648 1124.28,-11.3343 1114.24,-7.9654 1114.33,-14.9648"/>
</g>
<!-- Node23&#45;&gt;Node11 -->
<g id="edge86" class="edge"><title>Node23&#45;&gt;Node11</title>
<path fill="none" stroke="midnightblue" d="M288.753,-246.326C335.762,-218.1 470.427,-141.891 594.409,-116 760.352,-81.3469 1187.1,-88.455 1356.41,-80 1415.29,-77.0597 1483.49,-73.4279 1525.54,-71.1622"/>
<polygon fill="midnightblue" stroke="midnightblue" points="1525.85,-74.6507 1535.65,-70.6168 1525.47,-67.6608 1525.85,-74.6507"/>
</g>
<!-- Node23&#45;&gt;Node19 -->
<g id="edge88" class="edge"><title>Node23&#45;&gt;Node19</title>
<path fill="none" stroke="midnightblue" d="M291.949,-255.73C330.329,-253.408 415.546,-248.485 487.409,-246 596.862,-242.214 2357.04,-251.467 2458.41,-210 2479.94,-201.191 2475.9,-184.988 2496.41,-174 2559.51,-140.189 2583.89,-155.071 2653.41,-138 2659.08,-136.607 2665.17,-135.049 2670.9,-133.554"/>
<polygon fill="midnightblue" stroke="midnightblue" points="2671.89,-136.914 2680.66,-130.98 2670.1,-130.145 2671.89,-136.914"/>
</g>
<!-- Node23&#45;&gt;Node21 -->
<g id="edge60" class="edge"><title>Node23&#45;&gt;Node21</title>
<path fill="none" stroke="midnightblue" d="M291.949,-255.711C330.327,-253.355 415.543,-248.381 487.409,-246 552.464,-243.844 2784.46,-256.103 2830.41,-210 2846.39,-193.97 2843.14,-166.371 2838.24,-147.43"/>
<polygon fill="midnightblue" stroke="midnightblue" points="2841.55,-146.289 2835.38,-137.679 2834.83,-148.26 2841.55,-146.289"/>
</g>
<!-- Node24 -->
<g id="node56" class="node"><title>Node24</title>
<a xlink:href="time_8h.html" target="_top" xlink:title="base/std_ext/time.h">
<polygon fill="white" stroke="black" points="46.9089,-181.5 46.9089,-202.5 149.909,-202.5 149.909,-181.5 46.9089,-181.5"/>
<text text-anchor="middle" x="98.4089" y="-189.5" font-family="Helvetica,sans-Serif" font-size="10.00">base/std_ext/time.h</text>
</a>
</g>
<!-- Node23&#45;&gt;Node24 -->
<g id="edge64" class="edge"><title>Node23&#45;&gt;Node24</title>
<path fill="none" stroke="midnightblue" d="M250.884,-249.288C222.659,-238.684 171.36,-219.409 136.118,-206.168"/>
<polygon fill="midnightblue" stroke="midnightblue" points="137.228,-202.846 126.636,-202.606 134.766,-209.399 137.228,-202.846"/>
</g>
<!-- Node28 -->
<g id="node67" class="node"><title>Node28</title>
<polygon fill="white" stroke="#bfbfbf" points="25.9089,-116.5 25.9089,-137.5 66.9089,-137.5 66.9089,-116.5 25.9089,-116.5"/>
<text text-anchor="middle" x="46.4089" y="-124.5" font-family="Helvetica,sans-Serif" font-size="10.00">ctime</text>
</g>
<!-- Node23&#45;&gt;Node28 -->
<g id="edge92" class="edge"><title>Node23&#45;&gt;Node28</title>
<path fill="none" stroke="midnightblue" d="M250.623,-253.538C194.774,-244.141 45.2043,-218.303 38.4089,-210 24.0864,-192.5 30.2218,-165.452 37.1812,-147.025"/>
<polygon fill="midnightblue" stroke="midnightblue" points="40.5133,-148.127 41.1164,-137.55 34.0486,-145.442 40.5133,-148.127"/>
</g>
<!-- Node29 -->
<g id="node70" class="node"><title>Node29</title>
<polygon fill="white" stroke="#bfbfbf" points="205.409,-181.5 205.409,-202.5 243.409,-202.5 243.409,-181.5 205.409,-181.5"/>
<text text-anchor="middle" x="224.409" y="-189.5" font-family="Helvetica,sans-Serif" font-size="10.00">tuple</text>
</g>
<!-- Node23&#45;&gt;Node29 -->
<g id="edge82" class="edge"><title>Node23&#45;&gt;Node29</title>
<path fill="none" stroke="midnightblue" d="M263.648,-246.267C256.667,-236.612 246.256,-222.215 237.912,-210.675"/>
<polygon fill="midnightblue" stroke="midnightblue" points="240.721,-208.586 232.026,-202.534 235.049,-212.688 240.721,-208.586"/>
</g>
<!-- Node30 -->
<g id="node72" class="node"><title>Node30</title>
<polygon fill="white" stroke="#bfbfbf" points="197.409,-116.5 197.409,-137.5 243.409,-137.5 243.409,-116.5 197.409,-116.5"/>
<text text-anchor="middle" x="220.409" y="-124.5" font-family="Helvetica,sans-Serif" font-size="10.00">cstdint</text>
</g>
<!-- Node23&#45;&gt;Node30 -->
<g id="edge84" class="edge"><title>Node23&#45;&gt;Node30</title>
<path fill="none" stroke="midnightblue" d="M270.261,-246.385C268.232,-230.207 263.168,-198.659 252.409,-174 248.061,-164.033 241.529,-153.942 235.499,-145.678"/>
<polygon fill="midnightblue" stroke="midnightblue" points="238.126,-143.35 229.279,-137.521 232.559,-147.595 238.126,-143.35"/>
</g>
<!-- Node31 -->
<g id="node76" class="node"><title>Node31</title>
<polygon fill="white" stroke="#bfbfbf" points="451.409,-181.5 451.409,-202.5 501.409,-202.5 501.409,-181.5 451.409,-181.5"/>
<text text-anchor="middle" x="476.409" y="-189.5" font-family="Helvetica,sans-Serif" font-size="10.00">iomanip</text>
</g>
<!-- Node23&#45;&gt;Node31 -->
<g id="edge90" class="edge"><title>Node23&#45;&gt;Node31</title>
<path fill="none" stroke="midnightblue" d="M291.924,-252.29C323.605,-244.772 386.138,-228.957 437.409,-210 440.163,-208.982 442.992,-207.851 445.809,-206.666"/>
<polygon fill="midnightblue" stroke="midnightblue" points="447.473,-209.757 455.207,-202.516 444.645,-203.354 447.473,-209.757"/>
</g>
<!-- Node25 -->
<g id="node58" class="node"><title>Node25</title>
<a xlink:href="string_8h.html" target="_top" xlink:title="base/std_ext/string.h">
<polygon fill="white" stroke="black" points="1891.41,-116.5 1891.41,-137.5 1999.41,-137.5 1999.41,-116.5 1891.41,-116.5"/>
<text text-anchor="middle" x="1945.41" y="-124.5" font-family="Helvetica,sans-Serif" font-size="10.00">base/std_ext/string.h</text>
</a>
</g>
<!-- Node24&#45;&gt;Node25 -->
<g id="edge66" class="edge"><title>Node24&#45;&gt;Node25</title>
<path fill="none" stroke="midnightblue" d="M147.039,-181.478C162.722,-178.512 180.232,-175.648 196.409,-174 938.688,-98.3997 1134.67,-209.653 1880.99,-137.992"/>
<polygon fill="midnightblue" stroke="midnightblue" points="1881.57,-141.452 1891.18,-137.005 1880.89,-134.485 1881.57,-141.452"/>
</g>
<!-- Node27 -->
<g id="node65" class="node"><title>Node27</title>
<polygon fill="white" stroke="#bfbfbf" points="117.409,-116.5 117.409,-137.5 163.409,-137.5 163.409,-116.5 117.409,-116.5"/>
<text text-anchor="middle" x="140.409" y="-124.5" font-family="Helvetica,sans-Serif" font-size="10.00">cstring</text>
</g>
<!-- Node24&#45;&gt;Node27 -->
<g id="edge76" class="edge"><title>Node24&#45;&gt;Node27</title>
<path fill="none" stroke="midnightblue" d="M105.344,-181.267C111.522,-171.707 120.704,-157.496 128.122,-146.015"/>
<polygon fill="midnightblue" stroke="midnightblue" points="131.115,-147.832 133.603,-137.534 125.236,-144.033 131.115,-147.832"/>
</g>
<!-- Node24&#45;&gt;Node28 -->
<g id="edge78" class="edge"><title>Node24&#45;&gt;Node28</title>
<path fill="none" stroke="midnightblue" d="M89.8222,-181.267C82.0985,-171.612 70.5805,-157.215 61.3489,-145.675"/>
<polygon fill="midnightblue" stroke="midnightblue" points="63.8159,-143.156 54.8359,-137.534 58.3498,-147.529 63.8159,-143.156"/>
</g>
<!-- Node25&#45;&gt;Node10 -->
<g id="edge72" class="edge"><title>Node25&#45;&gt;Node10</title>
<path fill="none" stroke="midnightblue" d="M1952.93,-116.362C1958.54,-108.431 1966.34,-97.3885 1973.01,-87.9606"/>
<polygon fill="midnightblue" stroke="midnightblue" points="1976.02,-89.7568 1978.94,-79.5707 1970.31,-85.7161 1976.02,-89.7568"/>
</g>
<!-- Node25&#45;&gt;Node15 -->
<g id="edge74" class="edge"><title>Node25&#45;&gt;Node15</title>
<path fill="none" stroke="midnightblue" d="M1999.56,-118.128C2074.11,-105.914 2206.02,-84.3007 2266.93,-74.322"/>
<polygon fill="midnightblue" stroke="midnightblue" points="2267.8,-77.7258 2277.1,-72.6549 2266.67,-70.8179 2267.8,-77.7258"/>
</g>
<!-- Node25&#45;&gt;Node16 -->
<g id="edge68" class="edge"><title>Node25&#45;&gt;Node16</title>
<path fill="none" stroke="midnightblue" d="M1999.81,-124.636C2224.44,-114.877 3076.06,-77.8779 3249.48,-70.3439"/>
<polygon fill="midnightblue" stroke="midnightblue" points="3249.85,-73.8313 3259.68,-69.9004 3249.54,-66.8379 3249.85,-73.8313"/>
</g>
<!-- Node26 -->
<g id="node61" class="node"><title>Node26</title>
<polygon fill="white" stroke="#bfbfbf" points="359.409,-58.5 359.409,-79.5 411.409,-79.5 411.409,-58.5 359.409,-58.5"/>
<text text-anchor="middle" x="385.409" y="-66.5" font-family="Helvetica,sans-Serif" font-size="10.00">sstream</text>
</g>
<!-- Node25&#45;&gt;Node26 -->
<g id="edge70" class="edge"><title>Node25&#45;&gt;Node26</title>
<path fill="none" stroke="midnightblue" d="M1891.18,-117.03C1888.22,-116.642 1885.28,-116.294 1882.41,-116 1586.19,-85.6432 621.752,-71.9846 421.875,-69.4441"/>
<polygon fill="midnightblue" stroke="midnightblue" points="421.671,-65.9413 411.628,-69.3151 421.583,-72.9408 421.671,-65.9413"/>
</g>
<!-- Node32&#45;&gt;Node26 -->
<g id="edge134" class="edge"><title>Node32&#45;&gt;Node26</title>
<path fill="none" stroke="midnightblue" d="M546.313,-246.244C542.352,-228.708 532.139,-193.918 510.409,-174 475.279,-141.799 442.977,-171.826 409.409,-138 396.541,-125.033 390.555,-104.814 387.781,-89.6085"/>
<polygon fill="midnightblue" stroke="midnightblue" points="391.224,-88.9669 386.276,-79.5983 384.302,-90.0076 391.224,-88.9669"/>
</g>
<!-- Node32&#45;&gt;Node31 -->
<g id="edge132" class="edge"><title>Node32&#45;&gt;Node31</title>
<path fill="none" stroke="midnightblue" d="M536.52,-246.267C525.406,-236.233 508.618,-221.078 495.606,-209.331"/>
<polygon fill="midnightblue" stroke="midnightblue" points="497.845,-206.637 488.077,-202.534 493.154,-211.833 497.845,-206.637"/>
</g>
<!-- Node33 -->
<g id="node81" class="node"><title>Node33</title>
<a xlink:href="_detector__t_8h.html" target="_top" xlink:title="base/Detector_t.h">
<polygon fill="white" stroke="black" points="1289.91,-181.5 1289.91,-202.5 1384.91,-202.5 1384.91,-181.5 1289.91,-181.5"/>
<text text-anchor="middle" x="1337.41" y="-189.5" font-family="Helvetica,sans-Serif" font-size="10.00">base/Detector_t.h</text>
</a>
</g>
<!-- Node32&#45;&gt;Node33 -->
<g id="edge96" class="edge"><title>Node32&#45;&gt;Node33</title>
<path fill="none" stroke="midnightblue" d="M600.483,-252.71C741.71,-241.075 1131.3,-208.98 1279.32,-196.786"/>
<polygon fill="midnightblue" stroke="midnightblue" points="1279.87,-200.252 1289.55,-195.943 1279.3,-193.276 1279.87,-200.252"/>
</g>
<!-- Node33&#45;&gt;Node6 -->
<g id="edge98" class="edge"><title>Node33&#45;&gt;Node6</title>
<path fill="none" stroke="midnightblue" d="M1289.9,-184.619C1262.25,-177.618 1229.55,-164.076 1212.41,-138 1203.09,-123.817 1204.69,-104.209 1207.99,-89.5191"/>
<polygon fill="midnightblue" stroke="midnightblue" points="1211.37,-90.4027 1210.55,-79.8397 1204.61,-88.6092 1211.37,-90.4027"/>
</g>
<!-- Node33&#45;&gt;Node7 -->
<g id="edge128" class="edge"><title>Node33&#45;&gt;Node7</title>
<path fill="none" stroke="midnightblue" d="M1289.76,-182.466C1261.19,-174.655 1225.8,-161.018 1201.41,-138 1171.28,-109.564 1160.83,-59.8955 1157.24,-31.8404"/>
<polygon fill="midnightblue" stroke="midnightblue" points="1160.69,-31.146 1156.12,-21.5871 1153.73,-31.9091 1160.69,-31.146"/>
</g>
<!-- Node33&#45;&gt;Node11 -->
<g id="edge124" class="edge"><title>Node33&#45;&gt;Node11</title>
<path fill="none" stroke="midnightblue" d="M1357.24,-181.3C1397.69,-159.482 1489.81,-109.786 1536.75,-84.4585"/>
<polygon fill="midnightblue" stroke="midnightblue" points="1538.64,-87.4163 1545.78,-79.588 1535.32,-81.2556 1538.64,-87.4163"/>
</g>
<!-- Node33&#45;&gt;Node15 -->
<g id="edge130" class="edge"><title>Node33&#45;&gt;Node15</title>
<path fill="none" stroke="midnightblue" d="M1385.1,-189.518C1538.39,-181.401 2012.44,-155.186 2079.41,-138 2102.14,-132.167 2105.35,-124.008 2127.41,-116 2175.14,-98.6719 2232.32,-84.2535 2267.24,-76.1302"/>
<polygon fill="midnightblue" stroke="midnightblue" points="2268.37,-79.4631 2277.33,-73.815 2266.8,-72.6404 2268.37,-79.4631"/>
</g>
<!-- Node33&#45;&gt;Node16 -->
<g id="edge126" class="edge"><title>Node33&#45;&gt;Node16</title>
<path fill="none" stroke="midnightblue" d="M1384.97,-190.032C1549.71,-183.094 2095.33,-159.051 2269.41,-138 2322.81,-131.543 2335,-122.317 2388.41,-116 2724.46,-76.2544 3135.71,-70.1176 3249.81,-69.1719"/>
<polygon fill="midnightblue" stroke="midnightblue" points="3249.93,-72.6711 3259.91,-69.0956 3249.88,-65.6713 3249.93,-72.6711"/>
</g>
<!-- Node33&#45;&gt;Node30 -->
<g id="edge122" class="edge"><title>Node33&#45;&gt;Node30</title>
<path fill="none" stroke="midnightblue" d="M1289.77,-189.228C1101.71,-178.284 413.391,-138.23 253.668,-128.935"/>
<polygon fill="midnightblue" stroke="midnightblue" points="253.694,-125.431 243.508,-128.344 253.287,-132.419 253.694,-125.431"/>
</g>
<!-- Node34 -->
<g id="node84" class="node"><title>Node34</title>
<a xlink:href="vec3_8h.html" target="_top" xlink:title="base/vec/vec3.h">
<polygon fill="white" stroke="black" points="1220.91,-116.5 1220.91,-137.5 1309.91,-137.5 1309.91,-116.5 1220.91,-116.5"/>
<text text-anchor="middle" x="1265.41" y="-124.5" font-family="Helvetica,sans-Serif" font-size="10.00">base/vec/vec3.h</text>
</a>
</g>
<!-- Node33&#45;&gt;Node34 -->
<g id="edge100" class="edge"><title>Node33&#45;&gt;Node34</title>
<path fill="none" stroke="midnightblue" d="M1325.52,-181.267C1314.41,-171.233 1297.62,-156.078 1284.61,-144.331"/>
<polygon fill="midnightblue" stroke="midnightblue" points="1286.85,-141.637 1277.08,-137.534 1282.15,-146.833 1286.85,-141.637"/>
</g>
<!-- Node37 -->
<g id="node92" class="node"><title>Node37</title>
<a xlink:href="math_8h.html" target="_top" xlink:title="base/std_ext/math.h">
<polygon fill="white" stroke="black" points="1631.41,-116.5 1631.41,-137.5 1737.41,-137.5 1737.41,-116.5 1631.41,-116.5"/>
<text text-anchor="middle" x="1684.41" y="-124.5" font-family="Helvetica,sans-Serif" font-size="10.00">base/std_ext/math.h</text>
</a>
</g>
<!-- Node33&#45;&gt;Node37 -->
<g id="edge110" class="edge"><title>Node33&#45;&gt;Node37</title>
<path fill="none" stroke="midnightblue" d="M1384.93,-183.098C1446.19,-171.622 1552.92,-151.63 1621.04,-138.87"/>
<polygon fill="midnightblue" stroke="midnightblue" points="1622.03,-142.246 1631.22,-136.964 1620.74,-135.365 1622.03,-142.246"/>
</g>
<!-- Node34&#45;&gt;Node6 -->
<g id="edge102" class="edge"><title>Node34&#45;&gt;Node6</title>
<path fill="none" stroke="midnightblue" d="M1256.05,-116.362C1248.87,-108.186 1238.77,-96.7025 1230.32,-87.0907"/>
<polygon fill="midnightblue" stroke="midnightblue" points="1232.94,-84.7692 1223.7,-79.5707 1227.68,-89.3916 1232.94,-84.7692"/>
</g>
<!-- Node35 -->
<g id="node87" class="node"><title>Node35</title>
<a xlink:href="vec2_8h.html" target="_top" xlink:title="vec2.h">
<polygon fill="white" stroke="black" points="1301.41,-58.5 1301.41,-79.5 1347.41,-79.5 1347.41,-58.5 1301.41,-58.5"/>
<text text-anchor="middle" x="1324.41" y="-66.5" font-family="Helvetica,sans-Serif" font-size="10.00">vec2.h</text>
</a>
</g>
<!-- Node34&#45;&gt;Node35 -->
<g id="edge104" class="edge"><title>Node34&#45;&gt;Node35</title>
<path fill="none" stroke="midnightblue" d="M1276.23,-116.362C1284.63,-108.104 1296.46,-96.4725 1306.3,-86.8029"/>
<polygon fill="midnightblue" stroke="midnightblue" points="1308.98,-89.077 1313.66,-79.5707 1304.07,-84.0851 1308.98,-89.077"/>
</g>
<!-- Node36 -->
<g id="node89" class="node"><title>Node36</title>
<polygon fill="white" stroke="#bfbfbf" points="1302.41,-0.5 1302.41,-21.5 1346.41,-21.5 1346.41,-0.5 1302.41,-0.5"/>
<text text-anchor="middle" x="1324.41" y="-8.5" font-family="Helvetica,sans-Serif" font-size="10.00">cmath</text>
</g>
<!-- Node34&#45;&gt;Node36 -->
<g id="edge108" class="edge"><title>Node34&#45;&gt;Node36</title>
<path fill="none" stroke="midnightblue" d="M1268.73,-116.391C1273.25,-102.559 1281.97,-77.7975 1292.41,-58 1297.48,-48.3819 1304.11,-38.3388 1310.02,-30.0172"/>
<polygon fill="midnightblue" stroke="midnightblue" points="1312.98,-31.9059 1316.05,-21.7647 1307.32,-27.7796 1312.98,-31.9059"/>
</g>
<!-- Node35&#45;&gt;Node36 -->
<g id="edge106" class="edge"><title>Node35&#45;&gt;Node36</title>
<path fill="none" stroke="midnightblue" d="M1324.41,-58.3619C1324.41,-50.9219 1324.41,-40.7427 1324.41,-31.7276"/>
<polygon fill="midnightblue" stroke="midnightblue" points="1327.91,-31.5706 1324.41,-21.5707 1320.91,-31.5707 1327.91,-31.5706"/>
</g>
<!-- Node37&#45;&gt;Node10 -->
<g id="edge118" class="edge"><title>Node37&#45;&gt;Node10</title>
<path fill="none" stroke="midnightblue" d="M1737.71,-116.764C1798.03,-105.179 1894.81,-86.5911 1948.11,-76.3545"/>
<polygon fill="midnightblue" stroke="midnightblue" points="1949.01,-79.7464 1958.17,-74.4231 1947.69,-72.8721 1949.01,-79.7464"/>
</g>
<!-- Node37&#45;&gt;Node11 -->
<g id="edge120" class="edge"><title>Node37&#45;&gt;Node11</title>
<path fill="none" stroke="midnightblue" d="M1662.86,-116.497C1644.27,-107.438 1617.21,-94.2462 1596.31,-84.0628"/>
<polygon fill="midnightblue" stroke="midnightblue" points="1597.72,-80.8563 1587.2,-79.6212 1594.66,-87.1487 1597.72,-80.8563"/>
</g>
<!-- Node37&#45;&gt;Node12 -->
<g id="edge114" class="edge"><title>Node37&#45;&gt;Node12</title>
<path fill="none" stroke="midnightblue" d="M1696.33,-116.362C1705.77,-107.941 1719.14,-96.0105 1730.1,-86.2308"/>
<polygon fill="midnightblue" stroke="midnightblue" points="1732.43,-88.8401 1737.56,-79.5707 1727.77,-83.6171 1732.43,-88.8401"/>
</g>
<!-- Node37&#45;&gt;Node15 -->
<g id="edge116" class="edge"><title>Node37&#45;&gt;Node15</title>
<path fill="none" stroke="midnightblue" d="M1737.58,-120.965C1752.71,-119.299 1769.2,-117.53 1784.41,-116 1966.93,-97.6339 2186.17,-78.6446 2267.24,-71.7269"/>
<polygon fill="midnightblue" stroke="midnightblue" points="2267.64,-75.2055 2277.31,-70.8693 2267.05,-68.2307 2267.64,-75.2055"/>
</g>
<!-- Node37&#45;&gt;Node36 -->
<g id="edge112" class="edge"><title>Node37&#45;&gt;Node36</title>
<path fill="none" stroke="midnightblue" d="M1675.43,-116.341C1661.66,-100.771 1633.71,-72.1277 1603.41,-58 1559.96,-37.7429 1420.55,-21.0509 1356.79,-14.2655"/>
<polygon fill="midnightblue" stroke="midnightblue" points="1356.82,-10.7503 1346.51,-13.1886 1356.09,-17.7122 1356.82,-10.7503"/>
</g>
<!-- Node38&#45;&gt;Node6 -->
<g id="edge142" class="edge"><title>Node38&#45;&gt;Node6</title>
<path fill="none" stroke="midnightblue" d="M155.627,-304.376C118.599,-289.476 56.602,-258.616 26.4089,-210 4.26671,-174.347 -11.6795,-146.253 17.4089,-116 37.8753,-94.7143 964.636,-74.1948 1173.08,-69.8438"/>
<polygon fill="midnightblue" stroke="midnightblue" points="1173.37,-73.3387 1183.29,-69.6316 1173.22,-66.3402 1173.37,-73.3387"/>
</g>
<!-- Node38&#45;&gt;Node23 -->
<g id="edge138" class="edge"><title>Node38&#45;&gt;Node23</title>
<path fill="none" stroke="midnightblue" d="M201.183,-304.362C214.033,-295.696 232.394,-283.313 247.119,-273.382"/>
<polygon fill="midnightblue" stroke="midnightblue" points="249.401,-276.064 255.735,-267.571 245.487,-270.26 249.401,-276.064"/>
</g>
<!-- Node38&#45;&gt;Node24 -->
<g id="edge140" class="edge"><title>Node38&#45;&gt;Node24</title>
<path fill="none" stroke="midnightblue" d="M170.684,-304.354C159.363,-295.591 143.929,-282.317 133.409,-268 120.708,-250.716 111.015,-228.086 105.085,-212.028"/>
<polygon fill="midnightblue" stroke="midnightblue" points="108.367,-210.811 101.738,-202.547 101.766,-213.141 108.367,-210.811"/>
</g>
<!-- Node38&#45;&gt;Node29 -->
<g id="edge146" class="edge"><title>Node38&#45;&gt;Node29</title>
<path fill="none" stroke="midnightblue" d="M188.87,-304.085C195.391,-283.518 209.59,-238.735 217.932,-212.426"/>
<polygon fill="midnightblue" stroke="midnightblue" points="221.325,-213.306 221.011,-202.715 214.653,-211.19 221.325,-213.306"/>
</g>
<!-- Node38&#45;&gt;Node30 -->
<g id="edge144" class="edge"><title>Node38&#45;&gt;Node30</title>
<path fill="none" stroke="midnightblue" d="M184.844,-304.495C183.861,-280.737 183.075,-221.262 196.409,-174 199.091,-164.493 203.771,-154.658 208.29,-146.457"/>
<polygon fill="midnightblue" stroke="midnightblue" points="211.383,-148.101 213.392,-137.698 205.334,-144.577 211.383,-148.101"/>
</g>
<!-- Node39&#45;&gt;Node6 -->
<g id="edge178" class="edge"><title>Node39&#45;&gt;Node6</title>
<path fill="none" stroke="midnightblue" d="M866.649,-252.376C752.091,-241.056 510.969,-206.005 594.409,-116 614.103,-94.756 1036.8,-76.0891 1172.72,-70.6173"/>
<polygon fill="midnightblue" stroke="midnightblue" points="1173.26,-74.0984 1183.11,-70.202 1172.98,-67.104 1173.26,-74.0984"/>
</g>
<!-- Node40 -->
<g id="node115" class="node"><title>Node40</title>
<a xlink:href="_format_8h.html" target="_top" xlink:title="base/Format.h">
<polygon fill="white" stroke="black" points="883.409,-181.5 883.409,-202.5 963.409,-202.5 963.409,-181.5 883.409,-181.5"/>
<text text-anchor="middle" x="923.409" y="-189.5" font-family="Helvetica,sans-Serif" font-size="10.00">base/Format.h</text>
</a>
</g>
<!-- Node39&#45;&gt;Node40 -->
<g id="edge150" class="edge"><title>Node39&#45;&gt;Node40</title>
<path fill="none" stroke="midnightblue" d="M923.409,-246.267C923.409,-237.18 923.409,-223.892 923.409,-212.74"/>
<polygon fill="midnightblue" stroke="midnightblue" points="926.909,-212.534 923.409,-202.534 919.909,-212.534 926.909,-212.534"/>
</g>
<!-- Node40&#45;&gt;Node11 -->
<g id="edge168" class="edge"><title>Node40&#45;&gt;Node11</title>
<path fill="none" stroke="midnightblue" d="M934.957,-181.355C954.406,-164.152 995.675,-130.687 1037.41,-116 1083.08,-99.9279 1410.42,-78.5214 1525.52,-71.4097"/>
<polygon fill="midnightblue" stroke="midnightblue" points="1525.89,-74.8933 1535.66,-70.7861 1525.46,-67.9065 1525.89,-74.8933"/>
</g>
<!-- Node40&#45;&gt;Node12 -->
<g id="edge164" class="edge"><title>Node40&#45;&gt;Node12</title>
<path fill="none" stroke="midnightblue" d="M944.594,-181.374C966.041,-170.579 1000.13,-153.313 1029.41,-138 1047.73,-128.417 1050.53,-121.714 1070.41,-116 1184.5,-83.1969 1485,-88.4595 1603.41,-80 1643.38,-77.1446 1689.48,-73.6347 1719.01,-71.3591"/>
<polygon fill="midnightblue" stroke="midnightblue" points="1719.4,-74.8398 1729.1,-70.5801 1718.86,-67.8606 1719.4,-74.8398"/>
</g>
<!-- Node40&#45;&gt;Node15 -->
<g id="edge172" class="edge"><title>Node40&#45;&gt;Node15</title>
<path fill="none" stroke="midnightblue" d="M963.675,-189.965C1029.94,-186.62 1166.11,-179.753 1281.41,-174 1604.51,-157.877 1689.84,-194.318 2008.41,-138 2040.94,-132.249 2047.45,-124.348 2079.41,-116 2145.74,-98.6759 2224.54,-83.0128 2267.52,-74.8774"/>
<polygon fill="midnightblue" stroke="midnightblue" points="2268.22,-78.3084 2277.4,-73.0218 2266.92,-71.4288 2268.22,-78.3084"/>
</g>
<!-- Node40&#45;&gt;Node16 -->
<g id="edge170" class="edge"><title>Node40&#45;&gt;Node16</title>
<path fill="none" stroke="midnightblue" d="M963.673,-189.925C1029.93,-186.521 1166.1,-179.573 1281.41,-174 1626.27,-157.331 1713.12,-163.829 2057.41,-138 2151.87,-130.913 2174.95,-123.091 2269.41,-116 2655.5,-87.0162 3125.97,-73.1064 3249.51,-69.7943"/>
<polygon fill="midnightblue" stroke="midnightblue" points="3249.84,-73.2871 3259.74,-69.5233 3249.65,-66.2895 3249.84,-73.2871"/>
</g>
<!-- Node40&#45;&gt;Node18 -->
<g id="edge166" class="edge"><title>Node40&#45;&gt;Node18</title>
<path fill="none" stroke="midnightblue" d="M963.667,-189.794C1029.92,-186.205 1166.08,-179 1281.41,-174 1720.4,-154.967 1830.64,-161.657 2269.41,-138 2309.81,-135.822 2356.1,-132.388 2387.3,-129.937"/>
<polygon fill="midnightblue" stroke="midnightblue" points="2387.58,-133.426 2397.27,-129.146 2387.02,-126.448 2387.58,-133.426"/>
</g>
<!-- Node40&#45;&gt;Node27 -->
<g id="edge162" class="edge"><title>Node40&#45;&gt;Node27</title>
<path fill="none" stroke="midnightblue" d="M883.336,-191.192C772.313,-188.494 451.58,-177.588 188.409,-138 183.59,-137.275 178.537,-136.328 173.594,-135.293"/>
<polygon fill="midnightblue" stroke="midnightblue" points="174.232,-131.849 163.71,-133.089 172.709,-138.681 174.232,-131.849"/>
</g>
<!-- Node40&#45;&gt;Node36 -->
<g id="edge158" class="edge"><title>Node40&#45;&gt;Node36</title>
<path fill="none" stroke="midnightblue" d="M883.254,-188.303C799.623,-180.199 612.956,-159.839 594.409,-138 588.08,-130.547 588.006,-123.39 594.409,-116 617.775,-89.0327 1154.08,-29.4023 1292.2,-14.4515"/>
<polygon fill="midnightblue" stroke="midnightblue" points="1292.6,-17.9285 1302.17,-13.3753 1291.85,-10.969 1292.6,-17.9285"/>
</g>
<!-- Node41 -->
<g id="node117" class="node"><title>Node41</title>
<polygon fill="white" stroke="#bfbfbf" points="603.409,-116.5 603.409,-137.5 699.409,-137.5 699.409,-116.5 603.409,-116.5"/>
<text text-anchor="middle" x="651.409" y="-124.5" font-family="Helvetica,sans-Serif" font-size="10.00">detail/fmt/format.h</text>
</g>
<!-- Node40&#45;&gt;Node41 -->
<g id="edge152" class="edge"><title>Node40&#45;&gt;Node41</title>
<path fill="none" stroke="midnightblue" d="M883.274,-182.409C836.211,-171.162 757.986,-152.469 705.574,-139.944"/>
<polygon fill="midnightblue" stroke="midnightblue" points="706.317,-136.523 695.777,-137.603 704.69,-143.331 706.317,-136.523"/>
</g>
<!-- Node42 -->
<g id="node119" class="node"><title>Node42</title>
<polygon fill="white" stroke="#bfbfbf" points="1078.91,-116.5 1078.91,-137.5 1127.91,-137.5 1127.91,-116.5 1078.91,-116.5"/>
<text text-anchor="middle" x="1103.41" y="-124.5" font-family="Helvetica,sans-Serif" font-size="10.00">cassert</text>
</g>
<!-- Node40&#45;&gt;Node42 -->
<g id="edge154" class="edge"><title>Node40&#45;&gt;Node42</title>
<path fill="none" stroke="midnightblue" d="M952.73,-181.412C984.645,-169.887 1035.62,-151.481 1069.3,-139.317"/>
<polygon fill="midnightblue" stroke="midnightblue" points="1070.52,-142.599 1078.73,-135.91 1068.14,-136.015 1070.52,-142.599"/>
</g>
<!-- Node43 -->
<g id="node121" class="node"><title>Node43</title>
<polygon fill="white" stroke="#bfbfbf" points="716.909,-116.5 716.909,-137.5 763.909,-137.5 763.909,-116.5 716.909,-116.5"/>
<text text-anchor="middle" x="740.409" y="-124.5" font-family="Helvetica,sans-Serif" font-size="10.00">clocale</text>
</g>
<!-- Node40&#45;&gt;Node43 -->
<g id="edge156" class="edge"><title>Node40&#45;&gt;Node43</title>
<path fill="none" stroke="midnightblue" d="M893.6,-181.412C860.691,-169.723 807.855,-150.956 773.638,-138.803"/>
<polygon fill="midnightblue" stroke="midnightblue" points="774.681,-135.459 764.086,-135.41 772.338,-142.055 774.681,-135.459"/>
</g>
<!-- Node44 -->
<g id="node124" class="node"><title>Node44</title>
<polygon fill="white" stroke="#bfbfbf" points="780.909,-116.5 780.909,-137.5 823.909,-137.5 823.909,-116.5 780.909,-116.5"/>
<text text-anchor="middle" x="802.409" y="-124.5" font-family="Helvetica,sans-Serif" font-size="10.00">cstdio</text>
</g>
<!-- Node40&#45;&gt;Node44 -->
<g id="edge160" class="edge"><title>Node40&#45;&gt;Node44</title>
<path fill="none" stroke="midnightblue" d="M903.699,-181.412C884.011,-170.836 853.535,-154.465 831.153,-142.441"/>
<polygon fill="midnightblue" stroke="midnightblue" points="832.576,-139.233 822.111,-137.584 829.264,-145.399 832.576,-139.233"/>
</g>
<!-- Node45 -->
<g id="node132" class="node"><title>Node45</title>
<polygon fill="white" stroke="#bfbfbf" points="841.409,-116.5 841.409,-137.5 881.409,-137.5 881.409,-116.5 841.409,-116.5"/>
<text text-anchor="middle" x="861.409" y="-124.5" font-family="Helvetica,sans-Serif" font-size="10.00">utility</text>
</g>
<!-- Node40&#45;&gt;Node45 -->
<g id="edge174" class="edge"><title>Node40&#45;&gt;Node45</title>
<path fill="none" stroke="midnightblue" d="M913.171,-181.267C903.781,-171.423 889.689,-156.648 878.578,-145"/>
<polygon fill="midnightblue" stroke="midnightblue" points="880.891,-142.354 871.456,-137.534 875.826,-147.186 880.891,-142.354"/>
</g>
<!-- Node46 -->
<g id="node134" class="node"><title>Node46</title>
<polygon fill="white" stroke="#bfbfbf" points="898.909,-116.5 898.909,-137.5 947.909,-137.5 947.909,-116.5 898.909,-116.5"/>
<text text-anchor="middle" x="923.409" y="-124.5" font-family="Helvetica,sans-Serif" font-size="10.00">stdint.h</text>
</g>
<!-- Node40&#45;&gt;Node46 -->
<g id="edge176" class="edge"><title>Node40&#45;&gt;Node46</title>
<path fill="none" stroke="midnightblue" d="M923.409,-181.267C923.409,-172.18 923.409,-158.892 923.409,-147.74"/>
<polygon fill="midnightblue" stroke="midnightblue" points="926.909,-147.534 923.409,-137.534 919.909,-147.534 926.909,-147.534"/>
</g>
<!-- Node47&#45;&gt;Node6 -->
<g id="edge184" class="edge"><title>Node47&#45;&gt;Node6</title>
<path fill="none" stroke="midnightblue" d="M427.212,-304.408C417.88,-271.088 394.541,-167.573 447.409,-116 473.577,-90.4731 1017.33,-74.2008 1173.07,-70.0513"/>
<polygon fill="midnightblue" stroke="midnightblue" points="1173.27,-73.5472 1183.18,-69.7845 1173.09,-66.5496 1173.27,-73.5472"/>
</g>
<!-- Node47&#45;&gt;Node15 -->
<g id="edge190" class="edge"><title>Node47&#45;&gt;Node15</title>
<path fill="none" stroke="midnightblue" d="M467.666,-314.308C630.289,-311.138 1278.78,-296.901 1480.41,-268 1587.75,-252.613 1613.53,-241.134 1717.41,-210 1763.06,-196.318 1771.95,-184.605 1818.41,-174 1965.26,-140.48 2012.22,-184.755 2155.41,-138 2173.96,-131.943 2176.02,-124.857 2193.41,-116 2217.99,-103.482 2246.62,-90.9003 2267.93,-81.9088"/>
<polygon fill="midnightblue" stroke="midnightblue" points="2269.29,-85.1336 2277.16,-78.0434 2266.58,-78.6766 2269.29,-85.1336"/>
</g>
<!-- Node47&#45;&gt;Node23 -->
<g id="edge182" class="edge"><title>Node47&#45;&gt;Node23</title>
<path fill="none" stroke="midnightblue" d="M401.615,-304.497C373.437,-294.218 330.672,-278.618 301.918,-268.129"/>
<polygon fill="midnightblue" stroke="midnightblue" points="302.973,-264.789 292.379,-264.65 300.574,-271.365 302.973,-264.789"/>
</g>
<!-- Node47&#45;&gt;Node26 -->
<g id="edge194" class="edge"><title>Node47&#45;&gt;Node26</title>
<path fill="none" stroke="midnightblue" d="M393.346,-307.838C298.18,-289.108 50.9471,-238.181 26.4089,-210 5.23158,-185.679 19.4128,-170.187 17.4089,-138 16.8014,-128.241 10.9478,-123.339 17.4089,-116 39.1616,-91.2924 260.863,-76.0732 349.285,-70.9449"/>
<polygon fill="midnightblue" stroke="midnightblue" points="349.601,-74.4327 359.385,-70.3696 349.203,-67.444 349.601,-74.4327"/>
</g>
<!-- Node47&#45;&gt;Node31 -->
<g id="edge192" class="edge"><title>Node47&#45;&gt;Node31</title>
<path fill="none" stroke="midnightblue" d="M433.978,-304.181C438.521,-290.542 446.708,-266.41 454.409,-246 458.653,-234.753 463.693,-222.321 467.878,-212.223"/>
<polygon fill="midnightblue" stroke="midnightblue" points="471.234,-213.269 471.86,-202.693 464.775,-210.57 471.234,-213.269"/>
</g>
<!-- Node48 -->
<g id="node141" class="node"><title>Node48</title>
<a xlink:href="_lorentz_vec_8h.html" target="_top" xlink:title="base/vec/LorentzVec.h">
<polygon fill="white" stroke="black" points="1203.91,-246.5 1203.91,-267.5 1320.91,-267.5 1320.91,-246.5 1203.91,-246.5"/>
<text text-anchor="middle" x="1262.41" y="-254.5" font-family="Helvetica,sans-Serif" font-size="10.00">base/vec/LorentzVec.h</text>
</a>
</g>
<!-- Node47&#45;&gt;Node48 -->
<g id="edge186" class="edge"><title>Node47&#45;&gt;Node48</title>
<path fill="none" stroke="midnightblue" d="M467.503,-312.414C596.291,-303.436 1025.4,-273.522 1193.77,-261.785"/>
<polygon fill="midnightblue" stroke="midnightblue" points="1194.02,-265.276 1203.76,-261.089 1193.54,-258.293 1194.02,-265.276"/>
</g>
<!-- Node48&#45;&gt;Node34 -->
<g id="edge188" class="edge"><title>Node48&#45;&gt;Node34</title>
<path fill="none" stroke="midnightblue" d="M1262.65,-246.362C1263.15,-224.936 1264.27,-176.24 1264.92,-148.114"/>
<polygon fill="midnightblue" stroke="midnightblue" points="1268.43,-147.864 1265.16,-137.785 1261.43,-147.702 1268.43,-147.864"/>
</g>
<!-- Node49&#45;&gt;Node6 -->
<g id="edge200" class="edge"><title>Node49&#45;&gt;Node6</title>
<path fill="none" stroke="midnightblue" d="M2150.9,-183.718C2136.84,-180.2 2119.88,-176.371 2104.41,-174 1892.07,-141.453 1835.66,-163.939 1622.41,-138 1617.84,-137.444 1358.45,-93.4454 1255.69,-76.0064"/>
<polygon fill="midnightblue" stroke="midnightblue" points="1256.11,-72.5291 1245.67,-74.3065 1254.94,-79.4304 1256.11,-72.5291"/>
</g>
<!-- Node49&#45;&gt;Node9 -->
<g id="edge198" class="edge"><title>Node49&#45;&gt;Node9</title>
<path fill="none" stroke="midnightblue" d="M2206.68,-181.496C2242.2,-166.69 2303.04,-141.128 2307.41,-138 2326.89,-124.041 2344.67,-102.998 2356.14,-87.8221"/>
<polygon fill="midnightblue" stroke="midnightblue" points="2359.04,-89.7939 2362.14,-79.6626 2353.4,-85.6497 2359.04,-89.7939"/>
</g>
<!-- Node49&#45;&gt;Node12 -->
<g id="edge204" class="edge"><title>Node49&#45;&gt;Node12</title>
<path fill="none" stroke="midnightblue" d="M2150.85,-183.985C2136.79,-180.521 2119.83,-176.661 2104.41,-174 2033.89,-161.834 1843.2,-178.8 1784.41,-138 1768.18,-126.737 1759.05,-105.644 1754.21,-89.7316"/>
<polygon fill="midnightblue" stroke="midnightblue" points="1757.5,-88.4731 1751.52,-79.7275 1750.74,-90.2937 1757.5,-88.4731"/>
</g>
<!-- Node49&#45;&gt;Node18 -->
<g id="edge206" class="edge"><title>Node49&#45;&gt;Node18</title>
<path fill="none" stroke="midnightblue" d="M2205.35,-181.372C2211.79,-178.746 2218.8,-176.09 2225.41,-174 2294.08,-152.292 2313.56,-155.553 2383.41,-138 2384.67,-137.684 2385.94,-137.358 2387.23,-137.025"/>
<polygon fill="midnightblue" stroke="midnightblue" points="2388.43,-140.329 2397.2,-134.386 2386.64,-133.562 2388.43,-140.329"/>
</g>
<!-- Node49&#45;&gt;Node19 -->
<g id="edge202" class="edge"><title>Node49&#45;&gt;Node19</title>
<path fill="none" stroke="midnightblue" d="M2211.98,-188.993C2285.14,-181.659 2475.99,-161.705 2634.41,-138 2646.51,-136.19 2659.89,-133.818 2671.03,-131.741"/>
<polygon fill="midnightblue" stroke="midnightblue" points="2671.73,-135.17 2680.91,-129.867 2670.43,-128.292 2671.73,-135.17"/>
</g>
<!-- Node50&#45;&gt;Node6 -->
<g id="edge212" class="edge"><title>Node50&#45;&gt;Node6</title>
<path fill="none" stroke="midnightblue" d="M1826.56,-188.98C1762.07,-182.189 1605.06,-164.231 1475.41,-138 1396.6,-122.055 1306.2,-96.4919 1255.14,-81.3637"/>
<polygon fill="midnightblue" stroke="midnightblue" points="1256.05,-77.9831 1245.47,-78.4831 1254.05,-84.6919 1256.05,-77.9831"/>
</g>
<!-- Node50&#45;&gt;Node9 -->
<g id="edge210" class="edge"><title>Node50&#45;&gt;Node9</title>
<path fill="none" stroke="midnightblue" d="M1875.66,-181.409C1881.53,-178.588 1888.1,-175.823 1894.41,-174 2023,-136.869 2063.61,-170.69 2193.41,-138 2246.06,-124.738 2304.17,-99.7991 2338.69,-83.8148"/>
<polygon fill="midnightblue" stroke="midnightblue" points="2340.2,-86.9708 2347.77,-79.5611 2337.23,-80.6311 2340.2,-86.9708"/>
</g>
<!-- Node50&#45;&gt;Node18 -->
<g id="edge220" class="edge"><title>Node50&#45;&gt;Node18</title>
<path fill="none" stroke="midnightblue" d="M1875.22,-181.437C1881.19,-178.545 1887.92,-175.733 1894.41,-174 2088.68,-122.109 2145.54,-160.05 2345.41,-138 2359.03,-136.497 2373.94,-134.485 2387.04,-132.593"/>
<polygon fill="midnightblue" stroke="midnightblue" points="2387.72,-136.032 2397.1,-131.114 2386.7,-129.106 2387.72,-136.032"/>
</g>
<!-- Node50&#45;&gt;Node19 -->
<g id="edge218" class="edge"><title>Node50&#45;&gt;Node19</title>
<path fill="none" stroke="midnightblue" d="M1875.19,-181.313C1881.15,-178.416 1887.89,-175.632 1894.41,-174 2054.11,-133.987 2470.83,-156.648 2634.41,-138 2646.4,-136.633 2659.59,-134.352 2670.63,-132.221"/>
<polygon fill="midnightblue" stroke="midnightblue" points="2671.33,-135.651 2680.45,-130.258 2669.96,-128.787 2671.33,-135.651"/>
</g>
<!-- Node50&#45;&gt;Node34 -->
<g id="edge216" class="edge"><title>Node50&#45;&gt;Node34</title>
<path fill="none" stroke="midnightblue" d="M1826.83,-188.83C1750.03,-180.586 1537.96,-157.745 1361.41,-138 1348.12,-136.514 1333.81,-134.888 1320.39,-133.352"/>
<polygon fill="midnightblue" stroke="midnightblue" points="1320.67,-129.861 1310.34,-132.199 1319.87,-136.815 1320.67,-129.861"/>
</g>
<!-- Node50&#45;&gt;Node37 -->
<g id="edge214" class="edge"><title>Node50&#45;&gt;Node37</title>
<path fill="none" stroke="midnightblue" d="M1828.39,-181.412C1799.41,-170.458 1753.97,-153.288 1721.9,-141.17"/>
<polygon fill="midnightblue" stroke="midnightblue" points="1723.01,-137.845 1712.41,-137.584 1720.53,-144.393 1723.01,-137.845"/>
</g>
<!-- Node51&#45;&gt;Node15 -->
<g id="edge240" class="edge"><title>Node51&#45;&gt;Node15</title>
<path fill="none" stroke="midnightblue" d="M1471.52,-248.092C1531.66,-231.194 1668.27,-194.356 1785.41,-174 1931.64,-148.59 1974.32,-177.429 2117.41,-138 2140.03,-131.766 2143.65,-124.782 2165.41,-116 2199.87,-102.093 2240.21,-88.2677 2267.56,-79.2498"/>
<polygon fill="midnightblue" stroke="midnightblue" points="2268.95,-82.4773 2277.36,-76.0388 2266.77,-75.8249 2268.95,-82.4773"/>
</g>
<!-- Node51&#45;&gt;Node18 -->
<g id="edge248" class="edge"><title>Node51&#45;&gt;Node18</title>
<path fill="none" stroke="midnightblue" d="M1471.53,-256.275C1608,-252.938 2149.98,-238.018 2220.41,-210 2243.57,-200.787 2241.43,-185.76 2263.41,-174 2303.2,-152.707 2353.85,-139.919 2387.39,-133.173"/>
<polygon fill="midnightblue" stroke="midnightblue" points="2388.06,-136.608 2397.22,-131.271 2386.73,-129.735 2388.06,-136.608"/>
</g>
<!-- Node51&#45;&gt;Node26 -->
<g id="edge246" class="edge"><title>Node51&#45;&gt;Node26</title>
<path fill="none" stroke="midnightblue" d="M1409.32,-253.753C1387.08,-251.47 1356.41,-248.406 1329.41,-246 1127.36,-227.997 1074.62,-242.631 874.409,-210 743.762,-188.707 712.321,-175.622 585.409,-138 527.297,-120.773 461.002,-97.0856 421.219,-82.4239"/>
<polygon fill="midnightblue" stroke="midnightblue" points="422.291,-79.0884 411.697,-78.9003 419.861,-85.6533 422.291,-79.0884"/>
</g>
<!-- Node51&#45;&gt;Node31 -->
<g id="edge244" class="edge"><title>Node51&#45;&gt;Node31</title>
<path fill="none" stroke="midnightblue" d="M1409.35,-253.502C1387.11,-251.1 1356.45,-247.998 1329.41,-246 1001.91,-221.8 918.092,-243.438 591.409,-210 564.387,-207.234 534.038,-202.41 511.304,-198.452"/>
<polygon fill="midnightblue" stroke="midnightblue" points="511.892,-195.002 501.435,-196.705 510.671,-201.895 511.892,-195.002"/>
</g>
<!-- Node51&#45;&gt;Node33 -->
<g id="edge224" class="edge"><title>Node51&#45;&gt;Node33</title>
<path fill="none" stroke="midnightblue" d="M1423.4,-246.267C1406.9,-235.855 1381.66,-219.927 1362.79,-208.016"/>
<polygon fill="midnightblue" stroke="midnightblue" points="1364.43,-204.911 1354.1,-202.534 1360.69,-210.83 1364.43,-204.911"/>
</g>
<!-- Node51&#45;&gt;Node34 -->
<g id="edge238" class="edge"><title>Node51&#45;&gt;Node34</title>
<path fill="none" stroke="midnightblue" d="M1437.06,-246.247C1431.06,-228.714 1416.89,-193.93 1393.41,-174 1372.55,-156.296 1344.43,-144.998 1319.87,-137.93"/>
<polygon fill="midnightblue" stroke="midnightblue" points="1320.51,-134.478 1309.94,-135.244 1318.68,-141.235 1320.51,-134.478"/>
</g>
<!-- Node51&#45;&gt;Node36 -->
<g id="edge242" class="edge"><title>Node51&#45;&gt;Node36</title>
<path fill="none" stroke="midnightblue" d="M1438.76,-246.242C1436.1,-230.145 1430.12,-199.01 1420.41,-174 1399.1,-119.11 1387.23,-108.169 1356.41,-58 1350.64,-48.6116 1343.82,-38.4746 1337.96,-30.0268"/>
<polygon fill="midnightblue" stroke="midnightblue" points="1340.68,-27.814 1332.07,-21.6384 1334.95,-31.8347 1340.68,-27.814"/>
</g>
<!-- Node51&#45;&gt;Node37 -->
<g id="edge226" class="edge"><title>Node51&#45;&gt;Node37</title>
<path fill="none" stroke="midnightblue" d="M1460.38,-246.362C1503.47,-223.403 1605.33,-169.132 1655.48,-142.411"/>
<polygon fill="midnightblue" stroke="midnightblue" points="1657.33,-145.394 1664.51,-137.603 1654.04,-139.216 1657.33,-145.394"/>
</g>
<!-- Node52 -->
<g id="node166" class="node"><title>Node52</title>
<a xlink:href="shared__ptr__container_8h.html" target="_top" xlink:title="base/std_ext/shared\l_ptr_container.h">
<polygon fill="white" stroke="black" points="2716.91,-175 2716.91,-209 2821.91,-209 2821.91,-175 2716.91,-175"/>
<text text-anchor="start" x="2724.91" y="-196" font-family="Helvetica,sans-Serif" font-size="10.00">base/std_ext/shared</text>
<text text-anchor="middle" x="2769.41" y="-183" font-family="Helvetica,sans-Serif" font-size="10.00">_ptr_container.h</text>
</a>
</g>
<!-- Node51&#45;&gt;Node52 -->
<g id="edge228" class="edge"><title>Node51&#45;&gt;Node52</title>
<path fill="none" stroke="midnightblue" d="M1471.78,-256.814C1609.27,-255.775 2172.23,-249.221 2632.41,-210 2656.77,-207.924 2683.45,-204.648 2706.74,-201.456"/>
<polygon fill="midnightblue" stroke="midnightblue" points="2707.41,-204.896 2716.83,-200.049 2706.45,-197.963 2707.41,-204.896"/>
</g>
<!-- Node52&#45;&gt;Node10 -->
<g id="edge236" class="edge"><title>Node52&#45;&gt;Node10</title>
<path fill="none" stroke="midnightblue" d="M2763.27,-174.973C2755.75,-156.865 2741.14,-129.072 2718.41,-116 2688.12,-98.5795 2171.59,-76.4781 2024.95,-70.5309"/>
<polygon fill="midnightblue" stroke="midnightblue" points="2024.78,-67.0214 2014.65,-70.1151 2024.5,-74.0157 2024.78,-67.0214"/>
</g>
<!-- Node52&#45;&gt;Node15 -->
<g id="edge230" class="edge"><title>Node52&#45;&gt;Node15</title>
<path fill="none" stroke="midnightblue" d="M2770.63,-174.917C2770.86,-157.308 2768.14,-130.447 2751.41,-116 2681.35,-55.4934 2427.35,-97.2781 2336.41,-80 2334.73,-79.6818 2333.03,-79.3183 2331.31,-78.9215"/>
<polygon fill="midnightblue" stroke="midnightblue" points="2332.09,-75.5088 2321.53,-76.3705 2330.33,-82.282 2332.09,-75.5088"/>
</g>
<!-- Node52&#45;&gt;Node18 -->
<g id="edge232" class="edge"><title>Node52&#45;&gt;Node18</title>
<path fill="none" stroke="midnightblue" d="M2716.86,-182.128C2645.91,-168.8 2521.31,-145.392 2459.83,-133.842"/>
<polygon fill="midnightblue" stroke="midnightblue" points="2460.29,-130.367 2449.81,-131.96 2458.99,-137.246 2460.29,-130.367"/>
</g>
<!-- Node52&#45;&gt;Node53 -->
<g id="edge234" class="edge"><title>Node52&#45;&gt;Node53</title>
<path fill="none" stroke="midnightblue" d="M2822.03,-178.374C2869.4,-166.105 2937.99,-148.344 2980.85,-137.245"/>
<polygon fill="midnightblue" stroke="midnightblue" points="2981.83,-140.606 2990.63,-134.711 2980.08,-133.829 2981.83,-140.606"/>
</g>
<!-- Node54&#45;&gt;Node10 -->
<g id="edge264" class="edge"><title>Node54&#45;&gt;Node10</title>
<path fill="none" stroke="midnightblue" d="M1464.26,-304.476C1523.24,-278.812 1681.12,-212.313 1818.41,-174 1901.19,-150.898 1953.58,-204.189 2008.41,-138 2020.23,-123.727 2011.15,-103.014 2001.31,-88.0092"/>
<polygon fill="midnightblue" stroke="midnightblue" points="2003.91,-85.6347 1995.27,-79.5132 1998.21,-89.6912 2003.91,-85.6347"/>
</g>
<!-- Node54&#45;&gt;Node15 -->
<g id="edge256" class="edge"><title>Node54&#45;&gt;Node15</title>
<path fill="none" stroke="midnightblue" d="M1478.17,-311.936C1567.44,-304.656 1798.52,-285.615 1991.41,-268 2091.91,-258.822 2116.79,-253.76 2217.41,-246 2287.54,-240.592 2794.93,-254.491 2849.41,-210 2882.42,-183.039 2897.51,-147.14 2868.41,-116 2827.95,-72.7154 2394.72,-90.506 2336.41,-80 2334.73,-79.6977 2333.02,-79.3469 2331.3,-78.9602"/>
<polygon fill="midnightblue" stroke="midnightblue" points="2332.08,-75.5456 2321.52,-76.4406 2330.33,-82.3244 2332.08,-75.5456"/>
</g>
<!-- Node54&#45;&gt;Node18 -->
<g id="edge262" class="edge"><title>Node54&#45;&gt;Node18</title>
<path fill="none" stroke="midnightblue" d="M1478.12,-311.329C1628.77,-296.503 2182.73,-240.393 2255.41,-210 2279.36,-199.984 2278.83,-186.807 2301.41,-174 2328.83,-158.451 2362.4,-145.941 2387.38,-137.749"/>
<polygon fill="midnightblue" stroke="midnightblue" points="2388.72,-140.995 2397.18,-134.612 2386.59,-134.328 2388.72,-140.995"/>
</g>
<!-- Node54&#45;&gt;Node26 -->
<g id="edge260" class="edge"><title>Node54&#45;&gt;Node26</title>
<path fill="none" stroke="midnightblue" d="M1402.69,-314.159C1228.78,-310.157 511.141,-292.227 470.409,-268 412.301,-233.438 412.445,-202.254 391.409,-138 386.272,-122.31 384.919,-103.603 384.769,-89.628"/>
<polygon fill="midnightblue" stroke="midnightblue" points="388.27,-89.6131 384.858,-79.5827 381.27,-89.5516 388.27,-89.6131"/>
</g>
<!-- Node54&#45;&gt;Node31 -->
<g id="edge258" class="edge"><title>Node54&#45;&gt;Node31</title>
<path fill="none" stroke="midnightblue" d="M1402.81,-314.47C1230.35,-311.871 521.833,-299.317 487.409,-268 472.524,-254.459 471.367,-230.466 472.925,-213.053"/>
<polygon fill="midnightblue" stroke="midnightblue" points="476.447,-213.095 474.224,-202.736 469.502,-212.221 476.447,-213.095"/>
</g>
<!-- Node54&#45;&gt;Node33 -->
<g id="edge254" class="edge"><title>Node54&#45;&gt;Node33</title>
<path fill="none" stroke="midnightblue" d="M1431.15,-304.207C1423.02,-294.702 1410.88,-280.471 1400.41,-268 1384.04,-248.512 1365.46,-226.06 1352.75,-210.64"/>
<polygon fill="midnightblue" stroke="midnightblue" points="1355.4,-208.352 1346.34,-202.86 1349.99,-212.804 1355.4,-208.352"/>
</g>
<!-- Node54&#45;&gt;Node51 -->
<g id="edge252" class="edge"><title>Node54&#45;&gt;Node51</title>
<path fill="none" stroke="midnightblue" d="M1440.41,-304.362C1440.41,-296.922 1440.41,-286.743 1440.41,-277.728"/>
<polygon fill="midnightblue" stroke="midnightblue" points="1443.91,-277.571 1440.41,-267.571 1436.91,-277.571 1443.91,-277.571"/>
</g>
<!-- Node55&#45;&gt;Node6 -->
<g id="edge270" class="edge"><title>Node55&#45;&gt;Node6</title>
<path fill="none" stroke="midnightblue" d="M2390.4,-372.338C2233.89,-368.988 1548.18,-353.009 1336.41,-326 1190.79,-307.428 1013.41,-403.795 1013.41,-257 1013.41,-257 1013.41,-257 1013.41,-192 1013.41,-117.9 1114.03,-87.0824 1172.88,-75.3944"/>
<polygon fill="midnightblue" stroke="midnightblue" points="1173.82,-78.7793 1183,-73.4907 1172.53,-71.9 1173.82,-78.7793"/>
</g>
<!-- Node55&#45;&gt;Node9 -->
<g id="edge272" class="edge"><title>Node55&#45;&gt;Node9</title>
<path fill="none" stroke="midnightblue" d="M2454.43,-371.201C2540.73,-366.079 2776.63,-350.211 2850.41,-326 2868.95,-319.915 2871.22,-313.239 2888.41,-304 2971.05,-259.586 3026.9,-289.058 3077.41,-210 3099.91,-174.786 3107.96,-146.508 3079.41,-116 3056.09,-91.0858 2543.94,-74.1614 2404.3,-69.9986"/>
<polygon fill="midnightblue" stroke="midnightblue" points="2404.26,-66.496 2394.16,-69.6993 2404.05,-73.493 2404.26,-66.496"/>
</g>
<!-- Node55&#45;&gt;Node15 -->
<g id="edge306" class="edge"><title>Node55&#45;&gt;Node15</title>
<path fill="none" stroke="midnightblue" d="M2454.41,-368.189C2580.31,-348.085 3027.85,-264.835 2888.41,-116 2846.39,-71.1467 2396.91,-90.8254 2336.41,-80 2334.73,-79.6998 2333.02,-79.3506 2331.3,-78.9651"/>
<polygon fill="midnightblue" stroke="midnightblue" points="2332.08,-75.5504 2321.52,-76.4496 2330.33,-82.3298 2332.08,-75.5504"/>
</g>
<!-- Node55&#45;&gt;Node18 -->
<g id="edge312" class="edge"><title>Node55&#45;&gt;Node18</title>
<path fill="none" stroke="midnightblue" d="M2423.75,-362.348C2426.1,-339.008 2428.59,-282.529 2403.41,-246 2384.89,-219.128 2355.88,-238.171 2339.41,-210 2331.33,-196.189 2331.32,-187.802 2339.41,-174 2349.82,-156.242 2369.66,-144.691 2387.45,-137.486"/>
<polygon fill="midnightblue" stroke="midnightblue" points="2388.89,-140.684 2397.05,-133.918 2386.45,-134.122 2388.89,-140.684"/>
</g>
<!-- Node55&#45;&gt;Node19 -->
<g id="edge308" class="edge"><title>Node55&#45;&gt;Node19</title>
<path fill="none" stroke="midnightblue" d="M2438.84,-362.433C2475.83,-338.196 2567.49,-275.62 2632.41,-210 2652.05,-190.142 2670.92,-164.044 2682.8,-146.458"/>
<polygon fill="midnightblue" stroke="midnightblue" points="2686.03,-147.924 2688.64,-137.657 2680.2,-144.053 2686.03,-147.924"/>
</g>
<!-- Node55&#45;&gt;Node48 -->
<g id="edge304" class="edge"><title>Node55&#45;&gt;Node48</title>
<path fill="none" stroke="midnightblue" d="M2390.4,-372.361C2227.29,-368.996 1492.46,-352.469 1394.41,-326 1353.72,-315.016 1311.34,-290.05 1285.91,-273.358"/>
<polygon fill="midnightblue" stroke="midnightblue" points="1287.6,-270.278 1277.34,-267.624 1283.71,-276.095 1287.6,-270.278"/>
</g>
<!-- Node55&#45;&gt;Node54 -->
<g id="edge268" class="edge"><title>Node55&#45;&gt;Node54</title>
<path fill="none" stroke="midnightblue" d="M2390.29,-371.103C2246.31,-362.599 1659.77,-327.956 1487.93,-317.807"/>
<polygon fill="midnightblue" stroke="midnightblue" points="1488.11,-314.312 1477.92,-317.216 1487.7,-321.299 1488.11,-314.312"/>
</g>
<!-- Node55&#45;&gt;Node56 -->
<g id="edge274" class="edge"><title>Node55&#45;&gt;Node56</title>
<path fill="none" stroke="midnightblue" d="M2454.44,-372.285C2530.57,-370.044 2727.94,-361.035 2888.41,-326 3024.7,-296.245 3179.49,-234.656 3246.51,-206.552"/>
<polygon fill="midnightblue" stroke="midnightblue" points="3247.9,-209.767 3255.75,-202.657 3245.18,-203.317 3247.9,-209.767"/>
</g>
<!-- Node59 -->
<g id="node204" class="node"><title>Node59</title>
<a xlink:href="_tree_8h.html" target="_top" xlink:title="base/Tree.h">
<polygon fill="white" stroke="black" points="2381.41,-181.5 2381.41,-202.5 2449.41,-202.5 2449.41,-181.5 2381.41,-181.5"/>
<text text-anchor="middle" x="2415.41" y="-189.5" font-family="Helvetica,sans-Serif" font-size="10.00">base/Tree.h</text>
</a>
</g>
<!-- Node55&#45;&gt;Node59 -->
<g id="edge290" class="edge"><title>Node55&#45;&gt;Node59</title>
<path fill="none" stroke="midnightblue" d="M2426.54,-362.372C2429.96,-352.974 2434.54,-338.806 2436.41,-326 2441.54,-290.816 2442.96,-280.946 2436.41,-246 2434.23,-234.407 2429.65,-222.104 2425.31,-212.174"/>
<polygon fill="midnightblue" stroke="midnightblue" points="2428.36,-210.431 2421,-202.814 2422,-213.361 2428.36,-210.431"/>
</g>
<!-- Node61 -->
<g id="node216" class="node"><title>Node61</title>
<polygon fill="white" stroke="#bfbfbf" points="2340.41,-304.5 2340.41,-325.5 2394.41,-325.5 2394.41,-304.5 2340.41,-304.5"/>
<text text-anchor="middle" x="2367.41" y="-312.5" font-family="Helvetica,sans-Serif" font-size="10.00">iostream</text>
</g>
<!-- Node55&#45;&gt;Node61 -->
<g id="edge310" class="edge"><title>Node55&#45;&gt;Node61</title>
<path fill="none" stroke="midnightblue" d="M2412.32,-362.362C2404.57,-354.186 2393.68,-342.702 2384.56,-333.091"/>
<polygon fill="midnightblue" stroke="midnightblue" points="2386.85,-330.419 2377.43,-325.571 2381.77,-335.235 2386.85,-330.419"/>
</g>
<!-- Node56&#45;&gt;Node5 -->
<g id="edge278" class="edge"><title>Node56&#45;&gt;Node5</title>
<path fill="none" stroke="midnightblue" d="M3228.39,-187.178C3182.21,-183.068 3112.87,-177.315 3052.41,-174 2536.24,-145.7 2400.27,-202.542 1883.36,-137.884"/>
<polygon fill="midnightblue" stroke="midnightblue" points="1883.77,-134.408 1873.41,-136.63 1882.89,-141.353 1883.77,-134.408"/>
</g>
<!-- Node56&#45;&gt;Node8 -->
<g id="edge282" class="edge"><title>Node56&#45;&gt;Node8</title>
<path fill="none" stroke="midnightblue" d="M3293.81,-181.202C3304.94,-171.31 3319.94,-155.567 3326.41,-138 3338.97,-103.889 3337.92,-80.5486 3309.41,-58 3275.34,-31.0525 2617.37,-15.2676 2453.92,-11.7522"/>
<polygon fill="midnightblue" stroke="midnightblue" points="2453.52,-8.24302 2443.45,-11.5293 2453.37,-15.2414 2453.52,-8.24302"/>
</g>
<!-- Node56&#45;&gt;Node9 -->
<g id="edge276" class="edge"><title>Node56&#45;&gt;Node9</title>
<path fill="none" stroke="midnightblue" d="M3269.34,-181.494C3250.29,-164.173 3209.3,-130.136 3167.41,-116 3094.45,-91.3786 2548.18,-74.1221 2404.14,-69.9667"/>
<polygon fill="midnightblue" stroke="midnightblue" points="2404.19,-66.4669 2394.1,-69.6795 2403.99,-73.464 2404.19,-66.4669"/>
</g>
<!-- Node56&#45;&gt;Node15 -->
<g id="edge288" class="edge"><title>Node56&#45;&gt;Node15</title>
<path fill="none" stroke="midnightblue" d="M3260.7,-181.488C3227.09,-164.158 3156.02,-130.109 3091.41,-116 2763.21,-44.3328 2667.6,-136.275 2336.41,-80 2334.73,-79.7144 2333.02,-79.377 2331.3,-79.0009"/>
<polygon fill="midnightblue" stroke="midnightblue" points="2332.06,-75.5844 2321.51,-76.5143 2330.34,-82.3689 2332.06,-75.5844"/>
</g>
<!-- Node56&#45;&gt;Node16 -->
<g id="edge280" class="edge"><title>Node56&#45;&gt;Node16</title>
<path fill="none" stroke="midnightblue" d="M3290,-181.428C3301.92,-166.972 3319.83,-140.08 3312.41,-116 3309.25,-105.747 3303.01,-95.7278 3296.86,-87.5925"/>
<polygon fill="midnightblue" stroke="midnightblue" points="3299.4,-85.1612 3290.39,-79.5822 3293.95,-89.5603 3299.4,-85.1612"/>
</g>
<!-- Node56&#45;&gt;Node57 -->
<g id="edge284" class="edge"><title>Node56&#45;&gt;Node57</title>
<path fill="none" stroke="midnightblue" d="M3317.25,-181.446C3353.56,-170.916 3410.52,-154.037 3459.41,-138 3460.63,-137.599 3461.88,-137.184 3463.13,-136.76"/>
<polygon fill="midnightblue" stroke="midnightblue" points="3464.45,-140.008 3472.75,-133.429 3462.16,-133.393 3464.45,-140.008"/>
</g>
<!-- Node58 -->
<g id="node201" class="node"><title>Node58</title>
<polygon fill="white" stroke="#bfbfbf" points="3256.91,-116.5 3256.91,-137.5 3303.91,-137.5 3303.91,-116.5 3256.91,-116.5"/>
<text text-anchor="middle" x="3280.41" y="-124.5" font-family="Helvetica,sans-Serif" font-size="10.00">iterator</text>
</g>
<!-- Node56&#45;&gt;Node58 -->
<g id="edge286" class="edge"><title>Node56&#45;&gt;Node58</title>
<path fill="none" stroke="midnightblue" d="M3280.41,-181.267C3280.41,-172.18 3280.41,-158.892 3280.41,-147.74"/>
<polygon fill="midnightblue" stroke="midnightblue" points="3283.91,-147.534 3280.41,-137.534 3276.91,-147.534 3283.91,-147.534"/>
</g>
<!-- Node59&#45;&gt;Node10 -->
<g id="edge300" class="edge"><title>Node59&#45;&gt;Node10</title>
<path fill="none" stroke="midnightblue" d="M2429.06,-181.49C2447.7,-165.911 2476.83,-136.341 2458.41,-116 2429.46,-84.0232 2131.72,-72.9058 2024.57,-69.923"/>
<polygon fill="midnightblue" stroke="midnightblue" points="2024.61,-66.4229 2014.52,-69.6516 2024.42,-73.4203 2024.61,-66.4229"/>
</g>
<!-- Node59&#45;&gt;Node15 -->
<g id="edge298" class="edge"><title>Node59&#45;&gt;Node15</title>
<path fill="none" stroke="midnightblue" d="M2441.32,-181.464C2448.41,-178.808 2456.15,-176.113 2463.41,-174 2540.47,-151.58 2687.64,-176.054 2634.41,-116 2590.16,-66.085 2401.72,-93.5525 2336.41,-80 2334.74,-79.6537 2333.04,-79.2675 2331.32,-78.8529"/>
<polygon fill="midnightblue" stroke="midnightblue" points="2332.12,-75.4438 2321.56,-76.2462 2330.32,-82.207 2332.12,-75.4438"/>
</g>
<!-- Node59&#45;&gt;Node18 -->
<g id="edge294" class="edge"><title>Node59&#45;&gt;Node18</title>
<path fill="none" stroke="midnightblue" d="M2416.73,-181.267C2417.85,-172.18 2419.48,-158.892 2420.86,-147.74"/>
<polygon fill="midnightblue" stroke="midnightblue" points="2424.36,-147.886 2422.11,-137.534 2417.42,-147.031 2424.36,-147.886"/>
</g>
<!-- Node59&#45;&gt;Node19 -->
<g id="edge296" class="edge"><title>Node59&#45;&gt;Node19</title>
<path fill="none" stroke="midnightblue" d="M2440.78,-181.492C2448,-178.773 2455.94,-176.041 2463.41,-174 2552.22,-149.734 2578.79,-162.957 2667.41,-138 2668.65,-137.65 2669.92,-137.264 2671.19,-136.854"/>
<polygon fill="midnightblue" stroke="midnightblue" points="2672.56,-140.079 2680.78,-133.385 2670.18,-133.496 2672.56,-140.079"/>
</g>
<!-- Node59&#45;&gt;Node42 -->
<g id="edge302" class="edge"><title>Node59&#45;&gt;Node42</title>
<path fill="none" stroke="midnightblue" d="M2381.29,-188.263C2342.4,-184.141 2276.9,-177.613 2220.41,-174 1773.04,-145.386 1659.65,-168.522 1212.41,-138 1187.57,-136.305 1159.64,-133.468 1138.27,-131.099"/>
<polygon fill="midnightblue" stroke="midnightblue" points="1138.37,-127.589 1128.05,-129.947 1137.59,-134.545 1138.37,-127.589"/>
</g>
<!-- Node60 -->
<g id="node206" class="node"><title>Node60</title>
<polygon fill="white" stroke="#bfbfbf" points="2505.41,-116.5 2505.41,-137.5 2625.41,-137.5 2625.41,-116.5 2505.41,-116.5"/>
<text text-anchor="middle" x="2565.41" y="-124.5" font-family="Helvetica,sans-Serif" font-size="10.00">base/cereal/access.hpp</text>
</g>
<!-- Node59&#45;&gt;Node60 -->
<g id="edge292" class="edge"><title>Node59&#45;&gt;Node60</title>
<path fill="none" stroke="midnightblue" d="M2439.84,-181.412C2464.79,-170.6 2503.72,-153.731 2531.62,-141.642"/>
<polygon fill="midnightblue" stroke="midnightblue" points="2533.2,-144.771 2540.99,-137.584 2530.42,-138.348 2533.2,-144.771"/>
</g>
<!-- Node62&#45;&gt;Node16 -->
<g id="edge316" class="edge"><title>Node62&#45;&gt;Node16</title>
<path fill="none" stroke="midnightblue" d="M3536.05,-181.443C3536.42,-164.972 3534.53,-133.262 3516.41,-116 3487.28,-88.2507 3368.42,-75.6532 3311.31,-71.1149"/>
<polygon fill="midnightblue" stroke="midnightblue" points="3311.32,-67.6053 3301.08,-70.3359 3310.79,-74.5851 3311.32,-67.6053"/>
</g>
<!-- Node62&#45;&gt;Node18 -->
<g id="edge318" class="edge"><title>Node62&#45;&gt;Node18</title>
<path fill="none" stroke="midnightblue" d="M3486.03,-186.732C3446.85,-182.719 3390.68,-177.333 3341.41,-174 2966.37,-148.628 2870.57,-174.056 2496.41,-138 2484.37,-136.84 2471.29,-135.041 2459.57,-133.231"/>
<polygon fill="midnightblue" stroke="midnightblue" points="2460.11,-129.772 2449.68,-131.654 2459,-136.685 2460.11,-129.772"/>
</g>
<!-- Node62&#45;&gt;Node26 -->
<g id="edge324" class="edge"><title>Node62&#45;&gt;Node26</title>
<path fill="none" stroke="midnightblue" d="M3486.04,-186.437C3446.88,-182.261 3390.71,-176.8 3341.41,-174 2578.47,-130.673 2385.75,-173.59 1622.41,-138 1487.09,-131.691 1453.62,-124.297 1318.41,-116 969.606,-94.5959 547.004,-75.9266 421.933,-70.5517"/>
<polygon fill="midnightblue" stroke="midnightblue" points="421.906,-67.0474 411.765,-70.1159 421.606,-74.041 421.906,-67.0474"/>
</g>
<!-- Node62&#45;&gt;Node57 -->
<g id="edge320" class="edge"><title>Node62&#45;&gt;Node57</title>
<path fill="none" stroke="midnightblue" d="M3527.98,-181.267C3521.36,-171.707 3511.52,-157.496 3503.57,-146.015"/>
<polygon fill="midnightblue" stroke="midnightblue" points="3506.27,-143.763 3497.7,-137.534 3500.52,-147.748 3506.27,-143.763"/>
</g>
<!-- Node63 -->
<g id="node224" class="node"><title>Node63</title>
<polygon fill="white" stroke="#bfbfbf" points="3563.41,-116.5 3563.41,-137.5 3593.41,-137.5 3593.41,-116.5 3563.41,-116.5"/>
<text text-anchor="middle" x="3578.41" y="-124.5" font-family="Helvetica,sans-Serif" font-size="10.00">set</text>
</g>
<!-- Node62&#45;&gt;Node63 -->
<g id="edge322" class="edge"><title>Node62&#45;&gt;Node63</title>
<path fill="none" stroke="midnightblue" d="M3542.51,-181.267C3548.83,-171.707 3558.23,-157.496 3565.83,-146.015"/>
<polygon fill="midnightblue" stroke="midnightblue" points="3568.84,-147.805 3571.44,-137.534 3563,-143.943 3568.84,-147.805"/>
</g>
<!-- Node64&#45;&gt;Node15 -->
<g id="edge332" class="edge"><title>Node64&#45;&gt;Node15</title>
<path fill="none" stroke="midnightblue" d="M2990.59,-174.89C2981.25,-156.71 2963.79,-128.853 2939.41,-116 2820.66,-53.3993 2468.61,-103.28 2336.41,-80 2334.73,-79.7044 2333.02,-79.3589 2331.3,-78.9764"/>
<polygon fill="midnightblue" stroke="midnightblue" points="2332.07,-75.561 2321.52,-76.4699 2330.33,-82.3421 2332.07,-75.561"/>
</g>
<!-- Node64&#45;&gt;Node16 -->
<g id="edge328" class="edge"><title>Node64&#45;&gt;Node16</title>
<path fill="none" stroke="midnightblue" d="M3037.62,-174.897C3094.63,-150.03 3199.19,-104.426 3250.46,-82.0637"/>
<polygon fill="midnightblue" stroke="midnightblue" points="3251.91,-85.2475 3259.68,-78.0414 3249.11,-78.8313 3251.91,-85.2475"/>
</g>
<!-- Node64&#45;&gt;Node18 -->
<g id="edge334" class="edge"><title>Node64&#45;&gt;Node18</title>
<path fill="none" stroke="midnightblue" d="M2952.68,-187.094C2829.93,-173.922 2502.06,-138.729 2496.41,-138 2484.41,-136.452 2471.34,-134.551 2459.62,-132.767"/>
<polygon fill="midnightblue" stroke="midnightblue" points="2460.14,-129.306 2449.73,-131.241 2459.08,-136.224 2460.14,-129.306"/>
</g>
<!-- Node64&#45;&gt;Node19 -->
<g id="edge330" class="edge"><title>Node64&#45;&gt;Node19</title>
<path fill="none" stroke="midnightblue" d="M2952.72,-182.198C2887.72,-168.255 2770.83,-143.178 2720.06,-132.288"/>
<polygon fill="midnightblue" stroke="midnightblue" points="2720.51,-128.805 2710,-130.13 2719.04,-135.649 2720.51,-128.805"/>
</g>
<!-- Node64&#45;&gt;Node21 -->
<g id="edge338" class="edge"><title>Node64&#45;&gt;Node21</title>
<path fill="none" stroke="midnightblue" d="M2954.53,-174.922C2927.74,-164.495 2893.87,-151.312 2868.44,-141.413"/>
<polygon fill="midnightblue" stroke="midnightblue" points="2869.38,-138.024 2858.79,-137.658 2866.84,-144.547 2869.38,-138.024"/>
</g>
<!-- Node64&#45;&gt;Node53 -->
<g id="edge336" class="edge"><title>Node64&#45;&gt;Node53</title>
<path fill="none" stroke="midnightblue" d="M3004.19,-174.922C3007.04,-166.487 3010.51,-156.248 3013.5,-147.403"/>
<polygon fill="midnightblue" stroke="midnightblue" points="3016.85,-148.446 3016.74,-137.852 3010.21,-146.202 3016.85,-148.446"/>
</g>
</g>
</svg>
