<?xml version="1.0" encoding="UTF-8" standalone="no"?>
<!DOCTYPE svg PUBLIC "-//W3C//DTD SVG 1.1//EN"
 "http://www.w3.org/Graphics/SVG/1.1/DTD/svg11.dtd">
<!-- Generated by graphviz version 2.26.3 (20100126.1600)
 -->
<!-- Title: src/analysis/physics/common/MCReconstructCheck.h Pages: 1 -->
<svg width="3314pt" height="580pt"
 viewBox="0.00 0.00 3313.65 580.00" xmlns="http://www.w3.org/2000/svg" xmlns:xlink="http://www.w3.org/1999/xlink">
<g id="graph1" class="graph" transform="scale(1 1) rotate(0) translate(4 576)">
<title>src/analysis/physics/common/MCReconstructCheck.h</title>
<polygon fill="white" stroke="white" points="-4,5 -4,-576 3310.65,-576 3310.65,5 -4,5"/>
<!-- Node1 -->
<g id="node1" class="node"><title>Node1</title>
<polygon fill="#bfbfbf" stroke="black" points="505.654,-537 505.654,-571 671.654,-571 671.654,-537 505.654,-537"/>
<text text-anchor="start" x="513.654" y="-558" font-family="Helvetica,sans-Serif" font-size="10.00">src/analysis/physics</text>
<text text-anchor="middle" x="588.654" y="-545" font-family="Helvetica,sans-Serif" font-size="10.00">/common/MCReconstructCheck.h</text>
</g>
<!-- Node2 -->
<g id="node3" class="node"><title>Node2</title>
<a xlink:href="_physics_8h.html" target="_top" xlink:title="analysis/physics/Physics.h">
<polygon fill="white" stroke="black" points="520.654,-478.5 520.654,-499.5 656.654,-499.5 656.654,-478.5 520.654,-478.5"/>
<text text-anchor="middle" x="588.654" y="-486.5" font-family="Helvetica,sans-Serif" font-size="10.00">analysis/physics/Physics.h</text>
</a>
</g>
<!-- Node1&#45;&gt;Node2 -->
<g id="edge2" class="edge"><title>Node1&#45;&gt;Node2</title>
<path fill="none" stroke="midnightblue" d="M588.654,-536.922C588.654,-528.67 588.654,-518.692 588.654,-509.982"/>
<polygon fill="midnightblue" stroke="midnightblue" points="592.155,-509.852 588.654,-499.852 585.155,-509.852 592.155,-509.852"/>
</g>
<!-- Node16 -->
<g id="node33" class="node"><title>Node16</title>
<polygon fill="white" stroke="#bfbfbf" points="381.154,-116.5 381.154,-137.5 422.154,-137.5 422.154,-116.5 381.154,-116.5"/>
<text text-anchor="middle" x="401.654" y="-124.5" font-family="Helvetica,sans-Serif" font-size="10.00">string</text>
</g>
<!-- Node1&#45;&gt;Node16 -->
<g id="edge362" class="edge"><title>Node1&#45;&gt;Node16</title>
<path fill="none" stroke="midnightblue" d="M505.465,-548.532C374.169,-537.589 133.654,-507.152 133.654,-431 133.654,-431 133.654,-431 133.654,-373 133.654,-318.805 169.342,-315.379 195.654,-268 218.529,-226.812 208.336,-204.01 244.654,-174 263.983,-158.029 331.115,-141.771 371.066,-133.192"/>
<polygon fill="midnightblue" stroke="midnightblue" points="372.009,-136.57 381.071,-131.082 370.564,-129.721 372.009,-136.57"/>
</g>
<!-- Node68 -->
<g id="node246" class="node"><title>Node68</title>
<a xlink:href="_time_smearing_hack_8h.html" target="_top" xlink:title="utils/TimeSmearingHack.h">
<polygon fill="white" stroke="black" points="1617.65,-420.5 1617.65,-441.5 1749.65,-441.5 1749.65,-420.5 1617.65,-420.5"/>
<text text-anchor="middle" x="1683.65" y="-428.5" font-family="Helvetica,sans-Serif" font-size="10.00">utils/TimeSmearingHack.h</text>
</a>
</g>
<!-- Node1&#45;&gt;Node68 -->
<g id="edge356" class="edge"><title>Node1&#45;&gt;Node68</title>
<path fill="none" stroke="midnightblue" d="M671.856,-544.654C877.769,-521.524 1408.82,-461.871 1607.31,-439.576"/>
<polygon fill="midnightblue" stroke="midnightblue" points="1607.81,-443.042 1617.35,-438.447 1607.03,-436.086 1607.81,-443.042"/>
</g>
<!-- Node3 -->
<g id="node5" class="node"><title>Node3</title>
<a xlink:href="manager__t_8h.html" target="_top" xlink:title="analysis/physics/manager_t.h">
<polygon fill="white" stroke="black" points="631.654,-420.5 631.654,-441.5 777.654,-441.5 777.654,-420.5 631.654,-420.5"/>
<text text-anchor="middle" x="704.654" y="-428.5" font-family="Helvetica,sans-Serif" font-size="10.00">analysis/physics/manager_t.h</text>
</a>
</g>
<!-- Node2&#45;&gt;Node3 -->
<g id="edge4" class="edge"><title>Node2&#45;&gt;Node3</title>
<path fill="none" stroke="midnightblue" d="M609.661,-478.497C627.697,-469.479 653.925,-456.365 674.253,-446.201"/>
<polygon fill="midnightblue" stroke="midnightblue" points="676.033,-449.224 683.412,-441.621 672.902,-442.963 676.033,-449.224"/>
</g>
<!-- Node4 -->
<g id="node7" class="node"><title>Node4</title>
<a xlink:href="_histogram_factories_8h.html" target="_top" xlink:title="analysis/plot/HistogramFactories.h">
<polygon fill="white" stroke="black" points="1285.65,-246.5 1285.65,-267.5 1453.65,-267.5 1453.65,-246.5 1285.65,-246.5"/>
<text text-anchor="middle" x="1369.65" y="-254.5" font-family="Helvetica,sans-Serif" font-size="10.00">analysis/plot/HistogramFactories.h</text>
</a>
</g>
<!-- Node2&#45;&gt;Node4 -->
<g id="edge6" class="edge"><title>Node2&#45;&gt;Node4</title>
<path fill="none" stroke="midnightblue" d="M656.95,-488.032C819.762,-485.199 1220.98,-474.924 1271.65,-442 1330.72,-403.627 1356.52,-317.345 1365.57,-277.672"/>
<polygon fill="midnightblue" stroke="midnightblue" points="1369.01,-278.308 1367.69,-267.796 1362.17,-276.837 1369.01,-278.308"/>
</g>
<!-- Node2&#45;&gt;Node16 -->
<g id="edge348" class="edge"><title>Node2&#45;&gt;Node16</title>
<path fill="none" stroke="midnightblue" d="M520.432,-480.961C454.581,-472.453 360.085,-458.055 326.654,-442 284.631,-421.819 247.654,-419.618 247.654,-373 247.654,-373 247.654,-373 247.654,-257 247.654,-219.157 241.407,-202.189 266.654,-174 280.745,-158.268 335.771,-142.68 371.074,-133.998"/>
<polygon fill="midnightblue" stroke="midnightblue" points="371.989,-137.378 380.893,-131.636 370.352,-130.572 371.989,-137.378"/>
</g>
<!-- Node17 -->
<g id="node36" class="node"><title>Node17</title>
<a xlink:href="memory_8h.html" target="_top" xlink:title="base/std_ext/memory.h">
<polygon fill="white" stroke="black" points="925.154,-181.5 925.154,-202.5 1044.15,-202.5 1044.15,-181.5 925.154,-181.5"/>
<text text-anchor="middle" x="984.654" y="-189.5" font-family="Helvetica,sans-Serif" font-size="10.00">base/std_ext/memory.h</text>
</a>
</g>
<!-- Node2&#45;&gt;Node17 -->
<g id="edge38" class="edge"><title>Node2&#45;&gt;Node17</title>
<path fill="none" stroke="midnightblue" d="M656.727,-481.001C714.997,-473.108 793.498,-459.668 819.654,-442 906.993,-383.005 959.459,-260.729 977.527,-212.346"/>
<polygon fill="midnightblue" stroke="midnightblue" points="980.908,-213.289 981.037,-202.695 974.33,-210.897 980.908,-213.289"/>
</g>
<!-- Node18 -->
<g id="node38" class="node"><title>Node18</title>
<polygon fill="white" stroke="#bfbfbf" points="909.654,-116.5 909.654,-137.5 961.654,-137.5 961.654,-116.5 909.654,-116.5"/>
<text text-anchor="middle" x="935.654" y="-124.5" font-family="Helvetica,sans-Serif" font-size="10.00">memory</text>
</g>
<!-- Node2&#45;&gt;Node18 -->
<g id="edge352" class="edge"><title>Node2&#45;&gt;Node18</title>
<path fill="none" stroke="midnightblue" d="M656.757,-481.809C707.442,-474.888 770.525,-462.407 786.654,-442 860.976,-347.971 683.453,-268.904 756.654,-174 773.94,-151.59 852.209,-137.765 899.339,-131.323"/>
<polygon fill="midnightblue" stroke="midnightblue" points="900.002,-134.765 909.458,-129.987 899.086,-127.826 900.002,-134.765"/>
</g>
<!-- Node19 -->
<g id="node40" class="node"><title>Node19</title>
<polygon fill="white" stroke="#bfbfbf" points="1193.15,-116.5 1193.15,-137.5 1222.15,-137.5 1222.15,-116.5 1193.15,-116.5"/>
<text text-anchor="middle" x="1207.65" y="-124.5" font-family="Helvetica,sans-Serif" font-size="10.00">list</text>
</g>
<!-- Node2&#45;&gt;Node19 -->
<g id="edge346" class="edge"><title>Node2&#45;&gt;Node19</title>
<path fill="none" stroke="midnightblue" d="M656.861,-483.725C710.022,-477.934 784.925,-466.038 846.654,-442 936.738,-406.92 1167.96,-294.645 1214.65,-210 1225.24,-190.812 1220.84,-165.255 1215.49,-147.594"/>
<polygon fill="midnightblue" stroke="midnightblue" points="1218.68,-146.097 1212.16,-137.746 1212.04,-148.34 1218.68,-146.097"/>
</g>
<!-- Node20 -->
<g id="node42" class="node"><title>Node20</title>
<a xlink:href="_t_event_8h.html" target="_top" xlink:title="tree/TEvent.h">
<polygon fill="white" stroke="black" points="1299.65,-181.5 1299.65,-202.5 1375.65,-202.5 1375.65,-181.5 1299.65,-181.5"/>
<text text-anchor="middle" x="1337.65" y="-189.5" font-family="Helvetica,sans-Serif" font-size="10.00">tree/TEvent.h</text>
</a>
</g>
<!-- Node2&#45;&gt;Node20 -->
<g id="edge44" class="edge"><title>Node2&#45;&gt;Node20</title>
<path fill="none" stroke="midnightblue" d="M657.094,-486.277C781.067,-480.8 1037.89,-466.807 1123.65,-442 1188,-423.387 1257.65,-439.987 1257.65,-373 1257.65,-373 1257.65,-373 1257.65,-315 1257.65,-283.192 1259.83,-272.993 1276.65,-246 1285.83,-231.274 1300.23,-218.261 1312.73,-208.7"/>
<polygon fill="midnightblue" stroke="midnightblue" points="1314.98,-211.384 1320.99,-202.654 1310.85,-205.734 1314.98,-211.384"/>
</g>
<!-- Node22 -->
<g id="node49" class="node"><title>Node22</title>
<a xlink:href="_t_event_data_8h.html" target="_top" xlink:title="tree/TEventData.h">
<polygon fill="white" stroke="black" points="1823.15,-420.5 1823.15,-441.5 1920.15,-441.5 1920.15,-420.5 1823.15,-420.5"/>
<text text-anchor="middle" x="1871.65" y="-428.5" font-family="Helvetica,sans-Serif" font-size="10.00">tree/TEventData.h</text>
</a>
</g>
<!-- Node2&#45;&gt;Node22 -->
<g id="edge54" class="edge"><title>Node2&#45;&gt;Node22</title>
<path fill="none" stroke="midnightblue" d="M656.975,-487.614C837.244,-483.661 1340.61,-470.721 1758.65,-442 1776.33,-440.786 1795.51,-439.069 1812.98,-437.351"/>
<polygon fill="midnightblue" stroke="midnightblue" points="1813.44,-440.823 1823.04,-436.344 1812.74,-433.858 1813.44,-440.823"/>
</g>
<!-- Node53 -->
<g id="node170" class="node"><title>Node53</title>
<polygon fill="white" stroke="#bfbfbf" points="537.154,-116.5 537.154,-137.5 596.154,-137.5 596.154,-116.5 537.154,-116.5"/>
<text text-anchor="middle" x="566.654" y="-124.5" font-family="Helvetica,sans-Serif" font-size="10.00">functional</text>
</g>
<!-- Node2&#45;&gt;Node53 -->
<g id="edge354" class="edge"><title>Node2&#45;&gt;Node53</title>
<path fill="none" stroke="midnightblue" d="M523.346,-478.494C476.74,-469.947 419.019,-456.892 399.654,-442 371.902,-420.658 361.654,-408.01 361.654,-373 361.654,-373 361.654,-373 361.654,-315 361.654,-238.936 399.959,-222.378 458.654,-174 478.633,-157.533 505.266,-145.858 527.086,-138.263"/>
<polygon fill="midnightblue" stroke="midnightblue" points="528.345,-141.533 536.731,-135.058 526.137,-134.89 528.345,-141.533"/>
</g>
<!-- Node57 -->
<g id="node199" class="node"><title>Node57</title>
<polygon fill="white" stroke="#bfbfbf" points="217.154,-116.5 217.154,-137.5 252.154,-137.5 252.154,-116.5 217.154,-116.5"/>
<text text-anchor="middle" x="234.654" y="-124.5" font-family="Helvetica,sans-Serif" font-size="10.00">map</text>
</g>
<!-- Node2&#45;&gt;Node57 -->
<g id="edge350" class="edge"><title>Node2&#45;&gt;Node57</title>
<path fill="none" stroke="midnightblue" d="M520.605,-486.012C440.112,-481.266 312.166,-469.539 273.654,-442 250.208,-425.233 201.663,-298.233 195.654,-268 187.511,-227.024 181.473,-213.297 195.654,-174 199.595,-163.079 207.3,-152.902 214.828,-144.83"/>
<polygon fill="midnightblue" stroke="midnightblue" points="217.553,-147.055 222.151,-137.51 212.604,-142.104 217.553,-147.055"/>
</g>
<!-- Node62 -->
<g id="node219" class="node"><title>Node62</title>
<a xlink:href="_options_list_8h.html" target="_top" xlink:title="base/OptionsList.h">
<polygon fill="white" stroke="black" points="275.654,-181.5 275.654,-202.5 373.654,-202.5 373.654,-181.5 275.654,-181.5"/>
<text text-anchor="middle" x="324.654" y="-189.5" font-family="Helvetica,sans-Serif" font-size="10.00">base/OptionsList.h</text>
</a>
</g>
<!-- Node2&#45;&gt;Node62 -->
<g id="edge314" class="edge"><title>Node2&#45;&gt;Node62</title>
<path fill="none" stroke="midnightblue" d="M520.634,-483.279C458.665,-476.754 373.058,-464.027 347.654,-442 323.123,-420.729 323.654,-405.469 323.654,-373 323.654,-373 323.654,-373 323.654,-315 323.654,-279.051 324.087,-237.194 324.383,-212.744"/>
<polygon fill="midnightblue" stroke="midnightblue" points="327.885,-212.573 324.511,-202.53 320.886,-212.485 327.885,-212.573"/>
</g>
<!-- Node64 -->
<g id="node227" class="node"><title>Node64</title>
<a xlink:href="root__draw_8h.html" target="_top" xlink:title="analysis/plot/root\l_draw.h">
<polygon fill="white" stroke="black" points="467.154,-175 467.154,-209 558.154,-209 558.154,-175 467.154,-175"/>
<text text-anchor="start" x="475.154" y="-196" font-family="Helvetica,sans-Serif" font-size="10.00">analysis/plot/root</text>
<text text-anchor="middle" x="512.654" y="-183" font-family="Helvetica,sans-Serif" font-size="10.00">_draw.h</text>
</a>
</g>
<!-- Node2&#45;&gt;Node64 -->
<g id="edge326" class="edge"><title>Node2&#45;&gt;Node64</title>
<path fill="none" stroke="midnightblue" d="M526.685,-478.49C484.644,-470.16 434.02,-457.381 418.654,-442 396.174,-419.497 399.654,-404.808 399.654,-373 399.654,-373 399.654,-373 399.654,-315 399.654,-270.812 439.692,-235.649 472.103,-214.423"/>
<polygon fill="midnightblue" stroke="midnightblue" points="473.991,-217.37 480.575,-209.069 470.252,-211.452 473.991,-217.37"/>
</g>
<!-- Node65 -->
<g id="node235" class="node"><title>Node65</title>
<polygon fill="white" stroke="#bfbfbf" points="427.154,-420.5 427.154,-441.5 478.154,-441.5 478.154,-420.5 427.154,-420.5"/>
<text text-anchor="middle" x="452.654" y="-428.5" font-family="Helvetica,sans-Serif" font-size="10.00">TH1D.h</text>
</g>
<!-- Node2&#45;&gt;Node65 -->
<g id="edge340" class="edge"><title>Node2&#45;&gt;Node65</title>
<path fill="none" stroke="midnightblue" d="M564.026,-478.497C542.497,-469.315 511.015,-455.889 487.01,-445.652"/>
<polygon fill="midnightblue" stroke="midnightblue" points="488.131,-442.325 477.559,-441.621 485.385,-448.764 488.131,-442.325"/>
</g>
<!-- Node66 -->
<g id="node237" class="node"><title>Node66</title>
<polygon fill="white" stroke="#bfbfbf" points="495.154,-420.5 495.154,-441.5 546.154,-441.5 546.154,-420.5 495.154,-420.5"/>
<text text-anchor="middle" x="520.654" y="-428.5" font-family="Helvetica,sans-Serif" font-size="10.00">TH2D.h</text>
</g>
<!-- Node2&#45;&gt;Node66 -->
<g id="edge342" class="edge"><title>Node2&#45;&gt;Node66</title>
<path fill="none" stroke="midnightblue" d="M576.182,-478.362C566.309,-469.941 552.322,-458.011 540.856,-448.231"/>
<polygon fill="midnightblue" stroke="midnightblue" points="542.927,-445.397 533.048,-441.571 538.385,-450.723 542.927,-445.397"/>
</g>
<!-- Node67 -->
<g id="node239" class="node"><title>Node67</title>
<polygon fill="white" stroke="#bfbfbf" points="563.154,-420.5 563.154,-441.5 614.154,-441.5 614.154,-420.5 563.154,-420.5"/>
<text text-anchor="middle" x="588.654" y="-428.5" font-family="Helvetica,sans-Serif" font-size="10.00">TH3D.h</text>
</g>
<!-- Node2&#45;&gt;Node67 -->
<g id="edge344" class="edge"><title>Node2&#45;&gt;Node67</title>
<path fill="none" stroke="midnightblue" d="M588.654,-478.362C588.654,-470.922 588.654,-460.743 588.654,-451.728"/>
<polygon fill="midnightblue" stroke="midnightblue" points="592.155,-451.571 588.654,-441.571 585.155,-451.571 592.155,-451.571"/>
</g>
<!-- Node5 -->
<g id="node9" class="node"><title>Node5</title>
<a xlink:href="interval_8h.html" target="_top" xlink:title="base/interval.h">
<polygon fill="white" stroke="black" points="1727.65,-116.5 1727.65,-137.5 1807.65,-137.5 1807.65,-116.5 1727.65,-116.5"/>
<text text-anchor="middle" x="1767.65" y="-124.5" font-family="Helvetica,sans-Serif" font-size="10.00">base/interval.h</text>
</a>
</g>
<!-- Node4&#45;&gt;Node5 -->
<g id="edge8" class="edge"><title>Node4&#45;&gt;Node5</title>
<path fill="none" stroke="midnightblue" d="M1453.67,-248.487C1527.2,-240.152 1627.87,-226.347 1664.65,-210 1699.33,-194.591 1732.15,-164.496 1751.07,-145.092"/>
<polygon fill="midnightblue" stroke="midnightblue" points="1753.7,-147.402 1758.06,-137.747 1748.63,-142.575 1753.7,-147.402"/>
</g>
<!-- Node14 -->
<g id="node27" class="node"><title>Node14</title>
<a xlink:href="_bin_settings_8h.html" target="_top" xlink:title="base/BinSettings.h">
<polygon fill="white" stroke="black" points="1939.15,-181.5 1939.15,-202.5 2038.15,-202.5 2038.15,-181.5 1939.15,-181.5"/>
<text text-anchor="middle" x="1988.65" y="-189.5" font-family="Helvetica,sans-Serif" font-size="10.00">base/BinSettings.h</text>
</a>
</g>
<!-- Node4&#45;&gt;Node14 -->
<g id="edge26" class="edge"><title>Node4&#45;&gt;Node14</title>
<path fill="none" stroke="midnightblue" d="M1453.88,-252.194C1587.43,-244.195 1841.73,-227.309 1930.65,-210 1936.83,-208.797 1943.29,-207.176 1949.55,-205.397"/>
<polygon fill="midnightblue" stroke="midnightblue" points="1950.6,-208.737 1959.17,-202.509 1948.58,-202.033 1950.6,-208.737"/>
</g>
<!-- Node15 -->
<g id="node30" class="node"><title>Node15</title>
<polygon fill="white" stroke="#bfbfbf" points="967.654,-58.5 967.654,-79.5 1011.65,-79.5 1011.65,-58.5 967.654,-58.5"/>
<text text-anchor="middle" x="989.654" y="-66.5" font-family="Helvetica,sans-Serif" font-size="10.00">vector</text>
</g>
<!-- Node4&#45;&gt;Node15 -->
<g id="edge36" class="edge"><title>Node4&#45;&gt;Node15</title>
<path fill="none" stroke="midnightblue" d="M1285.42,-255.606C995.072,-250.603 52.5167,-232.643 30.6545,-210 -21.763,-155.71 81.5047,-125.096 106.654,-116 281.9,-52.6158 756.51,-113.98 957.579,-79.5711"/>
<polygon fill="midnightblue" stroke="midnightblue" points="958.322,-82.9933 967.526,-77.7455 957.058,-76.1083 958.322,-82.9933"/>
</g>
<!-- Node4&#45;&gt;Node16 -->
<g id="edge34" class="edge"><title>Node4&#45;&gt;Node16</title>
<path fill="none" stroke="midnightblue" d="M1285.44,-254.67C1066.59,-248.347 494.369,-229.991 458.654,-210 434.105,-196.259 417.894,-166.989 409.24,-147.148"/>
<polygon fill="midnightblue" stroke="midnightblue" points="412.427,-145.693 405.4,-137.764 405.948,-148.345 412.427,-145.693"/>
</g>
<!-- Node6 -->
<g id="node11" class="node"><title>Node6</title>
<a xlink:href="printable_8h.html" target="_top" xlink:title="printable.h">
<polygon fill="white" stroke="black" points="2345.65,-58.5 2345.65,-79.5 2407.65,-79.5 2407.65,-58.5 2345.65,-58.5"/>
<text text-anchor="middle" x="2376.65" y="-66.5" font-family="Helvetica,sans-Serif" font-size="10.00">printable.h</text>
</a>
</g>
<!-- Node5&#45;&gt;Node6 -->
<g id="edge10" class="edge"><title>Node5&#45;&gt;Node6</title>
<path fill="none" stroke="midnightblue" d="M1807.68,-117.515C1810.7,-116.951 1813.72,-116.436 1816.65,-116 2029.13,-84.3887 2085.07,-103.011 2298.65,-80 2310.64,-78.7083 2323.63,-77.0015 2335.5,-75.3188"/>
<polygon fill="midnightblue" stroke="midnightblue" points="2336.19,-78.7544 2345.59,-73.8572 2335.19,-71.8267 2336.19,-78.7544"/>
</g>
<!-- Node9 -->
<g id="node17" class="node"><title>Node9</title>
<a xlink:href="types_8h.html" target="_top" xlink:title="types.h">
<polygon fill="white" stroke="black" points="901.154,-58.5 901.154,-79.5 950.154,-79.5 950.154,-58.5 901.154,-58.5"/>
<text text-anchor="middle" x="925.654" y="-66.5" font-family="Helvetica,sans-Serif" font-size="10.00">types.h</text>
</a>
</g>
<!-- Node5&#45;&gt;Node9 -->
<g id="edge16" class="edge"><title>Node5&#45;&gt;Node9</title>
<path fill="none" stroke="midnightblue" d="M1727.49,-124.81C1576.04,-116.536 1044.19,-87.3189 960.475,-79.239"/>
<polygon fill="midnightblue" stroke="midnightblue" points="960.684,-75.7386 950.334,-78.0036 959.837,-82.6873 960.684,-75.7386"/>
</g>
<!-- Node10 -->
<g id="node19" class="node"><title>Node10</title>
<polygon fill="white" stroke="#bfbfbf" points="1503.65,-58.5 1503.65,-79.5 1559.65,-79.5 1559.65,-58.5 1503.65,-58.5"/>
<text text-anchor="middle" x="1531.65" y="-66.5" font-family="Helvetica,sans-Serif" font-size="10.00">algorithm</text>
</g>
<!-- Node5&#45;&gt;Node10 -->
<g id="edge18" class="edge"><title>Node5&#45;&gt;Node10</title>
<path fill="none" stroke="midnightblue" d="M1727.62,-117.161C1683.43,-106.3 1612.82,-88.948 1569.52,-78.3051"/>
<polygon fill="midnightblue" stroke="midnightblue" points="1570.2,-74.8694 1559.66,-75.8816 1568.53,-81.6671 1570.2,-74.8694"/>
</g>
<!-- Node11 -->
<g id="node21" class="node"><title>Node11</title>
<polygon fill="white" stroke="#bfbfbf" points="1996.15,-58.5 1996.15,-79.5 2055.15,-79.5 2055.15,-58.5 1996.15,-58.5"/>
<text text-anchor="middle" x="2025.65" y="-66.5" font-family="Helvetica,sans-Serif" font-size="10.00">stdexcept</text>
</g>
<!-- Node5&#45;&gt;Node11 -->
<g id="edge20" class="edge"><title>Node5&#45;&gt;Node11</title>
<path fill="none" stroke="midnightblue" d="M1807.68,-118.001C1856.31,-107.069 1937.82,-88.7449 1986.19,-77.8712"/>
<polygon fill="midnightblue" stroke="midnightblue" points="1987,-81.2774 1995.99,-75.6693 1985.46,-74.4479 1987,-81.2774"/>
</g>
<!-- Node12 -->
<g id="node23" class="node"><title>Node12</title>
<polygon fill="white" stroke="#bfbfbf" points="1833.65,-58.5 1833.65,-79.5 1873.65,-79.5 1873.65,-58.5 1833.65,-58.5"/>
<text text-anchor="middle" x="1853.65" y="-66.5" font-family="Helvetica,sans-Serif" font-size="10.00">limits</text>
</g>
<!-- Node5&#45;&gt;Node12 -->
<g id="edge22" class="edge"><title>Node5&#45;&gt;Node12</title>
<path fill="none" stroke="midnightblue" d="M1783.43,-116.362C1796.28,-107.696 1814.64,-95.3126 1829.36,-85.3819"/>
<polygon fill="midnightblue" stroke="midnightblue" points="1831.65,-88.0639 1837.98,-79.5707 1827.73,-82.2604 1831.65,-88.0639"/>
</g>
<!-- Node13 -->
<g id="node25" class="node"><title>Node13</title>
<polygon fill="white" stroke="#bfbfbf" points="1743.15,-58.5 1743.15,-79.5 1792.15,-79.5 1792.15,-58.5 1743.15,-58.5"/>
<text text-anchor="middle" x="1767.65" y="-66.5" font-family="Helvetica,sans-Serif" font-size="10.00">istream</text>
</g>
<!-- Node5&#45;&gt;Node13 -->
<g id="edge24" class="edge"><title>Node5&#45;&gt;Node13</title>
<path fill="none" stroke="midnightblue" d="M1767.65,-116.362C1767.65,-108.922 1767.65,-98.7427 1767.65,-89.7276"/>
<polygon fill="midnightblue" stroke="midnightblue" points="1771.15,-89.5706 1767.65,-79.5707 1764.15,-89.5707 1771.15,-89.5706"/>
</g>
<!-- Node7 -->
<g id="node13" class="node"><title>Node7</title>
<polygon fill="white" stroke="#bfbfbf" points="2442.65,-0.5 2442.65,-21.5 2504.65,-21.5 2504.65,-0.5 2442.65,-0.5"/>
<text text-anchor="middle" x="2473.65" y="-8.5" font-family="Helvetica,sans-Serif" font-size="10.00">type_traits</text>
</g>
<!-- Node6&#45;&gt;Node7 -->
<g id="edge12" class="edge"><title>Node6&#45;&gt;Node7</title>
<path fill="none" stroke="midnightblue" d="M2394.45,-58.3619C2409.21,-49.532 2430.43,-36.844 2447.19,-26.8224"/>
<polygon fill="midnightblue" stroke="midnightblue" points="2449.19,-29.7066 2455.98,-21.5707 2445.6,-23.6987 2449.19,-29.7066"/>
</g>
<!-- Node8 -->
<g id="node15" class="node"><title>Node8</title>
<polygon fill="white" stroke="#bfbfbf" points="1080.65,-0.5 1080.65,-21.5 1132.65,-21.5 1132.65,-0.5 1080.65,-0.5"/>
<text text-anchor="middle" x="1106.65" y="-8.5" font-family="Helvetica,sans-Serif" font-size="10.00">ostream</text>
</g>
<!-- Node6&#45;&gt;Node8 -->
<g id="edge14" class="edge"><title>Node6&#45;&gt;Node8</title>
<path fill="none" stroke="midnightblue" d="M2345.61,-63.8911C2331.35,-61.7316 2314.18,-59.3974 2298.65,-58 2065.8,-37.0439 1316.54,-16.495 1142.85,-11.9345"/>
<polygon fill="midnightblue" stroke="midnightblue" points="1142.79,-8.43201 1132.7,-11.6693 1142.61,-15.4296 1142.79,-8.43201"/>
</g>
<!-- Node14&#45;&gt;Node5 -->
<g id="edge28" class="edge"><title>Node14&#45;&gt;Node5</title>
<path fill="none" stroke="midnightblue" d="M1954.95,-181.415C1946.99,-178.95 1938.53,-176.358 1930.65,-174 1891.66,-162.329 1847.26,-149.561 1814.66,-140.283"/>
<polygon fill="midnightblue" stroke="midnightblue" points="1815.52,-136.887 1804.94,-137.52 1813.6,-143.621 1815.52,-136.887"/>
</g>
<!-- Node14&#45;&gt;Node11 -->
<g id="edge32" class="edge"><title>Node14&#45;&gt;Node11</title>
<path fill="none" stroke="midnightblue" d="M1992.41,-181.296C1996.17,-170.439 2002.05,-153.127 2006.65,-138 2011.56,-121.866 2016.61,-103.446 2020.26,-89.6983"/>
<polygon fill="midnightblue" stroke="midnightblue" points="2023.7,-90.3692 2022.87,-79.8074 2016.94,-88.5855 2023.7,-90.3692"/>
</g>
<!-- Node14&#45;&gt;Node15 -->
<g id="edge30" class="edge"><title>Node14&#45;&gt;Node15</title>
<path fill="none" stroke="midnightblue" d="M1958.22,-181.461C1949.41,-178.71 1939.72,-175.968 1930.65,-174 1806.75,-147.107 1772.1,-162.296 1647.65,-138 1610.2,-130.687 1602.26,-122.469 1564.65,-116 1359.98,-80.7964 1109.64,-71.7861 1021.88,-69.6329"/>
<polygon fill="midnightblue" stroke="midnightblue" points="1021.84,-66.1312 1011.77,-69.3979 1021.68,-73.1293 1021.84,-66.1312"/>
</g>
<!-- Node17&#45;&gt;Node18 -->
<g id="edge40" class="edge"><title>Node17&#45;&gt;Node18</title>
<path fill="none" stroke="midnightblue" d="M976.563,-181.267C969.285,-171.612 958.432,-157.215 949.733,-145.675"/>
<polygon fill="midnightblue" stroke="midnightblue" points="952.41,-143.412 943.595,-137.534 946.82,-147.626 952.41,-143.412"/>
</g>
<!-- Node17&#45;&gt;Node19 -->
<g id="edge42" class="edge"><title>Node17&#45;&gt;Node19</title>
<path fill="none" stroke="midnightblue" d="M1020.98,-181.412C1066.77,-168.066 1144.21,-145.493 1183.39,-134.072"/>
<polygon fill="midnightblue" stroke="midnightblue" points="1184.53,-137.386 1193.15,-131.227 1182.57,-130.665 1184.53,-137.386"/>
</g>
<!-- Node20&#45;&gt;Node6 -->
<g id="edge48" class="edge"><title>Node20&#45;&gt;Node6</title>
<path fill="none" stroke="midnightblue" d="M1375.95,-182.64C1390.49,-179.416 1407.26,-176.093 1422.65,-174 1680.33,-138.968 1750.86,-184.818 2006.65,-138 2039.15,-132.052 2045.48,-123.473 2077.65,-116 2102.31,-110.274 2259.24,-86.5406 2335.36,-75.1516"/>
<polygon fill="midnightblue" stroke="midnightblue" points="2336.17,-78.5696 2345.54,-73.6297 2335.13,-71.6466 2336.17,-78.5696"/>
</g>
<!-- Node20&#45;&gt;Node11 -->
<g id="edge52" class="edge"><title>Node20&#45;&gt;Node11</title>
<path fill="none" stroke="midnightblue" d="M1350.03,-181.333C1370.84,-164.1 1414.88,-130.592 1458.65,-116 1471.19,-111.822 1858.93,-81.7903 1985.86,-72.0449"/>
<polygon fill="midnightblue" stroke="midnightblue" points="1986.23,-75.5269 1995.93,-71.2721 1985.7,-68.5474 1986.23,-75.5269"/>
</g>
<!-- Node20&#45;&gt;Node18 -->
<g id="edge50" class="edge"><title>Node20&#45;&gt;Node18</title>
<path fill="none" stroke="midnightblue" d="M1299.47,-185.826C1222.07,-173.311 1047.62,-145.104 971.882,-132.858"/>
<polygon fill="midnightblue" stroke="midnightblue" points="972.302,-129.38 961.871,-131.239 971.184,-136.29 972.302,-129.38"/>
</g>
<!-- Node21 -->
<g id="node44" class="node"><title>Node21</title>
<polygon fill="white" stroke="#bfbfbf" points="689.654,-116.5 689.654,-137.5 745.654,-137.5 745.654,-116.5 689.654,-116.5"/>
<text text-anchor="middle" x="717.654" y="-124.5" font-family="Helvetica,sans-Serif" font-size="10.00">Rtypes.h</text>
</g>
<!-- Node20&#45;&gt;Node21 -->
<g id="edge46" class="edge"><title>Node20&#45;&gt;Node21</title>
<path fill="none" stroke="midnightblue" d="M1299.49,-185.903C1275.24,-182.155 1243.15,-177.43 1214.65,-174 1043.84,-153.438 839.093,-136.504 755.748,-129.935"/>
<polygon fill="midnightblue" stroke="midnightblue" points="755.975,-126.443 745.732,-129.15 755.428,-133.421 755.975,-126.443"/>
</g>
<!-- Node22&#45;&gt;Node6 -->
<g id="edge56" class="edge"><title>Node22&#45;&gt;Node6</title>
<path fill="none" stroke="midnightblue" d="M1920.19,-429.672C2170.68,-422.505 3305.65,-386.107 3305.65,-315 3305.65,-315 3305.65,-315 3305.65,-192 3305.65,-142.635 3270.04,-135.427 3224.65,-116 3150.2,-84.1296 2578.97,-72.3455 2418.47,-69.6446"/>
<polygon fill="midnightblue" stroke="midnightblue" points="2418.13,-66.1385 2408.07,-69.4726 2418.01,-73.1375 2418.13,-66.1385"/>
</g>
<!-- Node23 -->
<g id="node52" class="node"><title>Node23</title>
<a xlink:href="_t_i_d_8h.html" target="_top" xlink:title="TID.h">
<polygon fill="white" stroke="black" points="2453.15,-304.5 2453.15,-325.5 2494.15,-325.5 2494.15,-304.5 2453.15,-304.5"/>
<text text-anchor="middle" x="2473.65" y="-312.5" font-family="Helvetica,sans-Serif" font-size="10.00">TID.h</text>
</a>
</g>
<!-- Node22&#45;&gt;Node23 -->
<g id="edge58" class="edge"><title>Node22&#45;&gt;Node23</title>
<path fill="none" stroke="midnightblue" d="M1920.24,-424.968C1981.8,-417.032 2091.03,-401.964 2183.65,-384 2279.15,-365.48 2390.76,-336.957 2443.33,-323.105"/>
<polygon fill="midnightblue" stroke="midnightblue" points="2444.26,-326.479 2453.04,-320.538 2442.47,-319.711 2444.26,-326.479"/>
</g>
<!-- Node32 -->
<g id="node79" class="node"><title>Node32</title>
<a xlink:href="_t_detector_read_hit_8h.html" target="_top" xlink:title="TDetectorReadHit.h">
<polygon fill="white" stroke="black" points="2192.65,-246.5 2192.65,-267.5 2296.65,-267.5 2296.65,-246.5 2192.65,-246.5"/>
<text text-anchor="middle" x="2244.65" y="-254.5" font-family="Helvetica,sans-Serif" font-size="10.00">TDetectorReadHit.h</text>
</a>
</g>
<!-- Node22&#45;&gt;Node32 -->
<g id="edge94" class="edge"><title>Node22&#45;&gt;Node32</title>
<path fill="none" stroke="midnightblue" d="M1894.52,-420.369C1915,-410.848 1945.83,-396.502 1972.65,-384 2059.63,-343.457 2162.21,-295.534 2212.95,-271.821"/>
<polygon fill="midnightblue" stroke="midnightblue" points="2214.51,-274.952 2222.09,-267.547 2211.55,-268.61 2214.51,-274.952"/>
</g>
<!-- Node38 -->
<g id="node106" class="node"><title>Node38</title>
<a xlink:href="_t_slow_control_8h.html" target="_top" xlink:title="TSlowControl.h">
<polygon fill="white" stroke="black" points="2553.65,-362.5 2553.65,-383.5 2637.65,-383.5 2637.65,-362.5 2553.65,-362.5"/>
<text text-anchor="middle" x="2595.65" y="-370.5" font-family="Helvetica,sans-Serif" font-size="10.00">TSlowControl.h</text>
</a>
</g>
<!-- Node22&#45;&gt;Node38 -->
<g id="edge136" class="edge"><title>Node22&#45;&gt;Node38</title>
<path fill="none" stroke="midnightblue" d="M1920.28,-427.104C2050.83,-416.646 2408.23,-388.015 2543.15,-377.206"/>
<polygon fill="midnightblue" stroke="midnightblue" points="2543.55,-380.685 2553.24,-376.398 2542.99,-373.708 2543.55,-380.685"/>
</g>
<!-- Node39 -->
<g id="node113" class="node"><title>Node39</title>
<a xlink:href="_t_unpacker_message_8h.html" target="_top" xlink:title="TUnpackerMessage.h">
<polygon fill="white" stroke="black" points="3089.15,-246.5 3089.15,-267.5 3202.15,-267.5 3202.15,-246.5 3089.15,-246.5"/>
<text text-anchor="middle" x="3145.65" y="-254.5" font-family="Helvetica,sans-Serif" font-size="10.00">TUnpackerMessage.h</text>
</a>
</g>
<!-- Node22&#45;&gt;Node39 -->
<g id="edge148" class="edge"><title>Node22&#45;&gt;Node39</title>
<path fill="none" stroke="midnightblue" d="M1920.21,-428.834C2132.17,-419.102 2970.47,-377.629 3075.65,-326 3099.18,-314.454 3119.67,-291.932 3132.3,-275.756"/>
<polygon fill="midnightblue" stroke="midnightblue" points="3135.27,-277.63 3138.48,-267.533 3129.67,-273.426 3135.27,-277.63"/>
</g>
<!-- Node47 -->
<g id="node137" class="node"><title>Node47</title>
<a xlink:href="_t_tagger_hit_8h.html" target="_top" xlink:title="TTaggerHit.h">
<polygon fill="white" stroke="black" points="1889.65,-362.5 1889.65,-383.5 1963.65,-383.5 1963.65,-362.5 1889.65,-362.5"/>
<text text-anchor="middle" x="1926.65" y="-370.5" font-family="Helvetica,sans-Serif" font-size="10.00">TTaggerHit.h</text>
</a>
</g>
<!-- Node22&#45;&gt;Node47 -->
<g id="edge180" class="edge"><title>Node22&#45;&gt;Node47</title>
<path fill="none" stroke="midnightblue" d="M1881.74,-420.362C1889.5,-412.186 1900.38,-400.702 1909.5,-391.091"/>
<polygon fill="midnightblue" stroke="midnightblue" points="1912.29,-393.235 1916.63,-383.571 1907.21,-388.419 1912.29,-393.235"/>
</g>
<!-- Node49 -->
<g id="node147" class="node"><title>Node49</title>
<a xlink:href="_t_trigger_8h.html" target="_top" xlink:title="TTrigger.h">
<polygon fill="white" stroke="black" points="1431.15,-181.5 1431.15,-202.5 1492.15,-202.5 1492.15,-181.5 1431.15,-181.5"/>
<text text-anchor="middle" x="1461.65" y="-189.5" font-family="Helvetica,sans-Serif" font-size="10.00">TTrigger.h</text>
</a>
</g>
<!-- Node22&#45;&gt;Node49 -->
<g id="edge196" class="edge"><title>Node22&#45;&gt;Node49</title>
<path fill="none" stroke="midnightblue" d="M1823.04,-422.847C1734.39,-407.07 1551.37,-370.015 1505.65,-326 1474.2,-295.714 1465.22,-242.6 1462.66,-213.157"/>
<polygon fill="midnightblue" stroke="midnightblue" points="1466.13,-212.527 1461.95,-202.792 1459.14,-213.01 1466.13,-212.527"/>
</g>
<!-- Node50 -->
<g id="node154" class="node"><title>Node50</title>
<a xlink:href="_t_target_8h.html" target="_top" xlink:title="TTarget.h">
<polygon fill="white" stroke="black" points="1863.15,-181.5 1863.15,-202.5 1922.15,-202.5 1922.15,-181.5 1863.15,-181.5"/>
<text text-anchor="middle" x="1892.65" y="-189.5" font-family="Helvetica,sans-Serif" font-size="10.00">TTarget.h</text>
</a>
</g>
<!-- Node22&#45;&gt;Node50 -->
<g id="edge208" class="edge"><title>Node22&#45;&gt;Node50</title>
<path fill="none" stroke="midnightblue" d="M1858.08,-420.428C1847.76,-411.705 1833.96,-398.45 1825.65,-384 1807.58,-352.568 1807.48,-340.194 1809.65,-304 1811.21,-278.082 1803.38,-268.316 1816.65,-246 1826.55,-229.371 1843.77,-216.497 1859.32,-207.498"/>
<polygon fill="midnightblue" stroke="midnightblue" points="1861.12,-210.508 1868.22,-202.648 1857.76,-204.362 1861.12,-210.508"/>
</g>
<!-- Node51 -->
<g id="node162" class="node"><title>Node51</title>
<a xlink:href="_t_cluster_8h.html" target="_top" xlink:title="TCluster.h">
<polygon fill="white" stroke="black" points="1825.65,-246.5 1825.65,-267.5 1887.65,-267.5 1887.65,-246.5 1825.65,-246.5"/>
<text text-anchor="middle" x="1856.65" y="-254.5" font-family="Helvetica,sans-Serif" font-size="10.00">TCluster.h</text>
</a>
</g>
<!-- Node22&#45;&gt;Node51 -->
<g id="edge222" class="edge"><title>Node22&#45;&gt;Node51</title>
<path fill="none" stroke="midnightblue" d="M1863.83,-420.372C1850.96,-402.17 1825.85,-363.367 1816.65,-326 1814.32,-316.505 1813.28,-313.176 1816.65,-304 1820.65,-293.14 1828.39,-283.078 1836.01,-275.074"/>
<polygon fill="midnightblue" stroke="midnightblue" points="1838.74,-277.297 1843.44,-267.802 1833.85,-272.293 1838.74,-277.297"/>
</g>
<!-- Node54 -->
<g id="node179" class="node"><title>Node54</title>
<a xlink:href="_t_candidate_8h.html" target="_top" xlink:title="TCandidate.h">
<polygon fill="white" stroke="black" points="1651.15,-304.5 1651.15,-325.5 1726.15,-325.5 1726.15,-304.5 1651.15,-304.5"/>
<text text-anchor="middle" x="1688.65" y="-312.5" font-family="Helvetica,sans-Serif" font-size="10.00">TCandidate.h</text>
</a>
</g>
<!-- Node22&#45;&gt;Node54 -->
<g id="edge250" class="edge"><title>Node22&#45;&gt;Node54</title>
<path fill="none" stroke="midnightblue" d="M1826.91,-420.499C1801.5,-413.082 1770,-401.332 1745.65,-384 1726.89,-370.642 1710.75,-349.619 1700.48,-334.286"/>
<polygon fill="midnightblue" stroke="midnightblue" points="1703.23,-332.102 1694.87,-325.594 1697.35,-335.895 1703.23,-332.102"/>
</g>
<!-- Node55 -->
<g id="node188" class="node"><title>Node55</title>
<a xlink:href="_t_particle_8h.html" target="_top" xlink:title="TParticle.h">
<polygon fill="white" stroke="black" points="1137.65,-362.5 1137.65,-383.5 1201.65,-383.5 1201.65,-362.5 1137.65,-362.5"/>
<text text-anchor="middle" x="1169.65" y="-370.5" font-family="Helvetica,sans-Serif" font-size="10.00">TParticle.h</text>
</a>
</g>
<!-- Node22&#45;&gt;Node55 -->
<g id="edge266" class="edge"><title>Node22&#45;&gt;Node55</title>
<path fill="none" stroke="midnightblue" d="M1823,-426.077C1803.07,-424.108 1779.76,-421.869 1758.65,-420 1553.83,-401.86 1308.66,-383.312 1211.89,-376.117"/>
<polygon fill="midnightblue" stroke="midnightblue" points="1212.15,-372.626 1201.91,-375.376 1211.63,-379.607 1212.15,-372.626"/>
</g>
<!-- Node23&#45;&gt;Node6 -->
<g id="edge62" class="edge"><title>Node23&#45;&gt;Node6</title>
<path fill="none" stroke="midnightblue" d="M2494.31,-311.47C2602.84,-292.508 3099.18,-200.465 3020.65,-116 3000.08,-93.8699 2557.25,-75.6746 2418.11,-70.4866"/>
<polygon fill="midnightblue" stroke="midnightblue" points="2417.99,-66.9798 2407.86,-70.1078 2417.73,-73.975 2417.99,-66.9798"/>
</g>
<!-- Node23&#45;&gt;Node7 -->
<g id="edge80" class="edge"><title>Node23&#45;&gt;Node7</title>
<path fill="none" stroke="midnightblue" d="M2494.42,-314.362C2611.25,-310.69 3182.37,-291.572 3210.65,-268 3237.4,-245.71 3229.65,-226.817 3229.65,-192 3229.65,-192 3229.65,-192 3229.65,-127 3229.65,-54.0666 2672.84,-20.8807 2514.94,-12.9361"/>
<polygon fill="midnightblue" stroke="midnightblue" points="2514.86,-9.42797 2504.7,-12.4283 2514.51,-16.4194 2514.86,-9.42797"/>
</g>
<!-- Node23&#45;&gt;Node11 -->
<g id="edge86" class="edge"><title>Node23&#45;&gt;Node11</title>
<path fill="none" stroke="midnightblue" d="M2470.62,-304.469C2459.91,-269.463 2420.08,-156.901 2340.65,-116 2293.33,-91.6318 2139.02,-77.333 2065.41,-71.7408"/>
<polygon fill="midnightblue" stroke="midnightblue" points="2065.39,-68.2298 2055.16,-70.9788 2064.87,-75.2105 2065.39,-68.2298"/>
</g>
<!-- Node23&#45;&gt;Node19 -->
<g id="edge88" class="edge"><title>Node23&#45;&gt;Node19</title>
<path fill="none" stroke="midnightblue" d="M2452.89,-314.081C2371.51,-310.359 2066.46,-295.284 1816.65,-268 1794.66,-265.598 1442.55,-219.669 1422.65,-210 1401.73,-199.833 1405.17,-184.973 1384.65,-174 1324.12,-141.621 1296.34,-162.189 1232.12,-139.725"/>
<polygon fill="midnightblue" stroke="midnightblue" points="1232.97,-136.305 1222.38,-136.087 1230.52,-142.863 1232.97,-136.305"/>
</g>
<!-- Node23&#45;&gt;Node21 -->
<g id="edge60" class="edge"><title>Node23&#45;&gt;Node21</title>
<path fill="none" stroke="midnightblue" d="M2453.07,-314.457C2341.64,-311.42 1809.59,-295.681 1647.65,-268 1612.99,-262.075 1606.36,-251.688 1571.65,-246 1480.23,-231.014 810.51,-268.475 738.654,-210 720.536,-195.256 716.749,-167.335 716.526,-147.972"/>
<polygon fill="midnightblue" stroke="midnightblue" points="720.03,-147.79 716.725,-137.724 713.031,-147.654 720.03,-147.79"/>
</g>
<!-- Node24 -->
<g id="node56" class="node"><title>Node24</title>
<a xlink:href="time_8h.html" target="_top" xlink:title="base/std_ext/time.h">
<polygon fill="white" stroke="black" points="2595.15,-246.5 2595.15,-267.5 2698.15,-267.5 2698.15,-246.5 2595.15,-246.5"/>
<text text-anchor="middle" x="2646.65" y="-254.5" font-family="Helvetica,sans-Serif" font-size="10.00">base/std_ext/time.h</text>
</a>
</g>
<!-- Node23&#45;&gt;Node24 -->
<g id="edge64" class="edge"><title>Node23&#45;&gt;Node24</title>
<path fill="none" stroke="midnightblue" d="M2494.18,-308.119C2521.5,-298.958 2570.46,-282.546 2605.53,-270.788"/>
<polygon fill="midnightblue" stroke="midnightblue" points="2606.65,-274.103 2615.02,-267.605 2604.43,-267.466 2606.65,-274.103"/>
</g>
<!-- Node28 -->
<g id="node67" class="node"><title>Node28</title>
<polygon fill="white" stroke="#bfbfbf" points="2520.15,-181.5 2520.15,-202.5 2561.15,-202.5 2561.15,-181.5 2520.15,-181.5"/>
<text text-anchor="middle" x="2540.65" y="-189.5" font-family="Helvetica,sans-Serif" font-size="10.00">ctime</text>
</g>
<!-- Node23&#45;&gt;Node28 -->
<g id="edge92" class="edge"><title>Node23&#45;&gt;Node28</title>
<path fill="none" stroke="midnightblue" d="M2479.6,-304.085C2490.9,-283.335 2515.63,-237.937 2529.91,-211.729"/>
<polygon fill="midnightblue" stroke="midnightblue" points="2533.11,-213.171 2534.82,-202.715 2526.96,-209.823 2533.11,-213.171"/>
</g>
<!-- Node29 -->
<g id="node70" class="node"><title>Node29</title>
<polygon fill="white" stroke="#bfbfbf" points="2539.65,-246.5 2539.65,-267.5 2577.65,-267.5 2577.65,-246.5 2539.65,-246.5"/>
<text text-anchor="middle" x="2558.65" y="-254.5" font-family="Helvetica,sans-Serif" font-size="10.00">tuple</text>
</g>
<!-- Node23&#45;&gt;Node29 -->
<g id="edge82" class="edge"><title>Node23&#45;&gt;Node29</title>
<path fill="none" stroke="midnightblue" d="M2489.24,-304.362C2501.95,-295.696 2520.09,-283.313 2534.65,-273.382"/>
<polygon fill="midnightblue" stroke="midnightblue" points="2536.88,-276.098 2543.16,-267.571 2532.93,-270.316 2536.88,-276.098"/>
</g>
<!-- Node30 -->
<g id="node72" class="node"><title>Node30</title>
<polygon fill="white" stroke="#bfbfbf" points="2463.65,-116.5 2463.65,-137.5 2509.65,-137.5 2509.65,-116.5 2463.65,-116.5"/>
<text text-anchor="middle" x="2486.65" y="-124.5" font-family="Helvetica,sans-Serif" font-size="10.00">cstdint</text>
</g>
<!-- Node23&#45;&gt;Node30 -->
<g id="edge84" class="edge"><title>Node23&#45;&gt;Node30</title>
<path fill="none" stroke="midnightblue" d="M2474.39,-304.354C2476.48,-274.172 2482.46,-187.656 2485.22,-147.693"/>
<polygon fill="midnightblue" stroke="midnightblue" points="2488.73,-147.747 2485.93,-137.53 2481.74,-147.264 2488.73,-147.747"/>
</g>
<!-- Node31 -->
<g id="node76" class="node"><title>Node31</title>
<polygon fill="white" stroke="#bfbfbf" points="2169.65,-181.5 2169.65,-202.5 2219.65,-202.5 2219.65,-181.5 2169.65,-181.5"/>
<text text-anchor="middle" x="2194.65" y="-189.5" font-family="Helvetica,sans-Serif" font-size="10.00">iomanip</text>
</g>
<!-- Node23&#45;&gt;Node31 -->
<g id="edge90" class="edge"><title>Node23&#45;&gt;Node31</title>
<path fill="none" stroke="midnightblue" d="M2452.9,-313.177C2389.44,-307.397 2201.21,-288.636 2183.65,-268 2170.63,-252.697 2176.76,-229.07 2184,-212.225"/>
<polygon fill="midnightblue" stroke="midnightblue" points="2187.37,-213.283 2188.49,-202.748 2181.04,-210.286 2187.37,-213.283"/>
</g>
<!-- Node25 -->
<g id="node58" class="node"><title>Node25</title>
<a xlink:href="string_8h.html" target="_top" xlink:title="base/std_ext/string.h">
<polygon fill="white" stroke="black" points="1547.65,-181.5 1547.65,-202.5 1655.65,-202.5 1655.65,-181.5 1547.65,-181.5"/>
<text text-anchor="middle" x="1601.65" y="-189.5" font-family="Helvetica,sans-Serif" font-size="10.00">base/std_ext/string.h</text>
</a>
</g>
<!-- Node24&#45;&gt;Node25 -->
<g id="edge66" class="edge"><title>Node24&#45;&gt;Node25</title>
<path fill="none" stroke="midnightblue" d="M2595.01,-247.084C2592.19,-246.682 2589.39,-246.317 2586.65,-246 2263.09,-208.549 2179.79,-229.559 1854.65,-210 1790.5,-206.141 1717.27,-200.832 1666.16,-196.98"/>
<polygon fill="midnightblue" stroke="midnightblue" points="1666.16,-193.47 1655.92,-196.206 1665.63,-200.45 1666.16,-193.47"/>
</g>
<!-- Node27 -->
<g id="node65" class="node"><title>Node27</title>
<polygon fill="white" stroke="#bfbfbf" points="2527.65,-116.5 2527.65,-137.5 2573.65,-137.5 2573.65,-116.5 2527.65,-116.5"/>
<text text-anchor="middle" x="2550.65" y="-124.5" font-family="Helvetica,sans-Serif" font-size="10.00">cstring</text>
</g>
<!-- Node24&#45;&gt;Node27 -->
<g id="edge76" class="edge"><title>Node24&#45;&gt;Node27</title>
<path fill="none" stroke="midnightblue" d="M2638.8,-246.362C2622.55,-224.365 2585.08,-173.624 2564.62,-145.909"/>
<polygon fill="midnightblue" stroke="midnightblue" points="2567.38,-143.751 2558.62,-137.785 2561.74,-147.909 2567.38,-143.751"/>
</g>
<!-- Node24&#45;&gt;Node28 -->
<g id="edge78" class="edge"><title>Node24&#45;&gt;Node28</title>
<path fill="none" stroke="midnightblue" d="M2629.15,-246.267C2612.09,-235.807 2585.96,-219.782 2566.51,-207.854"/>
<polygon fill="midnightblue" stroke="midnightblue" points="2568.19,-204.778 2557.83,-202.534 2564.53,-210.745 2568.19,-204.778"/>
</g>
<!-- Node25&#45;&gt;Node10 -->
<g id="edge72" class="edge"><title>Node25&#45;&gt;Node10</title>
<path fill="none" stroke="midnightblue" d="M1567.67,-181.405C1527.47,-168.536 1465.14,-147.387 1458.65,-138 1443.9,-116.664 1470.94,-96.829 1496.18,-83.9528"/>
<polygon fill="midnightblue" stroke="midnightblue" points="1497.84,-87.0384 1505.32,-79.534 1494.79,-80.7366 1497.84,-87.0384"/>
</g>
<!-- Node25&#45;&gt;Node15 -->
<g id="edge74" class="edge"><title>Node25&#45;&gt;Node15</title>
<path fill="none" stroke="midnightblue" d="M1573.06,-181.473C1521.76,-162.726 1415.89,-124.705 1377.65,-116 1247.92,-86.4685 1089.29,-74.6023 1022.15,-70.6655"/>
<polygon fill="midnightblue" stroke="midnightblue" points="1021.99,-67.1509 1011.81,-70.0801 1021.59,-74.1397 1021.99,-67.1509"/>
</g>
<!-- Node25&#45;&gt;Node16 -->
<g id="edge68" class="edge"><title>Node25&#45;&gt;Node16</title>
<path fill="none" stroke="midnightblue" d="M1550.73,-181.499C1534.77,-178.591 1517.04,-175.754 1500.65,-174 1070.82,-127.964 960.128,-164.66 528.654,-138 495.797,-135.97 458.245,-132.585 432.548,-130.105"/>
<polygon fill="midnightblue" stroke="midnightblue" points="432.602,-126.594 422.309,-129.105 431.921,-133.561 432.602,-126.594"/>
</g>
<!-- Node26 -->
<g id="node61" class="node"><title>Node26</title>
<polygon fill="white" stroke="#bfbfbf" points="1467.65,-116.5 1467.65,-137.5 1519.65,-137.5 1519.65,-116.5 1467.65,-116.5"/>
<text text-anchor="middle" x="1493.65" y="-124.5" font-family="Helvetica,sans-Serif" font-size="10.00">sstream</text>
</g>
<!-- Node25&#45;&gt;Node26 -->
<g id="edge70" class="edge"><title>Node25&#45;&gt;Node26</title>
<path fill="none" stroke="midnightblue" d="M1583.82,-181.267C1566.36,-170.76 1539.57,-154.637 1519.73,-142.692"/>
<polygon fill="midnightblue" stroke="midnightblue" points="1521.53,-139.692 1511.16,-137.534 1517.92,-145.689 1521.53,-139.692"/>
</g>
<!-- Node32&#45;&gt;Node26 -->
<g id="edge134" class="edge"><title>Node32&#45;&gt;Node26</title>
<path fill="none" stroke="midnightblue" d="M2246.25,-246.398C2248.29,-228.439 2249.38,-192.215 2228.65,-174 2180.08,-131.297 1712.19,-142.304 1647.65,-138 1607.29,-135.308 1560.99,-131.966 1529.78,-129.677"/>
<polygon fill="midnightblue" stroke="midnightblue" points="1530.04,-126.187 1519.81,-128.944 1529.52,-133.168 1530.04,-126.187"/>
</g>
<!-- Node32&#45;&gt;Node31 -->
<g id="edge132" class="edge"><title>Node32&#45;&gt;Node31</title>
<path fill="none" stroke="midnightblue" d="M2236.4,-246.267C2228.97,-236.612 2217.9,-222.215 2209.02,-210.675"/>
<polygon fill="midnightblue" stroke="midnightblue" points="2211.63,-208.326 2202.76,-202.534 2206.08,-212.594 2211.63,-208.326"/>
</g>
<!-- Node33 -->
<g id="node81" class="node"><title>Node33</title>
<a xlink:href="_detector__t_8h.html" target="_top" xlink:title="base/Detector_t.h">
<polygon fill="white" stroke="black" points="2275.15,-181.5 2275.15,-202.5 2370.15,-202.5 2370.15,-181.5 2275.15,-181.5"/>
<text text-anchor="middle" x="2322.65" y="-189.5" font-family="Helvetica,sans-Serif" font-size="10.00">base/Detector_t.h</text>
</a>
</g>
<!-- Node32&#45;&gt;Node33 -->
<g id="edge96" class="edge"><title>Node32&#45;&gt;Node33</title>
<path fill="none" stroke="midnightblue" d="M2257.53,-246.267C2269.69,-236.139 2288.1,-220.792 2302.26,-209"/>
<polygon fill="midnightblue" stroke="midnightblue" points="2304.57,-211.624 2310.01,-202.534 2300.09,-206.247 2304.57,-211.624"/>
</g>
<!-- Node33&#45;&gt;Node6 -->
<g id="edge98" class="edge"><title>Node33&#45;&gt;Node6</title>
<path fill="none" stroke="midnightblue" d="M2327.45,-181.085C2336.52,-160.427 2356.31,-115.337 2367.84,-89.0765"/>
<polygon fill="midnightblue" stroke="midnightblue" points="2371.13,-90.2788 2371.95,-79.7153 2364.73,-87.4648 2371.13,-90.2788"/>
</g>
<!-- Node33&#45;&gt;Node7 -->
<g id="edge128" class="edge"><title>Node33&#45;&gt;Node7</title>
<path fill="none" stroke="midnightblue" d="M2331.76,-181.212C2348.57,-161.267 2385.63,-117.26 2416.65,-80 2430.82,-62.9922 2446.86,-43.5498 2458.32,-29.6471"/>
<polygon fill="midnightblue" stroke="midnightblue" points="2461.14,-31.7229 2464.79,-21.778 2455.74,-27.2739 2461.14,-31.7229"/>
</g>
<!-- Node33&#45;&gt;Node11 -->
<g id="edge124" class="edge"><title>Node33&#45;&gt;Node11</title>
<path fill="none" stroke="midnightblue" d="M2297.08,-181.407C2243.89,-159.382 2121.32,-108.62 2060.79,-83.5501"/>
<polygon fill="midnightblue" stroke="midnightblue" points="2061.86,-80.2042 2051.28,-79.6115 2059.18,-86.6715 2061.86,-80.2042"/>
</g>
<!-- Node33&#45;&gt;Node15 -->
<g id="edge130" class="edge"><title>Node33&#45;&gt;Node15</title>
<path fill="none" stroke="midnightblue" d="M2285.92,-181.452C2274.69,-178.597 2262.24,-175.802 2250.65,-174 2002.02,-135.328 1932.51,-186.754 1685.65,-138 1655.73,-132.091 1650.54,-122.07 1620.65,-116 1504.23,-92.3562 1134.09,-75.1141 1022.08,-70.3347"/>
<polygon fill="midnightblue" stroke="midnightblue" points="1021.9,-66.8243 1011.77,-69.8989 1021.61,-73.8181 1021.9,-66.8243"/>
</g>
<!-- Node33&#45;&gt;Node16 -->
<g id="edge126" class="edge"><title>Node33&#45;&gt;Node16</title>
<path fill="none" stroke="midnightblue" d="M2276.03,-181.468C2260.99,-178.502 2244.19,-175.64 2228.65,-174 1477.11,-94.6547 1283.29,-178.628 528.654,-138 495.782,-136.23 458.233,-132.803 432.54,-130.242"/>
<polygon fill="midnightblue" stroke="midnightblue" points="432.605,-126.731 422.303,-129.205 431.899,-133.696 432.605,-126.731"/>
</g>
<!-- Node33&#45;&gt;Node30 -->
<g id="edge122" class="edge"><title>Node33&#45;&gt;Node30</title>
<path fill="none" stroke="midnightblue" d="M2349.37,-181.412C2377.95,-170.083 2423.31,-152.106 2454,-139.944"/>
<polygon fill="midnightblue" stroke="midnightblue" points="2455.4,-143.154 2463.4,-136.216 2452.82,-136.646 2455.4,-143.154"/>
</g>
<!-- Node34 -->
<g id="node84" class="node"><title>Node34</title>
<a xlink:href="vec3_8h.html" target="_top" xlink:title="base/vec/vec3.h">
<polygon fill="white" stroke="black" points="2243.15,-116.5 2243.15,-137.5 2332.15,-137.5 2332.15,-116.5 2243.15,-116.5"/>
<text text-anchor="middle" x="2287.65" y="-124.5" font-family="Helvetica,sans-Serif" font-size="10.00">base/vec/vec3.h</text>
</a>
</g>
<!-- Node33&#45;&gt;Node34 -->
<g id="edge100" class="edge"><title>Node33&#45;&gt;Node34</title>
<path fill="none" stroke="midnightblue" d="M2316.87,-181.267C2311.78,-171.801 2304.23,-157.777 2298.08,-146.357"/>
<polygon fill="midnightblue" stroke="midnightblue" points="2301.15,-144.679 2293.33,-137.534 2294.99,-147.998 2301.15,-144.679"/>
</g>
<!-- Node37 -->
<g id="node92" class="node"><title>Node37</title>
<a xlink:href="math_8h.html" target="_top" xlink:title="base/std_ext/math.h">
<polygon fill="white" stroke="black" points="1825.65,-116.5 1825.65,-137.5 1931.65,-137.5 1931.65,-116.5 1825.65,-116.5"/>
<text text-anchor="middle" x="1878.65" y="-124.5" font-family="Helvetica,sans-Serif" font-size="10.00">base/std_ext/math.h</text>
</a>
</g>
<!-- Node33&#45;&gt;Node37 -->
<g id="edge110" class="edge"><title>Node33&#45;&gt;Node37</title>
<path fill="none" stroke="midnightblue" d="M2290.94,-181.498C2281.59,-178.714 2271.29,-175.946 2261.65,-174 2124.1,-146.214 2084.5,-157.988 1941.73,-138.069"/>
<polygon fill="midnightblue" stroke="midnightblue" points="1942.11,-134.588 1931.72,-136.644 1941.13,-141.518 1942.11,-134.588"/>
</g>
<!-- Node34&#45;&gt;Node6 -->
<g id="edge102" class="edge"><title>Node34&#45;&gt;Node6</title>
<path fill="none" stroke="midnightblue" d="M2303.98,-116.362C2317.4,-107.614 2336.64,-95.0786 2351.95,-85.1015"/>
<polygon fill="midnightblue" stroke="midnightblue" points="2353.97,-87.9628 2360.43,-79.5707 2350.15,-82.0982 2353.97,-87.9628"/>
</g>
<!-- Node35 -->
<g id="node87" class="node"><title>Node35</title>
<a xlink:href="vec2_8h.html" target="_top" xlink:title="vec2.h">
<polygon fill="white" stroke="black" points="2243.65,-58.5 2243.65,-79.5 2289.65,-79.5 2289.65,-58.5 2243.65,-58.5"/>
<text text-anchor="middle" x="2266.65" y="-66.5" font-family="Helvetica,sans-Serif" font-size="10.00">vec2.h</text>
</a>
</g>
<!-- Node34&#45;&gt;Node35 -->
<g id="edge104" class="edge"><title>Node34&#45;&gt;Node35</title>
<path fill="none" stroke="midnightblue" d="M2283.8,-116.362C2281.05,-108.758 2277.26,-98.294 2273.94,-89.1349"/>
<polygon fill="midnightblue" stroke="midnightblue" points="2277.18,-87.7818 2270.48,-79.5707 2270.6,-90.1649 2277.18,-87.7818"/>
</g>
<!-- Node36 -->
<g id="node89" class="node"><title>Node36</title>
<polygon fill="white" stroke="#bfbfbf" points="2244.65,-0.5 2244.65,-21.5 2288.65,-21.5 2288.65,-0.5 2244.65,-0.5"/>
<text text-anchor="middle" x="2266.65" y="-8.5" font-family="Helvetica,sans-Serif" font-size="10.00">cmath</text>
</g>
<!-- Node34&#45;&gt;Node36 -->
<g id="edge108" class="edge"><title>Node34&#45;&gt;Node36</title>
<path fill="none" stroke="midnightblue" d="M2292.41,-116.029C2297.72,-102.233 2304.8,-77.9394 2298.65,-58 2295.5,-47.7466 2289.25,-37.7278 2283.11,-29.5925"/>
<polygon fill="midnightblue" stroke="midnightblue" points="2285.65,-27.1612 2276.64,-21.5822 2280.2,-31.5603 2285.65,-27.1612"/>
</g>
<!-- Node35&#45;&gt;Node36 -->
<g id="edge106" class="edge"><title>Node35&#45;&gt;Node36</title>
<path fill="none" stroke="midnightblue" d="M2266.65,-58.3619C2266.65,-50.9219 2266.65,-40.7427 2266.65,-31.7276"/>
<polygon fill="midnightblue" stroke="midnightblue" points="2270.15,-31.5706 2266.65,-21.5707 2263.15,-31.5707 2270.15,-31.5706"/>
</g>
<!-- Node37&#45;&gt;Node10 -->
<g id="edge118" class="edge"><title>Node37&#45;&gt;Node10</title>
<path fill="none" stroke="midnightblue" d="M1825.56,-117.537C1822.55,-117.013 1819.56,-116.498 1816.65,-116 1728.43,-100.899 1624.68,-84.0069 1569.94,-75.1629"/>
<polygon fill="midnightblue" stroke="midnightblue" points="1570.42,-71.6944 1559.99,-73.5558 1569.3,-78.6049 1570.42,-71.6944"/>
</g>
<!-- Node37&#45;&gt;Node11 -->
<g id="edge120" class="edge"><title>Node37&#45;&gt;Node11</title>
<path fill="none" stroke="midnightblue" d="M1905.28,-116.497C1928.75,-107.234 1963.18,-93.6499 1989.21,-83.3793"/>
<polygon fill="midnightblue" stroke="midnightblue" points="1990.72,-86.5473 1998.74,-79.6212 1988.15,-80.0358 1990.72,-86.5473"/>
</g>
<!-- Node37&#45;&gt;Node12 -->
<g id="edge114" class="edge"><title>Node37&#45;&gt;Node12</title>
<path fill="none" stroke="midnightblue" d="M1874.07,-116.362C1870.76,-108.677 1866.18,-98.0686 1862.21,-88.8399"/>
<polygon fill="midnightblue" stroke="midnightblue" points="1865.38,-87.3685 1858.21,-79.5707 1858.96,-90.1393 1865.38,-87.3685"/>
</g>
<!-- Node37&#45;&gt;Node15 -->
<g id="edge116" class="edge"><title>Node37&#45;&gt;Node15</title>
<path fill="none" stroke="midnightblue" d="M1825.62,-117.163C1822.59,-116.734 1819.59,-116.342 1816.65,-116 1508.74,-80.0636 1132.98,-71.3222 1021.98,-69.4575"/>
<polygon fill="midnightblue" stroke="midnightblue" points="1021.84,-65.9549 1011.78,-69.2934 1021.72,-72.954 1021.84,-65.9549"/>
</g>
<!-- Node37&#45;&gt;Node36 -->
<g id="edge112" class="edge"><title>Node37&#45;&gt;Node36</title>
<path fill="none" stroke="midnightblue" d="M1891.49,-116.435C1910.98,-100.985 1949.8,-72.4934 1987.65,-58 2072.84,-25.3866 2181.26,-15.357 2234.37,-12.308"/>
<polygon fill="midnightblue" stroke="midnightblue" points="2234.73,-15.7939 2244.53,-11.7722 2234.36,-8.80359 2234.73,-15.7939"/>
</g>
<!-- Node38&#45;&gt;Node6 -->
<g id="edge142" class="edge"><title>Node38&#45;&gt;Node6</title>
<path fill="none" stroke="midnightblue" d="M2637.82,-363.167C2758.63,-334.582 3099.34,-250.949 3129.65,-210 3154.51,-176.422 3158.26,-146.448 3129.65,-116 3105.13,-89.8975 2572.71,-74.0864 2418.29,-70.0378"/>
<polygon fill="midnightblue" stroke="midnightblue" points="2417.92,-66.5272 2407.83,-69.7666 2417.74,-73.5248 2417.92,-66.5272"/>
</g>
<!-- Node38&#45;&gt;Node23 -->
<g id="edge138" class="edge"><title>Node38&#45;&gt;Node23</title>
<path fill="none" stroke="midnightblue" d="M2573.56,-362.497C2553.94,-353.169 2525.11,-339.461 2503.45,-329.166"/>
<polygon fill="midnightblue" stroke="midnightblue" points="2504.9,-325.978 2494.36,-324.845 2501.89,-332.3 2504.9,-325.978"/>
</g>
<!-- Node38&#45;&gt;Node24 -->
<g id="edge140" class="edge"><title>Node38&#45;&gt;Node24</title>
<path fill="none" stroke="midnightblue" d="M2600.36,-362.295C2608.9,-342.872 2627.07,-301.556 2637.93,-276.846"/>
<polygon fill="midnightblue" stroke="midnightblue" points="2641.14,-278.242 2641.96,-267.679 2634.73,-275.425 2641.14,-278.242"/>
</g>
<!-- Node38&#45;&gt;Node29 -->
<g id="edge146" class="edge"><title>Node38&#45;&gt;Node29</title>
<path fill="none" stroke="midnightblue" d="M2592.24,-362.295C2586.1,-343.045 2573.1,-302.289 2565.2,-277.509"/>
<polygon fill="midnightblue" stroke="midnightblue" points="2568.43,-276.143 2562.06,-267.679 2561.77,-278.27 2568.43,-276.143"/>
</g>
<!-- Node38&#45;&gt;Node30 -->
<g id="edge144" class="edge"><title>Node38&#45;&gt;Node30</title>
<path fill="none" stroke="midnightblue" d="M2618.08,-362.372C2658.21,-341.832 2735.51,-294.422 2706.65,-246 2685.58,-210.636 2575.03,-162.374 2519.11,-139.722"/>
<polygon fill="midnightblue" stroke="midnightblue" points="2520.25,-136.406 2509.66,-135.927 2517.64,-142.902 2520.25,-136.406"/>
</g>
<!-- Node39&#45;&gt;Node6 -->
<g id="edge178" class="edge"><title>Node39&#45;&gt;Node6</title>
<path fill="none" stroke="midnightblue" d="M3152.3,-246.464C3167.77,-220.479 3202.32,-152.783 3167.65,-116 3141.74,-88.5046 2577.72,-73.5862 2418.29,-69.9084"/>
<polygon fill="midnightblue" stroke="midnightblue" points="2418.03,-66.4017 2407.95,-69.6727 2417.87,-73.3999 2418.03,-66.4017"/>
</g>
<!-- Node40 -->
<g id="node115" class="node"><title>Node40</title>
<a xlink:href="_format_8h.html" target="_top" xlink:title="base/Format.h">
<polygon fill="white" stroke="black" points="2709.65,-181.5 2709.65,-202.5 2789.65,-202.5 2789.65,-181.5 2709.65,-181.5"/>
<text text-anchor="middle" x="2749.65" y="-189.5" font-family="Helvetica,sans-Serif" font-size="10.00">base/Format.h</text>
</a>
</g>
<!-- Node39&#45;&gt;Node40 -->
<g id="edge150" class="edge"><title>Node39&#45;&gt;Node40</title>
<path fill="none" stroke="midnightblue" d="M3088.92,-247.687C3011.4,-234.964 2873.62,-212.347 2799.74,-200.221"/>
<polygon fill="midnightblue" stroke="midnightblue" points="2800.19,-196.748 2789.75,-198.582 2799.05,-203.655 2800.19,-196.748"/>
</g>
<!-- Node40&#45;&gt;Node11 -->
<g id="edge168" class="edge"><title>Node40&#45;&gt;Node11</title>
<path fill="none" stroke="midnightblue" d="M2732.06,-181.455C2698.61,-161.488 2628.06,-119.805 2615.65,-116 2563.33,-99.9467 2189.5,-78.0628 2065.5,-71.1702"/>
<polygon fill="midnightblue" stroke="midnightblue" points="2065.49,-67.6642 2055.31,-70.6062 2065.1,-74.6535 2065.49,-67.6642"/>
</g>
<!-- Node40&#45;&gt;Node12 -->
<g id="edge164" class="edge"><title>Node40&#45;&gt;Node12</title>
<path fill="none" stroke="midnightblue" d="M2718.24,-181.411C2690.56,-171.596 2649.48,-155.851 2615.65,-138 2600.06,-129.774 2599.36,-121.615 2582.65,-116 2457.09,-73.8014 2119.78,-89.4193 1987.65,-80 1952.1,-77.465 1911.27,-74.0396 1884.12,-71.6885"/>
<polygon fill="midnightblue" stroke="midnightblue" points="1884.34,-68.1946 1874.08,-70.8136 1883.73,-75.1682 1884.34,-68.1946"/>
</g>
<!-- Node40&#45;&gt;Node15 -->
<g id="edge172" class="edge"><title>Node40&#45;&gt;Node15</title>
<path fill="none" stroke="midnightblue" d="M2709.32,-187.298C2672.88,-183.209 2617.74,-177.419 2569.65,-174 2380.85,-160.577 1903.17,-180.187 1718.65,-138 1694.59,-132.498 1691.64,-121.825 1667.65,-116 1542.71,-85.6573 1139.09,-72.9136 1021.86,-69.7954"/>
<polygon fill="midnightblue" stroke="midnightblue" points="1021.82,-66.2934 1011.74,-69.5313 1021.64,-73.291 1021.82,-66.2934"/>
</g>
<!-- Node40&#45;&gt;Node16 -->
<g id="edge170" class="edge"><title>Node40&#45;&gt;Node16</title>
<path fill="none" stroke="midnightblue" d="M2709.34,-187.013C2672.91,-182.734 2617.78,-176.826 2569.65,-174 1663.96,-120.818 1434.68,-185.172 528.654,-138 495.779,-136.288 458.23,-132.852 432.538,-130.273"/>
<polygon fill="midnightblue" stroke="midnightblue" points="432.606,-126.762 422.302,-129.228 431.894,-133.726 432.606,-126.762"/>
</g>
<!-- Node40&#45;&gt;Node18 -->
<g id="edge166" class="edge"><title>Node40&#45;&gt;Node18</title>
<path fill="none" stroke="midnightblue" d="M2709.33,-187.076C2672.9,-182.839 2617.77,-176.956 2569.65,-174 1877,-131.443 1700.03,-197.821 1008.65,-138 996.606,-136.957 983.521,-135.189 971.802,-133.371"/>
<polygon fill="midnightblue" stroke="midnightblue" points="972.344,-129.914 961.914,-131.779 971.23,-136.825 972.344,-129.914"/>
</g>
<!-- Node40&#45;&gt;Node27 -->
<g id="edge162" class="edge"><title>Node40&#45;&gt;Node27</title>
<path fill="none" stroke="midnightblue" d="M2718.26,-181.486C2710.85,-179.018 2702.98,-176.407 2695.65,-174 2657.2,-161.359 2612.93,-147.044 2583.53,-137.569"/>
<polygon fill="midnightblue" stroke="midnightblue" points="2584.37,-134.164 2573.78,-134.43 2582.22,-140.827 2584.37,-134.164"/>
</g>
<!-- Node40&#45;&gt;Node36 -->
<g id="edge158" class="edge"><title>Node40&#45;&gt;Node36</title>
<path fill="none" stroke="midnightblue" d="M2789.72,-190.042C2857.89,-185.779 2991.9,-173.049 3020.65,-138 3026.86,-130.441 3027.07,-123.375 3020.65,-116 2972.34,-60.4917 2437.4,-22.0938 2299.12,-13.048"/>
<polygon fill="midnightblue" stroke="midnightblue" points="2298.98,-9.53181 2288.78,-12.3779 2298.53,-16.5172 2298.98,-9.53181"/>
</g>
<!-- Node41 -->
<g id="node117" class="node"><title>Node41</title>
<polygon fill="white" stroke="#bfbfbf" points="2791.65,-116.5 2791.65,-137.5 2887.65,-137.5 2887.65,-116.5 2791.65,-116.5"/>
<text text-anchor="middle" x="2839.65" y="-124.5" font-family="Helvetica,sans-Serif" font-size="10.00">detail/fmt/format.h</text>
</g>
<!-- Node40&#45;&gt;Node41 -->
<g id="edge152" class="edge"><title>Node40&#45;&gt;Node41</title>
<path fill="none" stroke="midnightblue" d="M2764.52,-181.267C2778.67,-171.044 2800.19,-155.504 2816.57,-143.67"/>
<polygon fill="midnightblue" stroke="midnightblue" points="2819.01,-146.226 2825.07,-137.534 2814.91,-140.551 2819.01,-146.226"/>
</g>
<!-- Node42 -->
<g id="node119" class="node"><title>Node42</title>
<polygon fill="white" stroke="#bfbfbf" points="1949.15,-116.5 1949.15,-137.5 1998.15,-137.5 1998.15,-116.5 1949.15,-116.5"/>
<text text-anchor="middle" x="1973.65" y="-124.5" font-family="Helvetica,sans-Serif" font-size="10.00">cassert</text>
</g>
<!-- Node40&#45;&gt;Node42 -->
<g id="edge154" class="edge"><title>Node40&#45;&gt;Node42</title>
<path fill="none" stroke="midnightblue" d="M2709.64,-187.756C2673.18,-183.946 2617.83,-178.308 2569.65,-174 2356.6,-154.948 2100.32,-136.111 2008.49,-129.49"/>
<polygon fill="midnightblue" stroke="midnightblue" points="2008.59,-125.989 1998.37,-128.762 2008.09,-132.971 2008.59,-125.989"/>
</g>
<!-- Node43 -->
<g id="node121" class="node"><title>Node43</title>
<polygon fill="white" stroke="#bfbfbf" points="2905.15,-116.5 2905.15,-137.5 2952.15,-137.5 2952.15,-116.5 2905.15,-116.5"/>
<text text-anchor="middle" x="2928.65" y="-124.5" font-family="Helvetica,sans-Serif" font-size="10.00">clocale</text>
</g>
<!-- Node40&#45;&gt;Node43 -->
<g id="edge156" class="edge"><title>Node40&#45;&gt;Node43</title>
<path fill="none" stroke="midnightblue" d="M2778.81,-181.412C2810.68,-169.839 2861.66,-151.326 2895.16,-139.164"/>
<polygon fill="midnightblue" stroke="midnightblue" points="2896.74,-142.312 2904.95,-135.609 2894.35,-135.732 2896.74,-142.312"/>
</g>
<!-- Node44 -->
<g id="node124" class="node"><title>Node44</title>
<polygon fill="white" stroke="#bfbfbf" points="2969.15,-116.5 2969.15,-137.5 3012.15,-137.5 3012.15,-116.5 2969.15,-116.5"/>
<text text-anchor="middle" x="2990.65" y="-124.5" font-family="Helvetica,sans-Serif" font-size="10.00">cstdio</text>
</g>
<!-- Node40&#45;&gt;Node44 -->
<g id="edge160" class="edge"><title>Node40&#45;&gt;Node44</title>
<path fill="none" stroke="midnightblue" d="M2789.66,-183.033C2830.26,-173.65 2895.07,-157.906 2959.24,-138.251"/>
<polygon fill="midnightblue" stroke="midnightblue" points="2960.6,-141.495 2969.11,-135.194 2958.53,-134.808 2960.6,-141.495"/>
</g>
<!-- Node45 -->
<g id="node132" class="node"><title>Node45</title>
<polygon fill="white" stroke="#bfbfbf" points="2667.65,-116.5 2667.65,-137.5 2707.65,-137.5 2707.65,-116.5 2667.65,-116.5"/>
<text text-anchor="middle" x="2687.65" y="-124.5" font-family="Helvetica,sans-Serif" font-size="10.00">utility</text>
</g>
<!-- Node40&#45;&gt;Node45 -->
<g id="edge174" class="edge"><title>Node40&#45;&gt;Node45</title>
<path fill="none" stroke="midnightblue" d="M2739.42,-181.267C2730.03,-171.423 2715.93,-156.648 2704.82,-145"/>
<polygon fill="midnightblue" stroke="midnightblue" points="2707.14,-142.354 2697.7,-137.534 2702.07,-147.186 2707.14,-142.354"/>
</g>
<!-- Node46 -->
<g id="node134" class="node"><title>Node46</title>
<polygon fill="white" stroke="#bfbfbf" points="2725.15,-116.5 2725.15,-137.5 2774.15,-137.5 2774.15,-116.5 2725.15,-116.5"/>
<text text-anchor="middle" x="2749.65" y="-124.5" font-family="Helvetica,sans-Serif" font-size="10.00">stdint.h</text>
</g>
<!-- Node40&#45;&gt;Node46 -->
<g id="edge176" class="edge"><title>Node40&#45;&gt;Node46</title>
<path fill="none" stroke="midnightblue" d="M2749.65,-181.267C2749.65,-172.18 2749.65,-158.892 2749.65,-147.74"/>
<polygon fill="midnightblue" stroke="midnightblue" points="2753.15,-147.534 2749.65,-137.534 2746.15,-147.534 2753.15,-147.534"/>
</g>
<!-- Node47&#45;&gt;Node6 -->
<g id="edge184" class="edge"><title>Node47&#45;&gt;Node6</title>
<path fill="none" stroke="midnightblue" d="M1963.9,-372.369C2128.7,-369.425 2793.32,-355.892 2999.65,-326 3121.38,-308.365 3267.65,-379.996 3267.65,-257 3267.65,-257 3267.65,-257 3267.65,-192 3267.65,-142.635 3232.01,-135.485 3186.65,-116 3115.8,-85.563 2573.55,-72.8083 2418.15,-69.7552"/>
<polygon fill="midnightblue" stroke="midnightblue" points="2418.13,-66.2542 2408.06,-69.56 2417.99,-73.2529 2418.13,-66.2542"/>
</g>
<!-- Node47&#45;&gt;Node15 -->
<g id="edge190" class="edge"><title>Node47&#45;&gt;Node15</title>
<path fill="none" stroke="midnightblue" d="M1889.43,-369.831C1822.47,-363.645 1684.78,-348.563 1642.65,-326 1601.91,-304.176 1540.24,-197.87 1500.65,-174 1490.15,-167.667 1299.65,-118.57 1287.65,-116 1191.87,-95.4701 1076.98,-79.8513 1022.03,-72.9256"/>
<polygon fill="midnightblue" stroke="midnightblue" points="1022.22,-69.4221 1011.86,-71.6575 1021.35,-76.3683 1022.22,-69.4221"/>
</g>
<!-- Node47&#45;&gt;Node23 -->
<g id="edge182" class="edge"><title>Node47&#45;&gt;Node23</title>
<path fill="none" stroke="midnightblue" d="M1963.82,-369.059C2065.93,-358.232 2349.35,-328.18 2443.11,-318.239"/>
<polygon fill="midnightblue" stroke="midnightblue" points="2443.5,-321.717 2453.08,-317.182 2442.77,-314.756 2443.5,-321.717"/>
</g>
<!-- Node47&#45;&gt;Node26 -->
<g id="edge194" class="edge"><title>Node47&#45;&gt;Node26</title>
<path fill="none" stroke="midnightblue" d="M1935.29,-362.145C1945.06,-348.47 1958.64,-324.3 1950.65,-304 1937.76,-271.225 1924.97,-266.947 1896.65,-246 1837.85,-202.496 1818.4,-196.04 1748.65,-174 1655.7,-144.627 1624.42,-161.733 1529.9,-139.161"/>
<polygon fill="midnightblue" stroke="midnightblue" points="1530.48,-135.7 1519.94,-136.692 1528.8,-142.494 1530.48,-135.7"/>
</g>
<!-- Node47&#45;&gt;Node31 -->
<g id="edge192" class="edge"><title>Node47&#45;&gt;Node31</title>
<path fill="none" stroke="midnightblue" d="M1942.22,-362.486C1987,-332.245 2116.37,-244.872 2170.45,-208.35"/>
<polygon fill="midnightblue" stroke="midnightblue" points="2172.72,-211.04 2179.04,-202.543 2168.8,-205.239 2172.72,-211.04"/>
</g>
<!-- Node48 -->
<g id="node141" class="node"><title>Node48</title>
<a xlink:href="_lorentz_vec_8h.html" target="_top" xlink:title="base/vec/LorentzVec.h">
<polygon fill="white" stroke="black" points="1825.15,-304.5 1825.15,-325.5 1942.15,-325.5 1942.15,-304.5 1825.15,-304.5"/>
<text text-anchor="middle" x="1883.65" y="-312.5" font-family="Helvetica,sans-Serif" font-size="10.00">base/vec/LorentzVec.h</text>
</a>
</g>
<!-- Node47&#45;&gt;Node48 -->
<g id="edge186" class="edge"><title>Node47&#45;&gt;Node48</title>
<path fill="none" stroke="midnightblue" d="M1918.77,-362.362C1912.83,-354.35 1904.53,-343.161 1897.5,-333.67"/>
<polygon fill="midnightblue" stroke="midnightblue" points="1900.26,-331.519 1891.49,-325.571 1894.64,-335.688 1900.26,-331.519"/>
</g>
<!-- Node48&#45;&gt;Node34 -->
<g id="edge188" class="edge"><title>Node48&#45;&gt;Node34</title>
<path fill="none" stroke="midnightblue" d="M1942.36,-313.869C2046.77,-311.025 2259.97,-301.212 2325.65,-268 2368.45,-246.357 2403.6,-214.962 2378.65,-174 2369.62,-159.16 2354.22,-148.801 2338.63,-141.664"/>
<polygon fill="midnightblue" stroke="midnightblue" points="2339.54,-138.249 2328.96,-137.626 2336.84,-144.709 2339.54,-138.249"/>
</g>
<!-- Node49&#45;&gt;Node6 -->
<g id="edge200" class="edge"><title>Node49&#45;&gt;Node6</title>
<path fill="none" stroke="midnightblue" d="M1492.16,-183.662C1506.21,-180.133 1523.18,-176.31 1538.65,-174 1776.11,-138.557 1847.99,-207.974 2077.65,-138 2096.32,-132.312 2097.33,-122.719 2115.65,-116 2155.37,-101.435 2272.56,-83.5614 2335.53,-74.6349"/>
<polygon fill="midnightblue" stroke="midnightblue" points="2336.11,-78.0886 2345.52,-73.2294 2335.13,-71.1569 2336.11,-78.0886"/>
</g>
<!-- Node49&#45;&gt;Node9 -->
<g id="edge198" class="edge"><title>Node49&#45;&gt;Node9</title>
<path fill="none" stroke="midnightblue" d="M1436.67,-181.337C1430.5,-178.824 1423.87,-176.23 1417.65,-174 1335.75,-144.609 1315.65,-134.664 1230.65,-116 1114.69,-90.534 1079.33,-106.509 960.24,-80.0468"/>
<polygon fill="midnightblue" stroke="midnightblue" points="960.904,-76.6085 950.376,-77.8018 959.35,-83.4339 960.904,-76.6085"/>
</g>
<!-- Node49&#45;&gt;Node12 -->
<g id="edge204" class="edge"><title>Node49&#45;&gt;Node12</title>
<path fill="none" stroke="midnightblue" d="M1457.12,-181.366C1450.97,-165.078 1442.49,-133.959 1458.65,-116 1509.78,-59.2049 1725.15,-91.7795 1800.65,-80 1808.19,-78.8249 1816.27,-77.2899 1823.79,-75.7411"/>
<polygon fill="midnightblue" stroke="midnightblue" points="1824.55,-79.1576 1833.61,-73.6531 1823.1,-72.3109 1824.55,-79.1576"/>
</g>
<!-- Node49&#45;&gt;Node18 -->
<g id="edge206" class="edge"><title>Node49&#45;&gt;Node18</title>
<path fill="none" stroke="midnightblue" d="M1431.12,-183.867C1417.06,-180.379 1400.1,-176.533 1384.65,-174 1218.99,-146.832 1175.27,-158.514 1008.65,-138 996.651,-136.522 983.579,-134.639 971.856,-132.851"/>
<polygon fill="midnightblue" stroke="midnightblue" points="972.381,-129.39 961.963,-131.316 971.308,-136.308 972.381,-129.39"/>
</g>
<!-- Node49&#45;&gt;Node19 -->
<g id="edge202" class="edge"><title>Node49&#45;&gt;Node19</title>
<path fill="none" stroke="midnightblue" d="M1437.72,-181.355C1431.28,-178.729 1424.27,-176.077 1417.65,-174 1352,-153.386 1272.12,-138.105 1232.46,-131.154"/>
<polygon fill="midnightblue" stroke="midnightblue" points="1232.84,-127.668 1222.39,-129.417 1231.65,-134.566 1232.84,-127.668"/>
</g>
<!-- Node50&#45;&gt;Node6 -->
<g id="edge212" class="edge"><title>Node50&#45;&gt;Node6</title>
<path fill="none" stroke="midnightblue" d="M1912.78,-181.32C1918.44,-178.633 1924.69,-175.959 1930.65,-174 2010.24,-147.867 2034.01,-156.715 2115.65,-138 2194.03,-120.035 2284.58,-95.1594 2335.78,-80.7044"/>
<polygon fill="midnightblue" stroke="midnightblue" points="2336.82,-84.0496 2345.48,-77.9575 2334.91,-77.3144 2336.82,-84.0496"/>
</g>
<!-- Node50&#45;&gt;Node9 -->
<g id="edge210" class="edge"><title>Node50&#45;&gt;Node9</title>
<path fill="none" stroke="midnightblue" d="M1863.13,-184.92C1847.82,-181.381 1828.79,-177.185 1811.65,-174 1705.61,-154.289 1674.34,-170.996 1571.65,-138 1551.22,-131.433 1549.36,-121.684 1528.65,-116 1287.1,-49.6713 1209.84,-126.463 960.426,-79.9218"/>
<polygon fill="midnightblue" stroke="midnightblue" points="960.816,-76.433 950.336,-77.9897 959.5,-83.3081 960.816,-76.433"/>
</g>
<!-- Node50&#45;&gt;Node18 -->
<g id="edge220" class="edge"><title>Node50&#45;&gt;Node18</title>
<path fill="none" stroke="midnightblue" d="M1862.79,-189.413C1819.25,-185.693 1735.77,-178.758 1664.65,-174 1373.31,-154.508 1299.13,-167.787 1008.65,-138 996.624,-136.766 983.544,-134.948 971.823,-133.143"/>
<polygon fill="midnightblue" stroke="midnightblue" points="972.358,-129.684 961.934,-131.575 971.262,-136.598 972.358,-129.684"/>
</g>
<!-- Node50&#45;&gt;Node19 -->
<g id="edge218" class="edge"><title>Node50&#45;&gt;Node19</title>
<path fill="none" stroke="midnightblue" d="M1862.78,-189.165C1748.13,-178.286 1337.46,-139.317 1232.31,-129.34"/>
<polygon fill="midnightblue" stroke="midnightblue" points="1232.61,-125.853 1222.33,-128.392 1231.95,-132.821 1232.61,-125.853"/>
</g>
<!-- Node50&#45;&gt;Node34 -->
<g id="edge216" class="edge"><title>Node50&#45;&gt;Node34</title>
<path fill="none" stroke="midnightblue" d="M1911.92,-181.453C1917.79,-178.634 1924.35,-175.858 1930.65,-174 1958.97,-165.652 2139.91,-144.03 2232.8,-133.271"/>
<polygon fill="midnightblue" stroke="midnightblue" points="2233.33,-136.733 2242.86,-132.108 2232.52,-129.779 2233.33,-136.733"/>
</g>
<!-- Node50&#45;&gt;Node37 -->
<g id="edge214" class="edge"><title>Node50&#45;&gt;Node37</title>
<path fill="none" stroke="midnightblue" d="M1890.34,-181.267C1888.37,-172.085 1885.46,-158.615 1883.05,-147.392"/>
<polygon fill="midnightblue" stroke="midnightblue" points="1886.45,-146.573 1880.92,-137.534 1879.61,-148.046 1886.45,-146.573"/>
</g>
<!-- Node51&#45;&gt;Node15 -->
<g id="edge240" class="edge"><title>Node51&#45;&gt;Node15</title>
<path fill="none" stroke="midnightblue" d="M1825.5,-255.241C1784.67,-252.964 1710.81,-248.938 1647.65,-246 1598.17,-243.698 790.97,-245.73 756.654,-210 704.791,-155.998 810.221,-127.697 833.654,-116 882.654,-91.5404 901.593,-96.9769 957.641,-80.1241"/>
<polygon fill="midnightblue" stroke="midnightblue" points="958.854,-83.4122 967.358,-77.0933 956.77,-76.7297 958.854,-83.4122"/>
</g>
<!-- Node51&#45;&gt;Node18 -->
<g id="edge248" class="edge"><title>Node51&#45;&gt;Node18</title>
<path fill="none" stroke="midnightblue" d="M1825.23,-255.238C1687.71,-247.493 1145.08,-216.574 1128.65,-210 1105.51,-200.738 1107.52,-185.957 1085.65,-174 1049.3,-154.122 1003.3,-141.29 971.889,-134.139"/>
<polygon fill="midnightblue" stroke="midnightblue" points="972.349,-130.656 961.831,-131.929 970.847,-137.493 972.349,-130.656"/>
</g>
<!-- Node51&#45;&gt;Node26 -->
<g id="edge246" class="edge"><title>Node51&#45;&gt;Node26</title>
<path fill="none" stroke="midnightblue" d="M1840.16,-246.496C1812,-229.009 1752.38,-193.89 1697.65,-174 1627.52,-148.51 1606.1,-155.9 1533.65,-138 1532.4,-137.689 1531.12,-137.367 1529.83,-137.038"/>
<polygon fill="midnightblue" stroke="midnightblue" points="1530.41,-133.574 1519.85,-134.415 1528.63,-140.344 1530.41,-133.574"/>
</g>
<!-- Node51&#45;&gt;Node31 -->
<g id="edge244" class="edge"><title>Node51&#45;&gt;Node31</title>
<path fill="none" stroke="midnightblue" d="M1887.84,-254.944C1942.93,-250.69 2060.61,-238.795 2155.65,-210 2158.79,-209.049 2162.01,-207.893 2165.18,-206.63"/>
<polygon fill="midnightblue" stroke="midnightblue" points="2166.64,-209.81 2174.43,-202.623 2163.86,-203.387 2166.64,-209.81"/>
</g>
<!-- Node51&#45;&gt;Node33 -->
<g id="edge224" class="edge"><title>Node51&#45;&gt;Node33</title>
<path fill="none" stroke="midnightblue" d="M1888.1,-253.709C1952.3,-246.841 2102.96,-229.954 2228.65,-210 2240.45,-208.128 2253.03,-205.888 2265.03,-203.634"/>
<polygon fill="midnightblue" stroke="midnightblue" points="2265.77,-207.056 2274.94,-201.746 2264.46,-200.18 2265.77,-207.056"/>
</g>
<!-- Node51&#45;&gt;Node34 -->
<g id="edge238" class="edge"><title>Node51&#45;&gt;Node34</title>
<path fill="none" stroke="midnightblue" d="M1888.05,-253.395C1948.17,-246.158 2077.2,-228.925 2117.65,-210 2140.23,-199.438 2139.1,-186.508 2160.65,-174 2185.14,-159.793 2214.69,-148.553 2239.12,-140.632"/>
<polygon fill="midnightblue" stroke="midnightblue" points="2240.42,-143.893 2248.9,-137.547 2238.31,-137.217 2240.42,-143.893"/>
</g>
<!-- Node51&#45;&gt;Node36 -->
<g id="edge242" class="edge"><title>Node51&#45;&gt;Node36</title>
<path fill="none" stroke="midnightblue" d="M1887.77,-250.91C1941.71,-240.212 2048.29,-218.382 2063.65,-210 2149.45,-163.201 2223.98,-69.7317 2253.34,-29.7958"/>
<polygon fill="midnightblue" stroke="midnightblue" points="2256.17,-31.8474 2259.21,-21.6967 2250.5,-27.739 2256.17,-31.8474"/>
</g>
<!-- Node51&#45;&gt;Node37 -->
<g id="edge226" class="edge"><title>Node51&#45;&gt;Node37</title>
<path fill="none" stroke="midnightblue" d="M1887.92,-253.871C1936.68,-248.274 2027.28,-234.751 2046.65,-210 2056.52,-197.401 2056.32,-186.747 2046.65,-174 2039.77,-164.924 1982.94,-150.281 1937.26,-139.75"/>
<polygon fill="midnightblue" stroke="midnightblue" points="1937.94,-136.315 1927.41,-137.503 1936.38,-143.139 1937.94,-136.315"/>
</g>
<!-- Node52 -->
<g id="node166" class="node"><title>Node52</title>
<a xlink:href="shared__ptr__container_8h.html" target="_top" xlink:title="base/std_ext/shared\l_ptr_container.h">
<polygon fill="white" stroke="black" points="765.154,-175 765.154,-209 870.154,-209 870.154,-175 765.154,-175"/>
<text text-anchor="start" x="773.154" y="-196" font-family="Helvetica,sans-Serif" font-size="10.00">base/std_ext/shared</text>
<text text-anchor="middle" x="817.654" y="-183" font-family="Helvetica,sans-Serif" font-size="10.00">_ptr_container.h</text>
</a>
</g>
<!-- Node51&#45;&gt;Node52 -->
<g id="edge228" class="edge"><title>Node51&#45;&gt;Node52</title>
<path fill="none" stroke="midnightblue" d="M1825.5,-255.327C1784.66,-253.142 1710.8,-249.216 1647.65,-246 1322.79,-229.452 1239.81,-247.173 916.654,-210 904.859,-208.643 892.348,-206.738 880.333,-204.671"/>
<polygon fill="midnightblue" stroke="midnightblue" points="880.842,-201.207 870.384,-202.906 879.619,-208.099 880.842,-201.207"/>
</g>
<!-- Node52&#45;&gt;Node10 -->
<g id="edge236" class="edge"><title>Node52&#45;&gt;Node10</title>
<path fill="none" stroke="midnightblue" d="M830.444,-174.865C845.136,-156.663 871.061,-128.787 900.654,-116 954.968,-92.5308 1364.77,-75.2761 1493.25,-70.398"/>
<polygon fill="midnightblue" stroke="midnightblue" points="1493.54,-73.8895 1503.41,-70.0161 1493.28,-66.8945 1493.54,-73.8895"/>
</g>
<!-- Node52&#45;&gt;Node15 -->
<g id="edge230" class="edge"><title>Node52&#45;&gt;Node15</title>
<path fill="none" stroke="midnightblue" d="M821.856,-174.846C826.9,-157.695 836.977,-131.676 854.654,-116 889.034,-85.5111 909.866,-94.8142 957.991,-80.0123"/>
<polygon fill="midnightblue" stroke="midnightblue" points="959.243,-83.2849 967.646,-76.8329 957.053,-76.6361 959.243,-83.2849"/>
</g>
<!-- Node52&#45;&gt;Node18 -->
<g id="edge232" class="edge"><title>Node52&#45;&gt;Node18</title>
<path fill="none" stroke="midnightblue" d="M848.658,-174.922C866.749,-164.957 889.411,-152.473 907.07,-142.745"/>
<polygon fill="midnightblue" stroke="midnightblue" points="909.235,-145.549 916.305,-137.658 905.858,-139.418 909.235,-145.549"/>
</g>
<!-- Node52&#45;&gt;Node53 -->
<g id="edge234" class="edge"><title>Node52&#45;&gt;Node53</title>
<path fill="none" stroke="midnightblue" d="M765.037,-178.374C717.659,-166.105 649.075,-148.344 606.217,-137.245"/>
<polygon fill="midnightblue" stroke="midnightblue" points="606.987,-133.829 596.429,-134.711 605.232,-140.606 606.987,-133.829"/>
</g>
<!-- Node54&#45;&gt;Node10 -->
<g id="edge264" class="edge"><title>Node54&#45;&gt;Node10</title>
<path fill="none" stroke="midnightblue" d="M1693.96,-304.498C1698.35,-295.18 1704.24,-281.06 1706.65,-268 1714.39,-226.172 1713.13,-208.788 1688.65,-174 1658.17,-130.673 1603.63,-100.213 1567.54,-83.6359"/>
<polygon fill="midnightblue" stroke="midnightblue" points="1568.9,-80.408 1558.34,-79.5252 1566.04,-86.7994 1568.9,-80.408"/>
</g>
<!-- Node54&#45;&gt;Node15 -->
<g id="edge256" class="edge"><title>Node54&#45;&gt;Node15</title>
<path fill="none" stroke="midnightblue" d="M1661.7,-304.376C1619.87,-288.435 1536.42,-258.832 1462.65,-246 1380.79,-231.758 785.014,-255.764 715.654,-210 678.444,-185.449 651.225,-149.486 680.654,-116 719.93,-71.3107 882.505,-92.3708 957.496,-79.5505"/>
<polygon fill="midnightblue" stroke="midnightblue" points="958.38,-82.9421 967.474,-77.5062 956.975,-76.0845 958.38,-82.9421"/>
</g>
<!-- Node54&#45;&gt;Node18 -->
<g id="edge262" class="edge"><title>Node54&#45;&gt;Node18</title>
<path fill="none" stroke="midnightblue" d="M1675.24,-304.251C1654.47,-288.288 1612.61,-258.822 1571.65,-246 1468.3,-213.646 1183.1,-257.241 1085.65,-210 1066.12,-200.532 1070.5,-186.352 1052.65,-174 1027.93,-156.886 996.047,-144.605 971.811,-136.899"/>
<polygon fill="midnightblue" stroke="midnightblue" points="972.522,-133.456 961.935,-133.875 970.472,-140.149 972.522,-133.456"/>
</g>
<!-- Node54&#45;&gt;Node26 -->
<g id="edge260" class="edge"><title>Node54&#45;&gt;Node26</title>
<path fill="none" stroke="midnightblue" d="M1690.38,-304.141C1693.88,-278.02 1698.79,-211.093 1664.65,-174 1623.36,-129.124 1589.68,-153.91 1529.82,-139.234"/>
<polygon fill="midnightblue" stroke="midnightblue" points="1530.55,-135.805 1519.98,-136.523 1528.69,-142.554 1530.55,-135.805"/>
</g>
<!-- Node54&#45;&gt;Node31 -->
<g id="edge258" class="edge"><title>Node54&#45;&gt;Node31</title>
<path fill="none" stroke="midnightblue" d="M1726.28,-307.413C1821.82,-287.997 2071.94,-236.199 2152.65,-210 2155.82,-208.971 2159.08,-207.796 2162.32,-206.549"/>
<polygon fill="midnightblue" stroke="midnightblue" points="2163.9,-209.686 2171.84,-202.672 2161.25,-203.203 2163.9,-209.686"/>
</g>
<!-- Node54&#45;&gt;Node33 -->
<g id="edge254" class="edge"><title>Node54&#45;&gt;Node33</title>
<path fill="none" stroke="midnightblue" d="M1726.17,-311.654C1751.68,-309.409 1786.19,-306.43 1816.65,-304 1870.96,-299.668 2264.41,-303.599 2305.65,-268 2321.19,-254.593 2324.28,-230.373 2324.22,-212.873"/>
<polygon fill="midnightblue" stroke="midnightblue" points="2327.7,-212.383 2323.83,-202.523 2320.71,-212.649 2327.7,-212.383"/>
</g>
<!-- Node54&#45;&gt;Node51 -->
<g id="edge252" class="edge"><title>Node54&#45;&gt;Node51</title>
<path fill="none" stroke="midnightblue" d="M1719.08,-304.497C1746.35,-295.082 1786.55,-281.204 1816.46,-270.877"/>
<polygon fill="midnightblue" stroke="midnightblue" points="1817.86,-274.095 1826.17,-267.523 1815.58,-267.478 1817.86,-274.095"/>
</g>
<!-- Node55&#45;&gt;Node6 -->
<g id="edge270" class="edge"><title>Node55&#45;&gt;Node6</title>
<path fill="none" stroke="midnightblue" d="M1201.94,-372.665C1379.59,-370.702 2239.5,-359.59 2502.65,-326 2620.53,-310.954 2648.44,-297.076 2763.65,-268 2894.74,-234.921 2987.8,-263.261 3038.65,-138 3042.33,-128.94 3045.32,-123.155 3038.65,-116 3017.42,-93.2013 2559.32,-75.3711 2417.88,-70.3933"/>
<polygon fill="midnightblue" stroke="midnightblue" points="2417.98,-66.8949 2407.86,-70.0438 2417.74,-73.8906 2417.98,-66.8949"/>
</g>
<!-- Node55&#45;&gt;Node9 -->
<g id="edge272" class="edge"><title>Node55&#45;&gt;Node9</title>
<path fill="none" stroke="midnightblue" d="M1137.45,-370.976C958.094,-359.384 87.8939,-298.796 12.6545,-210 -35.7736,-152.846 76.7371,-121.046 90.6545,-116 166.644,-88.4505 742.207,-73.2673 890.757,-69.7814"/>
<polygon fill="midnightblue" stroke="midnightblue" points="891.177,-73.2727 901.093,-69.5416 891.014,-66.2745 891.177,-73.2727"/>
</g>
<!-- Node55&#45;&gt;Node15 -->
<g id="edge306" class="edge"><title>Node55&#45;&gt;Node15</title>
<path fill="none" stroke="midnightblue" d="M1137.58,-367.09C1037.68,-348.012 735.242,-284.927 674.654,-210 648.266,-177.366 637.846,-147.434 665.654,-116 707.253,-68.9774 879.111,-92.7787 957.504,-79.541"/>
<polygon fill="midnightblue" stroke="midnightblue" points="958.37,-82.9369 967.478,-77.5242 956.983,-76.0757 958.37,-82.9369"/>
</g>
<!-- Node55&#45;&gt;Node18 -->
<g id="edge312" class="edge"><title>Node55&#45;&gt;Node18</title>
<path fill="none" stroke="midnightblue" d="M1137.35,-363.464C1080.52,-344.729 964.183,-297.159 916.654,-210 905.727,-189.961 914.893,-163.9 923.89,-146.372"/>
<polygon fill="midnightblue" stroke="midnightblue" points="926.962,-148.049 928.741,-137.604 920.837,-144.659 926.962,-148.049"/>
</g>
<!-- Node55&#45;&gt;Node19 -->
<g id="edge308" class="edge"><title>Node55&#45;&gt;Node19</title>
<path fill="none" stroke="midnightblue" d="M1177.69,-362.174C1184.36,-352.884 1193.83,-338.978 1200.65,-326 1226.54,-276.763 1237.01,-264.599 1247.65,-210 1250.72,-194.295 1253.18,-189.016 1247.65,-174 1243.66,-163.14 1235.92,-153.078 1228.3,-145.074"/>
<polygon fill="midnightblue" stroke="midnightblue" points="1230.46,-142.293 1220.86,-137.802 1225.57,-147.297 1230.46,-142.293"/>
</g>
<!-- Node55&#45;&gt;Node48 -->
<g id="edge304" class="edge"><title>Node55&#45;&gt;Node48</title>
<path fill="none" stroke="midnightblue" d="M1201.72,-370.395C1310.08,-361.593 1664.23,-332.825 1814.86,-320.589"/>
<polygon fill="midnightblue" stroke="midnightblue" points="1815.23,-324.07 1824.91,-319.772 1814.66,-317.093 1815.23,-324.07"/>
</g>
<!-- Node55&#45;&gt;Node54 -->
<g id="edge268" class="edge"><title>Node55&#45;&gt;Node54</title>
<path fill="none" stroke="midnightblue" d="M1201.73,-369.416C1289.95,-359.556 1536.62,-331.99 1641.02,-320.324"/>
<polygon fill="midnightblue" stroke="midnightblue" points="1641.41,-323.801 1650.96,-319.212 1640.64,-316.845 1641.41,-323.801"/>
</g>
<!-- Node56 -->
<g id="node193" class="node"><title>Node56</title>
<a xlink:href="_particle_type_8h.html" target="_top" xlink:title="base/ParticleType.h">
<polygon fill="white" stroke="black" points="39.6545,-181.5 39.6545,-202.5 143.654,-202.5 143.654,-181.5 39.6545,-181.5"/>
<text text-anchor="middle" x="91.6545" y="-189.5" font-family="Helvetica,sans-Serif" font-size="10.00">base/ParticleType.h</text>
</a>
</g>
<!-- Node55&#45;&gt;Node56 -->
<g id="edge274" class="edge"><title>Node55&#45;&gt;Node56</title>
<path fill="none" stroke="midnightblue" d="M1137.41,-368.669C1079.1,-360.759 952.269,-343.202 845.654,-326 588.147,-284.452 282.499,-227.887 153.731,-203.722"/>
<polygon fill="midnightblue" stroke="midnightblue" points="154.137,-200.238 143.663,-201.832 152.845,-207.117 154.137,-200.238"/>
</g>
<!-- Node59 -->
<g id="node204" class="node"><title>Node59</title>
<a xlink:href="_tree_8h.html" target="_top" xlink:title="base/Tree.h">
<polygon fill="white" stroke="black" points="1137.65,-181.5 1137.65,-202.5 1205.65,-202.5 1205.65,-181.5 1137.65,-181.5"/>
<text text-anchor="middle" x="1171.65" y="-189.5" font-family="Helvetica,sans-Serif" font-size="10.00">base/Tree.h</text>
</a>
</g>
<!-- Node55&#45;&gt;Node59 -->
<g id="edge290" class="edge"><title>Node55&#45;&gt;Node59</title>
<path fill="none" stroke="midnightblue" d="M1156.12,-362.267C1146.42,-353.646 1134.13,-340.6 1128.65,-326 1113.46,-285.48 1139.88,-236.886 1157.6,-210.786"/>
<polygon fill="midnightblue" stroke="midnightblue" points="1160.51,-212.73 1163.42,-202.543 1154.79,-208.692 1160.51,-212.73"/>
</g>
<!-- Node61 -->
<g id="node216" class="node"><title>Node61</title>
<polygon fill="white" stroke="#bfbfbf" points="1137.65,-304.5 1137.65,-325.5 1191.65,-325.5 1191.65,-304.5 1137.65,-304.5"/>
<text text-anchor="middle" x="1164.65" y="-312.5" font-family="Helvetica,sans-Serif" font-size="10.00">iostream</text>
</g>
<!-- Node55&#45;&gt;Node61 -->
<g id="edge310" class="edge"><title>Node55&#45;&gt;Node61</title>
<path fill="none" stroke="midnightblue" d="M1168.74,-362.362C1168.1,-354.922 1167.22,-344.743 1166.44,-335.728"/>
<polygon fill="midnightblue" stroke="midnightblue" points="1169.91,-335.233 1165.57,-325.571 1162.94,-335.834 1169.91,-335.233"/>
</g>
<!-- Node56&#45;&gt;Node5 -->
<g id="edge278" class="edge"><title>Node56&#45;&gt;Node5</title>
<path fill="none" stroke="midnightblue" d="M144.024,-185.591C178.751,-181.593 225.359,-176.709 266.654,-174 826.568,-137.269 967.927,-158.9 1528.65,-138 1593.81,-135.571 1668.93,-131.985 1717.29,-129.574"/>
<polygon fill="midnightblue" stroke="midnightblue" points="1717.68,-133.059 1727.49,-129.063 1717.33,-126.068 1717.68,-133.059"/>
</g>
<!-- Node56&#45;&gt;Node8 -->
<g id="edge282" class="edge"><title>Node56&#45;&gt;Node8</title>
<path fill="none" stroke="midnightblue" d="M87.5115,-181.359C81.9414,-165.063 74.4808,-133.931 90.6545,-116 157.692,-41.677 896.723,-16.7805 1070.31,-11.9374"/>
<polygon fill="midnightblue" stroke="midnightblue" points="1070.56,-15.432 1080.46,-11.6593 1070.37,-8.43461 1070.56,-15.432"/>
</g>
<!-- Node56&#45;&gt;Node9 -->
<g id="edge276" class="edge"><title>Node56&#45;&gt;Node9</title>
<path fill="none" stroke="midnightblue" d="M90.1467,-181.476C88.4147,-164.755 87.8939,-132.343 106.654,-116 136.641,-89.8778 737.923,-73.5565 890.629,-69.8221"/>
<polygon fill="midnightblue" stroke="midnightblue" points="890.922,-73.3161 900.835,-69.575 890.753,-66.3182 890.922,-73.3161"/>
</g>
<!-- Node56&#45;&gt;Node15 -->
<g id="edge288" class="edge"><title>Node56&#45;&gt;Node15</title>
<path fill="none" stroke="midnightblue" d="M106.951,-181.421C136.048,-161.392 197.474,-119.606 208.654,-116 364.51,-65.7281 779.17,-110.518 957.656,-79.5673"/>
<polygon fill="midnightblue" stroke="midnightblue" points="958.333,-83.0016 967.523,-77.7296 957.051,-76.12 958.333,-83.0016"/>
</g>
<!-- Node56&#45;&gt;Node16 -->
<g id="edge280" class="edge"><title>Node56&#45;&gt;Node16</title>
<path fill="none" stroke="midnightblue" d="M141.806,-181.484C206.709,-167.876 317.784,-144.586 371.203,-133.385"/>
<polygon fill="midnightblue" stroke="midnightblue" points="372.019,-136.79 381.088,-131.312 370.582,-129.939 372.019,-136.79"/>
</g>
<!-- Node56&#45;&gt;Node57 -->
<g id="edge284" class="edge"><title>Node56&#45;&gt;Node57</title>
<path fill="none" stroke="midnightblue" d="M114.948,-181.412C140.323,-169.878 180.861,-151.452 207.619,-139.289"/>
<polygon fill="midnightblue" stroke="midnightblue" points="209.146,-142.44 216.801,-135.115 206.249,-136.067 209.146,-142.44"/>
</g>
<!-- Node58 -->
<g id="node201" class="node"><title>Node58</title>
<polygon fill="white" stroke="#bfbfbf" points="115.154,-116.5 115.154,-137.5 162.154,-137.5 162.154,-116.5 115.154,-116.5"/>
<text text-anchor="middle" x="138.654" y="-124.5" font-family="Helvetica,sans-Serif" font-size="10.00">iterator</text>
</g>
<!-- Node56&#45;&gt;Node58 -->
<g id="edge286" class="edge"><title>Node56&#45;&gt;Node58</title>
<path fill="none" stroke="midnightblue" d="M99.4156,-181.267C106.397,-171.612 116.807,-157.215 125.151,-145.675"/>
<polygon fill="midnightblue" stroke="midnightblue" points="128.015,-147.688 131.038,-137.534 122.342,-143.586 128.015,-147.688"/>
</g>
<!-- Node59&#45;&gt;Node10 -->
<g id="edge300" class="edge"><title>Node59&#45;&gt;Node10</title>
<path fill="none" stroke="midnightblue" d="M1169.96,-181.407C1167.97,-164.887 1166.94,-133.111 1184.65,-116 1206.61,-94.7914 1407.75,-77.9285 1493.37,-71.6494"/>
<polygon fill="midnightblue" stroke="midnightblue" points="1493.73,-75.1321 1503.45,-70.9194 1493.23,-68.1504 1493.73,-75.1321"/>
</g>
<!-- Node59&#45;&gt;Node15 -->
<g id="edge298" class="edge"><title>Node59&#45;&gt;Node15</title>
<path fill="none" stroke="midnightblue" d="M1144.33,-181.457C1137.6,-178.94 1130.39,-176.314 1123.65,-174 1073.01,-156.591 1045.86,-176.521 1008.65,-138 996.221,-125.127 991.764,-104.897 990.244,-89.6629"/>
<polygon fill="midnightblue" stroke="midnightblue" points="993.733,-89.3789 989.584,-79.6303 986.748,-89.8385 993.733,-89.3789"/>
</g>
<!-- Node59&#45;&gt;Node18 -->
<g id="edge294" class="edge"><title>Node59&#45;&gt;Node18</title>
<path fill="none" stroke="midnightblue" d="M1145.19,-181.428C1138.24,-178.83 1130.71,-176.174 1123.65,-174 1058.96,-154.079 1041.19,-154.977 975.654,-138 974.4,-137.675 973.123,-137.341 971.835,-137.001"/>
<polygon fill="midnightblue" stroke="midnightblue" points="972.44,-133.54 961.875,-134.331 970.627,-140.301 972.44,-133.54"/>
</g>
<!-- Node59&#45;&gt;Node19 -->
<g id="edge296" class="edge"><title>Node59&#45;&gt;Node19</title>
<path fill="none" stroke="midnightblue" d="M1177.6,-181.267C1182.84,-171.801 1190.61,-157.777 1196.93,-146.357"/>
<polygon fill="midnightblue" stroke="midnightblue" points="1200.04,-147.977 1201.82,-137.534 1193.91,-144.586 1200.04,-147.977"/>
</g>
<!-- Node59&#45;&gt;Node42 -->
<g id="edge302" class="edge"><title>Node59&#45;&gt;Node42</title>
<path fill="none" stroke="midnightblue" d="M1205.66,-185.98C1229.4,-181.993 1261.87,-176.968 1290.65,-174 1575.09,-144.678 1654.59,-191.116 1938.78,-137.945"/>
<polygon fill="midnightblue" stroke="midnightblue" points="1939.8,-141.313 1948.98,-136.011 1938.5,-134.436 1939.8,-141.313"/>
</g>
<!-- Node60 -->
<g id="node206" class="node"><title>Node60</title>
<polygon fill="white" stroke="#bfbfbf" points="1017.65,-116.5 1017.65,-137.5 1137.65,-137.5 1137.65,-116.5 1017.65,-116.5"/>
<text text-anchor="middle" x="1077.65" y="-124.5" font-family="Helvetica,sans-Serif" font-size="10.00">base/cereal/access.hpp</text>
</g>
<!-- Node59&#45;&gt;Node60 -->
<g id="edge292" class="edge"><title>Node59&#45;&gt;Node60</title>
<path fill="none" stroke="midnightblue" d="M1156.13,-181.267C1141.21,-170.949 1118.46,-155.216 1101.29,-143.342"/>
<polygon fill="midnightblue" stroke="midnightblue" points="1103.1,-140.343 1092.89,-137.534 1099.12,-146.1 1103.1,-140.343"/>
</g>
<!-- Node62&#45;&gt;Node16 -->
<g id="edge316" class="edge"><title>Node62&#45;&gt;Node16</title>
<path fill="none" stroke="midnightblue" d="M337.369,-181.267C349.367,-171.139 367.548,-155.792 381.517,-144"/>
<polygon fill="midnightblue" stroke="midnightblue" points="383.792,-146.659 389.176,-137.534 379.277,-141.31 383.792,-146.659"/>
</g>
<!-- Node62&#45;&gt;Node18 -->
<g id="edge318" class="edge"><title>Node62&#45;&gt;Node18</title>
<path fill="none" stroke="midnightblue" d="M373.923,-184.958C399.224,-181.45 430.559,-177.27 458.654,-174 622.993,-154.872 819.785,-137.106 899.493,-130.124"/>
<polygon fill="midnightblue" stroke="midnightblue" points="899.85,-133.606 909.508,-129.249 899.241,-126.633 899.85,-133.606"/>
</g>
<!-- Node62&#45;&gt;Node26 -->
<g id="edge324" class="edge"><title>Node62&#45;&gt;Node26</title>
<path fill="none" stroke="midnightblue" d="M373.859,-184.334C399.143,-180.663 430.483,-176.527 458.654,-174 509.349,-169.453 1279.71,-136.196 1457.32,-128.56"/>
<polygon fill="midnightblue" stroke="midnightblue" points="1457.61,-132.051 1467.45,-128.124 1457.31,-125.057 1457.61,-132.051"/>
</g>
<!-- Node62&#45;&gt;Node57 -->
<g id="edge320" class="edge"><title>Node62&#45;&gt;Node57</title>
<path fill="none" stroke="midnightblue" d="M309.793,-181.267C295.639,-171.044 274.122,-155.504 257.736,-143.67"/>
<polygon fill="midnightblue" stroke="midnightblue" points="259.396,-140.551 249.24,-137.534 255.297,-146.226 259.396,-140.551"/>
</g>
<!-- Node63 -->
<g id="node224" class="node"><title>Node63</title>
<polygon fill="white" stroke="#bfbfbf" points="309.654,-116.5 309.654,-137.5 339.654,-137.5 339.654,-116.5 309.654,-116.5"/>
<text text-anchor="middle" x="324.654" y="-124.5" font-family="Helvetica,sans-Serif" font-size="10.00">set</text>
</g>
<!-- Node62&#45;&gt;Node63 -->
<g id="edge322" class="edge"><title>Node62&#45;&gt;Node63</title>
<path fill="none" stroke="midnightblue" d="M324.654,-181.267C324.654,-172.18 324.654,-158.892 324.654,-147.74"/>
<polygon fill="midnightblue" stroke="midnightblue" points="328.155,-147.534 324.654,-137.534 321.155,-147.534 328.155,-147.534"/>
</g>
<!-- Node64&#45;&gt;Node15 -->
<g id="edge332" class="edge"><title>Node64&#45;&gt;Node15</title>
<path fill="none" stroke="midnightblue" d="M510.933,-174.958C510.199,-157.382 512.181,-130.549 528.654,-116 598.283,-54.5096 848.58,-97.3293 957.422,-79.5467"/>
<polygon fill="midnightblue" stroke="midnightblue" points="958.331,-82.9365 967.502,-77.6311 957.025,-76.0596 958.331,-82.9365"/>
</g>
<!-- Node64&#45;&gt;Node16 -->
<g id="edge328" class="edge"><title>Node64&#45;&gt;Node16</title>
<path fill="none" stroke="midnightblue" d="M483.491,-174.922C466.473,-164.957 445.154,-152.473 428.543,-142.745"/>
<polygon fill="midnightblue" stroke="midnightblue" points="430.254,-139.691 419.856,-137.658 426.716,-145.732 430.254,-139.691"/>
</g>
<!-- Node64&#45;&gt;Node18 -->
<g id="edge334" class="edge"><title>Node64&#45;&gt;Node18</title>
<path fill="none" stroke="midnightblue" d="M558.194,-177.281C562.715,-176.069 567.258,-174.948 571.654,-174 689.958,-148.505 833.074,-134.97 899.07,-129.681"/>
<polygon fill="midnightblue" stroke="midnightblue" points="899.662,-133.146 909.357,-128.874 899.114,-126.167 899.662,-133.146"/>
</g>
<!-- Node64&#45;&gt;Node19 -->
<g id="edge330" class="edge"><title>Node64&#45;&gt;Node19</title>
<path fill="none" stroke="midnightblue" d="M558.245,-188.674C683.735,-179.432 1032.49,-153.122 1146.65,-138 1158.62,-136.415 1171.81,-134.108 1182.85,-132.015"/>
<polygon fill="midnightblue" stroke="midnightblue" points="1183.53,-135.45 1192.67,-130.105 1182.19,-128.578 1183.53,-135.45"/>
</g>
<!-- Node64&#45;&gt;Node21 -->
<g id="edge338" class="edge"><title>Node64&#45;&gt;Node21</title>
<path fill="none" stroke="midnightblue" d="M558.405,-177.494C594.922,-165.915 645.471,-149.887 679.751,-139.018"/>
<polygon fill="midnightblue" stroke="midnightblue" points="680.923,-142.318 689.397,-135.96 678.807,-135.646 680.923,-142.318"/>
</g>
<!-- Node64&#45;&gt;Node53 -->
<g id="edge336" class="edge"><title>Node64&#45;&gt;Node53</title>
<path fill="none" stroke="midnightblue" d="M526.842,-174.922C534.307,-165.937 543.472,-154.905 551.126,-145.691"/>
<polygon fill="midnightblue" stroke="midnightblue" points="553.941,-147.781 557.639,-137.852 548.556,-143.307 553.941,-147.781"/>
</g>
<!-- Node68&#45;&gt;Node47 -->
<g id="edge358" class="edge"><title>Node68&#45;&gt;Node47</title>
<path fill="none" stroke="midnightblue" d="M1727.66,-420.497C1770.55,-410.26 1835.54,-394.747 1879.48,-384.26"/>
<polygon fill="midnightblue" stroke="midnightblue" points="1880.43,-387.631 1889.34,-381.905 1878.81,-380.823 1880.43,-387.631"/>
</g>
<!-- Node68&#45;&gt;Node54 -->
<g id="edge360" class="edge"><title>Node68&#45;&gt;Node54</title>
<path fill="none" stroke="midnightblue" d="M1684.12,-420.295C1684.94,-401.131 1686.69,-360.654 1687.76,-335.843"/>
<polygon fill="midnightblue" stroke="midnightblue" points="1691.26,-335.821 1688.19,-325.679 1684.27,-335.519 1691.26,-335.821"/>
</g>
</g>
</svg>
