<?xml version="1.0" encoding="UTF-8" standalone="no"?>
<!DOCTYPE svg PUBLIC "-//W3C//DTD SVG 1.1//EN"
 "http://www.w3.org/Graphics/SVG/1.1/DTD/svg11.dtd">
<!-- Generated by graphviz version 2.26.3 (20100126.1600)
 -->
<!-- Title: src/analysis/utils/MCFakeReconstructed.h Pages: 1 -->
<svg width="608pt" height="128pt"
 viewBox="0.00 0.00 608.00 128.00" xmlns="http://www.w3.org/2000/svg" xmlns:xlink="http://www.w3.org/1999/xlink">
<g id="graph1" class="graph" transform="scale(1 1) rotate(0) translate(4 124)">
<title>src/analysis/utils/MCFakeReconstructed.h</title>
<polygon fill="white" stroke="white" points="-4,5 -4,-124 605,-124 605,5 -4,5"/>
<!-- Node1 -->
<g id="node1" class="node"><title>Node1</title>
<polygon fill="#bfbfbf" stroke="black" points="227.5,-85 227.5,-119 356.5,-119 356.5,-85 227.5,-85"/>
<text text-anchor="start" x="235.5" y="-106" font-family="Helvetica,sans-Serif" font-size="10.00">src/analysis/utils</text>
<text text-anchor="middle" x="292" y="-93" font-family="Helvetica,sans-Serif" font-size="10.00">/MCFakeReconstructed.h</text>
</g>
<!-- Node2 -->
<g id="node3" class="node"><title>Node2</title>
<a xlink:href="etaprime__omega__gamma_8cc.html" target="_top" xlink:title="src/analysis/physics\l/etaprime/etaprime_omega\l_gamma.cc">
<polygon fill="white" stroke="black" points="0,-0.5 0,-47.5 132,-47.5 132,-0.5 0,-0.5"/>
<text text-anchor="start" x="8" y="-34.5" font-family="Helvetica,sans-Serif" font-size="10.00">src/analysis/physics</text>
<text text-anchor="start" x="8" y="-21.5" font-family="Helvetica,sans-Serif" font-size="10.00">/etaprime/etaprime_omega</text>
<text text-anchor="middle" x="66" y="-8.5" font-family="Helvetica,sans-Serif" font-size="10.00">_gamma.cc</text>
</a>
</g>
<!-- Node1&#45;&gt;Node2 -->
<g id="edge2" class="edge"><title>Node1&#45;&gt;Node2</title>
<path fill="none" stroke="midnightblue" d="M232.929,-81.6126C202.079,-70.9652 164.222,-57.8998 132.364,-46.9045"/>
<polygon fill="midnightblue" stroke="midnightblue" points="232.088,-85.0249 242.683,-84.979 234.372,-78.4079 232.088,-85.0249"/>
</g>
<!-- Node3 -->
<g id="node5" class="node"><title>Node3</title>
<a xlink:href="_m_c_fake_reconstructed_8cc.html" target="_top" xlink:title="src/analysis/utils\l/MCFakeReconstructed.cc">
<polygon fill="white" stroke="black" points="150,-7 150,-41 284,-41 284,-7 150,-7"/>
<text text-anchor="start" x="158" y="-28" font-family="Helvetica,sans-Serif" font-size="10.00">src/analysis/utils</text>
<text text-anchor="middle" x="217" y="-15" font-family="Helvetica,sans-Serif" font-size="10.00">/MCFakeReconstructed.cc</text>
</a>
</g>
<!-- Node1&#45;&gt;Node3 -->
<g id="edge4" class="edge"><title>Node1&#45;&gt;Node3</title>
<path fill="none" stroke="midnightblue" d="M268.273,-77.3241C256.994,-65.594 243.785,-51.8561 233.598,-41.2623"/>
<polygon fill="midnightblue" stroke="midnightblue" points="265.901,-79.9068 275.355,-84.6893 270.947,-75.055 265.901,-79.9068"/>
</g>
<!-- Node4 -->
<g id="node7" class="node"><title>Node4</title>
<a xlink:href="_test_fitter_8cc.html" target="_top" xlink:title="test/analysis/TestFitter.cc">
<polygon fill="white" stroke="black" points="301.5,-13.5 301.5,-34.5 432.5,-34.5 432.5,-13.5 301.5,-13.5"/>
<text text-anchor="middle" x="367" y="-21.5" font-family="Helvetica,sans-Serif" font-size="10.00">test/analysis/TestFitter.cc</text>
</a>
</g>
<!-- Node1&#45;&gt;Node4 -->
<g id="edge6" class="edge"><title>Node1&#45;&gt;Node4</title>
<path fill="none" stroke="midnightblue" d="M315.924,-77.1191C329.647,-62.8472 346.174,-45.6591 356.636,-34.779"/>
<polygon fill="midnightblue" stroke="midnightblue" points="313.053,-75.055 308.645,-84.6893 318.099,-79.9068 313.053,-75.055"/>
</g>
<!-- Node5 -->
<g id="node9" class="node"><title>Node5</title>
<a xlink:href="_test_tree_fitter_8cc.html" target="_top" xlink:title="test/analysis/TestTreeFitter.cc">
<polygon fill="white" stroke="black" points="450,-13.5 450,-34.5 600,-34.5 600,-13.5 450,-13.5"/>
<text text-anchor="middle" x="525" y="-21.5" font-family="Helvetica,sans-Serif" font-size="10.00">test/analysis/TestTreeFitter.cc</text>
</a>
</g>
<!-- Node1&#45;&gt;Node5 -->
<g id="edge8" class="edge"><title>Node1&#45;&gt;Node5</title>
<path fill="none" stroke="midnightblue" d="M352.532,-81.7361C397.688,-66.6196 457.558,-46.5772 493.575,-34.5199"/>
<polygon fill="midnightblue" stroke="midnightblue" points="351.217,-78.4854 342.845,-84.979 353.439,-85.1234 351.217,-78.4854"/>
</g>
</g>
</svg>
