<?xml version="1.0" encoding="UTF-8" standalone="no"?>
<!DOCTYPE svg PUBLIC "-//W3C//DTD SVG 1.1//EN"
 "http://www.w3.org/Graphics/SVG/1.1/DTD/svg11.dtd">
<!-- Generated by graphviz version 2.26.3 (20100126.1600)
 -->
<!-- Title: src/analysis/utils/uncertainties/MCSmearingAdlarson.h Pages: 1 -->
<svg width="344pt" height="128pt"
 viewBox="0.00 0.00 344.00 128.00" xmlns="http://www.w3.org/2000/svg" xmlns:xlink="http://www.w3.org/1999/xlink">
<g id="graph1" class="graph" transform="scale(1 1) rotate(0) translate(4 124)">
<title>src/analysis/utils/uncertainties/MCSmearingAdlarson.h</title>
<polygon fill="white" stroke="white" points="-4,5 -4,-124 341,-124 341,5 -4,5"/>
<!-- Node1 -->
<g id="node1" class="node"><title>Node1</title>
<polygon fill="#bfbfbf" stroke="black" points="63,-85 63,-119 245,-119 245,-85 63,-85"/>
<text text-anchor="start" x="71" y="-106" font-family="Helvetica,sans-Serif" font-size="10.00">src/analysis/utils</text>
<text text-anchor="middle" x="154" y="-93" font-family="Helvetica,sans-Serif" font-size="10.00">/uncertainties/MCSmearingAdlarson.h</text>
</g>
<!-- Node2 -->
<g id="node3" class="node"><title>Node2</title>
<a xlink:href="etaprime__omega__gamma_8cc.html" target="_top" xlink:title="src/analysis/physics\l/etaprime/etaprime_omega\l_gamma.cc">
<polygon fill="white" stroke="black" points="0,-0.5 0,-47.5 132,-47.5 132,-0.5 0,-0.5"/>
<text text-anchor="start" x="8" y="-34.5" font-family="Helvetica,sans-Serif" font-size="10.00">src/analysis/physics</text>
<text text-anchor="start" x="8" y="-21.5" font-family="Helvetica,sans-Serif" font-size="10.00">/etaprime/etaprime_omega</text>
<text text-anchor="middle" x="66" y="-8.5" font-family="Helvetica,sans-Serif" font-size="10.00">_gamma.cc</text>
</a>
</g>
<!-- Node1&#45;&gt;Node2 -->
<g id="edge2" class="edge"><title>Node1&#45;&gt;Node2</title>
<path fill="none" stroke="midnightblue" d="M126.912,-77.9898C116.076,-68.3854 103.626,-57.3504 92.8174,-47.77"/>
<polygon fill="midnightblue" stroke="midnightblue" points="124.665,-80.6754 134.47,-84.6893 129.308,-75.4369 124.665,-80.6754"/>
</g>
<!-- Node3 -->
<g id="node5" class="node"><title>Node3</title>
<a xlink:href="_m_c_smearing_adlarson_8cc.html" target="_top" xlink:title="src/analysis/utils\l/uncertainties/MCSmearingAdlarson.cc">
<polygon fill="white" stroke="black" points="149.5,-7 149.5,-41 336.5,-41 336.5,-7 149.5,-7"/>
<text text-anchor="start" x="157.5" y="-28" font-family="Helvetica,sans-Serif" font-size="10.00">src/analysis/utils</text>
<text text-anchor="middle" x="243" y="-15" font-family="Helvetica,sans-Serif" font-size="10.00">/uncertainties/MCSmearingAdlarson.cc</text>
</a>
</g>
<!-- Node1&#45;&gt;Node3 -->
<g id="edge4" class="edge"><title>Node1&#45;&gt;Node3</title>
<path fill="none" stroke="midnightblue" d="M181.394,-77.9921C194.942,-66.1185 210.985,-52.0579 223.303,-41.2623"/>
<polygon fill="midnightblue" stroke="midnightblue" points="178.966,-75.466 173.752,-84.6893 183.579,-80.7304 178.966,-75.466"/>
</g>
</g>
</svg>
