<?xml version="1.0" encoding="UTF-8" standalone="no"?>
<!DOCTYPE svg PUBLIC "-//W3C//DTD SVG 1.1//EN"
 "http://www.w3.org/Graphics/SVG/1.1/DTD/svg11.dtd">
<!-- Generated by graphviz version 2.26.3 (20100126.1600)
 -->
<!-- Title: src/analysis/utils/uncertainties/MCSmearingAdlarson.cc Pages: 1 -->
<svg width="1614pt" height="580pt"
 viewBox="0.00 0.00 1614.33 580.00" xmlns="http://www.w3.org/2000/svg" xmlns:xlink="http://www.w3.org/1999/xlink">
<g id="graph1" class="graph" transform="scale(1 1) rotate(0) translate(4 576)">
<title>src/analysis/utils/uncertainties/MCSmearingAdlarson.cc</title>
<polygon fill="white" stroke="white" points="-4,5 -4,-576 1611.33,-576 1611.33,5 -4,5"/>
<!-- Node1 -->
<g id="node1" class="node"><title>Node1</title>
<polygon fill="#bfbfbf" stroke="black" points="281.355,-537 281.355,-571 468.355,-571 468.355,-537 281.355,-537"/>
<text text-anchor="start" x="289.355" y="-558" font-family="Helvetica,sans-Serif" font-size="10.00">src/analysis/utils</text>
<text text-anchor="middle" x="374.855" y="-545" font-family="Helvetica,sans-Serif" font-size="10.00">/uncertainties/MCSmearingAdlarson.cc</text>
</g>
<!-- Node2 -->
<g id="node3" class="node"><title>Node2</title>
<a xlink:href="_m_c_smearing_adlarson_8h.html" target="_top" xlink:title="MCSmearingAdlarson.h">
<polygon fill="white" stroke="black" points="257.855,-478.5 257.855,-499.5 377.855,-499.5 377.855,-478.5 257.855,-478.5"/>
<text text-anchor="middle" x="317.855" y="-486.5" font-family="Helvetica,sans-Serif" font-size="10.00">MCSmearingAdlarson.h</text>
</a>
</g>
<!-- Node1&#45;&gt;Node2 -->
<g id="edge2" class="edge"><title>Node1&#45;&gt;Node2</title>
<path fill="none" stroke="midnightblue" d="M359.879,-536.922C351.92,-527.845 342.128,-516.679 333.999,-507.41"/>
<polygon fill="midnightblue" stroke="midnightblue" points="336.597,-505.063 327.372,-499.852 331.334,-509.678 336.597,-505.063"/>
</g>
<!-- Node38 -->
<g id="node112" class="node"><title>Node38</title>
<a xlink:href="memory_8h.html" target="_top" xlink:title="base/std_ext/memory.h">
<polygon fill="white" stroke="black" points="245.355,-181.5 245.355,-202.5 364.355,-202.5 364.355,-181.5 245.355,-181.5"/>
<text text-anchor="middle" x="304.855" y="-189.5" font-family="Helvetica,sans-Serif" font-size="10.00">base/std_ext/memory.h</text>
</a>
</g>
<!-- Node1&#45;&gt;Node38 -->
<g id="edge148" class="edge"><title>Node1&#45;&gt;Node38</title>
<path fill="none" stroke="midnightblue" d="M281.345,-538.895C221.821,-523.334 155.855,-492.268 155.855,-431 155.855,-431 155.855,-431 155.855,-373 155.855,-297.003 235.121,-235.577 278.024,-207.896"/>
<polygon fill="midnightblue" stroke="midnightblue" points="279.986,-210.797 286.585,-202.508 276.257,-204.872 279.986,-210.797"/>
</g>
<!-- Node39 -->
<g id="node116" class="node"><title>Node39</title>
<polygon fill="white" stroke="#bfbfbf" points="395.355,-478.5 395.355,-499.5 468.355,-499.5 468.355,-478.5 395.355,-478.5"/>
<text text-anchor="middle" x="431.855" y="-486.5" font-family="Helvetica,sans-Serif" font-size="10.00">TRandom2.h</text>
</g>
<!-- Node1&#45;&gt;Node39 -->
<g id="edge154" class="edge"><title>Node1&#45;&gt;Node39</title>
<path fill="none" stroke="midnightblue" d="M389.832,-536.922C397.791,-527.845 407.583,-516.679 415.712,-507.41"/>
<polygon fill="midnightblue" stroke="midnightblue" points="418.377,-509.678 422.339,-499.852 413.114,-505.063 418.377,-509.678"/>
</g>
<!-- Node40 -->
<g id="node118" class="node"><title>Node40</title>
<polygon fill="white" stroke="#bfbfbf" points="485.355,-478.5 485.355,-499.5 538.355,-499.5 538.355,-478.5 485.355,-478.5"/>
<text text-anchor="middle" x="511.855" y="-486.5" font-family="Helvetica,sans-Serif" font-size="10.00">TMath.h</text>
</g>
<!-- Node1&#45;&gt;Node40 -->
<g id="edge156" class="edge"><title>Node1&#45;&gt;Node40</title>
<path fill="none" stroke="midnightblue" d="M410.851,-536.922C432.341,-526.726 459.387,-513.894 480.083,-504.074"/>
<polygon fill="midnightblue" stroke="midnightblue" points="481.857,-507.107 489.391,-499.658 478.856,-500.783 481.857,-507.107"/>
</g>
<!-- Node3 -->
<g id="node5" class="node"><title>Node3</title>
<a xlink:href="_uncertainties_8h.html" target="_top" xlink:title="analysis/utils/Uncertainties.h">
<polygon fill="white" stroke="black" points="472.355,-420.5 472.355,-441.5 615.355,-441.5 615.355,-420.5 472.355,-420.5"/>
<text text-anchor="middle" x="543.855" y="-428.5" font-family="Helvetica,sans-Serif" font-size="10.00">analysis/utils/Uncertainties.h</text>
</a>
</g>
<!-- Node2&#45;&gt;Node3 -->
<g id="edge4" class="edge"><title>Node2&#45;&gt;Node3</title>
<path fill="none" stroke="midnightblue" d="M358.782,-478.497C396.504,-468.816 452.615,-454.416 493.159,-444.01"/>
<polygon fill="midnightblue" stroke="midnightblue" points="494.036,-447.399 502.852,-441.523 492.296,-440.619 494.036,-447.399"/>
</g>
<!-- Node4 -->
<g id="node7" class="node"><title>Node4</title>
<a xlink:href="_t_particle_8h.html" target="_top" xlink:title="tree/TParticle.h">
<polygon fill="white" stroke="black" points="502.355,-362.5 502.355,-383.5 585.355,-383.5 585.355,-362.5 502.355,-362.5"/>
<text text-anchor="middle" x="543.855" y="-370.5" font-family="Helvetica,sans-Serif" font-size="10.00">tree/TParticle.h</text>
</a>
</g>
<!-- Node3&#45;&gt;Node4 -->
<g id="edge6" class="edge"><title>Node3&#45;&gt;Node4</title>
<path fill="none" stroke="midnightblue" d="M543.855,-420.362C543.855,-412.922 543.855,-402.743 543.855,-393.728"/>
<polygon fill="midnightblue" stroke="midnightblue" points="547.356,-393.571 543.855,-383.571 540.356,-393.571 547.356,-393.571"/>
</g>
<!-- Node7 -->
<g id="node13" class="node"><title>Node7</title>
<a xlink:href="_detector__t_8h.html" target="_top" xlink:title="base/Detector_t.h">
<polygon fill="white" stroke="black" points="1045.36,-181.5 1045.36,-202.5 1140.36,-202.5 1140.36,-181.5 1045.36,-181.5"/>
<text text-anchor="middle" x="1092.86" y="-189.5" font-family="Helvetica,sans-Serif" font-size="10.00">base/Detector_t.h</text>
</a>
</g>
<!-- Node3&#45;&gt;Node7 -->
<g id="edge146" class="edge"><title>Node3&#45;&gt;Node7</title>
<path fill="none" stroke="midnightblue" d="M603.224,-420.42C727.634,-397.078 1009.59,-337.674 1074.86,-268 1088.77,-253.145 1092.56,-229.578 1093.31,-212.625"/>
<polygon fill="midnightblue" stroke="midnightblue" points="1096.81,-212.642 1093.44,-202.598 1089.81,-212.551 1096.81,-212.642"/>
</g>
<!-- Node5 -->
<g id="node9" class="node"><title>Node5</title>
<a xlink:href="_t_candidate_8h.html" target="_top" xlink:title="tree/TCandidate.h">
<polygon fill="white" stroke="black" points="648.355,-304.5 648.355,-325.5 743.355,-325.5 743.355,-304.5 648.355,-304.5"/>
<text text-anchor="middle" x="695.855" y="-312.5" font-family="Helvetica,sans-Serif" font-size="10.00">tree/TCandidate.h</text>
</a>
</g>
<!-- Node4&#45;&gt;Node5 -->
<g id="edge8" class="edge"><title>Node4&#45;&gt;Node5</title>
<path fill="none" stroke="midnightblue" d="M571.382,-362.497C595.84,-353.164 631.794,-339.445 658.779,-329.147"/>
<polygon fill="midnightblue" stroke="midnightblue" points="660.183,-332.358 668.278,-325.523 657.687,-325.818 660.183,-332.358"/>
</g>
<!-- Node8 -->
<g id="node15" class="node"><title>Node8</title>
<a xlink:href="printable_8h.html" target="_top" xlink:title="base/printable.h">
<polygon fill="white" stroke="black" points="1247.86,-58.5 1247.86,-79.5 1333.86,-79.5 1333.86,-58.5 1247.86,-58.5"/>
<text text-anchor="middle" x="1290.86" y="-66.5" font-family="Helvetica,sans-Serif" font-size="10.00">base/printable.h</text>
</a>
</g>
<!-- Node4&#45;&gt;Node8 -->
<g id="edge88" class="edge"><title>Node4&#45;&gt;Node8</title>
<path fill="none" stroke="midnightblue" d="M585.591,-370.662C738.309,-361.561 1257.86,-325.561 1257.86,-257 1257.86,-257 1257.86,-257 1257.86,-192 1257.86,-154.637 1272.24,-113.003 1282.01,-89.0189"/>
<polygon fill="midnightblue" stroke="midnightblue" points="1285.32,-90.1756 1285.99,-79.6016 1278.87,-87.4531 1285.32,-90.1756"/>
</g>
<!-- Node16 -->
<g id="node34" class="node"><title>Node16</title>
<polygon fill="white" stroke="#bfbfbf" points="504.855,-58.5 504.855,-79.5 548.855,-79.5 548.855,-58.5 504.855,-58.5"/>
<text text-anchor="middle" x="526.855" y="-66.5" font-family="Helvetica,sans-Serif" font-size="10.00">vector</text>
</g>
<!-- Node4&#45;&gt;Node16 -->
<g id="edge138" class="edge"><title>Node4&#45;&gt;Node16</title>
<path fill="none" stroke="midnightblue" d="M502.11,-370.261C435.953,-365.283 303.303,-352.696 193.855,-326 105.762,-304.512 1.85547,-347.676 1.85547,-257 1.85547,-257 1.85547,-257 1.85547,-192 1.85547,-157.183 -5.5664,-138.674 20.8555,-116 56.8203,-85.136 388.883,-72.9717 494.654,-69.8597"/>
<polygon fill="midnightblue" stroke="midnightblue" points="494.835,-73.3561 504.73,-69.5707 494.634,-66.3589 494.835,-73.3561"/>
</g>
<!-- Node22 -->
<g id="node51" class="node"><title>Node22</title>
<polygon fill="white" stroke="#bfbfbf" points="376.855,-116.5 376.855,-137.5 428.855,-137.5 428.855,-116.5 376.855,-116.5"/>
<text text-anchor="middle" x="402.855" y="-124.5" font-family="Helvetica,sans-Serif" font-size="10.00">memory</text>
</g>
<!-- Node4&#45;&gt;Node22 -->
<g id="edge144" class="edge"><title>Node4&#45;&gt;Node22</title>
<path fill="none" stroke="midnightblue" d="M528.81,-362.309C505.212,-344.89 459.266,-308.26 430.855,-268 414.671,-245.065 412.024,-237.384 405.855,-210 401.196,-189.313 400.9,-165.003 401.492,-148.06"/>
<polygon fill="midnightblue" stroke="midnightblue" points="405.008,-147.801 402,-137.642 398.017,-147.459 405.008,-147.801"/>
</g>
<!-- Node26 -->
<g id="node71" class="node"><title>Node26</title>
<a xlink:href="types_8h.html" target="_top" xlink:title="base/types.h">
<polygon fill="white" stroke="black" points="1421.36,-58.5 1421.36,-79.5 1494.36,-79.5 1494.36,-58.5 1421.36,-58.5"/>
<text text-anchor="middle" x="1457.86" y="-66.5" font-family="Helvetica,sans-Serif" font-size="10.00">base/types.h</text>
</a>
</g>
<!-- Node4&#45;&gt;Node26 -->
<g id="edge90" class="edge"><title>Node4&#45;&gt;Node26</title>
<path fill="none" stroke="midnightblue" d="M585.757,-371.221C701.064,-366.068 1021.3,-349.959 1123.86,-326 1191.85,-310.116 1209.46,-303.037 1269.86,-268 1350.01,-221.5 1378.82,-213.277 1432.86,-138 1443.28,-123.483 1449.78,-104.163 1453.54,-89.6591"/>
<polygon fill="midnightblue" stroke="midnightblue" points="1457,-90.2024 1455.89,-79.6664 1450.19,-88.598 1457,-90.2024"/>
</g>
<!-- Node27 -->
<g id="node73" class="node"><title>Node27</title>
<a xlink:href="_particle_type_8h.html" target="_top" xlink:title="base/ParticleType.h">
<polygon fill="white" stroke="black" points="1444.86,-181.5 1444.86,-202.5 1548.86,-202.5 1548.86,-181.5 1444.86,-181.5"/>
<text text-anchor="middle" x="1496.86" y="-189.5" font-family="Helvetica,sans-Serif" font-size="10.00">base/ParticleType.h</text>
</a>
</g>
<!-- Node4&#45;&gt;Node27 -->
<g id="edge92" class="edge"><title>Node4&#45;&gt;Node27</title>
<path fill="none" stroke="midnightblue" d="M585.575,-371.261C746.334,-364.473 1318.51,-339.469 1354.86,-326 1414.45,-303.917 1462.92,-242.303 1484.59,-210.908"/>
<polygon fill="midnightblue" stroke="midnightblue" points="1487.53,-212.811 1490.21,-202.562 1481.73,-208.902 1487.53,-212.811"/>
</g>
<!-- Node32 -->
<g id="node92" class="node"><title>Node32</title>
<a xlink:href="_tree_8h.html" target="_top" xlink:title="base/Tree.h">
<polygon fill="white" stroke="black" points="121.855,-181.5 121.855,-202.5 189.855,-202.5 189.855,-181.5 121.855,-181.5"/>
<text text-anchor="middle" x="155.855" y="-189.5" font-family="Helvetica,sans-Serif" font-size="10.00">base/Tree.h</text>
</a>
</g>
<!-- Node4&#45;&gt;Node32 -->
<g id="edge120" class="edge"><title>Node4&#45;&gt;Node32</title>
<path fill="none" stroke="midnightblue" d="M502.081,-371.84C424.503,-368.914 262.048,-358.925 217.855,-326 180.692,-298.312 165.097,-242.897 159.142,-212.729"/>
<polygon fill="midnightblue" stroke="midnightblue" points="162.58,-212.075 157.362,-202.855 155.691,-213.317 162.58,-212.075"/>
</g>
<!-- Node34 -->
<g id="node97" class="node"><title>Node34</title>
<polygon fill="white" stroke="#bfbfbf" points="309.355,-116.5 309.355,-137.5 338.355,-137.5 338.355,-116.5 309.355,-116.5"/>
<text text-anchor="middle" x="323.855" y="-124.5" font-family="Helvetica,sans-Serif" font-size="10.00">list</text>
</g>
<!-- Node4&#45;&gt;Node34 -->
<g id="edge140" class="edge"><title>Node4&#45;&gt;Node34</title>
<path fill="none" stroke="midnightblue" d="M502.107,-369.203C441.356,-362.975 332.391,-348.937 300.855,-326 241.577,-282.884 199.311,-236.955 236.855,-174 243.934,-162.131 276.519,-146.601 299.729,-136.71"/>
<polygon fill="midnightblue" stroke="midnightblue" points="301.119,-139.923 309.001,-132.843 298.424,-133.462 301.119,-139.923"/>
</g>
<!-- Node36 -->
<g id="node103" class="node"><title>Node36</title>
<a xlink:href="_lorentz_vec_8h.html" target="_top" xlink:title="base/vec/LorentzVec.h">
<polygon fill="white" stroke="black" points="949.355,-246.5 949.355,-267.5 1066.36,-267.5 1066.36,-246.5 949.355,-246.5"/>
<text text-anchor="middle" x="1007.86" y="-254.5" font-family="Helvetica,sans-Serif" font-size="10.00">base/vec/LorentzVec.h</text>
</a>
</g>
<!-- Node4&#45;&gt;Node36 -->
<g id="edge134" class="edge"><title>Node4&#45;&gt;Node36</title>
<path fill="none" stroke="midnightblue" d="M585.411,-364.136C627.482,-355.038 694.358,-340.238 751.855,-326 825.16,-307.847 909.65,-284.622 960.881,-270.282"/>
<polygon fill="midnightblue" stroke="midnightblue" points="961.988,-273.607 970.671,-267.537 960.097,-266.867 961.988,-273.607"/>
</g>
<!-- Node37 -->
<g id="node108" class="node"><title>Node37</title>
<polygon fill="white" stroke="#bfbfbf" points="309.855,-304.5 309.855,-325.5 363.855,-325.5 363.855,-304.5 309.855,-304.5"/>
<text text-anchor="middle" x="336.855" y="-312.5" font-family="Helvetica,sans-Serif" font-size="10.00">iostream</text>
</g>
<!-- Node4&#45;&gt;Node37 -->
<g id="edge142" class="edge"><title>Node4&#45;&gt;Node37</title>
<path fill="none" stroke="midnightblue" d="M506.369,-362.497C468.883,-351.993 411.568,-335.934 374.15,-325.45"/>
<polygon fill="midnightblue" stroke="midnightblue" points="374.73,-321.977 364.157,-322.65 372.841,-328.718 374.73,-321.977"/>
</g>
<!-- Node6 -->
<g id="node11" class="node"><title>Node6</title>
<a xlink:href="_t_cluster_8h.html" target="_top" xlink:title="TCluster.h">
<polygon fill="white" stroke="black" points="793.855,-246.5 793.855,-267.5 855.855,-267.5 855.855,-246.5 793.855,-246.5"/>
<text text-anchor="middle" x="824.855" y="-254.5" font-family="Helvetica,sans-Serif" font-size="10.00">TCluster.h</text>
</a>
</g>
<!-- Node5&#45;&gt;Node6 -->
<g id="edge10" class="edge"><title>Node5&#45;&gt;Node6</title>
<path fill="none" stroke="midnightblue" d="M719.216,-304.497C739.546,-295.356 769.234,-282.008 791.964,-271.788"/>
<polygon fill="midnightblue" stroke="midnightblue" points="793.547,-274.914 801.232,-267.621 790.677,-268.53 793.547,-274.914"/>
</g>
<!-- Node5&#45;&gt;Node7 -->
<g id="edge76" class="edge"><title>Node5&#45;&gt;Node7</title>
<path fill="none" stroke="midnightblue" d="M743.565,-306.34C783.929,-298.371 842.993,-285.189 892.855,-268 915.041,-260.352 919.111,-254.826 940.855,-246 977.617,-231.08 1020.24,-216.136 1050.98,-205.764"/>
<polygon fill="midnightblue" stroke="midnightblue" points="1052.15,-209.062 1060.52,-202.563 1049.93,-202.426 1052.15,-209.062"/>
</g>
<!-- Node5&#45;&gt;Node16 -->
<g id="edge78" class="edge"><title>Node5&#45;&gt;Node16</title>
<path fill="none" stroke="midnightblue" d="M647.939,-306.344C597.581,-294.383 521.029,-267.394 486.855,-210 463.245,-170.346 493.168,-116.106 512.62,-87.852"/>
<polygon fill="midnightblue" stroke="midnightblue" points="515.52,-89.814 518.487,-79.643 509.825,-85.7438 515.52,-89.814"/>
</g>
<!-- Node17 -->
<g id="node36" class="node"><title>Node17</title>
<polygon fill="white" stroke="#bfbfbf" points="669.855,-58.5 669.855,-79.5 725.855,-79.5 725.855,-58.5 669.855,-58.5"/>
<text text-anchor="middle" x="697.855" y="-66.5" font-family="Helvetica,sans-Serif" font-size="10.00">algorithm</text>
</g>
<!-- Node5&#45;&gt;Node17 -->
<g id="edge86" class="edge"><title>Node5&#45;&gt;Node17</title>
<path fill="none" stroke="midnightblue" d="M704.246,-304.472C718.037,-286.418 744.956,-247.827 754.855,-210 766.747,-164.561 734.589,-114.187 713.858,-87.6785"/>
<polygon fill="midnightblue" stroke="midnightblue" points="716.362,-85.2092 707.345,-79.645 710.924,-89.6173 716.362,-85.2092"/>
</g>
<!-- Node5&#45;&gt;Node22 -->
<g id="edge84" class="edge"><title>Node5&#45;&gt;Node22</title>
<path fill="none" stroke="midnightblue" d="M648.111,-311.273C586.124,-305.519 482.472,-292.487 453.855,-268 417.92,-237.251 407.304,-179.127 404.169,-147.973"/>
<polygon fill="midnightblue" stroke="midnightblue" points="407.641,-147.489 403.319,-137.816 400.665,-148.073 407.641,-147.489"/>
</g>
<!-- Node24 -->
<g id="node59" class="node"><title>Node24</title>
<polygon fill="white" stroke="#bfbfbf" points="915.855,-181.5 915.855,-202.5 965.855,-202.5 965.855,-181.5 915.855,-181.5"/>
<text text-anchor="middle" x="940.855" y="-189.5" font-family="Helvetica,sans-Serif" font-size="10.00">iomanip</text>
</g>
<!-- Node5&#45;&gt;Node24 -->
<g id="edge80" class="edge"><title>Node5&#45;&gt;Node24</title>
<path fill="none" stroke="midnightblue" d="M743.586,-308.444C778.919,-302.045 827.244,-289.952 864.855,-268 890.107,-253.262 912.918,-228.094 926.817,-210.785"/>
<polygon fill="midnightblue" stroke="midnightblue" points="929.851,-212.585 933.239,-202.546 924.33,-208.282 929.851,-212.585"/>
</g>
<!-- Node25 -->
<g id="node61" class="node"><title>Node25</title>
<polygon fill="white" stroke="#bfbfbf" points="495.855,-181.5 495.855,-202.5 547.855,-202.5 547.855,-181.5 495.855,-181.5"/>
<text text-anchor="middle" x="521.855" y="-189.5" font-family="Helvetica,sans-Serif" font-size="10.00">sstream</text>
</g>
<!-- Node5&#45;&gt;Node25 -->
<g id="edge82" class="edge"><title>Node5&#45;&gt;Node25</title>
<path fill="none" stroke="midnightblue" d="M680.718,-304.3C650.306,-282.801 581.599,-234.232 545.316,-208.584"/>
<polygon fill="midnightblue" stroke="midnightblue" points="547.02,-205.502 536.834,-202.588 542.979,-211.218 547.02,-205.502"/>
</g>
<!-- Node6&#45;&gt;Node7 -->
<g id="edge12" class="edge"><title>Node6&#45;&gt;Node7</title>
<path fill="none" stroke="midnightblue" d="M855.86,-249.48C900.741,-238.595 984.436,-218.296 1039.39,-204.966"/>
<polygon fill="midnightblue" stroke="midnightblue" points="1040.41,-208.321 1049.31,-202.562 1038.76,-201.518 1040.41,-208.321"/>
</g>
<!-- Node11 -->
<g id="node21" class="node"><title>Node11</title>
<a xlink:href="vec3_8h.html" target="_top" xlink:title="base/vec/vec3.h">
<polygon fill="white" stroke="black" points="963.355,-116.5 963.355,-137.5 1052.36,-137.5 1052.36,-116.5 963.355,-116.5"/>
<text text-anchor="middle" x="1007.86" y="-124.5" font-family="Helvetica,sans-Serif" font-size="10.00">base/vec/vec3.h</text>
</a>
</g>
<!-- Node6&#45;&gt;Node11 -->
<g id="edge64" class="edge"><title>Node6&#45;&gt;Node11</title>
<path fill="none" stroke="midnightblue" d="M836.034,-246.294C845.841,-236.846 860.434,-222.648 872.855,-210 888.276,-194.298 889.005,-186.872 906.855,-174 925.509,-160.549 948.625,-149.453 968.033,-141.427"/>
<polygon fill="midnightblue" stroke="midnightblue" points="969.534,-144.596 977.513,-137.625 966.929,-138.099 969.534,-144.596"/>
</g>
<!-- Node13 -->
<g id="node26" class="node"><title>Node13</title>
<polygon fill="white" stroke="#bfbfbf" points="873.855,-0.5 873.855,-21.5 917.855,-21.5 917.855,-0.5 873.855,-0.5"/>
<text text-anchor="middle" x="895.855" y="-8.5" font-family="Helvetica,sans-Serif" font-size="10.00">cmath</text>
</g>
<!-- Node6&#45;&gt;Node13 -->
<g id="edge68" class="edge"><title>Node6&#45;&gt;Node13</title>
<path fill="none" stroke="midnightblue" d="M823.523,-246.434C820.89,-222.551 816.448,-162.837 830.855,-116 841.068,-82.7984 864.391,-49.5641 880.137,-29.6379"/>
<polygon fill="midnightblue" stroke="midnightblue" points="882.986,-31.6819 886.563,-21.7093 877.548,-27.2744 882.986,-31.6819"/>
</g>
<!-- Node14 -->
<g id="node29" class="node"><title>Node14</title>
<a xlink:href="math_8h.html" target="_top" xlink:title="base/std_ext/math.h">
<polygon fill="white" stroke="black" points="839.855,-116.5 839.855,-137.5 945.855,-137.5 945.855,-116.5 839.855,-116.5"/>
<text text-anchor="middle" x="892.855" y="-124.5" font-family="Helvetica,sans-Serif" font-size="10.00">base/std_ext/math.h</text>
</a>
</g>
<!-- Node6&#45;&gt;Node14 -->
<g id="edge52" class="edge"><title>Node6&#45;&gt;Node14</title>
<path fill="none" stroke="midnightblue" d="M830.42,-246.362C841.777,-224.65 867.781,-174.937 882.394,-147"/>
<polygon fill="midnightblue" stroke="midnightblue" points="885.68,-148.269 887.214,-137.785 879.477,-145.024 885.68,-148.269"/>
</g>
<!-- Node6&#45;&gt;Node16 -->
<g id="edge66" class="edge"><title>Node6&#45;&gt;Node16</title>
<path fill="none" stroke="midnightblue" d="M793.657,-253.991C754.28,-249.183 685.355,-237.353 632.855,-210 611.35,-198.795 610.756,-189.193 591.855,-174 570.793,-157.069 557.722,-160.567 542.855,-138 533.368,-123.598 529.473,-104.266 527.892,-89.7293"/>
<polygon fill="midnightblue" stroke="midnightblue" points="531.376,-89.3925 527.078,-79.7084 524.399,-89.9588 531.376,-89.3925"/>
</g>
<!-- Node21 -->
<g id="node48" class="node"><title>Node21</title>
<a xlink:href="shared__ptr__container_8h.html" target="_top" xlink:title="base/std_ext/shared\l_ptr_container.h">
<polygon fill="white" stroke="black" points="641.355,-175 641.355,-209 746.355,-209 746.355,-175 641.355,-175"/>
<text text-anchor="start" x="649.355" y="-196" font-family="Helvetica,sans-Serif" font-size="10.00">base/std_ext/shared</text>
<text text-anchor="middle" x="693.855" y="-183" font-family="Helvetica,sans-Serif" font-size="10.00">_ptr_container.h</text>
</a>
</g>
<!-- Node6&#45;&gt;Node21 -->
<g id="edge54" class="edge"><title>Node6&#45;&gt;Node21</title>
<path fill="none" stroke="midnightblue" d="M803.516,-246.412C785.69,-237.567 759.696,-224.669 737.489,-213.65"/>
<polygon fill="midnightblue" stroke="midnightblue" points="738.752,-210.37 728.239,-209.06 735.641,-216.64 738.752,-210.37"/>
</g>
<!-- Node6&#45;&gt;Node22 -->
<g id="edge74" class="edge"><title>Node6&#45;&gt;Node22</title>
<path fill="none" stroke="midnightblue" d="M793.854,-255.29C748.996,-251.785 664.309,-241.252 599.855,-210 577.428,-199.126 578.769,-185.875 556.855,-174 519.044,-153.509 471.06,-140.672 438.786,-133.69"/>
<polygon fill="midnightblue" stroke="midnightblue" points="439.397,-130.242 428.893,-131.627 437.967,-137.095 439.397,-130.242"/>
</g>
<!-- Node6&#45;&gt;Node24 -->
<g id="edge70" class="edge"><title>Node6&#45;&gt;Node24</title>
<path fill="none" stroke="midnightblue" d="M843.751,-246.412C862.541,-235.883 891.581,-219.611 913.012,-207.602"/>
<polygon fill="midnightblue" stroke="midnightblue" points="914.955,-210.525 921.968,-202.584 911.533,-204.419 914.955,-210.525"/>
</g>
<!-- Node6&#45;&gt;Node25 -->
<g id="edge72" class="edge"><title>Node6&#45;&gt;Node25</title>
<path fill="none" stroke="midnightblue" d="M793.496,-253.92C743.586,-248.46 643.392,-235.209 561.855,-210 558.654,-209.01 555.372,-207.829 552.131,-206.551"/>
<polygon fill="midnightblue" stroke="midnightblue" points="553.226,-203.214 542.654,-202.524 550.488,-209.656 553.226,-203.214"/>
</g>
<!-- Node7&#45;&gt;Node8 -->
<g id="edge14" class="edge"><title>Node7&#45;&gt;Node8</title>
<path fill="none" stroke="midnightblue" d="M1109.86,-181.449C1127.4,-170.567 1155.54,-153.102 1179.86,-138 1209.16,-119.795 1242.81,-98.8746 1265.31,-84.8862"/>
<polygon fill="midnightblue" stroke="midnightblue" points="1267.29,-87.7773 1273.93,-79.5243 1263.59,-81.8328 1267.29,-87.7773"/>
</g>
<!-- Node9 -->
<g id="node17" class="node"><title>Node9</title>
<polygon fill="white" stroke="#bfbfbf" points="1185.86,-0.5 1185.86,-21.5 1247.86,-21.5 1247.86,-0.5 1185.86,-0.5"/>
<text text-anchor="middle" x="1216.86" y="-8.5" font-family="Helvetica,sans-Serif" font-size="10.00">type_traits</text>
</g>
<!-- Node7&#45;&gt;Node9 -->
<g id="edge48" class="edge"><title>Node7&#45;&gt;Node9</title>
<path fill="none" stroke="midnightblue" d="M1099.52,-181.407C1106.21,-170.637 1116.66,-153.391 1124.86,-138 1143.35,-103.254 1139.06,-89.3594 1162.86,-58 1171.42,-46.706 1183.08,-36.1457 1193.36,-27.9075"/>
<polygon fill="midnightblue" stroke="midnightblue" points="1195.81,-30.4457 1201.59,-21.5684 1191.53,-24.9018 1195.81,-30.4457"/>
</g>
<!-- Node7&#45;&gt;Node11 -->
<g id="edge20" class="edge"><title>Node7&#45;&gt;Node11</title>
<path fill="none" stroke="midnightblue" d="M1078.82,-181.267C1065.45,-171.044 1045.13,-155.504 1029.65,-143.67"/>
<polygon fill="midnightblue" stroke="midnightblue" points="1031.7,-140.828 1021.63,-137.534 1027.45,-146.389 1031.7,-140.828"/>
</g>
<!-- Node7&#45;&gt;Node14 -->
<g id="edge30" class="edge"><title>Node7&#45;&gt;Node14</title>
<path fill="none" stroke="midnightblue" d="M1060.28,-181.412C1026.14,-170.316 972.371,-152.843 935.016,-140.702"/>
<polygon fill="midnightblue" stroke="midnightblue" points="936.012,-137.346 925.42,-137.584 933.849,-144.003 936.012,-137.346"/>
</g>
<!-- Node7&#45;&gt;Node16 -->
<g id="edge50" class="edge"><title>Node7&#45;&gt;Node16</title>
<path fill="none" stroke="midnightblue" d="M1045.3,-184.631C959.969,-171.36 787.192,-144.238 759.855,-138 686.973,-121.37 603.353,-94.7032 558.779,-79.8618"/>
<polygon fill="midnightblue" stroke="midnightblue" points="559.691,-76.4762 549.097,-76.6192 557.468,-83.1138 559.691,-76.4762"/>
</g>
<!-- Node18 -->
<g id="node38" class="node"><title>Node18</title>
<polygon fill="white" stroke="#bfbfbf" points="1171.36,-58.5 1171.36,-79.5 1230.36,-79.5 1230.36,-58.5 1171.36,-58.5"/>
<text text-anchor="middle" x="1200.86" y="-66.5" font-family="Helvetica,sans-Serif" font-size="10.00">stdexcept</text>
</g>
<!-- Node7&#45;&gt;Node18 -->
<g id="edge44" class="edge"><title>Node7&#45;&gt;Node18</title>
<path fill="none" stroke="midnightblue" d="M1108.24,-181.417C1122.23,-171.316 1142.91,-155.134 1157.86,-138 1171.13,-122.791 1182.99,-103.044 1190.87,-88.5735"/>
<polygon fill="midnightblue" stroke="midnightblue" points="1194.08,-89.995 1195.67,-79.5195 1187.9,-86.7199 1194.08,-89.995"/>
</g>
<!-- Node19 -->
<g id="node40" class="node"><title>Node19</title>
<polygon fill="white" stroke="#bfbfbf" points="1069.86,-116.5 1069.86,-137.5 1115.86,-137.5 1115.86,-116.5 1069.86,-116.5"/>
<text text-anchor="middle" x="1092.86" y="-124.5" font-family="Helvetica,sans-Serif" font-size="10.00">cstdint</text>
</g>
<!-- Node7&#45;&gt;Node19 -->
<g id="edge42" class="edge"><title>Node7&#45;&gt;Node19</title>
<path fill="none" stroke="midnightblue" d="M1092.86,-181.267C1092.86,-172.18 1092.86,-158.892 1092.86,-147.74"/>
<polygon fill="midnightblue" stroke="midnightblue" points="1096.36,-147.534 1092.86,-137.534 1089.36,-147.534 1096.36,-147.534"/>
</g>
<!-- Node20 -->
<g id="node43" class="node"><title>Node20</title>
<polygon fill="white" stroke="#bfbfbf" points="1285.36,-116.5 1285.36,-137.5 1326.36,-137.5 1326.36,-116.5 1285.36,-116.5"/>
<text text-anchor="middle" x="1305.86" y="-124.5" font-family="Helvetica,sans-Serif" font-size="10.00">string</text>
</g>
<!-- Node7&#45;&gt;Node20 -->
<g id="edge46" class="edge"><title>Node7&#45;&gt;Node20</title>
<path fill="none" stroke="midnightblue" d="M1127.55,-181.412C1168.67,-168.863 1236.53,-148.157 1275.6,-136.233"/>
<polygon fill="midnightblue" stroke="midnightblue" points="1276.8,-139.526 1285.34,-133.259 1274.76,-132.83 1276.8,-139.526"/>
</g>
<!-- Node8&#45;&gt;Node9 -->
<g id="edge16" class="edge"><title>Node8&#45;&gt;Node9</title>
<path fill="none" stroke="midnightblue" d="M1277.28,-58.3619C1266.43,-49.859 1251.02,-37.7785 1238.48,-27.9466"/>
<polygon fill="midnightblue" stroke="midnightblue" points="1240.37,-24.9848 1230.34,-21.5707 1236.05,-30.4942 1240.37,-24.9848"/>
</g>
<!-- Node10 -->
<g id="node19" class="node"><title>Node10</title>
<polygon fill="white" stroke="#bfbfbf" points="1440.86,-0.5 1440.86,-21.5 1492.86,-21.5 1492.86,-0.5 1440.86,-0.5"/>
<text text-anchor="middle" x="1466.86" y="-8.5" font-family="Helvetica,sans-Serif" font-size="10.00">ostream</text>
</g>
<!-- Node8&#45;&gt;Node10 -->
<g id="edge18" class="edge"><title>Node8&#45;&gt;Node10</title>
<path fill="none" stroke="midnightblue" d="M1322.73,-58.4966C1353.21,-48.4519 1399.11,-33.3261 1430.88,-22.8542"/>
<polygon fill="midnightblue" stroke="midnightblue" points="1432.27,-26.0842 1440.67,-19.6301 1430.07,-19.4359 1432.27,-26.0842"/>
</g>
<!-- Node11&#45;&gt;Node8 -->
<g id="edge22" class="edge"><title>Node11&#45;&gt;Node8</title>
<path fill="none" stroke="midnightblue" d="M1052.39,-117.741C1055.25,-117.15 1058.09,-116.566 1060.86,-116 1136.84,-100.432 1158.17,-96.641 1237.73,-80.2201"/>
<polygon fill="midnightblue" stroke="midnightblue" points="1238.65,-83.6052 1247.73,-78.1533 1237.23,-76.7501 1238.65,-83.6052"/>
</g>
<!-- Node12 -->
<g id="node24" class="node"><title>Node12</title>
<a xlink:href="vec2_8h.html" target="_top" xlink:title="vec2.h">
<polygon fill="white" stroke="black" points="1000.86,-58.5 1000.86,-79.5 1046.86,-79.5 1046.86,-58.5 1000.86,-58.5"/>
<text text-anchor="middle" x="1023.86" y="-66.5" font-family="Helvetica,sans-Serif" font-size="10.00">vec2.h</text>
</a>
</g>
<!-- Node11&#45;&gt;Node12 -->
<g id="edge24" class="edge"><title>Node11&#45;&gt;Node12</title>
<path fill="none" stroke="midnightblue" d="M1010.79,-116.362C1012.87,-108.84 1015.71,-98.5187 1018.22,-89.4308"/>
<polygon fill="midnightblue" stroke="midnightblue" points="1021.65,-90.1414 1020.94,-79.5707 1014.91,-88.2798 1021.65,-90.1414"/>
</g>
<!-- Node11&#45;&gt;Node13 -->
<g id="edge28" class="edge"><title>Node11&#45;&gt;Node13</title>
<path fill="none" stroke="midnightblue" d="M985.03,-116.361C969.208,-108.13 948.444,-95.5296 933.855,-80 920.466,-65.7467 910.178,-45.8871 903.704,-31.132"/>
<polygon fill="midnightblue" stroke="midnightblue" points="906.919,-29.7474 899.841,-21.864 900.458,-32.4408 906.919,-29.7474"/>
</g>
<!-- Node12&#45;&gt;Node13 -->
<g id="edge26" class="edge"><title>Node12&#45;&gt;Node13</title>
<path fill="none" stroke="midnightblue" d="M1000.68,-58.4966C980.125,-49.1848 949.938,-35.5061 927.23,-25.2167"/>
<polygon fill="midnightblue" stroke="midnightblue" points="928.559,-21.9765 918.006,-21.0371 925.67,-28.3525 928.559,-21.9765"/>
</g>
<!-- Node14&#45;&gt;Node13 -->
<g id="edge32" class="edge"><title>Node14&#45;&gt;Node13</title>
<path fill="none" stroke="midnightblue" d="M893.132,-116.295C893.628,-97.1314 894.675,-56.654 895.316,-31.8434"/>
<polygon fill="midnightblue" stroke="midnightblue" points="898.819,-31.7664 895.579,-21.6792 891.822,-31.5853 898.819,-31.7664"/>
</g>
<!-- Node15 -->
<g id="node32" class="node"><title>Node15</title>
<polygon fill="white" stroke="#bfbfbf" points="942.855,-58.5 942.855,-79.5 982.855,-79.5 982.855,-58.5 942.855,-58.5"/>
<text text-anchor="middle" x="962.855" y="-66.5" font-family="Helvetica,sans-Serif" font-size="10.00">limits</text>
</g>
<!-- Node14&#45;&gt;Node15 -->
<g id="edge34" class="edge"><title>Node14&#45;&gt;Node15</title>
<path fill="none" stroke="midnightblue" d="M905.695,-116.362C915.858,-107.941 930.257,-96.0105 942.06,-86.2308"/>
<polygon fill="midnightblue" stroke="midnightblue" points="944.631,-88.6459 950.098,-79.5707 940.164,-83.2558 944.631,-88.6459"/>
</g>
<!-- Node14&#45;&gt;Node16 -->
<g id="edge36" class="edge"><title>Node14&#45;&gt;Node16</title>
<path fill="none" stroke="midnightblue" d="M839.636,-118.566C762.607,-106.36 622.374,-84.1368 559.216,-74.1281"/>
<polygon fill="midnightblue" stroke="midnightblue" points="559.48,-70.6264 549.055,-72.518 558.384,-77.5401 559.48,-70.6264"/>
</g>
<!-- Node14&#45;&gt;Node17 -->
<g id="edge38" class="edge"><title>Node14&#45;&gt;Node17</title>
<path fill="none" stroke="midnightblue" d="M857.542,-116.497C823.179,-106.276 771.129,-90.7941 735.873,-80.3077"/>
<polygon fill="midnightblue" stroke="midnightblue" points="736.539,-76.8545 725.956,-77.3582 734.544,-83.564 736.539,-76.8545"/>
</g>
<!-- Node14&#45;&gt;Node18 -->
<g id="edge40" class="edge"><title>Node14&#45;&gt;Node18</title>
<path fill="none" stroke="midnightblue" d="M946.153,-116.963C1007.29,-105.45 1106.15,-86.8344 1160.99,-76.5072"/>
<polygon fill="midnightblue" stroke="midnightblue" points="1161.84,-79.9081 1171.02,-74.6179 1160.55,-73.029 1161.84,-79.9081"/>
</g>
<!-- Node21&#45;&gt;Node16 -->
<g id="edge56" class="edge"><title>Node21&#45;&gt;Node16</title>
<path fill="none" stroke="midnightblue" d="M643.829,-174.925C613.039,-163.691 577.182,-149.074 564.855,-138 550.142,-124.782 539.925,-104.477 533.82,-89.3109"/>
<polygon fill="midnightblue" stroke="midnightblue" points="537.035,-87.9161 530.246,-79.7826 530.481,-90.3748 537.035,-87.9161"/>
</g>
<!-- Node21&#45;&gt;Node17 -->
<g id="edge62" class="edge"><title>Node21&#45;&gt;Node17</title>
<path fill="none" stroke="midnightblue" d="M688.875,-174.776C685.064,-159.36 680.918,-136.149 683.855,-116 685.168,-106.996 687.825,-97.3181 690.474,-89.0986"/>
<polygon fill="midnightblue" stroke="midnightblue" points="693.789,-90.2223 693.725,-79.6276 687.168,-87.9496 693.789,-90.2223"/>
</g>
<!-- Node21&#45;&gt;Node22 -->
<g id="edge58" class="edge"><title>Node21&#45;&gt;Node22</title>
<path fill="none" stroke="midnightblue" d="M641.158,-180.229C582.624,-167.154 489.7,-146.398 438.914,-135.054"/>
<polygon fill="midnightblue" stroke="midnightblue" points="439.565,-131.613 429.042,-132.849 438.039,-138.445 439.565,-131.613"/>
</g>
<!-- Node23 -->
<g id="node53" class="node"><title>Node23</title>
<polygon fill="white" stroke="#bfbfbf" points="573.355,-116.5 573.355,-137.5 632.355,-137.5 632.355,-116.5 573.355,-116.5"/>
<text text-anchor="middle" x="602.855" y="-124.5" font-family="Helvetica,sans-Serif" font-size="10.00">functional</text>
</g>
<!-- Node21&#45;&gt;Node23 -->
<g id="edge60" class="edge"><title>Node21&#45;&gt;Node23</title>
<path fill="none" stroke="midnightblue" d="M669.946,-174.922C656.382,-165.233 639.486,-153.165 626.043,-143.562"/>
<polygon fill="midnightblue" stroke="midnightblue" points="627.949,-140.623 617.777,-137.658 623.88,-146.319 627.949,-140.623"/>
</g>
<!-- Node27&#45;&gt;Node10 -->
<g id="edge112" class="edge"><title>Node27&#45;&gt;Node10</title>
<path fill="none" stroke="midnightblue" d="M1537.82,-181.453C1574,-169.806 1618.73,-148.315 1602.86,-116 1581.79,-73.1135 1533.83,-42.7862 1500.89,-26.0924"/>
<polygon fill="midnightblue" stroke="midnightblue" points="1502.14,-22.8044 1491.62,-21.5484 1499.06,-29.0907 1502.14,-22.8044"/>
</g>
<!-- Node27&#45;&gt;Node16 -->
<g id="edge118" class="edge"><title>Node27&#45;&gt;Node16</title>
<path fill="none" stroke="midnightblue" d="M1444.75,-190.298C1332.14,-186.067 1057.89,-172.789 830.855,-138 817.284,-135.92 634.163,-93.7706 558.856,-76.3922"/>
<polygon fill="midnightblue" stroke="midnightblue" points="559.505,-72.9501 548.974,-74.1111 557.931,-79.7707 559.505,-72.9501"/>
</g>
<!-- Node27&#45;&gt;Node20 -->
<g id="edge110" class="edge"><title>Node27&#45;&gt;Node20</title>
<path fill="none" stroke="midnightblue" d="M1463.83,-181.429C1432.99,-171.458 1385.46,-155.85 1336,-138.327"/>
<polygon fill="midnightblue" stroke="midnightblue" points="1337.01,-134.972 1326.41,-134.916 1334.66,-141.567 1337.01,-134.972"/>
</g>
<!-- Node27&#45;&gt;Node26 -->
<g id="edge94" class="edge"><title>Node27&#45;&gt;Node26</title>
<path fill="none" stroke="midnightblue" d="M1527.84,-181.444C1561.1,-168.366 1606.67,-144.315 1586.86,-116 1576.98,-101.887 1537.13,-88.727 1504.3,-79.9434"/>
<polygon fill="midnightblue" stroke="midnightblue" points="1504.94,-76.493 1494.38,-77.3618 1503.18,-83.2674 1504.94,-76.493"/>
</g>
<!-- Node28 -->
<g id="node76" class="node"><title>Node28</title>
<a xlink:href="interval_8h.html" target="_top" xlink:title="base/interval.h">
<polygon fill="white" stroke="black" points="1343.86,-116.5 1343.86,-137.5 1423.86,-137.5 1423.86,-116.5 1343.86,-116.5"/>
<text text-anchor="middle" x="1383.86" y="-124.5" font-family="Helvetica,sans-Serif" font-size="10.00">base/interval.h</text>
</a>
</g>
<!-- Node27&#45;&gt;Node28 -->
<g id="edge96" class="edge"><title>Node27&#45;&gt;Node28</title>
<path fill="none" stroke="midnightblue" d="M1478.45,-181.412C1460.14,-170.883 1431.86,-154.611 1410.98,-142.602"/>
<polygon fill="midnightblue" stroke="midnightblue" points="1412.67,-139.536 1402.25,-137.584 1409.18,-145.604 1412.67,-139.536"/>
</g>
<!-- Node30 -->
<g id="node87" class="node"><title>Node30</title>
<polygon fill="white" stroke="#bfbfbf" points="1479.36,-116.5 1479.36,-137.5 1514.36,-137.5 1514.36,-116.5 1479.36,-116.5"/>
<text text-anchor="middle" x="1496.86" y="-124.5" font-family="Helvetica,sans-Serif" font-size="10.00">map</text>
</g>
<!-- Node27&#45;&gt;Node30 -->
<g id="edge114" class="edge"><title>Node27&#45;&gt;Node30</title>
<path fill="none" stroke="midnightblue" d="M1496.86,-181.267C1496.86,-172.18 1496.86,-158.892 1496.86,-147.74"/>
<polygon fill="midnightblue" stroke="midnightblue" points="1500.36,-147.534 1496.86,-137.534 1493.36,-147.534 1500.36,-147.534"/>
</g>
<!-- Node31 -->
<g id="node89" class="node"><title>Node31</title>
<polygon fill="white" stroke="#bfbfbf" points="1531.36,-116.5 1531.36,-137.5 1578.36,-137.5 1578.36,-116.5 1531.36,-116.5"/>
<text text-anchor="middle" x="1554.86" y="-124.5" font-family="Helvetica,sans-Serif" font-size="10.00">iterator</text>
</g>
<!-- Node27&#45;&gt;Node31 -->
<g id="edge116" class="edge"><title>Node27&#45;&gt;Node31</title>
<path fill="none" stroke="midnightblue" d="M1506.43,-181.267C1515.22,-171.423 1528.4,-156.648 1538.79,-145"/>
<polygon fill="midnightblue" stroke="midnightblue" points="1541.41,-147.325 1545.46,-137.534 1536.19,-142.665 1541.41,-147.325"/>
</g>
<!-- Node28&#45;&gt;Node8 -->
<g id="edge98" class="edge"><title>Node28&#45;&gt;Node8</title>
<path fill="none" stroke="midnightblue" d="M1366.8,-116.362C1352.77,-107.614 1332.67,-95.0786 1316.67,-85.1015"/>
<polygon fill="midnightblue" stroke="midnightblue" points="1318.14,-81.8927 1307.8,-79.5707 1314.44,-87.8323 1318.14,-81.8927"/>
</g>
<!-- Node28&#45;&gt;Node15 -->
<g id="edge106" class="edge"><title>Node28&#45;&gt;Node15</title>
<path fill="none" stroke="midnightblue" d="M1343.82,-117.614C1340.79,-117.027 1337.78,-116.48 1334.86,-116 1186.85,-91.7042 1142.86,-114.454 992.957,-79.7438"/>
<polygon fill="midnightblue" stroke="midnightblue" points="993.465,-76.2675 982.928,-77.3733 991.855,-83.0798 993.465,-76.2675"/>
</g>
<!-- Node28&#45;&gt;Node17 -->
<g id="edge102" class="edge"><title>Node28&#45;&gt;Node17</title>
<path fill="none" stroke="midnightblue" d="M1343.83,-117.512C1340.81,-116.948 1337.79,-116.435 1334.86,-116 1218.13,-98.6881 855.222,-77.6768 736.137,-71.0822"/>
<polygon fill="midnightblue" stroke="midnightblue" points="736.212,-67.5811 726.034,-70.525 735.826,-74.5705 736.212,-67.5811"/>
</g>
<!-- Node28&#45;&gt;Node18 -->
<g id="edge104" class="edge"><title>Node28&#45;&gt;Node18</title>
<path fill="none" stroke="midnightblue" d="M1350.72,-116.497C1319.63,-106.645 1273.13,-91.906 1240.18,-81.4635"/>
<polygon fill="midnightblue" stroke="midnightblue" points="1241.01,-78.0557 1230.42,-78.3708 1238.9,-84.7286 1241.01,-78.0557"/>
</g>
<!-- Node28&#45;&gt;Node26 -->
<g id="edge100" class="edge"><title>Node28&#45;&gt;Node26</title>
<path fill="none" stroke="midnightblue" d="M1397.43,-116.362C1408.28,-107.859 1423.69,-95.7785 1436.23,-85.9466"/>
<polygon fill="midnightblue" stroke="midnightblue" points="1438.66,-88.4942 1444.37,-79.5707 1434.34,-82.9848 1438.66,-88.4942"/>
</g>
<!-- Node29 -->
<g id="node83" class="node"><title>Node29</title>
<polygon fill="white" stroke="#bfbfbf" points="1355.36,-58.5 1355.36,-79.5 1404.36,-79.5 1404.36,-58.5 1355.36,-58.5"/>
<text text-anchor="middle" x="1379.86" y="-66.5" font-family="Helvetica,sans-Serif" font-size="10.00">istream</text>
</g>
<!-- Node28&#45;&gt;Node29 -->
<g id="edge108" class="edge"><title>Node28&#45;&gt;Node29</title>
<path fill="none" stroke="midnightblue" d="M1383.12,-116.362C1382.61,-108.922 1381.91,-98.7427 1381.28,-89.7276"/>
<polygon fill="midnightblue" stroke="midnightblue" points="1384.76,-89.3061 1380.58,-79.5707 1377.78,-89.7878 1384.76,-89.3061"/>
</g>
<!-- Node32&#45;&gt;Node16 -->
<g id="edge128" class="edge"><title>Node32&#45;&gt;Node16</title>
<path fill="none" stroke="midnightblue" d="M167.635,-181.499C187.043,-164.809 227.612,-132.441 267.855,-116 345.105,-84.4395 443.926,-73.9898 494.242,-70.5921"/>
<polygon fill="midnightblue" stroke="midnightblue" points="494.744,-74.0677 504.507,-69.9525 494.309,-67.0812 494.744,-74.0677"/>
</g>
<!-- Node32&#45;&gt;Node17 -->
<g id="edge130" class="edge"><title>Node32&#45;&gt;Node17</title>
<path fill="none" stroke="midnightblue" d="M177.768,-181.4C199.53,-170.765 233.759,-153.748 262.855,-138 280.018,-128.711 282.339,-122.163 300.855,-116 334.462,-104.814 566.901,-81.5829 659.708,-72.6286"/>
<polygon fill="midnightblue" stroke="midnightblue" points="660.178,-76.0997 669.797,-71.6585 659.508,-69.1318 660.178,-76.0997"/>
</g>
<!-- Node32&#45;&gt;Node22 -->
<g id="edge124" class="edge"><title>Node32&#45;&gt;Node22</title>
<path fill="none" stroke="midnightblue" d="M189.94,-183.03C236.422,-170.798 319.327,-148.981 366.809,-136.486"/>
<polygon fill="midnightblue" stroke="midnightblue" points="367.88,-139.823 376.66,-133.894 366.099,-133.054 367.88,-139.823"/>
</g>
<!-- Node33 -->
<g id="node94" class="node"><title>Node33</title>
<polygon fill="white" stroke="#bfbfbf" points="95.8555,-116.5 95.8555,-137.5 215.855,-137.5 215.855,-116.5 95.8555,-116.5"/>
<text text-anchor="middle" x="155.855" y="-124.5" font-family="Helvetica,sans-Serif" font-size="10.00">base/cereal/access.hpp</text>
</g>
<!-- Node32&#45;&gt;Node33 -->
<g id="edge122" class="edge"><title>Node32&#45;&gt;Node33</title>
<path fill="none" stroke="midnightblue" d="M155.855,-181.267C155.855,-172.18 155.855,-158.892 155.855,-147.74"/>
<polygon fill="midnightblue" stroke="midnightblue" points="159.356,-147.534 155.855,-137.534 152.356,-147.534 159.356,-147.534"/>
</g>
<!-- Node32&#45;&gt;Node34 -->
<g id="edge126" class="edge"><title>Node32&#45;&gt;Node34</title>
<path fill="none" stroke="midnightblue" d="M183.238,-181.496C211.474,-170.651 256.771,-153.215 295.855,-138 297.087,-137.52 298.35,-137.028 299.624,-136.53"/>
<polygon fill="midnightblue" stroke="midnightblue" points="301.296,-139.634 309.33,-132.726 298.742,-133.117 301.296,-139.634"/>
</g>
<!-- Node35 -->
<g id="node101" class="node"><title>Node35</title>
<polygon fill="white" stroke="#bfbfbf" points="29.3555,-116.5 29.3555,-137.5 78.3555,-137.5 78.3555,-116.5 29.3555,-116.5"/>
<text text-anchor="middle" x="53.8555" y="-124.5" font-family="Helvetica,sans-Serif" font-size="10.00">cassert</text>
</g>
<!-- Node32&#45;&gt;Node35 -->
<g id="edge132" class="edge"><title>Node32&#45;&gt;Node35</title>
<path fill="none" stroke="midnightblue" d="M139.012,-181.267C122.674,-170.855 97.6792,-154.927 78.9887,-143.016"/>
<polygon fill="midnightblue" stroke="midnightblue" points="80.6995,-139.956 70.3853,-137.534 76.9376,-145.859 80.6995,-139.956"/>
</g>
<!-- Node36&#45;&gt;Node11 -->
<g id="edge136" class="edge"><title>Node36&#45;&gt;Node11</title>
<path fill="none" stroke="midnightblue" d="M1007.86,-246.362C1007.86,-224.936 1007.86,-176.24 1007.86,-148.114"/>
<polygon fill="midnightblue" stroke="midnightblue" points="1011.36,-147.785 1007.86,-137.785 1004.36,-147.785 1011.36,-147.785"/>
</g>
<!-- Node38&#45;&gt;Node22 -->
<g id="edge150" class="edge"><title>Node38&#45;&gt;Node22</title>
<path fill="none" stroke="midnightblue" d="M321.038,-181.267C336.593,-170.949 360.314,-155.216 378.217,-143.342"/>
<polygon fill="midnightblue" stroke="midnightblue" points="380.575,-145.978 386.974,-137.534 376.706,-140.144 380.575,-145.978"/>
</g>
<!-- Node38&#45;&gt;Node34 -->
<g id="edge152" class="edge"><title>Node38&#45;&gt;Node34</title>
<path fill="none" stroke="midnightblue" d="M307.993,-181.267C310.677,-172.085 314.614,-158.615 317.895,-147.392"/>
<polygon fill="midnightblue" stroke="midnightblue" points="321.33,-148.114 320.776,-137.534 314.611,-146.15 321.33,-148.114"/>
</g>
</g>
</svg>
