<?xml version="1.0" encoding="UTF-8" standalone="no"?>
<!DOCTYPE svg PUBLIC "-//W3C//DTD SVG 1.1//EN"
 "http://www.w3.org/Graphics/SVG/1.1/DTD/svg11.dtd">
<!-- Generated by graphviz version 2.26.3 (20100126.1600)
 -->
<!-- Title: src/calibration/gui/Manager_traits.h Pages: 1 -->
<svg width="1693pt" height="276pt"
 viewBox="0.00 0.00 1692.78 276.00" xmlns="http://www.w3.org/2000/svg" xmlns:xlink="http://www.w3.org/1999/xlink">
<g id="graph1" class="graph" transform="scale(1 1) rotate(0) translate(4 272)">
<title>src/calibration/gui/Manager_traits.h</title>
<polygon fill="white" stroke="white" points="-4,5 -4,-272 1689.78,-272 1689.78,5 -4,5"/>
<!-- Node1 -->
<g id="node1" class="node"><title>Node1</title>
<polygon fill="#bfbfbf" stroke="black" points="965.5,-233 965.5,-267 1058.5,-267 1058.5,-233 965.5,-233"/>
<text text-anchor="start" x="973.5" y="-254" font-family="Helvetica,sans-Serif" font-size="10.00">src/calibration/gui</text>
<text text-anchor="middle" x="1012" y="-241" font-family="Helvetica,sans-Serif" font-size="10.00">/Manager_traits.h</text>
</g>
<!-- Node2 -->
<g id="node3" class="node"><title>Node2</title>
<a xlink:href="interval_8h.html" target="_top" xlink:title="base/interval.h">
<polygon fill="white" stroke="black" points="1428,-174.5 1428,-195.5 1508,-195.5 1508,-174.5 1428,-174.5"/>
<text text-anchor="middle" x="1468" y="-182.5" font-family="Helvetica,sans-Serif" font-size="10.00">base/interval.h</text>
</a>
</g>
<!-- Node1&#45;&gt;Node2 -->
<g id="edge2" class="edge"><title>Node1&#45;&gt;Node2</title>
<path fill="none" stroke="midnightblue" d="M1058.66,-243.349C1144.9,-231.055 1328.57,-204.874 1417.57,-192.188"/>
<polygon fill="midnightblue" stroke="midnightblue" points="1418.28,-195.622 1427.69,-190.746 1417.29,-188.692 1418.28,-195.622"/>
</g>
<!-- Node11 -->
<g id="node21" class="node"><title>Node11</title>
<a xlink:href="_wrap_t_file_8h.html" target="_top" xlink:title="base/WrapTFile.h">
<polygon fill="white" stroke="black" points="463,-174.5 463,-195.5 557,-195.5 557,-174.5 463,-174.5"/>
<text text-anchor="middle" x="510" y="-182.5" font-family="Helvetica,sans-Serif" font-size="10.00">base/WrapTFile.h</text>
</a>
</g>
<!-- Node1&#45;&gt;Node11 -->
<g id="edge20" class="edge"><title>Node1&#45;&gt;Node11</title>
<path fill="none" stroke="midnightblue" d="M965.224,-243.943C872.861,-231.984 667.353,-205.374 567.149,-192.4"/>
<polygon fill="midnightblue" stroke="midnightblue" points="567.573,-188.926 557.206,-191.112 566.674,-195.868 567.573,-188.926"/>
</g>
<!-- Node13 -->
<g id="node25" class="node"><title>Node13</title>
<polygon fill="white" stroke="#bfbfbf" points="696.5,-0.5 696.5,-21.5 737.5,-21.5 737.5,-0.5 696.5,-0.5"/>
<text text-anchor="middle" x="717" y="-8.5" font-family="Helvetica,sans-Serif" font-size="10.00">string</text>
</g>
<!-- Node1&#45;&gt;Node13 -->
<g id="edge94" class="edge"><title>Node1&#45;&gt;Node13</title>
<path fill="none" stroke="midnightblue" d="M1058.71,-248.703C1222.17,-243.276 1754.51,-217.686 1677,-116 1618.04,-38.6507 1561.93,-74.0189 1466,-58 1324.26,-34.3306 870.653,-16.5547 747.887,-12.0902"/>
<polygon fill="midnightblue" stroke="midnightblue" points="747.813,-8.58537 737.693,-11.7226 747.56,-15.5808 747.813,-8.58537"/>
</g>
<!-- Node26 -->
<g id="node53" class="node"><title>Node26</title>
<polygon fill="white" stroke="#bfbfbf" points="728,-116.5 728,-137.5 780,-137.5 780,-116.5 728,-116.5"/>
<text text-anchor="middle" x="754" y="-124.5" font-family="Helvetica,sans-Serif" font-size="10.00">memory</text>
</g>
<!-- Node1&#45;&gt;Node26 -->
<g id="edge98" class="edge"><title>Node1&#45;&gt;Node26</title>
<path fill="none" stroke="midnightblue" d="M971.923,-232.895C948,-222.528 917.099,-208.861 890,-196 852.77,-178.331 810.537,-156.641 783.148,-142.351"/>
<polygon fill="midnightblue" stroke="midnightblue" points="784.595,-139.158 774.111,-137.623 781.35,-145.36 784.595,-139.158"/>
</g>
<!-- Node27 -->
<g id="node56" class="node"><title>Node27</title>
<polygon fill="white" stroke="#bfbfbf" points="797.5,-116.5 797.5,-137.5 826.5,-137.5 826.5,-116.5 797.5,-116.5"/>
<text text-anchor="middle" x="812" y="-124.5" font-family="Helvetica,sans-Serif" font-size="10.00">list</text>
</g>
<!-- Node1&#45;&gt;Node27 -->
<g id="edge96" class="edge"><title>Node1&#45;&gt;Node27</title>
<path fill="none" stroke="midnightblue" d="M984.191,-232.897C944.612,-208.556 872.727,-164.347 835.6,-141.514"/>
<polygon fill="midnightblue" stroke="midnightblue" points="837.302,-138.452 826.951,-136.195 833.635,-144.415 837.302,-138.452"/>
</g>
<!-- Node29 -->
<g id="node62" class="node"><title>Node29</title>
<a xlink:href="_t_i_d_8h.html" target="_top" xlink:title="tree/TID.h">
<polygon fill="white" stroke="black" points="1067.5,-174.5 1067.5,-195.5 1128.5,-195.5 1128.5,-174.5 1067.5,-174.5"/>
<text text-anchor="middle" x="1098" y="-182.5" font-family="Helvetica,sans-Serif" font-size="10.00">tree/TID.h</text>
</a>
</g>
<!-- Node1&#45;&gt;Node29 -->
<g id="edge66" class="edge"><title>Node1&#45;&gt;Node29</title>
<path fill="none" stroke="midnightblue" d="M1034.6,-232.922C1047.29,-223.326 1063.08,-211.394 1075.72,-201.837"/>
<polygon fill="midnightblue" stroke="midnightblue" points="1078.03,-204.48 1083.9,-195.658 1073.81,-198.896 1078.03,-204.48"/>
</g>
<!-- Node3 -->
<g id="node5" class="node"><title>Node3</title>
<a xlink:href="printable_8h.html" target="_top" xlink:title="printable.h">
<polygon fill="white" stroke="black" points="1378,-116.5 1378,-137.5 1440,-137.5 1440,-116.5 1378,-116.5"/>
<text text-anchor="middle" x="1409" y="-124.5" font-family="Helvetica,sans-Serif" font-size="10.00">printable.h</text>
</a>
</g>
<!-- Node2&#45;&gt;Node3 -->
<g id="edge4" class="edge"><title>Node2&#45;&gt;Node3</title>
<path fill="none" stroke="midnightblue" d="M1457.18,-174.362C1448.78,-166.104 1436.95,-154.472 1427.11,-144.803"/>
<polygon fill="midnightblue" stroke="midnightblue" points="1429.34,-142.085 1419.75,-137.571 1424.43,-147.077 1429.34,-142.085"/>
</g>
<!-- Node6 -->
<g id="node11" class="node"><title>Node6</title>
<a xlink:href="types_8h.html" target="_top" xlink:title="types.h">
<polygon fill="white" stroke="black" points="1561.5,-116.5 1561.5,-137.5 1610.5,-137.5 1610.5,-116.5 1561.5,-116.5"/>
<text text-anchor="middle" x="1586" y="-124.5" font-family="Helvetica,sans-Serif" font-size="10.00">types.h</text>
</a>
</g>
<!-- Node2&#45;&gt;Node6 -->
<g id="edge10" class="edge"><title>Node2&#45;&gt;Node6</title>
<path fill="none" stroke="midnightblue" d="M1489.37,-174.497C1507.8,-165.438 1534.64,-152.246 1555.36,-142.063"/>
<polygon fill="midnightblue" stroke="midnightblue" points="1556.96,-145.174 1564.39,-137.621 1553.87,-138.891 1556.96,-145.174"/>
</g>
<!-- Node7 -->
<g id="node13" class="node"><title>Node7</title>
<polygon fill="white" stroke="#bfbfbf" points="561,-0.5 561,-21.5 617,-21.5 617,-0.5 561,-0.5"/>
<text text-anchor="middle" x="589" y="-8.5" font-family="Helvetica,sans-Serif" font-size="10.00">algorithm</text>
</g>
<!-- Node2&#45;&gt;Node7 -->
<g id="edge12" class="edge"><title>Node2&#45;&gt;Node7</title>
<path fill="none" stroke="midnightblue" d="M1469.82,-174.394C1473.39,-149.595 1478.26,-87.6827 1444,-58 1377.26,-0.168006 753.856,-34.8953 627.196,-21.4815"/>
<polygon fill="midnightblue" stroke="midnightblue" points="627.49,-17.9898 617.114,-20.1316 626.561,-24.9278 627.49,-17.9898"/>
</g>
<!-- Node8 -->
<g id="node15" class="node"><title>Node8</title>
<polygon fill="white" stroke="#bfbfbf" points="1125.5,-116.5 1125.5,-137.5 1184.5,-137.5 1184.5,-116.5 1125.5,-116.5"/>
<text text-anchor="middle" x="1155" y="-124.5" font-family="Helvetica,sans-Serif" font-size="10.00">stdexcept</text>
</g>
<!-- Node2&#45;&gt;Node8 -->
<g id="edge14" class="edge"><title>Node2&#45;&gt;Node8</title>
<path fill="none" stroke="midnightblue" d="M1427.72,-177.536C1367.47,-166.372 1254.58,-145.453 1194.68,-134.354"/>
<polygon fill="midnightblue" stroke="midnightblue" points="1195.31,-130.91 1184.84,-132.53 1194.04,-137.793 1195.31,-130.91"/>
</g>
<!-- Node9 -->
<g id="node17" class="node"><title>Node9</title>
<polygon fill="white" stroke="#bfbfbf" points="1628,-116.5 1628,-137.5 1668,-137.5 1668,-116.5 1628,-116.5"/>
<text text-anchor="middle" x="1648" y="-124.5" font-family="Helvetica,sans-Serif" font-size="10.00">limits</text>
</g>
<!-- Node2&#45;&gt;Node9 -->
<g id="edge16" class="edge"><title>Node2&#45;&gt;Node9</title>
<path fill="none" stroke="midnightblue" d="M1503.9,-174.497C1532.58,-165.957 1573.98,-153.296 1618.28,-138.125"/>
<polygon fill="midnightblue" stroke="midnightblue" points="1619.46,-141.42 1627.78,-134.851 1617.18,-134.803 1619.46,-141.42"/>
</g>
<!-- Node10 -->
<g id="node19" class="node"><title>Node10</title>
<polygon fill="white" stroke="#bfbfbf" points="1495.5,-116.5 1495.5,-137.5 1544.5,-137.5 1544.5,-116.5 1495.5,-116.5"/>
<text text-anchor="middle" x="1520" y="-124.5" font-family="Helvetica,sans-Serif" font-size="10.00">istream</text>
</g>
<!-- Node2&#45;&gt;Node10 -->
<g id="edge18" class="edge"><title>Node2&#45;&gt;Node10</title>
<path fill="none" stroke="midnightblue" d="M1477.54,-174.362C1484.87,-166.186 1495.16,-154.702 1503.78,-145.091"/>
<polygon fill="midnightblue" stroke="midnightblue" points="1506.45,-147.353 1510.52,-137.571 1501.24,-142.68 1506.45,-147.353"/>
</g>
<!-- Node4 -->
<g id="node7" class="node"><title>Node4</title>
<polygon fill="white" stroke="#bfbfbf" points="1242,-58.5 1242,-79.5 1304,-79.5 1304,-58.5 1242,-58.5"/>
<text text-anchor="middle" x="1273" y="-66.5" font-family="Helvetica,sans-Serif" font-size="10.00">type_traits</text>
</g>
<!-- Node3&#45;&gt;Node4 -->
<g id="edge6" class="edge"><title>Node3&#45;&gt;Node4</title>
<path fill="none" stroke="midnightblue" d="M1384.37,-116.497C1362.84,-107.315 1331.36,-93.8889 1307.36,-83.6516"/>
<polygon fill="midnightblue" stroke="midnightblue" points="1308.48,-80.3247 1297.9,-79.6212 1305.73,-86.7636 1308.48,-80.3247"/>
</g>
<!-- Node5 -->
<g id="node9" class="node"><title>Node5</title>
<polygon fill="white" stroke="#bfbfbf" points="1383,-58.5 1383,-79.5 1435,-79.5 1435,-58.5 1383,-58.5"/>
<text text-anchor="middle" x="1409" y="-66.5" font-family="Helvetica,sans-Serif" font-size="10.00">ostream</text>
</g>
<!-- Node3&#45;&gt;Node5 -->
<g id="edge8" class="edge"><title>Node3&#45;&gt;Node5</title>
<path fill="none" stroke="midnightblue" d="M1409,-116.362C1409,-108.922 1409,-98.7427 1409,-89.7276"/>
<polygon fill="midnightblue" stroke="midnightblue" points="1412.5,-89.5706 1409,-79.5707 1405.5,-89.5707 1412.5,-89.5706"/>
</g>
<!-- Node11&#45;&gt;Node8 -->
<g id="edge62" class="edge"><title>Node11&#45;&gt;Node8</title>
<path fill="none" stroke="midnightblue" d="M557.306,-182.077C654.977,-175.826 885.963,-159.921 1079,-138 1090.88,-136.65 1103.77,-134.896 1115.5,-133.186"/>
<polygon fill="midnightblue" stroke="midnightblue" points="1116.08,-136.638 1125.46,-131.706 1115.05,-129.714 1116.08,-136.638"/>
</g>
<!-- Node12 -->
<g id="node23" class="node"><title>Node12</title>
<a xlink:href="string_8h.html" target="_top" xlink:title="base/std_ext/string.h">
<polygon fill="white" stroke="black" points="553,-58.5 553,-79.5 661,-79.5 661,-58.5 553,-58.5"/>
<text text-anchor="middle" x="607" y="-66.5" font-family="Helvetica,sans-Serif" font-size="10.00">base/std_ext/string.h</text>
</a>
</g>
<!-- Node11&#45;&gt;Node12 -->
<g id="edge22" class="edge"><title>Node11&#45;&gt;Node12</title>
<path fill="none" stroke="midnightblue" d="M510.537,-174.102C511.763,-159.505 515.79,-133.427 529,-116 539.42,-102.254 555.125,-91.6877 569.718,-84.0879"/>
<polygon fill="midnightblue" stroke="midnightblue" points="571.629,-87.0499 579.081,-79.5184 568.559,-80.7591 571.629,-87.0499"/>
</g>
<!-- Node11&#45;&gt;Node13 -->
<g id="edge56" class="edge"><title>Node11&#45;&gt;Node13</title>
<path fill="none" stroke="midnightblue" d="M557.145,-177.371C601.478,-169.282 663.569,-155.293 681,-138 709.742,-109.487 715.959,-59.8478 717.052,-31.8182"/>
<polygon fill="midnightblue" stroke="midnightblue" points="720.556,-31.6432 717.257,-21.575 713.557,-31.5027 720.556,-31.6432"/>
</g>
<!-- Node16 -->
<g id="node32" class="node"><title>Node16</title>
<a xlink:href="misc_8h.html" target="_top" xlink:title="base/std_ext/misc.h">
<polygon fill="white" stroke="black" points="329.5,-116.5 329.5,-137.5 434.5,-137.5 434.5,-116.5 329.5,-116.5"/>
<text text-anchor="middle" x="382" y="-124.5" font-family="Helvetica,sans-Serif" font-size="10.00">base/std_ext/misc.h</text>
</a>
</g>
<!-- Node11&#45;&gt;Node16 -->
<g id="edge32" class="edge"><title>Node11&#45;&gt;Node16</title>
<path fill="none" stroke="midnightblue" d="M486.82,-174.497C466.648,-165.356 437.19,-152.008 414.636,-141.788"/>
<polygon fill="midnightblue" stroke="midnightblue" points="415.993,-138.561 405.44,-137.621 413.104,-144.937 415.993,-138.561"/>
</g>
<!-- Node17 -->
<g id="node35" class="node"><title>Node17</title>
<polygon fill="white" stroke="#bfbfbf" points="278.5,-58.5 278.5,-79.5 337.5,-79.5 337.5,-58.5 278.5,-58.5"/>
<text text-anchor="middle" x="308" y="-66.5" font-family="Helvetica,sans-Serif" font-size="10.00">functional</text>
</g>
<!-- Node11&#45;&gt;Node17 -->
<g id="edge64" class="edge"><title>Node11&#45;&gt;Node17</title>
<path fill="none" stroke="midnightblue" d="M462.592,-179.095C413.128,-171.945 340.149,-158.284 321,-138 308.947,-125.233 306.341,-104.989 306.368,-89.7232"/>
<polygon fill="midnightblue" stroke="midnightblue" points="309.868,-89.793 306.755,-79.6657 302.873,-89.5237 309.868,-89.793"/>
</g>
<!-- Node20 -->
<g id="node41" class="node"><title>Node20</title>
<polygon fill="white" stroke="#bfbfbf" points="537.5,-116.5 537.5,-137.5 584.5,-137.5 584.5,-116.5 537.5,-116.5"/>
<text text-anchor="middle" x="561" y="-124.5" font-family="Helvetica,sans-Serif" font-size="10.00">TFile.h</text>
</g>
<!-- Node11&#45;&gt;Node20 -->
<g id="edge42" class="edge"><title>Node11&#45;&gt;Node20</title>
<path fill="none" stroke="midnightblue" d="M519.354,-174.362C526.543,-166.186 536.641,-154.702 545.093,-145.091"/>
<polygon fill="midnightblue" stroke="midnightblue" points="547.73,-147.392 551.705,-137.571 542.473,-142.769 547.73,-147.392"/>
</g>
<!-- Node21 -->
<g id="node43" class="node"><title>Node21</title>
<polygon fill="white" stroke="#bfbfbf" points="601.5,-116.5 601.5,-137.5 672.5,-137.5 672.5,-116.5 601.5,-116.5"/>
<text text-anchor="middle" x="637" y="-124.5" font-family="Helvetica,sans-Serif" font-size="10.00">TDirectory.h</text>
</g>
<!-- Node11&#45;&gt;Node21 -->
<g id="edge44" class="edge"><title>Node11&#45;&gt;Node21</title>
<path fill="none" stroke="midnightblue" d="M532.999,-174.497C553.013,-165.356 582.241,-152.008 604.619,-141.788"/>
<polygon fill="midnightblue" stroke="midnightblue" points="606.101,-144.959 613.743,-137.621 603.193,-138.592 606.101,-144.959"/>
</g>
<!-- Node22 -->
<g id="node45" class="node"><title>Node22</title>
<polygon fill="white" stroke="#bfbfbf" points="0,-116.5 0,-137.5 52,-137.5 52,-116.5 0,-116.5"/>
<text text-anchor="middle" x="26" y="-124.5" font-family="Helvetica,sans-Serif" font-size="10.00">TError.h</text>
</g>
<!-- Node11&#45;&gt;Node22 -->
<g id="edge46" class="edge"><title>Node11&#45;&gt;Node22</title>
<path fill="none" stroke="midnightblue" d="M462.987,-183.175C382.494,-179.38 213.145,-168.472 62.1429,-137.904"/>
<polygon fill="midnightblue" stroke="midnightblue" points="62.7247,-134.45 52.2243,-135.862 61.3131,-141.306 62.7247,-134.45"/>
</g>
<!-- Node23 -->
<g id="node47" class="node"><title>Node23</title>
<polygon fill="white" stroke="#bfbfbf" points="69.5,-116.5 69.5,-137.5 116.5,-137.5 116.5,-116.5 69.5,-116.5"/>
<text text-anchor="middle" x="93" y="-124.5" font-family="Helvetica,sans-Serif" font-size="10.00">TList.h</text>
</g>
<!-- Node11&#45;&gt;Node23 -->
<g id="edge48" class="edge"><title>Node11&#45;&gt;Node23</title>
<path fill="none" stroke="midnightblue" d="M462.93,-182.439C391.681,-177.87 252.232,-166.221 126.409,-137.974"/>
<polygon fill="midnightblue" stroke="midnightblue" points="127.133,-134.549 116.605,-135.732 125.573,-141.373 127.133,-134.549"/>
</g>
<!-- Node24 -->
<g id="node49" class="node"><title>Node24</title>
<polygon fill="white" stroke="#bfbfbf" points="134,-116.5 134,-137.5 208,-137.5 208,-116.5 134,-116.5"/>
<text text-anchor="middle" x="171" y="-124.5" font-family="Helvetica,sans-Serif" font-size="10.00">TCollection.h</text>
</g>
<!-- Node11&#45;&gt;Node24 -->
<g id="edge50" class="edge"><title>Node11&#45;&gt;Node24</title>
<path fill="none" stroke="midnightblue" d="M462.864,-178.56C406.846,-170.658 310.354,-156.266 218.162,-138.125"/>
<polygon fill="midnightblue" stroke="midnightblue" points="218.594,-134.643 208.104,-136.127 217.231,-141.509 218.594,-134.643"/>
</g>
<!-- Node25 -->
<g id="node51" class="node"><title>Node25</title>
<polygon fill="white" stroke="#bfbfbf" points="226,-116.5 226,-137.5 274,-137.5 274,-116.5 226,-116.5"/>
<text text-anchor="middle" x="250" y="-124.5" font-family="Helvetica,sans-Serif" font-size="10.00">TKey.h</text>
</g>
<!-- Node11&#45;&gt;Node25 -->
<g id="edge52" class="edge"><title>Node11&#45;&gt;Node25</title>
<path fill="none" stroke="midnightblue" d="M462.997,-176.086C417.905,-167.29 348.002,-153.015 288,-138 286.726,-137.681 285.43,-137.349 284.123,-137.006"/>
<polygon fill="midnightblue" stroke="midnightblue" points="284.62,-133.513 274.051,-134.25 282.772,-140.265 284.62,-133.513"/>
</g>
<!-- Node11&#45;&gt;Node26 -->
<g id="edge54" class="edge"><title>Node11&#45;&gt;Node26</title>
<path fill="none" stroke="midnightblue" d="M557.129,-174.73C598.563,-165.561 660.438,-151.528 714,-138 715.257,-137.683 716.535,-137.355 717.825,-137.021"/>
<polygon fill="midnightblue" stroke="midnightblue" points="719.024,-140.324 727.792,-134.376 717.228,-133.558 719.024,-140.324"/>
</g>
<!-- Node11&#45;&gt;Node27 -->
<g id="edge58" class="edge"><title>Node11&#45;&gt;Node27</title>
<path fill="none" stroke="midnightblue" d="M557.345,-181.083C611.529,-175.714 702.768,-163.962 787.398,-137.915"/>
<polygon fill="midnightblue" stroke="midnightblue" points="788.667,-141.185 797.151,-134.839 786.562,-134.509 788.667,-141.185"/>
</g>
<!-- Node28 -->
<g id="node58" class="node"><title>Node28</title>
<polygon fill="white" stroke="#bfbfbf" points="452,-116.5 452,-137.5 482,-137.5 482,-116.5 452,-116.5"/>
<text text-anchor="middle" x="467" y="-124.5" font-family="Helvetica,sans-Serif" font-size="10.00">set</text>
</g>
<!-- Node11&#45;&gt;Node28 -->
<g id="edge60" class="edge"><title>Node11&#45;&gt;Node28</title>
<path fill="none" stroke="midnightblue" d="M502.113,-174.362C496.173,-166.35 487.878,-155.161 480.841,-145.67"/>
<polygon fill="midnightblue" stroke="midnightblue" points="483.604,-143.519 474.837,-137.571 477.981,-147.688 483.604,-143.519"/>
</g>
<!-- Node12&#45;&gt;Node7 -->
<g id="edge28" class="edge"><title>Node12&#45;&gt;Node7</title>
<path fill="none" stroke="midnightblue" d="M603.699,-58.3619C601.339,-50.7584 598.091,-40.294 595.249,-31.1349"/>
<polygon fill="midnightblue" stroke="midnightblue" points="598.587,-30.0839 592.281,-21.5707 591.902,-32.1587 598.587,-30.0839"/>
</g>
<!-- Node12&#45;&gt;Node13 -->
<g id="edge24" class="edge"><title>Node12&#45;&gt;Node13</title>
<path fill="none" stroke="midnightblue" d="M626.92,-58.4966C643.946,-49.5194 668.669,-36.4835 687.909,-26.3387"/>
<polygon fill="midnightblue" stroke="midnightblue" points="689.643,-29.3814 696.856,-21.6212 686.378,-23.1894 689.643,-29.3814"/>
</g>
<!-- Node14 -->
<g id="node27" class="node"><title>Node14</title>
<polygon fill="white" stroke="#bfbfbf" points="491,-0.5 491,-21.5 543,-21.5 543,-0.5 491,-0.5"/>
<text text-anchor="middle" x="517" y="-8.5" font-family="Helvetica,sans-Serif" font-size="10.00">sstream</text>
</g>
<!-- Node12&#45;&gt;Node14 -->
<g id="edge26" class="edge"><title>Node12&#45;&gt;Node14</title>
<path fill="none" stroke="midnightblue" d="M590.493,-58.3619C576.918,-49.6138 557.467,-37.0786 541.985,-27.1015"/>
<polygon fill="midnightblue" stroke="midnightblue" points="543.704,-24.0457 533.403,-21.5707 539.912,-29.9297 543.704,-24.0457"/>
</g>
<!-- Node15 -->
<g id="node30" class="node"><title>Node15</title>
<polygon fill="white" stroke="#bfbfbf" points="635,-0.5 635,-21.5 679,-21.5 679,-0.5 635,-0.5"/>
<text text-anchor="middle" x="657" y="-8.5" font-family="Helvetica,sans-Serif" font-size="10.00">vector</text>
</g>
<!-- Node12&#45;&gt;Node15 -->
<g id="edge30" class="edge"><title>Node12&#45;&gt;Node15</title>
<path fill="none" stroke="midnightblue" d="M616.171,-58.3619C623.148,-50.2678 632.921,-38.9318 641.156,-29.3796"/>
<polygon fill="midnightblue" stroke="midnightblue" points="644.009,-31.4301 647.887,-21.5707 638.707,-26.8595 644.009,-31.4301"/>
</g>
<!-- Node16&#45;&gt;Node7 -->
<g id="edge34" class="edge"><title>Node16&#45;&gt;Node7</title>
<path fill="none" stroke="midnightblue" d="M379.812,-116.379C377.393,-101.378 375.544,-74.0311 390,-58 437.271,-5.57844 477.05,-37.4855 550.653,-21.9981"/>
<polygon fill="midnightblue" stroke="midnightblue" points="551.844,-25.3134 560.775,-19.6135 550.239,-18.4999 551.844,-25.3134"/>
</g>
<!-- Node16&#45;&gt;Node17 -->
<g id="edge36" class="edge"><title>Node16&#45;&gt;Node17</title>
<path fill="none" stroke="midnightblue" d="M368.427,-116.362C357.579,-107.859 342.166,-95.7785 329.621,-85.9466"/>
<polygon fill="midnightblue" stroke="midnightblue" points="331.516,-82.9848 321.487,-79.5707 327.198,-88.4942 331.516,-82.9848"/>
</g>
<!-- Node18 -->
<g id="node37" class="node"><title>Node18</title>
<polygon fill="white" stroke="#bfbfbf" points="469,-58.5 469,-79.5 513,-79.5 513,-58.5 469,-58.5"/>
<text text-anchor="middle" x="491" y="-66.5" font-family="Helvetica,sans-Serif" font-size="10.00">cmath</text>
</g>
<!-- Node16&#45;&gt;Node18 -->
<g id="edge38" class="edge"><title>Node16&#45;&gt;Node18</title>
<path fill="none" stroke="midnightblue" d="M401.739,-116.497C418.61,-107.519 443.109,-94.4835 462.174,-84.3387"/>
<polygon fill="midnightblue" stroke="midnightblue" points="463.856,-87.4086 471.039,-79.6212 460.567,-81.2289 463.856,-87.4086"/>
</g>
<!-- Node19 -->
<g id="node39" class="node"><title>Node19</title>
<polygon fill="white" stroke="#bfbfbf" points="398.5,-58.5 398.5,-79.5 451.5,-79.5 451.5,-58.5 398.5,-58.5"/>
<text text-anchor="middle" x="425" y="-66.5" font-family="Helvetica,sans-Serif" font-size="10.00">cxxabi.h</text>
</g>
<!-- Node16&#45;&gt;Node19 -->
<g id="edge40" class="edge"><title>Node16&#45;&gt;Node19</title>
<path fill="none" stroke="midnightblue" d="M389.887,-116.362C395.827,-108.35 404.122,-97.1605 411.159,-87.6696"/>
<polygon fill="midnightblue" stroke="midnightblue" points="414.019,-89.6883 417.163,-79.5707 408.396,-85.5193 414.019,-89.6883"/>
</g>
<!-- Node29&#45;&gt;Node3 -->
<g id="edge70" class="edge"><title>Node29&#45;&gt;Node3</title>
<path fill="none" stroke="midnightblue" d="M1128.67,-180.669C1177.37,-173.578 1275.55,-158.417 1367.85,-138.11"/>
<polygon fill="midnightblue" stroke="midnightblue" points="1368.63,-141.524 1377.63,-135.935 1367.11,-134.691 1368.63,-141.524"/>
</g>
<!-- Node29&#45;&gt;Node4 -->
<g id="edge80" class="edge"><title>Node29&#45;&gt;Node4</title>
<path fill="none" stroke="midnightblue" d="M1123.55,-174.471C1143.24,-165.866 1170.76,-152.746 1193,-138 1215.91,-122.808 1239.41,-101.754 1254.97,-86.9096"/>
<polygon fill="midnightblue" stroke="midnightblue" points="1257.58,-89.2489 1262.33,-79.7767 1252.71,-84.2216 1257.58,-89.2489"/>
</g>
<!-- Node29&#45;&gt;Node8 -->
<g id="edge86" class="edge"><title>Node29&#45;&gt;Node8</title>
<path fill="none" stroke="midnightblue" d="M1108.45,-174.362C1116.57,-166.104 1128,-154.472 1137.5,-144.803"/>
<polygon fill="midnightblue" stroke="midnightblue" points="1140.1,-147.156 1144.61,-137.571 1135.11,-142.25 1140.1,-147.156"/>
</g>
<!-- Node29&#45;&gt;Node27 -->
<g id="edge88" class="edge"><title>Node29&#45;&gt;Node27</title>
<path fill="none" stroke="midnightblue" d="M1067.38,-182.228C1019.45,-177.316 923.91,-165.214 836.633,-137.947"/>
<polygon fill="midnightblue" stroke="midnightblue" points="837.447,-134.533 826.856,-134.816 835.312,-141.199 837.447,-134.533"/>
</g>
<!-- Node30 -->
<g id="node64" class="node"><title>Node30</title>
<polygon fill="white" stroke="#bfbfbf" points="1240,-116.5 1240,-137.5 1296,-137.5 1296,-116.5 1240,-116.5"/>
<text text-anchor="middle" x="1268" y="-124.5" font-family="Helvetica,sans-Serif" font-size="10.00">Rtypes.h</text>
</g>
<!-- Node29&#45;&gt;Node30 -->
<g id="edge68" class="edge"><title>Node29&#45;&gt;Node30</title>
<path fill="none" stroke="midnightblue" d="M1128.79,-174.497C1157.24,-164.789 1199.61,-150.335 1230.12,-139.923"/>
<polygon fill="midnightblue" stroke="midnightblue" points="1231.65,-143.101 1239.98,-136.559 1229.39,-136.476 1231.65,-143.101"/>
</g>
<!-- Node31 -->
<g id="node67" class="node"><title>Node31</title>
<a xlink:href="time_8h.html" target="_top" xlink:title="base/std_ext/time.h">
<polygon fill="white" stroke="black" points="967.5,-116.5 967.5,-137.5 1070.5,-137.5 1070.5,-116.5 967.5,-116.5"/>
<text text-anchor="middle" x="1019" y="-124.5" font-family="Helvetica,sans-Serif" font-size="10.00">base/std_ext/time.h</text>
</a>
</g>
<!-- Node29&#45;&gt;Node31 -->
<g id="edge72" class="edge"><title>Node29&#45;&gt;Node31</title>
<path fill="none" stroke="midnightblue" d="M1083.51,-174.362C1071.82,-165.777 1055.16,-153.546 1041.7,-143.664"/>
<polygon fill="midnightblue" stroke="midnightblue" points="1043.53,-140.667 1033.4,-137.571 1039.39,-146.31 1043.53,-140.667"/>
</g>
<!-- Node33 -->
<g id="node72" class="node"><title>Node33</title>
<polygon fill="white" stroke="#bfbfbf" points="1068.5,-58.5 1068.5,-79.5 1109.5,-79.5 1109.5,-58.5 1068.5,-58.5"/>
<text text-anchor="middle" x="1089" y="-66.5" font-family="Helvetica,sans-Serif" font-size="10.00">ctime</text>
</g>
<!-- Node29&#45;&gt;Node33 -->
<g id="edge92" class="edge"><title>Node29&#45;&gt;Node33</title>
<path fill="none" stroke="midnightblue" d="M1097.17,-174.295C1095.68,-155.131 1092.54,-114.654 1090.62,-89.8434"/>
<polygon fill="midnightblue" stroke="midnightblue" points="1094.09,-89.3785 1089.83,-79.6792 1087.11,-89.92 1094.09,-89.3785"/>
</g>
<!-- Node34 -->
<g id="node75" class="node"><title>Node34</title>
<polygon fill="white" stroke="#bfbfbf" points="912,-116.5 912,-137.5 950,-137.5 950,-116.5 912,-116.5"/>
<text text-anchor="middle" x="931" y="-124.5" font-family="Helvetica,sans-Serif" font-size="10.00">tuple</text>
</g>
<!-- Node29&#45;&gt;Node34 -->
<g id="edge82" class="edge"><title>Node29&#45;&gt;Node34</title>
<path fill="none" stroke="midnightblue" d="M1067.48,-175.151C1041.21,-166.568 1002.08,-153.542 959.861,-138.213"/>
<polygon fill="midnightblue" stroke="midnightblue" points="960.827,-134.84 950.233,-134.697 958.425,-141.415 960.827,-134.84"/>
</g>
<!-- Node35 -->
<g id="node77" class="node"><title>Node35</title>
<polygon fill="white" stroke="#bfbfbf" points="1314,-116.5 1314,-137.5 1360,-137.5 1360,-116.5 1314,-116.5"/>
<text text-anchor="middle" x="1337" y="-124.5" font-family="Helvetica,sans-Serif" font-size="10.00">cstdint</text>
</g>
<!-- Node29&#45;&gt;Node35 -->
<g id="edge84" class="edge"><title>Node29&#45;&gt;Node35</title>
<path fill="none" stroke="midnightblue" d="M1128.77,-179.093C1167.53,-171.42 1236.31,-157.029 1303.74,-138.16"/>
<polygon fill="midnightblue" stroke="midnightblue" points="1305.01,-141.438 1313.67,-135.344 1303.1,-134.704 1305.01,-141.438"/>
</g>
<!-- Node36 -->
<g id="node81" class="node"><title>Node36</title>
<polygon fill="white" stroke="#bfbfbf" points="844,-116.5 844,-137.5 894,-137.5 894,-116.5 844,-116.5"/>
<text text-anchor="middle" x="869" y="-124.5" font-family="Helvetica,sans-Serif" font-size="10.00">iomanip</text>
</g>
<!-- Node29&#45;&gt;Node36 -->
<g id="edge90" class="edge"><title>Node29&#45;&gt;Node36</title>
<path fill="none" stroke="midnightblue" d="M1067.41,-178.388C1030.74,-170.295 967.241,-155.757 903.931,-138.125"/>
<polygon fill="midnightblue" stroke="midnightblue" points="904.76,-134.722 894.186,-135.385 902.865,-141.461 904.76,-134.722"/>
</g>
<!-- Node31&#45;&gt;Node12 -->
<g id="edge74" class="edge"><title>Node31&#45;&gt;Node12</title>
<path fill="none" stroke="midnightblue" d="M967.317,-117.36C964.506,-116.887 961.72,-116.431 959,-116 858.735,-100.125 741.833,-85.2281 671.172,-76.6182"/>
<polygon fill="midnightblue" stroke="midnightblue" points="671.438,-73.125 661.089,-75.3942 670.595,-80.074 671.438,-73.125"/>
</g>
<!-- Node32 -->
<g id="node70" class="node"><title>Node32</title>
<polygon fill="white" stroke="#bfbfbf" points="996,-58.5 996,-79.5 1042,-79.5 1042,-58.5 996,-58.5"/>
<text text-anchor="middle" x="1019" y="-66.5" font-family="Helvetica,sans-Serif" font-size="10.00">cstring</text>
</g>
<!-- Node31&#45;&gt;Node32 -->
<g id="edge76" class="edge"><title>Node31&#45;&gt;Node32</title>
<path fill="none" stroke="midnightblue" d="M1019,-116.362C1019,-108.922 1019,-98.7427 1019,-89.7276"/>
<polygon fill="midnightblue" stroke="midnightblue" points="1022.5,-89.5706 1019,-79.5707 1015.5,-89.5707 1022.5,-89.5706"/>
</g>
<!-- Node31&#45;&gt;Node33 -->
<g id="edge78" class="edge"><title>Node31&#45;&gt;Node33</title>
<path fill="none" stroke="midnightblue" d="M1031.84,-116.362C1042,-107.941 1056.4,-96.0105 1068.2,-86.2308"/>
<polygon fill="midnightblue" stroke="midnightblue" points="1070.78,-88.6459 1076.24,-79.5707 1066.31,-83.2558 1070.78,-88.6459"/>
</g>
</g>
</svg>
