<?xml version="1.0" encoding="UTF-8" standalone="no"?>
<!DOCTYPE svg PUBLIC "-//W3C//DTD SVG 1.1//EN"
 "http://www.w3.org/Graphics/SVG/1.1/DTD/svg11.dtd">
<!-- Generated by graphviz version 2.26.3 (20100126.1600)
 -->
<!-- Title: src/root&#45;addons/analysis_codes/Math.h Pages: 1 -->
<svg width="456pt" height="276pt"
 viewBox="0.00 0.00 456.00 276.00" xmlns="http://www.w3.org/2000/svg" xmlns:xlink="http://www.w3.org/1999/xlink">
<g id="graph1" class="graph" transform="scale(1 1) rotate(0) translate(4 272)">
<title>src/root&#45;addons/analysis_codes/Math.h</title>
<polygon fill="white" stroke="white" points="-4,5 -4,-272 453,-272 453,5 -4,5"/>
<!-- Node1 -->
<g id="node1" class="node"><title>Node1</title>
<polygon fill="#bfbfbf" stroke="black" points="216.5,-233 216.5,-267 339.5,-267 339.5,-233 216.5,-233"/>
<text text-anchor="start" x="224.5" y="-254" font-family="Helvetica,sans-Serif" font-size="10.00">src/root&#45;addons/analysis</text>
<text text-anchor="middle" x="278" y="-241" font-family="Helvetica,sans-Serif" font-size="10.00">_codes/Math.h</text>
</g>
<!-- Node2 -->
<g id="node3" class="node"><title>Node2</title>
<polygon fill="white" stroke="#bfbfbf" points="175.5,-174.5 175.5,-195.5 204.5,-195.5 204.5,-174.5 175.5,-174.5"/>
<text text-anchor="middle" x="190" y="-182.5" font-family="Helvetica,sans-Serif" font-size="10.00">list</text>
</g>
<!-- Node1&#45;&gt;Node2 -->
<g id="edge2" class="edge"><title>Node1&#45;&gt;Node2</title>
<path fill="none" stroke="midnightblue" d="M254.879,-232.922C241.887,-223.326 225.734,-211.394 212.795,-201.837"/>
<polygon fill="midnightblue" stroke="midnightblue" points="214.553,-198.784 204.43,-195.658 210.394,-204.415 214.553,-198.784"/>
</g>
<!-- Node3 -->
<g id="node5" class="node"><title>Node3</title>
<a xlink:href="interval_8h.html" target="_top" xlink:title="base/interval.h">
<polygon fill="white" stroke="black" points="194,-116.5 194,-137.5 274,-137.5 274,-116.5 194,-116.5"/>
<text text-anchor="middle" x="234" y="-124.5" font-family="Helvetica,sans-Serif" font-size="10.00">base/interval.h</text>
</a>
</g>
<!-- Node1&#45;&gt;Node3 -->
<g id="edge4" class="edge"><title>Node1&#45;&gt;Node3</title>
<path fill="none" stroke="midnightblue" d="M268.236,-232.926C262.595,-222.513 255.706,-208.788 251,-196 245.15,-180.103 240.685,-161.411 237.802,-147.494"/>
<polygon fill="midnightblue" stroke="midnightblue" points="241.201,-146.637 235.833,-137.502 234.333,-147.99 241.201,-146.637"/>
</g>
<!-- Node12 -->
<g id="node23" class="node"><title>Node12</title>
<a xlink:href="piecewise__interval_8h.html" target="_top" xlink:title="base/piecewise_interval.h">
<polygon fill="white" stroke="black" points="259.5,-174.5 259.5,-195.5 388.5,-195.5 388.5,-174.5 259.5,-174.5"/>
<text text-anchor="middle" x="324" y="-182.5" font-family="Helvetica,sans-Serif" font-size="10.00">base/piecewise_interval.h</text>
</a>
</g>
<!-- Node1&#45;&gt;Node12 -->
<g id="edge22" class="edge"><title>Node1&#45;&gt;Node12</title>
<path fill="none" stroke="midnightblue" d="M290.086,-232.922C296.315,-224.12 303.934,-213.354 310.372,-204.258"/>
<polygon fill="midnightblue" stroke="midnightblue" points="313.4,-206.037 316.32,-195.852 307.686,-201.993 313.4,-206.037"/>
</g>
<!-- Node14 -->
<g id="node29" class="node"><title>Node14</title>
<polygon fill="white" stroke="#bfbfbf" points="406,-174.5 406,-195.5 448,-195.5 448,-174.5 406,-174.5"/>
<text text-anchor="middle" x="427" y="-182.5" font-family="Helvetica,sans-Serif" font-size="10.00">TF1.h</text>
</g>
<!-- Node1&#45;&gt;Node14 -->
<g id="edge30" class="edge"><title>Node1&#45;&gt;Node14</title>
<path fill="none" stroke="midnightblue" d="M317.148,-232.922C341.894,-222.127 373.414,-208.376 396.339,-198.376"/>
<polygon fill="midnightblue" stroke="midnightblue" points="397.826,-201.545 405.592,-194.339 395.027,-195.129 397.826,-201.545"/>
</g>
<!-- Node4 -->
<g id="node7" class="node"><title>Node4</title>
<a xlink:href="printable_8h.html" target="_top" xlink:title="printable.h">
<polygon fill="white" stroke="black" points="340,-58.5 340,-79.5 402,-79.5 402,-58.5 340,-58.5"/>
<text text-anchor="middle" x="371" y="-66.5" font-family="Helvetica,sans-Serif" font-size="10.00">printable.h</text>
</a>
</g>
<!-- Node3&#45;&gt;Node4 -->
<g id="edge6" class="edge"><title>Node3&#45;&gt;Node4</title>
<path fill="none" stroke="midnightblue" d="M258.81,-116.497C280.496,-107.315 312.211,-93.8889 336.392,-83.6516"/>
<polygon fill="midnightblue" stroke="midnightblue" points="338.068,-86.7429 345.912,-79.6212 335.339,-80.2968 338.068,-86.7429"/>
</g>
<!-- Node7 -->
<g id="node13" class="node"><title>Node7</title>
<a xlink:href="types_8h.html" target="_top" xlink:title="types.h">
<polygon fill="white" stroke="black" points="-0.5,-58.5 -0.5,-79.5 48.5,-79.5 48.5,-58.5 -0.5,-58.5"/>
<text text-anchor="middle" x="24" y="-66.5" font-family="Helvetica,sans-Serif" font-size="10.00">types.h</text>
</a>
</g>
<!-- Node3&#45;&gt;Node7 -->
<g id="edge12" class="edge"><title>Node3&#45;&gt;Node7</title>
<path fill="none" stroke="midnightblue" d="M193.731,-117.067C159.835,-108.537 109.885,-95.5715 58.4345,-80.3274"/>
<polygon fill="midnightblue" stroke="midnightblue" points="59.397,-76.9622 48.8136,-77.455 57.3944,-83.6696 59.397,-76.9622"/>
</g>
<!-- Node8 -->
<g id="node15" class="node"><title>Node8</title>
<polygon fill="white" stroke="#bfbfbf" points="66,-58.5 66,-79.5 122,-79.5 122,-58.5 66,-58.5"/>
<text text-anchor="middle" x="94" y="-66.5" font-family="Helvetica,sans-Serif" font-size="10.00">algorithm</text>
</g>
<!-- Node3&#45;&gt;Node8 -->
<g id="edge14" class="edge"><title>Node3&#45;&gt;Node8</title>
<path fill="none" stroke="midnightblue" d="M208.647,-116.497C186.387,-107.275 153.788,-93.7695 129.037,-83.5153"/>
<polygon fill="midnightblue" stroke="midnightblue" points="130.216,-80.2152 119.637,-79.6212 127.536,-86.6822 130.216,-80.2152"/>
</g>
<!-- Node9 -->
<g id="node17" class="node"><title>Node9</title>
<polygon fill="white" stroke="#bfbfbf" points="139.5,-58.5 139.5,-79.5 198.5,-79.5 198.5,-58.5 139.5,-58.5"/>
<text text-anchor="middle" x="169" y="-66.5" font-family="Helvetica,sans-Serif" font-size="10.00">stdexcept</text>
</g>
<!-- Node3&#45;&gt;Node9 -->
<g id="edge16" class="edge"><title>Node3&#45;&gt;Node9</title>
<path fill="none" stroke="midnightblue" d="M222.078,-116.362C212.641,-107.941 199.27,-96.0105 188.31,-86.2308"/>
<polygon fill="midnightblue" stroke="midnightblue" points="190.638,-83.6171 180.846,-79.5707 185.978,-88.8401 190.638,-83.6171"/>
</g>
<!-- Node10 -->
<g id="node19" class="node"><title>Node10</title>
<polygon fill="white" stroke="#bfbfbf" points="216,-58.5 216,-79.5 256,-79.5 256,-58.5 216,-58.5"/>
<text text-anchor="middle" x="236" y="-66.5" font-family="Helvetica,sans-Serif" font-size="10.00">limits</text>
</g>
<!-- Node3&#45;&gt;Node10 -->
<g id="edge18" class="edge"><title>Node3&#45;&gt;Node10</title>
<path fill="none" stroke="midnightblue" d="M234.367,-116.362C234.623,-108.922 234.974,-98.7427 235.285,-89.7276"/>
<polygon fill="midnightblue" stroke="midnightblue" points="238.789,-89.6854 235.635,-79.5707 231.793,-89.4441 238.789,-89.6854"/>
</g>
<!-- Node11 -->
<g id="node21" class="node"><title>Node11</title>
<polygon fill="white" stroke="#bfbfbf" points="273.5,-58.5 273.5,-79.5 322.5,-79.5 322.5,-58.5 273.5,-58.5"/>
<text text-anchor="middle" x="298" y="-66.5" font-family="Helvetica,sans-Serif" font-size="10.00">istream</text>
</g>
<!-- Node3&#45;&gt;Node11 -->
<g id="edge20" class="edge"><title>Node3&#45;&gt;Node11</title>
<path fill="none" stroke="midnightblue" d="M245.739,-116.362C254.941,-108.023 267.94,-96.2418 278.672,-86.5162"/>
<polygon fill="midnightblue" stroke="midnightblue" points="281.276,-88.8793 286.336,-79.5707 276.576,-83.6924 281.276,-88.8793"/>
</g>
<!-- Node5 -->
<g id="node9" class="node"><title>Node5</title>
<polygon fill="white" stroke="#bfbfbf" points="302,-0.5 302,-21.5 364,-21.5 364,-0.5 302,-0.5"/>
<text text-anchor="middle" x="333" y="-8.5" font-family="Helvetica,sans-Serif" font-size="10.00">type_traits</text>
</g>
<!-- Node4&#45;&gt;Node5 -->
<g id="edge8" class="edge"><title>Node4&#45;&gt;Node5</title>
<path fill="none" stroke="midnightblue" d="M364.03,-58.3619C358.834,-50.4313 351.599,-39.3885 345.422,-29.9606"/>
<polygon fill="midnightblue" stroke="midnightblue" points="348.334,-28.0172 339.926,-21.5707 342.478,-31.8534 348.334,-28.0172"/>
</g>
<!-- Node6 -->
<g id="node11" class="node"><title>Node6</title>
<polygon fill="white" stroke="#bfbfbf" points="382,-0.5 382,-21.5 434,-21.5 434,-0.5 382,-0.5"/>
<text text-anchor="middle" x="408" y="-8.5" font-family="Helvetica,sans-Serif" font-size="10.00">ostream</text>
</g>
<!-- Node4&#45;&gt;Node6 -->
<g id="edge10" class="edge"><title>Node4&#45;&gt;Node6</title>
<path fill="none" stroke="midnightblue" d="M377.786,-58.3619C382.793,-50.5131 389.745,-39.6159 395.718,-30.2527"/>
<polygon fill="midnightblue" stroke="midnightblue" points="398.829,-31.8837 401.257,-21.5707 392.928,-28.1189 398.829,-31.8837"/>
</g>
<!-- Node12&#45;&gt;Node3 -->
<g id="edge24" class="edge"><title>Node12&#45;&gt;Node3</title>
<path fill="none" stroke="midnightblue" d="M307.493,-174.362C293.918,-165.614 274.467,-153.079 258.985,-143.101"/>
<polygon fill="midnightblue" stroke="midnightblue" points="260.704,-140.046 250.403,-137.571 256.912,-145.93 260.704,-140.046"/>
</g>
<!-- Node12&#45;&gt;Node4 -->
<g id="edge26" class="edge"><title>Node12&#45;&gt;Node4</title>
<path fill="none" stroke="midnightblue" d="M331.552,-174.24C337.76,-164.989 346.413,-151.106 352,-138 358.69,-122.307 363.669,-103.6 366.848,-89.6261"/>
<polygon fill="midnightblue" stroke="midnightblue" points="370.328,-90.0942 369.01,-79.5816 363.484,-88.6212 370.328,-90.0942"/>
</g>
<!-- Node13 -->
<g id="node27" class="node"><title>Node13</title>
<polygon fill="white" stroke="#bfbfbf" points="299,-116.5 299,-137.5 343,-137.5 343,-116.5 299,-116.5"/>
<text text-anchor="middle" x="321" y="-124.5" font-family="Helvetica,sans-Serif" font-size="10.00">vector</text>
</g>
<!-- Node12&#45;&gt;Node13 -->
<g id="edge28" class="edge"><title>Node12&#45;&gt;Node13</title>
<path fill="none" stroke="midnightblue" d="M323.45,-174.362C323.065,-166.922 322.538,-156.743 322.072,-147.728"/>
<polygon fill="midnightblue" stroke="midnightblue" points="325.559,-147.376 321.547,-137.571 318.568,-147.738 325.559,-147.376"/>
</g>
</g>
</svg>
