<?xml version="1.0" encoding="UTF-8" standalone="no"?>
<!DOCTYPE svg PUBLIC "-//W3C//DTD SVG 1.1//EN"
 "http://www.w3.org/Graphics/SVG/1.1/DTD/svg11.dtd">
<!-- Generated by graphviz version 2.26.3 (20100126.1600)
 -->
<!-- Title: src/calibration/converters/MultiHitReference.h Pages: 1 -->
<svg width="850pt" height="260pt"
 viewBox="0.00 0.00 850.00 260.00" xmlns="http://www.w3.org/2000/svg" xmlns:xlink="http://www.w3.org/1999/xlink">
<g id="graph1" class="graph" transform="scale(1 1) rotate(0) translate(4 256)">
<title>src/calibration/converters/MultiHitReference.h</title>
<polygon fill="white" stroke="white" points="-4,5 -4,-256 847,-256 847,5 -4,5"/>
<!-- Node1 -->
<g id="node1" class="node"><title>Node1</title>
<polygon fill="#bfbfbf" stroke="black" points="347,-217 347,-251 473,-251 473,-217 347,-217"/>
<text text-anchor="start" x="355" y="-238" font-family="Helvetica,sans-Serif" font-size="10.00">src/calibration/converters</text>
<text text-anchor="middle" x="410" y="-225" font-family="Helvetica,sans-Serif" font-size="10.00">/MultiHitReference.h</text>
</g>
<!-- Node2 -->
<g id="node3" class="node"><title>Node2</title>
<a xlink:href="analysis_2physics_2calibration_2_time_8cc.html" target="_top" xlink:title="src/analysis/physics\l/calibration/Time.cc">
<polygon fill="white" stroke="black" points="147,-145 147,-179 253,-179 253,-145 147,-145"/>
<text text-anchor="start" x="155" y="-166" font-family="Helvetica,sans-Serif" font-size="10.00">src/analysis/physics</text>
<text text-anchor="middle" x="200" y="-153" font-family="Helvetica,sans-Serif" font-size="10.00">/calibration/Time.cc</text>
</a>
</g>
<!-- Node1&#45;&gt;Node2 -->
<g id="edge2" class="edge"><title>Node1&#45;&gt;Node2</title>
<path fill="none" stroke="midnightblue" d="M350.595,-213.633C318.767,-202.72 280.002,-189.429 249.773,-179.065"/>
<polygon fill="midnightblue" stroke="midnightblue" points="349.638,-217.005 360.233,-216.937 351.909,-210.383 349.638,-217.005"/>
</g>
<!-- Node3 -->
<g id="node5" class="node"><title>Node3</title>
<a xlink:href="_c_a_t_c_h___t_d_c_8h.html" target="_top" xlink:title="src/calibration/converters\l/CATCH_TDC.h">
<polygon fill="white" stroke="black" points="347,-145 347,-179 473,-179 473,-145 347,-145"/>
<text text-anchor="start" x="355" y="-166" font-family="Helvetica,sans-Serif" font-size="10.00">src/calibration/converters</text>
<text text-anchor="middle" x="410" y="-153" font-family="Helvetica,sans-Serif" font-size="10.00">/CATCH_TDC.h</text>
</a>
</g>
<!-- Node1&#45;&gt;Node3 -->
<g id="edge4" class="edge"><title>Node1&#45;&gt;Node3</title>
<path fill="none" stroke="midnightblue" d="M410,-206.719C410,-197.572 410,-187.625 410,-179.441"/>
<polygon fill="midnightblue" stroke="midnightblue" points="406.5,-206.937 410,-216.937 413.5,-206.937 406.5,-206.937"/>
</g>
<!-- Node6 -->
<g id="node11" class="node"><title>Node6</title>
<a xlink:href="_setup__2007___base_8cc.html" target="_top" xlink:title="src/expconfig/setups\l/Setup_2007_Base.cc">
<polygon fill="white" stroke="black" points="-0.5,-73 -0.5,-107 112.5,-107 112.5,-73 -0.5,-73"/>
<text text-anchor="start" x="7.5" y="-94" font-family="Helvetica,sans-Serif" font-size="10.00">src/expconfig/setups</text>
<text text-anchor="middle" x="56" y="-81" font-family="Helvetica,sans-Serif" font-size="10.00">/Setup_2007_Base.cc</text>
</a>
</g>
<!-- Node1&#45;&gt;Node6 -->
<g id="edge22" class="edge"><title>Node1&#45;&gt;Node6</title>
<path fill="none" stroke="midnightblue" d="M353.8,-212.866C334.257,-204.188 312.792,-193.08 295,-180 277.512,-167.144 280.623,-155.148 262,-144 206.507,-110.78 183.502,-124.631 121,-108 118.284,-107.277 115.506,-106.532 112.702,-105.775"/>
<polygon fill="midnightblue" stroke="midnightblue" points="352.647,-216.181 363.215,-216.93 355.42,-209.754 352.647,-216.181"/>
</g>
<!-- Node7 -->
<g id="node13" class="node"><title>Node7</title>
<a xlink:href="_setup__2014___e_p_t_8cc.html" target="_top" xlink:title="src/expconfig/setups\l/Setup_2014_EPT.cc">
<polygon fill="white" stroke="black" points="130,-73 130,-107 240,-107 240,-73 130,-73"/>
<text text-anchor="start" x="138" y="-94" font-family="Helvetica,sans-Serif" font-size="10.00">src/expconfig/setups</text>
<text text-anchor="middle" x="185" y="-81" font-family="Helvetica,sans-Serif" font-size="10.00">/Setup_2014_EPT.cc</text>
</a>
</g>
<!-- Node1&#45;&gt;Node7 -->
<g id="edge24" class="edge"><title>Node1&#45;&gt;Node7</title>
<path fill="none" stroke="midnightblue" d="M378.044,-210.605C365.451,-201.237 350.933,-190.252 338,-180 318.468,-164.517 315.894,-157.59 295,-144 273.065,-129.732 246.814,-116.709 225.459,-107.028"/>
<polygon fill="midnightblue" stroke="midnightblue" points="376.293,-213.663 386.412,-216.803 380.46,-208.038 376.293,-213.663"/>
</g>
<!-- Node8 -->
<g id="node15" class="node"><title>Node8</title>
<a xlink:href="_setup__2015__01___pion_8cc.html" target="_top" xlink:title="src/expconfig/setups\l/Setup_2015_01_Pion.cc">
<polygon fill="white" stroke="black" points="571.5,-73 571.5,-107 696.5,-107 696.5,-73 571.5,-73"/>
<text text-anchor="start" x="579.5" y="-94" font-family="Helvetica,sans-Serif" font-size="10.00">src/expconfig/setups</text>
<text text-anchor="middle" x="634" y="-81" font-family="Helvetica,sans-Serif" font-size="10.00">/Setup_2015_01_Pion.cc</text>
</a>
</g>
<!-- Node1&#45;&gt;Node8 -->
<g id="edge26" class="edge"><title>Node1&#45;&gt;Node8</title>
<path fill="none" stroke="midnightblue" d="M441.956,-210.605C454.549,-201.237 469.067,-190.252 482,-180 501.532,-164.517 504.131,-157.628 525,-144 546.749,-129.797 572.761,-116.777 593.919,-107.081"/>
<polygon fill="midnightblue" stroke="midnightblue" points="439.54,-208.038 433.588,-216.803 443.707,-213.663 439.54,-208.038"/>
</g>
<!-- Node10 -->
<g id="node19" class="node"><title>Node10</title>
<a xlink:href="expconfig__helpers_8cc.html" target="_top" xlink:title="test/expconfig_helpers.cc">
<polygon fill="white" stroke="black" points="714,-79.5 714,-100.5 842,-100.5 842,-79.5 714,-79.5"/>
<text text-anchor="middle" x="778" y="-87.5" font-family="Helvetica,sans-Serif" font-size="10.00">test/expconfig_helpers.cc</text>
</a>
</g>
<!-- Node1&#45;&gt;Node10 -->
<g id="edge28" class="edge"><title>Node1&#45;&gt;Node10</title>
<path fill="none" stroke="midnightblue" d="M458.976,-212.51C477.723,-203.465 498.929,-192.204 517,-180 537.096,-166.429 536.495,-155.206 558,-144 617.652,-112.917 639.679,-124.052 705,-108 714.761,-105.601 725.254,-103.017 735.156,-100.576"/>
<polygon fill="midnightblue" stroke="midnightblue" points="457.251,-209.455 449.712,-216.899 460.248,-215.781 457.251,-209.455"/>
</g>
<!-- Node11 -->
<g id="node21" class="node"><title>Node11</title>
<a xlink:href="_multi_hit_reference_8cc.html" target="_top" xlink:title="src/calibration/converters\l/MultiHitReference.cc">
<polygon fill="white" stroke="black" points="567,-145 567,-179 693,-179 693,-145 567,-145"/>
<text text-anchor="start" x="575" y="-166" font-family="Helvetica,sans-Serif" font-size="10.00">src/calibration/converters</text>
<text text-anchor="middle" x="630" y="-153" font-family="Helvetica,sans-Serif" font-size="10.00">/MultiHitReference.cc</text>
</a>
</g>
<!-- Node1&#45;&gt;Node11 -->
<g id="edge20" class="edge"><title>Node1&#45;&gt;Node11</title>
<path fill="none" stroke="midnightblue" d="M471.803,-213.774C505.227,-202.835 546.052,-189.474 577.857,-179.065"/>
<polygon fill="midnightblue" stroke="midnightblue" points="470.552,-210.5 462.137,-216.937 472.73,-217.153 470.552,-210.5"/>
</g>
<!-- Node4 -->
<g id="node7" class="node"><title>Node4</title>
<a xlink:href="analysis_2physics_2calibration_2_c_b___source_calib_8h.html" target="_top" xlink:title="src/analysis/physics\l/calibration/CB_SourceCalib.h">
<polygon fill="white" stroke="black" points="258,-73 258,-107 406,-107 406,-73 258,-73"/>
<text text-anchor="start" x="266" y="-94" font-family="Helvetica,sans-Serif" font-size="10.00">src/analysis/physics</text>
<text text-anchor="middle" x="332" y="-81" font-family="Helvetica,sans-Serif" font-size="10.00">/calibration/CB_SourceCalib.h</text>
</a>
</g>
<!-- Node3&#45;&gt;Node4 -->
<g id="edge6" class="edge"><title>Node3&#45;&gt;Node4</title>
<path fill="none" stroke="midnightblue" d="M383.901,-137.908C372.997,-127.844 360.578,-116.38 350.623,-107.19"/>
<polygon fill="midnightblue" stroke="midnightblue" points="381.793,-140.726 391.515,-144.937 386.541,-135.582 381.793,-140.726"/>
</g>
<!-- Node3&#45;&gt;Node6 -->
<g id="edge10" class="edge"><title>Node3&#45;&gt;Node6</title>
<path fill="none" stroke="midnightblue" d="M336.906,-150.12C278.264,-140.162 193.98,-124.891 121,-108 118.262,-107.366 115.466,-106.693 112.647,-105.994"/>
<polygon fill="midnightblue" stroke="midnightblue" points="336.376,-153.58 346.819,-151.794 337.542,-146.678 336.376,-153.58"/>
</g>
<!-- Node3&#45;&gt;Node7 -->
<g id="edge12" class="edge"><title>Node3&#45;&gt;Node7</title>
<path fill="none" stroke="midnightblue" d="M346.792,-141.774C312.608,-130.835 270.856,-117.474 238.329,-107.065"/>
<polygon fill="midnightblue" stroke="midnightblue" points="346.087,-145.223 356.678,-144.937 348.221,-138.556 346.087,-145.223"/>
</g>
<!-- Node3&#45;&gt;Node8 -->
<g id="edge14" class="edge"><title>Node3&#45;&gt;Node8</title>
<path fill="none" stroke="midnightblue" d="M472.927,-141.774C506.959,-130.835 548.526,-117.474 580.908,-107.065"/>
<polygon fill="midnightblue" stroke="midnightblue" points="471.534,-138.545 463.085,-144.937 473.676,-145.209 471.534,-138.545"/>
</g>
<!-- Node9 -->
<g id="node17" class="node"><title>Node9</title>
<a xlink:href="_setup___c_b_source_calib_8cc.html" target="_top" xlink:title="src/expconfig/setups\l/Setup_CBSourceCalib.cc">
<polygon fill="white" stroke="black" points="423.5,-73 423.5,-107 554.5,-107 554.5,-73 423.5,-73"/>
<text text-anchor="start" x="431.5" y="-94" font-family="Helvetica,sans-Serif" font-size="10.00">src/expconfig/setups</text>
<text text-anchor="middle" x="489" y="-81" font-family="Helvetica,sans-Serif" font-size="10.00">/Setup_CBSourceCalib.cc</text>
</a>
</g>
<!-- Node3&#45;&gt;Node9 -->
<g id="edge16" class="edge"><title>Node3&#45;&gt;Node9</title>
<path fill="none" stroke="midnightblue" d="M436.434,-137.908C447.477,-127.844 460.055,-116.38 470.139,-107.19"/>
<polygon fill="midnightblue" stroke="midnightblue" points="433.755,-135.614 428.722,-144.937 438.47,-140.788 433.755,-135.614"/>
</g>
<!-- Node3&#45;&gt;Node10 -->
<g id="edge18" class="edge"><title>Node3&#45;&gt;Node10</title>
<path fill="none" stroke="midnightblue" d="M483.341,-149.849C543.178,-139.629 629.808,-124.137 705,-108 715.465,-105.754 726.716,-103.1 737.175,-100.53"/>
<polygon fill="midnightblue" stroke="midnightblue" points="482.504,-146.441 473.232,-151.568 483.678,-153.342 482.504,-146.441"/>
</g>
<!-- Node5 -->
<g id="node9" class="node"><title>Node5</title>
<a xlink:href="analysis_2physics_2calibration_2_c_b___source_calib_8cc.html" target="_top" xlink:title="src/analysis/physics\l/calibration/CB_SourceCalib.cc">
<polygon fill="white" stroke="black" points="255.5,-1 255.5,-35 408.5,-35 408.5,-1 255.5,-1"/>
<text text-anchor="start" x="263.5" y="-22" font-family="Helvetica,sans-Serif" font-size="10.00">src/analysis/physics</text>
<text text-anchor="middle" x="332" y="-9" font-family="Helvetica,sans-Serif" font-size="10.00">/calibration/CB_SourceCalib.cc</text>
</a>
</g>
<!-- Node4&#45;&gt;Node5 -->
<g id="edge8" class="edge"><title>Node4&#45;&gt;Node5</title>
<path fill="none" stroke="midnightblue" d="M332,-62.7193C332,-53.572 332,-43.6255 332,-35.4407"/>
<polygon fill="midnightblue" stroke="midnightblue" points="328.5,-62.937 332,-72.937 335.5,-62.937 328.5,-62.937"/>
</g>
</g>
</svg>
