<?xml version="1.0" encoding="UTF-8" standalone="no"?>
<!DOCTYPE svg PUBLIC "-//W3C//DTD SVG 1.1//EN"
 "http://www.w3.org/Graphics/SVG/1.1/DTD/svg11.dtd">
<!-- Generated by graphviz version 2.26.3 (20100126.1600)
 -->
<!-- Title: src/analysis/utils/uncertainties/Optimized.cc Pages: 1 -->
<svg width="3276pt" height="680pt"
 viewBox="0.00 0.00 3276.00 680.00" xmlns="http://www.w3.org/2000/svg" xmlns:xlink="http://www.w3.org/1999/xlink">
<g id="graph1" class="graph" transform="scale(1 1) rotate(0) translate(4 676)">
<title>src/analysis/utils/uncertainties/Optimized.cc</title>
<polygon fill="white" stroke="white" points="-4,5 -4,-676 3273,-676 3273,5 -4,5"/>
<!-- Node1 -->
<g id="node1" class="node"><title>Node1</title>
<polygon fill="#bfbfbf" stroke="black" points="1185,-637 1185,-671 1321,-671 1321,-637 1185,-637"/>
<text text-anchor="start" x="1193" y="-658" font-family="Helvetica,sans-Serif" font-size="10.00">src/analysis/utils</text>
<text text-anchor="middle" x="1253" y="-645" font-family="Helvetica,sans-Serif" font-size="10.00">/uncertainties/Optimized.cc</text>
</g>
<!-- Node2 -->
<g id="node3" class="node"><title>Node2</title>
<a xlink:href="_optimized_8h.html" target="_top" xlink:title="Optimized.h">
<polygon fill="white" stroke="black" points="881.5,-506.5 881.5,-527.5 950.5,-527.5 950.5,-506.5 881.5,-506.5"/>
<text text-anchor="middle" x="916" y="-514.5" font-family="Helvetica,sans-Serif" font-size="10.00">Optimized.h</text>
</a>
</g>
<!-- Node1&#45;&gt;Node2 -->
<g id="edge2" class="edge"><title>Node1&#45;&gt;Node2</title>
<path fill="none" stroke="midnightblue" d="M1211,-636.926C1144.01,-609.691 1014.14,-556.898 951.498,-531.431"/>
<polygon fill="midnightblue" stroke="midnightblue" points="952.623,-528.11 942.041,-527.586 949.987,-534.595 952.623,-528.11"/>
</g>
<!-- Node14 -->
<g id="node29" class="node"><title>Node14</title>
<a xlink:href="math_8h.html" target="_top" xlink:title="base/std_ext/math.h">
<polygon fill="white" stroke="black" points="1054,-116.5 1054,-137.5 1160,-137.5 1160,-116.5 1054,-116.5"/>
<text text-anchor="middle" x="1107" y="-124.5" font-family="Helvetica,sans-Serif" font-size="10.00">base/std_ext/math.h</text>
</a>
</g>
<!-- Node1&#45;&gt;Node14 -->
<g id="edge330" class="edge"><title>Node1&#45;&gt;Node14</title>
<path fill="none" stroke="midnightblue" d="M1184.73,-643.829C1104.15,-629.168 968.983,-596.011 873,-528 843.763,-507.284 830.422,-503.224 817,-470 806.722,-444.558 810.17,-267.094 913,-174 932.168,-156.647 994.904,-143.555 1043.9,-135.653"/>
<polygon fill="midnightblue" stroke="midnightblue" points="1044.48,-139.105 1053.82,-134.093 1043.4,-132.19 1044.48,-139.105"/>
</g>
<!-- Node38 -->
<g id="node112" class="node"><title>Node38</title>
<a xlink:href="_exp_config_8h.html" target="_top" xlink:title="expconfig/ExpConfig.h">
<polygon fill="white" stroke="black" points="1448,-448.5 1448,-469.5 1564,-469.5 1564,-448.5 1448,-448.5"/>
<text text-anchor="middle" x="1506" y="-456.5" font-family="Helvetica,sans-Serif" font-size="10.00">expconfig/ExpConfig.h</text>
</a>
</g>
<!-- Node1&#45;&gt;Node38 -->
<g id="edge148" class="edge"><title>Node1&#45;&gt;Node38</title>
<path fill="none" stroke="midnightblue" d="M1239.62,-636.703C1226.51,-617.492 1210.58,-586.257 1226,-564 1252.16,-526.251 1375.9,-490.527 1449.85,-472.06"/>
<polygon fill="midnightblue" stroke="midnightblue" points="1451.07,-475.364 1459.94,-469.57 1449.39,-468.568 1451.07,-475.364"/>
</g>
<!-- Node62 -->
<g id="node207" class="node"><title>Node62</title>
<a xlink:href="_c_b_8h.html" target="_top" xlink:title="expconfig/detectors/CB.h">
<polygon fill="white" stroke="black" points="1235,-571.5 1235,-592.5 1363,-592.5 1363,-571.5 1235,-571.5"/>
<text text-anchor="middle" x="1299" y="-579.5" font-family="Helvetica,sans-Serif" font-size="10.00">expconfig/detectors/CB.h</text>
</a>
</g>
<!-- Node1&#45;&gt;Node62 -->
<g id="edge290" class="edge"><title>Node1&#45;&gt;Node62</title>
<path fill="none" stroke="midnightblue" d="M1263.9,-636.937C1270.71,-626.281 1279.49,-612.53 1286.57,-601.452"/>
<polygon fill="midnightblue" stroke="midnightblue" points="1289.6,-603.212 1292.04,-592.901 1283.7,-599.444 1289.6,-603.212"/>
</g>
<!-- Node65 -->
<g id="node224" class="node"><title>Node65</title>
<a xlink:href="_t_a_p_s_8h.html" target="_top" xlink:title="expconfig/detectors\l/TAPS.h">
<polygon fill="white" stroke="black" points="1381,-565 1381,-599 1483,-599 1483,-565 1381,-565"/>
<text text-anchor="start" x="1389" y="-586" font-family="Helvetica,sans-Serif" font-size="10.00">expconfig/detectors</text>
<text text-anchor="middle" x="1432" y="-573" font-family="Helvetica,sans-Serif" font-size="10.00">/TAPS.h</text>
</a>
</g>
<!-- Node1&#45;&gt;Node65 -->
<g id="edge318" class="edge"><title>Node1&#45;&gt;Node65</title>
<path fill="none" stroke="midnightblue" d="M1295.42,-636.937C1320.74,-626.752 1353.09,-613.74 1379.95,-602.936"/>
<polygon fill="midnightblue" stroke="midnightblue" points="1381.6,-606.044 1389.57,-599.065 1378.99,-599.55 1381.6,-606.044"/>
</g>
<!-- Node66 -->
<g id="node232" class="node"><title>Node66</title>
<polygon fill="white" stroke="#bfbfbf" points="1500.5,-565 1500.5,-599 1607.5,-599 1607.5,-565 1500.5,-565"/>
<text text-anchor="start" x="1508.5" y="-586" font-family="Helvetica,sans-Serif" font-size="10.00">base/cereal/archives</text>
<text text-anchor="middle" x="1554" y="-573" font-family="Helvetica,sans-Serif" font-size="10.00">/json.hpp</text>
</g>
<!-- Node1&#45;&gt;Node66 -->
<g id="edge332" class="edge"><title>Node1&#45;&gt;Node66</title>
<path fill="none" stroke="midnightblue" d="M1321.26,-639.724C1366.77,-629.94 1428.13,-616.242 1490.3,-600.374"/>
<polygon fill="midnightblue" stroke="midnightblue" points="1491.47,-603.688 1500.29,-597.809 1489.73,-596.908 1491.47,-603.688"/>
</g>
<!-- Node3 -->
<g id="node5" class="node"><title>Node3</title>
<a xlink:href="_uncertainties_8h.html" target="_top" xlink:title="analysis/utils/Uncertainties.h">
<polygon fill="white" stroke="black" points="825.5,-448.5 825.5,-469.5 968.5,-469.5 968.5,-448.5 825.5,-448.5"/>
<text text-anchor="middle" x="897" y="-456.5" font-family="Helvetica,sans-Serif" font-size="10.00">analysis/utils/Uncertainties.h</text>
</a>
</g>
<!-- Node2&#45;&gt;Node3 -->
<g id="edge4" class="edge"><title>Node2&#45;&gt;Node3</title>
<path fill="none" stroke="midnightblue" d="M912.515,-506.362C910.024,-498.758 906.596,-488.294 903.596,-479.135"/>
<polygon fill="midnightblue" stroke="midnightblue" points="906.902,-477.984 900.463,-469.571 900.25,-480.163 906.902,-477.984"/>
</g>
<!-- Node4 -->
<g id="node7" class="node"><title>Node4</title>
<a xlink:href="_t_particle_8h.html" target="_top" xlink:title="tree/TParticle.h">
<polygon fill="white" stroke="black" points="692.5,-390.5 692.5,-411.5 775.5,-411.5 775.5,-390.5 692.5,-390.5"/>
<text text-anchor="middle" x="734" y="-398.5" font-family="Helvetica,sans-Serif" font-size="10.00">tree/TParticle.h</text>
</a>
</g>
<!-- Node3&#45;&gt;Node4 -->
<g id="edge6" class="edge"><title>Node3&#45;&gt;Node4</title>
<path fill="none" stroke="midnightblue" d="M867.482,-448.497C841.024,-439.082 802.021,-425.204 773,-414.877"/>
<polygon fill="midnightblue" stroke="midnightblue" points="774.168,-411.578 763.573,-411.523 771.821,-418.173 774.168,-411.578"/>
</g>
<!-- Node7 -->
<g id="node13" class="node"><title>Node7</title>
<a xlink:href="_detector__t_8h.html" target="_top" xlink:title="base/Detector_t.h">
<polygon fill="white" stroke="black" points="921.5,-181.5 921.5,-202.5 1016.5,-202.5 1016.5,-181.5 921.5,-181.5"/>
<text text-anchor="middle" x="969" y="-189.5" font-family="Helvetica,sans-Serif" font-size="10.00">base/Detector_t.h</text>
</a>
</g>
<!-- Node3&#45;&gt;Node7 -->
<g id="edge146" class="edge"><title>Node3&#45;&gt;Node7</title>
<path fill="none" stroke="midnightblue" d="M899.912,-448.203C910.791,-407.86 949.162,-265.565 963.522,-212.315"/>
<polygon fill="midnightblue" stroke="midnightblue" points="966.907,-213.206 966.131,-202.639 960.148,-211.383 966.907,-213.206"/>
</g>
<!-- Node5 -->
<g id="node9" class="node"><title>Node5</title>
<a xlink:href="_t_candidate_8h.html" target="_top" xlink:title="tree/TCandidate.h">
<polygon fill="white" stroke="black" points="496.5,-325.5 496.5,-346.5 591.5,-346.5 591.5,-325.5 496.5,-325.5"/>
<text text-anchor="middle" x="544" y="-333.5" font-family="Helvetica,sans-Serif" font-size="10.00">tree/TCandidate.h</text>
</a>
</g>
<!-- Node4&#45;&gt;Node5 -->
<g id="edge8" class="edge"><title>Node4&#45;&gt;Node5</title>
<path fill="none" stroke="midnightblue" d="M703.05,-390.412C670.755,-379.364 619.974,-361.991 584.506,-349.857"/>
<polygon fill="midnightblue" stroke="midnightblue" points="585.531,-346.509 574.936,-346.584 583.265,-353.132 585.531,-346.509"/>
</g>
<!-- Node8 -->
<g id="node15" class="node"><title>Node8</title>
<a xlink:href="printable_8h.html" target="_top" xlink:title="base/printable.h">
<polygon fill="white" stroke="black" points="243,-58.5 243,-79.5 329,-79.5 329,-58.5 243,-58.5"/>
<text text-anchor="middle" x="286" y="-66.5" font-family="Helvetica,sans-Serif" font-size="10.00">base/printable.h</text>
</a>
</g>
<!-- Node4&#45;&gt;Node8 -->
<g id="edge88" class="edge"><title>Node4&#45;&gt;Node8</title>
<path fill="none" stroke="midnightblue" d="M692.282,-399.109C611.516,-394.848 437.152,-382.551 385,-354 289.577,-301.759 283.824,-146.697 285.052,-90.0353"/>
<polygon fill="midnightblue" stroke="midnightblue" points="288.558,-89.8975 285.378,-79.7913 281.561,-89.6749 288.558,-89.8975"/>
</g>
<!-- Node16 -->
<g id="node34" class="node"><title>Node16</title>
<polygon fill="white" stroke="#bfbfbf" points="871,-58.5 871,-79.5 915,-79.5 915,-58.5 871,-58.5"/>
<text text-anchor="middle" x="893" y="-66.5" font-family="Helvetica,sans-Serif" font-size="10.00">vector</text>
</g>
<!-- Node4&#45;&gt;Node16 -->
<g id="edge138" class="edge"><title>Node4&#45;&gt;Node16</title>
<path fill="none" stroke="midnightblue" d="M715.684,-390.419C683.459,-370.273 620,-323.1 620,-264 620,-264 620,-264 620,-192 620,-156.442 618.27,-139.451 645,-116 676.697,-88.1913 800.886,-75.6321 860.595,-71.1102"/>
<polygon fill="midnightblue" stroke="midnightblue" points="860.899,-74.5974 870.619,-70.381 860.391,-67.6158 860.899,-74.5974"/>
</g>
<!-- Node22 -->
<g id="node51" class="node"><title>Node22</title>
<polygon fill="white" stroke="#bfbfbf" points="1604,-116.5 1604,-137.5 1656,-137.5 1656,-116.5 1604,-116.5"/>
<text text-anchor="middle" x="1630" y="-124.5" font-family="Helvetica,sans-Serif" font-size="10.00">memory</text>
</g>
<!-- Node4&#45;&gt;Node22 -->
<g id="edge144" class="edge"><title>Node4&#45;&gt;Node22</title>
<path fill="none" stroke="midnightblue" d="M747.447,-390.277C759.257,-380.817 776.867,-366.613 792,-354 810.886,-338.259 811.583,-328.095 834,-318 940.371,-270.101 979.657,-305.126 1094,-282 1215.31,-257.466 1248.23,-256.327 1363,-210 1393.62,-197.639 1397.14,-185.764 1428,-174 1495.7,-148.189 1516.56,-154.98 1587,-138 1589.19,-137.472 1591.44,-136.921 1593.71,-136.359"/>
<polygon fill="midnightblue" stroke="midnightblue" points="1594.8,-139.694 1603.65,-133.864 1593.1,-132.904 1594.8,-139.694"/>
</g>
<!-- Node26 -->
<g id="node71" class="node"><title>Node26</title>
<a xlink:href="types_8h.html" target="_top" xlink:title="base/types.h">
<polygon fill="white" stroke="black" points="355.5,-58.5 355.5,-79.5 428.5,-79.5 428.5,-58.5 355.5,-58.5"/>
<text text-anchor="middle" x="392" y="-66.5" font-family="Helvetica,sans-Serif" font-size="10.00">base/types.h</text>
</a>
</g>
<!-- Node4&#45;&gt;Node26 -->
<g id="edge90" class="edge"><title>Node4&#45;&gt;Node26</title>
<path fill="none" stroke="midnightblue" d="M692.11,-396.807C642.355,-390.966 557.366,-378.251 488,-354 423.068,-331.299 394.538,-335.253 351,-282 320.049,-244.143 317.113,-221.17 330,-174 339.04,-140.912 361.472,-107.648 376.723,-87.684"/>
<polygon fill="midnightblue" stroke="midnightblue" points="379.538,-89.767 382.956,-79.7387 374.03,-85.4467 379.538,-89.767"/>
</g>
<!-- Node27 -->
<g id="node73" class="node"><title>Node27</title>
<a xlink:href="_particle_type_8h.html" target="_top" xlink:title="base/ParticleType.h">
<polygon fill="white" stroke="black" points="686,-181.5 686,-202.5 790,-202.5 790,-181.5 686,-181.5"/>
<text text-anchor="middle" x="738" y="-189.5" font-family="Helvetica,sans-Serif" font-size="10.00">base/ParticleType.h</text>
</a>
</g>
<!-- Node4&#45;&gt;Node27 -->
<g id="edge92" class="edge"><title>Node4&#45;&gt;Node27</title>
<path fill="none" stroke="midnightblue" d="M734.204,-390.348C734.835,-357.367 736.765,-256.522 737.604,-212.696"/>
<polygon fill="midnightblue" stroke="midnightblue" points="741.104,-212.695 737.797,-202.63 734.106,-212.561 741.104,-212.695"/>
</g>
<!-- Node32 -->
<g id="node92" class="node"><title>Node32</title>
<a xlink:href="_tree_8h.html" target="_top" xlink:title="base/Tree.h">
<polygon fill="white" stroke="black" points="1232,-181.5 1232,-202.5 1300,-202.5 1300,-181.5 1232,-181.5"/>
<text text-anchor="middle" x="1266" y="-189.5" font-family="Helvetica,sans-Serif" font-size="10.00">base/Tree.h</text>
</a>
</g>
<!-- Node4&#45;&gt;Node32 -->
<g id="edge120" class="edge"><title>Node4&#45;&gt;Node32</title>
<path fill="none" stroke="midnightblue" d="M738.987,-390.23C747.837,-372.352 768.024,-336.67 796,-318 958.825,-209.338 1037.31,-271.965 1223,-210 1226.33,-208.89 1229.76,-207.641 1233.16,-206.331"/>
<polygon fill="midnightblue" stroke="midnightblue" points="1234.61,-209.521 1242.58,-202.544 1232,-203.026 1234.61,-209.521"/>
</g>
<!-- Node34 -->
<g id="node97" class="node"><title>Node34</title>
<polygon fill="white" stroke="#bfbfbf" points="1673.5,-116.5 1673.5,-137.5 1702.5,-137.5 1702.5,-116.5 1673.5,-116.5"/>
<text text-anchor="middle" x="1688" y="-124.5" font-family="Helvetica,sans-Serif" font-size="10.00">list</text>
</g>
<!-- Node4&#45;&gt;Node34 -->
<g id="edge140" class="edge"><title>Node4&#45;&gt;Node34</title>
<path fill="none" stroke="midnightblue" d="M754.053,-390.413C790.486,-371.784 870.489,-333.64 943,-318 1026.51,-299.989 1652.03,-343.804 1711,-282 1746.06,-245.257 1717.75,-179.674 1699.86,-146.854"/>
<polygon fill="midnightblue" stroke="midnightblue" points="1702.69,-144.762 1694.72,-137.789 1696.6,-148.214 1702.69,-144.762"/>
</g>
<!-- Node36 -->
<g id="node103" class="node"><title>Node36</title>
<a xlink:href="_lorentz_vec_8h.html" target="_top" xlink:title="base/vec/LorentzVec.h">
<polygon fill="white" stroke="black" points="27.5,-253.5 27.5,-274.5 144.5,-274.5 144.5,-253.5 27.5,-253.5"/>
<text text-anchor="middle" x="86" y="-261.5" font-family="Helvetica,sans-Serif" font-size="10.00">base/vec/LorentzVec.h</text>
</a>
</g>
<!-- Node4&#45;&gt;Node36 -->
<g id="edge134" class="edge"><title>Node4&#45;&gt;Node36</title>
<path fill="none" stroke="midnightblue" d="M692.083,-399.491C567.439,-394.74 204.84,-378.908 158,-354 128.717,-338.428 107.17,-305.292 95.6176,-283.864"/>
<polygon fill="midnightblue" stroke="midnightblue" points="98.5789,-281.969 90.8898,-274.68 92.3552,-285.173 98.5789,-281.969"/>
</g>
<!-- Node37 -->
<g id="node108" class="node"><title>Node37</title>
<polygon fill="white" stroke="#bfbfbf" points="952,-325.5 952,-346.5 1006,-346.5 1006,-325.5 952,-325.5"/>
<text text-anchor="middle" x="979" y="-333.5" font-family="Helvetica,sans-Serif" font-size="10.00">iostream</text>
</g>
<!-- Node4&#45;&gt;Node37 -->
<g id="edge142" class="edge"><title>Node4&#45;&gt;Node37</title>
<path fill="none" stroke="midnightblue" d="M773.636,-390.484C820.222,-378.125 896.907,-357.78 942.22,-345.758"/>
<polygon fill="midnightblue" stroke="midnightblue" points="943.168,-349.128 951.936,-343.18 941.373,-342.362 943.168,-349.128"/>
</g>
<!-- Node6 -->
<g id="node11" class="node"><title>Node6</title>
<a xlink:href="_t_cluster_8h.html" target="_top" xlink:title="TCluster.h">
<polygon fill="white" stroke="black" points="445,-253.5 445,-274.5 507,-274.5 507,-253.5 445,-253.5"/>
<text text-anchor="middle" x="476" y="-261.5" font-family="Helvetica,sans-Serif" font-size="10.00">TCluster.h</text>
</a>
</g>
<!-- Node5&#45;&gt;Node6 -->
<g id="edge10" class="edge"><title>Node5&#45;&gt;Node6</title>
<path fill="none" stroke="midnightblue" d="M533.966,-325.376C523.219,-313.997 505.972,-295.735 493.08,-282.085"/>
<polygon fill="midnightblue" stroke="midnightblue" points="495.486,-279.534 486.075,-274.667 490.397,-284.341 495.486,-279.534"/>
</g>
<!-- Node5&#45;&gt;Node7 -->
<g id="edge76" class="edge"><title>Node5&#45;&gt;Node7</title>
<path fill="none" stroke="midnightblue" d="M575.251,-325.411C650.946,-299.764 844.081,-234.326 928.489,-205.726"/>
<polygon fill="midnightblue" stroke="midnightblue" points="929.642,-209.031 937.99,-202.507 927.396,-202.401 929.642,-209.031"/>
</g>
<!-- Node5&#45;&gt;Node16 -->
<g id="edge78" class="edge"><title>Node5&#45;&gt;Node16</title>
<path fill="none" stroke="midnightblue" d="M543.366,-325.253C541.891,-289.382 542.379,-172.845 606,-116 624.846,-99.161 789.772,-79.912 860.747,-72.3232"/>
<polygon fill="midnightblue" stroke="midnightblue" points="861.326,-75.7816 870.902,-71.2486 860.589,-68.8205 861.326,-75.7816"/>
</g>
<!-- Node17 -->
<g id="node36" class="node"><title>Node17</title>
<polygon fill="white" stroke="#bfbfbf" points="1297,-58.5 1297,-79.5 1353,-79.5 1353,-58.5 1297,-58.5"/>
<text text-anchor="middle" x="1325" y="-66.5" font-family="Helvetica,sans-Serif" font-size="10.00">algorithm</text>
</g>
<!-- Node5&#45;&gt;Node17 -->
<g id="edge86" class="edge"><title>Node5&#45;&gt;Node17</title>
<path fill="none" stroke="midnightblue" d="M546.706,-325.254C556.628,-288.361 594.799,-166.366 677,-116 728.977,-84.1523 1155.23,-72.5771 1286.6,-69.7463"/>
<polygon fill="midnightblue" stroke="midnightblue" points="1287.04,-73.2378 1296.97,-69.528 1286.9,-66.2394 1287.04,-73.2378"/>
</g>
<!-- Node5&#45;&gt;Node22 -->
<g id="edge84" class="edge"><title>Node5&#45;&gt;Node22</title>
<path fill="none" stroke="midnightblue" d="M591.512,-332.408C713.115,-322.313 1044.65,-289.098 1309,-210 1346.74,-198.707 1352.36,-185.623 1390,-174 1475.04,-147.741 1500.06,-157.041 1587,-138 1589.2,-137.518 1591.46,-137.002 1593.74,-136.467"/>
<polygon fill="midnightblue" stroke="midnightblue" points="1594.8,-139.81 1603.69,-134.04 1593.15,-133.009 1594.8,-139.81"/>
</g>
<!-- Node24 -->
<g id="node59" class="node"><title>Node24</title>
<polygon fill="white" stroke="#bfbfbf" points="352,-181.5 352,-202.5 402,-202.5 402,-181.5 352,-181.5"/>
<text text-anchor="middle" x="377" y="-189.5" font-family="Helvetica,sans-Serif" font-size="10.00">iomanip</text>
</g>
<!-- Node5&#45;&gt;Node24 -->
<g id="edge80" class="edge"><title>Node5&#45;&gt;Node24</title>
<path fill="none" stroke="midnightblue" d="M512.54,-325.371C489.471,-316.44 458.396,-301.926 436,-282 413.551,-262.027 396.022,-231.629 386.092,-211.787"/>
<polygon fill="midnightblue" stroke="midnightblue" points="389.222,-210.219 381.722,-202.735 382.918,-213.262 389.222,-210.219"/>
</g>
<!-- Node25 -->
<g id="node61" class="node"><title>Node25</title>
<polygon fill="white" stroke="#bfbfbf" points="696,-58.5 696,-79.5 748,-79.5 748,-58.5 696,-58.5"/>
<text text-anchor="middle" x="722" y="-66.5" font-family="Helvetica,sans-Serif" font-size="10.00">sstream</text>
</g>
<!-- Node5&#45;&gt;Node25 -->
<g id="edge82" class="edge"><title>Node5&#45;&gt;Node25</title>
<path fill="none" stroke="midnightblue" d="M498.461,-325.484C468.76,-317.089 430.229,-303.172 401,-282 356.875,-250.039 316.339,-221.515 343,-174 367.207,-130.858 391.634,-133.244 438,-116 523.15,-84.3311 630.574,-73.939 685.702,-70.5752"/>
<polygon fill="midnightblue" stroke="midnightblue" points="685.904,-74.0695 695.69,-70.0086 685.507,-67.0807 685.904,-74.0695"/>
</g>
<!-- Node6&#45;&gt;Node7 -->
<g id="edge12" class="edge"><title>Node6&#45;&gt;Node7</title>
<path fill="none" stroke="midnightblue" d="M507.191,-261.85C578.684,-256.542 759.648,-240.946 908,-210 914.242,-208.698 920.772,-207.067 927.143,-205.323"/>
<polygon fill="midnightblue" stroke="midnightblue" points="928.304,-208.631 936.958,-202.518 926.381,-201.9 928.304,-208.631"/>
</g>
<!-- Node11 -->
<g id="node21" class="node"><title>Node11</title>
<a xlink:href="vec3_8h.html" target="_top" xlink:title="base/vec/vec3.h">
<polygon fill="white" stroke="black" points="85.5,-116.5 85.5,-137.5 174.5,-137.5 174.5,-116.5 85.5,-116.5"/>
<text text-anchor="middle" x="130" y="-124.5" font-family="Helvetica,sans-Serif" font-size="10.00">base/vec/vec3.h</text>
</a>
</g>
<!-- Node6&#45;&gt;Node11 -->
<g id="edge64" class="edge"><title>Node6&#45;&gt;Node11</title>
<path fill="none" stroke="midnightblue" d="M444.736,-258.458C403.954,-250.619 330.867,-234.463 272,-210 227.935,-191.688 180.891,-161.916 153.534,-143.448"/>
<polygon fill="midnightblue" stroke="midnightblue" points="155.276,-140.4 145.044,-137.652 151.329,-146.181 155.276,-140.4"/>
</g>
<!-- Node13 -->
<g id="node26" class="node"><title>Node13</title>
<polygon fill="white" stroke="#bfbfbf" points="180,-0.5 180,-21.5 224,-21.5 224,-0.5 180,-0.5"/>
<text text-anchor="middle" x="202" y="-8.5" font-family="Helvetica,sans-Serif" font-size="10.00">cmath</text>
</g>
<!-- Node6&#45;&gt;Node13 -->
<g id="edge68" class="edge"><title>Node6&#45;&gt;Node13</title>
<path fill="none" stroke="midnightblue" d="M444.811,-256.034C416.396,-247.737 374.227,-232.737 343,-210 282.046,-165.618 274.434,-143.641 234,-80 224.085,-64.3946 215.444,-45.2189 209.648,-31.0466"/>
<polygon fill="midnightblue" stroke="midnightblue" points="212.895,-29.7385 205.954,-21.7338 206.388,-32.3197 212.895,-29.7385"/>
</g>
<!-- Node6&#45;&gt;Node14 -->
<g id="edge52" class="edge"><title>Node6&#45;&gt;Node14</title>
<path fill="none" stroke="midnightblue" d="M494.392,-253.39C528.918,-234.022 606.336,-193.172 677,-174 744.443,-155.702 941.085,-139.169 1043.43,-131.505"/>
<polygon fill="midnightblue" stroke="midnightblue" points="1043.92,-134.979 1053.63,-130.747 1043.4,-127.998 1043.92,-134.979"/>
</g>
<!-- Node6&#45;&gt;Node16 -->
<g id="edge66" class="edge"><title>Node6&#45;&gt;Node16</title>
<path fill="none" stroke="midnightblue" d="M476.341,-253.297C477.849,-225.584 486.007,-151.202 530,-116 542.905,-105.674 774.634,-81.0847 860.95,-72.2395"/>
<polygon fill="midnightblue" stroke="midnightblue" points="861.373,-75.7147 870.965,-71.2171 860.662,-68.7509 861.373,-75.7147"/>
</g>
<!-- Node21 -->
<g id="node48" class="node"><title>Node21</title>
<a xlink:href="shared__ptr__container_8h.html" target="_top" xlink:title="base/std_ext/shared\l_ptr_container.h">
<polygon fill="white" stroke="black" points="1109.5,-175 1109.5,-209 1214.5,-209 1214.5,-175 1109.5,-175"/>
<text text-anchor="start" x="1117.5" y="-196" font-family="Helvetica,sans-Serif" font-size="10.00">base/std_ext/shared</text>
<text text-anchor="middle" x="1162" y="-183" font-family="Helvetica,sans-Serif" font-size="10.00">_ptr_container.h</text>
</a>
</g>
<!-- Node6&#45;&gt;Node21 -->
<g id="edge54" class="edge"><title>Node6&#45;&gt;Node21</title>
<path fill="none" stroke="midnightblue" d="M507.297,-261.282C591.227,-253.914 828.283,-232.591 1025,-210 1049.29,-207.211 1075.95,-203.789 1099.25,-200.681"/>
<polygon fill="midnightblue" stroke="midnightblue" points="1099.91,-204.124 1109.35,-199.325 1098.98,-197.187 1099.91,-204.124"/>
</g>
<!-- Node6&#45;&gt;Node22 -->
<g id="edge74" class="edge"><title>Node6&#45;&gt;Node22</title>
<path fill="none" stroke="midnightblue" d="M507.019,-260.287C564.912,-253.032 693.135,-235.432 799,-210 850.663,-197.589 860.77,-183.752 913,-174 1161.65,-127.573 1228.64,-155.312 1481,-138 1519.54,-135.356 1563.67,-132.065 1593.84,-129.775"/>
<polygon fill="midnightblue" stroke="midnightblue" points="1594.19,-133.259 1603.9,-129.01 1593.66,-126.279 1594.19,-133.259"/>
</g>
<!-- Node6&#45;&gt;Node24 -->
<g id="edge70" class="edge"><title>Node6&#45;&gt;Node24</title>
<path fill="none" stroke="midnightblue" d="M461.392,-253.376C445.161,-241.571 418.744,-222.36 399.789,-208.574"/>
<polygon fill="midnightblue" stroke="midnightblue" points="401.814,-205.719 391.668,-202.667 397.696,-211.38 401.814,-205.719"/>
</g>
<!-- Node6&#45;&gt;Node25 -->
<g id="edge72" class="edge"><title>Node6&#45;&gt;Node25</title>
<path fill="none" stroke="midnightblue" d="M469.427,-253.184C454.124,-226.467 419.918,-156.579 454,-116 483.138,-81.307 619.079,-72.2167 685.408,-69.8394"/>
<polygon fill="midnightblue" stroke="midnightblue" points="685.927,-73.3245 695.808,-69.5015 685.7,-66.3281 685.927,-73.3245"/>
</g>
<!-- Node7&#45;&gt;Node8 -->
<g id="edge14" class="edge"><title>Node7&#45;&gt;Node8</title>
<path fill="none" stroke="midnightblue" d="M943.885,-181.493C902.438,-164.642 816.756,-131.865 741,-116 568.893,-79.9578 521.246,-103.625 347,-80 344.481,-79.6584 341.907,-79.2862 339.31,-78.8919"/>
<polygon fill="midnightblue" stroke="midnightblue" points="339.675,-75.4058 329.247,-77.2798 338.567,-82.3176 339.675,-75.4058"/>
</g>
<!-- Node9 -->
<g id="node17" class="node"><title>Node9</title>
<polygon fill="white" stroke="#bfbfbf" points="1837,-0.5 1837,-21.5 1899,-21.5 1899,-0.5 1837,-0.5"/>
<text text-anchor="middle" x="1868" y="-8.5" font-family="Helvetica,sans-Serif" font-size="10.00">type_traits</text>
</g>
<!-- Node7&#45;&gt;Node9 -->
<g id="edge48" class="edge"><title>Node7&#45;&gt;Node9</title>
<path fill="none" stroke="midnightblue" d="M1016.59,-184.982C1041.67,-181.418 1072.96,-177.181 1101,-174 1277.04,-154.026 1325.85,-179.882 1498,-138 1523.18,-131.874 1527.69,-124.98 1552,-116 1649.86,-79.8526 1766.77,-42.4931 1827.25,-23.5913"/>
<polygon fill="midnightblue" stroke="midnightblue" points="1828.31,-26.9276 1836.81,-20.6095 1826.23,-20.2449 1828.31,-26.9276"/>
</g>
<!-- Node7&#45;&gt;Node11 -->
<g id="edge20" class="edge"><title>Node7&#45;&gt;Node11</title>
<path fill="none" stroke="midnightblue" d="M921.413,-186.507C887.352,-182.686 840.39,-177.644 799,-174 571.244,-153.948 299.261,-137.004 184.912,-130.198"/>
<polygon fill="midnightblue" stroke="midnightblue" points="184.859,-126.689 174.669,-129.591 184.445,-133.677 184.859,-126.689"/>
</g>
<!-- Node7&#45;&gt;Node14 -->
<g id="edge30" class="edge"><title>Node7&#45;&gt;Node14</title>
<path fill="none" stroke="midnightblue" d="M991.479,-181.412C1014.23,-170.694 1049.62,-154.025 1075.24,-141.96"/>
<polygon fill="midnightblue" stroke="midnightblue" points="1076.98,-145.011 1084.53,-137.584 1073.99,-138.678 1076.98,-145.011"/>
</g>
<!-- Node7&#45;&gt;Node16 -->
<g id="edge50" class="edge"><title>Node7&#45;&gt;Node16</title>
<path fill="none" stroke="midnightblue" d="M946.563,-181.483C930.053,-172.446 908.696,-157.745 898,-138 890.055,-123.334 889.259,-104.274 890.193,-89.904"/>
<polygon fill="midnightblue" stroke="midnightblue" points="893.715,-89.8525 891.21,-79.5581 886.749,-89.1678 893.715,-89.8525"/>
</g>
<!-- Node18 -->
<g id="node38" class="node"><title>Node18</title>
<polygon fill="white" stroke="#bfbfbf" points="1436.5,-58.5 1436.5,-79.5 1495.5,-79.5 1495.5,-58.5 1436.5,-58.5"/>
<text text-anchor="middle" x="1466" y="-66.5" font-family="Helvetica,sans-Serif" font-size="10.00">stdexcept</text>
</g>
<!-- Node7&#45;&gt;Node18 -->
<g id="edge44" class="edge"><title>Node7&#45;&gt;Node18</title>
<path fill="none" stroke="midnightblue" d="M1016.6,-185.029C1041.68,-181.477 1072.97,-177.238 1101,-174 1143.13,-169.134 1452.46,-169.372 1481,-138 1493.23,-124.558 1486.27,-103.548 1478.24,-88.2415"/>
<polygon fill="midnightblue" stroke="midnightblue" points="1481.27,-86.5002 1473.26,-79.5666 1475.2,-89.9825 1481.27,-86.5002"/>
</g>
<!-- Node19 -->
<g id="node40" class="node"><title>Node19</title>
<polygon fill="white" stroke="#bfbfbf" points="1880,-116.5 1880,-137.5 1926,-137.5 1926,-116.5 1880,-116.5"/>
<text text-anchor="middle" x="1903" y="-124.5" font-family="Helvetica,sans-Serif" font-size="10.00">cstdint</text>
</g>
<!-- Node7&#45;&gt;Node19 -->
<g id="edge42" class="edge"><title>Node7&#45;&gt;Node19</title>
<path fill="none" stroke="midnightblue" d="M1016.54,-184.478C1041.6,-180.776 1072.9,-176.568 1101,-174 1438.84,-143.129 1532.67,-201.181 1869.75,-137.746"/>
<polygon fill="midnightblue" stroke="midnightblue" points="1870.62,-141.142 1879.79,-135.834 1869.31,-134.266 1870.62,-141.142"/>
</g>
<!-- Node20 -->
<g id="node43" class="node"><title>Node20</title>
<polygon fill="white" stroke="#bfbfbf" points="2929.5,-58.5 2929.5,-79.5 2970.5,-79.5 2970.5,-58.5 2929.5,-58.5"/>
<text text-anchor="middle" x="2950" y="-66.5" font-family="Helvetica,sans-Serif" font-size="10.00">string</text>
</g>
<!-- Node7&#45;&gt;Node20 -->
<g id="edge46" class="edge"><title>Node7&#45;&gt;Node20</title>
<path fill="none" stroke="midnightblue" d="M1016.52,-184.277C1041.58,-180.52 1072.88,-176.323 1101,-174 1645.6,-129.02 1785.48,-183.986 2330,-138 2400.21,-132.071 2417.05,-124.448 2487,-116 2649.46,-96.3787 2844.67,-78.3854 2919.11,-71.7259"/>
<polygon fill="midnightblue" stroke="midnightblue" points="2919.55,-75.2007 2929.2,-70.8268 2918.93,-68.2284 2919.55,-75.2007"/>
</g>
<!-- Node8&#45;&gt;Node9 -->
<g id="edge16" class="edge"><title>Node8&#45;&gt;Node9</title>
<path fill="none" stroke="midnightblue" d="M329.208,-60.3957C335.166,-59.4474 341.221,-58.607 347,-58 645.915,-26.6037 1615.02,-13.889 1826.85,-11.4496"/>
<polygon fill="midnightblue" stroke="midnightblue" points="1826.97,-14.9486 1836.92,-11.3348 1826.89,-7.94904 1826.97,-14.9486"/>
</g>
<!-- Node10 -->
<g id="node19" class="node"><title>Node10</title>
<polygon fill="white" stroke="#bfbfbf" points="412,-0.5 412,-21.5 464,-21.5 464,-0.5 412,-0.5"/>
<text text-anchor="middle" x="438" y="-8.5" font-family="Helvetica,sans-Serif" font-size="10.00">ostream</text>
</g>
<!-- Node8&#45;&gt;Node10 -->
<g id="edge18" class="edge"><title>Node8&#45;&gt;Node10</title>
<path fill="none" stroke="midnightblue" d="M313.526,-58.4966C338.442,-48.9894 375.286,-34.9303 402.428,-24.5737"/>
<polygon fill="midnightblue" stroke="midnightblue" points="403.853,-27.7761 411.948,-20.9409 401.357,-21.236 403.853,-27.7761"/>
</g>
<!-- Node11&#45;&gt;Node8 -->
<g id="edge22" class="edge"><title>Node11&#45;&gt;Node8</title>
<path fill="none" stroke="midnightblue" d="M158.25,-116.497C183.462,-107.123 220.576,-93.3242 248.312,-83.0122"/>
<polygon fill="midnightblue" stroke="midnightblue" points="249.543,-86.2886 257.697,-79.5231 247.104,-79.7274 249.543,-86.2886"/>
</g>
<!-- Node12 -->
<g id="node24" class="node"><title>Node12</title>
<a xlink:href="vec2_8h.html" target="_top" xlink:title="vec2.h">
<polygon fill="white" stroke="black" points="128,-58.5 128,-79.5 174,-79.5 174,-58.5 128,-58.5"/>
<text text-anchor="middle" x="151" y="-66.5" font-family="Helvetica,sans-Serif" font-size="10.00">vec2.h</text>
</a>
</g>
<!-- Node11&#45;&gt;Node12 -->
<g id="edge24" class="edge"><title>Node11&#45;&gt;Node12</title>
<path fill="none" stroke="midnightblue" d="M133.852,-116.362C136.605,-108.758 140.394,-98.294 143.71,-89.1349"/>
<polygon fill="midnightblue" stroke="midnightblue" points="147.059,-90.1649 147.173,-79.5707 140.477,-87.7818 147.059,-90.1649"/>
</g>
<!-- Node11&#45;&gt;Node13 -->
<g id="edge28" class="edge"><title>Node11&#45;&gt;Node13</title>
<path fill="none" stroke="midnightblue" d="M124.299,-116.4C117.479,-102.141 108.248,-76.4445 119,-58 130.028,-39.0821 151.809,-27.1677 170.291,-20.0691"/>
<polygon fill="midnightblue" stroke="midnightblue" points="171.589,-23.3228 179.855,-16.6957 169.261,-16.7213 171.589,-23.3228"/>
</g>
<!-- Node12&#45;&gt;Node13 -->
<g id="edge26" class="edge"><title>Node12&#45;&gt;Node13</title>
<path fill="none" stroke="midnightblue" d="M160.354,-58.3619C167.543,-50.1861 177.641,-38.7025 186.093,-29.0907"/>
<polygon fill="midnightblue" stroke="midnightblue" points="188.73,-31.3916 192.705,-21.5707 183.473,-26.7692 188.73,-31.3916"/>
</g>
<!-- Node14&#45;&gt;Node13 -->
<g id="edge32" class="edge"><title>Node14&#45;&gt;Node13</title>
<path fill="none" stroke="midnightblue" d="M1085.39,-116.439C1051.78,-100.581 984.569,-71.0863 924,-58 889.893,-50.631 370.914,-20.6375 234.593,-12.8529"/>
<polygon fill="midnightblue" stroke="midnightblue" points="234.56,-9.34547 224.377,-12.2703 234.161,-16.3341 234.56,-9.34547"/>
</g>
<!-- Node15 -->
<g id="node32" class="node"><title>Node15</title>
<polygon fill="white" stroke="#bfbfbf" points="1513,-58.5 1513,-79.5 1553,-79.5 1553,-58.5 1513,-58.5"/>
<text text-anchor="middle" x="1533" y="-66.5" font-family="Helvetica,sans-Serif" font-size="10.00">limits</text>
</g>
<!-- Node14&#45;&gt;Node15 -->
<g id="edge34" class="edge"><title>Node14&#45;&gt;Node15</title>
<path fill="none" stroke="midnightblue" d="M1160.28,-121.042C1256.12,-110.279 1451.76,-88.0915 1502.86,-79.3433"/>
<polygon fill="midnightblue" stroke="midnightblue" points="1503.8,-82.7252 1512.92,-77.3377 1502.43,-75.8603 1503.8,-82.7252"/>
</g>
<!-- Node14&#45;&gt;Node16 -->
<g id="edge36" class="edge"><title>Node14&#45;&gt;Node16</title>
<path fill="none" stroke="midnightblue" d="M1068.25,-116.497C1027.29,-105.396 963.44,-88.0912 925.169,-77.7186"/>
<polygon fill="midnightblue" stroke="midnightblue" points="925.66,-74.2256 915.093,-74.9877 923.829,-80.9818 925.66,-74.2256"/>
</g>
<!-- Node14&#45;&gt;Node17 -->
<g id="edge38" class="edge"><title>Node14&#45;&gt;Node17</title>
<path fill="none" stroke="midnightblue" d="M1146.48,-116.497C1186.44,-105.866 1247.78,-89.5437 1287.15,-79.0707"/>
<polygon fill="midnightblue" stroke="midnightblue" points="1288.14,-82.4298 1296.9,-76.4762 1286.34,-75.6651 1288.14,-82.4298"/>
</g>
<!-- Node14&#45;&gt;Node18 -->
<g id="edge40" class="edge"><title>Node14&#45;&gt;Node18</title>
<path fill="none" stroke="midnightblue" d="M1160.22,-121.459C1222.16,-114.51 1327.63,-101.133 1426.39,-80.1556"/>
<polygon fill="midnightblue" stroke="midnightblue" points="1427.19,-83.5629 1436.23,-78.0346 1425.71,-76.72 1427.19,-83.5629"/>
</g>
<!-- Node21&#45;&gt;Node16 -->
<g id="edge56" class="edge"><title>Node21&#45;&gt;Node16</title>
<path fill="none" stroke="midnightblue" d="M1109.35,-175.633C1080.16,-165.918 1043.49,-152.654 1012,-138 978.167,-122.257 941.3,-100.026 917.709,-85.0917"/>
<polygon fill="midnightblue" stroke="midnightblue" points="919.365,-81.9967 909.054,-79.5626 915.597,-87.8957 919.365,-81.9967"/>
</g>
<!-- Node21&#45;&gt;Node17 -->
<g id="edge62" class="edge"><title>Node21&#45;&gt;Node17</title>
<path fill="none" stroke="midnightblue" d="M1168.24,-175C1175.28,-157.97 1188.24,-132.048 1207,-116 1229.9,-96.4097 1261.98,-84.341 1286.91,-77.3463"/>
<polygon fill="midnightblue" stroke="midnightblue" points="1288,-80.6801 1296.77,-74.7377 1286.21,-73.9131 1288,-80.6801"/>
</g>
<!-- Node21&#45;&gt;Node22 -->
<g id="edge58" class="edge"><title>Node21&#45;&gt;Node22</title>
<path fill="none" stroke="midnightblue" d="M1214.75,-175.771C1217.53,-175.124 1220.29,-174.528 1223,-174 1383.87,-142.668 1428.84,-167.837 1590,-138 1591.27,-137.764 1592.57,-137.507 1593.87,-137.233"/>
<polygon fill="midnightblue" stroke="midnightblue" points="1594.97,-140.569 1603.9,-134.865 1593.36,-133.757 1594.97,-140.569"/>
</g>
<!-- Node23 -->
<g id="node53" class="node"><title>Node23</title>
<polygon fill="white" stroke="#bfbfbf" points="2302.5,-58.5 2302.5,-79.5 2361.5,-79.5 2361.5,-58.5 2302.5,-58.5"/>
<text text-anchor="middle" x="2332" y="-66.5" font-family="Helvetica,sans-Serif" font-size="10.00">functional</text>
</g>
<!-- Node21&#45;&gt;Node23 -->
<g id="edge60" class="edge"><title>Node21&#45;&gt;Node23</title>
<path fill="none" stroke="midnightblue" d="M1214.76,-175.808C1217.53,-175.151 1220.29,-174.543 1223,-174 1367.22,-145.07 1411.09,-180.196 1552,-138 1572.56,-131.842 1574.27,-121.582 1595,-116 1740.26,-76.8821 2121.57,-97.3826 2271,-80 2277.89,-79.198 2285.19,-78.1018 2292.24,-76.9107"/>
<polygon fill="midnightblue" stroke="midnightblue" points="2293.09,-80.3142 2302.33,-75.1207 2291.87,-73.4219 2293.09,-80.3142"/>
</g>
<!-- Node27&#45;&gt;Node10 -->
<g id="edge112" class="edge"><title>Node27&#45;&gt;Node10</title>
<path fill="none" stroke="midnightblue" d="M720.574,-181.486C670.244,-151.121 524.435,-63.1491 464.353,-26.8997"/>
<polygon fill="midnightblue" stroke="midnightblue" points="465.844,-23.7119 455.474,-21.5427 462.228,-29.7055 465.844,-23.7119"/>
</g>
<!-- Node27&#45;&gt;Node16 -->
<g id="edge118" class="edge"><title>Node27&#45;&gt;Node16</title>
<path fill="none" stroke="midnightblue" d="M742.004,-181.243C748.516,-165.074 762.838,-134.442 784,-116 806.195,-96.6582 837.563,-84.2672 860.953,-77.0925"/>
<polygon fill="midnightblue" stroke="midnightblue" points="862.131,-80.3951 870.758,-74.2444 860.179,-73.6729 862.131,-80.3951"/>
</g>
<!-- Node27&#45;&gt;Node20 -->
<g id="edge110" class="edge"><title>Node27&#45;&gt;Node20</title>
<path fill="none" stroke="midnightblue" d="M790.367,-185.556C825.093,-181.544 871.701,-176.657 913,-174 1066.51,-164.123 2150.36,-184.488 2297,-138 2313.8,-132.673 2313.33,-121.742 2330,-116 2440.87,-77.7974 2810.12,-70.5862 2919.33,-69.2786"/>
<polygon fill="midnightblue" stroke="midnightblue" points="2919.39,-72.7782 2929.35,-69.1667 2919.31,-65.7786 2919.39,-72.7782"/>
</g>
<!-- Node27&#45;&gt;Node26 -->
<g id="edge94" class="edge"><title>Node27&#45;&gt;Node26</title>
<path fill="none" stroke="midnightblue" d="M702.282,-181.405C667.724,-170.977 613.971,-154.293 568,-138 518.517,-120.463 462.156,-97.9017 426.833,-83.4422"/>
<polygon fill="midnightblue" stroke="midnightblue" points="428.031,-80.1506 417.451,-79.5897 425.372,-86.626 428.031,-80.1506"/>
</g>
<!-- Node28 -->
<g id="node76" class="node"><title>Node28</title>
<a xlink:href="interval_8h.html" target="_top" xlink:title="base/interval.h">
<polygon fill="white" stroke="black" points="1392,-116.5 1392,-137.5 1472,-137.5 1472,-116.5 1392,-116.5"/>
<text text-anchor="middle" x="1432" y="-124.5" font-family="Helvetica,sans-Serif" font-size="10.00">base/interval.h</text>
</a>
</g>
<!-- Node27&#45;&gt;Node28 -->
<g id="edge96" class="edge"><title>Node27&#45;&gt;Node28</title>
<path fill="none" stroke="midnightblue" d="M790.196,-184.764C817.003,-181.206 850.21,-177.039 880,-174 1086.21,-152.96 1138.78,-159.007 1345,-138 1356.83,-136.795 1369.54,-135.301 1381.5,-133.807"/>
<polygon fill="midnightblue" stroke="midnightblue" points="1382.29,-137.234 1391.76,-132.501 1381.4,-130.29 1382.29,-137.234"/>
</g>
<!-- Node30 -->
<g id="node87" class="node"><title>Node30</title>
<polygon fill="white" stroke="#bfbfbf" points="3063.5,-116.5 3063.5,-137.5 3098.5,-137.5 3098.5,-116.5 3063.5,-116.5"/>
<text text-anchor="middle" x="3081" y="-124.5" font-family="Helvetica,sans-Serif" font-size="10.00">map</text>
</g>
<!-- Node27&#45;&gt;Node30 -->
<g id="edge114" class="edge"><title>Node27&#45;&gt;Node30</title>
<path fill="none" stroke="midnightblue" d="M790.36,-185.434C825.083,-181.371 871.689,-176.473 913,-174 1846.58,-118.103 2085.85,-225.468 3017,-138 3028.99,-136.873 3042.12,-134.771 3053.35,-132.703"/>
<polygon fill="midnightblue" stroke="midnightblue" points="3054.28,-136.09 3063.44,-130.765 3052.96,-129.216 3054.28,-136.09"/>
</g>
<!-- Node31 -->
<g id="node89" class="node"><title>Node31</title>
<polygon fill="white" stroke="#bfbfbf" points="685.5,-116.5 685.5,-137.5 732.5,-137.5 732.5,-116.5 685.5,-116.5"/>
<text text-anchor="middle" x="709" y="-124.5" font-family="Helvetica,sans-Serif" font-size="10.00">iterator</text>
</g>
<!-- Node27&#45;&gt;Node31 -->
<g id="edge116" class="edge"><title>Node27&#45;&gt;Node31</title>
<path fill="none" stroke="midnightblue" d="M733.211,-181.267C729.03,-171.896 722.856,-158.057 717.789,-146.7"/>
<polygon fill="midnightblue" stroke="midnightblue" points="720.97,-145.24 713.7,-137.534 714.578,-148.092 720.97,-145.24"/>
</g>
<!-- Node28&#45;&gt;Node8 -->
<g id="edge98" class="edge"><title>Node28&#45;&gt;Node8</title>
<path fill="none" stroke="midnightblue" d="M1391.8,-121.152C1377.1,-119.217 1360.33,-117.243 1345,-116 902.608,-80.1264 788.295,-127.504 347,-80 344.472,-79.7279 341.892,-79.4123 339.289,-79.0637"/>
<polygon fill="midnightblue" stroke="midnightblue" points="339.615,-75.5738 329.211,-77.5765 338.593,-82.4989 339.615,-75.5738"/>
</g>
<!-- Node28&#45;&gt;Node15 -->
<g id="edge106" class="edge"><title>Node28&#45;&gt;Node15</title>
<path fill="none" stroke="midnightblue" d="M1450.52,-116.362C1465.9,-107.532 1488,-94.844 1505.45,-84.8224"/>
<polygon fill="midnightblue" stroke="midnightblue" points="1507.66,-87.5857 1514.59,-79.5707 1504.18,-81.5154 1507.66,-87.5857"/>
</g>
<!-- Node28&#45;&gt;Node17 -->
<g id="edge102" class="edge"><title>Node28&#45;&gt;Node17</title>
<path fill="none" stroke="midnightblue" d="M1412.37,-116.362C1395.86,-107.409 1372.03,-94.4908 1353.42,-84.4064"/>
<polygon fill="midnightblue" stroke="midnightblue" points="1354.96,-81.2592 1344.5,-79.5707 1351.62,-87.4132 1354.96,-81.2592"/>
</g>
<!-- Node28&#45;&gt;Node18 -->
<g id="edge104" class="edge"><title>Node28&#45;&gt;Node18</title>
<path fill="none" stroke="midnightblue" d="M1438.24,-116.362C1442.84,-108.513 1449.23,-97.6159 1454.71,-88.2527"/>
<polygon fill="midnightblue" stroke="midnightblue" points="1457.77,-89.9677 1459.8,-79.5707 1451.73,-86.4276 1457.77,-89.9677"/>
</g>
<!-- Node28&#45;&gt;Node26 -->
<g id="edge100" class="edge"><title>Node28&#45;&gt;Node26</title>
<path fill="none" stroke="midnightblue" d="M1391.79,-121.264C1377.09,-119.34 1360.32,-117.344 1345,-116 1165.87,-100.281 605.138,-77.4198 438.9,-70.8363"/>
<polygon fill="midnightblue" stroke="midnightblue" points="438.659,-67.3242 428.528,-70.4265 438.382,-74.3187 438.659,-67.3242"/>
</g>
<!-- Node29 -->
<g id="node83" class="node"><title>Node29</title>
<polygon fill="white" stroke="#bfbfbf" points="1370.5,-58.5 1370.5,-79.5 1419.5,-79.5 1419.5,-58.5 1370.5,-58.5"/>
<text text-anchor="middle" x="1395" y="-66.5" font-family="Helvetica,sans-Serif" font-size="10.00">istream</text>
</g>
<!-- Node28&#45;&gt;Node29 -->
<g id="edge108" class="edge"><title>Node28&#45;&gt;Node29</title>
<path fill="none" stroke="midnightblue" d="M1425.21,-116.362C1420.21,-108.513 1413.25,-97.6159 1407.28,-88.2527"/>
<polygon fill="midnightblue" stroke="midnightblue" points="1410.07,-86.1189 1401.74,-79.5707 1404.17,-89.8837 1410.07,-86.1189"/>
</g>
<!-- Node32&#45;&gt;Node16 -->
<g id="edge128" class="edge"><title>Node32&#45;&gt;Node16</title>
<path fill="none" stroke="midnightblue" d="M1243.1,-181.433C1236.69,-178.745 1229.65,-176.043 1223,-174 1145.84,-150.302 1120.79,-165.767 1045,-138 1025.95,-131.02 1023.27,-124.827 1005,-116 978.371,-103.134 947.305,-90.2592 924.655,-81.2465"/>
<polygon fill="midnightblue" stroke="midnightblue" points="925.781,-77.9282 915.194,-77.5116 923.211,-84.4392 925.781,-77.9282"/>
</g>
<!-- Node32&#45;&gt;Node17 -->
<g id="edge130" class="edge"><title>Node32&#45;&gt;Node17</title>
<path fill="none" stroke="midnightblue" d="M1293.27,-181.456C1311.54,-172.791 1334.14,-158.57 1345,-138 1353.23,-122.406 1346.27,-102.992 1338.39,-88.7331"/>
<polygon fill="midnightblue" stroke="midnightblue" points="1341.14,-86.5251 1332.96,-79.7954 1335.16,-90.1593 1341.14,-86.5251"/>
</g>
<!-- Node32&#45;&gt;Node22 -->
<g id="edge124" class="edge"><title>Node32&#45;&gt;Node22</title>
<path fill="none" stroke="midnightblue" d="M1300.23,-184.375C1315.96,-180.99 1334.89,-177.083 1352,-174 1457.29,-155.034 1485.35,-160.222 1590,-138 1591.27,-137.731 1592.56,-137.445 1593.85,-137.146"/>
<polygon fill="midnightblue" stroke="midnightblue" points="1594.99,-140.469 1603.86,-134.666 1593.31,-133.675 1594.99,-140.469"/>
</g>
<!-- Node33 -->
<g id="node94" class="node"><title>Node33</title>
<polygon fill="white" stroke="#bfbfbf" points="1216,-116.5 1216,-137.5 1336,-137.5 1336,-116.5 1216,-116.5"/>
<text text-anchor="middle" x="1276" y="-124.5" font-family="Helvetica,sans-Serif" font-size="10.00">base/cereal/access.hpp</text>
</g>
<!-- Node32&#45;&gt;Node33 -->
<g id="edge122" class="edge"><title>Node32&#45;&gt;Node33</title>
<path fill="none" stroke="midnightblue" d="M1267.65,-181.267C1269.05,-172.18 1271.09,-158.892 1272.81,-147.74"/>
<polygon fill="midnightblue" stroke="midnightblue" points="1276.32,-147.95 1274.38,-137.534 1269.4,-146.885 1276.32,-147.95"/>
</g>
<!-- Node32&#45;&gt;Node34 -->
<g id="edge126" class="edge"><title>Node32&#45;&gt;Node34</title>
<path fill="none" stroke="midnightblue" d="M1300.11,-190.943C1368.36,-188.079 1526.26,-177.673 1663.34,-137.833"/>
<polygon fill="midnightblue" stroke="midnightblue" points="1664.58,-141.115 1673.17,-134.913 1662.59,-134.404 1664.58,-141.115"/>
</g>
<!-- Node35 -->
<g id="node101" class="node"><title>Node35</title>
<polygon fill="white" stroke="#bfbfbf" points="3115.5,-116.5 3115.5,-137.5 3164.5,-137.5 3164.5,-116.5 3115.5,-116.5"/>
<text text-anchor="middle" x="3140" y="-124.5" font-family="Helvetica,sans-Serif" font-size="10.00">cassert</text>
</g>
<!-- Node32&#45;&gt;Node35 -->
<g id="edge132" class="edge"><title>Node32&#45;&gt;Node35</title>
<path fill="none" stroke="midnightblue" d="M1300.27,-189.614C1357.27,-185.734 1475.13,-178.081 1575,-174 1912.01,-160.228 2755.26,-195.805 3105.38,-137.798"/>
<polygon fill="midnightblue" stroke="midnightblue" points="3106.07,-141.231 3115.34,-136.099 3104.89,-134.33 3106.07,-141.231"/>
</g>
<!-- Node36&#45;&gt;Node11 -->
<g id="edge136" class="edge"><title>Node36&#45;&gt;Node11</title>
<path fill="none" stroke="midnightblue" d="M89.4526,-253.25C96.7781,-230.441 113.98,-176.879 123.455,-147.379"/>
<polygon fill="midnightblue" stroke="midnightblue" points="126.838,-148.292 126.563,-137.7 120.173,-146.151 126.838,-148.292"/>
</g>
<!-- Node38&#45;&gt;Node7 -->
<g id="edge150" class="edge"><title>Node38&#45;&gt;Node7</title>
<path fill="none" stroke="midnightblue" d="M1473.83,-448.376C1426.32,-431.941 1335.53,-397.642 1266,-354 1224.35,-327.86 1218.94,-314.449 1182,-282 1164.03,-266.216 1162.78,-257.836 1142,-246 1136.24,-242.722 1063.2,-220.391 1013.89,-205.491"/>
<polygon fill="midnightblue" stroke="midnightblue" points="1014.65,-202.064 1004.06,-202.526 1012.62,-208.766 1014.65,-202.064"/>
</g>
<!-- Node38&#45;&gt;Node8 -->
<g id="edge282" class="edge"><title>Node38&#45;&gt;Node8</title>
<path fill="none" stroke="midnightblue" d="M1447.89,-457.354C1171.12,-449.143 0,-410.026 0,-336 0,-336 0,-336 0,-192 0,-143.916 34.8028,-139.054 77,-116 125.646,-89.4223 188.495,-77.8607 232.518,-72.8391"/>
<polygon fill="midnightblue" stroke="midnightblue" points="233.152,-76.2915 242.725,-71.7531 232.411,-69.3308 233.152,-76.2915"/>
</g>
<!-- Node38&#45;&gt;Node22 -->
<g id="edge284" class="edge"><title>Node38&#45;&gt;Node22</title>
<path fill="none" stroke="midnightblue" d="M1505.04,-448.328C1502,-408.393 1496.09,-265.389 1557,-174 1566.19,-160.213 1580.95,-149.601 1594.8,-141.978"/>
<polygon fill="midnightblue" stroke="midnightblue" points="1596.41,-145.085 1603.7,-137.398 1593.2,-138.861 1596.41,-145.085"/>
</g>
<!-- Node38&#45;&gt;Node30 -->
<g id="edge288" class="edge"><title>Node38&#45;&gt;Node30</title>
<path fill="none" stroke="midnightblue" d="M1564.4,-450.362C1676.49,-433.556 1929.47,-394.537 2141,-354 2288.43,-325.746 2324.88,-316.389 2471,-282 2598.17,-252.071 2629.37,-242.164 2756,-210 2866.29,-181.985 2997.57,-148.379 3053.53,-134.04"/>
<polygon fill="midnightblue" stroke="midnightblue" points="3054.57,-137.387 3063.39,-131.515 3052.83,-130.606 3054.57,-137.387"/>
</g>
<!-- Node38&#45;&gt;Node34 -->
<g id="edge286" class="edge"><title>Node38&#45;&gt;Node34</title>
<path fill="none" stroke="midnightblue" d="M1564.18,-451.237C1615.52,-443.361 1685.45,-429.802 1707,-412 1790.86,-342.729 1817.61,-268.639 1764,-174 1762.47,-171.298 1733.12,-153.588 1711.35,-140.702"/>
<polygon fill="midnightblue" stroke="midnightblue" points="1712.98,-137.599 1702.59,-135.532 1709.42,-143.628 1712.98,-137.599"/>
</g>
<!-- Node39 -->
<g id="node115" class="node"><title>Node39</title>
<a xlink:href="_reconstruct__traits_8h.html" target="_top" xlink:title="reconstruct/Reconstruct\l_traits.h">
<polygon fill="white" stroke="black" points="1578,-319 1578,-353 1700,-353 1700,-319 1578,-319"/>
<text text-anchor="start" x="1586" y="-340" font-family="Helvetica,sans-Serif" font-size="10.00">reconstruct/Reconstruct</text>
<text text-anchor="middle" x="1639" y="-327" font-family="Helvetica,sans-Serif" font-size="10.00">_traits.h</text>
</a>
</g>
<!-- Node38&#45;&gt;Node39 -->
<g id="edge152" class="edge"><title>Node38&#45;&gt;Node39</title>
<path fill="none" stroke="midnightblue" d="M1515.24,-448.261C1527.46,-434.289 1549.92,-409.376 1571,-390 1582.43,-379.493 1595.67,-368.7 1607.42,-359.551"/>
<polygon fill="midnightblue" stroke="midnightblue" points="1609.87,-362.081 1615.66,-353.208 1605.6,-356.535 1609.87,-362.081"/>
</g>
<!-- Node42 -->
<g id="node132" class="node"><title>Node42</title>
<a xlink:href="_calibration_8h.html" target="_top" xlink:title="calibration/Calibration.h">
<polygon fill="white" stroke="black" points="1579.5,-390.5 1579.5,-411.5 1698.5,-411.5 1698.5,-390.5 1579.5,-390.5"/>
<text text-anchor="middle" x="1639" y="-398.5" font-family="Helvetica,sans-Serif" font-size="10.00">calibration/Calibration.h</text>
</a>
</g>
<!-- Node38&#45;&gt;Node42 -->
<g id="edge180" class="edge"><title>Node38&#45;&gt;Node42</title>
<path fill="none" stroke="midnightblue" d="M1530.09,-448.497C1551.14,-439.315 1581.93,-425.889 1605.4,-415.652"/>
<polygon fill="midnightblue" stroke="midnightblue" points="1606.88,-418.827 1614.64,-411.621 1604.08,-412.41 1606.88,-418.827"/>
</g>
<!-- Node39&#45;&gt;Node7 -->
<g id="edge154" class="edge"><title>Node39&#45;&gt;Node7</title>
<path fill="none" stroke="midnightblue" d="M1577.88,-326.113C1517.11,-316.02 1421.32,-299.405 1339,-282 1223.72,-257.627 1089.61,-223.567 1018.77,-205.122"/>
<polygon fill="midnightblue" stroke="midnightblue" points="1019.35,-201.656 1008.79,-202.517 1017.58,-208.429 1019.35,-201.656"/>
</g>
<!-- Node39&#45;&gt;Node21 -->
<g id="edge170" class="edge"><title>Node39&#45;&gt;Node21</title>
<path fill="none" stroke="midnightblue" d="M1582.41,-318.916C1492.43,-291.753 1317.42,-238.918 1224.1,-210.747"/>
<polygon fill="midnightblue" stroke="midnightblue" points="1225.09,-207.39 1214.51,-207.851 1223.07,-214.092 1225.09,-207.39"/>
</g>
<!-- Node39&#45;&gt;Node22 -->
<g id="edge172" class="edge"><title>Node39&#45;&gt;Node22</title>
<path fill="none" stroke="midnightblue" d="M1615.81,-318.828C1604.35,-309.197 1591.25,-296.264 1583,-282 1566.49,-253.446 1569.03,-242.738 1565,-210 1563.05,-194.12 1557.72,-188.248 1565,-174 1571.83,-160.629 1584.44,-150.183 1596.75,-142.571"/>
<polygon fill="midnightblue" stroke="midnightblue" points="1598.62,-145.529 1605.57,-137.527 1595.15,-139.452 1598.62,-145.529"/>
</g>
<!-- Node39&#45;&gt;Node23 -->
<g id="edge178" class="edge"><title>Node39&#45;&gt;Node23</title>
<path fill="none" stroke="midnightblue" d="M1700.1,-330.609C1781.24,-322.864 1928.77,-306.736 2053,-282 2173.54,-257.998 2241.18,-304.307 2320,-210 2348.48,-175.918 2342.72,-119.649 2336.88,-89.5309"/>
<polygon fill="midnightblue" stroke="midnightblue" points="2340.29,-88.7583 2334.78,-79.7075 2333.44,-90.2174 2340.29,-88.7583"/>
</g>
<!-- Node39&#45;&gt;Node30 -->
<g id="edge174" class="edge"><title>Node39&#45;&gt;Node30</title>
<path fill="none" stroke="midnightblue" d="M1700.12,-329.68C1736.39,-326.03 1783.29,-321.486 1825,-318 2224.71,-284.585 2358.26,-381.191 2721,-210 2743.54,-199.362 2741.19,-184.05 2764,-174 2874.38,-125.363 2914.31,-159.495 3033,-138 3039.62,-136.8 3046.72,-135.298 3053.36,-133.792"/>
<polygon fill="midnightblue" stroke="midnightblue" points="3054.36,-137.153 3063.3,-131.467 3052.77,-130.337 3054.36,-137.153"/>
</g>
<!-- Node39&#45;&gt;Node34 -->
<g id="edge176" class="edge"><title>Node39&#45;&gt;Node34</title>
<path fill="none" stroke="midnightblue" d="M1698.49,-318.899C1716.24,-310.714 1733.7,-298.886 1744,-282 1769,-241.026 1764.28,-217.504 1744,-174 1737.25,-159.516 1723.59,-147.91 1711.46,-139.855"/>
<polygon fill="midnightblue" stroke="midnightblue" points="1712.96,-136.671 1702.61,-134.399 1709.28,-142.628 1712.96,-136.671"/>
</g>
<!-- Node40 -->
<g id="node118" class="node"><title>Node40</title>
<a xlink:href="mapped__vectors_8h.html" target="_top" xlink:title="base/std_ext/mapped\l_vectors.h">
<polygon fill="white" stroke="black" points="1592,-247 1592,-281 1702,-281 1702,-247 1592,-247"/>
<text text-anchor="start" x="1600" y="-268" font-family="Helvetica,sans-Serif" font-size="10.00">base/std_ext/mapped</text>
<text text-anchor="middle" x="1647" y="-255" font-family="Helvetica,sans-Serif" font-size="10.00">_vectors.h</text>
</a>
</g>
<!-- Node39&#45;&gt;Node40 -->
<g id="edge156" class="edge"><title>Node39&#45;&gt;Node40</title>
<path fill="none" stroke="midnightblue" d="M1640.9,-318.937C1641.81,-310.719 1642.93,-300.66 1643.95,-291.406"/>
<polygon fill="midnightblue" stroke="midnightblue" points="1647.44,-291.766 1645.06,-281.441 1640.48,-290.993 1647.44,-291.766"/>
</g>
<!-- Node40&#45;&gt;Node9 -->
<g id="edge168" class="edge"><title>Node40&#45;&gt;Node9</title>
<path fill="none" stroke="midnightblue" d="M1702.22,-260.446C1858.44,-250.267 2292.84,-221.025 2303,-210 2380.08,-126.315 2273.63,-172.135 2175,-138 2072.68,-102.584 1955.33,-50.816 1900.02,-25.7231"/>
<polygon fill="midnightblue" stroke="midnightblue" points="1901.3,-22.4587 1890.75,-21.5011 1898.4,-28.8297 1901.3,-22.4587"/>
</g>
<!-- Node40&#45;&gt;Node16 -->
<g id="edge164" class="edge"><title>Node40&#45;&gt;Node16</title>
<path fill="none" stroke="midnightblue" d="M1591.75,-262.649C1471.25,-259.042 1188.6,-246.808 1101,-210 1078.02,-200.344 1079.42,-186.748 1058,-174 1020.62,-151.755 1003.77,-161.235 967,-138 944.699,-123.907 923.095,-102.601 909.046,-87.3963"/>
<polygon fill="midnightblue" stroke="midnightblue" points="911.361,-84.7379 902.062,-79.6614 906.166,-89.4291 911.361,-84.7379"/>
</g>
<!-- Node40&#45;&gt;Node22 -->
<g id="edge166" class="edge"><title>Node40&#45;&gt;Node22</title>
<path fill="none" stroke="midnightblue" d="M1611.71,-246.821C1597.59,-237.945 1582.83,-225.652 1575,-210 1567.84,-195.689 1568.3,-188.531 1575,-174 1580.77,-161.489 1591.69,-151.071 1602.29,-143.249"/>
<polygon fill="midnightblue" stroke="midnightblue" points="1604.34,-146.082 1610.62,-137.542 1600.39,-140.308 1604.34,-146.082"/>
</g>
<!-- Node41 -->
<g id="node120" class="node"><title>Node41</title>
<a xlink:href="memory_8h.html" target="_top" xlink:title="base/std_ext/memory.h">
<polygon fill="white" stroke="black" points="1583.5,-181.5 1583.5,-202.5 1702.5,-202.5 1702.5,-181.5 1583.5,-181.5"/>
<text text-anchor="middle" x="1643" y="-189.5" font-family="Helvetica,sans-Serif" font-size="10.00">base/std_ext/memory.h</text>
</a>
</g>
<!-- Node40&#45;&gt;Node41 -->
<g id="edge158" class="edge"><title>Node40&#45;&gt;Node41</title>
<path fill="none" stroke="midnightblue" d="M1646.05,-246.937C1645.49,-236.814 1644.77,-223.898 1644.17,-213.133"/>
<polygon fill="midnightblue" stroke="midnightblue" points="1647.66,-212.691 1643.61,-202.901 1640.67,-213.08 1647.66,-212.691"/>
</g>
<!-- Node41&#45;&gt;Node22 -->
<g id="edge160" class="edge"><title>Node41&#45;&gt;Node22</title>
<path fill="none" stroke="midnightblue" d="M1640.85,-181.267C1639.02,-172.085 1636.32,-158.615 1634.08,-147.392"/>
<polygon fill="midnightblue" stroke="midnightblue" points="1637.5,-146.653 1632.11,-137.534 1630.64,-148.026 1637.5,-146.653"/>
</g>
<!-- Node41&#45;&gt;Node34 -->
<g id="edge162" class="edge"><title>Node41&#45;&gt;Node34</title>
<path fill="none" stroke="midnightblue" d="M1650.43,-181.267C1657.05,-171.707 1666.89,-157.496 1674.84,-146.015"/>
<polygon fill="midnightblue" stroke="midnightblue" points="1677.89,-147.748 1680.71,-137.534 1672.14,-143.763 1677.89,-147.748"/>
</g>
<!-- Node42&#45;&gt;Node16 -->
<g id="edge280" class="edge"><title>Node42&#45;&gt;Node16</title>
<path fill="none" stroke="midnightblue" d="M1608.48,-390.467C1534.52,-365.007 1339.69,-298.36 1176,-246 1123.78,-229.295 1104.38,-239.241 1058,-210 1039.64,-198.425 1042.88,-186.305 1025,-174 989.171,-149.342 967.107,-166.208 934,-138 918.574,-124.857 907.443,-104.377 900.705,-89.139"/>
<polygon fill="midnightblue" stroke="midnightblue" points="903.806,-87.4793 896.744,-79.5815 897.339,-90.1596 903.806,-87.4793"/>
</g>
<!-- Node42&#45;&gt;Node39 -->
<g id="edge182" class="edge"><title>Node42&#45;&gt;Node39</title>
<path fill="none" stroke="midnightblue" d="M1639,-390.267C1639,-382.931 1639,-372.857 1639,-363.38"/>
<polygon fill="midnightblue" stroke="midnightblue" points="1642.5,-363.11 1639,-353.11 1635.5,-363.11 1642.5,-363.11"/>
</g>
<!-- Node43 -->
<g id="node135" class="node"><title>Node43</title>
<a xlink:href="_manager__traits_8h.html" target="_top" xlink:title="calibration/gui/Manager\l_traits.h">
<polygon fill="white" stroke="black" points="1833.5,-319 1833.5,-353 1950.5,-353 1950.5,-319 1833.5,-319"/>
<text text-anchor="start" x="1841.5" y="-340" font-family="Helvetica,sans-Serif" font-size="10.00">calibration/gui/Manager</text>
<text text-anchor="middle" x="1892" y="-327" font-family="Helvetica,sans-Serif" font-size="10.00">_traits.h</text>
</a>
</g>
<!-- Node42&#45;&gt;Node43 -->
<g id="edge184" class="edge"><title>Node42&#45;&gt;Node43</title>
<path fill="none" stroke="midnightblue" d="M1679.93,-390.484C1718.63,-380.543 1777.44,-365.434 1823.32,-353.646"/>
<polygon fill="midnightblue" stroke="midnightblue" points="1824.38,-356.987 1833.19,-351.108 1822.64,-350.207 1824.38,-356.987"/>
</g>
<!-- Node61 -->
<g id="node195" class="node"><title>Node61</title>
<a xlink:href="_options_list_8h.html" target="_top" xlink:title="base/OptionsList.h">
<polygon fill="white" stroke="black" points="2614,-181.5 2614,-202.5 2712,-202.5 2712,-181.5 2614,-181.5"/>
<text text-anchor="middle" x="2663" y="-189.5" font-family="Helvetica,sans-Serif" font-size="10.00">base/OptionsList.h</text>
</a>
</g>
<!-- Node42&#45;&gt;Node61 -->
<g id="edge268" class="edge"><title>Node42&#45;&gt;Node61</title>
<path fill="none" stroke="midnightblue" d="M1698.94,-395.363C1828.4,-382.377 2143.18,-346.422 2400,-282 2483.16,-261.14 2577.56,-225.889 2627.55,-206.267"/>
<polygon fill="midnightblue" stroke="midnightblue" points="2628.92,-209.488 2636.94,-202.56 2626.35,-202.977 2628.92,-209.488"/>
</g>
<!-- Node43&#45;&gt;Node20 -->
<g id="edge262" class="edge"><title>Node43&#45;&gt;Node20</title>
<path fill="none" stroke="midnightblue" d="M1950.67,-329.813C2045.26,-319.828 2237.3,-299.508 2400,-282 2754.85,-243.814 3009.31,-445.777 3190,-138 3194.95,-129.568 3196.21,-123.549 3190,-116 3163.84,-84.2143 3039.58,-73.6148 2980.87,-70.3434"/>
<polygon fill="midnightblue" stroke="midnightblue" points="2980.88,-66.8391 2970.71,-69.8144 2980.51,-73.8296 2980.88,-66.8391"/>
</g>
<!-- Node43&#45;&gt;Node22 -->
<g id="edge266" class="edge"><title>Node43&#45;&gt;Node22</title>
<path fill="none" stroke="midnightblue" d="M1875.04,-318.635C1844.14,-287.507 1775.84,-221.071 1711,-174 1694.98,-162.373 1675.88,-151.176 1660.25,-142.629"/>
<polygon fill="midnightblue" stroke="midnightblue" points="1661.49,-139.323 1651.03,-137.67 1658.18,-145.488 1661.49,-139.323"/>
</g>
<!-- Node43&#45;&gt;Node28 -->
<g id="edge186" class="edge"><title>Node43&#45;&gt;Node28</title>
<path fill="none" stroke="midnightblue" d="M1833.41,-330.103C1756.28,-321.604 1625.5,-304.437 1583,-282 1520.14,-248.814 1467.71,-180.011 1444.63,-146.369"/>
<polygon fill="midnightblue" stroke="midnightblue" points="1447.4,-144.216 1438.92,-137.872 1441.6,-148.123 1447.4,-144.216"/>
</g>
<!-- Node43&#45;&gt;Node34 -->
<g id="edge264" class="edge"><title>Node43&#45;&gt;Node34</title>
<path fill="none" stroke="midnightblue" d="M1893.79,-318.922C1896.22,-286.147 1896.5,-214.126 1858,-174 1812.93,-127.018 1777.98,-157.943 1716,-138 1714.77,-137.604 1713.52,-137.182 1712.25,-136.742"/>
<polygon fill="midnightblue" stroke="midnightblue" points="1713.29,-133.393 1702.7,-133.175 1710.84,-139.951 1713.29,-133.393"/>
</g>
<!-- Node44 -->
<g id="node138" class="node"><title>Node44</title>
<a xlink:href="_wrap_t_file_8h.html" target="_top" xlink:title="base/WrapTFile.h">
<polygon fill="white" stroke="black" points="2502,-181.5 2502,-202.5 2596,-202.5 2596,-181.5 2502,-181.5"/>
<text text-anchor="middle" x="2549" y="-189.5" font-family="Helvetica,sans-Serif" font-size="10.00">base/WrapTFile.h</text>
</a>
</g>
<!-- Node43&#45;&gt;Node44 -->
<g id="edge188" class="edge"><title>Node43&#45;&gt;Node44</title>
<path fill="none" stroke="midnightblue" d="M1950.81,-334.046C2036.76,-330.031 2201.13,-317.937 2336,-282 2404.59,-263.723 2480.05,-227.756 2520.16,-207.257"/>
<polygon fill="midnightblue" stroke="midnightblue" points="2521.83,-210.338 2529.11,-202.642 2518.62,-204.117 2521.83,-210.338"/>
</g>
<!-- Node55 -->
<g id="node172" class="node"><title>Node55</title>
<a xlink:href="_t_i_d_8h.html" target="_top" xlink:title="tree/TID.h">
<polygon fill="white" stroke="black" points="1983.5,-253.5 1983.5,-274.5 2044.5,-274.5 2044.5,-253.5 1983.5,-253.5"/>
<text text-anchor="middle" x="2014" y="-261.5" font-family="Helvetica,sans-Serif" font-size="10.00">tree/TID.h</text>
</a>
</g>
<!-- Node43&#45;&gt;Node55 -->
<g id="edge234" class="edge"><title>Node43&#45;&gt;Node55</title>
<path fill="none" stroke="midnightblue" d="M1920.91,-318.937C1940.99,-307.09 1967.54,-291.419 1987.15,-279.846"/>
<polygon fill="midnightblue" stroke="midnightblue" points="1989.06,-282.785 1995.89,-274.688 1985.5,-276.756 1989.06,-282.785"/>
</g>
<!-- Node44&#45;&gt;Node18 -->
<g id="edge230" class="edge"><title>Node44&#45;&gt;Node18</title>
<path fill="none" stroke="midnightblue" d="M2516.97,-181.422C2507.71,-178.67 2497.52,-175.937 2488,-174 2350.78,-146.081 2312.29,-165.564 2175,-138 2140.52,-131.078 2133.65,-121.987 2099,-116 1841.25,-71.464 1766.94,-123.748 1505.89,-80.0143"/>
<polygon fill="midnightblue" stroke="midnightblue" points="1506.17,-76.512 1495.73,-78.2792 1504.99,-83.4122 1506.17,-76.512"/>
</g>
<!-- Node44&#45;&gt;Node20 -->
<g id="edge224" class="edge"><title>Node44&#45;&gt;Node20</title>
<path fill="none" stroke="midnightblue" d="M2578.05,-181.438C2586.64,-178.653 2596.11,-175.899 2605,-174 2676.28,-158.771 2875.54,-185.289 2931,-138 2944.77,-126.258 2949.02,-105.543 2950.13,-89.8647"/>
<polygon fill="midnightblue" stroke="midnightblue" points="2953.64,-89.6497 2950.47,-79.5396 2946.64,-89.4186 2953.64,-89.6497"/>
</g>
<!-- Node44&#45;&gt;Node22 -->
<g id="edge222" class="edge"><title>Node44&#45;&gt;Node22</title>
<path fill="none" stroke="midnightblue" d="M2501.86,-188.316C2452.35,-184.502 2372.23,-178.486 2303,-174 2022.91,-155.852 1946.19,-188.194 1666.24,-137.827"/>
<polygon fill="midnightblue" stroke="midnightblue" points="1666.66,-134.347 1656.2,-136.001 1665.41,-141.234 1666.66,-134.347"/>
</g>
<!-- Node44&#45;&gt;Node23 -->
<g id="edge232" class="edge"><title>Node44&#45;&gt;Node23</title>
<path fill="none" stroke="midnightblue" d="M2530.12,-181.3C2491.71,-159.528 2404.32,-109.993 2359.55,-84.6175"/>
<polygon fill="midnightblue" stroke="midnightblue" points="2361.11,-81.4743 2350.68,-79.588 2357.65,-87.564 2361.11,-81.4743"/>
</g>
<!-- Node44&#45;&gt;Node34 -->
<g id="edge226" class="edge"><title>Node44&#45;&gt;Node34</title>
<path fill="none" stroke="midnightblue" d="M2501.85,-188.435C2452.34,-184.719 2372.21,-178.781 2303,-174 2056.85,-156.997 1993.92,-167.942 1749,-138 1737.02,-136.535 1723.83,-134.243 1712.79,-132.129"/>
<polygon fill="midnightblue" stroke="midnightblue" points="1713.46,-128.694 1702.97,-130.19 1712.1,-135.561 1713.46,-128.694"/>
</g>
<!-- Node45 -->
<g id="node140" class="node"><title>Node45</title>
<a xlink:href="string_8h.html" target="_top" xlink:title="base/std_ext/string.h">
<polygon fill="white" stroke="black" points="1982,-116.5 1982,-137.5 2090,-137.5 2090,-116.5 1982,-116.5"/>
<text text-anchor="middle" x="2036" y="-124.5" font-family="Helvetica,sans-Serif" font-size="10.00">base/std_ext/string.h</text>
</a>
</g>
<!-- Node44&#45;&gt;Node45 -->
<g id="edge190" class="edge"><title>Node44&#45;&gt;Node45</title>
<path fill="none" stroke="midnightblue" d="M2517.63,-181.48C2508.19,-178.661 2497.76,-175.879 2488,-174 2319.68,-141.592 2274.04,-159.699 2104,-138 2102.73,-137.838 2101.45,-137.671 2100.16,-137.498"/>
<polygon fill="midnightblue" stroke="midnightblue" points="2100.53,-134.016 2090.14,-136.093 2099.56,-140.948 2100.53,-134.016"/>
</g>
<!-- Node46 -->
<g id="node146" class="node"><title>Node46</title>
<a xlink:href="misc_8h.html" target="_top" xlink:title="base/std_ext/misc.h">
<polygon fill="white" stroke="black" points="2183.5,-116.5 2183.5,-137.5 2288.5,-137.5 2288.5,-116.5 2183.5,-116.5"/>
<text text-anchor="middle" x="2236" y="-124.5" font-family="Helvetica,sans-Serif" font-size="10.00">base/std_ext/misc.h</text>
</a>
</g>
<!-- Node44&#45;&gt;Node46 -->
<g id="edge200" class="edge"><title>Node44&#45;&gt;Node46</title>
<path fill="none" stroke="midnightblue" d="M2515.61,-181.475C2506.69,-178.848 2497.02,-176.166 2488,-174 2424.1,-158.657 2350.08,-145.377 2298.87,-136.885"/>
<polygon fill="midnightblue" stroke="midnightblue" points="2299.38,-133.421 2288.94,-135.251 2298.24,-140.328 2299.38,-133.421"/>
</g>
<!-- Node48 -->
<g id="node153" class="node"><title>Node48</title>
<polygon fill="white" stroke="#bfbfbf" points="2495.5,-116.5 2495.5,-137.5 2542.5,-137.5 2542.5,-116.5 2495.5,-116.5"/>
<text text-anchor="middle" x="2519" y="-124.5" font-family="Helvetica,sans-Serif" font-size="10.00">TFile.h</text>
</g>
<!-- Node44&#45;&gt;Node48 -->
<g id="edge210" class="edge"><title>Node44&#45;&gt;Node48</title>
<path fill="none" stroke="midnightblue" d="M2544.05,-181.267C2539.72,-171.896 2533.33,-158.057 2528.09,-146.7"/>
<polygon fill="midnightblue" stroke="midnightblue" points="2531.23,-145.147 2523.86,-137.534 2524.87,-148.08 2531.23,-145.147"/>
</g>
<!-- Node49 -->
<g id="node155" class="node"><title>Node49</title>
<polygon fill="white" stroke="#bfbfbf" points="2559.5,-116.5 2559.5,-137.5 2630.5,-137.5 2630.5,-116.5 2559.5,-116.5"/>
<text text-anchor="middle" x="2595" y="-124.5" font-family="Helvetica,sans-Serif" font-size="10.00">TDirectory.h</text>
</g>
<!-- Node44&#45;&gt;Node49 -->
<g id="edge212" class="edge"><title>Node44&#45;&gt;Node49</title>
<path fill="none" stroke="midnightblue" d="M2556.6,-181.267C2563.36,-171.707 2573.42,-157.496 2581.54,-146.015"/>
<polygon fill="midnightblue" stroke="midnightblue" points="2584.63,-147.718 2587.55,-137.534 2578.91,-143.675 2584.63,-147.718"/>
</g>
<!-- Node50 -->
<g id="node157" class="node"><title>Node50</title>
<polygon fill="white" stroke="#bfbfbf" points="2648,-116.5 2648,-137.5 2700,-137.5 2700,-116.5 2648,-116.5"/>
<text text-anchor="middle" x="2674" y="-124.5" font-family="Helvetica,sans-Serif" font-size="10.00">TError.h</text>
</g>
<!-- Node44&#45;&gt;Node50 -->
<g id="edge214" class="edge"><title>Node44&#45;&gt;Node50</title>
<path fill="none" stroke="midnightblue" d="M2569.36,-181.412C2589.79,-170.788 2621.46,-154.318 2644.62,-142.28"/>
<polygon fill="midnightblue" stroke="midnightblue" points="2646.39,-145.302 2653.65,-137.584 2643.16,-139.092 2646.39,-145.302"/>
</g>
<!-- Node51 -->
<g id="node159" class="node"><title>Node51</title>
<polygon fill="white" stroke="#bfbfbf" points="2717.5,-116.5 2717.5,-137.5 2764.5,-137.5 2764.5,-116.5 2717.5,-116.5"/>
<text text-anchor="middle" x="2741" y="-124.5" font-family="Helvetica,sans-Serif" font-size="10.00">TList.h</text>
</g>
<!-- Node44&#45;&gt;Node51 -->
<g id="edge216" class="edge"><title>Node44&#45;&gt;Node51</title>
<path fill="none" stroke="midnightblue" d="M2580.29,-181.497C2610.6,-171.31 2658.12,-155.306 2707.64,-138.452"/>
<polygon fill="midnightblue" stroke="midnightblue" points="2708.9,-141.721 2717.24,-135.184 2706.64,-135.095 2708.9,-141.721"/>
</g>
<!-- Node52 -->
<g id="node161" class="node"><title>Node52</title>
<polygon fill="white" stroke="#bfbfbf" points="2782,-116.5 2782,-137.5 2856,-137.5 2856,-116.5 2782,-116.5"/>
<text text-anchor="middle" x="2819" y="-124.5" font-family="Helvetica,sans-Serif" font-size="10.00">TCollection.h</text>
</g>
<!-- Node44&#45;&gt;Node52 -->
<g id="edge218" class="edge"><title>Node44&#45;&gt;Node52</title>
<path fill="none" stroke="midnightblue" d="M2579.94,-181.447C2588.05,-178.849 2596.81,-176.188 2605,-174 2675.75,-155.1 2696.82,-154.867 2771.92,-138.193"/>
<polygon fill="midnightblue" stroke="midnightblue" points="2772.87,-141.567 2781.86,-135.961 2771.34,-134.737 2772.87,-141.567"/>
</g>
<!-- Node53 -->
<g id="node163" class="node"><title>Node53</title>
<polygon fill="white" stroke="#bfbfbf" points="2874,-116.5 2874,-137.5 2922,-137.5 2922,-116.5 2874,-116.5"/>
<text text-anchor="middle" x="2898" y="-124.5" font-family="Helvetica,sans-Serif" font-size="10.00">TKey.h</text>
</g>
<!-- Node44&#45;&gt;Node53 -->
<g id="edge220" class="edge"><title>Node44&#45;&gt;Node53</title>
<path fill="none" stroke="midnightblue" d="M2578.67,-181.407C2587.1,-178.688 2596.34,-175.976 2605,-174 2715.63,-148.763 2749.56,-163.687 2864.14,-137.847"/>
<polygon fill="midnightblue" stroke="midnightblue" points="2865.04,-141.231 2874,-135.57 2863.47,-134.411 2865.04,-141.231"/>
</g>
<!-- Node54 -->
<g id="node168" class="node"><title>Node54</title>
<polygon fill="white" stroke="#bfbfbf" points="2978,-116.5 2978,-137.5 3008,-137.5 3008,-116.5 2978,-116.5"/>
<text text-anchor="middle" x="2993" y="-124.5" font-family="Helvetica,sans-Serif" font-size="10.00">set</text>
</g>
<!-- Node44&#45;&gt;Node54 -->
<g id="edge228" class="edge"><title>Node44&#45;&gt;Node54</title>
<path fill="none" stroke="midnightblue" d="M2577.75,-181.475C2586.41,-178.657 2596,-175.875 2605,-174 2761.98,-141.283 2807.91,-174.752 2964,-138 2965.44,-137.661 2966.91,-137.267 2968.38,-136.835"/>
<polygon fill="midnightblue" stroke="midnightblue" points="2969.55,-140.133 2977.88,-133.591 2967.29,-133.508 2969.55,-140.133"/>
</g>
<!-- Node45&#45;&gt;Node16 -->
<g id="edge198" class="edge"><title>Node45&#45;&gt;Node16</title>
<path fill="none" stroke="midnightblue" d="M1981.88,-117.662C1977.2,-117.031 1972.52,-116.463 1968,-116 1758.16,-94.5145 1081.99,-74.3611 925.529,-69.9092"/>
<polygon fill="midnightblue" stroke="midnightblue" points="925.271,-66.4006 915.176,-69.616 925.073,-73.3978 925.271,-66.4006"/>
</g>
<!-- Node45&#45;&gt;Node17 -->
<g id="edge196" class="edge"><title>Node45&#45;&gt;Node17</title>
<path fill="none" stroke="midnightblue" d="M1981.88,-117.739C1977.19,-117.091 1972.52,-116.498 1968,-116 1703.09,-86.7807 1629.52,-125.777 1363.09,-79.8284"/>
<polygon fill="midnightblue" stroke="midnightblue" points="1363.58,-76.3605 1353.12,-78.0857 1362.37,-83.2559 1363.58,-76.3605"/>
</g>
<!-- Node45&#45;&gt;Node20 -->
<g id="edge192" class="edge"><title>Node45&#45;&gt;Node20</title>
<path fill="none" stroke="midnightblue" d="M2090.11,-122.485C2115.82,-120.4 2146.99,-117.958 2175,-116 2464.29,-95.783 2814.69,-76.3528 2919.18,-70.6649"/>
<polygon fill="midnightblue" stroke="midnightblue" points="2919.54,-74.1506 2929.33,-70.1133 2919.16,-67.1609 2919.54,-74.1506"/>
</g>
<!-- Node45&#45;&gt;Node25 -->
<g id="edge194" class="edge"><title>Node45&#45;&gt;Node25</title>
<path fill="none" stroke="midnightblue" d="M1981.89,-117.607C1977.2,-116.988 1972.52,-116.438 1968,-116 1478.47,-68.6345 1353.06,-107.269 862,-80 826.708,-78.0402 786.488,-74.7722 758.241,-72.3063"/>
<polygon fill="midnightblue" stroke="midnightblue" points="758.306,-68.7985 748.037,-71.4049 757.69,-75.7713 758.306,-68.7985"/>
</g>
<!-- Node46&#45;&gt;Node13 -->
<g id="edge206" class="edge"><title>Node46&#45;&gt;Node13</title>
<path fill="none" stroke="midnightblue" d="M2183.43,-119.942C2172.71,-118.574 2161.5,-117.196 2151,-116 1889.65,-86.2279 1824.5,-74.9817 1562,-58 1047.72,-24.7292 917.886,-44.0823 403,-22 343.351,-19.4418 273.801,-15.3993 234.129,-12.9928"/>
<polygon fill="midnightblue" stroke="midnightblue" points="234.196,-9.49041 224.001,-12.3745 233.769,-16.4774 234.196,-9.49041"/>
</g>
<!-- Node46&#45;&gt;Node17 -->
<g id="edge202" class="edge"><title>Node46&#45;&gt;Node17</title>
<path fill="none" stroke="midnightblue" d="M2183.33,-122.383C2157.87,-120.251 2126.86,-117.798 2099,-116 1775.09,-95.0906 1687.08,-134.305 1363.26,-79.8403"/>
<polygon fill="midnightblue" stroke="midnightblue" points="1363.56,-76.3418 1353.12,-78.1171 1362.39,-83.2429 1363.56,-76.3418"/>
</g>
<!-- Node46&#45;&gt;Node23 -->
<g id="edge204" class="edge"><title>Node46&#45;&gt;Node23</title>
<path fill="none" stroke="midnightblue" d="M2253.61,-116.362C2268.22,-107.532 2289.22,-94.844 2305.81,-84.8224"/>
<polygon fill="midnightblue" stroke="midnightblue" points="2307.75,-87.7376 2314.5,-79.5707 2304.13,-81.7461 2307.75,-87.7376"/>
</g>
<!-- Node47 -->
<g id="node151" class="node"><title>Node47</title>
<polygon fill="white" stroke="#bfbfbf" points="2209.5,-58.5 2209.5,-79.5 2262.5,-79.5 2262.5,-58.5 2209.5,-58.5"/>
<text text-anchor="middle" x="2236" y="-66.5" font-family="Helvetica,sans-Serif" font-size="10.00">cxxabi.h</text>
</g>
<!-- Node46&#45;&gt;Node47 -->
<g id="edge208" class="edge"><title>Node46&#45;&gt;Node47</title>
<path fill="none" stroke="midnightblue" d="M2236,-116.362C2236,-108.922 2236,-98.7427 2236,-89.7276"/>
<polygon fill="midnightblue" stroke="midnightblue" points="2239.5,-89.5706 2236,-79.5707 2232.5,-89.5707 2239.5,-89.5706"/>
</g>
<!-- Node55&#45;&gt;Node8 -->
<g id="edge238" class="edge"><title>Node55&#45;&gt;Node8</title>
<path fill="none" stroke="midnightblue" d="M1983.48,-261.938C1928.85,-258.304 1810.75,-250.699 1711,-246 1481.34,-235.182 902.76,-253.524 677,-210 537.827,-183.169 382.043,-114.507 317.065,-83.9984"/>
<polygon fill="midnightblue" stroke="midnightblue" points="318.328,-80.7237 307.791,-79.6125 315.335,-87.0517 318.328,-80.7237"/>
</g>
<!-- Node55&#45;&gt;Node9 -->
<g id="edge248" class="edge"><title>Node55&#45;&gt;Node9</title>
<path fill="none" stroke="midnightblue" d="M2044.51,-262.367C2113.38,-258.103 2278.16,-244.475 2320,-210 2374.89,-164.778 2417.89,-110.579 2370,-58 2339.21,-24.1895 2024.17,-14.2597 1909.47,-11.7525"/>
<polygon fill="midnightblue" stroke="midnightblue" points="1909.4,-8.25034 1899.33,-11.5389 1909.26,-15.2488 1909.4,-8.25034"/>
</g>
<!-- Node55&#45;&gt;Node18 -->
<g id="edge254" class="edge"><title>Node55&#45;&gt;Node18</title>
<path fill="none" stroke="midnightblue" d="M2007.74,-253.369C1995.83,-234.152 1967.93,-193.796 1933,-174 1860.5,-132.915 1827.02,-167.277 1749,-138 1730.73,-131.144 1729.34,-122.664 1711,-116 1626.23,-85.202 1596.99,-99.9158 1505.72,-80.1856"/>
<polygon fill="midnightblue" stroke="midnightblue" points="1506.31,-76.7323 1495.79,-77.9579 1504.78,-83.5624 1506.31,-76.7323"/>
</g>
<!-- Node55&#45;&gt;Node19 -->
<g id="edge252" class="edge"><title>Node55&#45;&gt;Node19</title>
<path fill="none" stroke="midnightblue" d="M2044.5,-263.026C2111.95,-260.165 2270.35,-249.316 2303,-210 2313.22,-197.691 2313.74,-185.859 2303,-174 2248.58,-113.918 2019.54,-153.621 1940,-138 1938.74,-137.753 1937.47,-137.482 1936.18,-137.191"/>
<polygon fill="midnightblue" stroke="midnightblue" points="1936.88,-133.756 1926.32,-134.663 1935.14,-140.537 1936.88,-133.756"/>
</g>
<!-- Node55&#45;&gt;Node24 -->
<g id="edge258" class="edge"><title>Node55&#45;&gt;Node24</title>
<path fill="none" stroke="midnightblue" d="M1983.48,-261.905C1928.86,-258.218 1810.76,-250.533 1711,-246 1203.27,-222.928 1075.25,-241.859 568,-210 513.612,-206.584 450.725,-200.182 412.42,-196.006"/>
<polygon fill="midnightblue" stroke="midnightblue" points="412.618,-192.507 402.295,-194.891 411.852,-199.465 412.618,-192.507"/>
</g>
<!-- Node55&#45;&gt;Node34 -->
<g id="edge256" class="edge"><title>Node55&#45;&gt;Node34</title>
<path fill="none" stroke="midnightblue" d="M1999.95,-253.155C1969.31,-229.512 1898.93,-175.326 1896,-174 1821.66,-140.399 1794.27,-161.006 1716,-138 1714.76,-137.635 1713.5,-137.239 1712.23,-136.819"/>
<polygon fill="midnightblue" stroke="midnightblue" points="1713.25,-133.464 1702.65,-133.32 1710.84,-140.039 1713.25,-133.464"/>
</g>
<!-- Node56 -->
<g id="node174" class="node"><title>Node56</title>
<polygon fill="white" stroke="#bfbfbf" points="1986,-181.5 1986,-202.5 2042,-202.5 2042,-181.5 1986,-181.5"/>
<text text-anchor="middle" x="2014" y="-189.5" font-family="Helvetica,sans-Serif" font-size="10.00">Rtypes.h</text>
</g>
<!-- Node55&#45;&gt;Node56 -->
<g id="edge236" class="edge"><title>Node55&#45;&gt;Node56</title>
<path fill="none" stroke="midnightblue" d="M2014,-253.376C2014,-242.741 2014,-226.095 2014,-212.82"/>
<polygon fill="midnightblue" stroke="midnightblue" points="2017.5,-212.667 2014,-202.667 2010.5,-212.667 2017.5,-212.667"/>
</g>
<!-- Node57 -->
<g id="node177" class="node"><title>Node57</title>
<a xlink:href="time_8h.html" target="_top" xlink:title="base/std_ext/time.h">
<polygon fill="white" stroke="black" points="2191.5,-181.5 2191.5,-202.5 2294.5,-202.5 2294.5,-181.5 2191.5,-181.5"/>
<text text-anchor="middle" x="2243" y="-189.5" font-family="Helvetica,sans-Serif" font-size="10.00">base/std_ext/time.h</text>
</a>
</g>
<!-- Node55&#45;&gt;Node57 -->
<g id="edge240" class="edge"><title>Node55&#45;&gt;Node57</title>
<path fill="none" stroke="midnightblue" d="M2044.88,-254.29C2084.72,-241.764 2154.26,-219.902 2199.45,-205.693"/>
<polygon fill="midnightblue" stroke="midnightblue" points="2200.77,-208.946 2209.26,-202.608 2198.67,-202.268 2200.77,-208.946"/>
</g>
<!-- Node59 -->
<g id="node182" class="node"><title>Node59</title>
<polygon fill="white" stroke="#bfbfbf" points="1757.5,-116.5 1757.5,-137.5 1798.5,-137.5 1798.5,-116.5 1757.5,-116.5"/>
<text text-anchor="middle" x="1778" y="-124.5" font-family="Helvetica,sans-Serif" font-size="10.00">ctime</text>
</g>
<!-- Node55&#45;&gt;Node59 -->
<g id="edge260" class="edge"><title>Node55&#45;&gt;Node59</title>
<path fill="none" stroke="midnightblue" d="M2044.58,-255.249C2066.22,-247.276 2093.68,-233.138 2107,-210 2114.98,-196.134 2117.62,-185.969 2107,-174 2064.35,-125.931 1888.28,-151.574 1808.82,-137.672"/>
<polygon fill="midnightblue" stroke="midnightblue" points="1809.22,-134.181 1798.72,-135.55 1807.78,-141.031 1809.22,-134.181"/>
</g>
<!-- Node60 -->
<g id="node185" class="node"><title>Node60</title>
<polygon fill="white" stroke="#bfbfbf" points="2060,-181.5 2060,-202.5 2098,-202.5 2098,-181.5 2060,-181.5"/>
<text text-anchor="middle" x="2079" y="-189.5" font-family="Helvetica,sans-Serif" font-size="10.00">tuple</text>
</g>
<!-- Node55&#45;&gt;Node60 -->
<g id="edge250" class="edge"><title>Node55&#45;&gt;Node60</title>
<path fill="none" stroke="midnightblue" d="M2023.59,-253.376C2033.77,-242.103 2050.04,-224.075 2062.33,-210.468"/>
<polygon fill="midnightblue" stroke="midnightblue" points="2065.27,-212.436 2069.37,-202.667 2060.07,-207.745 2065.27,-212.436"/>
</g>
<!-- Node57&#45;&gt;Node45 -->
<g id="edge242" class="edge"><title>Node57&#45;&gt;Node45</title>
<path fill="none" stroke="midnightblue" d="M2209.28,-181.412C2173.95,-170.316 2118.3,-152.843 2079.64,-140.702"/>
<polygon fill="midnightblue" stroke="midnightblue" points="2080.29,-137.24 2069.7,-137.584 2078.2,-143.919 2080.29,-137.24"/>
</g>
<!-- Node58 -->
<g id="node180" class="node"><title>Node58</title>
<polygon fill="white" stroke="#bfbfbf" points="1816,-116.5 1816,-137.5 1862,-137.5 1862,-116.5 1816,-116.5"/>
<text text-anchor="middle" x="1839" y="-124.5" font-family="Helvetica,sans-Serif" font-size="10.00">cstring</text>
</g>
<!-- Node57&#45;&gt;Node58 -->
<g id="edge244" class="edge"><title>Node57&#45;&gt;Node58</title>
<path fill="none" stroke="midnightblue" d="M2208.83,-181.478C2198.95,-178.727 2188.11,-175.981 2178,-174 2046.34,-148.209 2006.8,-167.55 1872.12,-137.862"/>
<polygon fill="midnightblue" stroke="midnightblue" points="1872.78,-134.423 1862.25,-135.638 1871.24,-141.252 1872.78,-134.423"/>
</g>
<!-- Node57&#45;&gt;Node59 -->
<g id="edge246" class="edge"><title>Node57&#45;&gt;Node59</title>
<path fill="none" stroke="midnightblue" d="M2209.19,-181.441C2199.22,-178.656 2188.25,-175.901 2178,-174 2018.3,-144.371 1970.19,-174.486 1808.5,-137.877"/>
<polygon fill="midnightblue" stroke="midnightblue" points="1809.23,-134.454 1798.7,-135.609 1807.66,-141.274 1809.23,-134.454"/>
</g>
<!-- Node61&#45;&gt;Node20 -->
<g id="edge270" class="edge"><title>Node61&#45;&gt;Node20</title>
<path fill="none" stroke="midnightblue" d="M2696.11,-181.497C2705.68,-178.746 2716.19,-175.996 2726,-174 2789.85,-161.011 2973.85,-186.821 3017,-138 3034.43,-118.278 3004.99,-96.681 2979.79,-82.9964"/>
<polygon fill="midnightblue" stroke="midnightblue" points="2981.28,-79.8275 2970.8,-78.3309 2978.06,-86.0416 2981.28,-79.8275"/>
</g>
<!-- Node61&#45;&gt;Node22 -->
<g id="edge272" class="edge"><title>Node61&#45;&gt;Node22</title>
<path fill="none" stroke="midnightblue" d="M2634.16,-181.413C2624.96,-178.483 2614.66,-175.655 2605,-174 2196.23,-104.001 2078.85,-207.613 1666.3,-137.789"/>
<polygon fill="midnightblue" stroke="midnightblue" points="1666.64,-134.296 1656.19,-136.053 1665.45,-141.195 1666.64,-134.296"/>
</g>
<!-- Node61&#45;&gt;Node25 -->
<g id="edge278" class="edge"><title>Node61&#45;&gt;Node25</title>
<path fill="none" stroke="midnightblue" d="M2633.84,-181.428C2624.72,-178.536 2614.54,-175.726 2605,-174 2328.15,-123.933 2242.53,-218.68 1973,-138 1954.3,-132.404 1953.76,-121.377 1935,-116 1820.33,-83.1292 981.102,-86.6736 862,-80 826.709,-78.0225 786.489,-74.7569 758.242,-72.2964"/>
<polygon fill="midnightblue" stroke="midnightblue" points="758.306,-68.7885 748.037,-71.3971 757.691,-75.7615 758.306,-68.7885"/>
</g>
<!-- Node61&#45;&gt;Node30 -->
<g id="edge274" class="edge"><title>Node61&#45;&gt;Node30</title>
<path fill="none" stroke="midnightblue" d="M2696.1,-181.418C2705.67,-178.666 2716.18,-175.935 2726,-174 2868.15,-146 2908.79,-170.441 3050,-138 3051.09,-137.751 3052.19,-137.475 3053.29,-137.18"/>
<polygon fill="midnightblue" stroke="midnightblue" points="3054.66,-140.419 3063.18,-134.112 3052.59,-133.733 3054.66,-140.419"/>
</g>
<!-- Node61&#45;&gt;Node54 -->
<g id="edge276" class="edge"><title>Node61&#45;&gt;Node54</title>
<path fill="none" stroke="midnightblue" d="M2696.8,-181.48C2706.19,-178.793 2716.44,-176.08 2726,-174 2830.54,-151.258 2860.51,-165.123 2964,-138 2965.43,-137.625 2966.89,-137.203 2968.36,-136.749"/>
<polygon fill="midnightblue" stroke="midnightblue" points="2969.56,-140.038 2977.85,-133.442 2967.25,-133.427 2969.56,-140.038"/>
</g>
<!-- Node62&#45;&gt;Node7 -->
<g id="edge292" class="edge"><title>Node62&#45;&gt;Node7</title>
<path fill="none" stroke="midnightblue" d="M1234.93,-575.494C1172.1,-567.779 1082.29,-552.746 1058,-528 991.259,-460.015 1040.96,-409.664 1015,-318 1004.17,-279.77 987.343,-236.528 977.323,-211.938"/>
<polygon fill="midnightblue" stroke="midnightblue" points="980.526,-210.525 973.483,-202.611 974.053,-213.19 980.526,-210.525"/>
</g>
<!-- Node63 -->
<g id="node210" class="node"><title>Node63</title>
<a xlink:href="_unpacker_acqu_8h.html" target="_top" xlink:title="unpacker/UnpackerAcqu.h">
<polygon fill="white" stroke="black" points="1440,-506.5 1440,-527.5 1572,-527.5 1572,-506.5 1440,-506.5"/>
<text text-anchor="middle" x="1506" y="-514.5" font-family="Helvetica,sans-Serif" font-size="10.00">unpacker/UnpackerAcqu.h</text>
</a>
</g>
<!-- Node62&#45;&gt;Node63 -->
<g id="edge294" class="edge"><title>Node62&#45;&gt;Node63</title>
<path fill="none" stroke="midnightblue" d="M1332.72,-571.412C1368.05,-560.316 1423.7,-542.843 1462.36,-530.702"/>
<polygon fill="midnightblue" stroke="midnightblue" points="1463.8,-533.919 1472.3,-527.584 1461.71,-527.24 1463.8,-533.919"/>
</g>
<!-- Node63&#45;&gt;Node7 -->
<g id="edge304" class="edge"><title>Node63&#45;&gt;Node7</title>
<path fill="none" stroke="midnightblue" d="M1478.37,-506.373C1456.21,-497.52 1424.54,-484.119 1398,-470 1313.32,-424.945 1293.49,-410.538 1216,-354 1155.32,-309.726 1149.53,-286.079 1086,-246 1060.72,-230.053 1029.97,-216.044 1006.33,-206.294"/>
<polygon fill="midnightblue" stroke="midnightblue" points="1007.58,-203.025 997,-202.512 1004.95,-209.512 1007.58,-203.025"/>
</g>
<!-- Node63&#45;&gt;Node15 -->
<g id="edge316" class="edge"><title>Node63&#45;&gt;Node15</title>
<path fill="none" stroke="midnightblue" d="M1572.17,-516.062C1835.41,-512.159 2800.54,-496.187 2935,-470 3078.69,-442.016 3192,-410.387 3192,-264 3192,-264 3192,-264 3192,-192 3192,-157.183 3200.13,-137.818 3173,-116 3156.69,-102.883 1786.54,-74.2063 1563.52,-69.6232"/>
<polygon fill="midnightblue" stroke="midnightblue" points="1563.29,-66.1178 1553.22,-69.4119 1563.15,-73.1163 1563.29,-66.1178"/>
</g>
<!-- Node63&#45;&gt;Node16 -->
<g id="edge312" class="edge"><title>Node63&#45;&gt;Node16</title>
<path fill="none" stroke="midnightblue" d="M1460.4,-506.484C1349.45,-478.51 1063.5,-391.678 913,-210 885.348,-176.619 884.25,-159.259 887,-116 887.545,-107.421 888.645,-98.0146 889.756,-89.8855"/>
<polygon fill="midnightblue" stroke="midnightblue" points="893.249,-90.19 891.227,-79.7899 886.322,-89.181 893.249,-90.19"/>
</g>
<!-- Node63&#45;&gt;Node19 -->
<g id="edge314" class="edge"><title>Node63&#45;&gt;Node19</title>
<path fill="none" stroke="midnightblue" d="M1572.02,-515.995C1733.79,-513.05 2146.5,-502.49 2280,-470 2341.87,-454.943 2375.81,-465.064 2411,-412 2473.59,-317.624 2416.71,-232.929 2320,-174 2248.47,-130.413 2031.47,-156.107 1936,-138.718"/>
<polygon fill="midnightblue" stroke="midnightblue" points="1936.57,-135.26 1926.06,-136.64 1935.13,-142.112 1936.57,-135.26"/>
</g>
<!-- Node63&#45;&gt;Node22 -->
<g id="edge306" class="edge"><title>Node63&#45;&gt;Node22</title>
<path fill="none" stroke="midnightblue" d="M1484.77,-506.429C1470.18,-498.231 1451.29,-485.641 1439,-470 1418.65,-444.107 1412,-433.931 1412,-401 1412,-401 1412,-401 1412,-336 1412,-236.214 1532.49,-169.284 1594.31,-141.508"/>
<polygon fill="midnightblue" stroke="midnightblue" points="1595.95,-144.611 1603.7,-137.388 1593.14,-138.2 1595.95,-144.611"/>
</g>
<!-- Node63&#45;&gt;Node30 -->
<g id="edge310" class="edge"><title>Node63&#45;&gt;Node30</title>
<path fill="none" stroke="midnightblue" d="M1572.35,-516.027C1798.58,-512.478 2538.8,-498.892 2775,-470 2912.95,-453.126 3080,-539.981 3080,-401 3080,-401 3080,-401 3080,-264 3080,-222.792 3080.46,-174.613 3080.75,-147.772"/>
<polygon fill="midnightblue" stroke="midnightblue" points="3084.26,-147.697 3080.87,-137.658 3077.26,-147.618 3084.26,-147.697"/>
</g>
<!-- Node63&#45;&gt;Node34 -->
<g id="edge308" class="edge"><title>Node63&#45;&gt;Node34</title>
<path fill="none" stroke="midnightblue" d="M1572.32,-515.341C1779.04,-509.299 2398,-484.256 2398,-401 2398,-401 2398,-401 2398,-336 2398,-317.497 2124.65,-179.54 2107,-174 1954.42,-126.117 1907.36,-160.207 1749,-138 1737.05,-136.324 1723.86,-134.005 1712.81,-131.929"/>
<polygon fill="midnightblue" stroke="midnightblue" points="1713.47,-128.491 1702.99,-130.041 1712.15,-135.365 1713.47,-128.491"/>
</g>
<!-- Node63&#45;&gt;Node38 -->
<g id="edge302" class="edge"><title>Node63&#45;&gt;Node38</title>
<path fill="none" stroke="midnightblue" d="M1506,-506.362C1506,-498.922 1506,-488.743 1506,-479.728"/>
<polygon fill="midnightblue" stroke="midnightblue" points="1509.5,-479.571 1506,-469.571 1502.5,-479.571 1509.5,-479.571"/>
</g>
<!-- Node64 -->
<g id="node212" class="node"><title>Node64</title>
<a xlink:href="_unpacker_8h.html" target="_top" xlink:title="Unpacker.h">
<polygon fill="white" stroke="black" points="2985.5,-181.5 2985.5,-202.5 3052.5,-202.5 3052.5,-181.5 2985.5,-181.5"/>
<text text-anchor="middle" x="3019" y="-189.5" font-family="Helvetica,sans-Serif" font-size="10.00">Unpacker.h</text>
</a>
</g>
<!-- Node63&#45;&gt;Node64 -->
<g id="edge296" class="edge"><title>Node63&#45;&gt;Node64</title>
<path fill="none" stroke="midnightblue" d="M1572.49,-515.514C1867.31,-508.496 3042,-475.838 3042,-401 3042,-401 3042,-401 3042,-336 3042,-291.523 3031.17,-240.276 3024.37,-212.496"/>
<polygon fill="midnightblue" stroke="midnightblue" points="3027.75,-211.586 3021.91,-202.745 3020.96,-213.297 3027.75,-211.586"/>
</g>
<!-- Node64&#45;&gt;Node20 -->
<g id="edge298" class="edge"><title>Node64&#45;&gt;Node20</title>
<path fill="none" stroke="midnightblue" d="M3052.86,-188.038C3108.18,-180.222 3208.41,-159.646 3173,-116 3149.16,-86.6173 3036.48,-74.9051 2981.01,-70.8601"/>
<polygon fill="midnightblue" stroke="midnightblue" points="2980.94,-67.3469 2970.72,-70.1504 2980.45,-74.3303 2980.94,-67.3469"/>
</g>
<!-- Node64&#45;&gt;Node22 -->
<g id="edge300" class="edge"><title>Node64&#45;&gt;Node22</title>
<path fill="none" stroke="midnightblue" d="M2985.5,-189.689C2930.36,-185.95 2817.04,-178.537 2721,-174 2489.67,-163.072 1912.51,-177.166 1666.23,-137.736"/>
<polygon fill="midnightblue" stroke="midnightblue" points="1666.62,-134.253 1656.19,-136.066 1665.48,-141.158 1666.62,-134.253"/>
</g>
<!-- Node65&#45;&gt;Node7 -->
<g id="edge320" class="edge"><title>Node65&#45;&gt;Node7</title>
<path fill="none" stroke="midnightblue" d="M1380.8,-565.869C1281.41,-534.375 1072,-467.06 1072,-459 1072,-459 1072,-459 1072,-336 1072,-281.495 1022.58,-233.406 992.203,-208.997"/>
<polygon fill="midnightblue" stroke="midnightblue" points="994.236,-206.144 984.198,-202.755 989.932,-211.664 994.236,-206.144"/>
</g>
<!-- Node65&#45;&gt;Node15 -->
<g id="edge324" class="edge"><title>Node65&#45;&gt;Node15</title>
<path fill="none" stroke="midnightblue" d="M1483.19,-565.745C1486.15,-565.085 1489.11,-564.494 1492,-564 1828.39,-506.54 1918.3,-547.643 2259,-528 2371.19,-521.532 3268,-571.373 3268,-459 3268,-459 3268,-459 3268,-192 3268,-145.164 3237.82,-134.965 3195,-116 3156.21,-98.8211 1786.32,-73.5448 1563.49,-69.5424"/>
<polygon fill="midnightblue" stroke="midnightblue" points="1563.26,-66.0378 1553.2,-69.358 1563.13,-73.0367 1563.26,-66.0378"/>
</g>
<!-- Node65&#45;&gt;Node35 -->
<g id="edge326" class="edge"><title>Node65&#45;&gt;Node35</title>
<path fill="none" stroke="midnightblue" d="M1483.2,-565.808C1486.16,-565.132 1489.11,-564.521 1492,-564 2124.51,-450.044 2306.22,-602.991 2935,-470 3008.19,-454.521 3045.31,-469.635 3093,-412 3158.23,-333.154 3149.33,-198.914 3143.04,-147.694"/>
<polygon fill="midnightblue" stroke="midnightblue" points="3146.48,-147.007 3141.69,-137.557 3139.54,-147.931 3146.48,-147.007"/>
</g>
<!-- Node65&#45;&gt;Node37 -->
<g id="edge328" class="edge"><title>Node65&#45;&gt;Node37</title>
<path fill="none" stroke="midnightblue" d="M1380.77,-565.978C1377.81,-565.258 1374.88,-564.591 1372,-564 1303.2,-549.854 1114.03,-570.354 1058,-528 1002.02,-485.681 985.494,-396.678 980.79,-356.478"/>
<polygon fill="midnightblue" stroke="midnightblue" points="984.27,-356.097 979.754,-346.513 977.307,-356.821 984.27,-356.097"/>
</g>
<!-- Node65&#45;&gt;Node63 -->
<g id="edge322" class="edge"><title>Node65&#45;&gt;Node63</title>
<path fill="none" stroke="midnightblue" d="M1451.44,-564.922C1462.09,-555.57 1475.26,-544.001 1485.99,-534.572"/>
<polygon fill="midnightblue" stroke="midnightblue" points="1488.44,-537.081 1493.65,-527.852 1483.82,-531.822 1488.44,-537.081"/>
</g>
</g>
</svg>
