<?xml version="1.0" encoding="UTF-8" standalone="no"?>
<!DOCTYPE svg PUBLIC "-//W3C//DTD SVG 1.1//EN"
 "http://www.w3.org/Graphics/SVG/1.1/DTD/svg11.dtd">
<!-- Generated by graphviz version 2.26.3 (20100126.1600)
 -->
<!-- Title: src/expconfig/detectors/PID.h Pages: 1 -->
<svg width="2312pt" height="188pt"
 viewBox="0.00 0.00 2312.00 188.00" xmlns="http://www.w3.org/2000/svg" xmlns:xlink="http://www.w3.org/1999/xlink">
<g id="graph1" class="graph" transform="scale(1 1) rotate(0) translate(4 184)">
<title>src/expconfig/detectors/PID.h</title>
<polygon fill="white" stroke="white" points="-4,5 -4,-184 2309,-184 2309,5 -4,5"/>
<!-- Node1 -->
<g id="node1" class="node"><title>Node1</title>
<polygon fill="#bfbfbf" stroke="black" points="1061.5,-145 1061.5,-179 1180.5,-179 1180.5,-145 1061.5,-145"/>
<text text-anchor="start" x="1069.5" y="-166" font-family="Helvetica,sans-Serif" font-size="10.00">src/expconfig/detectors</text>
<text text-anchor="middle" x="1121" y="-153" font-family="Helvetica,sans-Serif" font-size="10.00">/PID.h</text>
</g>
<!-- Node2 -->
<g id="node3" class="node"><title>Node2</title>
<a xlink:href="_m_c_fake_reconstructed_8cc.html" target="_top" xlink:title="src/analysis/utils\l/MCFakeReconstructed.cc">
<polygon fill="white" stroke="black" points="0,-73 0,-107 134,-107 134,-73 0,-73"/>
<text text-anchor="start" x="8" y="-94" font-family="Helvetica,sans-Serif" font-size="10.00">src/analysis/utils</text>
<text text-anchor="middle" x="67" y="-81" font-family="Helvetica,sans-Serif" font-size="10.00">/MCFakeReconstructed.cc</text>
</a>
</g>
<!-- Node1&#45;&gt;Node2 -->
<g id="edge2" class="edge"><title>Node1&#45;&gt;Node2</title>
<path fill="none" stroke="midnightblue" d="M1051.34,-159.762C858.215,-153.302 318.669,-133.447 143,-108 140.048,-107.572 137.042,-107.085 134.013,-106.552"/>
<polygon fill="midnightblue" stroke="midnightblue" points="1051.26,-163.261 1061.37,-160.096 1051.49,-156.265 1051.26,-163.261"/>
</g>
<!-- Node3 -->
<g id="node5" class="node"><title>Node3</title>
<a xlink:href="calibration_2modules_2_p_i_d___energy_8cc.html" target="_top" xlink:title="src/calibration/modules\l/PID_Energy.cc">
<polygon fill="white" stroke="black" points="151.5,-73 151.5,-107 268.5,-107 268.5,-73 151.5,-73"/>
<text text-anchor="start" x="159.5" y="-94" font-family="Helvetica,sans-Serif" font-size="10.00">src/calibration/modules</text>
<text text-anchor="middle" x="210" y="-81" font-family="Helvetica,sans-Serif" font-size="10.00">/PID_Energy.cc</text>
</a>
</g>
<!-- Node1&#45;&gt;Node3 -->
<g id="edge4" class="edge"><title>Node1&#45;&gt;Node3</title>
<path fill="none" stroke="midnightblue" d="M1051.33,-159.327C877.021,-152.353 425.439,-132.439 277,-108 274.267,-107.55 271.484,-107.036 268.682,-106.472"/>
<polygon fill="midnightblue" stroke="midnightblue" points="1051.28,-162.828 1061.41,-159.728 1051.56,-155.833 1051.28,-162.828"/>
</g>
<!-- Node4 -->
<g id="node7" class="node"><title>Node4</title>
<a xlink:href="calibration_2modules_2_p_i_d___phi_angle_8cc.html" target="_top" xlink:title="src/calibration/modules\l/PID_PhiAngle.cc">
<polygon fill="white" stroke="black" points="285.5,-73 285.5,-107 402.5,-107 402.5,-73 285.5,-73"/>
<text text-anchor="start" x="293.5" y="-94" font-family="Helvetica,sans-Serif" font-size="10.00">src/calibration/modules</text>
<text text-anchor="middle" x="344" y="-81" font-family="Helvetica,sans-Serif" font-size="10.00">/PID_PhiAngle.cc</text>
</a>
</g>
<!-- Node1&#45;&gt;Node4 -->
<g id="edge6" class="edge"><title>Node1&#45;&gt;Node4</title>
<path fill="none" stroke="midnightblue" d="M1051.11,-160.995C923.207,-158.203 643.242,-147.671 411,-108 408.269,-107.534 405.489,-107.006 402.689,-106.431"/>
<polygon fill="midnightblue" stroke="midnightblue" points="1051.1,-164.495 1061.17,-161.205 1051.24,-157.497 1051.1,-164.495"/>
</g>
<!-- Node5 -->
<g id="node9" class="node"><title>Node5</title>
<a xlink:href="_p_i_d__2004__elements_8h.html" target="_top" xlink:title="src/expconfig/detectors\l/detail/PID_2004_elements.h">
<polygon fill="white" stroke="black" points="419.5,-73 419.5,-107 562.5,-107 562.5,-73 419.5,-73"/>
<text text-anchor="start" x="427.5" y="-94" font-family="Helvetica,sans-Serif" font-size="10.00">src/expconfig/detectors</text>
<text text-anchor="middle" x="491" y="-81" font-family="Helvetica,sans-Serif" font-size="10.00">/detail/PID_2004_elements.h</text>
</a>
</g>
<!-- Node1&#45;&gt;Node5 -->
<g id="edge8" class="edge"><title>Node1&#45;&gt;Node5</title>
<path fill="none" stroke="midnightblue" d="M1051.4,-157.564C947.492,-150.387 745.816,-134.312 576,-108 571.677,-107.33 567.243,-106.581 562.778,-105.779"/>
<polygon fill="midnightblue" stroke="midnightblue" points="1051.24,-161.061 1061.46,-158.252 1051.72,-154.078 1051.24,-161.061"/>
</g>
<!-- Node6 -->
<g id="node11" class="node"><title>Node6</title>
<a xlink:href="_p_i_d_8cc.html" target="_top" xlink:title="src/expconfig/detectors\l/PID.cc">
<polygon fill="white" stroke="black" points="797.5,-1 797.5,-35 916.5,-35 916.5,-1 797.5,-1"/>
<text text-anchor="start" x="805.5" y="-22" font-family="Helvetica,sans-Serif" font-size="10.00">src/expconfig/detectors</text>
<text text-anchor="middle" x="857" y="-9" font-family="Helvetica,sans-Serif" font-size="10.00">/PID.cc</text>
</a>
</g>
<!-- Node1&#45;&gt;Node6 -->
<g id="edge32" class="edge"><title>Node1&#45;&gt;Node6</title>
<path fill="none" stroke="midnightblue" d="M1050.95,-159.717C917.628,-154.646 638.03,-140.252 609,-108 552.312,-45.0189 707.069,-26.0643 797.272,-20.3949"/>
<polygon fill="midnightblue" stroke="midnightblue" points="1050.94,-163.219 1061.06,-160.094 1051.2,-156.224 1050.94,-163.219"/>
</g>
<!-- Node7 -->
<g id="node13" class="node"><title>Node7</title>
<a xlink:href="_p_i_d__2007__elements_8h.html" target="_top" xlink:title="src/expconfig/detectors\l/detail/PID_2007_elements.h">
<polygon fill="white" stroke="black" points="617.5,-73 617.5,-107 760.5,-107 760.5,-73 617.5,-73"/>
<text text-anchor="start" x="625.5" y="-94" font-family="Helvetica,sans-Serif" font-size="10.00">src/expconfig/detectors</text>
<text text-anchor="middle" x="689" y="-81" font-family="Helvetica,sans-Serif" font-size="10.00">/detail/PID_2007_elements.h</text>
</a>
</g>
<!-- Node1&#45;&gt;Node7 -->
<g id="edge12" class="edge"><title>Node1&#45;&gt;Node7</title>
<path fill="none" stroke="midnightblue" d="M1051.12,-152.73C979.915,-142.945 866.422,-126.41 769,-108 766.342,-107.498 763.638,-106.971 760.91,-106.426"/>
<polygon fill="midnightblue" stroke="midnightblue" points="1050.93,-156.236 1061.31,-154.124 1051.87,-149.301 1050.93,-156.236"/>
</g>
<!-- Node8 -->
<g id="node16" class="node"><title>Node8</title>
<a xlink:href="_p_i_d__2009__05__elements_8h.html" target="_top" xlink:title="src/expconfig/detectors\l/detail/PID_2009_05_elements.h">
<polygon fill="white" stroke="black" points="778,-73 778,-107 936,-107 936,-73 778,-73"/>
<text text-anchor="start" x="786" y="-94" font-family="Helvetica,sans-Serif" font-size="10.00">src/expconfig/detectors</text>
<text text-anchor="middle" x="857" y="-81" font-family="Helvetica,sans-Serif" font-size="10.00">/detail/PID_2009_05_elements.h</text>
</a>
</g>
<!-- Node1&#45;&gt;Node8 -->
<g id="edge16" class="edge"><title>Node1&#45;&gt;Node8</title>
<path fill="none" stroke="midnightblue" d="M1051.53,-143.052C1010.6,-131.89 959.242,-117.884 919.576,-107.066"/>
<polygon fill="midnightblue" stroke="midnightblue" points="1050.86,-146.497 1061.42,-145.752 1052.7,-139.744 1050.86,-146.497"/>
</g>
<!-- Node9 -->
<g id="node19" class="node"><title>Node9</title>
<a xlink:href="_p_i_d__2009__06__elements_8h.html" target="_top" xlink:title="src/expconfig/detectors\l/detail/PID_2009_06_elements.h">
<polygon fill="white" stroke="black" points="954,-73 954,-107 1112,-107 1112,-73 954,-73"/>
<text text-anchor="start" x="962" y="-94" font-family="Helvetica,sans-Serif" font-size="10.00">src/expconfig/detectors</text>
<text text-anchor="middle" x="1033" y="-81" font-family="Helvetica,sans-Serif" font-size="10.00">/detail/PID_2009_06_elements.h</text>
</a>
</g>
<!-- Node1&#45;&gt;Node9 -->
<g id="edge20" class="edge"><title>Node1&#45;&gt;Node9</title>
<path fill="none" stroke="midnightblue" d="M1092.27,-138.493C1079.8,-128.29 1065.46,-116.558 1054.01,-107.19"/>
<polygon fill="midnightblue" stroke="midnightblue" points="1090.19,-141.313 1100.15,-144.937 1094.62,-135.896 1090.19,-141.313"/>
</g>
<!-- Node10 -->
<g id="node22" class="node"><title>Node10</title>
<a xlink:href="_p_i_d__2009__07__elements_8h.html" target="_top" xlink:title="src/expconfig/detectors\l/detail/PID_2009_07_elements.h">
<polygon fill="white" stroke="black" points="1130,-73 1130,-107 1288,-107 1288,-73 1130,-73"/>
<text text-anchor="start" x="1138" y="-94" font-family="Helvetica,sans-Serif" font-size="10.00">src/expconfig/detectors</text>
<text text-anchor="middle" x="1209" y="-81" font-family="Helvetica,sans-Serif" font-size="10.00">/detail/PID_2009_07_elements.h</text>
</a>
</g>
<!-- Node1&#45;&gt;Node10 -->
<g id="edge24" class="edge"><title>Node1&#45;&gt;Node10</title>
<path fill="none" stroke="midnightblue" d="M1149.73,-138.493C1162.2,-128.29 1176.54,-116.558 1187.99,-107.19"/>
<polygon fill="midnightblue" stroke="midnightblue" points="1147.38,-135.896 1141.85,-144.937 1151.81,-141.313 1147.38,-135.896"/>
</g>
<!-- Node11 -->
<g id="node25" class="node"><title>Node11</title>
<a xlink:href="_p_i_d__2014__elements_8h.html" target="_top" xlink:title="src/expconfig/detectors\l/detail/PID_2014_elements.h">
<polygon fill="white" stroke="black" points="1305.5,-73 1305.5,-107 1448.5,-107 1448.5,-73 1305.5,-73"/>
<text text-anchor="start" x="1313.5" y="-94" font-family="Helvetica,sans-Serif" font-size="10.00">src/expconfig/detectors</text>
<text text-anchor="middle" x="1377" y="-81" font-family="Helvetica,sans-Serif" font-size="10.00">/detail/PID_2014_elements.h</text>
</a>
</g>
<!-- Node1&#45;&gt;Node11 -->
<g id="edge28" class="edge"><title>Node1&#45;&gt;Node11</title>
<path fill="none" stroke="midnightblue" d="M1190.48,-142.458C1229.81,-131.397 1278.53,-117.693 1316.32,-107.067"/>
<polygon fill="midnightblue" stroke="midnightblue" points="1189.38,-139.133 1180.7,-145.21 1191.27,-145.872 1189.38,-139.133"/>
</g>
<!-- Node12 -->
<g id="node29" class="node"><title>Node12</title>
<a xlink:href="_setup__2007___base_8cc.html" target="_top" xlink:title="src/expconfig/setups\l/Setup_2007_Base.cc">
<polygon fill="white" stroke="black" points="1465.5,-73 1465.5,-107 1578.5,-107 1578.5,-73 1465.5,-73"/>
<text text-anchor="start" x="1473.5" y="-94" font-family="Helvetica,sans-Serif" font-size="10.00">src/expconfig/setups</text>
<text text-anchor="middle" x="1522" y="-81" font-family="Helvetica,sans-Serif" font-size="10.00">/Setup_2007_Base.cc</text>
</a>
</g>
<!-- Node1&#45;&gt;Node12 -->
<g id="edge34" class="edge"><title>Node1&#45;&gt;Node12</title>
<path fill="none" stroke="midnightblue" d="M1190.75,-153.087C1259,-143.827 1365.72,-127.91 1457,-108 1459.75,-107.401 1462.55,-106.756 1465.37,-106.079"/>
<polygon fill="midnightblue" stroke="midnightblue" points="1189.99,-149.658 1180.55,-154.461 1190.93,-156.595 1189.99,-149.658"/>
</g>
<!-- Node13 -->
<g id="node31" class="node"><title>Node13</title>
<a xlink:href="_setup__2012__12___compton_8cc.html" target="_top" xlink:title="src/expconfig/setups\l/Setup_2012_12_Compton.cc">
<polygon fill="white" stroke="black" points="1596,-73 1596,-107 1742,-107 1742,-73 1596,-73"/>
<text text-anchor="start" x="1604" y="-94" font-family="Helvetica,sans-Serif" font-size="10.00">src/expconfig/setups</text>
<text text-anchor="middle" x="1669" y="-81" font-family="Helvetica,sans-Serif" font-size="10.00">/Setup_2012_12_Compton.cc</text>
</a>
</g>
<!-- Node1&#45;&gt;Node13 -->
<g id="edge36" class="edge"><title>Node1&#45;&gt;Node13</title>
<path fill="none" stroke="midnightblue" d="M1190.82,-156.121C1282.22,-147.919 1447.25,-131.375 1587,-108 1589.88,-107.519 1592.8,-107.004 1595.75,-106.462"/>
<polygon fill="midnightblue" stroke="midnightblue" points="1190.51,-152.635 1180.85,-157.008 1191.13,-159.607 1190.51,-152.635"/>
</g>
<!-- Node14 -->
<g id="node33" class="node"><title>Node14</title>
<a xlink:href="_setup__2014___e_p_t_8cc.html" target="_top" xlink:title="src/expconfig/setups\l/Setup_2014_EPT.cc">
<polygon fill="white" stroke="black" points="1760,-73 1760,-107 1870,-107 1870,-73 1760,-73"/>
<text text-anchor="start" x="1768" y="-94" font-family="Helvetica,sans-Serif" font-size="10.00">src/expconfig/setups</text>
<text text-anchor="middle" x="1815" y="-81" font-family="Helvetica,sans-Serif" font-size="10.00">/Setup_2014_EPT.cc</text>
</a>
</g>
<!-- Node1&#45;&gt;Node14 -->
<g id="edge38" class="edge"><title>Node1&#45;&gt;Node14</title>
<path fill="none" stroke="midnightblue" d="M1190.78,-160.311C1307.59,-156.527 1549.7,-144.596 1751,-108 1753.95,-107.463 1756.97,-106.85 1760,-106.181"/>
<polygon fill="midnightblue" stroke="midnightblue" points="1190.44,-156.82 1180.56,-160.631 1190.66,-163.816 1190.44,-156.82"/>
</g>
<!-- Node15 -->
<g id="node35" class="node"><title>Node15</title>
<a xlink:href="_setup__2015__01___pion_8cc.html" target="_top" xlink:title="src/expconfig/setups\l/Setup_2015_01_Pion.cc">
<polygon fill="white" stroke="black" points="1887.5,-73 1887.5,-107 2012.5,-107 2012.5,-73 1887.5,-73"/>
<text text-anchor="start" x="1895.5" y="-94" font-family="Helvetica,sans-Serif" font-size="10.00">src/expconfig/setups</text>
<text text-anchor="middle" x="1950" y="-81" font-family="Helvetica,sans-Serif" font-size="10.00">/Setup_2015_01_Pion.cc</text>
</a>
</g>
<!-- Node1&#45;&gt;Node15 -->
<g id="edge40" class="edge"><title>Node1&#45;&gt;Node15</title>
<path fill="none" stroke="midnightblue" d="M1191.02,-161.145C1325.29,-158.594 1627.97,-148.436 1879,-108 1881.76,-107.555 1884.57,-107.054 1887.41,-106.509"/>
<polygon fill="midnightblue" stroke="midnightblue" points="1190.8,-157.648 1180.87,-161.329 1190.93,-164.647 1190.8,-157.648"/>
</g>
<!-- Node16 -->
<g id="node37" class="node"><title>Node16</title>
<a xlink:href="_candidate_builder_8cc.html" target="_top" xlink:title="src/reconstruct/Candidate\lBuilder.cc">
<polygon fill="white" stroke="black" points="2029.5,-73 2029.5,-107 2158.5,-107 2158.5,-73 2029.5,-73"/>
<text text-anchor="start" x="2037.5" y="-94" font-family="Helvetica,sans-Serif" font-size="10.00">src/reconstruct/Candidate</text>
<text text-anchor="middle" x="2094" y="-81" font-family="Helvetica,sans-Serif" font-size="10.00">Builder.cc</text>
</a>
</g>
<!-- Node1&#45;&gt;Node16 -->
<g id="edge42" class="edge"><title>Node1&#45;&gt;Node16</title>
<path fill="none" stroke="midnightblue" d="M1190.76,-159.457C1373.16,-152.547 1861.14,-132.297 2021,-108 2023.71,-107.588 2026.47,-107.123 2029.24,-106.615"/>
<polygon fill="midnightblue" stroke="midnightblue" points="1190.61,-155.961 1180.75,-159.835 1190.87,-162.956 1190.61,-155.961"/>
</g>
<!-- Node17 -->
<g id="node39" class="node"><title>Node17</title>
<a xlink:href="expconfig__helpers_8cc.html" target="_top" xlink:title="test/expconfig_helpers.cc">
<polygon fill="white" stroke="black" points="2176,-79.5 2176,-100.5 2304,-100.5 2304,-79.5 2176,-79.5"/>
<text text-anchor="middle" x="2240" y="-87.5" font-family="Helvetica,sans-Serif" font-size="10.00">test/expconfig_helpers.cc</text>
</a>
</g>
<!-- Node1&#45;&gt;Node17 -->
<g id="edge44" class="edge"><title>Node1&#45;&gt;Node17</title>
<path fill="none" stroke="midnightblue" d="M1190.89,-160.127C1393.35,-154.425 1977.81,-135.948 2167,-108 2178.88,-106.245 2191.65,-103.427 2203.13,-100.536"/>
<polygon fill="midnightblue" stroke="midnightblue" points="1190.58,-156.634 1180.68,-160.413 1190.78,-163.631 1190.58,-156.634"/>
</g>
<!-- Node5&#45;&gt;Node6 -->
<g id="edge10" class="edge"><title>Node5&#45;&gt;Node6</title>
<path fill="none" stroke="midnightblue" d="M572.763,-72.6557C573.849,-72.4351 574.928,-72.2165 576,-72 652.328,-56.5856 740.536,-39.8023 797.459,-29.1056"/>
<polygon fill="midnightblue" stroke="midnightblue" points="571.955,-69.2484 562.861,-74.6832 573.359,-76.1061 571.955,-69.2484"/>
</g>
<!-- Node7&#45;&gt;Node6 -->
<g id="edge14" class="edge"><title>Node7&#45;&gt;Node6</title>
<path fill="none" stroke="midnightblue" d="M738.178,-68.9238C763.32,-58.1485 793.52,-45.2059 817.181,-35.0651"/>
<polygon fill="midnightblue" stroke="midnightblue" points="736.626,-65.7807 728.814,-72.937 739.384,-72.2148 736.626,-65.7807"/>
</g>
<!-- Node8&#45;&gt;Node6 -->
<g id="edge18" class="edge"><title>Node8&#45;&gt;Node6</title>
<path fill="none" stroke="midnightblue" d="M857,-62.7193C857,-53.572 857,-43.6255 857,-35.4407"/>
<polygon fill="midnightblue" stroke="midnightblue" points="853.5,-62.937 857,-72.937 860.5,-62.937 853.5,-62.937"/>
</g>
<!-- Node9&#45;&gt;Node6 -->
<g id="edge22" class="edge"><title>Node9&#45;&gt;Node6</title>
<path fill="none" stroke="midnightblue" d="M981.828,-69.0661C955.42,-58.2626 923.612,-45.2505 898.715,-35.0651"/>
<polygon fill="midnightblue" stroke="midnightblue" points="980.71,-72.39 991.29,-72.937 983.36,-65.9112 980.71,-72.39"/>
</g>
<!-- Node10&#45;&gt;Node6 -->
<g id="edge26" class="edge"><title>Node10&#45;&gt;Node6</title>
<path fill="none" stroke="midnightblue" d="M1119.54,-71.7013C1055.95,-58.6948 972.3,-41.5841 916.693,-30.2099"/>
<polygon fill="midnightblue" stroke="midnightblue" points="1119.07,-75.177 1129.57,-73.752 1120.47,-68.319 1119.07,-75.177"/>
</g>
<!-- Node11&#45;&gt;Node6 -->
<g id="edge30" class="edge"><title>Node11&#45;&gt;Node6</title>
<path fill="none" stroke="midnightblue" d="M1295.01,-71.7326C1154.36,-47.7679 999.587,-31.3901 916.701,-23.4307"/>
<polygon fill="midnightblue" stroke="midnightblue" points="1294.66,-75.2241 1305.11,-73.4711 1295.85,-68.3255 1294.66,-75.2241"/>
</g>
</g>
</svg>
