<?xml version="1.0" encoding="UTF-8" standalone="no"?>
<!DOCTYPE svg PUBLIC "-//W3C//DTD SVG 1.1//EN"
 "http://www.w3.org/Graphics/SVG/1.1/DTD/svg11.dtd">
<!-- Generated by graphviz version 2.26.3 (20100126.1600)
 -->
<!-- Title: src/base/ParticleType.cc Pages: 1 -->
<svg width="763pt" height="262pt"
 viewBox="0.00 0.00 763.00 262.00" xmlns="http://www.w3.org/2000/svg" xmlns:xlink="http://www.w3.org/1999/xlink">
<g id="graph1" class="graph" transform="scale(1 1) rotate(0) translate(4 258)">
<title>src/base/ParticleType.cc</title>
<polygon fill="white" stroke="white" points="-4,5 -4,-258 760,-258 760,5 -4,5"/>
<!-- Node1 -->
<g id="node1" class="node"><title>Node1</title>
<polygon fill="#bfbfbf" stroke="black" points="280.5,-232.5 280.5,-253.5 405.5,-253.5 405.5,-232.5 280.5,-232.5"/>
<text text-anchor="middle" x="343" y="-240.5" font-family="Helvetica,sans-Serif" font-size="10.00">src/base/ParticleType.cc</text>
</g>
<!-- Node2 -->
<g id="node3" class="node"><title>Node2</title>
<a xlink:href="_particle_type_8h.html" target="_top" xlink:title="base/ParticleType.h">
<polygon fill="white" stroke="black" points="151,-174.5 151,-195.5 255,-195.5 255,-174.5 151,-174.5"/>
<text text-anchor="middle" x="203" y="-182.5" font-family="Helvetica,sans-Serif" font-size="10.00">base/ParticleType.h</text>
</a>
</g>
<!-- Node1&#45;&gt;Node2 -->
<g id="edge2" class="edge"><title>Node1&#45;&gt;Node2</title>
<path fill="none" stroke="midnightblue" d="M317.647,-232.497C295.387,-223.275 262.788,-209.769 238.037,-199.515"/>
<polygon fill="midnightblue" stroke="midnightblue" points="239.216,-196.215 228.637,-195.621 236.536,-202.682 239.216,-196.215"/>
</g>
<!-- Node16 -->
<g id="node33" class="node"><title>Node16</title>
<polygon fill="white" stroke="#bfbfbf" points="316,-174.5 316,-195.5 370,-195.5 370,-174.5 316,-174.5"/>
<text text-anchor="middle" x="343" y="-182.5" font-family="Helvetica,sans-Serif" font-size="10.00">iostream</text>
</g>
<!-- Node1&#45;&gt;Node16 -->
<g id="edge34" class="edge"><title>Node1&#45;&gt;Node16</title>
<path fill="none" stroke="midnightblue" d="M343,-232.362C343,-224.922 343,-214.743 343,-205.728"/>
<polygon fill="midnightblue" stroke="midnightblue" points="346.5,-205.571 343,-195.571 339.5,-205.571 346.5,-205.571"/>
</g>
<!-- Node17 -->
<g id="node35" class="node"><title>Node17</title>
<a xlink:href="math_8h.html" target="_top" xlink:title="base/std_ext/math.h">
<polygon fill="white" stroke="black" points="505,-116.5 505,-137.5 611,-137.5 611,-116.5 505,-116.5"/>
<text text-anchor="middle" x="558" y="-124.5" font-family="Helvetica,sans-Serif" font-size="10.00">base/std_ext/math.h</text>
</a>
</g>
<!-- Node1&#45;&gt;Node17 -->
<g id="edge36" class="edge"><title>Node1&#45;&gt;Node17</title>
<path fill="none" stroke="midnightblue" d="M362.841,-232.295C401.097,-211.655 485.178,-166.29 529.449,-142.404"/>
<polygon fill="midnightblue" stroke="midnightblue" points="531.378,-145.34 538.517,-137.512 528.054,-139.18 531.378,-145.34"/>
</g>
<!-- Node3 -->
<g id="node5" class="node"><title>Node3</title>
<a xlink:href="types_8h.html" target="_top" xlink:title="base/types.h">
<polygon fill="white" stroke="black" points="204.5,-58.5 204.5,-79.5 277.5,-79.5 277.5,-58.5 204.5,-58.5"/>
<text text-anchor="middle" x="241" y="-66.5" font-family="Helvetica,sans-Serif" font-size="10.00">base/types.h</text>
</a>
</g>
<!-- Node2&#45;&gt;Node3 -->
<g id="edge4" class="edge"><title>Node2&#45;&gt;Node3</title>
<path fill="none" stroke="midnightblue" d="M206.507,-174.295C212.813,-155.045 226.164,-114.289 234.282,-89.5091"/>
<polygon fill="midnightblue" stroke="midnightblue" points="237.715,-90.2719 237.502,-79.6792 231.062,-88.0927 237.715,-90.2719"/>
</g>
<!-- Node4 -->
<g id="node7" class="node"><title>Node4</title>
<a xlink:href="interval_8h.html" target="_top" xlink:title="base/interval.h">
<polygon fill="white" stroke="black" points="359,-116.5 359,-137.5 439,-137.5 439,-116.5 359,-116.5"/>
<text text-anchor="middle" x="399" y="-124.5" font-family="Helvetica,sans-Serif" font-size="10.00">base/interval.h</text>
</a>
</g>
<!-- Node2&#45;&gt;Node4 -->
<g id="edge6" class="edge"><title>Node2&#45;&gt;Node4</title>
<path fill="none" stroke="midnightblue" d="M238.494,-174.497C270.724,-164.959 318.434,-150.841 353.464,-140.475"/>
<polygon fill="midnightblue" stroke="midnightblue" points="354.844,-143.717 363.439,-137.523 352.857,-137.005 354.844,-143.717"/>
</g>
<!-- Node7 -->
<g id="node13" class="node"><title>Node7</title>
<polygon fill="white" stroke="#bfbfbf" points="188,-0.5 188,-21.5 240,-21.5 240,-0.5 188,-0.5"/>
<text text-anchor="middle" x="214" y="-8.5" font-family="Helvetica,sans-Serif" font-size="10.00">ostream</text>
</g>
<!-- Node2&#45;&gt;Node7 -->
<g id="edge26" class="edge"><title>Node2&#45;&gt;Node7</title>
<path fill="none" stroke="midnightblue" d="M200.73,-174.355C196.414,-152.395 188.129,-100.559 196,-58 197.717,-48.7153 201.192,-38.8944 204.634,-30.6444"/>
<polygon fill="midnightblue" stroke="midnightblue" points="207.835,-32.0616 208.697,-21.502 201.438,-29.2188 207.835,-32.0616"/>
</g>
<!-- Node12 -->
<g id="node24" class="node"><title>Node12</title>
<polygon fill="white" stroke="#bfbfbf" points="-0.5,-116.5 -0.5,-137.5 40.5,-137.5 40.5,-116.5 -0.5,-116.5"/>
<text text-anchor="middle" x="20" y="-124.5" font-family="Helvetica,sans-Serif" font-size="10.00">string</text>
</g>
<!-- Node2&#45;&gt;Node12 -->
<g id="edge24" class="edge"><title>Node2&#45;&gt;Node12</title>
<path fill="none" stroke="midnightblue" d="M166.063,-174.475C136.809,-165.972 94.7277,-153.375 50.0935,-138.247"/>
<polygon fill="midnightblue" stroke="midnightblue" points="51.1286,-134.902 40.534,-134.981 48.8654,-141.527 51.1286,-134.902"/>
</g>
<!-- Node13 -->
<g id="node27" class="node"><title>Node13</title>
<polygon fill="white" stroke="#bfbfbf" points="57.5,-116.5 57.5,-137.5 92.5,-137.5 92.5,-116.5 57.5,-116.5"/>
<text text-anchor="middle" x="75" y="-124.5" font-family="Helvetica,sans-Serif" font-size="10.00">map</text>
</g>
<!-- Node2&#45;&gt;Node13 -->
<g id="edge28" class="edge"><title>Node2&#45;&gt;Node13</title>
<path fill="none" stroke="midnightblue" d="M179.82,-174.497C157.883,-164.556 124.964,-149.64 101.885,-139.182"/>
<polygon fill="midnightblue" stroke="midnightblue" points="103.21,-135.94 92.6572,-135.001 100.321,-142.316 103.21,-135.94"/>
</g>
<!-- Node14 -->
<g id="node29" class="node"><title>Node14</title>
<polygon fill="white" stroke="#bfbfbf" points="109.5,-116.5 109.5,-137.5 156.5,-137.5 156.5,-116.5 109.5,-116.5"/>
<text text-anchor="middle" x="133" y="-124.5" font-family="Helvetica,sans-Serif" font-size="10.00">iterator</text>
</g>
<!-- Node2&#45;&gt;Node14 -->
<g id="edge30" class="edge"><title>Node2&#45;&gt;Node14</title>
<path fill="none" stroke="midnightblue" d="M190.161,-174.362C179.998,-165.941 165.599,-154.011 153.796,-144.231"/>
<polygon fill="midnightblue" stroke="midnightblue" points="155.691,-141.256 145.758,-137.571 151.225,-146.646 155.691,-141.256"/>
</g>
<!-- Node15 -->
<g id="node31" class="node"><title>Node15</title>
<polygon fill="white" stroke="#bfbfbf" points="711,-58.5 711,-79.5 755,-79.5 755,-58.5 711,-58.5"/>
<text text-anchor="middle" x="733" y="-66.5" font-family="Helvetica,sans-Serif" font-size="10.00">vector</text>
</g>
<!-- Node2&#45;&gt;Node15 -->
<g id="edge32" class="edge"><title>Node2&#45;&gt;Node15</title>
<path fill="none" stroke="midnightblue" d="M255.368,-179.395C365.446,-167.574 611.45,-140.931 620,-138 654.783,-126.078 690.217,-102.115 711.908,-85.8131"/>
<polygon fill="midnightblue" stroke="midnightblue" points="714.25,-88.4273 720.053,-79.5629 709.989,-82.8738 714.25,-88.4273"/>
</g>
<!-- Node4&#45;&gt;Node3 -->
<g id="edge14" class="edge"><title>Node4&#45;&gt;Node3</title>
<path fill="none" stroke="midnightblue" d="M370.387,-116.497C344.852,-107.123 307.263,-93.3242 279.171,-83.0122"/>
<polygon fill="midnightblue" stroke="midnightblue" points="280.26,-79.6835 269.666,-79.5231 277.848,-86.2548 280.26,-79.6835"/>
</g>
<!-- Node5 -->
<g id="node9" class="node"><title>Node5</title>
<a xlink:href="printable_8h.html" target="_top" xlink:title="printable.h">
<polygon fill="white" stroke="black" points="295,-58.5 295,-79.5 357,-79.5 357,-58.5 295,-58.5"/>
<text text-anchor="middle" x="326" y="-66.5" font-family="Helvetica,sans-Serif" font-size="10.00">printable.h</text>
</a>
</g>
<!-- Node4&#45;&gt;Node5 -->
<g id="edge8" class="edge"><title>Node4&#45;&gt;Node5</title>
<path fill="none" stroke="midnightblue" d="M385.611,-116.362C374.909,-107.859 359.704,-95.7785 347.329,-85.9466"/>
<polygon fill="midnightblue" stroke="midnightblue" points="349.311,-83.0511 339.304,-79.5707 344.957,-88.5318 349.311,-83.0511"/>
</g>
<!-- Node8 -->
<g id="node16" class="node"><title>Node8</title>
<polygon fill="white" stroke="#bfbfbf" points="499,-58.5 499,-79.5 555,-79.5 555,-58.5 499,-58.5"/>
<text text-anchor="middle" x="527" y="-66.5" font-family="Helvetica,sans-Serif" font-size="10.00">algorithm</text>
</g>
<!-- Node4&#45;&gt;Node8 -->
<g id="edge16" class="edge"><title>Node4&#45;&gt;Node8</title>
<path fill="none" stroke="midnightblue" d="M422.18,-116.497C442.352,-107.356 471.81,-94.0082 494.364,-83.7883"/>
<polygon fill="midnightblue" stroke="midnightblue" points="495.896,-86.9366 503.56,-79.6212 493.007,-80.5606 495.896,-86.9366"/>
</g>
<!-- Node9 -->
<g id="node18" class="node"><title>Node9</title>
<polygon fill="white" stroke="#bfbfbf" points="572.5,-58.5 572.5,-79.5 631.5,-79.5 631.5,-58.5 572.5,-58.5"/>
<text text-anchor="middle" x="602" y="-66.5" font-family="Helvetica,sans-Serif" font-size="10.00">stdexcept</text>
</g>
<!-- Node4&#45;&gt;Node9 -->
<g id="edge18" class="edge"><title>Node4&#45;&gt;Node9</title>
<path fill="none" stroke="midnightblue" d="M436.038,-116.499C467.397,-107.597 513.801,-94.398 562.39,-80.4561"/>
<polygon fill="midnightblue" stroke="midnightblue" points="563.487,-83.7826 572.133,-77.6588 561.555,-77.0544 563.487,-83.7826"/>
</g>
<!-- Node10 -->
<g id="node20" class="node"><title>Node10</title>
<polygon fill="white" stroke="#bfbfbf" points="441,-58.5 441,-79.5 481,-79.5 481,-58.5 441,-58.5"/>
<text text-anchor="middle" x="461" y="-66.5" font-family="Helvetica,sans-Serif" font-size="10.00">limits</text>
</g>
<!-- Node4&#45;&gt;Node10 -->
<g id="edge20" class="edge"><title>Node4&#45;&gt;Node10</title>
<path fill="none" stroke="midnightblue" d="M410.372,-116.362C419.286,-108.023 431.879,-96.2418 442.276,-86.5162"/>
<polygon fill="midnightblue" stroke="midnightblue" points="444.789,-88.9582 449.7,-79.5707 440.007,-83.8463 444.789,-88.9582"/>
</g>
<!-- Node11 -->
<g id="node22" class="node"><title>Node11</title>
<polygon fill="white" stroke="#bfbfbf" points="374.5,-58.5 374.5,-79.5 423.5,-79.5 423.5,-58.5 374.5,-58.5"/>
<text text-anchor="middle" x="399" y="-66.5" font-family="Helvetica,sans-Serif" font-size="10.00">istream</text>
</g>
<!-- Node4&#45;&gt;Node11 -->
<g id="edge22" class="edge"><title>Node4&#45;&gt;Node11</title>
<path fill="none" stroke="midnightblue" d="M399,-116.362C399,-108.922 399,-98.7427 399,-89.7276"/>
<polygon fill="midnightblue" stroke="midnightblue" points="402.5,-89.5706 399,-79.5707 395.5,-89.5707 402.5,-89.5706"/>
</g>
<!-- Node6 -->
<g id="node11" class="node"><title>Node6</title>
<polygon fill="white" stroke="#bfbfbf" points="295,-0.5 295,-21.5 357,-21.5 357,-0.5 295,-0.5"/>
<text text-anchor="middle" x="326" y="-8.5" font-family="Helvetica,sans-Serif" font-size="10.00">type_traits</text>
</g>
<!-- Node5&#45;&gt;Node6 -->
<g id="edge10" class="edge"><title>Node5&#45;&gt;Node6</title>
<path fill="none" stroke="midnightblue" d="M326,-58.3619C326,-50.9219 326,-40.7427 326,-31.7276"/>
<polygon fill="midnightblue" stroke="midnightblue" points="329.5,-31.5706 326,-21.5707 322.5,-31.5707 329.5,-31.5706"/>
</g>
<!-- Node5&#45;&gt;Node7 -->
<g id="edge12" class="edge"><title>Node5&#45;&gt;Node7</title>
<path fill="none" stroke="midnightblue" d="M305.718,-58.4966C288.382,-49.5194 263.21,-36.4835 243.62,-26.3387"/>
<polygon fill="midnightblue" stroke="midnightblue" points="244.999,-23.1118 234.51,-21.6212 241.78,-29.3278 244.999,-23.1118"/>
</g>
<!-- Node17&#45;&gt;Node8 -->
<g id="edge44" class="edge"><title>Node17&#45;&gt;Node8</title>
<path fill="none" stroke="midnightblue" d="M552.314,-116.362C548.163,-108.595 542.416,-97.8426 537.447,-88.5458"/>
<polygon fill="midnightblue" stroke="midnightblue" points="540.45,-86.7401 532.65,-79.5707 534.277,-90.0398 540.45,-86.7401"/>
</g>
<!-- Node17&#45;&gt;Node9 -->
<g id="edge46" class="edge"><title>Node17&#45;&gt;Node9</title>
<path fill="none" stroke="midnightblue" d="M566.07,-116.362C572.149,-108.35 580.637,-97.1605 587.837,-87.6696"/>
<polygon fill="midnightblue" stroke="midnightblue" points="590.725,-89.653 593.981,-79.5707 585.149,-85.4222 590.725,-89.653"/>
</g>
<!-- Node17&#45;&gt;Node10 -->
<g id="edge40" class="edge"><title>Node17&#45;&gt;Node10</title>
<path fill="none" stroke="midnightblue" d="M540.209,-116.362C525.441,-107.532 504.222,-94.844 487.462,-84.8224"/>
<polygon fill="midnightblue" stroke="midnightblue" points="489.057,-81.6987 478.679,-79.5707 485.465,-87.7066 489.057,-81.6987"/>
</g>
<!-- Node17&#45;&gt;Node15 -->
<g id="edge42" class="edge"><title>Node17&#45;&gt;Node15</title>
<path fill="none" stroke="midnightblue" d="M591.253,-116.412C618.492,-107.68 658.258,-94.7988 701.178,-80.2319"/>
<polygon fill="midnightblue" stroke="midnightblue" points="702.334,-83.5355 710.673,-76.9991 700.078,-76.909 702.334,-83.5355"/>
</g>
<!-- Node18 -->
<g id="node37" class="node"><title>Node18</title>
<polygon fill="white" stroke="#bfbfbf" points="649,-58.5 649,-79.5 693,-79.5 693,-58.5 649,-58.5"/>
<text text-anchor="middle" x="671" y="-66.5" font-family="Helvetica,sans-Serif" font-size="10.00">cmath</text>
</g>
<!-- Node17&#45;&gt;Node18 -->
<g id="edge38" class="edge"><title>Node17&#45;&gt;Node18</title>
<path fill="none" stroke="midnightblue" d="M578.463,-116.497C596.033,-107.479 621.582,-94.3649 641.385,-84.2006"/>
<polygon fill="midnightblue" stroke="midnightblue" points="643.009,-87.3014 650.307,-79.6212 639.812,-81.0738 643.009,-87.3014"/>
</g>
</g>
</svg>
