<?xml version="1.0" encoding="UTF-8" standalone="no"?>
<!DOCTYPE svg PUBLIC "-//W3C//DTD SVG 1.1//EN"
 "http://www.w3.org/Graphics/SVG/1.1/DTD/svg11.dtd">
<!-- Generated by graphviz version 2.26.3 (20100126.1600)
 -->
<!-- Title: src/analysis/utils/ParticleID.h Pages: 1 -->
<svg width="608pt" height="116pt"
 viewBox="0.00 0.00 608.00 116.00" xmlns="http://www.w3.org/2000/svg" xmlns:xlink="http://www.w3.org/1999/xlink">
<g id="graph1" class="graph" transform="scale(1 1) rotate(0) translate(4 112)">
<title>src/analysis/utils/ParticleID.h</title>
<polygon fill="white" stroke="white" points="-4,5 -4,-112 605,-112 605,5 -4,5"/>
<!-- Node1 -->
<g id="node1" class="node"><title>Node1</title>
<polygon fill="#bfbfbf" stroke="black" points="248,-73 248,-107 338,-107 338,-73 248,-73"/>
<text text-anchor="start" x="256" y="-94" font-family="Helvetica,sans-Serif" font-size="10.00">src/analysis/utils</text>
<text text-anchor="middle" x="293" y="-81" font-family="Helvetica,sans-Serif" font-size="10.00">/ParticleID.h</text>
</g>
<!-- Node2 -->
<g id="node3" class="node"><title>Node2</title>
<a xlink:href="_ant_8cc.html" target="_top" xlink:title="Main Ant executable. ">
<polygon fill="white" stroke="black" points="0,-7.5 0,-28.5 72,-28.5 72,-7.5 0,-7.5"/>
<text text-anchor="middle" x="36" y="-15.5" font-family="Helvetica,sans-Serif" font-size="10.00">progs/Ant.cc</text>
</a>
</g>
<!-- Node1&#45;&gt;Node2 -->
<g id="edge2" class="edge"><title>Node1&#45;&gt;Node2</title>
<path fill="none" stroke="midnightblue" d="M237.836,-78.0402C194.714,-68.1906 133.489,-53.1011 81,-36 74.4397,-33.8626 67.465,-31.2477 61.0146,-28.6804"/>
<polygon fill="midnightblue" stroke="midnightblue" points="237.318,-81.5114 247.844,-80.3063 238.864,-74.6842 237.318,-81.5114"/>
</g>
<!-- Node3 -->
<g id="node5" class="node"><title>Node3</title>
<a xlink:href="etaprime-3pi0_8cc.html" target="_top" xlink:title="src/analysis/physics\l/etaprime/etaprime&#45;3pi0.cc">
<polygon fill="white" stroke="black" points="90,-1 90,-35 222,-35 222,-1 90,-1"/>
<text text-anchor="start" x="98" y="-22" font-family="Helvetica,sans-Serif" font-size="10.00">src/analysis/physics</text>
<text text-anchor="middle" x="156" y="-9" font-family="Helvetica,sans-Serif" font-size="10.00">/etaprime/etaprime&#45;3pi0.cc</text>
</a>
</g>
<!-- Node1&#45;&gt;Node3 -->
<g id="edge4" class="edge"><title>Node1&#45;&gt;Node3</title>
<path fill="none" stroke="midnightblue" d="M251.57,-68.2264C231.423,-57.6383 207.553,-45.0936 188.709,-35.19"/>
<polygon fill="midnightblue" stroke="midnightblue" points="250.053,-71.383 260.533,-72.937 253.309,-65.1866 250.053,-71.383"/>
</g>
<!-- Node4 -->
<g id="node7" class="node"><title>Node4</title>
<a xlink:href="_physics_manager_8cc.html" target="_top" xlink:title="src/analysis/physics\l/PhysicsManager.cc">
<polygon fill="white" stroke="black" points="240,-1 240,-35 346,-35 346,-1 240,-1"/>
<text text-anchor="start" x="248" y="-22" font-family="Helvetica,sans-Serif" font-size="10.00">src/analysis/physics</text>
<text text-anchor="middle" x="293" y="-9" font-family="Helvetica,sans-Serif" font-size="10.00">/PhysicsManager.cc</text>
</a>
</g>
<!-- Node1&#45;&gt;Node4 -->
<g id="edge6" class="edge"><title>Node1&#45;&gt;Node4</title>
<path fill="none" stroke="midnightblue" d="M293,-62.7193C293,-53.572 293,-43.6255 293,-35.4407"/>
<polygon fill="midnightblue" stroke="midnightblue" points="289.5,-62.937 293,-72.937 296.5,-62.937 289.5,-62.937"/>
</g>
<!-- Node5 -->
<g id="node9" class="node"><title>Node5</title>
<a xlink:href="_particle_i_d_8cc.html" target="_top" xlink:title="src/analysis/utils\l/ParticleID.cc">
<polygon fill="white" stroke="black" points="364,-1 364,-35 454,-35 454,-1 364,-1"/>
<text text-anchor="start" x="372" y="-22" font-family="Helvetica,sans-Serif" font-size="10.00">src/analysis/utils</text>
<text text-anchor="middle" x="409" y="-9" font-family="Helvetica,sans-Serif" font-size="10.00">/ParticleID.cc</text>
</a>
</g>
<!-- Node1&#45;&gt;Node5 -->
<g id="edge8" class="edge"><title>Node1&#45;&gt;Node5</title>
<path fill="none" stroke="midnightblue" d="M329.005,-67.6522C345.865,-57.1871 365.637,-44.9152 381.305,-35.19"/>
<polygon fill="midnightblue" stroke="midnightblue" points="327.141,-64.6896 320.49,-72.937 330.833,-70.6371 327.141,-64.6896"/>
</g>
<!-- Node6 -->
<g id="node11" class="node"><title>Node6</title>
<a xlink:href="_test_particle_i_d_8cc.html" target="_top" xlink:title="test/analysis/TestParticle\lID.cc">
<polygon fill="white" stroke="black" points="472,-1 472,-35 600,-35 600,-1 472,-1"/>
<text text-anchor="start" x="480" y="-22" font-family="Helvetica,sans-Serif" font-size="10.00">test/analysis/TestParticle</text>
<text text-anchor="middle" x="536" y="-9" font-family="Helvetica,sans-Serif" font-size="10.00">ID.cc</text>
</a>
</g>
<!-- Node1&#45;&gt;Node6 -->
<g id="edge10" class="edge"><title>Node1&#45;&gt;Node6</title>
<path fill="none" stroke="midnightblue" d="M348.213,-73.6407C387.027,-62.1401 438.848,-46.7857 478.22,-35.1201"/>
<polygon fill="midnightblue" stroke="midnightblue" points="346.731,-70.4293 338.137,-76.6261 348.719,-77.1409 346.731,-70.4293"/>
</g>
</g>
</svg>
