<?xml version="1.0" encoding="UTF-8" standalone="no"?>
<!DOCTYPE svg PUBLIC "-//W3C//DTD SVG 1.1//EN"
 "http://www.w3.org/Graphics/SVG/1.1/DTD/svg11.dtd">
<!-- Generated by graphviz version 2.26.3 (20100126.1600)
 -->
<!-- Title: src/base/ParticleTypeTree.cc Pages: 1 -->
<svg width="783pt" height="320pt"
 viewBox="0.00 0.00 783.44 320.00" xmlns="http://www.w3.org/2000/svg" xmlns:xlink="http://www.w3.org/1999/xlink">
<g id="graph1" class="graph" transform="scale(1 1) rotate(0) translate(4 316)">
<title>src/base/ParticleTypeTree.cc</title>
<polygon fill="white" stroke="white" points="-4,5 -4,-316 780.443,-316 780.443,5 -4,5"/>
<!-- Node1 -->
<g id="node1" class="node"><title>Node1</title>
<polygon fill="#bfbfbf" stroke="black" points="573.791,-290.5 573.791,-311.5 718.791,-311.5 718.791,-290.5 573.791,-290.5"/>
<text text-anchor="middle" x="646.291" y="-298.5" font-family="Helvetica,sans-Serif" font-size="10.00">src/base/ParticleTypeTree.cc</text>
</g>
<!-- Node2 -->
<g id="node3" class="node"><title>Node2</title>
<a xlink:href="_particle_type_tree_8h.html" target="_top" xlink:title="ParticleTypeTree.h">
<polygon fill="white" stroke="black" points="403.791,-232.5 403.791,-253.5 502.791,-253.5 502.791,-232.5 403.791,-232.5"/>
<text text-anchor="middle" x="453.291" y="-240.5" font-family="Helvetica,sans-Serif" font-size="10.00">ParticleTypeTree.h</text>
</a>
</g>
<!-- Node1&#45;&gt;Node2 -->
<g id="edge2" class="edge"><title>Node1&#45;&gt;Node2</title>
<path fill="none" stroke="midnightblue" d="M611.34,-290.497C579.603,-280.959 532.623,-266.841 498.13,-256.475"/>
<polygon fill="midnightblue" stroke="midnightblue" points="498.892,-253.049 488.307,-253.523 496.877,-259.753 498.892,-253.049"/>
</g>
<!-- Node10 -->
<g id="node20" class="node"><title>Node10</title>
<polygon fill="white" stroke="#bfbfbf" points="588.791,-58.5 588.791,-79.5 647.791,-79.5 647.791,-58.5 588.791,-58.5"/>
<text text-anchor="middle" x="618.291" y="-66.5" font-family="Helvetica,sans-Serif" font-size="10.00">stdexcept</text>
</g>
<!-- Node1&#45;&gt;Node10 -->
<g id="edge52" class="edge"><title>Node1&#45;&gt;Node10</title>
<path fill="none" stroke="midnightblue" d="M662.291,-290.463C703.994,-261.708 809.663,-179.778 763.291,-116 750.72,-98.71 696.264,-84.5238 657.797,-76.4103"/>
<polygon fill="midnightblue" stroke="midnightblue" points="658.408,-72.9629 647.909,-74.3828 657.002,-79.8202 658.408,-72.9629"/>
</g>
<!-- Node3 -->
<g id="node5" class="node"><title>Node3</title>
<a xlink:href="_particle_type_8h.html" target="_top" xlink:title="ParticleType.h">
<polygon fill="white" stroke="black" points="189.291,-174.5 189.291,-195.5 269.291,-195.5 269.291,-174.5 189.291,-174.5"/>
<text text-anchor="middle" x="229.291" y="-182.5" font-family="Helvetica,sans-Serif" font-size="10.00">ParticleType.h</text>
</a>
</g>
<!-- Node2&#45;&gt;Node3 -->
<g id="edge4" class="edge"><title>Node2&#45;&gt;Node3</title>
<path fill="none" stroke="midnightblue" d="M412.726,-232.497C375.302,-222.806 319.613,-208.387 279.418,-197.979"/>
<polygon fill="midnightblue" stroke="midnightblue" points="280.112,-194.544 269.554,-195.425 278.357,-201.32 280.112,-194.544"/>
</g>
<!-- Node14 -->
<g id="node29" class="node"><title>Node14</title>
<polygon fill="white" stroke="#bfbfbf" points="299.791,-116.5 299.791,-137.5 334.791,-137.5 334.791,-116.5 299.791,-116.5"/>
<text text-anchor="middle" x="317.291" y="-124.5" font-family="Helvetica,sans-Serif" font-size="10.00">map</text>
</g>
<!-- Node2&#45;&gt;Node14 -->
<g id="edge50" class="edge"><title>Node2&#45;&gt;Node14</title>
<path fill="none" stroke="midnightblue" d="M440.74,-232.295C417.159,-212.182 366.052,-168.59 337.545,-144.275"/>
<polygon fill="midnightblue" stroke="midnightblue" points="339.691,-141.506 329.811,-137.679 335.148,-146.832 339.691,-141.506"/>
</g>
<!-- Node17 -->
<g id="node35" class="node"><title>Node17</title>
<a xlink:href="_tree_8h.html" target="_top" xlink:title="Tree.h">
<polygon fill="white" stroke="black" points="490.291,-174.5 490.291,-195.5 534.291,-195.5 534.291,-174.5 490.291,-174.5"/>
<text text-anchor="middle" x="512.291" y="-182.5" font-family="Helvetica,sans-Serif" font-size="10.00">Tree.h</text>
</a>
</g>
<!-- Node2&#45;&gt;Node17 -->
<g id="edge36" class="edge"><title>Node2&#45;&gt;Node17</title>
<path fill="none" stroke="midnightblue" d="M464.112,-232.362C472.512,-224.104 484.345,-212.472 494.181,-202.803"/>
<polygon fill="midnightblue" stroke="midnightblue" points="496.86,-205.077 501.538,-195.571 491.953,-200.085 496.86,-205.077"/>
</g>
<!-- Node4 -->
<g id="node7" class="node"><title>Node4</title>
<a xlink:href="types_8h.html" target="_top" xlink:title="base/types.h">
<polygon fill="white" stroke="black" points="11.7909,-58.5 11.7909,-79.5 84.7909,-79.5 84.7909,-58.5 11.7909,-58.5"/>
<text text-anchor="middle" x="48.2909" y="-66.5" font-family="Helvetica,sans-Serif" font-size="10.00">base/types.h</text>
</a>
</g>
<!-- Node3&#45;&gt;Node4 -->
<g id="edge6" class="edge"><title>Node3&#45;&gt;Node4</title>
<path fill="none" stroke="midnightblue" d="M189.274,-177.476C148.254,-169.02 88.1531,-154.321 71.2909,-138 58.222,-125.351 52.5783,-105.092 50.1416,-89.7909"/>
<polygon fill="midnightblue" stroke="midnightblue" points="53.5938,-89.1908 48.8737,-79.7055 46.6484,-90.064 53.5938,-89.1908"/>
</g>
<!-- Node5 -->
<g id="node9" class="node"><title>Node5</title>
<a xlink:href="interval_8h.html" target="_top" xlink:title="base/interval.h">
<polygon fill="white" stroke="black" points="80.2909,-116.5 80.2909,-137.5 160.291,-137.5 160.291,-116.5 80.2909,-116.5"/>
<text text-anchor="middle" x="120.291" y="-124.5" font-family="Helvetica,sans-Serif" font-size="10.00">base/interval.h</text>
</a>
</g>
<!-- Node3&#45;&gt;Node5 -->
<g id="edge8" class="edge"><title>Node3&#45;&gt;Node5</title>
<path fill="none" stroke="midnightblue" d="M209.552,-174.497C192.681,-165.519 168.182,-152.484 149.117,-142.339"/>
<polygon fill="midnightblue" stroke="midnightblue" points="150.724,-139.229 140.252,-137.621 147.435,-145.409 150.724,-139.229"/>
</g>
<!-- Node8 -->
<g id="node15" class="node"><title>Node8</title>
<polygon fill="white" stroke="#bfbfbf" points="57.2909,-0.5 57.2909,-21.5 109.291,-21.5 109.291,-0.5 57.2909,-0.5"/>
<text text-anchor="middle" x="83.2909" y="-8.5" font-family="Helvetica,sans-Serif" font-size="10.00">ostream</text>
</g>
<!-- Node3&#45;&gt;Node8 -->
<g id="edge28" class="edge"><title>Node3&#45;&gt;Node8</title>
<path fill="none" stroke="midnightblue" d="M189.104,-182.055C131.897,-175.298 30.8468,-153.068 3.29095,-80 -0.159306,-70.8512 -1.56582,-66.4863 3.29095,-58 12.8556,-41.2875 30.9312,-29.9349 47.4839,-22.5805"/>
<polygon fill="midnightblue" stroke="midnightblue" points="49.0442,-25.7239 56.978,-18.7021 46.397,-19.2438 49.0442,-25.7239"/>
</g>
<!-- Node13 -->
<g id="node26" class="node"><title>Node13</title>
<polygon fill="white" stroke="#bfbfbf" points="177.791,-116.5 177.791,-137.5 218.791,-137.5 218.791,-116.5 177.791,-116.5"/>
<text text-anchor="middle" x="198.291" y="-124.5" font-family="Helvetica,sans-Serif" font-size="10.00">string</text>
</g>
<!-- Node3&#45;&gt;Node13 -->
<g id="edge26" class="edge"><title>Node3&#45;&gt;Node13</title>
<path fill="none" stroke="midnightblue" d="M223.605,-174.362C219.454,-166.595 213.707,-155.843 208.738,-146.546"/>
<polygon fill="midnightblue" stroke="midnightblue" points="211.741,-144.74 203.941,-137.571 205.568,-148.04 211.741,-144.74"/>
</g>
<!-- Node3&#45;&gt;Node14 -->
<g id="edge30" class="edge"><title>Node3&#45;&gt;Node14</title>
<path fill="none" stroke="midnightblue" d="M245.432,-174.362C258.705,-165.614 277.723,-153.079 292.861,-143.101"/>
<polygon fill="midnightblue" stroke="midnightblue" points="294.829,-145.996 301.253,-137.571 290.977,-140.151 294.829,-145.996"/>
</g>
<!-- Node15 -->
<g id="node31" class="node"><title>Node15</title>
<polygon fill="white" stroke="#bfbfbf" points="235.791,-116.5 235.791,-137.5 282.791,-137.5 282.791,-116.5 235.791,-116.5"/>
<text text-anchor="middle" x="259.291" y="-124.5" font-family="Helvetica,sans-Serif" font-size="10.00">iterator</text>
</g>
<!-- Node3&#45;&gt;Node15 -->
<g id="edge32" class="edge"><title>Node3&#45;&gt;Node15</title>
<path fill="none" stroke="midnightblue" d="M234.793,-174.362C238.811,-166.595 244.372,-155.843 249.181,-146.546"/>
<polygon fill="midnightblue" stroke="midnightblue" points="252.338,-148.061 253.823,-137.571 246.12,-144.845 252.338,-148.061"/>
</g>
<!-- Node16 -->
<g id="node33" class="node"><title>Node16</title>
<polygon fill="white" stroke="#bfbfbf" points="352.291,-116.5 352.291,-137.5 396.291,-137.5 396.291,-116.5 352.291,-116.5"/>
<text text-anchor="middle" x="374.291" y="-124.5" font-family="Helvetica,sans-Serif" font-size="10.00">vector</text>
</g>
<!-- Node3&#45;&gt;Node16 -->
<g id="edge34" class="edge"><title>Node3&#45;&gt;Node16</title>
<path fill="none" stroke="midnightblue" d="M255.549,-174.497C280.009,-164.713 316.521,-150.108 342.593,-139.679"/>
<polygon fill="midnightblue" stroke="midnightblue" points="344.043,-142.869 352.028,-135.905 341.443,-136.369 344.043,-142.869"/>
</g>
<!-- Node5&#45;&gt;Node4 -->
<g id="edge16" class="edge"><title>Node5&#45;&gt;Node4</title>
<path fill="none" stroke="midnightblue" d="M107.085,-116.362C96.5298,-107.859 81.5332,-95.7785 69.328,-85.9466"/>
<polygon fill="midnightblue" stroke="midnightblue" points="71.3964,-83.1183 61.4131,-79.5707 67.005,-88.5696 71.3964,-83.1183"/>
</g>
<!-- Node6 -->
<g id="node11" class="node"><title>Node6</title>
<a xlink:href="printable_8h.html" target="_top" xlink:title="printable.h">
<polygon fill="white" stroke="black" points="226.291,-58.5 226.291,-79.5 288.291,-79.5 288.291,-58.5 226.291,-58.5"/>
<text text-anchor="middle" x="257.291" y="-66.5" font-family="Helvetica,sans-Serif" font-size="10.00">printable.h</text>
</a>
</g>
<!-- Node5&#45;&gt;Node6 -->
<g id="edge10" class="edge"><title>Node5&#45;&gt;Node6</title>
<path fill="none" stroke="midnightblue" d="M145.101,-116.497C166.787,-107.315 198.502,-93.8889 222.683,-83.6516"/>
<polygon fill="midnightblue" stroke="midnightblue" points="224.359,-86.7429 232.203,-79.6212 221.63,-80.2968 224.359,-86.7429"/>
</g>
<!-- Node9 -->
<g id="node18" class="node"><title>Node9</title>
<polygon fill="white" stroke="#bfbfbf" points="351.291,-58.5 351.291,-79.5 407.291,-79.5 407.291,-58.5 351.291,-58.5"/>
<text text-anchor="middle" x="379.291" y="-66.5" font-family="Helvetica,sans-Serif" font-size="10.00">algorithm</text>
</g>
<!-- Node5&#45;&gt;Node9 -->
<g id="edge18" class="edge"><title>Node5&#45;&gt;Node9</title>
<path fill="none" stroke="midnightblue" d="M160.402,-117.993C163.41,-117.319 166.398,-116.648 169.291,-116 229.408,-102.525 299.212,-86.908 341.278,-77.4998"/>
<polygon fill="midnightblue" stroke="midnightblue" points="342.102,-80.9021 351.097,-75.304 340.574,-74.0709 342.102,-80.9021"/>
</g>
<!-- Node5&#45;&gt;Node10 -->
<g id="edge20" class="edge"><title>Node5&#45;&gt;Node10</title>
<path fill="none" stroke="midnightblue" d="M160.328,-117.613C163.353,-117.026 166.366,-116.48 169.291,-116 319.246,-91.4058 499.6,-77.1063 578.297,-71.6148"/>
<polygon fill="midnightblue" stroke="midnightblue" points="578.977,-75.0764 588.714,-70.8982 578.497,-68.0929 578.977,-75.0764"/>
</g>
<!-- Node11 -->
<g id="node22" class="node"><title>Node11</title>
<polygon fill="white" stroke="#bfbfbf" points="102.291,-58.5 102.291,-79.5 142.291,-79.5 142.291,-58.5 102.291,-58.5"/>
<text text-anchor="middle" x="122.291" y="-66.5" font-family="Helvetica,sans-Serif" font-size="10.00">limits</text>
</g>
<!-- Node5&#45;&gt;Node11 -->
<g id="edge22" class="edge"><title>Node5&#45;&gt;Node11</title>
<path fill="none" stroke="midnightblue" d="M120.658,-116.362C120.914,-108.922 121.265,-98.7427 121.576,-89.7276"/>
<polygon fill="midnightblue" stroke="midnightblue" points="125.08,-89.6854 121.926,-79.5707 118.084,-89.4441 125.08,-89.6854"/>
</g>
<!-- Node12 -->
<g id="node24" class="node"><title>Node12</title>
<polygon fill="white" stroke="#bfbfbf" points="159.791,-58.5 159.791,-79.5 208.791,-79.5 208.791,-58.5 159.791,-58.5"/>
<text text-anchor="middle" x="184.291" y="-66.5" font-family="Helvetica,sans-Serif" font-size="10.00">istream</text>
</g>
<!-- Node5&#45;&gt;Node12 -->
<g id="edge24" class="edge"><title>Node5&#45;&gt;Node12</title>
<path fill="none" stroke="midnightblue" d="M132.03,-116.362C141.232,-108.023 154.231,-96.2418 164.963,-86.5162"/>
<polygon fill="midnightblue" stroke="midnightblue" points="167.567,-88.8793 172.627,-79.5707 162.867,-83.6924 167.567,-88.8793"/>
</g>
<!-- Node7 -->
<g id="node13" class="node"><title>Node7</title>
<polygon fill="white" stroke="#bfbfbf" points="226.291,-0.5 226.291,-21.5 288.291,-21.5 288.291,-0.5 226.291,-0.5"/>
<text text-anchor="middle" x="257.291" y="-8.5" font-family="Helvetica,sans-Serif" font-size="10.00">type_traits</text>
</g>
<!-- Node6&#45;&gt;Node7 -->
<g id="edge12" class="edge"><title>Node6&#45;&gt;Node7</title>
<path fill="none" stroke="midnightblue" d="M257.291,-58.3619C257.291,-50.9219 257.291,-40.7427 257.291,-31.7276"/>
<polygon fill="midnightblue" stroke="midnightblue" points="260.791,-31.5706 257.291,-21.5707 253.791,-31.5707 260.791,-31.5706"/>
</g>
<!-- Node6&#45;&gt;Node8 -->
<g id="edge14" class="edge"><title>Node6&#45;&gt;Node8</title>
<path fill="none" stroke="midnightblue" d="M226.183,-58.6308C196.105,-48.6048 150.571,-33.4267 119.021,-22.9101"/>
<polygon fill="midnightblue" stroke="midnightblue" points="119.9,-19.5139 109.307,-19.6719 117.687,-26.1547 119.9,-19.5139"/>
</g>
<!-- Node17&#45;&gt;Node9 -->
<g id="edge46" class="edge"><title>Node17&#45;&gt;Node9</title>
<path fill="none" stroke="midnightblue" d="M494.494,-174.433C480.073,-165.513 459.552,-151.99 443.291,-138 425.068,-122.322 406.653,-101.875 394.285,-87.3183"/>
<polygon fill="midnightblue" stroke="midnightblue" points="396.851,-84.931 387.748,-79.5089 391.483,-89.4238 396.851,-84.931"/>
</g>
<!-- Node17&#45;&gt;Node16 -->
<g id="edge44" class="edge"><title>Node17&#45;&gt;Node16</title>
<path fill="none" stroke="midnightblue" d="M490.119,-175.681C467.284,-166.084 431.493,-151.041 405.739,-140.217"/>
<polygon fill="midnightblue" stroke="midnightblue" points="406.983,-136.944 396.408,-136.296 404.271,-143.397 406.983,-136.944"/>
</g>
<!-- Node18 -->
<g id="node37" class="node"><title>Node18</title>
<polygon fill="white" stroke="#bfbfbf" points="452.291,-116.5 452.291,-137.5 572.291,-137.5 572.291,-116.5 452.291,-116.5"/>
<text text-anchor="middle" x="512.291" y="-124.5" font-family="Helvetica,sans-Serif" font-size="10.00">base/cereal/access.hpp</text>
</g>
<!-- Node17&#45;&gt;Node18 -->
<g id="edge38" class="edge"><title>Node17&#45;&gt;Node18</title>
<path fill="none" stroke="midnightblue" d="M512.291,-174.362C512.291,-166.922 512.291,-156.743 512.291,-147.728"/>
<polygon fill="midnightblue" stroke="midnightblue" points="515.791,-147.571 512.291,-137.571 508.791,-147.571 515.791,-147.571"/>
</g>
<!-- Node19 -->
<g id="node39" class="node"><title>Node19</title>
<polygon fill="white" stroke="#bfbfbf" points="590.291,-116.5 590.291,-137.5 642.291,-137.5 642.291,-116.5 590.291,-116.5"/>
<text text-anchor="middle" x="616.291" y="-124.5" font-family="Helvetica,sans-Serif" font-size="10.00">memory</text>
</g>
<!-- Node17&#45;&gt;Node19 -->
<g id="edge40" class="edge"><title>Node17&#45;&gt;Node19</title>
<path fill="none" stroke="midnightblue" d="M531.366,-174.362C547.346,-165.45 570.372,-152.609 588.418,-142.545"/>
<polygon fill="midnightblue" stroke="midnightblue" points="590.308,-145.498 597.337,-137.571 586.898,-139.385 590.308,-145.498"/>
</g>
<!-- Node20 -->
<g id="node41" class="node"><title>Node20</title>
<polygon fill="white" stroke="#bfbfbf" points="659.791,-116.5 659.791,-137.5 688.791,-137.5 688.791,-116.5 659.791,-116.5"/>
<text text-anchor="middle" x="674.291" y="-124.5" font-family="Helvetica,sans-Serif" font-size="10.00">list</text>
</g>
<!-- Node17&#45;&gt;Node20 -->
<g id="edge42" class="edge"><title>Node17&#45;&gt;Node20</title>
<path fill="none" stroke="midnightblue" d="M534.74,-178.321C560.686,-170.409 604.776,-156.367 649.964,-138.277"/>
<polygon fill="midnightblue" stroke="midnightblue" points="651.364,-141.486 659.313,-134.481 648.731,-135 651.364,-141.486"/>
</g>
<!-- Node21 -->
<g id="node45" class="node"><title>Node21</title>
<polygon fill="white" stroke="#bfbfbf" points="705.791,-116.5 705.791,-137.5 754.791,-137.5 754.791,-116.5 705.791,-116.5"/>
<text text-anchor="middle" x="730.291" y="-124.5" font-family="Helvetica,sans-Serif" font-size="10.00">cassert</text>
</g>
<!-- Node17&#45;&gt;Node21 -->
<g id="edge48" class="edge"><title>Node17&#45;&gt;Node21</title>
<path fill="none" stroke="midnightblue" d="M534.36,-179.944C567.487,-172.237 632.211,-156.726 695.719,-138.338"/>
<polygon fill="midnightblue" stroke="midnightblue" points="696.869,-141.648 705.486,-135.484 694.906,-134.929 696.869,-141.648"/>
</g>
</g>
</svg>
