<?xml version="1.0" encoding="UTF-8" standalone="no"?>
<!DOCTYPE svg PUBLIC "-//W3C//DTD SVG 1.1//EN"
 "http://www.w3.org/Graphics/SVG/1.1/DTD/svg11.dtd">
<!-- Generated by graphviz version 2.26.3 (20100126.1600)
 -->
<!-- Title: src/analysis/physics/Physics.cc Pages: 1 -->
<svg width="3948pt" height="580pt"
 viewBox="0.00 0.00 3947.80 580.00" xmlns="http://www.w3.org/2000/svg" xmlns:xlink="http://www.w3.org/1999/xlink">
<g id="graph1" class="graph" transform="scale(1 1) rotate(0) translate(4 576)">
<title>src/analysis/physics/Physics.cc</title>
<polygon fill="white" stroke="white" points="-4,5 -4,-576 3944.8,-576 3944.8,5 -4,5"/>
<!-- Node1 -->
<g id="node1" class="node"><title>Node1</title>
<polygon fill="#bfbfbf" stroke="black" points="2488.8,-537 2488.8,-571 2594.8,-571 2594.8,-537 2488.8,-537"/>
<text text-anchor="start" x="2496.8" y="-558" font-family="Helvetica,sans-Serif" font-size="10.00">src/analysis/physics</text>
<text text-anchor="middle" x="2541.8" y="-545" font-family="Helvetica,sans-Serif" font-size="10.00">/Physics.cc</text>
</g>
<!-- Node2 -->
<g id="node3" class="node"><title>Node2</title>
<a xlink:href="_physics_8h.html" target="_top" xlink:title="Physics.h">
<polygon fill="white" stroke="black" points="3266.8,-478.5 3266.8,-499.5 3326.8,-499.5 3326.8,-478.5 3266.8,-478.5"/>
<text text-anchor="middle" x="3296.8" y="-486.5" font-family="Helvetica,sans-Serif" font-size="10.00">Physics.h</text>
</a>
</g>
<!-- Node1&#45;&gt;Node2 -->
<g id="edge2" class="edge"><title>Node1&#45;&gt;Node2</title>
<path fill="none" stroke="midnightblue" d="M2594.89,-549.429C2738.05,-537.104 3129.78,-503.38 3256.6,-492.461"/>
<polygon fill="midnightblue" stroke="midnightblue" points="3257,-495.94 3266.66,-491.595 3256.4,-488.966 3257,-495.94"/>
</g>
<!-- Node11 -->
<g id="node21" class="node"><title>Node11</title>
<polygon fill="white" stroke="#bfbfbf" points="1440.3,-58.5 1440.3,-79.5 1499.3,-79.5 1499.3,-58.5 1440.3,-58.5"/>
<text text-anchor="middle" x="1469.8" y="-66.5" font-family="Helvetica,sans-Serif" font-size="10.00">stdexcept</text>
</g>
<!-- Node1&#45;&gt;Node11 -->
<g id="edge360" class="edge"><title>Node1&#45;&gt;Node11</title>
<path fill="none" stroke="midnightblue" d="M2488.48,-551.615C2256.76,-540.961 1343.68,-495.874 1227.8,-442 1135.51,-399.086 1092.8,-358.787 1092.8,-257 1092.8,-257 1092.8,-257 1092.8,-192 1092.8,-157.183 1085.82,-139.171 1111.8,-116 1135.27,-95.0787 1341.77,-78.0866 1430.05,-71.7116"/>
<polygon fill="midnightblue" stroke="midnightblue" points="1430.49,-75.1896 1440.21,-70.9873 1429.99,-68.2074 1430.49,-75.1896"/>
</g>
<!-- Node25 -->
<g id="node58" class="node"><title>Node25</title>
<a xlink:href="string_8h.html" target="_top" xlink:title="base/std_ext/string.h">
<polygon fill="white" stroke="black" points="1452.8,-116.5 1452.8,-137.5 1560.8,-137.5 1560.8,-116.5 1452.8,-116.5"/>
<text text-anchor="middle" x="1506.8" y="-124.5" font-family="Helvetica,sans-Serif" font-size="10.00">base/std_ext/string.h</text>
</a>
</g>
<!-- Node1&#45;&gt;Node25 -->
<g id="edge362" class="edge"><title>Node1&#45;&gt;Node25</title>
<path fill="none" stroke="midnightblue" d="M2488.52,-549.975C2328.46,-537.178 1862.8,-494.494 1862.8,-431 1862.8,-431 1862.8,-431 1862.8,-315 1862.8,-245.554 1648.3,-170.642 1552.3,-140.595"/>
<polygon fill="midnightblue" stroke="midnightblue" points="1553.16,-137.196 1542.57,-137.576 1551.08,-143.882 1553.16,-137.196"/>
</g>
<!-- Node68 -->
<g id="node246" class="node"><title>Node68</title>
<a xlink:href="_logger_8h.html" target="_top" xlink:title="base/Logger.h">
<polygon fill="white" stroke="black" points="3603.8,-478.5 3603.8,-499.5 3681.8,-499.5 3681.8,-478.5 3603.8,-478.5"/>
<text text-anchor="middle" x="3642.8" y="-486.5" font-family="Helvetica,sans-Serif" font-size="10.00">base/Logger.h</text>
</a>
</g>
<!-- Node1&#45;&gt;Node68 -->
<g id="edge356" class="edge"><title>Node1&#45;&gt;Node68</title>
<path fill="none" stroke="midnightblue" d="M2594.91,-550.865C2782.52,-539.789 3412.62,-502.589 3593.73,-491.897"/>
<polygon fill="midnightblue" stroke="midnightblue" points="3593.99,-495.388 3603.77,-491.305 3593.58,-488.4 3593.99,-495.388"/>
</g>
<!-- Node3 -->
<g id="node5" class="node"><title>Node3</title>
<a xlink:href="manager__t_8h.html" target="_top" xlink:title="analysis/physics/manager_t.h">
<polygon fill="white" stroke="black" points="3585.8,-420.5 3585.8,-441.5 3731.8,-441.5 3731.8,-420.5 3585.8,-420.5"/>
<text text-anchor="middle" x="3658.8" y="-428.5" font-family="Helvetica,sans-Serif" font-size="10.00">analysis/physics/manager_t.h</text>
</a>
</g>
<!-- Node2&#45;&gt;Node3 -->
<g id="edge4" class="edge"><title>Node2&#45;&gt;Node3</title>
<path fill="none" stroke="midnightblue" d="M3327.04,-484.155C3382.86,-475.212 3503.59,-455.868 3582.98,-443.148"/>
<polygon fill="midnightblue" stroke="midnightblue" points="3583.61,-446.592 3592.93,-441.554 3582.51,-439.68 3583.61,-446.592"/>
</g>
<!-- Node4 -->
<g id="node7" class="node"><title>Node4</title>
<a xlink:href="_histogram_factories_8h.html" target="_top" xlink:title="analysis/plot/HistogramFactories.h">
<polygon fill="white" stroke="black" points="2863.8,-246.5 2863.8,-267.5 3031.8,-267.5 3031.8,-246.5 2863.8,-246.5"/>
<text text-anchor="middle" x="2947.8" y="-254.5" font-family="Helvetica,sans-Serif" font-size="10.00">analysis/plot/HistogramFactories.h</text>
</a>
</g>
<!-- Node2&#45;&gt;Node4 -->
<g id="edge6" class="edge"><title>Node2&#45;&gt;Node4</title>
<path fill="none" stroke="midnightblue" d="M3280.9,-478.429C3225.37,-441.516 3039.83,-318.177 2972.49,-273.412"/>
<polygon fill="midnightblue" stroke="midnightblue" points="2974.07,-270.255 2963.8,-267.634 2970.19,-276.084 2974.07,-270.255"/>
</g>
<!-- Node16 -->
<g id="node33" class="node"><title>Node16</title>
<polygon fill="white" stroke="#bfbfbf" points="3206.3,-58.5 3206.3,-79.5 3247.3,-79.5 3247.3,-58.5 3206.3,-58.5"/>
<text text-anchor="middle" x="3226.8" y="-66.5" font-family="Helvetica,sans-Serif" font-size="10.00">string</text>
</g>
<!-- Node2&#45;&gt;Node16 -->
<g id="edge348" class="edge"><title>Node2&#45;&gt;Node16</title>
<path fill="none" stroke="midnightblue" d="M3306.18,-478.267C3346.66,-430.632 3500.19,-235.443 3407.8,-116 3389.56,-92.4139 3304.31,-78.4771 3257.6,-72.4857"/>
<polygon fill="midnightblue" stroke="midnightblue" points="3257.79,-68.9828 3247.44,-71.2295 3256.93,-75.9299 3257.79,-68.9828"/>
</g>
<!-- Node17 -->
<g id="node36" class="node"><title>Node17</title>
<a xlink:href="memory_8h.html" target="_top" xlink:title="base/std_ext/memory.h">
<polygon fill="white" stroke="black" points="2534.3,-181.5 2534.3,-202.5 2653.3,-202.5 2653.3,-181.5 2534.3,-181.5"/>
<text text-anchor="middle" x="2593.8" y="-189.5" font-family="Helvetica,sans-Serif" font-size="10.00">base/std_ext/memory.h</text>
</a>
</g>
<!-- Node2&#45;&gt;Node17 -->
<g id="edge38" class="edge"><title>Node2&#45;&gt;Node17</title>
<path fill="none" stroke="midnightblue" d="M3266.45,-488.258C3147.78,-485.152 2719.25,-471.941 2666.8,-442 2634.36,-423.479 2618.8,-410.357 2618.8,-373 2618.8,-373 2618.8,-373 2618.8,-315 2618.8,-278.34 2608.01,-236.744 2600.6,-212.532"/>
<polygon fill="midnightblue" stroke="midnightblue" points="2603.85,-211.186 2597.49,-202.71 2597.18,-213.3 2603.85,-211.186"/>
</g>
<!-- Node18 -->
<g id="node38" class="node"><title>Node18</title>
<polygon fill="white" stroke="#bfbfbf" points="2478.8,-116.5 2478.8,-137.5 2530.8,-137.5 2530.8,-116.5 2478.8,-116.5"/>
<text text-anchor="middle" x="2504.8" y="-124.5" font-family="Helvetica,sans-Serif" font-size="10.00">memory</text>
</g>
<!-- Node2&#45;&gt;Node18 -->
<g id="edge352" class="edge"><title>Node2&#45;&gt;Node18</title>
<path fill="none" stroke="midnightblue" d="M3266.69,-488.137C3196.45,-485.593 3016.63,-476.009 2870.8,-442 2783.31,-421.596 2680.8,-462.84 2680.8,-373 2680.8,-373 2680.8,-373 2680.8,-257 2680.8,-219.157 2687.72,-201.574 2661.8,-174 2625.13,-134.979 2596.99,-152.365 2540.81,-138.041"/>
<polygon fill="midnightblue" stroke="midnightblue" points="2541.73,-134.665 2531.16,-135.338 2539.85,-141.406 2541.73,-134.665"/>
</g>
<!-- Node19 -->
<g id="node40" class="node"><title>Node19</title>
<polygon fill="white" stroke="#bfbfbf" points="2548.3,-116.5 2548.3,-137.5 2577.3,-137.5 2577.3,-116.5 2548.3,-116.5"/>
<text text-anchor="middle" x="2562.8" y="-124.5" font-family="Helvetica,sans-Serif" font-size="10.00">list</text>
</g>
<!-- Node2&#45;&gt;Node19 -->
<g id="edge346" class="edge"><title>Node2&#45;&gt;Node19</title>
<path fill="none" stroke="midnightblue" d="M3266.49,-487.93C3163.71,-483.493 2834.8,-462.314 2834.8,-373 2834.8,-373 2834.8,-373 2834.8,-257 2834.8,-219.157 2843.51,-199.773 2815.8,-174 2741.16,-104.576 2684.67,-168.689 2587.06,-139.336"/>
<polygon fill="midnightblue" stroke="midnightblue" points="2588.08,-135.986 2577.49,-136.196 2585.9,-142.638 2588.08,-135.986"/>
</g>
<!-- Node20 -->
<g id="node42" class="node"><title>Node20</title>
<a xlink:href="_t_event_8h.html" target="_top" xlink:title="tree/TEvent.h">
<polygon fill="white" stroke="black" points="2014.8,-181.5 2014.8,-202.5 2090.8,-202.5 2090.8,-181.5 2014.8,-181.5"/>
<text text-anchor="middle" x="2052.8" y="-189.5" font-family="Helvetica,sans-Serif" font-size="10.00">tree/TEvent.h</text>
</a>
</g>
<!-- Node2&#45;&gt;Node20 -->
<g id="edge44" class="edge"><title>Node2&#45;&gt;Node20</title>
<path fill="none" stroke="midnightblue" d="M3266.62,-487.989C3069.24,-481.186 1970.8,-440.304 1970.8,-373 1970.8,-373 1970.8,-373 1970.8,-315 1970.8,-271.19 2007.26,-231.116 2031.56,-209.275"/>
<polygon fill="midnightblue" stroke="midnightblue" points="2034.01,-211.786 2039.26,-202.588 2029.42,-206.5 2034.01,-211.786"/>
</g>
<!-- Node22 -->
<g id="node49" class="node"><title>Node22</title>
<a xlink:href="_t_event_data_8h.html" target="_top" xlink:title="tree/TEventData.h">
<polygon fill="white" stroke="black" points="1236.3,-420.5 1236.3,-441.5 1333.3,-441.5 1333.3,-420.5 1236.3,-420.5"/>
<text text-anchor="middle" x="1284.8" y="-428.5" font-family="Helvetica,sans-Serif" font-size="10.00">tree/TEventData.h</text>
</a>
</g>
<!-- Node2&#45;&gt;Node22 -->
<g id="edge54" class="edge"><title>Node2&#45;&gt;Node22</title>
<path fill="none" stroke="midnightblue" d="M3266.8,-488.135C3044.21,-481.718 1649.87,-441.524 1344.05,-432.708"/>
<polygon fill="midnightblue" stroke="midnightblue" points="1343.73,-429.197 1333.63,-432.408 1343.53,-436.194 1343.73,-429.197"/>
</g>
<!-- Node53 -->
<g id="node170" class="node"><title>Node53</title>
<polygon fill="white" stroke="#bfbfbf" points="3324.3,-116.5 3324.3,-137.5 3383.3,-137.5 3383.3,-116.5 3324.3,-116.5"/>
<text text-anchor="middle" x="3353.8" y="-124.5" font-family="Helvetica,sans-Serif" font-size="10.00">functional</text>
</g>
<!-- Node2&#45;&gt;Node53 -->
<g id="edge354" class="edge"><title>Node2&#45;&gt;Node53</title>
<path fill="none" stroke="midnightblue" d="M3298.51,-478.166C3306.44,-427.789 3339.79,-216.029 3350.48,-148.081"/>
<polygon fill="midnightblue" stroke="midnightblue" points="3354.01,-148.214 3352.1,-137.792 3347.09,-147.126 3354.01,-148.214"/>
</g>
<!-- Node57 -->
<g id="node199" class="node"><title>Node57</title>
<polygon fill="white" stroke="#bfbfbf" points="3514.3,-116.5 3514.3,-137.5 3549.3,-137.5 3549.3,-116.5 3514.3,-116.5"/>
<text text-anchor="middle" x="3531.8" y="-124.5" font-family="Helvetica,sans-Serif" font-size="10.00">map</text>
</g>
<!-- Node2&#45;&gt;Node57 -->
<g id="edge350" class="edge"><title>Node2&#45;&gt;Node57</title>
<path fill="none" stroke="midnightblue" d="M3327.08,-487.622C3424.69,-482.952 3726.88,-466.626 3762.8,-442 3791.17,-422.557 3797.8,-407.386 3797.8,-373 3797.8,-373 3797.8,-373 3797.8,-257 3797.8,-243.803 3626.57,-168.096 3558.87,-138.683"/>
<polygon fill="midnightblue" stroke="midnightblue" points="3560.24,-135.459 3549.67,-134.692 3557.45,-141.881 3560.24,-135.459"/>
</g>
<!-- Node62 -->
<g id="node219" class="node"><title>Node62</title>
<a xlink:href="_options_list_8h.html" target="_top" xlink:title="base/OptionsList.h">
<polygon fill="white" stroke="black" points="3500.8,-181.5 3500.8,-202.5 3598.8,-202.5 3598.8,-181.5 3500.8,-181.5"/>
<text text-anchor="middle" x="3549.8" y="-189.5" font-family="Helvetica,sans-Serif" font-size="10.00">base/OptionsList.h</text>
</a>
</g>
<!-- Node2&#45;&gt;Node62 -->
<g id="edge314" class="edge"><title>Node2&#45;&gt;Node62</title>
<path fill="none" stroke="midnightblue" d="M3326.84,-487.758C3421.52,-483.579 3709.26,-468.773 3740.8,-442 3765.05,-421.417 3759.8,-404.808 3759.8,-373 3759.8,-373 3759.8,-373 3759.8,-315 3759.8,-244.759 3671.24,-213.875 3609.14,-200.854"/>
<polygon fill="midnightblue" stroke="midnightblue" points="3609.53,-197.362 3599.04,-198.841 3608.16,-204.227 3609.53,-197.362"/>
</g>
<!-- Node64 -->
<g id="node227" class="node"><title>Node64</title>
<a xlink:href="root__draw_8h.html" target="_top" xlink:title="analysis/plot/root\l_draw.h">
<polygon fill="white" stroke="black" points="3214.3,-175 3214.3,-209 3305.3,-209 3305.3,-175 3214.3,-175"/>
<text text-anchor="start" x="3222.3" y="-196" font-family="Helvetica,sans-Serif" font-size="10.00">analysis/plot/root</text>
<text text-anchor="middle" x="3259.8" y="-183" font-family="Helvetica,sans-Serif" font-size="10.00">_draw.h</text>
</a>
</g>
<!-- Node2&#45;&gt;Node64 -->
<g id="edge326" class="edge"><title>Node2&#45;&gt;Node64</title>
<path fill="none" stroke="midnightblue" d="M3293.83,-478.222C3288.49,-457.841 3277.8,-412.182 3277.8,-373 3277.8,-373 3277.8,-373 3277.8,-315 3277.8,-281.764 3271.29,-244.004 3266.1,-219.191"/>
<polygon fill="midnightblue" stroke="midnightblue" points="3269.52,-218.432 3263.98,-209.4 3262.67,-219.914 3269.52,-218.432"/>
</g>
<!-- Node65 -->
<g id="node235" class="node"><title>Node65</title>
<polygon fill="white" stroke="#bfbfbf" points="3381.3,-420.5 3381.3,-441.5 3432.3,-441.5 3432.3,-420.5 3381.3,-420.5"/>
<text text-anchor="middle" x="3406.8" y="-428.5" font-family="Helvetica,sans-Serif" font-size="10.00">TH1D.h</text>
</g>
<!-- Node2&#45;&gt;Node65 -->
<g id="edge340" class="edge"><title>Node2&#45;&gt;Node65</title>
<path fill="none" stroke="midnightblue" d="M3316.72,-478.497C3333.75,-469.519 3358.47,-456.484 3377.71,-446.339"/>
<polygon fill="midnightblue" stroke="midnightblue" points="3379.45,-449.381 3386.66,-441.621 3376.18,-443.189 3379.45,-449.381"/>
</g>
<!-- Node66 -->
<g id="node237" class="node"><title>Node66</title>
<polygon fill="white" stroke="#bfbfbf" points="3449.3,-420.5 3449.3,-441.5 3500.3,-441.5 3500.3,-420.5 3449.3,-420.5"/>
<text text-anchor="middle" x="3474.8" y="-428.5" font-family="Helvetica,sans-Serif" font-size="10.00">TH2D.h</text>
</g>
<!-- Node2&#45;&gt;Node66 -->
<g id="edge342" class="edge"><title>Node2&#45;&gt;Node66</title>
<path fill="none" stroke="midnightblue" d="M3327,-479.161C3358.1,-469.027 3406.54,-453.242 3439.42,-442.529"/>
<polygon fill="midnightblue" stroke="midnightblue" points="3440.67,-445.804 3449.09,-439.379 3438.5,-439.149 3440.67,-445.804"/>
</g>
<!-- Node67 -->
<g id="node239" class="node"><title>Node67</title>
<polygon fill="white" stroke="#bfbfbf" points="3517.3,-420.5 3517.3,-441.5 3568.3,-441.5 3568.3,-420.5 3517.3,-420.5"/>
<text text-anchor="middle" x="3542.8" y="-428.5" font-family="Helvetica,sans-Serif" font-size="10.00">TH3D.h</text>
</g>
<!-- Node2&#45;&gt;Node67 -->
<g id="edge344" class="edge"><title>Node2&#45;&gt;Node67</title>
<path fill="none" stroke="midnightblue" d="M3326.86,-483.269C3366.3,-475.55 3437.8,-460.859 3507.45,-442.208"/>
<polygon fill="midnightblue" stroke="midnightblue" points="3508.52,-445.543 3517.26,-439.55 3506.69,-438.786 3508.52,-445.543"/>
</g>
<!-- Node5 -->
<g id="node9" class="node"><title>Node5</title>
<a xlink:href="interval_8h.html" target="_top" xlink:title="base/interval.h">
<polygon fill="white" stroke="black" points="2708.8,-116.5 2708.8,-137.5 2788.8,-137.5 2788.8,-116.5 2708.8,-116.5"/>
<text text-anchor="middle" x="2748.8" y="-124.5" font-family="Helvetica,sans-Serif" font-size="10.00">base/interval.h</text>
</a>
</g>
<!-- Node4&#45;&gt;Node5 -->
<g id="edge8" class="edge"><title>Node4&#45;&gt;Node5</title>
<path fill="none" stroke="midnightblue" d="M2969.8,-246.365C2983.48,-238.433 2999.93,-226.179 3007.8,-210 3014.81,-195.615 3018.06,-186.282 3007.8,-174 3001.13,-166.001 2872.45,-145.537 2799.04,-134.434"/>
<polygon fill="midnightblue" stroke="midnightblue" points="2799.47,-130.96 2789.06,-132.931 2798.43,-137.882 2799.47,-130.96"/>
</g>
<!-- Node14 -->
<g id="node27" class="node"><title>Node14</title>
<a xlink:href="_bin_settings_8h.html" target="_top" xlink:title="base/BinSettings.h">
<polygon fill="white" stroke="black" points="2900.3,-181.5 2900.3,-202.5 2999.3,-202.5 2999.3,-181.5 2900.3,-181.5"/>
<text text-anchor="middle" x="2949.8" y="-189.5" font-family="Helvetica,sans-Serif" font-size="10.00">base/BinSettings.h</text>
</a>
</g>
<!-- Node4&#45;&gt;Node14 -->
<g id="edge26" class="edge"><title>Node4&#45;&gt;Node14</title>
<path fill="none" stroke="midnightblue" d="M2948.13,-246.267C2948.41,-237.18 2948.82,-223.892 2949.17,-212.74"/>
<polygon fill="midnightblue" stroke="midnightblue" points="2952.67,-212.637 2949.48,-202.534 2945.67,-212.421 2952.67,-212.637"/>
</g>
<!-- Node15 -->
<g id="node30" class="node"><title>Node15</title>
<polygon fill="white" stroke="#bfbfbf" points="2063.8,-58.5 2063.8,-79.5 2107.8,-79.5 2107.8,-58.5 2063.8,-58.5"/>
<text text-anchor="middle" x="2085.8" y="-66.5" font-family="Helvetica,sans-Serif" font-size="10.00">vector</text>
</g>
<!-- Node4&#45;&gt;Node15 -->
<g id="edge36" class="edge"><title>Node4&#45;&gt;Node15</title>
<path fill="none" stroke="midnightblue" d="M2934.91,-246.171C2908.17,-223.716 2849.12,-174.144 2848.8,-174 2754.6,-131.198 2715.21,-175.573 2618.8,-138 2602.38,-131.599 2602.45,-121.795 2585.8,-116 2401.34,-51.7829 2341.51,-105.088 2147.8,-80 2138.01,-78.7317 2127.41,-76.9889 2117.79,-75.2644"/>
<polygon fill="midnightblue" stroke="midnightblue" points="2118.29,-71.7977 2107.82,-73.4236 2117.02,-78.6814 2118.29,-71.7977"/>
</g>
<!-- Node4&#45;&gt;Node16 -->
<g id="edge34" class="edge"><title>Node4&#45;&gt;Node16</title>
<path fill="none" stroke="midnightblue" d="M3032.18,-252.109C3124.35,-245.728 3265.33,-232.619 3313.8,-210 3356.56,-190.052 3372.88,-181.217 3391.8,-138 3395.73,-129.043 3397.69,-123.804 3391.8,-116 3375.64,-94.5879 3300.52,-80.0371 3257.42,-73.2942"/>
<polygon fill="midnightblue" stroke="midnightblue" points="3257.88,-69.8232 3247.46,-71.786 3256.83,-76.7443 3257.88,-69.8232"/>
</g>
<!-- Node6 -->
<g id="node11" class="node"><title>Node6</title>
<a xlink:href="printable_8h.html" target="_top" xlink:title="printable.h">
<polygon fill="white" stroke="black" points="1203.8,-58.5 1203.8,-79.5 1265.8,-79.5 1265.8,-58.5 1203.8,-58.5"/>
<text text-anchor="middle" x="1234.8" y="-66.5" font-family="Helvetica,sans-Serif" font-size="10.00">printable.h</text>
</a>
</g>
<!-- Node5&#45;&gt;Node6 -->
<g id="edge10" class="edge"><title>Node5&#45;&gt;Node6</title>
<path fill="none" stroke="midnightblue" d="M2708.64,-123.883C2675.66,-121.421 2627.73,-118.068 2585.8,-116 2073.29,-90.7207 1944.46,-102.306 1431.8,-80 1377.93,-77.6558 1315.81,-74.0348 1275.97,-71.5939"/>
<polygon fill="midnightblue" stroke="midnightblue" points="1276.04,-68.0916 1265.84,-70.9695 1275.61,-75.0784 1276.04,-68.0916"/>
</g>
<!-- Node9 -->
<g id="node17" class="node"><title>Node9</title>
<a xlink:href="types_8h.html" target="_top" xlink:title="types.h">
<polygon fill="white" stroke="black" points="2868.3,-58.5 2868.3,-79.5 2917.3,-79.5 2917.3,-58.5 2868.3,-58.5"/>
<text text-anchor="middle" x="2892.8" y="-66.5" font-family="Helvetica,sans-Serif" font-size="10.00">types.h</text>
</a>
</g>
<!-- Node5&#45;&gt;Node9 -->
<g id="edge16" class="edge"><title>Node5&#45;&gt;Node9</title>
<path fill="none" stroke="midnightblue" d="M2774.88,-116.497C2798.31,-107.06 2832.87,-93.139 2858.53,-82.8052"/>
<polygon fill="midnightblue" stroke="midnightblue" points="2859.92,-86.0199 2867.88,-79.0371 2857.3,-79.5267 2859.92,-86.0199"/>
</g>
<!-- Node10 -->
<g id="node19" class="node"><title>Node10</title>
<polygon fill="white" stroke="#bfbfbf" points="1884.8,-58.5 1884.8,-79.5 1940.8,-79.5 1940.8,-58.5 1884.8,-58.5"/>
<text text-anchor="middle" x="1912.8" y="-66.5" font-family="Helvetica,sans-Serif" font-size="10.00">algorithm</text>
</g>
<!-- Node5&#45;&gt;Node10 -->
<g id="edge18" class="edge"><title>Node5&#45;&gt;Node10</title>
<path fill="none" stroke="midnightblue" d="M2708.66,-124.292C2565.61,-114.641 2087.55,-82.3771 2054.8,-80 2019.55,-77.4409 1979.39,-74.31 1950.8,-72.0438"/>
<polygon fill="midnightblue" stroke="midnightblue" points="1951.06,-68.5539 1940.82,-71.2507 1950.51,-75.5319 1951.06,-68.5539"/>
</g>
<!-- Node5&#45;&gt;Node11 -->
<g id="edge20" class="edge"><title>Node5&#45;&gt;Node11</title>
<path fill="none" stroke="midnightblue" d="M2708.63,-124.005C2675.65,-121.614 2627.72,-118.297 2585.8,-116 2165.02,-92.9449 1654.45,-75.164 1509.73,-70.3162"/>
<polygon fill="midnightblue" stroke="midnightblue" points="1509.68,-66.8124 1499.56,-69.9767 1509.44,-73.8085 1509.68,-66.8124"/>
</g>
<!-- Node12 -->
<g id="node23" class="node"><title>Node12</title>
<polygon fill="white" stroke="#bfbfbf" points="2471.8,-58.5 2471.8,-79.5 2511.8,-79.5 2511.8,-58.5 2471.8,-58.5"/>
<text text-anchor="middle" x="2491.8" y="-66.5" font-family="Helvetica,sans-Serif" font-size="10.00">limits</text>
</g>
<!-- Node5&#45;&gt;Node12 -->
<g id="edge22" class="edge"><title>Node5&#45;&gt;Node12</title>
<path fill="none" stroke="midnightblue" d="M2708.65,-117.938C2656.91,-106.262 2568.15,-86.2303 2521.87,-75.7849"/>
<polygon fill="midnightblue" stroke="midnightblue" points="2522.39,-72.3144 2511.86,-73.527 2520.85,-79.1427 2522.39,-72.3144"/>
</g>
<!-- Node13 -->
<g id="node25" class="node"><title>Node13</title>
<polygon fill="white" stroke="#bfbfbf" points="2724.3,-58.5 2724.3,-79.5 2773.3,-79.5 2773.3,-58.5 2724.3,-58.5"/>
<text text-anchor="middle" x="2748.8" y="-66.5" font-family="Helvetica,sans-Serif" font-size="10.00">istream</text>
</g>
<!-- Node5&#45;&gt;Node13 -->
<g id="edge24" class="edge"><title>Node5&#45;&gt;Node13</title>
<path fill="none" stroke="midnightblue" d="M2748.8,-116.362C2748.8,-108.922 2748.8,-98.7427 2748.8,-89.7276"/>
<polygon fill="midnightblue" stroke="midnightblue" points="2752.3,-89.5706 2748.8,-79.5707 2745.3,-89.5707 2752.3,-89.5706"/>
</g>
<!-- Node7 -->
<g id="node13" class="node"><title>Node7</title>
<polygon fill="white" stroke="#bfbfbf" points="1023.8,-0.5 1023.8,-21.5 1085.8,-21.5 1085.8,-0.5 1023.8,-0.5"/>
<text text-anchor="middle" x="1054.8" y="-8.5" font-family="Helvetica,sans-Serif" font-size="10.00">type_traits</text>
</g>
<!-- Node6&#45;&gt;Node7 -->
<g id="edge12" class="edge"><title>Node6&#45;&gt;Node7</title>
<path fill="none" stroke="midnightblue" d="M1203.45,-58.8972C1173.6,-49.2791 1128.51,-34.749 1095.82,-24.2152"/>
<polygon fill="midnightblue" stroke="midnightblue" points="1096.69,-20.8199 1086.1,-21.0842 1094.54,-27.4825 1096.69,-20.8199"/>
</g>
<!-- Node8 -->
<g id="node15" class="node"><title>Node8</title>
<polygon fill="white" stroke="#bfbfbf" points="2452.8,-0.5 2452.8,-21.5 2504.8,-21.5 2504.8,-0.5 2452.8,-0.5"/>
<text text-anchor="middle" x="2478.8" y="-8.5" font-family="Helvetica,sans-Serif" font-size="10.00">ostream</text>
</g>
<!-- Node6&#45;&gt;Node8 -->
<g id="edge14" class="edge"><title>Node6&#45;&gt;Node8</title>
<path fill="none" stroke="midnightblue" d="M1265.85,-67.1616C1304.66,-64.8874 1373.13,-60.9549 1431.8,-58 1827.69,-38.0623 2307.99,-18.022 2442.35,-12.4919"/>
<polygon fill="midnightblue" stroke="midnightblue" points="2442.65,-15.9827 2452.5,-12.0748 2442.37,-8.98857 2442.65,-15.9827"/>
</g>
<!-- Node14&#45;&gt;Node5 -->
<g id="edge28" class="edge"><title>Node14&#45;&gt;Node5</title>
<path fill="none" stroke="midnightblue" d="M2917.06,-181.412C2882.75,-170.316 2828.72,-152.843 2791.17,-140.702"/>
<polygon fill="midnightblue" stroke="midnightblue" points="2792.12,-137.33 2781.53,-137.584 2789.97,-143.991 2792.12,-137.33"/>
</g>
<!-- Node14&#45;&gt;Node11 -->
<g id="edge32" class="edge"><title>Node14&#45;&gt;Node11</title>
<path fill="none" stroke="midnightblue" d="M2900.3,-184.14C2875.07,-180.443 2843.87,-176.341 2815.8,-174 2331,-133.565 2202.82,-210.737 1721.8,-138 1720.46,-137.797 1580,-99.2557 1509.39,-79.8709"/>
<polygon fill="midnightblue" stroke="midnightblue" points="1510.08,-76.4292 1499.51,-77.1567 1508.22,-83.1794 1510.08,-76.4292"/>
</g>
<!-- Node14&#45;&gt;Node15 -->
<g id="edge30" class="edge"><title>Node14&#45;&gt;Node15</title>
<path fill="none" stroke="midnightblue" d="M2914.96,-181.452C2905.84,-178.854 2895.99,-176.191 2886.8,-174 2804.48,-154.355 2782.26,-157.106 2699.8,-138 2663.46,-129.579 2655.57,-122.339 2618.8,-116 2411.91,-80.3269 2356.08,-106.37 2147.8,-80 2138.01,-78.7597 2127.41,-77.0252 2117.79,-75.2996"/>
<polygon fill="midnightblue" stroke="midnightblue" points="2118.29,-71.8331 2107.82,-73.4545 2117.01,-78.7162 2118.29,-71.8331"/>
</g>
<!-- Node17&#45;&gt;Node18 -->
<g id="edge40" class="edge"><title>Node17&#45;&gt;Node18</title>
<path fill="none" stroke="midnightblue" d="M2579.11,-181.267C2565.11,-171.044 2543.83,-155.504 2527.63,-143.67"/>
<polygon fill="midnightblue" stroke="midnightblue" points="2529.37,-140.605 2519.23,-137.534 2525.24,-146.258 2529.37,-140.605"/>
</g>
<!-- Node17&#45;&gt;Node19 -->
<g id="edge42" class="edge"><title>Node17&#45;&gt;Node19</title>
<path fill="none" stroke="midnightblue" d="M2588.68,-181.267C2584.22,-171.896 2577.62,-158.057 2572.2,-146.7"/>
<polygon fill="midnightblue" stroke="midnightblue" points="2575.29,-145.053 2567.83,-137.534 2568.97,-148.066 2575.29,-145.053"/>
</g>
<!-- Node20&#45;&gt;Node6 -->
<g id="edge48" class="edge"><title>Node20&#45;&gt;Node6</title>
<path fill="none" stroke="midnightblue" d="M2014.51,-182.63C1999.97,-179.405 1983.2,-176.084 1967.8,-174 1705.27,-138.46 1628.69,-206.63 1372.8,-138 1330.45,-126.641 1285.84,-101.595 1259.17,-85.0112"/>
<polygon fill="midnightblue" stroke="midnightblue" points="1260.84,-81.9265 1250.52,-79.5345 1257.1,-87.8408 1260.84,-81.9265"/>
</g>
<!-- Node20&#45;&gt;Node11 -->
<g id="edge52" class="edge"><title>Node20&#45;&gt;Node11</title>
<path fill="none" stroke="midnightblue" d="M2014.42,-183.189C1999.87,-180.028 1983.12,-176.606 1967.8,-174 1844.55,-153.032 1810.91,-164.891 1688.8,-138 1623.79,-123.682 1550.41,-98.6836 1507.24,-83.0308"/>
<polygon fill="midnightblue" stroke="midnightblue" points="1508.31,-79.697 1497.72,-79.5526 1505.91,-86.2719 1508.31,-79.697"/>
</g>
<!-- Node20&#45;&gt;Node18 -->
<g id="edge50" class="edge"><title>Node20&#45;&gt;Node18</title>
<path fill="none" stroke="midnightblue" d="M2091.16,-183.022C2105.7,-179.842 2122.46,-176.45 2137.8,-174 2281.08,-151.122 2322.67,-167.618 2468.37,-137.969"/>
<polygon fill="midnightblue" stroke="midnightblue" points="2469.5,-141.309 2478.58,-135.851 2468.07,-134.455 2469.5,-141.309"/>
</g>
<!-- Node21 -->
<g id="node44" class="node"><title>Node21</title>
<polygon fill="white" stroke="#bfbfbf" points="3174.8,-116.5 3174.8,-137.5 3230.8,-137.5 3230.8,-116.5 3174.8,-116.5"/>
<text text-anchor="middle" x="3202.8" y="-124.5" font-family="Helvetica,sans-Serif" font-size="10.00">Rtypes.h</text>
</g>
<!-- Node20&#45;&gt;Node21 -->
<g id="edge46" class="edge"><title>Node20&#45;&gt;Node21</title>
<path fill="none" stroke="midnightblue" d="M2091.08,-182.456C2105.62,-179.211 2122.39,-175.922 2137.8,-174 2541.22,-123.709 2645.9,-160.772 3051.8,-138 3090.19,-135.847 3134,-132.563 3164.51,-130.144"/>
<polygon fill="midnightblue" stroke="midnightblue" points="3165.02,-133.614 3174.71,-129.328 3164.47,-126.636 3165.02,-133.614"/>
</g>
<!-- Node22&#45;&gt;Node6 -->
<g id="edge56" class="edge"><title>Node22&#45;&gt;Node6</title>
<path fill="none" stroke="midnightblue" d="M1238.67,-420.408C1104.8,-388.942 719.586,-293.044 622.804,-210 588.73,-180.763 555.224,-148.874 585.804,-116 606.566,-93.6796 1053.81,-75.5817 1193.5,-70.4569"/>
<polygon fill="midnightblue" stroke="midnightblue" points="1193.91,-73.9443 1203.78,-70.0829 1193.66,-66.9489 1193.91,-73.9443"/>
</g>
<!-- Node23 -->
<g id="node52" class="node"><title>Node23</title>
<a xlink:href="_t_i_d_8h.html" target="_top" xlink:title="TID.h">
<polygon fill="white" stroke="black" points="330.304,-246.5 330.304,-267.5 371.304,-267.5 371.304,-246.5 330.304,-246.5"/>
<text text-anchor="middle" x="350.804" y="-254.5" font-family="Helvetica,sans-Serif" font-size="10.00">TID.h</text>
</a>
</g>
<!-- Node22&#45;&gt;Node23 -->
<g id="edge58" class="edge"><title>Node22&#45;&gt;Node23</title>
<path fill="none" stroke="midnightblue" d="M1236.08,-423.292C1179.81,-414.295 1084.49,-398.761 1002.8,-384 762.677,-340.611 474.071,-282.185 381.175,-263.221"/>
<polygon fill="midnightblue" stroke="midnightblue" points="381.818,-259.781 371.32,-261.208 380.417,-266.639 381.818,-259.781"/>
</g>
<!-- Node32 -->
<g id="node79" class="node"><title>Node32</title>
<a xlink:href="_t_detector_read_hit_8h.html" target="_top" xlink:title="TDetectorReadHit.h">
<polygon fill="white" stroke="black" points="1158.8,-246.5 1158.8,-267.5 1262.8,-267.5 1262.8,-246.5 1158.8,-246.5"/>
<text text-anchor="middle" x="1210.8" y="-254.5" font-family="Helvetica,sans-Serif" font-size="10.00">TDetectorReadHit.h</text>
</a>
</g>
<!-- Node22&#45;&gt;Node32 -->
<g id="edge94" class="edge"><title>Node22&#45;&gt;Node32</title>
<path fill="none" stroke="midnightblue" d="M1280.29,-420.377C1268.24,-392.051 1235.19,-314.349 1219.41,-277.242"/>
<polygon fill="midnightblue" stroke="midnightblue" points="1222.59,-275.76 1215.45,-267.928 1216.14,-278.5 1222.59,-275.76"/>
</g>
<!-- Node38 -->
<g id="node106" class="node"><title>Node38</title>
<a xlink:href="_t_slow_control_8h.html" target="_top" xlink:title="TSlowControl.h">
<polygon fill="white" stroke="black" points="159.804,-304.5 159.804,-325.5 243.804,-325.5 243.804,-304.5 159.804,-304.5"/>
<text text-anchor="middle" x="201.804" y="-312.5" font-family="Helvetica,sans-Serif" font-size="10.00">TSlowControl.h</text>
</a>
</g>
<!-- Node22&#45;&gt;Node38 -->
<g id="edge136" class="edge"><title>Node22&#45;&gt;Node38</title>
<path fill="none" stroke="midnightblue" d="M1236.17,-425.79C1057.52,-406.655 438.403,-340.342 254.014,-320.592"/>
<polygon fill="midnightblue" stroke="midnightblue" points="254.344,-317.108 244.028,-319.523 253.599,-324.068 254.344,-317.108"/>
</g>
<!-- Node39 -->
<g id="node113" class="node"><title>Node39</title>
<a xlink:href="_t_unpacker_message_8h.html" target="_top" xlink:title="TUnpackerMessage.h">
<polygon fill="white" stroke="black" points="952.304,-246.5 952.304,-267.5 1065.3,-267.5 1065.3,-246.5 952.304,-246.5"/>
<text text-anchor="middle" x="1008.8" y="-254.5" font-family="Helvetica,sans-Serif" font-size="10.00">TUnpackerMessage.h</text>
</a>
</g>
<!-- Node22&#45;&gt;Node39 -->
<g id="edge148" class="edge"><title>Node22&#45;&gt;Node39</title>
<path fill="none" stroke="midnightblue" d="M1267.13,-420.389C1251.31,-410.883 1227.49,-396.545 1206.8,-384 1164.51,-358.345 1153.47,-352.661 1111.8,-326 1084.48,-308.519 1053.63,-287.708 1032.88,-273.546"/>
<polygon fill="midnightblue" stroke="midnightblue" points="1034.6,-270.484 1024.37,-267.728 1030.65,-276.262 1034.6,-270.484"/>
</g>
<!-- Node47 -->
<g id="node137" class="node"><title>Node47</title>
<a xlink:href="_t_tagger_hit_8h.html" target="_top" xlink:title="TTaggerHit.h">
<polygon fill="white" stroke="black" points="1120.8,-304.5 1120.8,-325.5 1194.8,-325.5 1194.8,-304.5 1120.8,-304.5"/>
<text text-anchor="middle" x="1157.8" y="-312.5" font-family="Helvetica,sans-Serif" font-size="10.00">TTaggerHit.h</text>
</a>
</g>
<!-- Node22&#45;&gt;Node47 -->
<g id="edge180" class="edge"><title>Node22&#45;&gt;Node47</title>
<path fill="none" stroke="midnightblue" d="M1273.08,-420.295C1251.16,-400.268 1203.75,-356.964 1177.06,-332.589"/>
<polygon fill="midnightblue" stroke="midnightblue" points="1179.24,-329.839 1169.5,-325.679 1174.52,-335.008 1179.24,-329.839"/>
</g>
<!-- Node49 -->
<g id="node147" class="node"><title>Node49</title>
<a xlink:href="_t_trigger_8h.html" target="_top" xlink:title="TTrigger.h">
<polygon fill="white" stroke="black" points="2746.3,-181.5 2746.3,-202.5 2807.3,-202.5 2807.3,-181.5 2746.3,-181.5"/>
<text text-anchor="middle" x="2776.8" y="-189.5" font-family="Helvetica,sans-Serif" font-size="10.00">TTrigger.h</text>
</a>
</g>
<!-- Node22&#45;&gt;Node49 -->
<g id="edge196" class="edge"><title>Node22&#45;&gt;Node49</title>
<path fill="none" stroke="midnightblue" d="M1333.4,-429.552C1497.2,-424.505 2028.31,-406.755 2197.8,-384 2317.3,-367.958 2346.45,-357.604 2462.8,-326 2543.1,-304.189 2564.57,-301.341 2640.8,-268 2680.93,-250.452 2724.7,-224.7 2751.45,-208.141"/>
<polygon fill="midnightblue" stroke="midnightblue" points="2753.55,-210.961 2760.17,-202.696 2749.84,-205.024 2753.55,-210.961"/>
</g>
<!-- Node50 -->
<g id="node154" class="node"><title>Node50</title>
<a xlink:href="_t_target_8h.html" target="_top" xlink:title="TTarget.h">
<polygon fill="white" stroke="black" points="2382.3,-181.5 2382.3,-202.5 2441.3,-202.5 2441.3,-181.5 2382.3,-181.5"/>
<text text-anchor="middle" x="2411.8" y="-189.5" font-family="Helvetica,sans-Serif" font-size="10.00">TTarget.h</text>
</a>
</g>
<!-- Node22&#45;&gt;Node50 -->
<g id="edge208" class="edge"><title>Node22&#45;&gt;Node50</title>
<path fill="none" stroke="midnightblue" d="M1333.55,-430.055C1506.17,-426.481 2082.26,-412.516 2159.8,-384 2263.15,-345.996 2358.98,-250.005 2395.84,-209.969"/>
<polygon fill="midnightblue" stroke="midnightblue" points="2398.47,-212.283 2402.6,-202.528 2393.29,-207.575 2398.47,-212.283"/>
</g>
<!-- Node51 -->
<g id="node162" class="node"><title>Node51</title>
<a xlink:href="_t_cluster_8h.html" target="_top" xlink:title="TCluster.h">
<polygon fill="white" stroke="black" points="1473.8,-246.5 1473.8,-267.5 1535.8,-267.5 1535.8,-246.5 1473.8,-246.5"/>
<text text-anchor="middle" x="1504.8" y="-254.5" font-family="Helvetica,sans-Serif" font-size="10.00">TCluster.h</text>
</a>
</g>
<!-- Node22&#45;&gt;Node51 -->
<g id="edge222" class="edge"><title>Node22&#45;&gt;Node51</title>
<path fill="none" stroke="midnightblue" d="M1325.48,-420.485C1371.25,-406.54 1444.58,-377.474 1485.8,-326 1496.82,-312.243 1501.46,-292.548 1503.41,-277.718"/>
<polygon fill="midnightblue" stroke="midnightblue" points="1506.92,-277.805 1504.44,-267.505 1499.95,-277.105 1506.92,-277.805"/>
</g>
<!-- Node54 -->
<g id="node179" class="node"><title>Node54</title>
<a xlink:href="_t_candidate_8h.html" target="_top" xlink:title="TCandidate.h">
<polygon fill="white" stroke="black" points="1402.3,-304.5 1402.3,-325.5 1477.3,-325.5 1477.3,-304.5 1402.3,-304.5"/>
<text text-anchor="middle" x="1439.8" y="-312.5" font-family="Helvetica,sans-Serif" font-size="10.00">TCandidate.h</text>
</a>
</g>
<!-- Node22&#45;&gt;Node54 -->
<g id="edge250" class="edge"><title>Node22&#45;&gt;Node54</title>
<path fill="none" stroke="midnightblue" d="M1299.11,-420.295C1326.1,-400.096 1384.73,-356.216 1417.14,-331.963"/>
<polygon fill="midnightblue" stroke="midnightblue" points="1419.62,-334.473 1425.53,-325.679 1415.43,-328.869 1419.62,-334.473"/>
</g>
<!-- Node55 -->
<g id="node188" class="node"><title>Node55</title>
<a xlink:href="_t_particle_8h.html" target="_top" xlink:title="TParticle.h">
<polygon fill="white" stroke="black" points="2086.8,-362.5 2086.8,-383.5 2150.8,-383.5 2150.8,-362.5 2086.8,-362.5"/>
<text text-anchor="middle" x="2118.8" y="-370.5" font-family="Helvetica,sans-Serif" font-size="10.00">TParticle.h</text>
</a>
</g>
<!-- Node22&#45;&gt;Node55 -->
<g id="edge266" class="edge"><title>Node22&#45;&gt;Node55</title>
<path fill="none" stroke="midnightblue" d="M1333.55,-427.61C1483.3,-417.196 1934.99,-385.783 2076.16,-375.965"/>
<polygon fill="midnightblue" stroke="midnightblue" points="2076.82,-379.428 2086.55,-375.243 2076.34,-372.445 2076.82,-379.428"/>
</g>
<!-- Node23&#45;&gt;Node6 -->
<g id="edge62" class="edge"><title>Node23&#45;&gt;Node6</title>
<path fill="none" stroke="midnightblue" d="M351.843,-246.164C355.104,-218.872 367.771,-147.261 412.804,-116 445.155,-93.5419 1031.13,-74.9153 1193.44,-70.1704"/>
<polygon fill="midnightblue" stroke="midnightblue" points="1193.61,-73.6669 1203.5,-69.878 1193.41,-66.6699 1193.61,-73.6669"/>
</g>
<!-- Node23&#45;&gt;Node7 -->
<g id="edge80" class="edge"><title>Node23&#45;&gt;Node7</title>
<path fill="none" stroke="midnightblue" d="M329.867,-255.367C261.883,-249.872 50.4412,-231.205 28.8037,-210 -1.27684,-180.521 -10.1736,-148.343 16.8037,-116 81.8173,-38.056 828.756,-16.1072 1013.62,-11.852"/>
<polygon fill="midnightblue" stroke="midnightblue" points="1013.82,-15.3484 1023.74,-11.6239 1013.66,-8.35022 1013.82,-15.3484"/>
</g>
<!-- Node23&#45;&gt;Node11 -->
<g id="edge86" class="edge"><title>Node23&#45;&gt;Node11</title>
<path fill="none" stroke="midnightblue" d="M363.964,-246.449C399.258,-218.865 499.979,-144.758 597.804,-116 742.344,-73.509 1124.37,-88.2426 1274.8,-80 1328.57,-77.0539 1390.67,-73.5299 1430.08,-71.2787"/>
<polygon fill="midnightblue" stroke="midnightblue" points="1430.29,-74.7723 1440.07,-70.707 1429.89,-67.7837 1430.29,-74.7723"/>
</g>
<!-- Node23&#45;&gt;Node19 -->
<g id="edge88" class="edge"><title>Node23&#45;&gt;Node19</title>
<path fill="none" stroke="midnightblue" d="M371.311,-256.626C586.528,-252.69 2423.82,-218.842 2449.8,-210 2488.63,-196.791 2525.29,-165.02 2545.82,-144.839"/>
<polygon fill="midnightblue" stroke="midnightblue" points="2548.31,-147.299 2552.87,-137.735 2543.35,-142.368 2548.31,-147.299"/>
</g>
<!-- Node23&#45;&gt;Node21 -->
<g id="edge60" class="edge"><title>Node23&#45;&gt;Node21</title>
<path fill="none" stroke="midnightblue" d="M371.549,-256.597C447.779,-255.122 719.622,-249.894 943.804,-246 1005.58,-244.927 3116.6,-244.578 3167.8,-210 3188.38,-196.108 3196.89,-167.534 3200.39,-147.825"/>
<polygon fill="midnightblue" stroke="midnightblue" points="3203.89,-148.086 3201.9,-137.681 3196.97,-147.059 3203.89,-148.086"/>
</g>
<!-- Node24 -->
<g id="node56" class="node"><title>Node24</title>
<a xlink:href="time_8h.html" target="_top" xlink:title="base/std_ext/time.h">
<polygon fill="white" stroke="black" points="50.3037,-181.5 50.3037,-202.5 153.304,-202.5 153.304,-181.5 50.3037,-181.5"/>
<text text-anchor="middle" x="101.804" y="-189.5" font-family="Helvetica,sans-Serif" font-size="10.00">base/std_ext/time.h</text>
</a>
</g>
<!-- Node23&#45;&gt;Node24 -->
<g id="edge64" class="edge"><title>Node23&#45;&gt;Node24</title>
<path fill="none" stroke="midnightblue" d="M330.002,-251.57C291.16,-241.43 206.605,-219.358 152.041,-205.114"/>
<polygon fill="midnightblue" stroke="midnightblue" points="152.78,-201.69 142.22,-202.55 151.011,-208.463 152.78,-201.69"/>
</g>
<!-- Node28 -->
<g id="node67" class="node"><title>Node28</title>
<polygon fill="white" stroke="#bfbfbf" points="25.3037,-116.5 25.3037,-137.5 66.3037,-137.5 66.3037,-116.5 25.3037,-116.5"/>
<text text-anchor="middle" x="45.8037" y="-124.5" font-family="Helvetica,sans-Serif" font-size="10.00">ctime</text>
</g>
<!-- Node23&#45;&gt;Node28 -->
<g id="edge92" class="edge"><title>Node23&#45;&gt;Node28</title>
<path fill="none" stroke="midnightblue" d="M330.109,-255.398C263.939,-250.068 60.7251,-232.017 41.8037,-210 27.1154,-192.909 31.8421,-165.771 37.7587,-147.212"/>
<polygon fill="midnightblue" stroke="midnightblue" points="41.1028,-148.254 41.1471,-137.659 34.5055,-145.913 41.1028,-148.254"/>
</g>
<!-- Node29 -->
<g id="node70" class="node"><title>Node29</title>
<polygon fill="white" stroke="#bfbfbf" points="208.804,-181.5 208.804,-202.5 246.804,-202.5 246.804,-181.5 208.804,-181.5"/>
<text text-anchor="middle" x="227.804" y="-189.5" font-family="Helvetica,sans-Serif" font-size="10.00">tuple</text>
</g>
<!-- Node23&#45;&gt;Node29 -->
<g id="edge82" class="edge"><title>Node23&#45;&gt;Node29</title>
<path fill="none" stroke="midnightblue" d="M330.374,-246.465C312.096,-237.008 284.596,-222.7 260.804,-210 259.26,-209.176 257.678,-208.327 256.082,-207.468"/>
<polygon fill="midnightblue" stroke="midnightblue" points="257.426,-204.216 246.967,-202.529 254.092,-210.37 257.426,-204.216"/>
</g>
<!-- Node30 -->
<g id="node72" class="node"><title>Node30</title>
<polygon fill="white" stroke="#bfbfbf" points="200.804,-116.5 200.804,-137.5 246.804,-137.5 246.804,-116.5 200.804,-116.5"/>
<text text-anchor="middle" x="223.804" y="-124.5" font-family="Helvetica,sans-Serif" font-size="10.00">cstdint</text>
</g>
<!-- Node23&#45;&gt;Node30 -->
<g id="edge84" class="edge"><title>Node23&#45;&gt;Node30</title>
<path fill="none" stroke="midnightblue" d="M338.079,-246.138C327.344,-236.826 311.71,-222.908 298.804,-210 277.326,-188.52 254.097,-162.305 239.273,-145.159"/>
<polygon fill="midnightblue" stroke="midnightblue" points="241.889,-142.832 232.716,-137.531 236.581,-147.396 241.889,-142.832"/>
</g>
<!-- Node31 -->
<g id="node76" class="node"><title>Node31</title>
<polygon fill="white" stroke="#bfbfbf" points="1185.8,-181.5 1185.8,-202.5 1235.8,-202.5 1235.8,-181.5 1185.8,-181.5"/>
<text text-anchor="middle" x="1210.8" y="-189.5" font-family="Helvetica,sans-Serif" font-size="10.00">iomanip</text>
</g>
<!-- Node23&#45;&gt;Node31 -->
<g id="edge90" class="edge"><title>Node23&#45;&gt;Node31</title>
<path fill="none" stroke="midnightblue" d="M371.463,-255.534C451.127,-249.868 746.021,-228.785 988.804,-210 1054.69,-204.902 1131.55,-198.588 1175.37,-194.954"/>
<polygon fill="midnightblue" stroke="midnightblue" points="1175.83,-198.428 1185.51,-194.112 1175.25,-191.452 1175.83,-198.428"/>
</g>
<!-- Node24&#45;&gt;Node25 -->
<g id="edge66" class="edge"><title>Node24&#45;&gt;Node25</title>
<path fill="none" stroke="midnightblue" d="M151.201,-181.478C166.691,-178.569 183.897,-175.737 199.804,-174 230.989,-170.594 1182.9,-138.024 1442.15,-129.197"/>
<polygon fill="midnightblue" stroke="midnightblue" points="1442.66,-132.682 1452.53,-128.844 1442.42,-125.686 1442.66,-132.682"/>
</g>
<!-- Node27 -->
<g id="node65" class="node"><title>Node27</title>
<polygon fill="white" stroke="#bfbfbf" points="107.804,-116.5 107.804,-137.5 153.804,-137.5 153.804,-116.5 107.804,-116.5"/>
<text text-anchor="middle" x="130.804" y="-124.5" font-family="Helvetica,sans-Serif" font-size="10.00">cstring</text>
</g>
<!-- Node24&#45;&gt;Node27 -->
<g id="edge76" class="edge"><title>Node24&#45;&gt;Node27</title>
<path fill="none" stroke="midnightblue" d="M106.592,-181.267C110.773,-171.896 116.947,-158.057 122.014,-146.7"/>
<polygon fill="midnightblue" stroke="midnightblue" points="125.226,-148.092 126.104,-137.534 118.833,-145.24 125.226,-148.092"/>
</g>
<!-- Node24&#45;&gt;Node28 -->
<g id="edge78" class="edge"><title>Node24&#45;&gt;Node28</title>
<path fill="none" stroke="midnightblue" d="M92.5564,-181.267C84.157,-171.517 71.591,-156.932 61.6012,-145.336"/>
<polygon fill="midnightblue" stroke="midnightblue" points="64.0576,-142.825 54.8789,-137.534 58.7543,-147.394 64.0576,-142.825"/>
</g>
<!-- Node25&#45;&gt;Node10 -->
<g id="edge72" class="edge"><title>Node25&#45;&gt;Node10</title>
<path fill="none" stroke="midnightblue" d="M1561.14,-119.238C1644.55,-107.322 1802.08,-84.8177 1874.56,-74.464"/>
<polygon fill="midnightblue" stroke="midnightblue" points="1875.21,-77.9064 1884.61,-73.0273 1874.22,-70.9768 1875.21,-77.9064"/>
</g>
<!-- Node25&#45;&gt;Node15 -->
<g id="edge74" class="edge"><title>Node25&#45;&gt;Node15</title>
<path fill="none" stroke="midnightblue" d="M1561.01,-121.57C1679.58,-109.693 1958.89,-81.7129 2053.68,-72.2175"/>
<polygon fill="midnightblue" stroke="midnightblue" points="2054.2,-75.6834 2063.8,-71.204 2053.5,-68.7183 2054.2,-75.6834"/>
</g>
<!-- Node25&#45;&gt;Node16 -->
<g id="edge68" class="edge"><title>Node25&#45;&gt;Node16</title>
<path fill="none" stroke="midnightblue" d="M1561.13,-123.901C1604.59,-121.499 1667.09,-118.217 1721.8,-116 2256.71,-94.3217 2390.75,-97.7757 2925.8,-80 3024.53,-76.72 3141.45,-72.291 3195.96,-70.1948"/>
<polygon fill="midnightblue" stroke="midnightblue" points="3196.15,-73.6903 3206,-69.8077 3195.88,-66.6955 3196.15,-73.6903"/>
</g>
<!-- Node26 -->
<g id="node61" class="node"><title>Node26</title>
<polygon fill="white" stroke="#bfbfbf" points="343.804,-58.5 343.804,-79.5 395.804,-79.5 395.804,-58.5 343.804,-58.5"/>
<text text-anchor="middle" x="369.804" y="-66.5" font-family="Helvetica,sans-Serif" font-size="10.00">sstream</text>
</g>
<!-- Node25&#45;&gt;Node26 -->
<g id="edge70" class="edge"><title>Node25&#45;&gt;Node26</title>
<path fill="none" stroke="midnightblue" d="M1452.73,-124.242C1254.73,-114.141 572.211,-79.3251 406.344,-70.864"/>
<polygon fill="midnightblue" stroke="midnightblue" points="406.342,-67.3594 396.177,-70.3453 405.985,-74.3503 406.342,-67.3594"/>
</g>
<!-- Node32&#45;&gt;Node26 -->
<g id="edge134" class="edge"><title>Node32&#45;&gt;Node26</title>
<path fill="none" stroke="midnightblue" d="M1158.78,-252.593C1133.19,-250.484 1101.89,-247.992 1073.8,-246 943.884,-236.788 612.746,-250.029 488.804,-210 431.778,-191.583 405.609,-189.402 374.804,-138 366.144,-123.551 365.472,-104.224 366.635,-89.7009"/>
<polygon fill="midnightblue" stroke="midnightblue" points="370.121,-90.0243 367.78,-79.6914 363.166,-89.2289 370.121,-90.0243"/>
</g>
<!-- Node32&#45;&gt;Node31 -->
<g id="edge132" class="edge"><title>Node32&#45;&gt;Node31</title>
<path fill="none" stroke="midnightblue" d="M1210.8,-246.267C1210.8,-237.18 1210.8,-223.892 1210.8,-212.74"/>
<polygon fill="midnightblue" stroke="midnightblue" points="1214.3,-212.534 1210.8,-202.534 1207.3,-212.534 1214.3,-212.534"/>
</g>
<!-- Node33 -->
<g id="node81" class="node"><title>Node33</title>
<a xlink:href="_detector__t_8h.html" target="_top" xlink:title="base/Detector_t.h">
<polygon fill="white" stroke="black" points="1320.3,-181.5 1320.3,-202.5 1415.3,-202.5 1415.3,-181.5 1320.3,-181.5"/>
<text text-anchor="middle" x="1367.8" y="-189.5" font-family="Helvetica,sans-Serif" font-size="10.00">base/Detector_t.h</text>
</a>
</g>
<!-- Node32&#45;&gt;Node33 -->
<g id="edge96" class="edge"><title>Node32&#45;&gt;Node33</title>
<path fill="none" stroke="midnightblue" d="M1236.38,-246.412C1262.61,-235.552 1303.59,-218.583 1332.82,-206.484"/>
<polygon fill="midnightblue" stroke="midnightblue" points="1334.34,-209.643 1342.24,-202.584 1331.66,-203.175 1334.34,-209.643"/>
</g>
<!-- Node33&#45;&gt;Node6 -->
<g id="edge98" class="edge"><title>Node33&#45;&gt;Node6</title>
<path fill="none" stroke="midnightblue" d="M1352.18,-181.41C1337.34,-171.053 1314.68,-154.475 1296.8,-138 1279.58,-122.127 1261.91,-102.017 1249.87,-87.608"/>
<polygon fill="midnightblue" stroke="midnightblue" points="1252.53,-85.3427 1243.47,-79.8584 1247.14,-89.7987 1252.53,-85.3427"/>
</g>
<!-- Node33&#45;&gt;Node7 -->
<g id="edge128" class="edge"><title>Node33&#45;&gt;Node7</title>
<path fill="none" stroke="midnightblue" d="M1320.03,-184.323C1250.5,-172.791 1127.89,-150.97 1111.8,-138 1078.42,-111.088 1063.93,-60.4665 1058.18,-31.9338"/>
<polygon fill="midnightblue" stroke="midnightblue" points="1061.58,-31.0503 1056.33,-21.846 1054.69,-32.3134 1061.58,-31.0503"/>
</g>
<!-- Node33&#45;&gt;Node11 -->
<g id="edge124" class="edge"><title>Node33&#45;&gt;Node11</title>
<path fill="none" stroke="midnightblue" d="M1372.24,-181.37C1379.03,-165.897 1393.09,-136.756 1410.8,-116 1420.69,-104.411 1433.78,-93.648 1445.12,-85.3541"/>
<polygon fill="midnightblue" stroke="midnightblue" points="1447.22,-88.1536 1453.36,-79.5202 1443.18,-82.4396 1447.22,-88.1536"/>
</g>
<!-- Node33&#45;&gt;Node15 -->
<g id="edge130" class="edge"><title>Node33&#45;&gt;Node15</title>
<path fill="none" stroke="midnightblue" d="M1415.51,-186.548C1446.86,-182.969 1488.77,-178.193 1525.8,-174 1668.01,-157.9 1708.76,-179.264 1845.8,-138 1866.36,-131.811 1868.66,-123.433 1888.8,-116 1945.28,-95.1579 2014.32,-81.1724 2053.87,-74.194"/>
<polygon fill="midnightblue" stroke="midnightblue" points="2054.47,-77.6412 2063.73,-72.4911 2053.28,-70.7432 2054.47,-77.6412"/>
</g>
<!-- Node33&#45;&gt;Node16 -->
<g id="edge126" class="edge"><title>Node33&#45;&gt;Node16</title>
<path fill="none" stroke="midnightblue" d="M1415.64,-190.307C1506.48,-187.094 1710.24,-179.909 1881.8,-174 1999.91,-169.932 2830.4,-167.625 2944.8,-138 2965.59,-132.619 2967.52,-123.028 2987.8,-116 3060.27,-90.8897 3150.02,-77.7683 3196.19,-72.252"/>
<polygon fill="midnightblue" stroke="midnightblue" points="3196.62,-75.7251 3206.16,-71.0992 3195.82,-68.7714 3196.62,-75.7251"/>
</g>
<!-- Node33&#45;&gt;Node30 -->
<g id="edge122" class="edge"><title>Node33&#45;&gt;Node30</title>
<path fill="none" stroke="midnightblue" d="M1320.04,-183.883C1297.31,-180.311 1269.72,-176.391 1244.8,-174 1046.44,-154.967 410.194,-133.152 257.145,-128.088"/>
<polygon fill="midnightblue" stroke="midnightblue" points="257.083,-124.584 246.973,-127.753 256.853,-131.581 257.083,-124.584"/>
</g>
<!-- Node34 -->
<g id="node84" class="node"><title>Node34</title>
<a xlink:href="vec3_8h.html" target="_top" xlink:title="base/vec/vec3.h">
<polygon fill="white" stroke="black" points="2372.3,-116.5 2372.3,-137.5 2461.3,-137.5 2461.3,-116.5 2372.3,-116.5"/>
<text text-anchor="middle" x="2416.8" y="-124.5" font-family="Helvetica,sans-Serif" font-size="10.00">base/vec/vec3.h</text>
</a>
</g>
<!-- Node33&#45;&gt;Node34 -->
<g id="edge100" class="edge"><title>Node33&#45;&gt;Node34</title>
<path fill="none" stroke="midnightblue" d="M1415.6,-189.038C1588.21,-178.343 2178.75,-141.751 2362.07,-130.392"/>
<polygon fill="midnightblue" stroke="midnightblue" points="2362.52,-133.871 2372.28,-129.759 2362.08,-126.884 2362.52,-133.871"/>
</g>
<!-- Node37 -->
<g id="node92" class="node"><title>Node37</title>
<a xlink:href="math_8h.html" target="_top" xlink:title="base/std_ext/math.h">
<polygon fill="white" stroke="black" points="1730.8,-116.5 1730.8,-137.5 1836.8,-137.5 1836.8,-116.5 1730.8,-116.5"/>
<text text-anchor="middle" x="1783.8" y="-124.5" font-family="Helvetica,sans-Serif" font-size="10.00">base/std_ext/math.h</text>
</a>
</g>
<!-- Node33&#45;&gt;Node37 -->
<g id="edge110" class="edge"><title>Node33&#45;&gt;Node37</title>
<path fill="none" stroke="midnightblue" d="M1415.52,-184.544C1490.79,-172.784 1637.1,-149.923 1720.87,-136.833"/>
<polygon fill="midnightblue" stroke="midnightblue" points="1721.43,-140.289 1730.77,-135.287 1720.35,-133.373 1721.43,-140.289"/>
</g>
<!-- Node34&#45;&gt;Node6 -->
<g id="edge102" class="edge"><title>Node34&#45;&gt;Node6</title>
<path fill="none" stroke="midnightblue" d="M2372.02,-124.5C2330.49,-122.205 2266.98,-118.754 2211.8,-116 1865.2,-98.7025 1778.39,-97.674 1431.8,-80 1377.95,-77.2536 1315.83,-73.725 1275.98,-71.415"/>
<polygon fill="midnightblue" stroke="midnightblue" points="1276.03,-67.9125 1265.85,-70.8263 1275.63,-74.9008 1276.03,-67.9125"/>
</g>
<!-- Node35 -->
<g id="node87" class="node"><title>Node35</title>
<a xlink:href="vec2_8h.html" target="_top" xlink:title="vec2.h">
<polygon fill="white" stroke="black" points="2156.8,-58.5 2156.8,-79.5 2202.8,-79.5 2202.8,-58.5 2156.8,-58.5"/>
<text text-anchor="middle" x="2179.8" y="-66.5" font-family="Helvetica,sans-Serif" font-size="10.00">vec2.h</text>
</a>
</g>
<!-- Node34&#45;&gt;Node35 -->
<g id="edge104" class="edge"><title>Node34&#45;&gt;Node35</title>
<path fill="none" stroke="midnightblue" d="M2373.88,-116.497C2327.55,-105.157 2254.75,-87.3424 2212.73,-77.0577"/>
<polygon fill="midnightblue" stroke="midnightblue" points="2213.54,-73.6527 2202.99,-74.6752 2211.87,-80.452 2213.54,-73.6527"/>
</g>
<!-- Node36 -->
<g id="node89" class="node"><title>Node36</title>
<polygon fill="white" stroke="#bfbfbf" points="1761.8,-0.5 1761.8,-21.5 1805.8,-21.5 1805.8,-0.5 1761.8,-0.5"/>
<text text-anchor="middle" x="1783.8" y="-8.5" font-family="Helvetica,sans-Serif" font-size="10.00">cmath</text>
</g>
<!-- Node34&#45;&gt;Node36 -->
<g id="edge108" class="edge"><title>Node34&#45;&gt;Node36</title>
<path fill="none" stroke="midnightblue" d="M2391.42,-116.472C2353.17,-101.068 2278.18,-72.6355 2211.8,-58 2066.34,-25.9254 1888.01,-15.3069 1816.11,-12.1759"/>
<polygon fill="midnightblue" stroke="midnightblue" points="1816.04,-8.66984 1805.9,-11.751 1815.75,-15.6638 1816.04,-8.66984"/>
</g>
<!-- Node35&#45;&gt;Node36 -->
<g id="edge106" class="edge"><title>Node35&#45;&gt;Node36</title>
<path fill="none" stroke="midnightblue" d="M2156.79,-64.7966C2144.87,-62.6664 2130.07,-60.0944 2116.8,-58 2006.63,-40.6119 1875.46,-23.0031 1815.97,-15.1852"/>
<polygon fill="midnightblue" stroke="midnightblue" points="1816.42,-11.7145 1806.05,-13.8851 1815.51,-18.6551 1816.42,-11.7145"/>
</g>
<!-- Node37&#45;&gt;Node10 -->
<g id="edge118" class="edge"><title>Node37&#45;&gt;Node10</title>
<path fill="none" stroke="midnightblue" d="M1807.16,-116.497C1827.49,-107.356 1857.18,-94.0082 1879.91,-83.7883"/>
<polygon fill="midnightblue" stroke="midnightblue" points="1881.5,-86.9142 1889.18,-79.6212 1878.62,-80.5298 1881.5,-86.9142"/>
</g>
<!-- Node37&#45;&gt;Node11 -->
<g id="edge120" class="edge"><title>Node37&#45;&gt;Node11</title>
<path fill="none" stroke="midnightblue" d="M1730.54,-117.161C1667.94,-105.599 1565.53,-86.6826 1509.5,-76.333"/>
<polygon fill="midnightblue" stroke="midnightblue" points="1510.07,-72.8786 1499.6,-74.5039 1508.8,-79.7621 1510.07,-72.8786"/>
</g>
<!-- Node37&#45;&gt;Node12 -->
<g id="edge114" class="edge"><title>Node37&#45;&gt;Node12</title>
<path fill="none" stroke="midnightblue" d="M1837.02,-122.641C1977.07,-111.167 2352.6,-80.4036 2461.7,-71.4664"/>
<polygon fill="midnightblue" stroke="midnightblue" points="2462.01,-74.9526 2471.69,-70.6477 2461.44,-67.9759 2462.01,-74.9526"/>
</g>
<!-- Node37&#45;&gt;Node15 -->
<g id="edge116" class="edge"><title>Node37&#45;&gt;Node15</title>
<path fill="none" stroke="midnightblue" d="M1837.1,-116.764C1899.83,-104.716 2002,-85.0954 2053.68,-75.1691"/>
<polygon fill="midnightblue" stroke="midnightblue" points="2054.46,-78.5845 2063.62,-73.2612 2053.14,-71.7102 2054.46,-78.5845"/>
</g>
<!-- Node37&#45;&gt;Node36 -->
<g id="edge112" class="edge"><title>Node37&#45;&gt;Node36</title>
<path fill="none" stroke="midnightblue" d="M1783.8,-116.295C1783.8,-97.1314 1783.8,-56.654 1783.8,-31.8434"/>
<polygon fill="midnightblue" stroke="midnightblue" points="1787.3,-31.6792 1783.8,-21.6792 1780.3,-31.6792 1787.3,-31.6792"/>
</g>
<!-- Node38&#45;&gt;Node6 -->
<g id="edge142" class="edge"><title>Node38&#45;&gt;Node6</title>
<path fill="none" stroke="midnightblue" d="M168.393,-304.413C128.363,-289.884 62.4894,-259.747 28.8037,-210 5.18913,-175.126 -12.3976,-146.35 16.8037,-116 37.6687,-94.3142 983.63,-74.0486 1193.75,-69.8098"/>
<polygon fill="midnightblue" stroke="midnightblue" points="1193.82,-73.309 1203.75,-69.6089 1193.68,-66.3104 1193.82,-73.309"/>
</g>
<!-- Node38&#45;&gt;Node23 -->
<g id="edge138" class="edge"><title>Node38&#45;&gt;Node23</title>
<path fill="none" stroke="midnightblue" d="M228.786,-304.497C254.665,-294.423 293.671,-279.24 320.581,-268.765"/>
<polygon fill="midnightblue" stroke="midnightblue" points="322.2,-271.89 330.25,-265.001 319.661,-265.367 322.2,-271.89"/>
</g>
<!-- Node38&#45;&gt;Node24 -->
<g id="edge140" class="edge"><title>Node38&#45;&gt;Node24</title>
<path fill="none" stroke="midnightblue" d="M192.929,-304.085C175.837,-283.061 138.172,-236.733 117.007,-210.7"/>
<polygon fill="midnightblue" stroke="midnightblue" points="119.539,-208.267 110.515,-202.715 114.108,-212.682 119.539,-208.267"/>
</g>
<!-- Node38&#45;&gt;Node29 -->
<g id="edge146" class="edge"><title>Node38&#45;&gt;Node29</title>
<path fill="none" stroke="midnightblue" d="M204.111,-304.085C208.439,-283.609 217.841,-239.133 223.412,-212.778"/>
<polygon fill="midnightblue" stroke="midnightblue" points="226.895,-213.223 225.539,-202.715 220.046,-211.775 226.895,-213.223"/>
</g>
<!-- Node38&#45;&gt;Node30 -->
<g id="edge144" class="edge"><title>Node38&#45;&gt;Node30</title>
<path fill="none" stroke="midnightblue" d="M199.856,-304.187C195.938,-280.294 188.41,-221.367 199.804,-174 202.114,-164.396 206.735,-154.546 211.311,-146.359"/>
<polygon fill="midnightblue" stroke="midnightblue" points="214.402,-148.009 216.52,-137.628 208.39,-144.423 214.402,-148.009"/>
</g>
<!-- Node39&#45;&gt;Node6 -->
<g id="edge178" class="edge"><title>Node39&#45;&gt;Node6</title>
<path fill="none" stroke="midnightblue" d="M1011.02,-246.363C1017.05,-220.15 1036.21,-151.973 1078.8,-116 1111.22,-88.627 1159.2,-77.1956 1193.38,-72.422"/>
<polygon fill="midnightblue" stroke="midnightblue" points="1194.03,-75.8679 1203.51,-71.144 1193.15,-68.923 1194.03,-75.8679"/>
</g>
<!-- Node40 -->
<g id="node115" class="node"><title>Node40</title>
<a xlink:href="_format_8h.html" target="_top" xlink:title="base/Format.h">
<polygon fill="white" stroke="black" points="899.804,-181.5 899.804,-202.5 979.804,-202.5 979.804,-181.5 899.804,-181.5"/>
<text text-anchor="middle" x="939.804" y="-189.5" font-family="Helvetica,sans-Serif" font-size="10.00">base/Format.h</text>
</a>
</g>
<!-- Node39&#45;&gt;Node40 -->
<g id="edge150" class="edge"><title>Node39&#45;&gt;Node40</title>
<path fill="none" stroke="midnightblue" d="M997.41,-246.267C986.86,-236.328 970.974,-221.363 958.555,-209.664"/>
<polygon fill="midnightblue" stroke="midnightblue" points="960.664,-206.843 950.986,-202.534 955.865,-211.938 960.664,-206.843"/>
</g>
<!-- Node40&#45;&gt;Node11 -->
<g id="edge168" class="edge"><title>Node40&#45;&gt;Node11</title>
<path fill="none" stroke="midnightblue" d="M954.767,-181.287C979.335,-164.299 1030.35,-131.521 1078.8,-116 1143.65,-95.2277 1344.31,-78.3258 1430.17,-71.8474"/>
<polygon fill="midnightblue" stroke="midnightblue" points="1430.58,-75.3263 1440.29,-71.0916 1430.06,-68.3457 1430.58,-75.3263"/>
</g>
<!-- Node40&#45;&gt;Node12 -->
<g id="edge164" class="edge"><title>Node40&#45;&gt;Node12</title>
<path fill="none" stroke="midnightblue" d="M980.042,-188.672C1027.18,-184.837 1107.62,-178.488 1176.8,-174 1473.94,-154.724 1548.99,-161.821 1845.8,-138 1968.35,-128.165 2350.61,-85.0478 2461.41,-72.4611"/>
<polygon fill="midnightblue" stroke="midnightblue" points="2462.02,-75.9148 2471.56,-71.3076 2461.23,-68.9596 2462.02,-75.9148"/>
</g>
<!-- Node40&#45;&gt;Node15 -->
<g id="edge172" class="edge"><title>Node40&#45;&gt;Node15</title>
<path fill="none" stroke="midnightblue" d="M979.84,-188.876C1099.7,-179.474 1454.48,-151.277 1569.8,-138 1637.62,-130.193 1654.18,-125.26 1721.8,-116 1844.14,-99.2492 1989.85,-80.9263 2053.44,-73.0101"/>
<polygon fill="midnightblue" stroke="midnightblue" points="2054.14,-76.4501 2063.63,-71.743 2053.27,-69.5036 2054.14,-76.4501"/>
</g>
<!-- Node40&#45;&gt;Node16 -->
<g id="edge170" class="edge"><title>Node40&#45;&gt;Node16</title>
<path fill="none" stroke="midnightblue" d="M980.02,-188.285C1027.13,-184.087 1107.56,-177.396 1176.8,-174 1896.56,-138.701 2080.15,-203.371 2797.8,-138 2837.55,-134.38 3104.74,-89.5942 3196.18,-74.1754"/>
<polygon fill="midnightblue" stroke="midnightblue" points="3196.91,-77.6015 3206.19,-72.4865 3195.75,-70.6991 3196.91,-77.6015"/>
</g>
<!-- Node40&#45;&gt;Node18 -->
<g id="edge166" class="edge"><title>Node40&#45;&gt;Node18</title>
<path fill="none" stroke="midnightblue" d="M980.023,-188.354C1027.14,-184.221 1107.57,-177.591 1176.8,-174 1460.64,-159.279 2170.15,-184.957 2468.61,-137.722"/>
<polygon fill="midnightblue" stroke="midnightblue" points="2469.32,-141.153 2478.62,-136.084 2468.19,-134.245 2469.32,-141.153"/>
</g>
<!-- Node40&#45;&gt;Node27 -->
<g id="edge162" class="edge"><title>Node40&#45;&gt;Node27</title>
<path fill="none" stroke="midnightblue" d="M899.519,-190.6C787.144,-186.369 460.82,-171.869 191.804,-138 182.748,-136.86 172.998,-135.268 164.007,-133.649"/>
<polygon fill="midnightblue" stroke="midnightblue" points="164.36,-130.154 153.888,-131.76 163.076,-137.035 164.36,-130.154"/>
</g>
<!-- Node40&#45;&gt;Node36 -->
<g id="edge158" class="edge"><title>Node40&#45;&gt;Node36</title>
<path fill="none" stroke="midnightblue" d="M899.703,-188.572C813.605,-180.805 617.255,-160.764 597.804,-138 591.452,-130.566 591.233,-123.24 597.804,-116 677.569,-28.11 1568.83,-13.4086 1751.29,-11.3144"/>
<polygon fill="midnightblue" stroke="midnightblue" points="1751.38,-14.8138 1761.34,-11.2038 1751.3,-7.81421 1751.38,-14.8138"/>
</g>
<!-- Node41 -->
<g id="node117" class="node"><title>Node41</title>
<polygon fill="white" stroke="#bfbfbf" points="672.804,-116.5 672.804,-137.5 768.804,-137.5 768.804,-116.5 672.804,-116.5"/>
<text text-anchor="middle" x="720.804" y="-124.5" font-family="Helvetica,sans-Serif" font-size="10.00">detail/fmt/format.h</text>
</g>
<!-- Node40&#45;&gt;Node41 -->
<g id="edge152" class="edge"><title>Node40&#45;&gt;Node41</title>
<path fill="none" stroke="midnightblue" d="M904.13,-181.412C866.508,-170.246 807.121,-152.619 766.188,-140.47"/>
<polygon fill="midnightblue" stroke="midnightblue" points="767.044,-137.074 756.462,-137.584 765.053,-143.784 767.044,-137.074"/>
</g>
<!-- Node42 -->
<g id="node119" class="node"><title>Node42</title>
<polygon fill="white" stroke="#bfbfbf" points="1120.3,-116.5 1120.3,-137.5 1169.3,-137.5 1169.3,-116.5 1120.3,-116.5"/>
<text text-anchor="middle" x="1144.8" y="-124.5" font-family="Helvetica,sans-Serif" font-size="10.00">cassert</text>
</g>
<!-- Node40&#45;&gt;Node42 -->
<g id="edge154" class="edge"><title>Node40&#45;&gt;Node42</title>
<path fill="none" stroke="midnightblue" d="M973.197,-181.412C1011,-169.425 1072.29,-149.993 1110.47,-137.885"/>
<polygon fill="midnightblue" stroke="midnightblue" points="1111.65,-141.183 1120.13,-134.825 1109.54,-134.511 1111.65,-141.183"/>
</g>
<!-- Node43 -->
<g id="node121" class="node"><title>Node43</title>
<polygon fill="white" stroke="#bfbfbf" points="786.304,-116.5 786.304,-137.5 833.304,-137.5 833.304,-116.5 786.304,-116.5"/>
<text text-anchor="middle" x="809.804" y="-124.5" font-family="Helvetica,sans-Serif" font-size="10.00">clocale</text>
</g>
<!-- Node40&#45;&gt;Node43 -->
<g id="edge156" class="edge"><title>Node40&#45;&gt;Node43</title>
<path fill="none" stroke="midnightblue" d="M918.628,-181.412C897.286,-170.741 864.147,-154.172 840.043,-142.12"/>
<polygon fill="midnightblue" stroke="midnightblue" points="841.48,-138.925 830.971,-137.584 838.35,-145.186 841.48,-138.925"/>
</g>
<!-- Node44 -->
<g id="node124" class="node"><title>Node44</title>
<polygon fill="white" stroke="#bfbfbf" points="850.304,-116.5 850.304,-137.5 893.304,-137.5 893.304,-116.5 850.304,-116.5"/>
<text text-anchor="middle" x="871.804" y="-124.5" font-family="Helvetica,sans-Serif" font-size="10.00">cstdio</text>
</g>
<!-- Node40&#45;&gt;Node44 -->
<g id="edge160" class="edge"><title>Node40&#45;&gt;Node44</title>
<path fill="none" stroke="midnightblue" d="M928.575,-181.267C918.178,-171.328 902.522,-156.363 890.283,-144.664"/>
<polygon fill="midnightblue" stroke="midnightblue" points="892.471,-141.913 882.824,-137.534 887.634,-146.974 892.471,-141.913"/>
</g>
<!-- Node45 -->
<g id="node132" class="node"><title>Node45</title>
<polygon fill="white" stroke="#bfbfbf" points="910.804,-116.5 910.804,-137.5 950.804,-137.5 950.804,-116.5 910.804,-116.5"/>
<text text-anchor="middle" x="930.804" y="-124.5" font-family="Helvetica,sans-Serif" font-size="10.00">utility</text>
</g>
<!-- Node40&#45;&gt;Node45 -->
<g id="edge174" class="edge"><title>Node40&#45;&gt;Node45</title>
<path fill="none" stroke="midnightblue" d="M938.317,-181.267C937.059,-172.18 935.219,-158.892 933.675,-147.74"/>
<polygon fill="midnightblue" stroke="midnightblue" points="937.101,-146.959 932.262,-137.534 930.167,-147.919 937.101,-146.959"/>
</g>
<!-- Node46 -->
<g id="node134" class="node"><title>Node46</title>
<polygon fill="white" stroke="#bfbfbf" points="606.304,-116.5 606.304,-137.5 655.304,-137.5 655.304,-116.5 606.304,-116.5"/>
<text text-anchor="middle" x="630.804" y="-124.5" font-family="Helvetica,sans-Serif" font-size="10.00">stdint.h</text>
</g>
<!-- Node40&#45;&gt;Node46 -->
<g id="edge176" class="edge"><title>Node40&#45;&gt;Node46</title>
<path fill="none" stroke="midnightblue" d="M899.675,-185.812C847.583,-177.416 753.76,-161.058 665.47,-138.229"/>
<polygon fill="midnightblue" stroke="midnightblue" points="666.128,-134.783 655.567,-135.634 664.353,-141.554 666.128,-134.783"/>
</g>
<!-- Node47&#45;&gt;Node6 -->
<g id="edge184" class="edge"><title>Node47&#45;&gt;Node6</title>
<path fill="none" stroke="midnightblue" d="M1120.34,-308.757C983.281,-285.165 521.086,-198.587 597.804,-116 618.123,-94.1258 1055.18,-75.789 1193.33,-70.5217"/>
<polygon fill="midnightblue" stroke="midnightblue" points="1193.65,-74.0123 1203.51,-70.1368 1193.38,-67.0173 1193.65,-74.0123"/>
</g>
<!-- Node47&#45;&gt;Node15 -->
<g id="edge190" class="edge"><title>Node47&#45;&gt;Node15</title>
<path fill="none" stroke="midnightblue" d="M1192.89,-304.488C1276.91,-279.551 1496.56,-215.78 1682.8,-174 1770.5,-154.326 1798.01,-170.508 1881.8,-138 1898.93,-131.355 1900,-123.428 1916.8,-116 1962.49,-95.804 2019.02,-82.1929 2053.73,-75.0198"/>
<polygon fill="midnightblue" stroke="midnightblue" points="2054.66,-78.404 2063.77,-73.0001 2053.27,-71.5415 2054.66,-78.404"/>
</g>
<!-- Node47&#45;&gt;Node23 -->
<g id="edge182" class="edge"><title>Node47&#45;&gt;Node23</title>
<path fill="none" stroke="midnightblue" d="M1120.77,-312.338C983.778,-302.493 507.249,-268.244 381.451,-259.203"/>
<polygon fill="midnightblue" stroke="midnightblue" points="381.587,-255.704 371.362,-258.478 381.085,-262.686 381.587,-255.704"/>
</g>
<!-- Node47&#45;&gt;Node26 -->
<g id="edge194" class="edge"><title>Node47&#45;&gt;Node26</title>
<path fill="none" stroke="midnightblue" d="M1120.62,-314.35C934.127,-310.724 106.593,-290.18 28.8037,-210 -0.523194,-179.771 -10.9427,-147.685 16.8037,-116 37.502,-92.3632 247.891,-76.6303 333.68,-71.1521"/>
<polygon fill="midnightblue" stroke="midnightblue" points="333.981,-74.6402 343.742,-70.5203 333.542,-67.654 333.981,-74.6402"/>
</g>
<!-- Node47&#45;&gt;Node31 -->
<g id="edge192" class="edge"><title>Node47&#45;&gt;Node31</title>
<path fill="none" stroke="midnightblue" d="M1153.22,-304.186C1147.98,-290.133 1141.19,-265.133 1149.8,-246 1156.79,-230.492 1170.67,-217.638 1183.43,-208.367"/>
<polygon fill="midnightblue" stroke="midnightblue" points="1185.69,-211.058 1191.98,-202.532 1181.75,-205.275 1185.69,-211.058"/>
</g>
<!-- Node48 -->
<g id="node141" class="node"><title>Node48</title>
<a xlink:href="_lorentz_vec_8h.html" target="_top" xlink:title="base/vec/LorentzVec.h">
<polygon fill="white" stroke="black" points="2146.3,-246.5 2146.3,-267.5 2263.3,-267.5 2263.3,-246.5 2146.3,-246.5"/>
<text text-anchor="middle" x="2204.8" y="-254.5" font-family="Helvetica,sans-Serif" font-size="10.00">base/vec/LorentzVec.h</text>
</a>
</g>
<!-- Node47&#45;&gt;Node48 -->
<g id="edge186" class="edge"><title>Node47&#45;&gt;Node48</title>
<path fill="none" stroke="midnightblue" d="M1195.07,-312.936C1348.67,-304.427 1934.14,-271.994 2135.95,-260.814"/>
<polygon fill="midnightblue" stroke="midnightblue" points="2136.33,-264.299 2146.12,-260.251 2135.94,-257.309 2136.33,-264.299"/>
</g>
<!-- Node48&#45;&gt;Node34 -->
<g id="edge188" class="edge"><title>Node48&#45;&gt;Node34</title>
<path fill="none" stroke="midnightblue" d="M2222.15,-246.362C2259.36,-223.546 2346.99,-169.808 2390.85,-142.914"/>
<polygon fill="midnightblue" stroke="midnightblue" points="2392.82,-145.814 2399.51,-137.603 2389.16,-139.847 2392.82,-145.814"/>
</g>
<!-- Node49&#45;&gt;Node6 -->
<g id="edge200" class="edge"><title>Node49&#45;&gt;Node6</title>
<path fill="none" stroke="midnightblue" d="M2746.18,-186.182C2723.08,-182.044 2690.57,-176.749 2661.8,-174 2210.69,-130.884 2089.89,-211.993 1642.8,-138 1609.37,-132.467 1602.9,-123.264 1569.8,-116 1465.2,-93.0422 1339.65,-78.9437 1276.06,-72.7316"/>
<polygon fill="midnightblue" stroke="midnightblue" points="1276.32,-69.2405 1266.03,-71.7673 1275.65,-76.2084 1276.32,-69.2405"/>
</g>
<!-- Node49&#45;&gt;Node9 -->
<g id="edge198" class="edge"><title>Node49&#45;&gt;Node9</title>
<path fill="none" stroke="midnightblue" d="M2787.73,-181.409C2798.76,-170.64 2816.21,-153.395 2830.8,-138 2846.73,-121.195 2864.33,-101.501 2876.69,-87.4648"/>
<polygon fill="midnightblue" stroke="midnightblue" points="2879.35,-89.7432 2883.31,-79.9185 2874.09,-85.1258 2879.35,-89.7432"/>
</g>
<!-- Node49&#45;&gt;Node12 -->
<g id="edge204" class="edge"><title>Node49&#45;&gt;Node12</title>
<path fill="none" stroke="midnightblue" d="M2752.01,-181.3C2699.63,-158.694 2577.9,-106.156 2521.48,-81.8098"/>
<polygon fill="midnightblue" stroke="midnightblue" points="2522.63,-78.4909 2512.06,-77.7419 2519.85,-84.9179 2522.63,-78.4909"/>
</g>
<!-- Node49&#45;&gt;Node18 -->
<g id="edge206" class="edge"><title>Node49&#45;&gt;Node18</title>
<path fill="none" stroke="midnightblue" d="M2746.23,-185.178C2692,-173.06 2581.48,-148.269 2540.81,-138.043"/>
<polygon fill="midnightblue" stroke="midnightblue" points="2541.67,-134.65 2531.11,-135.517 2539.91,-141.424 2541.67,-134.65"/>
</g>
<!-- Node49&#45;&gt;Node19 -->
<g id="edge202" class="edge"><title>Node49&#45;&gt;Node19</title>
<path fill="none" stroke="midnightblue" d="M2752.82,-181.48C2746.39,-178.853 2739.39,-176.17 2732.8,-174 2670.97,-153.624 2652.78,-157.943 2590.8,-138 2589.57,-137.604 2588.32,-137.182 2587.06,-136.742"/>
<polygon fill="midnightblue" stroke="midnightblue" points="2588.09,-133.393 2577.5,-133.175 2585.64,-139.951 2588.09,-133.393"/>
</g>
<!-- Node50&#45;&gt;Node6 -->
<g id="edge212" class="edge"><title>Node50&#45;&gt;Node6</title>
<path fill="none" stroke="midnightblue" d="M2382.16,-187.833C2351.57,-183.688 2302.45,-177.461 2259.8,-174 1897.97,-144.635 1800.86,-203.521 1443.8,-138 1410.6,-131.906 1323.64,-101.345 1272.97,-83.0009"/>
<polygon fill="midnightblue" stroke="midnightblue" points="1273.94,-79.6296 1263.34,-79.5058 1271.55,-86.2091 1273.94,-79.6296"/>
</g>
<!-- Node50&#45;&gt;Node9 -->
<g id="edge210" class="edge"><title>Node50&#45;&gt;Node9</title>
<path fill="none" stroke="midnightblue" d="M2441.78,-187.058C2464.75,-183.321 2497.25,-178.143 2525.8,-174 2646.48,-156.489 2684.55,-183.218 2797.8,-138 2805.88,-134.774 2845.43,-105.171 2870.88,-85.8015"/>
<polygon fill="midnightblue" stroke="midnightblue" points="2873.08,-88.5261 2878.91,-79.678 2868.84,-82.9607 2873.08,-88.5261"/>
</g>
<!-- Node50&#45;&gt;Node18 -->
<g id="edge220" class="edge"><title>Node50&#45;&gt;Node18</title>
<path fill="none" stroke="midnightblue" d="M2427.16,-181.267C2441.92,-170.949 2464.43,-155.216 2481.42,-143.342"/>
<polygon fill="midnightblue" stroke="midnightblue" points="2483.54,-146.131 2489.73,-137.534 2479.53,-140.394 2483.54,-146.131"/>
</g>
<!-- Node50&#45;&gt;Node19 -->
<g id="edge218" class="edge"><title>Node50&#45;&gt;Node19</title>
<path fill="none" stroke="midnightblue" d="M2436.91,-181.484C2466.73,-168.979 2514.81,-148.791 2538.98,-138.21"/>
<polygon fill="midnightblue" stroke="midnightblue" points="2540.54,-141.348 2548.25,-134.086 2537.69,-134.952 2540.54,-141.348"/>
</g>
<!-- Node50&#45;&gt;Node34 -->
<g id="edge216" class="edge"><title>Node50&#45;&gt;Node34</title>
<path fill="none" stroke="midnightblue" d="M2412.63,-181.267C2413.33,-172.18 2414.35,-158.892 2415.21,-147.74"/>
<polygon fill="midnightblue" stroke="midnightblue" points="2418.72,-147.773 2415.99,-137.534 2411.74,-147.236 2418.72,-147.773"/>
</g>
<!-- Node50&#45;&gt;Node37 -->
<g id="edge214" class="edge"><title>Node50&#45;&gt;Node37</title>
<path fill="none" stroke="midnightblue" d="M2382.11,-188.311C2351.49,-184.547 2302.34,-178.618 2259.8,-174 2112.15,-157.969 1938.47,-141.397 1847.2,-132.864"/>
<polygon fill="midnightblue" stroke="midnightblue" points="1847.3,-129.359 1837.02,-131.914 1846.65,-136.329 1847.3,-129.359"/>
</g>
<!-- Node51&#45;&gt;Node15 -->
<g id="edge240" class="edge"><title>Node51&#45;&gt;Node15</title>
<path fill="none" stroke="midnightblue" d="M1535.91,-249.227C1605.09,-231.674 1776.68,-186.688 1916.8,-138 1965.57,-121.054 2020.72,-97.7318 2054.37,-83.012"/>
<polygon fill="midnightblue" stroke="midnightblue" points="2055.93,-86.1475 2063.68,-78.9188 2053.11,-79.7395 2055.93,-86.1475"/>
</g>
<!-- Node51&#45;&gt;Node18 -->
<g id="edge248" class="edge"><title>Node51&#45;&gt;Node18</title>
<path fill="none" stroke="midnightblue" d="M1536.22,-256.526C1660.68,-254.422 2119.17,-244.445 2259.8,-210 2298.07,-200.628 2303.73,-187.33 2340.8,-174 2393.97,-154.882 2411.02,-154.872 2468.82,-138.204"/>
<polygon fill="midnightblue" stroke="midnightblue" points="2469.85,-141.551 2478.46,-135.38 2467.88,-134.833 2469.85,-141.551"/>
</g>
<!-- Node51&#45;&gt;Node26 -->
<g id="edge246" class="edge"><title>Node51&#45;&gt;Node26</title>
<path fill="none" stroke="midnightblue" d="M1473.73,-255.506C1311.63,-247.703 570.295,-211.93 564.804,-210 489.955,-183.691 418.847,-118.823 387.119,-87.0817"/>
<polygon fill="midnightblue" stroke="midnightblue" points="389.431,-84.4417 379.922,-79.7692 384.442,-89.3517 389.431,-84.4417"/>
</g>
<!-- Node51&#45;&gt;Node31 -->
<g id="edge244" class="edge"><title>Node51&#45;&gt;Node31</title>
<path fill="none" stroke="midnightblue" d="M1473.62,-250.105C1418.41,-237.9 1303.85,-212.572 1245.94,-199.769"/>
<polygon fill="midnightblue" stroke="midnightblue" points="1246.67,-196.345 1236.15,-197.604 1245.16,-203.18 1246.67,-196.345"/>
</g>
<!-- Node51&#45;&gt;Node33 -->
<g id="edge224" class="edge"><title>Node51&#45;&gt;Node33</title>
<path fill="none" stroke="midnightblue" d="M1482.49,-246.412C1459.9,-235.694 1424.76,-219.025 1399.33,-206.96"/>
<polygon fill="midnightblue" stroke="midnightblue" points="1400.65,-203.708 1390.11,-202.584 1397.64,-210.032 1400.65,-203.708"/>
</g>
<!-- Node51&#45;&gt;Node34 -->
<g id="edge238" class="edge"><title>Node51&#45;&gt;Node34</title>
<path fill="none" stroke="midnightblue" d="M1535.83,-256.439C1626.66,-254.394 1890.41,-245.474 1967.8,-210 1988.95,-200.307 1984.72,-183.827 2005.8,-174 2037.42,-159.265 2257.76,-139.826 2362.17,-131.309"/>
<polygon fill="midnightblue" stroke="midnightblue" points="2362.52,-134.792 2372.2,-130.495 2361.95,-127.815 2362.52,-134.792"/>
</g>
<!-- Node51&#45;&gt;Node36 -->
<g id="edge242" class="edge"><title>Node51&#45;&gt;Node36</title>
<path fill="none" stroke="midnightblue" d="M1473.63,-255.269C1365.23,-249.149 1005.13,-227.934 890.804,-210 752.347,-188.281 520.385,-237.75 589.804,-116 614.873,-72.0327 639.285,-72.406 687.804,-58 791.921,-27.0859 1580.68,-13.9473 1751.32,-11.4513"/>
<polygon fill="midnightblue" stroke="midnightblue" points="1751.48,-14.9494 1761.43,-11.3053 1751.38,-7.9501 1751.48,-14.9494"/>
</g>
<!-- Node51&#45;&gt;Node37 -->
<g id="edge226" class="edge"><title>Node51&#45;&gt;Node37</title>
<path fill="none" stroke="midnightblue" d="M1527.64,-246.362C1577.21,-223.26 1694.84,-168.454 1751.8,-141.914"/>
<polygon fill="midnightblue" stroke="midnightblue" points="1753.46,-144.999 1761.05,-137.603 1750.51,-138.654 1753.46,-144.999"/>
</g>
<!-- Node52 -->
<g id="node166" class="node"><title>Node52</title>
<a xlink:href="shared__ptr__container_8h.html" target="_top" xlink:title="base/std_ext/shared\l_ptr_container.h">
<polygon fill="white" stroke="black" points="2146.3,-175 2146.3,-209 2251.3,-209 2251.3,-175 2146.3,-175"/>
<text text-anchor="start" x="2154.3" y="-196" font-family="Helvetica,sans-Serif" font-size="10.00">base/std_ext/shared</text>
<text text-anchor="middle" x="2198.8" y="-183" font-family="Helvetica,sans-Serif" font-size="10.00">_ptr_container.h</text>
</a>
</g>
<!-- Node51&#45;&gt;Node52 -->
<g id="edge228" class="edge"><title>Node51&#45;&gt;Node52</title>
<path fill="none" stroke="midnightblue" d="M1535.89,-255.654C1624.37,-251.583 1885.05,-237.933 2099.8,-210 2111.65,-208.46 2124.22,-206.459 2136.3,-204.353"/>
<polygon fill="midnightblue" stroke="midnightblue" points="2137.07,-207.771 2146.3,-202.567 2135.84,-200.88 2137.07,-207.771"/>
</g>
<!-- Node52&#45;&gt;Node10 -->
<g id="edge236" class="edge"><title>Node52&#45;&gt;Node10</title>
<path fill="none" stroke="midnightblue" d="M2208.79,-174.82C2217.16,-157.896 2225.72,-132.278 2211.8,-116 2195.03,-96.3801 2027.83,-79.1876 1951.02,-72.2563"/>
<polygon fill="midnightblue" stroke="midnightblue" points="1951.08,-68.7478 1940.81,-71.3472 1950.46,-75.7202 1951.08,-68.7478"/>
</g>
<!-- Node52&#45;&gt;Node15 -->
<g id="edge230" class="edge"><title>Node52&#45;&gt;Node15</title>
<path fill="none" stroke="midnightblue" d="M2251.41,-175.163C2280.53,-164.663 2312.5,-150.763 2320.8,-138 2326.14,-129.805 2327,-123.562 2320.8,-116 2317.57,-112.057 2181.42,-86.58 2117.87,-74.8705"/>
<polygon fill="midnightblue" stroke="midnightblue" points="2118.43,-71.4157 2107.96,-73.049 2117.16,-78.3002 2118.43,-71.4157"/>
</g>
<!-- Node52&#45;&gt;Node18 -->
<g id="edge232" class="edge"><title>Node52&#45;&gt;Node18</title>
<path fill="none" stroke="midnightblue" d="M2251.39,-183.256C2304.12,-174.099 2387.78,-158.52 2468.67,-138.108"/>
<polygon fill="midnightblue" stroke="midnightblue" points="2469.69,-141.459 2478.52,-135.595 2467.96,-134.677 2469.69,-141.459"/>
</g>
<!-- Node52&#45;&gt;Node53 -->
<g id="edge234" class="edge"><title>Node52&#45;&gt;Node53</title>
<path fill="none" stroke="midnightblue" d="M2251.57,-185.726C2286.26,-181.81 2332.68,-176.967 2373.8,-174 2758.03,-146.28 2855.5,-164.509 3239.8,-138 3264.35,-136.307 3291.81,-133.68 3313.62,-131.418"/>
<polygon fill="midnightblue" stroke="midnightblue" points="3314.26,-134.87 3323.84,-130.343 3313.53,-127.909 3314.26,-134.87"/>
</g>
<!-- Node54&#45;&gt;Node10 -->
<g id="edge264" class="edge"><title>Node54&#45;&gt;Node10</title>
<path fill="none" stroke="midnightblue" d="M1438.28,-304.47C1433.18,-267.379 1418.37,-143.548 1443.8,-116 1472.85,-84.5424 1767.84,-73.1075 1874.55,-69.9816"/>
<polygon fill="midnightblue" stroke="midnightblue" points="1874.67,-73.4797 1884.56,-69.6965 1874.47,-66.4825 1874.67,-73.4797"/>
</g>
<!-- Node54&#45;&gt;Node15 -->
<g id="edge256" class="edge"><title>Node54&#45;&gt;Node15</title>
<path fill="none" stroke="midnightblue" d="M1477.62,-304.814C1564.69,-280.787 1785.26,-216.637 1959.8,-138 1995.29,-122.012 2034.34,-99.8746 2059.41,-85.0268"/>
<polygon fill="midnightblue" stroke="midnightblue" points="2061.51,-87.8512 2068.3,-79.7212 2057.92,-81.8402 2061.51,-87.8512"/>
</g>
<!-- Node54&#45;&gt;Node18 -->
<g id="edge262" class="edge"><title>Node54&#45;&gt;Node18</title>
<path fill="none" stroke="midnightblue" d="M1477.56,-314.362C1630.34,-311.577 2198.11,-299.201 2271.8,-268 2328.57,-243.964 2321.07,-205.935 2373.8,-174 2382.23,-168.894 2433.13,-151.205 2468.94,-139.046"/>
<polygon fill="midnightblue" stroke="midnightblue" points="2470.24,-142.301 2478.59,-135.779 2468,-135.67 2470.24,-142.301"/>
</g>
<!-- Node54&#45;&gt;Node26 -->
<g id="edge260" class="edge"><title>Node54&#45;&gt;Node26</title>
<path fill="none" stroke="midnightblue" d="M1402.13,-313.297C1225.7,-305.043 486.222,-267.246 401.804,-210 364.508,-184.709 360.945,-160.972 363.804,-116 364.349,-107.421 365.449,-98.0146 366.56,-89.8855"/>
<polygon fill="midnightblue" stroke="midnightblue" points="370.052,-90.19 368.03,-79.7899 363.125,-89.181 370.052,-90.19"/>
</g>
<!-- Node54&#45;&gt;Node31 -->
<g id="edge258" class="edge"><title>Node54&#45;&gt;Node31</title>
<path fill="none" stroke="midnightblue" d="M1419.88,-304.3C1379.26,-282.482 1286.74,-232.786 1239.58,-207.459"/>
<polygon fill="midnightblue" stroke="midnightblue" points="1240.98,-204.236 1230.52,-202.588 1237.67,-210.403 1240.98,-204.236"/>
</g>
<!-- Node54&#45;&gt;Node33 -->
<g id="edge254" class="edge"><title>Node54&#45;&gt;Node33</title>
<path fill="none" stroke="midnightblue" d="M1433.41,-304.085C1421.21,-283.244 1394.46,-237.537 1379.15,-211.384"/>
<polygon fill="midnightblue" stroke="midnightblue" points="1382.15,-209.577 1374.08,-202.715 1376.11,-213.114 1382.15,-209.577"/>
</g>
<!-- Node54&#45;&gt;Node51 -->
<g id="edge252" class="edge"><title>Node54&#45;&gt;Node51</title>
<path fill="none" stroke="midnightblue" d="M1451.73,-304.362C1461.16,-295.941 1474.53,-284.011 1485.49,-274.231"/>
<polygon fill="midnightblue" stroke="midnightblue" points="1487.83,-276.84 1492.96,-267.571 1483.17,-271.617 1487.83,-276.84"/>
</g>
<!-- Node55&#45;&gt;Node6 -->
<g id="edge270" class="edge"><title>Node55&#45;&gt;Node6</title>
<path fill="none" stroke="midnightblue" d="M2086.62,-372.535C1954.12,-370.401 1454.83,-360.141 1393.8,-326 1300.17,-273.613 1254.67,-140.93 1240.15,-89.661"/>
<polygon fill="midnightblue" stroke="midnightblue" points="1243.46,-88.4807 1237.45,-79.7543 1236.7,-90.3229 1243.46,-88.4807"/>
</g>
<!-- Node55&#45;&gt;Node9 -->
<g id="edge272" class="edge"><title>Node55&#45;&gt;Node9</title>
<path fill="none" stroke="midnightblue" d="M2150.9,-372.003C2279.18,-367.877 2755.23,-351.162 2903.8,-326 3090.52,-294.379 3148.58,-302.543 3313.8,-210 3354.96,-186.945 3372.88,-181.217 3391.8,-138 3395.73,-129.043 3398.39,-123.231 3391.8,-116 3360.59,-81.7095 3035.42,-71.9378 2927.44,-69.6274"/>
<polygon fill="midnightblue" stroke="midnightblue" points="2927.46,-66.1272 2917.39,-69.4208 2927.32,-73.1258 2927.46,-66.1272"/>
</g>
<!-- Node55&#45;&gt;Node15 -->
<g id="edge306" class="edge"><title>Node55&#45;&gt;Node15</title>
<path fill="none" stroke="midnightblue" d="M2116.27,-362.133C2109.39,-329.737 2093.69,-232.451 2137.8,-174 2164.25,-138.953 2205.05,-174.266 2229.8,-138 2235.32,-129.924 2235.55,-123.914 2229.8,-116 2216.53,-97.7109 2156.19,-82.7974 2117.96,-74.9687"/>
<polygon fill="midnightblue" stroke="midnightblue" points="2118.3,-71.4697 2107.81,-72.9516 2116.94,-78.3352 2118.3,-71.4697"/>
</g>
<!-- Node55&#45;&gt;Node18 -->
<g id="edge312" class="edge"><title>Node55&#45;&gt;Node18</title>
<path fill="none" stroke="midnightblue" d="M2151.23,-363.393C2214.53,-343.369 2356.51,-292.088 2449.8,-210 2470.06,-192.176 2486.06,-165.23 2495.47,-146.913"/>
<polygon fill="midnightblue" stroke="midnightblue" points="2498.71,-148.253 2500,-137.737 2492.43,-145.154 2498.71,-148.253"/>
</g>
<!-- Node55&#45;&gt;Node19 -->
<g id="edge308" class="edge"><title>Node55&#45;&gt;Node19</title>
<path fill="none" stroke="midnightblue" d="M2150.88,-368.977C2261.97,-354.324 2627.17,-299.904 2694.8,-210 2704.42,-197.214 2704.25,-186.917 2694.8,-174 2665.58,-134.023 2634.08,-156.211 2586.9,-139.669"/>
<polygon fill="midnightblue" stroke="midnightblue" points="2588.16,-136.405 2577.58,-135.961 2585.58,-142.909 2588.16,-136.405"/>
</g>
<!-- Node55&#45;&gt;Node48 -->
<g id="edge304" class="edge"><title>Node55&#45;&gt;Node48</title>
<path fill="none" stroke="midnightblue" d="M2126.74,-362.295C2141.33,-342.613 2172.59,-300.45 2190.82,-275.867"/>
<polygon fill="midnightblue" stroke="midnightblue" points="2193.74,-277.797 2196.89,-267.679 2188.12,-273.628 2193.74,-277.797"/>
</g>
<!-- Node55&#45;&gt;Node54 -->
<g id="edge268" class="edge"><title>Node55&#45;&gt;Node54</title>
<path fill="none" stroke="midnightblue" d="M2086.51,-370.242C1976.81,-360.871 1618.08,-330.228 1487.71,-319.092"/>
<polygon fill="midnightblue" stroke="midnightblue" points="1487.89,-315.595 1477.63,-318.231 1487.29,-322.569 1487.89,-315.595"/>
</g>
<!-- Node56 -->
<g id="node193" class="node"><title>Node56</title>
<a xlink:href="_particle_type_8h.html" target="_top" xlink:title="base/ParticleType.h">
<polygon fill="white" stroke="black" points="3054.8,-181.5 3054.8,-202.5 3158.8,-202.5 3158.8,-181.5 3054.8,-181.5"/>
<text text-anchor="middle" x="3106.8" y="-189.5" font-family="Helvetica,sans-Serif" font-size="10.00">base/ParticleType.h</text>
</a>
</g>
<!-- Node55&#45;&gt;Node56 -->
<g id="edge274" class="edge"><title>Node55&#45;&gt;Node56</title>
<path fill="none" stroke="midnightblue" d="M2151.08,-372.698C2295.77,-370.84 2884.3,-357.799 3040.8,-268 3064.46,-254.424 3083.81,-229.148 3095.3,-211.488"/>
<polygon fill="midnightblue" stroke="midnightblue" points="3098.54,-212.919 3100.86,-202.582 3092.6,-209.214 3098.54,-212.919"/>
</g>
<!-- Node59 -->
<g id="node204" class="node"><title>Node59</title>
<a xlink:href="_tree_8h.html" target="_top" xlink:title="base/Tree.h">
<polygon fill="white" stroke="black" points="1890.8,-181.5 1890.8,-202.5 1958.8,-202.5 1958.8,-181.5 1890.8,-181.5"/>
<text text-anchor="middle" x="1924.8" y="-189.5" font-family="Helvetica,sans-Serif" font-size="10.00">base/Tree.h</text>
</a>
</g>
<!-- Node55&#45;&gt;Node59 -->
<g id="edge290" class="edge"><title>Node55&#45;&gt;Node59</title>
<path fill="none" stroke="midnightblue" d="M2110.9,-362.166C2100.41,-348.092 2080.97,-323.068 2061.8,-304 2024.66,-267.047 1976.21,-229.624 1947.99,-208.756"/>
<polygon fill="midnightblue" stroke="midnightblue" points="1949.72,-205.68 1939.59,-202.584 1945.58,-211.323 1949.72,-205.68"/>
</g>
<!-- Node61 -->
<g id="node216" class="node"><title>Node61</title>
<polygon fill="white" stroke="#bfbfbf" points="1998.8,-304.5 1998.8,-325.5 2052.8,-325.5 2052.8,-304.5 1998.8,-304.5"/>
<text text-anchor="middle" x="2025.8" y="-312.5" font-family="Helvetica,sans-Serif" font-size="10.00">iostream</text>
</g>
<!-- Node55&#45;&gt;Node61 -->
<g id="edge310" class="edge"><title>Node55&#45;&gt;Node61</title>
<path fill="none" stroke="midnightblue" d="M2101.75,-362.362C2087.72,-353.614 2067.62,-341.079 2051.62,-331.101"/>
<polygon fill="midnightblue" stroke="midnightblue" points="2053.09,-327.893 2042.75,-325.571 2049.39,-333.832 2053.09,-327.893"/>
</g>
<!-- Node56&#45;&gt;Node5 -->
<g id="edge278" class="edge"><title>Node56&#45;&gt;Node5</title>
<path fill="none" stroke="midnightblue" d="M3071.01,-181.491C3061.26,-178.834 3050.67,-176.133 3040.8,-174 2956.77,-155.831 2857.74,-141.322 2799.28,-133.459"/>
<polygon fill="midnightblue" stroke="midnightblue" points="2799.58,-129.967 2789.21,-132.115 2798.65,-136.906 2799.58,-129.967"/>
</g>
<!-- Node56&#45;&gt;Node8 -->
<g id="edge282" class="edge"><title>Node56&#45;&gt;Node8</title>
<path fill="none" stroke="midnightblue" d="M3105.53,-181.443C3103.04,-165.258 3096.08,-134.274 3077.8,-116 3026.68,-64.8715 2996.13,-74.811 2925.8,-58 2776.12,-22.2194 2591.77,-13.6743 2515,-11.6366"/>
<polygon fill="midnightblue" stroke="midnightblue" points="2514.98,-8.13515 2504.9,-11.3901 2514.81,-15.1331 2514.98,-8.13515"/>
</g>
<!-- Node56&#45;&gt;Node9 -->
<g id="edge276" class="edge"><title>Node56&#45;&gt;Node9</title>
<path fill="none" stroke="midnightblue" d="M3102,-181.455C3093.98,-165 3076.27,-133.312 3051.8,-116 3014.33,-89.4777 2961.83,-77.7598 2927.57,-72.6943"/>
<polygon fill="midnightblue" stroke="midnightblue" points="2927.95,-69.213 2917.57,-71.3268 2927,-76.1485 2927.95,-69.213"/>
</g>
<!-- Node56&#45;&gt;Node15 -->
<g id="edge288" class="edge"><title>Node56&#45;&gt;Node15</title>
<path fill="none" stroke="midnightblue" d="M3072.92,-181.465C3016.5,-164.42 2899.43,-131.177 2797.8,-116 2511.65,-73.2641 2435.21,-113.332 2147.8,-80 2138.07,-78.8717 2127.56,-77.1858 2118,-75.4708"/>
<polygon fill="midnightblue" stroke="midnightblue" points="2118.56,-72.0149 2108.09,-73.6235 2117.28,-78.8965 2118.56,-72.0149"/>
</g>
<!-- Node56&#45;&gt;Node16 -->
<g id="edge280" class="edge"><title>Node56&#45;&gt;Node16</title>
<path fill="none" stroke="midnightblue" d="M3113.68,-181.493C3123.99,-166.174 3144.5,-137.222 3165.8,-116 3176.97,-104.871 3190.8,-94.0211 3202.46,-85.5549"/>
<polygon fill="midnightblue" stroke="midnightblue" points="3204.75,-88.2226 3210.88,-79.5803 3200.7,-82.5143 3204.75,-88.2226"/>
</g>
<!-- Node56&#45;&gt;Node57 -->
<g id="edge284" class="edge"><title>Node56&#45;&gt;Node57</title>
<path fill="none" stroke="midnightblue" d="M3158.89,-182.159C3174,-179.405 3190.54,-176.486 3205.8,-174 3315.86,-156.068 3447.4,-138.184 3503.84,-130.68"/>
<polygon fill="midnightblue" stroke="midnightblue" points="3504.65,-134.104 3514.1,-129.32 3503.73,-127.164 3504.65,-134.104"/>
</g>
<!-- Node58 -->
<g id="node201" class="node"><title>Node58</title>
<polygon fill="white" stroke="#bfbfbf" points="2996.3,-116.5 2996.3,-137.5 3043.3,-137.5 3043.3,-116.5 2996.3,-116.5"/>
<text text-anchor="middle" x="3019.8" y="-124.5" font-family="Helvetica,sans-Serif" font-size="10.00">iterator</text>
</g>
<!-- Node56&#45;&gt;Node58 -->
<g id="edge286" class="edge"><title>Node56&#45;&gt;Node58</title>
<path fill="none" stroke="midnightblue" d="M3092.44,-181.267C3078.75,-171.044 3057.96,-155.504 3042.12,-143.67"/>
<polygon fill="midnightblue" stroke="midnightblue" points="3044.01,-140.715 3033.9,-137.534 3039.82,-146.323 3044.01,-140.715"/>
</g>
<!-- Node59&#45;&gt;Node10 -->
<g id="edge300" class="edge"><title>Node59&#45;&gt;Node10</title>
<path fill="none" stroke="midnightblue" d="M1923.74,-181.085C1921.74,-160.609 1917.4,-116.133 1914.83,-89.778"/>
<polygon fill="midnightblue" stroke="midnightblue" points="1918.3,-89.3282 1913.85,-79.7153 1911.34,-90.008 1918.3,-89.3282"/>
</g>
<!-- Node59&#45;&gt;Node15 -->
<g id="edge298" class="edge"><title>Node59&#45;&gt;Node15</title>
<path fill="none" stroke="midnightblue" d="M1949.89,-181.463C1957.18,-178.711 1965.22,-175.969 1972.8,-174 2024.79,-160.497 2176.77,-178.709 2211.8,-138 2241.6,-103.379 2164.27,-82.9791 2117.85,-74.1721"/>
<polygon fill="midnightblue" stroke="midnightblue" points="2118.37,-70.7094 2107.9,-72.3716 2117.12,-77.5974 2118.37,-70.7094"/>
</g>
<!-- Node59&#45;&gt;Node18 -->
<g id="edge294" class="edge"><title>Node59&#45;&gt;Node18</title>
<path fill="none" stroke="midnightblue" d="M1958.89,-183.302C1973.28,-179.923 1990.27,-176.316 2005.8,-174 2207.09,-143.98 2264.87,-176.189 2468.47,-137.879"/>
<polygon fill="midnightblue" stroke="midnightblue" points="2469.43,-141.259 2478.59,-135.939 2468.11,-134.384 2469.43,-141.259"/>
</g>
<!-- Node59&#45;&gt;Node19 -->
<g id="edge296" class="edge"><title>Node59&#45;&gt;Node19</title>
<path fill="none" stroke="midnightblue" d="M1958.88,-183.224C1973.27,-179.833 1990.26,-176.238 2005.8,-174 2238.03,-140.566 2307.82,-196.819 2538.34,-137.597"/>
<polygon fill="midnightblue" stroke="midnightblue" points="2539.23,-140.982 2548.02,-135.068 2537.46,-134.21 2539.23,-140.982"/>
</g>
<!-- Node59&#45;&gt;Node42 -->
<g id="edge302" class="edge"><title>Node59&#45;&gt;Node42</title>
<path fill="none" stroke="midnightblue" d="M1890.66,-190.197C1788.7,-184.636 1477.58,-166.398 1220.8,-138 1207.21,-136.497 1192.31,-134.432 1179.33,-132.497"/>
<polygon fill="midnightblue" stroke="midnightblue" points="1179.81,-129.03 1169.39,-130.987 1178.75,-135.95 1179.81,-129.03"/>
</g>
<!-- Node60 -->
<g id="node206" class="node"><title>Node60</title>
<polygon fill="white" stroke="#bfbfbf" points="2082.8,-116.5 2082.8,-137.5 2202.8,-137.5 2202.8,-116.5 2082.8,-116.5"/>
<text text-anchor="middle" x="2142.8" y="-124.5" font-family="Helvetica,sans-Serif" font-size="10.00">base/cereal/access.hpp</text>
</g>
<!-- Node59&#45;&gt;Node60 -->
<g id="edge292" class="edge"><title>Node59&#45;&gt;Node60</title>
<path fill="none" stroke="midnightblue" d="M1951.57,-181.484C1958.44,-178.913 1965.86,-176.256 1972.8,-174 2012.03,-161.25 2057.04,-148.905 2090.89,-140.069"/>
<polygon fill="midnightblue" stroke="midnightblue" points="2091.78,-143.456 2100.58,-137.557 2090.02,-136.68 2091.78,-143.456"/>
</g>
<!-- Node62&#45;&gt;Node16 -->
<g id="edge316" class="edge"><title>Node62&#45;&gt;Node16</title>
<path fill="none" stroke="midnightblue" d="M3567.23,-181.476C3590.11,-166.382 3625.23,-137.984 3605.8,-116 3582.83,-90.0029 3344.09,-75.0989 3257.75,-70.5262"/>
<polygon fill="midnightblue" stroke="midnightblue" points="3257.7,-67.0193 3247.53,-69.9962 3257.34,-74.0099 3257.7,-67.0193"/>
</g>
<!-- Node62&#45;&gt;Node18 -->
<g id="edge318" class="edge"><title>Node62&#45;&gt;Node18</title>
<path fill="none" stroke="midnightblue" d="M3500.56,-187.817C3452.84,-183.864 3378.4,-177.965 3313.8,-174 2973.35,-153.104 2880.65,-197.27 2540.86,-137.774"/>
<polygon fill="midnightblue" stroke="midnightblue" points="2541.45,-134.324 2531,-136.029 2540.23,-141.217 2541.45,-134.324"/>
</g>
<!-- Node62&#45;&gt;Node26 -->
<g id="edge324" class="edge"><title>Node62&#45;&gt;Node26</title>
<path fill="none" stroke="midnightblue" d="M3500.59,-187.426C3452.88,-183.187 3378.45,-177.085 3313.8,-174 2483.48,-134.375 2273.99,-180.28 1443.8,-138 1325.33,-131.966 1296.14,-124.334 1177.8,-116 880.09,-95.0329 520.187,-76.5044 406.227,-70.8011"/>
<polygon fill="midnightblue" stroke="midnightblue" points="406.139,-67.2924 395.977,-70.2896 405.79,-74.2837 406.139,-67.2924"/>
</g>
<!-- Node62&#45;&gt;Node57 -->
<g id="edge320" class="edge"><title>Node62&#45;&gt;Node57</title>
<path fill="none" stroke="midnightblue" d="M3546.83,-181.267C3544.29,-172.085 3540.56,-158.615 3537.45,-147.392"/>
<polygon fill="midnightblue" stroke="midnightblue" points="3540.76,-146.237 3534.72,-137.534 3534.02,-148.105 3540.76,-146.237"/>
</g>
<!-- Node63 -->
<g id="node224" class="node"><title>Node63</title>
<polygon fill="white" stroke="#bfbfbf" points="3566.8,-116.5 3566.8,-137.5 3596.8,-137.5 3596.8,-116.5 3566.8,-116.5"/>
<text text-anchor="middle" x="3581.8" y="-124.5" font-family="Helvetica,sans-Serif" font-size="10.00">set</text>
</g>
<!-- Node62&#45;&gt;Node63 -->
<g id="edge322" class="edge"><title>Node62&#45;&gt;Node63</title>
<path fill="none" stroke="midnightblue" d="M3555.09,-181.267C3559.7,-171.896 3566.51,-158.057 3572.1,-146.7"/>
<polygon fill="midnightblue" stroke="midnightblue" points="3575.34,-148.051 3576.62,-137.534 3569.06,-144.96 3575.34,-148.051"/>
</g>
<!-- Node64&#45;&gt;Node15 -->
<g id="edge332" class="edge"><title>Node64&#45;&gt;Node15</title>
<path fill="none" stroke="midnightblue" d="M3260.69,-174.687C3260.54,-156.886 3257.19,-129.866 3239.8,-116 3192.35,-78.1537 2208.17,-86.3179 2147.8,-80 2138.06,-78.9806 2127.55,-77.3274 2117.99,-75.6089"/>
<polygon fill="midnightblue" stroke="midnightblue" points="2118.55,-72.1537 2108.08,-73.7454 2117.26,-79.0331 2118.55,-72.1537"/>
</g>
<!-- Node64&#45;&gt;Node16 -->
<g id="edge328" class="edge"><title>Node64&#45;&gt;Node16</title>
<path fill="none" stroke="midnightblue" d="M3267.94,-174.816C3274.22,-159.02 3280.64,-135.211 3272.8,-116 3268.12,-104.507 3259.11,-94.2985 3250.31,-86.3571"/>
<polygon fill="midnightblue" stroke="midnightblue" points="3252.31,-83.473 3242.4,-79.7292 3247.82,-88.8367 3252.31,-83.473"/>
</g>
<!-- Node64&#45;&gt;Node18 -->
<g id="edge334" class="edge"><title>Node64&#45;&gt;Node18</title>
<path fill="none" stroke="midnightblue" d="M3214.14,-181.794C3199.42,-178.845 3182.98,-175.911 3167.8,-174 2893.67,-139.488 2816.61,-187.153 2540.89,-137.795"/>
<polygon fill="midnightblue" stroke="midnightblue" points="2541.47,-134.342 2531,-135.998 2540.21,-141.229 2541.47,-134.342"/>
</g>
<!-- Node64&#45;&gt;Node19 -->
<g id="edge330" class="edge"><title>Node64&#45;&gt;Node19</title>
<path fill="none" stroke="midnightblue" d="M3214.12,-181.972C3199.39,-179.033 3182.96,-176.059 3167.8,-174 2961.09,-145.924 2907.78,-154.348 2699.8,-138 2660.71,-134.927 2615.34,-131.266 2587.87,-129.038"/>
<polygon fill="midnightblue" stroke="midnightblue" points="2587.85,-125.525 2577.6,-128.205 2587.29,-132.502 2587.85,-125.525"/>
</g>
<!-- Node64&#45;&gt;Node21 -->
<g id="edge338" class="edge"><title>Node64&#45;&gt;Node21</title>
<path fill="none" stroke="midnightblue" d="M3244.83,-174.922C3236.87,-165.845 3227.08,-154.679 3218.95,-145.41"/>
<polygon fill="midnightblue" stroke="midnightblue" points="3221.54,-143.063 3212.32,-137.852 3216.28,-147.678 3221.54,-143.063"/>
</g>
<!-- Node64&#45;&gt;Node53 -->
<g id="edge336" class="edge"><title>Node64&#45;&gt;Node53</title>
<path fill="none" stroke="midnightblue" d="M3284.5,-174.922C3298.51,-165.233 3315.97,-153.165 3329.85,-143.562"/>
<polygon fill="midnightblue" stroke="midnightblue" points="3332.16,-146.225 3338.39,-137.658 3328.17,-140.467 3332.16,-146.225"/>
</g>
<!-- Node69 -->
<g id="node248" class="node"><title>Node69</title>
<polygon fill="white" stroke="#bfbfbf" points="3825.3,-420.5 3825.3,-441.5 3940.3,-441.5 3940.3,-420.5 3825.3,-420.5"/>
<text text-anchor="middle" x="3882.8" y="-428.5" font-family="Helvetica,sans-Serif" font-size="10.00">detail/easylogging++.h</text>
</g>
<!-- Node68&#45;&gt;Node69 -->
<g id="edge358" class="edge"><title>Node68&#45;&gt;Node69</title>
<path fill="none" stroke="midnightblue" d="M3681.9,-479.552C3722.03,-469.853 3784.76,-454.693 3829.45,-443.895"/>
<polygon fill="midnightblue" stroke="midnightblue" points="3830.36,-447.275 3839.26,-441.524 3828.71,-440.471 3830.36,-447.275"/>
</g>
</g>
</svg>
