<?xml version="1.0" encoding="UTF-8" standalone="no"?>
<!DOCTYPE svg PUBLIC "-//W3C//DTD SVG 1.1//EN"
 "http://www.w3.org/Graphics/SVG/1.1/DTD/svg11.dtd">
<!-- Generated by graphviz version 2.26.3 (20100126.1600)
 -->
<!-- Title: src/analysis/physics/PhysicsManager.h Pages: 1 -->
<svg width="3917pt" height="580pt"
 viewBox="0.00 0.00 3917.00 580.00" xmlns="http://www.w3.org/2000/svg" xmlns:xlink="http://www.w3.org/1999/xlink">
<g id="graph1" class="graph" transform="scale(1 1) rotate(0) translate(4 576)">
<title>src/analysis/physics/PhysicsManager.h</title>
<polygon fill="white" stroke="white" points="-4,5 -4,-576 3914,-576 3914,5 -4,5"/>
<!-- Node1 -->
<g id="node1" class="node"><title>Node1</title>
<polygon fill="#bfbfbf" stroke="black" points="3086,-537 3086,-571 3192,-571 3192,-537 3086,-537"/>
<text text-anchor="start" x="3094" y="-558" font-family="Helvetica,sans-Serif" font-size="10.00">src/analysis/physics</text>
<text text-anchor="middle" x="3139" y="-545" font-family="Helvetica,sans-Serif" font-size="10.00">/PhysicsManager.h</text>
</g>
<!-- Node2 -->
<g id="node3" class="node"><title>Node2</title>
<a xlink:href="_physics_8h.html" target="_top" xlink:title="Physics.h">
<polygon fill="white" stroke="black" points="3109,-478.5 3109,-499.5 3169,-499.5 3169,-478.5 3109,-478.5"/>
<text text-anchor="middle" x="3139" y="-486.5" font-family="Helvetica,sans-Serif" font-size="10.00">Physics.h</text>
</a>
</g>
<!-- Node1&#45;&gt;Node2 -->
<g id="edge2" class="edge"><title>Node1&#45;&gt;Node2</title>
<path fill="none" stroke="midnightblue" d="M3139,-536.922C3139,-528.67 3139,-518.692 3139,-509.982"/>
<polygon fill="midnightblue" stroke="midnightblue" points="3142.5,-509.852 3139,-499.852 3135.5,-509.852 3142.5,-509.852"/>
</g>
<!-- Node18 -->
<g id="node38" class="node"><title>Node18</title>
<polygon fill="white" stroke="#bfbfbf" points="2520,-116.5 2520,-137.5 2572,-137.5 2572,-116.5 2520,-116.5"/>
<text text-anchor="middle" x="2546" y="-124.5" font-family="Helvetica,sans-Serif" font-size="10.00">memory</text>
</g>
<!-- Node1&#45;&gt;Node18 -->
<g id="edge356" class="edge"><title>Node1&#45;&gt;Node18</title>
<path fill="none" stroke="midnightblue" d="M3085.83,-551.316C2909.04,-541.692 2352,-505.461 2352,-431 2352,-431 2352,-431 2352,-315 2352,-236.332 2393.65,-217.802 2459,-174 2476.52,-162.254 2497.27,-150.955 2514.11,-142.381"/>
<polygon fill="midnightblue" stroke="midnightblue" points="2516.14,-145.275 2523.52,-137.664 2513.01,-139.017 2516.14,-145.275"/>
</g>
<!-- Node68 -->
<g id="node247" class="node"><title>Node68</title>
<polygon fill="white" stroke="#bfbfbf" points="3186.5,-478.5 3186.5,-499.5 3229.5,-499.5 3229.5,-478.5 3186.5,-478.5"/>
<text text-anchor="middle" x="3208" y="-486.5" font-family="Helvetica,sans-Serif" font-size="10.00">queue</text>
</g>
<!-- Node1&#45;&gt;Node68 -->
<g id="edge358" class="edge"><title>Node1&#45;&gt;Node68</title>
<path fill="none" stroke="midnightblue" d="M3157.13,-536.922C3166.96,-527.662 3179.1,-516.227 3189.05,-506.85"/>
<polygon fill="midnightblue" stroke="midnightblue" points="3191.6,-509.257 3196.48,-499.852 3186.8,-504.161 3191.6,-509.257"/>
</g>
<!-- Node3 -->
<g id="node5" class="node"><title>Node3</title>
<a xlink:href="manager__t_8h.html" target="_top" xlink:title="analysis/physics/manager_t.h">
<polygon fill="white" stroke="black" points="3763,-420.5 3763,-441.5 3909,-441.5 3909,-420.5 3763,-420.5"/>
<text text-anchor="middle" x="3836" y="-428.5" font-family="Helvetica,sans-Serif" font-size="10.00">analysis/physics/manager_t.h</text>
</a>
</g>
<!-- Node2&#45;&gt;Node3 -->
<g id="edge4" class="edge"><title>Node2&#45;&gt;Node3</title>
<path fill="none" stroke="midnightblue" d="M3169.09,-479.831C3172.08,-479.125 3175.09,-478.496 3178,-478 3427.65,-435.489 3496.98,-466.264 3752.75,-442.055"/>
<polygon fill="midnightblue" stroke="midnightblue" points="3753.09,-445.538 3762.71,-441.093 3752.42,-438.57 3753.09,-445.538"/>
</g>
<!-- Node4 -->
<g id="node7" class="node"><title>Node4</title>
<a xlink:href="_histogram_factories_8h.html" target="_top" xlink:title="analysis/plot/HistogramFactories.h">
<polygon fill="white" stroke="black" points="2380,-246.5 2380,-267.5 2548,-267.5 2548,-246.5 2380,-246.5"/>
<text text-anchor="middle" x="2464" y="-254.5" font-family="Helvetica,sans-Serif" font-size="10.00">analysis/plot/HistogramFactories.h</text>
</a>
</g>
<!-- Node2&#45;&gt;Node4 -->
<g id="edge6" class="edge"><title>Node2&#45;&gt;Node4</title>
<path fill="none" stroke="midnightblue" d="M3109,-487.937C3017.93,-484.414 2745.89,-471.621 2663,-442 2574.81,-410.485 2503.72,-316.584 2476.25,-276.016"/>
<polygon fill="midnightblue" stroke="midnightblue" points="2479.08,-273.957 2470.64,-267.562 2473.25,-277.829 2479.08,-273.957"/>
</g>
<!-- Node16 -->
<g id="node33" class="node"><title>Node16</title>
<polygon fill="white" stroke="#bfbfbf" points="3227.5,-58.5 3227.5,-79.5 3268.5,-79.5 3268.5,-58.5 3227.5,-58.5"/>
<text text-anchor="middle" x="3248" y="-66.5" font-family="Helvetica,sans-Serif" font-size="10.00">string</text>
</g>
<!-- Node2&#45;&gt;Node16 -->
<g id="edge348" class="edge"><title>Node2&#45;&gt;Node16</title>
<path fill="none" stroke="midnightblue" d="M3169.01,-479.629C3247.89,-454.793 3455,-388.14 3455,-373 3455,-373 3455,-373 3455,-257 3455,-188.72 3444.56,-161.887 3394,-116 3361.76,-86.7384 3311.14,-75.6824 3278.77,-71.5132"/>
<polygon fill="midnightblue" stroke="midnightblue" points="3278.88,-68.003 3268.55,-70.3469 3278.09,-74.9579 3278.88,-68.003"/>
</g>
<!-- Node17 -->
<g id="node36" class="node"><title>Node17</title>
<a xlink:href="memory_8h.html" target="_top" xlink:title="base/std_ext/memory.h">
<polygon fill="white" stroke="black" points="2795.5,-181.5 2795.5,-202.5 2914.5,-202.5 2914.5,-181.5 2795.5,-181.5"/>
<text text-anchor="middle" x="2855" y="-189.5" font-family="Helvetica,sans-Serif" font-size="10.00">base/std_ext/memory.h</text>
</a>
</g>
<!-- Node2&#45;&gt;Node17 -->
<g id="edge38" class="edge"><title>Node2&#45;&gt;Node17</title>
<path fill="none" stroke="midnightblue" d="M3108.66,-479.051C3087.85,-471.215 3060.42,-458.803 3040,-442 2955.9,-372.804 2889.48,-257.453 2865.09,-211.632"/>
<polygon fill="midnightblue" stroke="midnightblue" points="2868.15,-209.942 2860.41,-202.714 2861.96,-213.195 2868.15,-209.942"/>
</g>
<!-- Node2&#45;&gt;Node18 -->
<g id="edge352" class="edge"><title>Node2&#45;&gt;Node18</title>
<path fill="none" stroke="midnightblue" d="M3108.99,-478.472C3083.31,-469.308 3045.47,-455.423 3013,-442 3005.81,-439.027 2507.21,-216.543 2503,-210 2494.34,-196.546 2497.21,-188.914 2503,-174 2507.41,-162.634 2516,-152.341 2524.35,-144.304"/>
<polygon fill="midnightblue" stroke="midnightblue" points="2526.72,-146.879 2531.82,-137.592 2522.04,-141.671 2526.72,-146.879"/>
</g>
<!-- Node19 -->
<g id="node40" class="node"><title>Node19</title>
<polygon fill="white" stroke="#bfbfbf" points="2917.5,-116.5 2917.5,-137.5 2946.5,-137.5 2946.5,-116.5 2917.5,-116.5"/>
<text text-anchor="middle" x="2932" y="-124.5" font-family="Helvetica,sans-Serif" font-size="10.00">list</text>
</g>
<!-- Node2&#45;&gt;Node19 -->
<g id="edge346" class="edge"><title>Node2&#45;&gt;Node19</title>
<path fill="none" stroke="midnightblue" d="M3132.8,-478.166C3103.82,-427.477 2981.4,-213.398 2943.34,-146.834"/>
<polygon fill="midnightblue" stroke="midnightblue" points="2946.17,-144.735 2938.17,-137.792 2940.1,-148.21 2946.17,-144.735"/>
</g>
<!-- Node20 -->
<g id="node42" class="node"><title>Node20</title>
<a xlink:href="_t_event_8h.html" target="_top" xlink:title="tree/TEvent.h">
<polygon fill="white" stroke="black" points="584,-181.5 584,-202.5 660,-202.5 660,-181.5 584,-181.5"/>
<text text-anchor="middle" x="622" y="-189.5" font-family="Helvetica,sans-Serif" font-size="10.00">tree/TEvent.h</text>
</a>
</g>
<!-- Node2&#45;&gt;Node20 -->
<g id="edge44" class="edge"><title>Node2&#45;&gt;Node20</title>
<path fill="none" stroke="midnightblue" d="M3108.67,-488.653C2895.06,-486.153 1614.3,-470.166 1226,-442 1098.52,-432.753 655,-500.812 655,-373 655,-373 655,-373 655,-315 655,-277.637 640.62,-236.003 630.845,-212.019"/>
<polygon fill="midnightblue" stroke="midnightblue" points="633.983,-210.453 626.869,-202.602 627.534,-213.176 633.983,-210.453"/>
</g>
<!-- Node22 -->
<g id="node49" class="node"><title>Node22</title>
<a xlink:href="_t_event_data_8h.html" target="_top" xlink:title="tree/TEventData.h">
<polygon fill="white" stroke="black" points="1234.5,-420.5 1234.5,-441.5 1331.5,-441.5 1331.5,-420.5 1234.5,-420.5"/>
<text text-anchor="middle" x="1283" y="-428.5" font-family="Helvetica,sans-Serif" font-size="10.00">tree/TEventData.h</text>
</a>
</g>
<!-- Node2&#45;&gt;Node22 -->
<g id="edge54" class="edge"><title>Node2&#45;&gt;Node22</title>
<path fill="none" stroke="midnightblue" d="M3108.72,-488.054C2896.4,-481.419 1631.13,-441.879 1341.87,-432.84"/>
<polygon fill="midnightblue" stroke="midnightblue" points="1341.7,-429.333 1331.6,-432.519 1341.48,-436.329 1341.7,-429.333"/>
</g>
<!-- Node53 -->
<g id="node170" class="node"><title>Node53</title>
<polygon fill="white" stroke="#bfbfbf" points="3001.5,-116.5 3001.5,-137.5 3060.5,-137.5 3060.5,-116.5 3001.5,-116.5"/>
<text text-anchor="middle" x="3031" y="-124.5" font-family="Helvetica,sans-Serif" font-size="10.00">functional</text>
</g>
<!-- Node2&#45;&gt;Node53 -->
<g id="edge354" class="edge"><title>Node2&#45;&gt;Node53</title>
<path fill="none" stroke="midnightblue" d="M3146.71,-478.414C3160.28,-458.711 3187,-414.628 3187,-373 3187,-373 3187,-373 3187,-315 3187,-249.612 3188.83,-222.523 3145,-174 3125.64,-152.567 3095.02,-140.672 3070.39,-134.213"/>
<polygon fill="midnightblue" stroke="midnightblue" points="3071.14,-130.793 3060.6,-131.843 3069.49,-137.597 3071.14,-130.793"/>
</g>
<!-- Node57 -->
<g id="node199" class="node"><title>Node57</title>
<polygon fill="white" stroke="#bfbfbf" points="3521.5,-116.5 3521.5,-137.5 3556.5,-137.5 3556.5,-116.5 3521.5,-116.5"/>
<text text-anchor="middle" x="3539" y="-124.5" font-family="Helvetica,sans-Serif" font-size="10.00">map</text>
</g>
<!-- Node2&#45;&gt;Node57 -->
<g id="edge350" class="edge"><title>Node2&#45;&gt;Node57</title>
<path fill="none" stroke="midnightblue" d="M3169.12,-480.016C3172.11,-479.273 3175.1,-478.584 3178,-478 3241.87,-465.119 3418.32,-482.95 3469,-442 3494.26,-421.595 3493,-405.469 3493,-373 3493,-373 3493,-373 3493,-257 3493,-219.157 3498.2,-209.238 3512,-174 3515.74,-164.45 3521.19,-154.513 3526.21,-146.25"/>
<polygon fill="midnightblue" stroke="midnightblue" points="3529.21,-148.063 3531.59,-137.741 3523.29,-144.323 3529.21,-148.063"/>
</g>
<!-- Node62 -->
<g id="node219" class="node"><title>Node62</title>
<a xlink:href="_options_list_8h.html" target="_top" xlink:title="base/OptionsList.h">
<polygon fill="white" stroke="black" points="3521,-181.5 3521,-202.5 3619,-202.5 3619,-181.5 3521,-181.5"/>
<text text-anchor="middle" x="3570" y="-189.5" font-family="Helvetica,sans-Serif" font-size="10.00">base/OptionsList.h</text>
</a>
</g>
<!-- Node2&#45;&gt;Node62 -->
<g id="edge314" class="edge"><title>Node2&#45;&gt;Node62</title>
<path fill="none" stroke="midnightblue" d="M3169.11,-479.973C3172.1,-479.238 3175.1,-478.564 3178,-478 3250.2,-463.969 3449.47,-487.817 3507,-442 3532.4,-421.773 3531,-405.469 3531,-373 3531,-373 3531,-373 3531,-315 3531,-276.973 3548.15,-235.295 3559.7,-211.528"/>
<polygon fill="midnightblue" stroke="midnightblue" points="3562.88,-213.008 3564.25,-202.502 3556.62,-209.861 3562.88,-213.008"/>
</g>
<!-- Node64 -->
<g id="node227" class="node"><title>Node64</title>
<a xlink:href="root__draw_8h.html" target="_top" xlink:title="analysis/plot/root\l_draw.h">
<polygon fill="white" stroke="black" points="3045.5,-175 3045.5,-209 3136.5,-209 3136.5,-175 3045.5,-175"/>
<text text-anchor="start" x="3053.5" y="-196" font-family="Helvetica,sans-Serif" font-size="10.00">analysis/plot/root</text>
<text text-anchor="middle" x="3091" y="-183" font-family="Helvetica,sans-Serif" font-size="10.00">_draw.h</text>
</a>
</g>
<!-- Node2&#45;&gt;Node64 -->
<g id="edge326" class="edge"><title>Node2&#45;&gt;Node64</title>
<path fill="none" stroke="midnightblue" d="M3137.29,-478.43C3130.53,-436.621 3105.55,-282.027 3095.36,-219.006"/>
<polygon fill="midnightblue" stroke="midnightblue" points="3098.8,-218.341 3093.75,-209.028 3091.89,-219.458 3098.8,-218.341"/>
</g>
<!-- Node65 -->
<g id="node235" class="node"><title>Node65</title>
<polygon fill="white" stroke="#bfbfbf" points="3558.5,-420.5 3558.5,-441.5 3609.5,-441.5 3609.5,-420.5 3558.5,-420.5"/>
<text text-anchor="middle" x="3584" y="-428.5" font-family="Helvetica,sans-Serif" font-size="10.00">TH1D.h</text>
</g>
<!-- Node2&#45;&gt;Node65 -->
<g id="edge340" class="edge"><title>Node2&#45;&gt;Node65</title>
<path fill="none" stroke="midnightblue" d="M3169.11,-479.939C3172.1,-479.211 3175.1,-478.547 3178,-478 3339.06,-447.636 3383.94,-472.364 3545,-442 3546.07,-441.798 3547.16,-441.58 3548.25,-441.349"/>
<polygon fill="midnightblue" stroke="midnightblue" points="3549.23,-444.714 3558.14,-438.985 3547.6,-437.906 3549.23,-444.714"/>
</g>
<!-- Node66 -->
<g id="node237" class="node"><title>Node66</title>
<polygon fill="white" stroke="#bfbfbf" points="3626.5,-420.5 3626.5,-441.5 3677.5,-441.5 3677.5,-420.5 3626.5,-420.5"/>
<text text-anchor="middle" x="3652" y="-428.5" font-family="Helvetica,sans-Serif" font-size="10.00">TH2D.h</text>
</g>
<!-- Node2&#45;&gt;Node66 -->
<g id="edge342" class="edge"><title>Node2&#45;&gt;Node66</title>
<path fill="none" stroke="midnightblue" d="M3169.1,-479.89C3172.09,-479.172 3175.09,-478.524 3178,-478 3367.89,-443.784 3423.75,-479.238 3616.3,-441.986"/>
<polygon fill="midnightblue" stroke="midnightblue" points="3617.04,-445.408 3626.18,-440.036 3615.69,-438.54 3617.04,-445.408"/>
</g>
<!-- Node67 -->
<g id="node239" class="node"><title>Node67</title>
<polygon fill="white" stroke="#bfbfbf" points="3694.5,-420.5 3694.5,-441.5 3745.5,-441.5 3745.5,-420.5 3694.5,-420.5"/>
<text text-anchor="middle" x="3720" y="-428.5" font-family="Helvetica,sans-Serif" font-size="10.00">TH3D.h</text>
</g>
<!-- Node2&#45;&gt;Node67 -->
<g id="edge344" class="edge"><title>Node2&#45;&gt;Node67</title>
<path fill="none" stroke="midnightblue" d="M3169.09,-479.856C3172.08,-479.146 3175.09,-478.508 3178,-478 3397.71,-439.646 3461.93,-483.821 3684.16,-441.989"/>
<polygon fill="midnightblue" stroke="midnightblue" points="3685.02,-445.389 3694.18,-440.066 3683.7,-438.514 3685.02,-445.389"/>
</g>
<!-- Node5 -->
<g id="node9" class="node"><title>Node5</title>
<a xlink:href="interval_8h.html" target="_top" xlink:title="base/interval.h">
<polygon fill="white" stroke="black" points="1954,-116.5 1954,-137.5 2034,-137.5 2034,-116.5 1954,-116.5"/>
<text text-anchor="middle" x="1994" y="-124.5" font-family="Helvetica,sans-Serif" font-size="10.00">base/interval.h</text>
</a>
</g>
<!-- Node4&#45;&gt;Node5 -->
<g id="edge8" class="edge"><title>Node4&#45;&gt;Node5</title>
<path fill="none" stroke="midnightblue" d="M2444.5,-246.395C2410.91,-228.596 2339.51,-192.819 2275,-174 2177.86,-145.66 2147.36,-156.71 2043.97,-138.059"/>
<polygon fill="midnightblue" stroke="midnightblue" points="2044.54,-134.605 2034.07,-136.224 2043.26,-141.488 2044.54,-134.605"/>
</g>
<!-- Node14 -->
<g id="node27" class="node"><title>Node14</title>
<a xlink:href="_bin_settings_8h.html" target="_top" xlink:title="base/BinSettings.h">
<polygon fill="white" stroke="black" points="2089.5,-181.5 2089.5,-202.5 2188.5,-202.5 2188.5,-181.5 2089.5,-181.5"/>
<text text-anchor="middle" x="2139" y="-189.5" font-family="Helvetica,sans-Serif" font-size="10.00">base/BinSettings.h</text>
</a>
</g>
<!-- Node4&#45;&gt;Node14 -->
<g id="edge26" class="edge"><title>Node4&#45;&gt;Node14</title>
<path fill="none" stroke="midnightblue" d="M2389.53,-246.48C2335.68,-238.246 2261.39,-225.591 2197,-210 2191.56,-208.682 2185.87,-207.135 2180.29,-205.513"/>
<polygon fill="midnightblue" stroke="midnightblue" points="2180.99,-202.069 2170.4,-202.541 2178.97,-208.773 2180.99,-202.069"/>
</g>
<!-- Node15 -->
<g id="node30" class="node"><title>Node15</title>
<polygon fill="white" stroke="#bfbfbf" points="2381,-58.5 2381,-79.5 2425,-79.5 2425,-58.5 2381,-58.5"/>
<text text-anchor="middle" x="2403" y="-66.5" font-family="Helvetica,sans-Serif" font-size="10.00">vector</text>
</g>
<!-- Node4&#45;&gt;Node15 -->
<g id="edge36" class="edge"><title>Node4&#45;&gt;Node15</title>
<path fill="none" stroke="midnightblue" d="M2548.26,-254.217C2726.05,-247.935 3124.92,-231.51 3145,-210 3155.92,-198.303 3150.93,-188.862 3145,-174 3131.84,-141.002 3122.22,-130.953 3090,-116 2962.6,-56.8809 2598.35,-97.5768 2459,-80 2451.21,-79.0171 2442.87,-77.5884 2435.08,-76.084"/>
<polygon fill="midnightblue" stroke="midnightblue" points="2435.73,-72.6446 2425.23,-74.094 2434.34,-79.5058 2435.73,-72.6446"/>
</g>
<!-- Node4&#45;&gt;Node16 -->
<g id="edge34" class="edge"><title>Node4&#45;&gt;Node16</title>
<path fill="none" stroke="midnightblue" d="M2548.37,-255.807C2770.49,-252.255 3356.43,-240.067 3385,-210 3396.57,-197.82 3382.97,-123.395 3377,-116 3364.38,-100.369 3312.45,-84.9457 3278.45,-76.2331"/>
<polygon fill="midnightblue" stroke="midnightblue" points="3279.09,-72.7848 3268.54,-73.7518 3277.39,-79.5753 3279.09,-72.7848"/>
</g>
<!-- Node6 -->
<g id="node11" class="node"><title>Node6</title>
<a xlink:href="printable_8h.html" target="_top" xlink:title="printable.h">
<polygon fill="white" stroke="black" points="667,-58.5 667,-79.5 729,-79.5 729,-58.5 667,-58.5"/>
<text text-anchor="middle" x="698" y="-66.5" font-family="Helvetica,sans-Serif" font-size="10.00">printable.h</text>
</a>
</g>
<!-- Node5&#45;&gt;Node6 -->
<g id="edge10" class="edge"><title>Node5&#45;&gt;Node6</title>
<path fill="none" stroke="midnightblue" d="M1953.79,-122.971C1929.3,-120.64 1897.37,-117.817 1869,-116 1427.31,-87.7181 890.753,-73.5644 739.462,-69.9491"/>
<polygon fill="midnightblue" stroke="midnightblue" points="739.322,-66.4449 729.242,-69.707 739.156,-73.4429 739.322,-66.4449"/>
</g>
<!-- Node9 -->
<g id="node17" class="node"><title>Node9</title>
<a xlink:href="types_8h.html" target="_top" xlink:title="types.h">
<polygon fill="white" stroke="black" points="2467.5,-58.5 2467.5,-79.5 2516.5,-79.5 2516.5,-58.5 2467.5,-58.5"/>
<text text-anchor="middle" x="2492" y="-66.5" font-family="Helvetica,sans-Serif" font-size="10.00">types.h</text>
</a>
</g>
<!-- Node5&#45;&gt;Node9 -->
<g id="edge16" class="edge"><title>Node5&#45;&gt;Node9</title>
<path fill="none" stroke="midnightblue" d="M2034.03,-117.572C2037.06,-116.994 2040.07,-116.462 2043,-116 2215.38,-88.831 2261.19,-104.287 2434,-80 2441.54,-78.941 2449.58,-77.5709 2457.2,-76.1593"/>
<polygon fill="midnightblue" stroke="midnightblue" points="2458.09,-79.5536 2467.25,-74.234 2456.77,-72.6787 2458.09,-79.5536"/>
</g>
<!-- Node10 -->
<g id="node19" class="node"><title>Node10</title>
<polygon fill="white" stroke="#bfbfbf" points="2057,-58.5 2057,-79.5 2113,-79.5 2113,-58.5 2057,-58.5"/>
<text text-anchor="middle" x="2085" y="-66.5" font-family="Helvetica,sans-Serif" font-size="10.00">algorithm</text>
</g>
<!-- Node5&#45;&gt;Node10 -->
<g id="edge18" class="edge"><title>Node5&#45;&gt;Node10</title>
<path fill="none" stroke="midnightblue" d="M2010.69,-116.362C2024.42,-107.614 2044.08,-95.0786 2059.74,-85.1015"/>
<polygon fill="midnightblue" stroke="midnightblue" points="2061.86,-87.8969 2068.42,-79.5707 2058.1,-81.994 2061.86,-87.8969"/>
</g>
<!-- Node11 -->
<g id="node21" class="node"><title>Node11</title>
<polygon fill="white" stroke="#bfbfbf" points="1239.5,-58.5 1239.5,-79.5 1298.5,-79.5 1298.5,-58.5 1239.5,-58.5"/>
<text text-anchor="middle" x="1269" y="-66.5" font-family="Helvetica,sans-Serif" font-size="10.00">stdexcept</text>
</g>
<!-- Node5&#45;&gt;Node11 -->
<g id="edge20" class="edge"><title>Node5&#45;&gt;Node11</title>
<path fill="none" stroke="midnightblue" d="M1953.76,-123.36C1929.26,-121.169 1897.33,-118.356 1869,-116 1657.98,-98.451 1405.06,-79.2334 1308.82,-71.9861"/>
<polygon fill="midnightblue" stroke="midnightblue" points="1308.9,-68.4824 1298.66,-71.2222 1308.37,-75.4627 1308.9,-68.4824"/>
</g>
<!-- Node12 -->
<g id="node23" class="node"><title>Node12</title>
<polygon fill="white" stroke="#bfbfbf" points="1827,-58.5 1827,-79.5 1867,-79.5 1867,-58.5 1827,-58.5"/>
<text text-anchor="middle" x="1847" y="-66.5" font-family="Helvetica,sans-Serif" font-size="10.00">limits</text>
</g>
<!-- Node5&#45;&gt;Node12 -->
<g id="edge22" class="edge"><title>Node5&#45;&gt;Node12</title>
<path fill="none" stroke="midnightblue" d="M1967.38,-116.497C1941.85,-106.423 1903.37,-91.2396 1876.82,-80.7646"/>
<polygon fill="midnightblue" stroke="midnightblue" points="1877.86,-77.4154 1867.28,-77.0009 1875.3,-83.9269 1877.86,-77.4154"/>
</g>
<!-- Node13 -->
<g id="node25" class="node"><title>Node13</title>
<polygon fill="white" stroke="#bfbfbf" points="1969.5,-58.5 1969.5,-79.5 2018.5,-79.5 2018.5,-58.5 1969.5,-58.5"/>
<text text-anchor="middle" x="1994" y="-66.5" font-family="Helvetica,sans-Serif" font-size="10.00">istream</text>
</g>
<!-- Node5&#45;&gt;Node13 -->
<g id="edge24" class="edge"><title>Node5&#45;&gt;Node13</title>
<path fill="none" stroke="midnightblue" d="M1994,-116.362C1994,-108.922 1994,-98.7427 1994,-89.7276"/>
<polygon fill="midnightblue" stroke="midnightblue" points="1997.5,-89.5706 1994,-79.5707 1990.5,-89.5707 1997.5,-89.5706"/>
</g>
<!-- Node7 -->
<g id="node13" class="node"><title>Node7</title>
<polygon fill="white" stroke="#bfbfbf" points="667,-0.5 667,-21.5 729,-21.5 729,-0.5 667,-0.5"/>
<text text-anchor="middle" x="698" y="-8.5" font-family="Helvetica,sans-Serif" font-size="10.00">type_traits</text>
</g>
<!-- Node6&#45;&gt;Node7 -->
<g id="edge12" class="edge"><title>Node6&#45;&gt;Node7</title>
<path fill="none" stroke="midnightblue" d="M698,-58.3619C698,-50.9219 698,-40.7427 698,-31.7276"/>
<polygon fill="midnightblue" stroke="midnightblue" points="701.5,-31.5706 698,-21.5707 694.5,-31.5707 701.5,-31.5706"/>
</g>
<!-- Node8 -->
<g id="node15" class="node"><title>Node8</title>
<polygon fill="white" stroke="#bfbfbf" points="2440,-0.5 2440,-21.5 2492,-21.5 2492,-0.5 2440,-0.5"/>
<text text-anchor="middle" x="2466" y="-8.5" font-family="Helvetica,sans-Serif" font-size="10.00">ostream</text>
</g>
<!-- Node6&#45;&gt;Node8 -->
<g id="edge14" class="edge"><title>Node6&#45;&gt;Node8</title>
<path fill="none" stroke="midnightblue" d="M729.061,-67.981C943.214,-60.9556 2199.07,-19.7569 2429.64,-12.1928"/>
<polygon fill="midnightblue" stroke="midnightblue" points="2429.96,-15.6844 2439.84,-11.8583 2429.73,-8.68819 2429.96,-15.6844"/>
</g>
<!-- Node14&#45;&gt;Node5 -->
<g id="edge28" class="edge"><title>Node14&#45;&gt;Node5</title>
<path fill="none" stroke="midnightblue" d="M2115.38,-181.412C2091.37,-170.647 2053.96,-153.878 2027.02,-141.801"/>
<polygon fill="midnightblue" stroke="midnightblue" points="2028.17,-138.48 2017.61,-137.584 2025.3,-144.868 2028.17,-138.48"/>
</g>
<!-- Node14&#45;&gt;Node11 -->
<g id="edge32" class="edge"><title>Node14&#45;&gt;Node11</title>
<path fill="none" stroke="midnightblue" d="M2109.21,-181.431C2100.24,-178.611 2090.31,-175.84 2081,-174 1905.02,-139.221 1856.91,-160.902 1679,-138 1542.53,-120.433 1381.97,-90.7691 1308.86,-76.7642"/>
<polygon fill="midnightblue" stroke="midnightblue" points="1309.2,-73.2661 1298.72,-74.8149 1307.88,-80.1401 1309.2,-73.2661"/>
</g>
<!-- Node14&#45;&gt;Node15 -->
<g id="edge30" class="edge"><title>Node14&#45;&gt;Node15</title>
<path fill="none" stroke="midnightblue" d="M2172.72,-181.489C2180.68,-179.022 2189.14,-176.409 2197,-174 2249.83,-157.811 2267.04,-163.621 2316,-138 2342.27,-124.25 2368.39,-102.11 2385.04,-86.6287"/>
<polygon fill="midnightblue" stroke="midnightblue" points="2387.57,-89.0513 2392.42,-79.6293 2382.76,-83.9732 2387.57,-89.0513"/>
</g>
<!-- Node17&#45;&gt;Node18 -->
<g id="edge40" class="edge"><title>Node17&#45;&gt;Node18</title>
<path fill="none" stroke="midnightblue" d="M2805.01,-181.484C2742.59,-168.354 2637.32,-146.21 2582.17,-134.609"/>
<polygon fill="midnightblue" stroke="midnightblue" points="2582.66,-131.136 2572.16,-132.503 2581.22,-137.986 2582.66,-131.136"/>
</g>
<!-- Node17&#45;&gt;Node19 -->
<g id="edge42" class="edge"><title>Node17&#45;&gt;Node19</title>
<path fill="none" stroke="midnightblue" d="M2867.71,-181.267C2879.71,-171.139 2897.89,-155.792 2911.86,-144"/>
<polygon fill="midnightblue" stroke="midnightblue" points="2914.14,-146.659 2919.52,-137.534 2909.62,-141.31 2914.14,-146.659"/>
</g>
<!-- Node20&#45;&gt;Node6 -->
<g id="edge48" class="edge"><title>Node20&#45;&gt;Node6</title>
<path fill="none" stroke="midnightblue" d="M615.722,-181.343C607.491,-165.837 595.485,-136.654 608,-116 618.813,-98.1553 638.867,-86.7643 657.306,-79.674"/>
<polygon fill="midnightblue" stroke="midnightblue" points="658.476,-82.9728 666.743,-76.3469 656.148,-76.371 658.476,-82.9728"/>
</g>
<!-- Node20&#45;&gt;Node11 -->
<g id="edge52" class="edge"><title>Node20&#45;&gt;Node11</title>
<path fill="none" stroke="midnightblue" d="M636.402,-181.408C660.553,-164.282 711.365,-130.924 760,-116 847.662,-89.1002 1125.48,-75.0027 1229.32,-70.5673"/>
<polygon fill="midnightblue" stroke="midnightblue" points="1229.55,-74.0611 1239.39,-70.1444 1229.26,-67.0672 1229.55,-74.0611"/>
</g>
<!-- Node20&#45;&gt;Node18 -->
<g id="edge50" class="edge"><title>Node20&#45;&gt;Node18</title>
<path fill="none" stroke="midnightblue" d="M660.092,-185.221C684.319,-181.208 716.401,-176.445 745,-174 1375.79,-120.067 1536.14,-155.232 2169,-138 2294.19,-134.591 2442.76,-130.136 2509.89,-128.1"/>
<polygon fill="midnightblue" stroke="midnightblue" points="2510.06,-131.597 2519.95,-127.795 2509.85,-124.6 2510.06,-131.597"/>
</g>
<!-- Node21 -->
<g id="node44" class="node"><title>Node21</title>
<polygon fill="white" stroke="#bfbfbf" points="500,-116.5 500,-137.5 556,-137.5 556,-116.5 500,-116.5"/>
<text text-anchor="middle" x="528" y="-124.5" font-family="Helvetica,sans-Serif" font-size="10.00">Rtypes.h</text>
</g>
<!-- Node20&#45;&gt;Node21 -->
<g id="edge46" class="edge"><title>Node20&#45;&gt;Node21</title>
<path fill="none" stroke="midnightblue" d="M606.478,-181.267C591.558,-170.949 568.805,-155.216 551.633,-143.342"/>
<polygon fill="midnightblue" stroke="midnightblue" points="553.449,-140.343 543.233,-137.534 549.468,-146.1 553.449,-140.343"/>
</g>
<!-- Node22&#45;&gt;Node6 -->
<g id="edge56" class="edge"><title>Node22&#45;&gt;Node6</title>
<path fill="none" stroke="midnightblue" d="M1234.27,-429.197C999.916,-420.214 0,-378.182 0,-315 0,-315 0,-315 0,-192 0,-119.633 74.5551,-136.355 144,-116 192.779,-101.702 536.364,-79.1127 656.583,-71.5569"/>
<polygon fill="midnightblue" stroke="midnightblue" points="657.082,-75.0326 666.844,-70.9145 656.644,-68.0463 657.082,-75.0326"/>
</g>
<!-- Node23 -->
<g id="node52" class="node"><title>Node23</title>
<a xlink:href="_t_i_d_8h.html" target="_top" xlink:title="TID.h">
<polygon fill="white" stroke="black" points="380.5,-246.5 380.5,-267.5 421.5,-267.5 421.5,-246.5 380.5,-246.5"/>
<text text-anchor="middle" x="401" y="-254.5" font-family="Helvetica,sans-Serif" font-size="10.00">TID.h</text>
</a>
</g>
<!-- Node22&#45;&gt;Node23 -->
<g id="edge58" class="edge"><title>Node22&#45;&gt;Node23</title>
<path fill="none" stroke="midnightblue" d="M1234.36,-427.99C1156.03,-422.594 997.321,-409.388 865,-384 698.532,-352.06 504.381,-290.942 431.068,-266.985"/>
<polygon fill="midnightblue" stroke="midnightblue" points="432.134,-263.651 421.541,-263.858 429.951,-270.302 432.134,-263.651"/>
</g>
<!-- Node32 -->
<g id="node79" class="node"><title>Node32</title>
<a xlink:href="_t_detector_read_hit_8h.html" target="_top" xlink:title="TDetectorReadHit.h">
<polygon fill="white" stroke="black" points="792,-246.5 792,-267.5 896,-267.5 896,-246.5 792,-246.5"/>
<text text-anchor="middle" x="844" y="-254.5" font-family="Helvetica,sans-Serif" font-size="10.00">TDetectorReadHit.h</text>
</a>
</g>
<!-- Node22&#45;&gt;Node32 -->
<g id="edge94" class="edge"><title>Node22&#45;&gt;Node32</title>
<path fill="none" stroke="midnightblue" d="M1244.48,-420.437C1213.5,-411.621 1169.03,-398.237 1131,-384 1035.65,-348.299 926.576,-297.048 874.623,-271.972"/>
<polygon fill="midnightblue" stroke="midnightblue" points="876.128,-268.812 865.603,-267.603 873.077,-275.112 876.128,-268.812"/>
</g>
<!-- Node38 -->
<g id="node106" class="node"><title>Node38</title>
<a xlink:href="_t_slow_control_8h.html" target="_top" xlink:title="TSlowControl.h">
<polygon fill="white" stroke="black" points="138,-304.5 138,-325.5 222,-325.5 222,-304.5 138,-304.5"/>
<text text-anchor="middle" x="180" y="-312.5" font-family="Helvetica,sans-Serif" font-size="10.00">TSlowControl.h</text>
</a>
</g>
<!-- Node22&#45;&gt;Node38 -->
<g id="edge136" class="edge"><title>Node22&#45;&gt;Node38</title>
<path fill="none" stroke="midnightblue" d="M1234.37,-428.205C1131.63,-422.083 885.004,-406.238 679,-384 515.528,-366.354 323.035,-337.412 232.312,-323.283"/>
<polygon fill="midnightblue" stroke="midnightblue" points="232.704,-319.802 222.283,-321.717 231.623,-326.718 232.704,-319.802"/>
</g>
<!-- Node39 -->
<g id="node113" class="node"><title>Node39</title>
<a xlink:href="_t_unpacker_message_8h.html" target="_top" xlink:title="TUnpackerMessage.h">
<polygon fill="white" stroke="black" points="951.5,-246.5 951.5,-267.5 1064.5,-267.5 1064.5,-246.5 951.5,-246.5"/>
<text text-anchor="middle" x="1008" y="-254.5" font-family="Helvetica,sans-Serif" font-size="10.00">TUnpackerMessage.h</text>
</a>
</g>
<!-- Node22&#45;&gt;Node39 -->
<g id="edge148" class="edge"><title>Node22&#45;&gt;Node39</title>
<path fill="none" stroke="midnightblue" d="M1256.3,-420.437C1215.71,-403.714 1136.99,-368.627 1078,-326 1057.46,-311.157 1037.2,-290.317 1023.8,-275.431"/>
<polygon fill="midnightblue" stroke="midnightblue" points="1026.35,-273.029 1017.1,-267.85 1021.1,-277.662 1026.35,-273.029"/>
</g>
<!-- Node47 -->
<g id="node137" class="node"><title>Node47</title>
<a xlink:href="_t_tagger_hit_8h.html" target="_top" xlink:title="TTaggerHit.h">
<polygon fill="white" stroke="black" points="727,-304.5 727,-325.5 801,-325.5 801,-304.5 727,-304.5"/>
<text text-anchor="middle" x="764" y="-312.5" font-family="Helvetica,sans-Serif" font-size="10.00">TTaggerHit.h</text>
</a>
</g>
<!-- Node22&#45;&gt;Node47 -->
<g id="edge180" class="edge"><title>Node22&#45;&gt;Node47</title>
<path fill="none" stroke="midnightblue" d="M1234.4,-428.494C1165.77,-424.062 1036.99,-412.454 931,-384 881.088,-370.601 826.259,-345.873 793.509,-329.946"/>
<polygon fill="midnightblue" stroke="midnightblue" points="795,-326.779 784.482,-325.506 791.91,-333.06 795,-326.779"/>
</g>
<!-- Node49 -->
<g id="node147" class="node"><title>Node49</title>
<a xlink:href="_t_trigger_8h.html" target="_top" xlink:title="TTrigger.h">
<polygon fill="white" stroke="black" points="2205.5,-181.5 2205.5,-202.5 2266.5,-202.5 2266.5,-181.5 2205.5,-181.5"/>
<text text-anchor="middle" x="2236" y="-189.5" font-family="Helvetica,sans-Serif" font-size="10.00">TTrigger.h</text>
</a>
</g>
<!-- Node22&#45;&gt;Node49 -->
<g id="edge196" class="edge"><title>Node22&#45;&gt;Node49</title>
<path fill="none" stroke="midnightblue" d="M1331.89,-428.616C1443.09,-422.043 1722.43,-399.003 1943,-326 2043.98,-292.578 2156.61,-234.869 2207.87,-207.398"/>
<polygon fill="midnightblue" stroke="midnightblue" points="2209.57,-210.459 2216.71,-202.633 2206.24,-204.297 2209.57,-210.459"/>
</g>
<!-- Node50 -->
<g id="node154" class="node"><title>Node50</title>
<a xlink:href="_t_target_8h.html" target="_top" xlink:title="TTarget.h">
<polygon fill="white" stroke="black" points="2013.5,-181.5 2013.5,-202.5 2072.5,-202.5 2072.5,-181.5 2013.5,-181.5"/>
<text text-anchor="middle" x="2043" y="-189.5" font-family="Helvetica,sans-Serif" font-size="10.00">TTarget.h</text>
</a>
</g>
<!-- Node22&#45;&gt;Node50 -->
<g id="edge208" class="edge"><title>Node22&#45;&gt;Node50</title>
<path fill="none" stroke="midnightblue" d="M1331.5,-424.987C1390.38,-417.299 1492.55,-402.713 1579,-384 1768.69,-342.941 1846.96,-387.362 2000,-268 2018.21,-253.794 2029.98,-229.574 2036.52,-212.293"/>
<polygon fill="midnightblue" stroke="midnightblue" points="2039.92,-213.177 2039.93,-202.583 2033.31,-210.859 2039.92,-213.177"/>
</g>
<!-- Node51 -->
<g id="node162" class="node"><title>Node51</title>
<a xlink:href="_t_cluster_8h.html" target="_top" xlink:title="TCluster.h">
<polygon fill="white" stroke="black" points="1600,-246.5 1600,-267.5 1662,-267.5 1662,-246.5 1600,-246.5"/>
<text text-anchor="middle" x="1631" y="-254.5" font-family="Helvetica,sans-Serif" font-size="10.00">TCluster.h</text>
</a>
</g>
<!-- Node22&#45;&gt;Node51 -->
<g id="edge222" class="edge"><title>Node22&#45;&gt;Node51</title>
<path fill="none" stroke="midnightblue" d="M1304.25,-420.377C1363.58,-390.709 1531.24,-306.878 1600.49,-272.253"/>
<polygon fill="midnightblue" stroke="midnightblue" points="1602.21,-275.307 1609.59,-267.705 1599.08,-269.046 1602.21,-275.307"/>
</g>
<!-- Node54 -->
<g id="node179" class="node"><title>Node54</title>
<a xlink:href="_t_candidate_8h.html" target="_top" xlink:title="TCandidate.h">
<polygon fill="white" stroke="black" points="1593.5,-304.5 1593.5,-325.5 1668.5,-325.5 1668.5,-304.5 1593.5,-304.5"/>
<text text-anchor="middle" x="1631" y="-312.5" font-family="Helvetica,sans-Serif" font-size="10.00">TCandidate.h</text>
</a>
</g>
<!-- Node22&#45;&gt;Node54 -->
<g id="edge250" class="edge"><title>Node22&#45;&gt;Node54</title>
<path fill="none" stroke="midnightblue" d="M1331.58,-425.411C1397.22,-417.346 1510.33,-401.483 1548,-384 1574.2,-371.841 1598.94,-349.31 1614.48,-333.305"/>
<polygon fill="midnightblue" stroke="midnightblue" points="1617.41,-335.297 1621.72,-325.62 1612.32,-330.495 1617.41,-335.297"/>
</g>
<!-- Node55 -->
<g id="node188" class="node"><title>Node55</title>
<a xlink:href="_t_particle_8h.html" target="_top" xlink:title="TParticle.h">
<polygon fill="white" stroke="black" points="2585,-362.5 2585,-383.5 2649,-383.5 2649,-362.5 2585,-362.5"/>
<text text-anchor="middle" x="2617" y="-370.5" font-family="Helvetica,sans-Serif" font-size="10.00">TParticle.h</text>
</a>
</g>
<!-- Node22&#45;&gt;Node55 -->
<g id="edge266" class="edge"><title>Node22&#45;&gt;Node55</title>
<path fill="none" stroke="midnightblue" d="M1331.66,-428.884C1542.63,-419.712 2376.43,-383.46 2574.58,-374.844"/>
<polygon fill="midnightblue" stroke="midnightblue" points="2575.03,-378.328 2584.87,-374.397 2574.73,-371.335 2575.03,-378.328"/>
</g>
<!-- Node23&#45;&gt;Node6 -->
<g id="edge62" class="edge"><title>Node23&#45;&gt;Node6</title>
<path fill="none" stroke="midnightblue" d="M380.247,-248.625C363.186,-240.83 339.396,-227.744 324,-210 295.17,-176.773 263.741,-148.85 293,-116 316.933,-89.1294 558.366,-75.2925 656.678,-70.737"/>
<polygon fill="midnightblue" stroke="midnightblue" points="657.007,-74.2258 666.838,-70.2758 656.689,-67.233 657.007,-74.2258"/>
</g>
<!-- Node23&#45;&gt;Node7 -->
<g id="edge80" class="edge"><title>Node23&#45;&gt;Node7</title>
<path fill="none" stroke="midnightblue" d="M380.345,-255.525C347.486,-252.256 282.576,-241.944 239,-210 201.167,-182.266 162.227,-153.049 191,-116 248.218,-42.3247 545.923,-19.0955 656.55,-12.9422"/>
<polygon fill="midnightblue" stroke="midnightblue" points="656.859,-16.4307 666.657,-12.3989 656.484,-9.44079 656.859,-16.4307"/>
</g>
<!-- Node23&#45;&gt;Node11 -->
<g id="edge86" class="edge"><title>Node23&#45;&gt;Node11</title>
<path fill="none" stroke="midnightblue" d="M421.619,-255.286C467.166,-251.09 579.42,-238.497 669,-210 704.617,-198.67 710.609,-188.636 745,-174 811.914,-145.523 827.435,-133.581 898,-116 1016.1,-86.5742 1160.19,-75.041 1228.87,-70.9749"/>
<polygon fill="midnightblue" stroke="midnightblue" points="1229.44,-74.4479 1239.23,-70.3848 1229.04,-67.4593 1229.44,-74.4479"/>
</g>
<!-- Node23&#45;&gt;Node19 -->
<g id="edge88" class="edge"><title>Node23&#45;&gt;Node19</title>
<path fill="none" stroke="midnightblue" d="M421.702,-256.328C479.084,-254.48 645.037,-249.249 783,-246 892.21,-243.428 2647.89,-251.365 2749,-210 2770.53,-201.191 2766.84,-185.613 2787,-174 2833.31,-147.323 2853.92,-157.017 2907.43,-138.143"/>
<polygon fill="midnightblue" stroke="midnightblue" points="2908.9,-141.33 2917.06,-134.568 2906.46,-134.768 2908.9,-141.33"/>
</g>
<!-- Node23&#45;&gt;Node21 -->
<g id="edge60" class="edge"><title>Node23&#45;&gt;Node21</title>
<path fill="none" stroke="midnightblue" d="M416.324,-246.484C428.935,-237.49 446.957,-223.839 461,-210 481.555,-189.744 501.912,-163.393 514.696,-145.873"/>
<polygon fill="midnightblue" stroke="midnightblue" points="517.652,-147.757 520.651,-137.595 511.97,-143.669 517.652,-147.757"/>
</g>
<!-- Node24 -->
<g id="node56" class="node"><title>Node24</title>
<a xlink:href="time_8h.html" target="_top" xlink:title="base/std_ext/time.h">
<polygon fill="white" stroke="black" points="349.5,-181.5 349.5,-202.5 452.5,-202.5 452.5,-181.5 349.5,-181.5"/>
<text text-anchor="middle" x="401" y="-189.5" font-family="Helvetica,sans-Serif" font-size="10.00">base/std_ext/time.h</text>
</a>
</g>
<!-- Node23&#45;&gt;Node24 -->
<g id="edge64" class="edge"><title>Node23&#45;&gt;Node24</title>
<path fill="none" stroke="midnightblue" d="M401,-246.267C401,-237.18 401,-223.892 401,-212.74"/>
<polygon fill="midnightblue" stroke="midnightblue" points="404.5,-212.534 401,-202.534 397.5,-212.534 404.5,-212.534"/>
</g>
<!-- Node28 -->
<g id="node67" class="node"><title>Node28</title>
<polygon fill="white" stroke="#bfbfbf" points="301.5,-116.5 301.5,-137.5 342.5,-137.5 342.5,-116.5 301.5,-116.5"/>
<text text-anchor="middle" x="322" y="-124.5" font-family="Helvetica,sans-Serif" font-size="10.00">ctime</text>
</g>
<!-- Node23&#45;&gt;Node28 -->
<g id="edge92" class="edge"><title>Node23&#45;&gt;Node28</title>
<path fill="none" stroke="midnightblue" d="M381.322,-246.428C367.942,-238.23 350.929,-225.639 341,-210 328.984,-191.074 324.537,-165.443 322.908,-147.693"/>
<polygon fill="midnightblue" stroke="midnightblue" points="326.388,-147.288 322.204,-137.554 319.405,-147.772 326.388,-147.288"/>
</g>
<!-- Node29 -->
<g id="node70" class="node"><title>Node29</title>
<polygon fill="white" stroke="#bfbfbf" points="142,-181.5 142,-202.5 180,-202.5 180,-181.5 142,-181.5"/>
<text text-anchor="middle" x="161" y="-189.5" font-family="Helvetica,sans-Serif" font-size="10.00">tuple</text>
</g>
<!-- Node23&#45;&gt;Node29 -->
<g id="edge82" class="edge"><title>Node23&#45;&gt;Node29</title>
<path fill="none" stroke="midnightblue" d="M380.476,-254.261C342.664,-248.798 259.843,-234.882 194,-210 191.867,-209.194 189.702,-208.273 187.553,-207.283"/>
<polygon fill="midnightblue" stroke="midnightblue" points="188.888,-204.036 178.384,-202.646 185.728,-210.282 188.888,-204.036"/>
</g>
<!-- Node30 -->
<g id="node72" class="node"><title>Node30</title>
<polygon fill="white" stroke="#bfbfbf" points="200,-116.5 200,-137.5 246,-137.5 246,-116.5 200,-116.5"/>
<text text-anchor="middle" x="223" y="-124.5" font-family="Helvetica,sans-Serif" font-size="10.00">cstdint</text>
</g>
<!-- Node23&#45;&gt;Node30 -->
<g id="edge84" class="edge"><title>Node23&#45;&gt;Node30</title>
<path fill="none" stroke="midnightblue" d="M380.146,-254.125C352.246,-249.338 302.525,-237.396 270,-210 250.215,-193.335 237.076,-166.104 229.838,-147.406"/>
<polygon fill="midnightblue" stroke="midnightblue" points="233.042,-145.975 226.336,-137.773 226.463,-148.367 233.042,-145.975"/>
</g>
<!-- Node31 -->
<g id="node76" class="node"><title>Node31</title>
<polygon fill="white" stroke="#bfbfbf" points="754,-181.5 754,-202.5 804,-202.5 804,-181.5 754,-181.5"/>
<text text-anchor="middle" x="779" y="-189.5" font-family="Helvetica,sans-Serif" font-size="10.00">iomanip</text>
</g>
<!-- Node23&#45;&gt;Node31 -->
<g id="edge90" class="edge"><title>Node23&#45;&gt;Node31</title>
<path fill="none" stroke="midnightblue" d="M421.53,-254.334C470.35,-247.876 597.131,-230.415 702,-210 715.717,-207.33 730.699,-203.937 743.772,-200.819"/>
<polygon fill="midnightblue" stroke="midnightblue" points="744.889,-204.15 753.786,-198.396 743.243,-197.346 744.889,-204.15"/>
</g>
<!-- Node25 -->
<g id="node58" class="node"><title>Node25</title>
<a xlink:href="string_8h.html" target="_top" xlink:title="base/std_ext/string.h">
<polygon fill="white" stroke="black" points="2052,-116.5 2052,-137.5 2160,-137.5 2160,-116.5 2052,-116.5"/>
<text text-anchor="middle" x="2106" y="-124.5" font-family="Helvetica,sans-Serif" font-size="10.00">base/std_ext/string.h</text>
</a>
</g>
<!-- Node24&#45;&gt;Node25 -->
<g id="edge66" class="edge"><title>Node24&#45;&gt;Node25</title>
<path fill="none" stroke="midnightblue" d="M452.684,-185.578C487.25,-181.549 533.781,-176.633 575,-174 1222.97,-132.603 1391.81,-201.59 2041.69,-137.988"/>
<polygon fill="midnightblue" stroke="midnightblue" points="2042.17,-141.458 2051.77,-136.994 2041.48,-134.492 2042.17,-141.458"/>
</g>
<!-- Node27 -->
<g id="node65" class="node"><title>Node27</title>
<polygon fill="white" stroke="#bfbfbf" points="360,-116.5 360,-137.5 406,-137.5 406,-116.5 360,-116.5"/>
<text text-anchor="middle" x="383" y="-124.5" font-family="Helvetica,sans-Serif" font-size="10.00">cstring</text>
</g>
<!-- Node24&#45;&gt;Node27 -->
<g id="edge76" class="edge"><title>Node24&#45;&gt;Node27</title>
<path fill="none" stroke="midnightblue" d="M398.028,-181.267C395.485,-172.085 391.755,-158.615 388.647,-147.392"/>
<polygon fill="midnightblue" stroke="midnightblue" points="391.959,-146.237 385.917,-137.534 385.213,-148.105 391.959,-146.237"/>
</g>
<!-- Node24&#45;&gt;Node28 -->
<g id="edge78" class="edge"><title>Node24&#45;&gt;Node28</title>
<path fill="none" stroke="midnightblue" d="M387.955,-181.267C375.646,-171.139 356.993,-155.792 342.661,-144"/>
<polygon fill="midnightblue" stroke="midnightblue" points="344.748,-141.185 334.803,-137.534 340.301,-146.59 344.748,-141.185"/>
</g>
<!-- Node25&#45;&gt;Node10 -->
<g id="edge72" class="edge"><title>Node25&#45;&gt;Node10</title>
<path fill="none" stroke="midnightblue" d="M2102.15,-116.362C2099.4,-108.758 2095.61,-98.294 2092.29,-89.1349"/>
<polygon fill="midnightblue" stroke="midnightblue" points="2095.52,-87.7818 2088.83,-79.5707 2088.94,-90.1649 2095.52,-87.7818"/>
</g>
<!-- Node25&#45;&gt;Node15 -->
<g id="edge74" class="edge"><title>Node25&#45;&gt;Node15</title>
<path fill="none" stroke="midnightblue" d="M2159.78,-116.497C2221.27,-104.489 2319.94,-85.2196 2370.64,-75.3203"/>
<polygon fill="midnightblue" stroke="midnightblue" points="2371.55,-78.7079 2380.69,-73.3561 2370.21,-71.8377 2371.55,-78.7079"/>
</g>
<!-- Node25&#45;&gt;Node16 -->
<g id="edge68" class="edge"><title>Node25&#45;&gt;Node16</title>
<path fill="none" stroke="midnightblue" d="M2160.31,-124.242C2361.6,-114.019 3061.44,-78.4752 3217.14,-70.5673"/>
<polygon fill="midnightblue" stroke="midnightblue" points="3217.59,-74.0492 3227.4,-70.0464 3217.23,-67.0582 3217.59,-74.0492"/>
</g>
<!-- Node26 -->
<g id="node61" class="node"><title>Node26</title>
<polygon fill="white" stroke="#bfbfbf" points="427,-58.5 427,-79.5 479,-79.5 479,-58.5 427,-58.5"/>
<text text-anchor="middle" x="453" y="-66.5" font-family="Helvetica,sans-Serif" font-size="10.00">sstream</text>
</g>
<!-- Node25&#45;&gt;Node26 -->
<g id="edge70" class="edge"><title>Node25&#45;&gt;Node26</title>
<path fill="none" stroke="midnightblue" d="M2051.77,-117.011C2048.81,-116.628 2045.87,-116.287 2043,-116 1430.28,-54.8793 1273.28,-104.499 658,-80 598.866,-77.6454 530.198,-73.7175 489.242,-71.2479"/>
<polygon fill="midnightblue" stroke="midnightblue" points="489.395,-67.7508 479.201,-70.6381 488.971,-74.7379 489.395,-67.7508"/>
</g>
<!-- Node32&#45;&gt;Node26 -->
<g id="edge134" class="edge"><title>Node32&#45;&gt;Node26</title>
<path fill="none" stroke="midnightblue" d="M791.77,-255.07C708.576,-251.13 550.599,-239.857 504,-210 472.026,-189.514 469.961,-174.04 458,-138 452.806,-122.349 451.745,-103.639 451.878,-89.653"/>
<polygon fill="midnightblue" stroke="midnightblue" points="455.378,-89.6998 452.184,-79.5979 448.381,-89.4866 455.378,-89.6998"/>
</g>
<!-- Node32&#45;&gt;Node31 -->
<g id="edge132" class="edge"><title>Node32&#45;&gt;Node31</title>
<path fill="none" stroke="midnightblue" d="M833.267,-246.267C823.328,-236.328 808.363,-221.363 796.664,-209.664"/>
<polygon fill="midnightblue" stroke="midnightblue" points="799.08,-207.13 789.534,-202.534 794.13,-212.08 799.08,-207.13"/>
</g>
<!-- Node33 -->
<g id="node81" class="node"><title>Node33</title>
<a xlink:href="_detector__t_8h.html" target="_top" xlink:title="base/Detector_t.h">
<polygon fill="white" stroke="black" points="1135.5,-181.5 1135.5,-202.5 1230.5,-202.5 1230.5,-181.5 1135.5,-181.5"/>
<text text-anchor="middle" x="1183" y="-189.5" font-family="Helvetica,sans-Serif" font-size="10.00">base/Detector_t.h</text>
</a>
</g>
<!-- Node32&#45;&gt;Node33 -->
<g id="edge96" class="edge"><title>Node32&#45;&gt;Node33</title>
<path fill="none" stroke="midnightblue" d="M896.226,-246.986C958.194,-235.104 1061.18,-215.358 1125.41,-203.043"/>
<polygon fill="midnightblue" stroke="midnightblue" points="1126.21,-206.453 1135.37,-201.132 1124.89,-199.578 1126.21,-206.453"/>
</g>
<!-- Node33&#45;&gt;Node6 -->
<g id="edge98" class="edge"><title>Node33&#45;&gt;Node6</title>
<path fill="none" stroke="midnightblue" d="M1135.35,-189.249C1067.48,-184.293 939.673,-171.097 836,-138 794.685,-124.81 750.429,-100.704 723.479,-84.7658"/>
<polygon fill="midnightblue" stroke="midnightblue" points="725.077,-81.6431 714.701,-79.5002 721.476,-87.6459 725.077,-81.6431"/>
</g>
<!-- Node33&#45;&gt;Node7 -->
<g id="edge128" class="edge"><title>Node33&#45;&gt;Node7</title>
<path fill="none" stroke="midnightblue" d="M1135.33,-188.493C1077.46,-183.001 977.732,-169.523 898,-138 827.124,-109.978 754.068,-55.9849 719.121,-28.2985"/>
<polygon fill="midnightblue" stroke="midnightblue" points="721.075,-25.3788 711.082,-21.8581 716.698,-30.8419 721.075,-25.3788"/>
</g>
<!-- Node33&#45;&gt;Node11 -->
<g id="edge124" class="edge"><title>Node33&#45;&gt;Node11</title>
<path fill="none" stroke="midnightblue" d="M1135.4,-189.745C1064.23,-185.264 935.396,-172.49 907,-138 900.785,-130.451 900.546,-123.346 907,-116 928.048,-92.0425 1139.78,-76.7032 1229.34,-71.2403"/>
<polygon fill="midnightblue" stroke="midnightblue" points="1229.61,-74.7305 1239.38,-70.638 1229.19,-67.743 1229.61,-74.7305"/>
</g>
<!-- Node33&#45;&gt;Node15 -->
<g id="edge130" class="edge"><title>Node33&#45;&gt;Node15</title>
<path fill="none" stroke="midnightblue" d="M1210.82,-181.41C1219.7,-178.479 1229.65,-175.652 1239,-174 1442.67,-138.022 1972.25,-201.751 2169,-138 2185.77,-132.567 2185.83,-123.008 2202,-116 2258.6,-91.4776 2329.95,-78.6841 2370.63,-72.9329"/>
<polygon fill="midnightblue" stroke="midnightblue" points="2371.33,-76.37 2380.77,-71.5565 2370.39,-69.4336 2371.33,-76.37"/>
</g>
<!-- Node33&#45;&gt;Node16 -->
<g id="edge126" class="edge"><title>Node33&#45;&gt;Node16</title>
<path fill="none" stroke="midnightblue" d="M1210.54,-181.498C1219.48,-178.533 1229.55,-175.664 1239,-174 1449.25,-136.991 1985.98,-152.126 2199,-138 2301.91,-131.176 2327.17,-123.848 2430,-116 2736.82,-92.5833 3109.19,-75.1816 3217.25,-70.3497"/>
<polygon fill="midnightblue" stroke="midnightblue" points="3217.6,-73.8376 3227.44,-69.8966 3217.29,-66.8446 3217.6,-73.8376"/>
</g>
<!-- Node33&#45;&gt;Node30 -->
<g id="edge122" class="edge"><title>Node33&#45;&gt;Node30</title>
<path fill="none" stroke="midnightblue" d="M1135.4,-189.712C975.54,-181.936 458.723,-156.007 293,-138 281.015,-136.698 267.947,-134.78 256.383,-132.91"/>
<polygon fill="midnightblue" stroke="midnightblue" points="256.698,-129.414 246.259,-131.224 255.549,-136.319 256.698,-129.414"/>
</g>
<!-- Node34 -->
<g id="node84" class="node"><title>Node34</title>
<a xlink:href="vec3_8h.html" target="_top" xlink:title="base/vec/vec3.h">
<polygon fill="white" stroke="black" points="1353.5,-116.5 1353.5,-137.5 1442.5,-137.5 1442.5,-116.5 1353.5,-116.5"/>
<text text-anchor="middle" x="1398" y="-124.5" font-family="Helvetica,sans-Serif" font-size="10.00">base/vec/vec3.h</text>
</a>
</g>
<!-- Node33&#45;&gt;Node34 -->
<g id="edge100" class="edge"><title>Node33&#45;&gt;Node34</title>
<path fill="none" stroke="midnightblue" d="M1215.24,-181.495C1223.01,-179.002 1231.29,-176.378 1239,-174 1276.73,-162.363 1319.67,-149.704 1351.41,-140.459"/>
<polygon fill="midnightblue" stroke="midnightblue" points="1352.67,-143.736 1361.3,-137.583 1350.72,-137.014 1352.67,-143.736"/>
</g>
<!-- Node37 -->
<g id="node92" class="node"><title>Node37</title>
<a xlink:href="math_8h.html" target="_top" xlink:title="base/std_ext/math.h">
<polygon fill="white" stroke="black" points="1688,-116.5 1688,-137.5 1794,-137.5 1794,-116.5 1688,-116.5"/>
<text text-anchor="middle" x="1741" y="-124.5" font-family="Helvetica,sans-Serif" font-size="10.00">base/std_ext/math.h</text>
</a>
</g>
<!-- Node33&#45;&gt;Node37 -->
<g id="edge110" class="edge"><title>Node33&#45;&gt;Node37</title>
<path fill="none" stroke="midnightblue" d="M1211.75,-181.438C1220.4,-178.618 1230,-175.846 1239,-174 1394.54,-142.117 1581.7,-131.819 1677.57,-128.525"/>
<polygon fill="midnightblue" stroke="midnightblue" points="1677.8,-132.02 1687.68,-128.192 1677.57,-125.023 1677.8,-132.02"/>
</g>
<!-- Node34&#45;&gt;Node6 -->
<g id="edge102" class="edge"><title>Node34&#45;&gt;Node6</title>
<path fill="none" stroke="midnightblue" d="M1353.23,-123.15C1328.41,-121.024 1297,-118.346 1269,-116 1070.72,-99.3859 833.663,-80.0384 739.5,-72.3739"/>
<polygon fill="midnightblue" stroke="midnightblue" points="739.511,-68.8633 729.26,-71.5406 738.944,-75.8403 739.511,-68.8633"/>
</g>
<!-- Node35 -->
<g id="node87" class="node"><title>Node35</title>
<a xlink:href="vec2_8h.html" target="_top" xlink:title="vec2.h">
<polygon fill="white" stroke="black" points="1426,-58.5 1426,-79.5 1472,-79.5 1472,-58.5 1426,-58.5"/>
<text text-anchor="middle" x="1449" y="-66.5" font-family="Helvetica,sans-Serif" font-size="10.00">vec2.h</text>
</a>
</g>
<!-- Node34&#45;&gt;Node35 -->
<g id="edge104" class="edge"><title>Node34&#45;&gt;Node35</title>
<path fill="none" stroke="midnightblue" d="M1407.35,-116.362C1414.54,-108.186 1424.64,-96.7025 1433.09,-87.0907"/>
<polygon fill="midnightblue" stroke="midnightblue" points="1435.73,-89.3916 1439.71,-79.5707 1430.47,-84.7692 1435.73,-89.3916"/>
</g>
<!-- Node36 -->
<g id="node89" class="node"><title>Node36</title>
<polygon fill="white" stroke="#bfbfbf" points="1427,-0.5 1427,-21.5 1471,-21.5 1471,-0.5 1427,-0.5"/>
<text text-anchor="middle" x="1449" y="-8.5" font-family="Helvetica,sans-Serif" font-size="10.00">cmath</text>
</g>
<!-- Node34&#45;&gt;Node36 -->
<g id="edge108" class="edge"><title>Node34&#45;&gt;Node36</title>
<path fill="none" stroke="midnightblue" d="M1399.81,-116.337C1402.41,-102.447 1407.92,-77.6222 1417,-58 1421.56,-48.1306 1428.13,-38.0524 1434.12,-29.7725"/>
<polygon fill="midnightblue" stroke="midnightblue" points="1437.06,-31.683 1440.28,-21.5887 1431.47,-27.4729 1437.06,-31.683"/>
</g>
<!-- Node35&#45;&gt;Node36 -->
<g id="edge106" class="edge"><title>Node35&#45;&gt;Node36</title>
<path fill="none" stroke="midnightblue" d="M1449,-58.3619C1449,-50.9219 1449,-40.7427 1449,-31.7276"/>
<polygon fill="midnightblue" stroke="midnightblue" points="1452.5,-31.5706 1449,-21.5707 1445.5,-31.5707 1452.5,-31.5706"/>
</g>
<!-- Node37&#45;&gt;Node10 -->
<g id="edge118" class="edge"><title>Node37&#45;&gt;Node10</title>
<path fill="none" stroke="midnightblue" d="M1794.09,-117.522C1797.1,-117.003 1800.09,-116.492 1803,-116 1902.42,-99.1921 1927.68,-97.396 2027,-80 2033.36,-78.886 2040.1,-77.6542 2046.65,-76.4299"/>
<polygon fill="midnightblue" stroke="midnightblue" points="2047.53,-79.8259 2056.71,-74.5303 2046.23,-72.9476 2047.53,-79.8259"/>
</g>
<!-- Node37&#45;&gt;Node11 -->
<g id="edge120" class="edge"><title>Node37&#45;&gt;Node11</title>
<path fill="none" stroke="midnightblue" d="M1687.77,-120.459C1592.19,-108.714 1393.53,-84.303 1308.75,-73.8842"/>
<polygon fill="midnightblue" stroke="midnightblue" points="1309.1,-70.4013 1298.75,-72.6555 1308.25,-77.3491 1309.1,-70.4013"/>
</g>
<!-- Node37&#45;&gt;Node12 -->
<g id="edge114" class="edge"><title>Node37&#45;&gt;Node12</title>
<path fill="none" stroke="midnightblue" d="M1760.44,-116.362C1776.8,-107.409 1800.41,-94.4908 1818.84,-84.4064"/>
<polygon fill="midnightblue" stroke="midnightblue" points="1820.59,-87.4412 1827.68,-79.5707 1817.23,-81.3004 1820.59,-87.4412"/>
</g>
<!-- Node37&#45;&gt;Node15 -->
<g id="edge116" class="edge"><title>Node37&#45;&gt;Node15</title>
<path fill="none" stroke="midnightblue" d="M1794.05,-117.238C1797.07,-116.791 1800.07,-116.374 1803,-116 2018.88,-88.461 2280.65,-74.6219 2370.73,-70.4196"/>
<polygon fill="midnightblue" stroke="midnightblue" points="2371.03,-73.91 2380.85,-69.9547 2370.7,-66.9174 2371.03,-73.91"/>
</g>
<!-- Node37&#45;&gt;Node36 -->
<g id="edge112" class="edge"><title>Node37&#45;&gt;Node36</title>
<path fill="none" stroke="midnightblue" d="M1733.94,-116.455C1723.01,-101.029 1700.48,-72.5692 1674,-58 1641.14,-39.9199 1535.23,-23.0516 1481.26,-15.363"/>
<polygon fill="midnightblue" stroke="midnightblue" points="1481.59,-11.8744 1471.2,-13.95 1480.61,-18.8064 1481.59,-11.8744"/>
</g>
<!-- Node38&#45;&gt;Node6 -->
<g id="edge142" class="edge"><title>Node38&#45;&gt;Node6</title>
<path fill="none" stroke="midnightblue" d="M164.644,-304.49C153.474,-295.987 138.966,-282.989 131,-268 111.284,-230.9 103.126,-212.022 121,-174 138.189,-137.436 153.665,-131.442 191,-116 233.627,-98.3693 543.805,-78.2429 656.891,-71.4119"/>
<polygon fill="midnightblue" stroke="midnightblue" points="657.12,-74.9046 666.892,-70.8115 656.7,-67.9172 657.12,-74.9046"/>
</g>
<!-- Node38&#45;&gt;Node23 -->
<g id="edge138" class="edge"><title>Node38&#45;&gt;Node23</title>
<path fill="none" stroke="midnightblue" d="M220.021,-304.497C263.297,-293.139 331.324,-275.286 370.483,-265.009"/>
<polygon fill="midnightblue" stroke="midnightblue" points="371.468,-268.369 380.252,-262.445 369.691,-261.598 371.468,-268.369"/>
</g>
<!-- Node38&#45;&gt;Node24 -->
<g id="edge140" class="edge"><title>Node38&#45;&gt;Node24</title>
<path fill="none" stroke="midnightblue" d="M199.226,-304.3C238.426,-282.482 327.718,-232.786 373.225,-207.459"/>
<polygon fill="midnightblue" stroke="midnightblue" points="374.94,-210.509 381.976,-202.588 371.536,-204.393 374.94,-210.509"/>
</g>
<!-- Node38&#45;&gt;Node29 -->
<g id="edge146" class="edge"><title>Node38&#45;&gt;Node29</title>
<path fill="none" stroke="midnightblue" d="M178.314,-304.085C175.151,-283.609 168.281,-239.133 164.21,-212.778"/>
<polygon fill="midnightblue" stroke="midnightblue" points="167.641,-212.064 162.655,-202.715 160.723,-213.132 167.641,-212.064"/>
</g>
<!-- Node38&#45;&gt;Node30 -->
<g id="edge144" class="edge"><title>Node38&#45;&gt;Node30</title>
<path fill="none" stroke="midnightblue" d="M170.702,-304.414C150.425,-279.982 106.123,-218.357 133,-174 145.403,-153.53 169.968,-141.552 190.304,-134.817"/>
<polygon fill="midnightblue" stroke="midnightblue" points="191.32,-138.166 199.876,-131.918 189.291,-131.467 191.32,-138.166"/>
</g>
<!-- Node39&#45;&gt;Node6 -->
<g id="edge178" class="edge"><title>Node39&#45;&gt;Node6</title>
<path fill="none" stroke="midnightblue" d="M985.854,-246.45C950.068,-229.66 877.059,-196.464 813,-174 756.83,-154.302 719.991,-185.41 684,-138 673.33,-123.944 679.147,-103.796 686.25,-88.8985"/>
<polygon fill="midnightblue" stroke="midnightblue" points="689.382,-90.4627 690.942,-79.9834 683.187,-87.2024 689.382,-90.4627"/>
</g>
<!-- Node40 -->
<g id="node115" class="node"><title>Node40</title>
<a xlink:href="_format_8h.html" target="_top" xlink:title="base/Format.h">
<polygon fill="white" stroke="black" points="1248,-181.5 1248,-202.5 1328,-202.5 1328,-181.5 1248,-181.5"/>
<text text-anchor="middle" x="1288" y="-189.5" font-family="Helvetica,sans-Serif" font-size="10.00">base/Format.h</text>
</a>
</g>
<!-- Node39&#45;&gt;Node40 -->
<g id="edge150" class="edge"><title>Node39&#45;&gt;Node40</title>
<path fill="none" stroke="midnightblue" d="M1064.59,-247.952C1111.71,-239.832 1180.33,-226.64 1239,-210 1243.17,-208.818 1247.49,-207.449 1251.76,-206.005"/>
<polygon fill="midnightblue" stroke="midnightblue" points="1253.28,-209.182 1261.54,-202.551 1250.94,-202.581 1253.28,-209.182"/>
</g>
<!-- Node40&#45;&gt;Node11 -->
<g id="edge168" class="edge"><title>Node40&#45;&gt;Node11</title>
<path fill="none" stroke="midnightblue" d="M1286.31,-181.085C1283.15,-160.609 1276.28,-116.133 1272.21,-89.778"/>
<polygon fill="midnightblue" stroke="midnightblue" points="1275.64,-89.0638 1270.66,-79.7153 1268.72,-90.1325 1275.64,-89.0638"/>
</g>
<!-- Node40&#45;&gt;Node12 -->
<g id="edge164" class="edge"><title>Node40&#45;&gt;Node12</title>
<path fill="none" stroke="midnightblue" d="M1328.2,-183.154C1434.75,-159.711 1722.63,-96.3648 1816.77,-75.6526"/>
<polygon fill="midnightblue" stroke="midnightblue" points="1817.75,-79.0198 1826.76,-73.4526 1816.25,-72.1834 1817.75,-79.0198"/>
</g>
<!-- Node40&#45;&gt;Node15 -->
<g id="edge172" class="edge"><title>Node40&#45;&gt;Node15</title>
<path fill="none" stroke="midnightblue" d="M1328.12,-191.594C1481.78,-189.736 2032.73,-180.212 2202,-138 2224.77,-132.322 2228.07,-124.353 2250,-116 2291.06,-100.361 2339.77,-86.1101 2371.01,-77.4991"/>
<polygon fill="midnightblue" stroke="midnightblue" points="2372.18,-80.8097 2380.9,-74.8012 2370.34,-74.0565 2372.18,-80.8097"/>
</g>
<!-- Node40&#45;&gt;Node16 -->
<g id="edge170" class="edge"><title>Node40&#45;&gt;Node16</title>
<path fill="none" stroke="midnightblue" d="M1328.25,-191.273C1504.71,-187.905 2211.02,-172.493 2430,-138 2466.85,-132.196 2474.2,-122.107 2511,-116 2650.35,-92.8754 3095.84,-74.7383 3217.21,-70.1352"/>
<polygon fill="midnightblue" stroke="midnightblue" points="3217.44,-73.6293 3227.3,-69.7556 3217.17,-66.6342 3217.44,-73.6293"/>
</g>
<!-- Node40&#45;&gt;Node18 -->
<g id="edge166" class="edge"><title>Node40&#45;&gt;Node18</title>
<path fill="none" stroke="midnightblue" d="M1328.08,-191.536C1478.3,-189.507 2022.1,-179.551 2468,-138 2481.65,-136.728 2496.56,-134.767 2509.66,-132.85"/>
<polygon fill="midnightblue" stroke="midnightblue" points="2510.35,-136.286 2519.72,-131.337 2509.31,-129.364 2510.35,-136.286"/>
</g>
<!-- Node40&#45;&gt;Node27 -->
<g id="edge162" class="edge"><title>Node40&#45;&gt;Node27</title>
<path fill="none" stroke="midnightblue" d="M1263.75,-181.438C1255.99,-178.509 1247.26,-175.675 1239,-174 912.81,-107.855 822.899,-162.871 491,-138 465.918,-136.12 437.637,-133.211 416.309,-130.857"/>
<polygon fill="midnightblue" stroke="midnightblue" points="416.47,-127.353 406.143,-129.718 415.691,-134.309 416.47,-127.353"/>
</g>
<!-- Node40&#45;&gt;Node36 -->
<g id="edge158" class="edge"><title>Node40&#45;&gt;Node36</title>
<path fill="none" stroke="midnightblue" d="M1295.31,-181.323C1305.75,-166.286 1325.82,-138.224 1345,-116 1372.95,-83.6209 1408.6,-48.8871 1430.07,-28.5952"/>
<polygon fill="midnightblue" stroke="midnightblue" points="1432.66,-30.9581 1437.56,-21.5603 1427.87,-25.8561 1432.66,-30.9581"/>
</g>
<!-- Node41 -->
<g id="node117" class="node"><title>Node41</title>
<polygon fill="white" stroke="#bfbfbf" points="1164,-116.5 1164,-137.5 1260,-137.5 1260,-116.5 1164,-116.5"/>
<text text-anchor="middle" x="1212" y="-124.5" font-family="Helvetica,sans-Serif" font-size="10.00">detail/fmt/format.h</text>
</g>
<!-- Node40&#45;&gt;Node41 -->
<g id="edge152" class="edge"><title>Node40&#45;&gt;Node41</title>
<path fill="none" stroke="midnightblue" d="M1275.45,-181.267C1263.72,-171.233 1246,-156.078 1232.26,-144.331"/>
<polygon fill="midnightblue" stroke="midnightblue" points="1234.19,-141.374 1224.32,-137.534 1229.64,-146.693 1234.19,-141.374"/>
</g>
<!-- Node42 -->
<g id="node119" class="node"><title>Node42</title>
<polygon fill="white" stroke="#bfbfbf" points="1811.5,-116.5 1811.5,-137.5 1860.5,-137.5 1860.5,-116.5 1811.5,-116.5"/>
<text text-anchor="middle" x="1836" y="-124.5" font-family="Helvetica,sans-Serif" font-size="10.00">cassert</text>
</g>
<!-- Node40&#45;&gt;Node42 -->
<g id="edge154" class="edge"><title>Node40&#45;&gt;Node42</title>
<path fill="none" stroke="midnightblue" d="M1328.21,-190.751C1413.98,-187.452 1621.14,-176.115 1801.37,-138.007"/>
<polygon fill="midnightblue" stroke="midnightblue" points="1802.25,-141.398 1811.29,-135.876 1800.78,-134.554 1802.25,-141.398"/>
</g>
<!-- Node43 -->
<g id="node121" class="node"><title>Node43</title>
<polygon fill="white" stroke="#bfbfbf" points="915.5,-116.5 915.5,-137.5 962.5,-137.5 962.5,-116.5 915.5,-116.5"/>
<text text-anchor="middle" x="939" y="-124.5" font-family="Helvetica,sans-Serif" font-size="10.00">clocale</text>
</g>
<!-- Node40&#45;&gt;Node43 -->
<g id="edge156" class="edge"><title>Node40&#45;&gt;Node43</title>
<path fill="none" stroke="midnightblue" d="M1262.64,-181.49C1255.14,-178.705 1246.83,-175.939 1239,-174 1125.53,-145.898 1089.89,-164.582 972.694,-138.046"/>
<polygon fill="midnightblue" stroke="midnightblue" points="973.146,-134.558 962.612,-135.699 971.558,-141.376 973.146,-134.558"/>
</g>
<!-- Node44 -->
<g id="node124" class="node"><title>Node44</title>
<polygon fill="white" stroke="#bfbfbf" points="979.5,-116.5 979.5,-137.5 1022.5,-137.5 1022.5,-116.5 979.5,-116.5"/>
<text text-anchor="middle" x="1001" y="-124.5" font-family="Helvetica,sans-Serif" font-size="10.00">cstdio</text>
</g>
<!-- Node40&#45;&gt;Node44 -->
<g id="edge160" class="edge"><title>Node40&#45;&gt;Node44</title>
<path fill="none" stroke="midnightblue" d="M1262.09,-181.491C1254.71,-178.772 1246.62,-176.04 1239,-174 1151.47,-150.556 1123.53,-161.434 1032.69,-138.119"/>
<polygon fill="midnightblue" stroke="midnightblue" points="1033.37,-134.678 1022.81,-135.513 1031.59,-141.447 1033.37,-134.678"/>
</g>
<!-- Node45 -->
<g id="node132" class="node"><title>Node45</title>
<polygon fill="white" stroke="#bfbfbf" points="1040,-116.5 1040,-137.5 1080,-137.5 1080,-116.5 1040,-116.5"/>
<text text-anchor="middle" x="1060" y="-124.5" font-family="Helvetica,sans-Serif" font-size="10.00">utility</text>
</g>
<!-- Node40&#45;&gt;Node45 -->
<g id="edge174" class="edge"><title>Node40&#45;&gt;Node45</title>
<path fill="none" stroke="midnightblue" d="M1260.98,-181.434C1253.88,-178.836 1246.2,-176.178 1239,-174 1176.33,-155.038 1156.31,-157.882 1089.86,-137.987"/>
<polygon fill="midnightblue" stroke="midnightblue" points="1090.75,-134.601 1080.17,-135.025 1088.71,-141.295 1090.75,-134.601"/>
</g>
<!-- Node46 -->
<g id="node134" class="node"><title>Node46</title>
<polygon fill="white" stroke="#bfbfbf" points="1097.5,-116.5 1097.5,-137.5 1146.5,-137.5 1146.5,-116.5 1097.5,-116.5"/>
<text text-anchor="middle" x="1122" y="-124.5" font-family="Helvetica,sans-Serif" font-size="10.00">stdint.h</text>
</g>
<!-- Node40&#45;&gt;Node46 -->
<g id="edge176" class="edge"><title>Node40&#45;&gt;Node46</title>
<path fill="none" stroke="midnightblue" d="M1260.96,-181.412C1232.36,-170.213 1187.17,-152.517 1156.13,-140.364"/>
<polygon fill="midnightblue" stroke="midnightblue" points="1157.18,-137.016 1146.59,-136.629 1154.63,-143.534 1157.18,-137.016"/>
</g>
<!-- Node47&#45;&gt;Node6 -->
<g id="edge184" class="edge"><title>Node47&#45;&gt;Node6</title>
<path fill="none" stroke="midnightblue" d="M756.122,-304.132C737.345,-277.476 690.308,-206.054 674,-138 671.721,-128.491 671.713,-125.507 674,-116 676.31,-106.396 680.931,-96.5455 685.507,-88.3593"/>
<polygon fill="midnightblue" stroke="midnightblue" points="688.598,-90.0094 690.716,-79.6285 682.587,-86.4225 688.598,-90.0094"/>
</g>
<!-- Node47&#45;&gt;Node15 -->
<g id="edge190" class="edge"><title>Node47&#45;&gt;Node15</title>
<path fill="none" stroke="midnightblue" d="M801.063,-314.026C949.174,-309.985 1498.85,-293.555 1671,-268 1776.99,-252.267 1802.46,-241.076 1905,-210 1950.21,-196.3 1959.1,-185.152 2005,-174 2123.92,-145.107 2162.14,-177.421 2278,-138 2296.48,-131.714 2298.97,-125.528 2316,-116 2335.21,-105.251 2357.01,-93.4758 2373.98,-84.4007"/>
<polygon fill="midnightblue" stroke="midnightblue" points="2375.69,-87.4559 2382.87,-79.6603 2372.4,-81.28 2375.69,-87.4559"/>
</g>
<!-- Node47&#45;&gt;Node23 -->
<g id="edge182" class="edge"><title>Node47&#45;&gt;Node23</title>
<path fill="none" stroke="midnightblue" d="M726.859,-309.066C655.139,-297.606 498.792,-272.625 432.124,-261.973"/>
<polygon fill="midnightblue" stroke="midnightblue" points="432.281,-258.454 421.854,-260.332 431.176,-265.366 432.281,-258.454"/>
</g>
<!-- Node47&#45;&gt;Node26 -->
<g id="edge194" class="edge"><title>Node47&#45;&gt;Node26</title>
<path fill="none" stroke="midnightblue" d="M726.863,-313.029C621.073,-307.216 319.571,-289.212 223,-268 148.714,-251.683 105.727,-272.231 62,-210 37.981,-175.817 34.2775,-147.254 62,-116 85.3716,-89.6508 324.444,-75.2686 416.833,-70.6599"/>
<polygon fill="midnightblue" stroke="midnightblue" points="417.023,-74.1548 426.84,-70.1704 416.681,-67.1632 417.023,-74.1548"/>
</g>
<!-- Node47&#45;&gt;Node31 -->
<g id="edge192" class="edge"><title>Node47&#45;&gt;Node31</title>
<path fill="none" stroke="midnightblue" d="M765.331,-304.085C767.828,-283.609 773.252,-239.133 776.466,-212.778"/>
<polygon fill="midnightblue" stroke="midnightblue" points="779.957,-213.066 777.693,-202.715 773.008,-212.218 779.957,-213.066"/>
</g>
<!-- Node48 -->
<g id="node141" class="node"><title>Node48</title>
<a xlink:href="_lorentz_vec_8h.html" target="_top" xlink:title="base/vec/LorentzVec.h">
<polygon fill="white" stroke="black" points="1339.5,-246.5 1339.5,-267.5 1456.5,-267.5 1456.5,-246.5 1339.5,-246.5"/>
<text text-anchor="middle" x="1398" y="-254.5" font-family="Helvetica,sans-Serif" font-size="10.00">base/vec/LorentzVec.h</text>
</a>
</g>
<!-- Node47&#45;&gt;Node48 -->
<g id="edge186" class="edge"><title>Node47&#45;&gt;Node48</title>
<path fill="none" stroke="midnightblue" d="M801.293,-311.588C904.511,-302.146 1195.15,-275.557 1328.98,-263.315"/>
<polygon fill="midnightblue" stroke="midnightblue" points="1329.47,-266.784 1339.11,-262.387 1328.83,-259.813 1329.47,-266.784"/>
</g>
<!-- Node48&#45;&gt;Node34 -->
<g id="edge188" class="edge"><title>Node48&#45;&gt;Node34</title>
<path fill="none" stroke="midnightblue" d="M1398,-246.362C1398,-224.936 1398,-176.24 1398,-148.114"/>
<polygon fill="midnightblue" stroke="midnightblue" points="1401.5,-147.785 1398,-137.785 1394.5,-147.785 1401.5,-147.785"/>
</g>
<!-- Node49&#45;&gt;Node6 -->
<g id="edge200" class="edge"><title>Node49&#45;&gt;Node6</title>
<path fill="none" stroke="midnightblue" d="M2216.67,-181.4C2210.55,-178.507 2203.65,-175.703 2197,-174 1973.45,-116.704 1908.5,-162.231 1679,-138 1609.81,-130.694 1593.24,-122.871 1524,-116 1223.96,-86.2243 860.601,-73.6783 739.498,-70.1262"/>
<polygon fill="midnightblue" stroke="midnightblue" points="739.3,-66.6191 729.203,-69.8289 739.098,-73.6162 739.3,-66.6191"/>
</g>
<!-- Node49&#45;&gt;Node9 -->
<g id="edge198" class="edge"><title>Node49&#45;&gt;Node9</title>
<path fill="none" stroke="midnightblue" d="M2261,-181.382C2267.17,-178.868 2273.8,-176.262 2280,-174 2329.12,-156.088 2345.09,-161.095 2392,-138 2421.34,-123.554 2451.83,-101.295 2471.3,-85.9863"/>
<polygon fill="midnightblue" stroke="midnightblue" points="2473.55,-88.6677 2479.19,-79.6947 2469.19,-83.1961 2473.55,-88.6677"/>
</g>
<!-- Node49&#45;&gt;Node12 -->
<g id="edge204" class="edge"><title>Node49&#45;&gt;Node12</title>
<path fill="none" stroke="midnightblue" d="M2215.79,-181.32C2209.87,-178.566 2203.29,-175.859 2197,-174 2088.5,-141.957 2050.16,-179.721 1945,-138 1914.5,-125.902 1884.4,-102.533 1865.77,-86.3652"/>
<polygon fill="midnightblue" stroke="midnightblue" points="1868.09,-83.7452 1858.29,-79.7207 1863.44,-88.9786 1868.09,-83.7452"/>
</g>
<!-- Node49&#45;&gt;Node18 -->
<g id="edge206" class="edge"><title>Node49&#45;&gt;Node18</title>
<path fill="none" stroke="midnightblue" d="M2258.94,-181.45C2265.62,-178.698 2273.01,-175.959 2280,-174 2377.94,-146.563 2406.59,-159.517 2506,-138 2507.27,-137.726 2508.55,-137.436 2509.85,-137.133"/>
<polygon fill="midnightblue" stroke="midnightblue" points="2511,-140.454 2519.85,-134.636 2509.3,-133.663 2511,-140.454"/>
</g>
<!-- Node49&#45;&gt;Node19 -->
<g id="edge202" class="edge"><title>Node49&#45;&gt;Node19</title>
<path fill="none" stroke="midnightblue" d="M2266.8,-189.843C2387.81,-181.33 2827.63,-150.016 2907.36,-137.029"/>
<polygon fill="midnightblue" stroke="midnightblue" points="2908.1,-140.45 2917.21,-135.038 2906.71,-133.589 2908.1,-140.45"/>
</g>
<!-- Node50&#45;&gt;Node6 -->
<g id="edge212" class="edge"><title>Node50&#45;&gt;Node6</title>
<path fill="none" stroke="midnightblue" d="M2013.3,-189.329C1938.6,-182.455 1736.96,-162.934 1570,-138 1516.8,-130.056 1504.38,-122.576 1451,-116 1180.91,-82.7269 853.246,-72.5043 739.359,-69.8332"/>
<polygon fill="midnightblue" stroke="midnightblue" points="739.403,-66.3334 729.326,-69.6047 739.244,-73.3316 739.403,-66.3334"/>
</g>
<!-- Node50&#45;&gt;Node9 -->
<g id="edge210" class="edge"><title>Node50&#45;&gt;Node9</title>
<path fill="none" stroke="midnightblue" d="M2062.68,-181.349C2068.45,-178.596 2074.86,-175.881 2081,-174 2182.03,-143.058 2213.97,-165.452 2316,-138 2368.14,-123.971 2425.96,-99.4734 2460.62,-83.7585"/>
<polygon fill="midnightblue" stroke="midnightblue" points="2462.12,-86.9202 2469.76,-79.575 2459.21,-80.5555 2462.12,-86.9202"/>
</g>
<!-- Node50&#45;&gt;Node18 -->
<g id="edge220" class="edge"><title>Node50&#45;&gt;Node18</title>
<path fill="none" stroke="midnightblue" d="M2061.83,-181.489C2067.79,-178.6 2074.52,-175.776 2081,-174 2247.6,-128.33 2296.43,-158.067 2468,-138 2481.61,-136.408 2496.52,-134.377 2509.62,-132.494"/>
<polygon fill="midnightblue" stroke="midnightblue" points="2510.29,-135.933 2519.68,-131.028 2509.28,-129.007 2510.29,-135.933"/>
</g>
<!-- Node50&#45;&gt;Node19 -->
<g id="edge218" class="edge"><title>Node50&#45;&gt;Node19</title>
<path fill="none" stroke="midnightblue" d="M2061.39,-181.481C2067.45,-178.516 2074.34,-175.651 2081,-174 2435.3,-86.2014 2549.57,-224.722 2907.39,-137.563"/>
<polygon fill="midnightblue" stroke="midnightblue" points="2908.37,-140.926 2917.23,-135.123 2906.68,-134.131 2908.37,-140.926"/>
</g>
<!-- Node50&#45;&gt;Node34 -->
<g id="edge216" class="edge"><title>Node50&#45;&gt;Node34</title>
<path fill="none" stroke="midnightblue" d="M2013.26,-190.274C1926.87,-185.042 1668.57,-167.865 1456,-138 1454.91,-137.847 1453.81,-137.687 1452.7,-137.521"/>
<polygon fill="midnightblue" stroke="midnightblue" points="1453,-134.026 1442.58,-135.9 1451.9,-140.938 1453,-134.026"/>
</g>
<!-- Node50&#45;&gt;Node37 -->
<g id="edge214" class="edge"><title>Node50&#45;&gt;Node37</title>
<path fill="none" stroke="midnightblue" d="M2013.49,-185.649C1964.18,-175.036 1864.13,-153.502 1799.95,-139.689"/>
<polygon fill="midnightblue" stroke="midnightblue" points="1800.49,-136.224 1789.98,-137.541 1799.02,-143.067 1800.49,-136.224"/>
</g>
<!-- Node51&#45;&gt;Node15 -->
<g id="edge240" class="edge"><title>Node51&#45;&gt;Node15</title>
<path fill="none" stroke="midnightblue" d="M1662.26,-248.22C1722.01,-231.7 1856.74,-195.707 1972,-174 2090.1,-151.758 2124.55,-171.403 2240,-138 2262.54,-131.478 2266.47,-125.33 2288,-116 2316.05,-103.845 2348.3,-90.7406 2371.49,-81.465"/>
<polygon fill="midnightblue" stroke="midnightblue" points="2372.85,-84.6929 2380.84,-77.7381 2370.25,-78.1906 2372.85,-84.6929"/>
</g>
<!-- Node51&#45;&gt;Node18 -->
<g id="edge248" class="edge"><title>Node51&#45;&gt;Node18</title>
<path fill="none" stroke="midnightblue" d="M1662.23,-255.847C1783.32,-251.222 2217.86,-233.152 2275,-210 2298.1,-200.641 2295.56,-184.845 2318,-174 2380.96,-143.574 2462.97,-132.806 2509.51,-129.023"/>
<polygon fill="midnightblue" stroke="midnightblue" points="2510.01,-132.496 2519.72,-128.26 2509.48,-125.515 2510.01,-132.496"/>
</g>
<!-- Node51&#45;&gt;Node26 -->
<g id="edge246" class="edge"><title>Node51&#45;&gt;Node26</title>
<path fill="none" stroke="midnightblue" d="M1599.81,-254.693C1566.46,-252.282 1512.01,-248.508 1465,-246 1366.17,-240.728 667.109,-246.206 575,-210 529.238,-192.012 522.025,-176.148 491,-138 478.78,-122.974 468.45,-103.455 461.66,-89.0141"/>
<polygon fill="midnightblue" stroke="midnightblue" points="464.679,-87.1972 457.364,-79.5327 458.303,-90.0859 464.679,-87.1972"/>
</g>
<!-- Node51&#45;&gt;Node31 -->
<g id="edge244" class="edge"><title>Node51&#45;&gt;Node31</title>
<path fill="none" stroke="midnightblue" d="M1599.92,-254.629C1467.94,-244.56 954.262,-205.371 814.356,-194.697"/>
<polygon fill="midnightblue" stroke="midnightblue" points="814.433,-191.193 804.196,-193.922 813.901,-198.173 814.433,-191.193"/>
</g>
<!-- Node51&#45;&gt;Node33 -->
<g id="edge224" class="edge"><title>Node51&#45;&gt;Node33</title>
<path fill="none" stroke="midnightblue" d="M1599.75,-253.602C1513.12,-244.134 1273.99,-217.646 1239,-210 1233.45,-208.787 1227.67,-207.252 1222.02,-205.591"/>
<polygon fill="midnightblue" stroke="midnightblue" points="1222.65,-202.124 1212.07,-202.509 1220.58,-208.81 1222.65,-202.124"/>
</g>
<!-- Node51&#45;&gt;Node34 -->
<g id="edge238" class="edge"><title>Node51&#45;&gt;Node34</title>
<path fill="none" stroke="midnightblue" d="M1611.93,-246.362C1570.87,-223.451 1473.92,-169.358 1425.92,-142.578"/>
<polygon fill="midnightblue" stroke="midnightblue" points="1427.44,-139.419 1417,-137.603 1424.03,-145.532 1427.44,-139.419"/>
</g>
<!-- Node51&#45;&gt;Node36 -->
<g id="edge242" class="edge"><title>Node51&#45;&gt;Node36</title>
<path fill="none" stroke="midnightblue" d="M1623.18,-246.43C1595.06,-208.423 1498.85,-78.3802 1462.79,-29.6443"/>
<polygon fill="midnightblue" stroke="midnightblue" points="1465.55,-27.4883 1456.79,-21.5309 1459.93,-31.6517 1465.55,-27.4883"/>
</g>
<!-- Node51&#45;&gt;Node37 -->
<g id="edge226" class="edge"><title>Node51&#45;&gt;Node37</title>
<path fill="none" stroke="midnightblue" d="M1641.1,-246.344C1649.94,-236.927 1663.04,-222.748 1674,-210 1692.61,-188.355 1713.1,-162.686 1726.46,-145.686"/>
<polygon fill="midnightblue" stroke="midnightblue" points="1729.34,-147.684 1732.74,-137.653 1723.82,-143.369 1729.34,-147.684"/>
</g>
<!-- Node52 -->
<g id="node166" class="node"><title>Node52</title>
<a xlink:href="shared__ptr__container_8h.html" target="_top" xlink:title="base/std_ext/shared\l_ptr_container.h">
<polygon fill="white" stroke="black" points="2511.5,-175 2511.5,-209 2616.5,-209 2616.5,-175 2511.5,-175"/>
<text text-anchor="start" x="2519.5" y="-196" font-family="Helvetica,sans-Serif" font-size="10.00">base/std_ext/shared</text>
<text text-anchor="middle" x="2564" y="-183" font-family="Helvetica,sans-Serif" font-size="10.00">_ptr_container.h</text>
</a>
</g>
<!-- Node51&#45;&gt;Node52 -->
<g id="edge228" class="edge"><title>Node51&#45;&gt;Node52</title>
<path fill="none" stroke="midnightblue" d="M1662.04,-254.855C1758.07,-248.216 2058.83,-227.409 2308,-210 2373.84,-205.4 2449.19,-200.097 2501.01,-196.445"/>
<polygon fill="midnightblue" stroke="midnightblue" points="2501.32,-199.931 2511.05,-195.737 2500.83,-192.949 2501.32,-199.931"/>
</g>
<!-- Node52&#45;&gt;Node10 -->
<g id="edge236" class="edge"><title>Node52&#45;&gt;Node10</title>
<path fill="none" stroke="midnightblue" d="M2575.52,-174.704C2585.28,-157.689 2595.56,-132.002 2581,-116 2550.34,-82.2968 2234.15,-72.234 2123.21,-69.7282"/>
<polygon fill="midnightblue" stroke="midnightblue" points="2123.21,-66.2273 2113.13,-69.5087 2123.05,-73.2257 2123.21,-66.2273"/>
</g>
<!-- Node52&#45;&gt;Node15 -->
<g id="edge230" class="edge"><title>Node52&#45;&gt;Node15</title>
<path fill="none" stroke="midnightblue" d="M2588.36,-174.764C2607.75,-158.932 2629.31,-135.1 2614,-116 2611.18,-112.478 2493.36,-87.6911 2435.03,-75.6008"/>
<polygon fill="midnightblue" stroke="midnightblue" points="2435.71,-72.1669 2425.21,-73.5677 2434.29,-79.0216 2435.71,-72.1669"/>
</g>
<!-- Node52&#45;&gt;Node18 -->
<g id="edge232" class="edge"><title>Node52&#45;&gt;Node18</title>
<path fill="none" stroke="midnightblue" d="M2559.27,-174.922C2556.96,-166.579 2554.16,-156.47 2551.73,-147.692"/>
<polygon fill="midnightblue" stroke="midnightblue" points="2555.05,-146.555 2549.01,-137.852 2548.3,-148.423 2555.05,-146.555"/>
</g>
<!-- Node52&#45;&gt;Node53 -->
<g id="edge234" class="edge"><title>Node52&#45;&gt;Node53</title>
<path fill="none" stroke="midnightblue" d="M2616.57,-181.865C2631.54,-179.135 2647.89,-176.303 2663,-174 2792.27,-154.296 2825.4,-155.366 2955,-138 2966.86,-136.411 2979.74,-134.585 2991.47,-132.883"/>
<polygon fill="midnightblue" stroke="midnightblue" points="2992.04,-136.337 3001.42,-131.428 2991.02,-129.411 2992.04,-136.337"/>
</g>
<!-- Node54&#45;&gt;Node10 -->
<g id="edge264" class="edge"><title>Node54&#45;&gt;Node10</title>
<path fill="none" stroke="midnightblue" d="M1644.99,-304.371C1687.83,-272.231 1821.76,-174.682 1945,-116 1978.34,-100.126 2018.47,-87.2376 2047.21,-78.9995"/>
<polygon fill="midnightblue" stroke="midnightblue" points="2048.19,-82.3597 2056.87,-76.2822 2046.29,-75.6213 2048.19,-82.3597"/>
</g>
<!-- Node54&#45;&gt;Node15 -->
<g id="edge256" class="edge"><title>Node54&#45;&gt;Node15</title>
<path fill="none" stroke="midnightblue" d="M1668.65,-311.689C1848.03,-295.832 2608.07,-227.687 2625,-210 2653.93,-179.778 2656.41,-148.444 2630,-116 2628.45,-114.101 2497.91,-87.8951 2435.51,-75.4608"/>
<polygon fill="midnightblue" stroke="midnightblue" points="2435.9,-71.9687 2425.41,-73.4484 2434.53,-78.834 2435.9,-71.9687"/>
</g>
<!-- Node54&#45;&gt;Node18 -->
<g id="edge262" class="edge"><title>Node54&#45;&gt;Node18</title>
<path fill="none" stroke="midnightblue" d="M1668.55,-310.949C1735.38,-303.577 1879.26,-286.967 2000,-268 2138.47,-246.247 2182.27,-267.731 2310,-210 2333.66,-199.307 2332.66,-185.369 2356,-174 2406.34,-149.481 2470.59,-137.054 2509.99,-131.311"/>
<polygon fill="midnightblue" stroke="midnightblue" points="2510.51,-134.772 2519.93,-129.927 2509.54,-127.839 2510.51,-134.772"/>
</g>
<!-- Node54&#45;&gt;Node26 -->
<g id="edge260" class="edge"><title>Node54&#45;&gt;Node26</title>
<path fill="none" stroke="midnightblue" d="M1593.27,-314.613C1410.59,-312.581 616.824,-301.926 372,-268 317.865,-260.498 166.782,-252.961 133,-210 54.6117,-110.313 317.208,-79.4305 416.513,-71.4399"/>
<polygon fill="midnightblue" stroke="midnightblue" points="416.992,-74.9134 426.693,-70.6554 416.454,-67.9341 416.992,-74.9134"/>
</g>
<!-- Node54&#45;&gt;Node31 -->
<g id="edge258" class="edge"><title>Node54&#45;&gt;Node31</title>
<path fill="none" stroke="midnightblue" d="M1593.18,-314.663C1467.7,-313.196 1066.09,-305.604 943,-268 924.336,-262.298 922.499,-254.639 905,-246 867.477,-227.476 856.338,-226.771 818,-210 815.669,-208.98 813.266,-207.912 810.852,-206.827"/>
<polygon fill="midnightblue" stroke="midnightblue" points="812.167,-203.581 801.616,-202.624 809.268,-209.952 812.167,-203.581"/>
</g>
<!-- Node54&#45;&gt;Node33 -->
<g id="edge254" class="edge"><title>Node54&#45;&gt;Node33</title>
<path fill="none" stroke="midnightblue" d="M1610.09,-304.414C1579.16,-289.201 1519.05,-261.306 1465,-246 1367.14,-218.288 1337.93,-233.631 1239,-210 1233.66,-208.725 1228.1,-207.191 1222.63,-205.565"/>
<polygon fill="midnightblue" stroke="midnightblue" points="1223.57,-202.192 1212.99,-202.571 1221.5,-208.877 1223.57,-202.192"/>
</g>
<!-- Node54&#45;&gt;Node51 -->
<g id="edge252" class="edge"><title>Node54&#45;&gt;Node51</title>
<path fill="none" stroke="midnightblue" d="M1631,-304.362C1631,-296.922 1631,-286.743 1631,-277.728"/>
<polygon fill="midnightblue" stroke="midnightblue" points="1634.5,-277.571 1631,-267.571 1627.5,-277.571 1634.5,-277.571"/>
</g>
<!-- Node55&#45;&gt;Node6 -->
<g id="edge270" class="edge"><title>Node55&#45;&gt;Node6</title>
<path fill="none" stroke="midnightblue" d="M2584.79,-372.552C2425.71,-370.2 1723.06,-358.143 1507,-326 1424.47,-313.723 854.149,-176.253 780,-138 754.655,-124.925 730.263,-102.77 714.77,-87.0965"/>
<polygon fill="midnightblue" stroke="midnightblue" points="716.98,-84.3458 707.521,-79.5733 711.939,-89.2029 716.98,-84.3458"/>
</g>
<!-- Node55&#45;&gt;Node9 -->
<g id="edge272" class="edge"><title>Node55&#45;&gt;Node9</title>
<path fill="none" stroke="midnightblue" d="M2649.21,-370.101C2722.13,-363.281 2897.87,-345.333 2954,-326 2972.45,-319.645 2975.02,-313.611 2992,-304 3067.14,-261.48 3118.14,-284.367 3162,-210 3170.13,-196.218 3166.93,-189.221 3162,-174 3152.19,-143.723 3147.79,-131.52 3120,-116 3068.12,-87.0219 2651.41,-73.365 2526.97,-69.9064"/>
<polygon fill="midnightblue" stroke="midnightblue" points="2526.94,-66.4045 2516.85,-69.6299 2526.75,-73.4018 2526.94,-66.4045"/>
</g>
<!-- Node55&#45;&gt;Node15 -->
<g id="edge306" class="edge"><title>Node55&#45;&gt;Node15</title>
<path fill="none" stroke="midnightblue" d="M2649.02,-368.541C2687.7,-362.384 2754.14,-349.304 2807,-326 2911.48,-279.936 3032.76,-199.611 2955,-116 2917.37,-75.5385 2513.77,-87.3387 2459,-80 2451.22,-78.9569 2442.88,-77.5052 2435.09,-75.9979"/>
<polygon fill="midnightblue" stroke="midnightblue" points="2435.74,-72.5582 2425.24,-74.0141 2434.35,-79.4203 2435.74,-72.5582"/>
</g>
<!-- Node55&#45;&gt;Node18 -->
<g id="edge312" class="edge"><title>Node55&#45;&gt;Node18</title>
<path fill="none" stroke="midnightblue" d="M2608.84,-362.238C2602.09,-352.987 2592.58,-339.103 2586,-326 2569.03,-292.203 2583.14,-273.332 2557,-246 2528.08,-215.758 2493.25,-244.79 2470,-210 2461.11,-196.698 2462.21,-187.976 2470,-174 2478.76,-158.289 2495.17,-147.169 2510.51,-139.704"/>
<polygon fill="midnightblue" stroke="midnightblue" points="2512.15,-142.804 2519.84,-135.519 2509.28,-136.416 2512.15,-142.804"/>
</g>
<!-- Node55&#45;&gt;Node19 -->
<g id="edge308" class="edge"><title>Node55&#45;&gt;Node19</title>
<path fill="none" stroke="midnightblue" d="M2649.15,-366.324C2713.38,-351.132 2857.07,-307.474 2923,-210 2935.37,-191.706 2936.21,-165.784 2934.85,-147.797"/>
<polygon fill="midnightblue" stroke="midnightblue" points="2938.32,-147.346 2933.81,-137.761 2931.36,-148.069 2938.32,-147.346"/>
</g>
<!-- Node55&#45;&gt;Node48 -->
<g id="edge304" class="edge"><title>Node55&#45;&gt;Node48</title>
<path fill="none" stroke="midnightblue" d="M2584.98,-372.864C2432.97,-372.017 1783.21,-366.075 1585,-326 1528.02,-314.48 1465.3,-288.367 1428.91,-271.774"/>
<polygon fill="midnightblue" stroke="midnightblue" points="1430.35,-268.585 1419.8,-267.571 1427.42,-274.941 1430.35,-268.585"/>
</g>
<!-- Node55&#45;&gt;Node54 -->
<g id="edge268" class="edge"><title>Node55&#45;&gt;Node54</title>
<path fill="none" stroke="midnightblue" d="M2584.75,-371.103C2440.18,-362.599 1851.25,-327.956 1678.71,-317.807"/>
<polygon fill="midnightblue" stroke="midnightblue" points="1678.86,-314.309 1668.67,-317.216 1678.44,-321.297 1678.86,-314.309"/>
</g>
<!-- Node56 -->
<g id="node193" class="node"><title>Node56</title>
<a xlink:href="_particle_type_8h.html" target="_top" xlink:title="base/ParticleType.h">
<polygon fill="white" stroke="black" points="3272,-181.5 3272,-202.5 3376,-202.5 3376,-181.5 3272,-181.5"/>
<text text-anchor="middle" x="3324" y="-189.5" font-family="Helvetica,sans-Serif" font-size="10.00">base/ParticleType.h</text>
</a>
</g>
<!-- Node55&#45;&gt;Node56 -->
<g id="edge274" class="edge"><title>Node55&#45;&gt;Node56</title>
<path fill="none" stroke="midnightblue" d="M2649.13,-371.77C2714.62,-368.654 2867.85,-358.251 2992,-326 3107.73,-295.937 3237,-235.389 3294.11,-207.148"/>
<polygon fill="midnightblue" stroke="midnightblue" points="3295.89,-210.172 3303.28,-202.583 3292.77,-203.906 3295.89,-210.172"/>
</g>
<!-- Node59 -->
<g id="node204" class="node"><title>Node59</title>
<a xlink:href="_tree_8h.html" target="_top" xlink:title="base/Tree.h">
<polygon fill="white" stroke="black" points="2672,-181.5 2672,-202.5 2740,-202.5 2740,-181.5 2672,-181.5"/>
<text text-anchor="middle" x="2706" y="-189.5" font-family="Helvetica,sans-Serif" font-size="10.00">base/Tree.h</text>
</a>
</g>
<!-- Node55&#45;&gt;Node59 -->
<g id="edge290" class="edge"><title>Node55&#45;&gt;Node59</title>
<path fill="none" stroke="midnightblue" d="M2628.4,-362.343C2637.45,-353.371 2649.89,-339.822 2658,-326 2679.87,-288.723 2694.26,-239.834 2701.19,-212.6"/>
<polygon fill="midnightblue" stroke="midnightblue" points="2704.64,-213.209 2703.62,-202.663 2697.84,-211.542 2704.64,-213.209"/>
</g>
<!-- Node61 -->
<g id="node216" class="node"><title>Node61</title>
<polygon fill="white" stroke="#bfbfbf" points="2595,-304.5 2595,-325.5 2649,-325.5 2649,-304.5 2595,-304.5"/>
<text text-anchor="middle" x="2622" y="-312.5" font-family="Helvetica,sans-Serif" font-size="10.00">iostream</text>
</g>
<!-- Node55&#45;&gt;Node61 -->
<g id="edge310" class="edge"><title>Node55&#45;&gt;Node61</title>
<path fill="none" stroke="midnightblue" d="M2617.92,-362.362C2618.56,-354.922 2619.44,-344.743 2620.21,-335.728"/>
<polygon fill="midnightblue" stroke="midnightblue" points="2623.72,-335.834 2621.09,-325.571 2616.74,-335.233 2623.72,-335.834"/>
</g>
<!-- Node56&#45;&gt;Node5 -->
<g id="edge278" class="edge"><title>Node56&#45;&gt;Node5</title>
<path fill="none" stroke="midnightblue" d="M3271.99,-185.833C3236.31,-181.832 3187.85,-176.851 3145,-174 2659.38,-141.689 2530.86,-199.147 2044.1,-137.906"/>
<polygon fill="midnightblue" stroke="midnightblue" points="2044.36,-134.41 2034,-136.624 2043.48,-141.355 2044.36,-134.41"/>
</g>
<!-- Node56&#45;&gt;Node8 -->
<g id="edge282" class="edge"><title>Node56&#45;&gt;Node8</title>
<path fill="none" stroke="midnightblue" d="M3340.78,-181.315C3361.12,-166.951 3391.05,-140.393 3377,-116 3351.35,-71.479 3326.21,-72.7774 3277,-58 3202.3,-35.5668 2651.13,-16.8086 2502.72,-12.125"/>
<polygon fill="midnightblue" stroke="midnightblue" points="2502.45,-8.61498 2492.34,-11.7999 2502.23,-15.6115 2502.45,-8.61498"/>
</g>
<!-- Node56&#45;&gt;Node9 -->
<g id="edge276" class="edge"><title>Node56&#45;&gt;Node9</title>
<path fill="none" stroke="midnightblue" d="M3317.92,-181.275C3307.43,-163.958 3284.13,-130.333 3254,-116 3187.8,-84.5076 2666.92,-72.345 2526.68,-69.6225"/>
<polygon fill="midnightblue" stroke="midnightblue" points="2526.57,-66.1199 2516.51,-69.4288 2526.44,-73.1187 2526.57,-66.1199"/>
</g>
<!-- Node56&#45;&gt;Node15 -->
<g id="edge288" class="edge"><title>Node56&#45;&gt;Node15</title>
<path fill="none" stroke="midnightblue" d="M3309.14,-181.463C3283.7,-164.097 3229.57,-129.995 3178,-116 3023.61,-74.102 2617.79,-99.4679 2459,-80 2451.2,-79.0443 2442.87,-77.6258 2435.07,-76.1228"/>
<polygon fill="midnightblue" stroke="midnightblue" points="2435.72,-72.6835 2425.23,-74.13 2434.33,-79.5444 2435.72,-72.6835"/>
</g>
<!-- Node56&#45;&gt;Node16 -->
<g id="edge280" class="edge"><title>Node56&#45;&gt;Node16</title>
<path fill="none" stroke="midnightblue" d="M3335.99,-181.44C3351.68,-166.302 3375.58,-137.852 3361,-116 3342.78,-88.6933 3305.4,-77.2278 3278.62,-72.4287"/>
<polygon fill="midnightblue" stroke="midnightblue" points="3279,-68.9466 3268.58,-70.8484 3277.92,-75.8614 3279,-68.9466"/>
</g>
<!-- Node56&#45;&gt;Node57 -->
<g id="edge284" class="edge"><title>Node56&#45;&gt;Node57</title>
<path fill="none" stroke="midnightblue" d="M3359.02,-181.412C3401.73,-168.5 3473.01,-146.951 3511.81,-135.22"/>
<polygon fill="midnightblue" stroke="midnightblue" points="3512.83,-138.568 3521.39,-132.324 3510.81,-131.867 3512.83,-138.568"/>
</g>
<!-- Node58 -->
<g id="node201" class="node"><title>Node58</title>
<polygon fill="white" stroke="#bfbfbf" points="3305.5,-116.5 3305.5,-137.5 3352.5,-137.5 3352.5,-116.5 3305.5,-116.5"/>
<text text-anchor="middle" x="3329" y="-124.5" font-family="Helvetica,sans-Serif" font-size="10.00">iterator</text>
</g>
<!-- Node56&#45;&gt;Node58 -->
<g id="edge286" class="edge"><title>Node56&#45;&gt;Node58</title>
<path fill="none" stroke="midnightblue" d="M3324.83,-181.267C3325.52,-172.18 3326.55,-158.892 3327.4,-147.74"/>
<polygon fill="midnightblue" stroke="midnightblue" points="3330.91,-147.773 3328.19,-137.534 3323.93,-147.236 3330.91,-147.773"/>
</g>
<!-- Node59&#45;&gt;Node10 -->
<g id="edge300" class="edge"><title>Node59&#45;&gt;Node10</title>
<path fill="none" stroke="midnightblue" d="M2695.17,-181.361C2676.9,-164.167 2638.03,-130.714 2598,-116 2510.76,-83.9279 2226.98,-72.9522 2123.34,-69.9585"/>
<polygon fill="midnightblue" stroke="midnightblue" points="2123.41,-66.4592 2113.32,-69.6778 2123.21,-73.4564 2123.41,-66.4592"/>
</g>
<!-- Node59&#45;&gt;Node15 -->
<g id="edge298" class="edge"><title>Node59&#45;&gt;Node15</title>
<path fill="none" stroke="midnightblue" d="M2714.58,-181.336C2726.4,-165.289 2744.46,-134.813 2728,-116 2688.28,-70.6135 2518.51,-89.8169 2459,-80 2451.18,-78.7104 2442.79,-77.1533 2434.93,-75.6215"/>
<polygon fill="midnightblue" stroke="midnightblue" points="2435.51,-72.1678 2425.02,-73.6471 2434.14,-79.0329 2435.51,-72.1678"/>
</g>
<!-- Node59&#45;&gt;Node18 -->
<g id="edge294" class="edge"><title>Node59&#45;&gt;Node18</title>
<path fill="none" stroke="midnightblue" d="M2679.94,-181.412C2653.21,-170.552 2611.44,-153.583 2581.65,-141.484"/>
<polygon fill="midnightblue" stroke="midnightblue" points="2582.63,-138.105 2572.05,-137.584 2580,-144.59 2582.63,-138.105"/>
</g>
<!-- Node59&#45;&gt;Node19 -->
<g id="edge296" class="edge"><title>Node59&#45;&gt;Node19</title>
<path fill="none" stroke="midnightblue" d="M2732.2,-181.471C2739.22,-178.844 2746.84,-176.163 2754,-174 2818.66,-154.459 2840.32,-160.747 2907.34,-138.094"/>
<polygon fill="midnightblue" stroke="midnightblue" points="2908.81,-141.289 2917.1,-134.7 2906.51,-134.676 2908.81,-141.289"/>
</g>
<!-- Node59&#45;&gt;Node42 -->
<g id="edge302" class="edge"><title>Node59&#45;&gt;Node42</title>
<path fill="none" stroke="midnightblue" d="M2671.94,-183.113C2657.55,-179.704 2640.56,-176.125 2625,-174 2325.14,-133.033 2246.75,-161.201 1945,-138 1920.18,-136.092 1892.25,-133.259 1870.87,-130.947"/>
<polygon fill="midnightblue" stroke="midnightblue" points="1870.97,-127.436 1860.65,-129.826 1870.2,-134.395 1870.97,-127.436"/>
</g>
<!-- Node60 -->
<g id="node206" class="node"><title>Node60</title>
<polygon fill="white" stroke="#bfbfbf" points="2780,-116.5 2780,-137.5 2900,-137.5 2900,-116.5 2780,-116.5"/>
<text text-anchor="middle" x="2840" y="-124.5" font-family="Helvetica,sans-Serif" font-size="10.00">base/cereal/access.hpp</text>
</g>
<!-- Node59&#45;&gt;Node60 -->
<g id="edge292" class="edge"><title>Node59&#45;&gt;Node60</title>
<path fill="none" stroke="midnightblue" d="M2727.83,-181.412C2749.92,-170.694 2784.29,-154.025 2809.16,-141.96"/>
<polygon fill="midnightblue" stroke="midnightblue" points="2810.71,-145.097 2818.18,-137.584 2807.66,-138.799 2810.71,-145.097"/>
</g>
<!-- Node62&#45;&gt;Node16 -->
<g id="edge316" class="edge"><title>Node62&#45;&gt;Node16</title>
<path fill="none" stroke="midnightblue" d="M3573.01,-181.325C3576.91,-164.984 3581.4,-133.793 3565,-116 3545.73,-95.0899 3355.06,-77.6021 3279.05,-71.4066"/>
<polygon fill="midnightblue" stroke="midnightblue" points="3278.94,-67.8873 3268.7,-70.5754 3278.38,-74.8648 3278.94,-67.8873"/>
</g>
<!-- Node62&#45;&gt;Node18 -->
<g id="edge318" class="edge"><title>Node62&#45;&gt;Node18</title>
<path fill="none" stroke="midnightblue" d="M3520.97,-186.677C3483.71,-182.765 3431.17,-177.538 3385,-174 3225.33,-161.765 2722.53,-135.951 2582.51,-128.845"/>
<polygon fill="midnightblue" stroke="midnightblue" points="2582.48,-125.339 2572.32,-128.328 2582.13,-132.33 2582.48,-125.339"/>
</g>
<!-- Node62&#45;&gt;Node26 -->
<g id="edge324" class="edge"><title>Node62&#45;&gt;Node26</title>
<path fill="none" stroke="midnightblue" d="M3520.61,-186.166C3483.39,-182.02 3431.07,-176.723 3385,-174 2627.93,-129.246 2436.09,-182.451 1679,-138 1577.37,-132.033 1552.55,-123.2 1451,-116 1099.08,-91.0492 1010.38,-97.4521 658,-80 598.891,-77.0725 530.216,-73.3149 489.252,-71.0357"/>
<polygon fill="midnightblue" stroke="midnightblue" points="489.388,-67.5379 479.208,-70.4756 488.998,-74.5271 489.388,-67.5379"/>
</g>
<!-- Node62&#45;&gt;Node57 -->
<g id="edge320" class="edge"><title>Node62&#45;&gt;Node57</title>
<path fill="none" stroke="midnightblue" d="M3564.88,-181.267C3560.41,-171.896 3553.81,-158.057 3548.4,-146.7"/>
<polygon fill="midnightblue" stroke="midnightblue" points="3551.49,-145.053 3544.02,-137.534 3545.17,-148.066 3551.49,-145.053"/>
</g>
<!-- Node63 -->
<g id="node224" class="node"><title>Node63</title>
<polygon fill="white" stroke="#bfbfbf" points="3612,-116.5 3612,-137.5 3642,-137.5 3642,-116.5 3612,-116.5"/>
<text text-anchor="middle" x="3627" y="-124.5" font-family="Helvetica,sans-Serif" font-size="10.00">set</text>
</g>
<!-- Node62&#45;&gt;Node63 -->
<g id="edge322" class="edge"><title>Node62&#45;&gt;Node63</title>
<path fill="none" stroke="midnightblue" d="M3579.41,-181.267C3587.96,-171.517 3600.75,-156.932 3610.92,-145.336"/>
<polygon fill="midnightblue" stroke="midnightblue" points="3613.8,-147.36 3617.76,-137.534 3608.54,-142.745 3613.8,-147.36"/>
</g>
<!-- Node64&#45;&gt;Node15 -->
<g id="edge332" class="edge"><title>Node64&#45;&gt;Node15</title>
<path fill="none" stroke="midnightblue" d="M3091.33,-174.73C3090.63,-156.964 3086.49,-129.974 3069,-116 3015.95,-73.6259 2526.35,-88.5628 2459,-80 2451.21,-79.0095 2442.87,-77.5778 2435.08,-76.0731"/>
<polygon fill="midnightblue" stroke="midnightblue" points="2435.73,-72.6337 2425.23,-74.0839 2434.34,-79.495 2435.73,-72.6337"/>
</g>
<!-- Node64&#45;&gt;Node16 -->
<g id="edge328" class="edge"><title>Node64&#45;&gt;Node16</title>
<path fill="none" stroke="midnightblue" d="M3112.83,-174.897C3142.74,-151.466 3196.14,-109.625 3226.09,-86.1629"/>
<polygon fill="midnightblue" stroke="midnightblue" points="3228.52,-88.7098 3234.23,-79.7875 3224.2,-83.1995 3228.52,-88.7098"/>
</g>
<!-- Node64&#45;&gt;Node18 -->
<g id="edge334" class="edge"><title>Node64&#45;&gt;Node18</title>
<path fill="none" stroke="midnightblue" d="M3045.47,-186.57C2939.56,-173.939 2678.38,-142.789 2582.26,-131.325"/>
<polygon fill="midnightblue" stroke="midnightblue" points="2582.51,-127.83 2572.17,-130.121 2581.68,-134.781 2582.51,-127.83"/>
</g>
<!-- Node64&#45;&gt;Node19 -->
<g id="edge330" class="edge"><title>Node64&#45;&gt;Node19</title>
<path fill="none" stroke="midnightblue" d="M3049.22,-174.922C3019.47,-162.756 2980.52,-146.837 2955.88,-136.762"/>
<polygon fill="midnightblue" stroke="midnightblue" points="2957.15,-133.499 2946.57,-132.955 2954.5,-139.979 2957.15,-133.499"/>
</g>
<!-- Node64&#45;&gt;Node21 -->
<g id="edge338" class="edge"><title>Node64&#45;&gt;Node21</title>
<path fill="none" stroke="midnightblue" d="M3045.46,-186.013C3011.72,-181.848 2964.57,-176.593 2923,-174 2028.6,-118.21 1802.9,-159 907,-138 782.379,-135.079 634.743,-130.46 566.333,-128.254"/>
<polygon fill="midnightblue" stroke="midnightblue" points="566.157,-124.747 556.049,-127.921 565.931,-131.743 566.157,-124.747"/>
</g>
<!-- Node64&#45;&gt;Node53 -->
<g id="edge336" class="edge"><title>Node64&#45;&gt;Node53</title>
<path fill="none" stroke="midnightblue" d="M3075.24,-174.922C3066.86,-165.845 3056.55,-154.679 3047.99,-145.41"/>
<polygon fill="midnightblue" stroke="midnightblue" points="3050.37,-142.826 3041.02,-137.852 3045.23,-147.574 3050.37,-142.826"/>
</g>
</g>
</svg>
