<?xml version="1.0" encoding="UTF-8" standalone="no"?>
<!DOCTYPE svg PUBLIC "-//W3C//DTD SVG 1.1//EN"
 "http://www.w3.org/Graphics/SVG/1.1/DTD/svg11.dtd">
<!-- Generated by graphviz version 2.26.3 (20100126.1600)
 -->
<!-- Title: src/base/PlotExt.h Pages: 1 -->
<svg width="447pt" height="204pt"
 viewBox="0.00 0.00 447.00 204.00" xmlns="http://www.w3.org/2000/svg" xmlns:xlink="http://www.w3.org/1999/xlink">
<g id="graph1" class="graph" transform="scale(1 1) rotate(0) translate(4 200)">
<title>src/base/PlotExt.h</title>
<polygon fill="white" stroke="white" points="-4,5 -4,-200 444,-200 444,5 -4,5"/>
<!-- Node1 -->
<g id="node1" class="node"><title>Node1</title>
<polygon fill="#bfbfbf" stroke="black" points="239,-174.5 239,-195.5 337,-195.5 337,-174.5 239,-174.5"/>
<text text-anchor="middle" x="288" y="-182.5" font-family="Helvetica,sans-Serif" font-size="10.00">src/base/PlotExt.h</text>
</g>
<!-- Node2 -->
<g id="node3" class="node"><title>Node2</title>
<a xlink:href="interval_8h.html" target="_top" xlink:title="base/interval.h">
<polygon fill="white" stroke="black" points="208,-116.5 208,-137.5 288,-137.5 288,-116.5 208,-116.5"/>
<text text-anchor="middle" x="248" y="-124.5" font-family="Helvetica,sans-Serif" font-size="10.00">base/interval.h</text>
</a>
</g>
<!-- Node1&#45;&gt;Node2 -->
<g id="edge2" class="edge"><title>Node1&#45;&gt;Node2</title>
<path fill="none" stroke="midnightblue" d="M280.663,-174.362C275.194,-166.431 267.578,-155.389 261.076,-145.961"/>
<polygon fill="midnightblue" stroke="midnightblue" points="263.849,-143.816 255.29,-137.571 258.086,-147.79 263.849,-143.816"/>
</g>
<!-- Node11 -->
<g id="node21" class="node"><title>Node11</title>
<polygon fill="white" stroke="#bfbfbf" points="306,-116.5 306,-137.5 350,-137.5 350,-116.5 306,-116.5"/>
<text text-anchor="middle" x="328" y="-124.5" font-family="Helvetica,sans-Serif" font-size="10.00">vector</text>
</g>
<!-- Node1&#45;&gt;Node11 -->
<g id="edge20" class="edge"><title>Node1&#45;&gt;Node11</title>
<path fill="none" stroke="midnightblue" d="M295.337,-174.362C300.806,-166.431 308.422,-155.389 314.924,-145.961"/>
<polygon fill="midnightblue" stroke="midnightblue" points="317.914,-147.79 320.71,-137.571 312.151,-143.816 317.914,-147.79"/>
</g>
<!-- Node3 -->
<g id="node5" class="node"><title>Node3</title>
<a xlink:href="printable_8h.html" target="_top" xlink:title="printable.h">
<polygon fill="white" stroke="black" points="37,-58.5 37,-79.5 99,-79.5 99,-58.5 37,-58.5"/>
<text text-anchor="middle" x="68" y="-66.5" font-family="Helvetica,sans-Serif" font-size="10.00">printable.h</text>
</a>
</g>
<!-- Node2&#45;&gt;Node3 -->
<g id="edge4" class="edge"><title>Node2&#45;&gt;Node3</title>
<path fill="none" stroke="midnightblue" d="M215.403,-116.497C185.472,-106.852 141.004,-92.5235 108.741,-82.1276"/>
<polygon fill="midnightblue" stroke="midnightblue" points="109.741,-78.7728 99.1497,-79.0371 107.594,-85.4355 109.741,-78.7728"/>
</g>
<!-- Node6 -->
<g id="node11" class="node"><title>Node6</title>
<a xlink:href="types_8h.html" target="_top" xlink:title="types.h">
<polygon fill="white" stroke="black" points="116.5,-58.5 116.5,-79.5 165.5,-79.5 165.5,-58.5 116.5,-58.5"/>
<text text-anchor="middle" x="141" y="-66.5" font-family="Helvetica,sans-Serif" font-size="10.00">types.h</text>
</a>
</g>
<!-- Node2&#45;&gt;Node6 -->
<g id="edge10" class="edge"><title>Node2&#45;&gt;Node6</title>
<path fill="none" stroke="midnightblue" d="M228.375,-116.362C211.859,-107.409 188.026,-94.4908 169.422,-84.4064"/>
<polygon fill="midnightblue" stroke="midnightblue" points="170.96,-81.2592 160.501,-79.5707 167.625,-87.4132 170.96,-81.2592"/>
</g>
<!-- Node7 -->
<g id="node13" class="node"><title>Node7</title>
<polygon fill="white" stroke="#bfbfbf" points="183,-58.5 183,-79.5 239,-79.5 239,-58.5 183,-58.5"/>
<text text-anchor="middle" x="211" y="-66.5" font-family="Helvetica,sans-Serif" font-size="10.00">algorithm</text>
</g>
<!-- Node2&#45;&gt;Node7 -->
<g id="edge12" class="edge"><title>Node2&#45;&gt;Node7</title>
<path fill="none" stroke="midnightblue" d="M241.214,-116.362C236.207,-108.513 229.255,-97.6159 223.282,-88.2527"/>
<polygon fill="midnightblue" stroke="midnightblue" points="226.072,-86.1189 217.743,-79.5707 220.171,-89.8837 226.072,-86.1189"/>
</g>
<!-- Node8 -->
<g id="node15" class="node"><title>Node8</title>
<polygon fill="white" stroke="#bfbfbf" points="256.5,-58.5 256.5,-79.5 315.5,-79.5 315.5,-58.5 256.5,-58.5"/>
<text text-anchor="middle" x="286" y="-66.5" font-family="Helvetica,sans-Serif" font-size="10.00">stdexcept</text>
</g>
<!-- Node2&#45;&gt;Node8 -->
<g id="edge14" class="edge"><title>Node2&#45;&gt;Node8</title>
<path fill="none" stroke="midnightblue" d="M254.97,-116.362C260.166,-108.431 267.401,-97.3885 273.578,-87.9606"/>
<polygon fill="midnightblue" stroke="midnightblue" points="276.522,-89.8534 279.074,-79.5707 270.666,-86.0172 276.522,-89.8534"/>
</g>
<!-- Node9 -->
<g id="node17" class="node"><title>Node9</title>
<polygon fill="white" stroke="#bfbfbf" points="333,-58.5 333,-79.5 373,-79.5 373,-58.5 333,-58.5"/>
<text text-anchor="middle" x="353" y="-66.5" font-family="Helvetica,sans-Serif" font-size="10.00">limits</text>
</g>
<!-- Node2&#45;&gt;Node9 -->
<g id="edge16" class="edge"><title>Node2&#45;&gt;Node9</title>
<path fill="none" stroke="midnightblue" d="M267.259,-116.362C283.466,-107.409 306.853,-94.4908 325.109,-84.4064"/>
<polygon fill="midnightblue" stroke="midnightblue" points="326.802,-87.4696 333.863,-79.5707 323.418,-81.3422 326.802,-87.4696"/>
</g>
<!-- Node10 -->
<g id="node19" class="node"><title>Node10</title>
<polygon fill="white" stroke="#bfbfbf" points="390.5,-58.5 390.5,-79.5 439.5,-79.5 439.5,-58.5 390.5,-58.5"/>
<text text-anchor="middle" x="415" y="-66.5" font-family="Helvetica,sans-Serif" font-size="10.00">istream</text>
</g>
<!-- Node2&#45;&gt;Node10 -->
<g id="edge18" class="edge"><title>Node2&#45;&gt;Node10</title>
<path fill="none" stroke="midnightblue" d="M278.242,-116.497C307.123,-106.466 350.594,-91.3687 380.741,-80.8985"/>
<polygon fill="midnightblue" stroke="midnightblue" points="382.115,-84.1263 390.413,-77.5391 379.818,-77.5137 382.115,-84.1263"/>
</g>
<!-- Node4 -->
<g id="node7" class="node"><title>Node4</title>
<polygon fill="white" stroke="#bfbfbf" points="0,-0.5 0,-21.5 62,-21.5 62,-0.5 0,-0.5"/>
<text text-anchor="middle" x="31" y="-8.5" font-family="Helvetica,sans-Serif" font-size="10.00">type_traits</text>
</g>
<!-- Node3&#45;&gt;Node4 -->
<g id="edge6" class="edge"><title>Node3&#45;&gt;Node4</title>
<path fill="none" stroke="midnightblue" d="M61.2136,-58.3619C56.2066,-50.5131 49.255,-39.6159 43.2819,-30.2527"/>
<polygon fill="midnightblue" stroke="midnightblue" points="46.0723,-28.1189 37.7433,-21.5707 40.1708,-31.8837 46.0723,-28.1189"/>
</g>
<!-- Node5 -->
<g id="node9" class="node"><title>Node5</title>
<polygon fill="white" stroke="#bfbfbf" points="80,-0.5 80,-21.5 132,-21.5 132,-0.5 80,-0.5"/>
<text text-anchor="middle" x="106" y="-8.5" font-family="Helvetica,sans-Serif" font-size="10.00">ostream</text>
</g>
<!-- Node3&#45;&gt;Node5 -->
<g id="edge8" class="edge"><title>Node3&#45;&gt;Node5</title>
<path fill="none" stroke="midnightblue" d="M74.9698,-58.3619C80.1657,-50.4313 87.4006,-39.3885 93.5775,-29.9606"/>
<polygon fill="midnightblue" stroke="midnightblue" points="96.5217,-31.8534 99.0744,-21.5707 90.6665,-28.0172 96.5217,-31.8534"/>
</g>
</g>
</svg>
