<?xml version="1.0" encoding="UTF-8" standalone="no"?>
<!DOCTYPE svg PUBLIC "-//W3C//DTD SVG 1.1//EN"
 "http://www.w3.org/Graphics/SVG/1.1/DTD/svg11.dtd">
<!-- Generated by graphviz version 2.26.3 (20100126.1600)
 -->
<!-- Title: src/root&#45;addons/analysis_codes/PlotTimings.cc Pages: 1 -->
<svg width="496pt" height="174pt"
 viewBox="0.00 0.00 496.00 174.00" xmlns="http://www.w3.org/2000/svg" xmlns:xlink="http://www.w3.org/1999/xlink">
<g id="graph1" class="graph" transform="scale(1 1) rotate(0) translate(4 170)">
<title>src/root&#45;addons/analysis_codes/PlotTimings.cc</title>
<polygon fill="white" stroke="white" points="-4,5 -4,-170 493,-170 493,5 -4,5"/>
<!-- Node1 -->
<g id="node1" class="node"><title>Node1</title>
<polygon fill="#bfbfbf" stroke="black" points="203.5,-131 203.5,-165 326.5,-165 326.5,-131 203.5,-131"/>
<text text-anchor="start" x="211.5" y="-152" font-family="Helvetica,sans-Serif" font-size="10.00">src/root&#45;addons/analysis</text>
<text text-anchor="middle" x="265" y="-139" font-family="Helvetica,sans-Serif" font-size="10.00">_codes/PlotTimings.cc</text>
</g>
<!-- Node2 -->
<g id="node3" class="node"><title>Node2</title>
<a xlink:href="_plot_timings_8h.html" target="_top" xlink:title="PlotTimings.h">
<polygon fill="white" stroke="black" points="-0.5,-65.5 -0.5,-86.5 76.5,-86.5 76.5,-65.5 -0.5,-65.5"/>
<text text-anchor="middle" x="38" y="-73.5" font-family="Helvetica,sans-Serif" font-size="10.00">PlotTimings.h</text>
</a>
</g>
<!-- Node1&#45;&gt;Node2 -->
<g id="edge2" class="edge"><title>Node1&#45;&gt;Node2</title>
<path fill="none" stroke="midnightblue" d="M208.1,-130.976C173.798,-120.58 129.284,-106.856 90,-94 85.9653,-92.6796 81.7645,-91.2752 77.5768,-89.8559"/>
<polygon fill="midnightblue" stroke="midnightblue" points="78.5082,-86.4754 67.9137,-86.5491 76.2418,-93.0984 78.5082,-86.4754"/>
</g>
<!-- Node3 -->
<g id="node5" class="node"><title>Node3</title>
<a xlink:href="root__draw_8h.html" target="_top" xlink:title="analysis/plot/root\l_draw.h">
<polygon fill="white" stroke="black" points="131.5,-59 131.5,-93 222.5,-93 222.5,-59 131.5,-59"/>
<text text-anchor="start" x="139.5" y="-80" font-family="Helvetica,sans-Serif" font-size="10.00">analysis/plot/root</text>
<text text-anchor="middle" x="177" y="-67" font-family="Helvetica,sans-Serif" font-size="10.00">_draw.h</text>
</a>
</g>
<!-- Node1&#45;&gt;Node3 -->
<g id="edge4" class="edge"><title>Node1&#45;&gt;Node3</title>
<path fill="none" stroke="midnightblue" d="M244.145,-130.937C232.721,-121.59 218.388,-109.863 205.9,-99.6456"/>
<polygon fill="midnightblue" stroke="midnightblue" points="207.966,-96.8136 198.01,-93.19 203.533,-102.231 207.966,-96.8136"/>
</g>
<!-- Node6 -->
<g id="node11" class="node"><title>Node6</title>
<polygon fill="white" stroke="#bfbfbf" points="43,-0.5 43,-21.5 87,-21.5 87,-0.5 43,-0.5"/>
<text text-anchor="middle" x="65" y="-8.5" font-family="Helvetica,sans-Serif" font-size="10.00">vector</text>
</g>
<!-- Node1&#45;&gt;Node6 -->
<g id="edge22" class="edge"><title>Node1&#45;&gt;Node6</title>
<path fill="none" stroke="midnightblue" d="M203.226,-133.316C176.659,-124.88 146.402,-112.242 123,-94 101.141,-76.9599 84.207,-49.4269 74.4232,-30.7889"/>
<polygon fill="midnightblue" stroke="midnightblue" points="77.4773,-29.0718 69.8537,-21.7144 71.2252,-32.2201 77.4773,-29.0718"/>
</g>
<!-- Node10 -->
<g id="node19" class="node"><title>Node10</title>
<polygon fill="white" stroke="#bfbfbf" points="240,-65.5 240,-86.5 290,-86.5 290,-65.5 240,-65.5"/>
<text text-anchor="middle" x="265" y="-73.5" font-family="Helvetica,sans-Serif" font-size="10.00">TTree.h</text>
</g>
<!-- Node1&#45;&gt;Node10 -->
<g id="edge18" class="edge"><title>Node1&#45;&gt;Node10</title>
<path fill="none" stroke="midnightblue" d="M265,-130.937C265,-120.814 265,-107.898 265,-97.1329"/>
<polygon fill="midnightblue" stroke="midnightblue" points="268.5,-96.901 265,-86.901 261.5,-96.9011 268.5,-96.901"/>
</g>
<!-- Node11 -->
<g id="node21" class="node"><title>Node11</title>
<polygon fill="white" stroke="#bfbfbf" points="307.5,-65.5 307.5,-86.5 358.5,-86.5 358.5,-65.5 307.5,-65.5"/>
<text text-anchor="middle" x="333" y="-73.5" font-family="Helvetica,sans-Serif" font-size="10.00">TH1D.h</text>
</g>
<!-- Node1&#45;&gt;Node11 -->
<g id="edge20" class="edge"><title>Node1&#45;&gt;Node11</title>
<path fill="none" stroke="midnightblue" d="M281.115,-130.937C291.481,-119.961 304.948,-105.702 315.564,-94.4621"/>
<polygon fill="midnightblue" stroke="midnightblue" points="318.383,-96.5744 322.705,-86.901 313.294,-91.768 318.383,-96.5744"/>
</g>
<!-- Node12 -->
<g id="node24" class="node"><title>Node12</title>
<polygon fill="white" stroke="#bfbfbf" points="376,-65.5 376,-86.5 430,-86.5 430,-65.5 376,-65.5"/>
<text text-anchor="middle" x="403" y="-73.5" font-family="Helvetica,sans-Serif" font-size="10.00">iostream</text>
</g>
<!-- Node1&#45;&gt;Node12 -->
<g id="edge24" class="edge"><title>Node1&#45;&gt;Node12</title>
<path fill="none" stroke="midnightblue" d="M297.704,-130.937C320.719,-118.929 351.264,-102.992 373.527,-91.3773"/>
<polygon fill="midnightblue" stroke="midnightblue" points="375.268,-94.4168 382.515,-86.688 372.03,-88.2107 375.268,-94.4168"/>
</g>
<!-- Node13 -->
<g id="node26" class="node"><title>Node13</title>
<polygon fill="white" stroke="#bfbfbf" points="448,-65.5 448,-86.5 488,-86.5 488,-65.5 448,-65.5"/>
<text text-anchor="middle" x="468" y="-73.5" font-family="Helvetica,sans-Serif" font-size="10.00">limits</text>
</g>
<!-- Node1&#45;&gt;Node13 -->
<g id="edge26" class="edge"><title>Node1&#45;&gt;Node13</title>
<path fill="none" stroke="midnightblue" d="M326.803,-132.948C360.705,-123.677 403.033,-110.417 439,-94 440.557,-93.2895 442.131,-92.5103 443.699,-91.6869"/>
<polygon fill="midnightblue" stroke="midnightblue" points="445.523,-94.6755 452.45,-86.6587 442.036,-88.6061 445.523,-94.6755"/>
</g>
<!-- Node4 -->
<g id="node7" class="node"><title>Node4</title>
<polygon fill="white" stroke="#bfbfbf" points="104.5,-0.5 104.5,-21.5 145.5,-21.5 145.5,-0.5 104.5,-0.5"/>
<text text-anchor="middle" x="125" y="-8.5" font-family="Helvetica,sans-Serif" font-size="10.00">string</text>
</g>
<!-- Node3&#45;&gt;Node4 -->
<g id="edge6" class="edge"><title>Node3&#45;&gt;Node4</title>
<path fill="none" stroke="midnightblue" d="M163.338,-58.922C156.15,-49.937 147.324,-38.9047 139.953,-29.6912"/>
<polygon fill="midnightblue" stroke="midnightblue" points="142.662,-27.4744 133.682,-21.8521 137.196,-31.8472 142.662,-27.4744"/>
</g>
<!-- Node5 -->
<g id="node9" class="node"><title>Node5</title>
<polygon fill="white" stroke="#bfbfbf" points="162.5,-0.5 162.5,-21.5 191.5,-21.5 191.5,-0.5 162.5,-0.5"/>
<text text-anchor="middle" x="177" y="-8.5" font-family="Helvetica,sans-Serif" font-size="10.00">list</text>
</g>
<!-- Node3&#45;&gt;Node5 -->
<g id="edge8" class="edge"><title>Node3&#45;&gt;Node5</title>
<path fill="none" stroke="midnightblue" d="M177,-58.922C177,-50.6704 177,-40.6922 177,-31.9818"/>
<polygon fill="midnightblue" stroke="midnightblue" points="180.5,-31.8521 177,-21.8521 173.5,-31.8521 180.5,-31.8521"/>
</g>
<!-- Node3&#45;&gt;Node6 -->
<g id="edge10" class="edge"><title>Node3&#45;&gt;Node6</title>
<path fill="none" stroke="midnightblue" d="M147.573,-58.922C130.402,-48.9566 108.892,-36.4729 92.1306,-26.7455"/>
<polygon fill="midnightblue" stroke="midnightblue" points="93.771,-23.6508 83.3652,-21.6584 90.2573,-29.7051 93.771,-23.6508"/>
</g>
<!-- Node7 -->
<g id="node13" class="node"><title>Node7</title>
<polygon fill="white" stroke="#bfbfbf" points="209,-0.5 209,-21.5 261,-21.5 261,-0.5 209,-0.5"/>
<text text-anchor="middle" x="235" y="-8.5" font-family="Helvetica,sans-Serif" font-size="10.00">memory</text>
</g>
<!-- Node3&#45;&gt;Node7 -->
<g id="edge12" class="edge"><title>Node3&#45;&gt;Node7</title>
<path fill="none" stroke="midnightblue" d="M192.239,-58.922C200.338,-49.8453 210.302,-38.6793 218.573,-29.4097"/>
<polygon fill="midnightblue" stroke="midnightblue" points="221.27,-31.6438 225.317,-21.8521 216.047,-26.9833 221.27,-31.6438"/>
</g>
<!-- Node8 -->
<g id="node15" class="node"><title>Node8</title>
<polygon fill="white" stroke="#bfbfbf" points="278.5,-0.5 278.5,-21.5 337.5,-21.5 337.5,-0.5 278.5,-0.5"/>
<text text-anchor="middle" x="308" y="-8.5" font-family="Helvetica,sans-Serif" font-size="10.00">functional</text>
</g>
<!-- Node3&#45;&gt;Node8 -->
<g id="edge14" class="edge"><title>Node3&#45;&gt;Node8</title>
<path fill="none" stroke="midnightblue" d="M211.419,-58.922C231.875,-48.7721 257.596,-36.0097 277.35,-26.2079"/>
<polygon fill="midnightblue" stroke="midnightblue" points="279.117,-29.2385 286.519,-21.6584 276.006,-22.9679 279.117,-29.2385"/>
</g>
<!-- Node9 -->
<g id="node17" class="node"><title>Node9</title>
<polygon fill="white" stroke="#bfbfbf" points="355,-0.5 355,-21.5 411,-21.5 411,-0.5 355,-0.5"/>
<text text-anchor="middle" x="383" y="-8.5" font-family="Helvetica,sans-Serif" font-size="10.00">Rtypes.h</text>
</g>
<!-- Node3&#45;&gt;Node9 -->
<g id="edge16" class="edge"><title>Node3&#45;&gt;Node9</title>
<path fill="none" stroke="midnightblue" d="M222.642,-60.7081C225.468,-59.7854 228.272,-58.8765 231,-58 269.749,-45.5528 314.246,-31.8641 345.038,-22.4865"/>
<polygon fill="midnightblue" stroke="midnightblue" points="346.378,-25.7373 354.927,-19.4795 344.342,-19.0401 346.378,-25.7373"/>
</g>
</g>
</svg>
