<?xml version="1.0" encoding="UTF-8" standalone="no"?>
<!DOCTYPE svg PUBLIC "-//W3C//DTD SVG 1.1//EN"
 "http://www.w3.org/Graphics/SVG/1.1/DTD/svg11.dtd">
<!-- Generated by graphviz version 2.26.3 (20100126.1600)
 -->
<!-- Title: src/mc/pluto/utils/PlutoTID.cc Pages: 1 -->
<svg width="1652pt" height="276pt"
 viewBox="0.00 0.00 1652.00 276.00" xmlns="http://www.w3.org/2000/svg" xmlns:xlink="http://www.w3.org/1999/xlink">
<g id="graph1" class="graph" transform="scale(1 1) rotate(0) translate(4 272)">
<title>src/mc/pluto/utils/PlutoTID.cc</title>
<polygon fill="white" stroke="white" points="-4,5 -4,-272 1649,-272 1649,5 -4,5"/>
<!-- Node1 -->
<g id="node1" class="node"><title>Node1</title>
<polygon fill="#bfbfbf" stroke="black" points="1081,-233 1081,-267 1173,-267 1173,-233 1081,-233"/>
<text text-anchor="start" x="1089" y="-254" font-family="Helvetica,sans-Serif" font-size="10.00">src/mc/pluto/utils</text>
<text text-anchor="middle" x="1127" y="-241" font-family="Helvetica,sans-Serif" font-size="10.00">/PlutoTID.cc</text>
</g>
<!-- Node2 -->
<g id="node3" class="node"><title>Node2</title>
<a xlink:href="_pluto_t_i_d_8h.html" target="_top" xlink:title="PlutoTID.h">
<polygon fill="white" stroke="black" points="1095,-174.5 1095,-195.5 1159,-195.5 1159,-174.5 1095,-174.5"/>
<text text-anchor="middle" x="1127" y="-182.5" font-family="Helvetica,sans-Serif" font-size="10.00">PlutoTID.h</text>
</a>
</g>
<!-- Node1&#45;&gt;Node2 -->
<g id="edge2" class="edge"><title>Node1&#45;&gt;Node2</title>
<path fill="none" stroke="midnightblue" d="M1127,-232.922C1127,-224.67 1127,-214.692 1127,-205.982"/>
<polygon fill="midnightblue" stroke="midnightblue" points="1130.5,-205.852 1127,-195.852 1123.5,-205.852 1130.5,-205.852"/>
</g>
<!-- Node4 -->
<g id="node7" class="node"><title>Node4</title>
<a xlink:href="_wrap_t_file_8h.html" target="_top" xlink:title="base/WrapTFile.h">
<polygon fill="white" stroke="black" points="983,-174.5 983,-195.5 1077,-195.5 1077,-174.5 983,-174.5"/>
<text text-anchor="middle" x="1030" y="-182.5" font-family="Helvetica,sans-Serif" font-size="10.00">base/WrapTFile.h</text>
</a>
</g>
<!-- Node1&#45;&gt;Node4 -->
<g id="edge6" class="edge"><title>Node1&#45;&gt;Node4</title>
<path fill="none" stroke="midnightblue" d="M1101.51,-232.922C1086.92,-223.141 1068.7,-210.934 1054.31,-201.289"/>
<polygon fill="midnightblue" stroke="midnightblue" points="1056.16,-198.318 1045.91,-195.658 1052.26,-204.133 1056.16,-198.318"/>
</g>
<!-- Node23 -->
<g id="node49" class="node"><title>Node23</title>
<a xlink:href="_logger_8h.html" target="_top" xlink:title="base/Logger.h">
<polygon fill="white" stroke="black" points="1177,-174.5 1177,-195.5 1255,-195.5 1255,-174.5 1177,-174.5"/>
<text text-anchor="middle" x="1216" y="-182.5" font-family="Helvetica,sans-Serif" font-size="10.00">base/Logger.h</text>
</a>
</g>
<!-- Node1&#45;&gt;Node23 -->
<g id="edge52" class="edge"><title>Node1&#45;&gt;Node23</title>
<path fill="none" stroke="midnightblue" d="M1150.38,-232.922C1163.65,-223.233 1180.17,-211.165 1193.32,-201.562"/>
<polygon fill="midnightblue" stroke="midnightblue" points="1195.39,-204.383 1201.41,-195.658 1191.27,-198.73 1195.39,-204.383"/>
</g>
<!-- Node25 -->
<g id="node53" class="node"><title>Node25</title>
<a xlink:href="_t_i_d_8h.html" target="_top" xlink:title="tree/TID.h">
<polygon fill="white" stroke="black" points="335.5,-174.5 335.5,-195.5 396.5,-195.5 396.5,-174.5 335.5,-174.5"/>
<text text-anchor="middle" x="366" y="-182.5" font-family="Helvetica,sans-Serif" font-size="10.00">tree/TID.h</text>
</a>
</g>
<!-- Node1&#45;&gt;Node25 -->
<g id="edge56" class="edge"><title>Node1&#45;&gt;Node25</title>
<path fill="none" stroke="midnightblue" d="M1080.83,-246.056C943.184,-234.3 537.18,-199.621 406.804,-188.485"/>
<polygon fill="midnightblue" stroke="midnightblue" points="407.09,-184.997 396.829,-187.633 406.495,-191.972 407.09,-184.997"/>
</g>
<!-- Node32 -->
<g id="node68" class="node"><title>Node32</title>
<polygon fill="white" stroke="#bfbfbf" points="-0.5,-58.5 -0.5,-79.5 40.5,-79.5 40.5,-58.5 -0.5,-58.5"/>
<text text-anchor="middle" x="20" y="-66.5" font-family="Helvetica,sans-Serif" font-size="10.00">ctime</text>
</g>
<!-- Node1&#45;&gt;Node32 -->
<g id="edge92" class="edge"><title>Node1&#45;&gt;Node32</title>
<path fill="none" stroke="midnightblue" d="M1080.82,-248.829C957.796,-245.289 612.119,-232.597 327,-196 190.138,-178.433 111.516,-243.008 22,-138 10.8641,-124.937 11.5634,-104.891 14.3401,-89.7659"/>
<polygon fill="midnightblue" stroke="midnightblue" points="17.8036,-90.3172 16.5897,-79.7922 10.9752,-88.777 17.8036,-90.3172"/>
</g>
<!-- Node36 -->
<g id="node80" class="node"><title>Node36</title>
<polygon fill="white" stroke="#bfbfbf" points="1273,-174.5 1273,-195.5 1323,-195.5 1323,-174.5 1273,-174.5"/>
<text text-anchor="middle" x="1298" y="-182.5" font-family="Helvetica,sans-Serif" font-size="10.00">TTree.h</text>
</g>
<!-- Node1&#45;&gt;Node36 -->
<g id="edge88" class="edge"><title>Node1&#45;&gt;Node36</title>
<path fill="none" stroke="midnightblue" d="M1171.93,-232.922C1200.53,-222.049 1237.02,-208.178 1263.38,-198.16"/>
<polygon fill="midnightblue" stroke="midnightblue" points="1264.84,-201.348 1272.95,-194.523 1262.36,-194.805 1264.84,-201.348"/>
</g>
<!-- Node37 -->
<g id="node82" class="node"><title>Node37</title>
<polygon fill="white" stroke="#bfbfbf" points="1340.5,-174.5 1340.5,-195.5 1413.5,-195.5 1413.5,-174.5 1340.5,-174.5"/>
<text text-anchor="middle" x="1377" y="-182.5" font-family="Helvetica,sans-Serif" font-size="10.00">TRandom2.h</text>
</g>
<!-- Node1&#45;&gt;Node37 -->
<g id="edge90" class="edge"><title>Node1&#45;&gt;Node37</title>
<path fill="none" stroke="midnightblue" d="M1173.15,-238.002C1218,-226.339 1285.76,-208.722 1330.68,-197.043"/>
<polygon fill="midnightblue" stroke="midnightblue" points="1331.66,-200.404 1340.46,-194.5 1329.9,-193.629 1331.66,-200.404"/>
</g>
<!-- Node3 -->
<g id="node5" class="node"><title>Node3</title>
<polygon fill="white" stroke="#bfbfbf" points="1443.5,-0.5 1443.5,-21.5 1484.5,-21.5 1484.5,-0.5 1443.5,-0.5"/>
<text text-anchor="middle" x="1464" y="-8.5" font-family="Helvetica,sans-Serif" font-size="10.00">string</text>
</g>
<!-- Node2&#45;&gt;Node3 -->
<g id="edge4" class="edge"><title>Node2&#45;&gt;Node3</title>
<path fill="none" stroke="midnightblue" d="M1159.13,-175.904C1162.11,-175.203 1165.1,-174.553 1168,-174 1236.12,-160.98 1431.88,-189.79 1478,-138 1504.28,-108.493 1487.21,-58.5626 1474.39,-30.9152"/>
<polygon fill="midnightblue" stroke="midnightblue" points="1477.48,-29.2679 1469.95,-21.8167 1471.19,-32.3386 1477.48,-29.2679"/>
</g>
<!-- Node4&#45;&gt;Node3 -->
<g id="edge42" class="edge"><title>Node4&#45;&gt;Node3</title>
<path fill="none" stroke="midnightblue" d="M1077.3,-175.384C1080.24,-174.887 1083.16,-174.421 1086,-174 1165.31,-162.26 1386.95,-193.301 1445,-138 1473.64,-110.714 1471.71,-60.2374 1467.82,-31.8283"/>
<polygon fill="midnightblue" stroke="midnightblue" points="1471.25,-31.1202 1466.24,-21.7874 1464.34,-32.2106 1471.25,-31.1202"/>
</g>
<!-- Node5 -->
<g id="node9" class="node"><title>Node5</title>
<a xlink:href="string_8h.html" target="_top" xlink:title="base/std_ext/string.h">
<polygon fill="white" stroke="black" points="298,-58.5 298,-79.5 406,-79.5 406,-58.5 298,-58.5"/>
<text text-anchor="middle" x="352" y="-66.5" font-family="Helvetica,sans-Serif" font-size="10.00">base/std_ext/string.h</text>
</a>
</g>
<!-- Node4&#45;&gt;Node5 -->
<g id="edge8" class="edge"><title>Node4&#45;&gt;Node5</title>
<path fill="none" stroke="midnightblue" d="M982.924,-183.208C921.522,-179.663 811.501,-169.142 723,-138 704.591,-131.522 703.47,-122.299 685,-116 573.44,-77.953 536.594,-97.3238 416.238,-80.1009"/>
<polygon fill="midnightblue" stroke="midnightblue" points="416.679,-76.6281 406.273,-78.6193 415.65,-83.552 416.679,-76.6281"/>
</g>
<!-- Node9 -->
<g id="node18" class="node"><title>Node9</title>
<a xlink:href="misc_8h.html" target="_top" xlink:title="base/std_ext/misc.h">
<polygon fill="white" stroke="black" points="731.5,-116.5 731.5,-137.5 836.5,-137.5 836.5,-116.5 731.5,-116.5"/>
<text text-anchor="middle" x="784" y="-124.5" font-family="Helvetica,sans-Serif" font-size="10.00">base/std_ext/misc.h</text>
</a>
</g>
<!-- Node4&#45;&gt;Node9 -->
<g id="edge18" class="edge"><title>Node4&#45;&gt;Node9</title>
<path fill="none" stroke="midnightblue" d="M985.451,-174.497C944.218,-164.775 882.798,-150.294 838.624,-139.879"/>
<polygon fill="midnightblue" stroke="midnightblue" points="839.169,-136.411 828.632,-137.523 837.562,-143.225 839.169,-136.411"/>
</g>
<!-- Node10 -->
<g id="node21" class="node"><title>Node10</title>
<polygon fill="white" stroke="#bfbfbf" points="829.5,-58.5 829.5,-79.5 888.5,-79.5 888.5,-58.5 829.5,-58.5"/>
<text text-anchor="middle" x="859" y="-66.5" font-family="Helvetica,sans-Serif" font-size="10.00">functional</text>
</g>
<!-- Node4&#45;&gt;Node10 -->
<g id="edge50" class="edge"><title>Node4&#45;&gt;Node10</title>
<path fill="none" stroke="midnightblue" d="M982.663,-174.714C945.383,-165.754 897.388,-152.029 883,-138 869.92,-125.246 863.961,-105.001 861.251,-89.7312"/>
<polygon fill="midnightblue" stroke="midnightblue" points="864.691,-89.0666 859.796,-79.6704 857.763,-90.0684 864.691,-89.0666"/>
</g>
<!-- Node13 -->
<g id="node27" class="node"><title>Node13</title>
<polygon fill="white" stroke="#bfbfbf" points="891.5,-116.5 891.5,-137.5 938.5,-137.5 938.5,-116.5 891.5,-116.5"/>
<text text-anchor="middle" x="915" y="-124.5" font-family="Helvetica,sans-Serif" font-size="10.00">TFile.h</text>
</g>
<!-- Node4&#45;&gt;Node13 -->
<g id="edge28" class="edge"><title>Node4&#45;&gt;Node13</title>
<path fill="none" stroke="midnightblue" d="M1009.17,-174.497C991.294,-165.479 965.293,-152.365 945.139,-142.201"/>
<polygon fill="midnightblue" stroke="midnightblue" points="946.564,-138.999 936.059,-137.621 943.412,-145.249 946.564,-138.999"/>
</g>
<!-- Node14 -->
<g id="node29" class="node"><title>Node14</title>
<polygon fill="white" stroke="#bfbfbf" points="955.5,-116.5 955.5,-137.5 1026.5,-137.5 1026.5,-116.5 955.5,-116.5"/>
<text text-anchor="middle" x="991" y="-124.5" font-family="Helvetica,sans-Serif" font-size="10.00">TDirectory.h</text>
</g>
<!-- Node4&#45;&gt;Node14 -->
<g id="edge30" class="edge"><title>Node4&#45;&gt;Node14</title>
<path fill="none" stroke="midnightblue" d="M1022.85,-174.362C1017.51,-166.431 1010.09,-155.389 1003.75,-145.961"/>
<polygon fill="midnightblue" stroke="midnightblue" points="1006.59,-143.916 998.108,-137.571 1000.78,-147.822 1006.59,-143.916"/>
</g>
<!-- Node15 -->
<g id="node31" class="node"><title>Node15</title>
<polygon fill="white" stroke="#bfbfbf" points="1044,-116.5 1044,-137.5 1096,-137.5 1096,-116.5 1044,-116.5"/>
<text text-anchor="middle" x="1070" y="-124.5" font-family="Helvetica,sans-Serif" font-size="10.00">TError.h</text>
</g>
<!-- Node4&#45;&gt;Node15 -->
<g id="edge32" class="edge"><title>Node4&#45;&gt;Node15</title>
<path fill="none" stroke="midnightblue" d="M1037.34,-174.362C1042.81,-166.431 1050.42,-155.389 1056.92,-145.961"/>
<polygon fill="midnightblue" stroke="midnightblue" points="1059.91,-147.79 1062.71,-137.571 1054.15,-143.816 1059.91,-147.79"/>
</g>
<!-- Node16 -->
<g id="node33" class="node"><title>Node16</title>
<polygon fill="white" stroke="#bfbfbf" points="1113.5,-116.5 1113.5,-137.5 1160.5,-137.5 1160.5,-116.5 1113.5,-116.5"/>
<text text-anchor="middle" x="1137" y="-124.5" font-family="Helvetica,sans-Serif" font-size="10.00">TList.h</text>
</g>
<!-- Node4&#45;&gt;Node16 -->
<g id="edge34" class="edge"><title>Node4&#45;&gt;Node16</title>
<path fill="none" stroke="midnightblue" d="M1049.63,-174.362C1066.14,-165.409 1089.97,-152.491 1108.58,-142.406"/>
<polygon fill="midnightblue" stroke="midnightblue" points="1110.38,-145.413 1117.5,-137.571 1107.04,-139.259 1110.38,-145.413"/>
</g>
<!-- Node17 -->
<g id="node35" class="node"><title>Node17</title>
<polygon fill="white" stroke="#bfbfbf" points="1178,-116.5 1178,-137.5 1252,-137.5 1252,-116.5 1178,-116.5"/>
<text text-anchor="middle" x="1215" y="-124.5" font-family="Helvetica,sans-Serif" font-size="10.00">TCollection.h</text>
</g>
<!-- Node4&#45;&gt;Node17 -->
<g id="edge36" class="edge"><title>Node4&#45;&gt;Node17</title>
<path fill="none" stroke="midnightblue" d="M1063.5,-174.497C1093.79,-165 1138.57,-150.962 1171.59,-140.609"/>
<polygon fill="midnightblue" stroke="midnightblue" points="1172.94,-143.854 1181.44,-137.523 1170.85,-137.175 1172.94,-143.854"/>
</g>
<!-- Node18 -->
<g id="node37" class="node"><title>Node18</title>
<polygon fill="white" stroke="#bfbfbf" points="1270,-116.5 1270,-137.5 1318,-137.5 1318,-116.5 1270,-116.5"/>
<text text-anchor="middle" x="1294" y="-124.5" font-family="Helvetica,sans-Serif" font-size="10.00">TKey.h</text>
</g>
<!-- Node4&#45;&gt;Node18 -->
<g id="edge38" class="edge"><title>Node4&#45;&gt;Node18</title>
<path fill="none" stroke="midnightblue" d="M1077.16,-175.723C1133.39,-164.615 1223.57,-146.652 1260.09,-137.891"/>
<polygon fill="midnightblue" stroke="midnightblue" points="1261.12,-141.241 1269.95,-135.39 1259.4,-134.456 1261.12,-141.241"/>
</g>
<!-- Node19 -->
<g id="node39" class="node"><title>Node19</title>
<polygon fill="white" stroke="#bfbfbf" points="1336,-116.5 1336,-137.5 1388,-137.5 1388,-116.5 1336,-116.5"/>
<text text-anchor="middle" x="1362" y="-124.5" font-family="Helvetica,sans-Serif" font-size="10.00">memory</text>
</g>
<!-- Node4&#45;&gt;Node19 -->
<g id="edge40" class="edge"><title>Node4&#45;&gt;Node19</title>
<path fill="none" stroke="midnightblue" d="M1077.02,-175.601C1080.06,-175.045 1083.07,-174.506 1086,-174 1189.59,-156.098 1219.71,-161.936 1325.92,-137.986"/>
<polygon fill="midnightblue" stroke="midnightblue" points="1326.78,-141.379 1335.75,-135.734 1325.22,-134.556 1326.78,-141.379"/>
</g>
<!-- Node20 -->
<g id="node42" class="node"><title>Node20</title>
<polygon fill="white" stroke="#bfbfbf" points="571.5,-116.5 571.5,-137.5 600.5,-137.5 600.5,-116.5 571.5,-116.5"/>
<text text-anchor="middle" x="586" y="-124.5" font-family="Helvetica,sans-Serif" font-size="10.00">list</text>
</g>
<!-- Node4&#45;&gt;Node20 -->
<g id="edge44" class="edge"><title>Node4&#45;&gt;Node20</title>
<path fill="none" stroke="midnightblue" d="M982.881,-181.732C891.96,-175.112 694.521,-159.138 610.482,-137.618"/>
<polygon fill="midnightblue" stroke="midnightblue" points="611.38,-134.235 600.81,-134.966 609.529,-140.986 611.38,-134.235"/>
</g>
<!-- Node21 -->
<g id="node44" class="node"><title>Node21</title>
<polygon fill="white" stroke="#bfbfbf" points="1406,-116.5 1406,-137.5 1436,-137.5 1436,-116.5 1406,-116.5"/>
<text text-anchor="middle" x="1421" y="-124.5" font-family="Helvetica,sans-Serif" font-size="10.00">set</text>
</g>
<!-- Node4&#45;&gt;Node21 -->
<g id="edge46" class="edge"><title>Node4&#45;&gt;Node21</title>
<path fill="none" stroke="midnightblue" d="M1077.01,-175.488C1080.05,-174.959 1083.06,-174.458 1086,-174 1220.26,-153.076 1261.08,-174.402 1395.91,-137.59"/>
<polygon fill="midnightblue" stroke="midnightblue" points="1397.08,-140.895 1405.78,-134.838 1395.21,-134.152 1397.08,-140.895"/>
</g>
<!-- Node22 -->
<g id="node46" class="node"><title>Node22</title>
<polygon fill="white" stroke="#bfbfbf" points="617.5,-116.5 617.5,-137.5 676.5,-137.5 676.5,-116.5 617.5,-116.5"/>
<text text-anchor="middle" x="647" y="-124.5" font-family="Helvetica,sans-Serif" font-size="10.00">stdexcept</text>
</g>
<!-- Node4&#45;&gt;Node22 -->
<g id="edge48" class="edge"><title>Node4&#45;&gt;Node22</title>
<path fill="none" stroke="midnightblue" d="M982.975,-180.201C917.106,-173.094 793.788,-158.381 690,-138 688.904,-137.785 687.793,-137.559 686.675,-137.323"/>
<polygon fill="midnightblue" stroke="midnightblue" points="687.035,-133.816 676.508,-135.016 685.486,-140.643 687.035,-133.816"/>
</g>
<!-- Node5&#45;&gt;Node3 -->
<g id="edge10" class="edge"><title>Node5&#45;&gt;Node3</title>
<path fill="none" stroke="midnightblue" d="M406.233,-59.0765C409.194,-58.6768 412.13,-58.3135 415,-58 619.865,-35.6187 1281.08,-16.1108 1432.78,-11.8582"/>
<polygon fill="midnightblue" stroke="midnightblue" points="1433.3,-15.3452 1443.2,-11.5677 1433.1,-8.34789 1433.3,-15.3452"/>
</g>
<!-- Node6 -->
<g id="node12" class="node"><title>Node6</title>
<polygon fill="white" stroke="#bfbfbf" points="359,-0.5 359,-21.5 411,-21.5 411,-0.5 359,-0.5"/>
<text text-anchor="middle" x="385" y="-8.5" font-family="Helvetica,sans-Serif" font-size="10.00">sstream</text>
</g>
<!-- Node5&#45;&gt;Node6 -->
<g id="edge12" class="edge"><title>Node5&#45;&gt;Node6</title>
<path fill="none" stroke="midnightblue" d="M358.053,-58.3619C362.472,-50.5949 368.59,-39.8426 373.879,-30.5458"/>
<polygon fill="midnightblue" stroke="midnightblue" points="377.082,-31.9932 378.986,-21.5707 370.998,-28.5315 377.082,-31.9932"/>
</g>
<!-- Node7 -->
<g id="node14" class="node"><title>Node7</title>
<polygon fill="white" stroke="#bfbfbf" points="530,-0.5 530,-21.5 586,-21.5 586,-0.5 530,-0.5"/>
<text text-anchor="middle" x="558" y="-8.5" font-family="Helvetica,sans-Serif" font-size="10.00">algorithm</text>
</g>
<!-- Node5&#45;&gt;Node7 -->
<g id="edge14" class="edge"><title>Node5&#45;&gt;Node7</title>
<path fill="none" stroke="midnightblue" d="M389.305,-58.4966C426.292,-48.0828 482.677,-32.2074 519.929,-21.7189"/>
<polygon fill="midnightblue" stroke="midnightblue" points="521.22,-24.9918 529.897,-18.9125 519.323,-18.2537 521.22,-24.9918"/>
</g>
<!-- Node8 -->
<g id="node16" class="node"><title>Node8</title>
<polygon fill="white" stroke="#bfbfbf" points="297,-0.5 297,-21.5 341,-21.5 341,-0.5 297,-0.5"/>
<text text-anchor="middle" x="319" y="-8.5" font-family="Helvetica,sans-Serif" font-size="10.00">vector</text>
</g>
<!-- Node5&#45;&gt;Node8 -->
<g id="edge16" class="edge"><title>Node5&#45;&gt;Node8</title>
<path fill="none" stroke="midnightblue" d="M345.947,-58.3619C341.528,-50.5949 335.41,-39.8426 330.121,-30.5458"/>
<polygon fill="midnightblue" stroke="midnightblue" points="333.002,-28.5315 325.014,-21.5707 326.918,-31.9932 333.002,-28.5315"/>
</g>
<!-- Node9&#45;&gt;Node7 -->
<g id="edge20" class="edge"><title>Node9&#45;&gt;Node7</title>
<path fill="none" stroke="midnightblue" d="M761.275,-116.473C741.317,-107.14 711.561,-93.0098 686,-80 651.134,-62.2542 611.575,-40.7084 585.781,-26.4662"/>
<polygon fill="midnightblue" stroke="midnightblue" points="587.38,-23.3505 576.935,-21.57 583.99,-29.4749 587.38,-23.3505"/>
</g>
<!-- Node9&#45;&gt;Node10 -->
<g id="edge22" class="edge"><title>Node9&#45;&gt;Node10</title>
<path fill="none" stroke="midnightblue" d="M797.756,-116.362C808.751,-107.859 824.373,-95.7785 837.086,-85.9466"/>
<polygon fill="midnightblue" stroke="midnightblue" points="839.562,-88.4569 845.331,-79.5707 835.279,-82.9195 839.562,-88.4569"/>
</g>
<!-- Node11 -->
<g id="node23" class="node"><title>Node11</title>
<polygon fill="white" stroke="#bfbfbf" points="765,-58.5 765,-79.5 809,-79.5 809,-58.5 765,-58.5"/>
<text text-anchor="middle" x="787" y="-66.5" font-family="Helvetica,sans-Serif" font-size="10.00">cmath</text>
</g>
<!-- Node9&#45;&gt;Node11 -->
<g id="edge24" class="edge"><title>Node9&#45;&gt;Node11</title>
<path fill="none" stroke="midnightblue" d="M784.55,-116.362C784.935,-108.922 785.462,-98.7427 785.928,-89.7276"/>
<polygon fill="midnightblue" stroke="midnightblue" points="789.432,-89.7381 786.453,-79.5707 782.441,-89.3765 789.432,-89.7381"/>
</g>
<!-- Node12 -->
<g id="node25" class="node"><title>Node12</title>
<polygon fill="white" stroke="#bfbfbf" points="694.5,-58.5 694.5,-79.5 747.5,-79.5 747.5,-58.5 694.5,-58.5"/>
<text text-anchor="middle" x="721" y="-66.5" font-family="Helvetica,sans-Serif" font-size="10.00">cxxabi.h</text>
</g>
<!-- Node9&#45;&gt;Node12 -->
<g id="edge26" class="edge"><title>Node9&#45;&gt;Node12</title>
<path fill="none" stroke="midnightblue" d="M772.445,-116.362C763.387,-108.023 750.59,-96.2418 740.026,-86.5162"/>
<polygon fill="midnightblue" stroke="midnightblue" points="742.21,-83.7688 732.482,-79.5707 737.468,-88.9187 742.21,-83.7688"/>
</g>
<!-- Node24 -->
<g id="node51" class="node"><title>Node24</title>
<polygon fill="white" stroke="#bfbfbf" points="1529.5,-116.5 1529.5,-137.5 1644.5,-137.5 1644.5,-116.5 1529.5,-116.5"/>
<text text-anchor="middle" x="1587" y="-124.5" font-family="Helvetica,sans-Serif" font-size="10.00">detail/easylogging++.h</text>
</g>
<!-- Node23&#45;&gt;Node24 -->
<g id="edge54" class="edge"><title>Node23&#45;&gt;Node24</title>
<path fill="none" stroke="midnightblue" d="M1255.24,-175.728C1258.2,-175.114 1261.14,-174.531 1264,-174 1375.24,-153.346 1404.1,-154.661 1516,-138 1517.08,-137.839 1518.17,-137.677 1519.26,-137.513"/>
<polygon fill="midnightblue" stroke="midnightblue" points="1519.91,-140.955 1529.27,-136.002 1518.86,-134.034 1519.91,-140.955"/>
</g>
<!-- Node25&#45;&gt;Node20 -->
<g id="edge82" class="edge"><title>Node25&#45;&gt;Node20</title>
<path fill="none" stroke="midnightblue" d="M396.613,-179.782C433.934,-172.973 498.912,-159.677 561.487,-138.078"/>
<polygon fill="midnightblue" stroke="midnightblue" points="562.835,-141.314 571.1,-134.686 560.505,-134.713 562.835,-141.314"/>
</g>
<!-- Node25&#45;&gt;Node22 -->
<g id="edge80" class="edge"><title>Node25&#45;&gt;Node22</title>
<path fill="none" stroke="midnightblue" d="M396.88,-179.952C441.412,-172.473 526.411,-157.45 607.35,-138.264"/>
<polygon fill="midnightblue" stroke="midnightblue" points="608.289,-141.638 617.197,-135.904 606.657,-134.831 608.289,-141.638"/>
</g>
<!-- Node26 -->
<g id="node55" class="node"><title>Node26</title>
<polygon fill="white" stroke="#bfbfbf" points="338,-116.5 338,-137.5 394,-137.5 394,-116.5 338,-116.5"/>
<text text-anchor="middle" x="366" y="-124.5" font-family="Helvetica,sans-Serif" font-size="10.00">Rtypes.h</text>
</g>
<!-- Node25&#45;&gt;Node26 -->
<g id="edge58" class="edge"><title>Node25&#45;&gt;Node26</title>
<path fill="none" stroke="midnightblue" d="M366,-174.362C366,-166.922 366,-156.743 366,-147.728"/>
<polygon fill="midnightblue" stroke="midnightblue" points="369.5,-147.571 366,-137.571 362.5,-147.571 369.5,-147.571"/>
</g>
<!-- Node27 -->
<g id="node57" class="node"><title>Node27</title>
<a xlink:href="printable_8h.html" target="_top" xlink:title="base/printable.h">
<polygon fill="white" stroke="black" points="412,-116.5 412,-137.5 498,-137.5 498,-116.5 412,-116.5"/>
<text text-anchor="middle" x="455" y="-124.5" font-family="Helvetica,sans-Serif" font-size="10.00">base/printable.h</text>
</a>
</g>
<!-- Node25&#45;&gt;Node27 -->
<g id="edge60" class="edge"><title>Node25&#45;&gt;Node27</title>
<path fill="none" stroke="midnightblue" d="M382.324,-174.362C395.748,-165.614 414.983,-153.079 430.293,-143.101"/>
<polygon fill="midnightblue" stroke="midnightblue" points="432.312,-145.963 438.78,-137.571 428.491,-140.098 432.312,-145.963"/>
</g>
<!-- Node28 -->
<g id="node59" class="node"><title>Node28</title>
<polygon fill="white" stroke="#bfbfbf" points="424,-58.5 424,-79.5 486,-79.5 486,-58.5 424,-58.5"/>
<text text-anchor="middle" x="455" y="-66.5" font-family="Helvetica,sans-Serif" font-size="10.00">type_traits</text>
</g>
<!-- Node25&#45;&gt;Node28 -->
<g id="edge74" class="edge"><title>Node25&#45;&gt;Node28</title>
<path fill="none" stroke="midnightblue" d="M352.892,-174.277C337.452,-160.322 315.511,-135.428 329,-116 334.151,-108.582 379.103,-92.9614 413.863,-81.7638"/>
<polygon fill="midnightblue" stroke="midnightblue" points="415.348,-84.9638 423.811,-78.5892 413.22,-78.2951 415.348,-84.9638"/>
</g>
<!-- Node30 -->
<g id="node63" class="node"><title>Node30</title>
<a xlink:href="time_8h.html" target="_top" xlink:title="base/std_ext/time.h">
<polygon fill="white" stroke="black" points="179.5,-116.5 179.5,-137.5 282.5,-137.5 282.5,-116.5 179.5,-116.5"/>
<text text-anchor="middle" x="231" y="-124.5" font-family="Helvetica,sans-Serif" font-size="10.00">base/std_ext/time.h</text>
</a>
</g>
<!-- Node25&#45;&gt;Node30 -->
<g id="edge66" class="edge"><title>Node25&#45;&gt;Node30</title>
<path fill="none" stroke="midnightblue" d="M341.553,-174.497C320.182,-165.315 288.931,-151.889 265.103,-141.652"/>
<polygon fill="midnightblue" stroke="midnightblue" points="266.291,-138.353 255.722,-137.621 263.528,-144.784 266.291,-138.353"/>
</g>
<!-- Node25&#45;&gt;Node32 -->
<g id="edge86" class="edge"><title>Node25&#45;&gt;Node32</title>
<path fill="none" stroke="midnightblue" d="M335.427,-182.509C258.434,-175.973 61.1054,-157.483 39,-138 25.4986,-126.1 21.1929,-105.578 19.9993,-89.999"/>
<polygon fill="midnightblue" stroke="midnightblue" points="23.4854,-89.5771 19.5931,-79.7231 16.4909,-89.8536 23.4854,-89.5771"/>
</g>
<!-- Node33 -->
<g id="node71" class="node"><title>Node33</title>
<polygon fill="white" stroke="#bfbfbf" points="516,-116.5 516,-137.5 554,-137.5 554,-116.5 516,-116.5"/>
<text text-anchor="middle" x="535" y="-124.5" font-family="Helvetica,sans-Serif" font-size="10.00">tuple</text>
</g>
<!-- Node25&#45;&gt;Node33 -->
<g id="edge76" class="edge"><title>Node25&#45;&gt;Node33</title>
<path fill="none" stroke="midnightblue" d="M396.691,-175.284C423.402,-166.715 463.348,-153.629 506.277,-138.152"/>
<polygon fill="midnightblue" stroke="midnightblue" points="507.564,-141.409 515.771,-134.708 505.177,-134.828 507.564,-141.409"/>
</g>
<!-- Node34 -->
<g id="node73" class="node"><title>Node34</title>
<polygon fill="white" stroke="#bfbfbf" points="48,-116.5 48,-137.5 94,-137.5 94,-116.5 48,-116.5"/>
<text text-anchor="middle" x="71" y="-124.5" font-family="Helvetica,sans-Serif" font-size="10.00">cstdint</text>
</g>
<!-- Node25&#45;&gt;Node34 -->
<g id="edge78" class="edge"><title>Node25&#45;&gt;Node34</title>
<path fill="none" stroke="midnightblue" d="M335.297,-181.081C287.612,-174.657 192.803,-160.54 103.975,-137.972"/>
<polygon fill="midnightblue" stroke="midnightblue" points="104.849,-134.583 94.2918,-135.471 103.099,-141.361 104.849,-134.583"/>
</g>
<!-- Node35 -->
<g id="node77" class="node"><title>Node35</title>
<polygon fill="white" stroke="#bfbfbf" points="112,-116.5 112,-137.5 162,-137.5 162,-116.5 112,-116.5"/>
<text text-anchor="middle" x="137" y="-124.5" font-family="Helvetica,sans-Serif" font-size="10.00">iomanip</text>
</g>
<!-- Node25&#45;&gt;Node35 -->
<g id="edge84" class="edge"><title>Node25&#45;&gt;Node35</title>
<path fill="none" stroke="midnightblue" d="M335.414,-178.388C298.742,-170.295 235.241,-155.757 171.931,-138.125"/>
<polygon fill="midnightblue" stroke="midnightblue" points="172.76,-134.722 162.186,-135.385 170.865,-141.461 172.76,-134.722"/>
</g>
<!-- Node27&#45;&gt;Node28 -->
<g id="edge62" class="edge"><title>Node27&#45;&gt;Node28</title>
<path fill="none" stroke="midnightblue" d="M455,-116.362C455,-108.922 455,-98.7427 455,-89.7276"/>
<polygon fill="midnightblue" stroke="midnightblue" points="458.5,-89.5706 455,-79.5707 451.5,-89.5707 458.5,-89.5706"/>
</g>
<!-- Node29 -->
<g id="node61" class="node"><title>Node29</title>
<polygon fill="white" stroke="#bfbfbf" points="504,-58.5 504,-79.5 556,-79.5 556,-58.5 504,-58.5"/>
<text text-anchor="middle" x="530" y="-66.5" font-family="Helvetica,sans-Serif" font-size="10.00">ostream</text>
</g>
<!-- Node27&#45;&gt;Node29 -->
<g id="edge64" class="edge"><title>Node27&#45;&gt;Node29</title>
<path fill="none" stroke="midnightblue" d="M468.756,-116.362C479.751,-107.859 495.373,-95.7785 508.086,-85.9466"/>
<polygon fill="midnightblue" stroke="midnightblue" points="510.562,-88.4569 516.331,-79.5707 506.279,-82.9195 510.562,-88.4569"/>
</g>
<!-- Node30&#45;&gt;Node5 -->
<g id="edge68" class="edge"><title>Node30&#45;&gt;Node5</title>
<path fill="none" stroke="midnightblue" d="M252.912,-116.497C271.811,-107.438 299.331,-94.2462 320.576,-84.0628"/>
<polygon fill="midnightblue" stroke="midnightblue" points="322.337,-87.0999 329.842,-79.6212 319.311,-80.7876 322.337,-87.0999"/>
</g>
<!-- Node31 -->
<g id="node66" class="node"><title>Node31</title>
<polygon fill="white" stroke="#bfbfbf" points="208,-58.5 208,-79.5 254,-79.5 254,-58.5 208,-58.5"/>
<text text-anchor="middle" x="231" y="-66.5" font-family="Helvetica,sans-Serif" font-size="10.00">cstring</text>
</g>
<!-- Node30&#45;&gt;Node31 -->
<g id="edge70" class="edge"><title>Node30&#45;&gt;Node31</title>
<path fill="none" stroke="midnightblue" d="M231,-116.362C231,-108.922 231,-98.7427 231,-89.7276"/>
<polygon fill="midnightblue" stroke="midnightblue" points="234.5,-89.5706 231,-79.5707 227.5,-89.5707 234.5,-89.5706"/>
</g>
<!-- Node30&#45;&gt;Node32 -->
<g id="edge72" class="edge"><title>Node30&#45;&gt;Node32</title>
<path fill="none" stroke="midnightblue" d="M192.789,-116.497C151.974,-105.277 88.096,-87.7183 50.5091,-77.3864"/>
<polygon fill="midnightblue" stroke="midnightblue" points="51.2159,-73.9509 40.6459,-74.6752 49.3605,-80.7006 51.2159,-73.9509"/>
</g>
</g>
</svg>
