<?xml version="1.0" encoding="UTF-8" standalone="no"?>
<!DOCTYPE svg PUBLIC "-//W3C//DTD SVG 1.1//EN"
 "http://www.w3.org/Graphics/SVG/1.1/DTD/svg11.dtd">
<!-- Generated by graphviz version 2.26.3 (20100126.1600)
 -->
<!-- Title: src/analysis/physics/common/ProtonTagger.cc Pages: 1 -->
<svg width="3676pt" height="638pt"
 viewBox="0.00 0.00 3676.40 638.00" xmlns="http://www.w3.org/2000/svg" xmlns:xlink="http://www.w3.org/1999/xlink">
<g id="graph1" class="graph" transform="scale(1 1) rotate(0) translate(4 634)">
<title>src/analysis/physics/common/ProtonTagger.cc</title>
<polygon fill="white" stroke="white" points="-4,5 -4,-634 3673.4,-634 3673.4,5 -4,5"/>
<!-- Node1 -->
<g id="node1" class="node"><title>Node1</title>
<polygon fill="#bfbfbf" stroke="black" points="2026.4,-595 2026.4,-629 2158.4,-629 2158.4,-595 2026.4,-595"/>
<text text-anchor="start" x="2034.4" y="-616" font-family="Helvetica,sans-Serif" font-size="10.00">src/analysis/physics</text>
<text text-anchor="middle" x="2092.4" y="-603" font-family="Helvetica,sans-Serif" font-size="10.00">/common/ProtonTagger.cc</text>
</g>
<!-- Node2 -->
<g id="node3" class="node"><title>Node2</title>
<a xlink:href="_proton_tagger_8h.html" target="_top" xlink:title="ProtonTagger.h">
<polygon fill="white" stroke="black" points="2050.9,-536.5 2050.9,-557.5 2133.9,-557.5 2133.9,-536.5 2050.9,-536.5"/>
<text text-anchor="middle" x="2092.4" y="-544.5" font-family="Helvetica,sans-Serif" font-size="10.00">ProtonTagger.h</text>
</a>
</g>
<!-- Node1&#45;&gt;Node2 -->
<g id="edge2" class="edge"><title>Node1&#45;&gt;Node2</title>
<path fill="none" stroke="midnightblue" d="M2092.4,-594.922C2092.4,-586.67 2092.4,-576.692 2092.4,-567.982"/>
<polygon fill="midnightblue" stroke="midnightblue" points="2095.9,-567.852 2092.4,-557.852 2088.9,-567.852 2095.9,-567.852"/>
</g>
<!-- Node38 -->
<g id="node94" class="node"><title>Node38</title>
<a xlink:href="math_8h.html" target="_top" xlink:title="base/std_ext/math.h">
<polygon fill="white" stroke="black" points="1722.4,-116.5 1722.4,-137.5 1828.4,-137.5 1828.4,-116.5 1722.4,-116.5"/>
<text text-anchor="middle" x="1775.4" y="-124.5" font-family="Helvetica,sans-Serif" font-size="10.00">base/std_ext/math.h</text>
</a>
</g>
<!-- Node1&#45;&gt;Node38 -->
<g id="edge360" class="edge"><title>Node1&#45;&gt;Node38</title>
<path fill="none" stroke="midnightblue" d="M2026.28,-605.189C1913.83,-591.753 1697.4,-557.053 1697.4,-489 1697.4,-489 1697.4,-489 1697.4,-257 1697.4,-211.361 1733.18,-167.906 1756.27,-144.615"/>
<polygon fill="midnightblue" stroke="midnightblue" points="1758.84,-147.004 1763.55,-137.515 1753.95,-141.994 1758.84,-147.004"/>
</g>
<!-- Node69 -->
<g id="node250" class="node"><title>Node69</title>
<polygon fill="white" stroke="#bfbfbf" points="2151.4,-536.5 2151.4,-557.5 2201.4,-557.5 2201.4,-536.5 2151.4,-536.5"/>
<text text-anchor="middle" x="2176.4" y="-544.5" font-family="Helvetica,sans-Serif" font-size="10.00">TTree.h</text>
</g>
<!-- Node1&#45;&gt;Node69 -->
<g id="edge362" class="edge"><title>Node1&#45;&gt;Node69</title>
<path fill="none" stroke="midnightblue" d="M2114.47,-594.922C2126.79,-585.387 2142.09,-573.546 2154.4,-564.02"/>
<polygon fill="midnightblue" stroke="midnightblue" points="2156.6,-566.74 2162.37,-557.852 2152.32,-561.204 2156.6,-566.74"/>
</g>
<!-- Node3 -->
<g id="node5" class="node"><title>Node3</title>
<a xlink:href="_physics_8h.html" target="_top" xlink:title="analysis/physics/Physics.h">
<polygon fill="white" stroke="black" points="3099.4,-478.5 3099.4,-499.5 3235.4,-499.5 3235.4,-478.5 3099.4,-478.5"/>
<text text-anchor="middle" x="3167.4" y="-486.5" font-family="Helvetica,sans-Serif" font-size="10.00">analysis/physics/Physics.h</text>
</a>
</g>
<!-- Node2&#45;&gt;Node3 -->
<g id="edge4" class="edge"><title>Node2&#45;&gt;Node3</title>
<path fill="none" stroke="midnightblue" d="M2134.04,-537.28C2136.86,-536.795 2139.66,-536.36 2142.4,-536 2325.19,-511.882 2882.57,-496.037 3089.22,-490.855"/>
<polygon fill="midnightblue" stroke="midnightblue" points="3089.47,-494.35 3099.38,-490.602 3089.3,-487.352 3089.47,-494.35"/>
</g>
<!-- Node6 -->
<g id="node11" class="node"><title>Node6</title>
<a xlink:href="interval_8h.html" target="_top" xlink:title="base/interval.h">
<polygon fill="white" stroke="black" points="1922.4,-116.5 1922.4,-137.5 2002.4,-137.5 2002.4,-116.5 1922.4,-116.5"/>
<text text-anchor="middle" x="1962.4" y="-124.5" font-family="Helvetica,sans-Serif" font-size="10.00">base/interval.h</text>
</a>
</g>
<!-- Node2&#45;&gt;Node6 -->
<g id="edge358" class="edge"><title>Node2&#45;&gt;Node6</title>
<path fill="none" stroke="midnightblue" d="M2092.4,-536.444C2092.4,-516.062 2092.4,-469.868 2092.4,-431 2092.4,-431 2092.4,-431 2092.4,-315 2092.4,-236.866 1986.46,-279.825 1951.4,-210 1941.51,-190.314 1947.18,-164.849 1953.46,-147.346"/>
<polygon fill="midnightblue" stroke="midnightblue" points="1956.89,-148.186 1957.31,-137.599 1950.38,-145.613 1956.89,-148.186"/>
</g>
<!-- Node4 -->
<g id="node7" class="node"><title>Node4</title>
<a xlink:href="manager__t_8h.html" target="_top" xlink:title="analysis/physics/manager_t.h">
<polygon fill="white" stroke="black" points="3456.4,-420.5 3456.4,-441.5 3602.4,-441.5 3602.4,-420.5 3456.4,-420.5"/>
<text text-anchor="middle" x="3529.4" y="-428.5" font-family="Helvetica,sans-Serif" font-size="10.00">analysis/physics/manager_t.h</text>
</a>
</g>
<!-- Node3&#45;&gt;Node4 -->
<g id="edge6" class="edge"><title>Node3&#45;&gt;Node4</title>
<path fill="none" stroke="midnightblue" d="M3232.95,-478.497C3295.03,-468.55 3388.21,-453.621 3453.49,-443.162"/>
<polygon fill="midnightblue" stroke="midnightblue" points="3454.4,-446.561 3463.72,-441.523 3453.29,-439.649 3454.4,-446.561"/>
</g>
<!-- Node5 -->
<g id="node9" class="node"><title>Node5</title>
<a xlink:href="_histogram_factories_8h.html" target="_top" xlink:title="analysis/plot/HistogramFactories.h">
<polygon fill="white" stroke="black" points="2272.4,-246.5 2272.4,-267.5 2440.4,-267.5 2440.4,-246.5 2272.4,-246.5"/>
<text text-anchor="middle" x="2356.4" y="-254.5" font-family="Helvetica,sans-Serif" font-size="10.00">analysis/plot/HistogramFactories.h</text>
</a>
</g>
<!-- Node3&#45;&gt;Node5 -->
<g id="edge8" class="edge"><title>Node3&#45;&gt;Node5</title>
<path fill="none" stroke="midnightblue" d="M3099.39,-486.514C2969.38,-481.248 2690.26,-467.326 2597.4,-442 2540.25,-426.414 2525.26,-418.894 2477.4,-384 2433.4,-351.926 2391.84,-302.708 2370.77,-275.936"/>
<polygon fill="midnightblue" stroke="midnightblue" points="2373.33,-273.53 2364.44,-267.775 2367.8,-277.821 2373.33,-273.53"/>
</g>
<!-- Node17 -->
<g id="node35" class="node"><title>Node17</title>
<polygon fill="white" stroke="#bfbfbf" points="3290.9,-58.5 3290.9,-79.5 3331.9,-79.5 3331.9,-58.5 3290.9,-58.5"/>
<text text-anchor="middle" x="3311.4" y="-66.5" font-family="Helvetica,sans-Serif" font-size="10.00">string</text>
</g>
<!-- Node3&#45;&gt;Node17 -->
<g id="edge350" class="edge"><title>Node3&#45;&gt;Node17</title>
<path fill="none" stroke="midnightblue" d="M3235.6,-485.72C3357.09,-479.351 3601.33,-463.982 3633.4,-442 3661.76,-422.557 3668.4,-407.386 3668.4,-373 3668.4,-373 3668.4,-373 3668.4,-192 3668.4,-151.81 3653.13,-137.849 3619.4,-116 3573.93,-86.5514 3411.08,-74.4135 3342.35,-70.525"/>
<polygon fill="midnightblue" stroke="midnightblue" points="3342.34,-67.0191 3332.16,-69.9704 3341.96,-74.0088 3342.34,-67.0191"/>
</g>
<!-- Node18 -->
<g id="node38" class="node"><title>Node18</title>
<a xlink:href="memory_8h.html" target="_top" xlink:title="base/std_ext/memory.h">
<polygon fill="white" stroke="black" points="2695.9,-181.5 2695.9,-202.5 2814.9,-202.5 2814.9,-181.5 2695.9,-181.5"/>
<text text-anchor="middle" x="2755.4" y="-189.5" font-family="Helvetica,sans-Serif" font-size="10.00">base/std_ext/memory.h</text>
</a>
</g>
<!-- Node3&#45;&gt;Node18 -->
<g id="edge40" class="edge"><title>Node3&#45;&gt;Node18</title>
<path fill="none" stroke="midnightblue" d="M3099.03,-481.048C2994.86,-467.004 2808.4,-433.423 2808.4,-373 2808.4,-373 2808.4,-373 2808.4,-315 2808.4,-275.382 2784.92,-234.015 2769.21,-210.777"/>
<polygon fill="midnightblue" stroke="midnightblue" points="2772.04,-208.716 2763.45,-202.528 2766.31,-212.728 2772.04,-208.716"/>
</g>
<!-- Node19 -->
<g id="node40" class="node"><title>Node19</title>
<polygon fill="white" stroke="#bfbfbf" points="2564.4,-116.5 2564.4,-137.5 2616.4,-137.5 2616.4,-116.5 2564.4,-116.5"/>
<text text-anchor="middle" x="2590.4" y="-124.5" font-family="Helvetica,sans-Serif" font-size="10.00">memory</text>
</g>
<!-- Node3&#45;&gt;Node19 -->
<g id="edge354" class="edge"><title>Node3&#45;&gt;Node19</title>
<path fill="none" stroke="midnightblue" d="M3099.22,-481.854C2950.75,-465.371 2611.4,-422.303 2611.4,-373 2611.4,-373 2611.4,-373 2611.4,-315 2611.4,-254.678 2545.69,-266.806 2525.4,-210 2520.01,-194.933 2518.12,-188.248 2525.4,-174 2532.23,-160.629 2544.84,-150.183 2557.14,-142.571"/>
<polygon fill="midnightblue" stroke="midnightblue" points="2559.02,-145.529 2565.96,-137.527 2555.55,-139.452 2559.02,-145.529"/>
</g>
<!-- Node20 -->
<g id="node42" class="node"><title>Node20</title>
<polygon fill="white" stroke="#bfbfbf" points="2847.9,-116.5 2847.9,-137.5 2876.9,-137.5 2876.9,-116.5 2847.9,-116.5"/>
<text text-anchor="middle" x="2862.4" y="-124.5" font-family="Helvetica,sans-Serif" font-size="10.00">list</text>
</g>
<!-- Node3&#45;&gt;Node20 -->
<g id="edge348" class="edge"><title>Node3&#45;&gt;Node20</title>
<path fill="none" stroke="midnightblue" d="M3099.31,-483.05C3031.81,-472.974 2938.4,-445.867 2938.4,-373 2938.4,-373 2938.4,-373 2938.4,-315 2938.4,-257.13 2879.4,-264.998 2861.4,-210 2854.7,-189.553 2856.16,-164.726 2858.53,-147.582"/>
<polygon fill="midnightblue" stroke="midnightblue" points="2862.01,-147.978 2860.15,-137.548 2855.1,-146.864 2862.01,-147.978"/>
</g>
<!-- Node21 -->
<g id="node44" class="node"><title>Node21</title>
<a xlink:href="_t_event_8h.html" target="_top" xlink:title="tree/TEvent.h">
<polygon fill="white" stroke="black" points="590.396,-181.5 590.396,-202.5 666.396,-202.5 666.396,-181.5 590.396,-181.5"/>
<text text-anchor="middle" x="628.396" y="-189.5" font-family="Helvetica,sans-Serif" font-size="10.00">tree/TEvent.h</text>
</a>
</g>
<!-- Node3&#45;&gt;Node21 -->
<g id="edge46" class="edge"><title>Node3&#45;&gt;Node21</title>
<path fill="none" stroke="midnightblue" d="M3099.3,-488.483C2804.75,-486.066 1638.69,-474.591 1273.4,-442 1073.17,-424.136 826.396,-574.02 826.396,-373 826.396,-373 826.396,-373 826.396,-315 826.396,-244.611 734.99,-213.091 676.389,-200.115"/>
<polygon fill="midnightblue" stroke="midnightblue" points="677.079,-196.684 666.572,-198.046 675.635,-203.533 677.079,-196.684"/>
</g>
<!-- Node23 -->
<g id="node51" class="node"><title>Node23</title>
<a xlink:href="_t_event_data_8h.html" target="_top" xlink:title="tree/TEventData.h">
<polygon fill="white" stroke="black" points="1281.9,-420.5 1281.9,-441.5 1378.9,-441.5 1378.9,-420.5 1281.9,-420.5"/>
<text text-anchor="middle" x="1330.4" y="-428.5" font-family="Helvetica,sans-Serif" font-size="10.00">tree/TEventData.h</text>
</a>
</g>
<!-- Node3&#45;&gt;Node23 -->
<g id="edge56" class="edge"><title>Node3&#45;&gt;Node23</title>
<path fill="none" stroke="midnightblue" d="M3099.29,-486.85C2807.11,-477.625 1662.28,-441.479 1389.14,-432.855"/>
<polygon fill="midnightblue" stroke="midnightblue" points="1389.15,-429.353 1379.04,-432.536 1388.92,-436.35 1389.15,-429.353"/>
</g>
<!-- Node54 -->
<g id="node172" class="node"><title>Node54</title>
<polygon fill="white" stroke="#bfbfbf" points="3045.9,-116.5 3045.9,-137.5 3104.9,-137.5 3104.9,-116.5 3045.9,-116.5"/>
<text text-anchor="middle" x="3075.4" y="-124.5" font-family="Helvetica,sans-Serif" font-size="10.00">functional</text>
</g>
<!-- Node3&#45;&gt;Node54 -->
<g id="edge356" class="edge"><title>Node3&#45;&gt;Node54</title>
<path fill="none" stroke="midnightblue" d="M3170.36,-478.222C3175.71,-457.841 3186.4,-412.182 3186.4,-373 3186.4,-373 3186.4,-373 3186.4,-257 3186.4,-219.157 3190.65,-203.855 3167.4,-174 3154.16,-157.01 3133.1,-145.619 3114.47,-138.311"/>
<polygon fill="midnightblue" stroke="midnightblue" points="3115.6,-134.996 3105,-134.854 3113.2,-141.572 3115.6,-134.996"/>
</g>
<!-- Node58 -->
<g id="node201" class="node"><title>Node58</title>
<polygon fill="white" stroke="#bfbfbf" points="3489.9,-116.5 3489.9,-137.5 3524.9,-137.5 3524.9,-116.5 3489.9,-116.5"/>
<text text-anchor="middle" x="3507.4" y="-124.5" font-family="Helvetica,sans-Serif" font-size="10.00">map</text>
</g>
<!-- Node3&#45;&gt;Node58 -->
<g id="edge352" class="edge"><title>Node3&#45;&gt;Node58</title>
<path fill="none" stroke="midnightblue" d="M3177.57,-478.166C3225.57,-427.06 3429.56,-209.87 3490.28,-145.224"/>
<polygon fill="midnightblue" stroke="midnightblue" points="3492.96,-147.477 3497.26,-137.792 3487.86,-142.685 3492.96,-147.477"/>
</g>
<!-- Node63 -->
<g id="node221" class="node"><title>Node63</title>
<a xlink:href="_options_list_8h.html" target="_top" xlink:title="base/OptionsList.h">
<polygon fill="white" stroke="black" points="3472.4,-181.5 3472.4,-202.5 3570.4,-202.5 3570.4,-181.5 3472.4,-181.5"/>
<text text-anchor="middle" x="3521.4" y="-189.5" font-family="Helvetica,sans-Serif" font-size="10.00">base/OptionsList.h</text>
</a>
</g>
<!-- Node3&#45;&gt;Node63 -->
<g id="edge316" class="edge"><title>Node3&#45;&gt;Node63</title>
<path fill="none" stroke="midnightblue" d="M3235.58,-485.967C3352.95,-480.137 3583.36,-465.794 3611.4,-442 3635.65,-421.417 3630.4,-404.808 3630.4,-373 3630.4,-373 3630.4,-373 3630.4,-315 3630.4,-266.36 3582.06,-227.957 3549.77,-207.726"/>
<polygon fill="midnightblue" stroke="midnightblue" points="3551.5,-204.687 3541.13,-202.508 3547.88,-210.677 3551.5,-204.687"/>
</g>
<!-- Node65 -->
<g id="node229" class="node"><title>Node65</title>
<a xlink:href="root__draw_8h.html" target="_top" xlink:title="analysis/plot/root\l_draw.h">
<polygon fill="white" stroke="black" points="3067.9,-175 3067.9,-209 3158.9,-209 3158.9,-175 3067.9,-175"/>
<text text-anchor="start" x="3075.9" y="-196" font-family="Helvetica,sans-Serif" font-size="10.00">analysis/plot/root</text>
<text text-anchor="middle" x="3113.4" y="-183" font-family="Helvetica,sans-Serif" font-size="10.00">_draw.h</text>
</a>
</g>
<!-- Node3&#45;&gt;Node65 -->
<g id="edge328" class="edge"><title>Node3&#45;&gt;Node65</title>
<path fill="none" stroke="midnightblue" d="M3164.43,-478.222C3159.08,-457.841 3148.4,-412.182 3148.4,-373 3148.4,-373 3148.4,-373 3148.4,-315 3148.4,-280.656 3135.62,-242.908 3125.5,-218.408"/>
<polygon fill="midnightblue" stroke="midnightblue" points="3128.66,-216.899 3121.51,-209.08 3122.23,-219.651 3128.66,-216.899"/>
</g>
<!-- Node66 -->
<g id="node237" class="node"><title>Node66</title>
<polygon fill="white" stroke="#bfbfbf" points="3251.9,-420.5 3251.9,-441.5 3302.9,-441.5 3302.9,-420.5 3251.9,-420.5"/>
<text text-anchor="middle" x="3277.4" y="-428.5" font-family="Helvetica,sans-Serif" font-size="10.00">TH1D.h</text>
</g>
<!-- Node3&#45;&gt;Node66 -->
<g id="edge342" class="edge"><title>Node3&#45;&gt;Node66</title>
<path fill="none" stroke="midnightblue" d="M3187.32,-478.497C3204.34,-469.519 3229.06,-456.484 3248.3,-446.339"/>
<polygon fill="midnightblue" stroke="midnightblue" points="3250.04,-449.381 3257.25,-441.621 3246.77,-443.189 3250.04,-449.381"/>
</g>
<!-- Node67 -->
<g id="node239" class="node"><title>Node67</title>
<polygon fill="white" stroke="#bfbfbf" points="3319.9,-420.5 3319.9,-441.5 3370.9,-441.5 3370.9,-420.5 3319.9,-420.5"/>
<text text-anchor="middle" x="3345.4" y="-428.5" font-family="Helvetica,sans-Serif" font-size="10.00">TH2D.h</text>
</g>
<!-- Node3&#45;&gt;Node67 -->
<g id="edge344" class="edge"><title>Node3&#45;&gt;Node67</title>
<path fill="none" stroke="midnightblue" d="M3199.63,-478.497C3230.73,-468.364 3277.7,-453.06 3309.86,-442.579"/>
<polygon fill="midnightblue" stroke="midnightblue" points="3311.32,-445.784 3319.74,-439.358 3309.15,-439.129 3311.32,-445.784"/>
</g>
<!-- Node68 -->
<g id="node241" class="node"><title>Node68</title>
<polygon fill="white" stroke="#bfbfbf" points="3387.9,-420.5 3387.9,-441.5 3438.9,-441.5 3438.9,-420.5 3387.9,-420.5"/>
<text text-anchor="middle" x="3413.4" y="-428.5" font-family="Helvetica,sans-Serif" font-size="10.00">TH3D.h</text>
</g>
<!-- Node3&#45;&gt;Node68 -->
<g id="edge346" class="edge"><title>Node3&#45;&gt;Node68</title>
<path fill="none" stroke="midnightblue" d="M3221.77,-478.425C3262.53,-470.16 3319.85,-457.83 3378.12,-442.192"/>
<polygon fill="midnightblue" stroke="midnightblue" points="3379.12,-445.547 3387.85,-439.55 3377.29,-438.791 3379.12,-445.547"/>
</g>
<!-- Node5&#45;&gt;Node6 -->
<g id="edge10" class="edge"><title>Node5&#45;&gt;Node6</title>
<path fill="none" stroke="midnightblue" d="M2341.77,-246.387C2329.2,-237.114 2310.74,-223.12 2295.4,-210 2277.71,-194.881 2278.31,-184.189 2257.4,-174 2160.03,-126.569 2123.05,-156.815 2016.4,-138 2015.12,-137.776 2013.84,-137.544 2012.54,-137.307"/>
<polygon fill="midnightblue" stroke="midnightblue" points="2012.93,-133.82 2002.46,-135.405 2011.63,-140.699 2012.93,-133.82"/>
</g>
<!-- Node15 -->
<g id="node29" class="node"><title>Node15</title>
<a xlink:href="_bin_settings_8h.html" target="_top" xlink:title="base/BinSettings.h">
<polygon fill="white" stroke="black" points="1959.9,-181.5 1959.9,-202.5 2058.9,-202.5 2058.9,-181.5 1959.9,-181.5"/>
<text text-anchor="middle" x="2009.4" y="-189.5" font-family="Helvetica,sans-Serif" font-size="10.00">base/BinSettings.h</text>
</a>
</g>
<!-- Node5&#45;&gt;Node15 -->
<g id="edge28" class="edge"><title>Node5&#45;&gt;Node15</title>
<path fill="none" stroke="midnightblue" d="M2300.26,-246.484C2236.81,-234.598 2133.93,-215.327 2069.06,-203.176"/>
<polygon fill="midnightblue" stroke="midnightblue" points="2069.46,-199.69 2058.98,-201.289 2068.17,-206.57 2069.46,-199.69"/>
</g>
<!-- Node16 -->
<g id="node32" class="node"><title>Node16</title>
<polygon fill="white" stroke="#bfbfbf" points="2343.4,-58.5 2343.4,-79.5 2387.4,-79.5 2387.4,-58.5 2343.4,-58.5"/>
<text text-anchor="middle" x="2365.4" y="-66.5" font-family="Helvetica,sans-Serif" font-size="10.00">vector</text>
</g>
<!-- Node5&#45;&gt;Node16 -->
<g id="edge38" class="edge"><title>Node5&#45;&gt;Node16</title>
<path fill="none" stroke="midnightblue" d="M2440.58,-253.696C2607.33,-246.74 2965.21,-229.605 2983.4,-210 3015.03,-175.904 2978.41,-137.936 2937.4,-116 2934.39,-114.393 2518.33,-81.1716 2397.77,-71.5748"/>
<polygon fill="midnightblue" stroke="midnightblue" points="2397.93,-68.0764 2387.69,-70.7719 2397.38,-75.0543 2397.93,-68.0764"/>
</g>
<!-- Node5&#45;&gt;Node17 -->
<g id="edge36" class="edge"><title>Node5&#45;&gt;Node17</title>
<path fill="none" stroke="midnightblue" d="M2440.64,-256.246C2679.97,-253.698 3348.86,-243.589 3381.4,-210 3410.46,-179.989 3402.17,-152.804 3382.4,-116 3373.65,-99.7165 3356.5,-88.1267 3341.26,-80.5305"/>
<polygon fill="midnightblue" stroke="midnightblue" points="3342.65,-77.317 3332.1,-76.3105 3339.72,-83.6744 3342.65,-77.317"/>
</g>
<!-- Node7 -->
<g id="node13" class="node"><title>Node7</title>
<a xlink:href="printable_8h.html" target="_top" xlink:title="printable.h">
<polygon fill="white" stroke="black" points="1149.4,-58.5 1149.4,-79.5 1211.4,-79.5 1211.4,-58.5 1149.4,-58.5"/>
<text text-anchor="middle" x="1180.4" y="-66.5" font-family="Helvetica,sans-Serif" font-size="10.00">printable.h</text>
</a>
</g>
<!-- Node6&#45;&gt;Node7 -->
<g id="edge12" class="edge"><title>Node6&#45;&gt;Node7</title>
<path fill="none" stroke="midnightblue" d="M1922.16,-123.291C1897.66,-121.075 1865.74,-118.26 1837.4,-116 1604.58,-97.4301 1325.08,-78.5757 1221.56,-71.7101"/>
<polygon fill="midnightblue" stroke="midnightblue" points="1221.74,-68.2142 1211.53,-71.0456 1221.28,-75.1989 1221.74,-68.2142"/>
</g>
<!-- Node10 -->
<g id="node19" class="node"><title>Node10</title>
<a xlink:href="types_8h.html" target="_top" xlink:title="types.h">
<polygon fill="white" stroke="black" points="2511.9,-58.5 2511.9,-79.5 2560.9,-79.5 2560.9,-58.5 2511.9,-58.5"/>
<text text-anchor="middle" x="2536.4" y="-66.5" font-family="Helvetica,sans-Serif" font-size="10.00">types.h</text>
</a>
</g>
<!-- Node6&#45;&gt;Node10 -->
<g id="edge18" class="edge"><title>Node6&#45;&gt;Node10</title>
<path fill="none" stroke="midnightblue" d="M2002.65,-121.659C2017.35,-119.775 2034.11,-117.703 2049.4,-116 2218.86,-97.114 2421.99,-78.9477 2501.8,-71.9847"/>
<polygon fill="midnightblue" stroke="midnightblue" points="2502.13,-75.4693 2511.79,-71.1155 2501.53,-68.4956 2502.13,-75.4693"/>
</g>
<!-- Node11 -->
<g id="node21" class="node"><title>Node11</title>
<polygon fill="white" stroke="#bfbfbf" points="2044.4,-58.5 2044.4,-79.5 2100.4,-79.5 2100.4,-58.5 2044.4,-58.5"/>
<text text-anchor="middle" x="2072.4" y="-66.5" font-family="Helvetica,sans-Serif" font-size="10.00">algorithm</text>
</g>
<!-- Node6&#45;&gt;Node11 -->
<g id="edge20" class="edge"><title>Node6&#45;&gt;Node11</title>
<path fill="none" stroke="midnightblue" d="M1982.32,-116.497C1999.34,-107.519 2024.06,-94.4835 2043.3,-84.3387"/>
<polygon fill="midnightblue" stroke="midnightblue" points="2045.04,-87.3814 2052.25,-79.6212 2041.77,-81.1894 2045.04,-87.3814"/>
</g>
<!-- Node12 -->
<g id="node23" class="node"><title>Node12</title>
<polygon fill="white" stroke="#bfbfbf" points="1588.9,-58.5 1588.9,-79.5 1647.9,-79.5 1647.9,-58.5 1588.9,-58.5"/>
<text text-anchor="middle" x="1618.4" y="-66.5" font-family="Helvetica,sans-Serif" font-size="10.00">stdexcept</text>
</g>
<!-- Node6&#45;&gt;Node12 -->
<g id="edge22" class="edge"><title>Node6&#45;&gt;Node12</title>
<path fill="none" stroke="midnightblue" d="M1922.26,-120.233C1855.98,-109.057 1724.4,-86.8723 1658.28,-75.7244"/>
<polygon fill="midnightblue" stroke="midnightblue" points="1658.69,-72.2448 1648.25,-74.0334 1657.53,-79.1474 1658.69,-72.2448"/>
</g>
<!-- Node13 -->
<g id="node25" class="node"><title>Node13</title>
<polygon fill="white" stroke="#bfbfbf" points="1771.4,-58.5 1771.4,-79.5 1811.4,-79.5 1811.4,-58.5 1771.4,-58.5"/>
<text text-anchor="middle" x="1791.4" y="-66.5" font-family="Helvetica,sans-Serif" font-size="10.00">limits</text>
</g>
<!-- Node6&#45;&gt;Node13 -->
<g id="edge24" class="edge"><title>Node6&#45;&gt;Node13</title>
<path fill="none" stroke="midnightblue" d="M1931.43,-116.497C1900.13,-105.88 1852.09,-89.5856 1821.21,-79.111"/>
<polygon fill="midnightblue" stroke="midnightblue" points="1822.03,-75.6961 1811.44,-75.7985 1819.79,-82.3251 1822.03,-75.6961"/>
</g>
<!-- Node14 -->
<g id="node27" class="node"><title>Node14</title>
<polygon fill="white" stroke="#bfbfbf" points="1937.9,-58.5 1937.9,-79.5 1986.9,-79.5 1986.9,-58.5 1937.9,-58.5"/>
<text text-anchor="middle" x="1962.4" y="-66.5" font-family="Helvetica,sans-Serif" font-size="10.00">istream</text>
</g>
<!-- Node6&#45;&gt;Node14 -->
<g id="edge26" class="edge"><title>Node6&#45;&gt;Node14</title>
<path fill="none" stroke="midnightblue" d="M1962.4,-116.362C1962.4,-108.922 1962.4,-98.7427 1962.4,-89.7276"/>
<polygon fill="midnightblue" stroke="midnightblue" points="1965.9,-89.5706 1962.4,-79.5707 1958.9,-89.5707 1965.9,-89.5706"/>
</g>
<!-- Node8 -->
<g id="node15" class="node"><title>Node8</title>
<polygon fill="white" stroke="#bfbfbf" points="1149.4,-0.5 1149.4,-21.5 1211.4,-21.5 1211.4,-0.5 1149.4,-0.5"/>
<text text-anchor="middle" x="1180.4" y="-8.5" font-family="Helvetica,sans-Serif" font-size="10.00">type_traits</text>
</g>
<!-- Node7&#45;&gt;Node8 -->
<g id="edge14" class="edge"><title>Node7&#45;&gt;Node8</title>
<path fill="none" stroke="midnightblue" d="M1180.4,-58.3619C1180.4,-50.9219 1180.4,-40.7427 1180.4,-31.7276"/>
<polygon fill="midnightblue" stroke="midnightblue" points="1183.9,-31.5706 1180.4,-21.5707 1176.9,-31.5707 1183.9,-31.5706"/>
</g>
<!-- Node9 -->
<g id="node17" class="node"><title>Node9</title>
<polygon fill="white" stroke="#bfbfbf" points="2479.4,-0.5 2479.4,-21.5 2531.4,-21.5 2531.4,-0.5 2479.4,-0.5"/>
<text text-anchor="middle" x="2505.4" y="-8.5" font-family="Helvetica,sans-Serif" font-size="10.00">ostream</text>
</g>
<!-- Node7&#45;&gt;Node9 -->
<g id="edge16" class="edge"><title>Node7&#45;&gt;Node9</title>
<path fill="none" stroke="midnightblue" d="M1211.52,-67.6376C1389.61,-59.842 2278.21,-20.9446 2469.2,-12.5844"/>
<polygon fill="midnightblue" stroke="midnightblue" points="2469.44,-16.0774 2479.28,-12.1434 2469.13,-9.08414 2469.44,-16.0774"/>
</g>
<!-- Node15&#45;&gt;Node6 -->
<g id="edge30" class="edge"><title>Node15&#45;&gt;Node6</title>
<path fill="none" stroke="midnightblue" d="M2001.63,-181.267C1994.65,-171.612 1984.24,-157.215 1975.9,-145.675"/>
<polygon fill="midnightblue" stroke="midnightblue" points="1978.71,-143.586 1970.01,-137.534 1973.04,-147.688 1978.71,-143.586"/>
</g>
<!-- Node15&#45;&gt;Node12 -->
<g id="edge34" class="edge"><title>Node15&#45;&gt;Node12</title>
<path fill="none" stroke="midnightblue" d="M1959.8,-189.678C1899.39,-185.356 1795.28,-173.036 1713.4,-138 1683.98,-125.414 1654.92,-102.322 1636.84,-86.3395"/>
<polygon fill="midnightblue" stroke="midnightblue" points="1639.11,-83.6714 1629.35,-79.5596 1634.41,-88.8631 1639.11,-83.6714"/>
</g>
<!-- Node15&#45;&gt;Node16 -->
<g id="edge32" class="edge"><title>Node15&#45;&gt;Node16</title>
<path fill="none" stroke="midnightblue" d="M2044.59,-181.445C2053.62,-178.875 2063.34,-176.228 2072.4,-174 2149.08,-155.139 2172.62,-166.169 2246.4,-138 2281.85,-124.463 2319.14,-101.146 2342.33,-85.4059"/>
<polygon fill="midnightblue" stroke="midnightblue" points="2344.53,-88.1369 2350.78,-79.5789 2340.56,-82.374 2344.53,-88.1369"/>
</g>
<!-- Node18&#45;&gt;Node19 -->
<g id="edge42" class="edge"><title>Node18&#45;&gt;Node19</title>
<path fill="none" stroke="midnightblue" d="M2728.52,-181.412C2700.58,-170.408 2656.73,-153.13 2625.94,-141.003"/>
<polygon fill="midnightblue" stroke="midnightblue" points="2627.03,-137.67 2616.44,-137.262 2624.47,-144.183 2627.03,-137.67"/>
</g>
<!-- Node18&#45;&gt;Node20 -->
<g id="edge44" class="edge"><title>Node18&#45;&gt;Node20</title>
<path fill="none" stroke="midnightblue" d="M2773.06,-181.267C2791.1,-170.309 2819.2,-153.243 2839.05,-141.179"/>
<polygon fill="midnightblue" stroke="midnightblue" points="2841.07,-144.051 2847.8,-135.868 2837.43,-138.068 2841.07,-144.051"/>
</g>
<!-- Node21&#45;&gt;Node7 -->
<g id="edge50" class="edge"><title>Node21&#45;&gt;Node7</title>
<path fill="none" stroke="midnightblue" d="M621.574,-181.392C612.067,-165.139 597.768,-134.065 614.396,-116 649.757,-77.5801 1014.12,-70.5617 1138.81,-69.2835"/>
<polygon fill="midnightblue" stroke="midnightblue" points="1139.12,-72.7808 1149.09,-69.1857 1139.06,-65.7811 1139.12,-72.7808"/>
</g>
<!-- Node21&#45;&gt;Node12 -->
<g id="edge54" class="edge"><title>Node21&#45;&gt;Node12</title>
<path fill="none" stroke="midnightblue" d="M627.465,-181.368C626.645,-164.495 627.875,-131.875 647.396,-116 686.476,-84.2176 1503.29,-85.2132 1553.4,-80 1561.65,-79.1411 1570.44,-77.8861 1578.81,-76.5284"/>
<polygon fill="midnightblue" stroke="midnightblue" points="1579.46,-79.9676 1588.74,-74.8411 1578.29,-73.0666 1579.46,-79.9676"/>
</g>
<!-- Node21&#45;&gt;Node19 -->
<g id="edge52" class="edge"><title>Node21&#45;&gt;Node19</title>
<path fill="none" stroke="midnightblue" d="M666.822,-189.121C721.232,-185.145 823.856,-178.008 911.396,-174 996.208,-170.117 2316.59,-134.392 2553.98,-127.982"/>
<polygon fill="midnightblue" stroke="midnightblue" points="2554.25,-131.477 2564.15,-127.708 2554.06,-124.479 2554.25,-131.477"/>
</g>
<!-- Node22 -->
<g id="node46" class="node"><title>Node22</title>
<polygon fill="white" stroke="#bfbfbf" points="468.396,-116.5 468.396,-137.5 524.396,-137.5 524.396,-116.5 468.396,-116.5"/>
<text text-anchor="middle" x="496.396" y="-124.5" font-family="Helvetica,sans-Serif" font-size="10.00">Rtypes.h</text>
</g>
<!-- Node21&#45;&gt;Node22 -->
<g id="edge48" class="edge"><title>Node21&#45;&gt;Node22</title>
<path fill="none" stroke="midnightblue" d="M606.894,-181.412C585.224,-170.741 551.575,-154.172 527.1,-142.12"/>
<polygon fill="midnightblue" stroke="midnightblue" points="528.406,-138.861 517.888,-137.584 525.313,-145.141 528.406,-138.861"/>
</g>
<!-- Node23&#45;&gt;Node7 -->
<g id="edge58" class="edge"><title>Node23&#45;&gt;Node7</title>
<path fill="none" stroke="midnightblue" d="M1283.2,-420.463C1207.26,-402.129 1066.4,-361.809 1066.4,-315 1066.4,-315 1066.4,-315 1066.4,-192 1066.4,-142.632 1116.41,-104.702 1150.18,-84.715"/>
<polygon fill="midnightblue" stroke="midnightblue" points="1152.27,-87.5535 1159.22,-79.5589 1148.8,-81.473 1152.27,-87.5535"/>
</g>
<!-- Node24 -->
<g id="node54" class="node"><title>Node24</title>
<a xlink:href="_t_i_d_8h.html" target="_top" xlink:title="TID.h">
<polygon fill="white" stroke="black" points="421.896,-246.5 421.896,-267.5 462.896,-267.5 462.896,-246.5 421.896,-246.5"/>
<text text-anchor="middle" x="442.396" y="-254.5" font-family="Helvetica,sans-Serif" font-size="10.00">TID.h</text>
</a>
</g>
<!-- Node23&#45;&gt;Node24 -->
<g id="edge60" class="edge"><title>Node23&#45;&gt;Node24</title>
<path fill="none" stroke="midnightblue" d="M1281.8,-424.415C1221.66,-416.052 1116.18,-400.687 1026.4,-384 813.404,-344.414 559.37,-284.921 472.921,-264.325"/>
<polygon fill="midnightblue" stroke="midnightblue" points="473.533,-260.873 462.994,-261.955 471.908,-267.682 473.533,-260.873"/>
</g>
<!-- Node33 -->
<g id="node81" class="node"><title>Node33</title>
<a xlink:href="_t_detector_read_hit_8h.html" target="_top" xlink:title="TDetectorReadHit.h">
<polygon fill="white" stroke="black" points="1208.4,-246.5 1208.4,-267.5 1312.4,-267.5 1312.4,-246.5 1208.4,-246.5"/>
<text text-anchor="middle" x="1260.4" y="-254.5" font-family="Helvetica,sans-Serif" font-size="10.00">TDetectorReadHit.h</text>
</a>
</g>
<!-- Node23&#45;&gt;Node33 -->
<g id="edge96" class="edge"><title>Node23&#45;&gt;Node33</title>
<path fill="none" stroke="midnightblue" d="M1326.12,-420.377C1314.73,-392.051 1283.47,-314.349 1268.54,-277.242"/>
<polygon fill="midnightblue" stroke="midnightblue" points="1271.77,-275.899 1264.79,-267.928 1265.28,-278.511 1271.77,-275.899"/>
</g>
<!-- Node39 -->
<g id="node108" class="node"><title>Node39</title>
<a xlink:href="_t_slow_control_8h.html" target="_top" xlink:title="TSlowControl.h">
<polygon fill="white" stroke="black" points="253.396,-304.5 253.396,-325.5 337.396,-325.5 337.396,-304.5 253.396,-304.5"/>
<text text-anchor="middle" x="295.396" y="-312.5" font-family="Helvetica,sans-Serif" font-size="10.00">TSlowControl.h</text>
</a>
</g>
<!-- Node23&#45;&gt;Node39 -->
<g id="edge138" class="edge"><title>Node23&#45;&gt;Node39</title>
<path fill="none" stroke="midnightblue" d="M1281.86,-429.996C1167.86,-427.146 874.252,-416.947 631.396,-384 529.871,-370.227 413.05,-343.802 347.346,-327.951"/>
<polygon fill="midnightblue" stroke="midnightblue" points="347.794,-324.459 337.251,-325.502 346.143,-331.261 347.794,-324.459"/>
</g>
<!-- Node40 -->
<g id="node115" class="node"><title>Node40</title>
<a xlink:href="_t_unpacker_message_8h.html" target="_top" xlink:title="TUnpackerMessage.h">
<polygon fill="white" stroke="black" points="925.896,-246.5 925.896,-267.5 1038.9,-267.5 1038.9,-246.5 925.896,-246.5"/>
<text text-anchor="middle" x="982.396" y="-254.5" font-family="Helvetica,sans-Serif" font-size="10.00">TUnpackerMessage.h</text>
</a>
</g>
<!-- Node23&#45;&gt;Node40 -->
<g id="edge150" class="edge"><title>Node23&#45;&gt;Node40</title>
<path fill="none" stroke="midnightblue" d="M1281.81,-427.842C1212.19,-422.483 1088.47,-409.605 1052.4,-384 1015.62,-357.899 996.04,-306.15 987.594,-277.421"/>
<polygon fill="midnightblue" stroke="midnightblue" points="990.928,-276.345 984.89,-267.639 984.181,-278.21 990.928,-276.345"/>
</g>
<!-- Node48 -->
<g id="node139" class="node"><title>Node48</title>
<a xlink:href="_t_tagger_hit_8h.html" target="_top" xlink:title="TTaggerHit.h">
<polygon fill="white" stroke="black" points="1143.4,-304.5 1143.4,-325.5 1217.4,-325.5 1217.4,-304.5 1143.4,-304.5"/>
<text text-anchor="middle" x="1180.4" y="-312.5" font-family="Helvetica,sans-Serif" font-size="10.00">TTaggerHit.h</text>
</a>
</g>
<!-- Node23&#45;&gt;Node48 -->
<g id="edge182" class="edge"><title>Node23&#45;&gt;Node48</title>
<path fill="none" stroke="midnightblue" d="M1315.79,-420.294C1302.96,-410.845 1283.84,-396.647 1267.4,-384 1244.68,-366.524 1219.01,-346.075 1201.47,-332"/>
<polygon fill="midnightblue" stroke="midnightblue" points="1203.55,-329.182 1193.57,-325.643 1199.17,-334.637 1203.55,-329.182"/>
</g>
<!-- Node50 -->
<g id="node149" class="node"><title>Node50</title>
<a xlink:href="_t_trigger_8h.html" target="_top" xlink:title="TTrigger.h">
<polygon fill="white" stroke="black" points="2303.9,-181.5 2303.9,-202.5 2364.9,-202.5 2364.9,-181.5 2303.9,-181.5"/>
<text text-anchor="middle" x="2334.4" y="-189.5" font-family="Helvetica,sans-Serif" font-size="10.00">TTrigger.h</text>
</a>
</g>
<!-- Node23&#45;&gt;Node50 -->
<g id="edge198" class="edge"><title>Node23&#45;&gt;Node50</title>
<path fill="none" stroke="midnightblue" d="M1378.92,-428.212C1459.94,-423.016 1627.66,-409.945 1767.4,-384 1865.97,-365.697 1890.02,-356.901 1985.4,-326 2102.9,-287.929 2238.58,-232.404 2300.47,-206.418"/>
<polygon fill="midnightblue" stroke="midnightblue" points="2301.9,-209.615 2309.75,-202.508 2299.18,-203.163 2301.9,-209.615"/>
</g>
<!-- Node51 -->
<g id="node156" class="node"><title>Node51</title>
<a xlink:href="_t_target_8h.html" target="_top" xlink:title="TTarget.h">
<polygon fill="white" stroke="black" points="2189.9,-181.5 2189.9,-202.5 2248.9,-202.5 2248.9,-181.5 2189.9,-181.5"/>
<text text-anchor="middle" x="2219.4" y="-189.5" font-family="Helvetica,sans-Serif" font-size="10.00">TTarget.h</text>
</a>
</g>
<!-- Node23&#45;&gt;Node51 -->
<g id="edge210" class="edge"><title>Node23&#45;&gt;Node51</title>
<path fill="none" stroke="midnightblue" d="M1379.25,-427.467C1504.07,-417.02 1842.88,-379.676 2099.4,-268 2136.09,-252.027 2174.48,-225.768 2197.67,-208.68"/>
<polygon fill="midnightblue" stroke="midnightblue" points="2199.86,-211.41 2205.78,-202.621 2195.68,-205.802 2199.86,-211.41"/>
</g>
<!-- Node52 -->
<g id="node164" class="node"><title>Node52</title>
<a xlink:href="_t_cluster_8h.html" target="_top" xlink:title="TCluster.h">
<polygon fill="white" stroke="black" points="1801.4,-246.5 1801.4,-267.5 1863.4,-267.5 1863.4,-246.5 1801.4,-246.5"/>
<text text-anchor="middle" x="1832.4" y="-254.5" font-family="Helvetica,sans-Serif" font-size="10.00">TCluster.h</text>
</a>
</g>
<!-- Node23&#45;&gt;Node52 -->
<g id="edge224" class="edge"><title>Node23&#45;&gt;Node52</title>
<path fill="none" stroke="midnightblue" d="M1361.04,-420.377C1447.79,-390.31 1695.04,-304.61 1792.35,-270.881"/>
<polygon fill="midnightblue" stroke="midnightblue" points="1793.53,-274.176 1801.83,-267.594 1791.24,-267.562 1793.53,-274.176"/>
</g>
<!-- Node55 -->
<g id="node181" class="node"><title>Node55</title>
<a xlink:href="_t_candidate_8h.html" target="_top" xlink:title="TCandidate.h">
<polygon fill="white" stroke="black" points="1794.9,-304.5 1794.9,-325.5 1869.9,-325.5 1869.9,-304.5 1794.9,-304.5"/>
<text text-anchor="middle" x="1832.4" y="-312.5" font-family="Helvetica,sans-Serif" font-size="10.00">TCandidate.h</text>
</a>
</g>
<!-- Node23&#45;&gt;Node55 -->
<g id="edge252" class="edge"><title>Node23&#45;&gt;Node55</title>
<path fill="none" stroke="midnightblue" d="M1376.28,-420.398C1471.3,-398.44 1688.79,-348.184 1785.06,-325.939"/>
<polygon fill="midnightblue" stroke="midnightblue" points="1785.86,-329.347 1794.81,-323.685 1784.28,-322.526 1785.86,-329.347"/>
</g>
<!-- Node56 -->
<g id="node190" class="node"><title>Node56</title>
<a xlink:href="_t_particle_8h.html" target="_top" xlink:title="TParticle.h">
<polygon fill="white" stroke="black" points="2486.4,-362.5 2486.4,-383.5 2550.4,-383.5 2550.4,-362.5 2486.4,-362.5"/>
<text text-anchor="middle" x="2518.4" y="-370.5" font-family="Helvetica,sans-Serif" font-size="10.00">TParticle.h</text>
</a>
</g>
<!-- Node23&#45;&gt;Node56 -->
<g id="edge268" class="edge"><title>Node23&#45;&gt;Node56</title>
<path fill="none" stroke="midnightblue" d="M1379.18,-428.618C1573.95,-419.109 2294.12,-383.95 2476.3,-375.055"/>
<polygon fill="midnightblue" stroke="midnightblue" points="2476.48,-378.551 2486.3,-374.567 2476.14,-371.559 2476.48,-378.551"/>
</g>
<!-- Node24&#45;&gt;Node7 -->
<g id="edge64" class="edge"><title>Node24&#45;&gt;Node7</title>
<path fill="none" stroke="midnightblue" d="M439.693,-246.19C433.76,-219.583 422.866,-150.577 459.396,-116 484.222,-92.5001 989.686,-74.9387 1139.13,-70.2449"/>
<polygon fill="midnightblue" stroke="midnightblue" points="1139.38,-73.739 1149.26,-69.9293 1139.16,-66.7424 1139.38,-73.739"/>
</g>
<!-- Node24&#45;&gt;Node8 -->
<g id="edge82" class="edge"><title>Node24&#45;&gt;Node8</title>
<path fill="none" stroke="midnightblue" d="M421.786,-256.223C365.26,-253.67 209.579,-243.667 173.396,-210 142.254,-181.024 129.589,-149.815 155.396,-116 214.659,-38.3456 270.996,-73.7942 367.396,-58 518.483,-33.2456 995.825,-16.7365 1139.25,-12.2392"/>
<polygon fill="midnightblue" stroke="midnightblue" points="1139.49,-15.7334 1149.38,-11.9242 1139.27,-8.7368 1139.49,-15.7334"/>
</g>
<!-- Node24&#45;&gt;Node12 -->
<g id="edge88" class="edge"><title>Node24&#45;&gt;Node12</title>
<path fill="none" stroke="midnightblue" d="M463.14,-255.886C552.062,-251.017 901.391,-230.916 1009.4,-210 1148.24,-183.111 1175.52,-147.468 1313.4,-116 1418.55,-92.0001 1446.88,-96.9994 1553.4,-80 1561.59,-78.6919 1570.36,-77.2423 1578.72,-75.8363"/>
<polygon fill="midnightblue" stroke="midnightblue" points="1579.37,-79.2759 1588.64,-74.1553 1578.2,-72.3741 1579.37,-79.2759"/>
</g>
<!-- Node24&#45;&gt;Node20 -->
<g id="edge90" class="edge"><title>Node24&#45;&gt;Node20</title>
<path fill="none" stroke="midnightblue" d="M463.23,-256.503C529.555,-254.925 741.741,-249.9 917.396,-246 1011.5,-243.91 2523.27,-243.084 2611.4,-210 2634.73,-201.24 2631.89,-184.72 2654.4,-174 2727.21,-139.31 2757.58,-162.415 2838,-137.841"/>
<polygon fill="midnightblue" stroke="midnightblue" points="2839.08,-141.172 2847.53,-134.781 2836.94,-134.507 2839.08,-141.172"/>
</g>
<!-- Node24&#45;&gt;Node22 -->
<g id="edge62" class="edge"><title>Node24&#45;&gt;Node22</title>
<path fill="none" stroke="midnightblue" d="M446.815,-246.362C455.793,-224.746 476.302,-175.372 487.935,-147.369"/>
<polygon fill="midnightblue" stroke="midnightblue" points="491.312,-148.363 491.915,-137.785 484.847,-145.678 491.312,-148.363"/>
</g>
<!-- Node25 -->
<g id="node58" class="node"><title>Node25</title>
<a xlink:href="time_8h.html" target="_top" xlink:title="base/std_ext/time.h">
<polygon fill="white" stroke="black" points="197.896,-181.5 197.896,-202.5 300.896,-202.5 300.896,-181.5 197.896,-181.5"/>
<text text-anchor="middle" x="249.396" y="-189.5" font-family="Helvetica,sans-Serif" font-size="10.00">base/std_ext/time.h</text>
</a>
</g>
<!-- Node24&#45;&gt;Node25 -->
<g id="edge66" class="edge"><title>Node24&#45;&gt;Node25</title>
<path fill="none" stroke="midnightblue" d="M421.741,-250.044C390.478,-239.515 330.524,-219.323 290.237,-205.755"/>
<polygon fill="midnightblue" stroke="midnightblue" points="291.294,-202.418 280.699,-202.543 289.059,-209.051 291.294,-202.418"/>
</g>
<!-- Node29 -->
<g id="node69" class="node"><title>Node29</title>
<polygon fill="white" stroke="#bfbfbf" points="163.896,-116.5 163.896,-137.5 204.896,-137.5 204.896,-116.5 163.896,-116.5"/>
<text text-anchor="middle" x="184.396" y="-124.5" font-family="Helvetica,sans-Serif" font-size="10.00">ctime</text>
</g>
<!-- Node24&#45;&gt;Node29 -->
<g id="edge94" class="edge"><title>Node24&#45;&gt;Node29</title>
<path fill="none" stroke="midnightblue" d="M421.502,-256.302C366.533,-253.995 220.011,-244.651 189.396,-210 174.534,-193.179 175.881,-166.174 179.229,-147.56"/>
<polygon fill="midnightblue" stroke="midnightblue" points="182.667,-148.22 181.325,-137.71 175.82,-146.763 182.667,-148.22"/>
</g>
<!-- Node30 -->
<g id="node72" class="node"><title>Node30</title>
<polygon fill="white" stroke="#bfbfbf" points="66.3955,-181.5 66.3955,-202.5 104.396,-202.5 104.396,-181.5 66.3955,-181.5"/>
<text text-anchor="middle" x="85.3955" y="-189.5" font-family="Helvetica,sans-Serif" font-size="10.00">tuple</text>
</g>
<!-- Node24&#45;&gt;Node30 -->
<g id="edge84" class="edge"><title>Node24&#45;&gt;Node30</title>
<path fill="none" stroke="midnightblue" d="M421.722,-256.521C369.516,-254.779 228.668,-246.751 118.396,-210 115.958,-209.188 113.489,-208.199 111.057,-207.108"/>
<polygon fill="midnightblue" stroke="midnightblue" points="112.504,-203.918 101.999,-202.548 109.356,-210.171 112.504,-203.918"/>
</g>
<!-- Node31 -->
<g id="node74" class="node"><title>Node31</title>
<polygon fill="white" stroke="#bfbfbf" points="290.396,-116.5 290.396,-137.5 336.396,-137.5 336.396,-116.5 290.396,-116.5"/>
<text text-anchor="middle" x="313.396" y="-124.5" font-family="Helvetica,sans-Serif" font-size="10.00">cstdint</text>
</g>
<!-- Node24&#45;&gt;Node31 -->
<g id="edge86" class="edge"><title>Node24&#45;&gt;Node31</title>
<path fill="none" stroke="midnightblue" d="M430.14,-246.465C419.423,-237.127 403.559,-222.994 390.396,-210 368.637,-188.522 344.892,-162.502 329.608,-145.389"/>
<polygon fill="midnightblue" stroke="midnightblue" points="332.09,-142.912 322.83,-137.762 326.857,-147.562 332.09,-142.912"/>
</g>
<!-- Node32 -->
<g id="node78" class="node"><title>Node32</title>
<polygon fill="white" stroke="#bfbfbf" points="1235.4,-181.5 1235.4,-202.5 1285.4,-202.5 1285.4,-181.5 1235.4,-181.5"/>
<text text-anchor="middle" x="1260.4" y="-189.5" font-family="Helvetica,sans-Serif" font-size="10.00">iomanip</text>
</g>
<!-- Node24&#45;&gt;Node32 -->
<g id="edge92" class="edge"><title>Node24&#45;&gt;Node32</title>
<path fill="none" stroke="midnightblue" d="M463.176,-255.986C545.993,-251.853 860.521,-235.288 1118.4,-210 1154.96,-206.414 1196.65,-200.967 1225.35,-197.004"/>
<polygon fill="midnightblue" stroke="midnightblue" points="1225.88,-200.464 1235.31,-195.617 1224.92,-193.531 1225.88,-200.464"/>
</g>
<!-- Node26 -->
<g id="node60" class="node"><title>Node26</title>
<a xlink:href="string_8h.html" target="_top" xlink:title="base/std_ext/string.h">
<polygon fill="white" stroke="black" points="2058.4,-116.5 2058.4,-137.5 2166.4,-137.5 2166.4,-116.5 2058.4,-116.5"/>
<text text-anchor="middle" x="2112.4" y="-124.5" font-family="Helvetica,sans-Serif" font-size="10.00">base/std_ext/string.h</text>
</a>
</g>
<!-- Node25&#45;&gt;Node26 -->
<g id="edge68" class="edge"><title>Node25&#45;&gt;Node26</title>
<path fill="none" stroke="midnightblue" d="M301.13,-188.73C366.421,-184.709 482.189,-177.937 581.396,-174 1216.65,-148.788 1377.06,-180.454 2011.4,-138 2023.29,-137.204 2035.94,-136.062 2048.12,-134.812"/>
<polygon fill="midnightblue" stroke="midnightblue" points="2048.64,-138.276 2058.22,-133.741 2047.9,-131.315 2048.64,-138.276"/>
</g>
<!-- Node28 -->
<g id="node67" class="node"><title>Node28</title>
<polygon fill="white" stroke="#bfbfbf" points="226.396,-116.5 226.396,-137.5 272.396,-137.5 272.396,-116.5 226.396,-116.5"/>
<text text-anchor="middle" x="249.396" y="-124.5" font-family="Helvetica,sans-Serif" font-size="10.00">cstring</text>
</g>
<!-- Node25&#45;&gt;Node28 -->
<g id="edge78" class="edge"><title>Node25&#45;&gt;Node28</title>
<path fill="none" stroke="midnightblue" d="M249.396,-181.267C249.396,-172.18 249.396,-158.892 249.396,-147.74"/>
<polygon fill="midnightblue" stroke="midnightblue" points="252.896,-147.534 249.396,-137.534 245.896,-147.534 252.896,-147.534"/>
</g>
<!-- Node25&#45;&gt;Node29 -->
<g id="edge80" class="edge"><title>Node25&#45;&gt;Node29</title>
<path fill="none" stroke="midnightblue" d="M238.662,-181.267C228.724,-171.328 213.759,-156.363 202.06,-144.664"/>
<polygon fill="midnightblue" stroke="midnightblue" points="204.475,-142.13 194.929,-137.534 199.525,-147.08 204.475,-142.13"/>
</g>
<!-- Node26&#45;&gt;Node11 -->
<g id="edge74" class="edge"><title>Node26&#45;&gt;Node11</title>
<path fill="none" stroke="midnightblue" d="M2105.06,-116.362C2099.59,-108.431 2091.97,-97.3885 2085.47,-87.9606"/>
<polygon fill="midnightblue" stroke="midnightblue" points="2088.24,-85.8157 2079.69,-79.5707 2082.48,-89.7899 2088.24,-85.8157"/>
</g>
<!-- Node26&#45;&gt;Node16 -->
<g id="edge76" class="edge"><title>Node26&#45;&gt;Node16</title>
<path fill="none" stroke="midnightblue" d="M2158.21,-116.497C2208.83,-104.892 2289.04,-86.5038 2333.35,-76.3472"/>
<polygon fill="midnightblue" stroke="midnightblue" points="2334.31,-79.717 2343.28,-74.0709 2332.75,-72.894 2334.31,-79.717"/>
</g>
<!-- Node26&#45;&gt;Node17 -->
<g id="edge70" class="edge"><title>Node26&#45;&gt;Node17</title>
<path fill="none" stroke="midnightblue" d="M2166.64,-124.376C2374.77,-114.308 3118.72,-78.3202 3280.29,-70.5047"/>
<polygon fill="midnightblue" stroke="midnightblue" points="3280.67,-73.9904 3290.49,-70.0112 3280.33,-66.9986 3280.67,-73.9904"/>
</g>
<!-- Node27 -->
<g id="node63" class="node"><title>Node27</title>
<polygon fill="white" stroke="#bfbfbf" points="376.396,-58.5 376.396,-79.5 428.396,-79.5 428.396,-58.5 376.396,-58.5"/>
<text text-anchor="middle" x="402.396" y="-66.5" font-family="Helvetica,sans-Serif" font-size="10.00">sstream</text>
</g>
<!-- Node26&#45;&gt;Node27 -->
<g id="edge72" class="edge"><title>Node26&#45;&gt;Node27</title>
<path fill="none" stroke="midnightblue" d="M2058.21,-120.299C2043.08,-118.646 2026.62,-117.05 2011.4,-116 1690.61,-93.881 646.378,-73.5497 438.557,-69.6655"/>
<polygon fill="midnightblue" stroke="midnightblue" points="438.547,-66.1649 428.483,-69.4779 438.417,-73.1636 438.547,-66.1649"/>
</g>
<!-- Node33&#45;&gt;Node27 -->
<g id="edge136" class="edge"><title>Node33&#45;&gt;Node27</title>
<path fill="none" stroke="midnightblue" d="M1208.27,-254.247C1032.83,-244.941 474.277,-214.957 466.396,-210 424.461,-183.627 409.736,-122.164 404.777,-89.7928"/>
<polygon fill="midnightblue" stroke="midnightblue" points="408.215,-89.0993 403.401,-79.6611 401.279,-90.0411 408.215,-89.0993"/>
</g>
<!-- Node33&#45;&gt;Node32 -->
<g id="edge134" class="edge"><title>Node33&#45;&gt;Node32</title>
<path fill="none" stroke="midnightblue" d="M1260.4,-246.267C1260.4,-237.18 1260.4,-223.892 1260.4,-212.74"/>
<polygon fill="midnightblue" stroke="midnightblue" points="1263.9,-212.534 1260.4,-202.534 1256.9,-212.534 1263.9,-212.534"/>
</g>
<!-- Node34 -->
<g id="node83" class="node"><title>Node34</title>
<a xlink:href="_detector__t_8h.html" target="_top" xlink:title="base/Detector_t.h">
<polygon fill="white" stroke="black" points="1570.9,-181.5 1570.9,-202.5 1665.9,-202.5 1665.9,-181.5 1570.9,-181.5"/>
<text text-anchor="middle" x="1618.4" y="-189.5" font-family="Helvetica,sans-Serif" font-size="10.00">base/Detector_t.h</text>
</a>
</g>
<!-- Node33&#45;&gt;Node34 -->
<g id="edge98" class="edge"><title>Node33&#45;&gt;Node34</title>
<path fill="none" stroke="midnightblue" d="M1312.45,-247.548C1378.49,-235.559 1492.01,-214.947 1560.65,-202.485"/>
<polygon fill="midnightblue" stroke="midnightblue" points="1561.64,-205.862 1570.85,-200.632 1560.39,-198.975 1561.64,-205.862"/>
</g>
<!-- Node34&#45;&gt;Node7 -->
<g id="edge100" class="edge"><title>Node34&#45;&gt;Node7</title>
<path fill="none" stroke="midnightblue" d="M1570.79,-188.072C1509.81,-182.032 1401.5,-167.873 1313.4,-138 1273.9,-124.609 1231.72,-100.931 1205.7,-85.1011"/>
<polygon fill="midnightblue" stroke="midnightblue" points="1207.22,-81.9315 1196.88,-79.6577 1203.55,-87.8883 1207.22,-81.9315"/>
</g>
<!-- Node34&#45;&gt;Node8 -->
<g id="edge130" class="edge"><title>Node34&#45;&gt;Node8</title>
<path fill="none" stroke="midnightblue" d="M1570.53,-182.848C1529.06,-174.053 1467.95,-158.996 1417.4,-138 1399.37,-130.515 1396.47,-125.444 1379.4,-116 1319.99,-83.1495 1249.54,-46.5159 1210.41,-26.3717"/>
<polygon fill="midnightblue" stroke="midnightblue" points="1211.66,-23.0771 1201.17,-21.6179 1208.46,-29.3027 1211.66,-23.0771"/>
</g>
<!-- Node34&#45;&gt;Node12 -->
<g id="edge126" class="edge"><title>Node34&#45;&gt;Node12</title>
<path fill="none" stroke="midnightblue" d="M1618.4,-181.085C1618.4,-160.609 1618.4,-116.133 1618.4,-89.778"/>
<polygon fill="midnightblue" stroke="midnightblue" points="1621.9,-89.7153 1618.4,-79.7153 1614.9,-89.7154 1621.9,-89.7153"/>
</g>
<!-- Node34&#45;&gt;Node16 -->
<g id="edge132" class="edge"><title>Node34&#45;&gt;Node16</title>
<path fill="none" stroke="midnightblue" d="M1666.01,-190.283C1787.7,-185.476 2107.56,-170.082 2208.4,-138 2226.99,-132.083 2228.83,-124.497 2246.4,-116 2275.22,-102.06 2309.31,-88.9175 2333.6,-80.0939"/>
<polygon fill="midnightblue" stroke="midnightblue" points="2334.81,-83.3769 2343.04,-76.702 2332.45,-76.789 2334.81,-83.3769"/>
</g>
<!-- Node34&#45;&gt;Node17 -->
<g id="edge128" class="edge"><title>Node34&#45;&gt;Node17</title>
<path fill="none" stroke="midnightblue" d="M1666.08,-189.588C1817.4,-181.816 2285.64,-156.846 2436.4,-138 2489.77,-131.328 2502.01,-122.57 2555.4,-116 2835.59,-81.5177 3177.49,-71.8165 3280.56,-69.5831"/>
<polygon fill="midnightblue" stroke="midnightblue" points="3280.94,-73.0761 3290.86,-69.3679 3280.79,-66.0776 3280.94,-73.0761"/>
</g>
<!-- Node34&#45;&gt;Node31 -->
<g id="edge124" class="edge"><title>Node34&#45;&gt;Node31</title>
<path fill="none" stroke="midnightblue" d="M1570.64,-189.161C1507.46,-185.448 1392.58,-178.844 1294.4,-174 923.391,-155.697 830.202,-159.956 459.396,-138 420.751,-135.712 376.414,-132.253 346.835,-129.826"/>
<polygon fill="midnightblue" stroke="midnightblue" points="346.898,-126.32 336.643,-128.983 346.321,-133.296 346.898,-126.32"/>
</g>
<!-- Node35 -->
<g id="node86" class="node"><title>Node35</title>
<a xlink:href="vec3_8h.html" target="_top" xlink:title="base/vec/vec3.h">
<polygon fill="white" stroke="black" points="1425.9,-116.5 1425.9,-137.5 1514.9,-137.5 1514.9,-116.5 1425.9,-116.5"/>
<text text-anchor="middle" x="1470.4" y="-124.5" font-family="Helvetica,sans-Serif" font-size="10.00">base/vec/vec3.h</text>
</a>
</g>
<!-- Node34&#45;&gt;Node35 -->
<g id="edge102" class="edge"><title>Node34&#45;&gt;Node35</title>
<path fill="none" stroke="midnightblue" d="M1594.29,-181.412C1569.67,-170.6 1531.26,-153.731 1503.73,-141.642"/>
<polygon fill="midnightblue" stroke="midnightblue" points="1505.06,-138.4 1494.49,-137.584 1502.24,-144.809 1505.06,-138.4"/>
</g>
<!-- Node34&#45;&gt;Node38 -->
<g id="edge112" class="edge"><title>Node34&#45;&gt;Node38</title>
<path fill="none" stroke="midnightblue" d="M1643.97,-181.412C1670.2,-170.552 1711.19,-153.583 1740.41,-141.484"/>
<polygon fill="midnightblue" stroke="midnightblue" points="1741.93,-144.643 1749.83,-137.584 1739.25,-138.175 1741.93,-144.643"/>
</g>
<!-- Node35&#45;&gt;Node7 -->
<g id="edge104" class="edge"><title>Node35&#45;&gt;Node7</title>
<path fill="none" stroke="midnightblue" d="M1425.72,-118.065C1370.04,-106.93 1275.67,-88.0539 1221.64,-77.2488"/>
<polygon fill="midnightblue" stroke="midnightblue" points="1222.21,-73.7937 1211.72,-75.2645 1220.84,-80.6578 1222.21,-73.7937"/>
</g>
<!-- Node36 -->
<g id="node89" class="node"><title>Node36</title>
<a xlink:href="vec2_8h.html" target="_top" xlink:title="vec2.h">
<polygon fill="white" stroke="black" points="1498.4,-58.5 1498.4,-79.5 1544.4,-79.5 1544.4,-58.5 1498.4,-58.5"/>
<text text-anchor="middle" x="1521.4" y="-66.5" font-family="Helvetica,sans-Serif" font-size="10.00">vec2.h</text>
</a>
</g>
<!-- Node35&#45;&gt;Node36 -->
<g id="edge106" class="edge"><title>Node35&#45;&gt;Node36</title>
<path fill="none" stroke="midnightblue" d="M1479.75,-116.362C1486.94,-108.186 1497.04,-96.7025 1505.49,-87.0907"/>
<polygon fill="midnightblue" stroke="midnightblue" points="1508.13,-89.3916 1512.1,-79.5707 1502.87,-84.7692 1508.13,-89.3916"/>
</g>
<!-- Node37 -->
<g id="node91" class="node"><title>Node37</title>
<polygon fill="white" stroke="#bfbfbf" points="1499.4,-0.5 1499.4,-21.5 1543.4,-21.5 1543.4,-0.5 1499.4,-0.5"/>
<text text-anchor="middle" x="1521.4" y="-8.5" font-family="Helvetica,sans-Serif" font-size="10.00">cmath</text>
</g>
<!-- Node35&#45;&gt;Node37 -->
<g id="edge110" class="edge"><title>Node35&#45;&gt;Node37</title>
<path fill="none" stroke="midnightblue" d="M1472.2,-116.337C1474.8,-102.447 1480.32,-77.6222 1489.4,-58 1493.96,-48.1306 1500.52,-38.0524 1506.52,-29.7725"/>
<polygon fill="midnightblue" stroke="midnightblue" points="1509.46,-31.683 1512.68,-21.5887 1503.87,-27.4729 1509.46,-31.683"/>
</g>
<!-- Node36&#45;&gt;Node37 -->
<g id="edge108" class="edge"><title>Node36&#45;&gt;Node37</title>
<path fill="none" stroke="midnightblue" d="M1521.4,-58.3619C1521.4,-50.9219 1521.4,-40.7427 1521.4,-31.7276"/>
<polygon fill="midnightblue" stroke="midnightblue" points="1524.9,-31.5706 1521.4,-21.5707 1517.9,-31.5707 1524.9,-31.5706"/>
</g>
<!-- Node38&#45;&gt;Node11 -->
<g id="edge120" class="edge"><title>Node38&#45;&gt;Node11</title>
<path fill="none" stroke="midnightblue" d="M1828.49,-116.631C1887.78,-105.053 1982.24,-86.606 2034.51,-76.3994"/>
<polygon fill="midnightblue" stroke="midnightblue" points="2035.23,-79.8243 2044.37,-74.4724 2033.89,-72.954 2035.23,-79.8243"/>
</g>
<!-- Node38&#45;&gt;Node12 -->
<g id="edge122" class="edge"><title>Node38&#45;&gt;Node12</title>
<path fill="none" stroke="midnightblue" d="M1746.96,-116.497C1721.59,-107.123 1684.24,-93.3242 1656.33,-83.0122"/>
<polygon fill="midnightblue" stroke="midnightblue" points="1657.47,-79.7054 1646.88,-79.5231 1655.05,-86.2716 1657.47,-79.7054"/>
</g>
<!-- Node38&#45;&gt;Node13 -->
<g id="edge116" class="edge"><title>Node38&#45;&gt;Node13</title>
<path fill="none" stroke="midnightblue" d="M1778.33,-116.362C1780.41,-108.84 1783.25,-98.5187 1785.76,-89.4308"/>
<polygon fill="midnightblue" stroke="midnightblue" points="1789.19,-90.1414 1788.48,-79.5707 1782.45,-88.2798 1789.19,-90.1414"/>
</g>
<!-- Node38&#45;&gt;Node16 -->
<g id="edge118" class="edge"><title>Node38&#45;&gt;Node16</title>
<path fill="none" stroke="midnightblue" d="M1828.53,-121.776C1948.39,-109.994 2236.82,-81.64 2333.32,-72.1527"/>
<polygon fill="midnightblue" stroke="midnightblue" points="2333.74,-75.6288 2343.35,-71.1672 2333.06,-68.6624 2333.74,-75.6288"/>
</g>
<!-- Node38&#45;&gt;Node37 -->
<g id="edge114" class="edge"><title>Node38&#45;&gt;Node37</title>
<path fill="none" stroke="midnightblue" d="M1759.37,-116.38C1736.99,-101.866 1694.81,-75.6305 1656.4,-58 1622.04,-42.2357 1580.79,-28.5939 1553,-20.1285"/>
<polygon fill="midnightblue" stroke="midnightblue" points="1553.99,-16.7724 1543.4,-17.2496 1551.98,-23.4768 1553.99,-16.7724"/>
</g>
<!-- Node39&#45;&gt;Node7 -->
<g id="edge144" class="edge"><title>Node39&#45;&gt;Node7</title>
<path fill="none" stroke="midnightblue" d="M253.395,-308.656C173.38,-294.582 11.0084,-255.356 57.3955,-174 82.4646,-130.033 106.898,-130.478 155.396,-116 250.686,-87.5527 959.619,-72.9726 1139.16,-69.7121"/>
<polygon fill="midnightblue" stroke="midnightblue" points="1139.32,-73.21 1149.26,-69.5308 1139.19,-66.2112 1139.32,-73.21"/>
</g>
<!-- Node39&#45;&gt;Node24 -->
<g id="edge140" class="edge"><title>Node39&#45;&gt;Node24</title>
<path fill="none" stroke="midnightblue" d="M322.016,-304.497C347.4,-294.481 385.588,-279.414 412.12,-268.946"/>
<polygon fill="midnightblue" stroke="midnightblue" points="413.649,-272.105 421.666,-265.179 411.08,-265.593 413.649,-272.105"/>
</g>
<!-- Node39&#45;&gt;Node25 -->
<g id="edge142" class="edge"><title>Node39&#45;&gt;Node25</title>
<path fill="none" stroke="midnightblue" d="M291.313,-304.085C283.622,-283.518 266.874,-238.735 257.035,-212.426"/>
<polygon fill="midnightblue" stroke="midnightblue" points="260.184,-210.856 253.403,-202.715 253.628,-213.308 260.184,-210.856"/>
</g>
<!-- Node39&#45;&gt;Node30 -->
<g id="edge148" class="edge"><title>Node39&#45;&gt;Node30</title>
<path fill="none" stroke="midnightblue" d="M277.127,-304.3C240.033,-282.573 155.737,-233.2 112.332,-207.777"/>
<polygon fill="midnightblue" stroke="midnightblue" points="113.87,-204.622 103.473,-202.588 110.332,-210.662 113.87,-204.622"/>
</g>
<!-- Node39&#45;&gt;Node31 -->
<g id="edge146" class="edge"><title>Node39&#45;&gt;Node31</title>
<path fill="none" stroke="midnightblue" d="M297.126,-304.301C300.123,-285.351 306.259,-244.616 309.396,-210 311.31,-188.871 312.345,-164.627 312.879,-147.819"/>
<polygon fill="midnightblue" stroke="midnightblue" points="316.387,-147.597 313.173,-137.501 309.389,-147.398 316.387,-147.597"/>
</g>
<!-- Node40&#45;&gt;Node7 -->
<g id="edge180" class="edge"><title>Node40&#45;&gt;Node7</title>
<path fill="none" stroke="midnightblue" d="M988.903,-246.329C994.56,-236.903 1002.85,-222.719 1009.4,-210 1030.42,-169.149 1018.68,-147.209 1052.4,-116 1076.35,-93.8261 1111.63,-81.9036 1139.09,-75.6222"/>
<polygon fill="midnightblue" stroke="midnightblue" points="1140.14,-78.9787 1149.19,-73.4813 1138.68,-72.1308 1140.14,-78.9787"/>
</g>
<!-- Node41 -->
<g id="node117" class="node"><title>Node41</title>
<a xlink:href="_format_8h.html" target="_top" xlink:title="base/Format.h">
<polygon fill="white" stroke="black" points="920.396,-181.5 920.396,-202.5 1000.4,-202.5 1000.4,-181.5 920.396,-181.5"/>
<text text-anchor="middle" x="960.396" y="-189.5" font-family="Helvetica,sans-Serif" font-size="10.00">base/Format.h</text>
</a>
</g>
<!-- Node40&#45;&gt;Node41 -->
<g id="edge152" class="edge"><title>Node40&#45;&gt;Node41</title>
<path fill="none" stroke="midnightblue" d="M978.763,-246.267C975.623,-236.991 971.002,-223.336 967.18,-212.045"/>
<polygon fill="midnightblue" stroke="midnightblue" points="970.482,-210.884 963.961,-202.534 963.852,-213.128 970.482,-210.884"/>
</g>
<!-- Node41&#45;&gt;Node12 -->
<g id="edge170" class="edge"><title>Node41&#45;&gt;Node12</title>
<path fill="none" stroke="midnightblue" d="M993.45,-181.378C1045.74,-164.963 1151.01,-133.503 1242.4,-116 1379.06,-89.8242 1415.64,-99.6155 1553.4,-80 1561.61,-78.83 1570.39,-77.4402 1578.75,-76.049"/>
<polygon fill="midnightblue" stroke="midnightblue" points="1579.4,-79.4885 1588.68,-74.3661 1578.23,-72.587 1579.4,-79.4885"/>
</g>
<!-- Node41&#45;&gt;Node13 -->
<g id="edge166" class="edge"><title>Node41&#45;&gt;Node13</title>
<path fill="none" stroke="midnightblue" d="M1000.71,-183.29C1092.5,-163.461 1309.49,-116.61 1313.4,-116 1400.58,-102.374 1670.32,-79.1537 1761.17,-71.5166"/>
<polygon fill="midnightblue" stroke="midnightblue" points="1761.67,-74.9874 1771.34,-70.6641 1761.08,-68.0118 1761.67,-74.9874"/>
</g>
<!-- Node41&#45;&gt;Node16 -->
<g id="edge174" class="edge"><title>Node41&#45;&gt;Node16</title>
<path fill="none" stroke="midnightblue" d="M1000.48,-188.916C1052.53,-184.996 1146.2,-178.234 1226.4,-174 1331.77,-168.437 2075,-170.487 2175.4,-138 2192.17,-132.573 2192.44,-123.499 2208.4,-116 2249.75,-96.5583 2301.02,-83.0112 2333.48,-75.6151"/>
<polygon fill="midnightblue" stroke="midnightblue" points="2334.31,-79.0144 2343.32,-73.4302 2332.8,-72.1808 2334.31,-79.0144"/>
</g>
<!-- Node41&#45;&gt;Node17 -->
<g id="edge172" class="edge"><title>Node41&#45;&gt;Node17</title>
<path fill="none" stroke="midnightblue" d="M1000.48,-188.901C1052.53,-184.966 1146.2,-178.187 1226.4,-174 1661.21,-151.299 1770.93,-166.652 2205.4,-138 2308.3,-131.213 2333.55,-123.656 2436.4,-116 2766.37,-91.4351 3167.28,-74.6842 3280.38,-70.2021"/>
<polygon fill="midnightblue" stroke="midnightblue" points="3280.85,-73.6863 3290.71,-69.7954 3280.58,-66.6917 3280.85,-73.6863"/>
</g>
<!-- Node41&#45;&gt;Node19 -->
<g id="edge168" class="edge"><title>Node41&#45;&gt;Node19</title>
<path fill="none" stroke="midnightblue" d="M1000.48,-188.814C1052.52,-184.785 1146.18,-177.906 1226.4,-174 1763.77,-147.833 1899.07,-165.172 2436.4,-138 2476.8,-135.957 2523.1,-132.499 2554.29,-130.005"/>
<polygon fill="midnightblue" stroke="midnightblue" points="2554.57,-133.494 2564.26,-129.2 2554.01,-126.516 2554.57,-133.494"/>
</g>
<!-- Node41&#45;&gt;Node28 -->
<g id="edge164" class="edge"><title>Node41&#45;&gt;Node28</title>
<path fill="none" stroke="midnightblue" d="M919.95,-189.379C788.641,-180.791 377.711,-153.267 282.615,-137.593"/>
<polygon fill="midnightblue" stroke="midnightblue" points="283.094,-134.122 272.624,-135.742 281.819,-141.005 283.094,-134.122"/>
</g>
<!-- Node41&#45;&gt;Node37 -->
<g id="edge160" class="edge"><title>Node41&#45;&gt;Node37</title>
<path fill="none" stroke="midnightblue" d="M920.275,-191.231C843.835,-188.827 681.853,-178.911 647.396,-138 641.097,-130.521 640.907,-123.315 647.396,-116 704.528,-51.5925 1338.28,-19.2167 1489.25,-12.3859"/>
<polygon fill="midnightblue" stroke="midnightblue" points="1489.44,-15.8811 1499.27,-11.9381 1489.13,-8.88804 1489.44,-15.8811"/>
</g>
<!-- Node42 -->
<g id="node119" class="node"><title>Node42</title>
<polygon fill="white" stroke="#bfbfbf" points="656.396,-116.5 656.396,-137.5 752.396,-137.5 752.396,-116.5 656.396,-116.5"/>
<text text-anchor="middle" x="704.396" y="-124.5" font-family="Helvetica,sans-Serif" font-size="10.00">detail/fmt/format.h</text>
</g>
<!-- Node41&#45;&gt;Node42 -->
<g id="edge154" class="edge"><title>Node41&#45;&gt;Node42</title>
<path fill="none" stroke="midnightblue" d="M920.114,-181.772C875.813,-170.524 804.502,-152.418 756.103,-140.129"/>
<polygon fill="midnightblue" stroke="midnightblue" points="756.695,-136.668 746.141,-137.6 754.972,-143.453 756.695,-136.668"/>
</g>
<!-- Node43 -->
<g id="node121" class="node"><title>Node43</title>
<polygon fill="white" stroke="#bfbfbf" points="1321.9,-116.5 1321.9,-137.5 1370.9,-137.5 1370.9,-116.5 1321.9,-116.5"/>
<text text-anchor="middle" x="1346.4" y="-124.5" font-family="Helvetica,sans-Serif" font-size="10.00">cassert</text>
</g>
<!-- Node41&#45;&gt;Node43 -->
<g id="edge156" class="edge"><title>Node41&#45;&gt;Node43</title>
<path fill="none" stroke="midnightblue" d="M1000.61,-185.228C1076.62,-172.428 1240.15,-144.892 1311.69,-132.844"/>
<polygon fill="midnightblue" stroke="midnightblue" points="1312.28,-136.295 1321.56,-131.183 1311.11,-129.392 1312.28,-136.295"/>
</g>
<!-- Node44 -->
<g id="node123" class="node"><title>Node44</title>
<polygon fill="white" stroke="#bfbfbf" points="769.896,-116.5 769.896,-137.5 816.896,-137.5 816.896,-116.5 769.896,-116.5"/>
<text text-anchor="middle" x="793.396" y="-124.5" font-family="Helvetica,sans-Serif" font-size="10.00">clocale</text>
</g>
<!-- Node41&#45;&gt;Node44 -->
<g id="edge158" class="edge"><title>Node41&#45;&gt;Node44</title>
<path fill="none" stroke="midnightblue" d="M933.192,-181.412C904.086,-170.083 857.898,-152.106 826.652,-139.944"/>
<polygon fill="midnightblue" stroke="midnightblue" points="827.661,-136.581 817.073,-136.216 825.122,-143.104 827.661,-136.581"/>
</g>
<!-- Node45 -->
<g id="node126" class="node"><title>Node45</title>
<polygon fill="white" stroke="#bfbfbf" points="833.896,-116.5 833.896,-137.5 876.896,-137.5 876.896,-116.5 833.896,-116.5"/>
<text text-anchor="middle" x="855.396" y="-124.5" font-family="Helvetica,sans-Serif" font-size="10.00">cstdio</text>
</g>
<!-- Node41&#45;&gt;Node45 -->
<g id="edge162" class="edge"><title>Node41&#45;&gt;Node45</title>
<path fill="none" stroke="midnightblue" d="M943.057,-181.267C926.161,-170.807 900.274,-154.782 881.006,-142.854"/>
<polygon fill="midnightblue" stroke="midnightblue" points="882.756,-139.821 872.412,-137.534 879.072,-145.773 882.756,-139.821"/>
</g>
<!-- Node46 -->
<g id="node134" class="node"><title>Node46</title>
<polygon fill="white" stroke="#bfbfbf" points="894.396,-116.5 894.396,-137.5 934.396,-137.5 934.396,-116.5 894.396,-116.5"/>
<text text-anchor="middle" x="914.396" y="-124.5" font-family="Helvetica,sans-Serif" font-size="10.00">utility</text>
</g>
<!-- Node41&#45;&gt;Node46 -->
<g id="edge176" class="edge"><title>Node41&#45;&gt;Node46</title>
<path fill="none" stroke="midnightblue" d="M952.8,-181.267C946.034,-171.707 935.978,-157.496 927.852,-146.015"/>
<polygon fill="midnightblue" stroke="midnightblue" points="930.484,-143.675 921.85,-137.534 924.77,-147.718 930.484,-143.675"/>
</g>
<!-- Node47 -->
<g id="node136" class="node"><title>Node47</title>
<polygon fill="white" stroke="#bfbfbf" points="951.896,-116.5 951.896,-137.5 1000.9,-137.5 1000.9,-116.5 951.896,-116.5"/>
<text text-anchor="middle" x="976.396" y="-124.5" font-family="Helvetica,sans-Serif" font-size="10.00">stdint.h</text>
</g>
<!-- Node41&#45;&gt;Node47 -->
<g id="edge178" class="edge"><title>Node41&#45;&gt;Node47</title>
<path fill="none" stroke="midnightblue" d="M963.038,-181.267C965.298,-172.085 968.613,-158.615 971.376,-147.392"/>
<polygon fill="midnightblue" stroke="midnightblue" points="974.811,-148.08 973.803,-137.534 968.014,-146.407 974.811,-148.08"/>
</g>
<!-- Node48&#45;&gt;Node7 -->
<g id="edge186" class="edge"><title>Node48&#45;&gt;Node7</title>
<path fill="none" stroke="midnightblue" d="M1178.01,-304.154C1171.74,-274.103 1156,-187.285 1166.4,-116 1167.71,-106.996 1170.36,-97.3181 1173.01,-89.0986"/>
<polygon fill="midnightblue" stroke="midnightblue" points="1176.33,-90.2223 1176.27,-79.6276 1169.71,-87.9496 1176.33,-90.2223"/>
</g>
<!-- Node48&#45;&gt;Node16 -->
<g id="edge192" class="edge"><title>Node48&#45;&gt;Node16</title>
<path fill="none" stroke="midnightblue" d="M1217.48,-314.655C1370.04,-312.657 1948.55,-299.224 2103.4,-210 2122.73,-198.859 2118.83,-184.733 2138.4,-174 2207.63,-136.018 2245.48,-179.942 2312.4,-138 2331.58,-125.975 2346.47,-104.377 2355.51,-88.5382"/>
<polygon fill="midnightblue" stroke="midnightblue" points="2358.69,-90.0179 2360.38,-79.5579 2352.54,-86.684 2358.69,-90.0179"/>
</g>
<!-- Node48&#45;&gt;Node24 -->
<g id="edge184" class="edge"><title>Node48&#45;&gt;Node24</title>
<path fill="none" stroke="midnightblue" d="M1143.29,-312.084C1014.89,-301.993 590.87,-268.669 473.021,-259.407"/>
<polygon fill="midnightblue" stroke="midnightblue" points="473.141,-255.906 462.897,-258.611 472.592,-262.884 473.141,-255.906"/>
</g>
<!-- Node48&#45;&gt;Node27 -->
<g id="edge196" class="edge"><title>Node48&#45;&gt;Node27</title>
<path fill="none" stroke="midnightblue" d="M1143.39,-314.391C955.09,-311.174 110.41,-295.263 62.3955,-268 1.84121,-233.617 -21.7059,-168.189 24.3955,-116 46.8475,-90.5835 276.015,-75.7221 366.207,-70.8193"/>
<polygon fill="midnightblue" stroke="midnightblue" points="366.446,-74.3116 376.246,-70.2837 366.073,-67.3216 366.446,-74.3116"/>
</g>
<!-- Node48&#45;&gt;Node32 -->
<g id="edge194" class="edge"><title>Node48&#45;&gt;Node32</title>
<path fill="none" stroke="midnightblue" d="M1181.41,-304.433C1183.18,-290.212 1187.83,-264.557 1199.4,-246 1208.58,-231.274 1222.97,-218.261 1235.47,-208.7"/>
<polygon fill="midnightblue" stroke="midnightblue" points="1237.73,-211.384 1243.73,-202.654 1233.59,-205.734 1237.73,-211.384"/>
</g>
<!-- Node49 -->
<g id="node143" class="node"><title>Node49</title>
<a xlink:href="_lorentz_vec_8h.html" target="_top" xlink:title="base/vec/LorentzVec.h">
<polygon fill="white" stroke="black" points="1411.9,-246.5 1411.9,-267.5 1528.9,-267.5 1528.9,-246.5 1411.9,-246.5"/>
<text text-anchor="middle" x="1470.4" y="-254.5" font-family="Helvetica,sans-Serif" font-size="10.00">base/vec/LorentzVec.h</text>
</a>
</g>
<!-- Node48&#45;&gt;Node49 -->
<g id="edge188" class="edge"><title>Node48&#45;&gt;Node49</title>
<path fill="none" stroke="midnightblue" d="M1217.42,-307.595C1265.31,-298.016 1349.47,-281.185 1407.48,-269.582"/>
<polygon fill="midnightblue" stroke="midnightblue" points="1408.52,-272.945 1417.64,-267.552 1407.15,-266.081 1408.52,-272.945"/>
</g>
<!-- Node49&#45;&gt;Node35 -->
<g id="edge190" class="edge"><title>Node49&#45;&gt;Node35</title>
<path fill="none" stroke="midnightblue" d="M1470.4,-246.362C1470.4,-224.936 1470.4,-176.24 1470.4,-148.114"/>
<polygon fill="midnightblue" stroke="midnightblue" points="1473.9,-147.785 1470.4,-137.785 1466.9,-147.785 1473.9,-147.785"/>
</g>
<!-- Node50&#45;&gt;Node7 -->
<g id="edge202" class="edge"><title>Node50&#45;&gt;Node7</title>
<path fill="none" stroke="midnightblue" d="M2303.89,-183.658C2289.84,-180.127 2272.88,-176.306 2257.4,-174 2017.73,-138.303 1954.39,-163.152 1713.4,-138 1644.63,-130.823 1627.93,-125.144 1559.4,-116 1436.87,-99.6528 1291.81,-82.1893 1222.01,-73.9048"/>
<polygon fill="midnightblue" stroke="midnightblue" points="1222.21,-70.4043 1211.87,-72.7029 1221.38,-77.3556 1222.21,-70.4043"/>
</g>
<!-- Node50&#45;&gt;Node10 -->
<g id="edge200" class="edge"><title>Node50&#45;&gt;Node10</title>
<path fill="none" stroke="midnightblue" d="M2358.86,-181.356C2365.16,-178.788 2371.98,-176.164 2378.4,-174 2436.83,-154.286 2467.24,-180.001 2512.4,-138 2525.85,-125.488 2531.76,-105.046 2534.36,-89.6525"/>
<polygon fill="midnightblue" stroke="midnightblue" points="2537.86,-89.9001 2535.73,-79.5219 2530.92,-88.9639 2537.86,-89.9001"/>
</g>
<!-- Node50&#45;&gt;Node13 -->
<g id="edge206" class="edge"><title>Node50&#45;&gt;Node13</title>
<path fill="none" stroke="midnightblue" d="M2311.47,-181.406C2304.79,-178.654 2297.4,-175.925 2290.4,-174 2185.97,-145.291 2151.62,-173.763 2049.4,-138 2030.98,-131.556 2029.61,-123.014 2011.4,-116 1946.21,-90.8954 1864.73,-77.9288 1821.54,-72.3932"/>
<polygon fill="midnightblue" stroke="midnightblue" points="1821.77,-68.8952 1811.42,-71.1431 1820.91,-75.8424 1821.77,-68.8952"/>
</g>
<!-- Node50&#45;&gt;Node19 -->
<g id="edge208" class="edge"><title>Node50&#45;&gt;Node19</title>
<path fill="none" stroke="midnightblue" d="M2357.86,-181.48C2364.42,-178.793 2371.61,-176.079 2378.4,-174 2453.07,-151.12 2474.48,-156.363 2550.4,-138 2551.66,-137.695 2552.94,-137.379 2554.23,-137.054"/>
<polygon fill="midnightblue" stroke="midnightblue" points="2555.41,-140.362 2564.21,-134.452 2553.65,-133.589 2555.41,-140.362"/>
</g>
<!-- Node50&#45;&gt;Node20 -->
<g id="edge204" class="edge"><title>Node50&#45;&gt;Node20</title>
<path fill="none" stroke="midnightblue" d="M2365.11,-189.005C2464.3,-179.299 2772.92,-148.81 2837.8,-137.114"/>
<polygon fill="midnightblue" stroke="midnightblue" points="2838.56,-140.529 2847.59,-134.977 2837.07,-133.69 2838.56,-140.529"/>
</g>
<!-- Node51&#45;&gt;Node7 -->
<g id="edge214" class="edge"><title>Node51&#45;&gt;Node7</title>
<path fill="none" stroke="midnightblue" d="M2189.73,-188.076C2159.13,-184.125 2109.99,-178.05 2067.4,-174 1845.16,-152.868 1781.41,-198.044 1566.4,-138 1545.72,-132.226 1543.87,-122.437 1523.4,-116 1418.02,-82.8794 1287.18,-73.0905 1221.74,-70.2034"/>
<polygon fill="midnightblue" stroke="midnightblue" points="1221.57,-66.6935 1211.43,-69.7825 1221.28,-73.6877 1221.57,-66.6935"/>
</g>
<!-- Node51&#45;&gt;Node10 -->
<g id="edge212" class="edge"><title>Node51&#45;&gt;Node10</title>
<path fill="none" stroke="midnightblue" d="M2249.06,-184.713C2285.01,-175.507 2347.12,-158.382 2398.4,-138 2437.81,-122.335 2481.26,-99.653 2508.67,-84.6261"/>
<polygon fill="midnightblue" stroke="midnightblue" points="2510.61,-87.5547 2517.67,-79.6542 2507.22,-81.4282 2510.61,-87.5547"/>
</g>
<!-- Node51&#45;&gt;Node19 -->
<g id="edge222" class="edge"><title>Node51&#45;&gt;Node19</title>
<path fill="none" stroke="midnightblue" d="M2249.24,-184.387C2263.21,-180.965 2280.1,-177.026 2295.4,-174 2344.41,-164.305 2486.77,-142.576 2554.19,-132.423"/>
<polygon fill="midnightblue" stroke="midnightblue" points="2554.97,-135.844 2564.34,-130.896 2553.93,-128.922 2554.97,-135.844"/>
</g>
<!-- Node51&#45;&gt;Node20 -->
<g id="edge220" class="edge"><title>Node51&#45;&gt;Node20</title>
<path fill="none" stroke="midnightblue" d="M2249.13,-183.745C2263.07,-180.188 2279.98,-176.32 2295.4,-174 2531.73,-138.446 2603.05,-197.716 2837.76,-137.638"/>
<polygon fill="midnightblue" stroke="midnightblue" points="2838.82,-140.979 2847.61,-135.07 2837.05,-134.205 2838.82,-140.979"/>
</g>
<!-- Node51&#45;&gt;Node35 -->
<g id="edge218" class="edge"><title>Node51&#45;&gt;Node35</title>
<path fill="none" stroke="midnightblue" d="M2189.73,-188.032C2159.13,-184.045 2110,-177.942 2067.4,-174 1828.33,-151.876 1766.55,-168.424 1528.4,-138 1527.3,-137.86 1526.2,-137.713 1525.09,-137.559"/>
<polygon fill="midnightblue" stroke="midnightblue" points="1525.37,-134.062 1514.96,-136.013 1524.31,-140.982 1525.37,-134.062"/>
</g>
<!-- Node51&#45;&gt;Node38 -->
<g id="edge216" class="edge"><title>Node51&#45;&gt;Node38</title>
<path fill="none" stroke="midnightblue" d="M2189.57,-187.634C2118.12,-177.174 1935.86,-150.492 1838.67,-136.264"/>
<polygon fill="midnightblue" stroke="midnightblue" points="1839.09,-132.787 1828.68,-134.801 1838.07,-139.713 1839.09,-132.787"/>
</g>
<!-- Node52&#45;&gt;Node16 -->
<g id="edge242" class="edge"><title>Node52&#45;&gt;Node16</title>
<path fill="none" stroke="midnightblue" d="M1863.6,-255.647C1910.13,-252.577 1999.49,-242.567 2067.4,-210 2089.87,-199.221 2087.97,-184.879 2110.4,-174 2180.66,-139.911 2212.07,-171.967 2282.4,-138 2308.26,-125.508 2332.91,-103.238 2348.52,-87.3783"/>
<polygon fill="midnightblue" stroke="midnightblue" points="2351.44,-89.3976 2355.82,-79.7545 2346.38,-84.5559 2351.44,-89.3976"/>
</g>
<!-- Node52&#45;&gt;Node19 -->
<g id="edge250" class="edge"><title>Node52&#45;&gt;Node19</title>
<path fill="none" stroke="midnightblue" d="M1863.42,-256.735C1964.02,-255.5 2280.06,-248.569 2373.4,-210 2396.43,-200.482 2394.29,-185.519 2416.4,-174 2440.29,-161.549 2510.76,-144.583 2554.34,-134.81"/>
<polygon fill="midnightblue" stroke="midnightblue" points="2555.27,-138.19 2564.27,-132.604 2553.75,-131.357 2555.27,-138.19"/>
</g>
<!-- Node52&#45;&gt;Node27 -->
<g id="edge248" class="edge"><title>Node52&#45;&gt;Node27</title>
<path fill="none" stroke="midnightblue" d="M1801.18,-255.834C1607.9,-248.611 582.34,-210.277 581.396,-210 520.981,-192.277 507.276,-178.885 459.396,-138 442.173,-123.294 426.085,-102.967 415.423,-88.1871"/>
<polygon fill="midnightblue" stroke="midnightblue" points="418.139,-85.9659 409.523,-79.8008 412.414,-89.9936 418.139,-85.9659"/>
</g>
<!-- Node52&#45;&gt;Node32 -->
<g id="edge246" class="edge"><title>Node52&#45;&gt;Node32</title>
<path fill="none" stroke="midnightblue" d="M1801.28,-252.713C1785.71,-250.609 1766.57,-248.086 1749.4,-246 1579.6,-225.376 1376.22,-203.974 1295.7,-195.632"/>
<polygon fill="midnightblue" stroke="midnightblue" points="1295.92,-192.136 1285.61,-194.589 1295.2,-199.099 1295.92,-192.136"/>
</g>
<!-- Node52&#45;&gt;Node34 -->
<g id="edge226" class="edge"><title>Node52&#45;&gt;Node34</title>
<path fill="none" stroke="midnightblue" d="M1801.28,-247.548C1764.87,-236.489 1704.3,-218.093 1662.92,-205.524"/>
<polygon fill="midnightblue" stroke="midnightblue" points="1663.69,-202.099 1653.1,-202.542 1661.65,-208.797 1663.69,-202.099"/>
</g>
<!-- Node52&#45;&gt;Node35 -->
<g id="edge240" class="edge"><title>Node52&#45;&gt;Node35</title>
<path fill="none" stroke="midnightblue" d="M1815.54,-246.271C1787.35,-228.772 1728.43,-194.036 1674.4,-174 1647.4,-163.99 1575.68,-148.368 1524.94,-137.914"/>
<polygon fill="midnightblue" stroke="midnightblue" points="1525.59,-134.475 1515.09,-135.896 1524.18,-141.332 1525.59,-134.475"/>
</g>
<!-- Node52&#45;&gt;Node37 -->
<g id="edge244" class="edge"><title>Node52&#45;&gt;Node37</title>
<path fill="none" stroke="midnightblue" d="M1836.18,-246.161C1847.31,-212.108 1875.78,-106.655 1820.4,-58 1781.24,-23.5995 1623.21,-14.2906 1554.06,-11.843"/>
<polygon fill="midnightblue" stroke="midnightblue" points="1553.87,-8.33487 1543.76,-11.5063 1553.64,-15.3311 1553.87,-8.33487"/>
</g>
<!-- Node52&#45;&gt;Node38 -->
<g id="edge228" class="edge"><title>Node52&#45;&gt;Node38</title>
<path fill="none" stroke="midnightblue" d="M1827.73,-246.362C1818.21,-224.65 1796.41,-174.937 1784.16,-147"/>
<polygon fill="midnightblue" stroke="midnightblue" points="1787.35,-145.538 1780.12,-137.785 1780.93,-148.349 1787.35,-145.538"/>
</g>
<!-- Node53 -->
<g id="node168" class="node"><title>Node53</title>
<a xlink:href="shared__ptr__container_8h.html" target="_top" xlink:title="base/std_ext/shared\l_ptr_container.h">
<polygon fill="white" stroke="black" points="2869.9,-175 2869.9,-209 2974.9,-209 2974.9,-175 2869.9,-175"/>
<text text-anchor="start" x="2877.9" y="-196" font-family="Helvetica,sans-Serif" font-size="10.00">base/std_ext/shared</text>
<text text-anchor="middle" x="2922.4" y="-183" font-family="Helvetica,sans-Serif" font-size="10.00">_ptr_container.h</text>
</a>
</g>
<!-- Node52&#45;&gt;Node53 -->
<g id="edge230" class="edge"><title>Node52&#45;&gt;Node53</title>
<path fill="none" stroke="midnightblue" d="M1863.51,-256.081C2009.87,-251.671 2630.66,-231.994 2823.4,-210 2835.19,-208.654 2847.7,-206.754 2859.72,-204.688"/>
<polygon fill="midnightblue" stroke="midnightblue" points="2860.43,-208.116 2869.67,-202.923 2859.21,-201.224 2860.43,-208.116"/>
</g>
<!-- Node53&#45;&gt;Node11 -->
<g id="edge238" class="edge"><title>Node53&#45;&gt;Node11</title>
<path fill="none" stroke="midnightblue" d="M2919.25,-174.779C2914.98,-156.782 2905.42,-129.345 2885.4,-116 2869.08,-105.128 2270.2,-77.7904 2110.96,-70.7008"/>
<polygon fill="midnightblue" stroke="midnightblue" points="2110.83,-67.1919 2100.69,-70.2446 2110.52,-74.185 2110.83,-67.1919"/>
</g>
<!-- Node53&#45;&gt;Node16 -->
<g id="edge232" class="edge"><title>Node53&#45;&gt;Node16</title>
<path fill="none" stroke="midnightblue" d="M2927.27,-174.683C2930.96,-157.402 2933.19,-131.282 2918.4,-116 2916.11,-113.64 2516.01,-81.1615 2397.87,-71.6187"/>
<polygon fill="midnightblue" stroke="midnightblue" points="2397.9,-68.1098 2387.66,-70.7936 2397.34,-75.0871 2397.9,-68.1098"/>
</g>
<!-- Node53&#45;&gt;Node19 -->
<g id="edge234" class="edge"><title>Node53&#45;&gt;Node19</title>
<path fill="none" stroke="midnightblue" d="M2869.79,-181.701C2801.83,-168.395 2685.3,-145.581 2626.53,-134.075"/>
<polygon fill="midnightblue" stroke="midnightblue" points="2627.08,-130.616 2616.6,-132.13 2625.74,-137.486 2627.08,-130.616"/>
</g>
<!-- Node53&#45;&gt;Node54 -->
<g id="edge236" class="edge"><title>Node53&#45;&gt;Node54</title>
<path fill="none" stroke="midnightblue" d="M2962.59,-174.922C2986.92,-164.588 3017.62,-151.545 3040.85,-141.676"/>
<polygon fill="midnightblue" stroke="midnightblue" points="3042.47,-144.79 3050.31,-137.658 3039.73,-138.347 3042.47,-144.79"/>
</g>
<!-- Node55&#45;&gt;Node11 -->
<g id="edge266" class="edge"><title>Node55&#45;&gt;Node11</title>
<path fill="none" stroke="midnightblue" d="M1843.8,-304.456C1852.8,-295.55 1865.01,-282.034 1872.4,-268 1904.97,-206.076 1864.52,-166.065 1913.4,-116 1930.17,-98.8166 1992.63,-84.066 2034.09,-75.877"/>
<polygon fill="midnightblue" stroke="midnightblue" points="2034.98,-79.2695 2044.14,-73.9389 2033.65,-72.3962 2034.98,-79.2695"/>
</g>
<!-- Node55&#45;&gt;Node16 -->
<g id="edge258" class="edge"><title>Node55&#45;&gt;Node16</title>
<path fill="none" stroke="midnightblue" d="M1870.15,-313.178C1918.3,-309.606 2003.14,-299.062 2068.4,-268 2104.88,-250.636 2107.35,-235.857 2138.4,-210 2157.55,-194.049 2158.93,-184.791 2181.4,-174 2254.54,-138.868 2306.75,-198.883 2360.4,-138 2371.83,-125.02 2371.98,-104.803 2369.93,-89.6015"/>
<polygon fill="midnightblue" stroke="midnightblue" points="2373.35,-88.8379 2368.17,-79.5942 2366.45,-90.0489 2373.35,-88.8379"/>
</g>
<!-- Node55&#45;&gt;Node19 -->
<g id="edge264" class="edge"><title>Node55&#45;&gt;Node19</title>
<path fill="none" stroke="midnightblue" d="M1869.99,-310.162C1928.75,-302.415 2045.82,-286.231 2144.4,-268 2173.93,-262.538 2381.23,-222.796 2408.4,-210 2431.88,-198.939 2431.59,-186.41 2454.4,-174 2486.45,-156.558 2526.2,-143.719 2554.43,-135.909"/>
<polygon fill="midnightblue" stroke="midnightblue" points="2555.52,-139.238 2564.27,-133.26 2553.7,-132.479 2555.52,-139.238"/>
</g>
<!-- Node55&#45;&gt;Node27 -->
<g id="edge262" class="edge"><title>Node55&#45;&gt;Node27</title>
<path fill="none" stroke="midnightblue" d="M1794.58,-314.406C1598.15,-311.218 692.757,-295.27 413.396,-268 253.846,-252.426 161.238,-332.129 57.3955,-210 -31.0437,-105.986 260.685,-77.6458 365.97,-70.8967"/>
<polygon fill="midnightblue" stroke="midnightblue" points="366.367,-74.379 376.135,-70.2755 365.94,-67.3921 366.367,-74.379"/>
</g>
<!-- Node55&#45;&gt;Node32 -->
<g id="edge260" class="edge"><title>Node55&#45;&gt;Node32</title>
<path fill="none" stroke="midnightblue" d="M1794.78,-305.727C1738.81,-292.039 1630.23,-265.898 1537.4,-246 1450.71,-227.42 1348.19,-208.129 1295.52,-198.413"/>
<polygon fill="midnightblue" stroke="midnightblue" points="1296.14,-194.968 1285.67,-196.601 1294.87,-201.853 1296.14,-194.968"/>
</g>
<!-- Node55&#45;&gt;Node34 -->
<g id="edge256" class="edge"><title>Node55&#45;&gt;Node34</title>
<path fill="none" stroke="midnightblue" d="M1821.93,-304.481C1806.93,-289.848 1777.97,-263.214 1749.4,-246 1721.56,-229.227 1687.56,-215.383 1661.18,-205.914"/>
<polygon fill="midnightblue" stroke="midnightblue" points="1662.06,-202.515 1651.47,-202.501 1659.74,-209.119 1662.06,-202.515"/>
</g>
<!-- Node55&#45;&gt;Node52 -->
<g id="edge254" class="edge"><title>Node55&#45;&gt;Node52</title>
<path fill="none" stroke="midnightblue" d="M1832.4,-304.362C1832.4,-296.922 1832.4,-286.743 1832.4,-277.728"/>
<polygon fill="midnightblue" stroke="midnightblue" points="1835.9,-277.571 1832.4,-267.571 1828.9,-277.571 1835.9,-277.571"/>
</g>
<!-- Node56&#45;&gt;Node7 -->
<g id="edge272" class="edge"><title>Node56&#45;&gt;Node7</title>
<path fill="none" stroke="midnightblue" d="M2486.15,-371.957C2350.37,-367.452 1824.59,-348.861 1660.4,-326 1544.42,-309.852 1507.51,-321.581 1403.4,-268 1391.38,-261.816 1251.21,-133.88 1199.45,-86.4716"/>
<polygon fill="midnightblue" stroke="midnightblue" points="1201.67,-83.7608 1191.93,-79.5853 1196.94,-88.9217 1201.67,-83.7608"/>
</g>
<!-- Node56&#45;&gt;Node10 -->
<g id="edge274" class="edge"><title>Node56&#45;&gt;Node10</title>
<path fill="none" stroke="midnightblue" d="M2550.55,-370.482C2632.2,-363.881 2845.91,-345.25 2914.4,-326 3040.68,-290.503 3203.36,-300.15 3167.4,-174 3159.08,-144.823 3157.31,-131.782 3131.4,-116 3083.5,-86.8303 2691.18,-73.3861 2571.15,-69.9295"/>
<polygon fill="midnightblue" stroke="midnightblue" points="2571.14,-66.4278 2561.05,-69.6436 2570.95,-73.425 2571.14,-66.4278"/>
</g>
<!-- Node56&#45;&gt;Node16 -->
<g id="edge308" class="edge"><title>Node56&#45;&gt;Node16</title>
<path fill="none" stroke="midnightblue" d="M2550.46,-367.174C2649.53,-348.459 2947.37,-286.6 3002.4,-210 3011.73,-197.006 3006.78,-189.387 3002.4,-174 2994.08,-144.823 2992.32,-131.766 2966.4,-116 2878.22,-62.3716 2606.28,-88.1 2503.4,-80 2467.28,-77.1564 2425.85,-73.8476 2397.88,-71.6074"/>
<polygon fill="midnightblue" stroke="midnightblue" points="2398.11,-68.1146 2387.86,-70.8044 2397.55,-75.0922 2398.11,-68.1146"/>
</g>
<!-- Node56&#45;&gt;Node19 -->
<g id="edge314" class="edge"><title>Node56&#45;&gt;Node19</title>
<path fill="none" stroke="midnightblue" d="M2506.84,-362.296C2498.24,-353.501 2487.21,-340.212 2482.4,-326 2468.83,-285.966 2426.05,-270.934 2492.4,-174 2506.66,-153.164 2532.78,-141.269 2554.48,-134.661"/>
<polygon fill="midnightblue" stroke="midnightblue" points="2555.69,-137.956 2564.38,-131.904 2553.81,-131.212 2555.69,-137.956"/>
</g>
<!-- Node56&#45;&gt;Node20 -->
<g id="edge310" class="edge"><title>Node56&#45;&gt;Node20</title>
<path fill="none" stroke="midnightblue" d="M2531.67,-362.45C2542.8,-353.329 2558.84,-339.515 2571.4,-326 2600.32,-294.87 2651.76,-197.134 2687.4,-174 2743.01,-137.899 2771.33,-158.997 2837.85,-137.95"/>
<polygon fill="midnightblue" stroke="midnightblue" points="2839.14,-141.207 2847.5,-134.69 2836.9,-134.576 2839.14,-141.207"/>
</g>
<!-- Node56&#45;&gt;Node49 -->
<g id="edge306" class="edge"><title>Node56&#45;&gt;Node49</title>
<path fill="none" stroke="midnightblue" d="M2486.11,-372.661C2383.38,-371.212 2055,-363.729 1786.4,-326 1690.79,-312.571 1581.07,-286.058 1519.32,-270.092"/>
<polygon fill="midnightblue" stroke="midnightblue" points="1520.02,-266.658 1509.46,-267.528 1518.26,-273.433 1520.02,-266.658"/>
</g>
<!-- Node56&#45;&gt;Node55 -->
<g id="edge270" class="edge"><title>Node56&#45;&gt;Node55</title>
<path fill="none" stroke="midnightblue" d="M2486.23,-370.28C2375.84,-360.948 2012.03,-330.187 1880.43,-319.061"/>
<polygon fill="midnightblue" stroke="midnightblue" points="1880.52,-315.557 1870.26,-318.202 1879.93,-322.532 1880.52,-315.557"/>
</g>
<!-- Node57 -->
<g id="node195" class="node"><title>Node57</title>
<a xlink:href="_particle_type_8h.html" target="_top" xlink:title="base/ParticleType.h">
<polygon fill="white" stroke="black" points="3268.4,-181.5 3268.4,-202.5 3372.4,-202.5 3372.4,-181.5 3268.4,-181.5"/>
<text text-anchor="middle" x="3320.4" y="-189.5" font-family="Helvetica,sans-Serif" font-size="10.00">base/ParticleType.h</text>
</a>
</g>
<!-- Node56&#45;&gt;Node57 -->
<g id="edge276" class="edge"><title>Node56&#45;&gt;Node57</title>
<path fill="none" stroke="midnightblue" d="M2550.71,-372.168C2655.54,-369.181 2985.17,-357.457 3086.4,-326 3171.18,-299.65 3258.77,-238.797 3298.48,-209.025"/>
<polygon fill="midnightblue" stroke="midnightblue" points="3300.79,-211.664 3306.64,-202.832 3296.56,-206.087 3300.79,-211.664"/>
</g>
<!-- Node60 -->
<g id="node206" class="node"><title>Node60</title>
<a xlink:href="_tree_8h.html" target="_top" xlink:title="base/Tree.h">
<polygon fill="white" stroke="black" points="2534.4,-181.5 2534.4,-202.5 2602.4,-202.5 2602.4,-181.5 2534.4,-181.5"/>
<text text-anchor="middle" x="2568.4" y="-189.5" font-family="Helvetica,sans-Serif" font-size="10.00">base/Tree.h</text>
</a>
</g>
<!-- Node56&#45;&gt;Node60 -->
<g id="edge292" class="edge"><title>Node56&#45;&gt;Node60</title>
<path fill="none" stroke="midnightblue" d="M2529.55,-362.147C2537.92,-353.269 2548.85,-339.942 2554.4,-326 2569.46,-288.16 2570.51,-239.802 2569.64,-212.74"/>
<polygon fill="midnightblue" stroke="midnightblue" points="2573.13,-212.373 2569.18,-202.539 2566.13,-212.685 2573.13,-212.373"/>
</g>
<!-- Node62 -->
<g id="node218" class="node"><title>Node62</title>
<polygon fill="white" stroke="#bfbfbf" points="2491.4,-304.5 2491.4,-325.5 2545.4,-325.5 2545.4,-304.5 2491.4,-304.5"/>
<text text-anchor="middle" x="2518.4" y="-312.5" font-family="Helvetica,sans-Serif" font-size="10.00">iostream</text>
</g>
<!-- Node56&#45;&gt;Node62 -->
<g id="edge312" class="edge"><title>Node56&#45;&gt;Node62</title>
<path fill="none" stroke="midnightblue" d="M2518.4,-362.362C2518.4,-354.922 2518.4,-344.743 2518.4,-335.728"/>
<polygon fill="midnightblue" stroke="midnightblue" points="2521.9,-335.571 2518.4,-325.571 2514.9,-335.571 2521.9,-335.571"/>
</g>
<!-- Node57&#45;&gt;Node6 -->
<g id="edge280" class="edge"><title>Node57&#45;&gt;Node6</title>
<path fill="none" stroke="midnightblue" d="M3268.1,-184.733C3238.59,-180.913 3201,-176.513 3167.4,-174 2671.63,-136.923 2544.99,-177.223 2049.4,-138 2037.54,-137.062 2024.82,-135.672 2012.86,-134.193"/>
<polygon fill="midnightblue" stroke="midnightblue" points="2012.96,-130.677 2002.6,-132.88 2012.07,-137.621 2012.96,-130.677"/>
</g>
<!-- Node57&#45;&gt;Node9 -->
<g id="edge284" class="edge"><title>Node57&#45;&gt;Node9</title>
<path fill="none" stroke="midnightblue" d="M3339.82,-181.354C3354.55,-172.068 3373.7,-157.098 3382.4,-138 3399.03,-101.45 3375.63,-77.2576 3340.4,-58 3269.63,-19.3272 2692.81,-12.3801 2541.58,-11.2193"/>
<polygon fill="midnightblue" stroke="midnightblue" points="2541.47,-7.71852 2531.44,-11.1454 2541.42,-14.7183 2541.47,-7.71852"/>
</g>
<!-- Node57&#45;&gt;Node10 -->
<g id="edge278" class="edge"><title>Node57&#45;&gt;Node10</title>
<path fill="none" stroke="midnightblue" d="M3310.81,-181.259C3294.59,-163.917 3259.82,-130.258 3222.4,-116 3161.29,-92.7206 2702.33,-74.8629 2571.25,-70.1975"/>
<polygon fill="midnightblue" stroke="midnightblue" points="2571.11,-66.6904 2560.99,-69.8355 2570.86,-73.686 2571.11,-66.6904"/>
</g>
<!-- Node57&#45;&gt;Node16 -->
<g id="edge290" class="edge"><title>Node57&#45;&gt;Node16</title>
<path fill="none" stroke="midnightblue" d="M3300.4,-181.417C3266.66,-164.144 3195.77,-130.381 3131.4,-116 2858.55,-55.0454 2782.31,-99.1082 2503.4,-80 2467.25,-77.5237 2425.82,-74.1497 2397.87,-71.7937"/>
<polygon fill="midnightblue" stroke="midnightblue" points="2398.11,-68.302 2387.85,-70.9446 2397.52,-75.277 2398.11,-68.302"/>
</g>
<!-- Node57&#45;&gt;Node17 -->
<g id="edge282" class="edge"><title>Node57&#45;&gt;Node17</title>
<path fill="none" stroke="midnightblue" d="M3334.98,-181.379C3352.69,-167.086 3378.87,-140.606 3367.4,-116 3361.56,-103.474 3350.55,-93.0999 3339.83,-85.314"/>
<polygon fill="midnightblue" stroke="midnightblue" points="3341.65,-82.319 3331.4,-79.633 3337.74,-88.1239 3341.65,-82.319"/>
</g>
<!-- Node57&#45;&gt;Node58 -->
<g id="edge286" class="edge"><title>Node57&#45;&gt;Node58</title>
<path fill="none" stroke="midnightblue" d="M3350.86,-181.412C3386.68,-168.958 3445.63,-148.47 3480.05,-136.506"/>
<polygon fill="midnightblue" stroke="midnightblue" points="3481.59,-139.674 3489.89,-133.084 3479.3,-133.062 3481.59,-139.674"/>
</g>
<!-- Node59 -->
<g id="node203" class="node"><title>Node59</title>
<polygon fill="white" stroke="#bfbfbf" points="3311.9,-116.5 3311.9,-137.5 3358.9,-137.5 3358.9,-116.5 3311.9,-116.5"/>
<text text-anchor="middle" x="3335.4" y="-124.5" font-family="Helvetica,sans-Serif" font-size="10.00">iterator</text>
</g>
<!-- Node57&#45;&gt;Node59 -->
<g id="edge288" class="edge"><title>Node57&#45;&gt;Node59</title>
<path fill="none" stroke="midnightblue" d="M3322.87,-181.267C3324.99,-172.085 3328.1,-158.615 3330.69,-147.392"/>
<polygon fill="midnightblue" stroke="midnightblue" points="3334.13,-148.065 3332.96,-137.534 3327.31,-146.491 3334.13,-148.065"/>
</g>
<!-- Node60&#45;&gt;Node11 -->
<g id="edge302" class="edge"><title>Node60&#45;&gt;Node11</title>
<path fill="none" stroke="midnightblue" d="M2586.18,-181.41C2609.54,-166.236 2645.37,-137.742 2625.4,-116 2607.96,-97.0176 2233.2,-76.9262 2110.74,-70.8463"/>
<polygon fill="midnightblue" stroke="midnightblue" points="2110.85,-67.3476 2100.69,-70.3508 2110.5,-74.3391 2110.85,-67.3476"/>
</g>
<!-- Node60&#45;&gt;Node16 -->
<g id="edge300" class="edge"><title>Node60&#45;&gt;Node16</title>
<path fill="none" stroke="midnightblue" d="M2598.48,-181.469C2632.74,-167.875 2681.21,-142.77 2658.4,-116 2641.59,-96.2873 2470.37,-78.5409 2397.71,-71.8369"/>
<polygon fill="midnightblue" stroke="midnightblue" points="2398.01,-68.35 2387.74,-70.929 2397.38,-75.3212 2398.01,-68.35"/>
</g>
<!-- Node60&#45;&gt;Node19 -->
<g id="edge296" class="edge"><title>Node60&#45;&gt;Node19</title>
<path fill="none" stroke="midnightblue" d="M2572.03,-181.267C2575.17,-171.991 2579.79,-158.336 2583.61,-147.045"/>
<polygon fill="midnightblue" stroke="midnightblue" points="2586.94,-148.128 2586.83,-137.534 2580.31,-145.884 2586.94,-148.128"/>
</g>
<!-- Node60&#45;&gt;Node20 -->
<g id="edge298" class="edge"><title>Node60&#45;&gt;Node20</title>
<path fill="none" stroke="midnightblue" d="M2593.75,-181.42C2600.97,-178.701 2608.91,-175.986 2616.4,-174 2710.3,-149.078 2741.56,-166.74 2837.72,-137.894"/>
<polygon fill="midnightblue" stroke="midnightblue" points="2839.03,-141.153 2847.55,-134.855 2836.96,-134.466 2839.03,-141.153"/>
</g>
<!-- Node60&#45;&gt;Node43 -->
<g id="edge304" class="edge"><title>Node60&#45;&gt;Node43</title>
<path fill="none" stroke="midnightblue" d="M2534.27,-188.283C2495.38,-184.179 2429.88,-177.668 2373.4,-174 1949.1,-146.449 1840.64,-178.617 1417.4,-138 1405.51,-136.86 1392.59,-135.035 1381.07,-133.196"/>
<polygon fill="midnightblue" stroke="midnightblue" points="1381.39,-129.701 1370.95,-131.523 1380.25,-136.608 1381.39,-129.701"/>
</g>
<!-- Node61 -->
<g id="node208" class="node"><title>Node61</title>
<polygon fill="white" stroke="#bfbfbf" points="2710.4,-116.5 2710.4,-137.5 2830.4,-137.5 2830.4,-116.5 2710.4,-116.5"/>
<text text-anchor="middle" x="2770.4" y="-124.5" font-family="Helvetica,sans-Serif" font-size="10.00">base/cereal/access.hpp</text>
</g>
<!-- Node60&#45;&gt;Node61 -->
<g id="edge294" class="edge"><title>Node60&#45;&gt;Node61</title>
<path fill="none" stroke="midnightblue" d="M2595.7,-181.422C2602.44,-178.907 2609.65,-176.29 2616.4,-174 2652.07,-161.882 2692.86,-149.498 2723.49,-140.485"/>
<polygon fill="midnightblue" stroke="midnightblue" points="2724.86,-143.733 2733.47,-137.564 2722.89,-137.015 2724.86,-143.733"/>
</g>
<!-- Node63&#45;&gt;Node17 -->
<g id="edge318" class="edge"><title>Node63&#45;&gt;Node17</title>
<path fill="none" stroke="midnightblue" d="M3527.66,-181.355C3536.18,-165.332 3548.7,-134.887 3533.4,-116 3509.68,-86.7326 3397.5,-74.9635 3342.27,-70.8823"/>
<polygon fill="midnightblue" stroke="midnightblue" points="3342.24,-67.3721 3332.02,-70.1656 3341.75,-74.3551 3342.24,-67.3721"/>
</g>
<!-- Node63&#45;&gt;Node19 -->
<g id="edge320" class="edge"><title>Node63&#45;&gt;Node19</title>
<path fill="none" stroke="midnightblue" d="M3472.25,-184.766C3445.45,-181.052 3411.66,-176.743 3381.4,-174 3079.99,-146.684 3003.17,-160.929 2701.4,-138 2676.5,-136.109 2648.54,-133.333 2626.9,-131.043"/>
<polygon fill="midnightblue" stroke="midnightblue" points="2627.15,-127.549 2616.83,-129.964 2626.4,-134.51 2627.15,-127.549"/>
</g>
<!-- Node63&#45;&gt;Node27 -->
<g id="edge326" class="edge"><title>Node63&#45;&gt;Node27</title>
<path fill="none" stroke="midnightblue" d="M3472.28,-184.388C3445.49,-180.563 3411.7,-176.269 3381.4,-174 2641.96,-118.643 2453.17,-188.7 1713.4,-138 1628.59,-132.188 1608.14,-122.674 1523.4,-116 1097.57,-82.4654 578.729,-71.8955 438.674,-69.5536"/>
<polygon fill="midnightblue" stroke="midnightblue" points="438.564,-66.0514 428.508,-69.387 438.449,-73.0504 438.564,-66.0514"/>
</g>
<!-- Node63&#45;&gt;Node58 -->
<g id="edge322" class="edge"><title>Node63&#45;&gt;Node58</title>
<path fill="none" stroke="midnightblue" d="M3519.08,-181.267C3517.11,-172.085 3514.2,-158.615 3511.79,-147.392"/>
<polygon fill="midnightblue" stroke="midnightblue" points="3515.19,-146.573 3509.66,-137.534 3508.35,-148.046 3515.19,-146.573"/>
</g>
<!-- Node64 -->
<g id="node226" class="node"><title>Node64</title>
<polygon fill="white" stroke="#bfbfbf" points="3580.4,-116.5 3580.4,-137.5 3610.4,-137.5 3610.4,-116.5 3580.4,-116.5"/>
<text text-anchor="middle" x="3595.4" y="-124.5" font-family="Helvetica,sans-Serif" font-size="10.00">set</text>
</g>
<!-- Node63&#45;&gt;Node64 -->
<g id="edge324" class="edge"><title>Node63&#45;&gt;Node64</title>
<path fill="none" stroke="midnightblue" d="M3533.62,-181.267C3545.04,-171.233 3562.29,-156.078 3575.66,-144.331"/>
<polygon fill="midnightblue" stroke="midnightblue" points="3578.2,-146.763 3583.4,-137.534 3573.58,-141.504 3578.2,-146.763"/>
</g>
<!-- Node65&#45;&gt;Node16 -->
<g id="edge334" class="edge"><title>Node65&#45;&gt;Node16</title>
<path fill="none" stroke="midnightblue" d="M3119.42,-174.756C3124.21,-157.532 3127.97,-131.457 3113.4,-116 3066.82,-66.5965 2571.13,-84.6977 2503.4,-80 2467.25,-77.4933 2425.83,-74.1246 2397.87,-71.7783"/>
<polygon fill="midnightblue" stroke="midnightblue" points="2398.11,-68.2865 2387.85,-70.933 2397.52,-75.2617 2398.11,-68.2865"/>
</g>
<!-- Node65&#45;&gt;Node17 -->
<g id="edge330" class="edge"><title>Node65&#45;&gt;Node17</title>
<path fill="none" stroke="midnightblue" d="M3140.93,-174.897C3179.23,-151.104 3248.09,-108.326 3285.5,-85.0872"/>
<polygon fill="midnightblue" stroke="midnightblue" points="3287.65,-87.8733 3294.29,-79.6234 3283.95,-81.9272 3287.65,-87.8733"/>
</g>
<!-- Node65&#45;&gt;Node19 -->
<g id="edge336" class="edge"><title>Node65&#45;&gt;Node19</title>
<path fill="none" stroke="midnightblue" d="M3067.7,-185.462C3042.79,-181.951 3011.42,-177.615 2983.4,-174 2852.13,-157.065 2695.92,-139.007 2626.6,-131.103"/>
<polygon fill="midnightblue" stroke="midnightblue" points="2626.96,-127.621 2616.63,-129.967 2626.17,-134.576 2626.96,-127.621"/>
</g>
<!-- Node65&#45;&gt;Node20 -->
<g id="edge332" class="edge"><title>Node65&#45;&gt;Node20</title>
<path fill="none" stroke="midnightblue" d="M3067.65,-180.154C3014.45,-166.376 2928.6,-144.144 2886.81,-133.323"/>
<polygon fill="midnightblue" stroke="midnightblue" points="2887.51,-129.888 2876.95,-130.77 2885.76,-136.665 2887.51,-129.888"/>
</g>
<!-- Node65&#45;&gt;Node22 -->
<g id="edge340" class="edge"><title>Node65&#45;&gt;Node22</title>
<path fill="none" stroke="midnightblue" d="M3067.82,-184.3C3042.95,-180.45 3011.57,-176.159 2983.4,-174 1948.09,-94.6458 1684.73,-183.739 647.396,-138 608.99,-136.307 565.181,-132.958 534.679,-130.398"/>
<polygon fill="midnightblue" stroke="midnightblue" points="534.736,-126.89 524.476,-129.529 534.143,-133.865 534.736,-126.89"/>
</g>
<!-- Node65&#45;&gt;Node54 -->
<g id="edge338" class="edge"><title>Node65&#45;&gt;Node54</title>
<path fill="none" stroke="midnightblue" d="M3103.41,-174.922C3098.32,-166.212 3092.1,-155.578 3086.82,-146.542"/>
<polygon fill="midnightblue" stroke="midnightblue" points="3089.81,-144.719 3081.74,-137.852 3083.77,-148.252 3089.81,-144.719"/>
</g>
</g>
</svg>
