<?xml version="1.0" encoding="UTF-8" standalone="no"?>
<!DOCTYPE svg PUBLIC "-//W3C//DTD SVG 1.1//EN"
 "http://www.w3.org/Graphics/SVG/1.1/DTD/svg11.dtd">
<!-- Generated by graphviz version 2.26.3 (20100126.1600)
 -->
<!-- Title: src/reconstruct/Reconstruct_traits.h Pages: 1 -->
<svg width="1036pt" height="304pt"
 viewBox="0.00 0.00 1036.00 304.00" xmlns="http://www.w3.org/2000/svg" xmlns:xlink="http://www.w3.org/1999/xlink">
<g id="graph1" class="graph" transform="scale(1 1) rotate(0) translate(4 300)">
<title>src/reconstruct/Reconstruct_traits.h</title>
<polygon fill="white" stroke="white" points="-4,5 -4,-300 1033,-300 1033,5 -4,5"/>
<!-- Node1 -->
<g id="node1" class="node"><title>Node1</title>
<polygon fill="#bfbfbf" stroke="black" points="650,-261 650,-295 788,-295 788,-261 650,-261"/>
<text text-anchor="start" x="658" y="-282" font-family="Helvetica,sans-Serif" font-size="10.00">src/reconstruct/Reconstruct</text>
<text text-anchor="middle" x="719" y="-269" font-family="Helvetica,sans-Serif" font-size="10.00">_traits.h</text>
</g>
<!-- Node2 -->
<g id="node3" class="node"><title>Node2</title>
<a xlink:href="_detector__t_8h.html" target="_top" xlink:title="base/Detector_t.h">
<polygon fill="white" stroke="black" points="222.5,-195.5 222.5,-216.5 317.5,-216.5 317.5,-195.5 222.5,-195.5"/>
<text text-anchor="middle" x="270" y="-203.5" font-family="Helvetica,sans-Serif" font-size="10.00">base/Detector_t.h</text>
</a>
</g>
<!-- Node1&#45;&gt;Node2 -->
<g id="edge2" class="edge"><title>Node1&#45;&gt;Node2</title>
<path fill="none" stroke="midnightblue" d="M649.828,-266.908C561.392,-252.727 409.883,-228.431 327.477,-215.217"/>
<polygon fill="midnightblue" stroke="midnightblue" points="327.964,-211.75 317.535,-213.623 326.855,-218.662 327.964,-211.75"/>
</g>
<!-- Node16 -->
<g id="node37" class="node"><title>Node16</title>
<a xlink:href="mapped__vectors_8h.html" target="_top" xlink:title="base/std_ext/mapped\l_vectors.h">
<polygon fill="white" stroke="black" points="664,-189 664,-223 774,-223 774,-189 664,-189"/>
<text text-anchor="start" x="672" y="-210" font-family="Helvetica,sans-Serif" font-size="10.00">base/std_ext/mapped</text>
<text text-anchor="middle" x="719" y="-197" font-family="Helvetica,sans-Serif" font-size="10.00">_vectors.h</text>
</a>
</g>
<!-- Node1&#45;&gt;Node16 -->
<g id="edge42" class="edge"><title>Node1&#45;&gt;Node16</title>
<path fill="none" stroke="midnightblue" d="M719,-260.937C719,-252.807 719,-242.876 719,-233.705"/>
<polygon fill="midnightblue" stroke="midnightblue" points="722.5,-233.441 719,-223.441 715.5,-233.441 722.5,-233.441"/>
</g>
<!-- Node18 -->
<g id="node41" class="node"><title>Node18</title>
<polygon fill="white" stroke="#bfbfbf" points="755,-58.5 755,-79.5 807,-79.5 807,-58.5 755,-58.5"/>
<text text-anchor="middle" x="781" y="-66.5" font-family="Helvetica,sans-Serif" font-size="10.00">memory</text>
</g>
<!-- Node1&#45;&gt;Node18 -->
<g id="edge66" class="edge"><title>Node1&#45;&gt;Node18</title>
<path fill="none" stroke="midnightblue" d="M749.111,-260.936C762.087,-251.815 775.894,-239.294 783,-224 803.503,-179.875 794.048,-120.766 786.724,-89.8455"/>
<polygon fill="midnightblue" stroke="midnightblue" points="790.03,-88.6435 784.182,-79.8093 783.245,-90.3626 790.03,-88.6435"/>
</g>
<!-- Node19 -->
<g id="node43" class="node"><title>Node19</title>
<polygon fill="white" stroke="#bfbfbf" points="907.5,-58.5 907.5,-79.5 936.5,-79.5 936.5,-58.5 907.5,-58.5"/>
<text text-anchor="middle" x="922" y="-66.5" font-family="Helvetica,sans-Serif" font-size="10.00">list</text>
</g>
<!-- Node1&#45;&gt;Node19 -->
<g id="edge70" class="edge"><title>Node1&#45;&gt;Node19</title>
<path fill="none" stroke="midnightblue" d="M786.711,-260.96C840.66,-243.424 912.647,-210.235 947,-152 958.916,-131.801 947.061,-105.437 935.959,-87.8991"/>
<polygon fill="midnightblue" stroke="midnightblue" points="938.855,-85.9332 930.353,-79.6117 933.057,-89.8556 938.855,-85.9332"/>
</g>
<!-- Node20 -->
<g id="node48" class="node"><title>Node20</title>
<a xlink:href="shared__ptr__container_8h.html" target="_top" xlink:title="base/std_ext/shared\l_ptr_container.h">
<polygon fill="white" stroke="black" points="507.5,-117 507.5,-151 612.5,-151 612.5,-117 507.5,-117"/>
<text text-anchor="start" x="515.5" y="-138" font-family="Helvetica,sans-Serif" font-size="10.00">base/std_ext/shared</text>
<text text-anchor="middle" x="560" y="-125" font-family="Helvetica,sans-Serif" font-size="10.00">_ptr_container.h</text>
</a>
</g>
<!-- Node1&#45;&gt;Node20 -->
<g id="edge56" class="edge"><title>Node1&#45;&gt;Node20</title>
<path fill="none" stroke="midnightblue" d="M679.022,-260.944C660.382,-251.751 638.687,-239.168 622,-224 601.85,-205.684 584.807,-179.619 573.721,-160.249"/>
<polygon fill="midnightblue" stroke="midnightblue" points="576.687,-158.382 568.769,-151.342 570.569,-161.783 576.687,-158.382"/>
</g>
<!-- Node21 -->
<g id="node52" class="node"><title>Node21</title>
<polygon fill="white" stroke="#bfbfbf" points="610.5,-58.5 610.5,-79.5 669.5,-79.5 669.5,-58.5 610.5,-58.5"/>
<text text-anchor="middle" x="640" y="-66.5" font-family="Helvetica,sans-Serif" font-size="10.00">functional</text>
</g>
<!-- Node1&#45;&gt;Node21 -->
<g id="edge72" class="edge"><title>Node1&#45;&gt;Node21</title>
<path fill="none" stroke="midnightblue" d="M689.875,-260.849C676.95,-251.636 662.903,-239.062 655,-224 632.178,-180.504 634.195,-120.674 637.289,-89.6046"/>
<polygon fill="midnightblue" stroke="midnightblue" points="640.781,-89.8742 638.433,-79.5426 633.825,-89.0829 640.781,-89.8742"/>
</g>
<!-- Node22 -->
<g id="node56" class="node"><title>Node22</title>
<polygon fill="white" stroke="#bfbfbf" points="993.5,-195.5 993.5,-216.5 1028.5,-216.5 1028.5,-195.5 993.5,-195.5"/>
<text text-anchor="middle" x="1011" y="-203.5" font-family="Helvetica,sans-Serif" font-size="10.00">map</text>
</g>
<!-- Node1&#45;&gt;Node22 -->
<g id="edge68" class="edge"><title>Node1&#45;&gt;Node22</title>
<path fill="none" stroke="midnightblue" d="M788.029,-269.897C841.657,-262.144 917.218,-247.993 980,-224 982.078,-223.206 984.181,-222.282 986.26,-221.281"/>
<polygon fill="midnightblue" stroke="midnightblue" points="987.919,-224.363 995.08,-216.555 984.613,-218.193 987.919,-224.363"/>
</g>
<!-- Node3 -->
<g id="node5" class="node"><title>Node3</title>
<a xlink:href="printable_8h.html" target="_top" xlink:title="base/printable.h">
<polygon fill="white" stroke="black" points="102,-58.5 102,-79.5 188,-79.5 188,-58.5 102,-58.5"/>
<text text-anchor="middle" x="145" y="-66.5" font-family="Helvetica,sans-Serif" font-size="10.00">base/printable.h</text>
</a>
</g>
<!-- Node2&#45;&gt;Node3 -->
<g id="edge4" class="edge"><title>Node2&#45;&gt;Node3</title>
<path fill="none" stroke="midnightblue" d="M233.186,-195.458C210.627,-187.164 182.926,-173.371 166,-152 151.862,-134.149 147.125,-107.938 145.6,-89.7663"/>
<polygon fill="midnightblue" stroke="midnightblue" points="149.086,-89.4171 145.01,-79.6374 142.097,-89.8239 149.086,-89.4171"/>
</g>
<!-- Node4 -->
<g id="node7" class="node"><title>Node4</title>
<polygon fill="white" stroke="#bfbfbf" points="244,-0.5 244,-21.5 306,-21.5 306,-0.5 244,-0.5"/>
<text text-anchor="middle" x="275" y="-8.5" font-family="Helvetica,sans-Serif" font-size="10.00">type_traits</text>
</g>
<!-- Node2&#45;&gt;Node4 -->
<g id="edge38" class="edge"><title>Node2&#45;&gt;Node4</title>
<path fill="none" stroke="midnightblue" d="M277.693,-195.487C284.813,-185.054 294.899,-168.305 299,-152 302.903,-136.483 300.794,-131.899 299,-116 295.626,-86.0941 287.008,-52.2897 281.074,-31.3092"/>
<polygon fill="midnightblue" stroke="midnightblue" points="284.404,-30.2249 278.257,-21.5952 277.68,-32.1744 284.404,-30.2249"/>
</g>
<!-- Node6 -->
<g id="node11" class="node"><title>Node6</title>
<a xlink:href="vec3_8h.html" target="_top" xlink:title="base/vec/vec3.h">
<polygon fill="white" stroke="black" points="3.5,-123.5 3.5,-144.5 92.5,-144.5 92.5,-123.5 3.5,-123.5"/>
<text text-anchor="middle" x="48" y="-131.5" font-family="Helvetica,sans-Serif" font-size="10.00">base/vec/vec3.h</text>
</a>
</g>
<!-- Node2&#45;&gt;Node6 -->
<g id="edge10" class="edge"><title>Node2&#45;&gt;Node6</title>
<path fill="none" stroke="midnightblue" d="M237.243,-195.376C198.192,-182.711 132.852,-161.519 90.0886,-147.65"/>
<polygon fill="midnightblue" stroke="midnightblue" points="91.1216,-144.306 80.5296,-144.55 88.9621,-150.965 91.1216,-144.306"/>
</g>
<!-- Node9 -->
<g id="node19" class="node"><title>Node9</title>
<a xlink:href="math_8h.html" target="_top" xlink:title="base/std_ext/math.h">
<polygon fill="white" stroke="black" points="346,-123.5 346,-144.5 452,-144.5 452,-123.5 346,-123.5"/>
<text text-anchor="middle" x="399" y="-131.5" font-family="Helvetica,sans-Serif" font-size="10.00">base/std_ext/math.h</text>
</a>
</g>
<!-- Node2&#45;&gt;Node9 -->
<g id="edge20" class="edge"><title>Node2&#45;&gt;Node9</title>
<path fill="none" stroke="midnightblue" d="M289.034,-195.376C310.661,-183.305 346.163,-163.49 370.959,-149.651"/>
<polygon fill="midnightblue" stroke="midnightblue" points="372.861,-152.597 379.888,-144.667 369.45,-146.485 372.861,-152.597"/>
</g>
<!-- Node11 -->
<g id="node24" class="node"><title>Node11</title>
<polygon fill="white" stroke="#bfbfbf" points="549,-58.5 549,-79.5 593,-79.5 593,-58.5 549,-58.5"/>
<text text-anchor="middle" x="571" y="-66.5" font-family="Helvetica,sans-Serif" font-size="10.00">vector</text>
</g>
<!-- Node2&#45;&gt;Node11 -->
<g id="edge40" class="edge"><title>Node2&#45;&gt;Node11</title>
<path fill="none" stroke="midnightblue" d="M317.608,-199.105C357.828,-191.789 415.915,-177.632 461,-152 481.224,-140.502 480.741,-130.417 499,-116 513.32,-104.693 530.379,-93.4695 544.297,-84.8267"/>
<polygon fill="midnightblue" stroke="midnightblue" points="546.225,-87.7497 552.929,-79.545 542.572,-81.7787 546.225,-87.7497"/>
</g>
<!-- Node13 -->
<g id="node28" class="node"><title>Node13</title>
<polygon fill="white" stroke="#bfbfbf" points="302.5,-58.5 302.5,-79.5 361.5,-79.5 361.5,-58.5 302.5,-58.5"/>
<text text-anchor="middle" x="332" y="-66.5" font-family="Helvetica,sans-Serif" font-size="10.00">stdexcept</text>
</g>
<!-- Node2&#45;&gt;Node13 -->
<g id="edge34" class="edge"><title>Node2&#45;&gt;Node13</title>
<path fill="none" stroke="midnightblue" d="M234.803,-195.485C214.007,-187.255 189.389,-173.52 177,-152 169.017,-138.134 167.468,-128.851 177,-116 190.822,-97.3656 251.227,-83.2259 292.418,-75.529"/>
<polygon fill="midnightblue" stroke="midnightblue" points="293.222,-78.9405 302.437,-73.7122 291.972,-72.0529 293.222,-78.9405"/>
</g>
<!-- Node14 -->
<g id="node30" class="node"><title>Node14</title>
<polygon fill="white" stroke="#bfbfbf" points="186,-123.5 186,-144.5 232,-144.5 232,-123.5 186,-123.5"/>
<text text-anchor="middle" x="209" y="-131.5" font-family="Helvetica,sans-Serif" font-size="10.00">cstdint</text>
</g>
<!-- Node2&#45;&gt;Node14 -->
<g id="edge32" class="edge"><title>Node2&#45;&gt;Node14</title>
<path fill="none" stroke="midnightblue" d="M260.999,-195.376C251.448,-184.103 236.175,-166.075 224.647,-152.468"/>
<polygon fill="midnightblue" stroke="midnightblue" points="227.172,-150.035 218.038,-144.667 221.831,-154.56 227.172,-150.035"/>
</g>
<!-- Node15 -->
<g id="node33" class="node"><title>Node15</title>
<polygon fill="white" stroke="#bfbfbf" points="249.5,-123.5 249.5,-144.5 290.5,-144.5 290.5,-123.5 249.5,-123.5"/>
<text text-anchor="middle" x="270" y="-131.5" font-family="Helvetica,sans-Serif" font-size="10.00">string</text>
</g>
<!-- Node2&#45;&gt;Node15 -->
<g id="edge36" class="edge"><title>Node2&#45;&gt;Node15</title>
<path fill="none" stroke="midnightblue" d="M270,-195.376C270,-184.741 270,-168.095 270,-154.82"/>
<polygon fill="midnightblue" stroke="midnightblue" points="273.5,-154.667 270,-144.667 266.5,-154.667 273.5,-154.667"/>
</g>
<!-- Node3&#45;&gt;Node4 -->
<g id="edge6" class="edge"><title>Node3&#45;&gt;Node4</title>
<path fill="none" stroke="midnightblue" d="M168.542,-58.4966C189.029,-49.3562 218.947,-36.0082 241.854,-25.7883"/>
<polygon fill="midnightblue" stroke="midnightblue" points="243.488,-28.892 251.194,-21.6212 240.635,-22.4994 243.488,-28.892"/>
</g>
<!-- Node5 -->
<g id="node9" class="node"><title>Node5</title>
<polygon fill="white" stroke="#bfbfbf" points="119,-0.5 119,-21.5 171,-21.5 171,-0.5 119,-0.5"/>
<text text-anchor="middle" x="145" y="-8.5" font-family="Helvetica,sans-Serif" font-size="10.00">ostream</text>
</g>
<!-- Node3&#45;&gt;Node5 -->
<g id="edge8" class="edge"><title>Node3&#45;&gt;Node5</title>
<path fill="none" stroke="midnightblue" d="M145,-58.3619C145,-50.9219 145,-40.7427 145,-31.7276"/>
<polygon fill="midnightblue" stroke="midnightblue" points="148.5,-31.5706 145,-21.5707 141.5,-31.5707 148.5,-31.5706"/>
</g>
<!-- Node6&#45;&gt;Node3 -->
<g id="edge12" class="edge"><title>Node6&#45;&gt;Node3</title>
<path fill="none" stroke="midnightblue" d="M64.0176,-123.267C79.414,-112.949 102.893,-97.216 120.613,-85.3421"/>
<polygon fill="midnightblue" stroke="midnightblue" points="122.922,-88.0081 129.28,-79.5337 119.025,-82.1929 122.922,-88.0081"/>
</g>
<!-- Node7 -->
<g id="node14" class="node"><title>Node7</title>
<a xlink:href="vec2_8h.html" target="_top" xlink:title="vec2.h">
<polygon fill="white" stroke="black" points="0,-58.5 0,-79.5 46,-79.5 46,-58.5 0,-58.5"/>
<text text-anchor="middle" x="23" y="-66.5" font-family="Helvetica,sans-Serif" font-size="10.00">vec2.h</text>
</a>
</g>
<!-- Node6&#45;&gt;Node7 -->
<g id="edge14" class="edge"><title>Node6&#45;&gt;Node7</title>
<path fill="none" stroke="midnightblue" d="M43.8718,-123.267C40.3041,-113.991 35.0525,-100.336 30.7097,-89.0453"/>
<polygon fill="midnightblue" stroke="midnightblue" points="33.908,-87.6107 27.0514,-79.5337 27.3746,-90.1236 33.908,-87.6107"/>
</g>
<!-- Node8 -->
<g id="node16" class="node"><title>Node8</title>
<polygon fill="white" stroke="#bfbfbf" points="52,-0.5 52,-21.5 96,-21.5 96,-0.5 52,-0.5"/>
<text text-anchor="middle" x="74" y="-8.5" font-family="Helvetica,sans-Serif" font-size="10.00">cmath</text>
</g>
<!-- Node6&#45;&gt;Node8 -->
<g id="edge18" class="edge"><title>Node6&#45;&gt;Node8</title>
<path fill="none" stroke="midnightblue" d="M50.3073,-123.085C54.6354,-102.609 64.0369,-58.133 69.6079,-31.778"/>
<polygon fill="midnightblue" stroke="midnightblue" points="73.0911,-32.223 71.735,-21.7153 66.2424,-30.7753 73.0911,-32.223"/>
</g>
<!-- Node7&#45;&gt;Node8 -->
<g id="edge16" class="edge"><title>Node7&#45;&gt;Node8</title>
<path fill="none" stroke="midnightblue" d="M32.3542,-58.3619C39.5433,-50.1861 49.6409,-38.7025 58.0927,-29.0907"/>
<polygon fill="midnightblue" stroke="midnightblue" points="60.7301,-31.3916 64.7051,-21.5707 55.4733,-26.7692 60.7301,-31.3916"/>
</g>
<!-- Node9&#45;&gt;Node8 -->
<g id="edge22" class="edge"><title>Node9&#45;&gt;Node8</title>
<path fill="none" stroke="midnightblue" d="M398.264,-123.458C396.486,-106.711 390.447,-74.2636 370,-58 324.35,-21.6904 166.96,-34.5621 110,-22 108.744,-21.7229 107.467,-21.4234 106.182,-21.1065"/>
<polygon fill="midnightblue" stroke="midnightblue" points="106.89,-17.672 96.3222,-18.4221 105.052,-24.4262 106.89,-17.672"/>
</g>
<!-- Node10 -->
<g id="node22" class="node"><title>Node10</title>
<polygon fill="white" stroke="#bfbfbf" points="417,-58.5 417,-79.5 457,-79.5 457,-58.5 417,-58.5"/>
<text text-anchor="middle" x="437" y="-66.5" font-family="Helvetica,sans-Serif" font-size="10.00">limits</text>
</g>
<!-- Node9&#45;&gt;Node10 -->
<g id="edge24" class="edge"><title>Node9&#45;&gt;Node10</title>
<path fill="none" stroke="midnightblue" d="M405.275,-123.267C410.808,-113.801 419.007,-99.7773 425.684,-88.3571"/>
<polygon fill="midnightblue" stroke="midnightblue" points="428.816,-89.9331 430.842,-79.5337 422.773,-86.4002 428.816,-89.9331"/>
</g>
<!-- Node9&#45;&gt;Node11 -->
<g id="edge26" class="edge"><title>Node9&#45;&gt;Node11</title>
<path fill="none" stroke="midnightblue" d="M427.018,-123.412C457.815,-111.773 507.182,-93.1172 539.353,-80.9594"/>
<polygon fill="midnightblue" stroke="midnightblue" points="540.629,-84.2191 548.746,-77.4099 538.154,-77.671 540.629,-84.2191"/>
</g>
<!-- Node12 -->
<g id="node26" class="node"><title>Node12</title>
<polygon fill="white" stroke="#bfbfbf" points="475,-58.5 475,-79.5 531,-79.5 531,-58.5 475,-58.5"/>
<text text-anchor="middle" x="503" y="-66.5" font-family="Helvetica,sans-Serif" font-size="10.00">algorithm</text>
</g>
<!-- Node9&#45;&gt;Node12 -->
<g id="edge28" class="edge"><title>Node9&#45;&gt;Node12</title>
<path fill="none" stroke="midnightblue" d="M416.173,-123.267C432.908,-112.807 458.549,-96.782 477.633,-84.8541"/>
<polygon fill="midnightblue" stroke="midnightblue" points="479.521,-87.8017 486.146,-79.5337 475.811,-81.8657 479.521,-87.8017"/>
</g>
<!-- Node9&#45;&gt;Node13 -->
<g id="edge30" class="edge"><title>Node9&#45;&gt;Node13</title>
<path fill="none" stroke="midnightblue" d="M387.936,-123.267C377.692,-113.328 362.267,-98.3635 350.208,-86.6645"/>
<polygon fill="midnightblue" stroke="midnightblue" points="352.472,-83.9848 342.858,-79.5337 347.598,-89.009 352.472,-83.9848"/>
</g>
<!-- Node16&#45;&gt;Node4 -->
<g id="edge54" class="edge"><title>Node16&#45;&gt;Node4</title>
<path fill="none" stroke="midnightblue" d="M719.893,-188.629C720.463,-157.209 716.675,-91.1297 678,-58 650.87,-34.7599 413.684,-18.8391 316.38,-13.2307"/>
<polygon fill="midnightblue" stroke="midnightblue" points="316.501,-9.73197 306.318,-12.6589 316.103,-16.7207 316.501,-9.73197"/>
</g>
<!-- Node16&#45;&gt;Node11 -->
<g id="edge50" class="edge"><title>Node16&#45;&gt;Node11</title>
<path fill="none" stroke="midnightblue" d="M700.555,-188.926C672.344,-162.812 618.749,-113.2 590.132,-86.7103"/>
<polygon fill="midnightblue" stroke="midnightblue" points="592.153,-83.8111 582.436,-79.5864 587.397,-88.9481 592.153,-83.8111"/>
</g>
<!-- Node17 -->
<g id="node39" class="node"><title>Node17</title>
<a xlink:href="memory_8h.html" target="_top" xlink:title="base/std_ext/memory.h">
<polygon fill="white" stroke="black" points="819.5,-123.5 819.5,-144.5 938.5,-144.5 938.5,-123.5 819.5,-123.5"/>
<text text-anchor="middle" x="879" y="-131.5" font-family="Helvetica,sans-Serif" font-size="10.00">base/std_ext/memory.h</text>
</a>
</g>
<!-- Node16&#45;&gt;Node17 -->
<g id="edge44" class="edge"><title>Node16&#45;&gt;Node17</title>
<path fill="none" stroke="midnightblue" d="M756.918,-188.937C783.959,-176.769 819.967,-160.565 845.86,-148.913"/>
<polygon fill="midnightblue" stroke="midnightblue" points="847.566,-151.983 855.249,-144.688 844.693,-145.6 847.566,-151.983"/>
</g>
<!-- Node16&#45;&gt;Node18 -->
<g id="edge52" class="edge"><title>Node16&#45;&gt;Node18</title>
<path fill="none" stroke="midnightblue" d="M726.727,-188.926C738.241,-163.484 759.848,-115.74 772.039,-88.8019"/>
<polygon fill="midnightblue" stroke="midnightblue" points="775.275,-90.14 776.209,-79.5864 768.897,-87.2539 775.275,-90.14"/>
</g>
<!-- Node17&#45;&gt;Node18 -->
<g id="edge46" class="edge"><title>Node17&#45;&gt;Node18</title>
<path fill="none" stroke="midnightblue" d="M862.817,-123.267C847.262,-112.949 823.541,-97.216 805.639,-85.3421"/>
<polygon fill="midnightblue" stroke="midnightblue" points="807.15,-82.1444 796.882,-79.5337 803.281,-87.9779 807.15,-82.1444"/>
</g>
<!-- Node17&#45;&gt;Node19 -->
<g id="edge48" class="edge"><title>Node17&#45;&gt;Node19</title>
<path fill="none" stroke="midnightblue" d="M886.101,-123.267C892.425,-113.707 901.825,-99.4964 909.421,-88.0152"/>
<polygon fill="midnightblue" stroke="midnightblue" points="912.433,-89.805 915.032,-79.5337 906.595,-85.9428 912.433,-89.805"/>
</g>
<!-- Node20&#45;&gt;Node11 -->
<g id="edge58" class="edge"><title>Node20&#45;&gt;Node11</title>
<path fill="none" stroke="midnightblue" d="M562.89,-116.922C564.287,-108.67 565.975,-98.6922 567.449,-89.9818"/>
<polygon fill="midnightblue" stroke="midnightblue" points="570.946,-90.2959 569.163,-79.8521 564.044,-89.1279 570.946,-90.2959"/>
</g>
<!-- Node20&#45;&gt;Node12 -->
<g id="edge64" class="edge"><title>Node20&#45;&gt;Node12</title>
<path fill="none" stroke="midnightblue" d="M545.024,-116.922C537.064,-107.845 527.273,-96.6793 519.144,-87.4097"/>
<polygon fill="midnightblue" stroke="midnightblue" points="521.741,-85.0631 512.516,-79.8521 516.478,-89.6784 521.741,-85.0631"/>
</g>
<!-- Node20&#45;&gt;Node18 -->
<g id="edge60" class="edge"><title>Node20&#45;&gt;Node18</title>
<path fill="none" stroke="midnightblue" d="M612.654,-118.513C653.44,-106.518 708.869,-90.2149 744.789,-79.6501"/>
<polygon fill="midnightblue" stroke="midnightblue" points="746.218,-82.8784 754.824,-76.6989 744.242,-76.1629 746.218,-82.8784"/>
</g>
<!-- Node20&#45;&gt;Node21 -->
<g id="edge62" class="edge"><title>Node20&#45;&gt;Node21</title>
<path fill="none" stroke="midnightblue" d="M581.019,-116.922C592.642,-107.479 607.048,-95.7736 618.713,-86.2957"/>
<polygon fill="midnightblue" stroke="midnightblue" points="621.09,-88.8745 626.644,-79.8521 616.675,-83.4416 621.09,-88.8745"/>
</g>
</g>
</svg>
