<?xml version="1.0" encoding="UTF-8" standalone="no"?>
<!DOCTYPE svg PUBLIC "-//W3C//DTD SVG 1.1//EN"
 "http://www.w3.org/Graphics/SVG/1.1/DTD/svg11.dtd">
<!-- Generated by graphviz version 2.26.3 (20100126.1600)
 -->
<!-- Title: src/expconfig/setups/SetupRegistry.h Pages: 1 -->
<svg width="1835pt" height="260pt"
 viewBox="0.00 0.00 1835.00 260.00" xmlns="http://www.w3.org/2000/svg" xmlns:xlink="http://www.w3.org/1999/xlink">
<g id="graph1" class="graph" transform="scale(1 1) rotate(0) translate(4 256)">
<title>src/expconfig/setups/SetupRegistry.h</title>
<polygon fill="white" stroke="white" points="-4,5 -4,-256 1832,-256 1832,5 -4,5"/>
<!-- Node1 -->
<g id="node1" class="node"><title>Node1</title>
<polygon fill="#bfbfbf" stroke="black" points="1242.5,-217 1242.5,-251 1349.5,-251 1349.5,-217 1242.5,-217"/>
<text text-anchor="start" x="1250.5" y="-238" font-family="Helvetica,sans-Serif" font-size="10.00">src/expconfig/setups</text>
<text text-anchor="middle" x="1296" y="-225" font-family="Helvetica,sans-Serif" font-size="10.00">/SetupRegistry.h</text>
</g>
<!-- Node2 -->
<g id="node3" class="node"><title>Node2</title>
<a xlink:href="_ant-rawdump_8cc.html" target="_top" xlink:title="progs/Ant&#45;rawdump.cc">
<polygon fill="white" stroke="black" points="-0.5,-79.5 -0.5,-100.5 114.5,-100.5 114.5,-79.5 -0.5,-79.5"/>
<text text-anchor="middle" x="57" y="-87.5" font-family="Helvetica,sans-Serif" font-size="10.00">progs/Ant&#45;rawdump.cc</text>
</a>
</g>
<!-- Node1&#45;&gt;Node2 -->
<g id="edge2" class="edge"><title>Node1&#45;&gt;Node2</title>
<path fill="none" stroke="midnightblue" d="M1232.17,-230.724C1054.86,-220.856 541.833,-187.087 123,-108 112.73,-106.061 101.722,-103.328 91.6963,-100.576"/>
<polygon fill="midnightblue" stroke="midnightblue" points="1232.18,-234.23 1242.36,-231.285 1232.57,-227.241 1232.18,-234.23"/>
</g>
<!-- Node3 -->
<g id="node5" class="node"><title>Node3</title>
<a xlink:href="_ant_8cc.html" target="_top" xlink:title="Main Ant executable. ">
<polygon fill="white" stroke="black" points="1362,-151.5 1362,-172.5 1434,-172.5 1434,-151.5 1362,-151.5"/>
<text text-anchor="middle" x="1398" y="-159.5" font-family="Helvetica,sans-Serif" font-size="10.00">progs/Ant.cc</text>
</a>
</g>
<!-- Node1&#45;&gt;Node3 -->
<g id="edge4" class="edge"><title>Node1&#45;&gt;Node3</title>
<path fill="none" stroke="midnightblue" d="M1328.76,-210.877C1346.92,-198.053 1368.65,-182.718 1382.86,-172.688"/>
<polygon fill="midnightblue" stroke="midnightblue" points="1326.32,-208.311 1320.17,-216.937 1330.36,-214.03 1326.32,-208.311"/>
</g>
<!-- Node4 -->
<g id="node7" class="node"><title>Node4</title>
<a xlink:href="_setup_8h.html" target="_top" xlink:title="src/expconfig/setups\l/Setup.h">
<polygon fill="white" stroke="black" points="936.5,-145 936.5,-179 1043.5,-179 1043.5,-145 936.5,-145"/>
<text text-anchor="start" x="944.5" y="-166" font-family="Helvetica,sans-Serif" font-size="10.00">src/expconfig/setups</text>
<text text-anchor="middle" x="990" y="-153" font-family="Helvetica,sans-Serif" font-size="10.00">/Setup.h</text>
</a>
</g>
<!-- Node1&#45;&gt;Node4 -->
<g id="edge6" class="edge"><title>Node1&#45;&gt;Node4</title>
<path fill="none" stroke="midnightblue" d="M1232.57,-219.074C1176.71,-205.932 1096.28,-187.007 1043.59,-174.609"/>
<polygon fill="midnightblue" stroke="midnightblue" points="1231.81,-222.493 1242.35,-221.376 1233.42,-215.679 1231.81,-222.493"/>
</g>
<!-- Node22 -->
<g id="node46" class="node"><title>Node22</title>
<a xlink:href="_setup_registry_8cc.html" target="_top" xlink:title="src/expconfig/setups\l/SetupRegistry.cc">
<polygon fill="white" stroke="black" points="1467.5,-73 1467.5,-107 1574.5,-107 1574.5,-73 1467.5,-73"/>
<text text-anchor="start" x="1475.5" y="-94" font-family="Helvetica,sans-Serif" font-size="10.00">src/expconfig/setups</text>
<text text-anchor="middle" x="1521" y="-81" font-family="Helvetica,sans-Serif" font-size="10.00">/SetupRegistry.cc</text>
</a>
</g>
<!-- Node1&#45;&gt;Node22 -->
<g id="edge52" class="edge"><title>Node1&#45;&gt;Node22</title>
<path fill="none" stroke="midnightblue" d="M1296.27,-206.857C1297.94,-186.87 1303.46,-160.418 1320,-144 1365.29,-99.0375 1397.46,-124.898 1459,-108 1461.7,-107.258 1464.47,-106.489 1467.26,-105.706"/>
<polygon fill="midnightblue" stroke="midnightblue" points="1292.77,-206.73 1295.7,-216.911 1299.76,-207.125 1292.77,-206.73"/>
</g>
<!-- Node23 -->
<g id="node48" class="node"><title>Node23</title>
<a xlink:href="expconfig__helpers_8cc.html" target="_top" xlink:title="test/expconfig_helpers.cc">
<polygon fill="white" stroke="black" points="1592,-79.5 1592,-100.5 1720,-100.5 1720,-79.5 1592,-79.5"/>
<text text-anchor="middle" x="1656" y="-87.5" font-family="Helvetica,sans-Serif" font-size="10.00">test/expconfig_helpers.cc</text>
</a>
</g>
<!-- Node1&#45;&gt;Node23 -->
<g id="edge54" class="edge"><title>Node1&#45;&gt;Node23</title>
<path fill="none" stroke="midnightblue" d="M1309.29,-208.065C1321.93,-184.43 1340.78,-152.018 1353,-144 1439.5,-87.2333 1481.57,-128.404 1583,-108 1593.75,-105.838 1605.3,-103.156 1615.98,-100.53"/>
<polygon fill="midnightblue" stroke="midnightblue" points="1306.18,-206.458 1304.61,-216.936 1312.37,-209.722 1306.18,-206.458"/>
</g>
<!-- Node4&#45;&gt;Node2 -->
<g id="edge12" class="edge"><title>Node4&#45;&gt;Node2</title>
<path fill="none" stroke="midnightblue" d="M926.005,-159.71C752.825,-153.241 277.644,-133.628 123,-108 112.338,-106.233 100.916,-103.448 90.6218,-100.592"/>
<polygon fill="midnightblue" stroke="midnightblue" points="926.112,-163.216 936.235,-160.09 926.372,-156.221 926.112,-163.216"/>
</g>
<!-- Node5 -->
<g id="node9" class="node"><title>Node5</title>
<a xlink:href="_ant-fake_raw_8cc.html" target="_top" xlink:title="progs/Ant&#45;fakeRaw.cc">
<polygon fill="white" stroke="black" points="418,-79.5 418,-100.5 532,-100.5 532,-79.5 418,-79.5"/>
<text text-anchor="middle" x="475" y="-87.5" font-family="Helvetica,sans-Serif" font-size="10.00">progs/Ant&#45;fakeRaw.cc</text>
</a>
</g>
<!-- Node4&#45;&gt;Node5 -->
<g id="edge8" class="edge"><title>Node4&#45;&gt;Node5</title>
<path fill="none" stroke="midnightblue" d="M926.355,-157.301C838.922,-150.177 677.012,-134.577 541,-108 530.859,-106.018 519.988,-103.305 510.055,-100.586"/>
<polygon fill="midnightblue" stroke="midnightblue" points="926.136,-160.795 936.384,-158.108 926.697,-153.818 926.136,-160.795"/>
</g>
<!-- Node6 -->
<g id="node11" class="node"><title>Node6</title>
<a xlink:href="_ant-make_tagg_eff_8cc.html" target="_top" xlink:title="progs/Ant&#45;makeTaggEff.cc">
<polygon fill="white" stroke="black" points="550,-79.5 550,-100.5 684,-100.5 684,-79.5 550,-79.5"/>
<text text-anchor="middle" x="617" y="-87.5" font-family="Helvetica,sans-Serif" font-size="10.00">progs/Ant&#45;makeTaggEff.cc</text>
</a>
</g>
<!-- Node4&#45;&gt;Node6 -->
<g id="edge10" class="edge"><title>Node4&#45;&gt;Node6</title>
<path fill="none" stroke="midnightblue" d="M926.328,-151.423C866.06,-141.175 773.133,-124.762 693,-108 682.25,-105.751 670.693,-103.123 659.918,-100.582"/>
<polygon fill="midnightblue" stroke="midnightblue" points="926.007,-154.918 936.451,-153.138 927.177,-148.016 926.007,-154.918"/>
</g>
<!-- Node7 -->
<g id="node14" class="node"><title>Node7</title>
<a xlink:href="_exp_config_8cc.html" target="_top" xlink:title="src/expconfig/ExpConfig.cc">
<polygon fill="white" stroke="black" points="701.5,-79.5 701.5,-100.5 838.5,-100.5 838.5,-79.5 701.5,-79.5"/>
<text text-anchor="middle" x="770" y="-87.5" font-family="Helvetica,sans-Serif" font-size="10.00">src/expconfig/ExpConfig.cc</text>
</a>
</g>
<!-- Node4&#45;&gt;Node7 -->
<g id="edge14" class="edge"><title>Node4&#45;&gt;Node7</title>
<path fill="none" stroke="midnightblue" d="M928.253,-141.792C887.342,-128.403 835.325,-111.379 802.334,-100.582"/>
<polygon fill="midnightblue" stroke="midnightblue" points="927.27,-145.153 937.863,-144.937 929.448,-138.5 927.27,-145.153"/>
</g>
<!-- Node8 -->
<g id="node16" class="node"><title>Node8</title>
<a xlink:href="_setup_8cc.html" target="_top" xlink:title="src/expconfig/setups\l/Setup.cc">
<polygon fill="white" stroke="black" points="855.5,-73 855.5,-107 962.5,-107 962.5,-73 855.5,-73"/>
<text text-anchor="start" x="863.5" y="-94" font-family="Helvetica,sans-Serif" font-size="10.00">src/expconfig/setups</text>
<text text-anchor="middle" x="909" y="-81" font-family="Helvetica,sans-Serif" font-size="10.00">/Setup.cc</text>
</a>
</g>
<!-- Node4&#45;&gt;Node8 -->
<g id="edge16" class="edge"><title>Node4&#45;&gt;Node8</title>
<path fill="none" stroke="midnightblue" d="M963.226,-138.201C951.825,-128.067 938.778,-116.469 928.339,-107.19"/>
<polygon fill="midnightblue" stroke="midnightblue" points="961.005,-140.909 970.804,-144.937 965.655,-135.677 961.005,-140.909"/>
</g>
<!-- Node9 -->
<g id="node18" class="node"><title>Node9</title>
<a xlink:href="_setup__2007___base_8h.html" target="_top" xlink:title="src/expconfig/setups\l/Setup_2007_Base.h">
<polygon fill="white" stroke="black" points="1017.5,-73 1017.5,-107 1124.5,-107 1124.5,-73 1017.5,-73"/>
<text text-anchor="start" x="1025.5" y="-94" font-family="Helvetica,sans-Serif" font-size="10.00">src/expconfig/setups</text>
<text text-anchor="middle" x="1071" y="-81" font-family="Helvetica,sans-Serif" font-size="10.00">/Setup_2007_Base.h</text>
</a>
</g>
<!-- Node4&#45;&gt;Node9 -->
<g id="edge18" class="edge"><title>Node4&#45;&gt;Node9</title>
<path fill="none" stroke="midnightblue" d="M1016.77,-138.201C1028.18,-128.067 1041.22,-116.469 1051.66,-107.19"/>
<polygon fill="midnightblue" stroke="midnightblue" points="1014.34,-135.677 1009.2,-144.937 1019,-140.909 1014.34,-135.677"/>
</g>
<!-- Node12 -->
<g id="node24" class="node"><title>Node12</title>
<a xlink:href="_setup__2007___base_8cc.html" target="_top" xlink:title="src/expconfig/setups\l/Setup_2007_Base.cc">
<polygon fill="white" stroke="black" points="1082.5,-1 1082.5,-35 1195.5,-35 1195.5,-1 1082.5,-1"/>
<text text-anchor="start" x="1090.5" y="-22" font-family="Helvetica,sans-Serif" font-size="10.00">src/expconfig/setups</text>
<text text-anchor="middle" x="1139" y="-9" font-family="Helvetica,sans-Serif" font-size="10.00">/Setup_2007_Base.cc</text>
</a>
</g>
<!-- Node4&#45;&gt;Node12 -->
<g id="edge26" class="edge"><title>Node4&#45;&gt;Node12</title>
<path fill="none" stroke="midnightblue" d="M1053.59,-160.096C1134.25,-156.187 1266.55,-144.271 1297,-108 1307.29,-95.7454 1306.31,-85.0152 1297,-72 1290.74,-63.2457 1238.58,-46.4773 1195.87,-33.9381"/>
<polygon fill="midnightblue" stroke="midnightblue" points="1053.37,-156.603 1043.54,-160.555 1053.69,-163.595 1053.37,-156.603"/>
</g>
<!-- Node13 -->
<g id="node27" class="node"><title>Node13</title>
<a xlink:href="_setup__2012__12___compton_8cc.html" target="_top" xlink:title="src/expconfig/setups\l/Setup_2012_12_Compton.cc">
<polygon fill="white" stroke="black" points="1142,-73 1142,-107 1288,-107 1288,-73 1142,-73"/>
<text text-anchor="start" x="1150" y="-94" font-family="Helvetica,sans-Serif" font-size="10.00">src/expconfig/setups</text>
<text text-anchor="middle" x="1215" y="-81" font-family="Helvetica,sans-Serif" font-size="10.00">/Setup_2012_12_Compton.cc</text>
</a>
</g>
<!-- Node4&#45;&gt;Node13 -->
<g id="edge28" class="edge"><title>Node4&#45;&gt;Node13</title>
<path fill="none" stroke="midnightblue" d="M1053.21,-141.774C1087.39,-130.835 1129.14,-117.474 1161.67,-107.065"/>
<polygon fill="midnightblue" stroke="midnightblue" points="1051.78,-138.556 1043.32,-144.937 1053.91,-145.223 1051.78,-138.556"/>
</g>
<!-- Node14 -->
<g id="node29" class="node"><title>Node14</title>
<a xlink:href="_setup__2014___e_p_t_8h.html" target="_top" xlink:title="src/expconfig/setups\l/Setup_2014_EPT.h">
<polygon fill="white" stroke="black" points="1343.5,-73 1343.5,-107 1450.5,-107 1450.5,-73 1343.5,-73"/>
<text text-anchor="start" x="1351.5" y="-94" font-family="Helvetica,sans-Serif" font-size="10.00">src/expconfig/setups</text>
<text text-anchor="middle" x="1397" y="-81" font-family="Helvetica,sans-Serif" font-size="10.00">/Setup_2014_EPT.h</text>
</a>
</g>
<!-- Node4&#45;&gt;Node14 -->
<g id="edge30" class="edge"><title>Node4&#45;&gt;Node14</title>
<path fill="none" stroke="midnightblue" d="M1053.83,-153.9C1122.43,-144.719 1234.51,-128.352 1330,-108 1334.36,-107.071 1338.86,-106.035 1343.36,-104.941"/>
<polygon fill="midnightblue" stroke="midnightblue" points="1053.07,-150.47 1043.61,-155.256 1053.99,-157.409 1053.07,-150.47"/>
</g>
<!-- Node19 -->
<g id="node39" class="node"><title>Node19</title>
<a xlink:href="_setup__2015__01___pion_8cc.html" target="_top" xlink:title="src/expconfig/setups\l/Setup_2015_01_Pion.cc">
<polygon fill="white" stroke="black" points="440.5,-1 440.5,-35 565.5,-35 565.5,-1 440.5,-1"/>
<text text-anchor="start" x="448.5" y="-22" font-family="Helvetica,sans-Serif" font-size="10.00">src/expconfig/setups</text>
<text text-anchor="middle" x="503" y="-9" font-family="Helvetica,sans-Serif" font-size="10.00">/Setup_2015_01_Pion.cc</text>
</a>
</g>
<!-- Node4&#45;&gt;Node19 -->
<g id="edge40" class="edge"><title>Node4&#45;&gt;Node19</title>
<path fill="none" stroke="midnightblue" d="M992.036,-134.686C991.938,-114.377 988.112,-87.5877 971,-72 941.599,-45.2186 686.724,-27.9612 565.961,-21.2152"/>
<polygon fill="midnightblue" stroke="midnightblue" points="988.532,-134.821 991.784,-144.905 995.53,-134.994 988.532,-134.821"/>
</g>
<!-- Node20 -->
<g id="node41" class="node"><title>Node20</title>
<a xlink:href="_setup__2015__01___pion_8h.html" target="_top" xlink:title="src/expconfig/setups\l/Setup_2015_01_Pion.h">
<polygon fill="white" stroke="black" points="132,-73 132,-107 252,-107 252,-73 132,-73"/>
<text text-anchor="start" x="140" y="-94" font-family="Helvetica,sans-Serif" font-size="10.00">src/expconfig/setups</text>
<text text-anchor="middle" x="192" y="-81" font-family="Helvetica,sans-Serif" font-size="10.00">/Setup_2015_01_Pion.h</text>
</a>
</g>
<!-- Node4&#45;&gt;Node20 -->
<g id="edge42" class="edge"><title>Node4&#45;&gt;Node20</title>
<path fill="none" stroke="midnightblue" d="M925.74,-161.141C798.165,-158.578 504.238,-148.393 261,-108 258.069,-107.513 255.081,-106.96 252.073,-106.356"/>
<polygon fill="midnightblue" stroke="midnightblue" points="926.035,-164.647 936.1,-161.339 926.169,-157.648 926.035,-164.647"/>
</g>
<!-- Node21 -->
<g id="node44" class="node"><title>Node21</title>
<a xlink:href="_setup___c_b_source_calib_8cc.html" target="_top" xlink:title="src/expconfig/setups\l/Setup_CBSourceCalib.cc">
<polygon fill="white" stroke="black" points="269.5,-73 269.5,-107 400.5,-107 400.5,-73 269.5,-73"/>
<text text-anchor="start" x="277.5" y="-94" font-family="Helvetica,sans-Serif" font-size="10.00">src/expconfig/setups</text>
<text text-anchor="middle" x="335" y="-81" font-family="Helvetica,sans-Serif" font-size="10.00">/Setup_CBSourceCalib.cc</text>
</a>
</g>
<!-- Node4&#45;&gt;Node21 -->
<g id="edge46" class="edge"><title>Node4&#45;&gt;Node21</title>
<path fill="none" stroke="midnightblue" d="M926.379,-159.129C819.078,-153.609 595.57,-139.19 409,-108 406.261,-107.542 403.474,-107.038 400.665,-106.499"/>
<polygon fill="midnightblue" stroke="midnightblue" points="926.231,-162.626 936.395,-159.636 926.585,-155.635 926.231,-162.626"/>
</g>
<!-- Node4&#45;&gt;Node22 -->
<g id="edge48" class="edge"><title>Node4&#45;&gt;Node22</title>
<path fill="none" stroke="midnightblue" d="M1053.68,-158.072C1144.38,-151.709 1315.67,-136.844 1459,-108 1461.75,-107.447 1464.55,-106.831 1467.37,-106.168"/>
<polygon fill="midnightblue" stroke="midnightblue" points="1053.29,-154.59 1043.56,-158.77 1053.78,-161.574 1053.29,-154.59"/>
</g>
<!-- Node4&#45;&gt;Node23 -->
<g id="edge50" class="edge"><title>Node4&#45;&gt;Node23</title>
<path fill="none" stroke="midnightblue" d="M1053.67,-159.357C1162.7,-154.13 1391.89,-140.075 1583,-108 1594.46,-106.077 1606.77,-103.316 1617.96,-100.531"/>
<polygon fill="midnightblue" stroke="midnightblue" points="1053.33,-155.87 1043.5,-159.836 1053.66,-162.862 1053.33,-155.87"/>
</g>
<!-- Node10 -->
<g id="node20" class="node"><title>Node10</title>
<a xlink:href="_setup__2007__06_8cc.html" target="_top" xlink:title="src/expconfig/setups\l/Setup_2007_06.cc">
<polygon fill="white" stroke="black" points="834.5,-1 834.5,-35 941.5,-35 941.5,-1 834.5,-1"/>
<text text-anchor="start" x="842.5" y="-22" font-family="Helvetica,sans-Serif" font-size="10.00">src/expconfig/setups</text>
<text text-anchor="middle" x="888" y="-9" font-family="Helvetica,sans-Serif" font-size="10.00">/Setup_2007_06.cc</text>
</a>
</g>
<!-- Node9&#45;&gt;Node10 -->
<g id="edge20" class="edge"><title>Node9&#45;&gt;Node10</title>
<path fill="none" stroke="midnightblue" d="M1018.15,-69.2081C990.624,-58.3768 957.375,-45.2952 931.374,-35.0651"/>
<polygon fill="midnightblue" stroke="midnightblue" points="1017.04,-72.5327 1027.63,-72.937 1019.61,-66.0187 1017.04,-72.5327"/>
</g>
<!-- Node11 -->
<g id="node22" class="node"><title>Node11</title>
<a xlink:href="_setup__2007__07_8cc.html" target="_top" xlink:title="src/expconfig/setups\l/Setup_2007_07.cc">
<polygon fill="white" stroke="black" points="958.5,-1 958.5,-35 1065.5,-35 1065.5,-1 958.5,-1"/>
<text text-anchor="start" x="966.5" y="-22" font-family="Helvetica,sans-Serif" font-size="10.00">src/expconfig/setups</text>
<text text-anchor="middle" x="1012" y="-9" font-family="Helvetica,sans-Serif" font-size="10.00">/Setup_2007_07.cc</text>
</a>
</g>
<!-- Node9&#45;&gt;Node11 -->
<g id="edge22" class="edge"><title>Node9&#45;&gt;Node11</title>
<path fill="none" stroke="midnightblue" d="M1050.58,-65.0858C1042.58,-55.3151 1033.58,-44.3372 1026.29,-35.4407"/>
<polygon fill="midnightblue" stroke="midnightblue" points="1047.97,-67.4206 1057.02,-72.937 1053.39,-62.9838 1047.97,-67.4206"/>
</g>
<!-- Node9&#45;&gt;Node12 -->
<g id="edge24" class="edge"><title>Node9&#45;&gt;Node12</title>
<path fill="none" stroke="midnightblue" d="M1094.25,-65.3785C1103.55,-55.5349 1114.04,-44.4262 1122.53,-35.4407"/>
<polygon fill="midnightblue" stroke="midnightblue" points="1091.44,-63.2637 1087.12,-72.937 1096.53,-68.07 1091.44,-63.2637"/>
</g>
<!-- Node15 -->
<g id="node31" class="node"><title>Node15</title>
<a xlink:href="_setup__2014__07___e_p_t___prod_8cc.html" target="_top" xlink:title="src/expconfig/setups\l/Setup_2014_07_EPT_Prod.cc">
<polygon fill="white" stroke="black" points="1676.5,-1 1676.5,-35 1827.5,-35 1827.5,-1 1676.5,-1"/>
<text text-anchor="start" x="1684.5" y="-22" font-family="Helvetica,sans-Serif" font-size="10.00">src/expconfig/setups</text>
<text text-anchor="middle" x="1752" y="-9" font-family="Helvetica,sans-Serif" font-size="10.00">/Setup_2014_07_EPT_Prod.cc</text>
</a>
</g>
<!-- Node14&#45;&gt;Node15 -->
<g id="edge32" class="edge"><title>Node14&#45;&gt;Node15</title>
<path fill="none" stroke="midnightblue" d="M1460.68,-71.731C1552.61,-51.0111 1578.62,-53.2674 1668,-36 1670.78,-35.4625 1673.61,-34.9056 1676.47,-34.3352"/>
<polygon fill="midnightblue" stroke="midnightblue" points="1459.64,-68.3792 1450.67,-74.019 1461.2,-75.2033 1459.64,-68.3792"/>
</g>
<!-- Node16 -->
<g id="node33" class="node"><title>Node16</title>
<a xlink:href="_setup__2014__10___e_p_t___prod_8cc.html" target="_top" xlink:title="src/expconfig/setups\l/Setup_2014_10_EPT_Prod.cc">
<polygon fill="white" stroke="black" points="1212.5,-1 1212.5,-35 1363.5,-35 1363.5,-1 1212.5,-1"/>
<text text-anchor="start" x="1220.5" y="-22" font-family="Helvetica,sans-Serif" font-size="10.00">src/expconfig/setups</text>
<text text-anchor="middle" x="1288" y="-9" font-family="Helvetica,sans-Serif" font-size="10.00">/Setup_2014_10_EPT_Prod.cc</text>
</a>
</g>
<!-- Node14&#45;&gt;Node16 -->
<g id="edge34" class="edge"><title>Node14&#45;&gt;Node16</title>
<path fill="none" stroke="midnightblue" d="M1362.73,-67.3637C1346.98,-56.9622 1328.61,-44.826 1314.02,-35.19"/>
<polygon fill="midnightblue" stroke="midnightblue" points="1360.9,-70.3457 1371.17,-72.937 1364.75,-64.5049 1360.9,-70.3457"/>
</g>
<!-- Node17 -->
<g id="node35" class="node"><title>Node17</title>
<a xlink:href="_setup__2014__12___e_p_t___prod_8cc.html" target="_top" xlink:title="src/expconfig/setups\l/Setup_2014_12_EPT_Prod.cc">
<polygon fill="white" stroke="black" points="1380.5,-1 1380.5,-35 1531.5,-35 1531.5,-1 1380.5,-1"/>
<text text-anchor="start" x="1388.5" y="-22" font-family="Helvetica,sans-Serif" font-size="10.00">src/expconfig/setups</text>
<text text-anchor="middle" x="1456" y="-9" font-family="Helvetica,sans-Serif" font-size="10.00">/Setup_2014_12_EPT_Prod.cc</text>
</a>
</g>
<!-- Node14&#45;&gt;Node17 -->
<g id="edge36" class="edge"><title>Node14&#45;&gt;Node17</title>
<path fill="none" stroke="midnightblue" d="M1417.42,-65.0858C1425.42,-55.3151 1434.42,-44.3372 1441.71,-35.4407"/>
<polygon fill="midnightblue" stroke="midnightblue" points="1414.61,-62.9838 1410.98,-72.937 1420.03,-67.4206 1414.61,-62.9838"/>
</g>
<!-- Node18 -->
<g id="node37" class="node"><title>Node18</title>
<a xlink:href="_setup__2014___e_p_t_8cc.html" target="_top" xlink:title="src/expconfig/setups\l/Setup_2014_EPT.cc">
<polygon fill="white" stroke="black" points="1549,-1 1549,-35 1659,-35 1659,-1 1549,-1"/>
<text text-anchor="start" x="1557" y="-22" font-family="Helvetica,sans-Serif" font-size="10.00">src/expconfig/setups</text>
<text text-anchor="middle" x="1604" y="-9" font-family="Helvetica,sans-Serif" font-size="10.00">/Setup_2014_EPT.cc</text>
</a>
</g>
<!-- Node14&#45;&gt;Node18 -->
<g id="edge38" class="edge"><title>Node14&#45;&gt;Node18</title>
<path fill="none" stroke="midnightblue" d="M1455.56,-69.6326C1486.93,-58.7201 1525.14,-45.4292 1554.94,-35.0651"/>
<polygon fill="midnightblue" stroke="midnightblue" points="1454.35,-66.346 1446.06,-72.937 1456.65,-72.9575 1454.35,-66.346"/>
</g>
<!-- Node20&#45;&gt;Node19 -->
<g id="edge44" class="edge"><title>Node20&#45;&gt;Node19</title>
<path fill="none" stroke="midnightblue" d="M261.964,-71.8042C328.263,-55.8642 393.783,-41.3994 440.434,-31.32"/>
<polygon fill="midnightblue" stroke="midnightblue" points="261.078,-68.4174 252.179,-74.1663 262.721,-75.222 261.078,-68.4174"/>
</g>
</g>
</svg>
