<?xml version="1.0" encoding="UTF-8" standalone="no"?>
<!DOCTYPE svg PUBLIC "-//W3C//DTD SVG 1.1//EN"
 "http://www.w3.org/Graphics/SVG/1.1/DTD/svg11.dtd">
<!-- Generated by graphviz version 2.26.3 (20100126.1600)
 -->
<!-- Title: src/expconfig/setups/Setup.cc Pages: 1 -->
<svg width="3133pt" height="608pt"
 viewBox="0.00 0.00 3133.36 608.00" xmlns="http://www.w3.org/2000/svg" xmlns:xlink="http://www.w3.org/1999/xlink">
<g id="graph1" class="graph" transform="scale(1 1) rotate(0) translate(4 604)">
<title>src/expconfig/setups/Setup.cc</title>
<polygon fill="white" stroke="white" points="-4,5 -4,-604 3130.36,-604 3130.36,5 -4,5"/>
<!-- Node1 -->
<g id="node1" class="node"><title>Node1</title>
<polygon fill="#bfbfbf" stroke="black" points="2176.86,-565 2176.86,-599 2283.86,-599 2283.86,-565 2176.86,-565"/>
<text text-anchor="start" x="2184.86" y="-586" font-family="Helvetica,sans-Serif" font-size="10.00">src/expconfig/setups</text>
<text text-anchor="middle" x="2230.36" y="-573" font-family="Helvetica,sans-Serif" font-size="10.00">/Setup.cc</text>
</g>
<!-- Node2 -->
<g id="node3" class="node"><title>Node2</title>
<a xlink:href="_setup_8h.html" target="_top" xlink:title="Setup.h">
<polygon fill="white" stroke="black" points="1890.36,-506.5 1890.36,-527.5 1940.36,-527.5 1940.36,-506.5 1890.36,-506.5"/>
<text text-anchor="middle" x="1915.36" y="-514.5" font-family="Helvetica,sans-Serif" font-size="10.00">Setup.h</text>
</a>
</g>
<!-- Node1&#45;&gt;Node2 -->
<g id="edge2" class="edge"><title>Node1&#45;&gt;Node2</title>
<path fill="none" stroke="midnightblue" d="M2176.57,-570.9C2112.02,-557.581 2005.64,-535.63 1950.68,-524.288"/>
<polygon fill="midnightblue" stroke="midnightblue" points="1951.22,-520.826 1940.72,-522.233 1949.81,-527.682 1951.22,-520.826"/>
</g>
<!-- Node56 -->
<g id="node196" class="node"><title>Node56</title>
<polygon fill="white" stroke="#bfbfbf" points="2193.36,-506.5 2193.36,-527.5 2267.36,-527.5 2267.36,-506.5 2193.36,-506.5"/>
<text text-anchor="middle" x="2230.36" y="-514.5" font-family="Helvetica,sans-Serif" font-size="10.00">base/Paths.h</text>
</g>
<!-- Node1&#45;&gt;Node56 -->
<g id="edge280" class="edge"><title>Node1&#45;&gt;Node56</title>
<path fill="none" stroke="midnightblue" d="M2230.36,-564.922C2230.36,-556.67 2230.36,-546.692 2230.36,-537.982"/>
<polygon fill="midnightblue" stroke="midnightblue" points="2233.86,-537.852 2230.36,-527.852 2226.86,-537.852 2233.86,-537.852"/>
</g>
<!-- Node57 -->
<g id="node198" class="node"><title>Node57</title>
<a xlink:href="_logger_8h.html" target="_top" xlink:title="base/Logger.h">
<polygon fill="white" stroke="black" points="2755.36,-506.5 2755.36,-527.5 2833.36,-527.5 2833.36,-506.5 2755.36,-506.5"/>
<text text-anchor="middle" x="2794.36" y="-514.5" font-family="Helvetica,sans-Serif" font-size="10.00">base/Logger.h</text>
</a>
</g>
<!-- Node1&#45;&gt;Node57 -->
<g id="edge282" class="edge"><title>Node1&#45;&gt;Node57</title>
<path fill="none" stroke="midnightblue" d="M2283.93,-575.826C2393.03,-563.252 2639.59,-534.837 2745.03,-522.686"/>
<polygon fill="midnightblue" stroke="midnightblue" points="2745.55,-526.149 2755.08,-521.527 2744.75,-519.195 2745.55,-526.149"/>
</g>
<!-- Node3 -->
<g id="node5" class="node"><title>Node3</title>
<a xlink:href="_exp_config_8h.html" target="_top" xlink:title="expconfig/ExpConfig.h">
<polygon fill="white" stroke="black" points="1293.36,-390.5 1293.36,-411.5 1409.36,-411.5 1409.36,-390.5 1293.36,-390.5"/>
<text text-anchor="middle" x="1351.36" y="-398.5" font-family="Helvetica,sans-Serif" font-size="10.00">expconfig/ExpConfig.h</text>
</a>
</g>
<!-- Node2&#45;&gt;Node3 -->
<g id="edge4" class="edge"><title>Node2&#45;&gt;Node3</title>
<path fill="none" stroke="midnightblue" d="M1890.28,-516.342C1804.5,-513.809 1523.51,-503.118 1440.36,-470 1411.95,-458.684 1385.04,-435.44 1368.39,-419.066"/>
<polygon fill="midnightblue" stroke="midnightblue" points="1370.6,-416.321 1361.08,-411.663 1365.62,-421.239 1370.6,-416.321"/>
</g>
<!-- Node17 -->
<g id="node37" class="node"><title>Node17</title>
<polygon fill="white" stroke="#bfbfbf" points="2002.86,-0.5 2002.86,-21.5 2043.86,-21.5 2043.86,-0.5 2002.86,-0.5"/>
<text text-anchor="middle" x="2023.36" y="-8.5" font-family="Helvetica,sans-Serif" font-size="10.00">string</text>
</g>
<!-- Node2&#45;&gt;Node17 -->
<g id="edge278" class="edge"><title>Node2&#45;&gt;Node17</title>
<path fill="none" stroke="midnightblue" d="M1940.54,-514.132C2044.81,-501.92 2437.36,-452.524 2437.36,-401 2437.36,-401 2437.36,-401 2437.36,-206 2437.36,-155.051 2409.43,-143.212 2366.36,-116 2305.47,-77.5329 2275.68,-105.603 2208.36,-80 2189.4,-72.7875 2186.98,-66.053 2168.36,-58 2129.9,-41.3697 2083.55,-27.332 2053.78,-19.0414"/>
<polygon fill="midnightblue" stroke="midnightblue" points="2054.55,-15.6236 2043.98,-16.3537 2052.7,-22.3743 2054.55,-15.6236"/>
</g>
<!-- Node24 -->
<g id="node59" class="node"><title>Node24</title>
<polygon fill="white" stroke="#bfbfbf" points="2858.86,-0.5 2858.86,-21.5 2917.86,-21.5 2917.86,-0.5 2858.86,-0.5"/>
<text text-anchor="middle" x="2888.36" y="-8.5" font-family="Helvetica,sans-Serif" font-size="10.00">functional</text>
</g>
<!-- Node2&#45;&gt;Node24 -->
<g id="edge276" class="edge"><title>Node2&#45;&gt;Node24</title>
<path fill="none" stroke="midnightblue" d="M1940.45,-515.632C2101.49,-506.687 2983.36,-455.233 2983.36,-401 2983.36,-401 2983.36,-401 2983.36,-134 2983.36,-88.0296 2941.28,-48.7684 2913.13,-27.6475"/>
<polygon fill="midnightblue" stroke="midnightblue" points="2915.06,-24.7203 2904.91,-21.6878 2910.95,-30.3891 2915.06,-24.7203"/>
</g>
<!-- Node26 -->
<g id="node67" class="node"><title>Node26</title>
<a xlink:href="_calibration_8h.html" target="_top" xlink:title="calibration/Calibration.h">
<polygon fill="white" stroke="black" points="1636.86,-332.5 1636.86,-353.5 1755.86,-353.5 1755.86,-332.5 1636.86,-332.5"/>
<text text-anchor="middle" x="1696.36" y="-340.5" font-family="Helvetica,sans-Serif" font-size="10.00">calibration/Calibration.h</text>
</a>
</g>
<!-- Node2&#45;&gt;Node26 -->
<g id="edge262" class="edge"><title>Node2&#45;&gt;Node26</title>
<path fill="none" stroke="midnightblue" d="M1901.99,-506.377C1865.26,-477.195 1762.57,-395.607 1717.75,-359.992"/>
<polygon fill="midnightblue" stroke="midnightblue" points="1719.84,-357.185 1709.83,-353.705 1715.49,-362.666 1719.84,-357.185"/>
</g>
<!-- Node43 -->
<g id="node117" class="node"><title>Node43</title>
<a xlink:href="_t_i_d_8h.html" target="_top" xlink:title="tree/TID.h">
<polygon fill="white" stroke="black" points="788.861,-195.5 788.861,-216.5 849.861,-216.5 849.861,-195.5 788.861,-195.5"/>
<text text-anchor="middle" x="819.361" y="-203.5" font-family="Helvetica,sans-Serif" font-size="10.00">tree/TID.h</text>
</a>
</g>
<!-- Node2&#45;&gt;Node43 -->
<g id="edge260" class="edge"><title>Node2&#45;&gt;Node43</title>
<path fill="none" stroke="midnightblue" d="M1890.16,-516.748C1727.15,-514.859 826.176,-500.446 747.361,-412 697.475,-356.019 767.762,-263.466 802.222,-224.353"/>
<polygon fill="midnightblue" stroke="midnightblue" points="804.887,-226.624 808.975,-216.85 799.684,-221.941 804.887,-226.624"/>
</g>
<!-- Node50 -->
<g id="node141" class="node"><title>Node50</title>
<a xlink:href="_options_list_8h.html" target="_top" xlink:title="base/OptionsList.h">
<polygon fill="white" stroke="black" points="1713.36,-267.5 1713.36,-288.5 1811.36,-288.5 1811.36,-267.5 1713.36,-267.5"/>
<text text-anchor="middle" x="1762.36" y="-275.5" font-family="Helvetica,sans-Serif" font-size="10.00">base/OptionsList.h</text>
</a>
</g>
<!-- Node2&#45;&gt;Node50 -->
<g id="edge274" class="edge"><title>Node2&#45;&gt;Node50</title>
<path fill="none" stroke="midnightblue" d="M1913.95,-506.202C1909.48,-475.71 1893.19,-387.568 1848.36,-332 1834.91,-315.328 1814.86,-302.318 1797.5,-293.249"/>
<polygon fill="midnightblue" stroke="midnightblue" points="1798.7,-289.938 1788.19,-288.618 1795.58,-296.205 1798.7,-289.938"/>
</g>
<!-- Node51 -->
<g id="node153" class="node"><title>Node51</title>
<a xlink:href="_setup_registry_8h.html" target="_top" xlink:title="SetupRegistry.h">
<polygon fill="white" stroke="black" points="1942.86,-332.5 1942.86,-353.5 2029.86,-353.5 2029.86,-332.5 1942.86,-332.5"/>
<text text-anchor="middle" x="1986.36" y="-340.5" font-family="Helvetica,sans-Serif" font-size="10.00">SetupRegistry.h</text>
</a>
</g>
<!-- Node2&#45;&gt;Node51 -->
<g id="edge204" class="edge"><title>Node2&#45;&gt;Node51</title>
<path fill="none" stroke="midnightblue" d="M1919.7,-506.377C1931.25,-478.051 1962.96,-400.349 1978.1,-363.242"/>
<polygon fill="midnightblue" stroke="midnightblue" points="1981.36,-364.509 1981.9,-353.928 1974.88,-361.864 1981.36,-364.509"/>
</g>
<!-- Node52 -->
<g id="node160" class="node"><title>Node52</title>
<a xlink:href="_unpacker_acqu_8h.html" target="_top" xlink:title="unpacker/UnpackerAcqu.h">
<polygon fill="white" stroke="black" points="1258.36,-448.5 1258.36,-469.5 1390.36,-469.5 1390.36,-448.5 1258.36,-448.5"/>
<text text-anchor="middle" x="1324.36" y="-456.5" font-family="Helvetica,sans-Serif" font-size="10.00">unpacker/UnpackerAcqu.h</text>
</a>
</g>
<!-- Node2&#45;&gt;Node52 -->
<g id="edge216" class="edge"><title>Node2&#45;&gt;Node52</title>
<path fill="none" stroke="midnightblue" d="M1890.17,-515.044C1815.96,-509.203 1591.76,-490.986 1406.36,-470 1404.43,-469.782 1402.48,-469.556 1400.51,-469.324"/>
<polygon fill="midnightblue" stroke="midnightblue" points="1400.92,-465.848 1390.57,-468.12 1400.07,-472.797 1400.92,-465.848"/>
</g>
<!-- Node54 -->
<g id="node174" class="node"><title>Node54</title>
<a xlink:href="_unpacker_a2_geant_8h.html" target="_top" xlink:title="unpacker/UnpackerA2Geant.h">
<polygon fill="white" stroke="black" points="1449.36,-448.5 1449.36,-469.5 1597.36,-469.5 1597.36,-448.5 1449.36,-448.5"/>
<text text-anchor="middle" x="1523.36" y="-456.5" font-family="Helvetica,sans-Serif" font-size="10.00">unpacker/UnpackerA2Geant.h</text>
</a>
</g>
<!-- Node2&#45;&gt;Node54 -->
<g id="edge240" class="edge"><title>Node2&#45;&gt;Node54</title>
<path fill="none" stroke="midnightblue" d="M1890.24,-513.284C1833.7,-504.918 1694.37,-484.302 1604.61,-471.021"/>
<polygon fill="midnightblue" stroke="midnightblue" points="1604.86,-467.521 1594.46,-469.519 1603.84,-474.445 1604.86,-467.521"/>
</g>
<!-- Node55 -->
<g id="node187" class="node"><title>Node55</title>
<a xlink:href="_data_manager_8h.html" target="_top" xlink:title="calibration/DataManager.h">
<polygon fill="white" stroke="black" points="2219.86,-390.5 2219.86,-411.5 2350.86,-411.5 2350.86,-390.5 2219.86,-390.5"/>
<text text-anchor="middle" x="2285.36" y="-398.5" font-family="Helvetica,sans-Serif" font-size="10.00">calibration/DataManager.h</text>
</a>
</g>
<!-- Node2&#45;&gt;Node55 -->
<g id="edge264" class="edge"><title>Node2&#45;&gt;Node55</title>
<path fill="none" stroke="midnightblue" d="M1940.5,-509.118C2002.61,-489.646 2163.9,-439.08 2241.88,-414.631"/>
<polygon fill="midnightblue" stroke="midnightblue" points="2243.37,-417.833 2251.86,-411.501 2241.28,-411.153 2243.37,-417.833"/>
</g>
<!-- Node4 -->
<g id="node7" class="node"><title>Node4</title>
<a xlink:href="_detector__t_8h.html" target="_top" xlink:title="base/Detector_t.h">
<polygon fill="white" stroke="black" points="498.861,-195.5 498.861,-216.5 593.861,-216.5 593.861,-195.5 498.861,-195.5"/>
<text text-anchor="middle" x="546.361" y="-203.5" font-family="Helvetica,sans-Serif" font-size="10.00">base/Detector_t.h</text>
</a>
</g>
<!-- Node3&#45;&gt;Node4 -->
<g id="edge6" class="edge"><title>Node3&#45;&gt;Node4</title>
<path fill="none" stroke="midnightblue" d="M1307.79,-390.447C1170.84,-357.272 749.264,-255.151 599.681,-218.916"/>
<polygon fill="midnightblue" stroke="midnightblue" points="600.351,-215.477 589.808,-216.525 598.703,-222.281 600.351,-215.477"/>
</g>
<!-- Node5 -->
<g id="node9" class="node"><title>Node5</title>
<a xlink:href="printable_8h.html" target="_top" xlink:title="base/printable.h">
<polygon fill="white" stroke="black" points="21.3607,-58.5 21.3607,-79.5 107.361,-79.5 107.361,-58.5 21.3607,-58.5"/>
<text text-anchor="middle" x="64.3607" y="-66.5" font-family="Helvetica,sans-Serif" font-size="10.00">base/printable.h</text>
</a>
</g>
<!-- Node3&#45;&gt;Node5 -->
<g id="edge196" class="edge"><title>Node3&#45;&gt;Node5</title>
<path fill="none" stroke="midnightblue" d="M1293.27,-392.044C1235.23,-382.965 1143.49,-368.258 1064.36,-354 606.543,-271.511 332.858,-511.281 37.3607,-152 22.0577,-133.394 36.1754,-105.886 49.0735,-87.7093"/>
<polygon fill="midnightblue" stroke="midnightblue" points="51.9497,-89.7082 55.173,-79.6156 46.3594,-85.4952 51.9497,-89.7082"/>
</g>
<!-- Node18 -->
<g id="node41" class="node"><title>Node18</title>
<a xlink:href="_reconstruct__traits_8h.html" target="_top" xlink:title="reconstruct/Reconstruct\l_traits.h">
<polygon fill="white" stroke="black" points="1269.36,-261 1269.36,-295 1391.36,-295 1391.36,-261 1269.36,-261"/>
<text text-anchor="start" x="1277.36" y="-282" font-family="Helvetica,sans-Serif" font-size="10.00">reconstruct/Reconstruct</text>
<text text-anchor="middle" x="1330.36" y="-269" font-family="Helvetica,sans-Serif" font-size="10.00">_traits.h</text>
</a>
</g>
<!-- Node3&#45;&gt;Node18 -->
<g id="edge46" class="edge"><title>Node3&#45;&gt;Node18</title>
<path fill="none" stroke="midnightblue" d="M1349.5,-390.085C1346.27,-371.191 1339.56,-331.862 1335,-305.192"/>
<polygon fill="midnightblue" stroke="midnightblue" points="1338.45,-304.586 1333.32,-295.317 1331.55,-305.764 1338.45,-304.586"/>
</g>
<!-- Node21 -->
<g id="node48" class="node"><title>Node21</title>
<polygon fill="white" stroke="#bfbfbf" points="1591.36,-58.5 1591.36,-79.5 1643.36,-79.5 1643.36,-58.5 1591.36,-58.5"/>
<text text-anchor="middle" x="1617.36" y="-66.5" font-family="Helvetica,sans-Serif" font-size="10.00">memory</text>
</g>
<!-- Node3&#45;&gt;Node21 -->
<g id="edge198" class="edge"><title>Node3&#45;&gt;Node21</title>
<path fill="none" stroke="midnightblue" d="M1337.15,-390.345C1315.66,-373.243 1275.79,-337.36 1260.36,-296 1252.6,-275.183 1260.1,-195.054 1266.36,-188 1319.05,-128.592 1370.95,-188.713 1441.36,-152 1461.99,-141.244 1459.45,-128.027 1479.36,-116 1511.29,-96.7135 1552.2,-84.0551 1581.17,-76.786"/>
<polygon fill="midnightblue" stroke="midnightblue" points="1582.36,-80.0988 1591.26,-74.3494 1580.72,-73.2943 1582.36,-80.0988"/>
</g>
<!-- Node22 -->
<g id="node50" class="node"><title>Node22</title>
<polygon fill="white" stroke="#bfbfbf" points="2008.86,-58.5 2008.86,-79.5 2037.86,-79.5 2037.86,-58.5 2008.86,-58.5"/>
<text text-anchor="middle" x="2023.36" y="-66.5" font-family="Helvetica,sans-Serif" font-size="10.00">list</text>
</g>
<!-- Node3&#45;&gt;Node22 -->
<g id="edge200" class="edge"><title>Node3&#45;&gt;Node22</title>
<path fill="none" stroke="midnightblue" d="M1409.62,-398.87C1571.15,-392.721 2014.42,-374.09 2038.36,-354 2121.15,-284.515 2137.54,-212.25 2088.36,-116 2079.73,-99.1137 2061.89,-86.8936 2047.08,-79.1534"/>
<polygon fill="midnightblue" stroke="midnightblue" points="2048.44,-75.9217 2037.91,-74.7098 2045.39,-82.2209 2048.44,-75.9217"/>
</g>
<!-- Node25 -->
<g id="node63" class="node"><title>Node25</title>
<polygon fill="white" stroke="#bfbfbf" points="1478.86,-195.5 1478.86,-216.5 1513.86,-216.5 1513.86,-195.5 1478.86,-195.5"/>
<text text-anchor="middle" x="1496.36" y="-203.5" font-family="Helvetica,sans-Serif" font-size="10.00">map</text>
</g>
<!-- Node3&#45;&gt;Node25 -->
<g id="edge202" class="edge"><title>Node3&#45;&gt;Node25</title>
<path fill="none" stroke="midnightblue" d="M1357.38,-390.251C1371.18,-365.993 1406.74,-305.562 1443.36,-260 1453.72,-247.109 1466.71,-233.837 1477.24,-223.676"/>
<polygon fill="midnightblue" stroke="midnightblue" points="1479.88,-225.993 1484.72,-216.57 1475.06,-220.917 1479.88,-225.993"/>
</g>
<!-- Node3&#45;&gt;Node26 -->
<g id="edge82" class="edge"><title>Node3&#45;&gt;Node26</title>
<path fill="none" stroke="midnightblue" d="M1409.5,-391.227C1469.47,-381.145 1563,-365.419 1626.85,-354.686"/>
<polygon fill="midnightblue" stroke="midnightblue" points="1627.55,-358.118 1636.83,-353.008 1626.39,-351.214 1627.55,-358.118"/>
</g>
<!-- Node4&#45;&gt;Node5 -->
<g id="edge8" class="edge"><title>Node4&#45;&gt;Node5</title>
<path fill="none" stroke="midnightblue" d="M498.758,-200.88C374.491,-187.506 49.8293,-152.522 49.3607,-152 33.8715,-134.737 43.2912,-107.063 52.7261,-88.4687"/>
<polygon fill="midnightblue" stroke="midnightblue" points="55.8067,-90.1301 57.5295,-79.6763 49.6636,-86.7741 55.8067,-90.1301"/>
</g>
<!-- Node6 -->
<g id="node11" class="node"><title>Node6</title>
<polygon fill="white" stroke="#bfbfbf" points="117.361,-0.5 117.361,-21.5 179.361,-21.5 179.361,-0.5 117.361,-0.5"/>
<text text-anchor="middle" x="148.361" y="-8.5" font-family="Helvetica,sans-Serif" font-size="10.00">type_traits</text>
</g>
<!-- Node4&#45;&gt;Node6 -->
<g id="edge42" class="edge"><title>Node4&#45;&gt;Node6</title>
<path fill="none" stroke="midnightblue" d="M498.491,-203.818C378.712,-197.955 73.0691,-180.357 37.3607,-152 3.5068,-125.116 -12.7233,-93.2084 12.3607,-58 18.1322,-49.8989 69.3621,-33.6862 107.254,-22.5905"/>
<polygon fill="midnightblue" stroke="midnightblue" points="108.422,-25.896 117.05,-19.7479 106.471,-19.1733 108.422,-25.896"/>
</g>
<!-- Node8 -->
<g id="node15" class="node"><title>Node8</title>
<a xlink:href="vec3_8h.html" target="_top" xlink:title="base/vec/vec3.h">
<polygon fill="white" stroke="black" points="90.8607,-123.5 90.8607,-144.5 179.861,-144.5 179.861,-123.5 90.8607,-123.5"/>
<text text-anchor="middle" x="135.361" y="-131.5" font-family="Helvetica,sans-Serif" font-size="10.00">base/vec/vec3.h</text>
</a>
</g>
<!-- Node4&#45;&gt;Node8 -->
<g id="edge14" class="edge"><title>Node4&#45;&gt;Node8</title>
<path fill="none" stroke="midnightblue" d="M498.812,-197.67C422.013,-184.216 271.098,-157.779 189.994,-143.571"/>
<polygon fill="midnightblue" stroke="midnightblue" points="190.436,-140.095 179.982,-141.817 189.228,-146.99 190.436,-140.095"/>
</g>
<!-- Node11 -->
<g id="node23" class="node"><title>Node11</title>
<a xlink:href="math_8h.html" target="_top" xlink:title="base/std_ext/math.h">
<polygon fill="white" stroke="black" points="349.361,-123.5 349.361,-144.5 455.361,-144.5 455.361,-123.5 349.361,-123.5"/>
<text text-anchor="middle" x="402.361" y="-131.5" font-family="Helvetica,sans-Serif" font-size="10.00">base/std_ext/math.h</text>
</a>
</g>
<!-- Node4&#45;&gt;Node11 -->
<g id="edge24" class="edge"><title>Node4&#45;&gt;Node11</title>
<path fill="none" stroke="midnightblue" d="M525.113,-195.376C500.759,-183.199 460.642,-163.141 432.933,-149.286"/>
<polygon fill="midnightblue" stroke="midnightblue" points="434.205,-146.009 423.696,-144.667 431.075,-152.27 434.205,-146.009"/>
</g>
<!-- Node13 -->
<g id="node28" class="node"><title>Node13</title>
<polygon fill="white" stroke="#bfbfbf" points="780.361,-0.5 780.361,-21.5 824.361,-21.5 824.361,-0.5 780.361,-0.5"/>
<text text-anchor="middle" x="802.361" y="-8.5" font-family="Helvetica,sans-Serif" font-size="10.00">vector</text>
</g>
<!-- Node4&#45;&gt;Node13 -->
<g id="edge44" class="edge"><title>Node4&#45;&gt;Node13</title>
<path fill="none" stroke="midnightblue" d="M539.606,-195.414C529.394,-177.948 512.601,-142.401 526.361,-116 547.16,-76.0916 568.35,-76.5309 609.361,-58 662.905,-33.8056 730.666,-20.9975 770.003,-15.1364"/>
<polygon fill="midnightblue" stroke="midnightblue" points="770.669,-18.5768 780.073,-13.696 769.678,-11.6473 770.669,-18.5768"/>
</g>
<!-- Node15 -->
<g id="node32" class="node"><title>Node15</title>
<polygon fill="white" stroke="#bfbfbf" points="789.861,-58.5 789.861,-79.5 848.861,-79.5 848.861,-58.5 789.861,-58.5"/>
<text text-anchor="middle" x="819.361" y="-66.5" font-family="Helvetica,sans-Serif" font-size="10.00">stdexcept</text>
</g>
<!-- Node4&#45;&gt;Node15 -->
<g id="edge38" class="edge"><title>Node4&#45;&gt;Node15</title>
<path fill="none" stroke="midnightblue" d="M541.386,-195.351C533.551,-176.82 521.104,-138.475 540.361,-116 574.306,-76.3808 721.146,-89.9518 772.361,-80 774.844,-79.5174 777.395,-78.9957 779.964,-78.4508"/>
<polygon fill="midnightblue" stroke="midnightblue" points="780.839,-81.8419 789.849,-76.2678 779.33,-75.0065 780.839,-81.8419"/>
</g>
<!-- Node16 -->
<g id="node34" class="node"><title>Node16</title>
<polygon fill="white" stroke="#bfbfbf" points="549.361,-123.5 549.361,-144.5 595.361,-144.5 595.361,-123.5 549.361,-123.5"/>
<text text-anchor="middle" x="572.361" y="-131.5" font-family="Helvetica,sans-Serif" font-size="10.00">cstdint</text>
</g>
<!-- Node4&#45;&gt;Node16 -->
<g id="edge36" class="edge"><title>Node4&#45;&gt;Node16</title>
<path fill="none" stroke="midnightblue" d="M550.197,-195.376C554.076,-184.635 560.169,-167.761 564.986,-154.422"/>
<polygon fill="midnightblue" stroke="midnightblue" points="568.404,-155.262 568.509,-144.667 561.82,-152.884 568.404,-155.262"/>
</g>
<!-- Node4&#45;&gt;Node17 -->
<g id="edge40" class="edge"><title>Node4&#45;&gt;Node17</title>
<path fill="none" stroke="midnightblue" d="M594.06,-202.331C752.062,-190.177 1248.36,-152 1248.36,-152 1269.63,-142.565 1265.68,-126.659 1286.36,-116 1316.15,-100.645 1549.22,-63.0028 1582.36,-58 1735.52,-34.878 1920.3,-19.0721 1992.42,-13.3623"/>
<polygon fill="midnightblue" stroke="midnightblue" points="1992.92,-16.8339 2002.61,-12.5632 1992.37,-9.85529 1992.92,-16.8339"/>
</g>
<!-- Node5&#45;&gt;Node6 -->
<g id="edge10" class="edge"><title>Node5&#45;&gt;Node6</title>
<path fill="none" stroke="midnightblue" d="M79.7676,-58.3619C92.3189,-49.6955 110.253,-37.3126 124.635,-27.3819"/>
<polygon fill="midnightblue" stroke="midnightblue" points="126.811,-30.1327 133.051,-21.5707 122.834,-24.3725 126.811,-30.1327"/>
</g>
<!-- Node7 -->
<g id="node13" class="node"><title>Node7</title>
<polygon fill="white" stroke="#bfbfbf" points="38.3607,-0.5 38.3607,-21.5 90.3607,-21.5 90.3607,-0.5 38.3607,-0.5"/>
<text text-anchor="middle" x="64.3607" y="-8.5" font-family="Helvetica,sans-Serif" font-size="10.00">ostream</text>
</g>
<!-- Node5&#45;&gt;Node7 -->
<g id="edge12" class="edge"><title>Node5&#45;&gt;Node7</title>
<path fill="none" stroke="midnightblue" d="M64.3607,-58.3619C64.3607,-50.9219 64.3607,-40.7427 64.3607,-31.7276"/>
<polygon fill="midnightblue" stroke="midnightblue" points="67.8608,-31.5706 64.3607,-21.5707 60.8608,-31.5707 67.8608,-31.5706"/>
</g>
<!-- Node8&#45;&gt;Node5 -->
<g id="edge16" class="edge"><title>Node8&#45;&gt;Node5</title>
<path fill="none" stroke="midnightblue" d="M123.636,-123.267C112.677,-113.233 96.1228,-98.078 83.2915,-86.3311"/>
<polygon fill="midnightblue" stroke="midnightblue" points="85.606,-83.7047 75.8667,-79.5337 80.8792,-88.8678 85.606,-83.7047"/>
</g>
<!-- Node9 -->
<g id="node18" class="node"><title>Node9</title>
<a xlink:href="vec2_8h.html" target="_top" xlink:title="vec2.h">
<polygon fill="white" stroke="black" points="204.361,-58.5 204.361,-79.5 250.361,-79.5 250.361,-58.5 204.361,-58.5"/>
<text text-anchor="middle" x="227.361" y="-66.5" font-family="Helvetica,sans-Serif" font-size="10.00">vec2.h</text>
</a>
</g>
<!-- Node8&#45;&gt;Node9 -->
<g id="edge18" class="edge"><title>Node8&#45;&gt;Node9</title>
<path fill="none" stroke="midnightblue" d="M150.553,-123.267C165.155,-112.949 187.424,-97.216 204.23,-85.3421"/>
<polygon fill="midnightblue" stroke="midnightblue" points="206.304,-88.1626 212.451,-79.5337 202.265,-82.4455 206.304,-88.1626"/>
</g>
<!-- Node10 -->
<g id="node20" class="node"><title>Node10</title>
<polygon fill="white" stroke="#bfbfbf" points="249.361,-0.5 249.361,-21.5 293.361,-21.5 293.361,-0.5 249.361,-0.5"/>
<text text-anchor="middle" x="271.361" y="-8.5" font-family="Helvetica,sans-Serif" font-size="10.00">cmath</text>
</g>
<!-- Node8&#45;&gt;Node10 -->
<g id="edge22" class="edge"><title>Node8&#45;&gt;Node10</title>
<path fill="none" stroke="midnightblue" d="M141.945,-123.467C152.06,-107.857 172.65,-78.2498 195.361,-58 209.039,-45.8041 226.275,-34.8563 240.874,-26.6014"/>
<polygon fill="midnightblue" stroke="midnightblue" points="242.941,-29.4596 250.023,-21.5796 239.573,-23.3232 242.941,-29.4596"/>
</g>
<!-- Node9&#45;&gt;Node10 -->
<g id="edge20" class="edge"><title>Node9&#45;&gt;Node10</title>
<path fill="none" stroke="midnightblue" d="M235.431,-58.3619C241.509,-50.3496 249.998,-39.1605 257.198,-29.6696"/>
<polygon fill="midnightblue" stroke="midnightblue" points="260.086,-31.653 263.342,-21.5707 254.509,-27.4222 260.086,-31.653"/>
</g>
<!-- Node11&#45;&gt;Node10 -->
<g id="edge26" class="edge"><title>Node11&#45;&gt;Node10</title>
<path fill="none" stroke="midnightblue" d="M390.735,-123.085C368.052,-101.787 317.711,-54.5202 290.203,-28.6918"/>
<polygon fill="midnightblue" stroke="midnightblue" points="292.459,-26.0088 282.773,-21.7153 287.667,-31.1119 292.459,-26.0088"/>
</g>
<!-- Node12 -->
<g id="node26" class="node"><title>Node12</title>
<polygon fill="white" stroke="#bfbfbf" points="382.361,-58.5 382.361,-79.5 422.361,-79.5 422.361,-58.5 382.361,-58.5"/>
<text text-anchor="middle" x="402.361" y="-66.5" font-family="Helvetica,sans-Serif" font-size="10.00">limits</text>
</g>
<!-- Node11&#45;&gt;Node12 -->
<g id="edge28" class="edge"><title>Node11&#45;&gt;Node12</title>
<path fill="none" stroke="midnightblue" d="M402.361,-123.267C402.361,-114.18 402.361,-100.892 402.361,-89.7395"/>
<polygon fill="midnightblue" stroke="midnightblue" points="405.861,-89.5337 402.361,-79.5337 398.861,-89.5337 405.861,-89.5337"/>
</g>
<!-- Node11&#45;&gt;Node13 -->
<g id="edge30" class="edge"><title>Node11&#45;&gt;Node13</title>
<path fill="none" stroke="midnightblue" d="M409.012,-123.27C420.194,-106.259 444.495,-73.4486 474.361,-58 525.512,-31.5406 697.29,-17.7197 769.717,-12.9531"/>
<polygon fill="midnightblue" stroke="midnightblue" points="770.301,-16.423 780.056,-12.2901 769.853,-9.43731 770.301,-16.423"/>
</g>
<!-- Node14 -->
<g id="node30" class="node"><title>Node14</title>
<polygon fill="white" stroke="#bfbfbf" points="1268.36,-0.5 1268.36,-21.5 1324.36,-21.5 1324.36,-0.5 1268.36,-0.5"/>
<text text-anchor="middle" x="1296.36" y="-8.5" font-family="Helvetica,sans-Serif" font-size="10.00">algorithm</text>
</g>
<!-- Node11&#45;&gt;Node14 -->
<g id="edge32" class="edge"><title>Node11&#45;&gt;Node14</title>
<path fill="none" stroke="midnightblue" d="M428.916,-123.449C473.186,-106.381 565.23,-73.1053 646.361,-58 884.138,-13.7297 948.357,-42.3704 1189.36,-22 1212.18,-20.0714 1237.69,-17.4665 1258.07,-15.2757"/>
<polygon fill="midnightblue" stroke="midnightblue" points="1258.66,-18.7325 1268.23,-14.1736 1257.91,-11.7734 1258.66,-18.7325"/>
</g>
<!-- Node11&#45;&gt;Node15 -->
<g id="edge34" class="edge"><title>Node11&#45;&gt;Node15</title>
<path fill="none" stroke="midnightblue" d="M455.449,-124.53C472.053,-121.668 490.451,-118.597 507.361,-116 624.843,-97.9558 655.474,-101.567 772.361,-80 774.725,-79.5638 777.149,-79.0872 779.591,-78.5847"/>
<polygon fill="midnightblue" stroke="midnightblue" points="780.583,-81.951 789.614,-76.411 779.1,-75.11 780.583,-81.951"/>
</g>
<!-- Node18&#45;&gt;Node4 -->
<g id="edge48" class="edge"><title>Node18&#45;&gt;Node4</title>
<path fill="none" stroke="midnightblue" d="M1269.17,-272.38C1121.71,-258.838 748.295,-224.545 604.263,-211.318"/>
<polygon fill="midnightblue" stroke="midnightblue" points="604.573,-207.831 594.295,-210.402 603.933,-214.802 604.573,-207.831"/>
</g>
<!-- Node19 -->
<g id="node44" class="node"><title>Node19</title>
<a xlink:href="mapped__vectors_8h.html" target="_top" xlink:title="base/std_ext/mapped\l_vectors.h">
<polygon fill="white" stroke="black" points="1275.36,-189 1275.36,-223 1385.36,-223 1385.36,-189 1275.36,-189"/>
<text text-anchor="start" x="1283.36" y="-210" font-family="Helvetica,sans-Serif" font-size="10.00">base/std_ext/mapped</text>
<text text-anchor="middle" x="1330.36" y="-197" font-family="Helvetica,sans-Serif" font-size="10.00">_vectors.h</text>
</a>
</g>
<!-- Node18&#45;&gt;Node19 -->
<g id="edge50" class="edge"><title>Node18&#45;&gt;Node19</title>
<path fill="none" stroke="midnightblue" d="M1330.36,-260.937C1330.36,-252.807 1330.36,-242.876 1330.36,-233.705"/>
<polygon fill="midnightblue" stroke="midnightblue" points="1333.86,-233.441 1330.36,-223.441 1326.86,-233.441 1333.86,-233.441"/>
</g>
<!-- Node18&#45;&gt;Node21 -->
<g id="edge74" class="edge"><title>Node18&#45;&gt;Node21</title>
<path fill="none" stroke="midnightblue" d="M1350.71,-260.823C1381.42,-234.912 1436.18,-188.743 1437.36,-188 1470.37,-167.253 1484.28,-172.638 1517.36,-152 1533.88,-141.691 1573.6,-107.538 1597.71,-86.3896"/>
<polygon fill="midnightblue" stroke="midnightblue" points="1600.33,-88.7461 1605.53,-79.512 1595.71,-83.4913 1600.33,-88.7461"/>
</g>
<!-- Node18&#45;&gt;Node22 -->
<g id="edge78" class="edge"><title>Node18&#45;&gt;Node22</title>
<path fill="none" stroke="midnightblue" d="M1366.75,-260.977C1386.28,-251.205 1410.36,-238.095 1430.36,-224 1449.91,-210.221 1448.42,-197.524 1470.36,-188 1640.59,-114.099 1709.94,-209.586 1886.36,-152 1931.25,-137.347 1976.87,-105.615 2002.49,-85.9086"/>
<polygon fill="midnightblue" stroke="midnightblue" points="2004.67,-88.6485 2010.39,-79.7284 2000.36,-83.1364 2004.67,-88.6485"/>
</g>
<!-- Node23 -->
<g id="node55" class="node"><title>Node23</title>
<a xlink:href="shared__ptr__container_8h.html" target="_top" xlink:title="base/std_ext/shared\l_ptr_container.h">
<polygon fill="white" stroke="black" points="1294.86,-117 1294.86,-151 1399.86,-151 1399.86,-117 1294.86,-117"/>
<text text-anchor="start" x="1302.86" y="-138" font-family="Helvetica,sans-Serif" font-size="10.00">base/std_ext/shared</text>
<text text-anchor="middle" x="1347.36" y="-125" font-family="Helvetica,sans-Serif" font-size="10.00">_ptr_container.h</text>
</a>
</g>
<!-- Node18&#45;&gt;Node23 -->
<g id="edge64" class="edge"><title>Node18&#45;&gt;Node23</title>
<path fill="none" stroke="midnightblue" d="M1300.25,-260.936C1287.27,-251.815 1273.47,-239.294 1266.36,-224 1259.62,-209.49 1258.81,-202.107 1266.36,-188 1273.36,-174.924 1285.08,-164.468 1297.46,-156.371"/>
<polygon fill="midnightblue" stroke="midnightblue" points="1299.35,-159.318 1306.08,-151.14 1295.72,-153.333 1299.35,-159.318"/>
</g>
<!-- Node18&#45;&gt;Node24 -->
<g id="edge80" class="edge"><title>Node18&#45;&gt;Node24</title>
<path fill="none" stroke="midnightblue" d="M1391.6,-274.603C1572.56,-263.959 2120.16,-227.38 2568.36,-152 2705.71,-128.9 2775.75,-179.358 2873.36,-80 2885.74,-67.4037 2888.93,-47.1382 2889.36,-31.8214"/>
<polygon fill="midnightblue" stroke="midnightblue" points="2892.86,-31.6939 2889.28,-21.7235 2885.86,-31.7523 2892.86,-31.6939"/>
</g>
<!-- Node18&#45;&gt;Node25 -->
<g id="edge76" class="edge"><title>Node18&#45;&gt;Node25</title>
<path fill="none" stroke="midnightblue" d="M1377.95,-260.906C1404.14,-251.017 1436.99,-237.818 1465.36,-224 1466.94,-223.232 1468.54,-222.415 1470.15,-221.568"/>
<polygon fill="midnightblue" stroke="midnightblue" points="1472.17,-224.452 1479.22,-216.545 1468.78,-218.328 1472.17,-224.452"/>
</g>
<!-- Node19&#45;&gt;Node6 -->
<g id="edge62" class="edge"><title>Node19&#45;&gt;Node6</title>
<path fill="none" stroke="midnightblue" d="M1275.27,-203.578C1070.17,-194.487 361.491,-162.391 340.361,-152 290.872,-127.664 303.921,-90.4924 259.361,-58 238.245,-42.6031 211.318,-31.044 189.273,-23.242"/>
<polygon fill="midnightblue" stroke="midnightblue" points="190.121,-19.8334 179.527,-19.9215 187.864,-26.4594 190.121,-19.8334"/>
</g>
<!-- Node19&#45;&gt;Node13 -->
<g id="edge58" class="edge"><title>Node19&#45;&gt;Node13</title>
<path fill="none" stroke="midnightblue" d="M1275.01,-198.927C1230.54,-191.641 1167.46,-177.617 1117.36,-152 1095.17,-140.653 1093.97,-131.383 1074.36,-116 1040.09,-89.1168 1034.84,-76.3986 995.361,-58 941.959,-33.1146 873.882,-20.5122 834.497,-14.8815"/>
<polygon fill="midnightblue" stroke="midnightblue" points="834.803,-11.3908 824.421,-13.5044 833.855,-18.3263 834.803,-11.3908"/>
</g>
<!-- Node20 -->
<g id="node46" class="node"><title>Node20</title>
<a xlink:href="memory_8h.html" target="_top" xlink:title="base/std_ext/memory.h">
<polygon fill="white" stroke="black" points="1758.86,-123.5 1758.86,-144.5 1877.86,-144.5 1877.86,-123.5 1758.86,-123.5"/>
<text text-anchor="middle" x="1818.36" y="-131.5" font-family="Helvetica,sans-Serif" font-size="10.00">base/std_ext/memory.h</text>
</a>
</g>
<!-- Node19&#45;&gt;Node20 -->
<g id="edge52" class="edge"><title>Node19&#45;&gt;Node20</title>
<path fill="none" stroke="midnightblue" d="M1385.58,-196.431C1402.21,-193.625 1420.51,-190.61 1437.36,-188 1545.88,-171.185 1672.11,-153.701 1748.58,-143.339"/>
<polygon fill="midnightblue" stroke="midnightblue" points="1749.13,-146.797 1758.57,-141.988 1748.19,-139.86 1749.13,-146.797"/>
</g>
<!-- Node19&#45;&gt;Node21 -->
<g id="edge60" class="edge"><title>Node19&#45;&gt;Node21</title>
<path fill="none" stroke="midnightblue" d="M1385.47,-190.338C1414.32,-181.082 1449.71,-168.029 1479.36,-152 1502.82,-139.318 1504.8,-130.219 1527.36,-116 1545.98,-104.263 1567.85,-92.7932 1585.37,-84.1226"/>
<polygon fill="midnightblue" stroke="midnightblue" points="1587.16,-87.1446 1594.61,-79.6097 1584.08,-80.8552 1587.16,-87.1446"/>
</g>
<!-- Node20&#45;&gt;Node21 -->
<g id="edge54" class="edge"><title>Node20&#45;&gt;Node21</title>
<path fill="none" stroke="midnightblue" d="M1785.62,-123.412C1749.16,-111.623 1690.44,-92.6335 1652.89,-80.4911"/>
<polygon fill="midnightblue" stroke="midnightblue" points="1653.96,-77.1567 1643.37,-77.4099 1651.8,-83.8171 1653.96,-77.1567"/>
</g>
<!-- Node20&#45;&gt;Node22 -->
<g id="edge56" class="edge"><title>Node20&#45;&gt;Node22</title>
<path fill="none" stroke="midnightblue" d="M1851.75,-123.412C1893.06,-110.315 1962.39,-88.3327 1999,-76.7227"/>
<polygon fill="midnightblue" stroke="midnightblue" points="2000.36,-79.9651 2008.83,-73.6063 1998.24,-73.2925 2000.36,-79.9651"/>
</g>
<!-- Node23&#45;&gt;Node13 -->
<g id="edge66" class="edge"><title>Node23&#45;&gt;Node13</title>
<path fill="none" stroke="midnightblue" d="M1294.64,-119.467C1215.84,-97.7577 1075.94,-59.252 1070.36,-58 985.804,-39.0299 884.811,-23.1124 834.36,-15.614"/>
<polygon fill="midnightblue" stroke="midnightblue" points="834.789,-12.1395 824.385,-14.1436 833.768,-19.0647 834.789,-12.1395"/>
</g>
<!-- Node23&#45;&gt;Node14 -->
<g id="edge72" class="edge"><title>Node23&#45;&gt;Node14</title>
<path fill="none" stroke="midnightblue" d="M1400.11,-117.045C1432.94,-103.593 1465.72,-82.9374 1447.36,-58 1433.89,-39.6931 1374.67,-25.405 1334.52,-17.5961"/>
<polygon fill="midnightblue" stroke="midnightblue" points="1334.99,-14.1226 1324.51,-15.7057 1333.69,-21.001 1334.99,-14.1226"/>
</g>
<!-- Node23&#45;&gt;Node21 -->
<g id="edge68" class="edge"><title>Node23&#45;&gt;Node21</title>
<path fill="none" stroke="midnightblue" d="M1399.91,-119.466C1404.45,-118.271 1408.98,-117.101 1413.36,-116 1471.89,-101.283 1540.31,-85.8845 1581.18,-76.8798"/>
<polygon fill="midnightblue" stroke="midnightblue" points="1582.18,-80.2429 1591.2,-74.6783 1580.68,-73.4059 1582.18,-80.2429"/>
</g>
<!-- Node23&#45;&gt;Node24 -->
<g id="edge70" class="edge"><title>Node23&#45;&gt;Node24</title>
<path fill="none" stroke="midnightblue" d="M1400.14,-131.433C1597.64,-121.784 2284.23,-87.8386 2330.36,-80 2365.03,-74.1088 2371.83,-64.6234 2406.36,-58 2568.53,-26.8985 2765.55,-15.8556 2848.51,-12.3992"/>
<polygon fill="midnightblue" stroke="midnightblue" points="2848.9,-15.8866 2858.75,-11.9874 2848.62,-8.89222 2848.9,-15.8866"/>
</g>
<!-- Node26&#45;&gt;Node13 -->
<g id="edge194" class="edge"><title>Node26&#45;&gt;Node13</title>
<path fill="none" stroke="midnightblue" d="M1636.49,-339.489C1533.91,-332.984 1328.95,-317.714 1260.36,-296 1134.43,-256.133 1106.93,-230.045 1000.36,-152 981.591,-138.255 980.602,-130.439 962.361,-116 918.258,-81.0908 862.517,-46.4352 829.815,-26.9635"/>
<polygon fill="midnightblue" stroke="midnightblue" points="831.228,-23.7324 820.838,-21.6554 827.665,-29.7579 831.228,-23.7324"/>
</g>
<!-- Node26&#45;&gt;Node18 -->
<g id="edge84" class="edge"><title>Node26&#45;&gt;Node18</title>
<path fill="none" stroke="midnightblue" d="M1637.15,-332.484C1572.84,-321.063 1470.13,-302.823 1401.49,-290.633"/>
<polygon fill="midnightblue" stroke="midnightblue" points="1402.08,-287.183 1391.62,-288.88 1400.86,-294.075 1402.08,-287.183"/>
</g>
<!-- Node27 -->
<g id="node70" class="node"><title>Node27</title>
<a xlink:href="_manager__traits_8h.html" target="_top" xlink:title="calibration/gui/Manager\l_traits.h">
<polygon fill="white" stroke="black" points="1906.86,-261 1906.86,-295 2023.86,-295 2023.86,-261 1906.86,-261"/>
<text text-anchor="start" x="1914.86" y="-282" font-family="Helvetica,sans-Serif" font-size="10.00">calibration/gui/Manager</text>
<text text-anchor="middle" x="1965.36" y="-269" font-family="Helvetica,sans-Serif" font-size="10.00">_traits.h</text>
</a>
</g>
<!-- Node26&#45;&gt;Node27 -->
<g id="edge86" class="edge"><title>Node26&#45;&gt;Node27</title>
<path fill="none" stroke="midnightblue" d="M1739.88,-332.484C1782.31,-322.232 1847.48,-306.485 1896.86,-294.551"/>
<polygon fill="midnightblue" stroke="midnightblue" points="1897.93,-297.893 1906.83,-292.142 1896.29,-291.089 1897.93,-297.893"/>
</g>
<!-- Node26&#45;&gt;Node50 -->
<g id="edge182" class="edge"><title>Node26&#45;&gt;Node50</title>
<path fill="none" stroke="midnightblue" d="M1707.26,-332.267C1717.35,-322.328 1732.55,-307.363 1744.42,-295.664"/>
<polygon fill="midnightblue" stroke="midnightblue" points="1747,-298.044 1751.66,-288.534 1742.08,-293.057 1747,-298.044"/>
</g>
<!-- Node27&#45;&gt;Node17 -->
<g id="edge176" class="edge"><title>Node27&#45;&gt;Node17</title>
<path fill="none" stroke="midnightblue" d="M1966.36,-260.767C1968.91,-223.15 1977.2,-131.193 2000.36,-58 2003.32,-48.6622 2007.86,-38.8535 2012.13,-30.6267"/>
<polygon fill="midnightblue" stroke="midnightblue" points="2015.22,-32.2777 2016.91,-21.8188 2009.07,-28.9399 2015.22,-32.2777"/>
</g>
<!-- Node27&#45;&gt;Node21 -->
<g id="edge180" class="edge"><title>Node27&#45;&gt;Node21</title>
<path fill="none" stroke="midnightblue" d="M1962.29,-260.779C1955.33,-227.094 1934.99,-152.591 1886.36,-116 1850.21,-88.7975 1718.42,-76.0311 1653.71,-71.2962"/>
<polygon fill="midnightblue" stroke="midnightblue" points="1653.78,-67.7922 1643.56,-70.5789 1653.28,-74.7748 1653.78,-67.7922"/>
</g>
<!-- Node27&#45;&gt;Node22 -->
<g id="edge178" class="edge"><title>Node27&#45;&gt;Node22</title>
<path fill="none" stroke="midnightblue" d="M1987.55,-260.889C2013.8,-239.014 2055.9,-198.374 2071.36,-152 2076.42,-136.821 2077.56,-130.75 2071.36,-116 2066.13,-103.569 2055.84,-92.7788 2046.12,-84.6838"/>
<polygon fill="midnightblue" stroke="midnightblue" points="2048.25,-81.9124 2038.21,-78.5409 2043.96,-87.4401 2048.25,-81.9124"/>
</g>
<!-- Node28 -->
<g id="node72" class="node"><title>Node28</title>
<a xlink:href="interval_8h.html" target="_top" xlink:title="base/interval.h">
<polygon fill="white" stroke="black" points="1159.36,-123.5 1159.36,-144.5 1239.36,-144.5 1239.36,-123.5 1159.36,-123.5"/>
<text text-anchor="middle" x="1199.36" y="-131.5" font-family="Helvetica,sans-Serif" font-size="10.00">base/interval.h</text>
</a>
</g>
<!-- Node27&#45;&gt;Node28 -->
<g id="edge88" class="edge"><title>Node27&#45;&gt;Node28</title>
<path fill="none" stroke="midnightblue" d="M1919.69,-260.965C1862.17,-240.242 1759.87,-205.825 1669.36,-188 1501.61,-154.964 1455.44,-177.359 1286.36,-152 1274.32,-150.195 1261.44,-147.792 1249.38,-145.332"/>
<polygon fill="midnightblue" stroke="midnightblue" points="1249.98,-141.882 1239.48,-143.264 1248.55,-148.735 1249.98,-141.882"/>
</g>
<!-- Node31 -->
<g id="node82" class="node"><title>Node31</title>
<a xlink:href="_wrap_t_file_8h.html" target="_top" xlink:title="base/WrapTFile.h">
<polygon fill="white" stroke="black" points="2465.36,-123.5 2465.36,-144.5 2559.36,-144.5 2559.36,-123.5 2465.36,-123.5"/>
<text text-anchor="middle" x="2512.36" y="-131.5" font-family="Helvetica,sans-Serif" font-size="10.00">base/WrapTFile.h</text>
</a>
</g>
<!-- Node27&#45;&gt;Node31 -->
<g id="edge102" class="edge"><title>Node27&#45;&gt;Node31</title>
<path fill="none" stroke="midnightblue" d="M2023.9,-262.589C2132.06,-234.117 2361.37,-173.748 2462.58,-147.105"/>
<polygon fill="midnightblue" stroke="midnightblue" points="2463.48,-150.488 2472.26,-144.558 2461.69,-143.719 2463.48,-150.488"/>
</g>
<!-- Node27&#45;&gt;Node43 -->
<g id="edge148" class="edge"><title>Node27&#45;&gt;Node43</title>
<path fill="none" stroke="midnightblue" d="M1906.55,-269.756C1880.23,-266.31 1848.79,-262.528 1820.36,-260 1629.1,-242.991 1023.87,-215.185 860.398,-207.831"/>
<polygon fill="midnightblue" stroke="midnightblue" points="860.425,-204.329 850.278,-207.377 860.111,-211.322 860.425,-204.329"/>
</g>
<!-- Node28&#45;&gt;Node5 -->
<g id="edge90" class="edge"><title>Node28&#45;&gt;Node5</title>
<path fill="none" stroke="midnightblue" d="M1159.23,-127.158C1134.78,-123.254 1102.85,-118.628 1074.36,-116 685.019,-80.0891 585.595,-104.364 195.361,-80 169.764,-78.4019 141.398,-76.0873 117.626,-73.9932"/>
<polygon fill="midnightblue" stroke="midnightblue" points="117.669,-70.4833 107.398,-73.081 117.047,-77.4556 117.669,-70.4833"/>
</g>
<!-- Node28&#45;&gt;Node12 -->
<g id="edge98" class="edge"><title>Node28&#45;&gt;Node12</title>
<path fill="none" stroke="midnightblue" d="M1159.2,-127.455C1134.74,-123.657 1102.81,-119.039 1074.36,-116 827.177,-89.5945 527.188,-74.6361 432.493,-70.3198"/>
<polygon fill="midnightblue" stroke="midnightblue" points="432.621,-66.8221 422.474,-69.8681 432.306,-73.815 432.621,-66.8221"/>
</g>
<!-- Node28&#45;&gt;Node14 -->
<g id="edge94" class="edge"><title>Node28&#45;&gt;Node14</title>
<path fill="none" stroke="midnightblue" d="M1222.84,-123.333C1240.35,-114.216 1263.54,-99.4787 1277.36,-80 1287.44,-65.7867 1292.18,-46.4372 1294.4,-31.8453"/>
<polygon fill="midnightblue" stroke="midnightblue" points="1297.89,-32.1345 1295.66,-21.778 1290.95,-31.2673 1297.89,-32.1345"/>
</g>
<!-- Node28&#45;&gt;Node15 -->
<g id="edge96" class="edge"><title>Node28&#45;&gt;Node15</title>
<path fill="none" stroke="midnightblue" d="M1159.05,-127.105C1085.87,-114.587 931.98,-88.2639 859.165,-75.8086"/>
<polygon fill="midnightblue" stroke="midnightblue" points="859.476,-72.3111 849.029,-74.0748 858.296,-79.2109 859.476,-72.3111"/>
</g>
<!-- Node29 -->
<g id="node75" class="node"><title>Node29</title>
<a xlink:href="types_8h.html" target="_top" xlink:title="types.h">
<polygon fill="white" stroke="black" points="1323.86,-58.5 1323.86,-79.5 1372.86,-79.5 1372.86,-58.5 1323.86,-58.5"/>
<text text-anchor="middle" x="1348.36" y="-66.5" font-family="Helvetica,sans-Serif" font-size="10.00">types.h</text>
</a>
</g>
<!-- Node28&#45;&gt;Node29 -->
<g id="edge92" class="edge"><title>Node28&#45;&gt;Node29</title>
<path fill="none" stroke="midnightblue" d="M1223.63,-123.412C1248.42,-112.6 1287.09,-95.7308 1314.8,-83.6422"/>
<polygon fill="midnightblue" stroke="midnightblue" points="1316.33,-86.7901 1324.1,-79.5835 1313.53,-80.374 1316.33,-86.7901"/>
</g>
<!-- Node30 -->
<g id="node80" class="node"><title>Node30</title>
<polygon fill="white" stroke="#bfbfbf" points="1389.86,-58.5 1389.86,-79.5 1438.86,-79.5 1438.86,-58.5 1389.86,-58.5"/>
<text text-anchor="middle" x="1414.36" y="-66.5" font-family="Helvetica,sans-Serif" font-size="10.00">istream</text>
</g>
<!-- Node28&#45;&gt;Node30 -->
<g id="edge100" class="edge"><title>Node28&#45;&gt;Node30</title>
<path fill="none" stroke="midnightblue" d="M1230.12,-123.466C1237.7,-120.949 1245.8,-118.321 1253.36,-116 1306.87,-99.5661 1323.17,-97.5308 1379.71,-80.4189"/>
<polygon fill="midnightblue" stroke="midnightblue" points="1380.99,-83.685 1389.54,-77.4158 1378.95,-76.9905 1380.99,-83.685"/>
</g>
<!-- Node31&#45;&gt;Node15 -->
<g id="edge144" class="edge"><title>Node31&#45;&gt;Node15</title>
<path fill="none" stroke="midnightblue" d="M2465.31,-132.194C2219.68,-122.763 1087.07,-79.2782 859.319,-70.5341"/>
<polygon fill="midnightblue" stroke="midnightblue" points="859.292,-67.0306 849.165,-70.1443 859.024,-74.0255 859.292,-67.0306"/>
</g>
<!-- Node31&#45;&gt;Node17 -->
<g id="edge138" class="edge"><title>Node31&#45;&gt;Node17</title>
<path fill="none" stroke="midnightblue" d="M2491.66,-123.388C2458.5,-106.842 2391.02,-75.0324 2330.36,-58 2231.6,-30.2698 2110.09,-17.7986 2054.18,-13.2213"/>
<polygon fill="midnightblue" stroke="midnightblue" points="2054.45,-9.73225 2044.21,-12.4327 2053.9,-16.7104 2054.45,-9.73225"/>
</g>
<!-- Node31&#45;&gt;Node21 -->
<g id="edge136" class="edge"><title>Node31&#45;&gt;Node21</title>
<path fill="none" stroke="midnightblue" d="M2465.19,-130.574C2306.72,-119.065 1795.48,-81.9361 1653.97,-71.6586"/>
<polygon fill="midnightblue" stroke="midnightblue" points="1653.9,-68.1445 1643.67,-70.9109 1653.39,-75.1262 1653.9,-68.1445"/>
</g>
<!-- Node31&#45;&gt;Node22 -->
<g id="edge140" class="edge"><title>Node31&#45;&gt;Node22</title>
<path fill="none" stroke="midnightblue" d="M2465.14,-127.706C2438.73,-124.209 2405.23,-119.809 2375.36,-116 2246.09,-99.5117 2213.2,-99.5711 2084.36,-80 2072.27,-78.163 2058.89,-75.7885 2047.75,-73.7162"/>
<polygon fill="midnightblue" stroke="midnightblue" points="2048.34,-70.267 2037.87,-71.8492 2047.04,-77.1453 2048.34,-70.267"/>
</g>
<!-- Node31&#45;&gt;Node24 -->
<g id="edge146" class="edge"><title>Node31&#45;&gt;Node24</title>
<path fill="none" stroke="midnightblue" d="M2559.46,-127.587C2649.57,-115.164 2838.54,-88.311 2850.36,-80 2866.81,-68.4307 2876.9,-47.3831 2882.51,-31.5651"/>
<polygon fill="midnightblue" stroke="midnightblue" points="2885.98,-32.2216 2885.7,-21.6304 2879.31,-30.0815 2885.98,-32.2216"/>
</g>
<!-- Node32 -->
<g id="node84" class="node"><title>Node32</title>
<a xlink:href="string_8h.html" target="_top" xlink:title="base/std_ext/string.h">
<polygon fill="white" stroke="black" points="1160.36,-58.5 1160.36,-79.5 1268.36,-79.5 1268.36,-58.5 1160.36,-58.5"/>
<text text-anchor="middle" x="1214.36" y="-66.5" font-family="Helvetica,sans-Serif" font-size="10.00">base/std_ext/string.h</text>
</a>
</g>
<!-- Node31&#45;&gt;Node32 -->
<g id="edge104" class="edge"><title>Node31&#45;&gt;Node32</title>
<path fill="none" stroke="midnightblue" d="M2465.24,-132.948C2304.38,-129.129 1762.07,-114.367 1315.36,-80 1303.48,-79.0857 1290.83,-77.8875 1278.65,-76.6192"/>
<polygon fill="midnightblue" stroke="midnightblue" points="1278.87,-73.1229 1268.55,-75.5419 1278.13,-80.0834 1278.87,-73.1229"/>
</g>
<!-- Node34 -->
<g id="node91" class="node"><title>Node34</title>
<a xlink:href="misc_8h.html" target="_top" xlink:title="base/std_ext/misc.h">
<polygon fill="white" stroke="black" points="2216.86,-58.5 2216.86,-79.5 2321.86,-79.5 2321.86,-58.5 2216.86,-58.5"/>
<text text-anchor="middle" x="2269.36" y="-66.5" font-family="Helvetica,sans-Serif" font-size="10.00">base/std_ext/misc.h</text>
</a>
</g>
<!-- Node31&#45;&gt;Node34 -->
<g id="edge114" class="edge"><title>Node31&#45;&gt;Node34</title>
<path fill="none" stroke="midnightblue" d="M2477.26,-123.419C2468.8,-120.93 2459.77,-118.325 2451.36,-116 2407.8,-103.953 2358.11,-91.1869 2321.67,-82.0043"/>
<polygon fill="midnightblue" stroke="midnightblue" points="2322.31,-78.5564 2311.76,-79.5129 2320.61,-85.3452 2322.31,-78.5564"/>
</g>
<!-- Node36 -->
<g id="node98" class="node"><title>Node36</title>
<polygon fill="white" stroke="#bfbfbf" points="2414.86,-58.5 2414.86,-79.5 2461.86,-79.5 2461.86,-58.5 2414.86,-58.5"/>
<text text-anchor="middle" x="2438.36" y="-66.5" font-family="Helvetica,sans-Serif" font-size="10.00">TFile.h</text>
</g>
<!-- Node31&#45;&gt;Node36 -->
<g id="edge124" class="edge"><title>Node31&#45;&gt;Node36</title>
<path fill="none" stroke="midnightblue" d="M2500.14,-123.267C2488.72,-113.233 2471.46,-98.078 2458.09,-86.3311"/>
<polygon fill="midnightblue" stroke="midnightblue" points="2460.18,-83.5035 2450.35,-79.5337 2455.56,-88.7628 2460.18,-83.5035"/>
</g>
<!-- Node37 -->
<g id="node100" class="node"><title>Node37</title>
<polygon fill="white" stroke="#bfbfbf" points="2478.86,-58.5 2478.86,-79.5 2549.86,-79.5 2549.86,-58.5 2478.86,-58.5"/>
<text text-anchor="middle" x="2514.36" y="-66.5" font-family="Helvetica,sans-Serif" font-size="10.00">TDirectory.h</text>
</g>
<!-- Node31&#45;&gt;Node37 -->
<g id="edge126" class="edge"><title>Node31&#45;&gt;Node37</title>
<path fill="none" stroke="midnightblue" d="M2512.69,-123.267C2512.97,-114.18 2513.38,-100.892 2513.72,-89.7395"/>
<polygon fill="midnightblue" stroke="midnightblue" points="2517.23,-89.6366 2514.04,-79.5337 2510.23,-89.4213 2517.23,-89.6366"/>
</g>
<!-- Node38 -->
<g id="node102" class="node"><title>Node38</title>
<polygon fill="white" stroke="#bfbfbf" points="2567.36,-58.5 2567.36,-79.5 2619.36,-79.5 2619.36,-58.5 2567.36,-58.5"/>
<text text-anchor="middle" x="2593.36" y="-66.5" font-family="Helvetica,sans-Serif" font-size="10.00">TError.h</text>
</g>
<!-- Node31&#45;&gt;Node38 -->
<g id="edge128" class="edge"><title>Node31&#45;&gt;Node38</title>
<path fill="none" stroke="midnightblue" d="M2525.74,-123.267C2538.36,-113.139 2557.48,-97.7916 2572.18,-85.9995"/>
<polygon fill="midnightblue" stroke="midnightblue" points="2574.63,-88.5222 2580.23,-79.5337 2570.24,-83.0627 2574.63,-88.5222"/>
</g>
<!-- Node39 -->
<g id="node104" class="node"><title>Node39</title>
<polygon fill="white" stroke="#bfbfbf" points="2636.86,-58.5 2636.86,-79.5 2683.86,-79.5 2683.86,-58.5 2636.86,-58.5"/>
<text text-anchor="middle" x="2660.36" y="-66.5" font-family="Helvetica,sans-Serif" font-size="10.00">TList.h</text>
</g>
<!-- Node31&#45;&gt;Node39 -->
<g id="edge130" class="edge"><title>Node31&#45;&gt;Node39</title>
<path fill="none" stroke="midnightblue" d="M2536.47,-123.412C2561.23,-112.535 2599.95,-95.5297 2627.51,-83.4269"/>
<polygon fill="midnightblue" stroke="midnightblue" points="2629,-86.5943 2636.75,-79.3685 2626.19,-80.1852 2629,-86.5943"/>
</g>
<!-- Node40 -->
<g id="node106" class="node"><title>Node40</title>
<polygon fill="white" stroke="#bfbfbf" points="2701.36,-58.5 2701.36,-79.5 2775.36,-79.5 2775.36,-58.5 2701.36,-58.5"/>
<text text-anchor="middle" x="2738.36" y="-66.5" font-family="Helvetica,sans-Serif" font-size="10.00">TCollection.h</text>
</g>
<!-- Node31&#45;&gt;Node40 -->
<g id="edge132" class="edge"><title>Node31&#45;&gt;Node40</title>
<path fill="none" stroke="midnightblue" d="M2548.92,-123.484C2587.9,-112.274 2649.71,-94.4955 2692.06,-82.3156"/>
<polygon fill="midnightblue" stroke="midnightblue" points="2693.21,-85.6283 2701.85,-79.5005 2691.27,-78.901 2693.21,-85.6283"/>
</g>
<!-- Node41 -->
<g id="node108" class="node"><title>Node41</title>
<polygon fill="white" stroke="#bfbfbf" points="2793.36,-58.5 2793.36,-79.5 2841.36,-79.5 2841.36,-58.5 2793.36,-58.5"/>
<text text-anchor="middle" x="2817.36" y="-66.5" font-family="Helvetica,sans-Serif" font-size="10.00">TKey.h</text>
</g>
<!-- Node31&#45;&gt;Node41 -->
<g id="edge134" class="edge"><title>Node31&#45;&gt;Node41</title>
<path fill="none" stroke="midnightblue" d="M2559.46,-126.502C2611.99,-117.728 2699.6,-101.875 2783.62,-79.9639"/>
<polygon fill="midnightblue" stroke="midnightblue" points="2784.54,-83.3407 2793.32,-77.4035 2782.75,-76.5727 2784.54,-83.3407"/>
</g>
<!-- Node42 -->
<g id="node113" class="node"><title>Node42</title>
<polygon fill="white" stroke="#bfbfbf" points="2093.36,-58.5 2093.36,-79.5 2123.36,-79.5 2123.36,-58.5 2093.36,-58.5"/>
<text text-anchor="middle" x="2108.36" y="-66.5" font-family="Helvetica,sans-Serif" font-size="10.00">set</text>
</g>
<!-- Node31&#45;&gt;Node42 -->
<g id="edge142" class="edge"><title>Node31&#45;&gt;Node42</title>
<path fill="none" stroke="midnightblue" d="M2465.23,-126.416C2379.26,-112.585 2199.77,-83.7076 2133.58,-73.0579"/>
<polygon fill="midnightblue" stroke="midnightblue" points="2134.05,-69.5876 2123.62,-71.4546 2132.93,-76.4987 2134.05,-69.5876"/>
</g>
<!-- Node32&#45;&gt;Node13 -->
<g id="edge112" class="edge"><title>Node32&#45;&gt;Node13</title>
<path fill="none" stroke="midnightblue" d="M1160.19,-60.1138C1155.51,-59.3843 1150.86,-58.6705 1146.36,-58 1031.91,-40.9272 895.665,-23.0298 834.674,-15.1454"/>
<polygon fill="midnightblue" stroke="midnightblue" points="834.888,-11.6441 824.522,-13.8359 833.992,-18.5866 834.888,-11.6441"/>
</g>
<!-- Node32&#45;&gt;Node14 -->
<g id="edge110" class="edge"><title>Node32&#45;&gt;Node14</title>
<path fill="none" stroke="midnightblue" d="M1229.4,-58.3619C1241.65,-49.6955 1259.16,-37.3126 1273.2,-27.3819"/>
<polygon fill="midnightblue" stroke="midnightblue" points="1275.27,-30.2028 1281.42,-21.5707 1271.23,-24.4879 1275.27,-30.2028"/>
</g>
<!-- Node32&#45;&gt;Node17 -->
<g id="edge106" class="edge"><title>Node32&#45;&gt;Node17</title>
<path fill="none" stroke="midnightblue" d="M1268.57,-62.6701C1283.7,-61.0191 1300.16,-59.3316 1315.36,-58 1577.06,-35.0728 1894.06,-17.7286 1992.62,-12.5758"/>
<polygon fill="midnightblue" stroke="midnightblue" points="1992.97,-16.0627 2002.77,-12.0481 1992.61,-9.07217 1992.97,-16.0627"/>
</g>
<!-- Node33 -->
<g id="node87" class="node"><title>Node33</title>
<polygon fill="white" stroke="#bfbfbf" points="1128.36,-0.5 1128.36,-21.5 1180.36,-21.5 1180.36,-0.5 1128.36,-0.5"/>
<text text-anchor="middle" x="1154.36" y="-8.5" font-family="Helvetica,sans-Serif" font-size="10.00">sstream</text>
</g>
<!-- Node32&#45;&gt;Node33 -->
<g id="edge108" class="edge"><title>Node32&#45;&gt;Node33</title>
<path fill="none" stroke="midnightblue" d="M1203.36,-58.3619C1194.81,-50.1043 1182.78,-38.4725 1172.78,-28.8029"/>
<polygon fill="midnightblue" stroke="midnightblue" points="1174.92,-26.0044 1165.3,-21.5707 1170.05,-31.0374 1174.92,-26.0044"/>
</g>
<!-- Node34&#45;&gt;Node10 -->
<g id="edge120" class="edge"><title>Node34&#45;&gt;Node10</title>
<path fill="none" stroke="midnightblue" d="M2216.71,-64.093C2191.25,-61.8942 2160.24,-59.4702 2132.36,-58 1942.93,-48.0107 535.767,-16.8144 303.716,-11.7098"/>
<polygon fill="midnightblue" stroke="midnightblue" points="303.638,-8.20731 293.563,-11.4866 303.484,-15.2056 303.638,-8.20731"/>
</g>
<!-- Node34&#45;&gt;Node14 -->
<g id="edge116" class="edge"><title>Node34&#45;&gt;Node14</title>
<path fill="none" stroke="midnightblue" d="M2216.69,-64.474C2191.22,-62.3619 2160.21,-59.9009 2132.36,-58 1824.75,-37.0069 1453,-18.5376 1334.55,-12.8204"/>
<polygon fill="midnightblue" stroke="midnightblue" points="1334.68,-9.32283 1324.52,-12.3379 1334.34,-16.3147 1334.68,-9.32283"/>
</g>
<!-- Node34&#45;&gt;Node24 -->
<g id="edge118" class="edge"><title>Node34&#45;&gt;Node24</title>
<path fill="none" stroke="midnightblue" d="M2321.9,-59.8521C2326.45,-59.1794 2330.98,-58.5502 2335.36,-58 2526.87,-33.9423 2757.27,-18.7566 2848.44,-13.2889"/>
<polygon fill="midnightblue" stroke="midnightblue" points="2848.82,-16.7721 2858.6,-12.6851 2848.41,-9.78437 2848.82,-16.7721"/>
</g>
<!-- Node35 -->
<g id="node96" class="node"><title>Node35</title>
<polygon fill="white" stroke="#bfbfbf" points="2242.86,-0.5 2242.86,-21.5 2295.86,-21.5 2295.86,-0.5 2242.86,-0.5"/>
<text text-anchor="middle" x="2269.36" y="-8.5" font-family="Helvetica,sans-Serif" font-size="10.00">cxxabi.h</text>
</g>
<!-- Node34&#45;&gt;Node35 -->
<g id="edge122" class="edge"><title>Node34&#45;&gt;Node35</title>
<path fill="none" stroke="midnightblue" d="M2269.36,-58.3619C2269.36,-50.9219 2269.36,-40.7427 2269.36,-31.7276"/>
<polygon fill="midnightblue" stroke="midnightblue" points="2272.86,-31.5706 2269.36,-21.5707 2265.86,-31.5707 2272.86,-31.5706"/>
</g>
<!-- Node43&#45;&gt;Node5 -->
<g id="edge152" class="edge"><title>Node43&#45;&gt;Node5</title>
<path fill="none" stroke="midnightblue" d="M788.825,-203.335C746.832,-199.7 668.891,-193.062 602.361,-188 544.612,-183.606 126.162,-189.891 82.3607,-152 64.8359,-136.84 62.0442,-109.013 62.501,-89.7855"/>
<polygon fill="midnightblue" stroke="midnightblue" points="66.0056,-89.7954 63.0585,-79.6187 59.0161,-89.4121 66.0056,-89.7954"/>
</g>
<!-- Node43&#45;&gt;Node6 -->
<g id="edge162" class="edge"><title>Node43&#45;&gt;Node6</title>
<path fill="none" stroke="midnightblue" d="M788.743,-203.601C685.319,-195.384 352.84,-167.996 307.361,-152 251.537,-132.365 237.758,-121.283 195.361,-80 180.368,-65.4014 167.337,-45.3231 158.824,-30.589"/>
<polygon fill="midnightblue" stroke="midnightblue" points="161.841,-28.8118 153.907,-21.7896 155.73,-32.2265 161.841,-28.8118"/>
</g>
<!-- Node43&#45;&gt;Node15 -->
<g id="edge168" class="edge"><title>Node43&#45;&gt;Node15</title>
<path fill="none" stroke="midnightblue" d="M819.361,-195.25C819.361,-172.541 819.361,-119.348 819.361,-89.7682"/>
<polygon fill="midnightblue" stroke="midnightblue" points="822.861,-89.7002 819.361,-79.7002 815.861,-89.7003 822.861,-89.7002"/>
</g>
<!-- Node43&#45;&gt;Node16 -->
<g id="edge166" class="edge"><title>Node43&#45;&gt;Node16</title>
<path fill="none" stroke="midnightblue" d="M788.577,-197.027C741.831,-183.4 653.318,-157.599 605.315,-143.606"/>
<polygon fill="midnightblue" stroke="midnightblue" points="606.015,-140.165 595.435,-140.726 604.056,-146.885 606.015,-140.165"/>
</g>
<!-- Node43&#45;&gt;Node22 -->
<g id="edge170" class="edge"><title>Node43&#45;&gt;Node22</title>
<path fill="none" stroke="midnightblue" d="M850.067,-203.65C937.478,-196.861 1195.11,-176.154 1408.36,-152 1638.37,-125.947 1915.49,-85.1619 1998.63,-72.7242"/>
<polygon fill="midnightblue" stroke="midnightblue" points="1999.26,-76.1685 2008.63,-71.2243 1998.23,-69.2459 1999.26,-76.1685"/>
</g>
<!-- Node44 -->
<g id="node119" class="node"><title>Node44</title>
<polygon fill="white" stroke="#bfbfbf" points="1009.36,-123.5 1009.36,-144.5 1065.36,-144.5 1065.36,-123.5 1009.36,-123.5"/>
<text text-anchor="middle" x="1037.36" y="-131.5" font-family="Helvetica,sans-Serif" font-size="10.00">Rtypes.h</text>
</g>
<!-- Node43&#45;&gt;Node44 -->
<g id="edge150" class="edge"><title>Node43&#45;&gt;Node44</title>
<path fill="none" stroke="midnightblue" d="M850.132,-195.837C889.357,-182.882 957.148,-160.492 999.5,-146.505"/>
<polygon fill="midnightblue" stroke="midnightblue" points="1000.77,-149.771 1009.17,-143.312 998.574,-143.124 1000.77,-149.771"/>
</g>
<!-- Node45 -->
<g id="node122" class="node"><title>Node45</title>
<a xlink:href="time_8h.html" target="_top" xlink:title="base/std_ext/time.h">
<polygon fill="white" stroke="black" points="688.861,-123.5 688.861,-144.5 791.861,-144.5 791.861,-123.5 688.861,-123.5"/>
<text text-anchor="middle" x="740.361" y="-131.5" font-family="Helvetica,sans-Serif" font-size="10.00">base/std_ext/time.h</text>
</a>
</g>
<!-- Node43&#45;&gt;Node45 -->
<g id="edge154" class="edge"><title>Node43&#45;&gt;Node45</title>
<path fill="none" stroke="midnightblue" d="M807.704,-195.376C795.101,-183.89 774.805,-165.393 759.785,-151.703"/>
<polygon fill="midnightblue" stroke="midnightblue" points="761.814,-148.817 752.065,-144.667 757.099,-153.99 761.814,-148.817"/>
</g>
<!-- Node47 -->
<g id="node127" class="node"><title>Node47</title>
<polygon fill="white" stroke="#bfbfbf" points="654.861,-58.5 654.861,-79.5 695.861,-79.5 695.861,-58.5 654.861,-58.5"/>
<text text-anchor="middle" x="675.361" y="-66.5" font-family="Helvetica,sans-Serif" font-size="10.00">ctime</text>
</g>
<!-- Node43&#45;&gt;Node47 -->
<g id="edge174" class="edge"><title>Node43&#45;&gt;Node47</title>
<path fill="none" stroke="midnightblue" d="M793.813,-195.417C787.775,-192.952 781.35,-190.36 775.361,-188 733.351,-171.451 707.121,-188.368 680.361,-152 667.191,-134.103 668.051,-107.721 670.83,-89.5278"/>
<polygon fill="midnightblue" stroke="midnightblue" points="674.281,-90.1163 672.649,-79.6479 667.396,-88.8492 674.281,-90.1163"/>
</g>
<!-- Node48 -->
<g id="node130" class="node"><title>Node48</title>
<polygon fill="white" stroke="#bfbfbf" points="847.361,-123.5 847.361,-144.5 885.361,-144.5 885.361,-123.5 847.361,-123.5"/>
<text text-anchor="middle" x="866.361" y="-131.5" font-family="Helvetica,sans-Serif" font-size="10.00">tuple</text>
</g>
<!-- Node43&#45;&gt;Node48 -->
<g id="edge164" class="edge"><title>Node43&#45;&gt;Node48</title>
<path fill="none" stroke="midnightblue" d="M826.296,-195.376C833.516,-184.316 844.98,-166.753 853.799,-153.243"/>
<polygon fill="midnightblue" stroke="midnightblue" points="856.862,-154.954 859.397,-144.667 851,-151.128 856.862,-154.954"/>
</g>
<!-- Node49 -->
<g id="node135" class="node"><title>Node49</title>
<polygon fill="white" stroke="#bfbfbf" points="903.361,-123.5 903.361,-144.5 953.361,-144.5 953.361,-123.5 903.361,-123.5"/>
<text text-anchor="middle" x="928.361" y="-131.5" font-family="Helvetica,sans-Serif" font-size="10.00">iomanip</text>
</g>
<!-- Node43&#45;&gt;Node49 -->
<g id="edge172" class="edge"><title>Node43&#45;&gt;Node49</title>
<path fill="none" stroke="midnightblue" d="M835.444,-195.376C853.476,-183.465 882.925,-164.013 903.832,-150.202"/>
<polygon fill="midnightblue" stroke="midnightblue" points="905.796,-153.099 912.211,-144.667 901.938,-147.259 905.796,-153.099"/>
</g>
<!-- Node45&#45;&gt;Node32 -->
<g id="edge156" class="edge"><title>Node45&#45;&gt;Node32</title>
<path fill="none" stroke="midnightblue" d="M791.89,-123.963C806.849,-121.204 823.23,-118.333 838.361,-116 947.34,-99.1946 1074.8,-84.2471 1149.82,-75.929"/>
<polygon fill="midnightblue" stroke="midnightblue" points="1150.5,-79.3758 1160.05,-74.7997 1149.73,-72.4181 1150.5,-79.3758"/>
</g>
<!-- Node46 -->
<g id="node125" class="node"><title>Node46</title>
<polygon fill="white" stroke="#bfbfbf" points="717.361,-58.5 717.361,-79.5 763.361,-79.5 763.361,-58.5 717.361,-58.5"/>
<text text-anchor="middle" x="740.361" y="-66.5" font-family="Helvetica,sans-Serif" font-size="10.00">cstring</text>
</g>
<!-- Node45&#45;&gt;Node46 -->
<g id="edge158" class="edge"><title>Node45&#45;&gt;Node46</title>
<path fill="none" stroke="midnightblue" d="M740.361,-123.267C740.361,-114.18 740.361,-100.892 740.361,-89.7395"/>
<polygon fill="midnightblue" stroke="midnightblue" points="743.861,-89.5337 740.361,-79.5337 736.861,-89.5337 743.861,-89.5337"/>
</g>
<!-- Node45&#45;&gt;Node47 -->
<g id="edge160" class="edge"><title>Node45&#45;&gt;Node47</title>
<path fill="none" stroke="midnightblue" d="M729.627,-123.267C719.689,-113.328 704.724,-98.3635 693.025,-86.6645"/>
<polygon fill="midnightblue" stroke="midnightblue" points="695.44,-84.1299 685.894,-79.5337 690.491,-89.0797 695.44,-84.1299"/>
</g>
<!-- Node50&#45;&gt;Node17 -->
<g id="edge184" class="edge"><title>Node50&#45;&gt;Node17</title>
<path fill="none" stroke="midnightblue" d="M1773,-267.236C1794.47,-245.499 1844.52,-194.79 1886.36,-152 1929.4,-107.991 1979.79,-56.0128 2005.81,-29.1344"/>
<polygon fill="midnightblue" stroke="midnightblue" points="2008.63,-31.2545 2013.07,-21.6352 2003.6,-26.3858 2008.63,-31.2545"/>
</g>
<!-- Node50&#45;&gt;Node21 -->
<g id="edge186" class="edge"><title>Node50&#45;&gt;Node21</title>
<path fill="none" stroke="midnightblue" d="M1754.97,-267.348C1731.8,-233.947 1660.33,-130.941 1630.58,-88.0496"/>
<polygon fill="midnightblue" stroke="midnightblue" points="1633.31,-85.8514 1624.74,-79.6302 1627.56,-89.8416 1633.31,-85.8514"/>
</g>
<!-- Node50&#45;&gt;Node25 -->
<g id="edge188" class="edge"><title>Node50&#45;&gt;Node25</title>
<path fill="none" stroke="midnightblue" d="M1723.4,-267.453C1668.93,-252.71 1571.38,-226.306 1523.87,-213.447"/>
<polygon fill="midnightblue" stroke="midnightblue" points="1524.56,-210.007 1513.99,-210.772 1522.73,-216.763 1524.56,-210.007"/>
</g>
<!-- Node50&#45;&gt;Node33 -->
<g id="edge192" class="edge"><title>Node50&#45;&gt;Node33</title>
<path fill="none" stroke="midnightblue" d="M1743.69,-267.419C1708.25,-247.91 1628.27,-206.57 1555.36,-188 1467.8,-165.699 1211.36,-218.659 1150.36,-152 1120.19,-119.031 1135.07,-61.4189 1146.1,-31.0486"/>
<polygon fill="midnightblue" stroke="midnightblue" points="1149.44,-32.1174 1149.76,-21.5275 1142.9,-29.6049 1149.44,-32.1174"/>
</g>
<!-- Node50&#45;&gt;Node42 -->
<g id="edge190" class="edge"><title>Node50&#45;&gt;Node42</title>
<path fill="none" stroke="midnightblue" d="M1811.43,-269.788C1878.18,-256.26 1997.69,-223.334 2071.36,-152 2088.98,-134.936 2098.85,-107.982 2103.88,-89.4468"/>
<polygon fill="midnightblue" stroke="midnightblue" points="2107.3,-90.1926 2106.3,-79.6447 2100.5,-88.5114 2107.3,-90.1926"/>
</g>
<!-- Node51&#45;&gt;Node21 -->
<g id="edge212" class="edge"><title>Node51&#45;&gt;Node21</title>
<path fill="none" stroke="midnightblue" d="M1963.61,-332.364C1945.43,-323.506 1919.56,-310.102 1898.36,-296 1792.89,-225.834 1776.34,-195.063 1677.36,-116 1664.84,-105.997 1650.73,-94.9381 1639.35,-86.0617"/>
<polygon fill="midnightblue" stroke="midnightblue" points="1641.28,-83.1329 1631.24,-79.753 1636.98,-88.657 1641.28,-83.1329"/>
</g>
<!-- Node51&#45;&gt;Node22 -->
<g id="edge210" class="edge"><title>Node51&#45;&gt;Node22</title>
<path fill="none" stroke="midnightblue" d="M2014.3,-332.493C2032.32,-324.615 2055.3,-312.373 2071.36,-296 2122.03,-244.333 2129.96,-222.244 2147.36,-152 2151.21,-136.469 2156.45,-129.167 2147.36,-116 2135.74,-99.1609 2080.47,-83.0455 2047.77,-74.768"/>
<polygon fill="midnightblue" stroke="midnightblue" points="2048.58,-71.3626 2038.03,-72.365 2046.9,-78.1588 2048.58,-71.3626"/>
</g>
<!-- Node51&#45;&gt;Node24 -->
<g id="edge214" class="edge"><title>Node51&#45;&gt;Node24</title>
<path fill="none" stroke="midnightblue" d="M2030.27,-333.409C2144.17,-308.108 2457.95,-235.723 2712.36,-152 2794.6,-124.937 2844.76,-151.644 2893.36,-80 2902.91,-65.9237 2900.36,-46.3042 2896.18,-31.5829"/>
<polygon fill="midnightblue" stroke="midnightblue" points="2899.44,-30.2888 2893,-21.8785 2892.79,-32.4714 2899.44,-30.2888"/>
</g>
<!-- Node51&#45;&gt;Node25 -->
<g id="edge208" class="edge"><title>Node51&#45;&gt;Node25</title>
<path fill="none" stroke="midnightblue" d="M1942.63,-339.041C1886.55,-333.212 1786.72,-320.287 1704.36,-296 1636.69,-276.045 1561.78,-239.892 1522.96,-220.021"/>
<polygon fill="midnightblue" stroke="midnightblue" points="1524.39,-216.818 1513.9,-215.339 1521.18,-223.038 1524.39,-216.818"/>
</g>
<!-- Node51&#45;&gt;Node50 -->
<g id="edge206" class="edge"><title>Node51&#45;&gt;Node50</title>
<path fill="none" stroke="midnightblue" d="M1949.87,-332.412C1911.31,-321.222 1850.39,-303.545 1808.52,-291.393"/>
<polygon fill="midnightblue" stroke="midnightblue" points="1809.41,-288.009 1798.83,-288.584 1807.46,-294.732 1809.41,-288.009"/>
</g>
<!-- Node52&#45;&gt;Node3 -->
<g id="edge224" class="edge"><title>Node52&#45;&gt;Node3</title>
<path fill="none" stroke="midnightblue" d="M1329.31,-448.362C1332.89,-440.677 1337.83,-430.069 1342.12,-420.84"/>
<polygon fill="midnightblue" stroke="midnightblue" points="1345.39,-422.114 1346.44,-411.571 1339.05,-419.159 1345.39,-422.114"/>
</g>
<!-- Node52&#45;&gt;Node4 -->
<g id="edge226" class="edge"><title>Node52&#45;&gt;Node4</title>
<path fill="none" stroke="midnightblue" d="M1258.35,-456.393C1103.37,-449.966 725.242,-432.396 671.361,-412 631.622,-396.958 620.026,-388.599 595.361,-354 567.079,-314.329 554.344,-257.274 549.274,-226.896"/>
<polygon fill="midnightblue" stroke="midnightblue" points="552.677,-225.999 547.691,-216.651 545.76,-227.069 552.677,-225.999"/>
</g>
<!-- Node52&#45;&gt;Node12 -->
<g id="edge238" class="edge"><title>Node52&#45;&gt;Node12</title>
<path fill="none" stroke="midnightblue" d="M1258.01,-457.044C1133.43,-452.818 856.134,-440.785 624.361,-412 454.453,-390.898 245.361,-514.213 245.361,-343 245.361,-343 245.361,-343 245.361,-206 245.361,-139.101 327.29,-97.3634 372.779,-79.3455"/>
<polygon fill="midnightblue" stroke="midnightblue" points="374.065,-82.6009 382.157,-75.7619 371.566,-76.0621 374.065,-82.6009"/>
</g>
<!-- Node52&#45;&gt;Node13 -->
<g id="edge234" class="edge"><title>Node52&#45;&gt;Node13</title>
<path fill="none" stroke="midnightblue" d="M1258.27,-457.8C1031.11,-453.458 293.95,-437.459 250.361,-412 219.159,-393.776 207.361,-379.134 207.361,-343 207.361,-343 207.361,-343 207.361,-206 207.361,-107.157 278.744,-86.5934 373.361,-58 447.804,-35.5029 683.61,-18.5862 770.128,-12.9929"/>
<polygon fill="midnightblue" stroke="midnightblue" points="770.396,-16.483 780.152,-12.3525 769.95,-9.49725 770.396,-16.483"/>
</g>
<!-- Node52&#45;&gt;Node16 -->
<g id="edge236" class="edge"><title>Node52&#45;&gt;Node16</title>
<path fill="none" stroke="midnightblue" d="M1258.21,-456.36C1116.38,-450.306 792.192,-434.213 747.361,-412 710.419,-393.696 685.361,-384.228 685.361,-343 685.361,-343 685.361,-343 685.361,-278 685.361,-221.699 631.239,-174.357 597.907,-150.539"/>
<polygon fill="midnightblue" stroke="midnightblue" points="599.736,-147.547 589.523,-144.727 595.748,-153.3 599.736,-147.547"/>
</g>
<!-- Node52&#45;&gt;Node21 -->
<g id="edge228" class="edge"><title>Node52&#45;&gt;Node21</title>
<path fill="none" stroke="midnightblue" d="M1257.96,-457.643C1128.42,-454.305 852.071,-443.53 823.361,-412 816.778,-404.77 818.111,-398.249 823.361,-390 937.149,-211.181 1055.14,-257.531 1255.36,-188 1321.35,-165.083 1348.09,-187.313 1408.36,-152 1427.09,-141.028 1422.8,-127.251 1441.36,-116 1485.12,-89.4779 1543.86,-77.7069 1581.17,-72.6351"/>
<polygon fill="midnightblue" stroke="midnightblue" points="1581.62,-76.1067 1591.1,-71.3755 1580.74,-69.1624 1581.62,-76.1067"/>
</g>
<!-- Node52&#45;&gt;Node22 -->
<g id="edge230" class="edge"><title>Node52&#45;&gt;Node22</title>
<path fill="none" stroke="midnightblue" d="M1353.18,-448.444C1376.72,-439.53 1410.68,-426.01 1439.36,-412 1561.36,-352.407 1583.76,-322.386 1704.36,-260 1805.74,-207.556 1843.21,-216.527 1937.36,-152 1964.82,-133.18 1991.64,-105.352 2007.83,-87.1974"/>
<polygon fill="midnightblue" stroke="midnightblue" points="2010.53,-89.4302 2014.49,-79.6038 2005.27,-84.8153 2010.53,-89.4302"/>
</g>
<!-- Node52&#45;&gt;Node25 -->
<g id="edge232" class="edge"><title>Node52&#45;&gt;Node25</title>
<path fill="none" stroke="midnightblue" d="M1359.62,-448.499C1379.21,-441.082 1402.71,-429.332 1418.36,-412 1444.11,-383.493 1477.48,-272.868 1490.65,-226.563"/>
<polygon fill="midnightblue" stroke="midnightblue" points="1494.08,-227.317 1493.42,-216.742 1487.34,-225.42 1494.08,-227.317"/>
</g>
<!-- Node53 -->
<g id="node162" class="node"><title>Node53</title>
<a xlink:href="_unpacker_8h.html" target="_top" xlink:title="Unpacker.h">
<polygon fill="white" stroke="black" points="1772.86,-332.5 1772.86,-353.5 1839.86,-353.5 1839.86,-332.5 1772.86,-332.5"/>
<text text-anchor="middle" x="1806.36" y="-340.5" font-family="Helvetica,sans-Serif" font-size="10.00">Unpacker.h</text>
</a>
</g>
<!-- Node52&#45;&gt;Node53 -->
<g id="edge218" class="edge"><title>Node52&#45;&gt;Node53</title>
<path fill="none" stroke="midnightblue" d="M1378.16,-448.488C1423.44,-439.442 1489.82,-425.718 1547.36,-412 1623.53,-393.84 1711.48,-369.739 1762.8,-355.355"/>
<polygon fill="midnightblue" stroke="midnightblue" points="1763.88,-358.687 1772.57,-352.613 1761.99,-351.948 1763.88,-358.687"/>
</g>
<!-- Node53&#45;&gt;Node17 -->
<g id="edge220" class="edge"><title>Node53&#45;&gt;Node17</title>
<path fill="none" stroke="midnightblue" d="M1840.09,-339.92C1895.78,-334.204 2003.68,-320.275 2032.36,-296 2096.31,-241.868 2111.29,-196.585 2088.36,-116 2078.86,-82.5888 2055.35,-49.4102 2039.37,-29.5532"/>
<polygon fill="midnightblue" stroke="midnightblue" points="2041.9,-27.132 2032.84,-21.6553 2036.51,-31.5925 2041.9,-27.132"/>
</g>
<!-- Node53&#45;&gt;Node21 -->
<g id="edge222" class="edge"><title>Node53&#45;&gt;Node21</title>
<path fill="none" stroke="midnightblue" d="M1772.63,-334.55C1750.64,-327.496 1722.72,-315.399 1704.36,-296 1646.98,-235.378 1626.33,-132.932 1619.91,-89.4734"/>
<polygon fill="midnightblue" stroke="midnightblue" points="1623.37,-88.9608 1618.54,-79.5317 1616.44,-89.9156 1623.37,-88.9608"/>
</g>
<!-- Node54&#45;&gt;Node3 -->
<g id="edge244" class="edge"><title>Node54&#45;&gt;Node3</title>
<path fill="none" stroke="midnightblue" d="M1492.21,-448.497C1464.17,-439.041 1422.78,-425.083 1392.12,-414.743"/>
<polygon fill="midnightblue" stroke="midnightblue" points="1393.16,-411.402 1382.57,-411.523 1390.92,-418.035 1393.16,-411.402"/>
</g>
<!-- Node54&#45;&gt;Node4 -->
<g id="edge246" class="edge"><title>Node54&#45;&gt;Node4</title>
<path fill="none" stroke="midnightblue" d="M1449.3,-452.065C1432.86,-450.628 1415.53,-449.191 1399.36,-448 1263.05,-437.96 912.036,-463.327 785.361,-412 683.218,-370.613 594.008,-267.045 560.49,-224.594"/>
<polygon fill="midnightblue" stroke="midnightblue" points="563.101,-222.251 554.198,-216.508 557.577,-226.549 563.101,-222.251"/>
</g>
<!-- Node54&#45;&gt;Node13 -->
<g id="edge256" class="edge"><title>Node54&#45;&gt;Node13</title>
<path fill="none" stroke="midnightblue" d="M1454.15,-448.458C1406.05,-440.387 1340.72,-427.938 1284.36,-412 1140.79,-371.399 753.826,-272.14 665.361,-152 640.088,-117.678 620.938,-92.2108 646.361,-58 661.144,-38.1067 728.791,-23.4247 769.998,-16.1414"/>
<polygon fill="midnightblue" stroke="midnightblue" points="770.84,-19.548 780.105,-14.409 769.658,-12.6486 770.84,-19.548"/>
</g>
<!-- Node54&#45;&gt;Node16 -->
<g id="edge258" class="edge"><title>Node54&#45;&gt;Node16</title>
<path fill="none" stroke="midnightblue" d="M1449.29,-452.112C1432.86,-450.672 1415.52,-449.222 1399.36,-448 1335.42,-443.166 879.105,-443.694 823.361,-412 718.554,-352.411 759.588,-269.079 670.361,-188 659.588,-178.211 627.847,-161.379 603.377,-149.104"/>
<polygon fill="midnightblue" stroke="midnightblue" points="604.926,-145.965 594.414,-144.646 601.809,-152.233 604.926,-145.965"/>
</g>
<!-- Node54&#45;&gt;Node21 -->
<g id="edge250" class="edge"><title>Node54&#45;&gt;Node21</title>
<path fill="none" stroke="midnightblue" d="M1519.52,-448.244C1515.17,-434.669 1509.08,-410.604 1512.36,-390 1531.19,-271.882 1586.68,-138.187 1608.45,-88.7384"/>
<polygon fill="midnightblue" stroke="midnightblue" points="1611.69,-90.0607 1612.56,-79.5013 1605.3,-87.2159 1611.69,-90.0607"/>
</g>
<!-- Node54&#45;&gt;Node22 -->
<g id="edge252" class="edge"><title>Node54&#45;&gt;Node22</title>
<path fill="none" stroke="midnightblue" d="M1597.45,-451.882C1727.26,-438.241 1989.16,-405.155 2064.36,-354 2159.23,-289.469 2231.45,-209.078 2164.36,-116 2150.56,-96.8527 2084.48,-81.0696 2047.89,-73.6205"/>
<polygon fill="midnightblue" stroke="midnightblue" points="2048.48,-70.1701 2037.99,-71.663 2047.12,-77.037 2048.48,-70.1701"/>
</g>
<!-- Node54&#45;&gt;Node25 -->
<g id="edge254" class="edge"><title>Node54&#45;&gt;Node25</title>
<path fill="none" stroke="midnightblue" d="M1522.23,-448.451C1518.15,-410.196 1504.08,-278.307 1498.58,-226.821"/>
<polygon fill="midnightblue" stroke="midnightblue" points="1502.03,-226.166 1497.49,-216.594 1495.07,-226.909 1502.03,-226.166"/>
</g>
<!-- Node54&#45;&gt;Node44 -->
<g id="edge248" class="edge"><title>Node54&#45;&gt;Node44</title>
<path fill="none" stroke="midnightblue" d="M1527.76,-448.325C1543.65,-407.875 1593.48,-262.552 1522.36,-188 1492.17,-156.353 1173.66,-158.163 1130.36,-152 1112.29,-149.428 1092.41,-145.704 1075.69,-142.31"/>
<polygon fill="midnightblue" stroke="midnightblue" points="1076.23,-138.847 1065.73,-140.252 1074.81,-145.703 1076.23,-138.847"/>
</g>
<!-- Node54&#45;&gt;Node53 -->
<g id="edge242" class="edge"><title>Node54&#45;&gt;Node53</title>
<path fill="none" stroke="midnightblue" d="M1557.79,-448.497C1585.96,-439.614 1626.66,-426.11 1661.36,-412 1702.2,-395.395 1747.91,-372.978 1776.89,-358.264"/>
<polygon fill="midnightblue" stroke="midnightblue" points="1778.73,-361.253 1786.05,-353.589 1775.55,-355.019 1778.73,-361.253"/>
</g>
<!-- Node55&#45;&gt;Node17 -->
<g id="edge270" class="edge"><title>Node55&#45;&gt;Node17</title>
<path fill="none" stroke="midnightblue" d="M2306.54,-390.441C2339.5,-372.329 2399.36,-332.009 2399.36,-278 2399.36,-278 2399.36,-278 2399.36,-206 2399.36,-153.932 2368.57,-143.506 2324.36,-116 2266.52,-80.0101 2239.24,-103.68 2175.36,-80 2155.23,-72.5385 2151.78,-67.1438 2132.36,-58 2106.01,-45.5924 2075.52,-32.5576 2053.51,-23.3709"/>
<polygon fill="midnightblue" stroke="midnightblue" points="2054.61,-20.0391 2044.03,-19.4368 2051.93,-26.504 2054.61,-20.0391"/>
</g>
<!-- Node55&#45;&gt;Node21 -->
<g id="edge272" class="edge"><title>Node55&#45;&gt;Node21</title>
<path fill="none" stroke="midnightblue" d="M2275.83,-390.37C2236.6,-347.389 2081.89,-185.455 1917.36,-116 1870.36,-96.1568 1722.92,-79.451 1653.8,-72.4824"/>
<polygon fill="midnightblue" stroke="midnightblue" points="1654.1,-68.9947 1643.8,-71.4871 1653.41,-75.9603 1654.1,-68.9947"/>
</g>
<!-- Node55&#45;&gt;Node22 -->
<g id="edge268" class="edge"><title>Node55&#45;&gt;Node22</title>
<path fill="none" stroke="midnightblue" d="M2290.42,-390.333C2309.1,-349.191 2369.61,-198.996 2299.36,-116 2268.06,-79.0253 2132.09,-88.2986 2084.36,-80 2072.31,-77.9045 2058.93,-75.5011 2047.79,-73.4765"/>
<polygon fill="midnightblue" stroke="midnightblue" points="2048.36,-70.0238 2037.9,-71.6737 2047.11,-76.9104 2048.36,-70.0238"/>
</g>
<!-- Node55&#45;&gt;Node26 -->
<g id="edge266" class="edge"><title>Node55&#45;&gt;Node26</title>
<path fill="none" stroke="midnightblue" d="M2219.81,-396.575C2122.83,-389.698 1935.19,-375.134 1766.11,-354.157"/>
<polygon fill="midnightblue" stroke="midnightblue" points="1766.39,-350.665 1756.03,-352.896 1765.52,-357.611 1766.39,-350.665"/>
</g>
<!-- Node58 -->
<g id="node200" class="node"><title>Node58</title>
<polygon fill="white" stroke="#bfbfbf" points="3010.86,-448.5 3010.86,-469.5 3125.86,-469.5 3125.86,-448.5 3010.86,-448.5"/>
<text text-anchor="middle" x="3068.36" y="-456.5" font-family="Helvetica,sans-Serif" font-size="10.00">detail/easylogging++.h</text>
</g>
<!-- Node57&#45;&gt;Node58 -->
<g id="edge284" class="edge"><title>Node57&#45;&gt;Node58</title>
<path fill="none" stroke="midnightblue" d="M2833.62,-508.69C2879.35,-499.009 2955.42,-482.908 3008.52,-471.666"/>
<polygon fill="midnightblue" stroke="midnightblue" points="3009.43,-475.052 3018.49,-469.556 3007.98,-468.203 3009.43,-475.052"/>
</g>
</g>
</svg>
