<?xml version="1.0" encoding="UTF-8" standalone="no"?>
<!DOCTYPE svg PUBLIC "-//W3C//DTD SVG 1.1//EN"
 "http://www.w3.org/Graphics/SVG/1.1/DTD/svg11.dtd">
<!-- Generated by graphviz version 2.26.3 (20100126.1600)
 -->
<!-- Title: src/expconfig/setups/Setup.h Pages: 1 -->
<svg width="1728pt" height="188pt"
 viewBox="0.00 0.00 1728.00 188.00" xmlns="http://www.w3.org/2000/svg" xmlns:xlink="http://www.w3.org/1999/xlink">
<g id="graph1" class="graph" transform="scale(1 1) rotate(0) translate(4 184)">
<title>src/expconfig/setups/Setup.h</title>
<polygon fill="white" stroke="white" points="-4,5 -4,-184 1725,-184 1725,5 -4,5"/>
<!-- Node1 -->
<g id="node1" class="node"><title>Node1</title>
<polygon fill="#bfbfbf" stroke="black" points="824.5,-145 824.5,-179 931.5,-179 931.5,-145 824.5,-145"/>
<text text-anchor="start" x="832.5" y="-166" font-family="Helvetica,sans-Serif" font-size="10.00">src/expconfig/setups</text>
<text text-anchor="middle" x="878" y="-153" font-family="Helvetica,sans-Serif" font-size="10.00">/Setup.h</text>
</g>
<!-- Node2 -->
<g id="node3" class="node"><title>Node2</title>
<a xlink:href="_ant-fake_raw_8cc.html" target="_top" xlink:title="progs/Ant&#45;fakeRaw.cc">
<polygon fill="white" stroke="black" points="0,-79.5 0,-100.5 114,-100.5 114,-79.5 0,-79.5"/>
<text text-anchor="middle" x="57" y="-87.5" font-family="Helvetica,sans-Serif" font-size="10.00">progs/Ant&#45;fakeRaw.cc</text>
</a>
</g>
<!-- Node1&#45;&gt;Node2 -->
<g id="edge2" class="edge"><title>Node1&#45;&gt;Node2</title>
<path fill="none" stroke="midnightblue" d="M813.981,-159.029C656.833,-151.478 255.253,-130.542 123,-108 112.346,-106.184 100.926,-103.385 90.6321,-100.53"/>
<polygon fill="midnightblue" stroke="midnightblue" points="814.265,-162.547 824.42,-159.528 814.599,-155.555 814.265,-162.547"/>
</g>
<!-- Node3 -->
<g id="node5" class="node"><title>Node3</title>
<a xlink:href="_ant-make_tagg_eff_8cc.html" target="_top" xlink:title="progs/Ant&#45;makeTaggEff.cc">
<polygon fill="white" stroke="black" points="132,-79.5 132,-100.5 266,-100.5 266,-79.5 132,-79.5"/>
<text text-anchor="middle" x="199" y="-87.5" font-family="Helvetica,sans-Serif" font-size="10.00">progs/Ant&#45;makeTaggEff.cc</text>
</a>
</g>
<!-- Node1&#45;&gt;Node3 -->
<g id="edge4" class="edge"><title>Node1&#45;&gt;Node3</title>
<path fill="none" stroke="midnightblue" d="M814.141,-159.291C703.665,-153.934 469.982,-139.653 275,-108 263.088,-106.066 250.273,-103.301 238.622,-100.517"/>
<polygon fill="midnightblue" stroke="midnightblue" points="814.287,-162.802 824.442,-159.782 814.62,-155.81 814.287,-162.802"/>
</g>
<!-- Node4 -->
<g id="node7" class="node"><title>Node4</title>
<a xlink:href="_ant-rawdump_8cc.html" target="_top" xlink:title="progs/Ant&#45;rawdump.cc">
<polygon fill="white" stroke="black" points="283.5,-79.5 283.5,-100.5 398.5,-100.5 398.5,-79.5 283.5,-79.5"/>
<text text-anchor="middle" x="341" y="-87.5" font-family="Helvetica,sans-Serif" font-size="10.00">progs/Ant&#45;rawdump.cc</text>
</a>
</g>
<!-- Node1&#45;&gt;Node4 -->
<g id="edge6" class="edge"><title>Node1&#45;&gt;Node4</title>
<path fill="none" stroke="midnightblue" d="M814.112,-157.772C723.1,-151.05 551.167,-135.756 407,-108 396.737,-106.024 385.731,-103.28 375.705,-100.529"/>
<polygon fill="midnightblue" stroke="midnightblue" points="814.04,-161.276 824.268,-158.511 814.549,-154.295 814.04,-161.276"/>
</g>
<!-- Node5 -->
<g id="node9" class="node"><title>Node5</title>
<a xlink:href="_exp_config_8cc.html" target="_top" xlink:title="src/expconfig/ExpConfig.cc">
<polygon fill="white" stroke="black" points="415.5,-79.5 415.5,-100.5 552.5,-100.5 552.5,-79.5 415.5,-79.5"/>
<text text-anchor="middle" x="484" y="-87.5" font-family="Helvetica,sans-Serif" font-size="10.00">src/expconfig/ExpConfig.cc</text>
</a>
</g>
<!-- Node1&#45;&gt;Node5 -->
<g id="edge8" class="edge"><title>Node1&#45;&gt;Node5</title>
<path fill="none" stroke="midnightblue" d="M814.284,-152.315C750.122,-142.288 648.397,-125.642 561,-108 549.965,-105.773 538.099,-103.125 527.067,-100.556"/>
<polygon fill="midnightblue" stroke="midnightblue" points="813.832,-155.787 824.251,-153.867 814.908,-148.87 813.832,-155.787"/>
</g>
<!-- Node6 -->
<g id="node11" class="node"><title>Node6</title>
<a xlink:href="_setup_8cc.html" target="_top" xlink:title="src/expconfig/setups\l/Setup.cc">
<polygon fill="white" stroke="black" points="569.5,-73 569.5,-107 676.5,-107 676.5,-73 569.5,-73"/>
<text text-anchor="start" x="577.5" y="-94" font-family="Helvetica,sans-Serif" font-size="10.00">src/expconfig/setups</text>
<text text-anchor="middle" x="623" y="-81" font-family="Helvetica,sans-Serif" font-size="10.00">/Setup.cc</text>
</a>
</g>
<!-- Node1&#45;&gt;Node6 -->
<g id="edge10" class="edge"><title>Node1&#45;&gt;Node6</title>
<path fill="none" stroke="midnightblue" d="M814.478,-144.395C776.815,-133.914 728.156,-120.302 685,-108 682.305,-107.232 679.546,-106.442 676.759,-105.642"/>
<polygon fill="midnightblue" stroke="midnightblue" points="813.728,-147.819 824.3,-147.126 815.603,-141.075 813.728,-147.819"/>
</g>
<!-- Node7 -->
<g id="node13" class="node"><title>Node7</title>
<a xlink:href="_setup__2007___base_8h.html" target="_top" xlink:title="src/expconfig/setups\l/Setup_2007_Base.h">
<polygon fill="white" stroke="black" points="693.5,-73 693.5,-107 800.5,-107 800.5,-73 693.5,-73"/>
<text text-anchor="start" x="701.5" y="-94" font-family="Helvetica,sans-Serif" font-size="10.00">src/expconfig/setups</text>
<text text-anchor="middle" x="747" y="-81" font-family="Helvetica,sans-Serif" font-size="10.00">/Setup_2007_Base.h</text>
</a>
</g>
<!-- Node1&#45;&gt;Node7 -->
<g id="edge12" class="edge"><title>Node1&#45;&gt;Node7</title>
<path fill="none" stroke="midnightblue" d="M838.124,-140.083C818.914,-129.525 796.214,-117.049 778.276,-107.19"/>
<polygon fill="midnightblue" stroke="midnightblue" points="836.505,-143.188 846.955,-144.937 839.877,-137.053 836.505,-143.188"/>
</g>
<!-- Node10 -->
<g id="node19" class="node"><title>Node10</title>
<a xlink:href="_setup__2007___base_8cc.html" target="_top" xlink:title="src/expconfig/setups\l/Setup_2007_Base.cc">
<polygon fill="white" stroke="black" points="694.5,-1 694.5,-35 807.5,-35 807.5,-1 694.5,-1"/>
<text text-anchor="start" x="702.5" y="-22" font-family="Helvetica,sans-Serif" font-size="10.00">src/expconfig/setups</text>
<text text-anchor="middle" x="751" y="-9" font-family="Helvetica,sans-Serif" font-size="10.00">/Setup_2007_Base.cc</text>
</a>
</g>
<!-- Node1&#45;&gt;Node10 -->
<g id="edge20" class="edge"><title>Node1&#45;&gt;Node10</title>
<path fill="none" stroke="midnightblue" d="M860.204,-136.497C846.861,-117.968 827.746,-92.6299 809,-72 797.157,-58.9668 782.657,-45.4668 771.118,-35.2251"/>
<polygon fill="midnightblue" stroke="midnightblue" points="857.428,-138.633 866.084,-144.743 863.127,-134.569 857.428,-138.633"/>
</g>
<!-- Node11 -->
<g id="node22" class="node"><title>Node11</title>
<a xlink:href="_setup__2012__12___compton_8cc.html" target="_top" xlink:title="src/expconfig/setups\l/Setup_2012_12_Compton.cc">
<polygon fill="white" stroke="black" points="856,-73 856,-107 1002,-107 1002,-73 856,-73"/>
<text text-anchor="start" x="864" y="-94" font-family="Helvetica,sans-Serif" font-size="10.00">src/expconfig/setups</text>
<text text-anchor="middle" x="929" y="-81" font-family="Helvetica,sans-Serif" font-size="10.00">/Setup_2012_12_Compton.cc</text>
</a>
</g>
<!-- Node1&#45;&gt;Node11 -->
<g id="edge22" class="edge"><title>Node1&#45;&gt;Node11</title>
<path fill="none" stroke="midnightblue" d="M896.064,-136.498C902.879,-126.877 910.471,-116.159 916.646,-107.441"/>
<polygon fill="midnightblue" stroke="midnightblue" points="893.01,-134.754 890.086,-144.937 898.723,-138.8 893.01,-134.754"/>
</g>
<!-- Node12 -->
<g id="node24" class="node"><title>Node12</title>
<a xlink:href="_setup__2014___e_p_t_8h.html" target="_top" xlink:title="src/expconfig/setups\l/Setup_2014_EPT.h">
<polygon fill="white" stroke="black" points="1019.5,-73 1019.5,-107 1126.5,-107 1126.5,-73 1019.5,-73"/>
<text text-anchor="start" x="1027.5" y="-94" font-family="Helvetica,sans-Serif" font-size="10.00">src/expconfig/setups</text>
<text text-anchor="middle" x="1073" y="-81" font-family="Helvetica,sans-Serif" font-size="10.00">/Setup_2014_EPT.h</text>
</a>
</g>
<!-- Node1&#45;&gt;Node12 -->
<g id="edge24" class="edge"><title>Node1&#45;&gt;Node12</title>
<path fill="none" stroke="midnightblue" d="M933.928,-141.35C963.337,-130.491 998.954,-117.34 1026.78,-107.065"/>
<polygon fill="midnightblue" stroke="midnightblue" points="932.381,-138.19 924.212,-144.937 934.806,-144.757 932.381,-138.19"/>
</g>
<!-- Node17 -->
<g id="node34" class="node"><title>Node17</title>
<a xlink:href="_setup__2015__01___pion_8cc.html" target="_top" xlink:title="src/expconfig/setups\l/Setup_2015_01_Pion.cc">
<polygon fill="white" stroke="black" points="1456.5,-1 1456.5,-35 1581.5,-35 1581.5,-1 1456.5,-1"/>
<text text-anchor="start" x="1464.5" y="-22" font-family="Helvetica,sans-Serif" font-size="10.00">src/expconfig/setups</text>
<text text-anchor="middle" x="1519" y="-9" font-family="Helvetica,sans-Serif" font-size="10.00">/Setup_2015_01_Pion.cc</text>
</a>
</g>
<!-- Node1&#45;&gt;Node17 -->
<g id="edge34" class="edge"><title>Node1&#45;&gt;Node17</title>
<path fill="none" stroke="midnightblue" d="M941.761,-152.677C1006.59,-142.481 1102.03,-125.277 1135,-108 1155.61,-97.2004 1151.99,-81.9991 1173,-72 1284.3,-19.0205 1326.94,-59.1864 1448,-36 1450.75,-35.4738 1453.55,-34.905 1456.37,-34.305"/>
<polygon fill="midnightblue" stroke="midnightblue" points="940.978,-149.257 931.635,-154.253 942.054,-156.174 940.978,-149.257"/>
</g>
<!-- Node18 -->
<g id="node36" class="node"><title>Node18</title>
<a xlink:href="_setup__2015__01___pion_8h.html" target="_top" xlink:title="src/expconfig/setups\l/Setup_2015_01_Pion.h">
<polygon fill="white" stroke="black" points="1182,-73 1182,-107 1302,-107 1302,-73 1182,-73"/>
<text text-anchor="start" x="1190" y="-94" font-family="Helvetica,sans-Serif" font-size="10.00">src/expconfig/setups</text>
<text text-anchor="middle" x="1242" y="-81" font-family="Helvetica,sans-Serif" font-size="10.00">/Setup_2015_01_Pion.h</text>
</a>
</g>
<!-- Node1&#45;&gt;Node18 -->
<g id="edge36" class="edge"><title>Node1&#45;&gt;Node18</title>
<path fill="none" stroke="midnightblue" d="M941.523,-151.199C1000.41,-140.942 1090.37,-124.656 1168,-108 1172.52,-107.029 1177.2,-105.987 1181.89,-104.912"/>
<polygon fill="midnightblue" stroke="midnightblue" points="940.878,-147.758 931.624,-152.917 942.075,-154.655 940.878,-147.758"/>
</g>
<!-- Node19 -->
<g id="node39" class="node"><title>Node19</title>
<a xlink:href="_setup___c_b_source_calib_8cc.html" target="_top" xlink:title="src/expconfig/setups\l/Setup_CBSourceCalib.cc">
<polygon fill="white" stroke="black" points="1319.5,-73 1319.5,-107 1450.5,-107 1450.5,-73 1319.5,-73"/>
<text text-anchor="start" x="1327.5" y="-94" font-family="Helvetica,sans-Serif" font-size="10.00">src/expconfig/setups</text>
<text text-anchor="middle" x="1385" y="-81" font-family="Helvetica,sans-Serif" font-size="10.00">/Setup_CBSourceCalib.cc</text>
</a>
</g>
<!-- Node1&#45;&gt;Node19 -->
<g id="edge40" class="edge"><title>Node1&#45;&gt;Node19</title>
<path fill="none" stroke="midnightblue" d="M941.61,-156.369C1026.33,-148.344 1180.68,-131.894 1311,-108 1313.73,-107.499 1316.51,-106.96 1319.32,-106.391"/>
<polygon fill="midnightblue" stroke="midnightblue" points="941.258,-152.886 931.629,-157.305 941.913,-159.855 941.258,-152.886"/>
</g>
<!-- Node20 -->
<g id="node41" class="node"><title>Node20</title>
<a xlink:href="_setup_registry_8cc.html" target="_top" xlink:title="src/expconfig/setups\l/SetupRegistry.cc">
<polygon fill="white" stroke="black" points="1467.5,-73 1467.5,-107 1574.5,-107 1574.5,-73 1467.5,-73"/>
<text text-anchor="start" x="1475.5" y="-94" font-family="Helvetica,sans-Serif" font-size="10.00">src/expconfig/setups</text>
<text text-anchor="middle" x="1521" y="-81" font-family="Helvetica,sans-Serif" font-size="10.00">/SetupRegistry.cc</text>
</a>
</g>
<!-- Node1&#45;&gt;Node20 -->
<g id="edge42" class="edge"><title>Node1&#45;&gt;Node20</title>
<path fill="none" stroke="midnightblue" d="M941.781,-160.028C1049.32,-155.824 1273.16,-143.281 1459,-108 1461.75,-107.477 1464.56,-106.885 1467.38,-106.242"/>
<polygon fill="midnightblue" stroke="midnightblue" points="941.603,-156.532 931.743,-160.409 941.869,-163.527 941.603,-156.532"/>
</g>
<!-- Node21 -->
<g id="node43" class="node"><title>Node21</title>
<a xlink:href="expconfig__helpers_8cc.html" target="_top" xlink:title="test/expconfig_helpers.cc">
<polygon fill="white" stroke="black" points="1592,-79.5 1592,-100.5 1720,-100.5 1720,-79.5 1592,-79.5"/>
<text text-anchor="middle" x="1656" y="-87.5" font-family="Helvetica,sans-Serif" font-size="10.00">test/expconfig_helpers.cc</text>
</a>
</g>
<!-- Node1&#45;&gt;Node21 -->
<g id="edge44" class="edge"><title>Node1&#45;&gt;Node21</title>
<path fill="none" stroke="midnightblue" d="M941.964,-160.635C1066.24,-157.204 1348.69,-145.596 1583,-108 1594.6,-106.139 1607.07,-103.362 1618.36,-100.542"/>
<polygon fill="midnightblue" stroke="midnightblue" points="941.765,-157.139 931.862,-160.905 941.953,-164.136 941.765,-157.139"/>
</g>
<!-- Node8 -->
<g id="node15" class="node"><title>Node8</title>
<a xlink:href="_setup__2007__06_8cc.html" target="_top" xlink:title="src/expconfig/setups\l/Setup_2007_06.cc">
<polygon fill="white" stroke="black" points="446.5,-1 446.5,-35 553.5,-35 553.5,-1 446.5,-1"/>
<text text-anchor="start" x="454.5" y="-22" font-family="Helvetica,sans-Serif" font-size="10.00">src/expconfig/setups</text>
<text text-anchor="middle" x="500" y="-9" font-family="Helvetica,sans-Serif" font-size="10.00">/Setup_2007_06.cc</text>
</a>
</g>
<!-- Node7&#45;&gt;Node8 -->
<g id="edge14" class="edge"><title>Node7&#45;&gt;Node8</title>
<path fill="none" stroke="midnightblue" d="M683.713,-71.5519C643.548,-59.844 592.134,-44.8569 553.917,-33.7166"/>
<polygon fill="midnightblue" stroke="midnightblue" points="682.825,-74.9386 693.405,-74.3771 684.784,-68.2183 682.825,-74.9386"/>
</g>
<!-- Node9 -->
<g id="node17" class="node"><title>Node9</title>
<a xlink:href="_setup__2007__07_8cc.html" target="_top" xlink:title="src/expconfig/setups\l/Setup_2007_07.cc">
<polygon fill="white" stroke="black" points="570.5,-1 570.5,-35 677.5,-35 677.5,-1 570.5,-1"/>
<text text-anchor="start" x="578.5" y="-22" font-family="Helvetica,sans-Serif" font-size="10.00">src/expconfig/setups</text>
<text text-anchor="middle" x="624" y="-9" font-family="Helvetica,sans-Serif" font-size="10.00">/Setup_2007_07.cc</text>
</a>
</g>
<!-- Node7&#45;&gt;Node9 -->
<g id="edge16" class="edge"><title>Node7&#45;&gt;Node9</title>
<path fill="none" stroke="midnightblue" d="M708.823,-67.6522C690.945,-57.1871 669.98,-44.9152 653.366,-35.19"/>
<polygon fill="midnightblue" stroke="midnightblue" points="707.452,-70.9057 717.851,-72.937 710.989,-64.8646 707.452,-70.9057"/>
</g>
<!-- Node7&#45;&gt;Node10 -->
<g id="edge18" class="edge"><title>Node7&#45;&gt;Node10</title>
<path fill="none" stroke="midnightblue" d="M748.516,-62.7193C749.024,-53.572 749.576,-43.6255 750.031,-35.4407"/>
<polygon fill="midnightblue" stroke="midnightblue" points="745.008,-62.7582 747.948,-72.937 751.997,-63.1466 745.008,-62.7582"/>
</g>
<!-- Node13 -->
<g id="node26" class="node"><title>Node13</title>
<a xlink:href="_setup__2014__07___e_p_t___prod_8cc.html" target="_top" xlink:title="src/expconfig/setups\l/Setup_2014_07_EPT_Prod.cc">
<polygon fill="white" stroke="black" points="824.5,-1 824.5,-35 975.5,-35 975.5,-1 824.5,-1"/>
<text text-anchor="start" x="832.5" y="-22" font-family="Helvetica,sans-Serif" font-size="10.00">src/expconfig/setups</text>
<text text-anchor="middle" x="900" y="-9" font-family="Helvetica,sans-Serif" font-size="10.00">/Setup_2014_07_EPT_Prod.cc</text>
</a>
</g>
<!-- Node12&#45;&gt;Node13 -->
<g id="edge26" class="edge"><title>Node12&#45;&gt;Node13</title>
<path fill="none" stroke="midnightblue" d="M1022.7,-69.0661C996.742,-58.2626 965.477,-45.2505 941.004,-35.0651"/>
<polygon fill="midnightblue" stroke="midnightblue" points="1021.42,-72.3259 1032,-72.937 1024.11,-65.8633 1021.42,-72.3259"/>
</g>
<!-- Node14 -->
<g id="node28" class="node"><title>Node14</title>
<a xlink:href="_setup__2014__10___e_p_t___prod_8cc.html" target="_top" xlink:title="src/expconfig/setups\l/Setup_2014_10_EPT_Prod.cc">
<polygon fill="white" stroke="black" points="992.5,-1 992.5,-35 1143.5,-35 1143.5,-1 992.5,-1"/>
<text text-anchor="start" x="1000.5" y="-22" font-family="Helvetica,sans-Serif" font-size="10.00">src/expconfig/setups</text>
<text text-anchor="middle" x="1068" y="-9" font-family="Helvetica,sans-Serif" font-size="10.00">/Setup_2014_10_EPT_Prod.cc</text>
</a>
</g>
<!-- Node12&#45;&gt;Node14 -->
<g id="edge28" class="edge"><title>Node12&#45;&gt;Node14</title>
<path fill="none" stroke="midnightblue" d="M1071.11,-62.7193C1070.47,-53.572 1069.78,-43.6255 1069.21,-35.4407"/>
<polygon fill="midnightblue" stroke="midnightblue" points="1067.63,-63.2035 1071.82,-72.937 1074.61,-62.7185 1067.63,-63.2035"/>
</g>
<!-- Node15 -->
<g id="node30" class="node"><title>Node15</title>
<a xlink:href="_setup__2014__12___e_p_t___prod_8cc.html" target="_top" xlink:title="src/expconfig/setups\l/Setup_2014_12_EPT_Prod.cc">
<polygon fill="white" stroke="black" points="1160.5,-1 1160.5,-35 1311.5,-35 1311.5,-1 1160.5,-1"/>
<text text-anchor="start" x="1168.5" y="-22" font-family="Helvetica,sans-Serif" font-size="10.00">src/expconfig/setups</text>
<text text-anchor="middle" x="1236" y="-9" font-family="Helvetica,sans-Serif" font-size="10.00">/Setup_2014_12_EPT_Prod.cc</text>
</a>
</g>
<!-- Node12&#45;&gt;Node15 -->
<g id="edge30" class="edge"><title>Node12&#45;&gt;Node15</title>
<path fill="none" stroke="midnightblue" d="M1121.04,-68.7812C1145.37,-58.0346 1174.51,-45.1612 1197.37,-35.0651"/>
<polygon fill="midnightblue" stroke="midnightblue" points="1119.36,-65.6948 1111.63,-72.937 1122.19,-72.098 1119.36,-65.6948"/>
</g>
<!-- Node16 -->
<g id="node32" class="node"><title>Node16</title>
<a xlink:href="_setup__2014___e_p_t_8cc.html" target="_top" xlink:title="src/expconfig/setups\l/Setup_2014_EPT.cc">
<polygon fill="white" stroke="black" points="1329,-1 1329,-35 1439,-35 1439,-1 1329,-1"/>
<text text-anchor="start" x="1337" y="-22" font-family="Helvetica,sans-Serif" font-size="10.00">src/expconfig/setups</text>
<text text-anchor="middle" x="1384" y="-9" font-family="Helvetica,sans-Serif" font-size="10.00">/Setup_2014_EPT.cc</text>
</a>
</g>
<!-- Node12&#45;&gt;Node16 -->
<g id="edge32" class="edge"><title>Node12&#45;&gt;Node16</title>
<path fill="none" stroke="midnightblue" d="M1136.72,-72.7765C1137.82,-72.513 1138.92,-72.2539 1140,-72 1219.44,-53.4064 1240.67,-55.0583 1320,-36 1322.92,-35.299 1325.9,-34.5547 1328.91,-33.7831"/>
<polygon fill="midnightblue" stroke="midnightblue" points="1135.55,-69.4595 1126.68,-75.2492 1137.23,-76.2565 1135.55,-69.4595"/>
</g>
<!-- Node18&#45;&gt;Node17 -->
<g id="edge38" class="edge"><title>Node18&#45;&gt;Node17</title>
<path fill="none" stroke="midnightblue" d="M1311.96,-71.7511C1365.95,-57.7042 1417.26,-44.3855 1456.19,-34.2858"/>
<polygon fill="midnightblue" stroke="midnightblue" points="1311.01,-68.383 1302.21,-74.2887 1312.77,-75.1574 1311.01,-68.383"/>
</g>
</g>
</svg>
