<?xml version="1.0" encoding="UTF-8" standalone="no"?>
<!DOCTYPE svg PUBLIC "-//W3C//DTD SVG 1.1//EN"
 "http://www.w3.org/Graphics/SVG/1.1/DTD/svg11.dtd">
<!-- Generated by graphviz version 2.26.3 (20100126.1600)
 -->
<!-- Title: src/analysis/slowcontrol/SlowControlVariables.cc Pages: 1 -->
<svg width="3029pt" height="768pt"
 viewBox="0.00 0.00 3029.30 768.00" xmlns="http://www.w3.org/2000/svg" xmlns:xlink="http://www.w3.org/1999/xlink">
<g id="graph1" class="graph" transform="scale(1 1) rotate(0) translate(4 764)">
<title>src/analysis/slowcontrol/SlowControlVariables.cc</title>
<polygon fill="white" stroke="white" points="-4,5 -4,-764 3026.3,-764 3026.3,5 -4,5"/>
<!-- Node1 -->
<g id="node1" class="node"><title>Node1</title>
<polygon fill="#bfbfbf" stroke="black" points="473.447,-725 473.447,-759 600.447,-759 600.447,-725 473.447,-725"/>
<text text-anchor="start" x="481.447" y="-746" font-family="Helvetica,sans-Serif" font-size="10.00">src/analysis/slowcontrol</text>
<text text-anchor="middle" x="536.947" y="-733" font-family="Helvetica,sans-Serif" font-size="10.00">/SlowControlVariables.cc</text>
</g>
<!-- Node2 -->
<g id="node3" class="node"><title>Node2</title>
<a xlink:href="_slow_control_variables_8h.html" target="_top" xlink:title="SlowControlVariables.h">
<polygon fill="white" stroke="black" points="477.447,-666.5 477.447,-687.5 596.447,-687.5 596.447,-666.5 477.447,-666.5"/>
<text text-anchor="middle" x="536.947" y="-674.5" font-family="Helvetica,sans-Serif" font-size="10.00">SlowControlVariables.h</text>
</a>
</g>
<!-- Node1&#45;&gt;Node2 -->
<g id="edge2" class="edge"><title>Node1&#45;&gt;Node2</title>
<path fill="none" stroke="midnightblue" d="M536.947,-724.922C536.947,-716.67 536.947,-706.692 536.947,-697.982"/>
<polygon fill="midnightblue" stroke="midnightblue" points="540.448,-697.852 536.947,-687.852 533.448,-697.852 540.448,-697.852"/>
</g>
<!-- Node3 -->
<g id="node5" class="node"><title>Node3</title>
<a xlink:href="_variable_8h.html" target="_top" xlink:title="variables/Variable.h">
<polygon fill="white" stroke="black" points="472.947,-550.5 472.947,-571.5 574.947,-571.5 574.947,-550.5 472.947,-550.5"/>
<text text-anchor="middle" x="523.947" y="-558.5" font-family="Helvetica,sans-Serif" font-size="10.00">variables/Variable.h</text>
</a>
</g>
<!-- Node2&#45;&gt;Node3 -->
<g id="edge4" class="edge"><title>Node2&#45;&gt;Node3</title>
<path fill="none" stroke="midnightblue" d="M516.592,-666.453C503.47,-658.416 487.497,-646.009 479.947,-630 471.124,-611.288 486.574,-591.538 501.539,-577.985"/>
<polygon fill="midnightblue" stroke="midnightblue" points="503.824,-580.637 509.189,-571.502 499.298,-575.297 503.824,-580.637"/>
</g>
<!-- Node39 -->
<g id="node102" class="node"><title>Node39</title>
<polygon fill="white" stroke="#bfbfbf" points="141.947,-116.5 141.947,-137.5 193.947,-137.5 193.947,-116.5 141.947,-116.5"/>
<text text-anchor="middle" x="167.947" y="-124.5" font-family="Helvetica,sans-Serif" font-size="10.00">memory</text>
</g>
<!-- Node2&#45;&gt;Node39 -->
<g id="edge330" class="edge"><title>Node2&#45;&gt;Node39</title>
<path fill="none" stroke="midnightblue" d="M477.351,-667.282C387.047,-650.847 225.947,-614.089 225.947,-561 225.947,-561 225.947,-561 225.947,-257 225.947,-219.157 223.708,-207.929 206.947,-174 201.735,-163.448 193.71,-153.21 186.292,-144.998"/>
<polygon fill="midnightblue" stroke="midnightblue" points="188.625,-142.371 179.203,-137.525 183.546,-147.189 188.625,-142.371"/>
</g>
<!-- Node60 -->
<g id="node205" class="node"><title>Node60</title>
<a xlink:href="_tagger_scalers_8h.html" target="_top" xlink:title="variables/TaggerScalers.h">
<polygon fill="white" stroke="black" points="712.947,-608.5 712.947,-629.5 842.947,-629.5 842.947,-608.5 712.947,-608.5"/>
<text text-anchor="middle" x="777.947" y="-616.5" font-family="Helvetica,sans-Serif" font-size="10.00">variables/TaggerScalers.h</text>
</a>
</g>
<!-- Node2&#45;&gt;Node60 -->
<g id="edge290" class="edge"><title>Node2&#45;&gt;Node60</title>
<path fill="none" stroke="midnightblue" d="M580.591,-666.497C620.986,-656.775 681.158,-642.294 724.434,-631.879"/>
<polygon fill="midnightblue" stroke="midnightblue" points="725.319,-635.266 734.222,-629.523 723.681,-628.46 725.319,-635.266"/>
</g>
<!-- Node61 -->
<g id="node210" class="node"><title>Node61</title>
<a xlink:href="_clocks_8h.html" target="_top" xlink:title="variables/Clocks.h">
<polygon fill="white" stroke="black" points="334.947,-608.5 334.947,-629.5 432.947,-629.5 432.947,-608.5 334.947,-608.5"/>
<text text-anchor="middle" x="383.947" y="-616.5" font-family="Helvetica,sans-Serif" font-size="10.00">variables/Clocks.h</text>
</a>
</g>
<!-- Node2&#45;&gt;Node61 -->
<g id="edge298" class="edge"><title>Node2&#45;&gt;Node61</title>
<path fill="none" stroke="midnightblue" d="M509.24,-666.497C484.621,-657.164 448.431,-643.445 421.267,-633.147"/>
<polygon fill="midnightblue" stroke="midnightblue" points="422.298,-629.795 411.707,-629.523 419.817,-636.341 422.298,-629.795"/>
</g>
<!-- Node62 -->
<g id="node215" class="node"><title>Node62</title>
<a xlink:href="_beam_8h.html" target="_top" xlink:title="variables/Beam.h">
<polygon fill="white" stroke="black" points="602.947,-608.5 602.947,-629.5 694.947,-629.5 694.947,-608.5 602.947,-608.5"/>
<text text-anchor="middle" x="648.947" y="-616.5" font-family="Helvetica,sans-Serif" font-size="10.00">variables/Beam.h</text>
</a>
</g>
<!-- Node2&#45;&gt;Node62 -->
<g id="edge306" class="edge"><title>Node2&#45;&gt;Node62</title>
<path fill="none" stroke="midnightblue" d="M557.23,-666.497C574.565,-657.519 599.738,-644.484 619.328,-634.339"/>
<polygon fill="midnightblue" stroke="midnightblue" points="621.167,-637.328 628.437,-629.621 617.948,-631.112 621.167,-637.328"/>
</g>
<!-- Node63 -->
<g id="node220" class="node"><title>Node63</title>
<a xlink:href="_pairspec_8h.html" target="_top" xlink:title="variables/Pairspec.h">
<polygon fill="white" stroke="black" points="860.447,-608.5 860.447,-629.5 965.447,-629.5 965.447,-608.5 860.447,-608.5"/>
<text text-anchor="middle" x="912.947" y="-616.5" font-family="Helvetica,sans-Serif" font-size="10.00">variables/Pairspec.h</text>
</a>
</g>
<!-- Node2&#45;&gt;Node63 -->
<g id="edge314" class="edge"><title>Node2&#45;&gt;Node63</title>
<path fill="none" stroke="midnightblue" d="M596.541,-668.657C657.781,-659.959 756.146,-645.647 850.403,-630.223"/>
<polygon fill="midnightblue" stroke="midnightblue" points="851.092,-633.657 860.392,-628.581 849.957,-626.749 851.092,-633.657"/>
</g>
<!-- Node64 -->
<g id="node225" class="node"><title>Node64</title>
<a xlink:href="analysis_2slowcontrol_2variables_2_trigger_8h.html" target="_top" xlink:title="variables/Trigger.h">
<polygon fill="white" stroke="black" points="488.447,-608.5 488.447,-629.5 585.447,-629.5 585.447,-608.5 488.447,-608.5"/>
<text text-anchor="middle" x="536.947" y="-616.5" font-family="Helvetica,sans-Serif" font-size="10.00">variables/Trigger.h</text>
</a>
</g>
<!-- Node2&#45;&gt;Node64 -->
<g id="edge322" class="edge"><title>Node2&#45;&gt;Node64</title>
<path fill="none" stroke="midnightblue" d="M536.947,-666.362C536.947,-658.922 536.947,-648.743 536.947,-639.728"/>
<polygon fill="midnightblue" stroke="midnightblue" points="540.448,-639.571 536.947,-629.571 533.448,-639.571 540.448,-639.571"/>
</g>
<!-- Node4 -->
<g id="node7" class="node"><title>Node4</title>
<a xlink:href="_processor_8h.html" target="_top" xlink:title="slowcontrol/processors\l/Processor.h">
<polygon fill="white" stroke="black" points="698.447,-479 698.447,-513 815.447,-513 815.447,-479 698.447,-479"/>
<text text-anchor="start" x="706.447" y="-500" font-family="Helvetica,sans-Serif" font-size="10.00">slowcontrol/processors</text>
<text text-anchor="middle" x="756.947" y="-487" font-family="Helvetica,sans-Serif" font-size="10.00">/Processor.h</text>
</a>
</g>
<!-- Node3&#45;&gt;Node4 -->
<g id="edge6" class="edge"><title>Node3&#45;&gt;Node4</title>
<path fill="none" stroke="midnightblue" d="M561.642,-550.484C595.863,-540.938 647.163,-526.627 688.6,-515.067"/>
<polygon fill="midnightblue" stroke="midnightblue" points="689.67,-518.402 698.361,-512.344 687.789,-511.66 689.67,-518.402"/>
</g>
<!-- Node23 -->
<g id="node47" class="node"><title>Node23</title>
<polygon fill="white" stroke="#bfbfbf" points="19.4474,-116.5 19.4474,-137.5 48.4474,-137.5 48.4474,-116.5 19.4474,-116.5"/>
<text text-anchor="middle" x="33.9474" y="-124.5" font-family="Helvetica,sans-Serif" font-size="10.00">list</text>
</g>
<!-- Node3&#45;&gt;Node23 -->
<g id="edge288" class="edge"><title>Node3&#45;&gt;Node23</title>
<path fill="none" stroke="midnightblue" d="M499.284,-550.467C420.036,-515.265 170.191,-393.478 51.9474,-210 39.8342,-191.204 35.7558,-165.549 34.4437,-147.758"/>
<polygon fill="midnightblue" stroke="midnightblue" points="37.9302,-147.402 33.9304,-137.592 30.9391,-147.755 37.9302,-147.402"/>
</g>
<!-- Node3&#45;&gt;Node39 -->
<g id="edge286" class="edge"><title>Node3&#45;&gt;Node39</title>
<path fill="none" stroke="midnightblue" d="M524.226,-550.215C524.775,-527.942 525.947,-475.241 525.947,-431 525.947,-431 525.947,-431 525.947,-257 525.947,-206.378 492.821,-197.429 447.947,-174 353.244,-124.556 312.629,-160.339 204.204,-137.933"/>
<polygon fill="midnightblue" stroke="midnightblue" points="204.715,-134.462 194.198,-135.741 203.217,-141.3 204.715,-134.462"/>
</g>
<!-- Node5 -->
<g id="node9" class="node"><title>Node5</title>
<a xlink:href="manager__t_8h.html" target="_top" xlink:title="analysis/physics/manager_t.h">
<polygon fill="white" stroke="black" points="683.947,-420.5 683.947,-441.5 829.947,-441.5 829.947,-420.5 683.947,-420.5"/>
<text text-anchor="middle" x="756.947" y="-428.5" font-family="Helvetica,sans-Serif" font-size="10.00">analysis/physics/manager_t.h</text>
</a>
</g>
<!-- Node4&#45;&gt;Node5 -->
<g id="edge8" class="edge"><title>Node4&#45;&gt;Node5</title>
<path fill="none" stroke="midnightblue" d="M756.947,-478.922C756.947,-470.67 756.947,-460.692 756.947,-451.982"/>
<polygon fill="midnightblue" stroke="midnightblue" points="760.448,-451.852 756.947,-441.852 753.448,-451.852 760.448,-451.852"/>
</g>
<!-- Node6 -->
<g id="node11" class="node"><title>Node6</title>
<a xlink:href="_t_event_data_8h.html" target="_top" xlink:title="tree/TEventData.h">
<polygon fill="white" stroke="black" points="1488.45,-420.5 1488.45,-441.5 1585.45,-441.5 1585.45,-420.5 1488.45,-420.5"/>
<text text-anchor="middle" x="1536.95" y="-428.5" font-family="Helvetica,sans-Serif" font-size="10.00">tree/TEventData.h</text>
</a>
</g>
<!-- Node4&#45;&gt;Node6 -->
<g id="edge10" class="edge"><title>Node4&#45;&gt;Node6</title>
<path fill="none" stroke="midnightblue" d="M815.574,-491.114C960.371,-479.048 1333.64,-447.942 1478.38,-435.881"/>
<polygon fill="midnightblue" stroke="midnightblue" points="1478.72,-439.364 1488.4,-435.046 1478.14,-432.389 1478.72,-439.364"/>
</g>
<!-- Node7 -->
<g id="node13" class="node"><title>Node7</title>
<a xlink:href="printable_8h.html" target="_top" xlink:title="base/printable.h">
<polygon fill="white" stroke="black" points="1624.95,-58.5 1624.95,-79.5 1710.95,-79.5 1710.95,-58.5 1624.95,-58.5"/>
<text text-anchor="middle" x="1667.95" y="-66.5" font-family="Helvetica,sans-Serif" font-size="10.00">base/printable.h</text>
</a>
</g>
<!-- Node6&#45;&gt;Node7 -->
<g id="edge12" class="edge"><title>Node6&#45;&gt;Node7</title>
<path fill="none" stroke="midnightblue" d="M1561.85,-420.485C1594.53,-405.15 1650.48,-373.234 1673.95,-326 1713.57,-246.242 1687.78,-134.673 1674.47,-89.3454"/>
<polygon fill="midnightblue" stroke="midnightblue" points="1677.75,-88.0824 1671.48,-79.5392 1671.05,-90.1254 1677.75,-88.0824"/>
</g>
<!-- Node10 -->
<g id="node19" class="node"><title>Node10</title>
<a xlink:href="_t_i_d_8h.html" target="_top" xlink:title="TID.h">
<polygon fill="white" stroke="black" points="2659.45,-246.5 2659.45,-267.5 2700.45,-267.5 2700.45,-246.5 2659.45,-246.5"/>
<text text-anchor="middle" x="2679.95" y="-254.5" font-family="Helvetica,sans-Serif" font-size="10.00">TID.h</text>
</a>
</g>
<!-- Node6&#45;&gt;Node10 -->
<g id="edge18" class="edge"><title>Node6&#45;&gt;Node10</title>
<path fill="none" stroke="midnightblue" d="M1585.7,-423.579C1779.4,-394.091 2491.75,-285.65 2649.07,-261.701"/>
<polygon fill="midnightblue" stroke="midnightblue" points="2650.06,-265.09 2659.42,-260.125 2649,-258.17 2650.06,-265.09"/>
</g>
<!-- Node25 -->
<g id="node52" class="node"><title>Node25</title>
<a xlink:href="_t_detector_read_hit_8h.html" target="_top" xlink:title="TDetectorReadHit.h">
<polygon fill="white" stroke="black" points="1731.95,-246.5 1731.95,-267.5 1835.95,-267.5 1835.95,-246.5 1731.95,-246.5"/>
<text text-anchor="middle" x="1783.95" y="-254.5" font-family="Helvetica,sans-Serif" font-size="10.00">TDetectorReadHit.h</text>
</a>
</g>
<!-- Node6&#45;&gt;Node25 -->
<g id="edge54" class="edge"><title>Node6&#45;&gt;Node25</title>
<path fill="none" stroke="midnightblue" d="M1585.5,-422.765C1631.3,-414.21 1695.83,-399.871 1715.95,-384 1734.2,-369.602 1761.8,-309.155 1775.55,-277.123"/>
<polygon fill="midnightblue" stroke="midnightblue" points="1778.81,-278.388 1779.49,-267.815 1772.37,-275.655 1778.81,-278.388"/>
</g>
<!-- Node32 -->
<g id="node80" class="node"><title>Node32</title>
<a xlink:href="_t_slow_control_8h.html" target="_top" xlink:title="TSlowControl.h">
<polygon fill="white" stroke="black" points="2688.95,-304.5 2688.95,-325.5 2772.95,-325.5 2772.95,-304.5 2688.95,-304.5"/>
<text text-anchor="middle" x="2730.95" y="-312.5" font-family="Helvetica,sans-Serif" font-size="10.00">TSlowControl.h</text>
</a>
</g>
<!-- Node6&#45;&gt;Node32 -->
<g id="edge96" class="edge"><title>Node6&#45;&gt;Node32</title>
<path fill="none" stroke="midnightblue" d="M1585.61,-426.273C1777.43,-407.636 2480.5,-339.332 2678.65,-320.081"/>
<polygon fill="midnightblue" stroke="midnightblue" points="2679.18,-323.546 2688.79,-319.095 2678.5,-316.579 2679.18,-323.546"/>
</g>
<!-- Node33 -->
<g id="node87" class="node"><title>Node33</title>
<a xlink:href="_t_unpacker_message_8h.html" target="_top" xlink:title="TUnpackerMessage.h">
<polygon fill="white" stroke="black" points="2071.45,-246.5 2071.45,-267.5 2184.45,-267.5 2184.45,-246.5 2071.45,-246.5"/>
<text text-anchor="middle" x="2127.95" y="-254.5" font-family="Helvetica,sans-Serif" font-size="10.00">TUnpackerMessage.h</text>
</a>
</g>
<!-- Node6&#45;&gt;Node33 -->
<g id="edge108" class="edge"><title>Node6&#45;&gt;Node33</title>
<path fill="none" stroke="midnightblue" d="M1585.73,-421.378C1626.71,-412.87 1686.64,-399.433 1737.95,-384 1835.98,-354.51 1856.43,-335.158 1953.95,-304 1994.1,-291.171 2040.17,-278.83 2074.82,-270.016"/>
<polygon fill="midnightblue" stroke="midnightblue" points="2075.89,-273.355 2084.73,-267.511 2074.17,-266.568 2075.89,-273.355"/>
</g>
<!-- Node42 -->
<g id="node112" class="node"><title>Node42</title>
<a xlink:href="_t_tagger_hit_8h.html" target="_top" xlink:title="TTaggerHit.h">
<polygon fill="white" stroke="black" points="1590.95,-304.5 1590.95,-325.5 1664.95,-325.5 1664.95,-304.5 1590.95,-304.5"/>
<text text-anchor="middle" x="1627.95" y="-312.5" font-family="Helvetica,sans-Serif" font-size="10.00">TTaggerHit.h</text>
</a>
</g>
<!-- Node6&#45;&gt;Node42 -->
<g id="edge140" class="edge"><title>Node6&#45;&gt;Node42</title>
<path fill="none" stroke="midnightblue" d="M1545.35,-420.295C1560.79,-400.613 1593.86,-358.45 1613.15,-333.867"/>
<polygon fill="midnightblue" stroke="midnightblue" points="1616.15,-335.707 1619.57,-325.679 1610.64,-331.387 1616.15,-335.707"/>
</g>
<!-- Node44 -->
<g id="node122" class="node"><title>Node44</title>
<a xlink:href="_t_trigger_8h.html" target="_top" xlink:title="TTrigger.h">
<polygon fill="white" stroke="black" points="137.447,-181.5 137.447,-202.5 198.447,-202.5 198.447,-181.5 137.447,-181.5"/>
<text text-anchor="middle" x="167.947" y="-189.5" font-family="Helvetica,sans-Serif" font-size="10.00">TTrigger.h</text>
</a>
</g>
<!-- Node6&#45;&gt;Node44 -->
<g id="edge156" class="edge"><title>Node6&#45;&gt;Node44</title>
<path fill="none" stroke="midnightblue" d="M1488.37,-430.138C1384.01,-427.665 1130.9,-418.323 921.947,-384 644.732,-338.464 320.304,-240.197 208.332,-204.929"/>
<polygon fill="midnightblue" stroke="midnightblue" points="209.372,-201.587 198.782,-201.911 207.263,-208.262 209.372,-201.587"/>
</g>
<!-- Node46 -->
<g id="node130" class="node"><title>Node46</title>
<a xlink:href="_t_target_8h.html" target="_top" xlink:title="TTarget.h">
<polygon fill="white" stroke="black" points="868.447,-181.5 868.447,-202.5 927.447,-202.5 927.447,-181.5 868.447,-181.5"/>
<text text-anchor="middle" x="897.947" y="-189.5" font-family="Helvetica,sans-Serif" font-size="10.00">TTarget.h</text>
</a>
</g>
<!-- Node6&#45;&gt;Node46 -->
<g id="edge168" class="edge"><title>Node6&#45;&gt;Node46</title>
<path fill="none" stroke="midnightblue" d="M1502.62,-420.459C1423.96,-396.033 1224.99,-332.687 1062.95,-268 1014.96,-248.844 960.818,-223.081 928.051,-207.012"/>
<polygon fill="midnightblue" stroke="midnightblue" points="929.517,-203.832 918.999,-202.553 926.423,-210.112 929.517,-203.832"/>
</g>
<!-- Node47 -->
<g id="node138" class="node"><title>Node47</title>
<a xlink:href="_t_cluster_8h.html" target="_top" xlink:title="TCluster.h">
<polygon fill="white" stroke="black" points="1347.95,-246.5 1347.95,-267.5 1409.95,-267.5 1409.95,-246.5 1347.95,-246.5"/>
<text text-anchor="middle" x="1378.95" y="-254.5" font-family="Helvetica,sans-Serif" font-size="10.00">TCluster.h</text>
</a>
</g>
<!-- Node6&#45;&gt;Node47 -->
<g id="edge182" class="edge"><title>Node6&#45;&gt;Node47</title>
<path fill="none" stroke="midnightblue" d="M1515.04,-420.374C1484.19,-404.281 1428.35,-370.793 1397.95,-326 1388.16,-311.581 1383.4,-292.251 1381.09,-277.719"/>
<polygon fill="midnightblue" stroke="midnightblue" points="1384.54,-277.155 1379.76,-267.702 1377.6,-278.076 1384.54,-277.155"/>
</g>
<!-- Node50 -->
<g id="node155" class="node"><title>Node50</title>
<a xlink:href="_t_candidate_8h.html" target="_top" xlink:title="TCandidate.h">
<polygon fill="white" stroke="black" points="1406.45,-304.5 1406.45,-325.5 1481.45,-325.5 1481.45,-304.5 1406.45,-304.5"/>
<text text-anchor="middle" x="1443.95" y="-312.5" font-family="Helvetica,sans-Serif" font-size="10.00">TCandidate.h</text>
</a>
</g>
<!-- Node6&#45;&gt;Node50 -->
<g id="edge210" class="edge"><title>Node6&#45;&gt;Node50</title>
<path fill="none" stroke="midnightblue" d="M1528.36,-420.295C1512.52,-400.527 1478.49,-358.08 1458.81,-333.544"/>
<polygon fill="midnightblue" stroke="midnightblue" points="1461.5,-331.292 1452.51,-325.679 1456.03,-335.671 1461.5,-331.292"/>
</g>
<!-- Node51 -->
<g id="node164" class="node"><title>Node51</title>
<a xlink:href="_t_particle_8h.html" target="_top" xlink:title="TParticle.h">
<polygon fill="white" stroke="black" points="930.947,-362.5 930.947,-383.5 994.947,-383.5 994.947,-362.5 930.947,-362.5"/>
<text text-anchor="middle" x="962.947" y="-370.5" font-family="Helvetica,sans-Serif" font-size="10.00">TParticle.h</text>
</a>
</g>
<!-- Node6&#45;&gt;Node51 -->
<g id="edge226" class="edge"><title>Node6&#45;&gt;Node51</title>
<path fill="none" stroke="midnightblue" d="M1488.44,-427.912C1397.35,-421.81 1194.58,-406.793 1024.95,-384 1018.55,-383.14 1011.8,-382.092 1005.21,-380.987"/>
<polygon fill="midnightblue" stroke="midnightblue" points="1005.5,-377.485 995.046,-379.225 1004.3,-384.382 1005.5,-377.485"/>
</g>
<!-- Node8 -->
<g id="node15" class="node"><title>Node8</title>
<polygon fill="white" stroke="#bfbfbf" points="2656.95,-0.5 2656.95,-21.5 2718.95,-21.5 2718.95,-0.5 2656.95,-0.5"/>
<text text-anchor="middle" x="2687.95" y="-8.5" font-family="Helvetica,sans-Serif" font-size="10.00">type_traits</text>
</g>
<!-- Node7&#45;&gt;Node8 -->
<g id="edge14" class="edge"><title>Node7&#45;&gt;Node8</title>
<path fill="none" stroke="midnightblue" d="M1711.22,-64.3692C1732.5,-62.2076 1758.55,-59.7349 1781.95,-58 2115,-33.305 2517.89,-17.2746 2646.44,-12.4972"/>
<polygon fill="midnightblue" stroke="midnightblue" points="2646.76,-15.9879 2656.62,-12.1211 2646.5,-8.99268 2646.76,-15.9879"/>
</g>
<!-- Node9 -->
<g id="node17" class="node"><title>Node9</title>
<polygon fill="white" stroke="#bfbfbf" points="848.947,-0.5 848.947,-21.5 900.947,-21.5 900.947,-0.5 848.947,-0.5"/>
<text text-anchor="middle" x="874.947" y="-8.5" font-family="Helvetica,sans-Serif" font-size="10.00">ostream</text>
</g>
<!-- Node7&#45;&gt;Node9 -->
<g id="edge16" class="edge"><title>Node7&#45;&gt;Node9</title>
<path fill="none" stroke="midnightblue" d="M1624.75,-65.8405C1484.23,-55.5627 1041.68,-23.1948 911.383,-13.6649"/>
<polygon fill="midnightblue" stroke="midnightblue" points="911.376,-10.1551 901.148,-12.9163 910.866,-17.1365 911.376,-10.1551"/>
</g>
<!-- Node10&#45;&gt;Node7 -->
<g id="edge22" class="edge"><title>Node10&#45;&gt;Node7</title>
<path fill="none" stroke="midnightblue" d="M2659.12,-255.778C2552.62,-249.489 2072.63,-220.649 2042.95,-210 1974.81,-185.557 1976.52,-144.424 1909.95,-116 1848.27,-89.6641 1771.42,-77.9592 1721.09,-72.8412"/>
<polygon fill="midnightblue" stroke="midnightblue" points="1721.37,-69.3519 1711.08,-71.8746 1720.69,-76.3195 1721.37,-69.3519"/>
</g>
<!-- Node10&#45;&gt;Node8 -->
<g id="edge40" class="edge"><title>Node10&#45;&gt;Node8</title>
<path fill="none" stroke="midnightblue" d="M2700.86,-256.734C2763.28,-255.508 2946.51,-248.624 2988.95,-210 3013.34,-187.798 3002.92,-170.738 3006.95,-138 3008.14,-128.295 3012.68,-123.921 3006.95,-116 2973.79,-70.1729 2807.63,-33.4931 2729.14,-18.4219"/>
<polygon fill="midnightblue" stroke="midnightblue" points="2729.59,-14.9458 2719.11,-16.5237 2728.29,-21.8236 2729.59,-14.9458"/>
</g>
<!-- Node11 -->
<g id="node21" class="node"><title>Node11</title>
<polygon fill="white" stroke="#bfbfbf" points="2651.95,-181.5 2651.95,-202.5 2707.95,-202.5 2707.95,-181.5 2651.95,-181.5"/>
<text text-anchor="middle" x="2679.95" y="-189.5" font-family="Helvetica,sans-Serif" font-size="10.00">Rtypes.h</text>
</g>
<!-- Node10&#45;&gt;Node11 -->
<g id="edge20" class="edge"><title>Node10&#45;&gt;Node11</title>
<path fill="none" stroke="midnightblue" d="M2679.95,-246.267C2679.95,-237.18 2679.95,-223.892 2679.95,-212.74"/>
<polygon fill="midnightblue" stroke="midnightblue" points="2683.45,-212.534 2679.95,-202.534 2676.45,-212.534 2683.45,-212.534"/>
</g>
<!-- Node12 -->
<g id="node24" class="node"><title>Node12</title>
<a xlink:href="time_8h.html" target="_top" xlink:title="base/std_ext/time.h">
<polygon fill="white" stroke="black" points="2857.45,-181.5 2857.45,-202.5 2960.45,-202.5 2960.45,-181.5 2857.45,-181.5"/>
<text text-anchor="middle" x="2908.95" y="-189.5" font-family="Helvetica,sans-Serif" font-size="10.00">base/std_ext/time.h</text>
</a>
</g>
<!-- Node10&#45;&gt;Node12 -->
<g id="edge24" class="edge"><title>Node10&#45;&gt;Node12</title>
<path fill="none" stroke="midnightblue" d="M2700.67,-251.117C2736.83,-240.855 2812.28,-219.439 2861.75,-205.397"/>
<polygon fill="midnightblue" stroke="midnightblue" points="2862.92,-208.704 2871.58,-202.606 2861,-201.97 2862.92,-208.704"/>
</g>
<!-- Node19 -->
<g id="node38" class="node"><title>Node19</title>
<polygon fill="white" stroke="#bfbfbf" points="2957.45,-116.5 2957.45,-137.5 2998.45,-137.5 2998.45,-116.5 2957.45,-116.5"/>
<text text-anchor="middle" x="2977.95" y="-124.5" font-family="Helvetica,sans-Serif" font-size="10.00">ctime</text>
</g>
<!-- Node10&#45;&gt;Node19 -->
<g id="edge52" class="edge"><title>Node10&#45;&gt;Node19</title>
<path fill="none" stroke="midnightblue" d="M2700.54,-255.087C2763.5,-249.044 2950.37,-229.597 2968.95,-210 2984.54,-193.558 2984.44,-166.248 2982.01,-147.474"/>
<polygon fill="midnightblue" stroke="midnightblue" points="2985.45,-146.865 2980.4,-137.552 2978.54,-147.983 2985.45,-146.865"/>
</g>
<!-- Node20 -->
<g id="node41" class="node"><title>Node20</title>
<polygon fill="white" stroke="#bfbfbf" points="2763.95,-181.5 2763.95,-202.5 2801.95,-202.5 2801.95,-181.5 2763.95,-181.5"/>
<text text-anchor="middle" x="2782.95" y="-189.5" font-family="Helvetica,sans-Serif" font-size="10.00">tuple</text>
</g>
<!-- Node10&#45;&gt;Node20 -->
<g id="edge42" class="edge"><title>Node10&#45;&gt;Node20</title>
<path fill="none" stroke="midnightblue" d="M2696.96,-246.267C2713.45,-235.855 2738.69,-219.927 2757.57,-208.016"/>
<polygon fill="midnightblue" stroke="midnightblue" points="2759.67,-210.83 2766.26,-202.534 2755.93,-204.911 2759.67,-210.83"/>
</g>
<!-- Node21 -->
<g id="node43" class="node"><title>Node21</title>
<polygon fill="white" stroke="#bfbfbf" points="2829.95,-116.5 2829.95,-137.5 2875.95,-137.5 2875.95,-116.5 2829.95,-116.5"/>
<text text-anchor="middle" x="2852.95" y="-124.5" font-family="Helvetica,sans-Serif" font-size="10.00">cstdint</text>
</g>
<!-- Node10&#45;&gt;Node21 -->
<g id="edge44" class="edge"><title>Node10&#45;&gt;Node21</title>
<path fill="none" stroke="midnightblue" d="M2688.61,-246.432C2704.93,-226.696 2739.93,-185.216 2754.95,-174 2774.95,-159.055 2800.47,-147.001 2820.44,-138.843"/>
<polygon fill="midnightblue" stroke="midnightblue" points="2821.75,-142.091 2829.76,-135.156 2819.17,-135.582 2821.75,-142.091"/>
</g>
<!-- Node22 -->
<g id="node45" class="node"><title>Node22</title>
<polygon fill="white" stroke="#bfbfbf" points="1790.45,-58.5 1790.45,-79.5 1849.45,-79.5 1849.45,-58.5 1790.45,-58.5"/>
<text text-anchor="middle" x="1819.95" y="-66.5" font-family="Helvetica,sans-Serif" font-size="10.00">stdexcept</text>
</g>
<!-- Node10&#45;&gt;Node22 -->
<g id="edge46" class="edge"><title>Node10&#45;&gt;Node22</title>
<path fill="none" stroke="midnightblue" d="M2659.31,-256.094C2561.7,-251.71 2148.9,-231.998 2095.95,-210 2036.56,-185.33 2042.64,-146.351 1985.95,-116 1945.74,-94.4772 1894.65,-81.9309 1859.83,-75.2966"/>
<polygon fill="midnightblue" stroke="midnightblue" points="1860.05,-71.778 1849.58,-73.424 1858.79,-78.664 1860.05,-71.778"/>
</g>
<!-- Node10&#45;&gt;Node23 -->
<g id="edge48" class="edge"><title>Node10&#45;&gt;Node23</title>
<path fill="none" stroke="midnightblue" d="M2659.06,-256.49C2591.61,-254.85 2373.47,-249.613 2192.95,-246 2078.29,-243.705 235.963,-251.232 128.947,-210 124.364,-208.234 79.5321,-168.166 53.1265,-144.357"/>
<polygon fill="midnightblue" stroke="midnightblue" points="55.3559,-141.655 45.5881,-137.551 50.6648,-146.85 55.3559,-141.655"/>
</g>
<!-- Node24 -->
<g id="node49" class="node"><title>Node24</title>
<polygon fill="white" stroke="#bfbfbf" points="1589.95,-181.5 1589.95,-202.5 1639.95,-202.5 1639.95,-181.5 1589.95,-181.5"/>
<text text-anchor="middle" x="1614.95" y="-189.5" font-family="Helvetica,sans-Serif" font-size="10.00">iomanip</text>
</g>
<!-- Node10&#45;&gt;Node24 -->
<g id="edge50" class="edge"><title>Node10&#45;&gt;Node24</title>
<path fill="none" stroke="midnightblue" d="M2659.12,-256.809C2557.08,-255.698 2099.92,-248.693 1727.95,-210 1701.68,-207.268 1672.22,-202.519 1649.97,-198.585"/>
<polygon fill="midnightblue" stroke="midnightblue" points="1650.44,-195.114 1639.98,-196.788 1649.2,-202.003 1650.44,-195.114"/>
</g>
<!-- Node13 -->
<g id="node26" class="node"><title>Node13</title>
<a xlink:href="string_8h.html" target="_top" xlink:title="base/std_ext/string.h">
<polygon fill="white" stroke="black" points="2551.95,-116.5 2551.95,-137.5 2659.95,-137.5 2659.95,-116.5 2551.95,-116.5"/>
<text text-anchor="middle" x="2605.95" y="-124.5" font-family="Helvetica,sans-Serif" font-size="10.00">base/std_ext/string.h</text>
</a>
</g>
<!-- Node12&#45;&gt;Node13 -->
<g id="edge26" class="edge"><title>Node12&#45;&gt;Node13</title>
<path fill="none" stroke="midnightblue" d="M2859.93,-181.484C2806.68,-170.062 2721.64,-151.818 2664.81,-139.628"/>
<polygon fill="midnightblue" stroke="midnightblue" points="2665.41,-136.176 2654.9,-137.501 2663.94,-143.02 2665.41,-136.176"/>
</g>
<!-- Node18 -->
<g id="node36" class="node"><title>Node18</title>
<polygon fill="white" stroke="#bfbfbf" points="2893.95,-116.5 2893.95,-137.5 2939.95,-137.5 2939.95,-116.5 2893.95,-116.5"/>
<text text-anchor="middle" x="2916.95" y="-124.5" font-family="Helvetica,sans-Serif" font-size="10.00">cstring</text>
</g>
<!-- Node12&#45;&gt;Node18 -->
<g id="edge36" class="edge"><title>Node12&#45;&gt;Node18</title>
<path fill="none" stroke="midnightblue" d="M2910.27,-181.267C2911.39,-172.18 2913.02,-158.892 2914.39,-147.74"/>
<polygon fill="midnightblue" stroke="midnightblue" points="2917.9,-147.886 2915.65,-137.534 2910.96,-147.031 2917.9,-147.886"/>
</g>
<!-- Node12&#45;&gt;Node19 -->
<g id="edge38" class="edge"><title>Node12&#45;&gt;Node19</title>
<path fill="none" stroke="midnightblue" d="M2920.34,-181.267C2930.89,-171.328 2946.78,-156.363 2959.2,-144.664"/>
<polygon fill="midnightblue" stroke="midnightblue" points="2961.89,-146.938 2966.77,-137.534 2957.09,-141.843 2961.89,-146.938"/>
</g>
<!-- Node14 -->
<g id="node28" class="node"><title>Node14</title>
<polygon fill="white" stroke="#bfbfbf" points="2003.45,-58.5 2003.45,-79.5 2044.45,-79.5 2044.45,-58.5 2003.45,-58.5"/>
<text text-anchor="middle" x="2023.95" y="-66.5" font-family="Helvetica,sans-Serif" font-size="10.00">string</text>
</g>
<!-- Node13&#45;&gt;Node14 -->
<g id="edge28" class="edge"><title>Node13&#45;&gt;Node14</title>
<path fill="none" stroke="midnightblue" d="M2551.7,-117.235C2548.74,-116.794 2545.81,-116.379 2542.95,-116 2358.77,-91.6245 2136.14,-76.1136 2055.24,-70.9294"/>
<polygon fill="midnightblue" stroke="midnightblue" points="2054.98,-67.4063 2044.78,-70.2666 2054.54,-74.3923 2054.98,-67.4063"/>
</g>
<!-- Node15 -->
<g id="node30" class="node"><title>Node15</title>
<polygon fill="white" stroke="#bfbfbf" points="2737.95,-58.5 2737.95,-79.5 2789.95,-79.5 2789.95,-58.5 2737.95,-58.5"/>
<text text-anchor="middle" x="2763.95" y="-66.5" font-family="Helvetica,sans-Serif" font-size="10.00">sstream</text>
</g>
<!-- Node13&#45;&gt;Node15 -->
<g id="edge30" class="edge"><title>Node13&#45;&gt;Node15</title>
<path fill="none" stroke="midnightblue" d="M2634.56,-116.497C2660.89,-106.831 2700.04,-92.4602 2728.37,-82.0588"/>
<polygon fill="midnightblue" stroke="midnightblue" points="2729.72,-85.2912 2737.91,-78.5595 2727.31,-78.72 2729.72,-85.2912"/>
</g>
<!-- Node16 -->
<g id="node32" class="node"><title>Node16</title>
<polygon fill="white" stroke="#bfbfbf" points="716.947,-58.5 716.947,-79.5 772.947,-79.5 772.947,-58.5 716.947,-58.5"/>
<text text-anchor="middle" x="744.947" y="-66.5" font-family="Helvetica,sans-Serif" font-size="10.00">algorithm</text>
</g>
<!-- Node13&#45;&gt;Node16 -->
<g id="edge32" class="edge"><title>Node13&#45;&gt;Node16</title>
<path fill="none" stroke="midnightblue" d="M2551.72,-117.012C2548.76,-116.629 2545.82,-116.287 2542.95,-116 2362.41,-97.9771 1027.66,-73.9394 783.306,-69.6641"/>
<polygon fill="midnightblue" stroke="midnightblue" points="783.198,-66.1618 773.139,-69.4866 783.076,-73.1607 783.198,-66.1618"/>
</g>
<!-- Node17 -->
<g id="node34" class="node"><title>Node17</title>
<polygon fill="white" stroke="#bfbfbf" points="1419.95,-58.5 1419.95,-79.5 1463.95,-79.5 1463.95,-58.5 1419.95,-58.5"/>
<text text-anchor="middle" x="1441.95" y="-66.5" font-family="Helvetica,sans-Serif" font-size="10.00">vector</text>
</g>
<!-- Node13&#45;&gt;Node17 -->
<g id="edge34" class="edge"><title>Node13&#45;&gt;Node17</title>
<path fill="none" stroke="midnightblue" d="M2551.72,-117.056C2548.76,-116.661 2545.82,-116.305 2542.95,-116 2132.94,-72.4433 2027.72,-101.008 1615.95,-80 1566.5,-77.4772 1509.2,-73.6872 1474.27,-71.2795"/>
<polygon fill="midnightblue" stroke="midnightblue" points="1474.4,-67.7802 1464.19,-70.5796 1473.92,-74.7634 1474.4,-67.7802"/>
</g>
<!-- Node25&#45;&gt;Node15 -->
<g id="edge94" class="edge"><title>Node25&#45;&gt;Node15</title>
<path fill="none" stroke="midnightblue" d="M1835.97,-254.681C2004.7,-247.052 2527.89,-222.506 2561.95,-210 2586.98,-200.808 2586.02,-185.763 2609.95,-174 2663.75,-147.555 2696.21,-179.002 2739.95,-138 2753.35,-125.436 2759.27,-105.001 2761.88,-89.6233"/>
<polygon fill="midnightblue" stroke="midnightblue" points="2765.38,-89.8859 2763.26,-79.5049 2758.44,-88.9408 2765.38,-89.8859"/>
</g>
<!-- Node25&#45;&gt;Node24 -->
<g id="edge92" class="edge"><title>Node25&#45;&gt;Node24</title>
<path fill="none" stroke="midnightblue" d="M1756.42,-246.412C1727.3,-235.213 1681.29,-217.517 1649.7,-205.364"/>
<polygon fill="midnightblue" stroke="midnightblue" points="1650.57,-201.952 1639.98,-201.629 1648.06,-208.486 1650.57,-201.952"/>
</g>
<!-- Node26 -->
<g id="node54" class="node"><title>Node26</title>
<a xlink:href="_detector__t_8h.html" target="_top" xlink:title="base/Detector_t.h">
<polygon fill="white" stroke="black" points="1736.45,-181.5 1736.45,-202.5 1831.45,-202.5 1831.45,-181.5 1736.45,-181.5"/>
<text text-anchor="middle" x="1783.95" y="-189.5" font-family="Helvetica,sans-Serif" font-size="10.00">base/Detector_t.h</text>
</a>
</g>
<!-- Node25&#45;&gt;Node26 -->
<g id="edge56" class="edge"><title>Node25&#45;&gt;Node26</title>
<path fill="none" stroke="midnightblue" d="M1783.95,-246.267C1783.95,-237.18 1783.95,-223.892 1783.95,-212.74"/>
<polygon fill="midnightblue" stroke="midnightblue" points="1787.45,-212.534 1783.95,-202.534 1780.45,-212.534 1787.45,-212.534"/>
</g>
<!-- Node26&#45;&gt;Node7 -->
<g id="edge58" class="edge"><title>Node26&#45;&gt;Node7</title>
<path fill="none" stroke="midnightblue" d="M1775.68,-181.285C1763.89,-166.203 1741.27,-138.088 1719.95,-116 1710.04,-105.741 1698.31,-95.0259 1688.5,-86.4217"/>
<polygon fill="midnightblue" stroke="midnightblue" points="1690.64,-83.6475 1680.79,-79.7471 1686.06,-88.9392 1690.64,-83.6475"/>
</g>
<!-- Node26&#45;&gt;Node8 -->
<g id="edge88" class="edge"><title>Node26&#45;&gt;Node8</title>
<path fill="none" stroke="midnightblue" d="M1831.73,-189.184C2015.54,-178.339 2667,-139.786 2668.95,-138 2698.26,-111.145 2695.96,-60.0783 2691.86,-31.5624"/>
<polygon fill="midnightblue" stroke="midnightblue" points="2695.28,-30.8057 2690.2,-21.508 2688.37,-31.9441 2695.28,-30.8057"/>
</g>
<!-- Node26&#45;&gt;Node14 -->
<g id="edge86" class="edge"><title>Node26&#45;&gt;Node14</title>
<path fill="none" stroke="midnightblue" d="M1804.83,-181.3C1847.49,-159.437 1944.77,-109.578 1994.09,-84.3002"/>
<polygon fill="midnightblue" stroke="midnightblue" points="1995.99,-87.2637 2003.29,-79.588 1992.79,-81.0341 1995.99,-87.2637"/>
</g>
<!-- Node26&#45;&gt;Node17 -->
<g id="edge90" class="edge"><title>Node26&#45;&gt;Node17</title>
<path fill="none" stroke="midnightblue" d="M1754.49,-181.407C1690.54,-158.405 1539.42,-104.056 1473.56,-80.3683"/>
<polygon fill="midnightblue" stroke="midnightblue" points="1474.71,-77.0618 1464.11,-76.971 1472.34,-83.6488 1474.71,-77.0618"/>
</g>
<!-- Node26&#45;&gt;Node21 -->
<g id="edge82" class="edge"><title>Node26&#45;&gt;Node21</title>
<path fill="none" stroke="midnightblue" d="M1831.67,-189.232C2007.7,-179.017 2614.93,-143.729 2701.95,-138 2742.54,-135.328 2789.23,-131.867 2819.82,-129.547"/>
<polygon fill="midnightblue" stroke="midnightblue" points="2820.23,-133.026 2829.93,-128.777 2819.69,-126.046 2820.23,-133.026"/>
</g>
<!-- Node26&#45;&gt;Node22 -->
<g id="edge84" class="edge"><title>Node26&#45;&gt;Node22</title>
<path fill="none" stroke="midnightblue" d="M1787.14,-181.085C1793.16,-160.518 1806.27,-115.735 1813.97,-89.4262"/>
<polygon fill="midnightblue" stroke="midnightblue" points="1817.36,-90.2959 1816.81,-79.7153 1810.64,-88.3296 1817.36,-90.2959"/>
</g>
<!-- Node27 -->
<g id="node57" class="node"><title>Node27</title>
<a xlink:href="vec3_8h.html" target="_top" xlink:title="base/vec/vec3.h">
<polygon fill="white" stroke="black" points="1285.45,-116.5 1285.45,-137.5 1374.45,-137.5 1374.45,-116.5 1285.45,-116.5"/>
<text text-anchor="middle" x="1329.95" y="-124.5" font-family="Helvetica,sans-Serif" font-size="10.00">base/vec/vec3.h</text>
</a>
</g>
<!-- Node26&#45;&gt;Node27 -->
<g id="edge60" class="edge"><title>Node26&#45;&gt;Node27</title>
<path fill="none" stroke="midnightblue" d="M1736.22,-185.167C1651.27,-173.005 1474.38,-147.678 1384.66,-134.833"/>
<polygon fill="midnightblue" stroke="midnightblue" points="1385.08,-131.358 1374.68,-133.405 1384.09,-138.287 1385.08,-131.358"/>
</g>
<!-- Node30 -->
<g id="node65" class="node"><title>Node30</title>
<a xlink:href="math_8h.html" target="_top" xlink:title="base/std_ext/math.h">
<polygon fill="white" stroke="black" points="867.947,-116.5 867.947,-137.5 973.947,-137.5 973.947,-116.5 867.947,-116.5"/>
<text text-anchor="middle" x="920.947" y="-124.5" font-family="Helvetica,sans-Serif" font-size="10.00">base/std_ext/math.h</text>
</a>
</g>
<!-- Node26&#45;&gt;Node30 -->
<g id="edge70" class="edge"><title>Node26&#45;&gt;Node30</title>
<path fill="none" stroke="midnightblue" d="M1736.25,-184.793C1710.45,-181.109 1678.01,-176.821 1648.95,-174 1387.47,-148.623 1321.01,-156.438 1058.95,-138 1034.51,-136.281 1007.66,-134.187 984.19,-132.289"/>
<polygon fill="midnightblue" stroke="midnightblue" points="984.261,-128.784 974.011,-131.462 983.694,-135.761 984.261,-128.784"/>
</g>
<!-- Node27&#45;&gt;Node7 -->
<g id="edge62" class="edge"><title>Node27&#45;&gt;Node7</title>
<path fill="none" stroke="midnightblue" d="M1374.48,-119.358C1436.42,-108.73 1548.41,-89.5129 1614.69,-78.1394"/>
<polygon fill="midnightblue" stroke="midnightblue" points="1615.65,-81.5248 1624.92,-76.3839 1614.47,-74.6257 1615.65,-81.5248"/>
</g>
<!-- Node28 -->
<g id="node60" class="node"><title>Node28</title>
<a xlink:href="vec2_8h.html" target="_top" xlink:title="vec2.h">
<polygon fill="white" stroke="black" points="1355.95,-58.5 1355.95,-79.5 1401.95,-79.5 1401.95,-58.5 1355.95,-58.5"/>
<text text-anchor="middle" x="1378.95" y="-66.5" font-family="Helvetica,sans-Serif" font-size="10.00">vec2.h</text>
</a>
</g>
<!-- Node27&#45;&gt;Node28 -->
<g id="edge64" class="edge"><title>Node27&#45;&gt;Node28</title>
<path fill="none" stroke="midnightblue" d="M1338.93,-116.362C1345.77,-108.268 1355.35,-96.9318 1363.42,-87.3796"/>
<polygon fill="midnightblue" stroke="midnightblue" points="1366.24,-89.4683 1370.02,-79.5707 1360.89,-84.9508 1366.24,-89.4683"/>
</g>
<!-- Node29 -->
<g id="node62" class="node"><title>Node29</title>
<polygon fill="white" stroke="#bfbfbf" points="1356.95,-0.5 1356.95,-21.5 1400.95,-21.5 1400.95,-0.5 1356.95,-0.5"/>
<text text-anchor="middle" x="1378.95" y="-8.5" font-family="Helvetica,sans-Serif" font-size="10.00">cmath</text>
</g>
<!-- Node27&#45;&gt;Node29 -->
<g id="edge68" class="edge"><title>Node27&#45;&gt;Node29</title>
<path fill="none" stroke="midnightblue" d="M1331.37,-116.331C1333.49,-102.435 1338.2,-77.6043 1346.95,-58 1351.38,-48.0696 1357.92,-37.9829 1363.94,-29.7131"/>
<polygon fill="midnightblue" stroke="midnightblue" points="1366.88,-31.6278 1370.13,-21.546 1361.3,-27.3963 1366.88,-31.6278"/>
</g>
<!-- Node28&#45;&gt;Node29 -->
<g id="edge66" class="edge"><title>Node28&#45;&gt;Node29</title>
<path fill="none" stroke="midnightblue" d="M1378.95,-58.3619C1378.95,-50.9219 1378.95,-40.7427 1378.95,-31.7276"/>
<polygon fill="midnightblue" stroke="midnightblue" points="1382.45,-31.5706 1378.95,-21.5707 1375.45,-31.5707 1382.45,-31.5706"/>
</g>
<!-- Node30&#45;&gt;Node16 -->
<g id="edge78" class="edge"><title>Node30&#45;&gt;Node16</title>
<path fill="none" stroke="midnightblue" d="M889.075,-116.497C859.22,-106.658 814.573,-91.9449 782.893,-81.5049"/>
<polygon fill="midnightblue" stroke="midnightblue" points="783.691,-78.0828 773.098,-78.277 781.5,-84.7311 783.691,-78.0828"/>
</g>
<!-- Node30&#45;&gt;Node17 -->
<g id="edge76" class="edge"><title>Node30&#45;&gt;Node17</title>
<path fill="none" stroke="midnightblue" d="M974.287,-117.859C978.901,-117.185 983.502,-116.553 987.947,-116 1171.98,-93.0966 1224.73,-118.96 1410.01,-79.733"/>
<polygon fill="midnightblue" stroke="midnightblue" points="1410.75,-83.1528 1419.79,-77.6273 1409.28,-76.3094 1410.75,-83.1528"/>
</g>
<!-- Node30&#45;&gt;Node22 -->
<g id="edge80" class="edge"><title>Node30&#45;&gt;Node22</title>
<path fill="none" stroke="midnightblue" d="M974.005,-122.457C999.654,-120.341 1030.89,-117.882 1058.95,-116 1352.5,-96.3096 1426.72,-104.094 1719.95,-80 1739.83,-78.3663 1761.88,-76.0007 1780.2,-73.8815"/>
<polygon fill="midnightblue" stroke="midnightblue" points="1780.71,-77.3456 1790.23,-72.7028 1779.89,-70.3934 1780.71,-77.3456"/>
</g>
<!-- Node30&#45;&gt;Node29 -->
<g id="edge72" class="edge"><title>Node30&#45;&gt;Node29</title>
<path fill="none" stroke="midnightblue" d="M962.806,-116.398C1053.26,-93.489 1265.33,-39.7774 1346.53,-19.211"/>
<polygon fill="midnightblue" stroke="midnightblue" points="1347.82,-22.4952 1356.65,-16.647 1346.1,-15.7094 1347.82,-22.4952"/>
</g>
<!-- Node31 -->
<g id="node68" class="node"><title>Node31</title>
<polygon fill="white" stroke="#bfbfbf" points="480.947,-58.5 480.947,-79.5 520.947,-79.5 520.947,-58.5 480.947,-58.5"/>
<text text-anchor="middle" x="500.947" y="-66.5" font-family="Helvetica,sans-Serif" font-size="10.00">limits</text>
</g>
<!-- Node30&#45;&gt;Node31 -->
<g id="edge74" class="edge"><title>Node30&#45;&gt;Node31</title>
<path fill="none" stroke="midnightblue" d="M867.91,-121.063C779.879,-111.086 607.309,-90.9757 546.947,-80 541.729,-79.0511 536.215,-77.8808 530.888,-76.6611"/>
<polygon fill="midnightblue" stroke="midnightblue" points="531.538,-73.218 520.999,-74.3002 529.912,-80.0267 531.538,-73.218"/>
</g>
<!-- Node32&#45;&gt;Node7 -->
<g id="edge102" class="edge"><title>Node32&#45;&gt;Node7</title>
<path fill="none" stroke="midnightblue" d="M2688.8,-309.826C2540.7,-291.545 2049.41,-230.021 1980.95,-210 1884.74,-181.866 1867.46,-156.889 1775.95,-116 1751.18,-104.932 1723.07,-92.7119 1701.74,-83.5068"/>
<polygon fill="midnightblue" stroke="midnightblue" points="1703.02,-80.2481 1692.46,-79.5046 1700.25,-86.6766 1703.02,-80.2481"/>
</g>
<!-- Node32&#45;&gt;Node10 -->
<g id="edge98" class="edge"><title>Node32&#45;&gt;Node10</title>
<path fill="none" stroke="midnightblue" d="M2721.59,-304.362C2714.4,-296.186 2704.31,-284.702 2695.85,-275.091"/>
<polygon fill="midnightblue" stroke="midnightblue" points="2698.47,-272.769 2689.24,-267.571 2693.22,-277.392 2698.47,-272.769"/>
</g>
<!-- Node32&#45;&gt;Node12 -->
<g id="edge100" class="edge"><title>Node32&#45;&gt;Node12</title>
<path fill="none" stroke="midnightblue" d="M2768.05,-304.473C2791.26,-296.746 2821.01,-284.682 2843.95,-268 2865.51,-252.32 2884.59,-228.105 2896.41,-211.236"/>
<polygon fill="midnightblue" stroke="midnightblue" points="2899.47,-212.959 2902.2,-202.721 2893.68,-209.024 2899.47,-212.959"/>
</g>
<!-- Node32&#45;&gt;Node20 -->
<g id="edge106" class="edge"><title>Node32&#45;&gt;Node20</title>
<path fill="none" stroke="midnightblue" d="M2735.56,-304.085C2744.3,-283.427 2763.36,-238.337 2774.46,-212.076"/>
<polygon fill="midnightblue" stroke="midnightblue" points="2777.75,-213.289 2778.42,-202.715 2771.3,-210.563 2777.75,-213.289"/>
</g>
<!-- Node32&#45;&gt;Node21 -->
<g id="edge104" class="edge"><title>Node32&#45;&gt;Node21</title>
<path fill="none" stroke="midnightblue" d="M2740.17,-304.365C2748.23,-294.962 2760.14,-280.791 2769.95,-268 2789.15,-242.946 2794.67,-237.045 2810.95,-210 2823.43,-189.261 2835.7,-164.354 2843.72,-147.269"/>
<polygon fill="midnightblue" stroke="midnightblue" points="2847.1,-148.294 2848.13,-137.749 2840.75,-145.352 2847.1,-148.294"/>
</g>
<!-- Node33&#45;&gt;Node7 -->
<g id="edge138" class="edge"><title>Node33&#45;&gt;Node7</title>
<path fill="none" stroke="midnightblue" d="M2071.4,-247.554C2014.65,-237.668 1931.38,-221.952 1900.95,-210 1895.4,-207.821 1753.94,-121.539 1694.19,-85.0409"/>
<polygon fill="midnightblue" stroke="midnightblue" points="1695.7,-81.858 1685.34,-79.6311 1692.05,-87.8314 1695.7,-81.858"/>
</g>
<!-- Node34 -->
<g id="node89" class="node"><title>Node34</title>
<a xlink:href="_format_8h.html" target="_top" xlink:title="base/Format.h">
<polygon fill="white" stroke="black" points="2104.95,-181.5 2104.95,-202.5 2184.95,-202.5 2184.95,-181.5 2104.95,-181.5"/>
<text text-anchor="middle" x="2144.95" y="-189.5" font-family="Helvetica,sans-Serif" font-size="10.00">base/Format.h</text>
</a>
</g>
<!-- Node33&#45;&gt;Node34 -->
<g id="edge110" class="edge"><title>Node33&#45;&gt;Node34</title>
<path fill="none" stroke="midnightblue" d="M2130.75,-246.267C2133.16,-237.085 2136.68,-223.615 2139.61,-212.392"/>
<polygon fill="midnightblue" stroke="midnightblue" points="2143.05,-213.094 2142.19,-202.534 2136.28,-211.323 2143.05,-213.094"/>
</g>
<!-- Node34&#45;&gt;Node14 -->
<g id="edge130" class="edge"><title>Node34&#45;&gt;Node14</title>
<path fill="none" stroke="midnightblue" d="M2140.63,-181.355C2133.83,-165.601 2119.38,-135.813 2099.95,-116 2086.63,-102.426 2068.65,-91.0767 2053.51,-82.9329"/>
<polygon fill="midnightblue" stroke="midnightblue" points="2055.02,-79.7706 2044.53,-78.2853 2051.8,-85.9882 2055.02,-79.7706"/>
</g>
<!-- Node34&#45;&gt;Node17 -->
<g id="edge132" class="edge"><title>Node34&#45;&gt;Node17</title>
<path fill="none" stroke="midnightblue" d="M2104.88,-184.99C1978.27,-162.838 1588.4,-94.6244 1473.89,-74.5885"/>
<polygon fill="midnightblue" stroke="midnightblue" points="1474.44,-71.1316 1463.98,-72.8557 1473.23,-78.0269 1474.44,-71.1316"/>
</g>
<!-- Node34&#45;&gt;Node18 -->
<g id="edge122" class="edge"><title>Node34&#45;&gt;Node18</title>
<path fill="none" stroke="midnightblue" d="M2185.37,-190.426C2316.53,-185.108 2730.13,-166.634 2883.56,-137.767"/>
<polygon fill="midnightblue" stroke="midnightblue" points="2884.59,-141.132 2893.72,-135.76 2883.23,-134.265 2884.59,-141.132"/>
</g>
<!-- Node34&#45;&gt;Node22 -->
<g id="edge128" class="edge"><title>Node34&#45;&gt;Node22</title>
<path fill="none" stroke="midnightblue" d="M2136.78,-181.457C2123.2,-164.709 2094.23,-132.261 2061.95,-116 2027.06,-98.4271 1918.88,-82.0183 1859.67,-74.0482"/>
<polygon fill="midnightblue" stroke="midnightblue" points="1859.94,-70.5527 1849.56,-72.7054 1859.02,-77.4917 1859.94,-70.5527"/>
</g>
<!-- Node34&#45;&gt;Node29 -->
<g id="edge118" class="edge"><title>Node34&#45;&gt;Node29</title>
<path fill="none" stroke="midnightblue" d="M2143.68,-181.36C2141.43,-165.874 2135.6,-136.717 2121.95,-116 2099.9,-82.5522 2090.09,-73.0199 2052.95,-58 1993.12,-33.8031 1538.01,-16.4731 1411.49,-12.0869"/>
<polygon fill="midnightblue" stroke="midnightblue" points="1411.4,-8.5817 1401.28,-11.7365 1411.16,-15.5776 1411.4,-8.5817"/>
</g>
<!-- Node34&#45;&gt;Node31 -->
<g id="edge124" class="edge"><title>Node34&#45;&gt;Node31</title>
<path fill="none" stroke="midnightblue" d="M2104.51,-189.208C2046.13,-185.268 1934.81,-178.103 1839.95,-174 1767.27,-170.857 591.232,-178.722 530.947,-138 514.941,-127.188 507.416,-105.844 503.916,-89.7428"/>
<polygon fill="midnightblue" stroke="midnightblue" points="507.309,-88.8418 502.08,-79.6274 500.422,-90.0917 507.309,-88.8418"/>
</g>
<!-- Node35 -->
<g id="node91" class="node"><title>Node35</title>
<polygon fill="white" stroke="#bfbfbf" points="2373.95,-116.5 2373.95,-137.5 2469.95,-137.5 2469.95,-116.5 2373.95,-116.5"/>
<text text-anchor="middle" x="2421.95" y="-124.5" font-family="Helvetica,sans-Serif" font-size="10.00">detail/fmt/format.h</text>
</g>
<!-- Node34&#45;&gt;Node35 -->
<g id="edge112" class="edge"><title>Node34&#45;&gt;Node35</title>
<path fill="none" stroke="midnightblue" d="M2185.23,-182.548C2233.15,-171.302 2313.41,-152.469 2367.01,-139.892"/>
<polygon fill="midnightblue" stroke="midnightblue" points="2368.09,-143.234 2377.02,-137.542 2366.49,-136.419 2368.09,-143.234"/>
</g>
<!-- Node36 -->
<g id="node93" class="node"><title>Node36</title>
<polygon fill="white" stroke="#bfbfbf" points="1067.45,-116.5 1067.45,-137.5 1116.45,-137.5 1116.45,-116.5 1067.45,-116.5"/>
<text text-anchor="middle" x="1091.95" y="-124.5" font-family="Helvetica,sans-Serif" font-size="10.00">cassert</text>
</g>
<!-- Node34&#45;&gt;Node36 -->
<g id="edge114" class="edge"><title>Node34&#45;&gt;Node36</title>
<path fill="none" stroke="midnightblue" d="M2104.5,-189.538C2046.09,-185.999 1934.75,-179.318 1839.95,-174 1539.11,-157.124 1462.65,-169.105 1162.95,-138 1151.07,-136.768 1138.16,-134.919 1126.63,-133.088"/>
<polygon fill="midnightblue" stroke="midnightblue" points="1126.95,-129.593 1116.51,-131.429 1125.81,-136.501 1126.95,-129.593"/>
</g>
<!-- Node37 -->
<g id="node95" class="node"><title>Node37</title>
<polygon fill="white" stroke="#bfbfbf" points="2487.45,-116.5 2487.45,-137.5 2534.45,-137.5 2534.45,-116.5 2487.45,-116.5"/>
<text text-anchor="middle" x="2510.95" y="-124.5" font-family="Helvetica,sans-Serif" font-size="10.00">clocale</text>
</g>
<!-- Node34&#45;&gt;Node37 -->
<g id="edge116" class="edge"><title>Node34&#45;&gt;Node37</title>
<path fill="none" stroke="midnightblue" d="M2184.98,-187.768C2246.27,-180.805 2367.05,-165.168 2477.36,-138.108"/>
<polygon fill="midnightblue" stroke="midnightblue" points="2478.46,-141.441 2487.32,-135.627 2476.77,-134.649 2478.46,-141.441"/>
</g>
<!-- Node38 -->
<g id="node98" class="node"><title>Node38</title>
<polygon fill="white" stroke="#bfbfbf" points="2189.45,-116.5 2189.45,-137.5 2232.45,-137.5 2232.45,-116.5 2189.45,-116.5"/>
<text text-anchor="middle" x="2210.95" y="-124.5" font-family="Helvetica,sans-Serif" font-size="10.00">cstdio</text>
</g>
<!-- Node34&#45;&gt;Node38 -->
<g id="edge120" class="edge"><title>Node34&#45;&gt;Node38</title>
<path fill="none" stroke="midnightblue" d="M2155.85,-181.267C2165.94,-171.328 2181.13,-156.363 2193.01,-144.664"/>
<polygon fill="midnightblue" stroke="midnightblue" points="2195.58,-147.044 2200.25,-137.534 2190.67,-142.057 2195.58,-147.044"/>
</g>
<!-- Node34&#45;&gt;Node39 -->
<g id="edge126" class="edge"><title>Node34&#45;&gt;Node39</title>
<path fill="none" stroke="midnightblue" d="M2104.52,-189.137C2046.13,-185.111 1934.82,-177.841 1839.95,-174 1479.66,-159.412 578.45,-196.458 204.229,-137.731"/>
<polygon fill="midnightblue" stroke="midnightblue" points="204.557,-134.239 194.127,-136.101 203.442,-141.149 204.557,-134.239"/>
</g>
<!-- Node40 -->
<g id="node107" class="node"><title>Node40</title>
<polygon fill="white" stroke="#bfbfbf" points="2249.95,-116.5 2249.95,-137.5 2289.95,-137.5 2289.95,-116.5 2249.95,-116.5"/>
<text text-anchor="middle" x="2269.95" y="-124.5" font-family="Helvetica,sans-Serif" font-size="10.00">utility</text>
</g>
<!-- Node34&#45;&gt;Node40 -->
<g id="edge134" class="edge"><title>Node34&#45;&gt;Node40</title>
<path fill="none" stroke="midnightblue" d="M2165.31,-181.412C2185.74,-170.788 2217.41,-154.318 2240.56,-142.28"/>
<polygon fill="midnightblue" stroke="midnightblue" points="2242.34,-145.302 2249.59,-137.584 2239.11,-139.092 2242.34,-145.302"/>
</g>
<!-- Node41 -->
<g id="node109" class="node"><title>Node41</title>
<polygon fill="white" stroke="#bfbfbf" points="2307.45,-116.5 2307.45,-137.5 2356.45,-137.5 2356.45,-116.5 2307.45,-116.5"/>
<text text-anchor="middle" x="2331.95" y="-124.5" font-family="Helvetica,sans-Serif" font-size="10.00">stdint.h</text>
</g>
<!-- Node34&#45;&gt;Node41 -->
<g id="edge136" class="edge"><title>Node34&#45;&gt;Node41</title>
<path fill="none" stroke="midnightblue" d="M2175.41,-181.412C2208.85,-169.789 2262.42,-151.166 2297.4,-139.007"/>
<polygon fill="midnightblue" stroke="midnightblue" points="2298.88,-142.198 2307.18,-135.609 2296.59,-135.586 2298.88,-142.198"/>
</g>
<!-- Node42&#45;&gt;Node7 -->
<g id="edge144" class="edge"><title>Node42&#45;&gt;Node7</title>
<path fill="none" stroke="midnightblue" d="M1630.32,-304.309C1634.47,-285.371 1643.15,-244.654 1648.95,-210 1656.07,-167.39 1662.33,-117.187 1665.58,-89.6565"/>
<polygon fill="midnightblue" stroke="midnightblue" points="1669.07,-89.9853 1666.75,-79.6473 1662.11,-89.1749 1669.07,-89.9853"/>
</g>
<!-- Node42&#45;&gt;Node10 -->
<g id="edge142" class="edge"><title>Node42&#45;&gt;Node10</title>
<path fill="none" stroke="midnightblue" d="M1665.08,-312.953C1830.4,-303.838 2497.99,-267.032 2649.33,-258.688"/>
<polygon fill="midnightblue" stroke="midnightblue" points="2649.53,-262.182 2659.32,-258.137 2649.15,-255.193 2649.53,-262.182"/>
</g>
<!-- Node42&#45;&gt;Node15 -->
<g id="edge154" class="edge"><title>Node42&#45;&gt;Node15</title>
<path fill="none" stroke="midnightblue" d="M1665.16,-314.186C1830.61,-310.445 2500.4,-293.962 2708.95,-268 2835.06,-252.3 2897.27,-298.015 2988.95,-210 3019.63,-180.541 3034.02,-148.81 3006.95,-116 2993.87,-100.145 2864.58,-81.7336 2800.11,-73.4453"/>
<polygon fill="midnightblue" stroke="midnightblue" points="2800.34,-69.9462 2789.98,-72.1573 2799.46,-76.8904 2800.34,-69.9462"/>
</g>
<!-- Node42&#45;&gt;Node17 -->
<g id="edge150" class="edge"><title>Node42&#45;&gt;Node17</title>
<path fill="none" stroke="midnightblue" d="M1619.96,-304.43C1591.22,-266.423 1492.89,-136.38 1456.04,-87.6443"/>
<polygon fill="midnightblue" stroke="midnightblue" points="1458.73,-85.3967 1449.91,-79.5309 1453.15,-89.6184 1458.73,-85.3967"/>
</g>
<!-- Node42&#45;&gt;Node24 -->
<g id="edge152" class="edge"><title>Node42&#45;&gt;Node24</title>
<path fill="none" stroke="midnightblue" d="M1626.79,-304.085C1624.63,-283.609 1619.93,-239.133 1617.14,-212.778"/>
<polygon fill="midnightblue" stroke="midnightblue" points="1620.61,-212.292 1616.08,-202.715 1613.65,-213.028 1620.61,-212.292"/>
</g>
<!-- Node43 -->
<g id="node116" class="node"><title>Node43</title>
<a xlink:href="_lorentz_vec_8h.html" target="_top" xlink:title="base/vec/LorentzVec.h">
<polygon fill="white" stroke="black" points="1175.45,-246.5 1175.45,-267.5 1292.45,-267.5 1292.45,-246.5 1175.45,-246.5"/>
<text text-anchor="middle" x="1233.95" y="-254.5" font-family="Helvetica,sans-Serif" font-size="10.00">base/vec/LorentzVec.h</text>
</a>
</g>
<!-- Node42&#45;&gt;Node43 -->
<g id="edge146" class="edge"><title>Node42&#45;&gt;Node43</title>
<path fill="none" stroke="midnightblue" d="M1590.88,-309.544C1524.98,-299.842 1386.5,-279.457 1302.72,-267.124"/>
<polygon fill="midnightblue" stroke="midnightblue" points="1303.19,-263.655 1292.78,-265.661 1302.17,-270.58 1303.19,-263.655"/>
</g>
<!-- Node43&#45;&gt;Node27 -->
<g id="edge148" class="edge"><title>Node43&#45;&gt;Node27</title>
<path fill="none" stroke="midnightblue" d="M1241.8,-246.362C1258.05,-224.365 1295.52,-173.624 1315.98,-145.909"/>
<polygon fill="midnightblue" stroke="midnightblue" points="1318.86,-147.909 1321.98,-137.785 1313.23,-143.751 1318.86,-147.909"/>
</g>
<!-- Node44&#45;&gt;Node7 -->
<g id="edge160" class="edge"><title>Node44&#45;&gt;Node7</title>
<path fill="none" stroke="midnightblue" d="M198.616,-190.854C327.753,-185.892 827.747,-165.275 982.947,-138 1017.58,-131.913 1024.35,-122.275 1058.95,-116 1112.78,-106.237 1475.59,-81.671 1614.23,-72.5133"/>
<polygon fill="midnightblue" stroke="midnightblue" points="1614.85,-75.98 1624.6,-71.8295 1614.39,-68.9951 1614.85,-75.98"/>
</g>
<!-- Node44&#45;&gt;Node23 -->
<g id="edge162" class="edge"><title>Node44&#45;&gt;Node23</title>
<path fill="none" stroke="midnightblue" d="M146.12,-181.412C121.896,-169.661 82.9254,-150.758 57.8834,-138.611"/>
<polygon fill="midnightblue" stroke="midnightblue" points="59.2392,-135.378 48.7143,-134.163 56.1841,-141.677 59.2392,-135.378"/>
</g>
<!-- Node44&#45;&gt;Node31 -->
<g id="edge164" class="edge"><title>Node44&#45;&gt;Node31</title>
<path fill="none" stroke="midnightblue" d="M156.222,-181.334C140.263,-165.555 115.573,-135.734 132.947,-116 135.75,-112.817 383.252,-83.0322 470.734,-72.5935"/>
<polygon fill="midnightblue" stroke="midnightblue" points="471.301,-76.0508 480.816,-71.3916 470.472,-69.1001 471.301,-76.0508"/>
</g>
<!-- Node44&#45;&gt;Node39 -->
<g id="edge166" class="edge"><title>Node44&#45;&gt;Node39</title>
<path fill="none" stroke="midnightblue" d="M167.947,-181.267C167.947,-172.18 167.947,-158.892 167.947,-147.74"/>
<polygon fill="midnightblue" stroke="midnightblue" points="171.448,-147.534 167.947,-137.534 164.448,-147.534 171.448,-147.534"/>
</g>
<!-- Node45 -->
<g id="node124" class="node"><title>Node45</title>
<a xlink:href="types_8h.html" target="_top" xlink:title="base/types.h">
<polygon fill="white" stroke="black" points="323.447,-58.5 323.447,-79.5 396.447,-79.5 396.447,-58.5 323.447,-58.5"/>
<text text-anchor="middle" x="359.947" y="-66.5" font-family="Helvetica,sans-Serif" font-size="10.00">base/types.h</text>
</a>
</g>
<!-- Node44&#45;&gt;Node45 -->
<g id="edge158" class="edge"><title>Node44&#45;&gt;Node45</title>
<path fill="none" stroke="midnightblue" d="M146.323,-181.379C119.602,-166.868 79.9692,-139.914 99.9474,-116 126.572,-84.1308 245.598,-73.831 312.999,-70.5318"/>
<polygon fill="midnightblue" stroke="midnightblue" points="313.521,-74.0117 323.352,-70.0601 313.203,-67.019 313.521,-74.0117"/>
</g>
<!-- Node46&#45;&gt;Node7 -->
<g id="edge172" class="edge"><title>Node46&#45;&gt;Node7</title>
<path fill="none" stroke="midnightblue" d="M917.673,-181.492C923.441,-178.742 929.84,-175.992 935.947,-174 1017.24,-147.483 1044.81,-167.843 1124.95,-138 1143.24,-131.189 1144.36,-121.931 1162.95,-116 1205.18,-102.527 1493.47,-81.1671 1614.56,-72.6657"/>
<polygon fill="midnightblue" stroke="midnightblue" points="1614.98,-76.1449 1624.71,-71.9556 1614.49,-69.162 1614.98,-76.1449"/>
</g>
<!-- Node46&#45;&gt;Node23 -->
<g id="edge178" class="edge"><title>Node46&#45;&gt;Node23</title>
<path fill="none" stroke="midnightblue" d="M879.163,-181.316C873.201,-178.42 866.461,-175.635 859.947,-174 703.061,-134.62 294.183,-150.937 132.947,-138 107.64,-135.969 78.7998,-132.65 58.802,-130.188"/>
<polygon fill="midnightblue" stroke="midnightblue" points="59.0376,-126.69 48.6805,-128.922 58.1687,-133.636 59.0376,-126.69"/>
</g>
<!-- Node46&#45;&gt;Node27 -->
<g id="edge176" class="edge"><title>Node46&#45;&gt;Node27</title>
<path fill="none" stroke="midnightblue" d="M917.196,-181.403C923.063,-178.582 929.634,-175.818 935.947,-174 1066.27,-136.481 1104.3,-154.137 1238.95,-138 1250.56,-136.609 1263,-135.11 1274.84,-133.68"/>
<polygon fill="midnightblue" stroke="midnightblue" points="1275.54,-137.12 1285.05,-132.445 1274.7,-130.171 1275.54,-137.12"/>
</g>
<!-- Node46&#45;&gt;Node30 -->
<g id="edge174" class="edge"><title>Node46&#45;&gt;Node30</title>
<path fill="none" stroke="midnightblue" d="M901.745,-181.267C905.028,-171.991 909.859,-158.336 913.854,-147.045"/>
<polygon fill="midnightblue" stroke="midnightblue" points="917.184,-148.128 917.22,-137.534 910.585,-145.793 917.184,-148.128"/>
</g>
<!-- Node46&#45;&gt;Node39 -->
<g id="edge180" class="edge"><title>Node46&#45;&gt;Node39</title>
<path fill="none" stroke="midnightblue" d="M879.158,-181.337C873.196,-178.442 866.457,-175.652 859.947,-174 579.68,-102.867 492.633,-188.287 204.055,-137.779"/>
<polygon fill="midnightblue" stroke="midnightblue" points="204.604,-134.322 194.144,-136.005 203.371,-141.213 204.604,-134.322"/>
</g>
<!-- Node46&#45;&gt;Node45 -->
<g id="edge170" class="edge"><title>Node46&#45;&gt;Node45</title>
<path fill="none" stroke="midnightblue" d="M879.136,-181.42C873.173,-178.528 866.439,-175.72 859.947,-174 757.404,-146.839 468.024,-202.685 383.947,-138 369.164,-126.626 363.446,-105.55 361.256,-89.6714"/>
<polygon fill="midnightblue" stroke="midnightblue" points="364.734,-89.2845 360.235,-79.6924 357.771,-89.9966 364.734,-89.2845"/>
</g>
<!-- Node47&#45;&gt;Node15 -->
<g id="edge206" class="edge"><title>Node47&#45;&gt;Node15</title>
<path fill="none" stroke="midnightblue" d="M1410.11,-256.174C1518.56,-253.094 1889.37,-240.83 2193.95,-210 2304.76,-198.783 2589.53,-186.174 2689.95,-138 2714.13,-126.397 2735.8,-104.082 2749.34,-87.9647"/>
<polygon fill="midnightblue" stroke="midnightblue" points="2752.42,-89.7284 2756,-79.7558 2746.98,-85.3208 2752.42,-89.7284"/>
</g>
<!-- Node47&#45;&gt;Node17 -->
<g id="edge200" class="edge"><title>Node47&#45;&gt;Node17</title>
<path fill="none" stroke="midnightblue" d="M1382.52,-246.354C1392.67,-216.043 1421.87,-128.914 1435.18,-89.1824"/>
<polygon fill="midnightblue" stroke="midnightblue" points="1438.56,-90.1235 1438.42,-79.5296 1431.92,-87.8993 1438.56,-90.1235"/>
</g>
<!-- Node47&#45;&gt;Node24 -->
<g id="edge204" class="edge"><title>Node47&#45;&gt;Node24</title>
<path fill="none" stroke="midnightblue" d="M1410.29,-248.369C1454.23,-236.265 1533.92,-214.317 1579.82,-201.675"/>
<polygon fill="midnightblue" stroke="midnightblue" points="1580.91,-205.004 1589.62,-198.975 1579.05,-198.256 1580.91,-205.004"/>
</g>
<!-- Node47&#45;&gt;Node26 -->
<g id="edge184" class="edge"><title>Node47&#45;&gt;Node26</title>
<path fill="none" stroke="midnightblue" d="M1410.05,-252.007C1477.76,-241.141 1639.36,-215.205 1726.28,-201.255"/>
<polygon fill="midnightblue" stroke="midnightblue" points="1726.92,-204.697 1736.24,-199.656 1725.81,-197.785 1726.92,-204.697"/>
</g>
<!-- Node47&#45;&gt;Node27 -->
<g id="edge198" class="edge"><title>Node47&#45;&gt;Node27</title>
<path fill="none" stroke="midnightblue" d="M1374.94,-246.362C1366.79,-224.746 1348.18,-175.372 1337.63,-147.369"/>
<polygon fill="midnightblue" stroke="midnightblue" points="1340.81,-145.908 1334.01,-137.785 1334.26,-148.377 1340.81,-145.908"/>
</g>
<!-- Node47&#45;&gt;Node29 -->
<g id="edge202" class="edge"><title>Node47&#45;&gt;Node29</title>
<path fill="none" stroke="midnightblue" d="M1387.99,-246.259C1395.51,-237.02 1406.19,-223.143 1413.95,-210 1446.19,-155.354 1459.53,-142.016 1472.95,-80 1475.01,-70.4432 1478.09,-66.3175 1472.95,-58 1459.45,-36.1601 1432.39,-24.1292 1410.76,-17.7226"/>
<polygon fill="midnightblue" stroke="midnightblue" points="1411.53,-14.3056 1400.96,-15.0853 1409.71,-21.0649 1411.53,-14.3056"/>
</g>
<!-- Node47&#45;&gt;Node30 -->
<g id="edge186" class="edge"><title>Node47&#45;&gt;Node30</title>
<path fill="none" stroke="midnightblue" d="M1347.7,-252.59C1291.76,-244.411 1176.92,-226.242 1139.95,-210 1115.21,-199.131 1115.26,-185.795 1090.95,-174 1057.24,-157.648 1016.93,-146.191 984.015,-138.685"/>
<polygon fill="midnightblue" stroke="midnightblue" points="984.575,-135.224 974.055,-136.481 983.062,-142.059 984.575,-135.224"/>
</g>
<!-- Node47&#45;&gt;Node39 -->
<g id="edge208" class="edge"><title>Node47&#45;&gt;Node39</title>
<path fill="none" stroke="midnightblue" d="M1347.89,-252.097C1333.62,-249.979 1316.45,-247.621 1300.95,-246 1184.2,-233.796 882.844,-253.825 773.947,-210 750.825,-200.695 754.07,-183.304 730.947,-174 624.719,-131.257 334.379,-158.269 204.355,-137.741"/>
<polygon fill="midnightblue" stroke="midnightblue" points="204.603,-134.232 194.151,-135.967 203.403,-141.128 204.603,-134.232"/>
</g>
<!-- Node48 -->
<g id="node142" class="node"><title>Node48</title>
<a xlink:href="shared__ptr__container_8h.html" target="_top" xlink:title="base/std_ext/shared\l_ptr_container.h">
<polygon fill="white" stroke="black" points="1148.45,-175 1148.45,-209 1253.45,-209 1253.45,-175 1148.45,-175"/>
<text text-anchor="start" x="1156.45" y="-196" font-family="Helvetica,sans-Serif" font-size="10.00">base/std_ext/shared</text>
<text text-anchor="middle" x="1200.95" y="-183" font-family="Helvetica,sans-Serif" font-size="10.00">_ptr_container.h</text>
</a>
</g>
<!-- Node47&#45;&gt;Node48 -->
<g id="edge188" class="edge"><title>Node47&#45;&gt;Node48</title>
<path fill="none" stroke="midnightblue" d="M1349.95,-246.412C1324.97,-237.291 1288.19,-223.859 1257.42,-212.623"/>
<polygon fill="midnightblue" stroke="midnightblue" points="1258.26,-209.203 1247.67,-209.06 1255.86,-215.778 1258.26,-209.203"/>
</g>
<!-- Node48&#45;&gt;Node16 -->
<g id="edge196" class="edge"><title>Node48&#45;&gt;Node16</title>
<path fill="none" stroke="midnightblue" d="M1148.37,-183.305C1130.18,-180.323 1109.68,-176.985 1090.95,-174 987.903,-157.575 956.998,-173.693 858.947,-138 854.224,-136.28 803.347,-105.079 771.177,-85.228"/>
<polygon fill="midnightblue" stroke="midnightblue" points="772.607,-81.9974 762.26,-79.7206 768.929,-87.9532 772.607,-81.9974"/>
</g>
<!-- Node48&#45;&gt;Node17 -->
<g id="edge190" class="edge"><title>Node48&#45;&gt;Node17</title>
<path fill="none" stroke="midnightblue" d="M1213.58,-174.902C1227.29,-157.54 1250.77,-131.123 1276.95,-116 1327.74,-86.6551 1349.87,-97.1434 1410.08,-80.0081"/>
<polygon fill="midnightblue" stroke="midnightblue" points="1411.09,-83.3606 1419.67,-77.1417 1409.08,-76.6542 1411.09,-83.3606"/>
</g>
<!-- Node48&#45;&gt;Node39 -->
<g id="edge192" class="edge"><title>Node48&#45;&gt;Node39</title>
<path fill="none" stroke="midnightblue" d="M1148.42,-184.327C1121.44,-180.655 1087.99,-176.519 1057.95,-174 682.272,-142.502 579.39,-202.51 204.183,-137.793"/>
<polygon fill="midnightblue" stroke="midnightblue" points="204.59,-134.312 194.137,-136.042 203.388,-141.208 204.59,-134.312"/>
</g>
<!-- Node49 -->
<g id="node146" class="node"><title>Node49</title>
<polygon fill="white" stroke="#bfbfbf" points="1171.45,-116.5 1171.45,-137.5 1230.45,-137.5 1230.45,-116.5 1171.45,-116.5"/>
<text text-anchor="middle" x="1200.95" y="-124.5" font-family="Helvetica,sans-Serif" font-size="10.00">functional</text>
</g>
<!-- Node48&#45;&gt;Node49 -->
<g id="edge194" class="edge"><title>Node48&#45;&gt;Node49</title>
<path fill="none" stroke="midnightblue" d="M1200.95,-174.922C1200.95,-166.67 1200.95,-156.692 1200.95,-147.982"/>
<polygon fill="midnightblue" stroke="midnightblue" points="1204.45,-147.852 1200.95,-137.852 1197.45,-147.852 1204.45,-147.852"/>
</g>
<!-- Node50&#45;&gt;Node15 -->
<g id="edge220" class="edge"><title>Node50&#45;&gt;Node15</title>
<path fill="none" stroke="midnightblue" d="M1481.71,-311.778C1509.44,-309.464 1548.02,-306.351 1581.95,-304 1808.59,-288.292 2392.44,-302.489 2599.95,-210 2622.71,-199.853 2621.03,-185.874 2642.95,-174 2691.16,-147.878 2727.37,-181.347 2760.95,-138 2771.46,-124.422 2771.15,-104.438 2768.84,-89.4664"/>
<polygon fill="midnightblue" stroke="midnightblue" points="2772.26,-88.7629 2766.92,-79.6141 2765.39,-90.0982 2772.26,-88.7629"/>
</g>
<!-- Node50&#45;&gt;Node16 -->
<g id="edge224" class="edge"><title>Node50&#45;&gt;Node16</title>
<path fill="none" stroke="midnightblue" d="M1406.42,-310.892C1341.1,-303.369 1209.39,-286.446 1166.95,-268 1127.98,-251.064 1122.31,-238.662 1090.95,-210 1074.92,-195.359 1077.35,-183.738 1057.95,-174 987.477,-138.624 757.8,-196.516 704.947,-138 690.91,-122.458 707.422,-101.195 723.286,-86.397"/>
<polygon fill="midnightblue" stroke="midnightblue" points="725.693,-88.9408 730.885,-79.705 721.067,-83.6876 725.693,-88.9408"/>
</g>
<!-- Node50&#45;&gt;Node17 -->
<g id="edge216" class="edge"><title>Node50&#45;&gt;Node17</title>
<path fill="none" stroke="midnightblue" d="M1443.86,-304.43C1443.56,-266.975 1442.53,-140.138 1442.12,-89.8186"/>
<polygon fill="midnightblue" stroke="midnightblue" points="1445.61,-89.5021 1442.03,-79.5309 1438.61,-89.5591 1445.61,-89.5021"/>
</g>
<!-- Node50&#45;&gt;Node24 -->
<g id="edge218" class="edge"><title>Node50&#45;&gt;Node24</title>
<path fill="none" stroke="midnightblue" d="M1458.82,-304.3C1488.64,-282.855 1555.9,-234.476 1591.62,-208.778"/>
<polygon fill="midnightblue" stroke="midnightblue" points="1593.91,-211.444 1599.98,-202.763 1589.82,-205.761 1593.91,-211.444"/>
</g>
<!-- Node50&#45;&gt;Node26 -->
<g id="edge214" class="edge"><title>Node50&#45;&gt;Node26</title>
<path fill="none" stroke="midnightblue" d="M1473.23,-304.407C1534.49,-282.246 1676.17,-230.991 1745.01,-206.088"/>
<polygon fill="midnightblue" stroke="midnightblue" points="1746.4,-209.305 1754.61,-202.612 1744.02,-202.722 1746.4,-209.305"/>
</g>
<!-- Node50&#45;&gt;Node39 -->
<g id="edge222" class="edge"><title>Node50&#45;&gt;Node39</title>
<path fill="none" stroke="midnightblue" d="M1406.28,-310.988C1337.79,-303.552 1188.36,-286.678 1062.95,-268 914.791,-245.935 864.789,-277.258 730.947,-210 710.16,-199.554 714.229,-183.398 692.947,-174 595.802,-131.099 325.52,-156.994 204.039,-137.689"/>
<polygon fill="midnightblue" stroke="midnightblue" points="204.609,-134.236 194.154,-135.951 203.397,-141.13 204.609,-134.236"/>
</g>
<!-- Node50&#45;&gt;Node47 -->
<g id="edge212" class="edge"><title>Node50&#45;&gt;Node47</title>
<path fill="none" stroke="midnightblue" d="M1432.03,-304.362C1422.59,-295.941 1409.22,-284.011 1398.26,-274.231"/>
<polygon fill="midnightblue" stroke="midnightblue" points="1400.59,-271.617 1390.79,-267.571 1395.93,-276.84 1400.59,-271.617"/>
</g>
<!-- Node51&#45;&gt;Node7 -->
<g id="edge230" class="edge"><title>Node51&#45;&gt;Node7</title>
<path fill="none" stroke="midnightblue" d="M995.196,-371.817C1103.24,-367.625 1448.02,-352.293 1489.95,-326 1556.65,-284.166 1535.48,-238.279 1580.95,-174 1603.54,-142.066 1633.21,-107.612 1651.41,-87.1952"/>
<polygon fill="midnightblue" stroke="midnightblue" points="1654.16,-89.3777 1658.23,-79.5988 1648.95,-84.7007 1654.16,-89.3777"/>
</g>
<!-- Node51&#45;&gt;Node17 -->
<g id="edge278" class="edge"><title>Node51&#45;&gt;Node17</title>
<path fill="none" stroke="midnightblue" d="M995.349,-369.886C1059.36,-362.338 1204.22,-338.196 1300.95,-268 1335.59,-242.861 1403.45,-133.322 1430.46,-88.3641"/>
<polygon fill="midnightblue" stroke="midnightblue" points="1433.59,-89.9489 1435.72,-79.5696 1427.58,-86.3576 1433.59,-89.9489"/>
</g>
<!-- Node51&#45;&gt;Node23 -->
<g id="edge280" class="edge"><title>Node51&#45;&gt;Node23</title>
<path fill="none" stroke="midnightblue" d="M930.578,-370.454C789.48,-358.843 228.871,-307.243 85.9474,-210 63.5436,-194.757 48.8823,-166.329 41.0056,-147.037"/>
<polygon fill="midnightblue" stroke="midnightblue" points="44.2559,-145.738 37.4107,-137.651 37.7189,-148.241 44.2559,-145.738"/>
</g>
<!-- Node51&#45;&gt;Node39 -->
<g id="edge284" class="edge"><title>Node51&#45;&gt;Node39</title>
<path fill="none" stroke="midnightblue" d="M933.146,-362.349C910.518,-353.772 878.965,-340.744 852.947,-326 776.53,-282.697 760.53,-266.102 692.947,-210 675.047,-195.14 676.2,-183.464 654.947,-174 565.595,-134.213 317.009,-155.864 204.01,-137.691"/>
<polygon fill="midnightblue" stroke="midnightblue" points="204.616,-134.244 194.157,-135.934 203.387,-141.135 204.616,-134.244"/>
</g>
<!-- Node51&#45;&gt;Node43 -->
<g id="edge276" class="edge"><title>Node51&#45;&gt;Node43</title>
<path fill="none" stroke="midnightblue" d="M987.957,-362.295C1036.78,-341.395 1144.83,-295.145 1200.04,-271.513"/>
<polygon fill="midnightblue" stroke="midnightblue" points="1201.57,-274.664 1209.39,-267.512 1198.82,-268.229 1201.57,-274.664"/>
</g>
<!-- Node51&#45;&gt;Node45 -->
<g id="edge232" class="edge"><title>Node51&#45;&gt;Node45</title>
<path fill="none" stroke="midnightblue" d="M930.751,-372.17C843.882,-369.536 597.657,-359.453 395.947,-326 291.52,-308.681 264.011,-305.3 164.947,-268 112.117,-248.108 92.7221,-249.041 51.9474,-210 19.026,-178.478 -19.0539,-150.313 10.9474,-116 30.5641,-93.5644 222.763,-78.0395 313.265,-71.9135"/>
<polygon fill="midnightblue" stroke="midnightblue" points="313.515,-75.4047 323.26,-71.2473 313.05,-68.4202 313.515,-75.4047"/>
</g>
<!-- Node51&#45;&gt;Node50 -->
<g id="edge228" class="edge"><title>Node51&#45;&gt;Node50</title>
<path fill="none" stroke="midnightblue" d="M995.254,-369.104C1078.07,-359.118 1298.29,-332.564 1396.04,-320.776"/>
<polygon fill="midnightblue" stroke="midnightblue" points="1396.72,-324.22 1406.23,-319.548 1395.88,-317.27 1396.72,-324.22"/>
</g>
<!-- Node52 -->
<g id="node169" class="node"><title>Node52</title>
<a xlink:href="_particle_type_8h.html" target="_top" xlink:title="base/ParticleType.h">
<polygon fill="white" stroke="black" points="944.947,-181.5 944.947,-202.5 1048.95,-202.5 1048.95,-181.5 944.947,-181.5"/>
<text text-anchor="middle" x="996.947" y="-189.5" font-family="Helvetica,sans-Serif" font-size="10.00">base/ParticleType.h</text>
</a>
</g>
<!-- Node51&#45;&gt;Node52 -->
<g id="edge234" class="edge"><title>Node51&#45;&gt;Node52</title>
<path fill="none" stroke="midnightblue" d="M964.922,-362.486C970.392,-333.37 985.81,-251.292 993.072,-212.63"/>
<polygon fill="midnightblue" stroke="midnightblue" points="996.561,-213.017 994.967,-202.543 989.681,-211.725 996.561,-213.017"/>
</g>
<!-- Node57 -->
<g id="node188" class="node"><title>Node57</title>
<a xlink:href="_tree_8h.html" target="_top" xlink:title="base/Tree.h">
<polygon fill="white" stroke="black" points="782.947,-181.5 782.947,-202.5 850.947,-202.5 850.947,-181.5 782.947,-181.5"/>
<text text-anchor="middle" x="816.947" y="-189.5" font-family="Helvetica,sans-Serif" font-size="10.00">base/Tree.h</text>
</a>
</g>
<!-- Node51&#45;&gt;Node57 -->
<g id="edge262" class="edge"><title>Node51&#45;&gt;Node57</title>
<path fill="none" stroke="midnightblue" d="M930.741,-362.781C911.503,-355.26 887.804,-343.305 871.947,-326 841.801,-293.101 827.021,-241.429 820.79,-212.815"/>
<polygon fill="midnightblue" stroke="midnightblue" points="824.163,-211.841 818.744,-202.737 817.303,-213.234 824.163,-211.841"/>
</g>
<!-- Node59 -->
<g id="node200" class="node"><title>Node59</title>
<polygon fill="white" stroke="#bfbfbf" points="880.947,-304.5 880.947,-325.5 934.947,-325.5 934.947,-304.5 880.947,-304.5"/>
<text text-anchor="middle" x="907.947" y="-312.5" font-family="Helvetica,sans-Serif" font-size="10.00">iostream</text>
</g>
<!-- Node51&#45;&gt;Node59 -->
<g id="edge282" class="edge"><title>Node51&#45;&gt;Node59</title>
<path fill="none" stroke="midnightblue" d="M952.86,-362.362C945.107,-354.186 934.217,-342.702 925.102,-333.091"/>
<polygon fill="midnightblue" stroke="midnightblue" points="927.392,-330.419 917.971,-325.571 922.313,-335.235 927.392,-330.419"/>
</g>
<!-- Node52&#45;&gt;Node9 -->
<g id="edge254" class="edge"><title>Node52&#45;&gt;Node9</title>
<path fill="none" stroke="midnightblue" d="M965.584,-181.423C956.153,-178.603 945.714,-175.834 935.947,-174 842.575,-156.466 591.553,-186.645 509.947,-138 483.476,-122.22 480.76,-109.531 471.947,-80 469.151,-70.6305 465.446,-65.3034 471.947,-58 496.159,-30.801 744.19,-16.8766 838.67,-12.5278"/>
<polygon fill="midnightblue" stroke="midnightblue" points="839.055,-16.0141 848.888,-12.0674 838.74,-9.02115 839.055,-16.0141"/>
</g>
<!-- Node52&#45;&gt;Node14 -->
<g id="edge252" class="edge"><title>Node52&#45;&gt;Node14</title>
<path fill="none" stroke="midnightblue" d="M1049.23,-185.329C1076.3,-181.899 1109.89,-177.676 1139.95,-174 1474.33,-133.097 1880.15,-85.7271 1993.35,-72.5553"/>
<polygon fill="midnightblue" stroke="midnightblue" points="1993.85,-76.0208 2003.38,-71.3888 1993.05,-69.0677 1993.85,-76.0208"/>
</g>
<!-- Node52&#45;&gt;Node17 -->
<g id="edge260" class="edge"><title>Node52&#45;&gt;Node17</title>
<path fill="none" stroke="midnightblue" d="M1002.07,-181.43C1010.97,-164.336 1031.07,-131.023 1058.95,-116 1194.55,-42.9354 1255.03,-111.604 1409.93,-79.7175"/>
<polygon fill="midnightblue" stroke="midnightblue" points="1410.75,-83.1202 1419.78,-77.5803 1409.27,-76.2792 1410.75,-83.1202"/>
</g>
<!-- Node52&#45;&gt;Node45 -->
<g id="edge236" class="edge"><title>Node52&#45;&gt;Node45</title>
<path fill="none" stroke="midnightblue" d="M965.915,-181.429C956.402,-178.573 945.836,-175.783 935.947,-174 823.263,-153.677 524.833,-188.253 421.947,-138 399.931,-127.247 382.186,-104.904 371.411,-88.5459"/>
<polygon fill="midnightblue" stroke="midnightblue" points="374.168,-86.3543 365.892,-79.7386 368.236,-90.071 374.168,-86.3543"/>
</g>
<!-- Node53 -->
<g id="node172" class="node"><title>Node53</title>
<a xlink:href="interval_8h.html" target="_top" xlink:title="base/interval.h">
<polygon fill="white" stroke="black" points="539.947,-116.5 539.947,-137.5 619.947,-137.5 619.947,-116.5 539.947,-116.5"/>
<text text-anchor="middle" x="579.947" y="-124.5" font-family="Helvetica,sans-Serif" font-size="10.00">base/interval.h</text>
</a>
</g>
<!-- Node52&#45;&gt;Node53 -->
<g id="edge238" class="edge"><title>Node52&#45;&gt;Node53</title>
<path fill="none" stroke="midnightblue" d="M964.913,-181.447C955.647,-178.696 945.465,-175.957 935.947,-174 803.545,-146.776 767.398,-159.509 633.947,-138 632.672,-137.794 631.381,-137.58 630.08,-137.358"/>
<polygon fill="midnightblue" stroke="midnightblue" points="630.447,-133.868 619.985,-135.538 629.205,-140.757 630.447,-133.868"/>
</g>
<!-- Node55 -->
<g id="node183" class="node"><title>Node55</title>
<polygon fill="white" stroke="#bfbfbf" points="713.447,-116.5 713.447,-137.5 748.447,-137.5 748.447,-116.5 713.447,-116.5"/>
<text text-anchor="middle" x="730.947" y="-124.5" font-family="Helvetica,sans-Serif" font-size="10.00">map</text>
</g>
<!-- Node52&#45;&gt;Node55 -->
<g id="edge256" class="edge"><title>Node52&#45;&gt;Node55</title>
<path fill="none" stroke="midnightblue" d="M963.214,-181.467C954.383,-178.869 944.843,-176.203 935.947,-174 860.254,-155.26 836.345,-161.391 758.448,-138.053"/>
<polygon fill="midnightblue" stroke="midnightblue" points="759.26,-134.642 748.674,-135.057 757.209,-141.334 759.26,-134.642"/>
</g>
<!-- Node56 -->
<g id="node185" class="node"><title>Node56</title>
<polygon fill="white" stroke="#bfbfbf" points="765.447,-116.5 765.447,-137.5 812.447,-137.5 812.447,-116.5 765.447,-116.5"/>
<text text-anchor="middle" x="788.947" y="-124.5" font-family="Helvetica,sans-Serif" font-size="10.00">iterator</text>
</g>
<!-- Node52&#45;&gt;Node56 -->
<g id="edge258" class="edge"><title>Node52&#45;&gt;Node56</title>
<path fill="none" stroke="midnightblue" d="M963.066,-181.412C924.178,-169.26 860.808,-149.456 822.191,-137.389"/>
<polygon fill="midnightblue" stroke="midnightblue" points="823.055,-133.992 812.466,-134.35 820.967,-140.673 823.055,-133.992"/>
</g>
<!-- Node53&#45;&gt;Node7 -->
<g id="edge240" class="edge"><title>Node53&#45;&gt;Node7</title>
<path fill="none" stroke="midnightblue" d="M620.165,-123.04C644.653,-120.733 676.582,-117.912 704.947,-116 1045.88,-93.0179 1131.69,-97.6228 1472.95,-80 1520.82,-77.5279 1575.28,-74.4317 1614.46,-72.1545"/>
<polygon fill="midnightblue" stroke="midnightblue" points="1614.8,-75.6406 1624.58,-71.5647 1614.4,-68.6525 1614.8,-75.6406"/>
</g>
<!-- Node53&#45;&gt;Node16 -->
<g id="edge244" class="edge"><title>Node53&#45;&gt;Node16</title>
<path fill="none" stroke="midnightblue" d="M609.828,-116.497C637.195,-106.877 677.82,-92.5962 707.376,-82.2069"/>
<polygon fill="midnightblue" stroke="midnightblue" points="708.667,-85.4633 716.94,-78.8451 706.345,-78.8594 708.667,-85.4633"/>
</g>
<!-- Node53&#45;&gt;Node22 -->
<g id="edge246" class="edge"><title>Node53&#45;&gt;Node22</title>
<path fill="none" stroke="midnightblue" d="M620.158,-122.923C644.643,-120.575 676.572,-117.751 704.947,-116 1155.49,-88.2056 1269.74,-112.7 1719.95,-80 1739.84,-78.5548 1761.89,-76.2095 1780.21,-74.055"/>
<polygon fill="midnightblue" stroke="midnightblue" points="1780.73,-77.5176 1790.25,-72.8507 1779.9,-70.5675 1780.73,-77.5176"/>
</g>
<!-- Node53&#45;&gt;Node31 -->
<g id="edge248" class="edge"><title>Node53&#45;&gt;Node31</title>
<path fill="none" stroke="midnightblue" d="M565.458,-116.362C553.765,-107.777 537.105,-95.5459 523.644,-85.6636"/>
<polygon fill="midnightblue" stroke="midnightblue" points="525.478,-82.6675 515.345,-79.5707 521.335,-88.31 525.478,-82.6675"/>
</g>
<!-- Node53&#45;&gt;Node45 -->
<g id="edge242" class="edge"><title>Node53&#45;&gt;Node45</title>
<path fill="none" stroke="midnightblue" d="M540.107,-116.497C502.437,-106.566 445.928,-91.6676 406.266,-81.2113"/>
<polygon fill="midnightblue" stroke="midnightblue" points="407.129,-77.8193 396.567,-78.6543 405.345,-84.588 407.129,-77.8193"/>
</g>
<!-- Node54 -->
<g id="node179" class="node"><title>Node54</title>
<polygon fill="white" stroke="#bfbfbf" points="555.447,-58.5 555.447,-79.5 604.447,-79.5 604.447,-58.5 555.447,-58.5"/>
<text text-anchor="middle" x="579.947" y="-66.5" font-family="Helvetica,sans-Serif" font-size="10.00">istream</text>
</g>
<!-- Node53&#45;&gt;Node54 -->
<g id="edge250" class="edge"><title>Node53&#45;&gt;Node54</title>
<path fill="none" stroke="midnightblue" d="M579.947,-116.362C579.947,-108.922 579.947,-98.7427 579.947,-89.7276"/>
<polygon fill="midnightblue" stroke="midnightblue" points="583.448,-89.5706 579.947,-79.5707 576.448,-89.5707 583.448,-89.5706"/>
</g>
<!-- Node57&#45;&gt;Node16 -->
<g id="edge272" class="edge"><title>Node57&#45;&gt;Node16</title>
<path fill="none" stroke="midnightblue" d="M791.857,-181.466C784.568,-178.714 776.527,-175.971 768.947,-174 717.179,-160.536 565.828,-178.553 530.947,-138 524.571,-130.587 524.82,-123.619 530.947,-116 552.559,-89.1274 650.906,-76.7437 706.451,-71.8052"/>
<polygon fill="midnightblue" stroke="midnightblue" points="706.957,-75.2749 716.625,-70.9412 706.365,-68.3 706.957,-75.2749"/>
</g>
<!-- Node57&#45;&gt;Node17 -->
<g id="edge270" class="edge"><title>Node57&#45;&gt;Node17</title>
<path fill="none" stroke="midnightblue" d="M791.643,-181.49C760.175,-168.168 709.956,-145.975 704.947,-138 699.747,-129.72 698.212,-123.088 704.947,-116 757.259,-60.9532 1296.3,-92.9906 1409.68,-79.2991"/>
<polygon fill="midnightblue" stroke="midnightblue" points="1410.47,-82.7177 1419.81,-77.7213 1409.39,-75.8009 1410.47,-82.7177"/>
</g>
<!-- Node57&#45;&gt;Node23 -->
<g id="edge268" class="edge"><title>Node57&#45;&gt;Node23</title>
<path fill="none" stroke="midnightblue" d="M782.752,-189.688C682.715,-182.84 381.977,-161.659 132.947,-138 107.673,-135.599 78.8275,-132.334 58.8197,-129.986"/>
<polygon fill="midnightblue" stroke="midnightblue" points="59.0345,-126.487 48.6923,-128.787 58.2114,-133.438 59.0345,-126.487"/>
</g>
<!-- Node57&#45;&gt;Node36 -->
<g id="edge274" class="edge"><title>Node57&#45;&gt;Node36</title>
<path fill="none" stroke="midnightblue" d="M839.826,-181.362C846.237,-178.674 853.278,-175.99 859.947,-174 943.981,-148.927 968.615,-158.216 1053.95,-138 1055.02,-137.747 1056.1,-137.482 1057.19,-137.209"/>
<polygon fill="midnightblue" stroke="midnightblue" points="1058.34,-140.526 1067.1,-134.571 1056.54,-133.761 1058.34,-140.526"/>
</g>
<!-- Node57&#45;&gt;Node39 -->
<g id="edge266" class="edge"><title>Node57&#45;&gt;Node39</title>
<path fill="none" stroke="midnightblue" d="M792.947,-181.416C785.405,-178.523 776.954,-175.716 768.947,-174 525.731,-121.869 452.677,-182.482 204.202,-137.827"/>
<polygon fill="midnightblue" stroke="midnightblue" points="204.616,-134.344 194.148,-135.98 203.352,-141.229 204.616,-134.344"/>
</g>
<!-- Node58 -->
<g id="node190" class="node"><title>Node58</title>
<polygon fill="white" stroke="#bfbfbf" points="211.947,-116.5 211.947,-137.5 331.947,-137.5 331.947,-116.5 211.947,-116.5"/>
<text text-anchor="middle" x="271.947" y="-124.5" font-family="Helvetica,sans-Serif" font-size="10.00">base/cereal/access.hpp</text>
</g>
<!-- Node57&#45;&gt;Node58 -->
<g id="edge264" class="edge"><title>Node57&#45;&gt;Node58</title>
<path fill="none" stroke="midnightblue" d="M792.43,-181.333C785.013,-178.51 776.761,-175.762 768.947,-174 584.891,-132.486 533.354,-159.882 345.947,-138 344.678,-137.852 343.396,-137.699 342.105,-137.541"/>
<polygon fill="midnightblue" stroke="midnightblue" points="342.444,-134.056 332.081,-136.261 341.557,-141 342.444,-134.056"/>
</g>
<!-- Node60&#45;&gt;Node3 -->
<g id="edge292" class="edge"><title>Node60&#45;&gt;Node3</title>
<path fill="none" stroke="midnightblue" d="M731.95,-608.497C689.286,-598.755 625.691,-584.233 580.059,-573.813"/>
<polygon fill="midnightblue" stroke="midnightblue" points="580.559,-570.337 570.031,-571.523 579.001,-577.161 580.559,-570.337"/>
</g>
<!-- Node60&#45;&gt;Node26 -->
<g id="edge294" class="edge"><title>Node60&#45;&gt;Node26</title>
<path fill="none" stroke="midnightblue" d="M843.306,-609.201C846.225,-608.789 849.116,-608.387 851.947,-608 1071.66,-577.942 1657.8,-574.058 1835.95,-442 1917.63,-381.449 2014.16,-327.937 1953.95,-246 1922.23,-202.842 1889.95,-226.329 1838.95,-210 1834.63,-208.619 1830.13,-207.165 1825.64,-205.709"/>
<polygon fill="midnightblue" stroke="midnightblue" points="1826.51,-202.309 1815.92,-202.54 1824.34,-208.965 1826.51,-202.309"/>
</g>
<!-- Node60&#45;&gt;Node39 -->
<g id="edge296" class="edge"><title>Node60&#45;&gt;Node39</title>
<path fill="none" stroke="midnightblue" d="M766.126,-608.449C726.665,-572.004 601.947,-446.422 601.947,-315 601.947,-315 601.947,-315 601.947,-257 601.947,-209.592 576.555,-196.722 534.947,-174 407.61,-104.462 350.796,-165.522 204.408,-137.898"/>
<polygon fill="midnightblue" stroke="midnightblue" points="204.666,-134.38 194.174,-135.851 203.293,-141.244 204.666,-134.38"/>
</g>
<!-- Node61&#45;&gt;Node3 -->
<g id="edge300" class="edge"><title>Node61&#45;&gt;Node3</title>
<path fill="none" stroke="midnightblue" d="M409.3,-608.497C431.561,-599.275 464.159,-585.769 488.911,-575.515"/>
<polygon fill="midnightblue" stroke="midnightblue" points="490.411,-578.682 498.31,-571.621 487.732,-572.215 490.411,-578.682"/>
</g>
<!-- Node61&#45;&gt;Node26 -->
<g id="edge302" class="edge"><title>Node61&#45;&gt;Node26</title>
<path fill="none" stroke="midnightblue" d="M392.441,-608.322C405.764,-592.452 433.247,-563.107 463.947,-550 478.447,-543.81 1578.63,-445.734 1593.95,-442 1725.83,-409.854 1795.54,-394.429 1844.95,-268 1854.16,-244.422 1831.77,-222.443 1811.56,-208.248"/>
<polygon fill="midnightblue" stroke="midnightblue" points="1813.41,-205.271 1803.14,-202.66 1809.54,-211.104 1813.41,-205.271"/>
</g>
<!-- Node61&#45;&gt;Node39 -->
<g id="edge304" class="edge"><title>Node61&#45;&gt;Node39</title>
<path fill="none" stroke="midnightblue" d="M370.407,-608.412C347.117,-588.897 301.947,-544.763 301.947,-496 301.947,-496 301.947,-496 301.947,-431 301.947,-313.501 307.701,-269.997 239.947,-174 230.506,-160.623 215.937,-150.08 202.368,-142.4"/>
<polygon fill="midnightblue" stroke="midnightblue" points="203.683,-139.135 193.209,-137.54 200.402,-145.319 203.683,-139.135"/>
</g>
<!-- Node62&#45;&gt;Node3 -->
<g id="edge308" class="edge"><title>Node62&#45;&gt;Node3</title>
<path fill="none" stroke="midnightblue" d="M626.311,-608.497C606.7,-599.397 578.101,-586.127 556.114,-575.925"/>
<polygon fill="midnightblue" stroke="midnightblue" points="557.382,-572.655 546.838,-571.621 554.436,-579.005 557.382,-572.655"/>
</g>
<!-- Node62&#45;&gt;Node26 -->
<g id="edge310" class="edge"><title>Node62&#45;&gt;Node26</title>
<path fill="none" stroke="midnightblue" d="M695.114,-609.499C698.099,-608.967 701.063,-608.462 703.947,-608 1047.42,-552.961 1138.99,-577.761 1480.95,-514 1544.95,-502.066 1707.45,-472.551 1764.95,-442 1862.05,-390.401 1977.24,-337.298 1915.95,-246 1910.47,-237.838 1860.99,-219.022 1824.21,-205.911"/>
<polygon fill="midnightblue" stroke="midnightblue" points="1825.29,-202.58 1814.69,-202.545 1822.95,-209.18 1825.29,-202.58"/>
</g>
<!-- Node62&#45;&gt;Node39 -->
<g id="edge312" class="edge"><title>Node62&#45;&gt;Node39</title>
<path fill="none" stroke="midnightblue" d="M643.63,-608.263C625.022,-569.664 563.947,-433.92 563.947,-315 563.947,-315 563.947,-315 563.947,-257 563.947,-208.456 535.703,-196.989 492.947,-174 381.461,-114.056 332.378,-162.961 204.353,-137.917"/>
<polygon fill="midnightblue" stroke="midnightblue" points="204.686,-134.412 194.184,-135.806 203.263,-141.266 204.686,-134.412"/>
</g>
<!-- Node63&#45;&gt;Node3 -->
<g id="edge316" class="edge"><title>Node63&#45;&gt;Node3</title>
<path fill="none" stroke="midnightblue" d="M860.396,-609.399C857.54,-608.916 854.709,-608.447 851.947,-608 759.232,-593.003 651.368,-578.018 585.388,-569.13"/>
<polygon fill="midnightblue" stroke="midnightblue" points="585.544,-565.62 575.167,-567.757 584.612,-572.557 585.544,-565.62"/>
</g>
<!-- Node63&#45;&gt;Node26 -->
<g id="edge318" class="edge"><title>Node63&#45;&gt;Node26</title>
<path fill="none" stroke="midnightblue" d="M965.605,-616.076C1188.62,-603.351 2043.95,-550.964 2043.95,-496 2043.95,-496 2043.95,-496 2043.95,-315 2043.95,-212.633 1937.5,-237.668 1838.95,-210 1834.24,-208.678 1829.33,-207.208 1824.47,-205.693"/>
<polygon fill="midnightblue" stroke="midnightblue" points="1825.23,-202.262 1814.64,-202.557 1823.1,-208.931 1825.23,-202.262"/>
</g>
<!-- Node63&#45;&gt;Node39 -->
<g id="edge320" class="edge"><title>Node63&#45;&gt;Node39</title>
<path fill="none" stroke="midnightblue" d="M910.799,-608.27C904.181,-577.05 881.907,-484.391 838.947,-420 749.94,-286.589 721.17,-239.878 574.947,-174 426.46,-107.102 368.018,-168.58 204.091,-137.833"/>
<polygon fill="midnightblue" stroke="midnightblue" points="204.654,-134.377 194.167,-135.884 203.305,-141.246 204.654,-134.377"/>
</g>
<!-- Node64&#45;&gt;Node3 -->
<g id="edge324" class="edge"><title>Node64&#45;&gt;Node3</title>
<path fill="none" stroke="midnightblue" d="M534.563,-608.362C532.877,-600.84 530.564,-590.519 528.527,-581.431"/>
<polygon fill="midnightblue" stroke="midnightblue" points="531.919,-580.563 526.317,-571.571 525.089,-582.094 531.919,-580.563"/>
</g>
<!-- Node64&#45;&gt;Node26 -->
<g id="edge326" class="edge"><title>Node64&#45;&gt;Node26</title>
<path fill="none" stroke="midnightblue" d="M585.737,-609.426C588.513,-608.931 591.264,-608.452 593.947,-608 772.393,-577.958 817.421,-572.704 996.947,-550 1143.32,-531.489 1181.52,-538.837 1326.95,-514 1396.23,-502.167 1412.04,-491.864 1480.95,-478 1575.07,-459.064 1603.79,-475.004 1693.95,-442 1799.64,-403.309 1842.65,-374.875 1877.95,-268 1881.01,-258.715 1882.85,-254.463 1877.95,-246 1867.3,-227.606 1847.76,-214.933 1829.24,-206.512"/>
<polygon fill="midnightblue" stroke="midnightblue" points="1830.56,-203.271 1819.99,-202.601 1827.83,-209.718 1830.56,-203.271"/>
</g>
<!-- Node64&#45;&gt;Node39 -->
<g id="edge328" class="edge"><title>Node64&#45;&gt;Node39</title>
<path fill="none" stroke="midnightblue" d="M510.83,-608.476C494.885,-600.72 475.422,-588.622 463.947,-572 427.549,-519.274 433.947,-495.069 433.947,-431 433.947,-431 433.947,-431 433.947,-257 433.947,-231.718 276.834,-168.511 204.103,-140.606"/>
<polygon fill="midnightblue" stroke="midnightblue" points="205.016,-137.209 194.425,-136.911 202.518,-143.748 205.016,-137.209"/>
</g>
</g>
</svg>
