<?xml version="1.0" encoding="UTF-8" standalone="no"?>
<!DOCTYPE svg PUBLIC "-//W3C//DTD SVG 1.1//EN"
 "http://www.w3.org/Graphics/SVG/1.1/DTD/svg11.dtd">
<!-- Generated by graphviz version 2.26.3 (20100126.1600)
 -->
<!-- Title: src/calibration/modules/TAPSVeto_Time.cc Pages: 1 -->
<svg width="3097pt" height="650pt"
 viewBox="0.00 0.00 3097.15 650.00" xmlns="http://www.w3.org/2000/svg" xmlns:xlink="http://www.w3.org/1999/xlink">
<g id="graph1" class="graph" transform="scale(1 1) rotate(0) translate(4 646)">
<title>src/calibration/modules/TAPSVeto_Time.cc</title>
<polygon fill="white" stroke="white" points="-4,5 -4,-646 3094.15,-646 3094.15,5 -4,5"/>
<!-- Node1 -->
<g id="node1" class="node"><title>Node1</title>
<polygon fill="#bfbfbf" stroke="black" points="796.647,-607 796.647,-641 913.647,-641 913.647,-607 796.647,-607"/>
<text text-anchor="start" x="804.647" y="-628" font-family="Helvetica,sans-Serif" font-size="10.00">src/calibration/modules</text>
<text text-anchor="middle" x="855.147" y="-615" font-family="Helvetica,sans-Serif" font-size="10.00">/TAPSVeto_Time.cc</text>
</g>
<!-- Node2 -->
<g id="node3" class="node"><title>Node2</title>
<a xlink:href="_t_a_p_s_veto___time_8h.html" target="_top" xlink:title="TAPSVeto_Time.h">
<polygon fill="white" stroke="black" points="926.147,-476.5 926.147,-497.5 1024.15,-497.5 1024.15,-476.5 926.147,-476.5"/>
<text text-anchor="middle" x="975.147" y="-484.5" font-family="Helvetica,sans-Serif" font-size="10.00">TAPSVeto_Time.h</text>
</a>
</g>
<!-- Node1&#45;&gt;Node2 -->
<g id="edge2" class="edge"><title>Node1&#45;&gt;Node2</title>
<path fill="none" stroke="midnightblue" d="M876.437,-606.769C888.392,-596.633 903.252,-583.239 915.147,-570 933.395,-549.689 951.34,-523.88 962.779,-506.477"/>
<polygon fill="midnightblue" stroke="midnightblue" points="965.926,-508.058 968.426,-497.762 960.051,-504.251 965.926,-508.058"/>
</g>
<!-- Node18 -->
<g id="node38" class="node"><title>Node18</title>
<polygon fill="white" stroke="#bfbfbf" points="1213.15,-137.5 1213.15,-158.5 1259.15,-158.5 1259.15,-137.5 1213.15,-137.5"/>
<text text-anchor="middle" x="1236.15" y="-145.5" font-family="Helvetica,sans-Serif" font-size="10.00">cstdint</text>
</g>
<!-- Node1&#45;&gt;Node18 -->
<g id="edge280" class="edge"><title>Node1&#45;&gt;Node18</title>
<path fill="none" stroke="midnightblue" d="M796.471,-608.056C723.474,-584.707 602.016,-533.482 549.147,-440 509.127,-369.238 453.166,-328.424 606.147,-202 652.402,-163.774 1079.23,-151.453 1202.78,-148.672"/>
<polygon fill="midnightblue" stroke="midnightblue" points="1203.2,-152.164 1213.12,-148.446 1203.05,-145.165 1203.2,-152.164"/>
</g>
<!-- Node55 -->
<g id="node170" class="node"><title>Node55</title>
<a xlink:href="_fit_gaus_pol0_8h.html" target="_top" xlink:title="calibration/fitfunctions\l/FitGausPol0.h">
<polygon fill="white" stroke="black" points="237.147,-405 237.147,-439 349.147,-439 349.147,-405 237.147,-405"/>
<text text-anchor="start" x="245.147" y="-426" font-family="Helvetica,sans-Serif" font-size="10.00">calibration/fitfunctions</text>
<text text-anchor="middle" x="293.147" y="-413" font-family="Helvetica,sans-Serif" font-size="10.00">/FitGausPol0.h</text>
</a>
</g>
<!-- Node1&#45;&gt;Node55 -->
<g id="edge230" class="edge"><title>Node1&#45;&gt;Node55</title>
<path fill="none" stroke="midnightblue" d="M796.573,-621.88C693.564,-617.309 484.849,-604.04 421.147,-570 368.564,-541.902 327.92,-482.773 307.559,-448.364"/>
<polygon fill="midnightblue" stroke="midnightblue" points="310.392,-446.271 302.36,-439.361 304.33,-449.771 310.392,-446.271"/>
</g>
<!-- Node56 -->
<g id="node173" class="node"><title>Node56</title>
<a xlink:href="_t_a_p_s_veto_8h.html" target="_top" xlink:title="expconfig/detectors\l/TAPSVeto.h">
<polygon fill="white" stroke="black" points="804.147,-535 804.147,-569 906.147,-569 906.147,-535 804.147,-535"/>
<text text-anchor="start" x="812.147" y="-556" font-family="Helvetica,sans-Serif" font-size="10.00">expconfig/detectors</text>
<text text-anchor="middle" x="855.147" y="-543" font-family="Helvetica,sans-Serif" font-size="10.00">/TAPSVeto.h</text>
</a>
</g>
<!-- Node1&#45;&gt;Node56 -->
<g id="edge234" class="edge"><title>Node1&#45;&gt;Node56</title>
<path fill="none" stroke="midnightblue" d="M855.147,-606.937C855.147,-598.807 855.147,-588.876 855.147,-579.705"/>
<polygon fill="midnightblue" stroke="midnightblue" points="858.647,-579.441 855.147,-569.441 851.647,-579.441 858.647,-579.441"/>
</g>
<!-- Node60 -->
<g id="node198" class="node"><title>Node60</title>
<a xlink:href="_logger_8h.html" target="_top" xlink:title="base/Logger.h">
<polygon fill="white" stroke="black" points="1806.15,-541.5 1806.15,-562.5 1884.15,-562.5 1884.15,-541.5 1806.15,-541.5"/>
<text text-anchor="middle" x="1845.15" y="-549.5" font-family="Helvetica,sans-Serif" font-size="10.00">base/Logger.h</text>
</a>
</g>
<!-- Node1&#45;&gt;Node60 -->
<g id="edge276" class="edge"><title>Node1&#45;&gt;Node60</title>
<path fill="none" stroke="midnightblue" d="M913.745,-619.738C1092.58,-606.732 1629.27,-567.7 1795.51,-555.61"/>
<polygon fill="midnightblue" stroke="midnightblue" points="1796.19,-559.07 1805.91,-554.853 1795.69,-552.088 1796.19,-559.07"/>
</g>
<!-- Node3 -->
<g id="node5" class="node"><title>Node3</title>
<a xlink:href="calibration_2modules_2_time_8h.html" target="_top" xlink:title="Time.h">
<polygon fill="white" stroke="black" points="1424.65,-411.5 1424.65,-432.5 1471.65,-432.5 1471.65,-411.5 1424.65,-411.5"/>
<text text-anchor="middle" x="1448.15" y="-419.5" font-family="Helvetica,sans-Serif" font-size="10.00">Time.h</text>
</a>
</g>
<!-- Node2&#45;&gt;Node3 -->
<g id="edge4" class="edge"><title>Node2&#45;&gt;Node3</title>
<path fill="none" stroke="midnightblue" d="M1024.33,-483.838C1122.52,-477.176 1339.54,-460.598 1411.15,-440 1414.14,-439.139 1417.19,-438.05 1420.18,-436.834"/>
<polygon fill="midnightblue" stroke="midnightblue" points="1421.77,-439.956 1429.44,-432.648 1418.89,-433.577 1421.77,-439.956"/>
</g>
<!-- Node22 -->
<g id="node49" class="node"><title>Node22</title>
<polygon fill="white" stroke="#bfbfbf" points="855.147,-65.5 855.147,-86.5 907.147,-86.5 907.147,-65.5 855.147,-65.5"/>
<text text-anchor="middle" x="881.147" y="-73.5" font-family="Helvetica,sans-Serif" font-size="10.00">memory</text>
</g>
<!-- Node2&#45;&gt;Node22 -->
<g id="edge228" class="edge"><title>Node2&#45;&gt;Node22</title>
<path fill="none" stroke="midnightblue" d="M974.893,-476.423C973.752,-438.51 967.752,-306.145 938.147,-202 926.953,-162.623 905.384,-119.804 892.226,-95.5962"/>
<polygon fill="midnightblue" stroke="midnightblue" points="895.215,-93.7686 887.316,-86.708 889.088,-97.1536 895.215,-93.7686"/>
</g>
<!-- Node4 -->
<g id="node7" class="node"><title>Node4</title>
<a xlink:href="_calibration_8h.html" target="_top" xlink:title="calibration/Calibration.h">
<polygon fill="white" stroke="black" points="1154.65,-346.5 1154.65,-367.5 1273.65,-367.5 1273.65,-346.5 1154.65,-346.5"/>
<text text-anchor="middle" x="1214.15" y="-354.5" font-family="Helvetica,sans-Serif" font-size="10.00">calibration/Calibration.h</text>
</a>
</g>
<!-- Node3&#45;&gt;Node4 -->
<g id="edge6" class="edge"><title>Node3&#45;&gt;Node4</title>
<path fill="none" stroke="midnightblue" d="M1424.42,-415.41C1386.48,-404.872 1311.42,-384.021 1262.01,-370.295"/>
<polygon fill="midnightblue" stroke="midnightblue" points="1262.75,-366.87 1252.18,-367.566 1260.88,-373.614 1262.75,-366.87"/>
</g>
<!-- Node6 -->
<g id="node11" class="node"><title>Node6</title>
<a xlink:href="_detector__t_8h.html" target="_top" xlink:title="base/Detector_t.h">
<polygon fill="white" stroke="black" points="1668.65,-209.5 1668.65,-230.5 1763.65,-230.5 1763.65,-209.5 1668.65,-209.5"/>
<text text-anchor="middle" x="1716.15" y="-217.5" font-family="Helvetica,sans-Serif" font-size="10.00">base/Detector_t.h</text>
</a>
</g>
<!-- Node3&#45;&gt;Node6 -->
<g id="edge222" class="edge"><title>Node3&#45;&gt;Node6</title>
<path fill="none" stroke="midnightblue" d="M1462.18,-411.424C1505.95,-378.435 1640.23,-277.222 1693.77,-236.867"/>
<polygon fill="midnightblue" stroke="midnightblue" points="1696.05,-239.529 1701.93,-230.715 1691.84,-233.939 1696.05,-239.529"/>
</g>
<!-- Node13 -->
<g id="node27" class="node"><title>Node13</title>
<a xlink:href="math_8h.html" target="_top" xlink:title="base/std_ext/math.h">
<polygon fill="white" stroke="black" points="2457.15,-137.5 2457.15,-158.5 2563.15,-158.5 2563.15,-137.5 2457.15,-137.5"/>
<text text-anchor="middle" x="2510.15" y="-145.5" font-family="Helvetica,sans-Serif" font-size="10.00">base/std_ext/math.h</text>
</a>
</g>
<!-- Node3&#45;&gt;Node13 -->
<g id="edge220" class="edge"><title>Node3&#45;&gt;Node13</title>
<path fill="none" stroke="midnightblue" d="M1471.94,-416.282C1512.33,-406.55 1596.86,-386.062 1668.15,-368 1969.74,-291.589 2330.95,-195.758 2460.72,-161.19"/>
<polygon fill="midnightblue" stroke="midnightblue" points="2461.98,-164.474 2470.75,-158.518 2460.18,-157.71 2461.98,-164.474"/>
</g>
<!-- Node3&#45;&gt;Node22 -->
<g id="edge226" class="edge"><title>Node3&#45;&gt;Node22</title>
<path fill="none" stroke="midnightblue" d="M1424.54,-419.673C1362.22,-413.237 1194.79,-393.941 1146.15,-368 1020.89,-301.201 1027.59,-235.979 933.147,-130 922.106,-117.611 909.165,-104.168 898.954,-93.7938"/>
<polygon fill="midnightblue" stroke="midnightblue" points="901.279,-91.1679 891.755,-86.5271 896.306,-96.0945 901.279,-91.1679"/>
</g>
<!-- Node28 -->
<g id="node70" class="node"><title>Node28</title>
<a xlink:href="interval_8h.html" target="_top" xlink:title="base/interval.h">
<polygon fill="white" stroke="black" points="2273.15,-137.5 2273.15,-158.5 2353.15,-158.5 2353.15,-137.5 2273.15,-137.5"/>
<text text-anchor="middle" x="2313.15" y="-145.5" font-family="Helvetica,sans-Serif" font-size="10.00">base/interval.h</text>
</a>
</g>
<!-- Node3&#45;&gt;Node28 -->
<g id="edge224" class="edge"><title>Node3&#45;&gt;Node28</title>
<path fill="none" stroke="midnightblue" d="M1471.73,-414.529C1589.64,-377.181 2115.58,-210.58 2270.24,-161.591"/>
<polygon fill="midnightblue" stroke="midnightblue" points="2271.41,-164.893 2279.88,-158.537 2269.29,-158.22 2271.41,-164.893"/>
</g>
<!-- Node51 -->
<g id="node147" class="node"><title>Node51</title>
<a xlink:href="_fit_gaus_8h.html" target="_top" xlink:title="fitfunctions/FitGaus.h">
<polygon fill="white" stroke="black" points="656.147,-346.5 656.147,-367.5 766.147,-367.5 766.147,-346.5 656.147,-346.5"/>
<text text-anchor="middle" x="711.147" y="-354.5" font-family="Helvetica,sans-Serif" font-size="10.00">fitfunctions/FitGaus.h</text>
</a>
</g>
<!-- Node3&#45;&gt;Node51 -->
<g id="edge192" class="edge"><title>Node3&#45;&gt;Node51</title>
<path fill="none" stroke="midnightblue" d="M1424.46,-419.911C1324.27,-411.074 933.248,-376.588 776.586,-362.771"/>
<polygon fill="midnightblue" stroke="midnightblue" points="776.434,-359.245 766.165,-361.852 775.818,-366.217 776.434,-359.245"/>
</g>
<!-- Node5 -->
<g id="node9" class="node"><title>Node5</title>
<a xlink:href="_reconstruct__traits_8h.html" target="_top" xlink:title="reconstruct/Reconstruct\l_traits.h">
<polygon fill="white" stroke="black" points="692.147,-275 692.147,-309 814.147,-309 814.147,-275 692.147,-275"/>
<text text-anchor="start" x="700.147" y="-296" font-family="Helvetica,sans-Serif" font-size="10.00">reconstruct/Reconstruct</text>
<text text-anchor="middle" x="753.147" y="-283" font-family="Helvetica,sans-Serif" font-size="10.00">_traits.h</text>
</a>
</g>
<!-- Node4&#45;&gt;Node5 -->
<g id="edge8" class="edge"><title>Node4&#45;&gt;Node5</title>
<path fill="none" stroke="midnightblue" d="M1154.35,-348.569C1069.58,-336.617 914.731,-314.783 824.206,-302.019"/>
<polygon fill="midnightblue" stroke="midnightblue" points="824.694,-298.554 814.303,-300.623 823.717,-305.485 824.694,-298.554"/>
</g>
<!-- Node15 -->
<g id="node32" class="node"><title>Node15</title>
<polygon fill="white" stroke="#bfbfbf" points="2793.15,-0.5 2793.15,-21.5 2837.15,-21.5 2837.15,-0.5 2793.15,-0.5"/>
<text text-anchor="middle" x="2815.15" y="-8.5" font-family="Helvetica,sans-Serif" font-size="10.00">vector</text>
</g>
<!-- Node4&#45;&gt;Node15 -->
<g id="edge190" class="edge"><title>Node4&#45;&gt;Node15</title>
<path fill="none" stroke="midnightblue" d="M1273.95,-354.249C1563.63,-340.415 2812.45,-274.797 2944.15,-166 2982.65,-134.194 3005.07,-97.9793 2975.15,-58 2959.83,-37.5411 2889.55,-22.9482 2847.4,-15.8602"/>
<polygon fill="midnightblue" stroke="midnightblue" points="2847.77,-12.3747 2837.34,-14.2209 2846.64,-19.2836 2847.77,-12.3747"/>
</g>
<!-- Node27 -->
<g id="node68" class="node"><title>Node27</title>
<a xlink:href="_manager__traits_8h.html" target="_top" xlink:title="calibration/gui/Manager\l_traits.h">
<polygon fill="white" stroke="black" points="1098.65,-275 1098.65,-309 1215.65,-309 1215.65,-275 1098.65,-275"/>
<text text-anchor="start" x="1106.65" y="-296" font-family="Helvetica,sans-Serif" font-size="10.00">calibration/gui/Manager</text>
<text text-anchor="middle" x="1157.15" y="-283" font-family="Helvetica,sans-Serif" font-size="10.00">_traits.h</text>
</a>
</g>
<!-- Node4&#45;&gt;Node27 -->
<g id="edge82" class="edge"><title>Node4&#45;&gt;Node27</title>
<path fill="none" stroke="midnightblue" d="M1204.73,-346.267C1197.68,-338.221 1187.74,-326.882 1178.76,-316.648"/>
<polygon fill="midnightblue" stroke="midnightblue" points="1181.38,-314.321 1172.15,-309.11 1176.11,-318.936 1181.38,-314.321"/>
</g>
<!-- Node50 -->
<g id="node139" class="node"><title>Node50</title>
<a xlink:href="_options_list_8h.html" target="_top" xlink:title="base/OptionsList.h">
<polygon fill="white" stroke="black" points="1233.15,-281.5 1233.15,-302.5 1331.15,-302.5 1331.15,-281.5 1233.15,-281.5"/>
<text text-anchor="middle" x="1282.15" y="-289.5" font-family="Helvetica,sans-Serif" font-size="10.00">base/OptionsList.h</text>
</a>
</g>
<!-- Node4&#45;&gt;Node50 -->
<g id="edge178" class="edge"><title>Node4&#45;&gt;Node50</title>
<path fill="none" stroke="midnightblue" d="M1225.38,-346.267C1235.77,-336.328 1251.43,-321.363 1263.67,-309.664"/>
<polygon fill="midnightblue" stroke="midnightblue" points="1266.32,-311.974 1271.13,-302.534 1261.48,-306.913 1266.32,-311.974"/>
</g>
<!-- Node5&#45;&gt;Node6 -->
<g id="edge10" class="edge"><title>Node5&#45;&gt;Node6</title>
<path fill="none" stroke="midnightblue" d="M814.17,-288.011C943.106,-279.506 1252.72,-258.672 1512.15,-238 1561.48,-234.069 1617.48,-229.091 1658.31,-225.366"/>
<polygon fill="midnightblue" stroke="midnightblue" points="1658.71,-228.845 1668.35,-224.448 1658.07,-221.874 1658.71,-228.845"/>
</g>
<!-- Node20 -->
<g id="node45" class="node"><title>Node20</title>
<a xlink:href="mapped__vectors_8h.html" target="_top" xlink:title="base/std_ext/mapped\l_vectors.h">
<polygon fill="white" stroke="black" points="819.147,-203 819.147,-237 929.147,-237 929.147,-203 819.147,-203"/>
<text text-anchor="start" x="827.147" y="-224" font-family="Helvetica,sans-Serif" font-size="10.00">base/std_ext/mapped</text>
<text text-anchor="middle" x="874.147" y="-211" font-family="Helvetica,sans-Serif" font-size="10.00">_vectors.h</text>
</a>
</g>
<!-- Node5&#45;&gt;Node20 -->
<g id="edge50" class="edge"><title>Node5&#45;&gt;Node20</title>
<path fill="none" stroke="midnightblue" d="M781.822,-274.937C798.128,-265.234 818.746,-252.966 836.36,-242.485"/>
<polygon fill="midnightblue" stroke="midnightblue" points="838.454,-245.311 845.258,-237.19 834.874,-239.296 838.454,-245.311"/>
</g>
<!-- Node5&#45;&gt;Node22 -->
<g id="edge74" class="edge"><title>Node5&#45;&gt;Node22</title>
<path fill="none" stroke="midnightblue" d="M755.813,-274.767C759.125,-256.157 765.777,-225.96 777.147,-202 798.012,-158.026 837.635,-116.39 861.492,-93.7163"/>
<polygon fill="midnightblue" stroke="midnightblue" points="864.005,-96.159 868.929,-86.7779 859.229,-91.0407 864.005,-96.159"/>
</g>
<!-- Node23 -->
<g id="node51" class="node"><title>Node23</title>
<polygon fill="white" stroke="#bfbfbf" points="361.647,-65.5 361.647,-86.5 390.647,-86.5 390.647,-65.5 361.647,-65.5"/>
<text text-anchor="middle" x="376.147" y="-73.5" font-family="Helvetica,sans-Serif" font-size="10.00">list</text>
</g>
<!-- Node5&#45;&gt;Node23 -->
<g id="edge78" class="edge"><title>Node5&#45;&gt;Node23</title>
<path fill="none" stroke="midnightblue" d="M736.262,-274.9C711.56,-250.055 667.482,-206.439 658.147,-202 602.087,-175.347 423.391,-211.481 381.147,-166 363.994,-147.534 366.444,-116.681 370.622,-96.336"/>
<polygon fill="midnightblue" stroke="midnightblue" points="374.048,-97.0541 372.937,-86.5176 367.235,-95.4471 374.048,-97.0541"/>
</g>
<!-- Node24 -->
<g id="node56" class="node"><title>Node24</title>
<a xlink:href="shared__ptr__container_8h.html" target="_top" xlink:title="base/std_ext/shared\l_ptr_container.h">
<polygon fill="white" stroke="black" points="1476.65,-131 1476.65,-165 1581.65,-165 1581.65,-131 1476.65,-131"/>
<text text-anchor="start" x="1484.65" y="-152" font-family="Helvetica,sans-Serif" font-size="10.00">base/std_ext/shared</text>
<text text-anchor="middle" x="1529.15" y="-139" font-family="Helvetica,sans-Serif" font-size="10.00">_ptr_container.h</text>
</a>
</g>
<!-- Node5&#45;&gt;Node24 -->
<g id="edge64" class="edge"><title>Node5&#45;&gt;Node24</title>
<path fill="none" stroke="midnightblue" d="M814.217,-288.027C958.531,-278.434 1312.42,-253.648 1364.15,-238 1413.54,-223.06 1464.87,-192.237 1496.89,-170.853"/>
<polygon fill="midnightblue" stroke="midnightblue" points="1499.08,-173.599 1505.4,-165.093 1495.16,-167.803 1499.08,-173.599"/>
</g>
<!-- Node25 -->
<g id="node60" class="node"><title>Node25</title>
<polygon fill="white" stroke="#bfbfbf" points="1012.65,-0.5 1012.65,-21.5 1071.65,-21.5 1071.65,-0.5 1012.65,-0.5"/>
<text text-anchor="middle" x="1042.15" y="-8.5" font-family="Helvetica,sans-Serif" font-size="10.00">functional</text>
</g>
<!-- Node5&#45;&gt;Node25 -->
<g id="edge80" class="edge"><title>Node5&#45;&gt;Node25</title>
<path fill="none" stroke="midnightblue" d="M692.071,-288.56C572.256,-281.354 310.548,-263.228 224.147,-238 108.716,-204.297 -60.903,-144.964 22.1465,-58 56.5813,-21.942 818.459,-12.9605 1002.43,-11.3143"/>
<polygon fill="midnightblue" stroke="midnightblue" points="1002.51,-14.8138 1012.48,-11.2266 1002.45,-7.81411 1002.51,-14.8138"/>
</g>
<!-- Node26 -->
<g id="node64" class="node"><title>Node26</title>
<polygon fill="white" stroke="#bfbfbf" points="614.647,-209.5 614.647,-230.5 649.647,-230.5 649.647,-209.5 614.647,-209.5"/>
<text text-anchor="middle" x="632.147" y="-217.5" font-family="Helvetica,sans-Serif" font-size="10.00">map</text>
</g>
<!-- Node5&#45;&gt;Node26 -->
<g id="edge76" class="edge"><title>Node5&#45;&gt;Node26</title>
<path fill="none" stroke="midnightblue" d="M724.471,-274.937C704.441,-263.018 677.906,-247.229 658.424,-235.636"/>
<polygon fill="midnightblue" stroke="midnightblue" points="660.137,-232.582 649.753,-230.477 656.557,-238.598 660.137,-232.582"/>
</g>
<!-- Node7 -->
<g id="node13" class="node"><title>Node7</title>
<a xlink:href="printable_8h.html" target="_top" xlink:title="base/printable.h">
<polygon fill="white" stroke="black" points="1289.15,-65.5 1289.15,-86.5 1375.15,-86.5 1375.15,-65.5 1289.15,-65.5"/>
<text text-anchor="middle" x="1332.15" y="-73.5" font-family="Helvetica,sans-Serif" font-size="10.00">base/printable.h</text>
</a>
</g>
<!-- Node6&#45;&gt;Node7 -->
<g id="edge12" class="edge"><title>Node6&#45;&gt;Node7</title>
<path fill="none" stroke="midnightblue" d="M1712.98,-209.223C1706.66,-189.769 1690.48,-149.043 1661.15,-130 1557.01,-62.4074 1504.99,-122.453 1384.15,-94 1379.16,-92.8259 1373.98,-91.3538 1368.91,-89.7602"/>
<polygon fill="midnightblue" stroke="midnightblue" points="1369.96,-86.4209 1359.36,-86.5921 1367.75,-93.0644 1369.96,-86.4209"/>
</g>
<!-- Node8 -->
<g id="node15" class="node"><title>Node8</title>
<polygon fill="white" stroke="#bfbfbf" points="1190.15,-0.5 1190.15,-21.5 1252.15,-21.5 1252.15,-0.5 1190.15,-0.5"/>
<text text-anchor="middle" x="1221.15" y="-8.5" font-family="Helvetica,sans-Serif" font-size="10.00">type_traits</text>
</g>
<!-- Node6&#45;&gt;Node8 -->
<g id="edge46" class="edge"><title>Node6&#45;&gt;Node8</title>
<path fill="none" stroke="midnightblue" d="M1705.47,-209.488C1681.58,-185.995 1625.7,-131.194 1623.15,-130 1484.26,-65.1568 1412.5,-171.317 1280.15,-94 1255.58,-79.6474 1238.58,-50.5354 1229.35,-30.8952"/>
<polygon fill="midnightblue" stroke="midnightblue" points="1232.48,-29.3353 1225.23,-21.6164 1226.09,-32.1763 1232.48,-29.3353"/>
</g>
<!-- Node10 -->
<g id="node19" class="node"><title>Node10</title>
<a xlink:href="vec3_8h.html" target="_top" xlink:title="base/vec/vec3.h">
<polygon fill="white" stroke="black" points="1712.65,-137.5 1712.65,-158.5 1801.65,-158.5 1801.65,-137.5 1712.65,-137.5"/>
<text text-anchor="middle" x="1757.15" y="-145.5" font-family="Helvetica,sans-Serif" font-size="10.00">base/vec/vec3.h</text>
</a>
</g>
<!-- Node6&#45;&gt;Node10 -->
<g id="edge18" class="edge"><title>Node6&#45;&gt;Node10</title>
<path fill="none" stroke="midnightblue" d="M1722.2,-209.376C1728.43,-198.422 1738.3,-181.09 1745.97,-167.634"/>
<polygon fill="midnightblue" stroke="midnightblue" points="1749.17,-169.089 1751.07,-158.667 1743.08,-165.625 1749.17,-169.089"/>
</g>
<!-- Node6&#45;&gt;Node13 -->
<g id="edge28" class="edge"><title>Node6&#45;&gt;Node13</title>
<path fill="none" stroke="midnightblue" d="M1763.98,-219.057C1879.84,-216.198 2184.4,-205.245 2435.15,-166 2443.8,-164.646 2452.92,-162.809 2461.71,-160.825"/>
<polygon fill="midnightblue" stroke="midnightblue" points="2462.52,-164.231 2471.46,-158.539 2460.92,-157.416 2462.52,-164.231"/>
</g>
<!-- Node6&#45;&gt;Node15 -->
<g id="edge48" class="edge"><title>Node6&#45;&gt;Node15</title>
<path fill="none" stroke="midnightblue" d="M1763.91,-219.039C1979.96,-214.541 2857.55,-194.568 2908.15,-166 2953.89,-140.173 2986.86,-100.612 2956.15,-58 2943.25,-40.1099 2884.72,-25.1567 2847.24,-17.1942"/>
<polygon fill="midnightblue" stroke="midnightblue" points="2847.78,-13.7327 2837.28,-15.1371 2846.37,-20.588 2847.78,-13.7327"/>
</g>
<!-- Node17 -->
<g id="node36" class="node"><title>Node17</title>
<polygon fill="white" stroke="#bfbfbf" points="2392.65,-65.5 2392.65,-86.5 2451.65,-86.5 2451.65,-65.5 2392.65,-65.5"/>
<text text-anchor="middle" x="2422.15" y="-73.5" font-family="Helvetica,sans-Serif" font-size="10.00">stdexcept</text>
</g>
<!-- Node6&#45;&gt;Node17 -->
<g id="edge42" class="edge"><title>Node6&#45;&gt;Node17</title>
<path fill="none" stroke="midnightblue" d="M1763.89,-219.302C1910.53,-216.738 2347.37,-205.799 2396.15,-166 2416.55,-149.353 2421.54,-117.765 2422.46,-96.7924"/>
<polygon fill="midnightblue" stroke="midnightblue" points="2425.96,-96.7172 2422.62,-86.6618 2418.96,-96.6036 2425.96,-96.7172"/>
</g>
<!-- Node6&#45;&gt;Node18 -->
<g id="edge40" class="edge"><title>Node6&#45;&gt;Node18</title>
<path fill="none" stroke="midnightblue" d="M1668.53,-213.414C1597.73,-203.548 1460.54,-184.145 1344.15,-166 1318.97,-162.075 1290.54,-157.324 1269.17,-153.689"/>
<polygon fill="midnightblue" stroke="midnightblue" points="1269.74,-150.236 1259.3,-152.003 1268.57,-157.136 1269.74,-150.236"/>
</g>
<!-- Node19 -->
<g id="node41" class="node"><title>Node19</title>
<polygon fill="white" stroke="#bfbfbf" points="1088.65,-0.5 1088.65,-21.5 1129.65,-21.5 1129.65,-0.5 1088.65,-0.5"/>
<text text-anchor="middle" x="1109.15" y="-8.5" font-family="Helvetica,sans-Serif" font-size="10.00">string</text>
</g>
<!-- Node6&#45;&gt;Node19 -->
<g id="edge44" class="edge"><title>Node6&#45;&gt;Node19</title>
<path fill="none" stroke="midnightblue" d="M1693.52,-209.312C1673.9,-199.49 1645.26,-183.788 1623.15,-166 1606.23,-152.395 1609.54,-139.749 1590.15,-130 1450.83,-59.9615 1388.56,-144.832 1241.15,-94 1235.31,-91.9865 1170.69,-50.6482 1134.08,-27.0869"/>
<polygon fill="midnightblue" stroke="midnightblue" points="1135.73,-23.9872 1125.43,-21.5145 1131.94,-29.8721 1135.73,-23.9872"/>
</g>
<!-- Node7&#45;&gt;Node8 -->
<g id="edge14" class="edge"><title>Node7&#45;&gt;Node8</title>
<path fill="none" stroke="midnightblue" d="M1313.82,-65.2666C1295.88,-54.7601 1268.34,-38.6369 1247.94,-26.6924"/>
<polygon fill="midnightblue" stroke="midnightblue" points="1249.53,-23.5667 1239.13,-21.5337 1246,-29.6072 1249.53,-23.5667"/>
</g>
<!-- Node9 -->
<g id="node17" class="node"><title>Node9</title>
<polygon fill="white" stroke="#bfbfbf" points="1306.15,-0.5 1306.15,-21.5 1358.15,-21.5 1358.15,-0.5 1306.15,-0.5"/>
<text text-anchor="middle" x="1332.15" y="-8.5" font-family="Helvetica,sans-Serif" font-size="10.00">ostream</text>
</g>
<!-- Node7&#45;&gt;Node9 -->
<g id="edge16" class="edge"><title>Node7&#45;&gt;Node9</title>
<path fill="none" stroke="midnightblue" d="M1332.15,-65.2666C1332.15,-56.1799 1332.15,-42.8919 1332.15,-31.7395"/>
<polygon fill="midnightblue" stroke="midnightblue" points="1335.65,-31.5337 1332.15,-21.5337 1328.65,-31.5337 1335.65,-31.5337"/>
</g>
<!-- Node10&#45;&gt;Node7 -->
<g id="edge20" class="edge"><title>Node10&#45;&gt;Node7</title>
<path fill="none" stroke="midnightblue" d="M1727.03,-137.48C1718.14,-134.696 1708.33,-131.932 1699.15,-130 1561.25,-100.99 1521.55,-125.235 1384.15,-94 1379.09,-92.8515 1373.85,-91.3818 1368.72,-89.7785"/>
<polygon fill="midnightblue" stroke="midnightblue" points="1369.67,-86.4067 1359.08,-86.5799 1367.47,-93.0506 1369.67,-86.4067"/>
</g>
<!-- Node11 -->
<g id="node22" class="node"><title>Node11</title>
<a xlink:href="vec2_8h.html" target="_top" xlink:title="vec2.h">
<polygon fill="white" stroke="black" points="1393.15,-65.5 1393.15,-86.5 1439.15,-86.5 1439.15,-65.5 1393.15,-65.5"/>
<text text-anchor="middle" x="1416.15" y="-73.5" font-family="Helvetica,sans-Serif" font-size="10.00">vec2.h</text>
</a>
</g>
<!-- Node10&#45;&gt;Node11 -->
<g id="edge22" class="edge"><title>Node10&#45;&gt;Node11</title>
<path fill="none" stroke="midnightblue" d="M1726.38,-137.477C1717.66,-134.759 1708.09,-132.03 1699.15,-130 1591.39,-105.55 1558.74,-126.553 1453.15,-94 1450.17,-93.0826 1447.14,-91.9556 1444.15,-90.7171"/>
<polygon fill="midnightblue" stroke="midnightblue" points="1445.44,-87.4619 1434.89,-86.5009 1442.54,-93.832 1445.44,-87.4619"/>
</g>
<!-- Node12 -->
<g id="node24" class="node"><title>Node12</title>
<polygon fill="white" stroke="#bfbfbf" points="1712.15,-0.5 1712.15,-21.5 1756.15,-21.5 1756.15,-0.5 1712.15,-0.5"/>
<text text-anchor="middle" x="1734.15" y="-8.5" font-family="Helvetica,sans-Serif" font-size="10.00">cmath</text>
</g>
<!-- Node10&#45;&gt;Node12 -->
<g id="edge26" class="edge"><title>Node10&#45;&gt;Node12</title>
<path fill="none" stroke="midnightblue" d="M1724.1,-137.468C1715.96,-134.951 1707.26,-132.322 1699.15,-130 1638.62,-112.666 1600.59,-143.854 1562.15,-94 1522.89,-43.1008 1641.72,-21.6935 1701.73,-14.3"/>
<polygon fill="midnightblue" stroke="midnightblue" points="1702.32,-17.754 1711.85,-13.1164 1701.51,-10.8013 1702.32,-17.754"/>
</g>
<!-- Node11&#45;&gt;Node12 -->
<g id="edge24" class="edge"><title>Node11&#45;&gt;Node12</title>
<path fill="none" stroke="midnightblue" d="M1435.3,-65.3904C1440.92,-62.638 1447.16,-59.9132 1453.15,-58 1540.64,-30.0444 1649.07,-17.9149 1702.01,-13.3616"/>
<polygon fill="midnightblue" stroke="midnightblue" points="1702.46,-16.8365 1712.14,-12.5257 1701.89,-9.86019 1702.46,-16.8365"/>
</g>
<!-- Node13&#45;&gt;Node12 -->
<g id="edge30" class="edge"><title>Node13&#45;&gt;Node12</title>
<path fill="none" stroke="midnightblue" d="M2507.77,-137.378C2502.77,-117.8 2489.15,-76.3508 2460.15,-58 2430.46,-39.2182 1904.07,-17.5847 1766.71,-12.2407"/>
<polygon fill="midnightblue" stroke="midnightblue" points="1766.55,-8.73203 1756.42,-11.8427 1766.28,-15.7268 1766.55,-8.73203"/>
</g>
<!-- Node14 -->
<g id="node30" class="node"><title>Node14</title>
<polygon fill="white" stroke="#bfbfbf" points="2709.15,-65.5 2709.15,-86.5 2749.15,-86.5 2749.15,-65.5 2709.15,-65.5"/>
<text text-anchor="middle" x="2729.15" y="-73.5" font-family="Helvetica,sans-Serif" font-size="10.00">limits</text>
</g>
<!-- Node13&#45;&gt;Node14 -->
<g id="edge32" class="edge"><title>Node13&#45;&gt;Node14</title>
<path fill="none" stroke="midnightblue" d="M2555.88,-137.408C2593.86,-127.961 2648.95,-112.744 2695.15,-94 2697.26,-93.1431 2699.41,-92.1948 2701.56,-91.1947"/>
<polygon fill="midnightblue" stroke="midnightblue" points="2703.38,-94.1967 2710.77,-86.6013 2700.26,-87.9327 2703.38,-94.1967"/>
</g>
<!-- Node13&#45;&gt;Node15 -->
<g id="edge34" class="edge"><title>Node13&#45;&gt;Node15</title>
<path fill="none" stroke="midnightblue" d="M2563.39,-141.083C2626.44,-132.098 2726.83,-115.045 2758.15,-94 2781.27,-78.462 2797.69,-50.106 2806.8,-30.9113"/>
<polygon fill="midnightblue" stroke="midnightblue" points="2810.08,-32.1333 2810.99,-21.5775 2803.7,-29.263 2810.08,-32.1333"/>
</g>
<!-- Node16 -->
<g id="node34" class="node"><title>Node16</title>
<polygon fill="white" stroke="#bfbfbf" points="2337.15,-0.5 2337.15,-21.5 2393.15,-21.5 2393.15,-0.5 2337.15,-0.5"/>
<text text-anchor="middle" x="2365.15" y="-8.5" font-family="Helvetica,sans-Serif" font-size="10.00">algorithm</text>
</g>
<!-- Node13&#45;&gt;Node16 -->
<g id="edge36" class="edge"><title>Node13&#45;&gt;Node16</title>
<path fill="none" stroke="midnightblue" d="M2511.25,-137.445C2512.58,-119.059 2512.57,-80.932 2493.15,-58 2470.87,-31.6965 2432.52,-20.1098 2403.59,-15.0081"/>
<polygon fill="midnightblue" stroke="midnightblue" points="2403.83,-11.5026 2393.41,-13.4067 2402.74,-18.4177 2403.83,-11.5026"/>
</g>
<!-- Node13&#45;&gt;Node17 -->
<g id="edge38" class="edge"><title>Node13&#45;&gt;Node17</title>
<path fill="none" stroke="midnightblue" d="M2497.16,-137.376C2482.99,-125.784 2460.1,-107.05 2443.32,-93.324"/>
<polygon fill="midnightblue" stroke="midnightblue" points="2445.14,-90.291 2435.18,-86.6674 2440.71,-95.7087 2445.14,-90.291"/>
</g>
<!-- Node20&#45;&gt;Node8 -->
<g id="edge62" class="edge"><title>Node20&#45;&gt;Node8</title>
<path fill="none" stroke="midnightblue" d="M902.543,-202.897C968.419,-163.219 1130.88,-65.37 1194.75,-26.8997"/>
<polygon fill="midnightblue" stroke="midnightblue" points="1196.67,-29.8263 1203.43,-21.6686 1193.06,-23.83 1196.67,-29.8263"/>
</g>
<!-- Node20&#45;&gt;Node15 -->
<g id="edge58" class="edge"><title>Node20&#45;&gt;Node15</title>
<path fill="none" stroke="midnightblue" d="M929.447,-217.308C1008.51,-213.523 1158.43,-206.577 1286.15,-202 1571.85,-191.76 2290.62,-215.739 2572.15,-166 2671.8,-148.395 2716.85,-165.813 2788.15,-94 2804.67,-77.3581 2811.08,-50.5048 2813.57,-31.868"/>
<polygon fill="midnightblue" stroke="midnightblue" points="2817.07,-32.0513 2814.65,-21.737 2810.11,-31.3105 2817.07,-32.0513"/>
</g>
<!-- Node21 -->
<g id="node47" class="node"><title>Node21</title>
<a xlink:href="memory_8h.html" target="_top" xlink:title="base/std_ext/memory.h">
<polygon fill="white" stroke="black" points="422.647,-137.5 422.647,-158.5 541.647,-158.5 541.647,-137.5 422.647,-137.5"/>
<text text-anchor="middle" x="482.147" y="-145.5" font-family="Helvetica,sans-Serif" font-size="10.00">base/std_ext/memory.h</text>
</a>
</g>
<!-- Node20&#45;&gt;Node21 -->
<g id="edge52" class="edge"><title>Node20&#45;&gt;Node21</title>
<path fill="none" stroke="midnightblue" d="M818.814,-209.837C748.021,-196.834 625.482,-174.327 549.386,-160.35"/>
<polygon fill="midnightblue" stroke="midnightblue" points="549.894,-156.885 539.426,-158.521 548.629,-163.77 549.894,-156.885"/>
</g>
<!-- Node20&#45;&gt;Node22 -->
<g id="edge60" class="edge"><title>Node20&#45;&gt;Node22</title>
<path fill="none" stroke="midnightblue" d="M874.977,-202.916C876.269,-176.345 878.755,-125.207 880.144,-96.6222"/>
<polygon fill="midnightblue" stroke="midnightblue" points="883.644,-96.6994 880.634,-86.5413 876.653,-96.3595 883.644,-96.6994"/>
</g>
<!-- Node21&#45;&gt;Node22 -->
<g id="edge54" class="edge"><title>Node21&#45;&gt;Node22</title>
<path fill="none" stroke="midnightblue" d="M522.563,-137.441C533.13,-134.844 544.535,-132.184 555.147,-130 659.573,-108.51 784.184,-89.7636 844.642,-81.1022"/>
<polygon fill="midnightblue" stroke="midnightblue" points="845.413,-84.5278 854.82,-79.6528 844.426,-77.5977 845.413,-84.5278"/>
</g>
<!-- Node21&#45;&gt;Node23 -->
<g id="edge56" class="edge"><title>Node21&#45;&gt;Node23</title>
<path fill="none" stroke="midnightblue" d="M466.506,-137.376C448.747,-125.314 419.603,-105.518 399.229,-91.6789"/>
<polygon fill="midnightblue" stroke="midnightblue" points="401.065,-88.6947 390.826,-85.9711 397.132,-94.4852 401.065,-88.6947"/>
</g>
<!-- Node24&#45;&gt;Node15 -->
<g id="edge66" class="edge"><title>Node24&#45;&gt;Node15</title>
<path fill="none" stroke="midnightblue" d="M1581.91,-141.671C1616.6,-137.733 1663.02,-132.885 1704.15,-130 1810.41,-122.547 2563.95,-135.281 2662.15,-94 2683.59,-84.9839 2680.6,-70.6164 2700.15,-58 2726.15,-41.2153 2759.14,-28.4798 2783.11,-20.528"/>
<polygon fill="midnightblue" stroke="midnightblue" points="2784.33,-23.8101 2792.78,-17.4151 2782.19,-17.1466 2784.33,-23.8101"/>
</g>
<!-- Node24&#45;&gt;Node16 -->
<g id="edge72" class="edge"><title>Node24&#45;&gt;Node16</title>
<path fill="none" stroke="midnightblue" d="M1581.96,-142.32C1616.67,-138.649 1663.09,-133.854 1704.15,-130 1798.29,-121.162 2041.86,-132.691 2128.15,-94 2149.37,-84.481 2145.68,-69.0545 2166.15,-58 2217.69,-30.1651 2285.47,-18.6861 2327.14,-14.0425"/>
<polygon fill="midnightblue" stroke="midnightblue" points="2327.56,-17.5178 2337.14,-13.0035 2326.83,-10.5553 2327.56,-17.5178"/>
</g>
<!-- Node24&#45;&gt;Node22 -->
<g id="edge68" class="edge"><title>Node24&#45;&gt;Node22</title>
<path fill="none" stroke="midnightblue" d="M1476.4,-131.751C1473.62,-131.109 1470.86,-130.52 1468.15,-130 1361.4,-109.545 1027.71,-85.8601 917.141,-78.3857"/>
<polygon fill="midnightblue" stroke="midnightblue" points="917.364,-74.8929 907.152,-77.7136 916.894,-81.8771 917.364,-74.8929"/>
</g>
<!-- Node24&#45;&gt;Node25 -->
<g id="edge70" class="edge"><title>Node24&#45;&gt;Node25</title>
<path fill="none" stroke="midnightblue" d="M1476.37,-131.904C1473.6,-131.222 1470.84,-130.582 1468.15,-130 1354.54,-105.486 1320.18,-128.309 1209.15,-94 1156.22,-77.6453 1099.44,-46.0729 1067.6,-26.9322"/>
<polygon fill="midnightblue" stroke="midnightblue" points="1069.29,-23.8638 1058.93,-21.654 1065.65,-29.8432 1069.29,-23.8638"/>
</g>
<!-- Node27&#45;&gt;Node19 -->
<g id="edge172" class="edge"><title>Node27&#45;&gt;Node19</title>
<path fill="none" stroke="midnightblue" d="M1149.86,-274.94C1135.87,-241.167 1105.71,-163.078 1095.15,-94 1092.73,-78.1838 1092.84,-73.8327 1095.15,-58 1096.46,-48.9958 1099.12,-39.3181 1101.77,-31.0986"/>
<polygon fill="midnightblue" stroke="midnightblue" points="1105.08,-32.2223 1105.02,-21.6276 1098.46,-29.9496 1105.08,-32.2223"/>
</g>
<!-- Node27&#45;&gt;Node22 -->
<g id="edge176" class="edge"><title>Node27&#45;&gt;Node22</title>
<path fill="none" stroke="midnightblue" d="M1116.87,-274.867C1097.64,-265.581 1075,-252.94 1057.15,-238 1010.09,-198.625 1017.3,-170.43 971.147,-130 953.522,-114.561 930.896,-101.008 912.74,-91.3414"/>
<polygon fill="midnightblue" stroke="midnightblue" points="914.191,-88.1513 903.703,-86.6512 910.966,-94.3643 914.191,-88.1513"/>
</g>
<!-- Node27&#45;&gt;Node23 -->
<g id="edge174" class="edge"><title>Node27&#45;&gt;Node23</title>
<path fill="none" stroke="midnightblue" d="M1098.34,-285.428C1028.93,-277.079 910.283,-260.945 810.147,-238 756.701,-225.754 745.745,-213.561 692.147,-202 631.253,-188.865 463.736,-203.701 414.147,-166 392.287,-149.381 382.878,-117.786 378.914,-96.8039"/>
<polygon fill="midnightblue" stroke="midnightblue" points="382.326,-95.9759 377.264,-86.6682 375.417,-97.1007 382.326,-95.9759"/>
</g>
<!-- Node27&#45;&gt;Node28 -->
<g id="edge84" class="edge"><title>Node27&#45;&gt;Node28</title>
<path fill="none" stroke="midnightblue" d="M1215.85,-275.668C1218.65,-275.067 1221.42,-274.506 1224.15,-274 1373.98,-246.144 1416.89,-273.293 1565.15,-238 1609.07,-227.544 1616.11,-211.958 1660.15,-202 1774.79,-176.078 2129.86,-156.818 2262.49,-150.356"/>
<polygon fill="midnightblue" stroke="midnightblue" points="2262.95,-153.838 2272.77,-149.86 2262.61,-146.847 2262.95,-153.838"/>
</g>
<!-- Node31 -->
<g id="node80" class="node"><title>Node31</title>
<a xlink:href="_wrap_t_file_8h.html" target="_top" xlink:title="base/WrapTFile.h">
<polygon fill="white" stroke="black" points="1819.15,-137.5 1819.15,-158.5 1913.15,-158.5 1913.15,-137.5 1819.15,-137.5"/>
<text text-anchor="middle" x="1866.15" y="-145.5" font-family="Helvetica,sans-Serif" font-size="10.00">base/WrapTFile.h</text>
</a>
</g>
<!-- Node27&#45;&gt;Node31 -->
<g id="edge98" class="edge"><title>Node27&#45;&gt;Node31</title>
<path fill="none" stroke="midnightblue" d="M1215.87,-275.733C1218.66,-275.115 1221.43,-274.532 1224.15,-274 1350.74,-249.206 1388.2,-273.754 1512.15,-238 1548.44,-227.529 1553.05,-213.143 1589.15,-202 1684.24,-172.647 1713.39,-189.292 1810.15,-166 1815.48,-164.715 1821.05,-163.177 1826.51,-161.547"/>
<polygon fill="midnightblue" stroke="midnightblue" points="1827.64,-164.86 1836.16,-158.551 1825.57,-158.175 1827.64,-164.86"/>
</g>
<!-- Node43 -->
<g id="node115" class="node"><title>Node43</title>
<a xlink:href="_t_i_d_8h.html" target="_top" xlink:title="tree/TID.h">
<polygon fill="white" stroke="black" points="1294.65,-209.5 1294.65,-230.5 1355.65,-230.5 1355.65,-209.5 1294.65,-209.5"/>
<text text-anchor="middle" x="1325.15" y="-217.5" font-family="Helvetica,sans-Serif" font-size="10.00">tree/TID.h</text>
</a>
</g>
<!-- Node27&#45;&gt;Node43 -->
<g id="edge144" class="edge"><title>Node27&#45;&gt;Node43</title>
<path fill="none" stroke="midnightblue" d="M1196.96,-274.937C1225.48,-262.715 1263.5,-246.422 1290.71,-234.759"/>
<polygon fill="midnightblue" stroke="midnightblue" points="1292.4,-237.844 1300.21,-230.688 1289.64,-231.41 1292.4,-237.844"/>
</g>
<!-- Node28&#45;&gt;Node7 -->
<g id="edge86" class="edge"><title>Node28&#45;&gt;Node7</title>
<path fill="none" stroke="midnightblue" d="M2273.02,-145.976C2100.46,-137.233 1428.32,-102.755 1384.15,-94 1378.76,-92.9321 1373.17,-91.4358 1367.74,-89.7575"/>
<polygon fill="midnightblue" stroke="midnightblue" points="1368.8,-86.4246 1358.21,-86.5931 1366.6,-93.0675 1368.8,-86.4246"/>
</g>
<!-- Node28&#45;&gt;Node14 -->
<g id="edge94" class="edge"><title>Node28&#45;&gt;Node14</title>
<path fill="none" stroke="midnightblue" d="M2353.38,-142.499C2449.86,-129.281 2687.03,-96.6317 2695.15,-94 2697.74,-93.1596 2700.37,-92.1302 2702.95,-90.9932"/>
<polygon fill="midnightblue" stroke="midnightblue" points="2704.57,-94.0967 2712.01,-86.5505 2701.49,-87.812 2704.57,-94.0967"/>
</g>
<!-- Node28&#45;&gt;Node16 -->
<g id="edge90" class="edge"><title>Node28&#45;&gt;Node16</title>
<path fill="none" stroke="midnightblue" d="M2321.07,-137.386C2328.56,-126.879 2339.6,-110.077 2346.15,-94 2354.47,-73.5607 2359.55,-48.7322 2362.33,-31.5856"/>
<polygon fill="midnightblue" stroke="midnightblue" points="2365.82,-31.9601 2363.85,-21.5504 2358.9,-30.9178 2365.82,-31.9601"/>
</g>
<!-- Node28&#45;&gt;Node17 -->
<g id="edge92" class="edge"><title>Node28&#45;&gt;Node17</title>
<path fill="none" stroke="midnightblue" d="M2329.23,-137.376C2347.26,-125.465 2376.71,-106.013 2397.62,-92.2024"/>
<polygon fill="midnightblue" stroke="midnightblue" points="2399.58,-95.0995 2406,-86.6674 2395.72,-89.2587 2399.58,-95.0995"/>
</g>
<!-- Node29 -->
<g id="node73" class="node"><title>Node29</title>
<a xlink:href="types_8h.html" target="_top" xlink:title="types.h">
<polygon fill="white" stroke="black" points="2288.65,-65.5 2288.65,-86.5 2337.65,-86.5 2337.65,-65.5 2288.65,-65.5"/>
<text text-anchor="middle" x="2313.15" y="-73.5" font-family="Helvetica,sans-Serif" font-size="10.00">types.h</text>
</a>
</g>
<!-- Node28&#45;&gt;Node29 -->
<g id="edge88" class="edge"><title>Node28&#45;&gt;Node29</title>
<path fill="none" stroke="midnightblue" d="M2313.15,-137.376C2313.15,-126.741 2313.15,-110.095 2313.15,-96.8195"/>
<polygon fill="midnightblue" stroke="midnightblue" points="2316.65,-96.6674 2313.15,-86.6674 2309.65,-96.6675 2316.65,-96.6674"/>
</g>
<!-- Node30 -->
<g id="node78" class="node"><title>Node30</title>
<polygon fill="white" stroke="#bfbfbf" points="2222.65,-65.5 2222.65,-86.5 2271.65,-86.5 2271.65,-65.5 2222.65,-65.5"/>
<text text-anchor="middle" x="2247.15" y="-73.5" font-family="Helvetica,sans-Serif" font-size="10.00">istream</text>
</g>
<!-- Node28&#45;&gt;Node30 -->
<g id="edge96" class="edge"><title>Node28&#45;&gt;Node30</title>
<path fill="none" stroke="midnightblue" d="M2303.41,-137.376C2292.98,-125.997 2276.24,-107.735 2263.72,-94.0845"/>
<polygon fill="midnightblue" stroke="midnightblue" points="2266.26,-91.674 2256.93,-86.6674 2261.1,-96.404 2266.26,-91.674"/>
</g>
<!-- Node31&#45;&gt;Node17 -->
<g id="edge140" class="edge"><title>Node31&#45;&gt;Node17</title>
<path fill="none" stroke="midnightblue" d="M1913.43,-144.583C1999.81,-137.917 2188.76,-121.388 2346.15,-94 2358.03,-91.9323 2370.83,-89.1286 2382.47,-86.3498"/>
<polygon fill="midnightblue" stroke="midnightblue" points="2383.48,-89.708 2392.36,-83.9334 2381.81,-82.9082 2383.48,-89.708"/>
</g>
<!-- Node31&#45;&gt;Node19 -->
<g id="edge134" class="edge"><title>Node31&#45;&gt;Node19</title>
<path fill="none" stroke="midnightblue" d="M1836.47,-137.444C1828.04,-134.725 1818.8,-132.005 1810.15,-130 1701.64,-104.871 1663.82,-139.475 1562.15,-94 1539.39,-83.8234 1542.09,-67.742 1519.15,-58 1380.09,1.04787 1330.97,-41.4129 1181.15,-22 1167.63,-20.2482 1152.72,-18.0209 1140,-16.0294"/>
<polygon fill="midnightblue" stroke="midnightblue" points="1140.33,-12.5379 1129.91,-14.4275 1139.23,-19.4514 1140.33,-12.5379"/>
</g>
<!-- Node31&#45;&gt;Node22 -->
<g id="edge132" class="edge"><title>Node31&#45;&gt;Node22</title>
<path fill="none" stroke="midnightblue" d="M1838.02,-137.426C1829.21,-134.533 1819.38,-131.724 1810.15,-130 1721.36,-113.429 1078.88,-84.6062 917.73,-77.5786"/>
<polygon fill="midnightblue" stroke="midnightblue" points="917.54,-74.0671 907.397,-77.1291 917.235,-81.0604 917.54,-74.0671"/>
</g>
<!-- Node31&#45;&gt;Node23 -->
<g id="edge136" class="edge"><title>Node31&#45;&gt;Node23</title>
<path fill="none" stroke="midnightblue" d="M1838.61,-137.497C1829.66,-134.532 1819.6,-131.663 1810.15,-130 1599.02,-92.8529 1060.36,-102.102 846.147,-94 675.745,-87.5552 470.6,-79.6473 400.783,-76.9518"/>
<polygon fill="midnightblue" stroke="midnightblue" points="400.893,-73.4535 390.766,-76.565 400.623,-80.4483 400.893,-73.4535"/>
</g>
<!-- Node31&#45;&gt;Node25 -->
<g id="edge142" class="edge"><title>Node31&#45;&gt;Node25</title>
<path fill="none" stroke="midnightblue" d="M1836.79,-137.419C1828.28,-134.667 1818.92,-131.935 1810.15,-130 1682.88,-101.937 1643.79,-132.036 1519.15,-94 1485.31,-83.6738 1482.12,-67.8927 1448.15,-58 1293.6,-12.9918 1243.59,-51.3367 1082.18,-22.0989"/>
<polygon fill="midnightblue" stroke="midnightblue" points="1082.36,-18.5731 1071.89,-20.1722 1081.08,-25.4535 1082.36,-18.5731"/>
</g>
<!-- Node32 -->
<g id="node82" class="node"><title>Node32</title>
<a xlink:href="string_8h.html" target="_top" xlink:title="base/std_ext/string.h">
<polygon fill="white" stroke="black" points="2545.15,-65.5 2545.15,-86.5 2653.15,-86.5 2653.15,-65.5 2545.15,-65.5"/>
<text text-anchor="middle" x="2599.15" y="-73.5" font-family="Helvetica,sans-Serif" font-size="10.00">base/std_ext/string.h</text>
</a>
</g>
<!-- Node31&#45;&gt;Node32 -->
<g id="edge100" class="edge"><title>Node31&#45;&gt;Node32</title>
<path fill="none" stroke="midnightblue" d="M1913.18,-144.337C2013.7,-136.375 2256.86,-116.394 2460.15,-94 2484.59,-91.3076 2511.39,-87.9363 2534.88,-84.8414"/>
<polygon fill="midnightblue" stroke="midnightblue" points="2535.62,-88.2739 2545.07,-83.4888 2534.7,-81.3347 2535.62,-88.2739"/>
</g>
<!-- Node34 -->
<g id="node89" class="node"><title>Node34</title>
<a xlink:href="misc_8h.html" target="_top" xlink:title="base/std_ext/misc.h">
<polygon fill="white" stroke="black" points="2014.65,-65.5 2014.65,-86.5 2119.65,-86.5 2119.65,-65.5 2014.65,-65.5"/>
<text text-anchor="middle" x="2067.15" y="-73.5" font-family="Helvetica,sans-Serif" font-size="10.00">base/std_ext/misc.h</text>
</a>
</g>
<!-- Node31&#45;&gt;Node34 -->
<g id="edge110" class="edge"><title>Node31&#45;&gt;Node34</title>
<path fill="none" stroke="midnightblue" d="M1895.8,-137.376C1930.79,-124.844 1989.08,-103.965 2027.81,-90.0907"/>
<polygon fill="midnightblue" stroke="midnightblue" points="2029.46,-93.2175 2037.69,-86.5501 2027.1,-86.6275 2029.46,-93.2175"/>
</g>
<!-- Node36 -->
<g id="node96" class="node"><title>Node36</title>
<polygon fill="white" stroke="#bfbfbf" points="1570.65,-65.5 1570.65,-86.5 1617.65,-86.5 1617.65,-65.5 1570.65,-65.5"/>
<text text-anchor="middle" x="1594.15" y="-73.5" font-family="Helvetica,sans-Serif" font-size="10.00">TFile.h</text>
</g>
<!-- Node31&#45;&gt;Node36 -->
<g id="edge120" class="edge"><title>Node31&#45;&gt;Node36</title>
<path fill="none" stroke="midnightblue" d="M1835.53,-137.44C1827.34,-134.813 1818.45,-132.14 1810.15,-130 1729.45,-109.214 1704.34,-122.792 1626.15,-94 1624.01,-93.2126 1621.84,-92.2941 1619.7,-91.2965"/>
<polygon fill="midnightblue" stroke="midnightblue" points="1621.09,-88.0747 1610.6,-86.5773 1617.87,-94.2886 1621.09,-88.0747"/>
</g>
<!-- Node37 -->
<g id="node98" class="node"><title>Node37</title>
<polygon fill="white" stroke="#bfbfbf" points="1634.65,-65.5 1634.65,-86.5 1705.65,-86.5 1705.65,-65.5 1634.65,-65.5"/>
<text text-anchor="middle" x="1670.15" y="-73.5" font-family="Helvetica,sans-Serif" font-size="10.00">TDirectory.h</text>
</g>
<!-- Node31&#45;&gt;Node37 -->
<g id="edge122" class="edge"><title>Node31&#45;&gt;Node37</title>
<path fill="none" stroke="midnightblue" d="M1835.13,-137.46C1804.3,-126.87 1755.74,-109.887 1714.15,-94 1711.23,-92.8874 1708.22,-91.7112 1705.2,-90.5143"/>
<polygon fill="midnightblue" stroke="midnightblue" points="1706.24,-87.1594 1695.66,-86.6738 1703.63,-93.6535 1706.24,-87.1594"/>
</g>
<!-- Node38 -->
<g id="node100" class="node"><title>Node38</title>
<polygon fill="white" stroke="#bfbfbf" points="1723.15,-65.5 1723.15,-86.5 1775.15,-86.5 1775.15,-65.5 1723.15,-65.5"/>
<text text-anchor="middle" x="1749.15" y="-73.5" font-family="Helvetica,sans-Serif" font-size="10.00">TError.h</text>
</g>
<!-- Node31&#45;&gt;Node38 -->
<g id="edge124" class="edge"><title>Node31&#45;&gt;Node38</title>
<path fill="none" stroke="midnightblue" d="M1848.88,-137.376C1829.44,-125.412 1797.63,-105.839 1775.18,-92.0177"/>
<polygon fill="midnightblue" stroke="midnightblue" points="1776.83,-88.9276 1766.48,-86.6674 1773.16,-94.8893 1776.83,-88.9276"/>
</g>
<!-- Node39 -->
<g id="node102" class="node"><title>Node39</title>
<polygon fill="white" stroke="#bfbfbf" points="1792.65,-65.5 1792.65,-86.5 1839.65,-86.5 1839.65,-65.5 1792.65,-65.5"/>
<text text-anchor="middle" x="1816.15" y="-73.5" font-family="Helvetica,sans-Serif" font-size="10.00">TList.h</text>
</g>
<!-- Node31&#45;&gt;Node39 -->
<g id="edge126" class="edge"><title>Node31&#45;&gt;Node39</title>
<path fill="none" stroke="midnightblue" d="M1858.77,-137.376C1851.09,-126.316 1838.89,-108.753 1829.51,-95.2433"/>
<polygon fill="midnightblue" stroke="midnightblue" points="1832.13,-92.8848 1823.55,-86.6674 1826.38,-96.8776 1832.13,-92.8848"/>
</g>
<!-- Node40 -->
<g id="node104" class="node"><title>Node40</title>
<polygon fill="white" stroke="#bfbfbf" points="1857.15,-65.5 1857.15,-86.5 1931.15,-86.5 1931.15,-65.5 1857.15,-65.5"/>
<text text-anchor="middle" x="1894.15" y="-73.5" font-family="Helvetica,sans-Serif" font-size="10.00">TCollection.h</text>
</g>
<!-- Node31&#45;&gt;Node40 -->
<g id="edge128" class="edge"><title>Node31&#45;&gt;Node40</title>
<path fill="none" stroke="midnightblue" d="M1870.28,-137.376C1874.5,-126.528 1881.15,-109.426 1886.36,-96.0271"/>
<polygon fill="midnightblue" stroke="midnightblue" points="1889.64,-97.2561 1890,-86.6674 1883.11,-94.7189 1889.64,-97.2561"/>
</g>
<!-- Node41 -->
<g id="node106" class="node"><title>Node41</title>
<polygon fill="white" stroke="#bfbfbf" points="1949.15,-65.5 1949.15,-86.5 1997.15,-86.5 1997.15,-65.5 1949.15,-65.5"/>
<text text-anchor="middle" x="1973.15" y="-73.5" font-family="Helvetica,sans-Serif" font-size="10.00">TKey.h</text>
</g>
<!-- Node31&#45;&gt;Node41 -->
<g id="edge130" class="edge"><title>Node31&#45;&gt;Node41</title>
<path fill="none" stroke="midnightblue" d="M1881.93,-137.376C1899.56,-125.518 1928.29,-106.186 1948.79,-92.3877"/>
<polygon fill="midnightblue" stroke="midnightblue" points="1950.95,-95.154 1957.29,-86.6674 1947.04,-89.3464 1950.95,-95.154"/>
</g>
<!-- Node42 -->
<g id="node111" class="node"><title>Node42</title>
<polygon fill="white" stroke="#bfbfbf" points="2175.15,-65.5 2175.15,-86.5 2205.15,-86.5 2205.15,-65.5 2175.15,-65.5"/>
<text text-anchor="middle" x="2190.15" y="-73.5" font-family="Helvetica,sans-Serif" font-size="10.00">set</text>
</g>
<!-- Node31&#45;&gt;Node42 -->
<g id="edge138" class="edge"><title>Node31&#45;&gt;Node42</title>
<path fill="none" stroke="midnightblue" d="M1898.86,-137.468C1907.95,-134.781 1917.88,-132.07 1927.15,-130 2029.84,-107.058 2062.45,-130.483 2161.15,-94 2163.02,-93.3066 2164.91,-92.4832 2166.77,-91.576"/>
<polygon fill="midnightblue" stroke="midnightblue" points="2168.69,-94.5107 2175.69,-86.5576 2165.26,-88.4096 2168.69,-94.5107"/>
</g>
<!-- Node32&#45;&gt;Node15 -->
<g id="edge108" class="edge"><title>Node32&#45;&gt;Node15</title>
<path fill="none" stroke="midnightblue" d="M2634.33,-65.412C2675.57,-53.0021 2743.32,-32.6138 2783.14,-20.632"/>
<polygon fill="midnightblue" stroke="midnightblue" points="2784.3,-23.9381 2792.87,-17.7049 2782.28,-17.2351 2784.3,-23.9381"/>
</g>
<!-- Node32&#45;&gt;Node16 -->
<g id="edge106" class="edge"><title>Node32&#45;&gt;Node16</title>
<path fill="none" stroke="midnightblue" d="M2561.29,-65.4844C2517.73,-53.3842 2446.61,-33.63 2403.04,-21.5256"/>
<polygon fill="midnightblue" stroke="midnightblue" points="2403.95,-18.1476 2393.38,-18.8434 2402.08,-24.8922 2403.95,-18.1476"/>
</g>
<!-- Node32&#45;&gt;Node19 -->
<g id="edge102" class="edge"><title>Node32&#45;&gt;Node19</title>
<path fill="none" stroke="midnightblue" d="M2544.82,-67.6764C2519.2,-64.082 2488.17,-60.2029 2460.15,-58 1893.23,-13.4281 1747.52,-73.039 1181.15,-22 1167.57,-20.7764 1152.66,-18.6325 1139.94,-16.5604"/>
<polygon fill="midnightblue" stroke="midnightblue" points="1140.3,-13.0714 1129.86,-14.8585 1139.14,-19.9738 1140.3,-13.0714"/>
</g>
<!-- Node33 -->
<g id="node85" class="node"><title>Node33</title>
<polygon fill="white" stroke="#bfbfbf" points="2648.15,-0.5 2648.15,-21.5 2700.15,-21.5 2700.15,-0.5 2648.15,-0.5"/>
<text text-anchor="middle" x="2674.15" y="-8.5" font-family="Helvetica,sans-Serif" font-size="10.00">sstream</text>
</g>
<!-- Node32&#45;&gt;Node33 -->
<g id="edge104" class="edge"><title>Node32&#45;&gt;Node33</title>
<path fill="none" stroke="midnightblue" d="M2611.53,-65.2666C2623.11,-55.2334 2640.59,-40.078 2654.15,-28.3311"/>
<polygon fill="midnightblue" stroke="midnightblue" points="2656.73,-30.728 2661.99,-21.5337 2652.14,-25.4381 2656.73,-30.728"/>
</g>
<!-- Node34&#45;&gt;Node12 -->
<g id="edge116" class="edge"><title>Node34&#45;&gt;Node12</title>
<path fill="none" stroke="midnightblue" d="M2034.09,-65.4875C2025.08,-62.8309 2015.29,-60.1307 2006.15,-58 1920.31,-37.9907 1817.42,-22.4733 1766.28,-15.3212"/>
<polygon fill="midnightblue" stroke="midnightblue" points="1766.56,-11.8272 1756.18,-13.9234 1765.6,-18.7611 1766.56,-11.8272"/>
</g>
<!-- Node34&#45;&gt;Node16 -->
<g id="edge112" class="edge"><title>Node34&#45;&gt;Node16</title>
<path fill="none" stroke="midnightblue" d="M2104.04,-65.4747C2113.49,-62.9045 2123.67,-60.2493 2133.15,-58 2200.99,-41.8958 2280.81,-26.4931 2326.93,-17.9359"/>
<polygon fill="midnightblue" stroke="midnightblue" points="2327.6,-21.3717 2336.8,-16.1145 2326.33,-14.488 2327.6,-21.3717"/>
</g>
<!-- Node34&#45;&gt;Node25 -->
<g id="edge114" class="edge"><title>Node34&#45;&gt;Node25</title>
<path fill="none" stroke="midnightblue" d="M2036.77,-65.4261C2027.1,-62.4963 2016.28,-59.6654 2006.15,-58 1603.01,8.25776 1488.57,-86.2007 1081.83,-21.9391"/>
<polygon fill="midnightblue" stroke="midnightblue" points="1082.29,-18.468 1071.86,-20.3417 1081.18,-25.3799 1082.29,-18.468"/>
</g>
<!-- Node35 -->
<g id="node94" class="node"><title>Node35</title>
<polygon fill="white" stroke="#bfbfbf" points="2040.65,-0.5 2040.65,-21.5 2093.65,-21.5 2093.65,-0.5 2040.65,-0.5"/>
<text text-anchor="middle" x="2067.15" y="-8.5" font-family="Helvetica,sans-Serif" font-size="10.00">cxxabi.h</text>
</g>
<!-- Node34&#45;&gt;Node35 -->
<g id="edge118" class="edge"><title>Node34&#45;&gt;Node35</title>
<path fill="none" stroke="midnightblue" d="M2067.15,-65.2666C2067.15,-56.1799 2067.15,-42.8919 2067.15,-31.7395"/>
<polygon fill="midnightblue" stroke="midnightblue" points="2070.65,-31.5337 2067.15,-21.5337 2063.65,-31.5337 2070.65,-31.5337"/>
</g>
<!-- Node43&#45;&gt;Node7 -->
<g id="edge148" class="edge"><title>Node43&#45;&gt;Node7</title>
<path fill="none" stroke="midnightblue" d="M1325.67,-209.177C1326.83,-185.292 1329.63,-127.736 1331.14,-96.6864"/>
<polygon fill="midnightblue" stroke="midnightblue" points="1334.64,-96.7158 1331.63,-86.5577 1327.65,-96.3759 1334.64,-96.7158"/>
</g>
<!-- Node43&#45;&gt;Node8 -->
<g id="edge158" class="edge"><title>Node43&#45;&gt;Node8</title>
<path fill="none" stroke="midnightblue" d="M1318.28,-209.249C1300.26,-181.017 1252.68,-106.108 1247.15,-94 1237.77,-73.4982 1230.49,-48.6801 1226.05,-31.553"/>
<polygon fill="midnightblue" stroke="midnightblue" points="1229.36,-30.3855 1223.54,-21.5314 1222.57,-32.0814 1229.36,-30.3855"/>
</g>
<!-- Node43&#45;&gt;Node17 -->
<g id="edge164" class="edge"><title>Node43&#45;&gt;Node17</title>
<path fill="none" stroke="midnightblue" d="M1356.09,-218.312C1415.18,-215.094 1548.18,-207.879 1660.15,-202 1738.14,-197.905 2294.25,-204.605 2362.15,-166 2376.28,-157.964 2398.74,-119.628 2411.8,-95.6551"/>
<polygon fill="midnightblue" stroke="midnightblue" points="2414.97,-97.1473 2416.62,-86.6809 2408.8,-93.8372 2414.97,-97.1473"/>
</g>
<!-- Node43&#45;&gt;Node18 -->
<g id="edge162" class="edge"><title>Node43&#45;&gt;Node18</title>
<path fill="none" stroke="midnightblue" d="M1312.01,-209.376C1297.69,-197.784 1274.53,-179.05 1257.56,-165.324"/>
<polygon fill="midnightblue" stroke="midnightblue" points="1259.31,-162.236 1249.33,-158.667 1254.91,-167.678 1259.31,-162.236"/>
</g>
<!-- Node43&#45;&gt;Node23 -->
<g id="edge166" class="edge"><title>Node43&#45;&gt;Node23</title>
<path fill="none" stroke="midnightblue" d="M1294.29,-218.991C1177.07,-214.943 759.577,-198.512 631.147,-166 592.956,-156.332 587.023,-143.862 550.147,-130 497.784,-110.316 434.724,-92.0565 400.739,-82.6479"/>
<polygon fill="midnightblue" stroke="midnightblue" points="401.347,-79.1854 390.778,-79.9136 399.494,-85.9357 401.347,-79.1854"/>
</g>
<!-- Node44 -->
<g id="node117" class="node"><title>Node44</title>
<polygon fill="white" stroke="#bfbfbf" points="61.1465,-0.5 61.1465,-21.5 117.147,-21.5 117.147,-0.5 61.1465,-0.5"/>
<text text-anchor="middle" x="89.1465" y="-8.5" font-family="Helvetica,sans-Serif" font-size="10.00">Rtypes.h</text>
</g>
<!-- Node43&#45;&gt;Node44 -->
<g id="edge146" class="edge"><title>Node43&#45;&gt;Node44</title>
<path fill="none" stroke="midnightblue" d="M1294.44,-218.329C1172.29,-211.569 724.569,-185.668 664.147,-166 634.937,-156.492 632.912,-143.141 605.147,-130 517.483,-88.5095 493.276,-81.3699 399.147,-58 302.71,-34.0571 186.186,-20.3625 127.253,-14.4746"/>
<polygon fill="midnightblue" stroke="midnightblue" points="127.57,-10.9891 117.277,-13.498 126.888,-17.9558 127.57,-10.9891"/>
</g>
<!-- Node45 -->
<g id="node120" class="node"><title>Node45</title>
<a xlink:href="time_8h.html" target="_top" xlink:title="base/std_ext/time.h">
<polygon fill="white" stroke="black" points="2768.65,-137.5 2768.65,-158.5 2871.65,-158.5 2871.65,-137.5 2768.65,-137.5"/>
<text text-anchor="middle" x="2820.15" y="-145.5" font-family="Helvetica,sans-Serif" font-size="10.00">base/std_ext/time.h</text>
</a>
</g>
<!-- Node43&#45;&gt;Node45 -->
<g id="edge150" class="edge"><title>Node43&#45;&gt;Node45</title>
<path fill="none" stroke="midnightblue" d="M1356.08,-218.122C1415.16,-214.584 1548.13,-206.85 1660.15,-202 1903.38,-191.468 2514.47,-202.746 2755.15,-166 2762.71,-164.845 2770.65,-163.106 2778.28,-161.157"/>
<polygon fill="midnightblue" stroke="midnightblue" points="2779.34,-164.498 2788.07,-158.506 2777.51,-157.741 2779.34,-164.498"/>
</g>
<!-- Node47 -->
<g id="node125" class="node"><title>Node47</title>
<polygon fill="white" stroke="#bfbfbf" points="2906.65,-65.5 2906.65,-86.5 2947.65,-86.5 2947.65,-65.5 2906.65,-65.5"/>
<text text-anchor="middle" x="2927.15" y="-73.5" font-family="Helvetica,sans-Serif" font-size="10.00">ctime</text>
</g>
<!-- Node43&#45;&gt;Node47 -->
<g id="edge170" class="edge"><title>Node43&#45;&gt;Node47</title>
<path fill="none" stroke="midnightblue" d="M1356.08,-218.087C1415.15,-214.49 1548.12,-206.662 1660.15,-202 1727.9,-199.181 2822.68,-201.99 2880.15,-166 2904.68,-150.633 2917.08,-117.936 2922.82,-96.473"/>
<polygon fill="midnightblue" stroke="midnightblue" points="2926.23,-97.2366 2925.18,-86.6943 2919.43,-95.5925 2926.23,-97.2366"/>
</g>
<!-- Node48 -->
<g id="node128" class="node"><title>Node48</title>
<polygon fill="white" stroke="#bfbfbf" points="1353.15,-137.5 1353.15,-158.5 1391.15,-158.5 1391.15,-137.5 1353.15,-137.5"/>
<text text-anchor="middle" x="1372.15" y="-145.5" font-family="Helvetica,sans-Serif" font-size="10.00">tuple</text>
</g>
<!-- Node43&#45;&gt;Node48 -->
<g id="edge160" class="edge"><title>Node43&#45;&gt;Node48</title>
<path fill="none" stroke="midnightblue" d="M1332.08,-209.376C1339.3,-198.316 1350.77,-180.753 1359.58,-167.243"/>
<polygon fill="midnightblue" stroke="midnightblue" points="1362.65,-168.954 1365.18,-158.667 1356.79,-165.128 1362.65,-168.954"/>
</g>
<!-- Node49 -->
<g id="node133" class="node"><title>Node49</title>
<polygon fill="white" stroke="#bfbfbf" points="1409.15,-137.5 1409.15,-158.5 1459.15,-158.5 1459.15,-137.5 1409.15,-137.5"/>
<text text-anchor="middle" x="1434.15" y="-145.5" font-family="Helvetica,sans-Serif" font-size="10.00">iomanip</text>
</g>
<!-- Node43&#45;&gt;Node49 -->
<g id="edge168" class="edge"><title>Node43&#45;&gt;Node49</title>
<path fill="none" stroke="midnightblue" d="M1341.23,-209.376C1359.26,-197.465 1388.71,-178.013 1409.62,-164.202"/>
<polygon fill="midnightblue" stroke="midnightblue" points="1411.58,-167.099 1418,-158.667 1407.72,-161.259 1411.58,-167.099"/>
</g>
<!-- Node45&#45;&gt;Node32 -->
<g id="edge152" class="edge"><title>Node45&#45;&gt;Node32</title>
<path fill="none" stroke="midnightblue" d="M2787.54,-137.376C2748.66,-124.711 2683.62,-103.519 2641.05,-89.6504"/>
<polygon fill="midnightblue" stroke="midnightblue" points="2642.12,-86.32 2631.53,-86.5501 2639.95,-92.9757 2642.12,-86.32"/>
</g>
<!-- Node46 -->
<g id="node123" class="node"><title>Node46</title>
<polygon fill="white" stroke="#bfbfbf" points="2843.15,-65.5 2843.15,-86.5 2889.15,-86.5 2889.15,-65.5 2843.15,-65.5"/>
<text text-anchor="middle" x="2866.15" y="-73.5" font-family="Helvetica,sans-Serif" font-size="10.00">cstring</text>
</g>
<!-- Node45&#45;&gt;Node46 -->
<g id="edge154" class="edge"><title>Node45&#45;&gt;Node46</title>
<path fill="none" stroke="midnightblue" d="M2826.93,-137.376C2834,-126.316 2845.22,-108.753 2853.85,-95.2433"/>
<polygon fill="midnightblue" stroke="midnightblue" points="2856.9,-96.9788 2859.33,-86.6674 2851,-93.21 2856.9,-96.9788"/>
</g>
<!-- Node45&#45;&gt;Node47 -->
<g id="edge156" class="edge"><title>Node45&#45;&gt;Node47</title>
<path fill="none" stroke="midnightblue" d="M2835.93,-137.376C2853.56,-125.518 2882.29,-106.186 2902.79,-92.3877"/>
<polygon fill="midnightblue" stroke="midnightblue" points="2904.95,-95.154 2911.29,-86.6674 2901.04,-89.3464 2904.95,-95.154"/>
</g>
<!-- Node50&#45;&gt;Node19 -->
<g id="edge180" class="edge"><title>Node50&#45;&gt;Node19</title>
<path fill="none" stroke="midnightblue" d="M1275.45,-281.223C1261.94,-259.463 1230.46,-208.715 1204.15,-166 1174.11,-117.23 1138.91,-59.7096 1120.97,-30.3561"/>
<polygon fill="midnightblue" stroke="midnightblue" points="1123.78,-28.2423 1115.58,-21.5345 1117.81,-31.8924 1123.78,-28.2423"/>
</g>
<!-- Node50&#45;&gt;Node22 -->
<g id="edge182" class="edge"><title>Node50&#45;&gt;Node22</title>
<path fill="none" stroke="midnightblue" d="M1258.36,-281.38C1235.61,-271 1200.52,-254.407 1171.15,-238 1093,-194.351 1079.94,-172.475 1001.15,-130 973.574,-115.137 941.114,-100.705 916.912,-90.5053"/>
<polygon fill="midnightblue" stroke="midnightblue" points="917.989,-87.1624 907.412,-86.5406 915.293,-93.6223 917.989,-87.1624"/>
</g>
<!-- Node50&#45;&gt;Node26 -->
<g id="edge184" class="edge"><title>Node50&#45;&gt;Node26</title>
<path fill="none" stroke="midnightblue" d="M1252.36,-281.415C1243.39,-278.595 1233.46,-275.828 1224.15,-274 1042.91,-238.425 994.03,-255.292 810.147,-238 756.899,-232.993 694.754,-226.578 659.769,-222.915"/>
<polygon fill="midnightblue" stroke="midnightblue" points="660.134,-219.434 649.824,-221.871 659.404,-226.396 660.134,-219.434"/>
</g>
<!-- Node50&#45;&gt;Node33 -->
<g id="edge188" class="edge"><title>Node50&#45;&gt;Node33</title>
<path fill="none" stroke="midnightblue" d="M1331.25,-290.736C1587.92,-283.794 2768.9,-247.596 2908.15,-166 2953.47,-139.443 2990.1,-98.0793 2956.15,-58 2940.4,-39.4104 2782.92,-21.6888 2710.39,-14.4389"/>
<polygon fill="midnightblue" stroke="midnightblue" points="2710.62,-10.9453 2700.33,-13.4463 2709.93,-17.9114 2710.62,-10.9453"/>
</g>
<!-- Node50&#45;&gt;Node42 -->
<g id="edge186" class="edge"><title>Node50&#45;&gt;Node42</title>
<path fill="none" stroke="midnightblue" d="M1316.29,-281.463C1325.6,-278.806 1335.71,-276.112 1345.15,-274 1441.83,-252.354 1469.45,-263.683 1565.15,-238 1608.76,-226.296 1616.39,-213.144 1660.15,-202 1774.05,-172.99 1807.3,-191.028 1922.15,-166 2030.54,-142.377 2060.03,-139.646 2161.15,-94 2162.74,-93.2792 2164.36,-92.4849 2165.96,-91.6436"/>
<polygon fill="midnightblue" stroke="midnightblue" points="2167.99,-94.5174 2174.91,-86.4967 2164.5,-88.45 2167.99,-94.5174"/>
</g>
<!-- Node52 -->
<g id="node149" class="node"><title>Node52</title>
<a xlink:href="_fit_function_8h.html" target="_top" xlink:title="FitFunction.h">
<polygon fill="white" stroke="black" points="233.147,-209.5 233.147,-230.5 307.147,-230.5 307.147,-209.5 233.147,-209.5"/>
<text text-anchor="middle" x="270.147" y="-217.5" font-family="Helvetica,sans-Serif" font-size="10.00">FitFunction.h</text>
</a>
</g>
<!-- Node51&#45;&gt;Node52 -->
<g id="edge194" class="edge"><title>Node51&#45;&gt;Node52</title>
<path fill="none" stroke="midnightblue" d="M677.274,-346.477C598.232,-321.922 401.667,-260.858 313.796,-233.56"/>
<polygon fill="midnightblue" stroke="midnightblue" points="314.722,-230.183 304.134,-230.559 312.646,-236.868 314.722,-230.183"/>
</g>
<!-- Node52&#45;&gt;Node19 -->
<g id="edge218" class="edge"><title>Node52&#45;&gt;Node19</title>
<path fill="none" stroke="midnightblue" d="M269.622,-209.402C269.192,-191.918 270.179,-156.346 283.147,-130 302.856,-89.9568 312.477,-76.381 353.147,-58 497.666,7.31656 905.462,-52.649 1078.42,-21.6916"/>
<polygon fill="midnightblue" stroke="midnightblue" points="1079.33,-25.0808 1088.47,-19.7317 1077.99,-18.2101 1079.33,-25.0808"/>
</g>
<!-- Node52&#45;&gt;Node21 -->
<g id="edge210" class="edge"><title>Node52&#45;&gt;Node21</title>
<path fill="none" stroke="midnightblue" d="M301.428,-209.376C338.563,-196.764 400.592,-175.698 441.437,-161.826"/>
<polygon fill="midnightblue" stroke="midnightblue" points="442.739,-165.08 451.082,-158.55 440.488,-158.452 442.739,-165.08"/>
</g>
<!-- Node52&#45;&gt;Node22 -->
<g id="edge214" class="edge"><title>Node52&#45;&gt;Node22</title>
<path fill="none" stroke="midnightblue" d="M307.588,-214.191C361.577,-205.497 464.245,-187.77 550.147,-166 601.651,-152.947 613.008,-144.422 664.147,-130 727.45,-112.147 802.004,-94.2737 845.194,-84.226"/>
<polygon fill="midnightblue" stroke="midnightblue" points="846.003,-87.6314 854.955,-81.9644 844.423,-80.8121 846.003,-87.6314"/>
</g>
<!-- Node52&#45;&gt;Node23 -->
<g id="edge216" class="edge"><title>Node52&#45;&gt;Node23</title>
<path fill="none" stroke="midnightblue" d="M272.292,-209.367C276.301,-191.52 286.28,-155.038 305.147,-130 317.881,-113.1 337.248,-98.8564 352.54,-89.2485"/>
<polygon fill="midnightblue" stroke="midnightblue" points="354.683,-92.0438 361.439,-83.8829 351.068,-86.0491 354.683,-92.0438"/>
</g>
<!-- Node52&#45;&gt;Node28 -->
<g id="edge208" class="edge"><title>Node52&#45;&gt;Node28</title>
<path fill="none" stroke="midnightblue" d="M307.422,-217.684C369.402,-213.904 497.58,-206.392 606.147,-202 1190.78,-178.348 1337.43,-187.455 1922.15,-166 2044.57,-161.508 2188.46,-154.417 2262.88,-150.614"/>
<polygon fill="midnightblue" stroke="midnightblue" points="2263.1,-154.108 2272.91,-150.1 2262.75,-147.117 2263.1,-154.108"/>
</g>
<!-- Node52&#45;&gt;Node44 -->
<g id="edge212" class="edge"><title>Node52&#45;&gt;Node44</title>
<path fill="none" stroke="midnightblue" d="M232.952,-216.05C192.723,-210.332 128.062,-196.825 81.1465,-166 35.4349,-135.966 -3.08817,-106.526 22.1465,-58 29.1623,-44.5087 42.0219,-34.0833 54.6131,-26.5183"/>
<polygon fill="midnightblue" stroke="midnightblue" points="56.5962,-29.4209 63.6465,-21.5125 53.2032,-23.2982 56.5962,-29.4209"/>
</g>
<!-- Node53 -->
<g id="node151" class="node"><title>Node53</title>
<a xlink:href="_knobs_t_f1_8h.html" target="_top" xlink:title="KnobsTF1.h">
<polygon fill="white" stroke="black" points="107.147,-137.5 107.147,-158.5 177.147,-158.5 177.147,-137.5 107.147,-137.5"/>
<text text-anchor="middle" x="142.147" y="-145.5" font-family="Helvetica,sans-Serif" font-size="10.00">KnobsTF1.h</text>
</a>
</g>
<!-- Node52&#45;&gt;Node53 -->
<g id="edge196" class="edge"><title>Node52&#45;&gt;Node53</title>
<path fill="none" stroke="midnightblue" d="M251.26,-209.376C229.801,-197.305 194.574,-177.49 169.97,-163.651"/>
<polygon fill="midnightblue" stroke="midnightblue" points="171.543,-160.52 161.111,-158.667 168.111,-166.621 171.543,-160.52"/>
</g>
<!-- Node54 -->
<g id="node153" class="node"><title>Node54</title>
<a xlink:href="_indicator__traits_8h.html" target="_top" xlink:title="calibration/gui/Indicator\l_traits.h">
<polygon fill="white" stroke="black" points="30.6465,-59 30.6465,-93 147.647,-93 147.647,-59 30.6465,-59"/>
<text text-anchor="start" x="38.6465" y="-80" font-family="Helvetica,sans-Serif" font-size="10.00">calibration/gui/Indicator</text>
<text text-anchor="middle" x="89.1465" y="-67" font-family="Helvetica,sans-Serif" font-size="10.00">_traits.h</text>
</a>
</g>
<!-- Node52&#45;&gt;Node54 -->
<g id="edge206" class="edge"><title>Node52&#45;&gt;Node54</title>
<path fill="none" stroke="midnightblue" d="M233.019,-213.273C187.777,-204.277 115.236,-186.998 98.1465,-166 84.0962,-148.736 82.8462,-122.997 84.5288,-103.461"/>
<polygon fill="midnightblue" stroke="midnightblue" points="88.0273,-103.676 85.7027,-93.3396 81.0739,-102.87 88.0273,-103.676"/>
</g>
<!-- Node53&#45;&gt;Node19 -->
<g id="edge202" class="edge"><title>Node53&#45;&gt;Node19</title>
<path fill="none" stroke="midnightblue" d="M153.045,-137.282C176.875,-113.901 231.916,-60.2146 237.147,-58 406.86,13.8593 879.936,-57.2163 1078.38,-21.7"/>
<polygon fill="midnightblue" stroke="midnightblue" points="1079.32,-25.0824 1088.48,-19.7494 1077.99,-18.2094 1079.32,-25.0824"/>
</g>
<!-- Node53&#45;&gt;Node25 -->
<g id="edge204" class="edge"><title>Node53&#45;&gt;Node25</title>
<path fill="none" stroke="midnightblue" d="M145.311,-137.309C151.773,-117.616 168.525,-75.9812 199.147,-58 234.165,-37.437 840.407,-17.251 1002.54,-12.2019"/>
<polygon fill="midnightblue" stroke="midnightblue" points="1002.68,-15.6993 1012.57,-11.8913 1002.47,-8.70267 1002.68,-15.6993"/>
</g>
<!-- Node53&#45;&gt;Node54 -->
<g id="edge198" class="edge"><title>Node53&#45;&gt;Node54</title>
<path fill="none" stroke="midnightblue" d="M134.326,-137.376C127.354,-127.905 116.873,-113.666 107.76,-101.286"/>
<polygon fill="midnightblue" stroke="midnightblue" points="110.477,-99.0729 101.73,-93.0944 104.839,-103.223 110.477,-99.0729"/>
</g>
<!-- Node54&#45;&gt;Node44 -->
<g id="edge200" class="edge"><title>Node54&#45;&gt;Node44</title>
<path fill="none" stroke="midnightblue" d="M89.1465,-58.922C89.1465,-50.6704 89.1465,-40.6922 89.1465,-31.9818"/>
<polygon fill="midnightblue" stroke="midnightblue" points="92.6466,-31.8521 89.1465,-21.8521 85.6466,-31.8521 92.6466,-31.8521"/>
</g>
<!-- Node55&#45;&gt;Node52 -->
<g id="edge232" class="edge"><title>Node55&#45;&gt;Node52</title>
<path fill="none" stroke="midnightblue" d="M291.186,-404.778C286.975,-367.801 277.084,-280.929 272.525,-240.886"/>
<polygon fill="midnightblue" stroke="midnightblue" points="275.998,-240.454 271.389,-230.914 269.043,-241.246 275.998,-240.454"/>
</g>
<!-- Node56&#45;&gt;Node6 -->
<g id="edge236" class="edge"><title>Node56&#45;&gt;Node6</title>
<path fill="none" stroke="midnightblue" d="M906.537,-546.248C1036.93,-531.108 1377.55,-488 1480.15,-440 1582.67,-392.032 1670.39,-282.711 1702.79,-238.785"/>
<polygon fill="midnightblue" stroke="midnightblue" points="1705.64,-240.825 1708.69,-230.68 1699.98,-236.707 1705.64,-240.825"/>
</g>
<!-- Node57 -->
<g id="node176" class="node"><title>Node57</title>
<a xlink:href="_unpacker_acqu_8h.html" target="_top" xlink:title="unpacker/UnpackerAcqu.h">
<polygon fill="white" stroke="black" points="776.147,-476.5 776.147,-497.5 908.147,-497.5 908.147,-476.5 776.147,-476.5"/>
<text text-anchor="middle" x="842.147" y="-484.5" font-family="Helvetica,sans-Serif" font-size="10.00">unpacker/UnpackerAcqu.h</text>
</a>
</g>
<!-- Node56&#45;&gt;Node57 -->
<g id="edge238" class="edge"><title>Node56&#45;&gt;Node57</title>
<path fill="none" stroke="midnightblue" d="M851.731,-534.922C850.062,-526.579 848.041,-516.47 846.285,-507.692"/>
<polygon fill="midnightblue" stroke="midnightblue" points="849.71,-506.971 844.317,-497.852 842.846,-508.344 849.71,-506.971"/>
</g>
<!-- Node57&#45;&gt;Node6 -->
<g id="edge262" class="edge"><title>Node57&#45;&gt;Node6</title>
<path fill="none" stroke="midnightblue" d="M890.641,-476.46C976.406,-457.436 1160.15,-414.947 1312.15,-368 1450.24,-325.349 1610.37,-262.627 1680.34,-234.537"/>
<polygon fill="midnightblue" stroke="midnightblue" points="1682.03,-237.631 1690,-230.65 1679.41,-231.137 1682.03,-237.631"/>
</g>
<!-- Node57&#45;&gt;Node14 -->
<g id="edge274" class="edge"><title>Node57&#45;&gt;Node14</title>
<path fill="none" stroke="midnightblue" d="M908.363,-476.988C911.329,-476.635 914.267,-476.303 917.147,-476 1166.51,-449.786 1231.48,-472.146 1480.15,-440 2108.94,-358.711 2477.17,-655.49 2880.15,-166 2917.43,-120.718 2813.63,-92.7014 2759.56,-81.5477"/>
<polygon fill="midnightblue" stroke="midnightblue" points="2759.96,-78.0584 2749.47,-79.5417 2758.6,-84.9241 2759.96,-78.0584"/>
</g>
<!-- Node57&#45;&gt;Node15 -->
<g id="edge270" class="edge"><title>Node57&#45;&gt;Node15</title>
<path fill="none" stroke="midnightblue" d="M908.352,-476.873C911.321,-476.551 914.263,-476.257 917.147,-476 1414.99,-431.664 1542.11,-467.738 2041.15,-440 2157.78,-433.517 3089.15,-473.809 3089.15,-357 3089.15,-357 3089.15,-357 3089.15,-148 3089.15,-41.2607 2920.74,-17.6808 2847.98,-12.4743"/>
<polygon fill="midnightblue" stroke="midnightblue" points="2847.77,-8.95376 2837.57,-11.8089 2847.33,-15.9395 2847.77,-8.95376"/>
</g>
<!-- Node57&#45;&gt;Node18 -->
<g id="edge272" class="edge"><title>Node57&#45;&gt;Node18</title>
<path fill="none" stroke="midnightblue" d="M852.743,-476.214C885.689,-443.066 990.128,-340.887 1090.15,-274 1119.56,-254.332 1133.47,-260.044 1161.15,-238 1186.97,-217.433 1210.19,-186.771 1223.74,-167.08"/>
<polygon fill="midnightblue" stroke="midnightblue" points="1226.74,-168.886 1229.41,-158.634 1220.93,-164.98 1226.74,-168.886"/>
</g>
<!-- Node57&#45;&gt;Node22 -->
<g id="edge264" class="edge"><title>Node57&#45;&gt;Node22</title>
<path fill="none" stroke="midnightblue" d="M842.158,-476.213C841.985,-444.687 839.99,-350.123 823.147,-274 819.471,-257.39 813.079,-254.757 810.147,-238 807.388,-222.24 806.086,-217.476 810.147,-202 813.148,-190.561 850.186,-127.715 869.537,-95.3234"/>
<polygon fill="midnightblue" stroke="midnightblue" points="872.566,-97.0776 874.701,-86.7 866.561,-93.4813 872.566,-97.0776"/>
</g>
<!-- Node57&#45;&gt;Node23 -->
<g id="edge266" class="edge"><title>Node57&#45;&gt;Node23</title>
<path fill="none" stroke="midnightblue" d="M775.949,-483.854C715.286,-479.247 623.828,-467.904 549.147,-440 389.833,-380.474 306.777,-386.649 224.147,-238 186.729,-170.688 300.169,-109.818 351.886,-86.2964"/>
<polygon fill="midnightblue" stroke="midnightblue" points="353.623,-89.3548 361.344,-82.0992 350.784,-82.9566 353.623,-89.3548"/>
</g>
<!-- Node57&#45;&gt;Node26 -->
<g id="edge268" class="edge"><title>Node57&#45;&gt;Node26</title>
<path fill="none" stroke="midnightblue" d="M777.971,-476.447C748.997,-469.474 715.45,-458.146 689.147,-440 635.643,-403.09 628.229,-374.715 622.147,-310 620.649,-294.07 620.684,-289.933 622.147,-274 623.171,-262.844 625.361,-250.553 627.432,-240.519"/>
<polygon fill="midnightblue" stroke="midnightblue" points="630.867,-241.192 629.571,-230.677 624.027,-239.706 630.867,-241.192"/>
</g>
<!-- Node58 -->
<g id="node178" class="node"><title>Node58</title>
<a xlink:href="_unpacker_8h.html" target="_top" xlink:title="Unpacker.h">
<polygon fill="white" stroke="black" points="672.647,-137.5 672.647,-158.5 739.647,-158.5 739.647,-137.5 672.647,-137.5"/>
<text text-anchor="middle" x="706.147" y="-145.5" font-family="Helvetica,sans-Serif" font-size="10.00">Unpacker.h</text>
</a>
</g>
<!-- Node57&#45;&gt;Node58 -->
<g id="edge240" class="edge"><title>Node57&#45;&gt;Node58</title>
<path fill="none" stroke="midnightblue" d="M783.732,-476.49C688.709,-457.712 511.147,-414.88 511.147,-357 511.147,-357 511.147,-357 511.147,-292 511.147,-217.164 605.234,-176.813 662.698,-159.148"/>
<polygon fill="midnightblue" stroke="midnightblue" points="664.03,-162.404 672.625,-156.209 662.043,-155.692 664.03,-162.404"/>
</g>
<!-- Node59 -->
<g id="node182" class="node"><title>Node59</title>
<a xlink:href="_exp_config_8h.html" target="_top" xlink:title="expconfig/ExpConfig.h">
<polygon fill="white" stroke="black" points="698.147,-411.5 698.147,-432.5 814.147,-432.5 814.147,-411.5 698.147,-411.5"/>
<text text-anchor="middle" x="756.147" y="-419.5" font-family="Helvetica,sans-Serif" font-size="10.00">expconfig/ExpConfig.h</text>
</a>
</g>
<!-- Node57&#45;&gt;Node59 -->
<g id="edge246" class="edge"><title>Node57&#45;&gt;Node59</title>
<path fill="none" stroke="midnightblue" d="M827.945,-476.267C814.42,-466.044 793.86,-450.504 778.202,-438.67"/>
<polygon fill="midnightblue" stroke="midnightblue" points="780.172,-435.771 770.083,-432.534 775.951,-441.356 780.172,-435.771"/>
</g>
<!-- Node58&#45;&gt;Node19 -->
<g id="edge242" class="edge"><title>Node58&#45;&gt;Node19</title>
<path fill="none" stroke="midnightblue" d="M718.658,-137.32C742.005,-118.024 794.534,-77.5445 846.147,-58 941.572,-21.8643 976.286,-47.1668 1078.62,-21.9743"/>
<polygon fill="midnightblue" stroke="midnightblue" points="1079.59,-25.3391 1088.41,-19.4639 1077.85,-18.5586 1079.59,-25.3391"/>
</g>
<!-- Node58&#45;&gt;Node22 -->
<g id="edge244" class="edge"><title>Node58&#45;&gt;Node22</title>
<path fill="none" stroke="midnightblue" d="M731.968,-137.376C762.169,-124.951 812.315,-104.319 846.034,-90.4465"/>
<polygon fill="midnightblue" stroke="midnightblue" points="847.588,-93.5918 855.504,-86.5501 844.924,-87.1183 847.588,-93.5918"/>
</g>
<!-- Node59&#45;&gt;Node4 -->
<g id="edge252" class="edge"><title>Node59&#45;&gt;Node4</title>
<path fill="none" stroke="midnightblue" d="M814.153,-413.768C898.286,-401.827 1053.96,-379.733 1144.29,-366.914"/>
<polygon fill="midnightblue" stroke="midnightblue" points="1145.03,-370.345 1154.44,-365.474 1144.04,-363.414 1145.03,-370.345"/>
</g>
<!-- Node59&#45;&gt;Node5 -->
<g id="edge250" class="edge"><title>Node59&#45;&gt;Node5</title>
<path fill="none" stroke="midnightblue" d="M761.901,-411.255C769.042,-396.603 779.748,-369.49 775.147,-346 773.356,-336.86 770.011,-327.316 766.461,-318.838"/>
<polygon fill="midnightblue" stroke="midnightblue" points="769.549,-317.169 762.278,-309.463 763.156,-320.021 769.549,-317.169"/>
</g>
<!-- Node59&#45;&gt;Node6 -->
<g id="edge248" class="edge"><title>Node59&#45;&gt;Node6</title>
<path fill="none" stroke="midnightblue" d="M814.417,-420.657C933.383,-417.167 1199.91,-405.311 1282.15,-368 1337.99,-342.665 1327.88,-300.579 1383.15,-274 1481.54,-226.678 1518.58,-256.712 1626.15,-238 1636.62,-236.179 1647.74,-234.085 1658.46,-231.984"/>
<polygon fill="midnightblue" stroke="midnightblue" points="1659.46,-235.355 1668.59,-229.976 1658.1,-228.488 1659.46,-235.355"/>
</g>
<!-- Node59&#45;&gt;Node7 -->
<g id="edge254" class="edge"><title>Node59&#45;&gt;Node7</title>
<path fill="none" stroke="midnightblue" d="M770.265,-411.443C824.388,-371.271 1024.6,-225.405 1204.15,-130 1233.23,-114.546 1267.71,-100.214 1293.55,-90.204"/>
<polygon fill="midnightblue" stroke="midnightblue" points="1294.91,-93.4297 1303,-86.586 1292.41,-86.8923 1294.91,-93.4297"/>
</g>
<!-- Node59&#45;&gt;Node22 -->
<g id="edge256" class="edge"><title>Node59&#45;&gt;Node22</title>
<path fill="none" stroke="midnightblue" d="M705.667,-411.466C680.305,-403.624 651.205,-390.288 633.147,-368 586.091,-309.923 560.244,-260.992 606.147,-202 646.13,-150.615 689.405,-194.079 748.147,-166 772.206,-154.5 774.209,-145.161 796.147,-130 815.442,-116.665 837.857,-102.477 854.823,-91.9913"/>
<polygon fill="midnightblue" stroke="midnightblue" points="856.947,-94.7942 863.634,-86.5761 853.281,-88.8305 856.947,-94.7942"/>
</g>
<!-- Node59&#45;&gt;Node23 -->
<g id="edge258" class="edge"><title>Node59&#45;&gt;Node23</title>
<path fill="none" stroke="midnightblue" d="M717.484,-411.487C632.996,-386.088 433.893,-312.393 364.147,-166 353.506,-143.667 360.421,-114.892 367.367,-95.9674"/>
<polygon fill="midnightblue" stroke="midnightblue" points="370.661,-97.1553 371.117,-86.5703 364.16,-94.5607 370.661,-97.1553"/>
</g>
<!-- Node59&#45;&gt;Node26 -->
<g id="edge260" class="edge"><title>Node59&#45;&gt;Node26</title>
<path fill="none" stroke="midnightblue" d="M712.644,-411.477C689.366,-403.508 662.421,-390.046 647.147,-368 620.554,-329.619 624.041,-271.632 628.385,-240.875"/>
<polygon fill="midnightblue" stroke="midnightblue" points="631.863,-241.287 629.97,-230.863 624.949,-240.193 631.863,-241.287"/>
</g>
<!-- Node61 -->
<g id="node200" class="node"><title>Node61</title>
<polygon fill="white" stroke="#bfbfbf" points="2575.65,-476.5 2575.65,-497.5 2690.65,-497.5 2690.65,-476.5 2575.65,-476.5"/>
<text text-anchor="middle" x="2633.15" y="-484.5" font-family="Helvetica,sans-Serif" font-size="10.00">detail/easylogging++.h</text>
</g>
<!-- Node60&#45;&gt;Node61 -->
<g id="edge278" class="edge"><title>Node60&#45;&gt;Node61</title>
<path fill="none" stroke="midnightblue" d="M1884.5,-550.124C1992.83,-544.726 2304.51,-527.614 2562.15,-498 2563.23,-497.875 2564.32,-497.746 2565.42,-497.614"/>
<polygon fill="midnightblue" stroke="midnightblue" points="2565.99,-501.07 2575.46,-496.325 2565.1,-494.127 2565.99,-501.07"/>
</g>
</g>
</svg>
