<?xml version="1.0" encoding="UTF-8" standalone="no"?>
<!DOCTYPE svg PUBLIC "-//W3C//DTD SVG 1.1//EN"
 "http://www.w3.org/Graphics/SVG/1.1/DTD/svg11.dtd">
<!-- Generated by graphviz version 2.26.3 (20100126.1600)
 -->
<!-- Title: src/calibration/modules/TAPS_Time.cc Pages: 1 -->
<svg width="2649pt" height="650pt"
 viewBox="0.00 0.00 2648.95 650.00" xmlns="http://www.w3.org/2000/svg" xmlns:xlink="http://www.w3.org/1999/xlink">
<g id="graph1" class="graph" transform="scale(1 1) rotate(0) translate(4 646)">
<title>src/calibration/modules/TAPS_Time.cc</title>
<polygon fill="white" stroke="white" points="-4,5 -4,-646 2645.95,-646 2645.95,5 -4,5"/>
<!-- Node1 -->
<g id="node1" class="node"><title>Node1</title>
<polygon fill="#bfbfbf" stroke="black" points="2201.59,-607 2201.59,-641 2318.59,-641 2318.59,-607 2201.59,-607"/>
<text text-anchor="start" x="2209.59" y="-628" font-family="Helvetica,sans-Serif" font-size="10.00">src/calibration/modules</text>
<text text-anchor="middle" x="2260.09" y="-615" font-family="Helvetica,sans-Serif" font-size="10.00">/TAPS_Time.cc</text>
</g>
<!-- Node2 -->
<g id="node3" class="node"><title>Node2</title>
<a xlink:href="_t_a_p_s___time_8h.html" target="_top" xlink:title="TAPS_Time.h">
<polygon fill="white" stroke="black" points="1677.09,-476.5 1677.09,-497.5 1755.09,-497.5 1755.09,-476.5 1677.09,-476.5"/>
<text text-anchor="middle" x="1716.09" y="-484.5" font-family="Helvetica,sans-Serif" font-size="10.00">TAPS_Time.h</text>
</a>
</g>
<!-- Node1&#45;&gt;Node2 -->
<g id="edge2" class="edge"><title>Node1&#45;&gt;Node2</title>
<path fill="none" stroke="midnightblue" d="M2201.36,-609.208C2093.38,-582.017 1865.26,-524.565 1765.05,-499.329"/>
<polygon fill="midnightblue" stroke="midnightblue" points="1765.74,-495.894 1755.19,-496.845 1764.03,-502.682 1765.74,-495.894"/>
</g>
<!-- Node18 -->
<g id="node38" class="node"><title>Node18</title>
<polygon fill="white" stroke="#bfbfbf" points="2049.09,-137.5 2049.09,-158.5 2095.09,-158.5 2095.09,-137.5 2049.09,-137.5"/>
<text text-anchor="middle" x="2072.09" y="-145.5" font-family="Helvetica,sans-Serif" font-size="10.00">cstdint</text>
</g>
<!-- Node1&#45;&gt;Node18 -->
<g id="edge286" class="edge"><title>Node1&#45;&gt;Node18</title>
<path fill="none" stroke="midnightblue" d="M2232.13,-606.776C2219.87,-597.545 2206.76,-584.978 2200.09,-570 2183.1,-531.836 2184.1,-514.598 2200.09,-476 2228.72,-406.897 2319.09,-431.796 2319.09,-357 2319.09,-357 2319.09,-357 2319.09,-292 2319.09,-242.918 2295.04,-230.51 2255.09,-202 2242.76,-193.198 2154.56,-169.39 2105.25,-156.525"/>
<polygon fill="midnightblue" stroke="midnightblue" points="2105.92,-153.082 2095.36,-153.955 2104.16,-159.857 2105.92,-153.082"/>
</g>
<!-- Node55 -->
<g id="node170" class="node"><title>Node55</title>
<a xlink:href="_fit_gaus_pol0_8h.html" target="_top" xlink:title="calibration/fitfunctions\l/FitGausPol0.h">
<polygon fill="white" stroke="black" points="211.092,-405 211.092,-439 323.092,-439 323.092,-405 211.092,-405"/>
<text text-anchor="start" x="219.092" y="-426" font-family="Helvetica,sans-Serif" font-size="10.00">calibration/fitfunctions</text>
<text text-anchor="middle" x="267.092" y="-413" font-family="Helvetica,sans-Serif" font-size="10.00">/FitGausPol0.h</text>
</a>
</g>
<!-- Node1&#45;&gt;Node55 -->
<g id="edge230" class="edge"><title>Node1&#45;&gt;Node55</title>
<path fill="none" stroke="midnightblue" d="M2201.43,-621.733C1965.76,-611.922 1065.49,-567.693 337.092,-440 335.841,-439.781 334.579,-439.55 333.309,-439.311"/>
<polygon fill="midnightblue" stroke="midnightblue" points="333.968,-435.873 323.47,-437.304 332.569,-442.732 333.968,-435.873"/>
</g>
<!-- Node56 -->
<g id="node173" class="node"><title>Node56</title>
<a xlink:href="_t_a_p_s_8h.html" target="_top" xlink:title="expconfig/detectors\l/TAPS.h">
<polygon fill="white" stroke="black" points="2209.09,-535 2209.09,-569 2311.09,-569 2311.09,-535 2209.09,-535"/>
<text text-anchor="start" x="2217.09" y="-556" font-family="Helvetica,sans-Serif" font-size="10.00">expconfig/detectors</text>
<text text-anchor="middle" x="2260.09" y="-543" font-family="Helvetica,sans-Serif" font-size="10.00">/TAPS.h</text>
</a>
</g>
<!-- Node1&#45;&gt;Node56 -->
<g id="edge234" class="edge"><title>Node1&#45;&gt;Node56</title>
<path fill="none" stroke="midnightblue" d="M2260.09,-606.937C2260.09,-598.807 2260.09,-588.876 2260.09,-579.705"/>
<polygon fill="midnightblue" stroke="midnightblue" points="2263.59,-579.441 2260.09,-569.441 2256.59,-579.441 2263.59,-579.441"/>
</g>
<!-- Node62 -->
<g id="node203" class="node"><title>Node62</title>
<a xlink:href="_logger_8h.html" target="_top" xlink:title="base/Logger.h">
<polygon fill="white" stroke="black" points="2329.09,-541.5 2329.09,-562.5 2407.09,-562.5 2407.09,-541.5 2329.09,-541.5"/>
<text text-anchor="middle" x="2368.09" y="-549.5" font-family="Helvetica,sans-Serif" font-size="10.00">base/Logger.h</text>
</a>
</g>
<!-- Node1&#45;&gt;Node62 -->
<g id="edge282" class="edge"><title>Node1&#45;&gt;Node62</title>
<path fill="none" stroke="midnightblue" d="M2285.69,-606.937C2303.22,-595.251 2326.33,-579.843 2343.61,-568.32"/>
<polygon fill="midnightblue" stroke="midnightblue" points="2345.68,-571.147 2352.06,-562.688 2341.8,-565.323 2345.68,-571.147"/>
</g>
<!-- Node64 -->
<g id="node208" class="node"><title>Node64</title>
<polygon fill="white" stroke="#bfbfbf" points="2425.09,-541.5 2425.09,-562.5 2469.09,-562.5 2469.09,-541.5 2425.09,-541.5"/>
<text text-anchor="middle" x="2447.09" y="-549.5" font-family="Helvetica,sans-Serif" font-size="10.00">TH1.h</text>
</g>
<!-- Node1&#45;&gt;Node64 -->
<g id="edge288" class="edge"><title>Node1&#45;&gt;Node64</title>
<path fill="none" stroke="midnightblue" d="M2317.81,-606.957C2347.69,-597.406 2384.44,-584.505 2416.09,-570 2417.87,-569.183 2419.69,-568.295 2421.5,-567.365"/>
<polygon fill="midnightblue" stroke="midnightblue" points="2423.27,-570.387 2430.35,-562.509 2419.9,-564.249 2423.27,-570.387"/>
</g>
<!-- Node65 -->
<g id="node210" class="node"><title>Node65</title>
<polygon fill="white" stroke="#bfbfbf" points="2487.09,-541.5 2487.09,-562.5 2529.09,-562.5 2529.09,-541.5 2487.09,-541.5"/>
<text text-anchor="middle" x="2508.09" y="-549.5" font-family="Helvetica,sans-Serif" font-size="10.00">TF1.h</text>
</g>
<!-- Node1&#45;&gt;Node65 -->
<g id="edge290" class="edge"><title>Node1&#45;&gt;Node65</title>
<path fill="none" stroke="midnightblue" d="M2318.96,-614.342C2363.71,-605.838 2426.2,-591.431 2478.09,-570 2479.9,-569.252 2481.73,-568.407 2483.55,-567.502"/>
<polygon fill="midnightblue" stroke="midnightblue" points="2485.3,-570.533 2492.36,-562.633 2481.92,-564.406 2485.3,-570.533"/>
</g>
<!-- Node3 -->
<g id="node5" class="node"><title>Node3</title>
<a xlink:href="calibration_2modules_2_time_8h.html" target="_top" xlink:title="Time.h">
<polygon fill="white" stroke="black" points="1692.59,-411.5 1692.59,-432.5 1739.59,-432.5 1739.59,-411.5 1692.59,-411.5"/>
<text text-anchor="middle" x="1716.09" y="-419.5" font-family="Helvetica,sans-Serif" font-size="10.00">Time.h</text>
</a>
</g>
<!-- Node2&#45;&gt;Node3 -->
<g id="edge4" class="edge"><title>Node2&#45;&gt;Node3</title>
<path fill="none" stroke="midnightblue" d="M1716.09,-476.267C1716.09,-467.18 1716.09,-453.892 1716.09,-442.74"/>
<polygon fill="midnightblue" stroke="midnightblue" points="1719.59,-442.534 1716.09,-432.534 1712.59,-442.534 1719.59,-442.534"/>
</g>
<!-- Node22 -->
<g id="node49" class="node"><title>Node22</title>
<polygon fill="white" stroke="#bfbfbf" points="1617.09,-65.5 1617.09,-86.5 1669.09,-86.5 1669.09,-65.5 1617.09,-65.5"/>
<text text-anchor="middle" x="1643.09" y="-73.5" font-family="Helvetica,sans-Serif" font-size="10.00">memory</text>
</g>
<!-- Node2&#45;&gt;Node22 -->
<g id="edge228" class="edge"><title>Node2&#45;&gt;Node22</title>
<path fill="none" stroke="midnightblue" d="M1676.91,-483.444C1612.76,-477.067 1488.7,-462.24 1451.09,-440 1415.72,-419.082 1406.76,-406.752 1393.09,-368 1354.63,-258.942 1313.97,-359.967 1562.09,-130 1577.95,-115.306 1598.18,-101.816 1614.45,-91.9943"/>
<polygon fill="midnightblue" stroke="midnightblue" points="1616.68,-94.7459 1623.52,-86.654 1613.12,-88.7149 1616.68,-94.7459"/>
</g>
<!-- Node4 -->
<g id="node7" class="node"><title>Node4</title>
<a xlink:href="_calibration_8h.html" target="_top" xlink:title="calibration/Calibration.h">
<polygon fill="white" stroke="black" points="1612.59,-346.5 1612.59,-367.5 1731.59,-367.5 1731.59,-346.5 1612.59,-346.5"/>
<text text-anchor="middle" x="1672.09" y="-354.5" font-family="Helvetica,sans-Serif" font-size="10.00">calibration/Calibration.h</text>
</a>
</g>
<!-- Node3&#45;&gt;Node4 -->
<g id="edge6" class="edge"><title>Node3&#45;&gt;Node4</title>
<path fill="none" stroke="midnightblue" d="M1708.83,-411.267C1702.35,-401.707 1692.74,-387.496 1684.96,-376.015"/>
<polygon fill="midnightblue" stroke="midnightblue" points="1687.73,-373.853 1679.22,-367.534 1681.93,-377.777 1687.73,-373.853"/>
</g>
<!-- Node6 -->
<g id="node11" class="node"><title>Node6</title>
<a xlink:href="_detector__t_8h.html" target="_top" xlink:title="base/Detector_t.h">
<polygon fill="white" stroke="black" points="2151.59,-209.5 2151.59,-230.5 2246.59,-230.5 2246.59,-209.5 2151.59,-209.5"/>
<text text-anchor="middle" x="2199.09" y="-217.5" font-family="Helvetica,sans-Serif" font-size="10.00">base/Detector_t.h</text>
</a>
</g>
<!-- Node3&#45;&gt;Node6 -->
<g id="edge222" class="edge"><title>Node3&#45;&gt;Node6</title>
<path fill="none" stroke="midnightblue" d="M1739.87,-416.541C1794.83,-403.337 1934.04,-366.534 2039.09,-310 2062.26,-297.531 2063.66,-287.747 2086.09,-274 2111.07,-258.693 2141.06,-244.539 2163.87,-234.565"/>
<polygon fill="midnightblue" stroke="midnightblue" points="2165.37,-237.729 2173.17,-230.555 2162.6,-231.301 2165.37,-237.729"/>
</g>
<!-- Node13 -->
<g id="node27" class="node"><title>Node13</title>
<a xlink:href="math_8h.html" target="_top" xlink:title="base/std_ext/math.h">
<polygon fill="white" stroke="black" points="2151.09,-137.5 2151.09,-158.5 2257.09,-158.5 2257.09,-137.5 2151.09,-137.5"/>
<text text-anchor="middle" x="2204.09" y="-145.5" font-family="Helvetica,sans-Serif" font-size="10.00">base/std_ext/math.h</text>
</a>
</g>
<!-- Node3&#45;&gt;Node13 -->
<g id="edge220" class="edge"><title>Node3&#45;&gt;Node13</title>
<path fill="none" stroke="midnightblue" d="M1734.92,-411.427C1809.88,-369.342 2087.25,-213.601 2176.35,-163.578"/>
<polygon fill="midnightblue" stroke="midnightblue" points="2178.31,-166.489 2185.32,-158.542 2174.88,-160.386 2178.31,-166.489"/>
</g>
<!-- Node3&#45;&gt;Node22 -->
<g id="edge226" class="edge"><title>Node3&#45;&gt;Node22</title>
<path fill="none" stroke="midnightblue" d="M1692.39,-416.179C1667.3,-408.877 1628.08,-394.039 1604.09,-368 1562.15,-322.468 1565.39,-298.864 1554.09,-238 1544.86,-188.254 1560.7,-171.184 1590.09,-130 1599.58,-116.708 1612.35,-103.592 1622.98,-93.6149"/>
<polygon fill="midnightblue" stroke="midnightblue" points="1625.58,-95.9777 1630.6,-86.6464 1620.86,-90.812 1625.58,-95.9777"/>
</g>
<!-- Node28 -->
<g id="node70" class="node"><title>Node28</title>
<a xlink:href="interval_8h.html" target="_top" xlink:title="base/interval.h">
<polygon fill="white" stroke="black" points="1875.09,-137.5 1875.09,-158.5 1955.09,-158.5 1955.09,-137.5 1875.09,-137.5"/>
<text text-anchor="middle" x="1915.09" y="-145.5" font-family="Helvetica,sans-Serif" font-size="10.00">base/interval.h</text>
</a>
</g>
<!-- Node3&#45;&gt;Node28 -->
<g id="edge224" class="edge"><title>Node3&#45;&gt;Node28</title>
<path fill="none" stroke="midnightblue" d="M1726.72,-411.435C1745.78,-392.198 1786.57,-349.764 1816.09,-310 1852.26,-261.287 1887.6,-198.868 1904.61,-167.64"/>
<polygon fill="midnightblue" stroke="midnightblue" points="1907.79,-169.116 1909.46,-158.655 1901.63,-165.79 1907.79,-169.116"/>
</g>
<!-- Node51 -->
<g id="node147" class="node"><title>Node51</title>
<a xlink:href="_fit_gaus_8h.html" target="_top" xlink:title="fitfunctions/FitGaus.h">
<polygon fill="white" stroke="black" points="1409.09,-346.5 1409.09,-367.5 1519.09,-367.5 1519.09,-346.5 1409.09,-346.5"/>
<text text-anchor="middle" x="1464.09" y="-354.5" font-family="Helvetica,sans-Serif" font-size="10.00">fitfunctions/FitGaus.h</text>
</a>
</g>
<!-- Node3&#45;&gt;Node51 -->
<g id="edge192" class="edge"><title>Node3&#45;&gt;Node51</title>
<path fill="none" stroke="midnightblue" d="M1692.38,-415.885C1651.9,-405.442 1568.58,-383.952 1514.58,-370.024"/>
<polygon fill="midnightblue" stroke="midnightblue" points="1515.42,-366.624 1504.86,-367.515 1513.67,-373.402 1515.42,-366.624"/>
</g>
<!-- Node5 -->
<g id="node9" class="node"><title>Node5</title>
<a xlink:href="_reconstruct__traits_8h.html" target="_top" xlink:title="reconstruct/Reconstruct\l_traits.h">
<polygon fill="white" stroke="black" points="1685.09,-275 1685.09,-309 1807.09,-309 1807.09,-275 1685.09,-275"/>
<text text-anchor="start" x="1693.09" y="-296" font-family="Helvetica,sans-Serif" font-size="10.00">reconstruct/Reconstruct</text>
<text text-anchor="middle" x="1746.09" y="-283" font-family="Helvetica,sans-Serif" font-size="10.00">_traits.h</text>
</a>
</g>
<!-- Node4&#45;&gt;Node5 -->
<g id="edge8" class="edge"><title>Node4&#45;&gt;Node5</title>
<path fill="none" stroke="midnightblue" d="M1684.31,-346.267C1693.74,-337.984 1707.14,-326.212 1719.06,-315.748"/>
<polygon fill="midnightblue" stroke="midnightblue" points="1721.41,-318.339 1726.61,-309.11 1716.79,-313.08 1721.41,-318.339"/>
</g>
<!-- Node15 -->
<g id="node32" class="node"><title>Node15</title>
<polygon fill="white" stroke="#bfbfbf" points="2527.09,-0.5 2527.09,-21.5 2571.09,-21.5 2571.09,-0.5 2527.09,-0.5"/>
<text text-anchor="middle" x="2549.09" y="-8.5" font-family="Helvetica,sans-Serif" font-size="10.00">vector</text>
</g>
<!-- Node4&#45;&gt;Node15 -->
<g id="edge190" class="edge"><title>Node4&#45;&gt;Node15</title>
<path fill="none" stroke="midnightblue" d="M1731.75,-354.455C1921.67,-344.987 2506.43,-304.844 2620.09,-166 2633.06,-150.162 2620.74,-76.3286 2610.09,-58 2602.71,-45.2866 2590.41,-34.8229 2578.79,-27.0221"/>
<polygon fill="midnightblue" stroke="midnightblue" points="2580.45,-23.934 2570.12,-21.5827 2576.73,-29.8631 2580.45,-23.934"/>
</g>
<!-- Node27 -->
<g id="node68" class="node"><title>Node27</title>
<a xlink:href="_manager__traits_8h.html" target="_top" xlink:title="calibration/gui/Manager\l_traits.h">
<polygon fill="white" stroke="black" points="1211.59,-275 1211.59,-309 1328.59,-309 1328.59,-275 1211.59,-275"/>
<text text-anchor="start" x="1219.59" y="-296" font-family="Helvetica,sans-Serif" font-size="10.00">calibration/gui/Manager</text>
<text text-anchor="middle" x="1270.09" y="-283" font-family="Helvetica,sans-Serif" font-size="10.00">_traits.h</text>
</a>
</g>
<!-- Node4&#45;&gt;Node27 -->
<g id="edge82" class="edge"><title>Node4&#45;&gt;Node27</title>
<path fill="none" stroke="midnightblue" d="M1612.34,-347.339C1539.29,-335.527 1415.9,-315.576 1338.94,-303.132"/>
<polygon fill="midnightblue" stroke="midnightblue" points="1339.29,-299.643 1328.86,-301.502 1338.17,-306.554 1339.29,-299.643"/>
</g>
<!-- Node50 -->
<g id="node139" class="node"><title>Node50</title>
<a xlink:href="_options_list_8h.html" target="_top" xlink:title="base/OptionsList.h">
<polygon fill="white" stroke="black" points="1038.09,-281.5 1038.09,-302.5 1136.09,-302.5 1136.09,-281.5 1038.09,-281.5"/>
<text text-anchor="middle" x="1087.09" y="-289.5" font-family="Helvetica,sans-Serif" font-size="10.00">base/OptionsList.h</text>
</a>
</g>
<!-- Node4&#45;&gt;Node50 -->
<g id="edge178" class="edge"><title>Node4&#45;&gt;Node50</title>
<path fill="none" stroke="midnightblue" d="M1612.33,-351.053C1488.2,-338.696 1213.14,-311.282 1203.09,-310 1184.5,-307.628 1164.29,-304.637 1146.04,-301.778"/>
<polygon fill="midnightblue" stroke="midnightblue" points="1146.54,-298.314 1136.11,-300.208 1145.44,-305.228 1146.54,-298.314"/>
</g>
<!-- Node5&#45;&gt;Node6 -->
<g id="edge10" class="edge"><title>Node5&#45;&gt;Node6</title>
<path fill="none" stroke="midnightblue" d="M1807.38,-282.233C1824.14,-279.562 1842.32,-276.668 1859.09,-274 1958.33,-258.216 2073.86,-239.874 2141.48,-229.142"/>
<polygon fill="midnightblue" stroke="midnightblue" points="2142.18,-232.574 2151.51,-227.55 2141.08,-225.661 2142.18,-232.574"/>
</g>
<!-- Node20 -->
<g id="node45" class="node"><title>Node20</title>
<a xlink:href="mapped__vectors_8h.html" target="_top" xlink:title="base/std_ext/mapped\l_vectors.h">
<polygon fill="white" stroke="black" points="1691.09,-203 1691.09,-237 1801.09,-237 1801.09,-203 1691.09,-203"/>
<text text-anchor="start" x="1699.09" y="-224" font-family="Helvetica,sans-Serif" font-size="10.00">base/std_ext/mapped</text>
<text text-anchor="middle" x="1746.09" y="-211" font-family="Helvetica,sans-Serif" font-size="10.00">_vectors.h</text>
</a>
</g>
<!-- Node5&#45;&gt;Node20 -->
<g id="edge50" class="edge"><title>Node5&#45;&gt;Node20</title>
<path fill="none" stroke="midnightblue" d="M1746.09,-274.937C1746.09,-266.807 1746.09,-256.876 1746.09,-247.705"/>
<polygon fill="midnightblue" stroke="midnightblue" points="1749.59,-247.441 1746.09,-237.441 1742.59,-247.441 1749.59,-247.441"/>
</g>
<!-- Node5&#45;&gt;Node22 -->
<g id="edge74" class="edge"><title>Node5&#45;&gt;Node22</title>
<path fill="none" stroke="midnightblue" d="M1706.26,-274.779C1687.66,-265.549 1665.95,-252.982 1649.09,-238 1619.59,-211.776 1609.24,-203.558 1597.09,-166 1592.17,-150.776 1591.56,-145.015 1597.09,-130 1602.2,-116.139 1612.61,-103.413 1622.25,-93.801"/>
<polygon fill="midnightblue" stroke="midnightblue" points="1624.8,-96.2003 1629.69,-86.7977 1620.01,-91.103 1624.8,-96.2003"/>
</g>
<!-- Node23 -->
<g id="node51" class="node"><title>Node23</title>
<polygon fill="white" stroke="#bfbfbf" points="471.592,-65.5 471.592,-86.5 500.592,-86.5 500.592,-65.5 471.592,-65.5"/>
<text text-anchor="middle" x="486.092" y="-73.5" font-family="Helvetica,sans-Serif" font-size="10.00">list</text>
</g>
<!-- Node5&#45;&gt;Node23 -->
<g id="edge78" class="edge"><title>Node5&#45;&gt;Node23</title>
<path fill="none" stroke="midnightblue" d="M1685,-288.858C1522.43,-280.347 1081.81,-256.263 937.092,-238 926.271,-236.634 560.305,-171.839 551.092,-166 524.37,-149.065 505.193,-116.847 494.871,-95.9065"/>
<polygon fill="midnightblue" stroke="midnightblue" points="497.942,-94.2111 490.521,-86.6488 491.606,-97.1879 497.942,-94.2111"/>
</g>
<!-- Node24 -->
<g id="node56" class="node"><title>Node24</title>
<a xlink:href="shared__ptr__container_8h.html" target="_top" xlink:title="base/std_ext/shared\l_ptr_container.h">
<polygon fill="white" stroke="black" points="1752.59,-131 1752.59,-165 1857.59,-165 1857.59,-131 1752.59,-131"/>
<text text-anchor="start" x="1760.59" y="-152" font-family="Helvetica,sans-Serif" font-size="10.00">base/std_ext/shared</text>
<text text-anchor="middle" x="1805.09" y="-139" font-family="Helvetica,sans-Serif" font-size="10.00">_ptr_container.h</text>
</a>
</g>
<!-- Node5&#45;&gt;Node24 -->
<g id="edge64" class="edge"><title>Node5&#45;&gt;Node24</title>
<path fill="none" stroke="midnightblue" d="M1776.2,-274.936C1789.18,-265.815 1802.99,-253.294 1810.09,-238 1819.23,-218.334 1817.01,-193.587 1813.05,-175.023"/>
<polygon fill="midnightblue" stroke="midnightblue" points="1816.42,-174.051 1810.66,-165.155 1809.61,-175.698 1816.42,-174.051"/>
</g>
<!-- Node25 -->
<g id="node60" class="node"><title>Node25</title>
<polygon fill="white" stroke="#bfbfbf" points="993.592,-0.5 993.592,-21.5 1052.59,-21.5 1052.59,-0.5 993.592,-0.5"/>
<text text-anchor="middle" x="1023.09" y="-8.5" font-family="Helvetica,sans-Serif" font-size="10.00">functional</text>
</g>
<!-- Node5&#45;&gt;Node25 -->
<g id="edge80" class="edge"><title>Node5&#45;&gt;Node25</title>
<path fill="none" stroke="midnightblue" d="M1684.74,-288.365C1552.4,-280.223 1243.78,-259.543 1141.09,-238 1042.88,-217.397 1019.64,-204.792 927.092,-166 894.462,-152.323 889.561,-141.472 856.092,-130 776.441,-102.697 723.676,-158.95 670.092,-94 659.91,-81.6581 659.551,-70.0372 670.092,-58 690.493,-34.7023 895.182,-19.0834 983.2,-13.3942"/>
<polygon fill="midnightblue" stroke="midnightblue" points="983.578,-16.8773 993.336,-12.7498 983.134,-9.89144 983.578,-16.8773"/>
</g>
<!-- Node26 -->
<g id="node64" class="node"><title>Node26</title>
<polygon fill="white" stroke="#bfbfbf" points="1562.59,-209.5 1562.59,-230.5 1597.59,-230.5 1597.59,-209.5 1562.59,-209.5"/>
<text text-anchor="middle" x="1580.09" y="-217.5" font-family="Helvetica,sans-Serif" font-size="10.00">map</text>
</g>
<!-- Node5&#45;&gt;Node26 -->
<g id="edge76" class="edge"><title>Node5&#45;&gt;Node26</title>
<path fill="none" stroke="midnightblue" d="M1698.5,-274.906C1672.31,-265.017 1639.46,-251.818 1611.09,-238 1609.51,-237.232 1607.91,-236.415 1606.3,-235.568"/>
<polygon fill="midnightblue" stroke="midnightblue" points="1607.67,-232.328 1597.23,-230.545 1604.28,-238.452 1607.67,-232.328"/>
</g>
<!-- Node7 -->
<g id="node13" class="node"><title>Node7</title>
<a xlink:href="printable_8h.html" target="_top" xlink:title="base/printable.h">
<polygon fill="white" stroke="black" points="2333.09,-65.5 2333.09,-86.5 2419.09,-86.5 2419.09,-65.5 2333.09,-65.5"/>
<text text-anchor="middle" x="2376.09" y="-73.5" font-family="Helvetica,sans-Serif" font-size="10.00">base/printable.h</text>
</a>
</g>
<!-- Node6&#45;&gt;Node7 -->
<g id="edge12" class="edge"><title>Node6&#45;&gt;Node7</title>
<path fill="none" stroke="midnightblue" d="M2246.67,-211.12C2275.91,-203.507 2312.37,-189.846 2337.09,-166 2356.64,-147.146 2366.96,-116.858 2371.97,-96.6971"/>
<polygon fill="midnightblue" stroke="midnightblue" points="2375.45,-97.2006 2374.24,-86.6755 2368.62,-95.6599 2375.45,-97.2006"/>
</g>
<!-- Node8 -->
<g id="node15" class="node"><title>Node8</title>
<polygon fill="white" stroke="#bfbfbf" points="2115.09,-0.5 2115.09,-21.5 2177.09,-21.5 2177.09,-0.5 2115.09,-0.5"/>
<text text-anchor="middle" x="2146.09" y="-8.5" font-family="Helvetica,sans-Serif" font-size="10.00">type_traits</text>
</g>
<!-- Node6&#45;&gt;Node8 -->
<g id="edge46" class="edge"><title>Node6&#45;&gt;Node8</title>
<path fill="none" stroke="midnightblue" d="M2220.68,-209.369C2236.49,-200.27 2256.74,-185.541 2266.09,-166 2273,-151.567 2272.06,-144.846 2266.09,-130 2247.75,-84.356 2201.97,-47.4576 2172.55,-27.4266"/>
<polygon fill="midnightblue" stroke="midnightblue" points="2174.26,-24.3642 2163.99,-21.7606 2170.4,-30.2004 2174.26,-24.3642"/>
</g>
<!-- Node10 -->
<g id="node19" class="node"><title>Node10</title>
<a xlink:href="vec3_8h.html" target="_top" xlink:title="base/vec/vec3.h">
<polygon fill="white" stroke="black" points="2502.59,-137.5 2502.59,-158.5 2591.59,-158.5 2591.59,-137.5 2502.59,-137.5"/>
<text text-anchor="middle" x="2547.09" y="-145.5" font-family="Helvetica,sans-Serif" font-size="10.00">base/vec/vec3.h</text>
</a>
</g>
<!-- Node6&#45;&gt;Node10 -->
<g id="edge18" class="edge"><title>Node6&#45;&gt;Node10</title>
<path fill="none" stroke="midnightblue" d="M2246.75,-210.14C2310.93,-196.86 2424.88,-173.285 2492.46,-159.304"/>
<polygon fill="midnightblue" stroke="midnightblue" points="2493.4,-162.683 2502.48,-157.229 2491.98,-155.828 2493.4,-162.683"/>
</g>
<!-- Node6&#45;&gt;Node13 -->
<g id="edge28" class="edge"><title>Node6&#45;&gt;Node13</title>
<path fill="none" stroke="midnightblue" d="M2199.83,-209.376C2200.57,-198.741 2201.72,-182.095 2202.65,-168.82"/>
<polygon fill="midnightblue" stroke="midnightblue" points="2206.15,-168.886 2203.35,-158.667 2199.17,-168.401 2206.15,-168.886"/>
</g>
<!-- Node6&#45;&gt;Node15 -->
<g id="edge48" class="edge"><title>Node6&#45;&gt;Node15</title>
<path fill="none" stroke="midnightblue" d="M2246.64,-214.421C2351.6,-201.997 2594.3,-172.627 2600.09,-166 2635.03,-126.038 2591.5,-61.5329 2565.65,-29.8246"/>
<polygon fill="midnightblue" stroke="midnightblue" points="2568.02,-27.2046 2558.91,-21.7985 2562.66,-31.7069 2568.02,-27.2046"/>
</g>
<!-- Node17 -->
<g id="node36" class="node"><title>Node17</title>
<polygon fill="white" stroke="#bfbfbf" points="1686.59,-65.5 1686.59,-86.5 1745.59,-86.5 1745.59,-65.5 1686.59,-65.5"/>
<text text-anchor="middle" x="1716.09" y="-73.5" font-family="Helvetica,sans-Serif" font-size="10.00">stdexcept</text>
</g>
<!-- Node6&#45;&gt;Node17 -->
<g id="edge42" class="edge"><title>Node6&#45;&gt;Node17</title>
<path fill="none" stroke="midnightblue" d="M2151.43,-217.259C2041.07,-210.503 1775.02,-191.715 1744.09,-166 1723.72,-149.062 1717.92,-117.551 1716.4,-96.6744"/>
<polygon fill="midnightblue" stroke="midnightblue" points="1719.9,-96.4251 1715.94,-86.5953 1712.9,-96.7446 1719.9,-96.4251"/>
</g>
<!-- Node6&#45;&gt;Node18 -->
<g id="edge40" class="edge"><title>Node6&#45;&gt;Node18</title>
<path fill="none" stroke="midnightblue" d="M2180.35,-209.376C2159.06,-197.305 2124.11,-177.49 2099.7,-163.651"/>
<polygon fill="midnightblue" stroke="midnightblue" points="2101.33,-160.555 2090.91,-158.667 2097.88,-166.644 2101.33,-160.555"/>
</g>
<!-- Node19 -->
<g id="node41" class="node"><title>Node19</title>
<polygon fill="white" stroke="#bfbfbf" points="442.592,-0.5 442.592,-21.5 483.592,-21.5 483.592,-0.5 442.592,-0.5"/>
<text text-anchor="middle" x="463.092" y="-8.5" font-family="Helvetica,sans-Serif" font-size="10.00">string</text>
</g>
<!-- Node6&#45;&gt;Node19 -->
<g id="edge44" class="edge"><title>Node6&#45;&gt;Node19</title>
<path fill="none" stroke="midnightblue" d="M2151.49,-217.62C2078.18,-213.994 1933.2,-206.983 1810.09,-202 1694.78,-197.333 878.541,-210.57 772.092,-166 750.633,-157.015 754.499,-141.171 734.092,-130 675.847,-98.1152 649.912,-120.646 589.092,-94 549.132,-76.4934 507.837,-46.636 483.857,-27.9077"/>
<polygon fill="midnightblue" stroke="midnightblue" points="485.851,-25.0224 475.84,-21.5548 481.504,-30.5087 485.851,-25.0224"/>
</g>
<!-- Node7&#45;&gt;Node8 -->
<g id="edge14" class="edge"><title>Node7&#45;&gt;Node8</title>
<path fill="none" stroke="midnightblue" d="M2343.61,-65.4911C2335.61,-62.9736 2327.06,-60.3388 2319.09,-58 2274.11,-44.793 2222.17,-30.8559 2187.03,-21.6203"/>
<polygon fill="midnightblue" stroke="midnightblue" points="2187.7,-18.1775 2177.14,-19.028 2185.92,-24.9488 2187.7,-18.1775"/>
</g>
<!-- Node9 -->
<g id="node17" class="node"><title>Node9</title>
<polygon fill="white" stroke="#bfbfbf" points="2350.09,-0.5 2350.09,-21.5 2402.09,-21.5 2402.09,-0.5 2350.09,-0.5"/>
<text text-anchor="middle" x="2376.09" y="-8.5" font-family="Helvetica,sans-Serif" font-size="10.00">ostream</text>
</g>
<!-- Node7&#45;&gt;Node9 -->
<g id="edge16" class="edge"><title>Node7&#45;&gt;Node9</title>
<path fill="none" stroke="midnightblue" d="M2376.09,-65.2666C2376.09,-56.1799 2376.09,-42.8919 2376.09,-31.7395"/>
<polygon fill="midnightblue" stroke="midnightblue" points="2379.59,-31.5337 2376.09,-21.5337 2372.59,-31.5337 2379.59,-31.5337"/>
</g>
<!-- Node10&#45;&gt;Node7 -->
<g id="edge20" class="edge"><title>Node10&#45;&gt;Node7</title>
<path fill="none" stroke="midnightblue" d="M2521.86,-137.376C2492.35,-124.951 2443.35,-104.319 2410.4,-90.4465"/>
<polygon fill="midnightblue" stroke="midnightblue" points="2411.72,-87.2051 2401.15,-86.5501 2409.01,-93.6565 2411.72,-87.2051"/>
</g>
<!-- Node11 -->
<g id="node22" class="node"><title>Node11</title>
<a xlink:href="vec2_8h.html" target="_top" xlink:title="vec2.h">
<polygon fill="white" stroke="black" points="2437.09,-65.5 2437.09,-86.5 2483.09,-86.5 2483.09,-65.5 2437.09,-65.5"/>
<text text-anchor="middle" x="2460.09" y="-73.5" font-family="Helvetica,sans-Serif" font-size="10.00">vec2.h</text>
</a>
</g>
<!-- Node10&#45;&gt;Node11 -->
<g id="edge22" class="edge"><title>Node10&#45;&gt;Node11</title>
<path fill="none" stroke="midnightblue" d="M2534.25,-137.376C2520.25,-125.784 2497.61,-107.05 2481.03,-93.324"/>
<polygon fill="midnightblue" stroke="midnightblue" points="2482.92,-90.3468 2472.98,-86.6674 2478.45,-95.7395 2482.92,-90.3468"/>
</g>
<!-- Node12 -->
<g id="node24" class="node"><title>Node12</title>
<polygon fill="white" stroke="#bfbfbf" points="2247.09,-0.5 2247.09,-21.5 2291.09,-21.5 2291.09,-0.5 2247.09,-0.5"/>
<text text-anchor="middle" x="2269.09" y="-8.5" font-family="Helvetica,sans-Serif" font-size="10.00">cmath</text>
</g>
<!-- Node10&#45;&gt;Node12 -->
<g id="edge26" class="edge"><title>Node10&#45;&gt;Node12</title>
<path fill="none" stroke="midnightblue" d="M2543.78,-137.443C2537.21,-118.346 2520.66,-78.1788 2492.09,-58 2476.61,-47.0671 2359.42,-26.1764 2301.41,-16.3543"/>
<polygon fill="midnightblue" stroke="midnightblue" points="2301.75,-12.862 2291.31,-14.654 2300.59,-19.765 2301.75,-12.862"/>
</g>
<!-- Node11&#45;&gt;Node12 -->
<g id="edge24" class="edge"><title>Node11&#45;&gt;Node12</title>
<path fill="none" stroke="midnightblue" d="M2442.85,-65.3652C2438.16,-62.7391 2433.02,-60.0846 2428.09,-58 2385.51,-40 2333.77,-26.0855 2301.13,-18.2155"/>
<polygon fill="midnightblue" stroke="midnightblue" points="2301.77,-14.7718 2291.24,-15.8752 2300.16,-21.5837 2301.77,-14.7718"/>
</g>
<!-- Node13&#45;&gt;Node12 -->
<g id="edge30" class="edge"><title>Node13&#45;&gt;Node12</title>
<path fill="none" stroke="midnightblue" d="M2209.19,-137.25C2220.06,-114.341 2245.65,-60.4087 2259.61,-30.9919"/>
<polygon fill="midnightblue" stroke="midnightblue" points="2262.89,-32.2352 2264.02,-21.7002 2256.57,-29.2346 2262.89,-32.2352"/>
</g>
<!-- Node14 -->
<g id="node30" class="node"><title>Node14</title>
<polygon fill="white" stroke="#bfbfbf" points="2123.09,-65.5 2123.09,-86.5 2163.09,-86.5 2163.09,-65.5 2123.09,-65.5"/>
<text text-anchor="middle" x="2143.09" y="-73.5" font-family="Helvetica,sans-Serif" font-size="10.00">limits</text>
</g>
<!-- Node13&#45;&gt;Node14 -->
<g id="edge32" class="edge"><title>Node13&#45;&gt;Node14</title>
<path fill="none" stroke="midnightblue" d="M2195.09,-137.376C2185.54,-126.103 2170.27,-108.075 2158.74,-94.4685"/>
<polygon fill="midnightblue" stroke="midnightblue" points="2161.26,-92.0348 2152.13,-86.6674 2155.92,-96.5598 2161.26,-92.0348"/>
</g>
<!-- Node13&#45;&gt;Node15 -->
<g id="edge34" class="edge"><title>Node13&#45;&gt;Node15</title>
<path fill="none" stroke="midnightblue" d="M2214.92,-137.204C2234.74,-118.089 2279.01,-78.3884 2324.09,-58 2388.72,-28.7716 2472.08,-17.473 2516.99,-13.2967"/>
<polygon fill="midnightblue" stroke="midnightblue" points="2517.37,-16.7776 2527.03,-12.4241 2516.76,-9.80391 2517.37,-16.7776"/>
</g>
<!-- Node16 -->
<g id="node34" class="node"><title>Node16</title>
<polygon fill="white" stroke="#bfbfbf" points="1783.09,-0.5 1783.09,-21.5 1839.09,-21.5 1839.09,-0.5 1783.09,-0.5"/>
<text text-anchor="middle" x="1811.09" y="-8.5" font-family="Helvetica,sans-Serif" font-size="10.00">algorithm</text>
</g>
<!-- Node13&#45;&gt;Node16 -->
<g id="edge36" class="edge"><title>Node13&#45;&gt;Node16</title>
<path fill="none" stroke="midnightblue" d="M2203.72,-137.389C2202.42,-118.204 2196.73,-77.8997 2172.09,-58 2147.29,-37.9676 1937.27,-20.3127 1849.45,-13.7346"/>
<polygon fill="midnightblue" stroke="midnightblue" points="1849.6,-10.2361 1839.37,-12.9879 1849.08,-17.217 1849.6,-10.2361"/>
</g>
<!-- Node13&#45;&gt;Node17 -->
<g id="edge38" class="edge"><title>Node13&#45;&gt;Node17</title>
<path fill="none" stroke="midnightblue" d="M2150.96,-138.031C2135.84,-135.304 2119.33,-132.432 2104.09,-130 1977.29,-109.772 1826.47,-90.008 1756.04,-81.0268"/>
<polygon fill="midnightblue" stroke="midnightblue" points="1756.21,-77.5196 1745.84,-79.7303 1755.32,-84.4637 1756.21,-77.5196"/>
</g>
<!-- Node20&#45;&gt;Node8 -->
<g id="edge62" class="edge"><title>Node20&#45;&gt;Node8</title>
<path fill="none" stroke="midnightblue" d="M1801.24,-216.916C1854.21,-211.991 1935.11,-199.204 1997.09,-166 2017.32,-155.166 2055.17,-110.52 2071.09,-94 2092.06,-72.2486 2115.23,-46.2875 2130.19,-29.2626"/>
<polygon fill="midnightblue" stroke="midnightblue" points="2132.88,-31.5096 2136.83,-21.6803 2127.61,-26.8982 2132.88,-31.5096"/>
</g>
<!-- Node20&#45;&gt;Node15 -->
<g id="edge58" class="edge"><title>Node20&#45;&gt;Node15</title>
<path fill="none" stroke="midnightblue" d="M1801.22,-216.629C1923.04,-208.866 2211.9,-188.645 2307.09,-166 2392.93,-145.58 2422.94,-148.795 2492.09,-94 2513.69,-76.8835 2530.31,-49.3681 2539.88,-30.7551"/>
<polygon fill="midnightblue" stroke="midnightblue" points="2543.07,-32.2108 2544.35,-21.6942 2536.79,-29.1141 2543.07,-32.2108"/>
</g>
<!-- Node21 -->
<g id="node47" class="node"><title>Node21</title>
<a xlink:href="memory_8h.html" target="_top" xlink:title="base/std_ext/memory.h">
<polygon fill="white" stroke="black" points="606.592,-137.5 606.592,-158.5 725.592,-158.5 725.592,-137.5 606.592,-137.5"/>
<text text-anchor="middle" x="666.092" y="-145.5" font-family="Helvetica,sans-Serif" font-size="10.00">base/std_ext/memory.h</text>
</a>
</g>
<!-- Node20&#45;&gt;Node21 -->
<g id="edge52" class="edge"><title>Node20&#45;&gt;Node21</title>
<path fill="none" stroke="midnightblue" d="M1691.02,-211.803C1665.28,-208.258 1634.17,-204.384 1606.09,-202 1221.81,-169.379 1120.9,-220.438 739.092,-166 730.36,-164.755 721.152,-162.913 712.328,-160.876"/>
<polygon fill="midnightblue" stroke="midnightblue" points="713.116,-157.466 702.573,-158.515 711.469,-164.27 713.116,-157.466"/>
</g>
<!-- Node20&#45;&gt;Node22 -->
<g id="edge60" class="edge"><title>Node20&#45;&gt;Node22</title>
<path fill="none" stroke="midnightblue" d="M1714.85,-202.966C1700.38,-193.704 1684.02,-181.055 1673.09,-166 1657.9,-145.066 1650.06,-115.945 1646.26,-96.5608"/>
<polygon fill="midnightblue" stroke="midnightblue" points="1649.7,-95.8957 1644.51,-86.6578 1642.81,-97.1144 1649.7,-95.8957"/>
</g>
<!-- Node21&#45;&gt;Node22 -->
<g id="edge54" class="edge"><title>Node21&#45;&gt;Node22</title>
<path fill="none" stroke="midnightblue" d="M720.109,-137.485C736.723,-134.614 755.108,-131.801 772.092,-130 957.006,-110.396 1428.35,-141.629 1608.09,-94 1611.1,-93.2031 1614.14,-92.1203 1617.12,-90.8785"/>
<polygon fill="midnightblue" stroke="midnightblue" points="1618.72,-93.9902 1626.24,-86.5252 1615.71,-87.6725 1618.72,-93.9902"/>
</g>
<!-- Node21&#45;&gt;Node23 -->
<g id="edge56" class="edge"><title>Node21&#45;&gt;Node23</title>
<path fill="none" stroke="midnightblue" d="M639.532,-137.376C604.614,-123.409 543.773,-99.0725 510.149,-85.6226"/>
<polygon fill="midnightblue" stroke="midnightblue" points="511.231,-82.2859 500.646,-81.8216 508.631,-88.7852 511.231,-82.2859"/>
</g>
<!-- Node24&#45;&gt;Node15 -->
<g id="edge66" class="edge"><title>Node24&#45;&gt;Node15</title>
<path fill="none" stroke="midnightblue" d="M1811.6,-130.861C1820.68,-109.605 1839.35,-74.198 1868.09,-58 1920.77,-28.3166 2350.79,-26.4023 2411.09,-22 2447.23,-19.3622 2488.65,-16.0169 2516.61,-13.7118"/>
<polygon fill="midnightblue" stroke="midnightblue" points="2516.95,-17.1958 2526.63,-12.883 2516.38,-10.2196 2516.95,-17.1958"/>
</g>
<!-- Node24&#45;&gt;Node16 -->
<g id="edge72" class="edge"><title>Node24&#45;&gt;Node16</title>
<path fill="none" stroke="midnightblue" d="M1805.84,-130.926C1806.94,-105.821 1808.99,-58.9976 1810.18,-31.8807"/>
<polygon fill="midnightblue" stroke="midnightblue" points="1813.69,-31.73 1810.63,-21.5864 1806.69,-31.4237 1813.69,-31.73"/>
</g>
<!-- Node24&#45;&gt;Node22 -->
<g id="edge68" class="edge"><title>Node24&#45;&gt;Node22</title>
<path fill="none" stroke="midnightblue" d="M1762.71,-130.886C1737.86,-120.627 1705.97,-107.072 1678.09,-94 1676.08,-93.0571 1674.02,-92.0635 1671.95,-91.0472"/>
<polygon fill="midnightblue" stroke="midnightblue" points="1673.46,-87.8933 1662.96,-86.5341 1670.32,-94.1491 1673.46,-87.8933"/>
</g>
<!-- Node24&#45;&gt;Node25 -->
<g id="edge70" class="edge"><title>Node24&#45;&gt;Node25</title>
<path fill="none" stroke="midnightblue" d="M1800.79,-130.955C1794.45,-109.798 1780.42,-74.4966 1754.09,-58 1695.41,-21.2341 1207.46,-13.0077 1063.15,-11.3713"/>
<polygon fill="midnightblue" stroke="midnightblue" points="1063.01,-7.86968 1052.97,-11.2605 1062.93,-14.8693 1063.01,-7.86968"/>
</g>
<!-- Node27&#45;&gt;Node19 -->
<g id="edge172" class="edge"><title>Node27&#45;&gt;Node19</title>
<path fill="none" stroke="midnightblue" d="M1211.4,-282.5C1190.51,-279.398 1166.8,-276.191 1145.09,-274 1076.66,-267.092 587.693,-270.537 527.092,-238 454.285,-198.909 456.498,-80.3703 460.695,-31.9463"/>
<polygon fill="midnightblue" stroke="midnightblue" points="464.204,-32.0248 461.705,-21.729 457.238,-31.336 464.204,-32.0248"/>
</g>
<!-- Node27&#45;&gt;Node22 -->
<g id="edge176" class="edge"><title>Node27&#45;&gt;Node22</title>
<path fill="none" stroke="midnightblue" d="M1328.89,-277.265C1352.45,-268.939 1378.39,-256.4 1397.09,-238 1434.53,-201.159 1404.41,-163.231 1445.09,-130 1502.55,-83.0635 1538.3,-119.174 1608.09,-94 1610.51,-93.1277 1612.97,-92.1229 1615.42,-91.0436"/>
<polygon fill="midnightblue" stroke="midnightblue" points="1617.1,-94.1173 1624.6,-86.6329 1614.07,-87.8073 1617.1,-94.1173"/>
</g>
<!-- Node27&#45;&gt;Node23 -->
<g id="edge174" class="edge"><title>Node27&#45;&gt;Node23</title>
<path fill="none" stroke="midnightblue" d="M1211.48,-283.565C1114.73,-269.627 929.257,-242.843 899.092,-238 716.421,-208.673 610.408,-305.683 489.092,-166 472.669,-147.09 475.626,-116.601 480.139,-96.431"/>
<polygon fill="midnightblue" stroke="midnightblue" points="483.545,-97.2374 482.62,-86.6831 476.761,-95.5111 483.545,-97.2374"/>
</g>
<!-- Node27&#45;&gt;Node28 -->
<g id="edge84" class="edge"><title>Node27&#45;&gt;Node28</title>
<path fill="none" stroke="midnightblue" d="M1322.11,-274.92C1397.61,-250.218 1531.11,-206.919 1554.09,-202 1690.59,-172.781 1730.29,-198.293 1866.09,-166 1870.8,-164.88 1875.68,-163.443 1880.46,-161.87"/>
<polygon fill="midnightblue" stroke="midnightblue" points="1881.74,-165.129 1890.01,-158.51 1879.42,-158.525 1881.74,-165.129"/>
</g>
<!-- Node31 -->
<g id="node80" class="node"><title>Node31</title>
<a xlink:href="_wrap_t_file_8h.html" target="_top" xlink:title="base/WrapTFile.h">
<polygon fill="white" stroke="black" points="1223.09,-137.5 1223.09,-158.5 1317.09,-158.5 1317.09,-137.5 1223.09,-137.5"/>
<text text-anchor="middle" x="1270.09" y="-145.5" font-family="Helvetica,sans-Serif" font-size="10.00">base/WrapTFile.h</text>
</a>
</g>
<!-- Node27&#45;&gt;Node31 -->
<g id="edge98" class="edge"><title>Node27&#45;&gt;Node31</title>
<path fill="none" stroke="midnightblue" d="M1270.09,-274.916C1270.09,-248.345 1270.09,-197.207 1270.09,-168.622"/>
<polygon fill="midnightblue" stroke="midnightblue" points="1273.59,-168.541 1270.09,-158.541 1266.59,-168.541 1273.59,-168.541"/>
</g>
<!-- Node43 -->
<g id="node115" class="node"><title>Node43</title>
<a xlink:href="_t_i_d_8h.html" target="_top" xlink:title="tree/TID.h">
<polygon fill="white" stroke="black" points="1149.59,-209.5 1149.59,-230.5 1210.59,-230.5 1210.59,-209.5 1149.59,-209.5"/>
<text text-anchor="middle" x="1180.09" y="-217.5" font-family="Helvetica,sans-Serif" font-size="10.00">tree/TID.h</text>
</a>
</g>
<!-- Node27&#45;&gt;Node43 -->
<g id="edge144" class="edge"><title>Node27&#45;&gt;Node43</title>
<path fill="none" stroke="midnightblue" d="M1248.76,-274.937C1234.42,-263.465 1215.6,-248.408 1201.29,-236.958"/>
<polygon fill="midnightblue" stroke="midnightblue" points="1203.45,-234.202 1193.45,-230.688 1199.07,-239.668 1203.45,-234.202"/>
</g>
<!-- Node28&#45;&gt;Node7 -->
<g id="edge86" class="edge"><title>Node28&#45;&gt;Node7</title>
<path fill="none" stroke="midnightblue" d="M1955.2,-141.736C2038.39,-128.743 2229.73,-98.8596 2323.01,-84.2898"/>
<polygon fill="midnightblue" stroke="midnightblue" points="2323.74,-87.7188 2333.08,-82.7175 2322.66,-80.8026 2323.74,-87.7188"/>
</g>
<!-- Node28&#45;&gt;Node14 -->
<g id="edge94" class="edge"><title>Node28&#45;&gt;Node14</title>
<path fill="none" stroke="midnightblue" d="M1948.73,-137.376C1993.14,-123.355 2070.63,-98.8839 2113.11,-85.4669"/>
<polygon fill="midnightblue" stroke="midnightblue" points="2114.39,-88.7345 2122.87,-82.3856 2112.28,-82.0594 2114.39,-88.7345"/>
</g>
<!-- Node28&#45;&gt;Node16 -->
<g id="edge90" class="edge"><title>Node28&#45;&gt;Node16</title>
<path fill="none" stroke="midnightblue" d="M1945.64,-137.451C1965.03,-128.981 1988.56,-114.992 2000.09,-94 2007.8,-79.9772 2009.95,-70.6052 2000.09,-58 1981.72,-34.499 1898.88,-21.0659 1849.18,-14.9868"/>
<polygon fill="midnightblue" stroke="midnightblue" points="1849.45,-11.4947 1839.11,-13.8002 1848.63,-18.4466 1849.45,-11.4947"/>
</g>
<!-- Node28&#45;&gt;Node17 -->
<g id="edge92" class="edge"><title>Node28&#45;&gt;Node17</title>
<path fill="none" stroke="midnightblue" d="M1886.6,-137.499C1879.88,-135.031 1872.74,-132.416 1866.09,-130 1828.58,-116.36 1785.74,-100.953 1755.47,-90.0971"/>
<polygon fill="midnightblue" stroke="midnightblue" points="1756.31,-86.6792 1745.71,-86.5992 1753.94,-93.2686 1756.31,-86.6792"/>
</g>
<!-- Node29 -->
<g id="node73" class="node"><title>Node29</title>
<a xlink:href="types_8h.html" target="_top" xlink:title="types.h">
<polygon fill="white" stroke="black" points="1876.59,-65.5 1876.59,-86.5 1925.59,-86.5 1925.59,-65.5 1876.59,-65.5"/>
<text text-anchor="middle" x="1901.09" y="-73.5" font-family="Helvetica,sans-Serif" font-size="10.00">types.h</text>
</a>
</g>
<!-- Node28&#45;&gt;Node29 -->
<g id="edge88" class="edge"><title>Node28&#45;&gt;Node29</title>
<path fill="none" stroke="midnightblue" d="M1913.03,-137.376C1910.96,-126.741 1907.72,-110.095 1905.14,-96.8195"/>
<polygon fill="midnightblue" stroke="midnightblue" points="1908.51,-95.8155 1903.17,-86.6674 1901.64,-97.1517 1908.51,-95.8155"/>
</g>
<!-- Node30 -->
<g id="node78" class="node"><title>Node30</title>
<polygon fill="white" stroke="#bfbfbf" points="1942.59,-65.5 1942.59,-86.5 1991.59,-86.5 1991.59,-65.5 1942.59,-65.5"/>
<text text-anchor="middle" x="1967.09" y="-73.5" font-family="Helvetica,sans-Serif" font-size="10.00">istream</text>
</g>
<!-- Node28&#45;&gt;Node30 -->
<g id="edge96" class="edge"><title>Node28&#45;&gt;Node30</title>
<path fill="none" stroke="midnightblue" d="M1922.76,-137.376C1930.83,-126.209 1943.68,-108.415 1953.47,-94.8547"/>
<polygon fill="midnightblue" stroke="midnightblue" points="1956.37,-96.8235 1959.39,-86.6674 1950.7,-92.725 1956.37,-96.8235"/>
</g>
<!-- Node31&#45;&gt;Node17 -->
<g id="edge140" class="edge"><title>Node31&#45;&gt;Node17</title>
<path fill="none" stroke="midnightblue" d="M1317.27,-146.491C1394.28,-142.986 1551.14,-131.466 1678.09,-94 1681.24,-93.0702 1684.46,-91.911 1687.62,-90.632"/>
<polygon fill="midnightblue" stroke="midnightblue" points="1689.11,-93.8015 1696.83,-86.5443 1686.27,-87.4039 1689.11,-93.8015"/>
</g>
<!-- Node31&#45;&gt;Node19 -->
<g id="edge134" class="edge"><title>Node31&#45;&gt;Node19</title>
<path fill="none" stroke="midnightblue" d="M1241.04,-137.42C1232.46,-134.634 1222.98,-131.885 1214.09,-130 1067.17,-98.8583 1014.45,-156.958 878.092,-94 856.97,-84.2477 861.129,-67.9346 840.092,-58 778.857,-29.0818 573.299,-16.3158 494.344,-12.3958"/>
<polygon fill="midnightblue" stroke="midnightblue" points="494.228,-8.88621 484.071,-11.9006 493.891,-15.8781 494.228,-8.88621"/>
</g>
<!-- Node31&#45;&gt;Node22 -->
<g id="edge132" class="edge"><title>Node31&#45;&gt;Node22</title>
<path fill="none" stroke="midnightblue" d="M1302.46,-137.418C1311.64,-134.699 1321.69,-131.985 1331.09,-130 1452.56,-104.353 1489.57,-130.94 1608.09,-94 1610.84,-93.1423 1613.64,-92.0784 1616.39,-90.8997"/>
<polygon fill="midnightblue" stroke="midnightblue" points="1617.92,-94.0487 1625.43,-86.5819 1614.9,-87.7317 1617.92,-94.0487"/>
</g>
<!-- Node31&#45;&gt;Node23 -->
<g id="edge136" class="edge"><title>Node31&#45;&gt;Node23</title>
<path fill="none" stroke="midnightblue" d="M1241.95,-137.471C1233.15,-134.581 1223.32,-131.761 1214.09,-130 976.079,-84.5859 911.588,-113.798 670.092,-94 613.227,-89.3381 546.615,-82.4715 511.211,-78.7098"/>
<polygon fill="midnightblue" stroke="midnightblue" points="511.18,-75.1867 500.865,-77.6043 510.437,-82.147 511.18,-75.1867"/>
</g>
<!-- Node31&#45;&gt;Node25 -->
<g id="edge142" class="edge"><title>Node31&#45;&gt;Node25</title>
<path fill="none" stroke="midnightblue" d="M1239.16,-137.42C1231.05,-134.822 1222.29,-132.168 1214.09,-130 1138.59,-110.023 1097.83,-148.707 1042.09,-94 1025.68,-77.8894 1022.2,-50.7028 1021.99,-31.8546"/>
<polygon fill="midnightblue" stroke="midnightblue" points="1025.5,-31.6843 1022.19,-21.6188 1018.5,-31.5495 1025.5,-31.6843"/>
</g>
<!-- Node32 -->
<g id="node82" class="node"><title>Node32</title>
<a xlink:href="string_8h.html" target="_top" xlink:title="base/std_ext/string.h">
<polygon fill="white" stroke="black" points="887.092,-65.5 887.092,-86.5 995.092,-86.5 995.092,-65.5 887.092,-65.5"/>
<text text-anchor="middle" x="941.092" y="-73.5" font-family="Helvetica,sans-Serif" font-size="10.00">base/std_ext/string.h</text>
</a>
</g>
<!-- Node31&#45;&gt;Node32 -->
<g id="edge100" class="edge"><title>Node31&#45;&gt;Node32</title>
<path fill="none" stroke="midnightblue" d="M1239.79,-137.425C1231.52,-134.768 1222.52,-132.084 1214.09,-130 1124.29,-107.794 1099.44,-113.854 1009.09,-94 1002.44,-92.5384 995.46,-90.8594 988.61,-89.1272"/>
<polygon fill="midnightblue" stroke="midnightblue" points="989.278,-85.6848 978.72,-86.5701 987.525,-92.4619 989.278,-85.6848"/>
</g>
<!-- Node34 -->
<g id="node89" class="node"><title>Node34</title>
<a xlink:href="misc_8h.html" target="_top" xlink:title="base/std_ext/misc.h">
<polygon fill="white" stroke="black" points="1494.59,-65.5 1494.59,-86.5 1599.59,-86.5 1599.59,-65.5 1494.59,-65.5"/>
<text text-anchor="middle" x="1547.09" y="-73.5" font-family="Helvetica,sans-Serif" font-size="10.00">base/std_ext/misc.h</text>
</a>
</g>
<!-- Node31&#45;&gt;Node34 -->
<g id="edge110" class="edge"><title>Node31&#45;&gt;Node34</title>
<path fill="none" stroke="midnightblue" d="M1304.51,-137.46C1313.16,-134.917 1322.44,-132.278 1331.09,-130 1399.48,-111.984 1417.7,-112.016 1486.09,-94 1491.5,-92.5761 1497.15,-91.0114 1502.74,-89.4173"/>
<polygon fill="midnightblue" stroke="midnightblue" points="1504.04,-92.6847 1512.67,-86.5403 1502.09,-85.9612 1504.04,-92.6847"/>
</g>
<!-- Node36 -->
<g id="node96" class="node"><title>Node36</title>
<polygon fill="white" stroke="#bfbfbf" points="1208.59,-65.5 1208.59,-86.5 1255.59,-86.5 1255.59,-65.5 1208.59,-65.5"/>
<text text-anchor="middle" x="1232.09" y="-73.5" font-family="Helvetica,sans-Serif" font-size="10.00">TFile.h</text>
</g>
<!-- Node31&#45;&gt;Node36 -->
<g id="edge120" class="edge"><title>Node31&#45;&gt;Node36</title>
<path fill="none" stroke="midnightblue" d="M1264.48,-137.376C1258.7,-126.422 1249.56,-109.09 1242.45,-95.6341"/>
<polygon fill="midnightblue" stroke="midnightblue" points="1245.49,-93.8776 1237.72,-86.6674 1239.29,-97.145 1245.49,-93.8776"/>
</g>
<!-- Node37 -->
<g id="node98" class="node"><title>Node37</title>
<polygon fill="white" stroke="#bfbfbf" points="1272.59,-65.5 1272.59,-86.5 1343.59,-86.5 1343.59,-65.5 1272.59,-65.5"/>
<text text-anchor="middle" x="1308.09" y="-73.5" font-family="Helvetica,sans-Serif" font-size="10.00">TDirectory.h</text>
</g>
<!-- Node31&#45;&gt;Node37 -->
<g id="edge122" class="edge"><title>Node31&#45;&gt;Node37</title>
<path fill="none" stroke="midnightblue" d="M1275.7,-137.376C1281.48,-126.422 1290.63,-109.09 1297.73,-95.6341"/>
<polygon fill="midnightblue" stroke="midnightblue" points="1300.89,-97.145 1302.46,-86.6674 1294.7,-93.8776 1300.89,-97.145"/>
</g>
<!-- Node38 -->
<g id="node100" class="node"><title>Node38</title>
<polygon fill="white" stroke="#bfbfbf" points="1361.09,-65.5 1361.09,-86.5 1413.09,-86.5 1413.09,-65.5 1361.09,-65.5"/>
<text text-anchor="middle" x="1387.09" y="-73.5" font-family="Helvetica,sans-Serif" font-size="10.00">TError.h</text>
</g>
<!-- Node31&#45;&gt;Node38 -->
<g id="edge124" class="edge"><title>Node31&#45;&gt;Node38</title>
<path fill="none" stroke="midnightblue" d="M1287.36,-137.376C1306.8,-125.412 1338.6,-105.839 1361.06,-92.0177"/>
<polygon fill="midnightblue" stroke="midnightblue" points="1363.08,-94.8893 1369.76,-86.6674 1359.41,-88.9276 1363.08,-94.8893"/>
</g>
<!-- Node39 -->
<g id="node102" class="node"><title>Node39</title>
<polygon fill="white" stroke="#bfbfbf" points="1430.59,-65.5 1430.59,-86.5 1477.59,-86.5 1477.59,-65.5 1430.59,-65.5"/>
<text text-anchor="middle" x="1454.09" y="-73.5" font-family="Helvetica,sans-Serif" font-size="10.00">TList.h</text>
</g>
<!-- Node31&#45;&gt;Node39 -->
<g id="edge126" class="edge"><title>Node31&#45;&gt;Node39</title>
<path fill="none" stroke="midnightblue" d="M1305.17,-137.425C1336.41,-127.563 1383.09,-111.74 1422.09,-94 1423.88,-93.1885 1425.69,-92.3122 1427.51,-91.3985"/>
<polygon fill="midnightblue" stroke="midnightblue" points="1429.25,-94.4355 1436.43,-86.6435 1425.96,-88.258 1429.25,-94.4355"/>
</g>
<!-- Node40 -->
<g id="node104" class="node"><title>Node40</title>
<polygon fill="white" stroke="#bfbfbf" points="1051.09,-65.5 1051.09,-86.5 1125.09,-86.5 1125.09,-65.5 1051.09,-65.5"/>
<text text-anchor="middle" x="1088.09" y="-73.5" font-family="Helvetica,sans-Serif" font-size="10.00">TCollection.h</text>
</g>
<!-- Node31&#45;&gt;Node40 -->
<g id="edge128" class="edge"><title>Node31&#45;&gt;Node40</title>
<path fill="none" stroke="midnightblue" d="M1243.24,-137.376C1211.69,-124.897 1159.23,-104.142 1124.16,-90.2682"/>
<polygon fill="midnightblue" stroke="midnightblue" points="1125.35,-86.9743 1114.76,-86.5501 1122.77,-93.4834 1125.35,-86.9743"/>
</g>
<!-- Node41 -->
<g id="node106" class="node"><title>Node41</title>
<polygon fill="white" stroke="#bfbfbf" points="1143.09,-65.5 1143.09,-86.5 1191.09,-86.5 1191.09,-65.5 1143.09,-65.5"/>
<text text-anchor="middle" x="1167.09" y="-73.5" font-family="Helvetica,sans-Serif" font-size="10.00">TKey.h</text>
</g>
<!-- Node31&#45;&gt;Node41 -->
<g id="edge130" class="edge"><title>Node31&#45;&gt;Node41</title>
<path fill="none" stroke="midnightblue" d="M1254.89,-137.376C1238.01,-125.571 1210.52,-106.36 1190.8,-92.5736"/>
<polygon fill="midnightblue" stroke="midnightblue" points="1192.55,-89.5281 1182.35,-86.6674 1188.54,-95.2654 1192.55,-89.5281"/>
</g>
<!-- Node42 -->
<g id="node111" class="node"><title>Node42</title>
<polygon fill="white" stroke="#bfbfbf" points="801.092,-65.5 801.092,-86.5 831.092,-86.5 831.092,-65.5 801.092,-65.5"/>
<text text-anchor="middle" x="816.092" y="-73.5" font-family="Helvetica,sans-Serif" font-size="10.00">set</text>
</g>
<!-- Node31&#45;&gt;Node42 -->
<g id="edge138" class="edge"><title>Node31&#45;&gt;Node42</title>
<path fill="none" stroke="midnightblue" d="M1241.34,-137.46C1232.69,-134.641 1223.09,-131.863 1214.09,-130 1052.73,-96.5975 1001.17,-146.83 845.092,-94 843.156,-93.3446 841.214,-92.5389 839.305,-91.6353"/>
<polygon fill="midnightblue" stroke="midnightblue" points="840.627,-88.3651 830.19,-86.5448 837.214,-94.4766 840.627,-88.3651"/>
</g>
<!-- Node32&#45;&gt;Node15 -->
<g id="edge108" class="edge"><title>Node32&#45;&gt;Node15</title>
<path fill="none" stroke="midnightblue" d="M991.488,-65.4857C1007.59,-62.5397 1025.52,-59.6846 1042.09,-58 1647.62,3.56849 1803.29,-54.1927 2411.09,-22 2447.27,-20.0837 2488.69,-16.6102 2516.64,-14.0778"/>
<polygon fill="midnightblue" stroke="midnightblue" points="2517.01,-17.5583 2526.65,-13.1585 2516.37,-10.5876 2517.01,-17.5583"/>
</g>
<!-- Node32&#45;&gt;Node16 -->
<g id="edge106" class="edge"><title>Node32&#45;&gt;Node16</title>
<path fill="none" stroke="midnightblue" d="M993.602,-65.4576C1009.16,-62.6557 1026.26,-59.8878 1042.09,-58 1186.11,-40.8232 1638.03,-19.0178 1772.79,-12.7541"/>
<polygon fill="midnightblue" stroke="midnightblue" points="1773.2,-16.2389 1783.03,-12.2798 1772.88,-9.24639 1773.2,-16.2389"/>
</g>
<!-- Node32&#45;&gt;Node19 -->
<g id="edge102" class="edge"><title>Node32&#45;&gt;Node19</title>
<path fill="none" stroke="midnightblue" d="M905.317,-65.4924C894.988,-62.7417 883.652,-59.9922 873.092,-58 732.75,-31.5252 562.379,-17.7836 493.834,-12.9974"/>
<polygon fill="midnightblue" stroke="midnightblue" points="493.943,-9.49678 483.727,-12.3056 493.465,-16.4804 493.943,-9.49678"/>
</g>
<!-- Node33 -->
<g id="node85" class="node"><title>Node33</title>
<polygon fill="white" stroke="#bfbfbf" points="658.092,-0.5 658.092,-21.5 710.092,-21.5 710.092,-0.5 658.092,-0.5"/>
<text text-anchor="middle" x="684.092" y="-8.5" font-family="Helvetica,sans-Serif" font-size="10.00">sstream</text>
</g>
<!-- Node32&#45;&gt;Node33 -->
<g id="edge104" class="edge"><title>Node32&#45;&gt;Node33</title>
<path fill="none" stroke="midnightblue" d="M901.565,-65.4296C892.235,-62.9643 882.318,-60.3682 873.092,-58 819.956,-44.3613 758.257,-29.1318 720.192,-19.8062"/>
<polygon fill="midnightblue" stroke="midnightblue" points="720.655,-16.3162 710.109,-17.3387 718.991,-23.1156 720.655,-16.3162"/>
</g>
<!-- Node34&#45;&gt;Node12 -->
<g id="edge116" class="edge"><title>Node34&#45;&gt;Node12</title>
<path fill="none" stroke="midnightblue" d="M1577.8,-65.4755C1587.4,-62.5853 1598.09,-59.7644 1608.09,-58 1861.57,-13.2956 1929.91,-46.923 2186.09,-22 2202.9,-20.3647 2221.55,-17.9479 2236.9,-15.7959"/>
<polygon fill="midnightblue" stroke="midnightblue" points="2237.54,-19.2405 2246.95,-14.3611 2236.55,-12.3108 2237.54,-19.2405"/>
</g>
<!-- Node34&#45;&gt;Node16 -->
<g id="edge112" class="edge"><title>Node34&#45;&gt;Node16</title>
<path fill="none" stroke="midnightblue" d="M1581.51,-65.4555C1590.16,-62.9128 1599.44,-60.2753 1608.09,-58 1665.34,-42.9408 1732.34,-27.9305 1773.24,-19.0592"/>
<polygon fill="midnightblue" stroke="midnightblue" points="1774.02,-22.472 1783.05,-16.9397 1772.54,-15.6298 1774.02,-22.472"/>
</g>
<!-- Node34&#45;&gt;Node25 -->
<g id="edge114" class="edge"><title>Node34&#45;&gt;Node25</title>
<path fill="none" stroke="midnightblue" d="M1515.39,-65.4333C1506.05,-62.648 1495.73,-59.895 1486.09,-58 1331.31,-27.582 1143.33,-16.2239 1062.81,-12.5457"/>
<polygon fill="midnightblue" stroke="midnightblue" points="1062.77,-9.04066 1052.62,-12.0957 1062.46,-16.0338 1062.77,-9.04066"/>
</g>
<!-- Node35 -->
<g id="node94" class="node"><title>Node35</title>
<polygon fill="white" stroke="#bfbfbf" points="1520.59,-0.5 1520.59,-21.5 1573.59,-21.5 1573.59,-0.5 1520.59,-0.5"/>
<text text-anchor="middle" x="1547.09" y="-8.5" font-family="Helvetica,sans-Serif" font-size="10.00">cxxabi.h</text>
</g>
<!-- Node34&#45;&gt;Node35 -->
<g id="edge118" class="edge"><title>Node34&#45;&gt;Node35</title>
<path fill="none" stroke="midnightblue" d="M1547.09,-65.2666C1547.09,-56.1799 1547.09,-42.8919 1547.09,-31.7395"/>
<polygon fill="midnightblue" stroke="midnightblue" points="1550.59,-31.5337 1547.09,-21.5337 1543.59,-31.5337 1550.59,-31.5337"/>
</g>
<!-- Node43&#45;&gt;Node7 -->
<g id="edge148" class="edge"><title>Node43&#45;&gt;Node7</title>
<path fill="none" stroke="midnightblue" d="M1210.75,-218.508C1386.94,-209.929 2262.92,-167.221 2266.09,-166 2305.5,-150.82 2341.38,-115.715 2360.83,-94.109"/>
<polygon fill="midnightblue" stroke="midnightblue" points="2363.49,-96.3834 2367.46,-86.5588 2358.23,-91.7661 2363.49,-96.3834"/>
</g>
<!-- Node43&#45;&gt;Node8 -->
<g id="edge158" class="edge"><title>Node43&#45;&gt;Node8</title>
<path fill="none" stroke="midnightblue" d="M1210.74,-218.526C1351.38,-211.681 1929.56,-182.631 1964.09,-166 1983.65,-156.582 1981.97,-145.574 1997.09,-130 2029.05,-97.0734 2035,-86.3424 2071.09,-58 2085.76,-46.4774 2103.39,-35.3132 2117.86,-26.759"/>
<polygon fill="midnightblue" stroke="midnightblue" points="2119.97,-29.5844 2126.86,-21.537 2116.45,-23.5305 2119.97,-29.5844"/>
</g>
<!-- Node43&#45;&gt;Node17 -->
<g id="edge164" class="edge"><title>Node43&#45;&gt;Node17</title>
<path fill="none" stroke="midnightblue" d="M1210.74,-214.409C1289.67,-199.546 1505.84,-155.922 1678.09,-94 1680.8,-93.0277 1683.57,-91.9286 1686.32,-90.7648"/>
<polygon fill="midnightblue" stroke="midnightblue" points="1687.8,-93.936 1695.5,-86.6487 1684.94,-87.5495 1687.8,-93.936"/>
</g>
<!-- Node43&#45;&gt;Node18 -->
<g id="edge162" class="edge"><title>Node43&#45;&gt;Node18</title>
<path fill="none" stroke="midnightblue" d="M1210.8,-218.669C1340.13,-212.956 1840.92,-189.726 1997.09,-166 2010.99,-163.889 2026.09,-160.484 2039.08,-157.201"/>
<polygon fill="midnightblue" stroke="midnightblue" points="2040.19,-160.529 2048.98,-154.62 2038.42,-153.755 2040.19,-160.529"/>
</g>
<!-- Node43&#45;&gt;Node23 -->
<g id="edge166" class="edge"><title>Node43&#45;&gt;Node23</title>
<path fill="none" stroke="midnightblue" d="M1149.54,-217.673C1033.29,-208.753 623.793,-176.708 598.092,-166 575.084,-156.414 574.464,-145.683 555.092,-130 539.574,-117.438 521.831,-103.562 508.224,-93.0226"/>
<polygon fill="midnightblue" stroke="midnightblue" points="509.997,-89.9696 499.944,-86.6254 505.717,-95.5089 509.997,-89.9696"/>
</g>
<!-- Node44 -->
<g id="node117" class="node"><title>Node44</title>
<polygon fill="white" stroke="#bfbfbf" points="47.092,-0.5 47.092,-21.5 103.092,-21.5 103.092,-0.5 47.092,-0.5"/>
<text text-anchor="middle" x="75.092" y="-8.5" font-family="Helvetica,sans-Serif" font-size="10.00">Rtypes.h</text>
</g>
<!-- Node43&#45;&gt;Node44 -->
<g id="edge146" class="edge"><title>Node43&#45;&gt;Node44</title>
<path fill="none" stroke="midnightblue" d="M1149.44,-218.273C1040.31,-211.979 671.056,-189.418 555.092,-166 383.873,-131.423 188.059,-56.6265 109.926,-25.2787"/>
<polygon fill="midnightblue" stroke="midnightblue" points="111.142,-21.9949 100.558,-21.5014 108.524,-28.487 111.142,-21.9949"/>
</g>
<!-- Node45 -->
<g id="node120" class="node"><title>Node45</title>
<a xlink:href="time_8h.html" target="_top" xlink:title="base/std_ext/time.h">
<polygon fill="white" stroke="black" points="978.592,-137.5 978.592,-158.5 1081.59,-158.5 1081.59,-137.5 978.592,-137.5"/>
<text text-anchor="middle" x="1030.09" y="-145.5" font-family="Helvetica,sans-Serif" font-size="10.00">base/std_ext/time.h</text>
</a>
</g>
<!-- Node43&#45;&gt;Node45 -->
<g id="edge150" class="edge"><title>Node43&#45;&gt;Node45</title>
<path fill="none" stroke="midnightblue" d="M1157.96,-209.376C1132.48,-197.146 1090.44,-176.965 1061.56,-163.105"/>
<polygon fill="midnightblue" stroke="midnightblue" points="1062.85,-159.839 1052.32,-158.667 1059.82,-166.15 1062.85,-159.839"/>
</g>
<!-- Node47 -->
<g id="node125" class="node"><title>Node47</title>
<polygon fill="white" stroke="#bfbfbf" points="678.592,-65.5 678.592,-86.5 719.592,-86.5 719.592,-65.5 678.592,-65.5"/>
<text text-anchor="middle" x="699.092" y="-73.5" font-family="Helvetica,sans-Serif" font-size="10.00">ctime</text>
</g>
<!-- Node43&#45;&gt;Node47 -->
<g id="edge170" class="edge"><title>Node43&#45;&gt;Node47</title>
<path fill="none" stroke="midnightblue" d="M1149.37,-216.441C1107.06,-210.598 1029.37,-196.435 970.092,-166 947.919,-154.615 949.664,-140.571 927.092,-130 845.696,-91.8797 811.979,-126.27 728.092,-94 726.267,-93.2979 724.43,-92.4777 722.616,-91.5816"/>
<polygon fill="midnightblue" stroke="midnightblue" points="724.31,-88.5191 713.88,-86.6625 720.876,-94.6187 724.31,-88.5191"/>
</g>
<!-- Node48 -->
<g id="node128" class="node"><title>Node48</title>
<polygon fill="white" stroke="#bfbfbf" points="1099.09,-137.5 1099.09,-158.5 1137.09,-158.5 1137.09,-137.5 1099.09,-137.5"/>
<text text-anchor="middle" x="1118.09" y="-145.5" font-family="Helvetica,sans-Serif" font-size="10.00">tuple</text>
</g>
<!-- Node43&#45;&gt;Node48 -->
<g id="edge160" class="edge"><title>Node43&#45;&gt;Node48</title>
<path fill="none" stroke="midnightblue" d="M1170.94,-209.376C1161.24,-198.103 1145.71,-180.075 1134,-166.468"/>
<polygon fill="midnightblue" stroke="midnightblue" points="1136.46,-163.961 1127.28,-158.667 1131.15,-168.529 1136.46,-163.961"/>
</g>
<!-- Node49 -->
<g id="node133" class="node"><title>Node49</title>
<polygon fill="white" stroke="#bfbfbf" points="1155.09,-137.5 1155.09,-158.5 1205.09,-158.5 1205.09,-137.5 1155.09,-137.5"/>
<text text-anchor="middle" x="1180.09" y="-145.5" font-family="Helvetica,sans-Serif" font-size="10.00">iomanip</text>
</g>
<!-- Node43&#45;&gt;Node49 -->
<g id="edge168" class="edge"><title>Node43&#45;&gt;Node49</title>
<path fill="none" stroke="midnightblue" d="M1180.09,-209.376C1180.09,-198.741 1180.09,-182.095 1180.09,-168.82"/>
<polygon fill="midnightblue" stroke="midnightblue" points="1183.59,-168.667 1180.09,-158.667 1176.59,-168.667 1183.59,-168.667"/>
</g>
<!-- Node45&#45;&gt;Node32 -->
<g id="edge152" class="edge"><title>Node45&#45;&gt;Node32</title>
<path fill="none" stroke="midnightblue" d="M1016.96,-137.376C1002.63,-125.784 979.473,-107.05 962.506,-93.324"/>
<polygon fill="midnightblue" stroke="midnightblue" points="964.254,-90.2359 954.278,-86.6674 959.851,-95.678 964.254,-90.2359"/>
</g>
<!-- Node46 -->
<g id="node123" class="node"><title>Node46</title>
<polygon fill="white" stroke="#bfbfbf" points="737.092,-65.5 737.092,-86.5 783.092,-86.5 783.092,-65.5 737.092,-65.5"/>
<text text-anchor="middle" x="760.092" y="-73.5" font-family="Helvetica,sans-Serif" font-size="10.00">cstring</text>
</g>
<!-- Node45&#45;&gt;Node46 -->
<g id="edge154" class="edge"><title>Node45&#45;&gt;Node46</title>
<path fill="none" stroke="midnightblue" d="M993.76,-137.49C984.446,-134.92 974.424,-132.261 965.092,-130 888.764,-111.51 865.627,-121.576 792.092,-94 789.958,-93.1999 787.797,-92.2722 785.656,-91.2681"/>
<polygon fill="midnightblue" stroke="midnightblue" points="787.049,-88.0474 776.562,-86.5367 783.818,-94.2572 787.049,-88.0474"/>
</g>
<!-- Node45&#45;&gt;Node47 -->
<g id="edge156" class="edge"><title>Node45&#45;&gt;Node47</title>
<path fill="none" stroke="midnightblue" d="M994.86,-137.419C985.261,-134.762 974.825,-132.079 965.092,-130 860.901,-107.743 828.06,-130.845 728.092,-94 726.215,-93.3084 724.33,-92.4863 722.47,-91.5801"/>
<polygon fill="midnightblue" stroke="midnightblue" points="723.979,-88.4135 713.547,-86.5636 720.549,-94.5153 723.979,-88.4135"/>
</g>
<!-- Node50&#45;&gt;Node19 -->
<g id="edge180" class="edge"><title>Node50&#45;&gt;Node19</title>
<path fill="none" stroke="midnightblue" d="M1037.65,-289.133C912.069,-281.612 583.205,-260.343 476.092,-238 451.43,-232.856 275.808,-186.448 261.092,-166 209.023,-93.6521 364.314,-39.1091 432.601,-19.2101"/>
<polygon fill="midnightblue" stroke="midnightblue" points="433.731,-22.5275 442.39,-16.4218 431.814,-15.7953 433.731,-22.5275"/>
</g>
<!-- Node50&#45;&gt;Node22 -->
<g id="edge182" class="edge"><title>Node50&#45;&gt;Node22</title>
<path fill="none" stroke="midnightblue" d="M1114.66,-281.447C1141.55,-270.984 1183.49,-254.215 1219.09,-238 1283.85,-208.506 1300.16,-201.04 1362.09,-166 1388.17,-151.245 1391.22,-140.996 1419.09,-130 1498.64,-98.6188 1527.24,-121.84 1608.09,-94 1610.67,-93.1129 1613.29,-92.0655 1615.88,-90.9292"/>
<polygon fill="midnightblue" stroke="midnightblue" points="1617.5,-94.0351 1625,-86.5522 1614.47,-87.7246 1617.5,-94.0351"/>
</g>
<!-- Node50&#45;&gt;Node26 -->
<g id="edge184" class="edge"><title>Node50&#45;&gt;Node26</title>
<path fill="none" stroke="midnightblue" d="M1136.18,-284.253C1156.83,-281.028 1181.12,-277.278 1203.09,-274 1333.57,-254.533 1489.67,-232.609 1552.19,-223.883"/>
<polygon fill="midnightblue" stroke="midnightblue" points="1552.99,-227.305 1562.42,-222.457 1552.03,-220.372 1552.99,-227.305"/>
</g>
<!-- Node50&#45;&gt;Node33 -->
<g id="edge188" class="edge"><title>Node50&#45;&gt;Node33</title>
<path fill="none" stroke="midnightblue" d="M1037.78,-289.518C909.286,-282.733 571.11,-262.721 527.092,-238 453.062,-196.424 409.662,-123.988 463.092,-58 485.923,-29.8028 591.155,-17.8151 647.78,-13.3341"/>
<polygon fill="midnightblue" stroke="midnightblue" points="648.048,-16.8239 657.757,-12.5825 647.522,-9.8437 648.048,-16.8239"/>
</g>
<!-- Node50&#45;&gt;Node42 -->
<g id="edge186" class="edge"><title>Node50&#45;&gt;Node42</title>
<path fill="none" stroke="midnightblue" d="M1072.96,-281.365C1034.36,-252.208 924.151,-168.225 836.092,-94 835.922,-93.857 835.752,-93.7131 835.581,-93.5684"/>
<polygon fill="midnightblue" stroke="midnightblue" points="837.657,-90.7344 827.824,-86.789 833.051,-96.0051 837.657,-90.7344"/>
</g>
<!-- Node52 -->
<g id="node149" class="node"><title>Node52</title>
<a xlink:href="_fit_function_8h.html" target="_top" xlink:title="FitFunction.h">
<polygon fill="white" stroke="black" points="244.092,-209.5 244.092,-230.5 318.092,-230.5 318.092,-209.5 244.092,-209.5"/>
<text text-anchor="middle" x="281.092" y="-217.5" font-family="Helvetica,sans-Serif" font-size="10.00">FitFunction.h</text>
</a>
</g>
<!-- Node51&#45;&gt;Node52 -->
<g id="edge194" class="edge"><title>Node51&#45;&gt;Node52</title>
<path fill="none" stroke="midnightblue" d="M1408.77,-355.691C1288.5,-352.333 994.367,-341.355 750.092,-310 594.221,-289.992 412.058,-250.274 327.986,-231.001"/>
<polygon fill="midnightblue" stroke="midnightblue" points="328.758,-227.587 318.228,-228.755 327.188,-234.409 328.758,-227.587"/>
</g>
<!-- Node52&#45;&gt;Node19 -->
<g id="edge218" class="edge"><title>Node52&#45;&gt;Node19</title>
<path fill="none" stroke="midnightblue" d="M263.453,-209.436C249.579,-200.005 231.274,-184.796 223.092,-166 202.783,-119.344 220.797,-89.073 261.092,-58 287.656,-37.5156 382.562,-21.9515 432.253,-14.9971"/>
<polygon fill="midnightblue" stroke="midnightblue" points="432.983,-18.4299 442.416,-13.6067 432.034,-11.4945 432.983,-18.4299"/>
</g>
<!-- Node52&#45;&gt;Node21 -->
<g id="edge210" class="edge"><title>Node52&#45;&gt;Node21</title>
<path fill="none" stroke="midnightblue" d="M318.357,-213.031C383.326,-200.881 518.148,-175.668 599.507,-160.452"/>
<polygon fill="midnightblue" stroke="midnightblue" points="600.457,-163.835 609.643,-158.557 599.17,-156.955 600.457,-163.835"/>
</g>
<!-- Node52&#45;&gt;Node22 -->
<g id="edge214" class="edge"><title>Node52&#45;&gt;Node22</title>
<path fill="none" stroke="midnightblue" d="M318.289,-219.473C493.367,-216.807 1230.82,-203.426 1326.09,-166 1349.29,-156.886 1346.37,-140.237 1369.09,-130 1467.03,-85.8784 1505.87,-127 1608.09,-94 1610.84,-93.1144 1613.62,-92.0319 1616.37,-90.8414"/>
<polygon fill="midnightblue" stroke="midnightblue" points="1617.91,-93.9868 1625.41,-86.507 1614.88,-87.6749 1617.91,-93.9868"/>
</g>
<!-- Node52&#45;&gt;Node23 -->
<g id="edge216" class="edge"><title>Node52&#45;&gt;Node23</title>
<path fill="none" stroke="midnightblue" d="M285.038,-209.232C292.423,-190.516 310.068,-151.896 337.092,-130 374.191,-99.9411 429.463,-85.8206 461.22,-79.8426"/>
<polygon fill="midnightblue" stroke="midnightblue" points="462.16,-83.2312 471.404,-78.055 460.95,-76.3367 462.16,-83.2312"/>
</g>
<!-- Node52&#45;&gt;Node28 -->
<g id="edge208" class="edge"><title>Node52&#45;&gt;Node28</title>
<path fill="none" stroke="midnightblue" d="M318.206,-219.069C549.656,-213.222 1787.73,-181.319 1866.09,-166 1871.19,-165.004 1876.45,-163.553 1881.56,-161.899"/>
<polygon fill="midnightblue" stroke="midnightblue" points="1882.84,-165.162 1891.1,-158.538 1880.51,-158.56 1882.84,-165.162"/>
</g>
<!-- Node52&#45;&gt;Node44 -->
<g id="edge212" class="edge"><title>Node52&#45;&gt;Node44</title>
<path fill="none" stroke="midnightblue" d="M243.809,-216.971C199.909,-211.979 126.136,-199.023 72.092,-166 24.4816,-136.908 -17.65,-107.502 8.09199,-58 15.1078,-44.5087 27.9674,-34.0833 40.5585,-26.5183"/>
<polygon fill="midnightblue" stroke="midnightblue" points="42.5416,-29.4209 49.592,-21.5125 39.1487,-23.2982 42.5416,-29.4209"/>
</g>
<!-- Node53 -->
<g id="node151" class="node"><title>Node53</title>
<a xlink:href="_knobs_t_f1_8h.html" target="_top" xlink:title="KnobsTF1.h">
<polygon fill="white" stroke="black" points="101.092,-137.5 101.092,-158.5 171.092,-158.5 171.092,-137.5 101.092,-137.5"/>
<text text-anchor="middle" x="136.092" y="-145.5" font-family="Helvetica,sans-Serif" font-size="10.00">KnobsTF1.h</text>
</a>
</g>
<!-- Node52&#45;&gt;Node53 -->
<g id="edge196" class="edge"><title>Node52&#45;&gt;Node53</title>
<path fill="none" stroke="midnightblue" d="M259.697,-209.376C235.173,-197.199 194.778,-177.141 166.877,-163.286"/>
<polygon fill="midnightblue" stroke="midnightblue" points="168.088,-159.98 157.575,-158.667 164.975,-166.25 168.088,-159.98"/>
</g>
<!-- Node54 -->
<g id="node153" class="node"><title>Node54</title>
<a xlink:href="_indicator__traits_8h.html" target="_top" xlink:title="calibration/gui/Indicator\l_traits.h">
<polygon fill="white" stroke="black" points="16.592,-59 16.592,-93 133.592,-93 133.592,-59 16.592,-59"/>
<text text-anchor="start" x="24.592" y="-80" font-family="Helvetica,sans-Serif" font-size="10.00">calibration/gui/Indicator</text>
<text text-anchor="middle" x="75.092" y="-67" font-family="Helvetica,sans-Serif" font-size="10.00">_traits.h</text>
</a>
</g>
<!-- Node52&#45;&gt;Node54 -->
<g id="edge206" class="edge"><title>Node52&#45;&gt;Node54</title>
<path fill="none" stroke="midnightblue" d="M244.02,-214.121C195.005,-205.584 112.447,-188.311 92.092,-166 76.8098,-149.25 73.2778,-123.236 73.1476,-103.476"/>
<polygon fill="midnightblue" stroke="midnightblue" points="76.6519,-103.314 73.3721,-93.2399 69.6535,-103.161 76.6519,-103.314"/>
</g>
<!-- Node53&#45;&gt;Node19 -->
<g id="edge202" class="edge"><title>Node53&#45;&gt;Node19</title>
<path fill="none" stroke="midnightblue" d="M138.615,-137.358C143.77,-118.123 157.433,-77.7397 185.092,-58 224.356,-29.9775 367.949,-17.2448 431.948,-12.869"/>
<polygon fill="midnightblue" stroke="midnightblue" points="432.473,-16.3421 442.221,-12.1921 432.012,-9.35729 432.473,-16.3421"/>
</g>
<!-- Node53&#45;&gt;Node25 -->
<g id="edge204" class="edge"><title>Node53&#45;&gt;Node25</title>
<path fill="none" stroke="midnightblue" d="M167.216,-137.352C224.839,-118.107 352.368,-77.7089 463.092,-58 656.164,-23.633 891.283,-14.2587 983.393,-11.8171"/>
<polygon fill="midnightblue" stroke="midnightblue" points="983.487,-15.316 993.395,-11.5647 983.31,-8.3182 983.487,-15.316"/>
</g>
<!-- Node53&#45;&gt;Node54 -->
<g id="edge198" class="edge"><title>Node53&#45;&gt;Node54</title>
<path fill="none" stroke="midnightblue" d="M127.091,-137.376C118.99,-127.814 106.771,-113.391 96.2129,-100.93"/>
<polygon fill="midnightblue" stroke="midnightblue" points="98.7094,-98.4618 89.5747,-93.0944 93.3685,-102.987 98.7094,-98.4618"/>
</g>
<!-- Node54&#45;&gt;Node44 -->
<g id="edge200" class="edge"><title>Node54&#45;&gt;Node44</title>
<path fill="none" stroke="midnightblue" d="M75.092,-58.922C75.092,-50.6704 75.092,-40.6922 75.092,-31.9818"/>
<polygon fill="midnightblue" stroke="midnightblue" points="78.5921,-31.8521 75.092,-21.8521 71.5921,-31.8521 78.5921,-31.8521"/>
</g>
<!-- Node55&#45;&gt;Node52 -->
<g id="edge232" class="edge"><title>Node55&#45;&gt;Node52</title>
<path fill="none" stroke="midnightblue" d="M268.286,-404.778C270.843,-367.88 276.843,-281.3 279.627,-241.143"/>
<polygon fill="midnightblue" stroke="midnightblue" points="283.136,-241.132 280.336,-230.914 276.152,-240.648 283.136,-241.132"/>
</g>
<!-- Node56&#45;&gt;Node6 -->
<g id="edge236" class="edge"><title>Node56&#45;&gt;Node6</title>
<path fill="none" stroke="midnightblue" d="M2299.47,-534.762C2314.38,-526.052 2329.76,-513.902 2338.09,-498 2342.63,-489.339 2340.5,-485.477 2338.09,-476 2313.56,-379.39 2244.41,-279.798 2213.89,-239.08"/>
<polygon fill="midnightblue" stroke="midnightblue" points="2216.49,-236.727 2207.66,-230.879 2210.92,-240.96 2216.49,-236.727"/>
</g>
<!-- Node56&#45;&gt;Node14 -->
<g id="edge276" class="edge"><title>Node56&#45;&gt;Node14</title>
<path fill="none" stroke="midnightblue" d="M2305.43,-534.915C2368.5,-509.713 2475.09,-461.312 2475.09,-422 2475.09,-422 2475.09,-422 2475.09,-220 2475.09,-154.545 2255.15,-100.244 2173.3,-82.3027"/>
<polygon fill="midnightblue" stroke="midnightblue" points="2173.87,-78.8466 2163.36,-80.1551 2172.4,-85.6886 2173.87,-78.8466"/>
</g>
<!-- Node57 -->
<g id="node176" class="node"><title>Node57</title>
<a xlink:href="_unpacker_acqu_8h.html" target="_top" xlink:title="unpacker/UnpackerAcqu.h">
<polygon fill="white" stroke="black" points="1940.09,-476.5 1940.09,-497.5 2072.09,-497.5 2072.09,-476.5 1940.09,-476.5"/>
<text text-anchor="middle" x="2006.09" y="-484.5" font-family="Helvetica,sans-Serif" font-size="10.00">unpacker/UnpackerAcqu.h</text>
</a>
</g>
<!-- Node56&#45;&gt;Node57 -->
<g id="edge238" class="edge"><title>Node56&#45;&gt;Node57</title>
<path fill="none" stroke="midnightblue" d="M2209,-538.924C2164.91,-527.643 2101.56,-511.431 2057.41,-500.133"/>
<polygon fill="midnightblue" stroke="midnightblue" points="2058.02,-496.675 2047.46,-497.587 2056.28,-503.457 2058.02,-496.675"/>
</g>
<!-- Node60 -->
<g id="node199" class="node"><title>Node60</title>
<polygon fill="white" stroke="#bfbfbf" points="2280.59,-476.5 2280.59,-497.5 2329.59,-497.5 2329.59,-476.5 2280.59,-476.5"/>
<text text-anchor="middle" x="2305.09" y="-484.5" font-family="Helvetica,sans-Serif" font-size="10.00">cassert</text>
</g>
<!-- Node56&#45;&gt;Node60 -->
<g id="edge278" class="edge"><title>Node56&#45;&gt;Node60</title>
<path fill="none" stroke="midnightblue" d="M2271.92,-534.922C2278.01,-526.12 2285.46,-515.354 2291.76,-506.258"/>
<polygon fill="midnightblue" stroke="midnightblue" points="2294.76,-508.066 2297.58,-497.852 2289.01,-504.082 2294.76,-508.066"/>
</g>
<!-- Node61 -->
<g id="node201" class="node"><title>Node61</title>
<polygon fill="white" stroke="#bfbfbf" points="2209.09,-476.5 2209.09,-497.5 2263.09,-497.5 2263.09,-476.5 2209.09,-476.5"/>
<text text-anchor="middle" x="2236.09" y="-484.5" font-family="Helvetica,sans-Serif" font-size="10.00">iostream</text>
</g>
<!-- Node56&#45;&gt;Node61 -->
<g id="edge280" class="edge"><title>Node56&#45;&gt;Node61</title>
<path fill="none" stroke="midnightblue" d="M2253.79,-534.922C2250.67,-526.487 2246.89,-516.248 2243.63,-507.403"/>
<polygon fill="midnightblue" stroke="midnightblue" points="2246.85,-506.021 2240.1,-497.852 2240.28,-508.445 2246.85,-506.021"/>
</g>
<!-- Node57&#45;&gt;Node6 -->
<g id="edge262" class="edge"><title>Node57&#45;&gt;Node6</title>
<path fill="none" stroke="midnightblue" d="M2056.94,-476.47C2094.02,-467.771 2139.99,-454.526 2153.09,-440 2204.42,-383.071 2204.06,-283.966 2201.12,-240.936"/>
<polygon fill="midnightblue" stroke="midnightblue" points="2204.59,-240.5 2200.3,-230.814 2197.61,-241.063 2204.59,-240.5"/>
</g>
<!-- Node57&#45;&gt;Node14 -->
<g id="edge274" class="edge"><title>Node57&#45;&gt;Node14</title>
<path fill="none" stroke="midnightblue" d="M2013.27,-476.165C2019.19,-466.869 2027.5,-452.96 2033.09,-440 2087.42,-314.135 2125.99,-152.959 2138.62,-96.5741"/>
<polygon fill="midnightblue" stroke="midnightblue" points="2142.05,-97.2559 2140.79,-86.7358 2135.22,-95.7433 2142.05,-97.2559"/>
</g>
<!-- Node57&#45;&gt;Node15 -->
<g id="edge270" class="edge"><title>Node57&#45;&gt;Node15</title>
<path fill="none" stroke="midnightblue" d="M2072.31,-477.183C2208.43,-452.955 2516.89,-376.227 2636.09,-166 2645.98,-148.558 2638.08,-72.0835 2629.09,-58 2618.08,-40.749 2598.29,-29.0442 2581.15,-21.6297"/>
<polygon fill="midnightblue" stroke="midnightblue" points="2582.03,-18.2145 2571.45,-17.7505 2579.43,-24.7139 2582.03,-18.2145"/>
</g>
<!-- Node57&#45;&gt;Node18 -->
<g id="edge272" class="edge"><title>Node57&#45;&gt;Node18</title>
<path fill="none" stroke="midnightblue" d="M2008.14,-476.483C2017.4,-428.935 2055.43,-233.589 2068.02,-168.908"/>
<polygon fill="midnightblue" stroke="midnightblue" points="2071.53,-169.215 2070,-158.731 2064.66,-167.877 2071.53,-169.215"/>
</g>
<!-- Node57&#45;&gt;Node22 -->
<g id="edge264" class="edge"><title>Node57&#45;&gt;Node22</title>
<path fill="none" stroke="midnightblue" d="M2001.56,-476.279C1983.59,-434.94 1913.2,-284.115 1810.09,-202 1776.07,-174.904 1754.41,-191.382 1719.09,-166 1692,-146.528 1668.57,-115.318 1655.14,-95.2419"/>
<polygon fill="midnightblue" stroke="midnightblue" points="1657.92,-93.1046 1649.53,-86.6322 1652.06,-96.9227 1657.92,-93.1046"/>
</g>
<!-- Node57&#45;&gt;Node23 -->
<g id="edge266" class="edge"><title>Node57&#45;&gt;Node23</title>
<path fill="none" stroke="midnightblue" d="M1939.94,-483.566C1631.67,-467.354 351.092,-397.564 351.092,-357 351.092,-357 351.092,-357 351.092,-220 351.092,-155.712 423.59,-108.316 462.33,-87.5779"/>
<polygon fill="midnightblue" stroke="midnightblue" points="464.118,-90.5936 471.388,-82.886 460.898,-84.3781 464.118,-90.5936"/>
</g>
<!-- Node57&#45;&gt;Node26 -->
<g id="edge268" class="edge"><title>Node57&#45;&gt;Node26</title>
<path fill="none" stroke="midnightblue" d="M1939.9,-484.49C1796.69,-477.495 1465.73,-452.354 1400.09,-368 1394.09,-360.283 1395.58,-354.673 1400.09,-346 1432.48,-283.799 1511.18,-245.955 1552.97,-229.563"/>
<polygon fill="midnightblue" stroke="midnightblue" points="1554.4,-232.764 1562.51,-225.944 1551.92,-226.219 1554.4,-232.764"/>
</g>
<!-- Node58 -->
<g id="node178" class="node"><title>Node58</title>
<a xlink:href="_unpacker_8h.html" target="_top" xlink:title="Unpacker.h">
<polygon fill="white" stroke="black" points="780.592,-137.5 780.592,-158.5 847.592,-158.5 847.592,-137.5 780.592,-137.5"/>
<text text-anchor="middle" x="814.092" y="-145.5" font-family="Helvetica,sans-Serif" font-size="10.00">Unpacker.h</text>
</a>
</g>
<!-- Node57&#45;&gt;Node58 -->
<g id="edge240" class="edge"><title>Node57&#45;&gt;Node58</title>
<path fill="none" stroke="midnightblue" d="M1939.91,-483.18C1813.72,-475.6 1543.05,-457.844 1451.09,-440 1258.43,-402.616 1203.86,-399.279 1029.09,-310 949.332,-269.256 868.506,-198.732 832.904,-165.845"/>
<polygon fill="midnightblue" stroke="midnightblue" points="834.939,-162.956 825.238,-158.696 830.165,-168.076 834.939,-162.956"/>
</g>
<!-- Node59 -->
<g id="node182" class="node"><title>Node59</title>
<a xlink:href="_exp_config_8h.html" target="_top" xlink:title="expconfig/ExpConfig.h">
<polygon fill="white" stroke="black" points="1805.09,-411.5 1805.09,-432.5 1921.09,-432.5 1921.09,-411.5 1805.09,-411.5"/>
<text text-anchor="middle" x="1863.09" y="-419.5" font-family="Helvetica,sans-Serif" font-size="10.00">expconfig/ExpConfig.h</text>
</a>
</g>
<!-- Node57&#45;&gt;Node59 -->
<g id="edge246" class="edge"><title>Node57&#45;&gt;Node59</title>
<path fill="none" stroke="midnightblue" d="M1982.8,-476.412C1959.12,-465.647 1922.22,-448.878 1895.65,-436.801"/>
<polygon fill="midnightblue" stroke="midnightblue" points="1896.93,-433.535 1886.38,-432.584 1894.03,-439.908 1896.93,-433.535"/>
</g>
<!-- Node58&#45;&gt;Node19 -->
<g id="edge242" class="edge"><title>Node58&#45;&gt;Node19</title>
<path fill="none" stroke="midnightblue" d="M787.902,-137.462C781.166,-134.892 773.898,-132.24 767.092,-130 710.145,-111.258 690.897,-120.445 637.092,-94 613.16,-82.2373 612.491,-70.7909 589.092,-58 558.166,-41.0943 519.899,-27.7833 493.703,-19.7062"/>
<polygon fill="midnightblue" stroke="midnightblue" points="494.539,-16.3027 483.954,-16.7702 492.52,-23.0053 494.539,-16.3027"/>
</g>
<!-- Node58&#45;&gt;Node22 -->
<g id="edge244" class="edge"><title>Node58&#45;&gt;Node22</title>
<path fill="none" stroke="midnightblue" d="M847.813,-143.532C879.37,-139.488 927.853,-133.625 970.092,-130 1111.58,-117.856 1471.07,-131.286 1608.09,-94 1610.94,-93.2263 1613.81,-92.2024 1616.64,-91.0347"/>
<polygon fill="midnightblue" stroke="midnightblue" points="1618.33,-94.1051 1625.87,-86.6645 1615.34,-87.7776 1618.33,-94.1051"/>
</g>
<!-- Node59&#45;&gt;Node4 -->
<g id="edge252" class="edge"><title>Node59&#45;&gt;Node4</title>
<path fill="none" stroke="midnightblue" d="M1831.98,-411.412C1799.51,-400.364 1748.47,-382.991 1712.81,-370.857"/>
<polygon fill="midnightblue" stroke="midnightblue" points="1713.79,-367.492 1703.19,-367.584 1711.53,-374.119 1713.79,-367.492"/>
</g>
<!-- Node59&#45;&gt;Node5 -->
<g id="edge250" class="edge"><title>Node59&#45;&gt;Node5</title>
<path fill="none" stroke="midnightblue" d="M1857.04,-411.251C1848.11,-395.884 1830.36,-367.156 1811.09,-346 1801.08,-335.003 1788.8,-324.247 1777.62,-315.265"/>
<polygon fill="midnightblue" stroke="midnightblue" points="1779.75,-312.487 1769.72,-309.061 1775.42,-317.991 1779.75,-312.487"/>
</g>
<!-- Node59&#45;&gt;Node6 -->
<g id="edge248" class="edge"><title>Node59&#45;&gt;Node6</title>
<path fill="none" stroke="midnightblue" d="M1897.42,-411.443C1926.06,-401.967 1967.48,-386.69 2001.09,-368 2071.63,-328.78 2145.39,-267.313 2179.56,-237.451"/>
<polygon fill="midnightblue" stroke="midnightblue" points="2182.18,-239.808 2187.37,-230.573 2177.56,-234.555 2182.18,-239.808"/>
</g>
<!-- Node59&#45;&gt;Node7 -->
<g id="edge254" class="edge"><title>Node59&#45;&gt;Node7</title>
<path fill="none" stroke="midnightblue" d="M1904.66,-411.456C1939.45,-401.988 1990.02,-386.715 2032.09,-368 2189.21,-298.111 2269.82,-311.108 2362.09,-166 2375.36,-145.141 2377.64,-116.199 2377.41,-96.8219"/>
<polygon fill="midnightblue" stroke="midnightblue" points="2380.9,-96.5208 2377.05,-86.6521 2373.91,-96.7706 2380.9,-96.5208"/>
</g>
<!-- Node59&#45;&gt;Node22 -->
<g id="edge256" class="edge"><title>Node59&#45;&gt;Node22</title>
<path fill="none" stroke="midnightblue" d="M1863,-411.266C1862.15,-384.121 1856.04,-312.189 1816.09,-274 1771.52,-231.387 1728.49,-278.627 1682.09,-238 1641.25,-202.23 1639.33,-131.832 1641.22,-96.8088"/>
<polygon fill="midnightblue" stroke="midnightblue" points="1644.71,-96.9889 1641.92,-86.7693 1637.73,-96.501 1644.71,-96.9889"/>
</g>
<!-- Node59&#45;&gt;Node23 -->
<g id="edge258" class="edge"><title>Node59&#45;&gt;Node23</title>
<path fill="none" stroke="midnightblue" d="M1806.48,-411.486C1753.82,-401.401 1673.3,-385.204 1604.09,-368 1569.97,-359.516 1562.71,-352.188 1528.09,-346 1309.21,-306.871 1250.17,-333.799 1029.09,-310 973.067,-303.969 575.57,-266.723 527.092,-238 492.679,-217.611 485.741,-203.947 473.092,-166 465.335,-142.73 471.783,-114.555 478.05,-95.9995"/>
<polygon fill="midnightblue" stroke="midnightblue" points="481.363,-97.1283 481.516,-86.5346 474.79,-94.7213 481.363,-97.1283"/>
</g>
<!-- Node59&#45;&gt;Node26 -->
<g id="edge260" class="edge"><title>Node59&#45;&gt;Node26</title>
<path fill="none" stroke="midnightblue" d="M1846.51,-411.455C1823.01,-396.576 1778.58,-368.701 1740.09,-346 1711.98,-329.419 1702.41,-329.3 1676.09,-310 1645.95,-287.894 1615.12,-257.279 1596.8,-238.063"/>
<polygon fill="midnightblue" stroke="midnightblue" points="1599.15,-235.461 1589.75,-230.584 1594.06,-240.262 1599.15,-235.461"/>
</g>
<!-- Node63 -->
<g id="node205" class="node"><title>Node63</title>
<polygon fill="white" stroke="#bfbfbf" points="2502.59,-476.5 2502.59,-497.5 2617.59,-497.5 2617.59,-476.5 2502.59,-476.5"/>
<text text-anchor="middle" x="2560.09" y="-484.5" font-family="Helvetica,sans-Serif" font-size="10.00">detail/easylogging++.h</text>
</g>
<!-- Node62&#45;&gt;Node63 -->
<g id="edge284" class="edge"><title>Node62&#45;&gt;Node63</title>
<path fill="none" stroke="midnightblue" d="M2395.68,-541.42C2402.35,-538.93 2409.46,-536.326 2416.09,-534 2449.73,-522.211 2488.1,-509.733 2516.78,-500.598"/>
<polygon fill="midnightblue" stroke="midnightblue" points="2518.02,-503.876 2526.49,-497.513 2515.9,-497.204 2518.02,-503.876"/>
</g>
</g>
</svg>
