<?xml version="1.0" encoding="UTF-8" standalone="no"?>
<!DOCTYPE svg PUBLIC "-//W3C//DTD SVG 1.1//EN"
 "http://www.w3.org/Graphics/SVG/1.1/DTD/svg11.dtd">
<!-- Generated by graphviz version 2.26.3 (20100126.1600)
 -->
<!-- Title: src/calibration/modules/TAPS_ShowerCorrection.h Pages: 1 -->
<svg width="536pt" height="116pt"
 viewBox="0.00 0.00 536.00 116.00" xmlns="http://www.w3.org/2000/svg" xmlns:xlink="http://www.w3.org/1999/xlink">
<g id="graph1" class="graph" transform="scale(1 1) rotate(0) translate(4 112)">
<title>src/calibration/modules/TAPS_ShowerCorrection.h</title>
<polygon fill="white" stroke="white" points="-4,5 -4,-112 533,-112 533,5 -4,5"/>
<!-- Node1 -->
<g id="node1" class="node"><title>Node1</title>
<polygon fill="#bfbfbf" stroke="black" points="183.5,-73 183.5,-107 320.5,-107 320.5,-73 183.5,-73"/>
<text text-anchor="start" x="191.5" y="-94" font-family="Helvetica,sans-Serif" font-size="10.00">src/calibration/modules</text>
<text text-anchor="middle" x="252" y="-81" font-family="Helvetica,sans-Serif" font-size="10.00">/TAPS_ShowerCorrection.h</text>
</g>
<!-- Node2 -->
<g id="node3" class="node"><title>Node2</title>
<a xlink:href="_setup__2007___base_8cc.html" target="_top" xlink:title="src/expconfig/setups\l/Setup_2007_Base.cc">
<polygon fill="white" stroke="black" points="-0.5,-1 -0.5,-35 112.5,-35 112.5,-1 -0.5,-1"/>
<text text-anchor="start" x="7.5" y="-22" font-family="Helvetica,sans-Serif" font-size="10.00">src/expconfig/setups</text>
<text text-anchor="middle" x="56" y="-9" font-family="Helvetica,sans-Serif" font-size="10.00">/Setup_2007_Base.cc</text>
</a>
</g>
<!-- Node1&#45;&gt;Node2 -->
<g id="edge2" class="edge"><title>Node1&#45;&gt;Node2</title>
<path fill="none" stroke="midnightblue" d="M195.786,-69.3498C166.226,-58.4911 130.425,-45.3399 102.455,-35.0651"/>
<polygon fill="midnightblue" stroke="midnightblue" points="194.957,-72.7741 205.551,-72.937 197.371,-66.2034 194.957,-72.7741"/>
</g>
<!-- Node3 -->
<g id="node5" class="node"><title>Node3</title>
<a xlink:href="_setup__2014___e_p_t_8cc.html" target="_top" xlink:title="src/expconfig/setups\l/Setup_2014_EPT.cc">
<polygon fill="white" stroke="black" points="130,-1 130,-35 240,-35 240,-1 130,-1"/>
<text text-anchor="start" x="138" y="-22" font-family="Helvetica,sans-Serif" font-size="10.00">src/expconfig/setups</text>
<text text-anchor="middle" x="185" y="-9" font-family="Helvetica,sans-Serif" font-size="10.00">/Setup_2014_EPT.cc</text>
</a>
</g>
<!-- Node1&#45;&gt;Node3 -->
<g id="edge4" class="edge"><title>Node1&#45;&gt;Node3</title>
<path fill="none" stroke="midnightblue" d="M229.088,-65.3785C219.928,-55.5349 209.591,-44.4262 201.23,-35.4407"/>
<polygon fill="midnightblue" stroke="midnightblue" points="226.747,-68.0006 236.122,-72.937 231.872,-63.232 226.747,-68.0006"/>
</g>
<!-- Node4 -->
<g id="node7" class="node"><title>Node4</title>
<a xlink:href="_setup__2015__01___pion_8cc.html" target="_top" xlink:title="src/expconfig/setups\l/Setup_2015_01_Pion.cc">
<polygon fill="white" stroke="black" points="257.5,-1 257.5,-35 382.5,-35 382.5,-1 257.5,-1"/>
<text text-anchor="start" x="265.5" y="-22" font-family="Helvetica,sans-Serif" font-size="10.00">src/expconfig/setups</text>
<text text-anchor="middle" x="320" y="-9" font-family="Helvetica,sans-Serif" font-size="10.00">/Setup_2015_01_Pion.cc</text>
</a>
</g>
<!-- Node1&#45;&gt;Node4 -->
<g id="edge6" class="edge"><title>Node1&#45;&gt;Node4</title>
<path fill="none" stroke="midnightblue" d="M275.254,-65.3785C284.55,-55.5349 295.042,-44.4262 303.528,-35.4407"/>
<polygon fill="midnightblue" stroke="midnightblue" points="272.437,-63.2637 268.115,-72.937 277.526,-68.07 272.437,-63.2637"/>
</g>
<!-- Node5 -->
<g id="node9" class="node"><title>Node5</title>
<a xlink:href="expconfig__helpers_8cc.html" target="_top" xlink:title="test/expconfig_helpers.cc">
<polygon fill="white" stroke="black" points="400,-7.5 400,-28.5 528,-28.5 528,-7.5 400,-7.5"/>
<text text-anchor="middle" x="464" y="-15.5" font-family="Helvetica,sans-Serif" font-size="10.00">test/expconfig_helpers.cc</text>
</a>
</g>
<!-- Node1&#45;&gt;Node5 -->
<g id="edge8" class="edge"><title>Node1&#45;&gt;Node5</title>
<path fill="none" stroke="midnightblue" d="M312.001,-69.6223C351.348,-56.2593 401.185,-39.3334 432.841,-28.5821"/>
<polygon fill="midnightblue" stroke="midnightblue" points="310.584,-66.407 302.241,-72.937 312.835,-73.0352 310.584,-66.407"/>
</g>
</g>
</svg>
