<?xml version="1.0" encoding="UTF-8" standalone="no"?>
<!DOCTYPE svg PUBLIC "-//W3C//DTD SVG 1.1//EN"
 "http://www.w3.org/Graphics/SVG/1.1/DTD/svg11.dtd">
<!-- Generated by graphviz version 2.26.3 (20100126.1600)
 -->
<!-- Title: src/calibration/modules/TAPS_ToF.cc Pages: 1 -->
<svg width="3215pt" height="636pt"
 viewBox="0.00 0.00 3215.23 636.00" xmlns="http://www.w3.org/2000/svg" xmlns:xlink="http://www.w3.org/1999/xlink">
<g id="graph1" class="graph" transform="scale(1 1) rotate(0) translate(4 632)">
<title>src/calibration/modules/TAPS_ToF.cc</title>
<polygon fill="white" stroke="white" points="-4,5 -4,-632 3212.23,-632 3212.23,5 -4,5"/>
<!-- Node1 -->
<g id="node1" class="node"><title>Node1</title>
<polygon fill="#bfbfbf" stroke="black" points="1644.73,-593 1644.73,-627 1761.73,-627 1761.73,-593 1644.73,-593"/>
<text text-anchor="start" x="1652.73" y="-614" font-family="Helvetica,sans-Serif" font-size="10.00">src/calibration/modules</text>
<text text-anchor="middle" x="1703.23" y="-601" font-family="Helvetica,sans-Serif" font-size="10.00">/TAPS_ToF.cc</text>
</g>
<!-- Node2 -->
<g id="node3" class="node"><title>Node2</title>
<a xlink:href="_t_a_p_s___to_f_8h.html" target="_top" xlink:title="TAPS_ToF.h">
<polygon fill="white" stroke="black" points="2073.23,-404.5 2073.23,-425.5 2147.23,-425.5 2147.23,-404.5 2073.23,-404.5"/>
<text text-anchor="middle" x="2110.23" y="-412.5" font-family="Helvetica,sans-Serif" font-size="10.00">TAPS_ToF.h</text>
</a>
</g>
<!-- Node1&#45;&gt;Node2 -->
<g id="edge2" class="edge"><title>Node1&#45;&gt;Node2</title>
<path fill="none" stroke="midnightblue" d="M1701.05,-592.759C1698.17,-561.55 1697.19,-495.802 1734.23,-462 1785.62,-415.099 1976.35,-435.808 2045.23,-426 2051.04,-425.173 2057.12,-424.236 2063.15,-423.267"/>
<polygon fill="midnightblue" stroke="midnightblue" points="2063.86,-426.697 2073.16,-421.618 2062.72,-419.79 2063.86,-426.697"/>
</g>
<!-- Node17 -->
<g id="node36" class="node"><title>Node17</title>
<polygon fill="white" stroke="#bfbfbf" points="1099.23,-137.5 1099.23,-158.5 1145.23,-158.5 1145.23,-137.5 1099.23,-137.5"/>
<text text-anchor="middle" x="1122.23" y="-145.5" font-family="Helvetica,sans-Serif" font-size="10.00">cstdint</text>
</g>
<!-- Node1&#45;&gt;Node17 -->
<g id="edge324" class="edge"><title>Node1&#45;&gt;Node17</title>
<path fill="none" stroke="midnightblue" d="M1644.6,-603.85C1484.58,-586.281 1052.23,-533.239 1052.23,-473 1052.23,-473 1052.23,-473 1052.23,-292 1052.23,-242.801 1085.69,-192.8 1106.34,-166.623"/>
<polygon fill="midnightblue" stroke="midnightblue" points="1109.2,-168.662 1112.79,-158.695 1103.76,-164.246 1109.2,-168.662"/>
</g>
<!-- Node50 -->
<g id="node149" class="node"><title>Node50</title>
<a xlink:href="_cal_canvas_8h.html" target="_top" xlink:title="calibration/gui/CalCanvas.h">
<polygon fill="white" stroke="black" points="314.729,-281.5 314.729,-302.5 451.729,-302.5 451.729,-281.5 314.729,-281.5"/>
<text text-anchor="middle" x="383.229" y="-289.5" font-family="Helvetica,sans-Serif" font-size="10.00">calibration/gui/CalCanvas.h</text>
</a>
</g>
<!-- Node1&#45;&gt;Node50 -->
<g id="edge198" class="edge"><title>Node1&#45;&gt;Node50</title>
<path fill="none" stroke="midnightblue" d="M1644.58,-607.76C1367.99,-596.817 207.229,-546.516 207.229,-473 207.229,-473 207.229,-473 207.229,-415 207.229,-355.114 276.535,-321.952 328.165,-305.557"/>
<polygon fill="midnightblue" stroke="midnightblue" points="329.357,-308.853 337.904,-302.593 327.319,-302.156 329.357,-308.853"/>
</g>
<!-- Node56 -->
<g id="node176" class="node"><title>Node56</title>
<a xlink:href="_fit_landau_pol0_8h.html" target="_top" xlink:title="fitfunctions/FitLandauPol0.h">
<polygon fill="white" stroke="black" points="522.229,-346.5 522.229,-367.5 660.229,-367.5 660.229,-346.5 522.229,-346.5"/>
<text text-anchor="middle" x="591.229" y="-354.5" font-family="Helvetica,sans-Serif" font-size="10.00">fitfunctions/FitLandauPol0.h</text>
</a>
</g>
<!-- Node1&#45;&gt;Node56 -->
<g id="edge240" class="edge"><title>Node1&#45;&gt;Node56</title>
<path fill="none" stroke="midnightblue" d="M1644.69,-608.249C1499.39,-603.459 1125.32,-588.286 1005.23,-556 848.469,-513.855 679.258,-412.92 616.502,-373.33"/>
<polygon fill="midnightblue" stroke="midnightblue" points="618.012,-370.142 607.695,-367.734 614.258,-376.051 618.012,-370.142"/>
</g>
<!-- Node57 -->
<g id="node179" class="node"><title>Node57</title>
<a xlink:href="_data_manager_8h.html" target="_top" xlink:title="DataManager.h">
<polygon fill="white" stroke="black" points="941.729,-404.5 941.729,-425.5 1024.73,-425.5 1024.73,-404.5 941.729,-404.5"/>
<text text-anchor="middle" x="983.229" y="-412.5" font-family="Helvetica,sans-Serif" font-size="10.00">DataManager.h</text>
</a>
</g>
<!-- Node1&#45;&gt;Node57 -->
<g id="edge244" class="edge"><title>Node1&#45;&gt;Node57</title>
<path fill="none" stroke="midnightblue" d="M1644.47,-608.75C1490.94,-604.993 1086.28,-591.774 1038.23,-556 999.748,-527.352 988.18,-467.848 984.71,-436.072"/>
<polygon fill="midnightblue" stroke="midnightblue" points="988.16,-435.368 983.763,-425.729 981.19,-436.006 988.16,-435.368"/>
</g>
<!-- Node58 -->
<g id="node185" class="node"><title>Node58</title>
<a xlink:href="_t_calibration_data_8h.html" target="_top" xlink:title="tree/TCalibrationData.h">
<polygon fill="white" stroke="black" points="72.2288,-281.5 72.2288,-302.5 190.229,-302.5 190.229,-281.5 72.2288,-281.5"/>
<text text-anchor="middle" x="131.229" y="-289.5" font-family="Helvetica,sans-Serif" font-size="10.00">tree/TCalibrationData.h</text>
</a>
</g>
<!-- Node1&#45;&gt;Node58 -->
<g id="edge254" class="edge"><title>Node1&#45;&gt;Node58</title>
<path fill="none" stroke="midnightblue" d="M1644.43,-608.597C1405.4,-602.757 513.37,-579.574 389.229,-556 278.758,-535.022 150.229,-585.445 150.229,-473 150.229,-473 150.229,-473 150.229,-415 150.229,-378.649 142.023,-336.956 136.397,-312.64"/>
<polygon fill="midnightblue" stroke="midnightblue" points="139.767,-311.682 134.032,-302.773 132.959,-313.313 139.767,-311.682"/>
</g>
<!-- Node60 -->
<g id="node193" class="node"><title>Node60</title>
<a xlink:href="_t_a_p_s_8h.html" target="_top" xlink:title="expconfig/detectors\l/TAPS.h">
<polygon fill="white" stroke="black" points="1731.23,-521 1731.23,-555 1833.23,-555 1833.23,-521 1731.23,-521"/>
<text text-anchor="start" x="1739.23" y="-542" font-family="Helvetica,sans-Serif" font-size="10.00">expconfig/detectors</text>
<text text-anchor="middle" x="1782.23" y="-529" font-family="Helvetica,sans-Serif" font-size="10.00">/TAPS.h</text>
</a>
</g>
<!-- Node1&#45;&gt;Node60 -->
<g id="edge266" class="edge"><title>Node1&#45;&gt;Node60</title>
<path fill="none" stroke="midnightblue" d="M1721.95,-592.937C1732.11,-583.679 1744.83,-572.086 1755.96,-561.938"/>
<polygon fill="midnightblue" stroke="midnightblue" points="1758.33,-564.513 1763.37,-555.19 1753.62,-559.339 1758.33,-564.513"/>
</g>
<!-- Node66 -->
<g id="node223" class="node"><title>Node66</title>
<a xlink:href="_logger_8h.html" target="_top" xlink:title="base/Logger.h">
<polygon fill="white" stroke="black" points="1851.23,-527.5 1851.23,-548.5 1929.23,-548.5 1929.23,-527.5 1851.23,-527.5"/>
<text text-anchor="middle" x="1890.23" y="-535.5" font-family="Helvetica,sans-Serif" font-size="10.00">base/Logger.h</text>
</a>
</g>
<!-- Node1&#45;&gt;Node66 -->
<g id="edge314" class="edge"><title>Node1&#45;&gt;Node66</title>
<path fill="none" stroke="midnightblue" d="M1747.55,-592.937C1779.8,-580.517 1822.98,-563.892 1853.36,-552.195"/>
<polygon fill="midnightblue" stroke="midnightblue" points="1854.67,-555.442 1862.74,-548.582 1852.15,-548.909 1854.67,-555.442"/>
</g>
<!-- Node68 -->
<g id="node227" class="node"><title>Node68</title>
<polygon fill="white" stroke="#bfbfbf" points="1947.23,-527.5 1947.23,-548.5 1989.23,-548.5 1989.23,-527.5 1947.23,-527.5"/>
<text text-anchor="middle" x="1968.23" y="-535.5" font-family="Helvetica,sans-Serif" font-size="10.00">TF1.h</text>
</g>
<!-- Node1&#45;&gt;Node68 -->
<g id="edge318" class="edge"><title>Node1&#45;&gt;Node68</title>
<path fill="none" stroke="midnightblue" d="M1761.75,-601.806C1810.26,-593.785 1880.38,-579.318 1938.23,-556 1940.05,-555.268 1941.88,-554.434 1943.7,-553.537"/>
<polygon fill="midnightblue" stroke="midnightblue" points="1945.44,-556.573 1952.52,-548.687 1942.07,-550.439 1945.44,-556.573"/>
</g>
<!-- Node69 -->
<g id="node229" class="node"><title>Node69</title>
<polygon fill="white" stroke="#bfbfbf" points="2006.73,-527.5 2006.73,-548.5 2057.73,-548.5 2057.73,-527.5 2006.73,-527.5"/>
<text text-anchor="middle" x="2032.23" y="-535.5" font-family="Helvetica,sans-Serif" font-size="10.00">TH1D.h</text>
</g>
<!-- Node1&#45;&gt;Node69 -->
<g id="edge320" class="edge"><title>Node1&#45;&gt;Node69</title>
<path fill="none" stroke="midnightblue" d="M1761.95,-604.594C1822.47,-597.797 1918.91,-583.521 1998.23,-556 2000.66,-555.157 2003.13,-554.161 2005.57,-553.076"/>
<polygon fill="midnightblue" stroke="midnightblue" points="2007.26,-556.142 2014.69,-548.592 2004.17,-549.859 2007.26,-556.142"/>
</g>
<!-- Node70 -->
<g id="node231" class="node"><title>Node70</title>
<polygon fill="white" stroke="#bfbfbf" points="2074.73,-527.5 2074.73,-548.5 2125.73,-548.5 2125.73,-527.5 2074.73,-527.5"/>
<text text-anchor="middle" x="2100.23" y="-535.5" font-family="Helvetica,sans-Serif" font-size="10.00">TH2D.h</text>
</g>
<!-- Node1&#45;&gt;Node70 -->
<g id="edge322" class="edge"><title>Node1&#45;&gt;Node70</title>
<path fill="none" stroke="midnightblue" d="M1761.84,-607.377C1834.78,-602.741 1962.41,-590.091 2066.23,-556 2068.82,-555.15 2071.44,-554.114 2074.03,-552.973"/>
<polygon fill="midnightblue" stroke="midnightblue" points="2075.65,-556.075 2083.08,-548.524 2072.57,-549.793 2075.65,-556.075"/>
</g>
<!-- Node3 -->
<g id="node5" class="node"><title>Node3</title>
<a xlink:href="_calibration_8h.html" target="_top" xlink:title="calibration/Calibration.h">
<polygon fill="white" stroke="black" points="1821.73,-346.5 1821.73,-367.5 1940.73,-367.5 1940.73,-346.5 1821.73,-346.5"/>
<text text-anchor="middle" x="1881.23" y="-354.5" font-family="Helvetica,sans-Serif" font-size="10.00">calibration/Calibration.h</text>
</a>
</g>
<!-- Node2&#45;&gt;Node3 -->
<g id="edge4" class="edge"><title>Node2&#45;&gt;Node3</title>
<path fill="none" stroke="midnightblue" d="M2073.18,-405.617C2035.09,-395.97 1975.48,-380.872 1932.8,-370.061"/>
<polygon fill="midnightblue" stroke="midnightblue" points="1933.43,-366.611 1922.88,-367.549 1931.71,-373.397 1933.43,-366.611"/>
</g>
<!-- Node5 -->
<g id="node9" class="node"><title>Node5</title>
<a xlink:href="_detector__t_8h.html" target="_top" xlink:title="base/Detector_t.h">
<polygon fill="white" stroke="black" points="2524.73,-209.5 2524.73,-230.5 2619.73,-230.5 2619.73,-209.5 2524.73,-209.5"/>
<text text-anchor="middle" x="2572.23" y="-217.5" font-family="Helvetica,sans-Serif" font-size="10.00">base/Detector_t.h</text>
</a>
</g>
<!-- Node2&#45;&gt;Node5 -->
<g id="edge192" class="edge"><title>Node2&#45;&gt;Node5</title>
<path fill="none" stroke="midnightblue" d="M2147.31,-411.134C2242.35,-400.468 2491.12,-367.544 2547.23,-310 2565.28,-291.484 2570.54,-261.113 2571.95,-240.841"/>
<polygon fill="midnightblue" stroke="midnightblue" points="2575.45,-240.9 2572.38,-230.758 2568.45,-240.596 2575.45,-240.9"/>
</g>
<!-- Node12 -->
<g id="node25" class="node"><title>Node12</title>
<a xlink:href="math_8h.html" target="_top" xlink:title="base/std_ext/math.h">
<polygon fill="white" stroke="black" points="2589.23,-137.5 2589.23,-158.5 2695.23,-158.5 2695.23,-137.5 2589.23,-137.5"/>
<text text-anchor="middle" x="2642.23" y="-145.5" font-family="Helvetica,sans-Serif" font-size="10.00">base/std_ext/math.h</text>
</a>
</g>
<!-- Node2&#45;&gt;Node12 -->
<g id="edge190" class="edge"><title>Node2&#45;&gt;Node12</title>
<path fill="none" stroke="midnightblue" d="M2147.45,-411.6C2224.87,-404.264 2400.82,-386.138 2458.23,-368 2511.68,-351.111 2526.83,-345.476 2570.23,-310 2602.04,-283.995 2611.62,-275.583 2628.23,-238 2638.07,-215.738 2641.14,-187.709 2642.02,-168.897"/>
<polygon fill="midnightblue" stroke="midnightblue" points="2645.52,-168.855 2642.32,-158.754 2638.53,-168.644 2645.52,-168.855"/>
</g>
<!-- Node21 -->
<g id="node47" class="node"><title>Node21</title>
<polygon fill="white" stroke="#bfbfbf" points="1837.23,-65.5 1837.23,-86.5 1889.23,-86.5 1889.23,-65.5 1837.23,-65.5"/>
<text text-anchor="middle" x="1863.23" y="-73.5" font-family="Helvetica,sans-Serif" font-size="10.00">memory</text>
</g>
<!-- Node2&#45;&gt;Node21 -->
<g id="edge196" class="edge"><title>Node2&#45;&gt;Node21</title>
<path fill="none" stroke="midnightblue" d="M2102.57,-404.483C2067.56,-356.443 1922.63,-157.529 1877.03,-94.9415"/>
<polygon fill="midnightblue" stroke="midnightblue" points="1879.76,-92.7517 1871.05,-86.7306 1874.11,-96.8739 1879.76,-92.7517"/>
</g>
<!-- Node27 -->
<g id="node68" class="node"><title>Node27</title>
<a xlink:href="interval_8h.html" target="_top" xlink:title="base/interval.h">
<polygon fill="white" stroke="black" points="2141.23,-137.5 2141.23,-158.5 2221.23,-158.5 2221.23,-137.5 2141.23,-137.5"/>
<text text-anchor="middle" x="2181.23" y="-145.5" font-family="Helvetica,sans-Serif" font-size="10.00">base/interval.h</text>
</a>
</g>
<!-- Node2&#45;&gt;Node27 -->
<g id="edge194" class="edge"><title>Node2&#45;&gt;Node27</title>
<path fill="none" stroke="midnightblue" d="M2109.06,-404.209C2106.04,-371.88 2100.25,-273.627 2132.23,-202 2138.48,-187.998 2149.79,-175.158 2159.96,-165.514"/>
<polygon fill="midnightblue" stroke="midnightblue" points="2162.33,-168.088 2167.42,-158.796 2157.65,-162.887 2162.33,-168.088"/>
</g>
<!-- Node4 -->
<g id="node7" class="node"><title>Node4</title>
<a xlink:href="_reconstruct__traits_8h.html" target="_top" xlink:title="reconstruct/Reconstruct\l_traits.h">
<polygon fill="white" stroke="black" points="2141.23,-275 2141.23,-309 2263.23,-309 2263.23,-275 2141.23,-275"/>
<text text-anchor="start" x="2149.23" y="-296" font-family="Helvetica,sans-Serif" font-size="10.00">reconstruct/Reconstruct</text>
<text text-anchor="middle" x="2202.23" y="-283" font-family="Helvetica,sans-Serif" font-size="10.00">_traits.h</text>
</a>
</g>
<!-- Node3&#45;&gt;Node4 -->
<g id="edge6" class="edge"><title>Node3&#45;&gt;Node4</title>
<path fill="none" stroke="midnightblue" d="M1933.16,-346.484C1986.84,-335.615 2071.01,-318.571 2130.91,-306.442"/>
<polygon fill="midnightblue" stroke="midnightblue" points="2131.94,-309.804 2141.05,-304.389 2130.55,-302.943 2131.94,-309.804"/>
</g>
<!-- Node14 -->
<g id="node30" class="node"><title>Node14</title>
<polygon fill="white" stroke="#bfbfbf" points="2625.23,-0.5 2625.23,-21.5 2669.23,-21.5 2669.23,-0.5 2625.23,-0.5"/>
<text text-anchor="middle" x="2647.23" y="-8.5" font-family="Helvetica,sans-Serif" font-size="10.00">vector</text>
</g>
<!-- Node3&#45;&gt;Node14 -->
<g id="edge188" class="edge"><title>Node3&#45;&gt;Node14</title>
<path fill="none" stroke="midnightblue" d="M1940.73,-351.703C2167.3,-330.937 2966.9,-251.985 3038.23,-166 3113.83,-74.8601 3022.32,-102.837 2886.23,-58 2814.31,-34.3059 2726.08,-20.7641 2679.53,-14.7641"/>
<polygon fill="midnightblue" stroke="midnightblue" points="2679.8,-11.2703 2669.44,-13.4981 2678.93,-18.2159 2679.8,-11.2703"/>
</g>
<!-- Node26 -->
<g id="node66" class="node"><title>Node26</title>
<a xlink:href="_manager__traits_8h.html" target="_top" xlink:title="calibration/gui/Manager\l_traits.h">
<polygon fill="white" stroke="black" points="1523.73,-275 1523.73,-309 1640.73,-309 1640.73,-275 1523.73,-275"/>
<text text-anchor="start" x="1531.73" y="-296" font-family="Helvetica,sans-Serif" font-size="10.00">calibration/gui/Manager</text>
<text text-anchor="middle" x="1582.23" y="-283" font-family="Helvetica,sans-Serif" font-size="10.00">_traits.h</text>
</a>
</g>
<!-- Node3&#45;&gt;Node26 -->
<g id="edge80" class="edge"><title>Node3&#45;&gt;Node26</title>
<path fill="none" stroke="midnightblue" d="M1832.86,-346.484C1783.43,-335.74 1706.24,-318.959 1650.58,-306.86"/>
<polygon fill="midnightblue" stroke="midnightblue" points="1651.32,-303.437 1640.8,-304.733 1649.83,-310.278 1651.32,-303.437"/>
</g>
<!-- Node49 -->
<g id="node137" class="node"><title>Node49</title>
<a xlink:href="_options_list_8h.html" target="_top" xlink:title="base/OptionsList.h">
<polygon fill="white" stroke="black" points="1759.23,-281.5 1759.23,-302.5 1857.23,-302.5 1857.23,-281.5 1759.23,-281.5"/>
<text text-anchor="middle" x="1808.23" y="-289.5" font-family="Helvetica,sans-Serif" font-size="10.00">base/OptionsList.h</text>
</a>
</g>
<!-- Node3&#45;&gt;Node49 -->
<g id="edge176" class="edge"><title>Node3&#45;&gt;Node49</title>
<path fill="none" stroke="midnightblue" d="M1869.17,-346.267C1857.91,-336.233 1840.89,-321.078 1827.69,-309.331"/>
<polygon fill="midnightblue" stroke="midnightblue" points="1829.85,-306.57 1820.06,-302.534 1825.2,-311.798 1829.85,-306.57"/>
</g>
<!-- Node4&#45;&gt;Node5 -->
<g id="edge8" class="edge"><title>Node4&#45;&gt;Node5</title>
<path fill="none" stroke="midnightblue" d="M2263.33,-280.111C2333.02,-266.548 2446.15,-244.535 2514.44,-231.246"/>
<polygon fill="midnightblue" stroke="midnightblue" points="2515.44,-234.617 2524.59,-229.271 2514.1,-227.746 2515.44,-234.617"/>
</g>
<!-- Node19 -->
<g id="node43" class="node"><title>Node19</title>
<a xlink:href="mapped__vectors_8h.html" target="_top" xlink:title="base/std_ext/mapped\l_vectors.h">
<polygon fill="white" stroke="black" points="2141.23,-203 2141.23,-237 2251.23,-237 2251.23,-203 2141.23,-203"/>
<text text-anchor="start" x="2149.23" y="-224" font-family="Helvetica,sans-Serif" font-size="10.00">base/std_ext/mapped</text>
<text text-anchor="middle" x="2196.23" y="-211" font-family="Helvetica,sans-Serif" font-size="10.00">_vectors.h</text>
</a>
</g>
<!-- Node4&#45;&gt;Node19 -->
<g id="edge48" class="edge"><title>Node4&#45;&gt;Node19</title>
<path fill="none" stroke="midnightblue" d="M2200.81,-274.937C2200.13,-266.807 2199.3,-256.876 2198.54,-247.705"/>
<polygon fill="midnightblue" stroke="midnightblue" points="2202,-247.115 2197.68,-237.441 2195.02,-247.697 2202,-247.115"/>
</g>
<!-- Node4&#45;&gt;Node21 -->
<g id="edge72" class="edge"><title>Node4&#45;&gt;Node21</title>
<path fill="none" stroke="midnightblue" d="M2179.22,-274.884C2165.41,-264.456 2147.59,-250.73 2132.23,-238 2095.14,-207.271 2086.72,-198.567 2051.23,-166 2034.09,-150.27 2033.29,-141.779 2013.23,-130 1967.04,-102.885 1947.78,-114.322 1898.23,-94 1895.99,-93.0812 1893.7,-92.0719 1891.41,-91.0147"/>
<polygon fill="midnightblue" stroke="midnightblue" points="1892.73,-87.7604 1882.21,-86.5085 1889.65,-94.0479 1892.73,-87.7604"/>
</g>
<!-- Node22 -->
<g id="node49" class="node"><title>Node22</title>
<polygon fill="white" stroke="#bfbfbf" points="793.729,-65.5 793.729,-86.5 822.729,-86.5 822.729,-65.5 793.729,-65.5"/>
<text text-anchor="middle" x="808.229" y="-73.5" font-family="Helvetica,sans-Serif" font-size="10.00">list</text>
</g>
<!-- Node4&#45;&gt;Node22 -->
<g id="edge76" class="edge"><title>Node4&#45;&gt;Node22</title>
<path fill="none" stroke="midnightblue" d="M2141.14,-288.826C1954.47,-278.393 1394.31,-241.422 1230.23,-166 1208.5,-156.011 1212.04,-139.821 1190.23,-130 1061.34,-71.9588 1013.04,-120.674 874.229,-94 860.196,-91.3035 844.776,-87.1659 832.372,-83.5373"/>
<polygon fill="midnightblue" stroke="midnightblue" points="833.342,-80.1744 822.758,-80.6517 831.33,-86.8789 833.342,-80.1744"/>
</g>
<!-- Node23 -->
<g id="node54" class="node"><title>Node23</title>
<a xlink:href="shared__ptr__container_8h.html" target="_top" xlink:title="base/std_ext/shared\l_ptr_container.h">
<polygon fill="white" stroke="black" points="2276.73,-131 2276.73,-165 2381.73,-165 2381.73,-131 2276.73,-131"/>
<text text-anchor="start" x="2284.73" y="-152" font-family="Helvetica,sans-Serif" font-size="10.00">base/std_ext/shared</text>
<text text-anchor="middle" x="2329.23" y="-139" font-family="Helvetica,sans-Serif" font-size="10.00">_ptr_container.h</text>
</a>
</g>
<!-- Node4&#45;&gt;Node23 -->
<g id="edge62" class="edge"><title>Node4&#45;&gt;Node23</title>
<path fill="none" stroke="midnightblue" d="M2243.52,-274.802C2260.76,-265.922 2279.85,-253.632 2293.23,-238 2308.72,-219.901 2318.09,-194.299 2323.36,-175.026"/>
<polygon fill="midnightblue" stroke="midnightblue" points="2326.76,-175.882 2325.83,-165.328 2319.97,-174.159 2326.76,-175.882"/>
</g>
<!-- Node24 -->
<g id="node58" class="node"><title>Node24</title>
<polygon fill="white" stroke="#bfbfbf" points="2095.73,-0.5 2095.73,-21.5 2154.73,-21.5 2154.73,-0.5 2095.73,-0.5"/>
<text text-anchor="middle" x="2125.23" y="-8.5" font-family="Helvetica,sans-Serif" font-size="10.00">functional</text>
</g>
<!-- Node4&#45;&gt;Node24 -->
<g id="edge78" class="edge"><title>Node4&#45;&gt;Node24</title>
<path fill="none" stroke="midnightblue" d="M2228.97,-274.819C2240.92,-265.521 2253.75,-252.885 2260.23,-238 2266.61,-223.33 2263.37,-217.689 2260.23,-202 2253.43,-168.007 2254.56,-154.69 2230.23,-130 2202,-101.363 2173.45,-124.485 2147.23,-94 2132.26,-76.5914 2127.34,-50.0838 2125.79,-31.7289"/>
<polygon fill="midnightblue" stroke="midnightblue" points="2129.27,-31.2921 2125.21,-21.5082 2122.29,-31.6918 2129.27,-31.2921"/>
</g>
<!-- Node25 -->
<g id="node62" class="node"><title>Node25</title>
<polygon fill="white" stroke="#bfbfbf" points="2382.73,-209.5 2382.73,-230.5 2417.73,-230.5 2417.73,-209.5 2382.73,-209.5"/>
<text text-anchor="middle" x="2400.23" y="-217.5" font-family="Helvetica,sans-Serif" font-size="10.00">map</text>
</g>
<!-- Node4&#45;&gt;Node25 -->
<g id="edge74" class="edge"><title>Node4&#45;&gt;Node25</title>
<path fill="none" stroke="midnightblue" d="M2263.29,-275.662C2295.43,-266.218 2335.14,-253.2 2369.23,-238 2371.02,-237.202 2372.84,-236.327 2374.65,-235.408"/>
<polygon fill="midnightblue" stroke="midnightblue" points="2376.41,-238.434 2383.52,-230.575 2373.06,-232.288 2376.41,-238.434"/>
</g>
<!-- Node6 -->
<g id="node11" class="node"><title>Node6</title>
<a xlink:href="printable_8h.html" target="_top" xlink:title="base/printable.h">
<polygon fill="white" stroke="black" points="2775.23,-65.5 2775.23,-86.5 2861.23,-86.5 2861.23,-65.5 2775.23,-65.5"/>
<text text-anchor="middle" x="2818.23" y="-73.5" font-family="Helvetica,sans-Serif" font-size="10.00">base/printable.h</text>
</a>
</g>
<!-- Node5&#45;&gt;Node6 -->
<g id="edge10" class="edge"><title>Node5&#45;&gt;Node6</title>
<path fill="none" stroke="midnightblue" d="M2619.76,-212.486C2686.36,-201.495 2800.74,-180.742 2813.23,-166 2829.36,-146.96 2827.34,-116.718 2823.51,-96.618"/>
<polygon fill="midnightblue" stroke="midnightblue" points="2826.88,-95.6411 2821.31,-86.6303 2820.05,-97.1496 2826.88,-95.6411"/>
</g>
<!-- Node7 -->
<g id="node13" class="node"><title>Node7</title>
<polygon fill="white" stroke="#bfbfbf" points="2494.23,-0.5 2494.23,-21.5 2556.23,-21.5 2556.23,-0.5 2494.23,-0.5"/>
<text text-anchor="middle" x="2525.23" y="-8.5" font-family="Helvetica,sans-Serif" font-size="10.00">type_traits</text>
</g>
<!-- Node5&#45;&gt;Node7 -->
<g id="edge44" class="edge"><title>Node5&#45;&gt;Node7</title>
<path fill="none" stroke="midnightblue" d="M2620,-213.885C2649.64,-207.351 2685.53,-193.855 2704.23,-166 2713.15,-152.716 2710.96,-144.517 2704.23,-130 2678.11,-73.6566 2610.31,-40.2798 2566.05,-23.8196"/>
<polygon fill="midnightblue" stroke="midnightblue" points="2567.04,-20.4547 2556.45,-20.3726 2564.68,-27.0436 2567.04,-20.4547"/>
</g>
<!-- Node9 -->
<g id="node17" class="node"><title>Node9</title>
<a xlink:href="vec3_8h.html" target="_top" xlink:title="base/vec/vec3.h">
<polygon fill="white" stroke="black" points="2940.73,-137.5 2940.73,-158.5 3029.73,-158.5 3029.73,-137.5 2940.73,-137.5"/>
<text text-anchor="middle" x="2985.23" y="-145.5" font-family="Helvetica,sans-Serif" font-size="10.00">base/vec/vec3.h</text>
</a>
</g>
<!-- Node5&#45;&gt;Node9 -->
<g id="edge16" class="edge"><title>Node5&#45;&gt;Node9</title>
<path fill="none" stroke="midnightblue" d="M2619.88,-212.724C2641.37,-209.444 2667.08,-205.524 2690.23,-202 2795.56,-185.967 2823.39,-189.857 2927.23,-166 2932.75,-164.731 2938.51,-163.201 2944.17,-161.577"/>
<polygon fill="midnightblue" stroke="midnightblue" points="2945.58,-164.806 2954.16,-158.585 2943.57,-158.101 2945.58,-164.806"/>
</g>
<!-- Node5&#45;&gt;Node12 -->
<g id="edge26" class="edge"><title>Node5&#45;&gt;Node12</title>
<path fill="none" stroke="midnightblue" d="M2582.56,-209.376C2593.62,-197.997 2611.38,-179.735 2624.65,-166.085"/>
<polygon fill="midnightblue" stroke="midnightblue" points="2627.4,-168.277 2631.86,-158.667 2622.38,-163.398 2627.4,-168.277"/>
</g>
<!-- Node5&#45;&gt;Node14 -->
<g id="edge46" class="edge"><title>Node5&#45;&gt;Node14</title>
<path fill="none" stroke="midnightblue" d="M2619.97,-212.409C2690.59,-200.841 2816.4,-178.795 2833.23,-166 2861.87,-144.225 2861.77,-128.969 2870.23,-94 2873.99,-78.4486 2880.31,-70.4257 2870.23,-58 2846.58,-28.8447 2735.45,-17.0875 2679.53,-12.9554"/>
<polygon fill="midnightblue" stroke="midnightblue" points="2679.67,-9.45641 2669.45,-12.2489 2679.18,-16.4393 2679.67,-9.45641"/>
</g>
<!-- Node16 -->
<g id="node34" class="node"><title>Node16</title>
<polygon fill="white" stroke="#bfbfbf" points="1906.73,-65.5 1906.73,-86.5 1965.73,-86.5 1965.73,-65.5 1906.73,-65.5"/>
<text text-anchor="middle" x="1936.23" y="-73.5" font-family="Helvetica,sans-Serif" font-size="10.00">stdexcept</text>
</g>
<!-- Node5&#45;&gt;Node16 -->
<g id="edge40" class="edge"><title>Node5&#45;&gt;Node16</title>
<path fill="none" stroke="midnightblue" d="M2524.56,-214.113C2496.03,-210.592 2459.06,-206.033 2426.23,-202 2295.57,-185.946 2252.99,-218.405 2132.23,-166 2109.36,-156.078 2111.1,-141.954 2089.23,-130 2042.23,-104.314 2024.11,-113.511 1974.23,-94 1971.7,-93.0119 1969.11,-91.9314 1966.52,-90.8062"/>
<polygon fill="midnightblue" stroke="midnightblue" points="1967.86,-87.5684 1957.3,-86.6205 1964.96,-93.942 1967.86,-87.5684"/>
</g>
<!-- Node5&#45;&gt;Node17 -->
<g id="edge38" class="edge"><title>Node5&#45;&gt;Node17</title>
<path fill="none" stroke="midnightblue" d="M2524.67,-213.007C2496.18,-209.1 2459.21,-204.524 2426.23,-202 1895.98,-161.421 1759.49,-217.832 1230.23,-166 1204.87,-163.516 1176.45,-158.698 1155.13,-154.671"/>
<polygon fill="midnightblue" stroke="midnightblue" points="1155.76,-151.228 1145.28,-152.771 1154.44,-158.101 1155.76,-151.228"/>
</g>
<!-- Node18 -->
<g id="node39" class="node"><title>Node18</title>
<polygon fill="white" stroke="#bfbfbf" points="502.729,-0.5 502.729,-21.5 543.729,-21.5 543.729,-0.5 502.729,-0.5"/>
<text text-anchor="middle" x="523.229" y="-8.5" font-family="Helvetica,sans-Serif" font-size="10.00">string</text>
</g>
<!-- Node5&#45;&gt;Node18 -->
<g id="edge42" class="edge"><title>Node5&#45;&gt;Node18</title>
<path fill="none" stroke="midnightblue" d="M2524.66,-213.126C2496.17,-209.261 2459.19,-204.687 2426.23,-202 2226.73,-185.74 1720.6,-213.807 1526.23,-166 1489.93,-157.073 1486.18,-140.222 1450.23,-130 1312.14,-90.7362 1269.67,-123.756 1129.23,-94 1077.25,-82.9873 1067.3,-68.585 1015.23,-58 843.369,-23.0622 632.32,-13.9534 554.204,-11.7006"/>
<polygon fill="midnightblue" stroke="midnightblue" points="554.173,-8.19854 544.082,-11.4262 553.983,-15.196 554.173,-8.19854"/>
</g>
<!-- Node6&#45;&gt;Node7 -->
<g id="edge12" class="edge"><title>Node6&#45;&gt;Node7</title>
<path fill="none" stroke="midnightblue" d="M2774.93,-66.3742C2762.74,-63.6645 2749.46,-60.7157 2737.23,-58 2677.9,-44.8311 2609.22,-29.6099 2566.5,-20.1433"/>
<polygon fill="midnightblue" stroke="midnightblue" points="2567,-16.6696 2556.48,-17.9234 2565.49,-23.5038 2567,-16.6696"/>
</g>
<!-- Node8 -->
<g id="node15" class="node"><title>Node8</title>
<polygon fill="white" stroke="#bfbfbf" points="2792.23,-0.5 2792.23,-21.5 2844.23,-21.5 2844.23,-0.5 2792.23,-0.5"/>
<text text-anchor="middle" x="2818.23" y="-8.5" font-family="Helvetica,sans-Serif" font-size="10.00">ostream</text>
</g>
<!-- Node6&#45;&gt;Node8 -->
<g id="edge14" class="edge"><title>Node6&#45;&gt;Node8</title>
<path fill="none" stroke="midnightblue" d="M2818.23,-65.2666C2818.23,-56.1799 2818.23,-42.8919 2818.23,-31.7395"/>
<polygon fill="midnightblue" stroke="midnightblue" points="2821.73,-31.5337 2818.23,-21.5337 2814.73,-31.5337 2821.73,-31.5337"/>
</g>
<!-- Node9&#45;&gt;Node6 -->
<g id="edge18" class="edge"><title>Node9&#45;&gt;Node6</title>
<path fill="none" stroke="midnightblue" d="M2960.59,-137.376C2931.89,-125.004 2884.32,-104.496 2852.15,-90.6255"/>
<polygon fill="midnightblue" stroke="midnightblue" points="2853.27,-87.2953 2842.7,-86.5501 2850.5,-93.7233 2853.27,-87.2953"/>
</g>
<!-- Node10 -->
<g id="node20" class="node"><title>Node10</title>
<a xlink:href="vec2_8h.html" target="_top" xlink:title="vec2.h">
<polygon fill="white" stroke="black" points="3161.23,-65.5 3161.23,-86.5 3207.23,-86.5 3207.23,-65.5 3161.23,-65.5"/>
<text text-anchor="middle" x="3184.23" y="-73.5" font-family="Helvetica,sans-Serif" font-size="10.00">vec2.h</text>
</a>
</g>
<!-- Node9&#45;&gt;Node10 -->
<g id="edge20" class="edge"><title>Node9&#45;&gt;Node10</title>
<path fill="none" stroke="midnightblue" d="M3021.43,-137.423C3054.59,-127.385 3104.82,-111.298 3147.23,-94 3149.6,-93.0322 3152.04,-91.9821 3154.47,-90.8919"/>
<polygon fill="midnightblue" stroke="midnightblue" points="3156.12,-93.9813 3163.7,-86.5768 3153.16,-87.6395 3156.12,-93.9813"/>
</g>
<!-- Node11 -->
<g id="node22" class="node"><title>Node11</title>
<polygon fill="white" stroke="#bfbfbf" points="2986.23,-0.5 2986.23,-21.5 3030.23,-21.5 3030.23,-0.5 2986.23,-0.5"/>
<text text-anchor="middle" x="3008.23" y="-8.5" font-family="Helvetica,sans-Serif" font-size="10.00">cmath</text>
</g>
<!-- Node9&#45;&gt;Node11 -->
<g id="edge24" class="edge"><title>Node9&#45;&gt;Node11</title>
<path fill="none" stroke="midnightblue" d="M2987.03,-137.25C2990.85,-114.541 2999.78,-61.3484 3004.74,-31.7682"/>
<polygon fill="midnightblue" stroke="midnightblue" points="3008.23,-32.1417 3006.43,-21.7002 3001.32,-30.9827 3008.23,-32.1417"/>
</g>
<!-- Node10&#45;&gt;Node11 -->
<g id="edge22" class="edge"><title>Node10&#45;&gt;Node11</title>
<path fill="none" stroke="midnightblue" d="M3163.7,-65.4394C3158.39,-62.8698 3152.65,-60.2238 3147.23,-58 3111.34,-43.2709 3068.96,-29.4327 3040.51,-20.6382"/>
<polygon fill="midnightblue" stroke="midnightblue" points="3041.28,-17.215 3030.7,-17.634 3039.23,-23.9083 3041.28,-17.215"/>
</g>
<!-- Node12&#45;&gt;Node11 -->
<g id="edge28" class="edge"><title>Node12&#45;&gt;Node11</title>
<path fill="none" stroke="midnightblue" d="M2653.14,-137.455C2673.54,-118.379 2719.63,-78.2443 2766.23,-58 2837.03,-27.2425 2928.19,-16.4951 2975.87,-12.8293"/>
<polygon fill="midnightblue" stroke="midnightblue" points="2976.2,-16.3154 2985.92,-12.1135 2975.7,-9.33312 2976.2,-16.3154"/>
</g>
<!-- Node13 -->
<g id="node28" class="node"><title>Node13</title>
<polygon fill="white" stroke="#bfbfbf" points="2541.23,-65.5 2541.23,-86.5 2581.23,-86.5 2581.23,-65.5 2541.23,-65.5"/>
<text text-anchor="middle" x="2561.23" y="-73.5" font-family="Helvetica,sans-Serif" font-size="10.00">limits</text>
</g>
<!-- Node12&#45;&gt;Node13 -->
<g id="edge30" class="edge"><title>Node12&#45;&gt;Node13</title>
<path fill="none" stroke="midnightblue" d="M2630.28,-137.376C2617.24,-125.784 2596.16,-107.05 2580.72,-93.324"/>
<polygon fill="midnightblue" stroke="midnightblue" points="2583.03,-90.6952 2573.23,-86.6674 2578.38,-95.927 2583.03,-90.6952"/>
</g>
<!-- Node12&#45;&gt;Node14 -->
<g id="edge32" class="edge"><title>Node12&#45;&gt;Node14</title>
<path fill="none" stroke="midnightblue" d="M2642.62,-137.25C2643.45,-114.541 2645.39,-61.3484 2646.47,-31.7682"/>
<polygon fill="midnightblue" stroke="midnightblue" points="2649.97,-31.8213 2646.84,-21.7002 2642.98,-31.5659 2649.97,-31.8213"/>
</g>
<!-- Node15 -->
<g id="node32" class="node"><title>Node15</title>
<polygon fill="white" stroke="#bfbfbf" points="2295.23,-0.5 2295.23,-21.5 2351.23,-21.5 2351.23,-0.5 2295.23,-0.5"/>
<text text-anchor="middle" x="2323.23" y="-8.5" font-family="Helvetica,sans-Serif" font-size="10.00">algorithm</text>
</g>
<!-- Node12&#45;&gt;Node15 -->
<g id="edge34" class="edge"><title>Node12&#45;&gt;Node15</title>
<path fill="none" stroke="midnightblue" d="M2639.34,-137.362C2633.52,-118.134 2618.47,-77.7609 2590.23,-58 2553.88,-32.5661 2426.29,-19.1048 2361.54,-13.7745"/>
<polygon fill="midnightblue" stroke="midnightblue" points="2361.58,-10.267 2351.34,-12.9593 2361.03,-17.2447 2361.58,-10.267"/>
</g>
<!-- Node12&#45;&gt;Node16 -->
<g id="edge36" class="edge"><title>Node12&#45;&gt;Node16</title>
<path fill="none" stroke="midnightblue" d="M2589.23,-144.239C2436.39,-133.324 2003.8,-101.915 1974.23,-94 1970.98,-93.1318 1967.68,-91.9944 1964.44,-90.7127"/>
<polygon fill="midnightblue" stroke="midnightblue" points="1965.61,-87.4015 1955.05,-86.5589 1962.78,-93.8037 1965.61,-87.4015"/>
</g>
<!-- Node19&#45;&gt;Node7 -->
<g id="edge60" class="edge"><title>Node19&#45;&gt;Node7</title>
<path fill="none" stroke="midnightblue" d="M2251.37,-209.101C2313.93,-196.39 2409.15,-175.865 2423.23,-166 2436.18,-156.926 2489.27,-70.5803 2513.31,-30.8408"/>
<polygon fill="midnightblue" stroke="midnightblue" points="2516.58,-32.1878 2518.75,-21.8171 2510.59,-28.5725 2516.58,-32.1878"/>
</g>
<!-- Node19&#45;&gt;Node14 -->
<g id="edge56" class="edge"><title>Node19&#45;&gt;Node14</title>
<path fill="none" stroke="midnightblue" d="M2251.42,-210.377C2321,-197.922 2433.57,-176.568 2450.23,-166 2501.12,-133.709 2484.42,-94.6977 2532.23,-58 2557.08,-38.924 2590.75,-26.3644 2615.23,-19.0676"/>
<polygon fill="midnightblue" stroke="midnightblue" points="2616.45,-22.3606 2625.11,-16.259 2614.54,-15.6275 2616.45,-22.3606"/>
</g>
<!-- Node20 -->
<g id="node45" class="node"><title>Node20</title>
<a xlink:href="memory_8h.html" target="_top" xlink:title="base/std_ext/memory.h">
<polygon fill="white" stroke="black" points="1238.73,-137.5 1238.73,-158.5 1357.73,-158.5 1357.73,-137.5 1238.73,-137.5"/>
<text text-anchor="middle" x="1298.23" y="-145.5" font-family="Helvetica,sans-Serif" font-size="10.00">base/std_ext/memory.h</text>
</a>
</g>
<!-- Node19&#45;&gt;Node20 -->
<g id="edge50" class="edge"><title>Node19&#45;&gt;Node20</title>
<path fill="none" stroke="midnightblue" d="M2141.11,-217.81C1980.73,-211.217 1516.22,-190.494 1366.23,-166 1358.52,-164.741 1350.41,-162.986 1342.59,-161.063"/>
<polygon fill="midnightblue" stroke="midnightblue" points="1343.45,-157.67 1332.89,-158.562 1341.7,-164.448 1343.45,-157.67"/>
</g>
<!-- Node19&#45;&gt;Node21 -->
<g id="edge58" class="edge"><title>Node19&#45;&gt;Node21</title>
<path fill="none" stroke="midnightblue" d="M2162.8,-202.836C2143.79,-192.721 2119.76,-179.327 2099.23,-166 2076.86,-151.481 2075.39,-141.293 2051.23,-130 1987.95,-100.416 1963.78,-118.154 1898.23,-94 1895.82,-93.1111 1893.36,-92.0947 1890.92,-91.0074"/>
<polygon fill="midnightblue" stroke="midnightblue" points="1892.27,-87.7725 1881.74,-86.5828 1889.23,-94.078 1892.27,-87.7725"/>
</g>
<!-- Node20&#45;&gt;Node21 -->
<g id="edge52" class="edge"><title>Node20&#45;&gt;Node21</title>
<path fill="none" stroke="midnightblue" d="M1333.26,-137.432C1343.77,-134.612 1355.39,-131.841 1366.23,-130 1569.28,-95.5076 1630.09,-150.202 1828.23,-94 1831.06,-93.1959 1833.94,-92.1519 1836.75,-90.9717"/>
<polygon fill="midnightblue" stroke="midnightblue" points="1838.46,-94.038 1845.99,-86.5848 1835.45,-87.7155 1838.46,-94.038"/>
</g>
<!-- Node20&#45;&gt;Node22 -->
<g id="edge54" class="edge"><title>Node20&#45;&gt;Node22</title>
<path fill="none" stroke="midnightblue" d="M1259.8,-137.458C1248.71,-134.707 1236.55,-131.966 1225.23,-130 1070.72,-103.163 1028.39,-122.727 874.229,-94 860.181,-91.3824 844.76,-87.2494 832.359,-83.6037"/>
<polygon fill="midnightblue" stroke="midnightblue" points="833.334,-80.242 822.749,-80.6998 831.309,-86.9428 833.334,-80.242"/>
</g>
<!-- Node23&#45;&gt;Node14 -->
<g id="edge64" class="edge"><title>Node23&#45;&gt;Node14</title>
<path fill="none" stroke="midnightblue" d="M2357.64,-130.927C2390.79,-111.49 2447.65,-79.6381 2499.23,-58 2538.15,-41.6746 2584.81,-27.7405 2615.19,-19.3776"/>
<polygon fill="midnightblue" stroke="midnightblue" points="2616.49,-22.6532 2625.22,-16.6571 2614.65,-15.8973 2616.49,-22.6532"/>
</g>
<!-- Node23&#45;&gt;Node15 -->
<g id="edge70" class="edge"><title>Node23&#45;&gt;Node15</title>
<path fill="none" stroke="midnightblue" d="M2333.16,-130.679C2336.72,-112.508 2340.89,-83.1465 2337.23,-58 2335.92,-48.9958 2333.26,-39.3181 2330.61,-31.0986"/>
<polygon fill="midnightblue" stroke="midnightblue" points="2333.92,-29.9496 2327.36,-21.6276 2327.3,-32.2223 2333.92,-29.9496"/>
</g>
<!-- Node23&#45;&gt;Node21 -->
<g id="edge66" class="edge"><title>Node23&#45;&gt;Node21</title>
<path fill="none" stroke="midnightblue" d="M2276.68,-137.721C2261.71,-134.989 2245.36,-132.193 2230.23,-130 2083.34,-108.711 2040.39,-136.656 1898.23,-94 1895.47,-93.1715 1892.67,-92.1273 1889.91,-90.9609"/>
<polygon fill="midnightblue" stroke="midnightblue" points="1891.4,-87.7914 1880.86,-86.6607 1888.39,-94.1139 1891.4,-87.7914"/>
</g>
<!-- Node23&#45;&gt;Node24 -->
<g id="edge68" class="edge"><title>Node23&#45;&gt;Node24</title>
<path fill="none" stroke="midnightblue" d="M2276.43,-132.338C2240.73,-121.055 2197.42,-105.802 2182.23,-94 2160.47,-77.0906 2143.89,-49.5273 2134.37,-30.8468"/>
<polygon fill="midnightblue" stroke="midnightblue" points="2137.46,-29.2004 2129.92,-21.749 2131.17,-32.2709 2137.46,-29.2004"/>
</g>
<!-- Node26&#45;&gt;Node18 -->
<g id="edge170" class="edge"><title>Node26&#45;&gt;Node18</title>
<path fill="none" stroke="midnightblue" d="M1523.43,-290.376C1320.56,-284.554 660.32,-263.706 623.229,-238 586.956,-212.861 544.665,-82.4676 529.243,-31.4734"/>
<polygon fill="midnightblue" stroke="midnightblue" points="532.511,-30.1839 526.295,-21.6037 525.804,-32.1871 532.511,-30.1839"/>
</g>
<!-- Node26&#45;&gt;Node21 -->
<g id="edge174" class="edge"><title>Node26&#45;&gt;Node21</title>
<path fill="none" stroke="midnightblue" d="M1635.39,-274.956C1659.15,-265.976 1686.78,-253.566 1709.23,-238 1769.56,-196.157 1824.84,-127.67 1849.57,-94.7822"/>
<polygon fill="midnightblue" stroke="midnightblue" points="1852.57,-96.6179 1855.72,-86.5019 1846.95,-92.446 1852.57,-96.6179"/>
</g>
<!-- Node26&#45;&gt;Node22 -->
<g id="edge172" class="edge"><title>Node26&#45;&gt;Node22</title>
<path fill="none" stroke="midnightblue" d="M1523.64,-280.151C1445.64,-262.779 1305,-225.808 1197.23,-166 1175.44,-153.905 1177.06,-139.991 1154.23,-130 1039.28,-79.7057 997.269,-118.565 874.229,-94 860.216,-91.2023 844.797,-87.0586 832.388,-83.452"/>
<polygon fill="midnightblue" stroke="midnightblue" points="833.353,-80.0874 822.77,-80.59 831.357,-86.7967 833.353,-80.0874"/>
</g>
<!-- Node26&#45;&gt;Node27 -->
<g id="edge82" class="edge"><title>Node26&#45;&gt;Node27</title>
<path fill="none" stroke="midnightblue" d="M1640.75,-277.93C1758.23,-249.69 2020.89,-186.546 2131.07,-160.058"/>
<polygon fill="midnightblue" stroke="midnightblue" points="2132.03,-163.428 2140.93,-157.687 2130.39,-156.621 2132.03,-163.428"/>
</g>
<!-- Node30 -->
<g id="node78" class="node"><title>Node30</title>
<a xlink:href="_wrap_t_file_8h.html" target="_top" xlink:title="base/WrapTFile.h">
<polygon fill="white" stroke="black" points="1535.23,-137.5 1535.23,-158.5 1629.23,-158.5 1629.23,-137.5 1535.23,-137.5"/>
<text text-anchor="middle" x="1582.23" y="-145.5" font-family="Helvetica,sans-Serif" font-size="10.00">base/WrapTFile.h</text>
</a>
</g>
<!-- Node26&#45;&gt;Node30 -->
<g id="edge96" class="edge"><title>Node26&#45;&gt;Node30</title>
<path fill="none" stroke="midnightblue" d="M1582.23,-274.916C1582.23,-248.345 1582.23,-197.207 1582.23,-168.622"/>
<polygon fill="midnightblue" stroke="midnightblue" points="1585.73,-168.541 1582.23,-158.541 1578.73,-168.541 1585.73,-168.541"/>
</g>
<!-- Node42 -->
<g id="node113" class="node"><title>Node42</title>
<a xlink:href="_t_i_d_8h.html" target="_top" xlink:title="tree/TID.h">
<polygon fill="white" stroke="black" points="963.729,-209.5 963.729,-230.5 1024.73,-230.5 1024.73,-209.5 963.729,-209.5"/>
<text text-anchor="middle" x="994.229" y="-217.5" font-family="Helvetica,sans-Serif" font-size="10.00">tree/TID.h</text>
</a>
</g>
<!-- Node26&#45;&gt;Node42 -->
<g id="edge142" class="edge"><title>Node26&#45;&gt;Node42</title>
<path fill="none" stroke="midnightblue" d="M1523.7,-284.833C1404.74,-270.267 1137.37,-237.527 1035.08,-225.003"/>
<polygon fill="midnightblue" stroke="midnightblue" points="1035.21,-221.492 1024.86,-223.751 1034.36,-228.44 1035.21,-221.492"/>
</g>
<!-- Node27&#45;&gt;Node6 -->
<g id="edge84" class="edge"><title>Node27&#45;&gt;Node6</title>
<path fill="none" stroke="midnightblue" d="M2221.35,-138.771C2236.04,-135.638 2252.83,-132.343 2268.23,-130 2363.18,-115.558 2646.01,-90.6775 2764.77,-80.5187"/>
<polygon fill="midnightblue" stroke="midnightblue" points="2765.4,-83.9778 2775.07,-79.6398 2764.81,-77.0032 2765.4,-83.9778"/>
</g>
<!-- Node27&#45;&gt;Node13 -->
<g id="edge92" class="edge"><title>Node27&#45;&gt;Node13</title>
<path fill="none" stroke="midnightblue" d="M2221.47,-139.483C2236.17,-136.423 2252.94,-132.99 2268.23,-130 2363.92,-111.285 2477.56,-90.8508 2530.83,-81.3778"/>
<polygon fill="midnightblue" stroke="midnightblue" points="2531.72,-84.7747 2540.95,-79.5802 2530.49,-77.8825 2531.72,-84.7747"/>
</g>
<!-- Node27&#45;&gt;Node15 -->
<g id="edge88" class="edge"><title>Node27&#45;&gt;Node15</title>
<path fill="none" stroke="midnightblue" d="M2221.29,-140.283C2248.58,-132.95 2283.42,-119.159 2304.23,-94 2318.66,-76.5489 2322.63,-50.2592 2323.48,-31.9598"/>
<polygon fill="midnightblue" stroke="midnightblue" points="2326.98,-31.8144 2323.68,-21.7489 2319.99,-31.6797 2326.98,-31.8144"/>
</g>
<!-- Node27&#45;&gt;Node16 -->
<g id="edge90" class="edge"><title>Node27&#45;&gt;Node16</title>
<path fill="none" stroke="midnightblue" d="M2151.1,-137.422C2143.37,-134.853 2135.02,-132.212 2127.23,-130 2060.02,-110.935 2040.16,-117.081 1974.23,-94 1971.45,-93.0277 1968.61,-91.9153 1965.78,-90.7309"/>
<polygon fill="midnightblue" stroke="midnightblue" points="1966.96,-87.4238 1956.41,-86.5266 1964.1,-93.8113 1966.96,-87.4238"/>
</g>
<!-- Node28 -->
<g id="node71" class="node"><title>Node28</title>
<a xlink:href="types_8h.html" target="_top" xlink:title="types.h">
<polygon fill="white" stroke="black" points="2048.73,-65.5 2048.73,-86.5 2097.73,-86.5 2097.73,-65.5 2048.73,-65.5"/>
<text text-anchor="middle" x="2073.23" y="-73.5" font-family="Helvetica,sans-Serif" font-size="10.00">types.h</text>
</a>
</g>
<!-- Node27&#45;&gt;Node28 -->
<g id="edge86" class="edge"><title>Node27&#45;&gt;Node28</title>
<path fill="none" stroke="midnightblue" d="M2165.29,-137.376C2147.51,-125.518 2118.51,-106.186 2097.81,-92.3877"/>
<polygon fill="midnightblue" stroke="midnightblue" points="2099.49,-89.3023 2089.23,-86.6674 2095.61,-95.1267 2099.49,-89.3023"/>
</g>
<!-- Node29 -->
<g id="node76" class="node"><title>Node29</title>
<polygon fill="white" stroke="#bfbfbf" points="1982.73,-65.5 1982.73,-86.5 2031.73,-86.5 2031.73,-65.5 1982.73,-65.5"/>
<text text-anchor="middle" x="2007.23" y="-73.5" font-family="Helvetica,sans-Serif" font-size="10.00">istream</text>
</g>
<!-- Node27&#45;&gt;Node29 -->
<g id="edge94" class="edge"><title>Node27&#45;&gt;Node29</title>
<path fill="none" stroke="midnightblue" d="M2150.21,-137.467C2121.31,-127.339 2077.24,-111.086 2040.23,-94 2038.41,-93.1588 2036.55,-92.26 2034.68,-91.3295"/>
<polygon fill="midnightblue" stroke="midnightblue" points="2035.99,-88.0637 2025.51,-86.5338 2032.75,-94.2676 2035.99,-88.0637"/>
</g>
<!-- Node30&#45;&gt;Node16 -->
<g id="edge138" class="edge"><title>Node30&#45;&gt;Node16</title>
<path fill="none" stroke="midnightblue" d="M1629.49,-143.983C1692.11,-137.749 1805.48,-123.282 1898.23,-94 1901.2,-93.0632 1904.23,-91.9393 1907.22,-90.7167"/>
<polygon fill="midnightblue" stroke="midnightblue" points="1908.81,-93.8415 1916.53,-86.5827 1905.97,-87.4445 1908.81,-93.8415"/>
</g>
<!-- Node30&#45;&gt;Node18 -->
<g id="edge132" class="edge"><title>Node30&#45;&gt;Node18</title>
<path fill="none" stroke="midnightblue" d="M1550.53,-137.443C1541.18,-134.658 1530.87,-131.903 1521.23,-130 1368.25,-99.8061 1315.86,-154.71 1172.23,-94 1149.27,-84.2961 1152.31,-67.4117 1129.23,-58 1075.75,-36.1901 670.509,-17.3087 554.293,-12.2987"/>
<polygon fill="midnightblue" stroke="midnightblue" points="554.111,-8.7878 543.97,-11.8575 553.812,-15.7814 554.111,-8.7878"/>
</g>
<!-- Node30&#45;&gt;Node21 -->
<g id="edge130" class="edge"><title>Node30&#45;&gt;Node21</title>
<path fill="none" stroke="midnightblue" d="M1615.95,-137.429C1624.78,-134.831 1634.33,-132.175 1643.23,-130 1724.6,-110.124 1749.08,-121.429 1828.23,-94 1830.8,-93.1078 1833.42,-92.0569 1836.02,-90.9183"/>
<polygon fill="midnightblue" stroke="midnightblue" points="1837.64,-94.0234 1845.13,-86.5376 1834.6,-87.714 1837.64,-94.0234"/>
</g>
<!-- Node30&#45;&gt;Node22 -->
<g id="edge134" class="edge"><title>Node30&#45;&gt;Node22</title>
<path fill="none" stroke="midnightblue" d="M1534.98,-140.704C1509.86,-137.041 1478.42,-132.8 1450.23,-130 1194.98,-104.655 1127.27,-135.962 874.229,-94 860.224,-91.6775 844.908,-87.5996 832.559,-83.9119"/>
<polygon fill="midnightblue" stroke="midnightblue" points="833.565,-80.5596 822.978,-80.9531 831.5,-87.2479 833.565,-80.5596"/>
</g>
<!-- Node30&#45;&gt;Node24 -->
<g id="edge140" class="edge"><title>Node30&#45;&gt;Node24</title>
<path fill="none" stroke="midnightblue" d="M1616.1,-137.425C1659.7,-123.682 1731.18,-100.654 1742.23,-94 1762.16,-82.0003 1759.25,-68.054 1780.23,-58 1833.57,-32.4362 2006.99,-18.4898 2085.72,-13.3388"/>
<polygon fill="midnightblue" stroke="midnightblue" points="2085.97,-16.8297 2095.73,-12.6979 2085.52,-9.84402 2085.97,-16.8297"/>
</g>
<!-- Node31 -->
<g id="node80" class="node"><title>Node31</title>
<a xlink:href="string_8h.html" target="_top" xlink:title="base/std_ext/string.h">
<polygon fill="white" stroke="black" points="1181.23,-65.5 1181.23,-86.5 1289.23,-86.5 1289.23,-65.5 1181.23,-65.5"/>
<text text-anchor="middle" x="1235.23" y="-73.5" font-family="Helvetica,sans-Serif" font-size="10.00">base/std_ext/string.h</text>
</a>
</g>
<!-- Node30&#45;&gt;Node31 -->
<g id="edge98" class="edge"><title>Node30&#45;&gt;Node31</title>
<path fill="none" stroke="midnightblue" d="M1549.19,-137.42C1540.18,-134.763 1530.38,-132.08 1521.23,-130 1423.33,-107.749 1396.22,-115.828 1298.23,-94 1292.04,-92.6204 1285.55,-90.9874 1279.19,-89.2769"/>
<polygon fill="midnightblue" stroke="midnightblue" points="1279.94,-85.8529 1269.37,-86.5506 1278.07,-92.5979 1279.94,-85.8529"/>
</g>
<!-- Node33 -->
<g id="node87" class="node"><title>Node33</title>
<a xlink:href="misc_8h.html" target="_top" xlink:title="base/std_ext/misc.h">
<polygon fill="white" stroke="black" points="2190.73,-65.5 2190.73,-86.5 2295.73,-86.5 2295.73,-65.5 2190.73,-65.5"/>
<text text-anchor="middle" x="2243.23" y="-73.5" font-family="Helvetica,sans-Serif" font-size="10.00">base/std_ext/misc.h</text>
</a>
</g>
<!-- Node30&#45;&gt;Node33 -->
<g id="edge108" class="edge"><title>Node30&#45;&gt;Node33</title>
<path fill="none" stroke="midnightblue" d="M1629.25,-143.599C1721.03,-134.909 1930.47,-114.599 2106.23,-94 2130.51,-91.1541 2157.17,-87.7213 2180.47,-84.6199"/>
<polygon fill="midnightblue" stroke="midnightblue" points="2181.13,-88.0634 2190.58,-83.2678 2180.2,-81.1252 2181.13,-88.0634"/>
</g>
<!-- Node35 -->
<g id="node94" class="node"><title>Node35</title>
<polygon fill="white" stroke="#bfbfbf" points="1372.73,-65.5 1372.73,-86.5 1419.73,-86.5 1419.73,-65.5 1372.73,-65.5"/>
<text text-anchor="middle" x="1396.23" y="-73.5" font-family="Helvetica,sans-Serif" font-size="10.00">TFile.h</text>
</g>
<!-- Node30&#45;&gt;Node35 -->
<g id="edge118" class="edge"><title>Node30&#45;&gt;Node35</title>
<path fill="none" stroke="midnightblue" d="M1546.68,-137.486C1515.02,-127.665 1467.72,-111.866 1428.23,-94 1426.44,-93.1921 1424.62,-92.3187 1422.81,-91.407"/>
<polygon fill="midnightblue" stroke="midnightblue" points="1424.35,-88.2658 1413.88,-86.657 1421.07,-94.4451 1424.35,-88.2658"/>
</g>
<!-- Node36 -->
<g id="node96" class="node"><title>Node36</title>
<polygon fill="white" stroke="#bfbfbf" points="1436.73,-65.5 1436.73,-86.5 1507.73,-86.5 1507.73,-65.5 1436.73,-65.5"/>
<text text-anchor="middle" x="1472.23" y="-73.5" font-family="Helvetica,sans-Serif" font-size="10.00">TDirectory.h</text>
</g>
<!-- Node30&#45;&gt;Node36 -->
<g id="edge120" class="edge"><title>Node30&#45;&gt;Node36</title>
<path fill="none" stroke="midnightblue" d="M1566,-137.376C1547.8,-125.465 1518.08,-106.013 1496.98,-92.2024"/>
<polygon fill="midnightblue" stroke="midnightblue" points="1498.81,-89.2156 1488.53,-86.6674 1494.98,-95.0725 1498.81,-89.2156"/>
</g>
<!-- Node37 -->
<g id="node98" class="node"><title>Node37</title>
<polygon fill="white" stroke="#bfbfbf" points="1525.23,-65.5 1525.23,-86.5 1577.23,-86.5 1577.23,-65.5 1525.23,-65.5"/>
<text text-anchor="middle" x="1551.23" y="-73.5" font-family="Helvetica,sans-Serif" font-size="10.00">TError.h</text>
</g>
<!-- Node30&#45;&gt;Node37 -->
<g id="edge122" class="edge"><title>Node30&#45;&gt;Node37</title>
<path fill="none" stroke="midnightblue" d="M1577.65,-137.376C1572.98,-126.528 1565.62,-109.426 1559.85,-96.0271"/>
<polygon fill="midnightblue" stroke="midnightblue" points="1562.99,-94.4682 1555.82,-86.6674 1556.56,-97.2364 1562.99,-94.4682"/>
</g>
<!-- Node38 -->
<g id="node100" class="node"><title>Node38</title>
<polygon fill="white" stroke="#bfbfbf" points="1594.73,-65.5 1594.73,-86.5 1641.73,-86.5 1641.73,-65.5 1594.73,-65.5"/>
<text text-anchor="middle" x="1618.23" y="-73.5" font-family="Helvetica,sans-Serif" font-size="10.00">TList.h</text>
</g>
<!-- Node30&#45;&gt;Node38 -->
<g id="edge124" class="edge"><title>Node30&#45;&gt;Node38</title>
<path fill="none" stroke="midnightblue" d="M1587.54,-137.376C1593.02,-126.422 1601.68,-109.09 1608.41,-95.6341"/>
<polygon fill="midnightblue" stroke="midnightblue" points="1611.55,-97.177 1612.9,-86.6674 1605.29,-94.0465 1611.55,-97.177"/>
</g>
<!-- Node39 -->
<g id="node102" class="node"><title>Node39</title>
<polygon fill="white" stroke="#bfbfbf" points="1659.23,-65.5 1659.23,-86.5 1733.23,-86.5 1733.23,-65.5 1659.23,-65.5"/>
<text text-anchor="middle" x="1696.23" y="-73.5" font-family="Helvetica,sans-Serif" font-size="10.00">TCollection.h</text>
</g>
<!-- Node30&#45;&gt;Node39 -->
<g id="edge126" class="edge"><title>Node30&#45;&gt;Node39</title>
<path fill="none" stroke="midnightblue" d="M1599.05,-137.376C1617.99,-125.412 1648.98,-105.839 1670.87,-92.0177"/>
<polygon fill="midnightblue" stroke="midnightblue" points="1672.75,-94.9666 1679.34,-86.6674 1669.01,-89.0482 1672.75,-94.9666"/>
</g>
<!-- Node40 -->
<g id="node104" class="node"><title>Node40</title>
<polygon fill="white" stroke="#bfbfbf" points="1307.23,-65.5 1307.23,-86.5 1355.23,-86.5 1355.23,-65.5 1307.23,-65.5"/>
<text text-anchor="middle" x="1331.23" y="-73.5" font-family="Helvetica,sans-Serif" font-size="10.00">TKey.h</text>
</g>
<!-- Node30&#45;&gt;Node40 -->
<g id="edge128" class="edge"><title>Node30&#45;&gt;Node40</title>
<path fill="none" stroke="midnightblue" d="M1547.81,-137.443C1539.16,-134.9 1529.88,-132.266 1521.23,-130 1451.98,-111.861 1431.17,-119.378 1364.23,-94 1362.1,-93.1917 1359.93,-92.2688 1357.78,-91.2776"/>
<polygon fill="midnightblue" stroke="midnightblue" points="1359.12,-88.0308 1348.62,-86.6386 1355.96,-94.2767 1359.12,-88.0308"/>
</g>
<!-- Node41 -->
<g id="node109" class="node"><title>Node41</title>
<polygon fill="white" stroke="#bfbfbf" points="1789.23,-65.5 1789.23,-86.5 1819.23,-86.5 1819.23,-65.5 1789.23,-65.5"/>
<text text-anchor="middle" x="1804.23" y="-73.5" font-family="Helvetica,sans-Serif" font-size="10.00">set</text>
</g>
<!-- Node30&#45;&gt;Node41 -->
<g id="edge136" class="edge"><title>Node30&#45;&gt;Node41</title>
<path fill="none" stroke="midnightblue" d="M1617.67,-137.406C1626.04,-134.942 1634.94,-132.352 1643.23,-130 1701.73,-113.394 1719.48,-118.288 1775.23,-94 1776.83,-93.3003 1778.46,-92.5222 1780.07,-91.6931"/>
<polygon fill="midnightblue" stroke="midnightblue" points="1782.08,-94.5755 1789.03,-86.578 1778.61,-88.4964 1782.08,-94.5755"/>
</g>
<!-- Node31&#45;&gt;Node14 -->
<g id="edge106" class="edge"><title>Node31&#45;&gt;Node14</title>
<path fill="none" stroke="midnightblue" d="M1266.29,-65.4606C1276.36,-62.4941 1287.66,-59.6333 1298.23,-58 1576.59,-14.9743 2284.48,-44.756 2565.23,-22 2581.59,-20.674 2599.68,-18.3402 2614.7,-16.1625"/>
<polygon fill="midnightblue" stroke="midnightblue" points="2615.65,-19.5594 2625.02,-14.621 2614.62,-12.6362 2615.65,-19.5594"/>
</g>
<!-- Node31&#45;&gt;Node15 -->
<g id="edge104" class="edge"><title>Node31&#45;&gt;Node15</title>
<path fill="none" stroke="midnightblue" d="M1266.62,-65.4188C1276.61,-62.4887 1287.78,-59.6594 1298.23,-58 1728.68,10.3667 1846.54,-82.0561 2278.23,-22 2280.43,-21.6939 2282.68,-21.3257 2284.94,-20.9125"/>
<polygon fill="midnightblue" stroke="midnightblue" points="2285.75,-24.3197 2294.83,-18.8647 2284.33,-17.4651 2285.75,-24.3197"/>
</g>
<!-- Node31&#45;&gt;Node18 -->
<g id="edge100" class="edge"><title>Node31&#45;&gt;Node18</title>
<path fill="none" stroke="midnightblue" d="M1200.56,-65.4923C1189.95,-62.6389 1178.19,-59.8342 1167.23,-58 1046.85,-37.8551 665.328,-17.9759 554.003,-12.4851"/>
<polygon fill="midnightblue" stroke="midnightblue" points="553.959,-8.97886 543.8,-11.985 553.617,-15.9705 553.959,-8.97886"/>
</g>
<!-- Node32 -->
<g id="node83" class="node"><title>Node32</title>
<polygon fill="white" stroke="#bfbfbf" points="1130.23,-0.5 1130.23,-21.5 1182.23,-21.5 1182.23,-0.5 1130.23,-0.5"/>
<text text-anchor="middle" x="1156.23" y="-8.5" font-family="Helvetica,sans-Serif" font-size="10.00">sstream</text>
</g>
<!-- Node31&#45;&gt;Node32 -->
<g id="edge102" class="edge"><title>Node31&#45;&gt;Node32</title>
<path fill="none" stroke="midnightblue" d="M1222.18,-65.2666C1209.87,-55.1387 1191.22,-39.7916 1176.89,-27.9995"/>
<polygon fill="midnightblue" stroke="midnightblue" points="1178.98,-25.1846 1169.03,-21.5337 1174.53,-30.5901 1178.98,-25.1846"/>
</g>
<!-- Node33&#45;&gt;Node11 -->
<g id="edge114" class="edge"><title>Node33&#45;&gt;Node11</title>
<path fill="none" stroke="midnightblue" d="M2295.81,-71.5323C2443.12,-59.016 2856.84,-23.8635 2975.84,-13.7524"/>
<polygon fill="midnightblue" stroke="midnightblue" points="2976.43,-17.2143 2986.1,-12.8801 2975.84,-10.2394 2976.43,-17.2143"/>
</g>
<!-- Node33&#45;&gt;Node15 -->
<g id="edge110" class="edge"><title>Node33&#45;&gt;Node15</title>
<path fill="none" stroke="midnightblue" d="M2256.44,-65.2666C2268.9,-55.1387 2287.79,-39.7916 2302.31,-27.9995"/>
<polygon fill="midnightblue" stroke="midnightblue" points="2304.71,-30.5561 2310.26,-21.5337 2300.3,-25.1233 2304.71,-30.5561"/>
</g>
<!-- Node33&#45;&gt;Node24 -->
<g id="edge112" class="edge"><title>Node33&#45;&gt;Node24</title>
<path fill="none" stroke="midnightblue" d="M2224.01,-65.412C2204.81,-54.8357 2175.09,-38.4645 2153.26,-26.4408"/>
<polygon fill="midnightblue" stroke="midnightblue" points="2154.89,-23.3428 2144.44,-21.5835 2151.51,-29.4741 2154.89,-23.3428"/>
</g>
<!-- Node34 -->
<g id="node92" class="node"><title>Node34</title>
<polygon fill="white" stroke="#bfbfbf" points="2216.73,-0.5 2216.73,-21.5 2269.73,-21.5 2269.73,-0.5 2216.73,-0.5"/>
<text text-anchor="middle" x="2243.23" y="-8.5" font-family="Helvetica,sans-Serif" font-size="10.00">cxxabi.h</text>
</g>
<!-- Node33&#45;&gt;Node34 -->
<g id="edge116" class="edge"><title>Node33&#45;&gt;Node34</title>
<path fill="none" stroke="midnightblue" d="M2243.23,-65.2666C2243.23,-56.1799 2243.23,-42.8919 2243.23,-31.7395"/>
<polygon fill="midnightblue" stroke="midnightblue" points="2246.73,-31.5337 2243.23,-21.5337 2239.73,-31.5337 2246.73,-31.5337"/>
</g>
<!-- Node42&#45;&gt;Node6 -->
<g id="edge146" class="edge"><title>Node42&#45;&gt;Node6</title>
<path fill="none" stroke="midnightblue" d="M1024.85,-219.578C1248.36,-216.433 2622.22,-195.928 2704.23,-166 2744.77,-151.205 2782.05,-115.971 2802.32,-94.236"/>
<polygon fill="midnightblue" stroke="midnightblue" points="2805.09,-96.3924 2809.22,-86.6377 2799.91,-91.6848 2805.09,-96.3924"/>
</g>
<!-- Node42&#45;&gt;Node7 -->
<g id="edge156" class="edge"><title>Node42&#45;&gt;Node7</title>
<path fill="none" stroke="midnightblue" d="M1024.82,-219.565C1223.77,-216.642 2327.8,-198.975 2390.23,-166 2416.64,-152.05 2449.86,-79.8411 2470.23,-58 2480.23,-47.2738 2492.56,-36.5531 2503,-28.065"/>
<polygon fill="midnightblue" stroke="midnightblue" points="2505.25,-30.7468 2510.89,-21.7789 2500.89,-25.2713 2505.25,-30.7468"/>
</g>
<!-- Node42&#45;&gt;Node16 -->
<g id="edge162" class="edge"><title>Node42&#45;&gt;Node16</title>
<path fill="none" stroke="midnightblue" d="M1025.02,-218.477C1140.08,-212.64 1544.67,-190.782 1671.23,-166 1775.1,-145.661 1799.73,-132.743 1898.23,-94 1900.75,-93.0071 1903.34,-91.9233 1905.93,-90.7958"/>
<polygon fill="midnightblue" stroke="midnightblue" points="1907.49,-93.9308 1915.15,-86.6059 1904.6,-87.5584 1907.49,-93.9308"/>
</g>
<!-- Node42&#45;&gt;Node17 -->
<g id="edge160" class="edge"><title>Node42&#45;&gt;Node17</title>
<path fill="none" stroke="midnightblue" d="M1013.12,-209.376C1034.57,-197.305 1069.8,-177.49 1094.41,-163.651"/>
<polygon fill="midnightblue" stroke="midnightblue" points="1096.26,-166.621 1103.26,-158.667 1092.83,-160.52 1096.26,-166.621"/>
</g>
<!-- Node42&#45;&gt;Node22 -->
<g id="edge164" class="edge"><title>Node42&#45;&gt;Node22</title>
<path fill="none" stroke="midnightblue" d="M963.708,-211.977C925.645,-201.455 863.467,-182.403 846.229,-166 826.635,-147.356 816.707,-117.016 812.005,-96.7866"/>
<polygon fill="midnightblue" stroke="midnightblue" points="815.375,-95.7991 809.903,-86.7266 808.523,-97.2311 815.375,-95.7991"/>
</g>
<!-- Node43 -->
<g id="node115" class="node"><title>Node43</title>
<polygon fill="white" stroke="#bfbfbf" points="333.229,-0.5 333.229,-21.5 389.229,-21.5 389.229,-0.5 333.229,-0.5"/>
<text text-anchor="middle" x="361.229" y="-8.5" font-family="Helvetica,sans-Serif" font-size="10.00">Rtypes.h</text>
</g>
<!-- Node42&#45;&gt;Node43 -->
<g id="edge144" class="edge"><title>Node42&#45;&gt;Node43</title>
<path fill="none" stroke="midnightblue" d="M963.525,-214.665C917.494,-206.314 828.113,-188.733 754.229,-166 617.206,-123.84 460.312,-55.6979 393.775,-25.8294"/>
<polygon fill="midnightblue" stroke="midnightblue" points="394.812,-22.4579 384.257,-21.5407 391.936,-28.8399 394.812,-22.4579"/>
</g>
<!-- Node44 -->
<g id="node118" class="node"><title>Node44</title>
<a xlink:href="time_8h.html" target="_top" xlink:title="base/std_ext/time.h">
<polygon fill="white" stroke="black" points="854.729,-137.5 854.729,-158.5 957.729,-158.5 957.729,-137.5 854.729,-137.5"/>
<text text-anchor="middle" x="906.229" y="-145.5" font-family="Helvetica,sans-Serif" font-size="10.00">base/std_ext/time.h</text>
</a>
</g>
<!-- Node42&#45;&gt;Node44 -->
<g id="edge148" class="edge"><title>Node42&#45;&gt;Node44</title>
<path fill="none" stroke="midnightblue" d="M981.244,-209.376C967.076,-197.784 944.178,-179.05 927.403,-165.324"/>
<polygon fill="midnightblue" stroke="midnightblue" points="929.223,-162.291 919.267,-158.667 924.79,-167.709 929.223,-162.291"/>
</g>
<!-- Node46 -->
<g id="node123" class="node"><title>Node46</title>
<polygon fill="white" stroke="#bfbfbf" points="664.729,-65.5 664.729,-86.5 705.729,-86.5 705.729,-65.5 664.729,-65.5"/>
<text text-anchor="middle" x="685.229" y="-73.5" font-family="Helvetica,sans-Serif" font-size="10.00">ctime</text>
</g>
<!-- Node42&#45;&gt;Node46 -->
<g id="edge168" class="edge"><title>Node42&#45;&gt;Node46</title>
<path fill="none" stroke="midnightblue" d="M963.498,-213.402C927.736,-205.076 867.434,-189.011 819.229,-166 776.471,-145.589 731.745,-112.884 706.299,-93.0258"/>
<polygon fill="midnightblue" stroke="midnightblue" points="708.154,-90.0309 698.138,-86.5786 703.815,-95.5238 708.154,-90.0309"/>
</g>
<!-- Node47 -->
<g id="node126" class="node"><title>Node47</title>
<polygon fill="white" stroke="#bfbfbf" points="975.229,-137.5 975.229,-158.5 1013.23,-158.5 1013.23,-137.5 975.229,-137.5"/>
<text text-anchor="middle" x="994.229" y="-145.5" font-family="Helvetica,sans-Serif" font-size="10.00">tuple</text>
</g>
<!-- Node42&#45;&gt;Node47 -->
<g id="edge158" class="edge"><title>Node42&#45;&gt;Node47</title>
<path fill="none" stroke="midnightblue" d="M994.229,-209.376C994.229,-198.741 994.229,-182.095 994.229,-168.82"/>
<polygon fill="midnightblue" stroke="midnightblue" points="997.729,-168.667 994.229,-158.667 990.729,-168.667 997.729,-168.667"/>
</g>
<!-- Node48 -->
<g id="node131" class="node"><title>Node48</title>
<polygon fill="white" stroke="#bfbfbf" points="1031.23,-137.5 1031.23,-158.5 1081.23,-158.5 1081.23,-137.5 1031.23,-137.5"/>
<text text-anchor="middle" x="1056.23" y="-145.5" font-family="Helvetica,sans-Serif" font-size="10.00">iomanip</text>
</g>
<!-- Node42&#45;&gt;Node48 -->
<g id="edge166" class="edge"><title>Node42&#45;&gt;Node48</title>
<path fill="none" stroke="midnightblue" d="M1003.38,-209.376C1013.08,-198.103 1028.61,-180.075 1040.33,-166.468"/>
<polygon fill="midnightblue" stroke="midnightblue" points="1043.17,-168.529 1047.04,-158.667 1037.87,-163.961 1043.17,-168.529"/>
</g>
<!-- Node44&#45;&gt;Node31 -->
<g id="edge150" class="edge"><title>Node44&#45;&gt;Node31</title>
<path fill="none" stroke="midnightblue" d="M939.399,-137.446C948.085,-134.849 957.471,-132.188 966.229,-130 1035.73,-112.639 1116.41,-97.0403 1171.14,-87.1243"/>
<polygon fill="midnightblue" stroke="midnightblue" points="1171.83,-90.5566 1181.05,-85.3397 1170.59,-83.6674 1171.83,-90.5566"/>
</g>
<!-- Node45 -->
<g id="node121" class="node"><title>Node45</title>
<polygon fill="white" stroke="#bfbfbf" points="883.229,-65.5 883.229,-86.5 929.229,-86.5 929.229,-65.5 883.229,-65.5"/>
<text text-anchor="middle" x="906.229" y="-73.5" font-family="Helvetica,sans-Serif" font-size="10.00">cstring</text>
</g>
<!-- Node44&#45;&gt;Node45 -->
<g id="edge152" class="edge"><title>Node44&#45;&gt;Node45</title>
<path fill="none" stroke="midnightblue" d="M906.229,-137.376C906.229,-126.741 906.229,-110.095 906.229,-96.8195"/>
<polygon fill="midnightblue" stroke="midnightblue" points="909.729,-96.6674 906.229,-86.6674 902.729,-96.6675 909.729,-96.6674"/>
</g>
<!-- Node44&#45;&gt;Node46 -->
<g id="edge154" class="edge"><title>Node44&#45;&gt;Node46</title>
<path fill="none" stroke="midnightblue" d="M873.619,-137.376C831.025,-123.499 757.015,-99.3873 715.571,-85.8853"/>
<polygon fill="midnightblue" stroke="midnightblue" points="716.612,-82.5435 706.02,-82.7736 714.444,-89.1992 716.612,-82.5435"/>
</g>
<!-- Node49&#45;&gt;Node18 -->
<g id="edge178" class="edge"><title>Node49&#45;&gt;Node18</title>
<path fill="none" stroke="midnightblue" d="M1758.89,-285.63C1727.53,-281.776 1686.05,-277.037 1649.23,-274 1341.41,-248.617 1258.06,-298.724 955.229,-238 862.189,-219.343 838.939,-208.762 754.229,-166 672.06,-124.521 584.206,-58.8943 544.673,-28.0642"/>
<polygon fill="midnightblue" stroke="midnightblue" points="546.583,-25.1139 536.556,-21.6917 542.261,-30.6199 546.583,-25.1139"/>
</g>
<!-- Node49&#45;&gt;Node21 -->
<g id="edge180" class="edge"><title>Node49&#45;&gt;Node21</title>
<path fill="none" stroke="midnightblue" d="M1814.36,-281.331C1826.14,-260.169 1851.62,-211.026 1861.23,-166 1866.2,-142.71 1865.96,-115.26 1864.95,-96.8529"/>
<polygon fill="midnightblue" stroke="midnightblue" points="1868.43,-96.4206 1864.27,-86.6789 1861.45,-96.8919 1868.43,-96.4206"/>
</g>
<!-- Node49&#45;&gt;Node25 -->
<g id="edge182" class="edge"><title>Node49&#45;&gt;Node25</title>
<path fill="none" stroke="midnightblue" d="M1857.25,-289.436C1950.27,-284.019 2158.55,-269.251 2331.23,-238 2345.03,-235.503 2360.13,-231.691 2372.67,-228.217"/>
<polygon fill="midnightblue" stroke="midnightblue" points="2373.86,-231.517 2382.52,-225.415 2371.95,-224.784 2373.86,-231.517"/>
</g>
<!-- Node49&#45;&gt;Node32 -->
<g id="edge186" class="edge"><title>Node49&#45;&gt;Node32</title>
<path fill="none" stroke="midnightblue" d="M1784.01,-281.393C1735.12,-259.939 1621.22,-209.712 1526.23,-166 1492.28,-150.376 1486.09,-140.529 1450.23,-130 1390.46,-112.451 1217.61,-136.67 1172.23,-94 1155.52,-78.2866 1153.25,-50.8155 1154.02,-31.8048"/>
<polygon fill="midnightblue" stroke="midnightblue" points="1157.51,-31.9654 1154.73,-21.742 1150.53,-31.4681 1157.51,-31.9654"/>
</g>
<!-- Node49&#45;&gt;Node41 -->
<g id="edge184" class="edge"><title>Node49&#45;&gt;Node41</title>
<path fill="none" stroke="midnightblue" d="M1808.03,-281.289C1807.4,-247.387 1805.45,-142.021 1804.62,-96.876"/>
<polygon fill="midnightblue" stroke="midnightblue" points="1808.11,-96.7096 1804.43,-86.7761 1801.11,-96.8392 1808.11,-96.7096"/>
</g>
<!-- Node50&#45;&gt;Node13 -->
<g id="edge236" class="edge"><title>Node50&#45;&gt;Node13</title>
<path fill="none" stroke="midnightblue" d="M451.977,-291.191C768.726,-287.308 2079.72,-269.454 2260.23,-238 2266.56,-236.896 2474.84,-169.508 2480.23,-166 2509.25,-147.102 2534.47,-115.248 2548.76,-94.9443"/>
<polygon fill="midnightblue" stroke="midnightblue" points="2551.77,-96.745 2554.53,-86.5162 2545.99,-92.7908 2551.77,-96.745"/>
</g>
<!-- Node50&#45;&gt;Node18 -->
<g id="edge232" class="edge"><title>Node50&#45;&gt;Node18</title>
<path fill="none" stroke="midnightblue" d="M334.089,-281.408C308.635,-273.503 279.029,-260.127 260.229,-238 207.345,-175.76 170.135,-120.06 223.229,-58 240.628,-37.6626 419.203,-20.0155 492.295,-13.5881"/>
<polygon fill="midnightblue" stroke="midnightblue" points="493.021,-17.0384 502.682,-12.6881 492.417,-10.0645 493.021,-17.0384"/>
</g>
<!-- Node50&#45;&gt;Node21 -->
<g id="edge230" class="edge"><title>Node50&#45;&gt;Node21</title>
<path fill="none" stroke="midnightblue" d="M451.939,-288.475C684.364,-276.055 1439.64,-231.515 1673.23,-166 1735.17,-148.628 1801.88,-112.516 1837.43,-91.703"/>
<polygon fill="midnightblue" stroke="midnightblue" points="1839.37,-94.6222 1846.19,-86.5141 1835.81,-88.5996 1839.37,-94.6222"/>
</g>
<!-- Node50&#45;&gt;Node22 -->
<g id="edge228" class="edge"><title>Node50&#45;&gt;Node22</title>
<path fill="none" stroke="midnightblue" d="M388.63,-281.387C398.517,-262.91 421.204,-224.649 450.229,-202 504.95,-159.3 712.078,-101.542 783.692,-82.4326"/>
<polygon fill="midnightblue" stroke="midnightblue" points="784.841,-85.7487 793.61,-79.8024 783.047,-78.9826 784.841,-85.7487"/>
</g>
<!-- Node51 -->
<g id="node151" class="node"><title>Node51</title>
<a xlink:href="_indicator__traits_8h.html" target="_top" xlink:title="calibration/gui/Indicator\l_traits.h">
<polygon fill="white" stroke="black" points="302.729,-59 302.729,-93 419.729,-93 419.729,-59 302.729,-59"/>
<text text-anchor="start" x="310.729" y="-80" font-family="Helvetica,sans-Serif" font-size="10.00">calibration/gui/Indicator</text>
<text text-anchor="middle" x="361.229" y="-67" font-family="Helvetica,sans-Serif" font-size="10.00">_traits.h</text>
</a>
</g>
<!-- Node50&#45;&gt;Node51 -->
<g id="edge200" class="edge"><title>Node50&#45;&gt;Node51</title>
<path fill="none" stroke="midnightblue" d="M335.512,-281.418C312.166,-273.577 286.151,-260.256 272.229,-238 242.404,-190.324 295.119,-132.006 331.345,-99.9577"/>
<polygon fill="midnightblue" stroke="midnightblue" points="333.949,-102.333 339.238,-93.153 329.379,-97.0315 333.949,-102.333"/>
</g>
<!-- Node52 -->
<g id="node154" class="node"><title>Node52</title>
<a xlink:href="_fit_function_8h.html" target="_top" xlink:title="calibration/fitfunctions\l/FitFunction.h">
<polygon fill="white" stroke="black" points="459.229,-203 459.229,-237 571.229,-237 571.229,-203 459.229,-203"/>
<text text-anchor="start" x="467.229" y="-224" font-family="Helvetica,sans-Serif" font-size="10.00">calibration/fitfunctions</text>
<text text-anchor="middle" x="515.229" y="-211" font-family="Helvetica,sans-Serif" font-size="10.00">/FitFunction.h</text>
</a>
</g>
<!-- Node50&#45;&gt;Node52 -->
<g id="edge204" class="edge"><title>Node50&#45;&gt;Node52</title>
<path fill="none" stroke="midnightblue" d="M402.706,-281.376C421.656,-271.04 451.017,-255.025 474.996,-241.945"/>
<polygon fill="midnightblue" stroke="midnightblue" points="476.786,-244.956 483.889,-237.094 473.434,-238.81 476.786,-244.956"/>
</g>
<!-- Node54 -->
<g id="node171" class="node"><title>Node54</title>
<polygon fill="white" stroke="#bfbfbf" points="362.729,-209.5 362.729,-230.5 403.729,-230.5 403.729,-209.5 362.729,-209.5"/>
<text text-anchor="middle" x="383.229" y="-217.5" font-family="Helvetica,sans-Serif" font-size="10.00">stack</text>
</g>
<!-- Node50&#45;&gt;Node54 -->
<g id="edge234" class="edge"><title>Node50&#45;&gt;Node54</title>
<path fill="none" stroke="midnightblue" d="M383.229,-281.376C383.229,-270.741 383.229,-254.095 383.229,-240.82"/>
<polygon fill="midnightblue" stroke="midnightblue" points="386.729,-240.667 383.229,-230.667 379.729,-240.667 386.729,-240.667"/>
</g>
<!-- Node55 -->
<g id="node174" class="node"><title>Node55</title>
<polygon fill="white" stroke="#bfbfbf" points="280.729,-209.5 280.729,-230.5 345.729,-230.5 345.729,-209.5 280.729,-209.5"/>
<text text-anchor="middle" x="313.229" y="-217.5" font-family="Helvetica,sans-Serif" font-size="10.00">TCanvas.h</text>
</g>
<!-- Node50&#45;&gt;Node55 -->
<g id="edge238" class="edge"><title>Node50&#45;&gt;Node55</title>
<path fill="none" stroke="midnightblue" d="M372.9,-281.376C361.837,-269.997 344.082,-251.735 330.811,-238.085"/>
<polygon fill="midnightblue" stroke="midnightblue" points="333.08,-235.398 323.6,-230.667 328.061,-240.277 333.08,-235.398"/>
</g>
<!-- Node51&#45;&gt;Node43 -->
<g id="edge202" class="edge"><title>Node51&#45;&gt;Node43</title>
<path fill="none" stroke="midnightblue" d="M361.229,-58.922C361.229,-50.6704 361.229,-40.6922 361.229,-31.9818"/>
<polygon fill="midnightblue" stroke="midnightblue" points="364.729,-31.8521 361.229,-21.8521 357.729,-31.8521 364.729,-31.8521"/>
</g>
<!-- Node52&#45;&gt;Node18 -->
<g id="edge226" class="edge"><title>Node52&#45;&gt;Node18</title>
<path fill="none" stroke="midnightblue" d="M515.883,-202.897C517.34,-164.854 520.843,-73.3312 522.427,-31.9469"/>
<polygon fill="midnightblue" stroke="midnightblue" points="525.926,-32.0348 522.811,-21.9082 518.931,-31.767 525.926,-32.0348"/>
</g>
<!-- Node52&#45;&gt;Node20 -->
<g id="edge218" class="edge"><title>Node52&#45;&gt;Node20</title>
<path fill="none" stroke="midnightblue" d="M571.286,-216.021C682.554,-207.956 939.141,-188.522 1154.23,-166 1178.35,-163.474 1204.69,-160.303 1228.17,-157.329"/>
<polygon fill="midnightblue" stroke="midnightblue" points="1228.91,-160.763 1238.39,-156.024 1228.03,-153.819 1228.91,-160.763"/>
</g>
<!-- Node52&#45;&gt;Node21 -->
<g id="edge222" class="edge"><title>Node52&#45;&gt;Node21</title>
<path fill="none" stroke="midnightblue" d="M571.375,-217.54C796.938,-207.627 1625.67,-170.909 1638.23,-166 1661.44,-156.928 1658.99,-141.257 1681.23,-130 1741.24,-99.6213 1765.22,-117.544 1828.23,-94 1830.64,-93.1001 1833.09,-92.076 1835.53,-90.9835"/>
<polygon fill="midnightblue" stroke="midnightblue" points="1837.23,-94.0521 1844.71,-86.5497 1834.18,-87.7495 1837.23,-94.0521"/>
</g>
<!-- Node52&#45;&gt;Node22 -->
<g id="edge224" class="edge"><title>Node52&#45;&gt;Node22</title>
<path fill="none" stroke="midnightblue" d="M549.99,-202.916C610.372,-173.24 733.103,-112.922 784.623,-87.6014"/>
<polygon fill="midnightblue" stroke="midnightblue" points="786.23,-90.7114 793.661,-83.1594 783.143,-84.4291 786.23,-90.7114"/>
</g>
<!-- Node52&#45;&gt;Node27 -->
<g id="edge216" class="edge"><title>Node52&#45;&gt;Node27</title>
<path fill="none" stroke="midnightblue" d="M571.614,-217.563C828.546,-206.459 1886.43,-160.74 2130.73,-150.182"/>
<polygon fill="midnightblue" stroke="midnightblue" points="2131.24,-153.664 2141.08,-149.735 2130.94,-146.67 2131.24,-153.664"/>
</g>
<!-- Node52&#45;&gt;Node43 -->
<g id="edge220" class="edge"><title>Node52&#45;&gt;Node43</title>
<path fill="none" stroke="midnightblue" d="M459.142,-208.962C411.902,-198.735 348.96,-182.634 329.229,-166 290.651,-133.477 270.949,-102.767 294.229,-58 301.245,-44.5087 314.104,-34.0833 326.695,-26.5183"/>
<polygon fill="midnightblue" stroke="midnightblue" points="328.678,-29.4209 335.729,-21.5125 325.285,-23.2982 328.678,-29.4209"/>
</g>
<!-- Node52&#45;&gt;Node51 -->
<g id="edge214" class="edge"><title>Node52&#45;&gt;Node51</title>
<path fill="none" stroke="midnightblue" d="M459.154,-210.132C413.581,-200.835 354.577,-185.443 340.229,-166 326.556,-147.472 334.813,-121.433 344.709,-102.127"/>
<polygon fill="midnightblue" stroke="midnightblue" points="347.84,-103.698 349.61,-93.2526 341.712,-100.314 347.84,-103.698"/>
</g>
<!-- Node53 -->
<g id="node156" class="node"><title>Node53</title>
<a xlink:href="_knobs_t_f1_8h.html" target="_top" xlink:title="KnobsTF1.h">
<polygon fill="white" stroke="black" points="349.229,-137.5 349.229,-158.5 419.229,-158.5 419.229,-137.5 349.229,-137.5"/>
<text text-anchor="middle" x="384.229" y="-145.5" font-family="Helvetica,sans-Serif" font-size="10.00">KnobsTF1.h</text>
</a>
</g>
<!-- Node52&#45;&gt;Node53 -->
<g id="edge206" class="edge"><title>Node52&#45;&gt;Node53</title>
<path fill="none" stroke="midnightblue" d="M484.184,-202.937C462.434,-190.983 433.599,-175.135 412.49,-163.533"/>
<polygon fill="midnightblue" stroke="midnightblue" points="414.124,-160.437 403.675,-158.688 410.753,-166.572 414.124,-160.437"/>
</g>
<!-- Node53&#45;&gt;Node18 -->
<g id="edge210" class="edge"><title>Node53&#45;&gt;Node18</title>
<path fill="none" stroke="midnightblue" d="M394.182,-137.243C410.116,-120.13 442.484,-85.7971 471.229,-58 481.617,-47.9546 493.556,-37.1155 503.373,-28.3806"/>
<polygon fill="midnightblue" stroke="midnightblue" points="505.866,-30.8481 511.039,-21.6018 501.229,-25.6042 505.866,-30.8481"/>
</g>
<!-- Node53&#45;&gt;Node24 -->
<g id="edge212" class="edge"><title>Node53&#45;&gt;Node24</title>
<path fill="none" stroke="midnightblue" d="M407.994,-137.474C454.528,-117.469 561.404,-74.4866 656.229,-58 800.383,-32.9366 1865.48,-15.0554 2085.52,-11.6064"/>
<polygon fill="midnightblue" stroke="midnightblue" points="2085.7,-15.1041 2095.65,-11.4486 2085.59,-8.10495 2085.7,-15.1041"/>
</g>
<!-- Node53&#45;&gt;Node51 -->
<g id="edge208" class="edge"><title>Node53&#45;&gt;Node51</title>
<path fill="none" stroke="midnightblue" d="M380.835,-137.376C377.926,-128.269 373.609,-114.754 369.765,-102.723"/>
<polygon fill="midnightblue" stroke="midnightblue" points="373.067,-101.555 366.689,-93.0944 366.398,-103.685 373.067,-101.555"/>
</g>
<!-- Node56&#45;&gt;Node52 -->
<g id="edge242" class="edge"><title>Node56&#45;&gt;Node52</title>
<path fill="none" stroke="midnightblue" d="M585.265,-346.25C573.405,-324.87 546.555,-276.47 529.76,-246.194"/>
<polygon fill="midnightblue" stroke="midnightblue" points="532.809,-244.476 524.898,-237.429 526.688,-247.872 532.809,-244.476"/>
</g>
<!-- Node57&#45;&gt;Node3 -->
<g id="edge246" class="edge"><title>Node57&#45;&gt;Node3</title>
<path fill="none" stroke="midnightblue" d="M1024.74,-412.319C1166.69,-403.151 1633.74,-372.985 1811.61,-361.497"/>
<polygon fill="midnightblue" stroke="midnightblue" points="1811.88,-364.987 1821.63,-360.849 1811.43,-358.001 1811.88,-364.987"/>
</g>
<!-- Node57&#45;&gt;Node18 -->
<g id="edge250" class="edge"><title>Node57&#45;&gt;Node18</title>
<path fill="none" stroke="midnightblue" d="M941.703,-412.508C785.934,-402.617 245.229,-363.157 245.229,-292 245.229,-292 245.229,-292 245.229,-220 245.229,-144.779 238.668,-108.707 294.229,-58 322.955,-31.7835 437.012,-18.4789 492.539,-13.4467"/>
<polygon fill="midnightblue" stroke="midnightblue" points="492.849,-16.933 502.507,-12.5756 492.24,-9.95959 492.849,-16.933"/>
</g>
<!-- Node57&#45;&gt;Node21 -->
<g id="edge252" class="edge"><title>Node57&#45;&gt;Node21</title>
<path fill="none" stroke="midnightblue" d="M1024.91,-411.086C1152.31,-398.71 1534.81,-358.367 1649.23,-310 1740.43,-271.446 1761.14,-246.19 1819.23,-166 1835.24,-143.895 1848.16,-115.069 1855.76,-96.07"/>
<polygon fill="midnightblue" stroke="midnightblue" points="1859.06,-97.22 1859.42,-86.631 1852.54,-94.6893 1859.06,-97.22"/>
</g>
<!-- Node57&#45;&gt;Node22 -->
<g id="edge248" class="edge"><title>Node57&#45;&gt;Node22</title>
<path fill="none" stroke="midnightblue" d="M941.633,-405.202C865.896,-386.144 713.229,-341.578 713.229,-292 713.229,-292 713.229,-292 713.229,-220 713.229,-178.602 714.177,-164.386 737.229,-130 749.155,-112.21 768.916,-97.8822 784.567,-88.4672"/>
<polygon fill="midnightblue" stroke="midnightblue" points="786.734,-91.2592 793.673,-83.2529 783.256,-85.1845 786.734,-91.2592"/>
</g>
<!-- Node58&#45;&gt;Node18 -->
<g id="edge258" class="edge"><title>Node58&#45;&gt;Node18</title>
<path fill="none" stroke="midnightblue" d="M80.658,-281.486C56.794,-273.714 30.4794,-260.435 16.2288,-238 -30.3928,-164.603 31.6455,-108.632 116.229,-58 132.391,-48.3251 400.555,-22.4737 492.545,-13.8469"/>
<polygon fill="midnightblue" stroke="midnightblue" points="492.986,-17.3211 502.617,-12.9053 492.335,-10.3514 492.986,-17.3211"/>
</g>
<!-- Node58&#45;&gt;Node42 -->
<g id="edge256" class="edge"><title>Node58&#45;&gt;Node42</title>
<path fill="none" stroke="midnightblue" d="M190.327,-285.562C224.228,-281.96 267.599,-277.502 306.229,-274 551.906,-251.727 847.436,-230.351 953.711,-222.837"/>
<polygon fill="midnightblue" stroke="midnightblue" points="953.961,-226.328 963.69,-222.132 953.468,-219.345 953.961,-226.328"/>
</g>
<!-- Node58&#45;&gt;Node46 -->
<g id="edge260" class="edge"><title>Node58&#45;&gt;Node46</title>
<path fill="none" stroke="midnightblue" d="M140.868,-281.467C168.577,-251.933 252.13,-168.01 340.229,-130 396.733,-105.621 580.587,-85.9482 654.272,-78.8491"/>
<polygon fill="midnightblue" stroke="midnightblue" points="654.692,-82.325 664.315,-77.8938 654.029,-75.3565 654.692,-82.325"/>
</g>
<!-- Node59 -->
<g id="node190" class="node"><title>Node59</title>
<a xlink:href="_git_info_8h.html" target="_top" xlink:title="base/GitInfo.h">
<polygon fill="white" stroke="black" points="25.2288,-209.5 25.2288,-230.5 103.229,-230.5 103.229,-209.5 25.2288,-209.5"/>
<text text-anchor="middle" x="64.2288" y="-217.5" font-family="Helvetica,sans-Serif" font-size="10.00">base/GitInfo.h</text>
</a>
</g>
<!-- Node58&#45;&gt;Node59 -->
<g id="edge262" class="edge"><title>Node58&#45;&gt;Node59</title>
<path fill="none" stroke="midnightblue" d="M121.343,-281.376C110.753,-269.997 93.7596,-251.735 81.0574,-238.085"/>
<polygon fill="midnightblue" stroke="midnightblue" points="83.53,-235.604 74.1554,-230.667 78.4055,-240.372 83.53,-235.604"/>
</g>
<!-- Node59&#45;&gt;Node18 -->
<g id="edge264" class="edge"><title>Node59&#45;&gt;Node18</title>
<path fill="none" stroke="midnightblue" d="M66.6509,-209.434C74.0464,-179.811 99.3197,-95.6786 155.229,-58 169.202,-48.5829 406.307,-23.1482 492.351,-14.1816"/>
<polygon fill="midnightblue" stroke="midnightblue" points="492.948,-17.6385 502.533,-13.124 492.225,-10.6759 492.948,-17.6385"/>
</g>
<!-- Node60&#45;&gt;Node5 -->
<g id="edge268" class="edge"><title>Node60&#45;&gt;Node5</title>
<path fill="none" stroke="midnightblue" d="M1833.48,-522.049C1836.43,-521.311 1839.36,-520.621 1842.23,-520 2146.45,-454.189 2275.02,-595.265 2536.23,-426 2595.91,-387.326 2595.22,-344.545 2586.23,-274 2584.79,-262.712 2581.72,-250.41 2578.82,-240.403"/>
<polygon fill="midnightblue" stroke="midnightblue" points="2582.1,-239.143 2575.83,-230.601 2575.4,-241.187 2582.1,-239.143"/>
</g>
<!-- Node60&#45;&gt;Node13 -->
<g id="edge308" class="edge"><title>Node60&#45;&gt;Node13</title>
<path fill="none" stroke="midnightblue" d="M1833.43,-521.784C1836.39,-521.113 1839.34,-520.51 1842.23,-520 2114.05,-472.017 2189,-523.172 2462.23,-484 2597.23,-464.645 2761.23,-551.381 2761.23,-415 2761.23,-415 2761.23,-415 2761.23,-220 2761.23,-172.653 2740.94,-159.906 2704.23,-130 2670.77,-102.742 2622.12,-88.3247 2591.08,-81.4331"/>
<polygon fill="midnightblue" stroke="midnightblue" points="2591.78,-78.0039 2581.27,-79.3768 2590.34,-84.8549 2591.78,-78.0039"/>
</g>
<!-- Node61 -->
<g id="node196" class="node"><title>Node61</title>
<a xlink:href="_unpacker_acqu_8h.html" target="_top" xlink:title="unpacker/UnpackerAcqu.h">
<polygon fill="white" stroke="black" points="1815.23,-462.5 1815.23,-483.5 1947.23,-483.5 1947.23,-462.5 1815.23,-462.5"/>
<text text-anchor="middle" x="1881.23" y="-470.5" font-family="Helvetica,sans-Serif" font-size="10.00">unpacker/UnpackerAcqu.h</text>
</a>
</g>
<!-- Node60&#45;&gt;Node61 -->
<g id="edge270" class="edge"><title>Node60&#45;&gt;Node61</title>
<path fill="none" stroke="midnightblue" d="M1808.24,-520.922C1823.14,-511.141 1841.73,-498.934 1856.42,-489.289"/>
<polygon fill="midnightblue" stroke="midnightblue" points="1858.56,-492.073 1865,-483.658 1854.72,-486.221 1858.56,-492.073"/>
</g>
<!-- Node64 -->
<g id="node219" class="node"><title>Node64</title>
<polygon fill="white" stroke="#bfbfbf" points="1964.73,-462.5 1964.73,-483.5 2013.73,-483.5 2013.73,-462.5 1964.73,-462.5"/>
<text text-anchor="middle" x="1989.23" y="-470.5" font-family="Helvetica,sans-Serif" font-size="10.00">cassert</text>
</g>
<!-- Node60&#45;&gt;Node64 -->
<g id="edge310" class="edge"><title>Node60&#45;&gt;Node64</title>
<path fill="none" stroke="midnightblue" d="M1833.33,-522.448C1865.74,-512.513 1908.8,-499.187 1954.57,-484.499"/>
<polygon fill="midnightblue" stroke="midnightblue" points="1955.93,-487.738 1964.38,-481.344 1953.79,-481.075 1955.93,-487.738"/>
</g>
<!-- Node65 -->
<g id="node221" class="node"><title>Node65</title>
<polygon fill="white" stroke="#bfbfbf" points="1743.23,-462.5 1743.23,-483.5 1797.23,-483.5 1797.23,-462.5 1743.23,-462.5"/>
<text text-anchor="middle" x="1770.23" y="-470.5" font-family="Helvetica,sans-Serif" font-size="10.00">iostream</text>
</g>
<!-- Node60&#45;&gt;Node65 -->
<g id="edge312" class="edge"><title>Node60&#45;&gt;Node65</title>
<path fill="none" stroke="midnightblue" d="M1779.08,-520.922C1777.54,-512.579 1775.67,-502.47 1774.05,-493.692"/>
<polygon fill="midnightblue" stroke="midnightblue" points="1777.49,-493.05 1772.23,-483.852 1770.61,-494.321 1777.49,-493.05"/>
</g>
<!-- Node61&#45;&gt;Node5 -->
<g id="edge294" class="edge"><title>Node61&#45;&gt;Node5</title>
<path fill="none" stroke="midnightblue" d="M1947.45,-462.993C1950.41,-462.638 1953.35,-462.304 1956.23,-462 2017.46,-455.527 2457.58,-459.53 2509.23,-426 2558.08,-394.281 2555.64,-366.393 2570.23,-310 2576.19,-286.945 2575.77,-259.45 2574.44,-240.968"/>
<polygon fill="midnightblue" stroke="midnightblue" points="2577.91,-240.405 2573.55,-230.746 2570.93,-241.012 2577.91,-240.405"/>
</g>
<!-- Node61&#45;&gt;Node13 -->
<g id="edge306" class="edge"><title>Node61&#45;&gt;Node13</title>
<path fill="none" stroke="midnightblue" d="M1947.34,-463.152C2037.54,-449.694 2188.38,-427.086 2191.23,-426 2363.44,-360.389 2400.4,-310.932 2514.23,-166 2531.32,-144.244 2545.12,-115.339 2553.24,-96.2266"/>
<polygon fill="midnightblue" stroke="midnightblue" points="2556.58,-97.3031 2557.15,-86.7237 2550.11,-94.6379 2556.58,-97.3031"/>
</g>
<!-- Node61&#45;&gt;Node14 -->
<g id="edge302" class="edge"><title>Node61&#45;&gt;Node14</title>
<path fill="none" stroke="midnightblue" d="M1947.44,-462.982C1950.41,-462.63 1953.35,-462.3 1956.23,-462 2213.11,-435.237 2286.65,-492.436 2536.23,-426 2788.62,-358.818 2925.33,-387.803 3063.23,-166 3095.92,-113.417 3031.91,-82.909 2975.23,-58 2922.5,-34.8317 2751.61,-19.1538 2679.65,-13.4218"/>
<polygon fill="midnightblue" stroke="midnightblue" points="2679.62,-9.90892 2669.38,-12.618 2679.07,-16.8876 2679.62,-9.90892"/>
</g>
<!-- Node61&#45;&gt;Node17 -->
<g id="edge304" class="edge"><title>Node61&#45;&gt;Node17</title>
<path fill="none" stroke="midnightblue" d="M1815,-463.13C1812.03,-462.738 1809.1,-462.359 1806.23,-462 1654.94,-443.089 1128.23,-509.463 1128.23,-357 1128.23,-357 1128.23,-357 1128.23,-292 1128.23,-248.236 1125.43,-197.056 1123.65,-169.022"/>
<polygon fill="midnightblue" stroke="midnightblue" points="1127.13,-168.583 1122.99,-158.832 1120.15,-169.039 1127.13,-168.583"/>
</g>
<!-- Node61&#45;&gt;Node21 -->
<g id="edge296" class="edge"><title>Node61&#45;&gt;Node21</title>
<path fill="none" stroke="midnightblue" d="M1871.32,-462.431C1855.39,-444.614 1824.68,-406.739 1813.23,-368 1810.46,-358.623 1808.65,-354.641 1813.23,-346 1826.56,-320.836 1852.9,-335.164 1866.23,-310 1903.66,-239.319 1881.75,-138.967 1869.63,-96.3763"/>
<polygon fill="midnightblue" stroke="midnightblue" points="1872.93,-95.2134 1866.73,-86.6244 1866.22,-97.2071 1872.93,-95.2134"/>
</g>
<!-- Node61&#45;&gt;Node22 -->
<g id="edge298" class="edge"><title>Node61&#45;&gt;Node22</title>
<path fill="none" stroke="midnightblue" d="M1815.02,-462.957C1812.05,-462.611 1809.11,-462.29 1806.23,-462 1661.63,-447.44 1291.84,-469.67 1153.23,-426 1002.07,-378.378 963.574,-348.768 850.229,-238 822.898,-211.291 814.126,-202.628 803.229,-166 796.36,-142.912 799.559,-115.051 803.202,-96.5034"/>
<polygon fill="midnightblue" stroke="midnightblue" points="806.667,-97.0418 805.383,-86.525 799.828,-95.5468 806.667,-97.0418"/>
</g>
<!-- Node61&#45;&gt;Node25 -->
<g id="edge300" class="edge"><title>Node61&#45;&gt;Node25</title>
<path fill="none" stroke="midnightblue" d="M1947.4,-463.324C2022.57,-452.075 2137.31,-434.029 2156.23,-426 2258.88,-382.443 2350.86,-280.16 2385.56,-238.324"/>
<polygon fill="midnightblue" stroke="midnightblue" points="2388.27,-240.532 2391.9,-230.577 2382.86,-236.097 2388.27,-240.532"/>
</g>
<!-- Node62 -->
<g id="node198" class="node"><title>Node62</title>
<a xlink:href="_unpacker_8h.html" target="_top" xlink:title="Unpacker.h">
<polygon fill="white" stroke="black" points="1374.73,-137.5 1374.73,-158.5 1441.73,-158.5 1441.73,-137.5 1374.73,-137.5"/>
<text text-anchor="middle" x="1408.23" y="-145.5" font-family="Helvetica,sans-Serif" font-size="10.00">Unpacker.h</text>
</a>
</g>
<!-- Node61&#45;&gt;Node62 -->
<g id="edge272" class="edge"><title>Node61&#45;&gt;Node62</title>
<path fill="none" stroke="midnightblue" d="M1815.08,-462.529C1644.73,-435.453 1204.23,-364.695 1204.23,-357 1204.23,-357 1204.23,-357 1204.23,-292 1204.23,-250.524 1318.2,-190.6 1375.77,-162.978"/>
<polygon fill="midnightblue" stroke="midnightblue" points="1377.3,-166.126 1384.83,-158.674 1374.29,-159.804 1377.3,-166.126"/>
</g>
<!-- Node63 -->
<g id="node202" class="node"><title>Node63</title>
<a xlink:href="_exp_config_8h.html" target="_top" xlink:title="expconfig/ExpConfig.h">
<polygon fill="white" stroke="black" points="1920.23,-404.5 1920.23,-425.5 2036.23,-425.5 2036.23,-404.5 1920.23,-404.5"/>
<text text-anchor="middle" x="1978.23" y="-412.5" font-family="Helvetica,sans-Serif" font-size="10.00">expconfig/ExpConfig.h</text>
</a>
</g>
<!-- Node61&#45;&gt;Node63 -->
<g id="edge278" class="edge"><title>Node61&#45;&gt;Node63</title>
<path fill="none" stroke="midnightblue" d="M1899.02,-462.362C1913.79,-453.532 1935.01,-440.844 1951.77,-430.822"/>
<polygon fill="midnightblue" stroke="midnightblue" points="1953.76,-433.707 1960.55,-425.571 1950.17,-427.699 1953.76,-433.707"/>
</g>
<!-- Node62&#45;&gt;Node18 -->
<g id="edge274" class="edge"><title>Node62&#45;&gt;Node18</title>
<path fill="none" stroke="midnightblue" d="M1386.85,-137.439C1380.36,-134.619 1373.13,-131.846 1366.23,-130 1235.23,-94.93 1196.16,-120.854 1063.23,-94 1006.56,-82.5519 994.929,-69.2926 938.229,-58 796.476,-29.7679 623.86,-17.0056 554.39,-12.7391"/>
<polygon fill="midnightblue" stroke="midnightblue" points="554.338,-9.22983 544.146,-12.1263 553.919,-16.2173 554.338,-9.22983"/>
</g>
<!-- Node62&#45;&gt;Node21 -->
<g id="edge276" class="edge"><title>Node62&#45;&gt;Node21</title>
<path fill="none" stroke="midnightblue" d="M1441.76,-142.587C1465.35,-138.851 1497.69,-133.877 1526.23,-130 1660.17,-111.806 1698.97,-133.536 1828.23,-94 1830.99,-93.1569 1833.78,-92.1028 1836.54,-90.9302"/>
<polygon fill="midnightblue" stroke="midnightblue" points="1838.06,-94.0812 1845.58,-86.6212 1835.05,-87.7614 1838.06,-94.0812"/>
</g>
<!-- Node63&#45;&gt;Node3 -->
<g id="edge284" class="edge"><title>Node63&#45;&gt;Node3</title>
<path fill="none" stroke="midnightblue" d="M1960.44,-404.362C1945.67,-395.532 1924.45,-382.844 1907.69,-372.822"/>
<polygon fill="midnightblue" stroke="midnightblue" points="1909.29,-369.699 1898.91,-367.571 1905.69,-375.707 1909.29,-369.699"/>
</g>
<!-- Node63&#45;&gt;Node4 -->
<g id="edge282" class="edge"><title>Node63&#45;&gt;Node4</title>
<path fill="none" stroke="midnightblue" d="M1997.72,-404.3C2034.21,-384.258 2113.56,-340.691 2161.98,-314.099"/>
<polygon fill="midnightblue" stroke="midnightblue" points="2163.86,-317.061 2170.94,-309.18 2160.49,-310.925 2163.86,-317.061"/>
</g>
<!-- Node63&#45;&gt;Node5 -->
<g id="edge280" class="edge"><title>Node63&#45;&gt;Node5</title>
<path fill="none" stroke="midnightblue" d="M2030.4,-404.476C2070.6,-395.919 2127.39,-382.861 2176.23,-368 2312.42,-326.562 2469.56,-262.957 2537.73,-234.562"/>
<polygon fill="midnightblue" stroke="midnightblue" points="2539.25,-237.72 2547.12,-230.635 2536.55,-231.261 2539.25,-237.72"/>
</g>
<!-- Node63&#45;&gt;Node6 -->
<g id="edge286" class="edge"><title>Node63&#45;&gt;Node6</title>
<path fill="none" stroke="midnightblue" d="M2036.58,-405.643C2086.06,-397.249 2158.75,-383.834 2221.23,-368 2498.88,-297.633 2667.61,-399.7 2833.23,-166 2847.89,-145.309 2838.35,-115.3 2829.14,-95.7183"/>
<polygon fill="midnightblue" stroke="midnightblue" points="2832.13,-93.8714 2824.49,-86.5337 2825.88,-97.0359 2832.13,-93.8714"/>
</g>
<!-- Node63&#45;&gt;Node21 -->
<g id="edge288" class="edge"><title>Node63&#45;&gt;Node21</title>
<path fill="none" stroke="midnightblue" d="M1974.66,-404.483C1958.5,-356.837 1891.99,-160.78 1870.19,-96.5078"/>
<polygon fill="midnightblue" stroke="midnightblue" points="1873.4,-95.0761 1866.87,-86.7306 1866.77,-97.3249 1873.4,-95.0761"/>
</g>
<!-- Node63&#45;&gt;Node22 -->
<g id="edge290" class="edge"><title>Node63&#45;&gt;Node22</title>
<path fill="none" stroke="midnightblue" d="M1920.1,-411.364C1761.43,-400.088 1309.16,-358.879 955.229,-238 890.507,-215.895 858.002,-222.34 819.229,-166 805.139,-145.526 804.245,-116.072 805.629,-96.5026"/>
<polygon fill="midnightblue" stroke="midnightblue" points="809.116,-96.8069 806.594,-86.5166 802.148,-96.1337 809.116,-96.8069"/>
</g>
<!-- Node63&#45;&gt;Node25 -->
<g id="edge292" class="edge"><title>Node63&#45;&gt;Node25</title>
<path fill="none" stroke="midnightblue" d="M2018.16,-404.462C2076.06,-388.365 2185.84,-354.746 2272.23,-310 2312.79,-288.988 2355.3,-256.743 2379.69,-237.092"/>
<polygon fill="midnightblue" stroke="midnightblue" points="2381.99,-239.735 2387.53,-230.705 2377.57,-234.308 2381.99,-239.735"/>
</g>
<!-- Node67 -->
<g id="node225" class="node"><title>Node67</title>
<polygon fill="white" stroke="#bfbfbf" points="2788.73,-462.5 2788.73,-483.5 2903.73,-483.5 2903.73,-462.5 2788.73,-462.5"/>
<text text-anchor="middle" x="2846.23" y="-470.5" font-family="Helvetica,sans-Serif" font-size="10.00">detail/easylogging++.h</text>
</g>
<!-- Node66&#45;&gt;Node67 -->
<g id="edge316" class="edge"><title>Node66&#45;&gt;Node67</title>
<path fill="none" stroke="midnightblue" d="M1914.21,-527.315C1921.75,-524.418 1930.21,-521.634 1938.23,-520 2303.09,-445.707 2404.68,-520.559 2775.23,-484 2776.31,-483.893 2777.41,-483.78 2778.51,-483.662"/>
<polygon fill="midnightblue" stroke="midnightblue" points="2779.04,-487.125 2788.56,-482.481 2778.22,-480.173 2779.04,-487.125"/>
</g>
</g>
</svg>
