<?xml version="1.0" encoding="UTF-8" standalone="no"?>
<!DOCTYPE svg PUBLIC "-//W3C//DTD SVG 1.1//EN"
 "http://www.w3.org/Graphics/SVG/1.1/DTD/svg11.dtd">
<!-- Generated by graphviz version 2.26.3 (20100126.1600)
 -->
<!-- Title: src/tree/TEvent.h Pages: 1 -->
<svg width="314pt" height="146pt"
 viewBox="0.00 0.00 314.00 146.00" xmlns="http://www.w3.org/2000/svg" xmlns:xlink="http://www.w3.org/1999/xlink">
<g id="graph1" class="graph" transform="scale(1 1) rotate(0) translate(4 142)">
<title>src/tree/TEvent.h</title>
<polygon fill="white" stroke="white" points="-4,5 -4,-142 311,-142 311,5 -4,5"/>
<!-- Node1 -->
<g id="node1" class="node"><title>Node1</title>
<polygon fill="#bfbfbf" stroke="black" points="114,-116.5 114,-137.5 206,-137.5 206,-116.5 114,-116.5"/>
<text text-anchor="middle" x="160" y="-124.5" font-family="Helvetica,sans-Serif" font-size="10.00">src/tree/TEvent.h</text>
</g>
<!-- Node2 -->
<g id="node3" class="node"><title>Node2</title>
<polygon fill="white" stroke="#bfbfbf" points="0,-58.5 0,-79.5 56,-79.5 56,-58.5 0,-58.5"/>
<text text-anchor="middle" x="28" y="-66.5" font-family="Helvetica,sans-Serif" font-size="10.00">Rtypes.h</text>
</g>
<!-- Node1&#45;&gt;Node2 -->
<g id="edge2" class="edge"><title>Node1&#45;&gt;Node2</title>
<path fill="none" stroke="midnightblue" d="M136.096,-116.497C115.2,-107.315 84.6437,-93.8889 61.345,-83.6516"/>
<polygon fill="midnightblue" stroke="midnightblue" points="62.7356,-80.4397 52.1724,-79.6212 59.9197,-86.8483 62.7356,-80.4397"/>
</g>
<!-- Node3 -->
<g id="node5" class="node"><title>Node3</title>
<a xlink:href="printable_8h.html" target="_top" xlink:title="base/printable.h">
<polygon fill="white" stroke="black" points="74,-58.5 74,-79.5 160,-79.5 160,-58.5 74,-58.5"/>
<text text-anchor="middle" x="117" y="-66.5" font-family="Helvetica,sans-Serif" font-size="10.00">base/printable.h</text>
</a>
</g>
<!-- Node1&#45;&gt;Node3 -->
<g id="edge4" class="edge"><title>Node1&#45;&gt;Node3</title>
<path fill="none" stroke="midnightblue" d="M152.113,-116.362C146.173,-108.35 137.878,-97.1605 130.841,-87.6696"/>
<polygon fill="midnightblue" stroke="midnightblue" points="133.604,-85.5193 124.837,-79.5707 127.981,-89.6883 133.604,-85.5193"/>
</g>
<!-- Node6 -->
<g id="node11" class="node"><title>Node6</title>
<polygon fill="white" stroke="#bfbfbf" points="178,-58.5 178,-79.5 230,-79.5 230,-58.5 178,-58.5"/>
<text text-anchor="middle" x="204" y="-66.5" font-family="Helvetica,sans-Serif" font-size="10.00">memory</text>
</g>
<!-- Node1&#45;&gt;Node6 -->
<g id="edge10" class="edge"><title>Node1&#45;&gt;Node6</title>
<path fill="none" stroke="midnightblue" d="M168.07,-116.362C174.149,-108.35 182.637,-97.1605 189.837,-87.6696"/>
<polygon fill="midnightblue" stroke="midnightblue" points="192.725,-89.653 195.981,-79.5707 187.149,-85.4222 192.725,-89.653"/>
</g>
<!-- Node7 -->
<g id="node13" class="node"><title>Node7</title>
<polygon fill="white" stroke="#bfbfbf" points="247.5,-58.5 247.5,-79.5 306.5,-79.5 306.5,-58.5 247.5,-58.5"/>
<text text-anchor="middle" x="277" y="-66.5" font-family="Helvetica,sans-Serif" font-size="10.00">stdexcept</text>
</g>
<!-- Node1&#45;&gt;Node7 -->
<g id="edge12" class="edge"><title>Node1&#45;&gt;Node7</title>
<path fill="none" stroke="midnightblue" d="M181.188,-116.497C199.462,-107.438 226.072,-94.2462 246.615,-84.0628"/>
<polygon fill="midnightblue" stroke="midnightblue" points="248.169,-87.1986 255.574,-79.6212 245.06,-80.9269 248.169,-87.1986"/>
</g>
<!-- Node4 -->
<g id="node7" class="node"><title>Node4</title>
<polygon fill="white" stroke="#bfbfbf" points="48,-0.5 48,-21.5 110,-21.5 110,-0.5 48,-0.5"/>
<text text-anchor="middle" x="79" y="-8.5" font-family="Helvetica,sans-Serif" font-size="10.00">type_traits</text>
</g>
<!-- Node3&#45;&gt;Node4 -->
<g id="edge6" class="edge"><title>Node3&#45;&gt;Node4</title>
<path fill="none" stroke="midnightblue" d="M110.03,-58.3619C104.834,-50.4313 97.5994,-39.3885 91.4225,-29.9606"/>
<polygon fill="midnightblue" stroke="midnightblue" points="94.3335,-28.0172 85.9256,-21.5707 88.4783,-31.8534 94.3335,-28.0172"/>
</g>
<!-- Node5 -->
<g id="node9" class="node"><title>Node5</title>
<polygon fill="white" stroke="#bfbfbf" points="128,-0.5 128,-21.5 180,-21.5 180,-0.5 128,-0.5"/>
<text text-anchor="middle" x="154" y="-8.5" font-family="Helvetica,sans-Serif" font-size="10.00">ostream</text>
</g>
<!-- Node3&#45;&gt;Node5 -->
<g id="edge8" class="edge"><title>Node3&#45;&gt;Node5</title>
<path fill="none" stroke="midnightblue" d="M123.786,-58.3619C128.793,-50.5131 135.745,-39.6159 141.718,-30.2527"/>
<polygon fill="midnightblue" stroke="midnightblue" points="144.829,-31.8837 147.257,-21.5707 138.928,-28.1189 144.829,-31.8837"/>
</g>
</g>
</svg>
