<?xml version="1.0" encoding="UTF-8" standalone="no"?>
<!DOCTYPE svg PUBLIC "-//W3C//DTD SVG 1.1//EN"
 "http://www.w3.org/Graphics/SVG/1.1/DTD/svg11.dtd">
<!-- Generated by graphviz version 2.26.3 (20100126.1600)
 -->
<!-- Title: src/root&#45;addons/cbtaps_display/TH2DrawTool.cc Pages: 1 -->
<svg width="423pt" height="276pt"
 viewBox="0.00 0.00 423.00 276.00" xmlns="http://www.w3.org/2000/svg" xmlns:xlink="http://www.w3.org/1999/xlink">
<g id="graph1" class="graph" transform="scale(1 1) rotate(0) translate(4 272)">
<title>src/root&#45;addons/cbtaps_display/TH2DrawTool.cc</title>
<polygon fill="white" stroke="white" points="-4,5 -4,-272 420,-272 420,5 -4,5"/>
<!-- Node1 -->
<g id="node1" class="node"><title>Node1</title>
<polygon fill="#bfbfbf" stroke="black" points="269,-233 269,-267 399,-267 399,-233 269,-233"/>
<text text-anchor="start" x="277" y="-254" font-family="Helvetica,sans-Serif" font-size="10.00">src/root&#45;addons/cbtaps</text>
<text text-anchor="middle" x="334" y="-241" font-family="Helvetica,sans-Serif" font-size="10.00">_display/TH2DrawTool.cc</text>
</g>
<!-- Node2 -->
<g id="node3" class="node"><title>Node2</title>
<a xlink:href="_t_h2_draw_tool_8h.html" target="_top" xlink:title="TH2DrawTool.h">
<polygon fill="white" stroke="black" points="245,-174.5 245,-195.5 331,-195.5 331,-174.5 245,-174.5"/>
<text text-anchor="middle" x="288" y="-182.5" font-family="Helvetica,sans-Serif" font-size="10.00">TH2DrawTool.h</text>
</a>
</g>
<!-- Node1&#45;&gt;Node2 -->
<g id="edge2" class="edge"><title>Node1&#45;&gt;Node2</title>
<path fill="none" stroke="midnightblue" d="M321.914,-232.922C315.685,-224.12 308.066,-213.354 301.628,-204.258"/>
<polygon fill="midnightblue" stroke="midnightblue" points="304.314,-201.993 295.68,-195.852 298.6,-206.037 304.314,-201.993"/>
</g>
<!-- Node12 -->
<g id="node23" class="node"><title>Node12</title>
<polygon fill="white" stroke="#bfbfbf" points="348.5,-174.5 348.5,-195.5 411.5,-195.5 411.5,-174.5 348.5,-174.5"/>
<text text-anchor="middle" x="380" y="-182.5" font-family="Helvetica,sans-Serif" font-size="10.00">TH2Poly.h</text>
</g>
<!-- Node1&#45;&gt;Node12 -->
<g id="edge22" class="edge"><title>Node1&#45;&gt;Node12</title>
<path fill="none" stroke="midnightblue" d="M346.086,-232.922C352.315,-224.12 359.934,-213.354 366.372,-204.258"/>
<polygon fill="midnightblue" stroke="midnightblue" points="369.4,-206.037 372.32,-195.852 363.686,-201.993 369.4,-206.037"/>
</g>
<!-- Node3 -->
<g id="node5" class="node"><title>Node3</title>
<a xlink:href="matrixstack_8h.html" target="_top" xlink:title="base/matrixstack.h">
<polygon fill="white" stroke="black" points="193,-116.5 193,-137.5 293,-137.5 293,-116.5 193,-116.5"/>
<text text-anchor="middle" x="243" y="-124.5" font-family="Helvetica,sans-Serif" font-size="10.00">base/matrixstack.h</text>
</a>
</g>
<!-- Node2&#45;&gt;Node3 -->
<g id="edge4" class="edge"><title>Node2&#45;&gt;Node3</title>
<path fill="none" stroke="midnightblue" d="M279.746,-174.362C273.53,-166.35 264.849,-155.161 257.485,-145.67"/>
<polygon fill="midnightblue" stroke="midnightblue" points="260.097,-143.326 251.201,-137.571 254.566,-147.617 260.097,-143.326"/>
</g>
<!-- Node11 -->
<g id="node21" class="node"><title>Node11</title>
<polygon fill="white" stroke="#bfbfbf" points="311,-116.5 311,-137.5 355,-137.5 355,-116.5 311,-116.5"/>
<text text-anchor="middle" x="333" y="-124.5" font-family="Helvetica,sans-Serif" font-size="10.00">vector</text>
</g>
<!-- Node2&#45;&gt;Node11 -->
<g id="edge20" class="edge"><title>Node2&#45;&gt;Node11</title>
<path fill="none" stroke="midnightblue" d="M296.254,-174.362C302.47,-166.35 311.151,-155.161 318.515,-145.67"/>
<polygon fill="midnightblue" stroke="midnightblue" points="321.434,-147.617 324.799,-137.571 315.903,-143.326 321.434,-147.617"/>
</g>
<!-- Node4 -->
<g id="node7" class="node"><title>Node4</title>
<a xlink:href="printable_8h.html" target="_top" xlink:title="base/printable.h">
<polygon fill="white" stroke="black" points="25,-58.5 25,-79.5 111,-79.5 111,-58.5 25,-58.5"/>
<text text-anchor="middle" x="68" y="-66.5" font-family="Helvetica,sans-Serif" font-size="10.00">base/printable.h</text>
</a>
</g>
<!-- Node3&#45;&gt;Node4 -->
<g id="edge6" class="edge"><title>Node3&#45;&gt;Node4</title>
<path fill="none" stroke="midnightblue" d="M211.309,-116.497C182.779,-107.041 140.664,-93.0829 109.465,-82.7428"/>
<polygon fill="midnightblue" stroke="midnightblue" points="110.344,-79.3468 99.7506,-79.5231 108.142,-85.9914 110.344,-79.3468"/>
</g>
<!-- Node7 -->
<g id="node13" class="node"><title>Node7</title>
<polygon fill="white" stroke="#bfbfbf" points="128.5,-58.5 128.5,-79.5 193.5,-79.5 193.5,-58.5 128.5,-58.5"/>
<text text-anchor="middle" x="161" y="-66.5" font-family="Helvetica,sans-Serif" font-size="10.00">TVectorT.h</text>
</g>
<!-- Node3&#45;&gt;Node7 -->
<g id="edge12" class="edge"><title>Node3&#45;&gt;Node7</title>
<path fill="none" stroke="midnightblue" d="M227.96,-116.362C215.707,-107.696 198.201,-95.3126 184.161,-85.3819"/>
<polygon fill="midnightblue" stroke="midnightblue" points="186.13,-82.4879 175.945,-79.5707 182.088,-88.2028 186.13,-82.4879"/>
</g>
<!-- Node8 -->
<g id="node15" class="node"><title>Node8</title>
<polygon fill="white" stroke="#bfbfbf" points="211,-58.5 211,-79.5 275,-79.5 275,-58.5 211,-58.5"/>
<text text-anchor="middle" x="243" y="-66.5" font-family="Helvetica,sans-Serif" font-size="10.00">TMatrixT.h</text>
</g>
<!-- Node3&#45;&gt;Node8 -->
<g id="edge14" class="edge"><title>Node3&#45;&gt;Node8</title>
<path fill="none" stroke="midnightblue" d="M243,-116.362C243,-108.922 243,-98.7427 243,-89.7276"/>
<polygon fill="midnightblue" stroke="midnightblue" points="246.5,-89.5706 243,-79.5707 239.5,-89.5707 246.5,-89.5706"/>
</g>
<!-- Node9 -->
<g id="node17" class="node"><title>Node9</title>
<polygon fill="white" stroke="#bfbfbf" points="292.5,-58.5 292.5,-79.5 357.5,-79.5 357.5,-58.5 292.5,-58.5"/>
<text text-anchor="middle" x="325" y="-66.5" font-family="Helvetica,sans-Serif" font-size="10.00">TVector2.h</text>
</g>
<!-- Node3&#45;&gt;Node9 -->
<g id="edge16" class="edge"><title>Node3&#45;&gt;Node9</title>
<path fill="none" stroke="midnightblue" d="M258.04,-116.362C270.293,-107.696 287.799,-95.3126 301.839,-85.3819"/>
<polygon fill="midnightblue" stroke="midnightblue" points="303.912,-88.2028 310.055,-79.5707 299.87,-82.4879 303.912,-88.2028"/>
</g>
<!-- Node10 -->
<g id="node19" class="node"><title>Node10</title>
<polygon fill="white" stroke="#bfbfbf" points="374.5,-58.5 374.5,-79.5 415.5,-79.5 415.5,-58.5 374.5,-58.5"/>
<text text-anchor="middle" x="395" y="-66.5" font-family="Helvetica,sans-Serif" font-size="10.00">stack</text>
</g>
<!-- Node3&#45;&gt;Node10 -->
<g id="edge18" class="edge"><title>Node3&#45;&gt;Node10</title>
<path fill="none" stroke="midnightblue" d="M270.526,-116.497C297.194,-106.321 337.528,-90.93 365.003,-80.4462"/>
<polygon fill="midnightblue" stroke="midnightblue" points="366.399,-83.6596 374.494,-76.8245 363.904,-77.1196 366.399,-83.6596"/>
</g>
<!-- Node5 -->
<g id="node9" class="node"><title>Node5</title>
<polygon fill="white" stroke="#bfbfbf" points="0,-0.5 0,-21.5 62,-21.5 62,-0.5 0,-0.5"/>
<text text-anchor="middle" x="31" y="-8.5" font-family="Helvetica,sans-Serif" font-size="10.00">type_traits</text>
</g>
<!-- Node4&#45;&gt;Node5 -->
<g id="edge8" class="edge"><title>Node4&#45;&gt;Node5</title>
<path fill="none" stroke="midnightblue" d="M61.2136,-58.3619C56.2066,-50.5131 49.255,-39.6159 43.2819,-30.2527"/>
<polygon fill="midnightblue" stroke="midnightblue" points="46.0723,-28.1189 37.7433,-21.5707 40.1708,-31.8837 46.0723,-28.1189"/>
</g>
<!-- Node6 -->
<g id="node11" class="node"><title>Node6</title>
<polygon fill="white" stroke="#bfbfbf" points="80,-0.5 80,-21.5 132,-21.5 132,-0.5 80,-0.5"/>
<text text-anchor="middle" x="106" y="-8.5" font-family="Helvetica,sans-Serif" font-size="10.00">ostream</text>
</g>
<!-- Node4&#45;&gt;Node6 -->
<g id="edge10" class="edge"><title>Node4&#45;&gt;Node6</title>
<path fill="none" stroke="midnightblue" d="M74.9698,-58.3619C80.1657,-50.4313 87.4006,-39.3885 93.5775,-29.9606"/>
<polygon fill="midnightblue" stroke="midnightblue" points="96.5217,-31.8534 99.0744,-21.5707 90.6665,-28.0172 96.5217,-31.8534"/>
</g>
</g>
</svg>
