<?xml version="1.0" encoding="UTF-8" standalone="no"?>
<!DOCTYPE svg PUBLIC "-//W3C//DTD SVG 1.1//EN"
 "http://www.w3.org/Graphics/SVG/1.1/DTD/svg11.dtd">
<!-- Generated by graphviz version 2.26.3 (20100126.1600)
 -->
<!-- Title: src/root&#45;addons/cbtaps_display/TH2Crystals.h Pages: 1 -->
<svg width="3418pt" height="272pt"
 viewBox="0.00 0.00 3418.00 272.00" xmlns="http://www.w3.org/2000/svg" xmlns:xlink="http://www.w3.org/1999/xlink">
<g id="graph1" class="graph" transform="scale(1 1) rotate(0) translate(4 268)">
<title>src/root&#45;addons/cbtaps_display/TH2Crystals.h</title>
<polygon fill="white" stroke="white" points="-4,5 -4,-268 3415,-268 3415,5 -4,5"/>
<!-- Node1 -->
<g id="node1" class="node"><title>Node1</title>
<polygon fill="#bfbfbf" stroke="black" points="1863.5,-229 1863.5,-263 1982.5,-263 1982.5,-229 1863.5,-229"/>
<text text-anchor="start" x="1871.5" y="-250" font-family="Helvetica,sans-Serif" font-size="10.00">src/root&#45;addons/cbtaps</text>
<text text-anchor="middle" x="1923" y="-237" font-family="Helvetica,sans-Serif" font-size="10.00">_display/TH2Crystals.h</text>
</g>
<!-- Node2 -->
<g id="node3" class="node"><title>Node2</title>
<a xlink:href="_t_h2_c_b_8h.html" target="_top" xlink:title="src/root&#45;addons/cbtaps\l_display/TH2CB.h">
<polygon fill="white" stroke="black" points="1865,-157 1865,-191 1981,-191 1981,-157 1865,-157"/>
<text text-anchor="start" x="1873" y="-178" font-family="Helvetica,sans-Serif" font-size="10.00">src/root&#45;addons/cbtaps</text>
<text text-anchor="middle" x="1923" y="-165" font-family="Helvetica,sans-Serif" font-size="10.00">_display/TH2CB.h</text>
</a>
</g>
<!-- Node1&#45;&gt;Node2 -->
<g id="edge2" class="edge"><title>Node1&#45;&gt;Node2</title>
<path fill="none" stroke="midnightblue" d="M1923,-218.719C1923,-209.572 1923,-199.625 1923,-191.441"/>
<polygon fill="midnightblue" stroke="midnightblue" points="1919.5,-218.937 1923,-228.937 1926.5,-218.937 1919.5,-218.937"/>
</g>
<!-- Node26 -->
<g id="node51" class="node"><title>Node26</title>
<a xlink:href="_t_h2_t_a_p_s_8h.html" target="_top" xlink:title="src/root&#45;addons/cbtaps\l_display/TH2TAPS.h">
<polygon fill="white" stroke="black" points="750,-157 750,-191 866,-191 866,-157 750,-157"/>
<text text-anchor="start" x="758" y="-178" font-family="Helvetica,sans-Serif" font-size="10.00">src/root&#45;addons/cbtaps</text>
<text text-anchor="middle" x="808" y="-165" font-family="Helvetica,sans-Serif" font-size="10.00">_display/TH2TAPS.h</text>
</a>
</g>
<!-- Node1&#45;&gt;Node26 -->
<g id="edge50" class="edge"><title>Node1&#45;&gt;Node26</title>
<path fill="none" stroke="midnightblue" d="M1853.45,-241.509C1649.44,-228.335 1055.08,-189.955 866.282,-177.763"/>
<polygon fill="midnightblue" stroke="midnightblue" points="1853.24,-245.003 1863.45,-242.154 1853.69,-238.017 1853.24,-245.003"/>
</g>
<!-- Node33 -->
<g id="node70" class="node"><title>Node33</title>
<a xlink:href="_t_h2_crystals_8cc.html" target="_top" xlink:title="src/root&#45;addons/cbtaps\l_display/TH2Crystals.cc">
<polygon fill="white" stroke="black" points="1998.5,-157 1998.5,-191 2123.5,-191 2123.5,-157 1998.5,-157"/>
<text text-anchor="start" x="2006.5" y="-178" font-family="Helvetica,sans-Serif" font-size="10.00">src/root&#45;addons/cbtaps</text>
<text text-anchor="middle" x="2061" y="-165" font-family="Helvetica,sans-Serif" font-size="10.00">_display/TH2Crystals.cc</text>
</a>
</g>
<!-- Node1&#45;&gt;Node33 -->
<g id="edge74" class="edge"><title>Node1&#45;&gt;Node33</title>
<path fill="none" stroke="midnightblue" d="M1964.73,-224.226C1985.03,-213.638 2009.07,-201.094 2028.05,-191.19"/>
<polygon fill="midnightblue" stroke="midnightblue" points="1962.95,-221.208 1955.7,-228.937 1966.19,-227.414 1962.95,-221.208"/>
</g>
<!-- Node3 -->
<g id="node5" class="node"><title>Node3</title>
<a xlink:href="_xmas_c_b_8cc.html" target="_top" xlink:title="progs/XmasCB.cc">
<polygon fill="white" stroke="black" points="2381.5,-85.5 2381.5,-106.5 2478.5,-106.5 2478.5,-85.5 2381.5,-85.5"/>
<text text-anchor="middle" x="2430" y="-93.5" font-family="Helvetica,sans-Serif" font-size="10.00">progs/XmasCB.cc</text>
</a>
</g>
<!-- Node2&#45;&gt;Node3 -->
<g id="edge4" class="edge"><title>Node2&#45;&gt;Node3</title>
<path fill="none" stroke="midnightblue" d="M1991.3,-155.952C2160.17,-127.053 2210.34,-160.863 2373,-120 2385.39,-116.887 2398.58,-111.482 2409.15,-106.589"/>
<polygon fill="midnightblue" stroke="midnightblue" points="1990.58,-152.526 1981.33,-157.707 1991.79,-159.42 1990.58,-152.526"/>
</g>
<!-- Node4 -->
<g id="node7" class="node"><title>Node4</title>
<a xlink:href="analysis_2physics_2calibration_2_c_b___energy_8h.html" target="_top" xlink:title="src/analysis/physics\l/calibration/CB_Energy.h">
<polygon fill="white" stroke="black" points="2495.5,-79 2495.5,-113 2620.5,-113 2620.5,-79 2495.5,-79"/>
<text text-anchor="start" x="2503.5" y="-100" font-family="Helvetica,sans-Serif" font-size="10.00">src/analysis/physics</text>
<text text-anchor="middle" x="2558" y="-87" font-family="Helvetica,sans-Serif" font-size="10.00">/calibration/CB_Energy.h</text>
</a>
</g>
<!-- Node2&#45;&gt;Node4 -->
<g id="edge6" class="edge"><title>Node2&#45;&gt;Node4</title>
<path fill="none" stroke="midnightblue" d="M1991.19,-155.991C2210.21,-120.394 2273.09,-163.17 2487,-120 2495.55,-118.275 2504.48,-115.81 2513.02,-113.109"/>
<polygon fill="midnightblue" stroke="midnightblue" points="1990.61,-152.54 1981.32,-157.632 1991.76,-159.445 1990.61,-152.54"/>
</g>
<!-- Node6 -->
<g id="node11" class="node"><title>Node6</title>
<a xlink:href="analysis_2physics_2calibration_2_c_b___source_calib_8h.html" target="_top" xlink:title="src/analysis/physics\l/calibration/CB_SourceCalib.h">
<polygon fill="white" stroke="black" points="2638,-79 2638,-113 2786,-113 2786,-79 2638,-79"/>
<text text-anchor="start" x="2646" y="-100" font-family="Helvetica,sans-Serif" font-size="10.00">src/analysis/physics</text>
<text text-anchor="middle" x="2712" y="-87" font-family="Helvetica,sans-Serif" font-size="10.00">/calibration/CB_SourceCalib.h</text>
</a>
</g>
<!-- Node2&#45;&gt;Node6 -->
<g id="edge10" class="edge"><title>Node2&#45;&gt;Node6</title>
<path fill="none" stroke="midnightblue" d="M1991.4,-155.975C2272.7,-112.179 2351.88,-167.249 2629,-120 2639.05,-118.286 2649.62,-115.789 2659.73,-113.046"/>
<polygon fill="midnightblue" stroke="midnightblue" points="1990.64,-152.552 1981.31,-157.575 1991.74,-159.466 1990.64,-152.552"/>
</g>
<!-- Node8 -->
<g id="node15" class="node"><title>Node8</title>
<a xlink:href="_data_overview_8cc.html" target="_top" xlink:title="src/analysis/physics\l/common/DataOverview.cc">
<polygon fill="white" stroke="black" points="2804,-79 2804,-113 2940,-113 2940,-79 2804,-79"/>
<text text-anchor="start" x="2812" y="-100" font-family="Helvetica,sans-Serif" font-size="10.00">src/analysis/physics</text>
<text text-anchor="middle" x="2872" y="-87" font-family="Helvetica,sans-Serif" font-size="10.00">/common/DataOverview.cc</text>
</a>
</g>
<!-- Node2&#45;&gt;Node8 -->
<g id="edge14" class="edge"><title>Node2&#45;&gt;Node8</title>
<path fill="none" stroke="midnightblue" d="M1991.33,-156.002C2345.77,-102.698 2445.51,-181.223 2795,-120 2804.52,-118.333 2814.5,-115.821 2824,-113.041"/>
<polygon fill="midnightblue" stroke="midnightblue" points="1990.66,-152.563 1981.31,-157.534 1991.72,-159.483 1990.66,-152.563"/>
</g>
<!-- Node9 -->
<g id="node17" class="node"><title>Node9</title>
<a xlink:href="_event_display_hists_8cc.html" target="_top" xlink:title="src/analysis/physics\l/common/EventDisplayHists.cc">
<polygon fill="white" stroke="black" points="1213.5,-79 1213.5,-113 1368.5,-113 1368.5,-79 1213.5,-79"/>
<text text-anchor="start" x="1221.5" y="-100" font-family="Helvetica,sans-Serif" font-size="10.00">src/analysis/physics</text>
<text text-anchor="middle" x="1291" y="-87" font-family="Helvetica,sans-Serif" font-size="10.00">/common/EventDisplayHists.cc</text>
</a>
</g>
<!-- Node2&#45;&gt;Node9 -->
<g id="edge16" class="edge"><title>Node2&#45;&gt;Node9</title>
<path fill="none" stroke="midnightblue" d="M1854.71,-171.055C1750.8,-165.72 1547.11,-151.899 1377,-120 1367.1,-118.143 1356.68,-115.682 1346.64,-113.043"/>
<polygon fill="midnightblue" stroke="midnightblue" points="1854.59,-174.553 1864.75,-171.56 1854.94,-167.562 1854.59,-174.553"/>
</g>
<!-- Node10 -->
<g id="node19" class="node"><title>Node10</title>
<a xlink:href="_meson_dalitz_decays_8h.html" target="_top" xlink:title="src/analysis/physics\l/common/MesonDalitzDecays.h">
<polygon fill="white" stroke="black" points="2957.5,-79 2957.5,-113 3114.5,-113 3114.5,-79 2957.5,-79"/>
<text text-anchor="start" x="2965.5" y="-100" font-family="Helvetica,sans-Serif" font-size="10.00">src/analysis/physics</text>
<text text-anchor="middle" x="3036" y="-87" font-family="Helvetica,sans-Serif" font-size="10.00">/common/MesonDalitzDecays.h</text>
</a>
</g>
<!-- Node2&#45;&gt;Node10 -->
<g id="edge18" class="edge"><title>Node2&#45;&gt;Node10</title>
<path fill="none" stroke="midnightblue" d="M1991.33,-156.009C2413.56,-93.707 2530.78,-184.64 2949,-120 2959.68,-118.349 2970.93,-115.844 2981.66,-113.066"/>
<polygon fill="midnightblue" stroke="midnightblue" points="1990.67,-152.568 1981.3,-157.509 1991.71,-159.491 1990.67,-152.568"/>
</g>
<!-- Node13 -->
<g id="node25" class="node"><title>Node13</title>
<a xlink:href="etaprime__dalitz_8h.html" target="_top" xlink:title="src/analysis/physics\l/etaprime/etaprime_dalitz.h">
<polygon fill="white" stroke="black" points="3132,-79 3132,-113 3266,-113 3266,-79 3132,-79"/>
<text text-anchor="start" x="3140" y="-100" font-family="Helvetica,sans-Serif" font-size="10.00">src/analysis/physics</text>
<text text-anchor="middle" x="3199" y="-87" font-family="Helvetica,sans-Serif" font-size="10.00">/etaprime/etaprime_dalitz.h</text>
</a>
</g>
<!-- Node2&#45;&gt;Node13 -->
<g id="edge24" class="edge"><title>Node2&#45;&gt;Node13</title>
<path fill="none" stroke="midnightblue" d="M1991.28,-156.025C2490.2,-83.7569 2629.63,-204.092 3123,-120 3132.55,-118.373 3142.56,-115.841 3152.06,-113.021"/>
<polygon fill="midnightblue" stroke="midnightblue" points="1990.68,-152.574 1981.3,-157.489 1991.7,-159.5 1990.68,-152.574"/>
</g>
<!-- Node16 -->
<g id="node31" class="node"><title>Node16</title>
<a xlink:href="_goat_comparison_8cc.html" target="_top" xlink:title="src/analysis/physics\l/misc/GoatComparison.cc">
<polygon fill="white" stroke="black" points="1385.5,-79 1385.5,-113 1516.5,-113 1516.5,-79 1385.5,-79"/>
<text text-anchor="start" x="1393.5" y="-100" font-family="Helvetica,sans-Serif" font-size="10.00">src/analysis/physics</text>
<text text-anchor="middle" x="1451" y="-87" font-family="Helvetica,sans-Serif" font-size="10.00">/misc/GoatComparison.cc</text>
</a>
</g>
<!-- Node2&#45;&gt;Node16 -->
<g id="edge30" class="edge"><title>Node2&#45;&gt;Node16</title>
<path fill="none" stroke="midnightblue" d="M1854.33,-168.442C1774.47,-161.114 1639.02,-146.006 1525,-120 1516.57,-118.078 1507.73,-115.617 1499.22,-113.007"/>
<polygon fill="midnightblue" stroke="midnightblue" points="1854.47,-171.969 1864.75,-169.382 1855.1,-164.997 1854.47,-171.969"/>
</g>
<!-- Node17 -->
<g id="node33" class="node"><title>Node17</title>
<a xlink:href="_x_mas_c_b_8cc.html" target="_top" xlink:title="src/analysis/physics\l/misc/XMasCB.cc">
<polygon fill="white" stroke="black" points="1534,-79 1534,-113 1640,-113 1640,-79 1534,-79"/>
<text text-anchor="start" x="1542" y="-100" font-family="Helvetica,sans-Serif" font-size="10.00">src/analysis/physics</text>
<text text-anchor="middle" x="1587" y="-87" font-family="Helvetica,sans-Serif" font-size="10.00">/misc/XMasCB.cc</text>
</a>
</g>
<!-- Node2&#45;&gt;Node17 -->
<g id="edge32" class="edge"><title>Node2&#45;&gt;Node17</title>
<path fill="none" stroke="midnightblue" d="M1854.69,-163.944C1798.77,-154.902 1717.94,-139.97 1649,-120 1642.13,-118.009 1634.95,-115.574 1628.01,-113.028"/>
<polygon fill="midnightblue" stroke="midnightblue" points="1854.41,-167.442 1864.83,-165.563 1855.51,-160.53 1854.41,-167.442"/>
</g>
<!-- Node18 -->
<g id="node35" class="node"><title>Node18</title>
<a xlink:href="calibration_2modules_2_c_b___energy_8cc.html" target="_top" xlink:title="src/calibration/modules\l/CB_Energy.cc">
<polygon fill="white" stroke="black" points="1657.5,-79 1657.5,-113 1774.5,-113 1774.5,-79 1657.5,-79"/>
<text text-anchor="start" x="1665.5" y="-100" font-family="Helvetica,sans-Serif" font-size="10.00">src/calibration/modules</text>
<text text-anchor="middle" x="1716" y="-87" font-family="Helvetica,sans-Serif" font-size="10.00">/CB_Energy.cc</text>
</a>
</g>
<!-- Node2&#45;&gt;Node18 -->
<g id="edge34" class="edge"><title>Node2&#45;&gt;Node18</title>
<path fill="none" stroke="midnightblue" d="M1868.24,-153.365C1834.93,-140.813 1792.89,-124.973 1761.43,-113.119"/>
<polygon fill="midnightblue" stroke="midnightblue" points="1867.24,-156.728 1877.83,-156.979 1869.71,-150.178 1867.24,-156.728"/>
</g>
<!-- Node19 -->
<g id="node37" class="node"><title>Node19</title>
<a xlink:href="calibration_2modules_2_c_b___source_calib_8cc.html" target="_top" xlink:title="src/calibration/modules\l/CB_SourceCalib.cc">
<polygon fill="white" stroke="black" points="1791.5,-79 1791.5,-113 1908.5,-113 1908.5,-79 1791.5,-79"/>
<text text-anchor="start" x="1799.5" y="-100" font-family="Helvetica,sans-Serif" font-size="10.00">src/calibration/modules</text>
<text text-anchor="middle" x="1850" y="-87" font-family="Helvetica,sans-Serif" font-size="10.00">/CB_SourceCalib.cc</text>
</a>
</g>
<!-- Node2&#45;&gt;Node19 -->
<g id="edge36" class="edge"><title>Node2&#45;&gt;Node19</title>
<path fill="none" stroke="midnightblue" d="M1899.91,-149.324C1888.93,-137.594 1876.07,-123.856 1866.16,-113.262"/>
<polygon fill="midnightblue" stroke="midnightblue" points="1897.41,-151.78 1906.8,-156.689 1902.52,-146.996 1897.41,-151.78"/>
</g>
<!-- Node20 -->
<g id="node39" class="node"><title>Node20</title>
<a xlink:href="_c_b_e_sum___check_8cc.html" target="_top" xlink:title="src/root&#45;addons/analysis\l_codes/CBESum_Check.cc">
<polygon fill="white" stroke="black" points="1926,-79 1926,-113 2066,-113 2066,-79 1926,-79"/>
<text text-anchor="start" x="1934" y="-100" font-family="Helvetica,sans-Serif" font-size="10.00">src/root&#45;addons/analysis</text>
<text text-anchor="middle" x="1996" y="-87" font-family="Helvetica,sans-Serif" font-size="10.00">_codes/CBESum_Check.cc</text>
</a>
</g>
<!-- Node2&#45;&gt;Node20 -->
<g id="edge38" class="edge"><title>Node2&#45;&gt;Node20</title>
<path fill="none" stroke="midnightblue" d="M1946.09,-149.324C1957.07,-137.594 1969.93,-123.856 1979.84,-113.262"/>
<polygon fill="midnightblue" stroke="midnightblue" points="1943.48,-146.996 1939.2,-156.689 1948.59,-151.78 1943.48,-146.996"/>
</g>
<!-- Node21 -->
<g id="node41" class="node"><title>Node21</title>
<a xlink:href="_detector_plots_8cc.html" target="_top" xlink:title="src/root&#45;addons/analysis\l_codes/DetectorPlots.cc">
<polygon fill="white" stroke="black" points="745.5,-79 745.5,-113 870.5,-113 870.5,-79 745.5,-79"/>
<text text-anchor="start" x="753.5" y="-100" font-family="Helvetica,sans-Serif" font-size="10.00">src/root&#45;addons/analysis</text>
<text text-anchor="middle" x="808" y="-87" font-family="Helvetica,sans-Serif" font-size="10.00">_codes/DetectorPlots.cc</text>
</a>
</g>
<!-- Node2&#45;&gt;Node21 -->
<g id="edge40" class="edge"><title>Node2&#45;&gt;Node21</title>
<path fill="none" stroke="midnightblue" d="M1854.88,-172.91C1654.11,-169.314 1067.03,-155.933 879,-120 870.182,-118.315 860.959,-115.794 852.191,-113.012"/>
<polygon fill="midnightblue" stroke="midnightblue" points="1854.93,-176.412 1864.99,-173.089 1855.06,-169.413 1854.93,-176.412"/>
</g>
<!-- Node22 -->
<g id="node43" class="node"><title>Node22</title>
<a xlink:href="_display_clustering_8cc.html" target="_top" xlink:title="src/root&#45;addons/analysis\l_codes/DisplayClustering.cc">
<polygon fill="white" stroke="black" points="888,-79 888,-113 1030,-113 1030,-79 888,-79"/>
<text text-anchor="start" x="896" y="-100" font-family="Helvetica,sans-Serif" font-size="10.00">src/root&#45;addons/analysis</text>
<text text-anchor="middle" x="959" y="-87" font-family="Helvetica,sans-Serif" font-size="10.00">_codes/DisplayClustering.cc</text>
</a>
</g>
<!-- Node2&#45;&gt;Node22 -->
<g id="edge42" class="edge"><title>Node2&#45;&gt;Node22</title>
<path fill="none" stroke="midnightblue" d="M1854.78,-171.866C1675.73,-165.941 1195.48,-147.865 1039,-120 1029.29,-118.271 1019.1,-115.768 1009.36,-113.023"/>
<polygon fill="midnightblue" stroke="midnightblue" points="1854.75,-175.367 1864.86,-172.198 1854.98,-168.371 1854.75,-175.367"/>
</g>
<!-- Node23 -->
<g id="node45" class="node"><title>Node23</title>
<a xlink:href="root-addons_2analysis__codes_2_extract_resolutions_8cc.html" target="_top" xlink:title="src/root&#45;addons/analysis\l_codes/ExtractResolutions.cc">
<polygon fill="white" stroke="black" points="1048,-79 1048,-113 1196,-113 1196,-79 1048,-79"/>
<text text-anchor="start" x="1056" y="-100" font-family="Helvetica,sans-Serif" font-size="10.00">src/root&#45;addons/analysis</text>
<text text-anchor="middle" x="1122" y="-87" font-family="Helvetica,sans-Serif" font-size="10.00">_codes/ExtractResolutions.cc</text>
</a>
</g>
<!-- Node2&#45;&gt;Node23 -->
<g id="edge44" class="edge"><title>Node2&#45;&gt;Node23</title>
<path fill="none" stroke="midnightblue" d="M1854.67,-170.665C1700.32,-162.838 1328.57,-142.265 1205,-120 1195.11,-118.218 1184.71,-115.725 1174.75,-113.015"/>
<polygon fill="midnightblue" stroke="midnightblue" points="1854.8,-174.176 1864.96,-171.184 1855.15,-167.184 1854.8,-174.176"/>
</g>
<!-- Node24 -->
<g id="node47" class="node"><title>Node24</title>
<a xlink:href="_two_pi0___m_c_smearing__tools_8cc.html" target="_top" xlink:title="src/root&#45;addons/analysis\l_codes/TwoPi0_MCSmearing\l_tools.cc">
<polygon fill="white" stroke="black" points="2084,-72.5 2084,-119.5 2230,-119.5 2230,-72.5 2084,-72.5"/>
<text text-anchor="start" x="2092" y="-106.5" font-family="Helvetica,sans-Serif" font-size="10.00">src/root&#45;addons/analysis</text>
<text text-anchor="start" x="2092" y="-93.5" font-family="Helvetica,sans-Serif" font-size="10.00">_codes/TwoPi0_MCSmearing</text>
<text text-anchor="middle" x="2157" y="-80.5" font-family="Helvetica,sans-Serif" font-size="10.00">_tools.cc</text>
</a>
</g>
<!-- Node2&#45;&gt;Node24 -->
<g id="edge46" class="edge"><title>Node2&#45;&gt;Node24</title>
<path fill="none" stroke="midnightblue" d="M1983.95,-153.682C2015.22,-143.259 2053.49,-130.504 2086.08,-119.642"/>
<polygon fill="midnightblue" stroke="midnightblue" points="1982.44,-150.496 1974.06,-156.979 1984.66,-157.137 1982.44,-150.496"/>
</g>
<!-- Node25 -->
<g id="node49" class="node"><title>Node25</title>
<a xlink:href="_t_h2_c_b_8cc.html" target="_top" xlink:title="src/root&#45;addons/cbtaps\l_display/TH2CB.cc">
<polygon fill="white" stroke="black" points="2248,-79 2248,-113 2364,-113 2364,-79 2248,-79"/>
<text text-anchor="start" x="2256" y="-100" font-family="Helvetica,sans-Serif" font-size="10.00">src/root&#45;addons/cbtaps</text>
<text text-anchor="middle" x="2306" y="-87" font-family="Helvetica,sans-Serif" font-size="10.00">_display/TH2CB.cc</text>
</a>
</g>
<!-- Node2&#45;&gt;Node25 -->
<g id="edge48" class="edge"><title>Node2&#45;&gt;Node25</title>
<path fill="none" stroke="midnightblue" d="M1990.87,-155.972C2101.34,-134.188 2133.56,-146.225 2239,-120 2246.67,-118.091 2254.7,-115.637 2262.42,-113.029"/>
<polygon fill="midnightblue" stroke="midnightblue" points="1990.11,-152.553 1981,-157.964 1991.5,-159.415 1990.11,-152.553"/>
</g>
<!-- Node5 -->
<g id="node9" class="node"><title>Node5</title>
<a xlink:href="analysis_2physics_2calibration_2_c_b___energy_8cc.html" target="_top" xlink:title="src/analysis/physics\l/calibration/CB_Energy.cc">
<polygon fill="white" stroke="black" points="2488.5,-1 2488.5,-35 2619.5,-35 2619.5,-1 2488.5,-1"/>
<text text-anchor="start" x="2496.5" y="-22" font-family="Helvetica,sans-Serif" font-size="10.00">src/analysis/physics</text>
<text text-anchor="middle" x="2554" y="-9" font-family="Helvetica,sans-Serif" font-size="10.00">/calibration/CB_Energy.cc</text>
</a>
</g>
<!-- Node4&#45;&gt;Node5 -->
<g id="edge8" class="edge"><title>Node4&#45;&gt;Node5</title>
<path fill="none" stroke="midnightblue" d="M2556.6,-68.6102C2556.03,-57.5188 2555.39,-45.0489 2554.89,-35.2623"/>
<polygon fill="midnightblue" stroke="midnightblue" points="2553.1,-68.8817 2557.11,-78.6893 2560.1,-68.5231 2553.1,-68.8817"/>
</g>
<!-- Node7 -->
<g id="node13" class="node"><title>Node7</title>
<a xlink:href="analysis_2physics_2calibration_2_c_b___source_calib_8cc.html" target="_top" xlink:title="src/analysis/physics\l/calibration/CB_SourceCalib.cc">
<polygon fill="white" stroke="black" points="2636.5,-1 2636.5,-35 2789.5,-35 2789.5,-1 2636.5,-1"/>
<text text-anchor="start" x="2644.5" y="-22" font-family="Helvetica,sans-Serif" font-size="10.00">src/analysis/physics</text>
<text text-anchor="middle" x="2713" y="-9" font-family="Helvetica,sans-Serif" font-size="10.00">/calibration/CB_SourceCalib.cc</text>
</a>
</g>
<!-- Node6&#45;&gt;Node7 -->
<g id="edge12" class="edge"><title>Node6&#45;&gt;Node7</title>
<path fill="none" stroke="midnightblue" d="M2712.35,-68.6102C2712.49,-57.5188 2712.65,-45.0489 2712.78,-35.2623"/>
<polygon fill="midnightblue" stroke="midnightblue" points="2708.85,-68.6452 2712.22,-78.6893 2715.85,-68.735 2708.85,-68.6452"/>
</g>
<!-- Node11 -->
<g id="node21" class="node"><title>Node11</title>
<a xlink:href="_eta_dalitz__plot_8cc.html" target="_top" xlink:title="Plotting tool for TTrees from the ant::analysis::physics::common::MesonDalitzDecays physics class...">
<polygon fill="white" stroke="black" points="2988.5,-7.5 2988.5,-28.5 3107.5,-28.5 3107.5,-7.5 2988.5,-7.5"/>
<text text-anchor="middle" x="3048" y="-15.5" font-family="Helvetica,sans-Serif" font-size="10.00">progs/EtaDalitz_plot.cc</text>
</a>
</g>
<!-- Node10&#45;&gt;Node11 -->
<g id="edge20" class="edge"><title>Node10&#45;&gt;Node11</title>
<path fill="none" stroke="midnightblue" d="M3040.2,-68.715C3042.31,-54.9569 3044.76,-39.0546 3046.34,-28.779"/>
<polygon fill="midnightblue" stroke="midnightblue" points="3036.72,-68.2733 3038.66,-78.6893 3043.64,-69.3378 3036.72,-68.2733"/>
</g>
<!-- Node12 -->
<g id="node23" class="node"><title>Node12</title>
<a xlink:href="_meson_dalitz_decays_8cc.html" target="_top" xlink:title="Physics class to investigate Dalitz decays for different mesons. ">
<polygon fill="white" stroke="black" points="2809,-1 2809,-35 2971,-35 2971,-1 2809,-1"/>
<text text-anchor="start" x="2817" y="-22" font-family="Helvetica,sans-Serif" font-size="10.00">src/analysis/physics</text>
<text text-anchor="middle" x="2890" y="-9" font-family="Helvetica,sans-Serif" font-size="10.00">/common/MesonDalitzDecays.cc</text>
</a>
</g>
<!-- Node10&#45;&gt;Node12 -->
<g id="edge22" class="edge"><title>Node10&#45;&gt;Node12</title>
<path fill="none" stroke="midnightblue" d="M2995.06,-74.1282C2971.93,-61.7706 2943.44,-46.5498 2921.97,-35.0775"/>
<polygon fill="midnightblue" stroke="midnightblue" points="2993.49,-77.2574 3003.96,-78.8826 2996.79,-71.0833 2993.49,-77.2574"/>
</g>
<!-- Node14 -->
<g id="node27" class="node"><title>Node14</title>
<a xlink:href="_etap_dalitz__plot_8cc.html" target="_top" xlink:title="Plotting tool for TTrees from the ant::analysis::physics::etaprime::etaprime_dalitz physics class...">
<polygon fill="white" stroke="black" points="3286,-7.5 3286,-28.5 3410,-28.5 3410,-7.5 3286,-7.5"/>
<text text-anchor="middle" x="3348" y="-15.5" font-family="Helvetica,sans-Serif" font-size="10.00">progs/EtapDalitz_plot.cc</text>
</a>
</g>
<!-- Node13&#45;&gt;Node14 -->
<g id="edge26" class="edge"><title>Node13&#45;&gt;Node14</title>
<path fill="none" stroke="midnightblue" d="M3240.62,-74.213C3269.04,-59.333 3305.46,-40.2708 3327.74,-28.6063"/>
<polygon fill="midnightblue" stroke="midnightblue" points="3238.93,-71.1438 3231.7,-78.8826 3242.18,-77.3455 3238.93,-71.1438"/>
</g>
<!-- Node15 -->
<g id="node29" class="node"><title>Node15</title>
<a xlink:href="etaprime__dalitz_8cc.html" target="_top" xlink:title="src/analysis/physics\l/etaprime/etaprime_dalitz.cc">
<polygon fill="white" stroke="black" points="3128,-1 3128,-35 3268,-35 3268,-1 3128,-1"/>
<text text-anchor="start" x="3136" y="-22" font-family="Helvetica,sans-Serif" font-size="10.00">src/analysis/physics</text>
<text text-anchor="middle" x="3198" y="-9" font-family="Helvetica,sans-Serif" font-size="10.00">/etaprime/etaprime_dalitz.cc</text>
</a>
</g>
<!-- Node13&#45;&gt;Node15 -->
<g id="edge28" class="edge"><title>Node13&#45;&gt;Node15</title>
<path fill="none" stroke="midnightblue" d="M3198.65,-68.6102C3198.51,-57.5188 3198.35,-45.0489 3198.22,-35.2623"/>
<polygon fill="midnightblue" stroke="midnightblue" points="3195.15,-68.735 3198.78,-78.6893 3202.15,-68.6452 3195.15,-68.735"/>
</g>
<!-- Node26&#45;&gt;Node9 -->
<g id="edge56" class="edge"><title>Node26&#45;&gt;Node9</title>
<path fill="none" stroke="midnightblue" d="M876.652,-167.548C956.183,-159.407 1090.91,-143.563 1205,-120 1214.41,-118.056 1224.31,-115.646 1233.9,-113.11"/>
<polygon fill="midnightblue" stroke="midnightblue" points="875.876,-164.108 866.28,-168.597 876.581,-171.072 875.876,-164.108"/>
</g>
<!-- Node26&#45;&gt;Node16 -->
<g id="edge60" class="edge"><title>Node26&#45;&gt;Node16</title>
<path fill="none" stroke="midnightblue" d="M876.446,-172.331C984.041,-168.63 1198.86,-156.877 1377,-120 1385.73,-118.193 1394.88,-115.723 1403.64,-113.051"/>
<polygon fill="midnightblue" stroke="midnightblue" points="876.252,-168.835 866.373,-172.665 876.484,-175.832 876.252,-168.835"/>
</g>
<!-- Node26&#45;&gt;Node21 -->
<g id="edge66" class="edge"><title>Node26&#45;&gt;Node21</title>
<path fill="none" stroke="midnightblue" d="M808,-146.61C808,-135.519 808,-123.049 808,-113.262"/>
<polygon fill="midnightblue" stroke="midnightblue" points="804.5,-146.689 808,-156.689 811.5,-146.689 804.5,-146.689"/>
</g>
<!-- Node26&#45;&gt;Node22 -->
<g id="edge68" class="edge"><title>Node26&#45;&gt;Node22</title>
<path fill="none" stroke="midnightblue" d="M850.024,-152.292C874.004,-139.905 903.632,-124.601 925.94,-113.078"/>
<polygon fill="midnightblue" stroke="midnightblue" points="848.416,-149.183 841.138,-156.883 851.629,-155.403 848.416,-149.183"/>
</g>
<!-- Node26&#45;&gt;Node23 -->
<g id="edge70" class="edge"><title>Node26&#45;&gt;Node23</title>
<path fill="none" stroke="midnightblue" d="M875.999,-159.078C922.135,-148.715 984.428,-134.258 1039,-120 1047.27,-117.839 1055.98,-115.45 1064.51,-113.042"/>
<polygon fill="midnightblue" stroke="midnightblue" points="875.108,-155.691 866.114,-161.291 876.637,-162.522 875.108,-155.691"/>
</g>
<!-- Node27 -->
<g id="node53" class="node"><title>Node27</title>
<a xlink:href="analysis_2physics_2calibration_2_t_a_p_s___energy_8h.html" target="_top" xlink:title="src/analysis/physics\l/calibration/TAPS_Energy.h">
<polygon fill="white" stroke="black" points="269.5,-79 269.5,-113 406.5,-113 406.5,-79 269.5,-79"/>
<text text-anchor="start" x="277.5" y="-100" font-family="Helvetica,sans-Serif" font-size="10.00">src/analysis/physics</text>
<text text-anchor="middle" x="338" y="-87" font-family="Helvetica,sans-Serif" font-size="10.00">/calibration/TAPS_Energy.h</text>
</a>
</g>
<!-- Node26&#45;&gt;Node27 -->
<g id="edge52" class="edge"><title>Node26&#45;&gt;Node27</title>
<path fill="none" stroke="midnightblue" d="M739.573,-168.065C660.681,-160.425 527.42,-145.062 415,-120 406.39,-118.081 397.354,-115.652 388.624,-113.082"/>
<polygon fill="midnightblue" stroke="midnightblue" points="739.577,-171.582 749.864,-169.048 740.242,-164.613 739.577,-171.582"/>
</g>
<!-- Node29 -->
<g id="node58" class="node"><title>Node29</title>
<a xlink:href="_m_c_reconstruct_check_8cc.html" target="_top" xlink:title="src/analysis/physics\l/common/MCReconstructCheck.cc">
<polygon fill="white" stroke="black" points="423.5,-79 423.5,-113 594.5,-113 594.5,-79 423.5,-79"/>
<text text-anchor="start" x="431.5" y="-100" font-family="Helvetica,sans-Serif" font-size="10.00">src/analysis/physics</text>
<text text-anchor="middle" x="509" y="-87" font-family="Helvetica,sans-Serif" font-size="10.00">/common/MCReconstructCheck.cc</text>
</a>
</g>
<!-- Node26&#45;&gt;Node29 -->
<g id="edge58" class="edge"><title>Node26&#45;&gt;Node29</title>
<path fill="none" stroke="midnightblue" d="M740.301,-156.339C690.615,-143.378 623.513,-125.873 574.38,-113.056"/>
<polygon fill="midnightblue" stroke="midnightblue" points="739.436,-159.731 749.995,-158.868 741.203,-152.957 739.436,-159.731"/>
</g>
<!-- Node30 -->
<g id="node61" class="node"><title>Node30</title>
<a xlink:href="calibration_2modules_2_t_a_p_s___energy_8cc.html" target="_top" xlink:title="src/calibration/modules\l/TAPS_Energy.cc">
<polygon fill="white" stroke="black" points="611.5,-79 611.5,-113 728.5,-113 728.5,-79 611.5,-79"/>
<text text-anchor="start" x="619.5" y="-100" font-family="Helvetica,sans-Serif" font-size="10.00">src/calibration/modules</text>
<text text-anchor="middle" x="670" y="-87" font-family="Helvetica,sans-Serif" font-size="10.00">/TAPS_Energy.cc</text>
</a>
</g>
<!-- Node26&#45;&gt;Node30 -->
<g id="edge62" class="edge"><title>Node26&#45;&gt;Node30</title>
<path fill="none" stroke="midnightblue" d="M768.722,-151.799C746.964,-139.501 720.332,-124.448 700.214,-113.078"/>
<polygon fill="midnightblue" stroke="midnightblue" points="767.287,-155.009 777.715,-156.883 770.732,-148.915 767.287,-155.009"/>
</g>
<!-- Node31 -->
<g id="node63" class="node"><title>Node31</title>
<a xlink:href="calibration_2modules_2_t_a_p_s___short_energy_8cc.html" target="_top" xlink:title="src/calibration/modules\l/TAPS_ShortEnergy.cc">
<polygon fill="white" stroke="black" points="-0.5,-79 -0.5,-113 118.5,-113 118.5,-79 -0.5,-79"/>
<text text-anchor="start" x="7.5" y="-100" font-family="Helvetica,sans-Serif" font-size="10.00">src/calibration/modules</text>
<text text-anchor="middle" x="59" y="-87" font-family="Helvetica,sans-Serif" font-size="10.00">/TAPS_ShortEnergy.cc</text>
</a>
</g>
<!-- Node26&#45;&gt;Node31 -->
<g id="edge64" class="edge"><title>Node26&#45;&gt;Node31</title>
<path fill="none" stroke="midnightblue" d="M739.41,-170.83C590.672,-163.586 242.561,-144.536 127,-120 118.795,-118.258 110.227,-115.784 102.048,-113.08"/>
<polygon fill="midnightblue" stroke="midnightblue" points="739.611,-174.344 749.768,-171.331 739.949,-167.352 739.611,-174.344"/>
</g>
<!-- Node32 -->
<g id="node68" class="node"><title>Node32</title>
<a xlink:href="_t_h2_t_a_p_s_8cc.html" target="_top" xlink:title="src/root&#45;addons/cbtaps\l_display/TH2TAPS.cc">
<polygon fill="white" stroke="black" points="136,-79 136,-113 252,-113 252,-79 136,-79"/>
<text text-anchor="start" x="144" y="-100" font-family="Helvetica,sans-Serif" font-size="10.00">src/root&#45;addons/cbtaps</text>
<text text-anchor="middle" x="194" y="-87" font-family="Helvetica,sans-Serif" font-size="10.00">_display/TH2TAPS.cc</text>
</a>
</g>
<!-- Node26&#45;&gt;Node32 -->
<g id="edge72" class="edge"><title>Node26&#45;&gt;Node32</title>
<path fill="none" stroke="midnightblue" d="M739.681,-172.62C635.3,-169.314 430.391,-158.09 261,-120 253.044,-118.211 244.737,-115.749 236.789,-113.08"/>
<polygon fill="midnightblue" stroke="midnightblue" points="739.668,-176.121 749.769,-172.925 739.879,-169.125 739.668,-176.121"/>
</g>
<!-- Node28 -->
<g id="node55" class="node"><title>Node28</title>
<a xlink:href="analysis_2physics_2calibration_2_t_a_p_s___energy_8cc.html" target="_top" xlink:title="src/analysis/physics\l/calibration/TAPS_Energy.cc">
<polygon fill="white" stroke="black" points="266.5,-1 266.5,-35 409.5,-35 409.5,-1 266.5,-1"/>
<text text-anchor="start" x="274.5" y="-22" font-family="Helvetica,sans-Serif" font-size="10.00">src/analysis/physics</text>
<text text-anchor="middle" x="338" y="-9" font-family="Helvetica,sans-Serif" font-size="10.00">/calibration/TAPS_Energy.cc</text>
</a>
</g>
<!-- Node27&#45;&gt;Node28 -->
<g id="edge54" class="edge"><title>Node27&#45;&gt;Node28</title>
<path fill="none" stroke="midnightblue" d="M338,-68.6102C338,-57.5188 338,-45.0489 338,-35.2623"/>
<polygon fill="midnightblue" stroke="midnightblue" points="334.5,-68.6892 338,-78.6893 341.5,-68.6893 334.5,-68.6892"/>
</g>
</g>
</svg>
