<?xml version="1.0" encoding="UTF-8" standalone="no"?>
<!DOCTYPE svg PUBLIC "-//W3C//DTD SVG 1.1//EN"
 "http://www.w3.org/Graphics/SVG/1.1/DTD/svg11.dtd">
<!-- Generated by graphviz version 2.26.3 (20100126.1600)
 -->
<!-- Title: src/base/TH_ext.h Pages: 1 -->
<svg width="584pt" height="114pt"
 viewBox="0.00 0.00 584.00 114.00" xmlns="http://www.w3.org/2000/svg" xmlns:xlink="http://www.w3.org/1999/xlink">
<g id="graph1" class="graph" transform="scale(1 1) rotate(0) translate(4 110)">
<title>src/base/TH_ext.h</title>
<polygon fill="white" stroke="white" points="-4,5 -4,-110 581,-110 581,5 -4,5"/>
<!-- Node1 -->
<g id="node1" class="node"><title>Node1</title>
<polygon fill="#bfbfbf" stroke="black" points="235,-84.5 235,-105.5 333,-105.5 333,-84.5 235,-84.5"/>
<text text-anchor="middle" x="284" y="-92.5" font-family="Helvetica,sans-Serif" font-size="10.00">src/base/TH_ext.h</text>
</g>
<!-- Node2 -->
<g id="node3" class="node"><title>Node2</title>
<a xlink:href="_ant-make_sigmas_8cc.html" target="_top" xlink:title="progs/Ant&#45;makeSigmas.cc">
<polygon fill="white" stroke="black" points="0,-13.5 0,-34.5 132,-34.5 132,-13.5 0,-13.5"/>
<text text-anchor="middle" x="66" y="-21.5" font-family="Helvetica,sans-Serif" font-size="10.00">progs/Ant&#45;makeSigmas.cc</text>
</a>
</g>
<!-- Node1&#45;&gt;Node2 -->
<g id="edge2" class="edge"><title>Node1&#45;&gt;Node2</title>
<path fill="none" stroke="midnightblue" d="M241.726,-81.232C199.845,-67.5918 136.602,-46.9942 98.5034,-34.586"/>
<polygon fill="midnightblue" stroke="midnightblue" points="240.771,-84.6017 251.363,-84.3706 242.939,-77.9458 240.771,-84.6017"/>
</g>
<!-- Node3 -->
<g id="node5" class="node"><title>Node3</title>
<a xlink:href="_ant-mcsmearing_8cc.html" target="_top" xlink:title="progs/Ant&#45;mcsmearing.cc">
<polygon fill="white" stroke="black" points="150,-13.5 150,-34.5 278,-34.5 278,-13.5 150,-13.5"/>
<text text-anchor="middle" x="214" y="-21.5" font-family="Helvetica,sans-Serif" font-size="10.00">progs/Ant&#45;mcsmearing.cc</text>
</a>
</g>
<!-- Node1&#45;&gt;Node3 -->
<g id="edge4" class="edge"><title>Node1&#45;&gt;Node3</title>
<path fill="none" stroke="midnightblue" d="M266.237,-76.983C253.146,-63.7054 235.768,-46.0793 224.732,-34.8849"/>
<polygon fill="midnightblue" stroke="midnightblue" points="263.855,-79.5528 273.369,-84.2166 268.84,-74.6383 263.855,-79.5528"/>
</g>
<!-- Node4 -->
<g id="node7" class="node"><title>Node4</title>
<a xlink:href="_triple_pi0__plot_8cc.html" target="_top" xlink:title="progs/TriplePi0_plot.cc">
<polygon fill="white" stroke="black" points="296,-13.5 296,-34.5 412,-34.5 412,-13.5 296,-13.5"/>
<text text-anchor="middle" x="354" y="-21.5" font-family="Helvetica,sans-Serif" font-size="10.00">progs/TriplePi0_plot.cc</text>
</a>
</g>
<!-- Node1&#45;&gt;Node4 -->
<g id="edge6" class="edge"><title>Node1&#45;&gt;Node4</title>
<path fill="none" stroke="midnightblue" d="M301.763,-76.983C314.854,-63.7054 332.232,-46.0793 343.268,-34.8849"/>
<polygon fill="midnightblue" stroke="midnightblue" points="299.16,-74.6383 294.631,-84.2166 304.145,-79.5528 299.16,-74.6383"/>
</g>
<!-- Node5 -->
<g id="node9" class="node"><title>Node5</title>
<a xlink:href="_two_pi0___m_c_smearing__tools_8cc.html" target="_top" xlink:title="src/root&#45;addons/analysis\l_codes/TwoPi0_MCSmearing\l_tools.cc">
<polygon fill="white" stroke="black" points="430,-0.5 430,-47.5 576,-47.5 576,-0.5 430,-0.5"/>
<text text-anchor="start" x="438" y="-34.5" font-family="Helvetica,sans-Serif" font-size="10.00">src/root&#45;addons/analysis</text>
<text text-anchor="start" x="438" y="-21.5" font-family="Helvetica,sans-Serif" font-size="10.00">_codes/TwoPi0_MCSmearing</text>
<text text-anchor="middle" x="503" y="-8.5" font-family="Helvetica,sans-Serif" font-size="10.00">_tools.cc</text>
</a>
</g>
<!-- Node1&#45;&gt;Node5 -->
<g id="edge8" class="edge"><title>Node1&#45;&gt;Node5</title>
<path fill="none" stroke="midnightblue" d="M326.325,-81.2782C355.708,-71.7523 395.607,-58.8168 430.055,-47.6489"/>
<polygon fill="midnightblue" stroke="midnightblue" points="325.22,-77.9571 316.787,-84.3706 327.379,-84.6159 325.22,-77.9571"/>
</g>
</g>
</svg>
