<?xml version="1.0" encoding="UTF-8" standalone="no"?>
<!DOCTYPE svg PUBLIC "-//W3C//DTD SVG 1.1//EN"
 "http://www.w3.org/Graphics/SVG/1.1/DTD/svg11.dtd">
<!-- Generated by graphviz version 2.26.3 (20100126.1600)
 -->
<!-- Title: src/calibration/modules/detail/TH2Storage.h Pages: 1 -->
<svg width="568pt" height="128pt"
 viewBox="0.00 0.00 568.00 128.00" xmlns="http://www.w3.org/2000/svg" xmlns:xlink="http://www.w3.org/1999/xlink">
<g id="graph1" class="graph" transform="scale(1 1) rotate(0) translate(4 124)">
<title>src/calibration/modules/detail/TH2Storage.h</title>
<polygon fill="white" stroke="white" points="-4,5 -4,-124 565,-124 565,5 -4,5"/>
<!-- Node1 -->
<g id="node1" class="node"><title>Node1</title>
<polygon fill="#bfbfbf" stroke="black" points="212.5,-85 212.5,-119 329.5,-119 329.5,-85 212.5,-85"/>
<text text-anchor="start" x="220.5" y="-106" font-family="Helvetica,sans-Serif" font-size="10.00">src/calibration/modules</text>
<text text-anchor="middle" x="271" y="-93" font-family="Helvetica,sans-Serif" font-size="10.00">/detail/TH2Storage.h</text>
</g>
<!-- Node2 -->
<g id="node3" class="node"><title>Node2</title>
<a xlink:href="_ant-mcsmearing_8cc.html" target="_top" xlink:title="progs/Ant&#45;mcsmearing.cc">
<polygon fill="white" stroke="black" points="0,-13.5 0,-34.5 128,-34.5 128,-13.5 0,-13.5"/>
<text text-anchor="middle" x="64" y="-21.5" font-family="Helvetica,sans-Serif" font-size="10.00">progs/Ant&#45;mcsmearing.cc</text>
</a>
</g>
<!-- Node1&#45;&gt;Node2 -->
<g id="edge2" class="edge"><title>Node1&#45;&gt;Node2</title>
<path fill="none" stroke="midnightblue" d="M216.464,-81.4503C176.438,-66.3678 123.715,-46.5013 91.9182,-34.5199"/>
<polygon fill="midnightblue" stroke="midnightblue" points="215.237,-84.728 225.829,-84.979 217.705,-78.1776 215.237,-84.728"/>
</g>
<!-- Node3 -->
<g id="node5" class="node"><title>Node3</title>
<a xlink:href="_cluster_smearing_8cc.html" target="_top" xlink:title="src/calibration/modules\l/ClusterSmearing.cc">
<polygon fill="white" stroke="black" points="145.5,-7 145.5,-41 262.5,-41 262.5,-7 145.5,-7"/>
<text text-anchor="start" x="153.5" y="-28" font-family="Helvetica,sans-Serif" font-size="10.00">src/calibration/modules</text>
<text text-anchor="middle" x="204" y="-15" font-family="Helvetica,sans-Serif" font-size="10.00">/ClusterSmearing.cc</text>
</a>
</g>
<!-- Node1&#45;&gt;Node3 -->
<g id="edge4" class="edge"><title>Node1&#45;&gt;Node3</title>
<path fill="none" stroke="midnightblue" d="M249.516,-76.9884C239.504,-65.3326 227.841,-51.7552 218.828,-41.2623"/>
<polygon fill="midnightblue" stroke="midnightblue" points="246.96,-79.3841 256.131,-84.6893 252.27,-74.823 246.96,-79.3841"/>
</g>
<!-- Node4 -->
<g id="node7" class="node"><title>Node4</title>
<a xlink:href="_t_h2_storage_8cc.html" target="_top" xlink:title="src/calibration/modules\l/detail/TH2Storage.cc">
<polygon fill="white" stroke="black" points="279.5,-7 279.5,-41 396.5,-41 396.5,-7 279.5,-7"/>
<text text-anchor="start" x="287.5" y="-28" font-family="Helvetica,sans-Serif" font-size="10.00">src/calibration/modules</text>
<text text-anchor="middle" x="338" y="-15" font-family="Helvetica,sans-Serif" font-size="10.00">/detail/TH2Storage.cc</text>
</a>
</g>
<!-- Node1&#45;&gt;Node4 -->
<g id="edge6" class="edge"><title>Node1&#45;&gt;Node4</title>
<path fill="none" stroke="midnightblue" d="M292.484,-76.9884C302.496,-65.3326 314.159,-51.7552 323.172,-41.2623"/>
<polygon fill="midnightblue" stroke="midnightblue" points="289.73,-74.823 285.869,-84.6893 295.04,-79.3841 289.73,-74.823"/>
</g>
<!-- Node5 -->
<g id="node9" class="node"><title>Node5</title>
<a xlink:href="_two_pi0___m_c_smearing__tools_8cc.html" target="_top" xlink:title="src/root&#45;addons/analysis\l_codes/TwoPi0_MCSmearing\l_tools.cc">
<polygon fill="white" stroke="black" points="414,-0.5 414,-47.5 560,-47.5 560,-0.5 414,-0.5"/>
<text text-anchor="start" x="422" y="-34.5" font-family="Helvetica,sans-Serif" font-size="10.00">src/root&#45;addons/analysis</text>
<text text-anchor="start" x="422" y="-21.5" font-family="Helvetica,sans-Serif" font-size="10.00">_codes/TwoPi0_MCSmearing</text>
<text text-anchor="middle" x="487" y="-8.5" font-family="Helvetica,sans-Serif" font-size="10.00">_tools.cc</text>
</a>
</g>
<!-- Node1&#45;&gt;Node5 -->
<g id="edge8" class="edge"><title>Node1&#45;&gt;Node5</title>
<path fill="none" stroke="midnightblue" d="M327.64,-81.5465C356.436,-71.1483 391.58,-58.4572 421.531,-47.6416"/>
<polygon fill="midnightblue" stroke="midnightblue" points="326.352,-78.2905 318.135,-84.979 328.73,-84.8744 326.352,-78.2905"/>
</g>
</g>
</svg>
