<?xml version="1.0" encoding="UTF-8" standalone="no"?>
<!DOCTYPE svg PUBLIC "-//W3C//DTD SVG 1.1//EN"
 "http://www.w3.org/Graphics/SVG/1.1/DTD/svg11.dtd">
<!-- Generated by graphviz version 2.26.3 (20100126.1600)
 -->
<!-- Title: src/calibration/modules/detail/TH2Storage.cc Pages: 1 -->
<svg width="1133pt" height="334pt"
 viewBox="0.00 0.00 1133.00 334.00" xmlns="http://www.w3.org/2000/svg" xmlns:xlink="http://www.w3.org/1999/xlink">
<g id="graph1" class="graph" transform="scale(1 1) rotate(0) translate(4 330)">
<title>src/calibration/modules/detail/TH2Storage.cc</title>
<polygon fill="white" stroke="white" points="-4,5 -4,-330 1130,-330 1130,5 -4,5"/>
<!-- Node1 -->
<g id="node1" class="node"><title>Node1</title>
<polygon fill="#bfbfbf" stroke="black" points="926.5,-291 926.5,-325 1043.5,-325 1043.5,-291 926.5,-291"/>
<text text-anchor="start" x="934.5" y="-312" font-family="Helvetica,sans-Serif" font-size="10.00">src/calibration/modules</text>
<text text-anchor="middle" x="985" y="-299" font-family="Helvetica,sans-Serif" font-size="10.00">/detail/TH2Storage.cc</text>
</g>
<!-- Node2 -->
<g id="node3" class="node"><title>Node2</title>
<a xlink:href="_t_h2_storage_8h.html" target="_top" xlink:title="TH2Storage.h">
<polygon fill="white" stroke="black" points="521.5,-232.5 521.5,-253.5 598.5,-253.5 598.5,-232.5 521.5,-232.5"/>
<text text-anchor="middle" x="560" y="-240.5" font-family="Helvetica,sans-Serif" font-size="10.00">TH2Storage.h</text>
</a>
</g>
<!-- Node1&#45;&gt;Node2 -->
<g id="edge2" class="edge"><title>Node1&#45;&gt;Node2</title>
<path fill="none" stroke="midnightblue" d="M926.352,-299.03C841.796,-286.098 687.192,-262.453 608.62,-250.436"/>
<polygon fill="midnightblue" stroke="midnightblue" points="608.924,-246.942 598.51,-248.89 607.865,-253.861 608.924,-246.942"/>
</g>
<!-- Node14 -->
<g id="node28" class="node"><title>Node14</title>
<a xlink:href="_t_calibration_data_8h.html" target="_top" xlink:title="tree/TCalibrationData.h">
<polygon fill="white" stroke="black" points="877,-232.5 877,-253.5 995,-253.5 995,-232.5 877,-232.5"/>
<text text-anchor="middle" x="936" y="-240.5" font-family="Helvetica,sans-Serif" font-size="10.00">tree/TCalibrationData.h</text>
</a>
</g>
<!-- Node1&#45;&gt;Node14 -->
<g id="edge28" class="edge"><title>Node1&#45;&gt;Node14</title>
<path fill="none" stroke="midnightblue" d="M972.126,-290.922C965.422,-282.029 957.205,-271.13 950.303,-261.974"/>
<polygon fill="midnightblue" stroke="midnightblue" points="952.995,-259.73 944.181,-253.852 947.406,-263.944 952.995,-259.73"/>
</g>
<!-- Node28 -->
<g id="node65" class="node"><title>Node28</title>
<polygon fill="white" stroke="#bfbfbf" points="1013,-232.5 1013,-253.5 1057,-253.5 1057,-232.5 1013,-232.5"/>
<text text-anchor="middle" x="1035" y="-240.5" font-family="Helvetica,sans-Serif" font-size="10.00">TH2.h</text>
</g>
<!-- Node1&#45;&gt;Node28 -->
<g id="edge74" class="edge"><title>Node1&#45;&gt;Node28</title>
<path fill="none" stroke="midnightblue" d="M998.137,-290.922C1004.98,-282.029 1013.36,-271.13 1020.4,-261.974"/>
<polygon fill="midnightblue" stroke="midnightblue" points="1023.33,-263.912 1026.65,-253.852 1017.78,-259.644 1023.33,-263.912"/>
</g>
<!-- Node29 -->
<g id="node67" class="node"><title>Node29</title>
<polygon fill="white" stroke="#bfbfbf" points="1074.5,-232.5 1074.5,-253.5 1125.5,-253.5 1125.5,-232.5 1074.5,-232.5"/>
<text text-anchor="middle" x="1100" y="-240.5" font-family="Helvetica,sans-Serif" font-size="10.00">TH2D.h</text>
</g>
<!-- Node1&#45;&gt;Node29 -->
<g id="edge76" class="edge"><title>Node1&#45;&gt;Node29</title>
<path fill="none" stroke="midnightblue" d="M1015.21,-290.922C1032.85,-280.957 1054.93,-268.473 1072.14,-258.745"/>
<polygon fill="midnightblue" stroke="midnightblue" points="1074.16,-261.626 1081.14,-253.658 1070.72,-255.532 1074.16,-261.626"/>
</g>
<!-- Node3 -->
<g id="node5" class="node"><title>Node3</title>
<a xlink:href="_bin_settings_8h.html" target="_top" xlink:title="base/BinSettings.h">
<polygon fill="white" stroke="black" points="249.5,-174.5 249.5,-195.5 348.5,-195.5 348.5,-174.5 249.5,-174.5"/>
<text text-anchor="middle" x="299" y="-182.5" font-family="Helvetica,sans-Serif" font-size="10.00">base/BinSettings.h</text>
</a>
</g>
<!-- Node2&#45;&gt;Node3 -->
<g id="edge4" class="edge"><title>Node2&#45;&gt;Node3</title>
<path fill="none" stroke="midnightblue" d="M521.489,-234.442C477.976,-224.772 406.702,-208.934 356.574,-197.794"/>
<polygon fill="midnightblue" stroke="midnightblue" points="357.051,-194.315 346.53,-195.562 355.533,-201.148 357.051,-194.315"/>
</g>
<!-- Node4 -->
<g id="node7" class="node"><title>Node4</title>
<a xlink:href="interval_8h.html" target="_top" xlink:title="base/interval.h">
<polygon fill="white" stroke="black" points="164,-116.5 164,-137.5 244,-137.5 244,-116.5 164,-116.5"/>
<text text-anchor="middle" x="204" y="-124.5" font-family="Helvetica,sans-Serif" font-size="10.00">base/interval.h</text>
</a>
</g>
<!-- Node3&#45;&gt;Node4 -->
<g id="edge6" class="edge"><title>Node3&#45;&gt;Node4</title>
<path fill="none" stroke="midnightblue" d="M281.576,-174.362C267.113,-165.532 246.331,-152.844 229.916,-142.822"/>
<polygon fill="midnightblue" stroke="midnightblue" points="231.673,-139.794 221.314,-137.571 228.025,-145.769 231.673,-139.794"/>
</g>
<!-- Node10 -->
<g id="node19" class="node"><title>Node10</title>
<polygon fill="white" stroke="#bfbfbf" points="307.5,-58.5 307.5,-79.5 366.5,-79.5 366.5,-58.5 307.5,-58.5"/>
<text text-anchor="middle" x="337" y="-66.5" font-family="Helvetica,sans-Serif" font-size="10.00">stdexcept</text>
</g>
<!-- Node3&#45;&gt;Node10 -->
<g id="edge26" class="edge"><title>Node3&#45;&gt;Node10</title>
<path fill="none" stroke="midnightblue" d="M298.052,-174.356C297.197,-160.488 296.986,-135.686 304,-116 307.675,-105.684 314.272,-95.5672 320.607,-87.3785"/>
<polygon fill="midnightblue" stroke="midnightblue" points="323.34,-89.5653 326.98,-79.6153 317.93,-85.1237 323.34,-89.5653"/>
</g>
<!-- Node13 -->
<g id="node25" class="node"><title>Node13</title>
<polygon fill="white" stroke="#bfbfbf" points="399,-0.5 399,-21.5 443,-21.5 443,-0.5 399,-0.5"/>
<text text-anchor="middle" x="421" y="-8.5" font-family="Helvetica,sans-Serif" font-size="10.00">vector</text>
</g>
<!-- Node3&#45;&gt;Node13 -->
<g id="edge24" class="edge"><title>Node3&#45;&gt;Node13</title>
<path fill="none" stroke="midnightblue" d="M306.905,-174.365C320.872,-155.513 350.731,-114.927 375,-80 386.481,-63.4772 399.135,-44.4316 408.261,-30.5414"/>
<polygon fill="midnightblue" stroke="midnightblue" points="411.406,-32.1265 413.956,-21.8432 405.55,-28.2917 411.406,-32.1265"/>
</g>
<!-- Node5 -->
<g id="node9" class="node"><title>Node5</title>
<a xlink:href="printable_8h.html" target="_top" xlink:title="printable.h">
<polygon fill="white" stroke="black" points="66,-58.5 66,-79.5 128,-79.5 128,-58.5 66,-58.5"/>
<text text-anchor="middle" x="97" y="-66.5" font-family="Helvetica,sans-Serif" font-size="10.00">printable.h</text>
</a>
</g>
<!-- Node4&#45;&gt;Node5 -->
<g id="edge8" class="edge"><title>Node4&#45;&gt;Node5</title>
<path fill="none" stroke="midnightblue" d="M184.375,-116.362C167.859,-107.409 144.026,-94.4908 125.422,-84.4064"/>
<polygon fill="midnightblue" stroke="midnightblue" points="126.96,-81.2592 116.501,-79.5707 123.625,-87.4132 126.96,-81.2592"/>
</g>
<!-- Node8 -->
<g id="node15" class="node"><title>Node8</title>
<a xlink:href="types_8h.html" target="_top" xlink:title="types.h">
<polygon fill="white" stroke="black" points="-0.5,-58.5 -0.5,-79.5 48.5,-79.5 48.5,-58.5 -0.5,-58.5"/>
<text text-anchor="middle" x="24" y="-66.5" font-family="Helvetica,sans-Serif" font-size="10.00">types.h</text>
</a>
</g>
<!-- Node4&#45;&gt;Node8 -->
<g id="edge14" class="edge"><title>Node4&#45;&gt;Node8</title>
<path fill="none" stroke="midnightblue" d="M170.685,-116.477C142.904,-107.673 102.037,-94.657 58.4823,-80.4636"/>
<polygon fill="midnightblue" stroke="midnightblue" points="59.4479,-77.0971 48.8554,-77.3215 57.2759,-83.7516 59.4479,-77.0971"/>
</g>
<!-- Node9 -->
<g id="node17" class="node"><title>Node9</title>
<polygon fill="white" stroke="#bfbfbf" points="278,-0.5 278,-21.5 334,-21.5 334,-0.5 278,-0.5"/>
<text text-anchor="middle" x="306" y="-8.5" font-family="Helvetica,sans-Serif" font-size="10.00">algorithm</text>
</g>
<!-- Node4&#45;&gt;Node9 -->
<g id="edge16" class="edge"><title>Node4&#45;&gt;Node9</title>
<path fill="none" stroke="midnightblue" d="M193.418,-116.476C180.482,-102.303 161.839,-76.7036 175,-58 185.978,-42.3976 233.258,-28.1603 267.877,-19.5407"/>
<polygon fill="midnightblue" stroke="midnightblue" points="268.818,-22.9141 277.712,-17.1565 267.169,-16.1111 268.818,-22.9141"/>
</g>
<!-- Node4&#45;&gt;Node10 -->
<g id="edge18" class="edge"><title>Node4&#45;&gt;Node10</title>
<path fill="none" stroke="midnightblue" d="M228.085,-116.497C249.139,-107.315 279.927,-93.8889 303.402,-83.6516"/>
<polygon fill="midnightblue" stroke="midnightblue" points="304.877,-86.8268 312.644,-79.6212 302.079,-80.4104 304.877,-86.8268"/>
</g>
<!-- Node11 -->
<g id="node21" class="node"><title>Node11</title>
<polygon fill="white" stroke="#bfbfbf" points="184,-58.5 184,-79.5 224,-79.5 224,-58.5 184,-58.5"/>
<text text-anchor="middle" x="204" y="-66.5" font-family="Helvetica,sans-Serif" font-size="10.00">limits</text>
</g>
<!-- Node4&#45;&gt;Node11 -->
<g id="edge20" class="edge"><title>Node4&#45;&gt;Node11</title>
<path fill="none" stroke="midnightblue" d="M204,-116.362C204,-108.922 204,-98.7427 204,-89.7276"/>
<polygon fill="midnightblue" stroke="midnightblue" points="207.5,-89.5706 204,-79.5707 200.5,-89.5707 207.5,-89.5706"/>
</g>
<!-- Node12 -->
<g id="node23" class="node"><title>Node12</title>
<polygon fill="white" stroke="#bfbfbf" points="241.5,-58.5 241.5,-79.5 290.5,-79.5 290.5,-58.5 241.5,-58.5"/>
<text text-anchor="middle" x="266" y="-66.5" font-family="Helvetica,sans-Serif" font-size="10.00">istream</text>
</g>
<!-- Node4&#45;&gt;Node12 -->
<g id="edge22" class="edge"><title>Node4&#45;&gt;Node12</title>
<path fill="none" stroke="midnightblue" d="M215.372,-116.362C224.286,-108.023 236.879,-96.2418 247.276,-86.5162"/>
<polygon fill="midnightblue" stroke="midnightblue" points="249.789,-88.9582 254.7,-79.5707 245.007,-83.8463 249.789,-88.9582"/>
</g>
<!-- Node6 -->
<g id="node11" class="node"><title>Node6</title>
<polygon fill="white" stroke="#bfbfbf" points="160,-0.5 160,-21.5 222,-21.5 222,-0.5 160,-0.5"/>
<text text-anchor="middle" x="191" y="-8.5" font-family="Helvetica,sans-Serif" font-size="10.00">type_traits</text>
</g>
<!-- Node5&#45;&gt;Node6 -->
<g id="edge10" class="edge"><title>Node5&#45;&gt;Node6</title>
<path fill="none" stroke="midnightblue" d="M114.241,-58.3619C128.552,-49.532 149.115,-36.844 165.357,-26.8224"/>
<polygon fill="midnightblue" stroke="midnightblue" points="167.196,-29.8004 173.868,-21.5707 163.52,-23.8431 167.196,-29.8004"/>
</g>
<!-- Node7 -->
<g id="node13" class="node"><title>Node7</title>
<polygon fill="white" stroke="#bfbfbf" points="71,-0.5 71,-21.5 123,-21.5 123,-0.5 71,-0.5"/>
<text text-anchor="middle" x="97" y="-8.5" font-family="Helvetica,sans-Serif" font-size="10.00">ostream</text>
</g>
<!-- Node5&#45;&gt;Node7 -->
<g id="edge12" class="edge"><title>Node5&#45;&gt;Node7</title>
<path fill="none" stroke="midnightblue" d="M97,-58.3619C97,-50.9219 97,-40.7427 97,-31.7276"/>
<polygon fill="midnightblue" stroke="midnightblue" points="100.5,-31.5706 97,-21.5707 93.5001,-31.5707 100.5,-31.5706"/>
</g>
<!-- Node15 -->
<g id="node30" class="node"><title>Node15</title>
<a xlink:href="_t_i_d_8h.html" target="_top" xlink:title="TID.h">
<polygon fill="white" stroke="black" points="643.5,-174.5 643.5,-195.5 684.5,-195.5 684.5,-174.5 643.5,-174.5"/>
<text text-anchor="middle" x="664" y="-182.5" font-family="Helvetica,sans-Serif" font-size="10.00">TID.h</text>
</a>
</g>
<!-- Node14&#45;&gt;Node15 -->
<g id="edge30" class="edge"><title>Node14&#45;&gt;Node15</title>
<path fill="none" stroke="midnightblue" d="M886.743,-232.497C830.808,-220.569 741.276,-201.478 694.581,-191.521"/>
<polygon fill="midnightblue" stroke="midnightblue" points="695.264,-188.088 684.754,-189.426 693.804,-194.934 695.264,-188.088"/>
</g>
<!-- Node19 -->
<g id="node39" class="node"><title>Node19</title>
<polygon fill="white" stroke="#bfbfbf" points="915.5,-0.5 915.5,-21.5 956.5,-21.5 956.5,-0.5 915.5,-0.5"/>
<text text-anchor="middle" x="936" y="-8.5" font-family="Helvetica,sans-Serif" font-size="10.00">string</text>
</g>
<!-- Node14&#45;&gt;Node19 -->
<g id="edge66" class="edge"><title>Node14&#45;&gt;Node19</title>
<path fill="none" stroke="midnightblue" d="M936,-232.429C936,-196.648 936,-79.6628 936,-31.7481"/>
<polygon fill="midnightblue" stroke="midnightblue" points="939.5,-31.6335 936,-21.6335 932.5,-31.6335 939.5,-31.6335"/>
</g>
<!-- Node22 -->
<g id="node47" class="node"><title>Node22</title>
<polygon fill="white" stroke="#bfbfbf" points="649.5,-58.5 649.5,-79.5 690.5,-79.5 690.5,-58.5 649.5,-58.5"/>
<text text-anchor="middle" x="670" y="-66.5" font-family="Helvetica,sans-Serif" font-size="10.00">ctime</text>
</g>
<!-- Node14&#45;&gt;Node22 -->
<g id="edge68" class="edge"><title>Node14&#45;&gt;Node22</title>
<path fill="none" stroke="midnightblue" d="M938.046,-232.406C942.056,-208.173 948.054,-148.306 917,-116 887.597,-85.4109 760.417,-74.1764 700.914,-70.5409"/>
<polygon fill="midnightblue" stroke="midnightblue" points="700.815,-67.0295 690.63,-69.9476 700.412,-74.0179 700.815,-67.0295"/>
</g>
<!-- Node27 -->
<g id="node62" class="node"><title>Node27</title>
<a xlink:href="_git_info_8h.html" target="_top" xlink:title="base/GitInfo.h">
<polygon fill="white" stroke="black" points="1002,-174.5 1002,-195.5 1080,-195.5 1080,-174.5 1002,-174.5"/>
<text text-anchor="middle" x="1041" y="-182.5" font-family="Helvetica,sans-Serif" font-size="10.00">base/GitInfo.h</text>
</a>
</g>
<!-- Node14&#45;&gt;Node27 -->
<g id="edge70" class="edge"><title>Node14&#45;&gt;Node27</title>
<path fill="none" stroke="midnightblue" d="M955.259,-232.362C971.466,-223.409 994.853,-210.491 1013.11,-200.406"/>
<polygon fill="midnightblue" stroke="midnightblue" points="1014.8,-203.47 1021.86,-195.571 1011.42,-197.342 1014.8,-203.47"/>
</g>
<!-- Node15&#45;&gt;Node5 -->
<g id="edge34" class="edge"><title>Node15&#45;&gt;Node5</title>
<path fill="none" stroke="midnightblue" d="M643.458,-182.075C596.915,-175.337 479.929,-157.773 383,-138 295.132,-120.076 193.265,-94.2824 137.931,-79.8447"/>
<polygon fill="midnightblue" stroke="midnightblue" points="138.715,-76.432 128.155,-77.2854 136.942,-83.2038 138.715,-76.432"/>
</g>
<!-- Node15&#45;&gt;Node6 -->
<g id="edge52" class="edge"><title>Node15&#45;&gt;Node6</title>
<path fill="none" stroke="midnightblue" d="M643.318,-182.015C596.547,-175.016 484.138,-156.715 451,-138 408.297,-113.883 417.3,-82.8162 375,-58 351.008,-43.9243 278.703,-27.9847 232.199,-18.7535"/>
<polygon fill="midnightblue" stroke="midnightblue" points="232.609,-15.2673 222.122,-16.7779 231.262,-22.1366 232.609,-15.2673"/>
</g>
<!-- Node15&#45;&gt;Node10 -->
<g id="edge58" class="edge"><title>Node15&#45;&gt;Node10</title>
<path fill="none" stroke="midnightblue" d="M643.385,-182.442C591.759,-175.817 458.186,-157.272 418,-138 392.327,-125.688 368.206,-103.189 353.074,-87.2328"/>
<polygon fill="midnightblue" stroke="midnightblue" points="355.369,-84.5584 346.02,-79.5739 350.22,-89.3007 355.369,-84.5584"/>
</g>
<!-- Node16 -->
<g id="node32" class="node"><title>Node16</title>
<polygon fill="white" stroke="#bfbfbf" points="460,-116.5 460,-137.5 516,-137.5 516,-116.5 460,-116.5"/>
<text text-anchor="middle" x="488" y="-124.5" font-family="Helvetica,sans-Serif" font-size="10.00">Rtypes.h</text>
</g>
<!-- Node15&#45;&gt;Node16 -->
<g id="edge32" class="edge"><title>Node15&#45;&gt;Node16</title>
<path fill="none" stroke="midnightblue" d="M643.466,-178.233C614.705,-168.755 561.915,-151.358 525.906,-139.492"/>
<polygon fill="midnightblue" stroke="midnightblue" points="526.821,-136.108 516.228,-136.302 524.63,-142.756 526.821,-136.108"/>
</g>
<!-- Node17 -->
<g id="node35" class="node"><title>Node17</title>
<a xlink:href="time_8h.html" target="_top" xlink:title="base/std_ext/time.h">
<polygon fill="white" stroke="black" points="533.5,-116.5 533.5,-137.5 636.5,-137.5 636.5,-116.5 533.5,-116.5"/>
<text text-anchor="middle" x="585" y="-124.5" font-family="Helvetica,sans-Serif" font-size="10.00">base/std_ext/time.h</text>
</a>
</g>
<!-- Node15&#45;&gt;Node17 -->
<g id="edge36" class="edge"><title>Node15&#45;&gt;Node17</title>
<path fill="none" stroke="midnightblue" d="M649.51,-174.362C637.817,-165.777 621.157,-153.546 607.697,-143.664"/>
<polygon fill="midnightblue" stroke="midnightblue" points="609.53,-140.667 599.398,-137.571 605.387,-146.31 609.53,-140.667"/>
</g>
<!-- Node15&#45;&gt;Node22 -->
<g id="edge64" class="edge"><title>Node15&#45;&gt;Node22</title>
<path fill="none" stroke="midnightblue" d="M664.554,-174.295C665.545,-155.131 667.639,-114.654 668.922,-89.8434"/>
<polygon fill="midnightblue" stroke="midnightblue" points="672.426,-89.8467 669.448,-79.6792 665.436,-89.485 672.426,-89.8467"/>
</g>
<!-- Node23 -->
<g id="node50" class="node"><title>Node23</title>
<polygon fill="white" stroke="#bfbfbf" points="692,-116.5 692,-137.5 730,-137.5 730,-116.5 692,-116.5"/>
<text text-anchor="middle" x="711" y="-124.5" font-family="Helvetica,sans-Serif" font-size="10.00">tuple</text>
</g>
<!-- Node15&#45;&gt;Node23 -->
<g id="edge54" class="edge"><title>Node15&#45;&gt;Node23</title>
<path fill="none" stroke="midnightblue" d="M672.621,-174.362C679.18,-166.268 688.366,-154.932 696.106,-145.38"/>
<polygon fill="midnightblue" stroke="midnightblue" points="698.858,-147.544 702.434,-137.571 693.419,-143.136 698.858,-147.544"/>
</g>
<!-- Node24 -->
<g id="node52" class="node"><title>Node24</title>
<polygon fill="white" stroke="#bfbfbf" points="748,-116.5 748,-137.5 794,-137.5 794,-116.5 748,-116.5"/>
<text text-anchor="middle" x="771" y="-124.5" font-family="Helvetica,sans-Serif" font-size="10.00">cstdint</text>
</g>
<!-- Node15&#45;&gt;Node24 -->
<g id="edge56" class="edge"><title>Node15&#45;&gt;Node24</title>
<path fill="none" stroke="midnightblue" d="M683.625,-174.362C700.141,-165.409 723.974,-152.491 742.578,-142.406"/>
<polygon fill="midnightblue" stroke="midnightblue" points="744.375,-145.413 751.499,-137.571 741.04,-139.259 744.375,-145.413"/>
</g>
<!-- Node25 -->
<g id="node55" class="node"><title>Node25</title>
<polygon fill="white" stroke="#bfbfbf" points="811.5,-116.5 811.5,-137.5 840.5,-137.5 840.5,-116.5 811.5,-116.5"/>
<text text-anchor="middle" x="826" y="-124.5" font-family="Helvetica,sans-Serif" font-size="10.00">list</text>
</g>
<!-- Node15&#45;&gt;Node25 -->
<g id="edge60" class="edge"><title>Node15&#45;&gt;Node25</title>
<path fill="none" stroke="midnightblue" d="M684.538,-178.903C710.147,-171.122 755.377,-156.793 801.486,-138.351"/>
<polygon fill="midnightblue" stroke="midnightblue" points="803.072,-141.484 811.022,-134.481 800.44,-134.998 803.072,-141.484"/>
</g>
<!-- Node26 -->
<g id="node57" class="node"><title>Node26</title>
<polygon fill="white" stroke="#bfbfbf" points="858,-116.5 858,-137.5 908,-137.5 908,-116.5 858,-116.5"/>
<text text-anchor="middle" x="883" y="-124.5" font-family="Helvetica,sans-Serif" font-size="10.00">iomanip</text>
</g>
<!-- Node15&#45;&gt;Node26 -->
<g id="edge62" class="edge"><title>Node15&#45;&gt;Node26</title>
<path fill="none" stroke="midnightblue" d="M684.648,-180.211C717.277,-172.547 782.948,-156.729 847.824,-138.221"/>
<polygon fill="midnightblue" stroke="midnightblue" points="849.162,-141.478 857.804,-135.35 847.226,-134.751 849.162,-141.478"/>
</g>
<!-- Node18 -->
<g id="node37" class="node"><title>Node18</title>
<a xlink:href="string_8h.html" target="_top" xlink:title="base/std_ext/string.h">
<polygon fill="white" stroke="black" points="460,-58.5 460,-79.5 568,-79.5 568,-58.5 460,-58.5"/>
<text text-anchor="middle" x="514" y="-66.5" font-family="Helvetica,sans-Serif" font-size="10.00">base/std_ext/string.h</text>
</a>
</g>
<!-- Node17&#45;&gt;Node18 -->
<g id="edge38" class="edge"><title>Node17&#45;&gt;Node18</title>
<path fill="none" stroke="midnightblue" d="M571.978,-116.362C561.569,-107.859 546.781,-95.7785 534.745,-85.9466"/>
<polygon fill="midnightblue" stroke="midnightblue" points="536.899,-83.1866 526.94,-79.5707 532.47,-88.6077 536.899,-83.1866"/>
</g>
<!-- Node21 -->
<g id="node45" class="node"><title>Node21</title>
<polygon fill="white" stroke="#bfbfbf" points="586,-58.5 586,-79.5 632,-79.5 632,-58.5 586,-58.5"/>
<text text-anchor="middle" x="609" y="-66.5" font-family="Helvetica,sans-Serif" font-size="10.00">cstring</text>
</g>
<!-- Node17&#45;&gt;Node21 -->
<g id="edge48" class="edge"><title>Node17&#45;&gt;Node21</title>
<path fill="none" stroke="midnightblue" d="M589.402,-116.362C592.582,-108.677 596.972,-98.0686 600.79,-88.8399"/>
<polygon fill="midnightblue" stroke="midnightblue" points="604.036,-90.1491 604.626,-79.5707 597.568,-87.4726 604.036,-90.1491"/>
</g>
<!-- Node17&#45;&gt;Node22 -->
<g id="edge50" class="edge"><title>Node17&#45;&gt;Node22</title>
<path fill="none" stroke="midnightblue" d="M600.59,-116.362C613.291,-107.696 631.438,-95.3126 645.992,-85.3819"/>
<polygon fill="midnightblue" stroke="midnightblue" points="648.221,-88.0982 654.509,-79.5707 644.276,-82.316 648.221,-88.0982"/>
</g>
<!-- Node18&#45;&gt;Node9 -->
<g id="edge44" class="edge"><title>Node18&#45;&gt;Node9</title>
<path fill="none" stroke="midnightblue" d="M476.333,-58.4966C438.879,-48.0529 381.728,-32.1164 344.117,-21.6289"/>
<polygon fill="midnightblue" stroke="midnightblue" points="344.633,-18.1392 334.06,-18.8245 342.753,-24.8819 344.633,-18.1392"/>
</g>
<!-- Node18&#45;&gt;Node13 -->
<g id="edge46" class="edge"><title>Node18&#45;&gt;Node13</title>
<path fill="none" stroke="midnightblue" d="M496.942,-58.3619C482.915,-49.6138 462.816,-37.0786 446.818,-27.1015"/>
<polygon fill="midnightblue" stroke="midnightblue" points="448.287,-23.8927 437.949,-21.5707 444.582,-29.8323 448.287,-23.8927"/>
</g>
<!-- Node18&#45;&gt;Node19 -->
<g id="edge40" class="edge"><title>Node18&#45;&gt;Node19</title>
<path fill="none" stroke="midnightblue" d="M568.272,-59.3725C571.222,-58.8964 574.146,-58.4357 577,-58 698.047,-39.5173 842.75,-21.9482 905.015,-14.6047"/>
<polygon fill="midnightblue" stroke="midnightblue" points="905.793,-18.0375 915.316,-13.3946 904.976,-11.0853 905.793,-18.0375"/>
</g>
<!-- Node20 -->
<g id="node41" class="node"><title>Node20</title>
<polygon fill="white" stroke="#bfbfbf" points="488,-0.5 488,-21.5 540,-21.5 540,-0.5 488,-0.5"/>
<text text-anchor="middle" x="514" y="-8.5" font-family="Helvetica,sans-Serif" font-size="10.00">sstream</text>
</g>
<!-- Node18&#45;&gt;Node20 -->
<g id="edge42" class="edge"><title>Node18&#45;&gt;Node20</title>
<path fill="none" stroke="midnightblue" d="M514,-58.3619C514,-50.9219 514,-40.7427 514,-31.7276"/>
<polygon fill="midnightblue" stroke="midnightblue" points="517.5,-31.5706 514,-21.5707 510.5,-31.5707 517.5,-31.5706"/>
</g>
<!-- Node27&#45;&gt;Node19 -->
<g id="edge72" class="edge"><title>Node27&#45;&gt;Node19</title>
<path fill="none" stroke="midnightblue" d="M1034.59,-174.377C1017.42,-145.93 970.206,-67.6838 947.929,-30.7689"/>
<polygon fill="midnightblue" stroke="midnightblue" points="950.758,-28.6813 942.594,-21.9277 944.764,-32.298 950.758,-28.6813"/>
</g>
</g>
</svg>
