<?xml version="1.0" encoding="UTF-8" standalone="no"?>
<!DOCTYPE svg PUBLIC "-//W3C//DTD SVG 1.1//EN"
 "http://www.w3.org/Graphics/SVG/1.1/DTD/svg11.dtd">
<!-- Generated by graphviz version 2.26.3 (20100126.1600)
 -->
<!-- Title: src/root&#45;addons/cbtaps_display/TH2TAPS.cc Pages: 1 -->
<svg width="610pt" height="276pt"
 viewBox="0.00 0.00 610.00 276.00" xmlns="http://www.w3.org/2000/svg" xmlns:xlink="http://www.w3.org/1999/xlink">
<g id="graph1" class="graph" transform="scale(1 1) rotate(0) translate(4 272)">
<title>src/root&#45;addons/cbtaps_display/TH2TAPS.cc</title>
<polygon fill="white" stroke="white" points="-4,5 -4,-272 607,-272 607,5 -4,5"/>
<!-- Node1 -->
<g id="node1" class="node"><title>Node1</title>
<polygon fill="#bfbfbf" stroke="black" points="310,-233 310,-267 426,-267 426,-233 310,-233"/>
<text text-anchor="start" x="318" y="-254" font-family="Helvetica,sans-Serif" font-size="10.00">src/root&#45;addons/cbtaps</text>
<text text-anchor="middle" x="368" y="-241" font-family="Helvetica,sans-Serif" font-size="10.00">_display/TH2TAPS.cc</text>
</g>
<!-- Node2 -->
<g id="node3" class="node"><title>Node2</title>
<a xlink:href="_t_h2_t_a_p_s_8h.html" target="_top" xlink:title="TH2TAPS.h">
<polygon fill="white" stroke="black" points="137,-174.5 137,-195.5 207,-195.5 207,-174.5 137,-174.5"/>
<text text-anchor="middle" x="172" y="-182.5" font-family="Helvetica,sans-Serif" font-size="10.00">TH2TAPS.h</text>
</a>
</g>
<!-- Node1&#45;&gt;Node2 -->
<g id="edge2" class="edge"><title>Node1&#45;&gt;Node2</title>
<path fill="none" stroke="midnightblue" d="M316.503,-232.922C284.404,-222.277 243.64,-208.758 213.598,-198.795"/>
<polygon fill="midnightblue" stroke="midnightblue" points="214.442,-195.388 203.848,-195.562 212.238,-202.032 214.442,-195.388"/>
</g>
<!-- Node5 -->
<g id="node9" class="node"><title>Node5</title>
<polygon fill="white" stroke="#bfbfbf" points="131.5,-58.5 131.5,-79.5 194.5,-79.5 194.5,-58.5 131.5,-58.5"/>
<text text-anchor="middle" x="163" y="-66.5" font-family="Helvetica,sans-Serif" font-size="10.00">TH2Poly.h</text>
</g>
<!-- Node1&#45;&gt;Node5 -->
<g id="edge16" class="edge"><title>Node1&#45;&gt;Node5</title>
<path fill="none" stroke="midnightblue" d="M330.105,-232.919C311.724,-223.567 290.001,-210.854 273,-196 239.329,-166.581 241.779,-149.353 212,-116 202.892,-105.799 191.976,-95.1909 182.761,-86.6401"/>
<polygon fill="midnightblue" stroke="midnightblue" points="184.931,-83.8818 175.189,-79.7172 180.207,-89.048 184.931,-83.8818"/>
</g>
<!-- Node8 -->
<g id="node15" class="node"><title>Node8</title>
<polygon fill="white" stroke="#bfbfbf" points="385.5,-174.5 385.5,-195.5 438.5,-195.5 438.5,-174.5 385.5,-174.5"/>
<text text-anchor="middle" x="412" y="-182.5" font-family="Helvetica,sans-Serif" font-size="10.00">TMath.h</text>
</g>
<!-- Node1&#45;&gt;Node8 -->
<g id="edge14" class="edge"><title>Node1&#45;&gt;Node8</title>
<path fill="none" stroke="midnightblue" d="M379.56,-232.922C385.519,-224.12 392.806,-213.354 398.964,-204.258"/>
<polygon fill="midnightblue" stroke="midnightblue" points="401.947,-206.095 404.654,-195.852 396.15,-202.171 401.947,-206.095"/>
</g>
<!-- Node9 -->
<g id="node18" class="node"><title>Node9</title>
<polygon fill="white" stroke="#bfbfbf" points="455.5,-174.5 455.5,-195.5 512.5,-195.5 512.5,-174.5 455.5,-174.5"/>
<text text-anchor="middle" x="484" y="-182.5" font-family="Helvetica,sans-Serif" font-size="10.00">TGraph.h</text>
</g>
<!-- Node1&#45;&gt;Node9 -->
<g id="edge18" class="edge"><title>Node1&#45;&gt;Node9</title>
<path fill="none" stroke="midnightblue" d="M398.478,-232.922C416.262,-222.957 438.541,-210.473 455.9,-200.745"/>
<polygon fill="midnightblue" stroke="midnightblue" points="457.966,-203.6 464.979,-195.658 454.544,-197.493 457.966,-203.6"/>
</g>
<!-- Node10 -->
<g id="node20" class="node"><title>Node10</title>
<polygon fill="white" stroke="#bfbfbf" points="530,-174.5 530,-195.5 586,-195.5 586,-174.5 530,-174.5"/>
<text text-anchor="middle" x="558" y="-182.5" font-family="Helvetica,sans-Serif" font-size="10.00">TString.h</text>
</g>
<!-- Node1&#45;&gt;Node10 -->
<g id="edge20" class="edge"><title>Node1&#45;&gt;Node10</title>
<path fill="none" stroke="midnightblue" d="M417.92,-232.922C450.024,-221.939 491.07,-207.897 520.417,-197.857"/>
<polygon fill="midnightblue" stroke="midnightblue" points="521.563,-201.165 529.891,-194.616 519.297,-194.541 521.563,-201.165"/>
</g>
<!-- Node11 -->
<g id="node22" class="node"><title>Node11</title>
<a xlink:href="_t_h2_draw_tool_8h.html" target="_top" xlink:title="TH2DrawTool.h">
<polygon fill="white" stroke="black" points="282,-174.5 282,-195.5 368,-195.5 368,-174.5 282,-174.5"/>
<text text-anchor="middle" x="325" y="-182.5" font-family="Helvetica,sans-Serif" font-size="10.00">TH2DrawTool.h</text>
</a>
</g>
<!-- Node1&#45;&gt;Node11 -->
<g id="edge22" class="edge"><title>Node1&#45;&gt;Node11</title>
<path fill="none" stroke="midnightblue" d="M356.702,-232.922C350.88,-224.12 343.757,-213.354 337.74,-204.258"/>
<polygon fill="midnightblue" stroke="midnightblue" points="340.616,-202.261 332.179,-195.852 334.777,-206.123 340.616,-202.261"/>
</g>
<!-- Node3 -->
<g id="node5" class="node"><title>Node3</title>
<a xlink:href="_t_h2_crystals_8h.html" target="_top" xlink:title="TH2Crystals.h">
<polygon fill="white" stroke="black" points="123,-116.5 123,-137.5 203,-137.5 203,-116.5 123,-116.5"/>
<text text-anchor="middle" x="163" y="-124.5" font-family="Helvetica,sans-Serif" font-size="10.00">TH2Crystals.h</text>
</a>
</g>
<!-- Node2&#45;&gt;Node3 -->
<g id="edge4" class="edge"><title>Node2&#45;&gt;Node3</title>
<path fill="none" stroke="midnightblue" d="M170.349,-174.362C169.195,-166.922 167.615,-156.743 166.216,-147.728"/>
<polygon fill="midnightblue" stroke="midnightblue" points="169.632,-146.916 164.64,-137.571 162.715,-147.989 169.632,-146.916"/>
</g>
<!-- Node4 -->
<g id="node7" class="node"><title>Node4</title>
<polygon fill="white" stroke="#bfbfbf" points="0,-58.5 0,-79.5 56,-79.5 56,-58.5 0,-58.5"/>
<text text-anchor="middle" x="28" y="-66.5" font-family="Helvetica,sans-Serif" font-size="10.00">Rtypes.h</text>
</g>
<!-- Node3&#45;&gt;Node4 -->
<g id="edge6" class="edge"><title>Node3&#45;&gt;Node4</title>
<path fill="none" stroke="midnightblue" d="M138.553,-116.497C117.182,-107.315 85.931,-93.8889 62.1028,-83.6516"/>
<polygon fill="midnightblue" stroke="midnightblue" points="63.2914,-80.3529 52.7218,-79.6212 60.5281,-86.7845 63.2914,-80.3529"/>
</g>
<!-- Node3&#45;&gt;Node5 -->
<g id="edge8" class="edge"><title>Node3&#45;&gt;Node5</title>
<path fill="none" stroke="midnightblue" d="M163,-116.362C163,-108.922 163,-98.7427 163,-89.7276"/>
<polygon fill="midnightblue" stroke="midnightblue" points="166.5,-89.5706 163,-79.5707 159.5,-89.5707 166.5,-89.5706"/>
</g>
<!-- Node6 -->
<g id="node11" class="node"><title>Node6</title>
<polygon fill="white" stroke="#bfbfbf" points="211.5,-58.5 211.5,-79.5 276.5,-79.5 276.5,-58.5 211.5,-58.5"/>
<text text-anchor="middle" x="244" y="-66.5" font-family="Helvetica,sans-Serif" font-size="10.00">TVector2.h</text>
</g>
<!-- Node3&#45;&gt;Node6 -->
<g id="edge10" class="edge"><title>Node3&#45;&gt;Node6</title>
<path fill="none" stroke="midnightblue" d="M177.857,-116.362C189.846,-107.777 206.927,-95.5459 220.728,-85.6636"/>
<polygon fill="midnightblue" stroke="midnightblue" points="223.145,-88.2383 229.238,-79.5707 219.069,-82.5469 223.145,-88.2383"/>
</g>
<!-- Node7 -->
<g id="node13" class="node"><title>Node7</title>
<polygon fill="white" stroke="#bfbfbf" points="73.5,-58.5 73.5,-79.5 114.5,-79.5 114.5,-58.5 73.5,-58.5"/>
<text text-anchor="middle" x="94" y="-66.5" font-family="Helvetica,sans-Serif" font-size="10.00">string</text>
</g>
<!-- Node3&#45;&gt;Node7 -->
<g id="edge12" class="edge"><title>Node3&#45;&gt;Node7</title>
<path fill="none" stroke="midnightblue" d="M150.344,-116.362C140.326,-107.941 126.133,-96.0105 114.499,-86.2308"/>
<polygon fill="midnightblue" stroke="midnightblue" points="116.482,-83.326 106.575,-79.5707 111.978,-88.6844 116.482,-83.326"/>
</g>
<!-- Node12 -->
<g id="node24" class="node"><title>Node12</title>
<a xlink:href="matrixstack_8h.html" target="_top" xlink:title="base/matrixstack.h">
<polygon fill="white" stroke="black" points="287,-116.5 287,-137.5 387,-137.5 387,-116.5 287,-116.5"/>
<text text-anchor="middle" x="337" y="-124.5" font-family="Helvetica,sans-Serif" font-size="10.00">base/matrixstack.h</text>
</a>
</g>
<!-- Node11&#45;&gt;Node12 -->
<g id="edge24" class="edge"><title>Node11&#45;&gt;Node12</title>
<path fill="none" stroke="midnightblue" d="M327.201,-174.362C328.757,-166.84 330.893,-156.519 332.773,-147.431"/>
<polygon fill="midnightblue" stroke="midnightblue" points="336.214,-148.072 334.813,-137.571 329.359,-146.654 336.214,-148.072"/>
</g>
<!-- Node19 -->
<g id="node39" class="node"><title>Node19</title>
<polygon fill="white" stroke="#bfbfbf" points="405,-116.5 405,-137.5 449,-137.5 449,-116.5 405,-116.5"/>
<text text-anchor="middle" x="427" y="-124.5" font-family="Helvetica,sans-Serif" font-size="10.00">vector</text>
</g>
<!-- Node11&#45;&gt;Node19 -->
<g id="edge40" class="edge"><title>Node11&#45;&gt;Node19</title>
<path fill="none" stroke="midnightblue" d="M343.708,-174.362C359.381,-165.45 381.964,-152.609 399.663,-142.545"/>
<polygon fill="midnightblue" stroke="midnightblue" points="401.447,-145.556 408.41,-137.571 397.987,-139.471 401.447,-145.556"/>
</g>
<!-- Node12&#45;&gt;Node6 -->
<g id="edge36" class="edge"><title>Node12&#45;&gt;Node6</title>
<path fill="none" stroke="midnightblue" d="M319.942,-116.362C305.915,-107.614 285.816,-95.0786 269.818,-85.1015"/>
<polygon fill="midnightblue" stroke="midnightblue" points="271.287,-81.8927 260.949,-79.5707 267.582,-87.8323 271.287,-81.8927"/>
</g>
<!-- Node13 -->
<g id="node26" class="node"><title>Node13</title>
<a xlink:href="printable_8h.html" target="_top" xlink:title="base/printable.h">
<polygon fill="white" stroke="black" points="294,-58.5 294,-79.5 380,-79.5 380,-58.5 294,-58.5"/>
<text text-anchor="middle" x="337" y="-66.5" font-family="Helvetica,sans-Serif" font-size="10.00">base/printable.h</text>
</a>
</g>
<!-- Node12&#45;&gt;Node13 -->
<g id="edge26" class="edge"><title>Node12&#45;&gt;Node13</title>
<path fill="none" stroke="midnightblue" d="M337,-116.362C337,-108.922 337,-98.7427 337,-89.7276"/>
<polygon fill="midnightblue" stroke="midnightblue" points="340.5,-89.5706 337,-79.5707 333.5,-89.5707 340.5,-89.5706"/>
</g>
<!-- Node16 -->
<g id="node32" class="node"><title>Node16</title>
<polygon fill="white" stroke="#bfbfbf" points="397.5,-58.5 397.5,-79.5 462.5,-79.5 462.5,-58.5 397.5,-58.5"/>
<text text-anchor="middle" x="430" y="-66.5" font-family="Helvetica,sans-Serif" font-size="10.00">TVectorT.h</text>
</g>
<!-- Node12&#45;&gt;Node16 -->
<g id="edge32" class="edge"><title>Node12&#45;&gt;Node16</title>
<path fill="none" stroke="midnightblue" d="M354.058,-116.362C368.085,-107.614 388.184,-95.0786 404.182,-85.1015"/>
<polygon fill="midnightblue" stroke="midnightblue" points="406.418,-87.8323 413.051,-79.5707 402.713,-81.8927 406.418,-87.8323"/>
</g>
<!-- Node17 -->
<g id="node34" class="node"><title>Node17</title>
<polygon fill="white" stroke="#bfbfbf" points="480,-58.5 480,-79.5 544,-79.5 544,-58.5 480,-58.5"/>
<text text-anchor="middle" x="512" y="-66.5" font-family="Helvetica,sans-Serif" font-size="10.00">TMatrixT.h</text>
</g>
<!-- Node12&#45;&gt;Node17 -->
<g id="edge34" class="edge"><title>Node12&#45;&gt;Node17</title>
<path fill="none" stroke="midnightblue" d="M368.691,-116.497C397.221,-107.041 439.336,-93.0829 470.535,-82.7428"/>
<polygon fill="midnightblue" stroke="midnightblue" points="471.858,-85.9914 480.249,-79.5231 469.656,-79.3468 471.858,-85.9914"/>
</g>
<!-- Node18 -->
<g id="node37" class="node"><title>Node18</title>
<polygon fill="white" stroke="#bfbfbf" points="561.5,-58.5 561.5,-79.5 602.5,-79.5 602.5,-58.5 561.5,-58.5"/>
<text text-anchor="middle" x="582" y="-66.5" font-family="Helvetica,sans-Serif" font-size="10.00">stack</text>
</g>
<!-- Node12&#45;&gt;Node18 -->
<g id="edge38" class="edge"><title>Node12&#45;&gt;Node18</title>
<path fill="none" stroke="midnightblue" d="M387.482,-116.918C437.002,-106.88 510.011,-91.6509 551.408,-80.1452"/>
<polygon fill="midnightblue" stroke="midnightblue" points="552.585,-83.4481 561.217,-77.3057 550.639,-76.7242 552.585,-83.4481"/>
</g>
<!-- Node14 -->
<g id="node28" class="node"><title>Node14</title>
<polygon fill="white" stroke="#bfbfbf" points="268,-0.5 268,-21.5 330,-21.5 330,-0.5 268,-0.5"/>
<text text-anchor="middle" x="299" y="-8.5" font-family="Helvetica,sans-Serif" font-size="10.00">type_traits</text>
</g>
<!-- Node13&#45;&gt;Node14 -->
<g id="edge28" class="edge"><title>Node13&#45;&gt;Node14</title>
<path fill="none" stroke="midnightblue" d="M330.03,-58.3619C324.834,-50.4313 317.599,-39.3885 311.422,-29.9606"/>
<polygon fill="midnightblue" stroke="midnightblue" points="314.334,-28.0172 305.926,-21.5707 308.478,-31.8534 314.334,-28.0172"/>
</g>
<!-- Node15 -->
<g id="node30" class="node"><title>Node15</title>
<polygon fill="white" stroke="#bfbfbf" points="348,-0.5 348,-21.5 400,-21.5 400,-0.5 348,-0.5"/>
<text text-anchor="middle" x="374" y="-8.5" font-family="Helvetica,sans-Serif" font-size="10.00">ostream</text>
</g>
<!-- Node13&#45;&gt;Node15 -->
<g id="edge30" class="edge"><title>Node13&#45;&gt;Node15</title>
<path fill="none" stroke="midnightblue" d="M343.786,-58.3619C348.793,-50.5131 355.745,-39.6159 361.718,-30.2527"/>
<polygon fill="midnightblue" stroke="midnightblue" points="364.829,-31.8837 367.257,-21.5707 358.928,-28.1189 364.829,-31.8837"/>
</g>
</g>
</svg>
