<?xml version="1.0" encoding="UTF-8" standalone="no"?>
<!DOCTYPE svg PUBLIC "-//W3C//DTD SVG 1.1//EN"
 "http://www.w3.org/Graphics/SVG/1.1/DTD/svg11.dtd">
<!-- Generated by graphviz version 2.26.3 (20100126.1600)
 -->
<!-- Title: src/tree/TID.h Pages: 1 -->
<svg width="674pt" height="204pt"
 viewBox="0.00 0.00 674.00 204.00" xmlns="http://www.w3.org/2000/svg" xmlns:xlink="http://www.w3.org/1999/xlink">
<g id="graph1" class="graph" transform="scale(1 1) rotate(0) translate(4 200)">
<title>src/tree/TID.h</title>
<polygon fill="white" stroke="white" points="-4,5 -4,-200 671,-200 671,5 -4,5"/>
<!-- Node1 -->
<g id="node1" class="node"><title>Node1</title>
<polygon fill="#bfbfbf" stroke="black" points="330.5,-174.5 330.5,-195.5 407.5,-195.5 407.5,-174.5 330.5,-174.5"/>
<text text-anchor="middle" x="369" y="-182.5" font-family="Helvetica,sans-Serif" font-size="10.00">src/tree/TID.h</text>
</g>
<!-- Node2 -->
<g id="node3" class="node"><title>Node2</title>
<polygon fill="white" stroke="#bfbfbf" points="0,-116.5 0,-137.5 56,-137.5 56,-116.5 0,-116.5"/>
<text text-anchor="middle" x="28" y="-124.5" font-family="Helvetica,sans-Serif" font-size="10.00">Rtypes.h</text>
</g>
<!-- Node1&#45;&gt;Node2 -->
<g id="edge2" class="edge"><title>Node1&#45;&gt;Node2</title>
<path fill="none" stroke="midnightblue" d="M330.069,-180.149C272.793,-172.725 162.584,-157.35 70,-138 68.7549,-137.74 67.4915,-137.466 66.2176,-137.182"/>
<polygon fill="midnightblue" stroke="midnightblue" points="66.9134,-133.75 56.3752,-134.843 65.2953,-140.56 66.9134,-133.75"/>
</g>
<!-- Node3 -->
<g id="node5" class="node"><title>Node3</title>
<a xlink:href="printable_8h.html" target="_top" xlink:title="base/printable.h">
<polygon fill="white" stroke="black" points="112,-116.5 112,-137.5 198,-137.5 198,-116.5 112,-116.5"/>
<text text-anchor="middle" x="155" y="-124.5" font-family="Helvetica,sans-Serif" font-size="10.00">base/printable.h</text>
</a>
</g>
<!-- Node1&#45;&gt;Node3 -->
<g id="edge4" class="edge"><title>Node1&#45;&gt;Node3</title>
<path fill="none" stroke="midnightblue" d="M330.246,-174.497C294.754,-164.877 242.069,-150.598 203.736,-140.209"/>
<polygon fill="midnightblue" stroke="midnightblue" points="204.394,-136.761 193.826,-137.523 202.563,-143.517 204.394,-136.761"/>
</g>
<!-- Node4 -->
<g id="node7" class="node"><title>Node4</title>
<polygon fill="white" stroke="#bfbfbf" points="49,-58.5 49,-79.5 111,-79.5 111,-58.5 49,-58.5"/>
<text text-anchor="middle" x="80" y="-66.5" font-family="Helvetica,sans-Serif" font-size="10.00">type_traits</text>
</g>
<!-- Node1&#45;&gt;Node4 -->
<g id="edge26" class="edge"><title>Node1&#45;&gt;Node4</title>
<path fill="none" stroke="midnightblue" d="M330.252,-182.943C264.866,-178.71 136.462,-166.876 103,-138 89.1533,-126.051 83.6125,-105.535 81.4115,-89.9711"/>
<polygon fill="midnightblue" stroke="midnightblue" points="84.8585,-89.2842 80.328,-79.7069 77.8972,-90.0191 84.8585,-89.2842"/>
</g>
<!-- Node6 -->
<g id="node11" class="node"><title>Node6</title>
<a xlink:href="time_8h.html" target="_top" xlink:title="base/std_ext/time.h">
<polygon fill="white" stroke="black" points="215.5,-116.5 215.5,-137.5 318.5,-137.5 318.5,-116.5 215.5,-116.5"/>
<text text-anchor="middle" x="267" y="-124.5" font-family="Helvetica,sans-Serif" font-size="10.00">base/std_ext/time.h</text>
</a>
</g>
<!-- Node1&#45;&gt;Node6 -->
<g id="edge10" class="edge"><title>Node1&#45;&gt;Node6</title>
<path fill="none" stroke="midnightblue" d="M350.292,-174.362C334.619,-165.45 312.036,-152.609 294.337,-142.545"/>
<polygon fill="midnightblue" stroke="midnightblue" points="296.013,-139.471 285.59,-137.571 292.553,-145.556 296.013,-139.471"/>
</g>
<!-- Node13 -->
<g id="node25" class="node"><title>Node13</title>
<polygon fill="white" stroke="#bfbfbf" points="388.5,-58.5 388.5,-79.5 429.5,-79.5 429.5,-58.5 388.5,-58.5"/>
<text text-anchor="middle" x="409" y="-66.5" font-family="Helvetica,sans-Serif" font-size="10.00">ctime</text>
</g>
<!-- Node1&#45;&gt;Node13 -->
<g id="edge38" class="edge"><title>Node1&#45;&gt;Node13</title>
<path fill="none" stroke="midnightblue" d="M365.671,-174.274C361.934,-160.316 357.329,-135.418 365,-116 369.528,-104.539 378.316,-94.2323 386.856,-86.2117"/>
<polygon fill="midnightblue" stroke="midnightblue" points="389.28,-88.7411 394.499,-79.5208 384.67,-83.474 389.28,-88.7411"/>
</g>
<!-- Node14 -->
<g id="node28" class="node"><title>Node14</title>
<polygon fill="white" stroke="#bfbfbf" points="374,-116.5 374,-137.5 412,-137.5 412,-116.5 374,-116.5"/>
<text text-anchor="middle" x="393" y="-124.5" font-family="Helvetica,sans-Serif" font-size="10.00">tuple</text>
</g>
<!-- Node1&#45;&gt;Node14 -->
<g id="edge28" class="edge"><title>Node1&#45;&gt;Node14</title>
<path fill="none" stroke="midnightblue" d="M373.402,-174.362C376.582,-166.677 380.972,-156.069 384.79,-146.84"/>
<polygon fill="midnightblue" stroke="midnightblue" points="388.036,-148.149 388.626,-137.571 381.568,-145.473 388.036,-148.149"/>
</g>
<!-- Node15 -->
<g id="node30" class="node"><title>Node15</title>
<polygon fill="white" stroke="#bfbfbf" points="430,-116.5 430,-137.5 476,-137.5 476,-116.5 430,-116.5"/>
<text text-anchor="middle" x="453" y="-124.5" font-family="Helvetica,sans-Serif" font-size="10.00">cstdint</text>
</g>
<!-- Node1&#45;&gt;Node15 -->
<g id="edge30" class="edge"><title>Node1&#45;&gt;Node15</title>
<path fill="none" stroke="midnightblue" d="M384.407,-174.362C396.958,-165.696 414.892,-153.313 429.275,-143.382"/>
<polygon fill="midnightblue" stroke="midnightblue" points="431.45,-146.133 437.691,-137.571 427.473,-140.372 431.45,-146.133"/>
</g>
<!-- Node16 -->
<g id="node32" class="node"><title>Node16</title>
<polygon fill="white" stroke="#bfbfbf" points="493.5,-116.5 493.5,-137.5 552.5,-137.5 552.5,-116.5 493.5,-116.5"/>
<text text-anchor="middle" x="523" y="-124.5" font-family="Helvetica,sans-Serif" font-size="10.00">stdexcept</text>
</g>
<!-- Node1&#45;&gt;Node16 -->
<g id="edge32" class="edge"><title>Node1&#45;&gt;Node16</title>
<path fill="none" stroke="midnightblue" d="M396.888,-174.497C421.668,-165.164 458.095,-151.445 485.436,-141.147"/>
<polygon fill="midnightblue" stroke="midnightblue" points="486.935,-144.323 495.059,-137.523 484.468,-137.772 486.935,-144.323"/>
</g>
<!-- Node17 -->
<g id="node34" class="node"><title>Node17</title>
<polygon fill="white" stroke="#bfbfbf" points="569.5,-116.5 569.5,-137.5 598.5,-137.5 598.5,-116.5 569.5,-116.5"/>
<text text-anchor="middle" x="584" y="-124.5" font-family="Helvetica,sans-Serif" font-size="10.00">list</text>
</g>
<!-- Node1&#45;&gt;Node17 -->
<g id="edge34" class="edge"><title>Node1&#45;&gt;Node17</title>
<path fill="none" stroke="midnightblue" d="M407.568,-177.993C444.76,-170.704 502.624,-157.964 559.593,-138.064"/>
<polygon fill="midnightblue" stroke="midnightblue" points="560.853,-141.33 569.095,-134.673 558.501,-134.737 560.853,-141.33"/>
</g>
<!-- Node18 -->
<g id="node36" class="node"><title>Node18</title>
<polygon fill="white" stroke="#bfbfbf" points="616,-116.5 616,-137.5 666,-137.5 666,-116.5 616,-116.5"/>
<text text-anchor="middle" x="641" y="-124.5" font-family="Helvetica,sans-Serif" font-size="10.00">iomanip</text>
</g>
<!-- Node1&#45;&gt;Node18 -->
<g id="edge36" class="edge"><title>Node1&#45;&gt;Node18</title>
<path fill="none" stroke="midnightblue" d="M407.651,-178.811C452.965,-171.238 530.468,-157.304 605.726,-138.119"/>
<polygon fill="midnightblue" stroke="midnightblue" points="607.04,-141.394 615.846,-135.503 605.289,-134.617 607.04,-141.394"/>
</g>
<!-- Node3&#45;&gt;Node4 -->
<g id="edge6" class="edge"><title>Node3&#45;&gt;Node4</title>
<path fill="none" stroke="midnightblue" d="M141.244,-116.362C130.249,-107.859 114.627,-95.7785 101.914,-85.9466"/>
<polygon fill="midnightblue" stroke="midnightblue" points="103.721,-82.9195 93.6689,-79.5707 99.4384,-88.4569 103.721,-82.9195"/>
</g>
<!-- Node5 -->
<g id="node9" class="node"><title>Node5</title>
<polygon fill="white" stroke="#bfbfbf" points="129,-58.5 129,-79.5 181,-79.5 181,-58.5 129,-58.5"/>
<text text-anchor="middle" x="155" y="-66.5" font-family="Helvetica,sans-Serif" font-size="10.00">ostream</text>
</g>
<!-- Node3&#45;&gt;Node5 -->
<g id="edge8" class="edge"><title>Node3&#45;&gt;Node5</title>
<path fill="none" stroke="midnightblue" d="M155,-116.362C155,-108.922 155,-98.7427 155,-89.7276"/>
<polygon fill="midnightblue" stroke="midnightblue" points="158.5,-89.5706 155,-79.5707 151.5,-89.5707 158.5,-89.5706"/>
</g>
<!-- Node7 -->
<g id="node13" class="node"><title>Node7</title>
<a xlink:href="string_8h.html" target="_top" xlink:title="base/std_ext/string.h">
<polygon fill="white" stroke="black" points="199,-58.5 199,-79.5 307,-79.5 307,-58.5 199,-58.5"/>
<text text-anchor="middle" x="253" y="-66.5" font-family="Helvetica,sans-Serif" font-size="10.00">base/std_ext/string.h</text>
</a>
</g>
<!-- Node6&#45;&gt;Node7 -->
<g id="edge12" class="edge"><title>Node6&#45;&gt;Node7</title>
<path fill="none" stroke="midnightblue" d="M264.432,-116.362C262.617,-108.84 260.125,-98.5187 257.932,-89.4308"/>
<polygon fill="midnightblue" stroke="midnightblue" points="261.3,-88.4702 255.552,-79.5707 254.496,-90.1127 261.3,-88.4702"/>
</g>
<!-- Node12 -->
<g id="node23" class="node"><title>Node12</title>
<polygon fill="white" stroke="#bfbfbf" points="325,-58.5 325,-79.5 371,-79.5 371,-58.5 325,-58.5"/>
<text text-anchor="middle" x="348" y="-66.5" font-family="Helvetica,sans-Serif" font-size="10.00">cstring</text>
</g>
<!-- Node6&#45;&gt;Node12 -->
<g id="edge22" class="edge"><title>Node6&#45;&gt;Node12</title>
<path fill="none" stroke="midnightblue" d="M281.857,-116.362C293.846,-107.777 310.927,-95.5459 324.728,-85.6636"/>
<polygon fill="midnightblue" stroke="midnightblue" points="327.145,-88.2383 333.238,-79.5707 323.069,-82.5469 327.145,-88.2383"/>
</g>
<!-- Node6&#45;&gt;Node13 -->
<g id="edge24" class="edge"><title>Node6&#45;&gt;Node13</title>
<path fill="none" stroke="midnightblue" d="M292.715,-116.497C316.846,-106.641 352.953,-91.8923 378.522,-81.4489"/>
<polygon fill="midnightblue" stroke="midnightblue" points="380.16,-84.5606 388.094,-77.5391 377.513,-78.0803 380.16,-84.5606"/>
</g>
<!-- Node8 -->
<g id="node15" class="node"><title>Node8</title>
<polygon fill="white" stroke="#bfbfbf" points="132.5,-0.5 132.5,-21.5 173.5,-21.5 173.5,-0.5 132.5,-0.5"/>
<text text-anchor="middle" x="153" y="-8.5" font-family="Helvetica,sans-Serif" font-size="10.00">string</text>
</g>
<!-- Node7&#45;&gt;Node8 -->
<g id="edge14" class="edge"><title>Node7&#45;&gt;Node8</title>
<path fill="none" stroke="midnightblue" d="M234.658,-58.3619C219.434,-49.532 197.559,-36.844 180.28,-26.8224"/>
<polygon fill="midnightblue" stroke="midnightblue" points="181.632,-23.5603 171.225,-21.5707 178.12,-29.6155 181.632,-23.5603"/>
</g>
<!-- Node9 -->
<g id="node17" class="node"><title>Node9</title>
<polygon fill="white" stroke="#bfbfbf" points="191,-0.5 191,-21.5 243,-21.5 243,-0.5 191,-0.5"/>
<text text-anchor="middle" x="217" y="-8.5" font-family="Helvetica,sans-Serif" font-size="10.00">sstream</text>
</g>
<!-- Node7&#45;&gt;Node9 -->
<g id="edge16" class="edge"><title>Node7&#45;&gt;Node9</title>
<path fill="none" stroke="midnightblue" d="M246.397,-58.3619C241.525,-50.5131 234.762,-39.6159 228.95,-30.2527"/>
<polygon fill="midnightblue" stroke="midnightblue" points="231.809,-28.2213 223.561,-21.5707 225.861,-31.9129 231.809,-28.2213"/>
</g>
<!-- Node10 -->
<g id="node19" class="node"><title>Node10</title>
<polygon fill="white" stroke="#bfbfbf" points="261,-0.5 261,-21.5 317,-21.5 317,-0.5 261,-0.5"/>
<text text-anchor="middle" x="289" y="-8.5" font-family="Helvetica,sans-Serif" font-size="10.00">algorithm</text>
</g>
<!-- Node7&#45;&gt;Node10 -->
<g id="edge18" class="edge"><title>Node7&#45;&gt;Node10</title>
<path fill="none" stroke="midnightblue" d="M259.603,-58.3619C264.475,-50.5131 271.238,-39.6159 277.05,-30.2527"/>
<polygon fill="midnightblue" stroke="midnightblue" points="280.139,-31.9129 282.439,-21.5707 274.191,-28.2213 280.139,-31.9129"/>
</g>
<!-- Node11 -->
<g id="node21" class="node"><title>Node11</title>
<polygon fill="white" stroke="#bfbfbf" points="335,-0.5 335,-21.5 379,-21.5 379,-0.5 335,-0.5"/>
<text text-anchor="middle" x="357" y="-8.5" font-family="Helvetica,sans-Serif" font-size="10.00">vector</text>
</g>
<!-- Node7&#45;&gt;Node11 -->
<g id="edge20" class="edge"><title>Node7&#45;&gt;Node11</title>
<path fill="none" stroke="midnightblue" d="M272.075,-58.3619C288.055,-49.4502 311.081,-36.6087 329.127,-26.5447"/>
<polygon fill="midnightblue" stroke="midnightblue" points="331.017,-29.4982 338.046,-21.5707 327.607,-23.3846 331.017,-29.4982"/>
</g>
</g>
</svg>
