<?xml version="1.0" encoding="UTF-8" standalone="no"?>
<!DOCTYPE svg PUBLIC "-//W3C//DTD SVG 1.1//EN"
 "http://www.w3.org/Graphics/SVG/1.1/DTD/svg11.dtd">
<!-- Generated by graphviz version 2.26.3 (20100126.1600)
 -->
<!-- Title: src/tree/TParticle.h Pages: 1 -->
<svg width="1684pt" height="392pt"
 viewBox="0.00 0.00 1684.00 392.00" xmlns="http://www.w3.org/2000/svg" xmlns:xlink="http://www.w3.org/1999/xlink">
<g id="graph1" class="graph" transform="scale(1 1) rotate(0) translate(4 388)">
<title>src/tree/TParticle.h</title>
<polygon fill="white" stroke="white" points="-4,5 -4,-388 1681,-388 1681,5 -4,5"/>
<!-- Node1 -->
<g id="node1" class="node"><title>Node1</title>
<polygon fill="#bfbfbf" stroke="black" points="985,-362.5 985,-383.5 1085,-383.5 1085,-362.5 985,-362.5"/>
<text text-anchor="middle" x="1035" y="-370.5" font-family="Helvetica,sans-Serif" font-size="10.00">src/tree/TParticle.h</text>
</g>
<!-- Node2 -->
<g id="node3" class="node"><title>Node2</title>
<a xlink:href="_t_candidate_8h.html" target="_top" xlink:title="tree/TCandidate.h">
<polygon fill="white" stroke="black" points="582.5,-304.5 582.5,-325.5 677.5,-325.5 677.5,-304.5 582.5,-304.5"/>
<text text-anchor="middle" x="630" y="-312.5" font-family="Helvetica,sans-Serif" font-size="10.00">tree/TCandidate.h</text>
</a>
</g>
<!-- Node1&#45;&gt;Node2 -->
<g id="edge2" class="edge"><title>Node1&#45;&gt;Node2</title>
<path fill="none" stroke="midnightblue" d="M984.933,-365.83C909.688,-355.054 767.795,-334.734 688.099,-323.32"/>
<polygon fill="midnightblue" stroke="midnightblue" points="688.147,-319.792 677.752,-321.839 687.155,-326.721 688.147,-319.792"/>
</g>
<!-- Node5 -->
<g id="node9" class="node"><title>Node5</title>
<a xlink:href="printable_8h.html" target="_top" xlink:title="base/printable.h">
<polygon fill="white" stroke="black" points="198,-58.5 198,-79.5 284,-79.5 284,-58.5 198,-58.5"/>
<text text-anchor="middle" x="241" y="-66.5" font-family="Helvetica,sans-Serif" font-size="10.00">base/printable.h</text>
</a>
</g>
<!-- Node1&#45;&gt;Node5 -->
<g id="edge82" class="edge"><title>Node1&#45;&gt;Node5</title>
<path fill="none" stroke="midnightblue" d="M984.937,-372.383C813.675,-369.04 256.628,-347.594 163,-210 134.106,-167.538 186.773,-113.461 218.876,-86.2676"/>
<polygon fill="midnightblue" stroke="midnightblue" points="221.42,-88.7065 226.917,-79.649 216.972,-83.3018 221.42,-88.7065"/>
</g>
<!-- Node13 -->
<g id="node28" class="node"><title>Node13</title>
<polygon fill="white" stroke="#bfbfbf" points="715,-58.5 715,-79.5 759,-79.5 759,-58.5 715,-58.5"/>
<text text-anchor="middle" x="737" y="-66.5" font-family="Helvetica,sans-Serif" font-size="10.00">vector</text>
</g>
<!-- Node1&#45;&gt;Node13 -->
<g id="edge132" class="edge"><title>Node1&#45;&gt;Node13</title>
<path fill="none" stroke="midnightblue" d="M1031.78,-362.356C1019.44,-323.306 971.29,-186.535 883,-116 849.729,-89.4201 801.051,-77.7074 769.199,-72.6596"/>
<polygon fill="midnightblue" stroke="midnightblue" points="769.488,-69.1649 759.089,-71.1914 768.482,-76.0923 769.488,-69.1649"/>
</g>
<!-- Node19 -->
<g id="node45" class="node"><title>Node19</title>
<polygon fill="white" stroke="#bfbfbf" points="822,-116.5 822,-137.5 874,-137.5 874,-116.5 822,-116.5"/>
<text text-anchor="middle" x="848" y="-124.5" font-family="Helvetica,sans-Serif" font-size="10.00">memory</text>
</g>
<!-- Node1&#45;&gt;Node19 -->
<g id="edge138" class="edge"><title>Node1&#45;&gt;Node19</title>
<path fill="none" stroke="midnightblue" d="M1026.96,-362.43C998.073,-324.423 899.22,-194.38 862.173,-145.644"/>
<polygon fill="midnightblue" stroke="midnightblue" points="864.843,-143.374 856.005,-137.531 859.271,-147.61 864.843,-143.374"/>
</g>
<!-- Node23 -->
<g id="node65" class="node"><title>Node23</title>
<a xlink:href="types_8h.html" target="_top" xlink:title="base/types.h">
<polygon fill="white" stroke="black" points="1524.5,-58.5 1524.5,-79.5 1597.5,-79.5 1597.5,-58.5 1524.5,-58.5"/>
<text text-anchor="middle" x="1561" y="-66.5" font-family="Helvetica,sans-Serif" font-size="10.00">base/types.h</text>
</a>
</g>
<!-- Node1&#45;&gt;Node23 -->
<g id="edge84" class="edge"><title>Node1&#45;&gt;Node23</title>
<path fill="none" stroke="midnightblue" d="M1085.1,-367.89C1222.31,-353.226 1594,-308.726 1594,-257 1594,-257 1594,-257 1594,-192 1594,-154.637 1579.62,-113.003 1569.84,-89.0189"/>
<polygon fill="midnightblue" stroke="midnightblue" points="1572.98,-87.4531 1565.87,-79.6016 1566.53,-90.1756 1572.98,-87.4531"/>
</g>
<!-- Node24 -->
<g id="node67" class="node"><title>Node24</title>
<a xlink:href="_particle_type_8h.html" target="_top" xlink:title="base/ParticleType.h">
<polygon fill="white" stroke="black" points="1326,-181.5 1326,-202.5 1430,-202.5 1430,-181.5 1326,-181.5"/>
<text text-anchor="middle" x="1378" y="-189.5" font-family="Helvetica,sans-Serif" font-size="10.00">base/ParticleType.h</text>
</a>
</g>
<!-- Node1&#45;&gt;Node24 -->
<g id="edge86" class="edge"><title>Node1&#45;&gt;Node24</title>
<path fill="none" stroke="midnightblue" d="M1085.33,-365.021C1121.17,-358.021 1169.75,-345.797 1209,-326 1270.73,-294.867 1331.33,-238.936 1360.32,-210.174"/>
<polygon fill="midnightblue" stroke="midnightblue" points="1363.06,-212.382 1367.63,-202.825 1358.09,-207.445 1363.06,-212.382"/>
</g>
<!-- Node29 -->
<g id="node86" class="node"><title>Node29</title>
<a xlink:href="_tree_8h.html" target="_top" xlink:title="base/Tree.h">
<polygon fill="white" stroke="black" points="1032,-181.5 1032,-202.5 1100,-202.5 1100,-181.5 1032,-181.5"/>
<text text-anchor="middle" x="1066" y="-189.5" font-family="Helvetica,sans-Serif" font-size="10.00">base/Tree.h</text>
</a>
</g>
<!-- Node1&#45;&gt;Node29 -->
<g id="edge114" class="edge"><title>Node1&#45;&gt;Node29</title>
<path fill="none" stroke="midnightblue" d="M1036.8,-362.486C1041.79,-333.37 1055.85,-251.292 1062.47,-212.63"/>
<polygon fill="midnightblue" stroke="midnightblue" points="1065.96,-212.99 1064.19,-202.543 1059.06,-211.808 1065.96,-212.99"/>
</g>
<!-- Node31 -->
<g id="node91" class="node"><title>Node31</title>
<polygon fill="white" stroke="#bfbfbf" points="1247.5,-116.5 1247.5,-137.5 1276.5,-137.5 1276.5,-116.5 1247.5,-116.5"/>
<text text-anchor="middle" x="1262" y="-124.5" font-family="Helvetica,sans-Serif" font-size="10.00">list</text>
</g>
<!-- Node1&#45;&gt;Node31 -->
<g id="edge134" class="edge"><title>Node1&#45;&gt;Node31</title>
<path fill="none" stroke="midnightblue" d="M1044.75,-362.43C1079.97,-324.265 1200.82,-193.299 1245.35,-145.042"/>
<polygon fill="midnightblue" stroke="midnightblue" points="1248.07,-147.254 1252.28,-137.531 1242.93,-142.507 1248.07,-147.254"/>
</g>
<!-- Node33 -->
<g id="node97" class="node"><title>Node33</title>
<a xlink:href="_lorentz_vec_8h.html" target="_top" xlink:title="base/vec/LorentzVec.h">
<polygon fill="white" stroke="black" points="-0.5,-246.5 -0.5,-267.5 116.5,-267.5 116.5,-246.5 -0.5,-246.5"/>
<text text-anchor="middle" x="58" y="-254.5" font-family="Helvetica,sans-Serif" font-size="10.00">base/vec/LorentzVec.h</text>
</a>
</g>
<!-- Node1&#45;&gt;Node33 -->
<g id="edge128" class="edge"><title>Node1&#45;&gt;Node33</title>
<path fill="none" stroke="midnightblue" d="M984.771,-372.43C806.193,-370.124 208.481,-359.924 130,-326 105.462,-315.393 84.331,-292.48 71.4242,-275.964"/>
<polygon fill="midnightblue" stroke="midnightblue" points="73.9282,-273.469 65.1304,-267.566 68.3266,-277.667 73.9282,-273.469"/>
</g>
<!-- Node34 -->
<g id="node102" class="node"><title>Node34</title>
<polygon fill="white" stroke="#bfbfbf" points="1622,-304.5 1622,-325.5 1676,-325.5 1676,-304.5 1622,-304.5"/>
<text text-anchor="middle" x="1649" y="-312.5" font-family="Helvetica,sans-Serif" font-size="10.00">iostream</text>
</g>
<!-- Node1&#45;&gt;Node34 -->
<g id="edge136" class="edge"><title>Node1&#45;&gt;Node34</title>
<path fill="none" stroke="midnightblue" d="M1085.2,-371.918C1185.34,-369.093 1416.73,-359.223 1608,-326 1609.27,-325.78 1610.55,-325.539 1611.84,-325.281"/>
<polygon fill="midnightblue" stroke="midnightblue" points="1612.82,-328.648 1621.81,-323.03 1611.28,-321.82 1612.82,-328.648"/>
</g>
<!-- Node3 -->
<g id="node5" class="node"><title>Node3</title>
<a xlink:href="_t_cluster_8h.html" target="_top" xlink:title="TCluster.h">
<polygon fill="white" stroke="black" points="473,-246.5 473,-267.5 535,-267.5 535,-246.5 473,-246.5"/>
<text text-anchor="middle" x="504" y="-254.5" font-family="Helvetica,sans-Serif" font-size="10.00">TCluster.h</text>
</a>
</g>
<!-- Node2&#45;&gt;Node3 -->
<g id="edge4" class="edge"><title>Node2&#45;&gt;Node3</title>
<path fill="none" stroke="midnightblue" d="M607.182,-304.497C587.414,-295.397 558.587,-282.127 536.424,-271.925"/>
<polygon fill="midnightblue" stroke="midnightblue" points="537.621,-268.623 527.074,-267.621 534.694,-274.982 537.621,-268.623"/>
</g>
<!-- Node4 -->
<g id="node7" class="node"><title>Node4</title>
<a xlink:href="_detector__t_8h.html" target="_top" xlink:title="base/Detector_t.h">
<polygon fill="white" stroke="black" points="385.5,-181.5 385.5,-202.5 480.5,-202.5 480.5,-181.5 385.5,-181.5"/>
<text text-anchor="middle" x="433" y="-189.5" font-family="Helvetica,sans-Serif" font-size="10.00">base/Detector_t.h</text>
</a>
</g>
<!-- Node2&#45;&gt;Node4 -->
<g id="edge70" class="edge"><title>Node2&#45;&gt;Node4</title>
<path fill="none" stroke="midnightblue" d="M582.18,-306.3C539.618,-297.711 481.47,-283.625 464,-268 447.968,-253.661 440.065,-229.811 436.278,-212.65"/>
<polygon fill="midnightblue" stroke="midnightblue" points="439.654,-211.671 434.339,-202.506 432.778,-212.985 439.654,-211.671"/>
</g>
<!-- Node2&#45;&gt;Node13 -->
<g id="edge72" class="edge"><title>Node2&#45;&gt;Node13</title>
<path fill="none" stroke="midnightblue" d="M647.476,-304.429C672.828,-287.94 718.767,-253.437 737,-210 753.728,-170.147 747.382,-118.196 741.832,-89.7921"/>
<polygon fill="midnightblue" stroke="midnightblue" points="745.214,-88.868 739.72,-79.8089 738.366,-90.3168 745.214,-88.868"/>
</g>
<!-- Node14 -->
<g id="node30" class="node"><title>Node14</title>
<polygon fill="white" stroke="#bfbfbf" points="950,-58.5 950,-79.5 1006,-79.5 1006,-58.5 950,-58.5"/>
<text text-anchor="middle" x="978" y="-66.5" font-family="Helvetica,sans-Serif" font-size="10.00">algorithm</text>
</g>
<!-- Node2&#45;&gt;Node14 -->
<g id="edge80" class="edge"><title>Node2&#45;&gt;Node14</title>
<path fill="none" stroke="midnightblue" d="M677.711,-308.236C711.77,-301.8 757.625,-289.751 793,-268 872.238,-219.278 939.171,-127.543 965.742,-87.9665"/>
<polygon fill="midnightblue" stroke="midnightblue" points="968.742,-89.7745 971.339,-79.5029 962.904,-85.913 968.742,-89.7745"/>
</g>
<!-- Node2&#45;&gt;Node19 -->
<g id="edge78" class="edge"><title>Node2&#45;&gt;Node19</title>
<path fill="none" stroke="midnightblue" d="M677.758,-307.994C707.039,-301.662 743.803,-289.829 770,-268 809.219,-235.32 832.159,-177.585 842.1,-147.12"/>
<polygon fill="midnightblue" stroke="midnightblue" points="845.443,-148.156 845.08,-137.567 838.761,-146.072 845.443,-148.156"/>
</g>
<!-- Node21 -->
<g id="node53" class="node"><title>Node21</title>
<polygon fill="white" stroke="#bfbfbf" points="172,-181.5 172,-202.5 222,-202.5 222,-181.5 172,-181.5"/>
<text text-anchor="middle" x="197" y="-189.5" font-family="Helvetica,sans-Serif" font-size="10.00">iomanip</text>
</g>
<!-- Node2&#45;&gt;Node21 -->
<g id="edge74" class="edge"><title>Node2&#45;&gt;Node21</title>
<path fill="none" stroke="midnightblue" d="M582.128,-308.615C531.547,-301.256 449.748,-287.602 381,-268 312.263,-248.401 296.032,-239.662 231,-210 229.177,-209.168 227.314,-208.285 225.446,-207.372"/>
<polygon fill="midnightblue" stroke="midnightblue" points="226.721,-204.094 216.221,-202.681 223.548,-210.334 226.721,-204.094"/>
</g>
<!-- Node22 -->
<g id="node55" class="node"><title>Node22</title>
<polygon fill="white" stroke="#bfbfbf" points="240,-181.5 240,-202.5 292,-202.5 292,-181.5 240,-181.5"/>
<text text-anchor="middle" x="266" y="-189.5" font-family="Helvetica,sans-Serif" font-size="10.00">sstream</text>
</g>
<!-- Node2&#45;&gt;Node22 -->
<g id="edge76" class="edge"><title>Node2&#45;&gt;Node22</title>
<path fill="none" stroke="midnightblue" d="M582.421,-305.052C544.5,-296.629 490.276,-283.474 444,-268 380.904,-246.902 367.007,-236.542 306,-210 303.532,-208.926 300.983,-207.806 298.422,-206.672"/>
<polygon fill="midnightblue" stroke="midnightblue" points="299.781,-203.446 289.223,-202.568 296.929,-209.839 299.781,-203.446"/>
</g>
<!-- Node3&#45;&gt;Node4 -->
<g id="edge6" class="edge"><title>Node3&#45;&gt;Node4</title>
<path fill="none" stroke="midnightblue" d="M492.276,-246.267C481.316,-236.233 464.762,-221.078 451.931,-209.331"/>
<polygon fill="midnightblue" stroke="midnightblue" points="454.245,-206.705 444.506,-202.534 449.519,-211.868 454.245,-206.705"/>
</g>
<!-- Node8 -->
<g id="node15" class="node"><title>Node8</title>
<a xlink:href="vec3_8h.html" target="_top" xlink:title="base/vec/vec3.h">
<polygon fill="white" stroke="black" points="51.5,-116.5 51.5,-137.5 140.5,-137.5 140.5,-116.5 51.5,-116.5"/>
<text text-anchor="middle" x="96" y="-124.5" font-family="Helvetica,sans-Serif" font-size="10.00">base/vec/vec3.h</text>
</a>
</g>
<!-- Node3&#45;&gt;Node8 -->
<g id="edge58" class="edge"><title>Node3&#45;&gt;Node8</title>
<path fill="none" stroke="midnightblue" d="M472.775,-251.774C439.425,-245.312 385.735,-232.334 344,-210 322.024,-198.24 323.32,-185.092 301,-174 287.543,-167.313 206.627,-149.792 150.573,-138.135"/>
<polygon fill="midnightblue" stroke="midnightblue" points="151.267,-134.705 140.765,-136.102 149.847,-141.559 151.267,-134.705"/>
</g>
<!-- Node10 -->
<g id="node20" class="node"><title>Node10</title>
<polygon fill="white" stroke="#bfbfbf" points="120,-0.5 120,-21.5 164,-21.5 164,-0.5 120,-0.5"/>
<text text-anchor="middle" x="142" y="-8.5" font-family="Helvetica,sans-Serif" font-size="10.00">cmath</text>
</g>
<!-- Node3&#45;&gt;Node10 -->
<g id="edge62" class="edge"><title>Node3&#45;&gt;Node10</title>
<path fill="none" stroke="midnightblue" d="M472.821,-248.939C446.2,-241.262 407.494,-228.176 377,-210 356.17,-197.584 356.044,-187.648 336,-174 307.082,-154.31 295.635,-156.592 266,-138 229.706,-115.231 218.566,-111.008 189,-80 174.559,-64.8551 161.458,-44.8467 152.778,-30.2774"/>
<polygon fill="midnightblue" stroke="midnightblue" points="155.788,-28.4896 147.744,-21.5945 149.732,-32.0011 155.788,-28.4896"/>
</g>
<!-- Node11 -->
<g id="node23" class="node"><title>Node11</title>
<a xlink:href="math_8h.html" target="_top" xlink:title="base/std_ext/math.h">
<polygon fill="white" stroke="black" points="412,-116.5 412,-137.5 518,-137.5 518,-116.5 412,-116.5"/>
<text text-anchor="middle" x="465" y="-124.5" font-family="Helvetica,sans-Serif" font-size="10.00">base/std_ext/math.h</text>
</a>
</g>
<!-- Node3&#45;&gt;Node11 -->
<g id="edge46" class="edge"><title>Node3&#45;&gt;Node11</title>
<path fill="none" stroke="midnightblue" d="M503.074,-246.269C501.464,-230.206 497.474,-199.113 489,-174 485.842,-164.641 481.087,-154.829 476.64,-146.605"/>
<polygon fill="midnightblue" stroke="midnightblue" points="479.638,-144.794 471.677,-137.804 473.54,-148.233 479.638,-144.794"/>
</g>
<!-- Node3&#45;&gt;Node13 -->
<g id="edge60" class="edge"><title>Node3&#45;&gt;Node13</title>
<path fill="none" stroke="midnightblue" d="M505.441,-246.324C509.568,-220.022 523.901,-151.657 565,-116 585.889,-97.8767 661.407,-82.1564 705.121,-74.3132"/>
<polygon fill="midnightblue" stroke="midnightblue" points="705.733,-77.7593 714.976,-72.5816 704.522,-70.8649 705.733,-77.7593"/>
</g>
<!-- Node18 -->
<g id="node42" class="node"><title>Node18</title>
<a xlink:href="shared__ptr__container_8h.html" target="_top" xlink:title="base/std_ext/shared\l_ptr_container.h">
<polygon fill="white" stroke="black" points="623.5,-175 623.5,-209 728.5,-209 728.5,-175 623.5,-175"/>
<text text-anchor="start" x="631.5" y="-196" font-family="Helvetica,sans-Serif" font-size="10.00">base/std_ext/shared</text>
<text text-anchor="middle" x="676" y="-183" font-family="Helvetica,sans-Serif" font-size="10.00">_ptr_container.h</text>
</a>
</g>
<!-- Node3&#45;&gt;Node18 -->
<g id="edge48" class="edge"><title>Node3&#45;&gt;Node18</title>
<path fill="none" stroke="midnightblue" d="M532.018,-246.412C556.154,-237.291 591.697,-223.859 621.428,-212.623"/>
<polygon fill="midnightblue" stroke="midnightblue" points="622.739,-215.87 630.856,-209.06 620.264,-209.322 622.739,-215.87"/>
</g>
<!-- Node3&#45;&gt;Node19 -->
<g id="edge68" class="edge"><title>Node3&#45;&gt;Node19</title>
<path fill="none" stroke="midnightblue" d="M535.102,-255.082C581.061,-251.302 669.005,-240.41 737,-210 773.456,-193.695 809.297,-163.646 829.997,-144.527"/>
<polygon fill="midnightblue" stroke="midnightblue" points="832.527,-146.952 837.406,-137.548 827.727,-141.857 832.527,-146.952"/>
</g>
<!-- Node3&#45;&gt;Node21 -->
<g id="edge64" class="edge"><title>Node3&#45;&gt;Node21</title>
<path fill="none" stroke="midnightblue" d="M472.918,-254.857C421.416,-250.603 315.664,-238.876 231,-210 228.566,-209.17 226.096,-208.182 223.654,-207.104"/>
<polygon fill="midnightblue" stroke="midnightblue" points="225.042,-203.886 214.522,-202.63 221.963,-210.173 225.042,-203.886"/>
</g>
<!-- Node3&#45;&gt;Node22 -->
<g id="edge66" class="edge"><title>Node3&#45;&gt;Node22</title>
<path fill="none" stroke="midnightblue" d="M472.962,-251.527C433.539,-244.146 363.696,-229.631 306,-210 303.067,-209.002 300.055,-207.866 297.065,-206.662"/>
<polygon fill="midnightblue" stroke="midnightblue" points="298.276,-203.374 287.705,-202.667 295.528,-209.812 298.276,-203.374"/>
</g>
<!-- Node4&#45;&gt;Node5 -->
<g id="edge8" class="edge"><title>Node4&#45;&gt;Node5</title>
<path fill="none" stroke="midnightblue" d="M399.069,-181.448C363.139,-169.85 309.268,-151.128 292,-138 274.588,-124.762 260.371,-104.01 251.413,-88.7185"/>
<polygon fill="midnightblue" stroke="midnightblue" points="254.243,-86.6089 246.305,-79.5922 248.135,-90.0278 254.243,-86.6089"/>
</g>
<!-- Node6 -->
<g id="node11" class="node"><title>Node6</title>
<polygon fill="white" stroke="#bfbfbf" points="29,-0.5 29,-21.5 91,-21.5 91,-0.5 29,-0.5"/>
<text text-anchor="middle" x="60" y="-8.5" font-family="Helvetica,sans-Serif" font-size="10.00">type_traits</text>
</g>
<!-- Node4&#45;&gt;Node6 -->
<g id="edge42" class="edge"><title>Node4&#45;&gt;Node6</title>
<path fill="none" stroke="midnightblue" d="M385.279,-185.494C281.344,-171.311 43.7015,-138.805 43,-138 16.9736,-108.122 35.3959,-58.3364 49.0125,-30.812"/>
<polygon fill="midnightblue" stroke="midnightblue" points="52.2128,-32.2438 53.7204,-21.7568 46.0021,-29.0147 52.2128,-32.2438"/>
</g>
<!-- Node4&#45;&gt;Node8 -->
<g id="edge14" class="edge"><title>Node4&#45;&gt;Node8</title>
<path fill="none" stroke="midnightblue" d="M385.431,-182.825C323.604,-170.9 215.865,-150.119 150.717,-137.554"/>
<polygon fill="midnightblue" stroke="midnightblue" points="151.123,-134.068 140.641,-135.61 149.797,-140.941 151.123,-134.068"/>
</g>
<!-- Node4&#45;&gt;Node11 -->
<g id="edge24" class="edge"><title>Node4&#45;&gt;Node11</title>
<path fill="none" stroke="midnightblue" d="M438.284,-181.267C442.897,-171.896 449.71,-158.057 455.301,-146.7"/>
<polygon fill="midnightblue" stroke="midnightblue" points="458.537,-148.051 459.814,-137.534 452.257,-144.96 458.537,-148.051"/>
</g>
<!-- Node4&#45;&gt;Node13 -->
<g id="edge44" class="edge"><title>Node4&#45;&gt;Node13</title>
<path fill="none" stroke="midnightblue" d="M422.447,-181.243C408.128,-165.347 386.157,-135.379 403,-116 422.668,-93.3705 624.636,-76.8677 704.63,-71.1721"/>
<polygon fill="midnightblue" stroke="midnightblue" points="704.908,-74.6613 714.639,-70.4708 704.419,-67.6784 704.908,-74.6613"/>
</g>
<!-- Node15 -->
<g id="node32" class="node"><title>Node15</title>
<polygon fill="white" stroke="#bfbfbf" points="435.5,-58.5 435.5,-79.5 494.5,-79.5 494.5,-58.5 435.5,-58.5"/>
<text text-anchor="middle" x="465" y="-66.5" font-family="Helvetica,sans-Serif" font-size="10.00">stdexcept</text>
</g>
<!-- Node4&#45;&gt;Node15 -->
<g id="edge38" class="edge"><title>Node4&#45;&gt;Node15</title>
<path fill="none" stroke="midnightblue" d="M402.253,-181.455C365.152,-168.426 306.969,-146.891 301,-138 295.55,-129.882 295.115,-123.808 301,-116 315.936,-96.1828 381.584,-82.1717 425.157,-74.8564"/>
<polygon fill="midnightblue" stroke="midnightblue" points="425.865,-78.2872 435.173,-73.2266 424.741,-71.3781 425.865,-78.2872"/>
</g>
<!-- Node16 -->
<g id="node34" class="node"><title>Node16</title>
<polygon fill="white" stroke="#bfbfbf" points="310,-116.5 310,-137.5 356,-137.5 356,-116.5 310,-116.5"/>
<text text-anchor="middle" x="333" y="-124.5" font-family="Helvetica,sans-Serif" font-size="10.00">cstdint</text>
</g>
<!-- Node4&#45;&gt;Node16 -->
<g id="edge36" class="edge"><title>Node4&#45;&gt;Node16</title>
<path fill="none" stroke="midnightblue" d="M416.487,-181.267C400.469,-170.855 375.964,-154.927 357.64,-143.016"/>
<polygon fill="midnightblue" stroke="midnightblue" points="359.498,-140.049 349.206,-137.534 355.683,-145.918 359.498,-140.049"/>
</g>
<!-- Node17 -->
<g id="node37" class="node"><title>Node17</title>
<polygon fill="white" stroke="#bfbfbf" points="649.5,-116.5 649.5,-137.5 690.5,-137.5 690.5,-116.5 649.5,-116.5"/>
<text text-anchor="middle" x="670" y="-124.5" font-family="Helvetica,sans-Serif" font-size="10.00">string</text>
</g>
<!-- Node4&#45;&gt;Node17 -->
<g id="edge40" class="edge"><title>Node4&#45;&gt;Node17</title>
<path fill="none" stroke="midnightblue" d="M479.675,-181.416C519.949,-171.94 579.795,-157.042 639.592,-138.253"/>
<polygon fill="midnightblue" stroke="midnightblue" points="640.716,-141.569 649.186,-135.204 638.596,-134.897 640.716,-141.569"/>
</g>
<!-- Node5&#45;&gt;Node6 -->
<g id="edge10" class="edge"><title>Node5&#45;&gt;Node6</title>
<path fill="none" stroke="midnightblue" d="M208.222,-58.4966C178.033,-48.8226 133.135,-34.4356 100.669,-24.0321"/>
<polygon fill="midnightblue" stroke="midnightblue" points="101.614,-20.6595 91.0226,-20.9409 99.4775,-27.3256 101.614,-20.6595"/>
</g>
<!-- Node7 -->
<g id="node13" class="node"><title>Node7</title>
<polygon fill="white" stroke="#bfbfbf" points="910,-0.5 910,-21.5 962,-21.5 962,-0.5 910,-0.5"/>
<text text-anchor="middle" x="936" y="-8.5" font-family="Helvetica,sans-Serif" font-size="10.00">ostream</text>
</g>
<!-- Node5&#45;&gt;Node7 -->
<g id="edge12" class="edge"><title>Node5&#45;&gt;Node7</title>
<path fill="none" stroke="midnightblue" d="M284.213,-65.3938C411.181,-54.7978 781.557,-23.8888 899.486,-14.0473"/>
<polygon fill="midnightblue" stroke="midnightblue" points="900.103,-17.508 909.777,-13.1884 899.521,-10.5322 900.103,-17.508"/>
</g>
<!-- Node8&#45;&gt;Node5 -->
<g id="edge16" class="edge"><title>Node8&#45;&gt;Node5</title>
<path fill="none" stroke="midnightblue" d="M122.258,-116.497C145.416,-107.234 179.375,-93.6499 205.052,-83.3793"/>
<polygon fill="midnightblue" stroke="midnightblue" points="206.462,-86.5849 214.447,-79.6212 203.862,-80.0855 206.462,-86.5849"/>
</g>
<!-- Node9 -->
<g id="node18" class="node"><title>Node9</title>
<a xlink:href="vec2_8h.html" target="_top" xlink:title="vec2.h">
<polygon fill="white" stroke="black" points="94,-58.5 94,-79.5 140,-79.5 140,-58.5 94,-58.5"/>
<text text-anchor="middle" x="117" y="-66.5" font-family="Helvetica,sans-Serif" font-size="10.00">vec2.h</text>
</a>
</g>
<!-- Node8&#45;&gt;Node9 -->
<g id="edge18" class="edge"><title>Node8&#45;&gt;Node9</title>
<path fill="none" stroke="midnightblue" d="M99.8517,-116.362C102.605,-108.758 106.394,-98.294 109.71,-89.1349"/>
<polygon fill="midnightblue" stroke="midnightblue" points="113.059,-90.1649 113.173,-79.5707 106.477,-87.7818 113.059,-90.1649"/>
</g>
<!-- Node8&#45;&gt;Node10 -->
<g id="edge22" class="edge"><title>Node8&#45;&gt;Node10</title>
<path fill="none" stroke="midnightblue" d="M90.5663,-116.173C84.3146,-102.106 75.9977,-77.0909 85,-58 90.9568,-45.3676 102.159,-34.9782 113.066,-27.2091"/>
<polygon fill="midnightblue" stroke="midnightblue" points="115.227,-29.977 121.645,-21.5475 111.371,-24.1346 115.227,-29.977"/>
</g>
<!-- Node9&#45;&gt;Node10 -->
<g id="edge20" class="edge"><title>Node9&#45;&gt;Node10</title>
<path fill="none" stroke="midnightblue" d="M121.585,-58.3619C124.898,-50.6766 129.47,-40.0686 133.448,-30.8399"/>
<polygon fill="midnightblue" stroke="midnightblue" points="136.699,-32.1393 137.444,-21.5707 130.271,-29.3685 136.699,-32.1393"/>
</g>
<!-- Node11&#45;&gt;Node10 -->
<g id="edge26" class="edge"><title>Node11&#45;&gt;Node10</title>
<path fill="none" stroke="midnightblue" d="M440.456,-116.434C407.295,-102.326 346.203,-76.9174 293,-58 252.327,-43.5377 204.657,-29.1115 173.926,-20.1323"/>
<polygon fill="midnightblue" stroke="midnightblue" points="174.768,-16.7321 164.188,-17.3038 172.815,-23.4543 174.768,-16.7321"/>
</g>
<!-- Node12 -->
<g id="node26" class="node"><title>Node12</title>
<polygon fill="white" stroke="#bfbfbf" points="1215,-58.5 1215,-79.5 1255,-79.5 1255,-58.5 1215,-58.5"/>
<text text-anchor="middle" x="1235" y="-66.5" font-family="Helvetica,sans-Serif" font-size="10.00">limits</text>
</g>
<!-- Node11&#45;&gt;Node12 -->
<g id="edge28" class="edge"><title>Node11&#45;&gt;Node12</title>
<path fill="none" stroke="midnightblue" d="M518.156,-120.758C533.28,-119.089 549.779,-117.37 565,-116 811.605,-93.7959 1110.08,-76.0903 1204.71,-70.6972"/>
<polygon fill="midnightblue" stroke="midnightblue" points="1205.19,-74.1757 1214.97,-70.115 1204.79,-67.1869 1205.19,-74.1757"/>
</g>
<!-- Node11&#45;&gt;Node13 -->
<g id="edge30" class="edge"><title>Node11&#45;&gt;Node13</title>
<path fill="none" stroke="midnightblue" d="M514.257,-116.497C569.623,-104.691 657.905,-85.8658 704.98,-75.8277"/>
<polygon fill="midnightblue" stroke="midnightblue" points="705.872,-79.2164 714.922,-73.7078 704.412,-72.3703 705.872,-79.2164"/>
</g>
<!-- Node11&#45;&gt;Node14 -->
<g id="edge32" class="edge"><title>Node11&#45;&gt;Node14</title>
<path fill="none" stroke="midnightblue" d="M518.448,-120.957C622.373,-109.207 849.395,-83.5401 939.772,-73.3221"/>
<polygon fill="midnightblue" stroke="midnightblue" points="940.305,-76.7843 949.848,-72.1829 939.518,-69.8286 940.305,-76.7843"/>
</g>
<!-- Node11&#45;&gt;Node15 -->
<g id="edge34" class="edge"><title>Node11&#45;&gt;Node15</title>
<path fill="none" stroke="midnightblue" d="M465,-116.362C465,-108.922 465,-98.7427 465,-89.7276"/>
<polygon fill="midnightblue" stroke="midnightblue" points="468.5,-89.5706 465,-79.5707 461.5,-89.5707 468.5,-89.5706"/>
</g>
<!-- Node18&#45;&gt;Node13 -->
<g id="edge50" class="edge"><title>Node18&#45;&gt;Node13</title>
<path fill="none" stroke="midnightblue" d="M684.482,-174.897C695.653,-152.372 715.263,-112.83 727.1,-88.9619"/>
<polygon fill="midnightblue" stroke="midnightblue" points="730.343,-90.3013 731.65,-79.7875 724.072,-87.1912 730.343,-90.3013"/>
</g>
<!-- Node18&#45;&gt;Node14 -->
<g id="edge56" class="edge"><title>Node18&#45;&gt;Node14</title>
<path fill="none" stroke="midnightblue" d="M702.381,-174.967C729.321,-158.157 772.782,-132.625 813,-116 855.158,-98.5727 905.93,-85.1753 939.919,-77.2236"/>
<polygon fill="midnightblue" stroke="midnightblue" points="940.938,-80.581 949.901,-74.9322 939.371,-73.7585 940.938,-80.581"/>
</g>
<!-- Node18&#45;&gt;Node19 -->
<g id="edge52" class="edge"><title>Node18&#45;&gt;Node19</title>
<path fill="none" stroke="midnightblue" d="M721.191,-174.922C749.61,-164.182 785.768,-150.518 812.197,-140.53"/>
<polygon fill="midnightblue" stroke="midnightblue" points="813.696,-143.706 821.813,-136.896 811.221,-137.158 813.696,-143.706"/>
</g>
<!-- Node20 -->
<g id="node47" class="node"><title>Node20</title>
<polygon fill="white" stroke="#bfbfbf" points="573.5,-116.5 573.5,-137.5 632.5,-137.5 632.5,-116.5 573.5,-116.5"/>
<text text-anchor="middle" x="603" y="-124.5" font-family="Helvetica,sans-Serif" font-size="10.00">functional</text>
</g>
<!-- Node18&#45;&gt;Node20 -->
<g id="edge54" class="edge"><title>Node18&#45;&gt;Node20</title>
<path fill="none" stroke="midnightblue" d="M656.82,-174.922C646.317,-165.57 633.324,-154.001 622.735,-144.572"/>
<polygon fill="midnightblue" stroke="midnightblue" points="624.984,-141.888 615.188,-137.852 620.329,-147.116 624.984,-141.888"/>
</g>
<!-- Node24&#45;&gt;Node7 -->
<g id="edge106" class="edge"><title>Node24&#45;&gt;Node7</title>
<path fill="none" stroke="midnightblue" d="M1430.17,-182.023C1514.31,-163.808 1664.86,-121.135 1606,-58 1584.23,-34.6451 1109.09,-16.8442 972.451,-12.1941"/>
<polygon fill="midnightblue" stroke="midnightblue" points="972.223,-8.68454 962.111,-11.8454 971.987,-15.6806 972.223,-8.68454"/>
</g>
<!-- Node24&#45;&gt;Node13 -->
<g id="edge112" class="edge"><title>Node24&#45;&gt;Node13</title>
<path fill="none" stroke="midnightblue" d="M1369,-181.33C1353.75,-164.092 1320.94,-130.578 1285,-116 1237.21,-96.6131 879.756,-76.4729 769.371,-70.6598"/>
<polygon fill="midnightblue" stroke="midnightblue" points="769.355,-67.1542 759.186,-70.1272 768.99,-74.1447 769.355,-67.1542"/>
</g>
<!-- Node24&#45;&gt;Node17 -->
<g id="edge104" class="edge"><title>Node24&#45;&gt;Node17</title>
<path fill="none" stroke="midnightblue" d="M1325.94,-187.22C1187.02,-174.467 810.651,-139.913 700.608,-129.81"/>
<polygon fill="midnightblue" stroke="midnightblue" points="700.798,-126.313 690.52,-128.884 700.158,-133.284 700.798,-126.313"/>
</g>
<!-- Node24&#45;&gt;Node23 -->
<g id="edge88" class="edge"><title>Node24&#45;&gt;Node23</title>
<path fill="none" stroke="midnightblue" d="M1430,-186.223C1464.48,-179.82 1508.45,-166.343 1537,-138 1549.97,-125.13 1555.94,-104.898 1558.68,-89.6641"/>
<polygon fill="midnightblue" stroke="midnightblue" points="1562.17,-90.0351 1560.17,-79.631 1555.24,-89.0122 1562.17,-90.0351"/>
</g>
<!-- Node25 -->
<g id="node70" class="node"><title>Node25</title>
<a xlink:href="interval_8h.html" target="_top" xlink:title="base/interval.h">
<polygon fill="white" stroke="black" points="1448,-116.5 1448,-137.5 1528,-137.5 1528,-116.5 1448,-116.5"/>
<text text-anchor="middle" x="1488" y="-124.5" font-family="Helvetica,sans-Serif" font-size="10.00">base/interval.h</text>
</a>
</g>
<!-- Node24&#45;&gt;Node25 -->
<g id="edge90" class="edge"><title>Node24&#45;&gt;Node25</title>
<path fill="none" stroke="midnightblue" d="M1396.16,-181.267C1413.94,-170.76 1441.23,-154.637 1461.44,-142.692"/>
<polygon fill="midnightblue" stroke="midnightblue" points="1463.35,-145.634 1470.17,-137.534 1459.78,-139.608 1463.35,-145.634"/>
</g>
<!-- Node27 -->
<g id="node81" class="node"><title>Node27</title>
<polygon fill="white" stroke="#bfbfbf" points="1331.5,-116.5 1331.5,-137.5 1366.5,-137.5 1366.5,-116.5 1331.5,-116.5"/>
<text text-anchor="middle" x="1349" y="-124.5" font-family="Helvetica,sans-Serif" font-size="10.00">map</text>
</g>
<!-- Node24&#45;&gt;Node27 -->
<g id="edge108" class="edge"><title>Node24&#45;&gt;Node27</title>
<path fill="none" stroke="midnightblue" d="M1373.21,-181.267C1369.03,-171.896 1362.86,-158.057 1357.79,-146.7"/>
<polygon fill="midnightblue" stroke="midnightblue" points="1360.97,-145.24 1353.7,-137.534 1354.58,-148.092 1360.97,-145.24"/>
</g>
<!-- Node28 -->
<g id="node83" class="node"><title>Node28</title>
<polygon fill="white" stroke="#bfbfbf" points="1383.5,-116.5 1383.5,-137.5 1430.5,-137.5 1430.5,-116.5 1383.5,-116.5"/>
<text text-anchor="middle" x="1407" y="-124.5" font-family="Helvetica,sans-Serif" font-size="10.00">iterator</text>
</g>
<!-- Node24&#45;&gt;Node28 -->
<g id="edge110" class="edge"><title>Node24&#45;&gt;Node28</title>
<path fill="none" stroke="midnightblue" d="M1382.79,-181.267C1386.97,-171.896 1393.14,-158.057 1398.21,-146.7"/>
<polygon fill="midnightblue" stroke="midnightblue" points="1401.42,-148.092 1402.3,-137.534 1395.03,-145.24 1401.42,-148.092"/>
</g>
<!-- Node25&#45;&gt;Node5 -->
<g id="edge92" class="edge"><title>Node25&#45;&gt;Node5</title>
<path fill="none" stroke="midnightblue" d="M1448,-117.386C1444.96,-116.851 1441.94,-116.379 1439,-116 992.631,-58.4629 876.559,-101.287 427,-80 382.254,-77.8813 331.492,-74.836 294.315,-72.4865"/>
<polygon fill="midnightblue" stroke="midnightblue" points="294.408,-68.9855 284.206,-71.8437 293.963,-75.9714 294.408,-68.9855"/>
</g>
<!-- Node25&#45;&gt;Node12 -->
<g id="edge100" class="edge"><title>Node25&#45;&gt;Node12</title>
<path fill="none" stroke="midnightblue" d="M1447.91,-117.81C1397.11,-106.164 1310.69,-86.3527 1265.15,-75.9112"/>
<polygon fill="midnightblue" stroke="midnightblue" points="1265.81,-72.4732 1255.28,-73.6501 1264.25,-79.2962 1265.81,-72.4732"/>
</g>
<!-- Node25&#45;&gt;Node14 -->
<g id="edge96" class="edge"><title>Node25&#45;&gt;Node14</title>
<path fill="none" stroke="midnightblue" d="M1447.96,-117.604C1444.94,-117.019 1441.93,-116.476 1439,-116 1283.21,-90.6647 1095.45,-76.5576 1016.22,-71.3488"/>
<polygon fill="midnightblue" stroke="midnightblue" points="1016.42,-67.8547 1006.22,-70.7008 1015.97,-74.8401 1016.42,-67.8547"/>
</g>
<!-- Node25&#45;&gt;Node15 -->
<g id="edge98" class="edge"><title>Node25&#45;&gt;Node15</title>
<path fill="none" stroke="midnightblue" d="M1447.99,-117.427C1444.96,-116.884 1441.94,-116.398 1439,-116 1415.47,-112.816 684.776,-79.0994 504.771,-70.8255"/>
<polygon fill="midnightblue" stroke="midnightblue" points="504.83,-67.3246 494.679,-70.3618 504.508,-74.3172 504.83,-67.3246"/>
</g>
<!-- Node25&#45;&gt;Node23 -->
<g id="edge94" class="edge"><title>Node25&#45;&gt;Node23</title>
<path fill="none" stroke="midnightblue" d="M1501.39,-116.362C1512.09,-107.859 1527.3,-95.7785 1539.67,-85.9466"/>
<polygon fill="midnightblue" stroke="midnightblue" points="1542.04,-88.5318 1547.7,-79.5707 1537.69,-83.0511 1542.04,-88.5318"/>
</g>
<!-- Node26 -->
<g id="node77" class="node"><title>Node26</title>
<polygon fill="white" stroke="#bfbfbf" points="1458.5,-58.5 1458.5,-79.5 1507.5,-79.5 1507.5,-58.5 1458.5,-58.5"/>
<text text-anchor="middle" x="1483" y="-66.5" font-family="Helvetica,sans-Serif" font-size="10.00">istream</text>
</g>
<!-- Node25&#45;&gt;Node26 -->
<g id="edge102" class="edge"><title>Node25&#45;&gt;Node26</title>
<path fill="none" stroke="midnightblue" d="M1487.08,-116.362C1486.44,-108.922 1485.56,-98.7427 1484.79,-89.7276"/>
<polygon fill="midnightblue" stroke="midnightblue" points="1488.26,-89.2331 1483.91,-79.5707 1481.28,-89.8343 1488.26,-89.2331"/>
</g>
<!-- Node29&#45;&gt;Node13 -->
<g id="edge122" class="edge"><title>Node29&#45;&gt;Node13</title>
<path fill="none" stroke="midnightblue" d="M1048.1,-181.348C1020.53,-165.316 965.672,-134.86 916,-116 866.107,-97.0563 805.601,-82.9087 769.259,-75.3086"/>
<polygon fill="midnightblue" stroke="midnightblue" points="769.736,-71.8337 759.237,-73.2511 768.329,-78.6907 769.736,-71.8337"/>
</g>
<!-- Node29&#45;&gt;Node14 -->
<g id="edge124" class="edge"><title>Node29&#45;&gt;Node14</title>
<path fill="none" stroke="midnightblue" d="M1100.24,-186.309C1149.7,-176.636 1232.01,-154.225 1201,-116 1178.18,-87.8689 1073.92,-75.935 1016.4,-71.4195"/>
<polygon fill="midnightblue" stroke="midnightblue" points="1016.46,-67.9148 1006.23,-70.6605 1015.94,-74.8954 1016.46,-67.9148"/>
</g>
<!-- Node29&#45;&gt;Node19 -->
<g id="edge118" class="edge"><title>Node29&#45;&gt;Node19</title>
<path fill="none" stroke="midnightblue" d="M1031.94,-181.844C991.668,-169.837 924.951,-149.944 883.898,-137.704"/>
<polygon fill="midnightblue" stroke="midnightblue" points="884.879,-134.344 874.296,-134.841 882.879,-141.052 884.879,-134.344"/>
</g>
<!-- Node30 -->
<g id="node88" class="node"><title>Node30</title>
<polygon fill="white" stroke="#bfbfbf" points="1006,-116.5 1006,-137.5 1126,-137.5 1126,-116.5 1006,-116.5"/>
<text text-anchor="middle" x="1066" y="-124.5" font-family="Helvetica,sans-Serif" font-size="10.00">base/cereal/access.hpp</text>
</g>
<!-- Node29&#45;&gt;Node30 -->
<g id="edge116" class="edge"><title>Node29&#45;&gt;Node30</title>
<path fill="none" stroke="midnightblue" d="M1066,-181.267C1066,-172.18 1066,-158.892 1066,-147.74"/>
<polygon fill="midnightblue" stroke="midnightblue" points="1069.5,-147.534 1066,-137.534 1062.5,-147.534 1069.5,-147.534"/>
</g>
<!-- Node29&#45;&gt;Node31 -->
<g id="edge120" class="edge"><title>Node29&#45;&gt;Node31</title>
<path fill="none" stroke="midnightblue" d="M1100.32,-181.666C1134.42,-171.234 1188.12,-154.367 1234,-138 1235.22,-137.566 1236.46,-137.113 1237.71,-136.648"/>
<polygon fill="midnightblue" stroke="midnightblue" points="1239.16,-139.844 1247.24,-132.999 1236.65,-133.307 1239.16,-139.844"/>
</g>
<!-- Node32 -->
<g id="node95" class="node"><title>Node32</title>
<polygon fill="white" stroke="#bfbfbf" points="1143.5,-116.5 1143.5,-137.5 1192.5,-137.5 1192.5,-116.5 1143.5,-116.5"/>
<text text-anchor="middle" x="1168" y="-124.5" font-family="Helvetica,sans-Serif" font-size="10.00">cassert</text>
</g>
<!-- Node29&#45;&gt;Node32 -->
<g id="edge126" class="edge"><title>Node29&#45;&gt;Node32</title>
<path fill="none" stroke="midnightblue" d="M1082.84,-181.267C1099.18,-170.855 1124.18,-154.927 1142.87,-143.016"/>
<polygon fill="midnightblue" stroke="midnightblue" points="1144.92,-145.859 1151.47,-137.534 1141.16,-139.956 1144.92,-145.859"/>
</g>
<!-- Node33&#45;&gt;Node8 -->
<g id="edge130" class="edge"><title>Node33&#45;&gt;Node8</title>
<path fill="none" stroke="midnightblue" d="M61.1097,-246.362C67.4004,-224.841 81.7334,-175.807 89.9374,-147.74"/>
<polygon fill="midnightblue" stroke="midnightblue" points="93.401,-148.366 92.8473,-137.785 86.6822,-146.402 93.401,-148.366"/>
</g>
</g>
</svg>
