<?xml version="1.0" encoding="UTF-8" standalone="no"?>
<!DOCTYPE svg PUBLIC "-//W3C//DTD SVG 1.1//EN"
 "http://www.w3.org/Graphics/SVG/1.1/DTD/svg11.dtd">
<!-- Generated by graphviz version 2.26.3 (20100126.1600)
 -->
<!-- Title: src/tree/TSlowControl.h Pages: 1 -->
<svg width="719pt" height="262pt"
 viewBox="0.00 0.00 719.00 262.00" xmlns="http://www.w3.org/2000/svg" xmlns:xlink="http://www.w3.org/1999/xlink">
<g id="graph1" class="graph" transform="scale(1 1) rotate(0) translate(4 258)">
<title>src/tree/TSlowControl.h</title>
<polygon fill="white" stroke="white" points="-4,5 -4,-258 716,-258 716,5 -4,5"/>
<!-- Node1 -->
<g id="node1" class="node"><title>Node1</title>
<polygon fill="#bfbfbf" stroke="black" points="435,-232.5 435,-253.5 555,-253.5 555,-232.5 435,-232.5"/>
<text text-anchor="middle" x="495" y="-240.5" font-family="Helvetica,sans-Serif" font-size="10.00">src/tree/TSlowControl.h</text>
</g>
<!-- Node2 -->
<g id="node3" class="node"><title>Node2</title>
<a xlink:href="_t_i_d_8h.html" target="_top" xlink:title="TID.h">
<polygon fill="white" stroke="black" points="357.5,-174.5 357.5,-195.5 398.5,-195.5 398.5,-174.5 357.5,-174.5"/>
<text text-anchor="middle" x="378" y="-182.5" font-family="Helvetica,sans-Serif" font-size="10.00">TID.h</text>
</a>
</g>
<!-- Node1&#45;&gt;Node2 -->
<g id="edge2" class="edge"><title>Node1&#45;&gt;Node2</title>
<path fill="none" stroke="midnightblue" d="M473.812,-232.497C455.31,-223.325 428.261,-209.916 407.618,-199.682"/>
<polygon fill="midnightblue" stroke="midnightblue" points="409.152,-196.536 398.637,-195.231 406.042,-202.808 409.152,-196.536"/>
</g>
<!-- Node4 -->
<g id="node7" class="node"><title>Node4</title>
<a xlink:href="printable_8h.html" target="_top" xlink:title="base/printable.h">
<polygon fill="white" stroke="black" points="0,-116.5 0,-137.5 86,-137.5 86,-116.5 0,-116.5"/>
<text text-anchor="middle" x="43" y="-124.5" font-family="Helvetica,sans-Serif" font-size="10.00">base/printable.h</text>
</a>
</g>
<!-- Node1&#45;&gt;Node4 -->
<g id="edge44" class="edge"><title>Node1&#45;&gt;Node4</title>
<path fill="none" stroke="midnightblue" d="M453.69,-232.398C370.717,-211.104 184.05,-163.199 93.7852,-140.033"/>
<polygon fill="midnightblue" stroke="midnightblue" points="94.6069,-136.631 84.0508,-137.535 92.8668,-143.411 94.6069,-136.631"/>
</g>
<!-- Node7 -->
<g id="node13" class="node"><title>Node7</title>
<a xlink:href="time_8h.html" target="_top" xlink:title="base/std_ext/time.h">
<polygon fill="white" stroke="black" points="443.5,-116.5 443.5,-137.5 546.5,-137.5 546.5,-116.5 443.5,-116.5"/>
<text text-anchor="middle" x="495" y="-124.5" font-family="Helvetica,sans-Serif" font-size="10.00">base/std_ext/time.h</text>
</a>
</g>
<!-- Node1&#45;&gt;Node7 -->
<g id="edge42" class="edge"><title>Node1&#45;&gt;Node7</title>
<path fill="none" stroke="midnightblue" d="M495,-232.295C495,-213.131 495,-172.654 495,-147.843"/>
<polygon fill="midnightblue" stroke="midnightblue" points="498.5,-147.679 495,-137.679 491.5,-147.679 498.5,-147.679"/>
</g>
<!-- Node15 -->
<g id="node30" class="node"><title>Node15</title>
<polygon fill="white" stroke="#bfbfbf" points="564,-116.5 564,-137.5 602,-137.5 602,-116.5 564,-116.5"/>
<text text-anchor="middle" x="583" y="-124.5" font-family="Helvetica,sans-Serif" font-size="10.00">tuple</text>
</g>
<!-- Node1&#45;&gt;Node15 -->
<g id="edge48" class="edge"><title>Node1&#45;&gt;Node15</title>
<path fill="none" stroke="midnightblue" d="M503.121,-232.295C518.052,-212.613 550.038,-170.45 568.687,-145.867"/>
<polygon fill="midnightblue" stroke="midnightblue" points="571.643,-147.762 574.899,-137.679 566.066,-143.531 571.643,-147.762"/>
</g>
<!-- Node16 -->
<g id="node32" class="node"><title>Node16</title>
<polygon fill="white" stroke="#bfbfbf" points="620,-116.5 620,-137.5 666,-137.5 666,-116.5 620,-116.5"/>
<text text-anchor="middle" x="643" y="-124.5" font-family="Helvetica,sans-Serif" font-size="10.00">cstdint</text>
</g>
<!-- Node1&#45;&gt;Node16 -->
<g id="edge46" class="edge"><title>Node1&#45;&gt;Node16</title>
<path fill="none" stroke="midnightblue" d="M508.658,-232.295C534.43,-212.096 590.414,-168.216 621.357,-143.963"/>
<polygon fill="midnightblue" stroke="midnightblue" points="623.663,-146.603 629.375,-137.679 619.345,-141.093 623.663,-146.603"/>
</g>
<!-- Node3 -->
<g id="node5" class="node"><title>Node3</title>
<polygon fill="white" stroke="#bfbfbf" points="294,-116.5 294,-137.5 350,-137.5 350,-116.5 294,-116.5"/>
<text text-anchor="middle" x="322" y="-124.5" font-family="Helvetica,sans-Serif" font-size="10.00">Rtypes.h</text>
</g>
<!-- Node2&#45;&gt;Node3 -->
<g id="edge4" class="edge"><title>Node2&#45;&gt;Node3</title>
<path fill="none" stroke="midnightblue" d="M367.729,-174.362C359.756,-166.104 348.525,-154.472 339.189,-144.803"/>
<polygon fill="midnightblue" stroke="midnightblue" points="341.67,-142.334 332.206,-137.571 336.634,-147.196 341.67,-142.334"/>
</g>
<!-- Node2&#45;&gt;Node4 -->
<g id="edge6" class="edge"><title>Node2&#45;&gt;Node4</title>
<path fill="none" stroke="midnightblue" d="M357.35,-181.889C312.015,-174.99 200.167,-157.604 96.1411,-138.158"/>
<polygon fill="midnightblue" stroke="midnightblue" points="96.5756,-134.678 86.101,-136.27 95.2819,-141.558 96.5756,-134.678"/>
</g>
<!-- Node5 -->
<g id="node9" class="node"><title>Node5</title>
<polygon fill="white" stroke="#bfbfbf" points="206,-58.5 206,-79.5 268,-79.5 268,-58.5 206,-58.5"/>
<text text-anchor="middle" x="237" y="-66.5" font-family="Helvetica,sans-Serif" font-size="10.00">type_traits</text>
</g>
<!-- Node2&#45;&gt;Node5 -->
<g id="edge28" class="edge"><title>Node2&#45;&gt;Node5</title>
<path fill="none" stroke="midnightblue" d="M377.918,-174.252C377.232,-159.349 373.846,-132.394 359,-116 338.127,-92.9507 304.656,-81.111 278.047,-75.0842"/>
<polygon fill="midnightblue" stroke="midnightblue" points="278.728,-71.651 268.226,-73.0477 277.307,-78.5052 278.728,-71.651"/>
</g>
<!-- Node2&#45;&gt;Node7 -->
<g id="edge12" class="edge"><title>Node2&#45;&gt;Node7</title>
<path fill="none" stroke="midnightblue" d="M398.648,-174.764C416.966,-165.683 443.963,-152.301 464.723,-142.009"/>
<polygon fill="midnightblue" stroke="midnightblue" points="466.364,-145.102 473.769,-137.525 463.255,-138.831 466.364,-145.102"/>
</g>
<!-- Node14 -->
<g id="node27" class="node"><title>Node14</title>
<polygon fill="white" stroke="#bfbfbf" points="399.5,-58.5 399.5,-79.5 440.5,-79.5 440.5,-58.5 399.5,-58.5"/>
<text text-anchor="middle" x="420" y="-66.5" font-family="Helvetica,sans-Serif" font-size="10.00">ctime</text>
</g>
<!-- Node2&#45;&gt;Node14 -->
<g id="edge40" class="edge"><title>Node2&#45;&gt;Node14</title>
<path fill="none" stroke="midnightblue" d="M381.876,-174.295C388.877,-154.959 403.735,-113.923 412.695,-89.1767"/>
<polygon fill="midnightblue" stroke="midnightblue" points="416.02,-90.2734 416.133,-79.6792 409.438,-87.8903 416.02,-90.2734"/>
</g>
<!-- Node2&#45;&gt;Node15 -->
<g id="edge30" class="edge"><title>Node2&#45;&gt;Node15</title>
<path fill="none" stroke="midnightblue" d="M398.665,-180.327C430.24,-173.016 492.511,-157.92 553.973,-138.09"/>
<polygon fill="midnightblue" stroke="midnightblue" points="555.41,-141.303 563.826,-134.868 553.233,-134.65 555.41,-141.303"/>
</g>
<!-- Node2&#45;&gt;Node16 -->
<g id="edge32" class="edge"><title>Node2&#45;&gt;Node16</title>
<path fill="none" stroke="midnightblue" d="M398.785,-181.755C438.209,-175.402 526.659,-160.191 609.84,-138.07"/>
<polygon fill="midnightblue" stroke="midnightblue" points="610.95,-141.396 619.692,-135.41 609.125,-134.638 610.95,-141.396"/>
</g>
<!-- Node17 -->
<g id="node34" class="node"><title>Node17</title>
<polygon fill="white" stroke="#bfbfbf" points="103.5,-116.5 103.5,-137.5 162.5,-137.5 162.5,-116.5 103.5,-116.5"/>
<text text-anchor="middle" x="133" y="-124.5" font-family="Helvetica,sans-Serif" font-size="10.00">stdexcept</text>
</g>
<!-- Node2&#45;&gt;Node17 -->
<g id="edge34" class="edge"><title>Node2&#45;&gt;Node17</title>
<path fill="none" stroke="midnightblue" d="M357.337,-180.727C321.588,-173.246 245.694,-156.973 172.644,-138.336"/>
<polygon fill="midnightblue" stroke="midnightblue" points="173.382,-134.912 162.825,-135.812 171.639,-141.692 173.382,-134.912"/>
</g>
<!-- Node18 -->
<g id="node36" class="node"><title>Node18</title>
<polygon fill="white" stroke="#bfbfbf" points="179.5,-116.5 179.5,-137.5 208.5,-137.5 208.5,-116.5 179.5,-116.5"/>
<text text-anchor="middle" x="194" y="-124.5" font-family="Helvetica,sans-Serif" font-size="10.00">list</text>
</g>
<!-- Node2&#45;&gt;Node18 -->
<g id="edge36" class="edge"><title>Node2&#45;&gt;Node18</title>
<path fill="none" stroke="midnightblue" d="M357.317,-180.107C328.023,-172.935 272.717,-158.509 218.36,-138.165"/>
<polygon fill="midnightblue" stroke="midnightblue" points="219.532,-134.866 208.941,-134.575 217.039,-141.407 219.532,-134.866"/>
</g>
<!-- Node19 -->
<g id="node38" class="node"><title>Node19</title>
<polygon fill="white" stroke="#bfbfbf" points="226,-116.5 226,-137.5 276,-137.5 276,-116.5 226,-116.5"/>
<text text-anchor="middle" x="251" y="-124.5" font-family="Helvetica,sans-Serif" font-size="10.00">iomanip</text>
</g>
<!-- Node2&#45;&gt;Node19 -->
<g id="edge38" class="edge"><title>Node2&#45;&gt;Node19</title>
<path fill="none" stroke="midnightblue" d="M357.313,-175.552C337.297,-166.411 306.66,-152.419 283.407,-141.8"/>
<polygon fill="midnightblue" stroke="midnightblue" points="284.814,-138.595 274.264,-137.624 281.906,-144.962 284.814,-138.595"/>
</g>
<!-- Node4&#45;&gt;Node5 -->
<g id="edge8" class="edge"><title>Node4&#45;&gt;Node5</title>
<path fill="none" stroke="midnightblue" d="M78.1319,-116.497C111.325,-106.573 161.107,-91.6898 196.077,-81.2347"/>
<polygon fill="midnightblue" stroke="midnightblue" points="197.392,-84.4948 205.97,-78.277 195.387,-77.7881 197.392,-84.4948"/>
</g>
<!-- Node6 -->
<g id="node11" class="node"><title>Node6</title>
<polygon fill="white" stroke="#bfbfbf" points="17,-58.5 17,-79.5 69,-79.5 69,-58.5 17,-58.5"/>
<text text-anchor="middle" x="43" y="-66.5" font-family="Helvetica,sans-Serif" font-size="10.00">ostream</text>
</g>
<!-- Node4&#45;&gt;Node6 -->
<g id="edge10" class="edge"><title>Node4&#45;&gt;Node6</title>
<path fill="none" stroke="midnightblue" d="M43,-116.362C43,-108.922 43,-98.7427 43,-89.7276"/>
<polygon fill="midnightblue" stroke="midnightblue" points="46.5001,-89.5706 43,-79.5707 39.5001,-89.5707 46.5001,-89.5706"/>
</g>
<!-- Node8 -->
<g id="node15" class="node"><title>Node8</title>
<a xlink:href="string_8h.html" target="_top" xlink:title="base/std_ext/string.h">
<polygon fill="white" stroke="black" points="531,-58.5 531,-79.5 639,-79.5 639,-58.5 531,-58.5"/>
<text text-anchor="middle" x="585" y="-66.5" font-family="Helvetica,sans-Serif" font-size="10.00">base/std_ext/string.h</text>
</a>
</g>
<!-- Node7&#45;&gt;Node8 -->
<g id="edge14" class="edge"><title>Node7&#45;&gt;Node8</title>
<path fill="none" stroke="midnightblue" d="M511.507,-116.362C525.082,-107.614 544.533,-95.0786 560.015,-85.1015"/>
<polygon fill="midnightblue" stroke="midnightblue" points="562.088,-87.9297 568.597,-79.5707 558.296,-82.0457 562.088,-87.9297"/>
</g>
<!-- Node13 -->
<g id="node25" class="node"><title>Node13</title>
<polygon fill="white" stroke="#bfbfbf" points="467,-58.5 467,-79.5 513,-79.5 513,-58.5 467,-58.5"/>
<text text-anchor="middle" x="490" y="-66.5" font-family="Helvetica,sans-Serif" font-size="10.00">cstring</text>
</g>
<!-- Node7&#45;&gt;Node13 -->
<g id="edge24" class="edge"><title>Node7&#45;&gt;Node13</title>
<path fill="none" stroke="midnightblue" d="M494.083,-116.362C493.442,-108.922 492.564,-98.7427 491.787,-89.7276"/>
<polygon fill="midnightblue" stroke="midnightblue" points="495.257,-89.2331 490.911,-79.5707 488.283,-89.8343 495.257,-89.2331"/>
</g>
<!-- Node7&#45;&gt;Node14 -->
<g id="edge26" class="edge"><title>Node7&#45;&gt;Node14</title>
<path fill="none" stroke="midnightblue" d="M481.244,-116.362C470.249,-107.859 454.627,-95.7785 441.914,-85.9466"/>
<polygon fill="midnightblue" stroke="midnightblue" points="443.721,-82.9195 433.669,-79.5707 439.438,-88.4569 443.721,-82.9195"/>
</g>
<!-- Node9 -->
<g id="node17" class="node"><title>Node9</title>
<polygon fill="white" stroke="#bfbfbf" points="464.5,-0.5 464.5,-21.5 505.5,-21.5 505.5,-0.5 464.5,-0.5"/>
<text text-anchor="middle" x="485" y="-8.5" font-family="Helvetica,sans-Serif" font-size="10.00">string</text>
</g>
<!-- Node8&#45;&gt;Node9 -->
<g id="edge16" class="edge"><title>Node8&#45;&gt;Node9</title>
<path fill="none" stroke="midnightblue" d="M566.658,-58.3619C551.434,-49.532 529.559,-36.844 512.28,-26.8224"/>
<polygon fill="midnightblue" stroke="midnightblue" points="513.632,-23.5603 503.225,-21.5707 510.12,-29.6155 513.632,-23.5603"/>
</g>
<!-- Node10 -->
<g id="node19" class="node"><title>Node10</title>
<polygon fill="white" stroke="#bfbfbf" points="523,-0.5 523,-21.5 575,-21.5 575,-0.5 523,-0.5"/>
<text text-anchor="middle" x="549" y="-8.5" font-family="Helvetica,sans-Serif" font-size="10.00">sstream</text>
</g>
<!-- Node8&#45;&gt;Node10 -->
<g id="edge18" class="edge"><title>Node8&#45;&gt;Node10</title>
<path fill="none" stroke="midnightblue" d="M578.397,-58.3619C573.525,-50.5131 566.762,-39.6159 560.95,-30.2527"/>
<polygon fill="midnightblue" stroke="midnightblue" points="563.809,-28.2213 555.561,-21.5707 557.861,-31.9129 563.809,-28.2213"/>
</g>
<!-- Node11 -->
<g id="node21" class="node"><title>Node11</title>
<polygon fill="white" stroke="#bfbfbf" points="593,-0.5 593,-21.5 649,-21.5 649,-0.5 593,-0.5"/>
<text text-anchor="middle" x="621" y="-8.5" font-family="Helvetica,sans-Serif" font-size="10.00">algorithm</text>
</g>
<!-- Node8&#45;&gt;Node11 -->
<g id="edge20" class="edge"><title>Node8&#45;&gt;Node11</title>
<path fill="none" stroke="midnightblue" d="M591.603,-58.3619C596.475,-50.5131 603.238,-39.6159 609.05,-30.2527"/>
<polygon fill="midnightblue" stroke="midnightblue" points="612.139,-31.9129 614.439,-21.5707 606.191,-28.2213 612.139,-31.9129"/>
</g>
<!-- Node12 -->
<g id="node23" class="node"><title>Node12</title>
<polygon fill="white" stroke="#bfbfbf" points="667,-0.5 667,-21.5 711,-21.5 711,-0.5 667,-0.5"/>
<text text-anchor="middle" x="689" y="-8.5" font-family="Helvetica,sans-Serif" font-size="10.00">vector</text>
</g>
<!-- Node8&#45;&gt;Node12 -->
<g id="edge22" class="edge"><title>Node8&#45;&gt;Node12</title>
<path fill="none" stroke="midnightblue" d="M604.075,-58.3619C620.055,-49.4502 643.081,-36.6087 661.127,-26.5447"/>
<polygon fill="midnightblue" stroke="midnightblue" points="663.017,-29.4982 670.046,-21.5707 659.607,-23.3846 663.017,-29.4982"/>
</g>
</g>
</svg>
