<?xml version="1.0" encoding="UTF-8" standalone="no"?>
<!DOCTYPE svg PUBLIC "-//W3C//DTD SVG 1.1//EN"
 "http://www.w3.org/Graphics/SVG/1.1/DTD/svg11.dtd">
<!-- Generated by graphviz version 2.26.3 (20100126.1600)
 -->
<!-- Title: src/tree/TTrigger.h Pages: 1 -->
<svg width="358pt" height="146pt"
 viewBox="0.00 0.00 358.00 146.00" xmlns="http://www.w3.org/2000/svg" xmlns:xlink="http://www.w3.org/1999/xlink">
<g id="graph1" class="graph" transform="scale(1 1) rotate(0) translate(4 142)">
<title>src/tree/TTrigger.h</title>
<polygon fill="white" stroke="white" points="-4,5 -4,-142 355,-142 355,5 -4,5"/>
<!-- Node1 -->
<g id="node1" class="node"><title>Node1</title>
<polygon fill="#bfbfbf" stroke="black" points="159.5,-116.5 159.5,-137.5 256.5,-137.5 256.5,-116.5 159.5,-116.5"/>
<text text-anchor="middle" x="208" y="-124.5" font-family="Helvetica,sans-Serif" font-size="10.00">src/tree/TTrigger.h</text>
</g>
<!-- Node2 -->
<g id="node3" class="node"><title>Node2</title>
<a xlink:href="types_8h.html" target="_top" xlink:title="base/types.h">
<polygon fill="white" stroke="black" points="-0.5,-58.5 -0.5,-79.5 72.5,-79.5 72.5,-58.5 -0.5,-58.5"/>
<text text-anchor="middle" x="36" y="-66.5" font-family="Helvetica,sans-Serif" font-size="10.00">base/types.h</text>
</a>
</g>
<!-- Node1&#45;&gt;Node2 -->
<g id="edge2" class="edge"><title>Node1&#45;&gt;Node2</title>
<path fill="none" stroke="midnightblue" d="M176.852,-116.497C148.811,-107.041 107.418,-93.0829 76.7545,-82.7428"/>
<polygon fill="midnightblue" stroke="midnightblue" points="77.8005,-79.4019 67.2063,-79.5231 75.5637,-86.035 77.8005,-79.4019"/>
</g>
<!-- Node3 -->
<g id="node5" class="node"><title>Node3</title>
<a xlink:href="printable_8h.html" target="_top" xlink:title="base/printable.h">
<polygon fill="white" stroke="black" points="90,-58.5 90,-79.5 176,-79.5 176,-58.5 90,-58.5"/>
<text text-anchor="middle" x="133" y="-66.5" font-family="Helvetica,sans-Serif" font-size="10.00">base/printable.h</text>
</a>
</g>
<!-- Node1&#45;&gt;Node3 -->
<g id="edge4" class="edge"><title>Node1&#45;&gt;Node3</title>
<path fill="none" stroke="midnightblue" d="M194.244,-116.362C183.249,-107.859 167.627,-95.7785 154.914,-85.9466"/>
<polygon fill="midnightblue" stroke="midnightblue" points="156.721,-82.9195 146.669,-79.5707 152.438,-88.4569 156.721,-82.9195"/>
</g>
<!-- Node6 -->
<g id="node11" class="node"><title>Node6</title>
<polygon fill="white" stroke="#bfbfbf" points="193.5,-58.5 193.5,-79.5 222.5,-79.5 222.5,-58.5 193.5,-58.5"/>
<text text-anchor="middle" x="208" y="-66.5" font-family="Helvetica,sans-Serif" font-size="10.00">list</text>
</g>
<!-- Node1&#45;&gt;Node6 -->
<g id="edge10" class="edge"><title>Node1&#45;&gt;Node6</title>
<path fill="none" stroke="midnightblue" d="M208,-116.362C208,-108.922 208,-98.7427 208,-89.7276"/>
<polygon fill="midnightblue" stroke="midnightblue" points="211.5,-89.5706 208,-79.5707 204.5,-89.5707 211.5,-89.5706"/>
</g>
<!-- Node7 -->
<g id="node13" class="node"><title>Node7</title>
<polygon fill="white" stroke="#bfbfbf" points="240,-58.5 240,-79.5 280,-79.5 280,-58.5 240,-58.5"/>
<text text-anchor="middle" x="260" y="-66.5" font-family="Helvetica,sans-Serif" font-size="10.00">limits</text>
</g>
<!-- Node1&#45;&gt;Node7 -->
<g id="edge12" class="edge"><title>Node1&#45;&gt;Node7</title>
<path fill="none" stroke="midnightblue" d="M217.538,-116.362C224.868,-108.186 235.163,-96.7025 243.781,-87.0907"/>
<polygon fill="midnightblue" stroke="midnightblue" points="246.453,-89.3528 250.523,-79.5707 241.241,-84.68 246.453,-89.3528"/>
</g>
<!-- Node8 -->
<g id="node15" class="node"><title>Node8</title>
<polygon fill="white" stroke="#bfbfbf" points="298,-58.5 298,-79.5 350,-79.5 350,-58.5 298,-58.5"/>
<text text-anchor="middle" x="324" y="-66.5" font-family="Helvetica,sans-Serif" font-size="10.00">memory</text>
</g>
<!-- Node1&#45;&gt;Node8 -->
<g id="edge14" class="edge"><title>Node1&#45;&gt;Node8</title>
<path fill="none" stroke="midnightblue" d="M229.007,-116.497C247.043,-107.479 273.27,-94.3649 293.599,-84.2006"/>
<polygon fill="midnightblue" stroke="midnightblue" points="295.379,-87.2239 302.758,-79.6212 292.248,-80.9629 295.379,-87.2239"/>
</g>
<!-- Node4 -->
<g id="node7" class="node"><title>Node4</title>
<polygon fill="white" stroke="#bfbfbf" points="64,-0.5 64,-21.5 126,-21.5 126,-0.5 64,-0.5"/>
<text text-anchor="middle" x="95" y="-8.5" font-family="Helvetica,sans-Serif" font-size="10.00">type_traits</text>
</g>
<!-- Node3&#45;&gt;Node4 -->
<g id="edge6" class="edge"><title>Node3&#45;&gt;Node4</title>
<path fill="none" stroke="midnightblue" d="M126.03,-58.3619C120.834,-50.4313 113.599,-39.3885 107.422,-29.9606"/>
<polygon fill="midnightblue" stroke="midnightblue" points="110.334,-28.0172 101.926,-21.5707 104.478,-31.8534 110.334,-28.0172"/>
</g>
<!-- Node5 -->
<g id="node9" class="node"><title>Node5</title>
<polygon fill="white" stroke="#bfbfbf" points="144,-0.5 144,-21.5 196,-21.5 196,-0.5 144,-0.5"/>
<text text-anchor="middle" x="170" y="-8.5" font-family="Helvetica,sans-Serif" font-size="10.00">ostream</text>
</g>
<!-- Node3&#45;&gt;Node5 -->
<g id="edge8" class="edge"><title>Node3&#45;&gt;Node5</title>
<path fill="none" stroke="midnightblue" d="M139.786,-58.3619C144.793,-50.5131 151.745,-39.6159 157.718,-30.2527"/>
<polygon fill="midnightblue" stroke="midnightblue" points="160.829,-31.8837 163.257,-21.5707 154.928,-28.1189 160.829,-31.8837"/>
</g>
</g>
</svg>
