<?xml version="1.0" encoding="UTF-8" standalone="no"?>
<!DOCTYPE svg PUBLIC "-//W3C//DTD SVG 1.1//EN"
 "http://www.w3.org/Graphics/SVG/1.1/DTD/svg11.dtd">
<!-- Generated by graphviz version 2.26.3 (20100126.1600)
 -->
<!-- Title: src/tree/TTarget.h Pages: 1 -->
<svg width="539pt" height="204pt"
 viewBox="0.00 0.00 539.00 204.00" xmlns="http://www.w3.org/2000/svg" xmlns:xlink="http://www.w3.org/1999/xlink">
<g id="graph1" class="graph" transform="scale(1 1) rotate(0) translate(4 200)">
<title>src/tree/TTarget.h</title>
<polygon fill="white" stroke="white" points="-4,5 -4,-200 536,-200 536,5 -4,5"/>
<!-- Node1 -->
<g id="node1" class="node"><title>Node1</title>
<polygon fill="#bfbfbf" stroke="black" points="193.5,-174.5 193.5,-195.5 288.5,-195.5 288.5,-174.5 193.5,-174.5"/>
<text text-anchor="middle" x="241" y="-182.5" font-family="Helvetica,sans-Serif" font-size="10.00">src/tree/TTarget.h</text>
</g>
<!-- Node2 -->
<g id="node3" class="node"><title>Node2</title>
<a xlink:href="types_8h.html" target="_top" xlink:title="base/types.h">
<polygon fill="white" stroke="black" points="11.5,-116.5 11.5,-137.5 84.5,-137.5 84.5,-116.5 11.5,-116.5"/>
<text text-anchor="middle" x="48" y="-124.5" font-family="Helvetica,sans-Serif" font-size="10.00">base/types.h</text>
</a>
</g>
<!-- Node1&#45;&gt;Node2 -->
<g id="edge2" class="edge"><title>Node1&#45;&gt;Node2</title>
<path fill="none" stroke="midnightblue" d="M206.049,-174.497C174.313,-164.959 127.332,-150.841 92.8394,-140.475"/>
<polygon fill="midnightblue" stroke="midnightblue" points="93.6006,-137.049 83.0164,-137.523 91.586,-143.753 93.6006,-137.049"/>
</g>
<!-- Node3 -->
<g id="node5" class="node"><title>Node3</title>
<a xlink:href="printable_8h.html" target="_top" xlink:title="base/printable.h">
<polygon fill="white" stroke="black" points="35,-58.5 35,-79.5 121,-79.5 121,-58.5 35,-58.5"/>
<text text-anchor="middle" x="78" y="-66.5" font-family="Helvetica,sans-Serif" font-size="10.00">base/printable.h</text>
</a>
</g>
<!-- Node1&#45;&gt;Node3 -->
<g id="edge4" class="edge"><title>Node1&#45;&gt;Node3</title>
<path fill="none" stroke="midnightblue" d="M203.822,-174.428C181.228,-166.774 152.659,-154.803 131,-138 113.407,-124.352 98.5023,-103.544 89.0227,-88.3467"/>
<polygon fill="midnightblue" stroke="midnightblue" points="91.9938,-86.4956 83.8459,-79.7234 85.9922,-90.0986 91.9938,-86.4956"/>
</g>
<!-- Node6 -->
<g id="node11" class="node"><title>Node6</title>
<a xlink:href="math_8h.html" target="_top" xlink:title="base/std_ext/math.h">
<polygon fill="white" stroke="black" points="246,-116.5 246,-137.5 352,-137.5 352,-116.5 246,-116.5"/>
<text text-anchor="middle" x="299" y="-124.5" font-family="Helvetica,sans-Serif" font-size="10.00">base/std_ext/math.h</text>
</a>
</g>
<!-- Node1&#45;&gt;Node6 -->
<g id="edge10" class="edge"><title>Node1&#45;&gt;Node6</title>
<path fill="none" stroke="midnightblue" d="M251.638,-174.362C259.896,-166.104 271.528,-154.472 281.197,-144.803"/>
<polygon fill="midnightblue" stroke="midnightblue" points="283.833,-147.117 288.429,-137.571 278.883,-142.167 283.833,-147.117"/>
</g>
<!-- Node12 -->
<g id="node23" class="node"><title>Node12</title>
<a xlink:href="vec3_8h.html" target="_top" xlink:title="base/vec/vec3.h">
<polygon fill="white" stroke="black" points="139.5,-116.5 139.5,-137.5 228.5,-137.5 228.5,-116.5 139.5,-116.5"/>
<text text-anchor="middle" x="184" y="-124.5" font-family="Helvetica,sans-Serif" font-size="10.00">base/vec/vec3.h</text>
</a>
</g>
<!-- Node1&#45;&gt;Node12 -->
<g id="edge22" class="edge"><title>Node1&#45;&gt;Node12</title>
<path fill="none" stroke="midnightblue" d="M230.545,-174.362C222.43,-166.104 210.999,-154.472 201.496,-144.803"/>
<polygon fill="midnightblue" stroke="midnightblue" points="203.894,-142.25 194.388,-137.571 198.901,-147.156 203.894,-142.25"/>
</g>
<!-- Node14 -->
<g id="node30" class="node"><title>Node14</title>
<polygon fill="white" stroke="#bfbfbf" points="369.5,-116.5 369.5,-137.5 398.5,-137.5 398.5,-116.5 369.5,-116.5"/>
<text text-anchor="middle" x="384" y="-124.5" font-family="Helvetica,sans-Serif" font-size="10.00">list</text>
</g>
<!-- Node1&#45;&gt;Node14 -->
<g id="edge32" class="edge"><title>Node1&#45;&gt;Node14</title>
<path fill="none" stroke="midnightblue" d="M269.85,-174.375C292.302,-165.959 324.402,-153.608 359.884,-138.314"/>
<polygon fill="midnightblue" stroke="midnightblue" points="361.698,-141.342 369.473,-134.144 358.907,-134.922 361.698,-141.342"/>
</g>
<!-- Node15 -->
<g id="node32" class="node"><title>Node15</title>
<polygon fill="white" stroke="#bfbfbf" points="416,-116.5 416,-137.5 468,-137.5 468,-116.5 416,-116.5"/>
<text text-anchor="middle" x="442" y="-124.5" font-family="Helvetica,sans-Serif" font-size="10.00">memory</text>
</g>
<!-- Node1&#45;&gt;Node15 -->
<g id="edge34" class="edge"><title>Node1&#45;&gt;Node15</title>
<path fill="none" stroke="midnightblue" d="M279.331,-174.482C310.928,-165.737 357.149,-152.775 405.876,-138.287"/>
<polygon fill="midnightblue" stroke="midnightblue" points="407.07,-141.583 415.652,-135.37 405.068,-134.875 407.07,-141.583"/>
</g>
<!-- Node4 -->
<g id="node7" class="node"><title>Node4</title>
<polygon fill="white" stroke="#bfbfbf" points="0,-0.5 0,-21.5 62,-21.5 62,-0.5 0,-0.5"/>
<text text-anchor="middle" x="31" y="-8.5" font-family="Helvetica,sans-Serif" font-size="10.00">type_traits</text>
</g>
<!-- Node3&#45;&gt;Node4 -->
<g id="edge6" class="edge"><title>Node3&#45;&gt;Node4</title>
<path fill="none" stroke="midnightblue" d="M69.3795,-58.3619C62.8205,-50.2678 53.6344,-38.9318 45.8938,-29.3796"/>
<polygon fill="midnightblue" stroke="midnightblue" points="48.581,-27.1364 39.5659,-21.5707 43.1425,-31.5436 48.581,-27.1364"/>
</g>
<!-- Node5 -->
<g id="node9" class="node"><title>Node5</title>
<polygon fill="white" stroke="#bfbfbf" points="80,-0.5 80,-21.5 132,-21.5 132,-0.5 80,-0.5"/>
<text text-anchor="middle" x="106" y="-8.5" font-family="Helvetica,sans-Serif" font-size="10.00">ostream</text>
</g>
<!-- Node3&#45;&gt;Node5 -->
<g id="edge8" class="edge"><title>Node3&#45;&gt;Node5</title>
<path fill="none" stroke="midnightblue" d="M83.1356,-58.3619C86.8458,-50.6766 91.9669,-40.0686 96.4221,-30.8399"/>
<polygon fill="midnightblue" stroke="midnightblue" points="99.7013,-32.0978 100.897,-21.5707 93.3974,-29.0545 99.7013,-32.0978"/>
</g>
<!-- Node7 -->
<g id="node13" class="node"><title>Node7</title>
<polygon fill="white" stroke="#bfbfbf" points="178,-0.5 178,-21.5 222,-21.5 222,-0.5 178,-0.5"/>
<text text-anchor="middle" x="200" y="-8.5" font-family="Helvetica,sans-Serif" font-size="10.00">cmath</text>
</g>
<!-- Node6&#45;&gt;Node7 -->
<g id="edge12" class="edge"><title>Node6&#45;&gt;Node7</title>
<path fill="none" stroke="midnightblue" d="M289.864,-116.295C272.993,-96.5271 236.767,-54.0801 215.827,-29.5443"/>
<polygon fill="midnightblue" stroke="midnightblue" points="218.268,-27.0136 209.114,-21.6792 212.944,-31.5578 218.268,-27.0136"/>
</g>
<!-- Node8 -->
<g id="node15" class="node"><title>Node8</title>
<polygon fill="white" stroke="#bfbfbf" points="279,-58.5 279,-79.5 319,-79.5 319,-58.5 279,-58.5"/>
<text text-anchor="middle" x="299" y="-66.5" font-family="Helvetica,sans-Serif" font-size="10.00">limits</text>
</g>
<!-- Node6&#45;&gt;Node8 -->
<g id="edge14" class="edge"><title>Node6&#45;&gt;Node8</title>
<path fill="none" stroke="midnightblue" d="M299,-116.362C299,-108.922 299,-98.7427 299,-89.7276"/>
<polygon fill="midnightblue" stroke="midnightblue" points="302.5,-89.5706 299,-79.5707 295.5,-89.5707 302.5,-89.5706"/>
</g>
<!-- Node9 -->
<g id="node17" class="node"><title>Node9</title>
<polygon fill="white" stroke="#bfbfbf" points="337,-58.5 337,-79.5 381,-79.5 381,-58.5 337,-58.5"/>
<text text-anchor="middle" x="359" y="-66.5" font-family="Helvetica,sans-Serif" font-size="10.00">vector</text>
</g>
<!-- Node6&#45;&gt;Node9 -->
<g id="edge16" class="edge"><title>Node6&#45;&gt;Node9</title>
<path fill="none" stroke="midnightblue" d="M310.005,-116.362C318.547,-108.104 330.58,-96.4725 340.583,-86.8029"/>
<polygon fill="midnightblue" stroke="midnightblue" points="343.308,-89.0374 348.065,-79.5707 338.442,-84.0044 343.308,-89.0374"/>
</g>
<!-- Node10 -->
<g id="node19" class="node"><title>Node10</title>
<polygon fill="white" stroke="#bfbfbf" points="399,-58.5 399,-79.5 455,-79.5 455,-58.5 399,-58.5"/>
<text text-anchor="middle" x="427" y="-66.5" font-family="Helvetica,sans-Serif" font-size="10.00">algorithm</text>
</g>
<!-- Node6&#45;&gt;Node10 -->
<g id="edge18" class="edge"><title>Node6&#45;&gt;Node10</title>
<path fill="none" stroke="midnightblue" d="M322.18,-116.497C342.352,-107.356 371.81,-94.0082 394.364,-83.7883"/>
<polygon fill="midnightblue" stroke="midnightblue" points="395.896,-86.9366 403.56,-79.6212 393.007,-80.5606 395.896,-86.9366"/>
</g>
<!-- Node11 -->
<g id="node21" class="node"><title>Node11</title>
<polygon fill="white" stroke="#bfbfbf" points="472.5,-58.5 472.5,-79.5 531.5,-79.5 531.5,-58.5 472.5,-58.5"/>
<text text-anchor="middle" x="502" y="-66.5" font-family="Helvetica,sans-Serif" font-size="10.00">stdexcept</text>
</g>
<!-- Node6&#45;&gt;Node11 -->
<g id="edge20" class="edge"><title>Node6&#45;&gt;Node11</title>
<path fill="none" stroke="midnightblue" d="M336.038,-116.499C367.397,-107.597 413.801,-94.398 462.39,-80.4561"/>
<polygon fill="midnightblue" stroke="midnightblue" points="463.487,-83.7826 472.133,-77.6588 461.555,-77.0544 463.487,-83.7826"/>
</g>
<!-- Node12&#45;&gt;Node3 -->
<g id="edge24" class="edge"><title>Node12&#45;&gt;Node3</title>
<path fill="none" stroke="midnightblue" d="M164.558,-116.362C148.196,-107.409 124.587,-94.4908 106.157,-84.4064"/>
<polygon fill="midnightblue" stroke="midnightblue" points="107.771,-81.3004 97.3188,-79.5707 104.411,-87.4412 107.771,-81.3004"/>
</g>
<!-- Node12&#45;&gt;Node7 -->
<g id="edge30" class="edge"><title>Node12&#45;&gt;Node7</title>
<path fill="none" stroke="midnightblue" d="M177.951,-116.117C171.136,-102.413 161.772,-78.2132 168,-58 171.159,-47.7466 177.404,-37.7278 183.545,-29.5925"/>
<polygon fill="midnightblue" stroke="midnightblue" points="186.454,-31.5603 190.016,-21.5822 181.009,-27.1612 186.454,-31.5603"/>
</g>
<!-- Node13 -->
<g id="node26" class="node"><title>Node13</title>
<a xlink:href="vec2_8h.html" target="_top" xlink:title="vec2.h">
<polygon fill="white" stroke="black" points="177,-58.5 177,-79.5 223,-79.5 223,-58.5 177,-58.5"/>
<text text-anchor="middle" x="200" y="-66.5" font-family="Helvetica,sans-Serif" font-size="10.00">vec2.h</text>
</a>
</g>
<!-- Node12&#45;&gt;Node13 -->
<g id="edge26" class="edge"><title>Node12&#45;&gt;Node13</title>
<path fill="none" stroke="midnightblue" d="M186.935,-116.362C189.01,-108.84 191.857,-98.5187 194.364,-89.4308"/>
<polygon fill="midnightblue" stroke="midnightblue" points="197.799,-90.1414 197.084,-79.5707 191.051,-88.2798 197.799,-90.1414"/>
</g>
<!-- Node13&#45;&gt;Node7 -->
<g id="edge28" class="edge"><title>Node13&#45;&gt;Node7</title>
<path fill="none" stroke="midnightblue" d="M200,-58.3619C200,-50.9219 200,-40.7427 200,-31.7276"/>
<polygon fill="midnightblue" stroke="midnightblue" points="203.5,-31.5706 200,-21.5707 196.5,-31.5707 203.5,-31.5706"/>
</g>
</g>
</svg>
