<?xml version="1.0" encoding="UTF-8" standalone="no"?>
<!DOCTYPE svg PUBLIC "-//W3C//DTD SVG 1.1//EN"
 "http://www.w3.org/Graphics/SVG/1.1/DTD/svg11.dtd">
<!-- Generated by graphviz version 2.26.3 (20100126.1600)
 -->
<!-- Title: src/expconfig/detectors/Tagger.h Pages: 1 -->
<svg width="586pt" height="200pt"
 viewBox="0.00 0.00 586.00 200.00" xmlns="http://www.w3.org/2000/svg" xmlns:xlink="http://www.w3.org/1999/xlink">
<g id="graph1" class="graph" transform="scale(1 1) rotate(0) translate(4 196)">
<title>src/expconfig/detectors/Tagger.h</title>
<polygon fill="white" stroke="white" points="-4,5 -4,-196 583,-196 583,5 -4,5"/>
<!-- Node1 -->
<g id="node1" class="node"><title>Node1</title>
<polygon fill="#bfbfbf" stroke="black" points="185.5,-157 185.5,-191 304.5,-191 304.5,-157 185.5,-157"/>
<text text-anchor="start" x="193.5" y="-178" font-family="Helvetica,sans-Serif" font-size="10.00">src/expconfig/detectors</text>
<text text-anchor="middle" x="245" y="-165" font-family="Helvetica,sans-Serif" font-size="10.00">/Tagger.h</text>
</g>
<!-- Node2 -->
<g id="node3" class="node"><title>Node2</title>
<a xlink:href="_tagger__2007__1508__elements_8h.html" target="_top" xlink:title="src/expconfig/detectors\l/detail/Tagger_2007_1508\l_elements.h">
<polygon fill="white" stroke="black" points="0,-72.5 0,-119.5 128,-119.5 128,-72.5 0,-72.5"/>
<text text-anchor="start" x="8" y="-106.5" font-family="Helvetica,sans-Serif" font-size="10.00">src/expconfig/detectors</text>
<text text-anchor="start" x="8" y="-93.5" font-family="Helvetica,sans-Serif" font-size="10.00">/detail/Tagger_2007_1508</text>
<text text-anchor="middle" x="64" y="-80.5" font-family="Helvetica,sans-Serif" font-size="10.00">_elements.h</text>
</a>
</g>
<!-- Node1&#45;&gt;Node2 -->
<g id="edge2" class="edge"><title>Node1&#45;&gt;Node2</title>
<path fill="none" stroke="midnightblue" d="M196.049,-152.905C172.162,-142.611 143.344,-130.192 118.732,-119.586"/>
<polygon fill="midnightblue" stroke="midnightblue" points="194.71,-156.139 205.279,-156.883 197.48,-149.711 194.71,-156.139"/>
</g>
<!-- Node3 -->
<g id="node5" class="node"><title>Node3</title>
<a xlink:href="_tagger_8cc.html" target="_top" xlink:title="src/expconfig/detectors\l/Tagger.cc">
<polygon fill="white" stroke="black" points="96.5,-1 96.5,-35 215.5,-35 215.5,-1 96.5,-1"/>
<text text-anchor="start" x="104.5" y="-22" font-family="Helvetica,sans-Serif" font-size="10.00">src/expconfig/detectors</text>
<text text-anchor="middle" x="156" y="-9" font-family="Helvetica,sans-Serif" font-size="10.00">/Tagger.cc</text>
</a>
</g>
<!-- Node1&#45;&gt;Node3 -->
<g id="edge10" class="edge"><title>Node1&#45;&gt;Node3</title>
<path fill="none" stroke="midnightblue" d="M205.187,-151.105C193.806,-142.71 182.476,-132.222 175,-120 158.834,-93.5698 155.814,-56.6107 155.573,-35.202"/>
<polygon fill="midnightblue" stroke="midnightblue" points="203.221,-154.001 213.428,-156.842 207.22,-148.256 203.221,-154.001"/>
</g>
<!-- Node4 -->
<g id="node7" class="node"><title>Node4</title>
<a xlink:href="_tagger__2015__450__elements_8h.html" target="_top" xlink:title="src/expconfig/detectors\l/detail/Tagger_2015_450\l_elements.h">
<polygon fill="white" stroke="black" points="183.5,-72.5 183.5,-119.5 306.5,-119.5 306.5,-72.5 183.5,-72.5"/>
<text text-anchor="start" x="191.5" y="-106.5" font-family="Helvetica,sans-Serif" font-size="10.00">src/expconfig/detectors</text>
<text text-anchor="start" x="191.5" y="-93.5" font-family="Helvetica,sans-Serif" font-size="10.00">/detail/Tagger_2015_450</text>
<text text-anchor="middle" x="245" y="-80.5" font-family="Helvetica,sans-Serif" font-size="10.00">_elements.h</text>
</a>
</g>
<!-- Node1&#45;&gt;Node4 -->
<g id="edge6" class="edge"><title>Node1&#45;&gt;Node4</title>
<path fill="none" stroke="midnightblue" d="M245,-146.579C245,-137.834 245,-128.234 245,-119.77"/>
<polygon fill="midnightblue" stroke="midnightblue" points="241.5,-146.689 245,-156.689 248.5,-146.689 241.5,-146.689"/>
</g>
<!-- Node5 -->
<g id="node11" class="node"><title>Node5</title>
<a xlink:href="_setup__2007___base_8cc.html" target="_top" xlink:title="src/expconfig/setups\l/Setup_2007_Base.cc">
<polygon fill="white" stroke="black" points="323.5,-79 323.5,-113 436.5,-113 436.5,-79 323.5,-79"/>
<text text-anchor="start" x="331.5" y="-100" font-family="Helvetica,sans-Serif" font-size="10.00">src/expconfig/setups</text>
<text text-anchor="middle" x="380" y="-87" font-family="Helvetica,sans-Serif" font-size="10.00">/Setup_2007_Base.cc</text>
</a>
</g>
<!-- Node1&#45;&gt;Node5 -->
<g id="edge12" class="edge"><title>Node1&#45;&gt;Node5</title>
<path fill="none" stroke="midnightblue" d="M283.424,-151.799C304.709,-139.501 330.763,-124.448 350.443,-113.078"/>
<polygon fill="midnightblue" stroke="midnightblue" points="281.534,-148.849 274.626,-156.883 285.036,-154.91 281.534,-148.849"/>
</g>
<!-- Node6 -->
<g id="node13" class="node"><title>Node6</title>
<a xlink:href="_setup__2015__01___pion_8cc.html" target="_top" xlink:title="src/expconfig/setups\l/Setup_2015_01_Pion.cc">
<polygon fill="white" stroke="black" points="453.5,-79 453.5,-113 578.5,-113 578.5,-79 453.5,-79"/>
<text text-anchor="start" x="461.5" y="-100" font-family="Helvetica,sans-Serif" font-size="10.00">src/expconfig/setups</text>
<text text-anchor="middle" x="516" y="-87" font-family="Helvetica,sans-Serif" font-size="10.00">/Setup_2015_01_Pion.cc</text>
</a>
</g>
<!-- Node1&#45;&gt;Node6 -->
<g id="edge14" class="edge"><title>Node1&#45;&gt;Node6</title>
<path fill="none" stroke="midnightblue" d="M314.867,-156.276C353.413,-146.212 402.037,-133.048 445,-120 452.097,-117.845 459.553,-115.46 466.857,-113.054"/>
<polygon fill="midnightblue" stroke="midnightblue" points="313.583,-152.993 304.786,-158.897 315.345,-159.768 313.583,-152.993"/>
</g>
<!-- Node2&#45;&gt;Node3 -->
<g id="edge4" class="edge"><title>Node2&#45;&gt;Node3</title>
<path fill="none" stroke="midnightblue" d="M99.958,-65.5139C112.188,-55.1446 125.415,-43.9311 135.945,-35.003"/>
<polygon fill="midnightblue" stroke="midnightblue" points="97.4671,-63.0371 92.1029,-72.1736 101.994,-68.3764 97.4671,-63.0371"/>
</g>
<!-- Node4&#45;&gt;Node3 -->
<g id="edge8" class="edge"><title>Node4&#45;&gt;Node3</title>
<path fill="none" stroke="midnightblue" d="M210.215,-65.5139C198.383,-55.1446 185.588,-43.9311 175.401,-35.003"/>
<polygon fill="midnightblue" stroke="midnightblue" points="207.986,-68.2147 217.813,-72.1736 212.6,-62.9503 207.986,-68.2147"/>
</g>
</g>
</svg>
