<?xml version="1.0" encoding="UTF-8" standalone="no"?>
<!DOCTYPE svg PUBLIC "-//W3C//DTD SVG 1.1//EN"
 "http://www.w3.org/Graphics/SVG/1.1/DTD/svg11.dtd">
<!-- Generated by graphviz version 2.26.3 (20100126.1600)
 -->
<!-- Title: src/analysis/utils/TimeSmearingHack.cc Pages: 1 -->
<svg width="1349pt" height="464pt"
 viewBox="0.00 0.00 1348.66 464.00" xmlns="http://www.w3.org/2000/svg" xmlns:xlink="http://www.w3.org/1999/xlink">
<g id="graph1" class="graph" transform="scale(1 1) rotate(0) translate(4 460)">
<title>src/analysis/utils/TimeSmearingHack.cc</title>
<polygon fill="white" stroke="white" points="-4,5 -4,-460 1345.66,-460 1345.66,5 -4,5"/>
<!-- Node1 -->
<g id="node1" class="node"><title>Node1</title>
<polygon fill="#bfbfbf" stroke="black" points="971.67,-421 971.67,-455 1090.67,-455 1090.67,-421 971.67,-421"/>
<text text-anchor="start" x="979.67" y="-442" font-family="Helvetica,sans-Serif" font-size="10.00">src/analysis/utils</text>
<text text-anchor="middle" x="1031.17" y="-429" font-family="Helvetica,sans-Serif" font-size="10.00">/TimeSmearingHack.cc</text>
</g>
<!-- Node2 -->
<g id="node3" class="node"><title>Node2</title>
<a xlink:href="_time_smearing_hack_8h.html" target="_top" xlink:title="TimeSmearingHack.h">
<polygon fill="white" stroke="black" points="868.67,-362.5 868.67,-383.5 979.67,-383.5 979.67,-362.5 868.67,-362.5"/>
<text text-anchor="middle" x="924.17" y="-370.5" font-family="Helvetica,sans-Serif" font-size="10.00">TimeSmearingHack.h</text>
</a>
</g>
<!-- Node1&#45;&gt;Node2 -->
<g id="edge2" class="edge"><title>Node1&#45;&gt;Node2</title>
<path fill="none" stroke="midnightblue" d="M1003.06,-420.922C986.805,-411.049 966.483,-398.704 950.536,-389.016"/>
<polygon fill="midnightblue" stroke="midnightblue" points="952.08,-385.859 941.716,-383.658 948.445,-391.842 952.08,-385.859"/>
</g>
<!-- Node34 -->
<g id="node101" class="node"><title>Node34</title>
<polygon fill="white" stroke="#bfbfbf" points="997.17,-362.5 997.17,-383.5 1065.17,-383.5 1065.17,-362.5 997.17,-362.5"/>
<text text-anchor="middle" x="1031.17" y="-370.5" font-family="Helvetica,sans-Serif" font-size="10.00">TRandom.h</text>
</g>
<!-- Node1&#45;&gt;Node34 -->
<g id="edge134" class="edge"><title>Node1&#45;&gt;Node34</title>
<path fill="none" stroke="midnightblue" d="M1031.17,-420.922C1031.17,-412.67 1031.17,-402.692 1031.17,-393.982"/>
<polygon fill="midnightblue" stroke="midnightblue" points="1034.67,-393.852 1031.17,-383.852 1027.67,-393.852 1034.67,-393.852"/>
</g>
<!-- Node35 -->
<g id="node103" class="node"><title>Node35</title>
<a xlink:href="_logger_8h.html" target="_top" xlink:title="base/Logger.h">
<polygon fill="white" stroke="black" points="1083.17,-362.5 1083.17,-383.5 1161.17,-383.5 1161.17,-362.5 1083.17,-362.5"/>
<text text-anchor="middle" x="1122.17" y="-370.5" font-family="Helvetica,sans-Serif" font-size="10.00">base/Logger.h</text>
</a>
</g>
<!-- Node1&#45;&gt;Node35 -->
<g id="edge136" class="edge"><title>Node1&#45;&gt;Node35</title>
<path fill="none" stroke="midnightblue" d="M1055.08,-420.922C1068.64,-411.233 1085.54,-399.165 1098.98,-389.562"/>
<polygon fill="midnightblue" stroke="midnightblue" points="1101.15,-392.319 1107.25,-383.658 1097.08,-386.623 1101.15,-392.319"/>
</g>
<!-- Node3 -->
<g id="node5" class="node"><title>Node3</title>
<a xlink:href="_t_tagger_hit_8h.html" target="_top" xlink:title="tree/TTaggerHit.h">
<polygon fill="white" stroke="black" points="916.67,-304.5 916.67,-325.5 1009.67,-325.5 1009.67,-304.5 916.67,-304.5"/>
<text text-anchor="middle" x="963.17" y="-312.5" font-family="Helvetica,sans-Serif" font-size="10.00">tree/TTaggerHit.h</text>
</a>
</g>
<!-- Node2&#45;&gt;Node3 -->
<g id="edge4" class="edge"><title>Node2&#45;&gt;Node3</title>
<path fill="none" stroke="midnightblue" d="M931.324,-362.362C936.656,-354.431 944.082,-343.389 950.421,-333.961"/>
<polygon fill="midnightblue" stroke="midnightblue" points="953.387,-335.822 956.063,-325.571 947.578,-331.916 953.387,-335.822"/>
</g>
<!-- Node26 -->
<g id="node59" class="node"><title>Node26</title>
<a xlink:href="_t_candidate_8h.html" target="_top" xlink:title="tree/TCandidate.h">
<polygon fill="white" stroke="black" points="430.67,-304.5 430.67,-325.5 525.67,-325.5 525.67,-304.5 430.67,-304.5"/>
<text text-anchor="middle" x="478.17" y="-312.5" font-family="Helvetica,sans-Serif" font-size="10.00">tree/TCandidate.h</text>
</a>
</g>
<!-- Node2&#45;&gt;Node26 -->
<g id="edge66" class="edge"><title>Node2&#45;&gt;Node26</title>
<path fill="none" stroke="midnightblue" d="M868.586,-365.772C783.654,-354.727 622.371,-333.752 536.073,-322.53"/>
<polygon fill="midnightblue" stroke="midnightblue" points="536.299,-319.03 525.931,-321.211 535.396,-325.971 536.299,-319.03"/>
</g>
<!-- Node4 -->
<g id="node7" class="node"><title>Node4</title>
<a xlink:href="_t_i_d_8h.html" target="_top" xlink:title="TID.h">
<polygon fill="white" stroke="black" points="1038.67,-246.5 1038.67,-267.5 1079.67,-267.5 1079.67,-246.5 1038.67,-246.5"/>
<text text-anchor="middle" x="1059.17" y="-254.5" font-family="Helvetica,sans-Serif" font-size="10.00">TID.h</text>
</a>
</g>
<!-- Node3&#45;&gt;Node4 -->
<g id="edge6" class="edge"><title>Node3&#45;&gt;Node4</title>
<path fill="none" stroke="midnightblue" d="M980.778,-304.362C995.393,-295.532 1016.39,-282.844 1032.98,-272.822"/>
<polygon fill="midnightblue" stroke="midnightblue" points="1034.92,-275.738 1041.67,-267.571 1031.31,-269.746 1034.92,-275.738"/>
</g>
<!-- Node6 -->
<g id="node11" class="node"><title>Node6</title>
<a xlink:href="printable_8h.html" target="_top" xlink:title="base/printable.h">
<polygon fill="white" stroke="black" points="1092.17,-58.5 1092.17,-79.5 1178.17,-79.5 1178.17,-58.5 1092.17,-58.5"/>
<text text-anchor="middle" x="1135.17" y="-66.5" font-family="Helvetica,sans-Serif" font-size="10.00">base/printable.h</text>
</a>
</g>
<!-- Node3&#45;&gt;Node6 -->
<g id="edge46" class="edge"><title>Node3&#45;&gt;Node6</title>
<path fill="none" stroke="midnightblue" d="M1009.72,-308.274C1072.02,-298.941 1179.01,-281.669 1216.17,-268 1264.75,-250.13 1288.8,-253.296 1317.17,-210 1340.15,-174.93 1351.01,-149.017 1325.17,-116 1308.42,-94.5968 1238.4,-81.5896 1188.24,-74.8431"/>
<polygon fill="midnightblue" stroke="midnightblue" points="1188.54,-71.3536 1178.18,-73.5372 1187.64,-78.2953 1188.54,-71.3536"/>
</g>
<!-- Node12 -->
<g id="node23" class="node"><title>Node12</title>
<polygon fill="white" stroke="#bfbfbf" points="971.17,-58.5 971.17,-79.5 1023.17,-79.5 1023.17,-58.5 971.17,-58.5"/>
<text text-anchor="middle" x="997.17" y="-66.5" font-family="Helvetica,sans-Serif" font-size="10.00">sstream</text>
</g>
<!-- Node3&#45;&gt;Node12 -->
<g id="edge64" class="edge"><title>Node3&#45;&gt;Node12</title>
<path fill="none" stroke="midnightblue" d="M1009.86,-306.356C1092.1,-290.186 1257.72,-253.076 1296.17,-210 1317.88,-185.68 1307.04,-170.449 1310.17,-138 1311.11,-128.267 1316.55,-123.41 1310.17,-116 1305.67,-110.77 1115.32,-84.7842 1033.71,-73.8555"/>
<polygon fill="midnightblue" stroke="midnightblue" points="1033.78,-70.3334 1023.4,-72.4778 1032.85,-77.2717 1033.78,-70.3334"/>
</g>
<!-- Node14 -->
<g id="node27" class="node"><title>Node14</title>
<polygon fill="white" stroke="#bfbfbf" points="202.17,-58.5 202.17,-79.5 246.17,-79.5 246.17,-58.5 202.17,-58.5"/>
<text text-anchor="middle" x="224.17" y="-66.5" font-family="Helvetica,sans-Serif" font-size="10.00">vector</text>
</g>
<!-- Node3&#45;&gt;Node14 -->
<g id="edge60" class="edge"><title>Node3&#45;&gt;Node14</title>
<path fill="none" stroke="midnightblue" d="M916.461,-313.498C799.152,-307.633 486.711,-278.886 279.17,-138 260.277,-125.175 244.739,-103.891 235.054,-88.3475"/>
<polygon fill="midnightblue" stroke="midnightblue" points="237.929,-86.3356 229.802,-79.5382 231.916,-89.92 237.929,-86.3356"/>
</g>
<!-- Node21 -->
<g id="node42" class="node"><title>Node21</title>
<polygon fill="white" stroke="#bfbfbf" points="731.17,-181.5 731.17,-202.5 781.17,-202.5 781.17,-181.5 731.17,-181.5"/>
<text text-anchor="middle" x="756.17" y="-189.5" font-family="Helvetica,sans-Serif" font-size="10.00">iomanip</text>
</g>
<!-- Node3&#45;&gt;Node21 -->
<g id="edge62" class="edge"><title>Node3&#45;&gt;Node21</title>
<path fill="none" stroke="midnightblue" d="M945.163,-304.3C908.599,-282.573 825.507,-233.2 782.722,-207.777"/>
<polygon fill="midnightblue" stroke="midnightblue" points="784.374,-204.687 773.989,-202.588 780.798,-210.705 784.374,-204.687"/>
</g>
<!-- Node22 -->
<g id="node46" class="node"><title>Node22</title>
<a xlink:href="_lorentz_vec_8h.html" target="_top" xlink:title="base/vec/LorentzVec.h">
<polygon fill="white" stroke="black" points="904.67,-246.5 904.67,-267.5 1021.67,-267.5 1021.67,-246.5 904.67,-246.5"/>
<text text-anchor="middle" x="963.17" y="-254.5" font-family="Helvetica,sans-Serif" font-size="10.00">base/vec/LorentzVec.h</text>
</a>
</g>
<!-- Node3&#45;&gt;Node22 -->
<g id="edge48" class="edge"><title>Node3&#45;&gt;Node22</title>
<path fill="none" stroke="midnightblue" d="M963.17,-304.362C963.17,-296.922 963.17,-286.743 963.17,-277.728"/>
<polygon fill="midnightblue" stroke="midnightblue" points="966.671,-277.571 963.17,-267.571 959.671,-277.571 966.671,-277.571"/>
</g>
<!-- Node5 -->
<g id="node9" class="node"><title>Node5</title>
<polygon fill="white" stroke="#bfbfbf" points="1091.17,-181.5 1091.17,-202.5 1147.17,-202.5 1147.17,-181.5 1091.17,-181.5"/>
<text text-anchor="middle" x="1119.17" y="-189.5" font-family="Helvetica,sans-Serif" font-size="10.00">Rtypes.h</text>
</g>
<!-- Node4&#45;&gt;Node5 -->
<g id="edge8" class="edge"><title>Node4&#45;&gt;Node5</title>
<path fill="none" stroke="midnightblue" d="M1069.08,-246.267C1078.16,-236.423 1091.8,-221.648 1102.56,-210"/>
<polygon fill="midnightblue" stroke="midnightblue" points="1105.24,-212.256 1109.45,-202.534 1100.09,-207.508 1105.24,-212.256"/>
</g>
<!-- Node4&#45;&gt;Node6 -->
<g id="edge10" class="edge"><title>Node4&#45;&gt;Node6</title>
<path fill="none" stroke="midnightblue" d="M1080.03,-255.774C1132.1,-252.275 1265.82,-240.459 1296.17,-210 1325.98,-180.077 1335.87,-149.518 1310.17,-116 1295.35,-96.6792 1234.47,-83.5396 1188.65,-76.1701"/>
<polygon fill="midnightblue" stroke="midnightblue" points="1188.96,-72.6759 1178.54,-74.5969 1187.88,-79.5927 1188.96,-72.6759"/>
</g>
<!-- Node7 -->
<g id="node13" class="node"><title>Node7</title>
<polygon fill="white" stroke="#bfbfbf" points="1030.17,-0.5 1030.17,-21.5 1092.17,-21.5 1092.17,-0.5 1030.17,-0.5"/>
<text text-anchor="middle" x="1061.17" y="-8.5" font-family="Helvetica,sans-Serif" font-size="10.00">type_traits</text>
</g>
<!-- Node4&#45;&gt;Node7 -->
<g id="edge32" class="edge"><title>Node4&#45;&gt;Node7</title>
<path fill="none" stroke="midnightblue" d="M1038.4,-247.56C1017.24,-237.465 986.639,-221.376 980.17,-210 972.261,-196.092 972.392,-187.982 980.17,-174 994.919,-147.487 1021.11,-163.088 1038.17,-138 1060.11,-105.737 1062.85,-58.608 1062.35,-31.762"/>
<polygon fill="midnightblue" stroke="midnightblue" points="1065.84,-31.4693 1061.99,-21.6008 1058.85,-31.7196 1065.84,-31.4693"/>
</g>
<!-- Node9 -->
<g id="node17" class="node"><title>Node9</title>
<a xlink:href="time_8h.html" target="_top" xlink:title="base/std_ext/time.h">
<polygon fill="white" stroke="black" points="1164.67,-181.5 1164.67,-202.5 1267.67,-202.5 1267.67,-181.5 1164.67,-181.5"/>
<text text-anchor="middle" x="1216.17" y="-189.5" font-family="Helvetica,sans-Serif" font-size="10.00">base/std_ext/time.h</text>
</a>
</g>
<!-- Node4&#45;&gt;Node9 -->
<g id="edge16" class="edge"><title>Node4&#45;&gt;Node9</title>
<path fill="none" stroke="midnightblue" d="M1079.7,-248.502C1105.42,-237.852 1149.92,-219.431 1181.09,-206.525"/>
<polygon fill="midnightblue" stroke="midnightblue" points="1182.8,-209.605 1190.7,-202.546 1180.12,-203.138 1182.8,-209.605"/>
</g>
<!-- Node16 -->
<g id="node31" class="node"><title>Node16</title>
<polygon fill="white" stroke="#bfbfbf" points="1260.67,-116.5 1260.67,-137.5 1301.67,-137.5 1301.67,-116.5 1260.67,-116.5"/>
<text text-anchor="middle" x="1281.17" y="-124.5" font-family="Helvetica,sans-Serif" font-size="10.00">ctime</text>
</g>
<!-- Node4&#45;&gt;Node16 -->
<g id="edge44" class="edge"><title>Node4&#45;&gt;Node16</title>
<path fill="none" stroke="midnightblue" d="M1079.95,-255.61C1129.18,-251.852 1250.7,-239.701 1276.17,-210 1290.78,-192.961 1289.49,-166.002 1286.22,-147.459"/>
<polygon fill="midnightblue" stroke="midnightblue" points="1289.64,-146.725 1284.17,-137.652 1282.79,-148.156 1289.64,-146.725"/>
</g>
<!-- Node17 -->
<g id="node34" class="node"><title>Node17</title>
<polygon fill="white" stroke="#bfbfbf" points="989.17,-181.5 989.17,-202.5 1027.17,-202.5 1027.17,-181.5 989.17,-181.5"/>
<text text-anchor="middle" x="1008.17" y="-189.5" font-family="Helvetica,sans-Serif" font-size="10.00">tuple</text>
</g>
<!-- Node4&#45;&gt;Node17 -->
<g id="edge34" class="edge"><title>Node4&#45;&gt;Node17</title>
<path fill="none" stroke="midnightblue" d="M1050.75,-246.267C1043.17,-236.612 1031.88,-222.215 1022.82,-210.675"/>
<polygon fill="midnightblue" stroke="midnightblue" points="1025.36,-208.241 1016.44,-202.534 1019.85,-212.562 1025.36,-208.241"/>
</g>
<!-- Node18 -->
<g id="node36" class="node"><title>Node18</title>
<polygon fill="white" stroke="#bfbfbf" points="912.17,-116.5 912.17,-137.5 958.17,-137.5 958.17,-116.5 912.17,-116.5"/>
<text text-anchor="middle" x="935.17" y="-124.5" font-family="Helvetica,sans-Serif" font-size="10.00">cstdint</text>
</g>
<!-- Node4&#45;&gt;Node18 -->
<g id="edge36" class="edge"><title>Node4&#45;&gt;Node18</title>
<path fill="none" stroke="midnightblue" d="M1038.54,-248.949C1007.01,-236.561 950.147,-213.846 947.17,-210 933.52,-192.359 931.91,-166.106 932.818,-147.868"/>
<polygon fill="midnightblue" stroke="midnightblue" points="936.323,-147.941 933.624,-137.696 929.345,-147.388 936.323,-147.941"/>
</g>
<!-- Node19 -->
<g id="node38" class="node"><title>Node19</title>
<polygon fill="white" stroke="#bfbfbf" points="500.67,-58.5 500.67,-79.5 559.67,-79.5 559.67,-58.5 500.67,-58.5"/>
<text text-anchor="middle" x="530.17" y="-66.5" font-family="Helvetica,sans-Serif" font-size="10.00">stdexcept</text>
</g>
<!-- Node4&#45;&gt;Node19 -->
<g id="edge38" class="edge"><title>Node4&#45;&gt;Node19</title>
<path fill="none" stroke="midnightblue" d="M1038.64,-249.006C1035.81,-247.963 1032.92,-246.934 1030.17,-246 924.708,-210.23 898.421,-200.148 790.17,-174 704.503,-153.307 672.559,-180.167 595.17,-138 573.305,-126.086 554.58,-104.152 542.921,-88.2041"/>
<polygon fill="midnightblue" stroke="midnightblue" points="545.512,-85.8027 536.903,-79.627 539.782,-89.8233 545.512,-85.8027"/>
</g>
<!-- Node20 -->
<g id="node40" class="node"><title>Node20</title>
<polygon fill="white" stroke="#bfbfbf" points="1044.67,-181.5 1044.67,-202.5 1073.67,-202.5 1073.67,-181.5 1044.67,-181.5"/>
<text text-anchor="middle" x="1059.17" y="-189.5" font-family="Helvetica,sans-Serif" font-size="10.00">list</text>
</g>
<!-- Node4&#45;&gt;Node20 -->
<g id="edge40" class="edge"><title>Node4&#45;&gt;Node20</title>
<path fill="none" stroke="midnightblue" d="M1059.17,-246.267C1059.17,-237.18 1059.17,-223.892 1059.17,-212.74"/>
<polygon fill="midnightblue" stroke="midnightblue" points="1062.67,-212.534 1059.17,-202.534 1055.67,-212.534 1062.67,-212.534"/>
</g>
<!-- Node4&#45;&gt;Node21 -->
<g id="edge42" class="edge"><title>Node4&#45;&gt;Node21</title>
<path fill="none" stroke="midnightblue" d="M1038.4,-248.644C1035.66,-247.681 1032.86,-246.77 1030.17,-246 946.001,-221.927 844.257,-204.949 791.601,-197.033"/>
<polygon fill="midnightblue" stroke="midnightblue" points="791.844,-193.531 781.439,-195.526 790.818,-200.455 791.844,-193.531"/>
</g>
<!-- Node6&#45;&gt;Node7 -->
<g id="edge12" class="edge"><title>Node6&#45;&gt;Node7</title>
<path fill="none" stroke="midnightblue" d="M1121.6,-58.3619C1110.75,-49.859 1095.34,-37.7785 1082.79,-27.9466"/>
<polygon fill="midnightblue" stroke="midnightblue" points="1084.69,-24.9848 1074.66,-21.5707 1080.37,-30.4942 1084.69,-24.9848"/>
</g>
<!-- Node8 -->
<g id="node15" class="node"><title>Node8</title>
<polygon fill="white" stroke="#bfbfbf" points="1110.17,-0.5 1110.17,-21.5 1162.17,-21.5 1162.17,-0.5 1110.17,-0.5"/>
<text text-anchor="middle" x="1136.17" y="-8.5" font-family="Helvetica,sans-Serif" font-size="10.00">ostream</text>
</g>
<!-- Node6&#45;&gt;Node8 -->
<g id="edge14" class="edge"><title>Node6&#45;&gt;Node8</title>
<path fill="none" stroke="midnightblue" d="M1135.35,-58.3619C1135.48,-50.9219 1135.66,-40.7427 1135.81,-31.7276"/>
<polygon fill="midnightblue" stroke="midnightblue" points="1139.32,-31.6295 1135.99,-21.5707 1132.32,-31.5088 1139.32,-31.6295"/>
</g>
<!-- Node10 -->
<g id="node19" class="node"><title>Node10</title>
<a xlink:href="string_8h.html" target="_top" xlink:title="base/std_ext/string.h">
<polygon fill="white" stroke="black" points="604.17,-116.5 604.17,-137.5 712.17,-137.5 712.17,-116.5 604.17,-116.5"/>
<text text-anchor="middle" x="658.17" y="-124.5" font-family="Helvetica,sans-Serif" font-size="10.00">base/std_ext/string.h</text>
</a>
</g>
<!-- Node9&#45;&gt;Node10 -->
<g id="edge18" class="edge"><title>Node9&#45;&gt;Node10</title>
<path fill="none" stroke="midnightblue" d="M1185.33,-181.453C1176.05,-178.634 1165.78,-175.858 1156.17,-174 982.222,-140.376 935.463,-155.592 759.17,-138 747.31,-136.816 734.673,-135.491 722.496,-134.182"/>
<polygon fill="midnightblue" stroke="midnightblue" points="722.722,-130.686 712.403,-133.089 721.968,-137.645 722.722,-130.686"/>
</g>
<!-- Node15 -->
<g id="node29" class="node"><title>Node15</title>
<polygon fill="white" stroke="#bfbfbf" points="1193.17,-116.5 1193.17,-137.5 1239.17,-137.5 1239.17,-116.5 1193.17,-116.5"/>
<text text-anchor="middle" x="1216.17" y="-124.5" font-family="Helvetica,sans-Serif" font-size="10.00">cstring</text>
</g>
<!-- Node9&#45;&gt;Node15 -->
<g id="edge28" class="edge"><title>Node9&#45;&gt;Node15</title>
<path fill="none" stroke="midnightblue" d="M1216.17,-181.267C1216.17,-172.18 1216.17,-158.892 1216.17,-147.74"/>
<polygon fill="midnightblue" stroke="midnightblue" points="1219.67,-147.534 1216.17,-137.534 1212.67,-147.534 1219.67,-147.534"/>
</g>
<!-- Node9&#45;&gt;Node16 -->
<g id="edge30" class="edge"><title>Node9&#45;&gt;Node16</title>
<path fill="none" stroke="midnightblue" d="M1226.9,-181.267C1236.84,-171.328 1251.81,-156.363 1263.51,-144.664"/>
<polygon fill="midnightblue" stroke="midnightblue" points="1266.04,-147.08 1270.64,-137.534 1261.09,-142.13 1266.04,-147.08"/>
</g>
<!-- Node11 -->
<g id="node21" class="node"><title>Node11</title>
<polygon fill="white" stroke="#bfbfbf" points="610.67,-58.5 610.67,-79.5 651.67,-79.5 651.67,-58.5 610.67,-58.5"/>
<text text-anchor="middle" x="631.17" y="-66.5" font-family="Helvetica,sans-Serif" font-size="10.00">string</text>
</g>
<!-- Node10&#45;&gt;Node11 -->
<g id="edge20" class="edge"><title>Node10&#45;&gt;Node11</title>
<path fill="none" stroke="midnightblue" d="M653.218,-116.362C649.641,-108.677 644.702,-98.0686 640.406,-88.8399"/>
<polygon fill="midnightblue" stroke="midnightblue" points="643.485,-87.1594 636.091,-79.5707 637.139,-90.1136 643.485,-87.1594"/>
</g>
<!-- Node10&#45;&gt;Node12 -->
<g id="edge22" class="edge"><title>Node10&#45;&gt;Node12</title>
<path fill="none" stroke="midnightblue" d="M712.261,-117.746C781.917,-105.828 901.092,-85.4381 960.813,-75.2204"/>
<polygon fill="midnightblue" stroke="midnightblue" points="961.637,-78.6303 970.904,-73.494 960.457,-71.7306 961.637,-78.6303"/>
</g>
<!-- Node13 -->
<g id="node25" class="node"><title>Node13</title>
<polygon fill="white" stroke="#bfbfbf" points="427.17,-58.5 427.17,-79.5 483.17,-79.5 483.17,-58.5 427.17,-58.5"/>
<text text-anchor="middle" x="455.17" y="-66.5" font-family="Helvetica,sans-Serif" font-size="10.00">algorithm</text>
</g>
<!-- Node10&#45;&gt;Node13 -->
<g id="edge24" class="edge"><title>Node10&#45;&gt;Node13</title>
<path fill="none" stroke="midnightblue" d="M620.551,-116.5C588.984,-107.655 542.452,-94.5398 493.302,-80.3067"/>
<polygon fill="midnightblue" stroke="midnightblue" points="494.02,-76.8707 483.441,-77.4461 492.07,-83.5936 494.02,-76.8707"/>
</g>
<!-- Node10&#45;&gt;Node14 -->
<g id="edge26" class="edge"><title>Node10&#45;&gt;Node14</title>
<path fill="none" stroke="midnightblue" d="M604.082,-119.772C512.686,-107.557 330.429,-83.2005 256.473,-73.317"/>
<polygon fill="midnightblue" stroke="midnightblue" points="256.747,-69.8225 246.371,-71.9669 255.82,-76.7608 256.747,-69.8225"/>
</g>
<!-- Node23 -->
<g id="node48" class="node"><title>Node23</title>
<a xlink:href="vec3_8h.html" target="_top" xlink:title="base/vec/vec3.h">
<polygon fill="white" stroke="black" points="767.67,-116.5 767.67,-137.5 856.67,-137.5 856.67,-116.5 767.67,-116.5"/>
<text text-anchor="middle" x="812.17" y="-124.5" font-family="Helvetica,sans-Serif" font-size="10.00">base/vec/vec3.h</text>
</a>
</g>
<!-- Node22&#45;&gt;Node23 -->
<g id="edge50" class="edge"><title>Node22&#45;&gt;Node23</title>
<path fill="none" stroke="midnightblue" d="M950.813,-246.362C924.821,-223.984 864.274,-171.858 832.486,-144.49"/>
<polygon fill="midnightblue" stroke="midnightblue" points="834.56,-141.657 824.698,-137.785 829.993,-146.962 834.56,-141.657"/>
</g>
<!-- Node23&#45;&gt;Node6 -->
<g id="edge52" class="edge"><title>Node23&#45;&gt;Node6</title>
<path fill="none" stroke="midnightblue" d="M856.809,-118.479C861.321,-117.634 865.836,-116.795 870.17,-116 943.568,-102.532 1028.52,-87.5756 1082.05,-78.23"/>
<polygon fill="midnightblue" stroke="midnightblue" points="1082.75,-81.6615 1092,-76.4949 1081.54,-74.7657 1082.75,-81.6615"/>
</g>
<!-- Node24 -->
<g id="node51" class="node"><title>Node24</title>
<a xlink:href="vec2_8h.html" target="_top" xlink:title="vec2.h">
<polygon fill="white" stroke="black" points="768.17,-58.5 768.17,-79.5 814.17,-79.5 814.17,-58.5 768.17,-58.5"/>
<text text-anchor="middle" x="791.17" y="-66.5" font-family="Helvetica,sans-Serif" font-size="10.00">vec2.h</text>
</a>
</g>
<!-- Node23&#45;&gt;Node24 -->
<g id="edge54" class="edge"><title>Node23&#45;&gt;Node24</title>
<path fill="none" stroke="midnightblue" d="M808.319,-116.362C805.566,-108.758 801.777,-98.294 798.461,-89.1349"/>
<polygon fill="midnightblue" stroke="midnightblue" points="801.693,-87.7818 794.998,-79.5707 795.111,-90.1649 801.693,-87.7818"/>
</g>
<!-- Node25 -->
<g id="node53" class="node"><title>Node25</title>
<polygon fill="white" stroke="#bfbfbf" points="544.17,-0.5 544.17,-21.5 588.17,-21.5 588.17,-0.5 544.17,-0.5"/>
<text text-anchor="middle" x="566.17" y="-8.5" font-family="Helvetica,sans-Serif" font-size="10.00">cmath</text>
</g>
<!-- Node23&#45;&gt;Node25 -->
<g id="edge58" class="edge"><title>Node23&#45;&gt;Node25</title>
<path fill="none" stroke="midnightblue" d="M818.462,-116.306C826.278,-101.465 836.997,-74.5845 823.17,-58 794.89,-24.0786 660.925,-14.5681 598.424,-11.9587"/>
<polygon fill="midnightblue" stroke="midnightblue" points="598.455,-8.45747 588.328,-11.5718 598.187,-15.4523 598.455,-8.45747"/>
</g>
<!-- Node24&#45;&gt;Node25 -->
<g id="edge56" class="edge"><title>Node24&#45;&gt;Node25</title>
<path fill="none" stroke="midnightblue" d="M767.939,-63.0114C727.438,-52.5711 643.855,-31.0254 597.998,-19.2045"/>
<polygon fill="midnightblue" stroke="midnightblue" points="598.833,-15.8054 588.276,-16.6984 597.086,-22.5839 598.833,-15.8054"/>
</g>
<!-- Node26&#45;&gt;Node12 -->
<g id="edge128" class="edge"><title>Node26&#45;&gt;Node12</title>
<path fill="none" stroke="midnightblue" d="M511.881,-304.408C541.523,-295.032 585.799,-280.878 624.17,-268 787.426,-213.211 882.297,-273.027 989.17,-138 999.786,-124.587 1001.09,-104.855 1000.15,-89.9236"/>
<polygon fill="midnightblue" stroke="midnightblue" points="1003.6,-89.2214 999.105,-79.6257 996.632,-89.9279 1003.6,-89.2214"/>
</g>
<!-- Node26&#45;&gt;Node13 -->
<g id="edge132" class="edge"><title>Node26&#45;&gt;Node13</title>
<path fill="none" stroke="midnightblue" d="M477.182,-304.43C473.673,-266.896 461.772,-139.604 457.087,-89.5018"/>
<polygon fill="midnightblue" stroke="midnightblue" points="460.571,-89.1617 456.155,-79.5309 453.601,-89.8134 460.571,-89.1617"/>
</g>
<!-- Node26&#45;&gt;Node14 -->
<g id="edge124" class="edge"><title>Node26&#45;&gt;Node14</title>
<path fill="none" stroke="midnightblue" d="M430.52,-311.285C349.353,-304.491 187.934,-288.824 135.17,-268 93.6477,-251.612 82.7992,-243.389 53.1705,-210 23.1492,-176.169 -14.105,-151.303 14.1705,-116 36.0751,-88.651 138.625,-76.147 191.879,-71.4166"/>
<polygon fill="midnightblue" stroke="midnightblue" points="192.472,-74.879 202.141,-70.5473 191.881,-67.904 192.472,-74.879"/>
</g>
<!-- Node26&#45;&gt;Node21 -->
<g id="edge126" class="edge"><title>Node26&#45;&gt;Node21</title>
<path fill="none" stroke="midnightblue" d="M502.665,-304.416C546.021,-285.643 639.07,-245.176 717.17,-210 719.491,-208.955 721.885,-207.869 724.293,-206.771"/>
<polygon fill="midnightblue" stroke="midnightblue" points="725.887,-209.891 733.518,-202.541 722.969,-203.528 725.887,-209.891"/>
</g>
<!-- Node27 -->
<g id="node61" class="node"><title>Node27</title>
<a xlink:href="_t_cluster_8h.html" target="_top" xlink:title="TCluster.h">
<polygon fill="white" stroke="black" points="358.17,-246.5 358.17,-267.5 420.17,-267.5 420.17,-246.5 358.17,-246.5"/>
<text text-anchor="middle" x="389.17" y="-254.5" font-family="Helvetica,sans-Serif" font-size="10.00">TCluster.h</text>
</a>
</g>
<!-- Node26&#45;&gt;Node27 -->
<g id="edge68" class="edge"><title>Node26&#45;&gt;Node27</title>
<path fill="none" stroke="midnightblue" d="M461.846,-304.362C448.423,-295.614 429.188,-283.079 413.878,-273.101"/>
<polygon fill="midnightblue" stroke="midnightblue" points="415.68,-270.098 405.391,-267.571 411.858,-275.963 415.68,-270.098"/>
</g>
<!-- Node28 -->
<g id="node63" class="node"><title>Node28</title>
<a xlink:href="_detector__t_8h.html" target="_top" xlink:title="base/Detector_t.h">
<polygon fill="white" stroke="black" points="524.67,-181.5 524.67,-202.5 619.67,-202.5 619.67,-181.5 524.67,-181.5"/>
<text text-anchor="middle" x="572.17" y="-189.5" font-family="Helvetica,sans-Serif" font-size="10.00">base/Detector_t.h</text>
</a>
</g>
<!-- Node26&#45;&gt;Node28 -->
<g id="edge122" class="edge"><title>Node26&#45;&gt;Node28</title>
<path fill="none" stroke="midnightblue" d="M486.512,-304.085C502.579,-283.061 537.984,-236.733 557.879,-210.7"/>
<polygon fill="midnightblue" stroke="midnightblue" points="560.69,-212.786 563.981,-202.715 555.128,-208.536 560.69,-212.786"/>
</g>
<!-- Node32 -->
<g id="node84" class="node"><title>Node32</title>
<polygon fill="white" stroke="#bfbfbf" points="30.1705,-116.5 30.1705,-137.5 82.1705,-137.5 82.1705,-116.5 30.1705,-116.5"/>
<text text-anchor="middle" x="56.1705" y="-124.5" font-family="Helvetica,sans-Serif" font-size="10.00">memory</text>
</g>
<!-- Node26&#45;&gt;Node32 -->
<g id="edge130" class="edge"><title>Node26&#45;&gt;Node32</title>
<path fill="none" stroke="midnightblue" d="M430.505,-309.07C334.14,-296.1 121.142,-262.139 72.1705,-210 56.6223,-193.446 54.0254,-166.574 54.4032,-147.909"/>
<polygon fill="midnightblue" stroke="midnightblue" points="57.9067,-147.924 54.9135,-137.761 50.9156,-147.572 57.9067,-147.924"/>
</g>
<!-- Node27&#45;&gt;Node12 -->
<g id="edge118" class="edge"><title>Node27&#45;&gt;Node12</title>
<path fill="none" stroke="midnightblue" d="M420.243,-253.707C484.082,-246.644 627.807,-229.116 673.17,-210 698.073,-199.506 697.174,-184.268 722.17,-174 823.974,-132.181 879.774,-204.893 967.17,-138 982.425,-126.324 990.053,-105.293 993.783,-89.5073"/>
<polygon fill="midnightblue" stroke="midnightblue" points="997.236,-90.0922 995.789,-79.5967 990.375,-88.7039 997.236,-90.0922"/>
</g>
<!-- Node27&#45;&gt;Node14 -->
<g id="edge112" class="edge"><title>Node27&#45;&gt;Node14</title>
<path fill="none" stroke="midnightblue" d="M358.159,-255.476C288.063,-251.549 119.814,-239.266 72.1705,-210 38.7565,-189.475 33.064,-175.367 21.1705,-138 18.2049,-128.683 15.086,-123.654 21.1705,-116 42.1777,-89.5733 140.456,-76.6979 192.168,-71.6611"/>
<polygon fill="midnightblue" stroke="midnightblue" points="192.52,-75.1435 202.152,-70.7298 191.87,-68.1737 192.52,-75.1435"/>
</g>
<!-- Node27&#45;&gt;Node21 -->
<g id="edge116" class="edge"><title>Node27&#45;&gt;Node21</title>
<path fill="none" stroke="midnightblue" d="M420.56,-255.526C479.71,-252.09 611.25,-241.305 717.17,-210 720.317,-209.07 723.534,-207.928 726.704,-206.674"/>
<polygon fill="midnightblue" stroke="midnightblue" points="728.165,-209.856 735.958,-202.678 725.39,-203.43 728.165,-209.856"/>
</g>
<!-- Node27&#45;&gt;Node23 -->
<g id="edge110" class="edge"><title>Node27&#45;&gt;Node23</title>
<path fill="none" stroke="midnightblue" d="M420.272,-254.272C466.781,-249.448 556.635,-237.226 628.17,-210 657.592,-198.802 660.811,-187.667 689.17,-174 715.596,-161.265 746.434,-149.488 770.621,-140.908"/>
<polygon fill="midnightblue" stroke="midnightblue" points="771.93,-144.159 780.211,-137.55 769.616,-137.552 771.93,-144.159"/>
</g>
<!-- Node27&#45;&gt;Node25 -->
<g id="edge114" class="edge"><title>Node27&#45;&gt;Node25</title>
<path fill="none" stroke="midnightblue" d="M357.893,-254.882C275.356,-249.015 56.3421,-231.56 32.1705,-210 0.426577,-181.686 -10.846,-150.403 14.1705,-116 76.0087,-30.9595 425.121,-14.6855 533.845,-11.6663"/>
<polygon fill="midnightblue" stroke="midnightblue" points="533.981,-15.164 543.887,-11.4067 533.8,-8.16635 533.981,-15.164"/>
</g>
<!-- Node27&#45;&gt;Node28 -->
<g id="edge70" class="edge"><title>Node27&#45;&gt;Node28</title>
<path fill="none" stroke="midnightblue" d="M418.98,-246.412C449.952,-235.411 498.577,-218.14 532.718,-206.013"/>
<polygon fill="midnightblue" stroke="midnightblue" points="534.122,-209.229 542.374,-202.584 531.779,-202.632 534.122,-209.229"/>
</g>
<!-- Node29 -->
<g id="node67" class="node"><title>Node29</title>
<a xlink:href="math_8h.html" target="_top" xlink:title="base/std_ext/math.h">
<polygon fill="white" stroke="black" points="328.17,-116.5 328.17,-137.5 434.17,-137.5 434.17,-116.5 328.17,-116.5"/>
<text text-anchor="middle" x="381.17" y="-124.5" font-family="Helvetica,sans-Serif" font-size="10.00">base/std_ext/math.h</text>
</a>
</g>
<!-- Node27&#45;&gt;Node29 -->
<g id="edge98" class="edge"><title>Node27&#45;&gt;Node29</title>
<path fill="none" stroke="midnightblue" d="M388.516,-246.362C387.197,-224.936 384.201,-176.24 382.47,-148.114"/>
<polygon fill="midnightblue" stroke="midnightblue" points="385.942,-147.552 381.834,-137.785 378.955,-147.982 385.942,-147.552"/>
</g>
<!-- Node31 -->
<g id="node81" class="node"><title>Node31</title>
<a xlink:href="shared__ptr__container_8h.html" target="_top" xlink:title="base/std_ext/shared\l_ptr_container.h">
<polygon fill="white" stroke="black" points="114.67,-175 114.67,-209 219.67,-209 219.67,-175 114.67,-175"/>
<text text-anchor="start" x="122.67" y="-196" font-family="Helvetica,sans-Serif" font-size="10.00">base/std_ext/shared</text>
<text text-anchor="middle" x="167.17" y="-183" font-family="Helvetica,sans-Serif" font-size="10.00">_ptr_container.h</text>
</a>
</g>
<!-- Node27&#45;&gt;Node31 -->
<g id="edge100" class="edge"><title>Node27&#45;&gt;Node31</title>
<path fill="none" stroke="midnightblue" d="M357.834,-247.825C324.639,-238.106 271.354,-222.504 229.543,-210.262"/>
<polygon fill="midnightblue" stroke="midnightblue" points="230.305,-206.838 219.724,-207.387 228.338,-213.556 230.305,-206.838"/>
</g>
<!-- Node27&#45;&gt;Node32 -->
<g id="edge120" class="edge"><title>Node27&#45;&gt;Node32</title>
<path fill="none" stroke="midnightblue" d="M357.964,-255.088C293.204,-250.602 146.857,-237.632 106.17,-210 84.0956,-195.008 70.1802,-166.728 62.788,-147.383"/>
<polygon fill="midnightblue" stroke="midnightblue" points="65.9913,-145.945 59.3419,-137.696 59.3962,-148.291 65.9913,-145.945"/>
</g>
<!-- Node28&#45;&gt;Node6 -->
<g id="edge72" class="edge"><title>Node28&#45;&gt;Node6</title>
<path fill="none" stroke="midnightblue" d="M619.809,-185.243C690.838,-174.827 820.89,-154.341 865.17,-138 883.479,-131.244 884.922,-122.917 903.17,-116 962.242,-93.6076 1034.02,-81.1606 1081.95,-74.7891"/>
<polygon fill="midnightblue" stroke="midnightblue" points="1082.63,-78.2306 1092.1,-73.4831 1081.74,-71.2879 1082.63,-78.2306"/>
</g>
<!-- Node28&#45;&gt;Node7 -->
<g id="edge94" class="edge"><title>Node28&#45;&gt;Node7</title>
<path fill="none" stroke="midnightblue" d="M602.095,-181.475C644.93,-166.365 718.86,-140.099 721.17,-138 750.304,-111.53 727.618,-81.5347 759.17,-58 799.659,-27.7997 946.957,-16.5241 1019.8,-12.7281"/>
<polygon fill="midnightblue" stroke="midnightblue" points="1020.18,-16.214 1029.99,-12.221 1019.83,-9.22266 1020.18,-16.214"/>
</g>
<!-- Node28&#45;&gt;Node11 -->
<g id="edge92" class="edge"><title>Node28&#45;&gt;Node11</title>
<path fill="none" stroke="midnightblue" d="M574.106,-181.469C577.153,-166.366 583.913,-137.958 595.17,-116 600.321,-105.953 607.68,-95.8753 614.403,-87.6424"/>
<polygon fill="midnightblue" stroke="midnightblue" points="617.251,-89.6958 621.06,-79.8094 611.917,-85.1625 617.251,-89.6958"/>
</g>
<!-- Node28&#45;&gt;Node14 -->
<g id="edge96" class="edge"><title>Node28&#45;&gt;Node14</title>
<path fill="none" stroke="midnightblue" d="M538.775,-181.481C529.856,-178.854 520.188,-176.17 511.17,-174 426.76,-153.688 398.907,-172.349 319.17,-138 289.786,-125.341 260.721,-102.267 242.631,-86.3072"/>
<polygon fill="midnightblue" stroke="midnightblue" points="244.898,-83.6391 235.129,-79.5382 240.209,-88.8361 244.898,-83.6391"/>
</g>
<!-- Node28&#45;&gt;Node18 -->
<g id="edge88" class="edge"><title>Node28&#45;&gt;Node18</title>
<path fill="none" stroke="midnightblue" d="M619.715,-184.462C703.586,-171.113 871.512,-144.145 898.17,-138 899.419,-137.712 900.688,-137.406 901.967,-137.086"/>
<polygon fill="midnightblue" stroke="midnightblue" points="903.06,-140.416 911.8,-134.428 901.233,-133.658 903.06,-140.416"/>
</g>
<!-- Node28&#45;&gt;Node19 -->
<g id="edge90" class="edge"><title>Node28&#45;&gt;Node19</title>
<path fill="none" stroke="midnightblue" d="M558.196,-181.328C546.598,-171.517 530.946,-155.821 524.17,-138 518.245,-122.416 520.499,-103.471 523.81,-89.3786"/>
<polygon fill="midnightblue" stroke="midnightblue" points="527.199,-90.2503 526.429,-79.6834 520.442,-88.4241 527.199,-90.2503"/>
</g>
<!-- Node28&#45;&gt;Node23 -->
<g id="edge74" class="edge"><title>Node28&#45;&gt;Node23</title>
<path fill="none" stroke="midnightblue" d="M610.997,-181.484C652.562,-170.227 718.587,-152.345 763.573,-140.162"/>
<polygon fill="midnightblue" stroke="midnightblue" points="764.662,-143.493 773.399,-137.501 762.832,-136.736 764.662,-143.493"/>
</g>
<!-- Node28&#45;&gt;Node29 -->
<g id="edge76" class="edge"><title>Node28&#45;&gt;Node29</title>
<path fill="none" stroke="midnightblue" d="M541.058,-181.412C508.593,-170.364 457.545,-152.991 421.89,-140.857"/>
<polygon fill="midnightblue" stroke="midnightblue" points="422.864,-137.492 412.27,-137.584 420.609,-144.119 422.864,-137.492"/>
</g>
<!-- Node29&#45;&gt;Node13 -->
<g id="edge84" class="edge"><title>Node29&#45;&gt;Node13</title>
<path fill="none" stroke="midnightblue" d="M394.743,-116.362C405.592,-107.859 421.005,-95.7785 433.549,-85.9466"/>
<polygon fill="midnightblue" stroke="midnightblue" points="435.972,-88.4942 441.684,-79.5707 431.654,-82.9848 435.972,-88.4942"/>
</g>
<!-- Node29&#45;&gt;Node14 -->
<g id="edge82" class="edge"><title>Node29&#45;&gt;Node14</title>
<path fill="none" stroke="midnightblue" d="M352.739,-116.497C325.389,-106.393 284.123,-91.1481 255.76,-80.67"/>
<polygon fill="midnightblue" stroke="midnightblue" points="256.903,-77.3611 246.31,-77.1788 254.477,-83.9274 256.903,-77.3611"/>
</g>
<!-- Node29&#45;&gt;Node19 -->
<g id="edge86" class="edge"><title>Node29&#45;&gt;Node19</title>
<path fill="none" stroke="midnightblue" d="M408.153,-116.497C432.024,-107.205 467.064,-93.5649 493.478,-83.2832"/>
<polygon fill="midnightblue" stroke="midnightblue" points="495.088,-86.4122 503.137,-79.5231 492.549,-79.889 495.088,-86.4122"/>
</g>
<!-- Node29&#45;&gt;Node25 -->
<g id="edge78" class="edge"><title>Node29&#45;&gt;Node25</title>
<path fill="none" stroke="midnightblue" d="M372.274,-116.044C361.508,-101.382 346.429,-75.2296 360.17,-58 381.515,-31.2366 481.234,-18.5155 533.701,-13.5869"/>
<polygon fill="midnightblue" stroke="midnightblue" points="534.184,-17.0577 543.831,-12.6772 533.558,-10.0858 534.184,-17.0577"/>
</g>
<!-- Node30 -->
<g id="node70" class="node"><title>Node30</title>
<polygon fill="white" stroke="#bfbfbf" points="369.17,-58.5 369.17,-79.5 409.17,-79.5 409.17,-58.5 369.17,-58.5"/>
<text text-anchor="middle" x="389.17" y="-66.5" font-family="Helvetica,sans-Serif" font-size="10.00">limits</text>
</g>
<!-- Node29&#45;&gt;Node30 -->
<g id="edge80" class="edge"><title>Node29&#45;&gt;Node30</title>
<path fill="none" stroke="midnightblue" d="M382.638,-116.362C383.664,-108.922 385.068,-98.7427 386.311,-89.7276"/>
<polygon fill="midnightblue" stroke="midnightblue" points="389.813,-89.9551 387.712,-79.5707 382.879,-88.9986 389.813,-89.9551"/>
</g>
<!-- Node31&#45;&gt;Node13 -->
<g id="edge108" class="edge"><title>Node31&#45;&gt;Node13</title>
<path fill="none" stroke="midnightblue" d="M198.339,-174.907C228.675,-158.633 276.338,-134.018 319.17,-116 351.779,-102.283 389.926,-89.3599 417.507,-80.5498"/>
<polygon fill="midnightblue" stroke="midnightblue" points="418.681,-83.8492 427.16,-77.4961 416.57,-77.1751 418.681,-83.8492"/>
</g>
<!-- Node31&#45;&gt;Node14 -->
<g id="edge102" class="edge"><title>Node31&#45;&gt;Node14</title>
<path fill="none" stroke="midnightblue" d="M148.46,-174.916C133.583,-159.189 117.108,-135.425 129.17,-116 142.83,-94.0028 170.176,-81.9875 192.035,-75.6269"/>
<polygon fill="midnightblue" stroke="midnightblue" points="193.157,-78.9506 201.932,-73.0131 191.37,-72.1827 193.157,-78.9506"/>
</g>
<!-- Node31&#45;&gt;Node32 -->
<g id="edge104" class="edge"><title>Node31&#45;&gt;Node32</title>
<path fill="none" stroke="midnightblue" d="M138.007,-174.922C120.989,-164.957 99.6704,-152.473 83.0589,-142.745"/>
<polygon fill="midnightblue" stroke="midnightblue" points="84.7696,-139.691 74.3717,-137.658 81.2324,-145.732 84.7696,-139.691"/>
</g>
<!-- Node33 -->
<g id="node86" class="node"><title>Node33</title>
<polygon fill="white" stroke="#bfbfbf" points="137.67,-116.5 137.67,-137.5 196.67,-137.5 196.67,-116.5 137.67,-116.5"/>
<text text-anchor="middle" x="167.17" y="-124.5" font-family="Helvetica,sans-Serif" font-size="10.00">functional</text>
</g>
<!-- Node31&#45;&gt;Node33 -->
<g id="edge106" class="edge"><title>Node31&#45;&gt;Node33</title>
<path fill="none" stroke="midnightblue" d="M167.17,-174.922C167.17,-166.67 167.17,-156.692 167.17,-147.982"/>
<polygon fill="midnightblue" stroke="midnightblue" points="170.671,-147.852 167.17,-137.852 163.671,-147.852 170.671,-147.852"/>
</g>
<!-- Node36 -->
<g id="node105" class="node"><title>Node36</title>
<polygon fill="white" stroke="#bfbfbf" points="1064.67,-304.5 1064.67,-325.5 1179.67,-325.5 1179.67,-304.5 1064.67,-304.5"/>
<text text-anchor="middle" x="1122.17" y="-312.5" font-family="Helvetica,sans-Serif" font-size="10.00">detail/easylogging++.h</text>
</g>
<!-- Node35&#45;&gt;Node36 -->
<g id="edge138" class="edge"><title>Node35&#45;&gt;Node36</title>
<path fill="none" stroke="midnightblue" d="M1122.17,-362.362C1122.17,-354.922 1122.17,-344.743 1122.17,-335.728"/>
<polygon fill="midnightblue" stroke="midnightblue" points="1125.67,-335.571 1122.17,-325.571 1118.67,-335.571 1125.67,-335.571"/>
</g>
</g>
</svg>
