<?xml version="1.0" encoding="UTF-8" standalone="no"?>
<!DOCTYPE svg PUBLIC "-//W3C//DTD SVG 1.1//EN"
 "http://www.w3.org/Graphics/SVG/1.1/DTD/svg11.dtd">
<!-- Generated by graphviz version 2.26.3 (20100126.1600)
 -->
<!-- Title: src/analysis/utils/TimeSmearingHack.h Pages: 1 -->
<svg width="312pt" height="188pt"
 viewBox="0.00 0.00 312.00 188.00" xmlns="http://www.w3.org/2000/svg" xmlns:xlink="http://www.w3.org/1999/xlink">
<g id="graph1" class="graph" transform="scale(1 1) rotate(0) translate(4 184)">
<title>src/analysis/utils/TimeSmearingHack.h</title>
<polygon fill="white" stroke="white" points="-4,5 -4,-184 309,-184 309,5 -4,5"/>
<!-- Node1 -->
<g id="node1" class="node"><title>Node1</title>
<polygon fill="#bfbfbf" stroke="black" points="108,-145 108,-179 222,-179 222,-145 108,-145"/>
<text text-anchor="start" x="116" y="-166" font-family="Helvetica,sans-Serif" font-size="10.00">src/analysis/utils</text>
<text text-anchor="middle" x="165" y="-153" font-family="Helvetica,sans-Serif" font-size="10.00">/TimeSmearingHack.h</text>
</g>
<!-- Node2 -->
<g id="node3" class="node"><title>Node2</title>
<a xlink:href="_m_c_reconstruct_check_8h.html" target="_top" xlink:title="src/analysis/physics\l/common/MCReconstructCheck.h">
<polygon fill="white" stroke="black" points="2,-73 2,-107 168,-107 168,-73 2,-73"/>
<text text-anchor="start" x="10" y="-94" font-family="Helvetica,sans-Serif" font-size="10.00">src/analysis/physics</text>
<text text-anchor="middle" x="85" y="-81" font-family="Helvetica,sans-Serif" font-size="10.00">/common/MCReconstructCheck.h</text>
</a>
</g>
<!-- Node1&#45;&gt;Node2 -->
<g id="edge2" class="edge"><title>Node1&#45;&gt;Node2</title>
<path fill="none" stroke="midnightblue" d="M138.557,-138.201C127.296,-128.067 114.41,-116.469 104.1,-107.19"/>
<polygon fill="midnightblue" stroke="midnightblue" points="136.267,-140.849 146.041,-144.937 140.95,-135.646 136.267,-140.849"/>
</g>
<!-- Node4 -->
<g id="node7" class="node"><title>Node4</title>
<a xlink:href="_time_smearing_hack_8cc.html" target="_top" xlink:title="src/analysis/utils\l/TimeSmearingHack.cc">
<polygon fill="white" stroke="black" points="185.5,-73 185.5,-107 304.5,-107 304.5,-73 185.5,-73"/>
<text text-anchor="start" x="193.5" y="-94" font-family="Helvetica,sans-Serif" font-size="10.00">src/analysis/utils</text>
<text text-anchor="middle" x="245" y="-81" font-family="Helvetica,sans-Serif" font-size="10.00">/TimeSmearingHack.cc</text>
</a>
</g>
<!-- Node1&#45;&gt;Node4 -->
<g id="edge6" class="edge"><title>Node1&#45;&gt;Node4</title>
<path fill="none" stroke="midnightblue" d="M191.443,-138.201C202.704,-128.067 215.59,-116.469 225.9,-107.19"/>
<polygon fill="midnightblue" stroke="midnightblue" points="189.05,-135.646 183.959,-144.937 193.733,-140.849 189.05,-135.646"/>
</g>
<!-- Node3 -->
<g id="node5" class="node"><title>Node3</title>
<a xlink:href="_m_c_reconstruct_check_8cc.html" target="_top" xlink:title="src/analysis/physics\l/common/MCReconstructCheck.cc">
<polygon fill="white" stroke="black" points="-0.5,-1 -0.5,-35 170.5,-35 170.5,-1 -0.5,-1"/>
<text text-anchor="start" x="7.5" y="-22" font-family="Helvetica,sans-Serif" font-size="10.00">src/analysis/physics</text>
<text text-anchor="middle" x="85" y="-9" font-family="Helvetica,sans-Serif" font-size="10.00">/common/MCReconstructCheck.cc</text>
</a>
</g>
<!-- Node2&#45;&gt;Node3 -->
<g id="edge4" class="edge"><title>Node2&#45;&gt;Node3</title>
<path fill="none" stroke="midnightblue" d="M85,-62.7193C85,-53.572 85,-43.6255 85,-35.4407"/>
<polygon fill="midnightblue" stroke="midnightblue" points="81.5001,-62.937 85,-72.937 88.5001,-62.937 81.5001,-62.937"/>
</g>
</g>
</svg>
