<?xml version="1.0" encoding="UTF-8" standalone="no"?>
<!DOCTYPE svg PUBLIC "-//W3C//DTD SVG 1.1//EN"
 "http://www.w3.org/Graphics/SVG/1.1/DTD/svg11.dtd">
<!-- Generated by graphviz version 2.26.3 (20100126.1600)
 -->
<!-- Title: src/analysis/utils/TimeSmearingHack.h Pages: 1 -->
<svg width="1432pt" height="406pt"
 viewBox="0.00 0.00 1431.54 406.00" xmlns="http://www.w3.org/2000/svg" xmlns:xlink="http://www.w3.org/1999/xlink">
<g id="graph1" class="graph" transform="scale(1 1) rotate(0) translate(4 402)">
<title>src/analysis/utils/TimeSmearingHack.h</title>
<polygon fill="white" stroke="white" points="-4,5 -4,-402 1428.54,-402 1428.54,5 -4,5"/>
<!-- Node1 -->
<g id="node1" class="node"><title>Node1</title>
<polygon fill="#bfbfbf" stroke="black" points="688,-363 688,-397 802,-397 802,-363 688,-363"/>
<text text-anchor="start" x="696" y="-384" font-family="Helvetica,sans-Serif" font-size="10.00">src/analysis/utils</text>
<text text-anchor="middle" x="745" y="-371" font-family="Helvetica,sans-Serif" font-size="10.00">/TimeSmearingHack.h</text>
</g>
<!-- Node2 -->
<g id="node3" class="node"><title>Node2</title>
<a xlink:href="_t_tagger_hit_8h.html" target="_top" xlink:title="tree/TTaggerHit.h">
<polygon fill="white" stroke="black" points="536.5,-304.5 536.5,-325.5 629.5,-325.5 629.5,-304.5 536.5,-304.5"/>
<text text-anchor="middle" x="583" y="-312.5" font-family="Helvetica,sans-Serif" font-size="10.00">tree/TTaggerHit.h</text>
</a>
</g>
<!-- Node1&#45;&gt;Node2 -->
<g id="edge2" class="edge"><title>Node1&#45;&gt;Node2</title>
<path fill="none" stroke="midnightblue" d="M702.436,-362.922C676.45,-352.495 643.592,-339.312 618.921,-329.413"/>
<polygon fill="midnightblue" stroke="midnightblue" points="620.148,-326.134 609.564,-325.658 617.541,-332.631 620.148,-326.134"/>
</g>
<!-- Node25 -->
<g id="node57" class="node"><title>Node25</title>
<a xlink:href="_t_candidate_8h.html" target="_top" xlink:title="tree/TCandidate.h">
<polygon fill="white" stroke="black" points="859.5,-304.5 859.5,-325.5 954.5,-325.5 954.5,-304.5 859.5,-304.5"/>
<text text-anchor="middle" x="907" y="-312.5" font-family="Helvetica,sans-Serif" font-size="10.00">tree/TCandidate.h</text>
</a>
</g>
<!-- Node1&#45;&gt;Node25 -->
<g id="edge64" class="edge"><title>Node1&#45;&gt;Node25</title>
<path fill="none" stroke="midnightblue" d="M787.564,-362.922C813.55,-352.495 846.408,-339.312 871.079,-329.413"/>
<polygon fill="midnightblue" stroke="midnightblue" points="872.459,-332.631 880.436,-325.658 869.852,-326.134 872.459,-332.631"/>
</g>
<!-- Node3 -->
<g id="node5" class="node"><title>Node3</title>
<a xlink:href="_t_i_d_8h.html" target="_top" xlink:title="TID.h">
<polygon fill="white" stroke="black" points="306.5,-246.5 306.5,-267.5 347.5,-267.5 347.5,-246.5 306.5,-246.5"/>
<text text-anchor="middle" x="327" y="-254.5" font-family="Helvetica,sans-Serif" font-size="10.00">TID.h</text>
</a>
</g>
<!-- Node2&#45;&gt;Node3 -->
<g id="edge4" class="edge"><title>Node2&#45;&gt;Node3</title>
<path fill="none" stroke="midnightblue" d="M536.121,-305.267C492.682,-296.115 426.323,-281.795 369,-268 365.34,-267.119 361.51,-266.164 357.716,-265.196"/>
<polygon fill="midnightblue" stroke="midnightblue" points="358.453,-261.771 347.895,-262.648 356.696,-268.547 358.453,-261.771"/>
</g>
<!-- Node5 -->
<g id="node9" class="node"><title>Node5</title>
<a xlink:href="printable_8h.html" target="_top" xlink:title="base/printable.h">
<polygon fill="white" stroke="black" points="660,-58.5 660,-79.5 746,-79.5 746,-58.5 660,-58.5"/>
<text text-anchor="middle" x="703" y="-66.5" font-family="Helvetica,sans-Serif" font-size="10.00">base/printable.h</text>
</a>
</g>
<!-- Node2&#45;&gt;Node5 -->
<g id="edge44" class="edge"><title>Node2&#45;&gt;Node5</title>
<path fill="none" stroke="midnightblue" d="M576.589,-304.222C558.388,-272.075 510.443,-175.412 554,-116 565.63,-100.136 611.91,-87.1614 649.843,-78.8942"/>
<polygon fill="midnightblue" stroke="midnightblue" points="650.723,-82.2857 659.782,-76.792 649.274,-75.4372 650.723,-82.2857"/>
</g>
<!-- Node11 -->
<g id="node21" class="node"><title>Node11</title>
<polygon fill="white" stroke="#bfbfbf" points="288,-58.5 288,-79.5 340,-79.5 340,-58.5 288,-58.5"/>
<text text-anchor="middle" x="314" y="-66.5" font-family="Helvetica,sans-Serif" font-size="10.00">sstream</text>
</g>
<!-- Node2&#45;&gt;Node11 -->
<g id="edge62" class="edge"><title>Node2&#45;&gt;Node11</title>
<path fill="none" stroke="midnightblue" d="M556.244,-304.407C535.595,-295.768 506.656,-282.633 483,-268 425.681,-232.544 421.847,-208.589 364,-174 329.489,-153.365 303.062,-171.617 281,-138 270.403,-121.853 282.501,-101.779 294.926,-87.4543"/>
<polygon fill="midnightblue" stroke="midnightblue" points="297.845,-89.456 302.11,-79.7573 292.728,-84.6797 297.845,-89.456"/>
</g>
<!-- Node13 -->
<g id="node25" class="node"><title>Node13</title>
<polygon fill="white" stroke="#bfbfbf" points="1149,-58.5 1149,-79.5 1193,-79.5 1193,-58.5 1149,-58.5"/>
<text text-anchor="middle" x="1171" y="-66.5" font-family="Helvetica,sans-Serif" font-size="10.00">vector</text>
</g>
<!-- Node2&#45;&gt;Node13 -->
<g id="edge58" class="edge"><title>Node2&#45;&gt;Node13</title>
<path fill="none" stroke="midnightblue" d="M629.635,-308.081C726.219,-291.965 952.113,-244.877 1108,-138 1127.91,-124.351 1145.96,-103.258 1157.58,-87.9856"/>
<polygon fill="midnightblue" stroke="midnightblue" points="1160.53,-89.89 1163.65,-79.7661 1154.9,-85.7323 1160.53,-89.89"/>
</g>
<!-- Node20 -->
<g id="node40" class="node"><title>Node20</title>
<polygon fill="white" stroke="#bfbfbf" points="563,-181.5 563,-202.5 613,-202.5 613,-181.5 563,-181.5"/>
<text text-anchor="middle" x="588" y="-189.5" font-family="Helvetica,sans-Serif" font-size="10.00">iomanip</text>
</g>
<!-- Node2&#45;&gt;Node20 -->
<g id="edge60" class="edge"><title>Node2&#45;&gt;Node20</title>
<path fill="none" stroke="midnightblue" d="M583.444,-304.085C584.276,-283.609 586.084,-239.133 587.155,-212.778"/>
<polygon fill="midnightblue" stroke="midnightblue" points="590.655,-212.849 587.564,-202.715 583.661,-212.565 590.655,-212.849"/>
</g>
<!-- Node21 -->
<g id="node44" class="node"><title>Node21</title>
<a xlink:href="_lorentz_vec_8h.html" target="_top" xlink:title="base/vec/LorentzVec.h">
<polygon fill="white" stroke="black" points="648.5,-246.5 648.5,-267.5 765.5,-267.5 765.5,-246.5 648.5,-246.5"/>
<text text-anchor="middle" x="707" y="-254.5" font-family="Helvetica,sans-Serif" font-size="10.00">base/vec/LorentzVec.h</text>
</a>
</g>
<!-- Node2&#45;&gt;Node21 -->
<g id="edge46" class="edge"><title>Node2&#45;&gt;Node21</title>
<path fill="none" stroke="midnightblue" d="M605.455,-304.497C624.91,-295.397 653.28,-282.127 675.091,-271.925"/>
<polygon fill="midnightblue" stroke="midnightblue" points="676.717,-275.028 684.293,-267.621 673.752,-268.688 676.717,-275.028"/>
</g>
<!-- Node4 -->
<g id="node7" class="node"><title>Node4</title>
<polygon fill="white" stroke="#bfbfbf" points="299,-181.5 299,-202.5 355,-202.5 355,-181.5 299,-181.5"/>
<text text-anchor="middle" x="327" y="-189.5" font-family="Helvetica,sans-Serif" font-size="10.00">Rtypes.h</text>
</g>
<!-- Node3&#45;&gt;Node4 -->
<g id="edge6" class="edge"><title>Node3&#45;&gt;Node4</title>
<path fill="none" stroke="midnightblue" d="M327,-246.267C327,-237.18 327,-223.892 327,-212.74"/>
<polygon fill="midnightblue" stroke="midnightblue" points="330.5,-212.534 327,-202.534 323.5,-212.534 330.5,-212.534"/>
</g>
<!-- Node3&#45;&gt;Node5 -->
<g id="edge8" class="edge"><title>Node3&#45;&gt;Node5</title>
<path fill="none" stroke="midnightblue" d="M340.435,-246.245C360.663,-230.151 400.272,-199.019 435,-174 472.406,-147.052 478.962,-134.926 521,-116 562.344,-97.3863 612.419,-85.133 649.57,-77.8188"/>
<polygon fill="midnightblue" stroke="midnightblue" points="650.523,-81.2003 659.688,-75.8857 649.209,-74.3246 650.523,-81.2003"/>
</g>
<!-- Node6 -->
<g id="node11" class="node"><title>Node6</title>
<polygon fill="white" stroke="#bfbfbf" points="599,-0.5 599,-21.5 661,-21.5 661,-0.5 599,-0.5"/>
<text text-anchor="middle" x="630" y="-8.5" font-family="Helvetica,sans-Serif" font-size="10.00">type_traits</text>
</g>
<!-- Node3&#45;&gt;Node6 -->
<g id="edge30" class="edge"><title>Node3&#45;&gt;Node6</title>
<path fill="none" stroke="midnightblue" d="M306.304,-253.046C271.109,-245.856 202.034,-229.559 188,-210 141.699,-145.468 220.586,-91.3954 279,-58 331.039,-28.2494 507.447,-16.5521 588.568,-12.6666"/>
<polygon fill="midnightblue" stroke="midnightblue" points="589.071,-16.1472 598.899,-12.1895 588.748,-9.15465 589.071,-16.1472"/>
</g>
<!-- Node8 -->
<g id="node15" class="node"><title>Node8</title>
<a xlink:href="time_8h.html" target="_top" xlink:title="base/std_ext/time.h">
<polygon fill="white" stroke="black" points="38.5,-181.5 38.5,-202.5 141.5,-202.5 141.5,-181.5 38.5,-181.5"/>
<text text-anchor="middle" x="90" y="-189.5" font-family="Helvetica,sans-Serif" font-size="10.00">base/std_ext/time.h</text>
</a>
</g>
<!-- Node3&#45;&gt;Node8 -->
<g id="edge14" class="edge"><title>Node3&#45;&gt;Node8</title>
<path fill="none" stroke="midnightblue" d="M306.343,-251.38C274.043,-242.586 209.62,-225.025 155,-210 149.431,-208.468 143.595,-206.858 137.801,-205.257"/>
<polygon fill="midnightblue" stroke="midnightblue" points="138.716,-201.879 128.145,-202.587 136.85,-208.626 138.716,-201.879"/>
</g>
<!-- Node15 -->
<g id="node29" class="node"><title>Node15</title>
<polygon fill="white" stroke="#bfbfbf" points="-0.5,-116.5 -0.5,-137.5 40.5,-137.5 40.5,-116.5 -0.5,-116.5"/>
<text text-anchor="middle" x="20" y="-124.5" font-family="Helvetica,sans-Serif" font-size="10.00">ctime</text>
</g>
<!-- Node3&#45;&gt;Node15 -->
<g id="edge42" class="edge"><title>Node3&#45;&gt;Node15</title>
<path fill="none" stroke="midnightblue" d="M306.309,-255.162C242.086,-249.262 49.2892,-230.017 30,-210 14.2569,-193.663 14.0114,-166.33 16.2072,-147.521"/>
<polygon fill="midnightblue" stroke="midnightblue" points="19.6765,-147.985 17.6833,-137.579 12.7525,-146.957 19.6765,-147.985"/>
</g>
<!-- Node16 -->
<g id="node32" class="node"><title>Node16</title>
<polygon fill="white" stroke="#bfbfbf" points="197,-181.5 197,-202.5 235,-202.5 235,-181.5 197,-181.5"/>
<text text-anchor="middle" x="216" y="-189.5" font-family="Helvetica,sans-Serif" font-size="10.00">tuple</text>
</g>
<!-- Node3&#45;&gt;Node16 -->
<g id="edge32" class="edge"><title>Node3&#45;&gt;Node16</title>
<path fill="none" stroke="midnightblue" d="M307.703,-246.474C290.767,-237.142 265.546,-223.012 244,-210 242.915,-209.345 241.81,-208.669 240.697,-207.983"/>
<polygon fill="midnightblue" stroke="midnightblue" points="242.517,-204.992 232.19,-202.626 238.787,-210.916 242.517,-204.992"/>
</g>
<!-- Node17 -->
<g id="node34" class="node"><title>Node17</title>
<polygon fill="white" stroke="#bfbfbf" points="563,-116.5 563,-137.5 609,-137.5 609,-116.5 563,-116.5"/>
<text text-anchor="middle" x="586" y="-124.5" font-family="Helvetica,sans-Serif" font-size="10.00">cstdint</text>
</g>
<!-- Node3&#45;&gt;Node17 -->
<g id="edge34" class="edge"><title>Node3&#45;&gt;Node17</title>
<path fill="none" stroke="midnightblue" d="M347.559,-248.716C369.479,-239.73 405.082,-224.693 435,-210 479.339,-188.224 529.304,-160.007 559.189,-142.718"/>
<polygon fill="midnightblue" stroke="midnightblue" points="561.265,-145.56 568.154,-137.511 557.749,-139.507 561.265,-145.56"/>
</g>
<!-- Node18 -->
<g id="node36" class="node"><title>Node18</title>
<polygon fill="white" stroke="#bfbfbf" points="865.5,-58.5 865.5,-79.5 924.5,-79.5 924.5,-58.5 865.5,-58.5"/>
<text text-anchor="middle" x="895" y="-66.5" font-family="Helvetica,sans-Serif" font-size="10.00">stdexcept</text>
</g>
<!-- Node3&#45;&gt;Node18 -->
<g id="edge36" class="edge"><title>Node3&#45;&gt;Node18</title>
<path fill="none" stroke="midnightblue" d="M347.685,-256.356C438.366,-253.364 798.048,-239.695 838,-210 876.691,-181.243 889.186,-121.785 893.171,-90.0453"/>
<polygon fill="midnightblue" stroke="midnightblue" points="896.693,-90.032 894.287,-79.714 889.733,-89.2803 896.693,-90.032"/>
</g>
<!-- Node19 -->
<g id="node38" class="node"><title>Node19</title>
<polygon fill="white" stroke="#bfbfbf" points="252.5,-181.5 252.5,-202.5 281.5,-202.5 281.5,-181.5 252.5,-181.5"/>
<text text-anchor="middle" x="267" y="-189.5" font-family="Helvetica,sans-Serif" font-size="10.00">list</text>
</g>
<!-- Node3&#45;&gt;Node19 -->
<g id="edge38" class="edge"><title>Node3&#45;&gt;Node19</title>
<path fill="none" stroke="midnightblue" d="M317.092,-246.267C308.006,-236.423 294.367,-221.648 283.615,-210"/>
<polygon fill="midnightblue" stroke="midnightblue" points="286.078,-207.508 276.723,-202.534 280.934,-212.256 286.078,-207.508"/>
</g>
<!-- Node3&#45;&gt;Node20 -->
<g id="edge40" class="edge"><title>Node3&#45;&gt;Node20</title>
<path fill="none" stroke="midnightblue" d="M347.918,-251.791C392.579,-240.668 497.67,-214.496 552.815,-200.763"/>
<polygon fill="midnightblue" stroke="midnightblue" points="553.967,-204.083 562.825,-198.27 552.276,-197.29 553.967,-204.083"/>
</g>
<!-- Node5&#45;&gt;Node6 -->
<g id="edge10" class="edge"><title>Node5&#45;&gt;Node6</title>
<path fill="none" stroke="midnightblue" d="M689.611,-58.3619C678.909,-49.859 663.704,-37.7785 651.329,-27.9466"/>
<polygon fill="midnightblue" stroke="midnightblue" points="653.311,-25.0511 643.304,-21.5707 648.957,-30.5318 653.311,-25.0511"/>
</g>
<!-- Node7 -->
<g id="node13" class="node"><title>Node7</title>
<polygon fill="white" stroke="#bfbfbf" points="679,-0.5 679,-21.5 731,-21.5 731,-0.5 679,-0.5"/>
<text text-anchor="middle" x="705" y="-8.5" font-family="Helvetica,sans-Serif" font-size="10.00">ostream</text>
</g>
<!-- Node5&#45;&gt;Node7 -->
<g id="edge12" class="edge"><title>Node5&#45;&gt;Node7</title>
<path fill="none" stroke="midnightblue" d="M703.367,-58.3619C703.623,-50.9219 703.974,-40.7427 704.285,-31.7276"/>
<polygon fill="midnightblue" stroke="midnightblue" points="707.789,-31.6854 704.635,-21.5707 700.793,-31.4441 707.789,-31.6854"/>
</g>
<!-- Node9 -->
<g id="node17" class="node"><title>Node9</title>
<a xlink:href="string_8h.html" target="_top" xlink:title="base/std_ext/string.h">
<polygon fill="white" stroke="black" points="361,-116.5 361,-137.5 469,-137.5 469,-116.5 361,-116.5"/>
<text text-anchor="middle" x="415" y="-124.5" font-family="Helvetica,sans-Serif" font-size="10.00">base/std_ext/string.h</text>
</a>
</g>
<!-- Node8&#45;&gt;Node9 -->
<g id="edge16" class="edge"><title>Node8&#45;&gt;Node9</title>
<path fill="none" stroke="midnightblue" d="M141.857,-181.629C199.066,-170.187 291.119,-151.776 352.326,-139.535"/>
<polygon fill="midnightblue" stroke="midnightblue" points="353.131,-142.943 362.25,-137.55 351.758,-136.079 353.131,-142.943"/>
</g>
<!-- Node14 -->
<g id="node27" class="node"><title>Node14</title>
<polygon fill="white" stroke="#bfbfbf" points="67,-116.5 67,-137.5 113,-137.5 113,-116.5 67,-116.5"/>
<text text-anchor="middle" x="90" y="-124.5" font-family="Helvetica,sans-Serif" font-size="10.00">cstring</text>
</g>
<!-- Node8&#45;&gt;Node14 -->
<g id="edge26" class="edge"><title>Node8&#45;&gt;Node14</title>
<path fill="none" stroke="midnightblue" d="M90,-181.267C90,-172.18 90,-158.892 90,-147.74"/>
<polygon fill="midnightblue" stroke="midnightblue" points="93.5001,-147.534 90,-137.534 86.5001,-147.534 93.5001,-147.534"/>
</g>
<!-- Node8&#45;&gt;Node15 -->
<g id="edge28" class="edge"><title>Node8&#45;&gt;Node15</title>
<path fill="none" stroke="midnightblue" d="M78.4409,-181.267C67.7379,-171.328 51.6222,-156.363 39.0233,-144.664"/>
<polygon fill="midnightblue" stroke="midnightblue" points="41.0535,-141.773 31.344,-137.534 36.2904,-146.903 41.0535,-141.773"/>
</g>
<!-- Node10 -->
<g id="node19" class="node"><title>Node10</title>
<polygon fill="white" stroke="#bfbfbf" points="478.5,-58.5 478.5,-79.5 519.5,-79.5 519.5,-58.5 478.5,-58.5"/>
<text text-anchor="middle" x="499" y="-66.5" font-family="Helvetica,sans-Serif" font-size="10.00">string</text>
</g>
<!-- Node9&#45;&gt;Node10 -->
<g id="edge18" class="edge"><title>Node9&#45;&gt;Node10</title>
<path fill="none" stroke="midnightblue" d="M430.407,-116.362C442.958,-107.696 460.892,-95.3126 475.275,-85.3819"/>
<polygon fill="midnightblue" stroke="midnightblue" points="477.45,-88.1327 483.691,-79.5707 473.473,-82.3725 477.45,-88.1327"/>
</g>
<!-- Node9&#45;&gt;Node11 -->
<g id="edge20" class="edge"><title>Node9&#45;&gt;Node11</title>
<path fill="none" stroke="midnightblue" d="M396.475,-116.362C381.099,-107.532 359.004,-94.844 341.553,-84.8224"/>
<polygon fill="midnightblue" stroke="midnightblue" points="342.822,-81.5154 332.408,-79.5707 339.336,-87.5857 342.822,-81.5154"/>
</g>
<!-- Node12 -->
<g id="node23" class="node"><title>Node12</title>
<polygon fill="white" stroke="#bfbfbf" points="942,-58.5 942,-79.5 998,-79.5 998,-58.5 942,-58.5"/>
<text text-anchor="middle" x="970" y="-66.5" font-family="Helvetica,sans-Serif" font-size="10.00">algorithm</text>
</g>
<!-- Node9&#45;&gt;Node12 -->
<g id="edge22" class="edge"><title>Node9&#45;&gt;Node12</title>
<path fill="none" stroke="midnightblue" d="M469.361,-122.683C586.776,-113.275 858.782,-90.9991 931.889,-79.7071"/>
<polygon fill="midnightblue" stroke="midnightblue" points="932.599,-83.1366 941.861,-77.9927 931.412,-76.2378 932.599,-83.1366"/>
</g>
<!-- Node9&#45;&gt;Node13 -->
<g id="edge24" class="edge"><title>Node9&#45;&gt;Node13</title>
<path fill="none" stroke="midnightblue" d="M469.116,-122.547C494.827,-120.475 525.993,-118.026 554,-116 797.887,-98.3543 860.033,-107.555 1103,-80 1114.74,-78.669 1127.54,-76.7277 1138.84,-74.8452"/>
<polygon fill="midnightblue" stroke="midnightblue" points="1139.45,-78.291 1148.72,-73.152 1138.27,-71.3915 1139.45,-78.291"/>
</g>
<!-- Node22 -->
<g id="node46" class="node"><title>Node22</title>
<a xlink:href="vec3_8h.html" target="_top" xlink:title="base/vec/vec3.h">
<polygon fill="white" stroke="black" points="740.5,-116.5 740.5,-137.5 829.5,-137.5 829.5,-116.5 740.5,-116.5"/>
<text text-anchor="middle" x="785" y="-124.5" font-family="Helvetica,sans-Serif" font-size="10.00">base/vec/vec3.h</text>
</a>
</g>
<!-- Node21&#45;&gt;Node22 -->
<g id="edge48" class="edge"><title>Node21&#45;&gt;Node22</title>
<path fill="none" stroke="midnightblue" d="M707.226,-246.46C708.037,-229.828 711.515,-197.022 726,-174 733.78,-161.634 745.984,-151.12 757.279,-143.192"/>
<polygon fill="midnightblue" stroke="midnightblue" points="759.247,-146.087 765.65,-137.646 755.381,-140.251 759.247,-146.087"/>
</g>
<!-- Node22&#45;&gt;Node5 -->
<g id="edge50" class="edge"><title>Node22&#45;&gt;Node5</title>
<path fill="none" stroke="midnightblue" d="M769.96,-116.362C757.707,-107.696 740.201,-95.3126 726.161,-85.3819"/>
<polygon fill="midnightblue" stroke="midnightblue" points="728.13,-82.4879 717.945,-79.5707 724.088,-88.2028 728.13,-82.4879"/>
</g>
<!-- Node23 -->
<g id="node49" class="node"><title>Node23</title>
<a xlink:href="vec2_8h.html" target="_top" xlink:title="vec2.h">
<polygon fill="white" stroke="black" points="764,-58.5 764,-79.5 810,-79.5 810,-58.5 764,-58.5"/>
<text text-anchor="middle" x="787" y="-66.5" font-family="Helvetica,sans-Serif" font-size="10.00">vec2.h</text>
</a>
</g>
<!-- Node22&#45;&gt;Node23 -->
<g id="edge52" class="edge"><title>Node22&#45;&gt;Node23</title>
<path fill="none" stroke="midnightblue" d="M785.367,-116.362C785.623,-108.922 785.974,-98.7427 786.285,-89.7276"/>
<polygon fill="midnightblue" stroke="midnightblue" points="789.789,-89.6854 786.635,-79.5707 782.793,-89.4441 789.789,-89.6854"/>
</g>
<!-- Node24 -->
<g id="node51" class="node"><title>Node24</title>
<polygon fill="white" stroke="#bfbfbf" points="910,-0.5 910,-21.5 954,-21.5 954,-0.5 910,-0.5"/>
<text text-anchor="middle" x="932" y="-8.5" font-family="Helvetica,sans-Serif" font-size="10.00">cmath</text>
</g>
<!-- Node22&#45;&gt;Node24 -->
<g id="edge56" class="edge"><title>Node22&#45;&gt;Node24</title>
<path fill="none" stroke="midnightblue" d="M794.658,-116.484C807.947,-102.319 832.965,-76.7297 857,-58 871.715,-46.533 889.341,-35.3717 903.808,-26.8051"/>
<polygon fill="midnightblue" stroke="midnightblue" points="905.914,-29.6289 912.796,-21.5732 902.392,-23.5792 905.914,-29.6289"/>
</g>
<!-- Node23&#45;&gt;Node24 -->
<g id="edge54" class="edge"><title>Node23&#45;&gt;Node24</title>
<path fill="none" stroke="midnightblue" d="M810.297,-59.6813C834.681,-49.9276 873.125,-34.5499 900.271,-23.6917"/>
<polygon fill="midnightblue" stroke="midnightblue" points="901.729,-26.8782 909.713,-19.9146 899.129,-20.3789 901.729,-26.8782"/>
</g>
<!-- Node25&#45;&gt;Node11 -->
<g id="edge126" class="edge"><title>Node25&#45;&gt;Node11</title>
<path fill="none" stroke="midnightblue" d="M859.436,-311.326C800.731,-305.895 698.329,-293.487 614,-268 605.671,-265.483 334.461,-144.774 329,-138 318.087,-124.462 314.662,-104.743 313.778,-89.849"/>
<polygon fill="midnightblue" stroke="midnightblue" points="317.27,-89.489 313.515,-79.582 310.272,-89.6684 317.27,-89.489"/>
</g>
<!-- Node25&#45;&gt;Node12 -->
<g id="edge130" class="edge"><title>Node25&#45;&gt;Node12</title>
<path fill="none" stroke="midnightblue" d="M908.901,-304.072C914.285,-273.813 930.645,-186.513 952,-116 954.707,-107.062 958.291,-97.3958 961.548,-89.1665"/>
<polygon fill="midnightblue" stroke="midnightblue" points="964.883,-90.2564 965.408,-79.6746 958.398,-87.6195 964.883,-90.2564"/>
</g>
<!-- Node25&#45;&gt;Node13 -->
<g id="edge122" class="edge"><title>Node25&#45;&gt;Node13</title>
<path fill="none" stroke="midnightblue" d="M954.792,-310.915C1039.45,-303.331 1212.27,-286.184 1270,-268 1323.09,-251.278 1343.14,-250.806 1381,-210 1410.92,-177.75 1439.97,-149.953 1412,-116 1398.8,-99.9823 1266.23,-81.1375 1203.53,-73.035"/>
<polygon fill="midnightblue" stroke="midnightblue" points="1203.75,-69.5347 1193.39,-71.7392 1202.87,-76.4783 1203.75,-69.5347"/>
</g>
<!-- Node25&#45;&gt;Node20 -->
<g id="edge124" class="edge"><title>Node25&#45;&gt;Node20</title>
<path fill="none" stroke="midnightblue" d="M859.234,-311.048C792.489,-304.784 675.507,-290.884 640,-268 619.218,-254.606 604.568,-229.66 596.226,-212.007"/>
<polygon fill="midnightblue" stroke="midnightblue" points="599.304,-210.314 592.044,-202.598 592.907,-213.157 599.304,-210.314"/>
</g>
<!-- Node26 -->
<g id="node59" class="node"><title>Node26</title>
<a xlink:href="_t_cluster_8h.html" target="_top" xlink:title="TCluster.h">
<polygon fill="white" stroke="black" points="999,-246.5 999,-267.5 1061,-267.5 1061,-246.5 999,-246.5"/>
<text text-anchor="middle" x="1030" y="-254.5" font-family="Helvetica,sans-Serif" font-size="10.00">TCluster.h</text>
</a>
</g>
<!-- Node25&#45;&gt;Node26 -->
<g id="edge66" class="edge"><title>Node25&#45;&gt;Node26</title>
<path fill="none" stroke="midnightblue" d="M929.274,-304.497C948.572,-295.397 976.713,-282.127 998.348,-271.925"/>
<polygon fill="midnightblue" stroke="midnightblue" points="999.924,-275.052 1007.48,-267.621 996.938,-268.721 999.924,-275.052"/>
</g>
<!-- Node27 -->
<g id="node61" class="node"><title>Node27</title>
<a xlink:href="_detector__t_8h.html" target="_top" xlink:title="base/Detector_t.h">
<polygon fill="white" stroke="black" points="734.5,-181.5 734.5,-202.5 829.5,-202.5 829.5,-181.5 734.5,-181.5"/>
<text text-anchor="middle" x="782" y="-189.5" font-family="Helvetica,sans-Serif" font-size="10.00">base/Detector_t.h</text>
</a>
</g>
<!-- Node25&#45;&gt;Node27 -->
<g id="edge120" class="edge"><title>Node25&#45;&gt;Node27</title>
<path fill="none" stroke="midnightblue" d="M895.907,-304.085C874.356,-282.878 826.64,-235.925 800.319,-210.026"/>
<polygon fill="midnightblue" stroke="midnightblue" points="802.472,-207.234 792.89,-202.715 797.563,-212.224 802.472,-207.234"/>
</g>
<!-- Node31 -->
<g id="node82" class="node"><title>Node31</title>
<polygon fill="white" stroke="#bfbfbf" points="1351,-116.5 1351,-137.5 1403,-137.5 1403,-116.5 1351,-116.5"/>
<text text-anchor="middle" x="1377" y="-124.5" font-family="Helvetica,sans-Serif" font-size="10.00">memory</text>
</g>
<!-- Node25&#45;&gt;Node31 -->
<g id="edge128" class="edge"><title>Node25&#45;&gt;Node31</title>
<path fill="none" stroke="midnightblue" d="M954.698,-310.321C1058.99,-299.112 1302.52,-267.311 1359,-210 1375.1,-193.659 1378.28,-166.522 1378.3,-147.748"/>
<polygon fill="midnightblue" stroke="midnightblue" points="1381.79,-147.452 1378,-137.558 1374.79,-147.656 1381.79,-147.452"/>
</g>
<!-- Node26&#45;&gt;Node11 -->
<g id="edge116" class="edge"><title>Node26&#45;&gt;Node11</title>
<path fill="none" stroke="midnightblue" d="M998.561,-254.024C942.975,-248.347 823.962,-234.318 726,-210 678.528,-198.216 669.593,-185.289 622,-174 504.207,-146.059 451.919,-206.354 352,-138 335.401,-126.644 325.333,-105.565 319.77,-89.6812"/>
<polygon fill="midnightblue" stroke="midnightblue" points="322.965,-88.1777 316.613,-79.6981 316.291,-90.2881 322.965,-88.1777"/>
</g>
<!-- Node26&#45;&gt;Node13 -->
<g id="edge110" class="edge"><title>Node26&#45;&gt;Node13</title>
<path fill="none" stroke="midnightblue" d="M1061.02,-254.393C1118.3,-249.029 1237.75,-235.104 1270,-210 1305.06,-182.709 1329.65,-152.272 1304,-116 1292.13,-99.2121 1238.6,-84.2255 1203.18,-75.9004"/>
<polygon fill="midnightblue" stroke="midnightblue" points="1203.81,-72.453 1193.28,-73.6345 1202.24,-79.2767 1203.81,-72.453"/>
</g>
<!-- Node26&#45;&gt;Node20 -->
<g id="edge114" class="edge"><title>Node26&#45;&gt;Node20</title>
<path fill="none" stroke="midnightblue" d="M998.775,-254.64C916.825,-248.243 697.095,-229.721 627,-210 623.77,-209.091 620.47,-207.946 617.225,-206.675"/>
<polygon fill="midnightblue" stroke="midnightblue" points="618.347,-203.347 607.779,-202.597 615.573,-209.774 618.347,-203.347"/>
</g>
<!-- Node26&#45;&gt;Node22 -->
<g id="edge108" class="edge"><title>Node26&#45;&gt;Node22</title>
<path fill="none" stroke="midnightblue" d="M1009.95,-246.362C966.683,-223.403 864.403,-169.132 814.043,-142.411"/>
<polygon fill="midnightblue" stroke="midnightblue" points="815.457,-139.199 804.983,-137.603 812.176,-145.382 815.457,-139.199"/>
</g>
<!-- Node26&#45;&gt;Node24 -->
<g id="edge112" class="edge"><title>Node26&#45;&gt;Node24</title>
<path fill="none" stroke="midnightblue" d="M1061.06,-255.602C1133.06,-251.883 1308.99,-239.915 1359,-210 1400.16,-185.38 1441.05,-154.162 1412,-116 1357.15,-43.9537 1063.19,-19.1919 964.403,-12.8367"/>
<polygon fill="midnightblue" stroke="midnightblue" points="964.337,-9.32592 954.139,-12.198 963.902,-16.3124 964.337,-9.32592"/>
</g>
<!-- Node26&#45;&gt;Node27 -->
<g id="edge68" class="edge"><title>Node26&#45;&gt;Node27</title>
<path fill="none" stroke="midnightblue" d="M998.796,-249.569C961.589,-240.613 897.574,-224.904 843,-210 837.674,-208.546 832.102,-206.973 826.582,-205.383"/>
<polygon fill="midnightblue" stroke="midnightblue" points="827.349,-201.961 816.769,-202.525 825.392,-208.682 827.349,-201.961"/>
</g>
<!-- Node28 -->
<g id="node65" class="node"><title>Node28</title>
<a xlink:href="math_8h.html" target="_top" xlink:title="base/std_ext/math.h">
<polygon fill="white" stroke="black" points="961,-116.5 961,-137.5 1067,-137.5 1067,-116.5 961,-116.5"/>
<text text-anchor="middle" x="1014" y="-124.5" font-family="Helvetica,sans-Serif" font-size="10.00">base/std_ext/math.h</text>
</a>
</g>
<!-- Node26&#45;&gt;Node28 -->
<g id="edge96" class="edge"><title>Node26&#45;&gt;Node28</title>
<path fill="none" stroke="midnightblue" d="M1028.69,-246.362C1026.04,-224.841 1020.01,-175.807 1016.55,-147.74"/>
<polygon fill="midnightblue" stroke="midnightblue" points="1020.02,-147.283 1015.33,-137.785 1013.08,-148.138 1020.02,-147.283"/>
</g>
<!-- Node30 -->
<g id="node79" class="node"><title>Node30</title>
<a xlink:href="shared__ptr__container_8h.html" target="_top" xlink:title="base/std_ext/shared\l_ptr_container.h">
<polygon fill="white" stroke="black" points="1156.5,-175 1156.5,-209 1261.5,-209 1261.5,-175 1156.5,-175"/>
<text text-anchor="start" x="1164.5" y="-196" font-family="Helvetica,sans-Serif" font-size="10.00">base/std_ext/shared</text>
<text text-anchor="middle" x="1209" y="-183" font-family="Helvetica,sans-Serif" font-size="10.00">_ptr_container.h</text>
</a>
</g>
<!-- Node26&#45;&gt;Node30 -->
<g id="edge98" class="edge"><title>Node26&#45;&gt;Node30</title>
<path fill="none" stroke="midnightblue" d="M1059.16,-246.412C1084.39,-237.251 1121.59,-223.742 1152.61,-212.477"/>
<polygon fill="midnightblue" stroke="midnightblue" points="1153.81,-215.763 1162.02,-209.06 1151.42,-209.184 1153.81,-215.763"/>
</g>
<!-- Node26&#45;&gt;Node31 -->
<g id="edge118" class="edge"><title>Node26&#45;&gt;Node31</title>
<path fill="none" stroke="midnightblue" d="M1061.19,-255.558C1129.11,-251.88 1287.75,-240.215 1331,-210 1352.42,-195.033 1364.96,-166.747 1371.4,-147.394"/>
<polygon fill="midnightblue" stroke="midnightblue" points="1374.78,-148.289 1374.36,-137.703 1368.09,-146.241 1374.78,-148.289"/>
</g>
<!-- Node27&#45;&gt;Node5 -->
<g id="edge70" class="edge"><title>Node27&#45;&gt;Node5</title>
<path fill="none" stroke="midnightblue" d="M770.014,-181.388C759.001,-171.142 742.796,-154.754 732,-138 722.241,-122.855 714.546,-103.874 709.542,-89.6553"/>
<polygon fill="midnightblue" stroke="midnightblue" points="712.752,-88.2187 706.25,-79.853 706.116,-90.447 712.752,-88.2187"/>
</g>
<!-- Node27&#45;&gt;Node6 -->
<g id="edge92" class="edge"><title>Node27&#45;&gt;Node6</title>
<path fill="none" stroke="midnightblue" d="M763.78,-181.413C735.357,-163.952 680.657,-126.387 651,-80 641.54,-65.2039 636.143,-45.9102 633.195,-31.4878"/>
<polygon fill="midnightblue" stroke="midnightblue" points="636.624,-30.7771 631.393,-21.5637 629.736,-32.0282 636.624,-30.7771"/>
</g>
<!-- Node27&#45;&gt;Node10 -->
<g id="edge90" class="edge"><title>Node27&#45;&gt;Node10</title>
<path fill="none" stroke="midnightblue" d="M757.259,-181.417C732.679,-170.796 693.993,-153.789 661,-138 641.636,-128.733 637.562,-124.842 618,-116 588.291,-102.571 553.53,-89.0907 529.277,-80.0325"/>
<polygon fill="midnightblue" stroke="midnightblue" points="530.485,-76.7474 519.892,-76.552 528.051,-83.3106 530.485,-76.7474"/>
</g>
<!-- Node27&#45;&gt;Node13 -->
<g id="edge94" class="edge"><title>Node27&#45;&gt;Node13</title>
<path fill="none" stroke="midnightblue" d="M829.731,-185.855C901.233,-176.209 1032.41,-156.68 1076,-138 1105.41,-125.396 1134.47,-102.309 1152.55,-86.3316"/>
<polygon fill="midnightblue" stroke="midnightblue" points="1154.98,-88.8565 1160.05,-79.5543 1150.28,-83.6635 1154.98,-88.8565"/>
</g>
<!-- Node27&#45;&gt;Node17 -->
<g id="edge86" class="edge"><title>Node27&#45;&gt;Node17</title>
<path fill="none" stroke="midnightblue" d="M750.073,-181.412C713.882,-169.41 655.189,-149.945 618.687,-137.84"/>
<polygon fill="midnightblue" stroke="midnightblue" points="619.61,-134.459 609.017,-134.633 617.407,-141.103 619.61,-134.459"/>
</g>
<!-- Node27&#45;&gt;Node18 -->
<g id="edge88" class="edge"><title>Node27&#45;&gt;Node18</title>
<path fill="none" stroke="midnightblue" d="M793.962,-181.202C805.568,-170.557 823.501,-153.657 838,-138 853.212,-121.573 869.358,-101.778 880.567,-87.6105"/>
<polygon fill="midnightblue" stroke="midnightblue" points="883.436,-89.6247 886.856,-79.5972 877.929,-85.3031 883.436,-89.6247"/>
</g>
<!-- Node27&#45;&gt;Node22 -->
<g id="edge72" class="edge"><title>Node27&#45;&gt;Node22</title>
<path fill="none" stroke="midnightblue" d="M782.495,-181.267C782.915,-172.18 783.528,-158.892 784.043,-147.74"/>
<polygon fill="midnightblue" stroke="midnightblue" points="787.549,-147.684 784.514,-137.534 780.556,-147.362 787.549,-147.684"/>
</g>
<!-- Node27&#45;&gt;Node28 -->
<g id="edge74" class="edge"><title>Node27&#45;&gt;Node28</title>
<path fill="none" stroke="midnightblue" d="M819.533,-181.484C859.628,-170.251 923.268,-152.421 966.748,-140.239"/>
<polygon fill="midnightblue" stroke="midnightblue" points="967.836,-143.569 976.521,-137.501 965.948,-136.828 967.836,-143.569"/>
</g>
<!-- Node28&#45;&gt;Node12 -->
<g id="edge82" class="edge"><title>Node28&#45;&gt;Node12</title>
<path fill="none" stroke="midnightblue" d="M1005.93,-116.362C999.851,-108.35 991.363,-97.1605 984.163,-87.6696"/>
<polygon fill="midnightblue" stroke="midnightblue" points="986.851,-85.4222 978.019,-79.5707 981.275,-89.653 986.851,-85.4222"/>
</g>
<!-- Node28&#45;&gt;Node13 -->
<g id="edge80" class="edge"><title>Node28&#45;&gt;Node13</title>
<path fill="none" stroke="midnightblue" d="M1042.43,-116.497C1069.78,-106.393 1111.05,-91.1481 1139.41,-80.67"/>
<polygon fill="midnightblue" stroke="midnightblue" points="1140.69,-83.9274 1148.86,-77.1788 1138.27,-77.3611 1140.69,-83.9274"/>
</g>
<!-- Node28&#45;&gt;Node18 -->
<g id="edge84" class="edge"><title>Node28&#45;&gt;Node18</title>
<path fill="none" stroke="midnightblue" d="M992.45,-116.497C973.864,-107.438 946.798,-94.2462 925.905,-84.0628"/>
<polygon fill="midnightblue" stroke="midnightblue" points="927.314,-80.8563 916.792,-79.6212 924.247,-87.1487 927.314,-80.8563"/>
</g>
<!-- Node28&#45;&gt;Node24 -->
<g id="edge76" class="edge"><title>Node28&#45;&gt;Node24</title>
<path fill="none" stroke="midnightblue" d="M1015.65,-116.27C1017.3,-101.863 1018.19,-75.999 1007,-58 996.992,-41.8959 979.208,-30.397 963.468,-22.8052"/>
<polygon fill="midnightblue" stroke="midnightblue" points="964.578,-19.4673 954.02,-18.5769 961.718,-25.8566 964.578,-19.4673"/>
</g>
<!-- Node29 -->
<g id="node68" class="node"><title>Node29</title>
<polygon fill="white" stroke="#bfbfbf" points="1054,-58.5 1054,-79.5 1094,-79.5 1094,-58.5 1054,-58.5"/>
<text text-anchor="middle" x="1074" y="-66.5" font-family="Helvetica,sans-Serif" font-size="10.00">limits</text>
</g>
<!-- Node28&#45;&gt;Node29 -->
<g id="edge78" class="edge"><title>Node28&#45;&gt;Node29</title>
<path fill="none" stroke="midnightblue" d="M1025,-116.362C1033.55,-108.104 1045.58,-96.4725 1055.58,-86.8029"/>
<polygon fill="midnightblue" stroke="midnightblue" points="1058.31,-89.0374 1063.06,-79.5707 1053.44,-84.0044 1058.31,-89.0374"/>
</g>
<!-- Node30&#45;&gt;Node12 -->
<g id="edge106" class="edge"><title>Node30&#45;&gt;Node12</title>
<path fill="none" stroke="midnightblue" d="M1181.17,-174.995C1154.58,-159.005 1113.14,-134.784 1076,-116 1052.89,-104.314 1026.25,-92.5052 1005.45,-83.6479"/>
<polygon fill="midnightblue" stroke="midnightblue" points="1006.62,-80.3429 996.046,-79.6739 1003.89,-86.7907 1006.62,-80.3429"/>
</g>
<!-- Node30&#45;&gt;Node13 -->
<g id="edge100" class="edge"><title>Node30&#45;&gt;Node13</title>
<path fill="none" stroke="midnightblue" d="M1203.72,-174.897C1196.82,-152.573 1184.76,-113.535 1177.37,-89.605"/>
<polygon fill="midnightblue" stroke="midnightblue" points="1180.63,-88.3087 1174.33,-79.7875 1173.94,-90.375 1180.63,-88.3087"/>
</g>
<!-- Node30&#45;&gt;Node31 -->
<g id="edge102" class="edge"><title>Node30&#45;&gt;Node31</title>
<path fill="none" stroke="midnightblue" d="M1253.14,-174.922C1280.73,-164.249 1315.78,-150.687 1341.55,-140.717"/>
<polygon fill="midnightblue" stroke="midnightblue" points="1342.87,-143.958 1350.93,-137.085 1340.35,-137.429 1342.87,-143.958"/>
</g>
<!-- Node32 -->
<g id="node84" class="node"><title>Node32</title>
<polygon fill="white" stroke="#bfbfbf" points="1236.5,-116.5 1236.5,-137.5 1295.5,-137.5 1295.5,-116.5 1236.5,-116.5"/>
<text text-anchor="middle" x="1266" y="-124.5" font-family="Helvetica,sans-Serif" font-size="10.00">functional</text>
</g>
<!-- Node30&#45;&gt;Node32 -->
<g id="edge104" class="edge"><title>Node30&#45;&gt;Node32</title>
<path fill="none" stroke="midnightblue" d="M1223.98,-174.922C1231.94,-165.845 1241.73,-154.679 1249.86,-145.41"/>
<polygon fill="midnightblue" stroke="midnightblue" points="1252.52,-147.678 1256.48,-137.852 1247.26,-143.063 1252.52,-147.678"/>
</g>
</g>
</svg>
