<?xml version="1.0" encoding="UTF-8" standalone="no"?>
<!DOCTYPE svg PUBLIC "-//W3C//DTD SVG 1.1//EN"
 "http://www.w3.org/Graphics/SVG/1.1/DTD/svg11.dtd">
<!-- Generated by graphviz version 2.26.3 (20100126.1600)
 -->
<!-- Title: src/analysis/input/goat/detail/TrackInput.h Pages: 1 -->
<svg width="292pt" height="160pt"
 viewBox="0.00 0.00 292.00 160.00" xmlns="http://www.w3.org/2000/svg" xmlns:xlink="http://www.w3.org/1999/xlink">
<g id="graph1" class="graph" transform="scale(1 1) rotate(0) translate(4 156)">
<title>src/analysis/input/goat/detail/TrackInput.h</title>
<polygon fill="white" stroke="white" points="-4,5 -4,-156 289,-156 289,5 -4,5"/>
<!-- Node1 -->
<g id="node1" class="node"><title>Node1</title>
<polygon fill="#bfbfbf" stroke="black" points="97,-117 97,-151 219,-151 219,-117 97,-117"/>
<text text-anchor="start" x="105" y="-138" font-family="Helvetica,sans-Serif" font-size="10.00">src/analysis/input</text>
<text text-anchor="middle" x="158" y="-125" font-family="Helvetica,sans-Serif" font-size="10.00">/goat/detail/TrackInput.h</text>
</g>
<!-- Node2 -->
<g id="node3" class="node"><title>Node2</title>
<a xlink:href="_input_module_8h.html" target="_top" xlink:title="InputModule.h">
<polygon fill="white" stroke="black" points="0,-58.5 0,-79.5 78,-79.5 78,-58.5 0,-58.5"/>
<text text-anchor="middle" x="39" y="-66.5" font-family="Helvetica,sans-Serif" font-size="10.00">InputModule.h</text>
</a>
</g>
<!-- Node1&#45;&gt;Node2 -->
<g id="edge2" class="edge"><title>Node1&#45;&gt;Node2</title>
<path fill="none" stroke="midnightblue" d="M126.734,-116.922C108.321,-106.864 85.2114,-94.2415 67.3329,-84.476"/>
<polygon fill="midnightblue" stroke="midnightblue" points="68.967,-81.3805 58.513,-79.6584 65.6114,-87.5238 68.967,-81.3805"/>
</g>
<!-- Node4 -->
<g id="node7" class="node"><title>Node4</title>
<polygon fill="white" stroke="#bfbfbf" points="96,-58.5 96,-79.5 152,-79.5 152,-58.5 96,-58.5"/>
<text text-anchor="middle" x="124" y="-66.5" font-family="Helvetica,sans-Serif" font-size="10.00">Rtypes.h</text>
</g>
<!-- Node1&#45;&gt;Node4 -->
<g id="edge6" class="edge"><title>Node1&#45;&gt;Node4</title>
<path fill="none" stroke="midnightblue" d="M149.067,-116.922C144.559,-108.304 139.066,-97.8018 134.372,-88.8282"/>
<polygon fill="midnightblue" stroke="midnightblue" points="137.413,-87.0908 129.676,-79.8521 131.21,-90.3353 137.413,-87.0908"/>
</g>
<!-- Node5 -->
<g id="node9" class="node"><title>Node5</title>
<polygon fill="white" stroke="#bfbfbf" points="170,-58.5 170,-79.5 214,-79.5 214,-58.5 170,-58.5"/>
<text text-anchor="middle" x="192" y="-66.5" font-family="Helvetica,sans-Serif" font-size="10.00">vector</text>
</g>
<!-- Node1&#45;&gt;Node5 -->
<g id="edge8" class="edge"><title>Node1&#45;&gt;Node5</title>
<path fill="none" stroke="midnightblue" d="M166.933,-116.922C171.441,-108.304 176.934,-97.8018 181.628,-88.8282"/>
<polygon fill="midnightblue" stroke="midnightblue" points="184.79,-90.3353 186.324,-79.8521 178.587,-87.0908 184.79,-90.3353"/>
</g>
<!-- Node6 -->
<g id="node11" class="node"><title>Node6</title>
<polygon fill="white" stroke="#bfbfbf" points="231.5,-58.5 231.5,-79.5 284.5,-79.5 284.5,-58.5 231.5,-58.5"/>
<text text-anchor="middle" x="258" y="-66.5" font-family="Helvetica,sans-Serif" font-size="10.00">TMath.h</text>
</g>
<!-- Node1&#45;&gt;Node6 -->
<g id="edge10" class="edge"><title>Node1&#45;&gt;Node6</title>
<path fill="none" stroke="midnightblue" d="M184.274,-116.922C199.321,-107.141 218.101,-94.9344 232.941,-85.2887"/>
<polygon fill="midnightblue" stroke="midnightblue" points="235.126,-88.0429 241.603,-79.6584 231.311,-82.1737 235.126,-88.0429"/>
</g>
<!-- Node3 -->
<g id="node5" class="node"><title>Node3</title>
<polygon fill="white" stroke="#bfbfbf" points="18.5,-0.5 18.5,-21.5 59.5,-21.5 59.5,-0.5 18.5,-0.5"/>
<text text-anchor="middle" x="39" y="-8.5" font-family="Helvetica,sans-Serif" font-size="10.00">string</text>
</g>
<!-- Node2&#45;&gt;Node3 -->
<g id="edge4" class="edge"><title>Node2&#45;&gt;Node3</title>
<path fill="none" stroke="midnightblue" d="M39,-58.3619C39,-50.9219 39,-40.7427 39,-31.7276"/>
<polygon fill="midnightblue" stroke="midnightblue" points="42.5001,-31.5706 39,-21.5707 35.5001,-31.5707 42.5001,-31.5706"/>
</g>
</g>
</svg>
