<?xml version="1.0" encoding="UTF-8" standalone="no"?>
<!DOCTYPE svg PUBLIC "-//W3C//DTD SVG 1.1//EN"
 "http://www.w3.org/Graphics/SVG/1.1/DTD/svg11.dtd">
<!-- Generated by graphviz version 2.26.3 (20100126.1600)
 -->
<!-- Title: src/analysis/input/goat/detail/TreeManager.h Pages: 1 -->
<svg width="140pt" height="102pt"
 viewBox="0.00 0.00 140.00 102.00" xmlns="http://www.w3.org/2000/svg" xmlns:xlink="http://www.w3.org/1999/xlink">
<g id="graph1" class="graph" transform="scale(1 1) rotate(0) translate(4 98)">
<title>src/analysis/input/goat/detail/TreeManager.h</title>
<polygon fill="white" stroke="white" points="-4,5 -4,-98 137,-98 137,5 -4,5"/>
<!-- Node1 -->
<g id="node1" class="node"><title>Node1</title>
<polygon fill="#bfbfbf" stroke="black" points="-0.5,-59 -0.5,-93 132.5,-93 132.5,-59 -0.5,-59"/>
<text text-anchor="start" x="7.5" y="-80" font-family="Helvetica,sans-Serif" font-size="10.00">src/analysis/input</text>
<text text-anchor="middle" x="66" y="-67" font-family="Helvetica,sans-Serif" font-size="10.00">/goat/detail/TreeManager.h</text>
</g>
<!-- Node2 -->
<g id="node3" class="node"><title>Node2</title>
<polygon fill="white" stroke="#bfbfbf" points="21,-0.5 21,-21.5 51,-21.5 51,-0.5 21,-0.5"/>
<text text-anchor="middle" x="36" y="-8.5" font-family="Helvetica,sans-Serif" font-size="10.00">set</text>
</g>
<!-- Node1&#45;&gt;Node2 -->
<g id="edge2" class="edge"><title>Node1&#45;&gt;Node2</title>
<path fill="none" stroke="midnightblue" d="M58.1179,-58.922C54.1825,-50.3954 49.3962,-40.0251 45.2839,-31.1151"/>
<polygon fill="midnightblue" stroke="midnightblue" points="48.3772,-29.465 41.0087,-21.8521 42.0214,-32.3984 48.3772,-29.465"/>
</g>
<!-- Node3 -->
<g id="node5" class="node"><title>Node3</title>
<polygon fill="white" stroke="#bfbfbf" points="69,-0.5 69,-21.5 125,-21.5 125,-0.5 69,-0.5"/>
<text text-anchor="middle" x="97" y="-8.5" font-family="Helvetica,sans-Serif" font-size="10.00">Rtypes.h</text>
</g>
<!-- Node1&#45;&gt;Node3 -->
<g id="edge4" class="edge"><title>Node1&#45;&gt;Node3</title>
<path fill="none" stroke="midnightblue" d="M74.1449,-58.922C78.2114,-50.3954 83.1573,-40.0251 87.4066,-31.1151"/>
<polygon fill="midnightblue" stroke="midnightblue" points="90.6787,-32.3848 91.8244,-21.8521 84.3605,-29.3715 90.6787,-32.3848"/>
</g>
</g>
</svg>
