<?xml version="1.0" encoding="UTF-8" standalone="no"?>
<!DOCTYPE svg PUBLIC "-//W3C//DTD SVG 1.1//EN"
 "http://www.w3.org/Graphics/SVG/1.1/DTD/svg11.dtd">
<!-- Generated by graphviz version 2.26.3 (20100126.1600)
 -->
<!-- Title: src/analysis/input/goat/detail/TreeManager.h Pages: 1 -->
<svg width="270pt" height="116pt"
 viewBox="0.00 0.00 270.00 116.00" xmlns="http://www.w3.org/2000/svg" xmlns:xlink="http://www.w3.org/1999/xlink">
<g id="graph1" class="graph" transform="scale(1 1) rotate(0) translate(4 112)">
<title>src/analysis/input/goat/detail/TreeManager.h</title>
<polygon fill="white" stroke="white" points="-4,5 -4,-112 267,-112 267,5 -4,5"/>
<!-- Node1 -->
<g id="node1" class="node"><title>Node1</title>
<polygon fill="#bfbfbf" stroke="black" points="72.5,-73 72.5,-107 205.5,-107 205.5,-73 72.5,-73"/>
<text text-anchor="start" x="80.5" y="-94" font-family="Helvetica,sans-Serif" font-size="10.00">src/analysis/input</text>
<text text-anchor="middle" x="139" y="-81" font-family="Helvetica,sans-Serif" font-size="10.00">/goat/detail/TreeManager.h</text>
</g>
<!-- Node2 -->
<g id="node3" class="node"><title>Node2</title>
<a xlink:href="_tree_manager_8cc.html" target="_top" xlink:title="src/analysis/input\l/goat/detail/TreeManager.cc">
<polygon fill="white" stroke="black" points="0,-1 0,-35 138,-35 138,-1 0,-1"/>
<text text-anchor="start" x="8" y="-22" font-family="Helvetica,sans-Serif" font-size="10.00">src/analysis/input</text>
<text text-anchor="middle" x="69" y="-9" font-family="Helvetica,sans-Serif" font-size="10.00">/goat/detail/TreeManager.cc</text>
</a>
</g>
<!-- Node1&#45;&gt;Node2 -->
<g id="edge2" class="edge"><title>Node1&#45;&gt;Node2</title>
<path fill="none" stroke="midnightblue" d="M115.346,-65.6706C105.706,-55.7551 94.7786,-44.5151 85.9562,-35.4407"/>
<polygon fill="midnightblue" stroke="midnightblue" points="112.931,-68.2068 122.411,-72.937 117.95,-63.3272 112.931,-68.2068"/>
</g>
<!-- Node3 -->
<g id="node5" class="node"><title>Node3</title>
<a xlink:href="_goat_reader_8cc.html" target="_top" xlink:title="src/analysis/input\l/goat/GoatReader.cc">
<polygon fill="white" stroke="black" points="155.5,-1 155.5,-35 262.5,-35 262.5,-1 155.5,-1"/>
<text text-anchor="start" x="163.5" y="-22" font-family="Helvetica,sans-Serif" font-size="10.00">src/analysis/input</text>
<text text-anchor="middle" x="209" y="-9" font-family="Helvetica,sans-Serif" font-size="10.00">/goat/GoatReader.cc</text>
</a>
</g>
<!-- Node1&#45;&gt;Node3 -->
<g id="edge4" class="edge"><title>Node1&#45;&gt;Node3</title>
<path fill="none" stroke="midnightblue" d="M162.654,-65.6706C172.294,-55.7551 183.221,-44.5151 192.044,-35.4407"/>
<polygon fill="midnightblue" stroke="midnightblue" points="160.05,-63.3272 155.589,-72.937 165.069,-68.2068 160.05,-63.3272"/>
</g>
</g>
</svg>
