<?xml version="1.0" encoding="UTF-8" standalone="no"?>
<!DOCTYPE svg PUBLIC "-//W3C//DTD SVG 1.1//EN"
 "http://www.w3.org/Graphics/SVG/1.1/DTD/svg11.dtd">
<!-- Generated by graphviz version 2.26.3 (20100126.1600)
 -->
<!-- Title: src/base/WrapTTree.cc Pages: 1 -->
<svg width="486pt" height="146pt"
 viewBox="0.00 0.00 486.00 146.00" xmlns="http://www.w3.org/2000/svg" xmlns:xlink="http://www.w3.org/1999/xlink">
<g id="graph1" class="graph" transform="scale(1 1) rotate(0) translate(4 142)">
<title>src/base/WrapTTree.cc</title>
<polygon fill="white" stroke="white" points="-4,5 -4,-142 483,-142 483,5 -4,5"/>
<!-- Node1 -->
<g id="node1" class="node"><title>Node1</title>
<polygon fill="#bfbfbf" stroke="black" points="233.5,-116.5 233.5,-137.5 352.5,-137.5 352.5,-116.5 233.5,-116.5"/>
<text text-anchor="middle" x="293" y="-124.5" font-family="Helvetica,sans-Serif" font-size="10.00">src/base/WrapTTree.cc</text>
</g>
<!-- Node2 -->
<g id="node3" class="node"><title>Node2</title>
<a xlink:href="_wrap_t_tree_8h.html" target="_top" xlink:title="WrapTTree.h">
<polygon fill="white" stroke="black" points="90,-58.5 90,-79.5 164,-79.5 164,-58.5 90,-58.5"/>
<text text-anchor="middle" x="127" y="-66.5" font-family="Helvetica,sans-Serif" font-size="10.00">WrapTTree.h</text>
</a>
</g>
<!-- Node1&#45;&gt;Node2 -->
<g id="edge2" class="edge"><title>Node1&#45;&gt;Node2</title>
<path fill="none" stroke="midnightblue" d="M262.939,-116.497C235.993,-107.082 196.272,-93.2036 166.718,-82.8773"/>
<polygon fill="midnightblue" stroke="midnightblue" points="167.713,-79.5174 157.118,-79.5231 165.404,-86.1257 167.713,-79.5174"/>
</g>
<!-- Node7 -->
<g id="node13" class="node"><title>Node7</title>
<a xlink:href="vector_8h.html" target="_top" xlink:title="base/std_ext/vector.h">
<polygon fill="white" stroke="black" points="181.5,-58.5 181.5,-79.5 292.5,-79.5 292.5,-58.5 181.5,-58.5"/>
<text text-anchor="middle" x="237" y="-66.5" font-family="Helvetica,sans-Serif" font-size="10.00">base/std_ext/vector.h</text>
</a>
</g>
<!-- Node1&#45;&gt;Node7 -->
<g id="edge12" class="edge"><title>Node1&#45;&gt;Node7</title>
<path fill="none" stroke="midnightblue" d="M282.729,-116.362C274.756,-108.104 263.525,-96.4725 254.189,-86.8029"/>
<polygon fill="midnightblue" stroke="midnightblue" points="256.67,-84.3336 247.206,-79.5707 251.634,-89.1958 256.67,-84.3336"/>
</g>
<!-- Node9 -->
<g id="node19" class="node"><title>Node9</title>
<a xlink:href="_logger_8h.html" target="_top" xlink:title="base/Logger.h">
<polygon fill="white" stroke="black" points="310,-58.5 310,-79.5 388,-79.5 388,-58.5 310,-58.5"/>
<text text-anchor="middle" x="349" y="-66.5" font-family="Helvetica,sans-Serif" font-size="10.00">base/Logger.h</text>
</a>
</g>
<!-- Node1&#45;&gt;Node9 -->
<g id="edge20" class="edge"><title>Node1&#45;&gt;Node9</title>
<path fill="none" stroke="midnightblue" d="M303.271,-116.362C311.244,-108.104 322.475,-96.4725 331.811,-86.8029"/>
<polygon fill="midnightblue" stroke="midnightblue" points="334.366,-89.1958 338.794,-79.5707 329.33,-84.3336 334.366,-89.1958"/>
</g>
<!-- Node11 -->
<g id="node23" class="node"><title>Node11</title>
<polygon fill="white" stroke="#bfbfbf" points="405.5,-58.5 405.5,-79.5 478.5,-79.5 478.5,-58.5 405.5,-58.5"/>
<text text-anchor="middle" x="442" y="-66.5" font-family="Helvetica,sans-Serif" font-size="10.00">TBufferFile.h</text>
</g>
<!-- Node1&#45;&gt;Node11 -->
<g id="edge24" class="edge"><title>Node1&#45;&gt;Node11</title>
<path fill="none" stroke="midnightblue" d="M319.983,-116.497C343.853,-107.205 378.894,-93.5649 405.307,-83.2832"/>
<polygon fill="midnightblue" stroke="midnightblue" points="406.917,-86.4122 414.967,-79.5231 404.378,-79.889 406.917,-86.4122"/>
</g>
<!-- Node3 -->
<g id="node5" class="node"><title>Node3</title>
<polygon fill="white" stroke="#bfbfbf" points="0,-0.5 0,-21.5 50,-21.5 50,-0.5 0,-0.5"/>
<text text-anchor="middle" x="25" y="-8.5" font-family="Helvetica,sans-Serif" font-size="10.00">TTree.h</text>
</g>
<!-- Node2&#45;&gt;Node3 -->
<g id="edge4" class="edge"><title>Node2&#45;&gt;Node3</title>
<path fill="none" stroke="midnightblue" d="M108.292,-58.3619C92.6194,-49.4502 70.0359,-36.6087 52.3373,-26.5447"/>
<polygon fill="midnightblue" stroke="midnightblue" points="54.0128,-23.4712 43.5898,-21.5707 50.5526,-29.5562 54.0128,-23.4712"/>
</g>
<!-- Node4 -->
<g id="node7" class="node"><title>Node4</title>
<polygon fill="white" stroke="#bfbfbf" points="126,-0.5 126,-21.5 170,-21.5 170,-0.5 126,-0.5"/>
<text text-anchor="middle" x="148" y="-8.5" font-family="Helvetica,sans-Serif" font-size="10.00">vector</text>
</g>
<!-- Node2&#45;&gt;Node4 -->
<g id="edge6" class="edge"><title>Node2&#45;&gt;Node4</title>
<path fill="none" stroke="midnightblue" d="M130.852,-58.3619C133.605,-50.7584 137.394,-40.294 140.71,-31.1349"/>
<polygon fill="midnightblue" stroke="midnightblue" points="144.059,-32.1649 144.173,-21.5707 137.477,-29.7818 144.059,-32.1649"/>
</g>
<!-- Node5 -->
<g id="node9" class="node"><title>Node5</title>
<polygon fill="white" stroke="#bfbfbf" points="67.5,-0.5 67.5,-21.5 108.5,-21.5 108.5,-0.5 67.5,-0.5"/>
<text text-anchor="middle" x="88" y="-8.5" font-family="Helvetica,sans-Serif" font-size="10.00">string</text>
</g>
<!-- Node2&#45;&gt;Node5 -->
<g id="edge8" class="edge"><title>Node2&#45;&gt;Node5</title>
<path fill="none" stroke="midnightblue" d="M119.847,-58.3619C114.514,-50.4313 107.089,-39.3885 100.749,-29.9606"/>
<polygon fill="midnightblue" stroke="midnightblue" points="103.592,-27.9161 95.1079,-21.5707 97.7834,-31.8221 103.592,-27.9161"/>
</g>
<!-- Node6 -->
<g id="node11" class="node"><title>Node6</title>
<polygon fill="white" stroke="#bfbfbf" points="188,-0.5 188,-21.5 244,-21.5 244,-0.5 188,-0.5"/>
<text text-anchor="middle" x="216" y="-8.5" font-family="Helvetica,sans-Serif" font-size="10.00">algorithm</text>
</g>
<!-- Node2&#45;&gt;Node6 -->
<g id="edge10" class="edge"><title>Node2&#45;&gt;Node6</title>
<path fill="none" stroke="midnightblue" d="M143.324,-58.3619C156.748,-49.6138 175.983,-37.0786 191.293,-27.1015"/>
<polygon fill="midnightblue" stroke="midnightblue" points="193.312,-29.9628 199.78,-21.5707 189.491,-24.0982 193.312,-29.9628"/>
</g>
<!-- Node7&#45;&gt;Node4 -->
<g id="edge14" class="edge"><title>Node7&#45;&gt;Node4</title>
<path fill="none" stroke="midnightblue" d="M220.676,-58.3619C207.252,-49.6138 188.017,-37.0786 172.707,-27.1015"/>
<polygon fill="midnightblue" stroke="midnightblue" points="174.509,-24.0982 164.22,-21.5707 170.688,-29.9628 174.509,-24.0982"/>
</g>
<!-- Node7&#45;&gt;Node6 -->
<g id="edge16" class="edge"><title>Node7&#45;&gt;Node6</title>
<path fill="none" stroke="midnightblue" d="M233.148,-58.3619C230.395,-50.7584 226.606,-40.294 223.29,-31.1349"/>
<polygon fill="midnightblue" stroke="midnightblue" points="226.523,-29.7818 219.827,-21.5707 219.941,-32.1649 226.523,-29.7818"/>
</g>
<!-- Node8 -->
<g id="node17" class="node"><title>Node8</title>
<polygon fill="white" stroke="#bfbfbf" points="261.5,-0.5 261.5,-21.5 312.5,-21.5 312.5,-0.5 261.5,-0.5"/>
<text text-anchor="middle" x="287" y="-8.5" font-family="Helvetica,sans-Serif" font-size="10.00">numeric</text>
</g>
<!-- Node7&#45;&gt;Node8 -->
<g id="edge18" class="edge"><title>Node7&#45;&gt;Node8</title>
<path fill="none" stroke="midnightblue" d="M246.171,-58.3619C253.148,-50.2678 262.921,-38.9318 271.156,-29.3796"/>
<polygon fill="midnightblue" stroke="midnightblue" points="274.009,-31.4301 277.887,-21.5707 268.707,-26.8595 274.009,-31.4301"/>
</g>
<!-- Node10 -->
<g id="node21" class="node"><title>Node10</title>
<polygon fill="white" stroke="#bfbfbf" points="329.5,-0.5 329.5,-21.5 444.5,-21.5 444.5,-0.5 329.5,-0.5"/>
<text text-anchor="middle" x="387" y="-8.5" font-family="Helvetica,sans-Serif" font-size="10.00">detail/easylogging++.h</text>
</g>
<!-- Node9&#45;&gt;Node10 -->
<g id="edge22" class="edge"><title>Node9&#45;&gt;Node10</title>
<path fill="none" stroke="midnightblue" d="M355.97,-58.3619C361.166,-50.4313 368.401,-39.3885 374.578,-29.9606"/>
<polygon fill="midnightblue" stroke="midnightblue" points="377.522,-31.8534 380.074,-21.5707 371.666,-28.0172 377.522,-31.8534"/>
</g>
</g>
</svg>
