<?xml version="1.0" encoding="UTF-8" standalone="no"?>
<!DOCTYPE svg PUBLIC "-//W3C//DTD SVG 1.1//EN"
 "http://www.w3.org/Graphics/SVG/1.1/DTD/svg11.dtd">
<!-- Generated by graphviz version 2.26.3 (20100126.1600)
 -->
<!-- Title: src/analysis/slowcontrol/variables/Trigger.h Pages: 1 -->
<svg width="1184pt" height="188pt"
 viewBox="0.00 0.00 1184.00 188.00" xmlns="http://www.w3.org/2000/svg" xmlns:xlink="http://www.w3.org/1999/xlink">
<g id="graph1" class="graph" transform="scale(1 1) rotate(0) translate(4 184)">
<title>src/analysis/slowcontrol/variables/Trigger.h</title>
<polygon fill="white" stroke="white" points="-4,5 -4,-184 1181,-184 1181,5 -4,5"/>
<!-- Node1 -->
<g id="node1" class="node"><title>Node1</title>
<polygon fill="#bfbfbf" stroke="black" points="606,-145 606,-179 728,-179 728,-145 606,-145"/>
<text text-anchor="start" x="614" y="-166" font-family="Helvetica,sans-Serif" font-size="10.00">src/analysis/slowcontrol</text>
<text text-anchor="middle" x="667" y="-153" font-family="Helvetica,sans-Serif" font-size="10.00">/variables/Trigger.h</text>
</g>
<!-- Node2 -->
<g id="node3" class="node"><title>Node2</title>
<a xlink:href="_slow_control_variables_8h.html" target="_top" xlink:title="src/analysis/slowcontrol\l/SlowControlVariables.h">
<polygon fill="white" stroke="black" points="536,-73 536,-107 658,-107 658,-73 536,-73"/>
<text text-anchor="start" x="544" y="-94" font-family="Helvetica,sans-Serif" font-size="10.00">src/analysis/slowcontrol</text>
<text text-anchor="middle" x="597" y="-81" font-family="Helvetica,sans-Serif" font-size="10.00">/SlowControlVariables.h</text>
</a>
</g>
<!-- Node1&#45;&gt;Node2 -->
<g id="edge2" class="edge"><title>Node1&#45;&gt;Node2</title>
<path fill="none" stroke="midnightblue" d="M643.346,-137.671C633.706,-127.755 622.779,-116.515 613.956,-107.441"/>
<polygon fill="midnightblue" stroke="midnightblue" points="640.931,-140.207 650.411,-144.937 645.95,-135.327 640.931,-140.207"/>
</g>
<!-- Node11 -->
<g id="node21" class="node"><title>Node11</title>
<a xlink:href="analysis_2slowcontrol_2variables_2_trigger_8cc.html" target="_top" xlink:title="src/analysis/slowcontrol\l/variables/Trigger.cc">
<polygon fill="white" stroke="black" points="676,-73 676,-107 798,-107 798,-73 676,-73"/>
<text text-anchor="start" x="684" y="-94" font-family="Helvetica,sans-Serif" font-size="10.00">src/analysis/slowcontrol</text>
<text text-anchor="middle" x="737" y="-81" font-family="Helvetica,sans-Serif" font-size="10.00">/variables/Trigger.cc</text>
</a>
</g>
<!-- Node1&#45;&gt;Node11 -->
<g id="edge20" class="edge"><title>Node1&#45;&gt;Node11</title>
<path fill="none" stroke="midnightblue" d="M690.654,-137.671C700.294,-127.755 711.221,-116.515 720.044,-107.441"/>
<polygon fill="midnightblue" stroke="midnightblue" points="688.05,-135.327 683.589,-144.937 693.069,-140.207 688.05,-135.327"/>
</g>
<!-- Node3 -->
<g id="node5" class="node"><title>Node3</title>
<a xlink:href="_debug_physics_8cc.html" target="_top" xlink:title="src/analysis/physics\l/common/DebugPhysics.cc">
<polygon fill="white" stroke="black" points="-0.5,-1 -0.5,-35 136.5,-35 136.5,-1 -0.5,-1"/>
<text text-anchor="start" x="7.5" y="-22" font-family="Helvetica,sans-Serif" font-size="10.00">src/analysis/physics</text>
<text text-anchor="middle" x="68" y="-9" font-family="Helvetica,sans-Serif" font-size="10.00">/common/DebugPhysics.cc</text>
</a>
</g>
<!-- Node2&#45;&gt;Node3 -->
<g id="edge4" class="edge"><title>Node2&#45;&gt;Node3</title>
<path fill="none" stroke="midnightblue" d="M525.613,-83.9346C436.224,-75.775 278.589,-59.5197 145,-36 142.296,-35.5239 139.544,-35.0124 136.769,-34.4738"/>
<polygon fill="midnightblue" stroke="midnightblue" points="525.364,-87.4262 535.639,-84.8418 525.995,-80.4547 525.364,-87.4262"/>
</g>
<!-- Node4 -->
<g id="node7" class="node"><title>Node4</title>
<a xlink:href="_extract_scalers_8cc.html" target="_top" xlink:title="src/analysis/physics\l/common/ExtractScalers.cc">
<polygon fill="white" stroke="black" points="154,-1 154,-35 292,-35 292,-1 154,-1"/>
<text text-anchor="start" x="162" y="-22" font-family="Helvetica,sans-Serif" font-size="10.00">src/analysis/physics</text>
<text text-anchor="middle" x="223" y="-9" font-family="Helvetica,sans-Serif" font-size="10.00">/common/ExtractScalers.cc</text>
</a>
</g>
<!-- Node2&#45;&gt;Node4 -->
<g id="edge6" class="edge"><title>Node2&#45;&gt;Node4</title>
<path fill="none" stroke="midnightblue" d="M525.763,-77.9581C465.695,-67.5758 377.53,-51.8023 301,-36 298.142,-35.4098 295.228,-34.7954 292.286,-34.1645"/>
<polygon fill="midnightblue" stroke="midnightblue" points="525.449,-81.4555 535.899,-79.7048 526.638,-74.5572 525.449,-81.4555"/>
</g>
<!-- Node5 -->
<g id="node9" class="node"><title>Node5</title>
<a xlink:href="_process_tagg_eff_8cc.html" target="_top" xlink:title="src/analysis/physics\l/common/ProcessTaggEff.cc">
<polygon fill="white" stroke="black" points="310,-1 310,-35 454,-35 454,-1 310,-1"/>
<text text-anchor="start" x="318" y="-22" font-family="Helvetica,sans-Serif" font-size="10.00">src/analysis/physics</text>
<text text-anchor="middle" x="382" y="-9" font-family="Helvetica,sans-Serif" font-size="10.00">/common/ProcessTaggEff.cc</text>
</a>
</g>
<!-- Node2&#45;&gt;Node5 -->
<g id="edge8" class="edge"><title>Node2&#45;&gt;Node5</title>
<path fill="none" stroke="midnightblue" d="M536.181,-69.6326C503.595,-58.7201 463.907,-45.4292 432.958,-35.0651"/>
<polygon fill="midnightblue" stroke="midnightblue" points="535.454,-73.0803 546.048,-72.937 537.677,-66.4426 535.454,-73.0803"/>
</g>
<!-- Node6 -->
<g id="node11" class="node"><title>Node6</title>
<a xlink:href="debug_scalers_8cc.html" target="_top" xlink:title="src/analysis/physics\l/misc/debugScalers.cc">
<polygon fill="white" stroke="black" points="472,-1 472,-35 588,-35 588,-1 472,-1"/>
<text text-anchor="start" x="480" y="-22" font-family="Helvetica,sans-Serif" font-size="10.00">src/analysis/physics</text>
<text text-anchor="middle" x="530" y="-9" font-family="Helvetica,sans-Serif" font-size="10.00">/misc/debugScalers.cc</text>
</a>
</g>
<!-- Node2&#45;&gt;Node6 -->
<g id="edge10" class="edge"><title>Node2&#45;&gt;Node6</title>
<path fill="none" stroke="midnightblue" d="M574.088,-65.3785C564.928,-55.5349 554.591,-44.4262 546.23,-35.4407"/>
<polygon fill="midnightblue" stroke="midnightblue" points="571.747,-68.0006 581.122,-72.937 576.872,-63.232 571.747,-68.0006"/>
</g>
<!-- Node7 -->
<g id="node13" class="node"><title>Node7</title>
<a xlink:href="debug_tagg_eff_8cc.html" target="_top" xlink:title="src/analysis/physics\l/misc/debugTaggEff.cc">
<polygon fill="white" stroke="black" points="606,-1 606,-35 724,-35 724,-1 606,-1"/>
<text text-anchor="start" x="614" y="-22" font-family="Helvetica,sans-Serif" font-size="10.00">src/analysis/physics</text>
<text text-anchor="middle" x="665" y="-9" font-family="Helvetica,sans-Serif" font-size="10.00">/misc/debugTaggEff.cc</text>
</a>
</g>
<!-- Node2&#45;&gt;Node7 -->
<g id="edge12" class="edge"><title>Node2&#45;&gt;Node7</title>
<path fill="none" stroke="midnightblue" d="M620.254,-65.3785C629.55,-55.5349 640.042,-44.4262 648.528,-35.4407"/>
<polygon fill="midnightblue" stroke="midnightblue" points="617.437,-63.2637 613.115,-72.937 622.526,-68.07 617.437,-63.2637"/>
</g>
<!-- Node8 -->
<g id="node15" class="node"><title>Node8</title>
<a xlink:href="_slow_control_manager_8cc.html" target="_top" xlink:title="src/analysis/slowcontrol\l/SlowControlManager.cc">
<polygon fill="white" stroke="black" points="742,-1 742,-35 866,-35 866,-1 742,-1"/>
<text text-anchor="start" x="750" y="-22" font-family="Helvetica,sans-Serif" font-size="10.00">src/analysis/slowcontrol</text>
<text text-anchor="middle" x="804" y="-9" font-family="Helvetica,sans-Serif" font-size="10.00">/SlowControlManager.cc</text>
</a>
</g>
<!-- Node2&#45;&gt;Node8 -->
<g id="edge14" class="edge"><title>Node2&#45;&gt;Node8</title>
<path fill="none" stroke="midnightblue" d="M655.556,-69.6326C686.93,-58.7201 725.141,-45.4292 754.938,-35.0651"/>
<polygon fill="midnightblue" stroke="midnightblue" points="654.351,-66.346 646.056,-72.937 656.651,-72.9575 654.351,-66.346"/>
</g>
<!-- Node9 -->
<g id="node17" class="node"><title>Node9</title>
<a xlink:href="_slow_control_variables_8cc.html" target="_top" xlink:title="src/analysis/slowcontrol\l/SlowControlVariables.cc">
<polygon fill="white" stroke="black" points="883.5,-1 883.5,-35 1010.5,-35 1010.5,-1 883.5,-1"/>
<text text-anchor="start" x="891.5" y="-22" font-family="Helvetica,sans-Serif" font-size="10.00">src/analysis/slowcontrol</text>
<text text-anchor="middle" x="947" y="-9" font-family="Helvetica,sans-Serif" font-size="10.00">/SlowControlVariables.cc</text>
</a>
</g>
<!-- Node2&#45;&gt;Node9 -->
<g id="edge16" class="edge"><title>Node2&#45;&gt;Node9</title>
<path fill="none" stroke="midnightblue" d="M667.8,-71.9215C760.427,-52.4821 786.255,-54.7465 875,-36 877.773,-35.4141 880.602,-34.796 883.456,-34.1556"/>
<polygon fill="midnightblue" stroke="midnightblue" points="667.068,-68.4988 658.015,-74.0029 668.524,-75.3456 667.068,-68.4988"/>
</g>
<!-- Node10 -->
<g id="node19" class="node"><title>Node10</title>
<a xlink:href="_test_slow_control_manager_8cc.html" target="_top" xlink:title="test/analysis/TestSlowControl\lManager.cc">
<polygon fill="white" stroke="black" points="1028,-1 1028,-35 1176,-35 1176,-1 1028,-1"/>
<text text-anchor="start" x="1036" y="-22" font-family="Helvetica,sans-Serif" font-size="10.00">test/analysis/TestSlowControl</text>
<text text-anchor="middle" x="1102" y="-9" font-family="Helvetica,sans-Serif" font-size="10.00">Manager.cc</text>
</a>
</g>
<!-- Node2&#45;&gt;Node10 -->
<g id="edge18" class="edge"><title>Node2&#45;&gt;Node10</title>
<path fill="none" stroke="midnightblue" d="M668.251,-71.9236C823.574,-44.9942 866.877,-60.1968 1019,-36 1021.91,-35.5368 1024.88,-35.036 1027.87,-34.5065"/>
<polygon fill="midnightblue" stroke="midnightblue" points="667.586,-68.4869 658.346,-73.6713 668.802,-75.3805 667.586,-68.4869"/>
</g>
</g>
</svg>
