<?xml version="1.0" encoding="UTF-8" standalone="no"?>
<!DOCTYPE svg PUBLIC "-//W3C//DTD SVG 1.1//EN"
 "http://www.w3.org/Graphics/SVG/1.1/DTD/svg11.dtd">
<!-- Generated by graphviz version 2.26.3 (20100126.1600)
 -->
<!-- Title: src/calibration/modules/TAPS_ShortEnergy.h Pages: 1 -->
<svg width="672pt" height="116pt"
 viewBox="0.00 0.00 672.00 116.00" xmlns="http://www.w3.org/2000/svg" xmlns:xlink="http://www.w3.org/1999/xlink">
<g id="graph1" class="graph" transform="scale(1 1) rotate(0) translate(4 112)">
<title>src/calibration/modules/TAPS_ShortEnergy.h</title>
<polygon fill="white" stroke="white" points="-4,5 -4,-112 669,-112 669,5 -4,5"/>
<!-- Node1 -->
<g id="node1" class="node"><title>Node1</title>
<polygon fill="#bfbfbf" stroke="black" points="262.5,-73 262.5,-107 379.5,-107 379.5,-73 262.5,-73"/>
<text text-anchor="start" x="270.5" y="-94" font-family="Helvetica,sans-Serif" font-size="10.00">src/calibration/modules</text>
<text text-anchor="middle" x="321" y="-81" font-family="Helvetica,sans-Serif" font-size="10.00">/TAPS_ShortEnergy.h</text>
</g>
<!-- Node2 -->
<g id="node3" class="node"><title>Node2</title>
<a xlink:href="calibration_2modules_2_t_a_p_s___short_energy_8cc.html" target="_top" xlink:title="src/calibration/modules\l/TAPS_ShortEnergy.cc">
<polygon fill="white" stroke="black" points="-0.5,-1 -0.5,-35 118.5,-35 118.5,-1 -0.5,-1"/>
<text text-anchor="start" x="7.5" y="-22" font-family="Helvetica,sans-Serif" font-size="10.00">src/calibration/modules</text>
<text text-anchor="middle" x="59" y="-9" font-family="Helvetica,sans-Serif" font-size="10.00">/TAPS_ShortEnergy.cc</text>
</a>
</g>
<!-- Node1&#45;&gt;Node2 -->
<g id="edge2" class="edge"><title>Node1&#45;&gt;Node2</title>
<path fill="none" stroke="midnightblue" d="M252.426,-71.1553C210.851,-59.7301 158.328,-45.2962 118.508,-34.3534"/>
<polygon fill="midnightblue" stroke="midnightblue" points="251.632,-74.5668 262.202,-73.8418 253.487,-67.817 251.632,-74.5668"/>
</g>
<!-- Node3 -->
<g id="node5" class="node"><title>Node3</title>
<a xlink:href="_setup__2007___base_8cc.html" target="_top" xlink:title="src/expconfig/setups\l/Setup_2007_Base.cc">
<polygon fill="white" stroke="black" points="135.5,-1 135.5,-35 248.5,-35 248.5,-1 135.5,-1"/>
<text text-anchor="start" x="143.5" y="-22" font-family="Helvetica,sans-Serif" font-size="10.00">src/expconfig/setups</text>
<text text-anchor="middle" x="192" y="-9" font-family="Helvetica,sans-Serif" font-size="10.00">/Setup_2007_Base.cc</text>
</a>
</g>
<!-- Node1&#45;&gt;Node3 -->
<g id="edge4" class="edge"><title>Node1&#45;&gt;Node3</title>
<path fill="none" stroke="midnightblue" d="M281.475,-67.9398C262.614,-57.4125 240.383,-45.0044 222.799,-35.19"/>
<polygon fill="midnightblue" stroke="midnightblue" points="279.991,-71.1195 290.429,-72.937 283.403,-65.0071 279.991,-71.1195"/>
</g>
<!-- Node4 -->
<g id="node7" class="node"><title>Node4</title>
<a xlink:href="_setup__2014___e_p_t_8cc.html" target="_top" xlink:title="src/expconfig/setups\l/Setup_2014_EPT.cc">
<polygon fill="white" stroke="black" points="266,-1 266,-35 376,-35 376,-1 266,-1"/>
<text text-anchor="start" x="274" y="-22" font-family="Helvetica,sans-Serif" font-size="10.00">src/expconfig/setups</text>
<text text-anchor="middle" x="321" y="-9" font-family="Helvetica,sans-Serif" font-size="10.00">/Setup_2014_EPT.cc</text>
</a>
</g>
<!-- Node1&#45;&gt;Node4 -->
<g id="edge6" class="edge"><title>Node1&#45;&gt;Node4</title>
<path fill="none" stroke="midnightblue" d="M321,-62.7193C321,-53.572 321,-43.6255 321,-35.4407"/>
<polygon fill="midnightblue" stroke="midnightblue" points="317.5,-62.937 321,-72.937 324.5,-62.937 317.5,-62.937"/>
</g>
<!-- Node5 -->
<g id="node9" class="node"><title>Node5</title>
<a xlink:href="_setup__2015__01___pion_8cc.html" target="_top" xlink:title="src/expconfig/setups\l/Setup_2015_01_Pion.cc">
<polygon fill="white" stroke="black" points="393.5,-1 393.5,-35 518.5,-35 518.5,-1 393.5,-1"/>
<text text-anchor="start" x="401.5" y="-22" font-family="Helvetica,sans-Serif" font-size="10.00">src/expconfig/setups</text>
<text text-anchor="middle" x="456" y="-9" font-family="Helvetica,sans-Serif" font-size="10.00">/Setup_2015_01_Pion.cc</text>
</a>
</g>
<!-- Node1&#45;&gt;Node5 -->
<g id="edge8" class="edge"><title>Node1&#45;&gt;Node5</title>
<path fill="none" stroke="midnightblue" d="M361.825,-68.2264C381.678,-57.6383 405.199,-45.0936 423.769,-35.19"/>
<polygon fill="midnightblue" stroke="midnightblue" points="360.17,-65.1428 352.993,-72.937 363.464,-71.3193 360.17,-65.1428"/>
</g>
<!-- Node6 -->
<g id="node11" class="node"><title>Node6</title>
<a xlink:href="expconfig__helpers_8cc.html" target="_top" xlink:title="test/expconfig_helpers.cc">
<polygon fill="white" stroke="black" points="536,-7.5 536,-28.5 664,-28.5 664,-7.5 536,-7.5"/>
<text text-anchor="middle" x="600" y="-15.5" font-family="Helvetica,sans-Serif" font-size="10.00">test/expconfig_helpers.cc</text>
</a>
</g>
<!-- Node1&#45;&gt;Node6 -->
<g id="edge10" class="edge"><title>Node1&#45;&gt;Node6</title>
<path fill="none" stroke="midnightblue" d="M389.539,-72.3125C442.779,-58.5732 514.813,-39.9838 559.301,-28.503"/>
<polygon fill="midnightblue" stroke="midnightblue" points="388.636,-68.9308 379.828,-74.8186 390.385,-75.7087 388.636,-68.9308"/>
</g>
</g>
</svg>
