<?xml version="1.0" encoding="UTF-8" standalone="no"?>
<!DOCTYPE svg PUBLIC "-//W3C//DTD SVG 1.1//EN"
 "http://www.w3.org/Graphics/SVG/1.1/DTD/svg11.dtd">
<!-- Generated by graphviz version 2.26.3 (20100126.1600)
 -->
<!-- Title: ant::unpacker::acqu::FileFormatBase Pages: 1 -->
<svg width="1330pt" height="382pt"
 viewBox="0.00 0.00 1330.00 382.00" xmlns="http://www.w3.org/2000/svg" xmlns:xlink="http://www.w3.org/1999/xlink">
<g id="graph1" class="graph" transform="scale(1 1) rotate(0) translate(4 378)">
<title>ant::unpacker::acqu::FileFormatBase</title>
<polygon fill="white" stroke="white" points="-4,5 -4,-378 1327,-378 1327,5 -4,5"/>
<!-- Node1 -->
<g id="node1" class="node"><title>Node1</title>
<polygon fill="#bfbfbf" stroke="black" points="1218.5,-172 1218.5,-206 1321.5,-206 1321.5,-172 1218.5,-172"/>
<text text-anchor="start" x="1226.5" y="-193" font-family="Helvetica,sans-Serif" font-size="10.00">ant::unpacker::acqu</text>
<text text-anchor="middle" x="1270" y="-180" font-family="Helvetica,sans-Serif" font-size="10.00">::FileFormatBase</text>
</g>
<!-- Node2 -->
<g id="node2" class="node"><title>Node2</title>
<a xlink:href="classant_1_1_unpacker_acqu_file_format.html" target="_top" xlink:title="ant::UnpackerAcquFileFormat">
<polygon fill="white" stroke="black" points="956.5,-328.5 956.5,-349.5 1103.5,-349.5 1103.5,-328.5 956.5,-328.5"/>
<text text-anchor="middle" x="1030" y="-336.5" font-family="Helvetica,sans-Serif" font-size="10.00">ant::UnpackerAcquFileFormat</text>
</a>
</g>
<!-- Node2&#45;&gt;Node1 -->
<g id="edge2" class="edge"><title>Node2&#45;&gt;Node1</title>
<path fill="none" stroke="midnightblue" d="M1106.86,-326.028C1137.98,-318 1172.89,-305.207 1200,-285 1228.61,-263.673 1250.52,-227.329 1261.72,-206.005"/>
<polygon fill="midnightblue" stroke="midnightblue" points="1105.78,-322.689 1096.9,-328.47 1107.45,-329.487 1105.78,-322.689"/>
</g>
<!-- Node3 -->
<g id="node4" class="node"><title>Node3</title>
<polygon fill="white" stroke="#bfbfbf" points="958.5,-276 958.5,-310 1101.5,-310 1101.5,-276 958.5,-276"/>
<text text-anchor="start" x="966.5" y="-297" font-family="Helvetica,sans-Serif" font-size="10.00">std::vector&lt; ant::Unpacker</text>
<text text-anchor="middle" x="1030" y="-284" font-family="Helvetica,sans-Serif" font-size="10.00">AcquConfig::hit_mapping_t &gt;</text>
</g>
<!-- Node3&#45;&gt;Node1 -->
<g id="edge4" class="edge"><title>Node3&#45;&gt;Node1</title>
<path fill="none" stroke="#9a32cd" stroke-dasharray="5,2" d="M1108.28,-273C1137.79,-264.095 1171.18,-252.343 1200,-238 1217.53,-229.275 1235.59,-216.52 1248.98,-206.211"/>
<polygon fill="#9a32cd" stroke="#9a32cd" points="1107.03,-269.72 1098.43,-275.91 1109.01,-276.433 1107.03,-269.72"/>
<text text-anchor="middle" x="1161" y="-272" font-family="Helvetica,sans-Serif" font-size="10.00"> hit_mappings</text>
</g>
<!-- Node4 -->
<g id="node6" class="node"><title>Node4</title>
<a xlink:href="structant_1_1_unpacker_acqu_config_1_1hit__mapping__t.html" target="_top" xlink:title="ant::UnpackerAcquConfig\l::hit_mapping_t">
<polygon fill="white" stroke="black" points="745.5,-298 745.5,-332 874.5,-332 874.5,-298 745.5,-298"/>
<text text-anchor="start" x="753.5" y="-319" font-family="Helvetica,sans-Serif" font-size="10.00">ant::UnpackerAcquConfig</text>
<text text-anchor="middle" x="810" y="-306" font-family="Helvetica,sans-Serif" font-size="10.00">::hit_mapping_t</text>
</a>
</g>
<!-- Node4&#45;&gt;Node3 -->
<g id="edge6" class="edge"><title>Node4&#45;&gt;Node3</title>
<path fill="none" stroke="#9a32cd" stroke-dasharray="5,2" d="M884.544,-307.546C908.321,-305.168 934.572,-302.543 958.153,-300.185"/>
<polygon fill="#9a32cd" stroke="#9a32cd" points="884.123,-304.07 874.521,-308.548 884.819,-311.035 884.123,-304.07"/>
<text text-anchor="middle" x="916" y="-309" font-family="Helvetica,sans-Serif" font-size="10.00"> elements</text>
</g>
<!-- Node5 -->
<g id="node8" class="node"><title>Node5</title>
<a xlink:href="structant_1_1_logical_channel__t.html" target="_top" xlink:title="The LogicalChannel_t struct uniquely identifies detector element within setup. ">
<polygon fill="white" stroke="black" points="511.5,-352.5 511.5,-373.5 622.5,-373.5 622.5,-352.5 511.5,-352.5"/>
<text text-anchor="middle" x="567" y="-360.5" font-family="Helvetica,sans-Serif" font-size="10.00">ant::LogicalChannel_t</text>
</a>
</g>
<!-- Node5&#45;&gt;Node4 -->
<g id="edge8" class="edge"><title>Node5&#45;&gt;Node4</title>
<path fill="none" stroke="#9a32cd" stroke-dasharray="5,2" d="M630.513,-350.454C665.802,-343.484 709.618,-334.829 745.124,-327.815"/>
<polygon fill="#9a32cd" stroke="#9a32cd" points="629.46,-347.095 620.327,-352.466 630.816,-353.962 629.46,-347.095"/>
<text text-anchor="middle" x="691" y="-348" font-family="Helvetica,sans-Serif" font-size="10.00"> LogicalChannel</text>
</g>
<!-- Node6 -->
<g id="node10" class="node"><title>Node6</title>
<polygon fill="white" stroke="#bfbfbf" points="500,-286.5 500,-333.5 634,-333.5 634,-286.5 500,-286.5"/>
<text text-anchor="start" x="508" y="-320.5" font-family="Helvetica,sans-Serif" font-size="10.00">std::vector&lt; ant::Unpacker</text>
<text text-anchor="start" x="508" y="-307.5" font-family="Helvetica,sans-Serif" font-size="10.00">AcquConfig::RawChannel</text>
<text text-anchor="middle" x="567" y="-294.5" font-family="Helvetica,sans-Serif" font-size="10.00">_t&lt; std::uint16_t &gt; &gt;</text>
</g>
<!-- Node6&#45;&gt;Node4 -->
<g id="edge10" class="edge"><title>Node6&#45;&gt;Node4</title>
<path fill="none" stroke="#9a32cd" stroke-dasharray="5,2" d="M644.409,-311.593C676.905,-312.261 714.268,-313.03 745.271,-313.668"/>
<polygon fill="#9a32cd" stroke="#9a32cd" points="644.114,-308.086 634.044,-311.38 643.97,-315.085 644.114,-308.086"/>
<text text-anchor="middle" x="691" y="-317" font-family="Helvetica,sans-Serif" font-size="10.00"> RawChannels</text>
</g>
<!-- Node7 -->
<g id="node12" class="node"><title>Node7</title>
<a xlink:href="structant_1_1_unpacker_acqu_config_1_1_raw_channel__t.html" target="_top" xlink:title="ant::UnpackerAcquConfig\l::RawChannel_t\&lt; std::uint16_t \&gt;">
<polygon fill="white" stroke="black" points="256.5,-293 256.5,-327 415.5,-327 415.5,-293 256.5,-293"/>
<text text-anchor="start" x="264.5" y="-314" font-family="Helvetica,sans-Serif" font-size="10.00">ant::UnpackerAcquConfig</text>
<text text-anchor="middle" x="336" y="-301" font-family="Helvetica,sans-Serif" font-size="10.00">::RawChannel_t&lt; std::uint16_t &gt;</text>
</a>
</g>
<!-- Node7&#45;&gt;Node6 -->
<g id="edge12" class="edge"><title>Node7&#45;&gt;Node6</title>
<path fill="none" stroke="#9a32cd" stroke-dasharray="5,2" d="M425.887,-310C450.498,-310 476.742,-310 499.84,-310"/>
<polygon fill="#9a32cd" stroke="#9a32cd" points="425.821,-306.5 415.821,-310 425.821,-313.5 425.821,-306.5"/>
<text text-anchor="middle" x="456" y="-314" font-family="Helvetica,sans-Serif" font-size="10.00"> elements</text>
</g>
<!-- Node8 -->
<g id="node14" class="node"><title>Node8</title>
<polygon fill="white" stroke="#bfbfbf" points="961.5,-172 961.5,-206 1098.5,-206 1098.5,-172 961.5,-172"/>
<text text-anchor="start" x="969.5" y="-193" font-family="Helvetica,sans-Serif" font-size="10.00">std::vector&lt; UnpackerAcqu</text>
<text text-anchor="middle" x="1030" y="-180" font-family="Helvetica,sans-Serif" font-size="10.00">Config::scaler_mapping_t &gt;</text>
</g>
<!-- Node8&#45;&gt;Node1 -->
<g id="edge14" class="edge"><title>Node8&#45;&gt;Node1</title>
<path fill="none" stroke="#9a32cd" stroke-dasharray="5,2" d="M1109.23,-189C1145.14,-189 1186.58,-189 1218.39,-189"/>
<polygon fill="#9a32cd" stroke="#9a32cd" points="1108.77,-185.5 1098.77,-189 1108.77,-192.5 1108.77,-185.5"/>
<text text-anchor="middle" x="1161" y="-193" font-family="Helvetica,sans-Serif" font-size="10.00"> scaler_mappings</text>
</g>
<!-- Node9 -->
<g id="node16" class="node"><title>Node9</title>
<a xlink:href="structant_1_1_unpacker_acqu_config_1_1scaler__mapping__t.html" target="_top" xlink:title="ant::UnpackerAcquConfig\l::scaler_mapping_t">
<polygon fill="white" stroke="black" points="745.5,-125 745.5,-159 874.5,-159 874.5,-125 745.5,-125"/>
<text text-anchor="start" x="753.5" y="-146" font-family="Helvetica,sans-Serif" font-size="10.00">ant::UnpackerAcquConfig</text>
<text text-anchor="middle" x="810" y="-133" font-family="Helvetica,sans-Serif" font-size="10.00">::scaler_mapping_t</text>
</a>
</g>
<!-- Node9&#45;&gt;Node8 -->
<g id="edge16" class="edge"><title>Node9&#45;&gt;Node8</title>
<path fill="none" stroke="#9a32cd" stroke-dasharray="5,2" d="M884.607,-157.939C909.418,-163.239 936.917,-169.114 961.262,-174.315"/>
<polygon fill="#9a32cd" stroke="#9a32cd" points="885.031,-154.451 874.521,-155.784 883.569,-161.296 885.031,-154.451"/>
<text text-anchor="middle" x="916" y="-172" font-family="Helvetica,sans-Serif" font-size="10.00"> elements</text>
</g>
<!-- Node10 -->
<g id="node18" class="node"><title>Node10</title>
<a xlink:title="STL class. ">
<polygon fill="white" stroke="#bfbfbf" points="306,-190.5 306,-211.5 366,-211.5 366,-190.5 306,-190.5"/>
<text text-anchor="middle" x="336" y="-198.5" font-family="Helvetica,sans-Serif" font-size="10.00">std::string</text>
</a>
</g>
<!-- Node10&#45;&gt;Node9 -->
<g id="edge18" class="edge"><title>Node10&#45;&gt;Node9</title>
<path fill="none" stroke="#9a32cd" stroke-dasharray="5,2" d="M374.574,-187.096C406.62,-176.233 453.65,-161.863 496,-155 581.365,-141.166 681.391,-139.479 745.201,-140.201"/>
<polygon fill="#9a32cd" stroke="#9a32cd" points="373.039,-183.923 364.722,-190.486 375.316,-190.542 373.039,-183.923"/>
<text text-anchor="middle" x="567" y="-159" font-family="Helvetica,sans-Serif" font-size="10.00"> SlowControlName</text>
</g>
<!-- Node19 -->
<g id="node36" class="node"><title>Node19</title>
<a xlink:href="structant_1_1unpacker_1_1acqu_1_1_file_format_base_1_1_info.html" target="_top" xlink:title="ant::unpacker::acqu\l::FileFormatBase::Info">
<polygon fill="white" stroke="black" points="973,-224 973,-258 1087,-258 1087,-224 973,-224"/>
<text text-anchor="start" x="981" y="-245" font-family="Helvetica,sans-Serif" font-size="10.00">ant::unpacker::acqu</text>
<text text-anchor="middle" x="1030" y="-232" font-family="Helvetica,sans-Serif" font-size="10.00">::FileFormatBase::Info</text>
</a>
</g>
<!-- Node10&#45;&gt;Node19 -->
<g id="edge44" class="edge"><title>Node10&#45;&gt;Node19</title>
<path fill="none" stroke="#9a32cd" stroke-dasharray="5,2" d="M376.018,-211.463C408.181,-219.334 454.655,-229.507 496,-234 668.825,-252.782 874.949,-247.807 972.883,-243.799"/>
<polygon fill="#9a32cd" stroke="#9a32cd" points="376.652,-208.014 366.103,-208.998 374.963,-214.807 376.652,-208.014"/>
<text text-anchor="middle" x="691" y="-276" font-family="Helvetica,sans-Serif" font-size="10.00"> Description</text>
<text text-anchor="middle" x="691" y="-263" font-family="Helvetica,sans-Serif" font-size="10.00">OutFile</text>
<text text-anchor="middle" x="691" y="-250" font-family="Helvetica,sans-Serif" font-size="10.00">RunNote</text>
</g>
<!-- Node21 -->
<g id="node40" class="node"><title>Node21</title>
<a xlink:href="structant_1_1unpacker_1_1acqu_1_1_file_format_base_1_1_info_1_1_hardware_module.html" target="_top" xlink:title="ant::unpacker::acqu\l::FileFormatBase::Info\l::HardwareModule">
<polygon fill="white" stroke="black" points="510,-177.5 510,-224.5 624,-224.5 624,-177.5 510,-177.5"/>
<text text-anchor="start" x="518" y="-211.5" font-family="Helvetica,sans-Serif" font-size="10.00">ant::unpacker::acqu</text>
<text text-anchor="start" x="518" y="-198.5" font-family="Helvetica,sans-Serif" font-size="10.00">::FileFormatBase::Info</text>
<text text-anchor="middle" x="567" y="-185.5" font-family="Helvetica,sans-Serif" font-size="10.00">::HardwareModule</text>
</a>
</g>
<!-- Node10&#45;&gt;Node21 -->
<g id="edge42" class="edge"><title>Node10&#45;&gt;Node21</title>
<path fill="none" stroke="#9a32cd" stroke-dasharray="5,2" d="M376.575,-201C413.485,-201 468.355,-201 509.727,-201"/>
<polygon fill="#9a32cd" stroke="#9a32cd" points="376.199,-197.5 366.199,-201 376.199,-204.5 376.199,-197.5"/>
<text text-anchor="middle" x="456" y="-205" font-family="Helvetica,sans-Serif" font-size="10.00"> Identifier</text>
</g>
<!-- Node11 -->
<g id="node20" class="node"><title>Node11</title>
<a xlink:title="STL class. ">
<polygon fill="white" stroke="#bfbfbf" points="32.5,-184 32.5,-218 127.5,-218 127.5,-184 32.5,-184"/>
<text text-anchor="start" x="40.5" y="-205" font-family="Helvetica,sans-Serif" font-size="10.00">std::basic_string&lt;</text>
<text text-anchor="middle" x="80" y="-192" font-family="Helvetica,sans-Serif" font-size="10.00"> char &gt;</text>
</a>
</g>
<!-- Node11&#45;&gt;Node10 -->
<g id="edge20" class="edge"><title>Node11&#45;&gt;Node10</title>
<path fill="none" stroke="midnightblue" d="M137.674,-201C189.879,-201 264.715,-201 305.923,-201"/>
<polygon fill="midnightblue" stroke="midnightblue" points="137.552,-197.5 127.552,-201 137.552,-204.5 137.552,-197.5"/>
</g>
<!-- Node12 -->
<g id="node22" class="node"><title>Node12</title>
<polygon fill="white" stroke="#bfbfbf" points="496,-62.5 496,-109.5 638,-109.5 638,-62.5 496,-62.5"/>
<text text-anchor="start" x="504" y="-96.5" font-family="Helvetica,sans-Serif" font-size="10.00">std::vector&lt; ant::Unpacker</text>
<text text-anchor="start" x="504" y="-83.5" font-family="Helvetica,sans-Serif" font-size="10.00">AcquConfig::scaler_mapping</text>
<text text-anchor="middle" x="567" y="-70.5" font-family="Helvetica,sans-Serif" font-size="10.00">_t::entry_t &gt;</text>
</g>
<!-- Node12&#45;&gt;Node9 -->
<g id="edge22" class="edge"><title>Node12&#45;&gt;Node9</title>
<path fill="none" stroke="#9a32cd" stroke-dasharray="5,2" d="M647.898,-101.77C673.002,-106.937 700.712,-112.92 726,-119 733.645,-120.838 741.649,-122.878 749.553,-124.963"/>
<polygon fill="#9a32cd" stroke="#9a32cd" points="648.55,-98.3305 638.051,-99.7569 647.148,-105.189 648.55,-98.3305"/>
<text text-anchor="middle" x="691" y="-123" font-family="Helvetica,sans-Serif" font-size="10.00"> Entries</text>
</g>
<!-- Node13 -->
<g id="node24" class="node"><title>Node13</title>
<a xlink:href="structant_1_1_unpacker_acqu_config_1_1scaler__mapping__t_1_1entry__t.html" target="_top" xlink:title="ant::UnpackerAcquConfig\l::scaler_mapping_t::entry_t">
<polygon fill="white" stroke="black" points="268.5,-69 268.5,-103 403.5,-103 403.5,-69 268.5,-69"/>
<text text-anchor="start" x="276.5" y="-90" font-family="Helvetica,sans-Serif" font-size="10.00">ant::UnpackerAcquConfig</text>
<text text-anchor="middle" x="336" y="-77" font-family="Helvetica,sans-Serif" font-size="10.00">::scaler_mapping_t::entry_t</text>
</a>
</g>
<!-- Node13&#45;&gt;Node12 -->
<g id="edge24" class="edge"><title>Node13&#45;&gt;Node12</title>
<path fill="none" stroke="#9a32cd" stroke-dasharray="5,2" d="M414.087,-86C440.479,-86 469.792,-86 495.636,-86"/>
<polygon fill="#9a32cd" stroke="#9a32cd" points="413.747,-82.5001 403.747,-86 413.747,-89.5001 413.747,-82.5001"/>
<text text-anchor="middle" x="456" y="-90" font-family="Helvetica,sans-Serif" font-size="10.00"> elements</text>
</g>
<!-- Node14 -->
<g id="node26" class="node"><title>Node14</title>
<a xlink:href="structant_1_1_unpacker_acqu_config_1_1_raw_channel__t.html" target="_top" xlink:title="ant::UnpackerAcquConfig\l::RawChannel_t\&lt; std::uint32_t \&gt;">
<polygon fill="white" stroke="black" points="0.5,-69 0.5,-103 159.5,-103 159.5,-69 0.5,-69"/>
<text text-anchor="start" x="8.5" y="-90" font-family="Helvetica,sans-Serif" font-size="10.00">ant::UnpackerAcquConfig</text>
<text text-anchor="middle" x="80" y="-77" font-family="Helvetica,sans-Serif" font-size="10.00">::RawChannel_t&lt; std::uint32_t &gt;</text>
</a>
</g>
<!-- Node14&#45;&gt;Node13 -->
<g id="edge26" class="edge"><title>Node14&#45;&gt;Node13</title>
<path fill="none" stroke="#9a32cd" stroke-dasharray="5,2" d="M169.936,-86C202.202,-86 238.018,-86 268.103,-86"/>
<polygon fill="#9a32cd" stroke="#9a32cd" points="169.597,-82.5001 159.597,-86 169.597,-89.5001 169.597,-82.5001"/>
<text text-anchor="middle" x="208" y="-90" font-family="Helvetica,sans-Serif" font-size="10.00"> RawChannel</text>
</g>
<!-- Node15 -->
<g id="node28" class="node"><title>Node15</title>
<a xlink:href="structant_1_1std__ext_1_1mapped__vectors.html" target="_top" xlink:title="ant::std_ext::mapped\l_vectors\&lt; std::uint16\l_t, std::uint16_t \&gt;">
<polygon fill="white" stroke="black" points="975.5,-106.5 975.5,-153.5 1084.5,-153.5 1084.5,-106.5 975.5,-106.5"/>
<text text-anchor="start" x="983.5" y="-140.5" font-family="Helvetica,sans-Serif" font-size="10.00">ant::std_ext::mapped</text>
<text text-anchor="start" x="983.5" y="-127.5" font-family="Helvetica,sans-Serif" font-size="10.00">_vectors&lt; std::uint16</text>
<text text-anchor="middle" x="1030" y="-114.5" font-family="Helvetica,sans-Serif" font-size="10.00">_t, std::uint16_t &gt;</text>
</a>
</g>
<!-- Node15&#45;&gt;Node1 -->
<g id="edge28" class="edge"><title>Node15&#45;&gt;Node1</title>
<path fill="none" stroke="#9a32cd" stroke-dasharray="5,2" d="M1094.9,-145.955C1133.66,-155.482 1182.21,-167.418 1218.35,-176.303"/>
<polygon fill="#9a32cd" stroke="#9a32cd" points="1095.31,-142.45 1084.76,-143.462 1093.64,-149.248 1095.31,-142.45"/>
<text text-anchor="middle" x="1161" y="-175" font-family="Helvetica,sans-Serif" font-size="10.00"> hit_storage</text>
</g>
<!-- Node16 -->
<g id="node30" class="node"><title>Node16</title>
<a xlink:href="structant_1_1_t_i_d.html" target="_top" xlink:title="ant::TID">
<polygon fill="white" stroke="black" points="1003.5,-66.5 1003.5,-87.5 1056.5,-87.5 1056.5,-66.5 1003.5,-66.5"/>
<text text-anchor="middle" x="1030" y="-74.5" font-family="Helvetica,sans-Serif" font-size="10.00">ant::TID</text>
</a>
</g>
<!-- Node16&#45;&gt;Node1 -->
<g id="edge30" class="edge"><title>Node16&#45;&gt;Node1</title>
<path fill="none" stroke="#9a32cd" stroke-dasharray="5,2" d="M1066.38,-85.8199C1078.46,-89.0145 1091.9,-92.8636 1104,-97 1147.74,-111.951 1159.82,-114.159 1200,-137 1217.77,-147.099 1236.26,-161.008 1249.78,-171.899"/>
<polygon fill="#9a32cd" stroke="#9a32cd" points="1067.18,-82.4113 1056.62,-83.2984 1065.43,-89.1888 1067.18,-82.4113"/>
<text text-anchor="middle" x="1161" y="-141" font-family="Helvetica,sans-Serif" font-size="10.00"> id</text>
</g>
<!-- Node17 -->
<g id="node32" class="node"><title>Node17</title>
<a xlink:href="classant_1_1printable__traits.html" target="_top" xlink:title="ant::printable_traits">
<polygon fill="white" stroke="black" points="760,-66.5 760,-87.5 860,-87.5 860,-66.5 760,-66.5"/>
<text text-anchor="middle" x="810" y="-74.5" font-family="Helvetica,sans-Serif" font-size="10.00">ant::printable_traits</text>
</a>
</g>
<!-- Node17&#45;&gt;Node16 -->
<g id="edge32" class="edge"><title>Node17&#45;&gt;Node16</title>
<path fill="none" stroke="midnightblue" d="M870.399,-77C913.95,-77 970.622,-77 1003.39,-77"/>
<polygon fill="midnightblue" stroke="midnightblue" points="870.197,-73.5001 860.197,-77 870.197,-80.5001 870.197,-73.5001"/>
</g>
<!-- Node18 -->
<g id="node34" class="node"><title>Node18</title>
<polygon fill="white" stroke="#bfbfbf" points="957,-0.5 957,-47.5 1103,-47.5 1103,-0.5 957,-0.5"/>
<text text-anchor="start" x="965" y="-34.5" font-family="Helvetica,sans-Serif" font-size="10.00">std::vector&lt; std::vector</text>
<text text-anchor="start" x="965" y="-21.5" font-family="Helvetica,sans-Serif" font-size="10.00">&lt; const UnpackerAcquConfig</text>
<text text-anchor="middle" x="1030" y="-8.5" font-family="Helvetica,sans-Serif" font-size="10.00">::hit_mapping_t * &gt; &gt;</text>
</g>
<!-- Node18&#45;&gt;Node1 -->
<g id="edge34" class="edge"><title>Node18&#45;&gt;Node1</title>
<path fill="none" stroke="#9a32cd" stroke-dasharray="5,2" d="M1113.12,-42.9447C1142.62,-52.4727 1174.73,-66.3132 1200,-86 1230.02,-109.385 1251.85,-149.299 1262.56,-171.962"/>
<polygon fill="#9a32cd" stroke="#9a32cd" points="1113.82,-39.4973 1103.23,-39.8765 1111.75,-46.1829 1113.82,-39.4973"/>
<text text-anchor="middle" x="1161" y="-90" font-family="Helvetica,sans-Serif" font-size="10.00"> hit_mappings_ptr</text>
</g>
<!-- Node19&#45;&gt;Node1 -->
<g id="edge36" class="edge"><title>Node19&#45;&gt;Node1</title>
<path fill="none" stroke="#9a32cd" stroke-dasharray="5,2" d="M1097.09,-227.753C1128.42,-221.424 1166.17,-213.587 1200,-206 1205.98,-204.659 1212.23,-203.208 1218.44,-201.739"/>
<polygon fill="#9a32cd" stroke="#9a32cd" points="1096.27,-224.348 1087.16,-229.753 1097.66,-231.21 1096.27,-224.348"/>
<text text-anchor="middle" x="1161" y="-225" font-family="Helvetica,sans-Serif" font-size="10.00"> info</text>
</g>
<!-- Node20 -->
<g id="node38" class="node"><title>Node20</title>
<polygon fill="white" stroke="#bfbfbf" points="744.5,-177.5 744.5,-224.5 875.5,-224.5 875.5,-177.5 744.5,-177.5"/>
<text text-anchor="start" x="752.5" y="-211.5" font-family="Helvetica,sans-Serif" font-size="10.00">std::vector&lt; ant::unpacker</text>
<text text-anchor="start" x="752.5" y="-198.5" font-family="Helvetica,sans-Serif" font-size="10.00">::acqu::FileFormatBase::</text>
<text text-anchor="middle" x="810" y="-185.5" font-family="Helvetica,sans-Serif" font-size="10.00">Info::HardwareModule &gt;</text>
</g>
<!-- Node20&#45;&gt;Node19 -->
<g id="edge38" class="edge"><title>Node20&#45;&gt;Node19</title>
<path fill="none" stroke="#9a32cd" stroke-dasharray="5,2" d="M885.657,-214.756C914.225,-219.95 946.229,-225.769 972.828,-230.605"/>
<polygon fill="#9a32cd" stroke="#9a32cd" points="886.174,-211.293 875.709,-212.947 884.922,-218.18 886.174,-211.293"/>
<text text-anchor="middle" x="916" y="-227" font-family="Helvetica,sans-Serif" font-size="10.00"> Modules</text>
</g>
<!-- Node21&#45;&gt;Node20 -->
<g id="edge40" class="edge"><title>Node21&#45;&gt;Node20</title>
<path fill="none" stroke="#9a32cd" stroke-dasharray="5,2" d="M634.644,-201C668.827,-201 710.142,-201 744.08,-201"/>
<polygon fill="#9a32cd" stroke="#9a32cd" points="634.28,-197.5 624.28,-201 634.28,-204.5 634.28,-197.5"/>
<text text-anchor="middle" x="691" y="-205" font-family="Helvetica,sans-Serif" font-size="10.00"> elements</text>
</g>
</g>
</svg>
