<?xml version="1.0" encoding="UTF-8" standalone="no"?>
<!DOCTYPE svg PUBLIC "-//W3C//DTD SVG 1.1//EN"
 "http://www.w3.org/Graphics/SVG/1.1/DTD/svg11.dtd">
<!-- Generated by graphviz version 2.26.3 (20100126.1600)
 -->
<!-- Title: ant::calibration::gui::ManagerWindow Pages: 1 -->
<svg width="226pt" height="116pt"
 viewBox="0.00 0.00 226.00 116.00" xmlns="http://www.w3.org/2000/svg" xmlns:xlink="http://www.w3.org/1999/xlink">
<g id="graph1" class="graph" transform="scale(1 1) rotate(0) translate(4 112)">
<title>ant::calibration::gui::ManagerWindow</title>
<polygon fill="white" stroke="white" points="-4,5 -4,-112 223,-112 223,5 -4,5"/>
<!-- Node1 -->
<g id="node1" class="node"><title>Node1</title>
<polygon fill="#bfbfbf" stroke="black" points="48.5,-1 48.5,-35 147.5,-35 147.5,-1 48.5,-1"/>
<text text-anchor="start" x="56.5" y="-22" font-family="Helvetica,sans-Serif" font-size="10.00">ant::calibration::gui</text>
<text text-anchor="middle" x="98" y="-9" font-family="Helvetica,sans-Serif" font-size="10.00">::ManagerWindow</text>
</g>
<!-- Node2 -->
<g id="node2" class="node"><title>Node2</title>
<polygon fill="white" stroke="#bfbfbf" points="-0.5,-79.5 -0.5,-100.5 78.5,-100.5 78.5,-79.5 -0.5,-79.5"/>
<text text-anchor="middle" x="39" y="-87.5" font-family="Helvetica,sans-Serif" font-size="10.00">TGMainFrame</text>
</g>
<!-- Node2&#45;&gt;Node1 -->
<g id="edge2" class="edge"><title>Node2&#45;&gt;Node1</title>
<path fill="none" stroke="midnightblue" d="M54.1742,-71.4823C63.3692,-60.2613 75.0164,-46.0478 83.9921,-35.0944"/>
<polygon fill="midnightblue" stroke="midnightblue" points="51.3367,-69.423 47.7057,-79.3762 56.7511,-73.8597 51.3367,-69.423"/>
</g>
<!-- Node3 -->
<g id="node4" class="node"><title>Node3</title>
<a xlink:href="classant_1_1calibration_1_1gui_1_1_manager_window__traits.html" target="_top" xlink:title="ant::calibration::gui\l::ManagerWindow_traits">
<polygon fill="white" stroke="black" points="96,-73 96,-107 218,-107 218,-73 96,-73"/>
<text text-anchor="start" x="104" y="-94" font-family="Helvetica,sans-Serif" font-size="10.00">ant::calibration::gui</text>
<text text-anchor="middle" x="157" y="-81" font-family="Helvetica,sans-Serif" font-size="10.00">::ManagerWindow_traits</text>
</a>
</g>
<!-- Node3&#45;&gt;Node1 -->
<g id="edge4" class="edge"><title>Node3&#45;&gt;Node1</title>
<path fill="none" stroke="midnightblue" d="M136.584,-65.0858C128.578,-55.3151 119.582,-44.3372 112.292,-35.4407"/>
<polygon fill="midnightblue" stroke="midnightblue" points="133.972,-67.4206 143.018,-72.937 139.387,-62.9838 133.972,-67.4206"/>
</g>
</g>
</svg>
