<?xml version="1.0" encoding="UTF-8" standalone="no"?>
<!DOCTYPE svg PUBLIC "-//W3C//DTD SVG 1.1//EN"
 "http://www.w3.org/Graphics/SVG/1.1/DTD/svg11.dtd">
<!-- Generated by graphviz version 2.26.3 (20100126.1600)
 -->
<!-- Title: ant::calibration::CB_TimeWalk::TheGUI Pages: 1 -->
<svg width="962pt" height="276pt"
 viewBox="0.00 0.00 962.00 276.00" xmlns="http://www.w3.org/2000/svg" xmlns:xlink="http://www.w3.org/1999/xlink">
<g id="graph1" class="graph" transform="scale(1 1) rotate(0) translate(4 272)">
<title>ant::calibration::CB_TimeWalk::TheGUI</title>
<polygon fill="white" stroke="white" points="-4,5 -4,-272 959,-272 959,5 -4,5"/>
<!-- Node1 -->
<g id="node1" class="node"><title>Node1</title>
<polygon fill="#bfbfbf" stroke="black" points="846.5,-180 846.5,-214 953.5,-214 953.5,-180 846.5,-180"/>
<text text-anchor="start" x="854.5" y="-201" font-family="Helvetica,sans-Serif" font-size="10.00">ant::calibration::CB</text>
<text text-anchor="middle" x="900" y="-188" font-family="Helvetica,sans-Serif" font-size="10.00">_TimeWalk::TheGUI</text>
</g>
<!-- Node2 -->
<g id="node2" class="node"><title>Node2</title>
<a xlink:href="classant_1_1calibration_1_1gui_1_1_calib_module__traits.html" target="_top" xlink:title="ant::calibration::gui\l::CalibModule_traits">
<polygon fill="white" stroke="black" points="644,-232 644,-266 748,-266 748,-232 644,-232"/>
<text text-anchor="start" x="652" y="-253" font-family="Helvetica,sans-Serif" font-size="10.00">ant::calibration::gui</text>
<text text-anchor="middle" x="696" y="-240" font-family="Helvetica,sans-Serif" font-size="10.00">::CalibModule_traits</text>
</a>
</g>
<!-- Node2&#45;&gt;Node1 -->
<g id="edge2" class="edge"><title>Node2&#45;&gt;Node1</title>
<path fill="none" stroke="midnightblue" d="M757.77,-233.255C786.003,-226.058 819.132,-217.613 846.311,-210.685"/>
<polygon fill="midnightblue" stroke="midnightblue" points="756.831,-229.882 748.006,-235.744 758.56,-236.665 756.831,-229.882"/>
</g>
<!-- Node3 -->
<g id="node4" class="node"><title>Node3</title>
<polygon fill="white" stroke="#bfbfbf" points="630,-180 630,-214 762,-214 762,-180 630,-180"/>
<text text-anchor="start" x="638" y="-201" font-family="Helvetica,sans-Serif" font-size="10.00">std::vector&lt; std::shared</text>
<text text-anchor="middle" x="696" y="-188" font-family="Helvetica,sans-Serif" font-size="10.00">_ptr&lt; gui::FitTimewalk &gt; &gt;</text>
</g>
<!-- Node3&#45;&gt;Node1 -->
<g id="edge4" class="edge"><title>Node3&#45;&gt;Node1</title>
<path fill="none" stroke="#9a32cd" stroke-dasharray="5,2" d="M772.278,-197C796.914,-197 823.693,-197 846.337,-197"/>
<polygon fill="#9a32cd" stroke="#9a32cd" points="772.233,-193.5 762.233,-197 772.233,-200.5 772.233,-193.5"/>
<text text-anchor="middle" x="804" y="-201" font-family="Helvetica,sans-Serif" font-size="10.00"> timewalks</text>
</g>
<!-- Node4 -->
<g id="node6" class="node"><title>Node4</title>
<a xlink:href="classant_1_1calibration_1_1gui_1_1_cal_canvas.html" target="_top" xlink:title="ant::calibration::gui\l::CalCanvas">
<polygon fill="white" stroke="black" points="646.5,-128 646.5,-162 745.5,-162 745.5,-128 646.5,-128"/>
<text text-anchor="start" x="654.5" y="-149" font-family="Helvetica,sans-Serif" font-size="10.00">ant::calibration::gui</text>
<text text-anchor="middle" x="696" y="-136" font-family="Helvetica,sans-Serif" font-size="10.00">::CalCanvas</text>
</a>
</g>
<!-- Node4&#45;&gt;Node1 -->
<g id="edge6" class="edge"><title>Node4&#45;&gt;Node1</title>
<path fill="none" stroke="#9a32cd" stroke-dasharray="5,2" d="M755.723,-151.987C778.591,-155.432 804.757,-160.317 828,-167 839.843,-170.405 852.364,-175.18 863.585,-179.921"/>
<polygon fill="#9a32cd" stroke="#9a32cd" points="756.205,-148.52 745.807,-150.551 755.202,-155.448 756.205,-148.52"/>
<text text-anchor="middle" x="804" y="-184" font-family="Helvetica,sans-Serif" font-size="10.00"> c_fit</text>
<text text-anchor="middle" x="804" y="-171" font-family="Helvetica,sans-Serif" font-size="10.00">c_extra</text>
</g>
<!-- Node5 -->
<g id="node8" class="node"><title>Node5</title>
<polygon fill="white" stroke="#bfbfbf" points="422,-246.5 422,-267.5 478,-267.5 478,-246.5 422,-246.5"/>
<text text-anchor="middle" x="450" y="-254.5" font-family="Helvetica,sans-Serif" font-size="10.00">TCanvas</text>
</g>
<!-- Node5&#45;&gt;Node4 -->
<g id="edge8" class="edge"><title>Node5&#45;&gt;Node4</title>
<path fill="none" stroke="midnightblue" d="M488.224,-261.83C524.435,-264.18 578.17,-261.581 612,-232 633.279,-213.394 610.914,-191.851 630,-171 634.573,-166.004 640.228,-161.954 646.288,-158.675"/>
<polygon fill="midnightblue" stroke="midnightblue" points="488.298,-258.325 478.049,-261.01 487.736,-265.302 488.298,-258.325"/>
</g>
<!-- Node6 -->
<g id="node10" class="node"><title>Node6</title>
<a xlink:href="classant_1_1calibration_1_1gui_1_1update__notify__traits.html" target="_top" xlink:title="ant::calibration::gui\l::update_notify_traits">
<polygon fill="white" stroke="black" points="0,-188 0,-222 108,-222 108,-188 0,-188"/>
<text text-anchor="start" x="8" y="-209" font-family="Helvetica,sans-Serif" font-size="10.00">ant::calibration::gui</text>
<text text-anchor="middle" x="54" y="-196" font-family="Helvetica,sans-Serif" font-size="10.00">::update_notify_traits</text>
</a>
</g>
<!-- Node6&#45;&gt;Node4 -->
<g id="edge10" class="edge"><title>Node6&#45;&gt;Node4</title>
<path fill="none" stroke="midnightblue" d="M118.077,-209.126C210.141,-213.94 384.954,-218.917 532,-199 568.428,-194.066 577.055,-189.407 612,-178 613.145,-177.626 632.581,-169.994 652.467,-162.164"/>
<polygon fill="midnightblue" stroke="midnightblue" points="118.252,-205.631 108.078,-208.587 117.875,-212.621 118.252,-205.631"/>
</g>
<!-- Node11 -->
<g id="node20" class="node"><title>Node11</title>
<a xlink:href="classant_1_1calibration_1_1gui_1_1_indicator.html" target="_top" xlink:title="ant::calibration::gui\l::Indicator">
<polygon fill="white" stroke="black" points="188.5,-156 188.5,-190 287.5,-190 287.5,-156 188.5,-156"/>
<text text-anchor="start" x="196.5" y="-177" font-family="Helvetica,sans-Serif" font-size="10.00">ant::calibration::gui</text>
<text text-anchor="middle" x="238" y="-164" font-family="Helvetica,sans-Serif" font-size="10.00">::Indicator</text>
</a>
</g>
<!-- Node6&#45;&gt;Node11 -->
<g id="edge22" class="edge"><title>Node6&#45;&gt;Node11</title>
<path fill="none" stroke="midnightblue" d="M118.218,-193.832C141.185,-189.837 166.7,-185.4 188.26,-181.65"/>
<polygon fill="midnightblue" stroke="midnightblue" points="117.463,-190.41 108.211,-195.572 118.663,-197.307 117.463,-190.41"/>
</g>
<!-- Node7 -->
<g id="node12" class="node"><title>Node7</title>
<polygon fill="white" stroke="#bfbfbf" points="368,-104 368,-138 532,-138 532,-104 368,-104"/>
<text text-anchor="start" x="376" y="-125" font-family="Helvetica,sans-Serif" font-size="10.00">std::stack&lt; ant::calibration</text>
<text text-anchor="middle" x="450" y="-112" font-family="Helvetica,sans-Serif" font-size="10.00">::gui::FitFunction::SavedState_t &gt;</text>
</g>
<!-- Node7&#45;&gt;Node4 -->
<g id="edge12" class="edge"><title>Node7&#45;&gt;Node4</title>
<path fill="none" stroke="#9a32cd" stroke-dasharray="5,2" d="M542.198,-124.183C565.054,-125.505 589.456,-127.371 612,-130 623.183,-131.304 635.129,-133.156 646.4,-135.115"/>
<polygon fill="#9a32cd" stroke="#9a32cd" points="542.341,-120.685 532.163,-123.63 541.956,-127.675 542.341,-120.685"/>
<text text-anchor="middle" x="581" y="-134" font-family="Helvetica,sans-Serif" font-size="10.00"> UndoStack</text>
</g>
<!-- Node8 -->
<g id="node14" class="node"><title>Node8</title>
<a xlink:title="STL class. ">
<polygon fill="white" stroke="#bfbfbf" points="194.5,-110.5 194.5,-131.5 281.5,-131.5 281.5,-110.5 194.5,-110.5"/>
<text text-anchor="middle" x="238" y="-118.5" font-family="Helvetica,sans-Serif" font-size="10.00">std::vector&lt; T &gt;</text>
</a>
</g>
<!-- Node8&#45;&gt;Node7 -->
<g id="edge14" class="edge"><title>Node8&#45;&gt;Node7</title>
<path fill="none" stroke="#9a32cd" stroke-dasharray="5,2" d="M291.922,-121C314.955,-121 342.354,-121 367.818,-121"/>
<polygon fill="#9a32cd" stroke="#9a32cd" points="291.67,-117.5 281.669,-121 291.669,-124.5 291.67,-117.5"/>
<text text-anchor="middle" x="328" y="-125" font-family="Helvetica,sans-Serif" font-size="10.00"> elements</text>
</g>
<!-- Node9 -->
<g id="node16" class="node"><title>Node9</title>
<polygon fill="white" stroke="#bfbfbf" points="39.5,-110.5 39.5,-131.5 68.5,-131.5 68.5,-110.5 39.5,-110.5"/>
<text text-anchor="middle" x="54" y="-118.5" font-family="Helvetica,sans-Serif" font-size="10.00">T</text>
</g>
<!-- Node9&#45;&gt;Node8 -->
<g id="edge16" class="edge"><title>Node9&#45;&gt;Node8</title>
<path fill="none" stroke="#9a32cd" stroke-dasharray="5,2" d="M79.0351,-121C108.645,-121 158.447,-121 194.427,-121"/>
<polygon fill="#9a32cd" stroke="#9a32cd" points="78.7465,-117.5 68.7465,-121 78.7464,-124.5 78.7465,-117.5"/>
<text text-anchor="middle" x="148" y="-125" font-family="Helvetica,sans-Serif" font-size="10.00"> elements</text>
</g>
<!-- Node10 -->
<g id="node18" class="node"><title>Node10</title>
<polygon fill="white" stroke="#bfbfbf" points="389,-156 389,-190 511,-190 511,-156 389,-156"/>
<text text-anchor="start" x="397" y="-177" font-family="Helvetica,sans-Serif" font-size="10.00">std::list&lt; ant::calibration</text>
<text text-anchor="middle" x="450" y="-164" font-family="Helvetica,sans-Serif" font-size="10.00">::gui::Indicator * &gt;</text>
</g>
<!-- Node10&#45;&gt;Node4 -->
<g id="edge18" class="edge"><title>Node10&#45;&gt;Node4</title>
<path fill="none" stroke="#9a32cd" stroke-dasharray="5,2" d="M521.118,-164.905C561.242,-160.338 610.384,-154.745 646.347,-150.652"/>
<polygon fill="#9a32cd" stroke="#9a32cd" points="520.665,-161.434 511.125,-166.043 521.457,-168.389 520.665,-161.434"/>
<text text-anchor="middle" x="581" y="-165" font-family="Helvetica,sans-Serif" font-size="10.00"> indicators</text>
</g>
<!-- Node11&#45;&gt;Node10 -->
<g id="edge20" class="edge"><title>Node11&#45;&gt;Node10</title>
<path fill="none" stroke="#9a32cd" stroke-dasharray="5,2" d="M297.912,-173C326.348,-173 360.278,-173 388.869,-173"/>
<polygon fill="#9a32cd" stroke="#9a32cd" points="297.705,-169.5 287.705,-173 297.705,-176.5 297.705,-169.5"/>
<text text-anchor="middle" x="328" y="-177" font-family="Helvetica,sans-Serif" font-size="10.00"> elements</text>
</g>
<!-- Node12 -->
<g id="node23" class="node"><title>Node12</title>
<a xlink:href="structant_1_1calibration_1_1gui_1_1_cal_canvas_1_1axis__settings__t.html" target="_top" xlink:title="ant::calibration::gui\l::CalCanvas::axis_settings_t">
<polygon fill="white" stroke="black" points="378.5,-52 378.5,-86 521.5,-86 521.5,-52 378.5,-52"/>
<text text-anchor="start" x="386.5" y="-73" font-family="Helvetica,sans-Serif" font-size="10.00">ant::calibration::gui</text>
<text text-anchor="middle" x="450" y="-60" font-family="Helvetica,sans-Serif" font-size="10.00">::CalCanvas::axis_settings_t</text>
</a>
</g>
<!-- Node12&#45;&gt;Node4 -->
<g id="edge24" class="edge"><title>Node12&#45;&gt;Node4</title>
<path fill="none" stroke="#9a32cd" stroke-dasharray="5,2" d="M531.633,-84.8961C557.623,-90.8186 586.291,-98.2625 612,-107 628.973,-112.769 647.173,-120.763 662.277,-127.932"/>
<polygon fill="#9a32cd" stroke="#9a32cd" points="532.338,-81.4674 521.815,-82.7012 530.811,-88.2987 532.338,-81.4674"/>
<text text-anchor="middle" x="581" y="-111" font-family="Helvetica,sans-Serif" font-size="10.00"> axis_settings</text>
</g>
<!-- Node13 -->
<g id="node25" class="node"><title>Node13</title>
<a xlink:href="classant_1_1calibration_1_1gui_1_1_fit_function.html" target="_top" xlink:title="ant::calibration::gui\l::FitFunction">
<polygon fill="white" stroke="black" points="400.5,-0 400.5,-34 499.5,-34 499.5,-0 400.5,-0"/>
<text text-anchor="start" x="408.5" y="-21" font-family="Helvetica,sans-Serif" font-size="10.00">ant::calibration::gui</text>
<text text-anchor="middle" x="450" y="-8" font-family="Helvetica,sans-Serif" font-size="10.00">::FitFunction</text>
</a>
</g>
<!-- Node13&#45;&gt;Node4 -->
<g id="edge26" class="edge"><title>Node13&#45;&gt;Node4</title>
<path fill="none" stroke="#9a32cd" stroke-dasharray="5,2" d="M509.748,-31.4237C541.469,-40.5869 580.329,-54.2856 612,-73 637.962,-88.3408 663.673,-111.945 679.677,-127.908"/>
<polygon fill="#9a32cd" stroke="#9a32cd" points="510.293,-27.9412 499.719,-28.6074 508.4,-34.6805 510.293,-27.9412"/>
<text text-anchor="middle" x="581" y="-77" font-family="Helvetica,sans-Serif" font-size="10.00"> func</text>
</g>
</g>
</svg>
