<?xml version="1.0" encoding="UTF-8" standalone="no"?>
<!DOCTYPE svg PUBLIC "-//W3C//DTD SVG 1.1//EN"
 "http://www.w3.org/Graphics/SVG/1.1/DTD/svg11.dtd">
<!-- Generated by graphviz version 2.26.3 (20100126.1600)
 -->
<!-- Title: ant::ExpConfig::Setup Pages: 1 -->
<svg width="616pt" height="302pt"
 viewBox="0.00 0.00 616.00 302.00" xmlns="http://www.w3.org/2000/svg" xmlns:xlink="http://www.w3.org/1999/xlink">
<g id="graph1" class="graph" transform="scale(1 1) rotate(0) translate(4 298)">
<title>ant::ExpConfig::Setup</title>
<polygon fill="white" stroke="white" points="-4,5 -4,-298 613,-298 613,5 -4,5"/>
<!-- Node1 -->
<g id="node1" class="node"><title>Node1</title>
<polygon fill="#bfbfbf" stroke="black" points="0.5,-110.5 0.5,-131.5 113.5,-131.5 113.5,-110.5 0.5,-110.5"/>
<text text-anchor="middle" x="57" y="-118.5" font-family="Helvetica,sans-Serif" font-size="10.00">ant::ExpConfig::Setup</text>
</g>
<!-- Node2 -->
<g id="node3" class="node"><title>Node2</title>
<a xlink:href="classant_1_1expconfig_1_1_setup.html" target="_top" xlink:title="The Setup class serves as a base class for all known beamtime setup configurations. ">
<polygon fill="white" stroke="black" points="150,-110.5 150,-131.5 260,-131.5 260,-110.5 150,-110.5"/>
<text text-anchor="middle" x="205" y="-118.5" font-family="Helvetica,sans-Serif" font-size="10.00">ant::expconfig::Setup</text>
</a>
</g>
<!-- Node1&#45;&gt;Node2 -->
<g id="edge2" class="edge"><title>Node1&#45;&gt;Node2</title>
<path fill="none" stroke="midnightblue" d="M123.819,-121C132.43,-121 141.173,-121 149.575,-121"/>
<polygon fill="midnightblue" stroke="midnightblue" points="123.797,-117.5 113.797,-121 123.797,-124.5 123.797,-117.5"/>
</g>
<!-- Node3 -->
<g id="node5" class="node"><title>Node3</title>
<a xlink:href="classant_1_1expconfig_1_1setup_1_1_setup__2007___base.html" target="_top" xlink:title="Common base class for all Setups of the 2014 Ent Point Tagger beam times. ">
<polygon fill="white" stroke="black" points="310,-208 310,-242 418,-242 418,-208 310,-208"/>
<text text-anchor="start" x="318" y="-229" font-family="Helvetica,sans-Serif" font-size="10.00">ant::expconfig::setup</text>
<text text-anchor="middle" x="364" y="-216" font-family="Helvetica,sans-Serif" font-size="10.00">::Setup_2007_Base</text>
</a>
</g>
<!-- Node2&#45;&gt;Node3 -->
<g id="edge4" class="edge"><title>Node2&#45;&gt;Node3</title>
<path fill="none" stroke="midnightblue" d="M222.149,-138.92C239.46,-156.186 267.625,-182.11 296,-199 301.43,-202.232 307.333,-205.194 313.317,-207.867"/>
<polygon fill="midnightblue" stroke="midnightblue" points="224.508,-136.327 214.997,-131.659 219.521,-141.239 224.508,-136.327"/>
</g>
<!-- Node6 -->
<g id="node11" class="node"><title>Node6</title>
<a xlink:href="classant_1_1expconfig_1_1setup_1_1_setup__2012__12___compton.html" target="_top" xlink:title="ant::expconfig::setup\l::Setup_2012_12_Compton">
<polygon fill="white" stroke="black" points="296.5,-156 296.5,-190 431.5,-190 431.5,-156 296.5,-156"/>
<text text-anchor="start" x="304.5" y="-177" font-family="Helvetica,sans-Serif" font-size="10.00">ant::expconfig::setup</text>
<text text-anchor="middle" x="364" y="-164" font-family="Helvetica,sans-Serif" font-size="10.00">::Setup_2012_12_Compton</text>
</a>
</g>
<!-- Node2&#45;&gt;Node6 -->
<g id="edge10" class="edge"><title>Node2&#45;&gt;Node6</title>
<path fill="none" stroke="midnightblue" d="M246.879,-134.696C266.781,-141.205 290.77,-149.051 311.841,-155.942"/>
<polygon fill="midnightblue" stroke="midnightblue" points="247.769,-131.305 237.176,-131.523 245.593,-137.958 247.769,-131.305"/>
</g>
<!-- Node7 -->
<g id="node13" class="node"><title>Node7</title>
<a xlink:href="classant_1_1expconfig_1_1setup_1_1_setup__2014___e_p_t.html" target="_top" xlink:title="Common base class for all Setups of the 2014 Ent Point Tagger beam times. ">
<polygon fill="white" stroke="black" points="310,-104 310,-138 418,-138 418,-104 310,-104"/>
<text text-anchor="start" x="318" y="-125" font-family="Helvetica,sans-Serif" font-size="10.00">ant::expconfig::setup</text>
<text text-anchor="middle" x="364" y="-112" font-family="Helvetica,sans-Serif" font-size="10.00">::Setup_2014_EPT</text>
</a>
</g>
<!-- Node2&#45;&gt;Node7 -->
<g id="edge12" class="edge"><title>Node2&#45;&gt;Node7</title>
<path fill="none" stroke="midnightblue" d="M270.492,-121C283.543,-121 297.115,-121 309.739,-121"/>
<polygon fill="midnightblue" stroke="midnightblue" points="270.164,-117.5 260.164,-121 270.164,-124.5 270.164,-117.5"/>
</g>
<!-- Node11 -->
<g id="node21" class="node"><title>Node11</title>
<a xlink:href="classant_1_1expconfig_1_1setup_1_1_setup__2015__01___pion.html" target="_top" xlink:title="Ant Setup for Rare Pion Test Beamtime in January 2015 &amp; MC studies. ">
<polygon fill="white" stroke="black" points="306.5,-52 306.5,-86 421.5,-86 421.5,-52 306.5,-52"/>
<text text-anchor="start" x="314.5" y="-73" font-family="Helvetica,sans-Serif" font-size="10.00">ant::expconfig::setup</text>
<text text-anchor="middle" x="364" y="-60" font-family="Helvetica,sans-Serif" font-size="10.00">::Setup_2015_01_Pion</text>
</a>
</g>
<!-- Node2&#45;&gt;Node11 -->
<g id="edge20" class="edge"><title>Node2&#45;&gt;Node11</title>
<path fill="none" stroke="midnightblue" d="M246.879,-107.304C266.781,-100.795 290.77,-92.9495 311.841,-86.0582"/>
<polygon fill="midnightblue" stroke="midnightblue" points="245.593,-104.042 237.176,-110.477 247.769,-110.695 245.593,-104.042"/>
</g>
<!-- Node12 -->
<g id="node23" class="node"><title>Node12</title>
<a xlink:href="classant_1_1expconfig_1_1setup_1_1_setup___c_b_source_calib.html" target="_top" xlink:title="ant::expconfig::setup\l::Setup_CBSourceCalib">
<polygon fill="white" stroke="black" points="303.5,-0 303.5,-34 424.5,-34 424.5,-0 303.5,-0"/>
<text text-anchor="start" x="311.5" y="-21" font-family="Helvetica,sans-Serif" font-size="10.00">ant::expconfig::setup</text>
<text text-anchor="middle" x="364" y="-8" font-family="Helvetica,sans-Serif" font-size="10.00">::Setup_CBSourceCalib</text>
</a>
</g>
<!-- Node2&#45;&gt;Node12 -->
<g id="edge22" class="edge"><title>Node2&#45;&gt;Node12</title>
<path fill="none" stroke="midnightblue" d="M222.149,-103.08C239.46,-85.8135 267.625,-59.89 296,-43 301.43,-39.7676 307.333,-36.8061 313.317,-34.1329"/>
<polygon fill="midnightblue" stroke="midnightblue" points="219.521,-100.761 214.997,-110.341 224.508,-105.673 219.521,-100.761"/>
</g>
<!-- Node4 -->
<g id="node7" class="node"><title>Node4</title>
<a xlink:href="classant_1_1expconfig_1_1setup_1_1_setup__2007__06.html" target="_top" xlink:title="Ant Setup for the Juni 2007 beam time. ">
<polygon fill="white" stroke="black" points="484,-260 484,-294 592,-294 592,-260 484,-260"/>
<text text-anchor="start" x="492" y="-281" font-family="Helvetica,sans-Serif" font-size="10.00">ant::expconfig::setup</text>
<text text-anchor="middle" x="538" y="-268" font-family="Helvetica,sans-Serif" font-size="10.00">::Setup_2007_06</text>
</a>
</g>
<!-- Node3&#45;&gt;Node4 -->
<g id="edge6" class="edge"><title>Node3&#45;&gt;Node4</title>
<path fill="none" stroke="midnightblue" d="M427.862,-244.085C446.274,-249.588 466.177,-255.536 483.933,-260.842"/>
<polygon fill="midnightblue" stroke="midnightblue" points="428.684,-240.678 418.101,-241.168 426.68,-247.385 428.684,-240.678"/>
</g>
<!-- Node5 -->
<g id="node9" class="node"><title>Node5</title>
<a xlink:href="classant_1_1expconfig_1_1setup_1_1_setup__2007__07.html" target="_top" xlink:title="Ant Setup for the July 2007 beam time. ">
<polygon fill="white" stroke="black" points="484,-208 484,-242 592,-242 592,-208 484,-208"/>
<text text-anchor="start" x="492" y="-229" font-family="Helvetica,sans-Serif" font-size="10.00">ant::expconfig::setup</text>
<text text-anchor="middle" x="538" y="-216" font-family="Helvetica,sans-Serif" font-size="10.00">::Setup_2007_07</text>
</a>
</g>
<!-- Node3&#45;&gt;Node5 -->
<g id="edge8" class="edge"><title>Node3&#45;&gt;Node5</title>
<path fill="none" stroke="midnightblue" d="M428.117,-225C446.458,-225 466.259,-225 483.933,-225"/>
<polygon fill="midnightblue" stroke="midnightblue" points="428.101,-221.5 418.101,-225 428.101,-228.5 428.101,-221.5"/>
</g>
<!-- Node8 -->
<g id="node15" class="node"><title>Node8</title>
<a xlink:href="classant_1_1expconfig_1_1setup_1_1_setup__2014__07___e_p_t___prod.html" target="_top" xlink:title="Ant Setup for the July 2014 End Point Tagger beam time. ">
<polygon fill="white" stroke="black" points="468,-156 468,-190 608,-190 608,-156 468,-156"/>
<text text-anchor="start" x="476" y="-177" font-family="Helvetica,sans-Serif" font-size="10.00">ant::expconfig::setup</text>
<text text-anchor="middle" x="538" y="-164" font-family="Helvetica,sans-Serif" font-size="10.00">::Setup_2014_07_EPT_Prod</text>
</a>
</g>
<!-- Node7&#45;&gt;Node8 -->
<g id="edge14" class="edge"><title>Node7&#45;&gt;Node8</title>
<path fill="none" stroke="midnightblue" d="M428.117,-140.161C445.422,-145.333 464.028,-150.894 480.92,-155.942"/>
<polygon fill="midnightblue" stroke="midnightblue" points="428.684,-136.678 418.101,-137.168 426.68,-143.385 428.684,-136.678"/>
</g>
<!-- Node9 -->
<g id="node17" class="node"><title>Node9</title>
<a xlink:href="classant_1_1expconfig_1_1setup_1_1_setup__2014__10___e_p_t___prod.html" target="_top" xlink:title="Ant Setup for the October 2014 End Point Tagger beam time. ">
<polygon fill="white" stroke="black" points="468,-104 468,-138 608,-138 608,-104 468,-104"/>
<text text-anchor="start" x="476" y="-125" font-family="Helvetica,sans-Serif" font-size="10.00">ant::expconfig::setup</text>
<text text-anchor="middle" x="538" y="-112" font-family="Helvetica,sans-Serif" font-size="10.00">::Setup_2014_10_EPT_Prod</text>
</a>
</g>
<!-- Node7&#45;&gt;Node9 -->
<g id="edge16" class="edge"><title>Node7&#45;&gt;Node9</title>
<path fill="none" stroke="midnightblue" d="M428.277,-121C441.188,-121 454.816,-121 467.913,-121"/>
<polygon fill="midnightblue" stroke="midnightblue" points="428.101,-117.5 418.101,-121 428.101,-124.5 428.101,-117.5"/>
</g>
<!-- Node10 -->
<g id="node19" class="node"><title>Node10</title>
<a xlink:href="classant_1_1expconfig_1_1setup_1_1_setup__2014__12___e_p_t___prod.html" target="_top" xlink:title="Ant Setup for the December 2014 End Point Tagger beam time. ">
<polygon fill="white" stroke="black" points="468,-52 468,-86 608,-86 608,-52 468,-52"/>
<text text-anchor="start" x="476" y="-73" font-family="Helvetica,sans-Serif" font-size="10.00">ant::expconfig::setup</text>
<text text-anchor="middle" x="538" y="-60" font-family="Helvetica,sans-Serif" font-size="10.00">::Setup_2014_12_EPT_Prod</text>
</a>
</g>
<!-- Node7&#45;&gt;Node10 -->
<g id="edge18" class="edge"><title>Node7&#45;&gt;Node10</title>
<path fill="none" stroke="midnightblue" d="M428.117,-101.839C445.422,-96.6668 464.028,-91.1065 480.92,-86.0582"/>
<polygon fill="midnightblue" stroke="midnightblue" points="426.68,-98.615 418.101,-104.832 428.684,-105.322 426.68,-98.615"/>
</g>
</g>
</svg>
