<?xml version="1.0" encoding="UTF-8" standalone="no"?>
<!DOCTYPE svg PUBLIC "-//W3C//DTD SVG 1.1//EN"
 "http://www.w3.org/Graphics/SVG/1.1/DTD/svg11.dtd">
<!-- Generated by graphviz version 2.26.3 (20100126.1600)
 -->
<!-- Title: ant::analysis::physics::EtapDalitz Pages: 1 -->
<svg width="2146pt" height="629pt"
 viewBox="0.00 0.00 2146.00 629.00" xmlns="http://www.w3.org/2000/svg" xmlns:xlink="http://www.w3.org/1999/xlink">
<g id="graph1" class="graph" transform="scale(1 1) rotate(0) translate(4 625)">
<title>ant::analysis::physics::EtapDalitz</title>
<polygon fill="white" stroke="white" points="-4,5 -4,-625 2143,-625 2143,5 -4,5"/>
<!-- Node1 -->
<g id="node1" class="node"><title>Node1</title>
<polygon fill="#bfbfbf" stroke="black" points="2026,-236 2026,-270 2138,-270 2138,-236 2026,-236"/>
<text text-anchor="start" x="2034" y="-257" font-family="Helvetica,sans-Serif" font-size="10.00">ant::analysis::physics</text>
<text text-anchor="middle" x="2082" y="-244" font-family="Helvetica,sans-Serif" font-size="10.00">::EtapDalitz</text>
</g>
<!-- Node2 -->
<g id="node2" class="node"><title>Node2</title>
<a xlink:href="classant_1_1analysis_1_1_physics.html" target="_top" xlink:title="ant::analysis::Physics">
<polygon fill="white" stroke="black" points="1562.5,-264.5 1562.5,-285.5 1675.5,-285.5 1675.5,-264.5 1562.5,-264.5"/>
<text text-anchor="middle" x="1619" y="-272.5" font-family="Helvetica,sans-Serif" font-size="10.00">ant::analysis::Physics</text>
</a>
</g>
<!-- Node2&#45;&gt;Node1 -->
<g id="edge2" class="edge"><title>Node2&#45;&gt;Node1</title>
<path fill="none" stroke="midnightblue" d="M1676.07,-262.166C1701.39,-256.477 1725.64,-251.04 1726,-251 1831.51,-239.313 1955.68,-244.208 2025.99,-248.695"/>
<polygon fill="midnightblue" stroke="midnightblue" points="1674.97,-258.825 1665.98,-264.432 1676.51,-265.655 1674.97,-258.825"/>
</g>
<!-- Node15 -->
<g id="node33" class="node"><title>Node15</title>
<a xlink:href="classant_1_1analysis_1_1physics_1_1_etap2g.html" target="_top" xlink:title="ant::analysis::physics\l::Etap2g">
<polygon fill="white" stroke="black" points="1824,-294 1824,-328 1936,-328 1936,-294 1824,-294"/>
<text text-anchor="start" x="1832" y="-315" font-family="Helvetica,sans-Serif" font-size="10.00">ant::analysis::physics</text>
<text text-anchor="middle" x="1880" y="-302" font-family="Helvetica,sans-Serif" font-size="10.00">::Etap2g</text>
</a>
</g>
<!-- Node2&#45;&gt;Node15 -->
<g id="edge40" class="edge"><title>Node2&#45;&gt;Node15</title>
<path fill="none" stroke="midnightblue" d="M1685.68,-284.197C1728.46,-290.098 1783.39,-297.674 1823.93,-303.266"/>
<polygon fill="midnightblue" stroke="midnightblue" points="1686.02,-280.711 1675.63,-282.811 1685.06,-287.645 1686.02,-280.711"/>
</g>
<!-- Node3 -->
<g id="node4" class="node"><title>Node3</title>
<a xlink:href="classant_1_1analysis_1_1_histogram_factory.html" target="_top" xlink:title="ant::analysis::Histogram\lFactory">
<polygon fill="white" stroke="black" points="1283.5,-244 1283.5,-278 1406.5,-278 1406.5,-244 1283.5,-244"/>
<text text-anchor="start" x="1291.5" y="-265" font-family="Helvetica,sans-Serif" font-size="10.00">ant::analysis::Histogram</text>
<text text-anchor="middle" x="1345" y="-252" font-family="Helvetica,sans-Serif" font-size="10.00">Factory</text>
</a>
</g>
<!-- Node3&#45;&gt;Node2 -->
<g id="edge4" class="edge"><title>Node3&#45;&gt;Node2</title>
<path fill="none" stroke="#9a32cd" stroke-dasharray="5,2" d="M1416.89,-264.673C1462.21,-266.989 1519.92,-269.938 1562.06,-272.091"/>
<polygon fill="#9a32cd" stroke="#9a32cd" points="1417,-261.174 1406.83,-264.159 1416.64,-268.165 1417,-261.174"/>
<text text-anchor="middle" x="1471" y="-273" font-family="Helvetica,sans-Serif" font-size="10.00"> HistFac</text>
</g>
<!-- Node38 -->
<g id="node87" class="node"><title>Node38</title>
<polygon fill="white" stroke="#bfbfbf" points="1530,-160 1530,-194 1708,-194 1708,-160 1530,-160"/>
<text text-anchor="start" x="1538" y="-181" font-family="Helvetica,sans-Serif" font-size="10.00">std::map&lt; std::string,</text>
<text text-anchor="middle" x="1619" y="-168" font-family="Helvetica,sans-Serif" font-size="10.00"> ant::analysis::HistogramFactory &amp; &gt;</text>
</g>
<!-- Node3&#45;&gt;Node38 -->
<g id="edge104" class="edge"><title>Node3&#45;&gt;Node38</title>
<path fill="none" stroke="#9a32cd" stroke-dasharray="5,2" d="M1416.59,-246.601C1446.81,-239.178 1481.89,-228.749 1512,-215 1520.75,-211.006 1521.29,-207.061 1530,-203 1537,-199.736 1544.51,-196.782 1552.08,-194.137"/>
<polygon fill="#9a32cd" stroke="#9a32cd" points="1415.45,-243.274 1406.54,-249.004 1417.08,-250.082 1415.45,-243.274"/>
<text text-anchor="middle" x="1471" y="-246" font-family="Helvetica,sans-Serif" font-size="10.00"> elements</text>
</g>
<!-- Node4 -->
<g id="node6" class="node"><title>Node4</title>
<a xlink:href="structant_1_1analysis_1_1physics_1_1_etap_dalitz_1_1_ref_tree__t.html" target="_top" xlink:title="ant::analysis::physics\l::EtapDalitz::RefTree_t">
<polygon fill="white" stroke="black" points="1560,-489 1560,-523 1678,-523 1678,-489 1560,-489"/>
<text text-anchor="start" x="1568" y="-510" font-family="Helvetica,sans-Serif" font-size="10.00">ant::analysis::physics</text>
<text text-anchor="middle" x="1619" y="-497" font-family="Helvetica,sans-Serif" font-size="10.00">::EtapDalitz::RefTree_t</text>
</a>
</g>
<!-- Node4&#45;&gt;Node1 -->
<g id="edge6" class="edge"><title>Node4&#45;&gt;Node1</title>
<path fill="none" stroke="#9a32cd" stroke-dasharray="5,2" d="M1688.52,-517.861C1754.51,-526.119 1855.34,-530.813 1936,-500 2033.95,-462.58 2069.53,-319.696 2079.09,-270.088"/>
<polygon fill="#9a32cd" stroke="#9a32cd" points="1688.6,-514.343 1678.23,-516.51 1687.69,-521.283 1688.6,-514.343"/>
<text text-anchor="middle" x="1880" y="-526" font-family="Helvetica,sans-Serif" font-size="10.00"> ref</text>
</g>
<!-- Node4&#45;&gt;Node15 -->
<g id="edge42" class="edge"><title>Node4&#45;&gt;Node15</title>
<path fill="none" stroke="#9a32cd" stroke-dasharray="5,2" d="M1684.51,-485.379C1722.82,-471.046 1770.48,-449.082 1806,-419 1836.7,-392.998 1860.32,-351.323 1871.98,-328.078"/>
<polygon fill="#9a32cd" stroke="#9a32cd" points="1683.17,-482.141 1674.98,-488.859 1685.58,-488.716 1683.17,-482.141"/>
<text text-anchor="middle" x="1766" y="-470" font-family="Helvetica,sans-Serif" font-size="10.00"> t</text>
</g>
<!-- Node5 -->
<g id="node8" class="node"><title>Node5</title>
<a xlink:href="structant_1_1analysis_1_1physics_1_1_etap_dalitz_1_1common__tree.html" target="_top" xlink:title="ant::analysis::physics\l::EtapDalitz::common_tree">
<polygon fill="white" stroke="black" points="1278,-587 1278,-621 1412,-621 1412,-587 1278,-587"/>
<text text-anchor="start" x="1286" y="-608" font-family="Helvetica,sans-Serif" font-size="10.00">ant::analysis::physics</text>
<text text-anchor="middle" x="1345" y="-595" font-family="Helvetica,sans-Serif" font-size="10.00">::EtapDalitz::common_tree</text>
</a>
</g>
<!-- Node5&#45;&gt;Node4 -->
<g id="edge8" class="edge"><title>Node5&#45;&gt;Node4</title>
<path fill="none" stroke="midnightblue" d="M1402.45,-583.454C1452.55,-565.532 1524.39,-539.839 1571.36,-523.039"/>
<polygon fill="midnightblue" stroke="midnightblue" points="1400.96,-580.266 1392.73,-586.93 1403.32,-586.857 1400.96,-580.266"/>
</g>
<!-- Node14 -->
<g id="node28" class="node"><title>Node14</title>
<a xlink:href="structant_1_1analysis_1_1physics_1_1_etap_dalitz_1_1_sig_tree__t.html" target="_top" xlink:title="ant::analysis::physics\l::EtapDalitz::SigTree_t">
<polygon fill="white" stroke="black" points="1561,-564 1561,-598 1677,-598 1677,-564 1561,-564"/>
<text text-anchor="start" x="1569" y="-585" font-family="Helvetica,sans-Serif" font-size="10.00">ant::analysis::physics</text>
<text text-anchor="middle" x="1619" y="-572" font-family="Helvetica,sans-Serif" font-size="10.00">::EtapDalitz::SigTree_t</text>
</a>
</g>
<!-- Node5&#45;&gt;Node14 -->
<g id="edge32" class="edge"><title>Node5&#45;&gt;Node14</title>
<path fill="none" stroke="midnightblue" d="M1422.29,-598.943C1450.53,-596.964 1482.73,-594.556 1512,-592 1527.81,-590.619 1544.92,-588.943 1560.72,-587.319"/>
<polygon fill="midnightblue" stroke="midnightblue" points="1421.81,-595.468 1412.08,-599.652 1422.29,-602.451 1421.81,-595.468"/>
</g>
<!-- Node6 -->
<g id="node10" class="node"><title>Node6</title>
<a xlink:href="structant_1_1_wrap_t_tree.html" target="_top" xlink:title="The WrapTTree struct simplifies TTree handling in physics classes. ">
<polygon fill="white" stroke="black" points="1092.5,-513.5 1092.5,-534.5 1177.5,-534.5 1177.5,-513.5 1092.5,-513.5"/>
<text text-anchor="middle" x="1135" y="-521.5" font-family="Helvetica,sans-Serif" font-size="10.00">ant::WrapTTree</text>
</a>
</g>
<!-- Node6&#45;&gt;Node5 -->
<g id="edge10" class="edge"><title>Node6&#45;&gt;Node5</title>
<path fill="none" stroke="midnightblue" d="M1172.46,-538.269C1208.19,-551.881 1262.05,-572.401 1300.08,-586.886"/>
<polygon fill="midnightblue" stroke="midnightblue" points="1173.48,-534.913 1162.89,-534.623 1170.99,-541.454 1173.48,-534.913"/>
</g>
<!-- Node12 -->
<g id="node22" class="node"><title>Node12</title>
<a xlink:href="structant_1_1analysis_1_1physics_1_1_etap_dalitz_1_1proton__tree.html" target="_top" xlink:title="ant::analysis::physics\l::EtapDalitz::proton_tree">
<polygon fill="white" stroke="black" points="1283.5,-483 1283.5,-517 1406.5,-517 1406.5,-483 1283.5,-483"/>
<text text-anchor="start" x="1291.5" y="-504" font-family="Helvetica,sans-Serif" font-size="10.00">ant::analysis::physics</text>
<text text-anchor="middle" x="1345" y="-491" font-family="Helvetica,sans-Serif" font-size="10.00">::EtapDalitz::proton_tree</text>
</a>
</g>
<!-- Node6&#45;&gt;Node12 -->
<g id="edge24" class="edge"><title>Node6&#45;&gt;Node12</title>
<path fill="none" stroke="midnightblue" d="M1187.69,-517.978C1216.7,-514.663 1252.86,-510.53 1283.2,-507.063"/>
<polygon fill="midnightblue" stroke="midnightblue" points="1187.29,-514.501 1177.75,-519.114 1188.08,-521.456 1187.29,-514.501"/>
</g>
<!-- Node13 -->
<g id="node25" class="node"><title>Node13</title>
<a xlink:href="structant_1_1analysis_1_1physics_1_1_etap_dalitz_1_1fit__tree.html" target="_top" xlink:title="ant::analysis::physics\l::EtapDalitz::fit_tree">
<polygon fill="white" stroke="black" points="1289,-535 1289,-569 1401,-569 1401,-535 1289,-535"/>
<text text-anchor="start" x="1297" y="-556" font-family="Helvetica,sans-Serif" font-size="10.00">ant::analysis::physics</text>
<text text-anchor="middle" x="1345" y="-543" font-family="Helvetica,sans-Serif" font-size="10.00">::EtapDalitz::fit_tree</text>
</a>
</g>
<!-- Node6&#45;&gt;Node13 -->
<g id="edge28" class="edge"><title>Node6&#45;&gt;Node13</title>
<path fill="none" stroke="midnightblue" d="M1187.86,-531.048C1218.63,-535.151 1257.42,-540.323 1288.76,-544.501"/>
<polygon fill="midnightblue" stroke="midnightblue" points="1188.12,-527.552 1177.75,-529.7 1187.2,-534.491 1188.12,-527.552"/>
</g>
<!-- Node7 -->
<g id="node12" class="node"><title>Node7</title>
<polygon fill="white" stroke="#bfbfbf" points="746,-498 746,-532 886,-532 886,-498 746,-498"/>
<text text-anchor="start" x="754" y="-519" font-family="Helvetica,sans-Serif" font-size="10.00">std::vector&lt; ant::WrapTTree</text>
<text text-anchor="middle" x="816" y="-506" font-family="Helvetica,sans-Serif" font-size="10.00">::ROOT_branch_t &gt;</text>
</g>
<!-- Node7&#45;&gt;Node6 -->
<g id="edge12" class="edge"><title>Node7&#45;&gt;Node6</title>
<path fill="none" stroke="#9a32cd" stroke-dasharray="5,2" d="M896.178,-517.262C958.34,-519.016 1042.07,-521.378 1092.09,-522.789"/>
<polygon fill="#9a32cd" stroke="#9a32cd" points="896.101,-513.759 886.006,-516.975 895.903,-520.756 896.101,-513.759"/>
<text text-anchor="middle" x="979" y="-525" font-family="Helvetica,sans-Serif" font-size="10.00"> branches</text>
</g>
<!-- Node8 -->
<g id="node14" class="node"><title>Node8</title>
<a xlink:href="structant_1_1_wrap_t_tree_1_1_r_o_o_t__branch__t.html" target="_top" xlink:title="ant::WrapTTree::ROOT\l_branch_t">
<polygon fill="white" stroke="black" points="522.5,-496 522.5,-530 641.5,-530 641.5,-496 522.5,-496"/>
<text text-anchor="start" x="530.5" y="-517" font-family="Helvetica,sans-Serif" font-size="10.00">ant::WrapTTree::ROOT</text>
<text text-anchor="middle" x="582" y="-504" font-family="Helvetica,sans-Serif" font-size="10.00">_branch_t</text>
</a>
</g>
<!-- Node8&#45;&gt;Node7 -->
<g id="edge14" class="edge"><title>Node8&#45;&gt;Node7</title>
<path fill="none" stroke="#9a32cd" stroke-dasharray="5,2" d="M651.912,-513.598C681.528,-513.851 715.976,-514.145 745.641,-514.399"/>
<polygon fill="#9a32cd" stroke="#9a32cd" points="651.683,-510.096 641.654,-513.51 651.623,-517.095 651.683,-510.096"/>
<text text-anchor="middle" x="706" y="-518" font-family="Helvetica,sans-Serif" font-size="10.00"> elements</text>
</g>
<!-- Node9 -->
<g id="node16" class="node"><title>Node9</title>
<a xlink:href="structant_1_1_wrap_t_tree_1_1_r_o_o_t__branchinfo__t.html" target="_top" xlink:title="ant::WrapTTree::ROOT\l_branchinfo_t">
<polygon fill="white" stroke="black" points="279.5,-491 279.5,-525 398.5,-525 398.5,-491 279.5,-491"/>
<text text-anchor="start" x="287.5" y="-512" font-family="Helvetica,sans-Serif" font-size="10.00">ant::WrapTTree::ROOT</text>
<text text-anchor="middle" x="339" y="-499" font-family="Helvetica,sans-Serif" font-size="10.00">_branchinfo_t</text>
</a>
</g>
<!-- Node9&#45;&gt;Node8 -->
<g id="edge16" class="edge"><title>Node9&#45;&gt;Node8</title>
<path fill="none" stroke="midnightblue" d="M409.152,-509.443C445.034,-510.182 488.238,-511.071 522.475,-511.775"/>
<polygon fill="midnightblue" stroke="midnightblue" points="408.826,-505.936 398.756,-509.23 408.682,-512.935 408.826,-505.936"/>
</g>
<!-- Node10 -->
<g id="node18" class="node"><title>Node10</title>
<a xlink:title="STL class. ">
<polygon fill="white" stroke="#bfbfbf" points="134,-172.5 134,-193.5 194,-193.5 194,-172.5 134,-172.5"/>
<text text-anchor="middle" x="164" y="-180.5" font-family="Helvetica,sans-Serif" font-size="10.00">std::string</text>
</a>
</g>
<!-- Node10&#45;&gt;Node9 -->
<g id="edge18" class="edge"><title>Node10&#45;&gt;Node9</title>
<path fill="none" stroke="#9a32cd" stroke-dasharray="5,2" d="M168.184,-203.613C180.819,-264.035 220.168,-439.038 260,-480 265.478,-485.633 272.16,-490.136 279.294,-493.734"/>
<polygon fill="#9a32cd" stroke="#9a32cd" points="171.592,-202.808 166.142,-193.722 164.736,-204.223 171.592,-202.808"/>
<text text-anchor="middle" x="227" y="-452" font-family="Helvetica,sans-Serif" font-size="10.00"> Name</text>
</g>
<!-- Node21 -->
<g id="node47" class="node"><title>Node21</title>
<a xlink:href="structant_1_1analysis_1_1utils_1_1_kin_fitter_1_1_beam_e__t.html" target="_top" xlink:title="ant::analysis::utils\l::KinFitter::BeamE_t">
<polygon fill="white" stroke="black" points="763,-270 763,-304 869,-304 869,-270 763,-270"/>
<text text-anchor="start" x="771" y="-291" font-family="Helvetica,sans-Serif" font-size="10.00">ant::analysis::utils</text>
<text text-anchor="middle" x="816" y="-278" font-family="Helvetica,sans-Serif" font-size="10.00">::KinFitter::BeamE_t</text>
</a>
</g>
<!-- Node10&#45;&gt;Node21 -->
<g id="edge58" class="edge"><title>Node10&#45;&gt;Node21</title>
<path fill="none" stroke="#9a32cd" stroke-dasharray="5,2" d="M183.554,-199.769C191.808,-205.924 201.849,-212.288 212,-216 402.436,-285.631 465.084,-233.667 666,-261 698.212,-265.382 734.098,-271.555 762.691,-276.787"/>
<polygon fill="#9a32cd" stroke="#9a32cd" points="185.689,-196.996 175.67,-193.551 181.354,-202.492 185.689,-196.996"/>
<text text-anchor="middle" x="458" y="-258" font-family="Helvetica,sans-Serif" font-size="10.00"> Name</text>
</g>
<!-- Node33 -->
<g id="node73" class="node"><title>Node33</title>
<a xlink:href="structant_1_1analysis_1_1physics_1_1_etap_dalitz_1_1_reaction_channel__t.html" target="_top" xlink:title="ant::analysis::physics\l::EtapDalitz::ReactionChannel_t">
<polygon fill="white" stroke="black" points="260,-140 260,-174 418,-174 418,-140 260,-140"/>
<text text-anchor="start" x="268" y="-161" font-family="Helvetica,sans-Serif" font-size="10.00">ant::analysis::physics</text>
<text text-anchor="middle" x="339" y="-148" font-family="Helvetica,sans-Serif" font-size="10.00">::EtapDalitz::ReactionChannel_t</text>
</a>
</g>
<!-- Node10&#45;&gt;Node33 -->
<g id="edge84" class="edge"><title>Node10&#45;&gt;Node33</title>
<path fill="none" stroke="#9a32cd" stroke-dasharray="5,2" d="M204.272,-176.215C206.886,-175.797 209.479,-175.389 212,-175 227.406,-172.625 243.883,-170.203 259.692,-167.937"/>
<polygon fill="#9a32cd" stroke="#9a32cd" points="203.505,-172.793 194.196,-177.852 204.628,-179.702 203.505,-172.793"/>
<text text-anchor="middle" x="227" y="-179" font-family="Helvetica,sans-Serif" font-size="10.00"> name</text>
</g>
<!-- Node10&#45;&gt;Node38 -->
<g id="edge102" class="edge"><title>Node10&#45;&gt;Node38</title>
<path fill="none" stroke="#9a32cd" stroke-dasharray="5,2" d="M204.183,-189.86C239.566,-195.302 292.549,-202 339,-202 339,-202 339,-202 1345,-202 1406.86,-202 1476.25,-195.603 1529.72,-189.28"/>
<polygon fill="#9a32cd" stroke="#9a32cd" points="204.665,-186.393 194.242,-188.293 203.575,-193.307 204.665,-186.393"/>
<text text-anchor="middle" x="816" y="-206" font-family="Helvetica,sans-Serif" font-size="10.00"> keys</text>
</g>
<!-- Node39 -->
<g id="node91" class="node"><title>Node39</title>
<polygon fill="white" stroke="#bfbfbf" points="510.5,-52.5 510.5,-99.5 653.5,-99.5 653.5,-52.5 510.5,-52.5"/>
<text text-anchor="start" x="518.5" y="-86.5" font-family="Helvetica,sans-Serif" font-size="10.00">std::map&lt; std::string,</text>
<text text-anchor="start" x="518.5" y="-73.5" font-family="Helvetica,sans-Serif" font-size="10.00"> ant::analysis::physics</text>
<text text-anchor="middle" x="582" y="-60.5" font-family="Helvetica,sans-Serif" font-size="10.00">::EtapDalitz::PerChannel_t &gt;</text>
</g>
<!-- Node10&#45;&gt;Node39 -->
<g id="edge112" class="edge"><title>Node10&#45;&gt;Node39</title>
<path fill="none" stroke="#9a32cd" stroke-dasharray="5,2" d="M173.23,-162.954C187.355,-135.033 217.267,-85.6545 260,-66 339.649,-29.3666 442.483,-41.3439 510.247,-56.1374"/>
<polygon fill="#9a32cd" stroke="#9a32cd" points="169.971,-161.651 168.745,-172.175 176.266,-164.713 169.971,-161.651"/>
<text text-anchor="middle" x="339" y="-70" font-family="Helvetica,sans-Serif" font-size="10.00"> keys</text>
</g>
<!-- Node40 -->
<g id="node93" class="node"><title>Node40</title>
<a xlink:href="structant_1_1analysis_1_1physics_1_1_etap_dalitz_1_1_per_channel__t.html" target="_top" xlink:title="ant::analysis::physics\l::EtapDalitz::PerChannel_t">
<polygon fill="white" stroke="black" points="272,-88 272,-122 406,-122 406,-88 272,-88"/>
<text text-anchor="start" x="280" y="-109" font-family="Helvetica,sans-Serif" font-size="10.00">ant::analysis::physics</text>
<text text-anchor="middle" x="339" y="-96" font-family="Helvetica,sans-Serif" font-size="10.00">::EtapDalitz::PerChannel_t</text>
</a>
</g>
<!-- Node10&#45;&gt;Node40 -->
<g id="edge110" class="edge"><title>Node10&#45;&gt;Node40</title>
<path fill="none" stroke="#9a32cd" stroke-dasharray="5,2" d="M180.392,-164.812C189.038,-156.191 200.271,-146.403 212,-140 230.368,-129.973 251.83,-122.642 271.827,-117.361"/>
<polygon fill="#9a32cd" stroke="#9a32cd" points="177.634,-162.631 173.238,-172.271 182.686,-167.476 177.634,-162.631"/>
<text text-anchor="middle" x="227" y="-157" font-family="Helvetica,sans-Serif" font-size="10.00"> title</text>
<text text-anchor="middle" x="227" y="-144" font-family="Helvetica,sans-Serif" font-size="10.00">name</text>
</g>
<!-- Node11 -->
<g id="node20" class="node"><title>Node11</title>
<a xlink:title="STL class. ">
<polygon fill="white" stroke="#bfbfbf" points="0.5,-166 0.5,-200 95.5,-200 95.5,-166 0.5,-166"/>
<text text-anchor="start" x="8.5" y="-187" font-family="Helvetica,sans-Serif" font-size="10.00">std::basic_string&lt;</text>
<text text-anchor="middle" x="48" y="-174" font-family="Helvetica,sans-Serif" font-size="10.00"> char &gt;</text>
</a>
</g>
<!-- Node11&#45;&gt;Node10 -->
<g id="edge20" class="edge"><title>Node11&#45;&gt;Node10</title>
<path fill="none" stroke="midnightblue" d="M105.582,-183C115.29,-183 125.014,-183 133.666,-183"/>
<polygon fill="midnightblue" stroke="midnightblue" points="105.516,-179.5 95.5163,-183 105.516,-186.5 105.516,-179.5"/>
</g>
<!-- Node12&#45;&gt;Node4 -->
<g id="edge22" class="edge"><title>Node12&#45;&gt;Node4</title>
<path fill="none" stroke="midnightblue" d="M1417.01,-495.469C1421.4,-495.284 1425.76,-495.125 1430,-495 1466.43,-493.929 1475.6,-493.134 1512,-495 1527.57,-495.798 1544.37,-497.246 1559.94,-498.835"/>
<polygon fill="midnightblue" stroke="midnightblue" points="1416.56,-491.986 1406.73,-495.942 1416.88,-498.979 1416.56,-491.986"/>
</g>
<!-- Node12&#45;&gt;Node14 -->
<g id="edge34" class="edge"><title>Node12&#45;&gt;Node14</title>
<path fill="none" stroke="midnightblue" d="M1412.59,-519.98C1458.24,-533.477 1517.88,-551.107 1561.31,-563.944"/>
<polygon fill="midnightblue" stroke="midnightblue" points="1413.36,-516.558 1402.77,-517.079 1411.37,-523.27 1413.36,-516.558"/>
</g>
<!-- Node13&#45;&gt;Node4 -->
<g id="edge26" class="edge"><title>Node13&#45;&gt;Node4</title>
<path fill="none" stroke="midnightblue" d="M1411.12,-540.899C1456.39,-533.3 1515.9,-523.308 1559.65,-515.964"/>
<polygon fill="midnightblue" stroke="midnightblue" points="1410.39,-537.473 1401.11,-542.58 1411.55,-544.376 1410.39,-537.473"/>
</g>
<!-- Node13&#45;&gt;Node14 -->
<g id="edge36" class="edge"><title>Node13&#45;&gt;Node14</title>
<path fill="none" stroke="midnightblue" d="M1411.19,-559.006C1456.78,-563.831 1516.79,-570.183 1560.6,-574.819"/>
<polygon fill="midnightblue" stroke="midnightblue" points="1411.42,-555.511 1401.11,-557.939 1410.69,-562.472 1411.42,-555.511"/>
</g>
<!-- Node14&#45;&gt;Node1 -->
<g id="edge30" class="edge"><title>Node14&#45;&gt;Node1</title>
<path fill="none" stroke="#9a32cd" stroke-dasharray="5,2" d="M1687.6,-582.436C1753.77,-581.436 1855.48,-573.513 1936,-539 1973.77,-522.812 1984.69,-514.838 2008,-481 2055.57,-411.945 2074.1,-310.342 2079.83,-270.211"/>
<polygon fill="#9a32cd" stroke="#9a32cd" points="1687.25,-578.939 1677.29,-582.54 1687.32,-585.938 1687.25,-578.939"/>
<text text-anchor="middle" x="1880" y="-574" font-family="Helvetica,sans-Serif" font-size="10.00"> sig</text>
</g>
<!-- Node15&#45;&gt;Node1 -->
<g id="edge38" class="edge"><title>Node15&#45;&gt;Node1</title>
<path fill="none" stroke="#9a32cd" stroke-dasharray="5,2" d="M1945.73,-292.127C1971.61,-284.695 2001.03,-276.249 2025.89,-269.11"/>
<polygon fill="#9a32cd" stroke="#9a32cd" points="1944.65,-288.797 1936,-294.921 1946.58,-295.525 1944.65,-288.797"/>
<text text-anchor="middle" x="1981" y="-292" font-family="Helvetica,sans-Serif" font-size="10.00"> etap2g</text>
</g>
<!-- Node16 -->
<g id="node37" class="node"><title>Node16</title>
<a xlink:href="classant_1_1analysis_1_1utils_1_1_tree_fitter.html" target="_top" xlink:title="ant::analysis::utils\l::TreeFitter">
<polygon fill="white" stroke="black" points="1571,-400 1571,-434 1667,-434 1667,-400 1571,-400"/>
<text text-anchor="start" x="1579" y="-421" font-family="Helvetica,sans-Serif" font-size="10.00">ant::analysis::utils</text>
<text text-anchor="middle" x="1619" y="-408" font-family="Helvetica,sans-Serif" font-size="10.00">::TreeFitter</text>
</a>
</g>
<!-- Node16&#45;&gt;Node1 -->
<g id="edge94" class="edge"><title>Node16&#45;&gt;Node1</title>
<path fill="none" stroke="#9a32cd" stroke-dasharray="5,2" d="M1666.76,-437.889C1684.94,-444.785 1706.07,-451.567 1726,-455 1851.36,-476.6 1909.02,-485.905 2008,-406 2052.08,-370.415 2071.67,-302.145 2078.7,-270.234"/>
<polygon fill="#9a32cd" stroke="#9a32cd" points="1667.86,-434.56 1657.27,-434.178 1665.31,-441.08 1667.86,-434.56"/>
<text text-anchor="middle" x="1880" y="-487" font-family="Helvetica,sans-Serif" font-size="10.00"> treefitter_etap_freeZ</text>
<text text-anchor="middle" x="1880" y="-474" font-family="Helvetica,sans-Serif" font-size="10.00">treefitter_etap</text>
</g>
<!-- Node16&#45;&gt;Node15 -->
<g id="edge44" class="edge"><title>Node16&#45;&gt;Node15</title>
<path fill="none" stroke="#9a32cd" stroke-dasharray="5,2" d="M1654.03,-394.639C1674.44,-382.311 1701,-367.436 1726,-357 1760.14,-342.747 1770.56,-344.602 1806,-334 1812.32,-332.111 1818.92,-330.102 1825.48,-328.089"/>
<polygon fill="#9a32cd" stroke="#9a32cd" points="1652.1,-391.716 1645.4,-399.922 1655.75,-397.687 1652.1,-391.716"/>
<text text-anchor="middle" x="1766" y="-361" font-family="Helvetica,sans-Serif" font-size="10.00"> treefitter_etap</text>
</g>
<!-- Node17 -->
<g id="node39" class="node"><title>Node17</title>
<a xlink:href="classant_1_1analysis_1_1utils_1_1_kin_fitter.html" target="_top" xlink:title="ant::analysis::utils\l::KinFitter">
<polygon fill="white" stroke="black" points="1297,-337 1297,-371 1393,-371 1393,-337 1297,-337"/>
<text text-anchor="start" x="1305" y="-358" font-family="Helvetica,sans-Serif" font-size="10.00">ant::analysis::utils</text>
<text text-anchor="middle" x="1345" y="-345" font-family="Helvetica,sans-Serif" font-size="10.00">::KinFitter</text>
</a>
</g>
<!-- Node17&#45;&gt;Node1 -->
<g id="edge96" class="edge"><title>Node17&#45;&gt;Node1</title>
<path fill="none" stroke="#9a32cd" stroke-dasharray="5,2" d="M1403.02,-361.886C1490.67,-372.477 1661.91,-388.002 1806,-370 1865.15,-362.61 1879.67,-356.508 1936,-337 1969.09,-325.54 1977.53,-322.259 2008,-305 2026.31,-294.63 2045.72,-280.869 2060.07,-270.108"/>
<polygon fill="#9a32cd" stroke="#9a32cd" points="1403.36,-358.402 1393.01,-360.654 1402.5,-365.35 1403.36,-358.402"/>
<text text-anchor="middle" x="1766" y="-393" font-family="Helvetica,sans-Serif" font-size="10.00"> kinfit</text>
<text text-anchor="middle" x="1766" y="-380" font-family="Helvetica,sans-Serif" font-size="10.00">kinfit_freeZ</text>
</g>
<!-- Node17&#45;&gt;Node15 -->
<g id="edge74" class="edge"><title>Node17&#45;&gt;Node15</title>
<path fill="none" stroke="#9a32cd" stroke-dasharray="5,2" d="M1403.11,-347.612C1412.11,-346.691 1421.3,-345.789 1430,-345 1571.62,-332.155 1738.62,-320.434 1823.83,-314.699"/>
<polygon fill="#9a32cd" stroke="#9a32cd" points="1402.66,-344.14 1393.07,-348.655 1403.38,-351.103 1402.66,-344.14"/>
<text text-anchor="middle" x="1619" y="-340" font-family="Helvetica,sans-Serif" font-size="10.00"> kinfit</text>
</g>
<!-- Node17&#45;&gt;Node16 -->
<g id="edge46" class="edge"><title>Node17&#45;&gt;Node16</title>
<path fill="none" stroke="midnightblue" d="M1403.02,-367.34C1452.81,-378.789 1523.75,-395.099 1570.55,-405.861"/>
<polygon fill="midnightblue" stroke="midnightblue" points="1403.57,-363.876 1393.04,-365.046 1402,-370.698 1403.57,-363.876"/>
</g>
<!-- Node18 -->
<g id="node41" class="node"><title>Node18</title>
<a xlink:href="classant_1_1analysis_1_1utils_1_1_fitter.html" target="_top" xlink:title="ant::analysis::utils\l::Fitter">
<polygon fill="white" stroke="black" points="1087,-384 1087,-418 1183,-418 1183,-384 1087,-384"/>
<text text-anchor="start" x="1095" y="-405" font-family="Helvetica,sans-Serif" font-size="10.00">ant::analysis::utils</text>
<text text-anchor="middle" x="1135" y="-392" font-family="Helvetica,sans-Serif" font-size="10.00">::Fitter</text>
</a>
</g>
<!-- Node18&#45;&gt;Node17 -->
<g id="edge48" class="edge"><title>Node18&#45;&gt;Node17</title>
<path fill="none" stroke="midnightblue" d="M1193.03,-388.012C1225.62,-380.718 1265.82,-371.722 1296.68,-364.814"/>
<polygon fill="midnightblue" stroke="midnightblue" points="1192.17,-384.618 1183.18,-390.217 1193.7,-391.449 1192.17,-384.618"/>
</g>
<!-- Node19 -->
<g id="node43" class="node"><title>Node19</title>
<polygon fill="white" stroke="#bfbfbf" points="746,-390.5 746,-411.5 886,-411.5 886,-390.5 746,-390.5"/>
<text text-anchor="middle" x="816" y="-398.5" font-family="Helvetica,sans-Serif" font-size="10.00">std::unique_ptr&lt; APLCON &gt;</text>
</g>
<!-- Node19&#45;&gt;Node18 -->
<g id="edge50" class="edge"><title>Node19&#45;&gt;Node18</title>
<path fill="none" stroke="#9a32cd" stroke-dasharray="5,2" d="M896.217,-401C956.27,-401 1036.43,-401 1086.89,-401"/>
<polygon fill="#9a32cd" stroke="#9a32cd" points="896.006,-397.5 886.006,-401 896.006,-404.5 896.006,-397.5"/>
<text text-anchor="middle" x="979" y="-405" font-family="Helvetica,sans-Serif" font-size="10.00"> aplcon</text>
</g>
<!-- Node20 -->
<g id="node45" class="node"><title>Node20</title>
<polygon fill="white" stroke="#bfbfbf" points="1072.5,-264.5 1072.5,-311.5 1197.5,-311.5 1197.5,-264.5 1072.5,-264.5"/>
<text text-anchor="start" x="1080.5" y="-298.5" font-family="Helvetica,sans-Serif" font-size="10.00">std::unique_ptr&lt; ant</text>
<text text-anchor="start" x="1080.5" y="-285.5" font-family="Helvetica,sans-Serif" font-size="10.00">::analysis::utils::KinFitter</text>
<text text-anchor="middle" x="1135" y="-272.5" font-family="Helvetica,sans-Serif" font-size="10.00">::BeamE_t &gt;</text>
</g>
<!-- Node20&#45;&gt;Node17 -->
<g id="edge52" class="edge"><title>Node20&#45;&gt;Node17</title>
<path fill="none" stroke="#9a32cd" stroke-dasharray="5,2" d="M1207.58,-310.812C1237.14,-320.1 1270.49,-330.582 1296.93,-338.894"/>
<polygon fill="#9a32cd" stroke="#9a32cd" points="1208.31,-307.372 1197.72,-307.713 1206.21,-314.05 1208.31,-307.372"/>
<text text-anchor="middle" x="1238" y="-330" font-family="Helvetica,sans-Serif" font-size="10.00"> BeamE</text>
</g>
<!-- Node21&#45;&gt;Node20 -->
<g id="edge54" class="edge"><title>Node21&#45;&gt;Node20</title>
<path fill="none" stroke="#9a32cd" stroke-dasharray="5,2" d="M879.178,-287.198C935.144,-287.373 1016.41,-287.628 1072.24,-287.803"/>
<polygon fill="#9a32cd" stroke="#9a32cd" points="879.045,-283.698 869.034,-287.166 879.023,-290.698 879.045,-283.698"/>
<text text-anchor="middle" x="979" y="-291" font-family="Helvetica,sans-Serif" font-size="10.00"> ptr</text>
</g>
<!-- Node22 -->
<g id="node49" class="node"><title>Node22</title>
<a xlink:href="structant_1_1analysis_1_1utils_1_1_fitter_1_1_fit_variable.html" target="_top" xlink:title="ant::analysis::utils\l::Fitter::FitVariable">
<polygon fill="white" stroke="black" points="533,-270 533,-304 631,-304 631,-270 533,-270"/>
<text text-anchor="start" x="541" y="-291" font-family="Helvetica,sans-Serif" font-size="10.00">ant::analysis::utils</text>
<text text-anchor="middle" x="582" y="-278" font-family="Helvetica,sans-Serif" font-size="10.00">::Fitter::FitVariable</text>
</a>
</g>
<!-- Node22&#45;&gt;Node21 -->
<g id="edge56" class="edge"><title>Node22&#45;&gt;Node21</title>
<path fill="none" stroke="midnightblue" d="M641.321,-287C678.775,-287 726.747,-287 762.938,-287"/>
<polygon fill="midnightblue" stroke="midnightblue" points="641.054,-283.5 631.054,-287 641.054,-290.5 641.054,-283.5"/>
</g>
<!-- Node23 -->
<g id="node52" class="node"><title>Node23</title>
<polygon fill="white" stroke="#bfbfbf" points="1074.5,-332 1074.5,-366 1195.5,-366 1195.5,-332 1074.5,-332"/>
<text text-anchor="start" x="1082.5" y="-353" font-family="Helvetica,sans-Serif" font-size="10.00">std::vector&lt; std::shared</text>
<text text-anchor="middle" x="1135" y="-340" font-family="Helvetica,sans-Serif" font-size="10.00">_ptr&lt; FitParticle &gt; &gt;</text>
</g>
<!-- Node23&#45;&gt;Node17 -->
<g id="edge60" class="edge"><title>Node23&#45;&gt;Node17</title>
<path fill="none" stroke="#9a32cd" stroke-dasharray="5,2" d="M1206.1,-350.693C1235.94,-351.403 1269.86,-352.211 1296.72,-352.85"/>
<polygon fill="#9a32cd" stroke="#9a32cd" points="1205.82,-347.185 1195.74,-350.446 1205.65,-354.183 1205.82,-347.185"/>
<text text-anchor="middle" x="1238" y="-355" font-family="Helvetica,sans-Serif" font-size="10.00"> Photons</text>
</g>
<!-- Node24 -->
<g id="node54" class="node"><title>Node24</title>
<polygon fill="white" stroke="#bfbfbf" points="1292,-403.5 1292,-424.5 1398,-424.5 1398,-403.5 1292,-403.5"/>
<text text-anchor="middle" x="1345" y="-411.5" font-family="Helvetica,sans-Serif" font-size="10.00">std::vector&lt; tree_t &gt;</text>
</g>
<!-- Node24&#45;&gt;Node16 -->
<g id="edge62" class="edge"><title>Node24&#45;&gt;Node16</title>
<path fill="none" stroke="#9a32cd" stroke-dasharray="5,2" d="M1408.41,-414.694C1457.84,-415.235 1525.45,-415.976 1570.59,-416.47"/>
<polygon fill="#9a32cd" stroke="#9a32cd" points="1408.19,-411.192 1398.15,-414.582 1408.12,-418.191 1408.19,-411.192"/>
<text text-anchor="middle" x="1471" y="-419" font-family="Helvetica,sans-Serif" font-size="10.00"> tree_leaves</text>
</g>
<!-- Node25 -->
<g id="node56" class="node"><title>Node25</title>
<polygon fill="white" stroke="#bfbfbf" points="1290,-443.5 1290,-464.5 1400,-464.5 1400,-443.5 1290,-443.5"/>
<text text-anchor="middle" x="1345" y="-451.5" font-family="Helvetica,sans-Serif" font-size="10.00">std::list&lt; iteration_t &gt;</text>
</g>
<!-- Node25&#45;&gt;Node16 -->
<g id="edge64" class="edge"><title>Node25&#45;&gt;Node16</title>
<path fill="none" stroke="#9a32cd" stroke-dasharray="5,2" d="M1410.06,-445.214C1459.43,-438.548 1526.2,-429.531 1570.84,-423.503"/>
<polygon fill="#9a32cd" stroke="#9a32cd" points="1409.56,-441.75 1400.12,-446.557 1410.5,-448.687 1409.56,-441.75"/>
<text text-anchor="middle" x="1471" y="-446" font-family="Helvetica,sans-Serif" font-size="10.00"> iterations</text>
</g>
<!-- Node26 -->
<g id="node58" class="node"><title>Node26</title>
<a xlink:href="structant_1_1analysis_1_1utils_1_1_tree_fitter_1_1iteration__t.html" target="_top" xlink:title="ant::analysis::utils\l::TreeFitter::iteration_t">
<polygon fill="white" stroke="black" points="1078.5,-437 1078.5,-471 1191.5,-471 1191.5,-437 1078.5,-437"/>
<text text-anchor="start" x="1086.5" y="-458" font-family="Helvetica,sans-Serif" font-size="10.00">ant::analysis::utils</text>
<text text-anchor="middle" x="1135" y="-445" font-family="Helvetica,sans-Serif" font-size="10.00">::TreeFitter::iteration_t</text>
</a>
</g>
<!-- Node26&#45;&gt;Node25 -->
<g id="edge66" class="edge"><title>Node26&#45;&gt;Node25</title>
<path fill="none" stroke="#9a32cd" stroke-dasharray="5,2" d="M1201.79,-454C1230.16,-454 1262.83,-454 1289.8,-454"/>
<polygon fill="#9a32cd" stroke="#9a32cd" points="1201.55,-450.5 1191.55,-454 1201.55,-457.5 1201.55,-450.5"/>
<text text-anchor="middle" x="1238" y="-458" font-family="Helvetica,sans-Serif" font-size="10.00"> elements</text>
</g>
<!-- Node27 -->
<g id="node60" class="node"><title>Node27</title>
<polygon fill="white" stroke="#bfbfbf" points="751.5,-430.5 751.5,-477.5 880.5,-477.5 880.5,-430.5 751.5,-430.5"/>
<text text-anchor="start" x="759.5" y="-464.5" font-family="Helvetica,sans-Serif" font-size="10.00">std::vector&lt; ant::analysis</text>
<text text-anchor="start" x="759.5" y="-451.5" font-family="Helvetica,sans-Serif" font-size="10.00">::utils::TreeFitter::iteration</text>
<text text-anchor="middle" x="816" y="-438.5" font-family="Helvetica,sans-Serif" font-size="10.00">_t::particle_t &gt;</text>
</g>
<!-- Node27&#45;&gt;Node26 -->
<g id="edge68" class="edge"><title>Node27&#45;&gt;Node26</title>
<path fill="none" stroke="#9a32cd" stroke-dasharray="5,2" d="M890.651,-454C947.997,-454 1025.99,-454 1078.29,-454"/>
<polygon fill="#9a32cd" stroke="#9a32cd" points="890.554,-450.5 880.554,-454 890.554,-457.5 890.554,-450.5"/>
<text text-anchor="middle" x="979" y="-458" font-family="Helvetica,sans-Serif" font-size="10.00"> Particles</text>
</g>
<!-- Node28 -->
<g id="node62" class="node"><title>Node28</title>
<a xlink:href="structant_1_1analysis_1_1utils_1_1_tree_fitter_1_1iteration__t_1_1particle__t.html" target="_top" xlink:title="ant::analysis::utils\l::TreeFitter::iteration\l_t::particle_t">
<polygon fill="white" stroke="black" points="529.5,-430.5 529.5,-477.5 634.5,-477.5 634.5,-430.5 529.5,-430.5"/>
<text text-anchor="start" x="537.5" y="-464.5" font-family="Helvetica,sans-Serif" font-size="10.00">ant::analysis::utils</text>
<text text-anchor="start" x="537.5" y="-451.5" font-family="Helvetica,sans-Serif" font-size="10.00">::TreeFitter::iteration</text>
<text text-anchor="middle" x="582" y="-438.5" font-family="Helvetica,sans-Serif" font-size="10.00">_t::particle_t</text>
</a>
</g>
<!-- Node28&#45;&gt;Node27 -->
<g id="edge70" class="edge"><title>Node28&#45;&gt;Node27</title>
<path fill="none" stroke="#9a32cd" stroke-dasharray="5,2" d="M644.913,-454C677.789,-454 717.97,-454 751.129,-454"/>
<polygon fill="#9a32cd" stroke="#9a32cd" points="644.514,-450.5 634.514,-454 644.514,-457.5 644.514,-450.5"/>
<text text-anchor="middle" x="706" y="-458" font-family="Helvetica,sans-Serif" font-size="10.00"> elements</text>
</g>
<!-- Node29 -->
<g id="node64" class="node"><title>Node29</title>
<a xlink:href="structant_1_1std__ext_1_1cc__shared__ptr.html" target="_top" xlink:title="ant::std_ext::cc_shared\l_ptr\&lt; TParticle \&gt;">
<polygon fill="white" stroke="black" points="279.5,-437 279.5,-471 398.5,-471 398.5,-437 279.5,-437"/>
<text text-anchor="start" x="287.5" y="-458" font-family="Helvetica,sans-Serif" font-size="10.00">ant::std_ext::cc_shared</text>
<text text-anchor="middle" x="339" y="-445" font-family="Helvetica,sans-Serif" font-size="10.00">_ptr&lt; TParticle &gt;</text>
</a>
</g>
<!-- Node29&#45;&gt;Node28 -->
<g id="edge72" class="edge"><title>Node29&#45;&gt;Node28</title>
<path fill="none" stroke="#9a32cd" stroke-dasharray="5,2" d="M408.844,-454C447.284,-454 494.201,-454 529.498,-454"/>
<polygon fill="#9a32cd" stroke="#9a32cd" points="408.756,-450.5 398.756,-454 408.756,-457.5 408.756,-450.5"/>
<text text-anchor="middle" x="458" y="-458" font-family="Helvetica,sans-Serif" font-size="10.00"> Particle</text>
</g>
<!-- Node30 -->
<g id="node67" class="node"><title>Node30</title>
<a xlink:href="classant_1_1analysis_1_1_prompt_random_1_1_switch.html" target="_top" xlink:title="ant::analysis::PromptRandom\l::Switch">
<polygon fill="white" stroke="black" points="1546,-212 1546,-246 1692,-246 1692,-212 1546,-212"/>
<text text-anchor="start" x="1554" y="-233" font-family="Helvetica,sans-Serif" font-size="10.00">ant::analysis::PromptRandom</text>
<text text-anchor="middle" x="1619" y="-220" font-family="Helvetica,sans-Serif" font-size="10.00">::Switch</text>
</a>
</g>
<!-- Node30&#45;&gt;Node1 -->
<g id="edge98" class="edge"><title>Node30&#45;&gt;Node1</title>
<path fill="none" stroke="#9a32cd" stroke-dasharray="5,2" d="M1702.24,-223.642C1766.29,-220.625 1856.92,-218.75 1936,-226 1965.9,-228.742 1998.83,-234.58 2025.83,-240.128"/>
<polygon fill="#9a32cd" stroke="#9a32cd" points="1702.01,-220.149 1692.2,-224.135 1702.36,-227.141 1702.01,-220.149"/>
<text text-anchor="middle" x="1880" y="-230" font-family="Helvetica,sans-Serif" font-size="10.00"> promptrandom</text>
</g>
<!-- Node30&#45;&gt;Node15 -->
<g id="edge76" class="edge"><title>Node30&#45;&gt;Node15</title>
<path fill="none" stroke="#9a32cd" stroke-dasharray="5,2" d="M1702.24,-243.323C1735.12,-250.218 1772.89,-259.705 1806,-272 1821.66,-277.813 1838.18,-286.274 1851.63,-293.83"/>
<polygon fill="#9a32cd" stroke="#9a32cd" points="1702.71,-239.845 1692.21,-241.266 1701.3,-246.702 1702.71,-239.845"/>
<text text-anchor="middle" x="1766" y="-276" font-family="Helvetica,sans-Serif" font-size="10.00"> promptrandom</text>
</g>
<!-- Node31 -->
<g id="node69" class="node"><title>Node31</title>
<a xlink:href="structant_1_1analysis_1_1physics_1_1_etap_dalitz_1_1_reaction_channel_list__t.html" target="_top" xlink:title="ant::analysis::physics\l::EtapDalitz::ReactionChannel\lList_t">
<polygon fill="white" stroke="black" points="904.5,-99.5 904.5,-146.5 1053.5,-146.5 1053.5,-99.5 904.5,-99.5"/>
<text text-anchor="start" x="912.5" y="-133.5" font-family="Helvetica,sans-Serif" font-size="10.00">ant::analysis::physics</text>
<text text-anchor="start" x="912.5" y="-120.5" font-family="Helvetica,sans-Serif" font-size="10.00">::EtapDalitz::ReactionChannel</text>
<text text-anchor="middle" x="979" y="-107.5" font-family="Helvetica,sans-Serif" font-size="10.00">List_t</text>
</a>
</g>
<!-- Node31&#45;&gt;Node1 -->
<g id="edge78" class="edge"><title>Node31&#45;&gt;Node1</title>
<path fill="none" stroke="#9a32cd" stroke-dasharray="5,2" d="M1063.75,-120.047C1114.32,-118.532 1179.83,-117 1238,-117 1238,-117 1238,-117 1880,-117 1964.13,-117 2039.53,-199.18 2068.93,-235.776"/>
<polygon fill="#9a32cd" stroke="#9a32cd" points="1063.4,-116.556 1053.51,-120.36 1063.61,-123.553 1063.4,-116.556"/>
<text text-anchor="middle" x="1471" y="-121" font-family="Helvetica,sans-Serif" font-size="10.00"> reaction_channels</text>
</g>
<!-- Node32 -->
<g id="node71" class="node"><title>Node32</title>
<polygon fill="white" stroke="#bfbfbf" points="498.5,-121.5 498.5,-168.5 665.5,-168.5 665.5,-121.5 498.5,-121.5"/>
<text text-anchor="start" x="506.5" y="-155.5" font-family="Helvetica,sans-Serif" font-size="10.00">std::map&lt; unsigned,</text>
<text text-anchor="start" x="506.5" y="-142.5" font-family="Helvetica,sans-Serif" font-size="10.00"> ant::analysis::physics</text>
<text text-anchor="middle" x="582" y="-129.5" font-family="Helvetica,sans-Serif" font-size="10.00">::EtapDalitz::ReactionChannel_t &gt;</text>
</g>
<!-- Node32&#45;&gt;Node31 -->
<g id="edge80" class="edge"><title>Node32&#45;&gt;Node31</title>
<path fill="none" stroke="#9a32cd" stroke-dasharray="5,2" d="M675.83,-139.8C745.666,-135.93 839.711,-130.719 904.442,-127.132"/>
<polygon fill="#9a32cd" stroke="#9a32cd" points="675.499,-136.313 665.708,-140.361 675.887,-143.302 675.499,-136.313"/>
<text text-anchor="middle" x="706" y="-143" font-family="Helvetica,sans-Serif" font-size="10.00"> channels</text>
</g>
<!-- Node33&#45;&gt;Node32 -->
<g id="edge82" class="edge"><title>Node33&#45;&gt;Node32</title>
<path fill="none" stroke="#9a32cd" stroke-dasharray="5,2" d="M428.271,-152.592C451.156,-151.461 475.685,-150.25 498.278,-149.134"/>
<polygon fill="#9a32cd" stroke="#9a32cd" points="428.046,-149.098 418.231,-153.087 428.392,-156.09 428.046,-149.098"/>
<text text-anchor="middle" x="458" y="-156" font-family="Helvetica,sans-Serif" font-size="10.00"> elements</text>
</g>
<!-- Node34 -->
<g id="node76" class="node"><title>Node34</title>
<a xlink:href="structant_1_1analysis_1_1utils_1_1_cluster_tools.html" target="_top" xlink:title="ant::analysis::utils\l::ClusterTools">
<polygon fill="white" stroke="black" points="1832,-12 1832,-46 1928,-46 1928,-12 1832,-12"/>
<text text-anchor="start" x="1840" y="-33" font-family="Helvetica,sans-Serif" font-size="10.00">ant::analysis::utils</text>
<text text-anchor="middle" x="1880" y="-20" font-family="Helvetica,sans-Serif" font-size="10.00">::ClusterTools</text>
</a>
</g>
<!-- Node34&#45;&gt;Node1 -->
<g id="edge86" class="edge"><title>Node34&#45;&gt;Node1</title>
<path fill="none" stroke="#9a32cd" stroke-dasharray="5,2" d="M1938.33,-25.719C1962.25,-27.2946 1988.78,-33.174 2008,-49 2038.03,-73.7279 2067.76,-191.299 2078.14,-235.842"/>
<polygon fill="#9a32cd" stroke="#9a32cd" points="1938.4,-22.2191 1928.26,-25.2909 1938.11,-29.2128 1938.4,-22.2191"/>
<text text-anchor="middle" x="1981" y="-53" font-family="Helvetica,sans-Serif" font-size="10.00"> clustertools</text>
</g>
<!-- Node35 -->
<g id="node78" class="node"><title>Node35</title>
<polygon fill="white" stroke="#bfbfbf" points="1549.5,-0.5 1549.5,-47.5 1688.5,-47.5 1688.5,-0.5 1549.5,-0.5"/>
<text text-anchor="start" x="1557.5" y="-34.5" font-family="Helvetica,sans-Serif" font-size="10.00">std::map&lt; ant::Detector</text>
<text text-anchor="start" x="1557.5" y="-21.5" font-family="Helvetica,sans-Serif" font-size="10.00">_t::Type_t, ant::analysis</text>
<text text-anchor="middle" x="1619" y="-8.5" font-family="Helvetica,sans-Serif" font-size="10.00">::utils::ClusterTools::det_t &gt;</text>
</g>
<!-- Node35&#45;&gt;Node34 -->
<g id="edge88" class="edge"><title>Node35&#45;&gt;Node34</title>
<path fill="none" stroke="#9a32cd" stroke-dasharray="5,2" d="M1698.85,-25.5297C1742.22,-26.3605 1794.43,-27.3606 1831.63,-28.0733"/>
<polygon fill="#9a32cd" stroke="#9a32cd" points="1698.67,-22.0256 1688.6,-25.3333 1698.53,-29.0243 1698.67,-22.0256"/>
<text text-anchor="middle" x="1766" y="-32" font-family="Helvetica,sans-Serif" font-size="10.00"> cluster_detectors</text>
</g>
<!-- Node36 -->
<g id="node80" class="node"><title>Node36</title>
<a xlink:href="structant_1_1analysis_1_1utils_1_1_cluster_tools_1_1det__t.html" target="_top" xlink:title="ant::analysis::utils\l::ClusterTools::det_t">
<polygon fill="white" stroke="black" points="1292,-6 1292,-40 1398,-40 1398,-6 1292,-6"/>
<text text-anchor="start" x="1300" y="-27" font-family="Helvetica,sans-Serif" font-size="10.00">ant::analysis::utils</text>
<text text-anchor="middle" x="1345" y="-14" font-family="Helvetica,sans-Serif" font-size="10.00">::ClusterTools::det_t</text>
</a>
</g>
<!-- Node36&#45;&gt;Node35 -->
<g id="edge90" class="edge"><title>Node36&#45;&gt;Node35</title>
<path fill="none" stroke="#9a32cd" stroke-dasharray="5,2" d="M1408.3,-23.231C1450.49,-23.385 1505.95,-23.5874 1549.38,-23.7459"/>
<polygon fill="#9a32cd" stroke="#9a32cd" points="1408.17,-19.7306 1398.15,-23.194 1408.14,-26.7306 1408.17,-19.7306"/>
<text text-anchor="middle" x="1471" y="-28" font-family="Helvetica,sans-Serif" font-size="10.00"> elements</text>
</g>
<!-- Node37 -->
<g id="node82" class="node"><title>Node37</title>
<polygon fill="white" stroke="#bfbfbf" points="1080,-12.5 1080,-33.5 1190,-33.5 1190,-12.5 1080,-12.5"/>
<text text-anchor="middle" x="1135" y="-20.5" font-family="Helvetica,sans-Serif" font-size="10.00">std::vector&lt; double &gt;</text>
</g>
<!-- Node37&#45;&gt;Node36 -->
<g id="edge92" class="edge"><title>Node37&#45;&gt;Node36</title>
<path fill="none" stroke="#9a32cd" stroke-dasharray="5,2" d="M1200.33,-23C1229.68,-23 1263.87,-23 1291.64,-23"/>
<polygon fill="#9a32cd" stroke="#9a32cd" points="1200.18,-19.5001 1190.18,-23 1200.17,-26.5001 1200.18,-19.5001"/>
<text text-anchor="middle" x="1238" y="-27" font-family="Helvetica,sans-Serif" font-size="10.00"> R0</text>
</g>
<!-- Node38&#45;&gt;Node1 -->
<g id="edge100" class="edge"><title>Node38&#45;&gt;Node1</title>
<path fill="none" stroke="#9a32cd" stroke-dasharray="5,2" d="M1718.35,-180.715C1781.14,-184.231 1863.78,-191.01 1936,-204 1968.69,-209.879 1976.5,-213.483 2008,-224 2018.73,-227.583 2030.18,-231.846 2040.79,-235.986"/>
<polygon fill="#9a32cd" stroke="#9a32cd" points="1718.23,-177.203 1708.06,-180.158 1717.85,-184.193 1718.23,-177.203"/>
<text text-anchor="middle" x="1880" y="-208" font-family="Helvetica,sans-Serif" font-size="10.00"> productions</text>
</g>
<!-- Node39&#45;&gt;Node1 -->
<g id="edge106" class="edge"><title>Node39&#45;&gt;Node1</title>
<path fill="none" stroke="#9a32cd" stroke-dasharray="5,2" d="M663.96,-76C708.862,-76 765.496,-76 816,-76 816,-76 816,-76 1880,-76 1942.1,-76 1961.2,-91.1881 2008,-132 2041.78,-161.455 2064.93,-210.186 2075.49,-235.897"/>
<polygon fill="#9a32cd" stroke="#9a32cd" points="663.689,-72.5001 653.689,-76 663.689,-79.5001 663.689,-72.5001"/>
<text text-anchor="middle" x="1345" y="-80" font-family="Helvetica,sans-Serif" font-size="10.00"> channels</text>
</g>
<!-- Node40&#45;&gt;Node39 -->
<g id="edge108" class="edge"><title>Node40&#45;&gt;Node39</title>
<path fill="none" stroke="#9a32cd" stroke-dasharray="5,2" d="M416.121,-95.7963C446.353,-92.1884 480.835,-88.0732 510.5,-84.533"/>
<polygon fill="#9a32cd" stroke="#9a32cd" points="415.559,-92.3384 406.044,-96.9989 416.388,-99.2891 415.559,-92.3384"/>
<text text-anchor="middle" x="458" y="-97" font-family="Helvetica,sans-Serif" font-size="10.00"> elements</text>
</g>
</g>
</svg>
