<?xml version="1.0" encoding="UTF-8" standalone="no"?>
<!DOCTYPE svg PUBLIC "-//W3C//DTD SVG 1.1//EN"
 "http://www.w3.org/Graphics/SVG/1.1/DTD/svg11.dtd">
<!-- Generated by graphviz version 2.26.3 (20100126.1600)
 -->
<!-- Title: ant::analysis::utils::MCFakeReconstructed Pages: 1 -->
<svg width="2278pt" height="946pt"
 viewBox="0.00 0.00 2278.00 946.00" xmlns="http://www.w3.org/2000/svg" xmlns:xlink="http://www.w3.org/1999/xlink">
<g id="graph1" class="graph" transform="scale(1 1) rotate(0) translate(4 942)">
<title>ant::analysis::utils::MCFakeReconstructed</title>
<polygon fill="white" stroke="white" points="-4,5 -4,-942 2275,-942 2275,5 -4,5"/>
<!-- Node1 -->
<g id="node1" class="node"><title>Node1</title>
<polygon fill="#bfbfbf" stroke="black" points="2146,-846 2146,-880 2270,-880 2270,-846 2146,-846"/>
<text text-anchor="start" x="2154" y="-867" font-family="Helvetica,sans-Serif" font-size="10.00">ant::analysis::utils</text>
<text text-anchor="middle" x="2208" y="-854" font-family="Helvetica,sans-Serif" font-size="10.00">::MCFakeReconstructed</text>
</g>
<!-- Node2 -->
<g id="node2" class="node"><title>Node2</title>
<a xlink:href="classant_1_1analysis_1_1utils_1_1_a2_simple_geometry.html" target="_top" xlink:title="ant::analysis::utils\l::A2SimpleGeometry">
<polygon fill="white" stroke="black" points="816.5,-885 816.5,-919 923.5,-919 923.5,-885 816.5,-885"/>
<text text-anchor="start" x="824.5" y="-906" font-family="Helvetica,sans-Serif" font-size="10.00">ant::analysis::utils</text>
<text text-anchor="middle" x="870" y="-893" font-family="Helvetica,sans-Serif" font-size="10.00">::A2SimpleGeometry</text>
</a>
</g>
<!-- Node2&#45;&gt;Node1 -->
<g id="edge2" class="edge"><title>Node2&#45;&gt;Node1</title>
<path fill="none" stroke="#9a32cd" stroke-dasharray="5,2" d="M933.531,-902C998.101,-902 1101.01,-902 1190,-902 1190,-902 1190,-902 2024,-902 2069.23,-902 2119.37,-890.585 2155.88,-880.106"/>
<polygon fill="#9a32cd" stroke="#9a32cd" points="933.506,-898.5 923.506,-902 933.505,-905.5 933.506,-898.5"/>
<text text-anchor="middle" x="1665" y="-906" font-family="Helvetica,sans-Serif" font-size="10.00"> geo</text>
</g>
<!-- Node3 -->
<g id="node4" class="node"><title>Node3</title>
<a xlink:href="classant_1_1interval.html" target="_top" xlink:title="ant::interval\&lt; double \&gt;">
<polygon fill="white" stroke="black" points="516,-880.5 516,-901.5 630,-901.5 630,-880.5 516,-880.5"/>
<text text-anchor="middle" x="573" y="-888.5" font-family="Helvetica,sans-Serif" font-size="10.00">ant::interval&lt; double &gt;</text>
</a>
</g>
<!-- Node3&#45;&gt;Node2 -->
<g id="edge4" class="edge"><title>Node3&#45;&gt;Node2</title>
<path fill="none" stroke="#9a32cd" stroke-dasharray="5,2" d="M640.306,-893.493C693.603,-895.467 767.047,-898.187 816.409,-900.015"/>
<polygon fill="#9a32cd" stroke="#9a32cd" points="640.387,-889.994 630.265,-893.121 640.128,-896.989 640.387,-889.994"/>
<text text-anchor="middle" x="723" y="-929" font-family="Helvetica,sans-Serif" font-size="10.00"> cb_phi_hem1</text>
<text text-anchor="middle" x="723" y="-916" font-family="Helvetica,sans-Serif" font-size="10.00">cb_theta_region</text>
<text text-anchor="middle" x="723" y="-903" font-family="Helvetica,sans-Serif" font-size="10.00">taps_region</text>
</g>
<!-- Node4 -->
<g id="node6" class="node"><title>Node4</title>
<a xlink:href="classant_1_1printable__traits.html" target="_top" xlink:title="ant::printable_traits">
<polygon fill="white" stroke="black" points="149,-532.5 149,-553.5 249,-553.5 249,-532.5 149,-532.5"/>
<text text-anchor="middle" x="199" y="-540.5" font-family="Helvetica,sans-Serif" font-size="10.00">ant::printable_traits</text>
</a>
</g>
<!-- Node4&#45;&gt;Node3 -->
<g id="edge6" class="edge"><title>Node4&#45;&gt;Node3</title>
<path fill="none" stroke="midnightblue" d="M200.654,-563.842C205.365,-610.564 222.628,-725.124 282,-796 339.931,-865.156 448.983,-884.369 515.89,-889.465"/>
<polygon fill="midnightblue" stroke="midnightblue" points="204.126,-563.371 199.728,-553.732 197.155,-564.009 204.126,-563.371"/>
</g>
<!-- Node6 -->
<g id="node10" class="node"><title>Node6</title>
<a xlink:href="structant_1_1_t_event_data.html" target="_top" xlink:title="ant::TEventData">
<polygon fill="white" stroke="black" points="1830.5,-522.5 1830.5,-543.5 1919.5,-543.5 1919.5,-522.5 1830.5,-522.5"/>
<text text-anchor="middle" x="1875" y="-530.5" font-family="Helvetica,sans-Serif" font-size="10.00">ant::TEventData</text>
</a>
</g>
<!-- Node4&#45;&gt;Node6 -->
<g id="edge12" class="edge"><title>Node4&#45;&gt;Node6</title>
<path fill="none" stroke="midnightblue" d="M203.027,-522.568C211.472,-484.483 234.329,-401.903 282,-351 309.31,-321.838 323.374,-320.211 362,-310 580.484,-252.244 644.011,-288 870,-288 870,-288 870,-288 1665,-288 1790.49,-288 1857.15,-475.578 1871.86,-522.473"/>
<polygon fill="midnightblue" stroke="midnightblue" points="199.577,-521.965 200.937,-532.472 206.426,-523.41 199.577,-521.965"/>
</g>
<!-- Node16 -->
<g id="node33" class="node"><title>Node16</title>
<a xlink:href="structant_1_1_t_detector_read_hit.html" target="_top" xlink:title="ant::TDetectorReadHit">
<polygon fill="white" stroke="black" points="372,-76.5 372,-97.5 488,-97.5 488,-76.5 372,-76.5"/>
<text text-anchor="middle" x="430" y="-84.5" font-family="Helvetica,sans-Serif" font-size="10.00">ant::TDetectorReadHit</text>
</a>
</g>
<!-- Node4&#45;&gt;Node16 -->
<g id="edge38" class="edge"><title>Node4&#45;&gt;Node16</title>
<path fill="none" stroke="midnightblue" d="M204.042,-522.538C220.712,-455.101 273.475,-243.422 282,-231 301.267,-202.927 318.895,-209.001 344,-186 375.895,-156.778 407.818,-116.399 422.159,-97.5209"/>
<polygon fill="midnightblue" stroke="midnightblue" points="200.606,-521.853 201.608,-532.401 207.402,-523.531 200.606,-521.853"/>
</g>
<!-- Node21 -->
<g id="node44" class="node"><title>Node21</title>
<a xlink:href="structant_1_1_t_unpacker_message.html" target="_top" xlink:title="ant::TUnpackerMessage">
<polygon fill="white" stroke="black" points="368,-180.5 368,-201.5 492,-201.5 492,-180.5 368,-180.5"/>
<text text-anchor="middle" x="430" y="-188.5" font-family="Helvetica,sans-Serif" font-size="10.00">ant::TUnpackerMessage</text>
</a>
</g>
<!-- Node4&#45;&gt;Node21 -->
<g id="edge50" class="edge"><title>Node4&#45;&gt;Node21</title>
<path fill="none" stroke="midnightblue" d="M201.059,-522.358C206.6,-476.014 225.45,-361.98 282,-288 314.37,-245.653 370.843,-216.152 403.88,-201.535"/>
<polygon fill="midnightblue" stroke="midnightblue" points="197.571,-522.055 199.946,-532.38 204.528,-522.827 197.571,-522.055"/>
</g>
<!-- Node25 -->
<g id="node54" class="node"><title>Node25</title>
<a xlink:href="structant_1_1_t_tagger_hit.html" target="_top" xlink:title="ant::TTaggerHit">
<polygon fill="white" stroke="black" points="1293.5,-660.5 1293.5,-681.5 1378.5,-681.5 1378.5,-660.5 1293.5,-660.5"/>
<text text-anchor="middle" x="1336" y="-668.5" font-family="Helvetica,sans-Serif" font-size="10.00">ant::TTaggerHit</text>
</a>
</g>
<!-- Node4&#45;&gt;Node25 -->
<g id="edge62" class="edge"><title>Node4&#45;&gt;Node25</title>
<path fill="none" stroke="midnightblue" d="M203.298,-563.802C211.801,-599.549 234.235,-672.496 282,-711 310.534,-734.001 325.625,-726.522 362,-731 507.947,-748.967 610.531,-728.465 1104,-697 1172.48,-692.634 1189.97,-694.939 1258,-686 1269.48,-684.491 1281.83,-682.357 1293.24,-680.171"/>
<polygon fill="midnightblue" stroke="midnightblue" points="206.613,-562.588 201.013,-553.594 199.782,-564.117 206.613,-562.588"/>
</g>
<!-- Node27 -->
<g id="node59" class="node"><title>Node27</title>
<a xlink:href="structant_1_1_t_key_value.html" target="_top" xlink:title="ant::TKeyValue\&lt; ant\l::TTaggerHit::Electron_t \&gt;">
<polygon fill="white" stroke="black" points="657.5,-654 657.5,-688 788.5,-688 788.5,-654 657.5,-654"/>
<text text-anchor="start" x="665.5" y="-675" font-family="Helvetica,sans-Serif" font-size="10.00">ant::TKeyValue&lt; ant</text>
<text text-anchor="middle" x="723" y="-662" font-family="Helvetica,sans-Serif" font-size="10.00">::TTaggerHit::Electron_t &gt;</text>
</a>
</g>
<!-- Node4&#45;&gt;Node27 -->
<g id="edge68" class="edge"><title>Node4&#45;&gt;Node27</title>
<path fill="none" stroke="midnightblue" d="M215.202,-560.97C230.786,-577.175 255.787,-600.476 282,-614 403.262,-676.562 567.3,-679.906 657.242,-675.981"/>
<polygon fill="midnightblue" stroke="midnightblue" points="217.738,-558.558 208.344,-553.659 212.633,-563.347 217.738,-558.558"/>
</g>
<!-- Node28 -->
<g id="node62" class="node"><title>Node28</title>
<a xlink:href="structant_1_1_t_tagger_hit_1_1_electron__t.html" target="_top" xlink:title="ant::TTaggerHit::Electron_t">
<polygon fill="white" stroke="black" points="362.5,-700.5 362.5,-721.5 497.5,-721.5 497.5,-700.5 362.5,-700.5"/>
<text text-anchor="middle" x="430" y="-708.5" font-family="Helvetica,sans-Serif" font-size="10.00">ant::TTaggerHit::Electron_t</text>
</a>
</g>
<!-- Node4&#45;&gt;Node28 -->
<g id="edge72" class="edge"><title>Node4&#45;&gt;Node28</title>
<path fill="none" stroke="midnightblue" d="M204.804,-563.754C214.866,-595.61 238.738,-656.012 282,-686 305.237,-702.107 335.362,-709.051 362.363,-711.707"/>
<polygon fill="midnightblue" stroke="midnightblue" points="208.036,-562.347 201.812,-553.773 201.331,-564.357 208.036,-562.347"/>
</g>
<!-- Node29 -->
<g id="node65" class="node"><title>Node29</title>
<a xlink:href="structant_1_1_t_i_d.html" target="_top" xlink:title="ant::TID">
<polygon fill="white" stroke="black" points="546.5,-828.5 546.5,-849.5 599.5,-849.5 599.5,-828.5 546.5,-828.5"/>
<text text-anchor="middle" x="573" y="-836.5" font-family="Helvetica,sans-Serif" font-size="10.00">ant::TID</text>
</a>
</g>
<!-- Node4&#45;&gt;Node29 -->
<g id="edge76" class="edge"><title>Node4&#45;&gt;Node29</title>
<path fill="none" stroke="midnightblue" d="M200.569,-563.685C205.031,-607.448 221.698,-709.829 282,-764 358.653,-832.858 490.232,-840.11 546.366,-839.828"/>
<polygon fill="midnightblue" stroke="midnightblue" points="204.049,-563.302 199.661,-553.659 197.078,-563.934 204.049,-563.302"/>
</g>
<!-- Node31 -->
<g id="node70" class="node"><title>Node31</title>
<a xlink:href="structant_1_1_t_target.html" target="_top" xlink:title="ant::TTarget">
<polygon fill="white" stroke="black" points="688,-588.5 688,-609.5 758,-609.5 758,-588.5 688,-588.5"/>
<text text-anchor="middle" x="723" y="-596.5" font-family="Helvetica,sans-Serif" font-size="10.00">ant::TTarget</text>
</a>
</g>
<!-- Node4&#45;&gt;Node31 -->
<g id="edge82" class="edge"><title>Node4&#45;&gt;Node31</title>
<path fill="none" stroke="midnightblue" d="M224.106,-559.076C240.207,-568.912 261.806,-581.245 282,-590 316.178,-604.817 325.175,-609.38 362,-615 479.749,-632.97 511.305,-623.963 630,-614 649.231,-612.386 670.492,-609.073 687.827,-605.97"/>
<polygon fill="midnightblue" stroke="midnightblue" points="225.656,-555.918 215.314,-553.619 221.965,-561.866 225.656,-555.918"/>
</g>
<!-- Node32 -->
<g id="node73" class="node"><title>Node32</title>
<a xlink:href="structant_1_1vec3.html" target="_top" xlink:title="ant::vec3">
<polygon fill="white" stroke="black" points="401.5,-584.5 401.5,-605.5 458.5,-605.5 458.5,-584.5 401.5,-584.5"/>
<text text-anchor="middle" x="430" y="-592.5" font-family="Helvetica,sans-Serif" font-size="10.00">ant::vec3</text>
</a>
</g>
<!-- Node4&#45;&gt;Node32 -->
<g id="edge86" class="edge"><title>Node4&#45;&gt;Node32</title>
<path fill="none" stroke="midnightblue" d="M237.598,-556.862C251.47,-561.495 267.317,-566.392 282,-570 322.995,-580.072 371.373,-587.408 401.373,-591.437"/>
<polygon fill="midnightblue" stroke="midnightblue" points="238.485,-553.467 227.891,-553.557 236.229,-560.093 238.485,-553.467"/>
</g>
<!-- Node34 -->
<g id="node78" class="node"><title>Node34</title>
<a xlink:href="structant_1_1_t_slow_control.html" target="_top" xlink:title="ant::TSlowControl">
<polygon fill="white" stroke="black" points="975.5,-400.5 975.5,-421.5 1070.5,-421.5 1070.5,-400.5 975.5,-400.5"/>
<text text-anchor="middle" x="1023" y="-408.5" font-family="Helvetica,sans-Serif" font-size="10.00">ant::TSlowControl</text>
</a>
</g>
<!-- Node4&#45;&gt;Node34 -->
<g id="edge92" class="edge"><title>Node4&#45;&gt;Node34</title>
<path fill="none" stroke="midnightblue" d="M239.167,-529.267C271.847,-518.679 319.37,-504.601 362,-497 553.349,-462.884 604.806,-484.31 798,-463 854.228,-456.798 869.004,-458.246 924,-445 949.088,-438.957 976.804,-429.157 996.514,-421.627"/>
<polygon fill="midnightblue" stroke="midnightblue" points="237.934,-525.988 229.523,-532.43 240.116,-532.639 237.934,-525.988"/>
</g>
<!-- Node36 -->
<g id="node83" class="node"><title>Node36</title>
<a xlink:href="structant_1_1_t_key_value.html" target="_top" xlink:title="ant::TKeyValue\&lt; double \&gt;">
<polygon fill="white" stroke="black" points="364.5,-425.5 364.5,-446.5 495.5,-446.5 495.5,-425.5 364.5,-425.5"/>
<text text-anchor="middle" x="430" y="-433.5" font-family="Helvetica,sans-Serif" font-size="10.00">ant::TKeyValue&lt; double &gt;</text>
</a>
</g>
<!-- Node4&#45;&gt;Node36 -->
<g id="edge98" class="edge"><title>Node4&#45;&gt;Node36</title>
<path fill="none" stroke="midnightblue" d="M206.991,-522.892C218.833,-496.204 243.835,-450.22 282,-431 316.902,-413.424 362.534,-418.482 393.849,-425.493"/>
<polygon fill="midnightblue" stroke="midnightblue" points="203.645,-521.819 202.971,-532.392 210.092,-524.546 203.645,-521.819"/>
</g>
<!-- Node38 -->
<g id="node88" class="node"><title>Node38</title>
<a xlink:href="structant_1_1_t_key_value.html" target="_top" xlink:title="ant::TKeyValue\&lt; std\l::int64_t \&gt;">
<polygon fill="white" stroke="black" points="376.5,-372 376.5,-406 483.5,-406 483.5,-372 376.5,-372"/>
<text text-anchor="start" x="384.5" y="-393" font-family="Helvetica,sans-Serif" font-size="10.00">ant::TKeyValue&lt; std</text>
<text text-anchor="middle" x="430" y="-380" font-family="Helvetica,sans-Serif" font-size="10.00">::int64_t &gt;</text>
</a>
</g>
<!-- Node4&#45;&gt;Node38 -->
<g id="edge104" class="edge"><title>Node4&#45;&gt;Node38</title>
<path fill="none" stroke="midnightblue" d="M206.109,-522.767C217.388,-493.85 242.267,-441.3 282,-415 309.628,-396.713 346.268,-390.171 376.179,-388.222"/>
<polygon fill="midnightblue" stroke="midnightblue" points="202.784,-521.666 202.566,-532.259 209.342,-524.114 202.784,-521.666"/>
</g>
<!-- Node40 -->
<g id="node94" class="node"><title>Node40</title>
<a xlink:href="structant_1_1_t_key_value.html" target="_top" xlink:title="ant::TKeyValue\&lt; std\l::string \&gt;">
<polygon fill="white" stroke="black" points="376.5,-319 376.5,-353 483.5,-353 483.5,-319 376.5,-319"/>
<text text-anchor="start" x="384.5" y="-340" font-family="Helvetica,sans-Serif" font-size="10.00">ant::TKeyValue&lt; std</text>
<text text-anchor="middle" x="430" y="-327" font-family="Helvetica,sans-Serif" font-size="10.00">::string &gt;</text>
</a>
</g>
<!-- Node4&#45;&gt;Node40 -->
<g id="edge112" class="edge"><title>Node4&#45;&gt;Node40</title>
<path fill="none" stroke="midnightblue" d="M204.704,-522.367C214.849,-489.383 239.102,-424.762 282,-388 308.573,-365.228 345.759,-352.215 376.208,-344.902"/>
<polygon fill="midnightblue" stroke="midnightblue" points="201.26,-521.673 201.798,-532.254 207.976,-523.647 201.26,-521.673"/>
</g>
<!-- Node41 -->
<g id="node98" class="node"><title>Node41</title>
<a xlink:href="structant_1_1_t_trigger.html" target="_top" xlink:title="ant::TTrigger">
<polygon fill="white" stroke="black" points="987,-522.5 987,-543.5 1059,-543.5 1059,-522.5 987,-522.5"/>
<text text-anchor="middle" x="1023" y="-530.5" font-family="Helvetica,sans-Serif" font-size="10.00">ant::TTrigger</text>
</a>
</g>
<!-- Node4&#45;&gt;Node41 -->
<g id="edge118" class="edge"><title>Node4&#45;&gt;Node41</title>
<path fill="none" stroke="midnightblue" d="M259.674,-543.262C370.275,-543.725 612.09,-544.67 816,-545 864,-545.078 876.087,-547.893 924,-545 944.911,-543.737 968.172,-540.987 986.889,-538.438"/>
<polygon fill="midnightblue" stroke="midnightblue" points="259.401,-539.761 249.386,-543.219 259.371,-546.761 259.401,-539.761"/>
</g>
<!-- Node43 -->
<g id="node103" class="node"><title>Node43</title>
<a xlink:href="structant_1_1_t_d_a_q_error.html" target="_top" xlink:title="ant::TDAQError">
<polygon fill="white" stroke="black" points="387.5,-506.5 387.5,-527.5 472.5,-527.5 472.5,-506.5 387.5,-506.5"/>
<text text-anchor="middle" x="430" y="-514.5" font-family="Helvetica,sans-Serif" font-size="10.00">ant::TDAQError</text>
</a>
</g>
<!-- Node4&#45;&gt;Node43 -->
<g id="edge124" class="edge"><title>Node4&#45;&gt;Node43</title>
<path fill="none" stroke="midnightblue" d="M259.083,-536.237C299.319,-531.709 351.314,-525.856 387.339,-521.802"/>
<polygon fill="midnightblue" stroke="midnightblue" points="258.669,-532.762 249.124,-537.358 259.452,-539.718 258.669,-532.762"/>
</g>
<!-- Node5 -->
<g id="node8" class="node"><title>Node5</title>
<polygon fill="white" stroke="#bfbfbf" points="1972,-759 1972,-793 2076,-793 2076,-759 1972,-759"/>
<text text-anchor="start" x="1980" y="-780" font-family="Helvetica,sans-Serif" font-size="10.00">std::unique_ptr&lt; ant</text>
<text text-anchor="middle" x="2024" y="-767" font-family="Helvetica,sans-Serif" font-size="10.00">::TEventData &gt;</text>
</g>
<!-- Node5&#45;&gt;Node1 -->
<g id="edge8" class="edge"><title>Node5&#45;&gt;Node1</title>
<path fill="none" stroke="#9a32cd" stroke-dasharray="5,2" d="M2069.41,-797.471C2101.05,-812.433 2142.69,-832.12 2172.04,-845.996"/>
<polygon fill="#9a32cd" stroke="#9a32cd" points="2070.89,-794.299 2060.35,-793.188 2067.9,-800.627 2070.89,-794.299"/>
<text text-anchor="middle" x="2111" y="-828" font-family="Helvetica,sans-Serif" font-size="10.00"> dataptr</text>
</g>
<!-- Node6&#45;&gt;Node5 -->
<g id="edge10" class="edge"><title>Node6&#45;&gt;Node5</title>
<path fill="none" stroke="#9a32cd" stroke-dasharray="5,2" d="M1886.99,-552.547C1915.44,-598.952 1986.68,-715.14 2013.54,-758.936"/>
<polygon fill="#9a32cd" stroke="#9a32cd" points="1889.81,-550.45 1881.59,-543.755 1883.84,-554.11 1889.81,-550.45"/>
<text text-anchor="middle" x="1946" y="-665" font-family="Helvetica,sans-Serif" font-size="10.00"> ptr</text>
</g>
<!-- Node7 -->
<g id="node13" class="node"><title>Node7</title>
<a xlink:href="classant_1_1std__ext_1_1shared__ptr__container.html" target="_top" xlink:title="ant::std_ext::shared\l_ptr_container\&lt; TCandidate \&gt;">
<polygon fill="white" stroke="black" points="1592,-112 1592,-146 1738,-146 1738,-112 1592,-112"/>
<text text-anchor="start" x="1600" y="-133" font-family="Helvetica,sans-Serif" font-size="10.00">ant::std_ext::shared</text>
<text text-anchor="middle" x="1665" y="-120" font-family="Helvetica,sans-Serif" font-size="10.00">_ptr_container&lt; TCandidate &gt;</text>
</a>
</g>
<!-- Node7&#45;&gt;Node6 -->
<g id="edge14" class="edge"><title>Node7&#45;&gt;Node6</title>
<path fill="none" stroke="#9a32cd" stroke-dasharray="5,2" d="M1748.43,-121.589C1771.66,-123.824 1795.12,-130.784 1812,-147 1867.94,-200.748 1874.21,-466.072 1874.91,-522.455"/>
<polygon fill="#9a32cd" stroke="#9a32cd" points="1748.37,-118.077 1738.16,-120.892 1747.9,-125.06 1748.37,-118.077"/>
<text text-anchor="middle" x="1784" y="-151" font-family="Helvetica,sans-Serif" font-size="10.00"> Candidates</text>
</g>
<!-- Node8 -->
<g id="node15" class="node"><title>Node8</title>
<a xlink:href="classant_1_1std__ext_1_1shared__ptr__container.html" target="_top" xlink:title="ant::std_ext::shared\l_ptr_container\&lt; TCluster \&gt;">
<polygon fill="white" stroke="black" points="1598,-60 1598,-94 1732,-94 1732,-60 1598,-60"/>
<text text-anchor="start" x="1606" y="-81" font-family="Helvetica,sans-Serif" font-size="10.00">ant::std_ext::shared</text>
<text text-anchor="middle" x="1665" y="-68" font-family="Helvetica,sans-Serif" font-size="10.00">_ptr_container&lt; TCluster &gt;</text>
</a>
</g>
<!-- Node8&#45;&gt;Node6 -->
<g id="edge16" class="edge"><title>Node8&#45;&gt;Node6</title>
<path fill="none" stroke="#9a32cd" stroke-dasharray="5,2" d="M1742.13,-75.7527C1767.64,-79.3376 1794.06,-88.0495 1812,-107 1841.62,-138.282 1868.98,-458.592 1874.13,-522.093"/>
<polygon fill="#9a32cd" stroke="#9a32cd" points="1742.38,-72.2582 1732.04,-74.5842 1741.57,-79.2117 1742.38,-72.2582"/>
<text text-anchor="middle" x="1784" y="-111" font-family="Helvetica,sans-Serif" font-size="10.00"> Clusters</text>
</g>
<!-- Node9 -->
<g id="node17" class="node"><title>Node9</title>
<a xlink:href="classant_1_1_tree.html" target="_top" xlink:title="ant::Tree\&lt; TParticlePtr \&gt;">
<polygon fill="white" stroke="black" points="1602.5,-742.5 1602.5,-763.5 1727.5,-763.5 1727.5,-742.5 1602.5,-742.5"/>
<text text-anchor="middle" x="1665" y="-750.5" font-family="Helvetica,sans-Serif" font-size="10.00">ant::Tree&lt; TParticlePtr &gt;</text>
</a>
</g>
<!-- Node9&#45;&gt;Node6 -->
<g id="edge18" class="edge"><title>Node9&#45;&gt;Node6</title>
<path fill="none" stroke="#9a32cd" stroke-dasharray="5,2" d="M1709.07,-738.878C1741.19,-726.651 1783.83,-706.138 1812,-676 1849.6,-635.766 1867.19,-569.422 1872.85,-543.676"/>
<polygon fill="#9a32cd" stroke="#9a32cd" points="1707.65,-735.672 1699.47,-742.408 1710.06,-742.242 1707.65,-735.672"/>
<text text-anchor="middle" x="1784" y="-720" font-family="Helvetica,sans-Serif" font-size="10.00"> ParticleTree</text>
</g>
<!-- Node10 -->
<g id="node19" class="node"><title>Node10</title>
<polygon fill="white" stroke="#bfbfbf" points="675,-796.5 675,-817.5 771,-817.5 771,-796.5 675,-796.5"/>
<text text-anchor="middle" x="723" y="-804.5" font-family="Helvetica,sans-Serif" font-size="10.00">std::list&lt; node_t &gt;</text>
</g>
<!-- Node10&#45;&gt;Node9 -->
<g id="edge20" class="edge"><title>Node10&#45;&gt;Node9</title>
<path fill="none" stroke="#9a32cd" stroke-dasharray="5,2" d="M781.148,-808.184C960.529,-811.616 1497.79,-820.153 1574,-801 1603.1,-793.686 1633.2,-775.3 1650.45,-763.523"/>
<polygon fill="#9a32cd" stroke="#9a32cd" points="781.178,-804.684 771.112,-807.991 781.043,-811.683 781.178,-804.684"/>
<text text-anchor="middle" x="1190" y="-817" font-family="Helvetica,sans-Serif" font-size="10.00"> daughters</text>
</g>
<!-- Node12 -->
<g id="node23" class="node"><title>Node12</title>
<a xlink:href="classant_1_1_tree.html" target="_top" xlink:title="ant::Tree\&lt; T \&gt;">
<polygon fill="white" stroke="black" points="983,-755.5 983,-776.5 1063,-776.5 1063,-755.5 983,-755.5"/>
<text text-anchor="middle" x="1023" y="-763.5" font-family="Helvetica,sans-Serif" font-size="10.00">ant::Tree&lt; T &gt;</text>
</a>
</g>
<!-- Node10&#45;&gt;Node12 -->
<g id="edge26" class="edge"><title>Node10&#45;&gt;Node12</title>
<path fill="none" stroke="#9a32cd" stroke-dasharray="5,2" d="M781.166,-796.531C792.692,-794.587 804.716,-792.651 816,-791 873.845,-782.536 941.088,-774.802 982.851,-770.245"/>
<polygon fill="#9a32cd" stroke="#9a32cd" points="780.463,-793.101 771.195,-798.235 781.642,-800.001 780.463,-793.101"/>
<text text-anchor="middle" x="870" y="-795" font-family="Helvetica,sans-Serif" font-size="10.00"> daughters</text>
</g>
<!-- Node11 -->
<g id="node21" class="node"><title>Node11</title>
<polygon fill="white" stroke="#bfbfbf" points="1279.5,-767.5 1279.5,-788.5 1392.5,-788.5 1392.5,-767.5 1279.5,-767.5"/>
<text text-anchor="middle" x="1336" y="-775.5" font-family="Helvetica,sans-Serif" font-size="10.00">std::weak_ptr&lt; Tree &gt;</text>
</g>
<!-- Node11&#45;&gt;Node9 -->
<g id="edge22" class="edge"><title>Node11&#45;&gt;Node9</title>
<path fill="none" stroke="#9a32cd" stroke-dasharray="5,2" d="M1402.79,-772.925C1461.19,-768.487 1545.36,-762.091 1602.46,-757.752"/>
<polygon fill="#9a32cd" stroke="#9a32cd" points="1402.26,-769.455 1392.56,-773.702 1402.79,-776.435 1402.26,-769.455"/>
<text text-anchor="middle" x="1494" y="-788" font-family="Helvetica,sans-Serif" font-size="10.00"> parent</text>
<text text-anchor="middle" x="1494" y="-775" font-family="Helvetica,sans-Serif" font-size="10.00">self</text>
</g>
<!-- Node11&#45;&gt;Node12 -->
<g id="edge28" class="edge"><title>Node11&#45;&gt;Node12</title>
<path fill="none" stroke="#9a32cd" stroke-dasharray="5,2" d="M1286,-763.489C1282.52,-761.831 1279.15,-760.005 1276,-758 1266.19,-751.751 1268.69,-743.596 1258,-739 1186.32,-708.169 1091.59,-737.976 1047.51,-755.394"/>
<polygon fill="#9a32cd" stroke="#9a32cd" points="1284.81,-766.786 1295.38,-767.495 1287.56,-760.348 1284.81,-766.786"/>
<text text-anchor="middle" x="1190" y="-756" font-family="Helvetica,sans-Serif" font-size="10.00"> parent</text>
<text text-anchor="middle" x="1190" y="-743" font-family="Helvetica,sans-Serif" font-size="10.00">self</text>
</g>
<!-- Node12&#45;&gt;Node11 -->
<g id="edge24" class="edge"><title>Node12&#45;&gt;Node11</title>
<path fill="none" stroke="#9a32cd" stroke-dasharray="5,2" d="M1073.38,-767.931C1129.72,-770.091 1220.74,-773.581 1279.47,-775.833"/>
<polygon fill="#9a32cd" stroke="#9a32cd" points="1073.41,-764.43 1063.28,-767.544 1073.14,-771.425 1073.41,-764.43"/>
<text text-anchor="middle" x="1190" y="-778" font-family="Helvetica,sans-Serif" font-size="10.00"> ptr</text>
</g>
<!-- Node13 -->
<g id="node27" class="node"><title>Node13</title>
<polygon fill="white" stroke="#bfbfbf" points="708.5,-744.5 708.5,-765.5 737.5,-765.5 737.5,-744.5 708.5,-744.5"/>
<text text-anchor="middle" x="723" y="-752.5" font-family="Helvetica,sans-Serif" font-size="10.00">T</text>
</g>
<!-- Node13&#45;&gt;Node12 -->
<g id="edge30" class="edge"><title>Node13&#45;&gt;Node12</title>
<path fill="none" stroke="#9a32cd" stroke-dasharray="5,2" d="M747.76,-754.12C785.722,-752.97 860.576,-751.487 924,-755 943.339,-756.071 964.705,-758.31 982.624,-760.491"/>
<polygon fill="#9a32cd" stroke="#9a32cd" points="747.525,-750.626 737.643,-754.446 747.75,-757.622 747.525,-750.626"/>
<text text-anchor="middle" x="870" y="-759" font-family="Helvetica,sans-Serif" font-size="10.00"> data</text>
</g>
<!-- Node14 -->
<g id="node29" class="node"><title>Node14</title>
<a xlink:href="structant_1_1std__ext_1_1cc__shared__ptr.html" target="_top" xlink:title="ant::std_ext::cc_shared\l_ptr\&lt; T \&gt;">
<polygon fill="white" stroke="black" points="1276.5,-715 1276.5,-749 1395.5,-749 1395.5,-715 1276.5,-715"/>
<text text-anchor="start" x="1284.5" y="-736" font-family="Helvetica,sans-Serif" font-size="10.00">ant::std_ext::cc_shared</text>
<text text-anchor="middle" x="1336" y="-723" font-family="Helvetica,sans-Serif" font-size="10.00">_ptr&lt; T &gt;</text>
</a>
</g>
<!-- Node14&#45;&gt;Node9 -->
<g id="edge32" class="edge"><title>Node14&#45;&gt;Node9</title>
<path fill="none" stroke="#9a32cd" stroke-dasharray="5,2" d="M1405.98,-731.228C1453.47,-731.326 1517.65,-732.671 1574,-738 1585.32,-739.07 1597.36,-740.701 1608.85,-742.498"/>
<polygon fill="#9a32cd" stroke="#9a32cd" points="1405.8,-727.728 1395.8,-731.226 1405.8,-734.728 1405.8,-727.728"/>
<text text-anchor="middle" x="1494" y="-742" font-family="Helvetica,sans-Serif" font-size="10.00"> data</text>
</g>
<!-- Node15 -->
<g id="node31" class="node"><title>Node15</title>
<polygon fill="white" stroke="#bfbfbf" points="1122.5,-135 1122.5,-169 1257.5,-169 1257.5,-135 1122.5,-135"/>
<text text-anchor="start" x="1130.5" y="-156" font-family="Helvetica,sans-Serif" font-size="10.00">std::vector&lt; ant::TDetector</text>
<text text-anchor="middle" x="1190" y="-143" font-family="Helvetica,sans-Serif" font-size="10.00">ReadHit &gt;</text>
</g>
<!-- Node15&#45;&gt;Node6 -->
<g id="edge34" class="edge"><title>Node15&#45;&gt;Node6</title>
<path fill="none" stroke="#9a32cd" stroke-dasharray="5,2" d="M1267.82,-150.436C1418.4,-149.239 1741.07,-156.184 1812,-235 1851.62,-279.024 1870.14,-474.162 1874.15,-522.259"/>
<polygon fill="#9a32cd" stroke="#9a32cd" points="1267.68,-146.937 1257.72,-150.531 1267.75,-153.937 1267.68,-146.937"/>
<text text-anchor="middle" x="1494" y="-167" font-family="Helvetica,sans-Serif" font-size="10.00"> DetectorReadHits</text>
</g>
<!-- Node16&#45;&gt;Node15 -->
<g id="edge36" class="edge"><title>Node16&#45;&gt;Node15</title>
<path fill="none" stroke="#9a32cd" stroke-dasharray="5,2" d="M498.13,-92.8269C642.654,-105.188 978.482,-133.91 1122.47,-146.225"/>
<polygon fill="#9a32cd" stroke="#9a32cd" points="498.322,-89.3307 488.06,-91.9657 497.726,-96.3052 498.322,-89.3307"/>
<text text-anchor="middle" x="723" y="-122" font-family="Helvetica,sans-Serif" font-size="10.00"> elements</text>
</g>
<!-- Node17 -->
<g id="node36" class="node"><title>Node17</title>
<polygon fill="white" stroke="#bfbfbf" points="149.5,-0.5 149.5,-21.5 248.5,-21.5 248.5,-0.5 149.5,-0.5"/>
<text text-anchor="middle" x="199" y="-8.5" font-family="Helvetica,sans-Serif" font-size="10.00">std::vector&lt; bool &gt;</text>
</g>
<!-- Node17&#45;&gt;Node16 -->
<g id="edge40" class="edge"><title>Node17&#45;&gt;Node16</title>
<path fill="none" stroke="#9a32cd" stroke-dasharray="5,2" d="M258.533,-19.9611C285.149,-24.9208 316.625,-32.1203 344,-42 369.202,-51.0954 396.274,-66.2517 413.17,-76.4315"/>
<polygon fill="#9a32cd" stroke="#9a32cd" points="259.051,-16.4982 248.589,-18.169 257.81,-23.3872 259.051,-16.4982"/>
<text text-anchor="middle" x="313" y="-46" font-family="Helvetica,sans-Serif" font-size="10.00"> ValueBits</text>
</g>
<!-- Node18 -->
<g id="node38" class="node"><title>Node18</title>
<polygon fill="white" stroke="#bfbfbf" points="144,-103.5 144,-124.5 254,-124.5 254,-103.5 144,-103.5"/>
<text text-anchor="middle" x="199" y="-111.5" font-family="Helvetica,sans-Serif" font-size="10.00">std::vector&lt; double &gt;</text>
</g>
<!-- Node18&#45;&gt;Node16 -->
<g id="edge42" class="edge"><title>Node18&#45;&gt;Node16</title>
<path fill="none" stroke="#9a32cd" stroke-dasharray="5,2" d="M235.292,-100.065C249.618,-95.2473 266.363,-90.4459 282,-88 311.321,-83.4135 344.311,-82.7621 371.69,-83.4285"/>
<polygon fill="#9a32cd" stroke="#9a32cd" points="234.094,-96.7765 225.804,-103.375 236.399,-103.386 234.094,-96.7765"/>
<text text-anchor="middle" x="313" y="-105" font-family="Helvetica,sans-Serif" font-size="10.00"> Values</text>
<text text-anchor="middle" x="313" y="-92" font-family="Helvetica,sans-Serif" font-size="10.00">Converted</text>
</g>
<!-- Node18&#45;&gt;Node21 -->
<g id="edge56" class="edge"><title>Node18&#45;&gt;Node21</title>
<path fill="none" stroke="#9a32cd" stroke-dasharray="5,2" d="M240.156,-127.719C285.455,-142.818 357.286,-166.762 398.377,-180.459"/>
<polygon fill="#9a32cd" stroke="#9a32cd" points="241.229,-124.387 230.635,-124.545 239.015,-131.028 241.229,-124.387"/>
<text text-anchor="middle" x="313" y="-166" font-family="Helvetica,sans-Serif" font-size="10.00"> Payload</text>
</g>
<!-- Node19 -->
<g id="node40" class="node"><title>Node19</title>
<polygon fill="white" stroke="#bfbfbf" points="134,-40.5 134,-61.5 264,-61.5 264,-40.5 134,-40.5"/>
<text text-anchor="middle" x="199" y="-48.5" font-family="Helvetica,sans-Serif" font-size="10.00">std::vector&lt; std::uint8_t &gt;</text>
</g>
<!-- Node19&#45;&gt;Node16 -->
<g id="edge44" class="edge"><title>Node19&#45;&gt;Node16</title>
<path fill="none" stroke="#9a32cd" stroke-dasharray="5,2" d="M274.355,-57.601C296.838,-60.0317 321.485,-63.1537 344,-67 358.808,-69.5297 374.881,-73.0535 389.081,-76.4395"/>
<polygon fill="#9a32cd" stroke="#9a32cd" points="274.504,-54.0974 264.192,-56.5327 273.772,-61.0591 274.504,-54.0974"/>
<text text-anchor="middle" x="313" y="-71" font-family="Helvetica,sans-Serif" font-size="10.00"> RawData</text>
</g>
<!-- Node20 -->
<g id="node42" class="node"><title>Node20</title>
<polygon fill="white" stroke="#bfbfbf" points="1424,-212 1424,-246 1564,-246 1564,-212 1424,-212"/>
<text text-anchor="start" x="1432" y="-233" font-family="Helvetica,sans-Serif" font-size="10.00">std::vector&lt; ant::TUnpacker</text>
<text text-anchor="middle" x="1494" y="-220" font-family="Helvetica,sans-Serif" font-size="10.00">Message &gt;</text>
</g>
<!-- Node20&#45;&gt;Node6 -->
<g id="edge46" class="edge"><title>Node20&#45;&gt;Node6</title>
<path fill="none" stroke="#9a32cd" stroke-dasharray="5,2" d="M1574.49,-216.846C1646.14,-210.886 1749.09,-215.032 1812,-274 1849.48,-309.128 1869.33,-478.103 1873.94,-522.367"/>
<polygon fill="#9a32cd" stroke="#9a32cd" points="1573.79,-213.395 1564.15,-217.793 1574.43,-220.366 1573.79,-213.395"/>
<text text-anchor="middle" x="1665" y="-234" font-family="Helvetica,sans-Serif" font-size="10.00"> UnpackerMessages</text>
</g>
<!-- Node21&#45;&gt;Node20 -->
<g id="edge48" class="edge"><title>Node21&#45;&gt;Node20</title>
<path fill="none" stroke="#9a32cd" stroke-dasharray="5,2" d="M502.214,-199.066C561.455,-204.987 647.552,-212 723,-212 723,-212 723,-212 1190,-212 1270.22,-212 1362.15,-217.973 1423.73,-222.839"/>
<polygon fill="#9a32cd" stroke="#9a32cd" points="502.511,-195.578 492.209,-198.051 501.805,-202.543 502.511,-195.578"/>
<text text-anchor="middle" x="870" y="-216" font-family="Helvetica,sans-Serif" font-size="10.00"> elements</text>
</g>
<!-- Node22 -->
<g id="node47" class="node"><title>Node22</title>
<a xlink:title="STL class. ">
<polygon fill="white" stroke="#bfbfbf" points="169,-255.5 169,-276.5 229,-276.5 229,-255.5 169,-255.5"/>
<text text-anchor="middle" x="199" y="-263.5" font-family="Helvetica,sans-Serif" font-size="10.00">std::string</text>
</a>
</g>
<!-- Node22&#45;&gt;Node21 -->
<g id="edge52" class="edge"><title>Node22&#45;&gt;Node21</title>
<path fill="none" stroke="#9a32cd" stroke-dasharray="5,2" d="M214.983,-247.429C230.31,-231.095 255.05,-208.355 282,-198 308.893,-187.667 340.583,-185.036 367.725,-185.345"/>
<polygon fill="#9a32cd" stroke="#9a32cd" points="211.983,-245.526 207.863,-255.287 217.171,-250.226 211.983,-245.526"/>
<text text-anchor="middle" x="313" y="-202" font-family="Helvetica,sans-Serif" font-size="10.00"> Message</text>
</g>
<!-- Node22&#45;&gt;Node34 -->
<g id="edge106" class="edge"><title>Node22&#45;&gt;Node34</title>
<path fill="none" stroke="#9a32cd" stroke-dasharray="5,2" d="M239.188,-259.499C315.778,-248.234 487.701,-228.356 630,-251 765.748,-272.602 799.916,-287.862 924,-347 956.332,-362.409 990.723,-386.658 1009.25,-400.461"/>
<polygon fill="#9a32cd" stroke="#9a32cd" points="238.395,-256.079 229.027,-261.026 239.436,-263.001 238.395,-256.079"/>
<text text-anchor="middle" x="573" y="-268" font-family="Helvetica,sans-Serif" font-size="10.00"> Description</text>
<text text-anchor="middle" x="573" y="-255" font-family="Helvetica,sans-Serif" font-size="10.00">Name</text>
</g>
<!-- Node22&#45;&gt;Node40 -->
<g id="edge114" class="edge"><title>Node22&#45;&gt;Node40</title>
<path fill="none" stroke="#9a32cd" stroke-dasharray="5,2" d="M238.895,-278.089C276.895,-289.605 334.369,-307.021 376.364,-319.747"/>
<polygon fill="#9a32cd" stroke="#9a32cd" points="239.785,-274.702 229.199,-275.151 237.754,-281.401 239.785,-274.702"/>
<text text-anchor="middle" x="313" y="-313" font-family="Helvetica,sans-Serif" font-size="10.00"> Value</text>
</g>
<!-- Node22&#45;&gt;Node43 -->
<g id="edge126" class="edge"><title>Node22&#45;&gt;Node43</title>
<path fill="none" stroke="#9a32cd" stroke-dasharray="5,2" d="M213.636,-284.638C241.301,-319.498 303.727,-396.423 362,-456 380.298,-474.707 403.257,-494.64 417.268,-506.448"/>
<polygon fill="#9a32cd" stroke="#9a32cd" points="216.323,-282.393 207.376,-276.718 210.831,-286.734 216.323,-282.393"/>
<text text-anchor="middle" x="313" y="-440" font-family="Helvetica,sans-Serif" font-size="10.00"> ModuleName</text>
</g>
<!-- Node23 -->
<g id="node49" class="node"><title>Node23</title>
<a xlink:title="STL class. ">
<polygon fill="white" stroke="#bfbfbf" points="0.5,-249 0.5,-283 95.5,-283 95.5,-249 0.5,-249"/>
<text text-anchor="start" x="8.5" y="-270" font-family="Helvetica,sans-Serif" font-size="10.00">std::basic_string&lt;</text>
<text text-anchor="middle" x="48" y="-257" font-family="Helvetica,sans-Serif" font-size="10.00"> char &gt;</text>
</a>
</g>
<!-- Node23&#45;&gt;Node22 -->
<g id="edge54" class="edge"><title>Node23&#45;&gt;Node22</title>
<path fill="none" stroke="midnightblue" d="M106.06,-266C127.393,-266 150.691,-266 168.625,-266"/>
<polygon fill="midnightblue" stroke="midnightblue" points="105.777,-262.5 95.7773,-266 105.777,-269.5 105.777,-262.5"/>
</g>
<!-- Node24 -->
<g id="node52" class="node"><title>Node24</title>
<polygon fill="white" stroke="#bfbfbf" points="1601,-653 1601,-687 1729,-687 1729,-653 1601,-653"/>
<text text-anchor="start" x="1609" y="-674" font-family="Helvetica,sans-Serif" font-size="10.00">std::vector&lt; ant::TTagger</text>
<text text-anchor="middle" x="1665" y="-661" font-family="Helvetica,sans-Serif" font-size="10.00">Hit &gt;</text>
</g>
<!-- Node24&#45;&gt;Node6 -->
<g id="edge58" class="edge"><title>Node24&#45;&gt;Node6</title>
<path fill="none" stroke="#9a32cd" stroke-dasharray="5,2" d="M1739.37,-663.18C1764.24,-658.072 1790.96,-649.235 1812,-634 1844.48,-610.489 1863.91,-564.61 1871.42,-543.766"/>
<polygon fill="#9a32cd" stroke="#9a32cd" points="1738.4,-659.801 1729.22,-665.086 1739.69,-666.681 1738.4,-659.801"/>
<text text-anchor="middle" x="1784" y="-663" font-family="Helvetica,sans-Serif" font-size="10.00"> TaggerHits</text>
</g>
<!-- Node25&#45;&gt;Node24 -->
<g id="edge60" class="edge"><title>Node25&#45;&gt;Node24</title>
<path fill="none" stroke="#9a32cd" stroke-dasharray="5,2" d="M1388.68,-670.84C1446.41,-670.664 1539.03,-670.383 1600.93,-670.195"/>
<polygon fill="#9a32cd" stroke="#9a32cd" points="1388.66,-667.34 1378.67,-670.87 1388.68,-674.34 1388.66,-667.34"/>
<text text-anchor="middle" x="1494" y="-674" font-family="Helvetica,sans-Serif" font-size="10.00"> elements</text>
</g>
<!-- Node26 -->
<g id="node57" class="node"><title>Node26</title>
<polygon fill="white" stroke="#bfbfbf" points="942,-654 942,-688 1104,-688 1104,-654 942,-654"/>
<text text-anchor="start" x="950" y="-675" font-family="Helvetica,sans-Serif" font-size="10.00">std::vector&lt; ant::TKeyValue</text>
<text text-anchor="middle" x="1023" y="-662" font-family="Helvetica,sans-Serif" font-size="10.00">&lt; ant::TTaggerHit::Electron_t &gt; &gt;</text>
</g>
<!-- Node26&#45;&gt;Node25 -->
<g id="edge64" class="edge"><title>Node26&#45;&gt;Node25</title>
<path fill="none" stroke="#9a32cd" stroke-dasharray="5,2" d="M1114.11,-671C1173.2,-671 1247.45,-671 1293.32,-671"/>
<polygon fill="#9a32cd" stroke="#9a32cd" points="1114.01,-667.5 1104.01,-671 1114.01,-674.5 1114.01,-667.5"/>
<text text-anchor="middle" x="1190" y="-675" font-family="Helvetica,sans-Serif" font-size="10.00"> Electrons</text>
</g>
<!-- Node27&#45;&gt;Node26 -->
<g id="edge66" class="edge"><title>Node27&#45;&gt;Node26</title>
<path fill="none" stroke="#9a32cd" stroke-dasharray="5,2" d="M799.096,-671C842.689,-671 897.385,-671 941.805,-671"/>
<polygon fill="#9a32cd" stroke="#9a32cd" points="798.836,-667.5 788.836,-671 798.836,-674.5 798.836,-667.5"/>
<text text-anchor="middle" x="870" y="-675" font-family="Helvetica,sans-Serif" font-size="10.00"> elements</text>
</g>
<!-- Node28&#45;&gt;Node27 -->
<g id="edge70" class="edge"><title>Node28&#45;&gt;Node27</title>
<path fill="none" stroke="#9a32cd" stroke-dasharray="5,2" d="M507.887,-701.916C544.92,-697.431 589.788,-691.754 630,-686 638.823,-684.737 648.105,-683.333 657.25,-681.903"/>
<polygon fill="#9a32cd" stroke="#9a32cd" points="507.169,-698.477 497.66,-703.149 508.007,-705.427 507.169,-698.477"/>
<text text-anchor="middle" x="573" y="-704" font-family="Helvetica,sans-Serif" font-size="10.00"> Value</text>
</g>
<!-- Node29&#45;&gt;Node6 -->
<g id="edge74" class="edge"><title>Node29&#45;&gt;Node6</title>
<path fill="none" stroke="#9a32cd" stroke-dasharray="5,2" d="M609.739,-842.458C665.806,-847.428 776.114,-856 870,-856 870,-856 870,-856 1665,-856 1817.5,-856 1864.93,-599.792 1873.49,-543.747"/>
<polygon fill="#9a32cd" stroke="#9a32cd" points="609.867,-838.955 599.594,-841.545 609.24,-845.927 609.867,-838.955"/>
<text text-anchor="middle" x="1190" y="-860" font-family="Helvetica,sans-Serif" font-size="10.00"> ID</text>
</g>
<!-- Node30 -->
<g id="node68" class="node"><title>Node30</title>
<a xlink:href="structant_1_1_t_event_data_1_1_p_type_list.html" target="_top" xlink:title="ant::TEventData::PTypeList">
<polygon fill="white" stroke="black" points="1595.5,-613.5 1595.5,-634.5 1734.5,-634.5 1734.5,-613.5 1595.5,-613.5"/>
<text text-anchor="middle" x="1665" y="-621.5" font-family="Helvetica,sans-Serif" font-size="10.00">ant::TEventData::PTypeList</text>
</a>
</g>
<!-- Node30&#45;&gt;Node6 -->
<g id="edge78" class="edge"><title>Node30&#45;&gt;Node6</title>
<path fill="none" stroke="#9a32cd" stroke-dasharray="5,2" d="M1744.53,-619.857C1767.3,-616.232 1791.49,-609.901 1812,-599 1837.04,-585.692 1857.86,-558.726 1868.13,-543.709"/>
<polygon fill="#9a32cd" stroke="#9a32cd" points="1743.93,-616.407 1734.53,-621.295 1744.93,-623.336 1743.93,-616.407"/>
<text text-anchor="middle" x="1784" y="-621" font-family="Helvetica,sans-Serif" font-size="10.00"> Particles</text>
</g>
<!-- Node31&#45;&gt;Node6 -->
<g id="edge80" class="edge"><title>Node31&#45;&gt;Node6</title>
<path fill="none" stroke="#9a32cd" stroke-dasharray="5,2" d="M768.124,-595.581C826.802,-591.436 932.496,-585 1023,-585 1023,-585 1023,-585 1665,-585 1733.36,-585 1810.66,-558.718 1849.64,-543.523"/>
<polygon fill="#9a32cd" stroke="#9a32cd" points="767.801,-592.095 758.077,-596.301 768.301,-599.077 767.801,-592.095"/>
<text text-anchor="middle" x="1336" y="-589" font-family="Helvetica,sans-Serif" font-size="10.00"> Target</text>
</g>
<!-- Node32&#45;&gt;Node31 -->
<g id="edge84" class="edge"><title>Node32&#45;&gt;Node31</title>
<path fill="none" stroke="#9a32cd" stroke-dasharray="5,2" d="M468.741,-595.529C526.105,-596.312 632.779,-597.768 687.943,-598.521"/>
<polygon fill="#9a32cd" stroke="#9a32cd" points="468.674,-592.028 458.628,-595.391 468.579,-599.027 468.674,-592.028"/>
<text text-anchor="middle" x="573" y="-601" font-family="Helvetica,sans-Serif" font-size="10.00"> Vertex</text>
</g>
<!-- Node33 -->
<g id="node76" class="node"><title>Node33</title>
<polygon fill="white" stroke="#bfbfbf" points="1414,-431.5 1414,-452.5 1574,-452.5 1574,-431.5 1414,-431.5"/>
<text text-anchor="middle" x="1494" y="-439.5" font-family="Helvetica,sans-Serif" font-size="10.00">std::vector&lt; ant::TSlowControl &gt;</text>
</g>
<!-- Node33&#45;&gt;Node6 -->
<g id="edge88" class="edge"><title>Node33&#45;&gt;Node6</title>
<path fill="none" stroke="#9a32cd" stroke-dasharray="5,2" d="M1547.93,-454.88C1623.87,-473.02 1760.89,-505.744 1831.03,-522.497"/>
<polygon fill="#9a32cd" stroke="#9a32cd" points="1548.62,-451.447 1538.08,-452.528 1546.99,-458.255 1548.62,-451.447"/>
<text text-anchor="middle" x="1665" y="-503" font-family="Helvetica,sans-Serif" font-size="10.00"> SlowControls</text>
</g>
<!-- Node34&#45;&gt;Node33 -->
<g id="edge90" class="edge"><title>Node34&#45;&gt;Node33</title>
<path fill="none" stroke="#9a32cd" stroke-dasharray="5,2" d="M1080.82,-414.806C1164.33,-420.302 1319.03,-430.484 1413.61,-436.709"/>
<polygon fill="#9a32cd" stroke="#9a32cd" points="1080.96,-411.307 1070.75,-414.143 1080.5,-418.292 1080.96,-411.307"/>
<text text-anchor="middle" x="1190" y="-429" font-family="Helvetica,sans-Serif" font-size="10.00"> elements</text>
</g>
<!-- Node35 -->
<g id="node81" class="node"><title>Node35</title>
<polygon fill="white" stroke="#bfbfbf" points="653,-420 653,-454 793,-454 793,-420 653,-420"/>
<text text-anchor="start" x="661" y="-441" font-family="Helvetica,sans-Serif" font-size="10.00">std::vector&lt; ant::TKeyValue</text>
<text text-anchor="middle" x="723" y="-428" font-family="Helvetica,sans-Serif" font-size="10.00">&lt; double &gt; &gt;</text>
</g>
<!-- Node35&#45;&gt;Node34 -->
<g id="edge94" class="edge"><title>Node35&#45;&gt;Node34</title>
<path fill="none" stroke="#9a32cd" stroke-dasharray="5,2" d="M803.374,-430.034C858.176,-425.285 928.912,-419.154 975.087,-415.152"/>
<polygon fill="#9a32cd" stroke="#9a32cd" points="802.997,-426.554 793.337,-430.904 803.602,-433.528 802.997,-426.554"/>
<text text-anchor="middle" x="870" y="-432" font-family="Helvetica,sans-Serif" font-size="10.00"> Payload_Float</text>
</g>
<!-- Node36&#45;&gt;Node35 -->
<g id="edge96" class="edge"><title>Node36&#45;&gt;Node35</title>
<path fill="none" stroke="#9a32cd" stroke-dasharray="5,2" d="M505.839,-436.259C551.231,-436.414 608.525,-436.609 652.864,-436.761"/>
<polygon fill="#9a32cd" stroke="#9a32cd" points="505.767,-432.759 495.755,-436.224 505.743,-439.759 505.767,-432.759"/>
<text text-anchor="middle" x="573" y="-440" font-family="Helvetica,sans-Serif" font-size="10.00"> elements</text>
</g>
<!-- Node37 -->
<g id="node86" class="node"><title>Node37</title>
<polygon fill="white" stroke="#bfbfbf" points="653,-368 653,-402 793,-402 793,-368 653,-368"/>
<text text-anchor="start" x="661" y="-389" font-family="Helvetica,sans-Serif" font-size="10.00">std::vector&lt; ant::TKeyValue</text>
<text text-anchor="middle" x="723" y="-376" font-family="Helvetica,sans-Serif" font-size="10.00">&lt; std::int64_t &gt; &gt;</text>
</g>
<!-- Node37&#45;&gt;Node34 -->
<g id="edge100" class="edge"><title>Node37&#45;&gt;Node34</title>
<path fill="none" stroke="#9a32cd" stroke-dasharray="5,2" d="M803.374,-391.966C858.176,-396.715 928.912,-402.846 975.087,-406.848"/>
<polygon fill="#9a32cd" stroke="#9a32cd" points="803.602,-388.472 793.337,-391.096 802.997,-395.446 803.602,-388.472"/>
<text text-anchor="middle" x="870" y="-405" font-family="Helvetica,sans-Serif" font-size="10.00"> Payload_Int</text>
</g>
<!-- Node38&#45;&gt;Node37 -->
<g id="edge102" class="edge"><title>Node38&#45;&gt;Node37</title>
<path fill="none" stroke="#9a32cd" stroke-dasharray="5,2" d="M493.778,-388.129C540.67,-387.489 604.382,-386.619 652.735,-385.959"/>
<polygon fill="#9a32cd" stroke="#9a32cd" points="493.692,-384.63 483.741,-388.266 493.788,-391.629 493.692,-384.63"/>
<text text-anchor="middle" x="573" y="-391" font-family="Helvetica,sans-Serif" font-size="10.00"> elements</text>
</g>
<!-- Node39 -->
<g id="node92" class="node"><title>Node39</title>
<polygon fill="white" stroke="#bfbfbf" points="653,-316 653,-350 793,-350 793,-316 653,-316"/>
<text text-anchor="start" x="661" y="-337" font-family="Helvetica,sans-Serif" font-size="10.00">std::vector&lt; ant::TKeyValue</text>
<text text-anchor="middle" x="723" y="-324" font-family="Helvetica,sans-Serif" font-size="10.00">&lt; std::string &gt; &gt;</text>
</g>
<!-- Node39&#45;&gt;Node34 -->
<g id="edge108" class="edge"><title>Node39&#45;&gt;Node34</title>
<path fill="none" stroke="#9a32cd" stroke-dasharray="5,2" d="M803.536,-347.756C840.51,-355.161 884.762,-364.917 924,-376 948.736,-382.987 976.257,-392.895 995.99,-400.387"/>
<polygon fill="#9a32cd" stroke="#9a32cd" points="803.8,-344.24 793.31,-345.731 802.44,-351.107 803.8,-344.24"/>
<text text-anchor="middle" x="870" y="-380" font-family="Helvetica,sans-Serif" font-size="10.00"> Payload_String</text>
</g>
<!-- Node40&#45;&gt;Node39 -->
<g id="edge110" class="edge"><title>Node40&#45;&gt;Node39</title>
<path fill="none" stroke="#9a32cd" stroke-dasharray="5,2" d="M493.778,-335.347C540.67,-334.867 604.382,-334.215 652.735,-333.719"/>
<polygon fill="#9a32cd" stroke="#9a32cd" points="493.704,-331.847 483.741,-335.45 493.776,-338.847 493.704,-331.847"/>
<text text-anchor="middle" x="573" y="-339" font-family="Helvetica,sans-Serif" font-size="10.00"> elements</text>
</g>
<!-- Node41&#45;&gt;Node6 -->
<g id="edge116" class="edge"><title>Node41&#45;&gt;Node6</title>
<path fill="none" stroke="#9a32cd" stroke-dasharray="5,2" d="M1069.23,-533C1218.12,-533 1683.96,-533 1830.45,-533"/>
<polygon fill="#9a32cd" stroke="#9a32cd" points="1069.07,-529.5 1059.07,-533 1069.07,-536.5 1069.07,-529.5"/>
<text text-anchor="middle" x="1494" y="-537" font-family="Helvetica,sans-Serif" font-size="10.00"> Trigger</text>
</g>
<!-- Node42 -->
<g id="node101" class="node"><title>Node42</title>
<polygon fill="white" stroke="#bfbfbf" points="648.5,-510.5 648.5,-531.5 797.5,-531.5 797.5,-510.5 648.5,-510.5"/>
<text text-anchor="middle" x="723" y="-518.5" font-family="Helvetica,sans-Serif" font-size="10.00">std::vector&lt; ant::TDAQError &gt;</text>
</g>
<!-- Node42&#45;&gt;Node41 -->
<g id="edge120" class="edge"><title>Node42&#45;&gt;Node41</title>
<path fill="none" stroke="#9a32cd" stroke-dasharray="5,2" d="M807.609,-524.384C866.638,-526.746 942.465,-529.779 986.608,-531.544"/>
<polygon fill="#9a32cd" stroke="#9a32cd" points="807.675,-520.884 797.543,-523.982 807.395,-527.879 807.675,-520.884"/>
<text text-anchor="middle" x="870" y="-532" font-family="Helvetica,sans-Serif" font-size="10.00"> DAQErrors</text>
</g>
<!-- Node43&#45;&gt;Node42 -->
<g id="edge122" class="edge"><title>Node43&#45;&gt;Node42</title>
<path fill="none" stroke="#9a32cd" stroke-dasharray="5,2" d="M482.697,-517.719C528.874,-518.35 596.509,-519.273 648.269,-519.98"/>
<polygon fill="#9a32cd" stroke="#9a32cd" points="482.652,-514.219 472.605,-517.582 482.556,-521.218 482.652,-514.219"/>
<text text-anchor="middle" x="573" y="-523" font-family="Helvetica,sans-Serif" font-size="10.00"> elements</text>
</g>
</g>
</svg>
