<?xml version="1.0" encoding="UTF-8" standalone="no"?>
<!DOCTYPE svg PUBLIC "-//W3C//DTD SVG 1.1//EN"
 "http://www.w3.org/Graphics/SVG/1.1/DTD/svg11.dtd">
<!-- Generated by graphviz version 2.26.3 (20100126.1600)
 -->
<!-- Title: ant::calibration::gui::Manager Pages: 1 -->
<svg width="1054pt" height="426pt"
 viewBox="0.00 0.00 1054.00 426.00" xmlns="http://www.w3.org/2000/svg" xmlns:xlink="http://www.w3.org/1999/xlink">
<g id="graph1" class="graph" transform="scale(1 1) rotate(0) translate(4 422)">
<title>ant::calibration::gui::Manager</title>
<polygon fill="white" stroke="white" points="-4,5 -4,-422 1051,-422 1051,5 -4,5"/>
<!-- Node1 -->
<g id="node1" class="node"><title>Node1</title>
<polygon fill="#bfbfbf" stroke="black" points="946.5,-218 946.5,-252 1045.5,-252 1045.5,-218 946.5,-218"/>
<text text-anchor="start" x="954.5" y="-239" font-family="Helvetica,sans-Serif" font-size="10.00">ant::calibration::gui</text>
<text text-anchor="middle" x="996" y="-226" font-family="Helvetica,sans-Serif" font-size="10.00">::Manager</text>
</g>
<!-- Node2 -->
<g id="node2" class="node"><title>Node2</title>
<a xlink:href="classant_1_1calibration_1_1gui_1_1_manager_window.html" target="_top" xlink:title="ant::calibration::gui\l::ManagerWindow">
<polygon fill="white" stroke="black" points="763.5,-331 763.5,-365 862.5,-365 862.5,-331 763.5,-331"/>
<text text-anchor="start" x="771.5" y="-352" font-family="Helvetica,sans-Serif" font-size="10.00">ant::calibration::gui</text>
<text text-anchor="middle" x="813" y="-339" font-family="Helvetica,sans-Serif" font-size="10.00">::ManagerWindow</text>
</a>
</g>
<!-- Node2&#45;&gt;Node1 -->
<g id="edge2" class="edge"><title>Node2&#45;&gt;Node1</title>
<path fill="none" stroke="#9a32cd" stroke-dasharray="5,2" d="M872.24,-329.463C890.863,-322.307 910.99,-313.126 928,-302 949.221,-288.12 969.365,-266.899 982.14,-252.069"/>
<polygon fill="#9a32cd" stroke="#9a32cd" points="870.819,-326.257 862.663,-333.02 873.256,-332.819 870.819,-326.257"/>
<text text-anchor="middle" x="909" y="-325" font-family="Helvetica,sans-Serif" font-size="10.00"> window</text>
</g>
<!-- Node3 -->
<g id="node4" class="node"><title>Node3</title>
<polygon fill="white" stroke="#bfbfbf" points="539.5,-396.5 539.5,-417.5 618.5,-417.5 618.5,-396.5 539.5,-396.5"/>
<text text-anchor="middle" x="579" y="-404.5" font-family="Helvetica,sans-Serif" font-size="10.00">TGMainFrame</text>
</g>
<!-- Node3&#45;&gt;Node2 -->
<g id="edge4" class="edge"><title>Node3&#45;&gt;Node2</title>
<path fill="none" stroke="midnightblue" d="M628.798,-394.773C659.683,-387.155 700.172,-377.103 736,-368 744.835,-365.755 754.232,-363.339 763.315,-360.988"/>
<polygon fill="midnightblue" stroke="midnightblue" points="627.584,-391.468 618.712,-397.259 629.259,-398.264 627.584,-391.468"/>
</g>
<!-- Node4 -->
<g id="node6" class="node"><title>Node4</title>
<a xlink:href="classant_1_1calibration_1_1gui_1_1_manager_window__traits.html" target="_top" xlink:title="ant::calibration::gui\l::ManagerWindow_traits">
<polygon fill="white" stroke="black" points="518,-344 518,-378 640,-378 640,-344 518,-344"/>
<text text-anchor="start" x="526" y="-365" font-family="Helvetica,sans-Serif" font-size="10.00">ant::calibration::gui</text>
<text text-anchor="middle" x="579" y="-352" font-family="Helvetica,sans-Serif" font-size="10.00">::ManagerWindow_traits</text>
</a>
</g>
<!-- Node4&#45;&gt;Node2 -->
<g id="edge6" class="edge"><title>Node4&#45;&gt;Node2</title>
<path fill="none" stroke="midnightblue" d="M650.272,-357.04C686.783,-355.012 730.346,-352.592 763.206,-350.766"/>
<polygon fill="midnightblue" stroke="midnightblue" points="649.966,-353.552 640.175,-357.601 650.354,-360.541 649.966,-353.552"/>
</g>
<!-- Node5 -->
<g id="node8" class="node"><title>Node5</title>
<a xlink:href="structant_1_1calibration_1_1gui_1_1_manager_window_mode.html" target="_top" xlink:title="ant::calibration::gui\l::ManagerWindowMode">
<polygon fill="white" stroke="black" points="519.5,-292 519.5,-326 638.5,-326 638.5,-292 519.5,-292"/>
<text text-anchor="start" x="527.5" y="-313" font-family="Helvetica,sans-Serif" font-size="10.00">ant::calibration::gui</text>
<text text-anchor="middle" x="579" y="-300" font-family="Helvetica,sans-Serif" font-size="10.00">::ManagerWindowMode</text>
</a>
</g>
<!-- Node5&#45;&gt;Node2 -->
<g id="edge8" class="edge"><title>Node5&#45;&gt;Node2</title>
<path fill="none" stroke="#9a32cd" stroke-dasharray="5,2" d="M648.853,-320.52C676.055,-325.018 707.488,-330.232 736,-335 744.825,-336.476 754.218,-338.055 763.299,-339.585"/>
<polygon fill="#9a32cd" stroke="#9a32cd" points="649.086,-317.011 638.649,-318.833 647.944,-323.917 649.086,-317.011"/>
<text text-anchor="middle" x="702" y="-339" font-family="Helvetica,sans-Serif" font-size="10.00"> Mode</text>
</g>
<!-- Node6 -->
<g id="node10" class="node"><title>Node6</title>
<a xlink:title="STL class. ">
<polygon fill="white" stroke="#bfbfbf" points="153,-191.5 153,-212.5 213,-212.5 213,-191.5 153,-191.5"/>
<text text-anchor="middle" x="183" y="-199.5" font-family="Helvetica,sans-Serif" font-size="10.00">std::string</text>
</a>
</g>
<!-- Node6&#45;&gt;Node1 -->
<g id="edge10" class="edge"><title>Node6&#45;&gt;Node1</title>
<path fill="none" stroke="#9a32cd" stroke-dasharray="5,2" d="M223.088,-197.897C260.527,-194.421 317.987,-190 368,-190 368,-190 368,-190 813,-190 861.749,-190 915.744,-205.244 952.364,-217.987"/>
<polygon fill="#9a32cd" stroke="#9a32cd" points="222.706,-194.417 213.082,-198.847 223.368,-201.386 222.706,-194.417"/>
<text text-anchor="middle" x="579" y="-194" font-family="Helvetica,sans-Serif" font-size="10.00"> SetupName</text>
</g>
<!-- Node10 -->
<g id="node18" class="node"><title>Node10</title>
<a xlink:href="structant_1_1calibration_1_1gui_1_1_manager_1_1input__file__t.html" target="_top" xlink:title="ant::calibration::gui\l::Manager::input_file_t">
<polygon fill="white" stroke="black" points="311.5,-224 311.5,-258 424.5,-258 424.5,-224 311.5,-224"/>
<text text-anchor="start" x="319.5" y="-245" font-family="Helvetica,sans-Serif" font-size="10.00">ant::calibration::gui</text>
<text text-anchor="middle" x="368" y="-232" font-family="Helvetica,sans-Serif" font-size="10.00">::Manager::input_file_t</text>
</a>
</g>
<!-- Node6&#45;&gt;Node10 -->
<g id="edge20" class="edge"><title>Node6&#45;&gt;Node10</title>
<path fill="none" stroke="#9a32cd" stroke-dasharray="5,2" d="M222.954,-210.423C248.773,-215.866 282.766,-223.032 311.354,-229.058"/>
<polygon fill="#9a32cd" stroke="#9a32cd" points="223.642,-206.991 213.135,-208.353 222.198,-213.84 223.642,-206.991"/>
<text text-anchor="middle" x="268" y="-227" font-family="Helvetica,sans-Serif" font-size="10.00"> filename</text>
</g>
<!-- Node7 -->
<g id="node12" class="node"><title>Node7</title>
<a xlink:title="STL class. ">
<polygon fill="white" stroke="#bfbfbf" points="2.5,-185 2.5,-219 97.5,-219 97.5,-185 2.5,-185"/>
<text text-anchor="start" x="10.5" y="-206" font-family="Helvetica,sans-Serif" font-size="10.00">std::basic_string&lt;</text>
<text text-anchor="middle" x="50" y="-193" font-family="Helvetica,sans-Serif" font-size="10.00"> char &gt;</text>
</a>
</g>
<!-- Node7&#45;&gt;Node6 -->
<g id="edge12" class="edge"><title>Node7&#45;&gt;Node6</title>
<path fill="none" stroke="midnightblue" d="M107.691,-202C123.181,-202 139.322,-202 152.668,-202"/>
<polygon fill="midnightblue" stroke="midnightblue" points="107.64,-198.5 97.6404,-202 107.64,-205.5 107.64,-198.5"/>
</g>
<!-- Node8 -->
<g id="node14" class="node"><title>Node8</title>
<a xlink:href="structant_1_1calibration_1_1gui_1_1_manager_1_1state__t.html" target="_top" xlink:title="ant::calibration::gui\l::Manager::state_t">
<polygon fill="white" stroke="black" points="763.5,-218 763.5,-252 862.5,-252 862.5,-218 763.5,-218"/>
<text text-anchor="start" x="771.5" y="-239" font-family="Helvetica,sans-Serif" font-size="10.00">ant::calibration::gui</text>
<text text-anchor="middle" x="813" y="-226" font-family="Helvetica,sans-Serif" font-size="10.00">::Manager::state_t</text>
</a>
</g>
<!-- Node8&#45;&gt;Node1 -->
<g id="edge14" class="edge"><title>Node8&#45;&gt;Node1</title>
<path fill="none" stroke="#9a32cd" stroke-dasharray="5,2" d="M872.536,-235C896.429,-235 923.648,-235 946.438,-235"/>
<polygon fill="#9a32cd" stroke="#9a32cd" points="872.522,-231.5 862.522,-235 872.522,-238.5 872.522,-231.5"/>
<text text-anchor="middle" x="909" y="-239" font-family="Helvetica,sans-Serif" font-size="10.00"> state</text>
</g>
<!-- Node9 -->
<g id="node16" class="node"><title>Node9</title>
<polygon fill="white" stroke="#bfbfbf" points="508.5,-224 508.5,-258 649.5,-258 649.5,-224 508.5,-224"/>
<text text-anchor="start" x="516.5" y="-245" font-family="Helvetica,sans-Serif" font-size="10.00">std::list&lt; ant::calibration</text>
<text text-anchor="middle" x="579" y="-232" font-family="Helvetica,sans-Serif" font-size="10.00">::gui::Manager::input_file_t &gt;</text>
</g>
<!-- Node9&#45;&gt;Node1 -->
<g id="edge40" class="edge"><title>Node9&#45;&gt;Node1</title>
<path fill="none" stroke="#9a32cd" stroke-dasharray="5,2" d="M659.862,-254.027C662.605,-254.371 665.324,-254.697 668,-255 782.828,-268.012 814.79,-275.204 928,-252 933.961,-250.778 940.187,-249.385 946.347,-247.935"/>
<polygon fill="#9a32cd" stroke="#9a32cd" points="660.222,-250.544 649.851,-252.71 659.309,-257.485 660.222,-250.544"/>
<text text-anchor="middle" x="813" y="-271" font-family="Helvetica,sans-Serif" font-size="10.00"> input_files</text>
</g>
<!-- Node9&#45;&gt;Node8 -->
<g id="edge16" class="edge"><title>Node9&#45;&gt;Node8</title>
<path fill="none" stroke="#9a32cd" stroke-dasharray="5,2" d="M659.59,-238.934C694.087,-238.049 733.274,-237.044 763.408,-236.272"/>
<polygon fill="#9a32cd" stroke="#9a32cd" points="659.432,-235.436 649.525,-239.192 659.612,-242.434 659.432,-235.436"/>
<text text-anchor="middle" x="702" y="-242" font-family="Helvetica,sans-Serif" font-size="10.00"> it_file</text>
</g>
<!-- Node10&#45;&gt;Node9 -->
<g id="edge18" class="edge"><title>Node10&#45;&gt;Node9</title>
<path fill="none" stroke="#9a32cd" stroke-dasharray="5,2" d="M434.736,-241C458.173,-241 484.575,-241 508.325,-241"/>
<polygon fill="#9a32cd" stroke="#9a32cd" points="434.544,-237.5 424.544,-241 434.544,-244.5 434.544,-237.5"/>
<text text-anchor="middle" x="468" y="-245" font-family="Helvetica,sans-Serif" font-size="10.00"> elements</text>
</g>
<!-- Node11 -->
<g id="node21" class="node"><title>Node11</title>
<a xlink:href="classant_1_1interval.html" target="_top" xlink:title="ant::interval\&lt; ant\l::ant::TID \&gt;">
<polygon fill="white" stroke="black" points="138,-242 138,-276 228,-276 228,-242 138,-242"/>
<text text-anchor="start" x="146" y="-263" font-family="Helvetica,sans-Serif" font-size="10.00">ant::interval&lt; ant</text>
<text text-anchor="middle" x="183" y="-250" font-family="Helvetica,sans-Serif" font-size="10.00">::ant::TID &gt;</text>
</a>
</g>
<!-- Node11&#45;&gt;Node10 -->
<g id="edge22" class="edge"><title>Node11&#45;&gt;Node10</title>
<path fill="none" stroke="#9a32cd" stroke-dasharray="5,2" d="M238.227,-253.627C261.289,-251.383 288.064,-248.778 311.282,-246.519"/>
<polygon fill="#9a32cd" stroke="#9a32cd" points="237.87,-250.145 228.256,-254.597 238.548,-257.112 237.87,-250.145"/>
<text text-anchor="middle" x="268" y="-256" font-family="Helvetica,sans-Serif" font-size="10.00"> range</text>
</g>
<!-- Node12 -->
<g id="node23" class="node"><title>Node12</title>
<a xlink:href="classant_1_1printable__traits.html" target="_top" xlink:title="ant::printable_traits">
<polygon fill="white" stroke="black" points="0,-248.5 0,-269.5 100,-269.5 100,-248.5 0,-248.5"/>
<text text-anchor="middle" x="50" y="-256.5" font-family="Helvetica,sans-Serif" font-size="10.00">ant::printable_traits</text>
</a>
</g>
<!-- Node12&#45;&gt;Node11 -->
<g id="edge24" class="edge"><title>Node12&#45;&gt;Node11</title>
<path fill="none" stroke="midnightblue" d="M110.56,-259C119.754,-259 129.102,-259 137.891,-259"/>
<polygon fill="midnightblue" stroke="midnightblue" points="110.282,-255.5 100.282,-259 110.282,-262.5 110.282,-255.5"/>
</g>
<!-- Node13 -->
<g id="node25" class="node"><title>Node13</title>
<a xlink:href="classant_1_1calibration_1_1gui_1_1_avg_buffer.html" target="_top" xlink:title="ant::calibration::gui\l::AvgBuffer\&lt; TH1, ant\l::interval\&lt; ant::TID \&gt; \&gt;">
<polygon fill="white" stroke="black" points="754.5,-76.5 754.5,-123.5 871.5,-123.5 871.5,-76.5 754.5,-76.5"/>
<text text-anchor="start" x="762.5" y="-110.5" font-family="Helvetica,sans-Serif" font-size="10.00">ant::calibration::gui</text>
<text text-anchor="start" x="762.5" y="-97.5" font-family="Helvetica,sans-Serif" font-size="10.00">::AvgBuffer&lt; TH1, ant</text>
<text text-anchor="middle" x="813" y="-84.5" font-family="Helvetica,sans-Serif" font-size="10.00">::interval&lt; ant::TID &gt; &gt;</text>
</a>
</g>
<!-- Node13&#45;&gt;Node1 -->
<g id="edge26" class="edge"><title>Node13&#45;&gt;Node1</title>
<path fill="none" stroke="#9a32cd" stroke-dasharray="5,2" d="M872.973,-128.283C891.381,-138.146 911.2,-150.027 928,-163 949.093,-179.288 969.572,-202.247 982.448,-217.828"/>
<polygon fill="#9a32cd" stroke="#9a32cd" points="874.549,-125.158 864.068,-123.608 871.295,-131.355 874.549,-125.158"/>
<text text-anchor="middle" x="909" y="-167" font-family="Helvetica,sans-Serif" font-size="10.00"> buffer</text>
</g>
<!-- Node14 -->
<g id="node27" class="node"><title>Node14</title>
<a xlink:href="structant_1_1calibration_1_1gui_1_1_avg_buffer_1_1buffer__t.html" target="_top" xlink:title="ant::calibration::gui\l::AvgBuffer\&lt; HistType,\l IDType \&gt;::buffer_t">
<polygon fill="white" stroke="black" points="520,-106.5 520,-153.5 638,-153.5 638,-106.5 520,-106.5"/>
<text text-anchor="start" x="528" y="-140.5" font-family="Helvetica,sans-Serif" font-size="10.00">ant::calibration::gui</text>
<text text-anchor="start" x="528" y="-127.5" font-family="Helvetica,sans-Serif" font-size="10.00">::AvgBuffer&lt; HistType,</text>
<text text-anchor="middle" x="579" y="-114.5" font-family="Helvetica,sans-Serif" font-size="10.00"> IDType &gt;::buffer_t</text>
</a>
</g>
<!-- Node14&#45;&gt;Node13 -->
<g id="edge28" class="edge"><title>Node14&#45;&gt;Node13</title>
<path fill="none" stroke="#9a32cd" stroke-dasharray="5,2" d="M648.3,-121.115C682.044,-116.789 722.176,-111.644 754.377,-107.516"/>
<polygon fill="#9a32cd" stroke="#9a32cd" points="647.522,-117.686 638.048,-122.43 648.412,-124.63 647.522,-117.686"/>
<text text-anchor="middle" x="702" y="-122" font-family="Helvetica,sans-Serif" font-size="10.00"> m_buffer</text>
</g>
<!-- Node15 -->
<g id="node29" class="node"><title>Node15</title>
<a xlink:title="STL class. ">
<polygon fill="white" stroke="#bfbfbf" points="308.5,-119.5 308.5,-140.5 427.5,-140.5 427.5,-119.5 308.5,-119.5"/>
<text text-anchor="middle" x="368" y="-127.5" font-family="Helvetica,sans-Serif" font-size="10.00">std::list&lt; buffer_entry &gt;</text>
</a>
</g>
<!-- Node15&#45;&gt;Node14 -->
<g id="edge30" class="edge"><title>Node15&#45;&gt;Node14</title>
<path fill="none" stroke="midnightblue" d="M437.636,-130C464.261,-130 494.344,-130 519.894,-130"/>
<polygon fill="midnightblue" stroke="midnightblue" points="437.618,-126.5 427.618,-130 437.618,-133.5 437.618,-126.5"/>
</g>
<!-- Node16 -->
<g id="node31" class="node"><title>Node16</title>
<polygon fill="white" stroke="#bfbfbf" points="168.5,-119.5 168.5,-140.5 197.5,-140.5 197.5,-119.5 168.5,-119.5"/>
<text text-anchor="middle" x="183" y="-127.5" font-family="Helvetica,sans-Serif" font-size="10.00">T</text>
</g>
<!-- Node16&#45;&gt;Node15 -->
<g id="edge32" class="edge"><title>Node16&#45;&gt;Node15</title>
<path fill="none" stroke="#9a32cd" stroke-dasharray="5,2" d="M207.785,-130C233.329,-130 274.111,-130 308.135,-130"/>
<polygon fill="#9a32cd" stroke="#9a32cd" points="207.517,-126.5 197.517,-130 207.517,-133.5 207.517,-126.5"/>
<text text-anchor="middle" x="268" y="-134" font-family="Helvetica,sans-Serif" font-size="10.00"> elements</text>
</g>
<!-- Node17 -->
<g id="node33" class="node"><title>Node17</title>
<polygon fill="white" stroke="#bfbfbf" points="520,-66.5 520,-87.5 638,-87.5 638,-66.5 520,-66.5"/>
<text text-anchor="middle" x="579" y="-74.5" font-family="Helvetica,sans-Serif" font-size="10.00">std::unique_ptr&lt; TH1 &gt;</text>
</g>
<!-- Node17&#45;&gt;Node13 -->
<g id="edge34" class="edge"><title>Node17&#45;&gt;Node13</title>
<path fill="none" stroke="#9a32cd" stroke-dasharray="5,2" d="M648.293,-79.863C675.67,-81.3988 707.372,-83.6807 736,-87 741.925,-87.687 748.089,-88.5219 754.233,-89.4336"/>
<polygon fill="#9a32cd" stroke="#9a32cd" points="648.201,-76.353 638.027,-79.3103 647.824,-83.3429 648.201,-76.353"/>
<text text-anchor="middle" x="702" y="-91" font-family="Helvetica,sans-Serif" font-size="10.00"> m_movingsum</text>
</g>
<!-- Node18 -->
<g id="node35" class="node"><title>Node18</title>
<polygon fill="white" stroke="#bfbfbf" points="511.5,-0.5 511.5,-47.5 646.5,-47.5 646.5,-0.5 511.5,-0.5"/>
<text text-anchor="start" x="519.5" y="-34.5" font-family="Helvetica,sans-Serif" font-size="10.00">std::queue&lt; ant::calibration</text>
<text text-anchor="start" x="519.5" y="-21.5" font-family="Helvetica,sans-Serif" font-size="10.00">::gui::AvgBuffer::buffer</text>
<text text-anchor="middle" x="579" y="-8.5" font-family="Helvetica,sans-Serif" font-size="10.00">_entry &gt;</text>
</g>
<!-- Node18&#45;&gt;Node13 -->
<g id="edge36" class="edge"><title>Node18&#45;&gt;Node13</title>
<path fill="none" stroke="#9a32cd" stroke-dasharray="5,2" d="M656.629,-41.4711C682.191,-47.9637 710.57,-55.975 736,-65 745.41,-68.3397 755.254,-72.3747 764.637,-76.4999"/>
<polygon fill="#9a32cd" stroke="#9a32cd" points="657.162,-37.9968 646.612,-38.967 655.464,-44.7878 657.162,-37.9968"/>
<text text-anchor="middle" x="702" y="-69" font-family="Helvetica,sans-Serif" font-size="10.00"> worklist</text>
</g>
<!-- Node19 -->
<g id="node37" class="node"><title>Node19</title>
<a xlink:href="structant_1_1calibration_1_1gui_1_1_avg_buffer_1_1buffer__entry.html" target="_top" xlink:title="ant::calibration::gui\l::AvgBuffer\&lt; HistType,\l IDType \&gt;::buffer_entry">
<polygon fill="white" stroke="black" points="308.5,-0.5 308.5,-47.5 427.5,-47.5 427.5,-0.5 308.5,-0.5"/>
<text text-anchor="start" x="316.5" y="-34.5" font-family="Helvetica,sans-Serif" font-size="10.00">ant::calibration::gui</text>
<text text-anchor="start" x="316.5" y="-21.5" font-family="Helvetica,sans-Serif" font-size="10.00">::AvgBuffer&lt; HistType,</text>
<text text-anchor="middle" x="368" y="-8.5" font-family="Helvetica,sans-Serif" font-size="10.00"> IDType &gt;::buffer_entry</text>
</a>
</g>
<!-- Node19&#45;&gt;Node18 -->
<g id="edge38" class="edge"><title>Node19&#45;&gt;Node18</title>
<path fill="none" stroke="#9a32cd" stroke-dasharray="5,2" d="M437.917,-24C461.555,-24 487.894,-24 511.353,-24"/>
<polygon fill="#9a32cd" stroke="#9a32cd" points="437.618,-20.5001 427.618,-24 437.618,-27.5001 437.618,-20.5001"/>
<text text-anchor="middle" x="468" y="-28" font-family="Helvetica,sans-Serif" font-size="10.00"> elements</text>
</g>
</g>
</svg>
