<?xml version="1.0" encoding="UTF-8" standalone="no"?>
<!DOCTYPE svg PUBLIC "-//W3C//DTD SVG 1.1//EN"
 "http://www.w3.org/Graphics/SVG/1.1/DTD/svg11.dtd">
<!-- Generated by graphviz version 2.26.3 (20100126.1600)
 -->
<!-- Title: ant::analysis::physics::PID_PhiAngle Pages: 1 -->
<svg width="257pt" height="202pt"
 viewBox="0.00 0.00 257.00 202.00" xmlns="http://www.w3.org/2000/svg" xmlns:xlink="http://www.w3.org/1999/xlink">
<g id="graph1" class="graph" transform="scale(1 1) rotate(0) translate(4 198)">
<title>ant::analysis::physics::PID_PhiAngle</title>
<polygon fill="white" stroke="white" points="-4,5 -4,-198 254,-198 254,5 -4,5"/>
<!-- Node1 -->
<g id="node1" class="node"><title>Node1</title>
<polygon fill="#bfbfbf" stroke="black" points="82,-1 82,-35 194,-35 194,-1 82,-1"/>
<text text-anchor="start" x="90" y="-22" font-family="Helvetica,sans-Serif" font-size="10.00">ant::analysis::physics</text>
<text text-anchor="middle" x="138" y="-9" font-family="Helvetica,sans-Serif" font-size="10.00">::PID_PhiAngle</text>
</g>
<!-- Node2 -->
<g id="node2" class="node"><title>Node2</title>
<a xlink:href="classant_1_1analysis_1_1_physics.html" target="_top" xlink:title="ant::analysis::Physics">
<polygon fill="white" stroke="black" points="4.5,-86.5 4.5,-107.5 117.5,-107.5 117.5,-86.5 4.5,-86.5"/>
<text text-anchor="middle" x="61" y="-94.5" font-family="Helvetica,sans-Serif" font-size="10.00">ant::analysis::Physics</text>
</a>
</g>
<!-- Node2&#45;&gt;Node1 -->
<g id="edge2" class="edge"><title>Node2&#45;&gt;Node1</title>
<path fill="none" stroke="midnightblue" d="M78.7168,-78.823C91.533,-65.674 108.737,-48.0232 121.31,-35.1236"/>
<polygon fill="midnightblue" stroke="midnightblue" points="75.858,-76.7416 71.3846,-86.3457 80.8708,-81.6275 75.858,-76.7416"/>
</g>
<!-- Node3 -->
<g id="node4" class="node"><title>Node3</title>
<a xlink:href="classant_1_1analysis_1_1_histogram_factory.html" target="_top" xlink:title="ant::analysis::Histogram\lFactory">
<polygon fill="white" stroke="black" points="-0.5,-159 -0.5,-193 122.5,-193 122.5,-159 -0.5,-159"/>
<text text-anchor="start" x="7.5" y="-180" font-family="Helvetica,sans-Serif" font-size="10.00">ant::analysis::Histogram</text>
<text text-anchor="middle" x="61" y="-167" font-family="Helvetica,sans-Serif" font-size="10.00">Factory</text>
</a>
</g>
<!-- Node3&#45;&gt;Node2 -->
<g id="edge4" class="edge"><title>Node3&#45;&gt;Node2</title>
<path fill="none" stroke="#9a32cd" stroke-dasharray="5,2" d="M61,-148.623C61,-134.473 61,-118.024 61,-107.567"/>
<polygon fill="#9a32cd" stroke="#9a32cd" points="57.5001,-148.858 61,-158.858 64.5001,-148.858 57.5001,-148.858"/>
<text text-anchor="middle" x="80" y="-130.5" font-family="Helvetica,sans-Serif" font-size="10.00"> HistFac</text>
</g>
<!-- Node4 -->
<g id="node6" class="node"><title>Node4</title>
<a xlink:href="classant_1_1interval.html" target="_top" xlink:title="ant::interval\&lt; double \&gt;">
<polygon fill="white" stroke="black" points="135,-86.5 135,-107.5 249,-107.5 249,-86.5 135,-86.5"/>
<text text-anchor="middle" x="192" y="-94.5" font-family="Helvetica,sans-Serif" font-size="10.00">ant::interval&lt; double &gt;</text>
</a>
</g>
<!-- Node4&#45;&gt;Node1 -->
<g id="edge6" class="edge"><title>Node4&#45;&gt;Node1</title>
<path fill="none" stroke="#9a32cd" stroke-dasharray="5,2" d="M179.063,-78.074C170.133,-65.0096 158.356,-47.7798 149.705,-35.1236"/>
<polygon fill="#9a32cd" stroke="#9a32cd" points="176.185,-80.0652 184.717,-86.3457 181.964,-76.115 176.185,-80.0652"/>
<text text-anchor="middle" x="198.5" y="-58.5" font-family="Helvetica,sans-Serif" font-size="10.00"> theta_range</text>
</g>
<!-- Node5 -->
<g id="node8" class="node"><title>Node5</title>
<a xlink:href="classant_1_1printable__traits.html" target="_top" xlink:title="ant::printable_traits">
<polygon fill="white" stroke="black" points="142,-165.5 142,-186.5 242,-186.5 242,-165.5 142,-165.5"/>
<text text-anchor="middle" x="192" y="-173.5" font-family="Helvetica,sans-Serif" font-size="10.00">ant::printable_traits</text>
</a>
</g>
<!-- Node5&#45;&gt;Node4 -->
<g id="edge8" class="edge"><title>Node5&#45;&gt;Node4</title>
<path fill="none" stroke="midnightblue" d="M192,-155.284C192,-140.031 192,-119.907 192,-107.738"/>
<polygon fill="midnightblue" stroke="midnightblue" points="188.5,-155.346 192,-165.346 195.5,-155.346 188.5,-155.346"/>
</g>
</g>
</svg>
