<?xml version="1.0" encoding="UTF-8" standalone="no"?>
<!DOCTYPE svg PUBLIC "-//W3C//DTD SVG 1.1//EN"
 "http://www.w3.org/Graphics/SVG/1.1/DTD/svg11.dtd">
<!-- Generated by graphviz version 2.26.3 (20100126.1600)
 -->
<!-- Title: ant::progs::taggeff::taggEffTriple_t Pages: 1 -->
<svg width="1522pt" height="285pt"
 viewBox="0.00 0.00 1522.00 285.00" xmlns="http://www.w3.org/2000/svg" xmlns:xlink="http://www.w3.org/1999/xlink">
<g id="graph1" class="graph" transform="scale(1 1) rotate(0) translate(4 281)">
<title>ant::progs::taggeff::taggEffTriple_t</title>
<polygon fill="white" stroke="white" points="-4,5 -4,-281 1519,-281 1519,5 -4,5"/>
<!-- Node1 -->
<g id="node1" class="node"><title>Node1</title>
<polygon fill="#bfbfbf" stroke="black" points="1418,-85 1418,-119 1514,-119 1514,-85 1418,-85"/>
<text text-anchor="start" x="1426" y="-106" font-family="Helvetica,sans-Serif" font-size="10.00">ant::progs::taggeff</text>
<text text-anchor="middle" x="1466" y="-93" font-family="Helvetica,sans-Serif" font-size="10.00">::taggEffTriple_t</text>
</g>
<!-- Node2 -->
<g id="node2" class="node"><title>Node2</title>
<a xlink:href="structant_1_1progs_1_1taggeff_1_1tree_loader__t.html" target="_top" xlink:title="ant::progs::taggeff\l::treeLoader_t">
<polygon fill="white" stroke="black" points="1234,-175 1234,-209 1330,-209 1330,-175 1234,-175"/>
<text text-anchor="start" x="1242" y="-196" font-family="Helvetica,sans-Serif" font-size="10.00">ant::progs::taggeff</text>
<text text-anchor="middle" x="1282" y="-183" font-family="Helvetica,sans-Serif" font-size="10.00">::treeLoader_t</text>
</a>
</g>
<!-- Node2&#45;&gt;Node1 -->
<g id="edge2" class="edge"><title>Node2&#45;&gt;Node1</title>
<path fill="none" stroke="#9a32cd" stroke-dasharray="5,2" d="M1326.83,-170.524C1348.9,-159.905 1375.88,-146.854 1400,-135 1410.46,-129.858 1421.83,-124.202 1432.13,-119.046"/>
<polygon fill="#9a32cd" stroke="#9a32cd" points="1325.19,-167.428 1317.69,-174.915 1328.22,-173.737 1325.19,-167.428"/>
<text text-anchor="middle" x="1381" y="-183" font-family="Helvetica,sans-Serif" font-size="10.00"> Bkg1</text>
<text text-anchor="middle" x="1381" y="-170" font-family="Helvetica,sans-Serif" font-size="10.00">Bkg2</text>
<text text-anchor="middle" x="1381" y="-157" font-family="Helvetica,sans-Serif" font-size="10.00">Run</text>
</g>
<!-- Node3 -->
<g id="node4" class="node"><title>Node3</title>
<a xlink:href="structant_1_1analysis_1_1physics_1_1_process_tagg_eff_1_1_tree_scalar_reads.html" target="_top" xlink:title="ant::analysis::physics\l::ProcessTaggEff::TreeScalarReads">
<polygon fill="white" stroke="black" points="964.5,-194 964.5,-228 1139.5,-228 1139.5,-194 964.5,-194"/>
<text text-anchor="start" x="972.5" y="-215" font-family="Helvetica,sans-Serif" font-size="10.00">ant::analysis::physics</text>
<text text-anchor="middle" x="1052" y="-202" font-family="Helvetica,sans-Serif" font-size="10.00">::ProcessTaggEff::TreeScalarReads</text>
</a>
</g>
<!-- Node3&#45;&gt;Node2 -->
<g id="edge4" class="edge"><title>Node3&#45;&gt;Node2</title>
<path fill="none" stroke="#9a32cd" stroke-dasharray="5,2" d="M1149.82,-202.919C1178.9,-200.517 1209.47,-197.991 1233.89,-195.975"/>
<polygon fill="#9a32cd" stroke="#9a32cd" points="1149.29,-199.451 1139.61,-203.763 1149.86,-206.427 1149.29,-199.451"/>
<text text-anchor="middle" x="1180" y="-206" font-family="Helvetica,sans-Serif" font-size="10.00"> wrapTree</text>
</g>
<!-- Node4 -->
<g id="node6" class="node"><title>Node4</title>
<a xlink:href="structant_1_1_wrap_t_tree.html" target="_top" xlink:title="The WrapTTree struct simplifies TTree handling in physics classes. ">
<polygon fill="white" stroke="black" points="840.5,-200.5 840.5,-221.5 925.5,-221.5 925.5,-200.5 840.5,-200.5"/>
<text text-anchor="middle" x="883" y="-208.5" font-family="Helvetica,sans-Serif" font-size="10.00">ant::WrapTTree</text>
</a>
</g>
<!-- Node4&#45;&gt;Node3 -->
<g id="edge6" class="edge"><title>Node4&#45;&gt;Node3</title>
<path fill="none" stroke="midnightblue" d="M935.652,-211C944.757,-211 954.44,-211 964.182,-211"/>
<polygon fill="midnightblue" stroke="midnightblue" points="935.646,-207.5 925.646,-211 935.646,-214.5 935.646,-207.5"/>
</g>
<!-- Node5 -->
<g id="node8" class="node"><title>Node5</title>
<polygon fill="white" stroke="#bfbfbf" points="620,-194 620,-228 760,-228 760,-194 620,-194"/>
<text text-anchor="start" x="628" y="-215" font-family="Helvetica,sans-Serif" font-size="10.00">std::vector&lt; ant::WrapTTree</text>
<text text-anchor="middle" x="690" y="-202" font-family="Helvetica,sans-Serif" font-size="10.00">::ROOT_branch_t &gt;</text>
</g>
<!-- Node5&#45;&gt;Node4 -->
<g id="edge8" class="edge"><title>Node5&#45;&gt;Node4</title>
<path fill="none" stroke="#9a32cd" stroke-dasharray="5,2" d="M770.407,-211C794.406,-211 819.771,-211 840.338,-211"/>
<polygon fill="#9a32cd" stroke="#9a32cd" points="770.223,-207.5 760.223,-211 770.223,-214.5 770.223,-207.5"/>
<text text-anchor="middle" x="800" y="-215" font-family="Helvetica,sans-Serif" font-size="10.00"> branches</text>
</g>
<!-- Node6 -->
<g id="node10" class="node"><title>Node6</title>
<a xlink:href="structant_1_1_wrap_t_tree_1_1_r_o_o_t__branch__t.html" target="_top" xlink:title="ant::WrapTTree::ROOT\l_branch_t">
<polygon fill="white" stroke="black" points="419.5,-200 419.5,-234 538.5,-234 538.5,-200 419.5,-200"/>
<text text-anchor="start" x="427.5" y="-221" font-family="Helvetica,sans-Serif" font-size="10.00">ant::WrapTTree::ROOT</text>
<text text-anchor="middle" x="479" y="-208" font-family="Helvetica,sans-Serif" font-size="10.00">_branch_t</text>
</a>
</g>
<!-- Node6&#45;&gt;Node5 -->
<g id="edge10" class="edge"><title>Node6&#45;&gt;Node5</title>
<path fill="none" stroke="#9a32cd" stroke-dasharray="5,2" d="M548.881,-215.013C571.641,-214.366 596.907,-213.647 619.698,-212.999"/>
<polygon fill="#9a32cd" stroke="#9a32cd" points="548.515,-211.522 538.618,-215.305 548.714,-218.519 548.515,-211.522"/>
<text text-anchor="middle" x="580" y="-218" font-family="Helvetica,sans-Serif" font-size="10.00"> elements</text>
</g>
<!-- Node7 -->
<g id="node12" class="node"><title>Node7</title>
<a xlink:href="structant_1_1_wrap_t_tree_1_1_r_o_o_t__branchinfo__t.html" target="_top" xlink:title="ant::WrapTTree::ROOT\l_branchinfo_t">
<polygon fill="white" stroke="black" points="260.5,-202 260.5,-236 379.5,-236 379.5,-202 260.5,-202"/>
<text text-anchor="start" x="268.5" y="-223" font-family="Helvetica,sans-Serif" font-size="10.00">ant::WrapTTree::ROOT</text>
<text text-anchor="middle" x="320" y="-210" font-family="Helvetica,sans-Serif" font-size="10.00">_branchinfo_t</text>
</a>
</g>
<!-- Node7&#45;&gt;Node6 -->
<g id="edge12" class="edge"><title>Node7&#45;&gt;Node6</title>
<path fill="none" stroke="midnightblue" d="M389.801,-218.122C399.628,-217.998 409.656,-217.872 419.272,-217.751"/>
<polygon fill="midnightblue" stroke="midnightblue" points="389.613,-214.624 379.658,-218.25 389.701,-221.623 389.613,-214.624"/>
</g>
<!-- Node8 -->
<g id="node14" class="node"><title>Node8</title>
<a xlink:title="STL class. ">
<polygon fill="white" stroke="#bfbfbf" points="134,-235.5 134,-256.5 194,-256.5 194,-235.5 134,-235.5"/>
<text text-anchor="middle" x="164" y="-243.5" font-family="Helvetica,sans-Serif" font-size="10.00">std::string</text>
</a>
</g>
<!-- Node8&#45;&gt;Node2 -->
<g id="edge18" class="edge"><title>Node8&#45;&gt;Node2</title>
<path fill="none" stroke="#9a32cd" stroke-dasharray="5,2" d="M204.193,-253.207C235.611,-258.218 280.442,-264 320,-264 320,-264 320,-264 1052,-264 1125.22,-264 1205.82,-230.354 1249.48,-209.063"/>
<polygon fill="#9a32cd" stroke="#9a32cd" points="204.514,-249.713 194.079,-251.547 203.38,-256.621 204.514,-249.713"/>
<text text-anchor="middle" x="690" y="-268" font-family="Helvetica,sans-Serif" font-size="10.00"> setupName</text>
</g>
<!-- Node8&#45;&gt;Node7 -->
<g id="edge14" class="edge"><title>Node8&#45;&gt;Node7</title>
<path fill="none" stroke="#9a32cd" stroke-dasharray="5,2" d="M204.272,-238.388C206.886,-237.912 209.48,-237.446 212,-237 227.629,-234.233 244.553,-231.356 260.263,-228.735"/>
<polygon fill="#9a32cd" stroke="#9a32cd" points="203.399,-234.989 194.197,-240.242 204.666,-241.874 203.399,-234.989"/>
<text text-anchor="middle" x="227" y="-241" font-family="Helvetica,sans-Serif" font-size="10.00"> Name</text>
</g>
<!-- Node9 -->
<g id="node16" class="node"><title>Node9</title>
<a xlink:title="STL class. ">
<polygon fill="white" stroke="#bfbfbf" points="0.5,-229 0.5,-263 95.5,-263 95.5,-229 0.5,-229"/>
<text text-anchor="start" x="8.5" y="-250" font-family="Helvetica,sans-Serif" font-size="10.00">std::basic_string&lt;</text>
<text text-anchor="middle" x="48" y="-237" font-family="Helvetica,sans-Serif" font-size="10.00"> char &gt;</text>
</a>
</g>
<!-- Node9&#45;&gt;Node8 -->
<g id="edge16" class="edge"><title>Node9&#45;&gt;Node8</title>
<path fill="none" stroke="midnightblue" d="M105.582,-246C115.29,-246 125.014,-246 133.666,-246"/>
<polygon fill="midnightblue" stroke="midnightblue" points="105.516,-242.5 95.5163,-246 105.516,-249.5 105.516,-242.5"/>
</g>
<!-- Node10 -->
<g id="node19" class="node"><title>Node10</title>
<a xlink:href="classant_1_1_wrap_t_file_input.html" target="_top" xlink:title="ant::WrapTFileInput">
<polygon fill="white" stroke="black" points="1000.5,-154.5 1000.5,-175.5 1103.5,-175.5 1103.5,-154.5 1000.5,-154.5"/>
<text text-anchor="middle" x="1052" y="-162.5" font-family="Helvetica,sans-Serif" font-size="10.00">ant::WrapTFileInput</text>
</a>
</g>
<!-- Node10&#45;&gt;Node2 -->
<g id="edge20" class="edge"><title>Node10&#45;&gt;Node2</title>
<path fill="none" stroke="#9a32cd" stroke-dasharray="5,2" d="M1113.87,-171.173C1140.95,-173.984 1173.07,-177.469 1202,-181 1212.3,-182.257 1223.33,-183.706 1233.8,-185.132"/>
<polygon fill="#9a32cd" stroke="#9a32cd" points="1114.07,-167.675 1103.76,-170.13 1113.35,-174.638 1114.07,-167.675"/>
<text text-anchor="middle" x="1180" y="-185" font-family="Helvetica,sans-Serif" font-size="10.00"> wrapFile</text>
</g>
<!-- Node11 -->
<g id="node21" class="node"><title>Node11</title>
<a xlink:href="classant_1_1_wrap_t_file.html" target="_top" xlink:title="ant::WrapTFile">
<polygon fill="white" stroke="black" points="842.5,-150.5 842.5,-171.5 923.5,-171.5 923.5,-150.5 842.5,-150.5"/>
<text text-anchor="middle" x="883" y="-158.5" font-family="Helvetica,sans-Serif" font-size="10.00">ant::WrapTFile</text>
</a>
</g>
<!-- Node11&#45;&gt;Node10 -->
<g id="edge22" class="edge"><title>Node11&#45;&gt;Node10</title>
<path fill="none" stroke="midnightblue" d="M933.917,-162.205C954.9,-162.702 979.182,-163.276 1000.25,-163.775"/>
<polygon fill="midnightblue" stroke="midnightblue" points="933.99,-158.706 923.91,-161.968 933.825,-165.704 933.99,-158.706"/>
</g>
<!-- Node12 -->
<g id="node23" class="node"><title>Node12</title>
<polygon fill="white" stroke="#bfbfbf" points="637,-142 637,-176 743,-176 743,-142 637,-142"/>
<text text-anchor="start" x="645" y="-163" font-family="Helvetica,sans-Serif" font-size="10.00">std::list&lt; std::unique</text>
<text text-anchor="middle" x="690" y="-150" font-family="Helvetica,sans-Serif" font-size="10.00">_ptr&lt; TFile &gt; &gt;</text>
</g>
<!-- Node12&#45;&gt;Node11 -->
<g id="edge24" class="edge"><title>Node12&#45;&gt;Node11</title>
<path fill="none" stroke="#9a32cd" stroke-dasharray="5,2" d="M753.405,-159.657C782.722,-159.961 816.676,-160.313 842.474,-160.58"/>
<polygon fill="#9a32cd" stroke="#9a32cd" points="753.285,-156.156 743.249,-159.552 753.212,-163.155 753.285,-156.156"/>
<text text-anchor="middle" x="800" y="-165" font-family="Helvetica,sans-Serif" font-size="10.00"> files</text>
</g>
<!-- Node13 -->
<g id="node25" class="node"><title>Node13</title>
<polygon fill="white" stroke="#bfbfbf" points="418.5,-148.5 418.5,-169.5 539.5,-169.5 539.5,-148.5 418.5,-148.5"/>
<text text-anchor="middle" x="479" y="-156.5" font-family="Helvetica,sans-Serif" font-size="10.00">std::unique_ptr&lt; TFile &gt;</text>
</g>
<!-- Node13&#45;&gt;Node12 -->
<g id="edge26" class="edge"><title>Node13&#45;&gt;Node12</title>
<path fill="none" stroke="#9a32cd" stroke-dasharray="5,2" d="M550.018,-159C578.406,-159 610.536,-159 636.847,-159"/>
<polygon fill="#9a32cd" stroke="#9a32cd" points="549.747,-155.5 539.747,-159 549.747,-162.5 549.747,-155.5"/>
<text text-anchor="middle" x="580" y="-163" font-family="Helvetica,sans-Serif" font-size="10.00"> elements</text>
</g>
<!-- Node14 -->
<g id="node27" class="node"><title>Node14</title>
<a xlink:href="structant_1_1_t_i_d.html" target="_top" xlink:title="ant::TID">
<polygon fill="white" stroke="black" points="1255.5,-118.5 1255.5,-139.5 1308.5,-139.5 1308.5,-118.5 1255.5,-118.5"/>
<text text-anchor="middle" x="1282" y="-126.5" font-family="Helvetica,sans-Serif" font-size="10.00">ant::TID</text>
</a>
</g>
<!-- Node14&#45;&gt;Node1 -->
<g id="edge28" class="edge"><title>Node14&#45;&gt;Node1</title>
<path fill="none" stroke="#9a32cd" stroke-dasharray="5,2" d="M1318.69,-123.616C1347.13,-119.442 1386.79,-113.623 1417.8,-109.073"/>
<polygon fill="#9a32cd" stroke="#9a32cd" points="1318.14,-120.159 1308.76,-125.074 1319.16,-127.085 1318.14,-120.159"/>
<text text-anchor="middle" x="1381" y="-122" font-family="Helvetica,sans-Serif" font-size="10.00"> startID</text>
</g>
<!-- Node15 -->
<g id="node29" class="node"><title>Node15</title>
<a xlink:href="classant_1_1printable__traits.html" target="_top" xlink:title="ant::printable_traits">
<polygon fill="white" stroke="black" points="1002,-114.5 1002,-135.5 1102,-135.5 1102,-114.5 1002,-114.5"/>
<text text-anchor="middle" x="1052" y="-122.5" font-family="Helvetica,sans-Serif" font-size="10.00">ant::printable_traits</text>
</a>
</g>
<!-- Node15&#45;&gt;Node14 -->
<g id="edge30" class="edge"><title>Node15&#45;&gt;Node14</title>
<path fill="none" stroke="midnightblue" d="M1112.42,-126.051C1158.73,-126.856 1220.43,-127.929 1255.2,-128.534"/>
<polygon fill="midnightblue" stroke="midnightblue" points="1112.25,-122.547 1102.19,-125.873 1112.13,-129.546 1112.25,-122.547"/>
</g>
<!-- Node16 -->
<g id="node31" class="node"><title>Node16</title>
<polygon fill="white" stroke="#bfbfbf" points="1224,-52.5 1224,-99.5 1340,-99.5 1340,-52.5 1224,-52.5"/>
<text text-anchor="start" x="1232" y="-86.5" font-family="Helvetica,sans-Serif" font-size="10.00">std::vector&lt; ant::progs</text>
<text text-anchor="start" x="1232" y="-73.5" font-family="Helvetica,sans-Serif" font-size="10.00">::taggeff::taggEffTriple</text>
<text text-anchor="middle" x="1282" y="-60.5" font-family="Helvetica,sans-Serif" font-size="10.00">_t::bkgFit_t &gt;</text>
</g>
<!-- Node16&#45;&gt;Node1 -->
<g id="edge32" class="edge"><title>Node16&#45;&gt;Node1</title>
<path fill="none" stroke="#9a32cd" stroke-dasharray="5,2" d="M1350.09,-82.5061C1366.47,-84.3459 1383.89,-86.5303 1400,-89 1405.77,-89.8847 1411.81,-90.9198 1417.78,-92.0127"/>
<polygon fill="#9a32cd" stroke="#9a32cd" points="1350.37,-79.0157 1340.05,-81.4057 1349.61,-85.974 1350.37,-79.0157"/>
<text text-anchor="middle" x="1381" y="-93" font-family="Helvetica,sans-Serif" font-size="10.00"> bkgFits</text>
</g>
<!-- Node17 -->
<g id="node33" class="node"><title>Node17</title>
<a xlink:href="structant_1_1progs_1_1taggeff_1_1tagg_eff_triple__t_1_1bkg_fit__t.html" target="_top" xlink:title="ant::progs::taggeff\l::taggEffTriple_t::bkgFit_t">
<polygon fill="white" stroke="black" points="988,-59 988,-93 1116,-93 1116,-59 988,-59"/>
<text text-anchor="start" x="996" y="-80" font-family="Helvetica,sans-Serif" font-size="10.00">ant::progs::taggeff</text>
<text text-anchor="middle" x="1052" y="-67" font-family="Helvetica,sans-Serif" font-size="10.00">::taggEffTriple_t::bkgFit_t</text>
</a>
</g>
<!-- Node17&#45;&gt;Node16 -->
<g id="edge34" class="edge"><title>Node17&#45;&gt;Node16</title>
<path fill="none" stroke="#9a32cd" stroke-dasharray="5,2" d="M1126.15,-76C1157.78,-76 1194.14,-76 1223.78,-76"/>
<polygon fill="#9a32cd" stroke="#9a32cd" points="1126.07,-72.5001 1116.07,-76 1126.07,-79.5001 1126.07,-72.5001"/>
<text text-anchor="middle" x="1180" y="-80" font-family="Helvetica,sans-Serif" font-size="10.00"> elements</text>
</g>
<!-- Node18 -->
<g id="node35" class="node"><title>Node18</title>
<a xlink:href="classant_1_1analysis_1_1_histogram_factory.html" target="_top" xlink:title="ant::analysis::Histogram\lFactory">
<polygon fill="white" stroke="black" points="1220.5,-0 1220.5,-34 1343.5,-34 1343.5,-0 1220.5,-0"/>
<text text-anchor="start" x="1228.5" y="-21" font-family="Helvetica,sans-Serif" font-size="10.00">ant::analysis::Histogram</text>
<text text-anchor="middle" x="1282" y="-8" font-family="Helvetica,sans-Serif" font-size="10.00">Factory</text>
</a>
</g>
<!-- Node18&#45;&gt;Node1 -->
<g id="edge36" class="edge"><title>Node18&#45;&gt;Node1</title>
<path fill="none" stroke="#9a32cd" stroke-dasharray="5,2" d="M1332.31,-37.9845C1336.27,-39.6707 1340.2,-41.357 1344,-43 1369.01,-53.8267 1375.43,-56.1987 1400,-68 1411.04,-73.3017 1422.97,-79.3507 1433.62,-84.8623"/>
<polygon fill="#9a32cd" stroke="#9a32cd" points="1333.65,-34.7503 1323.08,-34.0707 1330.92,-41.1954 1333.65,-34.7503"/>
<text text-anchor="middle" x="1381" y="-72" font-family="Helvetica,sans-Serif" font-size="10.00"> HistFac</text>
</g>
</g>
</svg>
