<?xml version="1.0" encoding="UTF-8" standalone="no"?>
<!DOCTYPE svg PUBLIC "-//W3C//DTD SVG 1.1//EN"
 "http://www.w3.org/Graphics/SVG/1.1/DTD/svg11.dtd">
<!-- Generated by graphviz version 2.26.3 (20100126.1600)
 -->
<!-- Title: ant::analysis::physics::PID_Energy Pages: 1 -->
<svg width="1140pt" height="264pt"
 viewBox="0.00 0.00 1140.00 264.00" xmlns="http://www.w3.org/2000/svg" xmlns:xlink="http://www.w3.org/1999/xlink">
<g id="graph1" class="graph" transform="scale(1 1) rotate(0) translate(4 260)">
<title>ant::analysis::physics::PID_Energy</title>
<polygon fill="white" stroke="white" points="-4,5 -4,-260 1137,-260 1137,5 -4,5"/>
<!-- Node1 -->
<g id="node1" class="node"><title>Node1</title>
<polygon fill="#bfbfbf" stroke="black" points="1020,-81 1020,-115 1132,-115 1132,-81 1020,-81"/>
<text text-anchor="start" x="1028" y="-102" font-family="Helvetica,sans-Serif" font-size="10.00">ant::analysis::physics</text>
<text text-anchor="middle" x="1076" y="-89" font-family="Helvetica,sans-Serif" font-size="10.00">::PID_Energy</text>
</g>
<!-- Node2 -->
<g id="node2" class="node"><title>Node2</title>
<a xlink:href="classant_1_1analysis_1_1_physics.html" target="_top" xlink:title="ant::analysis::Physics">
<polygon fill="white" stroke="black" points="766.5,-195.5 766.5,-216.5 879.5,-216.5 879.5,-195.5 766.5,-195.5"/>
<text text-anchor="middle" x="823" y="-203.5" font-family="Helvetica,sans-Serif" font-size="10.00">ant::analysis::Physics</text>
</a>
</g>
<!-- Node2&#45;&gt;Node1 -->
<g id="edge2" class="edge"><title>Node2&#45;&gt;Node1</title>
<path fill="none" stroke="midnightblue" d="M858.478,-191.413C894.665,-176.469 952.388,-152.452 1002,-131 1013.75,-125.92 1026.5,-120.281 1038.05,-115.123"/>
<polygon fill="midnightblue" stroke="midnightblue" points="856.777,-188.329 848.867,-195.378 859.446,-194.8 856.777,-188.329"/>
</g>
<!-- Node3 -->
<g id="node4" class="node"><title>Node3</title>
<a xlink:href="classant_1_1analysis_1_1_histogram_factory.html" target="_top" xlink:title="ant::analysis::Histogram\lFactory">
<polygon fill="white" stroke="black" points="515.5,-222 515.5,-256 638.5,-256 638.5,-222 515.5,-222"/>
<text text-anchor="start" x="523.5" y="-243" font-family="Helvetica,sans-Serif" font-size="10.00">ant::analysis::Histogram</text>
<text text-anchor="middle" x="577" y="-230" font-family="Helvetica,sans-Serif" font-size="10.00">Factory</text>
</a>
</g>
<!-- Node3&#45;&gt;Node2 -->
<g id="edge4" class="edge"><title>Node3&#45;&gt;Node2</title>
<path fill="none" stroke="#9a32cd" stroke-dasharray="5,2" d="M649.081,-229.331C686.444,-224.318 731.421,-218.285 766.275,-213.609"/>
<polygon fill="#9a32cd" stroke="#9a32cd" points="648.205,-225.917 638.759,-230.715 649.135,-232.855 648.205,-225.917"/>
<text text-anchor="middle" x="688" y="-230" font-family="Helvetica,sans-Serif" font-size="10.00"> HistFac</text>
</g>
<!-- Node4 -->
<g id="node6" class="node"><title>Node4</title>
<a xlink:href="classant_1_1analysis_1_1utils_1_1_kin_fitter.html" target="_top" xlink:title="ant::analysis::utils\l::KinFitter">
<polygon fill="white" stroke="black" points="775,-111 775,-145 871,-145 871,-111 775,-111"/>
<text text-anchor="start" x="783" y="-132" font-family="Helvetica,sans-Serif" font-size="10.00">ant::analysis::utils</text>
<text text-anchor="middle" x="823" y="-119" font-family="Helvetica,sans-Serif" font-size="10.00">::KinFitter</text>
</a>
</g>
<!-- Node4&#45;&gt;Node1 -->
<g id="edge6" class="edge"><title>Node4&#45;&gt;Node1</title>
<path fill="none" stroke="#9a32cd" stroke-dasharray="5,2" d="M881.167,-121.103C922.756,-116.171 978.423,-109.57 1019.6,-104.687"/>
<polygon fill="#9a32cd" stroke="#9a32cd" points="880.701,-117.633 871.183,-122.287 881.525,-124.585 880.701,-117.633"/>
<text text-anchor="middle" x="969" y="-118" font-family="Helvetica,sans-Serif" font-size="10.00"> kinfit</text>
</g>
<!-- Node5 -->
<g id="node8" class="node"><title>Node5</title>
<a xlink:href="classant_1_1analysis_1_1utils_1_1_fitter.html" target="_top" xlink:title="ant::analysis::utils\l::Fitter">
<polygon fill="white" stroke="black" points="529,-170 529,-204 625,-204 625,-170 529,-170"/>
<text text-anchor="start" x="537" y="-191" font-family="Helvetica,sans-Serif" font-size="10.00">ant::analysis::utils</text>
<text text-anchor="middle" x="577" y="-178" font-family="Helvetica,sans-Serif" font-size="10.00">::Fitter</text>
</a>
</g>
<!-- Node5&#45;&gt;Node4 -->
<g id="edge8" class="edge"><title>Node5&#45;&gt;Node4</title>
<path fill="none" stroke="midnightblue" d="M634.949,-173.102C677.488,-162.899 734.602,-149.201 774.686,-139.587"/>
<polygon fill="midnightblue" stroke="midnightblue" points="633.923,-169.748 625.015,-175.484 635.556,-176.555 633.923,-169.748"/>
</g>
<!-- Node6 -->
<g id="node10" class="node"><title>Node6</title>
<polygon fill="white" stroke="#bfbfbf" points="298,-176.5 298,-197.5 438,-197.5 438,-176.5 298,-176.5"/>
<text text-anchor="middle" x="368" y="-184.5" font-family="Helvetica,sans-Serif" font-size="10.00">std::unique_ptr&lt; APLCON &gt;</text>
</g>
<!-- Node6&#45;&gt;Node5 -->
<g id="edge10" class="edge"><title>Node6&#45;&gt;Node5</title>
<path fill="none" stroke="#9a32cd" stroke-dasharray="5,2" d="M448.436,-187C475.541,-187 504.93,-187 528.759,-187"/>
<polygon fill="#9a32cd" stroke="#9a32cd" points="448.175,-183.5 438.175,-187 448.175,-190.5 448.175,-183.5"/>
<text text-anchor="middle" x="472" y="-191" font-family="Helvetica,sans-Serif" font-size="10.00"> aplcon</text>
</g>
<!-- Node7 -->
<g id="node12" class="node"><title>Node7</title>
<polygon fill="white" stroke="#bfbfbf" points="514.5,-104.5 514.5,-151.5 639.5,-151.5 639.5,-104.5 514.5,-104.5"/>
<text text-anchor="start" x="522.5" y="-138.5" font-family="Helvetica,sans-Serif" font-size="10.00">std::unique_ptr&lt; ant</text>
<text text-anchor="start" x="522.5" y="-125.5" font-family="Helvetica,sans-Serif" font-size="10.00">::analysis::utils::KinFitter</text>
<text text-anchor="middle" x="577" y="-112.5" font-family="Helvetica,sans-Serif" font-size="10.00">::BeamE_t &gt;</text>
</g>
<!-- Node7&#45;&gt;Node4 -->
<g id="edge12" class="edge"><title>Node7&#45;&gt;Node4</title>
<path fill="none" stroke="#9a32cd" stroke-dasharray="5,2" d="M649.77,-128C690.117,-128 739.172,-128 774.766,-128"/>
<polygon fill="#9a32cd" stroke="#9a32cd" points="649.713,-124.5 639.713,-128 649.713,-131.5 649.713,-124.5"/>
<text text-anchor="middle" x="688" y="-132" font-family="Helvetica,sans-Serif" font-size="10.00"> BeamE</text>
</g>
<!-- Node8 -->
<g id="node14" class="node"><title>Node8</title>
<a xlink:href="structant_1_1analysis_1_1utils_1_1_kin_fitter_1_1_beam_e__t.html" target="_top" xlink:title="ant::analysis::utils\l::KinFitter::BeamE_t">
<polygon fill="white" stroke="black" points="315,-111 315,-145 421,-145 421,-111 315,-111"/>
<text text-anchor="start" x="323" y="-132" font-family="Helvetica,sans-Serif" font-size="10.00">ant::analysis::utils</text>
<text text-anchor="middle" x="368" y="-119" font-family="Helvetica,sans-Serif" font-size="10.00">::KinFitter::BeamE_t</text>
</a>
</g>
<!-- Node8&#45;&gt;Node7 -->
<g id="edge14" class="edge"><title>Node8&#45;&gt;Node7</title>
<path fill="none" stroke="#9a32cd" stroke-dasharray="5,2" d="M431.26,-128C457.603,-128 488.11,-128 514.384,-128"/>
<polygon fill="#9a32cd" stroke="#9a32cd" points="431.01,-124.5 421.01,-128 431.01,-131.5 431.01,-124.5"/>
<text text-anchor="middle" x="472" y="-132" font-family="Helvetica,sans-Serif" font-size="10.00"> ptr</text>
</g>
<!-- Node9 -->
<g id="node16" class="node"><title>Node9</title>
<a xlink:href="structant_1_1analysis_1_1utils_1_1_fitter_1_1_fit_variable.html" target="_top" xlink:title="ant::analysis::utils\l::Fitter::FitVariable">
<polygon fill="white" stroke="black" points="134,-125 134,-159 232,-159 232,-125 134,-125"/>
<text text-anchor="start" x="142" y="-146" font-family="Helvetica,sans-Serif" font-size="10.00">ant::analysis::utils</text>
<text text-anchor="middle" x="183" y="-133" font-family="Helvetica,sans-Serif" font-size="10.00">::Fitter::FitVariable</text>
</a>
</g>
<!-- Node9&#45;&gt;Node8 -->
<g id="edge16" class="edge"><title>Node9&#45;&gt;Node8</title>
<path fill="none" stroke="midnightblue" d="M242.203,-137.52C265.516,-135.756 292.085,-133.745 314.779,-132.028"/>
<polygon fill="midnightblue" stroke="midnightblue" points="241.798,-134.04 232.091,-138.285 242.327,-141.02 241.798,-134.04"/>
</g>
<!-- Node10 -->
<g id="node18" class="node"><title>Node10</title>
<a xlink:title="STL class. ">
<polygon fill="white" stroke="#bfbfbf" points="153,-85.5 153,-106.5 213,-106.5 213,-85.5 153,-85.5"/>
<text text-anchor="middle" x="183" y="-93.5" font-family="Helvetica,sans-Serif" font-size="10.00">std::string</text>
</a>
</g>
<!-- Node10&#45;&gt;Node8 -->
<g id="edge18" class="edge"><title>Node10&#45;&gt;Node8</title>
<path fill="none" stroke="#9a32cd" stroke-dasharray="5,2" d="M223.311,-102.973C250.106,-107.608 285.585,-113.744 314.704,-118.781"/>
<polygon fill="#9a32cd" stroke="#9a32cd" points="223.585,-99.4683 213.135,-101.213 222.392,-106.366 223.585,-99.4683"/>
<text text-anchor="middle" x="265" y="-116" font-family="Helvetica,sans-Serif" font-size="10.00"> Name</text>
</g>
<!-- Node11 -->
<g id="node20" class="node"><title>Node11</title>
<a xlink:title="STL class. ">
<polygon fill="white" stroke="#bfbfbf" points="0.5,-79 0.5,-113 95.5,-113 95.5,-79 0.5,-79"/>
<text text-anchor="start" x="8.5" y="-100" font-family="Helvetica,sans-Serif" font-size="10.00">std::basic_string&lt;</text>
<text text-anchor="middle" x="48" y="-87" font-family="Helvetica,sans-Serif" font-size="10.00"> char &gt;</text>
</a>
</g>
<!-- Node11&#45;&gt;Node10 -->
<g id="edge20" class="edge"><title>Node11&#45;&gt;Node10</title>
<path fill="none" stroke="midnightblue" d="M106.01,-96C122.079,-96 138.879,-96 152.671,-96"/>
<polygon fill="midnightblue" stroke="midnightblue" points="105.596,-92.5001 95.5959,-96 105.596,-99.5001 105.596,-92.5001"/>
</g>
<!-- Node12 -->
<g id="node22" class="node"><title>Node12</title>
<polygon fill="white" stroke="#bfbfbf" points="516.5,-52 516.5,-86 637.5,-86 637.5,-52 516.5,-52"/>
<text text-anchor="start" x="524.5" y="-73" font-family="Helvetica,sans-Serif" font-size="10.00">std::vector&lt; std::shared</text>
<text text-anchor="middle" x="577" y="-60" font-family="Helvetica,sans-Serif" font-size="10.00">_ptr&lt; FitParticle &gt; &gt;</text>
</g>
<!-- Node12&#45;&gt;Node4 -->
<g id="edge22" class="edge"><title>Node12&#45;&gt;Node4</title>
<path fill="none" stroke="#9a32cd" stroke-dasharray="5,2" d="M647.684,-85.9526C688.434,-95.726 738.599,-107.758 774.813,-116.443"/>
<polygon fill="#9a32cd" stroke="#9a32cd" points="648.35,-82.5131 637.809,-83.5843 646.717,-89.3201 648.35,-82.5131"/>
<text text-anchor="middle" x="688" y="-105" font-family="Helvetica,sans-Serif" font-size="10.00"> Photons</text>
</g>
<!-- Node13 -->
<g id="node24" class="node"><title>Node13</title>
<a xlink:href="classant_1_1analysis_1_1_prompt_random_1_1_switch.html" target="_top" xlink:title="ant::analysis::PromptRandom\l::Switch">
<polygon fill="white" stroke="black" points="750,-59 750,-93 896,-93 896,-59 750,-59"/>
<text text-anchor="start" x="758" y="-80" font-family="Helvetica,sans-Serif" font-size="10.00">ant::analysis::PromptRandom</text>
<text text-anchor="middle" x="823" y="-67" font-family="Helvetica,sans-Serif" font-size="10.00">::Switch</text>
</a>
</g>
<!-- Node13&#45;&gt;Node1 -->
<g id="edge24" class="edge"><title>Node13&#45;&gt;Node1</title>
<path fill="none" stroke="#9a32cd" stroke-dasharray="5,2" d="M906.39,-78.052C936.576,-79.3591 970.886,-81.4984 1002,-85 1007.83,-85.6564 1013.9,-86.4838 1019.94,-87.4017"/>
<polygon fill="#9a32cd" stroke="#9a32cd" points="906.456,-74.5519 896.322,-77.6399 906.17,-81.546 906.456,-74.5519"/>
<text text-anchor="middle" x="969" y="-89" font-family="Helvetica,sans-Serif" font-size="10.00"> promptrandom</text>
</g>
<!-- Node14 -->
<g id="node26" class="node"><title>Node14</title>
<polygon fill="white" stroke="#bfbfbf" points="728,-4 728,-38 918,-38 918,-4 728,-4"/>
<text text-anchor="start" x="736" y="-25" font-family="Helvetica,sans-Serif" font-size="10.00">std::vector&lt; ant::analysis</text>
<text text-anchor="middle" x="823" y="-12" font-family="Helvetica,sans-Serif" font-size="10.00">::physics::PID_Energy::PerChannel_t &gt;</text>
</g>
<!-- Node14&#45;&gt;Node1 -->
<g id="edge26" class="edge"><title>Node14&#45;&gt;Node1</title>
<path fill="none" stroke="#9a32cd" stroke-dasharray="5,2" d="M922.329,-40.3723C948.555,-46.5511 976.616,-54.131 1002,-63 1016.09,-67.9219 1031.07,-74.6943 1043.84,-80.9712"/>
<polygon fill="#9a32cd" stroke="#9a32cd" points="922.907,-36.9139 912.376,-38.073 921.332,-43.7342 922.907,-36.9139"/>
<text text-anchor="middle" x="969" y="-67" font-family="Helvetica,sans-Serif" font-size="10.00"> h_perChannel</text>
</g>
<!-- Node15 -->
<g id="node28" class="node"><title>Node15</title>
<a xlink:href="structant_1_1analysis_1_1physics_1_1_p_i_d___energy_1_1_per_channel__t.html" target="_top" xlink:title="ant::analysis::physics\l::PID_Energy::PerChannel_t">
<polygon fill="white" stroke="black" points="506.5,-0 506.5,-34 647.5,-34 647.5,-0 506.5,-0"/>
<text text-anchor="start" x="514.5" y="-21" font-family="Helvetica,sans-Serif" font-size="10.00">ant::analysis::physics</text>
<text text-anchor="middle" x="577" y="-8" font-family="Helvetica,sans-Serif" font-size="10.00">::PID_Energy::PerChannel_t</text>
</a>
</g>
<!-- Node15&#45;&gt;Node14 -->
<g id="edge28" class="edge"><title>Node15&#45;&gt;Node14</title>
<path fill="none" stroke="#9a32cd" stroke-dasharray="5,2" d="M657.951,-18.3163C680.344,-18.6804 704.851,-19.0789 727.967,-19.4547"/>
<polygon fill="#9a32cd" stroke="#9a32cd" points="657.879,-14.8147 647.823,-18.1516 657.765,-21.8138 657.879,-14.8147"/>
<text text-anchor="middle" x="688" y="-24" font-family="Helvetica,sans-Serif" font-size="10.00"> elements</text>
</g>
</g>
</svg>
