<?xml version="1.0" encoding="UTF-8" standalone="no"?>
<!DOCTYPE svg PUBLIC "-//W3C//DTD SVG 1.1//EN"
 "http://www.w3.org/Graphics/SVG/1.1/DTD/svg11.dtd">
<!-- Generated by graphviz version 2.26.3 (20100126.1600)
 -->
<!-- Title: ant::UnpackerA2GeantConfig Pages: 1 -->
<svg width="648pt" height="302pt"
 viewBox="0.00 0.00 648.00 302.00" xmlns="http://www.w3.org/2000/svg" xmlns:xlink="http://www.w3.org/1999/xlink">
<g id="graph1" class="graph" transform="scale(1 1) rotate(0) translate(4 298)">
<title>ant::UnpackerA2GeantConfig</title>
<polygon fill="white" stroke="white" points="-4,5 -4,-298 645,-298 645,5 -4,5"/>
<!-- Node1 -->
<g id="node1" class="node"><title>Node1</title>
<polygon fill="#bfbfbf" stroke="black" points="0.5,-110.5 0.5,-131.5 145.5,-131.5 145.5,-110.5 0.5,-110.5"/>
<text text-anchor="middle" x="73" y="-118.5" font-family="Helvetica,sans-Serif" font-size="10.00">ant::UnpackerA2GeantConfig</text>
</g>
<!-- Node2 -->
<g id="node3" class="node"><title>Node2</title>
<a xlink:href="classant_1_1expconfig_1_1_setup.html" target="_top" xlink:title="The Setup class serves as a base class for all known beamtime setup configurations. ">
<polygon fill="white" stroke="black" points="182,-110.5 182,-131.5 292,-131.5 292,-110.5 182,-110.5"/>
<text text-anchor="middle" x="237" y="-118.5" font-family="Helvetica,sans-Serif" font-size="10.00">ant::expconfig::Setup</text>
</a>
</g>
<!-- Node1&#45;&gt;Node2 -->
<g id="edge2" class="edge"><title>Node1&#45;&gt;Node2</title>
<path fill="none" stroke="midnightblue" d="M156.032,-121C164.688,-121 173.328,-121 181.566,-121"/>
<polygon fill="midnightblue" stroke="midnightblue" points="155.888,-117.5 145.888,-121 155.888,-124.5 155.888,-117.5"/>
</g>
<!-- Node3 -->
<g id="node5" class="node"><title>Node3</title>
<a xlink:href="classant_1_1expconfig_1_1setup_1_1_setup__2007___base.html" target="_top" xlink:title="Common base class for all Setups of the 2014 Ent Point Tagger beam times. ">
<polygon fill="white" stroke="black" points="342,-208 342,-242 450,-242 450,-208 342,-208"/>
<text text-anchor="start" x="350" y="-229" font-family="Helvetica,sans-Serif" font-size="10.00">ant::expconfig::setup</text>
<text text-anchor="middle" x="396" y="-216" font-family="Helvetica,sans-Serif" font-size="10.00">::Setup_2007_Base</text>
</a>
</g>
<!-- Node2&#45;&gt;Node3 -->
<g id="edge4" class="edge"><title>Node2&#45;&gt;Node3</title>
<path fill="none" stroke="midnightblue" d="M254.149,-138.92C271.46,-156.186 299.625,-182.11 328,-199 333.43,-202.232 339.333,-205.194 345.317,-207.867"/>
<polygon fill="midnightblue" stroke="midnightblue" points="256.508,-136.327 246.997,-131.659 251.521,-141.239 256.508,-136.327"/>
</g>
<!-- Node6 -->
<g id="node11" class="node"><title>Node6</title>
<a xlink:href="classant_1_1expconfig_1_1setup_1_1_setup__2012__12___compton.html" target="_top" xlink:title="ant::expconfig::setup\l::Setup_2012_12_Compton">
<polygon fill="white" stroke="black" points="328.5,-156 328.5,-190 463.5,-190 463.5,-156 328.5,-156"/>
<text text-anchor="start" x="336.5" y="-177" font-family="Helvetica,sans-Serif" font-size="10.00">ant::expconfig::setup</text>
<text text-anchor="middle" x="396" y="-164" font-family="Helvetica,sans-Serif" font-size="10.00">::Setup_2012_12_Compton</text>
</a>
</g>
<!-- Node2&#45;&gt;Node6 -->
<g id="edge10" class="edge"><title>Node2&#45;&gt;Node6</title>
<path fill="none" stroke="midnightblue" d="M278.879,-134.696C298.781,-141.205 322.77,-149.051 343.841,-155.942"/>
<polygon fill="midnightblue" stroke="midnightblue" points="279.769,-131.305 269.176,-131.523 277.593,-137.958 279.769,-131.305"/>
</g>
<!-- Node7 -->
<g id="node13" class="node"><title>Node7</title>
<a xlink:href="classant_1_1expconfig_1_1setup_1_1_setup__2014___e_p_t.html" target="_top" xlink:title="Common base class for all Setups of the 2014 Ent Point Tagger beam times. ">
<polygon fill="white" stroke="black" points="342,-104 342,-138 450,-138 450,-104 342,-104"/>
<text text-anchor="start" x="350" y="-125" font-family="Helvetica,sans-Serif" font-size="10.00">ant::expconfig::setup</text>
<text text-anchor="middle" x="396" y="-112" font-family="Helvetica,sans-Serif" font-size="10.00">::Setup_2014_EPT</text>
</a>
</g>
<!-- Node2&#45;&gt;Node7 -->
<g id="edge12" class="edge"><title>Node2&#45;&gt;Node7</title>
<path fill="none" stroke="midnightblue" d="M302.492,-121C315.543,-121 329.115,-121 341.739,-121"/>
<polygon fill="midnightblue" stroke="midnightblue" points="302.164,-117.5 292.164,-121 302.164,-124.5 302.164,-117.5"/>
</g>
<!-- Node11 -->
<g id="node21" class="node"><title>Node11</title>
<a xlink:href="classant_1_1expconfig_1_1setup_1_1_setup__2015__01___pion.html" target="_top" xlink:title="Ant Setup for Rare Pion Test Beamtime in January 2015 &amp; MC studies. ">
<polygon fill="white" stroke="black" points="338.5,-52 338.5,-86 453.5,-86 453.5,-52 338.5,-52"/>
<text text-anchor="start" x="346.5" y="-73" font-family="Helvetica,sans-Serif" font-size="10.00">ant::expconfig::setup</text>
<text text-anchor="middle" x="396" y="-60" font-family="Helvetica,sans-Serif" font-size="10.00">::Setup_2015_01_Pion</text>
</a>
</g>
<!-- Node2&#45;&gt;Node11 -->
<g id="edge20" class="edge"><title>Node2&#45;&gt;Node11</title>
<path fill="none" stroke="midnightblue" d="M278.879,-107.304C298.781,-100.795 322.77,-92.9495 343.841,-86.0582"/>
<polygon fill="midnightblue" stroke="midnightblue" points="277.593,-104.042 269.176,-110.477 279.769,-110.695 277.593,-104.042"/>
</g>
<!-- Node12 -->
<g id="node23" class="node"><title>Node12</title>
<a xlink:href="classant_1_1expconfig_1_1setup_1_1_setup___c_b_source_calib.html" target="_top" xlink:title="ant::expconfig::setup\l::Setup_CBSourceCalib">
<polygon fill="white" stroke="black" points="335.5,-0 335.5,-34 456.5,-34 456.5,-0 335.5,-0"/>
<text text-anchor="start" x="343.5" y="-21" font-family="Helvetica,sans-Serif" font-size="10.00">ant::expconfig::setup</text>
<text text-anchor="middle" x="396" y="-8" font-family="Helvetica,sans-Serif" font-size="10.00">::Setup_CBSourceCalib</text>
</a>
</g>
<!-- Node2&#45;&gt;Node12 -->
<g id="edge22" class="edge"><title>Node2&#45;&gt;Node12</title>
<path fill="none" stroke="midnightblue" d="M254.149,-103.08C271.46,-85.8135 299.625,-59.89 328,-43 333.43,-39.7676 339.333,-36.8061 345.317,-34.1329"/>
<polygon fill="midnightblue" stroke="midnightblue" points="251.521,-100.761 246.997,-110.341 256.508,-105.673 251.521,-100.761"/>
</g>
<!-- Node4 -->
<g id="node7" class="node"><title>Node4</title>
<a xlink:href="classant_1_1expconfig_1_1setup_1_1_setup__2007__06.html" target="_top" xlink:title="Ant Setup for the Juni 2007 beam time. ">
<polygon fill="white" stroke="black" points="516,-260 516,-294 624,-294 624,-260 516,-260"/>
<text text-anchor="start" x="524" y="-281" font-family="Helvetica,sans-Serif" font-size="10.00">ant::expconfig::setup</text>
<text text-anchor="middle" x="570" y="-268" font-family="Helvetica,sans-Serif" font-size="10.00">::Setup_2007_06</text>
</a>
</g>
<!-- Node3&#45;&gt;Node4 -->
<g id="edge6" class="edge"><title>Node3&#45;&gt;Node4</title>
<path fill="none" stroke="midnightblue" d="M459.862,-244.085C478.274,-249.588 498.177,-255.536 515.933,-260.842"/>
<polygon fill="midnightblue" stroke="midnightblue" points="460.684,-240.678 450.101,-241.168 458.68,-247.385 460.684,-240.678"/>
</g>
<!-- Node5 -->
<g id="node9" class="node"><title>Node5</title>
<a xlink:href="classant_1_1expconfig_1_1setup_1_1_setup__2007__07.html" target="_top" xlink:title="Ant Setup for the July 2007 beam time. ">
<polygon fill="white" stroke="black" points="516,-208 516,-242 624,-242 624,-208 516,-208"/>
<text text-anchor="start" x="524" y="-229" font-family="Helvetica,sans-Serif" font-size="10.00">ant::expconfig::setup</text>
<text text-anchor="middle" x="570" y="-216" font-family="Helvetica,sans-Serif" font-size="10.00">::Setup_2007_07</text>
</a>
</g>
<!-- Node3&#45;&gt;Node5 -->
<g id="edge8" class="edge"><title>Node3&#45;&gt;Node5</title>
<path fill="none" stroke="midnightblue" d="M460.117,-225C478.458,-225 498.259,-225 515.933,-225"/>
<polygon fill="midnightblue" stroke="midnightblue" points="460.101,-221.5 450.101,-225 460.101,-228.5 460.101,-221.5"/>
</g>
<!-- Node8 -->
<g id="node15" class="node"><title>Node8</title>
<a xlink:href="classant_1_1expconfig_1_1setup_1_1_setup__2014__07___e_p_t___prod.html" target="_top" xlink:title="Ant Setup for the July 2014 End Point Tagger beam time. ">
<polygon fill="white" stroke="black" points="500,-156 500,-190 640,-190 640,-156 500,-156"/>
<text text-anchor="start" x="508" y="-177" font-family="Helvetica,sans-Serif" font-size="10.00">ant::expconfig::setup</text>
<text text-anchor="middle" x="570" y="-164" font-family="Helvetica,sans-Serif" font-size="10.00">::Setup_2014_07_EPT_Prod</text>
</a>
</g>
<!-- Node7&#45;&gt;Node8 -->
<g id="edge14" class="edge"><title>Node7&#45;&gt;Node8</title>
<path fill="none" stroke="midnightblue" d="M460.117,-140.161C477.422,-145.333 496.028,-150.894 512.92,-155.942"/>
<polygon fill="midnightblue" stroke="midnightblue" points="460.684,-136.678 450.101,-137.168 458.68,-143.385 460.684,-136.678"/>
</g>
<!-- Node9 -->
<g id="node17" class="node"><title>Node9</title>
<a xlink:href="classant_1_1expconfig_1_1setup_1_1_setup__2014__10___e_p_t___prod.html" target="_top" xlink:title="Ant Setup for the October 2014 End Point Tagger beam time. ">
<polygon fill="white" stroke="black" points="500,-104 500,-138 640,-138 640,-104 500,-104"/>
<text text-anchor="start" x="508" y="-125" font-family="Helvetica,sans-Serif" font-size="10.00">ant::expconfig::setup</text>
<text text-anchor="middle" x="570" y="-112" font-family="Helvetica,sans-Serif" font-size="10.00">::Setup_2014_10_EPT_Prod</text>
</a>
</g>
<!-- Node7&#45;&gt;Node9 -->
<g id="edge16" class="edge"><title>Node7&#45;&gt;Node9</title>
<path fill="none" stroke="midnightblue" d="M460.277,-121C473.188,-121 486.816,-121 499.913,-121"/>
<polygon fill="midnightblue" stroke="midnightblue" points="460.101,-117.5 450.101,-121 460.101,-124.5 460.101,-117.5"/>
</g>
<!-- Node10 -->
<g id="node19" class="node"><title>Node10</title>
<a xlink:href="classant_1_1expconfig_1_1setup_1_1_setup__2014__12___e_p_t___prod.html" target="_top" xlink:title="Ant Setup for the December 2014 End Point Tagger beam time. ">
<polygon fill="white" stroke="black" points="500,-52 500,-86 640,-86 640,-52 500,-52"/>
<text text-anchor="start" x="508" y="-73" font-family="Helvetica,sans-Serif" font-size="10.00">ant::expconfig::setup</text>
<text text-anchor="middle" x="570" y="-60" font-family="Helvetica,sans-Serif" font-size="10.00">::Setup_2014_12_EPT_Prod</text>
</a>
</g>
<!-- Node7&#45;&gt;Node10 -->
<g id="edge18" class="edge"><title>Node7&#45;&gt;Node10</title>
<path fill="none" stroke="midnightblue" d="M460.117,-101.839C477.422,-96.6668 496.028,-91.1065 512.92,-86.0582"/>
<polygon fill="midnightblue" stroke="midnightblue" points="458.68,-98.615 450.101,-104.832 460.684,-105.322 458.68,-98.615"/>
</g>
</g>
</svg>
