<?xml version="1.0" encoding="UTF-8" standalone="no"?>
<!DOCTYPE svg PUBLIC "-//W3C//DTD SVG 1.1//EN"
 "http://www.w3.org/Graphics/SVG/1.1/DTD/svg11.dtd">
<!-- Generated by graphviz version 2.26.3 (20100126.1600)
 -->
<!-- Title: ant::calibration::gui::KnobsTF1::RangeKnob Pages: 1 -->
<svg width="132pt" height="116pt"
 viewBox="0.00 0.00 132.00 116.00" xmlns="http://www.w3.org/2000/svg" xmlns:xlink="http://www.w3.org/1999/xlink">
<g id="graph1" class="graph" transform="scale(1 1) rotate(0) translate(4 112)">
<title>ant::calibration::gui::KnobsTF1::RangeKnob</title>
<polygon fill="white" stroke="white" points="-4,5 -4,-112 129,-112 129,5 -4,5"/>
<!-- Node1 -->
<g id="node1" class="node"><title>Node1</title>
<polygon fill="#bfbfbf" stroke="black" points="-0.5,-1 -0.5,-35 124.5,-35 124.5,-1 -0.5,-1"/>
<text text-anchor="start" x="7.5" y="-22" font-family="Helvetica,sans-Serif" font-size="10.00">ant::calibration::gui</text>
<text text-anchor="middle" x="62" y="-9" font-family="Helvetica,sans-Serif" font-size="10.00">::KnobsTF1::RangeKnob</text>
</g>
<!-- Node2 -->
<g id="node2" class="node"><title>Node2</title>
<a xlink:href="classant_1_1calibration_1_1gui_1_1_indicator_knob.html" target="_top" xlink:title="ant::calibration::gui\l::IndicatorKnob">
<polygon fill="white" stroke="black" points="12.5,-73 12.5,-107 111.5,-107 111.5,-73 12.5,-73"/>
<text text-anchor="start" x="20.5" y="-94" font-family="Helvetica,sans-Serif" font-size="10.00">ant::calibration::gui</text>
<text text-anchor="middle" x="62" y="-81" font-family="Helvetica,sans-Serif" font-size="10.00">::IndicatorKnob</text>
</a>
</g>
<!-- Node2&#45;&gt;Node1 -->
<g id="edge2" class="edge"><title>Node2&#45;&gt;Node1</title>
<path fill="none" stroke="midnightblue" d="M62,-62.7193C62,-53.572 62,-43.6255 62,-35.4407"/>
<polygon fill="midnightblue" stroke="midnightblue" points="58.5001,-62.937 62,-72.937 65.5001,-62.937 58.5001,-62.937"/>
</g>
</g>
</svg>
