<?xml version="1.0" encoding="UTF-8" standalone="no"?>
<!DOCTYPE svg PUBLIC "-//W3C//DTD SVG 1.1//EN"
 "http://www.w3.org/Graphics/SVG/1.1/DTD/svg11.dtd">
<!-- Generated by graphviz version 2.26.3 (20100126.1600)
 -->
<!-- Title: ant::analysis::physics::MesonDalitzDecays Pages: 1 -->
<svg width="1848pt" height="469pt"
 viewBox="0.00 0.00 1848.00 469.00" xmlns="http://www.w3.org/2000/svg" xmlns:xlink="http://www.w3.org/1999/xlink">
<g id="graph1" class="graph" transform="scale(1 1) rotate(0) translate(4 465)">
<title>ant::analysis::physics::MesonDalitzDecays</title>
<polygon fill="white" stroke="white" points="-4,5 -4,-465 1845,-465 1845,5 -4,5"/>
<!-- Node1 -->
<g id="node1" class="node"><title>Node1</title>
<polygon fill="#bfbfbf" stroke="black" points="1728,-181 1728,-215 1840,-215 1840,-181 1728,-181"/>
<text text-anchor="start" x="1736" y="-202" font-family="Helvetica,sans-Serif" font-size="10.00">ant::analysis::physics</text>
<text text-anchor="middle" x="1784" y="-189" font-family="Helvetica,sans-Serif" font-size="10.00">::MesonDalitzDecays</text>
</g>
<!-- Node2 -->
<g id="node2" class="node"><title>Node2</title>
<a xlink:href="classant_1_1analysis_1_1_physics.html" target="_top" xlink:title="ant::analysis::Physics">
<polygon fill="white" stroke="black" points="1480.5,-261.5 1480.5,-282.5 1593.5,-282.5 1593.5,-261.5 1480.5,-261.5"/>
<text text-anchor="middle" x="1537" y="-269.5" font-family="Helvetica,sans-Serif" font-size="10.00">ant::analysis::Physics</text>
</a>
</g>
<!-- Node2&#45;&gt;Node1 -->
<g id="edge2" class="edge"><title>Node2&#45;&gt;Node1</title>
<path fill="none" stroke="midnightblue" d="M1598.38,-259.174C1631.75,-251.596 1673.54,-241.118 1710,-229 1722.03,-225.003 1734.86,-219.93 1746.39,-215.052"/>
<polygon fill="midnightblue" stroke="midnightblue" points="1597.3,-255.829 1588.31,-261.432 1598.83,-262.66 1597.3,-255.829"/>
</g>
<!-- Node3 -->
<g id="node4" class="node"><title>Node3</title>
<a xlink:href="classant_1_1analysis_1_1_histogram_factory.html" target="_top" xlink:title="ant::analysis::Histogram\lFactory">
<polygon fill="white" stroke="black" points="1206.5,-250 1206.5,-284 1329.5,-284 1329.5,-250 1206.5,-250"/>
<text text-anchor="start" x="1214.5" y="-271" font-family="Helvetica,sans-Serif" font-size="10.00">ant::analysis::Histogram</text>
<text text-anchor="middle" x="1268" y="-258" font-family="Helvetica,sans-Serif" font-size="10.00">Factory</text>
</a>
</g>
<!-- Node3&#45;&gt;Node2 -->
<g id="edge4" class="edge"><title>Node3&#45;&gt;Node2</title>
<path fill="none" stroke="#9a32cd" stroke-dasharray="5,2" d="M1339.75,-268.825C1342.54,-268.886 1345.29,-268.945 1348,-269 1392.46,-269.909 1442.8,-270.696 1480.35,-271.236"/>
<polygon fill="#9a32cd" stroke="#9a32cd" points="1339.66,-265.323 1329.58,-268.596 1339.5,-272.321 1339.66,-265.323"/>
<text text-anchor="middle" x="1389" y="-274" font-family="Helvetica,sans-Serif" font-size="10.00"> HistFac</text>
</g>
<!-- Node31 -->
<g id="node65" class="node"><title>Node31</title>
<polygon fill="white" stroke="#bfbfbf" points="1448,-207 1448,-241 1626,-241 1626,-207 1448,-207"/>
<text text-anchor="start" x="1456" y="-228" font-family="Helvetica,sans-Serif" font-size="10.00">std::map&lt; std::string,</text>
<text text-anchor="middle" x="1537" y="-215" font-family="Helvetica,sans-Serif" font-size="10.00"> ant::analysis::HistogramFactory &amp; &gt;</text>
</g>
<!-- Node3&#45;&gt;Node31 -->
<g id="edge74" class="edge"><title>Node3&#45;&gt;Node31</title>
<path fill="none" stroke="#9a32cd" stroke-dasharray="5,2" d="M1339.44,-253.464C1342.33,-252.961 1345.19,-252.471 1348,-252 1380.55,-246.539 1416.35,-241.094 1447.95,-236.476"/>
<polygon fill="#9a32cd" stroke="#9a32cd" points="1338.78,-250.026 1329.54,-255.215 1340,-256.919 1338.78,-250.026"/>
<text text-anchor="middle" x="1389" y="-256" font-family="Helvetica,sans-Serif" font-size="10.00"> elements</text>
</g>
<!-- Node4 -->
<g id="node6" class="node"><title>Node4</title>
<a xlink:href="structant_1_1analysis_1_1physics_1_1_meson_dalitz_decays_1_1_tree__t.html" target="_top" xlink:title="ant::analysis::physics\l::MesonDalitzDecays::Tree_t">
<polygon fill="white" stroke="black" points="1464.5,-117 1464.5,-151 1609.5,-151 1609.5,-117 1464.5,-117"/>
<text text-anchor="start" x="1472.5" y="-138" font-family="Helvetica,sans-Serif" font-size="10.00">ant::analysis::physics</text>
<text text-anchor="middle" x="1537" y="-125" font-family="Helvetica,sans-Serif" font-size="10.00">::MesonDalitzDecays::Tree_t</text>
</a>
</g>
<!-- Node4&#45;&gt;Node1 -->
<g id="edge6" class="edge"><title>Node4&#45;&gt;Node1</title>
<path fill="none" stroke="#9a32cd" stroke-dasharray="5,2" d="M1619.83,-135.026C1648.95,-137.356 1681.51,-142.243 1710,-152 1729.03,-158.518 1748.26,-170.679 1762.35,-180.861"/>
<polygon fill="#9a32cd" stroke="#9a32cd" points="1619.91,-131.523 1609.69,-134.305 1619.41,-138.505 1619.91,-131.523"/>
<text text-anchor="middle" x="1677" y="-156" font-family="Helvetica,sans-Serif" font-size="10.00"> t</text>
</g>
<!-- Node5 -->
<g id="node8" class="node"><title>Node5</title>
<a xlink:href="structant_1_1_wrap_t_tree.html" target="_top" xlink:title="The WrapTTree struct simplifies TTree handling in physics classes. ">
<polygon fill="white" stroke="black" points="1225.5,-119.5 1225.5,-140.5 1310.5,-140.5 1310.5,-119.5 1225.5,-119.5"/>
<text text-anchor="middle" x="1268" y="-127.5" font-family="Helvetica,sans-Serif" font-size="10.00">ant::WrapTTree</text>
</a>
</g>
<!-- Node5&#45;&gt;Node4 -->
<g id="edge8" class="edge"><title>Node5&#45;&gt;Node4</title>
<path fill="none" stroke="midnightblue" d="M1320.68,-130.783C1361.7,-131.393 1419.08,-132.247 1464.44,-132.921"/>
<polygon fill="midnightblue" stroke="midnightblue" points="1320.67,-127.283 1310.62,-130.634 1320.57,-134.282 1320.67,-127.283"/>
</g>
<!-- Node6 -->
<g id="node10" class="node"><title>Node6</title>
<polygon fill="white" stroke="#bfbfbf" points="874,-98 874,-132 1014,-132 1014,-98 874,-98"/>
<text text-anchor="start" x="882" y="-119" font-family="Helvetica,sans-Serif" font-size="10.00">std::vector&lt; ant::WrapTTree</text>
<text text-anchor="middle" x="944" y="-106" font-family="Helvetica,sans-Serif" font-size="10.00">::ROOT_branch_t &gt;</text>
</g>
<!-- Node6&#45;&gt;Node5 -->
<g id="edge10" class="edge"><title>Node6&#45;&gt;Node5</title>
<path fill="none" stroke="#9a32cd" stroke-dasharray="5,2" d="M1024.3,-118.717C1087.84,-121.659 1174.11,-125.653 1225.13,-128.015"/>
<polygon fill="#9a32cd" stroke="#9a32cd" points="1024.45,-115.221 1014.3,-118.255 1024.13,-122.214 1024.45,-115.221"/>
<text text-anchor="middle" x="1110" y="-129" font-family="Helvetica,sans-Serif" font-size="10.00"> branches</text>
</g>
<!-- Node7 -->
<g id="node12" class="node"><title>Node7</title>
<a xlink:href="structant_1_1_wrap_t_tree_1_1_r_o_o_t__branch__t.html" target="_top" xlink:title="ant::WrapTTree::ROOT\l_branch_t">
<polygon fill="white" stroke="black" points="629.5,-94 629.5,-128 748.5,-128 748.5,-94 629.5,-94"/>
<text text-anchor="start" x="637.5" y="-115" font-family="Helvetica,sans-Serif" font-size="10.00">ant::WrapTTree::ROOT</text>
<text text-anchor="middle" x="689" y="-102" font-family="Helvetica,sans-Serif" font-size="10.00">_branch_t</text>
</a>
</g>
<!-- Node7&#45;&gt;Node6 -->
<g id="edge12" class="edge"><title>Node7&#45;&gt;Node6</title>
<path fill="none" stroke="#9a32cd" stroke-dasharray="5,2" d="M759.115,-112.1C794.789,-112.659 838.037,-113.338 873.732,-113.898"/>
<polygon fill="#9a32cd" stroke="#9a32cd" points="758.84,-108.595 748.786,-111.938 758.73,-115.594 758.84,-108.595"/>
<text text-anchor="middle" x="834" y="-117" font-family="Helvetica,sans-Serif" font-size="10.00"> elements</text>
</g>
<!-- Node8 -->
<g id="node14" class="node"><title>Node8</title>
<a xlink:href="structant_1_1_wrap_t_tree_1_1_r_o_o_t__branchinfo__t.html" target="_top" xlink:title="ant::WrapTTree::ROOT\l_branchinfo_t">
<polygon fill="white" stroke="black" points="356.5,-66 356.5,-100 475.5,-100 475.5,-66 356.5,-66"/>
<text text-anchor="start" x="364.5" y="-87" font-family="Helvetica,sans-Serif" font-size="10.00">ant::WrapTTree::ROOT</text>
<text text-anchor="middle" x="416" y="-74" font-family="Helvetica,sans-Serif" font-size="10.00">_branchinfo_t</text>
</a>
</g>
<!-- Node8&#45;&gt;Node7 -->
<g id="edge14" class="edge"><title>Node8&#45;&gt;Node7</title>
<path fill="none" stroke="midnightblue" d="M485.69,-90.1477C530.006,-94.693 586.794,-100.517 629.082,-104.855"/>
<polygon fill="midnightblue" stroke="midnightblue" points="485.879,-86.6488 475.574,-89.1101 485.164,-93.6122 485.879,-86.6488"/>
</g>
<!-- Node9 -->
<g id="node16" class="node"><title>Node9</title>
<a xlink:title="STL class. ">
<polygon fill="white" stroke="#bfbfbf" points="164,-145.5 164,-166.5 224,-166.5 224,-145.5 164,-145.5"/>
<text text-anchor="middle" x="194" y="-153.5" font-family="Helvetica,sans-Serif" font-size="10.00">std::string</text>
</a>
</g>
<!-- Node9&#45;&gt;Node8 -->
<g id="edge16" class="edge"><title>Node9&#45;&gt;Node8</title>
<path fill="none" stroke="#9a32cd" stroke-dasharray="5,2" d="M216.424,-139.468C231.434,-129.184 252.03,-116.527 272,-109 298.743,-98.9196 329.791,-92.6778 356.195,-88.8476"/>
<polygon fill="#9a32cd" stroke="#9a32cd" points="214.019,-136.88 207.855,-145.497 218.048,-142.605 214.019,-136.88"/>
<text text-anchor="middle" x="291" y="-113" font-family="Helvetica,sans-Serif" font-size="10.00"> Name</text>
</g>
<!-- Node16 -->
<g id="node30" class="node"><title>Node16</title>
<a xlink:href="structant_1_1analysis_1_1utils_1_1_kin_fitter_1_1_beam_e__t.html" target="_top" xlink:title="ant::analysis::utils\l::KinFitter::BeamE_t">
<polygon fill="white" stroke="black" points="636,-355 636,-389 742,-389 742,-355 636,-355"/>
<text text-anchor="start" x="644" y="-376" font-family="Helvetica,sans-Serif" font-size="10.00">ant::analysis::utils</text>
<text text-anchor="middle" x="689" y="-363" font-family="Helvetica,sans-Serif" font-size="10.00">::KinFitter::BeamE_t</text>
</a>
</g>
<!-- Node9&#45;&gt;Node16 -->
<g id="edge34" class="edge"><title>Node9&#45;&gt;Node16</title>
<path fill="none" stroke="#9a32cd" stroke-dasharray="5,2" d="M206.34,-174.981C220.104,-194.706 244.134,-225.14 272,-243 333.33,-282.306 537.719,-335.328 635.711,-359.298"/>
<polygon fill="#9a32cd" stroke="#9a32cd" points="209.105,-172.822 200.599,-166.507 203.31,-176.749 209.105,-172.822"/>
<text text-anchor="middle" x="416" y="-327" font-family="Helvetica,sans-Serif" font-size="10.00"> Name</text>
</g>
<!-- Node27 -->
<g id="node54" class="node"><title>Node27</title>
<a xlink:href="structant_1_1analysis_1_1physics_1_1_meson_dalitz_decays_1_1_reaction_channel__t.html" target="_top" xlink:title="ant::analysis::physics\l::MesonDalitzDecays::Reaction\lChannel_t">
<polygon fill="white" stroke="black" points="338,-0.5 338,-47.5 494,-47.5 494,-0.5 338,-0.5"/>
<text text-anchor="start" x="346" y="-34.5" font-family="Helvetica,sans-Serif" font-size="10.00">ant::analysis::physics</text>
<text text-anchor="start" x="346" y="-21.5" font-family="Helvetica,sans-Serif" font-size="10.00">::MesonDalitzDecays::Reaction</text>
<text text-anchor="middle" x="416" y="-8.5" font-family="Helvetica,sans-Serif" font-size="10.00">Channel_t</text>
</a>
</g>
<!-- Node9&#45;&gt;Node27 -->
<g id="edge58" class="edge"><title>Node9&#45;&gt;Node27</title>
<path fill="none" stroke="#9a32cd" stroke-dasharray="5,2" d="M209.758,-137.424C224.517,-120.919 247.865,-96.9975 272,-81 292.506,-67.4078 316.75,-56.2502 339.439,-47.5231"/>
<polygon fill="#9a32cd" stroke="#9a32cd" points="206.818,-135.468 202.864,-145.297 212.085,-140.079 206.818,-135.468"/>
<text text-anchor="middle" x="291" y="-85" font-family="Helvetica,sans-Serif" font-size="10.00"> name</text>
</g>
<!-- Node28 -->
<g id="node57" class="node"><title>Node28</title>
<polygon fill="white" stroke="#bfbfbf" points="596.5,-153.5 596.5,-200.5 781.5,-200.5 781.5,-153.5 596.5,-153.5"/>
<text text-anchor="start" x="604.5" y="-187.5" font-family="Helvetica,sans-Serif" font-size="10.00">std::map&lt; std::string,</text>
<text text-anchor="start" x="604.5" y="-174.5" font-family="Helvetica,sans-Serif" font-size="10.00"> ant::analysis::physics</text>
<text text-anchor="middle" x="689" y="-161.5" font-family="Helvetica,sans-Serif" font-size="10.00">::MesonDalitzDecays::PerChannel_t &gt;</text>
</g>
<!-- Node9&#45;&gt;Node28 -->
<g id="edge62" class="edge"><title>Node9&#45;&gt;Node28</title>
<path fill="none" stroke="#9a32cd" stroke-dasharray="5,2" d="M234.106,-151.844C260.703,-149.301 296.395,-146.295 328,-145 406.157,-141.797 426.064,-138.309 504,-145 534.202,-147.593 566.876,-152.525 596.239,-157.755"/>
<polygon fill="#9a32cd" stroke="#9a32cd" points="233.639,-148.373 224.026,-152.827 234.318,-155.34 233.639,-148.373"/>
<text text-anchor="middle" x="416" y="-149" font-family="Helvetica,sans-Serif" font-size="10.00"> keys</text>
</g>
<!-- Node29 -->
<g id="node60" class="node"><title>Node29</title>
<a xlink:href="structant_1_1analysis_1_1physics_1_1_meson_dalitz_decays_1_1_per_channel__t.html" target="_top" xlink:title="ant::analysis::physics\l::MesonDalitzDecays::PerChannel_t">
<polygon fill="white" stroke="black" points="328,-167 328,-201 504,-201 504,-167 328,-167"/>
<text text-anchor="start" x="336" y="-188" font-family="Helvetica,sans-Serif" font-size="10.00">ant::analysis::physics</text>
<text text-anchor="middle" x="416" y="-175" font-family="Helvetica,sans-Serif" font-size="10.00">::MesonDalitzDecays::PerChannel_t</text>
</a>
</g>
<!-- Node9&#45;&gt;Node29 -->
<g id="edge66" class="edge"><title>Node9&#45;&gt;Node29</title>
<path fill="none" stroke="#9a32cd" stroke-dasharray="5,2" d="M234.626,-161.124C260.64,-164.405 295.43,-168.793 327.582,-172.848"/>
<polygon fill="#9a32cd" stroke="#9a32cd" points="234.762,-157.614 224.403,-159.835 233.886,-164.558 234.762,-157.614"/>
<text text-anchor="middle" x="291" y="-187" font-family="Helvetica,sans-Serif" font-size="10.00"> title</text>
<text text-anchor="middle" x="291" y="-174" font-family="Helvetica,sans-Serif" font-size="10.00">name</text>
</g>
<!-- Node9&#45;&gt;Node31 -->
<g id="edge72" class="edge"><title>Node9&#45;&gt;Node31</title>
<path fill="none" stroke="#9a32cd" stroke-dasharray="5,2" d="M217.691,-172.152C232.653,-181.632 252.736,-193.073 272,-200 295.791,-208.554 302.829,-207.623 328,-210 745.177,-249.391 1246.89,-235.862 1447.63,-227.993"/>
<polygon fill="#9a32cd" stroke="#9a32cd" points="219.381,-169.077 209.09,-166.562 215.567,-174.946 219.381,-169.077"/>
<text text-anchor="middle" x="834" y="-239" font-family="Helvetica,sans-Serif" font-size="10.00"> keys</text>
</g>
<!-- Node10 -->
<g id="node18" class="node"><title>Node10</title>
<a xlink:title="STL class. ">
<polygon fill="white" stroke="#bfbfbf" points="0.5,-139 0.5,-173 95.5,-173 95.5,-139 0.5,-139"/>
<text text-anchor="start" x="8.5" y="-160" font-family="Helvetica,sans-Serif" font-size="10.00">std::basic_string&lt;</text>
<text text-anchor="middle" x="48" y="-147" font-family="Helvetica,sans-Serif" font-size="10.00"> char &gt;</text>
</a>
</g>
<!-- Node10&#45;&gt;Node9 -->
<g id="edge18" class="edge"><title>Node10&#45;&gt;Node9</title>
<path fill="none" stroke="midnightblue" d="M106.012,-156C125.86,-156 147.254,-156 163.975,-156"/>
<polygon fill="midnightblue" stroke="midnightblue" points="105.806,-152.5 95.8059,-156 105.806,-159.5 105.806,-152.5"/>
</g>
<!-- Node11 -->
<g id="node20" class="node"><title>Node11</title>
<a xlink:href="classant_1_1analysis_1_1utils_1_1_tree_fitter.html" target="_top" xlink:title="ant::analysis::utils\l::TreeFitter">
<polygon fill="white" stroke="black" points="1489,-355 1489,-389 1585,-389 1585,-355 1489,-355"/>
<text text-anchor="start" x="1497" y="-376" font-family="Helvetica,sans-Serif" font-size="10.00">ant::analysis::utils</text>
<text text-anchor="middle" x="1537" y="-363" font-family="Helvetica,sans-Serif" font-size="10.00">::TreeFitter</text>
</a>
</g>
<!-- Node11&#45;&gt;Node1 -->
<g id="edge20" class="edge"><title>Node11&#45;&gt;Node1</title>
<path fill="none" stroke="#9a32cd" stroke-dasharray="5,2" d="M1595.51,-370.73C1631.64,-367.249 1677.21,-357.699 1710,-333 1750.14,-302.769 1771.23,-244.133 1779.61,-215.116"/>
<polygon fill="#9a32cd" stroke="#9a32cd" points="1594.78,-367.279 1585.1,-371.593 1595.36,-374.255 1594.78,-367.279"/>
<text text-anchor="middle" x="1677" y="-366" font-family="Helvetica,sans-Serif" font-size="10.00"> treefitter_eta</text>
</g>
<!-- Node12 -->
<g id="node22" class="node"><title>Node12</title>
<a xlink:href="classant_1_1analysis_1_1utils_1_1_kin_fitter.html" target="_top" xlink:title="ant::analysis::utils\l::KinFitter">
<polygon fill="white" stroke="black" points="1220,-302 1220,-336 1316,-336 1316,-302 1220,-302"/>
<text text-anchor="start" x="1228" y="-323" font-family="Helvetica,sans-Serif" font-size="10.00">ant::analysis::utils</text>
<text text-anchor="middle" x="1268" y="-310" font-family="Helvetica,sans-Serif" font-size="10.00">::KinFitter</text>
</a>
</g>
<!-- Node12&#45;&gt;Node1 -->
<g id="edge50" class="edge"><title>Node12&#45;&gt;Node1</title>
<path fill="none" stroke="#9a32cd" stroke-dasharray="5,2" d="M1326.32,-321.107C1398.09,-322.227 1523.09,-319.36 1626,-292 1680.6,-277.485 1735.23,-238.105 1763.75,-215.183"/>
<polygon fill="#9a32cd" stroke="#9a32cd" points="1326.19,-317.604 1316.12,-320.915 1326.06,-324.603 1326.19,-317.604"/>
<text text-anchor="middle" x="1537" y="-322" font-family="Helvetica,sans-Serif" font-size="10.00"> kinfit</text>
</g>
<!-- Node12&#45;&gt;Node11 -->
<g id="edge22" class="edge"><title>Node12&#45;&gt;Node11</title>
<path fill="none" stroke="midnightblue" d="M1326.15,-330.457C1374.77,-340.036 1443.29,-353.536 1488.87,-362.517"/>
<polygon fill="midnightblue" stroke="midnightblue" points="1326.58,-326.975 1316.09,-328.475 1325.23,-333.842 1326.58,-326.975"/>
</g>
<!-- Node13 -->
<g id="node24" class="node"><title>Node13</title>
<a xlink:href="classant_1_1analysis_1_1utils_1_1_fitter.html" target="_top" xlink:title="ant::analysis::utils\l::Fitter">
<polygon fill="white" stroke="black" points="896,-302 896,-336 992,-336 992,-302 896,-302"/>
<text text-anchor="start" x="904" y="-323" font-family="Helvetica,sans-Serif" font-size="10.00">ant::analysis::utils</text>
<text text-anchor="middle" x="944" y="-310" font-family="Helvetica,sans-Serif" font-size="10.00">::Fitter</text>
</a>
</g>
<!-- Node13&#45;&gt;Node12 -->
<g id="edge24" class="edge"><title>Node13&#45;&gt;Node12</title>
<path fill="none" stroke="midnightblue" d="M1002.2,-319C1064.38,-319 1161.82,-319 1219.84,-319"/>
<polygon fill="midnightblue" stroke="midnightblue" points="1002.16,-315.5 992.156,-319 1002.16,-322.5 1002.16,-315.5"/>
</g>
<!-- Node14 -->
<g id="node26" class="node"><title>Node14</title>
<polygon fill="white" stroke="#bfbfbf" points="619,-308.5 619,-329.5 759,-329.5 759,-308.5 619,-308.5"/>
<text text-anchor="middle" x="689" y="-316.5" font-family="Helvetica,sans-Serif" font-size="10.00">std::unique_ptr&lt; APLCON &gt;</text>
</g>
<!-- Node14&#45;&gt;Node13 -->
<g id="edge26" class="edge"><title>Node14&#45;&gt;Node13</title>
<path fill="none" stroke="#9a32cd" stroke-dasharray="5,2" d="M769.141,-319C810.765,-319 860.238,-319 895.92,-319"/>
<polygon fill="#9a32cd" stroke="#9a32cd" points="769.017,-315.5 759.017,-319 769.017,-322.5 769.017,-315.5"/>
<text text-anchor="middle" x="834" y="-323" font-family="Helvetica,sans-Serif" font-size="10.00"> aplcon</text>
</g>
<!-- Node15 -->
<g id="node28" class="node"><title>Node15</title>
<polygon fill="white" stroke="#bfbfbf" points="881.5,-354.5 881.5,-401.5 1006.5,-401.5 1006.5,-354.5 881.5,-354.5"/>
<text text-anchor="start" x="889.5" y="-388.5" font-family="Helvetica,sans-Serif" font-size="10.00">std::unique_ptr&lt; ant</text>
<text text-anchor="start" x="889.5" y="-375.5" font-family="Helvetica,sans-Serif" font-size="10.00">::analysis::utils::KinFitter</text>
<text text-anchor="middle" x="944" y="-362.5" font-family="Helvetica,sans-Serif" font-size="10.00">::BeamE_t &gt;</text>
</g>
<!-- Node15&#45;&gt;Node12 -->
<g id="edge28" class="edge"><title>Node15&#45;&gt;Node12</title>
<path fill="none" stroke="#9a32cd" stroke-dasharray="5,2" d="M1016.96,-364.713C1078.96,-353.423 1166.2,-337.537 1219.82,-327.773"/>
<polygon fill="#9a32cd" stroke="#9a32cd" points="1016.07,-361.319 1006.85,-366.554 1017.32,-368.206 1016.07,-361.319"/>
<text text-anchor="middle" x="1110" y="-364" font-family="Helvetica,sans-Serif" font-size="10.00"> BeamE</text>
</g>
<!-- Node16&#45;&gt;Node15 -->
<g id="edge30" class="edge"><title>Node16&#45;&gt;Node15</title>
<path fill="none" stroke="#9a32cd" stroke-dasharray="5,2" d="M752.176,-373.487C791.611,-374.414 842.168,-375.604 881.478,-376.529"/>
<polygon fill="#9a32cd" stroke="#9a32cd" points="752.226,-369.987 742.146,-373.25 752.061,-376.985 752.226,-369.987"/>
<text text-anchor="middle" x="834" y="-379" font-family="Helvetica,sans-Serif" font-size="10.00"> ptr</text>
</g>
<!-- Node17 -->
<g id="node32" class="node"><title>Node17</title>
<a xlink:href="structant_1_1analysis_1_1utils_1_1_fitter_1_1_fit_variable.html" target="_top" xlink:title="ant::analysis::utils\l::Fitter::FitVariable">
<polygon fill="white" stroke="black" points="367,-355 367,-389 465,-389 465,-355 367,-355"/>
<text text-anchor="start" x="375" y="-376" font-family="Helvetica,sans-Serif" font-size="10.00">ant::analysis::utils</text>
<text text-anchor="middle" x="416" y="-363" font-family="Helvetica,sans-Serif" font-size="10.00">::Fitter::FitVariable</text>
</a>
</g>
<!-- Node17&#45;&gt;Node16 -->
<g id="edge32" class="edge"><title>Node17&#45;&gt;Node16</title>
<path fill="none" stroke="midnightblue" d="M475.31,-372C523.038,-372 589.523,-372 635.605,-372"/>
<polygon fill="midnightblue" stroke="midnightblue" points="475.122,-368.5 465.122,-372 475.122,-375.5 475.122,-368.5"/>
</g>
<!-- Node18 -->
<g id="node35" class="node"><title>Node18</title>
<polygon fill="white" stroke="#bfbfbf" points="883.5,-250 883.5,-284 1004.5,-284 1004.5,-250 883.5,-250"/>
<text text-anchor="start" x="891.5" y="-271" font-family="Helvetica,sans-Serif" font-size="10.00">std::vector&lt; std::shared</text>
<text text-anchor="middle" x="944" y="-258" font-family="Helvetica,sans-Serif" font-size="10.00">_ptr&lt; FitParticle &gt; &gt;</text>
</g>
<!-- Node18&#45;&gt;Node12 -->
<g id="edge36" class="edge"><title>Node18&#45;&gt;Node12</title>
<path fill="none" stroke="#9a32cd" stroke-dasharray="5,2" d="M1014.74,-275.874C1063.55,-282.309 1129.88,-291.668 1188,-302 1198.35,-303.839 1209.39,-306.035 1219.88,-308.229"/>
<polygon fill="#9a32cd" stroke="#9a32cd" points="1014.96,-272.374 1004.59,-274.546 1014.06,-279.315 1014.96,-272.374"/>
<text text-anchor="middle" x="1110" y="-306" font-family="Helvetica,sans-Serif" font-size="10.00"> Photons</text>
</g>
<!-- Node19 -->
<g id="node37" class="node"><title>Node19</title>
<polygon fill="white" stroke="#bfbfbf" points="1215,-406.5 1215,-427.5 1321,-427.5 1321,-406.5 1215,-406.5"/>
<text text-anchor="middle" x="1268" y="-414.5" font-family="Helvetica,sans-Serif" font-size="10.00">std::vector&lt; tree_t &gt;</text>
</g>
<!-- Node19&#45;&gt;Node11 -->
<g id="edge38" class="edge"><title>Node19&#45;&gt;Node11</title>
<path fill="none" stroke="#9a32cd" stroke-dasharray="5,2" d="M1331.24,-407.716C1361.21,-403.194 1397.49,-397.546 1430,-392 1449.28,-388.711 1470.46,-384.813 1488.85,-381.335"/>
<polygon fill="#9a32cd" stroke="#9a32cd" points="1330.7,-404.257 1321.33,-409.204 1331.74,-411.179 1330.7,-404.257"/>
<text text-anchor="middle" x="1389" y="-408" font-family="Helvetica,sans-Serif" font-size="10.00"> tree_leaves</text>
</g>
<!-- Node20 -->
<g id="node39" class="node"><title>Node20</title>
<polygon fill="white" stroke="#bfbfbf" points="1213,-366.5 1213,-387.5 1323,-387.5 1323,-366.5 1213,-366.5"/>
<text text-anchor="middle" x="1268" y="-374.5" font-family="Helvetica,sans-Serif" font-size="10.00">std::list&lt; iteration_t &gt;</text>
</g>
<!-- Node20&#45;&gt;Node11 -->
<g id="edge40" class="edge"><title>Node20&#45;&gt;Node11</title>
<path fill="none" stroke="#9a32cd" stroke-dasharray="5,2" d="M1333.37,-375.785C1381.32,-374.894 1445.38,-373.703 1488.75,-372.897"/>
<polygon fill="#9a32cd" stroke="#9a32cd" points="1333.02,-372.291 1323.09,-375.976 1333.15,-379.29 1333.02,-372.291"/>
<text text-anchor="middle" x="1389" y="-379" font-family="Helvetica,sans-Serif" font-size="10.00"> iterations</text>
</g>
<!-- Node21 -->
<g id="node41" class="node"><title>Node21</title>
<a xlink:href="structant_1_1analysis_1_1utils_1_1_tree_fitter_1_1iteration__t.html" target="_top" xlink:title="ant::analysis::utils\l::TreeFitter::iteration_t">
<polygon fill="white" stroke="black" points="887.5,-420 887.5,-454 1000.5,-454 1000.5,-420 887.5,-420"/>
<text text-anchor="start" x="895.5" y="-441" font-family="Helvetica,sans-Serif" font-size="10.00">ant::analysis::utils</text>
<text text-anchor="middle" x="944" y="-428" font-family="Helvetica,sans-Serif" font-size="10.00">::TreeFitter::iteration_t</text>
</a>
</g>
<!-- Node21&#45;&gt;Node20 -->
<g id="edge42" class="edge"><title>Node21&#45;&gt;Node20</title>
<path fill="none" stroke="#9a32cd" stroke-dasharray="5,2" d="M1010.89,-424.612C1070.62,-413.552 1157.05,-397.547 1212.88,-387.207"/>
<polygon fill="#9a32cd" stroke="#9a32cd" points="1010,-421.218 1000.81,-426.48 1011.28,-428.101 1010,-421.218"/>
<text text-anchor="middle" x="1110" y="-423" font-family="Helvetica,sans-Serif" font-size="10.00"> elements</text>
</g>
<!-- Node22 -->
<g id="node43" class="node"><title>Node22</title>
<polygon fill="white" stroke="#bfbfbf" points="624.5,-413.5 624.5,-460.5 753.5,-460.5 753.5,-413.5 624.5,-413.5"/>
<text text-anchor="start" x="632.5" y="-447.5" font-family="Helvetica,sans-Serif" font-size="10.00">std::vector&lt; ant::analysis</text>
<text text-anchor="start" x="632.5" y="-434.5" font-family="Helvetica,sans-Serif" font-size="10.00">::utils::TreeFitter::iteration</text>
<text text-anchor="middle" x="689" y="-421.5" font-family="Helvetica,sans-Serif" font-size="10.00">_t::particle_t &gt;</text>
</g>
<!-- Node22&#45;&gt;Node21 -->
<g id="edge44" class="edge"><title>Node22&#45;&gt;Node21</title>
<path fill="none" stroke="#9a32cd" stroke-dasharray="5,2" d="M763.778,-437C803.217,-437 850.826,-437 887.205,-437"/>
<polygon fill="#9a32cd" stroke="#9a32cd" points="763.677,-433.5 753.677,-437 763.677,-440.5 763.677,-433.5"/>
<text text-anchor="middle" x="834" y="-441" font-family="Helvetica,sans-Serif" font-size="10.00"> Particles</text>
</g>
<!-- Node23 -->
<g id="node45" class="node"><title>Node23</title>
<a xlink:href="structant_1_1analysis_1_1utils_1_1_tree_fitter_1_1iteration__t_1_1particle__t.html" target="_top" xlink:title="ant::analysis::utils\l::TreeFitter::iteration\l_t::particle_t">
<polygon fill="white" stroke="black" points="363.5,-413.5 363.5,-460.5 468.5,-460.5 468.5,-413.5 363.5,-413.5"/>
<text text-anchor="start" x="371.5" y="-447.5" font-family="Helvetica,sans-Serif" font-size="10.00">ant::analysis::utils</text>
<text text-anchor="start" x="371.5" y="-434.5" font-family="Helvetica,sans-Serif" font-size="10.00">::TreeFitter::iteration</text>
<text text-anchor="middle" x="416" y="-421.5" font-family="Helvetica,sans-Serif" font-size="10.00">_t::particle_t</text>
</a>
</g>
<!-- Node23&#45;&gt;Node22 -->
<g id="edge46" class="edge"><title>Node23&#45;&gt;Node22</title>
<path fill="none" stroke="#9a32cd" stroke-dasharray="5,2" d="M478.844,-437C522.494,-437 580.49,-437 624.497,-437"/>
<polygon fill="#9a32cd" stroke="#9a32cd" points="478.637,-433.5 468.637,-437 478.637,-440.5 478.637,-433.5"/>
<text text-anchor="middle" x="544" y="-441" font-family="Helvetica,sans-Serif" font-size="10.00"> elements</text>
</g>
<!-- Node24 -->
<g id="node47" class="node"><title>Node24</title>
<a xlink:href="structant_1_1std__ext_1_1cc__shared__ptr.html" target="_top" xlink:title="ant::std_ext::cc_shared\l_ptr\&lt; TParticle \&gt;">
<polygon fill="white" stroke="black" points="134.5,-420 134.5,-454 253.5,-454 253.5,-420 134.5,-420"/>
<text text-anchor="start" x="142.5" y="-441" font-family="Helvetica,sans-Serif" font-size="10.00">ant::std_ext::cc_shared</text>
<text text-anchor="middle" x="194" y="-428" font-family="Helvetica,sans-Serif" font-size="10.00">_ptr&lt; TParticle &gt;</text>
</a>
</g>
<!-- Node24&#45;&gt;Node23 -->
<g id="edge48" class="edge"><title>Node24&#45;&gt;Node23</title>
<path fill="none" stroke="#9a32cd" stroke-dasharray="5,2" d="M264.013,-437C296.145,-437 333.608,-437 363.3,-437"/>
<polygon fill="#9a32cd" stroke="#9a32cd" points="263.784,-433.5 253.784,-437 263.784,-440.5 263.784,-433.5"/>
<text text-anchor="middle" x="291" y="-441" font-family="Helvetica,sans-Serif" font-size="10.00"> Particle</text>
</g>
<!-- Node25 -->
<g id="node50" class="node"><title>Node25</title>
<a xlink:href="structant_1_1analysis_1_1physics_1_1_meson_dalitz_decays_1_1_reaction_channel_list__t.html" target="_top" xlink:title="ant::analysis::physics\l::MesonDalitzDecays::Reaction\lChannelList_t">
<polygon fill="white" stroke="black" points="1032,-47.5 1032,-94.5 1188,-94.5 1188,-47.5 1032,-47.5"/>
<text text-anchor="start" x="1040" y="-81.5" font-family="Helvetica,sans-Serif" font-size="10.00">ant::analysis::physics</text>
<text text-anchor="start" x="1040" y="-68.5" font-family="Helvetica,sans-Serif" font-size="10.00">::MesonDalitzDecays::Reaction</text>
<text text-anchor="middle" x="1110" y="-55.5" font-family="Helvetica,sans-Serif" font-size="10.00">ChannelList_t</text>
</a>
</g>
<!-- Node25&#45;&gt;Node1 -->
<g id="edge52" class="edge"><title>Node25&#45;&gt;Node1</title>
<path fill="none" stroke="#9a32cd" stroke-dasharray="5,2" d="M1198.1,-71.5068C1301.41,-73.4369 1477.43,-80.8992 1626,-108 1664.32,-114.99 1675.91,-114.155 1710,-133 1732.75,-145.575 1754.57,-166.132 1768.55,-180.76"/>
<polygon fill="#9a32cd" stroke="#9a32cd" points="1198.09,-68.0061 1188.03,-71.3319 1197.96,-75.005 1198.09,-68.0061"/>
<text text-anchor="middle" x="1389" y="-87" font-family="Helvetica,sans-Serif" font-size="10.00"> reaction_channels</text>
</g>
<!-- Node26 -->
<g id="node52" class="node"><title>Node26</title>
<polygon fill="white" stroke="#bfbfbf" points="584.5,-6.5 584.5,-53.5 793.5,-53.5 793.5,-6.5 584.5,-6.5"/>
<text text-anchor="start" x="592.5" y="-40.5" font-family="Helvetica,sans-Serif" font-size="10.00">std::map&lt; unsigned,</text>
<text text-anchor="start" x="592.5" y="-27.5" font-family="Helvetica,sans-Serif" font-size="10.00"> ant::analysis::physics</text>
<text text-anchor="middle" x="689" y="-14.5" font-family="Helvetica,sans-Serif" font-size="10.00">::MesonDalitzDecays::ReactionChannel_t &gt;</text>
</g>
<!-- Node26&#45;&gt;Node25 -->
<g id="edge54" class="edge"><title>Node26&#45;&gt;Node25</title>
<path fill="none" stroke="#9a32cd" stroke-dasharray="5,2" d="M803.69,-41.1693C876.074,-48.2186 967.672,-57.1391 1031.77,-63.381"/>
<polygon fill="#9a32cd" stroke="#9a32cd" points="803.901,-37.6734 793.608,-40.1875 803.222,-44.6404 803.901,-37.6734"/>
<text text-anchor="middle" x="834" y="-51" font-family="Helvetica,sans-Serif" font-size="10.00"> channels</text>
</g>
<!-- Node27&#45;&gt;Node26 -->
<g id="edge56" class="edge"><title>Node27&#45;&gt;Node26</title>
<path fill="none" stroke="#9a32cd" stroke-dasharray="5,2" d="M504.247,-25.9395C529.767,-26.5004 557.87,-27.118 584.29,-27.6987"/>
<polygon fill="#9a32cd" stroke="#9a32cd" points="504.305,-22.44 494.231,-25.7194 504.151,-29.4383 504.305,-22.44"/>
<text text-anchor="middle" x="544" y="-32" font-family="Helvetica,sans-Serif" font-size="10.00"> elements</text>
</g>
<!-- Node28&#45;&gt;Node1 -->
<g id="edge60" class="edge"><title>Node28&#45;&gt;Node1</title>
<path fill="none" stroke="#9a32cd" stroke-dasharray="5,2" d="M791.74,-178.173C838.235,-178.609 893.886,-179 944,-179 944,-179 944,-179 1537,-179 1602.59,-179 1677.69,-185.742 1727.69,-191.194"/>
<polygon fill="#9a32cd" stroke="#9a32cd" points="791.692,-174.672 781.659,-178.076 791.625,-181.672 791.692,-174.672"/>
<text text-anchor="middle" x="1268" y="-183" font-family="Helvetica,sans-Serif" font-size="10.00"> channels</text>
</g>
<!-- Node29&#45;&gt;Node28 -->
<g id="edge64" class="edge"><title>Node29&#45;&gt;Node28</title>
<path fill="none" stroke="#9a32cd" stroke-dasharray="5,2" d="M514.387,-181.477C541.111,-180.792 569.953,-180.052 596.348,-179.376"/>
<polygon fill="#9a32cd" stroke="#9a32cd" points="514.165,-177.982 504.258,-181.737 514.345,-184.979 514.165,-177.982"/>
<text text-anchor="middle" x="544" y="-185" font-family="Helvetica,sans-Serif" font-size="10.00"> elements</text>
</g>
<!-- Node30 -->
<g id="node63" class="node"><title>Node30</title>
<a xlink:href="classant_1_1analysis_1_1_prompt_random_1_1_switch.html" target="_top" xlink:title="ant::analysis::PromptRandom\l::Switch">
<polygon fill="white" stroke="black" points="1464,-27 1464,-61 1610,-61 1610,-27 1464,-27"/>
<text text-anchor="start" x="1472" y="-48" font-family="Helvetica,sans-Serif" font-size="10.00">ant::analysis::PromptRandom</text>
<text text-anchor="middle" x="1537" y="-35" font-family="Helvetica,sans-Serif" font-size="10.00">::Switch</text>
</a>
</g>
<!-- Node30&#45;&gt;Node1 -->
<g id="edge68" class="edge"><title>Node30&#45;&gt;Node1</title>
<path fill="none" stroke="#9a32cd" stroke-dasharray="5,2" d="M1620.51,-37.1011C1650.86,-38.4225 1684.04,-44.6917 1710,-62 1752.27,-90.1837 1772.46,-150.88 1780.13,-180.721"/>
<polygon fill="#9a32cd" stroke="#9a32cd" points="1620.43,-33.5978 1610.34,-36.8338 1620.24,-40.5954 1620.43,-33.5978"/>
<text text-anchor="middle" x="1677" y="-66" font-family="Helvetica,sans-Serif" font-size="10.00"> promptrandom</text>
</g>
<!-- Node31&#45;&gt;Node1 -->
<g id="edge70" class="edge"><title>Node31&#45;&gt;Node1</title>
<path fill="none" stroke="#9a32cd" stroke-dasharray="5,2" d="M1636.23,-213.555C1667.47,-210.267 1700.86,-206.751 1727.99,-203.896"/>
<polygon fill="#9a32cd" stroke="#9a32cd" points="1635.75,-210.086 1626.17,-214.613 1636.48,-217.047 1635.75,-210.086"/>
<text text-anchor="middle" x="1677" y="-216" font-family="Helvetica,sans-Serif" font-size="10.00"> productions</text>
</g>
</g>
</svg>
