<?xml version="1.0" encoding="UTF-8" standalone="no"?>
<!DOCTYPE svg PUBLIC "-//W3C//DTD SVG 1.1//EN"
 "http://www.w3.org/Graphics/SVG/1.1/DTD/svg11.dtd">
<!-- Generated by graphviz version 2.26.3 (20100126.1600)
 -->
<!-- Title: ant::analysis::input::AntReader Pages: 1 -->
<svg width="494pt" height="146pt"
 viewBox="0.00 0.00 494.00 146.00" xmlns="http://www.w3.org/2000/svg" xmlns:xlink="http://www.w3.org/1999/xlink">
<g id="graph1" class="graph" transform="scale(1 1) rotate(0) translate(4 142)">
<title>ant::analysis::input::AntReader</title>
<polygon fill="white" stroke="white" points="-4,5 -4,-142 491,-142 491,5 -4,5"/>
<!-- Node1 -->
<g id="node1" class="node"><title>Node1</title>
<polygon fill="#bfbfbf" stroke="black" points="386.5,-52 386.5,-86 485.5,-86 485.5,-52 386.5,-52"/>
<text text-anchor="start" x="394.5" y="-73" font-family="Helvetica,sans-Serif" font-size="10.00">ant::analysis::input</text>
<text text-anchor="middle" x="436" y="-60" font-family="Helvetica,sans-Serif" font-size="10.00">::AntReader</text>
</g>
<!-- Node2 -->
<g id="node2" class="node"><title>Node2</title>
<a xlink:href="classant_1_1analysis_1_1input_1_1_data_reader.html" target="_top" xlink:title="Abstract base class for data input modules. ">
<polygon fill="white" stroke="black" points="191.5,-104 191.5,-138 290.5,-138 290.5,-104 191.5,-104"/>
<text text-anchor="start" x="199.5" y="-125" font-family="Helvetica,sans-Serif" font-size="10.00">ant::analysis::input</text>
<text text-anchor="middle" x="241" y="-112" font-family="Helvetica,sans-Serif" font-size="10.00">::DataReader</text>
</a>
</g>
<!-- Node2&#45;&gt;Node1 -->
<g id="edge2" class="edge"><title>Node2&#45;&gt;Node1</title>
<path fill="none" stroke="midnightblue" d="M300.593,-105.109C328.053,-97.7859 360.264,-89.1962 386.379,-82.2321"/>
<polygon fill="midnightblue" stroke="midnightblue" points="299.472,-101.785 290.711,-107.744 301.275,-108.549 299.472,-101.785"/>
</g>
<!-- Node3 -->
<g id="node4" class="node"><title>Node3</title>
<polygon fill="white" stroke="#bfbfbf" points="185,-52 185,-86 297,-86 297,-52 185,-52"/>
<text text-anchor="start" x="193" y="-73" font-family="Helvetica,sans-Serif" font-size="10.00">std::unique_ptr&lt; ant</text>
<text text-anchor="middle" x="241" y="-60" font-family="Helvetica,sans-Serif" font-size="10.00">::Reconstruct_traits &gt;</text>
</g>
<!-- Node3&#45;&gt;Node1 -->
<g id="edge4" class="edge"><title>Node3&#45;&gt;Node1</title>
<path fill="none" stroke="#9a32cd" stroke-dasharray="5,2" d="M307.242,-69C333.092,-69 362.221,-69 386.227,-69"/>
<polygon fill="#9a32cd" stroke="#9a32cd" points="307.14,-65.5001 297.14,-69 307.14,-72.5001 307.14,-65.5001"/>
<text text-anchor="middle" x="342" y="-73" font-family="Helvetica,sans-Serif" font-size="10.00"> reconstruct</text>
</g>
<!-- Node4 -->
<g id="node6" class="node"><title>Node4</title>
<a xlink:href="structant_1_1_reconstruct__traits.html" target="_top" xlink:title="ant::Reconstruct_traits">
<polygon fill="white" stroke="black" points="8,-58.5 8,-79.5 124,-79.5 124,-58.5 8,-58.5"/>
<text text-anchor="middle" x="66" y="-66.5" font-family="Helvetica,sans-Serif" font-size="10.00">ant::Reconstruct_traits</text>
</a>
</g>
<!-- Node4&#45;&gt;Node3 -->
<g id="edge6" class="edge"><title>Node4&#45;&gt;Node3</title>
<path fill="none" stroke="#9a32cd" stroke-dasharray="5,2" d="M134.492,-69C151.142,-69 168.756,-69 184.764,-69"/>
<polygon fill="#9a32cd" stroke="#9a32cd" points="134.273,-65.5001 124.272,-69 134.272,-72.5001 134.273,-65.5001"/>
<text text-anchor="middle" x="158" y="-73" font-family="Helvetica,sans-Serif" font-size="10.00"> ptr</text>
</g>
<!-- Node5 -->
<g id="node8" class="node"><title>Node5</title>
<polygon fill="white" stroke="#bfbfbf" points="184.5,-0 184.5,-34 297.5,-34 297.5,-0 184.5,-0"/>
<text text-anchor="start" x="192.5" y="-21" font-family="Helvetica,sans-Serif" font-size="10.00">std::unique_ptr&lt; detail</text>
<text text-anchor="middle" x="241" y="-8" font-family="Helvetica,sans-Serif" font-size="10.00">::AntReaderInternal &gt;</text>
</g>
<!-- Node5&#45;&gt;Node1 -->
<g id="edge8" class="edge"><title>Node5&#45;&gt;Node1</title>
<path fill="none" stroke="#9a32cd" stroke-dasharray="5,2" d="M307.413,-34.7102C333.314,-41.617 362.483,-49.3956 386.485,-55.796"/>
<polygon fill="#9a32cd" stroke="#9a32cd" points="308.228,-31.3053 297.664,-32.1104 306.425,-38.0689 308.228,-31.3053"/>
<text text-anchor="middle" x="342" y="-54" font-family="Helvetica,sans-Serif" font-size="10.00"> reader</text>
</g>
<!-- Node6 -->
<g id="node10" class="node"><title>Node6</title>
<a xlink:href="structant_1_1analysis_1_1input_1_1detail_1_1_ant_reader_internal.html" target="_top" xlink:title="ant::analysis::input\l::detail::AntReaderInternal">
<polygon fill="white" stroke="black" points="0.5,-0 0.5,-34 131.5,-34 131.5,-0 0.5,-0"/>
<text text-anchor="start" x="8.5" y="-21" font-family="Helvetica,sans-Serif" font-size="10.00">ant::analysis::input</text>
<text text-anchor="middle" x="66" y="-8" font-family="Helvetica,sans-Serif" font-size="10.00">::detail::AntReaderInternal</text>
</a>
</g>
<!-- Node6&#45;&gt;Node5 -->
<g id="edge10" class="edge"><title>Node6&#45;&gt;Node5</title>
<path fill="none" stroke="#9a32cd" stroke-dasharray="5,2" d="M141.952,-17C156.215,-17 170.895,-17 184.44,-17"/>
<polygon fill="#9a32cd" stroke="#9a32cd" points="141.661,-13.5001 131.661,-17 141.661,-20.5001 141.661,-13.5001"/>
<text text-anchor="middle" x="158" y="-21" font-family="Helvetica,sans-Serif" font-size="10.00"> ptr</text>
</g>
</g>
</svg>
