<?xml version="1.0" encoding="UTF-8" standalone="no"?>
<!DOCTYPE svg PUBLIC "-//W3C//DTD SVG 1.1//EN"
 "http://www.w3.org/Graphics/SVG/1.1/DTD/svg11.dtd">
<!-- Generated by graphviz version 2.26.3 (20100126.1600)
 -->
<!-- Title: ant::analysis::physics::PID_TAPSVeto_Kinfit Pages: 1 -->
<svg width="2314pt" height="403pt"
 viewBox="0.00 0.00 2314.00 403.00" xmlns="http://www.w3.org/2000/svg" xmlns:xlink="http://www.w3.org/1999/xlink">
<g id="graph1" class="graph" transform="scale(1 1) rotate(0) translate(4 399)">
<title>ant::analysis::physics::PID_TAPSVeto_Kinfit</title>
<polygon fill="white" stroke="white" points="-4,5 -4,-399 2311,-399 2311,5 -4,5"/>
<!-- Node1 -->
<g id="node1" class="node"><title>Node1</title>
<polygon fill="#bfbfbf" stroke="black" points="2186.5,-322 2186.5,-356 2305.5,-356 2305.5,-322 2186.5,-322"/>
<text text-anchor="start" x="2194.5" y="-343" font-family="Helvetica,sans-Serif" font-size="10.00">ant::analysis::physics</text>
<text text-anchor="middle" x="2246" y="-330" font-family="Helvetica,sans-Serif" font-size="10.00">::PID_TAPSVeto_Kinfit</text>
</g>
<!-- Node2 -->
<g id="node2" class="node"><title>Node2</title>
<a xlink:href="classant_1_1analysis_1_1_physics.html" target="_top" xlink:title="ant::analysis::Physics">
<polygon fill="white" stroke="black" points="1554.5,-363.5 1554.5,-384.5 1667.5,-384.5 1667.5,-363.5 1554.5,-363.5"/>
<text text-anchor="middle" x="1611" y="-371.5" font-family="Helvetica,sans-Serif" font-size="10.00">ant::analysis::Physics</text>
</a>
</g>
<!-- Node2&#45;&gt;Node1 -->
<g id="edge2" class="edge"><title>Node2&#45;&gt;Node1</title>
<path fill="none" stroke="midnightblue" d="M1677.63,-370.632C1782.13,-365.299 1990.94,-354.443 2168,-344 2173.96,-343.648 2180.18,-343.27 2186.38,-342.884"/>
<polygon fill="midnightblue" stroke="midnightblue" points="1677.35,-367.141 1667.54,-371.146 1677.71,-374.132 1677.35,-367.141"/>
</g>
<!-- Node3 -->
<g id="node4" class="node"><title>Node3</title>
<a xlink:href="classant_1_1analysis_1_1_histogram_factory.html" target="_top" xlink:title="ant::analysis::Histogram\lFactory">
<polygon fill="white" stroke="black" points="1179.5,-361 1179.5,-395 1302.5,-395 1302.5,-361 1179.5,-361"/>
<text text-anchor="start" x="1187.5" y="-382" font-family="Helvetica,sans-Serif" font-size="10.00">ant::analysis::Histogram</text>
<text text-anchor="middle" x="1241" y="-369" font-family="Helvetica,sans-Serif" font-size="10.00">Factory</text>
</a>
</g>
<!-- Node3&#45;&gt;Node2 -->
<g id="edge4" class="edge"><title>Node3&#45;&gt;Node2</title>
<path fill="none" stroke="#9a32cd" stroke-dasharray="5,2" d="M1312.64,-377.225C1383.13,-376.463 1489.35,-375.315 1554.2,-374.614"/>
<polygon fill="#9a32cd" stroke="#9a32cd" points="1312.47,-373.727 1302.51,-377.335 1312.55,-380.727 1312.47,-373.727"/>
<text text-anchor="middle" x="1365" y="-380" font-family="Helvetica,sans-Serif" font-size="10.00"> HistFac</text>
</g>
<!-- Node6 -->
<g id="node10" class="node"><title>Node6</title>
<a xlink:href="structant_1_1analysis_1_1physics_1_1_p_i_d___t_a_p_s_veto___kinfit_1_1_multi_pi0.html" target="_top" xlink:title="ant::analysis::physics\l::PID_TAPSVeto_Kinfit\l::MultiPi0">
<polygon fill="white" stroke="black" points="1416.5,-243.5 1416.5,-290.5 1535.5,-290.5 1535.5,-243.5 1416.5,-243.5"/>
<text text-anchor="start" x="1424.5" y="-277.5" font-family="Helvetica,sans-Serif" font-size="10.00">ant::analysis::physics</text>
<text text-anchor="start" x="1424.5" y="-264.5" font-family="Helvetica,sans-Serif" font-size="10.00">::PID_TAPSVeto_Kinfit</text>
<text text-anchor="middle" x="1476" y="-251.5" font-family="Helvetica,sans-Serif" font-size="10.00">::MultiPi0</text>
</a>
</g>
<!-- Node3&#45;&gt;Node6 -->
<g id="edge50" class="edge"><title>Node3&#45;&gt;Node6</title>
<path fill="none" stroke="#9a32cd" stroke-dasharray="5,2" d="M1301.17,-357.229C1305.53,-355.52 1309.85,-353.769 1314,-352 1322.23,-348.493 1323.81,-346.589 1332,-343 1360.73,-330.414 1370.04,-332.222 1398,-318 1413.43,-310.151 1429.59,-299.953 1443.17,-290.742"/>
<polygon fill="#9a32cd" stroke="#9a32cd" points="1299.67,-354.055 1291.57,-360.89 1302.17,-360.595 1299.67,-354.055"/>
<text text-anchor="middle" x="1365" y="-347" font-family="Helvetica,sans-Serif" font-size="10.00"> HistFac</text>
</g>
<!-- Node4 -->
<g id="node6" class="node"><title>Node4</title>
<polygon fill="white" stroke="#bfbfbf" points="1930.5,-282.5 1930.5,-329.5 2109.5,-329.5 2109.5,-282.5 1930.5,-282.5"/>
<text text-anchor="start" x="1938.5" y="-316.5" font-family="Helvetica,sans-Serif" font-size="10.00">std::vector&lt; std::unique</text>
<text text-anchor="start" x="1938.5" y="-303.5" font-family="Helvetica,sans-Serif" font-size="10.00">_ptr&lt; ant::analysis::physics</text>
<text text-anchor="middle" x="2020" y="-290.5" font-family="Helvetica,sans-Serif" font-size="10.00">::PID_TAPSVeto_Kinfit::MultiPi0 &gt; &gt;</text>
</g>
<!-- Node4&#45;&gt;Node1 -->
<g id="edge6" class="edge"><title>Node4&#45;&gt;Node1</title>
<path fill="none" stroke="#9a32cd" stroke-dasharray="5,2" d="M2119.68,-320.555C2142.41,-323.874 2165.88,-327.301 2186.32,-330.286"/>
<polygon fill="#9a32cd" stroke="#9a32cd" points="2120.05,-317.072 2109.65,-319.09 2119.04,-323.998 2120.05,-317.072"/>
<text text-anchor="middle" x="2148" y="-331" font-family="Helvetica,sans-Serif" font-size="10.00"> multiPi0</text>
</g>
<!-- Node5 -->
<g id="node8" class="node"><title>Node5</title>
<polygon fill="white" stroke="#bfbfbf" points="1686,-279.5 1686,-326.5 1850,-326.5 1850,-279.5 1686,-279.5"/>
<text text-anchor="start" x="1694" y="-313.5" font-family="Helvetica,sans-Serif" font-size="10.00">std::unique_ptr&lt; ant</text>
<text text-anchor="start" x="1694" y="-300.5" font-family="Helvetica,sans-Serif" font-size="10.00">::analysis::physics::</text>
<text text-anchor="middle" x="1768" y="-287.5" font-family="Helvetica,sans-Serif" font-size="10.00">PID_TAPSVeto_Kinfit::MultiPi0 &gt;</text>
</g>
<!-- Node5&#45;&gt;Node4 -->
<g id="edge8" class="edge"><title>Node5&#45;&gt;Node4</title>
<path fill="none" stroke="#9a32cd" stroke-dasharray="5,2" d="M1860.18,-304.097C1882.99,-304.369 1907.41,-304.66 1930.11,-304.93"/>
<polygon fill="#9a32cd" stroke="#9a32cd" points="1860.21,-300.598 1850.17,-303.978 1860.12,-307.597 1860.21,-300.598"/>
<text text-anchor="middle" x="1890" y="-308" font-family="Helvetica,sans-Serif" font-size="10.00"> elements</text>
</g>
<!-- Node6&#45;&gt;Node5 -->
<g id="edge10" class="edge"><title>Node6&#45;&gt;Node5</title>
<path fill="none" stroke="#9a32cd" stroke-dasharray="5,2" d="M1545.95,-275.624C1588.02,-280.811 1641.79,-287.439 1685.87,-292.874"/>
<polygon fill="#9a32cd" stroke="#9a32cd" points="1546.15,-272.122 1535.8,-274.372 1545.29,-279.069 1546.15,-272.122"/>
<text text-anchor="middle" x="1611" y="-294" font-family="Helvetica,sans-Serif" font-size="10.00"> ptr</text>
</g>
<!-- Node7 -->
<g id="node12" class="node"><title>Node7</title>
<polygon fill="white" stroke="#bfbfbf" points="1168,-243.5 1168,-290.5 1314,-290.5 1314,-243.5 1168,-243.5"/>
<text text-anchor="start" x="1176" y="-277.5" font-family="Helvetica,sans-Serif" font-size="10.00">std::vector&lt; std::pair</text>
<text text-anchor="start" x="1176" y="-264.5" font-family="Helvetica,sans-Serif" font-size="10.00">&lt; utils::TreeFitter::tree</text>
<text text-anchor="middle" x="1241" y="-251.5" font-family="Helvetica,sans-Serif" font-size="10.00">_t, utils::TreeFitter::tree_t &gt; &gt;</text>
</g>
<!-- Node7&#45;&gt;Node6 -->
<g id="edge12" class="edge"><title>Node7&#45;&gt;Node6</title>
<path fill="none" stroke="#9a32cd" stroke-dasharray="5,2" d="M1324.24,-267C1354.65,-267 1388.42,-267 1416.37,-267"/>
<polygon fill="#9a32cd" stroke="#9a32cd" points="1324.07,-263.5 1314.07,-267 1324.07,-270.5 1324.07,-263.5"/>
<text text-anchor="middle" x="1365" y="-271" font-family="Helvetica,sans-Serif" font-size="10.00"> pions</text>
</g>
<!-- Node8 -->
<g id="node14" class="node"><title>Node8</title>
<a xlink:href="classant_1_1analysis_1_1utils_1_1_tree_fitter.html" target="_top" xlink:title="ant::analysis::utils\l::TreeFitter">
<polygon fill="white" stroke="black" points="1193,-76 1193,-110 1289,-110 1289,-76 1193,-76"/>
<text text-anchor="start" x="1201" y="-97" font-family="Helvetica,sans-Serif" font-size="10.00">ant::analysis::utils</text>
<text text-anchor="middle" x="1241" y="-84" font-family="Helvetica,sans-Serif" font-size="10.00">::TreeFitter</text>
</a>
</g>
<!-- Node8&#45;&gt;Node6 -->
<g id="edge14" class="edge"><title>Node8&#45;&gt;Node6</title>
<path fill="none" stroke="#9a32cd" stroke-dasharray="5,2" d="M1299.25,-90.5374C1331.09,-91.9826 1369.69,-98.5806 1398,-119 1440.28,-149.501 1461.62,-209.992 1470.59,-243.421"/>
<polygon fill="#9a32cd" stroke="#9a32cd" points="1299.27,-87.0366 1289.17,-90.2383 1299.06,-94.0335 1299.27,-87.0366"/>
<text text-anchor="middle" x="1365" y="-123" font-family="Helvetica,sans-Serif" font-size="10.00"> treefitter</text>
</g>
<!-- Node9 -->
<g id="node16" class="node"><title>Node9</title>
<a xlink:href="classant_1_1analysis_1_1utils_1_1_kin_fitter.html" target="_top" xlink:title="ant::analysis::utils\l::KinFitter">
<polygon fill="white" stroke="black" points="975,-125 975,-159 1071,-159 1071,-125 975,-125"/>
<text text-anchor="start" x="983" y="-146" font-family="Helvetica,sans-Serif" font-size="10.00">ant::analysis::utils</text>
<text text-anchor="middle" x="1023" y="-133" font-family="Helvetica,sans-Serif" font-size="10.00">::KinFitter</text>
</a>
</g>
<!-- Node9&#45;&gt;Node6 -->
<g id="edge46" class="edge"><title>Node9&#45;&gt;Node6</title>
<path fill="none" stroke="#9a32cd" stroke-dasharray="5,2" d="M1081.14,-135.345C1141.15,-130.584 1236.64,-128.953 1314,-155 1368.76,-173.439 1421.82,-216.343 1451.56,-243.375"/>
<polygon fill="#9a32cd" stroke="#9a32cd" points="1080.76,-131.865 1071.09,-136.198 1081.35,-138.839 1080.76,-131.865"/>
<text text-anchor="middle" x="1241" y="-159" font-family="Helvetica,sans-Serif" font-size="10.00"> fitter</text>
</g>
<!-- Node9&#45;&gt;Node8 -->
<g id="edge16" class="edge"><title>Node9&#45;&gt;Node8</title>
<path fill="none" stroke="midnightblue" d="M1081.14,-128.931C1115.96,-121.104 1159.71,-111.271 1192.64,-103.871"/>
<polygon fill="midnightblue" stroke="midnightblue" points="1080.1,-125.578 1071.11,-131.186 1081.64,-132.408 1080.1,-125.578"/>
</g>
<!-- Node10 -->
<g id="node18" class="node"><title>Node10</title>
<a xlink:href="classant_1_1analysis_1_1utils_1_1_fitter.html" target="_top" xlink:title="ant::analysis::utils\l::Fitter">
<polygon fill="white" stroke="black" points="770,-125 770,-159 866,-159 866,-125 770,-125"/>
<text text-anchor="start" x="778" y="-146" font-family="Helvetica,sans-Serif" font-size="10.00">ant::analysis::utils</text>
<text text-anchor="middle" x="818" y="-133" font-family="Helvetica,sans-Serif" font-size="10.00">::Fitter</text>
</a>
</g>
<!-- Node10&#45;&gt;Node9 -->
<g id="edge18" class="edge"><title>Node10&#45;&gt;Node9</title>
<path fill="none" stroke="midnightblue" d="M876.353,-142C907.521,-142 945.421,-142 974.883,-142"/>
<polygon fill="midnightblue" stroke="midnightblue" points="876.063,-138.5 866.063,-142 876.063,-145.5 876.063,-138.5"/>
</g>
<!-- Node11 -->
<g id="node20" class="node"><title>Node11</title>
<polygon fill="white" stroke="#bfbfbf" points="528,-131.5 528,-152.5 668,-152.5 668,-131.5 528,-131.5"/>
<text text-anchor="middle" x="598" y="-139.5" font-family="Helvetica,sans-Serif" font-size="10.00">std::unique_ptr&lt; APLCON &gt;</text>
</g>
<!-- Node11&#45;&gt;Node10 -->
<g id="edge20" class="edge"><title>Node11&#45;&gt;Node10</title>
<path fill="none" stroke="#9a32cd" stroke-dasharray="5,2" d="M678.487,-142C709.198,-142 743.224,-142 769.983,-142"/>
<polygon fill="#9a32cd" stroke="#9a32cd" points="678.214,-138.5 668.214,-142 678.214,-145.5 678.214,-138.5"/>
<text text-anchor="middle" x="708" y="-146" font-family="Helvetica,sans-Serif" font-size="10.00"> aplcon</text>
</g>
<!-- Node12 -->
<g id="node22" class="node"><title>Node12</title>
<polygon fill="white" stroke="#bfbfbf" points="755.5,-59.5 755.5,-106.5 880.5,-106.5 880.5,-59.5 755.5,-59.5"/>
<text text-anchor="start" x="763.5" y="-93.5" font-family="Helvetica,sans-Serif" font-size="10.00">std::unique_ptr&lt; ant</text>
<text text-anchor="start" x="763.5" y="-80.5" font-family="Helvetica,sans-Serif" font-size="10.00">::analysis::utils::KinFitter</text>
<text text-anchor="middle" x="818" y="-67.5" font-family="Helvetica,sans-Serif" font-size="10.00">::BeamE_t &gt;</text>
</g>
<!-- Node12&#45;&gt;Node9 -->
<g id="edge22" class="edge"><title>Node12&#45;&gt;Node9</title>
<path fill="none" stroke="#9a32cd" stroke-dasharray="5,2" d="M890.363,-103.827C918.339,-111.878 949.602,-120.876 974.746,-128.112"/>
<polygon fill="#9a32cd" stroke="#9a32cd" points="891.199,-100.425 880.621,-101.023 889.263,-107.152 891.199,-100.425"/>
<text text-anchor="middle" x="928" y="-124" font-family="Helvetica,sans-Serif" font-size="10.00"> BeamE</text>
</g>
<!-- Node13 -->
<g id="node24" class="node"><title>Node13</title>
<a xlink:href="structant_1_1analysis_1_1utils_1_1_kin_fitter_1_1_beam_e__t.html" target="_top" xlink:title="ant::analysis::utils\l::KinFitter::BeamE_t">
<polygon fill="white" stroke="black" points="545,-69 545,-103 651,-103 651,-69 545,-69"/>
<text text-anchor="start" x="553" y="-90" font-family="Helvetica,sans-Serif" font-size="10.00">ant::analysis::utils</text>
<text text-anchor="middle" x="598" y="-77" font-family="Helvetica,sans-Serif" font-size="10.00">::KinFitter::BeamE_t</text>
</a>
</g>
<!-- Node13&#45;&gt;Node12 -->
<g id="edge24" class="edge"><title>Node13&#45;&gt;Node12</title>
<path fill="none" stroke="#9a32cd" stroke-dasharray="5,2" d="M661.46,-85.1346C691.007,-84.7317 726.047,-84.2539 755.476,-83.8526"/>
<polygon fill="#9a32cd" stroke="#9a32cd" points="661.207,-81.6377 651.256,-85.2738 661.303,-88.637 661.207,-81.6377"/>
<text text-anchor="middle" x="708" y="-89" font-family="Helvetica,sans-Serif" font-size="10.00"> ptr</text>
</g>
<!-- Node14 -->
<g id="node26" class="node"><title>Node14</title>
<a xlink:href="structant_1_1analysis_1_1utils_1_1_fitter_1_1_fit_variable.html" target="_top" xlink:title="ant::analysis::utils\l::Fitter::FitVariable">
<polygon fill="white" stroke="black" points="339,-69 339,-103 437,-103 437,-69 339,-69"/>
<text text-anchor="start" x="347" y="-90" font-family="Helvetica,sans-Serif" font-size="10.00">ant::analysis::utils</text>
<text text-anchor="middle" x="388" y="-77" font-family="Helvetica,sans-Serif" font-size="10.00">::Fitter::FitVariable</text>
</a>
</g>
<!-- Node14&#45;&gt;Node13 -->
<g id="edge26" class="edge"><title>Node14&#45;&gt;Node13</title>
<path fill="none" stroke="midnightblue" d="M447.347,-86C477.947,-86 514.971,-86 544.658,-86"/>
<polygon fill="midnightblue" stroke="midnightblue" points="447.236,-82.5001 437.236,-86 447.236,-89.5001 447.236,-82.5001"/>
</g>
<!-- Node15 -->
<g id="node28" class="node"><title>Node15</title>
<a xlink:title="STL class. ">
<polygon fill="white" stroke="#bfbfbf" points="164,-145.5 164,-166.5 224,-166.5 224,-145.5 164,-145.5"/>
<text text-anchor="middle" x="194" y="-153.5" font-family="Helvetica,sans-Serif" font-size="10.00">std::string</text>
</a>
</g>
<!-- Node15&#45;&gt;Node13 -->
<g id="edge28" class="edge"><title>Node15&#45;&gt;Node13</title>
<path fill="none" stroke="#9a32cd" stroke-dasharray="5,2" d="M234.196,-149.038C284.272,-140.365 372.456,-125.09 448,-112 480.162,-106.427 516.202,-100.18 544.894,-95.2064"/>
<polygon fill="#9a32cd" stroke="#9a32cd" points="233.363,-145.63 224.107,-150.786 234.558,-152.528 233.363,-145.63"/>
<text text-anchor="middle" x="388" y="-137" font-family="Helvetica,sans-Serif" font-size="10.00"> Name</text>
</g>
<!-- Node29 -->
<g id="node58" class="node"><title>Node29</title>
<a xlink:href="structant_1_1_wrap_t_tree_1_1_r_o_o_t__branchinfo__t.html" target="_top" xlink:title="ant::WrapTTree::ROOT\l_branchinfo_t">
<polygon fill="white" stroke="black" points="328.5,-171 328.5,-205 447.5,-205 447.5,-171 328.5,-171"/>
<text text-anchor="start" x="336.5" y="-192" font-family="Helvetica,sans-Serif" font-size="10.00">ant::WrapTTree::ROOT</text>
<text text-anchor="middle" x="388" y="-179" font-family="Helvetica,sans-Serif" font-size="10.00">_branchinfo_t</text>
</a>
</g>
<!-- Node15&#45;&gt;Node29 -->
<g id="edge62" class="edge"><title>Node15&#45;&gt;Node29</title>
<path fill="none" stroke="#9a32cd" stroke-dasharray="5,2" d="M234.239,-162.637C261.391,-167.116 297.696,-173.105 328.211,-178.138"/>
<polygon fill="#9a32cd" stroke="#9a32cd" points="234.749,-159.174 224.312,-161 233.61,-166.081 234.749,-159.174"/>
<text text-anchor="middle" x="291" y="-179" font-family="Helvetica,sans-Serif" font-size="10.00"> Name</text>
</g>
<!-- Node16 -->
<g id="node30" class="node"><title>Node16</title>
<a xlink:title="STL class. ">
<polygon fill="white" stroke="#bfbfbf" points="0.5,-139 0.5,-173 95.5,-173 95.5,-139 0.5,-139"/>
<text text-anchor="start" x="8.5" y="-160" font-family="Helvetica,sans-Serif" font-size="10.00">std::basic_string&lt;</text>
<text text-anchor="middle" x="48" y="-147" font-family="Helvetica,sans-Serif" font-size="10.00"> char &gt;</text>
</a>
</g>
<!-- Node16&#45;&gt;Node15 -->
<g id="edge30" class="edge"><title>Node16&#45;&gt;Node15</title>
<path fill="none" stroke="midnightblue" d="M106.012,-156C125.86,-156 147.254,-156 163.975,-156"/>
<polygon fill="midnightblue" stroke="midnightblue" points="105.806,-152.5 95.8059,-156 105.806,-159.5 105.806,-152.5"/>
</g>
<!-- Node17 -->
<g id="node32" class="node"><title>Node17</title>
<polygon fill="white" stroke="#bfbfbf" points="757.5,-177 757.5,-211 878.5,-211 878.5,-177 757.5,-177"/>
<text text-anchor="start" x="765.5" y="-198" font-family="Helvetica,sans-Serif" font-size="10.00">std::vector&lt; std::shared</text>
<text text-anchor="middle" x="818" y="-185" font-family="Helvetica,sans-Serif" font-size="10.00">_ptr&lt; FitParticle &gt; &gt;</text>
</g>
<!-- Node17&#45;&gt;Node9 -->
<g id="edge32" class="edge"><title>Node17&#45;&gt;Node9</title>
<path fill="none" stroke="#9a32cd" stroke-dasharray="5,2" d="M888.573,-176.099C917.032,-168.88 949.14,-160.735 974.837,-154.217"/>
<polygon fill="#9a32cd" stroke="#9a32cd" points="887.507,-172.758 878.675,-178.609 889.228,-179.543 887.507,-172.758"/>
<text text-anchor="middle" x="928" y="-176" font-family="Helvetica,sans-Serif" font-size="10.00"> Photons</text>
</g>
<!-- Node18 -->
<g id="node34" class="node"><title>Node18</title>
<polygon fill="white" stroke="#bfbfbf" points="970,-82.5 970,-103.5 1076,-103.5 1076,-82.5 970,-82.5"/>
<text text-anchor="middle" x="1023" y="-90.5" font-family="Helvetica,sans-Serif" font-size="10.00">std::vector&lt; tree_t &gt;</text>
</g>
<!-- Node18&#45;&gt;Node8 -->
<g id="edge34" class="edge"><title>Node18&#45;&gt;Node8</title>
<path fill="none" stroke="#9a32cd" stroke-dasharray="5,2" d="M1086.35,-93C1120.35,-93 1161.59,-93 1192.93,-93"/>
<polygon fill="#9a32cd" stroke="#9a32cd" points="1086.05,-89.5001 1076.05,-93 1086.05,-96.5001 1086.05,-89.5001"/>
<text text-anchor="middle" x="1123" y="-97" font-family="Helvetica,sans-Serif" font-size="10.00"> tree_leaves</text>
</g>
<!-- Node19 -->
<g id="node36" class="node"><title>Node19</title>
<polygon fill="white" stroke="#bfbfbf" points="968,-24.5 968,-45.5 1078,-45.5 1078,-24.5 968,-24.5"/>
<text text-anchor="middle" x="1023" y="-32.5" font-family="Helvetica,sans-Serif" font-size="10.00">std::list&lt; iteration_t &gt;</text>
</g>
<!-- Node19&#45;&gt;Node8 -->
<g id="edge36" class="edge"><title>Node19&#45;&gt;Node8</title>
<path fill="none" stroke="#9a32cd" stroke-dasharray="5,2" d="M1072.28,-48.1114C1108.29,-57.6925 1156.88,-70.6206 1192.67,-80.142"/>
<polygon fill="#9a32cd" stroke="#9a32cd" points="1073.04,-44.6922 1062.48,-45.5034 1071.24,-51.4569 1073.04,-44.6922"/>
<text text-anchor="middle" x="1123" y="-72" font-family="Helvetica,sans-Serif" font-size="10.00"> iterations</text>
</g>
<!-- Node20 -->
<g id="node38" class="node"><title>Node20</title>
<a xlink:href="structant_1_1analysis_1_1utils_1_1_tree_fitter_1_1iteration__t.html" target="_top" xlink:title="ant::analysis::utils\l::TreeFitter::iteration_t">
<polygon fill="white" stroke="black" points="761.5,-7 761.5,-41 874.5,-41 874.5,-7 761.5,-7"/>
<text text-anchor="start" x="769.5" y="-28" font-family="Helvetica,sans-Serif" font-size="10.00">ant::analysis::utils</text>
<text text-anchor="middle" x="818" y="-15" font-family="Helvetica,sans-Serif" font-size="10.00">::TreeFitter::iteration_t</text>
</a>
</g>
<!-- Node20&#45;&gt;Node19 -->
<g id="edge38" class="edge"><title>Node20&#45;&gt;Node19</title>
<path fill="none" stroke="#9a32cd" stroke-dasharray="5,2" d="M884.648,-27.5762C911.497,-29.0169 942.101,-30.6591 967.688,-32.032"/>
<polygon fill="#9a32cd" stroke="#9a32cd" points="884.733,-24.0759 874.56,-27.0349 884.358,-31.0658 884.733,-24.0759"/>
<text text-anchor="middle" x="928" y="-35" font-family="Helvetica,sans-Serif" font-size="10.00"> elements</text>
</g>
<!-- Node21 -->
<g id="node40" class="node"><title>Node21</title>
<polygon fill="white" stroke="#bfbfbf" points="533.5,-0.5 533.5,-47.5 662.5,-47.5 662.5,-0.5 533.5,-0.5"/>
<text text-anchor="start" x="541.5" y="-34.5" font-family="Helvetica,sans-Serif" font-size="10.00">std::vector&lt; ant::analysis</text>
<text text-anchor="start" x="541.5" y="-21.5" font-family="Helvetica,sans-Serif" font-size="10.00">::utils::TreeFitter::iteration</text>
<text text-anchor="middle" x="598" y="-8.5" font-family="Helvetica,sans-Serif" font-size="10.00">_t::particle_t &gt;</text>
</g>
<!-- Node21&#45;&gt;Node20 -->
<g id="edge40" class="edge"><title>Node21&#45;&gt;Node20</title>
<path fill="none" stroke="#9a32cd" stroke-dasharray="5,2" d="M672.613,-24C701.624,-24 734.309,-24 761.331,-24"/>
<polygon fill="#9a32cd" stroke="#9a32cd" points="672.521,-20.5001 662.521,-24 672.521,-27.5001 672.521,-20.5001"/>
<text text-anchor="middle" x="708" y="-28" font-family="Helvetica,sans-Serif" font-size="10.00"> Particles</text>
</g>
<!-- Node22 -->
<g id="node42" class="node"><title>Node22</title>
<a xlink:href="structant_1_1analysis_1_1utils_1_1_tree_fitter_1_1iteration__t_1_1particle__t.html" target="_top" xlink:title="ant::analysis::utils\l::TreeFitter::iteration\l_t::particle_t">
<polygon fill="white" stroke="black" points="335.5,-0.5 335.5,-47.5 440.5,-47.5 440.5,-0.5 335.5,-0.5"/>
<text text-anchor="start" x="343.5" y="-34.5" font-family="Helvetica,sans-Serif" font-size="10.00">ant::analysis::utils</text>
<text text-anchor="start" x="343.5" y="-21.5" font-family="Helvetica,sans-Serif" font-size="10.00">::TreeFitter::iteration</text>
<text text-anchor="middle" x="388" y="-8.5" font-family="Helvetica,sans-Serif" font-size="10.00">_t::particle_t</text>
</a>
</g>
<!-- Node22&#45;&gt;Node21 -->
<g id="edge42" class="edge"><title>Node22&#45;&gt;Node21</title>
<path fill="none" stroke="#9a32cd" stroke-dasharray="5,2" d="M450.844,-24C476.863,-24 507.022,-24 533.239,-24"/>
<polygon fill="#9a32cd" stroke="#9a32cd" points="450.721,-20.5001 440.721,-24 450.721,-27.5001 450.721,-20.5001"/>
<text text-anchor="middle" x="488" y="-28" font-family="Helvetica,sans-Serif" font-size="10.00"> elements</text>
</g>
<!-- Node23 -->
<g id="node44" class="node"><title>Node23</title>
<a xlink:href="structant_1_1std__ext_1_1cc__shared__ptr.html" target="_top" xlink:title="ant::std_ext::cc_shared\l_ptr\&lt; TParticle \&gt;">
<polygon fill="white" stroke="black" points="134.5,-7 134.5,-41 253.5,-41 253.5,-7 134.5,-7"/>
<text text-anchor="start" x="142.5" y="-28" font-family="Helvetica,sans-Serif" font-size="10.00">ant::std_ext::cc_shared</text>
<text text-anchor="middle" x="194" y="-15" font-family="Helvetica,sans-Serif" font-size="10.00">_ptr&lt; TParticle &gt;</text>
</a>
</g>
<!-- Node23&#45;&gt;Node22 -->
<g id="edge44" class="edge"><title>Node23&#45;&gt;Node22</title>
<path fill="none" stroke="#9a32cd" stroke-dasharray="5,2" d="M263.841,-24C287.471,-24 313.439,-24 335.491,-24"/>
<polygon fill="#9a32cd" stroke="#9a32cd" points="263.525,-20.5001 253.525,-24 263.525,-27.5001 263.525,-20.5001"/>
<text text-anchor="middle" x="291" y="-28" font-family="Helvetica,sans-Serif" font-size="10.00"> Particle</text>
</g>
<!-- Node24 -->
<g id="node47" class="node"><title>Node24</title>
<a xlink:href="classant_1_1analysis_1_1_prompt_random_1_1_switch.html" target="_top" xlink:title="ant::analysis::PromptRandom\l::Switch">
<polygon fill="white" stroke="black" points="1168,-309 1168,-343 1314,-343 1314,-309 1168,-309"/>
<text text-anchor="start" x="1176" y="-330" font-family="Helvetica,sans-Serif" font-size="10.00">ant::analysis::PromptRandom</text>
<text text-anchor="middle" x="1241" y="-317" font-family="Helvetica,sans-Serif" font-size="10.00">::Switch</text>
</a>
</g>
<!-- Node24&#45;&gt;Node6 -->
<g id="edge48" class="edge"><title>Node24&#45;&gt;Node6</title>
<path fill="none" stroke="#9a32cd" stroke-dasharray="5,2" d="M1319.08,-306.397C1350.72,-298.454 1386.67,-289.427 1416.17,-282.021"/>
<polygon fill="#9a32cd" stroke="#9a32cd" points="1317.82,-303.105 1308.97,-308.935 1319.52,-309.894 1317.82,-303.105"/>
<text text-anchor="middle" x="1365" y="-305" font-family="Helvetica,sans-Serif" font-size="10.00"> promptrandom</text>
</g>
<!-- Node25 -->
<g id="node50" class="node"><title>Node25</title>
<a xlink:href="structant_1_1analysis_1_1physics_1_1_p_i_d___t_a_p_s_veto___kinfit_1_1_multi_pi0_1_1_multi_pi0_tree.html" target="_top" xlink:title="ant::analysis::physics\l::PID_TAPSVeto_Kinfit\l::MultiPi0::MultiPi0Tree">
<polygon fill="white" stroke="black" points="1181.5,-177.5 1181.5,-224.5 1300.5,-224.5 1300.5,-177.5 1181.5,-177.5"/>
<text text-anchor="start" x="1189.5" y="-211.5" font-family="Helvetica,sans-Serif" font-size="10.00">ant::analysis::physics</text>
<text text-anchor="start" x="1189.5" y="-198.5" font-family="Helvetica,sans-Serif" font-size="10.00">::PID_TAPSVeto_Kinfit</text>
<text text-anchor="middle" x="1241" y="-185.5" font-family="Helvetica,sans-Serif" font-size="10.00">::MultiPi0::MultiPi0Tree</text>
</a>
</g>
<!-- Node25&#45;&gt;Node6 -->
<g id="edge52" class="edge"><title>Node25&#45;&gt;Node6</title>
<path fill="none" stroke="#9a32cd" stroke-dasharray="5,2" d="M1310.38,-220.487C1344.08,-229.951 1384.17,-241.209 1416.46,-250.278"/>
<polygon fill="#9a32cd" stroke="#9a32cd" points="1311.18,-217.074 1300.6,-217.74 1309.29,-223.814 1311.18,-217.074"/>
<text text-anchor="middle" x="1365" y="-247" font-family="Helvetica,sans-Serif" font-size="10.00"> t</text>
</g>
<!-- Node26 -->
<g id="node52" class="node"><title>Node26</title>
<a xlink:href="structant_1_1_wrap_t_tree.html" target="_top" xlink:title="The WrapTTree struct simplifies TTree handling in physics classes. ">
<polygon fill="white" stroke="black" points="980.5,-219.5 980.5,-240.5 1065.5,-240.5 1065.5,-219.5 980.5,-219.5"/>
<text text-anchor="middle" x="1023" y="-227.5" font-family="Helvetica,sans-Serif" font-size="10.00">ant::WrapTTree</text>
</a>
</g>
<!-- Node26&#45;&gt;Node25 -->
<g id="edge54" class="edge"><title>Node26&#45;&gt;Node25</title>
<path fill="none" stroke="midnightblue" d="M1075.56,-223.008C1107.42,-218.77 1148.16,-213.35 1181.24,-208.95"/>
<polygon fill="midnightblue" stroke="midnightblue" points="1075,-219.551 1065.55,-224.34 1075.92,-226.49 1075,-219.551"/>
</g>
<!-- Node27 -->
<g id="node54" class="node"><title>Node27</title>
<polygon fill="white" stroke="#bfbfbf" points="748,-229 748,-263 888,-263 888,-229 748,-229"/>
<text text-anchor="start" x="756" y="-250" font-family="Helvetica,sans-Serif" font-size="10.00">std::vector&lt; ant::WrapTTree</text>
<text text-anchor="middle" x="818" y="-237" font-family="Helvetica,sans-Serif" font-size="10.00">::ROOT_branch_t &gt;</text>
</g>
<!-- Node27&#45;&gt;Node26 -->
<g id="edge56" class="edge"><title>Node27&#45;&gt;Node26</title>
<path fill="none" stroke="#9a32cd" stroke-dasharray="5,2" d="M898.44,-239.722C926.39,-237.54 956.637,-235.18 980.325,-233.331"/>
<polygon fill="#9a32cd" stroke="#9a32cd" points="897.96,-236.248 888.263,-240.516 898.505,-243.227 897.96,-236.248"/>
<text text-anchor="middle" x="928" y="-242" font-family="Helvetica,sans-Serif" font-size="10.00"> branches</text>
</g>
<!-- Node28 -->
<g id="node56" class="node"><title>Node28</title>
<a xlink:href="structant_1_1_wrap_t_tree_1_1_r_o_o_t__branch__t.html" target="_top" xlink:title="ant::WrapTTree::ROOT\l_branch_t">
<polygon fill="white" stroke="black" points="538.5,-175 538.5,-209 657.5,-209 657.5,-175 538.5,-175"/>
<text text-anchor="start" x="546.5" y="-196" font-family="Helvetica,sans-Serif" font-size="10.00">ant::WrapTTree::ROOT</text>
<text text-anchor="middle" x="598" y="-183" font-family="Helvetica,sans-Serif" font-size="10.00">_branch_t</text>
</a>
</g>
<!-- Node28&#45;&gt;Node27 -->
<g id="edge58" class="edge"><title>Node28&#45;&gt;Node27</title>
<path fill="none" stroke="#9a32cd" stroke-dasharray="5,2" d="M667.294,-209.009C693.245,-215.378 722.716,-222.612 748.67,-228.983"/>
<polygon fill="#9a32cd" stroke="#9a32cd" points="668.081,-205.598 657.535,-206.613 666.413,-212.396 668.081,-205.598"/>
<text text-anchor="middle" x="708" y="-227" font-family="Helvetica,sans-Serif" font-size="10.00"> elements</text>
</g>
<!-- Node29&#45;&gt;Node28 -->
<g id="edge60" class="edge"><title>Node29&#45;&gt;Node28</title>
<path fill="none" stroke="midnightblue" d="M457.799,-189.33C483.849,-189.826 513.168,-190.384 538.235,-190.862"/>
<polygon fill="midnightblue" stroke="midnightblue" points="457.681,-185.827 447.616,-189.136 457.547,-192.825 457.681,-185.827"/>
</g>
</g>
</svg>
