<?xml version="1.0" encoding="UTF-8" standalone="no"?>
<!DOCTYPE svg PUBLIC "-//W3C//DTD SVG 1.1//EN"
 "http://www.w3.org/Graphics/SVG/1.1/DTD/svg11.dtd">
<!-- Generated by graphviz version 2.26.3 (20100126.1600)
 -->
<!-- Title: ant::calibration::gui::CalCanvas Pages: 1 -->
<svg width="738pt" height="276pt"
 viewBox="0.00 0.00 738.00 276.00" xmlns="http://www.w3.org/2000/svg" xmlns:xlink="http://www.w3.org/1999/xlink">
<g id="graph1" class="graph" transform="scale(1 1) rotate(0) translate(4 272)">
<title>ant::calibration::gui::CalCanvas</title>
<polygon fill="white" stroke="white" points="-4,5 -4,-272 735,-272 735,5 -4,5"/>
<!-- Node1 -->
<g id="node1" class="node"><title>Node1</title>
<polygon fill="#bfbfbf" stroke="black" points="630.5,-128 630.5,-162 729.5,-162 729.5,-128 630.5,-128"/>
<text text-anchor="start" x="638.5" y="-149" font-family="Helvetica,sans-Serif" font-size="10.00">ant::calibration::gui</text>
<text text-anchor="middle" x="680" y="-136" font-family="Helvetica,sans-Serif" font-size="10.00">::CalCanvas</text>
</g>
<!-- Node2 -->
<g id="node2" class="node"><title>Node2</title>
<polygon fill="white" stroke="#bfbfbf" points="422,-246.5 422,-267.5 478,-267.5 478,-246.5 422,-246.5"/>
<text text-anchor="middle" x="450" y="-254.5" font-family="Helvetica,sans-Serif" font-size="10.00">TCanvas</text>
</g>
<!-- Node2&#45;&gt;Node1 -->
<g id="edge2" class="edge"><title>Node2&#45;&gt;Node1</title>
<path fill="none" stroke="midnightblue" d="M488.307,-258.813C522.907,-258.739 574.066,-254.238 612,-232 640.115,-215.518 660.876,-182.561 671.652,-162.278"/>
<polygon fill="midnightblue" stroke="midnightblue" points="488.169,-255.311 478.133,-258.708 488.097,-262.311 488.169,-255.311"/>
</g>
<!-- Node3 -->
<g id="node4" class="node"><title>Node3</title>
<a xlink:href="classant_1_1calibration_1_1gui_1_1update__notify__traits.html" target="_top" xlink:title="ant::calibration::gui\l::update_notify_traits">
<polygon fill="white" stroke="black" points="0,-188 0,-222 108,-222 108,-188 0,-188"/>
<text text-anchor="start" x="8" y="-209" font-family="Helvetica,sans-Serif" font-size="10.00">ant::calibration::gui</text>
<text text-anchor="middle" x="54" y="-196" font-family="Helvetica,sans-Serif" font-size="10.00">::update_notify_traits</text>
</a>
</g>
<!-- Node3&#45;&gt;Node1 -->
<g id="edge4" class="edge"><title>Node3&#45;&gt;Node1</title>
<path fill="none" stroke="midnightblue" d="M118.109,-209.36C210.213,-214.457 385.073,-219.774 532,-199 568.512,-193.838 577.412,-189.787 612,-177 623.504,-172.747 635.728,-167.303 646.592,-162.116"/>
<polygon fill="midnightblue" stroke="midnightblue" points="118.289,-205.865 108.106,-208.789 117.89,-212.853 118.289,-205.865"/>
</g>
<!-- Node8 -->
<g id="node14" class="node"><title>Node8</title>
<a xlink:href="classant_1_1calibration_1_1gui_1_1_indicator.html" target="_top" xlink:title="ant::calibration::gui\l::Indicator">
<polygon fill="white" stroke="black" points="188.5,-156 188.5,-190 287.5,-190 287.5,-156 188.5,-156"/>
<text text-anchor="start" x="196.5" y="-177" font-family="Helvetica,sans-Serif" font-size="10.00">ant::calibration::gui</text>
<text text-anchor="middle" x="238" y="-164" font-family="Helvetica,sans-Serif" font-size="10.00">::Indicator</text>
</a>
</g>
<!-- Node3&#45;&gt;Node8 -->
<g id="edge16" class="edge"><title>Node3&#45;&gt;Node8</title>
<path fill="none" stroke="midnightblue" d="M118.218,-193.832C141.185,-189.837 166.7,-185.4 188.26,-181.65"/>
<polygon fill="midnightblue" stroke="midnightblue" points="117.463,-190.41 108.211,-195.572 118.663,-197.307 117.463,-190.41"/>
</g>
<!-- Node4 -->
<g id="node6" class="node"><title>Node4</title>
<polygon fill="white" stroke="#bfbfbf" points="368,-104 368,-138 532,-138 532,-104 368,-104"/>
<text text-anchor="start" x="376" y="-125" font-family="Helvetica,sans-Serif" font-size="10.00">std::stack&lt; ant::calibration</text>
<text text-anchor="middle" x="450" y="-112" font-family="Helvetica,sans-Serif" font-size="10.00">::gui::FitFunction::SavedState_t &gt;</text>
</g>
<!-- Node4&#45;&gt;Node1 -->
<g id="edge6" class="edge"><title>Node4&#45;&gt;Node1</title>
<path fill="none" stroke="#9a32cd" stroke-dasharray="5,2" d="M542.279,-123.542C565.133,-124.882 589.514,-126.916 612,-130 617.989,-130.821 624.232,-131.894 630.402,-133.089"/>
<polygon fill="#9a32cd" stroke="#9a32cd" points="542.421,-120.044 532.244,-122.991 542.038,-127.034 542.421,-120.044"/>
<text text-anchor="middle" x="581" y="-134" font-family="Helvetica,sans-Serif" font-size="10.00"> UndoStack</text>
</g>
<!-- Node5 -->
<g id="node8" class="node"><title>Node5</title>
<a xlink:title="STL class. ">
<polygon fill="white" stroke="#bfbfbf" points="194.5,-110.5 194.5,-131.5 281.5,-131.5 281.5,-110.5 194.5,-110.5"/>
<text text-anchor="middle" x="238" y="-118.5" font-family="Helvetica,sans-Serif" font-size="10.00">std::vector&lt; T &gt;</text>
</a>
</g>
<!-- Node5&#45;&gt;Node4 -->
<g id="edge8" class="edge"><title>Node5&#45;&gt;Node4</title>
<path fill="none" stroke="#9a32cd" stroke-dasharray="5,2" d="M291.922,-121C314.955,-121 342.354,-121 367.818,-121"/>
<polygon fill="#9a32cd" stroke="#9a32cd" points="291.67,-117.5 281.669,-121 291.669,-124.5 291.67,-117.5"/>
<text text-anchor="middle" x="328" y="-125" font-family="Helvetica,sans-Serif" font-size="10.00"> elements</text>
</g>
<!-- Node6 -->
<g id="node10" class="node"><title>Node6</title>
<polygon fill="white" stroke="#bfbfbf" points="39.5,-110.5 39.5,-131.5 68.5,-131.5 68.5,-110.5 39.5,-110.5"/>
<text text-anchor="middle" x="54" y="-118.5" font-family="Helvetica,sans-Serif" font-size="10.00">T</text>
</g>
<!-- Node6&#45;&gt;Node5 -->
<g id="edge10" class="edge"><title>Node6&#45;&gt;Node5</title>
<path fill="none" stroke="#9a32cd" stroke-dasharray="5,2" d="M79.0351,-121C108.645,-121 158.447,-121 194.427,-121"/>
<polygon fill="#9a32cd" stroke="#9a32cd" points="78.7465,-117.5 68.7465,-121 78.7464,-124.5 78.7465,-117.5"/>
<text text-anchor="middle" x="148" y="-125" font-family="Helvetica,sans-Serif" font-size="10.00"> elements</text>
</g>
<!-- Node7 -->
<g id="node12" class="node"><title>Node7</title>
<polygon fill="white" stroke="#bfbfbf" points="389,-156 389,-190 511,-190 511,-156 389,-156"/>
<text text-anchor="start" x="397" y="-177" font-family="Helvetica,sans-Serif" font-size="10.00">std::list&lt; ant::calibration</text>
<text text-anchor="middle" x="450" y="-164" font-family="Helvetica,sans-Serif" font-size="10.00">::gui::Indicator * &gt;</text>
</g>
<!-- Node7&#45;&gt;Node1 -->
<g id="edge12" class="edge"><title>Node7&#45;&gt;Node1</title>
<path fill="none" stroke="#9a32cd" stroke-dasharray="5,2" d="M521.296,-164.32C556.65,-160.016 598.478,-154.924 630.315,-151.049"/>
<polygon fill="#9a32cd" stroke="#9a32cd" points="520.536,-160.887 511.032,-165.57 521.382,-167.836 520.536,-160.887"/>
<text text-anchor="middle" x="581" y="-164" font-family="Helvetica,sans-Serif" font-size="10.00"> indicators</text>
</g>
<!-- Node8&#45;&gt;Node7 -->
<g id="edge14" class="edge"><title>Node8&#45;&gt;Node7</title>
<path fill="none" stroke="#9a32cd" stroke-dasharray="5,2" d="M297.912,-173C326.348,-173 360.278,-173 388.869,-173"/>
<polygon fill="#9a32cd" stroke="#9a32cd" points="297.705,-169.5 287.705,-173 297.705,-176.5 297.705,-169.5"/>
<text text-anchor="middle" x="328" y="-177" font-family="Helvetica,sans-Serif" font-size="10.00"> elements</text>
</g>
<!-- Node9 -->
<g id="node17" class="node"><title>Node9</title>
<a xlink:href="structant_1_1calibration_1_1gui_1_1_cal_canvas_1_1axis__settings__t.html" target="_top" xlink:title="ant::calibration::gui\l::CalCanvas::axis_settings_t">
<polygon fill="white" stroke="black" points="378.5,-52 378.5,-86 521.5,-86 521.5,-52 378.5,-52"/>
<text text-anchor="start" x="386.5" y="-73" font-family="Helvetica,sans-Serif" font-size="10.00">ant::calibration::gui</text>
<text text-anchor="middle" x="450" y="-60" font-family="Helvetica,sans-Serif" font-size="10.00">::CalCanvas::axis_settings_t</text>
</a>
</g>
<!-- Node9&#45;&gt;Node1 -->
<g id="edge18" class="edge"><title>Node9&#45;&gt;Node1</title>
<path fill="none" stroke="#9a32cd" stroke-dasharray="5,2" d="M531.738,-83.5142C557.851,-89.377 586.565,-97.1349 612,-107 626.248,-112.526 641.167,-120.578 653.388,-127.848"/>
<polygon fill="#9a32cd" stroke="#9a32cd" points="532.386,-80.0733 521.869,-81.3595 530.892,-86.9121 532.386,-80.0733"/>
<text text-anchor="middle" x="581" y="-111" font-family="Helvetica,sans-Serif" font-size="10.00"> axis_settings</text>
</g>
<!-- Node10 -->
<g id="node19" class="node"><title>Node10</title>
<a xlink:href="classant_1_1calibration_1_1gui_1_1_fit_function.html" target="_top" xlink:title="ant::calibration::gui\l::FitFunction">
<polygon fill="white" stroke="black" points="400.5,-0 400.5,-34 499.5,-34 499.5,-0 400.5,-0"/>
<text text-anchor="start" x="408.5" y="-21" font-family="Helvetica,sans-Serif" font-size="10.00">ant::calibration::gui</text>
<text text-anchor="middle" x="450" y="-8" font-family="Helvetica,sans-Serif" font-size="10.00">::FitFunction</text>
</a>
</g>
<!-- Node10&#45;&gt;Node1 -->
<g id="edge20" class="edge"><title>Node10&#45;&gt;Node1</title>
<path fill="none" stroke="#9a32cd" stroke-dasharray="5,2" d="M509.472,-29.3653C541.643,-37.9133 581.017,-51.5097 612,-72 634.826,-87.0957 655.379,-111.365 667.769,-127.734"/>
<polygon fill="#9a32cd" stroke="#9a32cd" points="510.292,-25.9624 499.736,-26.8725 508.555,-32.7436 510.292,-25.9624"/>
<text text-anchor="middle" x="581" y="-76" font-family="Helvetica,sans-Serif" font-size="10.00"> func</text>
</g>
</g>
</svg>
