<?xml version="1.0" encoding="UTF-8" standalone="no"?>
<!DOCTYPE svg PUBLIC "-//W3C//DTD SVG 1.1//EN"
 "http://www.w3.org/Graphics/SVG/1.1/DTD/svg11.dtd">
<!-- Generated by graphviz version 2.26.3 (20100126.1600)
 -->
<!-- Title: ant::UnpackerAcquConfig Pages: 1 -->
<svg width="668pt" height="1030pt"
 viewBox="0.00 0.00 668.00 1030.00" xmlns="http://www.w3.org/2000/svg" xmlns:xlink="http://www.w3.org/1999/xlink">
<g id="graph1" class="graph" transform="scale(1 1) rotate(0) translate(4 1026)">
<title>ant::UnpackerAcquConfig</title>
<polygon fill="white" stroke="white" points="-4,5 -4,-1026 665,-1026 665,5 -4,5"/>
<!-- Node1 -->
<g id="node1" class="node"><title>Node1</title>
<polygon fill="#bfbfbf" stroke="black" points="0.5,-552.5 0.5,-573.5 129.5,-573.5 129.5,-552.5 0.5,-552.5"/>
<text text-anchor="middle" x="65" y="-560.5" font-family="Helvetica,sans-Serif" font-size="10.00">ant::UnpackerAcquConfig</text>
</g>
<!-- Node2 -->
<g id="node3" class="node"><title>Node2</title>
<a xlink:href="structant_1_1expconfig_1_1detector_1_1_c_b.html" target="_top" xlink:title="ant::expconfig::detector::CB">
<polygon fill="white" stroke="black" points="169,-840.5 169,-861.5 309,-861.5 309,-840.5 169,-840.5"/>
<text text-anchor="middle" x="239" y="-848.5" font-family="Helvetica,sans-Serif" font-size="10.00">ant::expconfig::detector::CB</text>
</a>
</g>
<!-- Node1&#45;&gt;Node2 -->
<g id="edge2" class="edge"><title>Node1&#45;&gt;Node2</title>
<path fill="none" stroke="midnightblue" d="M66.5877,-583.834C71.563,-634.114 91.3232,-762.964 166,-831 170.177,-834.805 175.01,-837.897 180.162,-840.407"/>
<polygon fill="midnightblue" stroke="midnightblue" points="70.0479,-583.231 65.6752,-573.581 63.0755,-583.852 70.0479,-583.231"/>
</g>
<!-- Node3 -->
<g id="node5" class="node"><title>Node3</title>
<a xlink:href="structant_1_1expconfig_1_1detector_1_1_e_p_t.html" target="_top" xlink:title="ant::expconfig::detector::EPT">
<polygon fill="white" stroke="black" points="166.5,-800.5 166.5,-821.5 311.5,-821.5 311.5,-800.5 166.5,-800.5"/>
<text text-anchor="middle" x="239" y="-808.5" font-family="Helvetica,sans-Serif" font-size="10.00">ant::expconfig::detector::EPT</text>
</a>
</g>
<!-- Node1&#45;&gt;Node3 -->
<g id="edge4" class="edge"><title>Node1&#45;&gt;Node3</title>
<path fill="none" stroke="midnightblue" d="M68.1193,-583.745C75.9736,-628.562 100.808,-734.898 166,-791 170.482,-794.857 175.644,-797.976 181.108,-800.498"/>
<polygon fill="midnightblue" stroke="midnightblue" points="71.551,-583.044 66.474,-573.744 64.6438,-584.18 71.551,-583.044"/>
</g>
<!-- Node5 -->
<g id="node9" class="node"><title>Node5</title>
<a xlink:href="structant_1_1expconfig_1_1detector_1_1_p_i_d.html" target="_top" xlink:title="ant::expconfig::detector::PID">
<polygon fill="white" stroke="black" points="167.5,-760.5 167.5,-781.5 310.5,-781.5 310.5,-760.5 167.5,-760.5"/>
<text text-anchor="middle" x="239" y="-768.5" font-family="Helvetica,sans-Serif" font-size="10.00">ant::expconfig::detector::PID</text>
</a>
</g>
<!-- Node1&#45;&gt;Node5 -->
<g id="edge8" class="edge"><title>Node1&#45;&gt;Node5</title>
<path fill="none" stroke="midnightblue" d="M80.4356,-581.452C115.893,-623.837 202.25,-727.069 230.15,-760.421"/>
<polygon fill="midnightblue" stroke="midnightblue" points="82.9688,-579.025 73.8679,-573.601 77.5997,-583.517 82.9688,-579.025"/>
</g>
<!-- Node12 -->
<g id="node23" class="node"><title>Node12</title>
<a xlink:href="structant_1_1expconfig_1_1detector_1_1_tagger.html" target="_top" xlink:title="ant::expconfig::detector\l::Tagger">
<polygon fill="white" stroke="black" points="179.5,-572 179.5,-606 298.5,-606 298.5,-572 179.5,-572"/>
<text text-anchor="start" x="187.5" y="-593" font-family="Helvetica,sans-Serif" font-size="10.00">ant::expconfig::detector</text>
<text text-anchor="middle" x="239" y="-580" font-family="Helvetica,sans-Serif" font-size="10.00">::Tagger</text>
</a>
</g>
<!-- Node1&#45;&gt;Node12 -->
<g id="edge22" class="edge"><title>Node1&#45;&gt;Node12</title>
<path fill="none" stroke="midnightblue" d="M139.799,-574.177C153.011,-576.151 166.606,-578.182 179.332,-580.084"/>
<polygon fill="midnightblue" stroke="midnightblue" points="140.199,-570.698 129.791,-572.681 139.164,-577.621 140.199,-570.698"/>
</g>
<!-- Node15 -->
<g id="node29" class="node"><title>Node15</title>
<a xlink:href="structant_1_1expconfig_1_1detector_1_1_t_a_p_s.html" target="_top" xlink:title="ant::expconfig::detector\l::TAPS">
<polygon fill="white" stroke="black" points="179.5,-520 179.5,-554 298.5,-554 298.5,-520 179.5,-520"/>
<text text-anchor="start" x="187.5" y="-541" font-family="Helvetica,sans-Serif" font-size="10.00">ant::expconfig::detector</text>
<text text-anchor="middle" x="239" y="-528" font-family="Helvetica,sans-Serif" font-size="10.00">::TAPS</text>
</a>
</g>
<!-- Node1&#45;&gt;Node15 -->
<g id="edge28" class="edge"><title>Node1&#45;&gt;Node15</title>
<path fill="none" stroke="midnightblue" d="M139.799,-551.823C153.011,-549.849 166.606,-547.818 179.332,-545.916"/>
<polygon fill="midnightblue" stroke="midnightblue" points="139.164,-548.379 129.791,-553.319 140.199,-555.302 139.164,-548.379"/>
</g>
<!-- Node18 -->
<g id="node35" class="node"><title>Node18</title>
<a xlink:href="structant_1_1expconfig_1_1detector_1_1_t_a_p_s_veto.html" target="_top" xlink:title="ant::expconfig::detector\l::TAPSVeto">
<polygon fill="white" stroke="black" points="179.5,-416 179.5,-450 298.5,-450 298.5,-416 179.5,-416"/>
<text text-anchor="start" x="187.5" y="-437" font-family="Helvetica,sans-Serif" font-size="10.00">ant::expconfig::detector</text>
<text text-anchor="middle" x="239" y="-424" font-family="Helvetica,sans-Serif" font-size="10.00">::TAPSVeto</text>
</a>
</g>
<!-- Node1&#45;&gt;Node18 -->
<g id="edge34" class="edge"><title>Node1&#45;&gt;Node18</title>
<path fill="none" stroke="midnightblue" d="M87.4211,-546.249C120.666,-521.41 182.7,-475.063 216.176,-450.053"/>
<polygon fill="midnightblue" stroke="midnightblue" points="85.1554,-543.572 79.2392,-552.362 89.3451,-549.18 85.1554,-543.572"/>
</g>
<!-- Node22 -->
<g id="node43" class="node"><title>Node22</title>
<a xlink:href="structant_1_1expconfig_1_1detector_1_1_trigger.html" target="_top" xlink:title="ant::expconfig::detector\l::Trigger">
<polygon fill="white" stroke="black" points="179.5,-312 179.5,-346 298.5,-346 298.5,-312 179.5,-312"/>
<text text-anchor="start" x="187.5" y="-333" font-family="Helvetica,sans-Serif" font-size="10.00">ant::expconfig::detector</text>
<text text-anchor="middle" x="239" y="-320" font-family="Helvetica,sans-Serif" font-size="10.00">::Trigger</text>
</a>
</g>
<!-- Node1&#45;&gt;Node22 -->
<g id="edge42" class="edge"><title>Node1&#45;&gt;Node22</title>
<path fill="none" stroke="midnightblue" d="M76.0339,-543.615C93.5829,-513.361 129.605,-453.564 166,-407 183.361,-384.788 205.841,-361.455 221.241,-346.162"/>
<polygon fill="midnightblue" stroke="midnightblue" points="72.9641,-541.932 71.0083,-552.345 79.0307,-545.424 72.9641,-541.932"/>
</g>
<!-- Node25 -->
<g id="node49" class="node"><title>Node25</title>
<a xlink:href="classant_1_1expconfig_1_1_setup.html" target="_top" xlink:title="The Setup class serves as a base class for all known beamtime setup configurations. ">
<polygon fill="white" stroke="black" points="184,-136.5 184,-157.5 294,-157.5 294,-136.5 184,-136.5"/>
<text text-anchor="middle" x="239" y="-144.5" font-family="Helvetica,sans-Serif" font-size="10.00">ant::expconfig::Setup</text>
</a>
</g>
<!-- Node1&#45;&gt;Node25 -->
<g id="edge48" class="edge"><title>Node1&#45;&gt;Node25</title>
<path fill="none" stroke="midnightblue" d="M72.2472,-543C88.248,-499.156 128.182,-391.436 166,-303 189.632,-247.738 221.157,-183.085 233.612,-157.856"/>
<polygon fill="midnightblue" stroke="midnightblue" points="68.9225,-541.901 68.7921,-552.495 75.5005,-544.295 68.9225,-541.901"/>
</g>
<!-- Node4 -->
<g id="node7" class="node"><title>Node4</title>
<a xlink:href="structant_1_1expconfig_1_1detector_1_1_e_p_t__2014.html" target="_top" xlink:title="ant::expconfig::detector\l::EPT_2014">
<polygon fill="white" stroke="black" points="356.5,-988 356.5,-1022 475.5,-1022 475.5,-988 356.5,-988"/>
<text text-anchor="start" x="364.5" y="-1009" font-family="Helvetica,sans-Serif" font-size="10.00">ant::expconfig::detector</text>
<text text-anchor="middle" x="416" y="-996" font-family="Helvetica,sans-Serif" font-size="10.00">::EPT_2014</text>
</a>
</g>
<!-- Node3&#45;&gt;Node4 -->
<g id="edge6" class="edge"><title>Node3&#45;&gt;Node4</title>
<path fill="none" stroke="midnightblue" d="M308.008,-827.352C309.406,-828.49 310.741,-829.704 312,-831 359.174,-879.552 303.256,-928.2 348,-979 351.007,-982.414 354.514,-985.383 358.319,-987.963"/>
<polygon fill="midnightblue" stroke="midnightblue" points="309.656,-824.245 299.387,-821.636 305.788,-830.079 309.656,-824.245"/>
</g>
<!-- Node6 -->
<g id="node11" class="node"><title>Node6</title>
<a xlink:href="structant_1_1expconfig_1_1detector_1_1_p_i_d__2004.html" target="_top" xlink:title="ant::expconfig::detector\l::PID_2004">
<polygon fill="white" stroke="black" points="356.5,-936 356.5,-970 475.5,-970 475.5,-936 356.5,-936"/>
<text text-anchor="start" x="364.5" y="-957" font-family="Helvetica,sans-Serif" font-size="10.00">ant::expconfig::detector</text>
<text text-anchor="middle" x="416" y="-944" font-family="Helvetica,sans-Serif" font-size="10.00">::PID_2004</text>
</a>
</g>
<!-- Node5&#45;&gt;Node6 -->
<g id="edge10" class="edge"><title>Node5&#45;&gt;Node6</title>
<path fill="none" stroke="midnightblue" d="M307.472,-786.989C309.063,-788.231 310.578,-789.565 312,-791 356.021,-835.403 306.202,-880.498 348,-927 351.042,-930.384 354.573,-933.33 358.395,-935.895"/>
<polygon fill="midnightblue" stroke="midnightblue" points="309.263,-783.981 298.956,-781.529 305.485,-789.873 309.263,-783.981"/>
</g>
<!-- Node7 -->
<g id="node13" class="node"><title>Node7</title>
<a xlink:href="structant_1_1expconfig_1_1detector_1_1_p_i_d__2007.html" target="_top" xlink:title="ant::expconfig::detector\l::PID_2007">
<polygon fill="white" stroke="black" points="356.5,-884 356.5,-918 475.5,-918 475.5,-884 356.5,-884"/>
<text text-anchor="start" x="364.5" y="-905" font-family="Helvetica,sans-Serif" font-size="10.00">ant::expconfig::detector</text>
<text text-anchor="middle" x="416" y="-892" font-family="Helvetica,sans-Serif" font-size="10.00">::PID_2007</text>
</a>
</g>
<!-- Node5&#45;&gt;Node7 -->
<g id="edge12" class="edge"><title>Node5&#45;&gt;Node7</title>
<path fill="none" stroke="midnightblue" d="M306.385,-786.716C308.349,-788.032 310.229,-789.457 312,-791 342.626,-817.68 318.715,-846.855 348,-875 351.554,-878.416 355.603,-881.394 359.915,-883.989"/>
<polygon fill="midnightblue" stroke="midnightblue" points="307.736,-783.461 297.303,-781.617 304.309,-789.564 307.736,-783.461"/>
</g>
<!-- Node8 -->
<g id="node15" class="node"><title>Node8</title>
<a xlink:href="structant_1_1expconfig_1_1detector_1_1_p_i_d__2009__05.html" target="_top" xlink:title="ant::expconfig::detector\l::PID_2009_05">
<polygon fill="white" stroke="black" points="356.5,-832 356.5,-866 475.5,-866 475.5,-832 356.5,-832"/>
<text text-anchor="start" x="364.5" y="-853" font-family="Helvetica,sans-Serif" font-size="10.00">ant::expconfig::detector</text>
<text text-anchor="middle" x="416" y="-840" font-family="Helvetica,sans-Serif" font-size="10.00">::PID_2009_05</text>
</a>
</g>
<!-- Node5&#45;&gt;Node8 -->
<g id="edge14" class="edge"><title>Node5&#45;&gt;Node8</title>
<path fill="none" stroke="midnightblue" d="M299.359,-785.125C303.732,-786.875 307.993,-788.827 312,-791 330.817,-801.207 329.704,-811.885 348,-823 353.401,-826.281 359.286,-829.272 365.26,-831.962"/>
<polygon fill="midnightblue" stroke="midnightblue" points="300.256,-781.727 289.662,-781.608 297.87,-788.308 300.256,-781.727"/>
</g>
<!-- Node9 -->
<g id="node17" class="node"><title>Node9</title>
<a xlink:href="structant_1_1expconfig_1_1detector_1_1_p_i_d__2009__06.html" target="_top" xlink:title="ant::expconfig::detector\l::PID_2009_06">
<polygon fill="white" stroke="black" points="356.5,-780 356.5,-814 475.5,-814 475.5,-780 356.5,-780"/>
<text text-anchor="start" x="364.5" y="-801" font-family="Helvetica,sans-Serif" font-size="10.00">ant::expconfig::detector</text>
<text text-anchor="middle" x="416" y="-788" font-family="Helvetica,sans-Serif" font-size="10.00">::PID_2009_06</text>
</a>
</g>
<!-- Node5&#45;&gt;Node9 -->
<g id="edge16" class="edge"><title>Node5&#45;&gt;Node9</title>
<path fill="none" stroke="midnightblue" d="M320.574,-782.983C332.661,-784.758 344.921,-786.559 356.445,-788.252"/>
<polygon fill="midnightblue" stroke="midnightblue" points="320.885,-779.491 310.482,-781.5 319.868,-786.417 320.885,-779.491"/>
</g>
<!-- Node10 -->
<g id="node19" class="node"><title>Node10</title>
<a xlink:href="structant_1_1expconfig_1_1detector_1_1_p_i_d__2009__07.html" target="_top" xlink:title="ant::expconfig::detector\l::PID_2009_07">
<polygon fill="white" stroke="black" points="356.5,-728 356.5,-762 475.5,-762 475.5,-728 356.5,-728"/>
<text text-anchor="start" x="364.5" y="-749" font-family="Helvetica,sans-Serif" font-size="10.00">ant::expconfig::detector</text>
<text text-anchor="middle" x="416" y="-736" font-family="Helvetica,sans-Serif" font-size="10.00">::PID_2009_07</text>
</a>
</g>
<!-- Node5&#45;&gt;Node10 -->
<g id="edge18" class="edge"><title>Node5&#45;&gt;Node10</title>
<path fill="none" stroke="midnightblue" d="M320.574,-759.017C332.661,-757.242 344.921,-755.441 356.445,-753.748"/>
<polygon fill="midnightblue" stroke="midnightblue" points="319.868,-755.583 310.482,-760.5 320.885,-762.509 319.868,-755.583"/>
</g>
<!-- Node11 -->
<g id="node21" class="node"><title>Node11</title>
<a xlink:href="structant_1_1expconfig_1_1detector_1_1_p_i_d__2014.html" target="_top" xlink:title="ant::expconfig::detector\l::PID_2014">
<polygon fill="white" stroke="black" points="356.5,-676 356.5,-710 475.5,-710 475.5,-676 356.5,-676"/>
<text text-anchor="start" x="364.5" y="-697" font-family="Helvetica,sans-Serif" font-size="10.00">ant::expconfig::detector</text>
<text text-anchor="middle" x="416" y="-684" font-family="Helvetica,sans-Serif" font-size="10.00">::PID_2014</text>
</a>
</g>
<!-- Node5&#45;&gt;Node11 -->
<g id="edge20" class="edge"><title>Node5&#45;&gt;Node11</title>
<path fill="none" stroke="midnightblue" d="M269.127,-755.829C290.848,-745.088 320.976,-730.591 348,-719 354.969,-716.011 362.407,-712.995 369.711,-710.128"/>
<polygon fill="midnightblue" stroke="midnightblue" points="267.471,-752.744 260.074,-760.329 270.587,-759.012 267.471,-752.744"/>
</g>
<!-- Node13 -->
<g id="node25" class="node"><title>Node13</title>
<a xlink:href="structant_1_1expconfig_1_1detector_1_1_tagger__2007.html" target="_top" xlink:title="ant::expconfig::detector\l::Tagger_2007">
<polygon fill="white" stroke="black" points="356.5,-624 356.5,-658 475.5,-658 475.5,-624 356.5,-624"/>
<text text-anchor="start" x="364.5" y="-645" font-family="Helvetica,sans-Serif" font-size="10.00">ant::expconfig::detector</text>
<text text-anchor="middle" x="416" y="-632" font-family="Helvetica,sans-Serif" font-size="10.00">::Tagger_2007</text>
</a>
</g>
<!-- Node12&#45;&gt;Node13 -->
<g id="edge24" class="edge"><title>Node12&#45;&gt;Node13</title>
<path fill="none" stroke="midnightblue" d="M306.747,-608.903C323.617,-613.859 341.555,-619.129 357.913,-623.935"/>
<polygon fill="midnightblue" stroke="midnightblue" points="307.538,-605.487 296.956,-606.027 305.564,-612.204 307.538,-605.487"/>
</g>
<!-- Node14 -->
<g id="node27" class="node"><title>Node14</title>
<a xlink:href="structant_1_1expconfig_1_1detector_1_1_tagger__2015.html" target="_top" xlink:title="ant::expconfig::detector\l::Tagger_2015">
<polygon fill="white" stroke="black" points="356.5,-572 356.5,-606 475.5,-606 475.5,-572 356.5,-572"/>
<text text-anchor="start" x="364.5" y="-593" font-family="Helvetica,sans-Serif" font-size="10.00">ant::expconfig::detector</text>
<text text-anchor="middle" x="416" y="-580" font-family="Helvetica,sans-Serif" font-size="10.00">::Tagger_2015</text>
</a>
</g>
<!-- Node12&#45;&gt;Node14 -->
<g id="edge26" class="edge"><title>Node12&#45;&gt;Node14</title>
<path fill="none" stroke="midnightblue" d="M309.086,-589C324.759,-589 341.238,-589 356.438,-589"/>
<polygon fill="midnightblue" stroke="midnightblue" points="308.924,-585.5 298.924,-589 308.924,-592.5 308.924,-585.5"/>
</g>
<!-- Node16 -->
<g id="node31" class="node"><title>Node16</title>
<a xlink:href="structant_1_1expconfig_1_1detector_1_1_t_a_p_s__2007.html" target="_top" xlink:title="ant::expconfig::detector\l::TAPS_2007">
<polygon fill="white" stroke="black" points="356.5,-520 356.5,-554 475.5,-554 475.5,-520 356.5,-520"/>
<text text-anchor="start" x="364.5" y="-541" font-family="Helvetica,sans-Serif" font-size="10.00">ant::expconfig::detector</text>
<text text-anchor="middle" x="416" y="-528" font-family="Helvetica,sans-Serif" font-size="10.00">::TAPS_2007</text>
</a>
</g>
<!-- Node15&#45;&gt;Node16 -->
<g id="edge30" class="edge"><title>Node15&#45;&gt;Node16</title>
<path fill="none" stroke="midnightblue" d="M309.086,-537C324.759,-537 341.238,-537 356.438,-537"/>
<polygon fill="midnightblue" stroke="midnightblue" points="308.924,-533.5 298.924,-537 308.924,-540.5 308.924,-533.5"/>
</g>
<!-- Node17 -->
<g id="node33" class="node"><title>Node17</title>
<a xlink:href="structant_1_1expconfig_1_1detector_1_1_t_a_p_s__2013.html" target="_top" xlink:title="ant::expconfig::detector\l::TAPS_2013">
<polygon fill="white" stroke="black" points="356.5,-468 356.5,-502 475.5,-502 475.5,-468 356.5,-468"/>
<text text-anchor="start" x="364.5" y="-489" font-family="Helvetica,sans-Serif" font-size="10.00">ant::expconfig::detector</text>
<text text-anchor="middle" x="416" y="-476" font-family="Helvetica,sans-Serif" font-size="10.00">::TAPS_2013</text>
</a>
</g>
<!-- Node15&#45;&gt;Node17 -->
<g id="edge32" class="edge"><title>Node15&#45;&gt;Node17</title>
<path fill="none" stroke="midnightblue" d="M306.747,-517.097C323.617,-512.141 341.555,-506.871 357.913,-502.065"/>
<polygon fill="midnightblue" stroke="midnightblue" points="305.564,-513.796 296.956,-519.973 307.538,-520.513 305.564,-513.796"/>
</g>
<!-- Node19 -->
<g id="node37" class="node"><title>Node19</title>
<a xlink:href="structant_1_1expconfig_1_1detector_1_1_t_a_p_s_veto__2007.html" target="_top" xlink:title="ant::expconfig::detector\l::TAPSVeto_2007">
<polygon fill="white" stroke="black" points="356.5,-416 356.5,-450 475.5,-450 475.5,-416 356.5,-416"/>
<text text-anchor="start" x="364.5" y="-437" font-family="Helvetica,sans-Serif" font-size="10.00">ant::expconfig::detector</text>
<text text-anchor="middle" x="416" y="-424" font-family="Helvetica,sans-Serif" font-size="10.00">::TAPSVeto_2007</text>
</a>
</g>
<!-- Node18&#45;&gt;Node19 -->
<g id="edge36" class="edge"><title>Node18&#45;&gt;Node19</title>
<path fill="none" stroke="midnightblue" d="M309.086,-433C324.759,-433 341.238,-433 356.438,-433"/>
<polygon fill="midnightblue" stroke="midnightblue" points="308.924,-429.5 298.924,-433 308.924,-436.5 308.924,-429.5"/>
</g>
<!-- Node20 -->
<g id="node39" class="node"><title>Node20</title>
<a xlink:href="structant_1_1expconfig_1_1detector_1_1_t_a_p_s_veto__2013.html" target="_top" xlink:title="ant::expconfig::detector\l::TAPSVeto_2013">
<polygon fill="white" stroke="black" points="356.5,-364 356.5,-398 475.5,-398 475.5,-364 356.5,-364"/>
<text text-anchor="start" x="364.5" y="-385" font-family="Helvetica,sans-Serif" font-size="10.00">ant::expconfig::detector</text>
<text text-anchor="middle" x="416" y="-372" font-family="Helvetica,sans-Serif" font-size="10.00">::TAPSVeto_2013</text>
</a>
</g>
<!-- Node18&#45;&gt;Node20 -->
<g id="edge38" class="edge"><title>Node18&#45;&gt;Node20</title>
<path fill="none" stroke="midnightblue" d="M306.747,-413.097C323.617,-408.141 341.555,-402.871 357.913,-398.065"/>
<polygon fill="midnightblue" stroke="midnightblue" points="305.564,-409.796 296.956,-415.973 307.538,-416.513 305.564,-409.796"/>
</g>
<!-- Node21 -->
<g id="node41" class="node"><title>Node21</title>
<a xlink:href="structant_1_1expconfig_1_1detector_1_1_t_a_p_s_veto__2014.html" target="_top" xlink:title="ant::expconfig::detector\l::TAPSVeto_2014">
<polygon fill="white" stroke="black" points="530.5,-364 530.5,-398 649.5,-398 649.5,-364 530.5,-364"/>
<text text-anchor="start" x="538.5" y="-385" font-family="Helvetica,sans-Serif" font-size="10.00">ant::expconfig::detector</text>
<text text-anchor="middle" x="590" y="-372" font-family="Helvetica,sans-Serif" font-size="10.00">::TAPSVeto_2014</text>
</a>
</g>
<!-- Node20&#45;&gt;Node21 -->
<g id="edge40" class="edge"><title>Node20&#45;&gt;Node21</title>
<path fill="none" stroke="midnightblue" d="M485.931,-381C500.635,-381 516.016,-381 530.304,-381"/>
<polygon fill="midnightblue" stroke="midnightblue" points="485.881,-377.5 475.881,-381 485.881,-384.5 485.881,-377.5"/>
</g>
<!-- Node23 -->
<g id="node45" class="node"><title>Node23</title>
<a xlink:href="structant_1_1expconfig_1_1detector_1_1_trigger__2007.html" target="_top" xlink:title="ant::expconfig::detector\l::Trigger_2007">
<polygon fill="white" stroke="black" points="356.5,-312 356.5,-346 475.5,-346 475.5,-312 356.5,-312"/>
<text text-anchor="start" x="364.5" y="-333" font-family="Helvetica,sans-Serif" font-size="10.00">ant::expconfig::detector</text>
<text text-anchor="middle" x="416" y="-320" font-family="Helvetica,sans-Serif" font-size="10.00">::Trigger_2007</text>
</a>
</g>
<!-- Node22&#45;&gt;Node23 -->
<g id="edge44" class="edge"><title>Node22&#45;&gt;Node23</title>
<path fill="none" stroke="midnightblue" d="M309.086,-329C324.759,-329 341.238,-329 356.438,-329"/>
<polygon fill="midnightblue" stroke="midnightblue" points="308.924,-325.5 298.924,-329 308.924,-332.5 308.924,-325.5"/>
</g>
<!-- Node24 -->
<g id="node47" class="node"><title>Node24</title>
<a xlink:href="structant_1_1expconfig_1_1detector_1_1_trigger__2014.html" target="_top" xlink:title="ant::expconfig::detector\l::Trigger_2014">
<polygon fill="white" stroke="black" points="356.5,-260 356.5,-294 475.5,-294 475.5,-260 356.5,-260"/>
<text text-anchor="start" x="364.5" y="-281" font-family="Helvetica,sans-Serif" font-size="10.00">ant::expconfig::detector</text>
<text text-anchor="middle" x="416" y="-268" font-family="Helvetica,sans-Serif" font-size="10.00">::Trigger_2014</text>
</a>
</g>
<!-- Node22&#45;&gt;Node24 -->
<g id="edge46" class="edge"><title>Node22&#45;&gt;Node24</title>
<path fill="none" stroke="midnightblue" d="M306.747,-309.097C323.617,-304.141 341.555,-298.871 357.913,-294.065"/>
<polygon fill="midnightblue" stroke="midnightblue" points="305.564,-305.796 296.956,-311.973 307.538,-312.513 305.564,-305.796"/>
</g>
<!-- Node26 -->
<g id="node51" class="node"><title>Node26</title>
<a xlink:href="classant_1_1expconfig_1_1setup_1_1_setup__2007___base.html" target="_top" xlink:title="Common base class for all Setups of the 2014 Ent Point Tagger beam times. ">
<polygon fill="white" stroke="black" points="362,-208 362,-242 470,-242 470,-208 362,-208"/>
<text text-anchor="start" x="370" y="-229" font-family="Helvetica,sans-Serif" font-size="10.00">ant::expconfig::setup</text>
<text text-anchor="middle" x="416" y="-216" font-family="Helvetica,sans-Serif" font-size="10.00">::Setup_2007_Base</text>
</a>
</g>
<!-- Node25&#45;&gt;Node26 -->
<g id="edge50" class="edge"><title>Node25&#45;&gt;Node26</title>
<path fill="none" stroke="midnightblue" d="M269.127,-162.171C290.848,-172.912 320.976,-187.409 348,-199 354.969,-201.989 362.407,-205.005 369.711,-207.872"/>
<polygon fill="midnightblue" stroke="midnightblue" points="270.587,-158.988 260.074,-157.671 267.471,-165.256 270.587,-158.988"/>
</g>
<!-- Node29 -->
<g id="node57" class="node"><title>Node29</title>
<a xlink:href="classant_1_1expconfig_1_1setup_1_1_setup__2012__12___compton.html" target="_top" xlink:title="ant::expconfig::setup\l::Setup_2012_12_Compton">
<polygon fill="white" stroke="black" points="348.5,-156 348.5,-190 483.5,-190 483.5,-156 348.5,-156"/>
<text text-anchor="start" x="356.5" y="-177" font-family="Helvetica,sans-Serif" font-size="10.00">ant::expconfig::setup</text>
<text text-anchor="middle" x="416" y="-164" font-family="Helvetica,sans-Serif" font-size="10.00">::Setup_2012_12_Compton</text>
</a>
</g>
<!-- Node25&#45;&gt;Node29 -->
<g id="edge56" class="edge"><title>Node25&#45;&gt;Node29</title>
<path fill="none" stroke="midnightblue" d="M304.284,-156.59C318.606,-158.694 333.8,-160.925 348.218,-163.043"/>
<polygon fill="midnightblue" stroke="midnightblue" points="304.436,-153.075 294.034,-155.084 303.419,-160 304.436,-153.075"/>
</g>
<!-- Node30 -->
<g id="node59" class="node"><title>Node30</title>
<a xlink:href="classant_1_1expconfig_1_1setup_1_1_setup__2014___e_p_t.html" target="_top" xlink:title="Common base class for all Setups of the 2014 Ent Point Tagger beam times. ">
<polygon fill="white" stroke="black" points="362,-104 362,-138 470,-138 470,-104 362,-104"/>
<text text-anchor="start" x="370" y="-125" font-family="Helvetica,sans-Serif" font-size="10.00">ant::expconfig::setup</text>
<text text-anchor="middle" x="416" y="-112" font-family="Helvetica,sans-Serif" font-size="10.00">::Setup_2014_EPT</text>
</a>
</g>
<!-- Node25&#45;&gt;Node30 -->
<g id="edge58" class="edge"><title>Node25&#45;&gt;Node30</title>
<path fill="none" stroke="midnightblue" d="M304.108,-137.436C323.112,-134.645 343.668,-131.625 361.912,-128.945"/>
<polygon fill="midnightblue" stroke="midnightblue" points="303.419,-134 294.034,-138.916 304.436,-140.925 303.419,-134"/>
</g>
<!-- Node34 -->
<g id="node67" class="node"><title>Node34</title>
<a xlink:href="classant_1_1expconfig_1_1setup_1_1_setup__2015__01___pion.html" target="_top" xlink:title="Ant Setup for Rare Pion Test Beamtime in January 2015 &amp; MC studies. ">
<polygon fill="white" stroke="black" points="358.5,-52 358.5,-86 473.5,-86 473.5,-52 358.5,-52"/>
<text text-anchor="start" x="366.5" y="-73" font-family="Helvetica,sans-Serif" font-size="10.00">ant::expconfig::setup</text>
<text text-anchor="middle" x="416" y="-60" font-family="Helvetica,sans-Serif" font-size="10.00">::Setup_2015_01_Pion</text>
</a>
</g>
<!-- Node25&#45;&gt;Node34 -->
<g id="edge66" class="edge"><title>Node25&#45;&gt;Node34</title>
<path fill="none" stroke="midnightblue" d="M269.127,-131.829C290.848,-121.088 320.976,-106.591 348,-95 354.969,-92.0108 362.407,-88.9946 369.711,-86.1282"/>
<polygon fill="midnightblue" stroke="midnightblue" points="267.471,-128.744 260.074,-136.329 270.587,-135.012 267.471,-128.744"/>
</g>
<!-- Node35 -->
<g id="node69" class="node"><title>Node35</title>
<a xlink:href="classant_1_1expconfig_1_1setup_1_1_setup___c_b_source_calib.html" target="_top" xlink:title="ant::expconfig::setup\l::Setup_CBSourceCalib">
<polygon fill="white" stroke="black" points="355.5,-0 355.5,-34 476.5,-34 476.5,-0 355.5,-0"/>
<text text-anchor="start" x="363.5" y="-21" font-family="Helvetica,sans-Serif" font-size="10.00">ant::expconfig::setup</text>
<text text-anchor="middle" x="416" y="-8" font-family="Helvetica,sans-Serif" font-size="10.00">::Setup_CBSourceCalib</text>
</a>
</g>
<!-- Node25&#45;&gt;Node35 -->
<g id="edge68" class="edge"><title>Node25&#45;&gt;Node35</title>
<path fill="none" stroke="midnightblue" d="M254.214,-128.528C273.828,-105.729 309.965,-67.0356 348,-43 353.235,-39.6916 358.958,-36.6972 364.789,-34.0177"/>
<polygon fill="midnightblue" stroke="midnightblue" points="251.321,-126.529 247.535,-136.424 256.665,-131.049 251.321,-126.529"/>
</g>
<!-- Node27 -->
<g id="node53" class="node"><title>Node27</title>
<a xlink:href="classant_1_1expconfig_1_1setup_1_1_setup__2007__06.html" target="_top" xlink:title="Ant Setup for the Juni 2007 beam time. ">
<polygon fill="white" stroke="black" points="536,-260 536,-294 644,-294 644,-260 536,-260"/>
<text text-anchor="start" x="544" y="-281" font-family="Helvetica,sans-Serif" font-size="10.00">ant::expconfig::setup</text>
<text text-anchor="middle" x="590" y="-268" font-family="Helvetica,sans-Serif" font-size="10.00">::Setup_2007_06</text>
</a>
</g>
<!-- Node26&#45;&gt;Node27 -->
<g id="edge52" class="edge"><title>Node26&#45;&gt;Node27</title>
<path fill="none" stroke="midnightblue" d="M479.862,-244.085C498.274,-249.588 518.177,-255.536 535.933,-260.842"/>
<polygon fill="midnightblue" stroke="midnightblue" points="480.684,-240.678 470.101,-241.168 478.68,-247.385 480.684,-240.678"/>
</g>
<!-- Node28 -->
<g id="node55" class="node"><title>Node28</title>
<a xlink:href="classant_1_1expconfig_1_1setup_1_1_setup__2007__07.html" target="_top" xlink:title="Ant Setup for the July 2007 beam time. ">
<polygon fill="white" stroke="black" points="536,-208 536,-242 644,-242 644,-208 536,-208"/>
<text text-anchor="start" x="544" y="-229" font-family="Helvetica,sans-Serif" font-size="10.00">ant::expconfig::setup</text>
<text text-anchor="middle" x="590" y="-216" font-family="Helvetica,sans-Serif" font-size="10.00">::Setup_2007_07</text>
</a>
</g>
<!-- Node26&#45;&gt;Node28 -->
<g id="edge54" class="edge"><title>Node26&#45;&gt;Node28</title>
<path fill="none" stroke="midnightblue" d="M480.117,-225C498.458,-225 518.259,-225 535.933,-225"/>
<polygon fill="midnightblue" stroke="midnightblue" points="480.101,-221.5 470.101,-225 480.101,-228.5 480.101,-221.5"/>
</g>
<!-- Node31 -->
<g id="node61" class="node"><title>Node31</title>
<a xlink:href="classant_1_1expconfig_1_1setup_1_1_setup__2014__07___e_p_t___prod.html" target="_top" xlink:title="Ant Setup for the July 2014 End Point Tagger beam time. ">
<polygon fill="white" stroke="black" points="520,-156 520,-190 660,-190 660,-156 520,-156"/>
<text text-anchor="start" x="528" y="-177" font-family="Helvetica,sans-Serif" font-size="10.00">ant::expconfig::setup</text>
<text text-anchor="middle" x="590" y="-164" font-family="Helvetica,sans-Serif" font-size="10.00">::Setup_2014_07_EPT_Prod</text>
</a>
</g>
<!-- Node30&#45;&gt;Node31 -->
<g id="edge60" class="edge"><title>Node30&#45;&gt;Node31</title>
<path fill="none" stroke="midnightblue" d="M480.117,-140.161C497.422,-145.333 516.028,-150.894 532.92,-155.942"/>
<polygon fill="midnightblue" stroke="midnightblue" points="480.684,-136.678 470.101,-137.168 478.68,-143.385 480.684,-136.678"/>
</g>
<!-- Node32 -->
<g id="node63" class="node"><title>Node32</title>
<a xlink:href="classant_1_1expconfig_1_1setup_1_1_setup__2014__10___e_p_t___prod.html" target="_top" xlink:title="Ant Setup for the October 2014 End Point Tagger beam time. ">
<polygon fill="white" stroke="black" points="520,-104 520,-138 660,-138 660,-104 520,-104"/>
<text text-anchor="start" x="528" y="-125" font-family="Helvetica,sans-Serif" font-size="10.00">ant::expconfig::setup</text>
<text text-anchor="middle" x="590" y="-112" font-family="Helvetica,sans-Serif" font-size="10.00">::Setup_2014_10_EPT_Prod</text>
</a>
</g>
<!-- Node30&#45;&gt;Node32 -->
<g id="edge62" class="edge"><title>Node30&#45;&gt;Node32</title>
<path fill="none" stroke="midnightblue" d="M480.277,-121C493.188,-121 506.816,-121 519.913,-121"/>
<polygon fill="midnightblue" stroke="midnightblue" points="480.101,-117.5 470.101,-121 480.101,-124.5 480.101,-117.5"/>
</g>
<!-- Node33 -->
<g id="node65" class="node"><title>Node33</title>
<a xlink:href="classant_1_1expconfig_1_1setup_1_1_setup__2014__12___e_p_t___prod.html" target="_top" xlink:title="Ant Setup for the December 2014 End Point Tagger beam time. ">
<polygon fill="white" stroke="black" points="520,-52 520,-86 660,-86 660,-52 520,-52"/>
<text text-anchor="start" x="528" y="-73" font-family="Helvetica,sans-Serif" font-size="10.00">ant::expconfig::setup</text>
<text text-anchor="middle" x="590" y="-60" font-family="Helvetica,sans-Serif" font-size="10.00">::Setup_2014_12_EPT_Prod</text>
</a>
</g>
<!-- Node30&#45;&gt;Node33 -->
<g id="edge64" class="edge"><title>Node30&#45;&gt;Node33</title>
<path fill="none" stroke="midnightblue" d="M480.117,-101.839C497.422,-96.6668 516.028,-91.1065 532.92,-86.0582"/>
<polygon fill="midnightblue" stroke="midnightblue" points="478.68,-98.615 470.101,-104.832 480.684,-105.322 478.68,-98.615"/>
</g>
</g>
</svg>
