<?xml version="1.0" encoding="UTF-8" standalone="no"?>
<!DOCTYPE svg PUBLIC "-//W3C//DTD SVG 1.1//EN"
 "http://www.w3.org/Graphics/SVG/1.1/DTD/svg11.dtd">
<!-- Generated by graphviz version 2.26.3 (20100126.1600)
 -->
<!-- Title: ant::analysis::physics::IMPlots Pages: 1 -->
<svg width="726pt" height="132pt"
 viewBox="0.00 0.00 726.00 132.00" xmlns="http://www.w3.org/2000/svg" xmlns:xlink="http://www.w3.org/1999/xlink">
<g id="graph1" class="graph" transform="scale(1 1) rotate(0) translate(4 128)">
<title>ant::analysis::physics::IMPlots</title>
<polygon fill="white" stroke="white" points="-4,5 -4,-128 723,-128 723,5 -4,5"/>
<!-- Node1 -->
<g id="node1" class="node"><title>Node1</title>
<polygon fill="#bfbfbf" stroke="black" points="606,-45 606,-79 718,-79 718,-45 606,-45"/>
<text text-anchor="start" x="614" y="-66" font-family="Helvetica,sans-Serif" font-size="10.00">ant::analysis::physics</text>
<text text-anchor="middle" x="662" y="-53" font-family="Helvetica,sans-Serif" font-size="10.00">::IMPlots</text>
</g>
<!-- Node2 -->
<g id="node2" class="node"><title>Node2</title>
<a xlink:href="classant_1_1analysis_1_1_physics.html" target="_top" xlink:title="ant::analysis::Physics">
<polygon fill="white" stroke="black" points="431.5,-93.5 431.5,-114.5 544.5,-114.5 544.5,-93.5 431.5,-93.5"/>
<text text-anchor="middle" x="488" y="-101.5" font-family="Helvetica,sans-Serif" font-size="10.00">ant::analysis::Physics</text>
</a>
</g>
<!-- Node2&#45;&gt;Node1 -->
<g id="edge2" class="edge"><title>Node2&#45;&gt;Node1</title>
<path fill="none" stroke="midnightblue" d="M541.659,-91.0479C562.042,-86.1278 585.302,-80.5132 605.905,-75.5402"/>
<polygon fill="midnightblue" stroke="midnightblue" points="540.807,-87.6529 531.908,-93.4016 542.45,-94.4574 540.807,-87.6529"/>
</g>
<!-- Node3 -->
<g id="node4" class="node"><title>Node3</title>
<a xlink:href="classant_1_1analysis_1_1_histogram_factory.html" target="_top" xlink:title="ant::analysis::Histogram\lFactory">
<polygon fill="white" stroke="black" points="203.5,-90 203.5,-124 326.5,-124 326.5,-90 203.5,-90"/>
<text text-anchor="start" x="211.5" y="-111" font-family="Helvetica,sans-Serif" font-size="10.00">ant::analysis::Histogram</text>
<text text-anchor="middle" x="265" y="-98" font-family="Helvetica,sans-Serif" font-size="10.00">Factory</text>
</a>
</g>
<!-- Node3&#45;&gt;Node2 -->
<g id="edge4" class="edge"><title>Node3&#45;&gt;Node2</title>
<path fill="none" stroke="#9a32cd" stroke-dasharray="5,2" d="M336.712,-106.035C367.313,-105.624 402.517,-105.15 431.261,-104.763"/>
<polygon fill="#9a32cd" stroke="#9a32cd" points="336.478,-102.538 326.526,-106.172 336.572,-109.537 336.478,-102.538"/>
<text text-anchor="middle" x="378" y="-109" font-family="Helvetica,sans-Serif" font-size="10.00"> HistFac</text>
</g>
<!-- Node4 -->
<g id="node6" class="node"><title>Node4</title>
<polygon fill="white" stroke="#bfbfbf" points="418,-0 418,-34 558,-34 558,-0 418,-0"/>
<text text-anchor="start" x="426" y="-21" font-family="Helvetica,sans-Serif" font-size="10.00">std::vector&lt; PromptRandom</text>
<text text-anchor="middle" x="488" y="-8" font-family="Helvetica,sans-Serif" font-size="10.00">::Hist1 &gt;</text>
</g>
<!-- Node4&#45;&gt;Node1 -->
<g id="edge6" class="edge"><title>Node4&#45;&gt;Node1</title>
<path fill="none" stroke="#9a32cd" stroke-dasharray="5,2" d="M567.987,-30.1276C574.79,-31.628 581.536,-33.2528 588,-35 598.165,-37.7475 608.911,-41.2849 618.967,-44.8885"/>
<polygon fill="#9a32cd" stroke="#9a32cd" points="568.515,-26.662 558.008,-28.0188 567.068,-33.5107 568.515,-26.662"/>
<text text-anchor="middle" x="582" y="-39" font-family="Helvetica,sans-Serif" font-size="10.00"> m</text>
</g>
<!-- Node5 -->
<g id="node8" class="node"><title>Node5</title>
<a xlink:href="structant_1_1analysis_1_1_prompt_random_1_1_hist1.html" target="_top" xlink:title="ant::analysis::PromptRandom\l::Hist1">
<polygon fill="white" stroke="black" points="192,-0 192,-34 338,-34 338,-0 192,-0"/>
<text text-anchor="start" x="200" y="-21" font-family="Helvetica,sans-Serif" font-size="10.00">ant::analysis::PromptRandom</text>
<text text-anchor="middle" x="265" y="-8" font-family="Helvetica,sans-Serif" font-size="10.00">::Hist1</text>
</a>
</g>
<!-- Node5&#45;&gt;Node4 -->
<g id="edge8" class="edge"><title>Node5&#45;&gt;Node4</title>
<path fill="none" stroke="#9a32cd" stroke-dasharray="5,2" d="M348.082,-17C371.036,-17 395.712,-17 417.853,-17"/>
<polygon fill="#9a32cd" stroke="#9a32cd" points="348.019,-13.5001 338.019,-17 348.019,-20.5001 348.019,-13.5001"/>
<text text-anchor="middle" x="378" y="-21" font-family="Helvetica,sans-Serif" font-size="10.00"> elements</text>
</g>
<!-- Node6 -->
<g id="node10" class="node"><title>Node6</title>
<a xlink:href="classant_1_1analysis_1_1_prompt_random_1_1_switch.html" target="_top" xlink:title="ant::analysis::PromptRandom\l::Switch">
<polygon fill="white" stroke="black" points="0,-27 0,-61 146,-61 146,-27 0,-27"/>
<text text-anchor="start" x="8" y="-48" font-family="Helvetica,sans-Serif" font-size="10.00">ant::analysis::PromptRandom</text>
<text text-anchor="middle" x="73" y="-35" font-family="Helvetica,sans-Serif" font-size="10.00">::Switch</text>
</a>
</g>
<!-- Node6&#45;&gt;Node1 -->
<g id="edge12" class="edge"><title>Node6&#45;&gt;Node1</title>
<path fill="none" stroke="#9a32cd" stroke-dasharray="5,2" d="M156.22,-47.7114C158.843,-47.8113 161.442,-47.9078 164,-48 324.34,-53.7774 513.791,-58.5329 605.978,-60.714"/>
<polygon fill="#9a32cd" stroke="#9a32cd" points="156.139,-44.2056 146.009,-47.3109 155.864,-51.2002 156.139,-44.2056"/>
<text text-anchor="middle" x="378" y="-60" font-family="Helvetica,sans-Serif" font-size="10.00"> prs</text>
</g>
<!-- Node6&#45;&gt;Node5 -->
<g id="edge10" class="edge"><title>Node6&#45;&gt;Node5</title>
<path fill="none" stroke="#9a32cd" stroke-dasharray="5,2" d="M156.394,-32.2728C168.163,-30.6176 180.191,-28.9263 191.751,-27.3007"/>
<polygon fill="#9a32cd" stroke="#9a32cd" points="155.55,-28.8569 146.135,-33.7154 156.525,-35.7887 155.55,-28.8569"/>
<text text-anchor="middle" x="169" y="-35" font-family="Helvetica,sans-Serif" font-size="10.00"> d</text>
</g>
</g>
</svg>
