<?xml version="1.0" encoding="UTF-8" standalone="no"?>
<!DOCTYPE svg PUBLIC "-//W3C//DTD SVG 1.1//EN"
 "http://www.w3.org/Graphics/SVG/1.1/DTD/svg11.dtd">
<!-- Generated by graphviz version 2.26.3 (20100126.1600)
 -->
<!-- Title: ant::analysis::input::ParticleInput Pages: 1 -->
<svg width="201pt" height="204pt"
 viewBox="0.00 0.00 201.00 204.00" xmlns="http://www.w3.org/2000/svg" xmlns:xlink="http://www.w3.org/1999/xlink">
<g id="graph1" class="graph" transform="scale(1 1) rotate(0) translate(4 200)">
<title>ant::analysis::input::ParticleInput</title>
<polygon fill="white" stroke="white" points="-4,5 -4,-200 198,-200 198,5 -4,5"/>
<!-- Node1 -->
<g id="node1" class="node"><title>Node1</title>
<polygon fill="#bfbfbf" stroke="black" points="31.5,-1 31.5,-35 130.5,-35 130.5,-1 31.5,-1"/>
<text text-anchor="start" x="39.5" y="-22" font-family="Helvetica,sans-Serif" font-size="10.00">ant::analysis::input</text>
<text text-anchor="middle" x="81" y="-9" font-family="Helvetica,sans-Serif" font-size="10.00">::ParticleInput</text>
</g>
<!-- Node2 -->
<g id="node2" class="node"><title>Node2</title>
<a xlink:href="classant_1_1analysis_1_1input_1_1_base_input_module.html" target="_top" xlink:title="ant::analysis::input\l::BaseInputModule">
<polygon fill="white" stroke="black" points="-0.5,-87 -0.5,-121 98.5,-121 98.5,-87 -0.5,-87"/>
<text text-anchor="start" x="7.5" y="-108" font-family="Helvetica,sans-Serif" font-size="10.00">ant::analysis::input</text>
<text text-anchor="middle" x="49" y="-95" font-family="Helvetica,sans-Serif" font-size="10.00">::BaseInputModule</text>
</a>
</g>
<!-- Node2&#45;&gt;Node1 -->
<g id="edge2" class="edge"><title>Node2&#45;&gt;Node1</title>
<path fill="none" stroke="midnightblue" d="M58.9925,-77.1453C64.1048,-63.4059 70.1743,-47.0939 74.6432,-35.084"/>
<polygon fill="midnightblue" stroke="midnightblue" points="55.6828,-76.0038 55.4757,-86.5966 62.2434,-78.445 55.6828,-76.0038"/>
</g>
<!-- Node3 -->
<g id="node4" class="node"><title>Node3</title>
<a xlink:title="STL class. ">
<polygon fill="white" stroke="#bfbfbf" points="116,-93.5 116,-114.5 176,-114.5 176,-93.5 116,-93.5"/>
<text text-anchor="middle" x="146" y="-101.5" font-family="Helvetica,sans-Serif" font-size="10.00">std::string</text>
</a>
</g>
<!-- Node3&#45;&gt;Node1 -->
<g id="edge4" class="edge"><title>Node3&#45;&gt;Node1</title>
<path fill="none" stroke="#9a32cd" stroke-dasharray="5,2" d="M131.971,-85.4392C120.692,-70.5157 104.969,-49.7127 93.978,-35.1709"/>
<polygon fill="#9a32cd" stroke="#9a32cd" points="129.208,-87.5874 138.03,-93.4547 134.792,-83.3666 129.208,-87.5874"/>
<text text-anchor="middle" x="131" y="-58.5" font-family="Helvetica,sans-Serif" font-size="10.00"> name</text>
</g>
<!-- Node4 -->
<g id="node6" class="node"><title>Node4</title>
<a xlink:title="STL class. ">
<polygon fill="white" stroke="#bfbfbf" points="98.5,-161 98.5,-195 193.5,-195 193.5,-161 98.5,-161"/>
<text text-anchor="start" x="106.5" y="-182" font-family="Helvetica,sans-Serif" font-size="10.00">std::basic_string&lt;</text>
<text text-anchor="middle" x="146" y="-169" font-family="Helvetica,sans-Serif" font-size="10.00"> char &gt;</text>
</a>
</g>
<!-- Node4&#45;&gt;Node3 -->
<g id="edge6" class="edge"><title>Node4&#45;&gt;Node3</title>
<path fill="none" stroke="midnightblue" d="M146,-150.506C146,-138.13 146,-124.232 146,-114.879"/>
<polygon fill="midnightblue" stroke="midnightblue" points="142.5,-150.837 146,-160.837 149.5,-150.837 142.5,-150.837"/>
</g>
</g>
</svg>
