<?xml version="1.0" encoding="UTF-8" standalone="no"?>
<!DOCTYPE svg PUBLIC "-//W3C//DTD SVG 1.1//EN"
 "http://www.w3.org/Graphics/SVG/1.1/DTD/svg11.dtd">
<!-- Generated by graphviz version 2.26.3 (20100126.1600)
 -->
<!-- Title: ant::analysis::physics::InterpolatedPulls Pages: 1 -->
<svg width="1644pt" height="244pt"
 viewBox="0.00 0.00 1644.00 244.00" xmlns="http://www.w3.org/2000/svg" xmlns:xlink="http://www.w3.org/1999/xlink">
<g id="graph1" class="graph" transform="scale(1 1) rotate(0) translate(4 240)">
<title>ant::analysis::physics::InterpolatedPulls</title>
<polygon fill="white" stroke="white" points="-4,5 -4,-240 1641,-240 1641,5 -4,5"/>
<!-- Node1 -->
<g id="node1" class="node"><title>Node1</title>
<polygon fill="#bfbfbf" stroke="black" points="1524,-101 1524,-135 1636,-135 1636,-101 1524,-101"/>
<text text-anchor="start" x="1532" y="-122" font-family="Helvetica,sans-Serif" font-size="10.00">ant::analysis::physics</text>
<text text-anchor="middle" x="1580" y="-109" font-family="Helvetica,sans-Serif" font-size="10.00">::InterpolatedPulls</text>
</g>
<!-- Node2 -->
<g id="node2" class="node"><title>Node2</title>
<a xlink:href="classant_1_1analysis_1_1_physics.html" target="_top" xlink:title="ant::analysis::Physics">
<polygon fill="white" stroke="black" points="1292.5,-194.5 1292.5,-215.5 1405.5,-215.5 1405.5,-194.5 1292.5,-194.5"/>
<text text-anchor="middle" x="1349" y="-202.5" font-family="Helvetica,sans-Serif" font-size="10.00">ant::analysis::Physics</text>
</a>
</g>
<!-- Node2&#45;&gt;Node1 -->
<g id="edge2" class="edge"><title>Node2&#45;&gt;Node1</title>
<path fill="none" stroke="midnightblue" d="M1390.97,-191.205C1422.76,-180.535 1467.41,-165.083 1506,-150 1517.73,-145.415 1530.36,-140.098 1541.81,-135.132"/>
<polygon fill="midnightblue" stroke="midnightblue" points="1389.49,-188.006 1381.12,-194.494 1391.71,-194.645 1389.49,-188.006"/>
</g>
<!-- Node3 -->
<g id="node4" class="node"><title>Node3</title>
<a xlink:href="classant_1_1analysis_1_1_histogram_factory.html" target="_top" xlink:title="ant::analysis::Histogram\lFactory">
<polygon fill="white" stroke="black" points="1056.5,-202 1056.5,-236 1179.5,-236 1179.5,-202 1056.5,-202"/>
<text text-anchor="start" x="1064.5" y="-223" font-family="Helvetica,sans-Serif" font-size="10.00">ant::analysis::Histogram</text>
<text text-anchor="middle" x="1118" y="-210" font-family="Helvetica,sans-Serif" font-size="10.00">Factory</text>
</a>
</g>
<!-- Node3&#45;&gt;Node2 -->
<g id="edge4" class="edge"><title>Node3&#45;&gt;Node2</title>
<path fill="none" stroke="#9a32cd" stroke-dasharray="5,2" d="M1189.66,-214.657C1222.7,-212.655 1261.36,-210.312 1292.32,-208.435"/>
<polygon fill="#9a32cd" stroke="#9a32cd" points="1189.37,-211.168 1179.6,-215.267 1189.79,-218.155 1189.37,-211.168"/>
<text text-anchor="middle" x="1228" y="-218" font-family="Helvetica,sans-Serif" font-size="10.00"> HistFac</text>
</g>
<!-- Node4 -->
<g id="node6" class="node"><title>Node4</title>
<a xlink:href="classant_1_1analysis_1_1utils_1_1_kin_fitter.html" target="_top" xlink:title="ant::analysis::utils\l::KinFitter">
<polygon fill="white" stroke="black" points="734,-82 734,-116 830,-116 830,-82 734,-82"/>
<text text-anchor="start" x="742" y="-103" font-family="Helvetica,sans-Serif" font-size="10.00">ant::analysis::utils</text>
<text text-anchor="middle" x="782" y="-90" font-family="Helvetica,sans-Serif" font-size="10.00">::KinFitter</text>
</a>
</g>
<!-- Node4&#45;&gt;Node1 -->
<g id="edge6" class="edge"><title>Node4&#45;&gt;Node1</title>
<path fill="none" stroke="#9a32cd" stroke-dasharray="5,2" d="M840.815,-99C879.048,-99 929.978,-99 975,-99 975,-99 975,-99 1349,-99 1408.76,-99 1476.91,-105.393 1523.62,-110.763"/>
<polygon fill="#9a32cd" stroke="#9a32cd" points="840.383,-95.5001 830.383,-99 840.383,-102.5 840.383,-95.5001"/>
<text text-anchor="middle" x="1118" y="-103" font-family="Helvetica,sans-Serif" font-size="10.00"> fitter</text>
</g>
<!-- Node5 -->
<g id="node8" class="node"><title>Node5</title>
<a xlink:href="classant_1_1analysis_1_1utils_1_1_fitter.html" target="_top" xlink:title="ant::analysis::utils\l::Fitter">
<polygon fill="white" stroke="black" points="521,-118 521,-152 617,-152 617,-118 521,-118"/>
<text text-anchor="start" x="529" y="-139" font-family="Helvetica,sans-Serif" font-size="10.00">ant::analysis::utils</text>
<text text-anchor="middle" x="569" y="-126" font-family="Helvetica,sans-Serif" font-size="10.00">::Fitter</text>
</a>
</g>
<!-- Node5&#45;&gt;Node4 -->
<g id="edge8" class="edge"><title>Node5&#45;&gt;Node4</title>
<path fill="none" stroke="midnightblue" d="M627.166,-125.169C660.608,-119.517 702.12,-112.501 733.74,-107.157"/>
<polygon fill="midnightblue" stroke="midnightblue" points="626.344,-121.758 617.067,-126.876 627.51,-128.66 626.344,-121.758"/>
</g>
<!-- Node6 -->
<g id="node10" class="node"><title>Node6</title>
<polygon fill="white" stroke="#bfbfbf" points="298,-124.5 298,-145.5 438,-145.5 438,-124.5 298,-124.5"/>
<text text-anchor="middle" x="368" y="-132.5" font-family="Helvetica,sans-Serif" font-size="10.00">std::unique_ptr&lt; APLCON &gt;</text>
</g>
<!-- Node6&#45;&gt;Node5 -->
<g id="edge10" class="edge"><title>Node6&#45;&gt;Node5</title>
<path fill="none" stroke="#9a32cd" stroke-dasharray="5,2" d="M448.067,-135C472.653,-135 498.942,-135 520.708,-135"/>
<polygon fill="#9a32cd" stroke="#9a32cd" points="448.018,-131.5 438.018,-135 448.018,-138.5 448.018,-131.5"/>
<text text-anchor="middle" x="472" y="-139" font-family="Helvetica,sans-Serif" font-size="10.00"> aplcon</text>
</g>
<!-- Node7 -->
<g id="node12" class="node"><title>Node7</title>
<polygon fill="white" stroke="#bfbfbf" points="506.5,-0.5 506.5,-47.5 631.5,-47.5 631.5,-0.5 506.5,-0.5"/>
<text text-anchor="start" x="514.5" y="-34.5" font-family="Helvetica,sans-Serif" font-size="10.00">std::unique_ptr&lt; ant</text>
<text text-anchor="start" x="514.5" y="-21.5" font-family="Helvetica,sans-Serif" font-size="10.00">::analysis::utils::KinFitter</text>
<text text-anchor="middle" x="569" y="-8.5" font-family="Helvetica,sans-Serif" font-size="10.00">::BeamE_t &gt;</text>
</g>
<!-- Node7&#45;&gt;Node4 -->
<g id="edge12" class="edge"><title>Node7&#45;&gt;Node4</title>
<path fill="none" stroke="#9a32cd" stroke-dasharray="5,2" d="M641.493,-49.5258C671.982,-60.2613 706.625,-72.4595 733.883,-82.0575"/>
<polygon fill="#9a32cd" stroke="#9a32cd" points="642.35,-46.1168 631.755,-46.0968 640.025,-52.7195 642.35,-46.1168"/>
<text text-anchor="middle" x="672" y="-70" font-family="Helvetica,sans-Serif" font-size="10.00"> BeamE</text>
</g>
<!-- Node8 -->
<g id="node14" class="node"><title>Node8</title>
<a xlink:href="structant_1_1analysis_1_1utils_1_1_kin_fitter_1_1_beam_e__t.html" target="_top" xlink:title="ant::analysis::utils\l::KinFitter::BeamE_t">
<polygon fill="white" stroke="black" points="315,-56 315,-90 421,-90 421,-56 315,-56"/>
<text text-anchor="start" x="323" y="-77" font-family="Helvetica,sans-Serif" font-size="10.00">ant::analysis::utils</text>
<text text-anchor="middle" x="368" y="-64" font-family="Helvetica,sans-Serif" font-size="10.00">::KinFitter::BeamE_t</text>
</a>
</g>
<!-- Node8&#45;&gt;Node7 -->
<g id="edge14" class="edge"><title>Node8&#45;&gt;Node7</title>
<path fill="none" stroke="#9a32cd" stroke-dasharray="5,2" d="M430.807,-57.6887C454.865,-51.824 482.292,-45.1377 506.336,-39.2763"/>
<polygon fill="#9a32cd" stroke="#9a32cd" points="429.96,-54.2928 421.073,-60.0617 431.618,-61.0936 429.96,-54.2928"/>
<text text-anchor="middle" x="472" y="-56" font-family="Helvetica,sans-Serif" font-size="10.00"> ptr</text>
</g>
<!-- Node9 -->
<g id="node16" class="node"><title>Node9</title>
<a xlink:href="structant_1_1analysis_1_1utils_1_1_fitter_1_1_fit_variable.html" target="_top" xlink:title="ant::analysis::utils\l::Fitter::FitVariable">
<polygon fill="white" stroke="black" points="134,-56 134,-90 232,-90 232,-56 134,-56"/>
<text text-anchor="start" x="142" y="-77" font-family="Helvetica,sans-Serif" font-size="10.00">ant::analysis::utils</text>
<text text-anchor="middle" x="183" y="-64" font-family="Helvetica,sans-Serif" font-size="10.00">::Fitter::FitVariable</text>
</a>
</g>
<!-- Node9&#45;&gt;Node8 -->
<g id="edge16" class="edge"><title>Node9&#45;&gt;Node8</title>
<path fill="none" stroke="midnightblue" d="M242.203,-73C265.516,-73 292.085,-73 314.779,-73"/>
<polygon fill="midnightblue" stroke="midnightblue" points="242.091,-69.5001 232.091,-73 242.091,-76.5001 242.091,-69.5001"/>
</g>
<!-- Node10 -->
<g id="node18" class="node"><title>Node10</title>
<a xlink:title="STL class. ">
<polygon fill="white" stroke="#bfbfbf" points="153,-131.5 153,-152.5 213,-152.5 213,-131.5 153,-131.5"/>
<text text-anchor="middle" x="183" y="-139.5" font-family="Helvetica,sans-Serif" font-size="10.00">std::string</text>
</a>
</g>
<!-- Node10&#45;&gt;Node8 -->
<g id="edge18" class="edge"><title>Node10&#45;&gt;Node8</title>
<path fill="none" stroke="#9a32cd" stroke-dasharray="5,2" d="M220.984,-127.833C250.323,-116.89 291.038,-101.705 322.183,-90.0884"/>
<polygon fill="#9a32cd" stroke="#9a32cd" points="219.647,-124.596 211.501,-131.37 222.093,-131.155 219.647,-124.596"/>
<text text-anchor="middle" x="265" y="-120" font-family="Helvetica,sans-Serif" font-size="10.00"> Name</text>
</g>
<!-- Node18 -->
<g id="node34" class="node"><title>Node18</title>
<a xlink:href="structant_1_1_wrap_t_tree_1_1_r_o_o_t__branchinfo__t.html" target="_top" xlink:title="ant::WrapTTree::ROOT\l_branchinfo_t">
<polygon fill="white" stroke="black" points="308.5,-165 308.5,-199 427.5,-199 427.5,-165 308.5,-165"/>
<text text-anchor="start" x="316.5" y="-186" font-family="Helvetica,sans-Serif" font-size="10.00">ant::WrapTTree::ROOT</text>
<text text-anchor="middle" x="368" y="-173" font-family="Helvetica,sans-Serif" font-size="10.00">_branchinfo_t</text>
</a>
</g>
<!-- Node10&#45;&gt;Node18 -->
<g id="edge36" class="edge"><title>Node10&#45;&gt;Node18</title>
<path fill="none" stroke="#9a32cd" stroke-dasharray="5,2" d="M222.968,-150.642C247.883,-156.029 280.403,-163.06 308.334,-169.099"/>
<polygon fill="#9a32cd" stroke="#9a32cd" points="223.649,-147.208 213.135,-148.516 222.17,-154.05 223.649,-147.208"/>
<text text-anchor="middle" x="265" y="-166" font-family="Helvetica,sans-Serif" font-size="10.00"> Name</text>
</g>
<!-- Node11 -->
<g id="node20" class="node"><title>Node11</title>
<a xlink:title="STL class. ">
<polygon fill="white" stroke="#bfbfbf" points="0.5,-125 0.5,-159 95.5,-159 95.5,-125 0.5,-125"/>
<text text-anchor="start" x="8.5" y="-146" font-family="Helvetica,sans-Serif" font-size="10.00">std::basic_string&lt;</text>
<text text-anchor="middle" x="48" y="-133" font-family="Helvetica,sans-Serif" font-size="10.00"> char &gt;</text>
</a>
</g>
<!-- Node11&#45;&gt;Node10 -->
<g id="edge20" class="edge"><title>Node11&#45;&gt;Node10</title>
<path fill="none" stroke="midnightblue" d="M106.01,-142C122.079,-142 138.879,-142 152.671,-142"/>
<polygon fill="midnightblue" stroke="midnightblue" points="105.596,-138.5 95.5959,-142 105.596,-145.5 105.596,-138.5"/>
</g>
<!-- Node12 -->
<g id="node22" class="node"><title>Node12</title>
<polygon fill="white" stroke="#bfbfbf" points="508.5,-66 508.5,-100 629.5,-100 629.5,-66 508.5,-66"/>
<text text-anchor="start" x="516.5" y="-87" font-family="Helvetica,sans-Serif" font-size="10.00">std::vector&lt; std::shared</text>
<text text-anchor="middle" x="569" y="-74" font-family="Helvetica,sans-Serif" font-size="10.00">_ptr&lt; FitParticle &gt; &gt;</text>
</g>
<!-- Node12&#45;&gt;Node4 -->
<g id="edge22" class="edge"><title>Node12&#45;&gt;Node4</title>
<path fill="none" stroke="#9a32cd" stroke-dasharray="5,2" d="M639.999,-88.3332C670.769,-90.6446 706.004,-93.2914 733.677,-95.3701"/>
<polygon fill="#9a32cd" stroke="#9a32cd" points="639.986,-84.8225 629.752,-87.5635 639.462,-91.8029 639.986,-84.8225"/>
<text text-anchor="middle" x="672" y="-96" font-family="Helvetica,sans-Serif" font-size="10.00"> Photons</text>
</g>
<!-- Node13 -->
<g id="node24" class="node"><title>Node13</title>
<a xlink:href="classant_1_1analysis_1_1utils_1_1_pulls_writer.html" target="_top" xlink:title="ant::analysis::utils\l::PullsWriter">
<polygon fill="white" stroke="black" points="1301,-127 1301,-161 1397,-161 1397,-127 1301,-127"/>
<text text-anchor="start" x="1309" y="-148" font-family="Helvetica,sans-Serif" font-size="10.00">ant::analysis::utils</text>
<text text-anchor="middle" x="1349" y="-135" font-family="Helvetica,sans-Serif" font-size="10.00">::PullsWriter</text>
</a>
</g>
<!-- Node13&#45;&gt;Node1 -->
<g id="edge24" class="edge"><title>Node13&#45;&gt;Node1</title>
<path fill="none" stroke="#9a32cd" stroke-dasharray="5,2" d="M1407.41,-137.426C1443.1,-133.409 1488.5,-128.299 1523.78,-124.328"/>
<polygon fill="#9a32cd" stroke="#9a32cd" points="1406.69,-133.985 1397.14,-138.581 1407.47,-140.941 1406.69,-133.985"/>
<text text-anchor="middle" x="1473" y="-137" font-family="Helvetica,sans-Serif" font-size="10.00"> pullswriter</text>
</g>
<!-- Node14 -->
<g id="node26" class="node"><title>Node14</title>
<a xlink:href="structant_1_1analysis_1_1utils_1_1_pulls_writer_1_1_pull_tree__t.html" target="_top" xlink:title="ant::analysis::utils\l::PullsWriter::PullTree_t">
<polygon fill="white" stroke="black" points="1057.5,-132 1057.5,-166 1178.5,-166 1178.5,-132 1057.5,-132"/>
<text text-anchor="start" x="1065.5" y="-153" font-family="Helvetica,sans-Serif" font-size="10.00">ant::analysis::utils</text>
<text text-anchor="middle" x="1118" y="-140" font-family="Helvetica,sans-Serif" font-size="10.00">::PullsWriter::PullTree_t</text>
</a>
</g>
<!-- Node14&#45;&gt;Node13 -->
<g id="edge26" class="edge"><title>Node14&#45;&gt;Node13</title>
<path fill="none" stroke="#9a32cd" stroke-dasharray="5,2" d="M1188.75,-145.297C1191.88,-145.186 1194.97,-145.086 1198,-145 1232.33,-144.029 1271.06,-143.789 1300.71,-143.788"/>
<polygon fill="#9a32cd" stroke="#9a32cd" points="1188.56,-141.802 1178.7,-145.688 1188.83,-148.797 1188.56,-141.802"/>
<text text-anchor="middle" x="1228" y="-188" font-family="Helvetica,sans-Serif" font-size="10.00"> proton_cb</text>
<text text-anchor="middle" x="1228" y="-175" font-family="Helvetica,sans-Serif" font-size="10.00">proton_taps</text>
<text text-anchor="middle" x="1228" y="-162" font-family="Helvetica,sans-Serif" font-size="10.00">photons_taps</text>
<text text-anchor="middle" x="1228" y="-149" font-family="Helvetica,sans-Serif" font-size="10.00">photons_cb</text>
</g>
<!-- Node15 -->
<g id="node28" class="node"><title>Node15</title>
<a xlink:href="structant_1_1_wrap_t_tree.html" target="_top" xlink:title="The WrapTTree struct simplifies TTree handling in physics classes. ">
<polygon fill="white" stroke="black" points="932.5,-139.5 932.5,-160.5 1017.5,-160.5 1017.5,-139.5 932.5,-139.5"/>
<text text-anchor="middle" x="975" y="-147.5" font-family="Helvetica,sans-Serif" font-size="10.00">ant::WrapTTree</text>
</a>
</g>
<!-- Node15&#45;&gt;Node14 -->
<g id="edge28" class="edge"><title>Node15&#45;&gt;Node14</title>
<path fill="none" stroke="midnightblue" d="M1027.75,-149.631C1037.4,-149.564 1047.54,-149.493 1057.39,-149.424"/>
<polygon fill="midnightblue" stroke="midnightblue" points="1027.49,-146.133 1017.52,-149.703 1027.54,-153.133 1027.49,-146.133"/>
</g>
<!-- Node16 -->
<g id="node30" class="node"><title>Node16</title>
<polygon fill="white" stroke="#bfbfbf" points="712,-138 712,-172 852,-172 852,-138 712,-138"/>
<text text-anchor="start" x="720" y="-159" font-family="Helvetica,sans-Serif" font-size="10.00">std::vector&lt; ant::WrapTTree</text>
<text text-anchor="middle" x="782" y="-146" font-family="Helvetica,sans-Serif" font-size="10.00">::ROOT_branch_t &gt;</text>
</g>
<!-- Node16&#45;&gt;Node15 -->
<g id="edge30" class="edge"><title>Node16&#45;&gt;Node15</title>
<path fill="none" stroke="#9a32cd" stroke-dasharray="5,2" d="M862.407,-152.917C886.406,-152.295 911.771,-151.638 932.338,-151.105"/>
<polygon fill="#9a32cd" stroke="#9a32cd" points="862.129,-149.423 852.223,-153.181 862.311,-156.42 862.129,-149.423"/>
<text text-anchor="middle" x="892" y="-156" font-family="Helvetica,sans-Serif" font-size="10.00"> branches</text>
</g>
<!-- Node17 -->
<g id="node32" class="node"><title>Node17</title>
<a xlink:href="structant_1_1_wrap_t_tree_1_1_r_o_o_t__branch__t.html" target="_top" xlink:title="ant::WrapTTree::ROOT\l_branch_t">
<polygon fill="white" stroke="black" points="509.5,-170 509.5,-204 628.5,-204 628.5,-170 509.5,-170"/>
<text text-anchor="start" x="517.5" y="-191" font-family="Helvetica,sans-Serif" font-size="10.00">ant::WrapTTree::ROOT</text>
<text text-anchor="middle" x="569" y="-178" font-family="Helvetica,sans-Serif" font-size="10.00">_branch_t</text>
</a>
</g>
<!-- Node17&#45;&gt;Node16 -->
<g id="edge32" class="edge"><title>Node17&#45;&gt;Node16</title>
<path fill="none" stroke="#9a32cd" stroke-dasharray="5,2" d="M638.507,-176.558C662.018,-173.026 688.274,-169.081 711.835,-165.541"/>
<polygon fill="#9a32cd" stroke="#9a32cd" points="637.985,-173.097 628.616,-178.044 639.025,-180.019 637.985,-173.097"/>
<text text-anchor="middle" x="672" y="-178" font-family="Helvetica,sans-Serif" font-size="10.00"> elements</text>
</g>
<!-- Node18&#45;&gt;Node17 -->
<g id="edge34" class="edge"><title>Node18&#45;&gt;Node17</title>
<path fill="none" stroke="midnightblue" d="M437.939,-183.74C461.261,-184.32 487.011,-184.96 509.468,-185.519"/>
<polygon fill="midnightblue" stroke="midnightblue" points="437.846,-180.236 427.762,-183.487 437.672,-187.234 437.846,-180.236"/>
</g>
<!-- Node19 -->
<g id="node37" class="node"><title>Node19</title>
<a xlink:href="classant_1_1analysis_1_1_prompt_random_1_1_switch.html" target="_top" xlink:title="ant::analysis::PromptRandom\l::Switch">
<polygon fill="white" stroke="black" points="1276,-37 1276,-71 1422,-71 1422,-37 1276,-37"/>
<text text-anchor="start" x="1284" y="-58" font-family="Helvetica,sans-Serif" font-size="10.00">ant::analysis::PromptRandom</text>
<text text-anchor="middle" x="1349" y="-45" font-family="Helvetica,sans-Serif" font-size="10.00">::Switch</text>
</a>
</g>
<!-- Node19&#45;&gt;Node1 -->
<g id="edge38" class="edge"><title>Node19&#45;&gt;Node1</title>
<path fill="none" stroke="#9a32cd" stroke-dasharray="5,2" d="M1432.27,-56.6724C1456.54,-59.2747 1482.76,-63.9065 1506,-72 1525,-78.6175 1544.23,-90.775 1558.33,-100.93"/>
<polygon fill="#9a32cd" stroke="#9a32cd" points="1432.29,-53.1585 1422,-55.6772 1431.62,-60.1259 1432.29,-53.1585"/>
<text text-anchor="middle" x="1473" y="-76" font-family="Helvetica,sans-Serif" font-size="10.00"> promptrandom</text>
</g>
</g>
</svg>
