<?xml version="1.0" encoding="UTF-8" standalone="no"?>
<!DOCTYPE svg PUBLIC "-//W3C//DTD SVG 1.1//EN"
 "http://www.w3.org/Graphics/SVG/1.1/DTD/svg11.dtd">
<!-- Generated by graphviz version 2.26.3 (20100126.1600)
 -->
<!-- Title: ant::analysis::physics::EtapProton Pages: 1 -->
<svg width="1456pt" height="257pt"
 viewBox="0.00 0.00 1456.00 257.00" xmlns="http://www.w3.org/2000/svg" xmlns:xlink="http://www.w3.org/1999/xlink">
<g id="graph1" class="graph" transform="scale(1 1) rotate(0) translate(4 253)">
<title>ant::analysis::physics::EtapProton</title>
<polygon fill="white" stroke="white" points="-4,5 -4,-253 1453,-253 1453,5 -4,5"/>
<!-- Node1 -->
<g id="node1" class="node"><title>Node1</title>
<polygon fill="#bfbfbf" stroke="black" points="1336,-133 1336,-167 1448,-167 1448,-133 1336,-133"/>
<text text-anchor="start" x="1344" y="-154" font-family="Helvetica,sans-Serif" font-size="10.00">ant::analysis::physics</text>
<text text-anchor="middle" x="1392" y="-141" font-family="Helvetica,sans-Serif" font-size="10.00">::EtapProton</text>
</g>
<!-- Node2 -->
<g id="node2" class="node"><title>Node2</title>
<a xlink:href="classant_1_1analysis_1_1_physics.html" target="_top" xlink:title="ant::analysis::Physics">
<polygon fill="white" stroke="black" points="1104.5,-218.5 1104.5,-239.5 1217.5,-239.5 1217.5,-218.5 1104.5,-218.5"/>
<text text-anchor="middle" x="1161" y="-226.5" font-family="Helvetica,sans-Serif" font-size="10.00">ant::analysis::Physics</text>
</a>
</g>
<!-- Node2&#45;&gt;Node1 -->
<g id="edge2" class="edge"><title>Node2&#45;&gt;Node1</title>
<path fill="none" stroke="midnightblue" d="M1214.61,-215.794C1245.25,-207.709 1284.2,-196.527 1318,-184 1331.26,-179.087 1345.45,-172.824 1357.82,-167.016"/>
<polygon fill="midnightblue" stroke="midnightblue" points="1213.34,-212.505 1204.55,-218.414 1215.11,-219.279 1213.34,-212.505"/>
</g>
<!-- Node3 -->
<g id="node4" class="node"><title>Node3</title>
<a xlink:href="classant_1_1analysis_1_1_histogram_factory.html" target="_top" xlink:title="ant::analysis::Histogram\lFactory">
<polygon fill="white" stroke="black" points="884.5,-215 884.5,-249 1007.5,-249 1007.5,-215 884.5,-215"/>
<text text-anchor="start" x="892.5" y="-236" font-family="Helvetica,sans-Serif" font-size="10.00">ant::analysis::Histogram</text>
<text text-anchor="middle" x="946" y="-223" font-family="Helvetica,sans-Serif" font-size="10.00">Factory</text>
</a>
</g>
<!-- Node3&#45;&gt;Node2 -->
<g id="edge4" class="edge"><title>Node3&#45;&gt;Node2</title>
<path fill="none" stroke="#9a32cd" stroke-dasharray="5,2" d="M1017.79,-230.998C1045.9,-230.606 1077.69,-230.162 1104.17,-229.793"/>
<polygon fill="#9a32cd" stroke="#9a32cd" points="1017.56,-227.501 1007.61,-231.14 1017.66,-234.5 1017.56,-227.501"/>
<text text-anchor="middle" x="1048" y="-234" font-family="Helvetica,sans-Serif" font-size="10.00"> HistFac</text>
</g>
<!-- Node4 -->
<g id="node6" class="node"><title>Node4</title>
<a xlink:href="classant_1_1_piecewise_interval.html" target="_top" xlink:title="ant::PiecewiseInterval\l\&lt; unsigned \&gt;">
<polygon fill="white" stroke="black" points="1104.5,-163 1104.5,-197 1217.5,-197 1217.5,-163 1104.5,-163"/>
<text text-anchor="start" x="1112.5" y="-184" font-family="Helvetica,sans-Serif" font-size="10.00">ant::PiecewiseInterval</text>
<text text-anchor="middle" x="1161" y="-171" font-family="Helvetica,sans-Serif" font-size="10.00">&lt; unsigned &gt;</text>
</a>
</g>
<!-- Node4&#45;&gt;Node1 -->
<g id="edge6" class="edge"><title>Node4&#45;&gt;Node1</title>
<path fill="none" stroke="#9a32cd" stroke-dasharray="5,2" d="M1227.43,-171.373C1261.68,-166.924 1303,-161.558 1335.67,-157.315"/>
<polygon fill="#9a32cd" stroke="#9a32cd" points="1226.97,-167.902 1217.51,-172.661 1227.88,-174.844 1226.97,-167.902"/>
<text text-anchor="middle" x="1285" y="-171" font-family="Helvetica,sans-Serif" font-size="10.00"> multiplicities</text>
</g>
<!-- Node5 -->
<g id="node8" class="node"><title>Node5</title>
<a xlink:title="STL class. ">
<polygon fill="white" stroke="#bfbfbf" points="894,-163 894,-197 998,-197 998,-163 894,-163"/>
<text text-anchor="start" x="902" y="-184" font-family="Helvetica,sans-Serif" font-size="10.00">std::vector&lt; interval</text>
<text text-anchor="middle" x="946" y="-171" font-family="Helvetica,sans-Serif" font-size="10.00">&lt; unsigned &gt; &gt;</text>
</a>
</g>
<!-- Node5&#45;&gt;Node4 -->
<g id="edge8" class="edge"><title>Node5&#45;&gt;Node4</title>
<path fill="none" stroke="midnightblue" d="M1008.08,-180C1038.38,-180 1074.58,-180 1104.15,-180"/>
<polygon fill="midnightblue" stroke="midnightblue" points="1008.05,-176.5 998.046,-180 1008.05,-183.5 1008.05,-176.5"/>
</g>
<!-- Node6 -->
<g id="node10" class="node"><title>Node6</title>
<polygon fill="white" stroke="#bfbfbf" points="741.5,-169.5 741.5,-190.5 770.5,-190.5 770.5,-169.5 741.5,-169.5"/>
<text text-anchor="middle" x="756" y="-177.5" font-family="Helvetica,sans-Serif" font-size="10.00">T</text>
</g>
<!-- Node6&#45;&gt;Node5 -->
<g id="edge10" class="edge"><title>Node6&#45;&gt;Node5</title>
<path fill="none" stroke="#9a32cd" stroke-dasharray="5,2" d="M780.872,-180C809.383,-180 856.912,-180 893.676,-180"/>
<polygon fill="#9a32cd" stroke="#9a32cd" points="780.594,-176.5 770.593,-180 780.593,-183.5 780.594,-176.5"/>
<text text-anchor="middle" x="844" y="-184" font-family="Helvetica,sans-Serif" font-size="10.00"> elements</text>
</g>
<!-- Node7 -->
<g id="node12" class="node"><title>Node7</title>
<a xlink:href="classant_1_1printable__traits.html" target="_top" xlink:title="ant::printable_traits">
<polygon fill="white" stroke="black" points="896,-123.5 896,-144.5 996,-144.5 996,-123.5 896,-123.5"/>
<text text-anchor="middle" x="946" y="-131.5" font-family="Helvetica,sans-Serif" font-size="10.00">ant::printable_traits</text>
</a>
</g>
<!-- Node7&#45;&gt;Node4 -->
<g id="edge12" class="edge"><title>Node7&#45;&gt;Node4</title>
<path fill="none" stroke="midnightblue" d="M1005.11,-146.648C1036.05,-153.266 1073.74,-161.33 1104.31,-167.87"/>
<polygon fill="midnightblue" stroke="midnightblue" points="1005.84,-143.223 995.325,-144.553 1004.37,-150.068 1005.84,-143.223"/>
</g>
<!-- Node8 -->
<g id="node14" class="node"><title>Node8</title>
<a xlink:href="classant_1_1analysis_1_1_prompt_random_1_1_switch.html" target="_top" xlink:title="ant::analysis::PromptRandom\l::Switch">
<polygon fill="white" stroke="black" points="1088,-111 1088,-145 1234,-145 1234,-111 1088,-111"/>
<text text-anchor="start" x="1096" y="-132" font-family="Helvetica,sans-Serif" font-size="10.00">ant::analysis::PromptRandom</text>
<text text-anchor="middle" x="1161" y="-119" font-family="Helvetica,sans-Serif" font-size="10.00">::Switch</text>
</a>
</g>
<!-- Node8&#45;&gt;Node1 -->
<g id="edge14" class="edge"><title>Node8&#45;&gt;Node1</title>
<path fill="none" stroke="#9a32cd" stroke-dasharray="5,2" d="M1244.32,-130.964C1268.16,-132.303 1294.15,-134.231 1318,-137 1323.83,-137.677 1329.9,-138.518 1335.94,-139.443"/>
<polygon fill="#9a32cd" stroke="#9a32cd" points="1244.41,-127.464 1234.24,-130.425 1244.04,-134.454 1244.41,-127.464"/>
<text text-anchor="middle" x="1285" y="-141" font-family="Helvetica,sans-Serif" font-size="10.00"> promptrandom</text>
</g>
<!-- Node9 -->
<g id="node16" class="node"><title>Node9</title>
<polygon fill="white" stroke="#bfbfbf" points="1100.5,-59 1100.5,-93 1221.5,-93 1221.5,-59 1100.5,-59"/>
<text text-anchor="start" x="1108.5" y="-80" font-family="Helvetica,sans-Serif" font-size="10.00">std::vector&lt; std::unique</text>
<text text-anchor="middle" x="1161" y="-67" font-family="Helvetica,sans-Serif" font-size="10.00">_ptr&lt; utils::KinFitter &gt; &gt;</text>
</g>
<!-- Node9&#45;&gt;Node1 -->
<g id="edge16" class="edge"><title>Node9&#45;&gt;Node1</title>
<path fill="none" stroke="#9a32cd" stroke-dasharray="5,2" d="M1231.44,-89.6515C1258.84,-95.8406 1290.27,-104.029 1318,-114 1332.39,-119.172 1347.67,-126.309 1360.6,-132.866"/>
<polygon fill="#9a32cd" stroke="#9a32cd" points="1232.05,-86.2037 1221.53,-87.4622 1230.54,-93.0386 1232.05,-86.2037"/>
<text text-anchor="middle" x="1285" y="-118" font-family="Helvetica,sans-Serif" font-size="10.00"> fitters</text>
</g>
<!-- Node10 -->
<g id="node18" class="node"><title>Node10</title>
<polygon fill="white" stroke="#bfbfbf" points="892,-59 892,-93 1000,-93 1000,-59 892,-59"/>
<text text-anchor="start" x="900" y="-80" font-family="Helvetica,sans-Serif" font-size="10.00">std::unique_ptr&lt; utils</text>
<text text-anchor="middle" x="946" y="-67" font-family="Helvetica,sans-Serif" font-size="10.00">::KinFitter &gt;</text>
</g>
<!-- Node10&#45;&gt;Node9 -->
<g id="edge18" class="edge"><title>Node10&#45;&gt;Node9</title>
<path fill="none" stroke="#9a32cd" stroke-dasharray="5,2" d="M1010.51,-76C1038.99,-76 1072.29,-76 1100.31,-76"/>
<polygon fill="#9a32cd" stroke="#9a32cd" points="1010.25,-72.5001 1000.25,-76 1010.25,-79.5001 1010.25,-72.5001"/>
<text text-anchor="middle" x="1048" y="-80" font-family="Helvetica,sans-Serif" font-size="10.00"> elements</text>
</g>
<!-- Node11 -->
<g id="node20" class="node"><title>Node11</title>
<a xlink:href="classant_1_1analysis_1_1utils_1_1_kin_fitter.html" target="_top" xlink:title="ant::analysis::utils\l::KinFitter">
<polygon fill="white" stroke="black" points="708,-59 708,-93 804,-93 804,-59 708,-59"/>
<text text-anchor="start" x="716" y="-80" font-family="Helvetica,sans-Serif" font-size="10.00">ant::analysis::utils</text>
<text text-anchor="middle" x="756" y="-67" font-family="Helvetica,sans-Serif" font-size="10.00">::KinFitter</text>
</a>
</g>
<!-- Node11&#45;&gt;Node10 -->
<g id="edge20" class="edge"><title>Node11&#45;&gt;Node10</title>
<path fill="none" stroke="#9a32cd" stroke-dasharray="5,2" d="M814.738,-76C839.376,-76 867.843,-76 891.956,-76"/>
<polygon fill="#9a32cd" stroke="#9a32cd" points="814.437,-72.5001 804.437,-76 814.437,-79.5001 814.437,-72.5001"/>
<text text-anchor="middle" x="844" y="-80" font-family="Helvetica,sans-Serif" font-size="10.00"> ptr</text>
</g>
<!-- Node12 -->
<g id="node22" class="node"><title>Node12</title>
<a xlink:href="classant_1_1analysis_1_1utils_1_1_fitter.html" target="_top" xlink:title="ant::analysis::utils\l::Fitter">
<polygon fill="white" stroke="black" points="521,-118 521,-152 617,-152 617,-118 521,-118"/>
<text text-anchor="start" x="529" y="-139" font-family="Helvetica,sans-Serif" font-size="10.00">ant::analysis::utils</text>
<text text-anchor="middle" x="569" y="-126" font-family="Helvetica,sans-Serif" font-size="10.00">::Fitter</text>
</a>
</g>
<!-- Node12&#45;&gt;Node11 -->
<g id="edge22" class="edge"><title>Node12&#45;&gt;Node11</title>
<path fill="none" stroke="midnightblue" d="M626.86,-116.745C652.78,-108.567 682.996,-99.0333 707.681,-91.2449"/>
<polygon fill="midnightblue" stroke="midnightblue" points="625.641,-113.459 617.157,-119.806 627.747,-120.135 625.641,-113.459"/>
</g>
<!-- Node13 -->
<g id="node24" class="node"><title>Node13</title>
<polygon fill="white" stroke="#bfbfbf" points="298,-124.5 298,-145.5 438,-145.5 438,-124.5 298,-124.5"/>
<text text-anchor="middle" x="368" y="-132.5" font-family="Helvetica,sans-Serif" font-size="10.00">std::unique_ptr&lt; APLCON &gt;</text>
</g>
<!-- Node13&#45;&gt;Node12 -->
<g id="edge24" class="edge"><title>Node13&#45;&gt;Node12</title>
<path fill="none" stroke="#9a32cd" stroke-dasharray="5,2" d="M448.067,-135C472.653,-135 498.942,-135 520.708,-135"/>
<polygon fill="#9a32cd" stroke="#9a32cd" points="448.018,-131.5 438.018,-135 448.018,-138.5 448.018,-131.5"/>
<text text-anchor="middle" x="472" y="-139" font-family="Helvetica,sans-Serif" font-size="10.00"> aplcon</text>
</g>
<!-- Node14 -->
<g id="node26" class="node"><title>Node14</title>
<polygon fill="white" stroke="#bfbfbf" points="506.5,-52.5 506.5,-99.5 631.5,-99.5 631.5,-52.5 506.5,-52.5"/>
<text text-anchor="start" x="514.5" y="-86.5" font-family="Helvetica,sans-Serif" font-size="10.00">std::unique_ptr&lt; ant</text>
<text text-anchor="start" x="514.5" y="-73.5" font-family="Helvetica,sans-Serif" font-size="10.00">::analysis::utils::KinFitter</text>
<text text-anchor="middle" x="569" y="-60.5" font-family="Helvetica,sans-Serif" font-size="10.00">::BeamE_t &gt;</text>
</g>
<!-- Node14&#45;&gt;Node11 -->
<g id="edge26" class="edge"><title>Node14&#45;&gt;Node11</title>
<path fill="none" stroke="#9a32cd" stroke-dasharray="5,2" d="M641.582,-76C663.76,-76 687.593,-76 707.736,-76"/>
<polygon fill="#9a32cd" stroke="#9a32cd" points="641.528,-72.5001 631.528,-76 641.528,-79.5001 641.528,-72.5001"/>
<text text-anchor="middle" x="670" y="-80" font-family="Helvetica,sans-Serif" font-size="10.00"> BeamE</text>
</g>
<!-- Node15 -->
<g id="node28" class="node"><title>Node15</title>
<a xlink:href="structant_1_1analysis_1_1utils_1_1_kin_fitter_1_1_beam_e__t.html" target="_top" xlink:title="ant::analysis::utils\l::KinFitter::BeamE_t">
<polygon fill="white" stroke="black" points="315,-59 315,-93 421,-93 421,-59 315,-59"/>
<text text-anchor="start" x="323" y="-80" font-family="Helvetica,sans-Serif" font-size="10.00">ant::analysis::utils</text>
<text text-anchor="middle" x="368" y="-67" font-family="Helvetica,sans-Serif" font-size="10.00">::KinFitter::BeamE_t</text>
</a>
</g>
<!-- Node15&#45;&gt;Node14 -->
<g id="edge28" class="edge"><title>Node15&#45;&gt;Node14</title>
<path fill="none" stroke="#9a32cd" stroke-dasharray="5,2" d="M431.128,-76C455.109,-76 482.399,-76 506.336,-76"/>
<polygon fill="#9a32cd" stroke="#9a32cd" points="431.073,-72.5001 421.073,-76 431.073,-79.5001 431.073,-72.5001"/>
<text text-anchor="middle" x="472" y="-80" font-family="Helvetica,sans-Serif" font-size="10.00"> ptr</text>
</g>
<!-- Node16 -->
<g id="node30" class="node"><title>Node16</title>
<a xlink:href="structant_1_1analysis_1_1utils_1_1_fitter_1_1_fit_variable.html" target="_top" xlink:title="ant::analysis::utils\l::Fitter::FitVariable">
<polygon fill="white" stroke="black" points="134,-73 134,-107 232,-107 232,-73 134,-73"/>
<text text-anchor="start" x="142" y="-94" font-family="Helvetica,sans-Serif" font-size="10.00">ant::analysis::utils</text>
<text text-anchor="middle" x="183" y="-81" font-family="Helvetica,sans-Serif" font-size="10.00">::Fitter::FitVariable</text>
</a>
</g>
<!-- Node16&#45;&gt;Node15 -->
<g id="edge30" class="edge"><title>Node16&#45;&gt;Node15</title>
<path fill="none" stroke="midnightblue" d="M242.203,-85.5197C265.516,-83.7556 292.085,-81.7449 314.779,-80.0275"/>
<polygon fill="midnightblue" stroke="midnightblue" points="241.798,-82.0403 232.091,-86.285 242.327,-89.0203 241.798,-82.0403"/>
</g>
<!-- Node17 -->
<g id="node32" class="node"><title>Node17</title>
<a xlink:title="STL class. ">
<polygon fill="white" stroke="#bfbfbf" points="153,-33.5 153,-54.5 213,-54.5 213,-33.5 153,-33.5"/>
<text text-anchor="middle" x="183" y="-41.5" font-family="Helvetica,sans-Serif" font-size="10.00">std::string</text>
</a>
</g>
<!-- Node17&#45;&gt;Node15 -->
<g id="edge32" class="edge"><title>Node17&#45;&gt;Node15</title>
<path fill="none" stroke="#9a32cd" stroke-dasharray="5,2" d="M223.311,-50.9728C250.106,-55.6075 285.585,-61.7444 314.704,-66.7812"/>
<polygon fill="#9a32cd" stroke="#9a32cd" points="223.585,-47.4683 213.135,-49.2126 222.392,-54.3659 223.585,-47.4683"/>
<text text-anchor="middle" x="265" y="-64" font-family="Helvetica,sans-Serif" font-size="10.00"> Name</text>
</g>
<!-- Node18 -->
<g id="node34" class="node"><title>Node18</title>
<a xlink:title="STL class. ">
<polygon fill="white" stroke="#bfbfbf" points="0.5,-27 0.5,-61 95.5,-61 95.5,-27 0.5,-27"/>
<text text-anchor="start" x="8.5" y="-48" font-family="Helvetica,sans-Serif" font-size="10.00">std::basic_string&lt;</text>
<text text-anchor="middle" x="48" y="-35" font-family="Helvetica,sans-Serif" font-size="10.00"> char &gt;</text>
</a>
</g>
<!-- Node18&#45;&gt;Node17 -->
<g id="edge34" class="edge"><title>Node18&#45;&gt;Node17</title>
<path fill="none" stroke="midnightblue" d="M106.01,-44C122.079,-44 138.879,-44 152.671,-44"/>
<polygon fill="midnightblue" stroke="midnightblue" points="105.596,-40.5001 95.5959,-44 105.596,-47.5001 105.596,-40.5001"/>
</g>
<!-- Node19 -->
<g id="node36" class="node"><title>Node19</title>
<polygon fill="white" stroke="#bfbfbf" points="508.5,-0 508.5,-34 629.5,-34 629.5,-0 508.5,-0"/>
<text text-anchor="start" x="516.5" y="-21" font-family="Helvetica,sans-Serif" font-size="10.00">std::vector&lt; std::shared</text>
<text text-anchor="middle" x="569" y="-8" font-family="Helvetica,sans-Serif" font-size="10.00">_ptr&lt; FitParticle &gt; &gt;</text>
</g>
<!-- Node19&#45;&gt;Node11 -->
<g id="edge36" class="edge"><title>Node19&#45;&gt;Node11</title>
<path fill="none" stroke="#9a32cd" stroke-dasharray="5,2" d="M632.692,-37.0952C657.26,-44.8467 684.895,-53.5658 707.767,-60.7821"/>
<polygon fill="#9a32cd" stroke="#9a32cd" points="633.678,-33.7364 623.088,-34.0652 631.572,-40.412 633.678,-33.7364"/>
<text text-anchor="middle" x="670" y="-58" font-family="Helvetica,sans-Serif" font-size="10.00"> Photons</text>
</g>
</g>
</svg>
