<?xml version="1.0" encoding="UTF-8" standalone="no"?>
<!DOCTYPE svg PUBLIC "-//W3C//DTD SVG 1.1//EN"
 "http://www.w3.org/Graphics/SVG/1.1/DTD/svg11.dtd">
<!-- Generated by graphviz version 2.26.3 (20100126.1600)
 -->
<!-- Title: ant::calibration::CB_TimeWalk Pages: 1 -->
<svg width="684pt" height="226pt"
 viewBox="0.00 0.00 684.00 226.00" xmlns="http://www.w3.org/2000/svg" xmlns:xlink="http://www.w3.org/1999/xlink">
<g id="graph1" class="graph" transform="scale(1 1) rotate(0) translate(4 222)">
<title>ant::calibration::CB_TimeWalk</title>
<polygon fill="white" stroke="white" points="-4,5 -4,-222 681,-222 681,5 -4,5"/>
<!-- Node1 -->
<g id="node1" class="node"><title>Node1</title>
<polygon fill="#bfbfbf" stroke="black" points="574.5,-68 574.5,-102 675.5,-102 675.5,-68 574.5,-68"/>
<text text-anchor="start" x="582.5" y="-89" font-family="Helvetica,sans-Serif" font-size="10.00">ant::calibration::CB</text>
<text text-anchor="middle" x="625" y="-76" font-family="Helvetica,sans-Serif" font-size="10.00">_TimeWalk</text>
</g>
<!-- Node2 -->
<g id="node2" class="node"><title>Node2</title>
<a xlink:href="classant_1_1_calibration_1_1_module.html" target="_top" xlink:title="The Module class is typically used for calibrations. ">
<polygon fill="white" stroke="black" points="350,-144.5 350,-165.5 470,-165.5 470,-144.5 350,-144.5"/>
<text text-anchor="middle" x="410" y="-152.5" font-family="Helvetica,sans-Serif" font-size="10.00">ant::Calibration::Module</text>
</a>
</g>
<!-- Node2&#45;&gt;Node1 -->
<g id="edge2" class="edge"><title>Node2&#45;&gt;Node1</title>
<path fill="none" stroke="midnightblue" d="M454.571,-141.551C461.74,-139.371 469.077,-137.131 476,-135 511.603,-124.043 520.702,-121.903 556,-110 563.365,-107.516 571.137,-104.797 578.705,-102.095"/>
<polygon fill="midnightblue" stroke="midnightblue" points="453.507,-138.216 444.955,-144.469 455.54,-144.914 453.507,-138.216"/>
</g>
<!-- Node3 -->
<g id="node4" class="node"><title>Node3</title>
<a xlink:href="classant_1_1_calibration_1_1_physics_module.html" target="_top" xlink:title="The PhysicsModule class gives the modules the ability to create histograms from events as well as fit...">
<polygon fill="white" stroke="black" points="182,-184 182,-218 306,-218 306,-184 182,-184"/>
<text text-anchor="start" x="190" y="-205" font-family="Helvetica,sans-Serif" font-size="10.00">ant::Calibration::Physics</text>
<text text-anchor="middle" x="244" y="-192" font-family="Helvetica,sans-Serif" font-size="10.00">Module</text>
</a>
</g>
<!-- Node3&#45;&gt;Node2 -->
<g id="edge4" class="edge"><title>Node3&#45;&gt;Node2</title>
<path fill="none" stroke="midnightblue" d="M315.519,-181.182C334.854,-175.824 355.036,-170.231 371.76,-165.597"/>
<polygon fill="midnightblue" stroke="midnightblue" points="314.514,-177.828 305.812,-183.871 316.384,-184.574 314.514,-177.828"/>
</g>
<!-- Node4 -->
<g id="node6" class="node"><title>Node4</title>
<a xlink:href="classant_1_1_calibration_1_1_base_module.html" target="_top" xlink:title="The BaseModule class provides a name for identification. ">
<polygon fill="white" stroke="black" points="0.5,-190.5 0.5,-211.5 143.5,-211.5 143.5,-190.5 0.5,-190.5"/>
<text text-anchor="middle" x="72" y="-198.5" font-family="Helvetica,sans-Serif" font-size="10.00">ant::Calibration::BaseModule</text>
</a>
</g>
<!-- Node4&#45;&gt;Node3 -->
<g id="edge6" class="edge"><title>Node4&#45;&gt;Node3</title>
<path fill="none" stroke="midnightblue" d="M154.063,-201C163.428,-201 172.856,-201 181.9,-201"/>
<polygon fill="midnightblue" stroke="midnightblue" points="153.947,-197.5 143.947,-201 153.947,-204.5 153.947,-197.5"/>
</g>
<!-- Node5 -->
<g id="node8" class="node"><title>Node5</title>
<a xlink:href="structant_1_1_updateable__traits.html" target="_top" xlink:title="The Updateable_traits class used by the UpdateableManager. ">
<polygon fill="white" stroke="black" points="187.5,-144.5 187.5,-165.5 300.5,-165.5 300.5,-144.5 187.5,-144.5"/>
<text text-anchor="middle" x="244" y="-152.5" font-family="Helvetica,sans-Serif" font-size="10.00">ant::Updateable_traits</text>
</a>
</g>
<!-- Node5&#45;&gt;Node2 -->
<g id="edge8" class="edge"><title>Node5&#45;&gt;Node2</title>
<path fill="none" stroke="midnightblue" d="M310.874,-155C323.783,-155 337.232,-155 349.908,-155"/>
<polygon fill="midnightblue" stroke="midnightblue" points="310.664,-151.5 300.663,-155 310.663,-158.5 310.664,-151.5"/>
</g>
<!-- Node6 -->
<g id="node10" class="node"><title>Node6</title>
<a xlink:href="structant_1_1_reconstruct_hook_1_1_cluster_hits.html" target="_top" xlink:title="The ClusterHits struct instances are applied before clustering and after hit matching. ">
<polygon fill="white" stroke="black" points="353.5,-92 353.5,-126 466.5,-126 466.5,-92 353.5,-92"/>
<text text-anchor="start" x="361.5" y="-113" font-family="Helvetica,sans-Serif" font-size="10.00">ant::ReconstructHook</text>
<text text-anchor="middle" x="410" y="-100" font-family="Helvetica,sans-Serif" font-size="10.00">::ClusterHits</text>
</a>
</g>
<!-- Node6&#45;&gt;Node1 -->
<g id="edge10" class="edge"><title>Node6&#45;&gt;Node1</title>
<path fill="none" stroke="midnightblue" d="M476.763,-101.547C508.183,-98.04 545.052,-93.9244 574.161,-90.6751"/>
<polygon fill="midnightblue" stroke="midnightblue" points="476.32,-98.075 466.77,-102.663 477.097,-105.032 476.32,-98.075"/>
</g>
<!-- Node7 -->
<g id="node12" class="node"><title>Node7</title>
<a xlink:href="structant_1_1_reconstruct_hook_1_1_base.html" target="_top" xlink:title="The Base struct just defines some useful types. ">
<polygon fill="white" stroke="black" points="187.5,-92 187.5,-126 300.5,-126 300.5,-92 187.5,-92"/>
<text text-anchor="start" x="195.5" y="-113" font-family="Helvetica,sans-Serif" font-size="10.00">ant::ReconstructHook</text>
<text text-anchor="middle" x="244" y="-100" font-family="Helvetica,sans-Serif" font-size="10.00">::Base</text>
</a>
</g>
<!-- Node7&#45;&gt;Node6 -->
<g id="edge12" class="edge"><title>Node7&#45;&gt;Node6</title>
<path fill="none" stroke="midnightblue" d="M310.788,-109C324.884,-109 339.629,-109 353.31,-109"/>
<polygon fill="midnightblue" stroke="midnightblue" points="310.664,-105.5 300.663,-109 310.663,-112.5 310.664,-105.5"/>
</g>
<!-- Node8 -->
<g id="node14" class="node"><title>Node8</title>
<a xlink:href="classant_1_1interval.html" target="_top" xlink:title="ant::interval\&lt; double \&gt;">
<polygon fill="white" stroke="black" points="353,-52.5 353,-73.5 467,-73.5 467,-52.5 353,-52.5"/>
<text text-anchor="middle" x="410" y="-60.5" font-family="Helvetica,sans-Serif" font-size="10.00">ant::interval&lt; double &gt;</text>
</a>
</g>
<!-- Node8&#45;&gt;Node1 -->
<g id="edge14" class="edge"><title>Node8&#45;&gt;Node1</title>
<path fill="none" stroke="#9a32cd" stroke-dasharray="5,2" d="M477.252,-69.1676C502.018,-71.513 530.295,-74.2777 556,-77 561.876,-77.6223 568.031,-78.2995 574.142,-78.9878"/>
<polygon fill="#9a32cd" stroke="#9a32cd" points="477.515,-65.6769 467.231,-68.2232 476.858,-72.6461 477.515,-65.6769"/>
<text text-anchor="middle" x="525" y="-81" font-family="Helvetica,sans-Serif" font-size="10.00"> TimeWindow</text>
</g>
<!-- Node9 -->
<g id="node16" class="node"><title>Node9</title>
<a xlink:href="classant_1_1printable__traits.html" target="_top" xlink:title="ant::printable_traits">
<polygon fill="white" stroke="black" points="194,-52.5 194,-73.5 294,-73.5 294,-52.5 194,-52.5"/>
<text text-anchor="middle" x="244" y="-60.5" font-family="Helvetica,sans-Serif" font-size="10.00">ant::printable_traits</text>
</a>
</g>
<!-- Node9&#45;&gt;Node8 -->
<g id="edge16" class="edge"><title>Node9&#45;&gt;Node8</title>
<path fill="none" stroke="midnightblue" d="M304.459,-63C320.286,-63 337.296,-63 352.939,-63"/>
<polygon fill="midnightblue" stroke="midnightblue" points="304.256,-59.5001 294.256,-63 304.256,-66.5001 304.256,-59.5001"/>
</g>
<!-- Node10 -->
<g id="node18" class="node"><title>Node10</title>
<polygon fill="white" stroke="#bfbfbf" points="344,-0 344,-34 476,-34 476,-0 344,-0"/>
<text text-anchor="start" x="352" y="-21" font-family="Helvetica,sans-Serif" font-size="10.00">std::vector&lt; std::shared</text>
<text text-anchor="middle" x="410" y="-8" font-family="Helvetica,sans-Serif" font-size="10.00">_ptr&lt; gui::FitTimewalk &gt; &gt;</text>
</g>
<!-- Node10&#45;&gt;Node1 -->
<g id="edge18" class="edge"><title>Node10&#45;&gt;Node1</title>
<path fill="none" stroke="#9a32cd" stroke-dasharray="5,2" d="M486.072,-33.6184C508.808,-39.2957 533.63,-46.2068 556,-54 567.285,-57.9316 579.266,-62.9851 590.022,-67.8662"/>
<polygon fill="#9a32cd" stroke="#9a32cd" points="486.676,-30.1629 476.13,-31.1802 485.009,-36.9614 486.676,-30.1629"/>
<text text-anchor="middle" x="525" y="-58" font-family="Helvetica,sans-Serif" font-size="10.00"> timewalks</text>
</g>
</g>
</svg>
