<?xml version="1.0" encoding="UTF-8" standalone="no"?>
<!DOCTYPE svg PUBLIC "-//W3C//DTD SVG 1.1//EN"
 "http://www.w3.org/Graphics/SVG/1.1/DTD/svg11.dtd">
<!-- Generated by graphviz version 2.26.3 (20100126.1600)
 -->
<!-- Title: OmegaDalitzPlot Pages: 1 -->
<svg width="192pt" height="102pt"
 viewBox="0.00 0.00 192.00 102.00" xmlns="http://www.w3.org/2000/svg" xmlns:xlink="http://www.w3.org/1999/xlink">
<g id="graph1" class="graph" transform="scale(1 1) rotate(0) translate(4 98)">
<title>OmegaDalitzPlot</title>
<polygon fill="white" stroke="white" points="-4,5 -4,-98 189,-98 189,5 -4,5"/>
<!-- Node1 -->
<g id="node1" class="node"><title>Node1</title>
<polygon fill="#bfbfbf" stroke="black" points="32.5,-0.5 32.5,-21.5 123.5,-21.5 123.5,-0.5 32.5,-0.5"/>
<text text-anchor="middle" x="78" y="-8.5" font-family="Helvetica,sans-Serif" font-size="10.00">OmegaDalitzPlot</text>
</g>
<!-- Node2 -->
<g id="node2" class="node"><title>Node2</title>
<a xlink:href="structant_1_1vec2.html" target="_top" xlink:title="ant::vec2">
<polygon fill="white" stroke="black" points="-0.5,-72.5 -0.5,-93.5 56.5,-93.5 56.5,-72.5 -0.5,-72.5"/>
<text text-anchor="middle" x="28" y="-80.5" font-family="Helvetica,sans-Serif" font-size="10.00">ant::vec2</text>
</a>
</g>
<!-- Node2&#45;&gt;Node1 -->
<g id="edge2" class="edge"><title>Node2&#45;&gt;Node1</title>
<path fill="none" stroke="#9a32cd" stroke-dasharray="5,2" d="M41.3265,-63.8099C50.701,-50.3106 62.8994,-32.7449 70.5921,-21.6674"/>
<polygon fill="#9a32cd" stroke="#9a32cd" points="38.2069,-62.166 35.3777,-72.3762 43.9565,-66.1588 38.2069,-62.166"/>
<text text-anchor="middle" x="66.5" y="-44.5" font-family="Helvetica,sans-Serif" font-size="10.00"> var</text>
</g>
<!-- Node3 -->
<g id="node4" class="node"><title>Node3</title>
<polygon fill="white" stroke="#bfbfbf" points="74,-72.5 74,-93.5 184,-93.5 184,-72.5 74,-72.5"/>
<text text-anchor="middle" x="129" y="-80.5" font-family="Helvetica,sans-Serif" font-size="10.00">std::vector&lt; double &gt;</text>
</g>
<!-- Node3&#45;&gt;Node1 -->
<g id="edge4" class="edge"><title>Node3&#45;&gt;Node1</title>
<path fill="none" stroke="#9a32cd" stroke-dasharray="5,2" d="M115.682,-64.1981C106.085,-50.649 93.4781,-32.8514 85.5561,-21.6674"/>
<polygon fill="#9a32cd" stroke="#9a32cd" points="112.838,-66.239 121.475,-72.3762 118.551,-62.1928 112.838,-66.239"/>
<text text-anchor="middle" x="113" y="-44.5" font-family="Helvetica,sans-Serif" font-size="10.00"> T</text>
</g>
</g>
</svg>
