<?xml version="1.0" encoding="UTF-8" standalone="no"?>
<!DOCTYPE svg PUBLIC "-//W3C//DTD SVG 1.1//EN"
 "http://www.w3.org/Graphics/SVG/1.1/DTD/svg11.dtd">
<!-- Generated by graphviz version 2.26.3 (20100126.1600)
 -->
<!-- Title: ant::analysis::input::PlutoReader Pages: 1 -->
<svg width="301pt" height="288pt"
 viewBox="0.00 0.00 301.00 288.00" xmlns="http://www.w3.org/2000/svg" xmlns:xlink="http://www.w3.org/1999/xlink">
<g id="graph1" class="graph" transform="scale(1 1) rotate(0) translate(4 284)">
<title>ant::analysis::input::PlutoReader</title>
<polygon fill="white" stroke="white" points="-4,5 -4,-284 298,-284 298,5 -4,5"/>
<!-- Node1 -->
<g id="node1" class="node"><title>Node1</title>
<polygon fill="#bfbfbf" stroke="black" points="119.5,-1 119.5,-35 218.5,-35 218.5,-1 119.5,-1"/>
<text text-anchor="start" x="127.5" y="-22" font-family="Helvetica,sans-Serif" font-size="10.00">ant::analysis::input</text>
<text text-anchor="middle" x="169" y="-9" font-family="Helvetica,sans-Serif" font-size="10.00">::PlutoReader</text>
</g>
<!-- Node2 -->
<g id="node2" class="node"><title>Node2</title>
<a xlink:href="classant_1_1analysis_1_1input_1_1_data_reader.html" target="_top" xlink:title="Abstract base class for data input modules. ">
<polygon fill="white" stroke="black" points="-0.5,-87 -0.5,-121 98.5,-121 98.5,-87 -0.5,-87"/>
<text text-anchor="start" x="7.5" y="-108" font-family="Helvetica,sans-Serif" font-size="10.00">ant::analysis::input</text>
<text text-anchor="middle" x="49" y="-95" font-family="Helvetica,sans-Serif" font-size="10.00">::DataReader</text>
</a>
</g>
<!-- Node2&#45;&gt;Node1 -->
<g id="edge2" class="edge"><title>Node2&#45;&gt;Node1</title>
<path fill="none" stroke="midnightblue" d="M81.2424,-80.8929C101.331,-66.4963 126.744,-48.2836 145.046,-35.1669"/>
<polygon fill="midnightblue" stroke="midnightblue" points="79.0847,-78.1332 72.9954,-86.8033 83.1624,-83.8229 79.0847,-78.1332"/>
</g>
<!-- Node3 -->
<g id="node4" class="node"><title>Node3</title>
<a xlink:href="classant_1_1analysis_1_1utils_1_1_a2_simple_geometry.html" target="_top" xlink:title="ant::analysis::utils\l::A2SimpleGeometry">
<polygon fill="white" stroke="black" points="115.5,-87 115.5,-121 222.5,-121 222.5,-87 115.5,-87"/>
<text text-anchor="start" x="123.5" y="-108" font-family="Helvetica,sans-Serif" font-size="10.00">ant::analysis::utils</text>
<text text-anchor="middle" x="169" y="-95" font-family="Helvetica,sans-Serif" font-size="10.00">::A2SimpleGeometry</text>
</a>
</g>
<!-- Node3&#45;&gt;Node1 -->
<g id="edge4" class="edge"><title>Node3&#45;&gt;Node1</title>
<path fill="none" stroke="#9a32cd" stroke-dasharray="5,2" d="M169,-76.342C169,-62.7741 169,-46.8607 169,-35.084"/>
<polygon fill="#9a32cd" stroke="#9a32cd" points="165.5,-76.5966 169,-86.5966 172.5,-76.5967 165.5,-76.5966"/>
<text text-anchor="middle" x="191" y="-58.5" font-family="Helvetica,sans-Serif" font-size="10.00"> geometry</text>
</g>
<!-- Node4 -->
<g id="node6" class="node"><title>Node4</title>
<a xlink:href="classant_1_1interval.html" target="_top" xlink:title="ant::interval\&lt; double \&gt;">
<polygon fill="white" stroke="black" points="117,-198.5 117,-219.5 231,-219.5 231,-198.5 117,-198.5"/>
<text text-anchor="middle" x="174" y="-206.5" font-family="Helvetica,sans-Serif" font-size="10.00">ant::interval&lt; double &gt;</text>
</a>
</g>
<!-- Node4&#45;&gt;Node3 -->
<g id="edge6" class="edge"><title>Node4&#45;&gt;Node3</title>
<path fill="none" stroke="#9a32cd" stroke-dasharray="5,2" d="M164.522,-188.926C163.481,-185.989 162.587,-182.956 162,-180 158.023,-159.986 161.364,-136.549 164.658,-121.049"/>
<polygon fill="#9a32cd" stroke="#9a32cd" points="161.341,-190.393 168.391,-198.302 167.811,-187.723 161.341,-190.393"/>
<text text-anchor="middle" x="197" y="-170.5" font-family="Helvetica,sans-Serif" font-size="10.00"> cb_phi_hem1</text>
<text text-anchor="middle" x="197" y="-157.5" font-family="Helvetica,sans-Serif" font-size="10.00">cb_theta_region</text>
<text text-anchor="middle" x="197" y="-144.5" font-family="Helvetica,sans-Serif" font-size="10.00">taps_region</text>
</g>
<!-- Node5 -->
<g id="node8" class="node"><title>Node5</title>
<a xlink:href="classant_1_1printable__traits.html" target="_top" xlink:title="ant::printable_traits">
<polygon fill="white" stroke="black" points="184,-258.5 184,-279.5 284,-279.5 284,-258.5 184,-258.5"/>
<text text-anchor="middle" x="234" y="-266.5" font-family="Helvetica,sans-Serif" font-size="10.00">ant::printable_traits</text>
</a>
</g>
<!-- Node5&#45;&gt;Node4 -->
<g id="edge8" class="edge"><title>Node5&#45;&gt;Node4</title>
<path fill="none" stroke="midnightblue" d="M215.986,-250.986C205.76,-240.76 193.31,-228.31 184.634,-219.634"/>
<polygon fill="midnightblue" stroke="midnightblue" points="213.727,-253.677 223.273,-258.273 218.677,-248.727 213.727,-253.677"/>
</g>
<!-- Node6 -->
<g id="node10" class="node"><title>Node6</title>
<a xlink:href="structant_1_1_t_i_d.html" target="_top" xlink:title="ant::TID">
<polygon fill="white" stroke="black" points="240.5,-149.5 240.5,-170.5 293.5,-170.5 293.5,-149.5 240.5,-149.5"/>
<text text-anchor="middle" x="267" y="-157.5" font-family="Helvetica,sans-Serif" font-size="10.00">ant::TID</text>
</a>
</g>
<!-- Node5&#45;&gt;Node6 -->
<g id="edge12" class="edge"><title>Node5&#45;&gt;Node6</title>
<path fill="none" stroke="midnightblue" d="M240.26,-248.322C247.245,-225.253 258.277,-188.813 263.728,-170.806"/>
<polygon fill="midnightblue" stroke="midnightblue" points="236.833,-247.565 237.285,-258.15 243.532,-249.593 236.833,-247.565"/>
</g>
<!-- Node6&#45;&gt;Node1 -->
<g id="edge10" class="edge"><title>Node6&#45;&gt;Node1</title>
<path fill="none" stroke="#9a32cd" stroke-dasharray="5,2" d="M260.805,-139.865C253.139,-117.248 238.423,-80.2748 217,-54 211.273,-46.9762 203.895,-40.5687 196.65,-35.1697"/>
<polygon fill="#9a32cd" stroke="#9a32cd" points="257.494,-141.003 263.915,-149.431 264.151,-138.838 257.494,-141.003"/>
<text text-anchor="middle" x="261" y="-101.5" font-family="Helvetica,sans-Serif" font-size="10.00"> tid</text>
</g>
</g>
</svg>
