<?xml version="1.0" encoding="UTF-8" standalone="no"?>
<!DOCTYPE svg PUBLIC "-//W3C//DTD SVG 1.1//EN"
 "http://www.w3.org/Graphics/SVG/1.1/DTD/svg11.dtd">
<!-- Generated by graphviz version 2.26.3 (20100126.1600)
 -->
<!-- Title: ant::analysis::input::GoatReader Pages: 1 -->
<svg width="914pt" height="468pt"
 viewBox="0.00 0.00 914.00 467.51" xmlns="http://www.w3.org/2000/svg" xmlns:xlink="http://www.w3.org/1999/xlink">
<g id="graph1" class="graph" transform="scale(1 1) rotate(0) translate(4 463.507)">
<title>ant::analysis::input::GoatReader</title>
<polygon fill="white" stroke="white" points="-4,5 -4,-463.507 911,-463.507 911,5 -4,5"/>
<!-- Node1 -->
<g id="node1" class="node"><title>Node1</title>
<polygon fill="#bfbfbf" stroke="black" points="806.5,-217.507 806.5,-251.507 905.5,-251.507 905.5,-217.507 806.5,-217.507"/>
<text text-anchor="start" x="814.5" y="-238.507" font-family="Helvetica,sans-Serif" font-size="10.00">ant::analysis::input</text>
<text text-anchor="middle" x="856" y="-225.507" font-family="Helvetica,sans-Serif" font-size="10.00">::GoatReader</text>
</g>
<!-- Node2 -->
<g id="node2" class="node"><title>Node2</title>
<a xlink:href="classant_1_1analysis_1_1input_1_1_data_reader.html" target="_top" xlink:title="Abstract base class for data input modules. ">
<polygon fill="white" stroke="black" points="563.5,-425.507 563.5,-459.507 662.5,-459.507 662.5,-425.507 563.5,-425.507"/>
<text text-anchor="start" x="571.5" y="-446.507" font-family="Helvetica,sans-Serif" font-size="10.00">ant::analysis::input</text>
<text text-anchor="middle" x="613" y="-433.507" font-family="Helvetica,sans-Serif" font-size="10.00">::DataReader</text>
</a>
</g>
<!-- Node2&#45;&gt;Node1 -->
<g id="edge2" class="edge"><title>Node2&#45;&gt;Node1</title>
<path fill="none" stroke="midnightblue" d="M672.713,-435.477C709.739,-428.358 756.152,-414.082 788,-385.507 828.874,-348.834 846.609,-282.829 852.98,-251.675"/>
<polygon fill="midnightblue" stroke="midnightblue" points="671.764,-432.091 662.538,-437.301 672.999,-438.981 671.764,-432.091"/>
</g>
<!-- Node3 -->
<g id="node4" class="node"><title>Node3</title>
<a xlink:href="classant_1_1analysis_1_1input_1_1_tagger_input.html" target="_top" xlink:title="ant::analysis::input\l::TaggerInput">
<polygon fill="white" stroke="black" points="563.5,-217.507 563.5,-251.507 662.5,-251.507 662.5,-217.507 563.5,-217.507"/>
<text text-anchor="start" x="571.5" y="-238.507" font-family="Helvetica,sans-Serif" font-size="10.00">ant::analysis::input</text>
<text text-anchor="middle" x="613" y="-225.507" font-family="Helvetica,sans-Serif" font-size="10.00">::TaggerInput</text>
</a>
</g>
<!-- Node3&#45;&gt;Node1 -->
<g id="edge4" class="edge"><title>Node3&#45;&gt;Node1</title>
<path fill="none" stroke="#9a32cd" stroke-dasharray="5,2" d="M672.898,-234.507C713.914,-234.507 767.665,-234.507 806.305,-234.507"/>
<polygon fill="#9a32cd" stroke="#9a32cd" points="672.761,-231.007 662.761,-234.507 672.761,-238.007 672.761,-231.007"/>
<text text-anchor="middle" x="749" y="-238.507" font-family="Helvetica,sans-Serif" font-size="10.00"> tagger</text>
</g>
<!-- Node4 -->
<g id="node6" class="node"><title>Node4</title>
<a xlink:href="classant_1_1analysis_1_1input_1_1_base_input_module.html" target="_top" xlink:title="ant::analysis::input\l::BaseInputModule">
<polygon fill="white" stroke="black" points="339.5,-159.507 339.5,-193.507 438.5,-193.507 438.5,-159.507 339.5,-159.507"/>
<text text-anchor="start" x="347.5" y="-180.507" font-family="Helvetica,sans-Serif" font-size="10.00">ant::analysis::input</text>
<text text-anchor="middle" x="389" y="-167.507" font-family="Helvetica,sans-Serif" font-size="10.00">::BaseInputModule</text>
</a>
</g>
<!-- Node4&#45;&gt;Node3 -->
<g id="edge6" class="edge"><title>Node4&#45;&gt;Node3</title>
<path fill="none" stroke="midnightblue" d="M448.563,-191.929C484.415,-201.213 529.526,-212.893 563.426,-221.671"/>
<polygon fill="midnightblue" stroke="midnightblue" points="449.271,-188.497 438.713,-189.379 447.516,-195.274 449.271,-188.497"/>
</g>
<!-- Node5 -->
<g id="node8" class="node"><title>Node5</title>
<a xlink:href="classant_1_1analysis_1_1input_1_1_trigger_input.html" target="_top" xlink:title="ant::analysis::input\l::TriggerInput">
<polygon fill="white" stroke="black" points="563.5,-165.507 563.5,-199.507 662.5,-199.507 662.5,-165.507 563.5,-165.507"/>
<text text-anchor="start" x="571.5" y="-186.507" font-family="Helvetica,sans-Serif" font-size="10.00">ant::analysis::input</text>
<text text-anchor="middle" x="613" y="-173.507" font-family="Helvetica,sans-Serif" font-size="10.00">::TriggerInput</text>
</a>
</g>
<!-- Node4&#45;&gt;Node5 -->
<g id="edge10" class="edge"><title>Node4&#45;&gt;Node5</title>
<path fill="none" stroke="midnightblue" d="M449.023,-178.115C484.8,-179.073 529.671,-180.275 563.426,-181.179"/>
<polygon fill="midnightblue" stroke="midnightblue" points="448.803,-174.608 438.713,-177.838 448.616,-181.605 448.803,-174.608"/>
</g>
<!-- Node12 -->
<g id="node23" class="node"><title>Node12</title>
<a xlink:href="structant_1_1analysis_1_1input_1_1_detector_hit_input.html" target="_top" xlink:title="ant::analysis::input\l::DetectorHitInput">
<polygon fill="white" stroke="black" points="563.5,-61.5068 563.5,-95.5068 662.5,-95.5068 662.5,-61.5068 563.5,-61.5068"/>
<text text-anchor="start" x="571.5" y="-82.5068" font-family="Helvetica,sans-Serif" font-size="10.00">ant::analysis::input</text>
<text text-anchor="middle" x="613" y="-69.5068" font-family="Helvetica,sans-Serif" font-size="10.00">::DetectorHitInput</text>
</a>
</g>
<!-- Node4&#45;&gt;Node12 -->
<g id="edge26" class="edge"><title>Node4&#45;&gt;Node12</title>
<path fill="none" stroke="midnightblue" d="M447.988,-159.482C470.508,-151.328 495.64,-140.104 516,-125.507 525.99,-118.344 523.786,-111.347 534,-104.507 542.878,-98.5617 553.225,-93.8811 563.449,-90.2307"/>
<polygon fill="midnightblue" stroke="midnightblue" points="446.805,-156.188 438.518,-162.789 449.113,-162.796 446.805,-156.188"/>
</g>
<!-- Node16 -->
<g id="node32" class="node"><title>Node16</title>
<a xlink:href="structant_1_1analysis_1_1input_1_1_event_parameters.html" target="_top" xlink:title="ant::analysis::input\l::EventParameters">
<polygon fill="white" stroke="black" points="563.5,-269.507 563.5,-303.507 662.5,-303.507 662.5,-269.507 563.5,-269.507"/>
<text text-anchor="start" x="571.5" y="-290.507" font-family="Helvetica,sans-Serif" font-size="10.00">ant::analysis::input</text>
<text text-anchor="middle" x="613" y="-277.507" font-family="Helvetica,sans-Serif" font-size="10.00">::EventParameters</text>
</a>
</g>
<!-- Node4&#45;&gt;Node16 -->
<g id="edge36" class="edge"><title>Node4&#45;&gt;Node16</title>
<path fill="none" stroke="midnightblue" d="M423.043,-198.94C451.77,-217.199 494.425,-242.762 534,-260.507 543.223,-264.642 553.308,-268.46 563.095,-271.825"/>
<polygon fill="midnightblue" stroke="midnightblue" points="424.902,-195.974 414.594,-193.525 421.124,-201.867 424.902,-195.974"/>
</g>
<!-- Node17 -->
<g id="node35" class="node"><title>Node17</title>
<a xlink:href="classant_1_1analysis_1_1input_1_1_particle_input.html" target="_top" xlink:title="ant::analysis::input\l::ParticleInput">
<polygon fill="white" stroke="black" points="563.5,-9.50685 563.5,-43.5068 662.5,-43.5068 662.5,-9.50685 563.5,-9.50685"/>
<text text-anchor="start" x="571.5" y="-30.5068" font-family="Helvetica,sans-Serif" font-size="10.00">ant::analysis::input</text>
<text text-anchor="middle" x="613" y="-17.5068" font-family="Helvetica,sans-Serif" font-size="10.00">::ParticleInput</text>
</a>
</g>
<!-- Node4&#45;&gt;Node17 -->
<g id="edge40" class="edge"><title>Node4&#45;&gt;Node17</title>
<path fill="none" stroke="midnightblue" d="M432.19,-154.633C464.077,-137.772 503.942,-114.964 516,-100.507 530.593,-83.0097 517.564,-68.2854 534,-52.5068 542.125,-44.7073 552.632,-39.2469 563.316,-35.4243"/>
<polygon fill="midnightblue" stroke="midnightblue" points="430.249,-151.699 423.014,-159.439 433.496,-157.9 430.249,-151.699"/>
</g>
<!-- Node18 -->
<g id="node39" class="node"><title>Node18</title>
<a xlink:href="classant_1_1analysis_1_1input_1_1_track_input.html" target="_top" xlink:title="ant::analysis::input\l::TrackInput">
<polygon fill="white" stroke="black" points="563.5,-113.507 563.5,-147.507 662.5,-147.507 662.5,-113.507 563.5,-113.507"/>
<text text-anchor="start" x="571.5" y="-134.507" font-family="Helvetica,sans-Serif" font-size="10.00">ant::analysis::input</text>
<text text-anchor="middle" x="613" y="-121.507" font-family="Helvetica,sans-Serif" font-size="10.00">::TrackInput</text>
</a>
</g>
<!-- Node4&#45;&gt;Node18 -->
<g id="edge46" class="edge"><title>Node4&#45;&gt;Node18</title>
<path fill="none" stroke="midnightblue" d="M448.631,-164.317C469.894,-159.965 494.019,-155.023 516,-150.507 531.327,-147.358 548.014,-143.92 563.158,-140.798"/>
<polygon fill="midnightblue" stroke="midnightblue" points="447.859,-160.902 438.763,-166.336 449.262,-167.76 447.859,-160.902"/>
</g>
<!-- Node5&#45;&gt;Node1 -->
<g id="edge8" class="edge"><title>Node5&#45;&gt;Node1</title>
<path fill="none" stroke="#9a32cd" stroke-dasharray="5,2" d="M672.745,-193.725C706.635,-200.272 749.784,-208.913 788,-217.507 793.936,-218.842 800.148,-220.304 806.3,-221.792"/>
<polygon fill="#9a32cd" stroke="#9a32cd" points="673.022,-190.215 662.541,-191.763 671.7,-197.089 673.022,-190.215"/>
<text text-anchor="middle" x="749" y="-221.507" font-family="Helvetica,sans-Serif" font-size="10.00"> trigger</text>
</g>
<!-- Node6 -->
<g id="node11" class="node"><title>Node6</title>
<a xlink:href="classant_1_1analysis_1_1input_1_1_goat_reader_1_1_module_manager.html" target="_top" xlink:title="ant::analysis::input\l::GoatReader::ModuleManager">
<polygon fill="white" stroke="black" points="538,-373.507 538,-407.507 688,-407.507 688,-373.507 538,-373.507"/>
<text text-anchor="start" x="546" y="-394.507" font-family="Helvetica,sans-Serif" font-size="10.00">ant::analysis::input</text>
<text text-anchor="middle" x="613" y="-381.507" font-family="Helvetica,sans-Serif" font-size="10.00">::GoatReader::ModuleManager</text>
</a>
</g>
<!-- Node6&#45;&gt;Node1 -->
<g id="edge12" class="edge"><title>Node6&#45;&gt;Node1</title>
<path fill="none" stroke="#9a32cd" stroke-dasharray="5,2" d="M698.056,-373.603C728.512,-364.645 761.765,-351.255 788,-331.507 816.426,-310.11 837.487,-273.334 848.155,-251.737"/>
<polygon fill="#9a32cd" stroke="#9a32cd" points="696.954,-370.277 688.278,-376.359 698.853,-377.015 696.954,-370.277"/>
<text text-anchor="middle" x="749" y="-372.507" font-family="Helvetica,sans-Serif" font-size="10.00"> active_modules</text>
</g>
<!-- Node7 -->
<g id="node13" class="node"><title>Node7</title>
<a xlink:title="STL class. ">
<polygon fill="white" stroke="#bfbfbf" points="314.5,-380.007 314.5,-401.007 463.5,-401.007 463.5,-380.007 314.5,-380.007"/>
<text text-anchor="middle" x="389" y="-388.007" font-family="Helvetica,sans-Serif" font-size="10.00">std::list&lt; BaseInputModule * &gt;</text>
</a>
</g>
<!-- Node7&#45;&gt;Node6 -->
<g id="edge14" class="edge"><title>Node7&#45;&gt;Node6</title>
<path fill="none" stroke="midnightblue" d="M473.821,-390.507C494.918,-390.507 517.385,-390.507 537.973,-390.507"/>
<polygon fill="midnightblue" stroke="midnightblue" points="473.589,-387.007 463.589,-390.507 473.589,-394.007 473.589,-387.007"/>
</g>
<!-- Node8 -->
<g id="node15" class="node"><title>Node8</title>
<polygon fill="white" stroke="#bfbfbf" points="169.5,-380.007 169.5,-401.007 198.5,-401.007 198.5,-380.007 169.5,-380.007"/>
<text text-anchor="middle" x="184" y="-388.007" font-family="Helvetica,sans-Serif" font-size="10.00">T</text>
</g>
<!-- Node8&#45;&gt;Node7 -->
<g id="edge16" class="edge"><title>Node8&#45;&gt;Node7</title>
<path fill="none" stroke="#9a32cd" stroke-dasharray="5,2" d="M208.882,-390.507C235.003,-390.507 277.348,-390.507 314.419,-390.507"/>
<polygon fill="#9a32cd" stroke="#9a32cd" points="208.743,-387.007 198.743,-390.507 208.743,-394.007 208.743,-387.007"/>
<text text-anchor="middle" x="274" y="-394.507" font-family="Helvetica,sans-Serif" font-size="10.00"> elements</text>
</g>
<!-- Node9 -->
<g id="node17" class="node"><title>Node9</title>
<polygon fill="white" stroke="#bfbfbf" points="534,-321.507 534,-355.507 692,-355.507 692,-321.507 534,-321.507"/>
<text text-anchor="start" x="542" y="-342.507" font-family="Helvetica,sans-Serif" font-size="10.00">std::unique_ptr&lt; ant</text>
<text text-anchor="middle" x="613" y="-329.507" font-family="Helvetica,sans-Serif" font-size="10.00">::analysis::input::TreeManager &gt;</text>
</g>
<!-- Node9&#45;&gt;Node1 -->
<g id="edge18" class="edge"><title>Node9&#45;&gt;Node1</title>
<path fill="none" stroke="#9a32cd" stroke-dasharray="5,2" d="M699.446,-318.791C728.437,-310.506 760.394,-299.488 788,-285.507 805.904,-276.439 823.977,-262.613 836.985,-251.642"/>
<polygon fill="#9a32cd" stroke="#9a32cd" points="698.432,-315.44 689.739,-321.496 700.311,-322.183 698.432,-315.44"/>
<text text-anchor="middle" x="749" y="-318.507" font-family="Helvetica,sans-Serif" font-size="10.00"> trees</text>
</g>
<!-- Node10 -->
<g id="node19" class="node"><title>Node10</title>
<a xlink:href="classant_1_1analysis_1_1input_1_1_tree_manager.html" target="_top" xlink:title="ant::analysis::input\l::TreeManager">
<polygon fill="white" stroke="black" points="339.5,-321.507 339.5,-355.507 438.5,-355.507 438.5,-321.507 339.5,-321.507"/>
<text text-anchor="start" x="347.5" y="-342.507" font-family="Helvetica,sans-Serif" font-size="10.00">ant::analysis::input</text>
<text text-anchor="middle" x="389" y="-329.507" font-family="Helvetica,sans-Serif" font-size="10.00">::TreeManager</text>
</a>
</g>
<!-- Node10&#45;&gt;Node9 -->
<g id="edge20" class="edge"><title>Node10&#45;&gt;Node9</title>
<path fill="none" stroke="#9a32cd" stroke-dasharray="5,2" d="M448.84,-338.507C474.965,-338.507 505.965,-338.507 533.952,-338.507"/>
<polygon fill="#9a32cd" stroke="#9a32cd" points="448.713,-335.007 438.713,-338.507 448.713,-342.007 448.713,-335.007"/>
<text text-anchor="middle" x="499" y="-342.507" font-family="Helvetica,sans-Serif" font-size="10.00"> ptr</text>
</g>
<!-- Node11 -->
<g id="node21" class="node"><title>Node11</title>
<polygon fill="white" stroke="#bfbfbf" points="134,-328.007 134,-349.007 234,-349.007 234,-328.007 134,-328.007"/>
<text text-anchor="middle" x="184" y="-336.007" font-family="Helvetica,sans-Serif" font-size="10.00">std::set&lt; TTree * &gt;</text>
</g>
<!-- Node11&#45;&gt;Node10 -->
<g id="edge22" class="edge"><title>Node11&#45;&gt;Node10</title>
<path fill="none" stroke="#9a32cd" stroke-dasharray="5,2" d="M244.168,-338.507C274.448,-338.507 310.706,-338.507 339.369,-338.507"/>
<polygon fill="#9a32cd" stroke="#9a32cd" points="244.149,-335.007 234.149,-338.507 244.149,-342.007 244.149,-335.007"/>
<text text-anchor="middle" x="274" y="-342.507" font-family="Helvetica,sans-Serif" font-size="10.00"> trees</text>
</g>
<!-- Node12&#45;&gt;Node1 -->
<g id="edge24" class="edge"><title>Node12&#45;&gt;Node1</title>
<path fill="none" stroke="#9a32cd" stroke-dasharray="5,2" d="M672.531,-89.0866C708.657,-97.764 754.163,-112.92 788,-138.507 816.183,-159.818 837.329,-196.167 848.079,-217.497"/>
<polygon fill="#9a32cd" stroke="#9a32cd" points="673.137,-85.6348 662.607,-86.8076 671.57,-92.4572 673.137,-85.6348"/>
<text text-anchor="middle" x="749" y="-142.507" font-family="Helvetica,sans-Serif" font-size="10.00"> detectorhits</text>
</g>
<!-- Node13 -->
<g id="node26" class="node"><title>Node13</title>
<a xlink:href="structant_1_1analysis_1_1input_1_1_detector_hit_input_1_1_item__t.html" target="_top" xlink:title="ant::analysis::input\l::DetectorHitInput::Item_t">
<polygon fill="white" stroke="black" points="325,-25.5068 325,-59.5068 453,-59.5068 453,-25.5068 325,-25.5068"/>
<text text-anchor="start" x="333" y="-46.5068" font-family="Helvetica,sans-Serif" font-size="10.00">ant::analysis::input</text>
<text text-anchor="middle" x="389" y="-33.5068" font-family="Helvetica,sans-Serif" font-size="10.00">::DetectorHitInput::Item_t</text>
</a>
</g>
<!-- Node13&#45;&gt;Node12 -->
<g id="edge28" class="edge"><title>Node13&#45;&gt;Node12</title>
<path fill="none" stroke="#9a32cd" stroke-dasharray="5,2" d="M463.125,-52.47C480.494,-54.9548 498.915,-57.7121 516,-60.5068 531.382,-63.0229 548.085,-66.0246 563.226,-68.8489"/>
<polygon fill="#9a32cd" stroke="#9a32cd" points="463.43,-48.9783 453.038,-51.0402 462.448,-55.909 463.43,-48.9783"/>
<text text-anchor="middle" x="499" y="-116.507" font-family="Helvetica,sans-Serif" font-size="10.00"> NaI</text>
<text text-anchor="middle" x="499" y="-103.507" font-family="Helvetica,sans-Serif" font-size="10.00">PID</text>
<text text-anchor="middle" x="499" y="-90.5068" font-family="Helvetica,sans-Serif" font-size="10.00">Veto</text>
<text text-anchor="middle" x="499" y="-77.5068" font-family="Helvetica,sans-Serif" font-size="10.00">BaF2</text>
<text text-anchor="middle" x="499" y="-64.5068" font-family="Helvetica,sans-Serif" font-size="10.00">MWPC</text>
</g>
<!-- Node14 -->
<g id="node28" class="node"><title>Node14</title>
<a xlink:title="STL class. ">
<polygon fill="white" stroke="#bfbfbf" points="154,-8.00685 154,-29.0068 214,-29.0068 214,-8.00685 154,-8.00685"/>
<text text-anchor="middle" x="184" y="-16.0068" font-family="Helvetica,sans-Serif" font-size="10.00">std::string</text>
</a>
</g>
<!-- Node14&#45;&gt;Node13 -->
<g id="edge30" class="edge"><title>Node14&#45;&gt;Node13</title>
<path fill="none" stroke="#9a32cd" stroke-dasharray="5,2" d="M224.281,-23.2227C252.873,-26.57 291.853,-31.1336 324.717,-34.981"/>
<polygon fill="#9a32cd" stroke="#9a32cd" points="224.588,-19.7347 214.248,-22.0481 223.774,-26.6873 224.588,-19.7347"/>
<text text-anchor="middle" x="274" y="-35.5068" font-family="Helvetica,sans-Serif" font-size="10.00"> Name</text>
</g>
<!-- Node14&#45;&gt;Node17 -->
<g id="edge42" class="edge"><title>Node14&#45;&gt;Node17</title>
<path fill="none" stroke="#9a32cd" stroke-dasharray="5,2" d="M224.212,-12.6593C249.844,-9.23165 283.798,-5.24349 314,-3.50685 380.557,0.32027 397.529,1.59329 464,-3.50685 497.275,-6.0599 534.364,-11.775 563.215,-16.8692"/>
<polygon fill="#9a32cd" stroke="#9a32cd" points="223.558,-9.21612 214.123,-14.0368 224.505,-16.1518 223.558,-9.21612"/>
<text text-anchor="middle" x="389" y="-7.50685" font-family="Helvetica,sans-Serif" font-size="10.00"> name</text>
</g>
<!-- Node15 -->
<g id="node30" class="node"><title>Node15</title>
<a xlink:title="STL class. ">
<polygon fill="white" stroke="#bfbfbf" points="0.5,-1.50685 0.5,-35.5068 95.5,-35.5068 95.5,-1.50685 0.5,-1.50685"/>
<text text-anchor="start" x="8.5" y="-22.5068" font-family="Helvetica,sans-Serif" font-size="10.00">std::basic_string&lt;</text>
<text text-anchor="middle" x="48" y="-9.50685" font-family="Helvetica,sans-Serif" font-size="10.00"> char &gt;</text>
</a>
</g>
<!-- Node15&#45;&gt;Node14 -->
<g id="edge32" class="edge"><title>Node15&#45;&gt;Node14</title>
<path fill="none" stroke="midnightblue" d="M105.698,-18.5068C122.2,-18.5068 139.53,-18.5068 153.68,-18.5068"/>
<polygon fill="midnightblue" stroke="midnightblue" points="105.566,-15.0069 95.5662,-18.5068 105.566,-22.0069 105.566,-15.0069"/>
</g>
<!-- Node16&#45;&gt;Node1 -->
<g id="edge34" class="edge"><title>Node16&#45;&gt;Node1</title>
<path fill="none" stroke="#9a32cd" stroke-dasharray="5,2" d="M672.745,-275.288C706.635,-268.742 749.784,-260.1 788,-251.507 793.936,-250.172 800.148,-248.71 806.3,-247.222"/>
<polygon fill="#9a32cd" stroke="#9a32cd" points="671.7,-271.925 662.541,-277.25 673.022,-278.799 671.7,-271.925"/>
<text text-anchor="middle" x="749" y="-272.507" font-family="Helvetica,sans-Serif" font-size="10.00"> eventParameters</text>
</g>
<!-- Node17&#45;&gt;Node1 -->
<g id="edge38" class="edge"><title>Node17&#45;&gt;Node1</title>
<path fill="none" stroke="#9a32cd" stroke-dasharray="5,2" d="M672.891,-12.1844C709.565,-7.01931 755.53,-7.42899 788,-31.5068 818.825,-54.3651 844.166,-172.432 852.814,-217.237"/>
<polygon fill="#9a32cd" stroke="#9a32cd" points="672.145,-8.75868 662.812,-13.774 673.236,-15.6732 672.145,-8.75868"/>
<text text-anchor="middle" x="749" y="-87.5068" font-family="Helvetica,sans-Serif" font-size="10.00"> protons</text>
<text text-anchor="middle" x="749" y="-74.5068" font-family="Helvetica,sans-Serif" font-size="10.00">neutrons</text>
<text text-anchor="middle" x="749" y="-61.5068" font-family="Helvetica,sans-Serif" font-size="10.00">pichagred</text>
<text text-anchor="middle" x="749" y="-48.5068" font-family="Helvetica,sans-Serif" font-size="10.00">echarged</text>
<text text-anchor="middle" x="749" y="-35.5068" font-family="Helvetica,sans-Serif" font-size="10.00">photons</text>
</g>
<!-- Node18&#45;&gt;Node1 -->
<g id="edge44" class="edge"><title>Node18&#45;&gt;Node1</title>
<path fill="none" stroke="#9a32cd" stroke-dasharray="5,2" d="M672.602,-143.61C707.365,-152.531 751.43,-166.084 788,-184.507 805.536,-193.341 823.345,-206.626 836.337,-217.282"/>
<polygon fill="#9a32cd" stroke="#9a32cd" points="673.146,-140.138 662.595,-141.103 671.445,-146.928 673.146,-140.138"/>
<text text-anchor="middle" x="749" y="-188.507" font-family="Helvetica,sans-Serif" font-size="10.00"> tracks</text>
</g>
</g>
</svg>
