<?xml version="1.0" encoding="UTF-8" standalone="no"?>
<!DOCTYPE svg PUBLIC "-//W3C//DTD SVG 1.1//EN"
 "http://www.w3.org/Graphics/SVG/1.1/DTD/svg11.dtd">
<!-- Generated by graphviz version 2.26.3 (20100126.1600)
 -->
<!-- Title: ant::analysis::physics::JustParticles Pages: 1 -->
<svg width="1504pt" height="290pt"
 viewBox="0.00 0.00 1504.00 290.00" xmlns="http://www.w3.org/2000/svg" xmlns:xlink="http://www.w3.org/1999/xlink">
<g id="graph1" class="graph" transform="scale(1 1) rotate(0) translate(4 286)">
<title>ant::analysis::physics::JustParticles</title>
<polygon fill="white" stroke="white" points="-4,5 -4,-286 1501,-286 1501,5 -4,5"/>
<!-- Node1 -->
<g id="node1" class="node"><title>Node1</title>
<polygon fill="#bfbfbf" stroke="black" points="1384,-104 1384,-138 1496,-138 1496,-104 1384,-104"/>
<text text-anchor="start" x="1392" y="-125" font-family="Helvetica,sans-Serif" font-size="10.00">ant::analysis::physics</text>
<text text-anchor="middle" x="1440" y="-112" font-family="Helvetica,sans-Serif" font-size="10.00">::JustParticles</text>
</g>
<!-- Node2 -->
<g id="node2" class="node"><title>Node2</title>
<a xlink:href="classant_1_1analysis_1_1_physics.html" target="_top" xlink:title="ant::analysis::Physics">
<polygon fill="white" stroke="black" points="1152.5,-231.5 1152.5,-252.5 1265.5,-252.5 1265.5,-231.5 1152.5,-231.5"/>
<text text-anchor="middle" x="1209" y="-239.5" font-family="Helvetica,sans-Serif" font-size="10.00">ant::analysis::Physics</text>
</a>
</g>
<!-- Node2&#45;&gt;Node1 -->
<g id="edge2" class="edge"><title>Node2&#45;&gt;Node1</title>
<path fill="none" stroke="midnightblue" d="M1244.01,-227.402C1276.3,-213.55 1325.24,-191.55 1366,-169 1383.02,-159.585 1401.36,-147.699 1415.53,-138.11"/>
<polygon fill="midnightblue" stroke="midnightblue" points="1242.38,-224.291 1234.56,-231.43 1245.13,-230.731 1242.38,-224.291"/>
</g>
<!-- Node3 -->
<g id="node4" class="node"><title>Node3</title>
<a xlink:href="classant_1_1analysis_1_1_histogram_factory.html" target="_top" xlink:title="ant::analysis::Histogram\lFactory">
<polygon fill="white" stroke="black" points="932.5,-248 932.5,-282 1055.5,-282 1055.5,-248 932.5,-248"/>
<text text-anchor="start" x="940.5" y="-269" font-family="Helvetica,sans-Serif" font-size="10.00">ant::analysis::Histogram</text>
<text text-anchor="middle" x="994" y="-256" font-family="Helvetica,sans-Serif" font-size="10.00">Factory</text>
</a>
</g>
<!-- Node3&#45;&gt;Node2 -->
<g id="edge4" class="edge"><title>Node3&#45;&gt;Node2</title>
<path fill="none" stroke="#9a32cd" stroke-dasharray="5,2" d="M1065.79,-257.321C1093.9,-254.313 1125.69,-250.912 1152.17,-248.08"/>
<polygon fill="#9a32cd" stroke="#9a32cd" points="1065.18,-253.865 1055.61,-258.409 1065.93,-260.825 1065.18,-253.865"/>
<text text-anchor="middle" x="1096" y="-260" font-family="Helvetica,sans-Serif" font-size="10.00"> HistFac</text>
</g>
<!-- Node4 -->
<g id="node6" class="node"><title>Node4</title>
<a xlink:href="classant_1_1_piecewise_interval.html" target="_top" xlink:title="ant::PiecewiseInterval\l\&lt; unsigned \&gt;">
<polygon fill="white" stroke="black" points="1152.5,-156 1152.5,-190 1265.5,-190 1265.5,-156 1152.5,-156"/>
<text text-anchor="start" x="1160.5" y="-177" font-family="Helvetica,sans-Serif" font-size="10.00">ant::PiecewiseInterval</text>
<text text-anchor="middle" x="1209" y="-164" font-family="Helvetica,sans-Serif" font-size="10.00">&lt; unsigned &gt;</text>
</a>
</g>
<!-- Node4&#45;&gt;Node1 -->
<g id="edge6" class="edge"><title>Node4&#45;&gt;Node1</title>
<path fill="none" stroke="#9a32cd" stroke-dasharray="5,2" d="M1275.75,-158.22C1303.65,-152.016 1336.41,-144.698 1366,-138 1371.79,-136.691 1377.82,-135.316 1383.85,-133.94"/>
<polygon fill="#9a32cd" stroke="#9a32cd" points="1274.7,-154.866 1265.7,-160.452 1276.22,-161.699 1274.7,-154.866"/>
<text text-anchor="middle" x="1333" y="-156" font-family="Helvetica,sans-Serif" font-size="10.00"> multiplicities</text>
</g>
<!-- Node5 -->
<g id="node8" class="node"><title>Node5</title>
<a xlink:title="STL class. ">
<polygon fill="white" stroke="#bfbfbf" points="942,-196 942,-230 1046,-230 1046,-196 942,-196"/>
<text text-anchor="start" x="950" y="-217" font-family="Helvetica,sans-Serif" font-size="10.00">std::vector&lt; interval</text>
<text text-anchor="middle" x="994" y="-204" font-family="Helvetica,sans-Serif" font-size="10.00">&lt; unsigned &gt; &gt;</text>
</a>
</g>
<!-- Node5&#45;&gt;Node4 -->
<g id="edge8" class="edge"><title>Node5&#45;&gt;Node4</title>
<path fill="none" stroke="midnightblue" d="M1056.08,-201.451C1086.38,-195.813 1122.58,-189.078 1152.15,-183.577"/>
<polygon fill="midnightblue" stroke="midnightblue" points="1055.24,-198.047 1046.05,-203.317 1056.52,-204.929 1055.24,-198.047"/>
</g>
<!-- Node6 -->
<g id="node10" class="node"><title>Node6</title>
<polygon fill="white" stroke="#bfbfbf" points="767.5,-202.5 767.5,-223.5 796.5,-223.5 796.5,-202.5 767.5,-202.5"/>
<text text-anchor="middle" x="782" y="-210.5" font-family="Helvetica,sans-Serif" font-size="10.00">T</text>
</g>
<!-- Node6&#45;&gt;Node5 -->
<g id="edge10" class="edge"><title>Node6&#45;&gt;Node5</title>
<path fill="none" stroke="#9a32cd" stroke-dasharray="5,2" d="M806.679,-213C839.633,-213 898.844,-213 941.895,-213"/>
<polygon fill="#9a32cd" stroke="#9a32cd" points="806.572,-209.5 796.572,-213 806.572,-216.5 806.572,-209.5"/>
<text text-anchor="middle" x="892" y="-217" font-family="Helvetica,sans-Serif" font-size="10.00"> elements</text>
</g>
<!-- Node7 -->
<g id="node12" class="node"><title>Node7</title>
<a xlink:href="classant_1_1printable__traits.html" target="_top" xlink:title="ant::printable_traits">
<polygon fill="white" stroke="black" points="944,-156.5 944,-177.5 1044,-177.5 1044,-156.5 944,-156.5"/>
<text text-anchor="middle" x="994" y="-164.5" font-family="Helvetica,sans-Serif" font-size="10.00">ant::printable_traits</text>
</a>
</g>
<!-- Node7&#45;&gt;Node4 -->
<g id="edge12" class="edge"><title>Node7&#45;&gt;Node4</title>
<path fill="none" stroke="midnightblue" d="M1054.29,-168.682C1085.01,-169.54 1122.14,-170.576 1152.33,-171.419"/>
<polygon fill="midnightblue" stroke="midnightblue" points="1054.23,-165.18 1044.14,-168.399 1054.04,-172.177 1054.23,-165.18"/>
</g>
<!-- Node8 -->
<g id="node14" class="node"><title>Node8</title>
<a xlink:href="structant_1_1analysis_1_1physics_1_1_just_particles_1_1_tree__t.html" target="_top" xlink:title="ant::analysis::physics\l::JustParticles::Tree_t">
<polygon fill="white" stroke="black" points="1152.5,-52 1152.5,-86 1265.5,-86 1265.5,-52 1152.5,-52"/>
<text text-anchor="start" x="1160.5" y="-73" font-family="Helvetica,sans-Serif" font-size="10.00">ant::analysis::physics</text>
<text text-anchor="middle" x="1209" y="-60" font-family="Helvetica,sans-Serif" font-size="10.00">::JustParticles::Tree_t</text>
</a>
</g>
<!-- Node8&#45;&gt;Node1 -->
<g id="edge14" class="edge"><title>Node8&#45;&gt;Node1</title>
<path fill="none" stroke="#9a32cd" stroke-dasharray="5,2" d="M1275.75,-83.7801C1303.65,-89.9845 1336.41,-97.3019 1366,-104 1371.79,-105.309 1377.82,-106.684 1383.85,-108.06"/>
<polygon fill="#9a32cd" stroke="#9a32cd" points="1276.22,-80.3006 1265.7,-81.5478 1274.7,-87.1339 1276.22,-80.3006"/>
<text text-anchor="middle" x="1333" y="-108" font-family="Helvetica,sans-Serif" font-size="10.00"> t</text>
</g>
<!-- Node9 -->
<g id="node16" class="node"><title>Node9</title>
<a xlink:href="structant_1_1_wrap_t_tree.html" target="_top" xlink:title="The WrapTTree struct simplifies TTree handling in physics classes. ">
<polygon fill="white" stroke="black" points="951.5,-36.5 951.5,-57.5 1036.5,-57.5 1036.5,-36.5 951.5,-36.5"/>
<text text-anchor="middle" x="994" y="-44.5" font-family="Helvetica,sans-Serif" font-size="10.00">ant::WrapTTree</text>
</a>
</g>
<!-- Node9&#45;&gt;Node8 -->
<g id="edge16" class="edge"><title>Node9&#45;&gt;Node8</title>
<path fill="none" stroke="midnightblue" d="M1046.81,-52.4039C1078.87,-55.6845 1119.78,-59.8703 1152.49,-63.2173"/>
<polygon fill="midnightblue" stroke="midnightblue" points="1047.04,-48.909 1036.73,-51.3728 1046.33,-55.8726 1047.04,-48.909"/>
</g>
<!-- Node10 -->
<g id="node18" class="node"><title>Node10</title>
<polygon fill="white" stroke="#bfbfbf" points="712,-25 712,-59 852,-59 852,-25 712,-25"/>
<text text-anchor="start" x="720" y="-46" font-family="Helvetica,sans-Serif" font-size="10.00">std::vector&lt; ant::WrapTTree</text>
<text text-anchor="middle" x="782" y="-33" font-family="Helvetica,sans-Serif" font-size="10.00">::ROOT_branch_t &gt;</text>
</g>
<!-- Node10&#45;&gt;Node9 -->
<g id="edge18" class="edge"><title>Node10&#45;&gt;Node9</title>
<path fill="none" stroke="#9a32cd" stroke-dasharray="5,2" d="M862.146,-43.8902C892.434,-44.6046 925.723,-45.3897 951.274,-45.9923"/>
<polygon fill="#9a32cd" stroke="#9a32cd" points="862.084,-40.3879 852.004,-43.651 861.919,-47.386 862.084,-40.3879"/>
<text text-anchor="middle" x="892" y="-50" font-family="Helvetica,sans-Serif" font-size="10.00"> branches</text>
</g>
<!-- Node11 -->
<g id="node20" class="node"><title>Node11</title>
<a xlink:href="structant_1_1_wrap_t_tree_1_1_r_o_o_t__branch__t.html" target="_top" xlink:title="ant::WrapTTree::ROOT\l_branch_t">
<polygon fill="white" stroke="black" points="509.5,-20 509.5,-54 628.5,-54 628.5,-20 509.5,-20"/>
<text text-anchor="start" x="517.5" y="-41" font-family="Helvetica,sans-Serif" font-size="10.00">ant::WrapTTree::ROOT</text>
<text text-anchor="middle" x="569" y="-28" font-family="Helvetica,sans-Serif" font-size="10.00">_branch_t</text>
</a>
</g>
<!-- Node11&#45;&gt;Node10 -->
<g id="edge20" class="edge"><title>Node11&#45;&gt;Node10</title>
<path fill="none" stroke="#9a32cd" stroke-dasharray="5,2" d="M638.822,-38.639C662.252,-39.189 688.379,-39.8023 711.835,-40.3529"/>
<polygon fill="#9a32cd" stroke="#9a32cd" points="638.695,-35.1352 628.616,-38.3994 638.531,-42.1332 638.695,-35.1352"/>
<text text-anchor="middle" x="672" y="-44" font-family="Helvetica,sans-Serif" font-size="10.00"> elements</text>
</g>
<!-- Node12 -->
<g id="node22" class="node"><title>Node12</title>
<a xlink:href="structant_1_1_wrap_t_tree_1_1_r_o_o_t__branchinfo__t.html" target="_top" xlink:title="ant::WrapTTree::ROOT\l_branchinfo_t">
<polygon fill="white" stroke="black" points="308.5,-20 308.5,-54 427.5,-54 427.5,-20 308.5,-20"/>
<text text-anchor="start" x="316.5" y="-41" font-family="Helvetica,sans-Serif" font-size="10.00">ant::WrapTTree::ROOT</text>
<text text-anchor="middle" x="368" y="-28" font-family="Helvetica,sans-Serif" font-size="10.00">_branchinfo_t</text>
</a>
</g>
<!-- Node12&#45;&gt;Node11 -->
<g id="edge22" class="edge"><title>Node12&#45;&gt;Node11</title>
<path fill="none" stroke="midnightblue" d="M437.939,-37C461.261,-37 487.011,-37 509.468,-37"/>
<polygon fill="midnightblue" stroke="midnightblue" points="437.762,-33.5001 427.762,-37 437.762,-40.5001 437.762,-33.5001"/>
</g>
<!-- Node13 -->
<g id="node24" class="node"><title>Node13</title>
<a xlink:title="STL class. ">
<polygon fill="white" stroke="#bfbfbf" points="153,-35.5 153,-56.5 213,-56.5 213,-35.5 153,-35.5"/>
<text text-anchor="middle" x="183" y="-43.5" font-family="Helvetica,sans-Serif" font-size="10.00">std::string</text>
</a>
</g>
<!-- Node13&#45;&gt;Node12 -->
<g id="edge24" class="edge"><title>Node13&#45;&gt;Node12</title>
<path fill="none" stroke="#9a32cd" stroke-dasharray="5,2" d="M223.313,-40.4564C232.093,-39.4533 241.345,-38.5517 250,-38 268.912,-36.7945 289.563,-36.3296 308.227,-36.2275"/>
<polygon fill="#9a32cd" stroke="#9a32cd" points="222.795,-36.9933 213.286,-41.6655 223.633,-43.943 222.795,-36.9933"/>
<text text-anchor="middle" x="265" y="-42" font-family="Helvetica,sans-Serif" font-size="10.00"> Name</text>
</g>
<!-- Node22 -->
<g id="node42" class="node"><title>Node22</title>
<a xlink:href="structant_1_1analysis_1_1utils_1_1_kin_fitter_1_1_beam_e__t.html" target="_top" xlink:title="ant::analysis::utils\l::KinFitter::BeamE_t">
<polygon fill="white" stroke="black" points="315,-79 315,-113 421,-113 421,-79 315,-79"/>
<text text-anchor="start" x="323" y="-100" font-family="Helvetica,sans-Serif" font-size="10.00">ant::analysis::utils</text>
<text text-anchor="middle" x="368" y="-87" font-family="Helvetica,sans-Serif" font-size="10.00">::KinFitter::BeamE_t</text>
</a>
</g>
<!-- Node13&#45;&gt;Node22 -->
<g id="edge46" class="edge"><title>Node13&#45;&gt;Node22</title>
<path fill="none" stroke="#9a32cd" stroke-dasharray="5,2" d="M222.956,-56.799C249.792,-64.0519 285.456,-73.6908 314.704,-81.5956"/>
<polygon fill="#9a32cd" stroke="#9a32cd" points="223.702,-53.375 213.135,-54.1446 221.876,-60.1326 223.702,-53.375"/>
<text text-anchor="middle" x="265" y="-75" font-family="Helvetica,sans-Serif" font-size="10.00"> Name</text>
</g>
<!-- Node14 -->
<g id="node26" class="node"><title>Node14</title>
<a xlink:title="STL class. ">
<polygon fill="white" stroke="#bfbfbf" points="0.5,-29 0.5,-63 95.5,-63 95.5,-29 0.5,-29"/>
<text text-anchor="start" x="8.5" y="-50" font-family="Helvetica,sans-Serif" font-size="10.00">std::basic_string&lt;</text>
<text text-anchor="middle" x="48" y="-37" font-family="Helvetica,sans-Serif" font-size="10.00"> char &gt;</text>
</a>
</g>
<!-- Node14&#45;&gt;Node13 -->
<g id="edge26" class="edge"><title>Node14&#45;&gt;Node13</title>
<path fill="none" stroke="midnightblue" d="M106.01,-46C122.079,-46 138.879,-46 152.671,-46"/>
<polygon fill="midnightblue" stroke="midnightblue" points="105.596,-42.5001 95.5959,-46 105.596,-49.5001 105.596,-42.5001"/>
</g>
<!-- Node15 -->
<g id="node28" class="node"><title>Node15</title>
<a xlink:href="classant_1_1analysis_1_1_prompt_random_1_1_switch.html" target="_top" xlink:title="ant::analysis::PromptRandom\l::Switch">
<polygon fill="white" stroke="black" points="1136,-0 1136,-34 1282,-34 1282,-0 1136,-0"/>
<text text-anchor="start" x="1144" y="-21" font-family="Helvetica,sans-Serif" font-size="10.00">ant::analysis::PromptRandom</text>
<text text-anchor="middle" x="1209" y="-8" font-family="Helvetica,sans-Serif" font-size="10.00">::Switch</text>
</a>
</g>
<!-- Node15&#45;&gt;Node1 -->
<g id="edge28" class="edge"><title>Node15&#45;&gt;Node1</title>
<path fill="none" stroke="#9a32cd" stroke-dasharray="5,2" d="M1278.25,-37.1503C1306.15,-46.3158 1338.23,-58.2112 1366,-72 1384.08,-80.9777 1403.03,-93.5982 1417.23,-103.783"/>
<polygon fill="#9a32cd" stroke="#9a32cd" points="1279.16,-33.7668 1268.57,-34.0236 1277.01,-40.4279 1279.16,-33.7668"/>
<text text-anchor="middle" x="1333" y="-76" font-family="Helvetica,sans-Serif" font-size="10.00"> promptrandom</text>
</g>
<!-- Node16 -->
<g id="node30" class="node"><title>Node16</title>
<polygon fill="white" stroke="#bfbfbf" points="1148.5,-104 1148.5,-138 1269.5,-138 1269.5,-104 1148.5,-104"/>
<text text-anchor="start" x="1156.5" y="-125" font-family="Helvetica,sans-Serif" font-size="10.00">std::vector&lt; std::unique</text>
<text text-anchor="middle" x="1209" y="-112" font-family="Helvetica,sans-Serif" font-size="10.00">_ptr&lt; utils::KinFitter &gt; &gt;</text>
</g>
<!-- Node16&#45;&gt;Node1 -->
<g id="edge30" class="edge"><title>Node16&#45;&gt;Node1</title>
<path fill="none" stroke="#9a32cd" stroke-dasharray="5,2" d="M1279.84,-121C1313.18,-121 1352.4,-121 1383.68,-121"/>
<polygon fill="#9a32cd" stroke="#9a32cd" points="1279.69,-117.5 1269.69,-121 1279.69,-124.5 1279.69,-117.5"/>
<text text-anchor="middle" x="1333" y="-125" font-family="Helvetica,sans-Serif" font-size="10.00"> fitters</text>
</g>
<!-- Node17 -->
<g id="node32" class="node"><title>Node17</title>
<polygon fill="white" stroke="#bfbfbf" points="940,-104 940,-138 1048,-138 1048,-104 940,-104"/>
<text text-anchor="start" x="948" y="-125" font-family="Helvetica,sans-Serif" font-size="10.00">std::unique_ptr&lt; utils</text>
<text text-anchor="middle" x="994" y="-112" font-family="Helvetica,sans-Serif" font-size="10.00">::KinFitter &gt;</text>
</g>
<!-- Node17&#45;&gt;Node16 -->
<g id="edge32" class="edge"><title>Node17&#45;&gt;Node16</title>
<path fill="none" stroke="#9a32cd" stroke-dasharray="5,2" d="M1058.51,-121C1086.99,-121 1120.29,-121 1148.31,-121"/>
<polygon fill="#9a32cd" stroke="#9a32cd" points="1058.25,-117.5 1048.25,-121 1058.25,-124.5 1058.25,-117.5"/>
<text text-anchor="middle" x="1096" y="-125" font-family="Helvetica,sans-Serif" font-size="10.00"> elements</text>
</g>
<!-- Node18 -->
<g id="node34" class="node"><title>Node18</title>
<a xlink:href="classant_1_1analysis_1_1utils_1_1_kin_fitter.html" target="_top" xlink:title="ant::analysis::utils\l::KinFitter">
<polygon fill="white" stroke="black" points="734,-111 734,-145 830,-145 830,-111 734,-111"/>
<text text-anchor="start" x="742" y="-132" font-family="Helvetica,sans-Serif" font-size="10.00">ant::analysis::utils</text>
<text text-anchor="middle" x="782" y="-119" font-family="Helvetica,sans-Serif" font-size="10.00">::KinFitter</text>
</a>
</g>
<!-- Node18&#45;&gt;Node17 -->
<g id="edge34" class="edge"><title>Node18&#45;&gt;Node17</title>
<path fill="none" stroke="#9a32cd" stroke-dasharray="5,2" d="M840.35,-126.073C871.397,-125.048 909.33,-123.796 939.738,-122.792"/>
<polygon fill="#9a32cd" stroke="#9a32cd" points="839.985,-122.583 830.106,-126.412 840.216,-129.58 839.985,-122.583"/>
<text text-anchor="middle" x="892" y="-128" font-family="Helvetica,sans-Serif" font-size="10.00"> ptr</text>
</g>
<!-- Node19 -->
<g id="node36" class="node"><title>Node19</title>
<a xlink:href="classant_1_1analysis_1_1utils_1_1_fitter.html" target="_top" xlink:title="ant::analysis::utils\l::Fitter">
<polygon fill="white" stroke="black" points="521,-190 521,-224 617,-224 617,-190 521,-190"/>
<text text-anchor="start" x="529" y="-211" font-family="Helvetica,sans-Serif" font-size="10.00">ant::analysis::utils</text>
<text text-anchor="middle" x="569" y="-198" font-family="Helvetica,sans-Serif" font-size="10.00">::Fitter</text>
</a>
</g>
<!-- Node19&#45;&gt;Node18 -->
<g id="edge36" class="edge"><title>Node19&#45;&gt;Node18</title>
<path fill="none" stroke="midnightblue" d="M625.26,-186.38C646.777,-178.472 671.537,-169.345 694,-161 707.919,-155.829 723.062,-150.165 736.8,-145.011"/>
<polygon fill="midnightblue" stroke="midnightblue" points="623.803,-183.186 615.623,-189.92 626.216,-189.757 623.803,-183.186"/>
</g>
<!-- Node20 -->
<g id="node38" class="node"><title>Node20</title>
<polygon fill="white" stroke="#bfbfbf" points="298,-196.5 298,-217.5 438,-217.5 438,-196.5 298,-196.5"/>
<text text-anchor="middle" x="368" y="-204.5" font-family="Helvetica,sans-Serif" font-size="10.00">std::unique_ptr&lt; APLCON &gt;</text>
</g>
<!-- Node20&#45;&gt;Node19 -->
<g id="edge38" class="edge"><title>Node20&#45;&gt;Node19</title>
<path fill="none" stroke="#9a32cd" stroke-dasharray="5,2" d="M448.067,-207C472.653,-207 498.942,-207 520.708,-207"/>
<polygon fill="#9a32cd" stroke="#9a32cd" points="448.018,-203.5 438.018,-207 448.018,-210.5 448.018,-203.5"/>
<text text-anchor="middle" x="472" y="-211" font-family="Helvetica,sans-Serif" font-size="10.00"> aplcon</text>
</g>
<!-- Node21 -->
<g id="node40" class="node"><title>Node21</title>
<polygon fill="white" stroke="#bfbfbf" points="506.5,-72.5 506.5,-119.5 631.5,-119.5 631.5,-72.5 506.5,-72.5"/>
<text text-anchor="start" x="514.5" y="-106.5" font-family="Helvetica,sans-Serif" font-size="10.00">std::unique_ptr&lt; ant</text>
<text text-anchor="start" x="514.5" y="-93.5" font-family="Helvetica,sans-Serif" font-size="10.00">::analysis::utils::KinFitter</text>
<text text-anchor="middle" x="569" y="-80.5" font-family="Helvetica,sans-Serif" font-size="10.00">::BeamE_t &gt;</text>
</g>
<!-- Node21&#45;&gt;Node18 -->
<g id="edge40" class="edge"><title>Node21&#45;&gt;Node18</title>
<path fill="none" stroke="#9a32cd" stroke-dasharray="5,2" d="M641.889,-106.951C672.282,-111.517 706.743,-116.694 733.883,-120.771"/>
<polygon fill="#9a32cd" stroke="#9a32cd" points="642.164,-103.453 631.755,-105.428 641.124,-110.375 642.164,-103.453"/>
<text text-anchor="middle" x="672" y="-117" font-family="Helvetica,sans-Serif" font-size="10.00"> BeamE</text>
</g>
<!-- Node22&#45;&gt;Node21 -->
<g id="edge42" class="edge"><title>Node22&#45;&gt;Node21</title>
<path fill="none" stroke="#9a32cd" stroke-dasharray="5,2" d="M431.128,-96C455.109,-96 482.399,-96 506.336,-96"/>
<polygon fill="#9a32cd" stroke="#9a32cd" points="431.073,-92.5001 421.073,-96 431.073,-99.5001 431.073,-92.5001"/>
<text text-anchor="middle" x="472" y="-100" font-family="Helvetica,sans-Serif" font-size="10.00"> ptr</text>
</g>
<!-- Node23 -->
<g id="node44" class="node"><title>Node23</title>
<a xlink:href="structant_1_1analysis_1_1utils_1_1_fitter_1_1_fit_variable.html" target="_top" xlink:title="ant::analysis::utils\l::Fitter::FitVariable">
<polygon fill="white" stroke="black" points="134,-84 134,-118 232,-118 232,-84 134,-84"/>
<text text-anchor="start" x="142" y="-105" font-family="Helvetica,sans-Serif" font-size="10.00">ant::analysis::utils</text>
<text text-anchor="middle" x="183" y="-92" font-family="Helvetica,sans-Serif" font-size="10.00">::Fitter::FitVariable</text>
</a>
</g>
<!-- Node23&#45;&gt;Node22 -->
<g id="edge44" class="edge"><title>Node23&#45;&gt;Node22</title>
<path fill="none" stroke="midnightblue" d="M242.203,-99.3999C265.516,-98.7698 292.085,-98.0518 314.779,-97.4384"/>
<polygon fill="midnightblue" stroke="midnightblue" points="241.993,-95.9042 232.091,-99.6732 242.182,-102.902 241.993,-95.9042"/>
</g>
<!-- Node24 -->
<g id="node47" class="node"><title>Node24</title>
<polygon fill="white" stroke="#bfbfbf" points="508.5,-138 508.5,-172 629.5,-172 629.5,-138 508.5,-138"/>
<text text-anchor="start" x="516.5" y="-159" font-family="Helvetica,sans-Serif" font-size="10.00">std::vector&lt; std::shared</text>
<text text-anchor="middle" x="569" y="-146" font-family="Helvetica,sans-Serif" font-size="10.00">_ptr&lt; FitParticle &gt; &gt;</text>
</g>
<!-- Node24&#45;&gt;Node18 -->
<g id="edge48" class="edge"><title>Node24&#45;&gt;Node18</title>
<path fill="none" stroke="#9a32cd" stroke-dasharray="5,2" d="M639.999,-146C670.769,-142.1 706.004,-137.633 733.677,-134.125"/>
<polygon fill="#9a32cd" stroke="#9a32cd" points="639.233,-142.569 629.752,-147.299 640.113,-149.514 639.233,-142.569"/>
<text text-anchor="middle" x="672" y="-148" font-family="Helvetica,sans-Serif" font-size="10.00"> Photons</text>
</g>
</g>
</svg>
