<?xml version="1.0" encoding="UTF-8" standalone="no"?>
<!DOCTYPE svg PUBLIC "-//W3C//DTD SVG 1.1//EN"
 "http://www.w3.org/Graphics/SVG/1.1/DTD/svg11.dtd">
<!-- Generated by graphviz version 2.26.3 (20100126.1600)
 -->
<!-- Title: ant::calibration::TAPS_ToF::TheGUI Pages: 1 -->
<svg width="962pt" height="342pt"
 viewBox="0.00 0.00 962.00 342.00" xmlns="http://www.w3.org/2000/svg" xmlns:xlink="http://www.w3.org/1999/xlink">
<g id="graph1" class="graph" transform="scale(1 1) rotate(0) translate(4 338)">
<title>ant::calibration::TAPS_ToF::TheGUI</title>
<polygon fill="white" stroke="white" points="-4,5 -4,-338 959,-338 959,5 -4,5"/>
<!-- Node1 -->
<g id="node1" class="node"><title>Node1</title>
<polygon fill="#bfbfbf" stroke="black" points="840.5,-87 840.5,-121 953.5,-121 953.5,-87 840.5,-87"/>
<text text-anchor="start" x="848.5" y="-108" font-family="Helvetica,sans-Serif" font-size="10.00">ant::calibration::TAPS</text>
<text text-anchor="middle" x="897" y="-95" font-family="Helvetica,sans-Serif" font-size="10.00">_ToF::TheGUI</text>
</g>
<!-- Node2 -->
<g id="node2" class="node"><title>Node2</title>
<a xlink:href="classant_1_1calibration_1_1gui_1_1_calib_module__traits.html" target="_top" xlink:title="ant::calibration::gui\l::CalibModule_traits">
<polygon fill="white" stroke="black" points="639,-192 639,-226 743,-226 743,-192 639,-192"/>
<text text-anchor="start" x="647" y="-213" font-family="Helvetica,sans-Serif" font-size="10.00">ant::calibration::gui</text>
<text text-anchor="middle" x="691" y="-200" font-family="Helvetica,sans-Serif" font-size="10.00">::CalibModule_traits</text>
</a>
</g>
<!-- Node2&#45;&gt;Node1 -->
<g id="edge2" class="edge"><title>Node2&#45;&gt;Node1</title>
<path fill="none" stroke="midnightblue" d="M740.277,-188.007C744.244,-186.314 748.189,-184.629 752,-183 783.124,-169.697 792.164,-168.984 822,-153 839.686,-143.525 858.592,-131.157 872.998,-121.218"/>
<polygon fill="midnightblue" stroke="midnightblue" points="738.861,-184.806 731.036,-191.949 741.607,-191.244 738.861,-184.806"/>
</g>
<!-- Node3 -->
<g id="node4" class="node"><title>Node3</title>
<a xlink:href="classant_1_1calibration_1_1gui_1_1_cal_canvas.html" target="_top" xlink:title="ant::calibration::gui\l::CalCanvas">
<polygon fill="white" stroke="black" points="641.5,-140 641.5,-174 740.5,-174 740.5,-140 641.5,-140"/>
<text text-anchor="start" x="649.5" y="-161" font-family="Helvetica,sans-Serif" font-size="10.00">ant::calibration::gui</text>
<text text-anchor="middle" x="691" y="-148" font-family="Helvetica,sans-Serif" font-size="10.00">::CalCanvas</text>
</a>
</g>
<!-- Node3&#45;&gt;Node1 -->
<g id="edge4" class="edge"><title>Node3&#45;&gt;Node1</title>
<path fill="none" stroke="#9a32cd" stroke-dasharray="5,2" d="M750.358,-141.728C778.617,-134.458 812.254,-125.804 840.179,-118.619"/>
<polygon fill="#9a32cd" stroke="#9a32cd" points="749.417,-138.356 740.604,-144.238 751.161,-145.136 749.417,-138.356"/>
<text text-anchor="middle" x="796" y="-140" font-family="Helvetica,sans-Serif" font-size="10.00"> theCanvas</text>
</g>
<!-- Node4 -->
<g id="node6" class="node"><title>Node4</title>
<polygon fill="white" stroke="#bfbfbf" points="422,-312.5 422,-333.5 478,-333.5 478,-312.5 422,-312.5"/>
<text text-anchor="middle" x="450" y="-320.5" font-family="Helvetica,sans-Serif" font-size="10.00">TCanvas</text>
</g>
<!-- Node4&#45;&gt;Node3 -->
<g id="edge6" class="edge"><title>Node4&#45;&gt;Node3</title>
<path fill="none" stroke="midnightblue" d="M488.478,-328.729C525.357,-331.86 580.006,-329.925 612,-298 648.62,-261.458 598.217,-223.819 630,-183 633.183,-178.912 637.131,-175.459 641.478,-172.542"/>
<polygon fill="midnightblue" stroke="midnightblue" points="488.417,-325.205 478.115,-327.677 487.71,-332.169 488.417,-325.205"/>
</g>
<!-- Node5 -->
<g id="node8" class="node"><title>Node5</title>
<a xlink:href="classant_1_1calibration_1_1gui_1_1update__notify__traits.html" target="_top" xlink:title="ant::calibration::gui\l::update_notify_traits">
<polygon fill="white" stroke="black" points="0,-254 0,-288 108,-288 108,-254 0,-254"/>
<text text-anchor="start" x="8" y="-275" font-family="Helvetica,sans-Serif" font-size="10.00">ant::calibration::gui</text>
<text text-anchor="middle" x="54" y="-262" font-family="Helvetica,sans-Serif" font-size="10.00">::update_notify_traits</text>
</a>
</g>
<!-- Node5&#45;&gt;Node3 -->
<g id="edge8" class="edge"><title>Node5&#45;&gt;Node3</title>
<path fill="none" stroke="midnightblue" d="M118.292,-278.401C210.97,-287.231 386.919,-297.093 532,-265 570.069,-256.579 585.126,-257.249 612,-229 627.132,-213.094 614.71,-198.754 630,-183 633.367,-179.53 637.272,-176.499 641.446,-173.856"/>
<polygon fill="midnightblue" stroke="midnightblue" points="118.519,-274.907 108.226,-277.414 117.837,-281.873 118.519,-274.907"/>
</g>
<!-- Node10 -->
<g id="node18" class="node"><title>Node10</title>
<a xlink:href="classant_1_1calibration_1_1gui_1_1_indicator.html" target="_top" xlink:title="ant::calibration::gui\l::Indicator">
<polygon fill="white" stroke="black" points="188.5,-222 188.5,-256 287.5,-256 287.5,-222 188.5,-222"/>
<text text-anchor="start" x="196.5" y="-243" font-family="Helvetica,sans-Serif" font-size="10.00">ant::calibration::gui</text>
<text text-anchor="middle" x="238" y="-230" font-family="Helvetica,sans-Serif" font-size="10.00">::Indicator</text>
</a>
</g>
<!-- Node5&#45;&gt;Node10 -->
<g id="edge20" class="edge"><title>Node5&#45;&gt;Node10</title>
<path fill="none" stroke="midnightblue" d="M118.218,-259.832C141.185,-255.837 166.7,-251.4 188.26,-247.65"/>
<polygon fill="midnightblue" stroke="midnightblue" points="117.463,-256.41 108.211,-261.572 118.663,-263.307 117.463,-256.41"/>
</g>
<!-- Node6 -->
<g id="node10" class="node"><title>Node6</title>
<polygon fill="white" stroke="#bfbfbf" points="368,-170 368,-204 532,-204 532,-170 368,-170"/>
<text text-anchor="start" x="376" y="-191" font-family="Helvetica,sans-Serif" font-size="10.00">std::stack&lt; ant::calibration</text>
<text text-anchor="middle" x="450" y="-178" font-family="Helvetica,sans-Serif" font-size="10.00">::gui::FitFunction::SavedState_t &gt;</text>
</g>
<!-- Node6&#45;&gt;Node3 -->
<g id="edge10" class="edge"><title>Node6&#45;&gt;Node3</title>
<path fill="none" stroke="#9a32cd" stroke-dasharray="5,2" d="M542.589,-175.474C576.216,-171.288 612.911,-166.721 641.4,-163.174"/>
<polygon fill="#9a32cd" stroke="#9a32cd" points="541.756,-172.051 532.264,-176.76 542.62,-178.997 541.756,-172.051"/>
<text text-anchor="middle" x="581" y="-178" font-family="Helvetica,sans-Serif" font-size="10.00"> UndoStack</text>
</g>
<!-- Node7 -->
<g id="node12" class="node"><title>Node7</title>
<a xlink:title="STL class. ">
<polygon fill="white" stroke="#bfbfbf" points="194.5,-176.5 194.5,-197.5 281.5,-197.5 281.5,-176.5 194.5,-176.5"/>
<text text-anchor="middle" x="238" y="-184.5" font-family="Helvetica,sans-Serif" font-size="10.00">std::vector&lt; T &gt;</text>
</a>
</g>
<!-- Node7&#45;&gt;Node6 -->
<g id="edge12" class="edge"><title>Node7&#45;&gt;Node6</title>
<path fill="none" stroke="#9a32cd" stroke-dasharray="5,2" d="M291.922,-187C314.955,-187 342.354,-187 367.818,-187"/>
<polygon fill="#9a32cd" stroke="#9a32cd" points="291.67,-183.5 281.669,-187 291.669,-190.5 291.67,-183.5"/>
<text text-anchor="middle" x="328" y="-191" font-family="Helvetica,sans-Serif" font-size="10.00"> elements</text>
</g>
<!-- Node8 -->
<g id="node14" class="node"><title>Node8</title>
<polygon fill="white" stroke="#bfbfbf" points="39.5,-176.5 39.5,-197.5 68.5,-197.5 68.5,-176.5 39.5,-176.5"/>
<text text-anchor="middle" x="54" y="-184.5" font-family="Helvetica,sans-Serif" font-size="10.00">T</text>
</g>
<!-- Node8&#45;&gt;Node7 -->
<g id="edge14" class="edge"><title>Node8&#45;&gt;Node7</title>
<path fill="none" stroke="#9a32cd" stroke-dasharray="5,2" d="M79.0351,-187C108.645,-187 158.447,-187 194.427,-187"/>
<polygon fill="#9a32cd" stroke="#9a32cd" points="78.7465,-183.5 68.7465,-187 78.7464,-190.5 78.7465,-183.5"/>
<text text-anchor="middle" x="148" y="-191" font-family="Helvetica,sans-Serif" font-size="10.00"> elements</text>
</g>
<!-- Node9 -->
<g id="node16" class="node"><title>Node9</title>
<polygon fill="white" stroke="#bfbfbf" points="389,-222 389,-256 511,-256 511,-222 389,-222"/>
<text text-anchor="start" x="397" y="-243" font-family="Helvetica,sans-Serif" font-size="10.00">std::list&lt; ant::calibration</text>
<text text-anchor="middle" x="450" y="-230" font-family="Helvetica,sans-Serif" font-size="10.00">::gui::Indicator * &gt;</text>
</g>
<!-- Node9&#45;&gt;Node3 -->
<g id="edge16" class="edge"><title>Node9&#45;&gt;Node3</title>
<path fill="none" stroke="#9a32cd" stroke-dasharray="5,2" d="M520.908,-220.155C549.481,-212.002 582.578,-201.845 612,-191 620.214,-187.972 621.973,-186.494 630,-183 636.65,-180.105 643.721,-177.061 650.604,-174.115"/>
<polygon fill="#9a32cd" stroke="#9a32cd" points="519.675,-216.866 511.004,-222.953 521.579,-223.602 519.675,-216.866"/>
<text text-anchor="middle" x="581" y="-216" font-family="Helvetica,sans-Serif" font-size="10.00"> indicators</text>
</g>
<!-- Node10&#45;&gt;Node9 -->
<g id="edge18" class="edge"><title>Node10&#45;&gt;Node9</title>
<path fill="none" stroke="#9a32cd" stroke-dasharray="5,2" d="M297.912,-239C326.348,-239 360.278,-239 388.869,-239"/>
<polygon fill="#9a32cd" stroke="#9a32cd" points="297.705,-235.5 287.705,-239 297.705,-242.5 297.705,-235.5"/>
<text text-anchor="middle" x="328" y="-243" font-family="Helvetica,sans-Serif" font-size="10.00"> elements</text>
</g>
<!-- Node11 -->
<g id="node21" class="node"><title>Node11</title>
<a xlink:href="structant_1_1calibration_1_1gui_1_1_cal_canvas_1_1axis__settings__t.html" target="_top" xlink:title="ant::calibration::gui\l::CalCanvas::axis_settings_t">
<polygon fill="white" stroke="black" points="378.5,-118 378.5,-152 521.5,-152 521.5,-118 378.5,-118"/>
<text text-anchor="start" x="386.5" y="-139" font-family="Helvetica,sans-Serif" font-size="10.00">ant::calibration::gui</text>
<text text-anchor="middle" x="450" y="-126" font-family="Helvetica,sans-Serif" font-size="10.00">::CalCanvas::axis_settings_t</text>
</a>
</g>
<!-- Node11&#45;&gt;Node3 -->
<g id="edge22" class="edge"><title>Node11&#45;&gt;Node3</title>
<path fill="none" stroke="#9a32cd" stroke-dasharray="5,2" d="M531.883,-141.037C557.548,-143.072 585.968,-145.473 612,-148 621.48,-148.92 631.589,-149.998 641.299,-151.082"/>
<polygon fill="#9a32cd" stroke="#9a32cd" points="532.063,-137.54 521.819,-140.246 531.515,-144.519 532.063,-137.54"/>
<text text-anchor="middle" x="581" y="-152" font-family="Helvetica,sans-Serif" font-size="10.00"> axis_settings</text>
</g>
<!-- Node12 -->
<g id="node23" class="node"><title>Node12</title>
<a xlink:href="classant_1_1calibration_1_1gui_1_1_fit_function.html" target="_top" xlink:title="ant::calibration::gui\l::FitFunction">
<polygon fill="white" stroke="black" points="400.5,-66 400.5,-100 499.5,-100 499.5,-66 400.5,-66"/>
<text text-anchor="start" x="408.5" y="-87" font-family="Helvetica,sans-Serif" font-size="10.00">ant::calibration::gui</text>
<text text-anchor="middle" x="450" y="-74" font-family="Helvetica,sans-Serif" font-size="10.00">::FitFunction</text>
</a>
</g>
<!-- Node12&#45;&gt;Node3 -->
<g id="edge24" class="edge"><title>Node12&#45;&gt;Node3</title>
<path fill="none" stroke="#9a32cd" stroke-dasharray="5,2" d="M509.446,-97.0441C540.291,-104.767 578.44,-115.002 612,-126 624.461,-130.084 637.806,-135.075 649.914,-139.849"/>
<polygon fill="#9a32cd" stroke="#9a32cd" points="510.251,-93.6379 499.703,-94.6271 508.566,-100.432 510.251,-93.6379"/>
<text text-anchor="middle" x="581" y="-130" font-family="Helvetica,sans-Serif" font-size="10.00"> func</text>
</g>
<!-- Node13 -->
<g id="node25" class="node"><title>Node13</title>
<polygon fill="white" stroke="#bfbfbf" points="630,-0 630,-34 752,-34 752,-0 630,-0"/>
<text text-anchor="start" x="638" y="-21" font-family="Helvetica,sans-Serif" font-size="10.00">std::map&lt; unsigned,</text>
<text text-anchor="middle" x="691" y="-8" font-family="Helvetica,sans-Serif" font-size="10.00"> std::vector&lt; double &gt; &gt;</text>
</g>
<!-- Node13&#45;&gt;Node1 -->
<g id="edge26" class="edge"><title>Node13&#45;&gt;Node1</title>
<path fill="none" stroke="#9a32cd" stroke-dasharray="5,2" d="M762.268,-24.6668C782.229,-28.5211 803.51,-34.3094 822,-43 844.784,-53.709 866.618,-72.8111 880.792,-86.794"/>
<polygon fill="#9a32cd" stroke="#9a32cd" points="762.746,-21.1966 752.284,-22.8742 761.508,-28.0864 762.746,-21.1966"/>
<text text-anchor="middle" x="796" y="-47" font-family="Helvetica,sans-Serif" font-size="10.00"> fitParams</text>
</g>
<!-- Node14 -->
<g id="node27" class="node"><title>Node14</title>
<polygon fill="white" stroke="#bfbfbf" points="395,-21.5 395,-42.5 505,-42.5 505,-21.5 395,-21.5"/>
<text text-anchor="middle" x="450" y="-29.5" font-family="Helvetica,sans-Serif" font-size="10.00">std::vector&lt; double &gt;</text>
</g>
<!-- Node14&#45;&gt;Node1 -->
<g id="edge30" class="edge"><title>Node14&#45;&gt;Node1</title>
<path fill="none" stroke="#9a32cd" stroke-dasharray="5,2" d="M515.358,-42.5275C603.089,-56.6587 757.482,-81.5273 840.46,-94.8928"/>
<polygon fill="#9a32cd" stroke="#9a32cd" points="515.689,-39.0357 505.259,-40.9008 514.575,-45.9466 515.689,-39.0357"/>
<text text-anchor="middle" x="691" y="-97" font-family="Helvetica,sans-Serif" font-size="10.00"> offsets</text>
<text text-anchor="middle" x="691" y="-84" font-family="Helvetica,sans-Serif" font-size="10.00">previousOffsets</text>
</g>
<!-- Node14&#45;&gt;Node13 -->
<g id="edge28" class="edge"><title>Node14&#45;&gt;Node13</title>
<path fill="none" stroke="#9a32cd" stroke-dasharray="5,2" d="M515.561,-27.9195C551.097,-25.7076 594.745,-22.991 629.614,-20.8207"/>
<polygon fill="#9a32cd" stroke="#9a32cd" points="515.054,-24.4442 505.29,-28.5587 515.488,-31.4306 515.054,-24.4442"/>
<text text-anchor="middle" x="581" y="-30" font-family="Helvetica,sans-Serif" font-size="10.00"> elements</text>
</g>
</g>
</svg>
