<?xml version="1.0" encoding="UTF-8" standalone="no"?>
<!DOCTYPE svg PUBLIC "-//W3C//DTD SVG 1.1//EN"
 "http://www.w3.org/Graphics/SVG/1.1/DTD/svg11.dtd">
<!-- Generated by graphviz version 2.26.3 (20100126.1600)
 -->
<!-- Title: ant::analysis::physics::MCTrueAcceptance Pages: 1 -->
<svg width="273pt" height="302pt"
 viewBox="0.00 0.00 273.00 302.00" xmlns="http://www.w3.org/2000/svg" xmlns:xlink="http://www.w3.org/1999/xlink">
<g id="graph1" class="graph" transform="scale(1 1) rotate(0) translate(4 298)">
<title>ant::analysis::physics::MCTrueAcceptance</title>
<polygon fill="white" stroke="white" points="-4,5 -4,-298 270,-298 270,5 -4,5"/>
<!-- Node1 -->
<g id="node1" class="node"><title>Node1</title>
<polygon fill="#bfbfbf" stroke="black" points="82,-1 82,-35 194,-35 194,-1 82,-1"/>
<text text-anchor="start" x="90" y="-22" font-family="Helvetica,sans-Serif" font-size="10.00">ant::analysis::physics</text>
<text text-anchor="middle" x="138" y="-9" font-family="Helvetica,sans-Serif" font-size="10.00">::MCTrueAcceptance</text>
</g>
<!-- Node2 -->
<g id="node2" class="node"><title>Node2</title>
<a xlink:href="classant_1_1analysis_1_1_physics.html" target="_top" xlink:title="ant::analysis::Physics">
<polygon fill="white" stroke="black" points="6.5,-93.5 6.5,-114.5 119.5,-114.5 119.5,-93.5 6.5,-93.5"/>
<text text-anchor="middle" x="63" y="-101.5" font-family="Helvetica,sans-Serif" font-size="10.00">ant::analysis::Physics</text>
</a>
</g>
<!-- Node2&#45;&gt;Node1 -->
<g id="edge2" class="edge"><title>Node2&#45;&gt;Node1</title>
<path fill="none" stroke="midnightblue" d="M78.8232,-85.856C91.8619,-70.9051 110.225,-49.8486 123.025,-35.1709"/>
<polygon fill="midnightblue" stroke="midnightblue" points="76.1313,-83.6176 72.1965,-93.4547 81.407,-88.2185 76.1313,-83.6176"/>
</g>
<!-- Node3 -->
<g id="node4" class="node"><title>Node3</title>
<a xlink:href="classant_1_1analysis_1_1_histogram_factory.html" target="_top" xlink:title="ant::analysis::Histogram\lFactory">
<polygon fill="white" stroke="black" points="-0.5,-199 -0.5,-233 122.5,-233 122.5,-199 -0.5,-199"/>
<text text-anchor="start" x="7.5" y="-220" font-family="Helvetica,sans-Serif" font-size="10.00">ant::analysis::Histogram</text>
<text text-anchor="middle" x="61" y="-207" font-family="Helvetica,sans-Serif" font-size="10.00">Factory</text>
</a>
</g>
<!-- Node3&#45;&gt;Node2 -->
<g id="edge4" class="edge"><title>Node3&#45;&gt;Node2</title>
<path fill="none" stroke="#9a32cd" stroke-dasharray="5,2" d="M61.4854,-188.817C61.9105,-165.01 62.5062,-131.652 62.8082,-114.741"/>
<polygon fill="#9a32cd" stroke="#9a32cd" points="57.983,-188.929 61.3038,-198.99 64.9818,-189.054 57.983,-188.929"/>
<text text-anchor="middle" x="81" y="-157.5" font-family="Helvetica,sans-Serif" font-size="10.00"> HistFac</text>
</g>
<!-- Node4 -->
<g id="node6" class="node"><title>Node4</title>
<a xlink:href="classant_1_1analysis_1_1utils_1_1_a2_simple_geometry.html" target="_top" xlink:title="ant::analysis::utils\l::A2SimpleGeometry">
<polygon fill="white" stroke="black" points="137.5,-87 137.5,-121 244.5,-121 244.5,-87 137.5,-87"/>
<text text-anchor="start" x="145.5" y="-108" font-family="Helvetica,sans-Serif" font-size="10.00">ant::analysis::utils</text>
<text text-anchor="middle" x="191" y="-95" font-family="Helvetica,sans-Serif" font-size="10.00">::A2SimpleGeometry</text>
</a>
</g>
<!-- Node4&#45;&gt;Node1 -->
<g id="edge6" class="edge"><title>Node4&#45;&gt;Node1</title>
<path fill="none" stroke="#9a32cd" stroke-dasharray="5,2" d="M174.941,-77.9426C166.374,-64.041 156.074,-47.3271 148.529,-35.084"/>
<polygon fill="#9a32cd" stroke="#9a32cd" points="172.048,-79.9197 180.275,-86.5966 178.008,-76.2471 172.048,-79.9197"/>
<text text-anchor="middle" x="176.5" y="-58.5" font-family="Helvetica,sans-Serif" font-size="10.00"> geo</text>
</g>
<!-- Node5 -->
<g id="node8" class="node"><title>Node5</title>
<a xlink:href="classant_1_1interval.html" target="_top" xlink:title="ant::interval\&lt; double \&gt;">
<polygon fill="white" stroke="black" points="140,-205.5 140,-226.5 254,-226.5 254,-205.5 140,-205.5"/>
<text text-anchor="middle" x="197" y="-213.5" font-family="Helvetica,sans-Serif" font-size="10.00">ant::interval&lt; double &gt;</text>
</a>
</g>
<!-- Node5&#45;&gt;Node4 -->
<g id="edge8" class="edge"><title>Node5&#45;&gt;Node4</title>
<path fill="none" stroke="#9a32cd" stroke-dasharray="5,2" d="M195.889,-195.267C194.744,-173.892 192.98,-140.957 191.913,-121.045"/>
<polygon fill="#9a32cd" stroke="#9a32cd" points="192.395,-195.463 196.425,-205.261 199.385,-195.088 192.395,-195.463"/>
<text text-anchor="middle" x="230" y="-170.5" font-family="Helvetica,sans-Serif" font-size="10.00"> cb_phi_hem1</text>
<text text-anchor="middle" x="230" y="-157.5" font-family="Helvetica,sans-Serif" font-size="10.00">cb_theta_region</text>
<text text-anchor="middle" x="230" y="-144.5" font-family="Helvetica,sans-Serif" font-size="10.00">taps_region</text>
</g>
<!-- Node6 -->
<g id="node10" class="node"><title>Node6</title>
<a xlink:href="classant_1_1printable__traits.html" target="_top" xlink:title="ant::printable_traits">
<polygon fill="white" stroke="black" points="147,-272.5 147,-293.5 247,-293.5 247,-272.5 147,-272.5"/>
<text text-anchor="middle" x="197" y="-280.5" font-family="Helvetica,sans-Serif" font-size="10.00">ant::printable_traits</text>
</a>
</g>
<!-- Node6&#45;&gt;Node5 -->
<g id="edge10" class="edge"><title>Node6&#45;&gt;Node5</title>
<path fill="none" stroke="midnightblue" d="M197,-261.904C197,-250.127 197,-235.967 197,-226.517"/>
<polygon fill="midnightblue" stroke="midnightblue" points="193.5,-262.235 197,-272.235 200.5,-262.235 193.5,-262.235"/>
</g>
</g>
</svg>
