<?xml version="1.0" encoding="UTF-8" standalone="no"?>
<!DOCTYPE svg PUBLIC "-//W3C//DTD SVG 1.1//EN"
 "http://www.w3.org/Graphics/SVG/1.1/DTD/svg11.dtd">
<!-- Generated by graphviz version 2.26.3 (20100126.1600)
 -->
<!-- Title: src/base/math_functions Pages: 1 -->
<svg width="134pt" height="153pt"
 viewBox="0.00 0.00 134.00 153.00" xmlns="http://www.w3.org/2000/svg" xmlns:xlink="http://www.w3.org/1999/xlink">
<g id="graph1" class="graph" transform="scale(1 1) rotate(0) translate(4 149)">
<title>src/base/math_functions</title>
<polygon fill="white" stroke="white" points="-4,5 -4,-149 131,-149 131,5 -4,5"/>
<g id="graph2" class="cluster"><title>clusterdir_0af1587c8378955de40f48b4bd1869f0</title>
<a xlink:href="dir_0af1587c8378955de40f48b4bd1869f0.html" target="_top" xlink:title="base">
<polygon fill="#ddddee" stroke="black" points="14,-64 14,-137 112,-137 112,-64 14,-64"/>
<text text-anchor="middle" x="63" y="-124" font-family="Helvetica,sans-Serif" font-size="10.00">base</text>
</a>
</g>
<!-- dir_1dcc89ce9e65763eefd0d2df6658684c -->
<g id="node2" class="node"><title>dir_1dcc89ce9e65763eefd0d2df6658684c</title>
<a xlink:href="dir_1dcc89ce9e65763eefd0d2df6658684c.html" target="_top" xlink:title="math_functions">
<polygon fill="#eeeeff" stroke="black" points="104,-108 22,-108 22,-72 104,-72 104,-108"/>
<text text-anchor="middle" x="63" y="-87.5" font-family="Helvetica,sans-Serif" font-size="10.00">math_functions</text>
</a>
</g>
<!-- dir_51a458f6079ce8ac5ea64f4b81b15b20 -->
<g id="node3" class="node"><title>dir_51a458f6079ce8ac5ea64f4b81b15b20</title>
<a xlink:href="dir_51a458f6079ce8ac5ea64f4b81b15b20.html" target="_top" xlink:title="vec">
<polygon fill="none" stroke="black" points="54,-36 2.13163e-14,-36 0,-1.77636e-14 54,-3.55271e-15 54,-36"/>
<text text-anchor="middle" x="27" y="-15.5" font-family="Helvetica,sans-Serif" font-size="10.00">vec</text>
</a>
</g>
<!-- dir_1dcc89ce9e65763eefd0d2df6658684c&#45;&gt;dir_51a458f6079ce8ac5ea64f4b81b15b20 -->
<g id="edge3" class="edge"><title>dir_1dcc89ce9e65763eefd0d2df6658684c&#45;&gt;dir_51a458f6079ce8ac5ea64f4b81b15b20</title>
<path fill="none" stroke="black" d="M53.9157,-71.8314C49.9385,-63.8771 45.1845,-54.369 40.7861,-45.5723"/>
<polygon fill="black" stroke="black" points="43.8093,-43.7923 36.2066,-36.4133 37.5483,-46.9228 43.8093,-43.7923"/>
<a xlink:href="dir_000033_000035.html" target="_top" xlink:title="1">
<text text-anchor="middle" x="47.9563" y="-43.2377" font-family="Helvetica,sans-Serif" font-size="10.00">1</text>
</a>
</g>
<!-- dir_2785e539dc2185bb77968109a302f52f -->
<g id="node4" class="node"><title>dir_2785e539dc2185bb77968109a302f52f</title>
<a xlink:href="dir_2785e539dc2185bb77968109a302f52f.html" target="_top" xlink:title="std_ext">
<polygon fill="none" stroke="black" points="126,-36 72,-36 72,-1.77636e-14 126,-3.55271e-15 126,-36"/>
<text text-anchor="middle" x="99" y="-15.5" font-family="Helvetica,sans-Serif" font-size="10.00">std_ext</text>
</a>
</g>
<!-- dir_1dcc89ce9e65763eefd0d2df6658684c&#45;&gt;dir_2785e539dc2185bb77968109a302f52f -->
<g id="edge5" class="edge"><title>dir_1dcc89ce9e65763eefd0d2df6658684c&#45;&gt;dir_2785e539dc2185bb77968109a302f52f</title>
<path fill="none" stroke="black" d="M72.0843,-71.8314C76.0615,-63.8771 80.8155,-54.369 85.2139,-45.5723"/>
<polygon fill="black" stroke="black" points="88.4517,-46.9228 89.7934,-36.4133 82.1907,-43.7923 88.4517,-46.9228"/>
<a xlink:href="dir_000033_000034.html" target="_top" xlink:title="1">
<text text-anchor="middle" x="89.3837" y="-48.9077" font-family="Helvetica,sans-Serif" font-size="10.00">1</text>
</a>
</g>
</g>
</svg>
