<?xml version="1.0" encoding="UTF-8" standalone="no"?>
<!DOCTYPE svg PUBLIC "-//W3C//DTD SVG 1.1//EN"
 "http://www.w3.org/Graphics/SVG/1.1/DTD/svg11.dtd">
<!-- Generated by graphviz version 2.26.3 (20100126.1600)
 -->
<!-- Title: src/analysis/physics/production Pages: 1 -->
<svg width="162pt" height="369pt"
 viewBox="0.00 0.00 162.00 369.00" xmlns="http://www.w3.org/2000/svg" xmlns:xlink="http://www.w3.org/1999/xlink">
<g id="graph1" class="graph" transform="scale(1 1) rotate(0) translate(4 365)">
<title>src/analysis/physics/production</title>
<polygon fill="white" stroke="white" points="-4,5 -4,-365 159,-365 159,5 -4,5"/>
<g id="graph2" class="cluster"><title>clusterdir_a21a804d6482c442bcd1b39e4dfcc179</title>
<a xlink:href="dir_a21a804d6482c442bcd1b39e4dfcc179.html" target="_top" xlink:title="physics">
<polygon fill="#ddddee" stroke="black" points="68,-280 68,-353 146,-353 146,-280 68,-280"/>
<text text-anchor="middle" x="107" y="-340" font-family="Helvetica,sans-Serif" font-size="10.00">physics</text>
</a>
</g>
<!-- dir_e884bea2662087624c49c4b98ba4353a -->
<g id="node2" class="node"><title>dir_e884bea2662087624c49c4b98ba4353a</title>
<a xlink:href="dir_e884bea2662087624c49c4b98ba4353a.html" target="_top" xlink:title="production">
<polygon fill="#eeeeff" stroke="black" points="138,-324 76,-324 76,-288 138,-288 138,-324"/>
<text text-anchor="middle" x="107" y="-303.5" font-family="Helvetica,sans-Serif" font-size="10.00">production</text>
</a>
</g>
<!-- dir_0a0aa297e888439a92fbcfd5e567f128 -->
<g id="node3" class="node"><title>dir_0a0aa297e888439a92fbcfd5e567f128</title>
<a xlink:href="dir_0a0aa297e888439a92fbcfd5e567f128.html" target="_top" xlink:title="utils">
<polygon fill="white" stroke="red" points="54,-252 2.13163e-14,-252 0,-216 54,-216 54,-252"/>
<text text-anchor="middle" x="27" y="-231.5" font-family="Helvetica,sans-Serif" font-size="10.00">utils</text>
</a>
</g>
<!-- dir_e884bea2662087624c49c4b98ba4353a&#45;&gt;dir_0a0aa297e888439a92fbcfd5e567f128 -->
<g id="edge15" class="edge"><title>dir_e884bea2662087624c49c4b98ba4353a&#45;&gt;dir_0a0aa297e888439a92fbcfd5e567f128</title>
<path fill="none" stroke="black" d="M86.8126,-287.831C77.1486,-279.134 65.4204,-268.578 54.9184,-259.127"/>
<polygon fill="black" stroke="black" points="56.9553,-256.251 47.1809,-252.163 52.2725,-261.454 56.9553,-256.251"/>
<a xlink:href="dir_000022_000030.html" target="_top" xlink:title="9">
<text text-anchor="middle" x="61.5265" y="-254.045" font-family="Helvetica,sans-Serif" font-size="10.00">9</text>
</a>
</g>
<!-- dir_0af1587c8378955de40f48b4bd1869f0 -->
<g id="node4" class="node"><title>dir_0af1587c8378955de40f48b4bd1869f0</title>
<a xlink:href="dir_0af1587c8378955de40f48b4bd1869f0.html" target="_top" xlink:title="base">
<polygon fill="white" stroke="red" points="101,-108 47,-108 47,-72 101,-72 101,-108"/>
<text text-anchor="middle" x="74" y="-87.5" font-family="Helvetica,sans-Serif" font-size="10.00">base</text>
</a>
</g>
<!-- dir_e884bea2662087624c49c4b98ba4353a&#45;&gt;dir_0af1587c8378955de40f48b4bd1869f0 -->
<g id="edge17" class="edge"><title>dir_e884bea2662087624c49c4b98ba4353a&#45;&gt;dir_0af1587c8378955de40f48b4bd1869f0</title>
<path fill="none" stroke="black" d="M111.355,-287.971C117.893,-257.483 127.882,-194.165 112,-144 108.918,-134.266 103.382,-124.77 97.4711,-116.523"/>
<polygon fill="black" stroke="black" points="100.125,-114.232 91.2635,-108.424 94.569,-118.49 100.125,-114.232"/>
<a xlink:href="dir_000022_000032.html" target="_top" xlink:title="4">
<text text-anchor="middle" x="104.565" y="-112.857" font-family="Helvetica,sans-Serif" font-size="10.00">4</text>
</a>
</g>
<!-- dir_c4f4646ab0f4a2967be5b6215a500c22 -->
<g id="node5" class="node"><title>dir_c4f4646ab0f4a2967be5b6215a500c22</title>
<a xlink:href="dir_c4f4646ab0f4a2967be5b6215a500c22.html" target="_top" xlink:title="expconfig">
<polygon fill="white" stroke="red" points="103,-180 45,-180 45,-144 103,-144 103,-180"/>
<text text-anchor="middle" x="74" y="-159.5" font-family="Helvetica,sans-Serif" font-size="10.00">expconfig</text>
</a>
</g>
<!-- dir_e884bea2662087624c49c4b98ba4353a&#45;&gt;dir_c4f4646ab0f4a2967be5b6215a500c22 -->
<g id="edge19" class="edge"><title>dir_e884bea2662087624c49c4b98ba4353a&#45;&gt;dir_c4f4646ab0f4a2967be5b6215a500c22</title>
<path fill="none" stroke="black" d="M102.821,-287.762C97.1671,-263.093 87.0304,-218.86 80.4105,-189.973"/>
<polygon fill="black" stroke="black" points="83.7909,-189.055 78.1455,-180.09 76.9678,-190.619 83.7909,-189.055"/>
<a xlink:href="dir_000022_000028.html" target="_top" xlink:title="2">
<text text-anchor="middle" x="87.3613" y="-189.425" font-family="Helvetica,sans-Serif" font-size="10.00">2</text>
</a>
</g>
<!-- dir_8f68c37b22d514b4289e3a1255795d80 -->
<g id="node6" class="node"><title>dir_8f68c37b22d514b4289e3a1255795d80</title>
<a xlink:href="dir_8f68c37b22d514b4289e3a1255795d80.html" target="_top" xlink:title="plot">
<polygon fill="none" stroke="black" points="101,-36 47,-36 47,-1.77636e-14 101,-3.55271e-15 101,-36"/>
<text text-anchor="middle" x="74" y="-15.5" font-family="Helvetica,sans-Serif" font-size="10.00">plot</text>
</a>
</g>
<!-- dir_e884bea2662087624c49c4b98ba4353a&#45;&gt;dir_8f68c37b22d514b4289e3a1255795d80 -->
<g id="edge21" class="edge"><title>dir_e884bea2662087624c49c4b98ba4353a&#45;&gt;dir_8f68c37b22d514b4289e3a1255795d80</title>
<path fill="none" stroke="black" d="M118.32,-287.768C123.94,-277.641 130.129,-264.579 133,-252 136.624,-236.12 132.588,-160.422 130,-144 124.83,-111.193 123.829,-102.196 110,-72 105.682,-62.5722 99.8163,-52.9441 94.0734,-44.4781"/>
<polygon fill="black" stroke="black" points="96.8196,-42.2987 88.2033,-36.1335 91.0943,-46.3263 96.8196,-42.2987"/>
<a xlink:href="dir_000022_000025.html" target="_top" xlink:title="2">
<text text-anchor="middle" x="101.21" y="-41.1051" font-family="Helvetica,sans-Serif" font-size="10.00">2</text>
</a>
</g>
<!-- dir_0a0aa297e888439a92fbcfd5e567f128&#45;&gt;dir_0af1587c8378955de40f48b4bd1869f0 -->
<g id="edge3" class="edge"><title>dir_0a0aa297e888439a92fbcfd5e567f128&#45;&gt;dir_0af1587c8378955de40f48b4bd1869f0</title>
<path fill="none" stroke="black" d="M26.1538,-215.805C25.8929,-197.181 27.1782,-167.693 36,-144 39.622,-134.272 45.4357,-124.671 51.4375,-116.323"/>
<polygon fill="black" stroke="black" points="54.4059,-118.201 57.6763,-108.124 48.8353,-113.962 54.4059,-118.201"/>
<a xlink:href="dir_000030_000032.html" target="_top" xlink:title="49">
<text text-anchor="middle" x="54.4886" y="-120.281" font-family="Helvetica,sans-Serif" font-size="10.00">49</text>
</a>
</g>
<!-- dir_0a0aa297e888439a92fbcfd5e567f128&#45;&gt;dir_c4f4646ab0f4a2967be5b6215a500c22 -->
<g id="edge5" class="edge"><title>dir_0a0aa297e888439a92fbcfd5e567f128&#45;&gt;dir_c4f4646ab0f4a2967be5b6215a500c22</title>
<path fill="none" stroke="black" d="M38.8601,-215.831C44.1629,-207.708 50.5237,-197.964 56.3673,-189.012"/>
<polygon fill="black" stroke="black" points="59.4448,-190.7 61.9802,-180.413 53.5831,-186.874 59.4448,-190.7"/>
<a xlink:href="dir_000030_000028.html" target="_top" xlink:title="17">
<text text-anchor="middle" x="59.8575" y="-192.762" font-family="Helvetica,sans-Serif" font-size="10.00">17</text>
</a>
</g>
<!-- dir_0a0aa297e888439a92fbcfd5e567f128&#45;&gt;dir_8f68c37b22d514b4289e3a1255795d80 -->
<g id="edge7" class="edge"><title>dir_0a0aa297e888439a92fbcfd5e567f128&#45;&gt;dir_8f68c37b22d514b4289e3a1255795d80</title>
<path fill="none" stroke="black" d="M24.6698,-215.693C21.5028,-184.795 18.2847,-120.889 38,-72 41.8156,-62.5382 47.4358,-53.014 53.1066,-44.6554"/>
<polygon fill="black" stroke="black" points="56.0207,-46.5969 58.961,-36.4182 50.315,-42.5416 56.0207,-46.5969"/>
<a xlink:href="dir_000030_000025.html" target="_top" xlink:title="2">
<text text-anchor="middle" x="56.2526" y="-48.6717" font-family="Helvetica,sans-Serif" font-size="10.00">2</text>
</a>
</g>
<!-- dir_0af1587c8378955de40f48b4bd1869f0&#45;&gt;dir_8f68c37b22d514b4289e3a1255795d80 -->
<g id="edge9" class="edge"><title>dir_0af1587c8378955de40f48b4bd1869f0&#45;&gt;dir_8f68c37b22d514b4289e3a1255795d80</title>
<path fill="none" stroke="black" d="M68.0476,-71.8314C67.2972,-64.131 67.0763,-54.9743 67.3849,-46.4166"/>
<polygon fill="black" stroke="black" points="70.8792,-46.6161 68.024,-36.4133 63.8935,-46.1697 70.8792,-46.6161"/>
<a xlink:href="dir_000032_000025.html" target="_top" xlink:title="1">
<text text-anchor="middle" x="73.4836" y="-47.8844" font-family="Helvetica,sans-Serif" font-size="10.00">1</text>
</a>
</g>
<!-- dir_c4f4646ab0f4a2967be5b6215a500c22&#45;&gt;dir_0af1587c8378955de40f48b4bd1869f0 -->
<g id="edge11" class="edge"><title>dir_c4f4646ab0f4a2967be5b6215a500c22&#45;&gt;dir_0af1587c8378955de40f48b4bd1869f0</title>
<path fill="none" stroke="black" d="M74,-143.831C74,-136.131 74,-126.974 74,-118.417"/>
<polygon fill="black" stroke="black" points="77.5001,-118.413 74,-108.413 70.5001,-118.413 77.5001,-118.413"/>
<a xlink:href="dir_000028_000032.html" target="_top" xlink:title="27">
<text text-anchor="middle" x="80.3393" y="-119.508" font-family="Helvetica,sans-Serif" font-size="10.00">27</text>
</a>
</g>
<!-- dir_8f68c37b22d514b4289e3a1255795d80&#45;&gt;dir_0af1587c8378955de40f48b4bd1869f0 -->
<g id="edge13" class="edge"><title>dir_8f68c37b22d514b4289e3a1255795d80&#45;&gt;dir_0af1587c8378955de40f48b4bd1869f0</title>
<path fill="none" stroke="black" d="M79.976,-36.4133C80.7071,-44.0593 80.9203,-53.1084 80.6155,-61.5726"/>
<polygon fill="black" stroke="black" points="77.1048,-61.6264 79.9524,-71.8314 84.0902,-62.078 77.1048,-61.6264"/>
<a xlink:href="dir_000025_000032.html" target="_top" xlink:title="9">
<text text-anchor="middle" x="74.5032" y="-55.3562" font-family="Helvetica,sans-Serif" font-size="10.00">9</text>
</a>
</g>
</g>
</svg>
