<?xml version="1.0" encoding="UTF-8" standalone="no"?>
<!DOCTYPE svg PUBLIC "-//W3C//DTD SVG 1.1//EN"
 "http://www.w3.org/Graphics/SVG/1.1/DTD/svg11.dtd">
<!-- Generated by graphviz version 2.26.3 (20100126.1600)
 -->
<!-- Title: src/mc/pluto Pages: 1 -->
<svg width="182pt" height="233pt"
 viewBox="0.00 0.00 182.00 233.00" xmlns="http://www.w3.org/2000/svg" xmlns:xlink="http://www.w3.org/1999/xlink">
<g id="graph1" class="graph" transform="scale(1 1) rotate(0) translate(4 229)">
<title>src/mc/pluto</title>
<polygon fill="white" stroke="white" points="-4,5 -4,-229 179,-229 179,5 -4,5"/>
<g id="graph2" class="cluster"><title>clusterdir_23ddac1b85988572e153cbc2f1d45e89</title>
<a xlink:href="dir_23ddac1b85988572e153cbc2f1d45e89.html" target="_top" xlink:title="mc">
<polygon fill="#ddddee" stroke="black" points="8,-128 8,-217 166,-217 166,-128 8,-128"/>
<text text-anchor="middle" x="87" y="-204" font-family="Helvetica,sans-Serif" font-size="10.00">mc</text>
</a>
</g>
<g id="graph3" class="cluster"><title>clusterdir_d1811c65c1b162f25a62e035dae64b7f</title>
<a xlink:href="dir_d1811c65c1b162f25a62e035dae64b7f.html" target="_top">
<polygon fill="#eeeeff" stroke="black" points="16,-136 16,-188 158,-188 158,-136 16,-136"/>
</a>
</g>
<!-- dir_d1811c65c1b162f25a62e035dae64b7f -->
<g id="node3" class="node"><title>dir_d1811c65c1b162f25a62e035dae64b7f</title>
<text text-anchor="middle" x="51" y="-159.5" font-family="Helvetica,sans-Serif" font-size="10.00">pluto</text>
</g>
<!-- dir_0af1587c8378955de40f48b4bd1869f0 -->
<g id="node5" class="node"><title>dir_0af1587c8378955de40f48b4bd1869f0</title>
<a xlink:href="dir_0af1587c8378955de40f48b4bd1869f0.html" target="_top" xlink:title="base">
<polygon fill="white" stroke="red" points="116,-36 62,-36 62,-1.77636e-14 116,-3.55271e-15 116,-36"/>
<text text-anchor="middle" x="89" y="-15.5" font-family="Helvetica,sans-Serif" font-size="10.00">base</text>
</a>
</g>
<!-- dir_d1811c65c1b162f25a62e035dae64b7f&#45;&gt;dir_0af1587c8378955de40f48b4bd1869f0 -->
<g id="edge10" class="edge"><title>dir_d1811c65c1b162f25a62e035dae64b7f&#45;&gt;dir_0af1587c8378955de40f48b4bd1869f0</title>
<path fill="none" stroke="black" d="M55.8127,-143.762C62.3227,-119.093 73.9953,-74.8598 81.6182,-45.9731"/>
<polygon fill="black" stroke="black" points="85.0589,-46.6517 84.2264,-36.0896 78.2906,-44.8656 85.0589,-46.6517"/>
<a xlink:href="dir_000043_000032.html" target="_top" xlink:title="3">
<text text-anchor="middle" x="86.8871" y="-48.3517" font-family="Helvetica,sans-Serif" font-size="10.00">3</text>
</a>
</g>
<!-- dir_8322514a73a3c238a61ca5e81e3ba616 -->
<g id="node4" class="node"><title>dir_8322514a73a3c238a61ca5e81e3ba616</title>
<a xlink:href="dir_8322514a73a3c238a61ca5e81e3ba616.html" target="_top" xlink:title="utils">
<polygon fill="white" stroke="black" points="150,-180 96,-180 96,-144 150,-144 150,-180"/>
<text text-anchor="middle" x="123" y="-159.5" font-family="Helvetica,sans-Serif" font-size="10.00">utils</text>
</a>
</g>
<!-- dir_8322514a73a3c238a61ca5e81e3ba616&#45;&gt;dir_0af1587c8378955de40f48b4bd1869f0 -->
<g id="edge6" class="edge"><title>dir_8322514a73a3c238a61ca5e81e3ba616&#45;&gt;dir_0af1587c8378955de40f48b4bd1869f0</title>
<path fill="none" stroke="black" d="M117.574,-143.581C114.587,-133.177 110.908,-119.91 108,-108 102.957,-87.3476 98.0208,-63.8366 94.4443,-46.025"/>
<polygon fill="black" stroke="black" points="97.8353,-45.1317 92.4547,-36.0049 90.9693,-46.4951 97.8353,-45.1317"/>
<a xlink:href="dir_000044_000032.html" target="_top" xlink:title="2">
<text text-anchor="middle" x="101.32" y="-45.6046" font-family="Helvetica,sans-Serif" font-size="10.00">2</text>
</a>
</g>
<!-- dir_c44c95bf3b41c3321c6014770d618ac8 -->
<g id="node6" class="node"><title>dir_c44c95bf3b41c3321c6014770d618ac8</title>
<a xlink:href="dir_c44c95bf3b41c3321c6014770d618ac8.html" target="_top" xlink:title="tree">
<polygon fill="none" stroke="black" points="171,-108 117,-108 117,-72 171,-72 171,-108"/>
<text text-anchor="middle" x="144" y="-87.5" font-family="Helvetica,sans-Serif" font-size="10.00">tree</text>
</a>
</g>
<!-- dir_8322514a73a3c238a61ca5e81e3ba616&#45;&gt;dir_c44c95bf3b41c3321c6014770d618ac8 -->
<g id="edge8" class="edge"><title>dir_8322514a73a3c238a61ca5e81e3ba616&#45;&gt;dir_c44c95bf3b41c3321c6014770d618ac8</title>
<path fill="none" stroke="black" d="M128.299,-143.831C130.57,-136.046 133.275,-126.773 135.794,-118.135"/>
<polygon fill="black" stroke="black" points="139.189,-118.993 138.629,-108.413 132.469,-117.033 139.189,-118.993"/>
<a xlink:href="dir_000044_000048.html" target="_top" xlink:title="1">
<text text-anchor="middle" x="140.909" y="-120.739" font-family="Helvetica,sans-Serif" font-size="10.00">1</text>
</a>
</g>
<!-- dir_c44c95bf3b41c3321c6014770d618ac8&#45;&gt;dir_0af1587c8378955de40f48b4bd1869f0 -->
<g id="edge4" class="edge"><title>dir_c44c95bf3b41c3321c6014770d618ac8&#45;&gt;dir_0af1587c8378955de40f48b4bd1869f0</title>
<path fill="none" stroke="black" d="M130.121,-71.8314C123.786,-63.5386 116.162,-53.557 109.207,-44.4533"/>
<polygon fill="black" stroke="black" points="111.917,-42.2353 103.066,-36.4133 106.355,-46.4847 111.917,-42.2353"/>
<a xlink:href="dir_000048_000032.html" target="_top" xlink:title="33">
<text text-anchor="middle" x="116.356" y="-40.8683" font-family="Helvetica,sans-Serif" font-size="10.00">33</text>
</a>
</g>
</g>
</svg>
