<?xml version="1.0" encoding="UTF-8" standalone="no"?>
<!DOCTYPE svg PUBLIC "-//W3C//DTD SVG 1.1//EN"
 "http://www.w3.org/Graphics/SVG/1.1/DTD/svg11.dtd">
<!-- Generated by graphviz version 2.26.3 (20100126.1600)
 -->
<!-- Title: src/analysis/utils Pages: 1 -->
<svg width="200pt" height="377pt"
 viewBox="0.00 0.00 200.00 377.00" xmlns="http://www.w3.org/2000/svg" xmlns:xlink="http://www.w3.org/1999/xlink">
<g id="graph1" class="graph" transform="scale(1 1) rotate(0) translate(4 373)">
<title>src/analysis/utils</title>
<polygon fill="white" stroke="white" points="-4,5 -4,-373 197,-373 197,5 -4,5"/>
<g id="graph2" class="cluster"><title>clusterdir_2eec376824a17f48dc36b4bd0c810e01</title>
<a xlink:href="dir_2eec376824a17f48dc36b4bd0c810e01.html" target="_top" xlink:title="analysis">
<polygon fill="#ddddee" stroke="black" points="8,-272 8,-361 184,-361 184,-272 8,-272"/>
<text text-anchor="middle" x="96" y="-348" font-family="Helvetica,sans-Serif" font-size="10.00">analysis</text>
</a>
</g>
<g id="graph3" class="cluster"><title>clusterdir_0a0aa297e888439a92fbcfd5e567f128</title>
<a xlink:href="dir_0a0aa297e888439a92fbcfd5e567f128.html" target="_top">
<polygon fill="#eeeeff" stroke="black" points="16,-280 16,-332 176,-332 176,-280 16,-280"/>
</a>
</g>
<!-- dir_0a0aa297e888439a92fbcfd5e567f128 -->
<g id="node3" class="node"><title>dir_0a0aa297e888439a92fbcfd5e567f128</title>
<text text-anchor="middle" x="141" y="-303.5" font-family="Helvetica,sans-Serif" font-size="10.00">utils</text>
</g>
<!-- dir_c44c95bf3b41c3321c6014770d618ac8 -->
<g id="node6" class="node"><title>dir_c44c95bf3b41c3321c6014770d618ac8</title>
<a xlink:href="dir_c44c95bf3b41c3321c6014770d618ac8.html" target="_top" xlink:title="tree">
<polygon fill="none" stroke="black" points="139,-180 85,-180 85,-144 139,-144 139,-180"/>
<text text-anchor="middle" x="112" y="-159.5" font-family="Helvetica,sans-Serif" font-size="10.00">tree</text>
</a>
</g>
<!-- dir_0a0aa297e888439a92fbcfd5e567f128&#45;&gt;dir_c44c95bf3b41c3321c6014770d618ac8 -->
<g id="edge4" class="edge"><title>dir_0a0aa297e888439a92fbcfd5e567f128&#45;&gt;dir_c44c95bf3b41c3321c6014770d618ac8</title>
<path fill="none" stroke="black" d="M137.327,-287.762C132.359,-263.093 123.451,-218.86 117.633,-189.973"/>
<polygon fill="black" stroke="black" points="121.048,-189.202 115.643,-180.09 114.186,-190.584 121.048,-189.202"/>
<a xlink:href="dir_000030_000048.html" target="_top" xlink:title="15">
<text text-anchor="middle" x="124.541" y="-189.665" font-family="Helvetica,sans-Serif" font-size="10.00">15</text>
</a>
</g>
<!-- dir_8f68c37b22d514b4289e3a1255795d80 -->
<g id="node8" class="node"><title>dir_8f68c37b22d514b4289e3a1255795d80</title>
<a xlink:href="dir_8f68c37b22d514b4289e3a1255795d80.html" target="_top" xlink:title="plot">
<polygon fill="none" stroke="black" points="111,-36 57,-36 57,-1.77636e-14 111,-3.55271e-15 111,-36"/>
<text text-anchor="middle" x="84" y="-15.5" font-family="Helvetica,sans-Serif" font-size="10.00">plot</text>
</a>
</g>
<!-- dir_0a0aa297e888439a92fbcfd5e567f128&#45;&gt;dir_8f68c37b22d514b4289e3a1255795d80 -->
<g id="edge6" class="edge"><title>dir_0a0aa297e888439a92fbcfd5e567f128&#45;&gt;dir_8f68c37b22d514b4289e3a1255795d80</title>
<path fill="none" stroke="black" d="M144.449,-287.83C149.585,-257.663 157.655,-195.464 148,-144 141.669,-110.254 135.838,-102.463 120,-72 115.217,-62.7997 109.22,-53.2355 103.5,-44.758"/>
<polygon fill="black" stroke="black" points="106.271,-42.6105 97.703,-36.3779 100.514,-46.593 106.271,-42.6105"/>
<a xlink:href="dir_000030_000025.html" target="_top" xlink:title="2">
<text text-anchor="middle" x="110.651" y="-41.4512" font-family="Helvetica,sans-Serif" font-size="10.00">2</text>
</a>
</g>
<!-- dir_50df10fe516cd8e46a541517311404f2 -->
<g id="node4" class="node"><title>dir_50df10fe516cd8e46a541517311404f2</title>
<a xlink:href="dir_50df10fe516cd8e46a541517311404f2.html" target="_top" xlink:title="uncertainties">
<polygon fill="white" stroke="black" points="96,-324 24,-324 24,-288 96,-288 96,-324"/>
<text text-anchor="middle" x="60" y="-303.5" font-family="Helvetica,sans-Serif" font-size="10.00">uncertainties</text>
</a>
</g>
<!-- dir_0af1587c8378955de40f48b4bd1869f0 -->
<g id="node5" class="node"><title>dir_0af1587c8378955de40f48b4bd1869f0</title>
<a xlink:href="dir_0af1587c8378955de40f48b4bd1869f0.html" target="_top" xlink:title="base">
<polygon fill="white" stroke="red" points="111,-108 57,-108 57,-72 111,-72 111,-108"/>
<text text-anchor="middle" x="84" y="-87.5" font-family="Helvetica,sans-Serif" font-size="10.00">base</text>
</a>
</g>
<!-- dir_50df10fe516cd8e46a541517311404f2&#45;&gt;dir_0af1587c8378955de40f48b4bd1869f0 -->
<g id="edge18" class="edge"><title>dir_50df10fe516cd8e46a541517311404f2&#45;&gt;dir_0af1587c8378955de40f48b4bd1869f0</title>
<path fill="none" stroke="black" d="M48.6804,-287.768C43.0604,-277.641 36.8706,-264.579 34,-252 30.4403,-236.401 30.9958,-231.715 34,-216 40.7878,-180.492 57.4319,-142.231 69.6602,-117.305"/>
<polygon fill="black" stroke="black" points="72.9113,-118.629 74.263,-108.121 66.6533,-115.493 72.9113,-118.629"/>
<a xlink:href="dir_000031_000032.html" target="_top" xlink:title="14">
<text text-anchor="middle" x="73.839" y="-120.615" font-family="Helvetica,sans-Serif" font-size="10.00">14</text>
</a>
</g>
<!-- dir_c4f4646ab0f4a2967be5b6215a500c22 -->
<g id="node7" class="node"><title>dir_c4f4646ab0f4a2967be5b6215a500c22</title>
<a xlink:href="dir_c4f4646ab0f4a2967be5b6215a500c22.html" target="_top" xlink:title="expconfig">
<polygon fill="white" stroke="red" points="101,-252 43,-252 43,-216 101,-216 101,-252"/>
<text text-anchor="middle" x="72" y="-231.5" font-family="Helvetica,sans-Serif" font-size="10.00">expconfig</text>
</a>
</g>
<!-- dir_50df10fe516cd8e46a541517311404f2&#45;&gt;dir_c4f4646ab0f4a2967be5b6215a500c22 -->
<g id="edge20" class="edge"><title>dir_50df10fe516cd8e46a541517311404f2&#45;&gt;dir_c4f4646ab0f4a2967be5b6215a500c22</title>
<path fill="none" stroke="black" d="M63.0281,-287.831C64.3115,-280.131 65.8376,-270.974 67.2639,-262.417"/>
<polygon fill="black" stroke="black" points="70.7394,-262.853 68.9311,-252.413 63.8347,-261.702 70.7394,-262.853"/>
<a xlink:href="dir_000031_000028.html" target="_top" xlink:title="7">
<text text-anchor="middle" x="72.9492" y="-264.365" font-family="Helvetica,sans-Serif" font-size="10.00">7</text>
</a>
</g>
<!-- dir_0af1587c8378955de40f48b4bd1869f0&#45;&gt;dir_8f68c37b22d514b4289e3a1255795d80 -->
<g id="edge8" class="edge"><title>dir_0af1587c8378955de40f48b4bd1869f0&#45;&gt;dir_8f68c37b22d514b4289e3a1255795d80</title>
<path fill="none" stroke="black" d="M78.0476,-71.8314C77.2972,-64.131 77.0763,-54.9743 77.3849,-46.4166"/>
<polygon fill="black" stroke="black" points="80.8792,-46.6161 78.024,-36.4133 73.8935,-46.1697 80.8792,-46.6161"/>
<a xlink:href="dir_000032_000025.html" target="_top" xlink:title="1">
<text text-anchor="middle" x="83.4836" y="-47.8844" font-family="Helvetica,sans-Serif" font-size="10.00">1</text>
</a>
</g>
<!-- dir_c44c95bf3b41c3321c6014770d618ac8&#45;&gt;dir_0af1587c8378955de40f48b4bd1869f0 -->
<g id="edge10" class="edge"><title>dir_c44c95bf3b41c3321c6014770d618ac8&#45;&gt;dir_0af1587c8378955de40f48b4bd1869f0</title>
<path fill="none" stroke="black" d="M104.934,-143.831C101.874,-135.962 98.2221,-126.571 94.8318,-117.853"/>
<polygon fill="black" stroke="black" points="98.0473,-116.465 91.1607,-108.413 91.5232,-119.002 98.0473,-116.465"/>
<a xlink:href="dir_000048_000032.html" target="_top" xlink:title="33">
<text text-anchor="middle" x="101.996" y="-116.286" font-family="Helvetica,sans-Serif" font-size="10.00">33</text>
</a>
</g>
<!-- dir_c4f4646ab0f4a2967be5b6215a500c22&#45;&gt;dir_0af1587c8378955de40f48b4bd1869f0 -->
<g id="edge12" class="edge"><title>dir_c4f4646ab0f4a2967be5b6215a500c22&#45;&gt;dir_0af1587c8378955de40f48b4bd1869f0</title>
<path fill="none" stroke="black" d="M72.2637,-215.69C72.6553,-197.477 73.6226,-168.754 76,-144 76.8027,-135.642 78.0079,-126.602 79.2409,-118.352"/>
<polygon fill="black" stroke="black" points="82.7044,-118.857 80.7894,-108.437 75.7883,-117.777 82.7044,-118.857"/>
<a xlink:href="dir_000028_000032.html" target="_top" xlink:title="27">
<text text-anchor="middle" x="84.9552" y="-120.347" font-family="Helvetica,sans-Serif" font-size="10.00">27</text>
</a>
</g>
<!-- dir_c4f4646ab0f4a2967be5b6215a500c22&#45;&gt;dir_c44c95bf3b41c3321c6014770d618ac8 -->
<g id="edge14" class="edge"><title>dir_c4f4646ab0f4a2967be5b6215a500c22&#45;&gt;dir_c44c95bf3b41c3321c6014770d618ac8</title>
<path fill="none" stroke="black" d="M82.0937,-215.831C86.5597,-207.792 91.9075,-198.167 96.8379,-189.292"/>
<polygon fill="black" stroke="black" points="99.9735,-190.855 101.77,-180.413 93.8544,-187.455 99.9735,-190.855"/>
<a xlink:href="dir_000028_000048.html" target="_top" xlink:title="10">
<text text-anchor="middle" x="100.71" y="-192.876" font-family="Helvetica,sans-Serif" font-size="10.00">10</text>
</a>
</g>
<!-- dir_8f68c37b22d514b4289e3a1255795d80&#45;&gt;dir_0af1587c8378955de40f48b4bd1869f0 -->
<g id="edge16" class="edge"><title>dir_8f68c37b22d514b4289e3a1255795d80&#45;&gt;dir_0af1587c8378955de40f48b4bd1869f0</title>
<path fill="none" stroke="black" d="M89.976,-36.4133C90.7071,-44.0593 90.9203,-53.1084 90.6155,-61.5726"/>
<polygon fill="black" stroke="black" points="87.1048,-61.6264 89.9524,-71.8314 94.0902,-62.078 87.1048,-61.6264"/>
<a xlink:href="dir_000025_000032.html" target="_top" xlink:title="9">
<text text-anchor="middle" x="84.5032" y="-55.3562" font-family="Helvetica,sans-Serif" font-size="10.00">9</text>
</a>
</g>
</g>
</svg>
