<?xml version="1.0" encoding="UTF-8" standalone="no"?>
<!DOCTYPE svg PUBLIC "-//W3C//DTD SVG 1.1//EN"
 "http://www.w3.org/Graphics/SVG/1.1/DTD/svg11.dtd">
<!-- Generated by graphviz version 2.26.3 (20100126.1600)
 -->
<!-- Title: src/analysis/physics/etaprime Pages: 1 -->
<svg width="280pt" height="441pt"
 viewBox="0.00 0.00 280.00 441.00" xmlns="http://www.w3.org/2000/svg" xmlns:xlink="http://www.w3.org/1999/xlink">
<g id="graph1" class="graph" transform="scale(1 1) rotate(0) translate(4 437)">
<title>src/analysis/physics/etaprime</title>
<polygon fill="white" stroke="white" points="-4,5 -4,-437 277,-437 277,5 -4,5"/>
<g id="graph2" class="cluster"><title>clusterdir_a21a804d6482c442bcd1b39e4dfcc179</title>
<a xlink:href="dir_a21a804d6482c442bcd1b39e4dfcc179.html" target="_top" xlink:title="physics">
<polygon fill="#ddddee" stroke="black" points="89,-352 89,-425 159,-425 159,-352 89,-352"/>
<text text-anchor="middle" x="124" y="-412" font-family="Helvetica,sans-Serif" font-size="10.00">physics</text>
</a>
</g>
<!-- dir_d0c81f0be4ede6821f28dcbf18b5df0f -->
<g id="node2" class="node"><title>dir_d0c81f0be4ede6821f28dcbf18b5df0f</title>
<a xlink:href="dir_d0c81f0be4ede6821f28dcbf18b5df0f.html" target="_top" xlink:title="etaprime">
<polygon fill="#eeeeff" stroke="black" points="151,-396 97,-396 97,-360 151,-360 151,-396"/>
<text text-anchor="middle" x="124" y="-375.5" font-family="Helvetica,sans-Serif" font-size="10.00">etaprime</text>
</a>
</g>
<!-- dir_0a0aa297e888439a92fbcfd5e567f128 -->
<g id="node3" class="node"><title>dir_0a0aa297e888439a92fbcfd5e567f128</title>
<a xlink:href="dir_0a0aa297e888439a92fbcfd5e567f128.html" target="_top" xlink:title="utils">
<polygon fill="white" stroke="red" points="151,-324 97,-324 97,-288 151,-288 151,-324"/>
<text text-anchor="middle" x="124" y="-303.5" font-family="Helvetica,sans-Serif" font-size="10.00">utils</text>
</a>
</g>
<!-- dir_d0c81f0be4ede6821f28dcbf18b5df0f&#45;&gt;dir_0a0aa297e888439a92fbcfd5e567f128 -->
<g id="edge25" class="edge"><title>dir_d0c81f0be4ede6821f28dcbf18b5df0f&#45;&gt;dir_0a0aa297e888439a92fbcfd5e567f128</title>
<path fill="none" stroke="black" d="M124,-359.831C124,-352.131 124,-342.974 124,-334.417"/>
<polygon fill="black" stroke="black" points="127.5,-334.413 124,-324.413 120.5,-334.413 127.5,-334.413"/>
<a xlink:href="dir_000018_000030.html" target="_top" xlink:title="27">
<text text-anchor="middle" x="130.339" y="-335.508" font-family="Helvetica,sans-Serif" font-size="10.00">27</text>
</a>
</g>
<!-- dir_0af1587c8378955de40f48b4bd1869f0 -->
<g id="node4" class="node"><title>dir_0af1587c8378955de40f48b4bd1869f0</title>
<a xlink:href="dir_0af1587c8378955de40f48b4bd1869f0.html" target="_top" xlink:title="base">
<polygon fill="white" stroke="red" points="272,-252 218,-252 218,-216 272,-216 272,-252"/>
<text text-anchor="middle" x="245" y="-231.5" font-family="Helvetica,sans-Serif" font-size="10.00">base</text>
</a>
</g>
<!-- dir_d0c81f0be4ede6821f28dcbf18b5df0f&#45;&gt;dir_0af1587c8378955de40f48b4bd1869f0 -->
<g id="edge27" class="edge"><title>dir_d0c81f0be4ede6821f28dcbf18b5df0f&#45;&gt;dir_0af1587c8378955de40f48b4bd1869f0</title>
<path fill="none" stroke="black" d="M151.307,-364.576C168.257,-355.133 189.496,-341.141 204,-324 219.418,-305.779 230.181,-280.808 236.799,-261.79"/>
<polygon fill="black" stroke="black" points="240.157,-262.781 239.968,-252.188 233.51,-260.587 240.157,-262.781"/>
<a xlink:href="dir_000018_000032.html" target="_top" xlink:title="15">
<text text-anchor="middle" x="241.727" y="-264.584" font-family="Helvetica,sans-Serif" font-size="10.00">15</text>
</a>
</g>
<!-- dir_ebac6f698c8ed4b70faacb8ef35cbe0d -->
<g id="node5" class="node"><title>dir_ebac6f698c8ed4b70faacb8ef35cbe0d</title>
<a xlink:href="dir_ebac6f698c8ed4b70faacb8ef35cbe0d.html" target="_top" xlink:title="root&#45;addons">
<polygon fill="white" stroke="red" points="175,-108 107,-108 107,-72 175,-72 175,-108"/>
<text text-anchor="middle" x="141" y="-87.5" font-family="Helvetica,sans-Serif" font-size="10.00">root&#45;addons</text>
</a>
</g>
<!-- dir_d0c81f0be4ede6821f28dcbf18b5df0f&#45;&gt;dir_ebac6f698c8ed4b70faacb8ef35cbe0d -->
<g id="edge29" class="edge"><title>dir_d0c81f0be4ede6821f28dcbf18b5df0f&#45;&gt;dir_ebac6f698c8ed4b70faacb8ef35cbe0d</title>
<path fill="none" stroke="black" d="M108.01,-359.917C100.346,-350.037 91.9834,-337.156 88,-324 83.3635,-308.687 85.9417,-303.867 88,-288 96.0342,-226.067 117.961,-155.995 130.957,-118.05"/>
<polygon fill="black" stroke="black" points="134.392,-118.828 134.367,-108.233 127.78,-116.531 134.392,-118.828"/>
<a xlink:href="dir_000018_000016.html" target="_top" xlink:title="1">
<text text-anchor="middle" x="135.895" y="-120.655" font-family="Helvetica,sans-Serif" font-size="10.00">1</text>
</a>
</g>
<!-- dir_c4f4646ab0f4a2967be5b6215a500c22 -->
<g id="node6" class="node"><title>dir_c4f4646ab0f4a2967be5b6215a500c22</title>
<a xlink:href="dir_c4f4646ab0f4a2967be5b6215a500c22.html" target="_top" xlink:title="expconfig">
<polygon fill="white" stroke="red" points="118,-36 60,-36 60,-1.77636e-14 118,-3.55271e-15 118,-36"/>
<text text-anchor="middle" x="89" y="-15.5" font-family="Helvetica,sans-Serif" font-size="10.00">expconfig</text>
</a>
</g>
<!-- dir_d0c81f0be4ede6821f28dcbf18b5df0f&#45;&gt;dir_c4f4646ab0f4a2967be5b6215a500c22 -->
<g id="edge31" class="edge"><title>dir_d0c81f0be4ede6821f28dcbf18b5df0f&#45;&gt;dir_c4f4646ab0f4a2967be5b6215a500c22</title>
<path fill="none" stroke="black" d="M96.7877,-362.59C60.2862,-339.666 0,-292.89 0,-234 0,-234 0,-234 0,-162 0,-114.922 34.8472,-70.3783 60.9315,-43.6306"/>
<polygon fill="black" stroke="black" points="63.7357,-45.7779 68.3579,-36.2445 58.7995,-40.8147 63.7357,-45.7779"/>
<a xlink:href="dir_000018_000028.html" target="_top" xlink:title="5">
<text text-anchor="middle" x="63.1893" y="-47.8258" font-family="Helvetica,sans-Serif" font-size="10.00">5</text>
</a>
</g>
<!-- dir_8f68c37b22d514b4289e3a1255795d80 -->
<g id="node7" class="node"><title>dir_8f68c37b22d514b4289e3a1255795d80</title>
<a xlink:href="dir_8f68c37b22d514b4289e3a1255795d80.html" target="_top" xlink:title="plot">
<polygon fill="none" stroke="black" points="196,-180 142,-180 142,-144 196,-144 196,-180"/>
<text text-anchor="middle" x="169" y="-159.5" font-family="Helvetica,sans-Serif" font-size="10.00">plot</text>
</a>
</g>
<!-- dir_d0c81f0be4ede6821f28dcbf18b5df0f&#45;&gt;dir_8f68c37b22d514b4289e3a1255795d80 -->
<g id="edge33" class="edge"><title>dir_d0c81f0be4ede6821f28dcbf18b5df0f&#45;&gt;dir_8f68c37b22d514b4289e3a1255795d80</title>
<path fill="none" stroke="black" d="M139.692,-359.822C147.273,-349.916 155.653,-337.041 160,-324 174.965,-279.104 174.164,-223.362 171.845,-190.348"/>
<polygon fill="black" stroke="black" points="175.309,-189.76 171.021,-180.071 168.332,-190.319 175.309,-189.76"/>
<a xlink:href="dir_000018_000025.html" target="_top" xlink:title="7">
<text text-anchor="middle" x="178.427" y="-190.616" font-family="Helvetica,sans-Serif" font-size="10.00">7</text>
</a>
</g>
<!-- dir_0a0aa297e888439a92fbcfd5e567f128&#45;&gt;dir_0af1587c8378955de40f48b4bd1869f0 -->
<g id="edge3" class="edge"><title>dir_0a0aa297e888439a92fbcfd5e567f128&#45;&gt;dir_0af1587c8378955de40f48b4bd1869f0</title>
<path fill="none" stroke="black" d="M151.155,-289.842C168.28,-279.651 190.589,-266.377 209.159,-255.327"/>
<polygon fill="black" stroke="black" points="211.132,-258.226 217.936,-250.104 207.552,-252.21 211.132,-258.226"/>
<a xlink:href="dir_000030_000032.html" target="_top" xlink:title="49">
<text text-anchor="middle" x="209.495" y="-260.004" font-family="Helvetica,sans-Serif" font-size="10.00">49</text>
</a>
</g>
<!-- dir_0a0aa297e888439a92fbcfd5e567f128&#45;&gt;dir_c4f4646ab0f4a2967be5b6215a500c22 -->
<g id="edge5" class="edge"><title>dir_0a0aa297e888439a92fbcfd5e567f128&#45;&gt;dir_c4f4646ab0f4a2967be5b6215a500c22</title>
<path fill="none" stroke="black" d="M121.409,-287.734C116.504,-252.846 105.666,-174.298 98,-108 95.625,-87.4605 93.3122,-64.2403 91.6259,-46.5307"/>
<polygon fill="black" stroke="black" points="95.0838,-45.9173 90.662,-36.2893 88.1146,-46.5733 95.0838,-45.9173"/>
<a xlink:href="dir_000030_000028.html" target="_top" xlink:title="17">
<text text-anchor="middle" x="98.2473" y="-46.7301" font-family="Helvetica,sans-Serif" font-size="10.00">17</text>
</a>
</g>
<!-- dir_0a0aa297e888439a92fbcfd5e567f128&#45;&gt;dir_8f68c37b22d514b4289e3a1255795d80 -->
<g id="edge7" class="edge"><title>dir_0a0aa297e888439a92fbcfd5e567f128&#45;&gt;dir_8f68c37b22d514b4289e3a1255795d80</title>
<path fill="none" stroke="black" d="M129.699,-287.762C137.408,-263.093 151.231,-218.86 160.258,-189.973"/>
<polygon fill="black" stroke="black" points="163.705,-190.678 163.347,-180.09 157.023,-188.59 163.705,-190.678"/>
<a xlink:href="dir_000030_000025.html" target="_top" xlink:title="2">
<text text-anchor="middle" x="165.343" y="-192.456" font-family="Helvetica,sans-Serif" font-size="10.00">2</text>
</a>
</g>
<!-- dir_0af1587c8378955de40f48b4bd1869f0&#45;&gt;dir_8f68c37b22d514b4289e3a1255795d80 -->
<g id="edge9" class="edge"><title>dir_0af1587c8378955de40f48b4bd1869f0&#45;&gt;dir_8f68c37b22d514b4289e3a1255795d80</title>
<path fill="none" stroke="black" d="M219.87,-215.831C210.015,-207.285 198.92,-196.944 189.549,-187.62"/>
<polygon fill="black" stroke="black" points="191.968,-185.088 182.46,-180.413 186.978,-189.997 191.968,-185.088"/>
<a xlink:href="dir_000032_000025.html" target="_top" xlink:title="1">
<text text-anchor="middle" x="196.513" y="-183.16" font-family="Helvetica,sans-Serif" font-size="10.00">1</text>
</a>
</g>
<!-- dir_ebac6f698c8ed4b70faacb8ef35cbe0d&#45;&gt;dir_0a0aa297e888439a92fbcfd5e567f128 -->
<g id="edge11" class="edge"><title>dir_ebac6f698c8ed4b70faacb8ef35cbe0d&#45;&gt;dir_0a0aa297e888439a92fbcfd5e567f128</title>
<path fill="none" stroke="black" d="M137.84,-108.442C136.164,-118.853 134.207,-132.12 133,-144 128.24,-190.831 125.86,-245.552 124.78,-277.907"/>
<polygon fill="black" stroke="black" points="121.28,-277.873 124.462,-287.978 128.276,-278.094 121.28,-277.873"/>
<a xlink:href="dir_000016_000030.html" target="_top" xlink:title="5">
<text text-anchor="middle" x="118.555" y="-271.691" font-family="Helvetica,sans-Serif" font-size="10.00">5</text>
</a>
</g>
<!-- dir_ebac6f698c8ed4b70faacb8ef35cbe0d&#45;&gt;dir_0af1587c8378955de40f48b4bd1869f0 -->
<g id="edge13" class="edge"><title>dir_ebac6f698c8ed4b70faacb8ef35cbe0d&#45;&gt;dir_0af1587c8378955de40f48b4bd1869f0</title>
<path fill="none" stroke="black" d="M167.763,-108.199C180.297,-117.738 194.699,-130.282 205,-144 219.121,-162.805 229.614,-187.38 236.302,-206.098"/>
<polygon fill="black" stroke="black" points="233.079,-207.49 239.625,-215.821 239.702,-205.226 233.079,-207.49"/>
<a xlink:href="dir_000016_000032.html" target="_top" xlink:title="35">
<text text-anchor="middle" x="229.229" y="-202.507" font-family="Helvetica,sans-Serif" font-size="10.00">35</text>
</a>
</g>
<!-- dir_ebac6f698c8ed4b70faacb8ef35cbe0d&#45;&gt;dir_c4f4646ab0f4a2967be5b6215a500c22 -->
<g id="edge15" class="edge"><title>dir_ebac6f698c8ed4b70faacb8ef35cbe0d&#45;&gt;dir_c4f4646ab0f4a2967be5b6215a500c22</title>
<path fill="none" stroke="black" d="M127.878,-71.8314C121.95,-63.6232 114.827,-53.7606 108.307,-44.7323"/>
<polygon fill="black" stroke="black" points="110.991,-42.4708 102.298,-36.4133 105.316,-46.5693 110.991,-42.4708"/>
<a xlink:href="dir_000016_000028.html" target="_top" xlink:title="5">
<text text-anchor="middle" x="115.397" y="-41.2226" font-family="Helvetica,sans-Serif" font-size="10.00">5</text>
</a>
</g>
<!-- dir_ebac6f698c8ed4b70faacb8ef35cbe0d&#45;&gt;dir_8f68c37b22d514b4289e3a1255795d80 -->
<g id="edge17" class="edge"><title>dir_ebac6f698c8ed4b70faacb8ef35cbe0d&#45;&gt;dir_8f68c37b22d514b4289e3a1255795d80</title>
<path fill="none" stroke="black" d="M154.137,-108.413C157.924,-116.229 161.739,-125.511 164.758,-134.136"/>
<polygon fill="black" stroke="black" points="161.485,-135.389 167.887,-143.831 168.147,-133.24 161.485,-135.389"/>
<a xlink:href="dir_000016_000025.html" target="_top" xlink:title="14">
<text text-anchor="middle" x="157.679" y="-130.34" font-family="Helvetica,sans-Serif" font-size="10.00">14</text>
</a>
</g>
<!-- dir_c4f4646ab0f4a2967be5b6215a500c22&#45;&gt;dir_0af1587c8378955de40f48b4bd1869f0 -->
<g id="edge19" class="edge"><title>dir_c4f4646ab0f4a2967be5b6215a500c22&#45;&gt;dir_0af1587c8378955de40f48b4bd1869f0</title>
<path fill="none" stroke="black" d="M118.41,-30.1492C138.514,-39.4817 164.878,-53.8412 184,-72 211.536,-98.1489 216.38,-108.553 230,-144 237.611,-163.808 241.364,-187.529 243.212,-205.644"/>
<polygon fill="black" stroke="black" points="239.748,-206.199 244.115,-215.852 246.72,-205.582 239.748,-206.199"/>
<a xlink:href="dir_000028_000032.html" target="_top" xlink:title="27">
<text text-anchor="middle" x="236.603" y="-200.369" font-family="Helvetica,sans-Serif" font-size="10.00">27</text>
</a>
</g>
<!-- dir_8f68c37b22d514b4289e3a1255795d80&#45;&gt;dir_0af1587c8378955de40f48b4bd1869f0 -->
<g id="edge21" class="edge"><title>dir_8f68c37b22d514b4289e3a1255795d80&#45;&gt;dir_0af1587c8378955de40f48b4bd1869f0</title>
<path fill="none" stroke="black" d="M194.124,-180.163C204.053,-188.774 215.244,-199.208 224.661,-208.589"/>
<polygon fill="black" stroke="black" points="222.27,-211.15 231.774,-215.831 227.264,-206.245 222.27,-211.15"/>
<a xlink:href="dir_000025_000032.html" target="_top" xlink:title="9">
<text text-anchor="middle" x="217.726" y="-208.075" font-family="Helvetica,sans-Serif" font-size="10.00">9</text>
</a>
</g>
<!-- dir_8f68c37b22d514b4289e3a1255795d80&#45;&gt;dir_ebac6f698c8ed4b70faacb8ef35cbe0d -->
<g id="edge23" class="edge"><title>dir_8f68c37b22d514b4289e3a1255795d80&#45;&gt;dir_ebac6f698c8ed4b70faacb8ef35cbe0d</title>
<path fill="none" stroke="black" d="M155.982,-143.831C152.196,-136.046 148.372,-126.773 145.337,-118.135"/>
<polygon fill="black" stroke="black" points="148.598,-116.846 142.185,-108.413 141.94,-119.005 148.598,-116.846"/>
<a xlink:href="dir_000025_000016.html" target="_top" xlink:title="1">
<text text-anchor="middle" x="152.408" y="-116.89" font-family="Helvetica,sans-Serif" font-size="10.00">1</text>
</a>
</g>
</g>
</svg>
