<?xml version="1.0" encoding="UTF-8" standalone="no"?>
<!DOCTYPE svg PUBLIC "-//W3C//DTD SVG 1.1//EN"
 "http://www.w3.org/Graphics/SVG/1.1/DTD/svg11.dtd">
<!-- Generated by graphviz version 2.26.3 (20100126.1600)
 -->
<!-- Title: src/analysis/physics/misc Pages: 1 -->
<svg width="220pt" height="441pt"
 viewBox="0.00 0.00 220.00 441.00" xmlns="http://www.w3.org/2000/svg" xmlns:xlink="http://www.w3.org/1999/xlink">
<g id="graph1" class="graph" transform="scale(1 1) rotate(0) translate(4 437)">
<title>src/analysis/physics/misc</title>
<polygon fill="white" stroke="white" points="-4,5 -4,-437 217,-437 217,5 -4,5"/>
<g id="graph2" class="cluster"><title>clusterdir_a21a804d6482c442bcd1b39e4dfcc179</title>
<a xlink:href="dir_a21a804d6482c442bcd1b39e4dfcc179.html" target="_top" xlink:title="physics">
<polygon fill="#ddddee" stroke="black" points="45,-352 45,-425 115,-425 115,-352 45,-352"/>
<text text-anchor="middle" x="80" y="-412" font-family="Helvetica,sans-Serif" font-size="10.00">physics</text>
</a>
</g>
<!-- dir_04cc45a024de8890cf589dc336108ee4 -->
<g id="node2" class="node"><title>dir_04cc45a024de8890cf589dc336108ee4</title>
<a xlink:href="dir_04cc45a024de8890cf589dc336108ee4.html" target="_top" xlink:title="misc">
<polygon fill="#eeeeff" stroke="black" points="107,-396 53,-396 53,-360 107,-360 107,-396"/>
<text text-anchor="middle" x="80" y="-375.5" font-family="Helvetica,sans-Serif" font-size="10.00">misc</text>
</a>
</g>
<!-- dir_0af1587c8378955de40f48b4bd1869f0 -->
<g id="node3" class="node"><title>dir_0af1587c8378955de40f48b4bd1869f0</title>
<a xlink:href="dir_0af1587c8378955de40f48b4bd1869f0.html" target="_top" xlink:title="base">
<polygon fill="white" stroke="red" points="167,-252 113,-252 113,-216 167,-216 167,-252"/>
<text text-anchor="middle" x="140" y="-231.5" font-family="Helvetica,sans-Serif" font-size="10.00">base</text>
</a>
</g>
<!-- dir_04cc45a024de8890cf589dc336108ee4&#45;&gt;dir_0af1587c8378955de40f48b4bd1869f0 -->
<g id="edge5" class="edge"><title>dir_04cc45a024de8890cf589dc336108ee4&#45;&gt;dir_0af1587c8378955de40f48b4bd1869f0</title>
<path fill="none" stroke="black" d="M87.599,-359.762C97.9231,-334.985 116.47,-290.471 128.503,-261.594"/>
<polygon fill="black" stroke="black" points="131.847,-262.667 132.463,-252.09 125.386,-259.974 131.847,-262.667"/>
<a xlink:href="dir_000019_000032.html" target="_top" xlink:title="10">
<text text-anchor="middle" x="133.086" y="-264.577" font-family="Helvetica,sans-Serif" font-size="10.00">10</text>
</a>
</g>
<!-- dir_ebac6f698c8ed4b70faacb8ef35cbe0d -->
<g id="node4" class="node"><title>dir_ebac6f698c8ed4b70faacb8ef35cbe0d</title>
<a xlink:href="dir_ebac6f698c8ed4b70faacb8ef35cbe0d.html" target="_top" xlink:title="root&#45;addons">
<polygon fill="white" stroke="red" points="127,-108 59,-108 59,-72 127,-72 127,-108"/>
<text text-anchor="middle" x="93" y="-87.5" font-family="Helvetica,sans-Serif" font-size="10.00">root&#45;addons</text>
</a>
</g>
<!-- dir_04cc45a024de8890cf589dc336108ee4&#45;&gt;dir_ebac6f698c8ed4b70faacb8ef35cbe0d -->
<g id="edge7" class="edge"><title>dir_04cc45a024de8890cf589dc336108ee4&#45;&gt;dir_ebac6f698c8ed4b70faacb8ef35cbe0d</title>
<path fill="none" stroke="black" d="M73.586,-359.927C60.4153,-320.02 33.4599,-221.748 57,-144 59.9564,-134.236 65.3252,-124.623 71.03,-116.276"/>
<polygon fill="black" stroke="black" points="73.9414,-118.224 77.0095,-108.083 68.2871,-114.097 73.9414,-118.224"/>
<a xlink:href="dir_000019_000016.html" target="_top" xlink:title="3">
<text text-anchor="middle" x="74.1158" y="-120.301" font-family="Helvetica,sans-Serif" font-size="10.00">3</text>
</a>
</g>
<!-- dir_c4f4646ab0f4a2967be5b6215a500c22 -->
<g id="node5" class="node"><title>dir_c4f4646ab0f4a2967be5b6215a500c22</title>
<a xlink:href="dir_c4f4646ab0f4a2967be5b6215a500c22.html" target="_top" xlink:title="expconfig">
<polygon fill="white" stroke="red" points="168,-36 110,-36 110,-1.77636e-14 168,-3.55271e-15 168,-36"/>
<text text-anchor="middle" x="139" y="-15.5" font-family="Helvetica,sans-Serif" font-size="10.00">expconfig</text>
</a>
</g>
<!-- dir_04cc45a024de8890cf589dc336108ee4&#45;&gt;dir_c4f4646ab0f4a2967be5b6215a500c22 -->
<g id="edge9" class="edge"><title>dir_04cc45a024de8890cf589dc336108ee4&#45;&gt;dir_c4f4646ab0f4a2967be5b6215a500c22</title>
<path fill="none" stroke="black" d="M61.8468,-359.786C38.2434,-334.08 0,-284.62 0,-234 0,-234 0,-234 0,-162 0,-103.692 59.726,-59.9514 100.877,-36.7346"/>
<polygon fill="black" stroke="black" points="102.767,-39.6904 109.861,-31.8216 99.4079,-33.5488 102.767,-39.6904"/>
<a xlink:href="dir_000019_000028.html" target="_top" xlink:title="2">
<text text-anchor="middle" x="100.975" y="-41.4062" font-family="Helvetica,sans-Serif" font-size="10.00">2</text>
</a>
</g>
<!-- dir_8f68c37b22d514b4289e3a1255795d80 -->
<g id="node6" class="node"><title>dir_8f68c37b22d514b4289e3a1255795d80</title>
<a xlink:href="dir_8f68c37b22d514b4289e3a1255795d80.html" target="_top" xlink:title="plot">
<polygon fill="none" stroke="black" points="120,-180 66,-180 66,-144 120,-144 120,-180"/>
<text text-anchor="middle" x="93" y="-159.5" font-family="Helvetica,sans-Serif" font-size="10.00">plot</text>
</a>
</g>
<!-- dir_04cc45a024de8890cf589dc336108ee4&#45;&gt;dir_8f68c37b22d514b4289e3a1255795d80 -->
<g id="edge11" class="edge"><title>dir_04cc45a024de8890cf589dc336108ee4&#45;&gt;dir_8f68c37b22d514b4289e3a1255795d80</title>
<path fill="none" stroke="black" d="M81.086,-359.955C83.3467,-322.394 88.5731,-235.554 91.2901,-190.41"/>
<polygon fill="black" stroke="black" points="94.8008,-190.337 91.9079,-180.145 87.8134,-189.917 94.8008,-190.337"/>
<a xlink:href="dir_000019_000025.html" target="_top" xlink:title="4">
<text text-anchor="middle" x="97.419" y="-191.596" font-family="Helvetica,sans-Serif" font-size="10.00">4</text>
</a>
</g>
<!-- dir_f7cc278301683119f8719a92f4ffdd26 -->
<g id="node7" class="node"><title>dir_f7cc278301683119f8719a92f4ffdd26</title>
<a xlink:href="dir_f7cc278301683119f8719a92f4ffdd26.html" target="_top" xlink:title="slowcontrol">
<polygon fill="white" stroke="red" points="212,-324 146,-324 146,-288 212,-288 212,-324"/>
<text text-anchor="middle" x="179" y="-303.5" font-family="Helvetica,sans-Serif" font-size="10.00">slowcontrol</text>
</a>
</g>
<!-- dir_04cc45a024de8890cf589dc336108ee4&#45;&gt;dir_f7cc278301683119f8719a92f4ffdd26 -->
<g id="edge13" class="edge"><title>dir_04cc45a024de8890cf589dc336108ee4&#45;&gt;dir_f7cc278301683119f8719a92f4ffdd26</title>
<path fill="none" stroke="black" d="M104.982,-359.831C117.293,-350.878 132.311,-339.956 145.594,-330.295"/>
<polygon fill="black" stroke="black" points="147.997,-332.875 154.026,-324.163 143.88,-327.214 147.997,-332.875"/>
<a xlink:href="dir_000019_000006.html" target="_top" xlink:title="2">
<text text-anchor="middle" x="146.76" y="-334.786" font-family="Helvetica,sans-Serif" font-size="10.00">2</text>
</a>
</g>
<!-- dir_0af1587c8378955de40f48b4bd1869f0&#45;&gt;dir_8f68c37b22d514b4289e3a1255795d80 -->
<g id="edge3" class="edge"><title>dir_0af1587c8378955de40f48b4bd1869f0&#45;&gt;dir_8f68c37b22d514b4289e3a1255795d80</title>
<path fill="none" stroke="black" d="M122.188,-215.831C116.157,-207.792 109.667,-198.167 104.244,-189.292"/>
<polygon fill="black" stroke="black" points="107.118,-187.273 99.0438,-180.413 101.078,-190.811 107.118,-187.273"/>
<a xlink:href="dir_000032_000025.html" target="_top" xlink:title="1">
<text text-anchor="middle" x="111.385" y="-186.44" font-family="Helvetica,sans-Serif" font-size="10.00">1</text>
</a>
</g>
<!-- dir_ebac6f698c8ed4b70faacb8ef35cbe0d&#45;&gt;dir_0af1587c8378955de40f48b4bd1869f0 -->
<g id="edge15" class="edge"><title>dir_ebac6f698c8ed4b70faacb8ef35cbe0d&#45;&gt;dir_0af1587c8378955de40f48b4bd1869f0</title>
<path fill="none" stroke="black" d="M108.339,-108.302C115.825,-118.242 124.224,-131.11 129,-144 136.326,-163.773 138.997,-187.496 139.878,-205.621"/>
<polygon fill="black" stroke="black" points="136.388,-205.956 140.217,-215.835 143.384,-205.724 136.388,-205.956"/>
<a xlink:href="dir_000016_000032.html" target="_top" xlink:title="35">
<text text-anchor="middle" x="133.431" y="-199.958" font-family="Helvetica,sans-Serif" font-size="10.00">35</text>
</a>
</g>
<!-- dir_ebac6f698c8ed4b70faacb8ef35cbe0d&#45;&gt;dir_c4f4646ab0f4a2967be5b6215a500c22 -->
<g id="edge17" class="edge"><title>dir_ebac6f698c8ed4b70faacb8ef35cbe0d&#45;&gt;dir_c4f4646ab0f4a2967be5b6215a500c22</title>
<path fill="none" stroke="black" d="M104.608,-71.8314C109.798,-63.7079 116.023,-53.9637 121.742,-45.0118"/>
<polygon fill="black" stroke="black" points="124.801,-46.7246 127.236,-36.4133 118.903,-42.9559 124.801,-46.7246"/>
<a xlink:href="dir_000016_000028.html" target="_top" xlink:title="5">
<text text-anchor="middle" x="125.259" y="-48.7824" font-family="Helvetica,sans-Serif" font-size="10.00">5</text>
</a>
</g>
<!-- dir_ebac6f698c8ed4b70faacb8ef35cbe0d&#45;&gt;dir_8f68c37b22d514b4289e3a1255795d80 -->
<g id="edge19" class="edge"><title>dir_ebac6f698c8ed4b70faacb8ef35cbe0d&#45;&gt;dir_8f68c37b22d514b4289e3a1255795d80</title>
<path fill="none" stroke="black" d="M98.976,-108.413C99.7071,-116.059 99.9203,-125.108 99.6155,-133.573"/>
<polygon fill="black" stroke="black" points="96.1048,-133.626 98.9524,-143.831 103.09,-134.078 96.1048,-133.626"/>
<a xlink:href="dir_000016_000025.html" target="_top" xlink:title="14">
<text text-anchor="middle" x="93.5032" y="-127.356" font-family="Helvetica,sans-Serif" font-size="10.00">14</text>
</a>
</g>
<!-- dir_c4f4646ab0f4a2967be5b6215a500c22&#45;&gt;dir_0af1587c8378955de40f48b4bd1869f0 -->
<g id="edge21" class="edge"><title>dir_c4f4646ab0f4a2967be5b6215a500c22&#45;&gt;dir_0af1587c8378955de40f48b4bd1869f0</title>
<path fill="none" stroke="black" d="M141.576,-36.4783C145.424,-66.5709 151.829,-128.029 148,-180 147.383,-188.374 146.235,-197.419 144.997,-205.668"/>
<polygon fill="black" stroke="black" points="141.535,-205.154 143.415,-215.58 148.448,-206.257 141.535,-205.154"/>
<a xlink:href="dir_000028_000032.html" target="_top" xlink:title="27">
<text text-anchor="middle" x="139.298" y="-198.656" font-family="Helvetica,sans-Serif" font-size="10.00">27</text>
</a>
</g>
<!-- dir_8f68c37b22d514b4289e3a1255795d80&#45;&gt;dir_0af1587c8378955de40f48b4bd1869f0 -->
<g id="edge23" class="edge"><title>dir_8f68c37b22d514b4289e3a1255795d80&#45;&gt;dir_0af1587c8378955de40f48b4bd1869f0</title>
<path fill="none" stroke="black" d="M110.996,-180.413C117.036,-188.484 123.52,-198.118 128.92,-206.978"/>
<polygon fill="black" stroke="black" points="126.026,-208.962 134.092,-215.831 132.07,-205.431 126.026,-208.962"/>
<a xlink:href="dir_000025_000032.html" target="_top" xlink:title="9">
<text text-anchor="middle" x="121.761" y="-204.79" font-family="Helvetica,sans-Serif" font-size="10.00">9</text>
</a>
</g>
<!-- dir_8f68c37b22d514b4289e3a1255795d80&#45;&gt;dir_ebac6f698c8ed4b70faacb8ef35cbe0d -->
<g id="edge25" class="edge"><title>dir_8f68c37b22d514b4289e3a1255795d80&#45;&gt;dir_ebac6f698c8ed4b70faacb8ef35cbe0d</title>
<path fill="none" stroke="black" d="M87.0476,-143.831C86.2972,-136.131 86.0763,-126.974 86.3849,-118.417"/>
<polygon fill="black" stroke="black" points="89.8792,-118.616 87.024,-108.413 82.8935,-118.17 89.8792,-118.616"/>
<a xlink:href="dir_000025_000016.html" target="_top" xlink:title="1">
<text text-anchor="middle" x="92.4836" y="-119.884" font-family="Helvetica,sans-Serif" font-size="10.00">1</text>
</a>
</g>
<!-- dir_f7cc278301683119f8719a92f4ffdd26&#45;&gt;dir_0af1587c8378955de40f48b4bd1869f0 -->
<g id="edge27" class="edge"><title>dir_f7cc278301683119f8719a92f4ffdd26&#45;&gt;dir_0af1587c8378955de40f48b4bd1869f0</title>
<path fill="none" stroke="black" d="M169.159,-287.831C164.804,-279.792 159.59,-270.167 154.783,-261.292"/>
<polygon fill="black" stroke="black" points="157.814,-259.539 149.974,-252.413 151.659,-262.873 157.814,-259.539"/>
<a xlink:href="dir_000006_000032.html" target="_top" xlink:title="11">
<text text-anchor="middle" x="162.023" y="-258.848" font-family="Helvetica,sans-Serif" font-size="10.00">11</text>
</a>
</g>
<!-- dir_f7cc278301683119f8719a92f4ffdd26&#45;&gt;dir_c4f4646ab0f4a2967be5b6215a500c22 -->
<g id="edge29" class="edge"><title>dir_f7cc278301683119f8719a92f4ffdd26&#45;&gt;dir_c4f4646ab0f4a2967be5b6215a500c22</title>
<path fill="none" stroke="black" d="M179.657,-287.762C180.647,-247.932 180.644,-150.457 161,-72 158.773,-63.1067 155.369,-53.7477 151.899,-45.3655"/>
<polygon fill="black" stroke="black" points="155.052,-43.841 147.861,-36.0605 148.631,-46.6274 155.052,-43.841"/>
<a xlink:href="dir_000006_000028.html" target="_top" xlink:title="10">
<text text-anchor="middle" x="159.088" y="-43.5084" font-family="Helvetica,sans-Serif" font-size="10.00">10</text>
</a>
</g>
</g>
</svg>
