<?xml version="1.0" encoding="UTF-8" standalone="no"?>
<!DOCTYPE svg PUBLIC "-//W3C//DTD SVG 1.1//EN"
 "http://www.w3.org/Graphics/SVG/1.1/DTD/svg11.dtd">
<!-- Generated by graphviz version 2.26.3 (20100126.1600)
 -->
<!-- Title: src/base Pages: 1 -->
<svg width="264pt" height="185pt"
 viewBox="0.00 0.00 264.00 185.00" xmlns="http://www.w3.org/2000/svg" xmlns:xlink="http://www.w3.org/1999/xlink">
<g id="graph1" class="graph" transform="scale(1 1) rotate(0) translate(4 181)">
<title>src/base</title>
<polygon fill="white" stroke="white" points="-4,5 -4,-181 261,-181 261,5 -4,5"/>
<g id="graph2" class="cluster"><title>clusterdir_68267d1309a1af8e8297ef4c3efbcdba</title>
<a xlink:href="dir_68267d1309a1af8e8297ef4c3efbcdba.html" target="_top" xlink:title="src">
<polygon fill="#ddddee" stroke="black" points="8,-8 8,-169 194,-169 194,-8 8,-8"/>
<text text-anchor="middle" x="101" y="-156" font-family="Helvetica,sans-Serif" font-size="10.00">src</text>
</a>
</g>
<g id="graph3" class="cluster"><title>clusterdir_0af1587c8378955de40f48b4bd1869f0</title>
<a xlink:href="dir_0af1587c8378955de40f48b4bd1869f0.html" target="_top">
<polygon fill="#eeeeff" stroke="black" points="16,-16 16,-140 186,-140 186,-16 16,-16"/>
</a>
</g>
<!-- dir_0af1587c8378955de40f48b4bd1869f0 -->
<g id="node3" class="node"><title>dir_0af1587c8378955de40f48b4bd1869f0</title>
<text text-anchor="middle" x="151" y="-111.5" font-family="Helvetica,sans-Serif" font-size="10.00">base</text>
</g>
<!-- dir_2785e539dc2185bb77968109a302f52f -->
<g id="node5" class="node"><title>dir_2785e539dc2185bb77968109a302f52f</title>
<a xlink:href="dir_2785e539dc2185bb77968109a302f52f.html" target="_top" xlink:title="std_ext">
<polygon fill="white" stroke="black" points="106,-60 52,-60 52,-24 106,-24 106,-60"/>
<text text-anchor="middle" x="79" y="-39.5" font-family="Helvetica,sans-Serif" font-size="10.00">std_ext</text>
</a>
</g>
<!-- dir_0af1587c8378955de40f48b4bd1869f0&#45;&gt;dir_2785e539dc2185bb77968109a302f52f -->
<g id="edge6" class="edge"><title>dir_0af1587c8378955de40f48b4bd1869f0&#45;&gt;dir_2785e539dc2185bb77968109a302f52f</title>
<path fill="none" stroke="black" d="M132.831,-95.8314C124.285,-87.2848 113.944,-76.9443 104.62,-67.6198"/>
<polygon fill="black" stroke="black" points="106.959,-65.0095 97.4133,-60.4133 102.009,-69.9592 106.959,-65.0095"/>
<a xlink:href="dir_000032_000034.html" target="_top" xlink:title="20">
<text text-anchor="middle" x="111.509" y="-63.0436" font-family="Helvetica,sans-Serif" font-size="10.00">20</text>
</a>
</g>
<!-- dir_51a458f6079ce8ac5ea64f4b81b15b20 -->
<g id="node6" class="node"><title>dir_51a458f6079ce8ac5ea64f4b81b15b20</title>
<a xlink:href="dir_51a458f6079ce8ac5ea64f4b81b15b20.html" target="_top" xlink:title="vec">
<polygon fill="white" stroke="black" points="178,-60 124,-60 124,-24 178,-24 178,-60"/>
<text text-anchor="middle" x="151" y="-39.5" font-family="Helvetica,sans-Serif" font-size="10.00">vec</text>
</a>
</g>
<!-- dir_0af1587c8378955de40f48b4bd1869f0&#45;&gt;dir_51a458f6079ce8ac5ea64f4b81b15b20 -->
<g id="edge4" class="edge"><title>dir_0af1587c8378955de40f48b4bd1869f0&#45;&gt;dir_51a458f6079ce8ac5ea64f4b81b15b20</title>
<path fill="none" stroke="black" d="M151,-95.8314C151,-88.131 151,-78.9743 151,-70.4166"/>
<polygon fill="black" stroke="black" points="154.5,-70.4132 151,-60.4133 147.5,-70.4133 154.5,-70.4132"/>
<a xlink:href="dir_000032_000035.html" target="_top" xlink:title="2">
<text text-anchor="middle" x="157.339" y="-71.5079" font-family="Helvetica,sans-Serif" font-size="10.00">2</text>
</a>
</g>
<!-- dir_2eec376824a17f48dc36b4bd0c810e01 -->
<g id="node7" class="node"><title>dir_2eec376824a17f48dc36b4bd0c810e01</title>
<a xlink:href="dir_2eec376824a17f48dc36b4bd0c810e01.html" target="_top" xlink:title="analysis">
<polygon fill="white" stroke="red" points="256,-132 202,-132 202,-96 256,-96 256,-132"/>
<text text-anchor="middle" x="229" y="-111.5" font-family="Helvetica,sans-Serif" font-size="10.00">analysis</text>
</a>
</g>
<!-- dir_0af1587c8378955de40f48b4bd1869f0&#45;&gt;dir_2eec376824a17f48dc36b4bd0c810e01 -->
<g id="edge8" class="edge"><title>dir_0af1587c8378955de40f48b4bd1869f0&#45;&gt;dir_2eec376824a17f48dc36b4bd0c810e01</title>
<path fill="none" stroke="black" d="M178.117,-114C182.714,-114 187.31,-114 191.906,-114"/>
<polygon fill="black" stroke="black" points="191.969,-117.5 201.969,-114 191.968,-110.5 191.969,-117.5"/>
<a xlink:href="dir_000032_000003.html" target="_top" xlink:title="1">
<text text-anchor="middle" x="188.374" y="-117.839" font-family="Helvetica,sans-Serif" font-size="10.00">1</text>
</a>
</g>
<!-- dir_1dcc89ce9e65763eefd0d2df6658684c -->
<g id="node4" class="node"><title>dir_1dcc89ce9e65763eefd0d2df6658684c</title>
<a xlink:href="dir_1dcc89ce9e65763eefd0d2df6658684c.html" target="_top" xlink:title="math_functions">
<polygon fill="white" stroke="black" points="106,-132 24,-132 24,-96 106,-96 106,-132"/>
<text text-anchor="middle" x="65" y="-111.5" font-family="Helvetica,sans-Serif" font-size="10.00">math_functions</text>
</a>
</g>
<!-- dir_1dcc89ce9e65763eefd0d2df6658684c&#45;&gt;dir_2785e539dc2185bb77968109a302f52f -->
<g id="edge12" class="edge"><title>dir_1dcc89ce9e65763eefd0d2df6658684c&#45;&gt;dir_2785e539dc2185bb77968109a302f52f</title>
<path fill="none" stroke="black" d="M68.5328,-95.8314C70.0301,-88.131 71.8105,-78.9743 73.4745,-70.4166"/>
<polygon fill="black" stroke="black" points="76.9465,-70.8975 75.4196,-60.4133 70.0752,-69.5614 76.9465,-70.8975"/>
<a xlink:href="dir_000033_000034.html" target="_top" xlink:title="1">
<text text-anchor="middle" x="79.0476" y="-72.4679" font-family="Helvetica,sans-Serif" font-size="10.00">1</text>
</a>
</g>
<!-- dir_1dcc89ce9e65763eefd0d2df6658684c&#45;&gt;dir_51a458f6079ce8ac5ea64f4b81b15b20 -->
<g id="edge10" class="edge"><title>dir_1dcc89ce9e65763eefd0d2df6658684c&#45;&gt;dir_51a458f6079ce8ac5ea64f4b81b15b20</title>
<path fill="none" stroke="black" d="M86.7014,-95.8314C97.1921,-87.0485 109.946,-76.3712 121.319,-66.8489"/>
<polygon fill="black" stroke="black" points="123.885,-69.2659 129.306,-60.1628 119.391,-63.8986 123.885,-69.2659"/>
<a xlink:href="dir_000033_000035.html" target="_top" xlink:title="1">
<text text-anchor="middle" x="122.951" y="-71.2504" font-family="Helvetica,sans-Serif" font-size="10.00">1</text>
</a>
</g>
<!-- dir_2eec376824a17f48dc36b4bd0c810e01&#45;&gt;dir_2785e539dc2185bb77968109a302f52f -->
<g id="edge16" class="edge"><title>dir_2eec376824a17f48dc36b4bd0c810e01&#45;&gt;dir_2785e539dc2185bb77968109a302f52f</title>
<path fill="none" stroke="black" d="M201.742,-101.287C180.497,-91.3351 150.051,-76.9785 115.464,-60.1845"/>
<polygon fill="black" stroke="black" points="116.62,-56.8544 106.096,-55.6253 113.556,-63.1485 116.62,-56.8544"/>
<a xlink:href="dir_000003_000034.html" target="_top" xlink:title="65">
<text text-anchor="middle" x="121.094" y="-53.3744" font-family="Helvetica,sans-Serif" font-size="10.00">65</text>
</a>
</g>
<!-- dir_2eec376824a17f48dc36b4bd0c810e01&#45;&gt;dir_51a458f6079ce8ac5ea64f4b81b15b20 -->
<g id="edge14" class="edge"><title>dir_2eec376824a17f48dc36b4bd0c810e01&#45;&gt;dir_51a458f6079ce8ac5ea64f4b81b15b20</title>
<path fill="none" stroke="black" d="M209.317,-95.8314C199.895,-87.1337 188.46,-76.5783 178.22,-67.1265"/>
<polygon fill="black" stroke="black" points="180.398,-64.3738 170.676,-60.1628 175.65,-69.5175 180.398,-64.3738"/>
<a xlink:href="dir_000003_000035.html" target="_top" xlink:title="4">
<text text-anchor="middle" x="184.966" y="-62.2257" font-family="Helvetica,sans-Serif" font-size="10.00">4</text>
</a>
</g>
</g>
</svg>
