<?xml version="1.0" encoding="UTF-8" standalone="no"?>
<!DOCTYPE svg PUBLIC "-//W3C//DTD SVG 1.1//EN"
 "http://www.w3.org/Graphics/SVG/1.1/DTD/svg11.dtd">
<!-- Generated by graphviz version 2.26.3 (20100126.1600)
 -->
<!-- Title: src/analysis/physics/etaprime/etaprime_dalitz.h Pages: 1 -->
<svg width="290pt" height="116pt"
 viewBox="0.00 0.00 290.00 116.00" xmlns="http://www.w3.org/2000/svg" xmlns:xlink="http://www.w3.org/1999/xlink">
<g id="graph1" class="graph" transform="scale(1 1) rotate(0) translate(4 112)">
<title>src/analysis/physics/etaprime/etaprime_dalitz.h</title>
<polygon fill="white" stroke="white" points="-4,5 -4,-112 287,-112 287,5 -4,5"/>
<!-- Node1 -->
<g id="node1" class="node"><title>Node1</title>
<polygon fill="#bfbfbf" stroke="black" points="70,-73 70,-107 204,-107 204,-73 70,-73"/>
<text text-anchor="start" x="78" y="-94" font-family="Helvetica,sans-Serif" font-size="10.00">src/analysis/physics</text>
<text text-anchor="middle" x="137" y="-81" font-family="Helvetica,sans-Serif" font-size="10.00">/etaprime/etaprime_dalitz.h</text>
</g>
<!-- Node2 -->
<g id="node3" class="node"><title>Node2</title>
<a xlink:href="_etap_dalitz__plot_8cc.html" target="_top" xlink:title="Plotting tool for TTrees from the ant::analysis::physics::etaprime::etaprime_dalitz physics class...">
<polygon fill="white" stroke="black" points="0,-7.5 0,-28.5 124,-28.5 124,-7.5 0,-7.5"/>
<text text-anchor="middle" x="62" y="-15.5" font-family="Helvetica,sans-Serif" font-size="10.00">progs/EtapDalitz_plot.cc</text>
</a>
</g>
<!-- Node1&#45;&gt;Node2 -->
<g id="edge2" class="edge"><title>Node1&#45;&gt;Node2</title>
<path fill="none" stroke="midnightblue" d="M111.862,-65.8677C98.8199,-53.3471 83.5312,-38.67 73.3552,-28.901"/>
<polygon fill="midnightblue" stroke="midnightblue" points="109.588,-68.5365 119.226,-72.937 114.436,-63.4868 109.588,-68.5365"/>
</g>
<!-- Node3 -->
<g id="node5" class="node"><title>Node3</title>
<a xlink:href="etaprime__dalitz_8cc.html" target="_top" xlink:title="src/analysis/physics\l/etaprime/etaprime_dalitz.cc">
<polygon fill="white" stroke="black" points="142,-1 142,-35 282,-35 282,-1 142,-1"/>
<text text-anchor="start" x="150" y="-22" font-family="Helvetica,sans-Serif" font-size="10.00">src/analysis/physics</text>
<text text-anchor="middle" x="212" y="-9" font-family="Helvetica,sans-Serif" font-size="10.00">/etaprime/etaprime_dalitz.cc</text>
</a>
</g>
<!-- Node1&#45;&gt;Node3 -->
<g id="edge4" class="edge"><title>Node1&#45;&gt;Node3</title>
<path fill="none" stroke="midnightblue" d="M162.095,-65.9083C172.579,-55.8438 184.521,-44.3799 194.094,-35.19"/>
<polygon fill="midnightblue" stroke="midnightblue" points="159.564,-63.4868 154.774,-72.937 164.412,-68.5365 159.564,-63.4868"/>
</g>
</g>
</svg>
