<?xml version="1.0" encoding="UTF-8" standalone="no"?>
<!DOCTYPE svg PUBLIC "-//W3C//DTD SVG 1.1//EN"
 "http://www.w3.org/Graphics/SVG/1.1/DTD/svg11.dtd">
<!-- Generated by graphviz version 2.26.3 (20100126.1600)
 -->
<!-- Title: test/expconfig_helpers.h Pages: 1 -->
<svg width="3100pt" height="102pt"
 viewBox="0.00 0.00 3100.00 102.00" xmlns="http://www.w3.org/2000/svg" xmlns:xlink="http://www.w3.org/1999/xlink">
<g id="graph1" class="graph" transform="scale(1 1) rotate(0) translate(4 98)">
<title>test/expconfig_helpers.h</title>
<polygon fill="white" stroke="white" points="-4,5 -4,-98 3097,-98 3097,5 -4,5"/>
<!-- Node1 -->
<g id="node1" class="node"><title>Node1</title>
<polygon fill="#bfbfbf" stroke="black" points="1456.5,-72.5 1456.5,-93.5 1579.5,-93.5 1579.5,-72.5 1456.5,-72.5"/>
<text text-anchor="middle" x="1518" y="-80.5" font-family="Helvetica,sans-Serif" font-size="10.00">test/expconfig_helpers.h</text>
</g>
<!-- Node2 -->
<g id="node3" class="node"><title>Node2</title>
<a xlink:href="_test_ant_reader_8cc.html" target="_top" xlink:title="test/analysis/TestAntReader.cc">
<polygon fill="white" stroke="black" points="-0.5,-7.5 -0.5,-28.5 154.5,-28.5 154.5,-7.5 -0.5,-7.5"/>
<text text-anchor="middle" x="77" y="-15.5" font-family="Helvetica,sans-Serif" font-size="10.00">test/analysis/TestAntReader.cc</text>
</a>
</g>
<!-- Node1&#45;&gt;Node2 -->
<g id="edge2" class="edge"><title>Node1&#45;&gt;Node2</title>
<path fill="none" stroke="midnightblue" d="M1445.99,-82.1337C1203.06,-78.9551 414.822,-66.4918 163,-36 148.917,-34.2947 133.716,-31.4529 120.068,-28.5254"/>
<polygon fill="midnightblue" stroke="midnightblue" points="1446.08,-85.6349 1456.12,-82.2649 1446.17,-78.6355 1446.08,-85.6349"/>
</g>
<!-- Node3 -->
<g id="node5" class="node"><title>Node3</title>
<a xlink:href="_test_fitter_8cc.html" target="_top" xlink:title="test/analysis/TestFitter.cc">
<polygon fill="white" stroke="black" points="171.5,-7.5 171.5,-28.5 302.5,-28.5 302.5,-7.5 171.5,-7.5"/>
<text text-anchor="middle" x="237" y="-15.5" font-family="Helvetica,sans-Serif" font-size="10.00">test/analysis/TestFitter.cc</text>
</a>
</g>
<!-- Node1&#45;&gt;Node3 -->
<g id="edge4" class="edge"><title>Node1&#45;&gt;Node3</title>
<path fill="none" stroke="midnightblue" d="M1446.32,-82.0865C1221.53,-78.926 532.295,-66.9066 311,-36 298.822,-34.2992 285.726,-31.4586 273.986,-28.5308"/>
<polygon fill="midnightblue" stroke="midnightblue" points="1446.3,-85.5866 1456.35,-82.226 1446.4,-78.5872 1446.3,-85.5866"/>
</g>
<!-- Node4 -->
<g id="node7" class="node"><title>Node4</title>
<a xlink:href="_test_goat_reader_8cc.html" target="_top" xlink:title="test/analysis/TestGoatReader.cc">
<polygon fill="white" stroke="black" points="319.5,-7.5 319.5,-28.5 480.5,-28.5 480.5,-7.5 319.5,-7.5"/>
<text text-anchor="middle" x="400" y="-15.5" font-family="Helvetica,sans-Serif" font-size="10.00">test/analysis/TestGoatReader.cc</text>
</a>
</g>
<!-- Node1&#45;&gt;Node4 -->
<g id="edge6" class="edge"><title>Node1&#45;&gt;Node4</title>
<path fill="none" stroke="midnightblue" d="M1446.13,-81.1585C1244.24,-75.7563 674.687,-58.8799 489,-36 474.606,-34.2264 459.063,-31.4028 445.056,-28.5131"/>
<polygon fill="midnightblue" stroke="midnightblue" points="1446.23,-84.6624 1456.32,-81.4298 1446.42,-77.6648 1446.23,-84.6624"/>
</g>
<!-- Node5 -->
<g id="node9" class="node"><title>Node5</title>
<a xlink:href="_test_physics_manager_8cc.html" target="_top" xlink:title="test/analysis/TestPhysics\lManager.cc">
<polygon fill="white" stroke="black" points="498,-1 498,-35 628,-35 628,-1 498,-1"/>
<text text-anchor="start" x="506" y="-22" font-family="Helvetica,sans-Serif" font-size="10.00">test/analysis/TestPhysics</text>
<text text-anchor="middle" x="563" y="-9" font-family="Helvetica,sans-Serif" font-size="10.00">Manager.cc</text>
</a>
</g>
<!-- Node1&#45;&gt;Node5 -->
<g id="edge8" class="edge"><title>Node1&#45;&gt;Node5</title>
<path fill="none" stroke="midnightblue" d="M1446.23,-80.8876C1265.05,-75.2788 792.53,-58.8627 637,-36 634.122,-35.577 631.192,-35.0937 628.241,-34.5637"/>
<polygon fill="midnightblue" stroke="midnightblue" points="1446.35,-84.3927 1456.45,-81.202 1446.56,-77.396 1446.35,-84.3927"/>
</g>
<!-- Node6 -->
<g id="node11" class="node"><title>Node6</title>
<a xlink:href="_test_physics_registry_8cc.html" target="_top" xlink:title="test/analysis/TestPhysics\lRegistry.cc">
<polygon fill="white" stroke="black" points="646,-1 646,-35 776,-35 776,-1 646,-1"/>
<text text-anchor="start" x="654" y="-22" font-family="Helvetica,sans-Serif" font-size="10.00">test/analysis/TestPhysics</text>
<text text-anchor="middle" x="711" y="-9" font-family="Helvetica,sans-Serif" font-size="10.00">Registry.cc</text>
</a>
</g>
<!-- Node1&#45;&gt;Node6 -->
<g id="edge10" class="edge"><title>Node1&#45;&gt;Node6</title>
<path fill="none" stroke="midnightblue" d="M1446.18,-79.9947C1287.48,-73.0936 911.051,-55.2211 785,-36 782.124,-35.5615 779.197,-35.0655 776.247,-34.525"/>
<polygon fill="midnightblue" stroke="midnightblue" points="1446.17,-83.4975 1456.31,-80.4333 1446.47,-76.5041 1446.17,-83.4975"/>
</g>
<!-- Node7 -->
<g id="node13" class="node"><title>Node7</title>
<a xlink:href="_test_slow_control_manager_8cc.html" target="_top" xlink:title="test/analysis/TestSlowControl\lManager.cc">
<polygon fill="white" stroke="black" points="794,-1 794,-35 942,-35 942,-1 794,-1"/>
<text text-anchor="start" x="802" y="-22" font-family="Helvetica,sans-Serif" font-size="10.00">test/analysis/TestSlowControl</text>
<text text-anchor="middle" x="868" y="-9" font-family="Helvetica,sans-Serif" font-size="10.00">Manager.cc</text>
</a>
</g>
<!-- Node1&#45;&gt;Node7 -->
<g id="edge12" class="edge"><title>Node1&#45;&gt;Node7</title>
<path fill="none" stroke="midnightblue" d="M1446.33,-80.0691C1338.41,-74.9776 1127.98,-62.4095 951,-36 948.083,-35.5648 945.116,-35.0877 942.123,-34.5779"/>
<polygon fill="midnightblue" stroke="midnightblue" points="1446.3,-83.5713 1456.45,-80.5387 1446.62,-76.5788 1446.3,-83.5713"/>
</g>
<!-- Node8 -->
<g id="node15" class="node"><title>Node8</title>
<a xlink:href="_test_tree_fitter_8cc.html" target="_top" xlink:title="test/analysis/TestTreeFitter.cc">
<polygon fill="white" stroke="black" points="960,-7.5 960,-28.5 1110,-28.5 1110,-7.5 960,-7.5"/>
<text text-anchor="middle" x="1035" y="-15.5" font-family="Helvetica,sans-Serif" font-size="10.00">test/analysis/TestTreeFitter.cc</text>
</a>
</g>
<!-- Node1&#45;&gt;Node8 -->
<g id="edge14" class="edge"><title>Node1&#45;&gt;Node8</title>
<path fill="none" stroke="midnightblue" d="M1446.25,-76.5947C1366.16,-68.9697 1232.83,-54.8579 1119,-36 1106.49,-33.9281 1093.03,-31.2476 1080.63,-28.5912"/>
<polygon fill="midnightblue" stroke="midnightblue" points="1445.94,-80.0813 1456.23,-77.5374 1446.6,-73.1123 1445.94,-80.0813"/>
</g>
<!-- Node9 -->
<g id="node17" class="node"><title>Node9</title>
<a xlink:href="_test_exp_config_8cc.html" target="_top" xlink:title="test/expconfig/TestExpConfig.cc">
<polygon fill="white" stroke="black" points="1128,-7.5 1128,-28.5 1288,-28.5 1288,-7.5 1128,-7.5"/>
<text text-anchor="middle" x="1208" y="-15.5" font-family="Helvetica,sans-Serif" font-size="10.00">test/expconfig/TestExpConfig.cc</text>
</a>
</g>
<!-- Node1&#45;&gt;Node9 -->
<g id="edge16" class="edge"><title>Node1&#45;&gt;Node9</title>
<path fill="none" stroke="midnightblue" d="M1458.06,-70.4316C1399.9,-58.2361 1312.64,-39.9409 1258.08,-28.5005"/>
<polygon fill="midnightblue" stroke="midnightblue" points="1457.34,-73.8577 1467.85,-72.4844 1458.78,-67.0066 1457.34,-73.8577"/>
</g>
<!-- Node10 -->
<g id="node19" class="node"><title>Node10</title>
<a xlink:href="_test_trigger_patterns_8cc.html" target="_top" xlink:title="test/expconfig/TestTrigger\lPatterns.cc">
<polygon fill="white" stroke="black" points="1305.5,-1 1305.5,-35 1436.5,-35 1436.5,-1 1305.5,-1"/>
<text text-anchor="start" x="1313.5" y="-22" font-family="Helvetica,sans-Serif" font-size="10.00">test/expconfig/TestTrigger</text>
<text text-anchor="middle" x="1371" y="-9" font-family="Helvetica,sans-Serif" font-size="10.00">Patterns.cc</text>
</a>
</g>
<!-- Node1&#45;&gt;Node10 -->
<g id="edge18" class="edge"><title>Node1&#45;&gt;Node10</title>
<path fill="none" stroke="midnightblue" d="M1484.66,-68.2578C1462.35,-58.3916 1432.91,-45.3747 1409.58,-35.0604"/>
<polygon fill="midnightblue" stroke="midnightblue" points="1483.49,-71.5689 1494.05,-72.412 1486.32,-65.1668 1483.49,-71.5689"/>
</g>
<!-- Node11 -->
<g id="node21" class="node"><title>Node11</title>
<a xlink:href="expconfig__helpers_8cc.html" target="_top" xlink:title="test/expconfig_helpers.cc">
<polygon fill="white" stroke="black" points="1454,-7.5 1454,-28.5 1582,-28.5 1582,-7.5 1454,-7.5"/>
<text text-anchor="middle" x="1518" y="-15.5" font-family="Helvetica,sans-Serif" font-size="10.00">test/expconfig_helpers.cc</text>
</a>
</g>
<!-- Node1&#45;&gt;Node11 -->
<g id="edge20" class="edge"><title>Node1&#45;&gt;Node11</title>
<path fill="none" stroke="midnightblue" d="M1518,-62.0142C1518,-50.8307 1518,-37.5583 1518,-28.5337"/>
<polygon fill="midnightblue" stroke="midnightblue" points="1514.5,-62.2665 1518,-72.2666 1521.5,-62.2666 1514.5,-62.2665"/>
</g>
<!-- Node12 -->
<g id="node23" class="node"><title>Node12</title>
<a xlink:href="_test_candidate_builder_8cc.html" target="_top" xlink:title="test/reconstruct/TestCandidate\lBuilder.cc">
<polygon fill="white" stroke="black" points="1600,-1 1600,-35 1752,-35 1752,-1 1600,-1"/>
<text text-anchor="start" x="1608" y="-22" font-family="Helvetica,sans-Serif" font-size="10.00">test/reconstruct/TestCandidate</text>
<text text-anchor="middle" x="1676" y="-9" font-family="Helvetica,sans-Serif" font-size="10.00">Builder.cc</text>
</a>
</g>
<!-- Node1&#45;&gt;Node12 -->
<g id="edge22" class="edge"><title>Node1&#45;&gt;Node12</title>
<path fill="none" stroke="midnightblue" d="M1553.19,-68.5225C1577.25,-58.6253 1609.23,-45.4672 1634.53,-35.0604"/>
<polygon fill="midnightblue" stroke="midnightblue" points="1551.65,-65.3705 1543.74,-72.412 1554.32,-71.8441 1551.65,-65.3705"/>
</g>
<!-- Node13 -->
<g id="node25" class="node"><title>Node13</title>
<a xlink:href="_test_clustering_8cc.html" target="_top" xlink:title="test/reconstruct/TestClustering.cc">
<polygon fill="white" stroke="black" points="1769.5,-7.5 1769.5,-28.5 1934.5,-28.5 1934.5,-7.5 1769.5,-7.5"/>
<text text-anchor="middle" x="1852" y="-15.5" font-family="Helvetica,sans-Serif" font-size="10.00">test/reconstruct/TestClustering.cc</text>
</a>
</g>
<!-- Node1&#45;&gt;Node13 -->
<g id="edge24" class="edge"><title>Node1&#45;&gt;Node13</title>
<path fill="none" stroke="midnightblue" d="M1582.85,-70.5342C1631.81,-61.1045 1700.64,-47.8073 1761,-36 1773.33,-33.5885 1786.59,-30.9755 1799.08,-28.5077"/>
<polygon fill="midnightblue" stroke="midnightblue" points="1582.18,-67.0986 1573.02,-72.4264 1583.5,-73.9723 1582.18,-67.0986"/>
</g>
<!-- Node14 -->
<g id="node27" class="node"><title>Node14</title>
<a xlink:href="_test_reconstruct_8cc.html" target="_top" xlink:title="test/reconstruct/TestReconstruct.cc">
<polygon fill="white" stroke="black" points="1952,-7.5 1952,-28.5 2126,-28.5 2126,-7.5 1952,-7.5"/>
<text text-anchor="middle" x="2039" y="-15.5" font-family="Helvetica,sans-Serif" font-size="10.00">test/reconstruct/TestReconstruct.cc</text>
</a>
</g>
<!-- Node1&#45;&gt;Node14 -->
<g id="edge26" class="edge"><title>Node1&#45;&gt;Node14</title>
<path fill="none" stroke="midnightblue" d="M1589.79,-76.7213C1674.47,-68.9327 1819.35,-54.403 1943,-36 1957.26,-33.8782 1972.63,-31.181 1986.81,-28.5245"/>
<polygon fill="midnightblue" stroke="midnightblue" points="1589.41,-73.2416 1579.77,-77.6375 1590.05,-80.2125 1589.41,-73.2416"/>
</g>
<!-- Node15 -->
<g id="node29" class="node"><title>Node15</title>
<a xlink:href="_test_tree_writer_8cc.html" target="_top" xlink:title="test/unpacker/TestTreeWriter.cc">
<polygon fill="white" stroke="black" points="2144,-7.5 2144,-28.5 2302,-28.5 2302,-7.5 2144,-7.5"/>
<text text-anchor="middle" x="2223" y="-15.5" font-family="Helvetica,sans-Serif" font-size="10.00">test/unpacker/TestTreeWriter.cc</text>
</a>
</g>
<!-- Node1&#45;&gt;Node15 -->
<g id="edge28" class="edge"><title>Node1&#45;&gt;Node15</title>
<path fill="none" stroke="midnightblue" d="M1589.69,-80.4658C1705.04,-75.7321 1938.77,-63.4315 2135,-36 2148.75,-34.0785 2163.57,-31.3175 2177.06,-28.5329"/>
<polygon fill="midnightblue" stroke="midnightblue" points="1589.43,-76.9735 1579.58,-80.8739 1589.71,-83.9678 1589.43,-76.9735"/>
</g>
<!-- Node16 -->
<g id="node31" class="node"><title>Node16</title>
<a xlink:href="_test_unpacker_a2_geant_8cc.html" target="_top" xlink:title="test/unpacker/TestUnpacker\lA2Geant.cc">
<polygon fill="white" stroke="black" points="2320,-1 2320,-35 2460,-35 2460,-1 2320,-1"/>
<text text-anchor="start" x="2328" y="-22" font-family="Helvetica,sans-Serif" font-size="10.00">test/unpacker/TestUnpacker</text>
<text text-anchor="middle" x="2390" y="-9" font-family="Helvetica,sans-Serif" font-size="10.00">A2Geant.cc</text>
</a>
</g>
<!-- Node1&#45;&gt;Node16 -->
<g id="edge30" class="edge"><title>Node1&#45;&gt;Node16</title>
<path fill="none" stroke="midnightblue" d="M1589.9,-80.259C1758,-73.6041 2172.92,-55.6856 2311,-36 2313.92,-35.5831 2316.9,-35.1134 2319.9,-34.6025"/>
<polygon fill="midnightblue" stroke="midnightblue" points="1589.52,-76.771 1579.67,-80.6621 1589.8,-83.7655 1589.52,-76.771"/>
</g>
<!-- Node17 -->
<g id="node33" class="node"><title>Node17</title>
<a xlink:href="_test_unpacker_acqu_8cc.html" target="_top" xlink:title="test/unpacker/TestUnpacker\lAcqu.cc">
<polygon fill="white" stroke="black" points="2478,-1 2478,-35 2618,-35 2618,-1 2478,-1"/>
<text text-anchor="start" x="2486" y="-22" font-family="Helvetica,sans-Serif" font-size="10.00">test/unpacker/TestUnpacker</text>
<text text-anchor="middle" x="2548" y="-9" font-family="Helvetica,sans-Serif" font-size="10.00">Acqu.cc</text>
</a>
</g>
<!-- Node1&#45;&gt;Node17 -->
<g id="edge32" class="edge"><title>Node1&#45;&gt;Node17</title>
<path fill="none" stroke="midnightblue" d="M1590.04,-81.0708C1781.39,-75.685 2299.35,-59.337 2469,-36 2471.93,-35.5974 2474.9,-35.1398 2477.91,-34.6388"/>
<polygon fill="midnightblue" stroke="midnightblue" points="1589.71,-77.5785 1579.81,-81.3569 1589.9,-84.5757 1589.71,-77.5785"/>
</g>
<!-- Node18 -->
<g id="node35" class="node"><title>Node18</title>
<a xlink:href="_test_unpacker_acqu_mk1_8cc.html" target="_top" xlink:title="test/unpacker/TestUnpacker\lAcquMk1.cc">
<polygon fill="white" stroke="black" points="2636,-1 2636,-35 2776,-35 2776,-1 2636,-1"/>
<text text-anchor="start" x="2644" y="-22" font-family="Helvetica,sans-Serif" font-size="10.00">test/unpacker/TestUnpacker</text>
<text text-anchor="middle" x="2706" y="-9" font-family="Helvetica,sans-Serif" font-size="10.00">AcquMk1.cc</text>
</a>
</g>
<!-- Node1&#45;&gt;Node18 -->
<g id="edge34" class="edge"><title>Node1&#45;&gt;Node18</title>
<path fill="none" stroke="midnightblue" d="M1589.94,-81.6591C1802.52,-77.4264 2425.45,-63.0039 2627,-36 2629.93,-35.6077 2632.91,-35.1587 2635.91,-34.6648"/>
<polygon fill="midnightblue" stroke="midnightblue" points="1589.76,-78.1619 1579.83,-81.8589 1589.9,-85.1605 1589.76,-78.1619"/>
</g>
<!-- Node19 -->
<g id="node37" class="node"><title>Node19</title>
<a xlink:href="_test_unpacker_acqu_mk2_8cc.html" target="_top" xlink:title="test/unpacker/TestUnpacker\lAcquMk2.cc">
<polygon fill="white" stroke="black" points="2794,-1 2794,-35 2934,-35 2934,-1 2794,-1"/>
<text text-anchor="start" x="2802" y="-22" font-family="Helvetica,sans-Serif" font-size="10.00">test/unpacker/TestUnpacker</text>
<text text-anchor="middle" x="2864" y="-9" font-family="Helvetica,sans-Serif" font-size="10.00">AcquMk2.cc</text>
</a>
</g>
<!-- Node1&#45;&gt;Node19 -->
<g id="edge36" class="edge"><title>Node1&#45;&gt;Node19</title>
<path fill="none" stroke="midnightblue" d="M1589.64,-82.1042C1821.71,-78.9256 2551.27,-66.6881 2785,-36 2787.93,-35.6154 2790.91,-35.1729 2793.91,-34.6843"/>
<polygon fill="midnightblue" stroke="midnightblue" points="1589.58,-78.6047 1579.62,-82.24 1589.67,-85.6041 1589.58,-78.6047"/>
</g>
<!-- Node20 -->
<g id="node39" class="node"><title>Node20</title>
<a xlink:href="_test_unpacker_acqu_t_i_d_8cc.html" target="_top" xlink:title="test/unpacker/TestUnpacker\lAcquTID.cc">
<polygon fill="white" stroke="black" points="2952,-1 2952,-35 3092,-35 3092,-1 2952,-1"/>
<text text-anchor="start" x="2960" y="-22" font-family="Helvetica,sans-Serif" font-size="10.00">test/unpacker/TestUnpacker</text>
<text text-anchor="middle" x="3022" y="-9" font-family="Helvetica,sans-Serif" font-size="10.00">AcquTID.cc</text>
</a>
</g>
<!-- Node1&#45;&gt;Node20 -->
<g id="edge38" class="edge"><title>Node1&#45;&gt;Node20</title>
<path fill="none" stroke="midnightblue" d="M1589.9,-82.4446C1840.87,-80.2222 2677.11,-70.3557 2943,-36 2945.93,-35.6215 2948.91,-35.1839 2951.91,-34.6996"/>
<polygon fill="midnightblue" stroke="midnightblue" points="1589.78,-78.9455 1579.81,-82.5327 1589.84,-85.9452 1589.78,-78.9455"/>
</g>
</g>
</svg>
