<?xml version="1.0" encoding="UTF-8" standalone="no"?>
<!DOCTYPE svg PUBLIC "-//W3C//DTD SVG 1.1//EN"
 "http://www.w3.org/Graphics/SVG/1.1/DTD/svg11.dtd">
<!-- Generated by graphviz version 2.26.3 (20100126.1600)
 -->
<!-- Title: src/root&#45;addons/analysis_codes/histtools.cc Pages: 1 -->
<svg width="548pt" height="160pt"
 viewBox="0.00 0.00 548.00 160.00" xmlns="http://www.w3.org/2000/svg" xmlns:xlink="http://www.w3.org/1999/xlink">
<g id="graph1" class="graph" transform="scale(1 1) rotate(0) translate(4 156)">
<title>src/root&#45;addons/analysis_codes/histtools.cc</title>
<polygon fill="white" stroke="white" points="-4,5 -4,-156 545,-156 545,5 -4,5"/>
<!-- Node1 -->
<g id="node1" class="node"><title>Node1</title>
<polygon fill="#bfbfbf" stroke="black" points="201.5,-117 201.5,-151 324.5,-151 324.5,-117 201.5,-117"/>
<text text-anchor="start" x="209.5" y="-138" font-family="Helvetica,sans-Serif" font-size="10.00">src/root&#45;addons/analysis</text>
<text text-anchor="middle" x="263" y="-125" font-family="Helvetica,sans-Serif" font-size="10.00">_codes/histtools.cc</text>
</g>
<!-- Node2 -->
<g id="node3" class="node"><title>Node2</title>
<a xlink:href="histtools_8h.html" target="_top" xlink:title="histtools.h">
<polygon fill="white" stroke="black" points="0,-58.5 0,-79.5 62,-79.5 62,-58.5 0,-58.5"/>
<text text-anchor="middle" x="31" y="-66.5" font-family="Helvetica,sans-Serif" font-size="10.00">histtools.h</text>
</a>
</g>
<!-- Node1&#45;&gt;Node2 -->
<g id="edge2" class="edge"><title>Node1&#45;&gt;Node2</title>
<path fill="none" stroke="midnightblue" d="M202.045,-116.922C160.935,-105.404 107.818,-90.5222 71.7602,-80.4199"/>
<polygon fill="midnightblue" stroke="midnightblue" points="72.6401,-77.0317 62.0666,-77.704 70.7515,-83.7721 72.6401,-77.0317"/>
</g>
<!-- Node4 -->
<g id="node7" class="node"><title>Node4</title>
<polygon fill="white" stroke="#bfbfbf" points="80,-58.5 80,-79.5 134,-79.5 134,-58.5 80,-58.5"/>
<text text-anchor="middle" x="107" y="-66.5" font-family="Helvetica,sans-Serif" font-size="10.00">iostream</text>
</g>
<!-- Node1&#45;&gt;Node4 -->
<g id="edge6" class="edge"><title>Node1&#45;&gt;Node4</title>
<path fill="none" stroke="midnightblue" d="M222.013,-116.922C197.099,-106.541 165.628,-93.4282 141.906,-83.5443"/>
<polygon fill="midnightblue" stroke="midnightblue" points="143.157,-80.2738 132.58,-79.6584 140.465,-86.7354 143.157,-80.2738"/>
</g>
<!-- Node5 -->
<g id="node9" class="node"><title>Node5</title>
<polygon fill="white" stroke="#bfbfbf" points="151.5,-58.5 151.5,-79.5 192.5,-79.5 192.5,-58.5 151.5,-58.5"/>
<text text-anchor="middle" x="172" y="-66.5" font-family="Helvetica,sans-Serif" font-size="10.00">string</text>
</g>
<!-- Node1&#45;&gt;Node5 -->
<g id="edge8" class="edge"><title>Node1&#45;&gt;Node5</title>
<path fill="none" stroke="midnightblue" d="M239.091,-116.922C225.527,-107.233 208.63,-95.1645 195.187,-85.5623"/>
<polygon fill="midnightblue" stroke="midnightblue" points="197.093,-82.6227 186.922,-79.6584 193.025,-88.3189 197.093,-82.6227"/>
</g>
<!-- Node6 -->
<g id="node11" class="node"><title>Node6</title>
<polygon fill="white" stroke="#bfbfbf" points="210,-58.5 210,-79.5 254,-79.5 254,-58.5 210,-58.5"/>
<text text-anchor="middle" x="232" y="-66.5" font-family="Helvetica,sans-Serif" font-size="10.00">TH1.h</text>
</g>
<!-- Node1&#45;&gt;Node6 -->
<g id="edge10" class="edge"><title>Node1&#45;&gt;Node6</title>
<path fill="none" stroke="midnightblue" d="M254.855,-116.922C250.789,-108.395 245.843,-98.0251 241.593,-89.1151"/>
<polygon fill="midnightblue" stroke="midnightblue" points="244.64,-87.3715 237.176,-79.8521 238.321,-90.3848 244.64,-87.3715"/>
</g>
<!-- Node7 -->
<g id="node13" class="node"><title>Node7</title>
<polygon fill="white" stroke="#bfbfbf" points="272,-58.5 272,-79.5 316,-79.5 316,-58.5 272,-58.5"/>
<text text-anchor="middle" x="294" y="-66.5" font-family="Helvetica,sans-Serif" font-size="10.00">TH2.h</text>
</g>
<!-- Node1&#45;&gt;Node7 -->
<g id="edge12" class="edge"><title>Node1&#45;&gt;Node7</title>
<path fill="none" stroke="midnightblue" d="M271.145,-116.922C275.211,-108.395 280.157,-98.0251 284.407,-89.1151"/>
<polygon fill="midnightblue" stroke="midnightblue" points="287.679,-90.3848 288.824,-79.8521 281.36,-87.3715 287.679,-90.3848"/>
</g>
<!-- Node8 -->
<g id="node15" class="node"><title>Node8</title>
<polygon fill="white" stroke="#bfbfbf" points="333.5,-58.5 333.5,-79.5 384.5,-79.5 384.5,-58.5 333.5,-58.5"/>
<text text-anchor="middle" x="359" y="-66.5" font-family="Helvetica,sans-Serif" font-size="10.00">TH1D.h</text>
</g>
<!-- Node1&#45;&gt;Node8 -->
<g id="edge14" class="edge"><title>Node1&#45;&gt;Node8</title>
<path fill="none" stroke="midnightblue" d="M288.223,-116.922C302.668,-107.141 320.697,-94.9344 334.943,-85.2887"/>
<polygon fill="midnightblue" stroke="midnightblue" points="336.94,-88.1632 343.258,-79.6584 333.016,-82.3668 336.94,-88.1632"/>
</g>
<!-- Node9 -->
<g id="node17" class="node"><title>Node9</title>
<polygon fill="white" stroke="#bfbfbf" points="401.5,-58.5 401.5,-79.5 458.5,-79.5 458.5,-58.5 401.5,-58.5"/>
<text text-anchor="middle" x="430" y="-66.5" font-family="Helvetica,sans-Serif" font-size="10.00">TGraph.h</text>
</g>
<!-- Node1&#45;&gt;Node9 -->
<g id="edge16" class="edge"><title>Node1&#45;&gt;Node9</title>
<path fill="none" stroke="midnightblue" d="M306.877,-116.922C333.666,-106.495 367.538,-93.3116 392.971,-83.4127"/>
<polygon fill="midnightblue" stroke="midnightblue" points="394.567,-86.5472 402.616,-79.6584 392.028,-80.0239 394.567,-86.5472"/>
</g>
<!-- Node10 -->
<g id="node19" class="node"><title>Node10</title>
<polygon fill="white" stroke="#bfbfbf" points="475.5,-58.5 475.5,-79.5 540.5,-79.5 540.5,-58.5 475.5,-58.5"/>
<text text-anchor="middle" x="508" y="-66.5" font-family="Helvetica,sans-Serif" font-size="10.00">TCanvas.h</text>
</g>
<!-- Node1&#45;&gt;Node10 -->
<g id="edge18" class="edge"><title>Node1&#45;&gt;Node10</title>
<path fill="none" stroke="midnightblue" d="M324.611,-117.749C362.72,-107.683 412.914,-94.402 465.487,-80.3985"/>
<polygon fill="midnightblue" stroke="midnightblue" points="466.567,-83.7329 475.329,-77.776 464.765,-76.9689 466.567,-83.7329"/>
</g>
<!-- Node3 -->
<g id="node5" class="node"><title>Node3</title>
<polygon fill="white" stroke="#bfbfbf" points="11,-0.5 11,-21.5 51,-21.5 51,-0.5 11,-0.5"/>
<text text-anchor="middle" x="31" y="-8.5" font-family="Helvetica,sans-Serif" font-size="10.00">utility</text>
</g>
<!-- Node2&#45;&gt;Node3 -->
<g id="edge4" class="edge"><title>Node2&#45;&gt;Node3</title>
<path fill="none" stroke="midnightblue" d="M31,-58.3619C31,-50.9219 31,-40.7427 31,-31.7276"/>
<polygon fill="midnightblue" stroke="midnightblue" points="34.5001,-31.5706 31,-21.5707 27.5001,-31.5707 34.5001,-31.5706"/>
</g>
</g>
</svg>
