<?xml version="1.0" encoding="UTF-8" standalone="no"?>
<!DOCTYPE svg PUBLIC "-//W3C//DTD SVG 1.1//EN"
 "http://www.w3.org/Graphics/SVG/1.1/DTD/svg11.dtd">
<!-- Generated by graphviz version 2.26.3 (20100126.1600)
 -->
<!-- Title: src/root&#45;addons/analysis_codes/hstack.h Pages: 1 -->
<svg width="1255pt" height="174pt"
 viewBox="0.00 0.00 1255.00 174.00" xmlns="http://www.w3.org/2000/svg" xmlns:xlink="http://www.w3.org/1999/xlink">
<g id="graph1" class="graph" transform="scale(1 1) rotate(0) translate(4 170)">
<title>src/root&#45;addons/analysis_codes/hstack.h</title>
<polygon fill="white" stroke="white" points="-4,5 -4,-170 1252,-170 1252,5 -4,5"/>
<!-- Node1 -->
<g id="node1" class="node"><title>Node1</title>
<polygon fill="#bfbfbf" stroke="black" points="487.5,-131 487.5,-165 610.5,-165 610.5,-131 487.5,-131"/>
<text text-anchor="start" x="495.5" y="-152" font-family="Helvetica,sans-Serif" font-size="10.00">src/root&#45;addons/analysis</text>
<text text-anchor="middle" x="549" y="-139" font-family="Helvetica,sans-Serif" font-size="10.00">_codes/hstack.h</text>
</g>
<!-- Node2 -->
<g id="node3" class="node"><title>Node2</title>
<a xlink:href="_ant-hadd_8cc.html" target="_top" xlink:title="progs/Ant&#45;hadd.cc">
<polygon fill="white" stroke="black" points="0,-65.5 0,-86.5 96,-86.5 96,-65.5 0,-65.5"/>
<text text-anchor="middle" x="48" y="-73.5" font-family="Helvetica,sans-Serif" font-size="10.00">progs/Ant&#45;hadd.cc</text>
</a>
</g>
<!-- Node1&#45;&gt;Node2 -->
<g id="edge2" class="edge"><title>Node1&#45;&gt;Node2</title>
<path fill="none" stroke="midnightblue" d="M477.175,-143.366C388.81,-136.728 234.573,-122.086 105,-94 96.075,-92.0655 86.5506,-89.334 77.8935,-86.582"/>
<polygon fill="midnightblue" stroke="midnightblue" points="477.125,-146.872 487.356,-144.118 477.64,-139.891 477.125,-146.872"/>
</g>
<!-- Node3 -->
<g id="node5" class="node"><title>Node3</title>
<a xlink:href="process_etap_tree_8cc.html" target="_top" xlink:title="progs/processEtapTree.cc">
<polygon fill="white" stroke="black" points="113.5,-65.5 113.5,-86.5 244.5,-86.5 244.5,-65.5 113.5,-65.5"/>
<text text-anchor="middle" x="179" y="-73.5" font-family="Helvetica,sans-Serif" font-size="10.00">progs/processEtapTree.cc</text>
</a>
</g>
<!-- Node1&#45;&gt;Node3 -->
<g id="edge4" class="edge"><title>Node1&#45;&gt;Node3</title>
<path fill="none" stroke="midnightblue" d="M477.144,-136.095C417.059,-125.852 329.194,-110.203 253,-94 242.395,-91.7449 230.992,-89.0877 220.389,-86.5173"/>
<polygon fill="midnightblue" stroke="midnightblue" points="476.84,-139.593 487.285,-137.817 478.012,-132.692 476.84,-139.593"/>
</g>
<!-- Node4 -->
<g id="node7" class="node"><title>Node4</title>
<a xlink:href="show__cocktail__database_8cc.html" target="_top" xlink:title="progs/show_cocktail\l_database.cc">
<polygon fill="white" stroke="black" points="262,-59 262,-93 368,-93 368,-59 262,-59"/>
<text text-anchor="start" x="270" y="-80" font-family="Helvetica,sans-Serif" font-size="10.00">progs/show_cocktail</text>
<text text-anchor="middle" x="315" y="-67" font-family="Helvetica,sans-Serif" font-size="10.00">_database.cc</text>
</a>
</g>
<!-- Node1&#45;&gt;Node4 -->
<g id="edge6" class="edge"><title>Node1&#45;&gt;Node4</title>
<path fill="none" stroke="midnightblue" d="M483.969,-127.99C447.438,-116.75 402.425,-102.9 368.046,-92.3217"/>
<polygon fill="midnightblue" stroke="midnightblue" points="482.958,-131.341 493.545,-130.937 485.017,-124.651 482.958,-131.341"/>
</g>
<!-- Node5 -->
<g id="node9" class="node"><title>Node5</title>
<a xlink:href="_m_c_reconstruct_check_8cc.html" target="_top" xlink:title="src/analysis/physics\l/common/MCReconstructCheck.cc">
<polygon fill="white" stroke="black" points="385.5,-59 385.5,-93 556.5,-93 556.5,-59 385.5,-59"/>
<text text-anchor="start" x="393.5" y="-80" font-family="Helvetica,sans-Serif" font-size="10.00">src/analysis/physics</text>
<text text-anchor="middle" x="471" y="-67" font-family="Helvetica,sans-Serif" font-size="10.00">/common/MCReconstructCheck.cc</text>
</a>
</g>
<!-- Node1&#45;&gt;Node5 -->
<g id="edge8" class="edge"><title>Node1&#45;&gt;Node5</title>
<path fill="none" stroke="midnightblue" d="M522.901,-123.908C511.997,-113.844 499.578,-102.38 489.623,-93.19"/>
<polygon fill="midnightblue" stroke="midnightblue" points="520.793,-126.726 530.515,-130.937 525.541,-121.582 520.793,-126.726"/>
</g>
<!-- Node6 -->
<g id="node11" class="node"><title>Node6</title>
<a xlink:href="omega_8cc.html" target="_top" xlink:title="src/analysis/physics\l/omega/omega.cc">
<polygon fill="white" stroke="black" points="574,-59 574,-93 680,-93 680,-59 574,-59"/>
<text text-anchor="start" x="582" y="-80" font-family="Helvetica,sans-Serif" font-size="10.00">src/analysis/physics</text>
<text text-anchor="middle" x="627" y="-67" font-family="Helvetica,sans-Serif" font-size="10.00">/omega/omega.cc</text>
</a>
</g>
<!-- Node1&#45;&gt;Node6 -->
<g id="edge10" class="edge"><title>Node1&#45;&gt;Node6</title>
<path fill="none" stroke="midnightblue" d="M575.099,-123.908C586.003,-113.844 598.422,-102.38 608.377,-93.19"/>
<polygon fill="midnightblue" stroke="midnightblue" points="572.459,-121.582 567.485,-130.937 577.207,-126.726 572.459,-121.582"/>
</g>
<!-- Node7 -->
<g id="node13" class="node"><title>Node7</title>
<a xlink:href="pi0eta_8cc.html" target="_top" xlink:title="src/analysis/physics\l/omega/pi0eta.cc">
<polygon fill="white" stroke="black" points="698,-59 698,-93 804,-93 804,-59 698,-59"/>
<text text-anchor="start" x="706" y="-80" font-family="Helvetica,sans-Serif" font-size="10.00">src/analysis/physics</text>
<text text-anchor="middle" x="751" y="-67" font-family="Helvetica,sans-Serif" font-size="10.00">/omega/pi0eta.cc</text>
</a>
</g>
<!-- Node1&#45;&gt;Node7 -->
<g id="edge12" class="edge"><title>Node1&#45;&gt;Node7</title>
<path fill="none" stroke="midnightblue" d="M606.538,-127.491C637.079,-116.606 674.171,-103.385 703.123,-93.0651"/>
<polygon fill="midnightblue" stroke="midnightblue" points="605.116,-124.283 596.871,-130.937 607.466,-130.876 605.116,-124.283"/>
</g>
<!-- Node8 -->
<g id="node15" class="node"><title>Node8</title>
<a xlink:href="_cut_tree_8h.html" target="_top" xlink:title="src/analysis/plot/CutTree.h">
<polygon fill="white" stroke="black" points="822,-65.5 822,-86.5 956,-86.5 956,-65.5 822,-65.5"/>
<text text-anchor="middle" x="889" y="-73.5" font-family="Helvetica,sans-Serif" font-size="10.00">src/analysis/plot/CutTree.h</text>
</a>
</g>
<!-- Node1&#45;&gt;Node8 -->
<g id="edge14" class="edge"><title>Node1&#45;&gt;Node8</title>
<path fill="none" stroke="midnightblue" d="M620.734,-133.948C673.901,-123.382 748.087,-108.322 813,-94 823.593,-91.6628 834.987,-89.0286 845.647,-86.5111"/>
<polygon fill="midnightblue" stroke="midnightblue" points="619.853,-130.554 610.725,-135.933 621.215,-137.42 619.853,-130.554"/>
</g>
<!-- Node14 -->
<g id="node27" class="node"><title>Node14</title>
<a xlink:href="hstack_8cc.html" target="_top" xlink:title="src/root&#45;addons/analysis\l_codes/hstack.cc">
<polygon fill="white" stroke="black" points="973.5,-59 973.5,-93 1096.5,-93 1096.5,-59 973.5,-59"/>
<text text-anchor="start" x="981.5" y="-80" font-family="Helvetica,sans-Serif" font-size="10.00">src/root&#45;addons/analysis</text>
<text text-anchor="middle" x="1035" y="-67" font-family="Helvetica,sans-Serif" font-size="10.00">_codes/hstack.cc</text>
</a>
</g>
<!-- Node1&#45;&gt;Node14 -->
<g id="edge26" class="edge"><title>Node1&#45;&gt;Node14</title>
<path fill="none" stroke="midnightblue" d="M620.809,-141.38C704.068,-133.081 845.208,-117.087 965,-94 967.711,-93.4776 970.472,-92.912 973.257,-92.3146"/>
<polygon fill="midnightblue" stroke="midnightblue" points="620.307,-137.912 610.699,-142.378 620.995,-144.879 620.307,-137.912"/>
</g>
<!-- Node9 -->
<g id="node17" class="node"><title>Node9</title>
<a xlink:href="_eta_dalitz__plot_8cc.html" target="_top" xlink:title="Plotting tool for TTrees from the ant::analysis::physics::common::MesonDalitzDecays physics class...">
<polygon fill="white" stroke="black" points="542.5,-0.5 542.5,-21.5 661.5,-21.5 661.5,-0.5 542.5,-0.5"/>
<text text-anchor="middle" x="602" y="-8.5" font-family="Helvetica,sans-Serif" font-size="10.00">progs/EtaDalitz_plot.cc</text>
</a>
</g>
<!-- Node8&#45;&gt;Node9 -->
<g id="edge16" class="edge"><title>Node8&#45;&gt;Node9</title>
<path fill="none" stroke="midnightblue" d="M834.893,-63.0915C827.539,-61.3644 820.087,-59.6284 813,-58 757.221,-45.1828 693.021,-30.9576 650.228,-21.5502"/>
<polygon fill="midnightblue" stroke="midnightblue" points="834.281,-66.5429 844.817,-65.4301 835.886,-59.7296 834.281,-66.5429"/>
</g>
<!-- Node10 -->
<g id="node19" class="node"><title>Node10</title>
<a xlink:href="_etap_dalitz__plot_8cc.html" target="_top" xlink:title="Plotting tool for TTrees from the ant::analysis::physics::etaprime::etaprime_dalitz physics class...">
<polygon fill="white" stroke="black" points="679,-0.5 679,-21.5 803,-21.5 803,-0.5 679,-0.5"/>
<text text-anchor="middle" x="741" y="-8.5" font-family="Helvetica,sans-Serif" font-size="10.00">progs/EtapDalitz_plot.cc</text>
</a>
</g>
<!-- Node8&#45;&gt;Node10 -->
<g id="edge18" class="edge"><title>Node8&#45;&gt;Node10</title>
<path fill="none" stroke="midnightblue" d="M855.649,-61.3527C828.122,-49.2628 789.713,-32.3942 765.098,-21.5835"/>
<polygon fill="midnightblue" stroke="midnightblue" points="854.329,-64.5953 864.892,-65.412 857.143,-58.1862 854.329,-64.5953"/>
</g>
<!-- Node11 -->
<g id="node21" class="node"><title>Node11</title>
<a xlink:href="_etap_omega_g__plot_8cc.html" target="_top" xlink:title="progs/EtapOmegaG_plot.cc">
<polygon fill="white" stroke="black" points="820.5,-0.5 820.5,-21.5 957.5,-21.5 957.5,-0.5 820.5,-0.5"/>
<text text-anchor="middle" x="889" y="-8.5" font-family="Helvetica,sans-Serif" font-size="10.00">progs/EtapOmegaG_plot.cc</text>
</a>
</g>
<!-- Node8&#45;&gt;Node11 -->
<g id="edge20" class="edge"><title>Node8&#45;&gt;Node11</title>
<path fill="none" stroke="midnightblue" d="M889,-55.0142C889,-43.8307 889,-30.5583 889,-21.5337"/>
<polygon fill="midnightblue" stroke="midnightblue" points="885.5,-55.2665 889,-65.2666 892.5,-55.2666 885.5,-55.2665"/>
</g>
<!-- Node12 -->
<g id="node23" class="node"><title>Node12</title>
<a xlink:href="_omega_eta_g2__plot_8cc.html" target="_top" xlink:title="Plotting tool for TTrees from the ant::analysis::physics::OmegaEtaG2 physics class. ">
<polygon fill="white" stroke="black" points="974.5,-0.5 974.5,-21.5 1111.5,-21.5 1111.5,-0.5 974.5,-0.5"/>
<text text-anchor="middle" x="1043" y="-8.5" font-family="Helvetica,sans-Serif" font-size="10.00">progs/OmegaEtaG2_plot.cc</text>
</a>
</g>
<!-- Node8&#45;&gt;Node12 -->
<g id="edge22" class="edge"><title>Node8&#45;&gt;Node12</title>
<path fill="none" stroke="midnightblue" d="M923.328,-61.5108C951.997,-49.4103 992.2,-32.4414 1017.93,-21.5835"/>
<polygon fill="midnightblue" stroke="midnightblue" points="921.937,-58.2988 914.086,-65.412 924.66,-64.7479 921.937,-58.2988"/>
</g>
<!-- Node13 -->
<g id="node25" class="node"><title>Node13</title>
<a xlink:href="_triple_pi0__cuts_8cc.html" target="_top" xlink:title="progs/TriplePi0_cuts.cc">
<polygon fill="white" stroke="black" points="1128.5,-0.5 1128.5,-21.5 1247.5,-21.5 1247.5,-0.5 1128.5,-0.5"/>
<text text-anchor="middle" x="1188" y="-8.5" font-family="Helvetica,sans-Serif" font-size="10.00">progs/TriplePi0_cuts.cc</text>
</a>
</g>
<!-- Node8&#45;&gt;Node13 -->
<g id="edge24" class="edge"><title>Node8&#45;&gt;Node13</title>
<path fill="none" stroke="midnightblue" d="M942.553,-63.1406C950.083,-61.3836 957.732,-59.6264 965,-58 1023.5,-44.9107 1090.86,-30.8533 1136.1,-21.5578"/>
<polygon fill="midnightblue" stroke="midnightblue" points="941.698,-59.746 932.763,-65.4391 943.298,-66.5607 941.698,-59.746"/>
</g>
</g>
</svg>
