<?xml version="1.0" encoding="UTF-8" standalone="no"?>
<!DOCTYPE svg PUBLIC "-//W3C//DTD SVG 1.1//EN"
 "http://www.w3.org/Graphics/SVG/1.1/DTD/svg11.dtd">
<!-- Generated by graphviz version 2.26.3 (20100126.1600)
 -->
<!-- Title: Graphical Class Hierarchy Pages: 1 -->
<svg width="606pt" height="302pt"
 viewBox="0.00 0.00 606.00 302.00" xmlns="http://www.w3.org/2000/svg" xmlns:xlink="http://www.w3.org/1999/xlink">
<g id="graph1" class="graph" transform="scale(1 1) rotate(0) translate(4 298)">
<title>Graphical Class Hierarchy</title>
<polygon fill="white" stroke="white" points="-4,5 -4,-298 603,-298 603,5 -4,5"/>
<!-- Node1 -->
<g id="node1" class="node"><title>Node1</title>
<a xlink:href="classant_1_1calibration_1_1gui_1_1_calib_module__traits.html" target="_top" xlink:title="ant::calibration::gui\l::CalibModule_traits">
<polygon fill="white" stroke="black" points="0,-130 0,-164 104,-164 104,-130 0,-130"/>
<text text-anchor="start" x="8" y="-151" font-family="Helvetica,sans-Serif" font-size="10.00">ant::calibration::gui</text>
<text text-anchor="middle" x="52" y="-138" font-family="Helvetica,sans-Serif" font-size="10.00">::CalibModule_traits</text>
</a>
</g>
<!-- Node2 -->
<g id="node3" class="node"><title>Node2</title>
<a xlink:href="classant_1_1calibration_1_1_c_b___source_calib_1_1_the_g_u_i.html" target="_top" xlink:title="ant::calibration::CB\l_SourceCalib::TheGUI">
<polygon fill="white" stroke="black" points="141,-260 141,-294 257,-294 257,-260 141,-260"/>
<text text-anchor="start" x="149" y="-281" font-family="Helvetica,sans-Serif" font-size="10.00">ant::calibration::CB</text>
<text text-anchor="middle" x="199" y="-268" font-family="Helvetica,sans-Serif" font-size="10.00">_SourceCalib::TheGUI</text>
</a>
</g>
<!-- Node1&#45;&gt;Node2 -->
<g id="edge2" class="edge"><title>Node1&#45;&gt;Node2</title>
<path fill="none" stroke="midnightblue" d="M68.7295,-172.769C84.7394,-195.777 110.731,-229.125 140,-251 144.393,-254.283 149.267,-257.263 154.275,-259.933"/>
<polygon fill="midnightblue" stroke="midnightblue" points="71.4188,-170.5 62.8971,-164.205 65.6329,-174.44 71.4188,-170.5"/>
</g>
<!-- Node3 -->
<g id="node5" class="node"><title>Node3</title>
<a xlink:href="classant_1_1calibration_1_1_c_b___time_walk_1_1_the_g_u_i.html" target="_top" xlink:title="ant::calibration::CB\l_TimeWalk::TheGUI">
<polygon fill="white" stroke="black" points="145.5,-208 145.5,-242 252.5,-242 252.5,-208 145.5,-208"/>
<text text-anchor="start" x="153.5" y="-229" font-family="Helvetica,sans-Serif" font-size="10.00">ant::calibration::CB</text>
<text text-anchor="middle" x="199" y="-216" font-family="Helvetica,sans-Serif" font-size="10.00">_TimeWalk::TheGUI</text>
</a>
</g>
<!-- Node1&#45;&gt;Node3 -->
<g id="edge4" class="edge"><title>Node1&#45;&gt;Node3</title>
<path fill="none" stroke="midnightblue" d="M87.773,-169.443C103.545,-178.995 122.449,-189.988 140,-199 145.875,-202.017 152.176,-205.024 158.394,-207.866"/>
<polygon fill="midnightblue" stroke="midnightblue" points="89.2408,-166.238 78.8827,-164.011 85.591,-172.211 89.2408,-166.238"/>
</g>
<!-- Node4 -->
<g id="node7" class="node"><title>Node4</title>
<a xlink:href="structant_1_1calibration_1_1_energy_1_1_g_u_i___calib_type.html" target="_top" xlink:title="The GUI_CalibType struct is an abstract base class for handling the data storage for a provided Calib...">
<polygon fill="white" stroke="black" points="140.5,-156 140.5,-190 257.5,-190 257.5,-156 140.5,-156"/>
<text text-anchor="start" x="148.5" y="-177" font-family="Helvetica,sans-Serif" font-size="10.00">ant::calibration::Energy</text>
<text text-anchor="middle" x="199" y="-164" font-family="Helvetica,sans-Serif" font-size="10.00">::GUI_CalibType</text>
</a>
</g>
<!-- Node1&#45;&gt;Node4 -->
<g id="edge6" class="edge"><title>Node1&#45;&gt;Node4</title>
<path fill="none" stroke="midnightblue" d="M114.285,-158.016C122.951,-159.549 131.829,-161.119 140.423,-162.639"/>
<polygon fill="midnightblue" stroke="midnightblue" points="114.697,-154.535 104.241,-156.24 113.478,-161.428 114.697,-154.535"/>
</g>
<!-- Node10 -->
<g id="node19" class="node"><title>Node10</title>
<a xlink:href="classant_1_1calibration_1_1_p_i_d___phi_angle_1_1_the_g_u_i.html" target="_top" xlink:title="ant::calibration::PID\l_PhiAngle::TheGUI">
<polygon fill="white" stroke="black" points="147,-104 147,-138 251,-138 251,-104 147,-104"/>
<text text-anchor="start" x="155" y="-125" font-family="Helvetica,sans-Serif" font-size="10.00">ant::calibration::PID</text>
<text text-anchor="middle" x="199" y="-112" font-family="Helvetica,sans-Serif" font-size="10.00">_PhiAngle::TheGUI</text>
</a>
</g>
<!-- Node1&#45;&gt;Node10 -->
<g id="edge18" class="edge"><title>Node1&#45;&gt;Node10</title>
<path fill="none" stroke="midnightblue" d="M114.142,-136.009C125.06,-134.078 136.32,-132.086 146.928,-130.21"/>
<polygon fill="midnightblue" stroke="midnightblue" points="113.478,-132.572 104.241,-137.76 114.697,-139.465 113.478,-132.572"/>
</g>
<!-- Node11 -->
<g id="node21" class="node"><title>Node11</title>
<a xlink:href="classant_1_1calibration_1_1_t_a_p_s___to_f_1_1_the_g_u_i.html" target="_top" xlink:title="ant::calibration::TAPS\l_ToF::TheGUI">
<polygon fill="white" stroke="black" points="142.5,-52 142.5,-86 255.5,-86 255.5,-52 142.5,-52"/>
<text text-anchor="start" x="150.5" y="-73" font-family="Helvetica,sans-Serif" font-size="10.00">ant::calibration::TAPS</text>
<text text-anchor="middle" x="199" y="-60" font-family="Helvetica,sans-Serif" font-size="10.00">_ToF::TheGUI</text>
</a>
</g>
<!-- Node1&#45;&gt;Node11 -->
<g id="edge20" class="edge"><title>Node1&#45;&gt;Node11</title>
<path fill="none" stroke="midnightblue" d="M87.773,-124.557C103.545,-115.005 122.449,-104.012 140,-95 145.875,-91.9832 152.176,-88.976 158.394,-86.1341"/>
<polygon fill="midnightblue" stroke="midnightblue" points="85.591,-121.789 78.8827,-129.989 89.2408,-127.762 85.591,-121.789"/>
</g>
<!-- Node12 -->
<g id="node23" class="node"><title>Node12</title>
<a xlink:href="classant_1_1calibration_1_1_time_1_1_the_g_u_i.html" target="_top" xlink:title="ant::calibration::Time\l::TheGUI">
<polygon fill="white" stroke="black" points="145,-0 145,-34 253,-34 253,-0 145,-0"/>
<text text-anchor="start" x="153" y="-21" font-family="Helvetica,sans-Serif" font-size="10.00">ant::calibration::Time</text>
<text text-anchor="middle" x="199" y="-8" font-family="Helvetica,sans-Serif" font-size="10.00">::TheGUI</text>
</a>
</g>
<!-- Node1&#45;&gt;Node12 -->
<g id="edge22" class="edge"><title>Node1&#45;&gt;Node12</title>
<path fill="none" stroke="midnightblue" d="M68.7295,-121.231C84.7394,-98.2235 110.731,-64.8747 140,-43 144.393,-39.7165 149.267,-36.7375 154.275,-34.0666"/>
<polygon fill="midnightblue" stroke="midnightblue" points="65.6329,-119.56 62.8971,-129.795 71.4188,-123.5 65.6329,-119.56"/>
</g>
<!-- Node5 -->
<g id="node9" class="node"><title>Node5</title>
<a xlink:href="structant_1_1calibration_1_1_c_b___energy_1_1_g_u_i___gains.html" target="_top" xlink:title="ant::calibration::CB\l_Energy::GUI_Gains">
<polygon fill="white" stroke="black" points="299.5,-234 299.5,-268 406.5,-268 406.5,-234 299.5,-234"/>
<text text-anchor="start" x="307.5" y="-255" font-family="Helvetica,sans-Serif" font-size="10.00">ant::calibration::CB</text>
<text text-anchor="middle" x="353" y="-242" font-family="Helvetica,sans-Serif" font-size="10.00">_Energy::GUI_Gains</text>
</a>
</g>
<!-- Node4&#45;&gt;Node5 -->
<g id="edge8" class="edge"><title>Node4&#45;&gt;Node5</title>
<path fill="none" stroke="midnightblue" d="M249.836,-194.567C252.627,-196.009 255.366,-197.491 258,-199 275.125,-208.811 276.875,-215.189 294,-225 299.439,-228.116 305.322,-231.113 311.194,-233.894"/>
<polygon fill="midnightblue" stroke="midnightblue" points="251.322,-191.397 240.806,-190.106 248.222,-197.673 251.322,-191.397"/>
</g>
<!-- Node6 -->
<g id="node11" class="node"><title>Node6</title>
<a xlink:href="structant_1_1calibration_1_1_energy_1_1_g_u_i___banana.html" target="_top" xlink:title="ant::calibration::Energy\l::GUI_Banana">
<polygon fill="white" stroke="black" points="294.5,-182 294.5,-216 411.5,-216 411.5,-182 294.5,-182"/>
<text text-anchor="start" x="302.5" y="-203" font-family="Helvetica,sans-Serif" font-size="10.00">ant::calibration::Energy</text>
<text text-anchor="middle" x="353" y="-190" font-family="Helvetica,sans-Serif" font-size="10.00">::GUI_Banana</text>
</a>
</g>
<!-- Node4&#45;&gt;Node6 -->
<g id="edge10" class="edge"><title>Node4&#45;&gt;Node6</title>
<path fill="none" stroke="midnightblue" d="M267.607,-184.583C276.497,-186.084 285.538,-187.61 294.248,-189.081"/>
<polygon fill="midnightblue" stroke="midnightblue" points="268.103,-181.117 257.66,-182.904 266.938,-188.02 268.103,-181.117"/>
</g>
<!-- Node7 -->
<g id="node13" class="node"><title>Node7</title>
<a xlink:href="structant_1_1calibration_1_1_energy_1_1_g_u_i___m_i_p.html" target="_top" xlink:title="ant::calibration::Energy\l::GUI_MIP">
<polygon fill="white" stroke="black" points="294.5,-130 294.5,-164 411.5,-164 411.5,-130 294.5,-130"/>
<text text-anchor="start" x="302.5" y="-151" font-family="Helvetica,sans-Serif" font-size="10.00">ant::calibration::Energy</text>
<text text-anchor="middle" x="353" y="-138" font-family="Helvetica,sans-Serif" font-size="10.00">::GUI_MIP</text>
</a>
</g>
<!-- Node4&#45;&gt;Node7 -->
<g id="edge12" class="edge"><title>Node4&#45;&gt;Node7</title>
<path fill="none" stroke="midnightblue" d="M267.607,-161.417C276.497,-159.916 285.538,-158.39 294.248,-156.919"/>
<polygon fill="midnightblue" stroke="midnightblue" points="266.938,-157.98 257.66,-163.096 268.103,-164.883 266.938,-157.98"/>
</g>
<!-- Node8 -->
<g id="node15" class="node"><title>Node8</title>
<a xlink:href="structant_1_1calibration_1_1_energy_1_1_g_u_i___pedestals.html" target="_top" xlink:title="ant::calibration::Energy\l::GUI_Pedestals">
<polygon fill="white" stroke="black" points="294.5,-78 294.5,-112 411.5,-112 411.5,-78 294.5,-78"/>
<text text-anchor="start" x="302.5" y="-99" font-family="Helvetica,sans-Serif" font-size="10.00">ant::calibration::Energy</text>
<text text-anchor="middle" x="353" y="-86" font-family="Helvetica,sans-Serif" font-size="10.00">::GUI_Pedestals</text>
</a>
</g>
<!-- Node4&#45;&gt;Node8 -->
<g id="edge14" class="edge"><title>Node4&#45;&gt;Node8</title>
<path fill="none" stroke="midnightblue" d="M249.836,-151.433C252.627,-149.991 255.366,-148.509 258,-147 275.125,-137.189 276.875,-130.811 294,-121 299.439,-117.884 305.322,-114.887 311.194,-112.106"/>
<polygon fill="midnightblue" stroke="midnightblue" points="248.222,-148.327 240.806,-155.894 251.322,-154.603 248.222,-148.327"/>
</g>
<!-- Node9 -->
<g id="node17" class="node"><title>Node9</title>
<a xlink:href="structant_1_1calibration_1_1_t_a_p_s___short_energy_1_1_g_u_i___pedestals.html" target="_top" xlink:title="ant::calibration::TAPS\l_ShortEnergy::GUI_Pedestals">
<polygon fill="white" stroke="black" points="448.5,-78 448.5,-112 597.5,-112 597.5,-78 448.5,-78"/>
<text text-anchor="start" x="456.5" y="-99" font-family="Helvetica,sans-Serif" font-size="10.00">ant::calibration::TAPS</text>
<text text-anchor="middle" x="523" y="-86" font-family="Helvetica,sans-Serif" font-size="10.00">_ShortEnergy::GUI_Pedestals</text>
</a>
</g>
<!-- Node8&#45;&gt;Node9 -->
<g id="edge16" class="edge"><title>Node8&#45;&gt;Node9</title>
<path fill="none" stroke="midnightblue" d="M421.712,-95C430.523,-95 439.576,-95 448.474,-95"/>
<polygon fill="midnightblue" stroke="midnightblue" points="421.504,-91.5001 411.504,-95 421.504,-98.5001 421.504,-91.5001"/>
</g>
</g>
</svg>
