<?xml version="1.0" encoding="UTF-8" standalone="no"?>
<!DOCTYPE svg PUBLIC "-//W3C//DTD SVG 1.1//EN"
 "http://www.w3.org/Graphics/SVG/1.1/DTD/svg11.dtd">
<!-- Generated by graphviz version 2.26.3 (20100126.1600)
 -->
<!-- Title: Graphical Class Hierarchy Pages: 1 -->
<svg width="294pt" height="56pt"
 viewBox="0.00 0.00 294.00 56.00" xmlns="http://www.w3.org/2000/svg" xmlns:xlink="http://www.w3.org/1999/xlink">
<g id="graph1" class="graph" transform="scale(1 1) rotate(0) translate(4 52)">
<title>Graphical Class Hierarchy</title>
<polygon fill="white" stroke="white" points="-4,5 -4,-52 291,-52 291,5 -4,5"/>
<!-- Node1 -->
<g id="node1" class="node"><title>Node1</title>
<a xlink:href="structant_1_1analysis_1_1plot_1_1cuttree_1_1_stacked_hists__t.html" target="_top" xlink:title="ant::analysis::plot\l::cuttree::StackedHists\l_t\&lt; Hist_t \&gt;">
<polygon fill="white" stroke="black" points="0,-0.5 0,-47.5 118,-47.5 118,-0.5 0,-0.5"/>
<text text-anchor="start" x="8" y="-34.5" font-family="Helvetica,sans-Serif" font-size="10.00">ant::analysis::plot</text>
<text text-anchor="start" x="8" y="-21.5" font-family="Helvetica,sans-Serif" font-size="10.00">::cuttree::StackedHists</text>
<text text-anchor="middle" x="59" y="-8.5" font-family="Helvetica,sans-Serif" font-size="10.00">_t&lt; Hist_t &gt;</text>
</a>
</g>
<!-- Node2 -->
<g id="node3" class="node"><title>Node2</title>
<a xlink:href="struct_m_c_true___splitter.html" target="_top" xlink:title="MCTrue_Splitter\&lt; Hist_t \&gt;">
<polygon fill="white" stroke="black" points="154,-13.5 154,-34.5 286,-34.5 286,-13.5 154,-13.5"/>
<text text-anchor="middle" x="220" y="-21.5" font-family="Helvetica,sans-Serif" font-size="10.00">MCTrue_Splitter&lt; Hist_t &gt;</text>
</a>
</g>
<!-- Node1&#45;&gt;Node2 -->
<g id="edge2" class="edge"><title>Node1&#45;&gt;Node2</title>
<path fill="none" stroke="midnightblue" d="M128.29,-24C136.787,-24 145.454,-24 153.902,-24"/>
<polygon fill="midnightblue" stroke="midnightblue" points="128.036,-20.5001 118.036,-24 128.036,-27.5001 128.036,-20.5001"/>
</g>
</g>
</svg>
