<?xml version="1.0" encoding="UTF-8" standalone="no"?>
<!DOCTYPE svg PUBLIC "-//W3C//DTD SVG 1.1//EN"
 "http://www.w3.org/Graphics/SVG/1.1/DTD/svg11.dtd">
<!-- Generated by graphviz version 2.26.3 (20100126.1600)
 -->
<!-- Title: Graphical Class Hierarchy Pages: 1 -->
<svg width="260pt" height="94pt"
 viewBox="0.00 0.00 260.00 94.00" xmlns="http://www.w3.org/2000/svg" xmlns:xlink="http://www.w3.org/1999/xlink">
<g id="graph1" class="graph" transform="scale(1 1) rotate(0) translate(4 90)">
<title>Graphical Class Hierarchy</title>
<polygon fill="white" stroke="white" points="-4,5 -4,-90 257,-90 257,5 -4,5"/>
<!-- Node1 -->
<g id="node1" class="node"><title>Node1</title>
<polygon fill="white" stroke="#bfbfbf" points="0,-32.5 0,-53.5 84,-53.5 84,-32.5 0,-32.5"/>
<text text-anchor="middle" x="42" y="-40.5" font-family="Helvetica,sans-Serif" font-size="10.00">GUI_CalibType</text>
</g>
<!-- Node2 -->
<g id="node3" class="node"><title>Node2</title>
<a xlink:href="structant_1_1calibration_1_1_t_a_p_s___energy_1_1_g_u_i___gains.html" target="_top" xlink:title="ant::calibration::TAPS\l_Energy::GUI_Gains">
<polygon fill="white" stroke="black" points="129.5,-52 129.5,-86 242.5,-86 242.5,-52 129.5,-52"/>
<text text-anchor="start" x="137.5" y="-73" font-family="Helvetica,sans-Serif" font-size="10.00">ant::calibration::TAPS</text>
<text text-anchor="middle" x="186" y="-60" font-family="Helvetica,sans-Serif" font-size="10.00">_Energy::GUI_Gains</text>
</a>
</g>
<!-- Node1&#45;&gt;Node2 -->
<g id="edge2" class="edge"><title>Node1&#45;&gt;Node2</title>
<path fill="none" stroke="midnightblue" d="M93.9445,-52.3789C105.474,-54.4605 117.748,-56.6768 129.451,-58.7898"/>
<polygon fill="midnightblue" stroke="midnightblue" points="94.5007,-48.9228 84.0379,-50.5902 93.2568,-55.8114 94.5007,-48.9228"/>
</g>
<!-- Node3 -->
<g id="node5" class="node"><title>Node3</title>
<a xlink:href="structant_1_1calibration_1_1_t_a_p_s___short_energy_1_1_g_u_i___gains.html" target="_top" xlink:title="ant::calibration::TAPS\l_ShortEnergy::GUI_Gains">
<polygon fill="white" stroke="black" points="120.5,-0 120.5,-34 251.5,-34 251.5,-0 120.5,-0"/>
<text text-anchor="start" x="128.5" y="-21" font-family="Helvetica,sans-Serif" font-size="10.00">ant::calibration::TAPS</text>
<text text-anchor="middle" x="186" y="-8" font-family="Helvetica,sans-Serif" font-size="10.00">_ShortEnergy::GUI_Gains</text>
</a>
</g>
<!-- Node1&#45;&gt;Node3 -->
<g id="edge4" class="edge"><title>Node1&#45;&gt;Node3</title>
<path fill="none" stroke="midnightblue" d="M93.8894,-33.6311C102.471,-32.0816 111.468,-30.4572 120.335,-28.8562"/>
<polygon fill="midnightblue" stroke="midnightblue" points="93.2568,-30.1886 84.0379,-35.4098 94.5007,-37.0772 93.2568,-30.1886"/>
</g>
</g>
</svg>
