<?xml version="1.0" encoding="UTF-8" standalone="no"?>
<!DOCTYPE svg PUBLIC "-//W3C//DTD SVG 1.1//EN"
 "http://www.w3.org/Graphics/SVG/1.1/DTD/svg11.dtd">
<!-- Generated by graphviz version 2.26.3 (20100126.1600)
 -->
<!-- Title: Graphical Class Hierarchy Pages: 1 -->
<svg width="594pt" height="848pt"
 viewBox="0.00 0.00 594.00 848.00" xmlns="http://www.w3.org/2000/svg" xmlns:xlink="http://www.w3.org/1999/xlink">
<g id="graph1" class="graph" transform="scale(1 1) rotate(0) translate(4 844)">
<title>Graphical Class Hierarchy</title>
<polygon fill="white" stroke="white" points="-4,5 -4,-844 591,-844 591,5 -4,5"/>
<!-- Node1 -->
<g id="node1" class="node"><title>Node1</title>
<a xlink:title="STL class. ">
<polygon fill="white" stroke="#bfbfbf" points="0,-408.5 0,-429.5 78,-429.5 78,-408.5 0,-408.5"/>
<text text-anchor="middle" x="39" y="-416.5" font-family="Helvetica,sans-Serif" font-size="10.00">std::exception</text>
</a>
</g>
<!-- Node2 -->
<g id="node3" class="node"><title>Node2</title>
<a xlink:title="STL class. ">
<polygon fill="white" stroke="#bfbfbf" points="114.5,-408.5 114.5,-429.5 207.5,-429.5 207.5,-408.5 114.5,-408.5"/>
<text text-anchor="middle" x="161" y="-416.5" font-family="Helvetica,sans-Serif" font-size="10.00">std::runtime_error</text>
</a>
</g>
<!-- Node1&#45;&gt;Node2 -->
<g id="edge2" class="edge"><title>Node1&#45;&gt;Node2</title>
<path fill="none" stroke="midnightblue" d="M88.4264,-419C96.9145,-419 105.713,-419 114.131,-419"/>
<polygon fill="midnightblue" stroke="midnightblue" points="88.2731,-415.5 78.2731,-419 88.2731,-422.5 88.2731,-415.5"/>
</g>
<!-- Node3 -->
<g id="node5" class="node"><title>Node3</title>
<a xlink:href="classant_1_1analysis_1_1input_1_1_data_reader_1_1_exception.html" target="_top" xlink:title="ant::analysis::input\l::DataReader::Exception">
<polygon fill="white" stroke="black" points="257.5,-806 257.5,-840 382.5,-840 382.5,-806 257.5,-806"/>
<text text-anchor="start" x="265.5" y="-827" font-family="Helvetica,sans-Serif" font-size="10.00">ant::analysis::input</text>
<text text-anchor="middle" x="320" y="-814" font-family="Helvetica,sans-Serif" font-size="10.00">::DataReader::Exception</text>
</a>
</g>
<!-- Node2&#45;&gt;Node3 -->
<g id="edge4" class="edge"><title>Node2&#45;&gt;Node3</title>
<path fill="none" stroke="midnightblue" d="M162.909,-439.86C169.817,-511.029 195.687,-742.869 244,-797 247.807,-801.266 252.344,-804.832 257.28,-807.813"/>
<polygon fill="midnightblue" stroke="midnightblue" points="166.358,-439.152 161.931,-429.526 159.389,-439.811 166.358,-439.152"/>
</g>
<!-- Node4 -->
<g id="node7" class="node"><title>Node4</title>
<a xlink:href="classant_1_1analysis_1_1_physics_manager_1_1_exception.html" target="_top" xlink:title="ant::analysis::PhysicsManager\l::Exception">
<polygon fill="white" stroke="black" points="244.5,-754 244.5,-788 395.5,-788 395.5,-754 244.5,-754"/>
<text text-anchor="start" x="252.5" y="-775" font-family="Helvetica,sans-Serif" font-size="10.00">ant::analysis::PhysicsManager</text>
<text text-anchor="middle" x="320" y="-762" font-family="Helvetica,sans-Serif" font-size="10.00">::Exception</text>
</a>
</g>
<!-- Node2&#45;&gt;Node4 -->
<g id="edge6" class="edge"><title>Node2&#45;&gt;Node4</title>
<path fill="none" stroke="midnightblue" d="M163.702,-439.881C172.447,-504.461 201.874,-699.347 244,-745 247.121,-748.382 250.7,-751.324 254.567,-753.884"/>
<polygon fill="midnightblue" stroke="midnightblue" points="167.138,-439.171 162.352,-429.719 160.199,-440.093 167.138,-439.171"/>
</g>
<!-- Node5 -->
<g id="node9" class="node"><title>Node5</title>
<a xlink:href="structant_1_1analysis_1_1_physics_registry_1_1_exception.html" target="_top" xlink:title="ant::analysis::PhysicsRegistry\l::Exception">
<polygon fill="white" stroke="black" points="245,-702 245,-736 395,-736 395,-702 245,-702"/>
<text text-anchor="start" x="253" y="-723" font-family="Helvetica,sans-Serif" font-size="10.00">ant::analysis::PhysicsRegistry</text>
<text text-anchor="middle" x="320" y="-710" font-family="Helvetica,sans-Serif" font-size="10.00">::Exception</text>
</a>
</g>
<!-- Node2&#45;&gt;Node5 -->
<g id="edge8" class="edge"><title>Node2&#45;&gt;Node5</title>
<path fill="none" stroke="midnightblue" d="M164.781,-439.871C175.561,-497.268 208,-655.699 244,-693 247.293,-696.412 251.051,-699.376 255.094,-701.951"/>
<polygon fill="midnightblue" stroke="midnightblue" points="168.18,-439.001 162.919,-429.804 161.296,-440.274 168.18,-439.001"/>
</g>
<!-- Node6 -->
<g id="node11" class="node"><title>Node6</title>
<a xlink:href="classant_1_1analysis_1_1slowcontrol_1_1_processor_1_1_exception.html" target="_top" xlink:title="ant::analysis::slowcontrol\l::Processor::Exception">
<polygon fill="white" stroke="black" points="256,-650 256,-684 384,-684 384,-650 256,-650"/>
<text text-anchor="start" x="264" y="-671" font-family="Helvetica,sans-Serif" font-size="10.00">ant::analysis::slowcontrol</text>
<text text-anchor="middle" x="320" y="-658" font-family="Helvetica,sans-Serif" font-size="10.00">::Processor::Exception</text>
</a>
</g>
<!-- Node2&#45;&gt;Node6 -->
<g id="edge10" class="edge"><title>Node2&#45;&gt;Node6</title>
<path fill="none" stroke="midnightblue" d="M162.904,-439.696C167.994,-483.118 185.773,-584.39 244,-641 247.5,-644.402 251.463,-647.36 255.697,-649.932"/>
<polygon fill="midnightblue" stroke="midnightblue" points="166.36,-439.088 161.824,-429.514 159.399,-439.827 166.36,-439.088"/>
</g>
<!-- Node7 -->
<g id="node13" class="node"><title>Node7</title>
<a xlink:href="structant_1_1analysis_1_1utils_1_1_fitter_1_1_exception.html" target="_top" xlink:title="ant::analysis::utils\l::Fitter::Exception">
<polygon fill="white" stroke="black" points="272,-598 272,-632 368,-632 368,-598 272,-598"/>
<text text-anchor="start" x="280" y="-619" font-family="Helvetica,sans-Serif" font-size="10.00">ant::analysis::utils</text>
<text text-anchor="middle" x="320" y="-606" font-family="Helvetica,sans-Serif" font-size="10.00">::Fitter::Exception</text>
</a>
</g>
<!-- Node2&#45;&gt;Node7 -->
<g id="edge12" class="edge"><title>Node2&#45;&gt;Node7</title>
<path fill="none" stroke="midnightblue" d="M165.587,-439.68C174.521,-475.226 197.583,-548.032 244,-589 251.946,-596.013 261.872,-601.154 271.903,-604.916"/>
<polygon fill="midnightblue" stroke="midnightblue" points="168.984,-438.835 163.258,-429.921 162.175,-440.46 168.984,-438.835"/>
</g>
<!-- Node8 -->
<g id="node15" class="node"><title>Node8</title>
<a xlink:href="structant_1_1analysis_1_1utils_1_1_m_c_weighting_1_1_exception.html" target="_top" xlink:title="ant::analysis::utils\l::MCWeighting::Exception">
<polygon fill="white" stroke="black" points="254.5,-546 254.5,-580 385.5,-580 385.5,-546 254.5,-546"/>
<text text-anchor="start" x="262.5" y="-567" font-family="Helvetica,sans-Serif" font-size="10.00">ant::analysis::utils</text>
<text text-anchor="middle" x="320" y="-554" font-family="Helvetica,sans-Serif" font-size="10.00">::MCWeighting::Exception</text>
</a>
</g>
<!-- Node2&#45;&gt;Node8 -->
<g id="edge14" class="edge"><title>Node2&#45;&gt;Node8</title>
<path fill="none" stroke="midnightblue" d="M170.185,-439.155C183.088,-465.317 208.981,-510.724 244,-537 248.462,-540.348 253.385,-543.284 258.516,-545.856"/>
<polygon fill="midnightblue" stroke="midnightblue" points="173.207,-437.361 165.742,-429.843 166.89,-440.376 173.207,-437.361"/>
</g>
<!-- Node9 -->
<g id="node17" class="node"><title>Node9</title>
<a xlink:href="structant_1_1analysis_1_1utils_1_1_uncertainty_model_1_1_exception.html" target="_top" xlink:title="ant::analysis::utils\l::UncertaintyModel::Exception">
<polygon fill="white" stroke="black" points="245.5,-494 245.5,-528 394.5,-528 394.5,-494 245.5,-494"/>
<text text-anchor="start" x="253.5" y="-515" font-family="Helvetica,sans-Serif" font-size="10.00">ant::analysis::utils</text>
<text text-anchor="middle" x="320" y="-502" font-family="Helvetica,sans-Serif" font-size="10.00">::UncertaintyModel::Exception</text>
</a>
</g>
<!-- Node2&#45;&gt;Node9 -->
<g id="edge16" class="edge"><title>Node2&#45;&gt;Node9</title>
<path fill="none" stroke="midnightblue" d="M179.486,-436.794C195.483,-451.397 219.795,-471.754 244,-485 249.994,-488.28 256.478,-491.257 263.045,-493.927"/>
<polygon fill="midnightblue" stroke="midnightblue" points="181.626,-434.005 171.923,-429.751 176.856,-439.127 181.626,-434.005"/>
</g>
<!-- Node10 -->
<g id="node19" class="node"><title>Node10</title>
<a xlink:href="structant_1_1_bin_settings_1_1_exception.html" target="_top" xlink:title="ant::BinSettings::Exception">
<polygon fill="white" stroke="black" points="252,-454.5 252,-475.5 388,-475.5 388,-454.5 252,-454.5"/>
<text text-anchor="middle" x="320" y="-462.5" font-family="Helvetica,sans-Serif" font-size="10.00">ant::BinSettings::Exception</text>
</a>
</g>
<!-- Node2&#45;&gt;Node10 -->
<g id="edge18" class="edge"><title>Node2&#45;&gt;Node10</title>
<path fill="none" stroke="midnightblue" d="M203.264,-432.654C216.29,-436.75 230.703,-441.17 244,-445 255.144,-448.21 267.266,-451.493 278.489,-454.447"/>
<polygon fill="midnightblue" stroke="midnightblue" points="204.204,-429.28 193.614,-429.599 202.092,-435.954 204.204,-429.28"/>
</g>
<!-- Node11 -->
<g id="node21" class="node"><title>Node11</title>
<a xlink:href="classant_1_1calibration_1_1_data_base_1_1_exception.html" target="_top" xlink:title="ant::calibration::DataBase\l::Exception">
<polygon fill="white" stroke="black" points="255,-402 255,-436 385,-436 385,-402 255,-402"/>
<text text-anchor="start" x="263" y="-423" font-family="Helvetica,sans-Serif" font-size="10.00">ant::calibration::DataBase</text>
<text text-anchor="middle" x="320" y="-410" font-family="Helvetica,sans-Serif" font-size="10.00">::Exception</text>
</a>
</g>
<!-- Node2&#45;&gt;Node11 -->
<g id="edge20" class="edge"><title>Node2&#45;&gt;Node11</title>
<path fill="none" stroke="midnightblue" d="M218.119,-419C230.058,-419 242.731,-419 254.934,-419"/>
<polygon fill="midnightblue" stroke="midnightblue" points="217.845,-415.5 207.845,-419 217.845,-422.5 217.845,-415.5"/>
</g>
<!-- Node12 -->
<g id="node23" class="node"><title>Node12</title>
<a xlink:href="classant_1_1_detector__t_1_1_exception.html" target="_top" xlink:title="ant::Detector_t::Exception">
<polygon fill="white" stroke="black" points="254.5,-362.5 254.5,-383.5 385.5,-383.5 385.5,-362.5 254.5,-362.5"/>
<text text-anchor="middle" x="320" y="-370.5" font-family="Helvetica,sans-Serif" font-size="10.00">ant::Detector_t::Exception</text>
</a>
</g>
<!-- Node2&#45;&gt;Node12 -->
<g id="edge22" class="edge"><title>Node2&#45;&gt;Node12</title>
<path fill="none" stroke="#8b1a1a" d="M203.264,-405.346C216.29,-401.25 230.703,-396.83 244,-393 255.144,-389.79 267.266,-386.507 278.489,-383.553"/>
<polygon fill="#8b1a1a" stroke="#8b1a1a" points="202.092,-402.046 193.614,-408.401 204.204,-408.72 202.092,-402.046"/>
</g>
<!-- Node13 -->
<g id="node25" class="node"><title>Node13</title>
<a xlink:href="classant_1_1_exp_config_1_1_exception.html" target="_top" xlink:title="ant::ExpConfig::Exception">
<polygon fill="white" stroke="black" points="254.5,-322.5 254.5,-343.5 385.5,-343.5 385.5,-322.5 254.5,-322.5"/>
<text text-anchor="middle" x="320" y="-330.5" font-family="Helvetica,sans-Serif" font-size="10.00">ant::ExpConfig::Exception</text>
</a>
</g>
<!-- Node2&#45;&gt;Node13 -->
<g id="edge24" class="edge"><title>Node2&#45;&gt;Node13</title>
<path fill="none" stroke="midnightblue" d="M178.71,-401.256C194.549,-386.338 219.052,-365.503 244,-353 251.563,-349.21 259.92,-346.083 268.243,-343.52"/>
<polygon fill="midnightblue" stroke="midnightblue" points="176.028,-398.98 171.261,-408.441 180.888,-404.018 176.028,-398.98"/>
</g>
<!-- Node16 -->
<g id="node31" class="node"><title>Node16</title>
<a xlink:href="structant_1_1_interpolator2_d_1_1_exception.html" target="_top" xlink:title="ant::Interpolator2D\l::Exception">
<polygon fill="white" stroke="black" points="271,-270 271,-304 369,-304 369,-270 271,-270"/>
<text text-anchor="start" x="279" y="-291" font-family="Helvetica,sans-Serif" font-size="10.00">ant::Interpolator2D</text>
<text text-anchor="middle" x="320" y="-278" font-family="Helvetica,sans-Serif" font-size="10.00">::Exception</text>
</a>
</g>
<!-- Node2&#45;&gt;Node16 -->
<g id="edge30" class="edge"><title>Node2&#45;&gt;Node16</title>
<path fill="none" stroke="midnightblue" d="M171.508,-399.523C185.218,-375.854 211.352,-336.212 244,-313 252.069,-307.263 261.509,-302.708 270.937,-299.121"/>
<polygon fill="midnightblue" stroke="midnightblue" points="168.417,-397.88 166.565,-408.311 174.518,-401.311 168.417,-397.88"/>
</g>
<!-- Node17 -->
<g id="node33" class="node"><title>Node17</title>
<a xlink:href="classant_1_1_raw_file_reader_1_1_exception.html" target="_top" xlink:title="ant::RawFileReader\l::Exception">
<polygon fill="white" stroke="black" points="268,-218 268,-252 372,-252 372,-218 268,-218"/>
<text text-anchor="start" x="276" y="-239" font-family="Helvetica,sans-Serif" font-size="10.00">ant::RawFileReader</text>
<text text-anchor="middle" x="320" y="-226" font-family="Helvetica,sans-Serif" font-size="10.00">::Exception</text>
</a>
</g>
<!-- Node2&#45;&gt;Node17 -->
<g id="edge32" class="edge"><title>Node2&#45;&gt;Node17</title>
<path fill="none" stroke="midnightblue" d="M166.41,-398.418C176.256,-364.895 200.238,-298.49 244,-261 250.884,-255.103 259.171,-250.524 267.706,-246.975"/>
<polygon fill="midnightblue" stroke="midnightblue" points="162.931,-397.863 163.605,-408.437 169.672,-399.751 162.931,-397.863"/>
</g>
<!-- Node18 -->
<g id="node35" class="node"><title>Node18</title>
<a xlink:href="classant_1_1_reconstruct_1_1_exception.html" target="_top" xlink:title="ant::Reconstruct::Exception">
<polygon fill="white" stroke="black" points="250.5,-178.5 250.5,-199.5 389.5,-199.5 389.5,-178.5 250.5,-178.5"/>
<text text-anchor="middle" x="320" y="-186.5" font-family="Helvetica,sans-Serif" font-size="10.00">ant::Reconstruct::Exception</text>
</a>
</g>
<!-- Node2&#45;&gt;Node18 -->
<g id="edge34" class="edge"><title>Node2&#45;&gt;Node18</title>
<path fill="none" stroke="midnightblue" d="M163.068,-398.223C168.403,-356.033 186.523,-260.01 244,-209 248.286,-205.196 253.211,-202.102 258.451,-199.588"/>
<polygon fill="midnightblue" stroke="midnightblue" points="159.564,-398.061 161.902,-408.394 166.518,-398.858 159.564,-398.061"/>
</g>
<!-- Node19 -->
<g id="node37" class="node"><title>Node19</title>
<a xlink:href="structant_1_1unpacker_1_1acqu_1_1_file_format_mk1_1_1_exception.html" target="_top" xlink:title="ant::unpacker::acqu\l::FileFormatMk1::Exception">
<polygon fill="white" stroke="black" points="251.5,-126 251.5,-160 388.5,-160 388.5,-126 251.5,-126"/>
<text text-anchor="start" x="259.5" y="-147" font-family="Helvetica,sans-Serif" font-size="10.00">ant::unpacker::acqu</text>
<text text-anchor="middle" x="320" y="-134" font-family="Helvetica,sans-Serif" font-size="10.00">::FileFormatMk1::Exception</text>
</a>
</g>
<!-- Node2&#45;&gt;Node19 -->
<g id="edge36" class="edge"><title>Node2&#45;&gt;Node19</title>
<path fill="none" stroke="midnightblue" d="M161.913,-398.007C165.106,-350.558 179.467,-234.121 244,-169 247.337,-165.632 251.129,-162.7 255.195,-160.148"/>
<polygon fill="midnightblue" stroke="midnightblue" points="158.402,-398.087 161.328,-408.269 165.391,-398.484 158.402,-398.087"/>
</g>
<!-- Node20 -->
<g id="node39" class="node"><title>Node20</title>
<a xlink:href="classant_1_1_unpacker_1_1_exception.html" target="_top" xlink:title="The Exception class is thrown if an unexpected error during unpacking occurs. ">
<polygon fill="white" stroke="black" points="256,-86.5 256,-107.5 384,-107.5 384,-86.5 256,-86.5"/>
<text text-anchor="middle" x="320" y="-94.5" font-family="Helvetica,sans-Serif" font-size="10.00">ant::Unpacker::Exception</text>
</a>
</g>
<!-- Node2&#45;&gt;Node20 -->
<g id="edge38" class="edge"><title>Node2&#45;&gt;Node20</title>
<path fill="none" stroke="midnightblue" d="M163.966,-398.328C173.179,-336.929 203.15,-157.408 244,-117 247.783,-113.258 252.177,-110.192 256.909,-107.683"/>
<polygon fill="midnightblue" stroke="midnightblue" points="160.484,-397.954 162.49,-408.358 167.409,-398.974 160.484,-397.954"/>
</g>
<!-- Node23 -->
<g id="node45" class="node"><title>Node23</title>
<a xlink:href="structant_1_1_wrap_t_file_1_1_exception.html" target="_top" xlink:title="ant::WrapTFile::Exception">
<polygon fill="white" stroke="black" points="254.5,-40.5 254.5,-61.5 385.5,-61.5 385.5,-40.5 254.5,-40.5"/>
<text text-anchor="middle" x="320" y="-48.5" font-family="Helvetica,sans-Serif" font-size="10.00">ant::WrapTFile::Exception</text>
</a>
</g>
<!-- Node2&#45;&gt;Node23 -->
<g id="edge44" class="edge"><title>Node2&#45;&gt;Node23</title>
<path fill="none" stroke="midnightblue" d="M163.398,-398.409C171.512,-332.052 199.913,-125.32 244,-77 250.11,-70.304 258.016,-65.3321 266.413,-61.6405"/>
<polygon fill="midnightblue" stroke="midnightblue" points="159.909,-398.113 162.195,-408.459 166.859,-398.946 159.909,-398.113"/>
</g>
<!-- Node14 -->
<g id="node27" class="node"><title>Node14</title>
<a xlink:href="classant_1_1_exp_config_1_1_exception_no_config.html" target="_top" xlink:title="ant::ExpConfig::Exception\lNoConfig">
<polygon fill="white" stroke="black" points="443.5,-342 443.5,-376 574.5,-376 574.5,-342 443.5,-342"/>
<text text-anchor="start" x="451.5" y="-363" font-family="Helvetica,sans-Serif" font-size="10.00">ant::ExpConfig::Exception</text>
<text text-anchor="middle" x="509" y="-350" font-family="Helvetica,sans-Serif" font-size="10.00">NoConfig</text>
</a>
</g>
<!-- Node13&#45;&gt;Node14 -->
<g id="edge26" class="edge"><title>Node13&#45;&gt;Node14</title>
<path fill="none" stroke="midnightblue" d="M395.772,-343.424C411.481,-345.585 427.908,-347.845 443.223,-349.951"/>
<polygon fill="midnightblue" stroke="midnightblue" points="395.956,-339.916 385.573,-342.021 395.002,-346.851 395.956,-339.916"/>
</g>
<!-- Node15 -->
<g id="node29" class="node"><title>Node15</title>
<a xlink:href="classant_1_1_exp_config_1_1_exception_no_detector.html" target="_top" xlink:title="ant::ExpConfig::Exception\lNoDetector">
<polygon fill="white" stroke="black" points="443.5,-290 443.5,-324 574.5,-324 574.5,-290 443.5,-290"/>
<text text-anchor="start" x="451.5" y="-311" font-family="Helvetica,sans-Serif" font-size="10.00">ant::ExpConfig::Exception</text>
<text text-anchor="middle" x="509" y="-298" font-family="Helvetica,sans-Serif" font-size="10.00">NoDetector</text>
</a>
</g>
<!-- Node13&#45;&gt;Node15 -->
<g id="edge28" class="edge"><title>Node13&#45;&gt;Node15</title>
<path fill="none" stroke="midnightblue" d="M395.772,-322.576C411.481,-320.415 427.908,-318.155 443.223,-316.049"/>
<polygon fill="midnightblue" stroke="midnightblue" points="395.002,-319.149 385.573,-323.979 395.956,-326.084 395.002,-319.149"/>
</g>
<!-- Node21 -->
<g id="node41" class="node"><title>Node21</title>
<a xlink:href="classant_1_1_unpacker_a2_geant_1_1_exception.html" target="_top" xlink:title="ant::UnpackerA2Geant\l::Exception">
<polygon fill="white" stroke="black" points="451,-132 451,-166 567,-166 567,-132 451,-132"/>
<text text-anchor="start" x="459" y="-153" font-family="Helvetica,sans-Serif" font-size="10.00">ant::UnpackerA2Geant</text>
<text text-anchor="middle" x="509" y="-140" font-family="Helvetica,sans-Serif" font-size="10.00">::Exception</text>
</a>
</g>
<!-- Node20&#45;&gt;Node21 -->
<g id="edge40" class="edge"><title>Node20&#45;&gt;Node21</title>
<path fill="none" stroke="midnightblue" d="M370.51,-110.151C379.026,-112.409 387.77,-114.752 396,-117 413.899,-121.889 433.351,-127.346 450.991,-132.349"/>
<polygon fill="midnightblue" stroke="midnightblue" points="371.225,-106.72 360.663,-107.551 369.438,-113.488 371.225,-106.72"/>
</g>
<!-- Node22 -->
<g id="node43" class="node"><title>Node22</title>
<a xlink:href="classant_1_1_unpacker_acqu_1_1_exception.html" target="_top" xlink:title="ant::UnpackerAcqu::\lException">
<polygon fill="white" stroke="black" points="455.5,-80 455.5,-114 562.5,-114 562.5,-80 455.5,-80"/>
<text text-anchor="start" x="463.5" y="-101" font-family="Helvetica,sans-Serif" font-size="10.00">ant::UnpackerAcqu::</text>
<text text-anchor="middle" x="509" y="-88" font-family="Helvetica,sans-Serif" font-size="10.00">Exception</text>
</a>
</g>
<!-- Node20&#45;&gt;Node22 -->
<g id="edge42" class="edge"><title>Node20&#45;&gt;Node22</title>
<path fill="none" stroke="midnightblue" d="M394.423,-97C414.75,-97 436.377,-97 455.302,-97"/>
<polygon fill="midnightblue" stroke="midnightblue" points="394.251,-93.5001 384.251,-97 394.25,-100.5 394.251,-93.5001"/>
</g>
<!-- Node24 -->
<g id="node47" class="node"><title>Node24</title>
<a xlink:href="structant_1_1_wrap_t_file_1_1_e_not_a_root_file.html" target="_top" xlink:title="ant::WrapTFile::ENotARootFile">
<polygon fill="white" stroke="black" points="432.5,-40.5 432.5,-61.5 585.5,-61.5 585.5,-40.5 432.5,-40.5"/>
<text text-anchor="middle" x="509" y="-48.5" font-family="Helvetica,sans-Serif" font-size="10.00">ant::WrapTFile::ENotARootFile</text>
</a>
</g>
<!-- Node23&#45;&gt;Node24 -->
<g id="edge46" class="edge"><title>Node23&#45;&gt;Node24</title>
<path fill="none" stroke="midnightblue" d="M395.575,-51C407.624,-51 420.101,-51 432.179,-51"/>
<polygon fill="midnightblue" stroke="midnightblue" points="395.573,-47.5001 385.573,-51 395.573,-54.5001 395.573,-47.5001"/>
</g>
<!-- Node25 -->
<g id="node49" class="node"><title>Node25</title>
<a xlink:href="structant_1_1_wrap_t_file_1_1_e_not_readable.html" target="_top" xlink:title="ant::WrapTFile::ENotReadable">
<polygon fill="white" stroke="black" points="433.5,-0.5 433.5,-21.5 584.5,-21.5 584.5,-0.5 433.5,-0.5"/>
<text text-anchor="middle" x="509" y="-8.5" font-family="Helvetica,sans-Serif" font-size="10.00">ant::WrapTFile::ENotReadable</text>
</a>
</g>
<!-- Node23&#45;&gt;Node25 -->
<g id="edge48" class="edge"><title>Node23&#45;&gt;Node25</title>
<path fill="none" stroke="midnightblue" d="M379.639,-38.378C405.287,-32.9499 434.919,-26.6785 459.346,-21.5087"/>
<polygon fill="midnightblue" stroke="midnightblue" points="378.716,-34.9957 369.658,-40.4905 380.166,-41.844 378.716,-34.9957"/>
</g>
</g>
</svg>
