<?xml version="1.0" encoding="UTF-8" standalone="no"?>
<!DOCTYPE svg PUBLIC "-//W3C//DTD SVG 1.1//EN"
 "http://www.w3.org/Graphics/SVG/1.1/DTD/svg11.dtd">
<!-- Generated by graphviz version 2.26.3 (20100126.1600)
 -->
<!-- Title: Graphical Class Hierarchy Pages: 1 -->
<svg width="300pt" height="42pt"
 viewBox="0.00 0.00 300.00 42.00" xmlns="http://www.w3.org/2000/svg" xmlns:xlink="http://www.w3.org/1999/xlink">
<g id="graph1" class="graph" transform="scale(1 1) rotate(0) translate(4 38)">
<title>Graphical Class Hierarchy</title>
<polygon fill="white" stroke="white" points="-4,5 -4,-38 297,-38 297,5 -4,5"/>
<!-- Node1 -->
<g id="node1" class="node"><title>Node1</title>
<a xlink:title="STL iterator class. ">
<polygon fill="white" stroke="#bfbfbf" points="0,-0 0,-34 122,-34 122,-0 0,-0"/>
<text text-anchor="start" x="8" y="-21" font-family="Helvetica,sans-Serif" font-size="10.00">std::map&lt; K, T &gt;::const</text>
<text text-anchor="middle" x="61" y="-8" font-family="Helvetica,sans-Serif" font-size="10.00">_iterator</text>
</a>
</g>
<!-- Node2 -->
<g id="node3" class="node"><title>Node2</title>
<a xlink:href="classant_1_1_particle_type_database_1_1const__iterator.html" target="_top" xlink:title="ant::ParticleTypeDatabase\l::const_iterator">
<polygon fill="white" stroke="black" points="158.5,-0 158.5,-34 291.5,-34 291.5,-0 158.5,-0"/>
<text text-anchor="start" x="166.5" y="-21" font-family="Helvetica,sans-Serif" font-size="10.00">ant::ParticleTypeDatabase</text>
<text text-anchor="middle" x="225" y="-8" font-family="Helvetica,sans-Serif" font-size="10.00">::const_iterator</text>
</a>
</g>
<!-- Node1&#45;&gt;Node2 -->
<g id="edge2" class="edge"><title>Node1&#45;&gt;Node2</title>
<path fill="none" stroke="midnightblue" d="M132.181,-17C140.881,-17 149.746,-17 158.376,-17"/>
<polygon fill="midnightblue" stroke="midnightblue" points="132.068,-13.5001 122.068,-17 132.068,-20.5001 132.068,-13.5001"/>
</g>
</g>
</svg>
