<?xml version="1.0" encoding="UTF-8" standalone="no"?>
<!DOCTYPE svg PUBLIC "-//W3C//DTD SVG 1.1//EN"
 "http://www.w3.org/Graphics/SVG/1.1/DTD/svg11.dtd">
<!-- Generated by graphviz version 2.26.3 (20100126.1600)
 -->
<!-- Title: src/analysis/input/event_t.h Pages: 1 -->
<svg width="1824pt" height="260pt"
 viewBox="0.00 0.00 1824.00 260.00" xmlns="http://www.w3.org/2000/svg" xmlns:xlink="http://www.w3.org/1999/xlink">
<g id="graph1" class="graph" transform="scale(1 1) rotate(0) translate(4 256)">
<title>src/analysis/input/event_t.h</title>
<polygon fill="white" stroke="white" points="-4,5 -4,-256 1821,-256 1821,5 -4,5"/>
<!-- Node1 -->
<g id="node1" class="node"><title>Node1</title>
<polygon fill="#bfbfbf" stroke="black" points="1140.5,-217 1140.5,-251 1233.5,-251 1233.5,-217 1140.5,-217"/>
<text text-anchor="start" x="1148.5" y="-238" font-family="Helvetica,sans-Serif" font-size="10.00">src/analysis/input</text>
<text text-anchor="middle" x="1187" y="-225" font-family="Helvetica,sans-Serif" font-size="10.00">/event_t.h</text>
</g>
<!-- Node2 -->
<g id="node3" class="node"><title>Node2</title>
<a xlink:href="_data_reader_8h.html" target="_top" xlink:title="src/analysis/input\l/DataReader.h">
<polygon fill="white" stroke="black" points="716.5,-145 716.5,-179 809.5,-179 809.5,-145 716.5,-145"/>
<text text-anchor="start" x="724.5" y="-166" font-family="Helvetica,sans-Serif" font-size="10.00">src/analysis/input</text>
<text text-anchor="middle" x="763" y="-153" font-family="Helvetica,sans-Serif" font-size="10.00">/DataReader.h</text>
</a>
</g>
<!-- Node1&#45;&gt;Node2 -->
<g id="edge2" class="edge"><title>Node1&#45;&gt;Node2</title>
<path fill="none" stroke="midnightblue" d="M1130.47,-224.401C1045.91,-210.042 888.065,-183.237 809.665,-169.924"/>
<polygon fill="midnightblue" stroke="midnightblue" points="1129.97,-227.865 1140.41,-226.089 1131.14,-220.964 1129.97,-227.865"/>
</g>
<!-- Node18 -->
<g id="node39" class="node"><title>Node18</title>
<a xlink:href="event__t_8cc.html" target="_top" xlink:title="src/analysis/input\l/event_t.cc">
<polygon fill="white" stroke="black" points="1140.5,-145 1140.5,-179 1233.5,-179 1233.5,-145 1140.5,-145"/>
<text text-anchor="start" x="1148.5" y="-166" font-family="Helvetica,sans-Serif" font-size="10.00">src/analysis/input</text>
<text text-anchor="middle" x="1187" y="-153" font-family="Helvetica,sans-Serif" font-size="10.00">/event_t.cc</text>
</a>
</g>
<!-- Node1&#45;&gt;Node18 -->
<g id="edge42" class="edge"><title>Node1&#45;&gt;Node18</title>
<path fill="none" stroke="midnightblue" d="M1187,-206.719C1187,-197.572 1187,-187.625 1187,-179.441"/>
<polygon fill="midnightblue" stroke="midnightblue" points="1183.5,-206.937 1187,-216.937 1190.5,-206.937 1183.5,-206.937"/>
</g>
<!-- Node19 -->
<g id="node41" class="node"><title>Node19</title>
<a xlink:href="slowcontrol_2event__t_8h.html" target="_top" xlink:title="src/analysis/slowcontrol\l/event_t.h">
<polygon fill="white" stroke="black" points="1408,-145 1408,-179 1530,-179 1530,-145 1408,-145"/>
<text text-anchor="start" x="1416" y="-166" font-family="Helvetica,sans-Serif" font-size="10.00">src/analysis/slowcontrol</text>
<text text-anchor="middle" x="1469" y="-153" font-family="Helvetica,sans-Serif" font-size="10.00">/event_t.h</text>
</a>
</g>
<!-- Node1&#45;&gt;Node19 -->
<g id="edge44" class="edge"><title>Node1&#45;&gt;Node19</title>
<path fill="none" stroke="midnightblue" d="M1243.39,-219.601C1290.97,-207.455 1358.93,-190.104 1407.81,-177.624"/>
<polygon fill="midnightblue" stroke="midnightblue" points="1242.39,-216.246 1233.57,-222.111 1244.12,-223.028 1242.39,-216.246"/>
</g>
<!-- Node3 -->
<g id="node5" class="node"><title>Node3</title>
<a xlink:href="_ant_8cc.html" target="_top" xlink:title="Main Ant executable. ">
<polygon fill="white" stroke="black" points="302,-7.5 302,-28.5 374,-28.5 374,-7.5 302,-7.5"/>
<text text-anchor="middle" x="338" y="-15.5" font-family="Helvetica,sans-Serif" font-size="10.00">progs/Ant.cc</text>
</a>
</g>
<!-- Node2&#45;&gt;Node3 -->
<g id="edge4" class="edge"><title>Node2&#45;&gt;Node3</title>
<path fill="none" stroke="midnightblue" d="M706.821,-144.541C632.34,-121.127 497.021,-77.6647 383,-36 376.677,-33.6897 369.912,-31.0655 363.598,-28.5492"/>
<polygon fill="midnightblue" stroke="midnightblue" points="705.888,-147.916 716.477,-147.571 707.984,-141.237 705.888,-147.916"/>
</g>
<!-- Node4 -->
<g id="node7" class="node"><title>Node4</title>
<a xlink:href="_ant_reader_8h.html" target="_top" xlink:title="src/analysis/input\l/ant/AntReader.h">
<polygon fill="white" stroke="black" points="985.5,-73 985.5,-107 1078.5,-107 1078.5,-73 985.5,-73"/>
<text text-anchor="start" x="993.5" y="-94" font-family="Helvetica,sans-Serif" font-size="10.00">src/analysis/input</text>
<text text-anchor="middle" x="1032" y="-81" font-family="Helvetica,sans-Serif" font-size="10.00">/ant/AntReader.h</text>
</a>
</g>
<!-- Node2&#45;&gt;Node4 -->
<g id="edge6" class="edge"><title>Node2&#45;&gt;Node4</title>
<path fill="none" stroke="midnightblue" d="M819.39,-146.907C868.545,-133.75 938.999,-114.892 985.119,-102.548"/>
<polygon fill="midnightblue" stroke="midnightblue" points="818.304,-143.574 809.549,-149.541 820.114,-150.336 818.304,-143.574"/>
</g>
<!-- Node10 -->
<g id="node20" class="node"><title>Node10</title>
<a xlink:href="_goat_reader_8h.html" target="_top" xlink:title="src/analysis/input\l/goat/GoatReader.h">
<polygon fill="white" stroke="black" points="234,-73 234,-107 336,-107 336,-73 234,-73"/>
<text text-anchor="start" x="242" y="-94" font-family="Helvetica,sans-Serif" font-size="10.00">src/analysis/input</text>
<text text-anchor="middle" x="285" y="-81" font-family="Helvetica,sans-Serif" font-size="10.00">/goat/GoatReader.h</text>
</a>
</g>
<!-- Node2&#45;&gt;Node10 -->
<g id="edge20" class="edge"><title>Node2&#45;&gt;Node10</title>
<path fill="none" stroke="midnightblue" d="M706.136,-153.435C612.244,-139.292 426.241,-111.275 336.206,-97.713"/>
<polygon fill="midnightblue" stroke="midnightblue" points="705.887,-156.937 716.297,-154.965 706.93,-150.015 705.887,-156.937"/>
</g>
<!-- Node13 -->
<g id="node27" class="node"><title>Node13</title>
<a xlink:href="_pluto_reader_8h.html" target="_top" xlink:title="src/analysis/input\l/pluto/PlutoReader.h">
<polygon fill="white" stroke="black" points="631,-73 631,-107 737,-107 737,-73 631,-73"/>
<text text-anchor="start" x="639" y="-94" font-family="Helvetica,sans-Serif" font-size="10.00">src/analysis/input</text>
<text text-anchor="middle" x="684" y="-81" font-family="Helvetica,sans-Serif" font-size="10.00">/pluto/PlutoReader.h</text>
</a>
</g>
<!-- Node2&#45;&gt;Node13 -->
<g id="edge28" class="edge"><title>Node2&#45;&gt;Node13</title>
<path fill="none" stroke="midnightblue" d="M736.566,-137.908C725.523,-127.844 712.945,-116.38 702.861,-107.19"/>
<polygon fill="midnightblue" stroke="midnightblue" points="734.53,-140.788 744.278,-144.937 739.245,-135.614 734.53,-140.788"/>
</g>
<!-- Node17 -->
<g id="node37" class="node"><title>Node17</title>
<a xlink:href="_physics_manager_8cc.html" target="_top" xlink:title="src/analysis/physics\l/PhysicsManager.cc">
<polygon fill="white" stroke="black" points="1568,-1 1568,-35 1674,-35 1674,-1 1568,-1"/>
<text text-anchor="start" x="1576" y="-22" font-family="Helvetica,sans-Serif" font-size="10.00">src/analysis/physics</text>
<text text-anchor="middle" x="1621" y="-9" font-family="Helvetica,sans-Serif" font-size="10.00">/PhysicsManager.cc</text>
</a>
</g>
<!-- Node2&#45;&gt;Node17 -->
<g id="edge40" class="edge"><title>Node2&#45;&gt;Node17</title>
<path fill="none" stroke="midnightblue" d="M819.8,-155.497C950.981,-139.939 1284.79,-97.2525 1559,-36 1561.84,-35.3647 1564.75,-34.6728 1567.68,-33.9423"/>
<polygon fill="midnightblue" stroke="midnightblue" points="819.114,-152.054 809.593,-156.702 819.934,-159.006 819.114,-152.054"/>
</g>
<!-- Node4&#45;&gt;Node3 -->
<g id="edge10" class="edge"><title>Node4&#45;&gt;Node3</title>
<path fill="none" stroke="midnightblue" d="M975.053,-86.2339C827.414,-76.332 439.82,-49.4096 383,-36 375.466,-34.2219 367.535,-31.3971 360.466,-28.5076"/>
<polygon fill="midnightblue" stroke="midnightblue" points="975.05,-89.7413 985.261,-86.917 975.517,-82.757 975.05,-89.7413"/>
</g>
<!-- Node5 -->
<g id="node9" class="node"><title>Node5</title>
<a xlink:href="_ant-fake_raw_8cc.html" target="_top" xlink:title="progs/Ant&#45;fakeRaw.cc">
<polygon fill="white" stroke="black" points="1270,-7.5 1270,-28.5 1384,-28.5 1384,-7.5 1270,-7.5"/>
<text text-anchor="middle" x="1327" y="-15.5" font-family="Helvetica,sans-Serif" font-size="10.00">progs/Ant&#45;fakeRaw.cc</text>
</a>
</g>
<!-- Node4&#45;&gt;Node5 -->
<g id="edge8" class="edge"><title>Node4&#45;&gt;Node5</title>
<path fill="none" stroke="midnightblue" d="M1088.48,-77.2567C1134.91,-66.6421 1202.36,-50.9062 1261,-36 1270.21,-33.6593 1280.11,-31.0237 1289.37,-28.5061"/>
<polygon fill="midnightblue" stroke="midnightblue" points="1087.58,-73.8716 1078.61,-79.5081 1089.13,-80.6963 1087.58,-73.8716"/>
</g>
<!-- Node6 -->
<g id="node12" class="node"><title>Node6</title>
<a xlink:href="_ant_reader_8cc.html" target="_top" xlink:title="src/analysis/input\l/ant/AntReader.cc">
<polygon fill="white" stroke="black" points="984,-1 984,-35 1080,-35 1080,-1 984,-1"/>
<text text-anchor="start" x="992" y="-22" font-family="Helvetica,sans-Serif" font-size="10.00">src/analysis/input</text>
<text text-anchor="middle" x="1032" y="-9" font-family="Helvetica,sans-Serif" font-size="10.00">/ant/AntReader.cc</text>
</a>
</g>
<!-- Node4&#45;&gt;Node6 -->
<g id="edge12" class="edge"><title>Node4&#45;&gt;Node6</title>
<path fill="none" stroke="midnightblue" d="M1032,-62.7193C1032,-53.572 1032,-43.6255 1032,-35.4407"/>
<polygon fill="midnightblue" stroke="midnightblue" points="1028.5,-62.937 1032,-72.937 1035.5,-62.937 1028.5,-62.937"/>
</g>
<!-- Node7 -->
<g id="node14" class="node"><title>Node7</title>
<a xlink:href="_test_ant_reader_8cc.html" target="_top" xlink:title="test/analysis/TestAntReader.cc">
<polygon fill="white" stroke="black" points="1097.5,-7.5 1097.5,-28.5 1252.5,-28.5 1252.5,-7.5 1097.5,-7.5"/>
<text text-anchor="middle" x="1175" y="-15.5" font-family="Helvetica,sans-Serif" font-size="10.00">test/analysis/TestAntReader.cc</text>
</a>
</g>
<!-- Node4&#45;&gt;Node7 -->
<g id="edge14" class="edge"><title>Node4&#45;&gt;Node7</title>
<path fill="none" stroke="midnightblue" d="M1074.82,-68.4382C1100.88,-55.3167 1133.04,-39.128 1153.77,-28.688"/>
<polygon fill="midnightblue" stroke="midnightblue" points="1073.25,-65.3137 1065.89,-72.937 1076.39,-71.566 1073.25,-65.3137"/>
</g>
<!-- Node8 -->
<g id="node16" class="node"><title>Node8</title>
<a xlink:href="_test_physics_manager_8cc.html" target="_top" xlink:title="test/analysis/TestPhysics\lManager.cc">
<polygon fill="white" stroke="black" points="836,-1 836,-35 966,-35 966,-1 836,-1"/>
<text text-anchor="start" x="844" y="-22" font-family="Helvetica,sans-Serif" font-size="10.00">test/analysis/TestPhysics</text>
<text text-anchor="middle" x="901" y="-9" font-family="Helvetica,sans-Serif" font-size="10.00">Manager.cc</text>
</a>
</g>
<!-- Node4&#45;&gt;Node8 -->
<g id="edge16" class="edge"><title>Node4&#45;&gt;Node8</title>
<path fill="none" stroke="midnightblue" d="M992.124,-68.0832C972.914,-57.5254 950.214,-45.049 932.276,-35.19"/>
<polygon fill="midnightblue" stroke="midnightblue" points="990.505,-71.1876 1000.95,-72.937 993.877,-65.0531 990.505,-71.1876"/>
</g>
<!-- Node9 -->
<g id="node18" class="node"><title>Node9</title>
<a xlink:href="_test_slow_control_manager_8cc.html" target="_top" xlink:title="test/analysis/TestSlowControl\lManager.cc">
<polygon fill="white" stroke="black" points="1402,-1 1402,-35 1550,-35 1550,-1 1402,-1"/>
<text text-anchor="start" x="1410" y="-22" font-family="Helvetica,sans-Serif" font-size="10.00">test/analysis/TestSlowControl</text>
<text text-anchor="middle" x="1476" y="-9" font-family="Helvetica,sans-Serif" font-size="10.00">Manager.cc</text>
</a>
</g>
<!-- Node4&#45;&gt;Node9 -->
<g id="edge18" class="edge"><title>Node4&#45;&gt;Node9</title>
<path fill="none" stroke="midnightblue" d="M1088.71,-82.679C1159.97,-73.2135 1285.91,-55.6007 1393,-36 1395.9,-35.4691 1398.85,-34.9113 1401.84,-34.334"/>
<polygon fill="midnightblue" stroke="midnightblue" points="1088.06,-79.2348 1078.6,-84.0157 1088.98,-86.1743 1088.06,-79.2348"/>
</g>
<!-- Node10&#45;&gt;Node3 -->
<g id="edge22" class="edge"><title>Node10&#45;&gt;Node3</title>
<path fill="none" stroke="midnightblue" d="M303.543,-64.8096C312.584,-52.5279 322.986,-38.3961 329.976,-28.901"/>
<polygon fill="midnightblue" stroke="midnightblue" points="300.67,-62.8087 297.56,-72.937 306.307,-66.9585 300.67,-62.8087"/>
</g>
<!-- Node11 -->
<g id="node23" class="node"><title>Node11</title>
<a xlink:href="_goat_reader_8cc.html" target="_top" xlink:title="src/analysis/input\l/goat/GoatReader.cc">
<polygon fill="white" stroke="black" points="177.5,-1 177.5,-35 284.5,-35 284.5,-1 177.5,-1"/>
<text text-anchor="start" x="185.5" y="-22" font-family="Helvetica,sans-Serif" font-size="10.00">src/analysis/input</text>
<text text-anchor="middle" x="231" y="-9" font-family="Helvetica,sans-Serif" font-size="10.00">/goat/GoatReader.cc</text>
</a>
</g>
<!-- Node10&#45;&gt;Node11 -->
<g id="edge24" class="edge"><title>Node10&#45;&gt;Node11</title>
<path fill="none" stroke="midnightblue" d="M266.094,-64.7923C258.822,-55.0958 250.686,-44.2482 244.081,-35.4407"/>
<polygon fill="midnightblue" stroke="midnightblue" points="263.403,-67.037 272.203,-72.937 269.003,-62.837 263.403,-67.037"/>
</g>
<!-- Node12 -->
<g id="node25" class="node"><title>Node12</title>
<a xlink:href="_test_goat_reader_8cc.html" target="_top" xlink:title="test/analysis/TestGoatReader.cc">
<polygon fill="white" stroke="black" points="-0.5,-7.5 -0.5,-28.5 160.5,-28.5 160.5,-7.5 -0.5,-7.5"/>
<text text-anchor="middle" x="80" y="-15.5" font-family="Helvetica,sans-Serif" font-size="10.00">test/analysis/TestGoatReader.cc</text>
</a>
</g>
<!-- Node10&#45;&gt;Node12 -->
<g id="edge26" class="edge"><title>Node10&#45;&gt;Node12</title>
<path fill="none" stroke="midnightblue" d="M226.98,-69.6223C188.933,-56.2593 140.741,-39.3334 110.13,-28.5821"/>
<polygon fill="midnightblue" stroke="midnightblue" points="225.823,-72.9254 236.418,-72.937 228.143,-66.3209 225.823,-72.9254"/>
</g>
<!-- Node13&#45;&gt;Node3 -->
<g id="edge30" class="edge"><title>Node13&#45;&gt;Node3</title>
<path fill="none" stroke="midnightblue" d="M620.551,-80.1702C545.888,-68.3305 426.566,-48.481 383,-36 376.044,-34.0071 368.682,-31.3218 361.974,-28.6342"/>
<polygon fill="midnightblue" stroke="midnightblue" points="620.353,-83.6823 630.777,-81.786 621.446,-76.7681 620.353,-83.6823"/>
</g>
<!-- Node13&#45;&gt;Node8 -->
<g id="edge36" class="edge"><title>Node13&#45;&gt;Node8</title>
<path fill="none" stroke="midnightblue" d="M744.96,-69.7736C777.929,-58.8347 818.197,-45.4739 849.568,-35.0651"/>
<polygon fill="midnightblue" stroke="midnightblue" points="743.815,-66.4659 735.426,-72.937 746.019,-73.1097 743.815,-66.4659"/>
</g>
<!-- Node14 -->
<g id="node30" class="node"><title>Node14</title>
<a xlink:href="_pluto_reader_8cc.html" target="_top" xlink:title="src/analysis/input\l/pluto/PlutoReader.cc">
<polygon fill="white" stroke="black" points="559.5,-1 559.5,-35 670.5,-35 670.5,-1 559.5,-1"/>
<text text-anchor="start" x="567.5" y="-22" font-family="Helvetica,sans-Serif" font-size="10.00">src/analysis/input</text>
<text text-anchor="middle" x="615" y="-9" font-family="Helvetica,sans-Serif" font-size="10.00">/pluto/PlutoReader.cc</text>
</a>
</g>
<!-- Node13&#45;&gt;Node14 -->
<g id="edge32" class="edge"><title>Node13&#45;&gt;Node14</title>
<path fill="none" stroke="midnightblue" d="M660.684,-65.6706C651.182,-55.7551 640.41,-44.5151 631.714,-35.4407"/>
<polygon fill="midnightblue" stroke="midnightblue" points="658.202,-68.1388 667.648,-72.937 663.256,-63.2954 658.202,-68.1388"/>
</g>
<!-- Node15 -->
<g id="node32" class="node"><title>Node15</title>
<a xlink:href="_test_fitter_8cc.html" target="_top" xlink:title="test/analysis/TestFitter.cc">
<polygon fill="white" stroke="black" points="687.5,-7.5 687.5,-28.5 818.5,-28.5 818.5,-7.5 687.5,-7.5"/>
<text text-anchor="middle" x="753" y="-15.5" font-family="Helvetica,sans-Serif" font-size="10.00">test/analysis/TestFitter.cc</text>
</a>
</g>
<!-- Node13&#45;&gt;Node15 -->
<g id="edge34" class="edge"><title>Node13&#45;&gt;Node15</title>
<path fill="none" stroke="midnightblue" d="M707.464,-65.5161C719.388,-53.0732 733.279,-38.5787 742.553,-28.901"/>
<polygon fill="midnightblue" stroke="midnightblue" points="704.744,-63.2954 700.352,-72.937 709.798,-68.1388 704.744,-63.2954"/>
</g>
<!-- Node16 -->
<g id="node35" class="node"><title>Node16</title>
<a xlink:href="_test_tree_fitter_8cc.html" target="_top" xlink:title="test/analysis/TestTreeFitter.cc">
<polygon fill="white" stroke="black" points="392,-7.5 392,-28.5 542,-28.5 542,-7.5 392,-7.5"/>
<text text-anchor="middle" x="467" y="-15.5" font-family="Helvetica,sans-Serif" font-size="10.00">test/analysis/TestTreeFitter.cc</text>
</a>
</g>
<!-- Node13&#45;&gt;Node16 -->
<g id="edge38" class="edge"><title>Node13&#45;&gt;Node16</title>
<path fill="none" stroke="midnightblue" d="M622.84,-69.7072C582.526,-56.3311 531.365,-39.3562 498.893,-28.5821"/>
<polygon fill="midnightblue" stroke="midnightblue" points="621.981,-73.1097 632.574,-72.937 624.185,-66.4659 621.981,-73.1097"/>
</g>
<!-- Node20 -->
<g id="node43" class="node"><title>Node20</title>
<a xlink:href="_slow_control_manager_8h.html" target="_top" xlink:title="src/analysis/slowcontrol\l/SlowControlManager.h">
<polygon fill="white" stroke="black" points="1487,-73 1487,-107 1609,-107 1609,-73 1487,-73"/>
<text text-anchor="start" x="1495" y="-94" font-family="Helvetica,sans-Serif" font-size="10.00">src/analysis/slowcontrol</text>
<text text-anchor="middle" x="1548" y="-81" font-family="Helvetica,sans-Serif" font-size="10.00">/SlowControlManager.h</text>
</a>
</g>
<!-- Node19&#45;&gt;Node20 -->
<g id="edge46" class="edge"><title>Node19&#45;&gt;Node20</title>
<path fill="none" stroke="midnightblue" d="M1495.43,-137.908C1506.48,-127.844 1519.06,-116.38 1529.14,-107.19"/>
<polygon fill="midnightblue" stroke="midnightblue" points="1492.76,-135.614 1487.72,-144.937 1497.47,-140.788 1492.76,-135.614"/>
</g>
<!-- Node20&#45;&gt;Node9 -->
<g id="edge52" class="edge"><title>Node20&#45;&gt;Node9</title>
<path fill="none" stroke="midnightblue" d="M1523.67,-65.6706C1513.76,-55.7551 1502.52,-44.5151 1493.44,-35.4407"/>
<polygon fill="midnightblue" stroke="midnightblue" points="1521.39,-68.3408 1530.94,-72.937 1526.34,-63.391 1521.39,-68.3408"/>
</g>
<!-- Node20&#45;&gt;Node17 -->
<g id="edge48" class="edge"><title>Node20&#45;&gt;Node17</title>
<path fill="none" stroke="midnightblue" d="M1572.43,-65.9083C1582.63,-55.8438 1594.25,-44.3799 1603.57,-35.19"/>
<polygon fill="midnightblue" stroke="midnightblue" points="1569.96,-63.4229 1565.3,-72.937 1574.88,-68.4067 1569.96,-63.4229"/>
</g>
<!-- Node21 -->
<g id="node46" class="node"><title>Node21</title>
<a xlink:href="_slow_control_manager_8cc.html" target="_top" xlink:title="src/analysis/slowcontrol\l/SlowControlManager.cc">
<polygon fill="white" stroke="black" points="1692,-1 1692,-35 1816,-35 1816,-1 1692,-1"/>
<text text-anchor="start" x="1700" y="-22" font-family="Helvetica,sans-Serif" font-size="10.00">src/analysis/slowcontrol</text>
<text text-anchor="middle" x="1754" y="-9" font-family="Helvetica,sans-Serif" font-size="10.00">/SlowControlManager.cc</text>
</a>
</g>
<!-- Node20&#45;&gt;Node21 -->
<g id="edge50" class="edge"><title>Node20&#45;&gt;Node21</title>
<path fill="none" stroke="midnightblue" d="M1606.27,-69.6326C1637.5,-58.7201 1675.52,-45.4292 1705.17,-35.0651"/>
<polygon fill="midnightblue" stroke="midnightblue" points="1605.1,-66.3335 1596.82,-72.937 1607.41,-72.9415 1605.1,-66.3335"/>
</g>
</g>
</svg>
