<?xml version="1.0" encoding="UTF-8" standalone="no"?>
<!DOCTYPE svg PUBLIC "-//W3C//DTD SVG 1.1//EN"
 "http://www.w3.org/Graphics/SVG/1.1/DTD/svg11.dtd">
<!-- Generated by graphviz version 2.26.3 (20100126.1600)
 -->
<!-- Title: src/base/std_ext/iterators.h Pages: 1 -->
<svg width="654pt" height="102pt"
 viewBox="0.00 0.00 654.00 102.00" xmlns="http://www.w3.org/2000/svg" xmlns:xlink="http://www.w3.org/1999/xlink">
<g id="graph1" class="graph" transform="scale(1 1) rotate(0) translate(4 98)">
<title>src/base/std_ext/iterators.h</title>
<polygon fill="white" stroke="white" points="-4,5 -4,-98 651,-98 651,5 -4,5"/>
<!-- Node1 -->
<g id="node1" class="node"><title>Node1</title>
<polygon fill="#bfbfbf" stroke="black" points="277,-72.5 277,-93.5 413,-93.5 413,-72.5 277,-72.5"/>
<text text-anchor="middle" x="345" y="-80.5" font-family="Helvetica,sans-Serif" font-size="10.00">src/base/std_ext/iterators.h</text>
</g>
<!-- Node2 -->
<g id="node3" class="node"><title>Node2</title>
<a xlink:href="_ant-calib-viewer_8cc.html" target="_top" xlink:title="progs/Ant&#45;calib&#45;viewer.cc">
<polygon fill="white" stroke="black" points="-0.5,-7.5 -0.5,-28.5 126.5,-28.5 126.5,-7.5 -0.5,-7.5"/>
<text text-anchor="middle" x="63" y="-15.5" font-family="Helvetica,sans-Serif" font-size="10.00">progs/Ant&#45;calib&#45;viewer.cc</text>
</a>
</g>
<!-- Node1&#45;&gt;Node2 -->
<g id="edge2" class="edge"><title>Node1&#45;&gt;Node2</title>
<path fill="none" stroke="midnightblue" d="M286.304,-70.2715C244.142,-61.029 185.989,-48.0776 135,-36 125.095,-33.6539 114.447,-31.0416 104.457,-28.5509"/>
<polygon fill="midnightblue" stroke="midnightblue" points="285.606,-73.7016 296.123,-72.4204 287.103,-66.8635 285.606,-73.7016"/>
</g>
<!-- Node3 -->
<g id="node5" class="node"><title>Node3</title>
<a xlink:href="process_etap_tree_8cc.html" target="_top" xlink:title="progs/processEtapTree.cc">
<polygon fill="white" stroke="black" points="143.5,-7.5 143.5,-28.5 274.5,-28.5 274.5,-7.5 143.5,-7.5"/>
<text text-anchor="middle" x="209" y="-15.5" font-family="Helvetica,sans-Serif" font-size="10.00">progs/processEtapTree.cc</text>
</a>
</g>
<!-- Node1&#45;&gt;Node3 -->
<g id="edge4" class="edge"><title>Node1&#45;&gt;Node3</title>
<path fill="none" stroke="midnightblue" d="M313.688,-68.0348C288.442,-55.9686 253.566,-39.2997 231.144,-28.5835"/>
<polygon fill="midnightblue" stroke="midnightblue" points="312.315,-71.2576 322.847,-72.412 315.333,-64.9418 312.315,-71.2576"/>
</g>
<!-- Node4 -->
<g id="node7" class="node"><title>Node4</title>
<a xlink:href="show__cocktail__database_8cc.html" target="_top" xlink:title="progs/show_cocktail\l_database.cc">
<polygon fill="white" stroke="black" points="292,-1 292,-35 398,-35 398,-1 292,-1"/>
<text text-anchor="start" x="300" y="-22" font-family="Helvetica,sans-Serif" font-size="10.00">progs/show_cocktail</text>
<text text-anchor="middle" x="345" y="-9" font-family="Helvetica,sans-Serif" font-size="10.00">_database.cc</text>
</a>
</g>
<!-- Node1&#45;&gt;Node4 -->
<g id="edge6" class="edge"><title>Node1&#45;&gt;Node4</title>
<path fill="none" stroke="midnightblue" d="M345,-62.1306C345,-53.4049 345,-43.3908 345,-35.1099"/>
<polygon fill="midnightblue" stroke="midnightblue" points="341.5,-62.2665 345,-72.2666 348.5,-62.2666 341.5,-62.2665"/>
</g>
<!-- Node5 -->
<g id="node9" class="node"><title>Node5</title>
<a xlink:href="omega_8cc.html" target="_top" xlink:title="src/analysis/physics\l/omega/omega.cc">
<polygon fill="white" stroke="black" points="416,-1 416,-35 522,-35 522,-1 416,-1"/>
<text text-anchor="start" x="424" y="-22" font-family="Helvetica,sans-Serif" font-size="10.00">src/analysis/physics</text>
<text text-anchor="middle" x="469" y="-9" font-family="Helvetica,sans-Serif" font-size="10.00">/omega/omega.cc</text>
</a>
</g>
<!-- Node1&#45;&gt;Node5 -->
<g id="edge8" class="edge"><title>Node1&#45;&gt;Node5</title>
<path fill="none" stroke="midnightblue" d="M374.108,-67.7416C392.727,-57.9816 416.917,-45.3017 436.213,-35.1869"/>
<polygon fill="midnightblue" stroke="midnightblue" points="372.431,-64.6692 365.199,-72.412 375.681,-70.8691 372.431,-64.6692"/>
</g>
<!-- Node6 -->
<g id="node11" class="node"><title>Node6</title>
<a xlink:href="pi0eta_8cc.html" target="_top" xlink:title="src/analysis/physics\l/omega/pi0eta.cc">
<polygon fill="white" stroke="black" points="540,-1 540,-35 646,-35 646,-1 540,-1"/>
<text text-anchor="start" x="548" y="-22" font-family="Helvetica,sans-Serif" font-size="10.00">src/analysis/physics</text>
<text text-anchor="middle" x="593" y="-9" font-family="Helvetica,sans-Serif" font-size="10.00">/omega/pi0eta.cc</text>
</a>
</g>
<!-- Node1&#45;&gt;Node6 -->
<g id="edge10" class="edge"><title>Node1&#45;&gt;Node6</title>
<path fill="none" stroke="midnightblue" d="M398.831,-69.9269C436.041,-60.7609 486.634,-48.0416 531,-36 533.921,-35.2073 536.915,-34.3816 539.935,-33.5386"/>
<polygon fill="midnightblue" stroke="midnightblue" points="397.583,-66.6293 388.707,-72.4144 399.254,-73.4271 397.583,-66.6293"/>
</g>
</g>
</svg>
