<?xml version="1.0" encoding="UTF-8" standalone="no"?>
<!DOCTYPE svg PUBLIC "-//W3C//DTD SVG 1.1//EN"
 "http://www.w3.org/Graphics/SVG/1.1/DTD/svg11.dtd">
<!-- Generated by graphviz version 2.26.3 (20100126.1600)
 -->
<!-- Title: src/analysis/utils/matcher.h Pages: 1 -->
<svg width="573pt" height="218pt"
 viewBox="0.00 0.00 573.00 218.00" xmlns="http://www.w3.org/2000/svg" xmlns:xlink="http://www.w3.org/1999/xlink">
<g id="graph1" class="graph" transform="scale(1 1) rotate(0) translate(4 214)">
<title>src/analysis/utils/matcher.h</title>
<polygon fill="white" stroke="white" points="-4,5 -4,-214 570,-214 570,5 -4,5"/>
<!-- Node1 -->
<g id="node1" class="node"><title>Node1</title>
<polygon fill="#bfbfbf" stroke="black" points="132,-175 132,-209 222,-209 222,-175 132,-175"/>
<text text-anchor="start" x="140" y="-196" font-family="Helvetica,sans-Serif" font-size="10.00">src/analysis/utils</text>
<text text-anchor="middle" x="177" y="-183" font-family="Helvetica,sans-Serif" font-size="10.00">/matcher.h</text>
</g>
<!-- Node2 -->
<g id="node3" class="node"><title>Node2</title>
<polygon fill="white" stroke="#bfbfbf" points="-0.5,-116.5 -0.5,-137.5 28.5,-137.5 28.5,-116.5 -0.5,-116.5"/>
<text text-anchor="middle" x="14" y="-124.5" font-family="Helvetica,sans-Serif" font-size="10.00">list</text>
</g>
<!-- Node1&#45;&gt;Node2 -->
<g id="edge2" class="edge"><title>Node1&#45;&gt;Node2</title>
<path fill="none" stroke="midnightblue" d="M134.174,-174.922C103.5,-162.69 63.3113,-146.664 38.0687,-136.598"/>
<polygon fill="midnightblue" stroke="midnightblue" points="39.1354,-133.255 28.5503,-132.802 36.5425,-139.757 39.1354,-133.255"/>
</g>
<!-- Node3 -->
<g id="node5" class="node"><title>Node3</title>
<polygon fill="white" stroke="#bfbfbf" points="7,-58.5 7,-79.5 51,-79.5 51,-58.5 7,-58.5"/>
<text text-anchor="middle" x="29" y="-66.5" font-family="Helvetica,sans-Serif" font-size="10.00">vector</text>
</g>
<!-- Node1&#45;&gt;Node3 -->
<g id="edge4" class="edge"><title>Node1&#45;&gt;Node3</title>
<path fill="none" stroke="midnightblue" d="M133.816,-174.961C114.416,-165.915 92.0959,-153.449 75,-138 59.403,-123.905 46.6332,-103.442 38.5397,-88.4596"/>
<polygon fill="midnightblue" stroke="midnightblue" points="41.6207,-86.7979 33.9136,-79.528 35.4049,-90.0174 41.6207,-86.7979"/>
</g>
<!-- Node4 -->
<g id="node7" class="node"><title>Node4</title>
<polygon fill="white" stroke="#bfbfbf" points="131,-58.5 131,-79.5 187,-79.5 187,-58.5 131,-58.5"/>
<text text-anchor="middle" x="159" y="-66.5" font-family="Helvetica,sans-Serif" font-size="10.00">algorithm</text>
</g>
<!-- Node1&#45;&gt;Node4 -->
<g id="edge6" class="edge"><title>Node1&#45;&gt;Node4</title>
<path fill="none" stroke="midnightblue" d="M188.173,-174.874C196.859,-159.323 206.304,-135.853 199,-116 195.004,-105.14 187.261,-95.0779 179.643,-87.0736"/>
<polygon fill="midnightblue" stroke="midnightblue" points="181.806,-84.2934 172.21,-79.8019 176.911,-89.297 181.806,-84.2934"/>
</g>
<!-- Node5 -->
<g id="node9" class="node"><title>Node5</title>
<a xlink:href="interval_8h.html" target="_top" xlink:title="base/interval.h">
<polygon fill="white" stroke="black" points="284,-116.5 284,-137.5 364,-137.5 364,-116.5 284,-116.5"/>
<text text-anchor="middle" x="324" y="-124.5" font-family="Helvetica,sans-Serif" font-size="10.00">base/interval.h</text>
</a>
</g>
<!-- Node1&#45;&gt;Node5 -->
<g id="edge8" class="edge"><title>Node1&#45;&gt;Node5</title>
<path fill="none" stroke="midnightblue" d="M215.623,-174.922C238.89,-164.634 268.228,-151.661 290.51,-141.809"/>
<polygon fill="midnightblue" stroke="midnightblue" points="292.165,-144.904 299.896,-137.658 289.334,-138.501 292.165,-144.904"/>
</g>
<!-- Node11 -->
<g id="node22" class="node"><title>Node11</title>
<polygon fill="white" stroke="#bfbfbf" points="281,-58.5 281,-79.5 321,-79.5 321,-58.5 281,-58.5"/>
<text text-anchor="middle" x="301" y="-66.5" font-family="Helvetica,sans-Serif" font-size="10.00">limits</text>
</g>
<!-- Node1&#45;&gt;Node11 -->
<g id="edge38" class="edge"><title>Node1&#45;&gt;Node11</title>
<path fill="none" stroke="midnightblue" d="M194.242,-174.897C217.559,-151.768 258.961,-110.7 282.775,-87.0783"/>
<polygon fill="midnightblue" stroke="midnightblue" points="285.49,-89.3148 290.125,-79.7875 280.56,-84.345 285.49,-89.3148"/>
</g>
<!-- Node13 -->
<g id="node26" class="node"><title>Node13</title>
<a xlink:href="math_8h.html" target="_top" xlink:title="base/std_ext/math.h">
<polygon fill="white" stroke="black" points="84,-116.5 84,-137.5 190,-137.5 190,-116.5 84,-116.5"/>
<text text-anchor="middle" x="137" y="-124.5" font-family="Helvetica,sans-Serif" font-size="10.00">base/std_ext/math.h</text>
</a>
</g>
<!-- Node1&#45;&gt;Node13 -->
<g id="edge26" class="edge"><title>Node1&#45;&gt;Node13</title>
<path fill="none" stroke="midnightblue" d="M166.49,-174.922C161.13,-166.212 154.587,-155.578 149.026,-146.542"/>
<polygon fill="midnightblue" stroke="midnightblue" points="151.9,-144.534 143.678,-137.852 145.938,-148.203 151.9,-144.534"/>
</g>
<!-- Node5&#45;&gt;Node4 -->
<g id="edge18" class="edge"><title>Node5&#45;&gt;Node4</title>
<path fill="none" stroke="midnightblue" d="M294.12,-116.497C266.753,-106.877 226.127,-92.5962 196.571,-82.2069"/>
<polygon fill="midnightblue" stroke="midnightblue" points="197.602,-78.8594 187.008,-78.8451 195.281,-85.4633 197.602,-78.8594"/>
</g>
<!-- Node6 -->
<g id="node11" class="node"><title>Node6</title>
<a xlink:href="printable_8h.html" target="_top" xlink:title="printable.h">
<polygon fill="white" stroke="black" points="471,-58.5 471,-79.5 533,-79.5 533,-58.5 471,-58.5"/>
<text text-anchor="middle" x="502" y="-66.5" font-family="Helvetica,sans-Serif" font-size="10.00">printable.h</text>
</a>
</g>
<!-- Node5&#45;&gt;Node6 -->
<g id="edge10" class="edge"><title>Node5&#45;&gt;Node6</title>
<path fill="none" stroke="midnightblue" d="M356.234,-116.497C385.615,-106.923 429.16,-92.7343 461.005,-82.358"/>
<polygon fill="midnightblue" stroke="midnightblue" points="462.477,-85.5596 470.9,-79.1337 460.308,-78.904 462.477,-85.5596"/>
</g>
<!-- Node9 -->
<g id="node17" class="node"><title>Node9</title>
<a xlink:href="types_8h.html" target="_top" xlink:title="types.h">
<polygon fill="white" stroke="black" points="338.5,-58.5 338.5,-79.5 387.5,-79.5 387.5,-58.5 338.5,-58.5"/>
<text text-anchor="middle" x="363" y="-66.5" font-family="Helvetica,sans-Serif" font-size="10.00">types.h</text>
</a>
</g>
<!-- Node5&#45;&gt;Node9 -->
<g id="edge16" class="edge"><title>Node5&#45;&gt;Node9</title>
<path fill="none" stroke="midnightblue" d="M331.153,-116.362C336.486,-108.431 343.911,-97.3885 350.251,-87.9606"/>
<polygon fill="midnightblue" stroke="midnightblue" points="353.217,-89.8221 355.892,-79.5707 347.408,-85.9161 353.217,-89.8221"/>
</g>
<!-- Node10 -->
<g id="node20" class="node"><title>Node10</title>
<polygon fill="white" stroke="#bfbfbf" points="204.5,-58.5 204.5,-79.5 263.5,-79.5 263.5,-58.5 204.5,-58.5"/>
<text text-anchor="middle" x="234" y="-66.5" font-family="Helvetica,sans-Serif" font-size="10.00">stdexcept</text>
</g>
<!-- Node5&#45;&gt;Node10 -->
<g id="edge20" class="edge"><title>Node5&#45;&gt;Node10</title>
<path fill="none" stroke="midnightblue" d="M307.493,-116.362C293.918,-107.614 274.467,-95.0786 258.985,-85.1015"/>
<polygon fill="midnightblue" stroke="midnightblue" points="260.704,-82.0457 250.403,-79.5707 256.912,-87.9297 260.704,-82.0457"/>
</g>
<!-- Node5&#45;&gt;Node11 -->
<g id="edge22" class="edge"><title>Node5&#45;&gt;Node11</title>
<path fill="none" stroke="midnightblue" d="M319.781,-116.362C316.766,-108.758 312.617,-98.294 308.985,-89.1349"/>
<polygon fill="midnightblue" stroke="midnightblue" points="312.132,-87.5762 305.192,-79.5707 305.625,-90.1567 312.132,-87.5762"/>
</g>
<!-- Node12 -->
<g id="node24" class="node"><title>Node12</title>
<polygon fill="white" stroke="#bfbfbf" points="404.5,-58.5 404.5,-79.5 453.5,-79.5 453.5,-58.5 404.5,-58.5"/>
<text text-anchor="middle" x="429" y="-66.5" font-family="Helvetica,sans-Serif" font-size="10.00">istream</text>
</g>
<!-- Node5&#45;&gt;Node12 -->
<g id="edge24" class="edge"><title>Node5&#45;&gt;Node12</title>
<path fill="none" stroke="midnightblue" d="M343.259,-116.362C359.466,-107.409 382.853,-94.4908 401.109,-84.4064"/>
<polygon fill="midnightblue" stroke="midnightblue" points="402.802,-87.4696 409.863,-79.5707 399.418,-81.3422 402.802,-87.4696"/>
</g>
<!-- Node7 -->
<g id="node13" class="node"><title>Node7</title>
<polygon fill="white" stroke="#bfbfbf" points="433,-0.5 433,-21.5 495,-21.5 495,-0.5 433,-0.5"/>
<text text-anchor="middle" x="464" y="-8.5" font-family="Helvetica,sans-Serif" font-size="10.00">type_traits</text>
</g>
<!-- Node6&#45;&gt;Node7 -->
<g id="edge12" class="edge"><title>Node6&#45;&gt;Node7</title>
<path fill="none" stroke="midnightblue" d="M495.03,-58.3619C489.834,-50.4313 482.599,-39.3885 476.422,-29.9606"/>
<polygon fill="midnightblue" stroke="midnightblue" points="479.334,-28.0172 470.926,-21.5707 473.478,-31.8534 479.334,-28.0172"/>
</g>
<!-- Node8 -->
<g id="node15" class="node"><title>Node8</title>
<polygon fill="white" stroke="#bfbfbf" points="513,-0.5 513,-21.5 565,-21.5 565,-0.5 513,-0.5"/>
<text text-anchor="middle" x="539" y="-8.5" font-family="Helvetica,sans-Serif" font-size="10.00">ostream</text>
</g>
<!-- Node6&#45;&gt;Node8 -->
<g id="edge14" class="edge"><title>Node6&#45;&gt;Node8</title>
<path fill="none" stroke="midnightblue" d="M508.786,-58.3619C513.793,-50.5131 520.745,-39.6159 526.718,-30.2527"/>
<polygon fill="midnightblue" stroke="midnightblue" points="529.829,-31.8837 532.257,-21.5707 523.928,-28.1189 529.829,-31.8837"/>
</g>
<!-- Node13&#45;&gt;Node3 -->
<g id="edge32" class="edge"><title>Node13&#45;&gt;Node3</title>
<path fill="none" stroke="midnightblue" d="M117.442,-116.497C100.802,-107.56 76.6726,-94.602 57.8197,-84.4772"/>
<polygon fill="midnightblue" stroke="midnightblue" points="59.2434,-81.2691 48.7774,-79.6212 55.9314,-87.436 59.2434,-81.2691"/>
</g>
<!-- Node13&#45;&gt;Node4 -->
<g id="edge34" class="edge"><title>Node13&#45;&gt;Node4</title>
<path fill="none" stroke="midnightblue" d="M141.035,-116.362C143.919,-108.758 147.888,-98.294 151.363,-89.1349"/>
<polygon fill="midnightblue" stroke="midnightblue" points="154.716,-90.1619 154.99,-79.5707 148.171,-87.6793 154.716,-90.1619"/>
</g>
<!-- Node13&#45;&gt;Node10 -->
<g id="edge36" class="edge"><title>Node13&#45;&gt;Node10</title>
<path fill="none" stroke="midnightblue" d="M154.791,-116.362C169.559,-107.532 190.778,-94.844 207.538,-84.8224"/>
<polygon fill="midnightblue" stroke="midnightblue" points="209.535,-87.7066 216.321,-79.5707 205.943,-81.6987 209.535,-87.7066"/>
</g>
<!-- Node13&#45;&gt;Node11 -->
<g id="edge30" class="edge"><title>Node13&#45;&gt;Node11</title>
<path fill="none" stroke="midnightblue" d="M168.186,-116.415C193.622,-107.721 230.702,-94.9122 271.218,-80.2286"/>
<polygon fill="midnightblue" stroke="midnightblue" points="272.543,-83.4711 280.745,-76.7642 270.151,-76.8925 272.543,-83.4711"/>
</g>
<!-- Node14 -->
<g id="node28" class="node"><title>Node14</title>
<polygon fill="white" stroke="#bfbfbf" points="69,-58.5 69,-79.5 113,-79.5 113,-58.5 69,-58.5"/>
<text text-anchor="middle" x="91" y="-66.5" font-family="Helvetica,sans-Serif" font-size="10.00">cmath</text>
</g>
<!-- Node13&#45;&gt;Node14 -->
<g id="edge28" class="edge"><title>Node13&#45;&gt;Node14</title>
<path fill="none" stroke="midnightblue" d="M128.563,-116.362C122.208,-108.35 113.334,-97.1605 105.807,-87.6696"/>
<polygon fill="midnightblue" stroke="midnightblue" points="108.34,-85.2308 99.3836,-79.5707 102.855,-89.5805 108.34,-85.2308"/>
</g>
</g>
</svg>
