<?xml version="1.0" encoding="UTF-8" standalone="no"?>
<!DOCTYPE svg PUBLIC "-//W3C//DTD SVG 1.1//EN"
 "http://www.w3.org/Graphics/SVG/1.1/DTD/svg11.dtd">
<!-- Generated by graphviz version 2.26.3 (20100126.1600)
 -->
<!-- Title: src/base/matrixstack.cc Pages: 1 -->
<svg width="444pt" height="204pt"
 viewBox="0.00 0.00 444.00 204.00" xmlns="http://www.w3.org/2000/svg" xmlns:xlink="http://www.w3.org/1999/xlink">
<g id="graph1" class="graph" transform="scale(1 1) rotate(0) translate(4 200)">
<title>src/base/matrixstack.cc</title>
<polygon fill="white" stroke="white" points="-4,5 -4,-200 441,-200 441,5 -4,5"/>
<!-- Node1 -->
<g id="node1" class="node"><title>Node1</title>
<polygon fill="#bfbfbf" stroke="black" points="303,-174.5 303,-195.5 425,-195.5 425,-174.5 303,-174.5"/>
<text text-anchor="middle" x="364" y="-182.5" font-family="Helvetica,sans-Serif" font-size="10.00">src/base/matrixstack.cc</text>
</g>
<!-- Node2 -->
<g id="node3" class="node"><title>Node2</title>
<a xlink:href="matrixstack_8h.html" target="_top" xlink:title="matrixstack.h">
<polygon fill="white" stroke="black" points="223,-116.5 223,-137.5 299,-137.5 299,-116.5 223,-116.5"/>
<text text-anchor="middle" x="261" y="-124.5" font-family="Helvetica,sans-Serif" font-size="10.00">matrixstack.h</text>
</a>
</g>
<!-- Node1&#45;&gt;Node2 -->
<g id="edge2" class="edge"><title>Node1&#45;&gt;Node2</title>
<path fill="none" stroke="midnightblue" d="M345.108,-174.362C329.282,-165.45 306.477,-152.609 288.605,-142.545"/>
<polygon fill="midnightblue" stroke="midnightblue" points="290.203,-139.428 279.772,-137.571 286.768,-145.527 290.203,-139.428"/>
</g>
<!-- Node8 -->
<g id="node15" class="node"><title>Node8</title>
<polygon fill="white" stroke="#bfbfbf" points="350.5,-58.5 350.5,-79.5 415.5,-79.5 415.5,-58.5 350.5,-58.5"/>
<text text-anchor="middle" x="383" y="-66.5" font-family="Helvetica,sans-Serif" font-size="10.00">TVector2.h</text>
</g>
<!-- Node1&#45;&gt;Node8 -->
<g id="edge20" class="edge"><title>Node1&#45;&gt;Node8</title>
<path fill="none" stroke="midnightblue" d="M365.753,-174.295C368.892,-155.131 375.522,-114.654 379.586,-89.8434"/>
<polygon fill="midnightblue" stroke="midnightblue" points="383.088,-90.1135 381.251,-79.6792 376.18,-88.9819 383.088,-90.1135"/>
</g>
<!-- Node10 -->
<g id="node19" class="node"><title>Node10</title>
<polygon fill="white" stroke="#bfbfbf" points="392,-116.5 392,-137.5 436,-137.5 436,-116.5 392,-116.5"/>
<text text-anchor="middle" x="414" y="-124.5" font-family="Helvetica,sans-Serif" font-size="10.00">cmath</text>
</g>
<!-- Node1&#45;&gt;Node10 -->
<g id="edge18" class="edge"><title>Node1&#45;&gt;Node10</title>
<path fill="none" stroke="midnightblue" d="M373.171,-174.362C380.148,-166.268 389.921,-154.932 398.156,-145.38"/>
<polygon fill="midnightblue" stroke="midnightblue" points="401.009,-147.43 404.887,-137.571 395.707,-142.859 401.009,-147.43"/>
</g>
<!-- Node3 -->
<g id="node5" class="node"><title>Node3</title>
<a xlink:href="printable_8h.html" target="_top" xlink:title="base/printable.h">
<polygon fill="white" stroke="black" points="25,-58.5 25,-79.5 111,-79.5 111,-58.5 25,-58.5"/>
<text text-anchor="middle" x="68" y="-66.5" font-family="Helvetica,sans-Serif" font-size="10.00">base/printable.h</text>
</a>
</g>
<!-- Node2&#45;&gt;Node3 -->
<g id="edge4" class="edge"><title>Node2&#45;&gt;Node3</title>
<path fill="none" stroke="midnightblue" d="M226.049,-116.497C194.313,-106.959 147.332,-92.8408 112.839,-82.475"/>
<polygon fill="midnightblue" stroke="midnightblue" points="113.601,-79.0492 103.016,-79.5231 111.586,-85.7531 113.601,-79.0492"/>
</g>
<!-- Node6 -->
<g id="node11" class="node"><title>Node6</title>
<polygon fill="white" stroke="#bfbfbf" points="128.5,-58.5 128.5,-79.5 193.5,-79.5 193.5,-58.5 128.5,-58.5"/>
<text text-anchor="middle" x="161" y="-66.5" font-family="Helvetica,sans-Serif" font-size="10.00">TVectorT.h</text>
</g>
<!-- Node2&#45;&gt;Node6 -->
<g id="edge10" class="edge"><title>Node2&#45;&gt;Node6</title>
<path fill="none" stroke="midnightblue" d="M242.658,-116.362C227.434,-107.532 205.559,-94.844 188.28,-84.8224"/>
<polygon fill="midnightblue" stroke="midnightblue" points="189.632,-81.5603 179.225,-79.5707 186.12,-87.6155 189.632,-81.5603"/>
</g>
<!-- Node7 -->
<g id="node13" class="node"><title>Node7</title>
<polygon fill="white" stroke="#bfbfbf" points="211,-58.5 211,-79.5 275,-79.5 275,-58.5 211,-58.5"/>
<text text-anchor="middle" x="243" y="-66.5" font-family="Helvetica,sans-Serif" font-size="10.00">TMatrixT.h</text>
</g>
<!-- Node2&#45;&gt;Node7 -->
<g id="edge12" class="edge"><title>Node2&#45;&gt;Node7</title>
<path fill="none" stroke="midnightblue" d="M257.699,-116.362C255.339,-108.758 252.091,-98.294 249.249,-89.1349"/>
<polygon fill="midnightblue" stroke="midnightblue" points="252.587,-88.0839 246.281,-79.5707 245.902,-90.1587 252.587,-88.0839"/>
</g>
<!-- Node2&#45;&gt;Node8 -->
<g id="edge14" class="edge"><title>Node2&#45;&gt;Node8</title>
<path fill="none" stroke="midnightblue" d="M283.093,-116.497C302.234,-107.397 330.146,-94.1273 351.605,-83.9253"/>
<polygon fill="midnightblue" stroke="midnightblue" points="353.13,-87.0758 360.659,-79.6212 350.125,-80.7539 353.13,-87.0758"/>
</g>
<!-- Node9 -->
<g id="node17" class="node"><title>Node9</title>
<polygon fill="white" stroke="#bfbfbf" points="292.5,-58.5 292.5,-79.5 333.5,-79.5 333.5,-58.5 292.5,-58.5"/>
<text text-anchor="middle" x="313" y="-66.5" font-family="Helvetica,sans-Serif" font-size="10.00">stack</text>
</g>
<!-- Node2&#45;&gt;Node9 -->
<g id="edge16" class="edge"><title>Node2&#45;&gt;Node9</title>
<path fill="none" stroke="midnightblue" d="M270.538,-116.362C277.868,-108.186 288.163,-96.7025 296.781,-87.0907"/>
<polygon fill="midnightblue" stroke="midnightblue" points="299.453,-89.3528 303.523,-79.5707 294.241,-84.68 299.453,-89.3528"/>
</g>
<!-- Node4 -->
<g id="node7" class="node"><title>Node4</title>
<polygon fill="white" stroke="#bfbfbf" points="0,-0.5 0,-21.5 62,-21.5 62,-0.5 0,-0.5"/>
<text text-anchor="middle" x="31" y="-8.5" font-family="Helvetica,sans-Serif" font-size="10.00">type_traits</text>
</g>
<!-- Node3&#45;&gt;Node4 -->
<g id="edge6" class="edge"><title>Node3&#45;&gt;Node4</title>
<path fill="none" stroke="midnightblue" d="M61.2136,-58.3619C56.2066,-50.5131 49.255,-39.6159 43.2819,-30.2527"/>
<polygon fill="midnightblue" stroke="midnightblue" points="46.0723,-28.1189 37.7433,-21.5707 40.1708,-31.8837 46.0723,-28.1189"/>
</g>
<!-- Node5 -->
<g id="node9" class="node"><title>Node5</title>
<polygon fill="white" stroke="#bfbfbf" points="80,-0.5 80,-21.5 132,-21.5 132,-0.5 80,-0.5"/>
<text text-anchor="middle" x="106" y="-8.5" font-family="Helvetica,sans-Serif" font-size="10.00">ostream</text>
</g>
<!-- Node3&#45;&gt;Node5 -->
<g id="edge8" class="edge"><title>Node3&#45;&gt;Node5</title>
<path fill="none" stroke="midnightblue" d="M74.9698,-58.3619C80.1657,-50.4313 87.4006,-39.3885 93.5775,-29.9606"/>
<polygon fill="midnightblue" stroke="midnightblue" points="96.5217,-31.8534 99.0744,-21.5707 90.6665,-28.0172 96.5217,-31.8534"/>
</g>
</g>
</svg>
