<?xml version="1.0" encoding="UTF-8" standalone="no"?>
<!DOCTYPE svg PUBLIC "-//W3C//DTD SVG 1.1//EN"
 "http://www.w3.org/Graphics/SVG/1.1/DTD/svg11.dtd">
<!-- Generated by graphviz version 2.26.3 (20100126.1600)
 -->
<!-- Title: src/analysis/physics/etaprime/mctrue_3pi0.h Pages: 1 -->
<svg width="3442pt" height="580pt"
 viewBox="0.00 0.00 3441.67 580.00" xmlns="http://www.w3.org/2000/svg" xmlns:xlink="http://www.w3.org/1999/xlink">
<g id="graph1" class="graph" transform="scale(1 1) rotate(0) translate(4 576)">
<title>src/analysis/physics/etaprime/mctrue_3pi0.h</title>
<polygon fill="white" stroke="white" points="-4,5 -4,-576 3438.67,-576 3438.67,5 -4,5"/>
<!-- Node1 -->
<g id="node1" class="node"><title>Node1</title>
<polygon fill="#bfbfbf" stroke="black" points="563.716,-537 563.716,-571 685.716,-571 685.716,-537 563.716,-537"/>
<text text-anchor="start" x="571.716" y="-558" font-family="Helvetica,sans-Serif" font-size="10.00">src/analysis/physics</text>
<text text-anchor="middle" x="624.716" y="-545" font-family="Helvetica,sans-Serif" font-size="10.00">/etaprime/mctrue_3pi0.h</text>
</g>
<!-- Node2 -->
<g id="node3" class="node"><title>Node2</title>
<a xlink:href="_physics_8h.html" target="_top" xlink:title="analysis/physics/Physics.h">
<polygon fill="white" stroke="black" points="638.716,-478.5 638.716,-499.5 774.716,-499.5 774.716,-478.5 638.716,-478.5"/>
<text text-anchor="middle" x="706.716" y="-486.5" font-family="Helvetica,sans-Serif" font-size="10.00">analysis/physics/Physics.h</text>
</a>
</g>
<!-- Node1&#45;&gt;Node2 -->
<g id="edge2" class="edge"><title>Node1&#45;&gt;Node2</title>
<path fill="none" stroke="midnightblue" d="M646.261,-536.922C658.174,-527.479 672.94,-515.774 684.897,-506.296"/>
<polygon fill="midnightblue" stroke="midnightblue" points="687.363,-508.807 693.026,-499.852 683.015,-503.321 687.363,-508.807"/>
</g>
<!-- Node68 -->
<g id="node246" class="node"><title>Node68</title>
<a xlink:href="particle__tools_8h.html" target="_top" xlink:title="utils/particle_tools.h">
<polygon fill="white" stroke="black" points="448.716,-420.5 448.716,-441.5 552.716,-441.5 552.716,-420.5 448.716,-420.5"/>
<text text-anchor="middle" x="500.716" y="-428.5" font-family="Helvetica,sans-Serif" font-size="10.00">utils/particle_tools.h</text>
</a>
</g>
<!-- Node1&#45;&gt;Node68 -->
<g id="edge356" class="edge"><title>Node1&#45;&gt;Node68</title>
<path fill="none" stroke="midnightblue" d="M607.474,-536.897C584.157,-513.768 542.755,-472.7 518.941,-449.078"/>
<polygon fill="midnightblue" stroke="midnightblue" points="521.156,-446.345 511.591,-441.787 516.226,-451.315 521.156,-446.345"/>
</g>
<!-- Node3 -->
<g id="node5" class="node"><title>Node3</title>
<a xlink:href="manager__t_8h.html" target="_top" xlink:title="analysis/physics/manager_t.h">
<polygon fill="white" stroke="black" points="851.716,-420.5 851.716,-441.5 997.716,-441.5 997.716,-420.5 851.716,-420.5"/>
<text text-anchor="middle" x="924.716" y="-428.5" font-family="Helvetica,sans-Serif" font-size="10.00">analysis/physics/manager_t.h</text>
</a>
</g>
<!-- Node2&#45;&gt;Node3 -->
<g id="edge4" class="edge"><title>Node2&#45;&gt;Node3</title>
<path fill="none" stroke="midnightblue" d="M746.194,-478.497C782.349,-468.877 836.02,-454.598 875.069,-444.209"/>
<polygon fill="midnightblue" stroke="midnightblue" points="876.4,-447.477 885.164,-441.523 874.6,-440.712 876.4,-447.477"/>
</g>
<!-- Node4 -->
<g id="node7" class="node"><title>Node4</title>
<a xlink:href="_histogram_factories_8h.html" target="_top" xlink:title="analysis/plot/HistogramFactories.h">
<polygon fill="white" stroke="black" points="1091.72,-246.5 1091.72,-267.5 1259.72,-267.5 1259.72,-246.5 1091.72,-246.5"/>
<text text-anchor="middle" x="1175.72" y="-254.5" font-family="Helvetica,sans-Serif" font-size="10.00">analysis/plot/HistogramFactories.h</text>
</a>
</g>
<!-- Node2&#45;&gt;Node4 -->
<g id="edge6" class="edge"><title>Node2&#45;&gt;Node4</title>
<path fill="none" stroke="midnightblue" d="M774.876,-483.767C875.177,-475.558 1053.35,-458.844 1077.72,-442 1135.53,-402.036 1161.92,-316.895 1171.37,-277.626"/>
<polygon fill="midnightblue" stroke="midnightblue" points="1174.84,-278.161 1173.64,-267.634 1168.01,-276.608 1174.84,-278.161"/>
</g>
<!-- Node16 -->
<g id="node33" class="node"><title>Node16</title>
<polygon fill="white" stroke="#bfbfbf" points="861.216,-116.5 861.216,-137.5 902.216,-137.5 902.216,-116.5 861.216,-116.5"/>
<text text-anchor="middle" x="881.716" y="-124.5" font-family="Helvetica,sans-Serif" font-size="10.00">string</text>
</g>
<!-- Node2&#45;&gt;Node16 -->
<g id="edge348" class="edge"><title>Node2&#45;&gt;Node16</title>
<path fill="none" stroke="midnightblue" d="M677.131,-478.479C660.887,-471.006 642.171,-459.206 632.716,-442 623.558,-425.334 541.003,-291.106 640.716,-174 644.144,-169.974 787.084,-143.946 851.175,-132.447"/>
<polygon fill="midnightblue" stroke="midnightblue" points="851.882,-135.876 861.109,-130.668 850.648,-128.986 851.882,-135.876"/>
</g>
<!-- Node17 -->
<g id="node36" class="node"><title>Node17</title>
<a xlink:href="memory_8h.html" target="_top" xlink:title="base/std_ext/memory.h">
<polygon fill="white" stroke="black" points="649.216,-181.5 649.216,-202.5 768.216,-202.5 768.216,-181.5 649.216,-181.5"/>
<text text-anchor="middle" x="708.716" y="-189.5" font-family="Helvetica,sans-Serif" font-size="10.00">base/std_ext/memory.h</text>
</a>
</g>
<!-- Node2&#45;&gt;Node17 -->
<g id="edge38" class="edge"><title>Node2&#45;&gt;Node17</title>
<path fill="none" stroke="midnightblue" d="M680.502,-478.409C665.318,-470.748 647.514,-458.776 638.716,-442 634.175,-433.341 637.265,-429.67 638.716,-420 650.592,-340.855 684.437,-251.254 700.308,-212.099"/>
<polygon fill="midnightblue" stroke="midnightblue" points="703.628,-213.229 704.189,-202.649 697.153,-210.57 703.628,-213.229"/>
</g>
<!-- Node18 -->
<g id="node38" class="node"><title>Node18</title>
<polygon fill="white" stroke="#bfbfbf" points="1089.72,-116.5 1089.72,-137.5 1141.72,-137.5 1141.72,-116.5 1089.72,-116.5"/>
<text text-anchor="middle" x="1115.72" y="-124.5" font-family="Helvetica,sans-Serif" font-size="10.00">memory</text>
</g>
<!-- Node2&#45;&gt;Node18 -->
<g id="edge352" class="edge"><title>Node2&#45;&gt;Node18</title>
<path fill="none" stroke="midnightblue" d="M774.963,-486.2C856.897,-481.625 988.227,-470.051 1027.72,-442 1055.91,-421.968 1063.72,-407.59 1063.72,-373 1063.72,-373 1063.72,-373 1063.72,-257 1063.72,-215.154 1087.23,-170.802 1102.63,-146.236"/>
<polygon fill="midnightblue" stroke="midnightblue" points="1105.76,-147.847 1108.27,-137.552 1099.89,-144.038 1105.76,-147.847"/>
</g>
<!-- Node19 -->
<g id="node40" class="node"><title>Node19</title>
<polygon fill="white" stroke="#bfbfbf" points="468.216,-116.5 468.216,-137.5 497.216,-137.5 497.216,-116.5 468.216,-116.5"/>
<text text-anchor="middle" x="482.716" y="-124.5" font-family="Helvetica,sans-Serif" font-size="10.00">list</text>
</g>
<!-- Node2&#45;&gt;Node19 -->
<g id="edge346" class="edge"><title>Node2&#45;&gt;Node19</title>
<path fill="none" stroke="midnightblue" d="M638.674,-485.468C513.348,-477.091 258.716,-450.531 258.716,-373 258.716,-373 258.716,-373 258.716,-315 258.716,-246.18 270.117,-218.379 322.716,-174 368.484,-135.385 397.658,-157.272 458.217,-137.95"/>
<polygon fill="midnightblue" stroke="midnightblue" points="459.492,-141.213 467.798,-134.635 457.203,-134.598 459.492,-141.213"/>
</g>
<!-- Node20 -->
<g id="node42" class="node"><title>Node20</title>
<a xlink:href="_t_event_8h.html" target="_top" xlink:title="tree/TEvent.h">
<polygon fill="white" stroke="black" points="1405.72,-181.5 1405.72,-202.5 1481.72,-202.5 1481.72,-181.5 1405.72,-181.5"/>
<text text-anchor="middle" x="1443.72" y="-189.5" font-family="Helvetica,sans-Serif" font-size="10.00">tree/TEvent.h</text>
</a>
</g>
<!-- Node2&#45;&gt;Node20 -->
<g id="edge44" class="edge"><title>Node2&#45;&gt;Node20</title>
<path fill="none" stroke="midnightblue" d="M774.737,-485.148C871.987,-478.93 1045.45,-464.997 1103.72,-442 1244.48,-386.439 1379.43,-257.788 1426.32,-210.161"/>
<polygon fill="midnightblue" stroke="midnightblue" points="1429.08,-212.342 1433.55,-202.738 1424.07,-207.455 1429.08,-212.342"/>
</g>
<!-- Node22 -->
<g id="node49" class="node"><title>Node22</title>
<a xlink:href="_t_event_data_8h.html" target="_top" xlink:title="tree/TEventData.h">
<polygon fill="white" stroke="black" points="2035.22,-420.5 2035.22,-441.5 2132.22,-441.5 2132.22,-420.5 2035.22,-420.5"/>
<text text-anchor="middle" x="2083.72" y="-428.5" font-family="Helvetica,sans-Serif" font-size="10.00">tree/TEventData.h</text>
</a>
</g>
<!-- Node2&#45;&gt;Node22 -->
<g id="edge54" class="edge"><title>Node2&#45;&gt;Node22</title>
<path fill="none" stroke="midnightblue" d="M775.002,-486.124C1012.85,-476.105 1802.52,-442.844 2024.95,-433.475"/>
<polygon fill="midnightblue" stroke="midnightblue" points="2025.26,-436.965 2035.11,-433.048 2024.97,-429.972 2025.26,-436.965"/>
</g>
<!-- Node53 -->
<g id="node170" class="node"><title>Node53</title>
<polygon fill="white" stroke="#bfbfbf" points="392.216,-116.5 392.216,-137.5 451.216,-137.5 451.216,-116.5 392.216,-116.5"/>
<text text-anchor="middle" x="421.716" y="-124.5" font-family="Helvetica,sans-Serif" font-size="10.00">functional</text>
</g>
<!-- Node2&#45;&gt;Node53 -->
<g id="edge354" class="edge"><title>Node2&#45;&gt;Node53</title>
<path fill="none" stroke="midnightblue" d="M638.482,-486.449C537.389,-481.797 353.344,-469.728 293.716,-442 253.235,-423.175 220.716,-417.644 220.716,-373 220.716,-373 220.716,-373 220.716,-315 220.716,-246.362 233.003,-220.253 283.716,-174 310.899,-149.208 351.705,-137.417 381.9,-131.856"/>
<polygon fill="midnightblue" stroke="midnightblue" points="382.818,-135.251 392.098,-130.138 381.655,-128.348 382.818,-135.251"/>
</g>
<!-- Node57 -->
<g id="node199" class="node"><title>Node57</title>
<polygon fill="white" stroke="#bfbfbf" points="160.216,-116.5 160.216,-137.5 195.216,-137.5 195.216,-116.5 160.216,-116.5"/>
<text text-anchor="middle" x="177.716" y="-124.5" font-family="Helvetica,sans-Serif" font-size="10.00">map</text>
</g>
<!-- Node2&#45;&gt;Node57 -->
<g id="edge350" class="edge"><title>Node2&#45;&gt;Node57</title>
<path fill="none" stroke="midnightblue" d="M638.477,-484.891C461.549,-473.329 1.71598,-437.114 1.71598,-373 1.71598,-373 1.71598,-373 1.71598,-257 1.71598,-219.157 -5.14795,-201.625 20.716,-174 38.388,-155.125 110.108,-139.36 150.22,-131.803"/>
<polygon fill="midnightblue" stroke="midnightblue" points="150.953,-135.228 160.155,-129.978 149.688,-128.343 150.953,-135.228"/>
</g>
<!-- Node62 -->
<g id="node219" class="node"><title>Node62</title>
<a xlink:href="_options_list_8h.html" target="_top" xlink:title="base/OptionsList.h">
<polygon fill="white" stroke="black" points="861.716,-181.5 861.716,-202.5 959.716,-202.5 959.716,-181.5 861.716,-181.5"/>
<text text-anchor="middle" x="910.716" y="-189.5" font-family="Helvetica,sans-Serif" font-size="10.00">base/OptionsList.h</text>
</a>
</g>
<!-- Node2&#45;&gt;Node62 -->
<g id="edge314" class="edge"><title>Node2&#45;&gt;Node62</title>
<path fill="none" stroke="midnightblue" d="M774.749,-482.986C858.573,-474.876 991.808,-459.426 1006.72,-442 1068.32,-369.996 970.981,-254.18 928.737,-209.954"/>
<polygon fill="midnightblue" stroke="midnightblue" points="931.022,-207.284 921.541,-202.556 926.004,-212.165 931.022,-207.284"/>
</g>
<!-- Node64 -->
<g id="node227" class="node"><title>Node64</title>
<a xlink:href="root__draw_8h.html" target="_top" xlink:title="analysis/plot/root\l_draw.h">
<polygon fill="white" stroke="black" points="341.216,-175 341.216,-209 432.216,-209 432.216,-175 341.216,-175"/>
<text text-anchor="start" x="349.216" y="-196" font-family="Helvetica,sans-Serif" font-size="10.00">analysis/plot/root</text>
<text text-anchor="middle" x="386.716" y="-183" font-family="Helvetica,sans-Serif" font-size="10.00">_draw.h</text>
</a>
</g>
<!-- Node2&#45;&gt;Node64 -->
<g id="edge326" class="edge"><title>Node2&#45;&gt;Node64</title>
<path fill="none" stroke="midnightblue" d="M638.405,-480.578C571.48,-471.684 474.612,-456.909 439.716,-442 399.661,-424.887 380.394,-422.859 360.716,-384 333.374,-330.007 357.308,-257.069 373.948,-218.486"/>
<polygon fill="midnightblue" stroke="midnightblue" points="377.301,-219.561 378.192,-209.004 370.912,-216.701 377.301,-219.561"/>
</g>
<!-- Node65 -->
<g id="node235" class="node"><title>Node65</title>
<polygon fill="white" stroke="#bfbfbf" points="647.216,-420.5 647.216,-441.5 698.216,-441.5 698.216,-420.5 647.216,-420.5"/>
<text text-anchor="middle" x="672.716" y="-428.5" font-family="Helvetica,sans-Serif" font-size="10.00">TH1D.h</text>
</g>
<!-- Node2&#45;&gt;Node65 -->
<g id="edge340" class="edge"><title>Node2&#45;&gt;Node65</title>
<path fill="none" stroke="midnightblue" d="M700.48,-478.362C695.879,-470.513 689.491,-459.616 684.002,-450.253"/>
<polygon fill="midnightblue" stroke="midnightblue" points="686.989,-448.428 678.913,-441.571 680.95,-451.968 686.989,-448.428"/>
</g>
<!-- Node66 -->
<g id="node237" class="node"><title>Node66</title>
<polygon fill="white" stroke="#bfbfbf" points="715.216,-420.5 715.216,-441.5 766.216,-441.5 766.216,-420.5 715.216,-420.5"/>
<text text-anchor="middle" x="740.716" y="-428.5" font-family="Helvetica,sans-Serif" font-size="10.00">TH2D.h</text>
</g>
<!-- Node2&#45;&gt;Node66 -->
<g id="edge342" class="edge"><title>Node2&#45;&gt;Node66</title>
<path fill="none" stroke="midnightblue" d="M712.952,-478.362C717.553,-470.513 723.941,-459.616 729.43,-450.253"/>
<polygon fill="midnightblue" stroke="midnightblue" points="732.482,-451.968 734.519,-441.571 726.443,-448.428 732.482,-451.968"/>
</g>
<!-- Node67 -->
<g id="node239" class="node"><title>Node67</title>
<polygon fill="white" stroke="#bfbfbf" points="783.216,-420.5 783.216,-441.5 834.216,-441.5 834.216,-420.5 783.216,-420.5"/>
<text text-anchor="middle" x="808.716" y="-428.5" font-family="Helvetica,sans-Serif" font-size="10.00">TH3D.h</text>
</g>
<!-- Node2&#45;&gt;Node67 -->
<g id="edge344" class="edge"><title>Node2&#45;&gt;Node67</title>
<path fill="none" stroke="midnightblue" d="M725.424,-478.362C741.097,-469.45 763.68,-456.609 781.379,-446.545"/>
<polygon fill="midnightblue" stroke="midnightblue" points="783.163,-449.556 790.126,-441.571 779.703,-443.471 783.163,-449.556"/>
</g>
<!-- Node5 -->
<g id="node9" class="node"><title>Node5</title>
<a xlink:href="interval_8h.html" target="_top" xlink:title="base/interval.h">
<polygon fill="white" stroke="black" points="1615.72,-116.5 1615.72,-137.5 1695.72,-137.5 1695.72,-116.5 1615.72,-116.5"/>
<text text-anchor="middle" x="1655.72" y="-124.5" font-family="Helvetica,sans-Serif" font-size="10.00">base/interval.h</text>
</a>
</g>
<!-- Node4&#45;&gt;Node5 -->
<g id="edge8" class="edge"><title>Node4&#45;&gt;Node5</title>
<path fill="none" stroke="midnightblue" d="M1259.79,-252.845C1411.07,-244.959 1715.02,-227.078 1730.72,-210 1741.54,-198.219 1738.46,-187.999 1730.72,-174 1722.9,-159.883 1708.88,-149.44 1695.06,-142.032"/>
<polygon fill="midnightblue" stroke="midnightblue" points="1696.59,-138.883 1686.07,-137.593 1693.49,-145.159 1696.59,-138.883"/>
</g>
<!-- Node14 -->
<g id="node27" class="node"><title>Node14</title>
<a xlink:href="_bin_settings_8h.html" target="_top" xlink:title="base/BinSettings.h">
<polygon fill="white" stroke="black" points="1853.22,-181.5 1853.22,-202.5 1952.22,-202.5 1952.22,-181.5 1853.22,-181.5"/>
<text text-anchor="middle" x="1902.72" y="-189.5" font-family="Helvetica,sans-Serif" font-size="10.00">base/BinSettings.h</text>
</a>
</g>
<!-- Node4&#45;&gt;Node14 -->
<g id="edge26" class="edge"><title>Node4&#45;&gt;Node14</title>
<path fill="none" stroke="midnightblue" d="M1259.95,-253.509C1413.89,-246.726 1734.93,-230.605 1844.72,-210 1850.9,-208.839 1857.36,-207.239 1863.63,-205.47"/>
<polygon fill="midnightblue" stroke="midnightblue" points="1864.67,-208.811 1873.24,-202.588 1862.66,-202.106 1864.67,-208.811"/>
</g>
<!-- Node15 -->
<g id="node30" class="node"><title>Node15</title>
<polygon fill="white" stroke="#bfbfbf" points="1217.72,-58.5 1217.72,-79.5 1261.72,-79.5 1261.72,-58.5 1217.72,-58.5"/>
<text text-anchor="middle" x="1239.72" y="-66.5" font-family="Helvetica,sans-Serif" font-size="10.00">vector</text>
</g>
<!-- Node4&#45;&gt;Node15 -->
<g id="edge36" class="edge"><title>Node4&#45;&gt;Node15</title>
<path fill="none" stroke="midnightblue" d="M1142.91,-246.384C1081.41,-224.827 959.147,-173.102 1006.72,-116 1035.06,-81.9753 1159.65,-90.3247 1202.72,-80 1204.37,-79.6026 1206.07,-79.1755 1207.77,-78.7286"/>
<polygon fill="midnightblue" stroke="midnightblue" points="1208.82,-82.0709 1217.52,-76.0209 1206.94,-75.3266 1208.82,-82.0709"/>
</g>
<!-- Node4&#45;&gt;Node16 -->
<g id="edge34" class="edge"><title>Node4&#45;&gt;Node16</title>
<path fill="none" stroke="midnightblue" d="M1091.35,-250.396C1000.93,-242.442 868.194,-227.893 852.716,-210 836.84,-191.647 851.868,-164.078 865.538,-145.818"/>
<polygon fill="midnightblue" stroke="midnightblue" points="868.52,-147.691 871.998,-137.683 863.038,-143.338 868.52,-147.691"/>
</g>
<!-- Node6 -->
<g id="node11" class="node"><title>Node6</title>
<a xlink:href="printable_8h.html" target="_top" xlink:title="printable.h">
<polygon fill="white" stroke="black" points="2400.72,-58.5 2400.72,-79.5 2462.72,-79.5 2462.72,-58.5 2400.72,-58.5"/>
<text text-anchor="middle" x="2431.72" y="-66.5" font-family="Helvetica,sans-Serif" font-size="10.00">printable.h</text>
</a>
</g>
<!-- Node5&#45;&gt;Node6 -->
<g id="edge10" class="edge"><title>Node5&#45;&gt;Node6</title>
<path fill="none" stroke="midnightblue" d="M1695.73,-117.457C1698.76,-116.907 1701.78,-116.411 1704.72,-116 1981.59,-77.2523 2054.13,-103.445 2332.72,-80 2351.73,-78.3998 2372.75,-76.1354 2390.51,-74.0767"/>
<polygon fill="midnightblue" stroke="midnightblue" points="2391.02,-77.5399 2400.55,-72.8949 2390.21,-70.5879 2391.02,-77.5399"/>
</g>
<!-- Node9 -->
<g id="node17" class="node"><title>Node9</title>
<a xlink:href="types_8h.html" target="_top" xlink:title="types.h">
<polygon fill="white" stroke="black" points="1145.22,-58.5 1145.22,-79.5 1194.22,-79.5 1194.22,-58.5 1145.22,-58.5"/>
<text text-anchor="middle" x="1169.72" y="-66.5" font-family="Helvetica,sans-Serif" font-size="10.00">types.h</text>
</a>
</g>
<!-- Node5&#45;&gt;Node9 -->
<g id="edge16" class="edge"><title>Node5&#45;&gt;Node9</title>
<path fill="none" stroke="midnightblue" d="M1615.61,-125.075C1536.96,-120.796 1357.19,-108.529 1208.72,-80 1207.25,-79.7179 1205.75,-79.4069 1204.25,-79.0736"/>
<polygon fill="midnightblue" stroke="midnightblue" points="1204.87,-75.6212 1194.32,-76.6235 1203.19,-82.4174 1204.87,-75.6212"/>
</g>
<!-- Node10 -->
<g id="node19" class="node"><title>Node10</title>
<polygon fill="white" stroke="#bfbfbf" points="1463.72,-58.5 1463.72,-79.5 1519.72,-79.5 1519.72,-58.5 1463.72,-58.5"/>
<text text-anchor="middle" x="1491.72" y="-66.5" font-family="Helvetica,sans-Serif" font-size="10.00">algorithm</text>
</g>
<!-- Node5&#45;&gt;Node10 -->
<g id="edge18" class="edge"><title>Node5&#45;&gt;Node10</title>
<path fill="none" stroke="midnightblue" d="M1626.02,-116.497C1598.9,-106.906 1558.68,-92.6833 1529.33,-82.302"/>
<polygon fill="midnightblue" stroke="midnightblue" points="1530.42,-78.9755 1519.82,-78.9409 1528.09,-85.5749 1530.42,-78.9755"/>
</g>
<!-- Node11 -->
<g id="node21" class="node"><title>Node11</title>
<polygon fill="white" stroke="#bfbfbf" points="2002.22,-58.5 2002.22,-79.5 2061.22,-79.5 2061.22,-58.5 2002.22,-58.5"/>
<text text-anchor="middle" x="2031.72" y="-66.5" font-family="Helvetica,sans-Serif" font-size="10.00">stdexcept</text>
</g>
<!-- Node5&#45;&gt;Node11 -->
<g id="edge20" class="edge"><title>Node5&#45;&gt;Node11</title>
<path fill="none" stroke="midnightblue" d="M1695.78,-117.74C1698.8,-117.124 1701.8,-116.536 1704.72,-116 1807.63,-97.082 1929.94,-81.2571 1991.73,-73.7252"/>
<polygon fill="midnightblue" stroke="midnightblue" points="1992.33,-77.179 2001.83,-72.5023 1991.48,-70.2297 1992.33,-77.179"/>
</g>
<!-- Node12 -->
<g id="node23" class="node"><title>Node12</title>
<polygon fill="white" stroke="#bfbfbf" points="1751.72,-58.5 1751.72,-79.5 1791.72,-79.5 1791.72,-58.5 1751.72,-58.5"/>
<text text-anchor="middle" x="1771.72" y="-66.5" font-family="Helvetica,sans-Serif" font-size="10.00">limits</text>
</g>
<!-- Node5&#45;&gt;Node12 -->
<g id="edge22" class="edge"><title>Node5&#45;&gt;Node12</title>
<path fill="none" stroke="midnightblue" d="M1676.72,-116.497C1695.1,-107.309 1721.97,-93.8717 1742.45,-83.632"/>
<polygon fill="midnightblue" stroke="midnightblue" points="1744.26,-86.6398 1751.64,-79.0371 1741.13,-80.3788 1744.26,-86.6398"/>
</g>
<!-- Node13 -->
<g id="node25" class="node"><title>Node13</title>
<polygon fill="white" stroke="#bfbfbf" points="1631.22,-58.5 1631.22,-79.5 1680.22,-79.5 1680.22,-58.5 1631.22,-58.5"/>
<text text-anchor="middle" x="1655.72" y="-66.5" font-family="Helvetica,sans-Serif" font-size="10.00">istream</text>
</g>
<!-- Node5&#45;&gt;Node13 -->
<g id="edge24" class="edge"><title>Node5&#45;&gt;Node13</title>
<path fill="none" stroke="midnightblue" d="M1655.72,-116.362C1655.72,-108.922 1655.72,-98.7427 1655.72,-89.7276"/>
<polygon fill="midnightblue" stroke="midnightblue" points="1659.22,-89.5706 1655.72,-79.5707 1652.22,-89.5707 1659.22,-89.5706"/>
</g>
<!-- Node7 -->
<g id="node13" class="node"><title>Node7</title>
<polygon fill="white" stroke="#bfbfbf" points="2497.72,-0.5 2497.72,-21.5 2559.72,-21.5 2559.72,-0.5 2497.72,-0.5"/>
<text text-anchor="middle" x="2528.72" y="-8.5" font-family="Helvetica,sans-Serif" font-size="10.00">type_traits</text>
</g>
<!-- Node6&#45;&gt;Node7 -->
<g id="edge12" class="edge"><title>Node6&#45;&gt;Node7</title>
<path fill="none" stroke="midnightblue" d="M2449.51,-58.3619C2464.27,-49.532 2485.49,-36.844 2502.25,-26.8224"/>
<polygon fill="midnightblue" stroke="midnightblue" points="2504.25,-29.7066 2511.04,-21.5707 2500.66,-23.6987 2504.25,-29.7066"/>
</g>
<!-- Node8 -->
<g id="node15" class="node"><title>Node8</title>
<polygon fill="white" stroke="#bfbfbf" points="1054.72,-0.5 1054.72,-21.5 1106.72,-21.5 1106.72,-0.5 1054.72,-0.5"/>
<text text-anchor="middle" x="1080.72" y="-8.5" font-family="Helvetica,sans-Serif" font-size="10.00">ostream</text>
</g>
<!-- Node6&#45;&gt;Node8 -->
<g id="edge14" class="edge"><title>Node6&#45;&gt;Node8</title>
<path fill="none" stroke="midnightblue" d="M2400.56,-64.947C2381.09,-62.5615 2355.48,-59.6897 2332.72,-58 1852.38,-22.347 1266.27,-13.2073 1116.75,-11.3892"/>
<polygon fill="midnightblue" stroke="midnightblue" points="1116.79,-7.88949 1106.75,-11.2707 1116.71,-14.889 1116.79,-7.88949"/>
</g>
<!-- Node14&#45;&gt;Node5 -->
<g id="edge28" class="edge"><title>Node14&#45;&gt;Node5</title>
<path fill="none" stroke="midnightblue" d="M1869.99,-181.486C1861.77,-178.943 1852.94,-176.297 1844.72,-174 1797.93,-160.935 1744.14,-147.732 1705.93,-138.661"/>
<polygon fill="midnightblue" stroke="midnightblue" points="1706.62,-135.226 1696.08,-136.331 1705,-142.038 1706.62,-135.226"/>
</g>
<!-- Node14&#45;&gt;Node11 -->
<g id="edge32" class="edge"><title>Node14&#45;&gt;Node11</title>
<path fill="none" stroke="midnightblue" d="M1938.25,-181.401C1960.94,-172.971 1989.43,-159.046 2007.72,-138 2019.51,-124.419 2025.61,-104.705 2028.69,-89.8231"/>
<polygon fill="midnightblue" stroke="midnightblue" points="2032.21,-90.0245 2030.51,-79.5668 2025.32,-88.8015 2032.21,-90.0245"/>
</g>
<!-- Node14&#45;&gt;Node15 -->
<g id="edge30" class="edge"><title>Node14&#45;&gt;Node15</title>
<path fill="none" stroke="midnightblue" d="M1872.59,-181.493C1863.7,-178.709 1853.9,-175.942 1844.72,-174 1709.45,-145.387 1671.93,-161.732 1535.72,-138 1438.53,-121.067 1325.43,-92.0678 1271.49,-77.6559"/>
<polygon fill="midnightblue" stroke="midnightblue" points="1272.38,-74.2719 1261.82,-75.0583 1270.57,-81.0323 1272.38,-74.2719"/>
</g>
<!-- Node17&#45;&gt;Node18 -->
<g id="edge40" class="edge"><title>Node17&#45;&gt;Node18</title>
<path fill="none" stroke="midnightblue" d="M768.377,-184.525C853.677,-173.645 1007.3,-153.29 1079.43,-137.969"/>
<polygon fill="midnightblue" stroke="midnightblue" points="1080.46,-141.326 1089.47,-135.746 1078.95,-134.492 1080.46,-141.326"/>
</g>
<!-- Node17&#45;&gt;Node19 -->
<g id="edge42" class="edge"><title>Node17&#45;&gt;Node19</title>
<path fill="none" stroke="midnightblue" d="M658.692,-181.432C619.38,-172.514 563.253,-158.434 507.336,-138.202"/>
<polygon fill="midnightblue" stroke="midnightblue" points="508.23,-134.801 497.637,-134.628 505.81,-141.37 508.23,-134.801"/>
</g>
<!-- Node20&#45;&gt;Node6 -->
<g id="edge48" class="edge"><title>Node20&#45;&gt;Node6</title>
<path fill="none" stroke="midnightblue" d="M1481.73,-187.303C1514.33,-183.383 1562.56,-177.837 1604.72,-174 1718.31,-163.661 2008.78,-174.863 2116.72,-138 2133.4,-132.303 2133.32,-122.482 2149.72,-116 2192.76,-98.9779 2322.78,-81.8101 2390.19,-73.7452"/>
<polygon fill="midnightblue" stroke="midnightblue" points="2390.93,-77.1823 2400.45,-72.5304 2390.1,-70.2309 2390.93,-77.1823"/>
</g>
<!-- Node20&#45;&gt;Node11 -->
<g id="edge52" class="edge"><title>Node20&#45;&gt;Node11</title>
<path fill="none" stroke="midnightblue" d="M1481.77,-187.709C1514.39,-184.04 1562.64,-178.633 1604.72,-174 1752.24,-157.755 1798.24,-191.407 1936.72,-138 1966.73,-126.423 1995.85,-102.895 2013.76,-86.5515"/>
<polygon fill="midnightblue" stroke="midnightblue" points="2016.26,-89.0066 2021.17,-79.6168 2011.48,-83.8968 2016.26,-89.0066"/>
</g>
<!-- Node20&#45;&gt;Node18 -->
<g id="edge50" class="edge"><title>Node20&#45;&gt;Node18</title>
<path fill="none" stroke="midnightblue" d="M1418.66,-181.34C1411.65,-178.652 1403.97,-175.973 1396.72,-174 1310.59,-150.557 1206.24,-136.81 1152.17,-130.738"/>
<polygon fill="midnightblue" stroke="midnightblue" points="1152.37,-127.239 1142.05,-129.625 1151.61,-134.197 1152.37,-127.239"/>
</g>
<!-- Node21 -->
<g id="node44" class="node"><title>Node21</title>
<polygon fill="white" stroke="#bfbfbf" points="1015.72,-116.5 1015.72,-137.5 1071.72,-137.5 1071.72,-116.5 1015.72,-116.5"/>
<text text-anchor="middle" x="1043.72" y="-124.5" font-family="Helvetica,sans-Serif" font-size="10.00">Rtypes.h</text>
</g>
<!-- Node20&#45;&gt;Node21 -->
<g id="edge46" class="edge"><title>Node20&#45;&gt;Node21</title>
<path fill="none" stroke="midnightblue" d="M1419.69,-181.464C1412.43,-178.645 1404.36,-175.866 1396.72,-174 1262.62,-141.242 1221.15,-165.073 1082.06,-137.966"/>
<polygon fill="midnightblue" stroke="midnightblue" points="1082.36,-134.458 1071.87,-135.924 1080.99,-141.321 1082.36,-134.458"/>
</g>
<!-- Node22&#45;&gt;Node6 -->
<g id="edge56" class="edge"><title>Node22&#45;&gt;Node6</title>
<path fill="none" stroke="midnightblue" d="M2132.54,-428.804C2355.23,-418.476 3263.72,-372.798 3263.72,-315 3263.72,-315 3263.72,-315 3263.72,-192 3263.72,-154.812 3259.43,-136.969 3228.72,-116 3197.28,-94.5359 2632.79,-75.2966 2473.35,-70.2722"/>
<polygon fill="midnightblue" stroke="midnightblue" points="2473.11,-66.7633 2463.01,-69.9485 2472.89,-73.7598 2473.11,-66.7633"/>
</g>
<!-- Node23 -->
<g id="node52" class="node"><title>Node23</title>
<a xlink:href="_t_i_d_8h.html" target="_top" xlink:title="TID.h">
<polygon fill="white" stroke="black" points="2565.22,-304.5 2565.22,-325.5 2606.22,-325.5 2606.22,-304.5 2565.22,-304.5"/>
<text text-anchor="middle" x="2585.72" y="-312.5" font-family="Helvetica,sans-Serif" font-size="10.00">TID.h</text>
</a>
</g>
<!-- Node22&#45;&gt;Node23 -->
<g id="edge58" class="edge"><title>Node22&#45;&gt;Node23</title>
<path fill="none" stroke="midnightblue" d="M2132.57,-423.307C2184.27,-414.868 2268.13,-400.333 2339.72,-384 2434.95,-362.272 2458.11,-353.931 2551.72,-326 2552.79,-325.681 2553.87,-325.352 2554.97,-325.017"/>
<polygon fill="midnightblue" stroke="midnightblue" points="2556.41,-328.233 2564.91,-321.9 2554.32,-321.554 2556.41,-328.233"/>
</g>
<!-- Node32 -->
<g id="node79" class="node"><title>Node32</title>
<a xlink:href="_t_detector_read_hit_8h.html" target="_top" xlink:title="TDetectorReadHit.h">
<polygon fill="white" stroke="black" points="2210.72,-246.5 2210.72,-267.5 2314.72,-267.5 2314.72,-246.5 2210.72,-246.5"/>
<text text-anchor="middle" x="2262.72" y="-254.5" font-family="Helvetica,sans-Serif" font-size="10.00">TDetectorReadHit.h</text>
</a>
</g>
<!-- Node22&#45;&gt;Node32 -->
<g id="edge94" class="edge"><title>Node22&#45;&gt;Node32</title>
<path fill="none" stroke="midnightblue" d="M2085.67,-420.199C2090.57,-396.057 2105.63,-337.24 2140.72,-304 2157.36,-288.23 2179.87,-277.587 2201.02,-270.481"/>
<polygon fill="midnightblue" stroke="midnightblue" points="2202.13,-273.801 2210.62,-267.459 2200.03,-267.124 2202.13,-273.801"/>
</g>
<!-- Node38 -->
<g id="node106" class="node"><title>Node38</title>
<a xlink:href="_t_slow_control_8h.html" target="_top" xlink:title="TSlowControl.h">
<polygon fill="white" stroke="black" points="2732.72,-362.5 2732.72,-383.5 2816.72,-383.5 2816.72,-362.5 2732.72,-362.5"/>
<text text-anchor="middle" x="2774.72" y="-370.5" font-family="Helvetica,sans-Serif" font-size="10.00">TSlowControl.h</text>
</a>
</g>
<!-- Node22&#45;&gt;Node38 -->
<g id="edge136" class="edge"><title>Node22&#45;&gt;Node38</title>
<path fill="none" stroke="midnightblue" d="M2132.31,-426.922C2257.93,-416.377 2592.68,-388.28 2722.36,-377.394"/>
<polygon fill="midnightblue" stroke="midnightblue" points="2722.77,-380.873 2732.44,-376.548 2722.18,-373.897 2722.77,-380.873"/>
</g>
<!-- Node39 -->
<g id="node113" class="node"><title>Node39</title>
<a xlink:href="_t_unpacker_message_8h.html" target="_top" xlink:title="TUnpackerMessage.h">
<polygon fill="white" stroke="black" points="3291.22,-246.5 3291.22,-267.5 3404.22,-267.5 3404.22,-246.5 3291.22,-246.5"/>
<text text-anchor="middle" x="3347.72" y="-254.5" font-family="Helvetica,sans-Serif" font-size="10.00">TUnpackerMessage.h</text>
</a>
</g>
<!-- Node22&#45;&gt;Node39 -->
<g id="edge148" class="edge"><title>Node22&#45;&gt;Node39</title>
<path fill="none" stroke="midnightblue" d="M2132.34,-430.416C2350.22,-427.629 3228.27,-414.536 3277.72,-384 3316.27,-360.19 3335.22,-307.074 3343.07,-277.636"/>
<polygon fill="midnightblue" stroke="midnightblue" points="3346.54,-278.172 3345.55,-267.624 3339.74,-276.487 3346.54,-278.172"/>
</g>
<!-- Node47 -->
<g id="node137" class="node"><title>Node47</title>
<a xlink:href="_t_tagger_hit_8h.html" target="_top" xlink:title="TTaggerHit.h">
<polygon fill="white" stroke="black" points="2256.72,-362.5 2256.72,-383.5 2330.72,-383.5 2330.72,-362.5 2256.72,-362.5"/>
<text text-anchor="middle" x="2293.72" y="-370.5" font-family="Helvetica,sans-Serif" font-size="10.00">TTaggerHit.h</text>
</a>
</g>
<!-- Node22&#45;&gt;Node47 -->
<g id="edge180" class="edge"><title>Node22&#45;&gt;Node47</title>
<path fill="none" stroke="midnightblue" d="M2121.75,-420.497C2156.9,-410.787 2209.24,-396.331 2246.94,-385.919"/>
<polygon fill="midnightblue" stroke="midnightblue" points="2247.97,-389.267 2256.67,-383.231 2246.1,-382.519 2247.97,-389.267"/>
</g>
<!-- Node49 -->
<g id="node147" class="node"><title>Node49</title>
<a xlink:href="_t_trigger_8h.html" target="_top" xlink:title="TTrigger.h">
<polygon fill="white" stroke="black" points="1327.22,-181.5 1327.22,-202.5 1388.22,-202.5 1388.22,-181.5 1327.22,-181.5"/>
<text text-anchor="middle" x="1357.72" y="-189.5" font-family="Helvetica,sans-Serif" font-size="10.00">TTrigger.h</text>
</a>
</g>
<!-- Node22&#45;&gt;Node49 -->
<g id="edge196" class="edge"><title>Node22&#45;&gt;Node49</title>
<path fill="none" stroke="midnightblue" d="M2035.12,-429.139C1898.93,-423.04 1517.14,-399.62 1419.72,-326 1382.74,-298.059 1367.07,-242.748 1361.05,-212.663"/>
<polygon fill="midnightblue" stroke="midnightblue" points="1364.49,-212.025 1359.25,-202.818 1357.61,-213.285 1364.49,-212.025"/>
</g>
<!-- Node50 -->
<g id="node154" class="node"><title>Node50</title>
<a xlink:href="_t_target_8h.html" target="_top" xlink:title="TTarget.h">
<polygon fill="white" stroke="black" points="1777.22,-181.5 1777.22,-202.5 1836.22,-202.5 1836.22,-181.5 1777.22,-181.5"/>
<text text-anchor="middle" x="1806.72" y="-189.5" font-family="Helvetica,sans-Serif" font-size="10.00">TTarget.h</text>
</a>
</g>
<!-- Node22&#45;&gt;Node50 -->
<g id="edge208" class="edge"><title>Node22&#45;&gt;Node50</title>
<path fill="none" stroke="midnightblue" d="M2065.82,-420.465C2050.42,-411.241 2027.75,-397.274 2008.72,-384 1974.15,-359.894 1964.97,-354.265 1933.72,-326 1891.03,-287.394 1845.74,-237.018 1822.5,-210.378"/>
<polygon fill="midnightblue" stroke="midnightblue" points="1824.96,-207.87 1815.76,-202.608 1819.67,-212.456 1824.96,-207.87"/>
</g>
<!-- Node51 -->
<g id="node162" class="node"><title>Node51</title>
<a xlink:href="_t_cluster_8h.html" target="_top" xlink:title="TCluster.h">
<polygon fill="white" stroke="black" points="2014.72,-246.5 2014.72,-267.5 2076.72,-267.5 2076.72,-246.5 2014.72,-246.5"/>
<text text-anchor="middle" x="2045.72" y="-254.5" font-family="Helvetica,sans-Serif" font-size="10.00">TCluster.h</text>
</a>
</g>
<!-- Node22&#45;&gt;Node51 -->
<g id="edge222" class="edge"><title>Node22&#45;&gt;Node51</title>
<path fill="none" stroke="midnightblue" d="M2081.4,-420.377C2075.24,-392.172 2058.39,-315.012 2050.24,-277.72"/>
<polygon fill="midnightblue" stroke="midnightblue" points="2053.66,-276.951 2048.1,-267.928 2046.82,-278.444 2053.66,-276.951"/>
</g>
<!-- Node54 -->
<g id="node179" class="node"><title>Node54</title>
<a xlink:href="_t_candidate_8h.html" target="_top" xlink:title="TCandidate.h">
<polygon fill="white" stroke="black" points="1942.22,-304.5 1942.22,-325.5 2017.22,-325.5 2017.22,-304.5 1942.22,-304.5"/>
<text text-anchor="middle" x="1979.72" y="-312.5" font-family="Helvetica,sans-Serif" font-size="10.00">TCandidate.h</text>
</a>
</g>
<!-- Node22&#45;&gt;Node54 -->
<g id="edge250" class="edge"><title>Node22&#45;&gt;Node54</title>
<path fill="none" stroke="midnightblue" d="M2070.69,-420.427C2059.77,-411.29 2044.04,-397.469 2031.72,-384 2017.27,-368.201 2002.76,-348.57 1992.76,-334.291"/>
<polygon fill="midnightblue" stroke="midnightblue" points="1995.44,-332.016 1986.88,-325.775 1989.68,-335.993 1995.44,-332.016"/>
</g>
<!-- Node55 -->
<g id="node188" class="node"><title>Node55</title>
<a xlink:href="_t_particle_8h.html" target="_top" xlink:title="TParticle.h">
<polygon fill="white" stroke="black" points="468.716,-362.5 468.716,-383.5 532.716,-383.5 532.716,-362.5 468.716,-362.5"/>
<text text-anchor="middle" x="500.716" y="-370.5" font-family="Helvetica,sans-Serif" font-size="10.00">TParticle.h</text>
</a>
</g>
<!-- Node22&#45;&gt;Node55 -->
<g id="edge266" class="edge"><title>Node22&#45;&gt;Node55</title>
<path fill="none" stroke="midnightblue" d="M2035.04,-429.217C1797.9,-420.528 765.981,-382.719 543.209,-374.557"/>
<polygon fill="midnightblue" stroke="midnightblue" points="543.044,-371.049 532.922,-374.18 542.788,-378.044 543.044,-371.049"/>
</g>
<!-- Node23&#45;&gt;Node6 -->
<g id="edge62" class="edge"><title>Node23&#45;&gt;Node6</title>
<path fill="none" stroke="midnightblue" d="M2593.52,-304.141C2615.75,-271.767 2674.93,-174.536 2628.72,-116 2609.71,-91.9242 2525.1,-78.834 2473.14,-72.9384"/>
<polygon fill="midnightblue" stroke="midnightblue" points="2473.22,-69.4264 2462.9,-71.8212 2472.46,-76.3851 2473.22,-69.4264"/>
</g>
<!-- Node23&#45;&gt;Node7 -->
<g id="edge80" class="edge"><title>Node23&#45;&gt;Node7</title>
<path fill="none" stroke="midnightblue" d="M2606.51,-314.51C2731.7,-311.476 3380.69,-294.502 3412.72,-268 3439.54,-245.803 3431.72,-226.817 3431.72,-192 3431.72,-192 3431.72,-192 3431.72,-127 3431.72,-38.9036 2746.85,-16.2718 2569.99,-11.8962"/>
<polygon fill="midnightblue" stroke="midnightblue" points="2569.88,-8.39259 2559.8,-11.6505 2569.71,-15.3906 2569.88,-8.39259"/>
</g>
<!-- Node23&#45;&gt;Node11 -->
<g id="edge86" class="edge"><title>Node23&#45;&gt;Node11</title>
<path fill="none" stroke="midnightblue" d="M2578.39,-304.443C2554.06,-270.317 2471.92,-162.498 2374.72,-116 2321.83,-90.7032 2150.38,-76.6682 2071.76,-71.4207"/>
<polygon fill="midnightblue" stroke="midnightblue" points="2071.52,-67.8971 2061.31,-70.7383 2071.06,-74.8823 2071.52,-67.8971"/>
</g>
<!-- Node23&#45;&gt;Node19 -->
<g id="edge88" class="edge"><title>Node23&#45;&gt;Node19</title>
<path fill="none" stroke="midnightblue" d="M2564.97,-314.229C2515.01,-312.381 2384.06,-307.585 2274.72,-304 1744.98,-286.632 1611.69,-301.349 1082.72,-268 948.144,-259.516 569.391,-309.799 478.716,-210 463.562,-193.321 468.391,-166.092 474.459,-147.399"/>
<polygon fill="midnightblue" stroke="midnightblue" points="477.832,-148.363 477.935,-137.769 471.247,-145.986 477.832,-148.363"/>
</g>
<!-- Node23&#45;&gt;Node21 -->
<g id="edge60" class="edge"><title>Node23&#45;&gt;Node21</title>
<path fill="none" stroke="midnightblue" d="M2565,-314.184C2399.37,-307.565 1292.83,-261.615 1154.72,-210 1116.91,-195.871 1080.99,-164.625 1060.72,-144.758"/>
<polygon fill="midnightblue" stroke="midnightblue" points="1063.04,-142.13 1053.51,-137.514 1058.08,-147.07 1063.04,-142.13"/>
</g>
<!-- Node24 -->
<g id="node56" class="node"><title>Node24</title>
<a xlink:href="time_8h.html" target="_top" xlink:title="base/std_ext/time.h">
<polygon fill="white" stroke="black" points="2679.22,-246.5 2679.22,-267.5 2782.22,-267.5 2782.22,-246.5 2679.22,-246.5"/>
<text text-anchor="middle" x="2730.72" y="-254.5" font-family="Helvetica,sans-Serif" font-size="10.00">base/std_ext/time.h</text>
</a>
</g>
<!-- Node23&#45;&gt;Node24 -->
<g id="edge64" class="edge"><title>Node23&#45;&gt;Node24</title>
<path fill="none" stroke="midnightblue" d="M2606.49,-306.69C2629.54,-297.472 2667.13,-282.433 2694.94,-271.311"/>
<polygon fill="midnightblue" stroke="midnightblue" points="2696.34,-274.52 2704.32,-267.556 2693.74,-268.021 2696.34,-274.52"/>
</g>
<!-- Node28 -->
<g id="node67" class="node"><title>Node28</title>
<polygon fill="white" stroke="#bfbfbf" points="2655.22,-181.5 2655.22,-202.5 2696.22,-202.5 2696.22,-181.5 2655.22,-181.5"/>
<text text-anchor="middle" x="2675.72" y="-189.5" font-family="Helvetica,sans-Serif" font-size="10.00">ctime</text>
</g>
<!-- Node23&#45;&gt;Node28 -->
<g id="edge92" class="edge"><title>Node23&#45;&gt;Node28</title>
<path fill="none" stroke="midnightblue" d="M2596.27,-304.239C2605.11,-294.988 2617.83,-281.104 2627.72,-268 2641.57,-249.636 2655.38,-227.222 2664.61,-211.511"/>
<polygon fill="midnightblue" stroke="midnightblue" points="2667.74,-213.098 2669.72,-202.691 2661.68,-209.588 2667.74,-213.098"/>
</g>
<!-- Node29 -->
<g id="node70" class="node"><title>Node29</title>
<polygon fill="white" stroke="#bfbfbf" points="2799.72,-246.5 2799.72,-267.5 2837.72,-267.5 2837.72,-246.5 2799.72,-246.5"/>
<text text-anchor="middle" x="2818.72" y="-254.5" font-family="Helvetica,sans-Serif" font-size="10.00">tuple</text>
</g>
<!-- Node23&#45;&gt;Node29 -->
<g id="edge82" class="edge"><title>Node23&#45;&gt;Node29</title>
<path fill="none" stroke="midnightblue" d="M2606.35,-311.325C2642.02,-304.751 2717.57,-289.847 2789.86,-267.948"/>
<polygon fill="midnightblue" stroke="midnightblue" points="2791.04,-271.245 2799.57,-264.956 2788.98,-264.555 2791.04,-271.245"/>
</g>
<!-- Node30 -->
<g id="node72" class="node"><title>Node30</title>
<polygon fill="white" stroke="#bfbfbf" points="2573.72,-116.5 2573.72,-137.5 2619.72,-137.5 2619.72,-116.5 2573.72,-116.5"/>
<text text-anchor="middle" x="2596.72" y="-124.5" font-family="Helvetica,sans-Serif" font-size="10.00">cstdint</text>
</g>
<!-- Node23&#45;&gt;Node30 -->
<g id="edge84" class="edge"><title>Node23&#45;&gt;Node30</title>
<path fill="none" stroke="midnightblue" d="M2586.34,-304.354C2588.1,-274.172 2593.17,-187.656 2595.51,-147.693"/>
<polygon fill="midnightblue" stroke="midnightblue" points="2599.01,-147.717 2596.1,-137.53 2592.02,-147.308 2599.01,-147.717"/>
</g>
<!-- Node31 -->
<g id="node76" class="node"><title>Node31</title>
<polygon fill="white" stroke="#bfbfbf" points="2159.72,-181.5 2159.72,-202.5 2209.72,-202.5 2209.72,-181.5 2159.72,-181.5"/>
<text text-anchor="middle" x="2184.72" y="-189.5" font-family="Helvetica,sans-Serif" font-size="10.00">iomanip</text>
</g>
<!-- Node23&#45;&gt;Node31 -->
<g id="edge90" class="edge"><title>Node23&#45;&gt;Node31</title>
<path fill="none" stroke="midnightblue" d="M2565.16,-313.856C2489.42,-309.457 2228.9,-292.637 2201.72,-268 2186.59,-254.296 2183.39,-230.332 2183.31,-212.97"/>
<polygon fill="midnightblue" stroke="midnightblue" points="2186.82,-212.788 2183.62,-202.689 2179.82,-212.581 2186.82,-212.788"/>
</g>
<!-- Node25 -->
<g id="node58" class="node"><title>Node25</title>
<a xlink:href="string_8h.html" target="_top" xlink:title="base/std_ext/string.h">
<polygon fill="white" stroke="black" points="1613.72,-181.5 1613.72,-202.5 1721.72,-202.5 1721.72,-181.5 1613.72,-181.5"/>
<text text-anchor="middle" x="1667.72" y="-189.5" font-family="Helvetica,sans-Serif" font-size="10.00">base/std_ext/string.h</text>
</a>
</g>
<!-- Node24&#45;&gt;Node25 -->
<g id="edge66" class="edge"><title>Node24&#45;&gt;Node25</title>
<path fill="none" stroke="midnightblue" d="M2678.94,-255.343C2505.76,-249.665 1947.54,-230.22 1768.72,-210 1756.01,-208.563 1742.48,-206.516 1729.6,-204.314"/>
<polygon fill="midnightblue" stroke="midnightblue" points="1729.89,-200.811 1719.43,-202.524 1728.67,-207.705 1729.89,-200.811"/>
</g>
<!-- Node27 -->
<g id="node65" class="node"><title>Node27</title>
<polygon fill="white" stroke="#bfbfbf" points="2675.72,-116.5 2675.72,-137.5 2721.72,-137.5 2721.72,-116.5 2675.72,-116.5"/>
<text text-anchor="middle" x="2698.72" y="-124.5" font-family="Helvetica,sans-Serif" font-size="10.00">cstring</text>
</g>
<!-- Node24&#45;&gt;Node27 -->
<g id="edge76" class="edge"><title>Node24&#45;&gt;Node27</title>
<path fill="none" stroke="midnightblue" d="M2728.1,-246.362C2722.8,-224.841 2710.73,-175.807 2703.82,-147.74"/>
<polygon fill="midnightblue" stroke="midnightblue" points="2707.16,-146.659 2701.37,-137.785 2700.36,-148.332 2707.16,-146.659"/>
</g>
<!-- Node24&#45;&gt;Node28 -->
<g id="edge78" class="edge"><title>Node24&#45;&gt;Node28</title>
<path fill="none" stroke="midnightblue" d="M2721.63,-246.267C2713.38,-236.517 2701.04,-221.932 2691.23,-210.336"/>
<polygon fill="midnightblue" stroke="midnightblue" points="2693.76,-207.907 2684.63,-202.534 2688.42,-212.428 2693.76,-207.907"/>
</g>
<!-- Node25&#45;&gt;Node10 -->
<g id="edge72" class="edge"><title>Node25&#45;&gt;Node10</title>
<path fill="none" stroke="midnightblue" d="M1652.41,-181.3C1621.64,-159.801 1552.15,-111.232 1515.45,-85.5843"/>
<polygon fill="midnightblue" stroke="midnightblue" points="1517.07,-82.4475 1506.87,-79.588 1513.06,-88.1852 1517.07,-82.4475"/>
</g>
<!-- Node25&#45;&gt;Node15 -->
<g id="edge74" class="edge"><title>Node25&#45;&gt;Node15</title>
<path fill="none" stroke="midnightblue" d="M1624.52,-181.454C1582.33,-170.997 1516.38,-154.232 1459.72,-138 1392.21,-118.663 1313.91,-93.4246 1271.31,-79.4545"/>
<polygon fill="midnightblue" stroke="midnightblue" points="1272.37,-76.1189 1261.78,-76.3207 1270.18,-82.7688 1272.37,-76.1189"/>
</g>
<!-- Node25&#45;&gt;Node16 -->
<g id="edge68" class="edge"><title>Node25&#45;&gt;Node16</title>
<path fill="none" stroke="midnightblue" d="M1613.54,-185.933C1578.53,-182.15 1531.97,-177.376 1490.72,-174 1236.57,-153.198 1165,-191.42 912.239,-137.813"/>
<polygon fill="midnightblue" stroke="midnightblue" points="912.91,-134.377 902.398,-135.699 911.44,-141.221 912.91,-134.377"/>
</g>
<!-- Node26 -->
<g id="node61" class="node"><title>Node26</title>
<polygon fill="white" stroke="#bfbfbf" points="1713.72,-116.5 1713.72,-137.5 1765.72,-137.5 1765.72,-116.5 1713.72,-116.5"/>
<text text-anchor="middle" x="1739.72" y="-124.5" font-family="Helvetica,sans-Serif" font-size="10.00">sstream</text>
</g>
<!-- Node25&#45;&gt;Node26 -->
<g id="edge70" class="edge"><title>Node25&#45;&gt;Node26</title>
<path fill="none" stroke="midnightblue" d="M1679.61,-181.267C1690.72,-171.233 1707.51,-156.078 1720.52,-144.331"/>
<polygon fill="midnightblue" stroke="midnightblue" points="1722.97,-146.833 1728.05,-137.534 1718.28,-141.637 1722.97,-146.833"/>
</g>
<!-- Node32&#45;&gt;Node26 -->
<g id="edge134" class="edge"><title>Node32&#45;&gt;Node26</title>
<path fill="none" stroke="midnightblue" d="M2260.54,-246.405C2256.17,-228.117 2244.46,-190.959 2218.72,-174 2136.98,-120.146 1876.1,-155.051 1779.72,-138 1778.44,-137.774 1777.14,-137.526 1775.84,-137.259"/>
<polygon fill="midnightblue" stroke="midnightblue" points="1776.34,-133.782 1765.81,-134.926 1774.75,-140.6 1776.34,-133.782"/>
</g>
<!-- Node32&#45;&gt;Node31 -->
<g id="edge132" class="edge"><title>Node32&#45;&gt;Node31</title>
<path fill="none" stroke="midnightblue" d="M2249.84,-246.267C2237.68,-236.139 2219.27,-220.792 2205.12,-209"/>
<polygon fill="midnightblue" stroke="midnightblue" points="2207.28,-206.247 2197.36,-202.534 2202.8,-211.624 2207.28,-206.247"/>
</g>
<!-- Node33 -->
<g id="node81" class="node"><title>Node33</title>
<a xlink:href="_detector__t_8h.html" target="_top" xlink:title="base/Detector_t.h">
<polygon fill="white" stroke="black" points="2303.22,-181.5 2303.22,-202.5 2398.22,-202.5 2398.22,-181.5 2303.22,-181.5"/>
<text text-anchor="middle" x="2350.72" y="-189.5" font-family="Helvetica,sans-Serif" font-size="10.00">base/Detector_t.h</text>
</a>
</g>
<!-- Node32&#45;&gt;Node33 -->
<g id="edge96" class="edge"><title>Node32&#45;&gt;Node33</title>
<path fill="none" stroke="midnightblue" d="M2277.25,-246.267C2291.09,-236.044 2312.13,-220.504 2328.15,-208.67"/>
<polygon fill="midnightblue" stroke="midnightblue" points="2330.49,-211.29 2336.45,-202.534 2326.33,-205.66 2330.49,-211.29"/>
</g>
<!-- Node33&#45;&gt;Node6 -->
<g id="edge98" class="edge"><title>Node33&#45;&gt;Node6</title>
<path fill="none" stroke="midnightblue" d="M2357.9,-181.085C2371.63,-160.244 2401.73,-114.537 2418.95,-88.3837"/>
<polygon fill="midnightblue" stroke="midnightblue" points="2422.08,-89.9921 2424.66,-79.7153 2416.24,-86.1421 2422.08,-89.9921"/>
</g>
<!-- Node33&#45;&gt;Node7 -->
<g id="edge128" class="edge"><title>Node33&#45;&gt;Node7</title>
<path fill="none" stroke="midnightblue" d="M2363.25,-181.387C2385.8,-162.075 2434.36,-119.526 2471.72,-80 2487.1,-63.7288 2503.22,-43.9141 2514.38,-29.7"/>
<polygon fill="midnightblue" stroke="midnightblue" points="2517.26,-31.6981 2520.63,-21.6552 2511.73,-27.4013 2517.26,-31.6981"/>
</g>
<!-- Node33&#45;&gt;Node11 -->
<g id="edge124" class="edge"><title>Node33&#45;&gt;Node11</title>
<path fill="none" stroke="midnightblue" d="M2323.24,-181.407C2265.89,-159.291 2133.38,-108.201 2068.65,-83.2413"/>
<polygon fill="midnightblue" stroke="midnightblue" points="2069.83,-79.9435 2059.24,-79.6115 2067.31,-86.4748 2069.83,-79.9435"/>
</g>
<!-- Node33&#45;&gt;Node15 -->
<g id="edge130" class="edge"><title>Node33&#45;&gt;Node15</title>
<path fill="none" stroke="midnightblue" d="M2303.16,-184.617C2278.1,-180.953 2246.8,-176.737 2218.72,-174 1947.53,-147.573 1876.95,-172.801 1606.72,-138 1557.27,-131.632 1545.68,-125.374 1496.72,-116 1415.78,-100.507 1320.29,-83.3342 1271.66,-74.6677"/>
<polygon fill="midnightblue" stroke="midnightblue" points="1272.2,-71.2081 1261.74,-72.9014 1270.97,-78.0997 1272.2,-71.2081"/>
</g>
<!-- Node33&#45;&gt;Node16 -->
<g id="edge126" class="edge"><title>Node33&#45;&gt;Node16</title>
<path fill="none" stroke="midnightblue" d="M2303.2,-184.256C2278.14,-180.493 2246.84,-176.298 2218.72,-174 1932.16,-150.588 1212.39,-193.371 912.436,-137.724"/>
<polygon fill="midnightblue" stroke="midnightblue" points="912.861,-134.241 902.379,-135.789 911.538,-141.115 912.861,-134.241"/>
</g>
<!-- Node33&#45;&gt;Node30 -->
<g id="edge122" class="edge"><title>Node33&#45;&gt;Node30</title>
<path fill="none" stroke="midnightblue" d="M2390.51,-181.484C2438.71,-168.751 2518.98,-147.541 2563.83,-135.69"/>
<polygon fill="midnightblue" stroke="midnightblue" points="2564.86,-139.038 2573.63,-133.099 2563.07,-132.27 2564.86,-139.038"/>
</g>
<!-- Node34 -->
<g id="node84" class="node"><title>Node34</title>
<a xlink:href="vec3_8h.html" target="_top" xlink:title="base/vec/vec3.h">
<polygon fill="white" stroke="black" points="2277.22,-116.5 2277.22,-137.5 2366.22,-137.5 2366.22,-116.5 2277.22,-116.5"/>
<text text-anchor="middle" x="2321.72" y="-124.5" font-family="Helvetica,sans-Serif" font-size="10.00">base/vec/vec3.h</text>
</a>
</g>
<!-- Node33&#45;&gt;Node34 -->
<g id="edge100" class="edge"><title>Node33&#45;&gt;Node34</title>
<path fill="none" stroke="midnightblue" d="M2345.93,-181.267C2341.75,-171.896 2335.57,-158.057 2330.51,-146.7"/>
<polygon fill="midnightblue" stroke="midnightblue" points="2333.69,-145.24 2326.42,-137.534 2327.29,-148.092 2333.69,-145.24"/>
</g>
<!-- Node37 -->
<g id="node92" class="node"><title>Node37</title>
<a xlink:href="math_8h.html" target="_top" xlink:title="base/std_ext/math.h">
<polygon fill="white" stroke="black" points="1821.72,-116.5 1821.72,-137.5 1927.72,-137.5 1927.72,-116.5 1821.72,-116.5"/>
<text text-anchor="middle" x="1874.72" y="-124.5" font-family="Helvetica,sans-Serif" font-size="10.00">base/std_ext/math.h</text>
</a>
</g>
<!-- Node33&#45;&gt;Node37 -->
<g id="edge110" class="edge"><title>Node33&#45;&gt;Node37</title>
<path fill="none" stroke="midnightblue" d="M2318.69,-181.411C2309.42,-178.659 2299.24,-175.929 2289.72,-174 2166.53,-149.048 2019.9,-136.338 1938.05,-130.732"/>
<polygon fill="midnightblue" stroke="midnightblue" points="1938.12,-127.229 1927.91,-130.051 1937.66,-134.213 1938.12,-127.229"/>
</g>
<!-- Node34&#45;&gt;Node6 -->
<g id="edge102" class="edge"><title>Node34&#45;&gt;Node6</title>
<path fill="none" stroke="midnightblue" d="M2341.64,-116.497C2358.66,-107.519 2383.39,-94.4835 2402.63,-84.3387"/>
<polygon fill="midnightblue" stroke="midnightblue" points="2404.36,-87.3814 2411.57,-79.6212 2401.09,-81.1894 2404.36,-87.3814"/>
</g>
<!-- Node35 -->
<g id="node87" class="node"><title>Node35</title>
<a xlink:href="vec2_8h.html" target="_top" xlink:title="vec2.h">
<polygon fill="white" stroke="black" points="2277.72,-58.5 2277.72,-79.5 2323.72,-79.5 2323.72,-58.5 2277.72,-58.5"/>
<text text-anchor="middle" x="2300.72" y="-66.5" font-family="Helvetica,sans-Serif" font-size="10.00">vec2.h</text>
</a>
</g>
<!-- Node34&#45;&gt;Node35 -->
<g id="edge104" class="edge"><title>Node34&#45;&gt;Node35</title>
<path fill="none" stroke="midnightblue" d="M2317.86,-116.362C2315.11,-108.758 2311.32,-98.294 2308.01,-89.1349"/>
<polygon fill="midnightblue" stroke="midnightblue" points="2311.24,-87.7818 2304.54,-79.5707 2304.66,-90.1649 2311.24,-87.7818"/>
</g>
<!-- Node36 -->
<g id="node89" class="node"><title>Node36</title>
<polygon fill="white" stroke="#bfbfbf" points="2278.72,-0.5 2278.72,-21.5 2322.72,-21.5 2322.72,-0.5 2278.72,-0.5"/>
<text text-anchor="middle" x="2300.72" y="-8.5" font-family="Helvetica,sans-Serif" font-size="10.00">cmath</text>
</g>
<!-- Node34&#45;&gt;Node36 -->
<g id="edge108" class="edge"><title>Node34&#45;&gt;Node36</title>
<path fill="none" stroke="midnightblue" d="M2326.48,-116.029C2331.78,-102.233 2338.86,-77.9394 2332.72,-58 2329.56,-47.7466 2323.31,-37.7278 2317.17,-29.5925"/>
<polygon fill="midnightblue" stroke="midnightblue" points="2319.71,-27.1612 2310.7,-21.5822 2314.26,-31.5603 2319.71,-27.1612"/>
</g>
<!-- Node35&#45;&gt;Node36 -->
<g id="edge106" class="edge"><title>Node35&#45;&gt;Node36</title>
<path fill="none" stroke="midnightblue" d="M2300.72,-58.3619C2300.72,-50.9219 2300.72,-40.7427 2300.72,-31.7276"/>
<polygon fill="midnightblue" stroke="midnightblue" points="2304.22,-31.5706 2300.72,-21.5707 2297.22,-31.5707 2304.22,-31.5706"/>
</g>
<!-- Node37&#45;&gt;Node10 -->
<g id="edge118" class="edge"><title>Node37&#45;&gt;Node10</title>
<path fill="none" stroke="midnightblue" d="M1821.7,-118.22C1816.97,-117.46 1812.26,-116.711 1807.72,-116 1707.69,-100.351 1589.64,-83.1223 1530.13,-74.5234"/>
<polygon fill="midnightblue" stroke="midnightblue" points="1530.46,-71.0345 1520.06,-73.0701 1529.46,-77.9628 1530.46,-71.0345"/>
</g>
<!-- Node37&#45;&gt;Node11 -->
<g id="edge120" class="edge"><title>Node37&#45;&gt;Node11</title>
<path fill="none" stroke="midnightblue" d="M1903.15,-116.497C1928.52,-107.123 1965.87,-93.3242 1993.79,-83.0122"/>
<polygon fill="midnightblue" stroke="midnightblue" points="1995.06,-86.2716 2003.23,-79.5231 1992.64,-79.7054 1995.06,-86.2716"/>
</g>
<!-- Node37&#45;&gt;Node12 -->
<g id="edge114" class="edge"><title>Node37&#45;&gt;Node12</title>
<path fill="none" stroke="midnightblue" d="M1855.82,-116.362C1840,-107.45 1817.19,-94.6087 1799.32,-84.5447"/>
<polygon fill="midnightblue" stroke="midnightblue" points="1800.92,-81.4276 1790.49,-79.5707 1797.48,-87.5271 1800.92,-81.4276"/>
</g>
<!-- Node37&#45;&gt;Node15 -->
<g id="edge116" class="edge"><title>Node37&#45;&gt;Node15</title>
<path fill="none" stroke="midnightblue" d="M1821.38,-117.847C1816.76,-117.176 1812.16,-116.548 1807.72,-116 1604.56,-90.9584 1358.83,-75.697 1272,-70.7617"/>
<polygon fill="midnightblue" stroke="midnightblue" points="1272.16,-67.2653 1261.98,-70.1981 1271.76,-74.2542 1272.16,-67.2653"/>
</g>
<!-- Node37&#45;&gt;Node36 -->
<g id="edge112" class="edge"><title>Node37&#45;&gt;Node36</title>
<path fill="none" stroke="midnightblue" d="M1888.87,-116.401C1910.34,-100.908 1952.95,-72.3616 1993.72,-58 2089.75,-24.1717 2211.14,-14.6763 2268.24,-12.0224"/>
<polygon fill="midnightblue" stroke="midnightblue" points="2268.61,-15.51 2278.45,-11.5899 2268.31,-8.51622 2268.61,-15.51"/>
</g>
<!-- Node38&#45;&gt;Node6 -->
<g id="edge142" class="edge"><title>Node38&#45;&gt;Node6</title>
<path fill="none" stroke="midnightblue" d="M2816.74,-371.141C2928.7,-365.051 3225.72,-340.98 3225.72,-257 3225.72,-257 3225.72,-257 3225.72,-192 3225.72,-157.183 3233.5,-138.248 3206.72,-116 3178.3,-92.3978 2630.28,-74.754 2473.37,-70.1705"/>
<polygon fill="midnightblue" stroke="midnightblue" points="2473.28,-66.6666 2463.18,-69.8754 2473.07,-73.6636 2473.28,-66.6666"/>
</g>
<!-- Node38&#45;&gt;Node23 -->
<g id="edge138" class="edge"><title>Node38&#45;&gt;Node23</title>
<path fill="none" stroke="midnightblue" d="M2740.49,-362.497C2705.01,-351.61 2650.09,-334.754 2616.1,-324.324"/>
<polygon fill="midnightblue" stroke="midnightblue" points="2616.86,-320.895 2606.27,-321.307 2614.8,-327.587 2616.86,-320.895"/>
</g>
<!-- Node38&#45;&gt;Node24 -->
<g id="edge140" class="edge"><title>Node38&#45;&gt;Node24</title>
<path fill="none" stroke="midnightblue" d="M2770.66,-362.295C2763.32,-342.959 2747.76,-301.923 2738.37,-277.177"/>
<polygon fill="midnightblue" stroke="midnightblue" points="2741.59,-275.788 2734.77,-267.679 2735.04,-278.27 2741.59,-275.788"/>
</g>
<!-- Node38&#45;&gt;Node29 -->
<g id="edge146" class="edge"><title>Node38&#45;&gt;Node29</title>
<path fill="none" stroke="midnightblue" d="M2778.78,-362.295C2786.11,-342.959 2801.68,-301.923 2811.06,-277.177"/>
<polygon fill="midnightblue" stroke="midnightblue" points="2814.39,-278.27 2814.67,-267.679 2807.85,-275.788 2814.39,-278.27"/>
</g>
<!-- Node38&#45;&gt;Node30 -->
<g id="edge144" class="edge"><title>Node38&#45;&gt;Node30</title>
<path fill="none" stroke="midnightblue" d="M2789.01,-362.317C2816.7,-340.288 2872.71,-288.331 2846.72,-246 2799.33,-168.846 2686.33,-140.806 2629.93,-131.374"/>
<polygon fill="midnightblue" stroke="midnightblue" points="2630.18,-127.871 2619.76,-129.774 2629.09,-134.786 2630.18,-127.871"/>
</g>
<!-- Node39&#45;&gt;Node6 -->
<g id="edge178" class="edge"><title>Node39&#45;&gt;Node6</title>
<path fill="none" stroke="midnightblue" d="M3346.06,-246.113C3341.24,-218.701 3324.5,-146.832 3277.72,-116 3243.8,-93.647 2638.5,-74.8751 2473.15,-70.1477"/>
<polygon fill="midnightblue" stroke="midnightblue" points="2473.01,-66.6422 2462.91,-69.8568 2472.81,-73.6394 2473.01,-66.6422"/>
</g>
<!-- Node40 -->
<g id="node115" class="node"><title>Node40</title>
<a xlink:href="_format_8h.html" target="_top" xlink:title="base/Format.h">
<polygon fill="white" stroke="black" points="2837.72,-181.5 2837.72,-202.5 2917.72,-202.5 2917.72,-181.5 2837.72,-181.5"/>
<text text-anchor="middle" x="2877.72" y="-189.5" font-family="Helvetica,sans-Serif" font-size="10.00">base/Format.h</text>
</a>
</g>
<!-- Node39&#45;&gt;Node40 -->
<g id="edge150" class="edge"><title>Node39&#45;&gt;Node40</title>
<path fill="none" stroke="midnightblue" d="M3291.02,-249.159C3198.37,-236.346 3016.02,-211.127 2927.83,-198.931"/>
<polygon fill="midnightblue" stroke="midnightblue" points="2928.19,-195.448 2917.81,-197.545 2927.24,-202.382 2928.19,-195.448"/>
</g>
<!-- Node40&#45;&gt;Node11 -->
<g id="edge168" class="edge"><title>Node40&#45;&gt;Node11</title>
<path fill="none" stroke="midnightblue" d="M2866.21,-181.239C2846.82,-163.87 2805.63,-130.172 2763.72,-116 2730.73,-104.846 2219.64,-78.4367 2071.61,-70.9873"/>
<polygon fill="midnightblue" stroke="midnightblue" points="2071.75,-67.4902 2061.59,-70.4842 2071.4,-74.4814 2071.75,-67.4902"/>
</g>
<!-- Node40&#45;&gt;Node12 -->
<g id="edge164" class="edge"><title>Node40&#45;&gt;Node12</title>
<path fill="none" stroke="midnightblue" d="M2852.73,-181.423C2829.27,-171.203 2793.45,-154.832 2763.72,-138 2748.38,-129.315 2747.46,-121.518 2730.72,-116 2574.98,-64.6679 2157.49,-88.0574 1993.72,-80 1925.14,-76.6262 1844.65,-72.6287 1801.93,-70.504"/>
<polygon fill="midnightblue" stroke="midnightblue" points="1802.08,-67.007 1791.92,-70.0057 1801.73,-73.9984 1802.08,-67.007"/>
</g>
<!-- Node40&#45;&gt;Node15 -->
<g id="edge172" class="edge"><title>Node40&#45;&gt;Node15</title>
<path fill="none" stroke="midnightblue" d="M2837.58,-187.096C2802.56,-182.991 2750.35,-177.291 2704.72,-174 2506.85,-159.728 2003.23,-193.314 1812.72,-138 1793.97,-132.559 1793.32,-121.883 1774.72,-116 1726.8,-100.852 1380.22,-77.8883 1271.95,-71.013"/>
<polygon fill="midnightblue" stroke="midnightblue" points="1272.14,-67.5185 1261.94,-70.3805 1271.7,-74.5046 1272.14,-67.5185"/>
</g>
<!-- Node40&#45;&gt;Node16 -->
<g id="edge170" class="edge"><title>Node40&#45;&gt;Node16</title>
<path fill="none" stroke="midnightblue" d="M2837.59,-186.865C2802.58,-182.613 2750.38,-176.829 2704.72,-174 2508.74,-161.859 1148.54,-175.484 912.456,-137.592"/>
<polygon fill="midnightblue" stroke="midnightblue" points="912.833,-134.105 902.376,-135.809 911.613,-140.998 912.833,-134.105"/>
</g>
<!-- Node40&#45;&gt;Node18 -->
<g id="edge166" class="edge"><title>Node40&#45;&gt;Node18</title>
<path fill="none" stroke="midnightblue" d="M2837.59,-186.973C2802.57,-182.79 2750.36,-177.046 2704.72,-174 2545.29,-163.363 1373.97,-133.509 1151.98,-127.911"/>
<polygon fill="midnightblue" stroke="midnightblue" points="1151.93,-124.409 1141.84,-127.656 1151.75,-131.406 1151.93,-124.409"/>
</g>
<!-- Node40&#45;&gt;Node27 -->
<g id="edge162" class="edge"><title>Node40&#45;&gt;Node27</title>
<path fill="none" stroke="midnightblue" d="M2848.56,-181.412C2816.51,-169.773 2765.13,-151.117 2731.65,-138.959"/>
<polygon fill="midnightblue" stroke="midnightblue" points="2732.47,-135.533 2721.88,-135.41 2730.08,-142.113 2732.47,-135.533"/>
</g>
<!-- Node40&#45;&gt;Node36 -->
<g id="edge158" class="edge"><title>Node40&#45;&gt;Node36</title>
<path fill="none" stroke="midnightblue" d="M2869.83,-181.235C2856.94,-164.478 2829.66,-132.385 2798.72,-116 2716.11,-72.2645 2429.91,-29.1031 2333.05,-15.4385"/>
<polygon fill="midnightblue" stroke="midnightblue" points="2333.36,-11.9485 2322.97,-14.0276 2332.39,-18.8808 2333.36,-11.9485"/>
</g>
<!-- Node41 -->
<g id="node117" class="node"><title>Node41</title>
<polygon fill="white" stroke="#bfbfbf" points="2919.72,-116.5 2919.72,-137.5 3015.72,-137.5 3015.72,-116.5 2919.72,-116.5"/>
<text text-anchor="middle" x="2967.72" y="-124.5" font-family="Helvetica,sans-Serif" font-size="10.00">detail/fmt/format.h</text>
</g>
<!-- Node40&#45;&gt;Node41 -->
<g id="edge152" class="edge"><title>Node40&#45;&gt;Node41</title>
<path fill="none" stroke="midnightblue" d="M2892.58,-181.267C2906.73,-171.044 2928.25,-155.504 2944.63,-143.67"/>
<polygon fill="midnightblue" stroke="midnightblue" points="2947.07,-146.226 2953.13,-137.534 2942.97,-140.551 2947.07,-146.226"/>
</g>
<!-- Node42 -->
<g id="node119" class="node"><title>Node42</title>
<polygon fill="white" stroke="#bfbfbf" points="2059.22,-116.5 2059.22,-137.5 2108.22,-137.5 2108.22,-116.5 2059.22,-116.5"/>
<text text-anchor="middle" x="2083.72" y="-124.5" font-family="Helvetica,sans-Serif" font-size="10.00">cassert</text>
</g>
<!-- Node40&#45;&gt;Node42 -->
<g id="edge154" class="edge"><title>Node40&#45;&gt;Node42</title>
<path fill="none" stroke="midnightblue" d="M2837.55,-187.497C2802.5,-183.646 2750.28,-178.094 2704.72,-174 2481.52,-153.947 2212.68,-135.557 2118.4,-129.281"/>
<polygon fill="midnightblue" stroke="midnightblue" points="2118.5,-125.78 2108.29,-128.61 2118.04,-132.765 2118.5,-125.78"/>
</g>
<!-- Node43 -->
<g id="node121" class="node"><title>Node43</title>
<polygon fill="white" stroke="#bfbfbf" points="3033.22,-116.5 3033.22,-137.5 3080.22,-137.5 3080.22,-116.5 3033.22,-116.5"/>
<text text-anchor="middle" x="3056.72" y="-124.5" font-family="Helvetica,sans-Serif" font-size="10.00">clocale</text>
</g>
<!-- Node40&#45;&gt;Node43 -->
<g id="edge156" class="edge"><title>Node40&#45;&gt;Node43</title>
<path fill="none" stroke="midnightblue" d="M2906.87,-181.412C2938.75,-169.839 2989.73,-151.326 3023.22,-139.164"/>
<polygon fill="midnightblue" stroke="midnightblue" points="3024.8,-142.312 3033.01,-135.609 3022.41,-135.732 3024.8,-142.312"/>
</g>
<!-- Node44 -->
<g id="node124" class="node"><title>Node44</title>
<polygon fill="white" stroke="#bfbfbf" points="3097.22,-116.5 3097.22,-137.5 3140.22,-137.5 3140.22,-116.5 3097.22,-116.5"/>
<text text-anchor="middle" x="3118.72" y="-124.5" font-family="Helvetica,sans-Serif" font-size="10.00">cstdio</text>
</g>
<!-- Node40&#45;&gt;Node44 -->
<g id="edge160" class="edge"><title>Node40&#45;&gt;Node44</title>
<path fill="none" stroke="midnightblue" d="M2917.72,-183.033C2958.32,-173.65 3023.13,-157.906 3087.3,-138.251"/>
<polygon fill="midnightblue" stroke="midnightblue" points="3088.66,-141.495 3097.17,-135.194 3086.59,-134.808 3088.66,-141.495"/>
</g>
<!-- Node45 -->
<g id="node132" class="node"><title>Node45</title>
<polygon fill="white" stroke="#bfbfbf" points="3157.72,-116.5 3157.72,-137.5 3197.72,-137.5 3197.72,-116.5 3157.72,-116.5"/>
<text text-anchor="middle" x="3177.72" y="-124.5" font-family="Helvetica,sans-Serif" font-size="10.00">utility</text>
</g>
<!-- Node40&#45;&gt;Node45 -->
<g id="edge174" class="edge"><title>Node40&#45;&gt;Node45</title>
<path fill="none" stroke="midnightblue" d="M2918.16,-186.091C2969.64,-178.1 3061.32,-162.299 3147.87,-137.907"/>
<polygon fill="midnightblue" stroke="midnightblue" points="3148.93,-141.244 3157.58,-135.127 3147,-134.515 3148.93,-141.244"/>
</g>
<!-- Node46 -->
<g id="node134" class="node"><title>Node46</title>
<polygon fill="white" stroke="#bfbfbf" points="2853.22,-116.5 2853.22,-137.5 2902.22,-137.5 2902.22,-116.5 2853.22,-116.5"/>
<text text-anchor="middle" x="2877.72" y="-124.5" font-family="Helvetica,sans-Serif" font-size="10.00">stdint.h</text>
</g>
<!-- Node40&#45;&gt;Node46 -->
<g id="edge176" class="edge"><title>Node40&#45;&gt;Node46</title>
<path fill="none" stroke="midnightblue" d="M2877.72,-181.267C2877.72,-172.18 2877.72,-158.892 2877.72,-147.74"/>
<polygon fill="midnightblue" stroke="midnightblue" points="2881.22,-147.534 2877.72,-137.534 2874.22,-147.534 2881.22,-147.534"/>
</g>
<!-- Node47&#45;&gt;Node6 -->
<g id="edge184" class="edge"><title>Node47&#45;&gt;Node6</title>
<path fill="none" stroke="midnightblue" d="M2327.4,-362.397C2382.4,-342.827 2488.15,-295.06 2515.72,-210 2531.53,-161.19 2483.54,-111.283 2453.68,-85.9722"/>
<polygon fill="midnightblue" stroke="midnightblue" points="2455.75,-83.148 2445.8,-79.5068 2451.31,-88.5578 2455.75,-83.148"/>
</g>
<!-- Node47&#45;&gt;Node15 -->
<g id="edge190" class="edge"><title>Node47&#45;&gt;Node15</title>
<path fill="none" stroke="midnightblue" d="M2256.5,-369.205C2190.99,-362.288 2050.92,-346.438 1933.72,-326 1747.16,-293.467 1679.51,-317.659 1523.72,-210 1505.86,-197.661 1509.52,-184.843 1490.72,-174 1426.45,-136.936 1394.8,-169.679 1327.72,-138 1300.56,-125.177 1274.09,-102.657 1257.4,-86.8416"/>
<polygon fill="midnightblue" stroke="midnightblue" points="1259.64,-84.1403 1250.02,-79.6878 1254.76,-89.1637 1259.64,-84.1403"/>
</g>
<!-- Node47&#45;&gt;Node23 -->
<g id="edge182" class="edge"><title>Node47&#45;&gt;Node23</title>
<path fill="none" stroke="midnightblue" d="M2330.79,-367.829C2381.2,-360.438 2474.01,-345.557 2551.72,-326 2552.8,-325.727 2553.9,-325.439 2555,-325.138"/>
<polygon fill="midnightblue" stroke="midnightblue" points="2556.39,-328.379 2564.98,-322.19 2554.4,-321.666 2556.39,-328.379"/>
</g>
<!-- Node47&#45;&gt;Node26 -->
<g id="edge194" class="edge"><title>Node47&#45;&gt;Node26</title>
<path fill="none" stroke="midnightblue" d="M2300.59,-362.396C2314.14,-340.078 2341.48,-286.942 2323.72,-246 2314.39,-224.51 2268.17,-183.417 2246.72,-174 2152.43,-132.608 1890.47,-158.317 1775.92,-138.746"/>
<polygon fill="midnightblue" stroke="midnightblue" points="1776.44,-135.282 1765.96,-136.847 1775.13,-142.158 1776.44,-135.282"/>
</g>
<!-- Node47&#45;&gt;Node31 -->
<g id="edge192" class="edge"><title>Node47&#45;&gt;Node31</title>
<path fill="none" stroke="midnightblue" d="M2293.61,-362.271C2292.9,-347.389 2289.49,-320.46 2274.72,-304 2245.67,-271.63 2208.17,-303.97 2183.72,-268 2172.7,-251.797 2174.8,-228.824 2178.51,-212.384"/>
<polygon fill="midnightblue" stroke="midnightblue" points="2181.9,-213.222 2181.05,-202.661 2175.13,-211.449 2181.9,-213.222"/>
</g>
<!-- Node48 -->
<g id="node141" class="node"><title>Node48</title>
<a xlink:href="_lorentz_vec_8h.html" target="_top" xlink:title="base/vec/LorentzVec.h">
<polygon fill="white" stroke="black" points="2149.22,-304.5 2149.22,-325.5 2266.22,-325.5 2266.22,-304.5 2149.22,-304.5"/>
<text text-anchor="middle" x="2207.72" y="-312.5" font-family="Helvetica,sans-Serif" font-size="10.00">base/vec/LorentzVec.h</text>
</a>
</g>
<!-- Node47&#45;&gt;Node48 -->
<g id="edge186" class="edge"><title>Node47&#45;&gt;Node48</title>
<path fill="none" stroke="midnightblue" d="M2277.94,-362.362C2265.09,-353.696 2246.73,-341.313 2232.01,-331.382"/>
<polygon fill="midnightblue" stroke="midnightblue" points="2233.64,-328.26 2223.39,-325.571 2229.72,-334.064 2233.64,-328.26"/>
</g>
<!-- Node48&#45;&gt;Node34 -->
<g id="edge188" class="edge"><title>Node48&#45;&gt;Node34</title>
<path fill="none" stroke="midnightblue" d="M2266.4,-304.436C2316.06,-291.8 2382.85,-265.007 2406.72,-210 2413.08,-195.322 2414.84,-187.782 2406.72,-174 2398.06,-159.325 2383,-148.913 2367.93,-141.685"/>
<polygon fill="midnightblue" stroke="midnightblue" points="2369.18,-138.407 2358.61,-137.586 2366.36,-144.815 2369.18,-138.407"/>
</g>
<!-- Node49&#45;&gt;Node6 -->
<g id="edge200" class="edge"><title>Node49&#45;&gt;Node6</title>
<path fill="none" stroke="midnightblue" d="M1377.04,-181.389C1383.16,-178.495 1390.07,-175.694 1396.72,-174 1629.8,-114.611 1698.17,-168.848 1936.72,-138 1987.89,-131.382 1999.75,-124.052 2050.72,-116 2115.57,-105.754 2306.29,-83.4384 2390.71,-73.7015"/>
<polygon fill="midnightblue" stroke="midnightblue" points="2391.16,-77.172 2400.7,-72.5506 2390.36,-70.218 2391.16,-77.172"/>
</g>
<!-- Node49&#45;&gt;Node9 -->
<g id="edge198" class="edge"><title>Node49&#45;&gt;Node9</title>
<path fill="none" stroke="midnightblue" d="M1335.1,-181.376C1329.75,-178.913 1324.05,-176.331 1318.72,-174 1280.38,-157.229 1265.88,-162.163 1231.72,-138 1212.15,-124.163 1194.38,-103.101 1182.93,-87.8865"/>
<polygon fill="midnightblue" stroke="midnightblue" points="1185.68,-85.7143 1176.96,-79.7034 1180.03,-89.8431 1185.68,-85.7143"/>
</g>
<!-- Node49&#45;&gt;Node12 -->
<g id="edge204" class="edge"><title>Node49&#45;&gt;Node12</title>
<path fill="none" stroke="midnightblue" d="M1378.91,-181.473C1384.62,-178.846 1390.84,-176.164 1396.72,-174 1522.03,-127.874 1677.19,-90.4227 1741.55,-75.7162"/>
<polygon fill="midnightblue" stroke="midnightblue" points="1742.46,-79.0995 1751.44,-73.4739 1740.91,-72.2729 1742.46,-79.0995"/>
</g>
<!-- Node49&#45;&gt;Node18 -->
<g id="edge206" class="edge"><title>Node49&#45;&gt;Node18</title>
<path fill="none" stroke="midnightblue" d="M1337,-181.437C1331.19,-178.75 1324.79,-176.047 1318.72,-174 1248.41,-150.318 1227.73,-155.842 1155.72,-138 1154.46,-137.688 1153.18,-137.366 1151.89,-137.036"/>
<polygon fill="midnightblue" stroke="midnightblue" points="1152.48,-133.572 1141.92,-134.411 1150.7,-140.341 1152.48,-133.572"/>
</g>
<!-- Node49&#45;&gt;Node19 -->
<g id="edge202" class="edge"><title>Node49&#45;&gt;Node19</title>
<path fill="none" stroke="midnightblue" d="M1338.81,-181.486C1332.6,-178.521 1325.53,-175.655 1318.72,-174 970.513,-89.4051 858.661,-223.266 507.416,-137.586"/>
<polygon fill="midnightblue" stroke="midnightblue" points="508.034,-134.133 497.485,-135.121 506.347,-140.927 508.034,-134.133"/>
</g>
<!-- Node50&#45;&gt;Node6 -->
<g id="edge212" class="edge"><title>Node50&#45;&gt;Node6</title>
<path fill="none" stroke="midnightblue" d="M1825.96,-181.4C1831.83,-178.579 1838.4,-175.815 1844.72,-174 1975.9,-136.287 2015.39,-162.266 2149.72,-138 2236.57,-122.31 2336.54,-95.8025 2391.05,-80.6161"/>
<polygon fill="midnightblue" stroke="midnightblue" points="2392,-83.9846 2400.69,-77.9173 2390.11,-77.244 2392,-83.9846"/>
</g>
<!-- Node50&#45;&gt;Node9 -->
<g id="edge210" class="edge"><title>Node50&#45;&gt;Node9</title>
<path fill="none" stroke="midnightblue" d="M1776.9,-184.207C1762.95,-180.747 1746.05,-176.827 1730.72,-174 1611.23,-151.971 1579.26,-159.702 1459.72,-138 1347.06,-117.549 1319.62,-108.437 1208.72,-80 1207.27,-79.6287 1205.79,-79.2432 1204.3,-78.8485"/>
<polygon fill="midnightblue" stroke="midnightblue" points="1204.99,-75.4097 1194.43,-76.1616 1203.16,-82.1642 1204.99,-75.4097"/>
</g>
<!-- Node50&#45;&gt;Node18 -->
<g id="edge220" class="edge"><title>Node50&#45;&gt;Node18</title>
<path fill="none" stroke="midnightblue" d="M1776.97,-183.816C1763.03,-180.274 1746.12,-176.398 1730.72,-174 1512.94,-140.103 1247.82,-130.331 1152.24,-127.802"/>
<polygon fill="midnightblue" stroke="midnightblue" points="1152.05,-124.296 1141.96,-127.541 1151.87,-131.294 1152.05,-124.296"/>
</g>
<!-- Node50&#45;&gt;Node19 -->
<g id="edge218" class="edge"><title>Node50&#45;&gt;Node19</title>
<path fill="none" stroke="midnightblue" d="M1777.02,-183.487C1763.08,-179.876 1746.18,-176.036 1730.72,-174 1463.87,-138.851 786.517,-200.659 507.242,-137.457"/>
<polygon fill="midnightblue" stroke="midnightblue" points="508.013,-134.043 497.476,-135.155 506.407,-140.856 508.013,-134.043"/>
</g>
<!-- Node50&#45;&gt;Node34 -->
<g id="edge216" class="edge"><title>Node50&#45;&gt;Node34</title>
<path fill="none" stroke="midnightblue" d="M1825.55,-181.495C1831.51,-178.606 1838.24,-175.78 1844.72,-174 2008.72,-128.912 2056.55,-155.682 2225.72,-138 2239.01,-136.61 2253.33,-135.02 2266.75,-133.488"/>
<polygon fill="midnightblue" stroke="midnightblue" points="2267.27,-136.952 2276.8,-132.333 2266.47,-129.998 2267.27,-136.952"/>
</g>
<!-- Node50&#45;&gt;Node37 -->
<g id="edge214" class="edge"><title>Node50&#45;&gt;Node37</title>
<path fill="none" stroke="midnightblue" d="M1817.94,-181.267C1828.34,-171.328 1844,-156.363 1856.24,-144.664"/>
<polygon fill="midnightblue" stroke="midnightblue" points="1858.89,-146.974 1863.7,-137.534 1854.05,-141.913 1858.89,-146.974"/>
</g>
<!-- Node51&#45;&gt;Node15 -->
<g id="edge240" class="edge"><title>Node51&#45;&gt;Node15</title>
<path fill="none" stroke="midnightblue" d="M2014.44,-254.938C1927.19,-248.984 1682.43,-230.856 1604.72,-210 1566.67,-199.788 1560.92,-186.95 1523.72,-174 1463.04,-152.88 1444.08,-159.986 1383.72,-138 1342.06,-122.829 1296.25,-99.6855 1267.74,-84.4509"/>
<polygon fill="midnightblue" stroke="midnightblue" points="1269.22,-81.2761 1258.76,-79.6105 1265.9,-87.4374 1269.22,-81.2761"/>
</g>
<!-- Node51&#45;&gt;Node18 -->
<g id="edge248" class="edge"><title>Node51&#45;&gt;Node18</title>
<path fill="none" stroke="midnightblue" d="M2014.71,-256.61C1870.86,-254.625 1272.32,-244.347 1196.72,-210 1180.87,-202.8 1149.48,-167.461 1130.77,-145.28"/>
<polygon fill="midnightblue" stroke="midnightblue" points="1133.37,-142.94 1124.28,-137.509 1128,-147.428 1133.37,-142.94"/>
</g>
<!-- Node51&#45;&gt;Node26 -->
<g id="edge246" class="edge"><title>Node51&#45;&gt;Node26</title>
<path fill="none" stroke="midnightblue" d="M2042.29,-246.301C2035.88,-228.195 2020.3,-191.756 1993.72,-174 1913.51,-120.429 1873.89,-158.814 1779.72,-138 1778.45,-137.72 1777.16,-137.425 1775.87,-137.119"/>
<polygon fill="midnightblue" stroke="midnightblue" points="1776.42,-133.65 1765.87,-134.603 1774.71,-140.438 1776.42,-133.65"/>
</g>
<!-- Node51&#45;&gt;Node31 -->
<g id="edge244" class="edge"><title>Node51&#45;&gt;Node31</title>
<path fill="none" stroke="midnightblue" d="M2068.36,-246.412C2091.28,-235.694 2126.92,-219.025 2152.72,-206.96"/>
<polygon fill="midnightblue" stroke="midnightblue" points="2154.51,-209.99 2162.08,-202.584 2151.54,-203.649 2154.51,-209.99"/>
</g>
<!-- Node51&#45;&gt;Node33 -->
<g id="edge224" class="edge"><title>Node51&#45;&gt;Node33</title>
<path fill="none" stroke="midnightblue" d="M2076.92,-250.349C2127.72,-239.523 2229.06,-217.927 2293.18,-204.261"/>
<polygon fill="midnightblue" stroke="midnightblue" points="2294.09,-207.647 2303.14,-202.139 2292.63,-200.8 2294.09,-207.647"/>
</g>
<!-- Node51&#45;&gt;Node34 -->
<g id="edge238" class="edge"><title>Node51&#45;&gt;Node34</title>
<path fill="none" stroke="midnightblue" d="M2060.15,-246.367C2072.81,-236.965 2091.66,-222.795 2107.72,-210 2127.21,-194.467 2128.64,-185.568 2150.72,-174 2170.91,-163.417 2224.99,-149.346 2266.97,-139.366"/>
<polygon fill="midnightblue" stroke="midnightblue" points="2267.88,-142.748 2276.81,-137.049 2266.28,-135.934 2267.88,-142.748"/>
</g>
<!-- Node51&#45;&gt;Node36 -->
<g id="edge242" class="edge"><title>Node51&#45;&gt;Node36</title>
<path fill="none" stroke="midnightblue" d="M2052.46,-246.447C2063.16,-230.077 2085.15,-197.959 2107.72,-174 2163.4,-114.889 2239.49,-56.0164 2277.35,-27.9591"/>
<polygon fill="midnightblue" stroke="midnightblue" points="2279.71,-30.5687 2285.68,-21.8211 2275.56,-24.9318 2279.71,-30.5687"/>
</g>
<!-- Node51&#45;&gt;Node37 -->
<g id="edge226" class="edge"><title>Node51&#45;&gt;Node37</title>
<path fill="none" stroke="midnightblue" d="M2047.18,-246.346C2048.95,-228.956 2049.71,-194.372 2031.72,-174 2018.96,-159.563 1975.78,-147.25 1937.93,-138.853"/>
<polygon fill="midnightblue" stroke="midnightblue" points="1938.44,-135.384 1927.93,-136.696 1936.97,-142.226 1938.44,-135.384"/>
</g>
<!-- Node52 -->
<g id="node166" class="node"><title>Node52</title>
<a xlink:href="shared__ptr__container_8h.html" target="_top" xlink:title="base/std_ext/shared\l_ptr_container.h">
<polygon fill="white" stroke="black" points="1205.22,-175 1205.22,-209 1310.22,-209 1310.22,-175 1205.22,-175"/>
<text text-anchor="start" x="1213.22" y="-196" font-family="Helvetica,sans-Serif" font-size="10.00">base/std_ext/shared</text>
<text text-anchor="middle" x="1257.72" y="-183" font-family="Helvetica,sans-Serif" font-size="10.00">_ptr_container.h</text>
</a>
</g>
<!-- Node51&#45;&gt;Node52 -->
<g id="edge228" class="edge"><title>Node51&#45;&gt;Node52</title>
<path fill="none" stroke="midnightblue" d="M2014.34,-255.901C1895.88,-251.612 1475.04,-235.065 1320.66,-210.075"/>
<polygon fill="midnightblue" stroke="midnightblue" points="1320.89,-206.565 1310.45,-208.34 1319.72,-213.466 1320.89,-206.565"/>
</g>
<!-- Node52&#45;&gt;Node10 -->
<g id="edge236" class="edge"><title>Node52&#45;&gt;Node10</title>
<path fill="none" stroke="midnightblue" d="M1283.68,-174.948C1308.76,-158.816 1348.08,-134.4 1383.72,-116 1407.04,-103.96 1434.12,-92.179 1455.33,-83.4237"/>
<polygon fill="midnightblue" stroke="midnightblue" points="1456.69,-86.6468 1464.63,-79.6238 1454.05,-80.1671 1456.69,-86.6468"/>
</g>
<!-- Node52&#45;&gt;Node15 -->
<g id="edge230" class="edge"><title>Node52&#45;&gt;Node15</title>
<path fill="none" stroke="midnightblue" d="M1246.94,-174.739C1241.18,-164.485 1234.68,-150.985 1231.72,-138 1228.07,-122.043 1230.54,-103.612 1233.67,-89.8154"/>
<polygon fill="midnightblue" stroke="midnightblue" points="1237.12,-90.4353 1236.21,-79.8798 1230.34,-88.7009 1237.12,-90.4353"/>
</g>
<!-- Node52&#45;&gt;Node18 -->
<g id="edge232" class="edge"><title>Node52&#45;&gt;Node18</title>
<path fill="none" stroke="midnightblue" d="M1220.41,-174.922C1198.03,-164.68 1169.85,-151.777 1148.36,-141.941"/>
<polygon fill="midnightblue" stroke="midnightblue" points="1149.55,-138.638 1139,-137.658 1146.64,-145.003 1149.55,-138.638"/>
</g>
<!-- Node52&#45;&gt;Node53 -->
<g id="edge234" class="edge"><title>Node52&#45;&gt;Node53</title>
<path fill="none" stroke="midnightblue" d="M1205.09,-188.75C1041.5,-178.608 547.964,-147.705 461.451,-137.639"/>
<polygon fill="midnightblue" stroke="midnightblue" points="461.829,-134.158 451.445,-136.259 460.873,-141.092 461.829,-134.158"/>
</g>
<!-- Node54&#45;&gt;Node10 -->
<g id="edge264" class="edge"><title>Node54&#45;&gt;Node10</title>
<path fill="none" stroke="midnightblue" d="M1941.98,-312.071C1870.61,-304.974 1713.28,-281.769 1604.72,-210 1556.54,-178.156 1519.22,-119.205 1502.06,-88.5937"/>
<polygon fill="midnightblue" stroke="midnightblue" points="1505.07,-86.8143 1497.2,-79.7213 1498.93,-90.1741 1505.07,-86.8143"/>
</g>
<!-- Node54&#45;&gt;Node15 -->
<g id="edge256" class="edge"><title>Node54&#45;&gt;Node15</title>
<path fill="none" stroke="midnightblue" d="M1941.93,-314.666C1752.47,-312.586 912.297,-298.399 842.716,-210 830.748,-194.796 849.202,-119.282 852.716,-116 909.857,-62.6308 1126.02,-95.2067 1202.72,-80 1204.39,-79.6685 1206.09,-79.2942 1207.81,-78.889"/>
<polygon fill="midnightblue" stroke="midnightblue" points="1208.8,-82.2465 1217.58,-76.3115 1207.02,-75.478 1208.8,-82.2465"/>
</g>
<!-- Node54&#45;&gt;Node18 -->
<g id="edge262" class="edge"><title>Node54&#45;&gt;Node18</title>
<path fill="none" stroke="midnightblue" d="M1942.05,-312.358C1789.04,-301.337 1219.05,-257.391 1154.72,-210 1134.48,-195.091 1124.37,-167 1119.59,-147.659"/>
<polygon fill="midnightblue" stroke="midnightblue" points="1122.97,-146.718 1117.41,-137.7 1116.13,-148.218 1122.97,-146.718"/>
</g>
<!-- Node54&#45;&gt;Node26 -->
<g id="edge260" class="edge"><title>Node54&#45;&gt;Node26</title>
<path fill="none" stroke="midnightblue" d="M1981.97,-304.437C1986.87,-278.392 1995.38,-210.567 1960.72,-174 1903.89,-114.065 1857.44,-156.793 1776.11,-139.108"/>
<polygon fill="midnightblue" stroke="midnightblue" points="1776.56,-135.615 1766.01,-136.641 1774.89,-142.415 1776.56,-135.615"/>
</g>
<!-- Node54&#45;&gt;Node31 -->
<g id="edge258" class="edge"><title>Node54&#45;&gt;Node31</title>
<path fill="none" stroke="midnightblue" d="M2008.52,-304.385C2030.37,-295.826 2060.79,-282.805 2085.72,-268 2115.09,-250.552 2145.83,-225.767 2165.12,-209.302"/>
<polygon fill="midnightblue" stroke="midnightblue" points="2167.61,-211.776 2172.89,-202.59 2163.03,-206.48 2167.61,-211.776"/>
</g>
<!-- Node54&#45;&gt;Node33 -->
<g id="edge254" class="edge"><title>Node54&#45;&gt;Node33</title>
<path fill="none" stroke="midnightblue" d="M2017.41,-310.371C2105.48,-299.485 2317.79,-272.818 2323.72,-268 2340.2,-254.595 2346.63,-230.376 2349.13,-212.874"/>
<polygon fill="midnightblue" stroke="midnightblue" points="2352.66,-212.848 2350.28,-202.524 2345.7,-212.08 2352.66,-212.848"/>
</g>
<!-- Node54&#45;&gt;Node51 -->
<g id="edge252" class="edge"><title>Node54&#45;&gt;Node51</title>
<path fill="none" stroke="midnightblue" d="M1991.82,-304.362C2001.4,-295.941 2014.98,-284.011 2026.11,-274.231"/>
<polygon fill="midnightblue" stroke="midnightblue" points="2028.49,-276.801 2033.69,-267.571 2023.87,-271.543 2028.49,-276.801"/>
</g>
<!-- Node55&#45;&gt;Node6 -->
<g id="edge270" class="edge"><title>Node55&#45;&gt;Node6</title>
<path fill="none" stroke="midnightblue" d="M532.806,-372.703C724.631,-370.823 1721.62,-359.56 2025.72,-326 2077.44,-320.292 2089.54,-313.411 2140.72,-304 2231.27,-287.35 2262.36,-309.151 2344.72,-268 2378.47,-251.134 2388.72,-243.166 2406.72,-210 2427.75,-171.225 2431.64,-118.46 2432.04,-89.7284"/>
<polygon fill="midnightblue" stroke="midnightblue" points="2435.54,-89.6491 2432.05,-79.6461 2428.54,-89.6431 2435.54,-89.6491"/>
</g>
<!-- Node55&#45;&gt;Node9 -->
<g id="edge272" class="edge"><title>Node55&#45;&gt;Node9</title>
<path fill="none" stroke="midnightblue" d="M468.489,-370.346C412.731,-365.232 294.987,-352.136 198.716,-326 130.935,-307.598 104.153,-314.726 51.716,-268 1.12277,-222.916 -14.3173,-156.897 39.716,-116 84.4237,-82.1611 949.205,-71.2884 1134.82,-69.3401"/>
<polygon fill="midnightblue" stroke="midnightblue" points="1135.13,-72.8372 1145.1,-69.2342 1135.06,-65.8376 1135.13,-72.8372"/>
</g>
<!-- Node55&#45;&gt;Node15 -->
<g id="edge306" class="edge"><title>Node55&#45;&gt;Node15</title>
<path fill="none" stroke="midnightblue" d="M478.614,-362.364C436.827,-340.719 348.143,-286.991 322.716,-210 308.005,-165.457 328.711,-136.882 370.716,-116 453.573,-74.8091 1111.46,-95.2996 1202.72,-80 1204.4,-79.7181 1206.11,-79.3837 1207.83,-79.0099"/>
<polygon fill="midnightblue" stroke="midnightblue" points="1208.78,-82.3788 1217.62,-76.5307 1207.07,-75.593 1208.78,-82.3788"/>
</g>
<!-- Node55&#45;&gt;Node18 -->
<g id="edge312" class="edge"><title>Node55&#45;&gt;Node18</title>
<path fill="none" stroke="midnightblue" d="M532.976,-363.94C610.025,-341.839 810.156,-281.681 968.716,-210 1013.06,-189.955 1061.71,-160.999 1090.44,-143.121"/>
<polygon fill="midnightblue" stroke="midnightblue" points="1092.42,-146.01 1099.03,-137.732 1088.7,-140.079 1092.42,-146.01"/>
</g>
<!-- Node55&#45;&gt;Node19 -->
<g id="edge308" class="edge"><title>Node55&#45;&gt;Node19</title>
<path fill="none" stroke="midnightblue" d="M489.237,-362.329C452.039,-327.689 336.962,-220.035 332.716,-210 326.482,-195.265 323.068,-186.764 332.716,-174 366.229,-129.667 400.962,-155.623 458.038,-137.966"/>
<polygon fill="midnightblue" stroke="midnightblue" points="459.477,-141.172 467.782,-134.592 457.187,-134.557 459.477,-141.172"/>
</g>
<!-- Node55&#45;&gt;Node48 -->
<g id="edge304" class="edge"><title>Node55&#45;&gt;Node48</title>
<path fill="none" stroke="midnightblue" d="M532.726,-364.432C537.39,-363.45 542.156,-362.591 546.716,-362 888.612,-317.661 1753.61,-347.168 2097.72,-326 2111,-325.183 2125.15,-324.002 2138.73,-322.714"/>
<polygon fill="midnightblue" stroke="midnightblue" points="2139.37,-326.168 2148.98,-321.712 2138.69,-319.201 2139.37,-326.168"/>
</g>
<!-- Node55&#45;&gt;Node54 -->
<g id="edge268" class="edge"><title>Node55&#45;&gt;Node54</title>
<path fill="none" stroke="midnightblue" d="M532.731,-364.472C537.394,-363.485 542.159,-362.613 546.716,-362 823.417,-324.768 1715.52,-316.698 1932.04,-315.271"/>
<polygon fill="midnightblue" stroke="midnightblue" points="1932.15,-318.77 1942.13,-315.206 1932.11,-311.77 1932.15,-318.77"/>
</g>
<!-- Node56 -->
<g id="node193" class="node"><title>Node56</title>
<a xlink:href="_particle_type_8h.html" target="_top" xlink:title="base/ParticleType.h">
<polygon fill="white" stroke="black" points="29.716,-181.5 29.716,-202.5 133.716,-202.5 133.716,-181.5 29.716,-181.5"/>
<text text-anchor="middle" x="81.716" y="-189.5" font-family="Helvetica,sans-Serif" font-size="10.00">base/ParticleType.h</text>
</a>
</g>
<!-- Node55&#45;&gt;Node56 -->
<g id="edge274" class="edge"><title>Node55&#45;&gt;Node56</title>
<path fill="none" stroke="midnightblue" d="M468.62,-365.88C368.5,-343.598 68.1856,-276.2 61.716,-268 48.9288,-251.794 58.2434,-228.196 68.0007,-211.605"/>
<polygon fill="midnightblue" stroke="midnightblue" points="71.2166,-213.071 73.6332,-202.755 65.3112,-209.312 71.2166,-213.071"/>
</g>
<!-- Node59 -->
<g id="node204" class="node"><title>Node59</title>
<a xlink:href="_tree_8h.html" target="_top" xlink:title="base/Tree.h">
<polygon fill="white" stroke="black" points="487.716,-181.5 487.716,-202.5 555.716,-202.5 555.716,-181.5 487.716,-181.5"/>
<text text-anchor="middle" x="521.716" y="-189.5" font-family="Helvetica,sans-Serif" font-size="10.00">base/Tree.h</text>
</a>
</g>
<!-- Node55&#45;&gt;Node59 -->
<g id="edge290" class="edge"><title>Node55&#45;&gt;Node59</title>
<path fill="none" stroke="midnightblue" d="M501.73,-362.235C503.027,-348.652 505.386,-324.578 507.716,-304 511.318,-272.185 516.025,-235.356 518.959,-212.875"/>
<polygon fill="midnightblue" stroke="midnightblue" points="522.45,-213.172 520.281,-202.802 515.51,-212.262 522.45,-213.172"/>
</g>
<!-- Node61 -->
<g id="node216" class="node"><title>Node61</title>
<polygon fill="white" stroke="#bfbfbf" points="516.716,-304.5 516.716,-325.5 570.716,-325.5 570.716,-304.5 516.716,-304.5"/>
<text text-anchor="middle" x="543.716" y="-312.5" font-family="Helvetica,sans-Serif" font-size="10.00">iostream</text>
</g>
<!-- Node55&#45;&gt;Node61 -->
<g id="edge310" class="edge"><title>Node55&#45;&gt;Node61</title>
<path fill="none" stroke="midnightblue" d="M508.603,-362.362C514.543,-354.35 522.838,-343.161 529.875,-333.67"/>
<polygon fill="midnightblue" stroke="midnightblue" points="532.735,-335.688 535.879,-325.571 527.112,-331.519 532.735,-335.688"/>
</g>
<!-- Node56&#45;&gt;Node5 -->
<g id="edge278" class="edge"><title>Node56&#45;&gt;Node5</title>
<path fill="none" stroke="midnightblue" d="M134.082,-187.692C184.834,-183.647 264.006,-177.683 332.716,-174 828.639,-147.418 1429.97,-132.224 1605.43,-128.133"/>
<polygon fill="midnightblue" stroke="midnightblue" points="1605.73,-131.627 1615.64,-127.896 1605.56,-124.629 1605.73,-131.627"/>
</g>
<!-- Node56&#45;&gt;Node8 -->
<g id="edge282" class="edge"><title>Node56&#45;&gt;Node8</title>
<path fill="none" stroke="midnightblue" d="M68.3013,-181.464C49.9886,-165.851 21.4155,-136.239 39.716,-116 108.626,-39.79 868.86,-16.273 1044.61,-11.8367"/>
<polygon fill="midnightblue" stroke="midnightblue" points="1044.72,-15.335 1054.63,-11.5884 1044.55,-8.33711 1044.72,-15.335"/>
</g>
<!-- Node56&#45;&gt;Node9 -->
<g id="edge276" class="edge"><title>Node56&#45;&gt;Node9</title>
<path fill="none" stroke="midnightblue" d="M70.7197,-181.335C55.464,-165.285 31.6822,-134.806 49.716,-116 88.1806,-75.8874 949.898,-69.9381 1134.93,-69.1221"/>
<polygon fill="midnightblue" stroke="midnightblue" points="1135.18,-72.6212 1145.17,-69.0793 1135.15,-65.6213 1135.18,-72.6212"/>
</g>
<!-- Node56&#45;&gt;Node15 -->
<g id="edge288" class="edge"><title>Node56&#45;&gt;Node15</title>
<path fill="none" stroke="midnightblue" d="M87.5864,-181.463C97.9312,-164.096 121.23,-129.995 151.716,-116 257.908,-67.2525 1087.39,-98.8012 1202.72,-80 1204.4,-79.7257 1206.11,-79.3973 1207.83,-79.0283"/>
<polygon fill="midnightblue" stroke="midnightblue" points="1208.78,-82.3989 1217.62,-76.5641 1207.07,-75.6106 1208.78,-82.3989"/>
</g>
<!-- Node56&#45;&gt;Node16 -->
<g id="edge280" class="edge"><title>Node56&#45;&gt;Node16</title>
<path fill="none" stroke="midnightblue" d="M133.898,-187.76C286.789,-175.338 730.52,-139.285 851.143,-129.484"/>
<polygon fill="midnightblue" stroke="midnightblue" points="851.481,-132.968 861.164,-128.67 850.914,-125.991 851.481,-132.968"/>
</g>
<!-- Node56&#45;&gt;Node57 -->
<g id="edge284" class="edge"><title>Node56&#45;&gt;Node57</title>
<path fill="none" stroke="midnightblue" d="M97.5684,-181.267C112.806,-170.949 136.043,-155.216 153.58,-143.342"/>
<polygon fill="midnightblue" stroke="midnightblue" points="155.84,-146.038 162.159,-137.534 151.916,-140.242 155.84,-146.038"/>
</g>
<!-- Node58 -->
<g id="node201" class="node"><title>Node58</title>
<polygon fill="white" stroke="#bfbfbf" points="58.216,-116.5 58.216,-137.5 105.216,-137.5 105.216,-116.5 58.216,-116.5"/>
<text text-anchor="middle" x="81.716" y="-124.5" font-family="Helvetica,sans-Serif" font-size="10.00">iterator</text>
</g>
<!-- Node56&#45;&gt;Node58 -->
<g id="edge286" class="edge"><title>Node56&#45;&gt;Node58</title>
<path fill="none" stroke="midnightblue" d="M81.716,-181.267C81.716,-172.18 81.716,-158.892 81.716,-147.74"/>
<polygon fill="midnightblue" stroke="midnightblue" points="85.2161,-147.534 81.716,-137.534 78.2161,-147.534 85.2161,-147.534"/>
</g>
<!-- Node59&#45;&gt;Node10 -->
<g id="edge300" class="edge"><title>Node59&#45;&gt;Node10</title>
<path fill="none" stroke="midnightblue" d="M547.621,-181.426C554.709,-178.769 562.444,-176.085 569.716,-174 647.304,-151.759 668.661,-154.276 747.716,-138 794.416,-128.385 805.502,-122.652 852.716,-116 969.929,-99.4847 1333.9,-77.9455 1453.32,-71.1502"/>
<polygon fill="midnightblue" stroke="midnightblue" points="1453.67,-74.6363 1463.46,-70.5758 1453.27,-67.6475 1453.67,-74.6363"/>
</g>
<!-- Node59&#45;&gt;Node15 -->
<g id="edge298" class="edge"><title>Node59&#45;&gt;Node15</title>
<path fill="none" stroke="midnightblue" d="M548.473,-181.471C555.352,-178.901 562.772,-176.247 569.716,-174 662.657,-143.93 685.543,-133.121 781.716,-116 966.603,-83.086 1018.2,-114.939 1202.72,-80 1204.39,-79.6828 1206.1,-79.3201 1207.82,-78.924"/>
<polygon fill="midnightblue" stroke="midnightblue" points="1208.8,-82.2848 1217.59,-76.375 1207.03,-75.5112 1208.8,-82.2848"/>
</g>
<!-- Node59&#45;&gt;Node18 -->
<g id="edge294" class="edge"><title>Node59&#45;&gt;Node18</title>
<path fill="none" stroke="midnightblue" d="M555.744,-186.22C579.498,-182.34 611.971,-177.346 640.716,-174 832.374,-151.691 886.369,-174.853 1079.6,-137.853"/>
<polygon fill="midnightblue" stroke="midnightblue" points="1080.36,-141.271 1089.5,-135.927 1079.02,-134.4 1080.36,-141.271"/>
</g>
<!-- Node59&#45;&gt;Node19 -->
<g id="edge296" class="edge"><title>Node59&#45;&gt;Node19</title>
<path fill="none" stroke="midnightblue" d="M515.276,-181.267C509.597,-171.801 501.182,-157.777 494.33,-146.357"/>
<polygon fill="midnightblue" stroke="midnightblue" points="497.182,-144.308 489.036,-137.534 491.18,-147.909 497.182,-144.308"/>
</g>
<!-- Node59&#45;&gt;Node42 -->
<g id="edge302" class="edge"><title>Node59&#45;&gt;Node42</title>
<path fill="none" stroke="midnightblue" d="M555.951,-185.685C579.659,-181.592 611.995,-176.561 640.716,-174 1214.66,-122.815 1361.25,-167.507 1936.72,-138 1975.07,-136.033 2018.97,-132.592 2048.74,-130.081"/>
<polygon fill="midnightblue" stroke="midnightblue" points="2049.36,-133.541 2059.03,-129.203 2048.77,-126.566 2049.36,-133.541"/>
</g>
<!-- Node60 -->
<g id="node206" class="node"><title>Node60</title>
<polygon fill="white" stroke="#bfbfbf" points="514.716,-116.5 514.716,-137.5 634.716,-137.5 634.716,-116.5 514.716,-116.5"/>
<text text-anchor="middle" x="574.716" y="-124.5" font-family="Helvetica,sans-Serif" font-size="10.00">base/cereal/access.hpp</text>
</g>
<!-- Node59&#45;&gt;Node60 -->
<g id="edge292" class="edge"><title>Node59&#45;&gt;Node60</title>
<path fill="none" stroke="midnightblue" d="M530.468,-181.267C538.417,-171.517 550.31,-156.932 559.765,-145.336"/>
<polygon fill="midnightblue" stroke="midnightblue" points="562.52,-147.496 566.127,-137.534 557.095,-143.072 562.52,-147.496"/>
</g>
<!-- Node62&#45;&gt;Node16 -->
<g id="edge316" class="edge"><title>Node62&#45;&gt;Node16</title>
<path fill="none" stroke="midnightblue" d="M905.927,-181.267C901.746,-171.896 895.572,-158.057 890.505,-146.7"/>
<polygon fill="midnightblue" stroke="midnightblue" points="893.686,-145.24 886.416,-137.534 887.294,-148.092 893.686,-145.24"/>
</g>
<!-- Node62&#45;&gt;Node18 -->
<g id="edge318" class="edge"><title>Node62&#45;&gt;Node18</title>
<path fill="none" stroke="midnightblue" d="M944.109,-181.412C981.394,-169.59 1041.52,-150.527 1079.8,-138.389"/>
<polygon fill="midnightblue" stroke="midnightblue" points="1081.03,-141.67 1089.5,-135.311 1078.91,-134.997 1081.03,-141.67"/>
</g>
<!-- Node62&#45;&gt;Node26 -->
<g id="edge324" class="edge"><title>Node62&#45;&gt;Node26</title>
<path fill="none" stroke="midnightblue" d="M959.984,-188.806C1120.53,-178.38 1622.52,-145.627 1703.47,-137.239"/>
<polygon fill="midnightblue" stroke="midnightblue" points="1704.03,-140.696 1713.51,-135.967 1703.15,-133.752 1704.03,-140.696"/>
</g>
<!-- Node62&#45;&gt;Node57 -->
<g id="edge320" class="edge"><title>Node62&#45;&gt;Node57</title>
<path fill="none" stroke="midnightblue" d="M861.473,-184.723C836.18,-181.154 804.842,-176.99 776.716,-174 557.103,-150.652 291.04,-133.776 205.568,-128.636"/>
<polygon fill="midnightblue" stroke="midnightblue" points="205.58,-125.131 195.389,-128.029 205.163,-132.119 205.58,-125.131"/>
</g>
<!-- Node63 -->
<g id="node224" class="node"><title>Node63</title>
<polygon fill="white" stroke="#bfbfbf" points="919.716,-116.5 919.716,-137.5 949.716,-137.5 949.716,-116.5 919.716,-116.5"/>
<text text-anchor="middle" x="934.716" y="-124.5" font-family="Helvetica,sans-Serif" font-size="10.00">set</text>
</g>
<!-- Node62&#45;&gt;Node63 -->
<g id="edge322" class="edge"><title>Node62&#45;&gt;Node63</title>
<path fill="none" stroke="midnightblue" d="M914.679,-181.267C918.104,-171.991 923.146,-158.336 927.315,-147.045"/>
<polygon fill="midnightblue" stroke="midnightblue" points="930.646,-148.127 930.827,-137.534 924.079,-145.702 930.646,-148.127"/>
</g>
<!-- Node64&#45;&gt;Node15 -->
<g id="edge332" class="edge"><title>Node64&#45;&gt;Node15</title>
<path fill="none" stroke="midnightblue" d="M379.711,-174.715C373.993,-157.459 369.017,-131.359 383.716,-116 415.205,-83.0961 1157.8,-87.5459 1202.72,-80 1204.4,-79.7176 1206.11,-79.3826 1207.83,-79.0085"/>
<polygon fill="midnightblue" stroke="midnightblue" points="1208.79,-82.3772 1217.62,-76.5281 1207.07,-75.5917 1208.79,-82.3772"/>
</g>
<!-- Node64&#45;&gt;Node16 -->
<g id="edge328" class="edge"><title>Node64&#45;&gt;Node16</title>
<path fill="none" stroke="midnightblue" d="M432.453,-182.33C447.181,-179.409 463.6,-176.357 478.716,-174 616.836,-152.467 782.993,-136.075 850.716,-129.793"/>
<polygon fill="midnightblue" stroke="midnightblue" points="851.452,-133.24 861.09,-128.839 850.811,-126.27 851.452,-133.24"/>
</g>
<!-- Node64&#45;&gt;Node18 -->
<g id="edge334" class="edge"><title>Node64&#45;&gt;Node18</title>
<path fill="none" stroke="midnightblue" d="M432.381,-181.817C447.104,-178.869 463.54,-175.93 478.716,-174 741.363,-140.605 815.316,-185.425 1079.63,-137.799"/>
<polygon fill="midnightblue" stroke="midnightblue" points="1080.31,-141.233 1089.52,-135.991 1079.05,-134.347 1080.31,-141.233"/>
</g>
<!-- Node64&#45;&gt;Node19 -->
<g id="edge330" class="edge"><title>Node64&#45;&gt;Node19</title>
<path fill="none" stroke="midnightblue" d="M411.939,-174.922C426.752,-164.892 445.334,-152.311 459.74,-142.556"/>
<polygon fill="midnightblue" stroke="midnightblue" points="461.782,-145.401 468.1,-136.896 457.857,-139.605 461.782,-145.401"/>
</g>
<!-- Node64&#45;&gt;Node21 -->
<g id="edge338" class="edge"><title>Node64&#45;&gt;Node21</title>
<path fill="none" stroke="midnightblue" d="M432.399,-181.954C447.123,-179.014 463.555,-176.044 478.716,-174 690.73,-145.411 745.891,-159.736 958.716,-138 973.963,-136.443 990.701,-134.358 1005.26,-132.422"/>
<polygon fill="midnightblue" stroke="midnightblue" points="1005.99,-135.856 1015.43,-131.049 1005.05,-128.919 1005.99,-135.856"/>
</g>
<!-- Node64&#45;&gt;Node53 -->
<g id="edge336" class="edge"><title>Node64&#45;&gt;Node53</title>
<path fill="none" stroke="midnightblue" d="M395.912,-174.922C400.552,-166.304 406.207,-155.802 411.039,-146.828"/>
<polygon fill="midnightblue" stroke="midnightblue" points="414.213,-148.316 415.873,-137.852 408.05,-144.997 414.213,-148.316"/>
</g>
<!-- Node68&#45;&gt;Node16 -->
<g id="edge370" class="edge"><title>Node68&#45;&gt;Node16</title>
<path fill="none" stroke="midnightblue" d="M487.183,-420.267C477.478,-411.646 465.189,-398.6 459.716,-384 456.284,-374.844 456.516,-371.239 459.716,-362 477.119,-311.759 562.027,-201.194 607.716,-174 610.336,-172.441 779.626,-144.045 850.765,-132.162"/>
<polygon fill="midnightblue" stroke="midnightblue" points="851.622,-135.567 860.909,-130.468 850.469,-128.663 851.622,-135.567"/>
</g>
<!-- Node68&#45;&gt;Node48 -->
<g id="edge368" class="edge"><title>Node68&#45;&gt;Node48</title>
<path fill="none" stroke="midnightblue" d="M552.798,-426.661C578.632,-424.556 610.309,-422.047 638.716,-420 1286.82,-373.294 1450.11,-379.225 2097.72,-326 2110.98,-324.91 2125.12,-323.604 2138.7,-322.278"/>
<polygon fill="midnightblue" stroke="midnightblue" points="2139.34,-325.732 2148.95,-321.264 2138.66,-318.766 2139.34,-325.732"/>
</g>
<!-- Node68&#45;&gt;Node55 -->
<g id="edge358" class="edge"><title>Node68&#45;&gt;Node55</title>
<path fill="none" stroke="midnightblue" d="M500.716,-420.362C500.716,-412.922 500.716,-402.743 500.716,-393.728"/>
<polygon fill="midnightblue" stroke="midnightblue" points="504.216,-393.571 500.716,-383.571 497.216,-393.571 504.216,-393.571"/>
</g>
<!-- Node69 -->
<g id="node249" class="node"><title>Node69</title>
<a xlink:href="_particle_type_tree_8h.html" target="_top" xlink:title="base/ParticleTypeTree.h">
<polygon fill="white" stroke="black" points="70.216,-246.5 70.216,-267.5 193.216,-267.5 193.216,-246.5 70.216,-246.5"/>
<text text-anchor="middle" x="131.716" y="-254.5" font-family="Helvetica,sans-Serif" font-size="10.00">base/ParticleTypeTree.h</text>
</a>
</g>
<!-- Node68&#45;&gt;Node69 -->
<g id="edge360" class="edge"><title>Node68&#45;&gt;Node69</title>
<path fill="none" stroke="midnightblue" d="M463.172,-420.433C434.574,-411.9 394.5,-398.89 360.716,-384 283.752,-350.079 198.429,-298.858 157.025,-273.057"/>
<polygon fill="midnightblue" stroke="midnightblue" points="158.739,-270.001 148.407,-267.658 155.023,-275.933 158.739,-270.001"/>
</g>
<!-- Node69&#45;&gt;Node56 -->
<g id="edge362" class="edge"><title>Node69&#45;&gt;Node56</title>
<path fill="none" stroke="midnightblue" d="M123.459,-246.267C116.033,-236.612 104.958,-222.215 96.0814,-210.675"/>
<polygon fill="midnightblue" stroke="midnightblue" points="98.6902,-208.326 89.8188,-202.534 93.1418,-212.594 98.6902,-208.326"/>
</g>
<!-- Node69&#45;&gt;Node57 -->
<g id="edge366" class="edge"><title>Node69&#45;&gt;Node57</title>
<path fill="none" stroke="midnightblue" d="M135.48,-246.362C143.129,-224.746 160.6,-175.372 170.508,-147.369"/>
<polygon fill="midnightblue" stroke="midnightblue" points="173.863,-148.38 173.9,-137.785 167.264,-146.045 173.863,-148.38"/>
</g>
<!-- Node69&#45;&gt;Node59 -->
<g id="edge364" class="edge"><title>Node69&#45;&gt;Node59</title>
<path fill="none" stroke="midnightblue" d="M193.482,-248.859C256.006,-240.325 355.374,-225.954 440.716,-210 452.774,-207.746 465.773,-205 477.752,-202.338"/>
<polygon fill="midnightblue" stroke="midnightblue" points="478.546,-205.747 487.532,-200.135 477.008,-198.918 478.546,-205.747"/>
</g>
</g>
</svg>
