<?xml version="1.0" encoding="UTF-8" standalone="no"?>
<!DOCTYPE svg PUBLIC "-//W3C//DTD SVG 1.1//EN"
 "http://www.w3.org/Graphics/SVG/1.1/DTD/svg11.dtd">
<!-- Generated by graphviz version 2.26.3 (20100126.1600)
 -->
<!-- Title: src/analysis/utils/particle_tools.cc Pages: 1 -->
<svg width="1840pt" height="522pt"
 viewBox="0.00 0.00 1840.00 522.00" xmlns="http://www.w3.org/2000/svg" xmlns:xlink="http://www.w3.org/1999/xlink">
<g id="graph1" class="graph" transform="scale(1 1) rotate(0) translate(4 518)">
<title>src/analysis/utils/particle_tools.cc</title>
<polygon fill="white" stroke="white" points="-4,5 -4,-518 1837,-518 1837,5 -4,5"/>
<!-- Node1 -->
<g id="node1" class="node"><title>Node1</title>
<polygon fill="#bfbfbf" stroke="black" points="1490.5,-479 1490.5,-513 1581.5,-513 1581.5,-479 1490.5,-479"/>
<text text-anchor="start" x="1498.5" y="-500" font-family="Helvetica,sans-Serif" font-size="10.00">src/analysis/utils</text>
<text text-anchor="middle" x="1536" y="-487" font-family="Helvetica,sans-Serif" font-size="10.00">/particle_tools.cc</text>
</g>
<!-- Node2 -->
<g id="node3" class="node"><title>Node2</title>
<a xlink:href="particle__tools_8h.html" target="_top" xlink:title="particle_tools.h">
<polygon fill="white" stroke="black" points="229.5,-420.5 229.5,-441.5 312.5,-441.5 312.5,-420.5 229.5,-420.5"/>
<text text-anchor="middle" x="271" y="-428.5" font-family="Helvetica,sans-Serif" font-size="10.00">particle_tools.h</text>
</a>
</g>
<!-- Node1&#45;&gt;Node2 -->
<g id="edge2" class="edge"><title>Node1&#45;&gt;Node2</title>
<path fill="none" stroke="midnightblue" d="M1490.37,-495.68C1331.58,-494.195 788.666,-486.004 343,-442 336.559,-441.364 329.815,-440.543 323.146,-439.635"/>
<polygon fill="midnightblue" stroke="midnightblue" points="323.18,-436.104 312.785,-438.153 322.188,-443.034 323.18,-436.104"/>
</g>
<!-- Node13 -->
<g id="node27" class="node"><title>Node13</title>
<a xlink:href="math_8h.html" target="_top" xlink:title="base/std_ext/math.h">
<polygon fill="white" stroke="black" points="708,-116.5 708,-137.5 814,-137.5 814,-116.5 708,-116.5"/>
<text text-anchor="middle" x="761" y="-124.5" font-family="Helvetica,sans-Serif" font-size="10.00">base/std_ext/math.h</text>
</a>
</g>
<!-- Node1&#45;&gt;Node13 -->
<g id="edge172" class="edge"><title>Node1&#45;&gt;Node13</title>
<path fill="none" stroke="midnightblue" d="M1500.17,-478.942C1369.02,-416.496 916.267,-200.927 792.489,-141.993"/>
<polygon fill="midnightblue" stroke="midnightblue" points="793.703,-138.695 783.17,-137.556 790.694,-145.015 793.703,-138.695"/>
</g>
<!-- Node14 -->
<g id="node30" class="node"><title>Node14</title>
<polygon fill="white" stroke="#bfbfbf" points="725,-58.5 725,-79.5 765,-79.5 765,-58.5 725,-58.5"/>
<text text-anchor="middle" x="745" y="-66.5" font-family="Helvetica,sans-Serif" font-size="10.00">limits</text>
</g>
<!-- Node1&#45;&gt;Node14 -->
<g id="edge184" class="edge"><title>Node1&#45;&gt;Node14</title>
<path fill="none" stroke="midnightblue" d="M1509.69,-478.822C1485.21,-463.03 1447.56,-439.224 1414,-420 1171.34,-281.014 868.847,-130.075 774.492,-83.495"/>
<polygon fill="midnightblue" stroke="midnightblue" points="775.786,-80.2304 765.269,-78.9469 772.69,-86.5086 775.786,-80.2304"/>
</g>
<!-- Node22 -->
<g id="node51" class="node"><title>Node22</title>
<polygon fill="white" stroke="#bfbfbf" points="1531.5,-116.5 1531.5,-137.5 1590.5,-137.5 1590.5,-116.5 1531.5,-116.5"/>
<text text-anchor="middle" x="1561" y="-124.5" font-family="Helvetica,sans-Serif" font-size="10.00">functional</text>
</g>
<!-- Node1&#45;&gt;Node22 -->
<g id="edge182" class="edge"><title>Node1&#45;&gt;Node22</title>
<path fill="none" stroke="midnightblue" d="M1540.41,-478.614C1546.02,-454.905 1555,-411.029 1555,-373 1555,-373 1555,-373 1555,-257 1555,-218.425 1557.67,-173.48 1559.45,-147.82"/>
<polygon fill="midnightblue" stroke="midnightblue" points="1562.94,-148.003 1560.17,-137.778 1555.96,-147.503 1562.94,-148.003"/>
</g>
<!-- Node24 -->
<g id="node59" class="node"><title>Node24</title>
<polygon fill="white" stroke="#bfbfbf" points="529,-181.5 529,-202.5 581,-202.5 581,-181.5 529,-181.5"/>
<text text-anchor="middle" x="555" y="-189.5" font-family="Helvetica,sans-Serif" font-size="10.00">sstream</text>
</g>
<!-- Node1&#45;&gt;Node24 -->
<g id="edge178" class="edge"><title>Node1&#45;&gt;Node24</title>
<path fill="none" stroke="midnightblue" d="M1490.4,-493.338C1342.61,-484.127 878.676,-450.467 746,-384 663.105,-342.472 594.589,-251.001 567.484,-211.167"/>
<polygon fill="midnightblue" stroke="midnightblue" points="570.246,-209.001 561.777,-202.634 564.427,-212.893 570.246,-209.001"/>
</g>
<!-- Node34 -->
<g id="node99" class="node"><title>Node34</title>
<polygon fill="white" stroke="#bfbfbf" points="1389.5,-116.5 1389.5,-137.5 1438.5,-137.5 1438.5,-116.5 1389.5,-116.5"/>
<text text-anchor="middle" x="1414" y="-124.5" font-family="Helvetica,sans-Serif" font-size="10.00">cassert</text>
</g>
<!-- Node1&#45;&gt;Node34 -->
<g id="edge180" class="edge"><title>Node1&#45;&gt;Node34</title>
<path fill="none" stroke="midnightblue" d="M1531.59,-478.614C1525.98,-454.905 1517,-411.029 1517,-373 1517,-373 1517,-373 1517,-257 1517,-207.205 1470,-165.364 1439.5,-143.452"/>
<polygon fill="midnightblue" stroke="midnightblue" points="1441.22,-140.386 1431.01,-137.558 1437.23,-146.136 1441.22,-140.386"/>
</g>
<!-- Node38 -->
<g id="node116" class="node"><title>Node38</title>
<a xlink:href="combinatorics_8h.html" target="_top" xlink:title="combinatorics.h">
<polygon fill="white" stroke="black" points="1651,-181.5 1651,-202.5 1737,-202.5 1737,-181.5 1651,-181.5"/>
<text text-anchor="middle" x="1694" y="-189.5" font-family="Helvetica,sans-Serif" font-size="10.00">combinatorics.h</text>
</a>
</g>
<!-- Node1&#45;&gt;Node38 -->
<g id="edge156" class="edge"><title>Node1&#45;&gt;Node38</title>
<path fill="none" stroke="midnightblue" d="M1547.08,-478.712C1553.67,-468.223 1562.08,-454.493 1569,-442 1615.51,-358.091 1664.73,-254.684 1684.74,-211.937"/>
<polygon fill="midnightblue" stroke="midnightblue" points="1688.02,-213.187 1689.08,-202.645 1681.68,-210.227 1688.02,-213.187"/>
</g>
<!-- Node41 -->
<g id="node125" class="node"><title>Node41</title>
<a xlink:href="_logger_8h.html" target="_top" xlink:title="base/Logger.h">
<polygon fill="white" stroke="black" points="1621,-420.5 1621,-441.5 1699,-441.5 1699,-420.5 1621,-420.5"/>
<text text-anchor="middle" x="1660" y="-428.5" font-family="Helvetica,sans-Serif" font-size="10.00">base/Logger.h</text>
</a>
</g>
<!-- Node1&#45;&gt;Node41 -->
<g id="edge168" class="edge"><title>Node1&#45;&gt;Node41</title>
<path fill="none" stroke="midnightblue" d="M1568.58,-478.922C1587.85,-468.818 1612.07,-456.126 1630.73,-446.342"/>
<polygon fill="midnightblue" stroke="midnightblue" points="1632.44,-449.401 1639.67,-441.658 1629.19,-443.201 1632.44,-449.401"/>
</g>
<!-- Node43 -->
<g id="node130" class="node"><title>Node43</title>
<polygon fill="white" stroke="#bfbfbf" points="1717,-420.5 1717,-441.5 1761,-441.5 1761,-420.5 1717,-420.5"/>
<text text-anchor="middle" x="1739" y="-428.5" font-family="Helvetica,sans-Serif" font-size="10.00">TH1.h</text>
</g>
<!-- Node1&#45;&gt;Node43 -->
<g id="edge174" class="edge"><title>Node1&#45;&gt;Node43</title>
<path fill="none" stroke="midnightblue" d="M1581.78,-482.13C1614.35,-472.147 1659.35,-458.126 1707.1,-442.232"/>
<polygon fill="midnightblue" stroke="midnightblue" points="1708.31,-445.519 1716.68,-439.029 1706.09,-438.88 1708.31,-445.519"/>
</g>
<!-- Node44 -->
<g id="node132" class="node"><title>Node44</title>
<polygon fill="white" stroke="#bfbfbf" points="1779,-420.5 1779,-441.5 1829,-441.5 1829,-420.5 1779,-420.5"/>
<text text-anchor="middle" x="1804" y="-428.5" font-family="Helvetica,sans-Serif" font-size="10.00">TTree.h</text>
</g>
<!-- Node1&#45;&gt;Node44 -->
<g id="edge176" class="edge"><title>Node1&#45;&gt;Node44</title>
<path fill="none" stroke="midnightblue" d="M1581.59,-486.696C1626.83,-477.191 1698.32,-461.445 1768.88,-442.157"/>
<polygon fill="midnightblue" stroke="midnightblue" points="1770.11,-445.447 1778.82,-439.413 1768.25,-438.699 1770.11,-445.447"/>
</g>
<!-- Node3 -->
<g id="node5" class="node"><title>Node3</title>
<a xlink:href="_t_particle_8h.html" target="_top" xlink:title="tree/TParticle.h">
<polygon fill="white" stroke="black" points="754.5,-362.5 754.5,-383.5 837.5,-383.5 837.5,-362.5 754.5,-362.5"/>
<text text-anchor="middle" x="796" y="-370.5" font-family="Helvetica,sans-Serif" font-size="10.00">tree/TParticle.h</text>
</a>
</g>
<!-- Node2&#45;&gt;Node3 -->
<g id="edge4" class="edge"><title>Node2&#45;&gt;Node3</title>
<path fill="none" stroke="midnightblue" d="M312.635,-426.4C407.693,-415.899 640.477,-390.182 744.416,-378.699"/>
<polygon fill="midnightblue" stroke="midnightblue" points="744.806,-382.177 754.361,-377.6 744.037,-375.219 744.806,-382.177"/>
</g>
<!-- Node19 -->
<g id="node41" class="node"><title>Node19</title>
<polygon fill="white" stroke="#bfbfbf" points="191.5,-116.5 191.5,-137.5 232.5,-137.5 232.5,-116.5 191.5,-116.5"/>
<text text-anchor="middle" x="212" y="-124.5" font-family="Helvetica,sans-Serif" font-size="10.00">string</text>
</g>
<!-- Node2&#45;&gt;Node19 -->
<g id="edge154" class="edge"><title>Node2&#45;&gt;Node19</title>
<path fill="none" stroke="midnightblue" d="M229.053,-422.82C176.712,-409.894 94,-379.296 94,-315 94,-315 94,-315 94,-257 94,-204.397 147.626,-163.638 182.575,-142.659"/>
<polygon fill="midnightblue" stroke="midnightblue" points="184.551,-145.559 191.446,-137.515 181.04,-139.504 184.551,-145.559"/>
</g>
<!-- Node35 -->
<g id="node101" class="node"><title>Node35</title>
<a xlink:href="_lorentz_vec_8h.html" target="_top" xlink:title="base/vec/LorentzVec.h">
<polygon fill="white" stroke="black" points="212.5,-304.5 212.5,-325.5 329.5,-325.5 329.5,-304.5 212.5,-304.5"/>
<text text-anchor="middle" x="271" y="-312.5" font-family="Helvetica,sans-Serif" font-size="10.00">base/vec/LorentzVec.h</text>
</a>
</g>
<!-- Node2&#45;&gt;Node35 -->
<g id="edge152" class="edge"><title>Node2&#45;&gt;Node35</title>
<path fill="none" stroke="midnightblue" d="M271,-420.295C271,-401.131 271,-360.654 271,-335.843"/>
<polygon fill="midnightblue" stroke="midnightblue" points="274.5,-335.679 271,-325.679 267.5,-335.679 274.5,-335.679"/>
</g>
<!-- Node37 -->
<g id="node109" class="node"><title>Node37</title>
<a xlink:href="_particle_type_tree_8h.html" target="_top" xlink:title="base/ParticleTypeTree.h">
<polygon fill="white" stroke="black" points="136.5,-246.5 136.5,-267.5 259.5,-267.5 259.5,-246.5 136.5,-246.5"/>
<text text-anchor="middle" x="198" y="-254.5" font-family="Helvetica,sans-Serif" font-size="10.00">base/ParticleTypeTree.h</text>
</a>
</g>
<!-- Node2&#45;&gt;Node37 -->
<g id="edge144" class="edge"><title>Node2&#45;&gt;Node37</title>
<path fill="none" stroke="midnightblue" d="M261.612,-420.284C246.441,-402.257 216.932,-364.085 204,-326 198.692,-310.368 197.351,-291.656 197.25,-277.665"/>
<polygon fill="midnightblue" stroke="midnightblue" points="200.75,-277.65 197.382,-267.605 193.751,-277.558 200.75,-277.65"/>
</g>
<!-- Node4 -->
<g id="node7" class="node"><title>Node4</title>
<a xlink:href="_t_candidate_8h.html" target="_top" xlink:title="tree/TCandidate.h">
<polygon fill="white" stroke="black" points="748.5,-304.5 748.5,-325.5 843.5,-325.5 843.5,-304.5 748.5,-304.5"/>
<text text-anchor="middle" x="796" y="-312.5" font-family="Helvetica,sans-Serif" font-size="10.00">tree/TCandidate.h</text>
</a>
</g>
<!-- Node3&#45;&gt;Node4 -->
<g id="edge6" class="edge"><title>Node3&#45;&gt;Node4</title>
<path fill="none" stroke="midnightblue" d="M796,-362.362C796,-354.922 796,-344.743 796,-335.728"/>
<polygon fill="midnightblue" stroke="midnightblue" points="799.5,-335.571 796,-325.571 792.5,-335.571 799.5,-335.571"/>
</g>
<!-- Node7 -->
<g id="node13" class="node"><title>Node7</title>
<a xlink:href="printable_8h.html" target="_top" xlink:title="base/printable.h">
<polygon fill="white" stroke="black" points="264,-58.5 264,-79.5 350,-79.5 350,-58.5 264,-58.5"/>
<text text-anchor="middle" x="307" y="-66.5" font-family="Helvetica,sans-Serif" font-size="10.00">base/printable.h</text>
</a>
</g>
<!-- Node3&#45;&gt;Node7 -->
<g id="edge86" class="edge"><title>Node3&#45;&gt;Node7</title>
<path fill="none" stroke="midnightblue" d="M775.823,-362.394C718.353,-332.251 548.734,-243.756 406,-174 372.059,-157.412 353.94,-166.375 329,-138 317.226,-124.604 311.745,-104.87 309.199,-89.9338"/>
<polygon fill="midnightblue" stroke="midnightblue" points="312.61,-89.0549 307.768,-79.6316 305.677,-90.0181 312.61,-89.0549"/>
</g>
<!-- Node15 -->
<g id="node32" class="node"><title>Node15</title>
<polygon fill="white" stroke="#bfbfbf" points="1463,-58.5 1463,-79.5 1507,-79.5 1507,-58.5 1463,-58.5"/>
<text text-anchor="middle" x="1485" y="-66.5" font-family="Helvetica,sans-Serif" font-size="10.00">vector</text>
</g>
<!-- Node3&#45;&gt;Node15 -->
<g id="edge136" class="edge"><title>Node3&#45;&gt;Node15</title>
<path fill="none" stroke="midnightblue" d="M837.734,-369.904C904.233,-364.423 1038.05,-351.143 1149,-326 1366.81,-276.64 1509.62,-334.905 1615,-138 1636.87,-97.1403 1562.5,-79.5429 1517.28,-72.7555"/>
<polygon fill="midnightblue" stroke="midnightblue" points="1517.69,-69.279 1507.3,-71.3602 1516.72,-76.2115 1517.69,-69.279"/>
</g>
<!-- Node21 -->
<g id="node49" class="node"><title>Node21</title>
<polygon fill="white" stroke="#bfbfbf" points="1236,-116.5 1236,-137.5 1288,-137.5 1288,-116.5 1236,-116.5"/>
<text text-anchor="middle" x="1262" y="-124.5" font-family="Helvetica,sans-Serif" font-size="10.00">memory</text>
</g>
<!-- Node3&#45;&gt;Node21 -->
<g id="edge142" class="edge"><title>Node3&#45;&gt;Node21</title>
<path fill="none" stroke="midnightblue" d="M837.783,-366.673C919.168,-352.397 1100.78,-310.727 1213,-210 1232.45,-192.54 1246.41,-165.483 1254.34,-147.043"/>
<polygon fill="midnightblue" stroke="midnightblue" points="1257.67,-148.141 1258.21,-137.56 1251.19,-145.495 1257.67,-148.141"/>
</g>
<!-- Node25 -->
<g id="node69" class="node"><title>Node25</title>
<a xlink:href="types_8h.html" target="_top" xlink:title="base/types.h">
<polygon fill="white" stroke="black" points="173.5,-58.5 173.5,-79.5 246.5,-79.5 246.5,-58.5 173.5,-58.5"/>
<text text-anchor="middle" x="210" y="-66.5" font-family="Helvetica,sans-Serif" font-size="10.00">base/types.h</text>
</a>
</g>
<!-- Node3&#45;&gt;Node25 -->
<g id="edge88" class="edge"><title>Node3&#45;&gt;Node25</title>
<path fill="none" stroke="midnightblue" d="M763.738,-362.449C736.627,-353.38 696.975,-339.643 663,-326 546.707,-279.303 514.516,-272.681 406,-210 338.407,-170.957 265.44,-114.107 230.683,-86.0151"/>
<polygon fill="midnightblue" stroke="midnightblue" points="232.663,-83.1143 222.696,-79.5212 228.247,-88.5455 232.663,-83.1143"/>
</g>
<!-- Node26 -->
<g id="node71" class="node"><title>Node26</title>
<a xlink:href="_particle_type_8h.html" target="_top" xlink:title="base/ParticleType.h">
<polygon fill="white" stroke="black" points="160,-181.5 160,-202.5 264,-202.5 264,-181.5 160,-181.5"/>
<text text-anchor="middle" x="212" y="-189.5" font-family="Helvetica,sans-Serif" font-size="10.00">base/ParticleType.h</text>
</a>
</g>
<!-- Node3&#45;&gt;Node26 -->
<g id="edge90" class="edge"><title>Node3&#45;&gt;Node26</title>
<path fill="none" stroke="midnightblue" d="M754.238,-370.157C669.424,-364 479.891,-348.176 419,-326 343.351,-298.449 267.138,-239.062 232.014,-209.482"/>
<polygon fill="midnightblue" stroke="midnightblue" points="233.875,-206.468 223.995,-202.641 229.332,-211.794 233.875,-206.468"/>
</g>
<!-- Node31 -->
<g id="node90" class="node"><title>Node31</title>
<a xlink:href="_tree_8h.html" target="_top" xlink:title="base/Tree.h">
<polygon fill="white" stroke="black" points="1064,-181.5 1064,-202.5 1132,-202.5 1132,-181.5 1064,-181.5"/>
<text text-anchor="middle" x="1098" y="-189.5" font-family="Helvetica,sans-Serif" font-size="10.00">base/Tree.h</text>
</a>
</g>
<!-- Node3&#45;&gt;Node31 -->
<g id="edge118" class="edge"><title>Node3&#45;&gt;Node31</title>
<path fill="none" stroke="midnightblue" d="M832.064,-362.453C858.29,-354.146 894.259,-341.412 924,-326 964.281,-305.126 971.96,-295.557 1008,-268 1033.08,-248.826 1060.63,-225.143 1078.56,-209.36"/>
<polygon fill="midnightblue" stroke="midnightblue" points="1080.91,-211.957 1086.08,-202.709 1076.27,-206.715 1080.91,-211.957"/>
</g>
<!-- Node33 -->
<g id="node95" class="node"><title>Node33</title>
<polygon fill="white" stroke="#bfbfbf" points="1343.5,-116.5 1343.5,-137.5 1372.5,-137.5 1372.5,-116.5 1343.5,-116.5"/>
<text text-anchor="middle" x="1358" y="-124.5" font-family="Helvetica,sans-Serif" font-size="10.00">list</text>
</g>
<!-- Node3&#45;&gt;Node33 -->
<g id="edge138" class="edge"><title>Node3&#45;&gt;Node33</title>
<path fill="none" stroke="midnightblue" d="M837.6,-368.004C959.754,-352.375 1312.85,-300.006 1377,-210 1390.32,-191.311 1380.5,-164.764 1370.7,-146.764"/>
<polygon fill="midnightblue" stroke="midnightblue" points="1373.49,-144.6 1365.41,-137.747 1367.45,-148.143 1373.49,-144.6"/>
</g>
<!-- Node3&#45;&gt;Node35 -->
<g id="edge132" class="edge"><title>Node3&#45;&gt;Node35</title>
<path fill="none" stroke="midnightblue" d="M754.365,-368.4C664.29,-358.449 450.546,-334.836 339.95,-322.617"/>
<polygon fill="midnightblue" stroke="midnightblue" points="340.225,-319.126 329.901,-321.507 339.456,-326.084 340.225,-319.126"/>
</g>
<!-- Node36 -->
<g id="node106" class="node"><title>Node36</title>
<polygon fill="white" stroke="#bfbfbf" points="861,-304.5 861,-325.5 915,-325.5 915,-304.5 861,-304.5"/>
<text text-anchor="middle" x="888" y="-312.5" font-family="Helvetica,sans-Serif" font-size="10.00">iostream</text>
</g>
<!-- Node3&#45;&gt;Node36 -->
<g id="edge140" class="edge"><title>Node3&#45;&gt;Node36</title>
<path fill="none" stroke="midnightblue" d="M812.874,-362.362C826.751,-353.614 846.634,-341.079 862.46,-331.101"/>
<polygon fill="midnightblue" stroke="midnightblue" points="864.64,-333.864 871.233,-325.571 860.907,-327.943 864.64,-333.864"/>
</g>
<!-- Node5 -->
<g id="node9" class="node"><title>Node5</title>
<a xlink:href="_t_cluster_8h.html" target="_top" xlink:title="TCluster.h">
<polygon fill="white" stroke="black" points="795,-246.5 795,-267.5 857,-267.5 857,-246.5 795,-246.5"/>
<text text-anchor="middle" x="826" y="-254.5" font-family="Helvetica,sans-Serif" font-size="10.00">TCluster.h</text>
</a>
</g>
<!-- Node4&#45;&gt;Node5 -->
<g id="edge8" class="edge"><title>Node4&#45;&gt;Node5</title>
<path fill="none" stroke="midnightblue" d="M801.502,-304.362C805.52,-296.595 811.081,-285.843 815.89,-276.546"/>
<polygon fill="midnightblue" stroke="midnightblue" points="819.047,-278.061 820.532,-267.571 812.829,-274.845 819.047,-278.061"/>
</g>
<!-- Node6 -->
<g id="node11" class="node"><title>Node6</title>
<a xlink:href="_detector__t_8h.html" target="_top" xlink:title="base/Detector_t.h">
<polygon fill="white" stroke="black" points="598.5,-181.5 598.5,-202.5 693.5,-202.5 693.5,-181.5 598.5,-181.5"/>
<text text-anchor="middle" x="646" y="-189.5" font-family="Helvetica,sans-Serif" font-size="10.00">base/Detector_t.h</text>
</a>
</g>
<!-- Node4&#45;&gt;Node6 -->
<g id="edge74" class="edge"><title>Node4&#45;&gt;Node6</title>
<path fill="none" stroke="midnightblue" d="M782.951,-304.3C756.91,-282.946 698.299,-234.885 666.86,-209.106"/>
<polygon fill="midnightblue" stroke="midnightblue" points="669.078,-206.398 659.126,-202.763 664.639,-211.81 669.078,-206.398"/>
</g>
<!-- Node4&#45;&gt;Node15 -->
<g id="edge76" class="edge"><title>Node4&#45;&gt;Node15</title>
<path fill="none" stroke="midnightblue" d="M843.64,-305.539C846.467,-305.01 849.27,-304.493 852,-304 1104.67,-258.362 1174.88,-279.694 1422,-210 1503.74,-186.948 1551.59,-208.463 1599,-138 1621.92,-103.937 1558.28,-83.9423 1517.08,-74.8801"/>
<polygon fill="midnightblue" stroke="midnightblue" points="1517.66,-71.4254 1507.15,-72.8098 1516.23,-78.278 1517.66,-71.4254"/>
</g>
<!-- Node16 -->
<g id="node34" class="node"><title>Node16</title>
<polygon fill="white" stroke="#bfbfbf" points="956,-58.5 956,-79.5 1012,-79.5 1012,-58.5 956,-58.5"/>
<text text-anchor="middle" x="984" y="-66.5" font-family="Helvetica,sans-Serif" font-size="10.00">algorithm</text>
</g>
<!-- Node4&#45;&gt;Node16 -->
<g id="edge84" class="edge"><title>Node4&#45;&gt;Node16</title>
<path fill="none" stroke="midnightblue" d="M816.785,-304.326C831.744,-295.913 851.72,-283.104 866,-268 919.22,-211.709 959.226,-127.285 975.72,-89.0684"/>
<polygon fill="midnightblue" stroke="midnightblue" points="979.063,-90.1496 979.741,-79.5764 972.618,-87.4194 979.063,-90.1496"/>
</g>
<!-- Node4&#45;&gt;Node21 -->
<g id="edge82" class="edge"><title>Node4&#45;&gt;Node21</title>
<path fill="none" stroke="midnightblue" d="M843.595,-305.1C896.229,-294.036 977.608,-276.555 1008,-268 1084.44,-246.483 1109.38,-251.646 1177,-210 1205.33,-192.553 1231.7,-164.142 1247.34,-145.509"/>
<polygon fill="midnightblue" stroke="midnightblue" points="1250.1,-147.662 1253.74,-137.711 1244.69,-143.222 1250.1,-147.662"/>
</g>
<!-- Node23 -->
<g id="node57" class="node"><title>Node23</title>
<polygon fill="white" stroke="#bfbfbf" points="718,-181.5 718,-202.5 768,-202.5 768,-181.5 718,-181.5"/>
<text text-anchor="middle" x="743" y="-189.5" font-family="Helvetica,sans-Serif" font-size="10.00">iomanip</text>
</g>
<!-- Node4&#45;&gt;Node23 -->
<g id="edge78" class="edge"><title>Node4&#45;&gt;Node23</title>
<path fill="none" stroke="midnightblue" d="M791.297,-304.085C782.395,-283.427 762.966,-238.337 751.651,-212.076"/>
<polygon fill="midnightblue" stroke="midnightblue" points="754.789,-210.514 747.617,-202.715 748.36,-213.284 754.789,-210.514"/>
</g>
<!-- Node4&#45;&gt;Node24 -->
<g id="edge80" class="edge"><title>Node4&#45;&gt;Node24</title>
<path fill="none" stroke="midnightblue" d="M775.227,-304.443C738.054,-285.545 657.71,-244.667 590,-210 588.267,-209.113 586.485,-208.2 584.688,-207.278"/>
<polygon fill="midnightblue" stroke="midnightblue" points="586.216,-204.128 575.722,-202.673 583.018,-210.355 586.216,-204.128"/>
</g>
<!-- Node5&#45;&gt;Node6 -->
<g id="edge10" class="edge"><title>Node5&#45;&gt;Node6</title>
<path fill="none" stroke="midnightblue" d="M796.679,-246.412C766.214,-235.411 718.387,-218.14 684.806,-206.013"/>
<polygon fill="midnightblue" stroke="midnightblue" points="685.902,-202.688 675.308,-202.584 683.525,-209.272 685.902,-202.688"/>
</g>
<!-- Node10 -->
<g id="node19" class="node"><title>Node10</title>
<a xlink:href="vec3_8h.html" target="_top" xlink:title="base/vec/vec3.h">
<polygon fill="white" stroke="black" points="601.5,-116.5 601.5,-137.5 690.5,-137.5 690.5,-116.5 601.5,-116.5"/>
<text text-anchor="middle" x="646" y="-124.5" font-family="Helvetica,sans-Serif" font-size="10.00">base/vec/vec3.h</text>
</a>
</g>
<!-- Node5&#45;&gt;Node10 -->
<g id="edge62" class="edge"><title>Node5&#45;&gt;Node10</title>
<path fill="none" stroke="midnightblue" d="M822.393,-246.226C815.984,-228.663 800.985,-193.835 777,-174 763.88,-163.15 725.508,-150.003 693.662,-140.376"/>
<polygon fill="midnightblue" stroke="midnightblue" points="694.606,-137.005 684.023,-137.508 692.609,-143.715 694.606,-137.005"/>
</g>
<!-- Node12 -->
<g id="node24" class="node"><title>Node12</title>
<polygon fill="white" stroke="#bfbfbf" points="723,-0.5 723,-21.5 767,-21.5 767,-0.5 723,-0.5"/>
<text text-anchor="middle" x="745" y="-8.5" font-family="Helvetica,sans-Serif" font-size="10.00">cmath</text>
</g>
<!-- Node5&#45;&gt;Node12 -->
<g id="edge66" class="edge"><title>Node5&#45;&gt;Node12</title>
<path fill="none" stroke="midnightblue" d="M827.878,-246.372C831.675,-222.361 838.644,-162.403 823,-116 811.204,-81.0112 782.926,-48.1102 763.862,-28.7598"/>
<polygon fill="midnightblue" stroke="midnightblue" points="766.149,-26.0992 756.574,-21.5633 761.231,-31.0801 766.149,-26.0992"/>
</g>
<!-- Node5&#45;&gt;Node13 -->
<g id="edge50" class="edge"><title>Node5&#45;&gt;Node13</title>
<path fill="none" stroke="midnightblue" d="M825.97,-246.356C825.496,-229.866 822.836,-197.589 810,-174 803.725,-162.468 793.636,-152.074 784.238,-144.011"/>
<polygon fill="midnightblue" stroke="midnightblue" points="786.244,-141.132 776.272,-137.555 781.837,-146.57 786.244,-141.132"/>
</g>
<!-- Node5&#45;&gt;Node15 -->
<g id="edge64" class="edge"><title>Node5&#45;&gt;Node15</title>
<path fill="none" stroke="midnightblue" d="M857.19,-256.665C959.095,-255.211 1281.17,-247.673 1377,-210 1425.32,-191.003 1441.1,-181.789 1469,-138 1478.27,-123.455 1482.18,-104.137 1483.83,-89.6419"/>
<polygon fill="midnightblue" stroke="midnightblue" points="1487.32,-89.9214 1484.7,-79.656 1480.34,-89.3156 1487.32,-89.9214"/>
</g>
<!-- Node20 -->
<g id="node46" class="node"><title>Node20</title>
<a xlink:href="shared__ptr__container_8h.html" target="_top" xlink:title="base/std_ext/shared\l_ptr_container.h">
<polygon fill="white" stroke="black" points="1263.5,-175 1263.5,-209 1368.5,-209 1368.5,-175 1263.5,-175"/>
<text text-anchor="start" x="1271.5" y="-196" font-family="Helvetica,sans-Serif" font-size="10.00">base/std_ext/shared</text>
<text text-anchor="middle" x="1316" y="-183" font-family="Helvetica,sans-Serif" font-size="10.00">_ptr_container.h</text>
</a>
</g>
<!-- Node5&#45;&gt;Node20 -->
<g id="edge52" class="edge"><title>Node5&#45;&gt;Node20</title>
<path fill="none" stroke="midnightblue" d="M857.023,-252.885C936.302,-242.368 1147.52,-214.349 1253.51,-200.29"/>
<polygon fill="midnightblue" stroke="midnightblue" points="1253.98,-203.758 1263.43,-198.974 1253.06,-196.819 1253.98,-203.758"/>
</g>
<!-- Node5&#45;&gt;Node21 -->
<g id="edge72" class="edge"><title>Node5&#45;&gt;Node21</title>
<path fill="none" stroke="midnightblue" d="M857.126,-254.514C926.267,-248.647 1090.51,-232.704 1141,-210 1163.73,-199.778 1163.71,-188.475 1184,-174 1199.88,-162.67 1218.57,-151.343 1233.68,-142.649"/>
<polygon fill="midnightblue" stroke="midnightblue" points="1235.6,-145.583 1242.56,-137.599 1232.14,-139.498 1235.6,-145.583"/>
</g>
<!-- Node5&#45;&gt;Node23 -->
<g id="edge68" class="edge"><title>Node5&#45;&gt;Node23</title>
<path fill="none" stroke="midnightblue" d="M812.294,-246.267C799.362,-236.139 779.765,-220.792 764.707,-209"/>
<polygon fill="midnightblue" stroke="midnightblue" points="766.482,-205.944 756.451,-202.534 762.166,-211.455 766.482,-205.944"/>
</g>
<!-- Node5&#45;&gt;Node24 -->
<g id="edge70" class="edge"><title>Node5&#45;&gt;Node24</title>
<path fill="none" stroke="midnightblue" d="M794.723,-253.584C748.83,-247.949 660.998,-234.779 590,-210 587.428,-209.102 584.807,-208.047 582.217,-206.906"/>
<polygon fill="midnightblue" stroke="midnightblue" points="583.63,-203.702 573.101,-202.521 580.596,-210.01 583.63,-203.702"/>
</g>
<!-- Node6&#45;&gt;Node7 -->
<g id="edge12" class="edge"><title>Node6&#45;&gt;Node7</title>
<path fill="none" stroke="midnightblue" d="M616.313,-181.489C607.885,-178.77 598.648,-176.038 590,-174 487.156,-149.757 444.663,-193.903 355,-138 336.614,-126.537 323.409,-105.16 315.56,-89.2253"/>
<polygon fill="midnightblue" stroke="midnightblue" points="318.535,-87.3189 311.174,-79.6986 312.177,-90.246 318.535,-87.3189"/>
</g>
<!-- Node8 -->
<g id="node15" class="node"><title>Node8</title>
<polygon fill="white" stroke="#bfbfbf" points="358,-0.5 358,-21.5 420,-21.5 420,-0.5 358,-0.5"/>
<text text-anchor="middle" x="389" y="-8.5" font-family="Helvetica,sans-Serif" font-size="10.00">type_traits</text>
</g>
<!-- Node6&#45;&gt;Node8 -->
<g id="edge46" class="edge"><title>Node6&#45;&gt;Node8</title>
<path fill="none" stroke="midnightblue" d="M616.586,-181.455C586.155,-170.032 541.374,-151.619 529,-138 503.668,-110.119 526.817,-85.4324 501,-58 482.158,-37.9795 453.459,-26.1609 429.83,-19.3827"/>
<polygon fill="midnightblue" stroke="midnightblue" points="430.621,-15.9714 420.057,-16.7771 428.818,-22.7352 430.621,-15.9714"/>
</g>
<!-- Node6&#45;&gt;Node10 -->
<g id="edge18" class="edge"><title>Node6&#45;&gt;Node10</title>
<path fill="none" stroke="midnightblue" d="M646,-181.267C646,-172.18 646,-158.892 646,-147.74"/>
<polygon fill="midnightblue" stroke="midnightblue" points="649.5,-147.534 646,-137.534 642.5,-147.534 649.5,-147.534"/>
</g>
<!-- Node6&#45;&gt;Node13 -->
<g id="edge28" class="edge"><title>Node6&#45;&gt;Node13</title>
<path fill="none" stroke="midnightblue" d="M664.733,-181.412C683.361,-170.883 712.151,-154.611 733.396,-142.602"/>
<polygon fill="midnightblue" stroke="midnightblue" points="735.292,-145.551 742.275,-137.584 731.847,-139.457 735.292,-145.551"/>
</g>
<!-- Node6&#45;&gt;Node15 -->
<g id="edge48" class="edge"><title>Node6&#45;&gt;Node15</title>
<path fill="none" stroke="midnightblue" d="M679.456,-181.492C688.938,-178.773 699.316,-176.041 709,-174 823.582,-149.855 855.262,-161.394 970,-138 1006.55,-130.547 1014.34,-122.918 1051,-116 1199.4,-87.9912 1379.74,-75.1089 1452.37,-70.7749"/>
<polygon fill="midnightblue" stroke="midnightblue" points="1452.91,-74.2497 1462.69,-70.1741 1452.5,-67.2615 1452.91,-74.2497"/>
</g>
<!-- Node17 -->
<g id="node36" class="node"><title>Node17</title>
<polygon fill="white" stroke="#bfbfbf" points="433.5,-58.5 433.5,-79.5 492.5,-79.5 492.5,-58.5 433.5,-58.5"/>
<text text-anchor="middle" x="463" y="-66.5" font-family="Helvetica,sans-Serif" font-size="10.00">stdexcept</text>
</g>
<!-- Node6&#45;&gt;Node17 -->
<g id="edge42" class="edge"><title>Node6&#45;&gt;Node17</title>
<path fill="none" stroke="midnightblue" d="M614.699,-181.41C572.099,-166.9 500.594,-142.153 496,-138 481.813,-125.172 473.144,-104.936 468.274,-89.6886"/>
<polygon fill="midnightblue" stroke="midnightblue" points="471.511,-88.2826 465.375,-79.6454 464.786,-90.2238 471.511,-88.2826"/>
</g>
<!-- Node18 -->
<g id="node38" class="node"><title>Node18</title>
<polygon fill="white" stroke="#bfbfbf" points="538,-116.5 538,-137.5 584,-137.5 584,-116.5 538,-116.5"/>
<text text-anchor="middle" x="561" y="-124.5" font-family="Helvetica,sans-Serif" font-size="10.00">cstdint</text>
</g>
<!-- Node6&#45;&gt;Node18 -->
<g id="edge40" class="edge"><title>Node6&#45;&gt;Node18</title>
<path fill="none" stroke="midnightblue" d="M631.964,-181.267C618.596,-171.044 598.275,-155.504 582.799,-143.67"/>
<polygon fill="midnightblue" stroke="midnightblue" points="584.845,-140.828 574.775,-137.534 580.592,-146.389 584.845,-140.828"/>
</g>
<!-- Node6&#45;&gt;Node19 -->
<g id="edge44" class="edge"><title>Node6&#45;&gt;Node19</title>
<path fill="none" stroke="midnightblue" d="M616.64,-181.422C608.135,-178.67 598.775,-175.938 590,-174 523.701,-159.359 320.559,-137.966 242.759,-130.073"/>
<polygon fill="midnightblue" stroke="midnightblue" points="242.941,-126.574 232.64,-129.051 242.237,-133.538 242.941,-126.574"/>
</g>
<!-- Node7&#45;&gt;Node8 -->
<g id="edge14" class="edge"><title>Node7&#45;&gt;Node8</title>
<path fill="none" stroke="midnightblue" d="M322.04,-58.3619C334.293,-49.6955 351.799,-37.3126 365.839,-27.3819"/>
<polygon fill="midnightblue" stroke="midnightblue" points="367.912,-30.2028 374.055,-21.5707 363.87,-24.4879 367.912,-30.2028"/>
</g>
<!-- Node9 -->
<g id="node17" class="node"><title>Node9</title>
<polygon fill="white" stroke="#bfbfbf" points="199,-0.5 199,-21.5 251,-21.5 251,-0.5 199,-0.5"/>
<text text-anchor="middle" x="225" y="-8.5" font-family="Helvetica,sans-Serif" font-size="10.00">ostream</text>
</g>
<!-- Node7&#45;&gt;Node9 -->
<g id="edge16" class="edge"><title>Node7&#45;&gt;Node9</title>
<path fill="none" stroke="midnightblue" d="M291.96,-58.3619C279.707,-49.6955 262.201,-37.3126 248.161,-27.3819"/>
<polygon fill="midnightblue" stroke="midnightblue" points="250.13,-24.4879 239.945,-21.5707 246.088,-30.2028 250.13,-24.4879"/>
</g>
<!-- Node10&#45;&gt;Node7 -->
<g id="edge20" class="edge"><title>Node10&#45;&gt;Node7</title>
<path fill="none" stroke="midnightblue" d="M601.5,-117.589C598.626,-117.036 595.774,-116.501 593,-116 492.586,-97.8682 464.214,-98.8179 360.073,-80.1193"/>
<polygon fill="midnightblue" stroke="midnightblue" points="360.558,-76.6501 350.094,-78.3094 359.309,-83.5378 360.558,-76.6501"/>
</g>
<!-- Node11 -->
<g id="node22" class="node"><title>Node11</title>
<a xlink:href="vec2_8h.html" target="_top" xlink:title="vec2.h">
<polygon fill="white" stroke="black" points="623,-58.5 623,-79.5 669,-79.5 669,-58.5 623,-58.5"/>
<text text-anchor="middle" x="646" y="-66.5" font-family="Helvetica,sans-Serif" font-size="10.00">vec2.h</text>
</a>
</g>
<!-- Node10&#45;&gt;Node11 -->
<g id="edge22" class="edge"><title>Node10&#45;&gt;Node11</title>
<path fill="none" stroke="midnightblue" d="M646,-116.362C646,-108.922 646,-98.7427 646,-89.7276"/>
<polygon fill="midnightblue" stroke="midnightblue" points="649.5,-89.5706 646,-79.5707 642.5,-89.5707 649.5,-89.5706"/>
</g>
<!-- Node10&#45;&gt;Node12 -->
<g id="edge26" class="edge"><title>Node10&#45;&gt;Node12</title>
<path fill="none" stroke="midnightblue" d="M655.136,-116.295C672.007,-96.5271 708.233,-54.0801 729.173,-29.5443"/>
<polygon fill="midnightblue" stroke="midnightblue" points="732.056,-31.5578 735.886,-21.6792 726.732,-27.0136 732.056,-31.5578"/>
</g>
<!-- Node11&#45;&gt;Node12 -->
<g id="edge24" class="edge"><title>Node11&#45;&gt;Node12</title>
<path fill="none" stroke="midnightblue" d="M664.158,-58.3619C679.23,-49.532 700.887,-36.844 717.993,-26.8224"/>
<polygon fill="midnightblue" stroke="midnightblue" points="720.098,-29.6456 726.957,-21.5707 716.559,-23.6058 720.098,-29.6456"/>
</g>
<!-- Node13&#45;&gt;Node12 -->
<g id="edge30" class="edge"><title>Node13&#45;&gt;Node12</title>
<path fill="none" stroke="midnightblue" d="M766.129,-116.103C771.887,-102.385 779.722,-78.1707 774,-58 771.186,-48.0813 765.62,-38.2026 760.109,-30.0804"/>
<polygon fill="midnightblue" stroke="midnightblue" points="762.768,-27.7851 754.061,-21.748 757.103,-31.8969 762.768,-27.7851"/>
</g>
<!-- Node13&#45;&gt;Node14 -->
<g id="edge32" class="edge"><title>Node13&#45;&gt;Node14</title>
<path fill="none" stroke="midnightblue" d="M758.065,-116.362C755.99,-108.84 753.143,-98.5187 750.636,-89.4308"/>
<polygon fill="midnightblue" stroke="midnightblue" points="753.949,-88.2798 747.916,-79.5707 747.201,-90.1414 753.949,-88.2798"/>
</g>
<!-- Node13&#45;&gt;Node15 -->
<g id="edge34" class="edge"><title>Node13&#45;&gt;Node15</title>
<path fill="none" stroke="midnightblue" d="M814.237,-122.735C955.806,-111.394 1338.52,-80.7345 1452.53,-71.6014"/>
<polygon fill="midnightblue" stroke="midnightblue" points="1453.02,-75.0736 1462.7,-70.7861 1452.46,-68.0959 1453.02,-75.0736"/>
</g>
<!-- Node13&#45;&gt;Node16 -->
<g id="edge36" class="edge"><title>Node13&#45;&gt;Node16</title>
<path fill="none" stroke="midnightblue" d="M801.384,-116.497C842.575,-105.783 905.992,-89.2892 946.216,-78.8271"/>
<polygon fill="midnightblue" stroke="midnightblue" points="947.119,-82.209 955.916,-76.3044 945.357,-75.4343 947.119,-82.209"/>
</g>
<!-- Node13&#45;&gt;Node17 -->
<g id="edge38" class="edge"><title>Node13&#45;&gt;Node17</title>
<path fill="none" stroke="midnightblue" d="M707.724,-116.631C648.868,-105.176 555.455,-86.9946 502.692,-76.7253"/>
<polygon fill="midnightblue" stroke="midnightblue" points="503.188,-73.2562 492.704,-74.7812 501.851,-80.1273 503.188,-73.2562"/>
</g>
<!-- Node20&#45;&gt;Node15 -->
<g id="edge54" class="edge"><title>Node20&#45;&gt;Node15</title>
<path fill="none" stroke="midnightblue" d="M1368.67,-179.229C1394.58,-170.871 1424.9,-157.75 1447,-138 1461.75,-124.822 1471.96,-104.512 1478.06,-89.3337"/>
<polygon fill="midnightblue" stroke="midnightblue" points="1481.4,-90.3888 1481.62,-79.7964 1474.84,-87.937 1481.4,-90.3888"/>
</g>
<!-- Node20&#45;&gt;Node16 -->
<g id="edge60" class="edge"><title>Node20&#45;&gt;Node16</title>
<path fill="none" stroke="midnightblue" d="M1316.79,-174.777C1316.59,-157.314 1313.31,-130.815 1297,-116 1276.9,-97.7455 1101.3,-79.6654 1022.27,-72.3693"/>
<polygon fill="midnightblue" stroke="midnightblue" points="1022.5,-68.8765 1012.23,-71.4527 1021.87,-75.8475 1022.5,-68.8765"/>
</g>
<!-- Node20&#45;&gt;Node21 -->
<g id="edge56" class="edge"><title>Node20&#45;&gt;Node21</title>
<path fill="none" stroke="midnightblue" d="M1301.81,-174.922C1294.35,-165.937 1285.18,-154.905 1277.53,-145.691"/>
<polygon fill="midnightblue" stroke="midnightblue" points="1280.1,-143.307 1271.02,-137.852 1274.71,-147.781 1280.1,-143.307"/>
</g>
<!-- Node20&#45;&gt;Node22 -->
<g id="edge58" class="edge"><title>Node20&#45;&gt;Node22</title>
<path fill="none" stroke="midnightblue" d="M1368.56,-178.056C1414.41,-165.891 1479.92,-148.51 1521.45,-137.492"/>
<polygon fill="midnightblue" stroke="midnightblue" points="1522.44,-140.851 1531.21,-134.904 1520.65,-134.085 1522.44,-140.851"/>
</g>
<!-- Node26&#45;&gt;Node9 -->
<g id="edge110" class="edge"><title>Node26&#45;&gt;Node9</title>
<path fill="none" stroke="midnightblue" d="M174.406,-181.457C141.07,-169.812 99.456,-148.323 112,-116 127.649,-75.6752 168.534,-44.4367 196.581,-26.8713"/>
<polygon fill="midnightblue" stroke="midnightblue" points="198.45,-29.8311 205.188,-21.6545 194.822,-23.8449 198.45,-29.8311"/>
</g>
<!-- Node26&#45;&gt;Node15 -->
<g id="edge116" class="edge"><title>Node26&#45;&gt;Node15</title>
<path fill="none" stroke="midnightblue" d="M264.012,-188.468C369.588,-181.064 616.533,-162.551 823,-138 888.599,-130.2 904.412,-123.894 970,-116 1152.13,-94.0786 1371.6,-77.2093 1452.78,-71.2923"/>
<polygon fill="midnightblue" stroke="midnightblue" points="1453.15,-74.7754 1462.87,-70.5621 1452.64,-67.7937 1453.15,-74.7754"/>
</g>
<!-- Node26&#45;&gt;Node19 -->
<g id="edge108" class="edge"><title>Node26&#45;&gt;Node19</title>
<path fill="none" stroke="midnightblue" d="M212,-181.267C212,-172.18 212,-158.892 212,-147.74"/>
<polygon fill="midnightblue" stroke="midnightblue" points="215.5,-147.534 212,-137.534 208.5,-147.534 215.5,-147.534"/>
</g>
<!-- Node26&#45;&gt;Node25 -->
<g id="edge92" class="edge"><title>Node26&#45;&gt;Node25</title>
<path fill="none" stroke="midnightblue" d="M176.803,-181.485C156.007,-173.255 131.389,-159.52 119,-138 104.852,-113.425 134.915,-94.7728 164.206,-83.0958"/>
<polygon fill="midnightblue" stroke="midnightblue" points="165.504,-86.3471 173.632,-79.5509 163.04,-79.7951 165.504,-86.3471"/>
</g>
<!-- Node27 -->
<g id="node74" class="node"><title>Node27</title>
<a xlink:href="interval_8h.html" target="_top" xlink:title="base/interval.h">
<polygon fill="white" stroke="black" points="364,-116.5 364,-137.5 444,-137.5 444,-116.5 364,-116.5"/>
<text text-anchor="middle" x="404" y="-124.5" font-family="Helvetica,sans-Serif" font-size="10.00">base/interval.h</text>
</a>
</g>
<!-- Node26&#45;&gt;Node27 -->
<g id="edge94" class="edge"><title>Node26&#45;&gt;Node27</title>
<path fill="none" stroke="midnightblue" d="M243.275,-181.412C275.911,-170.364 327.226,-152.991 363.067,-140.857"/>
<polygon fill="midnightblue" stroke="midnightblue" points="364.388,-144.105 372.738,-137.584 362.144,-137.475 364.388,-144.105"/>
</g>
<!-- Node29 -->
<g id="node85" class="node"><title>Node29</title>
<polygon fill="white" stroke="#bfbfbf" points="-0.5,-116.5 -0.5,-137.5 34.5,-137.5 34.5,-116.5 -0.5,-116.5"/>
<text text-anchor="middle" x="17" y="-124.5" font-family="Helvetica,sans-Serif" font-size="10.00">map</text>
</g>
<!-- Node26&#45;&gt;Node29 -->
<g id="edge112" class="edge"><title>Node26&#45;&gt;Node29</title>
<path fill="none" stroke="midnightblue" d="M179.254,-181.462C146.098,-170.734 93.3809,-153.52 48,-138 46.7842,-137.584 45.5427,-137.157 44.2893,-136.722"/>
<polygon fill="midnightblue" stroke="midnightblue" points="45.2754,-133.359 34.6805,-133.352 42.9587,-139.965 45.2754,-133.359"/>
</g>
<!-- Node30 -->
<g id="node87" class="node"><title>Node30</title>
<polygon fill="white" stroke="#bfbfbf" points="127.5,-116.5 127.5,-137.5 174.5,-137.5 174.5,-116.5 127.5,-116.5"/>
<text text-anchor="middle" x="151" y="-124.5" font-family="Helvetica,sans-Serif" font-size="10.00">iterator</text>
</g>
<!-- Node26&#45;&gt;Node30 -->
<g id="edge114" class="edge"><title>Node26&#45;&gt;Node30</title>
<path fill="none" stroke="midnightblue" d="M201.927,-181.267C192.689,-171.423 178.824,-156.648 167.892,-145"/>
<polygon fill="midnightblue" stroke="midnightblue" points="170.281,-142.43 160.885,-137.534 165.176,-147.221 170.281,-142.43"/>
</g>
<!-- Node27&#45;&gt;Node7 -->
<g id="edge96" class="edge"><title>Node27&#45;&gt;Node7</title>
<path fill="none" stroke="midnightblue" d="M386.209,-116.362C371.441,-107.532 350.222,-94.844 333.462,-84.8224"/>
<polygon fill="midnightblue" stroke="midnightblue" points="335.057,-81.6987 324.679,-79.5707 331.465,-87.7066 335.057,-81.6987"/>
</g>
<!-- Node27&#45;&gt;Node14 -->
<g id="edge104" class="edge"><title>Node27&#45;&gt;Node14</title>
<path fill="none" stroke="midnightblue" d="M444.12,-120.176C513.211,-108.425 653.152,-84.6222 714.743,-74.1463"/>
<polygon fill="midnightblue" stroke="midnightblue" points="715.686,-77.5363 724.958,-72.409 714.512,-70.6354 715.686,-77.5363"/>
</g>
<!-- Node27&#45;&gt;Node16 -->
<g id="edge100" class="edge"><title>Node27&#45;&gt;Node16</title>
<path fill="none" stroke="midnightblue" d="M444.324,-122.968C551.246,-112.275 840.957,-83.3043 945.623,-72.8377"/>
<polygon fill="midnightblue" stroke="midnightblue" points="946.135,-76.3041 955.737,-71.8263 945.438,-69.3388 946.135,-76.3041"/>
</g>
<!-- Node27&#45;&gt;Node17 -->
<g id="edge102" class="edge"><title>Node27&#45;&gt;Node17</title>
<path fill="none" stroke="midnightblue" d="M414.822,-116.362C423.221,-108.104 435.054,-96.4725 444.89,-86.8029"/>
<polygon fill="midnightblue" stroke="midnightblue" points="447.569,-89.077 452.247,-79.5707 442.662,-84.0851 447.569,-89.077"/>
</g>
<!-- Node27&#45;&gt;Node25 -->
<g id="edge98" class="edge"><title>Node27&#45;&gt;Node25</title>
<path fill="none" stroke="midnightblue" d="M368.868,-116.497C336.967,-106.959 289.743,-92.8408 255.072,-82.475"/>
<polygon fill="midnightblue" stroke="midnightblue" points="255.781,-79.0342 245.198,-79.5231 253.776,-85.7409 255.781,-79.0342"/>
</g>
<!-- Node28 -->
<g id="node81" class="node"><title>Node28</title>
<polygon fill="white" stroke="#bfbfbf" points="367.5,-58.5 367.5,-79.5 416.5,-79.5 416.5,-58.5 367.5,-58.5"/>
<text text-anchor="middle" x="392" y="-66.5" font-family="Helvetica,sans-Serif" font-size="10.00">istream</text>
</g>
<!-- Node27&#45;&gt;Node28 -->
<g id="edge106" class="edge"><title>Node27&#45;&gt;Node28</title>
<path fill="none" stroke="midnightblue" d="M401.799,-116.362C400.243,-108.84 398.107,-98.5187 396.227,-89.4308"/>
<polygon fill="midnightblue" stroke="midnightblue" points="399.641,-88.6541 394.187,-79.5707 392.786,-90.0724 399.641,-88.6541"/>
</g>
<!-- Node31&#45;&gt;Node15 -->
<g id="edge126" class="edge"><title>Node31&#45;&gt;Node15</title>
<path fill="none" stroke="midnightblue" d="M1115.71,-181.458C1150.36,-160.846 1224.02,-117.108 1227,-116 1304.91,-87.0014 1402.94,-75.4589 1452.75,-71.2239"/>
<polygon fill="midnightblue" stroke="midnightblue" points="1453.22,-74.6974 1462.91,-70.4057 1452.66,-67.72 1453.22,-74.6974"/>
</g>
<!-- Node31&#45;&gt;Node16 -->
<g id="edge128" class="edge"><title>Node31&#45;&gt;Node16</title>
<path fill="none" stroke="midnightblue" d="M1087.88,-181.085C1068.31,-159.97 1025.09,-113.33 1001.02,-87.3616"/>
<polygon fill="midnightblue" stroke="midnightblue" points="1003.3,-84.6705 993.931,-79.7153 998.162,-89.4289 1003.3,-84.6705"/>
</g>
<!-- Node31&#45;&gt;Node21 -->
<g id="edge122" class="edge"><title>Node31&#45;&gt;Node21</title>
<path fill="none" stroke="midnightblue" d="M1124.71,-181.412C1152.4,-170.44 1195.81,-153.232 1226.4,-141.111"/>
<polygon fill="midnightblue" stroke="midnightblue" points="1227.83,-144.307 1235.84,-137.369 1225.25,-137.799 1227.83,-144.307"/>
</g>
<!-- Node32 -->
<g id="node92" class="node"><title>Node32</title>
<polygon fill="white" stroke="#bfbfbf" points="1060,-116.5 1060,-137.5 1180,-137.5 1180,-116.5 1060,-116.5"/>
<text text-anchor="middle" x="1120" y="-124.5" font-family="Helvetica,sans-Serif" font-size="10.00">base/cereal/access.hpp</text>
</g>
<!-- Node31&#45;&gt;Node32 -->
<g id="edge120" class="edge"><title>Node31&#45;&gt;Node32</title>
<path fill="none" stroke="midnightblue" d="M1101.63,-181.267C1104.77,-171.991 1109.39,-158.336 1113.22,-147.045"/>
<polygon fill="midnightblue" stroke="midnightblue" points="1116.54,-148.128 1116.43,-137.534 1109.91,-145.884 1116.54,-148.128"/>
</g>
<!-- Node31&#45;&gt;Node33 -->
<g id="edge124" class="edge"><title>Node31&#45;&gt;Node33</title>
<path fill="none" stroke="midnightblue" d="M1132.26,-183.436C1185.48,-170.131 1286.73,-144.818 1333.36,-133.159"/>
<polygon fill="midnightblue" stroke="midnightblue" points="1334.36,-136.517 1343.22,-130.696 1332.67,-129.726 1334.36,-136.517"/>
</g>
<!-- Node31&#45;&gt;Node34 -->
<g id="edge130" class="edge"><title>Node31&#45;&gt;Node34</title>
<path fill="none" stroke="midnightblue" d="M1132.31,-186.967C1184.04,-179.05 1285.21,-162.299 1379.28,-138.23"/>
<polygon fill="midnightblue" stroke="midnightblue" points="1380.44,-141.545 1389.24,-135.647 1378.68,-134.769 1380.44,-141.545"/>
</g>
<!-- Node35&#45;&gt;Node10 -->
<g id="edge134" class="edge"><title>Node35&#45;&gt;Node10</title>
<path fill="none" stroke="midnightblue" d="M282.083,-304.348C297.641,-289.799 327.28,-263.521 356,-246 436.809,-196.702 541.684,-159.459 600.617,-140.648"/>
<polygon fill="midnightblue" stroke="midnightblue" points="601.888,-143.917 610.371,-137.569 599.781,-137.241 601.888,-143.917"/>
</g>
<!-- Node37&#45;&gt;Node26 -->
<g id="edge146" class="edge"><title>Node37&#45;&gt;Node26</title>
<path fill="none" stroke="midnightblue" d="M200.312,-246.267C202.289,-237.085 205.191,-223.615 207.608,-212.392"/>
<polygon fill="midnightblue" stroke="midnightblue" points="211.047,-213.046 209.731,-202.534 204.204,-211.573 211.047,-213.046"/>
</g>
<!-- Node37&#45;&gt;Node29 -->
<g id="edge150" class="edge"><title>Node37&#45;&gt;Node29</title>
<path fill="none" stroke="midnightblue" d="M183.188,-246.362C151.688,-223.737 77.8513,-170.705 40.1048,-143.595"/>
<polygon fill="midnightblue" stroke="midnightblue" points="41.9267,-140.594 31.7628,-137.603 37.8432,-146.28 41.9267,-140.594"/>
</g>
<!-- Node37&#45;&gt;Node31 -->
<g id="edge148" class="edge"><title>Node37&#45;&gt;Node31</title>
<path fill="none" stroke="midnightblue" d="M259.506,-252.558C430.024,-240.243 905.913,-205.873 1053.66,-195.202"/>
<polygon fill="midnightblue" stroke="midnightblue" points="1054,-198.687 1063.73,-194.475 1053.5,-191.705 1054,-198.687"/>
</g>
<!-- Node38&#45;&gt;Node15 -->
<g id="edge166" class="edge"><title>Node38&#45;&gt;Node15</title>
<path fill="none" stroke="midnightblue" d="M1693.76,-181.495C1692.81,-165.095 1688.51,-133.481 1670,-116 1648.11,-95.3218 1564.05,-80.3146 1517.13,-73.349"/>
<polygon fill="midnightblue" stroke="midnightblue" points="1517.57,-69.8753 1507.17,-71.9075 1516.56,-76.8032 1517.57,-69.8753"/>
</g>
<!-- Node39 -->
<g id="node118" class="node"><title>Node39</title>
<a xlink:href="vector_8h.html" target="_top" xlink:title="base/std_ext/vector.h">
<polygon fill="white" stroke="black" points="1721.5,-116.5 1721.5,-137.5 1832.5,-137.5 1832.5,-116.5 1721.5,-116.5"/>
<text text-anchor="middle" x="1777" y="-124.5" font-family="Helvetica,sans-Serif" font-size="10.00">base/std_ext/vector.h</text>
</a>
</g>
<!-- Node38&#45;&gt;Node39 -->
<g id="edge158" class="edge"><title>Node38&#45;&gt;Node39</title>
<path fill="none" stroke="midnightblue" d="M1707.71,-181.267C1720.64,-171.139 1740.24,-155.792 1755.29,-144"/>
<polygon fill="midnightblue" stroke="midnightblue" points="1757.83,-146.455 1763.55,-137.534 1753.52,-140.944 1757.83,-146.455"/>
</g>
<!-- Node39&#45;&gt;Node15 -->
<g id="edge160" class="edge"><title>Node39&#45;&gt;Node15</title>
<path fill="none" stroke="midnightblue" d="M1724.12,-116.497C1663.82,-104.519 1567.15,-85.3173 1517.2,-75.3958"/>
<polygon fill="midnightblue" stroke="midnightblue" points="1517.77,-71.9409 1507.28,-73.4255 1516.41,-78.8068 1517.77,-71.9409"/>
</g>
<!-- Node39&#45;&gt;Node16 -->
<g id="edge162" class="edge"><title>Node39&#45;&gt;Node16</title>
<path fill="none" stroke="midnightblue" d="M1721.24,-122.922C1569.33,-111.811 1150.96,-81.2113 1022.21,-71.7946"/>
<polygon fill="midnightblue" stroke="midnightblue" points="1022.28,-68.2905 1012.05,-71.0516 1021.77,-75.2718 1022.28,-68.2905"/>
</g>
<!-- Node40 -->
<g id="node122" class="node"><title>Node40</title>
<polygon fill="white" stroke="#bfbfbf" points="1751.5,-58.5 1751.5,-79.5 1802.5,-79.5 1802.5,-58.5 1751.5,-58.5"/>
<text text-anchor="middle" x="1777" y="-66.5" font-family="Helvetica,sans-Serif" font-size="10.00">numeric</text>
</g>
<!-- Node39&#45;&gt;Node40 -->
<g id="edge164" class="edge"><title>Node39&#45;&gt;Node40</title>
<path fill="none" stroke="midnightblue" d="M1777,-116.362C1777,-108.922 1777,-98.7427 1777,-89.7276"/>
<polygon fill="midnightblue" stroke="midnightblue" points="1780.5,-89.5706 1777,-79.5707 1773.5,-89.5707 1780.5,-89.5706"/>
</g>
<!-- Node42 -->
<g id="node127" class="node"><title>Node42</title>
<polygon fill="white" stroke="#bfbfbf" points="1620.5,-362.5 1620.5,-383.5 1735.5,-383.5 1735.5,-362.5 1620.5,-362.5"/>
<text text-anchor="middle" x="1678" y="-370.5" font-family="Helvetica,sans-Serif" font-size="10.00">detail/easylogging++.h</text>
</g>
<!-- Node41&#45;&gt;Node42 -->
<g id="edge170" class="edge"><title>Node41&#45;&gt;Node42</title>
<path fill="none" stroke="midnightblue" d="M1663.3,-420.362C1665.66,-412.758 1668.91,-402.294 1671.75,-393.135"/>
<polygon fill="midnightblue" stroke="midnightblue" points="1675.1,-394.159 1674.72,-383.571 1668.41,-392.084 1675.1,-394.159"/>
</g>
</g>
</svg>
