<?xml version="1.0" encoding="UTF-8" standalone="no"?>
<!DOCTYPE svg PUBLIC "-//W3C//DTD SVG 1.1//EN"
 "http://www.w3.org/Graphics/SVG/1.1/DTD/svg11.dtd">
<!-- Generated by graphviz version 2.26.3 (20100126.1600)
 -->
<!-- Title: src/base/piecewise_interval.h Pages: 1 -->
<svg width="447pt" height="218pt"
 viewBox="0.00 0.00 447.00 218.00" xmlns="http://www.w3.org/2000/svg" xmlns:xlink="http://www.w3.org/1999/xlink">
<g id="graph1" class="graph" transform="scale(1 1) rotate(0) translate(4 214)">
<title>src/base/piecewise_interval.h</title>
<polygon fill="white" stroke="white" points="-4,5 -4,-214 444,-214 444,5 -4,5"/>
<!-- Node1 -->
<g id="node1" class="node"><title>Node1</title>
<polygon fill="#bfbfbf" stroke="black" points="160.5,-175 160.5,-209 261.5,-209 261.5,-175 160.5,-175"/>
<text text-anchor="start" x="168.5" y="-196" font-family="Helvetica,sans-Serif" font-size="10.00">src/base/piecewise</text>
<text text-anchor="middle" x="211" y="-183" font-family="Helvetica,sans-Serif" font-size="10.00">_interval.h</text>
</g>
<!-- Node2 -->
<g id="node3" class="node"><title>Node2</title>
<a xlink:href="interval_8h.html" target="_top" xlink:title="interval.h">
<polygon fill="white" stroke="black" points="183,-116.5 183,-137.5 239,-137.5 239,-116.5 183,-116.5"/>
<text text-anchor="middle" x="211" y="-124.5" font-family="Helvetica,sans-Serif" font-size="10.00">interval.h</text>
</a>
</g>
<!-- Node1&#45;&gt;Node2 -->
<g id="edge2" class="edge"><title>Node1&#45;&gt;Node2</title>
<path fill="none" stroke="midnightblue" d="M211,-174.922C211,-166.67 211,-156.692 211,-147.982"/>
<polygon fill="midnightblue" stroke="midnightblue" points="214.5,-147.852 211,-137.852 207.5,-147.852 214.5,-147.852"/>
</g>
<!-- Node3 -->
<g id="node5" class="node"><title>Node3</title>
<a xlink:href="printable_8h.html" target="_top" xlink:title="printable.h">
<polygon fill="white" stroke="black" points="37,-58.5 37,-79.5 99,-79.5 99,-58.5 37,-58.5"/>
<text text-anchor="middle" x="68" y="-66.5" font-family="Helvetica,sans-Serif" font-size="10.00">printable.h</text>
</a>
</g>
<!-- Node1&#45;&gt;Node3 -->
<g id="edge20" class="edge"><title>Node1&#45;&gt;Node3</title>
<path fill="none" stroke="midnightblue" d="M191.116,-174.897C163.993,-151.567 115.648,-109.984 88.306,-86.466"/>
<polygon fill="midnightblue" stroke="midnightblue" points="90.4052,-83.655 80.5415,-79.7875 85.8405,-88.962 90.4052,-83.655"/>
</g>
<!-- Node11 -->
<g id="node22" class="node"><title>Node11</title>
<polygon fill="white" stroke="#bfbfbf" points="257,-116.5 257,-137.5 301,-137.5 301,-116.5 257,-116.5"/>
<text text-anchor="middle" x="279" y="-124.5" font-family="Helvetica,sans-Serif" font-size="10.00">vector</text>
</g>
<!-- Node1&#45;&gt;Node11 -->
<g id="edge22" class="edge"><title>Node1&#45;&gt;Node11</title>
<path fill="none" stroke="midnightblue" d="M228.866,-174.922C238.554,-165.662 250.516,-154.227 260.326,-144.85"/>
<polygon fill="midnightblue" stroke="midnightblue" points="262.837,-147.292 267.647,-137.852 258,-142.232 262.837,-147.292"/>
</g>
<!-- Node2&#45;&gt;Node3 -->
<g id="edge4" class="edge"><title>Node2&#45;&gt;Node3</title>
<path fill="none" stroke="midnightblue" d="M185.104,-116.497C162.367,-107.275 129.07,-93.7695 103.788,-83.5153"/>
<polygon fill="midnightblue" stroke="midnightblue" points="104.769,-80.1365 94.1868,-79.6212 102.138,-86.6232 104.769,-80.1365"/>
</g>
<!-- Node6 -->
<g id="node11" class="node"><title>Node6</title>
<a xlink:href="types_8h.html" target="_top" xlink:title="types.h">
<polygon fill="white" stroke="black" points="116.5,-58.5 116.5,-79.5 165.5,-79.5 165.5,-58.5 116.5,-58.5"/>
<text text-anchor="middle" x="141" y="-66.5" font-family="Helvetica,sans-Serif" font-size="10.00">types.h</text>
</a>
</g>
<!-- Node2&#45;&gt;Node6 -->
<g id="edge10" class="edge"><title>Node2&#45;&gt;Node6</title>
<path fill="none" stroke="midnightblue" d="M198.161,-116.362C187.998,-107.941 173.599,-96.0105 161.796,-86.2308"/>
<polygon fill="midnightblue" stroke="midnightblue" points="163.691,-83.2558 153.758,-79.5707 159.225,-88.6459 163.691,-83.2558"/>
</g>
<!-- Node7 -->
<g id="node13" class="node"><title>Node7</title>
<polygon fill="white" stroke="#bfbfbf" points="183,-58.5 183,-79.5 239,-79.5 239,-58.5 183,-58.5"/>
<text text-anchor="middle" x="211" y="-66.5" font-family="Helvetica,sans-Serif" font-size="10.00">algorithm</text>
</g>
<!-- Node2&#45;&gt;Node7 -->
<g id="edge12" class="edge"><title>Node2&#45;&gt;Node7</title>
<path fill="none" stroke="midnightblue" d="M211,-116.362C211,-108.922 211,-98.7427 211,-89.7276"/>
<polygon fill="midnightblue" stroke="midnightblue" points="214.5,-89.5706 211,-79.5707 207.5,-89.5707 214.5,-89.5706"/>
</g>
<!-- Node8 -->
<g id="node15" class="node"><title>Node8</title>
<polygon fill="white" stroke="#bfbfbf" points="256.5,-58.5 256.5,-79.5 315.5,-79.5 315.5,-58.5 256.5,-58.5"/>
<text text-anchor="middle" x="286" y="-66.5" font-family="Helvetica,sans-Serif" font-size="10.00">stdexcept</text>
</g>
<!-- Node2&#45;&gt;Node8 -->
<g id="edge14" class="edge"><title>Node2&#45;&gt;Node8</title>
<path fill="none" stroke="midnightblue" d="M224.756,-116.362C235.751,-107.859 251.373,-95.7785 264.086,-85.9466"/>
<polygon fill="midnightblue" stroke="midnightblue" points="266.562,-88.4569 272.331,-79.5707 262.279,-82.9195 266.562,-88.4569"/>
</g>
<!-- Node9 -->
<g id="node17" class="node"><title>Node9</title>
<polygon fill="white" stroke="#bfbfbf" points="333,-58.5 333,-79.5 373,-79.5 373,-58.5 333,-58.5"/>
<text text-anchor="middle" x="353" y="-66.5" font-family="Helvetica,sans-Serif" font-size="10.00">limits</text>
</g>
<!-- Node2&#45;&gt;Node9 -->
<g id="edge16" class="edge"><title>Node2&#45;&gt;Node9</title>
<path fill="none" stroke="midnightblue" d="M236.715,-116.497C261.128,-106.525 297.8,-91.5466 323.414,-81.0842"/>
<polygon fill="midnightblue" stroke="midnightblue" points="325.042,-84.2003 332.976,-77.1788 322.395,-77.72 325.042,-84.2003"/>
</g>
<!-- Node10 -->
<g id="node19" class="node"><title>Node10</title>
<polygon fill="white" stroke="#bfbfbf" points="390.5,-58.5 390.5,-79.5 439.5,-79.5 439.5,-58.5 390.5,-58.5"/>
<text text-anchor="middle" x="415" y="-66.5" font-family="Helvetica,sans-Serif" font-size="10.00">istream</text>
</g>
<!-- Node2&#45;&gt;Node10 -->
<g id="edge18" class="edge"><title>Node2&#45;&gt;Node10</title>
<path fill="none" stroke="midnightblue" d="M239.259,-118.515C242.208,-117.654 245.163,-116.803 248,-116 304.325,-100.064 321.247,-97.9454 380.327,-80.4001"/>
<polygon fill="midnightblue" stroke="midnightblue" points="381.609,-83.6699 390.184,-77.4472 379.6,-76.9643 381.609,-83.6699"/>
</g>
<!-- Node4 -->
<g id="node7" class="node"><title>Node4</title>
<polygon fill="white" stroke="#bfbfbf" points="0,-0.5 0,-21.5 62,-21.5 62,-0.5 0,-0.5"/>
<text text-anchor="middle" x="31" y="-8.5" font-family="Helvetica,sans-Serif" font-size="10.00">type_traits</text>
</g>
<!-- Node3&#45;&gt;Node4 -->
<g id="edge6" class="edge"><title>Node3&#45;&gt;Node4</title>
<path fill="none" stroke="midnightblue" d="M61.2136,-58.3619C56.2066,-50.5131 49.255,-39.6159 43.2819,-30.2527"/>
<polygon fill="midnightblue" stroke="midnightblue" points="46.0723,-28.1189 37.7433,-21.5707 40.1708,-31.8837 46.0723,-28.1189"/>
</g>
<!-- Node5 -->
<g id="node9" class="node"><title>Node5</title>
<polygon fill="white" stroke="#bfbfbf" points="80,-0.5 80,-21.5 132,-21.5 132,-0.5 80,-0.5"/>
<text text-anchor="middle" x="106" y="-8.5" font-family="Helvetica,sans-Serif" font-size="10.00">ostream</text>
</g>
<!-- Node3&#45;&gt;Node5 -->
<g id="edge8" class="edge"><title>Node3&#45;&gt;Node5</title>
<path fill="none" stroke="midnightblue" d="M74.9698,-58.3619C80.1657,-50.4313 87.4006,-39.3885 93.5775,-29.9606"/>
<polygon fill="midnightblue" stroke="midnightblue" points="96.5217,-31.8534 99.0744,-21.5707 90.6665,-28.0172 96.5217,-31.8534"/>
</g>
</g>
</svg>
