<?xml version="1.0" encoding="UTF-8" standalone="no"?>
<!DOCTYPE svg PUBLIC "-//W3C//DTD SVG 1.1//EN"
 "http://www.w3.org/Graphics/SVG/1.1/DTD/svg11.dtd">
<!-- Generated by graphviz version 2.26.3 (20100126.1600)
 -->
<!-- Title: src/base/printable.h Pages: 1 -->
<svg width="140pt" height="88pt"
 viewBox="0.00 0.00 140.00 88.00" xmlns="http://www.w3.org/2000/svg" xmlns:xlink="http://www.w3.org/1999/xlink">
<g id="graph1" class="graph" transform="scale(1 1) rotate(0) translate(4 84)">
<title>src/base/printable.h</title>
<polygon fill="white" stroke="white" points="-4,5 -4,-84 137,-84 137,5 -4,5"/>
<!-- Node1 -->
<g id="node1" class="node"><title>Node1</title>
<polygon fill="#bfbfbf" stroke="black" points="17,-58.5 17,-79.5 119,-79.5 119,-58.5 17,-58.5"/>
<text text-anchor="middle" x="68" y="-66.5" font-family="Helvetica,sans-Serif" font-size="10.00">src/base/printable.h</text>
</g>
<!-- Node2 -->
<g id="node3" class="node"><title>Node2</title>
<polygon fill="white" stroke="#bfbfbf" points="0,-0.5 0,-21.5 62,-21.5 62,-0.5 0,-0.5"/>
<text text-anchor="middle" x="31" y="-8.5" font-family="Helvetica,sans-Serif" font-size="10.00">type_traits</text>
</g>
<!-- Node1&#45;&gt;Node2 -->
<g id="edge2" class="edge"><title>Node1&#45;&gt;Node2</title>
<path fill="none" stroke="midnightblue" d="M61.2136,-58.3619C56.2066,-50.5131 49.255,-39.6159 43.2819,-30.2527"/>
<polygon fill="midnightblue" stroke="midnightblue" points="46.0723,-28.1189 37.7433,-21.5707 40.1708,-31.8837 46.0723,-28.1189"/>
</g>
<!-- Node3 -->
<g id="node5" class="node"><title>Node3</title>
<polygon fill="white" stroke="#bfbfbf" points="80,-0.5 80,-21.5 132,-21.5 132,-0.5 80,-0.5"/>
<text text-anchor="middle" x="106" y="-8.5" font-family="Helvetica,sans-Serif" font-size="10.00">ostream</text>
</g>
<!-- Node1&#45;&gt;Node3 -->
<g id="edge4" class="edge"><title>Node1&#45;&gt;Node3</title>
<path fill="none" stroke="midnightblue" d="M74.9698,-58.3619C80.1657,-50.4313 87.4006,-39.3885 93.5775,-29.9606"/>
<polygon fill="midnightblue" stroke="midnightblue" points="96.5217,-31.8534 99.0744,-21.5707 90.6665,-28.0172 96.5217,-31.8534"/>
</g>
</g>
</svg>
