<?xml version="1.0" encoding="UTF-8" standalone="no"?>
<!DOCTYPE svg PUBLIC "-//W3C//DTD SVG 1.1//EN"
 "http://www.w3.org/Graphics/SVG/1.1/DTD/svg11.dtd">
<!-- Generated by graphviz version 2.26.3 (20100126.1600)
 -->
<!-- Title: src/analysis/plot/root_draw.cc Pages: 1 -->
<svg width="1199pt" height="160pt"
 viewBox="0.00 0.00 1199.00 160.00" xmlns="http://www.w3.org/2000/svg" xmlns:xlink="http://www.w3.org/1999/xlink">
<g id="graph1" class="graph" transform="scale(1 1) rotate(0) translate(4 156)">
<title>src/analysis/plot/root_draw.cc</title>
<polygon fill="white" stroke="white" points="-4,5 -4,-156 1196,-156 1196,5 -4,5"/>
<!-- Node1 -->
<g id="node1" class="node"><title>Node1</title>
<polygon fill="#bfbfbf" stroke="black" points="564.5,-117 564.5,-151 671.5,-151 671.5,-117 564.5,-117"/>
<text text-anchor="start" x="572.5" y="-138" font-family="Helvetica,sans-Serif" font-size="10.00">src/analysis/plot/root</text>
<text text-anchor="middle" x="618" y="-125" font-family="Helvetica,sans-Serif" font-size="10.00">_draw.cc</text>
</g>
<!-- Node2 -->
<g id="node3" class="node"><title>Node2</title>
<a xlink:href="root__draw_8h.html" target="_top" xlink:title="plot/root_draw.h">
<polygon fill="white" stroke="black" points="249,-58.5 249,-79.5 335,-79.5 335,-58.5 249,-58.5"/>
<text text-anchor="middle" x="292" y="-66.5" font-family="Helvetica,sans-Serif" font-size="10.00">plot/root_draw.h</text>
</a>
</g>
<!-- Node1&#45;&gt;Node2 -->
<g id="edge2" class="edge"><title>Node1&#45;&gt;Node2</title>
<path fill="none" stroke="midnightblue" d="M564.403,-123.665C511.295,-113.373 427.356,-96.9686 345.137,-80.2143"/>
<polygon fill="midnightblue" stroke="midnightblue" points="345.619,-76.7406 335.121,-78.1698 344.219,-83.5992 345.619,-76.7406"/>
</g>
<!-- Node9 -->
<g id="node17" class="node"><title>Node9</title>
<a xlink:href="string_8h.html" target="_top" xlink:title="base/std_ext/string.h">
<polygon fill="white" stroke="black" points="123,-58.5 123,-79.5 231,-79.5 231,-58.5 123,-58.5"/>
<text text-anchor="middle" x="177" y="-66.5" font-family="Helvetica,sans-Serif" font-size="10.00">base/std_ext/string.h</text>
</a>
</g>
<!-- Node1&#45;&gt;Node9 -->
<g id="edge16" class="edge"><title>Node1&#45;&gt;Node9</title>
<path fill="none" stroke="midnightblue" d="M564.401,-126.875C493.073,-117.275 362.767,-99.3278 241.484,-80.2026"/>
<polygon fill="midnightblue" stroke="midnightblue" points="241.703,-76.6937 231.278,-78.587 240.608,-83.6076 241.703,-76.6937"/>
</g>
<!-- Node10 -->
<g id="node20" class="node"><title>Node10</title>
<polygon fill="white" stroke="#bfbfbf" points="0,-0.5 0,-21.5 52,-21.5 52,-0.5 0,-0.5"/>
<text text-anchor="middle" x="26" y="-8.5" font-family="Helvetica,sans-Serif" font-size="10.00">sstream</text>
</g>
<!-- Node1&#45;&gt;Node10 -->
<g id="edge48" class="edge"><title>Node1&#45;&gt;Node10</title>
<path fill="none" stroke="midnightblue" d="M564.206,-132.859C448.324,-129.69 178.971,-118.31 97,-80 73.0877,-68.8244 52.3157,-46.2284 39.5207,-29.9343"/>
<polygon fill="midnightblue" stroke="midnightblue" points="42.0812,-27.5169 33.2638,-21.643 36.4937,-31.7335 42.0812,-27.5169"/>
</g>
<!-- Node11 -->
<g id="node22" class="node"><title>Node11</title>
<polygon fill="white" stroke="#bfbfbf" points="70,-0.5 70,-21.5 126,-21.5 126,-0.5 70,-0.5"/>
<text text-anchor="middle" x="98" y="-8.5" font-family="Helvetica,sans-Serif" font-size="10.00">algorithm</text>
</g>
<!-- Node1&#45;&gt;Node11 -->
<g id="edge52" class="edge"><title>Node1&#45;&gt;Node11</title>
<path fill="none" stroke="midnightblue" d="M564.169,-131.717C441.107,-126.011 147.227,-109.428 114,-80 100.666,-68.1908 97.2988,-47.6561 96.8884,-32.0501"/>
<polygon fill="midnightblue" stroke="midnightblue" points="100.392,-31.7941 97.012,-21.7528 93.3922,-31.7101 100.392,-31.7941"/>
</g>
<!-- Node12 -->
<g id="node25" class="node"><title>Node12</title>
<a xlink:href="_logger_8h.html" target="_top" xlink:title="base/Logger.h">
<polygon fill="white" stroke="black" points="353,-58.5 353,-79.5 431,-79.5 431,-58.5 353,-58.5"/>
<text text-anchor="middle" x="392" y="-66.5" font-family="Helvetica,sans-Serif" font-size="10.00">base/Logger.h</text>
</a>
</g>
<!-- Node1&#45;&gt;Node12 -->
<g id="edge26" class="edge"><title>Node1&#45;&gt;Node12</title>
<path fill="none" stroke="midnightblue" d="M564.441,-118.596C526.142,-107.581 475.107,-92.9025 438.512,-82.3773"/>
<polygon fill="midnightblue" stroke="midnightblue" points="439.173,-78.9257 428.595,-79.5252 437.238,-85.653 439.173,-78.9257"/>
</g>
<!-- Node14 -->
<g id="node29" class="node"><title>Node14</title>
<polygon fill="white" stroke="#bfbfbf" points="449,-58.5 449,-79.5 493,-79.5 493,-58.5 449,-58.5"/>
<text text-anchor="middle" x="471" y="-66.5" font-family="Helvetica,sans-Serif" font-size="10.00">TH1.h</text>
</g>
<!-- Node1&#45;&gt;Node14 -->
<g id="edge30" class="edge"><title>Node1&#45;&gt;Node14</title>
<path fill="none" stroke="midnightblue" d="M579.377,-116.922C555.517,-106.372 525.273,-92.9984 502.801,-83.0617"/>
<polygon fill="midnightblue" stroke="midnightblue" points="503.942,-79.7395 493.381,-78.8964 501.111,-86.1416 503.942,-79.7395"/>
</g>
<!-- Node15 -->
<g id="node31" class="node"><title>Node15</title>
<polygon fill="white" stroke="#bfbfbf" points="510.5,-58.5 510.5,-79.5 569.5,-79.5 569.5,-58.5 510.5,-58.5"/>
<text text-anchor="middle" x="540" y="-66.5" font-family="Helvetica,sans-Serif" font-size="10.00">TObject.h</text>
</g>
<!-- Node1&#45;&gt;Node15 -->
<g id="edge32" class="edge"><title>Node1&#45;&gt;Node15</title>
<path fill="none" stroke="midnightblue" d="M597.506,-116.922C586.174,-107.479 572.128,-95.7736 560.755,-86.2957"/>
<polygon fill="midnightblue" stroke="midnightblue" points="562.945,-83.5652 553.023,-79.8521 558.464,-88.9428 562.945,-83.5652"/>
</g>
<!-- Node16 -->
<g id="node33" class="node"><title>Node16</title>
<polygon fill="white" stroke="#bfbfbf" points="587,-58.5 587,-79.5 649,-79.5 649,-58.5 587,-58.5"/>
<text text-anchor="middle" x="618" y="-66.5" font-family="Helvetica,sans-Serif" font-size="10.00">TNamed.h</text>
</g>
<!-- Node1&#45;&gt;Node16 -->
<g id="edge34" class="edge"><title>Node1&#45;&gt;Node16</title>
<path fill="none" stroke="midnightblue" d="M618,-116.922C618,-108.67 618,-98.6922 618,-89.9818"/>
<polygon fill="midnightblue" stroke="midnightblue" points="621.5,-89.8521 618,-79.8521 614.5,-89.8521 621.5,-89.8521"/>
</g>
<!-- Node17 -->
<g id="node35" class="node"><title>Node17</title>
<polygon fill="white" stroke="#bfbfbf" points="666.5,-58.5 666.5,-79.5 731.5,-79.5 731.5,-58.5 666.5,-58.5"/>
<text text-anchor="middle" x="699" y="-66.5" font-family="Helvetica,sans-Serif" font-size="10.00">TCanvas.h</text>
</g>
<!-- Node1&#45;&gt;Node17 -->
<g id="edge36" class="edge"><title>Node1&#45;&gt;Node17</title>
<path fill="none" stroke="midnightblue" d="M639.282,-116.922C651.05,-107.479 665.636,-95.7736 677.447,-86.2957"/>
<polygon fill="midnightblue" stroke="midnightblue" points="679.868,-88.8406 685.477,-79.8521 675.487,-83.3811 679.868,-88.8406"/>
</g>
<!-- Node18 -->
<g id="node37" class="node"><title>Node18</title>
<polygon fill="white" stroke="#bfbfbf" points="748.5,-58.5 748.5,-79.5 807.5,-79.5 807.5,-58.5 748.5,-58.5"/>
<text text-anchor="middle" x="778" y="-66.5" font-family="Helvetica,sans-Serif" font-size="10.00">TROOT.h</text>
</g>
<!-- Node1&#45;&gt;Node18 -->
<g id="edge38" class="edge"><title>Node1&#45;&gt;Node18</title>
<path fill="none" stroke="midnightblue" d="M660.038,-116.922C685.59,-106.541 717.869,-93.4282 742.199,-83.5443"/>
<polygon fill="midnightblue" stroke="midnightblue" points="743.817,-86.6648 751.764,-79.6584 741.182,-80.1796 743.817,-86.6648"/>
</g>
<!-- Node19 -->
<g id="node39" class="node"><title>Node19</title>
<polygon fill="white" stroke="#bfbfbf" points="825,-58.5 825,-79.5 889,-79.5 889,-58.5 825,-58.5"/>
<text text-anchor="middle" x="857" y="-66.5" font-family="Helvetica,sans-Serif" font-size="10.00">THStack.h</text>
</g>
<!-- Node1&#45;&gt;Node19 -->
<g id="edge40" class="edge"><title>Node1&#45;&gt;Node19</title>
<path fill="none" stroke="midnightblue" d="M671.636,-119.413C715.028,-107.612 775.268,-91.2285 815.152,-80.3811"/>
<polygon fill="midnightblue" stroke="midnightblue" points="816.1,-83.7505 824.831,-77.7488 814.263,-76.9959 816.1,-83.7505"/>
</g>
<!-- Node20 -->
<g id="node41" class="node"><title>Node20</title>
<polygon fill="white" stroke="#bfbfbf" points="907,-58.5 907,-79.5 983,-79.5 983,-58.5 907,-58.5"/>
<text text-anchor="middle" x="945" y="-66.5" font-family="Helvetica,sans-Serif" font-size="10.00">TVirtualPad.h</text>
</g>
<!-- Node1&#45;&gt;Node20 -->
<g id="edge42" class="edge"><title>Node1&#45;&gt;Node20</title>
<path fill="none" stroke="midnightblue" d="M671.544,-124.322C725.841,-114.362 812.528,-98.0618 896.811,-80.1998"/>
<polygon fill="midnightblue" stroke="midnightblue" points="897.757,-83.5769 906.809,-78.071 896.299,-76.7304 897.757,-83.5769"/>
</g>
<!-- Node21 -->
<g id="node43" class="node"><title>Node21</title>
<polygon fill="white" stroke="#bfbfbf" points="1001,-58.5 1001,-79.5 1051,-79.5 1051,-58.5 1001,-58.5"/>
<text text-anchor="middle" x="1026" y="-66.5" font-family="Helvetica,sans-Serif" font-size="10.00">TTree.h</text>
</g>
<!-- Node1&#45;&gt;Node21 -->
<g id="edge44" class="edge"><title>Node1&#45;&gt;Node21</title>
<path fill="none" stroke="midnightblue" d="M671.793,-129.126C742.932,-122.044 872.214,-106.969 990.9,-79.9574"/>
<polygon fill="midnightblue" stroke="midnightblue" points="991.927,-83.3123 1000.88,-77.651 990.351,-76.4919 991.927,-83.3123"/>
</g>
<!-- Node22 -->
<g id="node45" class="node"><title>Node22</title>
<polygon fill="white" stroke="#bfbfbf" points="1069,-58.5 1069,-79.5 1123,-79.5 1123,-58.5 1069,-58.5"/>
<text text-anchor="middle" x="1096" y="-66.5" font-family="Helvetica,sans-Serif" font-size="10.00">iostream</text>
</g>
<!-- Node1&#45;&gt;Node22 -->
<g id="edge46" class="edge"><title>Node1&#45;&gt;Node22</title>
<path fill="none" stroke="midnightblue" d="M671.566,-130.494C753.332,-124.477 914.176,-110.029 1058.68,-80.0035"/>
<polygon fill="midnightblue" stroke="midnightblue" points="1059.55,-83.3969 1068.61,-77.9091 1058.11,-76.5475 1059.55,-83.3969"/>
</g>
<!-- Node23 -->
<g id="node48" class="node"><title>Node23</title>
<polygon fill="white" stroke="#bfbfbf" points="1141,-58.5 1141,-79.5 1191,-79.5 1191,-58.5 1141,-58.5"/>
<text text-anchor="middle" x="1166" y="-66.5" font-family="Helvetica,sans-Serif" font-size="10.00">iomanip</text>
</g>
<!-- Node1&#45;&gt;Node23 -->
<g id="edge50" class="edge"><title>Node1&#45;&gt;Node23</title>
<path fill="none" stroke="midnightblue" d="M671.849,-132.029C764.27,-127.846 958.941,-115.538 1130.92,-79.8664"/>
<polygon fill="midnightblue" stroke="midnightblue" points="1131.84,-83.2484 1140.91,-77.7624 1130.4,-76.3987 1131.84,-83.2484"/>
</g>
<!-- Node3 -->
<g id="node5" class="node"><title>Node3</title>
<polygon fill="white" stroke="#bfbfbf" points="205.5,-0.5 205.5,-21.5 246.5,-21.5 246.5,-0.5 205.5,-0.5"/>
<text text-anchor="middle" x="226" y="-8.5" font-family="Helvetica,sans-Serif" font-size="10.00">string</text>
</g>
<!-- Node2&#45;&gt;Node3 -->
<g id="edge4" class="edge"><title>Node2&#45;&gt;Node3</title>
<path fill="none" stroke="midnightblue" d="M279.895,-58.3619C270.312,-49.9408 256.736,-38.0105 245.607,-28.2308"/>
<polygon fill="midnightblue" stroke="midnightblue" points="247.851,-25.5427 238.029,-21.5707 243.23,-30.8009 247.851,-25.5427"/>
</g>
<!-- Node4 -->
<g id="node7" class="node"><title>Node4</title>
<polygon fill="white" stroke="#bfbfbf" points="337.5,-0.5 337.5,-21.5 366.5,-21.5 366.5,-0.5 337.5,-0.5"/>
<text text-anchor="middle" x="352" y="-8.5" font-family="Helvetica,sans-Serif" font-size="10.00">list</text>
</g>
<!-- Node2&#45;&gt;Node4 -->
<g id="edge6" class="edge"><title>Node2&#45;&gt;Node4</title>
<path fill="none" stroke="midnightblue" d="M303.005,-58.3619C311.547,-50.1043 323.58,-38.4725 333.583,-28.8029"/>
<polygon fill="midnightblue" stroke="midnightblue" points="336.308,-31.0374 341.065,-21.5707 331.442,-26.0044 336.308,-31.0374"/>
</g>
<!-- Node5 -->
<g id="node9" class="node"><title>Node5</title>
<polygon fill="white" stroke="#bfbfbf" points="144,-0.5 144,-21.5 188,-21.5 188,-0.5 144,-0.5"/>
<text text-anchor="middle" x="166" y="-8.5" font-family="Helvetica,sans-Serif" font-size="10.00">vector</text>
</g>
<!-- Node2&#45;&gt;Node5 -->
<g id="edge8" class="edge"><title>Node2&#45;&gt;Node5</title>
<path fill="none" stroke="midnightblue" d="M269.182,-58.4966C249.167,-49.2832 219.865,-35.7949 197.596,-25.5442"/>
<polygon fill="midnightblue" stroke="midnightblue" points="198.772,-22.2327 188.225,-21.2305 195.845,-28.5914 198.772,-22.2327"/>
</g>
<!-- Node6 -->
<g id="node11" class="node"><title>Node6</title>
<polygon fill="white" stroke="#bfbfbf" points="384,-0.5 384,-21.5 436,-21.5 436,-0.5 384,-0.5"/>
<text text-anchor="middle" x="410" y="-8.5" font-family="Helvetica,sans-Serif" font-size="10.00">memory</text>
</g>
<!-- Node2&#45;&gt;Node6 -->
<g id="edge10" class="edge"><title>Node2&#45;&gt;Node6</title>
<path fill="none" stroke="midnightblue" d="M313.369,-58.4966C331.799,-49.4378 358.637,-36.2462 379.355,-26.0628"/>
<polygon fill="midnightblue" stroke="midnightblue" points="380.961,-29.1735 388.391,-21.6212 377.873,-22.8914 380.961,-29.1735"/>
</g>
<!-- Node7 -->
<g id="node13" class="node"><title>Node7</title>
<polygon fill="white" stroke="#bfbfbf" points="453.5,-0.5 453.5,-21.5 512.5,-21.5 512.5,-0.5 453.5,-0.5"/>
<text text-anchor="middle" x="483" y="-8.5" font-family="Helvetica,sans-Serif" font-size="10.00">functional</text>
</g>
<!-- Node2&#45;&gt;Node7 -->
<g id="edge12" class="edge"><title>Node2&#45;&gt;Node7</title>
<path fill="none" stroke="midnightblue" d="M326.589,-58.4966C359.562,-48.4838 409.162,-33.422 443.634,-22.954"/>
<polygon fill="midnightblue" stroke="midnightblue" points="444.818,-26.2523 453.37,-19.9976 442.784,-19.5543 444.818,-26.2523"/>
</g>
<!-- Node8 -->
<g id="node15" class="node"><title>Node8</title>
<polygon fill="white" stroke="#bfbfbf" points="264,-0.5 264,-21.5 320,-21.5 320,-0.5 264,-0.5"/>
<text text-anchor="middle" x="292" y="-8.5" font-family="Helvetica,sans-Serif" font-size="10.00">Rtypes.h</text>
</g>
<!-- Node2&#45;&gt;Node8 -->
<g id="edge14" class="edge"><title>Node2&#45;&gt;Node8</title>
<path fill="none" stroke="midnightblue" d="M292,-58.3619C292,-50.9219 292,-40.7427 292,-31.7276"/>
<polygon fill="midnightblue" stroke="midnightblue" points="295.5,-31.5706 292,-21.5707 288.5,-31.5707 295.5,-31.5706"/>
</g>
<!-- Node9&#45;&gt;Node3 -->
<g id="edge18" class="edge"><title>Node9&#45;&gt;Node3</title>
<path fill="none" stroke="midnightblue" d="M185.987,-58.3619C192.825,-50.2678 202.402,-38.9318 210.472,-29.3796"/>
<polygon fill="midnightblue" stroke="midnightblue" points="213.29,-31.4683 217.07,-21.5707 207.942,-26.9508 213.29,-31.4683"/>
</g>
<!-- Node9&#45;&gt;Node5 -->
<g id="edge24" class="edge"><title>Node9&#45;&gt;Node5</title>
<path fill="none" stroke="midnightblue" d="M174.982,-58.3619C173.556,-50.8401 171.598,-40.5187 169.875,-31.4308"/>
<polygon fill="midnightblue" stroke="midnightblue" points="173.307,-30.7433 168.005,-21.5707 166.429,-32.0477 173.307,-30.7433"/>
</g>
<!-- Node9&#45;&gt;Node10 -->
<g id="edge20" class="edge"><title>Node9&#45;&gt;Node10</title>
<path fill="none" stroke="midnightblue" d="M149.655,-58.4966C124.979,-49.0185 88.525,-35.0162 61.5861,-24.6688"/>
<polygon fill="midnightblue" stroke="midnightblue" points="62.7212,-21.3556 52.1312,-21.0371 60.2112,-27.8901 62.7212,-21.3556"/>
</g>
<!-- Node9&#45;&gt;Node11 -->
<g id="edge22" class="edge"><title>Node9&#45;&gt;Node11</title>
<path fill="none" stroke="midnightblue" d="M162.51,-58.3619C150.817,-49.7773 134.157,-37.5459 120.697,-27.6636"/>
<polygon fill="midnightblue" stroke="midnightblue" points="122.53,-24.6675 112.398,-21.5707 118.387,-30.31 122.53,-24.6675"/>
</g>
<!-- Node13 -->
<g id="node27" class="node"><title>Node13</title>
<polygon fill="white" stroke="#bfbfbf" points="529.5,-0.5 529.5,-21.5 644.5,-21.5 644.5,-0.5 529.5,-0.5"/>
<text text-anchor="middle" x="587" y="-8.5" font-family="Helvetica,sans-Serif" font-size="10.00">detail/easylogging++.h</text>
</g>
<!-- Node12&#45;&gt;Node13 -->
<g id="edge28" class="edge"><title>Node12&#45;&gt;Node13</title>
<path fill="none" stroke="midnightblue" d="M427.313,-58.4966C459.379,-48.9592 506.845,-34.8408 541.696,-24.475"/>
<polygon fill="midnightblue" stroke="midnightblue" points="543.034,-27.7288 551.621,-21.5231 541.038,-21.0193 543.034,-27.7288"/>
</g>
</g>
</svg>
