<?xml version="1.0" encoding="UTF-8" standalone="no"?>
<!DOCTYPE svg PUBLIC "-//W3C//DTD SVG 1.1//EN"
 "http://www.w3.org/Graphics/SVG/1.1/DTD/svg11.dtd">
<!-- Generated by graphviz version 2.26.3 (20100126.1600)
 -->
<!-- Title: src/analysis/plot/root_draw.h Pages: 1 -->
<svg width="376pt" height="102pt"
 viewBox="0.00 0.00 376.00 102.00" xmlns="http://www.w3.org/2000/svg" xmlns:xlink="http://www.w3.org/1999/xlink">
<g id="graph1" class="graph" transform="scale(1 1) rotate(0) translate(4 98)">
<title>src/analysis/plot/root_draw.h</title>
<polygon fill="white" stroke="white" points="-4,5 -4,-98 373,-98 373,5 -4,5"/>
<!-- Node1 -->
<g id="node1" class="node"><title>Node1</title>
<polygon fill="#bfbfbf" stroke="black" points="105.5,-59 105.5,-93 212.5,-93 212.5,-59 105.5,-59"/>
<text text-anchor="start" x="113.5" y="-80" font-family="Helvetica,sans-Serif" font-size="10.00">src/analysis/plot/root</text>
<text text-anchor="middle" x="159" y="-67" font-family="Helvetica,sans-Serif" font-size="10.00">_draw.h</text>
</g>
<!-- Node2 -->
<g id="node3" class="node"><title>Node2</title>
<polygon fill="white" stroke="#bfbfbf" points="-0.5,-0.5 -0.5,-21.5 40.5,-21.5 40.5,-0.5 -0.5,-0.5"/>
<text text-anchor="middle" x="20" y="-8.5" font-family="Helvetica,sans-Serif" font-size="10.00">string</text>
</g>
<!-- Node1&#45;&gt;Node2 -->
<g id="edge2" class="edge"><title>Node1&#45;&gt;Node2</title>
<path fill="none" stroke="midnightblue" d="M122.479,-58.922C99.8793,-48.3537 71.2224,-34.9529 49.9622,-25.0111"/>
<polygon fill="midnightblue" stroke="midnightblue" points="51.3039,-21.7748 40.7628,-20.7092 48.3386,-28.1157 51.3039,-21.7748"/>
</g>
<!-- Node3 -->
<g id="node5" class="node"><title>Node3</title>
<polygon fill="white" stroke="#bfbfbf" points="57.5,-0.5 57.5,-21.5 86.5,-21.5 86.5,-0.5 57.5,-0.5"/>
<text text-anchor="middle" x="72" y="-8.5" font-family="Helvetica,sans-Serif" font-size="10.00">list</text>
</g>
<!-- Node1&#45;&gt;Node3 -->
<g id="edge4" class="edge"><title>Node1&#45;&gt;Node3</title>
<path fill="none" stroke="midnightblue" d="M136.142,-58.922C123.298,-49.3257 107.328,-37.3942 94.5362,-27.8374"/>
<polygon fill="midnightblue" stroke="midnightblue" points="96.3717,-24.8398 86.2658,-21.6584 92.182,-30.4475 96.3717,-24.8398"/>
</g>
<!-- Node4 -->
<g id="node7" class="node"><title>Node4</title>
<polygon fill="white" stroke="#bfbfbf" points="104,-0.5 104,-21.5 148,-21.5 148,-0.5 104,-0.5"/>
<text text-anchor="middle" x="126" y="-8.5" font-family="Helvetica,sans-Serif" font-size="10.00">vector</text>
</g>
<!-- Node1&#45;&gt;Node4 -->
<g id="edge6" class="edge"><title>Node1&#45;&gt;Node4</title>
<path fill="none" stroke="midnightblue" d="M150.33,-58.922C145.954,-50.3037 140.622,-39.8018 136.067,-30.8282"/>
<polygon fill="midnightblue" stroke="midnightblue" points="139.157,-29.1843 131.51,-21.8521 132.916,-32.3532 139.157,-29.1843"/>
</g>
<!-- Node5 -->
<g id="node9" class="node"><title>Node5</title>
<polygon fill="white" stroke="#bfbfbf" points="166,-0.5 166,-21.5 218,-21.5 218,-0.5 166,-0.5"/>
<text text-anchor="middle" x="192" y="-8.5" font-family="Helvetica,sans-Serif" font-size="10.00">memory</text>
</g>
<!-- Node1&#45;&gt;Node5 -->
<g id="edge8" class="edge"><title>Node1&#45;&gt;Node5</title>
<path fill="none" stroke="midnightblue" d="M167.67,-58.922C172.046,-50.3037 177.378,-39.8018 181.933,-30.8282"/>
<polygon fill="midnightblue" stroke="midnightblue" points="185.084,-32.3532 186.49,-21.8521 178.843,-29.1843 185.084,-32.3532"/>
</g>
<!-- Node6 -->
<g id="node11" class="node"><title>Node6</title>
<polygon fill="white" stroke="#bfbfbf" points="235.5,-0.5 235.5,-21.5 294.5,-21.5 294.5,-0.5 235.5,-0.5"/>
<text text-anchor="middle" x="265" y="-8.5" font-family="Helvetica,sans-Serif" font-size="10.00">functional</text>
</g>
<!-- Node1&#45;&gt;Node6 -->
<g id="edge10" class="edge"><title>Node1&#45;&gt;Node6</title>
<path fill="none" stroke="midnightblue" d="M186.85,-58.922C202.951,-49.0489 223.083,-36.7039 238.881,-27.0164"/>
<polygon fill="midnightblue" stroke="midnightblue" points="240.923,-29.8696 247.619,-21.6584 237.264,-23.9022 240.923,-29.8696"/>
</g>
<!-- Node7 -->
<g id="node13" class="node"><title>Node7</title>
<polygon fill="white" stroke="#bfbfbf" points="312,-0.5 312,-21.5 368,-21.5 368,-0.5 312,-0.5"/>
<text text-anchor="middle" x="340" y="-8.5" font-family="Helvetica,sans-Serif" font-size="10.00">Rtypes.h</text>
</g>
<!-- Node1&#45;&gt;Node7 -->
<g id="edge12" class="edge"><title>Node1&#45;&gt;Node7</title>
<path fill="none" stroke="midnightblue" d="M206.556,-58.922C236.407,-48.202 274.373,-34.5678 302.17,-24.5853"/>
<polygon fill="midnightblue" stroke="midnightblue" points="303.689,-27.7589 311.917,-21.0849 301.323,-21.1708 303.689,-27.7589"/>
</g>
</g>
</svg>
