<?xml version="1.0" encoding="UTF-8" standalone="no"?>
<!DOCTYPE svg PUBLIC "-//W3C//DTD SVG 1.1//EN"
 "http://www.w3.org/Graphics/SVG/1.1/DTD/svg11.dtd">
<!-- Generated by graphviz version 2.26.3 (20100126.1600)
 -->
<!-- Title: ant::analysis::utils::KinFitter::Z_Vertex_t Pages: 1 -->
<svg width="165pt" height="190pt"
 viewBox="0.00 0.00 165.00 190.00" xmlns="http://www.w3.org/2000/svg" xmlns:xlink="http://www.w3.org/1999/xlink">
<g id="graph1" class="graph" transform="scale(1 1) rotate(0) translate(4 186)">
<title>ant::analysis::utils::KinFitter::Z_Vertex_t</title>
<polygon fill="white" stroke="white" points="-4,5 -4,-186 162,-186 162,5 -4,5"/>
<!-- Node1 -->
<g id="node1" class="node"><title>Node1</title>
<polygon fill="#bfbfbf" stroke="black" points="2.5,-1 2.5,-35 115.5,-35 115.5,-1 2.5,-1"/>
<text text-anchor="start" x="10.5" y="-22" font-family="Helvetica,sans-Serif" font-size="10.00">ant::analysis::utils</text>
<text text-anchor="middle" x="59" y="-9" font-family="Helvetica,sans-Serif" font-size="10.00">::KinFitter::Z_Vertex_t</text>
</g>
<!-- Node2 -->
<g id="node2" class="node"><title>Node2</title>
<polygon fill="white" stroke="#bfbfbf" points="-0.5,-86.5 -0.5,-107.5 62.5,-107.5 62.5,-86.5 -0.5,-86.5"/>
<text text-anchor="middle" x="31" y="-94.5" font-family="Helvetica,sans-Serif" font-size="10.00">FitVariable</text>
</g>
<!-- Node2&#45;&gt;Node1 -->
<g id="edge2" class="edge"><title>Node2&#45;&gt;Node1</title>
<path fill="none" stroke="midnightblue" d="M38.2486,-76.5486C42.8057,-63.691 48.6177,-47.293 52.9309,-35.1236"/>
<polygon fill="midnightblue" stroke="midnightblue" points="34.818,-75.751 34.7762,-86.3457 41.4159,-78.0895 34.818,-75.751"/>
</g>
<!-- Node3 -->
<g id="node4" class="node"><title>Node3</title>
<a xlink:title="STL class. ">
<polygon fill="white" stroke="#bfbfbf" points="80,-86.5 80,-107.5 140,-107.5 140,-86.5 80,-86.5"/>
<text text-anchor="middle" x="110" y="-94.5" font-family="Helvetica,sans-Serif" font-size="10.00">std::string</text>
</a>
</g>
<!-- Node3&#45;&gt;Node1 -->
<g id="edge4" class="edge"><title>Node3&#45;&gt;Node1</title>
<path fill="none" stroke="#9a32cd" stroke-dasharray="5,2" d="M97.5379,-77.696C89.1343,-64.6787 78.1464,-47.6581 70.0545,-35.1236"/>
<polygon fill="#9a32cd" stroke="#9a32cd" points="94.7577,-79.8426 103.122,-86.3457 100.639,-76.046 94.7577,-79.8426"/>
<text text-anchor="middle" x="105" y="-58.5" font-family="Helvetica,sans-Serif" font-size="10.00"> Name</text>
</g>
<!-- Node4 -->
<g id="node6" class="node"><title>Node4</title>
<a xlink:title="STL class. ">
<polygon fill="white" stroke="#bfbfbf" points="62.5,-147 62.5,-181 157.5,-181 157.5,-147 62.5,-147"/>
<text text-anchor="start" x="70.5" y="-168" font-family="Helvetica,sans-Serif" font-size="10.00">std::basic_string&lt;</text>
<text text-anchor="middle" x="110" y="-155" font-family="Helvetica,sans-Serif" font-size="10.00"> char &gt;</text>
</a>
</g>
<!-- Node4&#45;&gt;Node3 -->
<g id="edge6" class="edge"><title>Node4&#45;&gt;Node3</title>
<path fill="none" stroke="midnightblue" d="M110,-136.534C110,-126.306 110,-115.301 110,-107.506"/>
<polygon fill="midnightblue" stroke="midnightblue" points="106.5,-136.746 110,-146.746 113.5,-136.746 106.5,-136.746"/>
</g>
</g>
</svg>
