<?xml version="1.0" encoding="UTF-8" standalone="no"?>
<!DOCTYPE svg PUBLIC "-//W3C//DTD SVG 1.1//EN"
 "http://www.w3.org/Graphics/SVG/1.1/DTD/svg11.dtd">
<!-- Generated by graphviz version 2.26.3 (20100126.1600)
 -->
<!-- Title: ant::LorentzVec Pages: 1 -->
<svg width="108pt" height="162pt"
 viewBox="0.00 0.00 108.00 162.00" xmlns="http://www.w3.org/2000/svg" xmlns:xlink="http://www.w3.org/1999/xlink">
<g id="graph1" class="graph" transform="scale(1 1) rotate(0) translate(4 158)">
<title>ant::LorentzVec</title>
<polygon fill="white" stroke="white" points="-4,5 -4,-158 105,-158 105,5 -4,5"/>
<!-- Node1 -->
<g id="node1" class="node"><title>Node1</title>
<polygon fill="#bfbfbf" stroke="black" points="7,-0.5 7,-21.5 93,-21.5 93,-0.5 7,-0.5"/>
<text text-anchor="middle" x="50" y="-8.5" font-family="Helvetica,sans-Serif" font-size="10.00">ant::LorentzVec</text>
</g>
<!-- Node2 -->
<g id="node2" class="node"><title>Node2</title>
<a xlink:href="structant_1_1vec3.html" target="_top" xlink:title="ant::vec3">
<polygon fill="white" stroke="black" points="21.5,-72.5 21.5,-93.5 78.5,-93.5 78.5,-72.5 21.5,-72.5"/>
<text text-anchor="middle" x="50" y="-80.5" font-family="Helvetica,sans-Serif" font-size="10.00">ant::vec3</text>
</a>
</g>
<!-- Node2&#45;&gt;Node1 -->
<g id="edge2" class="edge"><title>Node2&#45;&gt;Node1</title>
<path fill="none" stroke="#9a32cd" stroke-dasharray="5,2" d="M50,-62.2348C50,-48.969 50,-32.3188 50,-21.6674"/>
<polygon fill="#9a32cd" stroke="#9a32cd" points="46.5001,-62.3761 50,-72.3762 53.5001,-62.3762 46.5001,-62.3761"/>
<text text-anchor="middle" x="54.5" y="-44.5" font-family="Helvetica,sans-Serif" font-size="10.00"> p</text>
</g>
<!-- Node3 -->
<g id="node4" class="node"><title>Node3</title>
<a xlink:href="classant_1_1printable__traits.html" target="_top" xlink:title="ant::printable_traits">
<polygon fill="white" stroke="black" points="0,-132.5 0,-153.5 100,-153.5 100,-132.5 0,-132.5"/>
<text text-anchor="middle" x="50" y="-140.5" font-family="Helvetica,sans-Serif" font-size="10.00">ant::printable_traits</text>
</a>
</g>
<!-- Node3&#45;&gt;Node2 -->
<g id="edge4" class="edge"><title>Node3&#45;&gt;Node2</title>
<path fill="none" stroke="midnightblue" d="M50,-122.231C50,-112.592 50,-101.544 50,-93.6339"/>
<polygon fill="midnightblue" stroke="midnightblue" points="46.5001,-122.273 50,-132.273 53.5001,-122.273 46.5001,-122.273"/>
</g>
</g>
</svg>
