<?xml version="1.0" encoding="UTF-8" standalone="no"?>
<!DOCTYPE svg PUBLIC "-//W3C//DTD SVG 1.1//EN"
 "http://www.w3.org/Graphics/SVG/1.1/DTD/svg11.dtd">
<!-- Generated by graphviz version 2.26.3 (20100126.1600)
 -->
<!-- Title: SigPi0Hist_t Pages: 1 -->
<svg width="908pt" height="382pt"
 viewBox="0.00 0.00 908.00 382.00" xmlns="http://www.w3.org/2000/svg" xmlns:xlink="http://www.w3.org/1999/xlink">
<g id="graph1" class="graph" transform="scale(1 1) rotate(0) translate(4 378)">
<title>SigPi0Hist_t</title>
<polygon fill="white" stroke="white" points="-4,5 -4,-378 905,-378 905,5 -4,5"/>
<!-- Node1 -->
<g id="node1" class="node"><title>Node1</title>
<polygon fill="#bfbfbf" stroke="black" points="828.5,-47.5 828.5,-68.5 899.5,-68.5 899.5,-47.5 828.5,-47.5"/>
<text text-anchor="middle" x="864" y="-55.5" font-family="Helvetica,sans-Serif" font-size="10.00">SigPi0Hist_t</text>
</g>
<!-- Node2 -->
<g id="node2" class="node"><title>Node2</title>
<a xlink:href="struct_sig_hist__t.html" target="_top" xlink:title="SigHist_t">
<polygon fill="white" stroke="black" points="732.5,-47.5 732.5,-68.5 789.5,-68.5 789.5,-47.5 732.5,-47.5"/>
<text text-anchor="middle" x="761" y="-55.5" font-family="Helvetica,sans-Serif" font-size="10.00">SigHist_t</text>
</a>
</g>
<!-- Node2&#45;&gt;Node1 -->
<g id="edge2" class="edge"><title>Node2&#45;&gt;Node1</title>
<path fill="none" stroke="midnightblue" d="M799.949,-58C809.321,-58 819.283,-58 828.488,-58"/>
<polygon fill="midnightblue" stroke="midnightblue" points="799.691,-54.5001 789.691,-58 799.691,-61.5001 799.691,-54.5001"/>
</g>
<!-- Node3 -->
<g id="node4" class="node"><title>Node3</title>
<a xlink:href="struct_common_hist__t.html" target="_top" xlink:title="CommonHist_t">
<polygon fill="white" stroke="black" points="583.5,-0.5 583.5,-21.5 666.5,-21.5 666.5,-0.5 583.5,-0.5"/>
<text text-anchor="middle" x="625" y="-8.5" font-family="Helvetica,sans-Serif" font-size="10.00">CommonHist_t</text>
</a>
</g>
<!-- Node3&#45;&gt;Node2 -->
<g id="edge4" class="edge"><title>Node3&#45;&gt;Node2</title>
<path fill="none" stroke="midnightblue" d="M665.096,-24.8567C686.72,-32.3298 712.9,-41.3771 732.439,-48.1298"/>
<polygon fill="midnightblue" stroke="midnightblue" points="666.116,-21.5061 655.521,-21.5477 663.829,-28.1221 666.116,-21.5061"/>
</g>
<!-- Node4 -->
<g id="node6" class="node"><title>Node4</title>
<a xlink:href="classant_1_1_bin_settings.html" target="_top" xlink:title="ant::BinSettings">
<polygon fill="white" stroke="black" points="354,-47.5 354,-68.5 440,-68.5 440,-47.5 354,-47.5"/>
<text text-anchor="middle" x="397" y="-55.5" font-family="Helvetica,sans-Serif" font-size="10.00">ant::BinSettings</text>
</a>
</g>
<!-- Node4&#45;&gt;Node2 -->
<g id="edge34" class="edge"><title>Node4&#45;&gt;Node2</title>
<path fill="none" stroke="#9a32cd" stroke-dasharray="5,2" d="M450.315,-58C528.533,-58 671.68,-58 732.475,-58"/>
<polygon fill="#9a32cd" stroke="#9a32cd" points="450.185,-54.5001 440.185,-58 450.185,-61.5001 450.185,-54.5001"/>
<text text-anchor="middle" x="625" y="-192" font-family="Helvetica,sans-Serif" font-size="10.00"> bins_IM_Etap</text>
<text text-anchor="middle" x="625" y="-179" font-family="Helvetica,sans-Serif" font-size="10.00">TaggTime</text>
<text text-anchor="middle" x="625" y="-166" font-family="Helvetica,sans-Serif" font-size="10.00">Chi2Bins</text>
<text text-anchor="middle" x="625" y="-153" font-family="Helvetica,sans-Serif" font-size="10.00">bins_ZVertex</text>
<text text-anchor="middle" x="625" y="-140" font-family="Helvetica,sans-Serif" font-size="10.00">bins_IM_Omega</text>
<text text-anchor="middle" x="625" y="-127" font-family="Helvetica,sans-Serif" font-size="10.00">CoplBins</text>
<text text-anchor="middle" x="625" y="-114" font-family="Helvetica,sans-Serif" font-size="10.00">free_vz</text>
<text text-anchor="middle" x="625" y="-101" font-family="Helvetica,sans-Serif" font-size="10.00">MMbins</text>
<text text-anchor="middle" x="625" y="-88" font-family="Helvetica,sans-Serif" font-size="10.00">zVertex</text>
<text text-anchor="middle" x="625" y="-75" font-family="Helvetica,sans-Serif" font-size="10.00">TaggChBins</text>
<text text-anchor="middle" x="625" y="-62" font-family="Helvetica,sans-Serif" font-size="10.00">...</text>
</g>
<!-- Node4&#45;&gt;Node3 -->
<g id="edge6" class="edge"><title>Node4&#45;&gt;Node3</title>
<path fill="none" stroke="#9a32cd" stroke-dasharray="5,2" d="M434.87,-44.1146C448.894,-39.3898 465.026,-34.4395 480,-31 514.426,-23.0923 554.216,-17.8755 583.395,-14.7589"/>
<polygon fill="#9a32cd" stroke="#9a32cd" points="433.39,-40.9223 425.077,-47.4903 435.672,-47.5402 433.39,-40.9223"/>
<text text-anchor="middle" x="509" y="-35" font-family="Helvetica,sans-Serif" font-size="10.00"> bins_FitProb</text>
</g>
<!-- Node7 -->
<g id="node12" class="node"><title>Node7</title>
<a xlink:href="struct_hist__t.html" target="_top" xlink:title="Hist_t\&lt; physics::EtapDalitz\l::SigTree_t \&gt;">
<polygon fill="white" stroke="black" points="556.5,-240 556.5,-274 693.5,-274 693.5,-240 556.5,-240"/>
<text text-anchor="start" x="564.5" y="-261" font-family="Helvetica,sans-Serif" font-size="10.00">Hist_t&lt; physics::EtapDalitz</text>
<text text-anchor="middle" x="625" y="-248" font-family="Helvetica,sans-Serif" font-size="10.00">::SigTree_t &gt;</text>
</a>
</g>
<!-- Node4&#45;&gt;Node7 -->
<g id="edge32" class="edge"><title>Node4&#45;&gt;Node7</title>
<path fill="none" stroke="#9a32cd" stroke-dasharray="5,2" d="M450.029,-63.3659C480.146,-69.2257 516.095,-81.4634 538,-107 566.832,-140.613 532.728,-167.324 556,-205 564.907,-219.421 579.395,-231.242 592.801,-239.95"/>
<polygon fill="#9a32cd" stroke="#9a32cd" points="450.524,-59.8992 440.068,-61.6131 449.311,-66.7932 450.524,-59.8992"/>
<text text-anchor="middle" x="509" y="-241" font-family="Helvetica,sans-Serif" font-size="10.00"> vetoEbins</text>
<text text-anchor="middle" x="509" y="-228" font-family="Helvetica,sans-Serif" font-size="10.00">TaggTime</text>
<text text-anchor="middle" x="509" y="-215" font-family="Helvetica,sans-Serif" font-size="10.00">pEbins</text>
<text text-anchor="middle" x="509" y="-202" font-family="Helvetica,sans-Serif" font-size="10.00">Chi2Bins</text>
<text text-anchor="middle" x="509" y="-189" font-family="Helvetica,sans-Serif" font-size="10.00">pThetaBins</text>
<text text-anchor="middle" x="509" y="-176" font-family="Helvetica,sans-Serif" font-size="10.00">CoplBins</text>
<text text-anchor="middle" x="509" y="-163" font-family="Helvetica,sans-Serif" font-size="10.00">MMbins</text>
<text text-anchor="middle" x="509" y="-150" font-family="Helvetica,sans-Serif" font-size="10.00">zVertex</text>
<text text-anchor="middle" x="509" y="-137" font-family="Helvetica,sans-Serif" font-size="10.00">TaggChBins</text>
<text text-anchor="middle" x="509" y="-124" font-family="Helvetica,sans-Serif" font-size="10.00">PSARBins</text>
<text text-anchor="middle" x="509" y="-111" font-family="Helvetica,sans-Serif" font-size="10.00">...</text>
</g>
<!-- Node5 -->
<g id="node8" class="node"><title>Node5</title>
<a xlink:href="classant_1_1interval.html" target="_top" xlink:title="ant::interval\&lt; double \&gt;">
<polygon fill="white" stroke="black" points="180,-47.5 180,-68.5 294,-68.5 294,-47.5 180,-47.5"/>
<text text-anchor="middle" x="237" y="-55.5" font-family="Helvetica,sans-Serif" font-size="10.00">ant::interval&lt; double &gt;</text>
</a>
</g>
<!-- Node5&#45;&gt;Node4 -->
<g id="edge8" class="edge"><title>Node5&#45;&gt;Node4</title>
<path fill="none" stroke="midnightblue" d="M304.587,-58C321.285,-58 338.724,-58 353.895,-58"/>
<polygon fill="midnightblue" stroke="midnightblue" points="304.312,-54.5001 294.312,-58 304.312,-61.5001 304.312,-54.5001"/>
</g>
<!-- Node6 -->
<g id="node10" class="node"><title>Node6</title>
<a xlink:href="classant_1_1printable__traits.html" target="_top" xlink:title="ant::printable_traits">
<polygon fill="white" stroke="black" points="0,-47.5 0,-68.5 100,-68.5 100,-47.5 0,-47.5"/>
<text text-anchor="middle" x="50" y="-55.5" font-family="Helvetica,sans-Serif" font-size="10.00">ant::printable_traits</text>
</a>
</g>
<!-- Node6&#45;&gt;Node5 -->
<g id="edge10" class="edge"><title>Node6&#45;&gt;Node5</title>
<path fill="none" stroke="midnightblue" d="M110.147,-58C132.482,-58 157.74,-58 179.804,-58"/>
<polygon fill="midnightblue" stroke="midnightblue" points="110.113,-54.5001 100.113,-58 110.113,-61.5001 110.113,-54.5001"/>
</g>
<!-- Node7&#45;&gt;Node2 -->
<g id="edge12" class="edge"><title>Node7&#45;&gt;Node2</title>
<path fill="none" stroke="midnightblue" d="M662.309,-234.103C673.519,-225.935 685.172,-216 694,-205 729.637,-160.598 750.885,-94.1811 758.156,-68.5837"/>
<polygon fill="midnightblue" stroke="midnightblue" points="660.07,-231.397 653.877,-239.993 664.079,-237.136 660.07,-231.397"/>
</g>
<!-- Node8 -->
<g id="node14" class="node"><title>Node8</title>
<a xlink:href="struct_hist__t_1_1_hist_mgr.html" target="_top" xlink:title="Hist_t\&lt; Tree_t \&gt;::HistMgr\l\&lt; TH1D \&gt;">
<polygon fill="white" stroke="black" points="332.5,-340 332.5,-374 461.5,-374 461.5,-340 332.5,-340"/>
<text text-anchor="start" x="340.5" y="-361" font-family="Helvetica,sans-Serif" font-size="10.00">Hist_t&lt; Tree_t &gt;::HistMgr</text>
<text text-anchor="middle" x="397" y="-348" font-family="Helvetica,sans-Serif" font-size="10.00">&lt; TH1D &gt;</text>
</a>
</g>
<!-- Node8&#45;&gt;Node7 -->
<g id="edge14" class="edge"><title>Node8&#45;&gt;Node7</title>
<path fill="none" stroke="#9a32cd" stroke-dasharray="5,2" d="M455.462,-336.412C481.084,-326.928 511.331,-315.104 538,-303 557.292,-294.244 578.307,-283.178 594.849,-274.094"/>
<polygon fill="#9a32cd" stroke="#9a32cd" points="454.066,-333.195 445.885,-339.927 456.479,-339.767 454.066,-333.195"/>
<text text-anchor="middle" x="509" y="-330" font-family="Helvetica,sans-Serif" font-size="10.00"> h1</text>
</g>
<!-- Node9 -->
<g id="node16" class="node"><title>Node9</title>
<a xlink:title="STL class. ">
<polygon fill="white" stroke="#bfbfbf" points="188.5,-340 188.5,-374 285.5,-374 285.5,-340 188.5,-340"/>
<text text-anchor="start" x="196.5" y="-361" font-family="Helvetica,sans-Serif" font-size="10.00">std::list&lt; HistFiller</text>
<text text-anchor="middle" x="237" y="-348" font-family="Helvetica,sans-Serif" font-size="10.00">_t&lt; TH1D &gt; &gt;</text>
</a>
</g>
<!-- Node9&#45;&gt;Node8 -->
<g id="edge16" class="edge"><title>Node9&#45;&gt;Node8</title>
<path fill="none" stroke="midnightblue" d="M296.096,-350.459C307.953,-350.217 320.469,-350.185 332.498,-350.364"/>
<polygon fill="midnightblue" stroke="midnightblue" points="295.78,-346.966 285.875,-350.726 295.963,-353.964 295.78,-346.966"/>
</g>
<!-- Node9&#45;&gt;Node8 -->
<g id="edge20" class="edge"><title>Node9&#45;&gt;Node8</title>
<path fill="none" stroke="midnightblue" d="M296.096,-363.541C307.953,-363.783 320.469,-363.815 332.498,-363.636"/>
<polygon fill="midnightblue" stroke="midnightblue" points="295.963,-360.036 285.875,-363.274 295.78,-367.034 295.963,-360.036"/>
</g>
<!-- Node10 -->
<g id="node18" class="node"><title>Node10</title>
<polygon fill="white" stroke="#bfbfbf" points="35.5,-316.5 35.5,-337.5 64.5,-337.5 64.5,-316.5 35.5,-316.5"/>
<text text-anchor="middle" x="50" y="-324.5" font-family="Helvetica,sans-Serif" font-size="10.00">T</text>
</g>
<!-- Node10&#45;&gt;Node9 -->
<g id="edge18" class="edge"><title>Node10&#45;&gt;Node9</title>
<path fill="none" stroke="#9a32cd" stroke-dasharray="5,2" d="M74.6826,-330.96C103.457,-335.576 151.715,-343.318 188.15,-349.163"/>
<polygon fill="#9a32cd" stroke="#9a32cd" points="75.1018,-327.482 64.6736,-329.354 73.9929,-334.394 75.1018,-327.482"/>
<text text-anchor="middle" x="140" y="-348" font-family="Helvetica,sans-Serif" font-size="10.00"> elements</text>
</g>
<!-- Node12 -->
<g id="node23" class="node"><title>Node12</title>
<a xlink:title="STL class. ">
<polygon fill="white" stroke="#bfbfbf" points="188.5,-288 188.5,-322 285.5,-322 285.5,-288 188.5,-288"/>
<text text-anchor="start" x="196.5" y="-309" font-family="Helvetica,sans-Serif" font-size="10.00">std::list&lt; HistFiller</text>
<text text-anchor="middle" x="237" y="-296" font-family="Helvetica,sans-Serif" font-size="10.00">_t&lt; TH2D &gt; &gt;</text>
</a>
</g>
<!-- Node10&#45;&gt;Node12 -->
<g id="edge26" class="edge"><title>Node10&#45;&gt;Node12</title>
<path fill="none" stroke="#9a32cd" stroke-dasharray="5,2" d="M74.573,-323.61C87.4898,-321.863 103.591,-319.74 118,-318 141.109,-315.209 166.775,-312.372 188.337,-310.063"/>
<polygon fill="#9a32cd" stroke="#9a32cd" points="74.0147,-320.154 64.5791,-324.973 74.9602,-327.09 74.0147,-320.154"/>
<text text-anchor="middle" x="140" y="-322" font-family="Helvetica,sans-Serif" font-size="10.00"> elements</text>
</g>
<!-- Node11 -->
<g id="node21" class="node"><title>Node11</title>
<a xlink:href="struct_hist__t_1_1_hist_mgr.html" target="_top" xlink:title="Hist_t\&lt; Tree_t \&gt;::HistMgr\l\&lt; TH2D \&gt;">
<polygon fill="white" stroke="black" points="332.5,-288 332.5,-322 461.5,-322 461.5,-288 332.5,-288"/>
<text text-anchor="start" x="340.5" y="-309" font-family="Helvetica,sans-Serif" font-size="10.00">Hist_t&lt; Tree_t &gt;::HistMgr</text>
<text text-anchor="middle" x="397" y="-296" font-family="Helvetica,sans-Serif" font-size="10.00">&lt; TH2D &gt;</text>
</a>
</g>
<!-- Node11&#45;&gt;Node7 -->
<g id="edge22" class="edge"><title>Node11&#45;&gt;Node7</title>
<path fill="none" stroke="#9a32cd" stroke-dasharray="5,2" d="M471.584,-289.298C498.8,-283.569 529.433,-277.119 556.129,-271.499"/>
<polygon fill="#9a32cd" stroke="#9a32cd" points="470.79,-285.888 461.726,-291.374 472.232,-292.738 470.79,-285.888"/>
<text text-anchor="middle" x="509" y="-290" font-family="Helvetica,sans-Serif" font-size="10.00"> h2</text>
</g>
<!-- Node12&#45;&gt;Node11 -->
<g id="edge24" class="edge"><title>Node12&#45;&gt;Node11</title>
<path fill="none" stroke="midnightblue" d="M296.096,-298.459C307.953,-298.217 320.469,-298.185 332.498,-298.364"/>
<polygon fill="midnightblue" stroke="midnightblue" points="295.78,-294.966 285.875,-298.726 295.963,-301.964 295.78,-294.966"/>
</g>
<!-- Node12&#45;&gt;Node11 -->
<g id="edge28" class="edge"><title>Node12&#45;&gt;Node11</title>
<path fill="none" stroke="midnightblue" d="M296.096,-311.541C307.953,-311.783 320.469,-311.815 332.498,-311.636"/>
<polygon fill="midnightblue" stroke="midnightblue" points="295.963,-308.036 285.875,-311.274 295.78,-315.034 295.963,-308.036"/>
</g>
<!-- Node13 -->
<g id="node27" class="node"><title>Node13</title>
<a xlink:href="classant_1_1analysis_1_1_histogram_factory.html" target="_top" xlink:title="ant::analysis::Histogram\lFactory">
<polygon fill="white" stroke="black" points="335.5,-236 335.5,-270 458.5,-270 458.5,-236 335.5,-236"/>
<text text-anchor="start" x="343.5" y="-257" font-family="Helvetica,sans-Serif" font-size="10.00">ant::analysis::Histogram</text>
<text text-anchor="middle" x="397" y="-244" font-family="Helvetica,sans-Serif" font-size="10.00">Factory</text>
</a>
</g>
<!-- Node13&#45;&gt;Node7 -->
<g id="edge30" class="edge"><title>Node13&#45;&gt;Node7</title>
<path fill="none" stroke="#9a32cd" stroke-dasharray="5,2" d="M468.819,-254.26C496.811,-254.751 528.752,-255.311 556.425,-255.797"/>
<polygon fill="#9a32cd" stroke="#9a32cd" points="468.76,-250.759 458.7,-254.082 468.637,-257.757 468.76,-250.759"/>
<text text-anchor="middle" x="509" y="-259" font-family="Helvetica,sans-Serif" font-size="10.00"> HistFac</text>
</g>
</g>
</svg>
