<?xml version="1.0" encoding="UTF-8" standalone="no"?>
<!DOCTYPE svg PUBLIC "-//W3C//DTD SVG 1.1//EN"
 "http://www.w3.org/Graphics/SVG/1.1/DTD/svg11.dtd">
<!-- Generated by graphviz version 2.26.3 (20100126.1600)
 -->
<!-- Title: ant::analysis::utils::UncertaintyModels::Interpolated Pages: 1 -->
<svg width="224pt" height="128pt"
 viewBox="0.00 0.00 224.00 128.00" xmlns="http://www.w3.org/2000/svg" xmlns:xlink="http://www.w3.org/1999/xlink">
<g id="graph1" class="graph" transform="scale(1 1) rotate(0) translate(4 124)">
<title>ant::analysis::utils::UncertaintyModels::Interpolated</title>
<polygon fill="white" stroke="white" points="-4,5 -4,-124 221,-124 221,5 -4,5"/>
<!-- Node1 -->
<g id="node1" class="node"><title>Node1</title>
<polygon fill="#bfbfbf" stroke="black" points="52,-0.5 52,-47.5 162,-47.5 162,-0.5 52,-0.5"/>
<text text-anchor="start" x="60" y="-34.5" font-family="Helvetica,sans-Serif" font-size="10.00">ant::analysis::utils</text>
<text text-anchor="start" x="60" y="-21.5" font-family="Helvetica,sans-Serif" font-size="10.00">::UncertaintyModels::</text>
<text text-anchor="middle" x="107" y="-8.5" font-family="Helvetica,sans-Serif" font-size="10.00">Interpolated</text>
</g>
<!-- Node2 -->
<g id="node2" class="node"><title>Node2</title>
<a xlink:href="classant_1_1analysis_1_1utils_1_1_uncertainty_model.html" target="_top" xlink:title="Virtual base class for different Uncertainty Models for fitter. Implement at least the GetSigmas() me...">
<polygon fill="white" stroke="black" points="-0.5,-85 -0.5,-119 98.5,-119 98.5,-85 -0.5,-85"/>
<text text-anchor="start" x="7.5" y="-106" font-family="Helvetica,sans-Serif" font-size="10.00">ant::analysis::utils</text>
<text text-anchor="middle" x="49" y="-93" font-family="Helvetica,sans-Serif" font-size="10.00">::UncertaintyModel</text>
</a>
</g>
<!-- Node2&#45;&gt;Node1 -->
<g id="edge2" class="edge"><title>Node2&#45;&gt;Node1</title>
<path fill="none" stroke="midnightblue" d="M67.901,-76.5813C74.7896,-67.3175 82.5468,-56.8853 89.3249,-47.77"/>
<polygon fill="midnightblue" stroke="midnightblue" points="65.0305,-74.5762 61.8721,-84.6893 70.6478,-78.7531 65.0305,-74.5762"/>
</g>
<!-- Node3 -->
<g id="node4" class="node"><title>Node3</title>
<a xlink:href="classant_1_1printable__traits.html" target="_top" xlink:title="ant::printable_traits">
<polygon fill="white" stroke="black" points="116,-91.5 116,-112.5 216,-112.5 216,-91.5 116,-91.5"/>
<text text-anchor="middle" x="166" y="-99.5" font-family="Helvetica,sans-Serif" font-size="10.00">ant::printable_traits</text>
</a>
</g>
<!-- Node3&#45;&gt;Node1 -->
<g id="edge4" class="edge"><title>Node3&#45;&gt;Node1</title>
<path fill="none" stroke="midnightblue" d="M151.851,-83.2945C143.79,-72.6374 133.609,-59.1776 124.985,-47.7766"/>
<polygon fill="midnightblue" stroke="midnightblue" points="149.219,-85.6166 158.043,-91.4806 154.802,-81.3937 149.219,-85.6166"/>
</g>
</g>
</svg>
