<?xml version="1.0" encoding="UTF-8" standalone="no"?>
<!DOCTYPE svg PUBLIC "-//W3C//DTD SVG 1.1//EN"
 "http://www.w3.org/Graphics/SVG/1.1/DTD/svg11.dtd">
<!-- Generated by graphviz version 2.26.3 (20100126.1600)
 -->
<!-- Title: TriplePi0Hist_t::HistMgr&lt; Hist &gt; Pages: 1 -->
<svg width="130pt" height="190pt"
 viewBox="0.00 0.00 130.00 190.00" xmlns="http://www.w3.org/2000/svg" xmlns:xlink="http://www.w3.org/1999/xlink">
<g id="graph1" class="graph" transform="scale(1 1) rotate(0) translate(4 186)">
<title>TriplePi0Hist_t::HistMgr&lt; Hist &gt;</title>
<polygon fill="white" stroke="white" points="-4,5 -4,-186 127,-186 127,5 -4,5"/>
<!-- Node1 -->
<g id="node1" class="node"><title>Node1</title>
<polygon fill="#bfbfbf" stroke="black" points="0,-1 0,-35 122,-35 122,-1 0,-1"/>
<text text-anchor="start" x="8" y="-22" font-family="Helvetica,sans-Serif" font-size="10.00">TriplePi0Hist_t::HistMgr</text>
<text text-anchor="middle" x="61" y="-9" font-family="Helvetica,sans-Serif" font-size="10.00">&lt; Hist &gt;</text>
</g>
<!-- Node2 -->
<g id="node2" class="node"><title>Node2</title>
<a xlink:title="STL class. ">
<polygon fill="white" stroke="#bfbfbf" points="12.5,-75 12.5,-109 109.5,-109 109.5,-75 12.5,-75"/>
<text text-anchor="start" x="20.5" y="-96" font-family="Helvetica,sans-Serif" font-size="10.00">std::list&lt; HistFiller</text>
<text text-anchor="middle" x="61" y="-83" font-family="Helvetica,sans-Serif" font-size="10.00">_t&lt; Hist &gt; &gt;</text>
</a>
</g>
<!-- Node2&#45;&gt;Node1 -->
<g id="edge2" class="edge"><title>Node2&#45;&gt;Node1</title>
<path fill="none" stroke="midnightblue" d="M61,-64.6275C61,-54.7253 61,-43.8344 61,-35.07"/>
<polygon fill="midnightblue" stroke="midnightblue" points="57.5001,-64.8369 61,-74.8369 64.5001,-64.8369 57.5001,-64.8369"/>
</g>
<!-- Node3 -->
<g id="node4" class="node"><title>Node3</title>
<polygon fill="white" stroke="#bfbfbf" points="46.5,-160.5 46.5,-181.5 75.5,-181.5 75.5,-160.5 46.5,-160.5"/>
<text text-anchor="middle" x="61" y="-168.5" font-family="Helvetica,sans-Serif" font-size="10.00">T</text>
</g>
<!-- Node3&#45;&gt;Node2 -->
<g id="edge4" class="edge"><title>Node3&#45;&gt;Node2</title>
<path fill="none" stroke="#9a32cd" stroke-dasharray="5,2" d="M61,-150.162C61,-137.363 61,-121.171 61,-109.124"/>
<polygon fill="#9a32cd" stroke="#9a32cd" points="57.5001,-150.346 61,-160.346 64.5001,-150.346 57.5001,-150.346"/>
<text text-anchor="middle" x="82.5" y="-132.5" font-family="Helvetica,sans-Serif" font-size="10.00"> elements</text>
</g>
</g>
</svg>
