<?xml version="1.0" encoding="UTF-8" standalone="no"?>
<!DOCTYPE svg PUBLIC "-//W3C//DTD SVG 1.1//EN"
 "http://www.w3.org/Graphics/SVG/1.1/DTD/svg11.dtd">
<!-- Generated by graphviz version 2.26.3 (20100126.1600)
 -->
<!-- Title: OmegaHist_t::Fill_t Pages: 1 -->
<svg width="154pt" height="568pt"
 viewBox="0.00 0.00 154.00 568.00" xmlns="http://www.w3.org/2000/svg" xmlns:xlink="http://www.w3.org/1999/xlink">
<g id="graph1" class="graph" transform="scale(1 1) rotate(0) translate(4 564)">
<title>OmegaHist_t::Fill_t</title>
<polygon fill="white" stroke="white" points="-4,5 -4,-564 151,-564 151,5 -4,5"/>
<!-- Node1 -->
<g id="node1" class="node"><title>Node1</title>
<polygon fill="#bfbfbf" stroke="black" points="22.5,-0.5 22.5,-21.5 123.5,-21.5 123.5,-0.5 22.5,-0.5"/>
<text text-anchor="middle" x="73" y="-8.5" font-family="Helvetica,sans-Serif" font-size="10.00">OmegaHist_t::Fill_t</text>
</g>
<!-- Node2 -->
<g id="node2" class="node"><title>Node2</title>
<a xlink:href="structant_1_1analysis_1_1physics_1_1_omega_eta_g2_1_1_omega_tree__t.html" target="_top" xlink:title="ant::analysis::physics\l::OmegaEtaG2::OmegaTree_t">
<polygon fill="white" stroke="black" points="-0.5,-73 -0.5,-107 146.5,-107 146.5,-73 -0.5,-73"/>
<text text-anchor="start" x="7.5" y="-94" font-family="Helvetica,sans-Serif" font-size="10.00">ant::analysis::physics</text>
<text text-anchor="middle" x="73" y="-81" font-family="Helvetica,sans-Serif" font-size="10.00">::OmegaEtaG2::OmegaTree_t</text>
</a>
</g>
<!-- Node2&#45;&gt;Node1 -->
<g id="edge2" class="edge"><title>Node2&#45;&gt;Node1</title>
<path fill="none" stroke="#9a32cd" stroke-dasharray="5,2" d="M73,-62.6228C73,-48.4727 73,-32.0243 73,-21.5672"/>
<polygon fill="#9a32cd" stroke="#9a32cd" points="69.5001,-62.8581 73,-72.8582 76.5001,-62.8582 69.5001,-62.8581"/>
<text text-anchor="middle" x="84.5" y="-44.5" font-family="Helvetica,sans-Serif" font-size="10.00"> Tree</text>
</g>
<!-- Node3 -->
<g id="node4" class="node"><title>Node3</title>
<a xlink:href="structant_1_1_wrap_t_tree.html" target="_top" xlink:title="The WrapTTree struct simplifies TTree handling in physics classes. ">
<polygon fill="white" stroke="black" points="30.5,-146.5 30.5,-167.5 115.5,-167.5 115.5,-146.5 30.5,-146.5"/>
<text text-anchor="middle" x="73" y="-154.5" font-family="Helvetica,sans-Serif" font-size="10.00">ant::WrapTTree</text>
</a>
</g>
<!-- Node3&#45;&gt;Node2 -->
<g id="edge4" class="edge"><title>Node3&#45;&gt;Node2</title>
<path fill="none" stroke="midnightblue" d="M73,-136.165C73,-126.797 73,-115.88 73,-107.014"/>
<polygon fill="midnightblue" stroke="midnightblue" points="69.5001,-136.235 73,-146.235 76.5001,-136.235 69.5001,-136.235"/>
</g>
<!-- Node4 -->
<g id="node6" class="node"><title>Node4</title>
<polygon fill="white" stroke="#bfbfbf" points="3,-219 3,-253 143,-253 143,-219 3,-219"/>
<text text-anchor="start" x="11" y="-240" font-family="Helvetica,sans-Serif" font-size="10.00">std::vector&lt; ant::WrapTTree</text>
<text text-anchor="middle" x="73" y="-227" font-family="Helvetica,sans-Serif" font-size="10.00">::ROOT_branch_t &gt;</text>
</g>
<!-- Node4&#45;&gt;Node3 -->
<g id="edge6" class="edge"><title>Node4&#45;&gt;Node3</title>
<path fill="none" stroke="#9a32cd" stroke-dasharray="5,2" d="M73,-208.623C73,-194.473 73,-178.024 73,-167.567"/>
<polygon fill="#9a32cd" stroke="#9a32cd" points="69.5001,-208.858 73,-218.858 76.5001,-208.858 69.5001,-208.858"/>
<text text-anchor="middle" x="94.5" y="-190.5" font-family="Helvetica,sans-Serif" font-size="10.00"> branches</text>
</g>
<!-- Node5 -->
<g id="node8" class="node"><title>Node5</title>
<a xlink:href="structant_1_1_wrap_t_tree_1_1_r_o_o_t__branch__t.html" target="_top" xlink:title="ant::WrapTTree::ROOT\l_branch_t">
<polygon fill="white" stroke="black" points="13.5,-305 13.5,-339 132.5,-339 132.5,-305 13.5,-305"/>
<text text-anchor="start" x="21.5" y="-326" font-family="Helvetica,sans-Serif" font-size="10.00">ant::WrapTTree::ROOT</text>
<text text-anchor="middle" x="73" y="-313" font-family="Helvetica,sans-Serif" font-size="10.00">_branch_t</text>
</a>
</g>
<!-- Node5&#45;&gt;Node4 -->
<g id="edge8" class="edge"><title>Node5&#45;&gt;Node4</title>
<path fill="none" stroke="#9a32cd" stroke-dasharray="5,2" d="M73,-294.342C73,-280.774 73,-264.861 73,-253.084"/>
<polygon fill="#9a32cd" stroke="#9a32cd" points="69.5001,-294.597 73,-304.597 76.5001,-294.597 69.5001,-294.597"/>
<text text-anchor="middle" x="94.5" y="-276.5" font-family="Helvetica,sans-Serif" font-size="10.00"> elements</text>
</g>
<!-- Node6 -->
<g id="node10" class="node"><title>Node6</title>
<a xlink:href="structant_1_1_wrap_t_tree_1_1_r_o_o_t__branchinfo__t.html" target="_top" xlink:title="ant::WrapTTree::ROOT\l_branchinfo_t">
<polygon fill="white" stroke="black" points="13.5,-379 13.5,-413 132.5,-413 132.5,-379 13.5,-379"/>
<text text-anchor="start" x="21.5" y="-400" font-family="Helvetica,sans-Serif" font-size="10.00">ant::WrapTTree::ROOT</text>
<text text-anchor="middle" x="73" y="-387" font-family="Helvetica,sans-Serif" font-size="10.00">_branchinfo_t</text>
</a>
</g>
<!-- Node6&#45;&gt;Node5 -->
<g id="edge10" class="edge"><title>Node6&#45;&gt;Node5</title>
<path fill="none" stroke="midnightblue" d="M73,-368.627C73,-358.725 73,-347.834 73,-339.07"/>
<polygon fill="midnightblue" stroke="midnightblue" points="69.5001,-368.837 73,-378.837 76.5001,-368.837 69.5001,-368.837"/>
</g>
<!-- Node7 -->
<g id="node12" class="node"><title>Node7</title>
<a xlink:title="STL class. ">
<polygon fill="white" stroke="#bfbfbf" points="43,-464.5 43,-485.5 103,-485.5 103,-464.5 43,-464.5"/>
<text text-anchor="middle" x="73" y="-472.5" font-family="Helvetica,sans-Serif" font-size="10.00">std::string</text>
</a>
</g>
<!-- Node7&#45;&gt;Node6 -->
<g id="edge12" class="edge"><title>Node7&#45;&gt;Node6</title>
<path fill="none" stroke="#9a32cd" stroke-dasharray="5,2" d="M73,-454.162C73,-441.363 73,-425.171 73,-413.124"/>
<polygon fill="#9a32cd" stroke="#9a32cd" points="69.5001,-454.346 73,-464.346 76.5001,-454.346 69.5001,-454.346"/>
<text text-anchor="middle" x="88" y="-436.5" font-family="Helvetica,sans-Serif" font-size="10.00"> Name</text>
</g>
<!-- Node8 -->
<g id="node14" class="node"><title>Node8</title>
<a xlink:title="STL class. ">
<polygon fill="white" stroke="#bfbfbf" points="25.5,-525 25.5,-559 120.5,-559 120.5,-525 25.5,-525"/>
<text text-anchor="start" x="33.5" y="-546" font-family="Helvetica,sans-Serif" font-size="10.00">std::basic_string&lt;</text>
<text text-anchor="middle" x="73" y="-533" font-family="Helvetica,sans-Serif" font-size="10.00"> char &gt;</text>
</a>
</g>
<!-- Node8&#45;&gt;Node7 -->
<g id="edge14" class="edge"><title>Node8&#45;&gt;Node7</title>
<path fill="none" stroke="midnightblue" d="M73,-514.534C73,-504.306 73,-493.301 73,-485.506"/>
<polygon fill="midnightblue" stroke="midnightblue" points="69.5001,-514.746 73,-524.746 76.5001,-514.746 69.5001,-514.746"/>
</g>
</g>
</svg>
