<?xml version="1.0" encoding="UTF-8" standalone="no"?>
<!DOCTYPE svg PUBLIC "-//W3C//DTD SVG 1.1//EN"
 "http://www.w3.org/Graphics/SVG/1.1/DTD/svg11.dtd">
<!-- Generated by graphviz version 2.26.3 (20100126.1600)
 -->
<!-- Title: ant::hstack Pages: 1 -->
<svg width="182pt" height="88pt"
 viewBox="0.00 0.00 182.00 88.00" xmlns="http://www.w3.org/2000/svg" xmlns:xlink="http://www.w3.org/1999/xlink">
<g id="graph1" class="graph" transform="scale(1 1) rotate(0) translate(4 84)">
<title>ant::hstack</title>
<polygon fill="white" stroke="white" points="-4,5 -4,-84 179,-84 179,5 -4,5"/>
<!-- Node1 -->
<g id="node1" class="node"><title>Node1</title>
<polygon fill="#bfbfbf" stroke="black" points="43.5,-0.5 43.5,-21.5 108.5,-21.5 108.5,-0.5 43.5,-0.5"/>
<text text-anchor="middle" x="76" y="-8.5" font-family="Helvetica,sans-Serif" font-size="10.00">ant::hstack</text>
</g>
<!-- Node2 -->
<g id="node2" class="node"><title>Node2</title>
<polygon fill="white" stroke="#bfbfbf" points="0,-58.5 0,-79.5 56,-79.5 56,-58.5 0,-58.5"/>
<text text-anchor="middle" x="28" y="-66.5" font-family="Helvetica,sans-Serif" font-size="10.00">THStack</text>
</g>
<!-- Node2&#45;&gt;Node1 -->
<g id="edge2" class="edge"><title>Node2&#45;&gt;Node1</title>
<path fill="none" stroke="midnightblue" d="M43.2767,-50.5407C51.1902,-40.9786 60.5683,-29.6467 67.2519,-21.5707"/>
<polygon fill="midnightblue" stroke="midnightblue" points="40.4833,-48.4264 36.8039,-58.3619 45.876,-52.8894 40.4833,-48.4264"/>
</g>
<!-- Node3 -->
<g id="node4" class="node"><title>Node3</title>
<a xlink:href="classant_1_1printable__traits.html" target="_top" xlink:title="ant::printable_traits">
<polygon fill="white" stroke="black" points="74,-58.5 74,-79.5 174,-79.5 174,-58.5 74,-58.5"/>
<text text-anchor="middle" x="124" y="-66.5" font-family="Helvetica,sans-Serif" font-size="10.00">ant::printable_traits</text>
</a>
</g>
<!-- Node3&#45;&gt;Node1 -->
<g id="edge4" class="edge"><title>Node3&#45;&gt;Node1</title>
<path fill="none" stroke="midnightblue" d="M108.723,-50.5407C100.81,-40.9786 91.4317,-29.6467 84.7481,-21.5707"/>
<polygon fill="midnightblue" stroke="midnightblue" points="106.124,-52.8894 115.196,-58.3619 111.517,-48.4264 106.124,-52.8894"/>
</g>
</g>
</svg>
