<?xml version="1.0" encoding="UTF-8" standalone="no"?>
<!DOCTYPE svg PUBLIC "-//W3C//DTD SVG 1.1//EN"
 "http://www.w3.org/Graphics/SVG/1.1/DTD/svg11.dtd">
<!-- Generated by graphviz version 2.26.3 (20100126.1600)
 -->
<!-- Title: ant::analysis::physics::TwoPi0_MCSmearing::MultiPi0 Pages: 1 -->
<svg width="1642pt" height="416pt"
 viewBox="0.00 0.00 1642.00 416.00" xmlns="http://www.w3.org/2000/svg" xmlns:xlink="http://www.w3.org/1999/xlink">
<g id="graph1" class="graph" transform="scale(1 1) rotate(0) translate(4 412)">
<title>ant::analysis::physics::TwoPi0_MCSmearing::MultiPi0</title>
<polygon fill="white" stroke="white" points="-4,5 -4,-412 1639,-412 1639,5 -4,5"/>
<!-- Node1 -->
<g id="node1" class="node"><title>Node1</title>
<polygon fill="#bfbfbf" stroke="black" points="1474.5,-164 1474.5,-198 1633.5,-198 1633.5,-164 1474.5,-164"/>
<text text-anchor="start" x="1482.5" y="-185" font-family="Helvetica,sans-Serif" font-size="10.00">ant::analysis::physics</text>
<text text-anchor="middle" x="1554" y="-172" font-family="Helvetica,sans-Serif" font-size="10.00">::TwoPi0_MCSmearing::MultiPi0</text>
</g>
<!-- Node2 -->
<g id="node2" class="node"><title>Node2</title>
<polygon fill="white" stroke="#bfbfbf" points="1211,-360.5 1211,-407.5 1357,-407.5 1357,-360.5 1211,-360.5"/>
<text text-anchor="start" x="1219" y="-394.5" font-family="Helvetica,sans-Serif" font-size="10.00">std::vector&lt; std::pair</text>
<text text-anchor="start" x="1219" y="-381.5" font-family="Helvetica,sans-Serif" font-size="10.00">&lt; utils::TreeFitter::tree</text>
<text text-anchor="middle" x="1284" y="-368.5" font-family="Helvetica,sans-Serif" font-size="10.00">_t, utils::TreeFitter::tree_t &gt; &gt;</text>
</g>
<!-- Node2&#45;&gt;Node1 -->
<g id="edge2" class="edge"><title>Node2&#45;&gt;Node1</title>
<path fill="none" stroke="#9a32cd" stroke-dasharray="5,2" d="M1367.22,-377.595C1397.42,-371.979 1430.38,-361.696 1456,-343 1507.65,-305.314 1537.38,-231.38 1548.69,-198.031"/>
<polygon fill="#9a32cd" stroke="#9a32cd" points="1366.37,-374.19 1357.1,-379.326 1367.55,-381.09 1366.37,-374.19"/>
<text text-anchor="middle" x="1419" y="-377" font-family="Helvetica,sans-Serif" font-size="10.00"> pions</text>
</g>
<!-- Node3 -->
<g id="node4" class="node"><title>Node3</title>
<a xlink:href="structant_1_1analysis_1_1_prompt_random_1_1_hist1.html" target="_top" xlink:title="ant::analysis::PromptRandom\l::Hist1">
<polygon fill="white" stroke="black" points="1211,-259 1211,-293 1357,-293 1357,-259 1211,-259"/>
<text text-anchor="start" x="1219" y="-280" font-family="Helvetica,sans-Serif" font-size="10.00">ant::analysis::PromptRandom</text>
<text text-anchor="middle" x="1284" y="-267" font-family="Helvetica,sans-Serif" font-size="10.00">::Hist1</text>
</a>
</g>
<!-- Node3&#45;&gt;Node1 -->
<g id="edge4" class="edge"><title>Node3&#45;&gt;Node1</title>
<path fill="none" stroke="#9a32cd" stroke-dasharray="5,2" d="M1346.02,-255.85C1352.1,-253.874 1358.17,-251.899 1364,-250 1404.9,-236.687 1415.56,-234.625 1456,-220 1474.77,-213.213 1495.32,-205.135 1512.74,-198.096"/>
<polygon fill="#9a32cd" stroke="#9a32cd" points="1344.93,-252.524 1336.5,-258.945 1347.09,-259.181 1344.93,-252.524"/>
<text text-anchor="middle" x="1419" y="-299" font-family="Helvetica,sans-Serif" font-size="10.00"> h_missingmass</text>
<text text-anchor="middle" x="1419" y="-286" font-family="Helvetica,sans-Serif" font-size="10.00">h_fitprobability</text>
<text text-anchor="middle" x="1419" y="-273" font-family="Helvetica,sans-Serif" font-size="10.00">IM_2g_fitted</text>
<text text-anchor="middle" x="1419" y="-260" font-family="Helvetica,sans-Serif" font-size="10.00">IM_2g_byMM</text>
<text text-anchor="middle" x="1419" y="-247" font-family="Helvetica,sans-Serif" font-size="10.00">IM_2g_byFit</text>
</g>
<!-- Node4 -->
<g id="node6" class="node"><title>Node4</title>
<a xlink:href="classant_1_1analysis_1_1_prompt_random_1_1_switch.html" target="_top" xlink:title="ant::analysis::PromptRandom\l::Switch">
<polygon fill="white" stroke="black" points="968,-295 968,-329 1114,-329 1114,-295 968,-295"/>
<text text-anchor="start" x="976" y="-316" font-family="Helvetica,sans-Serif" font-size="10.00">ant::analysis::PromptRandom</text>
<text text-anchor="middle" x="1041" y="-303" font-family="Helvetica,sans-Serif" font-size="10.00">::Switch</text>
</a>
</g>
<!-- Node4&#45;&gt;Node1 -->
<g id="edge42" class="edge"><title>Node4&#45;&gt;Node1</title>
<path fill="none" stroke="#9a32cd" stroke-dasharray="5,2" d="M1124.33,-320.742C1228.56,-330.184 1400.12,-340.371 1456,-312 1503.87,-287.697 1534.47,-227.876 1547.21,-198.228"/>
<polygon fill="#9a32cd" stroke="#9a32cd" points="1124.43,-317.236 1114.15,-319.802 1123.79,-324.206 1124.43,-317.236"/>
<text text-anchor="middle" x="1284" y="-334" font-family="Helvetica,sans-Serif" font-size="10.00"> promptrandom</text>
</g>
<!-- Node4&#45;&gt;Node3 -->
<g id="edge6" class="edge"><title>Node4&#45;&gt;Node3</title>
<path fill="none" stroke="#9a32cd" stroke-dasharray="5,2" d="M1124.44,-299.638C1152.55,-295.475 1183.67,-290.864 1210.91,-286.828"/>
<polygon fill="#9a32cd" stroke="#9a32cd" points="1123.62,-296.222 1114.24,-301.15 1124.64,-303.147 1123.62,-296.222"/>
<text text-anchor="middle" x="1159" y="-302" font-family="Helvetica,sans-Serif" font-size="10.00"> d</text>
</g>
<!-- Node5 -->
<g id="node8" class="node"><title>Node5</title>
<a xlink:href="classant_1_1analysis_1_1utils_1_1_tree_fitter.html" target="_top" xlink:title="ant::analysis::utils\l::TreeFitter">
<polygon fill="white" stroke="black" points="1236,-92 1236,-126 1332,-126 1332,-92 1236,-92"/>
<text text-anchor="start" x="1244" y="-113" font-family="Helvetica,sans-Serif" font-size="10.00">ant::analysis::utils</text>
<text text-anchor="middle" x="1284" y="-100" font-family="Helvetica,sans-Serif" font-size="10.00">::TreeFitter</text>
</a>
</g>
<!-- Node5&#45;&gt;Node1 -->
<g id="edge8" class="edge"><title>Node5&#45;&gt;Node1</title>
<path fill="none" stroke="#9a32cd" stroke-dasharray="5,2" d="M1342.43,-113.605C1376.15,-117.304 1419.07,-123.801 1456,-135 1479.56,-142.145 1504.67,-154.023 1523.58,-163.919"/>
<polygon fill="#9a32cd" stroke="#9a32cd" points="1342.58,-110.102 1332.27,-112.545 1341.86,-117.065 1342.58,-110.102"/>
<text text-anchor="middle" x="1419" y="-139" font-family="Helvetica,sans-Serif" font-size="10.00"> treefitter</text>
</g>
<!-- Node6 -->
<g id="node10" class="node"><title>Node6</title>
<a xlink:href="classant_1_1analysis_1_1utils_1_1_kin_fitter.html" target="_top" xlink:title="ant::analysis::utils\l::KinFitter">
<polygon fill="white" stroke="black" points="993,-145 993,-179 1089,-179 1089,-145 993,-145"/>
<text text-anchor="start" x="1001" y="-166" font-family="Helvetica,sans-Serif" font-size="10.00">ant::analysis::utils</text>
<text text-anchor="middle" x="1041" y="-153" font-family="Helvetica,sans-Serif" font-size="10.00">::KinFitter</text>
</a>
</g>
<!-- Node6&#45;&gt;Node1 -->
<g id="edge40" class="edge"><title>Node6&#45;&gt;Node1</title>
<path fill="none" stroke="#9a32cd" stroke-dasharray="5,2" d="M1099.17,-163.188C1163.85,-164.61 1271.42,-167.274 1364,-171 1400.14,-172.454 1440.13,-174.494 1474.05,-176.352"/>
<polygon fill="#9a32cd" stroke="#9a32cd" points="1099.24,-159.689 1089.17,-162.971 1099.09,-166.687 1099.24,-159.689"/>
<text text-anchor="middle" x="1284" y="-175" font-family="Helvetica,sans-Serif" font-size="10.00"> fitter</text>
</g>
<!-- Node6&#45;&gt;Node5 -->
<g id="edge10" class="edge"><title>Node6&#45;&gt;Node5</title>
<path fill="none" stroke="midnightblue" d="M1099.03,-149.343C1140.75,-140.243 1196.36,-128.115 1235.68,-119.54"/>
<polygon fill="midnightblue" stroke="midnightblue" points="1098.03,-145.978 1089.01,-151.529 1099.53,-152.817 1098.03,-145.978"/>
</g>
<!-- Node7 -->
<g id="node12" class="node"><title>Node7</title>
<a xlink:href="classant_1_1analysis_1_1utils_1_1_fitter.html" target="_top" xlink:title="ant::analysis::utils\l::Fitter">
<polygon fill="white" stroke="black" points="770,-93 770,-127 866,-127 866,-93 770,-93"/>
<text text-anchor="start" x="778" y="-114" font-family="Helvetica,sans-Serif" font-size="10.00">ant::analysis::utils</text>
<text text-anchor="middle" x="818" y="-101" font-family="Helvetica,sans-Serif" font-size="10.00">::Fitter</text>
</a>
</g>
<!-- Node7&#45;&gt;Node6 -->
<g id="edge12" class="edge"><title>Node7&#45;&gt;Node6</title>
<path fill="none" stroke="midnightblue" d="M876.084,-123.544C912.434,-132.021 958.702,-142.809 992.973,-150.801"/>
<polygon fill="midnightblue" stroke="midnightblue" points="876.647,-120.082 866.113,-121.219 875.057,-126.899 876.647,-120.082"/>
</g>
<!-- Node8 -->
<g id="node14" class="node"><title>Node8</title>
<polygon fill="white" stroke="#bfbfbf" points="528,-100.5 528,-121.5 668,-121.5 668,-100.5 528,-100.5"/>
<text text-anchor="middle" x="598" y="-108.5" font-family="Helvetica,sans-Serif" font-size="10.00">std::unique_ptr&lt; APLCON &gt;</text>
</g>
<!-- Node8&#45;&gt;Node7 -->
<g id="edge14" class="edge"><title>Node8&#45;&gt;Node7</title>
<path fill="none" stroke="#9a32cd" stroke-dasharray="5,2" d="M678.487,-110.634C709.198,-110.495 743.224,-110.34 769.983,-110.218"/>
<polygon fill="#9a32cd" stroke="#9a32cd" points="678.198,-107.135 668.214,-110.681 678.23,-114.135 678.198,-107.135"/>
<text text-anchor="middle" x="708" y="-114" font-family="Helvetica,sans-Serif" font-size="10.00"> aplcon</text>
</g>
<!-- Node9 -->
<g id="node16" class="node"><title>Node9</title>
<polygon fill="white" stroke="#bfbfbf" points="755.5,-197.5 755.5,-244.5 880.5,-244.5 880.5,-197.5 755.5,-197.5"/>
<text text-anchor="start" x="763.5" y="-231.5" font-family="Helvetica,sans-Serif" font-size="10.00">std::unique_ptr&lt; ant</text>
<text text-anchor="start" x="763.5" y="-218.5" font-family="Helvetica,sans-Serif" font-size="10.00">::analysis::utils::KinFitter</text>
<text text-anchor="middle" x="818" y="-205.5" font-family="Helvetica,sans-Serif" font-size="10.00">::BeamE_t &gt;</text>
</g>
<!-- Node9&#45;&gt;Node6 -->
<g id="edge16" class="edge"><title>Node9&#45;&gt;Node6</title>
<path fill="none" stroke="#9a32cd" stroke-dasharray="5,2" d="M890.48,-201.824C924.049,-192.942 963.016,-182.633 992.891,-174.728"/>
<polygon fill="#9a32cd" stroke="#9a32cd" points="889.484,-198.467 880.711,-204.408 891.274,-205.234 889.484,-198.467"/>
<text text-anchor="middle" x="928" y="-200" font-family="Helvetica,sans-Serif" font-size="10.00"> BeamE</text>
</g>
<!-- Node10 -->
<g id="node18" class="node"><title>Node10</title>
<a xlink:href="structant_1_1analysis_1_1utils_1_1_kin_fitter_1_1_beam_e__t.html" target="_top" xlink:title="ant::analysis::utils\l::KinFitter::BeamE_t">
<polygon fill="white" stroke="black" points="545,-204 545,-238 651,-238 651,-204 545,-204"/>
<text text-anchor="start" x="553" y="-225" font-family="Helvetica,sans-Serif" font-size="10.00">ant::analysis::utils</text>
<text text-anchor="middle" x="598" y="-212" font-family="Helvetica,sans-Serif" font-size="10.00">::KinFitter::BeamE_t</text>
</a>
</g>
<!-- Node10&#45;&gt;Node9 -->
<g id="edge18" class="edge"><title>Node10&#45;&gt;Node9</title>
<path fill="none" stroke="#9a32cd" stroke-dasharray="5,2" d="M661.46,-221C691.007,-221 726.047,-221 755.476,-221"/>
<polygon fill="#9a32cd" stroke="#9a32cd" points="661.256,-217.5 651.256,-221 661.256,-224.5 661.256,-217.5"/>
<text text-anchor="middle" x="708" y="-225" font-family="Helvetica,sans-Serif" font-size="10.00"> ptr</text>
</g>
<!-- Node11 -->
<g id="node20" class="node"><title>Node11</title>
<a xlink:href="structant_1_1analysis_1_1utils_1_1_fitter_1_1_fit_variable.html" target="_top" xlink:title="ant::analysis::utils\l::Fitter::FitVariable">
<polygon fill="white" stroke="black" points="339,-162 339,-196 437,-196 437,-162 339,-162"/>
<text text-anchor="start" x="347" y="-183" font-family="Helvetica,sans-Serif" font-size="10.00">ant::analysis::utils</text>
<text text-anchor="middle" x="388" y="-170" font-family="Helvetica,sans-Serif" font-size="10.00">::Fitter::FitVariable</text>
</a>
</g>
<!-- Node11&#45;&gt;Node10 -->
<g id="edge20" class="edge"><title>Node11&#45;&gt;Node10</title>
<path fill="none" stroke="midnightblue" d="M447.347,-190.869C477.947,-196.989 514.971,-204.394 544.658,-210.332"/>
<polygon fill="midnightblue" stroke="midnightblue" points="447.728,-187.376 437.236,-188.847 446.355,-194.24 447.728,-187.376"/>
</g>
<!-- Node12 -->
<g id="node22" class="node"><title>Node12</title>
<a xlink:title="STL class. ">
<polygon fill="white" stroke="#bfbfbf" points="164,-237.5 164,-258.5 224,-258.5 224,-237.5 164,-237.5"/>
<text text-anchor="middle" x="194" y="-245.5" font-family="Helvetica,sans-Serif" font-size="10.00">std::string</text>
</a>
</g>
<!-- Node12&#45;&gt;Node10 -->
<g id="edge22" class="edge"><title>Node12&#45;&gt;Node10</title>
<path fill="none" stroke="#9a32cd" stroke-dasharray="5,2" d="M234.233,-245.311C307.503,-240.414 462.683,-230.043 544.668,-224.564"/>
<polygon fill="#9a32cd" stroke="#9a32cd" points="233.78,-241.834 224.036,-245.993 234.247,-248.818 233.78,-241.834"/>
<text text-anchor="middle" x="388" y="-242" font-family="Helvetica,sans-Serif" font-size="10.00"> Name</text>
</g>
<!-- Node29 -->
<g id="node58" class="node"><title>Node29</title>
<a xlink:href="structant_1_1_wrap_t_tree_1_1_r_o_o_t__branchinfo__t.html" target="_top" xlink:title="ant::WrapTTree::ROOT\l_branchinfo_t">
<polygon fill="white" stroke="black" points="328.5,-263 328.5,-297 447.5,-297 447.5,-263 328.5,-263"/>
<text text-anchor="start" x="336.5" y="-284" font-family="Helvetica,sans-Serif" font-size="10.00">ant::WrapTTree::ROOT</text>
<text text-anchor="middle" x="388" y="-271" font-family="Helvetica,sans-Serif" font-size="10.00">_branchinfo_t</text>
</a>
</g>
<!-- Node12&#45;&gt;Node29 -->
<g id="edge62" class="edge"><title>Node12&#45;&gt;Node29</title>
<path fill="none" stroke="#9a32cd" stroke-dasharray="5,2" d="M234.239,-254.637C261.391,-259.116 297.696,-265.105 328.211,-270.138"/>
<polygon fill="#9a32cd" stroke="#9a32cd" points="234.749,-251.174 224.312,-253 233.61,-258.081 234.749,-251.174"/>
<text text-anchor="middle" x="291" y="-270" font-family="Helvetica,sans-Serif" font-size="10.00"> Name</text>
</g>
<!-- Node13 -->
<g id="node24" class="node"><title>Node13</title>
<a xlink:title="STL class. ">
<polygon fill="white" stroke="#bfbfbf" points="0.5,-231 0.5,-265 95.5,-265 95.5,-231 0.5,-231"/>
<text text-anchor="start" x="8.5" y="-252" font-family="Helvetica,sans-Serif" font-size="10.00">std::basic_string&lt;</text>
<text text-anchor="middle" x="48" y="-239" font-family="Helvetica,sans-Serif" font-size="10.00"> char &gt;</text>
</a>
</g>
<!-- Node13&#45;&gt;Node12 -->
<g id="edge24" class="edge"><title>Node13&#45;&gt;Node12</title>
<path fill="none" stroke="midnightblue" d="M106.012,-248C125.86,-248 147.254,-248 163.975,-248"/>
<polygon fill="midnightblue" stroke="midnightblue" points="105.806,-244.5 95.8059,-248 105.806,-251.5 105.806,-244.5"/>
</g>
<!-- Node14 -->
<g id="node26" class="node"><title>Node14</title>
<polygon fill="white" stroke="#bfbfbf" points="757.5,-145 757.5,-179 878.5,-179 878.5,-145 757.5,-145"/>
<text text-anchor="start" x="765.5" y="-166" font-family="Helvetica,sans-Serif" font-size="10.00">std::vector&lt; std::shared</text>
<text text-anchor="middle" x="818" y="-153" font-family="Helvetica,sans-Serif" font-size="10.00">_ptr&lt; FitParticle &gt; &gt;</text>
</g>
<!-- Node14&#45;&gt;Node6 -->
<g id="edge26" class="edge"><title>Node14&#45;&gt;Node6</title>
<path fill="none" stroke="#9a32cd" stroke-dasharray="5,2" d="M888.944,-162C922.793,-162 962.416,-162 992.727,-162"/>
<polygon fill="#9a32cd" stroke="#9a32cd" points="888.641,-158.5 878.641,-162 888.641,-165.5 888.641,-158.5"/>
<text text-anchor="middle" x="928" y="-166" font-family="Helvetica,sans-Serif" font-size="10.00"> Photons</text>
</g>
<!-- Node15 -->
<g id="node28" class="node"><title>Node15</title>
<polygon fill="white" stroke="#bfbfbf" points="988,-98.5 988,-119.5 1094,-119.5 1094,-98.5 988,-98.5"/>
<text text-anchor="middle" x="1041" y="-106.5" font-family="Helvetica,sans-Serif" font-size="10.00">std::vector&lt; tree_t &gt;</text>
</g>
<!-- Node15&#45;&gt;Node5 -->
<g id="edge28" class="edge"><title>Node15&#45;&gt;Node5</title>
<path fill="none" stroke="#9a32cd" stroke-dasharray="5,2" d="M1104.19,-109C1145.24,-109 1197.91,-109 1235.62,-109"/>
<polygon fill="#9a32cd" stroke="#9a32cd" points="1104.03,-105.5 1094.03,-109 1104.03,-112.5 1104.03,-105.5"/>
<text text-anchor="middle" x="1159" y="-113" font-family="Helvetica,sans-Serif" font-size="10.00"> tree_leaves</text>
</g>
<!-- Node16 -->
<g id="node30" class="node"><title>Node16</title>
<polygon fill="white" stroke="#bfbfbf" points="986,-53.5 986,-74.5 1096,-74.5 1096,-53.5 986,-53.5"/>
<text text-anchor="middle" x="1041" y="-61.5" font-family="Helvetica,sans-Serif" font-size="10.00">std::list&lt; iteration_t &gt;</text>
</g>
<!-- Node16&#45;&gt;Node5 -->
<g id="edge30" class="edge"><title>Node16&#45;&gt;Node5</title>
<path fill="none" stroke="#9a32cd" stroke-dasharray="5,2" d="M1105.99,-76.0355C1146.78,-83.5882 1198.49,-93.1648 1235.66,-100.047"/>
<polygon fill="#9a32cd" stroke="#9a32cd" points="1106.61,-72.5907 1096.14,-74.2112 1105.34,-79.4737 1106.61,-72.5907"/>
<text text-anchor="middle" x="1159" y="-95" font-family="Helvetica,sans-Serif" font-size="10.00"> iterations</text>
</g>
<!-- Node17 -->
<g id="node32" class="node"><title>Node17</title>
<a xlink:href="structant_1_1analysis_1_1utils_1_1_tree_fitter_1_1iteration__t.html" target="_top" xlink:title="ant::analysis::utils\l::TreeFitter::iteration_t">
<polygon fill="white" stroke="black" points="761.5,-41 761.5,-75 874.5,-75 874.5,-41 761.5,-41"/>
<text text-anchor="start" x="769.5" y="-62" font-family="Helvetica,sans-Serif" font-size="10.00">ant::analysis::utils</text>
<text text-anchor="middle" x="818" y="-49" font-family="Helvetica,sans-Serif" font-size="10.00">::TreeFitter::iteration_t</text>
</a>
</g>
<!-- Node17&#45;&gt;Node16 -->
<g id="edge32" class="edge"><title>Node17&#45;&gt;Node16</title>
<path fill="none" stroke="#9a32cd" stroke-dasharray="5,2" d="M884.784,-59.7969C916.972,-60.6629 955.118,-61.6893 985.657,-62.511"/>
<polygon fill="#9a32cd" stroke="#9a32cd" points="884.651,-56.2921 874.561,-59.5218 884.463,-63.2896 884.651,-56.2921"/>
<text text-anchor="middle" x="928" y="-66" font-family="Helvetica,sans-Serif" font-size="10.00"> elements</text>
</g>
<!-- Node18 -->
<g id="node34" class="node"><title>Node18</title>
<polygon fill="white" stroke="#bfbfbf" points="533.5,-34.5 533.5,-81.5 662.5,-81.5 662.5,-34.5 533.5,-34.5"/>
<text text-anchor="start" x="541.5" y="-68.5" font-family="Helvetica,sans-Serif" font-size="10.00">std::vector&lt; ant::analysis</text>
<text text-anchor="start" x="541.5" y="-55.5" font-family="Helvetica,sans-Serif" font-size="10.00">::utils::TreeFitter::iteration</text>
<text text-anchor="middle" x="598" y="-42.5" font-family="Helvetica,sans-Serif" font-size="10.00">_t::particle_t &gt;</text>
</g>
<!-- Node18&#45;&gt;Node17 -->
<g id="edge34" class="edge"><title>Node18&#45;&gt;Node17</title>
<path fill="none" stroke="#9a32cd" stroke-dasharray="5,2" d="M672.613,-58C701.624,-58 734.309,-58 761.331,-58"/>
<polygon fill="#9a32cd" stroke="#9a32cd" points="672.521,-54.5001 662.521,-58 672.521,-61.5001 672.521,-54.5001"/>
<text text-anchor="middle" x="708" y="-62" font-family="Helvetica,sans-Serif" font-size="10.00"> Particles</text>
</g>
<!-- Node19 -->
<g id="node36" class="node"><title>Node19</title>
<a xlink:href="structant_1_1analysis_1_1utils_1_1_tree_fitter_1_1iteration__t_1_1particle__t.html" target="_top" xlink:title="ant::analysis::utils\l::TreeFitter::iteration\l_t::particle_t">
<polygon fill="white" stroke="black" points="335.5,-34.5 335.5,-81.5 440.5,-81.5 440.5,-34.5 335.5,-34.5"/>
<text text-anchor="start" x="343.5" y="-68.5" font-family="Helvetica,sans-Serif" font-size="10.00">ant::analysis::utils</text>
<text text-anchor="start" x="343.5" y="-55.5" font-family="Helvetica,sans-Serif" font-size="10.00">::TreeFitter::iteration</text>
<text text-anchor="middle" x="388" y="-42.5" font-family="Helvetica,sans-Serif" font-size="10.00">_t::particle_t</text>
</a>
</g>
<!-- Node19&#45;&gt;Node18 -->
<g id="edge36" class="edge"><title>Node19&#45;&gt;Node18</title>
<path fill="none" stroke="#9a32cd" stroke-dasharray="5,2" d="M450.844,-58C476.863,-58 507.022,-58 533.239,-58"/>
<polygon fill="#9a32cd" stroke="#9a32cd" points="450.721,-54.5001 440.721,-58 450.721,-61.5001 450.721,-54.5001"/>
<text text-anchor="middle" x="488" y="-62" font-family="Helvetica,sans-Serif" font-size="10.00"> elements</text>
</g>
<!-- Node20 -->
<g id="node38" class="node"><title>Node20</title>
<a xlink:href="structant_1_1std__ext_1_1cc__shared__ptr.html" target="_top" xlink:title="ant::std_ext::cc_shared\l_ptr\&lt; TParticle \&gt;">
<polygon fill="white" stroke="black" points="134.5,-41 134.5,-75 253.5,-75 253.5,-41 134.5,-41"/>
<text text-anchor="start" x="142.5" y="-62" font-family="Helvetica,sans-Serif" font-size="10.00">ant::std_ext::cc_shared</text>
<text text-anchor="middle" x="194" y="-49" font-family="Helvetica,sans-Serif" font-size="10.00">_ptr&lt; TParticle &gt;</text>
</a>
</g>
<!-- Node20&#45;&gt;Node19 -->
<g id="edge38" class="edge"><title>Node20&#45;&gt;Node19</title>
<path fill="none" stroke="#9a32cd" stroke-dasharray="5,2" d="M263.841,-58C287.471,-58 313.439,-58 335.491,-58"/>
<polygon fill="#9a32cd" stroke="#9a32cd" points="263.525,-54.5001 253.525,-58 263.525,-61.5001 263.525,-54.5001"/>
<text text-anchor="middle" x="291" y="-62" font-family="Helvetica,sans-Serif" font-size="10.00"> Particle</text>
</g>
<!-- Node21 -->
<g id="node42" class="node"><title>Node21</title>
<a xlink:href="classant_1_1analysis_1_1_histogram_factory.html" target="_top" xlink:title="ant::analysis::Histogram\lFactory">
<polygon fill="white" stroke="black" points="1222.5,-40 1222.5,-74 1345.5,-74 1345.5,-40 1222.5,-40"/>
<text text-anchor="start" x="1230.5" y="-61" font-family="Helvetica,sans-Serif" font-size="10.00">ant::analysis::Histogram</text>
<text text-anchor="middle" x="1284" y="-48" font-family="Helvetica,sans-Serif" font-size="10.00">Factory</text>
</a>
</g>
<!-- Node21&#45;&gt;Node1 -->
<g id="edge44" class="edge"><title>Node21&#45;&gt;Node1</title>
<path fill="none" stroke="#9a32cd" stroke-dasharray="5,2" d="M1355.69,-68.6877C1387.54,-75.6373 1424.79,-86.2578 1456,-102 1488,-118.141 1519.22,-146.023 1537.53,-163.979"/>
<polygon fill="#9a32cd" stroke="#9a32cd" points="1356.06,-65.1894 1345.56,-66.5585 1354.62,-72.0399 1356.06,-65.1894"/>
<text text-anchor="middle" x="1419" y="-106" font-family="Helvetica,sans-Serif" font-size="10.00"> HistFac</text>
</g>
<!-- Node22 -->
<g id="node44" class="node"><title>Node22</title>
<a xlink:href="classant_1_1_bin_settings.html" target="_top" xlink:title="ant::BinSettings">
<polygon fill="white" stroke="black" points="1241,-0.5 1241,-21.5 1327,-21.5 1327,-0.5 1241,-0.5"/>
<text text-anchor="middle" x="1284" y="-8.5" font-family="Helvetica,sans-Serif" font-size="10.00">ant::BinSettings</text>
</a>
</g>
<!-- Node22&#45;&gt;Node1 -->
<g id="edge46" class="edge"><title>Node22&#45;&gt;Node1</title>
<path fill="none" stroke="#9a32cd" stroke-dasharray="5,2" d="M1337.44,-16.9288C1373.43,-22.9727 1420.59,-35.048 1456,-59 1497.18,-86.8565 1529.56,-137.229 1544.68,-163.692"/>
<polygon fill="#9a32cd" stroke="#9a32cd" points="1337.56,-13.4039 1327.14,-15.3096 1336.47,-20.3191 1337.56,-13.4039"/>
<text text-anchor="middle" x="1419" y="-63" font-family="Helvetica,sans-Serif" font-size="10.00"> symmetricEbins</text>
</g>
<!-- Node23 -->
<g id="node46" class="node"><title>Node23</title>
<a xlink:href="classant_1_1interval.html" target="_top" xlink:title="ant::interval\&lt; double \&gt;">
<polygon fill="white" stroke="black" points="984,-0.5 984,-21.5 1098,-21.5 1098,-0.5 984,-0.5"/>
<text text-anchor="middle" x="1041" y="-8.5" font-family="Helvetica,sans-Serif" font-size="10.00">ant::interval&lt; double &gt;</text>
</a>
</g>
<!-- Node23&#45;&gt;Node22 -->
<g id="edge48" class="edge"><title>Node23&#45;&gt;Node22</title>
<path fill="none" stroke="midnightblue" d="M1108.51,-11C1150.82,-11 1204.09,-11 1240.78,-11"/>
<polygon fill="midnightblue" stroke="midnightblue" points="1108.28,-7.5001 1098.28,-11 1108.28,-14.5001 1108.28,-7.5001"/>
</g>
<!-- Node24 -->
<g id="node48" class="node"><title>Node24</title>
<a xlink:href="classant_1_1printable__traits.html" target="_top" xlink:title="ant::printable_traits">
<polygon fill="white" stroke="black" points="768,-0.5 768,-21.5 868,-21.5 868,-0.5 768,-0.5"/>
<text text-anchor="middle" x="818" y="-8.5" font-family="Helvetica,sans-Serif" font-size="10.00">ant::printable_traits</text>
</a>
</g>
<!-- Node24&#45;&gt;Node23 -->
<g id="edge50" class="edge"><title>Node24&#45;&gt;Node23</title>
<path fill="none" stroke="midnightblue" d="M878.393,-11C911.137,-11 951.384,-11 983.646,-11"/>
<polygon fill="midnightblue" stroke="midnightblue" points="878.046,-7.5001 868.046,-11 878.046,-14.5001 878.046,-7.5001"/>
</g>
<!-- Node25 -->
<g id="node50" class="node"><title>Node25</title>
<a xlink:href="structant_1_1analysis_1_1physics_1_1_two_pi0___m_c_smearing_1_1_multi_pi0_1_1_multi_pi0_tree.html" target="_top" xlink:title="ant::analysis::physics\l::TwoPi0_MCSmearing::MultiPi0\l::MultiPi0Tree">
<polygon fill="white" stroke="black" points="1204.5,-193.5 1204.5,-240.5 1363.5,-240.5 1363.5,-193.5 1204.5,-193.5"/>
<text text-anchor="start" x="1212.5" y="-227.5" font-family="Helvetica,sans-Serif" font-size="10.00">ant::analysis::physics</text>
<text text-anchor="start" x="1212.5" y="-214.5" font-family="Helvetica,sans-Serif" font-size="10.00">::TwoPi0_MCSmearing::MultiPi0</text>
<text text-anchor="middle" x="1284" y="-201.5" font-family="Helvetica,sans-Serif" font-size="10.00">::MultiPi0Tree</text>
</a>
</g>
<!-- Node25&#45;&gt;Node1 -->
<g id="edge52" class="edge"><title>Node25&#45;&gt;Node1</title>
<path fill="none" stroke="#9a32cd" stroke-dasharray="5,2" d="M1373.5,-205.067C1405.99,-200.734 1442.47,-195.87 1474.09,-191.655"/>
<polygon fill="#9a32cd" stroke="#9a32cd" points="1373,-201.603 1363.55,-206.394 1373.92,-208.541 1373,-201.603"/>
<text text-anchor="middle" x="1419" y="-207" font-family="Helvetica,sans-Serif" font-size="10.00"> t</text>
</g>
<!-- Node26 -->
<g id="node52" class="node"><title>Node26</title>
<a xlink:href="structant_1_1_wrap_t_tree.html" target="_top" xlink:title="The WrapTTree struct simplifies TTree handling in physics classes. ">
<polygon fill="white" stroke="black" points="998.5,-237.5 998.5,-258.5 1083.5,-258.5 1083.5,-237.5 998.5,-237.5"/>
<text text-anchor="middle" x="1041" y="-245.5" font-family="Helvetica,sans-Serif" font-size="10.00">ant::WrapTTree</text>
</a>
</g>
<!-- Node26&#45;&gt;Node25 -->
<g id="edge54" class="edge"><title>Node26&#45;&gt;Node25</title>
<path fill="none" stroke="midnightblue" d="M1093.71,-241.275C1125.95,-237.163 1167.81,-231.823 1204.06,-227.198"/>
<polygon fill="midnightblue" stroke="midnightblue" points="1093.08,-237.827 1083.61,-242.565 1093.97,-244.771 1093.08,-237.827"/>
</g>
<!-- Node27 -->
<g id="node54" class="node"><title>Node27</title>
<polygon fill="white" stroke="#bfbfbf" points="748,-263 748,-297 888,-297 888,-263 748,-263"/>
<text text-anchor="start" x="756" y="-284" font-family="Helvetica,sans-Serif" font-size="10.00">std::vector&lt; ant::WrapTTree</text>
<text text-anchor="middle" x="818" y="-271" font-family="Helvetica,sans-Serif" font-size="10.00">::ROOT_branch_t &gt;</text>
</g>
<!-- Node27&#45;&gt;Node26 -->
<g id="edge56" class="edge"><title>Node27&#45;&gt;Node26</title>
<path fill="none" stroke="#9a32cd" stroke-dasharray="5,2" d="M898.576,-268.438C932.315,-263.596 970.155,-258.166 998.347,-254.121"/>
<polygon fill="#9a32cd" stroke="#9a32cd" points="897.654,-265.034 888.253,-269.919 898.648,-271.963 897.654,-265.034"/>
<text text-anchor="middle" x="928" y="-270" font-family="Helvetica,sans-Serif" font-size="10.00"> branches</text>
</g>
<!-- Node28 -->
<g id="node56" class="node"><title>Node28</title>
<a xlink:href="structant_1_1_wrap_t_tree_1_1_r_o_o_t__branch__t.html" target="_top" xlink:title="ant::WrapTTree::ROOT\l_branch_t">
<polygon fill="white" stroke="black" points="538.5,-263 538.5,-297 657.5,-297 657.5,-263 538.5,-263"/>
<text text-anchor="start" x="546.5" y="-284" font-family="Helvetica,sans-Serif" font-size="10.00">ant::WrapTTree::ROOT</text>
<text text-anchor="middle" x="598" y="-271" font-family="Helvetica,sans-Serif" font-size="10.00">_branch_t</text>
</a>
</g>
<!-- Node28&#45;&gt;Node27 -->
<g id="edge58" class="edge"><title>Node28&#45;&gt;Node27</title>
<path fill="none" stroke="#9a32cd" stroke-dasharray="5,2" d="M667.544,-280C693.17,-280 722.198,-280 747.874,-280"/>
<polygon fill="#9a32cd" stroke="#9a32cd" points="667.535,-276.5 657.535,-280 667.535,-283.5 667.535,-276.5"/>
<text text-anchor="middle" x="708" y="-284" font-family="Helvetica,sans-Serif" font-size="10.00"> elements</text>
</g>
<!-- Node29&#45;&gt;Node28 -->
<g id="edge60" class="edge"><title>Node29&#45;&gt;Node28</title>
<path fill="none" stroke="midnightblue" d="M457.799,-280C483.849,-280 513.168,-280 538.235,-280"/>
<polygon fill="midnightblue" stroke="midnightblue" points="457.616,-276.5 447.616,-280 457.616,-283.5 457.616,-276.5"/>
</g>
</g>
</svg>
