<?xml version="1.0" encoding="UTF-8" standalone="no"?>
<!DOCTYPE svg PUBLIC "-//W3C//DTD SVG 1.1//EN"
 "http://www.w3.org/Graphics/SVG/1.1/DTD/svg11.dtd">
<!-- Generated by graphviz version 2.26.3 (20100126.1600)
 -->
<!-- Title: ant::calibration::Energy::GUI_MIP Pages: 1 -->
<svg width="990pt" height="505pt"
 viewBox="0.00 0.00 990.00 505.00" xmlns="http://www.w3.org/2000/svg" xmlns:xlink="http://www.w3.org/1999/xlink">
<g id="graph1" class="graph" transform="scale(1 1) rotate(0) translate(4 501)">
<title>ant::calibration::Energy::GUI_MIP</title>
<polygon fill="white" stroke="white" points="-4,5 -4,-501 987,-501 987,5 -4,5"/>
<!-- Node1 -->
<g id="node1" class="node"><title>Node1</title>
<polygon fill="#bfbfbf" stroke="black" points="864.5,-357 864.5,-391 981.5,-391 981.5,-357 864.5,-357"/>
<text text-anchor="start" x="872.5" y="-378" font-family="Helvetica,sans-Serif" font-size="10.00">ant::calibration::Energy</text>
<text text-anchor="middle" x="923" y="-365" font-family="Helvetica,sans-Serif" font-size="10.00">::GUI_MIP</text>
</g>
<!-- Node2 -->
<g id="node2" class="node"><title>Node2</title>
<a xlink:href="structant_1_1calibration_1_1_energy_1_1_g_u_i___calib_type.html" target="_top" xlink:title="The GUI_CalibType struct is an abstract base class for handling the data storage for a provided Calib...">
<polygon fill="white" stroke="black" points="674.5,-357 674.5,-391 791.5,-391 791.5,-357 674.5,-357"/>
<text text-anchor="start" x="682.5" y="-378" font-family="Helvetica,sans-Serif" font-size="10.00">ant::calibration::Energy</text>
<text text-anchor="middle" x="733" y="-365" font-family="Helvetica,sans-Serif" font-size="10.00">::GUI_CalibType</text>
</a>
</g>
<!-- Node2&#45;&gt;Node1 -->
<g id="edge2" class="edge"><title>Node2&#45;&gt;Node1</title>
<path fill="none" stroke="midnightblue" d="M801.772,-374C822.264,-374 844.524,-374 864.31,-374"/>
<polygon fill="midnightblue" stroke="midnightblue" points="801.557,-370.5 791.557,-374 801.557,-377.5 801.557,-370.5"/>
</g>
<!-- Node3 -->
<g id="node4" class="node"><title>Node3</title>
<a xlink:href="classant_1_1calibration_1_1gui_1_1_calib_module__traits.html" target="_top" xlink:title="ant::calibration::gui\l::CalibModule_traits">
<polygon fill="white" stroke="black" points="436,-335 436,-369 540,-369 540,-335 436,-335"/>
<text text-anchor="start" x="444" y="-356" font-family="Helvetica,sans-Serif" font-size="10.00">ant::calibration::gui</text>
<text text-anchor="middle" x="488" y="-343" font-family="Helvetica,sans-Serif" font-size="10.00">::CalibModule_traits</text>
</a>
</g>
<!-- Node3&#45;&gt;Node2 -->
<g id="edge4" class="edge"><title>Node3&#45;&gt;Node2</title>
<path fill="none" stroke="midnightblue" d="M550.221,-357.587C588.371,-361.013 636.911,-365.372 674.38,-368.736"/>
<polygon fill="midnightblue" stroke="midnightblue" points="550.531,-354.101 540.258,-356.693 549.905,-361.073 550.531,-354.101"/>
</g>
<!-- Node4 -->
<g id="node6" class="node"><title>Node4</title>
<a xlink:href="structant_1_1calibration_1_1_energy_1_1_calib_type.html" target="_top" xlink:title="The CalibType struct stores the data for the Updateable interface and for the GUI. ">
<polygon fill="white" stroke="black" points="429.5,-439 429.5,-473 546.5,-473 546.5,-439 429.5,-439"/>
<text text-anchor="start" x="437.5" y="-460" font-family="Helvetica,sans-Serif" font-size="10.00">ant::calibration::Energy</text>
<text text-anchor="middle" x="488" y="-447" font-family="Helvetica,sans-Serif" font-size="10.00">::CalibType</text>
</a>
</g>
<!-- Node4&#45;&gt;Node2 -->
<g id="edge6" class="edge"><title>Node4&#45;&gt;Node2</title>
<path fill="none" stroke="#9a32cd" stroke-dasharray="5,2" d="M556.326,-438.768C587.098,-430.424 623.697,-419.684 656,-408 669.605,-403.079 684.202,-396.88 696.991,-391.126"/>
<polygon fill="#9a32cd" stroke="#9a32cd" points="555.303,-435.419 546.552,-441.391 557.118,-442.179 555.303,-435.419"/>
<text text-anchor="middle" x="622" y="-432" font-family="Helvetica,sans-Serif" font-size="10.00"> calibType</text>
</g>
<!-- Node5 -->
<g id="node8" class="node"><title>Node5</title>
<a xlink:title="STL class. ">
<polygon fill="white" stroke="#bfbfbf" points="213,-469.5 213,-490.5 273,-490.5 273,-469.5 213,-469.5"/>
<text text-anchor="middle" x="243" y="-477.5" font-family="Helvetica,sans-Serif" font-size="10.00">std::string</text>
</a>
</g>
<!-- Node5&#45;&gt;Node1 -->
<g id="edge20" class="edge"><title>Node5&#45;&gt;Node1</title>
<path fill="none" stroke="#9a32cd" stroke-dasharray="5,2" d="M283.398,-484.569C293.992,-485.576 305.413,-486.494 316,-487 347.963,-488.529 356.003,-487.439 388,-487 468.912,-485.889 490.143,-495.067 570,-482 685.269,-463.139 815.323,-416.396 880.69,-391.03"/>
<polygon fill="#9a32cd" stroke="#9a32cd" points="283.441,-481.056 273.143,-483.543 282.745,-488.021 283.441,-481.056"/>
<text text-anchor="middle" x="622" y="-482" font-family="Helvetica,sans-Serif" font-size="10.00"> full_hist_name</text>
</g>
<!-- Node5&#45;&gt;Node4 -->
<g id="edge8" class="edge"><title>Node5&#45;&gt;Node4</title>
<path fill="none" stroke="#9a32cd" stroke-dasharray="5,2" d="M283.076,-467.837C293.684,-465.096 305.193,-462.543 316,-461 353.411,-455.658 395.847,-454.374 429.208,-454.443"/>
<polygon fill="#9a32cd" stroke="#9a32cd" points="281.974,-464.509 273.233,-470.496 283.8,-471.267 281.974,-464.509"/>
<text text-anchor="middle" x="352" y="-478" font-family="Helvetica,sans-Serif" font-size="10.00"> Name</text>
<text text-anchor="middle" x="352" y="-465" font-family="Helvetica,sans-Serif" font-size="10.00">HistogramName</text>
</g>
<!-- Node6 -->
<g id="node10" class="node"><title>Node6</title>
<a xlink:title="STL class. ">
<polygon fill="white" stroke="#bfbfbf" points="6.5,-463 6.5,-497 101.5,-497 101.5,-463 6.5,-463"/>
<text text-anchor="start" x="14.5" y="-484" font-family="Helvetica,sans-Serif" font-size="10.00">std::basic_string&lt;</text>
<text text-anchor="middle" x="54" y="-471" font-family="Helvetica,sans-Serif" font-size="10.00"> char &gt;</text>
</a>
</g>
<!-- Node6&#45;&gt;Node5 -->
<g id="edge10" class="edge"><title>Node6&#45;&gt;Node5</title>
<path fill="none" stroke="midnightblue" d="M111.781,-480C145.109,-480 185.651,-480 212.771,-480"/>
<polygon fill="midnightblue" stroke="midnightblue" points="111.693,-476.5 101.693,-480 111.693,-483.5 111.693,-476.5"/>
</g>
<!-- Node7 -->
<g id="node12" class="node"><title>Node7</title>
<polygon fill="white" stroke="#bfbfbf" points="188,-364.5 188,-385.5 298,-385.5 298,-364.5 188,-364.5"/>
<text text-anchor="middle" x="243" y="-372.5" font-family="Helvetica,sans-Serif" font-size="10.00">std::vector&lt; double &gt;</text>
</g>
<!-- Node7&#45;&gt;Node2 -->
<g id="edge18" class="edge"><title>Node7&#45;&gt;Node2</title>
<path fill="none" stroke="#9a32cd" stroke-dasharray="5,2" d="M272.615,-359.965C304.571,-344.651 357.425,-321.926 406,-313 477.689,-299.826 498.276,-300.019 570,-313 616.085,-321.341 666.119,-341.944 698.425,-356.902"/>
<polygon fill="#9a32cd" stroke="#9a32cd" points="270.853,-356.93 263.396,-364.456 273.919,-363.222 270.853,-356.93"/>
<text text-anchor="middle" x="488" y="-317" font-family="Helvetica,sans-Serif" font-size="10.00"> previousValues</text>
</g>
<!-- Node7&#45;&gt;Node4 -->
<g id="edge12" class="edge"><title>Node7&#45;&gt;Node4</title>
<path fill="none" stroke="#9a32cd" stroke-dasharray="5,2" d="M283.311,-388.832C316.257,-400.081 364.07,-416.28 406,-430 414.942,-432.926 424.449,-435.987 433.702,-438.938"/>
<polygon fill="#9a32cd" stroke="#9a32cd" points="284.182,-385.43 273.587,-385.508 281.917,-392.054 284.182,-385.43"/>
<text text-anchor="middle" x="352" y="-439" font-family="Helvetica,sans-Serif" font-size="10.00"> Values</text>
<text text-anchor="middle" x="352" y="-426" font-family="Helvetica,sans-Serif" font-size="10.00">DefaultValues</text>
</g>
<!-- Node8 -->
<g id="node14" class="node"><title>Node8</title>
<polygon fill="white" stroke="#bfbfbf" points="427,-387 427,-421 549,-421 549,-387 427,-387"/>
<text text-anchor="start" x="435" y="-408" font-family="Helvetica,sans-Serif" font-size="10.00">std::map&lt; unsigned,</text>
<text text-anchor="middle" x="488" y="-395" font-family="Helvetica,sans-Serif" font-size="10.00"> std::vector&lt; double &gt; &gt;</text>
</g>
<!-- Node7&#45;&gt;Node8 -->
<g id="edge16" class="edge"><title>Node7&#45;&gt;Node8</title>
<path fill="none" stroke="#9a32cd" stroke-dasharray="5,2" d="M308.442,-371.774C333.443,-371.503 362.147,-372.358 388,-376 404.246,-378.289 421.578,-382.488 437.171,-386.951"/>
<polygon fill="#9a32cd" stroke="#9a32cd" points="308.275,-368.276 298.336,-371.946 308.394,-375.275 308.275,-368.276"/>
<text text-anchor="middle" x="352" y="-380" font-family="Helvetica,sans-Serif" font-size="10.00"> elements</text>
</g>
<!-- Node8&#45;&gt;Node2 -->
<g id="edge14" class="edge"><title>Node8&#45;&gt;Node2</title>
<path fill="none" stroke="#9a32cd" stroke-dasharray="5,2" d="M559.282,-395.272C595.803,-390.8 639.73,-385.421 674.275,-381.191"/>
<polygon fill="#9a32cd" stroke="#9a32cd" points="558.692,-391.818 549.192,-396.507 559.543,-398.766 558.692,-391.818"/>
<text text-anchor="middle" x="622" y="-395" font-family="Helvetica,sans-Serif" font-size="10.00"> fitParameters</text>
</g>
<!-- Node9 -->
<g id="node19" class="node"><title>Node9</title>
<a xlink:href="classant_1_1calibration_1_1gui_1_1_cal_canvas.html" target="_top" xlink:title="ant::calibration::gui\l::CalCanvas">
<polygon fill="white" stroke="black" points="683.5,-144 683.5,-178 782.5,-178 782.5,-144 683.5,-144"/>
<text text-anchor="start" x="691.5" y="-165" font-family="Helvetica,sans-Serif" font-size="10.00">ant::calibration::gui</text>
<text text-anchor="middle" x="733" y="-152" font-family="Helvetica,sans-Serif" font-size="10.00">::CalCanvas</text>
</a>
</g>
<!-- Node9&#45;&gt;Node1 -->
<g id="edge22" class="edge"><title>Node9&#45;&gt;Node1</title>
<path fill="none" stroke="#9a32cd" stroke-dasharray="5,2" d="M755.002,-185.666C793.964,-229.344 874.142,-319.227 907.7,-356.848"/>
<polygon fill="#9a32cd" stroke="#9a32cd" points="757.496,-183.203 748.227,-178.071 752.272,-187.863 757.496,-183.203"/>
<text text-anchor="middle" x="828" y="-290" font-family="Helvetica,sans-Serif" font-size="10.00"> canvas</text>
</g>
<!-- Node10 -->
<g id="node21" class="node"><title>Node10</title>
<polygon fill="white" stroke="#bfbfbf" points="460,-0.5 460,-21.5 516,-21.5 516,-0.5 460,-0.5"/>
<text text-anchor="middle" x="488" y="-8.5" font-family="Helvetica,sans-Serif" font-size="10.00">TCanvas</text>
</g>
<!-- Node10&#45;&gt;Node9 -->
<g id="edge24" class="edge"><title>Node10&#45;&gt;Node9</title>
<path fill="none" stroke="midnightblue" d="M526.241,-17.7948C540.3,-20.9461 556.158,-25.2854 570,-31 611.286,-48.0448 620.93,-55.3386 656,-83 679.755,-101.737 703.705,-127.288 718.444,-143.961"/>
<polygon fill="midnightblue" stroke="midnightblue" points="526.885,-14.3536 516.377,-15.7074 525.436,-21.2019 526.885,-14.3536"/>
</g>
<!-- Node11 -->
<g id="node23" class="node"><title>Node11</title>
<a xlink:href="classant_1_1calibration_1_1gui_1_1update__notify__traits.html" target="_top" xlink:title="ant::calibration::gui\l::update_notify_traits">
<polygon fill="white" stroke="black" points="0,-219 0,-253 108,-253 108,-219 0,-219"/>
<text text-anchor="start" x="8" y="-240" font-family="Helvetica,sans-Serif" font-size="10.00">ant::calibration::gui</text>
<text text-anchor="middle" x="54" y="-227" font-family="Helvetica,sans-Serif" font-size="10.00">::update_notify_traits</text>
</a>
</g>
<!-- Node11&#45;&gt;Node9 -->
<g id="edge26" class="edge"><title>Node11&#45;&gt;Node9</title>
<path fill="none" stroke="midnightblue" d="M118.067,-243.632C216.223,-253.7 409.339,-267.072 570,-239 622.845,-229.766 677.82,-198.066 708.501,-178.033"/>
<polygon fill="midnightblue" stroke="midnightblue" points="118.319,-240.14 108.009,-242.578 117.589,-247.102 118.319,-240.14"/>
</g>
<!-- Node16 -->
<g id="node33" class="node"><title>Node16</title>
<a xlink:href="classant_1_1calibration_1_1gui_1_1_indicator.html" target="_top" xlink:title="ant::calibration::gui\l::Indicator">
<polygon fill="white" stroke="black" points="193.5,-196 193.5,-230 292.5,-230 292.5,-196 193.5,-196"/>
<text text-anchor="start" x="201.5" y="-217" font-family="Helvetica,sans-Serif" font-size="10.00">ant::calibration::gui</text>
<text text-anchor="middle" x="243" y="-204" font-family="Helvetica,sans-Serif" font-size="10.00">::Indicator</text>
</a>
</g>
<!-- Node11&#45;&gt;Node16 -->
<g id="edge38" class="edge"><title>Node11&#45;&gt;Node16</title>
<path fill="none" stroke="midnightblue" d="M118.123,-228.197C142.698,-225.206 170.341,-221.842 193.36,-219.041"/>
<polygon fill="midnightblue" stroke="midnightblue" points="117.664,-224.727 108.16,-229.409 118.509,-231.675 117.664,-224.727"/>
</g>
<!-- Node12 -->
<g id="node25" class="node"><title>Node12</title>
<polygon fill="white" stroke="#bfbfbf" points="406,-144 406,-178 570,-178 570,-144 406,-144"/>
<text text-anchor="start" x="414" y="-165" font-family="Helvetica,sans-Serif" font-size="10.00">std::stack&lt; ant::calibration</text>
<text text-anchor="middle" x="488" y="-152" font-family="Helvetica,sans-Serif" font-size="10.00">::gui::FitFunction::SavedState_t &gt;</text>
</g>
<!-- Node12&#45;&gt;Node9 -->
<g id="edge28" class="edge"><title>Node12&#45;&gt;Node9</title>
<path fill="none" stroke="#9a32cd" stroke-dasharray="5,2" d="M580.505,-161C615.473,-161 653.916,-161 683.455,-161"/>
<polygon fill="#9a32cd" stroke="#9a32cd" points="580.263,-157.5 570.263,-161 580.263,-164.5 580.263,-157.5"/>
<text text-anchor="middle" x="622" y="-165" font-family="Helvetica,sans-Serif" font-size="10.00"> UndoStack</text>
</g>
<!-- Node13 -->
<g id="node27" class="node"><title>Node13</title>
<a xlink:title="STL class. ">
<polygon fill="white" stroke="#bfbfbf" points="199.5,-150.5 199.5,-171.5 286.5,-171.5 286.5,-150.5 199.5,-150.5"/>
<text text-anchor="middle" x="243" y="-158.5" font-family="Helvetica,sans-Serif" font-size="10.00">std::vector&lt; T &gt;</text>
</a>
</g>
<!-- Node13&#45;&gt;Node12 -->
<g id="edge30" class="edge"><title>Node13&#45;&gt;Node12</title>
<path fill="none" stroke="#9a32cd" stroke-dasharray="5,2" d="M296.55,-161C328.509,-161 369.752,-161 405.769,-161"/>
<polygon fill="#9a32cd" stroke="#9a32cd" points="296.519,-157.5 286.519,-161 296.519,-164.5 296.519,-157.5"/>
<text text-anchor="middle" x="352" y="-165" font-family="Helvetica,sans-Serif" font-size="10.00"> elements</text>
</g>
<!-- Node14 -->
<g id="node29" class="node"><title>Node14</title>
<polygon fill="white" stroke="#bfbfbf" points="39.5,-150.5 39.5,-171.5 68.5,-171.5 68.5,-150.5 39.5,-150.5"/>
<text text-anchor="middle" x="54" y="-158.5" font-family="Helvetica,sans-Serif" font-size="10.00">T</text>
</g>
<!-- Node14&#45;&gt;Node13 -->
<g id="edge32" class="edge"><title>Node14&#45;&gt;Node13</title>
<path fill="none" stroke="#9a32cd" stroke-dasharray="5,2" d="M78.7289,-161C109.344,-161 162.018,-161 199.462,-161"/>
<polygon fill="#9a32cd" stroke="#9a32cd" points="78.5167,-157.5 68.5167,-161 78.5167,-164.5 78.5167,-157.5"/>
<text text-anchor="middle" x="148" y="-165" font-family="Helvetica,sans-Serif" font-size="10.00"> elements</text>
</g>
<!-- Node15 -->
<g id="node31" class="node"><title>Node15</title>
<polygon fill="white" stroke="#bfbfbf" points="427,-196 427,-230 549,-230 549,-196 427,-196"/>
<text text-anchor="start" x="435" y="-217" font-family="Helvetica,sans-Serif" font-size="10.00">std::list&lt; ant::calibration</text>
<text text-anchor="middle" x="488" y="-204" font-family="Helvetica,sans-Serif" font-size="10.00">::gui::Indicator * &gt;</text>
</g>
<!-- Node15&#45;&gt;Node9 -->
<g id="edge34" class="edge"><title>Node15&#45;&gt;Node9</title>
<path fill="none" stroke="#9a32cd" stroke-dasharray="5,2" d="M559.026,-198.398C588.975,-192.19 624.202,-184.822 656,-178 664.834,-176.105 674.231,-174.057 683.314,-172.061"/>
<polygon fill="#9a32cd" stroke="#9a32cd" points="558.167,-195.002 549.084,-200.456 559.586,-201.856 558.167,-195.002"/>
<text text-anchor="middle" x="622" y="-195" font-family="Helvetica,sans-Serif" font-size="10.00"> indicators</text>
</g>
<!-- Node16&#45;&gt;Node15 -->
<g id="edge36" class="edge"><title>Node16&#45;&gt;Node15</title>
<path fill="none" stroke="#9a32cd" stroke-dasharray="5,2" d="M302.886,-213C340.503,-213 388.893,-213 426.764,-213"/>
<polygon fill="#9a32cd" stroke="#9a32cd" points="302.579,-209.5 292.579,-213 302.579,-216.5 302.579,-209.5"/>
<text text-anchor="middle" x="352" y="-217" font-family="Helvetica,sans-Serif" font-size="10.00"> elements</text>
</g>
<!-- Node17 -->
<g id="node36" class="node"><title>Node17</title>
<a xlink:href="structant_1_1calibration_1_1gui_1_1_cal_canvas_1_1axis__settings__t.html" target="_top" xlink:title="ant::calibration::gui\l::CalCanvas::axis_settings_t">
<polygon fill="white" stroke="black" points="416.5,-92 416.5,-126 559.5,-126 559.5,-92 416.5,-92"/>
<text text-anchor="start" x="424.5" y="-113" font-family="Helvetica,sans-Serif" font-size="10.00">ant::calibration::gui</text>
<text text-anchor="middle" x="488" y="-100" font-family="Helvetica,sans-Serif" font-size="10.00">::CalCanvas::axis_settings_t</text>
</a>
</g>
<!-- Node17&#45;&gt;Node9 -->
<g id="edge40" class="edge"><title>Node17&#45;&gt;Node9</title>
<path fill="none" stroke="#9a32cd" stroke-dasharray="5,2" d="M569.532,-125.782C597.015,-131.494 627.851,-137.961 656,-144 664.834,-145.895 674.231,-147.943 683.314,-149.939"/>
<polygon fill="#9a32cd" stroke="#9a32cd" points="570.072,-122.32 559.57,-123.715 568.65,-129.174 570.072,-122.32"/>
<text text-anchor="middle" x="622" y="-148" font-family="Helvetica,sans-Serif" font-size="10.00"> axis_settings</text>
</g>
<!-- Node18 -->
<g id="node38" class="node"><title>Node18</title>
<a xlink:href="classant_1_1calibration_1_1gui_1_1_fit_function.html" target="_top" xlink:title="ant::calibration::gui\l::FitFunction">
<polygon fill="white" stroke="black" points="438.5,-40 438.5,-74 537.5,-74 537.5,-40 438.5,-40"/>
<text text-anchor="start" x="446.5" y="-61" font-family="Helvetica,sans-Serif" font-size="10.00">ant::calibration::gui</text>
<text text-anchor="middle" x="488" y="-48" font-family="Helvetica,sans-Serif" font-size="10.00">::FitFunction</text>
</a>
</g>
<!-- Node18&#45;&gt;Node9 -->
<g id="edge42" class="edge"><title>Node18&#45;&gt;Node9</title>
<path fill="none" stroke="#9a32cd" stroke-dasharray="5,2" d="M547.631,-73.4136C580.374,-83.3643 621.266,-97.3499 656,-114 674.077,-122.665 693.327,-134.415 708.058,-143.999"/>
<polygon fill="#9a32cd" stroke="#9a32cd" points="548.33,-69.9696 537.747,-70.4565 546.324,-76.6759 548.33,-69.9696"/>
<text text-anchor="middle" x="622" y="-118" font-family="Helvetica,sans-Serif" font-size="10.00"> func</text>
</g>
</g>
</svg>
