<?xml version="1.0" encoding="UTF-8" standalone="no"?>
<!DOCTYPE svg PUBLIC "-//W3C//DTD SVG 1.1//EN"
 "http://www.w3.org/Graphics/SVG/1.1/DTD/svg11.dtd">
<!-- Generated by graphviz version 2.26.3 (20100126.1600)
 -->
<!-- Title: ant::analysis::physics::OmegaEtaG2::MyTreeFitter_t Pages: 1 -->
<svg width="1384pt" height="300pt"
 viewBox="0.00 0.00 1384.00 300.00" xmlns="http://www.w3.org/2000/svg" xmlns:xlink="http://www.w3.org/1999/xlink">
<g id="graph1" class="graph" transform="scale(1 1) rotate(0) translate(4 296)">
<title>ant::analysis::physics::OmegaEtaG2::MyTreeFitter_t</title>
<polygon fill="white" stroke="white" points="-4,5 -4,-296 1381,-296 1381,5 -4,5"/>
<!-- Node1 -->
<g id="node1" class="node"><title>Node1</title>
<polygon fill="#bfbfbf" stroke="black" points="1224,-164 1224,-198 1376,-198 1376,-164 1224,-164"/>
<text text-anchor="start" x="1232" y="-185" font-family="Helvetica,sans-Serif" font-size="10.00">ant::analysis::physics</text>
<text text-anchor="middle" x="1300" y="-172" font-family="Helvetica,sans-Serif" font-size="10.00">::OmegaEtaG2::MyTreeFitter_t</text>
</g>
<!-- Node2 -->
<g id="node2" class="node"><title>Node2</title>
<a xlink:href="classant_1_1_tree.html" target="_top" xlink:title="ant::Tree\&lt; node_t \&gt;">
<polygon fill="white" stroke="black" points="1014.5,-214.5 1014.5,-235.5 1117.5,-235.5 1117.5,-214.5 1014.5,-214.5"/>
<text text-anchor="middle" x="1066" y="-222.5" font-family="Helvetica,sans-Serif" font-size="10.00">ant::Tree&lt; node_t &gt;</text>
</a>
</g>
<!-- Node2&#45;&gt;Node1 -->
<g id="edge2" class="edge"><title>Node2&#45;&gt;Node1</title>
<path fill="none" stroke="#9a32cd" stroke-dasharray="5,2" d="M1127.76,-213.386C1157.14,-207.862 1192.55,-201.204 1223.6,-195.366"/>
<polygon fill="#9a32cd" stroke="#9a32cd" points="1126.82,-210.002 1117.64,-215.29 1128.12,-216.881 1126.82,-210.002"/>
<text text-anchor="middle" x="1171" y="-266" font-family="Helvetica,sans-Serif" font-size="10.00"> fitted_g2_X</text>
<text text-anchor="middle" x="1171" y="-253" font-family="Helvetica,sans-Serif" font-size="10.00">fitted_g1_X</text>
<text text-anchor="middle" x="1171" y="-240" font-family="Helvetica,sans-Serif" font-size="10.00">fitted_Omega</text>
<text text-anchor="middle" x="1171" y="-227" font-family="Helvetica,sans-Serif" font-size="10.00">fitted_X</text>
<text text-anchor="middle" x="1171" y="-214" font-family="Helvetica,sans-Serif" font-size="10.00">fitted_g_Omega</text>
</g>
<!-- Node3 -->
<g id="node4" class="node"><title>Node3</title>
<polygon fill="white" stroke="#bfbfbf" points="402,-268.5 402,-289.5 498,-289.5 498,-268.5 402,-268.5"/>
<text text-anchor="middle" x="450" y="-276.5" font-family="Helvetica,sans-Serif" font-size="10.00">std::list&lt; node_t &gt;</text>
</g>
<!-- Node3&#45;&gt;Node2 -->
<g id="edge4" class="edge"><title>Node3&#45;&gt;Node2</title>
<path fill="none" stroke="#9a32cd" stroke-dasharray="5,2" d="M508.247,-278.617C531.777,-278.336 559.187,-277.847 584,-277 767.265,-270.742 817.42,-296.647 996,-255 1013.77,-250.856 1032.72,-242.462 1046.42,-235.604"/>
<polygon fill="#9a32cd" stroke="#9a32cd" points="508.038,-275.119 498.077,-278.729 508.115,-282.119 508.038,-275.119"/>
<text text-anchor="middle" x="769" y="-283" font-family="Helvetica,sans-Serif" font-size="10.00"> daughters</text>
</g>
<!-- Node5 -->
<g id="node8" class="node"><title>Node5</title>
<a xlink:href="classant_1_1_tree.html" target="_top" xlink:title="ant::Tree\&lt; T \&gt;">
<polygon fill="white" stroke="black" points="625,-234.5 625,-255.5 705,-255.5 705,-234.5 625,-234.5"/>
<text text-anchor="middle" x="665" y="-242.5" font-family="Helvetica,sans-Serif" font-size="10.00">ant::Tree&lt; T &gt;</text>
</a>
</g>
<!-- Node3&#45;&gt;Node5 -->
<g id="edge10" class="edge"><title>Node3&#45;&gt;Node5</title>
<path fill="none" stroke="#9a32cd" stroke-dasharray="5,2" d="M508.506,-268.856C518.346,-267.199 528.459,-265.527 538,-264 567.058,-259.35 599.916,-254.444 624.929,-250.782"/>
<polygon fill="#9a32cd" stroke="#9a32cd" points="507.66,-265.45 498.385,-270.571 508.829,-272.351 507.66,-265.45"/>
<text text-anchor="middle" x="561" y="-268" font-family="Helvetica,sans-Serif" font-size="10.00"> daughters</text>
</g>
<!-- Node4 -->
<g id="node6" class="node"><title>Node4</title>
<polygon fill="white" stroke="#bfbfbf" points="810.5,-214.5 810.5,-235.5 923.5,-235.5 923.5,-214.5 810.5,-214.5"/>
<text text-anchor="middle" x="867" y="-222.5" font-family="Helvetica,sans-Serif" font-size="10.00">std::weak_ptr&lt; Tree &gt;</text>
</g>
<!-- Node4&#45;&gt;Node2 -->
<g id="edge6" class="edge"><title>Node4&#45;&gt;Node2</title>
<path fill="none" stroke="#9a32cd" stroke-dasharray="5,2" d="M933.993,-225C960.191,-225 989.765,-225 1014.27,-225"/>
<polygon fill="#9a32cd" stroke="#9a32cd" points="933.759,-221.5 923.759,-225 933.759,-228.5 933.759,-221.5"/>
<text text-anchor="middle" x="969" y="-242" font-family="Helvetica,sans-Serif" font-size="10.00"> parent</text>
<text text-anchor="middle" x="969" y="-229" font-family="Helvetica,sans-Serif" font-size="10.00">self</text>
</g>
<!-- Node4&#45;&gt;Node5 -->
<g id="edge12" class="edge"><title>Node4&#45;&gt;Node5</title>
<path fill="none" stroke="#9a32cd" stroke-dasharray="5,2" d="M837.667,-210.322C812.549,-199.861 775.823,-189.647 746,-202 735.547,-206.33 737.454,-213.785 728,-220 719.151,-225.818 708.737,-230.635 698.953,-234.436"/>
<polygon fill="#9a32cd" stroke="#9a32cd" points="836.451,-213.611 847.012,-214.449 839.278,-207.208 836.451,-213.611"/>
<text text-anchor="middle" x="769" y="-219" font-family="Helvetica,sans-Serif" font-size="10.00"> parent</text>
<text text-anchor="middle" x="769" y="-206" font-family="Helvetica,sans-Serif" font-size="10.00">self</text>
</g>
<!-- Node5&#45;&gt;Node4 -->
<g id="edge8" class="edge"><title>Node5&#45;&gt;Node4</title>
<path fill="none" stroke="#9a32cd" stroke-dasharray="5,2" d="M715.635,-239.987C744.404,-237.138 780.502,-233.564 810.229,-230.621"/>
<polygon fill="#9a32cd" stroke="#9a32cd" points="714.999,-236.532 705.392,-241.001 715.688,-243.498 714.999,-236.532"/>
<text text-anchor="middle" x="769" y="-240" font-family="Helvetica,sans-Serif" font-size="10.00"> ptr</text>
</g>
<!-- Node6 -->
<g id="node12" class="node"><title>Node6</title>
<polygon fill="white" stroke="#bfbfbf" points="435.5,-216.5 435.5,-237.5 464.5,-237.5 464.5,-216.5 435.5,-216.5"/>
<text text-anchor="middle" x="450" y="-224.5" font-family="Helvetica,sans-Serif" font-size="10.00">T</text>
</g>
<!-- Node6&#45;&gt;Node5 -->
<g id="edge14" class="edge"><title>Node6&#45;&gt;Node5</title>
<path fill="none" stroke="#9a32cd" stroke-dasharray="5,2" d="M474.607,-225.72C501.548,-224.66 545.983,-223.91 584,-228 597.429,-229.445 611.917,-232.121 624.876,-234.929"/>
<polygon fill="#9a32cd" stroke="#9a32cd" points="474.366,-222.227 464.529,-226.165 474.674,-229.221 474.366,-222.227"/>
<text text-anchor="middle" x="561" y="-232" font-family="Helvetica,sans-Serif" font-size="10.00"> data</text>
</g>
<!-- Node7 -->
<g id="node14" class="node"><title>Node7</title>
<a xlink:href="classant_1_1analysis_1_1utils_1_1_tree_fitter.html" target="_top" xlink:title="ant::analysis::utils\l::TreeFitter">
<polygon fill="white" stroke="black" points="1018,-84 1018,-118 1114,-118 1114,-84 1018,-84"/>
<text text-anchor="start" x="1026" y="-105" font-family="Helvetica,sans-Serif" font-size="10.00">ant::analysis::utils</text>
<text text-anchor="middle" x="1066" y="-92" font-family="Helvetica,sans-Serif" font-size="10.00">::TreeFitter</text>
</a>
</g>
<!-- Node7&#45;&gt;Node1 -->
<g id="edge16" class="edge"><title>Node7&#45;&gt;Node1</title>
<path fill="none" stroke="#9a32cd" stroke-dasharray="5,2" d="M1123.8,-120.76C1162.61,-134.03 1213.23,-151.335 1250.25,-163.991"/>
<polygon fill="#9a32cd" stroke="#9a32cd" points="1124.8,-117.402 1114.2,-117.479 1122.53,-124.026 1124.8,-117.402"/>
<text text-anchor="middle" x="1171" y="-152" font-family="Helvetica,sans-Serif" font-size="10.00"> treefitter</text>
</g>
<!-- Node8 -->
<g id="node16" class="node"><title>Node8</title>
<a xlink:href="classant_1_1analysis_1_1utils_1_1_kin_fitter.html" target="_top" xlink:title="ant::analysis::utils\l::KinFitter">
<polygon fill="white" stroke="black" points="819,-118 819,-152 915,-152 915,-118 819,-118"/>
<text text-anchor="start" x="827" y="-139" font-family="Helvetica,sans-Serif" font-size="10.00">ant::analysis::utils</text>
<text text-anchor="middle" x="867" y="-126" font-family="Helvetica,sans-Serif" font-size="10.00">::KinFitter</text>
</a>
</g>
<!-- Node8&#45;&gt;Node7 -->
<g id="edge18" class="edge"><title>Node8&#45;&gt;Node7</title>
<path fill="none" stroke="midnightblue" d="M925.323,-125.035C954.77,-120.004 990.059,-113.975 1017.93,-109.214"/>
<polygon fill="midnightblue" stroke="midnightblue" points="924.44,-121.635 915.172,-126.77 925.619,-128.535 924.44,-121.635"/>
</g>
<!-- Node9 -->
<g id="node18" class="node"><title>Node9</title>
<a xlink:href="classant_1_1analysis_1_1utils_1_1_fitter.html" target="_top" xlink:title="ant::analysis::utils\l::Fitter">
<polygon fill="white" stroke="black" points="617,-177 617,-211 713,-211 713,-177 617,-177"/>
<text text-anchor="start" x="625" y="-198" font-family="Helvetica,sans-Serif" font-size="10.00">ant::analysis::utils</text>
<text text-anchor="middle" x="665" y="-185" font-family="Helvetica,sans-Serif" font-size="10.00">::Fitter</text>
</a>
</g>
<!-- Node9&#45;&gt;Node8 -->
<g id="edge20" class="edge"><title>Node9&#45;&gt;Node8</title>
<path fill="none" stroke="midnightblue" d="M722.758,-177.13C753.176,-168.246 790.043,-157.477 818.892,-149.051"/>
<polygon fill="midnightblue" stroke="midnightblue" points="721.745,-173.78 713.127,-179.943 723.708,-180.499 721.745,-173.78"/>
</g>
<!-- Node10 -->
<g id="node20" class="node"><title>Node10</title>
<polygon fill="white" stroke="#bfbfbf" points="380,-176.5 380,-197.5 520,-197.5 520,-176.5 380,-176.5"/>
<text text-anchor="middle" x="450" y="-184.5" font-family="Helvetica,sans-Serif" font-size="10.00">std::unique_ptr&lt; APLCON &gt;</text>
</g>
<!-- Node10&#45;&gt;Node9 -->
<g id="edge22" class="edge"><title>Node10&#45;&gt;Node9</title>
<path fill="none" stroke="#9a32cd" stroke-dasharray="5,2" d="M530.254,-189.613C559.336,-190.56 591.267,-191.599 616.742,-192.429"/>
<polygon fill="#9a32cd" stroke="#9a32cd" points="530.21,-186.11 520.102,-189.282 529.982,-193.106 530.21,-186.11"/>
<text text-anchor="middle" x="561" y="-195" font-family="Helvetica,sans-Serif" font-size="10.00"> aplcon</text>
</g>
<!-- Node11 -->
<g id="node22" class="node"><title>Node11</title>
<polygon fill="white" stroke="#bfbfbf" points="602.5,-111.5 602.5,-158.5 727.5,-158.5 727.5,-111.5 602.5,-111.5"/>
<text text-anchor="start" x="610.5" y="-145.5" font-family="Helvetica,sans-Serif" font-size="10.00">std::unique_ptr&lt; ant</text>
<text text-anchor="start" x="610.5" y="-132.5" font-family="Helvetica,sans-Serif" font-size="10.00">::analysis::utils::KinFitter</text>
<text text-anchor="middle" x="665" y="-119.5" font-family="Helvetica,sans-Serif" font-size="10.00">::BeamE_t &gt;</text>
</g>
<!-- Node11&#45;&gt;Node8 -->
<g id="edge24" class="edge"><title>Node11&#45;&gt;Node8</title>
<path fill="none" stroke="#9a32cd" stroke-dasharray="5,2" d="M737.712,-135C764.698,-135 794.615,-135 818.868,-135"/>
<polygon fill="#9a32cd" stroke="#9a32cd" points="737.531,-131.5 727.531,-135 737.531,-138.5 737.531,-131.5"/>
<text text-anchor="middle" x="769" y="-139" font-family="Helvetica,sans-Serif" font-size="10.00"> BeamE</text>
</g>
<!-- Node12 -->
<g id="node24" class="node"><title>Node12</title>
<a xlink:href="structant_1_1analysis_1_1utils_1_1_kin_fitter_1_1_beam_e__t.html" target="_top" xlink:title="ant::analysis::utils\l::KinFitter::BeamE_t">
<polygon fill="white" stroke="black" points="397,-118 397,-152 503,-152 503,-118 397,-118"/>
<text text-anchor="start" x="405" y="-139" font-family="Helvetica,sans-Serif" font-size="10.00">ant::analysis::utils</text>
<text text-anchor="middle" x="450" y="-126" font-family="Helvetica,sans-Serif" font-size="10.00">::KinFitter::BeamE_t</text>
</a>
</g>
<!-- Node12&#45;&gt;Node11 -->
<g id="edge26" class="edge"><title>Node12&#45;&gt;Node11</title>
<path fill="none" stroke="#9a32cd" stroke-dasharray="5,2" d="M513.236,-135C541.269,-135 574.168,-135 602.156,-135"/>
<polygon fill="#9a32cd" stroke="#9a32cd" points="513.146,-131.5 503.146,-135 513.146,-138.5 513.146,-131.5"/>
<text text-anchor="middle" x="561" y="-139" font-family="Helvetica,sans-Serif" font-size="10.00"> ptr</text>
</g>
<!-- Node13 -->
<g id="node26" class="node"><title>Node13</title>
<a xlink:href="structant_1_1analysis_1_1utils_1_1_fitter_1_1_fit_variable.html" target="_top" xlink:title="ant::analysis::utils\l::Fitter::FitVariable">
<polygon fill="white" stroke="black" points="198,-136 198,-170 296,-170 296,-136 198,-136"/>
<text text-anchor="start" x="206" y="-157" font-family="Helvetica,sans-Serif" font-size="10.00">ant::analysis::utils</text>
<text text-anchor="middle" x="247" y="-144" font-family="Helvetica,sans-Serif" font-size="10.00">::Fitter::FitVariable</text>
</a>
</g>
<!-- Node13&#45;&gt;Node12 -->
<g id="edge28" class="edge"><title>Node13&#45;&gt;Node12</title>
<path fill="none" stroke="midnightblue" d="M306.401,-147.733C334.972,-145.2 368.953,-142.186 396.685,-139.727"/>
<polygon fill="midnightblue" stroke="midnightblue" points="305.792,-144.273 296.141,-148.643 306.411,-151.246 305.792,-144.273"/>
</g>
<!-- Node14 -->
<g id="node28" class="node"><title>Node14</title>
<a xlink:title="STL class. ">
<polygon fill="white" stroke="#bfbfbf" points="217,-96.5 217,-117.5 277,-117.5 277,-96.5 217,-96.5"/>
<text text-anchor="middle" x="247" y="-104.5" font-family="Helvetica,sans-Serif" font-size="10.00">std::string</text>
</a>
</g>
<!-- Node14&#45;&gt;Node12 -->
<g id="edge30" class="edge"><title>Node14&#45;&gt;Node12</title>
<path fill="none" stroke="#9a32cd" stroke-dasharray="5,2" d="M287.533,-112.591C318.93,-116.921 362.691,-122.957 396.887,-127.674"/>
<polygon fill="#9a32cd" stroke="#9a32cd" points="287.776,-109.091 277.391,-111.192 286.819,-116.026 287.776,-109.091"/>
<text text-anchor="middle" x="340" y="-126" font-family="Helvetica,sans-Serif" font-size="10.00"> Name</text>
</g>
<!-- Node15 -->
<g id="node30" class="node"><title>Node15</title>
<a xlink:title="STL class. ">
<polygon fill="white" stroke="#bfbfbf" points="12.5,-90 12.5,-124 107.5,-124 107.5,-90 12.5,-90"/>
<text text-anchor="start" x="20.5" y="-111" font-family="Helvetica,sans-Serif" font-size="10.00">std::basic_string&lt;</text>
<text text-anchor="middle" x="60" y="-98" font-family="Helvetica,sans-Serif" font-size="10.00"> char &gt;</text>
</a>
</g>
<!-- Node15&#45;&gt;Node14 -->
<g id="edge32" class="edge"><title>Node15&#45;&gt;Node14</title>
<path fill="none" stroke="midnightblue" d="M118.043,-107C150.8,-107 190.374,-107 216.97,-107"/>
<polygon fill="midnightblue" stroke="midnightblue" points="117.672,-103.5 107.672,-107 117.672,-110.5 117.672,-103.5"/>
</g>
<!-- Node16 -->
<g id="node32" class="node"><title>Node16</title>
<polygon fill="white" stroke="#bfbfbf" points="604.5,-59 604.5,-93 725.5,-93 725.5,-59 604.5,-59"/>
<text text-anchor="start" x="612.5" y="-80" font-family="Helvetica,sans-Serif" font-size="10.00">std::vector&lt; std::shared</text>
<text text-anchor="middle" x="665" y="-67" font-family="Helvetica,sans-Serif" font-size="10.00">_ptr&lt; FitParticle &gt; &gt;</text>
</g>
<!-- Node16&#45;&gt;Node8 -->
<g id="edge34" class="edge"><title>Node16&#45;&gt;Node8</title>
<path fill="none" stroke="#9a32cd" stroke-dasharray="5,2" d="M733.204,-95.9211C761.344,-104.14 793.293,-113.472 818.913,-120.955"/>
<polygon fill="#9a32cd" stroke="#9a32cd" points="734.007,-92.5093 723.427,-93.0652 732.044,-99.2286 734.007,-92.5093"/>
<text text-anchor="middle" x="769" y="-116" font-family="Helvetica,sans-Serif" font-size="10.00"> Photons</text>
</g>
<!-- Node17 -->
<g id="node34" class="node"><title>Node17</title>
<polygon fill="white" stroke="#bfbfbf" points="814,-78.5 814,-99.5 920,-99.5 920,-78.5 814,-78.5"/>
<text text-anchor="middle" x="867" y="-86.5" font-family="Helvetica,sans-Serif" font-size="10.00">std::vector&lt; tree_t &gt;</text>
</g>
<!-- Node17&#45;&gt;Node7 -->
<g id="edge36" class="edge"><title>Node17&#45;&gt;Node7</title>
<path fill="none" stroke="#9a32cd" stroke-dasharray="5,2" d="M930.288,-92.8163C958.644,-94.5262 991.543,-96.5101 1017.85,-98.0963"/>
<polygon fill="#9a32cd" stroke="#9a32cd" points="930.26,-89.3084 920.067,-92.2 929.838,-96.2957 930.26,-89.3084"/>
<text text-anchor="middle" x="969" y="-100" font-family="Helvetica,sans-Serif" font-size="10.00"> tree_leaves</text>
</g>
<!-- Node18 -->
<g id="node36" class="node"><title>Node18</title>
<polygon fill="white" stroke="#bfbfbf" points="812,-30.5 812,-51.5 922,-51.5 922,-30.5 812,-30.5"/>
<text text-anchor="middle" x="867" y="-38.5" font-family="Helvetica,sans-Serif" font-size="10.00">std::list&lt; iteration_t &gt;</text>
</g>
<!-- Node18&#45;&gt;Node7 -->
<g id="edge38" class="edge"><title>Node18&#45;&gt;Node7</title>
<path fill="none" stroke="#9a32cd" stroke-dasharray="5,2" d="M918.897,-54.0917C942.541,-60.3092 970.814,-68.099 996,-76 1003.76,-78.4335 1011.94,-81.1832 1019.86,-83.9463"/>
<polygon fill="#9a32cd" stroke="#9a32cd" points="919.629,-50.6657 909.07,-51.5276 917.862,-57.439 919.629,-50.6657"/>
<text text-anchor="middle" x="969" y="-80" font-family="Helvetica,sans-Serif" font-size="10.00"> iterations</text>
</g>
<!-- Node19 -->
<g id="node38" class="node"><title>Node19</title>
<a xlink:href="structant_1_1analysis_1_1utils_1_1_tree_fitter_1_1iteration__t.html" target="_top" xlink:title="ant::analysis::utils\l::TreeFitter::iteration_t">
<polygon fill="white" stroke="black" points="608.5,-7 608.5,-41 721.5,-41 721.5,-7 608.5,-7"/>
<text text-anchor="start" x="616.5" y="-28" font-family="Helvetica,sans-Serif" font-size="10.00">ant::analysis::utils</text>
<text text-anchor="middle" x="665" y="-15" font-family="Helvetica,sans-Serif" font-size="10.00">::TreeFitter::iteration_t</text>
</a>
</g>
<!-- Node19&#45;&gt;Node18 -->
<g id="edge40" class="edge"><title>Node19&#45;&gt;Node18</title>
<path fill="none" stroke="#9a32cd" stroke-dasharray="5,2" d="M731.687,-29.6122C757.678,-31.7997 787.111,-34.2767 811.872,-36.3606"/>
<polygon fill="#9a32cd" stroke="#9a32cd" points="731.795,-26.1091 721.537,-28.7581 731.208,-33.0844 731.795,-26.1091"/>
<text text-anchor="middle" x="769" y="-38" font-family="Helvetica,sans-Serif" font-size="10.00"> elements</text>
</g>
<!-- Node20 -->
<g id="node40" class="node"><title>Node20</title>
<polygon fill="white" stroke="#bfbfbf" points="385.5,-0.5 385.5,-47.5 514.5,-47.5 514.5,-0.5 385.5,-0.5"/>
<text text-anchor="start" x="393.5" y="-34.5" font-family="Helvetica,sans-Serif" font-size="10.00">std::vector&lt; ant::analysis</text>
<text text-anchor="start" x="393.5" y="-21.5" font-family="Helvetica,sans-Serif" font-size="10.00">::utils::TreeFitter::iteration</text>
<text text-anchor="middle" x="450" y="-8.5" font-family="Helvetica,sans-Serif" font-size="10.00">_t::particle_t &gt;</text>
</g>
<!-- Node20&#45;&gt;Node19 -->
<g id="edge42" class="edge"><title>Node20&#45;&gt;Node19</title>
<path fill="none" stroke="#9a32cd" stroke-dasharray="5,2" d="M524.824,-24C552.186,-24 582.669,-24 608.201,-24"/>
<polygon fill="#9a32cd" stroke="#9a32cd" points="524.507,-20.5001 514.507,-24 524.507,-27.5001 524.507,-20.5001"/>
<text text-anchor="middle" x="561" y="-28" font-family="Helvetica,sans-Serif" font-size="10.00"> Particles</text>
</g>
<!-- Node21 -->
<g id="node42" class="node"><title>Node21</title>
<a xlink:href="structant_1_1analysis_1_1utils_1_1_tree_fitter_1_1iteration__t_1_1particle__t.html" target="_top" xlink:title="ant::analysis::utils\l::TreeFitter::iteration\l_t::particle_t">
<polygon fill="white" stroke="black" points="194.5,-0.5 194.5,-47.5 299.5,-47.5 299.5,-0.5 194.5,-0.5"/>
<text text-anchor="start" x="202.5" y="-34.5" font-family="Helvetica,sans-Serif" font-size="10.00">ant::analysis::utils</text>
<text text-anchor="start" x="202.5" y="-21.5" font-family="Helvetica,sans-Serif" font-size="10.00">::TreeFitter::iteration</text>
<text text-anchor="middle" x="247" y="-8.5" font-family="Helvetica,sans-Serif" font-size="10.00">_t::particle_t</text>
</a>
</g>
<!-- Node21&#45;&gt;Node20 -->
<g id="edge44" class="edge"><title>Node21&#45;&gt;Node20</title>
<path fill="none" stroke="#9a32cd" stroke-dasharray="5,2" d="M309.614,-24C333.653,-24 361.119,-24 385.345,-24"/>
<polygon fill="#9a32cd" stroke="#9a32cd" points="309.542,-20.5001 299.542,-24 309.542,-27.5001 309.542,-20.5001"/>
<text text-anchor="middle" x="340" y="-28" font-family="Helvetica,sans-Serif" font-size="10.00"> elements</text>
</g>
<!-- Node22 -->
<g id="node44" class="node"><title>Node22</title>
<a xlink:href="structant_1_1std__ext_1_1cc__shared__ptr.html" target="_top" xlink:title="ant::std_ext::cc_shared\l_ptr\&lt; TParticle \&gt;">
<polygon fill="white" stroke="black" points="0.5,-7 0.5,-41 119.5,-41 119.5,-7 0.5,-7"/>
<text text-anchor="start" x="8.5" y="-28" font-family="Helvetica,sans-Serif" font-size="10.00">ant::std_ext::cc_shared</text>
<text text-anchor="middle" x="60" y="-15" font-family="Helvetica,sans-Serif" font-size="10.00">_ptr&lt; TParticle &gt;</text>
</a>
</g>
<!-- Node22&#45;&gt;Node21 -->
<g id="edge46" class="edge"><title>Node22&#45;&gt;Node21</title>
<path fill="none" stroke="#9a32cd" stroke-dasharray="5,2" d="M129.965,-24C151.239,-24 174.251,-24 194.194,-24"/>
<polygon fill="#9a32cd" stroke="#9a32cd" points="129.682,-20.5001 119.682,-24 129.682,-27.5001 129.682,-20.5001"/>
<text text-anchor="middle" x="157" y="-28" font-family="Helvetica,sans-Serif" font-size="10.00"> Particle</text>
</g>
</g>
</svg>
