<?xml version="1.0" encoding="UTF-8" standalone="no"?>
<!DOCTYPE svg PUBLIC "-//W3C//DTD SVG 1.1//EN"
 "http://www.w3.org/Graphics/SVG/1.1/DTD/svg11.dtd">
<!-- Generated by graphviz version 2.26.3 (20100126.1600)
 -->
<!-- Title: ant::calibration::DataBase::OnDiskLayout::Range_t Pages: 1 -->
<svg width="233pt" height="274pt"
 viewBox="0.00 0.00 233.00 274.00" xmlns="http://www.w3.org/2000/svg" xmlns:xlink="http://www.w3.org/1999/xlink">
<g id="graph1" class="graph" transform="scale(1 1) rotate(0) translate(4 270)">
<title>ant::calibration::DataBase::OnDiskLayout::Range_t</title>
<polygon fill="white" stroke="white" points="-4,5 -4,-270 230,-270 230,5 -4,5"/>
<!-- Node1 -->
<g id="node1" class="node"><title>Node1</title>
<polygon fill="#bfbfbf" stroke="black" points="71,-1 71,-35 201,-35 201,-1 71,-1"/>
<text text-anchor="start" x="79" y="-22" font-family="Helvetica,sans-Serif" font-size="10.00">ant::calibration::DataBase</text>
<text text-anchor="middle" x="136" y="-9" font-family="Helvetica,sans-Serif" font-size="10.00">::OnDiskLayout::Range_t</text>
</g>
<!-- Node2 -->
<g id="node2" class="node"><title>Node2</title>
<a xlink:href="classant_1_1interval.html" target="_top" xlink:title="ant::interval\&lt; TID \&gt;">
<polygon fill="white" stroke="black" points="28,-86.5 28,-107.5 130,-107.5 130,-86.5 28,-86.5"/>
<text text-anchor="middle" x="79" y="-94.5" font-family="Helvetica,sans-Serif" font-size="10.00">ant::interval&lt; TID &gt;</text>
</a>
</g>
<!-- Node2&#45;&gt;Node1 -->
<g id="edge2" class="edge"><title>Node2&#45;&gt;Node1</title>
<path fill="none" stroke="midnightblue" d="M92.6555,-78.074C102.082,-65.0096 114.513,-47.7798 123.645,-35.1236"/>
<polygon fill="midnightblue" stroke="midnightblue" points="89.7001,-76.1883 86.6873,-86.3457 95.3768,-80.2841 89.7001,-76.1883"/>
</g>
<!-- Node3 -->
<g id="node4" class="node"><title>Node3</title>
<a xlink:href="classant_1_1printable__traits.html" target="_top" xlink:title="ant::printable_traits">
<polygon fill="white" stroke="black" points="0,-244.5 0,-265.5 100,-265.5 100,-244.5 0,-244.5"/>
<text text-anchor="middle" x="50" y="-252.5" font-family="Helvetica,sans-Serif" font-size="10.00">ant::printable_traits</text>
</a>
</g>
<!-- Node3&#45;&gt;Node2 -->
<g id="edge4" class="edge"><title>Node3&#45;&gt;Node2</title>
<path fill="none" stroke="midnightblue" d="M47.8419,-234.287C46.5482,-216.948 45.8592,-191.639 50,-170 54.4084,-146.962 65.9841,-121.928 73.106,-107.98"/>
<polygon fill="midnightblue" stroke="midnightblue" points="44.3697,-234.758 48.7347,-244.411 51.3426,-234.143 44.3697,-234.758"/>
</g>
<!-- Node4 -->
<g id="node6" class="node"><title>Node4</title>
<a xlink:href="structant_1_1_t_i_d.html" target="_top" xlink:title="ant::TID">
<polygon fill="white" stroke="black" points="58.5,-177.5 58.5,-198.5 111.5,-198.5 111.5,-177.5 58.5,-177.5"/>
<text text-anchor="middle" x="85" y="-185.5" font-family="Helvetica,sans-Serif" font-size="10.00">ant::TID</text>
</a>
</g>
<!-- Node3&#45;&gt;Node4 -->
<g id="edge8" class="edge"><title>Node3&#45;&gt;Node4</title>
<path fill="none" stroke="midnightblue" d="M60.2655,-235.349C66.5584,-223.302 74.3661,-208.356 79.506,-198.517"/>
<polygon fill="midnightblue" stroke="midnightblue" points="57.1514,-233.751 55.6234,-244.235 63.3558,-236.992 57.1514,-233.751"/>
</g>
<!-- Node4&#45;&gt;Node2 -->
<g id="edge6" class="edge"><title>Node4&#45;&gt;Node2</title>
<path fill="none" stroke="#9a32cd" stroke-dasharray="5,2" d="M83.6186,-167.049C82.3912,-148.433 80.6478,-121.991 79.6924,-107.501"/>
<polygon fill="#9a32cd" stroke="#9a32cd" points="80.1377,-167.456 84.2882,-177.204 87.1226,-166.995 80.1377,-167.456"/>
<text text-anchor="middle" x="97" y="-143" font-family="Helvetica,sans-Serif" font-size="10.00"> _start</text>
<text text-anchor="middle" x="97" y="-130" font-family="Helvetica,sans-Serif" font-size="10.00">_stop</text>
</g>
<!-- Node5 -->
<g id="node9" class="node"><title>Node5</title>
<a xlink:title="STL class. ">
<polygon fill="white" stroke="#bfbfbf" points="148,-86.5 148,-107.5 208,-107.5 208,-86.5 148,-86.5"/>
<text text-anchor="middle" x="178" y="-94.5" font-family="Helvetica,sans-Serif" font-size="10.00">std::string</text>
</a>
</g>
<!-- Node5&#45;&gt;Node1 -->
<g id="edge10" class="edge"><title>Node5&#45;&gt;Node1</title>
<path fill="none" stroke="#9a32cd" stroke-dasharray="5,2" d="M167.535,-77.3157C160.641,-64.3486 151.703,-47.5364 145.104,-35.1236"/>
<polygon fill="#9a32cd" stroke="#9a32cd" points="164.551,-79.159 172.336,-86.3457 170.732,-75.873 164.551,-79.159"/>
<text text-anchor="middle" x="186.5" y="-58.5" font-family="Helvetica,sans-Serif" font-size="10.00"> FolderPath</text>
</g>
<!-- Node6 -->
<g id="node11" class="node"><title>Node6</title>
<a xlink:title="STL class. ">
<polygon fill="white" stroke="#bfbfbf" points="130.5,-171 130.5,-205 225.5,-205 225.5,-171 130.5,-171"/>
<text text-anchor="start" x="138.5" y="-192" font-family="Helvetica,sans-Serif" font-size="10.00">std::basic_string&lt;</text>
<text text-anchor="middle" x="178" y="-179" font-family="Helvetica,sans-Serif" font-size="10.00"> char &gt;</text>
</a>
</g>
<!-- Node6&#45;&gt;Node5 -->
<g id="edge12" class="edge"><title>Node6&#45;&gt;Node5</title>
<path fill="none" stroke="midnightblue" d="M178,-160.712C178,-142.817 178,-120.422 178,-107.51"/>
<polygon fill="midnightblue" stroke="midnightblue" points="174.5,-160.884 178,-170.884 181.5,-160.884 174.5,-160.884"/>
</g>
</g>
</svg>
