<?xml version="1.0" encoding="UTF-8" standalone="no"?>
<!DOCTYPE svg PUBLIC "-//W3C//DTD SVG 1.1//EN"
 "http://www.w3.org/Graphics/SVG/1.1/DTD/svg11.dtd">
<!-- Generated by graphviz version 2.26.3 (20100126.1600)
 -->
<!-- Title: ant::mc::pluto::ParticleData Pages: 1 -->
<svg width="144pt" height="114pt"
 viewBox="0.00 0.00 144.00 114.00" xmlns="http://www.w3.org/2000/svg" xmlns:xlink="http://www.w3.org/1999/xlink">
<g id="graph1" class="graph" transform="scale(1 1) rotate(0) translate(4 110)">
<title>ant::mc::pluto::ParticleData</title>
<polygon fill="white" stroke="white" points="-4,5 -4,-110 141,-110 141,5 -4,5"/>
<!-- Node1 -->
<g id="node1" class="node"><title>Node1</title>
<polygon fill="#bfbfbf" stroke="black" points="-0.5,-0.5 -0.5,-21.5 136.5,-21.5 136.5,-0.5 -0.5,-0.5"/>
<text text-anchor="middle" x="68" y="-8.5" font-family="Helvetica,sans-Serif" font-size="10.00">ant::mc::pluto::ParticleData</text>
</g>
<!-- Node2 -->
<g id="node2" class="node"><title>Node2</title>
<polygon fill="white" stroke="#bfbfbf" points="13,-84.5 13,-105.5 123,-105.5 123,-84.5 13,-84.5"/>
<text text-anchor="middle" x="68" y="-92.5" font-family="Helvetica,sans-Serif" font-size="10.00">std::vector&lt; double &gt;</text>
</g>
<!-- Node2&#45;&gt;Node1 -->
<g id="edge2" class="edge"><title>Node2&#45;&gt;Node1</title>
<path fill="none" stroke="#9a32cd" stroke-dasharray="5,2" d="M68,-73.9452C68,-57.2568 68,-34.6387 68,-21.5523"/>
<polygon fill="#9a32cd" stroke="#9a32cd" points="64.5001,-74.3613 68,-84.3613 71.5001,-74.3614 64.5001,-74.3613"/>
<text text-anchor="middle" x="90" y="-57" font-family="Helvetica,sans-Serif" font-size="10.00"> Energies</text>
<text text-anchor="middle" x="90" y="-44" font-family="Helvetica,sans-Serif" font-size="10.00">Xsections</text>
</g>
</g>
</svg>
