<?xml version="1.0" encoding="UTF-8" standalone="no"?>
<!DOCTYPE svg PUBLIC "-//W3C//DTD SVG 1.1//EN"
 "http://www.w3.org/Graphics/SVG/1.1/DTD/svg11.dtd">
<!-- Generated by graphviz version 2.26.3 (20100126.1600)
 -->
<!-- Title: ant::expconfig::detector::TAPSVeto_2013 Pages: 1 -->
<svg width="245pt" height="232pt"
 viewBox="0.00 0.00 245.00 232.00" xmlns="http://www.w3.org/2000/svg" xmlns:xlink="http://www.w3.org/1999/xlink">
<g id="graph1" class="graph" transform="scale(1 1) rotate(0) translate(4 228)">
<title>ant::expconfig::detector::TAPSVeto_2013</title>
<polygon fill="white" stroke="white" points="-4,5 -4,-228 242,-228 242,5 -4,5"/>
<!-- Node1 -->
<g id="node1" class="node"><title>Node1</title>
<polygon fill="#bfbfbf" stroke="black" points="51.5,-1 51.5,-35 170.5,-35 170.5,-1 51.5,-1"/>
<text text-anchor="start" x="59.5" y="-22" font-family="Helvetica,sans-Serif" font-size="10.00">ant::expconfig::detector</text>
<text text-anchor="middle" x="111" y="-9" font-family="Helvetica,sans-Serif" font-size="10.00">::TAPSVeto_2013</text>
</g>
<!-- Node2 -->
<g id="node2" class="node"><title>Node2</title>
<a xlink:href="structant_1_1expconfig_1_1detector_1_1_t_a_p_s_veto.html" target="_top" xlink:title="ant::expconfig::detector\l::TAPSVeto">
<polygon fill="white" stroke="black" points="51.5,-73 51.5,-107 170.5,-107 170.5,-73 51.5,-73"/>
<text text-anchor="start" x="59.5" y="-94" font-family="Helvetica,sans-Serif" font-size="10.00">ant::expconfig::detector</text>
<text text-anchor="middle" x="111" y="-81" font-family="Helvetica,sans-Serif" font-size="10.00">::TAPSVeto</text>
</a>
</g>
<!-- Node2&#45;&gt;Node1 -->
<g id="edge2" class="edge"><title>Node2&#45;&gt;Node1</title>
<path fill="none" stroke="midnightblue" d="M111,-62.7193C111,-53.572 111,-43.6255 111,-35.4407"/>
<polygon fill="midnightblue" stroke="midnightblue" points="107.5,-62.937 111,-72.937 114.5,-62.937 107.5,-62.937"/>
</g>
<!-- Node3 -->
<g id="node4" class="node"><title>Node3</title>
<a xlink:href="structant_1_1_detector__t.html" target="_top" xlink:title="The Detector_t struct is the minimal base class for all detectors. ">
<polygon fill="white" stroke="black" points="9,-144.5 9,-165.5 91,-165.5 91,-144.5 9,-144.5"/>
<text text-anchor="middle" x="50" y="-152.5" font-family="Helvetica,sans-Serif" font-size="10.00">ant::Detector_t</text>
</a>
</g>
<!-- Node3&#45;&gt;Node2 -->
<g id="edge4" class="edge"><title>Node3&#45;&gt;Node2</title>
<path fill="none" stroke="midnightblue" d="M67.1676,-136.707C75.878,-127.425 86.3946,-116.219 94.9431,-107.11"/>
<polygon fill="midnightblue" stroke="midnightblue" points="64.3639,-134.58 60.0729,-144.267 69.4682,-139.37 64.3639,-134.58"/>
</g>
<!-- Node4 -->
<g id="node6" class="node"><title>Node4</title>
<a xlink:href="classant_1_1printable__traits.html" target="_top" xlink:title="ant::printable_traits">
<polygon fill="white" stroke="black" points="0,-202.5 0,-223.5 100,-223.5 100,-202.5 0,-202.5"/>
<text text-anchor="middle" x="50" y="-210.5" font-family="Helvetica,sans-Serif" font-size="10.00">ant::printable_traits</text>
</a>
</g>
<!-- Node4&#45;&gt;Node3 -->
<g id="edge6" class="edge"><title>Node4&#45;&gt;Node3</title>
<path fill="none" stroke="midnightblue" d="M50,-192.191C50,-183.168 50,-172.994 50,-165.571"/>
<polygon fill="midnightblue" stroke="midnightblue" points="46.5001,-192.362 50,-202.362 53.5001,-192.362 46.5001,-192.362"/>
</g>
<!-- Node5 -->
<g id="node8" class="node"><title>Node5</title>
<a xlink:href="classant_1_1_unpacker_acqu_config.html" target="_top" xlink:title="ant::UnpackerAcquConfig">
<polygon fill="white" stroke="black" points="108.5,-144.5 108.5,-165.5 237.5,-165.5 237.5,-144.5 108.5,-144.5"/>
<text text-anchor="middle" x="173" y="-152.5" font-family="Helvetica,sans-Serif" font-size="10.00">ant::UnpackerAcquConfig</text>
</a>
</g>
<!-- Node5&#45;&gt;Node2 -->
<g id="edge8" class="edge"><title>Node5&#45;&gt;Node2</title>
<path fill="none" stroke="midnightblue" d="M155.819,-136.987C146.914,-127.652 136.097,-116.311 127.32,-107.11"/>
<polygon fill="midnightblue" stroke="midnightblue" points="153.327,-139.446 162.762,-144.267 158.392,-134.615 153.327,-139.446"/>
</g>
</g>
</svg>
