<?xml version="1.0" encoding="UTF-8" standalone="no"?>
<!DOCTYPE svg PUBLIC "-//W3C//DTD SVG 1.1//EN"
 "http://www.w3.org/Graphics/SVG/1.1/DTD/svg11.dtd">
<!-- Generated by graphviz version 2.26.3 (20100126.1600)
 -->
<!-- Title: ant::TClusterHit Pages: 1 -->
<svg width="254pt" height="188pt"
 viewBox="0.00 0.00 254.00 188.00" xmlns="http://www.w3.org/2000/svg" xmlns:xlink="http://www.w3.org/1999/xlink">
<g id="graph1" class="graph" transform="scale(1 1) rotate(0) translate(4 184)">
<title>ant::TClusterHit</title>
<polygon fill="white" stroke="white" points="-4,5 -4,-184 251,-184 251,5 -4,5"/>
<!-- Node1 -->
<g id="node1" class="node"><title>Node1</title>
<polygon fill="#bfbfbf" stroke="black" points="48,-0.5 48,-21.5 134,-21.5 134,-0.5 48,-0.5"/>
<text text-anchor="middle" x="91" y="-8.5" font-family="Helvetica,sans-Serif" font-size="10.00">ant::TClusterHit</text>
</g>
<!-- Node2 -->
<g id="node2" class="node"><title>Node2</title>
<a xlink:href="classant_1_1printable__traits.html" target="_top" xlink:title="ant::printable_traits">
<polygon fill="white" stroke="black" points="0,-79.5 0,-100.5 100,-100.5 100,-79.5 0,-79.5"/>
<text text-anchor="middle" x="50" y="-87.5" font-family="Helvetica,sans-Serif" font-size="10.00">ant::printable_traits</text>
</a>
</g>
<!-- Node2&#45;&gt;Node1 -->
<g id="edge2" class="edge"><title>Node2&#45;&gt;Node1</title>
<path fill="none" stroke="midnightblue" d="M60.2934,-70.1664C68.2605,-54.8152 78.9889,-34.1434 85.4272,-21.7378"/>
<polygon fill="midnightblue" stroke="midnightblue" points="57.0294,-68.8576 55.5294,-79.3457 63.2425,-72.0821 57.0294,-68.8576"/>
</g>
<!-- Node3 -->
<g id="node4" class="node"><title>Node3</title>
<polygon fill="white" stroke="#bfbfbf" points="117.5,-73 117.5,-107 246.5,-107 246.5,-73 117.5,-73"/>
<text text-anchor="start" x="125.5" y="-94" font-family="Helvetica,sans-Serif" font-size="10.00">std::vector&lt; ant::TCluster</text>
<text text-anchor="middle" x="182" y="-81" font-family="Helvetica,sans-Serif" font-size="10.00">Hit::Datum &gt;</text>
</g>
<!-- Node3&#45;&gt;Node1 -->
<g id="edge4" class="edge"><title>Node3&#45;&gt;Node1</title>
<path fill="none" stroke="#9a32cd" stroke-dasharray="5,2" d="M154.246,-65.9058C137.179,-51.0897 116.163,-32.8445 103.172,-21.5672"/>
<polygon fill="#9a32cd" stroke="#9a32cd" points="152.408,-68.9455 162.254,-72.8582 156.997,-63.6595 152.408,-68.9455"/>
<text text-anchor="middle" x="151.5" y="-44.5" font-family="Helvetica,sans-Serif" font-size="10.00"> Data</text>
</g>
<!-- Node4 -->
<g id="node6" class="node"><title>Node4</title>
<a xlink:href="structant_1_1_t_cluster_hit_1_1_datum.html" target="_top" xlink:title="ant::TClusterHit::Datum">
<polygon fill="white" stroke="black" points="121,-158.5 121,-179.5 243,-179.5 243,-158.5 121,-158.5"/>
<text text-anchor="middle" x="182" y="-166.5" font-family="Helvetica,sans-Serif" font-size="10.00">ant::TClusterHit::Datum</text>
</a>
</g>
<!-- Node4&#45;&gt;Node3 -->
<g id="edge6" class="edge"><title>Node4&#45;&gt;Node3</title>
<path fill="none" stroke="#9a32cd" stroke-dasharray="5,2" d="M182,-148.162C182,-135.363 182,-119.171 182,-107.124"/>
<polygon fill="#9a32cd" stroke="#9a32cd" points="178.5,-148.346 182,-158.346 185.5,-148.346 178.5,-148.346"/>
<text text-anchor="middle" x="203.5" y="-130.5" font-family="Helvetica,sans-Serif" font-size="10.00"> elements</text>
</g>
</g>
</svg>
