<?xml version="1.0" encoding="UTF-8" standalone="no"?>
<!DOCTYPE svg PUBLIC "-//W3C//DTD SVG 1.1//EN"
 "http://www.w3.org/Graphics/SVG/1.1/DTD/svg11.dtd">
<!-- Generated by graphviz version 2.26.3 (20100126.1600)
 -->
<!-- Title: ant::expconfig::detector::TAPSVeto_2014 Pages: 1 -->
<svg width="245pt" height="304pt"
 viewBox="0.00 0.00 245.00 304.00" xmlns="http://www.w3.org/2000/svg" xmlns:xlink="http://www.w3.org/1999/xlink">
<g id="graph1" class="graph" transform="scale(1 1) rotate(0) translate(4 300)">
<title>ant::expconfig::detector::TAPSVeto_2014</title>
<polygon fill="white" stroke="white" points="-4,5 -4,-300 242,-300 242,5 -4,5"/>
<!-- Node1 -->
<g id="node1" class="node"><title>Node1</title>
<polygon fill="#bfbfbf" stroke="black" points="51.5,-1 51.5,-35 170.5,-35 170.5,-1 51.5,-1"/>
<text text-anchor="start" x="59.5" y="-22" font-family="Helvetica,sans-Serif" font-size="10.00">ant::expconfig::detector</text>
<text text-anchor="middle" x="111" y="-9" font-family="Helvetica,sans-Serif" font-size="10.00">::TAPSVeto_2014</text>
</g>
<!-- Node2 -->
<g id="node2" class="node"><title>Node2</title>
<a xlink:href="structant_1_1expconfig_1_1detector_1_1_t_a_p_s_veto__2013.html" target="_top" xlink:title="ant::expconfig::detector\l::TAPSVeto_2013">
<polygon fill="white" stroke="black" points="51.5,-73 51.5,-107 170.5,-107 170.5,-73 51.5,-73"/>
<text text-anchor="start" x="59.5" y="-94" font-family="Helvetica,sans-Serif" font-size="10.00">ant::expconfig::detector</text>
<text text-anchor="middle" x="111" y="-81" font-family="Helvetica,sans-Serif" font-size="10.00">::TAPSVeto_2013</text>
</a>
</g>
<!-- Node2&#45;&gt;Node1 -->
<g id="edge2" class="edge"><title>Node2&#45;&gt;Node1</title>
<path fill="none" stroke="midnightblue" d="M111,-62.7193C111,-53.572 111,-43.6255 111,-35.4407"/>
<polygon fill="midnightblue" stroke="midnightblue" points="107.5,-62.937 111,-72.937 114.5,-62.937 107.5,-62.937"/>
</g>
<!-- Node3 -->
<g id="node4" class="node"><title>Node3</title>
<a xlink:href="structant_1_1expconfig_1_1detector_1_1_t_a_p_s_veto.html" target="_top" xlink:title="ant::expconfig::detector\l::TAPSVeto">
<polygon fill="white" stroke="black" points="51.5,-145 51.5,-179 170.5,-179 170.5,-145 51.5,-145"/>
<text text-anchor="start" x="59.5" y="-166" font-family="Helvetica,sans-Serif" font-size="10.00">ant::expconfig::detector</text>
<text text-anchor="middle" x="111" y="-153" font-family="Helvetica,sans-Serif" font-size="10.00">::TAPSVeto</text>
</a>
</g>
<!-- Node3&#45;&gt;Node2 -->
<g id="edge4" class="edge"><title>Node3&#45;&gt;Node2</title>
<path fill="none" stroke="midnightblue" d="M111,-134.719C111,-125.572 111,-115.625 111,-107.441"/>
<polygon fill="midnightblue" stroke="midnightblue" points="107.5,-134.937 111,-144.937 114.5,-134.937 107.5,-134.937"/>
</g>
<!-- Node4 -->
<g id="node6" class="node"><title>Node4</title>
<a xlink:href="structant_1_1_detector__t.html" target="_top" xlink:title="The Detector_t struct is the minimal base class for all detectors. ">
<polygon fill="white" stroke="black" points="9,-216.5 9,-237.5 91,-237.5 91,-216.5 9,-216.5"/>
<text text-anchor="middle" x="50" y="-224.5" font-family="Helvetica,sans-Serif" font-size="10.00">ant::Detector_t</text>
</a>
</g>
<!-- Node4&#45;&gt;Node3 -->
<g id="edge6" class="edge"><title>Node4&#45;&gt;Node3</title>
<path fill="none" stroke="midnightblue" d="M67.1676,-208.707C75.878,-199.425 86.3946,-188.219 94.9431,-179.11"/>
<polygon fill="midnightblue" stroke="midnightblue" points="64.3639,-206.58 60.0729,-216.267 69.4682,-211.37 64.3639,-206.58"/>
</g>
<!-- Node5 -->
<g id="node8" class="node"><title>Node5</title>
<a xlink:href="classant_1_1printable__traits.html" target="_top" xlink:title="ant::printable_traits">
<polygon fill="white" stroke="black" points="0,-274.5 0,-295.5 100,-295.5 100,-274.5 0,-274.5"/>
<text text-anchor="middle" x="50" y="-282.5" font-family="Helvetica,sans-Serif" font-size="10.00">ant::printable_traits</text>
</a>
</g>
<!-- Node5&#45;&gt;Node4 -->
<g id="edge8" class="edge"><title>Node5&#45;&gt;Node4</title>
<path fill="none" stroke="midnightblue" d="M50,-264.191C50,-255.168 50,-244.994 50,-237.571"/>
<polygon fill="midnightblue" stroke="midnightblue" points="46.5001,-264.362 50,-274.362 53.5001,-264.362 46.5001,-264.362"/>
</g>
<!-- Node6 -->
<g id="node10" class="node"><title>Node6</title>
<a xlink:href="classant_1_1_unpacker_acqu_config.html" target="_top" xlink:title="ant::UnpackerAcquConfig">
<polygon fill="white" stroke="black" points="108.5,-216.5 108.5,-237.5 237.5,-237.5 237.5,-216.5 108.5,-216.5"/>
<text text-anchor="middle" x="173" y="-224.5" font-family="Helvetica,sans-Serif" font-size="10.00">ant::UnpackerAcquConfig</text>
</a>
</g>
<!-- Node6&#45;&gt;Node3 -->
<g id="edge10" class="edge"><title>Node6&#45;&gt;Node3</title>
<path fill="none" stroke="midnightblue" d="M155.819,-208.987C146.914,-199.652 136.097,-188.311 127.32,-179.11"/>
<polygon fill="midnightblue" stroke="midnightblue" points="153.327,-211.446 162.762,-216.267 158.392,-206.615 153.327,-211.446"/>
</g>
</g>
</svg>
