<?xml version="1.0" encoding="UTF-8" standalone="no"?>
<!DOCTYPE svg PUBLIC "-//W3C//DTD SVG 1.1//EN"
 "http://www.w3.org/Graphics/SVG/1.1/DTD/svg11.dtd">
<!-- Generated by graphviz version 2.26.3 (20100126.1600)
 -->
<!-- Title: ant::analysis::physics::EtapDalitz::SigTree_t Pages: 1 -->
<svg width="1258pt" height="146pt"
 viewBox="0.00 0.00 1258.00 146.00" xmlns="http://www.w3.org/2000/svg" xmlns:xlink="http://www.w3.org/1999/xlink">
<g id="graph1" class="graph" transform="scale(1 1) rotate(0) translate(4 142)">
<title>ant::analysis::physics::EtapDalitz::SigTree_t</title>
<polygon fill="white" stroke="white" points="-4,5 -4,-142 1255,-142 1255,5 -4,5"/>
<!-- Node1 -->
<g id="node1" class="node"><title>Node1</title>
<polygon fill="#bfbfbf" stroke="black" points="1134,-52 1134,-86 1250,-86 1250,-52 1134,-52"/>
<text text-anchor="start" x="1142" y="-73" font-family="Helvetica,sans-Serif" font-size="10.00">ant::analysis::physics</text>
<text text-anchor="middle" x="1192" y="-60" font-family="Helvetica,sans-Serif" font-size="10.00">::EtapDalitz::SigTree_t</text>
</g>
<!-- Node2 -->
<g id="node2" class="node"><title>Node2</title>
<a xlink:href="structant_1_1analysis_1_1physics_1_1_etap_dalitz_1_1common__tree.html" target="_top" xlink:title="ant::analysis::physics\l::EtapDalitz::common_tree">
<polygon fill="white" stroke="black" points="962,-104 962,-138 1096,-138 1096,-104 962,-104"/>
<text text-anchor="start" x="970" y="-125" font-family="Helvetica,sans-Serif" font-size="10.00">ant::analysis::physics</text>
<text text-anchor="middle" x="1029" y="-112" font-family="Helvetica,sans-Serif" font-size="10.00">::EtapDalitz::common_tree</text>
</a>
</g>
<!-- Node2&#45;&gt;Node1 -->
<g id="edge2" class="edge"><title>Node2&#45;&gt;Node1</title>
<path fill="none" stroke="midnightblue" d="M1092.26,-100.819C1107.54,-95.9438 1123.72,-90.7811 1138.51,-86.065"/>
<polygon fill="midnightblue" stroke="midnightblue" points="1090.84,-97.5995 1082.37,-103.973 1092.96,-104.268 1090.84,-97.5995"/>
</g>
<!-- Node3 -->
<g id="node4" class="node"><title>Node3</title>
<a xlink:href="structant_1_1_wrap_t_tree.html" target="_top" xlink:title="The WrapTTree struct simplifies TTree handling in physics classes. ">
<polygon fill="white" stroke="black" points="838.5,-58.5 838.5,-79.5 923.5,-79.5 923.5,-58.5 838.5,-58.5"/>
<text text-anchor="middle" x="881" y="-66.5" font-family="Helvetica,sans-Serif" font-size="10.00">ant::WrapTTree</text>
</a>
</g>
<!-- Node3&#45;&gt;Node2 -->
<g id="edge4" class="edge"><title>Node3&#45;&gt;Node2</title>
<path fill="none" stroke="midnightblue" d="M920.49,-82.875C938.914,-89.3482 961.015,-97.1134 980.45,-103.942"/>
<polygon fill="midnightblue" stroke="midnightblue" points="921.545,-79.5358 910.95,-79.523 919.224,-86.14 921.545,-79.5358"/>
</g>
<!-- Node9 -->
<g id="node16" class="node"><title>Node9</title>
<a xlink:href="structant_1_1analysis_1_1physics_1_1_etap_dalitz_1_1proton__tree.html" target="_top" xlink:title="ant::analysis::physics\l::EtapDalitz::proton_tree">
<polygon fill="white" stroke="black" points="967.5,-52 967.5,-86 1090.5,-86 1090.5,-52 967.5,-52"/>
<text text-anchor="start" x="975.5" y="-73" font-family="Helvetica,sans-Serif" font-size="10.00">ant::analysis::physics</text>
<text text-anchor="middle" x="1029" y="-60" font-family="Helvetica,sans-Serif" font-size="10.00">::EtapDalitz::proton_tree</text>
</a>
</g>
<!-- Node3&#45;&gt;Node9 -->
<g id="edge18" class="edge"><title>Node3&#45;&gt;Node9</title>
<path fill="none" stroke="midnightblue" d="M933.938,-69C944.748,-69 956.212,-69 967.298,-69"/>
<polygon fill="midnightblue" stroke="midnightblue" points="933.808,-65.5001 923.808,-69 933.808,-72.5001 933.808,-65.5001"/>
</g>
<!-- Node10 -->
<g id="node19" class="node"><title>Node10</title>
<a xlink:href="structant_1_1analysis_1_1physics_1_1_etap_dalitz_1_1fit__tree.html" target="_top" xlink:title="ant::analysis::physics\l::EtapDalitz::fit_tree">
<polygon fill="white" stroke="black" points="973,-0 973,-34 1085,-34 1085,-0 973,-0"/>
<text text-anchor="start" x="981" y="-21" font-family="Helvetica,sans-Serif" font-size="10.00">ant::analysis::physics</text>
<text text-anchor="middle" x="1029" y="-8" font-family="Helvetica,sans-Serif" font-size="10.00">::EtapDalitz::fit_tree</text>
</a>
</g>
<!-- Node3&#45;&gt;Node10 -->
<g id="edge22" class="edge"><title>Node3&#45;&gt;Node10</title>
<path fill="none" stroke="midnightblue" d="M920.49,-55.125C938.914,-48.6518 961.015,-40.8866 980.45,-34.0582"/>
<polygon fill="midnightblue" stroke="midnightblue" points="919.224,-51.86 910.95,-58.477 921.545,-58.4642 919.224,-51.86"/>
</g>
<!-- Node4 -->
<g id="node6" class="node"><title>Node4</title>
<polygon fill="white" stroke="#bfbfbf" points="618,-52 618,-86 758,-86 758,-52 618,-52"/>
<text text-anchor="start" x="626" y="-73" font-family="Helvetica,sans-Serif" font-size="10.00">std::vector&lt; ant::WrapTTree</text>
<text text-anchor="middle" x="688" y="-60" font-family="Helvetica,sans-Serif" font-size="10.00">::ROOT_branch_t &gt;</text>
</g>
<!-- Node4&#45;&gt;Node3 -->
<g id="edge6" class="edge"><title>Node4&#45;&gt;Node3</title>
<path fill="none" stroke="#9a32cd" stroke-dasharray="5,2" d="M768.407,-69C792.406,-69 817.771,-69 838.338,-69"/>
<polygon fill="#9a32cd" stroke="#9a32cd" points="768.223,-65.5001 758.223,-69 768.223,-72.5001 768.223,-65.5001"/>
<text text-anchor="middle" x="798" y="-73" font-family="Helvetica,sans-Serif" font-size="10.00"> branches</text>
</g>
<!-- Node5 -->
<g id="node8" class="node"><title>Node5</title>
<a xlink:href="structant_1_1_wrap_t_tree_1_1_r_o_o_t__branch__t.html" target="_top" xlink:title="ant::WrapTTree::ROOT\l_branch_t">
<polygon fill="white" stroke="black" points="418.5,-52 418.5,-86 537.5,-86 537.5,-52 418.5,-52"/>
<text text-anchor="start" x="426.5" y="-73" font-family="Helvetica,sans-Serif" font-size="10.00">ant::WrapTTree::ROOT</text>
<text text-anchor="middle" x="478" y="-60" font-family="Helvetica,sans-Serif" font-size="10.00">_branch_t</text>
</a>
</g>
<!-- Node5&#45;&gt;Node4 -->
<g id="edge8" class="edge"><title>Node5&#45;&gt;Node4</title>
<path fill="none" stroke="#9a32cd" stroke-dasharray="5,2" d="M547.776,-69C570.301,-69 595.273,-69 617.827,-69"/>
<polygon fill="#9a32cd" stroke="#9a32cd" points="547.616,-65.5001 537.616,-69 547.616,-72.5001 547.616,-65.5001"/>
<text text-anchor="middle" x="578" y="-73" font-family="Helvetica,sans-Serif" font-size="10.00"> elements</text>
</g>
<!-- Node6 -->
<g id="node10" class="node"><title>Node6</title>
<a xlink:href="structant_1_1_wrap_t_tree_1_1_r_o_o_t__branchinfo__t.html" target="_top" xlink:title="ant::WrapTTree::ROOT\l_branchinfo_t">
<polygon fill="white" stroke="black" points="260.5,-52 260.5,-86 379.5,-86 379.5,-52 260.5,-52"/>
<text text-anchor="start" x="268.5" y="-73" font-family="Helvetica,sans-Serif" font-size="10.00">ant::WrapTTree::ROOT</text>
<text text-anchor="middle" x="320" y="-60" font-family="Helvetica,sans-Serif" font-size="10.00">_branchinfo_t</text>
</a>
</g>
<!-- Node6&#45;&gt;Node5 -->
<g id="edge10" class="edge"><title>Node6&#45;&gt;Node5</title>
<path fill="none" stroke="midnightblue" d="M389.953,-69C399.46,-69 409.144,-69 418.445,-69"/>
<polygon fill="midnightblue" stroke="midnightblue" points="389.733,-65.5001 379.733,-69 389.733,-72.5001 389.733,-65.5001"/>
</g>
<!-- Node7 -->
<g id="node12" class="node"><title>Node7</title>
<a xlink:title="STL class. ">
<polygon fill="white" stroke="#bfbfbf" points="134,-58.5 134,-79.5 194,-79.5 194,-58.5 134,-58.5"/>
<text text-anchor="middle" x="164" y="-66.5" font-family="Helvetica,sans-Serif" font-size="10.00">std::string</text>
</a>
</g>
<!-- Node7&#45;&gt;Node6 -->
<g id="edge12" class="edge"><title>Node7&#45;&gt;Node6</title>
<path fill="none" stroke="#9a32cd" stroke-dasharray="5,2" d="M204.251,-69C221.314,-69 241.554,-69 260.3,-69"/>
<polygon fill="#9a32cd" stroke="#9a32cd" points="204.078,-65.5001 194.078,-69 204.078,-72.5001 204.078,-65.5001"/>
<text text-anchor="middle" x="227" y="-73" font-family="Helvetica,sans-Serif" font-size="10.00"> Name</text>
</g>
<!-- Node8 -->
<g id="node14" class="node"><title>Node8</title>
<a xlink:title="STL class. ">
<polygon fill="white" stroke="#bfbfbf" points="0.5,-52 0.5,-86 95.5,-86 95.5,-52 0.5,-52"/>
<text text-anchor="start" x="8.5" y="-73" font-family="Helvetica,sans-Serif" font-size="10.00">std::basic_string&lt;</text>
<text text-anchor="middle" x="48" y="-60" font-family="Helvetica,sans-Serif" font-size="10.00"> char &gt;</text>
</a>
</g>
<!-- Node8&#45;&gt;Node7 -->
<g id="edge14" class="edge"><title>Node8&#45;&gt;Node7</title>
<path fill="none" stroke="midnightblue" d="M105.582,-69C115.29,-69 125.014,-69 133.666,-69"/>
<polygon fill="midnightblue" stroke="midnightblue" points="105.516,-65.5001 95.5163,-69 105.516,-72.5001 105.516,-65.5001"/>
</g>
<!-- Node9&#45;&gt;Node1 -->
<g id="edge16" class="edge"><title>Node9&#45;&gt;Node1</title>
<path fill="none" stroke="midnightblue" d="M1100.69,-69C1111.76,-69 1123.07,-69 1133.79,-69"/>
<polygon fill="midnightblue" stroke="midnightblue" points="1100.62,-65.5001 1090.62,-69 1100.62,-72.5001 1100.62,-65.5001"/>
</g>
<!-- Node10&#45;&gt;Node1 -->
<g id="edge20" class="edge"><title>Node10&#45;&gt;Node1</title>
<path fill="none" stroke="midnightblue" d="M1092.26,-37.1812C1107.54,-42.0562 1123.72,-47.2189 1138.51,-51.935"/>
<polygon fill="midnightblue" stroke="midnightblue" points="1092.96,-33.7317 1082.37,-34.0267 1090.84,-40.4005 1092.96,-33.7317"/>
</g>
</g>
</svg>
