<?xml version="1.0" encoding="UTF-8" standalone="no"?>
<!DOCTYPE svg PUBLIC "-//W3C//DTD SVG 1.1//EN"
 "http://www.w3.org/Graphics/SVG/1.1/DTD/svg11.dtd">
<!-- Generated by graphviz version 2.26.3 (20100126.1600)
 -->
<!-- Title: ant::analysis::physics::triplePi0 Pages: 1 -->
<svg width="1828pt" height="481pt"
 viewBox="0.00 0.00 1828.00 481.00" xmlns="http://www.w3.org/2000/svg" xmlns:xlink="http://www.w3.org/1999/xlink">
<g id="graph1" class="graph" transform="scale(1 1) rotate(0) translate(4 477)">
<title>ant::analysis::physics::triplePi0</title>
<polygon fill="white" stroke="white" points="-4,5 -4,-477 1825,-477 1825,5 -4,5"/>
<!-- Node1 -->
<g id="node1" class="node"><title>Node1</title>
<polygon fill="#bfbfbf" stroke="black" points="1708,-233 1708,-267 1820,-267 1820,-233 1708,-233"/>
<text text-anchor="start" x="1716" y="-254" font-family="Helvetica,sans-Serif" font-size="10.00">ant::analysis::physics</text>
<text text-anchor="middle" x="1764" y="-241" font-family="Helvetica,sans-Serif" font-size="10.00">::triplePi0</text>
</g>
<!-- Node2 -->
<g id="node2" class="node"><title>Node2</title>
<a xlink:href="classant_1_1analysis_1_1_physics.html" target="_top" xlink:title="ant::analysis::Physics">
<polygon fill="white" stroke="black" points="1460.5,-426.5 1460.5,-447.5 1573.5,-447.5 1573.5,-426.5 1460.5,-426.5"/>
<text text-anchor="middle" x="1517" y="-434.5" font-family="Helvetica,sans-Serif" font-size="10.00">ant::analysis::Physics</text>
</a>
</g>
<!-- Node2&#45;&gt;Node1 -->
<g id="edge2" class="edge"><title>Node2&#45;&gt;Node1</title>
<path fill="none" stroke="midnightblue" d="M1583.74,-440.495C1618.53,-439.022 1659.97,-431.727 1690,-409 1737.1,-373.355 1755.31,-300.424 1761.37,-267.189"/>
<polygon fill="midnightblue" stroke="midnightblue" points="1583.55,-436.999 1573.65,-440.771 1583.74,-443.997 1583.55,-436.999"/>
</g>
<!-- Node3 -->
<g id="node4" class="node"><title>Node3</title>
<a xlink:href="classant_1_1analysis_1_1_histogram_factory.html" target="_top" xlink:title="ant::analysis::Histogram\lFactory">
<polygon fill="white" stroke="black" points="1222.5,-423 1222.5,-457 1345.5,-457 1345.5,-423 1222.5,-423"/>
<text text-anchor="start" x="1230.5" y="-444" font-family="Helvetica,sans-Serif" font-size="10.00">ant::analysis::Histogram</text>
<text text-anchor="middle" x="1284" y="-431" font-family="Helvetica,sans-Serif" font-size="10.00">Factory</text>
</a>
</g>
<!-- Node3&#45;&gt;Node2 -->
<g id="edge4" class="edge"><title>Node3&#45;&gt;Node2</title>
<path fill="none" stroke="#9a32cd" stroke-dasharray="5,2" d="M1355.75,-439.076C1389.37,-438.643 1428.85,-438.135 1460.33,-437.73"/>
<polygon fill="#9a32cd" stroke="#9a32cd" points="1355.48,-435.579 1345.52,-439.208 1355.57,-442.579 1355.48,-435.579"/>
<text text-anchor="middle" x="1399" y="-442" font-family="Helvetica,sans-Serif" font-size="10.00"> HistFac</text>
</g>
<!-- Node4 -->
<g id="node6" class="node"><title>Node4</title>
<a xlink:href="structant_1_1analysis_1_1physics_1_1triple_pi0_1_1settings__t.html" target="_top" xlink:title="ant::analysis::physics\l::triplePi0::settings_t">
<polygon fill="white" stroke="black" points="572,-378 572,-412 684,-412 684,-378 572,-378"/>
<text text-anchor="start" x="580" y="-399" font-family="Helvetica,sans-Serif" font-size="10.00">ant::analysis::physics</text>
<text text-anchor="middle" x="628" y="-386" font-family="Helvetica,sans-Serif" font-size="10.00">::triplePi0::settings_t</text>
</a>
</g>
<!-- Node4&#45;&gt;Node1 -->
<g id="edge6" class="edge"><title>Node4&#45;&gt;Node1</title>
<path fill="none" stroke="#9a32cd" stroke-dasharray="5,2" d="M694.368,-395C735.688,-395 789.938,-395 838,-395 838,-395 838,-395 1517,-395 1596.23,-395 1624.32,-396.303 1690,-352 1721.92,-330.469 1744.93,-290.332 1756.19,-267.349"/>
<polygon fill="#9a32cd" stroke="#9a32cd" points="694.153,-391.5 684.153,-395 694.153,-398.5 694.153,-391.5"/>
<text text-anchor="middle" x="1171" y="-399" font-family="Helvetica,sans-Serif" font-size="10.00"> phSettings</text>
</g>
<!-- Node5 -->
<g id="node8" class="node"><title>Node5</title>
<polygon fill="white" stroke="#bfbfbf" points="340,-365 340,-399 444,-399 444,-365 340,-365"/>
<text text-anchor="start" x="348" y="-386" font-family="Helvetica,sans-Serif" font-size="10.00">std::vector&lt; interval</text>
<text text-anchor="middle" x="392" y="-373" font-family="Helvetica,sans-Serif" font-size="10.00">&lt; double &gt; &gt;</text>
</g>
<!-- Node5&#45;&gt;Node4 -->
<g id="edge8" class="edge"><title>Node5&#45;&gt;Node4</title>
<path fill="none" stroke="#9a32cd" stroke-dasharray="5,2" d="M454.126,-385.422C490.665,-387.435 536.496,-389.96 571.93,-391.911"/>
<polygon fill="#9a32cd" stroke="#9a32cd" points="454.261,-381.924 444.083,-384.869 453.876,-388.914 454.261,-381.924"/>
<text text-anchor="middle" x="510" y="-394" font-family="Helvetica,sans-Serif" font-size="10.00"> Ranges_Random</text>
</g>
<!-- Node6 -->
<g id="node10" class="node"><title>Node6</title>
<a xlink:href="classant_1_1interval.html" target="_top" xlink:title="ant::interval\&lt; double \&gt;">
<polygon fill="white" stroke="black" points="138,-409.5 138,-430.5 252,-430.5 252,-409.5 138,-409.5"/>
<text text-anchor="middle" x="195" y="-417.5" font-family="Helvetica,sans-Serif" font-size="10.00">ant::interval&lt; double &gt;</text>
</a>
</g>
<!-- Node6&#45;&gt;Node4 -->
<g id="edge14" class="edge"><title>Node6&#45;&gt;Node4</title>
<path fill="none" stroke="#9a32cd" stroke-dasharray="5,2" d="M262.36,-420.941C264.94,-420.963 267.493,-420.983 270,-421 394.597,-421.831 426.099,-420.177 550,-407 557.085,-406.247 564.509,-405.304 571.844,-404.28"/>
<polygon fill="#9a32cd" stroke="#9a32cd" points="262.361,-417.441 252.327,-420.843 262.292,-424.441 262.361,-417.441"/>
<text text-anchor="middle" x="392" y="-464" font-family="Helvetica,sans-Serif" font-size="10.00"> Range_Prompt</text>
<text text-anchor="middle" x="392" y="-451" font-family="Helvetica,sans-Serif" font-size="10.00">Cut_EMB_Chi2</text>
<text text-anchor="middle" x="392" y="-438" font-family="Helvetica,sans-Serif" font-size="10.00">Cut_MM</text>
<text text-anchor="middle" x="392" y="-425" font-family="Helvetica,sans-Serif" font-size="10.00">Cut_ProtonCopl</text>
</g>
<!-- Node6&#45;&gt;Node5 -->
<g id="edge10" class="edge"><title>Node6&#45;&gt;Node5</title>
<path fill="none" stroke="#9a32cd" stroke-dasharray="5,2" d="M259.771,-407.506C285.802,-402.485 315.406,-396.774 339.995,-392.031"/>
<polygon fill="#9a32cd" stroke="#9a32cd" points="258.77,-404.135 249.614,-409.465 260.096,-411.008 258.77,-404.135"/>
<text text-anchor="middle" x="292" y="-409" font-family="Helvetica,sans-Serif" font-size="10.00"> elements</text>
</g>
<!-- Node7 -->
<g id="node12" class="node"><title>Node7</title>
<a xlink:href="classant_1_1printable__traits.html" target="_top" xlink:title="ant::printable_traits">
<polygon fill="white" stroke="black" points="0,-409.5 0,-430.5 100,-430.5 100,-409.5 0,-409.5"/>
<text text-anchor="middle" x="50" y="-417.5" font-family="Helvetica,sans-Serif" font-size="10.00">ant::printable_traits</text>
</a>
</g>
<!-- Node7&#45;&gt;Node6 -->
<g id="edge12" class="edge"><title>Node7&#45;&gt;Node6</title>
<path fill="none" stroke="midnightblue" d="M110.411,-420C119.486,-420 128.821,-420 137.826,-420"/>
<polygon fill="midnightblue" stroke="midnightblue" points="110.307,-416.5 100.307,-420 110.307,-423.5 110.307,-416.5"/>
</g>
<!-- Node8 -->
<g id="node15" class="node"><title>Node8</title>
<a xlink:title="STL class. ">
<polygon fill="white" stroke="#bfbfbf" points="362,-296.5 362,-317.5 422,-317.5 422,-296.5 362,-296.5"/>
<text text-anchor="middle" x="392" y="-304.5" font-family="Helvetica,sans-Serif" font-size="10.00">std::string</text>
</a>
</g>
<!-- Node8&#45;&gt;Node4 -->
<g id="edge16" class="edge"><title>Node8&#45;&gt;Node4</title>
<path fill="none" stroke="#9a32cd" stroke-dasharray="5,2" d="M428.616,-321.216C441.662,-326.246 456.472,-331.916 470,-337 507.199,-350.98 549.466,-366.476 580.918,-377.931"/>
<polygon fill="#9a32cd" stroke="#9a32cd" points="429.624,-317.854 419.035,-317.515 427.102,-324.383 429.624,-317.854"/>
<text text-anchor="middle" x="510" y="-369" font-family="Helvetica,sans-Serif" font-size="10.00"> Tree_Name</text>
</g>
<!-- Node14 -->
<g id="node27" class="node"><title>Node14</title>
<a xlink:href="structant_1_1_wrap_t_tree_1_1_r_o_o_t__branchinfo__t.html" target="_top" xlink:title="ant::WrapTTree::ROOT\l_branchinfo_t">
<polygon fill="white" stroke="black" points="568.5,-324 568.5,-358 687.5,-358 687.5,-324 568.5,-324"/>
<text text-anchor="start" x="576.5" y="-345" font-family="Helvetica,sans-Serif" font-size="10.00">ant::WrapTTree::ROOT</text>
<text text-anchor="middle" x="628" y="-332" font-family="Helvetica,sans-Serif" font-size="10.00">_branchinfo_t</text>
</a>
</g>
<!-- Node8&#45;&gt;Node14 -->
<g id="edge30" class="edge"><title>Node8&#45;&gt;Node14</title>
<path fill="none" stroke="#9a32cd" stroke-dasharray="5,2" d="M432.426,-310.145C464.444,-312.926 510.241,-317.548 550,-324 555.883,-324.955 561.99,-326.068 568.08,-327.261"/>
<polygon fill="#9a32cd" stroke="#9a32cd" points="432.384,-306.629 422.124,-309.273 431.793,-313.604 432.384,-306.629"/>
<text text-anchor="middle" x="510" y="-328" font-family="Helvetica,sans-Serif" font-size="10.00"> Name</text>
</g>
<!-- Node21 -->
<g id="node42" class="node"><title>Node21</title>
<a xlink:href="structant_1_1analysis_1_1utils_1_1_kin_fitter_1_1_beam_e__t.html" target="_top" xlink:title="ant::analysis::utils\l::KinFitter::BeamE_t">
<polygon fill="white" stroke="black" points="785,-222 785,-256 891,-256 891,-222 785,-222"/>
<text text-anchor="start" x="793" y="-243" font-family="Helvetica,sans-Serif" font-size="10.00">ant::analysis::utils</text>
<text text-anchor="middle" x="838" y="-230" font-family="Helvetica,sans-Serif" font-size="10.00">::KinFitter::BeamE_t</text>
</a>
</g>
<!-- Node8&#45;&gt;Node21 -->
<g id="edge48" class="edge"><title>Node8&#45;&gt;Node21</title>
<path fill="none" stroke="#9a32cd" stroke-dasharray="5,2" d="M432.309,-301.153C489.291,-292.854 596.643,-277.098 688,-263 720.189,-258.033 756.231,-252.272 784.916,-247.64"/>
<polygon fill="#9a32cd" stroke="#9a32cd" points="431.663,-297.71 422.271,-302.613 432.671,-304.637 431.663,-297.71"/>
<text text-anchor="middle" x="628" y="-284" font-family="Helvetica,sans-Serif" font-size="10.00"> Name</text>
</g>
<!-- Node32 -->
<g id="node66" class="node"><title>Node32</title>
<a xlink:href="structant_1_1analysis_1_1physics_1_1triple_pi0_1_1named__channel__t.html" target="_top" xlink:title="ant::analysis::physics\l::triplePi0::named_channel_t">
<polygon fill="white" stroke="black" points="1214,-67 1214,-101 1354,-101 1354,-67 1214,-67"/>
<text text-anchor="start" x="1222" y="-88" font-family="Helvetica,sans-Serif" font-size="10.00">ant::analysis::physics</text>
<text text-anchor="middle" x="1284" y="-75" font-family="Helvetica,sans-Serif" font-size="10.00">::triplePi0::named_channel_t</text>
</a>
</g>
<!-- Node8&#45;&gt;Node32 -->
<g id="edge72" class="edge"><title>Node8&#45;&gt;Node32</title>
<path fill="none" stroke="#9a32cd" stroke-dasharray="5,2" d="M404.697,-288.253C436.571,-243.667 524.837,-135 628,-135 628,-135 628,-135 1058,-135 1119.65,-135 1136.26,-136.226 1196,-121 1214.47,-116.293 1234.1,-108.348 1250.13,-101.025"/>
<polygon fill="#9a32cd" stroke="#9a32cd" points="401.792,-286.3 398.926,-296.5 407.527,-290.314 401.792,-286.3"/>
<text text-anchor="middle" x="838" y="-139" font-family="Helvetica,sans-Serif" font-size="10.00"> Name</text>
</g>
<!-- Node9 -->
<g id="node17" class="node"><title>Node9</title>
<a xlink:title="STL class. ">
<polygon fill="white" stroke="#bfbfbf" points="147.5,-290 147.5,-324 242.5,-324 242.5,-290 147.5,-290"/>
<text text-anchor="start" x="155.5" y="-311" font-family="Helvetica,sans-Serif" font-size="10.00">std::basic_string&lt;</text>
<text text-anchor="middle" x="195" y="-298" font-family="Helvetica,sans-Serif" font-size="10.00"> char &gt;</text>
</a>
</g>
<!-- Node9&#45;&gt;Node8 -->
<g id="edge18" class="edge"><title>Node9&#45;&gt;Node8</title>
<path fill="none" stroke="midnightblue" d="M252.992,-307C288.713,-307 333.041,-307 361.899,-307"/>
<polygon fill="midnightblue" stroke="midnightblue" points="252.688,-303.5 242.688,-307 252.688,-310.5 252.688,-303.5"/>
</g>
<!-- Node10 -->
<g id="node19" class="node"><title>Node10</title>
<a xlink:href="structant_1_1analysis_1_1physics_1_1triple_pi0_1_1_pion_prod_tree.html" target="_top" xlink:title="ant::analysis::physics\l::triplePi0::PionProdTree">
<polygon fill="white" stroke="black" points="1455.5,-333 1455.5,-367 1578.5,-367 1578.5,-333 1455.5,-333"/>
<text text-anchor="start" x="1463.5" y="-354" font-family="Helvetica,sans-Serif" font-size="10.00">ant::analysis::physics</text>
<text text-anchor="middle" x="1517" y="-341" font-family="Helvetica,sans-Serif" font-size="10.00">::triplePi0::PionProdTree</text>
</a>
</g>
<!-- Node10&#45;&gt;Node1 -->
<g id="edge20" class="edge"><title>Node10&#45;&gt;Node1</title>
<path fill="none" stroke="#9a32cd" stroke-dasharray="5,2" d="M1589.07,-340.24C1621.09,-334.081 1658.57,-324.295 1690,-309 1711.72,-298.431 1732.89,-280.546 1746.99,-267.232"/>
<polygon fill="#9a32cd" stroke="#9a32cd" points="1588.08,-336.863 1578.88,-342.114 1589.35,-343.747 1588.08,-336.863"/>
<text text-anchor="middle" x="1649" y="-339" font-family="Helvetica,sans-Serif" font-size="10.00"> tree</text>
</g>
<!-- Node11 -->
<g id="node21" class="node"><title>Node11</title>
<a xlink:href="structant_1_1_wrap_t_tree.html" target="_top" xlink:title="The WrapTTree struct simplifies TTree handling in physics classes. ">
<polygon fill="white" stroke="black" points="1241.5,-339.5 1241.5,-360.5 1326.5,-360.5 1326.5,-339.5 1241.5,-339.5"/>
<text text-anchor="middle" x="1284" y="-347.5" font-family="Helvetica,sans-Serif" font-size="10.00">ant::WrapTTree</text>
</a>
</g>
<!-- Node11&#45;&gt;Node10 -->
<g id="edge22" class="edge"><title>Node11&#45;&gt;Node10</title>
<path fill="none" stroke="midnightblue" d="M1336.8,-350C1371.98,-350 1418.33,-350 1455.22,-350"/>
<polygon fill="midnightblue" stroke="midnightblue" points="1336.74,-346.5 1326.74,-350 1336.74,-353.5 1336.74,-346.5"/>
</g>
<!-- Node12 -->
<g id="node23" class="node"><title>Node12</title>
<polygon fill="white" stroke="#bfbfbf" points="988,-333 988,-367 1128,-367 1128,-333 988,-333"/>
<text text-anchor="start" x="996" y="-354" font-family="Helvetica,sans-Serif" font-size="10.00">std::vector&lt; ant::WrapTTree</text>
<text text-anchor="middle" x="1058" y="-341" font-family="Helvetica,sans-Serif" font-size="10.00">::ROOT_branch_t &gt;</text>
</g>
<!-- Node12&#45;&gt;Node11 -->
<g id="edge24" class="edge"><title>Node12&#45;&gt;Node11</title>
<path fill="none" stroke="#9a32cd" stroke-dasharray="5,2" d="M1138.42,-350C1173.18,-350 1212.44,-350 1241.42,-350"/>
<polygon fill="#9a32cd" stroke="#9a32cd" points="1138.27,-346.5 1128.27,-350 1138.27,-353.5 1138.27,-346.5"/>
<text text-anchor="middle" x="1171" y="-354" font-family="Helvetica,sans-Serif" font-size="10.00"> branches</text>
</g>
<!-- Node13 -->
<g id="node25" class="node"><title>Node13</title>
<a xlink:href="structant_1_1_wrap_t_tree_1_1_r_o_o_t__branch__t.html" target="_top" xlink:title="ant::WrapTTree::ROOT\l_branch_t">
<polygon fill="white" stroke="black" points="778.5,-330 778.5,-364 897.5,-364 897.5,-330 778.5,-330"/>
<text text-anchor="start" x="786.5" y="-351" font-family="Helvetica,sans-Serif" font-size="10.00">ant::WrapTTree::ROOT</text>
<text text-anchor="middle" x="838" y="-338" font-family="Helvetica,sans-Serif" font-size="10.00">_branch_t</text>
</a>
</g>
<!-- Node13&#45;&gt;Node12 -->
<g id="edge26" class="edge"><title>Node13&#45;&gt;Node12</title>
<path fill="none" stroke="#9a32cd" stroke-dasharray="5,2" d="M907.544,-347.948C933.17,-348.298 962.198,-348.694 987.874,-349.044"/>
<polygon fill="#9a32cd" stroke="#9a32cd" points="907.582,-344.449 897.535,-347.812 907.486,-351.448 907.582,-344.449"/>
<text text-anchor="middle" x="948" y="-352" font-family="Helvetica,sans-Serif" font-size="10.00"> elements</text>
</g>
<!-- Node14&#45;&gt;Node13 -->
<g id="edge28" class="edge"><title>Node14&#45;&gt;Node13</title>
<path fill="none" stroke="midnightblue" d="M697.799,-342.994C723.849,-343.739 753.168,-344.576 778.235,-345.292"/>
<polygon fill="midnightblue" stroke="midnightblue" points="697.712,-339.49 687.616,-342.703 697.512,-346.488 697.712,-339.49"/>
</g>
<!-- Node15 -->
<g id="node30" class="node"><title>Node15</title>
<polygon fill="white" stroke="#bfbfbf" points="1465,-281 1465,-315 1569,-315 1569,-281 1465,-281"/>
<text text-anchor="start" x="1473" y="-302" font-family="Helvetica,sans-Serif" font-size="10.00">std::vector&lt; utils</text>
<text text-anchor="middle" x="1517" y="-289" font-family="Helvetica,sans-Serif" font-size="10.00">::TreeFitter::tree_t &gt;</text>
</g>
<!-- Node15&#45;&gt;Node1 -->
<g id="edge32" class="edge"><title>Node15&#45;&gt;Node1</title>
<path fill="none" stroke="#9a32cd" stroke-dasharray="5,2" d="M1579.13,-285.927C1618.63,-278.25 1669.37,-268.391 1707.69,-260.943"/>
<polygon fill="#9a32cd" stroke="#9a32cd" points="1578.23,-282.536 1569.08,-287.879 1579.56,-289.407 1578.23,-282.536"/>
<text text-anchor="middle" x="1649" y="-296" font-family="Helvetica,sans-Serif" font-size="10.00"> pionsFitterSig</text>
<text text-anchor="middle" x="1649" y="-283" font-family="Helvetica,sans-Serif" font-size="10.00">pionsFitterBkg</text>
</g>
<!-- Node16 -->
<g id="node32" class="node"><title>Node16</title>
<a xlink:href="classant_1_1analysis_1_1utils_1_1_tree_fitter.html" target="_top" xlink:title="ant::analysis::utils\l::TreeFitter">
<polygon fill="white" stroke="black" points="1469,-180 1469,-214 1565,-214 1565,-180 1469,-180"/>
<text text-anchor="start" x="1477" y="-201" font-family="Helvetica,sans-Serif" font-size="10.00">ant::analysis::utils</text>
<text text-anchor="middle" x="1517" y="-188" font-family="Helvetica,sans-Serif" font-size="10.00">::TreeFitter</text>
</a>
</g>
<!-- Node16&#45;&gt;Node1 -->
<g id="edge34" class="edge"><title>Node16&#45;&gt;Node1</title>
<path fill="none" stroke="#9a32cd" stroke-dasharray="5,2" d="M1575.57,-195.36C1609.6,-195.888 1652.94,-199.13 1690,-210 1707.24,-215.055 1724.99,-224.487 1738.79,-232.922"/>
<polygon fill="#9a32cd" stroke="#9a32cd" points="1575.35,-191.858 1565.32,-195.277 1575.29,-198.858 1575.35,-191.858"/>
<text text-anchor="middle" x="1649" y="-227" font-family="Helvetica,sans-Serif" font-size="10.00"> fitterBkg</text>
<text text-anchor="middle" x="1649" y="-214" font-family="Helvetica,sans-Serif" font-size="10.00">fitterSig</text>
</g>
<!-- Node17 -->
<g id="node34" class="node"><title>Node17</title>
<a xlink:href="classant_1_1analysis_1_1utils_1_1_kin_fitter.html" target="_top" xlink:title="ant::analysis::utils\l::KinFitter">
<polygon fill="white" stroke="black" points="1236,-223 1236,-257 1332,-257 1332,-223 1236,-223"/>
<text text-anchor="start" x="1244" y="-244" font-family="Helvetica,sans-Serif" font-size="10.00">ant::analysis::utils</text>
<text text-anchor="middle" x="1284" y="-231" font-family="Helvetica,sans-Serif" font-size="10.00">::KinFitter</text>
</a>
</g>
<!-- Node17&#45;&gt;Node1 -->
<g id="edge64" class="edge"><title>Node17&#45;&gt;Node1</title>
<path fill="none" stroke="#9a32cd" stroke-dasharray="5,2" d="M1342.3,-241.215C1435.29,-243.152 1616.01,-246.917 1707.71,-248.827"/>
<polygon fill="#9a32cd" stroke="#9a32cd" points="1342.29,-237.714 1332.22,-241.005 1342.15,-244.712 1342.29,-237.714"/>
<text text-anchor="middle" x="1517" y="-250" font-family="Helvetica,sans-Serif" font-size="10.00"> kinFitterEMB</text>
</g>
<!-- Node17&#45;&gt;Node16 -->
<g id="edge36" class="edge"><title>Node17&#45;&gt;Node16</title>
<path fill="none" stroke="midnightblue" d="M1342.43,-229.216C1381.43,-222.019 1432.09,-212.67 1468.78,-205.898"/>
<polygon fill="midnightblue" stroke="midnightblue" points="1341.48,-225.834 1332.28,-231.09 1342.75,-232.717 1341.48,-225.834"/>
</g>
<!-- Node18 -->
<g id="node36" class="node"><title>Node18</title>
<a xlink:href="classant_1_1analysis_1_1utils_1_1_fitter.html" target="_top" xlink:title="ant::analysis::utils\l::Fitter">
<polygon fill="white" stroke="black" points="1010,-281 1010,-315 1106,-315 1106,-281 1010,-281"/>
<text text-anchor="start" x="1018" y="-302" font-family="Helvetica,sans-Serif" font-size="10.00">ant::analysis::utils</text>
<text text-anchor="middle" x="1058" y="-289" font-family="Helvetica,sans-Serif" font-size="10.00">::Fitter</text>
</a>
</g>
<!-- Node18&#45;&gt;Node17 -->
<g id="edge38" class="edge"><title>Node18&#45;&gt;Node17</title>
<path fill="none" stroke="midnightblue" d="M1115.9,-283.14C1153.08,-273.6 1200.78,-261.357 1235.87,-252.352"/>
<polygon fill="midnightblue" stroke="midnightblue" points="1115.02,-279.753 1106.21,-285.629 1116.76,-286.533 1115.02,-279.753"/>
</g>
<!-- Node19 -->
<g id="node38" class="node"><title>Node19</title>
<polygon fill="white" stroke="#bfbfbf" points="768,-287.5 768,-308.5 908,-308.5 908,-287.5 768,-287.5"/>
<text text-anchor="middle" x="838" y="-295.5" font-family="Helvetica,sans-Serif" font-size="10.00">std::unique_ptr&lt; APLCON &gt;</text>
</g>
<!-- Node19&#45;&gt;Node18 -->
<g id="edge40" class="edge"><title>Node19&#45;&gt;Node18</title>
<path fill="none" stroke="#9a32cd" stroke-dasharray="5,2" d="M918.487,-298C949.198,-298 983.224,-298 1009.98,-298"/>
<polygon fill="#9a32cd" stroke="#9a32cd" points="918.214,-294.5 908.214,-298 918.214,-301.5 918.214,-294.5"/>
<text text-anchor="middle" x="948" y="-302" font-family="Helvetica,sans-Serif" font-size="10.00"> aplcon</text>
</g>
<!-- Node20 -->
<g id="node40" class="node"><title>Node20</title>
<polygon fill="white" stroke="#bfbfbf" points="995.5,-215.5 995.5,-262.5 1120.5,-262.5 1120.5,-215.5 995.5,-215.5"/>
<text text-anchor="start" x="1003.5" y="-249.5" font-family="Helvetica,sans-Serif" font-size="10.00">std::unique_ptr&lt; ant</text>
<text text-anchor="start" x="1003.5" y="-236.5" font-family="Helvetica,sans-Serif" font-size="10.00">::analysis::utils::KinFitter</text>
<text text-anchor="middle" x="1058" y="-223.5" font-family="Helvetica,sans-Serif" font-size="10.00">::BeamE_t &gt;</text>
</g>
<!-- Node20&#45;&gt;Node17 -->
<g id="edge42" class="edge"><title>Node20&#45;&gt;Node17</title>
<path fill="none" stroke="#9a32cd" stroke-dasharray="5,2" d="M1130.67,-239.322C1165.13,-239.474 1205.35,-239.652 1235.95,-239.787"/>
<polygon fill="#9a32cd" stroke="#9a32cd" points="1130.67,-235.822 1120.65,-239.277 1130.64,-242.822 1130.67,-235.822"/>
<text text-anchor="middle" x="1171" y="-243" font-family="Helvetica,sans-Serif" font-size="10.00"> BeamE</text>
</g>
<!-- Node21&#45;&gt;Node20 -->
<g id="edge44" class="edge"><title>Node21&#45;&gt;Node20</title>
<path fill="none" stroke="#9a32cd" stroke-dasharray="5,2" d="M901.46,-239C931.007,-239 966.047,-239 995.476,-239"/>
<polygon fill="#9a32cd" stroke="#9a32cd" points="901.256,-235.5 891.256,-239 901.256,-242.5 901.256,-235.5"/>
<text text-anchor="middle" x="948" y="-243" font-family="Helvetica,sans-Serif" font-size="10.00"> ptr</text>
</g>
<!-- Node22 -->
<g id="node44" class="node"><title>Node22</title>
<a xlink:href="structant_1_1analysis_1_1utils_1_1_fitter_1_1_fit_variable.html" target="_top" xlink:title="ant::analysis::utils\l::Fitter::FitVariable">
<polygon fill="white" stroke="black" points="579,-220 579,-254 677,-254 677,-220 579,-220"/>
<text text-anchor="start" x="587" y="-241" font-family="Helvetica,sans-Serif" font-size="10.00">ant::analysis::utils</text>
<text text-anchor="middle" x="628" y="-228" font-family="Helvetica,sans-Serif" font-size="10.00">::Fitter::FitVariable</text>
</a>
</g>
<!-- Node22&#45;&gt;Node21 -->
<g id="edge46" class="edge"><title>Node22&#45;&gt;Node21</title>
<path fill="none" stroke="midnightblue" d="M687.347,-237.565C717.947,-237.857 754.971,-238.209 784.658,-238.492"/>
<polygon fill="midnightblue" stroke="midnightblue" points="687.269,-234.064 677.236,-237.469 687.202,-241.064 687.269,-234.064"/>
</g>
<!-- Node23 -->
<g id="node47" class="node"><title>Node23</title>
<polygon fill="white" stroke="#bfbfbf" points="997.5,-163 997.5,-197 1118.5,-197 1118.5,-163 997.5,-163"/>
<text text-anchor="start" x="1005.5" y="-184" font-family="Helvetica,sans-Serif" font-size="10.00">std::vector&lt; std::shared</text>
<text text-anchor="middle" x="1058" y="-171" font-family="Helvetica,sans-Serif" font-size="10.00">_ptr&lt; FitParticle &gt; &gt;</text>
</g>
<!-- Node23&#45;&gt;Node17 -->
<g id="edge50" class="edge"><title>Node23&#45;&gt;Node17</title>
<path fill="none" stroke="#9a32cd" stroke-dasharray="5,2" d="M1128.23,-198.646C1163.16,-207.92 1204.49,-218.891 1235.8,-227.203"/>
<polygon fill="#9a32cd" stroke="#9a32cd" points="1129.13,-195.262 1118.56,-196.079 1127.33,-202.028 1129.13,-195.262"/>
<text text-anchor="middle" x="1171" y="-219" font-family="Helvetica,sans-Serif" font-size="10.00"> Photons</text>
</g>
<!-- Node24 -->
<g id="node49" class="node"><title>Node24</title>
<polygon fill="white" stroke="#bfbfbf" points="1231,-183.5 1231,-204.5 1337,-204.5 1337,-183.5 1231,-183.5"/>
<text text-anchor="middle" x="1284" y="-191.5" font-family="Helvetica,sans-Serif" font-size="10.00">std::vector&lt; tree_t &gt;</text>
</g>
<!-- Node24&#45;&gt;Node16 -->
<g id="edge52" class="edge"><title>Node24&#45;&gt;Node16</title>
<path fill="none" stroke="#9a32cd" stroke-dasharray="5,2" d="M1347.18,-194.813C1385.49,-195.307 1433.6,-195.926 1468.82,-196.38"/>
<polygon fill="#9a32cd" stroke="#9a32cd" points="1347.21,-191.314 1337.16,-194.685 1347.12,-198.313 1347.21,-191.314"/>
<text text-anchor="middle" x="1399" y="-199" font-family="Helvetica,sans-Serif" font-size="10.00"> tree_leaves</text>
</g>
<!-- Node25 -->
<g id="node51" class="node"><title>Node25</title>
<polygon fill="white" stroke="#bfbfbf" points="1229,-131.5 1229,-152.5 1339,-152.5 1339,-131.5 1229,-131.5"/>
<text text-anchor="middle" x="1284" y="-139.5" font-family="Helvetica,sans-Serif" font-size="10.00">std::list&lt; iteration_t &gt;</text>
</g>
<!-- Node25&#45;&gt;Node16 -->
<g id="edge54" class="edge"><title>Node25&#45;&gt;Node16</title>
<path fill="none" stroke="#9a32cd" stroke-dasharray="5,2" d="M1338.39,-154.839C1377.91,-164.168 1430.91,-176.678 1468.89,-185.644"/>
<polygon fill="#9a32cd" stroke="#9a32cd" points="1339.19,-151.431 1328.65,-152.539 1337.58,-158.243 1339.19,-151.431"/>
<text text-anchor="middle" x="1399" y="-179" font-family="Helvetica,sans-Serif" font-size="10.00"> iterations</text>
</g>
<!-- Node26 -->
<g id="node53" class="node"><title>Node26</title>
<a xlink:href="structant_1_1analysis_1_1utils_1_1_tree_fitter_1_1iteration__t.html" target="_top" xlink:title="ant::analysis::utils\l::TreeFitter::iteration_t">
<polygon fill="white" stroke="black" points="1001.5,-69 1001.5,-103 1114.5,-103 1114.5,-69 1001.5,-69"/>
<text text-anchor="start" x="1009.5" y="-90" font-family="Helvetica,sans-Serif" font-size="10.00">ant::analysis::utils</text>
<text text-anchor="middle" x="1058" y="-77" font-family="Helvetica,sans-Serif" font-size="10.00">::TreeFitter::iteration_t</text>
</a>
</g>
<!-- Node26&#45;&gt;Node25 -->
<g id="edge56" class="edge"><title>Node26&#45;&gt;Node25</title>
<path fill="none" stroke="#9a32cd" stroke-dasharray="5,2" d="M1124.65,-102.516C1162.45,-111.882 1208.62,-123.321 1241.51,-131.471"/>
<polygon fill="#9a32cd" stroke="#9a32cd" points="1125.29,-99.0668 1114.74,-100.059 1123.6,-105.861 1125.29,-99.0668"/>
<text text-anchor="middle" x="1171" y="-124" font-family="Helvetica,sans-Serif" font-size="10.00"> elements</text>
</g>
<!-- Node27 -->
<g id="node55" class="node"><title>Node27</title>
<polygon fill="white" stroke="#bfbfbf" points="773.5,-51.5 773.5,-98.5 902.5,-98.5 902.5,-51.5 773.5,-51.5"/>
<text text-anchor="start" x="781.5" y="-85.5" font-family="Helvetica,sans-Serif" font-size="10.00">std::vector&lt; ant::analysis</text>
<text text-anchor="start" x="781.5" y="-72.5" font-family="Helvetica,sans-Serif" font-size="10.00">::utils::TreeFitter::iteration</text>
<text text-anchor="middle" x="838" y="-59.5" font-family="Helvetica,sans-Serif" font-size="10.00">_t::particle_t &gt;</text>
</g>
<!-- Node27&#45;&gt;Node26 -->
<g id="edge58" class="edge"><title>Node27&#45;&gt;Node26</title>
<path fill="none" stroke="#9a32cd" stroke-dasharray="5,2" d="M912.613,-78.7307C941.624,-80.1812 974.309,-81.8155 1001.33,-83.1665"/>
<polygon fill="#9a32cd" stroke="#9a32cd" points="912.683,-75.2299 902.521,-78.226 912.333,-82.2211 912.683,-75.2299"/>
<text text-anchor="middle" x="948" y="-86" font-family="Helvetica,sans-Serif" font-size="10.00"> Particles</text>
</g>
<!-- Node28 -->
<g id="node57" class="node"><title>Node28</title>
<a xlink:href="structant_1_1analysis_1_1utils_1_1_tree_fitter_1_1iteration__t_1_1particle__t.html" target="_top" xlink:title="ant::analysis::utils\l::TreeFitter::iteration\l_t::particle_t">
<polygon fill="white" stroke="black" points="575.5,-51.5 575.5,-98.5 680.5,-98.5 680.5,-51.5 575.5,-51.5"/>
<text text-anchor="start" x="583.5" y="-85.5" font-family="Helvetica,sans-Serif" font-size="10.00">ant::analysis::utils</text>
<text text-anchor="start" x="583.5" y="-72.5" font-family="Helvetica,sans-Serif" font-size="10.00">::TreeFitter::iteration</text>
<text text-anchor="middle" x="628" y="-59.5" font-family="Helvetica,sans-Serif" font-size="10.00">_t::particle_t</text>
</a>
</g>
<!-- Node28&#45;&gt;Node27 -->
<g id="edge60" class="edge"><title>Node28&#45;&gt;Node27</title>
<path fill="none" stroke="#9a32cd" stroke-dasharray="5,2" d="M690.844,-75C716.863,-75 747.022,-75 773.239,-75"/>
<polygon fill="#9a32cd" stroke="#9a32cd" points="690.721,-71.5001 680.721,-75 690.721,-78.5001 690.721,-71.5001"/>
<text text-anchor="middle" x="728" y="-79" font-family="Helvetica,sans-Serif" font-size="10.00"> elements</text>
</g>
<!-- Node29 -->
<g id="node59" class="node"><title>Node29</title>
<a xlink:href="structant_1_1std__ext_1_1cc__shared__ptr.html" target="_top" xlink:title="ant::std_ext::cc_shared\l_ptr\&lt; TParticle \&gt;">
<polygon fill="white" stroke="black" points="332.5,-58 332.5,-92 451.5,-92 451.5,-58 332.5,-58"/>
<text text-anchor="start" x="340.5" y="-79" font-family="Helvetica,sans-Serif" font-size="10.00">ant::std_ext::cc_shared</text>
<text text-anchor="middle" x="392" y="-66" font-family="Helvetica,sans-Serif" font-size="10.00">_ptr&lt; TParticle &gt;</text>
</a>
</g>
<!-- Node29&#45;&gt;Node28 -->
<g id="edge62" class="edge"><title>Node29&#45;&gt;Node28</title>
<path fill="none" stroke="#9a32cd" stroke-dasharray="5,2" d="M461.601,-75C497.976,-75 541.774,-75 575.303,-75"/>
<polygon fill="#9a32cd" stroke="#9a32cd" points="461.553,-71.5001 451.553,-75 461.553,-78.5001 461.553,-71.5001"/>
<text text-anchor="middle" x="510" y="-79" font-family="Helvetica,sans-Serif" font-size="10.00"> Particle</text>
</g>
<!-- Node30 -->
<g id="node62" class="node"><title>Node30</title>
<a xlink:href="classant_1_1analysis_1_1_prompt_random_1_1_switch.html" target="_top" xlink:title="ant::analysis::PromptRandom\l::Switch">
<polygon fill="white" stroke="black" points="1444,-128 1444,-162 1590,-162 1590,-128 1444,-128"/>
<text text-anchor="start" x="1452" y="-149" font-family="Helvetica,sans-Serif" font-size="10.00">ant::analysis::PromptRandom</text>
<text text-anchor="middle" x="1517" y="-136" font-family="Helvetica,sans-Serif" font-size="10.00">::Switch</text>
</a>
</g>
<!-- Node30&#45;&gt;Node1 -->
<g id="edge66" class="edge"><title>Node30&#45;&gt;Node1</title>
<path fill="none" stroke="#9a32cd" stroke-dasharray="5,2" d="M1600.23,-151.607C1629.81,-156.429 1662.55,-164.73 1690,-179 1715.12,-192.057 1737.58,-216.283 1751,-232.768"/>
<polygon fill="#9a32cd" stroke="#9a32cd" points="1600.75,-148.145 1590.33,-150.101 1599.69,-155.065 1600.75,-148.145"/>
<text text-anchor="middle" x="1649" y="-183" font-family="Helvetica,sans-Serif" font-size="10.00"> promptrandom</text>
</g>
<!-- Node31 -->
<g id="node64" class="node"><title>Node31</title>
<polygon fill="white" stroke="#bfbfbf" points="1450.5,-0.5 1450.5,-47.5 1583.5,-47.5 1583.5,-0.5 1450.5,-0.5"/>
<text text-anchor="start" x="1458.5" y="-34.5" font-family="Helvetica,sans-Serif" font-size="10.00">std::vector&lt; ant::analysis</text>
<text text-anchor="start" x="1458.5" y="-21.5" font-family="Helvetica,sans-Serif" font-size="10.00">::physics::triplePi0::named</text>
<text text-anchor="middle" x="1517" y="-8.5" font-family="Helvetica,sans-Serif" font-size="10.00">_channel_t &gt;</text>
</g>
<!-- Node31&#45;&gt;Node1 -->
<g id="edge68" class="edge"><title>Node31&#45;&gt;Node1</title>
<path fill="none" stroke="#9a32cd" stroke-dasharray="5,2" d="M1593.58,-22.6127C1626.5,-25.7598 1663.43,-34.777 1690,-57 1745.05,-103.048 1759.25,-194.944 1762.83,-232.945"/>
<polygon fill="#9a32cd" stroke="#9a32cd" points="1593.76,-19.1155 1583.51,-21.8163 1593.2,-26.0937 1593.76,-19.1155"/>
<text text-anchor="middle" x="1649" y="-61" font-family="Helvetica,sans-Serif" font-size="10.00"> otherBackgrounds</text>
</g>
<!-- Node32&#45;&gt;Node1 -->
<g id="edge74" class="edge"><title>Node32&#45;&gt;Node1</title>
<path fill="none" stroke="#9a32cd" stroke-dasharray="5,2" d="M1364.28,-76.0489C1426.93,-72.2899 1515.52,-72.391 1590,-93 1639.09,-106.584 1651.85,-115.24 1690,-149 1718.16,-173.923 1742.05,-211.286 1754.59,-232.893"/>
<polygon fill="#9a32cd" stroke="#9a32cd" points="1363.82,-72.5713 1354.07,-76.7097 1364.27,-79.5567 1363.82,-72.5713"/>
<text text-anchor="middle" x="1517" y="-110" font-family="Helvetica,sans-Serif" font-size="10.00"> signal</text>
<text text-anchor="middle" x="1517" y="-97" font-family="Helvetica,sans-Serif" font-size="10.00">mainBackground</text>
</g>
<!-- Node32&#45;&gt;Node31 -->
<g id="edge70" class="edge"><title>Node32&#45;&gt;Node31</title>
<path fill="none" stroke="#9a32cd" stroke-dasharray="5,2" d="M1347.06,-64.0366C1355.42,-61.5713 1363.9,-59.1616 1372,-57 1397.44,-50.2114 1425.63,-43.5936 1450.34,-38.0882"/>
<polygon fill="#9a32cd" stroke="#9a32cd" points="1345.91,-60.7271 1337.33,-66.9447 1347.92,-67.4339 1345.91,-60.7271"/>
<text text-anchor="middle" x="1399" y="-61" font-family="Helvetica,sans-Serif" font-size="10.00"> elements</text>
</g>
</g>
</svg>
