<?xml version="1.0" encoding="UTF-8" standalone="no"?>
<!DOCTYPE svg PUBLIC "-//W3C//DTD SVG 1.1//EN"
 "http://www.w3.org/Graphics/SVG/1.1/DTD/svg11.dtd">
<!-- Generated by graphviz version 2.26.3 (20100126.1600)
 -->
<!-- Title: ant::WrapTTree::ROOT_branch_t Pages: 1 -->
<svg width="126pt" height="264pt"
 viewBox="0.00 0.00 126.00 264.00" xmlns="http://www.w3.org/2000/svg" xmlns:xlink="http://www.w3.org/1999/xlink">
<g id="graph1" class="graph" transform="scale(1 1) rotate(0) translate(4 260)">
<title>ant::WrapTTree::ROOT_branch_t</title>
<polygon fill="white" stroke="white" points="-4,5 -4,-260 123,-260 123,5 -4,5"/>
<!-- Node1 -->
<g id="node1" class="node"><title>Node1</title>
<polygon fill="#bfbfbf" stroke="black" points="-0.5,-1 -0.5,-35 118.5,-35 118.5,-1 -0.5,-1"/>
<text text-anchor="start" x="7.5" y="-22" font-family="Helvetica,sans-Serif" font-size="10.00">ant::WrapTTree::ROOT</text>
<text text-anchor="middle" x="59" y="-9" font-family="Helvetica,sans-Serif" font-size="10.00">_branch_t</text>
</g>
<!-- Node2 -->
<g id="node2" class="node"><title>Node2</title>
<a xlink:href="structant_1_1_wrap_t_tree_1_1_r_o_o_t__branchinfo__t.html" target="_top" xlink:title="ant::WrapTTree::ROOT\l_branchinfo_t">
<polygon fill="white" stroke="black" points="-0.5,-75 -0.5,-109 118.5,-109 118.5,-75 -0.5,-75"/>
<text text-anchor="start" x="7.5" y="-96" font-family="Helvetica,sans-Serif" font-size="10.00">ant::WrapTTree::ROOT</text>
<text text-anchor="middle" x="59" y="-83" font-family="Helvetica,sans-Serif" font-size="10.00">_branchinfo_t</text>
</a>
</g>
<!-- Node2&#45;&gt;Node1 -->
<g id="edge2" class="edge"><title>Node2&#45;&gt;Node1</title>
<path fill="none" stroke="midnightblue" d="M59,-64.6275C59,-54.7253 59,-43.8344 59,-35.07"/>
<polygon fill="midnightblue" stroke="midnightblue" points="55.5001,-64.8369 59,-74.8369 62.5001,-64.8369 55.5001,-64.8369"/>
</g>
<!-- Node3 -->
<g id="node4" class="node"><title>Node3</title>
<a xlink:title="STL class. ">
<polygon fill="white" stroke="#bfbfbf" points="29,-160.5 29,-181.5 89,-181.5 89,-160.5 29,-160.5"/>
<text text-anchor="middle" x="59" y="-168.5" font-family="Helvetica,sans-Serif" font-size="10.00">std::string</text>
</a>
</g>
<!-- Node3&#45;&gt;Node2 -->
<g id="edge4" class="edge"><title>Node3&#45;&gt;Node2</title>
<path fill="none" stroke="#9a32cd" stroke-dasharray="5,2" d="M59,-150.162C59,-137.363 59,-121.171 59,-109.124"/>
<polygon fill="#9a32cd" stroke="#9a32cd" points="55.5001,-150.346 59,-160.346 62.5001,-150.346 55.5001,-150.346"/>
<text text-anchor="middle" x="74" y="-132.5" font-family="Helvetica,sans-Serif" font-size="10.00"> Name</text>
</g>
<!-- Node4 -->
<g id="node6" class="node"><title>Node4</title>
<a xlink:title="STL class. ">
<polygon fill="white" stroke="#bfbfbf" points="11.5,-221 11.5,-255 106.5,-255 106.5,-221 11.5,-221"/>
<text text-anchor="start" x="19.5" y="-242" font-family="Helvetica,sans-Serif" font-size="10.00">std::basic_string&lt;</text>
<text text-anchor="middle" x="59" y="-229" font-family="Helvetica,sans-Serif" font-size="10.00"> char &gt;</text>
</a>
</g>
<!-- Node4&#45;&gt;Node3 -->
<g id="edge6" class="edge"><title>Node4&#45;&gt;Node3</title>
<path fill="none" stroke="midnightblue" d="M59,-210.534C59,-200.306 59,-189.301 59,-181.506"/>
<polygon fill="midnightblue" stroke="midnightblue" points="55.5001,-210.746 59,-220.746 62.5001,-210.746 55.5001,-210.746"/>
</g>
</g>
</svg>
