<?xml version="1.0" encoding="UTF-8" standalone="no"?>
<!DOCTYPE svg PUBLIC "-//W3C//DTD SVG 1.1//EN"
 "http://www.w3.org/Graphics/SVG/1.1/DTD/svg11.dtd">
<!-- Generated by graphviz version 2.26.3 (20100126.1600)
 -->
<!-- Title: ant::calibration::CB_Energy::GUI_Gains Pages: 1 -->
<svg width="996pt" height="521pt"
 viewBox="0.00 0.00 996.00 521.00" xmlns="http://www.w3.org/2000/svg" xmlns:xlink="http://www.w3.org/1999/xlink">
<g id="graph1" class="graph" transform="scale(1 1) rotate(0) translate(4 517)">
<title>ant::calibration::CB_Energy::GUI_Gains</title>
<polygon fill="white" stroke="white" points="-4,5 -4,-517 993,-517 993,5 -4,5"/>
<!-- Node1 -->
<g id="node1" class="node"><title>Node1</title>
<polygon fill="#bfbfbf" stroke="black" points="880.5,-170 880.5,-204 987.5,-204 987.5,-170 880.5,-170"/>
<text text-anchor="start" x="888.5" y="-191" font-family="Helvetica,sans-Serif" font-size="10.00">ant::calibration::CB</text>
<text text-anchor="middle" x="934" y="-178" font-family="Helvetica,sans-Serif" font-size="10.00">_Energy::GUI_Gains</text>
</g>
<!-- Node2 -->
<g id="node2" class="node"><title>Node2</title>
<a xlink:href="structant_1_1calibration_1_1_energy_1_1_g_u_i___calib_type.html" target="_top" xlink:title="The GUI_CalibType struct is an abstract base class for handling the data storage for a provided Calib...">
<polygon fill="white" stroke="black" points="668.5,-379 668.5,-413 785.5,-413 785.5,-379 668.5,-379"/>
<text text-anchor="start" x="676.5" y="-400" font-family="Helvetica,sans-Serif" font-size="10.00">ant::calibration::Energy</text>
<text text-anchor="middle" x="727" y="-387" font-family="Helvetica,sans-Serif" font-size="10.00">::GUI_CalibType</text>
</a>
</g>
<!-- Node2&#45;&gt;Node1 -->
<g id="edge2" class="edge"><title>Node2&#45;&gt;Node1</title>
<path fill="none" stroke="midnightblue" d="M751.075,-371.692C793.479,-328.879 880.459,-241.058 917.117,-204.047"/>
<polygon fill="midnightblue" stroke="midnightblue" points="748.49,-369.329 743.94,-378.897 753.463,-374.255 748.49,-369.329"/>
</g>
<!-- Node3 -->
<g id="node4" class="node"><title>Node3</title>
<a xlink:href="classant_1_1calibration_1_1gui_1_1_calib_module__traits.html" target="_top" xlink:title="ant::calibration::gui\l::CalibModule_traits">
<polygon fill="white" stroke="black" points="436,-479 436,-513 540,-513 540,-479 436,-479"/>
<text text-anchor="start" x="444" y="-500" font-family="Helvetica,sans-Serif" font-size="10.00">ant::calibration::gui</text>
<text text-anchor="middle" x="488" y="-487" font-family="Helvetica,sans-Serif" font-size="10.00">::CalibModule_traits</text>
</a>
</g>
<!-- Node3&#45;&gt;Node2 -->
<g id="edge4" class="edge"><title>Node3&#45;&gt;Node2</title>
<path fill="none" stroke="midnightblue" d="M549.858,-477.497C580.561,-467.499 617.862,-454.11 650,-439 666.489,-431.248 684.286,-421.411 698.613,-413.103"/>
<polygon fill="midnightblue" stroke="midnightblue" points="548.585,-474.229 540.136,-480.622 550.727,-480.894 548.585,-474.229"/>
</g>
<!-- Node4 -->
<g id="node6" class="node"><title>Node4</title>
<a xlink:href="structant_1_1calibration_1_1_energy_1_1_calib_type.html" target="_top" xlink:title="The CalibType struct stores the data for the Updateable interface and for the GUI. ">
<polygon fill="white" stroke="black" points="429.5,-427 429.5,-461 546.5,-461 546.5,-427 429.5,-427"/>
<text text-anchor="start" x="437.5" y="-448" font-family="Helvetica,sans-Serif" font-size="10.00">ant::calibration::Energy</text>
<text text-anchor="middle" x="488" y="-435" font-family="Helvetica,sans-Serif" font-size="10.00">::CalibType</text>
</a>
</g>
<!-- Node4&#45;&gt;Node2 -->
<g id="edge6" class="edge"><title>Node4&#45;&gt;Node2</title>
<path fill="none" stroke="#9a32cd" stroke-dasharray="5,2" d="M556.997,-430.143C592.289,-423.055 634.781,-414.521 668.455,-407.758"/>
<polygon fill="#9a32cd" stroke="#9a32cd" points="555.887,-426.796 546.772,-432.196 557.266,-433.659 555.887,-426.796"/>
<text text-anchor="middle" x="619" y="-426" font-family="Helvetica,sans-Serif" font-size="10.00"> calibType</text>
</g>
<!-- Node5 -->
<g id="node8" class="node"><title>Node5</title>
<a xlink:title="STL class. ">
<polygon fill="white" stroke="#bfbfbf" points="213,-467.5 213,-488.5 273,-488.5 273,-467.5 213,-467.5"/>
<text text-anchor="middle" x="243" y="-475.5" font-family="Helvetica,sans-Serif" font-size="10.00">std::string</text>
</a>
</g>
<!-- Node5&#45;&gt;Node4 -->
<g id="edge8" class="edge"><title>Node5&#45;&gt;Node4</title>
<path fill="none" stroke="#9a32cd" stroke-dasharray="5,2" d="M283.138,-472.43C322.816,-466.924 383.97,-458.437 429.141,-452.168"/>
<polygon fill="#9a32cd" stroke="#9a32cd" points="282.466,-468.989 273.042,-473.831 283.428,-475.923 282.466,-468.989"/>
<text text-anchor="middle" x="352" y="-484" font-family="Helvetica,sans-Serif" font-size="10.00"> Name</text>
<text text-anchor="middle" x="352" y="-471" font-family="Helvetica,sans-Serif" font-size="10.00">HistogramName</text>
</g>
<!-- Node6 -->
<g id="node10" class="node"><title>Node6</title>
<a xlink:title="STL class. ">
<polygon fill="white" stroke="#bfbfbf" points="6.5,-461 6.5,-495 101.5,-495 101.5,-461 6.5,-461"/>
<text text-anchor="start" x="14.5" y="-482" font-family="Helvetica,sans-Serif" font-size="10.00">std::basic_string&lt;</text>
<text text-anchor="middle" x="54" y="-469" font-family="Helvetica,sans-Serif" font-size="10.00"> char &gt;</text>
</a>
</g>
<!-- Node6&#45;&gt;Node5 -->
<g id="edge10" class="edge"><title>Node6&#45;&gt;Node5</title>
<path fill="none" stroke="midnightblue" d="M111.781,-478C145.109,-478 185.651,-478 212.771,-478"/>
<polygon fill="midnightblue" stroke="midnightblue" points="111.693,-474.5 101.693,-478 111.693,-481.5 111.693,-474.5"/>
</g>
<!-- Node7 -->
<g id="node12" class="node"><title>Node7</title>
<polygon fill="white" stroke="#bfbfbf" points="188,-385.5 188,-406.5 298,-406.5 298,-385.5 188,-385.5"/>
<text text-anchor="middle" x="243" y="-393.5" font-family="Helvetica,sans-Serif" font-size="10.00">std::vector&lt; double &gt;</text>
</g>
<!-- Node7&#45;&gt;Node2 -->
<g id="edge18" class="edge"><title>Node7&#45;&gt;Node2</title>
<path fill="none" stroke="#9a32cd" stroke-dasharray="5,2" d="M308.078,-396C402.793,-396 577.219,-396 668.237,-396"/>
<polygon fill="#9a32cd" stroke="#9a32cd" points="308.05,-392.5 298.05,-396 308.05,-399.5 308.05,-392.5"/>
<text text-anchor="middle" x="488" y="-400" font-family="Helvetica,sans-Serif" font-size="10.00"> previousValues</text>
</g>
<!-- Node7&#45;&gt;Node4 -->
<g id="edge12" class="edge"><title>Node7&#45;&gt;Node4</title>
<path fill="none" stroke="#9a32cd" stroke-dasharray="5,2" d="M306.668,-408.474C344.537,-415.893 392.243,-425.239 429.217,-432.483"/>
<polygon fill="#9a32cd" stroke="#9a32cd" points="307.253,-405.022 296.766,-406.534 305.907,-411.891 307.253,-405.022"/>
<text text-anchor="middle" x="352" y="-441" font-family="Helvetica,sans-Serif" font-size="10.00"> Values</text>
<text text-anchor="middle" x="352" y="-428" font-family="Helvetica,sans-Serif" font-size="10.00">DefaultValues</text>
</g>
<!-- Node8 -->
<g id="node14" class="node"><title>Node8</title>
<polygon fill="white" stroke="#bfbfbf" points="427,-326 427,-360 549,-360 549,-326 427,-326"/>
<text text-anchor="start" x="435" y="-347" font-family="Helvetica,sans-Serif" font-size="10.00">std::map&lt; unsigned,</text>
<text text-anchor="middle" x="488" y="-334" font-family="Helvetica,sans-Serif" font-size="10.00"> std::vector&lt; double &gt; &gt;</text>
</g>
<!-- Node7&#45;&gt;Node8 -->
<g id="edge16" class="edge"><title>Node7&#45;&gt;Node8</title>
<path fill="none" stroke="#9a32cd" stroke-dasharray="5,2" d="M276.92,-381.815C289.075,-377.172 302.99,-372.352 316,-369 352.264,-359.657 393.752,-353.265 426.895,-349.157"/>
<polygon fill="#9a32cd" stroke="#9a32cd" points="275.633,-378.561 267.6,-385.47 278.188,-385.078 275.633,-378.561"/>
<text text-anchor="middle" x="352" y="-373" font-family="Helvetica,sans-Serif" font-size="10.00"> elements</text>
</g>
<!-- Node8&#45;&gt;Node2 -->
<g id="edge14" class="edge"><title>Node8&#45;&gt;Node2</title>
<path fill="none" stroke="#9a32cd" stroke-dasharray="5,2" d="M559.544,-351.681C587.936,-355.852 620.736,-361.584 650,-369 660.711,-371.714 672.043,-375.281 682.624,-378.929"/>
<polygon fill="#9a32cd" stroke="#9a32cd" points="559.693,-348.167 549.298,-350.214 558.701,-355.096 559.693,-348.167"/>
<text text-anchor="middle" x="619" y="-373" font-family="Helvetica,sans-Serif" font-size="10.00"> fitParameters</text>
</g>
<!-- Node9 -->
<g id="node18" class="node"><title>Node9</title>
<a xlink:href="classant_1_1calibration_1_1gui_1_1_cal_canvas.html" target="_top" xlink:title="ant::calibration::gui\l::CalCanvas">
<polygon fill="white" stroke="black" points="677.5,-170 677.5,-204 776.5,-204 776.5,-170 677.5,-170"/>
<text text-anchor="start" x="685.5" y="-191" font-family="Helvetica,sans-Serif" font-size="10.00">ant::calibration::gui</text>
<text text-anchor="middle" x="727" y="-178" font-family="Helvetica,sans-Serif" font-size="10.00">::CalCanvas</text>
</a>
</g>
<!-- Node9&#45;&gt;Node1 -->
<g id="edge20" class="edge"><title>Node9&#45;&gt;Node1</title>
<path fill="none" stroke="#9a32cd" stroke-dasharray="5,2" d="M786.782,-187C816.365,-187 851.787,-187 880.472,-187"/>
<polygon fill="#9a32cd" stroke="#9a32cd" points="786.582,-183.5 776.582,-187 786.582,-190.5 786.582,-183.5"/>
<text text-anchor="middle" x="833" y="-191" font-family="Helvetica,sans-Serif" font-size="10.00"> canvas</text>
</g>
<!-- Node10 -->
<g id="node20" class="node"><title>Node10</title>
<polygon fill="white" stroke="#bfbfbf" points="460,-286.5 460,-307.5 516,-307.5 516,-286.5 460,-286.5"/>
<text text-anchor="middle" x="488" y="-294.5" font-family="Helvetica,sans-Serif" font-size="10.00">TCanvas</text>
</g>
<!-- Node10&#45;&gt;Node9 -->
<g id="edge22" class="edge"><title>Node10&#45;&gt;Node9</title>
<path fill="none" stroke="midnightblue" d="M526.241,-298.152C560.586,-297.607 611.397,-292.785 650,-272 679.629,-256.047 703.695,-224.113 716.631,-204.251"/>
<polygon fill="midnightblue" stroke="midnightblue" points="526.127,-294.652 516.142,-298.197 526.158,-301.652 526.127,-294.652"/>
</g>
<!-- Node11 -->
<g id="node22" class="node"><title>Node11</title>
<a xlink:href="classant_1_1calibration_1_1gui_1_1update__notify__traits.html" target="_top" xlink:title="ant::calibration::gui\l::update_notify_traits">
<polygon fill="white" stroke="black" points="0,-219 0,-253 108,-253 108,-219 0,-219"/>
<text text-anchor="start" x="8" y="-240" font-family="Helvetica,sans-Serif" font-size="10.00">ant::calibration::gui</text>
<text text-anchor="middle" x="54" y="-227" font-family="Helvetica,sans-Serif" font-size="10.00">::update_notify_traits</text>
</a>
</g>
<!-- Node11&#45;&gt;Node9 -->
<g id="edge24" class="edge"><title>Node11&#45;&gt;Node9</title>
<path fill="none" stroke="midnightblue" d="M118.183,-241.862C216.102,-249.57 408.461,-259.849 570,-239 612.146,-233.561 658.034,-217.031 689.252,-204.052"/>
<polygon fill="midnightblue" stroke="midnightblue" points="118.396,-238.368 108.148,-241.055 117.835,-245.345 118.396,-238.368"/>
</g>
<!-- Node16 -->
<g id="node32" class="node"><title>Node16</title>
<a xlink:href="classant_1_1calibration_1_1gui_1_1_indicator.html" target="_top" xlink:title="ant::calibration::gui\l::Indicator">
<polygon fill="white" stroke="black" points="193.5,-196 193.5,-230 292.5,-230 292.5,-196 193.5,-196"/>
<text text-anchor="start" x="201.5" y="-217" font-family="Helvetica,sans-Serif" font-size="10.00">ant::calibration::gui</text>
<text text-anchor="middle" x="243" y="-204" font-family="Helvetica,sans-Serif" font-size="10.00">::Indicator</text>
</a>
</g>
<!-- Node11&#45;&gt;Node16 -->
<g id="edge36" class="edge"><title>Node11&#45;&gt;Node16</title>
<path fill="none" stroke="midnightblue" d="M118.123,-228.197C142.698,-225.206 170.341,-221.842 193.36,-219.041"/>
<polygon fill="midnightblue" stroke="midnightblue" points="117.664,-224.727 108.16,-229.409 118.509,-231.675 117.664,-224.727"/>
</g>
<!-- Node12 -->
<g id="node24" class="node"><title>Node12</title>
<polygon fill="white" stroke="#bfbfbf" points="406,-144 406,-178 570,-178 570,-144 406,-144"/>
<text text-anchor="start" x="414" y="-165" font-family="Helvetica,sans-Serif" font-size="10.00">std::stack&lt; ant::calibration</text>
<text text-anchor="middle" x="488" y="-152" font-family="Helvetica,sans-Serif" font-size="10.00">::gui::FitFunction::SavedState_t &gt;</text>
</g>
<!-- Node12&#45;&gt;Node9 -->
<g id="edge26" class="edge"><title>Node12&#45;&gt;Node9</title>
<path fill="none" stroke="#9a32cd" stroke-dasharray="5,2" d="M580.174,-166.997C603.031,-168.869 627.439,-171.196 650,-174 658.879,-175.104 668.298,-176.502 677.389,-177.971"/>
<polygon fill="#9a32cd" stroke="#9a32cd" points="580.386,-163.503 570.139,-166.195 579.829,-170.48 580.386,-163.503"/>
<text text-anchor="middle" x="619" y="-178" font-family="Helvetica,sans-Serif" font-size="10.00"> UndoStack</text>
</g>
<!-- Node13 -->
<g id="node26" class="node"><title>Node13</title>
<a xlink:title="STL class. ">
<polygon fill="white" stroke="#bfbfbf" points="199.5,-150.5 199.5,-171.5 286.5,-171.5 286.5,-150.5 199.5,-150.5"/>
<text text-anchor="middle" x="243" y="-158.5" font-family="Helvetica,sans-Serif" font-size="10.00">std::vector&lt; T &gt;</text>
</a>
</g>
<!-- Node13&#45;&gt;Node12 -->
<g id="edge28" class="edge"><title>Node13&#45;&gt;Node12</title>
<path fill="none" stroke="#9a32cd" stroke-dasharray="5,2" d="M296.55,-161C328.509,-161 369.752,-161 405.769,-161"/>
<polygon fill="#9a32cd" stroke="#9a32cd" points="296.519,-157.5 286.519,-161 296.519,-164.5 296.519,-157.5"/>
<text text-anchor="middle" x="352" y="-165" font-family="Helvetica,sans-Serif" font-size="10.00"> elements</text>
</g>
<!-- Node14 -->
<g id="node28" class="node"><title>Node14</title>
<polygon fill="white" stroke="#bfbfbf" points="39.5,-150.5 39.5,-171.5 68.5,-171.5 68.5,-150.5 39.5,-150.5"/>
<text text-anchor="middle" x="54" y="-158.5" font-family="Helvetica,sans-Serif" font-size="10.00">T</text>
</g>
<!-- Node14&#45;&gt;Node13 -->
<g id="edge30" class="edge"><title>Node14&#45;&gt;Node13</title>
<path fill="none" stroke="#9a32cd" stroke-dasharray="5,2" d="M78.7289,-161C109.344,-161 162.018,-161 199.462,-161"/>
<polygon fill="#9a32cd" stroke="#9a32cd" points="78.5167,-157.5 68.5167,-161 78.5167,-164.5 78.5167,-157.5"/>
<text text-anchor="middle" x="148" y="-165" font-family="Helvetica,sans-Serif" font-size="10.00"> elements</text>
</g>
<!-- Node15 -->
<g id="node30" class="node"><title>Node15</title>
<polygon fill="white" stroke="#bfbfbf" points="427,-196 427,-230 549,-230 549,-196 427,-196"/>
<text text-anchor="start" x="435" y="-217" font-family="Helvetica,sans-Serif" font-size="10.00">std::list&lt; ant::calibration</text>
<text text-anchor="middle" x="488" y="-204" font-family="Helvetica,sans-Serif" font-size="10.00">::gui::Indicator * &gt;</text>
</g>
<!-- Node15&#45;&gt;Node9 -->
<g id="edge32" class="edge"><title>Node15&#45;&gt;Node9</title>
<path fill="none" stroke="#9a32cd" stroke-dasharray="5,2" d="M559.222,-205.252C597.214,-201.119 643.032,-196.135 677.181,-192.42"/>
<polygon fill="#9a32cd" stroke="#9a32cd" points="558.801,-201.777 549.238,-206.338 559.558,-208.736 558.801,-201.777"/>
<text text-anchor="middle" x="619" y="-205" font-family="Helvetica,sans-Serif" font-size="10.00"> indicators</text>
</g>
<!-- Node16&#45;&gt;Node15 -->
<g id="edge34" class="edge"><title>Node16&#45;&gt;Node15</title>
<path fill="none" stroke="#9a32cd" stroke-dasharray="5,2" d="M302.886,-213C340.503,-213 388.893,-213 426.764,-213"/>
<polygon fill="#9a32cd" stroke="#9a32cd" points="302.579,-209.5 292.579,-213 302.579,-216.5 302.579,-209.5"/>
<text text-anchor="middle" x="352" y="-217" font-family="Helvetica,sans-Serif" font-size="10.00"> elements</text>
</g>
<!-- Node17 -->
<g id="node35" class="node"><title>Node17</title>
<a xlink:href="structant_1_1calibration_1_1gui_1_1_cal_canvas_1_1axis__settings__t.html" target="_top" xlink:title="ant::calibration::gui\l::CalCanvas::axis_settings_t">
<polygon fill="white" stroke="black" points="416.5,-92 416.5,-126 559.5,-126 559.5,-92 416.5,-92"/>
<text text-anchor="start" x="424.5" y="-113" font-family="Helvetica,sans-Serif" font-size="10.00">ant::calibration::gui</text>
<text text-anchor="middle" x="488" y="-100" font-family="Helvetica,sans-Serif" font-size="10.00">::CalCanvas::axis_settings_t</text>
</a>
</g>
<!-- Node17&#45;&gt;Node9 -->
<g id="edge38" class="edge"><title>Node17&#45;&gt;Node9</title>
<path fill="none" stroke="#9a32cd" stroke-dasharray="5,2" d="M569.649,-127.06C595.639,-133.632 624.305,-141.751 650,-151 664.718,-156.298 680.449,-163.38 693.831,-169.861"/>
<polygon fill="#9a32cd" stroke="#9a32cd" points="570.38,-123.635 559.831,-124.618 568.69,-130.428 570.38,-123.635"/>
<text text-anchor="middle" x="619" y="-155" font-family="Helvetica,sans-Serif" font-size="10.00"> axis_settings</text>
</g>
<!-- Node18 -->
<g id="node37" class="node"><title>Node18</title>
<a xlink:href="classant_1_1calibration_1_1gui_1_1_fit_function.html" target="_top" xlink:title="ant::calibration::gui\l::FitFunction">
<polygon fill="white" stroke="black" points="438.5,-40 438.5,-74 537.5,-74 537.5,-40 438.5,-40"/>
<text text-anchor="start" x="446.5" y="-61" font-family="Helvetica,sans-Serif" font-size="10.00">ant::calibration::gui</text>
<text text-anchor="middle" x="488" y="-48" font-family="Helvetica,sans-Serif" font-size="10.00">::FitFunction</text>
</a>
</g>
<!-- Node18&#45;&gt;Node9 -->
<g id="edge40" class="edge"><title>Node18&#45;&gt;Node9</title>
<path fill="none" stroke="#9a32cd" stroke-dasharray="5,2" d="M547.408,-70.9318C579.391,-80.1014 618.606,-94.1327 650,-114 674.594,-129.564 698.161,-153.723 712.6,-169.939"/>
<polygon fill="#9a32cd" stroke="#9a32cd" points="548.303,-67.548 537.731,-68.2411 546.428,-74.2922 548.303,-67.548"/>
<text text-anchor="middle" x="619" y="-118" font-family="Helvetica,sans-Serif" font-size="10.00"> func</text>
</g>
<!-- Node19 -->
<g id="node39" class="node"><title>Node19</title>
<a xlink:href="classant_1_1_t_h2_c_b.html" target="_top" xlink:title="The TH2CB class. ">
<polygon fill="white" stroke="black" points="692.5,-37.5 692.5,-58.5 761.5,-58.5 761.5,-37.5 692.5,-37.5"/>
<text text-anchor="middle" x="727" y="-45.5" font-family="Helvetica,sans-Serif" font-size="10.00">ant::TH2CB</text>
</a>
</g>
<!-- Node19&#45;&gt;Node1 -->
<g id="edge42" class="edge"><title>Node19&#45;&gt;Node1</title>
<path fill="none" stroke="#9a32cd" stroke-dasharray="5,2" d="M751.651,-64.5531C791.226,-91.1279 868.542,-143.045 908.593,-169.939"/>
<polygon fill="#9a32cd" stroke="#9a32cd" points="753.152,-61.3454 742.899,-58.6763 749.25,-67.1568 753.152,-61.3454"/>
<text text-anchor="middle" x="833" y="-155" font-family="Helvetica,sans-Serif" font-size="10.00"> h_peaks_cb</text>
<text text-anchor="middle" x="833" y="-142" font-family="Helvetica,sans-Serif" font-size="10.00">h_relative_cb</text>
</g>
<!-- Node20 -->
<g id="node41" class="node"><title>Node20</title>
<a xlink:href="classant_1_1_t_h2_crystals.html" target="_top" xlink:title="Base class for A2 Calorimeter display classes. ">
<polygon fill="white" stroke="black" points="442,-0.5 442,-21.5 534,-21.5 534,-0.5 442,-0.5"/>
<text text-anchor="middle" x="488" y="-8.5" font-family="Helvetica,sans-Serif" font-size="10.00">ant::TH2Crystals</text>
</a>
</g>
<!-- Node20&#45;&gt;Node19 -->
<g id="edge44" class="edge"><title>Node20&#45;&gt;Node19</title>
<path fill="none" stroke="midnightblue" d="M544.36,-19.0647C575.526,-23.5958 614.931,-29.4425 650,-35 663.792,-37.1856 678.95,-39.717 692.143,-41.962"/>
<polygon fill="midnightblue" stroke="midnightblue" points="544.523,-15.5519 534.125,-17.5807 543.519,-22.4794 544.523,-15.5519"/>
</g>
<!-- Node21 -->
<g id="node43" class="node"><title>Node21</title>
<polygon fill="white" stroke="#bfbfbf" points="215.5,-0.5 215.5,-21.5 270.5,-21.5 270.5,-0.5 215.5,-0.5"/>
<text text-anchor="middle" x="243" y="-8.5" font-family="Helvetica,sans-Serif" font-size="10.00">TH2Poly</text>
</g>
<!-- Node21&#45;&gt;Node20 -->
<g id="edge46" class="edge"><title>Node21&#45;&gt;Node20</title>
<path fill="none" stroke="midnightblue" d="M280.746,-11C324.055,-11 395.084,-11 441.697,-11"/>
<polygon fill="midnightblue" stroke="midnightblue" points="280.628,-7.5001 270.628,-11 280.628,-14.5001 280.628,-7.5001"/>
</g>
</g>
</svg>
