<?xml version="1.0" encoding="UTF-8" standalone="no"?>
<!DOCTYPE svg PUBLIC "-//W3C//DTD SVG 1.1//EN"
 "http://www.w3.org/Graphics/SVG/1.1/DTD/svg11.dtd">
<!-- Generated by graphviz version 2.26.3 (20100126.1600)
 -->
<!-- Title: ant::analysis::slowcontrol::event_t Pages: 1 -->
<svg width="2602pt" height="917pt"
 viewBox="0.00 0.00 2602.00 917.00" xmlns="http://www.w3.org/2000/svg" xmlns:xlink="http://www.w3.org/1999/xlink">
<g id="graph1" class="graph" transform="scale(1 1) rotate(0) translate(4 913)">
<title>ant::analysis::slowcontrol::event_t</title>
<polygon fill="white" stroke="white" points="-4,5 -4,-913 2599,-913 2599,5 -4,5"/>
<!-- Node1 -->
<g id="node1" class="node"><title>Node1</title>
<polygon fill="#bfbfbf" stroke="black" points="2466,-860 2466,-894 2594,-894 2594,-860 2466,-860"/>
<text text-anchor="start" x="2474" y="-881" font-family="Helvetica,sans-Serif" font-size="10.00">ant::analysis::slowcontrol</text>
<text text-anchor="middle" x="2530" y="-868" font-family="Helvetica,sans-Serif" font-size="10.00">::event_t</text>
</g>
<!-- Node2 -->
<g id="node2" class="node"><title>Node2</title>
<polygon fill="white" stroke="#bfbfbf" points="2254.5,-887.5 2254.5,-908.5 2355.5,-908.5 2355.5,-887.5 2254.5,-887.5"/>
<text text-anchor="middle" x="2305" y="-895.5" font-family="Helvetica,sans-Serif" font-size="10.00">std::list&lt; action_t &gt;</text>
</g>
<!-- Node2&#45;&gt;Node1 -->
<g id="edge2" class="edge"><title>Node2&#45;&gt;Node1</title>
<path fill="none" stroke="#9a32cd" stroke-dasharray="5,2" d="M2365.98,-892.309C2396.86,-889.426 2434.36,-885.927 2465.7,-883.002"/>
<polygon fill="#9a32cd" stroke="#9a32cd" points="2365.41,-888.847 2355.77,-893.261 2366.06,-895.816 2365.41,-888.847"/>
<text text-anchor="middle" x="2411" y="-895" font-family="Helvetica,sans-Serif" font-size="10.00"> DeferredActions</text>
</g>
<!-- Node3 -->
<g id="node4" class="node"><title>Node3</title>
<a xlink:href="structant_1_1analysis_1_1input_1_1event__t.html" target="_top" xlink:title="ant::analysis::input\l::event_t">
<polygon fill="white" stroke="black" points="2255.5,-835 2255.5,-869 2354.5,-869 2354.5,-835 2255.5,-835"/>
<text text-anchor="start" x="2263.5" y="-856" font-family="Helvetica,sans-Serif" font-size="10.00">ant::analysis::input</text>
<text text-anchor="middle" x="2305" y="-843" font-family="Helvetica,sans-Serif" font-size="10.00">::event_t</text>
</a>
</g>
<!-- Node3&#45;&gt;Node1 -->
<g id="edge4" class="edge"><title>Node3&#45;&gt;Node1</title>
<path fill="none" stroke="#9a32cd" stroke-dasharray="5,2" d="M2364.94,-858.66C2396.09,-862.121 2434.18,-866.354 2465.92,-869.88"/>
<polygon fill="#9a32cd" stroke="#9a32cd" points="2364.98,-855.143 2354.66,-857.517 2364.21,-862.1 2364.98,-855.143"/>
<text text-anchor="middle" x="2411" y="-871" font-family="Helvetica,sans-Serif" font-size="10.00"> Event</text>
</g>
<!-- Node4 -->
<g id="node6" class="node"><title>Node4</title>
<a xlink:href="structant_1_1_t_event.html" target="_top" xlink:title="ant::TEvent">
<polygon fill="white" stroke="black" points="2148,-841.5 2148,-862.5 2216,-862.5 2216,-841.5 2148,-841.5"/>
<text text-anchor="middle" x="2182" y="-849.5" font-family="Helvetica,sans-Serif" font-size="10.00">ant::TEvent</text>
</a>
</g>
<!-- Node4&#45;&gt;Node3 -->
<g id="edge6" class="edge"><title>Node4&#45;&gt;Node3</title>
<path fill="none" stroke="midnightblue" d="M2226.52,-852C2235.86,-852 2245.77,-852 2255.29,-852"/>
<polygon fill="midnightblue" stroke="midnightblue" points="2226.26,-848.5 2216.26,-852 2226.26,-855.5 2226.26,-848.5"/>
</g>
<!-- Node5 -->
<g id="node8" class="node"><title>Node5</title>
<a xlink:href="classant_1_1printable__traits.html" target="_top" xlink:title="ant::printable_traits">
<polygon fill="white" stroke="black" points="149,-529.5 149,-550.5 249,-550.5 249,-529.5 149,-529.5"/>
<text text-anchor="middle" x="199" y="-537.5" font-family="Helvetica,sans-Serif" font-size="10.00">ant::printable_traits</text>
</a>
</g>
<!-- Node5&#45;&gt;Node4 -->
<g id="edge8" class="edge"><title>Node5&#45;&gt;Node4</title>
<path fill="none" stroke="midnightblue" d="M201.014,-560.803C206.461,-607.507 225.134,-722.43 282,-797 329.69,-859.537 351.353,-894 430,-894 430,-894 430,-894 1996,-894 2052.94,-894 2117.33,-875.041 2153.46,-862.598"/>
<polygon fill="midnightblue" stroke="midnightblue" points="204.476,-560.268 199.922,-550.702 197.517,-561.021 204.476,-560.268"/>
</g>
<!-- Node7 -->
<g id="node12" class="node"><title>Node7</title>
<a xlink:href="structant_1_1_t_event_data.html" target="_top" xlink:title="ant::TEventData">
<polygon fill="white" stroke="black" points="1802.5,-519.5 1802.5,-540.5 1891.5,-540.5 1891.5,-519.5 1802.5,-519.5"/>
<text text-anchor="middle" x="1847" y="-527.5" font-family="Helvetica,sans-Serif" font-size="10.00">ant::TEventData</text>
</a>
</g>
<!-- Node5&#45;&gt;Node7 -->
<g id="edge14" class="edge"><title>Node5&#45;&gt;Node7</title>
<path fill="none" stroke="midnightblue" d="M203.24,-519.349C211.933,-481.622 235.035,-400.861 282,-351 309.394,-321.917 323.396,-320.294 362,-310 560.626,-257.036 618.434,-288 824,-288 824,-288 824,-288 1637,-288 1761.33,-288 1828.63,-472.455 1843.72,-519.289"/>
<polygon fill="midnightblue" stroke="midnightblue" points="199.805,-518.674 201.078,-529.192 206.642,-520.176 199.805,-518.674"/>
</g>
<!-- Node17 -->
<g id="node35" class="node"><title>Node17</title>
<a xlink:href="structant_1_1_t_detector_read_hit.html" target="_top" xlink:title="ant::TDetectorReadHit">
<polygon fill="white" stroke="black" points="372,-76.5 372,-97.5 488,-97.5 488,-76.5 372,-76.5"/>
<text text-anchor="middle" x="430" y="-84.5" font-family="Helvetica,sans-Serif" font-size="10.00">ant::TDetectorReadHit</text>
</a>
</g>
<!-- Node5&#45;&gt;Node17 -->
<g id="edge40" class="edge"><title>Node5&#45;&gt;Node17</title>
<path fill="none" stroke="midnightblue" d="M204.158,-519.291C220.964,-452.023 273.555,-243.273 282,-231 301.301,-202.95 318.895,-209.001 344,-186 375.895,-156.778 407.818,-116.399 422.159,-97.5209"/>
<polygon fill="midnightblue" stroke="midnightblue" points="200.722,-518.602 201.697,-529.152 207.514,-520.297 200.722,-518.602"/>
</g>
<!-- Node22 -->
<g id="node46" class="node"><title>Node22</title>
<a xlink:href="structant_1_1_t_unpacker_message.html" target="_top" xlink:title="ant::TUnpackerMessage">
<polygon fill="white" stroke="black" points="368,-180.5 368,-201.5 492,-201.5 492,-180.5 368,-180.5"/>
<text text-anchor="middle" x="430" y="-188.5" font-family="Helvetica,sans-Serif" font-size="10.00">ant::TUnpackerMessage</text>
</a>
</g>
<!-- Node5&#45;&gt;Node22 -->
<g id="edge52" class="edge"><title>Node5&#45;&gt;Node22</title>
<path fill="none" stroke="midnightblue" d="M201.166,-519.28C206.895,-473.276 226.053,-360.927 282,-288 314.444,-245.71 370.891,-216.188 403.904,-201.553"/>
<polygon fill="midnightblue" stroke="midnightblue" points="197.686,-518.911 200.01,-529.247 204.639,-519.717 197.686,-518.911"/>
</g>
<!-- Node26 -->
<g id="node56" class="node"><title>Node26</title>
<a xlink:href="structant_1_1_t_tagger_hit.html" target="_top" xlink:title="ant::TTaggerHit">
<polygon fill="white" stroke="black" points="1265.5,-660.5 1265.5,-681.5 1350.5,-681.5 1350.5,-660.5 1265.5,-660.5"/>
<text text-anchor="middle" x="1308" y="-668.5" font-family="Helvetica,sans-Serif" font-size="10.00">ant::TTaggerHit</text>
</a>
</g>
<!-- Node5&#45;&gt;Node26 -->
<g id="edge64" class="edge"><title>Node5&#45;&gt;Node26</title>
<path fill="none" stroke="midnightblue" d="M203.077,-560.696C211.32,-596.897 233.475,-671.604 282,-711 310.453,-734.101 325.625,-726.522 362,-731 506.685,-748.812 662.228,-723.4 1072,-697 1142.25,-692.474 1160.2,-695.108 1230,-686 1241.49,-684.501 1253.83,-682.371 1265.24,-680.185"/>
<polygon fill="midnightblue" stroke="midnightblue" points="206.469,-559.824 200.951,-550.779 199.625,-561.291 206.469,-559.824"/>
</g>
<!-- Node28 -->
<g id="node61" class="node"><title>Node28</title>
<a xlink:href="structant_1_1_t_key_value.html" target="_top" xlink:title="ant::TKeyValue\&lt; ant\l::TTaggerHit::Electron_t \&gt;">
<polygon fill="white" stroke="black" points="597.5,-654 597.5,-688 728.5,-688 728.5,-654 597.5,-654"/>
<text text-anchor="start" x="605.5" y="-675" font-family="Helvetica,sans-Serif" font-size="10.00">ant::TKeyValue&lt; ant</text>
<text text-anchor="middle" x="663" y="-662" font-family="Helvetica,sans-Serif" font-size="10.00">::TTaggerHit::Electron_t &gt;</text>
</a>
</g>
<!-- Node5&#45;&gt;Node28 -->
<g id="edge70" class="edge"><title>Node5&#45;&gt;Node28</title>
<path fill="none" stroke="midnightblue" d="M214.465,-558.339C229.848,-575.369 254.997,-600.122 282,-614 383.275,-666.048 518.354,-674.078 597.483,-673.617"/>
<polygon fill="midnightblue" stroke="midnightblue" points="216.964,-555.88 207.733,-550.681 211.707,-560.502 216.964,-555.88"/>
</g>
<!-- Node29 -->
<g id="node64" class="node"><title>Node29</title>
<a xlink:href="structant_1_1_t_tagger_hit_1_1_electron__t.html" target="_top" xlink:title="ant::TTaggerHit::Electron_t">
<polygon fill="white" stroke="black" points="362.5,-700.5 362.5,-721.5 497.5,-721.5 497.5,-700.5 362.5,-700.5"/>
<text text-anchor="middle" x="430" y="-708.5" font-family="Helvetica,sans-Serif" font-size="10.00">ant::TTaggerHit::Electron_t</text>
</a>
</g>
<!-- Node5&#45;&gt;Node29 -->
<g id="edge74" class="edge"><title>Node5&#45;&gt;Node29</title>
<path fill="none" stroke="midnightblue" d="M204.401,-560.284C214.121,-592.546 237.788,-655.06 282,-686 305.164,-702.211 335.279,-709.171 362.291,-711.81"/>
<polygon fill="midnightblue" stroke="midnightblue" points="207.744,-559.244 201.63,-550.592 201.014,-561.169 207.744,-559.244"/>
</g>
<!-- Node30 -->
<g id="node67" class="node"><title>Node30</title>
<a xlink:href="structant_1_1_t_i_d.html" target="_top" xlink:title="ant::TID">
<polygon fill="white" stroke="black" points="516.5,-828.5 516.5,-849.5 569.5,-849.5 569.5,-828.5 516.5,-828.5"/>
<text text-anchor="middle" x="543" y="-836.5" font-family="Helvetica,sans-Serif" font-size="10.00">ant::TID</text>
</a>
</g>
<!-- Node5&#45;&gt;Node30 -->
<g id="edge78" class="edge"><title>Node5&#45;&gt;Node30</title>
<path fill="none" stroke="midnightblue" d="M200.595,-560.829C205.107,-604.923 221.864,-708.215 282,-764 349.055,-826.203 464.367,-837.201 516.288,-838.879"/>
<polygon fill="midnightblue" stroke="midnightblue" points="204.068,-560.371 199.675,-550.73 197.097,-561.007 204.068,-560.371"/>
</g>
<!-- Node32 -->
<g id="node72" class="node"><title>Node32</title>
<a xlink:href="structant_1_1_t_target.html" target="_top" xlink:title="ant::TTarget">
<polygon fill="white" stroke="black" points="628,-588.5 628,-609.5 698,-609.5 698,-588.5 628,-588.5"/>
<text text-anchor="middle" x="663" y="-596.5" font-family="Helvetica,sans-Serif" font-size="10.00">ant::TTarget</text>
</a>
</g>
<!-- Node5&#45;&gt;Node32 -->
<g id="edge84" class="edge"><title>Node5&#45;&gt;Node32</title>
<path fill="none" stroke="midnightblue" d="M222.316,-556.117C238.515,-566.788 260.899,-580.512 282,-590 315.975,-605.276 325.175,-609.38 362,-615 453.387,-628.947 477.903,-622.023 570,-614 589.225,-612.325 610.487,-609.007 627.822,-605.917"/>
<polygon fill="midnightblue" stroke="midnightblue" points="224.258,-553.205 214.001,-550.55 220.363,-559.022 224.258,-553.205"/>
</g>
<!-- Node33 -->
<g id="node75" class="node"><title>Node33</title>
<a xlink:href="structant_1_1vec3.html" target="_top" xlink:title="ant::vec3">
<polygon fill="white" stroke="black" points="401.5,-584.5 401.5,-605.5 458.5,-605.5 458.5,-584.5 401.5,-584.5"/>
<text text-anchor="middle" x="430" y="-592.5" font-family="Helvetica,sans-Serif" font-size="10.00">ant::vec3</text>
</a>
</g>
<!-- Node5&#45;&gt;Node33 -->
<g id="edge88" class="edge"><title>Node5&#45;&gt;Node33</title>
<path fill="none" stroke="midnightblue" d="M234.075,-554.259C248.703,-559.789 265.987,-565.79 282,-570 322.827,-580.734 371.249,-587.894 401.305,-591.705"/>
<polygon fill="midnightblue" stroke="midnightblue" points="235.01,-550.868 224.42,-550.533 232.49,-557.399 235.01,-550.868"/>
</g>
<!-- Node35 -->
<g id="node80" class="node"><title>Node35</title>
<a xlink:href="structant_1_1_t_slow_control.html" target="_top" xlink:title="ant::TSlowControl">
<polygon fill="white" stroke="black" points="943.5,-400.5 943.5,-421.5 1038.5,-421.5 1038.5,-400.5 943.5,-400.5"/>
<text text-anchor="middle" x="991" y="-408.5" font-family="Helvetica,sans-Serif" font-size="10.00">ant::TSlowControl</text>
</a>
</g>
<!-- Node5&#45;&gt;Node35 -->
<g id="edge94" class="edge"><title>Node5&#45;&gt;Node35</title>
<path fill="none" stroke="midnightblue" d="M242.018,-526.536C274.63,-516.848 320.727,-504.257 362,-497 595.068,-456.019 661.315,-498.77 892,-446 917.946,-440.065 946.497,-429.516 966.244,-421.546"/>
<polygon fill="midnightblue" stroke="midnightblue" points="240.92,-523.212 232.35,-529.441 242.934,-529.916 240.92,-523.212"/>
</g>
<!-- Node37 -->
<g id="node85" class="node"><title>Node37</title>
<a xlink:href="structant_1_1_t_key_value.html" target="_top" xlink:title="ant::TKeyValue\&lt; double \&gt;">
<polygon fill="white" stroke="black" points="364.5,-425.5 364.5,-446.5 495.5,-446.5 495.5,-425.5 364.5,-425.5"/>
<text text-anchor="middle" x="430" y="-433.5" font-family="Helvetica,sans-Serif" font-size="10.00">ant::TKeyValue&lt; double &gt;</text>
</a>
</g>
<!-- Node5&#45;&gt;Node37 -->
<g id="edge100" class="edge"><title>Node5&#45;&gt;Node37</title>
<path fill="none" stroke="midnightblue" d="M207.327,-520.022C219.417,-493.973 244.557,-449.551 282,-431 316.785,-413.766 362.026,-418.602 393.286,-425.469"/>
<polygon fill="midnightblue" stroke="midnightblue" points="204.058,-518.76 203.204,-529.32 210.457,-521.597 204.058,-518.76"/>
</g>
<!-- Node39 -->
<g id="node90" class="node"><title>Node39</title>
<a xlink:href="structant_1_1_t_key_value.html" target="_top" xlink:title="ant::TKeyValue\&lt; std\l::int64_t \&gt;">
<polygon fill="white" stroke="black" points="376.5,-372 376.5,-406 483.5,-406 483.5,-372 376.5,-372"/>
<text text-anchor="start" x="384.5" y="-393" font-family="Helvetica,sans-Serif" font-size="10.00">ant::TKeyValue&lt; std</text>
<text text-anchor="middle" x="430" y="-380" font-family="Helvetica,sans-Serif" font-size="10.00">::int64_t &gt;</text>
</a>
</g>
<!-- Node5&#45;&gt;Node39 -->
<g id="edge106" class="edge"><title>Node5&#45;&gt;Node39</title>
<path fill="none" stroke="midnightblue" d="M206.416,-519.812C217.942,-491.477 242.975,-440.528 282,-415 309.727,-396.863 346.367,-390.323 376.254,-388.336"/>
<polygon fill="midnightblue" stroke="midnightblue" points="203.151,-518.551 202.779,-529.139 209.673,-521.093 203.151,-518.551"/>
</g>
<!-- Node41 -->
<g id="node96" class="node"><title>Node41</title>
<a xlink:href="structant_1_1_t_key_value.html" target="_top" xlink:title="ant::TKeyValue\&lt; std\l::string \&gt;">
<polygon fill="white" stroke="black" points="376.5,-319 376.5,-353 483.5,-353 483.5,-319 376.5,-319"/>
<text text-anchor="start" x="384.5" y="-340" font-family="Helvetica,sans-Serif" font-size="10.00">ant::TKeyValue&lt; std</text>
<text text-anchor="middle" x="430" y="-327" font-family="Helvetica,sans-Serif" font-size="10.00">::string &gt;</text>
</a>
</g>
<!-- Node5&#45;&gt;Node41 -->
<g id="edge114" class="edge"><title>Node5&#45;&gt;Node41</title>
<path fill="none" stroke="midnightblue" d="M204.818,-519.763C215.124,-487.414 239.598,-424.037 282,-388 308.666,-365.336 345.852,-352.323 376.277,-344.983"/>
<polygon fill="midnightblue" stroke="midnightblue" points="201.43,-518.874 201.861,-529.46 208.126,-520.916 201.43,-518.874"/>
</g>
<!-- Node42 -->
<g id="node100" class="node"><title>Node42</title>
<a xlink:href="structant_1_1_t_trigger.html" target="_top" xlink:title="ant::TTrigger">
<polygon fill="white" stroke="black" points="955,-519.5 955,-540.5 1027,-540.5 1027,-519.5 955,-519.5"/>
<text text-anchor="middle" x="991" y="-527.5" font-family="Helvetica,sans-Serif" font-size="10.00">ant::TTrigger</text>
</a>
</g>
<!-- Node5&#45;&gt;Node42 -->
<g id="edge120" class="edge"><title>Node5&#45;&gt;Node42</title>
<path fill="none" stroke="midnightblue" d="M259.086,-541.589C266.797,-541.751 274.584,-541.895 282,-542 492.647,-544.982 545.332,-543.556 756,-544 816.444,-544.128 831.705,-548.242 892,-544 912.952,-542.526 936.215,-539.318 954.923,-536.344"/>
<polygon fill="midnightblue" stroke="midnightblue" points="259.107,-538.089 249.032,-541.366 258.952,-545.087 259.107,-538.089"/>
</g>
<!-- Node44 -->
<g id="node105" class="node"><title>Node44</title>
<a xlink:href="structant_1_1_t_d_a_q_error.html" target="_top" xlink:title="ant::TDAQError">
<polygon fill="white" stroke="black" points="387.5,-506.5 387.5,-527.5 472.5,-527.5 472.5,-506.5 387.5,-506.5"/>
<text text-anchor="middle" x="430" y="-514.5" font-family="Helvetica,sans-Serif" font-size="10.00">ant::TDAQError</text>
</a>
</g>
<!-- Node5&#45;&gt;Node44 -->
<g id="edge126" class="edge"><title>Node5&#45;&gt;Node44</title>
<path fill="none" stroke="midnightblue" d="M259.083,-534.018C299.319,-530.012 351.314,-524.834 387.339,-521.248"/>
<polygon fill="midnightblue" stroke="midnightblue" points="258.728,-530.536 249.124,-535.009 259.421,-537.501 258.728,-530.536"/>
</g>
<!-- Node6 -->
<g id="node10" class="node"><title>Node6</title>
<polygon fill="white" stroke="#bfbfbf" points="1944,-752 1944,-786 2048,-786 2048,-752 1944,-752"/>
<text text-anchor="start" x="1952" y="-773" font-family="Helvetica,sans-Serif" font-size="10.00">std::unique_ptr&lt; ant</text>
<text text-anchor="middle" x="1996" y="-760" font-family="Helvetica,sans-Serif" font-size="10.00">::TEventData &gt;</text>
</g>
<!-- Node6&#45;&gt;Node4 -->
<g id="edge10" class="edge"><title>Node6&#45;&gt;Node4</title>
<path fill="none" stroke="#9a32cd" stroke-dasharray="5,2" d="M2044.04,-790.439C2080.68,-806.788 2129.58,-828.607 2158.24,-841.397"/>
<polygon fill="#9a32cd" stroke="#9a32cd" points="2045.1,-787.077 2034.54,-786.198 2042.25,-793.469 2045.1,-787.077"/>
<text text-anchor="middle" x="2098" y="-844" font-family="Helvetica,sans-Serif" font-size="10.00"> reconstructed</text>
<text text-anchor="middle" x="2098" y="-831" font-family="Helvetica,sans-Serif" font-size="10.00">mctrue</text>
</g>
<!-- Node7&#45;&gt;Node6 -->
<g id="edge12" class="edge"><title>Node7&#45;&gt;Node6</title>
<path fill="none" stroke="#9a32cd" stroke-dasharray="5,2" d="M1858.97,-549.202C1887.34,-594.71 1958.31,-708.548 1985.33,-751.884"/>
<polygon fill="#9a32cd" stroke="#9a32cd" points="1861.86,-547.212 1853.59,-540.578 1855.91,-550.916 1861.86,-547.212"/>
<text text-anchor="middle" x="1918" y="-660" font-family="Helvetica,sans-Serif" font-size="10.00"> ptr</text>
</g>
<!-- Node8 -->
<g id="node15" class="node"><title>Node8</title>
<a xlink:href="classant_1_1std__ext_1_1shared__ptr__container.html" target="_top" xlink:title="ant::std_ext::shared\l_ptr_container\&lt; TCandidate \&gt;">
<polygon fill="white" stroke="black" points="1564,-109 1564,-143 1710,-143 1710,-109 1564,-109"/>
<text text-anchor="start" x="1572" y="-130" font-family="Helvetica,sans-Serif" font-size="10.00">ant::std_ext::shared</text>
<text text-anchor="middle" x="1637" y="-117" font-family="Helvetica,sans-Serif" font-size="10.00">_ptr_container&lt; TCandidate &gt;</text>
</a>
</g>
<!-- Node8&#45;&gt;Node7 -->
<g id="edge16" class="edge"><title>Node8&#45;&gt;Node7</title>
<path fill="none" stroke="#9a32cd" stroke-dasharray="5,2" d="M1720.43,-118.589C1743.66,-120.824 1767.12,-127.784 1784,-144 1839.94,-197.748 1846.21,-463.072 1846.91,-519.455"/>
<polygon fill="#9a32cd" stroke="#9a32cd" points="1720.37,-115.077 1710.16,-117.892 1719.9,-122.06 1720.37,-115.077"/>
<text text-anchor="middle" x="1756" y="-148" font-family="Helvetica,sans-Serif" font-size="10.00"> Candidates</text>
</g>
<!-- Node9 -->
<g id="node17" class="node"><title>Node9</title>
<a xlink:href="classant_1_1std__ext_1_1shared__ptr__container.html" target="_top" xlink:title="ant::std_ext::shared\l_ptr_container\&lt; TCluster \&gt;">
<polygon fill="white" stroke="black" points="1570,-57 1570,-91 1704,-91 1704,-57 1570,-57"/>
<text text-anchor="start" x="1578" y="-78" font-family="Helvetica,sans-Serif" font-size="10.00">ant::std_ext::shared</text>
<text text-anchor="middle" x="1637" y="-65" font-family="Helvetica,sans-Serif" font-size="10.00">_ptr_container&lt; TCluster &gt;</text>
</a>
</g>
<!-- Node9&#45;&gt;Node7 -->
<g id="edge18" class="edge"><title>Node9&#45;&gt;Node7</title>
<path fill="none" stroke="#9a32cd" stroke-dasharray="5,2" d="M1714.13,-72.7527C1739.64,-76.3376 1766.06,-85.0495 1784,-104 1813.62,-135.282 1840.98,-455.592 1846.13,-519.093"/>
<polygon fill="#9a32cd" stroke="#9a32cd" points="1714.38,-69.2582 1704.04,-71.5842 1713.57,-76.2117 1714.38,-69.2582"/>
<text text-anchor="middle" x="1756" y="-108" font-family="Helvetica,sans-Serif" font-size="10.00"> Clusters</text>
</g>
<!-- Node10 -->
<g id="node19" class="node"><title>Node10</title>
<a xlink:href="classant_1_1_tree.html" target="_top" xlink:title="ant::Tree\&lt; TParticlePtr \&gt;">
<polygon fill="white" stroke="black" points="1574.5,-742.5 1574.5,-763.5 1699.5,-763.5 1699.5,-742.5 1574.5,-742.5"/>
<text text-anchor="middle" x="1637" y="-750.5" font-family="Helvetica,sans-Serif" font-size="10.00">ant::Tree&lt; TParticlePtr &gt;</text>
</a>
</g>
<!-- Node10&#45;&gt;Node7 -->
<g id="edge20" class="edge"><title>Node10&#45;&gt;Node7</title>
<path fill="none" stroke="#9a32cd" stroke-dasharray="5,2" d="M1681.14,-738.94C1713.29,-726.745 1755.95,-706.245 1784,-676 1822.3,-634.71 1839.56,-566.515 1845,-540.514"/>
<polygon fill="#9a32cd" stroke="#9a32cd" points="1679.71,-735.735 1671.52,-742.46 1682.12,-742.308 1679.71,-735.735"/>
<text text-anchor="middle" x="1756" y="-720" font-family="Helvetica,sans-Serif" font-size="10.00"> ParticleTree</text>
</g>
<!-- Node11 -->
<g id="node21" class="node"><title>Node11</title>
<polygon fill="white" stroke="#bfbfbf" points="615,-796.5 615,-817.5 711,-817.5 711,-796.5 615,-796.5"/>
<text text-anchor="middle" x="663" y="-804.5" font-family="Helvetica,sans-Serif" font-size="10.00">std::list&lt; node_t &gt;</text>
</g>
<!-- Node11&#45;&gt;Node10 -->
<g id="edge22" class="edge"><title>Node11&#45;&gt;Node10</title>
<path fill="none" stroke="#9a32cd" stroke-dasharray="5,2" d="M721.142,-808.203C905.04,-811.784 1466.61,-820.942 1546,-801 1575.1,-793.69 1605.2,-775.302 1622.45,-763.525"/>
<polygon fill="#9a32cd" stroke="#9a32cd" points="721.19,-804.703 711.123,-808.006 721.052,-811.702 721.19,-804.703"/>
<text text-anchor="middle" x="1160" y="-817" font-family="Helvetica,sans-Serif" font-size="10.00"> daughters</text>
</g>
<!-- Node13 -->
<g id="node25" class="node"><title>Node13</title>
<a xlink:href="classant_1_1_tree.html" target="_top" xlink:title="ant::Tree\&lt; T \&gt;">
<polygon fill="white" stroke="black" points="951,-755.5 951,-776.5 1031,-776.5 1031,-755.5 951,-755.5"/>
<text text-anchor="middle" x="991" y="-763.5" font-family="Helvetica,sans-Serif" font-size="10.00">ant::Tree&lt; T &gt;</text>
</a>
</g>
<!-- Node11&#45;&gt;Node13 -->
<g id="edge28" class="edge"><title>Node11&#45;&gt;Node13</title>
<path fill="none" stroke="#9a32cd" stroke-dasharray="5,2" d="M721.148,-796.404C732.676,-794.47 744.705,-792.571 756,-791 824.271,-781.506 904.143,-773.706 950.987,-769.466"/>
<polygon fill="#9a32cd" stroke="#9a32cd" points="720.446,-792.973 711.177,-798.104 721.623,-799.873 720.446,-792.973"/>
<text text-anchor="middle" x="824" y="-795" font-family="Helvetica,sans-Serif" font-size="10.00"> daughters</text>
</g>
<!-- Node12 -->
<g id="node23" class="node"><title>Node12</title>
<polygon fill="white" stroke="#bfbfbf" points="1251.5,-767.5 1251.5,-788.5 1364.5,-788.5 1364.5,-767.5 1251.5,-767.5"/>
<text text-anchor="middle" x="1308" y="-775.5" font-family="Helvetica,sans-Serif" font-size="10.00">std::weak_ptr&lt; Tree &gt;</text>
</g>
<!-- Node12&#45;&gt;Node10 -->
<g id="edge24" class="edge"><title>Node12&#45;&gt;Node10</title>
<path fill="none" stroke="#9a32cd" stroke-dasharray="5,2" d="M1374.79,-772.925C1433.19,-768.487 1517.36,-762.091 1574.46,-757.752"/>
<polygon fill="#9a32cd" stroke="#9a32cd" points="1374.26,-769.455 1364.56,-773.702 1374.79,-776.435 1374.26,-769.455"/>
<text text-anchor="middle" x="1466" y="-788" font-family="Helvetica,sans-Serif" font-size="10.00"> parent</text>
<text text-anchor="middle" x="1466" y="-775" font-family="Helvetica,sans-Serif" font-size="10.00">self</text>
</g>
<!-- Node12&#45;&gt;Node13 -->
<g id="edge30" class="edge"><title>Node12&#45;&gt;Node13</title>
<path fill="none" stroke="#9a32cd" stroke-dasharray="5,2" d="M1258,-763.489C1254.52,-761.831 1251.15,-760.005 1248,-758 1238.19,-751.751 1240.69,-743.596 1230,-739 1156.93,-707.569 1060.26,-737.867 1015.58,-755.429"/>
<polygon fill="#9a32cd" stroke="#9a32cd" points="1256.81,-766.786 1267.38,-767.495 1259.56,-760.348 1256.81,-766.786"/>
<text text-anchor="middle" x="1160" y="-756" font-family="Helvetica,sans-Serif" font-size="10.00"> parent</text>
<text text-anchor="middle" x="1160" y="-743" font-family="Helvetica,sans-Serif" font-size="10.00">self</text>
</g>
<!-- Node13&#45;&gt;Node12 -->
<g id="edge26" class="edge"><title>Node13&#45;&gt;Node12</title>
<path fill="none" stroke="#9a32cd" stroke-dasharray="5,2" d="M1041.39,-767.908C1098.59,-770.073 1191.67,-773.596 1251.34,-775.855"/>
<polygon fill="#9a32cd" stroke="#9a32cd" points="1041.27,-764.401 1031.15,-767.52 1041.01,-771.396 1041.27,-764.401"/>
<text text-anchor="middle" x="1160" y="-778" font-family="Helvetica,sans-Serif" font-size="10.00"> ptr</text>
</g>
<!-- Node14 -->
<g id="node29" class="node"><title>Node14</title>
<polygon fill="white" stroke="#bfbfbf" points="648.5,-744.5 648.5,-765.5 677.5,-765.5 677.5,-744.5 648.5,-744.5"/>
<text text-anchor="middle" x="663" y="-752.5" font-family="Helvetica,sans-Serif" font-size="10.00">T</text>
</g>
<!-- Node14&#45;&gt;Node13 -->
<g id="edge32" class="edge"><title>Node14&#45;&gt;Node13</title>
<path fill="none" stroke="#9a32cd" stroke-dasharray="5,2" d="M687.893,-754.1C729.976,-752.78 817.845,-750.893 892,-755 911.339,-756.071 932.705,-758.31 950.624,-760.491"/>
<polygon fill="#9a32cd" stroke="#9a32cd" points="687.629,-750.607 677.751,-754.435 687.861,-757.603 687.629,-750.607"/>
<text text-anchor="middle" x="824" y="-759" font-family="Helvetica,sans-Serif" font-size="10.00"> data</text>
</g>
<!-- Node15 -->
<g id="node31" class="node"><title>Node15</title>
<a xlink:href="structant_1_1std__ext_1_1cc__shared__ptr.html" target="_top" xlink:title="ant::std_ext::cc_shared\l_ptr\&lt; T \&gt;">
<polygon fill="white" stroke="black" points="1248.5,-715 1248.5,-749 1367.5,-749 1367.5,-715 1248.5,-715"/>
<text text-anchor="start" x="1256.5" y="-736" font-family="Helvetica,sans-Serif" font-size="10.00">ant::std_ext::cc_shared</text>
<text text-anchor="middle" x="1308" y="-723" font-family="Helvetica,sans-Serif" font-size="10.00">_ptr&lt; T &gt;</text>
</a>
</g>
<!-- Node15&#45;&gt;Node10 -->
<g id="edge34" class="edge"><title>Node15&#45;&gt;Node10</title>
<path fill="none" stroke="#9a32cd" stroke-dasharray="5,2" d="M1377.98,-731.228C1425.47,-731.326 1489.65,-732.671 1546,-738 1557.32,-739.07 1569.36,-740.701 1580.85,-742.498"/>
<polygon fill="#9a32cd" stroke="#9a32cd" points="1377.8,-727.728 1367.8,-731.226 1377.8,-734.728 1377.8,-727.728"/>
<text text-anchor="middle" x="1466" y="-742" font-family="Helvetica,sans-Serif" font-size="10.00"> data</text>
</g>
<!-- Node16 -->
<g id="node33" class="node"><title>Node16</title>
<polygon fill="white" stroke="#bfbfbf" points="756.5,-131 756.5,-165 891.5,-165 891.5,-131 756.5,-131"/>
<text text-anchor="start" x="764.5" y="-152" font-family="Helvetica,sans-Serif" font-size="10.00">std::vector&lt; ant::TDetector</text>
<text text-anchor="middle" x="824" y="-139" font-family="Helvetica,sans-Serif" font-size="10.00">ReadHit &gt;</text>
</g>
<!-- Node16&#45;&gt;Node7 -->
<g id="edge36" class="edge"><title>Node16&#45;&gt;Node7</title>
<path fill="none" stroke="#9a32cd" stroke-dasharray="5,2" d="M902.008,-156.372C970.041,-162.948 1071.43,-171 1160,-171 1160,-171 1160,-171 1637,-171 1709.95,-171 1739.08,-186.523 1784,-244 1818.91,-288.668 1840.8,-472.534 1845.87,-519.195"/>
<polygon fill="#9a32cd" stroke="#9a32cd" points="902.094,-152.864 891.801,-155.372 901.412,-159.83 902.094,-152.864"/>
<text text-anchor="middle" x="1308" y="-175" font-family="Helvetica,sans-Serif" font-size="10.00"> DetectorReadHits</text>
</g>
<!-- Node17&#45;&gt;Node16 -->
<g id="edge38" class="edge"><title>Node17&#45;&gt;Node16</title>
<path fill="none" stroke="#9a32cd" stroke-dasharray="5,2" d="M498.063,-97.5377C570.424,-108.741 684.171,-126.351 756.367,-137.529"/>
<polygon fill="#9a32cd" stroke="#9a32cd" points="498.554,-94.072 488.136,-96.0008 497.483,-100.99 498.554,-94.072"/>
<text text-anchor="middle" x="543" y="-113" font-family="Helvetica,sans-Serif" font-size="10.00"> elements</text>
</g>
<!-- Node18 -->
<g id="node38" class="node"><title>Node18</title>
<polygon fill="white" stroke="#bfbfbf" points="149.5,-0.5 149.5,-21.5 248.5,-21.5 248.5,-0.5 149.5,-0.5"/>
<text text-anchor="middle" x="199" y="-8.5" font-family="Helvetica,sans-Serif" font-size="10.00">std::vector&lt; bool &gt;</text>
</g>
<!-- Node18&#45;&gt;Node17 -->
<g id="edge42" class="edge"><title>Node18&#45;&gt;Node17</title>
<path fill="none" stroke="#9a32cd" stroke-dasharray="5,2" d="M258.533,-19.9611C285.149,-24.9208 316.625,-32.1203 344,-42 369.202,-51.0954 396.274,-66.2517 413.17,-76.4315"/>
<polygon fill="#9a32cd" stroke="#9a32cd" points="259.051,-16.4982 248.589,-18.169 257.81,-23.3872 259.051,-16.4982"/>
<text text-anchor="middle" x="313" y="-46" font-family="Helvetica,sans-Serif" font-size="10.00"> ValueBits</text>
</g>
<!-- Node19 -->
<g id="node40" class="node"><title>Node19</title>
<polygon fill="white" stroke="#bfbfbf" points="144,-103.5 144,-124.5 254,-124.5 254,-103.5 144,-103.5"/>
<text text-anchor="middle" x="199" y="-111.5" font-family="Helvetica,sans-Serif" font-size="10.00">std::vector&lt; double &gt;</text>
</g>
<!-- Node19&#45;&gt;Node17 -->
<g id="edge44" class="edge"><title>Node19&#45;&gt;Node17</title>
<path fill="none" stroke="#9a32cd" stroke-dasharray="5,2" d="M235.292,-100.065C249.618,-95.2473 266.363,-90.4459 282,-88 311.321,-83.4135 344.311,-82.7621 371.69,-83.4285"/>
<polygon fill="#9a32cd" stroke="#9a32cd" points="234.094,-96.7765 225.804,-103.375 236.399,-103.386 234.094,-96.7765"/>
<text text-anchor="middle" x="313" y="-105" font-family="Helvetica,sans-Serif" font-size="10.00"> Values</text>
<text text-anchor="middle" x="313" y="-92" font-family="Helvetica,sans-Serif" font-size="10.00">Converted</text>
</g>
<!-- Node19&#45;&gt;Node22 -->
<g id="edge58" class="edge"><title>Node19&#45;&gt;Node22</title>
<path fill="none" stroke="#9a32cd" stroke-dasharray="5,2" d="M240.156,-127.719C285.455,-142.818 357.286,-166.762 398.377,-180.459"/>
<polygon fill="#9a32cd" stroke="#9a32cd" points="241.229,-124.387 230.635,-124.545 239.015,-131.028 241.229,-124.387"/>
<text text-anchor="middle" x="313" y="-166" font-family="Helvetica,sans-Serif" font-size="10.00"> Payload</text>
</g>
<!-- Node20 -->
<g id="node42" class="node"><title>Node20</title>
<polygon fill="white" stroke="#bfbfbf" points="134,-40.5 134,-61.5 264,-61.5 264,-40.5 134,-40.5"/>
<text text-anchor="middle" x="199" y="-48.5" font-family="Helvetica,sans-Serif" font-size="10.00">std::vector&lt; std::uint8_t &gt;</text>
</g>
<!-- Node20&#45;&gt;Node17 -->
<g id="edge46" class="edge"><title>Node20&#45;&gt;Node17</title>
<path fill="none" stroke="#9a32cd" stroke-dasharray="5,2" d="M274.355,-57.601C296.838,-60.0317 321.485,-63.1537 344,-67 358.808,-69.5297 374.881,-73.0535 389.081,-76.4395"/>
<polygon fill="#9a32cd" stroke="#9a32cd" points="274.504,-54.0974 264.192,-56.5327 273.772,-61.0591 274.504,-54.0974"/>
<text text-anchor="middle" x="313" y="-71" font-family="Helvetica,sans-Serif" font-size="10.00"> RawData</text>
</g>
<!-- Node21 -->
<g id="node44" class="node"><title>Node21</title>
<polygon fill="white" stroke="#bfbfbf" points="1090,-212 1090,-246 1230,-246 1230,-212 1090,-212"/>
<text text-anchor="start" x="1098" y="-233" font-family="Helvetica,sans-Serif" font-size="10.00">std::vector&lt; ant::TUnpacker</text>
<text text-anchor="middle" x="1160" y="-220" font-family="Helvetica,sans-Serif" font-size="10.00">Message &gt;</text>
</g>
<!-- Node21&#45;&gt;Node7 -->
<g id="edge48" class="edge"><title>Node21&#45;&gt;Node7</title>
<path fill="none" stroke="#9a32cd" stroke-dasharray="5,2" d="M1240.07,-223.564C1389.69,-215.166 1703.86,-206.395 1784,-274 1822.83,-306.759 1841.69,-475.217 1846.02,-519.386"/>
<polygon fill="#9a32cd" stroke="#9a32cd" points="1239.8,-220.074 1230.02,-224.142 1240.2,-227.062 1239.8,-220.074"/>
<text text-anchor="middle" x="1466" y="-225" font-family="Helvetica,sans-Serif" font-size="10.00"> UnpackerMessages</text>
</g>
<!-- Node22&#45;&gt;Node21 -->
<g id="edge50" class="edge"><title>Node22&#45;&gt;Node21</title>
<path fill="none" stroke="#9a32cd" stroke-dasharray="5,2" d="M502.477,-194.773C643.103,-202.093 951.31,-218.137 1089.97,-225.355"/>
<polygon fill="#9a32cd" stroke="#9a32cd" points="502.408,-191.265 492.239,-194.24 502.044,-198.255 502.408,-191.265"/>
<text text-anchor="middle" x="663" y="-211" font-family="Helvetica,sans-Serif" font-size="10.00"> elements</text>
</g>
<!-- Node23 -->
<g id="node49" class="node"><title>Node23</title>
<a xlink:title="STL class. ">
<polygon fill="white" stroke="#bfbfbf" points="169,-255.5 169,-276.5 229,-276.5 229,-255.5 169,-255.5"/>
<text text-anchor="middle" x="199" y="-263.5" font-family="Helvetica,sans-Serif" font-size="10.00">std::string</text>
</a>
</g>
<!-- Node23&#45;&gt;Node22 -->
<g id="edge54" class="edge"><title>Node23&#45;&gt;Node22</title>
<path fill="none" stroke="#9a32cd" stroke-dasharray="5,2" d="M214.983,-247.429C230.31,-231.095 255.05,-208.355 282,-198 308.893,-187.667 340.583,-185.036 367.725,-185.345"/>
<polygon fill="#9a32cd" stroke="#9a32cd" points="211.983,-245.526 207.863,-255.287 217.171,-250.226 211.983,-245.526"/>
<text text-anchor="middle" x="313" y="-202" font-family="Helvetica,sans-Serif" font-size="10.00"> Message</text>
</g>
<!-- Node23&#45;&gt;Node35 -->
<g id="edge108" class="edge"><title>Node23&#45;&gt;Node35</title>
<path fill="none" stroke="#9a32cd" stroke-dasharray="5,2" d="M239.358,-263.478C299.567,-259.855 416.495,-253.353 516,-251 687.784,-246.938 736.829,-267.189 892,-341 926.216,-357.276 961.26,-385.271 979.052,-400.458"/>
<polygon fill="#9a32cd" stroke="#9a32cd" points="238.911,-259.999 229.142,-264.098 239.336,-266.986 238.911,-259.999"/>
<text text-anchor="middle" x="543" y="-268" font-family="Helvetica,sans-Serif" font-size="10.00"> Description</text>
<text text-anchor="middle" x="543" y="-255" font-family="Helvetica,sans-Serif" font-size="10.00">Name</text>
</g>
<!-- Node23&#45;&gt;Node41 -->
<g id="edge116" class="edge"><title>Node23&#45;&gt;Node41</title>
<path fill="none" stroke="#9a32cd" stroke-dasharray="5,2" d="M238.895,-278.089C276.895,-289.605 334.369,-307.021 376.364,-319.747"/>
<polygon fill="#9a32cd" stroke="#9a32cd" points="239.785,-274.702 229.199,-275.151 237.754,-281.401 239.785,-274.702"/>
<text text-anchor="middle" x="313" y="-313" font-family="Helvetica,sans-Serif" font-size="10.00"> Value</text>
</g>
<!-- Node23&#45;&gt;Node44 -->
<g id="edge128" class="edge"><title>Node23&#45;&gt;Node44</title>
<path fill="none" stroke="#9a32cd" stroke-dasharray="5,2" d="M213.636,-284.638C241.301,-319.498 303.727,-396.423 362,-456 380.298,-474.707 403.257,-494.64 417.268,-506.448"/>
<polygon fill="#9a32cd" stroke="#9a32cd" points="216.323,-282.393 207.376,-276.718 210.831,-286.734 216.323,-282.393"/>
<text text-anchor="middle" x="313" y="-440" font-family="Helvetica,sans-Serif" font-size="10.00"> ModuleName</text>
</g>
<!-- Node24 -->
<g id="node51" class="node"><title>Node24</title>
<a xlink:title="STL class. ">
<polygon fill="white" stroke="#bfbfbf" points="0.5,-249 0.5,-283 95.5,-283 95.5,-249 0.5,-249"/>
<text text-anchor="start" x="8.5" y="-270" font-family="Helvetica,sans-Serif" font-size="10.00">std::basic_string&lt;</text>
<text text-anchor="middle" x="48" y="-257" font-family="Helvetica,sans-Serif" font-size="10.00"> char &gt;</text>
</a>
</g>
<!-- Node24&#45;&gt;Node23 -->
<g id="edge56" class="edge"><title>Node24&#45;&gt;Node23</title>
<path fill="none" stroke="midnightblue" d="M106.06,-266C127.393,-266 150.691,-266 168.625,-266"/>
<polygon fill="midnightblue" stroke="midnightblue" points="105.777,-262.5 95.7773,-266 105.777,-269.5 105.777,-262.5"/>
</g>
<!-- Node25 -->
<g id="node54" class="node"><title>Node25</title>
<polygon fill="white" stroke="#bfbfbf" points="1573,-653 1573,-687 1701,-687 1701,-653 1573,-653"/>
<text text-anchor="start" x="1581" y="-674" font-family="Helvetica,sans-Serif" font-size="10.00">std::vector&lt; ant::TTagger</text>
<text text-anchor="middle" x="1637" y="-661" font-family="Helvetica,sans-Serif" font-size="10.00">Hit &gt;</text>
</g>
<!-- Node25&#45;&gt;Node7 -->
<g id="edge60" class="edge"><title>Node25&#45;&gt;Node7</title>
<path fill="none" stroke="#9a32cd" stroke-dasharray="5,2" d="M1711.48,-663.335C1736.36,-658.24 1763.06,-649.372 1784,-634 1817.19,-609.643 1836.37,-562.05 1843.63,-540.752"/>
<polygon fill="#9a32cd" stroke="#9a32cd" points="1710.51,-659.956 1701.32,-665.233 1711.8,-666.837 1710.51,-659.956"/>
<text text-anchor="middle" x="1756" y="-663" font-family="Helvetica,sans-Serif" font-size="10.00"> TaggerHits</text>
</g>
<!-- Node26&#45;&gt;Node25 -->
<g id="edge62" class="edge"><title>Node26&#45;&gt;Node25</title>
<path fill="none" stroke="#9a32cd" stroke-dasharray="5,2" d="M1360.68,-670.84C1418.41,-670.664 1511.03,-670.383 1572.93,-670.195"/>
<polygon fill="#9a32cd" stroke="#9a32cd" points="1360.66,-667.34 1350.67,-670.87 1360.68,-674.34 1360.66,-667.34"/>
<text text-anchor="middle" x="1466" y="-674" font-family="Helvetica,sans-Serif" font-size="10.00"> elements</text>
</g>
<!-- Node27 -->
<g id="node59" class="node"><title>Node27</title>
<polygon fill="white" stroke="#bfbfbf" points="910,-654 910,-688 1072,-688 1072,-654 910,-654"/>
<text text-anchor="start" x="918" y="-675" font-family="Helvetica,sans-Serif" font-size="10.00">std::vector&lt; ant::TKeyValue</text>
<text text-anchor="middle" x="991" y="-662" font-family="Helvetica,sans-Serif" font-size="10.00">&lt; ant::TTaggerHit::Electron_t &gt; &gt;</text>
</g>
<!-- Node27&#45;&gt;Node26 -->
<g id="edge66" class="edge"><title>Node27&#45;&gt;Node26</title>
<path fill="none" stroke="#9a32cd" stroke-dasharray="5,2" d="M1082.51,-671C1142.76,-671 1218.83,-671 1265.42,-671"/>
<polygon fill="#9a32cd" stroke="#9a32cd" points="1082.22,-667.5 1072.22,-671 1082.22,-674.5 1082.22,-667.5"/>
<text text-anchor="middle" x="1160" y="-675" font-family="Helvetica,sans-Serif" font-size="10.00"> Electrons</text>
</g>
<!-- Node28&#45;&gt;Node27 -->
<g id="edge68" class="edge"><title>Node28&#45;&gt;Node27</title>
<path fill="none" stroke="#9a32cd" stroke-dasharray="5,2" d="M738.605,-671C789.833,-671 857.472,-671 909.834,-671"/>
<polygon fill="#9a32cd" stroke="#9a32cd" points="738.587,-667.5 728.587,-671 738.587,-674.5 738.587,-667.5"/>
<text text-anchor="middle" x="824" y="-675" font-family="Helvetica,sans-Serif" font-size="10.00"> elements</text>
</g>
<!-- Node29&#45;&gt;Node28 -->
<g id="edge72" class="edge"><title>Node29&#45;&gt;Node28</title>
<path fill="none" stroke="#9a32cd" stroke-dasharray="5,2" d="M501.378,-698.746C531.934,-693.501 567.389,-687.414 597.292,-682.28"/>
<polygon fill="#9a32cd" stroke="#9a32cd" points="500.482,-695.349 491.218,-700.49 501.666,-702.248 500.482,-695.349"/>
<text text-anchor="middle" x="543" y="-699" font-family="Helvetica,sans-Serif" font-size="10.00"> Value</text>
</g>
<!-- Node30&#45;&gt;Node7 -->
<g id="edge76" class="edge"><title>Node30&#45;&gt;Node7</title>
<path fill="none" stroke="#9a32cd" stroke-dasharray="5,2" d="M579.751,-842.644C633.381,-847.639 736.256,-856 824,-856 824,-856 824,-856 1637,-856 1790.5,-856 1837.15,-597.413 1845.52,-540.847"/>
<polygon fill="#9a32cd" stroke="#9a32cd" points="579.986,-839.151 569.701,-841.694 579.327,-846.12 579.986,-839.151"/>
<text text-anchor="middle" x="1160" y="-860" font-family="Helvetica,sans-Serif" font-size="10.00"> ID</text>
</g>
<!-- Node31 -->
<g id="node70" class="node"><title>Node31</title>
<a xlink:href="structant_1_1_t_event_data_1_1_p_type_list.html" target="_top" xlink:title="ant::TEventData::PTypeList">
<polygon fill="white" stroke="black" points="1567.5,-613.5 1567.5,-634.5 1706.5,-634.5 1706.5,-613.5 1567.5,-613.5"/>
<text text-anchor="middle" x="1637" y="-621.5" font-family="Helvetica,sans-Serif" font-size="10.00">ant::TEventData::PTypeList</text>
</a>
</g>
<!-- Node31&#45;&gt;Node7 -->
<g id="edge80" class="edge"><title>Node31&#45;&gt;Node7</title>
<path fill="none" stroke="#9a32cd" stroke-dasharray="5,2" d="M1716.68,-620.144C1739.46,-616.527 1763.61,-610.128 1784,-599 1809.77,-584.933 1830.59,-556.265 1840.58,-540.675"/>
<polygon fill="#9a32cd" stroke="#9a32cd" points="1716.08,-616.694 1706.68,-621.574 1717.07,-623.624 1716.08,-616.694"/>
<text text-anchor="middle" x="1756" y="-621" font-family="Helvetica,sans-Serif" font-size="10.00"> Particles</text>
</g>
<!-- Node32&#45;&gt;Node7 -->
<g id="edge82" class="edge"><title>Node32&#45;&gt;Node7</title>
<path fill="none" stroke="#9a32cd" stroke-dasharray="5,2" d="M708.458,-595.833C771.753,-591.703 890.038,-585 991,-585 991,-585 991,-585 1637,-585 1706.35,-585 1784.49,-556.587 1822.97,-540.605"/>
<polygon fill="#9a32cd" stroke="#9a32cd" points="708.158,-592.345 698.411,-596.497 708.62,-599.33 708.158,-592.345"/>
<text text-anchor="middle" x="1308" y="-589" font-family="Helvetica,sans-Serif" font-size="10.00"> Target</text>
</g>
<!-- Node33&#45;&gt;Node32 -->
<g id="edge86" class="edge"><title>Node33&#45;&gt;Node32</title>
<path fill="none" stroke="#9a32cd" stroke-dasharray="5,2" d="M468.659,-595.664C512.948,-596.424 584.905,-597.659 627.723,-598.394"/>
<polygon fill="#9a32cd" stroke="#9a32cd" points="468.629,-592.163 458.57,-595.49 468.509,-599.162 468.629,-592.163"/>
<text text-anchor="middle" x="543" y="-601" font-family="Helvetica,sans-Serif" font-size="10.00"> Vertex</text>
</g>
<!-- Node34 -->
<g id="node78" class="node"><title>Node34</title>
<polygon fill="white" stroke="#bfbfbf" points="1386,-429.5 1386,-450.5 1546,-450.5 1546,-429.5 1386,-429.5"/>
<text text-anchor="middle" x="1466" y="-437.5" font-family="Helvetica,sans-Serif" font-size="10.00">std::vector&lt; ant::TSlowControl &gt;</text>
</g>
<!-- Node34&#45;&gt;Node7 -->
<g id="edge90" class="edge"><title>Node34&#45;&gt;Node7</title>
<path fill="none" stroke="#9a32cd" stroke-dasharray="5,2" d="M1520.29,-452.824C1596.13,-470.74 1732.36,-502.921 1802.54,-519.497"/>
<polygon fill="#9a32cd" stroke="#9a32cd" points="1520.99,-449.393 1510.45,-450.5 1519.38,-456.206 1520.99,-449.393"/>
<text text-anchor="middle" x="1637" y="-500" font-family="Helvetica,sans-Serif" font-size="10.00"> SlowControls</text>
</g>
<!-- Node35&#45;&gt;Node34 -->
<g id="edge92" class="edge"><title>Node35&#45;&gt;Node34</title>
<path fill="none" stroke="#9a32cd" stroke-dasharray="5,2" d="M1048.88,-414.534C1133.2,-419.682 1290.13,-429.263 1385.62,-435.092"/>
<polygon fill="#9a32cd" stroke="#9a32cd" points="1048.91,-411.029 1038.72,-413.913 1048.49,-418.016 1048.91,-411.029"/>
<text text-anchor="middle" x="1160" y="-429" font-family="Helvetica,sans-Serif" font-size="10.00"> elements</text>
</g>
<!-- Node36 -->
<g id="node83" class="node"><title>Node36</title>
<polygon fill="white" stroke="#bfbfbf" points="593,-420 593,-454 733,-454 733,-420 593,-420"/>
<text text-anchor="start" x="601" y="-441" font-family="Helvetica,sans-Serif" font-size="10.00">std::vector&lt; ant::TKeyValue</text>
<text text-anchor="middle" x="663" y="-428" font-family="Helvetica,sans-Serif" font-size="10.00">&lt; double &gt; &gt;</text>
</g>
<!-- Node36&#45;&gt;Node35 -->
<g id="edge96" class="edge"><title>Node36&#45;&gt;Node35</title>
<path fill="none" stroke="#9a32cd" stroke-dasharray="5,2" d="M743.594,-430.611C806.129,-425.654 890.713,-418.95 943.021,-414.803"/>
<polygon fill="#9a32cd" stroke="#9a32cd" points="743.056,-427.143 733.364,-431.422 743.61,-434.121 743.056,-427.143"/>
<text text-anchor="middle" x="824" y="-433" font-family="Helvetica,sans-Serif" font-size="10.00"> Payload_Float</text>
</g>
<!-- Node37&#45;&gt;Node36 -->
<g id="edge98" class="edge"><title>Node37&#45;&gt;Node36</title>
<path fill="none" stroke="#9a32cd" stroke-dasharray="5,2" d="M505.652,-436.325C533.624,-436.445 565.194,-436.58 592.674,-436.698"/>
<polygon fill="#9a32cd" stroke="#9a32cd" points="505.539,-432.824 495.524,-436.281 505.508,-439.824 505.539,-432.824"/>
<text text-anchor="middle" x="543" y="-440" font-family="Helvetica,sans-Serif" font-size="10.00"> elements</text>
</g>
<!-- Node38 -->
<g id="node88" class="node"><title>Node38</title>
<polygon fill="white" stroke="#bfbfbf" points="593,-368 593,-402 733,-402 733,-368 593,-368"/>
<text text-anchor="start" x="601" y="-389" font-family="Helvetica,sans-Serif" font-size="10.00">std::vector&lt; ant::TKeyValue</text>
<text text-anchor="middle" x="663" y="-376" font-family="Helvetica,sans-Serif" font-size="10.00">&lt; std::int64_t &gt; &gt;</text>
</g>
<!-- Node38&#45;&gt;Node35 -->
<g id="edge102" class="edge"><title>Node38&#45;&gt;Node35</title>
<path fill="none" stroke="#9a32cd" stroke-dasharray="5,2" d="M743.234,-390.63C787.184,-393.796 842.608,-397.922 892,-402 908.77,-403.385 927.126,-405.02 943.428,-406.514"/>
<polygon fill="#9a32cd" stroke="#9a32cd" points="743.406,-387.133 733.181,-389.908 742.905,-394.115 743.406,-387.133"/>
<text text-anchor="middle" x="824" y="-406" font-family="Helvetica,sans-Serif" font-size="10.00"> Payload_Int</text>
</g>
<!-- Node39&#45;&gt;Node38 -->
<g id="edge104" class="edge"><title>Node39&#45;&gt;Node38</title>
<path fill="none" stroke="#9a32cd" stroke-dasharray="5,2" d="M493.885,-387.903C524.521,-387.377 561.302,-386.746 592.728,-386.206"/>
<polygon fill="#9a32cd" stroke="#9a32cd" points="493.686,-384.406 483.747,-388.077 493.806,-391.405 493.686,-384.406"/>
<text text-anchor="middle" x="543" y="-391" font-family="Helvetica,sans-Serif" font-size="10.00"> elements</text>
</g>
<!-- Node40 -->
<g id="node94" class="node"><title>Node40</title>
<polygon fill="white" stroke="#bfbfbf" points="593,-316 593,-350 733,-350 733,-316 593,-316"/>
<text text-anchor="start" x="601" y="-337" font-family="Helvetica,sans-Serif" font-size="10.00">std::vector&lt; ant::TKeyValue</text>
<text text-anchor="middle" x="663" y="-324" font-family="Helvetica,sans-Serif" font-size="10.00">&lt; std::string &gt; &gt;</text>
</g>
<!-- Node40&#45;&gt;Node35 -->
<g id="edge110" class="edge"><title>Node40&#45;&gt;Node35</title>
<path fill="none" stroke="#9a32cd" stroke-dasharray="5,2" d="M743.261,-343.739C787.558,-350.57 843.303,-360.658 892,-374 918.014,-381.127 946.795,-392.269 966.589,-400.465"/>
<polygon fill="#9a32cd" stroke="#9a32cd" points="743.538,-340.241 733.126,-342.202 742.488,-347.162 743.538,-340.241"/>
<text text-anchor="middle" x="824" y="-378" font-family="Helvetica,sans-Serif" font-size="10.00"> Payload_String</text>
</g>
<!-- Node41&#45;&gt;Node40 -->
<g id="edge112" class="edge"><title>Node41&#45;&gt;Node40</title>
<path fill="none" stroke="#9a32cd" stroke-dasharray="5,2" d="M493.885,-335.177C524.521,-334.783 561.302,-334.309 592.728,-333.905"/>
<polygon fill="#9a32cd" stroke="#9a32cd" points="493.702,-331.679 483.747,-335.308 493.792,-338.679 493.702,-331.679"/>
<text text-anchor="middle" x="543" y="-338" font-family="Helvetica,sans-Serif" font-size="10.00"> elements</text>
</g>
<!-- Node42&#45;&gt;Node7 -->
<g id="edge118" class="edge"><title>Node42&#45;&gt;Node7</title>
<path fill="none" stroke="#9a32cd" stroke-dasharray="5,2" d="M1037.45,-530C1187.14,-530 1655.62,-530 1802.5,-530"/>
<polygon fill="#9a32cd" stroke="#9a32cd" points="1037.23,-526.5 1027.23,-530 1037.23,-533.5 1037.23,-526.5"/>
<text text-anchor="middle" x="1466" y="-534" font-family="Helvetica,sans-Serif" font-size="10.00"> Trigger</text>
</g>
<!-- Node43 -->
<g id="node103" class="node"><title>Node43</title>
<polygon fill="white" stroke="#bfbfbf" points="588.5,-510.5 588.5,-531.5 737.5,-531.5 737.5,-510.5 588.5,-510.5"/>
<text text-anchor="middle" x="663" y="-518.5" font-family="Helvetica,sans-Serif" font-size="10.00">std::vector&lt; ant::TDAQError &gt;</text>
</g>
<!-- Node43&#45;&gt;Node42 -->
<g id="edge122" class="edge"><title>Node43&#45;&gt;Node42</title>
<path fill="none" stroke="#9a32cd" stroke-dasharray="5,2" d="M747.982,-523.332C815.096,-525.173 905.41,-527.651 954.875,-529.009"/>
<polygon fill="#9a32cd" stroke="#9a32cd" points="747.931,-519.829 737.839,-523.054 747.739,-526.827 747.931,-519.829"/>
<text text-anchor="middle" x="824" y="-531" font-family="Helvetica,sans-Serif" font-size="10.00"> DAQErrors</text>
</g>
<!-- Node44&#45;&gt;Node43 -->
<g id="edge124" class="edge"><title>Node44&#45;&gt;Node43</title>
<path fill="none" stroke="#9a32cd" stroke-dasharray="5,2" d="M482.96,-517.909C514.161,-518.445 554.122,-519.131 588.466,-519.72"/>
<polygon fill="#9a32cd" stroke="#9a32cd" points="482.794,-514.406 472.736,-517.734 482.674,-521.405 482.794,-514.406"/>
<text text-anchor="middle" x="543" y="-523" font-family="Helvetica,sans-Serif" font-size="10.00"> elements</text>
</g>
</g>
</svg>
