<?xml version="1.0" encoding="UTF-8" standalone="no"?>
<!DOCTYPE svg PUBLIC "-//W3C//DTD SVG 1.1//EN"
 "http://www.w3.org/Graphics/SVG/1.1/DTD/svg11.dtd">
<!-- Generated by graphviz version 2.26.3 (20100126.1600)
 -->
<!-- Title: ant::analysis::physics::singlePi0::fitRatings_t Pages: 1 -->
<svg width="156pt" height="116pt"
 viewBox="0.00 0.00 156.00 116.00" xmlns="http://www.w3.org/2000/svg" xmlns:xlink="http://www.w3.org/1999/xlink">
<g id="graph1" class="graph" transform="scale(1 1) rotate(0) translate(4 112)">
<title>ant::analysis::physics::singlePi0::fitRatings_t</title>
<polygon fill="white" stroke="white" points="-4,5 -4,-112 153,-112 153,5 -4,5"/>
<!-- Node1 -->
<g id="node1" class="node"><title>Node1</title>
<polygon fill="#bfbfbf" stroke="black" points="14.5,-1 14.5,-35 133.5,-35 133.5,-1 14.5,-1"/>
<text text-anchor="start" x="22.5" y="-22" font-family="Helvetica,sans-Serif" font-size="10.00">ant::analysis::physics</text>
<text text-anchor="middle" x="74" y="-9" font-family="Helvetica,sans-Serif" font-size="10.00">::singlePi0::fitRatings_t</text>
</g>
<!-- Node2 -->
<g id="node2" class="node"><title>Node2</title>
<polygon fill="white" stroke="#bfbfbf" points="0,-86.5 0,-107.5 148,-107.5 148,-86.5 0,-86.5"/>
<text text-anchor="middle" x="74" y="-94.5" font-family="Helvetica,sans-Serif" font-size="10.00">std::vector&lt; TLorentzVector &gt;</text>
</g>
<!-- Node2&#45;&gt;Node1 -->
<g id="edge2" class="edge"><title>Node2&#45;&gt;Node1</title>
<path fill="none" stroke="#9a32cd" stroke-dasharray="5,2" d="M74,-76.1618C74,-63.3635 74,-47.1713 74,-35.1236"/>
<polygon fill="#9a32cd" stroke="#9a32cd" points="70.5001,-76.3457 74,-86.3457 77.5001,-76.3457 70.5001,-76.3457"/>
<text text-anchor="middle" x="105.5" y="-58.5" font-family="Helvetica,sans-Serif" font-size="10.00"> Intermediates</text>
</g>
</g>
</svg>
