<?xml version="1.0" encoding="UTF-8" standalone="no"?>
<!DOCTYPE svg PUBLIC "-//W3C//DTD SVG 1.1//EN"
 "http://www.w3.org/Graphics/SVG/1.1/DTD/svg11.dtd">
<!-- Generated by graphviz version 2.26.3 (20100126.1600)
 -->
<!-- Title: ant::TCluster Pages: 1 -->
<svg width="254pt" height="340pt"
 viewBox="0.00 0.00 254.00 340.00" xmlns="http://www.w3.org/2000/svg" xmlns:xlink="http://www.w3.org/1999/xlink">
<g id="graph1" class="graph" transform="scale(1 1) rotate(0) translate(4 336)">
<title>ant::TCluster</title>
<polygon fill="white" stroke="white" points="-4,5 -4,-336 251,-336 251,5 -4,5"/>
<!-- Node1 -->
<g id="node1" class="node"><title>Node1</title>
<polygon fill="#bfbfbf" stroke="black" points="17,-0.5 17,-21.5 91,-21.5 91,-0.5 17,-0.5"/>
<text text-anchor="middle" x="54" y="-8.5" font-family="Helvetica,sans-Serif" font-size="10.00">ant::TCluster</text>
</g>
<!-- Node2 -->
<g id="node2" class="node"><title>Node2</title>
<a xlink:href="classant_1_1printable__traits.html" target="_top" xlink:title="ant::printable_traits">
<polygon fill="white" stroke="black" points="0,-231.5 0,-252.5 100,-252.5 100,-231.5 0,-231.5"/>
<text text-anchor="middle" x="50" y="-239.5" font-family="Helvetica,sans-Serif" font-size="10.00">ant::printable_traits</text>
</a>
</g>
<!-- Node2&#45;&gt;Node1 -->
<g id="edge2" class="edge"><title>Node2&#45;&gt;Node1</title>
<path fill="none" stroke="midnightblue" d="M41.0222,-221.989C30.703,-196.577 15.9225,-151.304 22,-112 27.2562,-78.0076 41.9081,-39.7839 49.4246,-21.6484"/>
<polygon fill="midnightblue" stroke="midnightblue" points="37.8414,-223.453 44.9672,-231.294 44.2861,-220.721 37.8414,-223.453"/>
</g>
<!-- Node3 -->
<g id="node4" class="node"><title>Node3</title>
<a xlink:href="structant_1_1vec3.html" target="_top" xlink:title="ant::vec3">
<polygon fill="white" stroke="black" points="24.5,-112.5 24.5,-133.5 81.5,-133.5 81.5,-112.5 24.5,-112.5"/>
<text text-anchor="middle" x="53" y="-120.5" font-family="Helvetica,sans-Serif" font-size="10.00">ant::vec3</text>
</a>
</g>
<!-- Node2&#45;&gt;Node3 -->
<g id="edge6" class="edge"><title>Node2&#45;&gt;Node3</title>
<path fill="none" stroke="midnightblue" d="M50.5203,-221.36C51.1631,-195.863 52.2325,-153.443 52.7301,-133.708"/>
<polygon fill="midnightblue" stroke="midnightblue" points="47.0195,-221.354 50.2662,-231.44 54.0172,-221.531 47.0195,-221.354"/>
</g>
<!-- Node5 -->
<g id="node9" class="node"><title>Node5</title>
<a xlink:href="structant_1_1_t_cluster_hit.html" target="_top" xlink:title="ant::TClusterHit">
<polygon fill="white" stroke="black" points="133,-152.5 133,-173.5 219,-173.5 219,-152.5 133,-152.5"/>
<text text-anchor="middle" x="176" y="-160.5" font-family="Helvetica,sans-Serif" font-size="10.00">ant::TClusterHit</text>
</a>
</g>
<!-- Node2&#45;&gt;Node5 -->
<g id="edge12" class="edge"><title>Node2&#45;&gt;Node5</title>
<path fill="none" stroke="midnightblue" d="M75.538,-225.988C100.369,-210.42 137.392,-187.207 158.874,-173.738"/>
<polygon fill="midnightblue" stroke="midnightblue" points="73.6061,-223.068 66.9929,-231.346 77.3246,-228.999 73.6061,-223.068"/>
</g>
<!-- Node3&#45;&gt;Node1 -->
<g id="edge4" class="edge"><title>Node3&#45;&gt;Node1</title>
<path fill="none" stroke="#9a32cd" stroke-dasharray="5,2" d="M53.1865,-102.108C53.4001,-78.1839 53.7417,-39.931 53.9059,-21.543"/>
<polygon fill="#9a32cd" stroke="#9a32cd" points="49.6854,-102.23 53.0959,-112.261 56.6851,-102.293 49.6854,-102.23"/>
<text text-anchor="middle" x="72.5" y="-80.5" font-family="Helvetica,sans-Serif" font-size="10.00"> Position</text>
</g>
<!-- Node4 -->
<g id="node7" class="node"><title>Node4</title>
<polygon fill="white" stroke="#bfbfbf" points="110.5,-72.5 110.5,-93.5 241.5,-93.5 241.5,-72.5 110.5,-72.5"/>
<text text-anchor="middle" x="176" y="-80.5" font-family="Helvetica,sans-Serif" font-size="10.00">std::vector&lt; TClusterHit &gt;</text>
</g>
<!-- Node4&#45;&gt;Node1 -->
<g id="edge8" class="edge"><title>Node4&#45;&gt;Node1</title>
<path fill="none" stroke="#9a32cd" stroke-dasharray="5,2" d="M149.255,-67.2163C125.843,-53.3994 92.4698,-33.7035 72.0754,-21.6674"/>
<polygon fill="#9a32cd" stroke="#9a32cd" points="147.607,-70.3078 157.998,-72.3762 151.165,-64.2793 147.607,-70.3078"/>
<text text-anchor="middle" x="136" y="-44.5" font-family="Helvetica,sans-Serif" font-size="10.00"> Hits</text>
</g>
<!-- Node5&#45;&gt;Node4 -->
<g id="edge10" class="edge"><title>Node5&#45;&gt;Node4</title>
<path fill="none" stroke="#9a32cd" stroke-dasharray="5,2" d="M176,-141.958C176,-126.413 176,-105.897 176,-93.6182"/>
<polygon fill="#9a32cd" stroke="#9a32cd" points="172.5,-142.211 176,-152.211 179.5,-142.211 172.5,-142.211"/>
<text text-anchor="middle" x="197.5" y="-120.5" font-family="Helvetica,sans-Serif" font-size="10.00"> elements</text>
</g>
<!-- Node6 -->
<g id="node12" class="node"><title>Node6</title>
<polygon fill="white" stroke="#bfbfbf" points="117.5,-225 117.5,-259 246.5,-259 246.5,-225 117.5,-225"/>
<text text-anchor="start" x="125.5" y="-246" font-family="Helvetica,sans-Serif" font-size="10.00">std::vector&lt; ant::TCluster</text>
<text text-anchor="middle" x="182" y="-233" font-family="Helvetica,sans-Serif" font-size="10.00">Hit::Datum &gt;</text>
</g>
<!-- Node6&#45;&gt;Node5 -->
<g id="edge14" class="edge"><title>Node6&#45;&gt;Node5</title>
<path fill="none" stroke="#9a32cd" stroke-dasharray="5,2" d="M179.921,-214.623C178.846,-200.473 177.597,-184.024 176.803,-173.567"/>
<polygon fill="#9a32cd" stroke="#9a32cd" points="176.451,-215.152 180.698,-224.858 183.431,-214.622 176.451,-215.152"/>
<text text-anchor="middle" x="191.5" y="-196.5" font-family="Helvetica,sans-Serif" font-size="10.00"> Data</text>
</g>
<!-- Node7 -->
<g id="node14" class="node"><title>Node7</title>
<a xlink:href="structant_1_1_t_cluster_hit_1_1_datum.html" target="_top" xlink:title="ant::TClusterHit::Datum">
<polygon fill="white" stroke="black" points="121,-310.5 121,-331.5 243,-331.5 243,-310.5 121,-310.5"/>
<text text-anchor="middle" x="182" y="-318.5" font-family="Helvetica,sans-Serif" font-size="10.00">ant::TClusterHit::Datum</text>
</a>
</g>
<!-- Node7&#45;&gt;Node6 -->
<g id="edge16" class="edge"><title>Node7&#45;&gt;Node6</title>
<path fill="none" stroke="#9a32cd" stroke-dasharray="5,2" d="M182,-300.162C182,-287.363 182,-271.171 182,-259.124"/>
<polygon fill="#9a32cd" stroke="#9a32cd" points="178.5,-300.346 182,-310.346 185.5,-300.346 178.5,-300.346"/>
<text text-anchor="middle" x="203.5" y="-282.5" font-family="Helvetica,sans-Serif" font-size="10.00"> elements</text>
</g>
</g>
</svg>
