<?xml version="1.0" encoding="UTF-8" standalone="no"?>
<!DOCTYPE svg PUBLIC "-//W3C//DTD SVG 1.1//EN"
 "http://www.w3.org/Graphics/SVG/1.1/DTD/svg11.dtd">
<!-- Generated by graphviz version 2.26.3 (20100126.1600)
 -->
<!-- Title: ant::analysis::physics::singlePi0::settings_t Pages: 1 -->
<svg width="295pt" height="292pt"
 viewBox="0.00 0.00 294.85 292.00" xmlns="http://www.w3.org/2000/svg" xmlns:xlink="http://www.w3.org/1999/xlink">
<g id="graph1" class="graph" transform="scale(1 1) rotate(0) translate(4 288)">
<title>ant::analysis::physics::singlePi0::settings_t</title>
<polygon fill="white" stroke="white" points="-4,5 -4,-288 291.846,-288 291.846,5 -4,5"/>
<!-- Node1 -->
<g id="node1" class="node"><title>Node1</title>
<polygon fill="#bfbfbf" stroke="black" points="81.8461,-1 81.8461,-35 193.846,-35 193.846,-1 81.8461,-1"/>
<text text-anchor="start" x="89.8461" y="-22" font-family="Helvetica,sans-Serif" font-size="10.00">ant::analysis::physics</text>
<text text-anchor="middle" x="137.846" y="-9" font-family="Helvetica,sans-Serif" font-size="10.00">::singlePi0::settings_t</text>
</g>
<!-- Node2 -->
<g id="node2" class="node"><title>Node2</title>
<polygon fill="white" stroke="#bfbfbf" points="86.8461,-95 86.8461,-129 190.846,-129 190.846,-95 86.8461,-95"/>
<text text-anchor="start" x="94.8461" y="-116" font-family="Helvetica,sans-Serif" font-size="10.00">std::vector&lt; interval</text>
<text text-anchor="middle" x="138.846" y="-103" font-family="Helvetica,sans-Serif" font-size="10.00">&lt; double &gt; &gt;</text>
</g>
<!-- Node2&#45;&gt;Node1 -->
<g id="edge2" class="edge"><title>Node2&#45;&gt;Node1</title>
<path fill="none" stroke="#9a32cd" stroke-dasharray="5,2" d="M138.553,-84.4083C138.383,-68.4545 138.175,-48.8815 138.028,-35.1317"/>
<polygon fill="#9a32cd" stroke="#9a32cd" points="135.056,-84.7968 138.663,-94.759 142.056,-84.7223 135.056,-84.7968"/>
<text text-anchor="middle" x="178.346" y="-58.5" font-family="Helvetica,sans-Serif" font-size="10.00"> Ranges_Random</text>
</g>
<!-- Node3 -->
<g id="node4" class="node"><title>Node3</title>
<a xlink:href="classant_1_1interval.html" target="_top" xlink:title="ant::interval\&lt; double \&gt;">
<polygon fill="white" stroke="black" points="12.8461,-195.5 12.8461,-216.5 126.846,-216.5 126.846,-195.5 12.8461,-195.5"/>
<text text-anchor="middle" x="69.8461" y="-203.5" font-family="Helvetica,sans-Serif" font-size="10.00">ant::interval&lt; double &gt;</text>
</a>
</g>
<!-- Node3&#45;&gt;Node1 -->
<g id="edge8" class="edge"><title>Node3&#45;&gt;Node1</title>
<path fill="none" stroke="#9a32cd" stroke-dasharray="5,2" d="M47.2654,-188.835C32.9773,-176.473 15.7588,-158.423 7.84608,-138 -0.503467,-116.45 -4.12385,-105.77 7.84608,-86 24.0062,-59.3095 54.4677,-42.5922 81.8433,-32.415"/>
<polygon fill="#9a32cd" stroke="#9a32cd" points="45.3089,-191.759 55.2469,-195.431 49.7682,-186.363 45.3089,-191.759"/>
<text text-anchor="middle" x="42.8461" y="-129" font-family="Helvetica,sans-Serif" font-size="10.00"> Range_Prompt</text>
<text text-anchor="middle" x="42.8461" y="-116" font-family="Helvetica,sans-Serif" font-size="10.00">Cut_EMB_Chi2</text>
<text text-anchor="middle" x="42.8461" y="-103" font-family="Helvetica,sans-Serif" font-size="10.00">Cut_MM</text>
<text text-anchor="middle" x="42.8461" y="-90" font-family="Helvetica,sans-Serif" font-size="10.00">Cut_ProtonCopl</text>
</g>
<!-- Node3&#45;&gt;Node2 -->
<g id="edge4" class="edge"><title>Node3&#45;&gt;Node2</title>
<path fill="none" stroke="#9a32cd" stroke-dasharray="5,2" d="M84.0057,-186.71C96.3806,-169.852 114.186,-145.594 126.118,-129.34"/>
<polygon fill="#9a32cd" stroke="#9a32cd" points="80.8572,-185.085 77.7613,-195.217 86.5001,-189.227 80.8572,-185.085"/>
<text text-anchor="middle" x="128.346" y="-160.5" font-family="Helvetica,sans-Serif" font-size="10.00"> elements</text>
</g>
<!-- Node4 -->
<g id="node6" class="node"><title>Node4</title>
<a xlink:href="classant_1_1printable__traits.html" target="_top" xlink:title="ant::printable_traits">
<polygon fill="white" stroke="black" points="19.8461,-262.5 19.8461,-283.5 119.846,-283.5 119.846,-262.5 19.8461,-262.5"/>
<text text-anchor="middle" x="69.8461" y="-270.5" font-family="Helvetica,sans-Serif" font-size="10.00">ant::printable_traits</text>
</a>
</g>
<!-- Node4&#45;&gt;Node3 -->
<g id="edge6" class="edge"><title>Node4&#45;&gt;Node3</title>
<path fill="none" stroke="midnightblue" d="M69.8461,-251.904C69.8461,-240.127 69.8461,-225.967 69.8461,-216.517"/>
<polygon fill="midnightblue" stroke="midnightblue" points="66.3462,-252.235 69.8461,-262.235 73.3462,-252.235 66.3462,-252.235"/>
</g>
<!-- Node5 -->
<g id="node9" class="node"><title>Node5</title>
<a xlink:title="STL class. ">
<polygon fill="white" stroke="#bfbfbf" points="209.846,-101.5 209.846,-122.5 269.846,-122.5 269.846,-101.5 209.846,-101.5"/>
<text text-anchor="middle" x="239.846" y="-109.5" font-family="Helvetica,sans-Serif" font-size="10.00">std::string</text>
</a>
</g>
<!-- Node5&#45;&gt;Node1 -->
<g id="edge10" class="edge"><title>Node5&#45;&gt;Node1</title>
<path fill="none" stroke="#9a32cd" stroke-dasharray="5,2" d="M236.184,-91.5012C233.092,-79.3296 227.552,-64.3101 217.846,-54 210.538,-46.2375 201.245,-40.0285 191.599,-35.1037"/>
<polygon fill="#9a32cd" stroke="#9a32cd" points="232.765,-92.2494 238.315,-101.274 239.604,-90.7582 232.765,-92.2494"/>
<text text-anchor="middle" x="254.346" y="-58.5" font-family="Helvetica,sans-Serif" font-size="10.00"> Tree_Name</text>
</g>
<!-- Node6 -->
<g id="node11" class="node"><title>Node6</title>
<a xlink:title="STL class. ">
<polygon fill="white" stroke="#bfbfbf" points="192.346,-189 192.346,-223 287.346,-223 287.346,-189 192.346,-189"/>
<text text-anchor="start" x="200.346" y="-210" font-family="Helvetica,sans-Serif" font-size="10.00">std::basic_string&lt;</text>
<text text-anchor="middle" x="239.846" y="-197" font-family="Helvetica,sans-Serif" font-size="10.00"> char &gt;</text>
</a>
</g>
<!-- Node6&#45;&gt;Node5 -->
<g id="edge12" class="edge"><title>Node6&#45;&gt;Node5</title>
<path fill="none" stroke="midnightblue" d="M239.846,-178.721C239.846,-160.019 239.846,-136.229 239.846,-122.697"/>
<polygon fill="midnightblue" stroke="midnightblue" points="236.346,-178.759 239.846,-188.759 243.346,-178.759 236.346,-178.759"/>
</g>
</g>
</svg>
