<?xml version="1.0" encoding="UTF-8" standalone="no"?>
<!DOCTYPE svg PUBLIC "-//W3C//DTD SVG 1.1//EN"
 "http://www.w3.org/Graphics/SVG/1.1/DTD/svg11.dtd">
<!-- Generated by graphviz version 2.26.3 (20100126.1600)
 -->
<!-- Title: ant::analysis::slowcontrol::processor::AcquScalerVector Pages: 1 -->
<svg width="672pt" height="94pt"
 viewBox="0.00 0.00 672.00 94.00" xmlns="http://www.w3.org/2000/svg" xmlns:xlink="http://www.w3.org/1999/xlink">
<g id="graph1" class="graph" transform="scale(1 1) rotate(0) translate(4 90)">
<title>ant::analysis::slowcontrol::processor::AcquScalerVector</title>
<polygon fill="white" stroke="white" points="-4,5 -4,-90 669,-90 669,5 -4,5"/>
<!-- Node1 -->
<g id="node1" class="node"><title>Node1</title>
<polygon fill="#bfbfbf" stroke="black" points="164,-26 164,-60 314,-60 314,-26 164,-26"/>
<text text-anchor="start" x="172" y="-47" font-family="Helvetica,sans-Serif" font-size="10.00">ant::analysis::slowcontrol</text>
<text text-anchor="middle" x="239" y="-34" font-family="Helvetica,sans-Serif" font-size="10.00">::processor::AcquScalerVector</text>
</g>
<!-- Node3 -->
<g id="node5" class="node"><title>Node3</title>
<a xlink:href="structant_1_1analysis_1_1slowcontrol_1_1processor_1_1_acqu_scaler_scalar.html" target="_top" xlink:title="ant::analysis::slowcontrol\l::processor::AcquScalerScalar">
<polygon fill="white" stroke="black" points="350.5,-52 350.5,-86 499.5,-86 499.5,-52 350.5,-52"/>
<text text-anchor="start" x="358.5" y="-73" font-family="Helvetica,sans-Serif" font-size="10.00">ant::analysis::slowcontrol</text>
<text text-anchor="middle" x="425" y="-60" font-family="Helvetica,sans-Serif" font-size="10.00">::processor::AcquScalerScalar</text>
</a>
</g>
<!-- Node1&#45;&gt;Node3 -->
<g id="edge4" class="edge"><title>Node1&#45;&gt;Node3</title>
<path fill="none" stroke="midnightblue" d="M324.234,-54.9144C332.902,-56.1261 341.661,-57.3505 350.207,-58.5451"/>
<polygon fill="midnightblue" stroke="midnightblue" points="324.505,-51.4184 314.117,-53.5003 323.536,-58.351 324.505,-51.4184"/>
</g>
<!-- Node5 -->
<g id="node9" class="node"><title>Node5</title>
<a xlink:href="structant_1_1analysis_1_1slowcontrol_1_1processor_1_1_e_p_t___scalers.html" target="_top" xlink:title="ant::analysis::slowcontrol\l::processor::EPT_Scalers">
<polygon fill="white" stroke="black" points="360.5,-0 360.5,-34 489.5,-34 489.5,-0 360.5,-0"/>
<text text-anchor="start" x="368.5" y="-21" font-family="Helvetica,sans-Serif" font-size="10.00">ant::analysis::slowcontrol</text>
<text text-anchor="middle" x="425" y="-8" font-family="Helvetica,sans-Serif" font-size="10.00">::processor::EPT_Scalers</text>
</a>
</g>
<!-- Node1&#45;&gt;Node5 -->
<g id="edge8" class="edge"><title>Node1&#45;&gt;Node5</title>
<path fill="none" stroke="midnightblue" d="M324.253,-31.083C336.39,-29.3863 348.705,-27.6649 360.362,-26.0354"/>
<polygon fill="midnightblue" stroke="midnightblue" points="323.536,-27.649 314.117,-32.4997 324.505,-34.5816 323.536,-27.649"/>
</g>
<!-- Node2 -->
<g id="node2" class="node"><title>Node2</title>
<a xlink:href="structant_1_1analysis_1_1slowcontrol_1_1_processor.html" target="_top" xlink:title="ant::analysis::slowcontrol\l::Processor">
<polygon fill="white" stroke="black" points="0,-26 0,-60 128,-60 128,-26 0,-26"/>
<text text-anchor="start" x="8" y="-47" font-family="Helvetica,sans-Serif" font-size="10.00">ant::analysis::slowcontrol</text>
<text text-anchor="middle" x="64" y="-34" font-family="Helvetica,sans-Serif" font-size="10.00">::Processor</text>
</a>
</g>
<!-- Node2&#45;&gt;Node1 -->
<g id="edge2" class="edge"><title>Node2&#45;&gt;Node1</title>
<path fill="none" stroke="midnightblue" d="M138.363,-43C146.805,-43 155.414,-43 163.866,-43"/>
<polygon fill="midnightblue" stroke="midnightblue" points="138.17,-39.5001 128.17,-43 138.17,-46.5001 138.17,-39.5001"/>
</g>
<!-- Node4 -->
<g id="node7" class="node"><title>Node4</title>
<a xlink:href="structant_1_1analysis_1_1slowcontrol_1_1processor_1_1_e_p_t___or.html" target="_top" xlink:title="ant::analysis::slowcontrol\l::processor::EPT_Or">
<polygon fill="white" stroke="black" points="536,-52 536,-86 664,-86 664,-52 536,-52"/>
<text text-anchor="start" x="544" y="-73" font-family="Helvetica,sans-Serif" font-size="10.00">ant::analysis::slowcontrol</text>
<text text-anchor="middle" x="600" y="-60" font-family="Helvetica,sans-Serif" font-size="10.00">::processor::EPT_Or</text>
</a>
</g>
<!-- Node3&#45;&gt;Node4 -->
<g id="edge6" class="edge"><title>Node3&#45;&gt;Node4</title>
<path fill="none" stroke="midnightblue" d="M509.892,-69C518.585,-69 527.312,-69 535.73,-69"/>
<polygon fill="midnightblue" stroke="midnightblue" points="509.723,-65.5001 499.723,-69 509.723,-72.5001 509.723,-65.5001"/>
</g>
</g>
</svg>
