<?xml version="1.0" encoding="UTF-8" standalone="no"?>
<!DOCTYPE svg PUBLIC "-//W3C//DTD SVG 1.1//EN"
 "http://www.w3.org/Graphics/SVG/1.1/DTD/svg11.dtd">
<!-- Generated by graphviz version 2.26.3 (20100126.1600)
 -->
<!-- Title: ant::expconfig::detector::PID_2009_05 Pages: 1 -->
<svg width="245pt" height="218pt"
 viewBox="0.00 0.00 245.00 218.00" xmlns="http://www.w3.org/2000/svg" xmlns:xlink="http://www.w3.org/1999/xlink">
<g id="graph1" class="graph" transform="scale(1 1) rotate(0) translate(4 214)">
<title>ant::expconfig::detector::PID_2009_05</title>
<polygon fill="white" stroke="white" points="-4,5 -4,-214 242,-214 242,5 -4,5"/>
<!-- Node1 -->
<g id="node1" class="node"><title>Node1</title>
<polygon fill="#bfbfbf" stroke="black" points="51.5,-1 51.5,-35 170.5,-35 170.5,-1 51.5,-1"/>
<text text-anchor="start" x="59.5" y="-22" font-family="Helvetica,sans-Serif" font-size="10.00">ant::expconfig::detector</text>
<text text-anchor="middle" x="111" y="-9" font-family="Helvetica,sans-Serif" font-size="10.00">::PID_2009_05</text>
</g>
<!-- Node2 -->
<g id="node2" class="node"><title>Node2</title>
<a xlink:href="structant_1_1expconfig_1_1detector_1_1_p_i_d.html" target="_top" xlink:title="ant::expconfig::detector::PID">
<polygon fill="white" stroke="black" points="39.5,-72.5 39.5,-93.5 182.5,-93.5 182.5,-72.5 39.5,-72.5"/>
<text text-anchor="middle" x="111" y="-80.5" font-family="Helvetica,sans-Serif" font-size="10.00">ant::expconfig::detector::PID</text>
</a>
</g>
<!-- Node2&#45;&gt;Node1 -->
<g id="edge2" class="edge"><title>Node2&#45;&gt;Node1</title>
<path fill="none" stroke="midnightblue" d="M111,-62.1306C111,-53.4049 111,-43.3908 111,-35.1099"/>
<polygon fill="midnightblue" stroke="midnightblue" points="107.5,-62.2665 111,-72.2666 114.5,-62.2666 107.5,-62.2665"/>
</g>
<!-- Node3 -->
<g id="node4" class="node"><title>Node3</title>
<a xlink:href="structant_1_1_detector__t.html" target="_top" xlink:title="The Detector_t struct is the minimal base class for all detectors. ">
<polygon fill="white" stroke="black" points="9,-130.5 9,-151.5 91,-151.5 91,-130.5 9,-130.5"/>
<text text-anchor="middle" x="50" y="-138.5" font-family="Helvetica,sans-Serif" font-size="10.00">ant::Detector_t</text>
</a>
</g>
<!-- Node3&#45;&gt;Node2 -->
<g id="edge4" class="edge"><title>Node3&#45;&gt;Node2</title>
<path fill="none" stroke="midnightblue" d="M68.5051,-123.405C78.7454,-113.668 91.1315,-101.891 99.8826,-93.5707"/>
<polygon fill="midnightblue" stroke="midnightblue" points="66.0237,-120.935 61.1883,-130.362 70.8471,-126.008 66.0237,-120.935"/>
</g>
<!-- Node4 -->
<g id="node6" class="node"><title>Node4</title>
<a xlink:href="classant_1_1printable__traits.html" target="_top" xlink:title="ant::printable_traits">
<polygon fill="white" stroke="black" points="0,-188.5 0,-209.5 100,-209.5 100,-188.5 0,-188.5"/>
<text text-anchor="middle" x="50" y="-196.5" font-family="Helvetica,sans-Serif" font-size="10.00">ant::printable_traits</text>
</a>
</g>
<!-- Node4&#45;&gt;Node3 -->
<g id="edge6" class="edge"><title>Node4&#45;&gt;Node3</title>
<path fill="none" stroke="midnightblue" d="M50,-178.191C50,-169.168 50,-158.994 50,-151.571"/>
<polygon fill="midnightblue" stroke="midnightblue" points="46.5001,-178.362 50,-188.362 53.5001,-178.362 46.5001,-178.362"/>
</g>
<!-- Node5 -->
<g id="node8" class="node"><title>Node5</title>
<a xlink:href="classant_1_1_unpacker_acqu_config.html" target="_top" xlink:title="ant::UnpackerAcquConfig">
<polygon fill="white" stroke="black" points="108.5,-130.5 108.5,-151.5 237.5,-151.5 237.5,-130.5 108.5,-130.5"/>
<text text-anchor="middle" x="173" y="-138.5" font-family="Helvetica,sans-Serif" font-size="10.00">ant::UnpackerAcquConfig</text>
</a>
</g>
<!-- Node5&#45;&gt;Node2 -->
<g id="edge8" class="edge"><title>Node5&#45;&gt;Node2</title>
<path fill="none" stroke="midnightblue" d="M154.192,-123.405C143.783,-113.668 131.194,-101.891 122.3,-93.5707"/>
<polygon fill="midnightblue" stroke="midnightblue" points="151.934,-126.086 161.628,-130.362 156.717,-120.974 151.934,-126.086"/>
</g>
</g>
</svg>
