<?xml version="1.0" encoding="UTF-8" standalone="no"?>
<!DOCTYPE svg PUBLIC "-//W3C//DTD SVG 1.1//EN"
 "http://www.w3.org/Graphics/SVG/1.1/DTD/svg11.dtd">
<!-- Generated by graphviz version 2.26.3 (20100126.1600)
 -->
<!-- Title: SigPi0Hist_t::Fill_t Pages: 1 -->
<svg width="1830pt" height="291pt"
 viewBox="0.00 0.00 1830.00 291.00" xmlns="http://www.w3.org/2000/svg" xmlns:xlink="http://www.w3.org/1999/xlink">
<g id="graph1" class="graph" transform="scale(1 1) rotate(0) translate(4 287)">
<title>SigPi0Hist_t::Fill_t</title>
<polygon fill="white" stroke="white" points="-4,5 -4,-287 1827,-287 1827,5 -4,5"/>
<!-- Node1 -->
<g id="node1" class="node"><title>Node1</title>
<polygon fill="#bfbfbf" stroke="black" points="1724,-178.5 1724,-199.5 1822,-199.5 1822,-178.5 1724,-178.5"/>
<text text-anchor="middle" x="1773" y="-186.5" font-family="Helvetica,sans-Serif" font-size="10.00">SigPi0Hist_t::Fill_t</text>
</g>
<!-- Node2 -->
<g id="node2" class="node"><title>Node2</title>
<a xlink:href="struct_sig_hist__t_1_1_fill__t.html" target="_top" xlink:title="SigHist_t::Fill_t">
<polygon fill="white" stroke="black" points="1562,-147.5 1562,-168.5 1646,-168.5 1646,-147.5 1562,-147.5"/>
<text text-anchor="middle" x="1604" y="-155.5" font-family="Helvetica,sans-Serif" font-size="10.00">SigHist_t::Fill_t</text>
</a>
</g>
<!-- Node2&#45;&gt;Node1 -->
<g id="edge2" class="edge"><title>Node2&#45;&gt;Node1</title>
<path fill="none" stroke="midnightblue" d="M1656.18,-167.571C1677.74,-171.526 1702.61,-176.088 1723.84,-179.983"/>
<polygon fill="midnightblue" stroke="midnightblue" points="1656.68,-164.104 1646.21,-165.743 1655.41,-170.99 1656.68,-164.104"/>
</g>
<!-- Node3 -->
<g id="node4" class="node"><title>Node3</title>
<a xlink:href="struct_common_hist__t_1_1_fill__t.html" target="_top" xlink:title="CommonHist_t::Fill_t">
<polygon fill="white" stroke="black" points="1359,-190.5 1359,-211.5 1469,-211.5 1469,-190.5 1359,-190.5"/>
<text text-anchor="middle" x="1414" y="-198.5" font-family="Helvetica,sans-Serif" font-size="10.00">CommonHist_t::Fill_t</text>
</a>
</g>
<!-- Node3&#45;&gt;Node2 -->
<g id="edge4" class="edge"><title>Node3&#45;&gt;Node2</title>
<path fill="none" stroke="midnightblue" d="M1470.57,-188.197C1499.87,-181.567 1535.02,-173.611 1561.89,-167.53"/>
<polygon fill="midnightblue" stroke="midnightblue" points="1469.46,-184.86 1460.48,-190.481 1471.01,-191.687 1469.46,-184.86"/>
</g>
<!-- Node4 -->
<g id="node6" class="node"><title>Node4</title>
<a xlink:href="structant_1_1analysis_1_1physics_1_1_etap_omega_g_1_1_proton_photon_tree__t.html" target="_top" xlink:title="ant::analysis::physics\l::EtapOmegaG::ProtonPhotonTree_t">
<polygon fill="white" stroke="black" points="962.5,-248 962.5,-282 1137.5,-282 1137.5,-248 962.5,-248"/>
<text text-anchor="start" x="970.5" y="-269" font-family="Helvetica,sans-Serif" font-size="10.00">ant::analysis::physics</text>
<text text-anchor="middle" x="1050" y="-256" font-family="Helvetica,sans-Serif" font-size="10.00">::EtapOmegaG::ProtonPhotonTree_t</text>
</a>
</g>
<!-- Node4&#45;&gt;Node3 -->
<g id="edge6" class="edge"><title>Node4&#45;&gt;Node3</title>
<path fill="none" stroke="#9a32cd" stroke-dasharray="5,2" d="M1139.9,-246.037C1145.35,-244.984 1150.74,-243.963 1156,-243 1233.91,-228.726 1253.85,-227.887 1332,-215 1340.69,-213.567 1349.9,-212.021 1358.88,-210.499"/>
<polygon fill="#9a32cd" stroke="#9a32cd" points="1139.22,-242.604 1130.08,-247.964 1140.57,-249.474 1139.22,-242.604"/>
<text text-anchor="middle" x="1244" y="-247" font-family="Helvetica,sans-Serif" font-size="10.00"> ProtonPhoton</text>
</g>
<!-- Node18 -->
<g id="node39" class="node"><title>Node18</title>
<a xlink:href="structant_1_1analysis_1_1physics_1_1_etap_omega_g_1_1_sig__t_1_1_fit__t_1_1_base_tree__t.html" target="_top" xlink:title="ant::analysis::physics\l::EtapOmegaG::Sig_t::Fit\l_t::BaseTree_t">
<polygon fill="white" stroke="black" points="1350,-235.5 1350,-282.5 1478,-282.5 1478,-235.5 1350,-235.5"/>
<text text-anchor="start" x="1358" y="-269.5" font-family="Helvetica,sans-Serif" font-size="10.00">ant::analysis::physics</text>
<text text-anchor="start" x="1358" y="-256.5" font-family="Helvetica,sans-Serif" font-size="10.00">::EtapOmegaG::Sig_t::Fit</text>
<text text-anchor="middle" x="1414" y="-243.5" font-family="Helvetica,sans-Serif" font-size="10.00">_t::BaseTree_t</text>
</a>
</g>
<!-- Node4&#45;&gt;Node18 -->
<g id="edge46" class="edge"><title>Node4&#45;&gt;Node18</title>
<path fill="none" stroke="midnightblue" d="M1147.78,-263.388C1211.93,-262.331 1293.97,-260.978 1349.92,-260.056"/>
<polygon fill="midnightblue" stroke="midnightblue" points="1147.59,-259.891 1137.65,-263.555 1147.71,-266.89 1147.59,-259.891"/>
</g>
<!-- Node5 -->
<g id="node8" class="node"><title>Node5</title>
<a xlink:href="structant_1_1_wrap_t_tree.html" target="_top" xlink:title="The WrapTTree struct simplifies TTree handling in physics classes. ">
<polygon fill="white" stroke="black" points="838.5,-117.5 838.5,-138.5 923.5,-138.5 923.5,-117.5 838.5,-117.5"/>
<text text-anchor="middle" x="881" y="-125.5" font-family="Helvetica,sans-Serif" font-size="10.00">ant::WrapTTree</text>
</a>
</g>
<!-- Node5&#45;&gt;Node4 -->
<g id="edge8" class="edge"><title>Node5&#45;&gt;Node4</title>
<path fill="none" stroke="midnightblue" d="M890.352,-147.879C903.091,-172.823 928.235,-215.208 962,-239 966.818,-242.395 972.082,-245.352 977.562,-247.926"/>
<polygon fill="midnightblue" stroke="midnightblue" points="893.365,-146.076 885.802,-138.656 887.087,-149.173 893.365,-146.076"/>
</g>
<!-- Node11 -->
<g id="node20" class="node"><title>Node11</title>
<a xlink:href="structant_1_1analysis_1_1physics_1_1_etap_omega_g_1_1_tree_common.html" target="_top" xlink:title="ant::analysis::physics\l::EtapOmegaG::TreeCommon">
<polygon fill="white" stroke="black" points="976.5,-196 976.5,-230 1123.5,-230 1123.5,-196 976.5,-196"/>
<text text-anchor="start" x="984.5" y="-217" font-family="Helvetica,sans-Serif" font-size="10.00">ant::analysis::physics</text>
<text text-anchor="middle" x="1050" y="-204" font-family="Helvetica,sans-Serif" font-size="10.00">::EtapOmegaG::TreeCommon</text>
</a>
</g>
<!-- Node5&#45;&gt;Node11 -->
<g id="edge22" class="edge"><title>Node5&#45;&gt;Node11</title>
<path fill="none" stroke="midnightblue" d="M900.679,-145.328C916.357,-158.361 939.358,-175.827 962,-187 968.714,-190.313 975.93,-193.286 983.235,-195.932"/>
<polygon fill="midnightblue" stroke="midnightblue" points="902.66,-142.418 892.772,-138.611 898.128,-147.753 902.66,-142.418"/>
</g>
<!-- Node13 -->
<g id="node25" class="node"><title>Node13</title>
<a xlink:href="structant_1_1analysis_1_1physics_1_1_etap_dalitz_1_1common__tree.html" target="_top" xlink:title="ant::analysis::physics\l::EtapDalitz::common_tree">
<polygon fill="white" stroke="black" points="983,-144 983,-178 1117,-178 1117,-144 983,-144"/>
<text text-anchor="start" x="991" y="-165" font-family="Helvetica,sans-Serif" font-size="10.00">ant::analysis::physics</text>
<text text-anchor="middle" x="1050" y="-152" font-family="Helvetica,sans-Serif" font-size="10.00">::EtapDalitz::common_tree</text>
</a>
</g>
<!-- Node5&#45;&gt;Node13 -->
<g id="edge28" class="edge"><title>Node5&#45;&gt;Node13</title>
<path fill="none" stroke="midnightblue" d="M933.589,-138.269C949.132,-141.304 966.363,-144.668 982.698,-147.858"/>
<polygon fill="midnightblue" stroke="midnightblue" points="934.131,-134.809 923.646,-136.327 932.79,-141.679 934.131,-134.809"/>
</g>
<!-- Node14 -->
<g id="node28" class="node"><title>Node14</title>
<a xlink:href="structant_1_1analysis_1_1physics_1_1_etap_dalitz_1_1proton__tree.html" target="_top" xlink:title="ant::analysis::physics\l::EtapDalitz::proton_tree">
<polygon fill="white" stroke="black" points="988.5,-92 988.5,-126 1111.5,-126 1111.5,-92 988.5,-92"/>
<text text-anchor="start" x="996.5" y="-113" font-family="Helvetica,sans-Serif" font-size="10.00">ant::analysis::physics</text>
<text text-anchor="middle" x="1050" y="-100" font-family="Helvetica,sans-Serif" font-size="10.00">::EtapDalitz::proton_tree</text>
</a>
</g>
<!-- Node5&#45;&gt;Node14 -->
<g id="edge32" class="edge"><title>Node5&#45;&gt;Node14</title>
<path fill="none" stroke="midnightblue" d="M934.053,-122.035C951.238,-120.103 970.447,-117.944 988.21,-115.947"/>
<polygon fill="midnightblue" stroke="midnightblue" points="933.192,-118.61 923.646,-123.205 933.974,-125.566 933.192,-118.61"/>
</g>
<!-- Node15 -->
<g id="node31" class="node"><title>Node15</title>
<a xlink:href="structant_1_1analysis_1_1physics_1_1_etap_dalitz_1_1fit__tree.html" target="_top" xlink:title="ant::analysis::physics\l::EtapDalitz::fit_tree">
<polygon fill="white" stroke="black" points="994,-40 994,-74 1106,-74 1106,-40 994,-40"/>
<text text-anchor="start" x="1002" y="-61" font-family="Helvetica,sans-Serif" font-size="10.00">ant::analysis::physics</text>
<text text-anchor="middle" x="1050" y="-48" font-family="Helvetica,sans-Serif" font-size="10.00">::EtapDalitz::fit_tree</text>
</a>
</g>
<!-- Node5&#45;&gt;Node15 -->
<g id="edge36" class="edge"><title>Node5&#45;&gt;Node15</title>
<path fill="none" stroke="midnightblue" d="M906.09,-112.174C921.735,-102.787 942.531,-91.167 962,-83 972.136,-78.7479 983.202,-74.8992 993.959,-71.5452"/>
<polygon fill="midnightblue" stroke="midnightblue" points="904.237,-109.204 897.523,-117.399 907.882,-115.18 904.237,-109.204"/>
</g>
<!-- Node16 -->
<g id="node34" class="node"><title>Node16</title>
<a xlink:href="structant_1_1analysis_1_1physics_1_1_etap_omega_g_1_1_sig__t_1_1_shared_tree__t.html" target="_top" xlink:title="ant::analysis::physics\l::EtapOmegaG::Sig_t::SharedTree_t">
<polygon fill="white" stroke="black" points="1156.5,-0 1156.5,-34 1331.5,-34 1331.5,-0 1156.5,-0"/>
<text text-anchor="start" x="1164.5" y="-21" font-family="Helvetica,sans-Serif" font-size="10.00">ant::analysis::physics</text>
<text text-anchor="middle" x="1244" y="-8" font-family="Helvetica,sans-Serif" font-size="10.00">::EtapOmegaG::Sig_t::SharedTree_t</text>
</a>
</g>
<!-- Node5&#45;&gt;Node16 -->
<g id="edge40" class="edge"><title>Node5&#45;&gt;Node16</title>
<path fill="none" stroke="midnightblue" d="M890.838,-108.402C903.67,-85.2268 928.495,-47.6969 962,-31 1022,-1.10128 1098.36,0.849733 1156.49,-3.8203"/>
<polygon fill="midnightblue" stroke="midnightblue" points="887.684,-106.879 886.083,-117.353 893.866,-110.164 887.684,-106.879"/>
</g>
<!-- Node6 -->
<g id="node10" class="node"><title>Node6</title>
<polygon fill="white" stroke="#bfbfbf" points="618,-111 618,-145 758,-145 758,-111 618,-111"/>
<text text-anchor="start" x="626" y="-132" font-family="Helvetica,sans-Serif" font-size="10.00">std::vector&lt; ant::WrapTTree</text>
<text text-anchor="middle" x="688" y="-119" font-family="Helvetica,sans-Serif" font-size="10.00">::ROOT_branch_t &gt;</text>
</g>
<!-- Node6&#45;&gt;Node5 -->
<g id="edge10" class="edge"><title>Node6&#45;&gt;Node5</title>
<path fill="none" stroke="#9a32cd" stroke-dasharray="5,2" d="M768.407,-128C792.406,-128 817.771,-128 838.338,-128"/>
<polygon fill="#9a32cd" stroke="#9a32cd" points="768.223,-124.5 758.223,-128 768.223,-131.5 768.223,-124.5"/>
<text text-anchor="middle" x="798" y="-132" font-family="Helvetica,sans-Serif" font-size="10.00"> branches</text>
</g>
<!-- Node7 -->
<g id="node12" class="node"><title>Node7</title>
<a xlink:href="structant_1_1_wrap_t_tree_1_1_r_o_o_t__branch__t.html" target="_top" xlink:title="ant::WrapTTree::ROOT\l_branch_t">
<polygon fill="white" stroke="black" points="418.5,-111 418.5,-145 537.5,-145 537.5,-111 418.5,-111"/>
<text text-anchor="start" x="426.5" y="-132" font-family="Helvetica,sans-Serif" font-size="10.00">ant::WrapTTree::ROOT</text>
<text text-anchor="middle" x="478" y="-119" font-family="Helvetica,sans-Serif" font-size="10.00">_branch_t</text>
</a>
</g>
<!-- Node7&#45;&gt;Node6 -->
<g id="edge12" class="edge"><title>Node7&#45;&gt;Node6</title>
<path fill="none" stroke="#9a32cd" stroke-dasharray="5,2" d="M547.776,-128C570.301,-128 595.273,-128 617.827,-128"/>
<polygon fill="#9a32cd" stroke="#9a32cd" points="547.616,-124.5 537.616,-128 547.616,-131.5 547.616,-124.5"/>
<text text-anchor="middle" x="578" y="-132" font-family="Helvetica,sans-Serif" font-size="10.00"> elements</text>
</g>
<!-- Node8 -->
<g id="node14" class="node"><title>Node8</title>
<a xlink:href="structant_1_1_wrap_t_tree_1_1_r_o_o_t__branchinfo__t.html" target="_top" xlink:title="ant::WrapTTree::ROOT\l_branchinfo_t">
<polygon fill="white" stroke="black" points="260.5,-111 260.5,-145 379.5,-145 379.5,-111 260.5,-111"/>
<text text-anchor="start" x="268.5" y="-132" font-family="Helvetica,sans-Serif" font-size="10.00">ant::WrapTTree::ROOT</text>
<text text-anchor="middle" x="320" y="-119" font-family="Helvetica,sans-Serif" font-size="10.00">_branchinfo_t</text>
</a>
</g>
<!-- Node8&#45;&gt;Node7 -->
<g id="edge14" class="edge"><title>Node8&#45;&gt;Node7</title>
<path fill="none" stroke="midnightblue" d="M389.953,-128C399.46,-128 409.144,-128 418.445,-128"/>
<polygon fill="midnightblue" stroke="midnightblue" points="389.733,-124.5 379.733,-128 389.733,-131.5 389.733,-124.5"/>
</g>
<!-- Node9 -->
<g id="node16" class="node"><title>Node9</title>
<a xlink:title="STL class. ">
<polygon fill="white" stroke="#bfbfbf" points="134,-117.5 134,-138.5 194,-138.5 194,-117.5 134,-117.5"/>
<text text-anchor="middle" x="164" y="-125.5" font-family="Helvetica,sans-Serif" font-size="10.00">std::string</text>
</a>
</g>
<!-- Node9&#45;&gt;Node8 -->
<g id="edge16" class="edge"><title>Node9&#45;&gt;Node8</title>
<path fill="none" stroke="#9a32cd" stroke-dasharray="5,2" d="M204.251,-128C221.314,-128 241.554,-128 260.3,-128"/>
<polygon fill="#9a32cd" stroke="#9a32cd" points="204.078,-124.5 194.078,-128 204.078,-131.5 204.078,-124.5"/>
<text text-anchor="middle" x="227" y="-132" font-family="Helvetica,sans-Serif" font-size="10.00"> Name</text>
</g>
<!-- Node10 -->
<g id="node18" class="node"><title>Node10</title>
<a xlink:title="STL class. ">
<polygon fill="white" stroke="#bfbfbf" points="0.5,-111 0.5,-145 95.5,-145 95.5,-111 0.5,-111"/>
<text text-anchor="start" x="8.5" y="-132" font-family="Helvetica,sans-Serif" font-size="10.00">std::basic_string&lt;</text>
<text text-anchor="middle" x="48" y="-119" font-family="Helvetica,sans-Serif" font-size="10.00"> char &gt;</text>
</a>
</g>
<!-- Node10&#45;&gt;Node9 -->
<g id="edge18" class="edge"><title>Node10&#45;&gt;Node9</title>
<path fill="none" stroke="midnightblue" d="M105.582,-128C115.29,-128 125.014,-128 133.666,-128"/>
<polygon fill="midnightblue" stroke="midnightblue" points="105.516,-124.5 95.5163,-128 105.516,-131.5 105.516,-124.5"/>
</g>
<!-- Node11&#45;&gt;Node3 -->
<g id="edge20" class="edge"><title>Node11&#45;&gt;Node3</title>
<path fill="none" stroke="#9a32cd" stroke-dasharray="5,2" d="M1133.93,-203.515C1141.38,-202.907 1148.82,-202.385 1156,-202 1225.89,-198.248 1306.58,-198.703 1358.84,-199.628"/>
<polygon fill="#9a32cd" stroke="#9a32cd" points="1133.43,-200.044 1123.77,-204.392 1134.04,-207.018 1133.43,-200.044"/>
<text text-anchor="middle" x="1244" y="-206" font-family="Helvetica,sans-Serif" font-size="10.00"> Common</text>
</g>
<!-- Node12 -->
<g id="node23" class="node"><title>Node12</title>
<a xlink:href="structant_1_1analysis_1_1physics_1_1_etap_dalitz_1_1_sig_tree__t.html" target="_top" xlink:title="ant::analysis::physics\l::EtapDalitz::SigTree_t">
<polygon fill="white" stroke="black" points="1356,-122 1356,-156 1472,-156 1472,-122 1356,-122"/>
<text text-anchor="start" x="1364" y="-143" font-family="Helvetica,sans-Serif" font-size="10.00">ant::analysis::physics</text>
<text text-anchor="middle" x="1414" y="-130" font-family="Helvetica,sans-Serif" font-size="10.00">::EtapDalitz::SigTree_t</text>
</a>
</g>
<!-- Node12&#45;&gt;Node2 -->
<g id="edge24" class="edge"><title>Node12&#45;&gt;Node2</title>
<path fill="none" stroke="#9a32cd" stroke-dasharray="5,2" d="M1482.09,-145.809C1508.78,-148.478 1538.55,-151.455 1561.99,-153.799"/>
<polygon fill="#9a32cd" stroke="#9a32cd" points="1482.34,-142.316 1472.04,-144.804 1481.64,-149.282 1482.34,-142.316"/>
<text text-anchor="middle" x="1508" y="-153" font-family="Helvetica,sans-Serif" font-size="10.00"> Tree</text>
</g>
<!-- Node13&#45;&gt;Node12 -->
<g id="edge26" class="edge"><title>Node13&#45;&gt;Node12</title>
<path fill="none" stroke="midnightblue" d="M1127.48,-156.317C1195.87,-152.184 1294.06,-146.249 1355.91,-142.511"/>
<polygon fill="midnightblue" stroke="midnightblue" points="1126.96,-152.842 1117.19,-156.939 1127.38,-159.829 1126.96,-152.842"/>
</g>
<!-- Node14&#45;&gt;Node12 -->
<g id="edge30" class="edge"><title>Node14&#45;&gt;Node12</title>
<path fill="none" stroke="midnightblue" d="M1122.03,-114.936C1190.55,-120.584 1292.36,-128.974 1355.87,-134.209"/>
<polygon fill="midnightblue" stroke="midnightblue" points="1122,-111.422 1111.75,-114.089 1121.43,-118.399 1122,-111.422"/>
</g>
<!-- Node15&#45;&gt;Node12 -->
<g id="edge34" class="edge"><title>Node15&#45;&gt;Node12</title>
<path fill="none" stroke="midnightblue" d="M1116.04,-68.4846C1173.45,-78.9115 1258.68,-95.4595 1332,-114 1341.38,-116.372 1351.28,-119.151 1360.84,-121.977"/>
<polygon fill="midnightblue" stroke="midnightblue" points="1116.47,-65.006 1106.01,-66.6735 1115.22,-71.8946 1116.47,-65.006"/>
</g>
<!-- Node16&#45;&gt;Node2 -->
<g id="edge38" class="edge"><title>Node16&#45;&gt;Node2</title>
<path fill="none" stroke="#9a32cd" stroke-dasharray="5,2" d="M1306.09,-37.3115C1353.58,-53.26 1420.47,-76.6117 1478,-100 1515.25,-115.145 1557.52,-135.213 1582.41,-147.335"/>
<polygon fill="#9a32cd" stroke="#9a32cd" points="1307.15,-33.9767 1296.55,-34.1231 1304.93,-40.6151 1307.15,-33.9767"/>
<text text-anchor="middle" x="1414" y="-104" font-family="Helvetica,sans-Serif" font-size="10.00"> Shared</text>
</g>
<!-- Node17 -->
<g id="node37" class="node"><title>Node17</title>
<a xlink:href="structant_1_1analysis_1_1physics_1_1_etap_omega_g_1_1_sig__t_1_1_pi0__t_1_1_tree__t.html" target="_top" xlink:title="ant::analysis::physics\l::EtapOmegaG::Sig_t::Pi0\l_t::Tree_t">
<polygon fill="white" stroke="black" points="1538.5,-191.5 1538.5,-238.5 1669.5,-238.5 1669.5,-191.5 1538.5,-191.5"/>
<text text-anchor="start" x="1546.5" y="-225.5" font-family="Helvetica,sans-Serif" font-size="10.00">ant::analysis::physics</text>
<text text-anchor="start" x="1546.5" y="-212.5" font-family="Helvetica,sans-Serif" font-size="10.00">::EtapOmegaG::Sig_t::Pi0</text>
<text text-anchor="middle" x="1604" y="-199.5" font-family="Helvetica,sans-Serif" font-size="10.00">_t::Tree_t</text>
</a>
</g>
<!-- Node17&#45;&gt;Node1 -->
<g id="edge42" class="edge"><title>Node17&#45;&gt;Node1</title>
<path fill="none" stroke="#9a32cd" stroke-dasharray="5,2" d="M1680.04,-203.302C1694.91,-201.014 1710.14,-198.672 1723.85,-196.562"/>
<polygon fill="#9a32cd" stroke="#9a32cd" points="1679.18,-199.893 1669.82,-204.873 1680.24,-206.812 1679.18,-199.893"/>
<text text-anchor="middle" x="1697" y="-206" font-family="Helvetica,sans-Serif" font-size="10.00"> Pi0</text>
</g>
<!-- Node18&#45;&gt;Node17 -->
<g id="edge44" class="edge"><title>Node18&#45;&gt;Node17</title>
<path fill="none" stroke="midnightblue" d="M1488.21,-241.814C1504.73,-237.989 1522.13,-233.96 1538.27,-230.221"/>
<polygon fill="midnightblue" stroke="midnightblue" points="1487.01,-238.499 1478.06,-244.165 1488.59,-245.319 1487.01,-238.499"/>
</g>
</g>
</svg>
