<?xml version="1.0" encoding="UTF-8" standalone="no"?>
<!DOCTYPE svg PUBLIC "-//W3C//DTD SVG 1.1//EN"
 "http://www.w3.org/Graphics/SVG/1.1/DTD/svg11.dtd">
<!-- Generated by graphviz version 2.26.3 (20100126.1600)
 -->
<!-- Title: ant::analysis::physics::singlePi0::protonSelection_t Pages: 1 -->
<svg width="718pt" height="139pt"
 viewBox="0.00 0.00 718.00 139.00" xmlns="http://www.w3.org/2000/svg" xmlns:xlink="http://www.w3.org/1999/xlink">
<g id="graph1" class="graph" transform="scale(1 1) rotate(0) translate(4 135)">
<title>ant::analysis::physics::singlePi0::protonSelection_t</title>
<polygon fill="white" stroke="white" points="-4,5 -4,-135 715,-135 715,5 -4,5"/>
<!-- Node1 -->
<g id="node1" class="node"><title>Node1</title>
<polygon fill="#bfbfbf" stroke="black" points="566,-56 566,-90 710,-90 710,-56 566,-56"/>
<text text-anchor="start" x="574" y="-77" font-family="Helvetica,sans-Serif" font-size="10.00">ant::analysis::physics</text>
<text text-anchor="middle" x="638" y="-64" font-family="Helvetica,sans-Serif" font-size="10.00">::singlePi0::protonSelection_t</text>
</g>
<!-- Node2 -->
<g id="node2" class="node"><title>Node2</title>
<a xlink:href="structant_1_1std__ext_1_1cc__shared__ptr.html" target="_top" xlink:title="ant::std_ext::cc_shared\l_ptr\&lt; TParticle \&gt;">
<polygon fill="white" stroke="black" points="345.5,-97 345.5,-131 464.5,-131 464.5,-97 345.5,-97"/>
<text text-anchor="start" x="353.5" y="-118" font-family="Helvetica,sans-Serif" font-size="10.00">ant::std_ext::cc_shared</text>
<text text-anchor="middle" x="405" y="-105" font-family="Helvetica,sans-Serif" font-size="10.00">_ptr&lt; TParticle &gt;</text>
</a>
</g>
<!-- Node2&#45;&gt;Node1 -->
<g id="edge2" class="edge"><title>Node2&#45;&gt;Node1</title>
<path fill="none" stroke="#9a32cd" stroke-dasharray="5,2" d="M474.691,-101.737C503.517,-96.6644 536.929,-90.7851 565.993,-85.6708"/>
<polygon fill="#9a32cd" stroke="#9a32cd" points="473.943,-98.3146 464.701,-103.495 475.156,-105.209 473.943,-98.3146"/>
<text text-anchor="middle" x="519" y="-102" font-family="Helvetica,sans-Serif" font-size="10.00"> Proton</text>
</g>
<!-- Node3 -->
<g id="node4" class="node"><title>Node3</title>
<polygon fill="white" stroke="#bfbfbf" points="338.5,-57.5 338.5,-78.5 471.5,-78.5 471.5,-57.5 338.5,-57.5"/>
<text text-anchor="middle" x="405" y="-65.5" font-family="Helvetica,sans-Serif" font-size="10.00">std::vector&lt; TParticlePtr &gt;</text>
</g>
<!-- Node3&#45;&gt;Node1 -->
<g id="edge4" class="edge"><title>Node3&#45;&gt;Node1</title>
<path fill="none" stroke="#9a32cd" stroke-dasharray="5,2" d="M481.963,-69.6516C509.014,-70.2321 539.291,-70.8818 565.924,-71.4533"/>
<polygon fill="#9a32cd" stroke="#9a32cd" points="481.841,-66.1482 471.768,-69.4328 481.691,-73.1466 481.841,-66.1482"/>
<text text-anchor="middle" x="519" y="-74" font-family="Helvetica,sans-Serif" font-size="10.00"> Photons</text>
</g>
<!-- Node4 -->
<g id="node6" class="node"><title>Node4</title>
<a xlink:href="structant_1_1std__ext_1_1cc__shared__ptr.html" target="_top" xlink:title="ant::std_ext::cc_shared\l_ptr\&lt; T \&gt;">
<polygon fill="white" stroke="black" points="138.5,-51 138.5,-85 257.5,-85 257.5,-51 138.5,-51"/>
<text text-anchor="start" x="146.5" y="-72" font-family="Helvetica,sans-Serif" font-size="10.00">ant::std_ext::cc_shared</text>
<text text-anchor="middle" x="198" y="-59" font-family="Helvetica,sans-Serif" font-size="10.00">_ptr&lt; T &gt;</text>
</a>
</g>
<!-- Node4&#45;&gt;Node3 -->
<g id="edge6" class="edge"><title>Node4&#45;&gt;Node3</title>
<path fill="none" stroke="#9a32cd" stroke-dasharray="5,2" d="M267.844,-68C290.561,-68 315.705,-68 338.194,-68"/>
<polygon fill="#9a32cd" stroke="#9a32cd" points="267.595,-64.5001 257.595,-68 267.595,-71.5001 267.595,-64.5001"/>
<text text-anchor="middle" x="298" y="-72" font-family="Helvetica,sans-Serif" font-size="10.00"> elements</text>
</g>
<!-- Node5 -->
<g id="node8" class="node"><title>Node5</title>
<a xlink:href="structant_1_1_lorentz_vec.html" target="_top" xlink:title="A Lorentz vector (x,y,z,E), diag(&#45;1,&#45;1,&#45;1, 1) ">
<polygon fill="white" stroke="black" points="362,-0.5 362,-21.5 448,-21.5 448,-0.5 362,-0.5"/>
<text text-anchor="middle" x="405" y="-8.5" font-family="Helvetica,sans-Serif" font-size="10.00">ant::LorentzVec</text>
</a>
</g>
<!-- Node5&#45;&gt;Node1 -->
<g id="edge8" class="edge"><title>Node5&#45;&gt;Node1</title>
<path fill="none" stroke="#9a32cd" stroke-dasharray="5,2" d="M458.208,-11.8377C485.533,-13.449 519.073,-17.2766 548,-26 570.615,-32.8197 594.213,-45.3774 611.57,-55.7977"/>
<polygon fill="#9a32cd" stroke="#9a32cd" points="458.227,-8.33422 448.063,-11.3231 457.873,-15.3252 458.227,-8.33422"/>
<text text-anchor="middle" x="519" y="-56" font-family="Helvetica,sans-Serif" font-size="10.00"> Proton_MM</text>
<text text-anchor="middle" x="519" y="-43" font-family="Helvetica,sans-Serif" font-size="10.00">PhotonBeam</text>
<text text-anchor="middle" x="519" y="-30" font-family="Helvetica,sans-Serif" font-size="10.00">PhotonSum</text>
</g>
<!-- Node6 -->
<g id="node10" class="node"><title>Node6</title>
<a xlink:href="structant_1_1vec3.html" target="_top" xlink:title="ant::vec3">
<polygon fill="white" stroke="black" points="169.5,-0.5 169.5,-21.5 226.5,-21.5 226.5,-0.5 169.5,-0.5"/>
<text text-anchor="middle" x="198" y="-8.5" font-family="Helvetica,sans-Serif" font-size="10.00">ant::vec3</text>
</a>
</g>
<!-- Node6&#45;&gt;Node5 -->
<g id="edge10" class="edge"><title>Node6&#45;&gt;Node5</title>
<path fill="none" stroke="#9a32cd" stroke-dasharray="5,2" d="M237.232,-11C272.746,-11 324.968,-11 361.693,-11"/>
<polygon fill="#9a32cd" stroke="#9a32cd" points="236.782,-7.5001 226.782,-11 236.782,-14.5001 236.782,-7.5001"/>
<text text-anchor="middle" x="298" y="-15" font-family="Helvetica,sans-Serif" font-size="10.00"> p</text>
</g>
<!-- Node7 -->
<g id="node12" class="node"><title>Node7</title>
<a xlink:href="classant_1_1printable__traits.html" target="_top" xlink:title="ant::printable_traits">
<polygon fill="white" stroke="black" points="0,-0.5 0,-21.5 100,-21.5 100,-0.5 0,-0.5"/>
<text text-anchor="middle" x="50" y="-8.5" font-family="Helvetica,sans-Serif" font-size="10.00">ant::printable_traits</text>
</a>
</g>
<!-- Node7&#45;&gt;Node6 -->
<g id="edge12" class="edge"><title>Node7&#45;&gt;Node6</title>
<path fill="none" stroke="midnightblue" d="M110.254,-11C130.578,-11 152.336,-11 169.102,-11"/>
<polygon fill="midnightblue" stroke="midnightblue" points="110.106,-7.5001 100.106,-11 110.106,-14.5001 110.106,-7.5001"/>
</g>
</g>
</svg>
