<?xml version="1.0" encoding="UTF-8" standalone="no"?>
<!DOCTYPE svg PUBLIC "-//W3C//DTD SVG 1.1//EN"
 "http://www.w3.org/Graphics/SVG/1.1/DTD/svg11.dtd">
<!-- Generated by graphviz version 2.26.3 (20100126.1600)
 -->
<!-- Title: ant::TKeyValue&lt; ValueType &gt; Pages: 1 -->
<svg width="188pt" height="102pt"
 viewBox="0.00 0.00 188.00 102.00" xmlns="http://www.w3.org/2000/svg" xmlns:xlink="http://www.w3.org/1999/xlink">
<g id="graph1" class="graph" transform="scale(1 1) rotate(0) translate(4 98)">
<title>ant::TKeyValue&lt; ValueType &gt;</title>
<polygon fill="white" stroke="white" points="-4,5 -4,-98 185,-98 185,5 -4,5"/>
<!-- Node1 -->
<g id="node1" class="node"><title>Node1</title>
<polygon fill="#bfbfbf" stroke="black" points="24.5,-0.5 24.5,-21.5 173.5,-21.5 173.5,-0.5 24.5,-0.5"/>
<text text-anchor="middle" x="99" y="-8.5" font-family="Helvetica,sans-Serif" font-size="10.00">ant::TKeyValue&lt; ValueType &gt;</text>
</g>
<!-- Node2 -->
<g id="node2" class="node"><title>Node2</title>
<a xlink:href="classant_1_1printable__traits.html" target="_top" xlink:title="ant::printable_traits">
<polygon fill="white" stroke="black" points="0,-72.5 0,-93.5 100,-93.5 100,-72.5 0,-72.5"/>
<text text-anchor="middle" x="50" y="-80.5" font-family="Helvetica,sans-Serif" font-size="10.00">ant::printable_traits</text>
</a>
</g>
<!-- Node2&#45;&gt;Node1 -->
<g id="edge2" class="edge"><title>Node2&#45;&gt;Node1</title>
<path fill="none" stroke="midnightblue" d="M63.0599,-63.8099C72.247,-50.3106 84.2014,-32.7449 91.7402,-21.6674"/>
<polygon fill="midnightblue" stroke="midnightblue" points="59.9629,-62.1398 57.2301,-72.3762 65.7499,-66.0782 59.9629,-62.1398"/>
</g>
<!-- Node3 -->
<g id="node4" class="node"><title>Node3</title>
<polygon fill="white" stroke="#bfbfbf" points="117.5,-72.5 117.5,-93.5 180.5,-93.5 180.5,-72.5 117.5,-72.5"/>
<text text-anchor="middle" x="149" y="-80.5" font-family="Helvetica,sans-Serif" font-size="10.00">ValueType</text>
</g>
<!-- Node3&#45;&gt;Node1 -->
<g id="edge4" class="edge"><title>Node3&#45;&gt;Node1</title>
<path fill="none" stroke="#9a32cd" stroke-dasharray="5,2" d="M135.674,-63.8099C126.299,-50.3106 114.101,-32.7449 106.408,-21.6674"/>
<polygon fill="#9a32cd" stroke="#9a32cd" points="133.044,-66.1588 141.622,-72.3762 138.793,-62.166 133.044,-66.1588"/>
<text text-anchor="middle" x="142" y="-44.5" font-family="Helvetica,sans-Serif" font-size="10.00"> Value</text>
</g>
</g>
</svg>
