<?xml version="1.0" encoding="UTF-8" standalone="no"?>
<!DOCTYPE svg PUBLIC "-//W3C//DTD SVG 1.1//EN"
 "http://www.w3.org/Graphics/SVG/1.1/DTD/svg11.dtd">
<!-- Generated by graphviz version 2.26.3 (20100126.1600)
 -->
<!-- Title: CandidateBuilderTester Pages: 1 -->
<svg width="142pt" height="190pt"
 viewBox="0.00 0.00 142.00 190.00" xmlns="http://www.w3.org/2000/svg" xmlns:xlink="http://www.w3.org/1999/xlink">
<g id="graph1" class="graph" transform="scale(1 1) rotate(0) translate(4 186)">
<title>CandidateBuilderTester</title>
<polygon fill="white" stroke="white" points="-4,5 -4,-186 139,-186 139,5 -4,5"/>
<!-- Node1 -->
<g id="node1" class="node"><title>Node1</title>
<polygon fill="#bfbfbf" stroke="black" points="7.5,-0.5 7.5,-21.5 126.5,-21.5 126.5,-0.5 7.5,-0.5"/>
<text text-anchor="middle" x="67" y="-8.5" font-family="Helvetica,sans-Serif" font-size="10.00">CandidateBuilderTester</text>
</g>
<!-- Node2 -->
<g id="node2" class="node"><title>Node2</title>
<a xlink:href="classant_1_1reconstruct_1_1_candidate_builder.html" target="_top" xlink:title="ant::reconstruct::Candidate\lBuilder">
<polygon fill="white" stroke="black" points="-0.5,-61 -0.5,-95 134.5,-95 134.5,-61 -0.5,-61"/>
<text text-anchor="start" x="7.5" y="-82" font-family="Helvetica,sans-Serif" font-size="10.00">ant::reconstruct::Candidate</text>
<text text-anchor="middle" x="67" y="-69" font-family="Helvetica,sans-Serif" font-size="10.00">Builder</text>
</a>
</g>
<!-- Node2&#45;&gt;Node1 -->
<g id="edge2" class="edge"><title>Node2&#45;&gt;Node1</title>
<path fill="none" stroke="midnightblue" d="M67,-50.5344C67,-40.3057 67,-29.3007 67,-21.5056"/>
<polygon fill="midnightblue" stroke="midnightblue" points="63.5001,-50.7458 67,-60.7458 70.5001,-50.7459 63.5001,-50.7458"/>
</g>
<!-- Node3 -->
<g id="node4" class="node"><title>Node3</title>
<a xlink:href="structant_1_1_exp_config_1_1_setup_1_1candidatebuilder__config__t.html" target="_top" xlink:title="ant::ExpConfig::Setup\l::candidatebuilder_config_t">
<polygon fill="white" stroke="black" points="0.5,-147 0.5,-181 133.5,-181 133.5,-147 0.5,-147"/>
<text text-anchor="start" x="8.5" y="-168" font-family="Helvetica,sans-Serif" font-size="10.00">ant::ExpConfig::Setup</text>
<text text-anchor="middle" x="67" y="-155" font-family="Helvetica,sans-Serif" font-size="10.00">::candidatebuilder_config_t</text>
</a>
</g>
<!-- Node3&#45;&gt;Node2 -->
<g id="edge4" class="edge"><title>Node3&#45;&gt;Node2</title>
<path fill="none" stroke="#9a32cd" stroke-dasharray="5,2" d="M67,-136.342C67,-122.774 67,-106.861 67,-95.084"/>
<polygon fill="#9a32cd" stroke="#9a32cd" points="63.5001,-136.597 67,-146.597 70.5001,-136.597 63.5001,-136.597"/>
<text text-anchor="middle" x="82" y="-118.5" font-family="Helvetica,sans-Serif" font-size="10.00"> config</text>
</g>
</g>
</svg>
