<?xml version="1.0" encoding="UTF-8" standalone="no"?>
<!DOCTYPE svg PUBLIC "-//W3C//DTD SVG 1.1//EN"
 "http://www.w3.org/Graphics/SVG/1.1/DTD/svg11.dtd">
<!-- Generated by graphviz version 2.26.3 (20100126.1600)
 -->
<!-- Title: ant::ReconstructHook::Base Pages: 1 -->
<svg width="648pt" height="638pt"
 viewBox="0.00 0.00 648.00 638.00" xmlns="http://www.w3.org/2000/svg" xmlns:xlink="http://www.w3.org/1999/xlink">
<g id="graph1" class="graph" transform="scale(1 1) rotate(0) translate(4 634)">
<title>ant::ReconstructHook::Base</title>
<polygon fill="white" stroke="white" points="-4,5 -4,-634 645,-634 645,5 -4,5"/>
<!-- Node1 -->
<g id="node1" class="node"><title>Node1</title>
<polygon fill="#bfbfbf" stroke="black" points="0.5,-400 0.5,-434 113.5,-434 113.5,-400 0.5,-400"/>
<text text-anchor="start" x="8.5" y="-421" font-family="Helvetica,sans-Serif" font-size="10.00">ant::ReconstructHook</text>
<text text-anchor="middle" x="57" y="-408" font-family="Helvetica,sans-Serif" font-size="10.00">::Base</text>
</g>
<!-- Node2 -->
<g id="node3" class="node"><title>Node2</title>
<a xlink:href="structant_1_1_reconstruct_hook_1_1_cluster_hits.html" target="_top" xlink:title="The ClusterHits struct instances are applied before clustering and after hit matching. ">
<polygon fill="white" stroke="black" points="150.5,-570 150.5,-604 263.5,-604 263.5,-570 150.5,-570"/>
<text text-anchor="start" x="158.5" y="-591" font-family="Helvetica,sans-Serif" font-size="10.00">ant::ReconstructHook</text>
<text text-anchor="middle" x="207" y="-578" font-family="Helvetica,sans-Serif" font-size="10.00">::ClusterHits</text>
</a>
</g>
<!-- Node1&#45;&gt;Node2 -->
<g id="edge2" class="edge"><title>Node1&#45;&gt;Node2</title>
<path fill="none" stroke="midnightblue" d="M74.9968,-442.218C92.9602,-466.791 121.869,-504.764 150,-535 161.497,-547.357 175.484,-560.147 186.726,-569.95"/>
<polygon fill="midnightblue" stroke="midnightblue" points="77.8254,-440.156 69.1187,-434.119 72.1604,-444.268 77.8254,-440.156"/>
</g>
<!-- Node4 -->
<g id="node7" class="node"><title>Node4</title>
<a xlink:href="structant_1_1_reconstruct_hook_1_1_clusters.html" target="_top" xlink:title="The Clusters struct instances are applied before candidate matching and after clustering. ">
<polygon fill="white" stroke="black" points="150.5,-492 150.5,-526 263.5,-526 263.5,-492 150.5,-492"/>
<text text-anchor="start" x="158.5" y="-513" font-family="Helvetica,sans-Serif" font-size="10.00">ant::ReconstructHook</text>
<text text-anchor="middle" x="207" y="-500" font-family="Helvetica,sans-Serif" font-size="10.00">::Clusters</text>
</a>
</g>
<!-- Node1&#45;&gt;Node4 -->
<g id="edge6" class="edge"><title>Node1&#45;&gt;Node4</title>
<path fill="none" stroke="midnightblue" d="M93.4368,-439.348C119.791,-455.512 154.871,-477.028 179.033,-491.847"/>
<polygon fill="midnightblue" stroke="midnightblue" points="95.2166,-436.334 84.8623,-434.089 91.5568,-442.301 95.2166,-436.334"/>
</g>
<!-- Node7 -->
<g id="node13" class="node"><title>Node7</title>
<a xlink:href="structant_1_1_reconstruct_hook_1_1_detector_read_hits.html" target="_top" xlink:title="The DetectorReadHits struct instances are applied before hit matching. ">
<polygon fill="white" stroke="black" points="150.5,-308 150.5,-342 263.5,-342 263.5,-308 150.5,-308"/>
<text text-anchor="start" x="158.5" y="-329" font-family="Helvetica,sans-Serif" font-size="10.00">ant::ReconstructHook</text>
<text text-anchor="middle" x="207" y="-316" font-family="Helvetica,sans-Serif" font-size="10.00">::DetectorReadHits</text>
</a>
</g>
<!-- Node1&#45;&gt;Node7 -->
<g id="edge12" class="edge"><title>Node1&#45;&gt;Node7</title>
<path fill="none" stroke="midnightblue" d="M93.4368,-394.652C119.791,-378.488 154.871,-356.972 179.033,-342.153"/>
<polygon fill="midnightblue" stroke="midnightblue" points="91.5568,-391.699 84.8623,-399.911 95.2166,-397.666 91.5568,-391.699"/>
</g>
<!-- Node23 -->
<g id="node45" class="node"><title>Node23</title>
<a xlink:href="structant_1_1_reconstruct_hook_1_1_event_data.html" target="_top" xlink:title="The EventData struct instances are applied after candidate building. ">
<polygon fill="white" stroke="black" points="150.5,-184 150.5,-218 263.5,-218 263.5,-184 150.5,-184"/>
<text text-anchor="start" x="158.5" y="-205" font-family="Helvetica,sans-Serif" font-size="10.00">ant::ReconstructHook</text>
<text text-anchor="middle" x="207" y="-192" font-family="Helvetica,sans-Serif" font-size="10.00">::EventData</text>
</a>
</g>
<!-- Node1&#45;&gt;Node23 -->
<g id="edge44" class="edge"><title>Node1&#45;&gt;Node23</title>
<path fill="none" stroke="midnightblue" d="M74.7701,-391.411C105.757,-346.79 168.874,-255.901 195.129,-218.094"/>
<polygon fill="midnightblue" stroke="midnightblue" points="71.8508,-389.479 69.0216,-399.689 77.6004,-393.472 71.8508,-389.479"/>
</g>
<!-- Node3 -->
<g id="node5" class="node"><title>Node3</title>
<a xlink:href="classant_1_1calibration_1_1_c_b___time_walk.html" target="_top" xlink:title="ant::calibration::CB\l_TimeWalk">
<polygon fill="white" stroke="black" points="321.5,-596 321.5,-630 422.5,-630 422.5,-596 321.5,-596"/>
<text text-anchor="start" x="329.5" y="-617" font-family="Helvetica,sans-Serif" font-size="10.00">ant::calibration::CB</text>
<text text-anchor="middle" x="372" y="-604" font-family="Helvetica,sans-Serif" font-size="10.00">_TimeWalk</text>
</a>
</g>
<!-- Node2&#45;&gt;Node3 -->
<g id="edge4" class="edge"><title>Node2&#45;&gt;Node3</title>
<path fill="none" stroke="midnightblue" d="M274.049,-597.565C289.882,-600.06 306.502,-602.679 321.463,-605.037"/>
<polygon fill="midnightblue" stroke="midnightblue" points="274.207,-594.047 263.784,-595.948 273.117,-600.962 274.207,-594.047"/>
</g>
<!-- Node5 -->
<g id="node9" class="node"><title>Node5</title>
<a xlink:href="classant_1_1calibration_1_1_cluster_smearing.html" target="_top" xlink:title="ant::calibration::Cluster\lSmearing">
<polygon fill="white" stroke="black" points="313,-544 313,-578 431,-578 431,-544 313,-544"/>
<text text-anchor="start" x="321" y="-565" font-family="Helvetica,sans-Serif" font-size="10.00">ant::calibration::Cluster</text>
<text text-anchor="middle" x="372" y="-552" font-family="Helvetica,sans-Serif" font-size="10.00">Smearing</text>
</a>
</g>
<!-- Node4&#45;&gt;Node5 -->
<g id="edge8" class="edge"><title>Node4&#45;&gt;Node5</title>
<path fill="none" stroke="midnightblue" d="M270.595,-529.042C286.193,-533.958 302.744,-539.174 317.851,-543.935"/>
<polygon fill="midnightblue" stroke="midnightblue" points="271.617,-525.694 261.027,-526.027 269.513,-532.371 271.617,-525.694"/>
</g>
<!-- Node6 -->
<g id="node11" class="node"><title>Node6</title>
<a xlink:href="classant_1_1calibration_1_1_t_a_p_s___shower_correction.html" target="_top" xlink:title="ant::calibration::TAPS\l_ShowerCorrection">
<polygon fill="white" stroke="black" points="315.5,-492 315.5,-526 428.5,-526 428.5,-492 315.5,-492"/>
<text text-anchor="start" x="323.5" y="-513" font-family="Helvetica,sans-Serif" font-size="10.00">ant::calibration::TAPS</text>
<text text-anchor="middle" x="372" y="-500" font-family="Helvetica,sans-Serif" font-size="10.00">_ShowerCorrection</text>
</a>
</g>
<!-- Node4&#45;&gt;Node6 -->
<g id="edge10" class="edge"><title>Node4&#45;&gt;Node6</title>
<path fill="none" stroke="midnightblue" d="M274.119,-509C287.818,-509 302.103,-509 315.391,-509"/>
<polygon fill="midnightblue" stroke="midnightblue" points="273.784,-505.5 263.784,-509 273.784,-512.5 273.784,-505.5"/>
</g>
<!-- Node8 -->
<g id="node15" class="node"><title>Node8</title>
<a xlink:href="classant_1_1calibration_1_1_c_b___source_calib.html" target="_top" xlink:title="ant::calibration::CB\l_SourceCalib">
<polygon fill="white" stroke="black" points="321.5,-334 321.5,-368 422.5,-368 422.5,-334 321.5,-334"/>
<text text-anchor="start" x="329.5" y="-355" font-family="Helvetica,sans-Serif" font-size="10.00">ant::calibration::CB</text>
<text text-anchor="middle" x="372" y="-342" font-family="Helvetica,sans-Serif" font-size="10.00">_SourceCalib</text>
</a>
</g>
<!-- Node7&#45;&gt;Node8 -->
<g id="edge14" class="edge"><title>Node7&#45;&gt;Node8</title>
<path fill="none" stroke="midnightblue" d="M274.049,-335.565C289.882,-338.06 306.502,-340.679 321.463,-343.037"/>
<polygon fill="midnightblue" stroke="midnightblue" points="274.207,-332.047 263.784,-333.948 273.117,-338.962 274.207,-332.047"/>
</g>
<!-- Node9 -->
<g id="node17" class="node"><title>Node9</title>
<a xlink:href="structant_1_1calibration_1_1converter_1_1_multi_hit_reference.html" target="_top" xlink:title="ant::calibration::converter\l::MultiHitReference\&lt; T \&gt;">
<polygon fill="white" stroke="black" points="308.5,-282 308.5,-316 435.5,-316 435.5,-282 308.5,-282"/>
<text text-anchor="start" x="316.5" y="-303" font-family="Helvetica,sans-Serif" font-size="10.00">ant::calibration::converter</text>
<text text-anchor="middle" x="372" y="-290" font-family="Helvetica,sans-Serif" font-size="10.00">::MultiHitReference&lt; T &gt;</text>
</a>
</g>
<!-- Node7&#45;&gt;Node9 -->
<g id="edge16" class="edge"><title>Node7&#45;&gt;Node9</title>
<path fill="none" stroke="midnightblue" d="M273.696,-314.49C285.125,-312.689 296.974,-310.822 308.321,-309.034"/>
<polygon fill="midnightblue" stroke="midnightblue" points="273.117,-311.038 263.784,-316.052 274.207,-317.953 273.117,-311.038"/>
</g>
<!-- Node10 -->
<g id="node19" class="node"><title>Node10</title>
<a xlink:href="classant_1_1calibration_1_1_energy.html" target="_top" xlink:title="ant::calibration::Energy">
<polygon fill="white" stroke="black" points="313.5,-242.5 313.5,-263.5 430.5,-263.5 430.5,-242.5 313.5,-242.5"/>
<text text-anchor="middle" x="372" y="-250.5" font-family="Helvetica,sans-Serif" font-size="10.00">ant::calibration::Energy</text>
</a>
</g>
<!-- Node7&#45;&gt;Node10 -->
<g id="edge18" class="edge"><title>Node7&#45;&gt;Node10</title>
<path fill="none" stroke="midnightblue" d="M242.395,-302.575C259.348,-292.528 280.226,-281.137 300,-273 308.758,-269.396 318.376,-266.221 327.651,-263.524"/>
<polygon fill="midnightblue" stroke="midnightblue" points="240.169,-299.83 233.412,-307.989 243.783,-305.825 240.169,-299.83"/>
</g>
<!-- Node16 -->
<g id="node31" class="node"><title>Node16</title>
<a xlink:href="classant_1_1calibration_1_1_tagger___q_d_c.html" target="_top" xlink:title="ant::calibration::Tagger_QDC">
<polygon fill="white" stroke="black" points="300,-452.5 300,-473.5 444,-473.5 444,-452.5 300,-452.5"/>
<text text-anchor="middle" x="372" y="-460.5" font-family="Helvetica,sans-Serif" font-size="10.00">ant::calibration::Tagger_QDC</text>
</a>
</g>
<!-- Node7&#45;&gt;Node16 -->
<g id="edge30" class="edge"><title>Node7&#45;&gt;Node16</title>
<path fill="none" stroke="midnightblue" d="M220.945,-351.176C236.646,-378.148 264.646,-419.475 300,-443 305.724,-446.809 312.165,-449.898 318.779,-452.402"/>
<polygon fill="midnightblue" stroke="midnightblue" points="223.885,-349.264 215.913,-342.287 217.794,-352.713 223.885,-349.264"/>
</g>
<!-- Node17 -->
<g id="node33" class="node"><title>Node17</title>
<a xlink:href="classant_1_1calibration_1_1_time.html" target="_top" xlink:title="ant::calibration::Time">
<polygon fill="white" stroke="black" points="318,-144.5 318,-165.5 426,-165.5 426,-144.5 318,-144.5"/>
<text text-anchor="middle" x="372" y="-152.5" font-family="Helvetica,sans-Serif" font-size="10.00">ant::calibration::Time</text>
</a>
</g>
<!-- Node7&#45;&gt;Node17 -->
<g id="edge32" class="edge"><title>Node7&#45;&gt;Node17</title>
<path fill="none" stroke="midnightblue" d="M231.017,-300.255C267.53,-262.635 335.506,-192.599 361.511,-165.807"/>
<polygon fill="midnightblue" stroke="midnightblue" points="228.182,-298.15 223.729,-307.764 233.205,-303.026 228.182,-298.15"/>
</g>
<!-- Node20 -->
<g id="node39" class="node"><title>Node20</title>
<a xlink:href="structant_1_1expconfig_1_1detector_1_1_trigger__2014.html" target="_top" xlink:title="ant::expconfig::detector\l::Trigger_2014">
<polygon fill="white" stroke="black" points="500.5,-52 500.5,-86 619.5,-86 619.5,-52 500.5,-52"/>
<text text-anchor="start" x="508.5" y="-73" font-family="Helvetica,sans-Serif" font-size="10.00">ant::expconfig::detector</text>
<text text-anchor="middle" x="560" y="-60" font-family="Helvetica,sans-Serif" font-size="10.00">::Trigger_2014</text>
</a>
</g>
<!-- Node7&#45;&gt;Node20 -->
<g id="edge38" class="edge"><title>Node7&#45;&gt;Node20</title>
<path fill="none" stroke="midnightblue" d="M223.5,-299.16C235.537,-279.738 251.808,-252.246 264,-227 283.094,-187.461 267.083,-164.058 300,-135 307.626,-128.268 425.992,-99.9729 500.359,-82.6903"/>
<polygon fill="midnightblue" stroke="midnightblue" points="220.469,-297.406 218.133,-307.74 226.404,-301.118 220.469,-297.406"/>
</g>
<!-- Node21 -->
<g id="node41" class="node"><title>Node21</title>
<a xlink:href="structant_1_1calibration_1_1converter_1_1_multi_hit_reference.html" target="_top" xlink:title="ant::calibration::converter\l::MultiHitReference\&lt; std\l::uint16_t \&gt;">
<polygon fill="white" stroke="black" points="308.5,-386.5 308.5,-433.5 435.5,-433.5 435.5,-386.5 308.5,-386.5"/>
<text text-anchor="start" x="316.5" y="-420.5" font-family="Helvetica,sans-Serif" font-size="10.00">ant::calibration::converter</text>
<text text-anchor="start" x="316.5" y="-407.5" font-family="Helvetica,sans-Serif" font-size="10.00">::MultiHitReference&lt; std</text>
<text text-anchor="middle" x="372" y="-394.5" font-family="Helvetica,sans-Serif" font-size="10.00">::uint16_t &gt;</text>
</a>
</g>
<!-- Node7&#45;&gt;Node21 -->
<g id="edge40" class="edge"><title>Node7&#45;&gt;Node21</title>
<path fill="none" stroke="midnightblue" d="M244.919,-347.107C261.641,-356.619 281.63,-367.673 300,-377 306.13,-380.112 312.613,-383.268 319.075,-386.331"/>
<polygon fill="midnightblue" stroke="midnightblue" points="246.414,-343.93 235.996,-342.001 242.938,-350.005 246.414,-343.93"/>
</g>
<!-- Node11 -->
<g id="node21" class="node"><title>Node11</title>
<a xlink:href="classant_1_1calibration_1_1_c_b___energy.html" target="_top" xlink:title="ant::calibration::CB\l_Energy">
<polygon fill="white" stroke="black" points="509.5,-236 509.5,-270 610.5,-270 610.5,-236 509.5,-236"/>
<text text-anchor="start" x="517.5" y="-257" font-family="Helvetica,sans-Serif" font-size="10.00">ant::calibration::CB</text>
<text text-anchor="middle" x="560" y="-244" font-family="Helvetica,sans-Serif" font-size="10.00">_Energy</text>
</a>
</g>
<!-- Node10&#45;&gt;Node11 -->
<g id="edge20" class="edge"><title>Node10&#45;&gt;Node11</title>
<path fill="none" stroke="midnightblue" d="M440.945,-253C463.583,-253 488.314,-253 509.34,-253"/>
<polygon fill="midnightblue" stroke="midnightblue" points="440.711,-249.5 430.711,-253 440.711,-256.5 440.711,-249.5"/>
</g>
<!-- Node12 -->
<g id="node23" class="node"><title>Node12</title>
<a xlink:href="classant_1_1calibration_1_1_p_i_d___energy.html" target="_top" xlink:title="ant::calibration::PID\l_Energy">
<polygon fill="white" stroke="black" points="508,-184 508,-218 612,-218 612,-184 508,-184"/>
<text text-anchor="start" x="516" y="-205" font-family="Helvetica,sans-Serif" font-size="10.00">ant::calibration::PID</text>
<text text-anchor="middle" x="560" y="-192" font-family="Helvetica,sans-Serif" font-size="10.00">_Energy</text>
</a>
</g>
<!-- Node10&#45;&gt;Node12 -->
<g id="edge22" class="edge"><title>Node10&#45;&gt;Node12</title>
<path fill="none" stroke="midnightblue" d="M419.976,-239.73C446.805,-232.309 480.275,-223.052 507.764,-215.448"/>
<polygon fill="midnightblue" stroke="midnightblue" points="418.75,-236.438 410.045,-242.477 420.616,-243.184 418.75,-236.438"/>
</g>
<!-- Node13 -->
<g id="node25" class="node"><title>Node13</title>
<a xlink:href="classant_1_1calibration_1_1_t_a_p_s___energy.html" target="_top" xlink:title="ant::calibration::TAPS\l_Energy">
<polygon fill="white" stroke="black" points="503.5,-392 503.5,-426 616.5,-426 616.5,-392 503.5,-392"/>
<text text-anchor="start" x="511.5" y="-413" font-family="Helvetica,sans-Serif" font-size="10.00">ant::calibration::TAPS</text>
<text text-anchor="middle" x="560" y="-400" font-family="Helvetica,sans-Serif" font-size="10.00">_Energy</text>
</a>
</g>
<!-- Node10&#45;&gt;Node13 -->
<g id="edge24" class="edge"><title>Node10&#45;&gt;Node13</title>
<path fill="none" stroke="midnightblue" d="M439.313,-269.052C440.955,-270.275 442.523,-271.588 444,-273 481.189,-308.54 443.589,-346.663 480,-383 486.512,-389.499 494.664,-394.374 503.255,-398.031"/>
<polygon fill="midnightblue" stroke="midnightblue" points="440.915,-265.929 430.564,-263.67 437.247,-271.891 440.915,-265.929"/>
</g>
<!-- Node14 -->
<g id="node27" class="node"><title>Node14</title>
<a xlink:href="classant_1_1calibration_1_1_t_a_p_s___short_energy.html" target="_top" xlink:title="ant::calibration::TAPS\l_ShortEnergy">
<polygon fill="white" stroke="black" points="503.5,-340 503.5,-374 616.5,-374 616.5,-340 503.5,-340"/>
<text text-anchor="start" x="511.5" y="-361" font-family="Helvetica,sans-Serif" font-size="10.00">ant::calibration::TAPS</text>
<text text-anchor="middle" x="560" y="-348" font-family="Helvetica,sans-Serif" font-size="10.00">_ShortEnergy</text>
</a>
</g>
<!-- Node10&#45;&gt;Node14 -->
<g id="edge26" class="edge"><title>Node10&#45;&gt;Node14</title>
<path fill="none" stroke="midnightblue" d="M436.173,-267.956C438.91,-269.477 441.536,-271.153 444,-273 468.279,-291.195 456.121,-312.284 480,-331 486.897,-336.405 494.955,-340.705 503.252,-344.121"/>
<polygon fill="midnightblue" stroke="midnightblue" points="437.648,-264.781 427.118,-263.605 434.616,-271.091 437.648,-264.781"/>
</g>
<!-- Node15 -->
<g id="node29" class="node"><title>Node15</title>
<a xlink:href="classant_1_1calibration_1_1_t_a_p_s_veto___energy.html" target="_top" xlink:title="ant::calibration::TAPSVeto\l_Energy">
<polygon fill="white" stroke="black" points="493.5,-288 493.5,-322 626.5,-322 626.5,-288 493.5,-288"/>
<text text-anchor="start" x="501.5" y="-309" font-family="Helvetica,sans-Serif" font-size="10.00">ant::calibration::TAPSVeto</text>
<text text-anchor="middle" x="560" y="-296" font-family="Helvetica,sans-Serif" font-size="10.00">_Energy</text>
</a>
</g>
<!-- Node10&#45;&gt;Node15 -->
<g id="edge28" class="edge"><title>Node10&#45;&gt;Node15</title>
<path fill="none" stroke="midnightblue" d="M419.913,-266.253C443.752,-272.846 472.845,-280.893 498.328,-287.942"/>
<polygon fill="midnightblue" stroke="midnightblue" points="420.616,-262.816 410.045,-263.523 418.75,-269.562 420.616,-262.816"/>
</g>
<!-- Node18 -->
<g id="node35" class="node"><title>Node18</title>
<a xlink:href="classant_1_1calibration_1_1_t_a_p_s___time.html" target="_top" xlink:title="ant::calibration::TAPS_Time">
<polygon fill="white" stroke="black" points="490,-144.5 490,-165.5 630,-165.5 630,-144.5 490,-144.5"/>
<text text-anchor="middle" x="560" y="-152.5" font-family="Helvetica,sans-Serif" font-size="10.00">ant::calibration::TAPS_Time</text>
</a>
</g>
<!-- Node17&#45;&gt;Node18 -->
<g id="edge34" class="edge"><title>Node17&#45;&gt;Node18</title>
<path fill="none" stroke="midnightblue" d="M436.595,-155C453.75,-155 472.358,-155 489.797,-155"/>
<polygon fill="midnightblue" stroke="midnightblue" points="436.125,-151.5 426.125,-155 436.125,-158.5 436.125,-151.5"/>
</g>
<!-- Node19 -->
<g id="node37" class="node"><title>Node19</title>
<a xlink:href="classant_1_1calibration_1_1_t_a_p_s_veto___time.html" target="_top" xlink:title="ant::calibration::TAPSVeto_Time">
<polygon fill="white" stroke="black" points="480,-104.5 480,-125.5 640,-125.5 640,-104.5 480,-104.5"/>
<text text-anchor="middle" x="560" y="-112.5" font-family="Helvetica,sans-Serif" font-size="10.00">ant::calibration::TAPSVeto_Time</text>
</a>
</g>
<!-- Node17&#45;&gt;Node19 -->
<g id="edge36" class="edge"><title>Node17&#45;&gt;Node19</title>
<path fill="none" stroke="midnightblue" d="M431.324,-142.378C456.836,-136.95 486.311,-130.679 510.609,-125.509"/>
<polygon fill="midnightblue" stroke="midnightblue" points="430.447,-138.986 421.395,-144.49 431.904,-145.833 430.447,-138.986"/>
</g>
<!-- Node22 -->
<g id="node43" class="node"><title>Node22</title>
<a xlink:href="structant_1_1calibration_1_1converter_1_1_c_a_t_c_h___t_d_c.html" target="_top" xlink:title="ant::calibration::converter\l::CATCH_TDC">
<polygon fill="white" stroke="black" points="496.5,-444 496.5,-478 623.5,-478 623.5,-444 496.5,-444"/>
<text text-anchor="start" x="504.5" y="-465" font-family="Helvetica,sans-Serif" font-size="10.00">ant::calibration::converter</text>
<text text-anchor="middle" x="560" y="-452" font-family="Helvetica,sans-Serif" font-size="10.00">::CATCH_TDC</text>
</a>
</g>
<!-- Node21&#45;&gt;Node22 -->
<g id="edge42" class="edge"><title>Node21&#45;&gt;Node22</title>
<path fill="none" stroke="midnightblue" d="M445.545,-429.951C462.569,-434.569 480.533,-439.443 497.056,-443.925"/>
<polygon fill="midnightblue" stroke="midnightblue" points="446.216,-426.507 435.648,-427.266 444.383,-433.262 446.216,-426.507"/>
</g>
<!-- Node23&#45;&gt;Node12 -->
<g id="edge46" class="edge"><title>Node23&#45;&gt;Node12</title>
<path fill="none" stroke="midnightblue" d="M273.884,-201C341.818,-201 445.616,-201 507.743,-201"/>
<polygon fill="midnightblue" stroke="midnightblue" points="273.716,-197.5 263.716,-201 273.716,-204.5 273.716,-197.5"/>
</g>
<!-- Node24 -->
<g id="node48" class="node"><title>Node24</title>
<a xlink:href="structant_1_1expconfig_1_1detector_1_1_trigger.html" target="_top" xlink:title="ant::expconfig::detector\l::Trigger">
<polygon fill="white" stroke="black" points="312.5,-52 312.5,-86 431.5,-86 431.5,-52 312.5,-52"/>
<text text-anchor="start" x="320.5" y="-73" font-family="Helvetica,sans-Serif" font-size="10.00">ant::expconfig::detector</text>
<text text-anchor="middle" x="372" y="-60" font-family="Helvetica,sans-Serif" font-size="10.00">::Trigger</text>
</a>
</g>
<!-- Node23&#45;&gt;Node24 -->
<g id="edge48" class="edge"><title>Node23&#45;&gt;Node24</title>
<path fill="none" stroke="midnightblue" d="M225.576,-175.87C242.879,-153.844 270.398,-122.13 300,-101 307.905,-95.3574 316.963,-90.3833 325.927,-86.1409"/>
<polygon fill="midnightblue" stroke="midnightblue" points="222.799,-173.74 219.461,-183.796 228.341,-178.016 222.799,-173.74"/>
</g>
<!-- Node24&#45;&gt;Node20 -->
<g id="edge52" class="edge"><title>Node24&#45;&gt;Node20</title>
<path fill="none" stroke="midnightblue" d="M441.947,-69C461.17,-69 481.832,-69 500.413,-69"/>
<polygon fill="midnightblue" stroke="midnightblue" points="441.743,-65.5001 431.743,-69 441.743,-72.5001 441.743,-65.5001"/>
</g>
<!-- Node25 -->
<g id="node50" class="node"><title>Node25</title>
<a xlink:href="structant_1_1expconfig_1_1detector_1_1_trigger__2007.html" target="_top" xlink:title="ant::expconfig::detector\l::Trigger_2007">
<polygon fill="white" stroke="black" points="500.5,-0 500.5,-34 619.5,-34 619.5,-0 500.5,-0"/>
<text text-anchor="start" x="508.5" y="-21" font-family="Helvetica,sans-Serif" font-size="10.00">ant::expconfig::detector</text>
<text text-anchor="middle" x="560" y="-8" font-family="Helvetica,sans-Serif" font-size="10.00">::Trigger_2007</text>
</a>
</g>
<!-- Node24&#45;&gt;Node25 -->
<g id="edge50" class="edge"><title>Node24&#45;&gt;Node25</title>
<path fill="none" stroke="midnightblue" d="M441.416,-49.7998C460.789,-44.4413 481.661,-38.6683 500.413,-33.4816"/>
<polygon fill="midnightblue" stroke="midnightblue" points="440.448,-46.4362 431.743,-52.4754 442.314,-53.1828 440.448,-46.4362"/>
</g>
</g>
</svg>
