<?xml version="1.0" encoding="UTF-8" standalone="no"?>
<!DOCTYPE svg PUBLIC "-//W3C//DTD SVG 1.1//EN"
 "http://www.w3.org/Graphics/SVG/1.1/DTD/svg11.dtd">
<!-- Generated by graphviz version 2.26.3 (20100126.1600)
 -->
<!-- Title: Hist_t&lt; Tree_t &gt;::Fill_t Pages: 1 -->
<svg width="152pt" height="568pt"
 viewBox="0.00 0.00 152.00 568.00" xmlns="http://www.w3.org/2000/svg" xmlns:xlink="http://www.w3.org/1999/xlink">
<g id="graph1" class="graph" transform="scale(1 1) rotate(0) translate(4 564)">
<title>Hist_t&lt; Tree_t &gt;::Fill_t</title>
<polygon fill="white" stroke="white" points="-4,5 -4,-564 149,-564 149,5 -4,5"/>
<!-- Node1 -->
<g id="node1" class="node"><title>Node1</title>
<polygon fill="#bfbfbf" stroke="black" points="14,-0.5 14,-21.5 130,-21.5 130,-0.5 14,-0.5"/>
<text text-anchor="middle" x="72" y="-8.5" font-family="Helvetica,sans-Serif" font-size="10.00">Hist_t&lt; Tree_t &gt;::Fill_t</text>
</g>
<!-- Node2 -->
<g id="node2" class="node"><title>Node2</title>
<a xlink:href="structant_1_1analysis_1_1physics_1_1_meson_dalitz_decays_1_1_tree__t.html" target="_top" xlink:title="ant::analysis::physics\l::MesonDalitzDecays::Tree_t">
<polygon fill="white" stroke="black" points="-0.5,-73 -0.5,-107 144.5,-107 144.5,-73 -0.5,-73"/>
<text text-anchor="start" x="7.5" y="-94" font-family="Helvetica,sans-Serif" font-size="10.00">ant::analysis::physics</text>
<text text-anchor="middle" x="72" y="-81" font-family="Helvetica,sans-Serif" font-size="10.00">::MesonDalitzDecays::Tree_t</text>
</a>
</g>
<!-- Node2&#45;&gt;Node1 -->
<g id="edge2" class="edge"><title>Node2&#45;&gt;Node1</title>
<path fill="none" stroke="#9a32cd" stroke-dasharray="5,2" d="M72,-62.6228C72,-48.4727 72,-32.0243 72,-21.5672"/>
<polygon fill="#9a32cd" stroke="#9a32cd" points="68.5001,-62.8581 72,-72.8582 75.5001,-62.8582 68.5001,-62.8581"/>
<text text-anchor="middle" x="83.5" y="-44.5" font-family="Helvetica,sans-Serif" font-size="10.00"> Tree</text>
</g>
<!-- Node3 -->
<g id="node4" class="node"><title>Node3</title>
<a xlink:href="structant_1_1_wrap_t_tree.html" target="_top" xlink:title="The WrapTTree struct simplifies TTree handling in physics classes. ">
<polygon fill="white" stroke="black" points="29.5,-146.5 29.5,-167.5 114.5,-167.5 114.5,-146.5 29.5,-146.5"/>
<text text-anchor="middle" x="72" y="-154.5" font-family="Helvetica,sans-Serif" font-size="10.00">ant::WrapTTree</text>
</a>
</g>
<!-- Node3&#45;&gt;Node2 -->
<g id="edge4" class="edge"><title>Node3&#45;&gt;Node2</title>
<path fill="none" stroke="midnightblue" d="M72,-136.165C72,-126.797 72,-115.88 72,-107.014"/>
<polygon fill="midnightblue" stroke="midnightblue" points="68.5001,-136.235 72,-146.235 75.5001,-136.235 68.5001,-136.235"/>
</g>
<!-- Node4 -->
<g id="node6" class="node"><title>Node4</title>
<polygon fill="white" stroke="#bfbfbf" points="2,-219 2,-253 142,-253 142,-219 2,-219"/>
<text text-anchor="start" x="10" y="-240" font-family="Helvetica,sans-Serif" font-size="10.00">std::vector&lt; ant::WrapTTree</text>
<text text-anchor="middle" x="72" y="-227" font-family="Helvetica,sans-Serif" font-size="10.00">::ROOT_branch_t &gt;</text>
</g>
<!-- Node4&#45;&gt;Node3 -->
<g id="edge6" class="edge"><title>Node4&#45;&gt;Node3</title>
<path fill="none" stroke="#9a32cd" stroke-dasharray="5,2" d="M72,-208.623C72,-194.473 72,-178.024 72,-167.567"/>
<polygon fill="#9a32cd" stroke="#9a32cd" points="68.5001,-208.858 72,-218.858 75.5001,-208.858 68.5001,-208.858"/>
<text text-anchor="middle" x="93.5" y="-190.5" font-family="Helvetica,sans-Serif" font-size="10.00"> branches</text>
</g>
<!-- Node5 -->
<g id="node8" class="node"><title>Node5</title>
<a xlink:href="structant_1_1_wrap_t_tree_1_1_r_o_o_t__branch__t.html" target="_top" xlink:title="ant::WrapTTree::ROOT\l_branch_t">
<polygon fill="white" stroke="black" points="12.5,-305 12.5,-339 131.5,-339 131.5,-305 12.5,-305"/>
<text text-anchor="start" x="20.5" y="-326" font-family="Helvetica,sans-Serif" font-size="10.00">ant::WrapTTree::ROOT</text>
<text text-anchor="middle" x="72" y="-313" font-family="Helvetica,sans-Serif" font-size="10.00">_branch_t</text>
</a>
</g>
<!-- Node5&#45;&gt;Node4 -->
<g id="edge8" class="edge"><title>Node5&#45;&gt;Node4</title>
<path fill="none" stroke="#9a32cd" stroke-dasharray="5,2" d="M72,-294.342C72,-280.774 72,-264.861 72,-253.084"/>
<polygon fill="#9a32cd" stroke="#9a32cd" points="68.5001,-294.597 72,-304.597 75.5001,-294.597 68.5001,-294.597"/>
<text text-anchor="middle" x="93.5" y="-276.5" font-family="Helvetica,sans-Serif" font-size="10.00"> elements</text>
</g>
<!-- Node6 -->
<g id="node10" class="node"><title>Node6</title>
<a xlink:href="structant_1_1_wrap_t_tree_1_1_r_o_o_t__branchinfo__t.html" target="_top" xlink:title="ant::WrapTTree::ROOT\l_branchinfo_t">
<polygon fill="white" stroke="black" points="12.5,-379 12.5,-413 131.5,-413 131.5,-379 12.5,-379"/>
<text text-anchor="start" x="20.5" y="-400" font-family="Helvetica,sans-Serif" font-size="10.00">ant::WrapTTree::ROOT</text>
<text text-anchor="middle" x="72" y="-387" font-family="Helvetica,sans-Serif" font-size="10.00">_branchinfo_t</text>
</a>
</g>
<!-- Node6&#45;&gt;Node5 -->
<g id="edge10" class="edge"><title>Node6&#45;&gt;Node5</title>
<path fill="none" stroke="midnightblue" d="M72,-368.627C72,-358.725 72,-347.834 72,-339.07"/>
<polygon fill="midnightblue" stroke="midnightblue" points="68.5001,-368.837 72,-378.837 75.5001,-368.837 68.5001,-368.837"/>
</g>
<!-- Node7 -->
<g id="node12" class="node"><title>Node7</title>
<a xlink:title="STL class. ">
<polygon fill="white" stroke="#bfbfbf" points="42,-464.5 42,-485.5 102,-485.5 102,-464.5 42,-464.5"/>
<text text-anchor="middle" x="72" y="-472.5" font-family="Helvetica,sans-Serif" font-size="10.00">std::string</text>
</a>
</g>
<!-- Node7&#45;&gt;Node6 -->
<g id="edge12" class="edge"><title>Node7&#45;&gt;Node6</title>
<path fill="none" stroke="#9a32cd" stroke-dasharray="5,2" d="M72,-454.162C72,-441.363 72,-425.171 72,-413.124"/>
<polygon fill="#9a32cd" stroke="#9a32cd" points="68.5001,-454.346 72,-464.346 75.5001,-454.346 68.5001,-454.346"/>
<text text-anchor="middle" x="87" y="-436.5" font-family="Helvetica,sans-Serif" font-size="10.00"> Name</text>
</g>
<!-- Node8 -->
<g id="node14" class="node"><title>Node8</title>
<a xlink:title="STL class. ">
<polygon fill="white" stroke="#bfbfbf" points="24.5,-525 24.5,-559 119.5,-559 119.5,-525 24.5,-525"/>
<text text-anchor="start" x="32.5" y="-546" font-family="Helvetica,sans-Serif" font-size="10.00">std::basic_string&lt;</text>
<text text-anchor="middle" x="72" y="-533" font-family="Helvetica,sans-Serif" font-size="10.00"> char &gt;</text>
</a>
</g>
<!-- Node8&#45;&gt;Node7 -->
<g id="edge14" class="edge"><title>Node8&#45;&gt;Node7</title>
<path fill="none" stroke="midnightblue" d="M72,-514.534C72,-504.306 72,-493.301 72,-485.506"/>
<polygon fill="midnightblue" stroke="midnightblue" points="68.5001,-514.746 72,-524.746 75.5001,-514.746 68.5001,-514.746"/>
</g>
</g>
</svg>
