<?xml version="1.0" encoding="UTF-8" standalone="no"?>
<!DOCTYPE svg PUBLIC "-//W3C//DTD SVG 1.1//EN"
 "http://www.w3.org/Graphics/SVG/1.1/DTD/svg11.dtd">
<!-- Generated by graphviz version 2.26.3 (20100126.1600)
 -->
<!-- Title: ant::TDetectorReadHit Pages: 1 -->
<svg width="336pt" height="159pt"
 viewBox="0.00 0.00 336.00 159.00" xmlns="http://www.w3.org/2000/svg" xmlns:xlink="http://www.w3.org/1999/xlink">
<g id="graph1" class="graph" transform="scale(1 1) rotate(0) translate(4 155)">
<title>ant::TDetectorReadHit</title>
<polygon fill="white" stroke="white" points="-4,5 -4,-155 333,-155 333,5 -4,5"/>
<!-- Node1 -->
<g id="node1" class="node"><title>Node1</title>
<polygon fill="#bfbfbf" stroke="black" points="212,-64.5 212,-85.5 328,-85.5 328,-64.5 212,-64.5"/>
<text text-anchor="middle" x="270" y="-72.5" font-family="Helvetica,sans-Serif" font-size="10.00">ant::TDetectorReadHit</text>
</g>
<!-- Node2 -->
<g id="node2" class="node"><title>Node2</title>
<a xlink:href="classant_1_1printable__traits.html" target="_top" xlink:title="ant::printable_traits">
<polygon fill="white" stroke="black" points="15,-129.5 15,-150.5 115,-150.5 115,-129.5 15,-129.5"/>
<text text-anchor="middle" x="65" y="-137.5" font-family="Helvetica,sans-Serif" font-size="10.00">ant::printable_traits</text>
</a>
</g>
<!-- Node2&#45;&gt;Node1 -->
<g id="edge2" class="edge"><title>Node2&#45;&gt;Node1</title>
<path fill="none" stroke="midnightblue" d="M120.697,-127C143.602,-121.22 170.273,-113.929 194,-106 211.84,-100.038 231.489,-91.9828 246.338,-85.5776"/>
<polygon fill="midnightblue" stroke="midnightblue" points="119.655,-123.652 110.797,-129.463 121.346,-130.445 119.655,-123.652"/>
</g>
<!-- Node3 -->
<g id="node4" class="node"><title>Node3</title>
<polygon fill="white" stroke="#bfbfbf" points="15.5,-89.5 15.5,-110.5 114.5,-110.5 114.5,-89.5 15.5,-89.5"/>
<text text-anchor="middle" x="65" y="-97.5" font-family="Helvetica,sans-Serif" font-size="10.00">std::vector&lt; bool &gt;</text>
</g>
<!-- Node3&#45;&gt;Node1 -->
<g id="edge4" class="edge"><title>Node3&#45;&gt;Node1</title>
<path fill="none" stroke="#9a32cd" stroke-dasharray="5,2" d="M124.855,-92.7006C152.235,-89.3615 184.556,-85.42 211.739,-82.105"/>
<polygon fill="#9a32cd" stroke="#9a32cd" points="124.128,-89.2633 114.625,-93.9482 124.975,-96.2118 124.128,-89.2633"/>
<text text-anchor="middle" x="171" y="-93" font-family="Helvetica,sans-Serif" font-size="10.00"> ValueBits</text>
</g>
<!-- Node4 -->
<g id="node6" class="node"><title>Node4</title>
<polygon fill="white" stroke="#bfbfbf" points="10,-40.5 10,-61.5 120,-61.5 120,-40.5 10,-40.5"/>
<text text-anchor="middle" x="65" y="-48.5" font-family="Helvetica,sans-Serif" font-size="10.00">std::vector&lt; double &gt;</text>
</g>
<!-- Node4&#45;&gt;Node1 -->
<g id="edge6" class="edge"><title>Node4&#45;&gt;Node1</title>
<path fill="none" stroke="#9a32cd" stroke-dasharray="5,2" d="M130.371,-47.894C150.841,-47.8869 173.448,-48.8768 194,-52 210.218,-54.4646 227.781,-59.6078 241.933,-64.4067"/>
<polygon fill="#9a32cd" stroke="#9a32cd" points="130.17,-44.3954 120.199,-47.9774 130.227,-51.3952 130.17,-44.3954"/>
<text text-anchor="middle" x="171" y="-69" font-family="Helvetica,sans-Serif" font-size="10.00"> Values</text>
<text text-anchor="middle" x="171" y="-56" font-family="Helvetica,sans-Serif" font-size="10.00">Converted</text>
</g>
<!-- Node5 -->
<g id="node8" class="node"><title>Node5</title>
<polygon fill="white" stroke="#bfbfbf" points="0,-0.5 0,-21.5 130,-21.5 130,-0.5 0,-0.5"/>
<text text-anchor="middle" x="65" y="-8.5" font-family="Helvetica,sans-Serif" font-size="10.00">std::vector&lt; std::uint8_t &gt;</text>
</g>
<!-- Node5&#45;&gt;Node1 -->
<g id="edge8" class="edge"><title>Node5&#45;&gt;Node1</title>
<path fill="none" stroke="#9a32cd" stroke-dasharray="5,2" d="M140.017,-17.834C158.02,-20.7775 176.96,-24.9856 194,-31 216.859,-39.0683 240.641,-54.0876 255.381,-64.311"/>
<polygon fill="#9a32cd" stroke="#9a32cd" points="140.544,-14.3739 130.13,-16.3254 139.488,-21.2938 140.544,-14.3739"/>
<text text-anchor="middle" x="171" y="-35" font-family="Helvetica,sans-Serif" font-size="10.00"> RawData</text>
</g>
</g>
</svg>
