<?xml version="1.0" encoding="UTF-8" standalone="no"?>
<!DOCTYPE svg PUBLIC "-//W3C//DTD SVG 1.1//EN"
 "http://www.w3.org/Graphics/SVG/1.1/DTD/svg11.dtd">
<!-- Generated by graphviz version 2.26.3 (20100126.1600)
 -->
<!-- Title: ant::ClippedInterpolatorWrapper Pages: 1 -->
<svg width="640pt" height="118pt"
 viewBox="0.00 0.00 640.00 118.43" xmlns="http://www.w3.org/2000/svg" xmlns:xlink="http://www.w3.org/1999/xlink">
<g id="graph1" class="graph" transform="scale(1 1) rotate(0) translate(4 114.434)">
<title>ant::ClippedInterpolatorWrapper</title>
<polygon fill="white" stroke="white" points="-4,5 -4,-114.434 637,-114.434 637,5 -4,5"/>
<!-- Node1 -->
<g id="node1" class="node"><title>Node1</title>
<polygon fill="#bfbfbf" stroke="black" points="514,-62 514,-96 632,-96 632,-62 514,-62"/>
<text text-anchor="start" x="522" y="-83" font-family="Helvetica,sans-Serif" font-size="10.00">ant::ClippedInterpolator</text>
<text text-anchor="middle" x="573" y="-70" font-family="Helvetica,sans-Serif" font-size="10.00">Wrapper</text>
</g>
<!-- Node2 -->
<g id="node2" class="node"><title>Node2</title>
<a xlink:href="classant_1_1printable__traits.html" target="_top" xlink:title="ant::printable_traits">
<polygon fill="white" stroke="black" points="0,-80.5 0,-101.5 100,-101.5 100,-80.5 0,-80.5"/>
<text text-anchor="middle" x="50" y="-88.5" font-family="Helvetica,sans-Serif" font-size="10.00">ant::printable_traits</text>
</a>
</g>
<!-- Node2&#45;&gt;Node1 -->
<g id="edge2" class="edge"><title>Node2&#45;&gt;Node1</title>
<path fill="none" stroke="midnightblue" d="M110.219,-101.199C112.844,-101.499 115.447,-101.769 118,-102 270.297,-115.799 309.087,-107.444 462,-109 477.11,-109.154 481.149,-111.791 496,-109 509.959,-106.377 524.637,-101.296 537.39,-96.0505"/>
<polygon fill="midnightblue" stroke="midnightblue" points="110.393,-97.6931 100.033,-99.9081 109.513,-104.638 110.393,-97.6931"/>
</g>
<!-- Node5 -->
<g id="node8" class="node"><title>Node5</title>
<a xlink:href="structant_1_1_clipped_interpolator_wrapper_1_1bounds_check__t.html" target="_top" xlink:title="ant::ClippedInterpolator\lWrapper::boundsCheck_t">
<polygon fill="white" stroke="black" points="316,-62 316,-96 444,-96 444,-62 316,-62"/>
<text text-anchor="start" x="324" y="-83" font-family="Helvetica,sans-Serif" font-size="10.00">ant::ClippedInterpolator</text>
<text text-anchor="middle" x="380" y="-70" font-family="Helvetica,sans-Serif" font-size="10.00">Wrapper::boundsCheck_t</text>
</a>
</g>
<!-- Node2&#45;&gt;Node5 -->
<g id="edge10" class="edge"><title>Node2&#45;&gt;Node5</title>
<path fill="none" stroke="midnightblue" d="M110.27,-88.8084C168.466,-86.6921 256.293,-83.4984 315.785,-81.3351"/>
<polygon fill="midnightblue" stroke="midnightblue" points="109.986,-85.3163 100.12,-89.1775 110.241,-92.3117 109.986,-85.3163"/>
</g>
<!-- Node6 -->
<g id="node11" class="node"><title>Node6</title>
<a xlink:href="classant_1_1interval.html" target="_top" xlink:title="ant::interval\&lt; double \&gt;">
<polygon fill="white" stroke="black" points="138,-41.5 138,-62.5 252,-62.5 252,-41.5 138,-41.5"/>
<text text-anchor="middle" x="195" y="-49.5" font-family="Helvetica,sans-Serif" font-size="10.00">ant::interval&lt; double &gt;</text>
</a>
</g>
<!-- Node2&#45;&gt;Node6 -->
<g id="edge14" class="edge"><title>Node2&#45;&gt;Node6</title>
<path fill="none" stroke="midnightblue" d="M98.9558,-77.8326C117.45,-72.8584 138.236,-67.2675 155.73,-62.5624"/>
<polygon fill="midnightblue" stroke="midnightblue" points="97.9868,-74.4687 89.2391,-80.446 99.805,-81.2285 97.9868,-74.4687"/>
</g>
<!-- Node3 -->
<g id="node4" class="node"><title>Node3</title>
<polygon fill="white" stroke="#bfbfbf" points="323,-0 323,-34 437,-34 437,-0 323,-0"/>
<text text-anchor="start" x="331" y="-21" font-family="Helvetica,sans-Serif" font-size="10.00">std::unique_ptr&lt; const</text>
<text text-anchor="middle" x="380" y="-8" font-family="Helvetica,sans-Serif" font-size="10.00"> ant::Interpolator2D &gt;</text>
</g>
<!-- Node3&#45;&gt;Node1 -->
<g id="edge4" class="edge"><title>Node3&#45;&gt;Node1</title>
<path fill="none" stroke="#9a32cd" stroke-dasharray="5,2" d="M442.706,-37.1439C467.597,-45.1401 495.922,-54.2392 519.79,-61.9066"/>
<polygon fill="#9a32cd" stroke="#9a32cd" points="443.585,-33.7501 432.993,-34.0238 441.444,-40.4146 443.585,-33.7501"/>
<text text-anchor="middle" x="479" y="-57" font-family="Helvetica,sans-Serif" font-size="10.00"> interp</text>
</g>
<!-- Node4 -->
<g id="node6" class="node"><title>Node4</title>
<a xlink:href="classant_1_1_interpolator2_d.html" target="_top" xlink:title="ant::Interpolator2D">
<polygon fill="white" stroke="black" points="146,-1.5 146,-22.5 244,-22.5 244,-1.5 146,-1.5"/>
<text text-anchor="middle" x="195" y="-9.5" font-family="Helvetica,sans-Serif" font-size="10.00">ant::Interpolator2D</text>
</a>
</g>
<!-- Node4&#45;&gt;Node3 -->
<g id="edge6" class="edge"><title>Node4&#45;&gt;Node3</title>
<path fill="none" stroke="#9a32cd" stroke-dasharray="5,2" d="M254.277,-13.6021C276.222,-14.1952 301.044,-14.8661 322.801,-15.4541"/>
<polygon fill="#9a32cd" stroke="#9a32cd" points="254.182,-10.0983 244.091,-13.3268 253.993,-17.0958 254.182,-10.0983"/>
<text text-anchor="middle" x="284" y="-19" font-family="Helvetica,sans-Serif" font-size="10.00"> ptr</text>
</g>
<!-- Node5&#45;&gt;Node1 -->
<g id="edge8" class="edge"><title>Node5&#45;&gt;Node1</title>
<path fill="none" stroke="#9a32cd" stroke-dasharray="5,2" d="M454.432,-79C474.134,-79 495.133,-79 513.899,-79"/>
<polygon fill="#9a32cd" stroke="#9a32cd" points="454.266,-75.5001 444.266,-79 454.266,-82.5001 454.266,-75.5001"/>
<text text-anchor="middle" x="479" y="-96" font-family="Helvetica,sans-Serif" font-size="10.00"> yrange</text>
<text text-anchor="middle" x="479" y="-83" font-family="Helvetica,sans-Serif" font-size="10.00">xrange</text>
</g>
<!-- Node6&#45;&gt;Node5 -->
<g id="edge12" class="edge"><title>Node6&#45;&gt;Node5</title>
<path fill="none" stroke="#9a32cd" stroke-dasharray="5,2" d="M261.995,-59.1658C274.001,-60.632 286.385,-62.2629 298,-64 303.725,-64.8562 309.663,-65.8111 315.608,-66.8129"/>
<polygon fill="#9a32cd" stroke="#9a32cd" points="262.368,-55.6855 252.024,-57.9742 261.538,-62.6361 262.368,-55.6855"/>
<text text-anchor="middle" x="284" y="-68" font-family="Helvetica,sans-Serif" font-size="10.00"> range</text>
</g>
</g>
</svg>
