<?xml version="1.0" encoding="UTF-8" standalone="no"?>
<!DOCTYPE svg PUBLIC "-//W3C//DTD SVG 1.1//EN"
 "http://www.w3.org/Graphics/SVG/1.1/DTD/svg11.dtd">
<!-- Generated by graphviz version 2.26.3 (20100126.1600)
 -->
<!-- Title: ant::calibration::Energy::GUI_CalibType Pages: 1 -->
<svg width="606pt" height="198pt"
 viewBox="0.00 0.00 606.00 198.00" xmlns="http://www.w3.org/2000/svg" xmlns:xlink="http://www.w3.org/1999/xlink">
<g id="graph1" class="graph" transform="scale(1 1) rotate(0) translate(4 194)">
<title>ant::calibration::Energy::GUI_CalibType</title>
<polygon fill="white" stroke="white" points="-4,5 -4,-194 603,-194 603,5 -4,5"/>
<!-- Node1 -->
<g id="node1" class="node"><title>Node1</title>
<polygon fill="#bfbfbf" stroke="black" points="140.5,-78 140.5,-112 257.5,-112 257.5,-78 140.5,-78"/>
<text text-anchor="start" x="148.5" y="-99" font-family="Helvetica,sans-Serif" font-size="10.00">ant::calibration::Energy</text>
<text text-anchor="middle" x="199" y="-86" font-family="Helvetica,sans-Serif" font-size="10.00">::GUI_CalibType</text>
</g>
<!-- Node3 -->
<g id="node5" class="node"><title>Node3</title>
<a xlink:href="structant_1_1calibration_1_1_c_b___energy_1_1_g_u_i___gains.html" target="_top" xlink:title="ant::calibration::CB\l_Energy::GUI_Gains">
<polygon fill="white" stroke="black" points="299.5,-156 299.5,-190 406.5,-190 406.5,-156 299.5,-156"/>
<text text-anchor="start" x="307.5" y="-177" font-family="Helvetica,sans-Serif" font-size="10.00">ant::calibration::CB</text>
<text text-anchor="middle" x="353" y="-164" font-family="Helvetica,sans-Serif" font-size="10.00">_Energy::GUI_Gains</text>
</a>
</g>
<!-- Node1&#45;&gt;Node3 -->
<g id="edge4" class="edge"><title>Node1&#45;&gt;Node3</title>
<path fill="none" stroke="midnightblue" d="M237.718,-117.172C254.796,-126.697 275.217,-137.742 294,-147 300.125,-150.019 306.68,-153.075 313.114,-155.98"/>
<polygon fill="midnightblue" stroke="midnightblue" points="239.039,-113.9 228.605,-112.058 235.613,-120.005 239.039,-113.9"/>
</g>
<!-- Node4 -->
<g id="node7" class="node"><title>Node4</title>
<a xlink:href="structant_1_1calibration_1_1_energy_1_1_g_u_i___banana.html" target="_top" xlink:title="ant::calibration::Energy\l::GUI_Banana">
<polygon fill="white" stroke="black" points="294.5,-104 294.5,-138 411.5,-138 411.5,-104 294.5,-104"/>
<text text-anchor="start" x="302.5" y="-125" font-family="Helvetica,sans-Serif" font-size="10.00">ant::calibration::Energy</text>
<text text-anchor="middle" x="353" y="-112" font-family="Helvetica,sans-Serif" font-size="10.00">::GUI_Banana</text>
</a>
</g>
<!-- Node1&#45;&gt;Node4 -->
<g id="edge6" class="edge"><title>Node1&#45;&gt;Node4</title>
<path fill="none" stroke="midnightblue" d="M267.607,-106.583C276.497,-108.084 285.538,-109.61 294.248,-111.081"/>
<polygon fill="midnightblue" stroke="midnightblue" points="268.103,-103.117 257.66,-104.904 266.938,-110.02 268.103,-103.117"/>
</g>
<!-- Node5 -->
<g id="node9" class="node"><title>Node5</title>
<a xlink:href="structant_1_1calibration_1_1_energy_1_1_g_u_i___m_i_p.html" target="_top" xlink:title="ant::calibration::Energy\l::GUI_MIP">
<polygon fill="white" stroke="black" points="294.5,-52 294.5,-86 411.5,-86 411.5,-52 294.5,-52"/>
<text text-anchor="start" x="302.5" y="-73" font-family="Helvetica,sans-Serif" font-size="10.00">ant::calibration::Energy</text>
<text text-anchor="middle" x="353" y="-60" font-family="Helvetica,sans-Serif" font-size="10.00">::GUI_MIP</text>
</a>
</g>
<!-- Node1&#45;&gt;Node5 -->
<g id="edge8" class="edge"><title>Node1&#45;&gt;Node5</title>
<path fill="none" stroke="midnightblue" d="M267.607,-83.417C276.497,-81.9161 285.538,-80.3897 294.248,-78.9192"/>
<polygon fill="midnightblue" stroke="midnightblue" points="266.938,-79.9803 257.66,-85.0963 268.103,-86.8827 266.938,-79.9803"/>
</g>
<!-- Node6 -->
<g id="node11" class="node"><title>Node6</title>
<a xlink:href="structant_1_1calibration_1_1_energy_1_1_g_u_i___pedestals.html" target="_top" xlink:title="ant::calibration::Energy\l::GUI_Pedestals">
<polygon fill="white" stroke="black" points="294.5,-0 294.5,-34 411.5,-34 411.5,-0 294.5,-0"/>
<text text-anchor="start" x="302.5" y="-21" font-family="Helvetica,sans-Serif" font-size="10.00">ant::calibration::Energy</text>
<text text-anchor="middle" x="353" y="-8" font-family="Helvetica,sans-Serif" font-size="10.00">::GUI_Pedestals</text>
</a>
</g>
<!-- Node1&#45;&gt;Node6 -->
<g id="edge10" class="edge"><title>Node1&#45;&gt;Node6</title>
<path fill="none" stroke="midnightblue" d="M237.718,-72.8275C254.796,-63.303 275.217,-52.2582 294,-43 300.125,-39.9813 306.68,-36.9249 313.114,-34.0203"/>
<polygon fill="midnightblue" stroke="midnightblue" points="235.613,-69.9952 228.605,-77.9415 239.039,-76.0996 235.613,-69.9952"/>
</g>
<!-- Node2 -->
<g id="node2" class="node"><title>Node2</title>
<a xlink:href="classant_1_1calibration_1_1gui_1_1_calib_module__traits.html" target="_top" xlink:title="ant::calibration::gui\l::CalibModule_traits">
<polygon fill="white" stroke="black" points="0,-78 0,-112 104,-112 104,-78 0,-78"/>
<text text-anchor="start" x="8" y="-99" font-family="Helvetica,sans-Serif" font-size="10.00">ant::calibration::gui</text>
<text text-anchor="middle" x="52" y="-86" font-family="Helvetica,sans-Serif" font-size="10.00">::CalibModule_traits</text>
</a>
</g>
<!-- Node2&#45;&gt;Node1 -->
<g id="edge2" class="edge"><title>Node2&#45;&gt;Node1</title>
<path fill="none" stroke="midnightblue" d="M114.285,-95C122.951,-95 131.829,-95 140.423,-95"/>
<polygon fill="midnightblue" stroke="midnightblue" points="114.241,-91.5001 104.241,-95 114.241,-98.5001 114.241,-91.5001"/>
</g>
<!-- Node7 -->
<g id="node13" class="node"><title>Node7</title>
<a xlink:href="structant_1_1calibration_1_1_t_a_p_s___short_energy_1_1_g_u_i___pedestals.html" target="_top" xlink:title="ant::calibration::TAPS\l_ShortEnergy::GUI_Pedestals">
<polygon fill="white" stroke="black" points="448.5,-0 448.5,-34 597.5,-34 597.5,-0 448.5,-0"/>
<text text-anchor="start" x="456.5" y="-21" font-family="Helvetica,sans-Serif" font-size="10.00">ant::calibration::TAPS</text>
<text text-anchor="middle" x="523" y="-8" font-family="Helvetica,sans-Serif" font-size="10.00">_ShortEnergy::GUI_Pedestals</text>
</a>
</g>
<!-- Node6&#45;&gt;Node7 -->
<g id="edge12" class="edge"><title>Node6&#45;&gt;Node7</title>
<path fill="none" stroke="midnightblue" d="M421.712,-17C430.523,-17 439.576,-17 448.474,-17"/>
<polygon fill="midnightblue" stroke="midnightblue" points="421.504,-13.5001 411.504,-17 421.504,-20.5001 421.504,-13.5001"/>
</g>
</g>
</svg>
