<?xml version="1.0" encoding="UTF-8" standalone="no"?>
<!DOCTYPE svg PUBLIC "-//W3C//DTD SVG 1.1//EN"
 "http://www.w3.org/Graphics/SVG/1.1/DTD/svg11.dtd">
<!-- Generated by graphviz version 2.26.3 (20100126.1600)
 -->
<!-- Title: ant::expconfig::detector::EPT_2014 Pages: 1 -->
<svg width="1130pt" height="172pt"
 viewBox="0.00 0.00 1130.00 172.00" xmlns="http://www.w3.org/2000/svg" xmlns:xlink="http://www.w3.org/1999/xlink">
<g id="graph1" class="graph" transform="scale(1 1) rotate(0) translate(4 168)">
<title>ant::expconfig::detector::EPT_2014</title>
<polygon fill="white" stroke="white" points="-4,5 -4,-168 1127,-168 1127,5 -4,5"/>
<!-- Node1 -->
<g id="node1" class="node"><title>Node1</title>
<polygon fill="#bfbfbf" stroke="black" points="1002.5,-59 1002.5,-93 1121.5,-93 1121.5,-59 1002.5,-59"/>
<text text-anchor="start" x="1010.5" y="-80" font-family="Helvetica,sans-Serif" font-size="10.00">ant::expconfig::detector</text>
<text text-anchor="middle" x="1062" y="-67" font-family="Helvetica,sans-Serif" font-size="10.00">::EPT_2014</text>
</g>
<!-- Node2 -->
<g id="node2" class="node"><title>Node2</title>
<a xlink:href="structant_1_1expconfig_1_1detector_1_1_e_p_t.html" target="_top" xlink:title="ant::expconfig::detector::EPT">
<polygon fill="white" stroke="black" points="758.5,-88.5 758.5,-109.5 903.5,-109.5 903.5,-88.5 758.5,-88.5"/>
<text text-anchor="middle" x="831" y="-96.5" font-family="Helvetica,sans-Serif" font-size="10.00">ant::expconfig::detector::EPT</text>
</a>
</g>
<!-- Node2&#45;&gt;Node1 -->
<g id="edge2" class="edge"><title>Node2&#45;&gt;Node1</title>
<path fill="none" stroke="midnightblue" d="M913.969,-90.739C943.19,-87.8296 975.436,-84.6189 1002.35,-81.939"/>
<polygon fill="midnightblue" stroke="midnightblue" points="913.377,-87.2806 903.773,-91.7542 914.07,-94.2461 913.377,-87.2806"/>
</g>
<!-- Node3 -->
<g id="node4" class="node"><title>Node3</title>
<a xlink:href="structant_1_1_tagger_detector__t.html" target="_top" xlink:title="ant::TaggerDetector_t">
<polygon fill="white" stroke="black" points="536,-142.5 536,-163.5 648,-163.5 648,-142.5 536,-142.5"/>
<text text-anchor="middle" x="592" y="-150.5" font-family="Helvetica,sans-Serif" font-size="10.00">ant::TaggerDetector_t</text>
</a>
</g>
<!-- Node3&#45;&gt;Node2 -->
<g id="edge4" class="edge"><title>Node3&#45;&gt;Node2</title>
<path fill="none" stroke="midnightblue" d="M649.496,-140.284C676.91,-134.194 710.161,-126.769 740,-120 754.863,-116.628 771.081,-112.901 785.654,-109.534"/>
<polygon fill="midnightblue" stroke="midnightblue" points="648.681,-136.88 639.677,-142.463 650.198,-143.713 648.681,-136.88"/>
</g>
<!-- Node4 -->
<g id="node6" class="node"><title>Node4</title>
<a xlink:href="structant_1_1_detector__t.html" target="_top" xlink:title="The Detector_t struct is the minimal base class for all detectors. ">
<polygon fill="white" stroke="black" points="339,-142.5 339,-163.5 421,-163.5 421,-142.5 339,-142.5"/>
<text text-anchor="middle" x="380" y="-150.5" font-family="Helvetica,sans-Serif" font-size="10.00">ant::Detector_t</text>
</a>
</g>
<!-- Node4&#45;&gt;Node3 -->
<g id="edge6" class="edge"><title>Node4&#45;&gt;Node3</title>
<path fill="none" stroke="midnightblue" d="M431.458,-153C462.992,-153 503.378,-153 535.754,-153"/>
<polygon fill="midnightblue" stroke="midnightblue" points="431.127,-149.5 421.127,-153 431.127,-156.5 431.127,-149.5"/>
</g>
<!-- Node5 -->
<g id="node8" class="node"><title>Node5</title>
<a xlink:href="classant_1_1printable__traits.html" target="_top" xlink:title="ant::printable_traits">
<polygon fill="white" stroke="black" points="180,-142.5 180,-163.5 280,-163.5 280,-142.5 180,-142.5"/>
<text text-anchor="middle" x="230" y="-150.5" font-family="Helvetica,sans-Serif" font-size="10.00">ant::printable_traits</text>
</a>
</g>
<!-- Node5&#45;&gt;Node4 -->
<g id="edge8" class="edge"><title>Node5&#45;&gt;Node4</title>
<path fill="none" stroke="midnightblue" d="M290.378,-153C306.706,-153 323.995,-153 338.987,-153"/>
<polygon fill="midnightblue" stroke="midnightblue" points="290.365,-149.5 280.365,-153 290.365,-156.5 290.365,-149.5"/>
</g>
<!-- Node6 -->
<g id="node10" class="node"><title>Node6</title>
<a xlink:href="classant_1_1_unpacker_acqu_config.html" target="_top" xlink:title="ant::UnpackerAcquConfig">
<polygon fill="white" stroke="black" points="527.5,-102.5 527.5,-123.5 656.5,-123.5 656.5,-102.5 527.5,-102.5"/>
<text text-anchor="middle" x="592" y="-110.5" font-family="Helvetica,sans-Serif" font-size="10.00">ant::UnpackerAcquConfig</text>
</a>
</g>
<!-- Node6&#45;&gt;Node2 -->
<g id="edge10" class="edge"><title>Node6&#45;&gt;Node2</title>
<path fill="none" stroke="midnightblue" d="M666.807,-108.618C695.976,-106.909 729.295,-104.958 758.262,-103.261"/>
<polygon fill="midnightblue" stroke="midnightblue" points="666.455,-105.133 656.677,-109.211 666.864,-112.121 666.455,-105.133"/>
</g>
<!-- Node7 -->
<g id="node12" class="node"><title>Node7</title>
<polygon fill="white" stroke="#bfbfbf" points="520.5,-50 520.5,-84 663.5,-84 663.5,-50 520.5,-50"/>
<text text-anchor="start" x="528.5" y="-71" font-family="Helvetica,sans-Serif" font-size="10.00">std::vector&lt; ant::expconfig</text>
<text text-anchor="middle" x="592" y="-58" font-family="Helvetica,sans-Serif" font-size="10.00">::detector::EPT::Element_t &gt;</text>
</g>
<!-- Node7&#45;&gt;Node2 -->
<g id="edge12" class="edge"><title>Node7&#45;&gt;Node2</title>
<path fill="none" stroke="#9a32cd" stroke-dasharray="5,2" d="M673.657,-77.9331C701.057,-81.6018 731.418,-85.6669 758.103,-89.2397"/>
<polygon fill="#9a32cd" stroke="#9a32cd" points="674.084,-74.4592 663.708,-76.6011 673.155,-81.3973 674.084,-74.4592"/>
<text text-anchor="middle" x="711" y="-91" font-family="Helvetica,sans-Serif" font-size="10.00"> elements</text>
</g>
<!-- Node8 -->
<g id="node14" class="node"><title>Node8</title>
<a xlink:href="structant_1_1expconfig_1_1detector_1_1_e_p_t_1_1_element__t.html" target="_top" xlink:title="ant::expconfig::detector\l::EPT::Element_t">
<polygon fill="white" stroke="black" points="320.5,-52 320.5,-86 439.5,-86 439.5,-52 320.5,-52"/>
<text text-anchor="start" x="328.5" y="-73" font-family="Helvetica,sans-Serif" font-size="10.00">ant::expconfig::detector</text>
<text text-anchor="middle" x="380" y="-60" font-family="Helvetica,sans-Serif" font-size="10.00">::EPT::Element_t</text>
</a>
</g>
<!-- Node8&#45;&gt;Node7 -->
<g id="edge14" class="edge"><title>Node8&#45;&gt;Node7</title>
<path fill="none" stroke="#9a32cd" stroke-dasharray="5,2" d="M449.833,-68.3412C472.486,-68.1275 497.643,-67.8902 520.422,-67.6753"/>
<polygon fill="#9a32cd" stroke="#9a32cd" points="449.584,-64.8433 439.618,-68.4376 449.651,-71.843 449.584,-64.8433"/>
<text text-anchor="middle" x="480" y="-73" font-family="Helvetica,sans-Serif" font-size="10.00"> elements</text>
</g>
<!-- Node9 -->
<g id="node16" class="node"><title>Node9</title>
<a xlink:href="structant_1_1_tagger_detector__t_1_1_element__t.html" target="_top" xlink:title="ant::TaggerDetector\l_t::Element_t">
<polygon fill="white" stroke="black" points="178,-52 178,-86 282,-86 282,-52 178,-52"/>
<text text-anchor="start" x="186" y="-73" font-family="Helvetica,sans-Serif" font-size="10.00">ant::TaggerDetector</text>
<text text-anchor="middle" x="230" y="-60" font-family="Helvetica,sans-Serif" font-size="10.00">_t::Element_t</text>
</a>
</g>
<!-- Node9&#45;&gt;Node8 -->
<g id="edge16" class="edge"><title>Node9&#45;&gt;Node8</title>
<path fill="none" stroke="midnightblue" d="M292.052,-69C301.404,-69 311.033,-69 320.334,-69"/>
<polygon fill="midnightblue" stroke="midnightblue" points="292.042,-65.5001 282.042,-69 292.042,-72.5001 292.042,-65.5001"/>
</g>
<!-- Node10 -->
<g id="node18" class="node"><title>Node10</title>
<a xlink:href="structant_1_1_tagger_detector__t_1_1taggeff__t.html" target="_top" xlink:title="ant::TaggerDetector\l_t::taggeff_t">
<polygon fill="white" stroke="black" points="0,-52 0,-86 104,-86 104,-52 0,-52"/>
<text text-anchor="start" x="8" y="-73" font-family="Helvetica,sans-Serif" font-size="10.00">ant::TaggerDetector</text>
<text text-anchor="middle" x="52" y="-60" font-family="Helvetica,sans-Serif" font-size="10.00">_t::taggeff_t</text>
</a>
</g>
<!-- Node10&#45;&gt;Node9 -->
<g id="edge18" class="edge"><title>Node10&#45;&gt;Node9</title>
<path fill="none" stroke="#9a32cd" stroke-dasharray="5,2" d="M114.719,-69C135.391,-69 158.142,-69 177.932,-69"/>
<polygon fill="#9a32cd" stroke="#9a32cd" points="114.443,-65.5001 104.443,-69 114.443,-72.5001 114.443,-65.5001"/>
<text text-anchor="middle" x="141" y="-73" font-family="Helvetica,sans-Serif" font-size="10.00"> TaggEff</text>
</g>
<!-- Node11 -->
<g id="node20" class="node"><title>Node11</title>
<a xlink:title="STL class. ">
<polygon fill="white" stroke="#bfbfbf" points="562,-7.5 562,-28.5 622,-28.5 622,-7.5 562,-7.5"/>
<text text-anchor="middle" x="592" y="-15.5" font-family="Helvetica,sans-Serif" font-size="10.00">std::string</text>
</a>
</g>
<!-- Node11&#45;&gt;Node2 -->
<g id="edge20" class="edge"><title>Node11&#45;&gt;Node2</title>
<path fill="none" stroke="#9a32cd" stroke-dasharray="5,2" d="M632.124,-25.291C663.004,-32.0352 706.009,-43.9462 740,-63 749.337,-68.2337 748.591,-73.8964 758,-79 764.93,-82.7594 772.622,-85.8552 780.338,-88.392"/>
<polygon fill="#9a32cd" stroke="#9a32cd" points="632.652,-21.8257 622.146,-23.1991 631.215,-28.6767 632.652,-21.8257"/>
<text text-anchor="middle" x="711" y="-67" font-family="Helvetica,sans-Serif" font-size="10.00"> ScalerName</text>
</g>
<!-- Node12 -->
<g id="node22" class="node"><title>Node12</title>
<a xlink:title="STL class. ">
<polygon fill="white" stroke="#bfbfbf" points="332.5,-0 332.5,-34 427.5,-34 427.5,-0 332.5,-0"/>
<text text-anchor="start" x="340.5" y="-21" font-family="Helvetica,sans-Serif" font-size="10.00">std::basic_string&lt;</text>
<text text-anchor="middle" x="380" y="-8" font-family="Helvetica,sans-Serif" font-size="10.00"> char &gt;</text>
</a>
</g>
<!-- Node12&#45;&gt;Node11 -->
<g id="edge22" class="edge"><title>Node12&#45;&gt;Node11</title>
<path fill="none" stroke="midnightblue" d="M437.768,-17.2725C477.892,-17.4618 529.736,-17.7063 561.924,-17.8581"/>
<polygon fill="midnightblue" stroke="midnightblue" points="437.593,-13.7717 427.577,-17.2244 437.56,-20.7716 437.593,-13.7717"/>
</g>
<!-- Node13 -->
<g id="node24" class="node"><title>Node13</title>
<polygon fill="white" stroke="#bfbfbf" points="768.5,-48.5 768.5,-69.5 893.5,-69.5 893.5,-48.5 768.5,-48.5"/>
<text text-anchor="middle" x="831" y="-56.5" font-family="Helvetica,sans-Serif" font-size="10.00">std::vector&lt; Element_t &gt;</text>
</g>
<!-- Node13&#45;&gt;Node1 -->
<g id="edge24" class="edge"><title>Node13&#45;&gt;Node1</title>
<path fill="none" stroke="#9a32cd" stroke-dasharray="5,2" d="M903.896,-61.1177C929.279,-62.1778 957.923,-63.7357 984,-66 989.985,-66.5197 996.216,-67.1561 1002.43,-67.8538"/>
<polygon fill="#9a32cd" stroke="#9a32cd" points="903.738,-57.6087 893.606,-60.7074 903.459,-64.6032 903.738,-57.6087"/>
<text text-anchor="middle" x="953" y="-70" font-family="Helvetica,sans-Serif" font-size="10.00"> elements_init</text>
</g>
</g>
</svg>
