<?xml version="1.0" encoding="UTF-8" standalone="no"?>
<!DOCTYPE svg PUBLIC "-//W3C//DTD SVG 1.1//EN"
 "http://www.w3.org/Graphics/SVG/1.1/DTD/svg11.dtd">
<!-- Generated by graphviz version 2.26.3 (20100126.1600)
 -->
<!-- Title: ant::ClippedInterpolatorWrapper::boundsCheck_t Pages: 1 -->
<svg width="198pt" height="176pt"
 viewBox="0.00 0.00 198.00 176.00" xmlns="http://www.w3.org/2000/svg" xmlns:xlink="http://www.w3.org/1999/xlink">
<g id="graph1" class="graph" transform="scale(1 1) rotate(0) translate(4 172)">
<title>ant::ClippedInterpolatorWrapper::boundsCheck_t</title>
<polygon fill="white" stroke="white" points="-4,5 -4,-172 195,-172 195,5 -4,5"/>
<!-- Node1 -->
<g id="node1" class="node"><title>Node1</title>
<polygon fill="#bfbfbf" stroke="black" points="0,-1 0,-35 128,-35 128,-1 0,-1"/>
<text text-anchor="start" x="8" y="-22" font-family="Helvetica,sans-Serif" font-size="10.00">ant::ClippedInterpolator</text>
<text text-anchor="middle" x="64" y="-9" font-family="Helvetica,sans-Serif" font-size="10.00">Wrapper::boundsCheck_t</text>
</g>
<!-- Node2 -->
<g id="node2" class="node"><title>Node2</title>
<a xlink:href="classant_1_1printable__traits.html" target="_top" xlink:title="ant::printable_traits">
<polygon fill="white" stroke="black" points="25,-146.5 25,-167.5 125,-167.5 125,-146.5 25,-146.5"/>
<text text-anchor="middle" x="75" y="-154.5" font-family="Helvetica,sans-Serif" font-size="10.00">ant::printable_traits</text>
</a>
</g>
<!-- Node2&#45;&gt;Node1 -->
<g id="edge2" class="edge"><title>Node2&#45;&gt;Node1</title>
<path fill="none" stroke="midnightblue" d="M70.9913,-136.162C69.4806,-127.486 67.9093,-117.289 67,-108 64.5326,-82.7939 63.9866,-53.4486 63.9184,-35.2966"/>
<polygon fill="midnightblue" stroke="midnightblue" points="67.5766,-136.946 72.8179,-146.154 74.4625,-135.688 67.5766,-136.946"/>
</g>
<!-- Node3 -->
<g id="node4" class="node"><title>Node3</title>
<a xlink:href="classant_1_1interval.html" target="_top" xlink:title="ant::interval\&lt; double \&gt;">
<polygon fill="white" stroke="black" points="76,-86.5 76,-107.5 190,-107.5 190,-86.5 76,-86.5"/>
<text text-anchor="middle" x="133" y="-94.5" font-family="Helvetica,sans-Serif" font-size="10.00">ant::interval&lt; double &gt;</text>
</a>
</g>
<!-- Node2&#45;&gt;Node3 -->
<g id="edge6" class="edge"><title>Node2&#45;&gt;Node3</title>
<path fill="none" stroke="midnightblue" d="M92.4135,-138.986C102.299,-128.76 114.334,-116.31 122.721,-107.634"/>
<polygon fill="midnightblue" stroke="midnightblue" points="89.803,-136.651 85.3692,-146.273 94.836,-141.516 89.803,-136.651"/>
</g>
<!-- Node3&#45;&gt;Node1 -->
<g id="edge4" class="edge"><title>Node3&#45;&gt;Node1</title>
<path fill="none" stroke="#9a32cd" stroke-dasharray="5,2" d="M116.798,-78.4497C105.349,-65.3414 90.1165,-47.9015 78.956,-35.1236"/>
<polygon fill="#9a32cd" stroke="#9a32cd" points="114.48,-81.1164 123.694,-86.3457 119.752,-76.5116 114.48,-81.1164"/>
<text text-anchor="middle" x="120" y="-58.5" font-family="Helvetica,sans-Serif" font-size="10.00"> range</text>
</g>
</g>
</svg>
