<?xml version="1.0" encoding="UTF-8" standalone="no"?>
<!DOCTYPE svg PUBLIC "-//W3C//DTD SVG 1.1//EN"
 "http://www.w3.org/Graphics/SVG/1.1/DTD/svg11.dtd">
<!-- Generated by graphviz version 2.26.3 (20100126.1600)
 -->
<!-- Title: ant::analysis::physics::EtapOmegaG::Sig_t Pages: 1 -->
<svg width="2366pt" height="404pt"
 viewBox="0.00 0.00 2366.00 404.00" xmlns="http://www.w3.org/2000/svg" xmlns:xlink="http://www.w3.org/1999/xlink">
<g id="graph1" class="graph" transform="scale(1 1) rotate(0) translate(4 400)">
<title>ant::analysis::physics::EtapOmegaG::Sig_t</title>
<polygon fill="white" stroke="white" points="-4,5 -4,-400 2363,-400 2363,5 -4,5"/>
<!-- Node1 -->
<g id="node1" class="node"><title>Node1</title>
<polygon fill="#bfbfbf" stroke="black" points="2246,-174 2246,-208 2358,-208 2358,-174 2246,-174"/>
<text text-anchor="start" x="2254" y="-195" font-family="Helvetica,sans-Serif" font-size="10.00">ant::analysis::physics</text>
<text text-anchor="middle" x="2302" y="-182" font-family="Helvetica,sans-Serif" font-size="10.00">::EtapOmegaG::Sig_t</text>
</g>
<!-- Node2 -->
<g id="node2" class="node"><title>Node2</title>
<a xlink:href="structant_1_1analysis_1_1physics_1_1_etap_omega_g_1_1_sig__t_1_1_pi0__t.html" target="_top" xlink:title="ant::analysis::physics\l::EtapOmegaG::Sig_t::Pi0_t">
<polygon fill="white" stroke="black" points="2005.5,-174 2005.5,-208 2144.5,-208 2144.5,-174 2005.5,-174"/>
<text text-anchor="start" x="2013.5" y="-195" font-family="Helvetica,sans-Serif" font-size="10.00">ant::analysis::physics</text>
<text text-anchor="middle" x="2075" y="-182" font-family="Helvetica,sans-Serif" font-size="10.00">::EtapOmegaG::Sig_t::Pi0_t</text>
</a>
</g>
<!-- Node2&#45;&gt;Node1 -->
<g id="edge2" class="edge"><title>Node2&#45;&gt;Node1</title>
<path fill="none" stroke="#9a32cd" stroke-dasharray="5,2" d="M2154.7,-191C2184.76,-191 2218.31,-191 2245.79,-191"/>
<polygon fill="#9a32cd" stroke="#9a32cd" points="2154.65,-187.5 2144.65,-191 2154.65,-194.5 2154.65,-187.5"/>
<text text-anchor="middle" x="2203" y="-195" font-family="Helvetica,sans-Serif" font-size="10.00"> Pi0</text>
</g>
<!-- Node3 -->
<g id="node4" class="node"><title>Node3</title>
<a xlink:href="structant_1_1analysis_1_1physics_1_1_etap_omega_g_1_1_sig__t_1_1_fit__t.html" target="_top" xlink:title="ant::analysis::physics\l::EtapOmegaG::Sig_t::Fit_t">
<polygon fill="white" stroke="black" points="1731,-179 1731,-213 1867,-213 1867,-179 1731,-179"/>
<text text-anchor="start" x="1739" y="-200" font-family="Helvetica,sans-Serif" font-size="10.00">ant::analysis::physics</text>
<text text-anchor="middle" x="1799" y="-187" font-family="Helvetica,sans-Serif" font-size="10.00">::EtapOmegaG::Sig_t::Fit_t</text>
</a>
</g>
<!-- Node3&#45;&gt;Node2 -->
<g id="edge4" class="edge"><title>Node3&#45;&gt;Node2</title>
<path fill="none" stroke="midnightblue" d="M1877.27,-194.582C1917.53,-193.853 1966.19,-192.971 2005.16,-192.265"/>
<polygon fill="midnightblue" stroke="midnightblue" points="1877.16,-191.083 1867.22,-194.764 1877.29,-198.082 1877.16,-191.083"/>
</g>
<!-- Node33 -->
<g id="node70" class="node"><title>Node33</title>
<a xlink:href="structant_1_1analysis_1_1physics_1_1_etap_omega_g_1_1_sig__t_1_1_omega_pi0__t.html" target="_top" xlink:title="ant::analysis::physics\l::EtapOmegaG::Sig_t::OmegaPi0_t">
<polygon fill="white" stroke="black" points="1990,-118 1990,-152 2160,-152 2160,-118 1990,-118"/>
<text text-anchor="start" x="1998" y="-139" font-family="Helvetica,sans-Serif" font-size="10.00">ant::analysis::physics</text>
<text text-anchor="middle" x="2075" y="-126" font-family="Helvetica,sans-Serif" font-size="10.00">::EtapOmegaG::Sig_t::OmegaPi0_t</text>
</a>
</g>
<!-- Node3&#45;&gt;Node33 -->
<g id="edge78" class="edge"><title>Node3&#45;&gt;Node33</title>
<path fill="none" stroke="midnightblue" d="M1871.3,-174.686C1874.29,-173.214 1877.2,-171.653 1880,-170 1889.47,-164.402 1887.99,-157.578 1898,-153 1926.23,-140.085 1959.57,-134.536 1989.66,-132.56"/>
<polygon fill="midnightblue" stroke="midnightblue" points="1869.8,-171.524 1862.13,-178.842 1872.69,-177.899 1869.8,-171.524"/>
</g>
<!-- Node4 -->
<g id="node6" class="node"><title>Node4</title>
<a xlink:href="classant_1_1_tree.html" target="_top" xlink:title="ant::Tree\&lt; node_t \&gt;">
<polygon fill="white" stroke="black" points="1484.5,-112.5 1484.5,-133.5 1587.5,-133.5 1587.5,-112.5 1484.5,-112.5"/>
<text text-anchor="middle" x="1536" y="-120.5" font-family="Helvetica,sans-Serif" font-size="10.00">ant::Tree&lt; node_t &gt;</text>
</a>
</g>
<!-- Node4&#45;&gt;Node3 -->
<g id="edge6" class="edge"><title>Node4&#45;&gt;Node3</title>
<path fill="none" stroke="#9a32cd" stroke-dasharray="5,2" d="M1582.11,-110.304C1617.46,-103.431 1665.82,-100.521 1700,-124 1718.1,-136.431 1702,-154.968 1718,-170 1721.88,-173.641 1726.26,-176.771 1730.94,-179.464"/>
<polygon fill="#9a32cd" stroke="#9a32cd" points="1581.11,-106.939 1572.05,-112.434 1582.56,-113.787 1581.11,-106.939"/>
<text text-anchor="middle" x="1659" y="-206" font-family="Helvetica,sans-Serif" font-size="10.00"> fitted_g_EtaPrime</text>
<text text-anchor="middle" x="1659" y="-193" font-family="Helvetica,sans-Serif" font-size="10.00">fitted_EtaPrime</text>
<text text-anchor="middle" x="1659" y="-180" font-family="Helvetica,sans-Serif" font-size="10.00">fitted_Omega</text>
<text text-anchor="middle" x="1659" y="-167" font-family="Helvetica,sans-Serif" font-size="10.00">fitted_Pi0</text>
<text text-anchor="middle" x="1659" y="-154" font-family="Helvetica,sans-Serif" font-size="10.00">fitted_g_Omega</text>
<text text-anchor="middle" x="1659" y="-141" font-family="Helvetica,sans-Serif" font-size="10.00">fitted_g2_Pi0</text>
<text text-anchor="middle" x="1659" y="-128" font-family="Helvetica,sans-Serif" font-size="10.00">fitted_g1_Pi0</text>
</g>
<!-- Node5 -->
<g id="node8" class="node"><title>Node5</title>
<polygon fill="white" stroke="#bfbfbf" points="676,-133.5 676,-154.5 772,-154.5 772,-133.5 676,-133.5"/>
<text text-anchor="middle" x="724" y="-141.5" font-family="Helvetica,sans-Serif" font-size="10.00">std::list&lt; node_t &gt;</text>
</g>
<!-- Node5&#45;&gt;Node4 -->
<g id="edge8" class="edge"><title>Node5&#45;&gt;Node4</title>
<path fill="none" stroke="#9a32cd" stroke-dasharray="5,2" d="M782.462,-144.843C883.496,-146.253 1097.31,-149.031 1278,-150 1356.22,-150.42 1376.77,-162.388 1454,-150 1473.68,-146.843 1495.05,-139.679 1511.03,-133.523"/>
<polygon fill="#9a32cd" stroke="#9a32cd" points="782.214,-141.339 772.166,-144.699 782.116,-148.339 782.214,-141.339"/>
<text text-anchor="middle" x="1043" y="-152" font-family="Helvetica,sans-Serif" font-size="10.00"> daughters</text>
</g>
<!-- Node7 -->
<g id="node12" class="node"><title>Node7</title>
<a xlink:href="classant_1_1_tree.html" target="_top" xlink:title="ant::Tree\&lt; T \&gt;">
<polygon fill="white" stroke="black" points="899,-96.5 899,-117.5 979,-117.5 979,-96.5 899,-96.5"/>
<text text-anchor="middle" x="939" y="-104.5" font-family="Helvetica,sans-Serif" font-size="10.00">ant::Tree&lt; T &gt;</text>
</a>
</g>
<!-- Node5&#45;&gt;Node7 -->
<g id="edge14" class="edge"><title>Node5&#45;&gt;Node7</title>
<path fill="none" stroke="#9a32cd" stroke-dasharray="5,2" d="M782.382,-133.953C819.299,-127.6 866.062,-119.552 898.84,-113.911"/>
<polygon fill="#9a32cd" stroke="#9a32cd" points="781.512,-130.551 772.25,-135.696 782.699,-137.45 781.512,-130.551"/>
<text text-anchor="middle" x="835" y="-132" font-family="Helvetica,sans-Serif" font-size="10.00"> daughters</text>
</g>
<!-- Node6 -->
<g id="node10" class="node"><title>Node6</title>
<polygon fill="white" stroke="#bfbfbf" points="1115.5,-104.5 1115.5,-125.5 1228.5,-125.5 1228.5,-104.5 1115.5,-104.5"/>
<text text-anchor="middle" x="1172" y="-112.5" font-family="Helvetica,sans-Serif" font-size="10.00">std::weak_ptr&lt; Tree &gt;</text>
</g>
<!-- Node6&#45;&gt;Node4 -->
<g id="edge10" class="edge"><title>Node6&#45;&gt;Node4</title>
<path fill="none" stroke="#9a32cd" stroke-dasharray="5,2" d="M1239.02,-116.473C1309.79,-118.028 1419.85,-120.447 1484.23,-121.862"/>
<polygon fill="#9a32cd" stroke="#9a32cd" points="1238.95,-112.971 1228.88,-116.25 1238.8,-119.969 1238.95,-112.971"/>
<text text-anchor="middle" x="1366" y="-138" font-family="Helvetica,sans-Serif" font-size="10.00"> parent</text>
<text text-anchor="middle" x="1366" y="-125" font-family="Helvetica,sans-Serif" font-size="10.00">self</text>
</g>
<!-- Node6&#45;&gt;Node7 -->
<g id="edge16" class="edge"><title>Node6&#45;&gt;Node7</title>
<path fill="none" stroke="#9a32cd" stroke-dasharray="5,2" d="M1105.34,-112.711C1064.55,-111.311 1013.72,-109.565 979.054,-108.375"/>
<polygon fill="#9a32cd" stroke="#9a32cd" points="1105.36,-116.214 1115.48,-113.059 1105.6,-109.218 1105.36,-116.214"/>
<text text-anchor="middle" x="1043" y="-128" font-family="Helvetica,sans-Serif" font-size="10.00"> parent</text>
<text text-anchor="middle" x="1043" y="-115" font-family="Helvetica,sans-Serif" font-size="10.00">self</text>
</g>
<!-- Node7&#45;&gt;Node6 -->
<g id="edge12" class="edge"><title>Node7&#45;&gt;Node6</title>
<path fill="none" stroke="#9a32cd" stroke-dasharray="5,2" d="M973.045,-92.9419C987.293,-87.7765 1004.19,-82.5658 1020,-80 1040.18,-76.7252 1046.55,-73.7099 1066,-80 1075.39,-83.0362 1075.05,-88.8393 1084,-93 1094,-97.6478 1105.1,-101.399 1115.97,-104.396"/>
<polygon fill="#9a32cd" stroke="#9a32cd" points="971.777,-89.6795 963.651,-96.4777 974.243,-96.2309 971.777,-89.6795"/>
<text text-anchor="middle" x="1043" y="-84" font-family="Helvetica,sans-Serif" font-size="10.00"> ptr</text>
</g>
<!-- Node8 -->
<g id="node16" class="node"><title>Node8</title>
<polygon fill="white" stroke="#bfbfbf" points="709.5,-89.5 709.5,-110.5 738.5,-110.5 738.5,-89.5 709.5,-89.5"/>
<text text-anchor="middle" x="724" y="-97.5" font-family="Helvetica,sans-Serif" font-size="10.00">T</text>
</g>
<!-- Node8&#45;&gt;Node7 -->
<g id="edge18" class="edge"><title>Node8&#45;&gt;Node7</title>
<path fill="none" stroke="#9a32cd" stroke-dasharray="5,2" d="M748.967,-99.691C775.889,-99.4736 819.999,-99.4525 858,-101 871.244,-101.539 885.683,-102.492 898.654,-103.481"/>
<polygon fill="#9a32cd" stroke="#9a32cd" points="748.845,-96.1919 738.88,-99.7885 748.913,-103.192 748.845,-96.1919"/>
<text text-anchor="middle" x="835" y="-105" font-family="Helvetica,sans-Serif" font-size="10.00"> data</text>
</g>
<!-- Node9 -->
<g id="node18" class="node"><title>Node9</title>
<a xlink:href="classant_1_1analysis_1_1utils_1_1_tree_fitter.html" target="_top" xlink:title="ant::analysis::utils\l::TreeFitter">
<polygon fill="white" stroke="black" points="1488,-240 1488,-274 1584,-274 1584,-240 1488,-240"/>
<text text-anchor="start" x="1496" y="-261" font-family="Helvetica,sans-Serif" font-size="10.00">ant::analysis::utils</text>
<text text-anchor="middle" x="1536" y="-248" font-family="Helvetica,sans-Serif" font-size="10.00">::TreeFitter</text>
</a>
</g>
<!-- Node9&#45;&gt;Node1 -->
<g id="edge68" class="edge"><title>Node9&#45;&gt;Node1</title>
<path fill="none" stroke="#9a32cd" stroke-dasharray="5,2" d="M1594.4,-255.391C1625.73,-254.395 1664.98,-252.934 1700,-251 1904.69,-239.695 1956.08,-238.013 2160,-217 2190.33,-213.875 2198,-213.419 2228,-208 2233.84,-206.946 2239.91,-205.737 2245.95,-204.46"/>
<polygon fill="#9a32cd" stroke="#9a32cd" points="1593.99,-251.902 1584.1,-255.711 1594.21,-258.899 1593.99,-251.902"/>
<text text-anchor="middle" x="1935" y="-256" font-family="Helvetica,sans-Serif" font-size="10.00"> treefitter_Pi0Eta</text>
<text text-anchor="middle" x="1935" y="-243" font-family="Helvetica,sans-Serif" font-size="10.00">treefitter_Pi0Pi0</text>
</g>
<!-- Node9&#45;&gt;Node3 -->
<g id="edge20" class="edge"><title>Node9&#45;&gt;Node3</title>
<path fill="none" stroke="#9a32cd" stroke-dasharray="5,2" d="M1594.19,-243.504C1634.53,-234.147 1688.4,-221.653 1730.76,-211.827"/>
<polygon fill="#9a32cd" stroke="#9a32cd" points="1593.19,-240.143 1584.24,-245.812 1594.77,-246.962 1593.19,-240.143"/>
<text text-anchor="middle" x="1659" y="-241" font-family="Helvetica,sans-Serif" font-size="10.00"> treefitter</text>
</g>
<!-- Node10 -->
<g id="node20" class="node"><title>Node10</title>
<a xlink:href="classant_1_1analysis_1_1utils_1_1_kin_fitter.html" target="_top" xlink:title="ant::analysis::utils\l::KinFitter">
<polygon fill="white" stroke="black" points="1124,-294 1124,-328 1220,-328 1220,-294 1124,-294"/>
<text text-anchor="start" x="1132" y="-315" font-family="Helvetica,sans-Serif" font-size="10.00">ant::analysis::utils</text>
<text text-anchor="middle" x="1172" y="-302" font-family="Helvetica,sans-Serif" font-size="10.00">::KinFitter</text>
</a>
</g>
<!-- Node10&#45;&gt;Node1 -->
<g id="edge70" class="edge"><title>Node10&#45;&gt;Node1</title>
<path fill="none" stroke="#9a32cd" stroke-dasharray="5,2" d="M1230.49,-311C1302.41,-311 1428.18,-311 1536,-311 1536,-311 1536,-311 2075,-311 2161.93,-311 2248.13,-241.374 2284.28,-208.193"/>
<polygon fill="#9a32cd" stroke="#9a32cd" points="1230.28,-307.5 1220.28,-311 1230.28,-314.5 1230.28,-307.5"/>
<text text-anchor="middle" x="1799" y="-315" font-family="Helvetica,sans-Serif" font-size="10.00"> kinfitter</text>
</g>
<!-- Node10&#45;&gt;Node9 -->
<g id="edge22" class="edge"><title>Node10&#45;&gt;Node9</title>
<path fill="none" stroke="midnightblue" d="M1230.17,-303.706C1287.27,-296.37 1376.78,-284.397 1454,-272 1465,-270.234 1476.81,-268.173 1487.93,-266.155"/>
<polygon fill="midnightblue" stroke="midnightblue" points="1229.72,-300.235 1220.25,-304.977 1230.61,-307.178 1229.72,-300.235"/>
</g>
<!-- Node11 -->
<g id="node22" class="node"><title>Node11</title>
<a xlink:href="classant_1_1analysis_1_1utils_1_1_fitter.html" target="_top" xlink:title="ant::analysis::utils\l::Fitter">
<polygon fill="white" stroke="black" points="891,-362 891,-396 987,-396 987,-362 891,-362"/>
<text text-anchor="start" x="899" y="-383" font-family="Helvetica,sans-Serif" font-size="10.00">ant::analysis::utils</text>
<text text-anchor="middle" x="939" y="-370" font-family="Helvetica,sans-Serif" font-size="10.00">::Fitter</text>
</a>
</g>
<!-- Node11&#45;&gt;Node10 -->
<g id="edge24" class="edge"><title>Node11&#45;&gt;Node10</title>
<path fill="none" stroke="midnightblue" d="M996.937,-362.091C1036,-350.691 1086.94,-335.826 1123.78,-325.072"/>
<polygon fill="midnightblue" stroke="midnightblue" points="995.897,-358.749 987.278,-364.91 997.858,-365.469 995.897,-358.749"/>
</g>
<!-- Node12 -->
<g id="node24" class="node"><title>Node12</title>
<polygon fill="white" stroke="#bfbfbf" points="654,-368.5 654,-389.5 794,-389.5 794,-368.5 654,-368.5"/>
<text text-anchor="middle" x="724" y="-376.5" font-family="Helvetica,sans-Serif" font-size="10.00">std::unique_ptr&lt; APLCON &gt;</text>
</g>
<!-- Node12&#45;&gt;Node11 -->
<g id="edge26" class="edge"><title>Node12&#45;&gt;Node11</title>
<path fill="none" stroke="#9a32cd" stroke-dasharray="5,2" d="M804.254,-379C833.336,-379 865.267,-379 890.742,-379"/>
<polygon fill="#9a32cd" stroke="#9a32cd" points="804.102,-375.5 794.102,-379 804.102,-382.5 804.102,-375.5"/>
<text text-anchor="middle" x="835" y="-383" font-family="Helvetica,sans-Serif" font-size="10.00"> aplcon</text>
</g>
<!-- Node13 -->
<g id="node26" class="node"><title>Node13</title>
<polygon fill="white" stroke="#bfbfbf" points="876.5,-244.5 876.5,-291.5 1001.5,-291.5 1001.5,-244.5 876.5,-244.5"/>
<text text-anchor="start" x="884.5" y="-278.5" font-family="Helvetica,sans-Serif" font-size="10.00">std::unique_ptr&lt; ant</text>
<text text-anchor="start" x="884.5" y="-265.5" font-family="Helvetica,sans-Serif" font-size="10.00">::analysis::utils::KinFitter</text>
<text text-anchor="middle" x="939" y="-252.5" font-family="Helvetica,sans-Serif" font-size="10.00">::BeamE_t &gt;</text>
</g>
<!-- Node13&#45;&gt;Node10 -->
<g id="edge28" class="edge"><title>Node13&#45;&gt;Node10</title>
<path fill="none" stroke="#9a32cd" stroke-dasharray="5,2" d="M1011.86,-281.446C1048.38,-288.187 1091.6,-296.162 1123.93,-302.129"/>
<polygon fill="#9a32cd" stroke="#9a32cd" points="1012.22,-277.953 1001.75,-279.58 1010.94,-284.837 1012.22,-277.953"/>
<text text-anchor="middle" x="1043" y="-294" font-family="Helvetica,sans-Serif" font-size="10.00"> BeamE</text>
</g>
<!-- Node14 -->
<g id="node28" class="node"><title>Node14</title>
<a xlink:href="structant_1_1analysis_1_1utils_1_1_kin_fitter_1_1_beam_e__t.html" target="_top" xlink:title="ant::analysis::utils\l::KinFitter::BeamE_t">
<polygon fill="white" stroke="black" points="671,-251 671,-285 777,-285 777,-251 671,-251"/>
<text text-anchor="start" x="679" y="-272" font-family="Helvetica,sans-Serif" font-size="10.00">ant::analysis::utils</text>
<text text-anchor="middle" x="724" y="-259" font-family="Helvetica,sans-Serif" font-size="10.00">::KinFitter::BeamE_t</text>
</a>
</g>
<!-- Node14&#45;&gt;Node13 -->
<g id="edge30" class="edge"><title>Node14&#45;&gt;Node13</title>
<path fill="none" stroke="#9a32cd" stroke-dasharray="5,2" d="M787.236,-268C815.269,-268 848.168,-268 876.156,-268"/>
<polygon fill="#9a32cd" stroke="#9a32cd" points="787.146,-264.5 777.146,-268 787.146,-271.5 787.146,-264.5"/>
<text text-anchor="middle" x="835" y="-272" font-family="Helvetica,sans-Serif" font-size="10.00"> ptr</text>
</g>
<!-- Node15 -->
<g id="node30" class="node"><title>Node15</title>
<a xlink:href="structant_1_1analysis_1_1utils_1_1_fitter_1_1_fit_variable.html" target="_top" xlink:title="ant::analysis::utils\l::Fitter::FitVariable">
<polygon fill="white" stroke="black" points="465,-268 465,-302 563,-302 563,-268 465,-268"/>
<text text-anchor="start" x="473" y="-289" font-family="Helvetica,sans-Serif" font-size="10.00">ant::analysis::utils</text>
<text text-anchor="middle" x="514" y="-276" font-family="Helvetica,sans-Serif" font-size="10.00">::Fitter::FitVariable</text>
</a>
</g>
<!-- Node15&#45;&gt;Node14 -->
<g id="edge32" class="edge"><title>Node15&#45;&gt;Node14</title>
<path fill="none" stroke="midnightblue" d="M573.347,-280.196C603.947,-277.719 640.971,-274.721 670.658,-272.318"/>
<polygon fill="midnightblue" stroke="midnightblue" points="572.921,-276.719 563.236,-281.014 573.486,-283.696 572.921,-276.719"/>
</g>
<!-- Node16 -->
<g id="node32" class="node"><title>Node16</title>
<a xlink:title="STL class. ">
<polygon fill="white" stroke="#bfbfbf" points="134,-194.5 134,-215.5 194,-215.5 194,-194.5 134,-194.5"/>
<text text-anchor="middle" x="164" y="-202.5" font-family="Helvetica,sans-Serif" font-size="10.00">std::string</text>
</a>
</g>
<!-- Node16&#45;&gt;Node14 -->
<g id="edge34" class="edge"><title>Node16&#45;&gt;Node14</title>
<path fill="none" stroke="#9a32cd" stroke-dasharray="5,2" d="M204.31,-209.535C303.476,-220.691 559.307,-249.472 670.772,-262.012"/>
<polygon fill="#9a32cd" stroke="#9a32cd" points="204.437,-206.027 194.108,-208.387 203.654,-212.983 204.437,-206.027"/>
<text text-anchor="middle" x="417" y="-239" font-family="Helvetica,sans-Serif" font-size="10.00"> Name</text>
</g>
<!-- Node31 -->
<g id="node62" class="node"><title>Node31</title>
<a xlink:href="structant_1_1_wrap_t_tree_1_1_r_o_o_t__branchinfo__t.html" target="_top" xlink:title="ant::WrapTTree::ROOT\l_branchinfo_t">
<polygon fill="white" stroke="black" points="260.5,-113 260.5,-147 379.5,-147 379.5,-113 260.5,-113"/>
<text text-anchor="start" x="268.5" y="-134" font-family="Helvetica,sans-Serif" font-size="10.00">ant::WrapTTree::ROOT</text>
<text text-anchor="middle" x="320" y="-121" font-family="Helvetica,sans-Serif" font-size="10.00">_branchinfo_t</text>
</a>
</g>
<!-- Node16&#45;&gt;Node31 -->
<g id="edge66" class="edge"><title>Node16&#45;&gt;Node31</title>
<path fill="none" stroke="#9a32cd" stroke-dasharray="5,2" d="M195.338,-189.933C221.139,-177.529 257.709,-159.948 284.57,-147.034"/>
<polygon fill="#9a32cd" stroke="#9a32cd" points="193.516,-186.926 186.02,-194.413 196.549,-193.235 193.516,-186.926"/>
<text text-anchor="middle" x="227" y="-184" font-family="Helvetica,sans-Serif" font-size="10.00"> Name</text>
</g>
<!-- Node17 -->
<g id="node34" class="node"><title>Node17</title>
<a xlink:title="STL class. ">
<polygon fill="white" stroke="#bfbfbf" points="0.5,-188 0.5,-222 95.5,-222 95.5,-188 0.5,-188"/>
<text text-anchor="start" x="8.5" y="-209" font-family="Helvetica,sans-Serif" font-size="10.00">std::basic_string&lt;</text>
<text text-anchor="middle" x="48" y="-196" font-family="Helvetica,sans-Serif" font-size="10.00"> char &gt;</text>
</a>
</g>
<!-- Node17&#45;&gt;Node16 -->
<g id="edge36" class="edge"><title>Node17&#45;&gt;Node16</title>
<path fill="none" stroke="midnightblue" d="M105.582,-205C115.29,-205 125.014,-205 133.666,-205"/>
<polygon fill="midnightblue" stroke="midnightblue" points="105.516,-201.5 95.5163,-205 105.516,-208.5 105.516,-201.5"/>
</g>
<!-- Node18 -->
<g id="node36" class="node"><title>Node18</title>
<polygon fill="white" stroke="#bfbfbf" points="878.5,-310 878.5,-344 999.5,-344 999.5,-310 878.5,-310"/>
<text text-anchor="start" x="886.5" y="-331" font-family="Helvetica,sans-Serif" font-size="10.00">std::vector&lt; std::shared</text>
<text text-anchor="middle" x="939" y="-318" font-family="Helvetica,sans-Serif" font-size="10.00">_ptr&lt; FitParticle &gt; &gt;</text>
</g>
<!-- Node18&#45;&gt;Node10 -->
<g id="edge38" class="edge"><title>Node18&#45;&gt;Node10</title>
<path fill="none" stroke="#9a32cd" stroke-dasharray="5,2" d="M1009.81,-322.137C1046.71,-319.603 1090.88,-316.57 1123.81,-314.31"/>
<polygon fill="#9a32cd" stroke="#9a32cd" points="1009.35,-318.661 999.61,-322.838 1009.83,-325.645 1009.35,-318.661"/>
<text text-anchor="middle" x="1043" y="-325" font-family="Helvetica,sans-Serif" font-size="10.00"> Photons</text>
</g>
<!-- Node19 -->
<g id="node38" class="node"><title>Node19</title>
<polygon fill="white" stroke="#bfbfbf" points="1119,-246.5 1119,-267.5 1225,-267.5 1225,-246.5 1119,-246.5"/>
<text text-anchor="middle" x="1172" y="-254.5" font-family="Helvetica,sans-Serif" font-size="10.00">std::vector&lt; tree_t &gt;</text>
</g>
<!-- Node19&#45;&gt;Node9 -->
<g id="edge40" class="edge"><title>Node19&#45;&gt;Node9</title>
<path fill="none" stroke="#9a32cd" stroke-dasharray="5,2" d="M1235.6,-257C1307.49,-257 1422.93,-257 1487.77,-257"/>
<polygon fill="#9a32cd" stroke="#9a32cd" points="1235.32,-253.5 1225.32,-257 1235.32,-260.5 1235.32,-253.5"/>
<text text-anchor="middle" x="1366" y="-261" font-family="Helvetica,sans-Serif" font-size="10.00"> tree_leaves</text>
</g>
<!-- Node20 -->
<g id="node40" class="node"><title>Node20</title>
<polygon fill="white" stroke="#bfbfbf" points="1117,-203.5 1117,-224.5 1227,-224.5 1227,-203.5 1117,-203.5"/>
<text text-anchor="middle" x="1172" y="-211.5" font-family="Helvetica,sans-Serif" font-size="10.00">std::list&lt; iteration_t &gt;</text>
</g>
<!-- Node20&#45;&gt;Node9 -->
<g id="edge42" class="edge"><title>Node20&#45;&gt;Node9</title>
<path fill="none" stroke="#9a32cd" stroke-dasharray="5,2" d="M1237.08,-217.915C1294.4,-221.858 1380.03,-228.958 1454,-240 1464.93,-241.631 1476.6,-243.792 1487.6,-246.025"/>
<polygon fill="#9a32cd" stroke="#9a32cd" points="1237.28,-214.421 1227.07,-217.238 1236.81,-221.405 1237.28,-214.421"/>
<text text-anchor="middle" x="1366" y="-244" font-family="Helvetica,sans-Serif" font-size="10.00"> iterations</text>
</g>
<!-- Node21 -->
<g id="node42" class="node"><title>Node21</title>
<a xlink:href="structant_1_1analysis_1_1utils_1_1_tree_fitter_1_1iteration__t.html" target="_top" xlink:title="ant::analysis::utils\l::TreeFitter::iteration_t">
<polygon fill="white" stroke="black" points="882.5,-192 882.5,-226 995.5,-226 995.5,-192 882.5,-192"/>
<text text-anchor="start" x="890.5" y="-213" font-family="Helvetica,sans-Serif" font-size="10.00">ant::analysis::utils</text>
<text text-anchor="middle" x="939" y="-200" font-family="Helvetica,sans-Serif" font-size="10.00">::TreeFitter::iteration_t</text>
</a>
</g>
<!-- Node21&#45;&gt;Node20 -->
<g id="edge44" class="edge"><title>Node21&#45;&gt;Node20</title>
<path fill="none" stroke="#9a32cd" stroke-dasharray="5,2" d="M1005.86,-210.435C1040.95,-211.188 1083.43,-212.099 1116.66,-212.812"/>
<polygon fill="#9a32cd" stroke="#9a32cd" points="1005.77,-206.932 995.7,-210.217 1005.62,-213.931 1005.77,-206.932"/>
<text text-anchor="middle" x="1043" y="-215" font-family="Helvetica,sans-Serif" font-size="10.00"> elements</text>
</g>
<!-- Node22 -->
<g id="node44" class="node"><title>Node22</title>
<polygon fill="white" stroke="#bfbfbf" points="659.5,-181.5 659.5,-228.5 788.5,-228.5 788.5,-181.5 659.5,-181.5"/>
<text text-anchor="start" x="667.5" y="-215.5" font-family="Helvetica,sans-Serif" font-size="10.00">std::vector&lt; ant::analysis</text>
<text text-anchor="start" x="667.5" y="-202.5" font-family="Helvetica,sans-Serif" font-size="10.00">::utils::TreeFitter::iteration</text>
<text text-anchor="middle" x="724" y="-189.5" font-family="Helvetica,sans-Serif" font-size="10.00">_t::particle_t &gt;</text>
</g>
<!-- Node22&#45;&gt;Node21 -->
<g id="edge46" class="edge"><title>Node22&#45;&gt;Node21</title>
<path fill="none" stroke="#9a32cd" stroke-dasharray="5,2" d="M798.824,-206.392C826.186,-206.901 856.669,-207.468 882.201,-207.943"/>
<polygon fill="#9a32cd" stroke="#9a32cd" points="798.57,-202.887 788.507,-206.2 798.44,-209.886 798.57,-202.887"/>
<text text-anchor="middle" x="835" y="-211" font-family="Helvetica,sans-Serif" font-size="10.00"> Particles</text>
</g>
<!-- Node23 -->
<g id="node46" class="node"><title>Node23</title>
<a xlink:href="structant_1_1analysis_1_1utils_1_1_tree_fitter_1_1iteration__t_1_1particle__t.html" target="_top" xlink:title="ant::analysis::utils\l::TreeFitter::iteration\l_t::particle_t">
<polygon fill="white" stroke="black" points="461.5,-164.5 461.5,-211.5 566.5,-211.5 566.5,-164.5 461.5,-164.5"/>
<text text-anchor="start" x="469.5" y="-198.5" font-family="Helvetica,sans-Serif" font-size="10.00">ant::analysis::utils</text>
<text text-anchor="start" x="469.5" y="-185.5" font-family="Helvetica,sans-Serif" font-size="10.00">::TreeFitter::iteration</text>
<text text-anchor="middle" x="514" y="-172.5" font-family="Helvetica,sans-Serif" font-size="10.00">_t::particle_t</text>
</a>
</g>
<!-- Node23&#45;&gt;Node22 -->
<g id="edge48" class="edge"><title>Node23&#45;&gt;Node22</title>
<path fill="none" stroke="#9a32cd" stroke-dasharray="5,2" d="M576.844,-193.087C602.863,-195.194 633.022,-197.635 659.239,-199.757"/>
<polygon fill="#9a32cd" stroke="#9a32cd" points="576.971,-189.586 566.721,-192.268 576.406,-196.563 576.971,-189.586"/>
<text text-anchor="middle" x="614" y="-201" font-family="Helvetica,sans-Serif" font-size="10.00"> elements</text>
</g>
<!-- Node24 -->
<g id="node48" class="node"><title>Node24</title>
<a xlink:href="structant_1_1std__ext_1_1cc__shared__ptr.html" target="_top" xlink:title="ant::std_ext::cc_shared\l_ptr\&lt; TParticle \&gt;">
<polygon fill="white" stroke="black" points="260.5,-171 260.5,-205 379.5,-205 379.5,-171 260.5,-171"/>
<text text-anchor="start" x="268.5" y="-192" font-family="Helvetica,sans-Serif" font-size="10.00">ant::std_ext::cc_shared</text>
<text text-anchor="middle" x="320" y="-179" font-family="Helvetica,sans-Serif" font-size="10.00">_ptr&lt; TParticle &gt;</text>
</a>
</g>
<!-- Node24&#45;&gt;Node23 -->
<g id="edge50" class="edge"><title>Node24&#45;&gt;Node23</title>
<path fill="none" stroke="#9a32cd" stroke-dasharray="5,2" d="M389.841,-188C413.471,-188 439.439,-188 461.491,-188"/>
<polygon fill="#9a32cd" stroke="#9a32cd" points="389.525,-184.5 379.525,-188 389.525,-191.5 389.525,-184.5"/>
<text text-anchor="middle" x="417" y="-192" font-family="Helvetica,sans-Serif" font-size="10.00"> Particle</text>
</g>
<!-- Node25 -->
<g id="node50" class="node"><title>Node25</title>
<a xlink:href="structant_1_1analysis_1_1physics_1_1_etap_omega_g_1_1_sig__t_1_1_pi0__t_1_1_tree__t.html" target="_top" xlink:title="ant::analysis::physics\l::EtapOmegaG::Sig_t::Pi0\l_t::Tree_t">
<polygon fill="white" stroke="black" points="1733.5,-113.5 1733.5,-160.5 1864.5,-160.5 1864.5,-113.5 1733.5,-113.5"/>
<text text-anchor="start" x="1741.5" y="-147.5" font-family="Helvetica,sans-Serif" font-size="10.00">ant::analysis::physics</text>
<text text-anchor="start" x="1741.5" y="-134.5" font-family="Helvetica,sans-Serif" font-size="10.00">::EtapOmegaG::Sig_t::Pi0</text>
<text text-anchor="middle" x="1799" y="-121.5" font-family="Helvetica,sans-Serif" font-size="10.00">_t::Tree_t</text>
</a>
</g>
<!-- Node25&#45;&gt;Node2 -->
<g id="edge52" class="edge"><title>Node25&#45;&gt;Node2</title>
<path fill="none" stroke="#9a32cd" stroke-dasharray="5,2" d="M1874.66,-151.803C1915.49,-159.792 1965.55,-169.585 2005.41,-177.384"/>
<polygon fill="#9a32cd" stroke="#9a32cd" points="1875.24,-148.351 1864.76,-149.866 1873.9,-155.221 1875.24,-148.351"/>
<text text-anchor="middle" x="1935" y="-174" font-family="Helvetica,sans-Serif" font-size="10.00"> t</text>
</g>
<!-- Node26 -->
<g id="node52" class="node"><title>Node26</title>
<a xlink:href="structant_1_1analysis_1_1physics_1_1_etap_omega_g_1_1_sig__t_1_1_fit__t_1_1_base_tree__t.html" target="_top" xlink:title="ant::analysis::physics\l::EtapOmegaG::Sig_t::Fit\l_t::BaseTree_t">
<polygon fill="white" stroke="black" points="1472,-44.5 1472,-91.5 1600,-91.5 1600,-44.5 1472,-44.5"/>
<text text-anchor="start" x="1480" y="-78.5" font-family="Helvetica,sans-Serif" font-size="10.00">ant::analysis::physics</text>
<text text-anchor="start" x="1480" y="-65.5" font-family="Helvetica,sans-Serif" font-size="10.00">::EtapOmegaG::Sig_t::Fit</text>
<text text-anchor="middle" x="1536" y="-52.5" font-family="Helvetica,sans-Serif" font-size="10.00">_t::BaseTree_t</text>
</a>
</g>
<!-- Node26&#45;&gt;Node25 -->
<g id="edge54" class="edge"><title>Node26&#45;&gt;Node25</title>
<path fill="none" stroke="midnightblue" d="M1610.07,-82.5251C1638.37,-88.5273 1670.84,-95.9635 1700,-104 1710.83,-106.984 1722.22,-110.459 1733.26,-114.011"/>
<polygon fill="midnightblue" stroke="midnightblue" points="1610.75,-79.0919 1600.25,-80.4632 1609.32,-85.9427 1610.75,-79.0919"/>
</g>
<!-- Node34 -->
<g id="node73" class="node"><title>Node34</title>
<a xlink:href="structant_1_1analysis_1_1physics_1_1_etap_omega_g_1_1_sig__t_1_1_omega_pi0__t_1_1_tree__t.html" target="_top" xlink:title="ant::analysis::physics\l::EtapOmegaG::Sig_t::OmegaPi0\l_t::Tree_t">
<polygon fill="white" stroke="black" points="1718,-47.5 1718,-94.5 1880,-94.5 1880,-47.5 1718,-47.5"/>
<text text-anchor="start" x="1726" y="-81.5" font-family="Helvetica,sans-Serif" font-size="10.00">ant::analysis::physics</text>
<text text-anchor="start" x="1726" y="-68.5" font-family="Helvetica,sans-Serif" font-size="10.00">::EtapOmegaG::Sig_t::OmegaPi0</text>
<text text-anchor="middle" x="1799" y="-55.5" font-family="Helvetica,sans-Serif" font-size="10.00">_t::Tree_t</text>
</a>
</g>
<!-- Node26&#45;&gt;Node34 -->
<g id="edge82" class="edge"><title>Node26&#45;&gt;Node34</title>
<path fill="none" stroke="midnightblue" d="M1610.19,-68.8463C1643.69,-69.2285 1683.37,-69.6811 1717.69,-70.0725"/>
<polygon fill="midnightblue" stroke="midnightblue" points="1610.04,-65.3444 1600,-68.73 1609.96,-72.344 1610.04,-65.3444"/>
</g>
<!-- Node27 -->
<g id="node54" class="node"><title>Node27</title>
<a xlink:href="structant_1_1analysis_1_1physics_1_1_etap_omega_g_1_1_proton_photon_tree__t.html" target="_top" xlink:title="ant::analysis::physics\l::EtapOmegaG::ProtonPhotonTree_t">
<polygon fill="white" stroke="black" points="1084.5,-50 1084.5,-84 1259.5,-84 1259.5,-50 1084.5,-50"/>
<text text-anchor="start" x="1092.5" y="-71" font-family="Helvetica,sans-Serif" font-size="10.00">ant::analysis::physics</text>
<text text-anchor="middle" x="1172" y="-58" font-family="Helvetica,sans-Serif" font-size="10.00">::EtapOmegaG::ProtonPhotonTree_t</text>
</a>
</g>
<!-- Node27&#45;&gt;Node26 -->
<g id="edge56" class="edge"><title>Node27&#45;&gt;Node26</title>
<path fill="none" stroke="midnightblue" d="M1269.78,-67.2686C1333.93,-67.4449 1415.97,-67.6703 1471.92,-67.824"/>
<polygon fill="midnightblue" stroke="midnightblue" points="1269.66,-63.7684 1259.65,-67.2408 1269.64,-70.7684 1269.66,-63.7684"/>
</g>
<!-- Node28 -->
<g id="node56" class="node"><title>Node28</title>
<a xlink:href="structant_1_1_wrap_t_tree.html" target="_top" xlink:title="The WrapTTree struct simplifies TTree handling in physics classes. ">
<polygon fill="white" stroke="black" points="896.5,-35.5 896.5,-56.5 981.5,-56.5 981.5,-35.5 896.5,-35.5"/>
<text text-anchor="middle" x="939" y="-43.5" font-family="Helvetica,sans-Serif" font-size="10.00">ant::WrapTTree</text>
</a>
</g>
<!-- Node28&#45;&gt;Node27 -->
<g id="edge58" class="edge"><title>Node28&#45;&gt;Node27</title>
<path fill="none" stroke="midnightblue" d="M991.838,-50.7622C1019.11,-53.2199 1053.09,-56.2829 1084.17,-59.0842"/>
<polygon fill="midnightblue" stroke="midnightblue" points="992.01,-47.2636 981.736,-49.8517 991.381,-54.2353 992.01,-47.2636"/>
</g>
<!-- Node32 -->
<g id="node67" class="node"><title>Node32</title>
<a xlink:href="structant_1_1analysis_1_1physics_1_1_etap_omega_g_1_1_sig__t_1_1_shared_tree__t.html" target="_top" xlink:title="ant::analysis::physics\l::EtapOmegaG::Sig_t::SharedTree_t">
<polygon fill="white" stroke="black" points="1278.5,-0 1278.5,-34 1453.5,-34 1453.5,-0 1278.5,-0"/>
<text text-anchor="start" x="1286.5" y="-21" font-family="Helvetica,sans-Serif" font-size="10.00">ant::analysis::physics</text>
<text text-anchor="middle" x="1366" y="-8" font-family="Helvetica,sans-Serif" font-size="10.00">::EtapOmegaG::Sig_t::SharedTree_t</text>
</a>
</g>
<!-- Node28&#45;&gt;Node32 -->
<g id="edge74" class="edge"><title>Node28&#45;&gt;Node32</title>
<path fill="none" stroke="midnightblue" d="M991.629,-42.4257C1063.15,-37.5679 1192.01,-28.8166 1278.28,-22.9575"/>
<polygon fill="midnightblue" stroke="midnightblue" points="991.243,-38.9437 981.503,-43.1133 991.718,-45.9276 991.243,-38.9437"/>
</g>
<!-- Node29 -->
<g id="node58" class="node"><title>Node29</title>
<polygon fill="white" stroke="#bfbfbf" points="654,-35 654,-69 794,-69 794,-35 654,-35"/>
<text text-anchor="start" x="662" y="-56" font-family="Helvetica,sans-Serif" font-size="10.00">std::vector&lt; ant::WrapTTree</text>
<text text-anchor="middle" x="724" y="-43" font-family="Helvetica,sans-Serif" font-size="10.00">::ROOT_branch_t &gt;</text>
</g>
<!-- Node29&#45;&gt;Node28 -->
<g id="edge60" class="edge"><title>Node29&#45;&gt;Node28</title>
<path fill="none" stroke="#9a32cd" stroke-dasharray="5,2" d="M804.12,-49.7641C835.38,-48.8917 869.949,-47.927 896.263,-47.1927"/>
<polygon fill="#9a32cd" stroke="#9a32cd" points="804,-46.266 794.102,-50.0437 804.195,-53.2633 804,-46.266"/>
<text text-anchor="middle" x="835" y="-54" font-family="Helvetica,sans-Serif" font-size="10.00"> branches</text>
</g>
<!-- Node30 -->
<g id="node60" class="node"><title>Node30</title>
<a xlink:href="structant_1_1_wrap_t_tree_1_1_r_o_o_t__branch__t.html" target="_top" xlink:title="ant::WrapTTree::ROOT\l_branch_t">
<polygon fill="white" stroke="black" points="454.5,-93 454.5,-127 573.5,-127 573.5,-93 454.5,-93"/>
<text text-anchor="start" x="462.5" y="-114" font-family="Helvetica,sans-Serif" font-size="10.00">ant::WrapTTree::ROOT</text>
<text text-anchor="middle" x="514" y="-101" font-family="Helvetica,sans-Serif" font-size="10.00">_branch_t</text>
</a>
</g>
<!-- Node30&#45;&gt;Node29 -->
<g id="edge62" class="edge"><title>Node30&#45;&gt;Node29</title>
<path fill="none" stroke="#9a32cd" stroke-dasharray="5,2" d="M583.578,-90.7833C609.053,-83.7473 637.679,-75.8409 662.408,-69.0112"/>
<polygon fill="#9a32cd" stroke="#9a32cd" points="582.323,-87.4987 573.616,-93.5347 584.187,-94.2461 582.323,-87.4987"/>
<text text-anchor="middle" x="614" y="-91" font-family="Helvetica,sans-Serif" font-size="10.00"> elements</text>
</g>
<!-- Node31&#45;&gt;Node30 -->
<g id="edge64" class="edge"><title>Node31&#45;&gt;Node30</title>
<path fill="none" stroke="midnightblue" d="M389.724,-122.812C410.846,-120.634 433.847,-118.263 454.254,-116.159"/>
<polygon fill="midnightblue" stroke="midnightblue" points="389.113,-119.356 379.525,-123.863 389.831,-126.319 389.113,-119.356"/>
</g>
<!-- Node32&#45;&gt;Node1 -->
<g id="edge72" class="edge"><title>Node32&#45;&gt;Node1</title>
<path fill="none" stroke="#9a32cd" stroke-dasharray="5,2" d="M1463.58,-16.5004C1520.57,-16.2502 1593.86,-16 1659,-16 1659,-16 1659,-16 2075,-16 2177.76,-16 2262.44,-129.867 2291.35,-173.902"/>
<polygon fill="#9a32cd" stroke="#9a32cd" points="1463.49,-13.0007 1453.5,-16.5454 1463.52,-20.0006 1463.49,-13.0007"/>
<text text-anchor="middle" x="1799" y="-20" font-family="Helvetica,sans-Serif" font-size="10.00"> t</text>
</g>
<!-- Node33&#45;&gt;Node1 -->
<g id="edge76" class="edge"><title>Node33&#45;&gt;Node1</title>
<path fill="none" stroke="#9a32cd" stroke-dasharray="5,2" d="M2154.13,-154.522C2184.37,-161.981 2218.2,-170.326 2245.86,-177.15"/>
<polygon fill="#9a32cd" stroke="#9a32cd" points="2154.58,-151.027 2144.03,-152.03 2152.9,-157.823 2154.58,-151.027"/>
<text text-anchor="middle" x="2203" y="-175" font-family="Helvetica,sans-Serif" font-size="10.00"> OmegaPi0</text>
</g>
<!-- Node34&#45;&gt;Node33 -->
<g id="edge80" class="edge"><title>Node34&#45;&gt;Node33</title>
<path fill="none" stroke="#9a32cd" stroke-dasharray="5,2" d="M1890.34,-92.1809C1926.38,-100.537 1967.22,-110.008 2001.32,-117.915"/>
<polygon fill="#9a32cd" stroke="#9a32cd" points="1890.85,-88.7054 1880.32,-89.856 1889.27,-95.5245 1890.85,-88.7054"/>
<text text-anchor="middle" x="1935" y="-114" font-family="Helvetica,sans-Serif" font-size="10.00"> t</text>
</g>
</g>
</svg>
