<?xml version="1.0" encoding="UTF-8" standalone="no"?>
<!DOCTYPE svg PUBLIC "-//W3C//DTD SVG 1.1//EN"
 "http://www.w3.org/Graphics/SVG/1.1/DTD/svg11.dtd">
<!-- Generated by graphviz version 2.26.3 (20100126.1600)
 -->
<!-- Title: ant::expconfig::detector::PID Pages: 1 -->
<svg width="245pt" height="146pt"
 viewBox="0.00 0.00 245.00 146.00" xmlns="http://www.w3.org/2000/svg" xmlns:xlink="http://www.w3.org/1999/xlink">
<g id="graph1" class="graph" transform="scale(1 1) rotate(0) translate(4 142)">
<title>ant::expconfig::detector::PID</title>
<polygon fill="white" stroke="white" points="-4,5 -4,-142 242,-142 242,5 -4,5"/>
<!-- Node1 -->
<g id="node1" class="node"><title>Node1</title>
<polygon fill="#bfbfbf" stroke="black" points="39.5,-0.5 39.5,-21.5 182.5,-21.5 182.5,-0.5 39.5,-0.5"/>
<text text-anchor="middle" x="111" y="-8.5" font-family="Helvetica,sans-Serif" font-size="10.00">ant::expconfig::detector::PID</text>
</g>
<!-- Node2 -->
<g id="node2" class="node"><title>Node2</title>
<a xlink:href="structant_1_1_detector__t.html" target="_top" xlink:title="The Detector_t struct is the minimal base class for all detectors. ">
<polygon fill="white" stroke="black" points="9,-58.5 9,-79.5 91,-79.5 91,-58.5 9,-58.5"/>
<text text-anchor="middle" x="50" y="-66.5" font-family="Helvetica,sans-Serif" font-size="10.00">ant::Detector_t</text>
</a>
</g>
<!-- Node2&#45;&gt;Node1 -->
<g id="edge2" class="edge"><title>Node2&#45;&gt;Node1</title>
<path fill="none" stroke="midnightblue" d="M68.5051,-51.405C78.7454,-41.6683 91.1315,-29.8914 99.8826,-21.5707"/>
<polygon fill="midnightblue" stroke="midnightblue" points="66.0237,-48.9348 61.1883,-58.3619 70.8471,-54.0077 66.0237,-48.9348"/>
</g>
<!-- Node3 -->
<g id="node4" class="node"><title>Node3</title>
<a xlink:href="classant_1_1printable__traits.html" target="_top" xlink:title="ant::printable_traits">
<polygon fill="white" stroke="black" points="0,-116.5 0,-137.5 100,-137.5 100,-116.5 0,-116.5"/>
<text text-anchor="middle" x="50" y="-124.5" font-family="Helvetica,sans-Serif" font-size="10.00">ant::printable_traits</text>
</a>
</g>
<!-- Node3&#45;&gt;Node2 -->
<g id="edge4" class="edge"><title>Node3&#45;&gt;Node2</title>
<path fill="none" stroke="midnightblue" d="M50,-106.191C50,-97.1684 50,-86.9941 50,-79.5707"/>
<polygon fill="midnightblue" stroke="midnightblue" points="46.5001,-106.362 50,-116.362 53.5001,-106.362 46.5001,-106.362"/>
</g>
<!-- Node4 -->
<g id="node6" class="node"><title>Node4</title>
<a xlink:href="classant_1_1_unpacker_acqu_config.html" target="_top" xlink:title="ant::UnpackerAcquConfig">
<polygon fill="white" stroke="black" points="108.5,-58.5 108.5,-79.5 237.5,-79.5 237.5,-58.5 108.5,-58.5"/>
<text text-anchor="middle" x="173" y="-66.5" font-family="Helvetica,sans-Serif" font-size="10.00">ant::UnpackerAcquConfig</text>
</a>
</g>
<!-- Node4&#45;&gt;Node1 -->
<g id="edge6" class="edge"><title>Node4&#45;&gt;Node1</title>
<path fill="none" stroke="midnightblue" d="M154.192,-51.405C143.783,-41.6683 131.194,-29.8914 122.3,-21.5707"/>
<polygon fill="midnightblue" stroke="midnightblue" points="151.934,-54.0863 161.628,-58.3619 156.717,-48.9743 151.934,-54.0863"/>
</g>
</g>
</svg>
