<?xml version="1.0" encoding="UTF-8" standalone="no"?>
<!DOCTYPE svg PUBLIC "-//W3C//DTD SVG 1.1//EN"
 "http://www.w3.org/Graphics/SVG/1.1/DTD/svg11.dtd">
<!-- Generated by graphviz version 2.26.3 (20100126.1600)
 -->
<!-- Title: ant::analysis::input::DetectorHitInput Pages: 1 -->
<svg width="566pt" height="122pt"
 viewBox="0.00 0.00 566.00 122.00" xmlns="http://www.w3.org/2000/svg" xmlns:xlink="http://www.w3.org/1999/xlink">
<g id="graph1" class="graph" transform="scale(1 1) rotate(0) translate(4 118)">
<title>ant::analysis::input::DetectorHitInput</title>
<polygon fill="white" stroke="white" points="-4,5 -4,-118 563,-118 563,5 -4,5"/>
<!-- Node1 -->
<g id="node1" class="node"><title>Node1</title>
<polygon fill="#bfbfbf" stroke="black" points="458.5,-40 458.5,-74 557.5,-74 557.5,-40 458.5,-40"/>
<text text-anchor="start" x="466.5" y="-61" font-family="Helvetica,sans-Serif" font-size="10.00">ant::analysis::input</text>
<text text-anchor="middle" x="508" y="-48" font-family="Helvetica,sans-Serif" font-size="10.00">::DetectorHitInput</text>
</g>
<!-- Node2 -->
<g id="node2" class="node"><title>Node2</title>
<a xlink:href="classant_1_1analysis_1_1input_1_1_base_input_module.html" target="_top" xlink:title="ant::analysis::input\l::BaseInputModule">
<polygon fill="white" stroke="black" points="274.5,-80 274.5,-114 373.5,-114 373.5,-80 274.5,-80"/>
<text text-anchor="start" x="282.5" y="-101" font-family="Helvetica,sans-Serif" font-size="10.00">ant::analysis::input</text>
<text text-anchor="middle" x="324" y="-88" font-family="Helvetica,sans-Serif" font-size="10.00">::BaseInputModule</text>
</a>
</g>
<!-- Node2&#45;&gt;Node1 -->
<g id="edge2" class="edge"><title>Node2&#45;&gt;Node1</title>
<path fill="none" stroke="midnightblue" d="M383.538,-92.6435C401.822,-90.5514 421.891,-87.4827 440,-83 449.324,-80.6919 459.105,-77.4628 468.25,-74.0629"/>
<polygon fill="midnightblue" stroke="midnightblue" points="383.159,-89.164 373.588,-93.7081 383.904,-96.1243 383.159,-89.164"/>
</g>
<!-- Node3 -->
<g id="node4" class="node"><title>Node3</title>
<a xlink:href="structant_1_1analysis_1_1input_1_1_detector_hit_input_1_1_item__t.html" target="_top" xlink:title="ant::analysis::input\l::DetectorHitInput::Item_t">
<polygon fill="white" stroke="black" points="260,-0 260,-34 388,-34 388,-0 260,-0"/>
<text text-anchor="start" x="268" y="-21" font-family="Helvetica,sans-Serif" font-size="10.00">ant::analysis::input</text>
<text text-anchor="middle" x="324" y="-8" font-family="Helvetica,sans-Serif" font-size="10.00">::DetectorHitInput::Item_t</text>
</a>
</g>
<!-- Node3&#45;&gt;Node1 -->
<g id="edge4" class="edge"><title>Node3&#45;&gt;Node1</title>
<path fill="none" stroke="#9a32cd" stroke-dasharray="5,2" d="M398.26,-8.35184C412.321,-8.59549 426.765,-10.1664 440,-14 457.575,-19.0907 474.97,-30.2312 487.766,-39.8969"/>
<polygon fill="#9a32cd" stroke="#9a32cd" points="398.096,-4.85242 388.111,-8.39563 398.126,-11.8524 398.096,-4.85242"/>
<text text-anchor="middle" x="423" y="-70" font-family="Helvetica,sans-Serif" font-size="10.00"> NaI</text>
<text text-anchor="middle" x="423" y="-57" font-family="Helvetica,sans-Serif" font-size="10.00">PID</text>
<text text-anchor="middle" x="423" y="-44" font-family="Helvetica,sans-Serif" font-size="10.00">Veto</text>
<text text-anchor="middle" x="423" y="-31" font-family="Helvetica,sans-Serif" font-size="10.00">BaF2</text>
<text text-anchor="middle" x="423" y="-18" font-family="Helvetica,sans-Serif" font-size="10.00">MWPC</text>
</g>
<!-- Node4 -->
<g id="node6" class="node"><title>Node4</title>
<a xlink:title="STL class. ">
<polygon fill="white" stroke="#bfbfbf" points="134,-6.5 134,-27.5 194,-27.5 194,-6.5 134,-6.5"/>
<text text-anchor="middle" x="164" y="-14.5" font-family="Helvetica,sans-Serif" font-size="10.00">std::string</text>
</a>
</g>
<!-- Node4&#45;&gt;Node3 -->
<g id="edge6" class="edge"><title>Node4&#45;&gt;Node3</title>
<path fill="none" stroke="#9a32cd" stroke-dasharray="5,2" d="M204.153,-17C221.029,-17 241.082,-17 259.91,-17"/>
<polygon fill="#9a32cd" stroke="#9a32cd" points="204.095,-13.5001 194.095,-17 204.095,-20.5001 204.095,-13.5001"/>
<text text-anchor="middle" x="227" y="-21" font-family="Helvetica,sans-Serif" font-size="10.00"> Name</text>
</g>
<!-- Node5 -->
<g id="node8" class="node"><title>Node5</title>
<a xlink:title="STL class. ">
<polygon fill="white" stroke="#bfbfbf" points="0.5,-0 0.5,-34 95.5,-34 95.5,-0 0.5,-0"/>
<text text-anchor="start" x="8.5" y="-21" font-family="Helvetica,sans-Serif" font-size="10.00">std::basic_string&lt;</text>
<text text-anchor="middle" x="48" y="-8" font-family="Helvetica,sans-Serif" font-size="10.00"> char &gt;</text>
</a>
</g>
<!-- Node5&#45;&gt;Node4 -->
<g id="edge8" class="edge"><title>Node5&#45;&gt;Node4</title>
<path fill="none" stroke="midnightblue" d="M105.582,-17C115.29,-17 125.014,-17 133.666,-17"/>
<polygon fill="midnightblue" stroke="midnightblue" points="105.516,-13.5001 95.5163,-17 105.516,-20.5001 105.516,-13.5001"/>
</g>
</g>
</svg>
