<?xml version="1.0" encoding="UTF-8" standalone="no"?>
<!DOCTYPE svg PUBLIC "-//W3C//DTD SVG 1.1//EN"
 "http://www.w3.org/Graphics/SVG/1.1/DTD/svg11.dtd">
<!-- Generated by graphviz version 2.26.3 (20100126.1600)
 -->
<!-- Title: ant::expconfig::detector::TAPSVeto::BaF2_Element_t Pages: 1 -->
<svg width="178pt" height="310pt"
 viewBox="0.00 0.00 178.00 310.00" xmlns="http://www.w3.org/2000/svg" xmlns:xlink="http://www.w3.org/1999/xlink">
<g id="graph1" class="graph" transform="scale(1 1) rotate(0) translate(4 306)">
<title>ant::expconfig::detector::TAPSVeto::BaF2_Element_t</title>
<polygon fill="white" stroke="white" points="-4,5 -4,-306 175,-306 175,5 -4,5"/>
<!-- Node1 -->
<g id="node1" class="node"><title>Node1</title>
<polygon fill="#bfbfbf" stroke="black" points="11,-1 11,-35 159,-35 159,-1 11,-1"/>
<text text-anchor="start" x="19" y="-22" font-family="Helvetica,sans-Serif" font-size="10.00">ant::expconfig::detector</text>
<text text-anchor="middle" x="85" y="-9" font-family="Helvetica,sans-Serif" font-size="10.00">::TAPSVeto::BaF2_Element_t</text>
</g>
<!-- Node2 -->
<g id="node2" class="node"><title>Node2</title>
<a xlink:href="structant_1_1expconfig_1_1detector_1_1_t_a_p_s_veto_1_1_t_a_p_s_veto___element__t.html" target="_top" xlink:title="ant::expconfig::detector\l::TAPSVeto::TAPSVeto_Element_t">
<polygon fill="white" stroke="black" points="-0.5,-75 -0.5,-109 170.5,-109 170.5,-75 -0.5,-75"/>
<text text-anchor="start" x="7.5" y="-96" font-family="Helvetica,sans-Serif" font-size="10.00">ant::expconfig::detector</text>
<text text-anchor="middle" x="85" y="-83" font-family="Helvetica,sans-Serif" font-size="10.00">::TAPSVeto::TAPSVeto_Element_t</text>
</a>
</g>
<!-- Node2&#45;&gt;Node1 -->
<g id="edge2" class="edge"><title>Node2&#45;&gt;Node1</title>
<path fill="none" stroke="midnightblue" d="M85,-64.6275C85,-54.7253 85,-43.8344 85,-35.07"/>
<polygon fill="midnightblue" stroke="midnightblue" points="81.5001,-64.8369 85,-74.8369 88.5001,-64.8369 81.5001,-64.8369"/>
</g>
<!-- Node3 -->
<g id="node4" class="node"><title>Node3</title>
<a xlink:href="structant_1_1_detector__t_1_1_element__t.html" target="_top" xlink:title="ant::Detector_t::Element_t">
<polygon fill="white" stroke="black" points="19,-148.5 19,-169.5 151,-169.5 151,-148.5 19,-148.5"/>
<text text-anchor="middle" x="85" y="-156.5" font-family="Helvetica,sans-Serif" font-size="10.00">ant::Detector_t::Element_t</text>
</a>
</g>
<!-- Node3&#45;&gt;Node2 -->
<g id="edge4" class="edge"><title>Node3&#45;&gt;Node2</title>
<path fill="none" stroke="midnightblue" d="M85,-138.165C85,-128.797 85,-117.88 85,-109.014"/>
<polygon fill="midnightblue" stroke="midnightblue" points="81.5001,-138.235 85,-148.235 88.5001,-138.235 81.5001,-138.235"/>
</g>
<!-- Node4 -->
<g id="node6" class="node"><title>Node4</title>
<a xlink:href="structant_1_1vec3.html" target="_top" xlink:title="ant::vec3">
<polygon fill="white" stroke="black" points="56.5,-220.5 56.5,-241.5 113.5,-241.5 113.5,-220.5 56.5,-220.5"/>
<text text-anchor="middle" x="85" y="-228.5" font-family="Helvetica,sans-Serif" font-size="10.00">ant::vec3</text>
</a>
</g>
<!-- Node4&#45;&gt;Node3 -->
<g id="edge6" class="edge"><title>Node4&#45;&gt;Node3</title>
<path fill="none" stroke="#9a32cd" stroke-dasharray="5,2" d="M85,-210.235C85,-196.969 85,-180.319 85,-169.667"/>
<polygon fill="#9a32cd" stroke="#9a32cd" points="81.5001,-210.376 85,-220.376 88.5001,-210.376 81.5001,-210.376"/>
<text text-anchor="middle" x="104.5" y="-192.5" font-family="Helvetica,sans-Serif" font-size="10.00"> Position</text>
</g>
<!-- Node5 -->
<g id="node8" class="node"><title>Node5</title>
<a xlink:href="classant_1_1printable__traits.html" target="_top" xlink:title="ant::printable_traits">
<polygon fill="white" stroke="black" points="35,-280.5 35,-301.5 135,-301.5 135,-280.5 35,-280.5"/>
<text text-anchor="middle" x="85" y="-288.5" font-family="Helvetica,sans-Serif" font-size="10.00">ant::printable_traits</text>
</a>
</g>
<!-- Node5&#45;&gt;Node4 -->
<g id="edge8" class="edge"><title>Node5&#45;&gt;Node4</title>
<path fill="none" stroke="midnightblue" d="M85,-270.231C85,-260.592 85,-249.544 85,-241.634"/>
<polygon fill="midnightblue" stroke="midnightblue" points="81.5001,-270.273 85,-280.273 88.5001,-270.273 81.5001,-270.273"/>
</g>
</g>
</svg>
