<?xml version="1.0" encoding="UTF-8" standalone="no"?>
<!DOCTYPE svg PUBLIC "-//W3C//DTD SVG 1.1//EN"
 "http://www.w3.org/Graphics/SVG/1.1/DTD/svg11.dtd">
<!-- Generated by graphviz version 2.26.3 (20100126.1600)
 -->
<!-- Title: ant::analysis::physics::debugTaggEff::taggEffTree_t Pages: 1 -->
<svg width="156pt" height="496pt"
 viewBox="0.00 0.00 156.00 496.00" xmlns="http://www.w3.org/2000/svg" xmlns:xlink="http://www.w3.org/1999/xlink">
<g id="graph1" class="graph" transform="scale(1 1) rotate(0) translate(4 492)">
<title>ant::analysis::physics::debugTaggEff::taggEffTree_t</title>
<polygon fill="white" stroke="white" points="-4,5 -4,-492 153,-492 153,5 -4,5"/>
<!-- Node1 -->
<g id="node1" class="node"><title>Node1</title>
<polygon fill="#bfbfbf" stroke="black" points="-0.5,-1 -0.5,-35 148.5,-35 148.5,-1 -0.5,-1"/>
<text text-anchor="start" x="7.5" y="-22" font-family="Helvetica,sans-Serif" font-size="10.00">ant::analysis::physics</text>
<text text-anchor="middle" x="74" y="-9" font-family="Helvetica,sans-Serif" font-size="10.00">::debugTaggEff::taggEffTree_t</text>
</g>
<!-- Node2 -->
<g id="node2" class="node"><title>Node2</title>
<a xlink:href="structant_1_1_wrap_t_tree.html" target="_top" xlink:title="The WrapTTree struct simplifies TTree handling in physics classes. ">
<polygon fill="white" stroke="black" points="31.5,-74.5 31.5,-95.5 116.5,-95.5 116.5,-74.5 31.5,-74.5"/>
<text text-anchor="middle" x="74" y="-82.5" font-family="Helvetica,sans-Serif" font-size="10.00">ant::WrapTTree</text>
</a>
</g>
<!-- Node2&#45;&gt;Node1 -->
<g id="edge2" class="edge"><title>Node2&#45;&gt;Node1</title>
<path fill="none" stroke="midnightblue" d="M74,-64.1655C74,-54.7973 74,-43.8796 74,-35.0139"/>
<polygon fill="midnightblue" stroke="midnightblue" points="70.5001,-64.2353 74,-74.2353 77.5001,-64.2353 70.5001,-64.2353"/>
</g>
<!-- Node3 -->
<g id="node4" class="node"><title>Node3</title>
<polygon fill="white" stroke="#bfbfbf" points="4,-147 4,-181 144,-181 144,-147 4,-147"/>
<text text-anchor="start" x="12" y="-168" font-family="Helvetica,sans-Serif" font-size="10.00">std::vector&lt; ant::WrapTTree</text>
<text text-anchor="middle" x="74" y="-155" font-family="Helvetica,sans-Serif" font-size="10.00">::ROOT_branch_t &gt;</text>
</g>
<!-- Node3&#45;&gt;Node2 -->
<g id="edge4" class="edge"><title>Node3&#45;&gt;Node2</title>
<path fill="none" stroke="#9a32cd" stroke-dasharray="5,2" d="M74,-136.623C74,-122.473 74,-106.024 74,-95.5672"/>
<polygon fill="#9a32cd" stroke="#9a32cd" points="70.5001,-136.858 74,-146.858 77.5001,-136.858 70.5001,-136.858"/>
<text text-anchor="middle" x="95.5" y="-118.5" font-family="Helvetica,sans-Serif" font-size="10.00"> branches</text>
</g>
<!-- Node4 -->
<g id="node6" class="node"><title>Node4</title>
<a xlink:href="structant_1_1_wrap_t_tree_1_1_r_o_o_t__branch__t.html" target="_top" xlink:title="ant::WrapTTree::ROOT\l_branch_t">
<polygon fill="white" stroke="black" points="14.5,-233 14.5,-267 133.5,-267 133.5,-233 14.5,-233"/>
<text text-anchor="start" x="22.5" y="-254" font-family="Helvetica,sans-Serif" font-size="10.00">ant::WrapTTree::ROOT</text>
<text text-anchor="middle" x="74" y="-241" font-family="Helvetica,sans-Serif" font-size="10.00">_branch_t</text>
</a>
</g>
<!-- Node4&#45;&gt;Node3 -->
<g id="edge6" class="edge"><title>Node4&#45;&gt;Node3</title>
<path fill="none" stroke="#9a32cd" stroke-dasharray="5,2" d="M74,-222.342C74,-208.774 74,-192.861 74,-181.084"/>
<polygon fill="#9a32cd" stroke="#9a32cd" points="70.5001,-222.597 74,-232.597 77.5001,-222.597 70.5001,-222.597"/>
<text text-anchor="middle" x="95.5" y="-204.5" font-family="Helvetica,sans-Serif" font-size="10.00"> elements</text>
</g>
<!-- Node5 -->
<g id="node8" class="node"><title>Node5</title>
<a xlink:href="structant_1_1_wrap_t_tree_1_1_r_o_o_t__branchinfo__t.html" target="_top" xlink:title="ant::WrapTTree::ROOT\l_branchinfo_t">
<polygon fill="white" stroke="black" points="14.5,-307 14.5,-341 133.5,-341 133.5,-307 14.5,-307"/>
<text text-anchor="start" x="22.5" y="-328" font-family="Helvetica,sans-Serif" font-size="10.00">ant::WrapTTree::ROOT</text>
<text text-anchor="middle" x="74" y="-315" font-family="Helvetica,sans-Serif" font-size="10.00">_branchinfo_t</text>
</a>
</g>
<!-- Node5&#45;&gt;Node4 -->
<g id="edge8" class="edge"><title>Node5&#45;&gt;Node4</title>
<path fill="none" stroke="midnightblue" d="M74,-296.627C74,-286.725 74,-275.834 74,-267.07"/>
<polygon fill="midnightblue" stroke="midnightblue" points="70.5001,-296.837 74,-306.837 77.5001,-296.837 70.5001,-296.837"/>
</g>
<!-- Node6 -->
<g id="node10" class="node"><title>Node6</title>
<a xlink:title="STL class. ">
<polygon fill="white" stroke="#bfbfbf" points="44,-392.5 44,-413.5 104,-413.5 104,-392.5 44,-392.5"/>
<text text-anchor="middle" x="74" y="-400.5" font-family="Helvetica,sans-Serif" font-size="10.00">std::string</text>
</a>
</g>
<!-- Node6&#45;&gt;Node5 -->
<g id="edge10" class="edge"><title>Node6&#45;&gt;Node5</title>
<path fill="none" stroke="#9a32cd" stroke-dasharray="5,2" d="M74,-382.162C74,-369.363 74,-353.171 74,-341.124"/>
<polygon fill="#9a32cd" stroke="#9a32cd" points="70.5001,-382.346 74,-392.346 77.5001,-382.346 70.5001,-382.346"/>
<text text-anchor="middle" x="89" y="-364.5" font-family="Helvetica,sans-Serif" font-size="10.00"> Name</text>
</g>
<!-- Node7 -->
<g id="node12" class="node"><title>Node7</title>
<a xlink:title="STL class. ">
<polygon fill="white" stroke="#bfbfbf" points="26.5,-453 26.5,-487 121.5,-487 121.5,-453 26.5,-453"/>
<text text-anchor="start" x="34.5" y="-474" font-family="Helvetica,sans-Serif" font-size="10.00">std::basic_string&lt;</text>
<text text-anchor="middle" x="74" y="-461" font-family="Helvetica,sans-Serif" font-size="10.00"> char &gt;</text>
</a>
</g>
<!-- Node7&#45;&gt;Node6 -->
<g id="edge12" class="edge"><title>Node7&#45;&gt;Node6</title>
<path fill="none" stroke="midnightblue" d="M74,-442.534C74,-432.306 74,-421.301 74,-413.506"/>
<polygon fill="midnightblue" stroke="midnightblue" points="70.5001,-442.746 74,-452.746 77.5001,-442.746 70.5001,-442.746"/>
</g>
</g>
</svg>
