<?xml version="1.0" encoding="UTF-8" standalone="no"?>
<!DOCTYPE svg PUBLIC "-//W3C//DTD SVG 1.1//EN"
 "http://www.w3.org/Graphics/SVG/1.1/DTD/svg11.dtd">
<!-- Generated by graphviz version 2.26.3 (20100126.1600)
 -->
<!-- Title: ant::reconstruct::clustering::crystal_t Pages: 1 -->
<svg width="886pt" height="136pt"
 viewBox="0.00 0.00 886.00 135.78" xmlns="http://www.w3.org/2000/svg" xmlns:xlink="http://www.w3.org/1999/xlink">
<g id="graph1" class="graph" transform="scale(1 1) rotate(0) translate(4 131.778)">
<title>ant::reconstruct::clustering::crystal_t</title>
<polygon fill="white" stroke="white" points="-4,5 -4,-131.778 883,-131.778 883,5 -4,5"/>
<!-- Node1 -->
<g id="node1" class="node"><title>Node1</title>
<polygon fill="#bfbfbf" stroke="black" points="744.5,-58 744.5,-92 877.5,-92 877.5,-58 744.5,-58"/>
<text text-anchor="start" x="752.5" y="-79" font-family="Helvetica,sans-Serif" font-size="10.00">ant::reconstruct::clustering</text>
<text text-anchor="middle" x="811" y="-66" font-family="Helvetica,sans-Serif" font-size="10.00">::crystal_t</text>
</g>
<!-- Node2 -->
<g id="node2" class="node"><title>Node2</title>
<a xlink:href="structant_1_1_t_cluster_hit.html" target="_top" xlink:title="ant::TClusterHit">
<polygon fill="white" stroke="black" points="572,-86.5 572,-107.5 658,-107.5 658,-86.5 572,-86.5"/>
<text text-anchor="middle" x="615" y="-94.5" font-family="Helvetica,sans-Serif" font-size="10.00">ant::TClusterHit</text>
</a>
</g>
<!-- Node2&#45;&gt;Node1 -->
<g id="edge2" class="edge"><title>Node2&#45;&gt;Node1</title>
<path fill="none" stroke="#9a32cd" stroke-dasharray="5,2" d="M668.109,-91.0387C691.553,-88.4074 719.367,-85.2853 744.199,-82.4981"/>
<polygon fill="#9a32cd" stroke="#9a32cd" points="667.56,-87.5783 658.013,-92.172 668.341,-94.5346 667.56,-87.5783"/>
<text text-anchor="middle" x="706" y="-92" font-family="Helvetica,sans-Serif" font-size="10.00"> Hit</text>
</g>
<!-- Node3 -->
<g id="node4" class="node"><title>Node3</title>
<a xlink:href="classant_1_1printable__traits.html" target="_top" xlink:title="ant::printable_traits">
<polygon fill="white" stroke="black" points="0,-98.5 0,-119.5 100,-119.5 100,-98.5 0,-98.5"/>
<text text-anchor="middle" x="50" y="-106.5" font-family="Helvetica,sans-Serif" font-size="10.00">ant::printable_traits</text>
</a>
</g>
<!-- Node3&#45;&gt;Node2 -->
<g id="edge4" class="edge"><title>Node3&#45;&gt;Node2</title>
<path fill="none" stroke="midnightblue" d="M110.2,-114.964C119.502,-115.743 129.004,-116.458 138,-117 286.2,-125.929 323.819,-132.225 472,-123 504.187,-120.996 512.27,-119.763 544,-114 553.852,-112.21 564.385,-109.907 574.24,-107.576"/>
<polygon fill="midnightblue" stroke="midnightblue" points="110.484,-111.476 100.219,-114.098 109.879,-118.449 110.484,-111.476"/>
</g>
<!-- Node8 -->
<g id="node14" class="node"><title>Node8</title>
<a xlink:href="structant_1_1vec3.html" target="_top" xlink:title="ant::vec3">
<polygon fill="white" stroke="black" points="170.5,-23.5 170.5,-44.5 227.5,-44.5 227.5,-23.5 170.5,-23.5"/>
<text text-anchor="middle" x="199" y="-31.5" font-family="Helvetica,sans-Serif" font-size="10.00">ant::vec3</text>
</a>
</g>
<!-- Node3&#45;&gt;Node8 -->
<g id="edge16" class="edge"><title>Node3&#45;&gt;Node8</title>
<path fill="none" stroke="midnightblue" d="M80.3163,-93.7401C109.421,-79.0902 152.611,-57.3501 178.075,-44.5327"/>
<polygon fill="midnightblue" stroke="midnightblue" points="78.3906,-90.791 71.032,-98.4134 81.538,-97.0435 78.3906,-90.791"/>
</g>
<!-- Node4 -->
<g id="node6" class="node"><title>Node4</title>
<polygon fill="white" stroke="#bfbfbf" points="341.5,-80 341.5,-114 470.5,-114 470.5,-80 341.5,-80"/>
<text text-anchor="start" x="349.5" y="-101" font-family="Helvetica,sans-Serif" font-size="10.00">std::vector&lt; ant::TCluster</text>
<text text-anchor="middle" x="406" y="-88" font-family="Helvetica,sans-Serif" font-size="10.00">Hit::Datum &gt;</text>
</g>
<!-- Node4&#45;&gt;Node2 -->
<g id="edge6" class="edge"><title>Node4&#45;&gt;Node2</title>
<path fill="none" stroke="#9a32cd" stroke-dasharray="5,2" d="M480.88,-97C511.37,-97 545.527,-97 571.74,-97"/>
<polygon fill="#9a32cd" stroke="#9a32cd" points="480.698,-93.5001 470.698,-97 480.698,-100.5 480.698,-93.5001"/>
<text text-anchor="middle" x="517" y="-101" font-family="Helvetica,sans-Serif" font-size="10.00"> Data</text>
</g>
<!-- Node5 -->
<g id="node8" class="node"><title>Node5</title>
<a xlink:href="structant_1_1_t_cluster_hit_1_1_datum.html" target="_top" xlink:title="ant::TClusterHit::Datum">
<polygon fill="white" stroke="black" points="138,-86.5 138,-107.5 260,-107.5 260,-86.5 138,-86.5"/>
<text text-anchor="middle" x="199" y="-94.5" font-family="Helvetica,sans-Serif" font-size="10.00">ant::TClusterHit::Datum</text>
</a>
</g>
<!-- Node5&#45;&gt;Node4 -->
<g id="edge8" class="edge"><title>Node5&#45;&gt;Node4</title>
<path fill="none" stroke="#9a32cd" stroke-dasharray="5,2" d="M270.322,-97C293.359,-97 318.758,-97 341.29,-97"/>
<polygon fill="#9a32cd" stroke="#9a32cd" points="270.267,-93.5001 260.267,-97 270.267,-100.5 270.267,-93.5001"/>
<text text-anchor="middle" x="300" y="-101" font-family="Helvetica,sans-Serif" font-size="10.00"> elements</text>
</g>
<!-- Node6 -->
<g id="node10" class="node"><title>Node6</title>
<a xlink:href="structant_1_1_cluster_detector__t_1_1_element__t.html" target="_top" xlink:title="ant::ClusterDetector\l_t::Element_t">
<polygon fill="white" stroke="black" points="562.5,-34 562.5,-68 667.5,-68 667.5,-34 562.5,-34"/>
<text text-anchor="start" x="570.5" y="-55" font-family="Helvetica,sans-Serif" font-size="10.00">ant::ClusterDetector</text>
<text text-anchor="middle" x="615" y="-42" font-family="Helvetica,sans-Serif" font-size="10.00">_t::Element_t</text>
</a>
</g>
<!-- Node6&#45;&gt;Node1 -->
<g id="edge10" class="edge"><title>Node6&#45;&gt;Node1</title>
<path fill="none" stroke="#9a32cd" stroke-dasharray="5,2" d="M677.722,-58.6802C698.954,-61.28 722.735,-64.1921 744.267,-66.8286"/>
<polygon fill="#9a32cd" stroke="#9a32cd" points="677.876,-55.173 667.524,-57.4316 677.025,-62.1211 677.876,-55.173"/>
<text text-anchor="middle" x="706" y="-68" font-family="Helvetica,sans-Serif" font-size="10.00"> Element</text>
</g>
<!-- Node7 -->
<g id="node12" class="node"><title>Node7</title>
<a xlink:href="structant_1_1_detector__t_1_1_element__t.html" target="_top" xlink:title="ant::Detector_t::Element_t">
<polygon fill="white" stroke="black" points="340,-0.5 340,-21.5 472,-21.5 472,-0.5 340,-0.5"/>
<text text-anchor="middle" x="406" y="-8.5" font-family="Helvetica,sans-Serif" font-size="10.00">ant::Detector_t::Element_t</text>
</a>
</g>
<!-- Node7&#45;&gt;Node6 -->
<g id="edge12" class="edge"><title>Node7&#45;&gt;Node6</title>
<path fill="none" stroke="midnightblue" d="M471.063,-23.4523C500.386,-29.0644 534.565,-35.6057 562.256,-40.9055"/>
<polygon fill="midnightblue" stroke="midnightblue" points="471.392,-19.9518 460.912,-21.5095 470.076,-26.827 471.392,-19.9518"/>
</g>
<!-- Node8&#45;&gt;Node7 -->
<g id="edge14" class="edge"><title>Node8&#45;&gt;Node7</title>
<path fill="none" stroke="#9a32cd" stroke-dasharray="5,2" d="M237.825,-29.6862C266.528,-26.4969 306.306,-22.0771 339.97,-18.3366"/>
<polygon fill="#9a32cd" stroke="#9a32cd" points="237.335,-26.219 227.782,-30.8019 238.108,-33.1761 237.335,-26.219"/>
<text text-anchor="middle" x="300" y="-29" font-family="Helvetica,sans-Serif" font-size="10.00"> Position</text>
</g>
<!-- Node9 -->
<g id="node17" class="node"><title>Node9</title>
<polygon fill="white" stroke="#bfbfbf" points="346,-40.5 346,-61.5 466,-61.5 466,-40.5 346,-40.5"/>
<text text-anchor="middle" x="406" y="-48.5" font-family="Helvetica,sans-Serif" font-size="10.00">std::vector&lt; unsigned &gt;</text>
</g>
<!-- Node9&#45;&gt;Node6 -->
<g id="edge18" class="edge"><title>Node9&#45;&gt;Node6</title>
<path fill="none" stroke="#9a32cd" stroke-dasharray="5,2" d="M476.345,-51C504.464,-51 536.289,-51 562.351,-51"/>
<polygon fill="#9a32cd" stroke="#9a32cd" points="476.171,-47.5001 466.171,-51 476.171,-54.5001 476.171,-47.5001"/>
<text text-anchor="middle" x="517" y="-55" font-family="Helvetica,sans-Serif" font-size="10.00"> Neighbours</text>
</g>
</g>
</svg>
