<?xml version="1.0" encoding="UTF-8" standalone="no"?>
<!DOCTYPE svg PUBLIC "-//W3C//DTD SVG 1.1//EN"
 "http://www.w3.org/Graphics/SVG/1.1/DTD/svg11.dtd">
<!-- Generated by graphviz version 2.26.3 (20100126.1600)
 -->
<!-- Title: ant::analysis::plot::cuttree::Node_t&lt; Hist_t &gt; Pages: 1 -->
<svg width="844pt" height="294pt"
 viewBox="0.00 0.00 844.00 294.00" xmlns="http://www.w3.org/2000/svg" xmlns:xlink="http://www.w3.org/1999/xlink">
<g id="graph1" class="graph" transform="scale(1 1) rotate(0) translate(4 290)">
<title>ant::analysis::plot::cuttree::Node_t&lt; Hist_t &gt;</title>
<polygon fill="white" stroke="white" points="-4,5 -4,-290 841,-290 841,5 -4,5"/>
<!-- Node1 -->
<g id="node1" class="node"><title>Node1</title>
<polygon fill="#bfbfbf" stroke="black" points="702,-25 702,-59 836,-59 836,-25 702,-25"/>
<text text-anchor="start" x="710" y="-46" font-family="Helvetica,sans-Serif" font-size="10.00">ant::analysis::plot</text>
<text text-anchor="middle" x="769" y="-33" font-family="Helvetica,sans-Serif" font-size="10.00">::cuttree::Node_t&lt; Hist_t &gt;</text>
</g>
<!-- Node2 -->
<g id="node2" class="node"><title>Node2</title>
<a xlink:href="struct_hist__t.html" target="_top" xlink:title="Hist_t\&lt; Tree_t \&gt;">
<polygon fill="white" stroke="black" points="554.5,-75.5 554.5,-96.5 643.5,-96.5 643.5,-75.5 554.5,-75.5"/>
<text text-anchor="middle" x="599" y="-83.5" font-family="Helvetica,sans-Serif" font-size="10.00">Hist_t&lt; Tree_t &gt;</text>
</a>
</g>
<!-- Node2&#45;&gt;Node1 -->
<g id="edge2" class="edge"><title>Node2&#45;&gt;Node1</title>
<path fill="none" stroke="#9a32cd" stroke-dasharray="5,2" d="M649.827,-72.8449C666.546,-68.5175 685.381,-63.6424 703.058,-59.0674"/>
<polygon fill="#9a32cd" stroke="#9a32cd" points="648.523,-69.5668 639.719,-75.4609 650.277,-76.3435 648.523,-69.5668"/>
<text text-anchor="middle" x="673" y="-74" font-family="Helvetica,sans-Serif" font-size="10.00"> Hist</text>
</g>
<!-- Node3 -->
<g id="node4" class="node"><title>Node3</title>
<a xlink:href="struct_hist__t_1_1_hist_mgr.html" target="_top" xlink:title="Hist_t\&lt; Tree_t \&gt;::HistMgr\l\&lt; TH1D \&gt;">
<polygon fill="white" stroke="black" points="332.5,-53 332.5,-87 461.5,-87 461.5,-53 332.5,-53"/>
<text text-anchor="start" x="340.5" y="-74" font-family="Helvetica,sans-Serif" font-size="10.00">Hist_t&lt; Tree_t &gt;::HistMgr</text>
<text text-anchor="middle" x="397" y="-61" font-family="Helvetica,sans-Serif" font-size="10.00">&lt; TH1D &gt;</text>
</a>
</g>
<!-- Node3&#45;&gt;Node2 -->
<g id="edge4" class="edge"><title>Node3&#45;&gt;Node2</title>
<path fill="none" stroke="#9a32cd" stroke-dasharray="5,2" d="M471.831,-75.9272C499.593,-78.1262 530.189,-80.5496 554.411,-82.4682"/>
<polygon fill="#9a32cd" stroke="#9a32cd" points="471.993,-72.4291 461.748,-75.1285 471.44,-79.4073 471.993,-72.4291"/>
<text text-anchor="middle" x="508" y="-84" font-family="Helvetica,sans-Serif" font-size="10.00"> h1</text>
</g>
<!-- Node4 -->
<g id="node6" class="node"><title>Node4</title>
<a xlink:title="STL class. ">
<polygon fill="white" stroke="#bfbfbf" points="188.5,-53 188.5,-87 285.5,-87 285.5,-53 188.5,-53"/>
<text text-anchor="start" x="196.5" y="-74" font-family="Helvetica,sans-Serif" font-size="10.00">std::list&lt; HistFiller</text>
<text text-anchor="middle" x="237" y="-61" font-family="Helvetica,sans-Serif" font-size="10.00">_t&lt; TH1D &gt; &gt;</text>
</a>
</g>
<!-- Node4&#45;&gt;Node3 -->
<g id="edge6" class="edge"><title>Node4&#45;&gt;Node3</title>
<path fill="none" stroke="midnightblue" d="M296.096,-63.4591C307.953,-63.2168 320.469,-63.1851 332.498,-63.3639"/>
<polygon fill="midnightblue" stroke="midnightblue" points="295.78,-59.9661 285.875,-63.7263 295.963,-66.9637 295.78,-59.9661"/>
</g>
<!-- Node4&#45;&gt;Node3 -->
<g id="edge10" class="edge"><title>Node4&#45;&gt;Node3</title>
<path fill="none" stroke="midnightblue" d="M296.096,-76.5409C307.953,-76.7832 320.469,-76.8149 332.498,-76.6361"/>
<polygon fill="midnightblue" stroke="midnightblue" points="295.963,-73.0363 285.875,-76.2737 295.78,-80.0339 295.963,-73.0363"/>
</g>
<!-- Node5 -->
<g id="node8" class="node"><title>Node5</title>
<polygon fill="white" stroke="#bfbfbf" points="35.5,-89.5 35.5,-110.5 64.5,-110.5 64.5,-89.5 35.5,-89.5"/>
<text text-anchor="middle" x="50" y="-97.5" font-family="Helvetica,sans-Serif" font-size="10.00">T</text>
</g>
<!-- Node5&#45;&gt;Node4 -->
<g id="edge8" class="edge"><title>Node5&#45;&gt;Node4</title>
<path fill="none" stroke="#9a32cd" stroke-dasharray="5,2" d="M74.6826,-96.0402C103.457,-91.424 151.715,-83.6821 188.15,-77.8368"/>
<polygon fill="#9a32cd" stroke="#9a32cd" points="73.9929,-92.606 64.6736,-97.646 75.1018,-99.5177 73.9929,-92.606"/>
<text text-anchor="middle" x="140" y="-92" font-family="Helvetica,sans-Serif" font-size="10.00"> elements</text>
</g>
<!-- Node7 -->
<g id="node13" class="node"><title>Node7</title>
<a xlink:title="STL class. ">
<polygon fill="white" stroke="#bfbfbf" points="188.5,-105 188.5,-139 285.5,-139 285.5,-105 188.5,-105"/>
<text text-anchor="start" x="196.5" y="-126" font-family="Helvetica,sans-Serif" font-size="10.00">std::list&lt; HistFiller</text>
<text text-anchor="middle" x="237" y="-113" font-family="Helvetica,sans-Serif" font-size="10.00">_t&lt; TH2D &gt; &gt;</text>
</a>
</g>
<!-- Node5&#45;&gt;Node7 -->
<g id="edge16" class="edge"><title>Node5&#45;&gt;Node7</title>
<path fill="none" stroke="#9a32cd" stroke-dasharray="5,2" d="M74.6826,-102.904C103.457,-106.289 151.715,-111.966 188.15,-116.253"/>
<polygon fill="#9a32cd" stroke="#9a32cd" points="75.0141,-99.4188 64.6736,-101.726 74.1961,-106.371 75.0141,-99.4188"/>
<text text-anchor="middle" x="140" y="-116" font-family="Helvetica,sans-Serif" font-size="10.00"> elements</text>
</g>
<!-- Node6 -->
<g id="node11" class="node"><title>Node6</title>
<a xlink:href="struct_hist__t_1_1_hist_mgr.html" target="_top" xlink:title="Hist_t\&lt; Tree_t \&gt;::HistMgr\l\&lt; TH2D \&gt;">
<polygon fill="white" stroke="black" points="332.5,-105 332.5,-139 461.5,-139 461.5,-105 332.5,-105"/>
<text text-anchor="start" x="340.5" y="-126" font-family="Helvetica,sans-Serif" font-size="10.00">Hist_t&lt; Tree_t &gt;::HistMgr</text>
<text text-anchor="middle" x="397" y="-113" font-family="Helvetica,sans-Serif" font-size="10.00">&lt; TH2D &gt;</text>
</a>
</g>
<!-- Node6&#45;&gt;Node2 -->
<g id="edge12" class="edge"><title>Node6&#45;&gt;Node2</title>
<path fill="none" stroke="#9a32cd" stroke-dasharray="5,2" d="M471.831,-108.664C499.593,-103.716 530.189,-98.2634 554.411,-93.9465"/>
<polygon fill="#9a32cd" stroke="#9a32cd" points="470.978,-105.261 461.748,-110.461 472.207,-112.152 470.978,-105.261"/>
<text text-anchor="middle" x="508" y="-110" font-family="Helvetica,sans-Serif" font-size="10.00"> h2</text>
</g>
<!-- Node7&#45;&gt;Node6 -->
<g id="edge14" class="edge"><title>Node7&#45;&gt;Node6</title>
<path fill="none" stroke="midnightblue" d="M296.096,-115.459C307.953,-115.217 320.469,-115.185 332.498,-115.364"/>
<polygon fill="midnightblue" stroke="midnightblue" points="295.78,-111.966 285.875,-115.726 295.963,-118.964 295.78,-111.966"/>
</g>
<!-- Node7&#45;&gt;Node6 -->
<g id="edge18" class="edge"><title>Node7&#45;&gt;Node6</title>
<path fill="none" stroke="midnightblue" d="M296.096,-128.541C307.953,-128.783 320.469,-128.815 332.498,-128.636"/>
<polygon fill="midnightblue" stroke="midnightblue" points="295.963,-125.036 285.875,-128.274 295.78,-132.034 295.963,-125.036"/>
</g>
<!-- Node8 -->
<g id="node17" class="node"><title>Node8</title>
<a xlink:href="classant_1_1analysis_1_1_histogram_factory.html" target="_top" xlink:title="ant::analysis::Histogram\lFactory">
<polygon fill="white" stroke="black" points="335.5,-0 335.5,-34 458.5,-34 458.5,-0 335.5,-0"/>
<text text-anchor="start" x="343.5" y="-21" font-family="Helvetica,sans-Serif" font-size="10.00">ant::analysis::Histogram</text>
<text text-anchor="middle" x="397" y="-8" font-family="Helvetica,sans-Serif" font-size="10.00">Factory</text>
</a>
</g>
<!-- Node8&#45;&gt;Node1 -->
<g id="edge28" class="edge"><title>Node8&#45;&gt;Node1</title>
<path fill="none" stroke="#9a32cd" stroke-dasharray="5,2" d="M468.957,-21.8358C536.338,-26.3641 636.238,-33.0778 701.973,-37.4955"/>
<polygon fill="#9a32cd" stroke="#9a32cd" points="469.058,-18.3348 458.846,-21.1563 468.589,-25.3191 469.058,-18.3348"/>
<text text-anchor="middle" x="599" y="-38" font-family="Helvetica,sans-Serif" font-size="10.00"> HistFac</text>
</g>
<!-- Node8&#45;&gt;Node2 -->
<g id="edge20" class="edge"><title>Node8&#45;&gt;Node2</title>
<path fill="none" stroke="#9a32cd" stroke-dasharray="5,2" d="M466.028,-36.9923C488.487,-43.8587 513.435,-51.8725 536,-60 549.025,-64.6912 563.303,-70.5252 574.969,-75.4774"/>
<polygon fill="#9a32cd" stroke="#9a32cd" points="466.822,-33.5758 456.237,-34.0227 464.79,-40.2745 466.822,-33.5758"/>
<text text-anchor="middle" x="508" y="-64" font-family="Helvetica,sans-Serif" font-size="10.00"> HistFac</text>
</g>
<!-- Node9 -->
<g id="node19" class="node"><title>Node9</title>
<a xlink:href="classant_1_1_bin_settings.html" target="_top" xlink:title="ant::BinSettings">
<polygon fill="white" stroke="black" points="354,-157.5 354,-178.5 440,-178.5 440,-157.5 354,-157.5"/>
<text text-anchor="middle" x="397" y="-165.5" font-family="Helvetica,sans-Serif" font-size="10.00">ant::BinSettings</text>
</a>
</g>
<!-- Node9&#45;&gt;Node2 -->
<g id="edge22" class="edge"><title>Node9&#45;&gt;Node2</title>
<path fill="none" stroke="#9a32cd" stroke-dasharray="5,2" d="M447.714,-154.641C474.526,-146.822 507.664,-135.941 536,-123 552.73,-115.359 570.72,-104.504 583.174,-96.5267"/>
<polygon fill="#9a32cd" stroke="#9a32cd" points="446.423,-151.37 437.771,-157.486 448.348,-158.1 446.423,-151.37"/>
<text text-anchor="middle" x="508" y="-277" font-family="Helvetica,sans-Serif" font-size="10.00"> vetoEbins</text>
<text text-anchor="middle" x="508" y="-264" font-family="Helvetica,sans-Serif" font-size="10.00">TaggTime</text>
<text text-anchor="middle" x="508" y="-251" font-family="Helvetica,sans-Serif" font-size="10.00">pEbins</text>
<text text-anchor="middle" x="508" y="-238" font-family="Helvetica,sans-Serif" font-size="10.00">Chi2Bins</text>
<text text-anchor="middle" x="508" y="-225" font-family="Helvetica,sans-Serif" font-size="10.00">pThetaBins</text>
<text text-anchor="middle" x="508" y="-212" font-family="Helvetica,sans-Serif" font-size="10.00">CoplBins</text>
<text text-anchor="middle" x="508" y="-199" font-family="Helvetica,sans-Serif" font-size="10.00">MMbins</text>
<text text-anchor="middle" x="508" y="-186" font-family="Helvetica,sans-Serif" font-size="10.00">zVertex</text>
<text text-anchor="middle" x="508" y="-173" font-family="Helvetica,sans-Serif" font-size="10.00">TaggChBins</text>
<text text-anchor="middle" x="508" y="-160" font-family="Helvetica,sans-Serif" font-size="10.00">PSARBins</text>
<text text-anchor="middle" x="508" y="-147" font-family="Helvetica,sans-Serif" font-size="10.00">...</text>
</g>
<!-- Node10 -->
<g id="node21" class="node"><title>Node10</title>
<a xlink:href="classant_1_1interval.html" target="_top" xlink:title="ant::interval\&lt; double \&gt;">
<polygon fill="white" stroke="black" points="180,-157.5 180,-178.5 294,-178.5 294,-157.5 180,-157.5"/>
<text text-anchor="middle" x="237" y="-165.5" font-family="Helvetica,sans-Serif" font-size="10.00">ant::interval&lt; double &gt;</text>
</a>
</g>
<!-- Node10&#45;&gt;Node9 -->
<g id="edge24" class="edge"><title>Node10&#45;&gt;Node9</title>
<path fill="none" stroke="midnightblue" d="M304.587,-168C321.285,-168 338.724,-168 353.895,-168"/>
<polygon fill="midnightblue" stroke="midnightblue" points="304.312,-164.5 294.312,-168 304.312,-171.5 304.312,-164.5"/>
</g>
<!-- Node11 -->
<g id="node23" class="node"><title>Node11</title>
<a xlink:href="classant_1_1printable__traits.html" target="_top" xlink:title="ant::printable_traits">
<polygon fill="white" stroke="black" points="0,-157.5 0,-178.5 100,-178.5 100,-157.5 0,-157.5"/>
<text text-anchor="middle" x="50" y="-165.5" font-family="Helvetica,sans-Serif" font-size="10.00">ant::printable_traits</text>
</a>
</g>
<!-- Node11&#45;&gt;Node10 -->
<g id="edge26" class="edge"><title>Node11&#45;&gt;Node10</title>
<path fill="none" stroke="midnightblue" d="M110.147,-168C132.482,-168 157.74,-168 179.804,-168"/>
<polygon fill="midnightblue" stroke="midnightblue" points="110.113,-164.5 100.113,-168 110.113,-171.5 110.113,-164.5"/>
</g>
</g>
</svg>
