<?xml version="1.0" encoding="UTF-8" standalone="no"?>
<!DOCTYPE svg PUBLIC "-//W3C//DTD SVG 1.1//EN"
 "http://www.w3.org/Graphics/SVG/1.1/DTD/svg11.dtd">
<!-- Generated by graphviz version 2.26.3 (20100126.1600)
 -->
<!-- Title: ant::expconfig::detector::Tagger Pages: 1 -->
<svg width="896pt" height="167pt"
 viewBox="0.00 0.00 896.00 167.00" xmlns="http://www.w3.org/2000/svg" xmlns:xlink="http://www.w3.org/1999/xlink">
<g id="graph1" class="graph" transform="scale(1 1) rotate(0) translate(4 163)">
<title>ant::expconfig::detector::Tagger</title>
<polygon fill="white" stroke="white" points="-4,5 -4,-163 893,-163 893,5 -4,5"/>
<!-- Node1 -->
<g id="node1" class="node"><title>Node1</title>
<polygon fill="#bfbfbf" stroke="black" points="768.5,-74 768.5,-108 887.5,-108 887.5,-74 768.5,-74"/>
<text text-anchor="start" x="776.5" y="-95" font-family="Helvetica,sans-Serif" font-size="10.00">ant::expconfig::detector</text>
<text text-anchor="middle" x="828" y="-82" font-family="Helvetica,sans-Serif" font-size="10.00">::Tagger</text>
</g>
<!-- Node2 -->
<g id="node2" class="node"><title>Node2</title>
<a xlink:href="structant_1_1_tagger_detector__t.html" target="_top" xlink:title="ant::TaggerDetector_t">
<polygon fill="white" stroke="black" points="541,-137.5 541,-158.5 653,-158.5 653,-137.5 541,-137.5"/>
<text text-anchor="middle" x="597" y="-145.5" font-family="Helvetica,sans-Serif" font-size="10.00">ant::TaggerDetector_t</text>
</a>
</g>
<!-- Node2&#45;&gt;Node1 -->
<g id="edge2" class="edge"><title>Node2&#45;&gt;Node1</title>
<path fill="none" stroke="midnightblue" d="M653.553,-135.147C682.459,-128.462 718.165,-120.028 750,-112 755.983,-110.491 762.214,-108.88 768.43,-107.248"/>
<polygon fill="midnightblue" stroke="midnightblue" points="652.587,-131.778 643.629,-137.435 654.16,-138.599 652.587,-131.778"/>
</g>
<!-- Node3 -->
<g id="node4" class="node"><title>Node3</title>
<a xlink:href="structant_1_1_detector__t.html" target="_top" xlink:title="The Detector_t struct is the minimal base class for all detectors. ">
<polygon fill="white" stroke="black" points="339,-137.5 339,-158.5 421,-158.5 421,-137.5 339,-137.5"/>
<text text-anchor="middle" x="380" y="-145.5" font-family="Helvetica,sans-Serif" font-size="10.00">ant::Detector_t</text>
</a>
</g>
<!-- Node3&#45;&gt;Node2 -->
<g id="edge4" class="edge"><title>Node3&#45;&gt;Node2</title>
<path fill="none" stroke="midnightblue" d="M431.399,-148C464.347,-148 507.118,-148 540.939,-148"/>
<polygon fill="midnightblue" stroke="midnightblue" points="431.071,-144.5 421.071,-148 431.071,-151.5 431.071,-144.5"/>
</g>
<!-- Node4 -->
<g id="node6" class="node"><title>Node4</title>
<a xlink:href="classant_1_1printable__traits.html" target="_top" xlink:title="ant::printable_traits">
<polygon fill="white" stroke="black" points="180,-137.5 180,-158.5 280,-158.5 280,-137.5 180,-137.5"/>
<text text-anchor="middle" x="230" y="-145.5" font-family="Helvetica,sans-Serif" font-size="10.00">ant::printable_traits</text>
</a>
</g>
<!-- Node4&#45;&gt;Node3 -->
<g id="edge6" class="edge"><title>Node4&#45;&gt;Node3</title>
<path fill="none" stroke="midnightblue" d="M290.378,-148C306.706,-148 323.995,-148 338.987,-148"/>
<polygon fill="midnightblue" stroke="midnightblue" points="290.365,-144.5 280.365,-148 290.365,-151.5 290.365,-144.5"/>
</g>
<!-- Node5 -->
<g id="node8" class="node"><title>Node5</title>
<a xlink:href="classant_1_1_unpacker_acqu_config.html" target="_top" xlink:title="ant::UnpackerAcquConfig">
<polygon fill="white" stroke="black" points="532.5,-97.5 532.5,-118.5 661.5,-118.5 661.5,-97.5 532.5,-97.5"/>
<text text-anchor="middle" x="597" y="-105.5" font-family="Helvetica,sans-Serif" font-size="10.00">ant::UnpackerAcquConfig</text>
</a>
</g>
<!-- Node5&#45;&gt;Node1 -->
<g id="edge8" class="edge"><title>Node5&#45;&gt;Node1</title>
<path fill="none" stroke="midnightblue" d="M672.024,-102.479C703.156,-100.188 738.78,-97.566 768.116,-95.407"/>
<polygon fill="midnightblue" stroke="midnightblue" points="671.37,-99.0174 661.654,-103.242 671.883,-105.998 671.37,-99.0174"/>
</g>
<!-- Node6 -->
<g id="node10" class="node"><title>Node6</title>
<a xlink:title="STL class. ">
<polygon fill="white" stroke="#bfbfbf" points="567,-57.5 567,-78.5 627,-78.5 627,-57.5 567,-57.5"/>
<text text-anchor="middle" x="597" y="-65.5" font-family="Helvetica,sans-Serif" font-size="10.00">std::string</text>
</a>
</g>
<!-- Node6&#45;&gt;Node1 -->
<g id="edge10" class="edge"><title>Node6&#45;&gt;Node1</title>
<path fill="none" stroke="#9a32cd" stroke-dasharray="5,2" d="M637.625,-70.024C668.505,-71.7797 712.006,-74.7186 750,-79 755.991,-79.675 762.226,-80.4725 768.445,-81.3304"/>
<polygon fill="#9a32cd" stroke="#9a32cd" points="637.435,-66.5084 627.258,-69.4521 637.05,-73.4977 637.435,-66.5084"/>
<text text-anchor="middle" x="721" y="-83" font-family="Helvetica,sans-Serif" font-size="10.00"> ScalerName</text>
</g>
<!-- Node7 -->
<g id="node12" class="node"><title>Node7</title>
<a xlink:title="STL class. ">
<polygon fill="white" stroke="#bfbfbf" points="332.5,-52 332.5,-86 427.5,-86 427.5,-52 332.5,-52"/>
<text text-anchor="start" x="340.5" y="-73" font-family="Helvetica,sans-Serif" font-size="10.00">std::basic_string&lt;</text>
<text text-anchor="middle" x="380" y="-60" font-family="Helvetica,sans-Serif" font-size="10.00"> char &gt;</text>
</a>
</g>
<!-- Node7&#45;&gt;Node6 -->
<g id="edge12" class="edge"><title>Node7&#45;&gt;Node6</title>
<path fill="none" stroke="midnightblue" d="M437.879,-68.7333C479.385,-68.542 533.63,-68.292 566.859,-68.1389"/>
<polygon fill="midnightblue" stroke="midnightblue" points="437.605,-65.2344 427.622,-68.7805 437.638,-72.2343 437.605,-65.2344"/>
</g>
<!-- Node8 -->
<g id="node14" class="node"><title>Node8</title>
<polygon fill="white" stroke="#bfbfbf" points="520.5,-4 520.5,-38 673.5,-38 673.5,-4 520.5,-4"/>
<text text-anchor="start" x="528.5" y="-25" font-family="Helvetica,sans-Serif" font-size="10.00">std::vector&lt; ant::expconfig</text>
<text text-anchor="middle" x="597" y="-12" font-family="Helvetica,sans-Serif" font-size="10.00">::detector::Tagger::Element_t &gt;</text>
</g>
<!-- Node8&#45;&gt;Node1 -->
<g id="edge14" class="edge"><title>Node8&#45;&gt;Node1</title>
<path fill="none" stroke="#9a32cd" stroke-dasharray="5,2" d="M683.641,-37.6977C705.531,-42.7659 728.827,-48.905 750,-56 764.636,-60.9046 780.254,-67.6006 793.639,-73.823"/>
<polygon fill="#9a32cd" stroke="#9a32cd" points="684.222,-34.2405 673.695,-35.4448 682.675,-41.0676 684.222,-34.2405"/>
<text text-anchor="middle" x="721" y="-60" font-family="Helvetica,sans-Serif" font-size="10.00"> elements</text>
</g>
<!-- Node9 -->
<g id="node16" class="node"><title>Node9</title>
<a xlink:href="structant_1_1expconfig_1_1detector_1_1_tagger_1_1_element__t.html" target="_top" xlink:title="ant::expconfig::detector\l::Tagger::Element_t">
<polygon fill="white" stroke="black" points="320.5,-0 320.5,-34 439.5,-34 439.5,-0 320.5,-0"/>
<text text-anchor="start" x="328.5" y="-21" font-family="Helvetica,sans-Serif" font-size="10.00">ant::expconfig::detector</text>
<text text-anchor="middle" x="380" y="-8" font-family="Helvetica,sans-Serif" font-size="10.00">::Tagger::Element_t</text>
</a>
</g>
<!-- Node9&#45;&gt;Node8 -->
<g id="edge16" class="edge"><title>Node9&#45;&gt;Node8</title>
<path fill="none" stroke="#9a32cd" stroke-dasharray="5,2" d="M449.746,-18.2856C472.296,-18.7013 497.416,-19.1644 520.433,-19.5886"/>
<polygon fill="#9a32cd" stroke="#9a32cd" points="449.646,-14.7833 439.583,-18.0983 449.517,-21.7821 449.646,-14.7833"/>
<text text-anchor="middle" x="480" y="-23" font-family="Helvetica,sans-Serif" font-size="10.00"> elements</text>
</g>
<!-- Node10 -->
<g id="node18" class="node"><title>Node10</title>
<a xlink:href="structant_1_1_tagger_detector__t_1_1_element__t.html" target="_top" xlink:title="ant::TaggerDetector\l_t::Element_t">
<polygon fill="white" stroke="black" points="178,-0 178,-34 282,-34 282,-0 178,-0"/>
<text text-anchor="start" x="186" y="-21" font-family="Helvetica,sans-Serif" font-size="10.00">ant::TaggerDetector</text>
<text text-anchor="middle" x="230" y="-8" font-family="Helvetica,sans-Serif" font-size="10.00">_t::Element_t</text>
</a>
</g>
<!-- Node10&#45;&gt;Node9 -->
<g id="edge18" class="edge"><title>Node10&#45;&gt;Node9</title>
<path fill="none" stroke="midnightblue" d="M292.052,-17C301.404,-17 311.033,-17 320.334,-17"/>
<polygon fill="midnightblue" stroke="midnightblue" points="292.042,-13.5001 282.042,-17 292.042,-20.5001 292.042,-13.5001"/>
</g>
<!-- Node11 -->
<g id="node20" class="node"><title>Node11</title>
<a xlink:href="structant_1_1_tagger_detector__t_1_1taggeff__t.html" target="_top" xlink:title="ant::TaggerDetector\l_t::taggeff_t">
<polygon fill="white" stroke="black" points="0,-0 0,-34 104,-34 104,-0 0,-0"/>
<text text-anchor="start" x="8" y="-21" font-family="Helvetica,sans-Serif" font-size="10.00">ant::TaggerDetector</text>
<text text-anchor="middle" x="52" y="-8" font-family="Helvetica,sans-Serif" font-size="10.00">_t::taggeff_t</text>
</a>
</g>
<!-- Node11&#45;&gt;Node10 -->
<g id="edge20" class="edge"><title>Node11&#45;&gt;Node10</title>
<path fill="none" stroke="#9a32cd" stroke-dasharray="5,2" d="M114.719,-17C135.391,-17 158.142,-17 177.932,-17"/>
<polygon fill="#9a32cd" stroke="#9a32cd" points="114.443,-13.5001 104.443,-17 114.443,-20.5001 114.443,-13.5001"/>
<text text-anchor="middle" x="141" y="-21" font-family="Helvetica,sans-Serif" font-size="10.00"> TaggEff</text>
</g>
</g>
</svg>
