<?xml version="1.0" encoding="UTF-8" standalone="no"?>
<!DOCTYPE svg PUBLIC "-//W3C//DTD SVG 1.1//EN"
 "http://www.w3.org/Graphics/SVG/1.1/DTD/svg11.dtd">
<!-- Generated by graphviz version 2.26.3 (20100126.1600)
 -->
<!-- Title: ant::analysis::physics::ProcessTaggEff::TreeScalarReads Pages: 1 -->
<svg width="182pt" height="496pt"
 viewBox="0.00 0.00 182.00 496.00" xmlns="http://www.w3.org/2000/svg" xmlns:xlink="http://www.w3.org/1999/xlink">
<g id="graph1" class="graph" transform="scale(1 1) rotate(0) translate(4 492)">
<title>ant::analysis::physics::ProcessTaggEff::TreeScalarReads</title>
<polygon fill="white" stroke="white" points="-4,5 -4,-492 179,-492 179,5 -4,5"/>
<!-- Node1 -->
<g id="node1" class="node"><title>Node1</title>
<polygon fill="#bfbfbf" stroke="black" points="-0.5,-1 -0.5,-35 174.5,-35 174.5,-1 -0.5,-1"/>
<text text-anchor="start" x="7.5" y="-22" font-family="Helvetica,sans-Serif" font-size="10.00">ant::analysis::physics</text>
<text text-anchor="middle" x="87" y="-9" font-family="Helvetica,sans-Serif" font-size="10.00">::ProcessTaggEff::TreeScalarReads</text>
</g>
<!-- Node2 -->
<g id="node2" class="node"><title>Node2</title>
<a xlink:href="structant_1_1_wrap_t_tree.html" target="_top" xlink:title="The WrapTTree struct simplifies TTree handling in physics classes. ">
<polygon fill="white" stroke="black" points="44.5,-74.5 44.5,-95.5 129.5,-95.5 129.5,-74.5 44.5,-74.5"/>
<text text-anchor="middle" x="87" y="-82.5" font-family="Helvetica,sans-Serif" font-size="10.00">ant::WrapTTree</text>
</a>
</g>
<!-- Node2&#45;&gt;Node1 -->
<g id="edge2" class="edge"><title>Node2&#45;&gt;Node1</title>
<path fill="none" stroke="midnightblue" d="M87,-64.1655C87,-54.7973 87,-43.8796 87,-35.0139"/>
<polygon fill="midnightblue" stroke="midnightblue" points="83.5001,-64.2353 87,-74.2353 90.5001,-64.2353 83.5001,-64.2353"/>
</g>
<!-- Node3 -->
<g id="node4" class="node"><title>Node3</title>
<polygon fill="white" stroke="#bfbfbf" points="17,-147 17,-181 157,-181 157,-147 17,-147"/>
<text text-anchor="start" x="25" y="-168" font-family="Helvetica,sans-Serif" font-size="10.00">std::vector&lt; ant::WrapTTree</text>
<text text-anchor="middle" x="87" y="-155" font-family="Helvetica,sans-Serif" font-size="10.00">::ROOT_branch_t &gt;</text>
</g>
<!-- Node3&#45;&gt;Node2 -->
<g id="edge4" class="edge"><title>Node3&#45;&gt;Node2</title>
<path fill="none" stroke="#9a32cd" stroke-dasharray="5,2" d="M87,-136.623C87,-122.473 87,-106.024 87,-95.5672"/>
<polygon fill="#9a32cd" stroke="#9a32cd" points="83.5001,-136.858 87,-146.858 90.5001,-136.858 83.5001,-136.858"/>
<text text-anchor="middle" x="108.5" y="-118.5" font-family="Helvetica,sans-Serif" font-size="10.00"> branches</text>
</g>
<!-- Node4 -->
<g id="node6" class="node"><title>Node4</title>
<a xlink:href="structant_1_1_wrap_t_tree_1_1_r_o_o_t__branch__t.html" target="_top" xlink:title="ant::WrapTTree::ROOT\l_branch_t">
<polygon fill="white" stroke="black" points="27.5,-233 27.5,-267 146.5,-267 146.5,-233 27.5,-233"/>
<text text-anchor="start" x="35.5" y="-254" font-family="Helvetica,sans-Serif" font-size="10.00">ant::WrapTTree::ROOT</text>
<text text-anchor="middle" x="87" y="-241" font-family="Helvetica,sans-Serif" font-size="10.00">_branch_t</text>
</a>
</g>
<!-- Node4&#45;&gt;Node3 -->
<g id="edge6" class="edge"><title>Node4&#45;&gt;Node3</title>
<path fill="none" stroke="#9a32cd" stroke-dasharray="5,2" d="M87,-222.342C87,-208.774 87,-192.861 87,-181.084"/>
<polygon fill="#9a32cd" stroke="#9a32cd" points="83.5001,-222.597 87,-232.597 90.5001,-222.597 83.5001,-222.597"/>
<text text-anchor="middle" x="108.5" y="-204.5" font-family="Helvetica,sans-Serif" font-size="10.00"> elements</text>
</g>
<!-- Node5 -->
<g id="node8" class="node"><title>Node5</title>
<a xlink:href="structant_1_1_wrap_t_tree_1_1_r_o_o_t__branchinfo__t.html" target="_top" xlink:title="ant::WrapTTree::ROOT\l_branchinfo_t">
<polygon fill="white" stroke="black" points="27.5,-307 27.5,-341 146.5,-341 146.5,-307 27.5,-307"/>
<text text-anchor="start" x="35.5" y="-328" font-family="Helvetica,sans-Serif" font-size="10.00">ant::WrapTTree::ROOT</text>
<text text-anchor="middle" x="87" y="-315" font-family="Helvetica,sans-Serif" font-size="10.00">_branchinfo_t</text>
</a>
</g>
<!-- Node5&#45;&gt;Node4 -->
<g id="edge8" class="edge"><title>Node5&#45;&gt;Node4</title>
<path fill="none" stroke="midnightblue" d="M87,-296.627C87,-286.725 87,-275.834 87,-267.07"/>
<polygon fill="midnightblue" stroke="midnightblue" points="83.5001,-296.837 87,-306.837 90.5001,-296.837 83.5001,-296.837"/>
</g>
<!-- Node6 -->
<g id="node10" class="node"><title>Node6</title>
<a xlink:title="STL class. ">
<polygon fill="white" stroke="#bfbfbf" points="57,-392.5 57,-413.5 117,-413.5 117,-392.5 57,-392.5"/>
<text text-anchor="middle" x="87" y="-400.5" font-family="Helvetica,sans-Serif" font-size="10.00">std::string</text>
</a>
</g>
<!-- Node6&#45;&gt;Node5 -->
<g id="edge10" class="edge"><title>Node6&#45;&gt;Node5</title>
<path fill="none" stroke="#9a32cd" stroke-dasharray="5,2" d="M87,-382.162C87,-369.363 87,-353.171 87,-341.124"/>
<polygon fill="#9a32cd" stroke="#9a32cd" points="83.5001,-382.346 87,-392.346 90.5001,-382.346 83.5001,-382.346"/>
<text text-anchor="middle" x="102" y="-364.5" font-family="Helvetica,sans-Serif" font-size="10.00"> Name</text>
</g>
<!-- Node7 -->
<g id="node12" class="node"><title>Node7</title>
<a xlink:title="STL class. ">
<polygon fill="white" stroke="#bfbfbf" points="39.5,-453 39.5,-487 134.5,-487 134.5,-453 39.5,-453"/>
<text text-anchor="start" x="47.5" y="-474" font-family="Helvetica,sans-Serif" font-size="10.00">std::basic_string&lt;</text>
<text text-anchor="middle" x="87" y="-461" font-family="Helvetica,sans-Serif" font-size="10.00"> char &gt;</text>
</a>
</g>
<!-- Node7&#45;&gt;Node6 -->
<g id="edge12" class="edge"><title>Node7&#45;&gt;Node6</title>
<path fill="none" stroke="midnightblue" d="M87,-442.534C87,-432.306 87,-421.301 87,-413.506"/>
<polygon fill="midnightblue" stroke="midnightblue" points="83.5001,-442.746 87,-452.746 90.5001,-442.746 83.5001,-442.746"/>
</g>
</g>
</svg>
