<?xml version="1.0" encoding="UTF-8" standalone="no"?>
<!DOCTYPE svg PUBLIC "-//W3C//DTD SVG 1.1//EN"
 "http://www.w3.org/Graphics/SVG/1.1/DTD/svg11.dtd">
<!-- Generated by graphviz version 2.26.3 (20100126.1600)
 -->
<!-- Title: ant::analysis::input::event_t Pages: 1 -->
<svg width="2362pt" height="903pt"
 viewBox="0.00 0.00 2362.00 903.00" xmlns="http://www.w3.org/2000/svg" xmlns:xlink="http://www.w3.org/1999/xlink">
<g id="graph1" class="graph" transform="scale(1 1) rotate(0) translate(4 899)">
<title>ant::analysis::input::event_t</title>
<polygon fill="white" stroke="white" points="-4,5 -4,-899 2359,-899 2359,5 -4,5"/>
<!-- Node1 -->
<g id="node1" class="node"><title>Node1</title>
<polygon fill="#bfbfbf" stroke="black" points="2254.5,-837 2254.5,-871 2353.5,-871 2353.5,-837 2254.5,-837"/>
<text text-anchor="start" x="2262.5" y="-858" font-family="Helvetica,sans-Serif" font-size="10.00">ant::analysis::input</text>
<text text-anchor="middle" x="2304" y="-845" font-family="Helvetica,sans-Serif" font-size="10.00">::event_t</text>
</g>
<!-- Node2 -->
<g id="node2" class="node"><title>Node2</title>
<a xlink:href="structant_1_1_t_event.html" target="_top" xlink:title="ant::TEvent">
<polygon fill="white" stroke="black" points="2148,-843.5 2148,-864.5 2216,-864.5 2216,-843.5 2148,-843.5"/>
<text text-anchor="middle" x="2182" y="-851.5" font-family="Helvetica,sans-Serif" font-size="10.00">ant::TEvent</text>
</a>
</g>
<!-- Node2&#45;&gt;Node1 -->
<g id="edge2" class="edge"><title>Node2&#45;&gt;Node1</title>
<path fill="none" stroke="midnightblue" d="M2226.35,-854C2235.49,-854 2245.16,-854 2254.47,-854"/>
<polygon fill="midnightblue" stroke="midnightblue" points="2226.31,-850.5 2216.31,-854 2226.31,-857.5 2226.31,-850.5"/>
</g>
<!-- Node3 -->
<g id="node4" class="node"><title>Node3</title>
<a xlink:href="classant_1_1printable__traits.html" target="_top" xlink:title="ant::printable_traits">
<polygon fill="white" stroke="black" points="149,-530.5 149,-551.5 249,-551.5 249,-530.5 149,-530.5"/>
<text text-anchor="middle" x="199" y="-538.5" font-family="Helvetica,sans-Serif" font-size="10.00">ant::printable_traits</text>
</a>
</g>
<!-- Node3&#45;&gt;Node2 -->
<g id="edge4" class="edge"><title>Node3&#45;&gt;Node2</title>
<path fill="none" stroke="midnightblue" d="M201.014,-561.803C206.461,-608.507 225.134,-723.43 282,-798 329.69,-860.537 351.353,-895 430,-895 430,-895 430,-895 1996,-895 2052.54,-895 2116.54,-876.707 2152.8,-864.559"/>
<polygon fill="midnightblue" stroke="midnightblue" points="204.476,-561.268 199.922,-551.702 197.517,-562.021 204.476,-561.268"/>
</g>
<!-- Node5 -->
<g id="node8" class="node"><title>Node5</title>
<a xlink:href="structant_1_1_t_event_data.html" target="_top" xlink:title="ant::TEventData">
<polygon fill="white" stroke="black" points="1802.5,-522.5 1802.5,-543.5 1891.5,-543.5 1891.5,-522.5 1802.5,-522.5"/>
<text text-anchor="middle" x="1847" y="-530.5" font-family="Helvetica,sans-Serif" font-size="10.00">ant::TEventData</text>
</a>
</g>
<!-- Node3&#45;&gt;Node5 -->
<g id="edge10" class="edge"><title>Node3&#45;&gt;Node5</title>
<path fill="none" stroke="midnightblue" d="M203.21,-520.241C211.852,-482.315 234.875,-401.128 282,-351 309.366,-321.89 323.396,-320.294 362,-310 560.626,-257.036 618.434,-288 824,-288 824,-288 824,-288 1637,-288 1762.49,-288 1829.15,-475.578 1843.86,-522.473"/>
<polygon fill="midnightblue" stroke="midnightblue" points="199.763,-519.621 201.061,-530.136 206.603,-521.106 199.763,-519.621"/>
</g>
<!-- Node15 -->
<g id="node31" class="node"><title>Node15</title>
<a xlink:href="structant_1_1_t_detector_read_hit.html" target="_top" xlink:title="ant::TDetectorReadHit">
<polygon fill="white" stroke="black" points="372,-76.5 372,-97.5 488,-97.5 488,-76.5 372,-76.5"/>
<text text-anchor="middle" x="430" y="-84.5" font-family="Helvetica,sans-Serif" font-size="10.00">ant::TDetectorReadHit</text>
</a>
</g>
<!-- Node3&#45;&gt;Node15 -->
<g id="edge36" class="edge"><title>Node3&#45;&gt;Node15</title>
<path fill="none" stroke="midnightblue" d="M204.045,-520.669C220.725,-453.664 273.516,-243.34 282,-231 301.289,-202.942 318.895,-209.001 344,-186 375.895,-156.778 407.818,-116.399 422.159,-97.5209"/>
<polygon fill="midnightblue" stroke="midnightblue" points="200.625,-519.919 201.609,-530.468 207.419,-521.608 200.625,-519.919"/>
</g>
<!-- Node20 -->
<g id="node42" class="node"><title>Node20</title>
<a xlink:href="structant_1_1_t_unpacker_message.html" target="_top" xlink:title="ant::TUnpackerMessage">
<polygon fill="white" stroke="black" points="368,-179.5 368,-200.5 492,-200.5 492,-179.5 368,-179.5"/>
<text text-anchor="middle" x="430" y="-187.5" font-family="Helvetica,sans-Serif" font-size="10.00">ant::TUnpackerMessage</text>
</a>
</g>
<!-- Node3&#45;&gt;Node20 -->
<g id="edge48" class="edge"><title>Node3&#45;&gt;Node20</title>
<path fill="none" stroke="midnightblue" d="M201.217,-520.318C207.046,-474.392 226.396,-362.189 282,-289 314.727,-245.924 371.87,-215.478 404.755,-200.524"/>
<polygon fill="midnightblue" stroke="midnightblue" points="197.739,-519.926 200.037,-530.268 204.69,-520.749 197.739,-519.926"/>
</g>
<!-- Node24 -->
<g id="node52" class="node"><title>Node24</title>
<a xlink:href="structant_1_1_t_tagger_hit.html" target="_top" xlink:title="ant::TTaggerHit">
<polygon fill="white" stroke="black" points="1265.5,-661.5 1265.5,-682.5 1350.5,-682.5 1350.5,-661.5 1265.5,-661.5"/>
<text text-anchor="middle" x="1308" y="-669.5" font-family="Helvetica,sans-Serif" font-size="10.00">ant::TTaggerHit</text>
</a>
</g>
<!-- Node3&#45;&gt;Node24 -->
<g id="edge60" class="edge"><title>Node3&#45;&gt;Node24</title>
<path fill="none" stroke="midnightblue" d="M203.077,-561.696C211.32,-597.897 233.475,-672.604 282,-712 310.453,-735.101 325.625,-727.522 362,-732 506.685,-749.812 662.228,-724.4 1072,-698 1142.25,-693.474 1160.2,-696.108 1230,-687 1241.49,-685.501 1253.83,-683.371 1265.24,-681.185"/>
<polygon fill="midnightblue" stroke="midnightblue" points="206.469,-560.824 200.951,-551.779 199.625,-562.291 206.469,-560.824"/>
</g>
<!-- Node26 -->
<g id="node57" class="node"><title>Node26</title>
<a xlink:href="structant_1_1_t_key_value.html" target="_top" xlink:title="ant::TKeyValue\&lt; ant\l::TTaggerHit::Electron_t \&gt;">
<polygon fill="white" stroke="black" points="597.5,-655 597.5,-689 728.5,-689 728.5,-655 597.5,-655"/>
<text text-anchor="start" x="605.5" y="-676" font-family="Helvetica,sans-Serif" font-size="10.00">ant::TKeyValue&lt; ant</text>
<text text-anchor="middle" x="663" y="-663" font-family="Helvetica,sans-Serif" font-size="10.00">::TTaggerHit::Electron_t &gt;</text>
</a>
</g>
<!-- Node3&#45;&gt;Node26 -->
<g id="edge66" class="edge"><title>Node3&#45;&gt;Node26</title>
<path fill="none" stroke="midnightblue" d="M214.465,-559.339C229.848,-576.369 254.997,-601.122 282,-615 383.275,-667.048 518.354,-675.078 597.483,-674.617"/>
<polygon fill="midnightblue" stroke="midnightblue" points="216.964,-556.88 207.733,-551.681 211.707,-561.502 216.964,-556.88"/>
</g>
<!-- Node27 -->
<g id="node60" class="node"><title>Node27</title>
<a xlink:href="structant_1_1_t_tagger_hit_1_1_electron__t.html" target="_top" xlink:title="ant::TTaggerHit::Electron_t">
<polygon fill="white" stroke="black" points="362.5,-701.5 362.5,-722.5 497.5,-722.5 497.5,-701.5 362.5,-701.5"/>
<text text-anchor="middle" x="430" y="-709.5" font-family="Helvetica,sans-Serif" font-size="10.00">ant::TTaggerHit::Electron_t</text>
</a>
</g>
<!-- Node3&#45;&gt;Node27 -->
<g id="edge70" class="edge"><title>Node3&#45;&gt;Node27</title>
<path fill="none" stroke="midnightblue" d="M204.401,-561.284C214.121,-593.546 237.788,-656.06 282,-687 305.164,-703.211 335.279,-710.171 362.291,-712.81"/>
<polygon fill="midnightblue" stroke="midnightblue" points="207.744,-560.244 201.63,-551.592 201.014,-562.169 207.744,-560.244"/>
</g>
<!-- Node28 -->
<g id="node63" class="node"><title>Node28</title>
<a xlink:href="structant_1_1_t_i_d.html" target="_top" xlink:title="ant::TID">
<polygon fill="white" stroke="black" points="516.5,-830.5 516.5,-851.5 569.5,-851.5 569.5,-830.5 516.5,-830.5"/>
<text text-anchor="middle" x="543" y="-838.5" font-family="Helvetica,sans-Serif" font-size="10.00">ant::TID</text>
</a>
</g>
<!-- Node3&#45;&gt;Node28 -->
<g id="edge74" class="edge"><title>Node3&#45;&gt;Node28</title>
<path fill="none" stroke="midnightblue" d="M200.61,-561.813C205.152,-605.875 221.963,-709.109 282,-765 349.013,-827.385 464.347,-838.863 516.281,-840.764"/>
<polygon fill="midnightblue" stroke="midnightblue" points="204.083,-561.359 199.683,-551.721 197.113,-562 204.083,-561.359"/>
</g>
<!-- Node30 -->
<g id="node68" class="node"><title>Node30</title>
<a xlink:href="structant_1_1_t_target.html" target="_top" xlink:title="ant::TTarget">
<polygon fill="white" stroke="black" points="628,-588.5 628,-609.5 698,-609.5 698,-588.5 628,-588.5"/>
<text text-anchor="middle" x="663" y="-596.5" font-family="Helvetica,sans-Serif" font-size="10.00">ant::TTarget</text>
</a>
</g>
<!-- Node3&#45;&gt;Node30 -->
<g id="edge80" class="edge"><title>Node3&#45;&gt;Node30</title>
<path fill="none" stroke="midnightblue" d="M222.316,-557.117C238.515,-567.788 260.899,-581.512 282,-591 315.975,-606.276 325.175,-610.38 362,-616 457.204,-630.529 571.049,-615.39 627.556,-605.726"/>
<polygon fill="midnightblue" stroke="midnightblue" points="224.258,-554.205 214.001,-551.55 220.363,-560.022 224.258,-554.205"/>
</g>
<!-- Node31 -->
<g id="node71" class="node"><title>Node31</title>
<a xlink:href="structant_1_1vec3.html" target="_top" xlink:title="ant::vec3">
<polygon fill="white" stroke="black" points="401.5,-585.5 401.5,-606.5 458.5,-606.5 458.5,-585.5 401.5,-585.5"/>
<text text-anchor="middle" x="430" y="-593.5" font-family="Helvetica,sans-Serif" font-size="10.00">ant::vec3</text>
</a>
</g>
<!-- Node3&#45;&gt;Node31 -->
<g id="edge84" class="edge"><title>Node3&#45;&gt;Node31</title>
<path fill="none" stroke="midnightblue" d="M234.075,-555.259C248.703,-560.789 265.987,-566.79 282,-571 322.827,-581.734 371.249,-588.894 401.305,-592.705"/>
<polygon fill="midnightblue" stroke="midnightblue" points="235.01,-551.868 224.42,-551.533 232.49,-558.399 235.01,-551.868"/>
</g>
<!-- Node33 -->
<g id="node76" class="node"><title>Node33</title>
<a xlink:href="structant_1_1_t_slow_control.html" target="_top" xlink:title="ant::TSlowControl">
<polygon fill="white" stroke="black" points="943.5,-400.5 943.5,-421.5 1038.5,-421.5 1038.5,-400.5 943.5,-400.5"/>
<text text-anchor="middle" x="991" y="-408.5" font-family="Helvetica,sans-Serif" font-size="10.00">ant::TSlowControl</text>
</a>
</g>
<!-- Node3&#45;&gt;Node33 -->
<g id="edge90" class="edge"><title>Node3&#45;&gt;Node33</title>
<path fill="none" stroke="midnightblue" d="M242.024,-527.568C274.639,-517.896 320.736,-505.312 362,-498 595.056,-456.704 661.273,-498.779 892,-446 917.946,-440.065 946.497,-429.516 966.244,-421.546"/>
<polygon fill="midnightblue" stroke="midnightblue" points="240.928,-524.243 232.355,-530.467 242.939,-530.948 240.928,-524.243"/>
</g>
<!-- Node35 -->
<g id="node81" class="node"><title>Node35</title>
<a xlink:href="structant_1_1_t_key_value.html" target="_top" xlink:title="ant::TKeyValue\&lt; double \&gt;">
<polygon fill="white" stroke="black" points="364.5,-424.5 364.5,-445.5 495.5,-445.5 495.5,-424.5 364.5,-424.5"/>
<text text-anchor="middle" x="430" y="-432.5" font-family="Helvetica,sans-Serif" font-size="10.00">ant::TKeyValue&lt; double &gt;</text>
</a>
</g>
<!-- Node3&#45;&gt;Node35 -->
<g id="edge96" class="edge"><title>Node3&#45;&gt;Node35</title>
<path fill="none" stroke="midnightblue" d="M207.327,-521.022C219.417,-494.973 244.557,-450.551 282,-432 315.391,-415.457 358.437,-418.616 389.488,-424.466"/>
<polygon fill="midnightblue" stroke="midnightblue" points="204.058,-519.76 203.204,-530.32 210.457,-522.597 204.058,-519.76"/>
</g>
<!-- Node37 -->
<g id="node86" class="node"><title>Node37</title>
<a xlink:href="structant_1_1_t_key_value.html" target="_top" xlink:title="ant::TKeyValue\&lt; std\l::int64_t \&gt;">
<polygon fill="white" stroke="black" points="376.5,-372 376.5,-406 483.5,-406 483.5,-372 376.5,-372"/>
<text text-anchor="start" x="384.5" y="-393" font-family="Helvetica,sans-Serif" font-size="10.00">ant::TKeyValue&lt; std</text>
<text text-anchor="middle" x="430" y="-380" font-family="Helvetica,sans-Serif" font-size="10.00">::int64_t &gt;</text>
</a>
</g>
<!-- Node3&#45;&gt;Node37 -->
<g id="edge102" class="edge"><title>Node3&#45;&gt;Node37</title>
<path fill="none" stroke="midnightblue" d="M206.2,-521.078C217.592,-492.607 242.61,-440.87 282,-415 309.693,-396.812 346.334,-390.272 376.229,-388.298"/>
<polygon fill="midnightblue" stroke="midnightblue" points="202.928,-519.833 202.617,-530.423 209.465,-522.338 202.928,-519.833"/>
</g>
<!-- Node39 -->
<g id="node92" class="node"><title>Node39</title>
<a xlink:href="structant_1_1_t_key_value.html" target="_top" xlink:title="ant::TKeyValue\&lt; std\l::string \&gt;">
<polygon fill="white" stroke="black" points="376.5,-319 376.5,-353 483.5,-353 483.5,-319 376.5,-319"/>
<text text-anchor="start" x="384.5" y="-340" font-family="Helvetica,sans-Serif" font-size="10.00">ant::TKeyValue&lt; std</text>
<text text-anchor="middle" x="430" y="-327" font-family="Helvetica,sans-Serif" font-size="10.00">::string &gt;</text>
</a>
</g>
<!-- Node3&#45;&gt;Node39 -->
<g id="edge110" class="edge"><title>Node3&#45;&gt;Node39</title>
<path fill="none" stroke="midnightblue" d="M204.78,-520.631C215.033,-488.07 239.433,-424.279 282,-388 308.635,-365.3 345.821,-352.287 376.254,-344.955"/>
<polygon fill="midnightblue" stroke="midnightblue" points="201.373,-519.807 201.84,-530.392 208.076,-521.826 201.373,-519.807"/>
</g>
<!-- Node40 -->
<g id="node96" class="node"><title>Node40</title>
<a xlink:href="structant_1_1_t_trigger.html" target="_top" xlink:title="ant::TTrigger">
<polygon fill="white" stroke="black" points="955,-522.5 955,-543.5 1027,-543.5 1027,-522.5 955,-522.5"/>
<text text-anchor="middle" x="991" y="-530.5" font-family="Helvetica,sans-Serif" font-size="10.00">ant::TTrigger</text>
</a>
</g>
<!-- Node3&#45;&gt;Node40 -->
<g id="edge116" class="edge"><title>Node3&#45;&gt;Node40</title>
<path fill="none" stroke="midnightblue" d="M259.086,-542.574C266.797,-542.739 274.584,-542.887 282,-543 492.647,-546.204 545.33,-545.333 756,-546 816.444,-546.191 831.684,-549.943 892,-546 912.931,-544.632 936.192,-541.653 954.905,-538.891"/>
<polygon fill="midnightblue" stroke="midnightblue" points="259.108,-539.074 249.032,-542.349 258.952,-546.072 259.108,-539.074"/>
</g>
<!-- Node42 -->
<g id="node101" class="node"><title>Node42</title>
<a xlink:href="structant_1_1_t_d_a_q_error.html" target="_top" xlink:title="ant::TDAQError">
<polygon fill="white" stroke="black" points="387.5,-507.5 387.5,-528.5 472.5,-528.5 472.5,-507.5 387.5,-507.5"/>
<text text-anchor="middle" x="430" y="-515.5" font-family="Helvetica,sans-Serif" font-size="10.00">ant::TDAQError</text>
</a>
</g>
<!-- Node3&#45;&gt;Node42 -->
<g id="edge122" class="edge"><title>Node3&#45;&gt;Node42</title>
<path fill="none" stroke="midnightblue" d="M259.083,-535.018C299.319,-531.012 351.314,-525.834 387.339,-522.248"/>
<polygon fill="midnightblue" stroke="midnightblue" points="258.728,-531.536 249.124,-536.009 259.421,-538.501 258.728,-531.536"/>
</g>
<!-- Node4 -->
<g id="node6" class="node"><title>Node4</title>
<polygon fill="white" stroke="#bfbfbf" points="1944,-754 1944,-788 2048,-788 2048,-754 1944,-754"/>
<text text-anchor="start" x="1952" y="-775" font-family="Helvetica,sans-Serif" font-size="10.00">std::unique_ptr&lt; ant</text>
<text text-anchor="middle" x="1996" y="-762" font-family="Helvetica,sans-Serif" font-size="10.00">::TEventData &gt;</text>
</g>
<!-- Node4&#45;&gt;Node2 -->
<g id="edge6" class="edge"><title>Node4&#45;&gt;Node2</title>
<path fill="none" stroke="#9a32cd" stroke-dasharray="5,2" d="M2044.04,-792.439C2080.68,-808.788 2129.58,-830.607 2158.24,-843.397"/>
<polygon fill="#9a32cd" stroke="#9a32cd" points="2045.1,-789.077 2034.54,-788.198 2042.25,-795.469 2045.1,-789.077"/>
<text text-anchor="middle" x="2098" y="-846" font-family="Helvetica,sans-Serif" font-size="10.00"> reconstructed</text>
<text text-anchor="middle" x="2098" y="-833" font-family="Helvetica,sans-Serif" font-size="10.00">mctrue</text>
</g>
<!-- Node5&#45;&gt;Node4 -->
<g id="edge8" class="edge"><title>Node5&#45;&gt;Node4</title>
<path fill="none" stroke="#9a32cd" stroke-dasharray="5,2" d="M1858.97,-552.121C1887.34,-597.439 1958.31,-710.801 1985.33,-753.955"/>
<polygon fill="#9a32cd" stroke="#9a32cd" points="1861.87,-550.152 1853.59,-543.534 1855.93,-553.867 1861.87,-550.152"/>
<text text-anchor="middle" x="1918" y="-663" font-family="Helvetica,sans-Serif" font-size="10.00"> ptr</text>
</g>
<!-- Node6 -->
<g id="node11" class="node"><title>Node6</title>
<a xlink:href="classant_1_1std__ext_1_1shared__ptr__container.html" target="_top" xlink:title="ant::std_ext::shared\l_ptr_container\&lt; TCandidate \&gt;">
<polygon fill="white" stroke="black" points="1564,-109 1564,-143 1710,-143 1710,-109 1564,-109"/>
<text text-anchor="start" x="1572" y="-130" font-family="Helvetica,sans-Serif" font-size="10.00">ant::std_ext::shared</text>
<text text-anchor="middle" x="1637" y="-117" font-family="Helvetica,sans-Serif" font-size="10.00">_ptr_container&lt; TCandidate &gt;</text>
</a>
</g>
<!-- Node6&#45;&gt;Node5 -->
<g id="edge12" class="edge"><title>Node6&#45;&gt;Node5</title>
<path fill="none" stroke="#9a32cd" stroke-dasharray="5,2" d="M1720.45,-118.576C1743.67,-120.811 1767.13,-127.774 1784,-144 1812.29,-171.214 1840.49,-462.267 1846.02,-522.233"/>
<polygon fill="#9a32cd" stroke="#9a32cd" points="1720.38,-115.064 1710.17,-117.879 1719.91,-122.048 1720.38,-115.064"/>
<text text-anchor="middle" x="1756" y="-148" font-family="Helvetica,sans-Serif" font-size="10.00"> Candidates</text>
</g>
<!-- Node7 -->
<g id="node13" class="node"><title>Node7</title>
<a xlink:href="classant_1_1std__ext_1_1shared__ptr__container.html" target="_top" xlink:title="ant::std_ext::shared\l_ptr_container\&lt; TCluster \&gt;">
<polygon fill="white" stroke="black" points="1570,-57 1570,-91 1704,-91 1704,-57 1570,-57"/>
<text text-anchor="start" x="1578" y="-78" font-family="Helvetica,sans-Serif" font-size="10.00">ant::std_ext::shared</text>
<text text-anchor="middle" x="1637" y="-65" font-family="Helvetica,sans-Serif" font-size="10.00">_ptr_container&lt; TCluster &gt;</text>
</a>
</g>
<!-- Node7&#45;&gt;Node5 -->
<g id="edge14" class="edge"><title>Node7&#45;&gt;Node5</title>
<path fill="none" stroke="#9a32cd" stroke-dasharray="5,2" d="M1714.1,-72.1718C1739.61,-75.5778 1766.03,-84.1209 1784,-103 1814.04,-134.56 1841.16,-459.281 1846.17,-522.401"/>
<polygon fill="#9a32cd" stroke="#9a32cd" points="1714.33,-68.6766 1704.01,-71.0748 1713.58,-75.6356 1714.33,-68.6766"/>
<text text-anchor="middle" x="1756" y="-107" font-family="Helvetica,sans-Serif" font-size="10.00"> Clusters</text>
</g>
<!-- Node8 -->
<g id="node15" class="node"><title>Node8</title>
<a xlink:href="classant_1_1_tree.html" target="_top" xlink:title="ant::Tree\&lt; TParticlePtr \&gt;">
<polygon fill="white" stroke="black" points="1574.5,-743.5 1574.5,-764.5 1699.5,-764.5 1699.5,-743.5 1574.5,-743.5"/>
<text text-anchor="middle" x="1637" y="-751.5" font-family="Helvetica,sans-Serif" font-size="10.00">ant::Tree&lt; TParticlePtr &gt;</text>
</a>
</g>
<!-- Node8&#45;&gt;Node5 -->
<g id="edge16" class="edge"><title>Node8&#45;&gt;Node5</title>
<path fill="none" stroke="#9a32cd" stroke-dasharray="5,2" d="M1680.16,-739.912C1712.38,-727.499 1755.57,-706.585 1784,-676 1821.5,-635.666 1839.14,-569.381 1844.84,-543.663"/>
<polygon fill="#9a32cd" stroke="#9a32cd" points="1678.69,-736.723 1670.54,-743.493 1681.13,-743.284 1678.69,-736.723"/>
<text text-anchor="middle" x="1756" y="-720" font-family="Helvetica,sans-Serif" font-size="10.00"> ParticleTree</text>
</g>
<!-- Node9 -->
<g id="node17" class="node"><title>Node9</title>
<polygon fill="white" stroke="#bfbfbf" points="615,-797.5 615,-818.5 711,-818.5 711,-797.5 615,-797.5"/>
<text text-anchor="middle" x="663" y="-805.5" font-family="Helvetica,sans-Serif" font-size="10.00">std::list&lt; node_t &gt;</text>
</g>
<!-- Node9&#45;&gt;Node8 -->
<g id="edge18" class="edge"><title>Node9&#45;&gt;Node8</title>
<path fill="none" stroke="#9a32cd" stroke-dasharray="5,2" d="M721.142,-809.203C905.04,-812.784 1466.61,-821.942 1546,-802 1575.1,-794.69 1605.2,-776.302 1622.45,-764.525"/>
<polygon fill="#9a32cd" stroke="#9a32cd" points="721.19,-805.703 711.123,-809.006 721.052,-812.702 721.19,-805.703"/>
<text text-anchor="middle" x="1160" y="-818" font-family="Helvetica,sans-Serif" font-size="10.00"> daughters</text>
</g>
<!-- Node11 -->
<g id="node21" class="node"><title>Node11</title>
<a xlink:href="classant_1_1_tree.html" target="_top" xlink:title="ant::Tree\&lt; T \&gt;">
<polygon fill="white" stroke="black" points="951,-758.5 951,-779.5 1031,-779.5 1031,-758.5 951,-758.5"/>
<text text-anchor="middle" x="991" y="-766.5" font-family="Helvetica,sans-Serif" font-size="10.00">ant::Tree&lt; T &gt;</text>
</a>
</g>
<!-- Node9&#45;&gt;Node11 -->
<g id="edge24" class="edge"><title>Node9&#45;&gt;Node11</title>
<path fill="none" stroke="#9a32cd" stroke-dasharray="5,2" d="M721.137,-797.328C732.666,-795.401 744.698,-793.523 756,-792 824.252,-782.801 904.129,-775.771 950.98,-772.024"/>
<polygon fill="#9a32cd" stroke="#9a32cd" points="720.436,-793.897 711.166,-799.026 721.612,-800.798 720.436,-793.897"/>
<text text-anchor="middle" x="824" y="-796" font-family="Helvetica,sans-Serif" font-size="10.00"> daughters</text>
</g>
<!-- Node10 -->
<g id="node19" class="node"><title>Node10</title>
<polygon fill="white" stroke="#bfbfbf" points="1251.5,-768.5 1251.5,-789.5 1364.5,-789.5 1364.5,-768.5 1251.5,-768.5"/>
<text text-anchor="middle" x="1308" y="-776.5" font-family="Helvetica,sans-Serif" font-size="10.00">std::weak_ptr&lt; Tree &gt;</text>
</g>
<!-- Node10&#45;&gt;Node8 -->
<g id="edge20" class="edge"><title>Node10&#45;&gt;Node8</title>
<path fill="none" stroke="#9a32cd" stroke-dasharray="5,2" d="M1374.79,-773.925C1433.19,-769.487 1517.36,-763.091 1574.46,-758.752"/>
<polygon fill="#9a32cd" stroke="#9a32cd" points="1374.26,-770.455 1364.56,-774.702 1374.79,-777.435 1374.26,-770.455"/>
<text text-anchor="middle" x="1466" y="-789" font-family="Helvetica,sans-Serif" font-size="10.00"> parent</text>
<text text-anchor="middle" x="1466" y="-776" font-family="Helvetica,sans-Serif" font-size="10.00">self</text>
</g>
<!-- Node10&#45;&gt;Node11 -->
<g id="edge26" class="edge"><title>Node10&#45;&gt;Node11</title>
<path fill="none" stroke="#9a32cd" stroke-dasharray="5,2" d="M1258.77,-764.586C1255.04,-762.894 1251.4,-761.035 1248,-759 1238.56,-753.349 1240.23,-746.065 1230,-742 1156.66,-712.843 1061.34,-741.455 1016.47,-758.428"/>
<polygon fill="#9a32cd" stroke="#9a32cd" points="1257.6,-767.891 1268.18,-768.452 1260.26,-761.416 1257.6,-767.891"/>
<text text-anchor="middle" x="1160" y="-759" font-family="Helvetica,sans-Serif" font-size="10.00"> parent</text>
<text text-anchor="middle" x="1160" y="-746" font-family="Helvetica,sans-Serif" font-size="10.00">self</text>
</g>
<!-- Node11&#45;&gt;Node10 -->
<g id="edge22" class="edge"><title>Node11&#45;&gt;Node10</title>
<path fill="none" stroke="#9a32cd" stroke-dasharray="5,2" d="M1041.39,-770.59C1098.59,-772.394 1191.67,-775.33 1251.34,-777.213"/>
<polygon fill="#9a32cd" stroke="#9a32cd" points="1041.25,-767.084 1031.15,-770.267 1041.03,-774.08 1041.25,-767.084"/>
<text text-anchor="middle" x="1160" y="-780" font-family="Helvetica,sans-Serif" font-size="10.00"> ptr</text>
</g>
<!-- Node12 -->
<g id="node25" class="node"><title>Node12</title>
<polygon fill="white" stroke="#bfbfbf" points="648.5,-745.5 648.5,-766.5 677.5,-766.5 677.5,-745.5 648.5,-745.5"/>
<text text-anchor="middle" x="663" y="-753.5" font-family="Helvetica,sans-Serif" font-size="10.00">T</text>
</g>
<!-- Node12&#45;&gt;Node11 -->
<g id="edge28" class="edge"><title>Node12&#45;&gt;Node11</title>
<path fill="none" stroke="#9a32cd" stroke-dasharray="5,2" d="M687.903,-754.938C730,-753.381 817.89,-751.155 892,-756 911.374,-757.267 932.745,-759.913 950.657,-762.49"/>
<polygon fill="#9a32cd" stroke="#9a32cd" points="687.613,-751.447 677.757,-755.334 687.886,-758.441 687.613,-751.447"/>
<text text-anchor="middle" x="824" y="-760" font-family="Helvetica,sans-Serif" font-size="10.00"> data</text>
</g>
<!-- Node13 -->
<g id="node27" class="node"><title>Node13</title>
<a xlink:href="structant_1_1std__ext_1_1cc__shared__ptr.html" target="_top" xlink:title="ant::std_ext::cc_shared\l_ptr\&lt; T \&gt;">
<polygon fill="white" stroke="black" points="1248.5,-716 1248.5,-750 1367.5,-750 1367.5,-716 1248.5,-716"/>
<text text-anchor="start" x="1256.5" y="-737" font-family="Helvetica,sans-Serif" font-size="10.00">ant::std_ext::cc_shared</text>
<text text-anchor="middle" x="1308" y="-724" font-family="Helvetica,sans-Serif" font-size="10.00">_ptr&lt; T &gt;</text>
</a>
</g>
<!-- Node13&#45;&gt;Node8 -->
<g id="edge30" class="edge"><title>Node13&#45;&gt;Node8</title>
<path fill="none" stroke="#9a32cd" stroke-dasharray="5,2" d="M1377.98,-732.228C1425.47,-732.326 1489.65,-733.671 1546,-739 1557.32,-740.07 1569.36,-741.701 1580.85,-743.498"/>
<polygon fill="#9a32cd" stroke="#9a32cd" points="1377.8,-728.728 1367.8,-732.226 1377.8,-735.728 1377.8,-728.728"/>
<text text-anchor="middle" x="1466" y="-743" font-family="Helvetica,sans-Serif" font-size="10.00"> data</text>
</g>
<!-- Node14 -->
<g id="node29" class="node"><title>Node14</title>
<polygon fill="white" stroke="#bfbfbf" points="756.5,-131 756.5,-165 891.5,-165 891.5,-131 756.5,-131"/>
<text text-anchor="start" x="764.5" y="-152" font-family="Helvetica,sans-Serif" font-size="10.00">std::vector&lt; ant::TDetector</text>
<text text-anchor="middle" x="824" y="-139" font-family="Helvetica,sans-Serif" font-size="10.00">ReadHit &gt;</text>
</g>
<!-- Node14&#45;&gt;Node5 -->
<g id="edge32" class="edge"><title>Node14&#45;&gt;Node5</title>
<path fill="none" stroke="#9a32cd" stroke-dasharray="5,2" d="M902.008,-156.372C970.041,-162.948 1071.43,-171 1160,-171 1160,-171 1160,-171 1637,-171 1709.95,-171 1739.15,-186.474 1784,-244 1819.29,-289.255 1840.98,-475.769 1845.92,-522.397"/>
<polygon fill="#9a32cd" stroke="#9a32cd" points="902.094,-152.864 891.801,-155.372 901.412,-159.83 902.094,-152.864"/>
<text text-anchor="middle" x="1308" y="-175" font-family="Helvetica,sans-Serif" font-size="10.00"> DetectorReadHits</text>
</g>
<!-- Node15&#45;&gt;Node14 -->
<g id="edge34" class="edge"><title>Node15&#45;&gt;Node14</title>
<path fill="none" stroke="#9a32cd" stroke-dasharray="5,2" d="M498.063,-97.5377C570.424,-108.741 684.171,-126.351 756.367,-137.529"/>
<polygon fill="#9a32cd" stroke="#9a32cd" points="498.554,-94.072 488.136,-96.0008 497.483,-100.99 498.554,-94.072"/>
<text text-anchor="middle" x="543" y="-113" font-family="Helvetica,sans-Serif" font-size="10.00"> elements</text>
</g>
<!-- Node16 -->
<g id="node34" class="node"><title>Node16</title>
<polygon fill="white" stroke="#bfbfbf" points="149.5,-0.5 149.5,-21.5 248.5,-21.5 248.5,-0.5 149.5,-0.5"/>
<text text-anchor="middle" x="199" y="-8.5" font-family="Helvetica,sans-Serif" font-size="10.00">std::vector&lt; bool &gt;</text>
</g>
<!-- Node16&#45;&gt;Node15 -->
<g id="edge38" class="edge"><title>Node16&#45;&gt;Node15</title>
<path fill="none" stroke="#9a32cd" stroke-dasharray="5,2" d="M258.533,-19.9611C285.149,-24.9208 316.625,-32.1203 344,-42 369.202,-51.0954 396.274,-66.2517 413.17,-76.4315"/>
<polygon fill="#9a32cd" stroke="#9a32cd" points="259.051,-16.4982 248.589,-18.169 257.81,-23.3872 259.051,-16.4982"/>
<text text-anchor="middle" x="313" y="-46" font-family="Helvetica,sans-Serif" font-size="10.00"> ValueBits</text>
</g>
<!-- Node17 -->
<g id="node36" class="node"><title>Node17</title>
<polygon fill="white" stroke="#bfbfbf" points="144,-103.5 144,-124.5 254,-124.5 254,-103.5 144,-103.5"/>
<text text-anchor="middle" x="199" y="-111.5" font-family="Helvetica,sans-Serif" font-size="10.00">std::vector&lt; double &gt;</text>
</g>
<!-- Node17&#45;&gt;Node15 -->
<g id="edge40" class="edge"><title>Node17&#45;&gt;Node15</title>
<path fill="none" stroke="#9a32cd" stroke-dasharray="5,2" d="M235.292,-100.065C249.618,-95.2473 266.363,-90.4459 282,-88 311.321,-83.4135 344.311,-82.7621 371.69,-83.4285"/>
<polygon fill="#9a32cd" stroke="#9a32cd" points="234.094,-96.7765 225.804,-103.375 236.399,-103.386 234.094,-96.7765"/>
<text text-anchor="middle" x="313" y="-105" font-family="Helvetica,sans-Serif" font-size="10.00"> Values</text>
<text text-anchor="middle" x="313" y="-92" font-family="Helvetica,sans-Serif" font-size="10.00">Converted</text>
</g>
<!-- Node17&#45;&gt;Node20 -->
<g id="edge54" class="edge"><title>Node17&#45;&gt;Node20</title>
<path fill="none" stroke="#9a32cd" stroke-dasharray="5,2" d="M240.892,-127.783C286.01,-142.627 356.819,-165.923 397.782,-179.4"/>
<polygon fill="#9a32cd" stroke="#9a32cd" points="241.713,-124.368 231.12,-124.567 239.525,-131.017 241.713,-124.368"/>
<text text-anchor="middle" x="313" y="-166" font-family="Helvetica,sans-Serif" font-size="10.00"> Payload</text>
</g>
<!-- Node18 -->
<g id="node38" class="node"><title>Node18</title>
<polygon fill="white" stroke="#bfbfbf" points="134,-40.5 134,-61.5 264,-61.5 264,-40.5 134,-40.5"/>
<text text-anchor="middle" x="199" y="-48.5" font-family="Helvetica,sans-Serif" font-size="10.00">std::vector&lt; std::uint8_t &gt;</text>
</g>
<!-- Node18&#45;&gt;Node15 -->
<g id="edge42" class="edge"><title>Node18&#45;&gt;Node15</title>
<path fill="none" stroke="#9a32cd" stroke-dasharray="5,2" d="M274.355,-57.601C296.838,-60.0317 321.485,-63.1537 344,-67 358.808,-69.5297 374.881,-73.0535 389.081,-76.4395"/>
<polygon fill="#9a32cd" stroke="#9a32cd" points="274.504,-54.0974 264.192,-56.5327 273.772,-61.0591 274.504,-54.0974"/>
<text text-anchor="middle" x="313" y="-71" font-family="Helvetica,sans-Serif" font-size="10.00"> RawData</text>
</g>
<!-- Node19 -->
<g id="node40" class="node"><title>Node19</title>
<polygon fill="white" stroke="#bfbfbf" points="1090,-213 1090,-247 1230,-247 1230,-213 1090,-213"/>
<text text-anchor="start" x="1098" y="-234" font-family="Helvetica,sans-Serif" font-size="10.00">std::vector&lt; ant::TUnpacker</text>
<text text-anchor="middle" x="1160" y="-221" font-family="Helvetica,sans-Serif" font-size="10.00">Message &gt;</text>
</g>
<!-- Node19&#45;&gt;Node5 -->
<g id="edge44" class="edge"><title>Node19&#45;&gt;Node5</title>
<path fill="none" stroke="#9a32cd" stroke-dasharray="5,2" d="M1240.08,-224.406C1389.72,-215.717 1703.9,-206.359 1784,-274 1823.24,-307.142 1841.8,-477.575 1846.04,-522.262"/>
<polygon fill="#9a32cd" stroke="#9a32cd" points="1239.8,-220.916 1230.03,-225.003 1240.22,-227.904 1239.8,-220.916"/>
<text text-anchor="middle" x="1466" y="-225" font-family="Helvetica,sans-Serif" font-size="10.00"> UnpackerMessages</text>
</g>
<!-- Node20&#45;&gt;Node19 -->
<g id="edge46" class="edge"><title>Node20&#45;&gt;Node19</title>
<path fill="none" stroke="#9a32cd" stroke-dasharray="5,2" d="M502.477,-193.971C643.103,-201.677 951.31,-218.565 1089.97,-226.163"/>
<polygon fill="#9a32cd" stroke="#9a32cd" points="502.416,-190.463 492.239,-193.41 502.033,-197.452 502.416,-190.463"/>
<text text-anchor="middle" x="663" y="-211" font-family="Helvetica,sans-Serif" font-size="10.00"> elements</text>
</g>
<!-- Node21 -->
<g id="node45" class="node"><title>Node21</title>
<a xlink:title="STL class. ">
<polygon fill="white" stroke="#bfbfbf" points="169,-255.5 169,-276.5 229,-276.5 229,-255.5 169,-255.5"/>
<text text-anchor="middle" x="199" y="-263.5" font-family="Helvetica,sans-Serif" font-size="10.00">std::string</text>
</a>
</g>
<!-- Node21&#45;&gt;Node20 -->
<g id="edge50" class="edge"><title>Node21&#45;&gt;Node20</title>
<path fill="none" stroke="#9a32cd" stroke-dasharray="5,2" d="M214.999,-247.471C230.338,-231.167 255.085,-208.445 282,-198 308.867,-187.573 340.554,-184.739 367.7,-184.849"/>
<polygon fill="#9a32cd" stroke="#9a32cd" points="212.008,-245.559 207.873,-255.314 217.189,-250.266 212.008,-245.559"/>
<text text-anchor="middle" x="313" y="-202" font-family="Helvetica,sans-Serif" font-size="10.00"> Message</text>
</g>
<!-- Node21&#45;&gt;Node33 -->
<g id="edge104" class="edge"><title>Node21&#45;&gt;Node33</title>
<path fill="none" stroke="#9a32cd" stroke-dasharray="5,2" d="M239.358,-263.478C299.567,-259.855 416.495,-253.353 516,-251 687.784,-246.938 736.829,-267.189 892,-341 926.216,-357.276 961.26,-385.271 979.052,-400.458"/>
<polygon fill="#9a32cd" stroke="#9a32cd" points="238.911,-259.999 229.142,-264.098 239.336,-266.986 238.911,-259.999"/>
<text text-anchor="middle" x="543" y="-268" font-family="Helvetica,sans-Serif" font-size="10.00"> Description</text>
<text text-anchor="middle" x="543" y="-255" font-family="Helvetica,sans-Serif" font-size="10.00">Name</text>
</g>
<!-- Node21&#45;&gt;Node39 -->
<g id="edge112" class="edge"><title>Node21&#45;&gt;Node39</title>
<path fill="none" stroke="#9a32cd" stroke-dasharray="5,2" d="M238.895,-278.089C276.895,-289.605 334.369,-307.021 376.364,-319.747"/>
<polygon fill="#9a32cd" stroke="#9a32cd" points="239.785,-274.702 229.199,-275.151 237.754,-281.401 239.785,-274.702"/>
<text text-anchor="middle" x="313" y="-313" font-family="Helvetica,sans-Serif" font-size="10.00"> Value</text>
</g>
<!-- Node21&#45;&gt;Node42 -->
<g id="edge124" class="edge"><title>Node21&#45;&gt;Node42</title>
<path fill="none" stroke="#9a32cd" stroke-dasharray="5,2" d="M213.745,-284.442C241.591,-318.955 304.305,-395.214 362,-455 380.663,-474.339 403.914,-495.257 417.825,-507.463"/>
<polygon fill="#9a32cd" stroke="#9a32cd" points="216.436,-282.202 207.442,-276.602 210.981,-286.588 216.436,-282.202"/>
<text text-anchor="middle" x="313" y="-439" font-family="Helvetica,sans-Serif" font-size="10.00"> ModuleName</text>
</g>
<!-- Node22 -->
<g id="node47" class="node"><title>Node22</title>
<a xlink:title="STL class. ">
<polygon fill="white" stroke="#bfbfbf" points="0.5,-249 0.5,-283 95.5,-283 95.5,-249 0.5,-249"/>
<text text-anchor="start" x="8.5" y="-270" font-family="Helvetica,sans-Serif" font-size="10.00">std::basic_string&lt;</text>
<text text-anchor="middle" x="48" y="-257" font-family="Helvetica,sans-Serif" font-size="10.00"> char &gt;</text>
</a>
</g>
<!-- Node22&#45;&gt;Node21 -->
<g id="edge52" class="edge"><title>Node22&#45;&gt;Node21</title>
<path fill="none" stroke="midnightblue" d="M106.06,-266C127.393,-266 150.691,-266 168.625,-266"/>
<polygon fill="midnightblue" stroke="midnightblue" points="105.777,-262.5 95.7773,-266 105.777,-269.5 105.777,-262.5"/>
</g>
<!-- Node23 -->
<g id="node50" class="node"><title>Node23</title>
<polygon fill="white" stroke="#bfbfbf" points="1573,-653 1573,-687 1701,-687 1701,-653 1573,-653"/>
<text text-anchor="start" x="1581" y="-674" font-family="Helvetica,sans-Serif" font-size="10.00">std::vector&lt; ant::TTagger</text>
<text text-anchor="middle" x="1637" y="-661" font-family="Helvetica,sans-Serif" font-size="10.00">Hit &gt;</text>
</g>
<!-- Node23&#45;&gt;Node5 -->
<g id="edge56" class="edge"><title>Node23&#45;&gt;Node5</title>
<path fill="none" stroke="#9a32cd" stroke-dasharray="5,2" d="M1711.37,-663.18C1736.24,-658.072 1762.96,-649.235 1784,-634 1816.48,-610.489 1835.91,-564.61 1843.42,-543.766"/>
<polygon fill="#9a32cd" stroke="#9a32cd" points="1710.4,-659.801 1701.22,-665.086 1711.69,-666.681 1710.4,-659.801"/>
<text text-anchor="middle" x="1756" y="-663" font-family="Helvetica,sans-Serif" font-size="10.00"> TaggerHits</text>
</g>
<!-- Node24&#45;&gt;Node23 -->
<g id="edge58" class="edge"><title>Node24&#45;&gt;Node23</title>
<path fill="none" stroke="#9a32cd" stroke-dasharray="5,2" d="M1360.68,-671.68C1418.41,-671.329 1511.03,-670.766 1572.93,-670.389"/>
<polygon fill="#9a32cd" stroke="#9a32cd" points="1360.65,-668.18 1350.67,-671.741 1360.69,-675.18 1360.65,-668.18"/>
<text text-anchor="middle" x="1466" y="-675" font-family="Helvetica,sans-Serif" font-size="10.00"> elements</text>
</g>
<!-- Node25 -->
<g id="node55" class="node"><title>Node25</title>
<polygon fill="white" stroke="#bfbfbf" points="910,-655 910,-689 1072,-689 1072,-655 910,-655"/>
<text text-anchor="start" x="918" y="-676" font-family="Helvetica,sans-Serif" font-size="10.00">std::vector&lt; ant::TKeyValue</text>
<text text-anchor="middle" x="991" y="-663" font-family="Helvetica,sans-Serif" font-size="10.00">&lt; ant::TTaggerHit::Electron_t &gt; &gt;</text>
</g>
<!-- Node25&#45;&gt;Node24 -->
<g id="edge62" class="edge"><title>Node25&#45;&gt;Node24</title>
<path fill="none" stroke="#9a32cd" stroke-dasharray="5,2" d="M1082.51,-672C1142.76,-672 1218.83,-672 1265.42,-672"/>
<polygon fill="#9a32cd" stroke="#9a32cd" points="1082.22,-668.5 1072.22,-672 1082.22,-675.5 1082.22,-668.5"/>
<text text-anchor="middle" x="1160" y="-676" font-family="Helvetica,sans-Serif" font-size="10.00"> Electrons</text>
</g>
<!-- Node26&#45;&gt;Node25 -->
<g id="edge64" class="edge"><title>Node26&#45;&gt;Node25</title>
<path fill="none" stroke="#9a32cd" stroke-dasharray="5,2" d="M738.605,-672C789.833,-672 857.472,-672 909.834,-672"/>
<polygon fill="#9a32cd" stroke="#9a32cd" points="738.587,-668.5 728.587,-672 738.587,-675.5 738.587,-668.5"/>
<text text-anchor="middle" x="824" y="-676" font-family="Helvetica,sans-Serif" font-size="10.00"> elements</text>
</g>
<!-- Node27&#45;&gt;Node26 -->
<g id="edge68" class="edge"><title>Node27&#45;&gt;Node26</title>
<path fill="none" stroke="#9a32cd" stroke-dasharray="5,2" d="M501.378,-699.746C531.934,-694.501 567.389,-688.414 597.292,-683.28"/>
<polygon fill="#9a32cd" stroke="#9a32cd" points="500.482,-696.349 491.218,-701.49 501.666,-703.248 500.482,-696.349"/>
<text text-anchor="middle" x="543" y="-700" font-family="Helvetica,sans-Serif" font-size="10.00"> Value</text>
</g>
<!-- Node28&#45;&gt;Node5 -->
<g id="edge72" class="edge"><title>Node28&#45;&gt;Node5</title>
<path fill="none" stroke="#9a32cd" stroke-dasharray="5,2" d="M579.756,-844.43C633.392,-849.131 736.274,-857 824,-857 824,-857 824,-857 1637,-857 1789.83,-857 1837.01,-599.999 1845.5,-543.78"/>
<polygon fill="#9a32cd" stroke="#9a32cd" points="579.976,-840.936 569.705,-843.535 579.355,-847.908 579.976,-840.936"/>
<text text-anchor="middle" x="1160" y="-861" font-family="Helvetica,sans-Serif" font-size="10.00"> ID</text>
</g>
<!-- Node29 -->
<g id="node66" class="node"><title>Node29</title>
<a xlink:href="structant_1_1_t_event_data_1_1_p_type_list.html" target="_top" xlink:title="ant::TEventData::PTypeList">
<polygon fill="white" stroke="black" points="1567.5,-613.5 1567.5,-634.5 1706.5,-634.5 1706.5,-613.5 1567.5,-613.5"/>
<text text-anchor="middle" x="1637" y="-621.5" font-family="Helvetica,sans-Serif" font-size="10.00">ant::TEventData::PTypeList</text>
</a>
</g>
<!-- Node29&#45;&gt;Node5 -->
<g id="edge76" class="edge"><title>Node29&#45;&gt;Node5</title>
<path fill="none" stroke="#9a32cd" stroke-dasharray="5,2" d="M1716.53,-619.857C1739.3,-616.232 1763.49,-609.901 1784,-599 1809.04,-585.692 1829.86,-558.726 1840.13,-543.709"/>
<polygon fill="#9a32cd" stroke="#9a32cd" points="1715.93,-616.407 1706.53,-621.295 1716.93,-623.336 1715.93,-616.407"/>
<text text-anchor="middle" x="1756" y="-621" font-family="Helvetica,sans-Serif" font-size="10.00"> Particles</text>
</g>
<!-- Node30&#45;&gt;Node5 -->
<g id="edge78" class="edge"><title>Node30&#45;&gt;Node5</title>
<path fill="none" stroke="#9a32cd" stroke-dasharray="5,2" d="M708.458,-595.833C771.753,-591.703 890.038,-585 991,-585 991,-585 991,-585 1637,-585 1705.36,-585 1782.66,-558.718 1821.64,-543.523"/>
<polygon fill="#9a32cd" stroke="#9a32cd" points="708.158,-592.345 698.411,-596.497 708.62,-599.33 708.158,-592.345"/>
<text text-anchor="middle" x="1308" y="-589" font-family="Helvetica,sans-Serif" font-size="10.00"> Target</text>
</g>
<!-- Node31&#45;&gt;Node30 -->
<g id="edge82" class="edge"><title>Node31&#45;&gt;Node30</title>
<path fill="none" stroke="#9a32cd" stroke-dasharray="5,2" d="M468.659,-596.498C512.948,-597.068 584.905,-597.994 627.723,-598.546"/>
<polygon fill="#9a32cd" stroke="#9a32cd" points="468.615,-592.997 458.57,-596.368 468.524,-599.996 468.615,-592.997"/>
<text text-anchor="middle" x="543" y="-601" font-family="Helvetica,sans-Serif" font-size="10.00"> Vertex</text>
</g>
<!-- Node32 -->
<g id="node74" class="node"><title>Node32</title>
<polygon fill="white" stroke="#bfbfbf" points="1386,-462.5 1386,-483.5 1546,-483.5 1546,-462.5 1386,-462.5"/>
<text text-anchor="middle" x="1466" y="-470.5" font-family="Helvetica,sans-Serif" font-size="10.00">std::vector&lt; ant::TSlowControl &gt;</text>
</g>
<!-- Node32&#45;&gt;Node5 -->
<g id="edge86" class="edge"><title>Node32&#45;&gt;Node5</title>
<path fill="none" stroke="#9a32cd" stroke-dasharray="5,2" d="M1556.16,-483.474C1620.06,-491.522 1707.66,-503.82 1784,-519 1789.93,-520.18 1796.17,-521.485 1802.31,-522.81"/>
<polygon fill="#9a32cd" stroke="#9a32cd" points="1556.47,-479.985 1546.12,-482.219 1555.61,-486.931 1556.47,-479.985"/>
<text text-anchor="middle" x="1637" y="-509" font-family="Helvetica,sans-Serif" font-size="10.00"> SlowControls</text>
</g>
<!-- Node33&#45;&gt;Node32 -->
<g id="edge88" class="edge"><title>Node33&#45;&gt;Node32</title>
<path fill="none" stroke="#9a32cd" stroke-dasharray="5,2" d="M1048.88,-418.555C1133.2,-429.561 1290.13,-450.045 1385.62,-462.508"/>
<polygon fill="#9a32cd" stroke="#9a32cd" points="1049.09,-415.052 1038.72,-417.229 1048.18,-421.994 1049.09,-415.052"/>
<text text-anchor="middle" x="1160" y="-446" font-family="Helvetica,sans-Serif" font-size="10.00"> elements</text>
</g>
<!-- Node34 -->
<g id="node79" class="node"><title>Node34</title>
<polygon fill="white" stroke="#bfbfbf" points="593,-420 593,-454 733,-454 733,-420 593,-420"/>
<text text-anchor="start" x="601" y="-441" font-family="Helvetica,sans-Serif" font-size="10.00">std::vector&lt; ant::TKeyValue</text>
<text text-anchor="middle" x="663" y="-428" font-family="Helvetica,sans-Serif" font-size="10.00">&lt; double &gt; &gt;</text>
</g>
<!-- Node34&#45;&gt;Node33 -->
<g id="edge92" class="edge"><title>Node34&#45;&gt;Node33</title>
<path fill="none" stroke="#9a32cd" stroke-dasharray="5,2" d="M743.594,-430.611C806.129,-425.654 890.713,-418.95 943.021,-414.803"/>
<polygon fill="#9a32cd" stroke="#9a32cd" points="743.056,-427.143 733.364,-431.422 743.61,-434.121 743.056,-427.143"/>
<text text-anchor="middle" x="824" y="-433" font-family="Helvetica,sans-Serif" font-size="10.00"> Payload_Float</text>
</g>
<!-- Node35&#45;&gt;Node34 -->
<g id="edge94" class="edge"><title>Node35&#45;&gt;Node34</title>
<path fill="none" stroke="#9a32cd" stroke-dasharray="5,2" d="M505.652,-435.649C533.624,-435.889 565.194,-436.16 592.674,-436.396"/>
<polygon fill="#9a32cd" stroke="#9a32cd" points="505.553,-432.148 495.524,-435.562 505.493,-439.148 505.553,-432.148"/>
<text text-anchor="middle" x="543" y="-440" font-family="Helvetica,sans-Serif" font-size="10.00"> elements</text>
</g>
<!-- Node36 -->
<g id="node84" class="node"><title>Node36</title>
<polygon fill="white" stroke="#bfbfbf" points="593,-368 593,-402 733,-402 733,-368 593,-368"/>
<text text-anchor="start" x="601" y="-389" font-family="Helvetica,sans-Serif" font-size="10.00">std::vector&lt; ant::TKeyValue</text>
<text text-anchor="middle" x="663" y="-376" font-family="Helvetica,sans-Serif" font-size="10.00">&lt; std::int64_t &gt; &gt;</text>
</g>
<!-- Node36&#45;&gt;Node33 -->
<g id="edge98" class="edge"><title>Node36&#45;&gt;Node33</title>
<path fill="none" stroke="#9a32cd" stroke-dasharray="5,2" d="M743.234,-390.63C787.184,-393.796 842.608,-397.922 892,-402 908.77,-403.385 927.126,-405.02 943.428,-406.514"/>
<polygon fill="#9a32cd" stroke="#9a32cd" points="743.406,-387.133 733.181,-389.908 742.905,-394.115 743.406,-387.133"/>
<text text-anchor="middle" x="824" y="-406" font-family="Helvetica,sans-Serif" font-size="10.00"> Payload_Int</text>
</g>
<!-- Node37&#45;&gt;Node36 -->
<g id="edge100" class="edge"><title>Node37&#45;&gt;Node36</title>
<path fill="none" stroke="#9a32cd" stroke-dasharray="5,2" d="M493.885,-387.903C524.521,-387.377 561.302,-386.746 592.728,-386.206"/>
<polygon fill="#9a32cd" stroke="#9a32cd" points="493.686,-384.406 483.747,-388.077 493.806,-391.405 493.686,-384.406"/>
<text text-anchor="middle" x="543" y="-391" font-family="Helvetica,sans-Serif" font-size="10.00"> elements</text>
</g>
<!-- Node38 -->
<g id="node90" class="node"><title>Node38</title>
<polygon fill="white" stroke="#bfbfbf" points="593,-316 593,-350 733,-350 733,-316 593,-316"/>
<text text-anchor="start" x="601" y="-337" font-family="Helvetica,sans-Serif" font-size="10.00">std::vector&lt; ant::TKeyValue</text>
<text text-anchor="middle" x="663" y="-324" font-family="Helvetica,sans-Serif" font-size="10.00">&lt; std::string &gt; &gt;</text>
</g>
<!-- Node38&#45;&gt;Node33 -->
<g id="edge106" class="edge"><title>Node38&#45;&gt;Node33</title>
<path fill="none" stroke="#9a32cd" stroke-dasharray="5,2" d="M743.261,-343.739C787.558,-350.57 843.303,-360.658 892,-374 918.014,-381.127 946.795,-392.269 966.589,-400.465"/>
<polygon fill="#9a32cd" stroke="#9a32cd" points="743.538,-340.241 733.126,-342.202 742.488,-347.162 743.538,-340.241"/>
<text text-anchor="middle" x="824" y="-378" font-family="Helvetica,sans-Serif" font-size="10.00"> Payload_String</text>
</g>
<!-- Node39&#45;&gt;Node38 -->
<g id="edge108" class="edge"><title>Node39&#45;&gt;Node38</title>
<path fill="none" stroke="#9a32cd" stroke-dasharray="5,2" d="M493.885,-335.177C524.521,-334.783 561.302,-334.309 592.728,-333.905"/>
<polygon fill="#9a32cd" stroke="#9a32cd" points="493.702,-331.679 483.747,-335.308 493.792,-338.679 493.702,-331.679"/>
<text text-anchor="middle" x="543" y="-338" font-family="Helvetica,sans-Serif" font-size="10.00"> elements</text>
</g>
<!-- Node40&#45;&gt;Node5 -->
<g id="edge114" class="edge"><title>Node40&#45;&gt;Node5</title>
<path fill="none" stroke="#9a32cd" stroke-dasharray="5,2" d="M1037.45,-533C1187.14,-533 1655.62,-533 1802.5,-533"/>
<polygon fill="#9a32cd" stroke="#9a32cd" points="1037.23,-529.5 1027.23,-533 1037.23,-536.5 1037.23,-529.5"/>
<text text-anchor="middle" x="1466" y="-537" font-family="Helvetica,sans-Serif" font-size="10.00"> Trigger</text>
</g>
<!-- Node41 -->
<g id="node99" class="node"><title>Node41</title>
<polygon fill="white" stroke="#bfbfbf" points="588.5,-510.5 588.5,-531.5 737.5,-531.5 737.5,-510.5 588.5,-510.5"/>
<text text-anchor="middle" x="663" y="-518.5" font-family="Helvetica,sans-Serif" font-size="10.00">std::vector&lt; ant::TDAQError &gt;</text>
</g>
<!-- Node41&#45;&gt;Node40 -->
<g id="edge118" class="edge"><title>Node41&#45;&gt;Node40</title>
<path fill="none" stroke="#9a32cd" stroke-dasharray="5,2" d="M747.982,-524.109C815.096,-526.565 905.41,-529.869 954.875,-531.678"/>
<polygon fill="#9a32cd" stroke="#9a32cd" points="747.96,-520.606 737.839,-523.738 747.704,-527.601 747.96,-520.606"/>
<text text-anchor="middle" x="824" y="-533" font-family="Helvetica,sans-Serif" font-size="10.00"> DAQErrors</text>
</g>
<!-- Node42&#45;&gt;Node41 -->
<g id="edge120" class="edge"><title>Node42&#45;&gt;Node41</title>
<path fill="none" stroke="#9a32cd" stroke-dasharray="5,2" d="M482.96,-518.682C514.161,-519.084 554.122,-519.598 588.466,-520.04"/>
<polygon fill="#9a32cd" stroke="#9a32cd" points="482.78,-515.179 472.736,-518.55 482.69,-522.179 482.78,-515.179"/>
<text text-anchor="middle" x="543" y="-523" font-family="Helvetica,sans-Serif" font-size="10.00"> elements</text>
</g>
</g>
</svg>
