<?xml version="1.0" encoding="UTF-8" standalone="no"?>
<!DOCTYPE svg PUBLIC "-//W3C//DTD SVG 1.1//EN"
 "http://www.w3.org/Graphics/SVG/1.1/DTD/svg11.dtd">
<!-- Generated by graphviz version 2.26.3 (20100126.1600)
 -->
<!-- Title: ant::expconfig::detector::PID_2004 Pages: 1 -->
<svg width="363pt" height="236pt"
 viewBox="0.00 0.00 363.00 236.00" xmlns="http://www.w3.org/2000/svg" xmlns:xlink="http://www.w3.org/1999/xlink">
<g id="graph1" class="graph" transform="scale(1 1) rotate(0) translate(4 232)">
<title>ant::expconfig::detector::PID_2004</title>
<polygon fill="white" stroke="white" points="-4,5 -4,-232 360,-232 360,5 -4,5"/>
<!-- Node1 -->
<g id="node1" class="node"><title>Node1</title>
<polygon fill="#bfbfbf" stroke="black" points="195.5,-1 195.5,-35 314.5,-35 314.5,-1 195.5,-1"/>
<text text-anchor="start" x="203.5" y="-22" font-family="Helvetica,sans-Serif" font-size="10.00">ant::expconfig::detector</text>
<text text-anchor="middle" x="255" y="-9" font-family="Helvetica,sans-Serif" font-size="10.00">::PID_2004</text>
</g>
<!-- Node2 -->
<g id="node2" class="node"><title>Node2</title>
<a xlink:href="structant_1_1expconfig_1_1detector_1_1_p_i_d.html" target="_top" xlink:title="ant::expconfig::detector::PID">
<polygon fill="white" stroke="black" points="70.5,-86.5 70.5,-107.5 213.5,-107.5 213.5,-86.5 70.5,-86.5"/>
<text text-anchor="middle" x="142" y="-94.5" font-family="Helvetica,sans-Serif" font-size="10.00">ant::expconfig::detector::PID</text>
</a>
</g>
<!-- Node2&#45;&gt;Node1 -->
<g id="edge2" class="edge"><title>Node2&#45;&gt;Node1</title>
<path fill="none" stroke="midnightblue" d="M165.64,-80.4726C184.652,-67.1812 211.272,-48.5708 230.507,-35.1236"/>
<polygon fill="midnightblue" stroke="midnightblue" points="163.43,-77.7474 157.24,-86.3457 167.441,-83.4844 163.43,-77.7474"/>
</g>
<!-- Node3 -->
<g id="node4" class="node"><title>Node3</title>
<a xlink:href="structant_1_1_detector__t.html" target="_top" xlink:title="The Detector_t struct is the minimal base class for all detectors. ">
<polygon fill="white" stroke="black" points="9,-146.5 9,-167.5 91,-167.5 91,-146.5 9,-146.5"/>
<text text-anchor="middle" x="50" y="-154.5" font-family="Helvetica,sans-Serif" font-size="10.00">ant::Detector_t</text>
</a>
</g>
<!-- Node3&#45;&gt;Node2 -->
<g id="edge4" class="edge"><title>Node3&#45;&gt;Node2</title>
<path fill="none" stroke="midnightblue" d="M74.8917,-140.766C91.0357,-130.238 111.609,-116.82 125.695,-107.634"/>
<polygon fill="midnightblue" stroke="midnightblue" points="72.9119,-137.879 66.4478,-146.273 76.7358,-143.742 72.9119,-137.879"/>
</g>
<!-- Node4 -->
<g id="node6" class="node"><title>Node4</title>
<a xlink:href="classant_1_1printable__traits.html" target="_top" xlink:title="ant::printable_traits">
<polygon fill="white" stroke="black" points="0,-206.5 0,-227.5 100,-227.5 100,-206.5 0,-206.5"/>
<text text-anchor="middle" x="50" y="-214.5" font-family="Helvetica,sans-Serif" font-size="10.00">ant::printable_traits</text>
</a>
</g>
<!-- Node4&#45;&gt;Node3 -->
<g id="edge6" class="edge"><title>Node4&#45;&gt;Node3</title>
<path fill="none" stroke="midnightblue" d="M50,-196.231C50,-186.592 50,-175.544 50,-167.634"/>
<polygon fill="midnightblue" stroke="midnightblue" points="46.5001,-196.273 50,-206.273 53.5001,-196.273 46.5001,-196.273"/>
</g>
<!-- Node5 -->
<g id="node8" class="node"><title>Node5</title>
<a xlink:href="classant_1_1_unpacker_acqu_config.html" target="_top" xlink:title="ant::UnpackerAcquConfig">
<polygon fill="white" stroke="black" points="108.5,-146.5 108.5,-167.5 237.5,-167.5 237.5,-146.5 108.5,-146.5"/>
<text text-anchor="middle" x="173" y="-154.5" font-family="Helvetica,sans-Serif" font-size="10.00">ant::UnpackerAcquConfig</text>
</a>
</g>
<!-- Node5&#45;&gt;Node2 -->
<g id="edge8" class="edge"><title>Node5&#45;&gt;Node2</title>
<path fill="none" stroke="midnightblue" d="M162.749,-137.16C157.659,-127.308 151.713,-115.8 147.494,-107.634"/>
<polygon fill="midnightblue" stroke="midnightblue" points="159.758,-138.996 167.458,-146.273 165.977,-135.782 159.758,-138.996"/>
</g>
<!-- Node6 -->
<g id="node10" class="node"><title>Node6</title>
<polygon fill="white" stroke="#bfbfbf" points="230.5,-86.5 230.5,-107.5 355.5,-107.5 355.5,-86.5 230.5,-86.5"/>
<text text-anchor="middle" x="293" y="-94.5" font-family="Helvetica,sans-Serif" font-size="10.00">std::vector&lt; Element_t &gt;</text>
</g>
<!-- Node6&#45;&gt;Node1 -->
<g id="edge10" class="edge"><title>Node6&#45;&gt;Node1</title>
<path fill="none" stroke="#9a32cd" stroke-dasharray="5,2" d="M283.532,-77.3157C277.294,-64.3486 269.207,-47.5364 263.237,-35.1236"/>
<polygon fill="#9a32cd" stroke="#9a32cd" points="280.386,-78.8512 287.875,-86.3457 286.694,-75.8169 280.386,-78.8512"/>
<text text-anchor="middle" x="308.5" y="-58.5" font-family="Helvetica,sans-Serif" font-size="10.00"> elements_init</text>
</g>
</g>
</svg>
