<?xml version="1.0" encoding="UTF-8" standalone="no"?>
<!DOCTYPE svg PUBLIC "-//W3C//DTD SVG 1.1//EN"
 "http://www.w3.org/Graphics/SVG/1.1/DTD/svg11.dtd">
<!-- Generated by graphviz version 2.26.3 (20100126.1600)
 -->
<!-- Title: GunAction Pages: 1 -->
<svg width="304pt" height="248pt"
 viewBox="0.00 0.00 304.00 248.00" xmlns="http://www.w3.org/2000/svg" xmlns:xlink="http://www.w3.org/1999/xlink">
<g id="graph1" class="graph" transform="scale(1 1) rotate(0) translate(4 244)">
<title>GunAction</title>
<polygon fill="white" stroke="white" points="-4,5 -4,-244 301,-244 301,5 -4,5"/>
<!-- Node1 -->
<g id="node1" class="node"><title>Node1</title>
<polygon fill="#bfbfbf" stroke="black" points="87,-0.5 87,-21.5 149,-21.5 149,-0.5 87,-0.5"/>
<text text-anchor="middle" x="118" y="-8.5" font-family="Helvetica,sans-Serif" font-size="10.00">GunAction</text>
</g>
<!-- Node2 -->
<g id="node2" class="node"><title>Node2</title>
<a xlink:href="struct_action.html" target="_top" xlink:title="Action">
<polygon fill="white" stroke="black" points="0,-72.5 0,-93.5 44,-93.5 44,-72.5 0,-72.5"/>
<text text-anchor="middle" x="22" y="-80.5" font-family="Helvetica,sans-Serif" font-size="10.00">Action</text>
</a>
</g>
<!-- Node2&#45;&gt;Node1 -->
<g id="edge2" class="edge"><title>Node2&#45;&gt;Node1</title>
<path fill="none" stroke="midnightblue" d="M44.5285,-66.1037C62.8547,-52.359 88.1547,-33.384 103.777,-21.6674"/>
<polygon fill="midnightblue" stroke="midnightblue" points="42.0651,-63.5761 36.1651,-72.3762 46.2652,-69.1761 42.0651,-63.5761"/>
</g>
<!-- Node3 -->
<g id="node4" class="node"><title>Node3</title>
<a xlink:title="STL class. ">
<polygon fill="white" stroke="#bfbfbf" points="88,-144.5 88,-165.5 148,-165.5 148,-144.5 88,-144.5"/>
<text text-anchor="middle" x="118" y="-152.5" font-family="Helvetica,sans-Serif" font-size="10.00">std::string</text>
</a>
</g>
<!-- Node3&#45;&gt;Node2 -->
<g id="edge4" class="edge"><title>Node3&#45;&gt;Node2</title>
<path fill="none" stroke="#9a32cd" stroke-dasharray="5,2" d="M95.4715,-138.104C77.1453,-124.359 51.8453,-105.384 36.2232,-93.6674"/>
<polygon fill="#9a32cd" stroke="#9a32cd" points="93.7348,-141.176 103.835,-144.376 97.9349,-135.576 93.7348,-141.176"/>
<text text-anchor="middle" x="94" y="-116.5" font-family="Helvetica,sans-Serif" font-size="10.00"> outfile</text>
</g>
<!-- Node5 -->
<g id="node8" class="node"><title>Node5</title>
<polygon fill="white" stroke="#bfbfbf" points="61.5,-72.5 61.5,-93.5 174.5,-93.5 174.5,-72.5 61.5,-72.5"/>
<text text-anchor="middle" x="118" y="-80.5" font-family="Helvetica,sans-Serif" font-size="10.00">std::map&lt; string, int &gt;</text>
</g>
<!-- Node3&#45;&gt;Node5 -->
<g id="edge10" class="edge"><title>Node3&#45;&gt;Node5</title>
<path fill="none" stroke="#9a32cd" stroke-dasharray="5,2" d="M118,-134.235C118,-120.969 118,-104.319 118,-93.6674"/>
<polygon fill="#9a32cd" stroke="#9a32cd" points="114.5,-134.376 118,-144.376 121.5,-134.376 114.5,-134.376"/>
<text text-anchor="middle" x="130.5" y="-116.5" font-family="Helvetica,sans-Serif" font-size="10.00"> keys</text>
</g>
<!-- Node6 -->
<g id="node11" class="node"><title>Node6</title>
<polygon fill="white" stroke="#bfbfbf" points="191.5,-72.5 191.5,-93.5 296.5,-93.5 296.5,-72.5 191.5,-72.5"/>
<text text-anchor="middle" x="244" y="-80.5" font-family="Helvetica,sans-Serif" font-size="10.00">std::vector&lt; string &gt;</text>
</g>
<!-- Node3&#45;&gt;Node6 -->
<g id="edge14" class="edge"><title>Node3&#45;&gt;Node6</title>
<path fill="none" stroke="#9a32cd" stroke-dasharray="5,2" d="M145.301,-139.399C169.496,-125.574 204.176,-105.757 225.332,-93.6674"/>
<polygon fill="#9a32cd" stroke="#9a32cd" points="143.538,-136.376 136.592,-144.376 147.011,-142.454 143.538,-136.376"/>
<text text-anchor="middle" x="213.5" y="-116.5" font-family="Helvetica,sans-Serif" font-size="10.00"> elements</text>
</g>
<!-- Node4 -->
<g id="node6" class="node"><title>Node4</title>
<a xlink:title="STL class. ">
<polygon fill="white" stroke="#bfbfbf" points="70.5,-205 70.5,-239 165.5,-239 165.5,-205 70.5,-205"/>
<text text-anchor="start" x="78.5" y="-226" font-family="Helvetica,sans-Serif" font-size="10.00">std::basic_string&lt;</text>
<text text-anchor="middle" x="118" y="-213" font-family="Helvetica,sans-Serif" font-size="10.00"> char &gt;</text>
</a>
</g>
<!-- Node4&#45;&gt;Node3 -->
<g id="edge6" class="edge"><title>Node4&#45;&gt;Node3</title>
<path fill="none" stroke="midnightblue" d="M118,-194.534C118,-184.306 118,-173.301 118,-165.506"/>
<polygon fill="midnightblue" stroke="midnightblue" points="114.5,-194.746 118,-204.746 121.5,-194.746 114.5,-194.746"/>
</g>
<!-- Node5&#45;&gt;Node1 -->
<g id="edge8" class="edge"><title>Node5&#45;&gt;Node1</title>
<path fill="none" stroke="#9a32cd" stroke-dasharray="5,2" d="M118,-62.2348C118,-48.969 118,-32.3188 118,-21.6674"/>
<polygon fill="#9a32cd" stroke="#9a32cd" points="114.5,-62.3761 118,-72.3762 121.5,-62.3762 114.5,-62.3761"/>
<text text-anchor="middle" x="160" y="-44.5" font-family="Helvetica,sans-Serif" font-size="10.00"> available_particles</text>
</g>
<!-- Node6&#45;&gt;Node1 -->
<g id="edge12" class="edge"><title>Node6&#45;&gt;Node1</title>
<path fill="none" stroke="#9a32cd" stroke-dasharray="5,2" d="M230.956,-64.1435C224.324,-55.7488 215.631,-46.3473 206,-40 188.808,-28.6698 166.808,-21.4198 149.106,-17.0024"/>
<polygon fill="#9a32cd" stroke="#9a32cd" points="228.294,-66.4289 237.075,-72.357 233.908,-62.2468 228.294,-66.4289"/>
<text text-anchor="middle" x="241" y="-44.5" font-family="Helvetica,sans-Serif" font-size="10.00"> particles</text>
</g>
</g>
</svg>
