<?xml version="1.0" encoding="UTF-8" standalone="no"?>
<!DOCTYPE svg PUBLIC "-//W3C//DTD SVG 1.1//EN"
 "http://www.w3.org/Graphics/SVG/1.1/DTD/svg11.dtd">
<!-- Generated by graphviz version 2.26.3 (20100126.1600)
 -->
<!-- Title: ant::TAntHeader Pages: 1 -->
<svg width="180pt" height="88pt"
 viewBox="0.00 0.00 180.00 88.00" xmlns="http://www.w3.org/2000/svg" xmlns:xlink="http://www.w3.org/1999/xlink">
<g id="graph1" class="graph" transform="scale(1 1) rotate(0) translate(4 84)">
<title>ant::TAntHeader</title>
<polygon fill="white" stroke="white" points="-4,5 -4,-84 177,-84 177,5 -4,5"/>
<!-- Node1 -->
<g id="node1" class="node"><title>Node1</title>
<polygon fill="#bfbfbf" stroke="black" points="29.5,-0.5 29.5,-21.5 118.5,-21.5 118.5,-0.5 29.5,-0.5"/>
<text text-anchor="middle" x="74" y="-8.5" font-family="Helvetica,sans-Serif" font-size="10.00">ant::TAntHeader</text>
</g>
<!-- Node2 -->
<g id="node2" class="node"><title>Node2</title>
<polygon fill="white" stroke="#bfbfbf" points="0,-58.5 0,-79.5 54,-79.5 54,-58.5 0,-58.5"/>
<text text-anchor="middle" x="27" y="-66.5" font-family="Helvetica,sans-Serif" font-size="10.00">TNamed</text>
</g>
<!-- Node2&#45;&gt;Node1 -->
<g id="edge2" class="edge"><title>Node2&#45;&gt;Node1</title>
<path fill="none" stroke="midnightblue" d="M41.9584,-50.5407C49.707,-40.9786 58.8898,-29.6467 65.4341,-21.5707"/>
<polygon fill="midnightblue" stroke="midnightblue" points="39.1971,-48.389 35.6205,-58.3619 44.6357,-52.7961 39.1971,-48.389"/>
</g>
<!-- Node3 -->
<g id="node4" class="node"><title>Node3</title>
<a xlink:href="classant_1_1printable__traits.html" target="_top" xlink:title="ant::printable_traits">
<polygon fill="white" stroke="black" points="72,-58.5 72,-79.5 172,-79.5 172,-58.5 72,-58.5"/>
<text text-anchor="middle" x="122" y="-66.5" font-family="Helvetica,sans-Serif" font-size="10.00">ant::printable_traits</text>
</a>
</g>
<!-- Node3&#45;&gt;Node1 -->
<g id="edge4" class="edge"><title>Node3&#45;&gt;Node1</title>
<path fill="none" stroke="midnightblue" d="M106.723,-50.5407C98.8098,-40.9786 89.4317,-29.6467 82.7481,-21.5707"/>
<polygon fill="midnightblue" stroke="midnightblue" points="104.124,-52.8894 113.196,-58.3619 109.517,-48.4264 104.124,-52.8894"/>
</g>
</g>
</svg>
