<?xml version="1.0" encoding="UTF-8" standalone="no"?>
<!DOCTYPE svg PUBLIC "-//W3C//DTD SVG 1.1//EN"
 "http://www.w3.org/Graphics/SVG/1.1/DTD/svg11.dtd">
<!-- Generated by graphviz version 2.26.3 (20100126.1600)
 -->
<!-- Title: ant::analysis::physics::debugTaggEff Pages: 1 -->
<svg width="291pt" height="608pt"
 viewBox="0.00 0.00 291.00 608.00" xmlns="http://www.w3.org/2000/svg" xmlns:xlink="http://www.w3.org/1999/xlink">
<g id="graph1" class="graph" transform="scale(1 1) rotate(0) translate(4 604)">
<title>ant::analysis::physics::debugTaggEff</title>
<polygon fill="white" stroke="white" points="-4,5 -4,-604 288,-604 288,5 -4,5"/>
<!-- Node1 -->
<g id="node1" class="node"><title>Node1</title>
<polygon fill="#bfbfbf" stroke="black" points="93,-1 93,-35 205,-35 205,-1 93,-1"/>
<text text-anchor="start" x="101" y="-22" font-family="Helvetica,sans-Serif" font-size="10.00">ant::analysis::physics</text>
<text text-anchor="middle" x="149" y="-9" font-family="Helvetica,sans-Serif" font-size="10.00">::debugTaggEff</text>
</g>
<!-- Node2 -->
<g id="node2" class="node"><title>Node2</title>
<a xlink:href="classant_1_1analysis_1_1_physics.html" target="_top" xlink:title="ant::analysis::Physics">
<polygon fill="white" stroke="black" points="4.5,-93.5 4.5,-114.5 117.5,-114.5 117.5,-93.5 4.5,-93.5"/>
<text text-anchor="middle" x="61" y="-101.5" font-family="Helvetica,sans-Serif" font-size="10.00">ant::analysis::Physics</text>
</a>
</g>
<!-- Node2&#45;&gt;Node1 -->
<g id="edge2" class="edge"><title>Node2&#45;&gt;Node1</title>
<path fill="none" stroke="midnightblue" d="M79.1426,-86.2698C94.465,-71.2955 116.272,-49.9845 131.43,-35.1709"/>
<polygon fill="midnightblue" stroke="midnightblue" points="76.4962,-83.9622 71.7905,-93.4547 81.3887,-88.9685 76.4962,-83.9622"/>
</g>
<!-- Node3 -->
<g id="node4" class="node"><title>Node3</title>
<a xlink:href="classant_1_1analysis_1_1_histogram_factory.html" target="_top" xlink:title="ant::analysis::Histogram\lFactory">
<polygon fill="white" stroke="black" points="-0.5,-173 -0.5,-207 122.5,-207 122.5,-173 -0.5,-173"/>
<text text-anchor="start" x="7.5" y="-194" font-family="Helvetica,sans-Serif" font-size="10.00">ant::analysis::Histogram</text>
<text text-anchor="middle" x="61" y="-181" font-family="Helvetica,sans-Serif" font-size="10.00">Factory</text>
</a>
</g>
<!-- Node3&#45;&gt;Node2 -->
<g id="edge4" class="edge"><title>Node3&#45;&gt;Node2</title>
<path fill="none" stroke="#9a32cd" stroke-dasharray="5,2" d="M61,-162.56C61,-146.365 61,-126.766 61,-114.848"/>
<polygon fill="#9a32cd" stroke="#9a32cd" points="57.5001,-162.597 61,-172.597 64.5001,-162.597 57.5001,-162.597"/>
<text text-anchor="middle" x="80" y="-144.5" font-family="Helvetica,sans-Serif" font-size="10.00"> HistFac</text>
</g>
<!-- Node4 -->
<g id="node6" class="node"><title>Node4</title>
<a xlink:href="structant_1_1analysis_1_1physics_1_1debug_tagg_eff_1_1tagg_eff_tree__t.html" target="_top" xlink:title="ant::analysis::physics\l::debugTaggEff::taggEffTree_t">
<polygon fill="white" stroke="black" points="134.5,-87 134.5,-121 283.5,-121 283.5,-87 134.5,-87"/>
<text text-anchor="start" x="142.5" y="-108" font-family="Helvetica,sans-Serif" font-size="10.00">ant::analysis::physics</text>
<text text-anchor="middle" x="209" y="-95" font-family="Helvetica,sans-Serif" font-size="10.00">::debugTaggEff::taggEffTree_t</text>
</a>
</g>
<!-- Node4&#45;&gt;Node1 -->
<g id="edge6" class="edge"><title>Node4&#45;&gt;Node1</title>
<path fill="none" stroke="#9a32cd" stroke-dasharray="5,2" d="M191.097,-78.3391C181.344,-64.3598 169.542,-47.4437 160.919,-35.084"/>
<polygon fill="#9a32cd" stroke="#9a32cd" points="188.266,-80.398 196.858,-86.5966 194.007,-76.3927 188.266,-80.398"/>
<text text-anchor="middle" x="211" y="-58.5" font-family="Helvetica,sans-Serif" font-size="10.00"> TaggEffTree</text>
</g>
<!-- Node5 -->
<g id="node8" class="node"><title>Node5</title>
<a xlink:href="structant_1_1_wrap_t_tree.html" target="_top" xlink:title="The WrapTTree struct simplifies TTree handling in physics classes. ">
<polygon fill="white" stroke="black" points="166.5,-179.5 166.5,-200.5 251.5,-200.5 251.5,-179.5 166.5,-179.5"/>
<text text-anchor="middle" x="209" y="-187.5" font-family="Helvetica,sans-Serif" font-size="10.00">ant::WrapTTree</text>
</a>
</g>
<!-- Node5&#45;&gt;Node4 -->
<g id="edge8" class="edge"><title>Node5&#45;&gt;Node4</title>
<path fill="none" stroke="midnightblue" d="M209,-169.31C209,-154.585 209,-135.033 209,-121.171"/>
<polygon fill="midnightblue" stroke="midnightblue" points="205.5,-169.455 209,-179.455 212.5,-169.455 205.5,-169.455"/>
</g>
<!-- Node6 -->
<g id="node10" class="node"><title>Node6</title>
<polygon fill="white" stroke="#bfbfbf" points="139,-259 139,-293 279,-293 279,-259 139,-259"/>
<text text-anchor="start" x="147" y="-280" font-family="Helvetica,sans-Serif" font-size="10.00">std::vector&lt; ant::WrapTTree</text>
<text text-anchor="middle" x="209" y="-267" font-family="Helvetica,sans-Serif" font-size="10.00">::ROOT_branch_t &gt;</text>
</g>
<!-- Node6&#45;&gt;Node5 -->
<g id="edge10" class="edge"><title>Node6&#45;&gt;Node5</title>
<path fill="none" stroke="#9a32cd" stroke-dasharray="5,2" d="M209,-248.56C209,-232.365 209,-212.766 209,-200.848"/>
<polygon fill="#9a32cd" stroke="#9a32cd" points="205.5,-248.597 209,-258.597 212.5,-248.597 205.5,-248.597"/>
<text text-anchor="middle" x="230.5" y="-230.5" font-family="Helvetica,sans-Serif" font-size="10.00"> branches</text>
</g>
<!-- Node7 -->
<g id="node12" class="node"><title>Node7</title>
<a xlink:href="structant_1_1_wrap_t_tree_1_1_r_o_o_t__branch__t.html" target="_top" xlink:title="ant::WrapTTree::ROOT\l_branch_t">
<polygon fill="white" stroke="black" points="149.5,-345 149.5,-379 268.5,-379 268.5,-345 149.5,-345"/>
<text text-anchor="start" x="157.5" y="-366" font-family="Helvetica,sans-Serif" font-size="10.00">ant::WrapTTree::ROOT</text>
<text text-anchor="middle" x="209" y="-353" font-family="Helvetica,sans-Serif" font-size="10.00">_branch_t</text>
</a>
</g>
<!-- Node7&#45;&gt;Node6 -->
<g id="edge12" class="edge"><title>Node7&#45;&gt;Node6</title>
<path fill="none" stroke="#9a32cd" stroke-dasharray="5,2" d="M209,-334.342C209,-320.774 209,-304.861 209,-293.084"/>
<polygon fill="#9a32cd" stroke="#9a32cd" points="205.5,-334.597 209,-344.597 212.5,-334.597 205.5,-334.597"/>
<text text-anchor="middle" x="230.5" y="-316.5" font-family="Helvetica,sans-Serif" font-size="10.00"> elements</text>
</g>
<!-- Node8 -->
<g id="node14" class="node"><title>Node8</title>
<a xlink:href="structant_1_1_wrap_t_tree_1_1_r_o_o_t__branchinfo__t.html" target="_top" xlink:title="ant::WrapTTree::ROOT\l_branchinfo_t">
<polygon fill="white" stroke="black" points="149.5,-419 149.5,-453 268.5,-453 268.5,-419 149.5,-419"/>
<text text-anchor="start" x="157.5" y="-440" font-family="Helvetica,sans-Serif" font-size="10.00">ant::WrapTTree::ROOT</text>
<text text-anchor="middle" x="209" y="-427" font-family="Helvetica,sans-Serif" font-size="10.00">_branchinfo_t</text>
</a>
</g>
<!-- Node8&#45;&gt;Node7 -->
<g id="edge14" class="edge"><title>Node8&#45;&gt;Node7</title>
<path fill="none" stroke="midnightblue" d="M209,-408.627C209,-398.725 209,-387.834 209,-379.07"/>
<polygon fill="midnightblue" stroke="midnightblue" points="205.5,-408.837 209,-418.837 212.5,-408.837 205.5,-408.837"/>
</g>
<!-- Node9 -->
<g id="node16" class="node"><title>Node9</title>
<a xlink:title="STL class. ">
<polygon fill="white" stroke="#bfbfbf" points="179,-504.5 179,-525.5 239,-525.5 239,-504.5 179,-504.5"/>
<text text-anchor="middle" x="209" y="-512.5" font-family="Helvetica,sans-Serif" font-size="10.00">std::string</text>
</a>
</g>
<!-- Node9&#45;&gt;Node8 -->
<g id="edge16" class="edge"><title>Node9&#45;&gt;Node8</title>
<path fill="none" stroke="#9a32cd" stroke-dasharray="5,2" d="M209,-494.162C209,-481.363 209,-465.171 209,-453.124"/>
<polygon fill="#9a32cd" stroke="#9a32cd" points="205.5,-494.346 209,-504.346 212.5,-494.346 205.5,-494.346"/>
<text text-anchor="middle" x="224" y="-476.5" font-family="Helvetica,sans-Serif" font-size="10.00"> Name</text>
</g>
<!-- Node10 -->
<g id="node18" class="node"><title>Node10</title>
<a xlink:title="STL class. ">
<polygon fill="white" stroke="#bfbfbf" points="161.5,-565 161.5,-599 256.5,-599 256.5,-565 161.5,-565"/>
<text text-anchor="start" x="169.5" y="-586" font-family="Helvetica,sans-Serif" font-size="10.00">std::basic_string&lt;</text>
<text text-anchor="middle" x="209" y="-573" font-family="Helvetica,sans-Serif" font-size="10.00"> char &gt;</text>
</a>
</g>
<!-- Node10&#45;&gt;Node9 -->
<g id="edge18" class="edge"><title>Node10&#45;&gt;Node9</title>
<path fill="none" stroke="midnightblue" d="M209,-554.534C209,-544.306 209,-533.301 209,-525.506"/>
<polygon fill="midnightblue" stroke="midnightblue" points="205.5,-554.746 209,-564.746 212.5,-554.746 205.5,-554.746"/>
</g>
</g>
</svg>
