<?xml version="1.0" encoding="UTF-8" standalone="no"?>
<!DOCTYPE svg PUBLIC "-//W3C//DTD SVG 1.1//EN"
 "http://www.w3.org/Graphics/SVG/1.1/DTD/svg11.dtd">
<!-- Generated by graphviz version 2.26.3 (20100126.1600)
 -->
<!-- Title: ant::reconstruct::clustering::bump_t Pages: 1 -->
<svg width="214pt" height="176pt"
 viewBox="0.00 0.00 214.00 176.00" xmlns="http://www.w3.org/2000/svg" xmlns:xlink="http://www.w3.org/1999/xlink">
<g id="graph1" class="graph" transform="scale(1 1) rotate(0) translate(4 172)">
<title>ant::reconstruct::clustering::bump_t</title>
<polygon fill="white" stroke="white" points="-4,5 -4,-172 211,-172 211,5 -4,5"/>
<!-- Node1 -->
<g id="node1" class="node"><title>Node1</title>
<polygon fill="#bfbfbf" stroke="black" points="52.5,-1 52.5,-35 185.5,-35 185.5,-1 52.5,-1"/>
<text text-anchor="start" x="60.5" y="-22" font-family="Helvetica,sans-Serif" font-size="10.00">ant::reconstruct::clustering</text>
<text text-anchor="middle" x="119" y="-9" font-family="Helvetica,sans-Serif" font-size="10.00">::bump_t</text>
</g>
<!-- Node2 -->
<g id="node2" class="node"><title>Node2</title>
<a xlink:href="structant_1_1vec3.html" target="_top" xlink:title="ant::vec3">
<polygon fill="white" stroke="black" points="21.5,-86.5 21.5,-107.5 78.5,-107.5 78.5,-86.5 21.5,-86.5"/>
<text text-anchor="middle" x="50" y="-94.5" font-family="Helvetica,sans-Serif" font-size="10.00">ant::vec3</text>
</a>
</g>
<!-- Node2&#45;&gt;Node1 -->
<g id="edge2" class="edge"><title>Node2&#45;&gt;Node1</title>
<path fill="none" stroke="#9a32cd" stroke-dasharray="5,2" d="M66.2022,-78.4497C77.6512,-65.3414 92.8835,-47.9015 104.044,-35.1236"/>
<polygon fill="#9a32cd" stroke="#9a32cd" points="63.2479,-76.5116 59.3056,-86.3457 68.5201,-81.1164 63.2479,-76.5116"/>
<text text-anchor="middle" x="106.5" y="-58.5" font-family="Helvetica,sans-Serif" font-size="10.00"> Position</text>
</g>
<!-- Node3 -->
<g id="node4" class="node"><title>Node3</title>
<a xlink:href="classant_1_1printable__traits.html" target="_top" xlink:title="ant::printable_traits">
<polygon fill="white" stroke="black" points="0,-146.5 0,-167.5 100,-167.5 100,-146.5 0,-146.5"/>
<text text-anchor="middle" x="50" y="-154.5" font-family="Helvetica,sans-Serif" font-size="10.00">ant::printable_traits</text>
</a>
</g>
<!-- Node3&#45;&gt;Node2 -->
<g id="edge4" class="edge"><title>Node3&#45;&gt;Node2</title>
<path fill="none" stroke="midnightblue" d="M50,-136.231C50,-126.592 50,-115.544 50,-107.634"/>
<polygon fill="midnightblue" stroke="midnightblue" points="46.5001,-136.273 50,-146.273 53.5001,-136.273 46.5001,-136.273"/>
</g>
<!-- Node4 -->
<g id="node6" class="node"><title>Node4</title>
<polygon fill="white" stroke="#bfbfbf" points="96,-86.5 96,-107.5 206,-107.5 206,-86.5 96,-86.5"/>
<text text-anchor="middle" x="151" y="-94.5" font-family="Helvetica,sans-Serif" font-size="10.00">std::vector&lt; double &gt;</text>
</g>
<!-- Node4&#45;&gt;Node1 -->
<g id="edge6" class="edge"><title>Node4&#45;&gt;Node1</title>
<path fill="none" stroke="#9a32cd" stroke-dasharray="5,2" d="M142.872,-76.9332C137.641,-64.0194 130.915,-47.4147 125.936,-35.1236"/>
<polygon fill="#9a32cd" stroke="#9a32cd" points="139.686,-78.3912 146.684,-86.3457 146.174,-75.7632 139.686,-78.3912"/>
<text text-anchor="middle" x="158" y="-58.5" font-family="Helvetica,sans-Serif" font-size="10.00"> Weights</text>
</g>
</g>
</svg>
