<?xml version="1.0" encoding="UTF-8" standalone="no"?>
<!DOCTYPE svg PUBLIC "-//W3C//DTD SVG 1.1//EN"
 "http://www.w3.org/Graphics/SVG/1.1/DTD/svg11.dtd">
<!-- Generated by graphviz version 2.26.3 (20100126.1600)
 -->
<!-- Title: ReconstructTester Pages: 1 -->
<svg width="904pt" height="290pt"
 viewBox="0.00 0.00 904.00 290.00" xmlns="http://www.w3.org/2000/svg" xmlns:xlink="http://www.w3.org/1999/xlink">
<g id="graph1" class="graph" transform="scale(1 1) rotate(0) translate(4 286)">
<title>ReconstructTester</title>
<polygon fill="white" stroke="white" points="-4,5 -4,-286 901,-286 901,5 -4,5"/>
<!-- Node1 -->
<g id="node1" class="node"><title>Node1</title>
<polygon fill="#bfbfbf" stroke="black" points="798,-140.5 798,-161.5 896,-161.5 896,-140.5 798,-140.5"/>
<text text-anchor="middle" x="847" y="-148.5" font-family="Helvetica,sans-Serif" font-size="10.00">ReconstructTester</text>
</g>
<!-- Node2 -->
<g id="node2" class="node"><title>Node2</title>
<a xlink:href="classant_1_1_reconstruct.html" target="_top" xlink:title="ant::Reconstruct">
<polygon fill="white" stroke="black" points="670.5,-140.5 670.5,-161.5 759.5,-161.5 759.5,-140.5 670.5,-140.5"/>
<text text-anchor="middle" x="715" y="-148.5" font-family="Helvetica,sans-Serif" font-size="10.00">ant::Reconstruct</text>
</a>
</g>
<!-- Node2&#45;&gt;Node1 -->
<g id="edge2" class="edge"><title>Node2&#45;&gt;Node1</title>
<path fill="none" stroke="midnightblue" d="M747.921,-139.137C771.545,-136.584 802.794,-137.017 823.828,-140.437"/>
<polygon fill="midnightblue" stroke="midnightblue" points="747.44,-135.67 737.993,-140.466 748.369,-142.608 747.44,-135.67"/>
</g>
<!-- Node2&#45;&gt;Node1 -->
<g id="edge30" class="edge"><title>Node2&#45;&gt;Node1</title>
<path fill="none" stroke="midnightblue" d="M769.958,-151C779.2,-151 788.74,-151 797.825,-151"/>
<polygon fill="midnightblue" stroke="midnightblue" points="769.689,-147.5 759.689,-151 769.689,-154.5 769.689,-147.5"/>
</g>
<!-- Node2&#45;&gt;Node1 -->
<g id="edge32" class="edge"><title>Node2&#45;&gt;Node1</title>
<path fill="none" stroke="midnightblue" d="M747.921,-162.863C771.545,-165.416 802.794,-164.983 823.828,-161.563"/>
<polygon fill="midnightblue" stroke="midnightblue" points="748.369,-159.392 737.993,-161.534 747.44,-166.33 748.369,-159.392"/>
</g>
<!-- Node3 -->
<g id="node4" class="node"><title>Node3</title>
<a xlink:href="structant_1_1_reconstruct__traits.html" target="_top" xlink:title="ant::Reconstruct_traits">
<polygon fill="white" stroke="black" points="418,-260.5 418,-281.5 534,-281.5 534,-260.5 418,-260.5"/>
<text text-anchor="middle" x="476" y="-268.5" font-family="Helvetica,sans-Serif" font-size="10.00">ant::Reconstruct_traits</text>
</a>
</g>
<!-- Node3&#45;&gt;Node2 -->
<g id="edge4" class="edge"><title>Node3&#45;&gt;Node2</title>
<path fill="none" stroke="midnightblue" d="M544.065,-262.001C578.383,-255.172 619.499,-243.336 652,-223 677.626,-206.965 698.657,-177.339 708.675,-161.551"/>
<polygon fill="midnightblue" stroke="midnightblue" points="543.293,-258.584 534.116,-263.879 544.592,-265.463 543.293,-258.584"/>
</g>
<!-- Node4 -->
<g id="node6" class="node"><title>Node4</title>
<polygon fill="white" stroke="#bfbfbf" points="406.5,-208 406.5,-242 545.5,-242 545.5,-208 406.5,-208"/>
<text text-anchor="start" x="414.5" y="-229" font-family="Helvetica,sans-Serif" font-size="10.00">std::unique_ptr&lt; reconstruct</text>
<text text-anchor="middle" x="476" y="-216" font-family="Helvetica,sans-Serif" font-size="10.00">::UpdateableManager &gt;</text>
</g>
<!-- Node4&#45;&gt;Node2 -->
<g id="edge6" class="edge"><title>Node4&#45;&gt;Node2</title>
<path fill="none" stroke="#9a32cd" stroke-dasharray="5,2" d="M555.661,-208.637C586.196,-201.445 621.106,-192.092 652,-181 666.936,-175.637 683.083,-167.907 695.29,-161.637"/>
<polygon fill="#9a32cd" stroke="#9a32cd" points="554.863,-205.229 545.911,-210.896 556.443,-212.048 554.863,-205.229"/>
<text text-anchor="middle" x="608" y="-210" font-family="Helvetica,sans-Serif" font-size="10.00"> updateablemanager</text>
</g>
<!-- Node5 -->
<g id="node8" class="node"><title>Node5</title>
<a xlink:href="classant_1_1reconstruct_1_1_updateable_manager.html" target="_top" xlink:title="ant::reconstruct::Updateable\lManager">
<polygon fill="white" stroke="black" points="214,-208 214,-242 354,-242 354,-208 214,-208"/>
<text text-anchor="start" x="222" y="-229" font-family="Helvetica,sans-Serif" font-size="10.00">ant::reconstruct::Updateable</text>
<text text-anchor="middle" x="284" y="-216" font-family="Helvetica,sans-Serif" font-size="10.00">Manager</text>
</a>
</g>
<!-- Node5&#45;&gt;Node4 -->
<g id="edge8" class="edge"><title>Node5&#45;&gt;Node4</title>
<path fill="none" stroke="#9a32cd" stroke-dasharray="5,2" d="M364.228,-225C378.23,-225 392.693,-225 406.38,-225"/>
<polygon fill="#9a32cd" stroke="#9a32cd" points="364.131,-221.5 354.131,-225 364.131,-228.5 364.131,-221.5"/>
<text text-anchor="middle" x="380" y="-229" font-family="Helvetica,sans-Serif" font-size="10.00"> ptr</text>
</g>
<!-- Node6 -->
<g id="node10" class="node"><title>Node6</title>
<a xlink:href="structant_1_1std__ext_1_1mapped__vectors.html" target="_top" xlink:title="The mapped_vectors struct provides fast access to a collection of vectors. ">
<polygon fill="white" stroke="black" points="416,-156 416,-190 536,-190 536,-156 416,-156"/>
<text text-anchor="start" x="424" y="-177" font-family="Helvetica,sans-Serif" font-size="10.00">ant::std_ext::mapped</text>
<text text-anchor="middle" x="476" y="-164" font-family="Helvetica,sans-Serif" font-size="10.00">_vectors&lt; Key, Value &gt;</text>
</a>
</g>
<!-- Node6&#45;&gt;Node2 -->
<g id="edge10" class="edge"><title>Node6&#45;&gt;Node2</title>
<path fill="none" stroke="#9a32cd" stroke-dasharray="5,2" d="M546.013,-166.555C586.215,-162.855 635.494,-158.319 670.439,-155.102"/>
<polygon fill="#9a32cd" stroke="#9a32cd" points="545.638,-163.075 536.001,-167.477 546.28,-170.045 545.638,-163.075"/>
<text text-anchor="middle" x="608" y="-168" font-family="Helvetica,sans-Serif" font-size="10.00"> sorted_readhits</text>
</g>
<!-- Node7 -->
<g id="node12" class="node"><title>Node7</title>
<polygon fill="white" stroke="#bfbfbf" points="406.5,-104 406.5,-138 545.5,-138 545.5,-104 406.5,-104"/>
<text text-anchor="start" x="414.5" y="-125" font-family="Helvetica,sans-Serif" font-size="10.00">std::unique_ptr&lt; reconstruct</text>
<text text-anchor="middle" x="476" y="-112" font-family="Helvetica,sans-Serif" font-size="10.00">::CandidateBuilder &gt;</text>
</g>
<!-- Node7&#45;&gt;Node2 -->
<g id="edge12" class="edge"><title>Node7&#45;&gt;Node2</title>
<path fill="none" stroke="#9a32cd" stroke-dasharray="5,2" d="M555.627,-127.675C585.876,-130.596 620.599,-134.412 652,-139 657.949,-139.869 664.192,-140.906 670.339,-142"/>
<polygon fill="#9a32cd" stroke="#9a32cd" points="555.838,-124.18 545.552,-126.719 555.176,-131.148 555.838,-124.18"/>
<text text-anchor="middle" x="608" y="-143" font-family="Helvetica,sans-Serif" font-size="10.00"> candidatebuilder</text>
</g>
<!-- Node8 -->
<g id="node14" class="node"><title>Node8</title>
<a xlink:href="classant_1_1reconstruct_1_1_candidate_builder.html" target="_top" xlink:title="ant::reconstruct::Candidate\lBuilder">
<polygon fill="white" stroke="black" points="216.5,-111 216.5,-145 351.5,-145 351.5,-111 216.5,-111"/>
<text text-anchor="start" x="224.5" y="-132" font-family="Helvetica,sans-Serif" font-size="10.00">ant::reconstruct::Candidate</text>
<text text-anchor="middle" x="284" y="-119" font-family="Helvetica,sans-Serif" font-size="10.00">Builder</text>
</a>
</g>
<!-- Node8&#45;&gt;Node7 -->
<g id="edge14" class="edge"><title>Node8&#45;&gt;Node7</title>
<path fill="none" stroke="#9a32cd" stroke-dasharray="5,2" d="M361.783,-125.164C376.521,-124.627 391.854,-124.068 406.323,-123.54"/>
<polygon fill="#9a32cd" stroke="#9a32cd" points="361.558,-121.67 351.692,-125.532 361.813,-128.665 361.558,-121.67"/>
<text text-anchor="middle" x="380" y="-128" font-family="Helvetica,sans-Serif" font-size="10.00"> ptr</text>
</g>
<!-- Node9 -->
<g id="node16" class="node"><title>Node9</title>
<a xlink:href="structant_1_1_exp_config_1_1_setup_1_1candidatebuilder__config__t.html" target="_top" xlink:title="ant::ExpConfig::Setup\l::candidatebuilder_config_t">
<polygon fill="white" stroke="black" points="0.5,-111 0.5,-145 133.5,-145 133.5,-111 0.5,-111"/>
<text text-anchor="start" x="8.5" y="-132" font-family="Helvetica,sans-Serif" font-size="10.00">ant::ExpConfig::Setup</text>
<text text-anchor="middle" x="67" y="-119" font-family="Helvetica,sans-Serif" font-size="10.00">::candidatebuilder_config_t</text>
</a>
</g>
<!-- Node9&#45;&gt;Node8 -->
<g id="edge16" class="edge"><title>Node9&#45;&gt;Node8</title>
<path fill="none" stroke="#9a32cd" stroke-dasharray="5,2" d="M143.607,-128C167.352,-128 193.335,-128 216.421,-128"/>
<polygon fill="#9a32cd" stroke="#9a32cd" points="143.582,-124.5 133.582,-128 143.582,-131.5 143.582,-124.5"/>
<text text-anchor="middle" x="174" y="-132" font-family="Helvetica,sans-Serif" font-size="10.00"> config</text>
</g>
<!-- Node10 -->
<g id="node18" class="node"><title>Node10</title>
<a xlink:href="structant_1_1_reconstruct_1_1sorted__detectors__t.html" target="_top" xlink:title="ant::Reconstruct::sorted\l_detectors_t">
<polygon fill="white" stroke="black" points="415,-52 415,-86 537,-86 537,-52 415,-52"/>
<text text-anchor="start" x="423" y="-73" font-family="Helvetica,sans-Serif" font-size="10.00">ant::Reconstruct::sorted</text>
<text text-anchor="middle" x="476" y="-60" font-family="Helvetica,sans-Serif" font-size="10.00">_detectors_t</text>
</a>
</g>
<!-- Node10&#45;&gt;Node2 -->
<g id="edge18" class="edge"><title>Node10&#45;&gt;Node2</title>
<path fill="none" stroke="#9a32cd" stroke-dasharray="5,2" d="M546.998,-80.3697C579.767,-87.0124 618.699,-96.9213 652,-111 670.139,-118.668 688.948,-131.332 701.236,-140.356"/>
<polygon fill="#9a32cd" stroke="#9a32cd" points="547.527,-76.9067 537.039,-78.412 546.176,-83.7752 547.527,-76.9067"/>
<text text-anchor="middle" x="608" y="-115" font-family="Helvetica,sans-Serif" font-size="10.00"> sorted_detectors</text>
</g>
<!-- Node11 -->
<g id="node20" class="node"><title>Node11</title>
<a xlink:title="STL class. ">
<polygon fill="white" stroke="#bfbfbf" points="233,-45.5 233,-92.5 335,-92.5 335,-45.5 233,-45.5"/>
<text text-anchor="start" x="241" y="-79.5" font-family="Helvetica,sans-Serif" font-size="10.00">std::map&lt; Detector</text>
<text text-anchor="start" x="241" y="-66.5" font-family="Helvetica,sans-Serif" font-size="10.00">_t::Type_t, detector</text>
<text text-anchor="middle" x="284" y="-53.5" font-family="Helvetica,sans-Serif" font-size="10.00">_ptr_t &gt;</text>
</a>
</g>
<!-- Node11&#45;&gt;Node10 -->
<g id="edge20" class="edge"><title>Node11&#45;&gt;Node10</title>
<path fill="none" stroke="midnightblue" d="M345.482,-69C367.617,-69 392.576,-69 414.695,-69"/>
<polygon fill="midnightblue" stroke="midnightblue" points="345.2,-65.5001 335.2,-69 345.2,-72.5001 345.2,-65.5001"/>
</g>
<!-- Node12 -->
<g id="node22" class="node"><title>Node12</title>
<polygon fill="white" stroke="#bfbfbf" points="52.5,-65.5 52.5,-86.5 81.5,-86.5 81.5,-65.5 52.5,-65.5"/>
<text text-anchor="middle" x="67" y="-73.5" font-family="Helvetica,sans-Serif" font-size="10.00">K</text>
</g>
<!-- Node12&#45;&gt;Node11 -->
<g id="edge22" class="edge"><title>Node12&#45;&gt;Node11</title>
<path fill="none" stroke="#9a32cd" stroke-dasharray="5,2" d="M91.5997,-75.2065C125.732,-74.1054 188.271,-72.088 232.78,-70.6523"/>
<polygon fill="#9a32cd" stroke="#9a32cd" points="91.4569,-71.7092 81.5749,-75.5298 91.6826,-78.7055 91.4569,-71.7092"/>
<text text-anchor="middle" x="174" y="-77" font-family="Helvetica,sans-Serif" font-size="10.00"> keys</text>
</g>
<!-- Node13 -->
<g id="node24" class="node"><title>Node13</title>
<polygon fill="white" stroke="#bfbfbf" points="52.5,-25.5 52.5,-46.5 81.5,-46.5 81.5,-25.5 52.5,-25.5"/>
<text text-anchor="middle" x="67" y="-33.5" font-family="Helvetica,sans-Serif" font-size="10.00">T</text>
</g>
<!-- Node13&#45;&gt;Node11 -->
<g id="edge24" class="edge"><title>Node13&#45;&gt;Node11</title>
<path fill="none" stroke="#9a32cd" stroke-dasharray="5,2" d="M91.8229,-39.2374C117.822,-42.6811 159.827,-48.3947 196,-54 207.946,-55.8511 220.782,-57.9667 232.856,-60.0138"/>
<polygon fill="#9a32cd" stroke="#9a32cd" points="92.0957,-35.7432 81.7243,-37.9074 91.1816,-42.6833 92.0957,-35.7432"/>
<text text-anchor="middle" x="174" y="-58" font-family="Helvetica,sans-Serif" font-size="10.00"> elements</text>
</g>
<!-- Node14 -->
<g id="node26" class="node"><title>Node14</title>
<polygon fill="white" stroke="#bfbfbf" points="406.5,-0 406.5,-34 545.5,-34 545.5,-0 406.5,-0"/>
<text text-anchor="start" x="414.5" y="-21" font-family="Helvetica,sans-Serif" font-size="10.00">std::unique_ptr&lt; reconstruct</text>
<text text-anchor="middle" x="476" y="-8" font-family="Helvetica,sans-Serif" font-size="10.00">::Clustering &gt;</text>
</g>
<!-- Node14&#45;&gt;Node2 -->
<g id="edge26" class="edge"><title>Node14&#45;&gt;Node2</title>
<path fill="none" stroke="#9a32cd" stroke-dasharray="5,2" d="M555.444,-28.1795C587.487,-35.4715 623.53,-47.4366 652,-67 680.245,-86.4086 700.982,-122.613 710.005,-140.477"/>
<polygon fill="#9a32cd" stroke="#9a32cd" points="556.154,-24.7523 545.64,-26.0633 554.677,-31.5947 556.154,-24.7523"/>
<text text-anchor="middle" x="608" y="-71" font-family="Helvetica,sans-Serif" font-size="10.00"> clustering</text>
</g>
<!-- Node15 -->
<g id="node28" class="node"><title>Node15</title>
<a xlink:href="classant_1_1reconstruct_1_1_clustering.html" target="_top" xlink:title="ant::reconstruct::Clustering">
<polygon fill="white" stroke="black" points="216.5,-5.5 216.5,-26.5 351.5,-26.5 351.5,-5.5 216.5,-5.5"/>
<text text-anchor="middle" x="284" y="-13.5" font-family="Helvetica,sans-Serif" font-size="10.00">ant::reconstruct::Clustering</text>
</a>
</g>
<!-- Node15&#45;&gt;Node14 -->
<g id="edge28" class="edge"><title>Node15&#45;&gt;Node14</title>
<path fill="none" stroke="#9a32cd" stroke-dasharray="5,2" d="M361.783,-16.4051C376.521,-16.4819 391.854,-16.5617 406.323,-16.6371"/>
<polygon fill="#9a32cd" stroke="#9a32cd" points="361.71,-12.9048 351.692,-16.3526 361.674,-19.9047 361.71,-12.9048"/>
<text text-anchor="middle" x="380" y="-21" font-family="Helvetica,sans-Serif" font-size="10.00"> ptr</text>
</g>
</g>
</svg>
