<?xml version="1.0" encoding="UTF-8" standalone="no"?>
<!DOCTYPE svg PUBLIC "-//W3C//DTD SVG 1.1//EN"
 "http://www.w3.org/Graphics/SVG/1.1/DTD/svg11.dtd">
<!-- Generated by graphviz version 2.26.3 (20100126.1600)
 -->
<!-- Title: ant::expconfig::detector::Trigger_2014 Pages: 1 -->
<svg width="600pt" height="157pt"
 viewBox="0.00 0.00 600.00 157.00" xmlns="http://www.w3.org/2000/svg" xmlns:xlink="http://www.w3.org/1999/xlink">
<g id="graph1" class="graph" transform="scale(1 1) rotate(0) translate(4 153)">
<title>ant::expconfig::detector::Trigger_2014</title>
<polygon fill="white" stroke="white" points="-4,5 -4,-153 597,-153 597,5 -4,5"/>
<!-- Node1 -->
<g id="node1" class="node"><title>Node1</title>
<polygon fill="#bfbfbf" stroke="black" points="472.5,-35 472.5,-69 591.5,-69 591.5,-35 472.5,-35"/>
<text text-anchor="start" x="480.5" y="-56" font-family="Helvetica,sans-Serif" font-size="10.00">ant::expconfig::detector</text>
<text text-anchor="middle" x="532" y="-43" font-family="Helvetica,sans-Serif" font-size="10.00">::Trigger_2014</text>
</g>
<!-- Node2 -->
<g id="node2" class="node"><title>Node2</title>
<a xlink:href="structant_1_1expconfig_1_1detector_1_1_trigger.html" target="_top" xlink:title="ant::expconfig::detector\l::Trigger">
<polygon fill="white" stroke="black" points="316.5,-71 316.5,-105 435.5,-105 435.5,-71 316.5,-71"/>
<text text-anchor="start" x="324.5" y="-92" font-family="Helvetica,sans-Serif" font-size="10.00">ant::expconfig::detector</text>
<text text-anchor="middle" x="376" y="-79" font-family="Helvetica,sans-Serif" font-size="10.00">::Trigger</text>
</a>
</g>
<!-- Node2&#45;&gt;Node1 -->
<g id="edge2" class="edge"><title>Node2&#45;&gt;Node1</title>
<path fill="none" stroke="midnightblue" d="M445.775,-71.8981C454.625,-69.8557 463.619,-67.7802 472.293,-65.7786"/>
<polygon fill="midnightblue" stroke="midnightblue" points="444.824,-68.5254 435.868,-74.1844 446.398,-75.3461 444.824,-68.5254"/>
</g>
<!-- Node3 -->
<g id="node4" class="node"><title>Node3</title>
<a xlink:href="structant_1_1_detector__t.html" target="_top" xlink:title="The Detector_t struct is the minimal base class for all detectors. ">
<polygon fill="white" stroke="black" points="174,-127.5 174,-148.5 256,-148.5 256,-127.5 174,-127.5"/>
<text text-anchor="middle" x="215" y="-135.5" font-family="Helvetica,sans-Serif" font-size="10.00">ant::Detector_t</text>
</a>
</g>
<!-- Node3&#45;&gt;Node2 -->
<g id="edge4" class="edge"><title>Node3&#45;&gt;Node2</title>
<path fill="none" stroke="midnightblue" d="M259.37,-124.376C266.278,-122.247 273.332,-120.068 280,-118 293.509,-113.811 308.08,-109.269 321.689,-105.018"/>
<polygon fill="midnightblue" stroke="midnightblue" points="257.944,-121.153 249.417,-127.441 260.004,-127.843 257.944,-121.153"/>
</g>
<!-- Node4 -->
<g id="node6" class="node"><title>Node4</title>
<a xlink:href="classant_1_1printable__traits.html" target="_top" xlink:title="ant::printable_traits">
<polygon fill="white" stroke="black" points="7,-127.5 7,-148.5 107,-148.5 107,-127.5 7,-127.5"/>
<text text-anchor="middle" x="57" y="-135.5" font-family="Helvetica,sans-Serif" font-size="10.00">ant::printable_traits</text>
</a>
</g>
<!-- Node4&#45;&gt;Node3 -->
<g id="edge6" class="edge"><title>Node4&#45;&gt;Node3</title>
<path fill="none" stroke="midnightblue" d="M117.668,-138C136.424,-138 156.639,-138 173.761,-138"/>
<polygon fill="midnightblue" stroke="midnightblue" points="117.427,-134.5 107.427,-138 117.427,-141.5 117.427,-134.5"/>
</g>
<!-- Node5 -->
<g id="node8" class="node"><title>Node5</title>
<a xlink:href="classant_1_1_unpacker_acqu_config.html" target="_top" xlink:title="ant::UnpackerAcquConfig">
<polygon fill="white" stroke="black" points="150.5,-87.5 150.5,-108.5 279.5,-108.5 279.5,-87.5 150.5,-87.5"/>
<text text-anchor="middle" x="215" y="-95.5" font-family="Helvetica,sans-Serif" font-size="10.00">ant::UnpackerAcquConfig</text>
</a>
</g>
<!-- Node5&#45;&gt;Node2 -->
<g id="edge8" class="edge"><title>Node5&#45;&gt;Node2</title>
<path fill="none" stroke="midnightblue" d="M289.622,-93.3651C298.594,-92.8078 307.665,-92.2444 316.384,-91.7029"/>
<polygon fill="midnightblue" stroke="midnightblue" points="289.321,-89.877 279.557,-93.9902 289.755,-96.8635 289.321,-89.877"/>
</g>
<!-- Node6 -->
<g id="node10" class="node"><title>Node6</title>
<a xlink:href="structant_1_1_reconstruct_hook_1_1_event_data.html" target="_top" xlink:title="The EventData struct instances are applied after candidate building. ">
<polygon fill="white" stroke="black" points="158.5,-35 158.5,-69 271.5,-69 271.5,-35 158.5,-35"/>
<text text-anchor="start" x="166.5" y="-56" font-family="Helvetica,sans-Serif" font-size="10.00">ant::ReconstructHook</text>
<text text-anchor="middle" x="215" y="-43" font-family="Helvetica,sans-Serif" font-size="10.00">::EventData</text>
</a>
</g>
<!-- Node6&#45;&gt;Node2 -->
<g id="edge10" class="edge"><title>Node6&#45;&gt;Node2</title>
<path fill="none" stroke="midnightblue" d="M281.757,-66.927C293.271,-69.5016 305.171,-72.1626 316.478,-74.6908"/>
<polygon fill="midnightblue" stroke="midnightblue" points="282.285,-63.4588 271.763,-64.6923 280.758,-70.2901 282.285,-63.4588"/>
</g>
<!-- Node7 -->
<g id="node12" class="node"><title>Node7</title>
<a xlink:href="structant_1_1_reconstruct_hook_1_1_base.html" target="_top" xlink:title="The Base struct just defines some useful types. ">
<polygon fill="white" stroke="black" points="0.5,-13 0.5,-47 113.5,-47 113.5,-13 0.5,-13"/>
<text text-anchor="start" x="8.5" y="-34" font-family="Helvetica,sans-Serif" font-size="10.00">ant::ReconstructHook</text>
<text text-anchor="middle" x="57" y="-21" font-family="Helvetica,sans-Serif" font-size="10.00">::Base</text>
</a>
</g>
<!-- Node7&#45;&gt;Node6 -->
<g id="edge12" class="edge"><title>Node7&#45;&gt;Node6</title>
<path fill="none" stroke="midnightblue" d="M123.61,-39.2748C135.14,-40.8803 147.032,-42.5361 158.269,-44.1007"/>
<polygon fill="midnightblue" stroke="midnightblue" points="123.983,-35.793 113.595,-37.8804 123.017,-42.7261 123.983,-35.793"/>
</g>
<!-- Node8 -->
<g id="node14" class="node"><title>Node8</title>
<a xlink:href="structant_1_1_reconstruct_hook_1_1_detector_read_hits.html" target="_top" xlink:title="The DetectorReadHits struct instances are applied before hit matching. ">
<polygon fill="white" stroke="black" points="319.5,-0 319.5,-34 432.5,-34 432.5,-0 319.5,-0"/>
<text text-anchor="start" x="327.5" y="-21" font-family="Helvetica,sans-Serif" font-size="10.00">ant::ReconstructHook</text>
<text text-anchor="middle" x="376" y="-8" font-family="Helvetica,sans-Serif" font-size="10.00">::DetectorReadHits</text>
</a>
</g>
<!-- Node7&#45;&gt;Node8 -->
<g id="edge16" class="edge"><title>Node7&#45;&gt;Node8</title>
<path fill="none" stroke="midnightblue" d="M123.816,-27.1006C132.622,-26.726 141.528,-26.3509 150,-26 207.673,-23.6114 273.631,-20.9984 319.342,-19.2063"/>
<polygon fill="midnightblue" stroke="midnightblue" points="123.398,-23.6152 113.556,-27.5387 123.697,-30.6088 123.398,-23.6152"/>
</g>
<!-- Node8&#45;&gt;Node1 -->
<g id="edge14" class="edge"><title>Node8&#45;&gt;Node1</title>
<path fill="none" stroke="midnightblue" d="M442.564,-31.9342C452.475,-34.1578 462.638,-36.438 472.394,-38.6268"/>
<polygon fill="midnightblue" stroke="midnightblue" points="443.285,-28.509 432.761,-29.7348 441.752,-35.3392 443.285,-28.509"/>
</g>
</g>
</svg>
