<?xml version="1.0" encoding="UTF-8" standalone="no"?>
<!DOCTYPE svg PUBLIC "-//W3C//DTD SVG 1.1//EN"
 "http://www.w3.org/Graphics/SVG/1.1/DTD/svg11.dtd">
<!-- Generated by graphviz version 2.26.3 (20100126.1600)
 -->
<!-- Title: ant::calibration::gui::Manager::state_t Pages: 1 -->
<svg width="220pt" height="376pt"
 viewBox="0.00 0.00 220.00 376.00" xmlns="http://www.w3.org/2000/svg" xmlns:xlink="http://www.w3.org/1999/xlink">
<g id="graph1" class="graph" transform="scale(1 1) rotate(0) translate(4 372)">
<title>ant::calibration::gui::Manager::state_t</title>
<polygon fill="white" stroke="white" points="-4,5 -4,-372 217,-372 217,5 -4,5"/>
<!-- Node1 -->
<g id="node1" class="node"><title>Node1</title>
<polygon fill="#bfbfbf" stroke="black" points="59.5,-1 59.5,-35 158.5,-35 158.5,-1 59.5,-1"/>
<text text-anchor="start" x="67.5" y="-22" font-family="Helvetica,sans-Serif" font-size="10.00">ant::calibration::gui</text>
<text text-anchor="middle" x="109" y="-9" font-family="Helvetica,sans-Serif" font-size="10.00">::Manager::state_t</text>
</g>
<!-- Node2 -->
<g id="node2" class="node"><title>Node2</title>
<polygon fill="white" stroke="#bfbfbf" points="38.5,-87 38.5,-121 179.5,-121 179.5,-87 38.5,-87"/>
<text text-anchor="start" x="46.5" y="-108" font-family="Helvetica,sans-Serif" font-size="10.00">std::list&lt; ant::calibration</text>
<text text-anchor="middle" x="109" y="-95" font-family="Helvetica,sans-Serif" font-size="10.00">::gui::Manager::input_file_t &gt;</text>
</g>
<!-- Node2&#45;&gt;Node1 -->
<g id="edge2" class="edge"><title>Node2&#45;&gt;Node1</title>
<path fill="none" stroke="#9a32cd" stroke-dasharray="5,2" d="M109,-76.342C109,-62.7741 109,-46.8607 109,-35.084"/>
<polygon fill="#9a32cd" stroke="#9a32cd" points="105.5,-76.5966 109,-86.5966 112.5,-76.5967 105.5,-76.5966"/>
<text text-anchor="middle" x="122.5" y="-58.5" font-family="Helvetica,sans-Serif" font-size="10.00"> it_file</text>
</g>
<!-- Node3 -->
<g id="node4" class="node"><title>Node3</title>
<a xlink:href="structant_1_1calibration_1_1gui_1_1_manager_1_1input__file__t.html" target="_top" xlink:title="ant::calibration::gui\l::Manager::input_file_t">
<polygon fill="white" stroke="black" points="52.5,-173 52.5,-207 165.5,-207 165.5,-173 52.5,-173"/>
<text text-anchor="start" x="60.5" y="-194" font-family="Helvetica,sans-Serif" font-size="10.00">ant::calibration::gui</text>
<text text-anchor="middle" x="109" y="-181" font-family="Helvetica,sans-Serif" font-size="10.00">::Manager::input_file_t</text>
</a>
</g>
<!-- Node3&#45;&gt;Node2 -->
<g id="edge4" class="edge"><title>Node3&#45;&gt;Node2</title>
<path fill="none" stroke="#9a32cd" stroke-dasharray="5,2" d="M109,-162.342C109,-148.774 109,-132.861 109,-121.084"/>
<polygon fill="#9a32cd" stroke="#9a32cd" points="105.5,-162.597 109,-172.597 112.5,-162.597 105.5,-162.597"/>
<text text-anchor="middle" x="130.5" y="-144.5" font-family="Helvetica,sans-Serif" font-size="10.00"> elements</text>
</g>
<!-- Node4 -->
<g id="node6" class="node"><title>Node4</title>
<a xlink:title="STL class. ">
<polygon fill="white" stroke="#bfbfbf" points="23,-265.5 23,-286.5 83,-286.5 83,-265.5 23,-265.5"/>
<text text-anchor="middle" x="53" y="-273.5" font-family="Helvetica,sans-Serif" font-size="10.00">std::string</text>
</a>
</g>
<!-- Node4&#45;&gt;Node3 -->
<g id="edge6" class="edge"><title>Node4&#45;&gt;Node3</title>
<path fill="none" stroke="#9a32cd" stroke-dasharray="5,2" d="M65.3596,-257.019C75.0566,-242.127 88.4384,-221.577 97.8189,-207.171"/>
<polygon fill="#9a32cd" stroke="#9a32cd" points="62.3905,-255.165 59.8667,-265.455 68.2565,-258.985 62.3905,-255.165"/>
<text text-anchor="middle" x="105" y="-230.5" font-family="Helvetica,sans-Serif" font-size="10.00"> filename</text>
</g>
<!-- Node5 -->
<g id="node8" class="node"><title>Node5</title>
<a xlink:title="STL class. ">
<polygon fill="white" stroke="#bfbfbf" points="-0.5,-333 -0.5,-367 94.5,-367 94.5,-333 -0.5,-333"/>
<text text-anchor="start" x="7.5" y="-354" font-family="Helvetica,sans-Serif" font-size="10.00">std::basic_string&lt;</text>
<text text-anchor="middle" x="47" y="-341" font-family="Helvetica,sans-Serif" font-size="10.00"> char &gt;</text>
</a>
</g>
<!-- Node5&#45;&gt;Node4 -->
<g id="edge8" class="edge"><title>Node5&#45;&gt;Node4</title>
<path fill="none" stroke="midnightblue" d="M49.2293,-322.506C50.2327,-310.13 51.3596,-296.232 52.1179,-286.879"/>
<polygon fill="midnightblue" stroke="midnightblue" points="45.7113,-322.587 48.3916,-332.837 52.6884,-323.153 45.7113,-322.587"/>
</g>
<!-- Node6 -->
<g id="node10" class="node"><title>Node6</title>
<a xlink:href="classant_1_1interval.html" target="_top" xlink:title="ant::interval\&lt; ant\l::ant::TID \&gt;">
<polygon fill="white" stroke="black" points="112,-259 112,-293 202,-293 202,-259 112,-259"/>
<text text-anchor="start" x="120" y="-280" font-family="Helvetica,sans-Serif" font-size="10.00">ant::interval&lt; ant</text>
<text text-anchor="middle" x="157" y="-267" font-family="Helvetica,sans-Serif" font-size="10.00">::ant::TID &gt;</text>
</a>
</g>
<!-- Node6&#45;&gt;Node3 -->
<g id="edge10" class="edge"><title>Node6&#45;&gt;Node3</title>
<path fill="none" stroke="#9a32cd" stroke-dasharray="5,2" d="M142.234,-249.545C134.52,-235.723 125.304,-219.211 118.535,-207.084"/>
<polygon fill="#9a32cd" stroke="#9a32cd" points="139.357,-251.57 147.286,-258.597 145.469,-248.159 139.357,-251.57"/>
<text text-anchor="middle" x="150" y="-230.5" font-family="Helvetica,sans-Serif" font-size="10.00"> range</text>
</g>
<!-- Node7 -->
<g id="node12" class="node"><title>Node7</title>
<a xlink:href="classant_1_1printable__traits.html" target="_top" xlink:title="ant::printable_traits">
<polygon fill="white" stroke="black" points="112,-339.5 112,-360.5 212,-360.5 212,-339.5 112,-339.5"/>
<text text-anchor="middle" x="162" y="-347.5" font-family="Helvetica,sans-Serif" font-size="10.00">ant::printable_traits</text>
</a>
</g>
<!-- Node7&#45;&gt;Node6 -->
<g id="edge12" class="edge"><title>Node7&#45;&gt;Node6</title>
<path fill="none" stroke="midnightblue" d="M160.587,-329.089C159.82,-317.735 158.883,-303.869 158.159,-293.156"/>
<polygon fill="midnightblue" stroke="midnightblue" points="157.117,-329.656 161.284,-339.398 164.101,-329.184 157.117,-329.656"/>
</g>
</g>
</svg>
