<?xml version="1.0" encoding="UTF-8" standalone="no"?>
<!DOCTYPE svg PUBLIC "-//W3C//DTD SVG 1.1//EN"
 "http://www.w3.org/Graphics/SVG/1.1/DTD/svg11.dtd">
<!-- Generated by graphviz version 2.26.3 (20100126.1600)
 -->
<!-- Title: ant::analysis::utils::UncertaintyModels::Interpolated::EkRxyPhiL Pages: 1 -->
<svg width="860pt" height="174pt"
 viewBox="0.00 0.00 860.00 174.00" xmlns="http://www.w3.org/2000/svg" xmlns:xlink="http://www.w3.org/1999/xlink">
<g id="graph1" class="graph" transform="scale(1 1) rotate(0) translate(4 170)">
<title>ant::analysis::utils::UncertaintyModels::Interpolated::EkRxyPhiL</title>
<polygon fill="white" stroke="white" points="-4,5 -4,-170 857,-170 857,5 -4,5"/>
<!-- Node1 -->
<g id="node1" class="node"><title>Node1</title>
<polygon fill="#bfbfbf" stroke="black" points="728.5,-101.5 728.5,-148.5 851.5,-148.5 851.5,-101.5 728.5,-101.5"/>
<text text-anchor="start" x="736.5" y="-135.5" font-family="Helvetica,sans-Serif" font-size="10.00">ant::analysis::utils</text>
<text text-anchor="start" x="736.5" y="-122.5" font-family="Helvetica,sans-Serif" font-size="10.00">::UncertaintyModels::</text>
<text text-anchor="middle" x="790" y="-109.5" font-family="Helvetica,sans-Serif" font-size="10.00">Interpolated::EkRxyPhiL</text>
</g>
<!-- Node2 -->
<g id="node2" class="node"><title>Node2</title>
<a xlink:href="classant_1_1printable__traits.html" target="_top" xlink:title="ant::printable_traits">
<polygon fill="white" stroke="black" points="0,-98.5 0,-119.5 100,-119.5 100,-98.5 0,-98.5"/>
<text text-anchor="middle" x="50" y="-106.5" font-family="Helvetica,sans-Serif" font-size="10.00">ant::printable_traits</text>
</a>
</g>
<!-- Node2&#45;&gt;Node1 -->
<g id="edge2" class="edge"><title>Node2&#45;&gt;Node1</title>
<path fill="none" stroke="midnightblue" d="M74.4081,-125.117C102.34,-141.972 150.042,-166 195,-166 195,-166 195,-166 573,-166 634.206,-166 650.186,-164.978 710,-152 716.017,-150.695 722.212,-149.091 728.366,-147.321"/>
<polygon fill="midnightblue" stroke="midnightblue" points="76.067,-122.027 65.7262,-119.721 72.3719,-127.973 76.067,-122.027"/>
</g>
<!-- Node3 -->
<g id="node4" class="node"><title>Node3</title>
<a xlink:href="structant_1_1_clipped_interpolator_wrapper.html" target="_top" xlink:title="ant::ClippedInterpolator\lWrapper">
<polygon fill="white" stroke="black" points="514,-67 514,-101 632,-101 632,-67 514,-67"/>
<text text-anchor="start" x="522" y="-88" font-family="Helvetica,sans-Serif" font-size="10.00">ant::ClippedInterpolator</text>
<text text-anchor="middle" x="573" y="-75" font-family="Helvetica,sans-Serif" font-size="10.00">Wrapper</text>
</a>
</g>
<!-- Node2&#45;&gt;Node3 -->
<g id="edge6" class="edge"><title>Node2&#45;&gt;Node3</title>
<path fill="none" stroke="midnightblue" d="M110.158,-116.698C196.422,-126.124 359.871,-137.972 496,-113 509.348,-110.551 523.393,-105.927 535.779,-101.078"/>
<polygon fill="midnightblue" stroke="midnightblue" points="110.355,-113.198 100.028,-115.563 109.576,-120.154 110.355,-113.198"/>
</g>
<!-- Node6 -->
<g id="node11" class="node"><title>Node6</title>
<a xlink:href="structant_1_1_clipped_interpolator_wrapper_1_1bounds_check__t.html" target="_top" xlink:title="ant::ClippedInterpolator\lWrapper::boundsCheck_t">
<polygon fill="white" stroke="black" points="316,-66 316,-100 444,-100 444,-66 316,-66"/>
<text text-anchor="start" x="324" y="-87" font-family="Helvetica,sans-Serif" font-size="10.00">ant::ClippedInterpolator</text>
<text text-anchor="middle" x="380" y="-74" font-family="Helvetica,sans-Serif" font-size="10.00">Wrapper::boundsCheck_t</text>
</a>
</g>
<!-- Node2&#45;&gt;Node6 -->
<g id="edge14" class="edge"><title>Node2&#45;&gt;Node6</title>
<path fill="none" stroke="midnightblue" d="M110.27,-104.251C168.466,-99.6663 256.293,-92.7466 315.785,-88.0593"/>
<polygon fill="midnightblue" stroke="midnightblue" points="109.814,-100.776 100.12,-105.051 110.364,-107.755 109.814,-100.776"/>
</g>
<!-- Node7 -->
<g id="node14" class="node"><title>Node7</title>
<a xlink:href="classant_1_1interval.html" target="_top" xlink:title="ant::interval\&lt; double \&gt;">
<polygon fill="white" stroke="black" points="138,-40.5 138,-61.5 252,-61.5 252,-40.5 138,-40.5"/>
<text text-anchor="middle" x="195" y="-48.5" font-family="Helvetica,sans-Serif" font-size="10.00">ant::interval&lt; double &gt;</text>
</a>
</g>
<!-- Node2&#45;&gt;Node7 -->
<g id="edge18" class="edge"><title>Node2&#45;&gt;Node7</title>
<path fill="none" stroke="midnightblue" d="M78.9516,-93.8588C90.8777,-87.9099 104.938,-81.2608 118,-76 131.168,-70.6967 145.931,-65.6866 158.981,-61.564"/>
<polygon fill="midnightblue" stroke="midnightblue" points="77.2449,-90.7998 69.9045,-98.4397 80.4071,-97.0449 77.2449,-90.7998"/>
</g>
<!-- Node3&#45;&gt;Node1 -->
<g id="edge4" class="edge"><title>Node3&#45;&gt;Node1</title>
<path fill="none" stroke="#9a32cd" stroke-dasharray="5,2" d="M642.243,-79.8909C664.161,-80.0821 688.317,-81.8619 710,-87 723.166,-90.1199 736.734,-95.5852 748.871,-101.415"/>
<polygon fill="#9a32cd" stroke="#9a32cd" points="642.01,-76.3913 632.018,-79.9126 642.025,-83.3913 642.01,-76.3913"/>
<text text-anchor="middle" x="680" y="-143" font-family="Helvetica,sans-Serif" font-size="10.00"> TAPS_Rxy</text>
<text text-anchor="middle" x="680" y="-130" font-family="Helvetica,sans-Serif" font-size="10.00">Ek</text>
<text text-anchor="middle" x="680" y="-117" font-family="Helvetica,sans-Serif" font-size="10.00">ShowerDepth</text>
<text text-anchor="middle" x="680" y="-104" font-family="Helvetica,sans-Serif" font-size="10.00">Phi</text>
<text text-anchor="middle" x="680" y="-91" font-family="Helvetica,sans-Serif" font-size="10.00">TAPS_L</text>
</g>
<!-- Node4 -->
<g id="node7" class="node"><title>Node4</title>
<polygon fill="white" stroke="#bfbfbf" points="323,-4 323,-38 437,-38 437,-4 323,-4"/>
<text text-anchor="start" x="331" y="-25" font-family="Helvetica,sans-Serif" font-size="10.00">std::unique_ptr&lt; const</text>
<text text-anchor="middle" x="380" y="-12" font-family="Helvetica,sans-Serif" font-size="10.00"> ant::Interpolator2D &gt;</text>
</g>
<!-- Node4&#45;&gt;Node3 -->
<g id="edge8" class="edge"><title>Node4&#45;&gt;Node3</title>
<path fill="none" stroke="#9a32cd" stroke-dasharray="5,2" d="M441.779,-41.1662C467.218,-49.4703 496.373,-58.9869 520.73,-66.9377"/>
<polygon fill="#9a32cd" stroke="#9a32cd" points="442.821,-37.8247 432.229,-38.0487 440.649,-44.4791 442.821,-37.8247"/>
<text text-anchor="middle" x="479" y="-62" font-family="Helvetica,sans-Serif" font-size="10.00"> interp</text>
</g>
<!-- Node5 -->
<g id="node9" class="node"><title>Node5</title>
<a xlink:href="classant_1_1_interpolator2_d.html" target="_top" xlink:title="ant::Interpolator2D">
<polygon fill="white" stroke="black" points="146,-0.5 146,-21.5 244,-21.5 244,-0.5 146,-0.5"/>
<text text-anchor="middle" x="195" y="-8.5" font-family="Helvetica,sans-Serif" font-size="10.00">ant::Interpolator2D</text>
</a>
</g>
<!-- Node5&#45;&gt;Node4 -->
<g id="edge10" class="edge"><title>Node5&#45;&gt;Node4</title>
<path fill="none" stroke="#9a32cd" stroke-dasharray="5,2" d="M254.277,-14.2042C276.222,-15.3904 301.044,-16.7321 322.801,-17.9082"/>
<polygon fill="#9a32cd" stroke="#9a32cd" points="254.265,-10.6985 244.091,-13.6536 253.887,-17.6883 254.265,-10.6985"/>
<text text-anchor="middle" x="284" y="-20" font-family="Helvetica,sans-Serif" font-size="10.00"> ptr</text>
</g>
<!-- Node6&#45;&gt;Node3 -->
<g id="edge12" class="edge"><title>Node6&#45;&gt;Node3</title>
<path fill="none" stroke="#9a32cd" stroke-dasharray="5,2" d="M454.432,-83.3857C474.134,-83.4877 495.133,-83.5965 513.899,-83.6938"/>
<polygon fill="#9a32cd" stroke="#9a32cd" points="454.284,-79.8849 444.266,-83.333 454.248,-86.8848 454.284,-79.8849"/>
<text text-anchor="middle" x="479" y="-100" font-family="Helvetica,sans-Serif" font-size="10.00"> yrange</text>
<text text-anchor="middle" x="479" y="-87" font-family="Helvetica,sans-Serif" font-size="10.00">xrange</text>
</g>
<!-- Node7&#45;&gt;Node6 -->
<g id="edge16" class="edge"><title>Node7&#45;&gt;Node6</title>
<path fill="none" stroke="#9a32cd" stroke-dasharray="5,2" d="M262.088,-57.603C274.084,-59.1285 286.441,-60.9251 298,-63 303.769,-64.0356 309.737,-65.2358 315.702,-66.5239"/>
<polygon fill="#9a32cd" stroke="#9a32cd" points="262.471,-54.1239 252.12,-56.3852 261.622,-61.0723 262.471,-54.1239"/>
<text text-anchor="middle" x="284" y="-67" font-family="Helvetica,sans-Serif" font-size="10.00"> range</text>
</g>
</g>
</svg>
