<?xml version="1.0" encoding="UTF-8" standalone="no"?>
<!DOCTYPE svg PUBLIC "-//W3C//DTD SVG 1.1//EN"
 "http://www.w3.org/Graphics/SVG/1.1/DTD/svg11.dtd">
<!-- Generated by graphviz version 2.26.3 (20100126.1600)
 -->
<!-- Title: ant::calibration::Energy::GUI_Banana Pages: 1 -->
<svg width="1030pt" height="559pt"
 viewBox="0.00 0.00 1030.00 559.00" xmlns="http://www.w3.org/2000/svg" xmlns:xlink="http://www.w3.org/1999/xlink">
<g id="graph1" class="graph" transform="scale(1 1) rotate(0) translate(4 555)">
<title>ant::calibration::Energy::GUI_Banana</title>
<polygon fill="white" stroke="white" points="-4,5 -4,-555 1027,-555 1027,5 -4,5"/>
<!-- Node1 -->
<g id="node1" class="node"><title>Node1</title>
<polygon fill="#bfbfbf" stroke="black" points="904.5,-347 904.5,-381 1021.5,-381 1021.5,-347 904.5,-347"/>
<text text-anchor="start" x="912.5" y="-368" font-family="Helvetica,sans-Serif" font-size="10.00">ant::calibration::Energy</text>
<text text-anchor="middle" x="963" y="-355" font-family="Helvetica,sans-Serif" font-size="10.00">::GUI_Banana</text>
</g>
<!-- Node2 -->
<g id="node2" class="node"><title>Node2</title>
<a xlink:href="structant_1_1calibration_1_1_energy_1_1_g_u_i___calib_type.html" target="_top" xlink:title="The GUI_CalibType struct is an abstract base class for handling the data storage for a provided Calib...">
<polygon fill="white" stroke="black" points="674.5,-379 674.5,-413 791.5,-413 791.5,-379 674.5,-379"/>
<text text-anchor="start" x="682.5" y="-400" font-family="Helvetica,sans-Serif" font-size="10.00">ant::calibration::Energy</text>
<text text-anchor="middle" x="733" y="-387" font-family="Helvetica,sans-Serif" font-size="10.00">::GUI_CalibType</text>
</a>
</g>
<!-- Node2&#45;&gt;Node1 -->
<g id="edge2" class="edge"><title>Node2&#45;&gt;Node1</title>
<path fill="none" stroke="midnightblue" d="M801.59,-386.457C834.343,-381.9 873.13,-376.504 904.473,-372.143"/>
<polygon fill="midnightblue" stroke="midnightblue" points="801.056,-382.998 791.634,-387.842 802.021,-389.931 801.056,-382.998"/>
</g>
<!-- Node3 -->
<g id="node4" class="node"><title>Node3</title>
<a xlink:href="classant_1_1calibration_1_1gui_1_1_calib_module__traits.html" target="_top" xlink:title="ant::calibration::gui\l::CalibModule_traits">
<polygon fill="white" stroke="black" points="436,-326 436,-360 540,-360 540,-326 436,-326"/>
<text text-anchor="start" x="444" y="-347" font-family="Helvetica,sans-Serif" font-size="10.00">ant::calibration::gui</text>
<text text-anchor="middle" x="488" y="-334" font-family="Helvetica,sans-Serif" font-size="10.00">::CalibModule_traits</text>
</a>
</g>
<!-- Node3&#45;&gt;Node2 -->
<g id="edge4" class="edge"><title>Node3&#45;&gt;Node2</title>
<path fill="none" stroke="midnightblue" d="M550.221,-356.46C588.371,-364.713 636.911,-375.213 674.38,-383.319"/>
<polygon fill="midnightblue" stroke="midnightblue" points="550.772,-352.998 540.258,-354.305 549.292,-359.84 550.772,-352.998"/>
</g>
<!-- Node4 -->
<g id="node6" class="node"><title>Node4</title>
<a xlink:href="structant_1_1calibration_1_1_energy_1_1_calib_type.html" target="_top" xlink:title="The CalibType struct stores the data for the Updateable interface and for the GUI. ">
<polygon fill="white" stroke="black" points="429.5,-479 429.5,-513 546.5,-513 546.5,-479 429.5,-479"/>
<text text-anchor="start" x="437.5" y="-500" font-family="Helvetica,sans-Serif" font-size="10.00">ant::calibration::Energy</text>
<text text-anchor="middle" x="488" y="-487" font-family="Helvetica,sans-Serif" font-size="10.00">::CalibType</text>
</a>
</g>
<!-- Node4&#45;&gt;Node2 -->
<g id="edge6" class="edge"><title>Node4&#45;&gt;Node2</title>
<path fill="none" stroke="#9a32cd" stroke-dasharray="5,2" d="M556.582,-477.307C587.554,-467.916 624.241,-455.453 656,-441 673.475,-433.048 692.087,-422.241 706.634,-413.211"/>
<polygon fill="#9a32cd" stroke="#9a32cd" points="555.32,-474.031 546.74,-480.246 557.323,-480.738 555.32,-474.031"/>
<text text-anchor="middle" x="622" y="-471" font-family="Helvetica,sans-Serif" font-size="10.00"> calibType</text>
</g>
<!-- Node5 -->
<g id="node8" class="node"><title>Node5</title>
<a xlink:title="STL class. ">
<polygon fill="white" stroke="#bfbfbf" points="213,-523.5 213,-544.5 273,-544.5 273,-523.5 213,-523.5"/>
<text text-anchor="middle" x="243" y="-531.5" font-family="Helvetica,sans-Serif" font-size="10.00">std::string</text>
</a>
</g>
<!-- Node5&#45;&gt;Node1 -->
<g id="edge24" class="edge"><title>Node5&#45;&gt;Node1</title>
<path fill="none" stroke="#9a32cd" stroke-dasharray="5,2" d="M283.398,-538.569C293.992,-539.576 305.413,-540.494 316,-541 347.963,-542.529 356.043,-542.664 388,-541 469.219,-536.772 491.064,-541.58 570,-522 708.822,-487.566 863.556,-414.251 929.89,-381.013"/>
<polygon fill="#9a32cd" stroke="#9a32cd" points="283.441,-535.056 273.143,-537.543 282.745,-542.021 283.441,-535.056"/>
<text text-anchor="middle" x="622" y="-520" font-family="Helvetica,sans-Serif" font-size="10.00"> full_hist_name</text>
</g>
<!-- Node5&#45;&gt;Node4 -->
<g id="edge8" class="edge"><title>Node5&#45;&gt;Node4</title>
<path fill="none" stroke="#9a32cd" stroke-dasharray="5,2" d="M283.173,-522.432C293.78,-519.684 305.264,-516.979 316,-515 353.374,-508.109 395.81,-503.389 429.18,-500.377"/>
<polygon fill="#9a32cd" stroke="#9a32cd" points="282.086,-519.1 273.325,-525.058 283.889,-525.863 282.086,-519.1"/>
<text text-anchor="middle" x="352" y="-532" font-family="Helvetica,sans-Serif" font-size="10.00"> Name</text>
<text text-anchor="middle" x="352" y="-519" font-family="Helvetica,sans-Serif" font-size="10.00">HistogramName</text>
</g>
<!-- Node6 -->
<g id="node10" class="node"><title>Node6</title>
<a xlink:title="STL class. ">
<polygon fill="white" stroke="#bfbfbf" points="6.5,-517 6.5,-551 101.5,-551 101.5,-517 6.5,-517"/>
<text text-anchor="start" x="14.5" y="-538" font-family="Helvetica,sans-Serif" font-size="10.00">std::basic_string&lt;</text>
<text text-anchor="middle" x="54" y="-525" font-family="Helvetica,sans-Serif" font-size="10.00"> char &gt;</text>
</a>
</g>
<!-- Node6&#45;&gt;Node5 -->
<g id="edge10" class="edge"><title>Node6&#45;&gt;Node5</title>
<path fill="none" stroke="midnightblue" d="M111.781,-534C145.109,-534 185.651,-534 212.771,-534"/>
<polygon fill="midnightblue" stroke="midnightblue" points="111.693,-530.5 101.693,-534 111.693,-537.5 111.693,-530.5"/>
</g>
<!-- Node7 -->
<g id="node12" class="node"><title>Node7</title>
<polygon fill="white" stroke="#bfbfbf" points="188,-418.5 188,-439.5 298,-439.5 298,-418.5 188,-418.5"/>
<text text-anchor="middle" x="243" y="-426.5" font-family="Helvetica,sans-Serif" font-size="10.00">std::vector&lt; double &gt;</text>
</g>
<!-- Node7&#45;&gt;Node2 -->
<g id="edge18" class="edge"><title>Node7&#45;&gt;Node2</title>
<path fill="none" stroke="#9a32cd" stroke-dasharray="5,2" d="M308.494,-417.545C338.168,-412.822 373.755,-407.808 406,-405 499.637,-396.847 608.871,-395.474 674.401,-395.522"/>
<polygon fill="#9a32cd" stroke="#9a32cd" points="307.573,-414.148 298.26,-419.199 308.69,-421.058 307.573,-414.148"/>
<text text-anchor="middle" x="488" y="-409" font-family="Helvetica,sans-Serif" font-size="10.00"> previousValues</text>
</g>
<!-- Node7&#45;&gt;Node4 -->
<g id="edge12" class="edge"><title>Node7&#45;&gt;Node4</title>
<path fill="none" stroke="#9a32cd" stroke-dasharray="5,2" d="M291.231,-442.19C330.786,-453.007 386.937,-468.362 429.137,-479.903"/>
<polygon fill="#9a32cd" stroke="#9a32cd" points="292.12,-438.804 281.551,-439.542 290.273,-445.556 292.12,-438.804"/>
<text text-anchor="middle" x="352" y="-485" font-family="Helvetica,sans-Serif" font-size="10.00"> Values</text>
<text text-anchor="middle" x="352" y="-472" font-family="Helvetica,sans-Serif" font-size="10.00">DefaultValues</text>
</g>
<!-- Node8 -->
<g id="node14" class="node"><title>Node8</title>
<polygon fill="white" stroke="#bfbfbf" points="427,-427 427,-461 549,-461 549,-427 427,-427"/>
<text text-anchor="start" x="435" y="-448" font-family="Helvetica,sans-Serif" font-size="10.00">std::map&lt; unsigned,</text>
<text text-anchor="middle" x="488" y="-435" font-family="Helvetica,sans-Serif" font-size="10.00"> std::vector&lt; double &gt; &gt;</text>
</g>
<!-- Node7&#45;&gt;Node8 -->
<g id="edge16" class="edge"><title>Node7&#45;&gt;Node8</title>
<path fill="none" stroke="#9a32cd" stroke-dasharray="5,2" d="M308.245,-427.619C333.222,-427.57 361.961,-428.096 388,-430 400.588,-430.921 414.006,-432.431 426.79,-434.126"/>
<polygon fill="#9a32cd" stroke="#9a32cd" points="308.134,-424.12 298.151,-427.67 308.169,-431.119 308.134,-424.12"/>
<text text-anchor="middle" x="352" y="-434" font-family="Helvetica,sans-Serif" font-size="10.00"> elements</text>
</g>
<!-- Node8&#45;&gt;Node2 -->
<g id="edge14" class="edge"><title>Node8&#45;&gt;Node2</title>
<path fill="none" stroke="#9a32cd" stroke-dasharray="5,2" d="M559.282,-430.035C595.803,-422.879 639.73,-414.273 674.275,-407.505"/>
<polygon fill="#9a32cd" stroke="#9a32cd" points="558.332,-426.654 549.192,-432.011 559.678,-433.523 558.332,-426.654"/>
<text text-anchor="middle" x="622" y="-428" font-family="Helvetica,sans-Serif" font-size="10.00"> fitParameters</text>
</g>
<!-- Node9 -->
<g id="node18" class="node"><title>Node9</title>
<a xlink:href="classant_1_1interval.html" target="_top" xlink:title="ant::interval\&lt; double \&gt;">
<polygon fill="white" stroke="black" points="676,-313.5 676,-334.5 790,-334.5 790,-313.5 676,-313.5"/>
<text text-anchor="middle" x="733" y="-321.5" font-family="Helvetica,sans-Serif" font-size="10.00">ant::interval&lt; double &gt;</text>
</a>
</g>
<!-- Node9&#45;&gt;Node1 -->
<g id="edge20" class="edge"><title>Node9&#45;&gt;Node1</title>
<path fill="none" stroke="#9a32cd" stroke-dasharray="5,2" d="M800.151,-335.678C833.087,-341.406 872.396,-348.243 904.142,-353.764"/>
<polygon fill="#9a32cd" stroke="#9a32cd" points="800.601,-332.204 790.149,-333.939 799.402,-339.101 800.601,-332.204"/>
<text text-anchor="middle" x="848" y="-353" font-family="Helvetica,sans-Serif" font-size="10.00"> projection_range</text>
</g>
<!-- Node10 -->
<g id="node20" class="node"><title>Node10</title>
<a xlink:href="classant_1_1printable__traits.html" target="_top" xlink:title="ant::printable_traits">
<polygon fill="white" stroke="black" points="438,-286.5 438,-307.5 538,-307.5 538,-286.5 438,-286.5"/>
<text text-anchor="middle" x="488" y="-294.5" font-family="Helvetica,sans-Serif" font-size="10.00">ant::printable_traits</text>
</a>
</g>
<!-- Node10&#45;&gt;Node9 -->
<g id="edge22" class="edge"><title>Node10&#45;&gt;Node9</title>
<path fill="none" stroke="midnightblue" d="M548.295,-303.645C587.137,-307.925 637.336,-313.457 675.596,-317.674"/>
<polygon fill="midnightblue" stroke="midnightblue" points="548.494,-300.146 538.171,-302.529 547.727,-307.103 548.494,-300.146"/>
</g>
<!-- Node11 -->
<g id="node23" class="node"><title>Node11</title>
<a xlink:href="classant_1_1calibration_1_1gui_1_1_cal_canvas.html" target="_top" xlink:title="ant::calibration::gui\l::CalCanvas">
<polygon fill="white" stroke="black" points="683.5,-156 683.5,-190 782.5,-190 782.5,-156 683.5,-156"/>
<text text-anchor="start" x="691.5" y="-177" font-family="Helvetica,sans-Serif" font-size="10.00">ant::calibration::gui</text>
<text text-anchor="middle" x="733" y="-164" font-family="Helvetica,sans-Serif" font-size="10.00">::CalCanvas</text>
</a>
</g>
<!-- Node11&#45;&gt;Node1 -->
<g id="edge26" class="edge"><title>Node11&#45;&gt;Node1</title>
<path fill="none" stroke="#9a32cd" stroke-dasharray="5,2" d="M761.789,-196.907C808.884,-236.017 901.263,-312.731 942.396,-346.89"/>
<polygon fill="#9a32cd" stroke="#9a32cd" points="763.746,-193.983 753.817,-190.287 759.274,-199.368 763.746,-193.983"/>
<text text-anchor="middle" x="848" y="-313" font-family="Helvetica,sans-Serif" font-size="10.00"> c_fit</text>
<text text-anchor="middle" x="848" y="-300" font-family="Helvetica,sans-Serif" font-size="10.00">c_extra</text>
</g>
<!-- Node12 -->
<g id="node25" class="node"><title>Node12</title>
<polygon fill="white" stroke="#bfbfbf" points="460,-246.5 460,-267.5 516,-267.5 516,-246.5 460,-246.5"/>
<text text-anchor="middle" x="488" y="-254.5" font-family="Helvetica,sans-Serif" font-size="10.00">TCanvas</text>
</g>
<!-- Node12&#45;&gt;Node11 -->
<g id="edge28" class="edge"><title>Node12&#45;&gt;Node11</title>
<path fill="none" stroke="midnightblue" d="M526.493,-256.709C561.535,-255.201 614.047,-249.775 656,-232 679.105,-222.21 701.399,-203.83 715.999,-190.175"/>
<polygon fill="midnightblue" stroke="midnightblue" points="526.085,-253.221 516.21,-257.06 526.324,-260.217 526.085,-253.221"/>
</g>
<!-- Node13 -->
<g id="node27" class="node"><title>Node13</title>
<a xlink:href="classant_1_1calibration_1_1gui_1_1update__notify__traits.html" target="_top" xlink:title="ant::calibration::gui\l::update_notify_traits">
<polygon fill="white" stroke="black" points="0,-179 0,-213 108,-213 108,-179 0,-179"/>
<text text-anchor="start" x="8" y="-200" font-family="Helvetica,sans-Serif" font-size="10.00">ant::calibration::gui</text>
<text text-anchor="middle" x="54" y="-187" font-family="Helvetica,sans-Serif" font-size="10.00">::update_notify_traits</text>
</a>
</g>
<!-- Node13&#45;&gt;Node11 -->
<g id="edge30" class="edge"><title>Node13&#45;&gt;Node11</title>
<path fill="none" stroke="midnightblue" d="M118.291,-198.763C215.964,-202.42 407.558,-207.477 570,-199 608.379,-196.997 618.065,-196.152 656,-190 664.919,-188.554 674.357,-186.723 683.454,-184.802"/>
<polygon fill="midnightblue" stroke="midnightblue" points="118.406,-195.265 108.279,-198.38 118.139,-202.259 118.406,-195.265"/>
</g>
<!-- Node18 -->
<g id="node37" class="node"><title>Node18</title>
<a xlink:href="classant_1_1calibration_1_1gui_1_1_indicator.html" target="_top" xlink:title="ant::calibration::gui\l::Indicator">
<polygon fill="white" stroke="black" points="193.5,-156 193.5,-190 292.5,-190 292.5,-156 193.5,-156"/>
<text text-anchor="start" x="201.5" y="-177" font-family="Helvetica,sans-Serif" font-size="10.00">ant::calibration::gui</text>
<text text-anchor="middle" x="243" y="-164" font-family="Helvetica,sans-Serif" font-size="10.00">::Indicator</text>
</a>
</g>
<!-- Node13&#45;&gt;Node18 -->
<g id="edge42" class="edge"><title>Node13&#45;&gt;Node18</title>
<path fill="none" stroke="midnightblue" d="M118.123,-188.197C142.698,-185.206 170.341,-181.842 193.36,-179.041"/>
<polygon fill="midnightblue" stroke="midnightblue" points="117.664,-184.727 108.16,-189.409 118.509,-191.675 117.664,-184.727"/>
</g>
<!-- Node14 -->
<g id="node29" class="node"><title>Node14</title>
<polygon fill="white" stroke="#bfbfbf" points="406,-104 406,-138 570,-138 570,-104 406,-104"/>
<text text-anchor="start" x="414" y="-125" font-family="Helvetica,sans-Serif" font-size="10.00">std::stack&lt; ant::calibration</text>
<text text-anchor="middle" x="488" y="-112" font-family="Helvetica,sans-Serif" font-size="10.00">::gui::FitFunction::SavedState_t &gt;</text>
</g>
<!-- Node14&#45;&gt;Node11 -->
<g id="edge32" class="edge"><title>Node14&#45;&gt;Node11</title>
<path fill="none" stroke="#9a32cd" stroke-dasharray="5,2" d="M580.14,-139.99C604.795,-145.127 631.422,-150.727 656,-156 664.834,-157.895 674.231,-159.943 683.314,-161.939"/>
<polygon fill="#9a32cd" stroke="#9a32cd" points="580.576,-136.506 570.072,-137.895 579.15,-143.359 580.576,-136.506"/>
<text text-anchor="middle" x="622" y="-160" font-family="Helvetica,sans-Serif" font-size="10.00"> UndoStack</text>
</g>
<!-- Node15 -->
<g id="node31" class="node"><title>Node15</title>
<a xlink:title="STL class. ">
<polygon fill="white" stroke="#bfbfbf" points="199.5,-110.5 199.5,-131.5 286.5,-131.5 286.5,-110.5 199.5,-110.5"/>
<text text-anchor="middle" x="243" y="-118.5" font-family="Helvetica,sans-Serif" font-size="10.00">std::vector&lt; T &gt;</text>
</a>
</g>
<!-- Node15&#45;&gt;Node14 -->
<g id="edge34" class="edge"><title>Node15&#45;&gt;Node14</title>
<path fill="none" stroke="#9a32cd" stroke-dasharray="5,2" d="M296.55,-121C328.509,-121 369.752,-121 405.769,-121"/>
<polygon fill="#9a32cd" stroke="#9a32cd" points="296.519,-117.5 286.519,-121 296.519,-124.5 296.519,-117.5"/>
<text text-anchor="middle" x="352" y="-125" font-family="Helvetica,sans-Serif" font-size="10.00"> elements</text>
</g>
<!-- Node16 -->
<g id="node33" class="node"><title>Node16</title>
<polygon fill="white" stroke="#bfbfbf" points="39.5,-110.5 39.5,-131.5 68.5,-131.5 68.5,-110.5 39.5,-110.5"/>
<text text-anchor="middle" x="54" y="-118.5" font-family="Helvetica,sans-Serif" font-size="10.00">T</text>
</g>
<!-- Node16&#45;&gt;Node15 -->
<g id="edge36" class="edge"><title>Node16&#45;&gt;Node15</title>
<path fill="none" stroke="#9a32cd" stroke-dasharray="5,2" d="M78.7289,-121C109.344,-121 162.018,-121 199.462,-121"/>
<polygon fill="#9a32cd" stroke="#9a32cd" points="78.5167,-117.5 68.5167,-121 78.5167,-124.5 78.5167,-117.5"/>
<text text-anchor="middle" x="148" y="-125" font-family="Helvetica,sans-Serif" font-size="10.00"> elements</text>
</g>
<!-- Node17 -->
<g id="node35" class="node"><title>Node17</title>
<polygon fill="white" stroke="#bfbfbf" points="427,-156 427,-190 549,-190 549,-156 427,-156"/>
<text text-anchor="start" x="435" y="-177" font-family="Helvetica,sans-Serif" font-size="10.00">std::list&lt; ant::calibration</text>
<text text-anchor="middle" x="488" y="-164" font-family="Helvetica,sans-Serif" font-size="10.00">::gui::Indicator * &gt;</text>
</g>
<!-- Node17&#45;&gt;Node11 -->
<g id="edge38" class="edge"><title>Node17&#45;&gt;Node11</title>
<path fill="none" stroke="#9a32cd" stroke-dasharray="5,2" d="M559.362,-173C599.123,-173 647.645,-173 683.278,-173"/>
<polygon fill="#9a32cd" stroke="#9a32cd" points="559.192,-169.5 549.192,-173 559.192,-176.5 559.192,-169.5"/>
<text text-anchor="middle" x="622" y="-177" font-family="Helvetica,sans-Serif" font-size="10.00"> indicators</text>
</g>
<!-- Node18&#45;&gt;Node17 -->
<g id="edge40" class="edge"><title>Node18&#45;&gt;Node17</title>
<path fill="none" stroke="#9a32cd" stroke-dasharray="5,2" d="M302.886,-173C340.503,-173 388.893,-173 426.764,-173"/>
<polygon fill="#9a32cd" stroke="#9a32cd" points="302.579,-169.5 292.579,-173 302.579,-176.5 302.579,-169.5"/>
<text text-anchor="middle" x="352" y="-177" font-family="Helvetica,sans-Serif" font-size="10.00"> elements</text>
</g>
<!-- Node19 -->
<g id="node40" class="node"><title>Node19</title>
<a xlink:href="structant_1_1calibration_1_1gui_1_1_cal_canvas_1_1axis__settings__t.html" target="_top" xlink:title="ant::calibration::gui\l::CalCanvas::axis_settings_t">
<polygon fill="white" stroke="black" points="416.5,-52 416.5,-86 559.5,-86 559.5,-52 416.5,-52"/>
<text text-anchor="start" x="424.5" y="-73" font-family="Helvetica,sans-Serif" font-size="10.00">ant::calibration::gui</text>
<text text-anchor="middle" x="488" y="-60" font-family="Helvetica,sans-Serif" font-size="10.00">::CalCanvas::axis_settings_t</text>
</a>
</g>
<!-- Node19&#45;&gt;Node11 -->
<g id="edge44" class="edge"><title>Node19&#45;&gt;Node11</title>
<path fill="none" stroke="#9a32cd" stroke-dasharray="5,2" d="M560.889,-88.9425C591.003,-98.2884 625.849,-110.564 656,-125 674.471,-133.844 694.038,-146.083 708.826,-155.989"/>
<polygon fill="#9a32cd" stroke="#9a32cd" points="561.877,-85.5845 551.291,-86.012 559.833,-92.2794 561.877,-85.5845"/>
<text text-anchor="middle" x="622" y="-129" font-family="Helvetica,sans-Serif" font-size="10.00"> axis_settings</text>
</g>
<!-- Node20 -->
<g id="node42" class="node"><title>Node20</title>
<a xlink:href="classant_1_1calibration_1_1gui_1_1_fit_function.html" target="_top" xlink:title="ant::calibration::gui\l::FitFunction">
<polygon fill="white" stroke="black" points="438.5,-0 438.5,-34 537.5,-34 537.5,-0 438.5,-0"/>
<text text-anchor="start" x="446.5" y="-21" font-family="Helvetica,sans-Serif" font-size="10.00">ant::calibration::gui</text>
<text text-anchor="middle" x="488" y="-8" font-family="Helvetica,sans-Serif" font-size="10.00">::FitFunction</text>
</a>
</g>
<!-- Node20&#45;&gt;Node11 -->
<g id="edge46" class="edge"><title>Node20&#45;&gt;Node11</title>
<path fill="none" stroke="#9a32cd" stroke-dasharray="5,2" d="M547.43,-30.8028C581.558,-40.7855 623.879,-56.8343 656,-81 684.128,-102.162 708.676,-135.478 722.111,-155.678"/>
<polygon fill="#9a32cd" stroke="#9a32cd" points="548.155,-27.3707 537.58,-28.0218 546.253,-34.1074 548.155,-27.3707"/>
<text text-anchor="middle" x="622" y="-85" font-family="Helvetica,sans-Serif" font-size="10.00"> func</text>
</g>
</g>
</svg>
