<?xml version="1.0" encoding="UTF-8" standalone="no"?>
<!DOCTYPE svg PUBLIC "-//W3C//DTD SVG 1.1//EN"
 "http://www.w3.org/Graphics/SVG/1.1/DTD/svg11.dtd">
<!-- Generated by graphviz version 2.26.3 (20100126.1600)
 -->
<!-- Title: ant::progs::taggeff::treeLoader_t Pages: 1 -->
<svg width="1324pt" height="143pt"
 viewBox="0.00 0.00 1324.00 143.00" xmlns="http://www.w3.org/2000/svg" xmlns:xlink="http://www.w3.org/1999/xlink">
<g id="graph1" class="graph" transform="scale(1 1) rotate(0) translate(4 139)">
<title>ant::progs::taggeff::treeLoader_t</title>
<polygon fill="white" stroke="white" points="-4,5 -4,-139 1321,-139 1321,5 -4,5"/>
<!-- Node1 -->
<g id="node1" class="node"><title>Node1</title>
<polygon fill="#bfbfbf" stroke="black" points="1220,-52 1220,-86 1316,-86 1316,-52 1220,-52"/>
<text text-anchor="start" x="1228" y="-73" font-family="Helvetica,sans-Serif" font-size="10.00">ant::progs::taggeff</text>
<text text-anchor="middle" x="1268" y="-60" font-family="Helvetica,sans-Serif" font-size="10.00">::treeLoader_t</text>
</g>
<!-- Node2 -->
<g id="node2" class="node"><title>Node2</title>
<a xlink:href="structant_1_1analysis_1_1physics_1_1_process_tagg_eff_1_1_tree_scalar_reads.html" target="_top" xlink:title="ant::analysis::physics\l::ProcessTaggEff::TreeScalarReads">
<polygon fill="white" stroke="black" points="964.5,-52 964.5,-86 1139.5,-86 1139.5,-52 964.5,-52"/>
<text text-anchor="start" x="972.5" y="-73" font-family="Helvetica,sans-Serif" font-size="10.00">ant::analysis::physics</text>
<text text-anchor="middle" x="1052" y="-60" font-family="Helvetica,sans-Serif" font-size="10.00">::ProcessTaggEff::TreeScalarReads</text>
</a>
</g>
<!-- Node2&#45;&gt;Node1 -->
<g id="edge2" class="edge"><title>Node2&#45;&gt;Node1</title>
<path fill="none" stroke="#9a32cd" stroke-dasharray="5,2" d="M1149.55,-69C1173.89,-69 1198.95,-69 1219.72,-69"/>
<polygon fill="#9a32cd" stroke="#9a32cd" points="1149.54,-65.5001 1139.54,-69 1149.54,-72.5001 1149.54,-65.5001"/>
<text text-anchor="middle" x="1180" y="-73" font-family="Helvetica,sans-Serif" font-size="10.00"> wrapTree</text>
</g>
<!-- Node3 -->
<g id="node4" class="node"><title>Node3</title>
<a xlink:href="structant_1_1_wrap_t_tree.html" target="_top" xlink:title="The WrapTTree struct simplifies TTree handling in physics classes. ">
<polygon fill="white" stroke="black" points="840.5,-58.5 840.5,-79.5 925.5,-79.5 925.5,-58.5 840.5,-58.5"/>
<text text-anchor="middle" x="883" y="-66.5" font-family="Helvetica,sans-Serif" font-size="10.00">ant::WrapTTree</text>
</a>
</g>
<!-- Node3&#45;&gt;Node2 -->
<g id="edge4" class="edge"><title>Node3&#45;&gt;Node2</title>
<path fill="none" stroke="midnightblue" d="M935.652,-69C944.757,-69 954.44,-69 964.182,-69"/>
<polygon fill="midnightblue" stroke="midnightblue" points="935.646,-65.5001 925.646,-69 935.646,-72.5001 935.646,-65.5001"/>
</g>
<!-- Node4 -->
<g id="node6" class="node"><title>Node4</title>
<polygon fill="white" stroke="#bfbfbf" points="620,-52 620,-86 760,-86 760,-52 620,-52"/>
<text text-anchor="start" x="628" y="-73" font-family="Helvetica,sans-Serif" font-size="10.00">std::vector&lt; ant::WrapTTree</text>
<text text-anchor="middle" x="690" y="-60" font-family="Helvetica,sans-Serif" font-size="10.00">::ROOT_branch_t &gt;</text>
</g>
<!-- Node4&#45;&gt;Node3 -->
<g id="edge6" class="edge"><title>Node4&#45;&gt;Node3</title>
<path fill="none" stroke="#9a32cd" stroke-dasharray="5,2" d="M770.407,-69C794.406,-69 819.771,-69 840.338,-69"/>
<polygon fill="#9a32cd" stroke="#9a32cd" points="770.223,-65.5001 760.223,-69 770.223,-72.5001 770.223,-65.5001"/>
<text text-anchor="middle" x="800" y="-73" font-family="Helvetica,sans-Serif" font-size="10.00"> branches</text>
</g>
<!-- Node5 -->
<g id="node8" class="node"><title>Node5</title>
<a xlink:href="structant_1_1_wrap_t_tree_1_1_r_o_o_t__branch__t.html" target="_top" xlink:title="ant::WrapTTree::ROOT\l_branch_t">
<polygon fill="white" stroke="black" points="419.5,-53 419.5,-87 538.5,-87 538.5,-53 419.5,-53"/>
<text text-anchor="start" x="427.5" y="-74" font-family="Helvetica,sans-Serif" font-size="10.00">ant::WrapTTree::ROOT</text>
<text text-anchor="middle" x="479" y="-61" font-family="Helvetica,sans-Serif" font-size="10.00">_branch_t</text>
</a>
</g>
<!-- Node5&#45;&gt;Node4 -->
<g id="edge8" class="edge"><title>Node5&#45;&gt;Node4</title>
<path fill="none" stroke="#9a32cd" stroke-dasharray="5,2" d="M548.881,-69.6688C571.641,-69.5609 596.907,-69.4412 619.698,-69.3332"/>
<polygon fill="#9a32cd" stroke="#9a32cd" points="548.601,-66.17 538.618,-69.7174 548.635,-73.1699 548.601,-66.17"/>
<text text-anchor="middle" x="580" y="-73" font-family="Helvetica,sans-Serif" font-size="10.00"> elements</text>
</g>
<!-- Node6 -->
<g id="node10" class="node"><title>Node6</title>
<a xlink:href="structant_1_1_wrap_t_tree_1_1_r_o_o_t__branchinfo__t.html" target="_top" xlink:title="ant::WrapTTree::ROOT\l_branchinfo_t">
<polygon fill="white" stroke="black" points="260.5,-58 260.5,-92 379.5,-92 379.5,-58 260.5,-58"/>
<text text-anchor="start" x="268.5" y="-79" font-family="Helvetica,sans-Serif" font-size="10.00">ant::WrapTTree::ROOT</text>
<text text-anchor="middle" x="320" y="-66" font-family="Helvetica,sans-Serif" font-size="10.00">_branchinfo_t</text>
</a>
</g>
<!-- Node6&#45;&gt;Node5 -->
<g id="edge10" class="edge"><title>Node6&#45;&gt;Node5</title>
<path fill="none" stroke="midnightblue" d="M389.801,-72.805C399.628,-72.496 409.656,-72.1806 419.272,-71.8782"/>
<polygon fill="midnightblue" stroke="midnightblue" points="389.543,-69.3113 379.658,-73.124 389.763,-76.3078 389.543,-69.3113"/>
</g>
<!-- Node7 -->
<g id="node12" class="node"><title>Node7</title>
<a xlink:title="STL class. ">
<polygon fill="white" stroke="#bfbfbf" points="134,-92.5 134,-113.5 194,-113.5 194,-92.5 134,-92.5"/>
<text text-anchor="middle" x="164" y="-100.5" font-family="Helvetica,sans-Serif" font-size="10.00">std::string</text>
</a>
</g>
<!-- Node7&#45;&gt;Node1 -->
<g id="edge16" class="edge"><title>Node7&#45;&gt;Node1</title>
<path fill="none" stroke="#9a32cd" stroke-dasharray="5,2" d="M204.176,-110.608C235.586,-115.896 280.412,-122 320,-122 320,-122 320,-122 1052,-122 1113.39,-122 1181.85,-101.555 1224.91,-86.0613"/>
<polygon fill="#9a32cd" stroke="#9a32cd" points="204.516,-107.115 194.065,-108.856 203.321,-114.012 204.516,-107.115"/>
<text text-anchor="middle" x="690" y="-126" font-family="Helvetica,sans-Serif" font-size="10.00"> setupName</text>
</g>
<!-- Node7&#45;&gt;Node6 -->
<g id="edge12" class="edge"><title>Node7&#45;&gt;Node6</title>
<path fill="none" stroke="#9a32cd" stroke-dasharray="5,2" d="M204.251,-95.7755C221.314,-92.7128 241.554,-89.08 260.3,-85.7154"/>
<polygon fill="#9a32cd" stroke="#9a32cd" points="203.303,-92.3896 194.078,-97.6013 204.539,-99.2795 203.303,-92.3896"/>
<text text-anchor="middle" x="227" y="-97" font-family="Helvetica,sans-Serif" font-size="10.00"> Name</text>
</g>
<!-- Node8 -->
<g id="node14" class="node"><title>Node8</title>
<a xlink:title="STL class. ">
<polygon fill="white" stroke="#bfbfbf" points="0.5,-86 0.5,-120 95.5,-120 95.5,-86 0.5,-86"/>
<text text-anchor="start" x="8.5" y="-107" font-family="Helvetica,sans-Serif" font-size="10.00">std::basic_string&lt;</text>
<text text-anchor="middle" x="48" y="-94" font-family="Helvetica,sans-Serif" font-size="10.00"> char &gt;</text>
</a>
</g>
<!-- Node8&#45;&gt;Node7 -->
<g id="edge14" class="edge"><title>Node8&#45;&gt;Node7</title>
<path fill="none" stroke="midnightblue" d="M105.582,-103C115.29,-103 125.014,-103 133.666,-103"/>
<polygon fill="midnightblue" stroke="midnightblue" points="105.516,-99.5001 95.5163,-103 105.516,-106.5 105.516,-99.5001"/>
</g>
<!-- Node9 -->
<g id="node17" class="node"><title>Node9</title>
<a xlink:href="classant_1_1_wrap_t_file_input.html" target="_top" xlink:title="ant::WrapTFileInput">
<polygon fill="white" stroke="black" points="1000.5,-12.5 1000.5,-33.5 1103.5,-33.5 1103.5,-12.5 1000.5,-12.5"/>
<text text-anchor="middle" x="1052" y="-20.5" font-family="Helvetica,sans-Serif" font-size="10.00">ant::WrapTFileInput</text>
</a>
</g>
<!-- Node9&#45;&gt;Node1 -->
<g id="edge18" class="edge"><title>Node9&#45;&gt;Node1</title>
<path fill="none" stroke="#9a32cd" stroke-dasharray="5,2" d="M1113.68,-34.046C1140.84,-39.1369 1173.09,-45.4885 1202,-52 1207.77,-53.3 1213.81,-54.7406 1219.78,-56.2174"/>
<polygon fill="#9a32cd" stroke="#9a32cd" points="1114.01,-30.5468 1103.54,-32.1588 1112.73,-37.4288 1114.01,-30.5468"/>
<text text-anchor="middle" x="1180" y="-56" font-family="Helvetica,sans-Serif" font-size="10.00"> wrapFile</text>
</g>
<!-- Node10 -->
<g id="node19" class="node"><title>Node10</title>
<a xlink:href="classant_1_1_wrap_t_file.html" target="_top" xlink:title="ant::WrapTFile">
<polygon fill="white" stroke="black" points="842.5,-10.5 842.5,-31.5 923.5,-31.5 923.5,-10.5 842.5,-10.5"/>
<text text-anchor="middle" x="883" y="-18.5" font-family="Helvetica,sans-Serif" font-size="10.00">ant::WrapTFile</text>
</a>
</g>
<!-- Node10&#45;&gt;Node9 -->
<g id="edge20" class="edge"><title>Node10&#45;&gt;Node9</title>
<path fill="none" stroke="midnightblue" d="M933.917,-21.6026C954.9,-21.8509 979.182,-22.1382 1000.25,-22.3876"/>
<polygon fill="midnightblue" stroke="midnightblue" points="933.951,-18.1028 923.91,-21.4841 933.868,-25.1023 933.951,-18.1028"/>
</g>
<!-- Node11 -->
<g id="node21" class="node"><title>Node11</title>
<polygon fill="white" stroke="#bfbfbf" points="637,-0 637,-34 743,-34 743,-0 637,-0"/>
<text text-anchor="start" x="645" y="-21" font-family="Helvetica,sans-Serif" font-size="10.00">std::list&lt; std::unique</text>
<text text-anchor="middle" x="690" y="-8" font-family="Helvetica,sans-Serif" font-size="10.00">_ptr&lt; TFile &gt; &gt;</text>
</g>
<!-- Node11&#45;&gt;Node10 -->
<g id="edge22" class="edge"><title>Node11&#45;&gt;Node10</title>
<path fill="none" stroke="#9a32cd" stroke-dasharray="5,2" d="M753.405,-18.3141C782.722,-18.9217 816.676,-19.6254 842.474,-20.1601"/>
<polygon fill="#9a32cd" stroke="#9a32cd" points="753.319,-14.8117 743.249,-18.1036 753.174,-21.8102 753.319,-14.8117"/>
<text text-anchor="middle" x="800" y="-24" font-family="Helvetica,sans-Serif" font-size="10.00"> files</text>
</g>
<!-- Node12 -->
<g id="node23" class="node"><title>Node12</title>
<polygon fill="white" stroke="#bfbfbf" points="418.5,-6.5 418.5,-27.5 539.5,-27.5 539.5,-6.5 418.5,-6.5"/>
<text text-anchor="middle" x="479" y="-14.5" font-family="Helvetica,sans-Serif" font-size="10.00">std::unique_ptr&lt; TFile &gt;</text>
</g>
<!-- Node12&#45;&gt;Node11 -->
<g id="edge24" class="edge"><title>Node12&#45;&gt;Node11</title>
<path fill="none" stroke="#9a32cd" stroke-dasharray="5,2" d="M550.018,-17C578.406,-17 610.536,-17 636.847,-17"/>
<polygon fill="#9a32cd" stroke="#9a32cd" points="549.747,-13.5001 539.747,-17 549.747,-20.5001 549.747,-13.5001"/>
<text text-anchor="middle" x="580" y="-21" font-family="Helvetica,sans-Serif" font-size="10.00"> elements</text>
</g>
</g>
</svg>
