<?xml version="1.0" encoding="UTF-8" standalone="no"?>
<!DOCTYPE svg PUBLIC "-//W3C//DTD SVG 1.1//EN"
 "http://www.w3.org/Graphics/SVG/1.1/DTD/svg11.dtd">
<!-- Generated by graphviz version 2.26.3 (20100126.1600)
 -->
<!-- Title: ant::analysis::physics::triplePi0::PionProdTree::particleStorage_t Pages: 1 -->
<svg width="696pt" height="125pt"
 viewBox="0.00 0.00 696.00 125.00" xmlns="http://www.w3.org/2000/svg" xmlns:xlink="http://www.w3.org/1999/xlink">
<g id="graph1" class="graph" transform="scale(1 1) rotate(0) translate(4 121)">
<title>ant::analysis::physics::triplePi0::PionProdTree::particleStorage_t</title>
<polygon fill="white" stroke="white" points="-4,5 -4,-121 693,-121 693,5 -4,5"/>
<!-- Node1 -->
<g id="node1" class="node"><title>Node1</title>
<polygon fill="#bfbfbf" stroke="black" points="564.5,-30.5 564.5,-77.5 687.5,-77.5 687.5,-30.5 564.5,-30.5"/>
<text text-anchor="start" x="572.5" y="-64.5" font-family="Helvetica,sans-Serif" font-size="10.00">ant::analysis::physics</text>
<text text-anchor="start" x="572.5" y="-51.5" font-family="Helvetica,sans-Serif" font-size="10.00">::triplePi0::PionProdTree</text>
<text text-anchor="middle" x="626" y="-38.5" font-family="Helvetica,sans-Serif" font-size="10.00">::particleStorage_t</text>
</g>
<!-- Node2 -->
<g id="node2" class="node"><title>Node2</title>
<a xlink:href="structant_1_1std__ext_1_1cc__shared__ptr.html" target="_top" xlink:title="ant::std_ext::cc_shared\l_ptr\&lt; TParticle \&gt;">
<polygon fill="white" stroke="black" points="345.5,-83 345.5,-117 464.5,-117 464.5,-83 345.5,-83"/>
<text text-anchor="start" x="353.5" y="-104" font-family="Helvetica,sans-Serif" font-size="10.00">ant::std_ext::cc_shared</text>
<text text-anchor="middle" x="405" y="-91" font-family="Helvetica,sans-Serif" font-size="10.00">_ptr&lt; TParticle &gt;</text>
</a>
</g>
<!-- Node2&#45;&gt;Node1 -->
<g id="edge2" class="edge"><title>Node2&#45;&gt;Node1</title>
<path fill="none" stroke="#9a32cd" stroke-dasharray="5,2" d="M474.621,-85.7749C497.379,-81.0997 522.773,-75.8564 546,-71 551.976,-69.7504 558.202,-68.441 564.425,-67.1271"/>
<polygon fill="#9a32cd" stroke="#9a32cd" points="473.798,-82.3707 464.706,-87.81 475.206,-89.2277 473.798,-82.3707"/>
<text text-anchor="middle" x="518" y="-86" font-family="Helvetica,sans-Serif" font-size="10.00"> Proton</text>
</g>
<!-- Node3 -->
<g id="node4" class="node"><title>Node3</title>
<polygon fill="white" stroke="#bfbfbf" points="338.5,-43.5 338.5,-64.5 471.5,-64.5 471.5,-43.5 338.5,-43.5"/>
<text text-anchor="middle" x="405" y="-51.5" font-family="Helvetica,sans-Serif" font-size="10.00">std::vector&lt; TParticlePtr &gt;</text>
</g>
<!-- Node3&#45;&gt;Node1 -->
<g id="edge4" class="edge"><title>Node3&#45;&gt;Node1</title>
<path fill="none" stroke="#9a32cd" stroke-dasharray="5,2" d="M481.804,-54C508.829,-54 538.829,-54 564.435,-54"/>
<polygon fill="#9a32cd" stroke="#9a32cd" points="481.607,-50.5001 471.607,-54 481.607,-57.5001 481.607,-50.5001"/>
<text text-anchor="middle" x="518" y="-58" font-family="Helvetica,sans-Serif" font-size="10.00"> Photons</text>
</g>
<!-- Node4 -->
<g id="node6" class="node"><title>Node4</title>
<a xlink:href="structant_1_1std__ext_1_1cc__shared__ptr.html" target="_top" xlink:title="ant::std_ext::cc_shared\l_ptr\&lt; T \&gt;">
<polygon fill="white" stroke="black" points="138.5,-40 138.5,-74 257.5,-74 257.5,-40 138.5,-40"/>
<text text-anchor="start" x="146.5" y="-61" font-family="Helvetica,sans-Serif" font-size="10.00">ant::std_ext::cc_shared</text>
<text text-anchor="middle" x="198" y="-48" font-family="Helvetica,sans-Serif" font-size="10.00">_ptr&lt; T &gt;</text>
</a>
</g>
<!-- Node4&#45;&gt;Node3 -->
<g id="edge6" class="edge"><title>Node4&#45;&gt;Node3</title>
<path fill="none" stroke="#9a32cd" stroke-dasharray="5,2" d="M267.844,-55.9878C290.561,-55.6585 315.705,-55.2941 338.194,-54.9682"/>
<polygon fill="#9a32cd" stroke="#9a32cd" points="267.543,-52.4917 257.595,-56.1363 267.645,-59.4909 267.543,-52.4917"/>
<text text-anchor="middle" x="298" y="-59" font-family="Helvetica,sans-Serif" font-size="10.00"> elements</text>
</g>
<!-- Node5 -->
<g id="node8" class="node"><title>Node5</title>
<a xlink:href="structant_1_1_lorentz_vec.html" target="_top" xlink:title="A Lorentz vector (x,y,z,E), diag(&#45;1,&#45;1,&#45;1, 1) ">
<polygon fill="white" stroke="black" points="362,-2.5 362,-23.5 448,-23.5 448,-2.5 362,-2.5"/>
<text text-anchor="middle" x="405" y="-10.5" font-family="Helvetica,sans-Serif" font-size="10.00">ant::LorentzVec</text>
</a>
</g>
<!-- Node5&#45;&gt;Node1 -->
<g id="edge8" class="edge"><title>Node5&#45;&gt;Node1</title>
<path fill="none" stroke="#9a32cd" stroke-dasharray="5,2" d="M458.457,-21.5717C484.853,-25.9383 517.148,-31.4815 546,-37 551.997,-38.147 558.236,-39.3884 564.467,-40.66"/>
<polygon fill="#9a32cd" stroke="#9a32cd" points="458.715,-18.0671 448.28,-19.8978 457.579,-24.9743 458.715,-18.0671"/>
<text text-anchor="middle" x="518" y="-41" font-family="Helvetica,sans-Serif" font-size="10.00"> PhotonSum</text>
</g>
<!-- Node6 -->
<g id="node10" class="node"><title>Node6</title>
<a xlink:href="structant_1_1vec3.html" target="_top" xlink:title="ant::vec3">
<polygon fill="white" stroke="black" points="169.5,-0.5 169.5,-21.5 226.5,-21.5 226.5,-0.5 169.5,-0.5"/>
<text text-anchor="middle" x="198" y="-8.5" font-family="Helvetica,sans-Serif" font-size="10.00">ant::vec3</text>
</a>
</g>
<!-- Node6&#45;&gt;Node5 -->
<g id="edge10" class="edge"><title>Node6&#45;&gt;Node5</title>
<path fill="none" stroke="#9a32cd" stroke-dasharray="5,2" d="M237.232,-11.3791C272.746,-11.7222 324.968,-12.2267 361.693,-12.5816"/>
<polygon fill="#9a32cd" stroke="#9a32cd" points="236.816,-7.87496 226.782,-11.2781 236.748,-14.8746 236.816,-7.87496"/>
<text text-anchor="middle" x="298" y="-16" font-family="Helvetica,sans-Serif" font-size="10.00"> p</text>
</g>
<!-- Node7 -->
<g id="node12" class="node"><title>Node7</title>
<a xlink:href="classant_1_1printable__traits.html" target="_top" xlink:title="ant::printable_traits">
<polygon fill="white" stroke="black" points="0,-0.5 0,-21.5 100,-21.5 100,-0.5 0,-0.5"/>
<text text-anchor="middle" x="50" y="-8.5" font-family="Helvetica,sans-Serif" font-size="10.00">ant::printable_traits</text>
</a>
</g>
<!-- Node7&#45;&gt;Node6 -->
<g id="edge12" class="edge"><title>Node7&#45;&gt;Node6</title>
<path fill="none" stroke="midnightblue" d="M110.254,-11C130.578,-11 152.336,-11 169.102,-11"/>
<polygon fill="midnightblue" stroke="midnightblue" points="110.106,-7.5001 100.106,-11 110.106,-14.5001 110.106,-7.5001"/>
</g>
</g>
</svg>
