<?xml version="1.0" encoding="UTF-8" standalone="no"?>
<!DOCTYPE svg PUBLIC "-//W3C//DTD SVG 1.1//EN"
 "http://www.w3.org/Graphics/SVG/1.1/DTD/svg11.dtd">
<!-- Generated by graphviz version 2.26.3 (20100126.1600)
 -->
<!-- Title: ant::expconfig::detector::TAPSVeto Pages: 1 -->
<svg width="262pt" height="304pt"
 viewBox="0.00 0.00 262.00 304.00" xmlns="http://www.w3.org/2000/svg" xmlns:xlink="http://www.w3.org/1999/xlink">
<g id="graph1" class="graph" transform="scale(1 1) rotate(0) translate(4 300)">
<title>ant::expconfig::detector::TAPSVeto</title>
<polygon fill="white" stroke="white" points="-4,5 -4,-300 259,-300 259,5 -4,5"/>
<!-- Node1 -->
<g id="node1" class="node"><title>Node1</title>
<polygon fill="#bfbfbf" stroke="black" points="67.5,-145 67.5,-179 186.5,-179 186.5,-145 67.5,-145"/>
<text text-anchor="start" x="75.5" y="-166" font-family="Helvetica,sans-Serif" font-size="10.00">ant::expconfig::detector</text>
<text text-anchor="middle" x="127" y="-153" font-family="Helvetica,sans-Serif" font-size="10.00">::TAPSVeto</text>
</g>
<!-- Node5 -->
<g id="node9" class="node"><title>Node5</title>
<a xlink:href="structant_1_1expconfig_1_1detector_1_1_t_a_p_s_veto__2007.html" target="_top" xlink:title="ant::expconfig::detector\l::TAPSVeto_2007">
<polygon fill="white" stroke="black" points="-0.5,-73 -0.5,-107 118.5,-107 118.5,-73 -0.5,-73"/>
<text text-anchor="start" x="7.5" y="-94" font-family="Helvetica,sans-Serif" font-size="10.00">ant::expconfig::detector</text>
<text text-anchor="middle" x="59" y="-81" font-family="Helvetica,sans-Serif" font-size="10.00">::TAPSVeto_2007</text>
</a>
</g>
<!-- Node1&#45;&gt;Node5 -->
<g id="edge8" class="edge"><title>Node1&#45;&gt;Node5</title>
<path fill="none" stroke="midnightblue" d="M103.746,-137.379C94.4496,-127.535 83.958,-116.426 75.4717,-107.441"/>
<polygon fill="midnightblue" stroke="midnightblue" points="101.474,-140.07 110.885,-144.937 106.563,-135.264 101.474,-140.07"/>
</g>
<!-- Node6 -->
<g id="node11" class="node"><title>Node6</title>
<a xlink:href="structant_1_1expconfig_1_1detector_1_1_t_a_p_s_veto__2013.html" target="_top" xlink:title="ant::expconfig::detector\l::TAPSVeto_2013">
<polygon fill="white" stroke="black" points="135.5,-73 135.5,-107 254.5,-107 254.5,-73 135.5,-73"/>
<text text-anchor="start" x="143.5" y="-94" font-family="Helvetica,sans-Serif" font-size="10.00">ant::expconfig::detector</text>
<text text-anchor="middle" x="195" y="-81" font-family="Helvetica,sans-Serif" font-size="10.00">::TAPSVeto_2013</text>
</a>
</g>
<!-- Node1&#45;&gt;Node6 -->
<g id="edge10" class="edge"><title>Node1&#45;&gt;Node6</title>
<path fill="none" stroke="midnightblue" d="M150.254,-137.379C159.55,-127.535 170.042,-116.426 178.528,-107.441"/>
<polygon fill="midnightblue" stroke="midnightblue" points="147.437,-135.264 143.115,-144.937 152.526,-140.07 147.437,-135.264"/>
</g>
<!-- Node2 -->
<g id="node2" class="node"><title>Node2</title>
<a xlink:href="structant_1_1_detector__t.html" target="_top" xlink:title="The Detector_t struct is the minimal base class for all detectors. ">
<polygon fill="white" stroke="black" points="25,-216.5 25,-237.5 107,-237.5 107,-216.5 25,-216.5"/>
<text text-anchor="middle" x="66" y="-224.5" font-family="Helvetica,sans-Serif" font-size="10.00">ant::Detector_t</text>
</a>
</g>
<!-- Node2&#45;&gt;Node1 -->
<g id="edge2" class="edge"><title>Node2&#45;&gt;Node1</title>
<path fill="none" stroke="midnightblue" d="M83.1676,-208.707C91.878,-199.425 102.395,-188.219 110.943,-179.11"/>
<polygon fill="midnightblue" stroke="midnightblue" points="80.3639,-206.58 76.0729,-216.267 85.4682,-211.37 80.3639,-206.58"/>
</g>
<!-- Node3 -->
<g id="node4" class="node"><title>Node3</title>
<a xlink:href="classant_1_1printable__traits.html" target="_top" xlink:title="ant::printable_traits">
<polygon fill="white" stroke="black" points="16,-274.5 16,-295.5 116,-295.5 116,-274.5 16,-274.5"/>
<text text-anchor="middle" x="66" y="-282.5" font-family="Helvetica,sans-Serif" font-size="10.00">ant::printable_traits</text>
</a>
</g>
<!-- Node3&#45;&gt;Node2 -->
<g id="edge4" class="edge"><title>Node3&#45;&gt;Node2</title>
<path fill="none" stroke="midnightblue" d="M66,-264.191C66,-255.168 66,-244.994 66,-237.571"/>
<polygon fill="midnightblue" stroke="midnightblue" points="62.5001,-264.362 66,-274.362 69.5001,-264.362 62.5001,-264.362"/>
</g>
<!-- Node4 -->
<g id="node6" class="node"><title>Node4</title>
<a xlink:href="classant_1_1_unpacker_acqu_config.html" target="_top" xlink:title="ant::UnpackerAcquConfig">
<polygon fill="white" stroke="black" points="124.5,-216.5 124.5,-237.5 253.5,-237.5 253.5,-216.5 124.5,-216.5"/>
<text text-anchor="middle" x="189" y="-224.5" font-family="Helvetica,sans-Serif" font-size="10.00">ant::UnpackerAcquConfig</text>
</a>
</g>
<!-- Node4&#45;&gt;Node1 -->
<g id="edge6" class="edge"><title>Node4&#45;&gt;Node1</title>
<path fill="none" stroke="midnightblue" d="M171.819,-208.987C162.914,-199.652 152.097,-188.311 143.32,-179.11"/>
<polygon fill="midnightblue" stroke="midnightblue" points="169.327,-211.446 178.762,-216.267 174.392,-206.615 169.327,-211.446"/>
</g>
<!-- Node7 -->
<g id="node13" class="node"><title>Node7</title>
<a xlink:href="structant_1_1expconfig_1_1detector_1_1_t_a_p_s_veto__2014.html" target="_top" xlink:title="ant::expconfig::detector\l::TAPSVeto_2014">
<polygon fill="white" stroke="black" points="135.5,-1 135.5,-35 254.5,-35 254.5,-1 135.5,-1"/>
<text text-anchor="start" x="143.5" y="-22" font-family="Helvetica,sans-Serif" font-size="10.00">ant::expconfig::detector</text>
<text text-anchor="middle" x="195" y="-9" font-family="Helvetica,sans-Serif" font-size="10.00">::TAPSVeto_2014</text>
</a>
</g>
<!-- Node6&#45;&gt;Node7 -->
<g id="edge12" class="edge"><title>Node6&#45;&gt;Node7</title>
<path fill="none" stroke="midnightblue" d="M195,-62.7193C195,-53.572 195,-43.6255 195,-35.4407"/>
<polygon fill="midnightblue" stroke="midnightblue" points="191.5,-62.937 195,-72.937 198.5,-62.937 191.5,-62.937"/>
</g>
</g>
</svg>
