<?xml version="1.0" encoding="UTF-8" standalone="no"?>
<!DOCTYPE svg PUBLIC "-//W3C//DTD SVG 1.1//EN"
 "http://www.w3.org/Graphics/SVG/1.1/DTD/svg11.dtd">
<!-- Generated by graphviz version 2.26.3 (20100126.1600)
 -->
<!-- Title: Pi0Pi0Hypothesis Pages: 1 -->
<svg width="237pt" height="344pt"
 viewBox="0.00 0.00 237.00 344.00" xmlns="http://www.w3.org/2000/svg" xmlns:xlink="http://www.w3.org/1999/xlink">
<g id="graph1" class="graph" transform="scale(1 1) rotate(0) translate(4 340)">
<title>Pi0Pi0Hypothesis</title>
<polygon fill="white" stroke="white" points="-4,5 -4,-340 234,-340 234,5 -4,5"/>
<!-- Node1 -->
<g id="node1" class="node"><title>Node1</title>
<polygon fill="#bfbfbf" stroke="black" points="92.5,-0.5 92.5,-21.5 187.5,-21.5 187.5,-0.5 92.5,-0.5"/>
<text text-anchor="middle" x="140" y="-8.5" font-family="Helvetica,sans-Serif" font-size="10.00">Pi0Pi0Hypothesis</text>
</g>
<!-- Node2 -->
<g id="node2" class="node"><title>Node2</title>
<a xlink:href="struct_pi0_hypothesis.html" target="_top" xlink:title="Pi0Hypothesis">
<polygon fill="white" stroke="black" points="100,-84.5 100,-105.5 180,-105.5 180,-84.5 100,-84.5"/>
<text text-anchor="middle" x="140" y="-92.5" font-family="Helvetica,sans-Serif" font-size="10.00">Pi0Hypothesis</text>
</a>
</g>
<!-- Node2&#45;&gt;Node1 -->
<g id="edge2" class="edge"><title>Node2&#45;&gt;Node1</title>
<path fill="none" stroke="#9a32cd" stroke-dasharray="5,2" d="M140,-73.9452C140,-57.2568 140,-34.6387 140,-21.5523"/>
<polygon fill="#9a32cd" stroke="#9a32cd" points="136.5,-74.3613 140,-84.3613 143.5,-74.3614 136.5,-74.3613"/>
<text text-anchor="middle" x="151" y="-57" font-family="Helvetica,sans-Serif" font-size="10.00"> pi_0</text>
<text text-anchor="middle" x="151" y="-44" font-family="Helvetica,sans-Serif" font-size="10.00">pi_1</text>
</g>
<!-- Node3 -->
<g id="node4" class="node"><title>Node3</title>
<a xlink:href="structant_1_1_lorentz_vec.html" target="_top" xlink:title="A Lorentz vector (x,y,z,E), diag(&#45;1,&#45;1,&#45;1, 1) ">
<polygon fill="white" stroke="black" points="7,-175.5 7,-196.5 93,-196.5 93,-175.5 7,-175.5"/>
<text text-anchor="middle" x="50" y="-183.5" font-family="Helvetica,sans-Serif" font-size="10.00">ant::LorentzVec</text>
</a>
</g>
<!-- Node3&#45;&gt;Node2 -->
<g id="edge4" class="edge"><title>Node3&#45;&gt;Node2</title>
<path fill="none" stroke="#9a32cd" stroke-dasharray="5,2" d="M67.9331,-167.868C86.3998,-149.196 114.543,-120.74 129.614,-105.501"/>
<polygon fill="#9a32cd" stroke="#9a32cd" points="65.221,-165.633 60.6776,-175.204 70.198,-170.555 65.221,-165.633"/>
<text text-anchor="middle" x="119" y="-134.5" font-family="Helvetica,sans-Serif" font-size="10.00"> pi0</text>
</g>
<!-- Node4 -->
<g id="node6" class="node"><title>Node4</title>
<a xlink:href="structant_1_1vec3.html" target="_top" xlink:title="ant::vec3">
<polygon fill="white" stroke="black" points="21.5,-254.5 21.5,-275.5 78.5,-275.5 78.5,-254.5 21.5,-254.5"/>
<text text-anchor="middle" x="50" y="-262.5" font-family="Helvetica,sans-Serif" font-size="10.00">ant::vec3</text>
</a>
</g>
<!-- Node4&#45;&gt;Node3 -->
<g id="edge6" class="edge"><title>Node4&#45;&gt;Node3</title>
<path fill="none" stroke="#9a32cd" stroke-dasharray="5,2" d="M50,-244.284C50,-229.031 50,-208.907 50,-196.738"/>
<polygon fill="#9a32cd" stroke="#9a32cd" points="46.5001,-244.346 50,-254.346 53.5001,-244.346 46.5001,-244.346"/>
<text text-anchor="middle" x="54.5" y="-226.5" font-family="Helvetica,sans-Serif" font-size="10.00"> p</text>
</g>
<!-- Node5 -->
<g id="node8" class="node"><title>Node5</title>
<a xlink:href="classant_1_1printable__traits.html" target="_top" xlink:title="ant::printable_traits">
<polygon fill="white" stroke="black" points="0,-314.5 0,-335.5 100,-335.5 100,-314.5 0,-314.5"/>
<text text-anchor="middle" x="50" y="-322.5" font-family="Helvetica,sans-Serif" font-size="10.00">ant::printable_traits</text>
</a>
</g>
<!-- Node5&#45;&gt;Node4 -->
<g id="edge8" class="edge"><title>Node5&#45;&gt;Node4</title>
<path fill="none" stroke="midnightblue" d="M50,-304.231C50,-294.592 50,-283.544 50,-275.634"/>
<polygon fill="midnightblue" stroke="midnightblue" points="46.5001,-304.273 50,-314.273 53.5001,-304.273 46.5001,-304.273"/>
</g>
<!-- Node6 -->
<g id="node10" class="node"><title>Node6</title>
<a xlink:href="structant_1_1std__ext_1_1cc__shared__ptr.html" target="_top" xlink:title="ant::std_ext::cc_shared\l_ptr\&lt; T \&gt;">
<polygon fill="white" stroke="black" points="110.5,-169 110.5,-203 229.5,-203 229.5,-169 110.5,-169"/>
<text text-anchor="start" x="118.5" y="-190" font-family="Helvetica,sans-Serif" font-size="10.00">ant::std_ext::cc_shared</text>
<text text-anchor="middle" x="170" y="-177" font-family="Helvetica,sans-Serif" font-size="10.00">_ptr&lt; T &gt;</text>
</a>
</g>
<!-- Node6&#45;&gt;Node2 -->
<g id="edge10" class="edge"><title>Node6&#45;&gt;Node2</title>
<path fill="none" stroke="#9a32cd" stroke-dasharray="5,2" d="M161.17,-159.214C155.244,-141.239 147.762,-118.544 143.465,-105.51"/>
<polygon fill="#9a32cd" stroke="#9a32cd" points="157.902,-160.482 164.357,-168.884 164.55,-158.291 157.902,-160.482"/>
<text text-anchor="middle" x="177.5" y="-141" font-family="Helvetica,sans-Serif" font-size="10.00"> gamma0</text>
<text text-anchor="middle" x="177.5" y="-128" font-family="Helvetica,sans-Serif" font-size="10.00">gamma1</text>
</g>
</g>
</svg>
