<?xml version="1.0" encoding="UTF-8" standalone="no"?>
<!DOCTYPE svg PUBLIC "-//W3C//DTD SVG 1.1//EN"
 "http://www.w3.org/Graphics/SVG/1.1/DTD/svg11.dtd">
<!-- Generated by graphviz version 2.26.3 (20100126.1600)
 -->
<!-- Title: ant::analysis::physics::debugScaler Pages: 1 -->
<svg width="301pt" height="608pt"
 viewBox="0.00 0.00 301.00 608.00" xmlns="http://www.w3.org/2000/svg" xmlns:xlink="http://www.w3.org/1999/xlink">
<g id="graph1" class="graph" transform="scale(1 1) rotate(0) translate(4 604)">
<title>ant::analysis::physics::debugScaler</title>
<polygon fill="white" stroke="white" points="-4,5 -4,-604 298,-604 298,5 -4,5"/>
<!-- Node1 -->
<g id="node1" class="node"><title>Node1</title>
<polygon fill="#bfbfbf" stroke="black" points="96,-1 96,-35 208,-35 208,-1 96,-1"/>
<text text-anchor="start" x="104" y="-22" font-family="Helvetica,sans-Serif" font-size="10.00">ant::analysis::physics</text>
<text text-anchor="middle" x="152" y="-9" font-family="Helvetica,sans-Serif" font-size="10.00">::debugScaler</text>
</g>
<!-- Node2 -->
<g id="node2" class="node"><title>Node2</title>
<a xlink:href="classant_1_1analysis_1_1_physics.html" target="_top" xlink:title="ant::analysis::Physics">
<polygon fill="white" stroke="black" points="4.5,-93.5 4.5,-114.5 117.5,-114.5 117.5,-93.5 4.5,-93.5"/>
<text text-anchor="middle" x="61" y="-101.5" font-family="Helvetica,sans-Serif" font-size="10.00">ant::analysis::Physics</text>
</a>
</g>
<!-- Node2&#45;&gt;Node1 -->
<g id="edge2" class="edge"><title>Node2&#45;&gt;Node1</title>
<path fill="none" stroke="midnightblue" d="M79.7611,-86.2698C95.6059,-71.2955 118.156,-49.9845 133.831,-35.1709"/>
<polygon fill="midnightblue" stroke="midnightblue" points="77.0223,-84.0423 72.1584,-93.4547 81.8303,-89.1299 77.0223,-84.0423"/>
</g>
<!-- Node3 -->
<g id="node4" class="node"><title>Node3</title>
<a xlink:href="classant_1_1analysis_1_1_histogram_factory.html" target="_top" xlink:title="ant::analysis::Histogram\lFactory">
<polygon fill="white" stroke="black" points="-0.5,-173 -0.5,-207 122.5,-207 122.5,-173 -0.5,-173"/>
<text text-anchor="start" x="7.5" y="-194" font-family="Helvetica,sans-Serif" font-size="10.00">ant::analysis::Histogram</text>
<text text-anchor="middle" x="61" y="-181" font-family="Helvetica,sans-Serif" font-size="10.00">Factory</text>
</a>
</g>
<!-- Node3&#45;&gt;Node2 -->
<g id="edge4" class="edge"><title>Node3&#45;&gt;Node2</title>
<path fill="none" stroke="#9a32cd" stroke-dasharray="5,2" d="M61,-162.56C61,-146.365 61,-126.766 61,-114.848"/>
<polygon fill="#9a32cd" stroke="#9a32cd" points="57.5001,-162.597 61,-172.597 64.5001,-162.597 57.5001,-162.597"/>
<text text-anchor="middle" x="80" y="-144.5" font-family="Helvetica,sans-Serif" font-size="10.00"> HistFac</text>
</g>
<!-- Node4 -->
<g id="node6" class="node"><title>Node4</title>
<a xlink:href="structant_1_1analysis_1_1physics_1_1debug_scaler_1_1_tree_scalar_reads.html" target="_top" xlink:title="ant::analysis::physics\l::debugScaler::TreeScalarReads">
<polygon fill="white" stroke="black" points="135,-87 135,-121 293,-121 293,-87 135,-87"/>
<text text-anchor="start" x="143" y="-108" font-family="Helvetica,sans-Serif" font-size="10.00">ant::analysis::physics</text>
<text text-anchor="middle" x="214" y="-95" font-family="Helvetica,sans-Serif" font-size="10.00">::debugScaler::TreeScalarReads</text>
</a>
</g>
<!-- Node4&#45;&gt;Node1 -->
<g id="edge6" class="edge"><title>Node4&#45;&gt;Node1</title>
<path fill="none" stroke="#9a32cd" stroke-dasharray="5,2" d="M195.5,-78.3391C185.422,-64.3598 173.227,-47.4437 164.316,-35.084"/>
<polygon fill="#9a32cd" stroke="#9a32cd" points="192.766,-80.5317 201.453,-86.5966 198.444,-76.438 192.766,-80.5317"/>
<text text-anchor="middle" x="215" y="-58.5" font-family="Helvetica,sans-Serif" font-size="10.00"> scalerReads</text>
</g>
<!-- Node5 -->
<g id="node8" class="node"><title>Node5</title>
<a xlink:href="structant_1_1_wrap_t_tree.html" target="_top" xlink:title="The WrapTTree struct simplifies TTree handling in physics classes. ">
<polygon fill="white" stroke="black" points="171.5,-179.5 171.5,-200.5 256.5,-200.5 256.5,-179.5 171.5,-179.5"/>
<text text-anchor="middle" x="214" y="-187.5" font-family="Helvetica,sans-Serif" font-size="10.00">ant::WrapTTree</text>
</a>
</g>
<!-- Node5&#45;&gt;Node4 -->
<g id="edge8" class="edge"><title>Node5&#45;&gt;Node4</title>
<path fill="none" stroke="midnightblue" d="M214,-169.31C214,-154.585 214,-135.033 214,-121.171"/>
<polygon fill="midnightblue" stroke="midnightblue" points="210.5,-169.455 214,-179.455 217.5,-169.455 210.5,-169.455"/>
</g>
<!-- Node6 -->
<g id="node10" class="node"><title>Node6</title>
<polygon fill="white" stroke="#bfbfbf" points="144,-259 144,-293 284,-293 284,-259 144,-259"/>
<text text-anchor="start" x="152" y="-280" font-family="Helvetica,sans-Serif" font-size="10.00">std::vector&lt; ant::WrapTTree</text>
<text text-anchor="middle" x="214" y="-267" font-family="Helvetica,sans-Serif" font-size="10.00">::ROOT_branch_t &gt;</text>
</g>
<!-- Node6&#45;&gt;Node5 -->
<g id="edge10" class="edge"><title>Node6&#45;&gt;Node5</title>
<path fill="none" stroke="#9a32cd" stroke-dasharray="5,2" d="M214,-248.56C214,-232.365 214,-212.766 214,-200.848"/>
<polygon fill="#9a32cd" stroke="#9a32cd" points="210.5,-248.597 214,-258.597 217.5,-248.597 210.5,-248.597"/>
<text text-anchor="middle" x="235.5" y="-230.5" font-family="Helvetica,sans-Serif" font-size="10.00"> branches</text>
</g>
<!-- Node7 -->
<g id="node12" class="node"><title>Node7</title>
<a xlink:href="structant_1_1_wrap_t_tree_1_1_r_o_o_t__branch__t.html" target="_top" xlink:title="ant::WrapTTree::ROOT\l_branch_t">
<polygon fill="white" stroke="black" points="154.5,-345 154.5,-379 273.5,-379 273.5,-345 154.5,-345"/>
<text text-anchor="start" x="162.5" y="-366" font-family="Helvetica,sans-Serif" font-size="10.00">ant::WrapTTree::ROOT</text>
<text text-anchor="middle" x="214" y="-353" font-family="Helvetica,sans-Serif" font-size="10.00">_branch_t</text>
</a>
</g>
<!-- Node7&#45;&gt;Node6 -->
<g id="edge12" class="edge"><title>Node7&#45;&gt;Node6</title>
<path fill="none" stroke="#9a32cd" stroke-dasharray="5,2" d="M214,-334.342C214,-320.774 214,-304.861 214,-293.084"/>
<polygon fill="#9a32cd" stroke="#9a32cd" points="210.5,-334.597 214,-344.597 217.5,-334.597 210.5,-334.597"/>
<text text-anchor="middle" x="235.5" y="-316.5" font-family="Helvetica,sans-Serif" font-size="10.00"> elements</text>
</g>
<!-- Node8 -->
<g id="node14" class="node"><title>Node8</title>
<a xlink:href="structant_1_1_wrap_t_tree_1_1_r_o_o_t__branchinfo__t.html" target="_top" xlink:title="ant::WrapTTree::ROOT\l_branchinfo_t">
<polygon fill="white" stroke="black" points="154.5,-419 154.5,-453 273.5,-453 273.5,-419 154.5,-419"/>
<text text-anchor="start" x="162.5" y="-440" font-family="Helvetica,sans-Serif" font-size="10.00">ant::WrapTTree::ROOT</text>
<text text-anchor="middle" x="214" y="-427" font-family="Helvetica,sans-Serif" font-size="10.00">_branchinfo_t</text>
</a>
</g>
<!-- Node8&#45;&gt;Node7 -->
<g id="edge14" class="edge"><title>Node8&#45;&gt;Node7</title>
<path fill="none" stroke="midnightblue" d="M214,-408.627C214,-398.725 214,-387.834 214,-379.07"/>
<polygon fill="midnightblue" stroke="midnightblue" points="210.5,-408.837 214,-418.837 217.5,-408.837 210.5,-408.837"/>
</g>
<!-- Node9 -->
<g id="node16" class="node"><title>Node9</title>
<a xlink:title="STL class. ">
<polygon fill="white" stroke="#bfbfbf" points="184,-504.5 184,-525.5 244,-525.5 244,-504.5 184,-504.5"/>
<text text-anchor="middle" x="214" y="-512.5" font-family="Helvetica,sans-Serif" font-size="10.00">std::string</text>
</a>
</g>
<!-- Node9&#45;&gt;Node8 -->
<g id="edge16" class="edge"><title>Node9&#45;&gt;Node8</title>
<path fill="none" stroke="#9a32cd" stroke-dasharray="5,2" d="M214,-494.162C214,-481.363 214,-465.171 214,-453.124"/>
<polygon fill="#9a32cd" stroke="#9a32cd" points="210.5,-494.346 214,-504.346 217.5,-494.346 210.5,-494.346"/>
<text text-anchor="middle" x="229" y="-476.5" font-family="Helvetica,sans-Serif" font-size="10.00"> Name</text>
</g>
<!-- Node10 -->
<g id="node18" class="node"><title>Node10</title>
<a xlink:title="STL class. ">
<polygon fill="white" stroke="#bfbfbf" points="166.5,-565 166.5,-599 261.5,-599 261.5,-565 166.5,-565"/>
<text text-anchor="start" x="174.5" y="-586" font-family="Helvetica,sans-Serif" font-size="10.00">std::basic_string&lt;</text>
<text text-anchor="middle" x="214" y="-573" font-family="Helvetica,sans-Serif" font-size="10.00"> char &gt;</text>
</a>
</g>
<!-- Node10&#45;&gt;Node9 -->
<g id="edge18" class="edge"><title>Node10&#45;&gt;Node9</title>
<path fill="none" stroke="midnightblue" d="M214,-554.534C214,-544.306 214,-533.301 214,-525.506"/>
<polygon fill="midnightblue" stroke="midnightblue" points="210.5,-554.746 214,-564.746 217.5,-554.746 210.5,-554.746"/>
</g>
</g>
</svg>
