<?xml version="1.0" encoding="UTF-8" standalone="no"?>
<!DOCTYPE svg PUBLIC "-//W3C//DTD SVG 1.1//EN"
 "http://www.w3.org/Graphics/SVG/1.1/DTD/svg11.dtd">
<!-- Generated by graphviz version 2.26.3 (20100126.1600)
 -->
<!-- Title: ant::TCandidate Pages: 1 -->
<svg width="444pt" height="200pt"
 viewBox="0.00 0.00 444.00 199.86" xmlns="http://www.w3.org/2000/svg" xmlns:xlink="http://www.w3.org/1999/xlink">
<g id="graph1" class="graph" transform="scale(1 1) rotate(0) translate(4 195.864)">
<title>ant::TCandidate</title>
<polygon fill="white" stroke="white" points="-4,5 -4,-195.864 441,-195.864 441,5 -4,5"/>
<!-- Node1 -->
<g id="node1" class="node"><title>Node1</title>
<polygon fill="#bfbfbf" stroke="black" points="350,-52.5 350,-73.5 436,-73.5 436,-52.5 350,-52.5"/>
<text text-anchor="middle" x="393" y="-60.5" font-family="Helvetica,sans-Serif" font-size="10.00">ant::TCandidate</text>
</g>
<!-- Node2 -->
<g id="node2" class="node"><title>Node2</title>
<a xlink:href="classant_1_1printable__traits.html" target="_top" xlink:title="ant::printable_traits">
<polygon fill="white" stroke="black" points="0,-147.5 0,-168.5 100,-168.5 100,-147.5 0,-147.5"/>
<text text-anchor="middle" x="50" y="-155.5" font-family="Helvetica,sans-Serif" font-size="10.00">ant::printable_traits</text>
</a>
</g>
<!-- Node2&#45;&gt;Node1 -->
<g id="edge2" class="edge"><title>Node2&#45;&gt;Node1</title>
<path fill="none" stroke="midnightblue" d="M87.5469,-171.793C132.952,-186.202 210.886,-203.562 272,-179 326.274,-157.187 369.914,-98.1166 386.16,-73.7417"/>
<polygon fill="midnightblue" stroke="midnightblue" points="88.4173,-168.395 77.8244,-168.594 86.2293,-175.044 88.4173,-168.395"/>
</g>
<!-- Node4 -->
<g id="node6" class="node"><title>Node4</title>
<a xlink:href="structant_1_1_detector__t_1_1_any__t.html" target="_top" xlink:title="ant::Detector_t::Any_t">
<polygon fill="white" stroke="black" points="148.5,-52.5 148.5,-73.5 261.5,-73.5 261.5,-52.5 148.5,-52.5"/>
<text text-anchor="middle" x="205" y="-60.5" font-family="Helvetica,sans-Serif" font-size="10.00">ant::Detector_t::Any_t</text>
</a>
</g>
<!-- Node2&#45;&gt;Node4 -->
<g id="edge8" class="edge"><title>Node2&#45;&gt;Node4</title>
<path fill="none" stroke="midnightblue" d="M75.9191,-142.114C107.67,-122.654 160.577,-90.227 187.743,-73.5768"/>
<polygon fill="midnightblue" stroke="midnightblue" points="73.877,-139.261 67.1799,-147.47 77.5349,-145.229 73.877,-139.261"/>
</g>
<!-- Node3 -->
<g id="node4" class="node"><title>Node3</title>
<a xlink:href="classant_1_1std__ext_1_1shared__ptr__container.html" target="_top" xlink:title="ant::std_ext::shared\l_ptr_container\&lt; TCluster \&gt;">
<polygon fill="white" stroke="black" points="138,-0 138,-34 272,-34 272,-0 138,-0"/>
<text text-anchor="start" x="146" y="-21" font-family="Helvetica,sans-Serif" font-size="10.00">ant::std_ext::shared</text>
<text text-anchor="middle" x="205" y="-8" font-family="Helvetica,sans-Serif" font-size="10.00">_ptr_container&lt; TCluster &gt;</text>
</a>
</g>
<!-- Node3&#45;&gt;Node1 -->
<g id="edge4" class="edge"><title>Node3&#45;&gt;Node1</title>
<path fill="none" stroke="#9a32cd" stroke-dasharray="5,2" d="M282.18,-34.0093C298.656,-37.8122 315.933,-41.929 332,-46 339.886,-47.9981 348.31,-50.2615 356.302,-52.4699"/>
<polygon fill="#9a32cd" stroke="#9a32cd" points="282.571,-30.5084 272.042,-31.6853 281.007,-37.3314 282.571,-30.5084"/>
<text text-anchor="middle" x="311" y="-50" font-family="Helvetica,sans-Serif" font-size="10.00"> Clusters</text>
</g>
<!-- Node4&#45;&gt;Node1 -->
<g id="edge6" class="edge"><title>Node4&#45;&gt;Node1</title>
<path fill="none" stroke="#9a32cd" stroke-dasharray="5,2" d="M271.821,-63C297.789,-63 326.784,-63 349.899,-63"/>
<polygon fill="#9a32cd" stroke="#9a32cd" points="271.661,-59.5001 261.661,-63 271.661,-66.5001 271.661,-59.5001"/>
<text text-anchor="middle" x="311" y="-67" font-family="Helvetica,sans-Serif" font-size="10.00"> Detector</text>
</g>
<!-- Node4&#45;&gt;Node4 -->
<g id="edge10" class="edge"><title>Node4&#45;&gt;Node4</title>
<path fill="none" stroke="#9a32cd" stroke-dasharray="5,2" d="M189.25,-83.7934C190.64,-88.5291 195.89,-92 205,-92 219.949,-92 224.504,-82.6531 218.665,-73.7079"/>
<polygon fill="#9a32cd" stroke="#9a32cd" points="192.738,-84.2094 191.335,-73.7079 185.883,-82.7922 192.738,-84.2094"/>
<text text-anchor="middle" x="205" y="-161" font-family="Helvetica,sans-Serif" font-size="10.00"> TAPS_Apparatus</text>
<text text-anchor="middle" x="205" y="-148" font-family="Helvetica,sans-Serif" font-size="10.00">CB_Apparatus</text>
<text text-anchor="middle" x="205" y="-135" font-family="Helvetica,sans-Serif" font-size="10.00">None</text>
<text text-anchor="middle" x="205" y="-122" font-family="Helvetica,sans-Serif" font-size="10.00">Veto</text>
<text text-anchor="middle" x="205" y="-109" font-family="Helvetica,sans-Serif" font-size="10.00">Tracker</text>
<text text-anchor="middle" x="205" y="-96" font-family="Helvetica,sans-Serif" font-size="10.00">Calo</text>
</g>
</g>
</svg>
