<?xml version="1.0" encoding="UTF-8" standalone="no"?>
<!DOCTYPE svg PUBLIC "-//W3C//DTD SVG 1.1//EN"
 "http://www.w3.org/Graphics/SVG/1.1/DTD/svg11.dtd">
<!-- Generated by graphviz version 2.26.3 (20100126.1600)
 -->
<!-- Title: ant::expconfig::detector::TAPSVeto::BaF2_Element_t Pages: 1 -->
<svg width="178pt" height="174pt"
 viewBox="0.00 0.00 178.00 174.00" xmlns="http://www.w3.org/2000/svg" xmlns:xlink="http://www.w3.org/1999/xlink">
<g id="graph1" class="graph" transform="scale(1 1) rotate(0) translate(4 170)">
<title>ant::expconfig::detector::TAPSVeto::BaF2_Element_t</title>
<polygon fill="white" stroke="white" points="-4,5 -4,-170 175,-170 175,5 -4,5"/>
<!-- Node1 -->
<g id="node1" class="node"><title>Node1</title>
<polygon fill="#bfbfbf" stroke="black" points="11,-1 11,-35 159,-35 159,-1 11,-1"/>
<text text-anchor="start" x="19" y="-22" font-family="Helvetica,sans-Serif" font-size="10.00">ant::expconfig::detector</text>
<text text-anchor="middle" x="85" y="-9" font-family="Helvetica,sans-Serif" font-size="10.00">::TAPSVeto::BaF2_Element_t</text>
</g>
<!-- Node2 -->
<g id="node2" class="node"><title>Node2</title>
<a xlink:href="structant_1_1expconfig_1_1detector_1_1_t_a_p_s_veto_1_1_t_a_p_s_veto___element__t.html" target="_top" xlink:title="ant::expconfig::detector\l::TAPSVeto::TAPSVeto_Element_t">
<polygon fill="white" stroke="black" points="-0.5,-73 -0.5,-107 170.5,-107 170.5,-73 -0.5,-73"/>
<text text-anchor="start" x="7.5" y="-94" font-family="Helvetica,sans-Serif" font-size="10.00">ant::expconfig::detector</text>
<text text-anchor="middle" x="85" y="-81" font-family="Helvetica,sans-Serif" font-size="10.00">::TAPSVeto::TAPSVeto_Element_t</text>
</a>
</g>
<!-- Node2&#45;&gt;Node1 -->
<g id="edge2" class="edge"><title>Node2&#45;&gt;Node1</title>
<path fill="none" stroke="midnightblue" d="M85,-62.7193C85,-53.572 85,-43.6255 85,-35.4407"/>
<polygon fill="midnightblue" stroke="midnightblue" points="81.5001,-62.937 85,-72.937 88.5001,-62.937 81.5001,-62.937"/>
</g>
<!-- Node3 -->
<g id="node4" class="node"><title>Node3</title>
<a xlink:href="structant_1_1_detector__t_1_1_element__t.html" target="_top" xlink:title="ant::Detector_t::Element_t">
<polygon fill="white" stroke="black" points="19,-144.5 19,-165.5 151,-165.5 151,-144.5 19,-144.5"/>
<text text-anchor="middle" x="85" y="-152.5" font-family="Helvetica,sans-Serif" font-size="10.00">ant::Detector_t::Element_t</text>
</a>
</g>
<!-- Node3&#45;&gt;Node2 -->
<g id="edge4" class="edge"><title>Node3&#45;&gt;Node2</title>
<path fill="none" stroke="midnightblue" d="M85,-134.131C85,-125.405 85,-115.391 85,-107.11"/>
<polygon fill="midnightblue" stroke="midnightblue" points="81.5001,-134.267 85,-144.267 88.5001,-134.267 81.5001,-134.267"/>
</g>
</g>
</svg>
