<?xml version="1.0" encoding="UTF-8" standalone="no"?>
<!DOCTYPE svg PUBLIC "-//W3C//DTD SVG 1.1//EN"
 "http://www.w3.org/Graphics/SVG/1.1/DTD/svg11.dtd">
<!-- Generated by graphviz version 2.26.3 (20100126.1600)
 -->
<!-- Title: ant::TAntHeader Pages: 1 -->
<svg width="284pt" height="228pt"
 viewBox="0.00 0.00 284.00 228.00" xmlns="http://www.w3.org/2000/svg" xmlns:xlink="http://www.w3.org/1999/xlink">
<g id="graph1" class="graph" transform="scale(1 1) rotate(0) translate(4 224)">
<title>ant::TAntHeader</title>
<polygon fill="white" stroke="white" points="-4,5 -4,-224 281,-224 281,5 -4,5"/>
<!-- Node1 -->
<g id="node1" class="node"><title>Node1</title>
<polygon fill="#bfbfbf" stroke="black" points="58.5,-0.5 58.5,-21.5 147.5,-21.5 147.5,-0.5 58.5,-0.5"/>
<text text-anchor="middle" x="103" y="-8.5" font-family="Helvetica,sans-Serif" font-size="10.00">ant::TAntHeader</text>
</g>
<!-- Node2 -->
<g id="node2" class="node"><title>Node2</title>
<polygon fill="white" stroke="#bfbfbf" points="0,-124.5 0,-145.5 54,-145.5 54,-124.5 0,-124.5"/>
<text text-anchor="middle" x="27" y="-132.5" font-family="Helvetica,sans-Serif" font-size="10.00">TNamed</text>
</g>
<!-- Node2&#45;&gt;Node1 -->
<g id="edge2" class="edge"><title>Node2&#45;&gt;Node1</title>
<path fill="none" stroke="midnightblue" d="M32.6762,-114.723C39.0264,-94.44 50.7407,-63.0291 68,-40 73.2058,-33.0539 80.3999,-26.7228 86.9126,-21.7607"/>
<polygon fill="midnightblue" stroke="midnightblue" points="29.2741,-113.884 29.7711,-124.467 35.9823,-115.884 29.2741,-113.884"/>
</g>
<!-- Node3 -->
<g id="node4" class="node"><title>Node3</title>
<a xlink:href="classant_1_1printable__traits.html" target="_top" xlink:title="ant::printable_traits">
<polygon fill="white" stroke="black" points="39,-191.5 39,-212.5 139,-212.5 139,-191.5 39,-191.5"/>
<text text-anchor="middle" x="89" y="-199.5" font-family="Helvetica,sans-Serif" font-size="10.00">ant::printable_traits</text>
</a>
</g>
<!-- Node3&#45;&gt;Node1 -->
<g id="edge4" class="edge"><title>Node3&#45;&gt;Node1</title>
<path fill="none" stroke="midnightblue" d="M90.5086,-181.418C93.4723,-140.985 99.9616,-52.4525 102.212,-21.7439"/>
<polygon fill="midnightblue" stroke="midnightblue" points="87.0131,-181.23 89.7726,-191.459 93.9944,-181.742 87.0131,-181.23"/>
</g>
<!-- Node4 -->
<g id="node6" class="node"><title>Node4</title>
<a xlink:href="structant_1_1_t_i_d.html" target="_top" xlink:title="ant::TID">
<polygon fill="white" stroke="black" points="109.5,-124.5 109.5,-145.5 162.5,-145.5 162.5,-124.5 109.5,-124.5"/>
<text text-anchor="middle" x="136" y="-132.5" font-family="Helvetica,sans-Serif" font-size="10.00">ant::TID</text>
</a>
</g>
<!-- Node3&#45;&gt;Node4 -->
<g id="edge8" class="edge"><title>Node3&#45;&gt;Node4</title>
<path fill="none" stroke="midnightblue" d="M102.535,-182.706C111.028,-170.599 121.652,-155.454 128.622,-145.517"/>
<polygon fill="midnightblue" stroke="midnightblue" points="99.4289,-181.039 96.5514,-191.235 105.16,-185.059 99.4289,-181.039"/>
</g>
<!-- Node4&#45;&gt;Node1 -->
<g id="edge6" class="edge"><title>Node4&#45;&gt;Node1</title>
<path fill="none" stroke="#9a32cd" stroke-dasharray="5,2" d="M130.57,-114.598C123.466,-87.9042 111.28,-42.1138 105.806,-21.5454"/>
<polygon fill="#9a32cd" stroke="#9a32cd" points="127.232,-115.664 133.186,-124.428 133.997,-113.864 127.232,-115.664"/>
<text text-anchor="middle" x="144.5" y="-77" font-family="Helvetica,sans-Serif" font-size="10.00"> LastID</text>
<text text-anchor="middle" x="144.5" y="-64" font-family="Helvetica,sans-Serif" font-size="10.00">FirstID</text>
</g>
<!-- Node5 -->
<g id="node9" class="node"><title>Node5</title>
<a xlink:title="STL class. ">
<polygon fill="white" stroke="#bfbfbf" points="180,-124.5 180,-145.5 240,-145.5 240,-124.5 180,-124.5"/>
<text text-anchor="middle" x="210" y="-132.5" font-family="Helvetica,sans-Serif" font-size="10.00">std::string</text>
</a>
</g>
<!-- Node5&#45;&gt;Node1 -->
<g id="edge10" class="edge"><title>Node5&#45;&gt;Node1</title>
<path fill="none" stroke="#9a32cd" stroke-dasharray="5,2" d="M204.806,-114.668C198.51,-93.6183 186.04,-60.938 165,-40 156.998,-32.0369 146.397,-25.9903 136.228,-21.5344"/>
<polygon fill="#9a32cd" stroke="#9a32cd" points="201.488,-115.801 207.549,-124.492 208.231,-113.919 201.488,-115.801"/>
<text text-anchor="middle" x="238.5" y="-96.5" font-family="Helvetica,sans-Serif" font-size="10.00"> GitInfoDatabase</text>
<text text-anchor="middle" x="238.5" y="-83.5" font-family="Helvetica,sans-Serif" font-size="10.00">GitInfo</text>
<text text-anchor="middle" x="238.5" y="-70.5" font-family="Helvetica,sans-Serif" font-size="10.00">CmdLine</text>
<text text-anchor="middle" x="238.5" y="-57.5" font-family="Helvetica,sans-Serif" font-size="10.00">WorkingDir</text>
<text text-anchor="middle" x="238.5" y="-44.5" font-family="Helvetica,sans-Serif" font-size="10.00">SetupName</text>
</g>
<!-- Node6 -->
<g id="node11" class="node"><title>Node6</title>
<a xlink:title="STL class. ">
<polygon fill="white" stroke="#bfbfbf" points="162.5,-185 162.5,-219 257.5,-219 257.5,-185 162.5,-185"/>
<text text-anchor="start" x="170.5" y="-206" font-family="Helvetica,sans-Serif" font-size="10.00">std::basic_string&lt;</text>
<text text-anchor="middle" x="210" y="-193" font-family="Helvetica,sans-Serif" font-size="10.00"> char &gt;</text>
</a>
</g>
<!-- Node6&#45;&gt;Node5 -->
<g id="edge12" class="edge"><title>Node6&#45;&gt;Node5</title>
<path fill="none" stroke="midnightblue" d="M210,-174.534C210,-164.306 210,-153.301 210,-145.506"/>
<polygon fill="midnightblue" stroke="midnightblue" points="206.5,-174.746 210,-184.746 213.5,-174.746 206.5,-174.746"/>
</g>
</g>
</svg>
