<?xml version="1.0" encoding="UTF-8" standalone="no"?>
<!DOCTYPE svg PUBLIC "-//W3C//DTD SVG 1.1//EN"
 "http://www.w3.org/Graphics/SVG/1.1/DTD/svg11.dtd">
<!-- Generated by graphviz version 2.26.3 (20100126.1600)
 -->
<!-- Title: ant::calibration::Editor Pages: 1 -->
<svg width="950pt" height="204pt"
 viewBox="0.00 0.00 950.00 204.00" xmlns="http://www.w3.org/2000/svg" xmlns:xlink="http://www.w3.org/1999/xlink">
<g id="graph1" class="graph" transform="scale(1 1) rotate(0) translate(4 200)">
<title>ant::calibration::Editor</title>
<polygon fill="white" stroke="white" points="-4,5 -4,-200 947,-200 947,5 -4,5"/>
<!-- Node1 -->
<g id="node1" class="node"><title>Node1</title>
<polygon fill="#bfbfbf" stroke="black" points="830,-18.5 830,-39.5 942,-39.5 942,-18.5 830,-18.5"/>
<text text-anchor="middle" x="886" y="-26.5" font-family="Helvetica,sans-Serif" font-size="10.00">ant::calibration::Editor</text>
</g>
<!-- Node2 -->
<g id="node2" class="node"><title>Node2</title>
<a xlink:title="STL class. ">
<polygon fill="white" stroke="#bfbfbf" points="449,-6.5 449,-27.5 509,-27.5 509,-6.5 449,-6.5"/>
<text text-anchor="middle" x="479" y="-14.5" font-family="Helvetica,sans-Serif" font-size="10.00">std::string</text>
</a>
</g>
<!-- Node2&#45;&gt;Node1 -->
<g id="edge2" class="edge"><title>Node2&#45;&gt;Node1</title>
<path fill="none" stroke="#9a32cd" stroke-dasharray="5,2" d="M519.429,-18.192C592.473,-20.3456 746.561,-24.8888 829.804,-27.3431"/>
<polygon fill="#9a32cd" stroke="#9a32cd" points="519.357,-14.6885 509.259,-17.8921 519.151,-21.6854 519.357,-14.6885"/>
<text text-anchor="middle" x="711" y="-30" font-family="Helvetica,sans-Serif" font-size="10.00"> filename</text>
</g>
<!-- Node4 -->
<g id="node6" class="node"><title>Node4</title>
<a xlink:href="structant_1_1_t_calibration_data.html" target="_top" xlink:title="The TCalibrationData struct contains one calibration iteration. ">
<polygon fill="white" stroke="black" points="656,-72.5 656,-93.5 766,-93.5 766,-72.5 656,-72.5"/>
<text text-anchor="middle" x="711" y="-80.5" font-family="Helvetica,sans-Serif" font-size="10.00">ant::TCalibrationData</text>
</a>
</g>
<!-- Node2&#45;&gt;Node4 -->
<g id="edge22" class="edge"><title>Node2&#45;&gt;Node4</title>
<path fill="none" stroke="#9a32cd" stroke-dasharray="5,2" d="M519.3,-24.1884C551.741,-30.4359 598.309,-40.4481 638,-53 655.114,-58.4123 673.829,-66.1411 688.024,-72.3984"/>
<polygon fill="#9a32cd" stroke="#9a32cd" points="519.767,-20.7146 509.29,-22.2938 518.465,-27.5925 519.767,-20.7146"/>
<text text-anchor="middle" x="605" y="-70" font-family="Helvetica,sans-Serif" font-size="10.00"> Author</text>
<text text-anchor="middle" x="605" y="-57" font-family="Helvetica,sans-Serif" font-size="10.00">CalibrationID</text>
</g>
<!-- Node3 -->
<g id="node4" class="node"><title>Node3</title>
<a xlink:title="STL class. ">
<polygon fill="white" stroke="#bfbfbf" points="191.5,-0 191.5,-34 286.5,-34 286.5,-0 191.5,-0"/>
<text text-anchor="start" x="199.5" y="-21" font-family="Helvetica,sans-Serif" font-size="10.00">std::basic_string&lt;</text>
<text text-anchor="middle" x="239" y="-8" font-family="Helvetica,sans-Serif" font-size="10.00"> char &gt;</text>
</a>
</g>
<!-- Node3&#45;&gt;Node2 -->
<g id="edge4" class="edge"><title>Node3&#45;&gt;Node2</title>
<path fill="none" stroke="midnightblue" d="M296.93,-17C344.805,-17 410.868,-17 448.844,-17"/>
<polygon fill="midnightblue" stroke="midnightblue" points="296.703,-13.5001 286.703,-17 296.703,-20.5001 296.703,-13.5001"/>
</g>
<!-- Node4&#45;&gt;Node1 -->
<g id="edge6" class="edge"><title>Node4&#45;&gt;Node1</title>
<path fill="none" stroke="#9a32cd" stroke-dasharray="5,2" d="M754.965,-69.4338C785.011,-60.1622 824.249,-48.0545 851.929,-39.5134"/>
<polygon fill="#9a32cd" stroke="#9a32cd" points="753.681,-66.1671 745.157,-72.4601 755.745,-72.8559 753.681,-66.1671"/>
<text text-anchor="middle" x="798" y="-63" font-family="Helvetica,sans-Serif" font-size="10.00"> cdata</text>
</g>
<!-- Node5 -->
<g id="node8" class="node"><title>Node5</title>
<a xlink:href="classant_1_1printable__traits.html" target="_top" xlink:title="ant::printable_traits">
<polygon fill="white" stroke="black" points="0,-113.5 0,-134.5 100,-134.5 100,-113.5 0,-113.5"/>
<text text-anchor="middle" x="50" y="-121.5" font-family="Helvetica,sans-Serif" font-size="10.00">ant::printable_traits</text>
</a>
</g>
<!-- Node5&#45;&gt;Node4 -->
<g id="edge8" class="edge"><title>Node5&#45;&gt;Node4</title>
<path fill="none" stroke="midnightblue" d="M110.13,-129.03C217.334,-136.573 448.054,-146.34 638,-110 655.519,-106.648 674.38,-99.5746 688.541,-93.5083"/>
<polygon fill="midnightblue" stroke="midnightblue" points="110.373,-125.539 100.146,-128.309 109.868,-132.521 110.373,-125.539"/>
</g>
<!-- Node7 -->
<g id="node12" class="node"><title>Node7</title>
<a xlink:href="structant_1_1_t_key_value.html" target="_top" xlink:title="ant::TKeyValue\&lt; ValueType \&gt;">
<polygon fill="white" stroke="black" points="164.5,-72.5 164.5,-93.5 313.5,-93.5 313.5,-72.5 164.5,-72.5"/>
<text text-anchor="middle" x="239" y="-80.5" font-family="Helvetica,sans-Serif" font-size="10.00">ant::TKeyValue&lt; ValueType &gt;</text>
</a>
</g>
<!-- Node5&#45;&gt;Node7 -->
<g id="edge14" class="edge"><title>Node5&#45;&gt;Node7</title>
<path fill="none" stroke="midnightblue" d="M108.518,-111.306C134.821,-105.6 165.496,-98.9453 190.493,-93.5227"/>
<polygon fill="midnightblue" stroke="midnightblue" points="107.703,-107.901 98.6722,-113.441 109.187,-114.742 107.703,-107.901"/>
</g>
<!-- Node9 -->
<g id="node17" class="node"><title>Node9</title>
<a xlink:href="structant_1_1_t_i_d.html" target="_top" xlink:title="ant::TID">
<polygon fill="white" stroke="black" points="332.5,-157.5 332.5,-178.5 385.5,-178.5 385.5,-157.5 332.5,-157.5"/>
<text text-anchor="middle" x="359" y="-165.5" font-family="Helvetica,sans-Serif" font-size="10.00">ant::TID</text>
</a>
</g>
<!-- Node5&#45;&gt;Node9 -->
<g id="edge20" class="edge"><title>Node5&#45;&gt;Node9</title>
<path fill="none" stroke="midnightblue" d="M108.85,-136.415C111.94,-136.974 115.005,-137.506 118,-138 195.378,-150.761 287.539,-160.815 332.153,-165.36"/>
<polygon fill="midnightblue" stroke="midnightblue" points="109.415,-132.961 98.9419,-134.559 108.126,-139.841 109.415,-132.961"/>
</g>
<!-- Node6 -->
<g id="node10" class="node"><title>Node6</title>
<polygon fill="white" stroke="#bfbfbf" points="404.5,-72.5 404.5,-93.5 553.5,-93.5 553.5,-72.5 404.5,-72.5"/>
<text text-anchor="middle" x="479" y="-80.5" font-family="Helvetica,sans-Serif" font-size="10.00">std::vector&lt; ant::TKeyValue &gt;</text>
</g>
<!-- Node6&#45;&gt;Node4 -->
<g id="edge10" class="edge"><title>Node6&#45;&gt;Node4</title>
<path fill="none" stroke="#9a32cd" stroke-dasharray="5,2" d="M563.961,-83C594.662,-83 628.493,-83 655.957,-83"/>
<polygon fill="#9a32cd" stroke="#9a32cd" points="563.683,-79.5001 553.683,-83 563.683,-86.5001 563.683,-79.5001"/>
<text text-anchor="middle" x="605" y="-100" font-family="Helvetica,sans-Serif" font-size="10.00"> FitParameters</text>
<text text-anchor="middle" x="605" y="-87" font-family="Helvetica,sans-Serif" font-size="10.00">Data</text>
</g>
<!-- Node7&#45;&gt;Node6 -->
<g id="edge12" class="edge"><title>Node7&#45;&gt;Node6</title>
<path fill="none" stroke="#9a32cd" stroke-dasharray="5,2" d="M323.937,-83C350.199,-83 378.918,-83 404.424,-83"/>
<polygon fill="#9a32cd" stroke="#9a32cd" points="323.622,-79.5001 313.622,-83 323.622,-86.5001 323.622,-79.5001"/>
<text text-anchor="middle" x="359" y="-87" font-family="Helvetica,sans-Serif" font-size="10.00"> elements</text>
</g>
<!-- Node8 -->
<g id="node15" class="node"><title>Node8</title>
<polygon fill="white" stroke="#bfbfbf" points="18.5,-60.5 18.5,-81.5 81.5,-81.5 81.5,-60.5 18.5,-60.5"/>
<text text-anchor="middle" x="50" y="-68.5" font-family="Helvetica,sans-Serif" font-size="10.00">ValueType</text>
</g>
<!-- Node8&#45;&gt;Node7 -->
<g id="edge16" class="edge"><title>Node8&#45;&gt;Node7</title>
<path fill="none" stroke="#9a32cd" stroke-dasharray="5,2" d="M91.7005,-70.4616C108.575,-70.4972 128.231,-70.8599 146,-72 152.003,-72.3852 158.214,-72.8888 164.447,-73.4686"/>
<polygon fill="#9a32cd" stroke="#9a32cd" points="91.5896,-66.9617 81.5952,-70.4777 91.6008,-73.9616 91.5896,-66.9617"/>
<text text-anchor="middle" x="132" y="-76" font-family="Helvetica,sans-Serif" font-size="10.00"> Value</text>
</g>
<!-- Node9&#45;&gt;Node4 -->
<g id="edge18" class="edge"><title>Node9&#45;&gt;Node4</title>
<path fill="none" stroke="#9a32cd" stroke-dasharray="5,2" d="M396.177,-170.146C451.1,-171.979 556.236,-170.317 638,-138 663.382,-127.968 687.611,-106.588 700.777,-93.6384"/>
<polygon fill="#9a32cd" stroke="#9a32cd" points="396.014,-166.637 385.884,-169.741 395.739,-173.632 396.014,-166.637"/>
<text text-anchor="middle" x="479" y="-187" font-family="Helvetica,sans-Serif" font-size="10.00"> LastID</text>
<text text-anchor="middle" x="479" y="-174" font-family="Helvetica,sans-Serif" font-size="10.00">FirstID</text>
</g>
</g>
</svg>
