<?xml version="1.0" encoding="UTF-8" standalone="no"?>
<!DOCTYPE svg PUBLIC "-//W3C//DTD SVG 1.1//EN"
 "http://www.w3.org/Graphics/SVG/1.1/DTD/svg11.dtd">
<!-- Generated by graphviz version 2.26.3 (20100126.1600)
 -->
<!-- Title: TriplePi0Hist_t::Fill_t Pages: 1 -->
<svg width="148pt" height="568pt"
 viewBox="0.00 0.00 148.00 568.00" xmlns="http://www.w3.org/2000/svg" xmlns:xlink="http://www.w3.org/1999/xlink">
<g id="graph1" class="graph" transform="scale(1 1) rotate(0) translate(4 564)">
<title>TriplePi0Hist_t::Fill_t</title>
<polygon fill="white" stroke="white" points="-4,5 -4,-564 145,-564 145,5 -4,5"/>
<!-- Node1 -->
<g id="node1" class="node"><title>Node1</title>
<polygon fill="#bfbfbf" stroke="black" points="16,-0.5 16,-21.5 124,-21.5 124,-0.5 16,-0.5"/>
<text text-anchor="middle" x="70" y="-8.5" font-family="Helvetica,sans-Serif" font-size="10.00">TriplePi0Hist_t::Fill_t</text>
</g>
<!-- Node2 -->
<g id="node2" class="node"><title>Node2</title>
<a xlink:href="structant_1_1analysis_1_1physics_1_1triple_pi0_1_1_pion_prod_tree.html" target="_top" xlink:title="ant::analysis::physics\l::triplePi0::PionProdTree">
<polygon fill="white" stroke="black" points="8.5,-73 8.5,-107 131.5,-107 131.5,-73 8.5,-73"/>
<text text-anchor="start" x="16.5" y="-94" font-family="Helvetica,sans-Serif" font-size="10.00">ant::analysis::physics</text>
<text text-anchor="middle" x="70" y="-81" font-family="Helvetica,sans-Serif" font-size="10.00">::triplePi0::PionProdTree</text>
</a>
</g>
<!-- Node2&#45;&gt;Node1 -->
<g id="edge2" class="edge"><title>Node2&#45;&gt;Node1</title>
<path fill="none" stroke="#9a32cd" stroke-dasharray="5,2" d="M70,-62.6228C70,-48.4727 70,-32.0243 70,-21.5672"/>
<polygon fill="#9a32cd" stroke="#9a32cd" points="66.5001,-62.8581 70,-72.8582 73.5001,-62.8582 66.5001,-62.8581"/>
<text text-anchor="middle" x="81.5" y="-44.5" font-family="Helvetica,sans-Serif" font-size="10.00"> Tree</text>
</g>
<!-- Node3 -->
<g id="node4" class="node"><title>Node3</title>
<a xlink:href="structant_1_1_wrap_t_tree.html" target="_top" xlink:title="The WrapTTree struct simplifies TTree handling in physics classes. ">
<polygon fill="white" stroke="black" points="27.5,-146.5 27.5,-167.5 112.5,-167.5 112.5,-146.5 27.5,-146.5"/>
<text text-anchor="middle" x="70" y="-154.5" font-family="Helvetica,sans-Serif" font-size="10.00">ant::WrapTTree</text>
</a>
</g>
<!-- Node3&#45;&gt;Node2 -->
<g id="edge4" class="edge"><title>Node3&#45;&gt;Node2</title>
<path fill="none" stroke="midnightblue" d="M70,-136.165C70,-126.797 70,-115.88 70,-107.014"/>
<polygon fill="midnightblue" stroke="midnightblue" points="66.5001,-136.235 70,-146.235 73.5001,-136.235 66.5001,-136.235"/>
</g>
<!-- Node4 -->
<g id="node6" class="node"><title>Node4</title>
<polygon fill="white" stroke="#bfbfbf" points="0,-219 0,-253 140,-253 140,-219 0,-219"/>
<text text-anchor="start" x="8" y="-240" font-family="Helvetica,sans-Serif" font-size="10.00">std::vector&lt; ant::WrapTTree</text>
<text text-anchor="middle" x="70" y="-227" font-family="Helvetica,sans-Serif" font-size="10.00">::ROOT_branch_t &gt;</text>
</g>
<!-- Node4&#45;&gt;Node3 -->
<g id="edge6" class="edge"><title>Node4&#45;&gt;Node3</title>
<path fill="none" stroke="#9a32cd" stroke-dasharray="5,2" d="M70,-208.623C70,-194.473 70,-178.024 70,-167.567"/>
<polygon fill="#9a32cd" stroke="#9a32cd" points="66.5001,-208.858 70,-218.858 73.5001,-208.858 66.5001,-208.858"/>
<text text-anchor="middle" x="91.5" y="-190.5" font-family="Helvetica,sans-Serif" font-size="10.00"> branches</text>
</g>
<!-- Node5 -->
<g id="node8" class="node"><title>Node5</title>
<a xlink:href="structant_1_1_wrap_t_tree_1_1_r_o_o_t__branch__t.html" target="_top" xlink:title="ant::WrapTTree::ROOT\l_branch_t">
<polygon fill="white" stroke="black" points="10.5,-305 10.5,-339 129.5,-339 129.5,-305 10.5,-305"/>
<text text-anchor="start" x="18.5" y="-326" font-family="Helvetica,sans-Serif" font-size="10.00">ant::WrapTTree::ROOT</text>
<text text-anchor="middle" x="70" y="-313" font-family="Helvetica,sans-Serif" font-size="10.00">_branch_t</text>
</a>
</g>
<!-- Node5&#45;&gt;Node4 -->
<g id="edge8" class="edge"><title>Node5&#45;&gt;Node4</title>
<path fill="none" stroke="#9a32cd" stroke-dasharray="5,2" d="M70,-294.342C70,-280.774 70,-264.861 70,-253.084"/>
<polygon fill="#9a32cd" stroke="#9a32cd" points="66.5001,-294.597 70,-304.597 73.5001,-294.597 66.5001,-294.597"/>
<text text-anchor="middle" x="91.5" y="-276.5" font-family="Helvetica,sans-Serif" font-size="10.00"> elements</text>
</g>
<!-- Node6 -->
<g id="node10" class="node"><title>Node6</title>
<a xlink:href="structant_1_1_wrap_t_tree_1_1_r_o_o_t__branchinfo__t.html" target="_top" xlink:title="ant::WrapTTree::ROOT\l_branchinfo_t">
<polygon fill="white" stroke="black" points="10.5,-379 10.5,-413 129.5,-413 129.5,-379 10.5,-379"/>
<text text-anchor="start" x="18.5" y="-400" font-family="Helvetica,sans-Serif" font-size="10.00">ant::WrapTTree::ROOT</text>
<text text-anchor="middle" x="70" y="-387" font-family="Helvetica,sans-Serif" font-size="10.00">_branchinfo_t</text>
</a>
</g>
<!-- Node6&#45;&gt;Node5 -->
<g id="edge10" class="edge"><title>Node6&#45;&gt;Node5</title>
<path fill="none" stroke="midnightblue" d="M70,-368.627C70,-358.725 70,-347.834 70,-339.07"/>
<polygon fill="midnightblue" stroke="midnightblue" points="66.5001,-368.837 70,-378.837 73.5001,-368.837 66.5001,-368.837"/>
</g>
<!-- Node7 -->
<g id="node12" class="node"><title>Node7</title>
<a xlink:title="STL class. ">
<polygon fill="white" stroke="#bfbfbf" points="40,-464.5 40,-485.5 100,-485.5 100,-464.5 40,-464.5"/>
<text text-anchor="middle" x="70" y="-472.5" font-family="Helvetica,sans-Serif" font-size="10.00">std::string</text>
</a>
</g>
<!-- Node7&#45;&gt;Node6 -->
<g id="edge12" class="edge"><title>Node7&#45;&gt;Node6</title>
<path fill="none" stroke="#9a32cd" stroke-dasharray="5,2" d="M70,-454.162C70,-441.363 70,-425.171 70,-413.124"/>
<polygon fill="#9a32cd" stroke="#9a32cd" points="66.5001,-454.346 70,-464.346 73.5001,-454.346 66.5001,-454.346"/>
<text text-anchor="middle" x="85" y="-436.5" font-family="Helvetica,sans-Serif" font-size="10.00"> Name</text>
</g>
<!-- Node8 -->
<g id="node14" class="node"><title>Node8</title>
<a xlink:title="STL class. ">
<polygon fill="white" stroke="#bfbfbf" points="22.5,-525 22.5,-559 117.5,-559 117.5,-525 22.5,-525"/>
<text text-anchor="start" x="30.5" y="-546" font-family="Helvetica,sans-Serif" font-size="10.00">std::basic_string&lt;</text>
<text text-anchor="middle" x="70" y="-533" font-family="Helvetica,sans-Serif" font-size="10.00"> char &gt;</text>
</a>
</g>
<!-- Node8&#45;&gt;Node7 -->
<g id="edge14" class="edge"><title>Node8&#45;&gt;Node7</title>
<path fill="none" stroke="midnightblue" d="M70,-514.534C70,-504.306 70,-493.301 70,-485.506"/>
<polygon fill="midnightblue" stroke="midnightblue" points="66.5001,-514.746 70,-524.746 73.5001,-514.746 66.5001,-514.746"/>
</g>
</g>
</svg>
