<?xml version="1.0" encoding="UTF-8" standalone="no"?>
<!DOCTYPE svg PUBLIC "-//W3C//DTD SVG 1.1//EN"
 "http://www.w3.org/Graphics/SVG/1.1/DTD/svg11.dtd">
<!-- Generated by graphviz version 2.26.3 (20100126.1600)
 -->
<!-- Title: src/root&#45;addons/analysis_codes/symmetric_pi0.cc Pages: 1 -->
<svg width="833pt" height="392pt"
 viewBox="0.00 0.00 833.00 392.00" xmlns="http://www.w3.org/2000/svg" xmlns:xlink="http://www.w3.org/1999/xlink">
<g id="graph1" class="graph" transform="scale(1 1) rotate(0) translate(4 388)">
<title>src/root&#45;addons/analysis_codes/symmetric_pi0.cc</title>
<polygon fill="white" stroke="white" points="-4,5 -4,-388 830,-388 830,5 -4,5"/>
<!-- Node1 -->
<g id="node1" class="node"><title>Node1</title>
<polygon fill="#bfbfbf" stroke="black" points="293,-349 293,-383 421,-383 421,-349 293,-349"/>
<text text-anchor="start" x="301" y="-370" font-family="Helvetica,sans-Serif" font-size="10.00">src/root&#45;addons/analysis</text>
<text text-anchor="middle" x="357" y="-357" font-family="Helvetica,sans-Serif" font-size="10.00">_codes/symmetric_pi0.cc</text>
</g>
<!-- Node2 -->
<g id="node3" class="node"><title>Node2</title>
<a xlink:href="symmetric__pi0_8h.html" target="_top" xlink:title="symmetric_pi0.h">
<polygon fill="white" stroke="black" points="-0.5,-290.5 -0.5,-311.5 88.5,-311.5 88.5,-290.5 -0.5,-290.5"/>
<text text-anchor="middle" x="44" y="-298.5" font-family="Helvetica,sans-Serif" font-size="10.00">symmetric_pi0.h</text>
</a>
</g>
<!-- Node1&#45;&gt;Node2 -->
<g id="edge2" class="edge"><title>Node1&#45;&gt;Node2</title>
<path fill="none" stroke="midnightblue" d="M292.904,-352.689C235.777,-340.826 153.055,-323.647 98.9076,-312.403"/>
<polygon fill="midnightblue" stroke="midnightblue" points="99.3117,-308.912 88.8089,-310.305 97.8883,-315.766 99.3117,-308.912"/>
</g>
<!-- Node3 -->
<g id="node5" class="node"><title>Node3</title>
<polygon fill="white" stroke="#bfbfbf" points="106,-290.5 106,-311.5 156,-311.5 156,-290.5 106,-290.5"/>
<text text-anchor="middle" x="131" y="-298.5" font-family="Helvetica,sans-Serif" font-size="10.00">TTree.h</text>
</g>
<!-- Node1&#45;&gt;Node3 -->
<g id="edge4" class="edge"><title>Node1&#45;&gt;Node3</title>
<path fill="none" stroke="midnightblue" d="M294.13,-348.979C258.901,-339.287 213.959,-326.67 165.874,-312.197"/>
<polygon fill="midnightblue" stroke="midnightblue" points="166.802,-308.821 156.217,-309.278 164.777,-315.522 166.802,-308.821"/>
</g>
<!-- Node4 -->
<g id="node7" class="node"><title>Node4</title>
<polygon fill="white" stroke="#bfbfbf" points="174,-290.5 174,-311.5 218,-311.5 218,-290.5 174,-290.5"/>
<text text-anchor="middle" x="196" y="-298.5" font-family="Helvetica,sans-Serif" font-size="10.00">TH2.h</text>
</g>
<!-- Node1&#45;&gt;Node4 -->
<g id="edge6" class="edge"><title>Node1&#45;&gt;Node4</title>
<path fill="none" stroke="midnightblue" d="M314.699,-348.922C287.392,-337.898 252.452,-323.791 227.565,-313.744"/>
<polygon fill="midnightblue" stroke="midnightblue" points="228.811,-310.472 218.228,-309.974 226.19,-316.963 228.811,-310.472"/>
</g>
<!-- Node5 -->
<g id="node9" class="node"><title>Node5</title>
<polygon fill="white" stroke="#bfbfbf" points="235.5,-290.5 235.5,-311.5 318.5,-311.5 318.5,-290.5 235.5,-290.5"/>
<text text-anchor="middle" x="277" y="-298.5" font-family="Helvetica,sans-Serif" font-size="10.00">TGraphErrors.h</text>
</g>
<!-- Node1&#45;&gt;Node5 -->
<g id="edge8" class="edge"><title>Node1&#45;&gt;Node5</title>
<path fill="none" stroke="midnightblue" d="M335.981,-348.922C324.358,-339.479 309.952,-327.774 298.287,-318.296"/>
<polygon fill="midnightblue" stroke="midnightblue" points="300.325,-315.442 290.356,-311.852 295.91,-320.874 300.325,-315.442"/>
</g>
<!-- Node6 -->
<g id="node11" class="node"><title>Node6</title>
<polygon fill="white" stroke="#bfbfbf" points="336,-290.5 336,-311.5 378,-311.5 378,-290.5 336,-290.5"/>
<text text-anchor="middle" x="357" y="-298.5" font-family="Helvetica,sans-Serif" font-size="10.00">TF1.h</text>
</g>
<!-- Node1&#45;&gt;Node6 -->
<g id="edge10" class="edge"><title>Node1&#45;&gt;Node6</title>
<path fill="none" stroke="midnightblue" d="M357,-348.922C357,-340.67 357,-330.692 357,-321.982"/>
<polygon fill="midnightblue" stroke="midnightblue" points="360.5,-321.852 357,-311.852 353.5,-321.852 360.5,-321.852"/>
</g>
<!-- Node7 -->
<g id="node13" class="node"><title>Node7</title>
<polygon fill="white" stroke="#bfbfbf" points="395.5,-290.5 395.5,-311.5 460.5,-311.5 460.5,-290.5 395.5,-290.5"/>
<text text-anchor="middle" x="428" y="-298.5" font-family="Helvetica,sans-Serif" font-size="10.00">TCanvas.h</text>
</g>
<!-- Node1&#45;&gt;Node7 -->
<g id="edge12" class="edge"><title>Node1&#45;&gt;Node7</title>
<path fill="none" stroke="midnightblue" d="M375.654,-348.922C385.769,-339.662 398.259,-328.227 408.502,-318.85"/>
<polygon fill="midnightblue" stroke="midnightblue" points="411.134,-321.186 416.146,-311.852 406.407,-316.023 411.134,-321.186"/>
</g>
<!-- Node8 -->
<g id="node15" class="node"><title>Node8</title>
<polygon fill="white" stroke="#bfbfbf" points="477.5,-290.5 477.5,-311.5 548.5,-311.5 548.5,-290.5 477.5,-290.5"/>
<text text-anchor="middle" x="513" y="-298.5" font-family="Helvetica,sans-Serif" font-size="10.00">TDirectory.h</text>
</g>
<!-- Node1&#45;&gt;Node8 -->
<g id="edge14" class="edge"><title>Node1&#45;&gt;Node8</title>
<path fill="none" stroke="midnightblue" d="M397.987,-348.922C422.901,-338.541 454.372,-325.428 478.094,-315.544"/>
<polygon fill="midnightblue" stroke="midnightblue" points="479.535,-318.735 487.42,-311.658 476.843,-312.274 479.535,-318.735"/>
</g>
<!-- Node9 -->
<g id="node17" class="node"><title>Node9</title>
<polygon fill="white" stroke="#bfbfbf" points="565.5,-290.5 565.5,-311.5 612.5,-311.5 612.5,-290.5 565.5,-290.5"/>
<text text-anchor="middle" x="589" y="-298.5" font-family="Helvetica,sans-Serif" font-size="10.00">TCut.h</text>
</g>
<!-- Node1&#45;&gt;Node9 -->
<g id="edge16" class="edge"><title>Node1&#45;&gt;Node9</title>
<path fill="none" stroke="midnightblue" d="M421.265,-349.824C458.254,-340.241 505.783,-327.466 555.628,-312.309"/>
<polygon fill="midnightblue" stroke="midnightblue" points="556.756,-315.624 565.293,-309.348 554.706,-308.931 556.756,-315.624"/>
</g>
<!-- Node10 -->
<g id="node19" class="node"><title>Node10</title>
<a xlink:href="_tree_tools_8h.html" target="_top" xlink:title="TreeTools.h">
<polygon fill="white" stroke="black" points="630,-290.5 630,-311.5 698,-311.5 698,-290.5 630,-290.5"/>
<text text-anchor="middle" x="664" y="-298.5" font-family="Helvetica,sans-Serif" font-size="10.00">TreeTools.h</text>
</a>
</g>
<!-- Node1&#45;&gt;Node10 -->
<g id="edge18" class="edge"><title>Node1&#45;&gt;Node10</title>
<path fill="none" stroke="midnightblue" d="M421.205,-353.775C472.479,-343.804 546.386,-328.969 619.875,-312.188"/>
<polygon fill="midnightblue" stroke="midnightblue" points="620.806,-315.566 629.769,-309.917 619.239,-308.743 620.806,-315.566"/>
</g>
<!-- Node11 -->
<g id="node21" class="node"><title>Node11</title>
<polygon fill="white" stroke="#bfbfbf" points="587.5,-174.5 587.5,-195.5 628.5,-195.5 628.5,-174.5 587.5,-174.5"/>
<text text-anchor="middle" x="608" y="-182.5" font-family="Helvetica,sans-Serif" font-size="10.00">string</text>
</g>
<!-- Node10&#45;&gt;Node11 -->
<g id="edge20" class="edge"><title>Node10&#45;&gt;Node11</title>
<path fill="none" stroke="midnightblue" d="M653.501,-290.288C645.214,-281.283 633.931,-267.718 627,-254 619.308,-238.774 614.401,-220.033 611.505,-205.927"/>
<polygon fill="midnightblue" stroke="midnightblue" points="614.882,-204.947 609.599,-195.763 608.002,-206.237 614.882,-204.947"/>
</g>
<!-- Node12 -->
<g id="node23" class="node"><title>Node12</title>
<a xlink:href="_histogram_factories_8h.html" target="_top" xlink:title="analysis/plot/HistogramFactories.h">
<polygon fill="white" stroke="black" points="636,-232.5 636,-253.5 804,-253.5 804,-232.5 636,-232.5"/>
<text text-anchor="middle" x="720" y="-240.5" font-family="Helvetica,sans-Serif" font-size="10.00">analysis/plot/HistogramFactories.h</text>
</a>
</g>
<!-- Node10&#45;&gt;Node12 -->
<g id="edge22" class="edge"><title>Node10&#45;&gt;Node12</title>
<path fill="none" stroke="midnightblue" d="M674.271,-290.362C682.244,-282.104 693.475,-270.472 702.811,-260.803"/>
<polygon fill="midnightblue" stroke="midnightblue" points="705.366,-263.196 709.794,-253.571 700.33,-258.334 705.366,-263.196"/>
</g>
<!-- Node12&#45;&gt;Node11 -->
<g id="edge50" class="edge"><title>Node12&#45;&gt;Node11</title>
<path fill="none" stroke="midnightblue" d="M699.718,-232.497C682.382,-223.519 657.21,-210.484 637.62,-200.339"/>
<polygon fill="midnightblue" stroke="midnightblue" points="638.999,-197.112 628.51,-195.621 635.78,-203.328 638.999,-197.112"/>
</g>
<!-- Node13 -->
<g id="node25" class="node"><title>Node13</title>
<a xlink:href="interval_8h.html" target="_top" xlink:title="base/interval.h">
<polygon fill="white" stroke="black" points="616,-116.5 616,-137.5 696,-137.5 696,-116.5 616,-116.5"/>
<text text-anchor="middle" x="656" y="-124.5" font-family="Helvetica,sans-Serif" font-size="10.00">base/interval.h</text>
</a>
</g>
<!-- Node12&#45;&gt;Node13 -->
<g id="edge24" class="edge"><title>Node12&#45;&gt;Node13</title>
<path fill="none" stroke="midnightblue" d="M706.724,-232.37C696.632,-223.614 683.14,-210.344 675,-196 666.58,-181.163 661.727,-162.394 659.036,-148.178"/>
<polygon fill="midnightblue" stroke="midnightblue" points="662.421,-147.199 657.315,-137.915 655.517,-148.357 662.421,-147.199"/>
</g>
<!-- Node22 -->
<g id="node43" class="node"><title>Node22</title>
<a xlink:href="_bin_settings_8h.html" target="_top" xlink:title="base/BinSettings.h">
<polygon fill="white" stroke="black" points="683.5,-174.5 683.5,-195.5 782.5,-195.5 782.5,-174.5 683.5,-174.5"/>
<text text-anchor="middle" x="733" y="-182.5" font-family="Helvetica,sans-Serif" font-size="10.00">base/BinSettings.h</text>
</a>
</g>
<!-- Node12&#45;&gt;Node22 -->
<g id="edge42" class="edge"><title>Node12&#45;&gt;Node22</title>
<path fill="none" stroke="midnightblue" d="M722.384,-232.362C724.07,-224.84 726.384,-214.519 728.421,-205.431"/>
<polygon fill="midnightblue" stroke="midnightblue" points="731.859,-206.094 730.631,-195.571 725.028,-204.563 731.859,-206.094"/>
</g>
<!-- Node23 -->
<g id="node46" class="node"><title>Node23</title>
<polygon fill="white" stroke="#bfbfbf" points="781,-116.5 781,-137.5 825,-137.5 825,-116.5 781,-116.5"/>
<text text-anchor="middle" x="803" y="-124.5" font-family="Helvetica,sans-Serif" font-size="10.00">vector</text>
</g>
<!-- Node12&#45;&gt;Node23 -->
<g id="edge52" class="edge"><title>Node12&#45;&gt;Node23</title>
<path fill="none" stroke="midnightblue" d="M745.619,-232.447C761.214,-224.679 780.159,-212.579 791,-196 800.333,-181.728 803.041,-162.384 803.583,-147.809"/>
<polygon fill="midnightblue" stroke="midnightblue" points="807.083,-147.779 803.648,-137.756 800.083,-147.733 807.083,-147.779"/>
</g>
<!-- Node14 -->
<g id="node27" class="node"><title>Node14</title>
<a xlink:href="printable_8h.html" target="_top" xlink:title="printable.h">
<polygon fill="white" stroke="black" points="416,-58.5 416,-79.5 478,-79.5 478,-58.5 416,-58.5"/>
<text text-anchor="middle" x="447" y="-66.5" font-family="Helvetica,sans-Serif" font-size="10.00">printable.h</text>
</a>
</g>
<!-- Node13&#45;&gt;Node14 -->
<g id="edge26" class="edge"><title>Node13&#45;&gt;Node14</title>
<path fill="none" stroke="midnightblue" d="M618.152,-116.497C581.329,-106.278 525.558,-90.8007 487.771,-80.3144"/>
<polygon fill="midnightblue" stroke="midnightblue" points="488.67,-76.9317 478.098,-77.6301 486.798,-83.6768 488.67,-76.9317"/>
</g>
<!-- Node17 -->
<g id="node33" class="node"><title>Node17</title>
<a xlink:href="types_8h.html" target="_top" xlink:title="types.h">
<polygon fill="white" stroke="black" points="495.5,-58.5 495.5,-79.5 544.5,-79.5 544.5,-58.5 495.5,-58.5"/>
<text text-anchor="middle" x="520" y="-66.5" font-family="Helvetica,sans-Serif" font-size="10.00">types.h</text>
</a>
</g>
<!-- Node13&#45;&gt;Node17 -->
<g id="edge32" class="edge"><title>Node13&#45;&gt;Node17</title>
<path fill="none" stroke="midnightblue" d="M631.371,-116.497C609.843,-107.315 578.36,-93.8889 554.355,-83.6516"/>
<polygon fill="midnightblue" stroke="midnightblue" points="555.476,-80.3247 544.905,-79.6212 552.73,-86.7636 555.476,-80.3247"/>
</g>
<!-- Node18 -->
<g id="node35" class="node"><title>Node18</title>
<polygon fill="white" stroke="#bfbfbf" points="562,-58.5 562,-79.5 618,-79.5 618,-58.5 562,-58.5"/>
<text text-anchor="middle" x="590" y="-66.5" font-family="Helvetica,sans-Serif" font-size="10.00">algorithm</text>
</g>
<!-- Node13&#45;&gt;Node18 -->
<g id="edge34" class="edge"><title>Node13&#45;&gt;Node18</title>
<path fill="none" stroke="midnightblue" d="M643.895,-116.362C634.312,-107.941 620.736,-96.0105 609.607,-86.2308"/>
<polygon fill="midnightblue" stroke="midnightblue" points="611.851,-83.5427 602.029,-79.5707 607.23,-88.8009 611.851,-83.5427"/>
</g>
<!-- Node19 -->
<g id="node37" class="node"><title>Node19</title>
<polygon fill="white" stroke="#bfbfbf" points="759.5,-58.5 759.5,-79.5 818.5,-79.5 818.5,-58.5 759.5,-58.5"/>
<text text-anchor="middle" x="789" y="-66.5" font-family="Helvetica,sans-Serif" font-size="10.00">stdexcept</text>
</g>
<!-- Node13&#45;&gt;Node19 -->
<g id="edge36" class="edge"><title>Node13&#45;&gt;Node19</title>
<path fill="none" stroke="midnightblue" d="M680.085,-116.497C701.139,-107.315 731.927,-93.8889 755.402,-83.6516"/>
<polygon fill="midnightblue" stroke="midnightblue" points="756.877,-86.8268 764.644,-79.6212 754.079,-80.4104 756.877,-86.8268"/>
</g>
<!-- Node20 -->
<g id="node39" class="node"><title>Node20</title>
<polygon fill="white" stroke="#bfbfbf" points="636,-58.5 636,-79.5 676,-79.5 676,-58.5 636,-58.5"/>
<text text-anchor="middle" x="656" y="-66.5" font-family="Helvetica,sans-Serif" font-size="10.00">limits</text>
</g>
<!-- Node13&#45;&gt;Node20 -->
<g id="edge38" class="edge"><title>Node13&#45;&gt;Node20</title>
<path fill="none" stroke="midnightblue" d="M656,-116.362C656,-108.922 656,-98.7427 656,-89.7276"/>
<polygon fill="midnightblue" stroke="midnightblue" points="659.5,-89.5706 656,-79.5707 652.5,-89.5707 659.5,-89.5706"/>
</g>
<!-- Node21 -->
<g id="node41" class="node"><title>Node21</title>
<polygon fill="white" stroke="#bfbfbf" points="693.5,-58.5 693.5,-79.5 742.5,-79.5 742.5,-58.5 693.5,-58.5"/>
<text text-anchor="middle" x="718" y="-66.5" font-family="Helvetica,sans-Serif" font-size="10.00">istream</text>
</g>
<!-- Node13&#45;&gt;Node21 -->
<g id="edge40" class="edge"><title>Node13&#45;&gt;Node21</title>
<path fill="none" stroke="midnightblue" d="M667.372,-116.362C676.286,-108.023 688.879,-96.2418 699.276,-86.5162"/>
<polygon fill="midnightblue" stroke="midnightblue" points="701.789,-88.9582 706.7,-79.5707 697.007,-83.8463 701.789,-88.9582"/>
</g>
<!-- Node15 -->
<g id="node29" class="node"><title>Node15</title>
<polygon fill="white" stroke="#bfbfbf" points="379,-0.5 379,-21.5 441,-21.5 441,-0.5 379,-0.5"/>
<text text-anchor="middle" x="410" y="-8.5" font-family="Helvetica,sans-Serif" font-size="10.00">type_traits</text>
</g>
<!-- Node14&#45;&gt;Node15 -->
<g id="edge28" class="edge"><title>Node14&#45;&gt;Node15</title>
<path fill="none" stroke="midnightblue" d="M440.214,-58.3619C435.207,-50.5131 428.255,-39.6159 422.282,-30.2527"/>
<polygon fill="midnightblue" stroke="midnightblue" points="425.072,-28.1189 416.743,-21.5707 419.171,-31.8837 425.072,-28.1189"/>
</g>
<!-- Node16 -->
<g id="node31" class="node"><title>Node16</title>
<polygon fill="white" stroke="#bfbfbf" points="459,-0.5 459,-21.5 511,-21.5 511,-0.5 459,-0.5"/>
<text text-anchor="middle" x="485" y="-8.5" font-family="Helvetica,sans-Serif" font-size="10.00">ostream</text>
</g>
<!-- Node14&#45;&gt;Node16 -->
<g id="edge30" class="edge"><title>Node14&#45;&gt;Node16</title>
<path fill="none" stroke="midnightblue" d="M453.97,-58.3619C459.166,-50.4313 466.401,-39.3885 472.578,-29.9606"/>
<polygon fill="midnightblue" stroke="midnightblue" points="475.522,-31.8534 478.074,-21.5707 469.666,-28.0172 475.522,-31.8534"/>
</g>
<!-- Node22&#45;&gt;Node13 -->
<g id="edge44" class="edge"><title>Node22&#45;&gt;Node13</title>
<path fill="none" stroke="midnightblue" d="M718.877,-174.362C707.48,-165.777 691.242,-153.546 678.122,-143.664"/>
<polygon fill="midnightblue" stroke="midnightblue" points="680.127,-140.792 670.033,-137.571 675.915,-146.383 680.127,-140.792"/>
</g>
<!-- Node22&#45;&gt;Node19 -->
<g id="edge48" class="edge"><title>Node22&#45;&gt;Node19</title>
<path fill="none" stroke="midnightblue" d="M738.168,-174.295C747.544,-154.872 767.49,-113.556 779.419,-88.8462"/>
<polygon fill="midnightblue" stroke="midnightblue" points="782.649,-90.2064 783.845,-79.6792 776.345,-87.1631 782.649,-90.2064"/>
</g>
<!-- Node22&#45;&gt;Node23 -->
<g id="edge46" class="edge"><title>Node22&#45;&gt;Node23</title>
<path fill="none" stroke="midnightblue" d="M745.839,-174.362C756.002,-165.941 770.401,-154.011 782.204,-144.231"/>
<polygon fill="midnightblue" stroke="midnightblue" points="784.775,-146.646 790.242,-137.571 780.309,-141.256 784.775,-146.646"/>
</g>
</g>
</svg>
