<?xml version="1.0" encoding="UTF-8" standalone="no"?>
<!DOCTYPE svg PUBLIC "-//W3C//DTD SVG 1.1//EN"
 "http://www.w3.org/Graphics/SVG/1.1/DTD/svg11.dtd">
<!-- Generated by graphviz version 2.26.3 (20100126.1600)
 -->
<!-- Title: src/base/std_ext/system.h Pages: 1 -->
<svg width="3314pt" height="102pt"
 viewBox="0.00 0.00 3314.00 102.00" xmlns="http://www.w3.org/2000/svg" xmlns:xlink="http://www.w3.org/1999/xlink">
<g id="graph1" class="graph" transform="scale(1 1) rotate(0) translate(4 98)">
<title>src/base/std_ext/system.h</title>
<polygon fill="white" stroke="white" points="-4,5 -4,-98 3311,-98 3311,5 -4,5"/>
<!-- Node1 -->
<g id="node1" class="node"><title>Node1</title>
<polygon fill="#bfbfbf" stroke="black" points="1571.5,-72.5 1571.5,-93.5 1704.5,-93.5 1704.5,-72.5 1571.5,-72.5"/>
<text text-anchor="middle" x="1638" y="-80.5" font-family="Helvetica,sans-Serif" font-size="10.00">src/base/std_ext/system.h</text>
</g>
<!-- Node2 -->
<g id="node3" class="node"><title>Node2</title>
<a xlink:href="_ant-alt_veto_cal_tool_8cc.html" target="_top" xlink:title="progs/Ant&#45;altVetoCalTool.cc">
<polygon fill="white" stroke="black" points="0,-7.5 0,-28.5 140,-28.5 140,-7.5 0,-7.5"/>
<text text-anchor="middle" x="70" y="-15.5" font-family="Helvetica,sans-Serif" font-size="10.00">progs/Ant&#45;altVetoCalTool.cc</text>
</a>
</g>
<!-- Node1&#45;&gt;Node2 -->
<g id="edge2" class="edge"><title>Node1&#45;&gt;Node2</title>
<path fill="none" stroke="midnightblue" d="M1561.01,-82.5265C1296.53,-80.5936 426.194,-71.6164 149,-36 136.025,-34.3328 122.051,-31.5014 109.516,-28.5717"/>
<polygon fill="midnightblue" stroke="midnightblue" points="1561.26,-86.0283 1571.28,-82.6002 1561.31,-79.0284 1561.26,-86.0283"/>
</g>
<!-- Node3 -->
<g id="node5" class="node"><title>Node3</title>
<a xlink:href="_ant-calib-regedit_8cc.html" target="_top" xlink:title="progs/Ant&#45;calib&#45;regedit.cc">
<polygon fill="white" stroke="black" points="158,-7.5 158,-28.5 286,-28.5 286,-7.5 158,-7.5"/>
<text text-anchor="middle" x="222" y="-15.5" font-family="Helvetica,sans-Serif" font-size="10.00">progs/Ant&#45;calib&#45;regedit.cc</text>
</a>
</g>
<!-- Node1&#45;&gt;Node3 -->
<g id="edge4" class="edge"><title>Node1&#45;&gt;Node3</title>
<path fill="none" stroke="midnightblue" d="M1561.13,-82.3979C1314.08,-80.1343 542.164,-70.4193 295,-36 282.977,-34.3256 270.055,-31.4923 258.474,-28.563"/>
<polygon fill="midnightblue" stroke="midnightblue" points="1561.41,-85.9005 1571.45,-82.4908 1561.48,-78.9008 1561.41,-85.9005"/>
</g>
<!-- Node4 -->
<g id="node7" class="node"><title>Node4</title>
<a xlink:href="_ant-calib-viewer_8cc.html" target="_top" xlink:title="progs/Ant&#45;calib&#45;viewer.cc">
<polygon fill="white" stroke="black" points="303.5,-7.5 303.5,-28.5 430.5,-28.5 430.5,-7.5 303.5,-7.5"/>
<text text-anchor="middle" x="367" y="-15.5" font-family="Helvetica,sans-Serif" font-size="10.00">progs/Ant&#45;calib&#45;viewer.cc</text>
</a>
</g>
<!-- Node1&#45;&gt;Node4 -->
<g id="edge6" class="edge"><title>Node1&#45;&gt;Node4</title>
<path fill="none" stroke="midnightblue" d="M1560.87,-82.05C1331.63,-78.8979 656.824,-67.1581 439,-36 427.138,-34.3032 414.392,-31.4637 402.971,-28.5357"/>
<polygon fill="midnightblue" stroke="midnightblue" points="1561.08,-85.553 1571.13,-82.1893 1561.17,-78.5536 1561.08,-85.553"/>
</g>
<!-- Node5 -->
<g id="node9" class="node"><title>Node5</title>
<a xlink:href="_ant-chain_8cc.html" target="_top" xlink:title="hadd like tool to concatenate TTrees in ROOT files using TChains. ">
<polygon fill="white" stroke="black" points="448,-7.5 448,-28.5 546,-28.5 546,-7.5 448,-7.5"/>
<text text-anchor="middle" x="497" y="-15.5" font-family="Helvetica,sans-Serif" font-size="10.00">progs/Ant&#45;chain.cc</text>
</a>
</g>
<!-- Node1&#45;&gt;Node5 -->
<g id="edge8" class="edge"><title>Node1&#45;&gt;Node5</title>
<path fill="none" stroke="midnightblue" d="M1560.96,-82.2294C1347.01,-79.68 748.602,-69.6609 555,-36 545.34,-34.3204 535.044,-31.4856 525.849,-28.5566"/>
<polygon fill="midnightblue" stroke="midnightblue" points="1561.12,-85.7314 1571.16,-82.3487 1561.2,-78.7319 1561.12,-85.7314"/>
</g>
<!-- Node6 -->
<g id="node11" class="node"><title>Node6</title>
<a xlink:href="_ant-fake_raw_8cc.html" target="_top" xlink:title="progs/Ant&#45;fakeRaw.cc">
<polygon fill="white" stroke="black" points="564,-7.5 564,-28.5 678,-28.5 678,-7.5 564,-7.5"/>
<text text-anchor="middle" x="621" y="-15.5" font-family="Helvetica,sans-Serif" font-size="10.00">progs/Ant&#45;fakeRaw.cc</text>
</a>
</g>
<!-- Node1&#45;&gt;Node6 -->
<g id="edge10" class="edge"><title>Node1&#45;&gt;Node6</title>
<path fill="none" stroke="midnightblue" d="M1561.02,-81.3477C1365.73,-76.8107 854.699,-62.6877 687,-36 676.209,-34.2827 664.65,-31.475 654.269,-28.5825"/>
<polygon fill="midnightblue" stroke="midnightblue" points="1561.11,-84.8508 1571.19,-81.582 1561.28,-77.8526 1561.11,-84.8508"/>
</g>
<!-- Node7 -->
<g id="node13" class="node"><title>Node7</title>
<a xlink:href="_ant-make_sigmas_8cc.html" target="_top" xlink:title="progs/Ant&#45;makeSigmas.cc">
<polygon fill="white" stroke="black" points="696,-7.5 696,-28.5 828,-28.5 828,-7.5 696,-7.5"/>
<text text-anchor="middle" x="762" y="-15.5" font-family="Helvetica,sans-Serif" font-size="10.00">progs/Ant&#45;makeSigmas.cc</text>
</a>
</g>
<!-- Node1&#45;&gt;Node7 -->
<g id="edge12" class="edge"><title>Node1&#45;&gt;Node7</title>
<path fill="none" stroke="midnightblue" d="M1561.19,-80.2289C1388.77,-73.7259 975.231,-56.4785 837,-36 824.946,-34.2143 811.985,-31.4236 800.285,-28.5681"/>
<polygon fill="midnightblue" stroke="midnightblue" points="1561.08,-83.7271 1571.2,-80.6046 1561.34,-76.732 1561.08,-83.7271"/>
</g>
<!-- Node8 -->
<g id="node15" class="node"><title>Node8</title>
<a xlink:href="_ant-make_tagg_eff_8cc.html" target="_top" xlink:title="progs/Ant&#45;makeTaggEff.cc">
<polygon fill="white" stroke="black" points="846,-7.5 846,-28.5 980,-28.5 980,-7.5 846,-7.5"/>
<text text-anchor="middle" x="913" y="-15.5" font-family="Helvetica,sans-Serif" font-size="10.00">progs/Ant&#45;makeTaggEff.cc</text>
</a>
</g>
<!-- Node1&#45;&gt;Node8 -->
<g id="edge14" class="edge"><title>Node1&#45;&gt;Node8</title>
<path fill="none" stroke="midnightblue" d="M1560.92,-81.4079C1438.9,-77.9931 1194.06,-67.5004 989,-36 976.938,-34.1471 963.964,-31.3723 952.21,-28.5528"/>
<polygon fill="midnightblue" stroke="midnightblue" points="1561.18,-84.9161 1571.27,-81.6888 1561.37,-77.9187 1561.18,-84.9161"/>
</g>
<!-- Node9 -->
<g id="node17" class="node"><title>Node9</title>
<a xlink:href="_ant-rawdump_8cc.html" target="_top" xlink:title="progs/Ant&#45;rawdump.cc">
<polygon fill="white" stroke="black" points="997.5,-7.5 997.5,-28.5 1112.5,-28.5 1112.5,-7.5 997.5,-7.5"/>
<text text-anchor="middle" x="1055" y="-15.5" font-family="Helvetica,sans-Serif" font-size="10.00">progs/Ant&#45;rawdump.cc</text>
</a>
</g>
<!-- Node1&#45;&gt;Node9 -->
<g id="edge16" class="edge"><title>Node1&#45;&gt;Node9</title>
<path fill="none" stroke="midnightblue" d="M1561.24,-80.2314C1459.78,-75.6142 1275.78,-63.9184 1121,-36 1110.6,-34.1236 1099.45,-31.3764 1089.33,-28.5905"/>
<polygon fill="midnightblue" stroke="midnightblue" points="1561.25,-83.7352 1571.39,-80.6824 1561.56,-76.7421 1561.25,-83.7352"/>
</g>
<!-- Node10 -->
<g id="node19" class="node"><title>Node10</title>
<a xlink:href="_ant_8cc.html" target="_top" xlink:title="Main Ant executable. ">
<polygon fill="white" stroke="black" points="1130,-7.5 1130,-28.5 1202,-28.5 1202,-7.5 1130,-7.5"/>
<text text-anchor="middle" x="1166" y="-15.5" font-family="Helvetica,sans-Serif" font-size="10.00">progs/Ant.cc</text>
</a>
</g>
<!-- Node1&#45;&gt;Node10 -->
<g id="edge18" class="edge"><title>Node1&#45;&gt;Node10</title>
<path fill="none" stroke="midnightblue" d="M1560.94,-80.7779C1474.58,-76.8508 1330.93,-65.994 1211,-36 1203.65,-34.1627 1195.91,-31.3925 1188.96,-28.5724"/>
<polygon fill="midnightblue" stroke="midnightblue" points="1561.04,-84.2855 1571.18,-81.2233 1561.35,-77.2921 1561.04,-84.2855"/>
</g>
<!-- Node11 -->
<g id="node21" class="node"><title>Node11</title>
<a xlink:href="_eta_dalitz__plot_8cc.html" target="_top" xlink:title="Plotting tool for TTrees from the ant::analysis::physics::common::MesonDalitzDecays physics class...">
<polygon fill="white" stroke="black" points="1219.5,-7.5 1219.5,-28.5 1338.5,-28.5 1338.5,-7.5 1219.5,-7.5"/>
<text text-anchor="middle" x="1279" y="-15.5" font-family="Helvetica,sans-Serif" font-size="10.00">progs/EtaDalitz_plot.cc</text>
</a>
</g>
<!-- Node1&#45;&gt;Node11 -->
<g id="edge20" class="edge"><title>Node1&#45;&gt;Node11</title>
<path fill="none" stroke="midnightblue" d="M1561.52,-72.751C1502.6,-64.3495 1419.28,-51.3645 1347,-36 1336.97,-33.8671 1326.2,-31.1959 1316.25,-28.5694"/>
<polygon fill="midnightblue" stroke="midnightblue" points="1561.1,-76.2264 1571.49,-74.1627 1562.08,-69.2955 1561.1,-76.2264"/>
</g>
<!-- Node12 -->
<g id="node23" class="node"><title>Node12</title>
<a xlink:href="_etap_dalitz__plot_8cc.html" target="_top" xlink:title="Plotting tool for TTrees from the ant::analysis::physics::etaprime::etaprime_dalitz physics class...">
<polygon fill="white" stroke="black" points="1356,-7.5 1356,-28.5 1480,-28.5 1480,-7.5 1356,-7.5"/>
<text text-anchor="middle" x="1418" y="-15.5" font-family="Helvetica,sans-Serif" font-size="10.00">progs/EtapDalitz_plot.cc</text>
</a>
</g>
<!-- Node1&#45;&gt;Node12 -->
<g id="edge22" class="edge"><title>Node1&#45;&gt;Node12</title>
<path fill="none" stroke="midnightblue" d="M1592.39,-69.5248C1551.27,-57.3743 1491.61,-39.7482 1453.82,-28.5835"/>
<polygon fill="midnightblue" stroke="midnightblue" points="1591.58,-72.935 1602.16,-72.412 1593.57,-66.2219 1591.58,-72.935"/>
</g>
<!-- Node13 -->
<g id="node25" class="node"><title>Node13</title>
<a xlink:href="_etap_omega_g__fit_8cc.html" target="_top" xlink:title="progs/EtapOmegaG_fit.cc">
<polygon fill="white" stroke="black" points="1498,-7.5 1498,-28.5 1628,-28.5 1628,-7.5 1498,-7.5"/>
<text text-anchor="middle" x="1563" y="-15.5" font-family="Helvetica,sans-Serif" font-size="10.00">progs/EtapOmegaG_fit.cc</text>
</a>
</g>
<!-- Node1&#45;&gt;Node13 -->
<g id="edge24" class="edge"><title>Node1&#45;&gt;Node13</title>
<path fill="none" stroke="midnightblue" d="M1617.73,-65.4338C1604.13,-53.6419 1586.65,-38.4983 1575.15,-28.5337"/>
<polygon fill="midnightblue" stroke="midnightblue" points="1615.77,-68.3622 1625.62,-72.2666 1620.35,-63.0723 1615.77,-68.3622"/>
</g>
<!-- Node14 -->
<g id="node27" class="node"><title>Node14</title>
<a xlink:href="_etap_omega_g__plot_8cc.html" target="_top" xlink:title="progs/EtapOmegaG_plot.cc">
<polygon fill="white" stroke="black" points="1645.5,-7.5 1645.5,-28.5 1782.5,-28.5 1782.5,-7.5 1645.5,-7.5"/>
<text text-anchor="middle" x="1714" y="-15.5" font-family="Helvetica,sans-Serif" font-size="10.00">progs/EtapOmegaG_plot.cc</text>
</a>
</g>
<!-- Node1&#45;&gt;Node14 -->
<g id="edge26" class="edge"><title>Node1&#45;&gt;Node14</title>
<path fill="none" stroke="midnightblue" d="M1658.15,-65.7667C1671.99,-53.9281 1689.92,-38.5923 1701.68,-28.5337"/>
<polygon fill="midnightblue" stroke="midnightblue" points="1655.87,-63.107 1650.55,-72.2666 1660.42,-68.4267 1655.87,-63.107"/>
</g>
<!-- Node15 -->
<g id="node29" class="node"><title>Node15</title>
<a xlink:href="_omega_eta_g2__plot_8cc.html" target="_top" xlink:title="Plotting tool for TTrees from the ant::analysis::physics::OmegaEtaG2 physics class. ">
<polygon fill="white" stroke="black" points="1799.5,-7.5 1799.5,-28.5 1936.5,-28.5 1936.5,-7.5 1799.5,-7.5"/>
<text text-anchor="middle" x="1868" y="-15.5" font-family="Helvetica,sans-Serif" font-size="10.00">progs/OmegaEtaG2_plot.cc</text>
</a>
</g>
<!-- Node1&#45;&gt;Node15 -->
<g id="edge28" class="edge"><title>Node1&#45;&gt;Node15</title>
<path fill="none" stroke="midnightblue" d="M1684.9,-69.745C1728.03,-57.558 1791.12,-39.7281 1830.84,-28.5005"/>
<polygon fill="midnightblue" stroke="midnightblue" points="1683.88,-66.3967 1675.21,-72.4844 1685.78,-73.1328 1683.88,-66.3967"/>
</g>
<!-- Node16 -->
<g id="node31" class="node"><title>Node16</title>
<a xlink:href="tagg_eff_plot_8cc.html" target="_top" xlink:title="progs/taggEffPlot.cc">
<polygon fill="white" stroke="black" points="1954,-7.5 1954,-28.5 2060,-28.5 2060,-7.5 1954,-7.5"/>
<text text-anchor="middle" x="2007" y="-15.5" font-family="Helvetica,sans-Serif" font-size="10.00">progs/taggEffPlot.cc</text>
</a>
</g>
<!-- Node1&#45;&gt;Node16 -->
<g id="edge30" class="edge"><title>Node1&#45;&gt;Node16</title>
<path fill="none" stroke="midnightblue" d="M1714.8,-74.0718C1777.21,-66.1393 1867.32,-53.1457 1945,-36 1954.41,-33.9225 1964.5,-31.2094 1973.74,-28.5223"/>
<polygon fill="midnightblue" stroke="midnightblue" points="1714.12,-70.6289 1704.64,-75.3495 1715,-77.5742 1714.12,-70.6289"/>
</g>
<!-- Node17 -->
<g id="node33" class="node"><title>Node17</title>
<a xlink:href="_triple_pi0__cuts_8cc.html" target="_top" xlink:title="progs/TriplePi0_cuts.cc">
<polygon fill="white" stroke="black" points="2077.5,-7.5 2077.5,-28.5 2196.5,-28.5 2196.5,-7.5 2077.5,-7.5"/>
<text text-anchor="middle" x="2137" y="-15.5" font-family="Helvetica,sans-Serif" font-size="10.00">progs/TriplePi0_cuts.cc</text>
</a>
</g>
<!-- Node1&#45;&gt;Node17 -->
<g id="edge32" class="edge"><title>Node1&#45;&gt;Node17</title>
<path fill="none" stroke="midnightblue" d="M1714.54,-78.1395C1801.1,-71.8366 1946.03,-58.847 2069,-36 2079.57,-34.037 2090.9,-31.2966 2101.23,-28.5452"/>
<polygon fill="midnightblue" stroke="midnightblue" points="1714.26,-74.6505 1704.53,-78.857 1714.76,-81.6325 1714.26,-74.6505"/>
</g>
<!-- Node18 -->
<g id="node35" class="node"><title>Node18</title>
<a xlink:href="_triple_pi0__plot_8cc.html" target="_top" xlink:title="progs/TriplePi0_plot.cc">
<polygon fill="white" stroke="black" points="2214,-7.5 2214,-28.5 2330,-28.5 2330,-7.5 2214,-7.5"/>
<text text-anchor="middle" x="2272" y="-15.5" font-family="Helvetica,sans-Serif" font-size="10.00">progs/TriplePi0_plot.cc</text>
</a>
</g>
<!-- Node1&#45;&gt;Node18 -->
<g id="edge34" class="edge"><title>Node1&#45;&gt;Node18</title>
<path fill="none" stroke="midnightblue" d="M1715.13,-80.9942C1824.75,-77.152 2031.55,-66.2352 2205,-36 2215.68,-34.1385 2227.13,-31.3611 2237.49,-28.5419"/>
<polygon fill="midnightblue" stroke="midnightblue" points="1714.71,-77.5065 1704.83,-81.3443 1714.95,-84.5025 1714.71,-77.5065"/>
</g>
<!-- Node19 -->
<g id="node37" class="node"><title>Node19</title>
<a xlink:href="_particle_i_d_8cc.html" target="_top" xlink:title="src/analysis/utils\l/ParticleID.cc">
<polygon fill="white" stroke="black" points="2348,-1 2348,-35 2438,-35 2438,-1 2348,-1"/>
<text text-anchor="start" x="2356" y="-22" font-family="Helvetica,sans-Serif" font-size="10.00">src/analysis/utils</text>
<text text-anchor="middle" x="2393" y="-9" font-family="Helvetica,sans-Serif" font-size="10.00">/ParticleID.cc</text>
</a>
</g>
<!-- Node1&#45;&gt;Node19 -->
<g id="edge36" class="edge"><title>Node1&#45;&gt;Node19</title>
<path fill="none" stroke="midnightblue" d="M1714.51,-80.3304C1870.68,-74.4781 2221.31,-59.1658 2339,-36 2341.91,-35.4274 2344.88,-34.7419 2347.85,-33.9777"/>
<polygon fill="midnightblue" stroke="midnightblue" points="1714.37,-76.833 1704.51,-80.7022 1714.63,-83.8282 1714.37,-76.833"/>
</g>
<!-- Node20 -->
<g id="node39" class="node"><title>Node20</title>
<a xlink:href="_m_c_extracted_8cc.html" target="_top" xlink:title="src/analysis/utils\l/uncertainties/MCExtracted.cc">
<polygon fill="white" stroke="black" points="2455.5,-1 2455.5,-35 2604.5,-35 2604.5,-1 2455.5,-1"/>
<text text-anchor="start" x="2463.5" y="-22" font-family="Helvetica,sans-Serif" font-size="10.00">src/analysis/utils</text>
<text text-anchor="middle" x="2530" y="-9" font-family="Helvetica,sans-Serif" font-size="10.00">/uncertainties/MCExtracted.cc</text>
</a>
</g>
<!-- Node1&#45;&gt;Node20 -->
<g id="edge38" class="edge"><title>Node1&#45;&gt;Node20</title>
<path fill="none" stroke="midnightblue" d="M1714.59,-80.0741C1888.1,-73.1982 2306.91,-55.1411 2447,-36 2449.78,-35.6207 2452.6,-35.1986 2455.44,-34.7421"/>
<polygon fill="midnightblue" stroke="midnightblue" points="1714.37,-76.5799 1704.52,-80.4716 1714.65,-83.5745 1714.37,-76.5799"/>
</g>
<!-- Node21 -->
<g id="node41" class="node"><title>Node21</title>
<a xlink:href="_git_info_8cc.html" target="_top" xlink:title="src/base/GitInfo.cc">
<polygon fill="white" stroke="black" points="2622,-7.5 2622,-28.5 2722,-28.5 2722,-7.5 2622,-7.5"/>
<text text-anchor="middle" x="2672" y="-15.5" font-family="Helvetica,sans-Serif" font-size="10.00">src/base/GitInfo.cc</text>
</a>
</g>
<!-- Node1&#45;&gt;Node21 -->
<g id="edge40" class="edge"><title>Node1&#45;&gt;Node21</title>
<path fill="none" stroke="midnightblue" d="M1714.89,-81.7521C1913.64,-78.1326 2440.89,-65.9234 2613,-36 2622.81,-34.294 2633.28,-31.452 2642.64,-28.5245"/>
<polygon fill="midnightblue" stroke="midnightblue" points="1714.76,-78.2537 1704.83,-81.9331 1714.89,-85.2526 1714.76,-78.2537"/>
</g>
<!-- Node22 -->
<g id="node43" class="node"><title>Node22</title>
<a xlink:href="system_8cc.html" target="_top" xlink:title="src/base/std_ext/system.cc">
<polygon fill="white" stroke="black" points="2740,-7.5 2740,-28.5 2878,-28.5 2878,-7.5 2740,-7.5"/>
<text text-anchor="middle" x="2809" y="-15.5" font-family="Helvetica,sans-Serif" font-size="10.00">src/base/std_ext/system.cc</text>
</a>
</g>
<!-- Node1&#45;&gt;Node22 -->
<g id="edge42" class="edge"><title>Node1&#45;&gt;Node22</title>
<path fill="none" stroke="midnightblue" d="M1714.87,-81.5329C1929.84,-77.1375 2534.25,-62.7008 2731,-36 2743.67,-34.2806 2757.31,-31.4723 2769.58,-28.5798"/>
<polygon fill="midnightblue" stroke="midnightblue" points="1714.56,-78.0385 1704.63,-81.7407 1714.7,-85.037 1714.56,-78.0385"/>
</g>
<!-- Node23 -->
<g id="node45" class="node"><title>Node23</title>
<a xlink:href="_wrap_t_file_8cc.html" target="_top" xlink:title="src/base/WrapTFile.cc">
<polygon fill="white" stroke="black" points="2896,-7.5 2896,-28.5 3012,-28.5 3012,-7.5 2896,-7.5"/>
<text text-anchor="middle" x="2954" y="-15.5" font-family="Helvetica,sans-Serif" font-size="10.00">src/base/WrapTFile.cc</text>
</a>
</g>
<!-- Node1&#45;&gt;Node23 -->
<g id="edge44" class="edge"><title>Node1&#45;&gt;Node23</title>
<path fill="none" stroke="midnightblue" d="M1714.71,-82.3701C1949.98,-80.0819 2659.2,-70.4366 2887,-36 2898.08,-34.3257 2909.95,-31.4924 2920.57,-28.5631"/>
<polygon fill="midnightblue" stroke="midnightblue" points="1714.5,-78.8718 1704.53,-82.4673 1714.56,-85.8715 1714.5,-78.8718"/>
</g>
<!-- Node24 -->
<g id="node47" class="node"><title>Node24</title>
<a xlink:href="_data_base_8cc.html" target="_top" xlink:title="src/calibration/DataBase.cc">
<polygon fill="white" stroke="black" points="3029.5,-7.5 3029.5,-28.5 3166.5,-28.5 3166.5,-7.5 3029.5,-7.5"/>
<text text-anchor="middle" x="3098" y="-15.5" font-family="Helvetica,sans-Serif" font-size="10.00">src/calibration/DataBase.cc</text>
</a>
</g>
<!-- Node1&#45;&gt;Node24 -->
<g id="edge46" class="edge"><title>Node1&#45;&gt;Node24</title>
<path fill="none" stroke="midnightblue" d="M1715.02,-82.3656C1967.04,-79.9784 2765.54,-69.8673 3021,-36 3033.66,-34.322 3047.28,-31.4877 3059.5,-28.5586"/>
<polygon fill="midnightblue" stroke="midnightblue" points="1714.82,-78.8672 1704.86,-82.4605 1714.89,-85.8669 1714.82,-78.8672"/>
</g>
<!-- Node25 -->
<g id="node49" class="node"><title>Node25</title>
<a xlink:href="_test_std_ext_8cc.html" target="_top" xlink:title="test/base/TestStdExt.cc">
<polygon fill="white" stroke="black" points="3183.5,-7.5 3183.5,-28.5 3306.5,-28.5 3306.5,-7.5 3183.5,-7.5"/>
<text text-anchor="middle" x="3245" y="-15.5" font-family="Helvetica,sans-Serif" font-size="10.00">test/base/TestStdExt.cc</text>
</a>
</g>
<!-- Node1&#45;&gt;Node25 -->
<g id="edge48" class="edge"><title>Node1&#45;&gt;Node25</title>
<path fill="none" stroke="midnightblue" d="M1714.87,-81.6467C2005.78,-76.3885 3030.11,-56.5854 3175,-36 3186.68,-34.3409 3199.22,-31.4733 3210.41,-28.5084"/>
<polygon fill="midnightblue" stroke="midnightblue" points="1714.77,-78.1478 1704.84,-81.8276 1714.9,-85.1467 1714.77,-78.1478"/>
</g>
</g>
</svg>
